# Blender 4.5.14 LTS
# www.blender.org
mtllib bench_hall.mtl
o bench_hall
v -1.000000 0.432500 0.160000 0.7020 0.7020 0.7020
v 1.000000 0.467500 0.160000 0.8784 0.8784 0.8784
v -1.000000 0.432500 0.080000 0.7020 0.7020 0.7020
v 1.000000 0.467500 0.080000 0.8235 0.8235 0.8235
v -1.000000 0.467500 0.160000 0.8745 0.8745 0.8745
v 1.000000 0.432500 0.080000 0.7020 0.7020 0.7020
v -1.000000 0.467500 0.080000 0.8196 0.8196 0.8196
v 1.000000 0.432500 0.160000 0.7020 0.7020 0.7020
v 1.000000 0.467500 0.255000 0.8902 0.8902 0.8902
v -1.000000 0.432500 0.175000 0.7020 0.7020 0.7020
v 1.000000 0.467500 0.175000 0.8627 0.8627 0.8627
v -1.000000 0.432500 0.255000 0.7020 0.7020 0.7020
v 1.000000 0.432500 0.255000 0.7020 0.7020 0.7020
v 1.000000 0.432500 0.175000 0.7020 0.7020 0.7020
v -1.000000 0.467500 0.255000 0.8862 0.8862 0.8862
v -1.000000 0.467500 0.175000 0.8588 0.8588 0.8588
v 1.000000 0.432500 0.270000 0.7020 0.7020 0.7020
v -1.000000 0.467500 0.270000 0.8745 0.8745 0.8745
v -1.000000 0.467500 0.350000 0.8902 0.8902 0.8902
v 1.000000 0.467500 0.350000 0.8941 0.8941 0.8941
v 1.000000 0.467500 0.270000 0.8784 0.8784 0.8784
v -1.000000 0.432500 0.270000 0.7020 0.7020 0.7020
v 1.000000 0.432500 0.350000 0.7020 0.7020 0.7020
v -1.000000 0.432500 0.350000 0.7020 0.7020 0.7020
v 1.000000 0.467500 0.445000 0.9568 0.9568 0.9568
v -1.000000 0.432500 0.365000 0.7020 0.7020 0.7020
v -1.000000 0.467500 0.365000 0.8862 0.8862 0.8862
v -1.000000 0.467500 0.445000 0.9529 0.9529 0.9529
v 1.000000 0.467500 0.365000 0.8902 0.8902 0.8902
v 1.000000 0.432500 0.365000 0.7020 0.7020 0.7020
v 1.000000 0.432500 0.445000 0.7020 0.7020 0.7020
v -1.000000 0.432500 0.445000 0.7020 0.7020 0.7020
v -1.000000 0.581170 0.059237 0.7764 0.7764 0.7764
v 1.000000 0.660392 0.048103 0.7020 0.7020 0.7020
v -1.000000 0.660392 0.048103 0.7020 0.7020 0.7020
v 1.000000 0.576299 0.024578 0.7020 0.7020 0.7020
v -1.000000 0.576299 0.024578 0.7020 0.7020 0.7020
v 1.000000 0.581170 0.059237 0.7764 0.7764 0.7764
v 1.000000 0.655521 0.013444 0.7020 0.7020 0.7020
v -1.000000 0.655521 0.013444 0.7020 0.7020 0.7020
v 1.000000 0.695131 0.007877 0.7020 0.7020 0.7020
v -1.000000 0.695131 0.007877 0.7020 0.7020 0.7020
v -1.000000 0.774353 -0.003257 0.7020 0.7020 0.7020
v 1.000000 0.779224 0.031403 0.7020 0.7020 0.7020
v -1.000000 0.779224 0.031403 0.7020 0.7020 0.7020
v 1.000000 0.774353 -0.003257 0.7020 0.7020 0.7020
v 1.000000 0.700003 0.042536 0.7020 0.7020 0.7020
v -1.000000 0.700003 0.042536 0.7020 0.7020 0.7020
v -1.000000 0.818835 0.025836 0.7020 0.7020 0.7020
v 1.000000 0.818835 0.025836 0.7020 0.7020 0.7020
v 1.000000 0.898056 0.014702 0.7020 0.7020 0.7020
v -1.000000 0.893185 -0.019958 0.7020 0.7020 0.7020
v -1.000000 0.898056 0.014702 0.7020 0.7020 0.7020
v 1.000000 0.813964 -0.008824 0.7020 0.7020 0.7020
v 1.000000 0.893185 -0.019958 0.7020 0.7020 0.7020
v -1.000000 0.813964 -0.008824 0.7020 0.7020 0.7020
v -1.000000 0.467500 -0.080000 0.8196 0.8196 0.8196
v 1.000000 0.432500 -0.160000 0.7020 0.7020 0.7020
v -1.000000 0.467500 -0.160000 0.8823 0.8823 0.8823
v -1.000000 0.432500 -0.080000 0.7020 0.7020 0.7020
v 1.000000 0.432500 -0.080000 0.7020 0.7020 0.7020
v 1.000000 0.467500 -0.080000 0.8235 0.8235 0.8235
v 1.000000 0.467500 -0.160000 0.8823 0.8823 0.8823
v -1.000000 0.432500 -0.160000 0.7020 0.7020 0.7020
v 1.000000 0.432500 -0.175000 0.7020 0.7020 0.7020
v 1.000000 0.467500 -0.175000 0.8627 0.8627 0.8627
v -1.000000 0.432500 -0.255000 0.7020 0.7020 0.7020
v 1.000000 0.467500 -0.255000 0.8941 0.8941 0.8941
v -1.000000 0.467500 -0.175000 0.8588 0.8588 0.8588
v -1.000000 0.467500 -0.255000 0.8902 0.8902 0.8902
v 1.000000 0.432500 -0.255000 0.7020 0.7020 0.7020
v -1.000000 0.432500 -0.175000 0.7020 0.7020 0.7020
v 1.000000 0.432500 -0.270000 0.7020 0.7020 0.7020
v 1.000000 0.467500 -0.270000 0.8745 0.8745 0.8745
v -1.000000 0.467500 -0.270000 0.8706 0.8706 0.8706
v 1.000000 0.432500 -0.350000 0.7020 0.7020 0.7020
v -1.000000 0.432500 -0.350000 0.7020 0.7020 0.7020
v -1.000000 0.432500 -0.270000 0.7020 0.7020 0.7020
v -1.000000 0.467500 -0.350000 0.8980 0.8980 0.8980
v 1.000000 0.467500 -0.350000 0.9019 0.9019 0.9019
v -1.000000 0.432500 -0.365000 0.7020 0.7020 0.7020
v 1.000000 0.467500 -0.365000 0.8862 0.8862 0.8862
v -1.000000 0.432500 -0.445000 0.7020 0.7020 0.7020
v -1.000000 0.467500 -0.365000 0.8823 0.8823 0.8823
v -1.000000 0.467500 -0.445000 0.9568 0.9568 0.9568
v 1.000000 0.467500 -0.445000 0.9568 0.9568 0.9568
v 1.000000 0.432500 -0.445000 0.7020 0.7020 0.7020
v 1.000000 0.432500 -0.365000 0.7020 0.7020 0.7020
v -1.000000 0.576299 -0.024578 0.7020 0.7020 0.7020
v 1.000000 0.576299 -0.024578 0.7020 0.7020 0.7020
v -1.000000 0.655521 -0.013444 0.7020 0.7020 0.7020
v -1.000000 0.660392 -0.048103 0.7020 0.7020 0.7020
v 1.000000 0.655521 -0.013444 0.7020 0.7020 0.7020
v 1.000000 0.660392 -0.048103 0.7020 0.7020 0.7020
v -1.000000 0.581170 -0.059237 0.7764 0.7764 0.7764
v 1.000000 0.581170 -0.059237 0.7804 0.7804 0.7804
v 1.000000 0.774353 0.003257 0.7020 0.7020 0.7020
v -1.000000 0.774353 0.003257 0.7020 0.7020 0.7020
v -1.000000 0.700003 -0.042536 0.7020 0.7020 0.7020
v -1.000000 0.779224 -0.031403 0.7020 0.7020 0.7020
v 1.000000 0.779224 -0.031403 0.7020 0.7020 0.7020
v 1.000000 0.700003 -0.042536 0.7020 0.7020 0.7020
v 1.000000 0.695131 -0.007877 0.7020 0.7020 0.7020
v -1.000000 0.695131 -0.007877 0.7020 0.7020 0.7020
v -1.000000 0.813964 0.008824 0.7020 0.7020 0.7020
v -1.000000 0.898056 -0.014702 0.7020 0.7020 0.7020
v 1.000000 0.818835 -0.025836 0.7020 0.7020 0.7020
v 1.000000 0.893185 0.019958 0.7020 0.7020 0.7020
v -1.000000 0.893185 0.019958 0.7020 0.7020 0.7020
v 1.000000 0.898056 -0.014702 0.7020 0.7020 0.7020
v -1.000000 0.818835 -0.025836 0.7020 0.7020 0.7020
v 1.000000 0.813964 0.008824 0.7020 0.7020 0.7020
v -1.030000 0.460000 0.450000 0.9921 0.9921 0.9921
v -1.030000 0.340000 -0.450000 0.9137 0.9137 0.9137
v -1.030000 0.340000 0.450000 0.9098 0.9098 0.9098
v -1.030000 0.460000 -0.450000 0.9921 0.9921 0.9921
v -0.970000 0.340000 0.450000 0.8902 0.8902 0.8902
v -0.970000 0.460000 -0.450000 0.7960 0.7960 0.7960
v -0.970000 0.460000 0.450000 0.7960 0.7960 0.7960
v -0.970000 0.340000 -0.450000 0.8902 0.8902 0.8902
v -1.030000 0.000000 0.060000 0.7490 0.7490 0.7490
v -0.970000 0.000000 0.060000 0.7490 0.7490 0.7490
v -1.030000 0.920000 0.060000 0.9960 0.9960 0.9960
v -0.970000 0.000000 -0.060000 0.7490 0.7490 0.7490
v -1.030000 0.000000 -0.060000 0.7490 0.7490 0.7490
v -0.970000 0.920000 -0.060000 0.9725 0.9725 0.9725
v -0.970000 0.920000 0.060000 0.9686 0.9686 0.9686
v -1.030000 0.920000 -0.060000 1.0000 1.0000 1.0000
v -1.030000 0.000000 -0.350000 0.7960 0.7960 0.7960
v -0.970000 0.060000 -0.350000 0.8039 0.8039 0.8039
v -0.970000 0.060000 0.350000 0.8078 0.8078 0.8078
v -1.030000 0.060000 0.350000 0.8078 0.8078 0.8078
v -1.030000 0.060000 -0.350000 0.8078 0.8078 0.8078
v -0.970000 0.000000 -0.350000 0.8000 0.8000 0.8000
v -0.970000 0.000000 0.350000 0.7960 0.7960 0.7960
v -1.030000 0.400000 0.350000 0.7960 0.7960 0.7960
v -1.030000 0.000000 0.290000 0.7490 0.7490 0.7490
v -1.030000 0.400000 0.290000 0.7960 0.7960 0.7960
v -0.970000 0.400000 0.290000 0.7490 0.7490 0.7490
v -1.030000 0.000000 0.350000 0.7960 0.7960 0.7960
v -0.970000 0.000000 0.290000 0.7490 0.7490 0.7490
v -0.970000 0.400000 0.350000 0.7529 0.7529 0.7529
v -0.970000 0.000000 -0.290000 0.7490 0.7490 0.7490
v -1.030000 0.400000 -0.290000 0.7960 0.7960 0.7960
v -0.970000 0.400000 -0.290000 0.7490 0.7490 0.7490
v -0.970000 0.400000 -0.350000 0.7529 0.7529 0.7529
v -1.030000 0.400000 -0.350000 0.7960 0.7960 0.7960
v -1.030000 0.000000 -0.290000 0.7490 0.7490 0.7490
v 1.030000 0.340000 -0.450000 0.9098 0.9098 0.9098
v 1.030000 0.460000 -0.450000 0.9882 0.9882 0.9882
v 0.970000 0.340000 0.450000 0.8941 0.8941 0.8941
v 0.970000 0.460000 0.450000 0.7960 0.7960 0.7960
v 0.970000 0.460000 -0.450000 0.7960 0.7960 0.7960
v 1.030000 0.340000 0.450000 0.9098 0.9098 0.9098
v 1.030000 0.460000 0.450000 0.9843 0.9843 0.9843
v 0.970000 0.340000 -0.450000 0.8941 0.8941 0.8941
v 1.030000 0.000000 0.060000 0.7529 0.7529 0.7529
v 1.030000 0.000000 -0.060000 0.7529 0.7529 0.7529
v 1.030000 0.920000 -0.060000 0.9960 0.9960 0.9960
v 0.970000 0.000000 -0.060000 0.7451 0.7451 0.7451
v 0.970000 0.000000 0.060000 0.7490 0.7490 0.7490
v 0.970000 0.920000 0.060000 0.9686 0.9686 0.9686
v 1.030000 0.920000 0.060000 0.9960 0.9960 0.9960
v 0.970000 0.920000 -0.060000 0.9725 0.9725 0.9725
v 0.970000 0.060000 0.350000 0.8039 0.8039 0.8039
v 0.970000 0.060000 -0.350000 0.8039 0.8039 0.8039
v 1.030000 0.000000 0.350000 0.7960 0.7960 0.7960
v 1.030000 0.060000 0.350000 0.8078 0.8078 0.8078
v 1.030000 0.060000 -0.350000 0.8117 0.8117 0.8117
v 1.030000 0.400000 0.350000 0.7921 0.7921 0.7921
v 0.970000 0.400000 0.290000 0.7529 0.7529 0.7529
v 1.030000 0.400000 0.290000 0.7921 0.7921 0.7921
v 0.970000 0.000000 0.290000 0.7490 0.7490 0.7490
v 1.030000 0.000000 0.290000 0.7529 0.7529 0.7529
v 0.970000 0.400000 0.350000 0.7568 0.7568 0.7568
v 0.970000 0.000000 0.350000 0.7921 0.7921 0.7921
v 1.030000 0.000000 -0.290000 0.7529 0.7529 0.7529
v 1.030000 0.400000 -0.290000 0.7921 0.7921 0.7921
v 0.970000 0.400000 -0.290000 0.7529 0.7529 0.7529
v 0.970000 0.400000 -0.350000 0.7568 0.7568 0.7568
v 1.030000 0.400000 -0.350000 0.7921 0.7921 0.7921
v 0.970000 0.000000 -0.350000 0.7921 0.7921 0.7921
v 1.030000 0.000000 -0.350000 0.8000 0.8000 0.8000
v 0.970000 0.000000 -0.290000 0.7490 0.7490 0.7490
vn -0.0000 -0.0000 1.0000
vn -0.0000 -0.0000 -1.0000
vn -1.0000 -0.0000 -0.0000
vn 1.0000 -0.0000 -0.0000
vn -0.0000 1.0000 -0.0000
vn -0.0000 -1.0000 -0.0000
vn -0.0000 0.1392 0.9903
vn -0.0000 -0.1392 -0.9903
vn -0.0000 0.9903 -0.1392
vn -0.0000 -0.9903 0.1392
vn -0.0000 -0.1392 0.9903
vn -0.0000 0.1392 -0.9903
vn -0.0000 0.9903 0.1392
vn -0.0000 -0.9903 -0.1392
vt 0.726807 0.992432
vt 0.757568 0.992432
vt 0.757568 0.992944
vt 0.726807 0.992944
vt 0.731728 0.992432
vt 0.731728 0.994482
vt 0.726807 0.994482
vt 0.757568 0.993604
vt 0.726807 0.993604
vt 0.728960 0.992432
vt 0.728960 0.997119
vt 0.726807 0.997119
vt 0.804932 0.992432
vt 0.808447 0.992432
vt 0.808447 0.999463
vt 0.804932 0.999463
vt 0.812256 0.992432
vt 0.812256 0.993408
vt 0.804932 0.993408
vt 0.805420 0.992432
vt 0.805420 0.999756
vt 0.804932 0.999756
vt 0.805409 0.992432
vt 0.805409 0.999756
vt 0.805887 0.992432
vt 0.805887 0.999756
vt 0.808447 0.995947
vt 0.804932 0.995947
vt 0.812256 0.993059
vt 0.804932 0.993059
vt 0.805559 0.992432
vt 0.805559 0.999756
vt 0.806030 0.992432
vt 0.806030 0.999756
s 0
usemtl props
f 1/1/1 8/2/1 2/3/1 5/4/1
f 6/1/2 3/2/2 7/3/2 4/4/2
f 3/1/3 1/5/3 5/6/3 7/7/3
f 8/1/4 6/5/4 4/6/4 2/7/4
f 5/1/5 2/2/5 4/8/5 7/9/5
f 3/1/6 6/2/6 8/8/6 1/9/6
f 12/1/1 13/2/1 9/3/1 15/4/1
f 14/1/2 10/2/2 16/3/2 11/4/2
f 10/1/3 12/5/3 15/6/3 16/7/3
f 13/1/4 14/5/4 11/6/4 9/7/4
f 15/1/5 9/2/5 11/8/5 16/9/5
f 10/1/6 14/2/6 13/8/6 12/9/6
f 24/1/1 23/2/1 20/3/1 19/4/1
f 17/1/2 22/2/2 18/3/2 21/4/2
f 22/1/3 24/5/3 19/6/3 18/7/3
f 23/1/4 17/5/4 21/6/4 20/7/4
f 19/1/5 20/2/5 21/8/5 18/9/5
f 22/1/6 17/2/6 23/8/6 24/9/6
f 32/1/1 31/2/1 25/3/1 28/4/1
f 30/1/2 26/2/2 27/3/2 29/4/2
f 26/1/3 32/5/3 28/6/3 27/7/3
f 31/1/4 30/5/4 29/6/4 25/7/4
f 28/1/5 25/2/5 29/8/5 27/9/5
f 26/1/6 30/2/6 31/8/6 32/9/6
f 33/1/7 38/2/7 34/8/7 35/9/7
f 36/1/8 37/2/8 40/8/8 39/9/8
f 37/1/3 33/10/3 35/11/3 40/12/3
f 38/1/4 36/10/4 39/11/4 34/12/4
f 35/1/9 34/2/9 39/3/9 40/4/9
f 37/1/10 36/2/10 38/3/10 33/4/10
f 48/1/7 47/2/7 44/8/7 45/9/7
f 41/1/8 42/2/8 43/8/8 46/9/8
f 42/1/3 48/10/3 45/11/3 43/12/3
f 47/1/4 41/10/4 46/11/4 44/12/4
f 45/1/9 44/2/9 46/3/9 43/4/9
f 42/1/10 41/2/10 47/3/10 48/4/10
f 49/1/7 50/2/7 51/8/7 53/9/7
f 54/1/8 56/2/8 52/8/8 55/9/8
f 56/1/3 49/10/3 53/11/3 52/12/3
f 50/1/4 54/10/4 55/11/4 51/12/4
f 53/1/9 51/2/9 55/3/9 52/4/9
f 56/1/10 54/2/10 50/3/10 49/4/10
f 60/1/1 61/2/1 62/3/1 57/4/1
f 58/1/2 64/2/2 59/3/2 63/4/2
f 64/1/3 60/5/3 57/6/3 59/7/3
f 61/1/4 58/5/4 63/6/4 62/7/4
f 57/1/5 62/2/5 63/8/5 59/9/5
f 64/1/6 58/2/6 61/8/6 60/9/6
f 72/1/1 65/2/1 66/3/1 69/4/1
f 71/1/2 67/2/2 70/3/2 68/4/2
f 67/1/3 72/5/3 69/6/3 70/7/3
f 65/1/4 71/5/4 68/6/4 66/7/4
f 69/1/5 66/2/5 68/8/5 70/9/5
f 67/1/6 71/2/6 65/8/6 72/9/6
f 78/1/1 73/2/1 74/3/1 75/4/1
f 76/1/2 77/2/2 79/3/2 80/4/2
f 77/1/3 78/5/3 75/6/3 79/7/3
f 73/1/4 76/5/4 80/6/4 74/7/4
f 75/1/5 74/2/5 80/8/5 79/9/5
f 77/1/6 76/2/6 73/8/6 78/9/6
f 81/1/1 88/2/1 82/3/1 84/4/1
f 87/1/2 83/2/2 85/3/2 86/4/2
f 83/1/3 81/5/3 84/6/3 85/7/3
f 88/1/4 87/5/4 86/6/4 82/7/4
f 84/1/5 82/2/5 86/8/5 85/9/5
f 83/1/6 87/2/6 88/8/6 81/9/6
f 89/1/11 90/2/11 93/8/11 91/9/11
f 96/1/12 95/2/12 92/8/12 94/9/12
f 95/1/3 89/10/3 91/11/3 92/12/3
f 90/1/4 96/10/4 94/11/4 93/12/4
f 91/1/13 93/2/13 94/3/13 92/4/13
f 95/1/14 96/2/14 90/3/14 89/4/14
f 104/1/11 103/2/11 97/8/11 98/9/11
f 102/1/12 99/2/12 100/8/12 101/9/12
f 99/1/3 104/10/3 98/11/3 100/12/3
f 103/1/4 102/10/4 101/11/4 97/12/4
f 98/1/13 97/2/13 101/3/13 100/4/13
f 99/1/14 102/2/14 103/3/14 104/4/14
f 105/1/11 112/2/11 108/8/11 109/9/11
f 107/1/12 111/2/12 106/8/12 110/9/12
f 111/1/3 105/10/3 109/11/3 106/12/3
f 112/1/4 107/10/4 110/11/4 108/12/4
f 109/1/13 108/2/13 110/3/13 106/4/13
f 111/1/14 107/2/14 112/3/14 105/4/14
f 115/13/1 117/14/1 119/15/1 113/16/1
f 120/13/2 114/14/2 116/15/2 118/16/2
f 114/13/3 115/17/3 113/18/3 116/19/3
f 117/13/4 120/17/4 118/18/4 119/19/4
f 113/13/5 119/20/5 118/21/5 116/22/5
f 114/13/6 120/20/6 117/21/6 115/22/6
f 121/13/1 122/23/1 127/24/1 123/22/1
f 124/13/2 125/23/2 128/24/2 126/22/2
f 125/13/3 121/25/3 123/26/3 128/22/3
f 122/13/4 124/25/4 126/26/4 127/22/4
f 123/13/5 127/14/5 126/15/5 128/16/5
f 125/13/6 124/14/6 122/15/6 121/16/6
f 140/13/1 135/14/1 131/27/1 132/28/1
f 134/13/2 129/14/2 133/27/2 130/28/2
f 129/13/3 140/17/3 132/29/3 133/30/3
f 135/13/4 134/17/4 130/29/4 131/30/4
f 132/13/5 131/31/5 130/32/5 133/22/5
f 129/13/6 134/31/6 135/32/6 140/22/6
f 140/13/1 135/33/1 142/34/1 136/22/1
f 141/13/2 137/33/2 138/34/2 139/22/2
f 137/13/3 140/33/3 136/34/3 138/22/3
f 135/13/4 141/33/4 139/34/4 142/22/4
f 136/13/5 142/14/5 139/27/5 138/28/5
f 137/13/6 141/14/6 135/27/6 140/28/6
f 148/13/1 143/33/1 145/34/1 144/22/1
f 134/13/2 129/33/2 147/34/2 146/22/2
f 129/13/3 148/33/3 144/34/3 147/22/3
f 143/13/4 134/33/4 146/34/4 145/22/4
f 144/13/5 145/14/5 146/27/5 147/28/5
f 129/13/6 134/14/6 143/27/6 148/28/6
f 151/13/1 154/14/1 155/15/1 152/16/1
f 149/13/2 156/14/2 153/15/2 150/16/2
f 156/13/3 151/17/3 152/18/3 153/19/3
f 154/13/4 149/17/4 150/18/4 155/19/4
f 152/13/5 155/20/5 150/21/5 153/22/5
f 156/13/6 149/20/6 154/21/6 151/22/6
f 161/13/1 157/23/1 163/24/1 162/22/1
f 158/13/2 160/23/2 164/24/2 159/22/2
f 160/13/3 161/25/3 162/26/3 164/22/3
f 157/13/4 158/25/4 159/26/4 163/22/4
f 162/13/5 163/14/5 159/15/5 164/16/5
f 160/13/6 158/14/6 157/15/6 161/16/6
f 176/13/1 167/14/1 168/27/1 165/28/1
f 183/13/2 182/14/2 166/27/2 169/28/2
f 182/13/3 176/17/3 165/29/3 166/30/3
f 167/13/4 183/17/4 169/29/4 168/30/4
f 165/13/5 168/31/5 169/32/5 166/22/5
f 182/13/6 183/31/6 167/32/6 176/22/6
f 176/13/1 167/33/1 170/34/1 175/22/1
f 174/13/2 173/33/2 171/34/2 172/22/2
f 173/13/3 176/33/3 175/34/3 171/22/3
f 167/13/4 174/33/4 172/34/4 170/22/4
f 175/13/5 170/14/5 172/27/5 171/28/5
f 173/13/6 174/14/6 167/27/6 176/28/6
f 184/13/1 177/33/1 178/34/1 179/22/1
f 183/13/2 182/33/2 180/34/2 181/22/2
f 182/13/3 184/33/3 179/34/3 180/22/3
f 177/13/4 183/33/4 181/34/4 178/22/4
f 179/13/5 178/14/5 181/27/5 180/28/5
f 182/13/6 183/14/6 177/27/6 184/28/6
