# Blender 4.5.14 LTS
# www.blender.org
mtllib ceiling_hall.mtl
o ceiling_hall
v -1.000000 4.000000 1.000000 1.0000 1.0000 1.0000
v -1.000000 4.000000 -1.000000 1.0000 1.0000 1.0000
v -1.000000 4.000000 0.000000 1.0000 1.0000 1.0000
v 0.000000 4.000000 0.000000 1.0000 1.0000 1.0000
v 1.000000 4.000000 1.000000 1.0000 1.0000 1.0000
v 0.000000 4.000000 1.000000 1.0000 1.0000 1.0000
v 0.000000 4.000000 -1.000000 1.0000 1.0000 1.0000
v 1.000000 4.000000 -1.000000 1.0000 1.0000 1.0000
v 1.000000 4.000000 0.000000 1.0000 1.0000 1.0000
vn -0.0000 -1.0000 -0.0000
vt 0.000244 0.999756
vt 0.062256 0.999756
vt 0.062256 0.937744
vt 0.000244 0.937744
s 0
usemtl props
f 3/1/1 4/2/1 6/3/1 1/4/1
f 2/1/1 7/2/1 4/3/1 3/4/1
f 4/1/1 9/2/1 5/3/1 6/4/1
f 7/1/1 8/2/1 9/3/1 4/4/1
