# Blender 4.5.14 LTS
# www.blender.org
mtllib chandelier.mtl
o chandelier
v 0.015000 3.250000 0.000000 0.8274 0.8274 0.8274
v 0.007500 4.000000 -0.012990 0.8000 0.8000 0.8000
v 0.015000 4.000000 0.000000 0.8000 0.8000 0.8000
v -0.007500 3.250000 0.012990 0.8313 0.8313 0.8313
v -0.007500 4.000000 0.012990 0.8000 0.8000 0.8000
v -0.015000 4.000000 -0.000000 0.8000 0.8000 0.8000
v 0.007500 4.000000 0.012990 0.8000 0.8000 0.8000
v 0.007500 3.250000 0.012990 0.8274 0.8274 0.8274
v -0.007500 4.000000 -0.012990 0.8000 0.8000 0.8000
v -0.015000 3.250000 -0.000000 0.8274 0.8274 0.8274
v -0.007500 3.250000 -0.012990 0.8313 0.8313 0.8313
v 0.007500 3.250000 -0.012990 0.8313 0.8313 0.8313
v 0.120000 3.960000 0.000000 0.9921 0.9921 0.9921
v 0.097082 3.960000 -0.070534 0.9921 0.9921 0.9921
v 0.097082 4.000000 -0.070534 1.0000 1.0000 1.0000
v 0.037082 3.960000 -0.114127 0.9921 0.9921 0.9921
v 0.037082 4.000000 -0.114127 1.0000 1.0000 1.0000
v -0.037082 3.960000 -0.114127 0.9921 0.9921 0.9921
v -0.097082 4.000000 -0.070534 1.0000 1.0000 1.0000
v -0.097082 3.960000 -0.070534 0.9921 0.9921 0.9921
v -0.097082 4.000000 0.070534 1.0000 1.0000 1.0000
v -0.120000 4.000000 -0.000000 1.0000 1.0000 1.0000
v -0.037082 3.960000 0.114127 0.9921 0.9921 0.9921
v 0.037082 4.000000 0.114127 1.0000 1.0000 1.0000
v 0.037082 3.960000 0.114127 0.9921 0.9921 0.9921
v 0.097082 3.960000 0.070534 0.9921 0.9921 0.9921
v 0.120000 4.000000 0.000000 1.0000 1.0000 1.0000
v 0.097082 4.000000 0.070534 1.0000 1.0000 1.0000
v -0.037082 4.000000 -0.114127 1.0000 1.0000 1.0000
v -0.037082 4.000000 0.114127 1.0000 1.0000 1.0000
v -0.097082 3.960000 0.070534 0.9921 0.9921 0.9921
v -0.120000 3.960000 -0.000000 0.9921 0.9921 0.9921
v 0.061803 2.950000 -0.190211 1.0000 1.0000 1.0000
v 0.161803 2.950000 -0.117557 0.9960 0.9960 0.9960
v -0.061803 2.950000 -0.190211 0.9960 0.9960 0.9960
v -0.161803 2.950000 0.117557 0.9960 0.9960 0.9960
v -0.200000 2.950000 -0.000000 1.0000 1.0000 1.0000
v 0.161803 2.950000 0.117557 0.9960 0.9960 0.9960
v 0.000000 2.900000 0.000000 1.0000 1.0000 1.0000
v 0.200000 2.950000 0.000000 0.9960 0.9960 0.9960
v 0.086525 3.050000 -0.266296 0.9843 0.9843 0.9843
v -0.161803 2.950000 -0.117557 1.0000 1.0000 1.0000
v -0.086525 3.050000 -0.266296 0.9764 0.9764 0.9764
v -0.280000 3.050000 -0.000000 0.9843 0.9843 0.9843
v -0.226525 3.050000 0.164580 0.9764 0.9764 0.9764
v -0.061803 2.950000 0.190211 0.9960 0.9960 0.9960
v 0.061803 2.950000 0.190211 0.9960 0.9960 0.9960
v 0.086525 3.050000 0.266296 0.9804 0.9804 0.9804
v 0.280000 3.050000 0.000000 0.9843 0.9843 0.9843
v 0.226525 3.050000 0.164580 0.9843 0.9843 0.9843
v 0.226525 3.050000 -0.164580 0.9843 0.9843 0.9843
v 0.300000 3.100000 0.000000 0.8902 0.8902 0.8902
v 0.092705 3.100000 -0.285317 0.9490 0.9490 0.9490
v 0.242705 3.100000 -0.176336 0.9411 0.9411 0.9411
v -0.226525 3.050000 -0.164580 0.9804 0.9804 0.9804
v -0.092705 3.100000 -0.285317 0.9451 0.9451 0.9451
v -0.242705 3.100000 -0.176336 0.9451 0.9451 0.9451
v -0.092705 3.100000 0.285317 0.9490 0.9490 0.9490
v -0.086525 3.050000 0.266296 0.9843 0.9843 0.9843
v 0.242705 3.100000 0.176336 0.9451 0.9451 0.9451
v 0.018541 3.150000 -0.057063 0.9058 0.9058 0.9058
v -0.300000 3.100000 -0.000000 0.8941 0.8941 0.8941
v -0.242705 3.100000 0.176336 0.9451 0.9451 0.9451
v 0.092705 3.100000 0.285317 0.9490 0.9490 0.9490
v 0.048541 3.150000 0.035267 0.9058 0.9058 0.9058
v 0.048541 3.150000 -0.035267 0.9019 0.9019 0.9019
v 0.020000 3.250000 0.000000 0.9176 0.9176 0.9176
v 0.016180 3.250000 -0.011756 0.9255 0.9255 0.9255
v -0.018541 3.150000 -0.057063 0.9058 0.9058 0.9058
v -0.006180 3.250000 -0.019021 0.9294 0.9294 0.9294
v 0.006180 3.250000 -0.019021 0.9255 0.9255 0.9255
v -0.048541 3.150000 -0.035267 0.9058 0.9058 0.9058
v -0.060000 3.150000 -0.000000 0.9137 0.9137 0.9137
v -0.016180 3.250000 -0.011756 0.9215 0.9215 0.9215
v -0.048541 3.150000 0.035267 0.9019 0.9019 0.9019
v -0.016180 3.250000 0.011756 0.9176 0.9176 0.9176
v -0.018541 3.150000 0.057063 0.9019 0.9019 0.9019
v 0.018541 3.150000 0.057063 0.9098 0.9098 0.9098
v 0.006180 3.250000 0.019021 0.9215 0.9215 0.9215
v 0.016180 3.250000 0.011756 0.9137 0.9137 0.9137
v 0.060000 3.150000 0.000000 0.9058 0.9058 0.9058
v -0.020000 3.250000 -0.000000 0.9176 0.9176 0.9176
v -0.006180 3.250000 0.019021 0.9255 0.9255 0.9255
v 0.000000 3.100000 0.012000 0.7020 0.7020 0.7020
v -0.000798 3.088027 0.000000 0.7020 0.7020 0.7020
v 0.300000 3.080000 0.012000 0.8941 0.8941 0.8941
v -0.000000 3.100000 -0.012000 0.7020 0.7020 0.7020
v 0.000798 3.111974 -0.000000 0.7020 0.7020 0.7020
v 0.298104 3.091849 -0.000000 0.7568 0.7568 0.7568
v 0.301896 3.068151 0.000000 0.9411 0.9411 0.9411
v 0.505367 3.169267 0.000000 0.9411 0.9411 0.9411
v 0.300000 3.080000 -0.012000 0.8941 0.8941 0.8941
v 0.494633 3.190733 -0.000000 0.7020 0.7020 0.7020
v 0.500000 3.180000 0.012000 0.8627 0.8627 0.8627
v 0.500000 3.180000 -0.012000 0.8588 0.8588 0.8588
v 0.203647 3.080000 -0.220617 0.8980 0.8980 0.8980
v 0.000564 3.111974 -0.000564 0.7020 0.7020 0.7020
v 0.008485 3.100000 0.008485 0.7020 0.7020 0.7020
v 0.220617 3.080000 -0.203647 0.8902 0.8902 0.8902
v 0.362039 3.180000 -0.345068 0.8549 0.8549 0.8549
v 0.213473 3.068151 -0.213473 0.9411 0.9411 0.9411
v 0.210791 3.091849 -0.210791 0.8862 0.8862 0.8862
v 0.349759 3.190733 -0.349759 0.7020 0.7020 0.7020
v -0.000564 3.088027 0.000564 0.7020 0.7020 0.7020
v 0.357348 3.169267 -0.357348 0.9411 0.9411 0.9411
v 0.345068 3.180000 -0.362039 0.8588 0.8588 0.8588
v 0.012000 3.100000 0.000000 0.7020 0.7020 0.7020
v 0.000000 3.088027 0.000798 0.7020 0.7020 0.7020
v 0.000000 3.068151 -0.301896 0.9372 0.9372 0.9372
v 0.000000 3.091849 -0.298104 0.8941 0.8941 0.8941
v 0.012000 3.080000 -0.300000 0.9058 0.9058 0.9058
v 0.000000 3.169267 -0.505367 0.9372 0.9372 0.9372
v -0.012000 3.080000 -0.300000 0.9058 0.9058 0.9058
v 0.000000 3.190733 -0.494633 0.7020 0.7020 0.7020
v -0.012000 3.180000 -0.500000 0.8549 0.8549 0.8549
v -0.000000 3.111974 -0.000798 0.7020 0.7020 0.7020
v 0.012000 3.180000 -0.500000 0.8588 0.8588 0.8588
v -0.203647 3.080000 -0.220617 0.9098 0.9098 0.9098
v 0.000564 3.088027 0.000564 0.7020 0.7020 0.7020
v -0.213473 3.068151 -0.213473 0.9411 0.9411 0.9411
v -0.000564 3.111974 -0.000564 0.7020 0.7020 0.7020
v -0.210791 3.091849 -0.210791 0.8902 0.8902 0.8902
v -0.220617 3.080000 -0.203647 0.8862 0.8862 0.8862
v -0.349759 3.190733 -0.349759 0.7020 0.7020 0.7020
v -0.345068 3.180000 -0.362039 0.8627 0.8627 0.8627
v -0.357348 3.169267 -0.357348 0.9372 0.9372 0.9372
v -0.362039 3.180000 -0.345068 0.8627 0.8627 0.8627
v 0.000798 3.088027 -0.000000 0.7020 0.7020 0.7020
v -0.300000 3.080000 -0.012000 0.8941 0.8941 0.8941
v -0.301896 3.068151 -0.000000 0.9411 0.9411 0.9411
v -0.505367 3.169267 -0.000000 0.9333 0.9333 0.9333
v -0.300000 3.080000 0.012000 0.8941 0.8941 0.8941
v -0.494633 3.190733 -0.000000 0.7020 0.7020 0.7020
v -0.298104 3.091849 -0.000000 0.7568 0.7568 0.7568
v -0.000798 3.111974 0.000000 0.7020 0.7020 0.7020
v -0.500000 3.180000 -0.012000 0.8588 0.8588 0.8588
v -0.500000 3.180000 0.012000 0.8588 0.8588 0.8588
v 0.000564 3.088027 -0.000564 0.7020 0.7020 0.7020
v -0.220617 3.080000 0.203647 0.8862 0.8862 0.8862
v -0.203647 3.080000 0.220617 0.9137 0.9137 0.9137
v -0.000564 3.111974 0.000564 0.7020 0.7020 0.7020
v -0.008485 3.100000 -0.008485 0.7020 0.7020 0.7020
v -0.210791 3.091849 0.210791 0.8902 0.8902 0.8902
v -0.213473 3.068151 0.213473 0.9411 0.9411 0.9411
v -0.357348 3.169267 0.357348 0.9372 0.9372 0.9372
v -0.362039 3.180000 0.345068 0.8588 0.8588 0.8588
v -0.345068 3.180000 0.362039 0.8666 0.8666 0.8666
v -0.349759 3.190733 0.349759 0.7020 0.7020 0.7020
v -0.000000 3.088027 -0.000798 0.7020 0.7020 0.7020
v -0.000000 3.068151 0.301896 0.9451 0.9451 0.9451
v 0.000000 3.111974 0.000798 0.7020 0.7020 0.7020
v 0.012000 3.080000 0.300000 0.9019 0.9019 0.9019
v -0.012000 3.100000 -0.000000 0.7020 0.7020 0.7020
v -0.012000 3.080000 0.300000 0.8980 0.8980 0.8980
v -0.000000 3.169267 0.505367 0.9333 0.9333 0.9333
v -0.012000 3.180000 0.500000 0.8627 0.8627 0.8627
v -0.000000 3.190733 0.494633 0.7020 0.7020 0.7020
v -0.000000 3.091849 0.298104 0.8941 0.8941 0.8941
v 0.012000 3.180000 0.500000 0.8666 0.8666 0.8666
v -0.008485 3.100000 0.008485 0.7020 0.7020 0.7020
v -0.000564 3.088027 -0.000564 0.7020 0.7020 0.7020
v 0.220617 3.080000 0.203647 0.8902 0.8902 0.8902
v 0.213473 3.068151 0.213473 0.9451 0.9451 0.9451
v 0.210791 3.091849 0.210791 0.8902 0.8902 0.8902
v 0.000564 3.111974 0.000564 0.7020 0.7020 0.7020
v 0.203647 3.080000 0.220617 0.9019 0.9019 0.9019
v 0.345068 3.180000 0.362039 0.8627 0.8627 0.8627
v 0.008485 3.100000 -0.008485 0.7020 0.7020 0.7020
v 0.357348 3.169267 0.357348 0.9333 0.9333 0.9333
v 0.362039 3.180000 0.345068 0.8549 0.8549 0.8549
v 0.349759 3.190733 0.349759 0.7020 0.7020 0.7020
vn 0.8660 -0.0000 -0.5000
vn -0.0000 -0.0000 -1.0000
vn -0.8660 -0.0000 -0.5000
vn -0.8660 -0.0000 0.5000
vn -0.0000 -0.0000 1.0000
vn 0.8660 -0.0000 0.5000
vn -0.0000 1.0000 -0.0000
vn -0.0000 -1.0000 -0.0000
vn 1.0000 -0.0000 -0.0000
vn 0.8090 -0.0000 -0.5878
vn 0.3090 -0.0000 -0.9511
vn -0.3090 -0.0000 -0.9511
vn -0.8090 -0.0000 -0.5878
vn -1.0000 -0.0000 -0.0000
vn -0.8090 -0.0000 0.5878
vn -0.3090 -0.0000 0.9511
vn 0.3090 -0.0000 0.9511
vn 0.8090 -0.0000 0.5878
vn 0.4710 -0.8131 -0.3422
vn 0.5822 -0.8131 -0.0000
vn 0.1799 -0.8131 -0.5537
vn -0.1799 -0.8131 -0.5537
vn -0.4710 -0.8131 -0.3422
vn -0.5822 -0.8131 -0.0000
vn -0.4710 -0.8131 0.3422
vn -0.1799 -0.8131 0.5537
vn 0.1799 -0.8131 0.5537
vn 0.4710 -0.8131 0.3422
vn 0.7047 -0.4913 -0.5120
vn 0.8710 -0.4913 -0.0000
vn 0.2692 -0.4913 -0.8284
vn -0.2692 -0.4913 -0.8284
vn -0.7047 -0.4913 -0.5120
vn -0.8710 -0.4913 -0.0000
vn -0.7047 -0.4913 0.5120
vn -0.2692 -0.4913 0.8284
vn 0.2692 -0.4913 0.8284
vn 0.7047 -0.4913 0.5120
vn 0.7512 -0.3714 -0.5457
vn 0.9285 -0.3714 -0.0000
vn 0.2869 -0.3714 -0.8830
vn -0.2869 -0.3714 -0.8830
vn -0.7512 -0.3714 -0.5457
vn -0.9285 -0.3714 -0.0000
vn -0.7512 -0.3714 0.5457
vn -0.2869 -0.3714 0.8830
vn 0.2869 -0.3714 0.8830
vn 0.7512 -0.3714 0.5457
vn 0.2040 0.9790 -0.0000
vn 0.1650 0.9790 -0.1199
vn 0.0630 0.9790 -0.1940
vn -0.0630 0.9790 -0.1940
vn -0.1650 0.9790 -0.1199
vn -0.2040 0.9790 -0.0000
vn -0.1650 0.9790 0.1199
vn -0.0630 0.9790 0.1940
vn 0.0630 0.9790 0.1940
vn 0.1650 0.9790 0.1199
vn 0.9285 0.3714 -0.0000
vn 0.7512 0.3714 -0.5457
vn 0.2869 0.3714 -0.8830
vn -0.2869 0.3714 -0.8830
vn -0.7512 0.3714 -0.5457
vn -0.9285 0.3714 -0.0000
vn -0.7512 0.3714 0.5457
vn -0.2869 0.3714 0.8830
vn 0.2869 0.3714 0.8830
vn 0.7512 0.3714 0.5457
vn -0.0470 -0.7100 0.7026
vn 0.1348 -0.6878 0.7133
vn 0.1414 -0.6865 0.7132
vn -0.0470 -0.7100 -0.7026
vn 0.1414 -0.6865 -0.7132
vn 0.1348 -0.6878 -0.7133
vn 0.0477 0.7100 -0.7026
vn -0.1420 0.6863 -0.7133
vn -0.1352 0.6876 -0.7134
vn 0.0477 0.7100 0.7026
vn -0.1352 0.6876 0.7134
vn -0.1420 0.6863 0.7133
vn 0.3191 -0.6401 0.6989
vn 0.3191 -0.6401 -0.6989
vn -0.3207 0.6395 -0.6987
vn -0.3207 0.6395 0.6987
vn -0.9978 0.0665 -0.0000
vn 0.8944 0.4472 -0.0000
vn 0.4636 -0.7100 0.5300
vn 0.5997 -0.6878 0.4090
vn 0.6043 -0.6865 0.4043
vn -0.5300 -0.7100 -0.4636
vn -0.4043 -0.6865 -0.6043
vn -0.4090 -0.6878 -0.5997
vn -0.4631 0.7100 -0.5305
vn -0.6048 0.6863 -0.4040
vn -0.6000 0.6876 -0.4088
vn 0.5305 0.7100 0.4631
vn 0.4088 0.6876 0.6000
vn 0.4040 0.6863 0.6048
vn 0.7198 -0.6401 0.2686
vn -0.2686 -0.6401 -0.7198
vn -0.7209 0.6395 -0.2673
vn 0.2673 0.6395 0.7209
vn -0.7055 0.0665 0.7055
vn 0.6325 0.4472 -0.6325
vn 0.7026 -0.7100 0.0470
vn 0.7133 -0.6878 -0.1348
vn 0.7132 -0.6865 -0.1414
vn -0.7026 -0.7100 0.0470
vn -0.7132 -0.6865 -0.1414
vn -0.7133 -0.6878 -0.1348
vn -0.7026 0.7100 -0.0477
vn -0.7133 0.6863 0.1420
vn -0.7134 0.6876 0.1352
vn 0.7026 0.7100 -0.0477
vn 0.7134 0.6876 0.1352
vn 0.7133 0.6863 0.1420
vn 0.6989 -0.6401 -0.3191
vn -0.6989 -0.6401 -0.3191
vn -0.6987 0.6395 0.3207
vn 0.6987 0.6395 0.3207
vn -0.0000 0.0665 0.9978
vn -0.0000 0.4472 -0.8944
vn 0.5300 -0.7100 -0.4636
vn 0.4090 -0.6878 -0.5997
vn 0.4043 -0.6865 -0.6043
vn -0.4636 -0.7100 0.5300
vn -0.6043 -0.6865 0.4043
vn -0.5997 -0.6878 0.4090
vn -0.5305 0.7100 0.4631
vn -0.4040 0.6863 0.6048
vn -0.4088 0.6876 0.6000
vn 0.4631 0.7100 -0.5305
vn 0.6000 0.6876 -0.4088
vn 0.6048 0.6863 -0.4040
vn 0.2686 -0.6401 -0.7198
vn -0.7198 -0.6401 0.2686
vn -0.2673 0.6395 0.7209
vn 0.7209 0.6395 -0.2673
vn 0.7055 0.0665 0.7055
vn -0.6325 0.4472 -0.6325
vn 0.0470 -0.7100 -0.7026
vn -0.1348 -0.6878 -0.7133
vn -0.1414 -0.6865 -0.7132
vn 0.0470 -0.7100 0.7026
vn -0.1414 -0.6865 0.7132
vn -0.1348 -0.6878 0.7133
vn -0.0477 0.7100 0.7026
vn 0.1420 0.6863 0.7133
vn 0.1352 0.6876 0.7134
vn -0.0477 0.7100 -0.7026
vn 0.1352 0.6876 -0.7134
vn 0.1420 0.6863 -0.7133
vn -0.3191 -0.6401 -0.6989
vn -0.3191 -0.6401 0.6989
vn 0.3207 0.6395 0.6987
vn 0.3207 0.6395 -0.6987
vn 0.9978 0.0665 -0.0000
vn -0.8944 0.4472 -0.0000
vn -0.4636 -0.7100 -0.5300
vn -0.5997 -0.6878 -0.4090
vn -0.6043 -0.6865 -0.4043
vn 0.5300 -0.7100 0.4636
vn 0.4043 -0.6865 0.6043
vn 0.4090 -0.6878 0.5997
vn 0.4631 0.7100 0.5305
vn 0.6048 0.6863 0.4040
vn 0.6000 0.6876 0.4088
vn -0.5305 0.7100 -0.4631
vn -0.4088 0.6876 -0.6000
vn -0.4040 0.6863 -0.6048
vn -0.7198 -0.6401 -0.2686
vn 0.2686 -0.6401 0.7198
vn 0.7209 0.6395 0.2673
vn -0.2673 0.6395 -0.7209
vn 0.7055 0.0665 -0.7055
vn -0.6325 0.4472 0.6325
vn -0.7026 -0.7100 -0.0470
vn -0.7133 -0.6878 0.1348
vn -0.7132 -0.6865 0.1414
vn 0.7026 -0.7100 -0.0470
vn 0.7132 -0.6865 0.1414
vn 0.7133 -0.6878 0.1348
vn 0.7026 0.7100 0.0477
vn 0.7133 0.6863 -0.1420
vn 0.7134 0.6876 -0.1352
vn -0.7026 0.7100 0.0477
vn -0.7134 0.6876 -0.1352
vn -0.7133 0.6863 -0.1420
vn -0.6989 -0.6401 0.3191
vn 0.6989 -0.6401 0.3191
vn 0.6987 0.6395 -0.3207
vn -0.6987 0.6395 -0.3207
vn -0.0000 0.0665 -0.9978
vn -0.0000 0.4472 0.8944
vn -0.5300 -0.7100 0.4636
vn -0.4090 -0.6878 0.5997
vn -0.4043 -0.6865 0.6043
vn 0.4636 -0.7100 -0.5300
vn 0.6043 -0.6865 -0.4043
vn 0.5997 -0.6878 -0.4090
vn 0.5305 0.7100 -0.4631
vn 0.4040 0.6863 -0.6048
vn 0.4088 0.6876 -0.6000
vn -0.4631 0.7100 0.5305
vn -0.6000 0.6876 0.4088
vn -0.6048 0.6863 0.4040
vn -0.2686 -0.6401 0.7198
vn 0.7198 -0.6401 -0.2686
vn 0.2673 0.6395 -0.7209
vn -0.7209 0.6395 0.2673
vn -0.7055 0.0665 -0.7055
vn 0.6325 0.4472 0.6325
vt 0.804932 0.992432
vt 0.806152 0.992432
vt 0.806152 0.999756
vt 0.804932 0.999756
vt 0.807373 0.992432
vt 0.807373 0.999756
vt 0.808594 0.992432
vt 0.808594 0.999756
vt 0.809814 0.992432
vt 0.809814 0.999756
vt 0.811035 0.992432
vt 0.811035 0.999756
vt 0.812256 0.992432
vt 0.812256 0.999756
vt 0.812256 0.996094
vt 0.810425 0.999756
vt 0.806763 0.999756
vt 0.804932 0.996094
vt 0.806763 0.992432
vt 0.810425 0.992432
vt 0.805664 0.992432
vt 0.805664 0.999756
vt 0.806396 0.992432
vt 0.806396 0.999756
vt 0.807129 0.992432
vt 0.807129 0.999756
vt 0.807861 0.992432
vt 0.807861 0.999756
vt 0.809326 0.992432
vt 0.809326 0.999756
vt 0.810059 0.992432
vt 0.810059 0.999756
vt 0.810791 0.992432
vt 0.810791 0.999756
vt 0.811523 0.992432
vt 0.811523 0.999756
vt 0.811556 0.998357
vt 0.809725 0.999756
vt 0.807462 0.999756
vt 0.805631 0.998357
vt 0.805631 0.993830
vt 0.807462 0.992432
vt 0.809725 0.992432
vt 0.811556 0.993830
vt 0.805298 0.992432
vt 0.805664 0.994470
vt 0.804932 0.994470
vt 0.806030 0.992432
vt 0.806396 0.994470
vt 0.807129 0.994470
vt 0.807495 0.992432
vt 0.807861 0.994470
vt 0.808228 0.992432
vt 0.808594 0.994470
vt 0.808960 0.992432
vt 0.809326 0.994470
vt 0.809692 0.992432
vt 0.810059 0.994470
vt 0.810791 0.994470
vt 0.811157 0.992432
vt 0.811523 0.994470
vt 0.811890 0.992432
vt 0.812256 0.994470
vt 0.805664 0.995735
vt 0.804932 0.995735
vt 0.806396 0.995735
vt 0.807129 0.995735
vt 0.807861 0.995735
vt 0.808594 0.995735
vt 0.809326 0.995735
vt 0.810059 0.995735
vt 0.810791 0.995735
vt 0.811523 0.995735
vt 0.812256 0.995735
vt 0.805664 0.996268
vt 0.804932 0.996268
vt 0.806396 0.996268
vt 0.807129 0.996268
vt 0.807861 0.996268
vt 0.808594 0.996268
vt 0.809326 0.996268
vt 0.810059 0.996268
vt 0.810791 0.996268
vt 0.811523 0.996268
vt 0.812256 0.996268
vt 0.805664 0.998691
vt 0.804932 0.998691
vt 0.806396 0.998691
vt 0.807129 0.998691
vt 0.807861 0.998691
vt 0.808594 0.998691
vt 0.809326 0.998691
vt 0.810059 0.998691
vt 0.810791 0.998691
vt 0.811523 0.998691
vt 0.812256 0.998691
vt 0.806763 0.996094
vt 0.808594 0.996094
vt 0.810425 0.996094
s 1
usemtl props
f 1/1/1 12/2/1 2/3/1 3/4/1
f 12/2/2 11/5/2 9/6/2 2/3/2
f 11/5/3 10/7/3 6/8/3 9/6/3
f 10/7/4 4/9/4 5/10/4 6/8/4
f 4/9/5 8/11/5 7/12/5 5/10/5
f 8/11/6 1/13/6 3/14/6 7/12/6
s 0
f 3/15/7 2/16/7 9/17/7 6/18/7 5/19/7 7/20/7
f 8/16/8 4/17/8 10/18/8 11/19/8 12/20/8 1/15/8
s 1
f 13/1/9 14/21/10 15/22/10 27/4/9
f 14/21/10 16/23/11 17/24/11 15/22/10
f 16/23/11 18/25/12 29/26/12 17/24/11
f 18/25/12 20/27/13 19/28/13 29/26/12
f 20/27/13 32/7/14 22/8/14 19/28/13
f 32/7/14 31/29/15 21/30/15 22/8/14
f 31/29/15 23/31/16 30/32/16 21/30/15
f 23/31/16 25/33/17 24/34/17 30/32/16
f 25/33/17 26/35/18 28/36/18 24/34/17
f 26/35/18 13/13/9 27/14/9 28/36/18
s 0
f 27/15/7 15/37/7 17/38/7 29/39/7 19/40/7 22/18/7 21/41/7 30/42/7 24/43/7 28/44/7
f 26/37/8 25/38/8 23/39/8 31/40/8 32/18/8 20/41/8 18/42/8 16/43/8 14/44/8 13/15/8
s 1
f 39/45/8 34/46/19 40/47/20
f 39/48/8 33/49/21 34/46/19
f 39/19/8 35/50/22 33/49/21
f 39/51/8 42/52/23 35/50/22
f 39/53/8 37/54/24 42/52/23
f 39/55/8 36/56/25 37/54/24
f 39/57/8 46/58/26 36/56/25
f 39/20/8 47/59/27 46/58/26
f 39/60/8 38/61/28 47/59/27
f 39/62/8 40/63/20 38/61/28
f 40/47/20 34/46/19 51/64/29 49/65/30
f 34/46/19 33/49/21 41/66/31 51/64/29
f 33/49/21 35/50/22 43/67/32 41/66/31
f 35/50/22 42/52/23 55/68/33 43/67/32
f 42/52/23 37/54/24 44/69/34 55/68/33
f 37/54/24 36/56/25 45/70/35 44/69/34
f 36/56/25 46/58/26 59/71/36 45/70/35
f 46/58/26 47/59/27 48/72/37 59/71/36
f 47/59/27 38/61/28 50/73/38 48/72/37
f 38/61/28 40/63/20 49/74/30 50/73/38
f 49/65/30 51/64/29 54/75/39 52/76/40
f 51/64/29 41/66/31 53/77/41 54/75/39
f 41/66/31 43/67/32 56/78/42 53/77/41
f 43/67/32 55/68/33 57/79/43 56/78/42
f 55/68/33 44/69/34 62/80/44 57/79/43
f 44/69/34 45/70/35 63/81/45 62/80/44
f 45/70/35 59/71/36 58/82/46 63/81/45
f 59/71/36 48/72/37 64/83/47 58/82/46
f 48/72/37 50/73/38 60/84/48 64/83/47
f 50/73/38 49/74/30 52/85/40 60/84/48
f 52/76/49 54/75/50 66/86/50 81/87/49
f 54/75/50 53/77/51 61/88/51 66/86/50
f 53/77/51 56/78/52 69/89/52 61/88/51
f 56/78/52 57/79/53 72/90/53 69/89/52
f 57/79/53 62/80/54 73/91/54 72/90/53
f 62/80/54 63/81/55 75/92/55 73/91/54
f 63/81/55 58/82/56 77/93/56 75/92/55
f 58/82/56 64/83/57 78/94/57 77/93/56
f 64/83/57 60/84/58 65/95/58 78/94/57
f 60/84/58 52/85/49 81/96/49 65/95/58
f 81/87/59 66/86/60 68/22/60 67/4/59
f 66/86/60 61/88/61 71/24/61 68/22/60
f 61/88/61 69/89/62 70/26/62 71/24/61
f 69/89/62 72/90/63 74/28/63 70/26/62
f 72/90/63 73/91/64 82/8/64 74/28/63
f 73/91/64 75/92/65 76/30/65 82/8/64
f 75/92/65 77/93/66 83/32/66 76/30/65
f 77/93/66 78/94/67 79/34/67 83/32/66
f 78/94/67 65/95/68 80/36/68 79/34/67
f 65/95/68 81/96/59 67/14/59 80/36/68
s 0
f 67/15/7 68/37/7 71/38/7 70/39/7 74/40/7 82/18/7 76/41/7 83/42/7 79/43/7 80/44/7
s 1
f 84/1/69 85/19/69 90/97/70 86/18/71
f 85/19/72 87/7/72 92/98/73 90/97/74
f 87/7/75 88/20/75 89/99/76 92/98/77
f 88/20/78 84/13/78 86/15/79 89/99/80
f 86/18/71 90/97/70 91/17/81 94/4/81
f 90/97/74 92/98/73 95/8/82 91/17/82
f 92/98/77 89/99/76 93/16/83 95/8/83
f 89/99/80 86/15/79 94/14/84 93/16/84
s 0
f 88/8/85 87/18/85 85/7/85 84/15/85
f 94/18/86 91/7/86 95/15/86 93/8/86
s 1
f 98/1/87 104/19/87 101/97/88 99/18/89
f 104/19/90 142/7/90 96/98/91 101/97/92
f 142/7/93 97/20/93 102/99/94 96/98/95
f 97/20/96 98/13/96 99/15/97 102/99/98
f 99/18/89 101/97/88 105/17/99 100/4/99
f 101/97/92 96/98/91 106/8/100 105/17/100
f 96/98/95 102/99/94 103/16/101 106/8/101
f 102/99/98 99/15/97 100/14/102 103/16/102
s 0
f 97/8/103 142/18/103 104/7/103 98/15/103
f 100/18/104 105/7/104 106/15/104 103/8/104
s 1
f 107/1/105 108/19/105 109/97/106 111/18/107
f 108/19/108 153/7/108 113/98/109 109/97/110
f 153/7/111 116/20/111 110/99/112 113/98/113
f 116/20/114 107/13/114 111/15/115 110/99/116
f 111/18/107 109/97/106 112/17/117 117/4/117
f 109/97/110 113/98/109 115/8/118 112/17/118
f 113/98/113 110/99/112 114/16/119 115/8/119
f 110/99/116 111/15/115 117/14/120 114/16/120
s 0
f 116/8/121 153/18/121 108/7/121 107/15/121
f 117/18/122 112/7/122 115/15/122 114/8/122
s 1
f 168/1/123 119/19/123 120/97/124 118/18/125
f 119/19/126 160/7/126 123/98/127 120/97/128
f 160/7/129 121/20/129 122/99/130 123/98/131
f 121/20/132 168/13/132 118/15/133 122/99/134
f 118/18/125 120/97/124 126/17/135 125/4/135
f 120/97/128 123/98/127 127/8/136 126/17/136
f 123/98/131 122/99/130 124/16/137 127/8/137
f 122/99/134 118/15/133 125/14/138 124/16/138
s 0
f 121/8/139 160/18/139 119/7/139 168/15/139
f 125/18/140 126/7/140 127/15/140 124/8/140
s 1
f 87/1/141 128/19/141 130/97/142 129/18/143
f 128/19/144 84/7/144 132/98/145 130/97/146
f 84/7/147 135/20/147 134/99/148 132/98/149
f 135/20/150 87/13/150 129/15/151 134/99/152
f 129/18/143 130/97/142 131/17/153 136/4/153
f 130/97/146 132/98/145 137/8/154 131/17/154
f 132/98/149 134/99/148 133/16/155 137/8/155
f 134/99/152 129/15/151 136/14/156 133/16/156
s 0
f 135/8/157 84/18/157 128/7/157 87/15/157
f 136/18/158 131/7/158 137/15/158 133/8/158
s 1
f 142/1/159 138/19/159 144/97/160 139/18/161
f 138/19/162 98/7/162 140/98/163 144/97/164
f 98/7/165 141/20/165 143/99/166 140/98/167
f 141/20/168 142/13/168 139/15/169 143/99/170
f 139/18/161 144/97/160 145/17/171 146/4/171
f 144/97/164 140/98/163 147/8/172 145/17/172
f 140/98/167 143/99/166 148/16/173 147/8/173
f 143/99/170 139/15/169 146/14/174 148/16/174
s 0
f 141/8/175 98/18/175 138/7/175 142/15/175
f 146/18/176 145/7/176 147/15/176 148/8/176
s 1
f 153/1/177 149/19/177 150/97/178 154/18/179
f 149/19/180 107/7/180 152/98/181 150/97/182
f 107/7/183 151/20/183 158/99/184 152/98/185
f 151/20/186 153/13/186 154/15/187 158/99/188
f 154/18/179 150/97/178 155/17/189 156/4/189
f 150/97/182 152/98/181 159/8/190 155/17/190
f 152/98/185 158/99/184 157/16/191 159/8/191
f 158/99/188 154/15/187 156/14/192 157/16/192
s 0
f 151/8/193 107/18/193 149/7/193 153/15/193
f 156/18/194 155/7/194 159/15/194 157/8/194
s 1
f 160/1/195 161/19/195 163/97/196 166/18/197
f 161/19/198 168/7/198 162/98/199 163/97/200
f 168/7/201 165/20/201 164/99/202 162/98/203
f 165/20/204 160/13/204 166/15/205 164/99/206
f 166/18/197 163/97/196 169/17/207 167/4/207
f 163/97/200 162/98/199 170/8/208 169/17/208
f 162/98/203 164/99/202 171/16/209 170/8/209
f 164/99/206 166/15/205 167/14/210 171/16/210
s 0
f 165/8/211 168/18/211 161/7/211 160/15/211
f 167/18/212 169/7/212 170/15/212 171/8/212
o chandelier_lamp
v 0.549497 3.200000 -0.049497 0.9882 0.9882 0.9882
v 0.500000 3.180000 0.000000 0.7608 0.7608 0.7608
v 0.430000 3.200000 -0.000000 0.8941 0.8941 0.8941
v 0.549497 3.200000 0.049497 0.9882 0.9882 0.9882
v 0.570711 3.270000 -0.070711 0.9882 0.9882 0.9882
v 0.500000 3.200000 -0.070000 0.9607 0.9607 0.9607
v 0.500000 3.270000 -0.100000 0.9529 0.9529 0.9529
v 0.450503 3.200000 -0.049497 0.9294 0.9294 0.9294
v 0.429289 3.270000 -0.070711 0.9294 0.9294 0.9294
v 0.450503 3.200000 0.049497 0.9333 0.9333 0.9333
v 0.500000 3.270000 0.100000 0.9568 0.9568 0.9568
v 0.500000 3.200000 0.070000 0.9607 0.9607 0.9607
v 0.570711 3.270000 0.070711 0.9882 0.9882 0.9882
v 0.570000 3.200000 0.000000 0.9960 0.9960 0.9960
v 0.600000 3.270000 0.000000 1.0000 1.0000 1.0000
v 0.500000 3.350000 -0.080000 0.9764 0.9764 0.9764
v 0.400000 3.270000 -0.000000 0.9137 0.9137 0.9137
v 0.420000 3.350000 -0.000000 0.9647 0.9647 0.9647
v 0.443431 3.350000 -0.056569 0.9607 0.9607 0.9607
v 0.429289 3.270000 0.070711 0.9294 0.9294 0.9294
v 0.556569 3.350000 0.056569 0.9960 0.9960 0.9960
v 0.580000 3.350000 0.000000 1.0000 1.0000 1.0000
v 0.530000 3.380000 0.000000 1.0000 1.0000 1.0000
v 0.556569 3.350000 -0.056569 0.9960 0.9960 0.9960
v 0.470000 3.380000 -0.000000 0.9960 0.9960 0.9960
v 0.478787 3.380000 -0.021213 0.9960 0.9960 0.9960
v 0.443431 3.350000 0.056569 0.9686 0.9686 0.9686
v 0.500000 3.350000 0.080000 0.9764 0.9764 0.9764
v 0.478787 3.380000 0.021213 0.9960 0.9960 0.9960
v 0.521213 3.380000 0.021213 0.9960 0.9960 0.9960
v 0.500000 3.380000 0.000000 1.0000 1.0000 1.0000
v 0.521213 3.380000 -0.021213 1.0000 1.0000 1.0000
v 0.500000 3.380000 -0.030000 0.9921 0.9921 0.9921
v 0.500000 3.380000 0.030000 0.9960 0.9960 0.9960
v 0.403051 3.200000 -0.403051 0.9960 0.9960 0.9960
v 0.304056 3.200000 -0.304056 0.8980 0.8980 0.8980
v 0.283553 3.200000 -0.353553 0.9294 0.9294 0.9294
v 0.353553 3.180000 -0.353553 0.7568 0.7568 0.7568
v 0.423553 3.200000 -0.353553 0.9882 0.9882 0.9882
v 0.403051 3.200000 -0.304056 0.9686 0.9686 0.9686
v 0.424264 3.270000 -0.424264 1.0000 1.0000 1.0000
v 0.353553 3.200000 -0.423553 0.9882 0.9882 0.9882
v 0.282843 3.270000 -0.424264 0.9490 0.9490 0.9490
v 0.304056 3.200000 -0.403051 0.9686 0.9686 0.9686
v 0.253553 3.270000 -0.353553 0.9255 0.9255 0.9255
v 0.353553 3.200000 -0.283553 0.9294 0.9294 0.9294
v 0.282843 3.270000 -0.282843 0.9098 0.9098 0.9098
v 0.424264 3.270000 -0.282843 0.9529 0.9529 0.9529
v 0.353553 3.270000 -0.453553 0.9882 0.9882 0.9882
v 0.410122 3.350000 -0.410122 1.0000 1.0000 1.0000
v 0.296985 3.350000 -0.296985 0.9607 0.9607 0.9607
v 0.273553 3.350000 -0.353553 0.9607 0.9607 0.9607
v 0.353553 3.270000 -0.253553 0.9333 0.9333 0.9333
v 0.453553 3.270000 -0.353553 0.9882 0.9882 0.9882
v 0.353553 3.350000 -0.433553 0.9960 0.9960 0.9960
v 0.353553 3.380000 -0.383553 0.9960 0.9960 0.9960
v 0.374767 3.380000 -0.374767 1.0000 1.0000 1.0000
v 0.296985 3.350000 -0.410122 0.9764 0.9764 0.9764
v 0.323553 3.380000 -0.353553 0.9921 0.9921 0.9921
v 0.353553 3.350000 -0.273553 0.9647 0.9647 0.9647
v 0.353553 3.380000 -0.323553 0.9921 0.9921 0.9921
v 0.410122 3.350000 -0.296985 0.9764 0.9764 0.9764
v 0.383553 3.380000 -0.353553 0.9960 0.9960 0.9960
v 0.374767 3.380000 -0.332340 0.9960 0.9960 0.9960
v 0.433553 3.350000 -0.353553 0.9921 0.9921 0.9921
v 0.332340 3.380000 -0.374767 0.9921 0.9921 0.9921
v 0.353553 3.380000 -0.353553 1.0000 1.0000 1.0000
v 0.332340 3.380000 -0.332340 0.9921 0.9921 0.9921
v -0.049497 3.200000 -0.549497 0.9882 0.9882 0.9882
v 0.000000 3.200000 -0.570000 0.9960 0.9960 0.9960
v -0.070000 3.200000 -0.500000 0.9568 0.9568 0.9568
v 0.000000 3.200000 -0.430000 0.8941 0.8941 0.8941
v 0.000000 3.180000 -0.500000 0.7568 0.7568 0.7568
v 0.070000 3.200000 -0.500000 0.9607 0.9607 0.9607
v 0.049497 3.200000 -0.549497 0.9882 0.9882 0.9882
v -0.049497 3.200000 -0.450503 0.9333 0.9333 0.9333
v 0.049497 3.200000 -0.450503 0.9333 0.9333 0.9333
v 0.100000 3.270000 -0.500000 0.9529 0.9529 0.9529
v 0.000000 3.270000 -0.600000 1.0000 1.0000 1.0000
v 0.000000 3.350000 -0.580000 1.0000 1.0000 1.0000
v -0.070711 3.270000 -0.570711 0.9882 0.9882 0.9882
v -0.056569 3.350000 -0.556569 0.9960 0.9960 0.9960
v -0.100000 3.270000 -0.500000 0.9529 0.9529 0.9529
v -0.070711 3.270000 -0.429289 0.9294 0.9294 0.9294
v 0.000000 3.270000 -0.400000 0.9098 0.9098 0.9098
v -0.056569 3.350000 -0.443431 0.9647 0.9647 0.9647
v 0.070711 3.270000 -0.429289 0.9215 0.9215 0.9215
v 0.070711 3.270000 -0.570711 0.9921 0.9921 0.9921
v -0.080000 3.350000 -0.500000 0.9804 0.9804 0.9804
v -0.021213 3.380000 -0.478787 0.9960 0.9960 0.9960
v 0.000000 3.350000 -0.420000 0.9647 0.9647 0.9647
v 0.056569 3.350000 -0.443431 0.9647 0.9647 0.9647
v 0.080000 3.350000 -0.500000 0.9764 0.9764 0.9764
v 0.056569 3.350000 -0.556569 0.9921 0.9921 0.9921
v -0.021213 3.380000 -0.521213 1.0000 1.0000 1.0000
v 0.000000 3.380000 -0.500000 1.0000 1.0000 1.0000
v -0.030000 3.380000 -0.500000 0.9960 0.9960 0.9960
v 0.000000 3.380000 -0.470000 0.9960 0.9960 0.9960
v 0.021213 3.380000 -0.478787 0.9960 0.9960 0.9960
v 0.030000 3.380000 -0.500000 1.0000 1.0000 1.0000
v 0.021213 3.380000 -0.521213 1.0000 1.0000 1.0000
v 0.000000 3.380000 -0.530000 1.0000 1.0000 1.0000
v -0.403051 3.200000 -0.304056 0.9607 0.9607 0.9607
v -0.423553 3.200000 -0.353553 0.9882 0.9882 0.9882
v -0.353553 3.200000 -0.283553 0.9294 0.9294 0.9294
v -0.304056 3.200000 -0.403051 0.9686 0.9686 0.9686
v -0.353553 3.180000 -0.353553 0.7608 0.7608 0.7608
v -0.403051 3.200000 -0.403051 1.0000 1.0000 1.0000
v -0.353553 3.200000 -0.423553 0.9921 0.9921 0.9921
v -0.424264 3.270000 -0.282843 0.9607 0.9607 0.9607
v -0.453553 3.270000 -0.353553 0.9882 0.9882 0.9882
v -0.304056 3.200000 -0.304056 0.8941 0.8941 0.8941
v -0.283553 3.200000 -0.353553 0.9294 0.9294 0.9294
v -0.424264 3.270000 -0.424264 1.0000 1.0000 1.0000
v -0.353553 3.270000 -0.453553 0.9882 0.9882 0.9882
v -0.433553 3.350000 -0.353553 0.9960 0.9960 0.9960
v -0.353553 3.270000 -0.253553 0.9294 0.9294 0.9294
v -0.282843 3.270000 -0.282843 0.9098 0.9098 0.9098
v -0.296985 3.350000 -0.296985 0.9686 0.9686 0.9686
v -0.253553 3.270000 -0.353553 0.9294 0.9294 0.9294
v -0.282843 3.270000 -0.424264 0.9568 0.9568 0.9568
v -0.296985 3.350000 -0.410122 0.9764 0.9764 0.9764
v -0.410122 3.350000 -0.410122 1.0000 1.0000 1.0000
v -0.383553 3.380000 -0.353553 1.0000 1.0000 1.0000
v -0.374767 3.380000 -0.374767 1.0000 1.0000 1.0000
v -0.410122 3.350000 -0.296985 0.9804 0.9804 0.9804
v -0.353553 3.380000 -0.323553 0.9921 0.9921 0.9921
v -0.353553 3.350000 -0.273553 0.9686 0.9686 0.9686
v -0.332340 3.380000 -0.332340 0.9960 0.9960 0.9960
v -0.323553 3.380000 -0.353553 0.9921 0.9921 0.9921
v -0.273553 3.350000 -0.353553 0.9647 0.9647 0.9647
v -0.332340 3.380000 -0.374767 0.9921 0.9921 0.9921
v -0.353553 3.350000 -0.433553 0.9921 0.9921 0.9921
v -0.374767 3.380000 -0.332340 0.9960 0.9960 0.9960
v -0.353553 3.380000 -0.353553 1.0000 1.0000 1.0000
v -0.353553 3.380000 -0.383553 0.9960 0.9960 0.9960
v -0.500000 3.180000 -0.000000 0.7568 0.7568 0.7568
v -0.450503 3.200000 0.049497 0.9333 0.9333 0.9333
v -0.500000 3.200000 0.070000 0.9686 0.9686 0.9686
v -0.430000 3.200000 -0.000000 0.8941 0.8941 0.8941
v -0.450503 3.200000 -0.049497 0.9294 0.9294 0.9294
v -0.549497 3.200000 -0.049497 0.9882 0.9882 0.9882
v -0.549497 3.200000 0.049497 0.9921 0.9921 0.9921
v -0.570711 3.270000 0.070711 0.9882 0.9882 0.9882
v -0.500000 3.200000 -0.070000 0.9686 0.9686 0.9686
v -0.429289 3.270000 -0.070711 0.9294 0.9294 0.9294
v -0.500000 3.270000 -0.100000 0.9568 0.9568 0.9568
v -0.570000 3.200000 -0.000000 0.9960 0.9960 0.9960
v -0.570711 3.270000 -0.070711 0.9882 0.9882 0.9882
v -0.600000 3.270000 -0.000000 1.0000 1.0000 1.0000
v -0.500000 3.270000 0.100000 0.9607 0.9607 0.9607
v -0.443431 3.350000 0.056569 0.9607 0.9607 0.9607
v -0.429289 3.270000 0.070711 0.9294 0.9294 0.9294
v -0.400000 3.270000 -0.000000 0.9098 0.9098 0.9098
v -0.420000 3.350000 -0.000000 0.9647 0.9647 0.9647
v -0.443431 3.350000 -0.056569 0.9647 0.9647 0.9647
v -0.580000 3.350000 -0.000000 1.0000 1.0000 1.0000
v -0.556569 3.350000 0.056569 0.9921 0.9921 0.9921
v -0.500000 3.350000 0.080000 0.9764 0.9764 0.9764
v -0.500000 3.380000 0.030000 0.9960 0.9960 0.9960
v -0.500000 3.350000 -0.080000 0.9725 0.9725 0.9725
v -0.556569 3.350000 -0.056569 0.9960 0.9960 0.9960
v -0.521213 3.380000 -0.021213 0.9960 0.9960 0.9960
v -0.521213 3.380000 0.021213 0.9960 0.9960 0.9960
v -0.478787 3.380000 0.021213 0.9960 0.9960 0.9960
v -0.470000 3.380000 -0.000000 0.9960 0.9960 0.9960
v -0.500000 3.380000 -0.000000 1.0000 1.0000 1.0000
v -0.478787 3.380000 -0.021213 0.9960 0.9960 0.9960
v -0.500000 3.380000 -0.030000 0.9921 0.9921 0.9921
v -0.530000 3.380000 -0.000000 1.0000 1.0000 1.0000
v -0.304056 3.200000 0.304056 0.8980 0.8980 0.8980
v -0.283553 3.200000 0.353553 0.9294 0.9294 0.9294
v -0.353553 3.200000 0.283553 0.9333 0.9333 0.9333
v -0.353553 3.180000 0.353553 0.7608 0.7608 0.7608
v -0.423553 3.200000 0.353553 0.9882 0.9882 0.9882
v -0.403051 3.200000 0.304056 0.9568 0.9568 0.9568
v -0.353553 3.200000 0.423553 0.9882 0.9882 0.9882
v -0.304056 3.200000 0.403051 0.9647 0.9647 0.9647
v -0.282843 3.270000 0.282843 0.9137 0.9137 0.9137
v -0.253553 3.270000 0.353553 0.9294 0.9294 0.9294
v -0.403051 3.200000 0.403051 1.0000 1.0000 1.0000
v -0.424264 3.270000 0.424264 1.0000 1.0000 1.0000
v -0.353553 3.270000 0.453553 0.9882 0.9882 0.9882
v -0.282843 3.270000 0.424264 0.9490 0.9490 0.9490
v -0.273553 3.350000 0.353553 0.9647 0.9647 0.9647
v -0.353553 3.270000 0.253553 0.9255 0.9255 0.9255
v -0.424264 3.270000 0.282843 0.9568 0.9568 0.9568
v -0.433553 3.350000 0.353553 0.9921 0.9921 0.9921
v -0.453553 3.270000 0.353553 0.9882 0.9882 0.9882
v -0.410122 3.350000 0.410122 1.0000 1.0000 1.0000
v -0.353553 3.350000 0.433553 0.9960 0.9960 0.9960
v -0.296985 3.350000 0.410122 0.9764 0.9764 0.9764
v -0.323553 3.380000 0.353553 1.0000 1.0000 1.0000
v -0.296985 3.350000 0.296985 0.9607 0.9607 0.9607
v -0.353553 3.350000 0.273553 0.9607 0.9607 0.9607
v -0.410122 3.350000 0.296985 0.9764 0.9764 0.9764
v -0.353553 3.380000 0.383553 1.0000 1.0000 1.0000
v -0.332340 3.380000 0.374767 0.9960 0.9960 0.9960
v -0.332340 3.380000 0.332340 1.0000 1.0000 1.0000
v -0.353553 3.380000 0.353553 1.0000 1.0000 1.0000
v -0.353553 3.380000 0.323553 0.9921 0.9921 0.9921
v -0.374767 3.380000 0.332340 0.9960 0.9960 0.9960
v -0.383553 3.380000 0.353553 1.0000 1.0000 1.0000
v -0.374767 3.380000 0.374767 1.0000 1.0000 1.0000
v -0.000000 3.200000 0.570000 1.0000 1.0000 1.0000
v 0.049497 3.200000 0.450503 0.9294 0.9294 0.9294
v -0.049497 3.200000 0.450503 0.9255 0.9255 0.9255
v -0.000000 3.200000 0.430000 0.8980 0.8980 0.8980
v -0.000000 3.180000 0.500000 0.7608 0.7608 0.7608
v 0.049497 3.200000 0.549497 0.9921 0.9921 0.9921
v 0.070711 3.270000 0.570711 0.9882 0.9882 0.9882
v 0.070000 3.200000 0.500000 0.9647 0.9647 0.9647
v 0.070711 3.270000 0.429289 0.9255 0.9255 0.9255
v 0.100000 3.270000 0.500000 0.9568 0.9568 0.9568
v -0.070000 3.200000 0.500000 0.9647 0.9647 0.9647
v -0.049497 3.200000 0.549497 0.9921 0.9921 0.9921
v -0.070711 3.270000 0.570711 0.9921 0.9921 0.9921
v -0.100000 3.270000 0.500000 0.9529 0.9529 0.9529
v -0.000000 3.270000 0.600000 1.0000 1.0000 1.0000
v 0.080000 3.350000 0.500000 0.9725 0.9725 0.9725
v -0.000000 3.270000 0.400000 0.9137 0.9137 0.9137
v -0.000000 3.350000 0.420000 0.9607 0.9607 0.9607
v -0.070711 3.270000 0.429289 0.9255 0.9255 0.9255
v -0.056569 3.350000 0.556569 0.9921 0.9921 0.9921
v 0.021213 3.380000 0.521213 1.0000 1.0000 1.0000
v 0.056569 3.350000 0.556569 0.9921 0.9921 0.9921
v 0.030000 3.380000 0.500000 0.9921 0.9921 0.9921
v 0.021213 3.380000 0.478787 0.9921 0.9921 0.9921
v 0.056569 3.350000 0.443431 0.9725 0.9725 0.9725
v -0.056569 3.350000 0.443431 0.9686 0.9686 0.9686
v -0.080000 3.350000 0.500000 0.9764 0.9764 0.9764
v -0.021213 3.380000 0.478787 0.9921 0.9921 0.9921
v -0.000000 3.350000 0.580000 1.0000 1.0000 1.0000
v -0.000000 3.380000 0.470000 0.9921 0.9921 0.9921
v -0.030000 3.380000 0.500000 0.9921 0.9921 0.9921
v -0.021213 3.380000 0.521213 0.9960 0.9960 0.9960
v -0.000000 3.380000 0.500000 1.0000 1.0000 1.0000
v -0.000000 3.380000 0.530000 1.0000 1.0000 1.0000
v 0.353553 3.180000 0.353553 0.7568 0.7568 0.7568
v 0.423553 3.200000 0.353553 0.9882 0.9882 0.9882
v 0.353553 3.200000 0.283553 0.9294 0.9294 0.9294
v 0.403051 3.200000 0.304056 0.9647 0.9647 0.9647
v 0.304056 3.200000 0.304056 0.8980 0.8980 0.8980
v 0.353553 3.200000 0.423553 0.9843 0.9843 0.9843
v 0.453553 3.270000 0.353553 0.9882 0.9882 0.9882
v 0.353553 3.270000 0.253553 0.9255 0.9255 0.9255
v 0.283553 3.200000 0.353553 0.9255 0.9255 0.9255
v 0.304056 3.200000 0.403051 0.9647 0.9647 0.9647
v 0.353553 3.270000 0.453553 0.9921 0.9921 0.9921
v 0.282843 3.270000 0.424264 0.9568 0.9568 0.9568
v 0.403051 3.200000 0.403051 0.9960 0.9960 0.9960
v 0.424264 3.270000 0.424264 1.0000 1.0000 1.0000
v 0.424264 3.270000 0.282843 0.9568 0.9568 0.9568
v 0.410122 3.350000 0.296985 0.9725 0.9725 0.9725
v 0.282843 3.270000 0.282843 0.9137 0.9137 0.9137
v 0.296985 3.350000 0.296985 0.9686 0.9686 0.9686
v 0.353553 3.350000 0.273553 0.9647 0.9647 0.9647
v 0.253553 3.270000 0.353553 0.9255 0.9255 0.9255
v 0.273553 3.350000 0.353553 0.9725 0.9725 0.9725
v 0.410122 3.350000 0.410122 1.0000 1.0000 1.0000
v 0.433553 3.350000 0.353553 0.9921 0.9921 0.9921
v 0.383553 3.380000 0.353553 0.9960 0.9960 0.9960
v 0.353553 3.380000 0.323553 0.9921 0.9921 0.9921
v 0.296985 3.350000 0.410122 0.9725 0.9725 0.9725
v 0.332340 3.380000 0.374767 0.9960 0.9960 0.9960
v 0.353553 3.350000 0.433553 0.9921 0.9921 0.9921
v 0.374767 3.380000 0.374767 1.0000 1.0000 1.0000
v 0.353553 3.380000 0.383553 1.0000 1.0000 1.0000
v 0.374767 3.380000 0.332340 0.9960 0.9960 0.9960
v 0.353553 3.380000 0.353553 1.0000 1.0000 1.0000
v 0.332340 3.380000 0.332340 0.9960 0.9960 0.9960
v 0.323553 3.380000 0.353553 0.9960 0.9960 0.9960
vn -0.0000 -1.0000 -0.0000
vn 0.1943 -0.9615 -0.1943
vn 0.2747 -0.9615 -0.0000
vn -0.0000 -0.9615 -0.2747
vn -0.1943 -0.9615 -0.1943
vn -0.2747 -0.9615 -0.0000
vn -0.1943 -0.9615 0.1943
vn -0.0000 -0.9615 0.2747
vn 0.1943 -0.9615 0.1943
vn 0.9191 -0.3939 -0.0000
vn 0.6499 -0.3939 -0.6499
vn 0.7052 -0.0743 -0.7052
vn 0.9972 -0.0743 -0.0000
vn -0.0000 -0.3939 -0.9191
vn -0.0000 -0.0743 -0.9972
vn -0.6499 -0.3939 -0.6499
vn -0.7052 -0.0743 -0.7052
vn -0.9191 -0.3939 -0.0000
vn -0.9972 -0.0743 -0.0000
vn -0.6499 -0.3939 0.6499
vn -0.7052 -0.0743 0.7052
vn -0.0000 -0.3939 0.9191
vn -0.0000 -0.0743 0.9972
vn 0.6499 -0.3939 0.6499
vn 0.7052 -0.0743 0.7052
vn 0.5886 0.5542 -0.5886
vn 0.8324 0.5542 -0.0000
vn -0.0000 0.5542 -0.8324
vn -0.5886 0.5542 -0.5886
vn -0.8324 0.5542 -0.0000
vn -0.5886 0.5542 0.5886
vn -0.0000 0.5542 0.8324
vn 0.5886 0.5542 0.5886
vn 0.2308 0.9452 -0.2308
vn 0.3264 0.9452 -0.0000
vn -0.0000 0.9452 -0.3264
vn -0.2308 0.9452 -0.2308
vn -0.3264 0.9452 -0.0000
vn -0.2308 0.9452 0.2308
vn -0.0000 0.9452 0.3264
vn 0.2308 0.9452 0.2308
vn -0.0000 1.0000 -0.0000
vt 0.649628 0.984619
vt 0.650574 0.988066
vt 0.648682 0.988066
vt 0.651520 0.984619
vt 0.652466 0.988066
vt 0.653412 0.984619
vt 0.654358 0.988066
vt 0.655304 0.984619
vt 0.656250 0.988066
vt 0.657196 0.984619
vt 0.658142 0.988066
vt 0.659088 0.984619
vt 0.660034 0.988066
vt 0.660980 0.984619
vt 0.661926 0.988066
vt 0.662872 0.984619
vt 0.663818 0.988066
vt 0.650574 0.991671
vt 0.648682 0.991671
vt 0.652466 0.991671
vt 0.654358 0.991671
vt 0.656250 0.991671
vt 0.658142 0.991671
vt 0.660034 0.991671
vt 0.661926 0.991671
vt 0.663818 0.991671
vt 0.650574 0.995575
vt 0.648682 0.995575
vt 0.652466 0.995575
vt 0.654358 0.995575
vt 0.656250 0.995575
vt 0.658142 0.995575
vt 0.660034 0.995575
vt 0.661926 0.995575
vt 0.663818 0.995575
vt 0.650574 0.998336
vt 0.648682 0.998336
vt 0.652466 0.998336
vt 0.654358 0.998336
vt 0.656250 0.998336
vt 0.658142 0.998336
vt 0.660034 0.998336
vt 0.661926 0.998336
vt 0.663818 0.998336
vt 0.649628 0.999756
vt 0.651520 0.999756
vt 0.653412 0.999756
vt 0.655304 0.999756
vt 0.657196 0.999756
vt 0.659088 0.999756
vt 0.660980 0.999756
vt 0.662872 0.999756
s 1
usemtl props
f 173/100/213 172/101/214 185/102/215
f 173/103/213 177/104/216 172/101/214
f 173/105/213 179/106/217 177/104/216
f 173/107/213 174/108/218 179/106/217
f 173/109/213 181/110/219 174/108/218
f 173/111/213 183/112/220 181/110/219
f 173/113/213 175/114/221 183/112/220
f 173/115/213 185/116/215 175/114/221
f 185/102/222 172/101/223 176/117/224 186/118/225
f 172/101/223 177/104/226 178/119/227 176/117/224
f 177/104/226 179/106/228 180/120/229 178/119/227
f 179/106/228 174/108/230 188/121/231 180/120/229
f 174/108/230 181/110/232 191/122/233 188/121/231
f 181/110/232 183/112/234 182/123/235 191/122/233
f 183/112/234 175/114/236 184/124/237 182/123/235
f 175/114/236 185/116/222 186/125/225 184/124/237
f 186/118/225 176/117/224 195/126/238 193/127/239
f 176/117/224 178/119/227 187/128/240 195/126/238
f 178/119/227 180/120/229 190/129/241 187/128/240
f 180/120/229 188/121/231 189/130/242 190/129/241
f 188/121/231 191/122/233 198/131/243 189/130/242
f 191/122/233 182/123/235 199/132/244 198/131/243
f 182/123/235 184/124/237 192/133/245 199/132/244
f 184/124/237 186/125/225 193/134/239 192/133/245
f 193/127/239 195/126/238 203/135/246 194/136/247
f 195/126/238 187/128/240 204/137/248 203/135/246
f 187/128/240 190/129/241 197/138/249 204/137/248
f 190/129/241 189/130/242 196/139/250 197/138/249
f 189/130/242 198/131/243 200/140/251 196/139/250
f 198/131/243 199/132/244 205/141/252 200/140/251
f 199/132/244 192/133/245 201/142/253 205/141/252
f 192/133/245 193/134/239 194/143/247 201/142/253
f 194/136/247 203/135/246 202/144/254
f 203/135/246 204/137/248 202/145/254
f 204/137/248 197/138/249 202/146/254
f 197/138/249 196/139/250 202/147/254
f 196/139/250 200/140/251 202/148/254
f 200/140/251 205/141/252 202/149/254
f 205/141/252 201/142/253 202/150/254
f 201/142/253 194/143/247 202/151/254
f 209/100/213 213/101/216 206/102/214
f 209/103/213 215/104/217 213/101/216
f 209/105/213 208/106/218 215/104/217
f 209/107/213 207/108/219 208/106/218
f 209/109/213 217/110/220 207/108/219
f 209/111/213 211/112/221 217/110/220
f 209/113/213 210/114/215 211/112/221
f 209/115/213 206/116/214 210/114/215
f 206/102/223 213/101/226 220/117/227 212/118/224
f 213/101/226 215/104/228 214/119/229 220/117/227
f 215/104/228 208/106/230 216/120/231 214/119/229
f 208/106/230 207/108/232 218/121/233 216/120/231
f 207/108/232 217/110/234 224/122/235 218/121/233
f 217/110/234 211/112/236 219/123/237 224/122/235
f 211/112/236 210/114/222 225/124/225 219/123/237
f 210/114/222 206/116/223 212/125/224 225/124/225
f 212/118/224 220/117/227 226/126/240 221/127/238
f 220/117/227 214/119/229 229/128/241 226/126/240
f 214/119/229 216/120/231 223/129/242 229/128/241
f 216/120/231 218/121/233 222/130/243 223/129/242
f 218/121/233 224/122/235 231/131/244 222/130/243
f 224/122/235 219/123/237 233/132/245 231/131/244
f 219/123/237 225/124/225 236/133/239 233/132/245
f 225/124/225 212/125/224 221/134/238 236/133/239
f 221/127/238 226/126/240 227/135/248 228/136/246
f 226/126/240 229/128/241 237/137/249 227/135/248
f 229/128/241 223/129/242 230/138/250 237/137/249
f 223/129/242 222/130/243 239/139/251 230/138/250
f 222/130/243 231/131/244 232/140/252 239/139/251
f 231/131/244 233/132/245 235/141/253 232/140/252
f 233/132/245 236/133/239 234/142/247 235/141/253
f 236/133/239 221/134/238 228/143/246 234/142/247
f 228/136/246 227/135/248 238/144/254
f 227/135/248 237/137/249 238/145/254
f 237/137/249 230/138/250 238/146/254
f 230/138/250 239/139/251 238/147/254
f 239/139/251 232/140/252 238/148/254
f 232/140/252 235/141/253 238/149/254
f 235/141/253 234/142/247 238/150/254
f 234/142/247 228/143/246 238/151/254
f 244/100/213 240/101/217 241/102/216
f 244/103/213 242/104/218 240/101/217
f 244/105/213 247/106/219 242/104/218
f 244/107/213 243/108/220 247/106/219
f 244/109/213 248/110/221 243/108/220
f 244/111/213 245/112/215 248/110/221
f 244/113/213 246/114/214 245/112/215
f 244/115/213 241/116/216 246/114/214
f 241/102/226 240/101/228 252/117/229 250/118/227
f 240/101/228 242/104/230 254/119/231 252/117/229
f 242/104/230 247/106/232 255/120/233 254/119/231
f 247/106/232 243/108/234 256/121/235 255/120/233
f 243/108/234 248/110/236 258/122/237 256/121/235
f 248/110/236 245/112/222 249/123/225 258/122/237
f 245/112/222 246/114/223 259/124/224 249/123/225
f 246/114/223 241/116/226 250/125/227 259/124/224
f 250/118/227 252/117/229 253/126/241 251/127/240
f 252/117/229 254/119/231 260/128/242 253/126/241
f 254/119/231 255/120/233 257/129/243 260/128/242
f 255/120/233 256/121/235 262/130/244 257/129/243
f 256/121/235 258/122/237 263/131/245 262/130/244
f 258/122/237 249/123/225 264/132/239 263/131/245
f 249/123/225 259/124/224 265/133/238 264/132/239
f 259/124/224 250/125/227 251/134/240 265/133/238
f 251/127/240 253/126/241 266/135/249 273/136/248
f 253/126/241 260/128/242 268/137/250 266/135/249
f 260/128/242 257/129/243 261/138/251 268/137/250
f 257/129/243 262/130/244 269/139/252 261/138/251
f 262/130/244 263/131/245 270/140/253 269/139/252
f 263/131/245 264/132/239 271/141/247 270/140/253
f 264/132/239 265/133/238 272/142/246 271/141/247
f 265/133/238 251/134/240 273/143/248 272/142/246
f 273/136/248 266/135/249 267/144/254
f 266/135/249 268/137/250 267/145/254
f 268/137/250 261/138/251 267/146/254
f 261/138/251 269/139/252 267/147/254
f 269/139/252 270/140/253 267/148/254
f 270/140/253 271/141/247 267/149/254
f 271/141/247 272/142/246 267/150/254
f 272/142/246 273/143/248 267/151/254
f 278/100/213 275/101/218 279/102/217
f 278/103/213 274/104/219 275/101/218
f 278/105/213 276/106/220 274/104/219
f 278/107/213 283/108/221 276/106/220
f 278/109/213 284/110/215 283/108/221
f 278/111/213 277/112/214 284/110/215
f 278/113/213 280/114/216 277/112/214
f 278/115/213 279/116/217 280/114/216
f 279/102/228 275/101/230 282/117/231 285/118/229
f 275/101/230 274/104/232 281/119/233 282/117/231
f 274/104/232 276/106/234 288/120/235 281/119/233
f 276/106/234 283/108/236 289/121/237 288/120/235
f 283/108/236 284/110/222 291/122/225 289/121/237
f 284/110/222 277/112/223 292/123/224 291/122/225
f 277/112/223 280/114/226 286/124/227 292/123/224
f 280/114/226 279/116/228 285/125/229 286/124/227
f 285/118/229 282/117/231 287/126/242 294/127/241
f 282/117/231 281/119/233 297/128/243 287/126/242
f 281/119/233 288/120/235 299/129/244 297/128/243
f 288/120/235 289/121/237 290/130/245 299/129/244
f 289/121/237 291/122/225 302/131/239 290/130/245
f 291/122/225 292/123/224 293/132/238 302/131/239
f 292/123/224 286/124/227 304/133/240 293/132/238
f 286/124/227 285/125/229 294/134/241 304/133/240
f 294/127/241 287/126/242 295/135/250 296/136/249
f 287/126/242 297/128/243 305/137/251 295/135/250
f 297/128/243 299/129/244 298/138/252 305/137/251
f 299/129/244 290/130/245 300/139/253 298/138/252
f 290/130/245 302/131/239 301/140/247 300/139/253
f 302/131/239 293/132/238 303/141/246 301/140/247
f 293/132/238 304/133/240 307/142/248 303/141/246
f 304/133/240 294/134/241 296/143/249 307/142/248
f 296/136/249 295/135/250 306/144/254
f 295/135/250 305/137/251 306/145/254
f 305/137/251 298/138/252 306/146/254
f 298/138/252 300/139/253 306/147/254
f 300/139/253 301/140/247 306/148/254
f 301/140/247 303/141/246 306/149/254
f 303/141/246 307/142/248 306/150/254
f 307/142/248 296/143/249 306/151/254
f 308/100/213 314/101/219 319/102/218
f 308/103/213 310/104/220 314/101/219
f 308/105/213 309/106/221 310/104/220
f 308/107/213 311/108/215 309/106/221
f 308/109/213 312/110/214 311/108/215
f 308/111/213 316/112/216 312/110/214
f 308/113/213 313/114/217 316/112/216
f 308/115/213 319/116/218 313/114/217
f 319/102/230 314/101/232 315/117/233 321/118/231
f 314/101/232 310/104/234 322/119/235 315/117/233
f 310/104/234 309/106/236 324/120/237 322/119/235
f 309/106/236 311/108/222 325/121/225 324/120/237
f 311/108/222 312/110/223 317/122/224 325/121/225
f 312/110/223 316/112/226 318/123/227 317/122/224
f 316/112/226 313/114/228 320/124/229 318/123/227
f 313/114/228 319/116/230 321/125/231 320/124/229
f 321/118/231 315/117/233 329/126/243 328/127/242
f 315/117/233 322/119/235 330/128/244 329/126/243
f 322/119/235 324/120/237 323/129/245 330/128/244
f 324/120/237 325/121/225 326/130/239 323/129/245
f 325/121/225 317/122/224 327/131/238 326/130/239
f 317/122/224 318/123/227 332/132/240 327/131/238
f 318/123/227 320/124/229 333/133/241 332/132/240
f 320/124/229 321/125/231 328/134/242 333/133/241
f 328/127/242 329/126/243 335/135/251 341/136/250
f 329/126/243 330/128/244 331/137/252 335/135/251
f 330/128/244 323/129/245 336/138/253 331/137/252
f 323/129/245 326/130/239 337/139/247 336/138/253
f 326/130/239 327/131/238 339/140/246 337/139/247
f 327/131/238 332/132/240 340/141/248 339/140/246
f 332/132/240 333/133/241 334/142/249 340/141/248
f 333/133/241 328/134/242 341/143/250 334/142/249
f 341/136/250 335/135/251 338/144/254
f 335/135/251 331/137/252 338/145/254
f 331/137/252 336/138/253 338/146/254
f 336/138/253 337/139/247 338/147/254
f 337/139/247 339/140/246 338/148/254
f 339/140/246 340/141/248 338/149/254
f 340/141/248 334/142/249 338/150/254
f 334/142/249 341/143/250 338/151/254
f 345/100/213 348/101/220 352/102/219
f 345/103/213 349/104/221 348/101/220
f 345/105/213 343/106/215 349/104/221
f 345/107/213 342/108/214 343/106/215
f 345/109/213 344/110/216 342/108/214
f 345/111/213 347/112/217 344/110/216
f 345/113/213 346/114/218 347/112/217
f 345/115/213 352/116/219 346/114/218
f 352/102/232 348/101/234 354/117/235 353/118/233
f 348/101/234 349/104/236 355/119/237 354/117/235
f 349/104/236 343/106/222 351/120/225 355/119/237
f 343/106/222 342/108/223 350/121/224 351/120/225
f 342/108/223 344/110/226 357/122/227 350/121/224
f 344/110/226 347/112/228 358/123/229 357/122/227
f 347/112/228 346/114/230 360/124/231 358/123/229
f 346/114/230 352/116/232 353/125/233 360/124/231
f 353/118/233 354/117/235 362/126/244 361/127/243
f 354/117/235 355/119/237 363/128/245 362/126/244
f 355/119/237 351/120/225 356/129/239 363/128/245
f 351/120/225 350/121/224 365/130/238 356/129/239
f 350/121/224 357/122/227 366/131/240 365/130/238
f 357/122/227 358/123/229 367/132/241 366/131/240
f 358/123/229 360/124/231 359/133/242 367/132/241
f 360/124/231 353/125/233 361/134/243 359/133/242
f 361/127/243 362/126/244 368/135/252 375/136/251
f 362/126/244 363/128/245 369/137/253 368/135/252
f 363/128/245 356/129/239 364/138/247 369/137/253
f 356/129/239 365/130/238 370/139/246 364/138/247
f 365/130/238 366/131/240 372/140/248 370/139/246
f 366/131/240 367/132/241 373/141/249 372/140/248
f 367/132/241 359/133/242 374/142/250 373/141/249
f 359/133/242 361/134/243 375/143/251 374/142/250
f 375/136/251 368/135/252 371/144/254
f 368/135/252 369/137/253 371/145/254
f 369/137/253 364/138/247 371/146/254
f 364/138/247 370/139/246 371/147/254
f 370/139/246 372/140/248 371/148/254
f 372/140/248 373/141/249 371/149/254
f 373/141/249 374/142/250 371/150/254
f 374/142/250 375/143/251 371/151/254
f 380/100/213 381/101/221 376/102/220
f 380/103/213 383/104/215 381/101/221
f 380/105/213 377/106/214 383/104/215
f 380/107/213 379/108/216 377/106/214
f 380/109/213 378/110/217 379/108/216
f 380/111/213 386/112/218 378/110/217
f 380/113/213 387/114/219 386/112/218
f 380/115/213 376/116/220 387/114/219
f 376/102/234 381/101/236 382/117/237 390/118/235
f 381/101/236 383/104/222 385/119/225 382/117/237
f 383/104/222 377/106/223 384/120/224 385/119/225
f 377/106/223 379/108/226 392/121/227 384/120/224
f 379/108/226 378/110/228 394/122/229 392/121/227
f 378/110/228 386/112/230 389/123/231 394/122/229
f 386/112/230 387/114/232 388/124/233 389/123/231
f 387/114/232 376/116/234 390/125/235 388/124/233
f 390/118/235 382/117/237 397/126/245 404/127/244
f 382/117/237 385/119/225 391/128/239 397/126/245
f 385/119/225 384/120/224 400/129/238 391/128/239
f 384/120/224 392/121/227 393/130/240 400/129/238
f 392/121/227 394/122/229 401/131/241 393/130/240
f 394/122/229 389/123/231 402/132/242 401/131/241
f 389/123/231 388/124/233 395/133/243 402/132/242
f 388/124/233 390/125/235 404/134/244 395/133/243
f 404/127/244 397/126/245 396/135/253 409/136/252
f 397/126/245 391/128/239 398/137/247 396/135/253
f 391/128/239 400/129/238 399/138/246 398/137/247
f 400/129/238 393/130/240 405/139/248 399/138/246
f 393/130/240 401/131/241 403/140/249 405/139/248
f 401/131/241 402/132/242 406/141/250 403/140/249
f 402/132/242 395/133/243 407/142/251 406/141/250
f 395/133/243 404/134/244 409/143/252 407/142/251
f 409/136/252 396/135/253 408/144/254
f 396/135/253 398/137/247 408/145/254
f 398/137/247 399/138/246 408/146/254
f 399/138/246 405/139/248 408/147/254
f 405/139/248 403/140/249 408/148/254
f 403/140/249 406/141/250 408/149/254
f 406/141/250 407/142/251 408/150/254
f 407/142/251 409/143/252 408/151/254
f 410/100/213 411/101/215 422/102/221
f 410/103/213 413/104/214 411/101/215
f 410/105/213 412/106/216 413/104/214
f 410/107/213 414/108/217 412/106/216
f 410/109/213 418/110/218 414/108/217
f 410/111/213 419/112/219 418/110/218
f 410/113/213 415/114/220 419/112/219
f 410/115/213 422/116/221 415/114/220
f 422/102/236 411/101/222 416/117/225 423/118/237
f 411/101/222 413/104/223 424/119/224 416/117/225
f 413/104/223 412/106/226 417/120/227 424/119/224
f 412/106/226 414/108/228 426/121/229 417/120/227
f 414/108/228 418/110/230 429/122/231 426/121/229
f 418/110/230 419/112/232 421/123/233 429/122/231
f 419/112/232 415/114/234 420/124/235 421/123/233
f 415/114/234 422/116/236 423/125/237 420/124/235
f 423/118/237 416/117/225 432/126/239 431/127/245
f 416/117/225 424/119/224 425/128/238 432/126/239
f 424/119/224 417/120/227 428/129/240 425/128/238
f 417/120/227 426/121/229 427/130/241 428/129/240
f 426/121/229 429/122/231 430/131/242 427/130/241
f 429/122/231 421/123/233 435/132/243 430/131/242
f 421/123/233 420/124/235 437/133/244 435/132/243
f 420/124/235 423/125/237 431/134/245 437/133/244
f 431/127/245 432/126/239 433/135/247 438/136/253
f 432/126/239 425/128/238 440/137/246 433/135/247
f 425/128/238 428/129/240 434/138/248 440/137/246
f 428/129/240 427/130/241 442/139/249 434/138/248
f 427/130/241 430/131/242 443/140/250 442/139/249
f 430/131/242 435/132/243 436/141/251 443/140/250
f 435/132/243 437/133/244 439/142/252 436/141/251
f 437/133/244 431/134/245 438/143/253 439/142/252
f 438/136/253 433/135/247 441/144/254
f 433/135/247 440/137/246 441/145/254
f 440/137/246 434/138/248 441/146/254
f 434/138/248 442/139/249 441/147/254
f 442/139/249 443/140/250 441/148/254
f 443/140/250 436/141/251 441/149/254
f 436/141/251 439/142/252 441/150/254
f 439/142/252 438/143/253 441/151/254
