# Blender 4.5.14 LTS
# www.blender.org
mtllib column.mtl
o column
v 0.300000 0.000000 0.300000 0.7020 0.7020 0.7020
v -0.300000 1.000000 0.300000 1.0000 1.0000 1.0000
v 0.300000 1.000000 -0.300000 1.0000 1.0000 1.0000
v 0.300000 0.000000 -0.300000 0.7020 0.7020 0.7020
v -0.300000 0.000000 -0.300000 0.7020 0.7020 0.7020
v 0.300000 2.000000 0.300000 1.0000 1.0000 1.0000
v -0.300000 2.000000 -0.300000 1.0000 1.0000 1.0000
v 0.300000 2.000000 -0.300000 1.0000 1.0000 1.0000
v -0.300000 1.000000 -0.300000 1.0000 1.0000 1.0000
v -0.300000 2.000000 0.300000 1.0000 1.0000 1.0000
v -0.300000 3.000000 0.300000 1.0000 1.0000 1.0000
v 0.300000 3.400000 -0.300000 0.8117 0.8117 0.8117
v -0.300000 3.400000 0.300000 0.8196 0.8196 0.8196
v 0.300000 1.000000 0.300000 1.0000 1.0000 1.0000
v 0.300000 3.000000 -0.300000 1.0000 1.0000 1.0000
v 0.300000 3.000000 0.300000 1.0000 1.0000 1.0000
v 0.300000 3.400000 0.300000 0.8196 0.8196 0.8196
v -0.300000 0.000000 0.300000 0.7020 0.7020 0.7020
v -0.300000 3.000000 -0.300000 1.0000 1.0000 1.0000
v -0.300000 3.400000 -0.300000 0.8157 0.8157 0.8157
vn -0.0000 -0.0000 1.0000
vn -0.0000 -0.0000 -1.0000
vn -0.0000 1.0000 -0.0000
vn 1.0000 -0.0000 -0.0000
vn -1.0000 -0.0000 -0.0000
vt 0.250244 0.937744
vt 0.287451 0.937744
vt 0.287451 0.999756
vt 0.250244 0.999756
vt 0.312256 0.999756
vt 0.275049 0.999756
vt 0.275049 0.937744
vt 0.312256 0.937744
vt 0.312744 0.937744
vt 0.349951 0.937744
vt 0.349951 0.999756
vt 0.312744 0.999756
vt 0.374756 0.999756
vt 0.337549 0.999756
vt 0.337549 0.937744
vt 0.374756 0.937744
vt 0.349951 0.962549
vt 0.312744 0.962549
vt 0.374756 0.962549
vt 0.337549 0.962549
vt 0.349951 0.974951
vt 0.312744 0.974951
s 0
usemtl props
f 18/1/1 1/2/1 14/3/1 2/4/1
f 9/5/2 3/6/2 4/7/2 5/8/2
f 2/9/1 14/10/1 6/11/1 10/12/1
f 7/13/2 8/14/2 3/15/2 9/16/2
f 10/9/1 6/10/1 16/11/1 11/12/1
f 19/13/2 15/14/2 8/15/2 7/16/2
f 11/9/1 16/10/1 17/17/1 13/18/1
f 20/19/2 12/20/2 15/15/2 19/16/2
f 13/9/3 17/10/3 12/21/3 20/22/3
f 1/1/4 4/2/4 3/3/4 14/4/4
f 14/9/4 3/10/4 8/11/4 6/12/4
f 6/9/4 8/10/4 15/11/4 16/12/4
f 16/9/4 15/10/4 12/17/4 17/18/4
f 5/1/5 18/2/5 2/3/5 9/4/5
f 9/9/5 2/10/5 10/11/5 7/12/5
f 7/9/5 10/10/5 11/11/5 19/12/5
f 19/9/5 11/10/5 13/17/5 20/18/5
o column_1
v -0.350000 0.000000 0.350000 0.7960 0.7960 0.7960
v 0.350000 0.000000 0.350000 0.8000 0.8000 0.8000
v -0.350000 0.120000 -0.350000 0.9019 0.9019 0.9019
v -0.350000 0.000000 -0.350000 0.7960 0.7960 0.7960
v -0.350000 0.120000 0.350000 0.8980 0.8980 0.8980
v 0.350000 0.120000 0.350000 0.9019 0.9019 0.9019
v 0.350000 0.120000 -0.350000 0.9019 0.9019 0.9019
v 0.350000 0.000000 -0.350000 0.8000 0.8000 0.8000
vn -0.0000 -0.0000 1.0000
vn -0.0000 -0.0000 -1.0000
vn -1.0000 -0.0000 -0.0000
vn 1.0000 -0.0000 -0.0000
vn -0.0000 1.0000 -0.0000
vn -0.0000 -1.0000 -0.0000
vt 0.062744 0.937744
vt 0.106152 0.937744
vt 0.106152 0.945186
vt 0.062744 0.945186
vt 0.106152 0.981152
vt 0.062744 0.981152
s 0
usemtl props
f 21/23/6 22/24/6 26/25/6 25/26/6
f 28/23/7 24/24/7 23/25/7 27/26/7
f 24/23/8 21/24/8 25/25/8 23/26/8
f 22/23/9 28/24/9 27/25/9 26/26/9
f 25/23/10 26/24/10 27/27/10 23/28/10
f 24/23/11 28/24/11 22/27/11 21/28/11
o column_2
v -0.320000 3.400000 0.320000 0.9725 0.9725 0.9725
v 0.320000 3.400000 0.320000 0.9607 0.9607 0.9607
v 0.320000 3.520000 0.320000 0.9568 0.9568 0.9568
v 0.320000 3.400000 -0.320000 0.9647 0.9647 0.9647
v -0.320000 3.400000 -0.320000 0.9686 0.9686 0.9686
v -0.320000 3.520000 0.320000 0.9568 0.9568 0.9568
v 0.544000 4.000000 0.544000 1.0000 1.0000 1.0000
v -0.544000 4.000000 0.544000 1.0000 1.0000 1.0000
v 0.544000 4.000000 -0.544000 1.0000 1.0000 1.0000
v -0.320000 3.520000 -0.320000 0.9568 0.9568 0.9568
v -0.544000 4.000000 -0.544000 1.0000 1.0000 1.0000
v 0.320000 3.520000 -0.320000 0.9568 0.9568 0.9568
vn -0.0000 -0.0000 1.0000
vn -0.0000 -0.0000 -1.0000
vn -1.0000 -0.0000 -0.0000
vn 1.0000 -0.0000 -0.0000
vn -0.0000 1.0000 -0.0000
vn -0.0000 -1.0000 -0.0000
vn -0.0000 -0.4229 0.9062
vn -0.0000 -0.4229 -0.9062
vn -0.9062 -0.4229 -0.0000
vn 0.9062 -0.4229 -0.0000
vt 0.562744 0.968994
vt 0.593506 0.968994
vt 0.593506 0.974762
vt 0.562744 0.974762
vt 0.593506 0.999756
vt 0.562744 0.999756
vt 0.569077 0.968994
vt 0.587173 0.968994
vt 0.593506 0.983971
vt 0.562744 0.983971
s 0
usemtl props
f 29/29/12 30/30/12 31/31/12 34/32/12
f 32/29/13 33/30/13 38/31/13 40/32/13
f 33/29/14 29/30/14 34/31/14 38/32/14
f 30/29/15 32/30/15 40/31/15 31/32/15
f 34/29/16 31/30/16 40/33/16 38/34/16
f 33/29/17 32/30/17 30/33/17 29/34/17
f 34/35/18 31/36/18 35/37/18 36/38/18
f 40/35/19 38/36/19 39/37/19 37/38/19
f 38/35/20 34/36/20 36/37/20 39/38/20
f 31/35/21 40/36/21 37/37/21 35/38/21
