# Blender 4.5.14 LTS
# www.blender.org
mtllib fire_cabinet.mtl
o fire_cabinet
v -0.300000 0.800000 0.200000 0.8706 0.8706 0.8706
v 0.300000 0.800000 0.200000 0.8666 0.8666 0.8666
v -0.300000 1.600000 0.000000 0.8000 0.8000 0.8000
v -0.300000 0.800000 0.000000 0.8000 0.8000 0.8000
v -0.300000 1.600000 0.200000 0.8666 0.8666 0.8666
v 0.300000 1.600000 0.200000 0.8666 0.8666 0.8666
v 0.300000 1.600000 0.000000 0.7960 0.7960 0.7960
v 0.300000 0.800000 0.000000 0.7960 0.7960 0.7960
vn -0.0000 -0.0000 1.0000
vn -0.0000 -0.0000 -1.0000
vn -1.0000 -0.0000 -0.0000
vn 1.0000 -0.0000 -0.0000
vn -0.0000 1.0000 -0.0000
vn -0.0000 -1.0000 -0.0000
vt 0.617432 0.984619
vt 0.632568 0.984619
vt 0.632568 0.999756
vt 0.617432 0.999756
vt 0.664307 0.984619
vt 0.675659 0.984619
vt 0.675659 0.999756
vt 0.664307 0.999756
vt 0.668091 0.984619
vt 0.668091 0.999756
vt 0.679443 0.984619
vt 0.679443 0.989665
vt 0.664307 0.989665
s 0
usemtl props
f 1/1/1 2/2/1 6/3/1 5/4/1
f 8/5/2 4/6/2 3/7/2 7/8/2
f 4/5/3 1/9/3 5/10/3 3/8/3
f 2/5/4 8/9/4 7/10/4 6/8/4
f 5/5/5 6/11/5 7/12/5 3/13/5
f 4/5/6 8/11/6 2/12/6 1/13/6
o fire_cabinet_1
v 0.173205 1.350000 0.130000 0.7059 0.7059 0.7059
v 0.200000 1.250000 0.130000 0.7098 0.7098 0.7098
v 0.173205 1.350000 0.050000 0.7020 0.7020 0.7020
v 0.100000 1.423205 0.050000 0.7020 0.7020 0.7020
v 0.000000 1.450000 0.050000 0.7098 0.7098 0.7098
v -0.100000 1.423205 0.050000 0.7020 0.7020 0.7020
v -0.173205 1.350000 0.050000 0.7020 0.7020 0.7020
v -0.200000 1.250000 0.050000 0.7137 0.7137 0.7137
v -0.200000 1.250000 0.130000 0.7059 0.7059 0.7059
v -0.173205 1.150000 0.050000 0.7176 0.7176 0.7176
v -0.100000 1.076795 0.050000 0.7176 0.7176 0.7176
v -0.000000 1.050000 0.050000 0.7333 0.7333 0.7333
v 0.100000 1.076795 0.130000 0.7176 0.7176 0.7176
v 0.173205 1.150000 0.050000 0.7176 0.7176 0.7176
v 0.173205 1.150000 0.130000 0.7255 0.7255 0.7255
v 0.100000 1.423205 0.130000 0.7020 0.7020 0.7020
v 0.000000 1.450000 0.130000 0.7059 0.7059 0.7059
v -0.100000 1.423205 0.130000 0.7059 0.7059 0.7059
v -0.173205 1.350000 0.130000 0.7020 0.7020 0.7020
v -0.173205 1.150000 0.130000 0.7176 0.7176 0.7176
v -0.100000 1.076795 0.130000 0.7137 0.7137 0.7137
v -0.000000 1.050000 0.130000 0.7333 0.7333 0.7333
v 0.100000 1.076795 0.050000 0.7176 0.7176 0.7176
v 0.200000 1.250000 0.050000 0.7059 0.7059 0.7059
vn 1.0000 -0.0000 -0.0000
vn 0.8660 0.5000 -0.0000
vn 0.5000 0.8660 -0.0000
vn -0.0000 1.0000 -0.0000
vn -0.5000 0.8660 -0.0000
vn -0.8660 0.5000 -0.0000
vn -1.0000 -0.0000 -0.0000
vn -0.8660 -0.5000 -0.0000
vn -0.5000 -0.8660 -0.0000
vn -0.0000 -1.0000 -0.0000
vn 0.5000 -0.8660 -0.0000
vn 0.8660 -0.5000 -0.0000
vn -0.0000 -0.0000 1.0000
vn -0.0000 -0.0000 -1.0000
vt 0.812744 0.992432
vt 0.813354 0.992432
vt 0.813354 0.999756
vt 0.812744 0.999756
vt 0.813965 0.992432
vt 0.813965 0.999756
vt 0.814575 0.992432
vt 0.814575 0.999756
vt 0.815186 0.992432
vt 0.815186 0.999756
vt 0.815796 0.992432
vt 0.815796 0.999756
vt 0.816406 0.992432
vt 0.816406 0.999756
vt 0.817017 0.992432
vt 0.817017 0.999756
vt 0.817627 0.992432
vt 0.817627 0.999756
vt 0.818237 0.992432
vt 0.818237 0.999756
vt 0.818848 0.992432
vt 0.818848 0.999756
vt 0.819458 0.992432
vt 0.819458 0.999756
vt 0.820068 0.992432
vt 0.820068 0.999756
vt 0.648193 0.992188
vt 0.647179 0.995972
vt 0.644409 0.998742
vt 0.640625 0.999756
vt 0.636841 0.998742
vt 0.634071 0.995972
vt 0.633057 0.992188
vt 0.634071 0.988403
vt 0.636841 0.985633
vt 0.640625 0.984619
vt 0.644409 0.985633
vt 0.647179 0.988403
s 1
usemtl props
f 32/14/7 11/15/8 9/16/8 10/17/7
f 11/15/8 12/18/9 24/19/9 9/16/8
f 12/18/9 13/20/10 25/21/10 24/19/9
f 13/20/10 14/22/11 26/23/11 25/21/10
f 14/22/11 15/24/12 27/25/12 26/23/11
f 15/24/12 16/26/13 17/27/13 27/25/12
f 16/26/13 18/28/14 28/29/14 17/27/13
f 18/28/14 19/30/15 29/31/15 28/29/14
f 19/30/15 20/32/16 30/33/16 29/31/15
f 20/32/16 31/34/17 21/35/17 30/33/16
f 31/34/17 22/36/18 23/37/18 21/35/17
f 22/36/18 32/38/7 10/39/7 23/37/18
s 0
f 10/40/19 9/41/19 24/42/19 25/43/19 26/44/19 27/45/19 17/46/19 28/47/19 29/48/19 30/49/19 21/50/19 23/51/19
f 22/41/20 31/42/20 20/43/20 19/44/20 18/45/20 16/46/20 15/47/20 14/48/20 13/49/20 12/50/20 11/51/20 32/40/20
o fire_cabinet_door
v -0.300000 0.800000 0.220000 0.9725 0.9725 0.9725
v 0.300000 0.800000 0.220000 0.9725 0.9725 0.9725
v -0.300000 1.600000 0.200000 0.8745 0.8745 0.8745
v -0.300000 0.800000 0.200000 0.8823 0.8823 0.8823
v -0.300000 1.600000 0.220000 0.9686 0.9686 0.9686
v 0.300000 1.600000 0.220000 0.9725 0.9725 0.9725
v 0.300000 1.600000 0.200000 0.8745 0.8745 0.8745
v 0.300000 0.800000 0.200000 0.8823 0.8823 0.8823
vn -0.0000 -0.0000 1.0000
vn -0.0000 -0.0000 -1.0000
vn -1.0000 -0.0000 -0.0000
vn 1.0000 -0.0000 -0.0000
vn -0.0000 1.0000 -0.0000
vn -0.0000 -1.0000 -0.0000
vt 0.593994 0.968994
vt 0.616943 0.968994
vt 0.616943 0.999756
vt 0.593994 0.999756
vt 0.664307 0.984619
vt 0.675659 0.984619
vt 0.675659 0.999756
vt 0.664307 0.999756
vt 0.664685 0.984619
vt 0.664685 0.999756
vt 0.679443 0.984619
vt 0.679443 0.985124
vt 0.664307 0.985124
s 0
usemtl props
f 33/52/21 34/53/21 38/54/21 37/55/21
f 40/56/22 36/57/22 35/58/22 39/59/22
f 36/56/23 33/60/23 37/61/23 35/59/23
f 34/56/24 40/60/24 39/61/24 38/59/24
f 37/56/25 38/62/25 39/63/25 35/64/25
f 36/56/26 40/62/26 34/63/26 33/64/26
