# Blender 4.5.14 LTS
# www.blender.org
mtllib floor_granite_band.mtl
o floor_granite_band
v -1.000000 0.000000 1.000000 1.0000 1.0000 1.0000
v -1.000000 0.000000 0.000000 1.0000 1.0000 1.0000
v -1.000000 0.000000 -1.000000 1.0000 1.0000 1.0000
v 0.000000 0.000000 1.000000 1.0000 1.0000 1.0000
v 1.000000 0.000000 1.000000 1.0000 1.0000 1.0000
v 0.000000 0.000000 0.000000 1.0000 1.0000 1.0000
v 1.000000 0.000000 0.000000 1.0000 1.0000 1.0000
v 1.000000 0.000000 -1.000000 1.0000 1.0000 1.0000
v 0.000000 0.000000 -1.000000 1.0000 1.0000 1.0000
vn -0.0000 1.0000 -0.0000
vt 0.187744 0.937744
vt 0.249756 0.937744
vt 0.249756 0.999756
vt 0.187744 0.999756
vt 0.062744 0.937744
vt 0.124756 0.937744
vt 0.124756 0.999756
vt 0.062744 0.999756
s 0
usemtl props
f 1/1/1 4/2/1 6/3/1 2/4/1
f 2/5/1 6/6/1 9/7/1 3/8/1
f 4/1/1 5/2/1 7/3/1 6/4/1
f 6/5/1 7/6/1 8/7/1 9/8/1
