# Blender 4.5.14 LTS
# www.blender.org
mtllib platform_edge.mtl
o platform_edge
v -1.000000 0.000000 1.000000 1.0000 1.0000 1.0000
v -1.000000 0.000000 0.000000 1.0000 1.0000 1.0000
v -1.000000 0.000000 -1.000000 1.0000 1.0000 1.0000
v 0.000000 0.000000 1.000000 1.0000 1.0000 1.0000
v 1.000000 0.000000 1.000000 1.0000 1.0000 1.0000
v 0.000000 0.000000 0.000000 1.0000 1.0000 1.0000
v 1.000000 0.000000 0.000000 1.0000 1.0000 1.0000
v 1.000000 0.000000 -1.000000 1.0000 1.0000 1.0000
v 0.000000 0.000000 -1.000000 1.0000 1.0000 1.0000
vn -0.0000 1.0000 -0.0000
vt 0.125244 0.937744
vt 0.187256 0.937744
vt 0.187256 0.999756
vt 0.125244 0.999756
vt 0.187744 0.937744
vt 0.249756 0.937744
vt 0.249756 0.999756
vt 0.187744 0.999756
s 0
usemtl props
f 1/1/1 4/2/1 6/3/1 2/4/1
f 2/5/1 6/6/1 9/7/1 3/8/1
f 4/1/1 5/2/1 7/3/1 6/4/1
f 6/5/1 7/6/1 8/7/1 9/8/1
o platform_edge_1
v 1.000000 -0.300000 1.000000 0.9921 0.9921 0.9921
v 1.000000 0.000000 1.000000 1.0000 1.0000 1.0000
v -1.000000 0.000000 1.000000 1.0000 1.0000 1.0000
v -1.000000 0.000000 0.600000 0.8509 0.8509 0.8509
v 1.000000 0.000000 0.600000 0.8470 0.8470 0.8470
v -1.000000 -0.300000 0.600000 0.9137 0.9137 0.9137
v 1.000000 -0.300000 0.600000 0.9137 0.9137 0.9137
v -1.000000 -0.300000 1.000000 0.9960 0.9960 0.9960
vn -0.0000 -0.0000 1.0000
vn -0.0000 -0.0000 -1.0000
vn -0.0000 -1.0000 -0.0000
vt 0.437744 0.937744
vt 0.499756 0.937744
vt 0.499756 0.947046
vt 0.437744 0.947046
vt 0.499756 0.950146
vt 0.437744 0.950146
s 0
usemtl props
f 17/9/2 10/10/2 11/11/2 12/12/2
f 16/9/3 15/10/3 13/11/3 14/12/3
f 15/9/4 16/10/4 10/13/4 17/14/4
o platform_edge_2
v -1.000000 -1.350000 0.600000 0.8470 0.8470 0.8470
v 1.000000 -1.350000 0.600000 0.8470 0.8470 0.8470
v 1.000000 -0.300000 0.600000 0.8706 0.8706 0.8706
v -1.000000 -0.300000 0.600000 0.8706 0.8706 0.8706
vn -0.0000 -0.0000 1.0000
vt 0.437744 0.937744
vt 0.499756 0.937744
vt 0.499756 0.970300
vt 0.437744 0.970300
s 0
usemtl props
f 18/15/5 19/16/5 20/17/5 21/18/5
