# Blender 4.5.14 LTS
# www.blender.org
mtllib station_name.mtl
o station_name
v -1.395000 2.855000 0.040000 0.9058 0.9058 0.9058
v -1.395000 2.945000 0.040000 0.9058 0.9058 0.9058
v -1.215000 2.855000 0.040000 0.8902 0.8902 0.8902
v -1.215000 2.945000 0.040000 0.9019 0.9019 0.9019
v -1.215000 2.945000 0.000000 0.8353 0.8353 0.8353
v -1.395000 2.945000 0.000000 0.8470 0.8470 0.8470
v -1.395000 2.855000 0.000000 0.8392 0.8392 0.8392
v -1.215000 2.855000 0.000000 0.7647 0.7647 0.7647
v -1.215000 2.765000 0.000000 0.7490 0.7490 0.7490
v -1.215000 2.765000 0.040000 0.8823 0.8823 0.8823
v -1.125000 2.855000 0.000000 0.8157 0.8157 0.8157
v -1.125000 2.855000 0.040000 0.8980 0.8980 0.8980
v -1.125000 2.765000 0.000000 0.7921 0.7921 0.7921
v -1.125000 2.765000 0.040000 0.8980 0.8980 0.8980
v -1.305000 2.675000 0.040000 0.9019 0.9019 0.9019
v -1.305000 2.765000 0.040000 0.8980 0.8980 0.8980
v -1.305000 2.675000 0.000000 0.8117 0.8117 0.8117
v -1.305000 2.765000 0.000000 0.8157 0.8157 0.8157
v -1.215000 2.675000 0.000000 0.7490 0.7490 0.7490
v -1.125000 2.675000 0.040000 0.8980 0.8980 0.8980
v -1.215000 2.675000 0.040000 0.8823 0.8823 0.8823
v -1.125000 2.585000 0.040000 0.8980 0.8980 0.8980
v -1.125000 2.585000 0.000000 0.8117 0.8117 0.8117
v -1.125000 2.675000 0.000000 0.7960 0.7960 0.7960
v -1.215000 2.585000 0.000000 0.7608 0.7608 0.7608
v -1.395000 2.495000 0.040000 0.9058 0.9058 0.9058
v -1.395000 2.495000 0.000000 0.8509 0.8509 0.8509
v -1.395000 2.585000 0.000000 0.8392 0.8392 0.8392
v -1.215000 2.495000 0.040000 0.9019 0.9019 0.9019
v -1.215000 2.585000 0.040000 0.8862 0.8862 0.8862
v -1.395000 2.585000 0.040000 0.9019 0.9019 0.9019
v -1.215000 2.495000 0.000000 0.8313 0.8313 0.8313
v -0.945000 2.855000 0.040000 0.8823 0.8823 0.8823
v -0.855000 2.855000 0.040000 0.8862 0.8862 0.8862
v -0.855000 2.945000 0.040000 0.9019 0.9019 0.9019
v -0.945000 2.945000 0.040000 0.9019 0.9019 0.9019
v -0.945000 2.945000 0.000000 0.8353 0.8353 0.8353
v -0.855000 2.945000 0.000000 0.8313 0.8313 0.8313
v -0.945000 2.855000 0.000000 0.7568 0.7568 0.7568
v -1.035000 2.855000 0.040000 0.9019 0.9019 0.9019
v -1.035000 2.855000 0.000000 0.8235 0.8235 0.8235
v -0.945000 2.765000 0.000000 0.7216 0.7216 0.7216
v -0.945000 2.765000 0.040000 0.8431 0.8431 0.8431
v -0.855000 2.765000 0.040000 0.8431 0.8431 0.8431
v -0.765000 2.765000 0.040000 0.8470 0.8470 0.8470
v -0.765000 2.765000 0.000000 0.7451 0.7451 0.7451
v -0.765000 2.855000 0.040000 0.8980 0.8980 0.8980
v -0.765000 2.855000 0.000000 0.8117 0.8117 0.8117
v -0.855000 2.855000 0.000000 0.7529 0.7529 0.7529
v -0.855000 2.765000 0.000000 0.7216 0.7216 0.7216
v -1.035000 2.765000 0.040000 0.8509 0.8509 0.8509
v -1.035000 2.765000 0.000000 0.7529 0.7529 0.7529
v -1.035000 2.675000 0.000000 0.7529 0.7529 0.7529
v -0.765000 2.675000 0.000000 0.7451 0.7451 0.7451
v -0.945000 2.675000 0.000000 0.7216 0.7216 0.7216
v -0.945000 2.675000 0.040000 0.8392 0.8392 0.8392
v -1.035000 2.675000 0.040000 0.8509 0.8509 0.8509
v -0.945000 2.585000 0.000000 0.7568 0.7568 0.7568
v -0.855000 2.585000 0.040000 0.8784 0.8784 0.8784
v -0.855000 2.675000 0.000000 0.7255 0.7255 0.7255
v -0.765000 2.585000 0.040000 0.8784 0.8784 0.8784
v -0.855000 2.675000 0.040000 0.8431 0.8431 0.8431
v -0.765000 2.675000 0.040000 0.8470 0.8470 0.8470
v -1.035000 2.495000 0.040000 0.9019 0.9019 0.9019
v -1.035000 2.495000 0.000000 0.8392 0.8392 0.8392
v -1.035000 2.585000 0.040000 0.8823 0.8823 0.8823
v -0.945000 2.585000 0.040000 0.8784 0.8784 0.8784
v -1.035000 2.585000 0.000000 0.7764 0.7764 0.7764
v -0.945000 2.495000 0.000000 0.8313 0.8313 0.8313
v -0.945000 2.495000 0.040000 0.9019 0.9019 0.9019
v -0.855000 2.585000 0.000000 0.7608 0.7608 0.7608
v -0.765000 2.495000 0.040000 0.9019 0.9019 0.9019
v -0.765000 2.585000 0.000000 0.7647 0.7647 0.7647
v -0.855000 2.495000 0.000000 0.8353 0.8353 0.8353
v -0.765000 2.495000 0.000000 0.8313 0.8313 0.8313
v -0.855000 2.495000 0.040000 0.9019 0.9019 0.9019
v -0.675000 2.945000 0.040000 0.9019 0.9019 0.9019
v -0.495000 2.945000 0.040000 0.9019 0.9019 0.9019
v -0.495000 2.945000 0.000000 0.8313 0.8313 0.8313
v -0.675000 2.945000 0.000000 0.8353 0.8353 0.8353
v -0.585000 2.765000 0.040000 0.8431 0.8431 0.8431
v -0.585000 2.855000 0.040000 0.8392 0.8392 0.8392
v -0.675000 2.855000 0.040000 0.8470 0.8470 0.8470
v -0.675000 2.765000 0.000000 0.7490 0.7490 0.7490
v -0.675000 2.855000 0.000000 0.7568 0.7568 0.7568
v -0.585000 2.765000 0.000000 0.7216 0.7216 0.7216
v -0.585000 2.855000 0.000000 0.7176 0.7176 0.7176
v -0.405000 2.765000 0.040000 0.8980 0.8980 0.8980
v -0.495000 2.855000 0.040000 0.8862 0.8862 0.8862
v -0.495000 2.765000 0.000000 0.7529 0.7529 0.7529
v -0.495000 2.855000 0.000000 0.7529 0.7529 0.7529
v -0.405000 2.855000 0.040000 0.8980 0.8980 0.8980
v -0.405000 2.855000 0.000000 0.8117 0.8117 0.8117
v -0.405000 2.765000 0.000000 0.8039 0.8039 0.8039
v -0.675000 2.765000 0.040000 0.8470 0.8470 0.8470
v -0.495000 2.675000 0.040000 0.8980 0.8980 0.8980
v -0.495000 2.675000 0.000000 0.8157 0.8157 0.8157
v -0.495000 2.765000 0.040000 0.8823 0.8823 0.8823
v -0.675000 2.675000 0.040000 0.8509 0.8509 0.8509
v -0.675000 2.675000 0.000000 0.7451 0.7451 0.7451
v -0.585000 2.675000 0.000000 0.7333 0.7333 0.7333
v -0.585000 2.675000 0.040000 0.8431 0.8431 0.8431
v -0.585000 2.585000 0.000000 0.7804 0.7804 0.7804
v -0.585000 2.495000 0.040000 0.9019 0.9019 0.9019
v -0.585000 2.585000 0.040000 0.8784 0.8784 0.8784
v -0.675000 2.495000 0.000000 0.8353 0.8353 0.8353
v -0.675000 2.495000 0.040000 0.9019 0.9019 0.9019
v -0.675000 2.585000 0.040000 0.8784 0.8784 0.8784
v -0.675000 2.585000 0.000000 0.7647 0.7647 0.7647
v -0.585000 2.495000 0.000000 0.8392 0.8392 0.8392
v -0.045000 2.855000 0.040000 0.8980 0.8980 0.8980
v -0.315000 2.945000 0.040000 0.9019 0.9019 0.9019
v -0.045000 2.855000 0.000000 0.8039 0.8039 0.8039
v -0.045000 2.945000 0.040000 0.9019 0.9019 0.9019
v -0.045000 2.945000 0.000000 0.8274 0.8274 0.8274
v -0.315000 2.945000 0.000000 0.8353 0.8353 0.8353
v -0.315000 2.855000 0.040000 0.8509 0.8509 0.8509
v -0.315000 2.855000 0.000000 0.7608 0.7608 0.7608
v -0.225000 2.855000 0.000000 0.7294 0.7294 0.7294
v -0.225000 2.855000 0.040000 0.8392 0.8392 0.8392
v -0.315000 2.765000 0.000000 0.7568 0.7568 0.7568
v -0.225000 2.765000 0.000000 0.7294 0.7294 0.7294
v -0.225000 2.765000 0.040000 0.8431 0.8431 0.8431
v -0.315000 2.765000 0.040000 0.8509 0.8509 0.8509
v -0.135000 2.765000 0.040000 0.8941 0.8941 0.8941
v -0.135000 2.675000 0.000000 0.7960 0.7960 0.7960
v -0.135000 2.765000 0.000000 0.7921 0.7921 0.7921
v -0.135000 2.675000 0.040000 0.8980 0.8980 0.8980
v -0.225000 2.585000 0.040000 0.8431 0.8431 0.8431
v -0.225000 2.675000 0.040000 0.8392 0.8392 0.8392
v -0.315000 2.675000 0.040000 0.8509 0.8509 0.8509
v -0.225000 2.585000 0.000000 0.7294 0.7294 0.7294
v -0.225000 2.675000 0.000000 0.7294 0.7294 0.7294
v -0.315000 2.675000 0.000000 0.7608 0.7608 0.7608
v -0.315000 2.585000 0.000000 0.7647 0.7647 0.7647
v -0.315000 2.495000 0.040000 0.9019 0.9019 0.9019
v -0.045000 2.495000 0.040000 0.9019 0.9019 0.9019
v -0.315000 2.495000 0.000000 0.8470 0.8470 0.8470
v -0.045000 2.585000 0.040000 0.8980 0.8980 0.8980
v -0.315000 2.585000 0.040000 0.8509 0.8509 0.8509
v -0.045000 2.585000 0.000000 0.8196 0.8196 0.8196
v -0.045000 2.495000 0.000000 0.8392 0.8392 0.8392
v 0.135000 2.945000 0.040000 0.9019 0.9019 0.9019
v 0.045000 2.945000 0.040000 0.9019 0.9019 0.9019
v 0.135000 2.945000 0.000000 0.8274 0.8274 0.8274
v 0.045000 2.945000 0.000000 0.8313 0.8313 0.8313
v 0.315000 2.855000 0.000000 0.7647 0.7647 0.7647
v 0.225000 2.945000 0.040000 0.9019 0.9019 0.9019
v 0.315000 2.945000 0.040000 0.9019 0.9019 0.9019
v 0.315000 2.945000 0.000000 0.8274 0.8274 0.8274
v 0.225000 2.945000 0.000000 0.8313 0.8313 0.8313
v 0.315000 2.855000 0.040000 0.8745 0.8745 0.8745
v 0.225000 2.855000 0.040000 0.8784 0.8784 0.8784
v 0.135000 2.765000 0.040000 0.8431 0.8431 0.8431
v 0.135000 2.855000 0.040000 0.8745 0.8745 0.8745
v 0.045000 2.765000 0.000000 0.7608 0.7608 0.7608
v 0.045000 2.855000 0.040000 0.8784 0.8784 0.8784
v 0.045000 2.855000 0.000000 0.7725 0.7725 0.7725
v 0.135000 2.765000 0.000000 0.7255 0.7255 0.7255
v 0.135000 2.855000 0.000000 0.7608 0.7608 0.7608
v 0.225000 2.855000 0.000000 0.7608 0.7608 0.7608
v 0.225000 2.765000 0.000000 0.7255 0.7255 0.7255
v 0.225000 2.765000 0.040000 0.8431 0.8431 0.8431
v 0.045000 2.675000 0.000000 0.8235 0.8235 0.8235
v 0.045000 2.765000 0.040000 0.8509 0.8509 0.8509
v 0.315000 2.675000 0.040000 0.8470 0.8470 0.8470
v 0.315000 2.765000 0.000000 0.7451 0.7451 0.7451
v 0.315000 2.765000 0.040000 0.8470 0.8470 0.8470
v 0.045000 2.675000 0.040000 0.9019 0.9019 0.9019
v 0.225000 2.675000 0.040000 0.8431 0.8431 0.8431
v 0.315000 2.585000 0.040000 0.8784 0.8784 0.8784
v 0.315000 2.675000 0.000000 0.7451 0.7451 0.7451
v 0.225000 2.675000 0.000000 0.7333 0.7333 0.7333
v 0.225000 2.585000 0.000000 0.7804 0.7804 0.7804
v 0.315000 2.495000 0.000000 0.8313 0.8313 0.8313
v 0.315000 2.585000 0.000000 0.7647 0.7647 0.7647
v 0.225000 2.585000 0.040000 0.8823 0.8823 0.8823
v 0.225000 2.495000 0.000000 0.8470 0.8470 0.8470
v 0.315000 2.495000 0.040000 0.9019 0.9019 0.9019
v 0.225000 2.495000 0.040000 0.9019 0.9019 0.9019
v 0.405000 2.855000 0.000000 0.7647 0.7647 0.7647
v 0.405000 2.855000 0.040000 0.8784 0.8784 0.8784
v 0.405000 2.945000 0.000000 0.8313 0.8313 0.8313
v 0.495000 2.855000 0.000000 0.7608 0.7608 0.7608
v 0.405000 2.945000 0.040000 0.9019 0.9019 0.9019
v 0.495000 2.945000 0.040000 0.9019 0.9019 0.9019
v 0.495000 2.945000 0.000000 0.8274 0.8274 0.8274
v 0.585000 2.855000 0.040000 0.8784 0.8784 0.8784
v 0.675000 2.945000 0.000000 0.8313 0.8313 0.8313
v 0.585000 2.945000 0.040000 0.9019 0.9019 0.9019
v 0.675000 2.945000 0.040000 0.9019 0.9019 0.9019
v 0.585000 2.945000 0.000000 0.8313 0.8313 0.8313
v 0.585000 2.855000 0.000000 0.7608 0.7608 0.7608
v 0.675000 2.855000 0.040000 0.8784 0.8784 0.8784
v 0.495000 2.765000 0.040000 0.8431 0.8431 0.8431
v 0.495000 2.765000 0.000000 0.7255 0.7255 0.7255
v 0.495000 2.855000 0.040000 0.8745 0.8745 0.8745
v 0.405000 2.765000 0.000000 0.7451 0.7451 0.7451
v 0.585000 2.765000 0.040000 0.8431 0.8431 0.8431
v 0.675000 2.765000 0.040000 0.8470 0.8470 0.8470
v 0.585000 2.765000 0.000000 0.7255 0.7255 0.7255
v 0.675000 2.855000 0.000000 0.7725 0.7725 0.7725
v 0.675000 2.675000 0.000000 0.7451 0.7451 0.7451
v 0.405000 2.765000 0.040000 0.8470 0.8470 0.8470
v 0.675000 2.765000 0.000000 0.7490 0.7490 0.7490
v 0.675000 2.675000 0.040000 0.8470 0.8470 0.8470
v 0.495000 2.675000 0.040000 0.8392 0.8392 0.8392
v 0.405000 2.585000 0.000000 0.7647 0.7647 0.7647
v 0.495000 2.675000 0.000000 0.7216 0.7216 0.7216
v 0.405000 2.675000 0.040000 0.8509 0.8509 0.8509
v 0.405000 2.675000 0.000000 0.7451 0.7451 0.7451
v 0.495000 2.585000 0.040000 0.8784 0.8784 0.8784
v 0.405000 2.585000 0.040000 0.8784 0.8784 0.8784
v 0.585000 2.585000 0.040000 0.8784 0.8784 0.8784
v 0.585000 2.675000 0.040000 0.8431 0.8431 0.8431
v 0.675000 2.585000 0.000000 0.7647 0.7647 0.7647
v 0.585000 2.675000 0.000000 0.7255 0.7255 0.7255
v 0.585000 2.585000 0.000000 0.7608 0.7608 0.7608
v 0.495000 2.495000 0.040000 0.9019 0.9019 0.9019
v 0.405000 2.495000 0.000000 0.8353 0.8353 0.8353
v 0.405000 2.495000 0.040000 0.9019 0.9019 0.9019
v 0.495000 2.585000 0.000000 0.7568 0.7568 0.7568
v 0.495000 2.495000 0.000000 0.8313 0.8313 0.8313
v 0.675000 2.585000 0.040000 0.8784 0.8784 0.8784
v 0.585000 2.495000 0.040000 0.9019 0.9019 0.9019
v 0.585000 2.495000 0.000000 0.8353 0.8353 0.8353
v 0.675000 2.495000 0.000000 0.8313 0.8313 0.8313
v 0.675000 2.495000 0.040000 0.9019 0.9019 0.9019
v 0.855000 2.945000 0.040000 0.9019 0.9019 0.9019
v 0.855000 2.945000 0.000000 0.8353 0.8353 0.8353
v 0.945000 2.945000 0.000000 0.8353 0.8353 0.8353
v 0.945000 2.945000 0.040000 0.9019 0.9019 0.9019
v 0.855000 2.855000 0.000000 0.7529 0.7529 0.7529
v 0.945000 2.855000 0.040000 0.8862 0.8862 0.8862
v 0.765000 2.765000 0.000000 0.7451 0.7451 0.7451
v 0.765000 2.765000 0.040000 0.8470 0.8470 0.8470
v 0.855000 2.765000 0.000000 0.7216 0.7216 0.7216
v 0.855000 2.855000 0.040000 0.8823 0.8823 0.8823
v 0.765000 2.855000 0.040000 0.8980 0.8980 0.8980
v 0.765000 2.855000 0.000000 0.8117 0.8117 0.8117
v 0.855000 2.765000 0.040000 0.8431 0.8431 0.8431
v 0.945000 2.765000 0.040000 0.8431 0.8431 0.8431
v 1.035000 2.765000 0.040000 0.8470 0.8470 0.8470
v 1.035000 2.855000 0.040000 0.8980 0.8980 0.8980
v 0.945000 2.765000 0.000000 0.7216 0.7216 0.7216
v 1.035000 2.855000 0.000000 0.8157 0.8157 0.8157
v 0.945000 2.855000 0.000000 0.7568 0.7568 0.7568
v 1.035000 2.765000 0.000000 0.7529 0.7529 0.7529
v 0.765000 2.675000 0.000000 0.7451 0.7451 0.7451
v 1.035000 2.675000 0.000000 0.7490 0.7490 0.7490
v 1.035000 2.675000 0.040000 0.8470 0.8470 0.8470
v 0.765000 2.675000 0.040000 0.8509 0.8509 0.8509
v 0.855000 2.585000 0.000000 0.7568 0.7568 0.7568
v 0.855000 2.675000 0.040000 0.8392 0.8392 0.8392
v 0.855000 2.675000 0.000000 0.7216 0.7216 0.7216
v 0.765000 2.585000 0.000000 0.7647 0.7647 0.7647
v 0.945000 2.675000 0.040000 0.8431 0.8431 0.8431
v 0.945000 2.675000 0.000000 0.7255 0.7255 0.7255
v 1.035000 2.585000 0.040000 0.8784 0.8784 0.8784
v 0.945000 2.585000 0.040000 0.8784 0.8784 0.8784
v 0.855000 2.585000 0.040000 0.8784 0.8784 0.8784
v 0.855000 2.495000 0.000000 0.8313 0.8313 0.8313
v 0.765000 2.585000 0.040000 0.8784 0.8784 0.8784
v 0.765000 2.495000 0.000000 0.8353 0.8353 0.8353
v 0.855000 2.495000 0.040000 0.9019 0.9019 0.9019
v 0.765000 2.495000 0.040000 0.9019 0.9019 0.9019
v 1.035000 2.495000 0.040000 0.9019 0.9019 0.9019
v 0.945000 2.495000 0.000000 0.8353 0.8353 0.8353
v 0.945000 2.495000 0.040000 0.9019 0.9019 0.9019
v 0.945000 2.585000 0.000000 0.7608 0.7608 0.7608
v 1.035000 2.495000 0.000000 0.8313 0.8313 0.8313
v 1.035000 2.585000 0.000000 0.7647 0.7647 0.7647
v 1.215000 2.945000 0.040000 0.9019 0.9019 0.9019
v 1.395000 2.855000 0.000000 0.7725 0.7725 0.7725
v 1.395000 2.945000 0.040000 0.9058 0.9058 0.9058
v 1.395000 2.945000 0.000000 0.8431 0.8431 0.8431
v 1.215000 2.945000 0.000000 0.8353 0.8353 0.8353
v 1.395000 2.855000 0.040000 0.8509 0.8509 0.8509
v 1.125000 2.855000 0.040000 0.9019 0.9019 0.9019
v 1.125000 2.765000 0.000000 0.7921 0.7921 0.7921
v 1.125000 2.765000 0.040000 0.8980 0.8980 0.8980
v 1.215000 2.765000 0.000000 0.7490 0.7490 0.7490
v 1.215000 2.855000 0.040000 0.8862 0.8862 0.8862
v 1.215000 2.855000 0.000000 0.7568 0.7568 0.7568
v 1.125000 2.855000 0.000000 0.8235 0.8235 0.8235
v 1.305000 2.765000 0.040000 0.8431 0.8431 0.8431
v 1.305000 2.765000 0.000000 0.7216 0.7216 0.7216
v 1.305000 2.855000 0.040000 0.8431 0.8431 0.8431
v 1.305000 2.855000 0.000000 0.7216 0.7216 0.7216
v 1.395000 2.765000 0.000000 0.7725 0.7725 0.7725
v 1.215000 2.765000 0.040000 0.8823 0.8823 0.8823
v 1.215000 2.675000 0.000000 0.7529 0.7529 0.7529
v 1.215000 2.675000 0.040000 0.8862 0.8862 0.8862
v 1.395000 2.765000 0.040000 0.8509 0.8509 0.8509
v 1.395000 2.675000 0.000000 0.7725 0.7725 0.7725
v 1.125000 2.675000 0.040000 0.8980 0.8980 0.8980
v 1.125000 2.585000 0.000000 0.7647 0.7647 0.7647
v 1.125000 2.585000 0.040000 0.8784 0.8784 0.8784
v 1.125000 2.675000 0.000000 0.7960 0.7960 0.7960
v 1.215000 2.585000 0.040000 0.8784 0.8784 0.8784
v 1.215000 2.585000 0.000000 0.7568 0.7568 0.7568
v 1.305000 2.585000 0.000000 0.7608 0.7608 0.7608
v 1.305000 2.675000 0.040000 0.8431 0.8431 0.8431
v 1.395000 2.675000 0.040000 0.8509 0.8509 0.8509
v 1.305000 2.675000 0.000000 0.7255 0.7255 0.7255
v 1.395000 2.585000 0.000000 0.7960 0.7960 0.7960
v 1.125000 2.495000 0.040000 0.9019 0.9019 0.9019
v 1.215000 2.495000 0.000000 0.8313 0.8313 0.8313
v 1.125000 2.495000 0.000000 0.8353 0.8353 0.8353
v 1.215000 2.495000 0.040000 0.9019 0.9019 0.9019
v 1.395000 2.495000 0.040000 0.9058 0.9058 0.9058
v 1.395000 2.585000 0.040000 0.8823 0.8823 0.8823
v 1.305000 2.495000 0.000000 0.8353 0.8353 0.8353
v 1.305000 2.495000 0.040000 0.9019 0.9019 0.9019
v 1.305000 2.585000 0.040000 0.8784 0.8784 0.8784
v 1.395000 2.495000 0.000000 0.8470 0.8470 0.8470
vn -0.0000 -0.0000 1.0000
vn -1.0000 -0.0000 -0.0000
vn 1.0000 -0.0000 -0.0000
vn -0.0000 1.0000 -0.0000
vn -0.0000 -1.0000 -0.0000
vt 0.797119 0.992432
vt 0.804443 0.992432
vt 0.804443 0.996094
vt 0.797119 0.996094
vt 0.799463 0.992432
vt 0.799463 0.997705
vt 0.797119 0.997705
vt 0.804443 0.994059
vt 0.797119 0.994059
vt 0.802393 0.992432
vt 0.802393 0.997705
vt 0.802393 0.994775
vt 0.797119 0.994775
vt 0.804443 0.994873
vt 0.797119 0.994873
vt 0.804443 0.993517
vt 0.797119 0.993517
s 0
usemtl props
f 1/1/1 3/2/1 4/3/1 2/4/1
f 7/1/2 1/5/2 2/6/2 6/7/2
f 3/1/3 8/5/3 5/6/3 4/7/3
f 2/1/4 4/2/4 5/8/4 6/9/4
f 7/1/5 8/2/5 3/8/5 1/9/5
f 10/1/1 14/10/1 12/11/1 3/7/1
f 9/1/2 10/5/2 3/6/2 8/7/2
f 14/1/3 13/5/3 11/6/3 12/7/3
f 3/1/4 12/10/4 11/12/4 8/13/4
f 9/1/5 13/10/5 14/12/5 10/13/5
f 15/1/1 21/10/1 10/11/1 16/7/1
f 17/1/2 15/5/2 16/6/2 18/7/2
f 21/1/3 19/5/3 9/6/3 10/7/3
f 16/1/4 10/10/4 9/12/4 18/13/4
f 17/1/5 19/10/5 21/12/5 15/13/5
f 30/1/1 22/10/1 20/11/1 21/7/1
f 25/1/2 30/5/2 21/6/2 19/7/2
f 22/1/3 23/5/3 24/6/3 20/7/3
f 21/1/4 20/10/4 24/12/4 19/13/4
f 25/1/5 23/10/5 22/12/5 30/13/5
f 26/1/1 29/2/1 30/3/1 31/4/1
f 27/1/2 26/5/2 31/6/2 28/7/2
f 29/1/3 32/5/3 25/6/3 30/7/3
f 31/1/4 30/2/4 25/8/4 28/9/4
f 27/1/5 32/2/5 29/8/5 26/9/5
f 33/1/1 34/10/1 35/11/1 36/7/1
f 39/1/2 33/5/2 36/6/2 37/7/2
f 34/1/3 49/5/3 38/6/3 35/7/3
f 36/1/4 35/10/4 38/12/4 37/13/4
f 39/1/5 49/10/5 34/12/5 33/13/5
f 51/1/1 43/10/1 33/11/1 40/7/1
f 52/1/2 51/5/2 40/6/2 41/7/2
f 43/1/3 42/5/3 39/6/3 33/7/3
f 40/1/4 33/10/4 39/12/4 41/13/4
f 52/1/5 42/10/5 43/12/5 51/13/5
f 44/1/1 45/10/1 47/11/1 34/7/1
f 50/1/2 44/5/2 34/6/2 49/7/2
f 45/1/3 46/5/3 48/6/3 47/7/3
f 34/1/4 47/10/4 48/12/4 49/13/4
f 50/1/5 46/10/5 45/12/5 44/13/5
f 57/1/1 63/2/1 45/14/1 51/15/1
f 53/1/2 57/5/2 51/6/2 52/7/2
f 63/1/3 54/5/3 46/6/3 45/7/3
f 51/1/4 45/2/4 46/16/4 52/17/4
f 53/1/5 54/2/5 63/16/5 57/17/5
f 66/1/1 67/10/1 56/11/1 57/7/1
f 68/1/2 66/5/2 57/6/2 53/7/2
f 67/1/3 58/5/3 55/6/3 56/7/3
f 57/1/4 56/10/4 55/12/4 53/13/4
f 68/1/5 58/10/5 67/12/5 66/13/5
f 59/1/1 61/10/1 63/11/1 62/7/1
f 71/1/2 59/5/2 62/6/2 60/7/2
f 61/1/3 73/5/3 54/6/3 63/7/3
f 62/1/4 63/10/4 54/12/4 60/13/4
f 71/1/5 73/10/5 61/12/5 59/13/5
f 64/1/1 70/10/1 67/11/1 66/7/1
f 65/1/2 64/5/2 66/6/2 68/7/2
f 70/1/3 69/5/3 58/6/3 67/7/3
f 65/1/5 69/10/5 70/12/5 64/13/5
f 76/1/1 72/10/1 61/11/1 59/7/1
f 74/1/2 76/5/2 59/6/2 71/7/2
f 72/1/3 75/5/3 73/6/3 61/7/3
f 74/1/5 75/10/5 72/12/5 76/13/5
f 83/1/1 89/2/1 78/3/1 77/4/1
f 85/1/2 83/5/2 77/6/2 80/7/2
f 89/1/3 91/5/3 79/6/3 78/7/3
f 77/1/4 78/2/4 79/8/4 80/9/4
f 85/1/5 91/2/5 89/8/5 83/9/5
f 95/1/1 81/10/1 82/11/1 83/7/1
f 84/1/2 95/5/2 83/6/2 85/7/2
f 81/1/3 86/5/3 87/6/3 82/7/3
f 83/1/4 82/10/4 87/12/4 85/13/4
f 84/1/5 86/10/5 81/12/5 95/13/5
f 98/1/1 88/10/1 92/11/1 89/7/1
f 90/1/2 98/5/2 89/6/2 91/7/2
f 88/1/3 94/5/3 93/6/3 92/7/3
f 89/1/4 92/10/4 93/12/4 91/13/4
f 90/1/5 94/10/5 88/12/5 98/13/5
f 99/1/1 96/2/1 98/3/1 95/4/1
f 100/1/2 99/5/2 95/6/2 84/7/2
f 96/1/3 97/5/3 90/6/3 98/7/3
f 95/1/4 98/2/4 90/8/4 84/9/4
f 100/1/5 97/2/5 96/8/5 99/9/5
f 108/1/1 105/10/1 102/11/1 99/7/1
f 109/1/2 108/5/2 99/6/2 100/7/2
f 105/1/3 103/5/3 101/6/3 102/7/3
f 99/1/4 102/10/4 101/12/4 100/13/4
f 109/1/5 103/10/5 105/12/5 108/13/5
f 107/1/1 104/10/1 105/11/1 108/7/1
f 106/1/2 107/5/2 108/6/2 109/7/2
f 104/1/3 110/5/3 103/6/3 105/7/3
f 106/1/5 110/10/5 104/12/5 107/13/5
f 117/1/1 111/2/1 114/14/1 112/15/1
f 118/1/2 117/5/2 112/6/2 116/7/2
f 111/1/3 113/5/3 115/6/3 114/7/3
f 112/1/4 114/2/4 115/16/4 116/17/4
f 118/1/5 113/2/5 111/16/5 117/17/5
f 124/1/1 123/10/1 120/11/1 117/7/1
f 121/1/2 124/5/2 117/6/2 118/7/2
f 123/1/3 122/5/3 119/6/3 120/7/3
f 117/1/4 120/10/4 119/12/4 118/13/4
f 121/1/5 122/10/5 123/12/5 124/13/5
f 131/1/1 128/2/1 125/3/1 124/4/1
f 134/1/2 131/5/2 124/6/2 121/7/2
f 128/1/3 126/5/3 127/6/3 125/7/3
f 124/1/4 125/2/4 127/8/4 121/9/4
f 134/1/5 126/2/5 128/8/5 131/9/5
f 140/1/1 129/10/1 130/11/1 131/7/1
f 135/1/2 140/5/2 131/6/2 134/7/2
f 129/1/3 132/5/3 133/6/3 130/7/3
f 131/1/4 130/10/4 133/12/4 134/13/4
f 135/1/5 132/10/5 129/12/5 140/13/5
f 136/1/1 137/2/1 139/14/1 140/15/1
f 138/1/2 136/5/2 140/6/2 135/7/2
f 137/1/3 142/5/3 141/6/3 139/7/3
f 140/1/4 139/2/4 141/16/4 135/17/4
f 138/1/5 142/2/5 137/16/5 136/17/5
f 157/1/1 155/10/1 143/11/1 144/7/1
f 158/1/2 157/5/2 144/6/2 146/7/2
f 155/1/3 160/5/3 145/6/3 143/7/3
f 144/1/4 143/10/4 145/12/4 146/13/4
f 158/1/5 160/10/5 155/12/5 157/13/5
f 153/1/1 152/10/1 149/11/1 148/7/1
f 161/1/2 153/5/2 148/6/2 151/7/2
f 152/1/3 147/5/3 150/6/3 149/7/3
f 148/1/4 149/10/4 150/12/4 151/13/4
f 161/1/5 147/10/5 152/12/5 153/13/5
f 165/1/1 154/10/1 155/11/1 157/7/1
f 156/1/2 165/5/2 157/6/2 158/7/2
f 154/1/3 159/5/3 160/6/3 155/7/3
f 156/1/5 159/10/5 154/12/5 165/13/5
f 163/1/1 168/10/1 152/11/1 153/7/1
f 162/1/2 163/5/2 153/6/2 161/7/2
f 168/1/3 167/5/3 147/6/3 152/7/3
f 162/1/5 167/10/5 168/12/5 163/13/5
f 169/1/1 166/2/1 168/14/1 165/15/1
f 164/1/2 169/5/2 165/6/2 156/7/2
f 166/1/3 172/5/3 167/6/3 168/7/3
f 165/1/4 168/2/4 167/16/4 156/17/4
f 164/1/5 172/2/5 166/16/5 169/17/5
f 177/1/1 171/10/1 166/11/1 170/7/1
f 174/1/2 177/5/2 170/6/2 173/7/2
f 171/1/3 176/5/3 172/6/3 166/7/3
f 170/1/4 166/10/4 172/12/4 173/13/4
f 174/1/5 176/10/5 171/12/5 177/13/5
f 180/1/1 179/10/1 171/11/1 177/7/1
f 178/1/2 180/5/2 177/6/2 174/7/2
f 179/1/3 175/5/3 176/6/3 171/7/3
f 178/1/5 175/10/5 179/12/5 180/13/5
f 182/1/1 197/10/1 186/11/1 185/7/1
f 181/1/2 182/5/2 185/6/2 183/7/2
f 197/1/3 184/5/3 187/6/3 186/7/3
f 185/1/4 186/10/4 187/12/4 183/13/4
f 181/1/5 184/10/5 197/12/5 182/13/5
f 188/1/1 194/10/1 191/11/1 190/7/1
f 193/1/2 188/5/2 190/6/2 192/7/2
f 194/1/3 202/5/3 189/6/3 191/7/3
f 190/1/4 191/10/4 189/12/4 192/13/4
f 193/1/5 202/10/5 194/12/5 188/13/5
f 204/1/1 195/10/1 197/11/1 182/7/1
f 198/1/2 204/5/2 182/6/2 181/7/2
f 195/1/3 196/5/3 184/6/3 197/7/3
f 198/1/5 196/10/5 195/12/5 204/13/5
f 199/1/1 200/10/1 194/11/1 188/7/1
f 201/1/2 199/5/2 188/6/2 193/7/2
f 200/1/3 205/5/3 202/6/3 194/7/3
f 201/1/5 205/10/5 200/12/5 199/13/5
f 210/1/1 206/2/1 200/14/1 204/15/1
f 211/1/2 210/5/2 204/6/2 198/7/2
f 206/1/3 203/5/3 205/6/3 200/7/3
f 204/1/4 200/2/4 205/16/4 198/17/4
f 211/1/5 203/2/5 206/16/5 210/17/5
f 213/1/1 212/10/1 207/11/1 210/7/1
f 208/1/2 213/5/2 210/6/2 211/7/2
f 212/1/3 222/5/3 209/6/3 207/7/3
f 210/1/4 207/10/4 209/12/4 211/13/4
f 208/1/5 222/10/5 212/12/5 213/13/5
f 214/1/1 224/10/1 206/11/1 215/7/1
f 218/1/2 214/5/2 215/6/2 217/7/2
f 224/1/3 216/5/3 203/6/3 206/7/3
f 215/1/4 206/10/4 203/12/4 217/13/4
f 218/1/5 216/10/5 224/12/5 214/13/5
f 221/1/1 219/10/1 212/11/1 213/7/1
f 220/1/2 221/5/2 213/6/2 208/7/2
f 219/1/3 223/5/3 222/6/3 212/7/3
f 220/1/5 223/10/5 219/12/5 221/13/5
f 225/1/1 228/10/1 224/11/1 214/7/1
f 226/1/2 225/5/2 214/6/2 218/7/2
f 228/1/3 227/5/3 216/6/3 224/7/3
f 226/1/5 227/10/5 228/12/5 225/13/5
f 238/1/1 234/10/1 232/11/1 229/7/1
f 233/1/2 238/5/2 229/6/2 230/7/2
f 234/1/3 247/5/3 231/6/3 232/7/3
f 229/1/4 232/10/4 231/12/4 230/13/4
f 233/1/5 247/10/5 234/12/5 238/13/5
f 236/1/1 241/10/1 238/11/1 239/7/1
f 235/1/2 236/5/2 239/6/2 240/7/2
f 241/1/3 237/5/3 233/6/3 238/7/3
f 239/1/4 238/10/4 233/12/4 240/13/4
f 235/1/5 237/10/5 241/12/5 236/13/5
f 242/1/1 243/10/1 244/11/1 234/7/1
f 245/1/2 242/5/2 234/6/2 247/7/2
f 243/1/3 248/5/3 246/6/3 244/7/3
f 234/1/4 244/10/4 246/12/4 247/13/4
f 245/1/5 248/10/5 243/12/5 242/13/5
f 252/1/1 251/2/1 243/14/1 236/15/1
f 249/1/2 252/5/2 236/6/2 235/7/2
f 251/1/3 250/5/3 248/6/3 243/7/3
f 236/1/4 243/2/4 248/16/4 235/17/4
f 249/1/5 250/2/5 251/16/5 252/17/5
f 263/1/1 261/10/1 254/11/1 252/7/1
f 256/1/2 263/5/2 252/6/2 249/7/2
f 261/1/3 253/5/3 255/6/3 254/7/3
f 252/1/4 254/10/4 255/12/4 249/13/4
f 256/1/5 253/10/5 261/12/5 263/13/5
f 260/1/1 259/10/1 251/11/1 257/7/1
f 270/1/2 260/5/2 257/6/2 258/7/2
f 259/1/3 272/5/3 250/6/3 251/7/3
f 257/1/4 251/10/4 250/12/4 258/13/4
f 270/1/5 272/10/5 259/12/5 260/13/5
f 266/1/1 265/10/1 261/11/1 263/7/1
f 264/1/2 266/5/2 263/6/2 256/7/2
f 265/1/3 262/5/3 253/6/3 261/7/3
f 264/1/5 262/10/5 265/12/5 266/13/5
f 269/1/1 267/10/1 259/11/1 260/7/1
f 268/1/2 269/5/2 260/6/2 270/7/2
f 267/1/3 271/5/3 272/6/3 259/7/3
f 268/1/5 271/10/5 267/12/5 269/13/5
f 283/1/1 278/2/1 275/3/1 273/4/1
f 284/1/2 283/5/2 273/6/2 277/7/2
f 278/1/3 274/5/3 276/6/3 275/7/3
f 273/1/4 275/2/4 276/8/4 277/9/4
f 284/1/5 274/2/5 278/8/5 283/9/5
f 281/1/1 291/10/1 283/11/1 279/7/1
f 280/1/2 281/5/2 279/6/2 285/7/2
f 291/1/3 282/5/3 284/6/3 283/7/3
f 279/1/4 283/10/4 284/12/4 285/13/4
f 280/1/5 282/10/5 291/12/5 281/13/5
f 286/1/1 294/10/1 278/11/1 288/7/1
f 287/1/2 286/5/2 288/6/2 289/7/2
f 294/1/3 290/5/3 274/6/3 278/7/3
f 288/1/4 278/10/4 274/12/4 289/13/4
f 287/1/5 290/10/5 294/12/5 286/13/5
f 293/1/1 304/2/1 294/3/1 291/4/1
f 292/1/2 293/5/2 291/6/2 282/7/2
f 304/1/3 295/5/3 290/6/3 294/7/3
f 291/1/4 294/2/4 290/8/4 282/9/4
f 292/1/5 295/2/5 304/8/5 293/9/5
f 298/1/1 300/10/1 293/11/1 296/7/1
f 297/1/2 298/5/2 296/6/2 299/7/2
f 300/1/3 301/5/3 292/6/3 293/7/3
f 296/1/4 293/10/4 292/12/4 299/13/4
f 297/1/5 301/10/5 300/12/5 298/13/5
f 315/1/1 312/10/1 304/11/1 303/7/1
f 302/1/2 315/5/2 303/6/2 305/7/2
f 312/1/3 306/5/3 295/6/3 304/7/3
f 303/1/4 304/10/4 295/12/4 305/13/4
f 302/1/5 306/10/5 312/12/5 315/13/5
f 307/1/1 310/10/1 300/11/1 298/7/1
f 309/1/2 307/5/2 298/6/2 297/7/2
f 310/1/3 308/5/3 301/6/3 300/7/3
f 309/1/5 308/10/5 310/12/5 307/13/5
f 314/1/1 311/10/1 312/11/1 315/7/1
f 313/1/2 314/5/2 315/6/2 302/7/2
f 311/1/3 316/5/3 306/6/3 312/7/3
f 313/1/5 316/10/5 311/12/5 314/13/5
