# Blender 4.5.14 LTS
# www.blender.org
mtllib track_wall_vent.mtl
o track_wall_vent
v -1.000000 0.000000 0.100000 0.8470 0.8470 0.8470
v -1.000000 1.000000 0.100000 1.0000 1.0000 1.0000
v -1.000000 1.000000 -0.100000 1.0000 1.0000 1.0000
v -1.000000 0.000000 -0.100000 0.8509 0.8509 0.8509
v -1.000000 2.000000 0.100000 1.0000 1.0000 1.0000
v -1.000000 3.000000 0.100000 1.0000 1.0000 1.0000
v -1.000000 2.000000 -0.100000 1.0000 1.0000 1.0000
v -1.000000 4.000000 0.100000 1.0000 1.0000 1.0000
v -1.000000 3.000000 -0.100000 1.0000 1.0000 1.0000
v -1.000000 5.000000 0.100000 1.0000 1.0000 1.0000
v -1.000000 5.000000 -0.100000 1.0000 1.0000 1.0000
v -1.000000 4.000000 -0.100000 1.0000 1.0000 1.0000
v -1.000000 5.350000 -0.100000 1.0000 1.0000 1.0000
v 0.000000 0.000000 0.100000 0.8470 0.8470 0.8470
v 1.000000 0.000000 0.100000 0.8470 0.8470 0.8470
v 0.000000 1.000000 -0.100000 1.0000 1.0000 1.0000
v 1.000000 1.000000 -0.100000 1.0000 1.0000 1.0000
v 1.000000 0.000000 -0.100000 0.8509 0.8509 0.8509
v 0.000000 0.000000 -0.100000 0.8509 0.8509 0.8509
v 0.000000 1.000000 0.100000 1.0000 1.0000 1.0000
v 1.000000 1.000000 0.100000 1.0000 1.0000 1.0000
v 0.000000 2.000000 -0.100000 1.0000 1.0000 1.0000
v 1.000000 2.000000 -0.100000 1.0000 1.0000 1.0000
v 0.000000 2.000000 0.100000 1.0000 1.0000 1.0000
v 1.000000 2.000000 0.100000 1.0000 1.0000 1.0000
v 0.000000 3.000000 0.100000 1.0000 1.0000 1.0000
v 0.000000 3.000000 -0.100000 1.0000 1.0000 1.0000
v 1.000000 3.000000 0.100000 1.0000 1.0000 1.0000
v 1.000000 4.000000 0.100000 1.0000 1.0000 1.0000
v 0.000000 4.000000 0.100000 0.7020 0.7020 0.7020
v 1.000000 3.000000 -0.100000 1.0000 1.0000 1.0000
v 1.000000 5.000000 0.100000 1.0000 1.0000 1.0000
v 0.000000 5.000000 0.100000 1.0000 1.0000 1.0000
v 0.000000 5.000000 -0.100000 1.0000 1.0000 1.0000
v 1.000000 5.000000 -0.100000 1.0000 1.0000 1.0000
v 1.000000 4.000000 -0.100000 1.0000 1.0000 1.0000
v 0.000000 4.000000 -0.100000 1.0000 1.0000 1.0000
v -1.000000 5.350000 0.100000 1.0000 1.0000 1.0000
v 0.000000 5.350000 0.100000 1.0000 1.0000 1.0000
v 1.000000 5.350000 0.100000 1.0000 1.0000 1.0000
v 1.000000 5.350000 -0.100000 1.0000 1.0000 1.0000
v 0.000000 5.350000 -0.100000 1.0000 1.0000 1.0000
vn -0.0000 -0.0000 1.0000
vn -0.0000 -0.0000 -1.0000
vn -0.0000 1.0000 -0.0000
vt 0.437744 0.937744
vt 0.499756 0.937744
vt 0.499756 0.999756
vt 0.437744 0.999756
vt 0.500244 0.937744
vt 0.562256 0.937744
vt 0.562256 0.999756
vt 0.500244 0.999756
vt 0.312744 0.937744
vt 0.374756 0.937744
vt 0.374756 0.999756
vt 0.312744 0.999756
vt 0.374756 0.959448
vt 0.312744 0.959448
vt 0.499756 0.959448
vt 0.437744 0.959448
vt 0.374756 0.950146
vt 0.312744 0.950146
s 0
usemtl props
f 1/1/1 14/2/1 20/3/1 2/4/1
f 3/3/2 16/4/2 19/1/2 4/2/2
f 2/5/1 20/6/1 24/7/1 5/8/1
f 7/3/2 22/4/2 16/1/2 3/2/2
f 5/9/1 24/10/1 26/11/1 6/12/1
f 9/3/2 27/4/2 22/1/2 7/2/2
f 6/9/1 26/10/1 30/11/1 8/12/1
f 12/3/2 37/4/2 27/1/2 9/2/2
f 8/9/1 30/10/1 33/11/1 10/12/1
f 11/3/2 34/4/2 37/1/2 12/2/2
f 10/9/1 33/10/1 39/13/1 38/14/1
f 13/15/2 42/16/2 34/1/2 11/2/2
f 14/1/1 15/2/1 21/3/1 20/4/1
f 16/3/2 17/4/2 18/1/2 19/2/2
f 20/5/1 21/6/1 25/7/1 24/8/1
f 22/3/2 23/4/2 17/1/2 16/2/2
f 24/9/1 25/10/1 28/11/1 26/12/1
f 27/3/2 31/4/2 23/1/2 22/2/2
f 26/9/1 28/10/1 29/11/1 30/12/1
f 37/3/2 36/4/2 31/1/2 27/2/2
f 30/9/1 29/10/1 32/11/1 33/12/1
f 34/3/2 35/4/2 36/1/2 37/2/2
f 33/9/1 32/10/1 40/13/1 39/14/1
f 42/15/2 41/16/2 35/1/2 34/2/2
f 38/9/3 39/10/3 42/17/3 13/18/3
f 39/9/3 40/10/3 41/17/3 42/18/3
o track_wall_vent_1
v -0.500000 3.950000 0.140000 0.9058 0.9058 0.9058
v 0.500000 3.950000 0.140000 0.9058 0.9058 0.9058
v -0.500000 4.550000 0.100000 0.8117 0.8117 0.8117
v -0.500000 3.950000 0.100000 0.8157 0.8157 0.8157
v -0.500000 4.550000 0.140000 0.9058 0.9058 0.9058
v 0.500000 4.550000 0.140000 0.9058 0.9058 0.9058
v 0.500000 4.550000 0.100000 0.8117 0.8117 0.8117
v 0.500000 3.950000 0.100000 0.8117 0.8117 0.8117
vn -0.0000 -0.0000 1.0000
vn -0.0000 -0.0000 -1.0000
vn -1.0000 -0.0000 -0.0000
vn 1.0000 -0.0000 -0.0000
vn -0.0000 1.0000 -0.0000
vn -0.0000 -1.0000 -0.0000
vt 0.679932 0.984619
vt 0.695068 0.984619
vt 0.695068 0.999756
vt 0.679932 0.999756
vt 0.789307 0.992432
vt 0.796631 0.992432
vt 0.796631 0.996826
vt 0.789307 0.996826
vt 0.789795 0.992432
vt 0.789795 0.999756
vt 0.789307 0.999756
vt 0.796631 0.992725
vt 0.789307 0.992725
s 0
usemtl props
f 43/19/4 44/20/4 48/21/4 47/22/4
f 50/23/5 46/24/5 45/25/5 49/26/5
f 46/23/6 43/27/6 47/28/6 45/29/6
f 44/23/7 50/27/7 49/28/7 48/29/7
f 47/23/8 48/24/8 49/30/8 45/31/8
f 46/23/9 50/24/9 44/30/9 43/31/9
