# Blender 4.5.14 LTS
# www.blender.org
mtllib track.mtl
o track
v -1.000000 0.000000 2.000000 1.0000 1.0000 1.0000
v -1.000000 0.000000 1.000000 0.9333 0.9333 0.9333
v -1.000000 0.000000 0.000000 0.9333 0.9333 0.9333
v -1.000000 0.000000 -1.000000 0.9333 0.9333 0.9333
v -1.000000 0.000000 -2.000000 0.9921 0.9921 0.9921
v 0.000000 0.000000 2.000000 1.0000 1.0000 1.0000
v 1.000000 0.000000 2.000000 1.0000 1.0000 1.0000
v 0.000000 0.000000 1.000000 0.8862 0.8862 0.8862
v 1.000000 0.000000 1.000000 0.9333 0.9333 0.9333
v 0.000000 0.000000 0.000000 0.8941 0.8941 0.8941
v 1.000000 0.000000 0.000000 0.9372 0.9372 0.9372
v 1.000000 0.000000 -1.000000 0.9411 0.9411 0.9411
v 0.000000 0.000000 -1.000000 0.8980 0.8980 0.8980
v 1.000000 0.000000 -2.000000 0.9921 0.9921 0.9921
v 0.000000 0.000000 -2.000000 0.9843 0.9843 0.9843
vn -0.0000 1.0000 -0.0000
vt 0.375244 0.937744
vt 0.437256 0.937744
vt 0.437256 0.999756
vt 0.375244 0.999756
s 0
usemtl props
f 1/1/1 6/2/1 8/3/1 2/4/1
f 2/1/1 8/2/1 10/3/1 3/4/1
f 3/1/1 10/2/1 13/3/1 4/4/1
f 4/1/1 13/2/1 15/3/1 5/4/1
f 6/1/1 7/2/1 9/3/1 8/4/1
f 8/1/1 9/2/1 11/3/1 10/4/1
f 10/1/1 11/2/1 12/3/1 13/4/1
f 13/1/1 12/2/1 14/3/1 15/4/1
o track_1
v -0.870000 0.000000 0.750000 0.8313 0.8313 0.8313
v -0.630000 0.000000 0.750000 0.8078 0.8078 0.8078
v -0.630000 0.100000 0.750000 0.8784 0.8784 0.8784
v -0.870000 0.000000 -1.750000 0.8470 0.8470 0.8470
v -0.870000 0.100000 -1.750000 0.9176 0.9176 0.9176
v -0.630000 0.000000 -1.750000 0.8313 0.8313 0.8313
v -0.870000 0.100000 0.750000 0.8902 0.8902 0.8902
v -0.630000 0.100000 -1.750000 0.9176 0.9176 0.9176
v -0.370000 0.100000 -1.750000 0.9137 0.9137 0.9137
v -0.370000 0.000000 -1.750000 0.8313 0.8313 0.8313
v -0.370000 0.000000 0.750000 0.8117 0.8117 0.8117
v -0.370000 0.100000 0.750000 0.8784 0.8784 0.8784
v -0.130000 0.000000 0.750000 0.8078 0.8078 0.8078
v -0.130000 0.000000 -1.750000 0.8313 0.8313 0.8313
v -0.130000 0.100000 0.750000 0.8784 0.8784 0.8784
v -0.130000 0.100000 -1.750000 0.9176 0.9176 0.9176
v 0.370000 0.000000 -1.750000 0.8313 0.8313 0.8313
v 0.130000 0.000000 -1.750000 0.8313 0.8313 0.8313
v 0.130000 0.000000 0.750000 0.8196 0.8196 0.8196
v 0.130000 0.100000 0.750000 0.8784 0.8784 0.8784
v 0.370000 0.000000 0.750000 0.8078 0.8078 0.8078
v 0.370000 0.100000 -1.750000 0.9176 0.9176 0.9176
v 0.370000 0.100000 0.750000 0.8784 0.8784 0.8784
v 0.130000 0.100000 -1.750000 0.9137 0.9137 0.9137
v 0.630000 0.100000 0.750000 0.8784 0.8784 0.8784
v 0.630000 0.000000 -1.750000 0.8313 0.8313 0.8313
v 0.630000 0.100000 -1.750000 0.9137 0.9137 0.9137
v 0.870000 0.100000 -1.750000 0.9255 0.9255 0.9255
v 0.630000 0.000000 0.750000 0.8117 0.8117 0.8117
v 0.870000 0.000000 0.750000 0.8313 0.8313 0.8313
v 0.870000 0.000000 -1.750000 0.8470 0.8470 0.8470
v 0.870000 0.100000 0.750000 0.8902 0.8902 0.8902
v -1.000000 0.100000 0.330000 0.8588 0.8588 0.8588
v 1.000000 0.100000 0.330000 0.8588 0.8588 0.8588
v 1.000000 0.120000 0.330000 0.8902 0.8902 0.8902
v 1.000000 0.100000 0.190000 0.8784 0.8784 0.8784
v -1.000000 0.100000 0.190000 0.8666 0.8666 0.8666
v -1.000000 0.120000 0.330000 0.8902 0.8902 0.8902
v 1.000000 0.120000 0.190000 0.9019 0.9019 0.9019
v -1.000000 0.120000 0.190000 0.8980 0.8980 0.8980
v -1.000000 0.120000 0.270000 0.8470 0.8470 0.8470
v 1.000000 0.120000 0.270000 0.8470 0.8470 0.8470
v 1.000000 0.120000 0.250000 0.8549 0.8549 0.8549
v -1.000000 0.120000 0.250000 0.8431 0.8431 0.8431
v 1.000000 0.220000 0.250000 0.7529 0.7529 0.7529
v -1.000000 0.220000 0.270000 0.7529 0.7529 0.7529
v 1.000000 0.220000 0.270000 0.7451 0.7451 0.7451
v -1.000000 0.220000 0.250000 0.7529 0.7529 0.7529
v -1.000000 0.210000 0.295000 0.9058 0.9058 0.9058
v 1.000000 0.210000 0.295000 0.9019 0.9019 0.9019
v -1.000000 0.250000 0.295000 0.9607 0.9607 0.9607
v 1.000000 0.210000 0.225000 0.9098 0.9098 0.9098
v -1.000000 0.210000 0.225000 0.9098 0.9098 0.9098
v -1.000000 0.250000 0.225000 0.9607 0.9607 0.9607
v 1.000000 0.250000 0.295000 0.9607 0.9607 0.9607
v 1.000000 0.250000 0.225000 0.9607 0.9607 0.9607
v -1.000000 0.100000 -1.190000 0.8588 0.8588 0.8588
v 1.000000 0.100000 -1.190000 0.8588 0.8588 0.8588
v -1.000000 0.120000 -1.190000 0.8902 0.8902 0.8902
v 1.000000 0.100000 -1.330000 0.8784 0.8784 0.8784
v -1.000000 0.100000 -1.330000 0.8706 0.8706 0.8706
v 1.000000 0.120000 -1.190000 0.8902 0.8902 0.8902
v 1.000000 0.120000 -1.330000 0.9019 0.9019 0.9019
v -1.000000 0.120000 -1.330000 0.8980 0.8980 0.8980
v -1.000000 0.120000 -1.250000 0.8470 0.8470 0.8470
v 1.000000 0.120000 -1.250000 0.8470 0.8470 0.8470
v 1.000000 0.120000 -1.270000 0.8549 0.8549 0.8549
v -1.000000 0.120000 -1.270000 0.8431 0.8431 0.8431
v -1.000000 0.220000 -1.250000 0.7529 0.7529 0.7529
v 1.000000 0.220000 -1.250000 0.7451 0.7451 0.7451
v 1.000000 0.220000 -1.270000 0.7529 0.7529 0.7529
v -1.000000 0.220000 -1.270000 0.7529 0.7529 0.7529
v -1.000000 0.210000 -1.225000 0.9058 0.9058 0.9058
v 1.000000 0.210000 -1.225000 0.9019 0.9019 0.9019
v 1.000000 0.250000 -1.225000 0.9607 0.9607 0.9607
v 1.000000 0.210000 -1.295000 0.9098 0.9098 0.9098
v -1.000000 0.210000 -1.295000 0.9098 0.9098 0.9098
v 1.000000 0.250000 -1.295000 0.9607 0.9607 0.9607
v -1.000000 0.250000 -1.225000 0.9607 0.9607 0.9607
v -1.000000 0.250000 -1.295000 0.9607 0.9607 0.9607
vn -0.0000 -0.0000 1.0000
vn -0.0000 -0.0000 -1.0000
vn -1.0000 -0.0000 -0.0000
vn 1.0000 -0.0000 -0.0000
vn -0.0000 1.0000 -0.0000
vt 0.773682 0.992432
vt 0.788213 0.992432
vt 0.788213 0.998291
vt 0.773682 0.998291
vt 0.788818 0.992432
vt 0.788818 0.993018
vt 0.773682 0.993018
vt 0.774408 0.992432
vt 0.774408 0.999756
vt 0.773682 0.999756
vt 0.758057 0.992432
vt 0.773193 0.992432
vt 0.773193 0.992578
vt 0.758057 0.992578
vt 0.773193 0.993457
vt 0.758057 0.993457
vt 0.773193 0.993164
vt 0.758057 0.993164
vt 0.773193 0.992725
vt 0.758057 0.992725
vt 0.828369 0.996338
vt 0.843506 0.996338
vt 0.843506 0.996816
vt 0.828369 0.996816
s 0
usemtl props
f 16/5/2 17/6/2 18/7/2 22/8/2
f 21/5/3 19/6/3 20/7/3 23/8/3
f 19/5/4 16/9/4 22/10/4 20/11/4
f 17/5/5 21/9/5 23/10/5 18/11/5
f 22/5/6 18/12/6 23/13/6 20/14/6
f 26/5/2 28/6/2 30/7/2 27/8/2
f 29/5/3 25/6/3 24/7/3 31/8/3
f 25/5/4 26/9/4 27/10/4 24/11/4
f 28/5/5 29/9/5 31/10/5 30/11/5
f 27/5/6 30/12/6 31/13/6 24/14/6
f 34/5/2 36/6/2 38/7/2 35/8/2
f 32/5/3 33/6/3 39/7/3 37/8/3
f 33/5/4 34/9/4 35/10/4 39/11/4
f 36/5/5 32/9/5 37/10/5 38/11/5
f 35/5/6 38/12/6 37/13/6 39/14/6
f 44/5/2 45/6/2 47/7/2 40/8/2
f 46/5/3 41/6/3 42/7/3 43/8/3
f 41/5/4 44/9/4 40/10/4 42/11/4
f 45/5/5 46/9/5 43/10/5 47/11/5
f 40/5/6 47/12/6 43/13/6 42/14/6
f 48/15/2 49/16/2 50/17/2 53/18/2
f 51/15/3 52/16/3 55/17/3 54/18/3
f 53/15/6 50/16/6 54/19/6 55/20/6
f 56/15/2 57/16/2 62/21/2 61/22/2
f 58/15/3 59/16/3 63/21/3 60/22/3
f 61/15/6 62/16/6 60/17/6 63/18/6
f 64/15/2 65/16/2 70/23/2 66/24/2
f 67/15/3 68/16/3 69/23/3 71/24/3
f 66/25/6 70/26/6 71/27/6 69/28/6
f 72/15/2 73/16/2 77/17/2 74/18/2
f 75/15/3 76/16/3 79/17/3 78/18/3
f 74/15/6 77/16/6 78/19/6 79/20/6
f 80/15/2 81/16/2 85/21/2 84/22/2
f 82/15/3 83/16/3 87/21/3 86/22/3
f 84/15/6 85/16/6 86/17/6 87/18/6
f 88/15/2 89/16/2 90/23/2 94/24/2
f 91/15/3 92/16/3 95/23/3 93/24/3
f 94/25/6 90/26/6 93/27/6 95/28/6
o track_2
v -1.000000 0.150000 1.200000 0.8980 0.8980 0.8980
v 1.000000 0.150000 1.200000 0.8941 0.8941 0.8941
v 1.000000 0.250000 1.200000 0.8980 0.8980 0.8980
v -1.000000 0.250000 1.200000 0.8980 0.8980 0.8980
v 1.000000 0.150000 1.120000 0.8784 0.8784 0.8784
v -1.000000 0.150000 1.120000 0.8862 0.8862 0.8862
v 1.000000 0.250000 1.120000 0.8745 0.8745 0.8745
v -1.000000 0.250000 1.120000 0.8706 0.8706 0.8706
v -1.000000 0.325000 1.230000 0.9529 0.9529 0.9529
v 1.000000 0.325000 1.230000 0.9529 0.9529 0.9529
v -1.000000 0.355000 1.230000 0.9843 0.9843 0.9843
v 1.000000 0.325000 1.030000 0.9490 0.9490 0.9490
v -1.000000 0.325000 1.030000 0.9529 0.9529 0.9529
v 1.000000 0.355000 1.030000 0.9804 0.9804 0.9804
v 1.000000 0.355000 1.230000 0.9843 0.9843 0.9843
v -1.000000 0.355000 1.030000 0.9764 0.9764 0.9764
v -0.550000 0.000000 1.160000 0.7804 0.7804 0.7804
v -0.525000 0.150000 1.203301 0.8549 0.8549 0.8549
v -0.550000 0.150000 1.160000 0.7372 0.7372 0.7372
v -0.525000 0.000000 1.203301 0.7882 0.7882 0.7882
v -0.475000 0.150000 1.203301 0.8588 0.8588 0.8588
v -0.475000 0.000000 1.203301 0.7921 0.7921 0.7921
v -0.450000 0.150000 1.160000 0.7333 0.7333 0.7333
v -0.475000 0.150000 1.116699 0.7921 0.7921 0.7921
v -0.525000 0.150000 1.116699 0.7921 0.7921 0.7921
v -0.525000 0.000000 1.116699 0.7804 0.7804 0.7804
v -0.475000 0.000000 1.116699 0.7804 0.7804 0.7804
v -0.450000 0.000000 1.160000 0.7843 0.7843 0.7843
v -0.530000 0.150000 1.060000 0.7608 0.7608 0.7608
v -0.530000 0.150000 1.000000 0.8117 0.8117 0.8117
v -0.470000 0.350000 1.000000 0.9490 0.9490 0.9490
v -0.530000 0.350000 1.060000 0.7412 0.7412 0.7412
v -0.470000 0.150000 1.000000 0.8117 0.8117 0.8117
v -0.470000 0.350000 1.060000 0.7372 0.7372 0.7372
v -0.530000 0.350000 1.000000 0.9490 0.9490 0.9490
v -0.470000 0.150000 1.060000 0.7568 0.7568 0.7568
v 0.550000 0.000000 1.160000 0.7843 0.7843 0.7843
v 0.450000 0.150000 1.160000 0.7372 0.7372 0.7372
v 0.450000 0.000000 1.160000 0.7804 0.7804 0.7804
v 0.475000 0.000000 1.203301 0.7882 0.7882 0.7882
v 0.525000 0.000000 1.203301 0.7921 0.7921 0.7921
v 0.525000 0.150000 1.203301 0.8588 0.8588 0.8588
v 0.550000 0.150000 1.160000 0.7333 0.7333 0.7333
v 0.525000 0.150000 1.116699 0.7921 0.7921 0.7921
v 0.475000 0.150000 1.116699 0.7921 0.7921 0.7921
v 0.475000 0.150000 1.203301 0.8549 0.8549 0.8549
v 0.475000 0.000000 1.116699 0.7804 0.7804 0.7804
v 0.525000 0.000000 1.116699 0.7804 0.7804 0.7804
v 0.470000 0.150000 1.060000 0.7608 0.7608 0.7608
v 0.530000 0.350000 1.060000 0.7372 0.7372 0.7372
v 0.470000 0.150000 1.000000 0.8117 0.8117 0.8117
v 0.530000 0.350000 1.000000 0.9490 0.9490 0.9490
v 0.530000 0.150000 1.000000 0.8117 0.8117 0.8117
v 0.470000 0.350000 1.060000 0.7412 0.7412 0.7412
v 0.470000 0.350000 1.000000 0.9490 0.9490 0.9490
v 0.530000 0.150000 1.060000 0.7568 0.7568 0.7568
vn -0.0000 -0.0000 1.0000
vn -0.0000 -0.0000 -1.0000
vn -0.0000 1.0000 -0.0000
vn 0.8660 -0.0000 -0.5000
vn -0.8660 -0.0000 -0.5000
vn -0.8660 -0.0000 0.5000
vn 0.8660 -0.0000 0.5000
vn -0.0000 -1.0000 -0.0000
vn -1.0000 -0.0000 -0.0000
vn 1.0000 -0.0000 -0.0000
vt 0.758057 0.992432
vt 0.773193 0.992432
vt 0.773193 0.993164
vt 0.758057 0.993164
vt 0.773193 0.993018
vt 0.758057 0.993018
vt 0.695557 0.992432
vt 0.726318 0.992432
vt 0.726318 0.992871
vt 0.695557 0.992871
vt 0.726318 0.995361
vt 0.695557 0.995361
vt 0.820557 0.992432
vt 0.821777 0.992432
vt 0.821777 0.999756
vt 0.820557 0.999756
vt 0.822998 0.992432
vt 0.822998 0.999756
vt 0.824219 0.992432
vt 0.824219 0.999756
vt 0.825439 0.992432
vt 0.825439 0.999756
vt 0.826660 0.992432
vt 0.826660 0.999756
vt 0.827881 0.992432
vt 0.827881 0.999756
vt 0.827881 0.996094
vt 0.826050 0.999756
vt 0.822388 0.999756
vt 0.820557 0.996094
vt 0.822388 0.992432
vt 0.826050 0.992432
vt 0.760327 0.992432
vt 0.760327 0.999756
vt 0.758057 0.999756
vt 0.761689 0.992432
vt 0.761689 0.995947
vt 0.758057 0.995947
s 0
usemtl props
f 96/29/7 97/30/7 98/31/7 99/32/7
f 100/29/8 101/30/8 103/31/8 102/32/8
f 99/29/9 98/30/9 102/33/9 103/34/9
f 104/35/7 105/36/7 110/37/7 106/38/7
f 107/35/8 108/36/8 111/37/8 109/38/8
f 106/35/9 110/36/9 109/39/9 111/40/9
s 1
f 123/41/10 122/42/10 119/43/10 118/44/10
f 122/42/8 121/45/8 120/46/8 119/43/8
f 121/45/11 112/47/11 114/48/11 120/46/11
f 112/47/12 115/49/12 113/50/12 114/48/12
f 115/49/7 117/51/7 116/52/7 113/50/7
f 117/51/13 123/53/13 118/54/13 116/52/13
s 0
f 118/55/9 119/56/9 120/57/9 114/58/9 113/59/9 116/60/9
f 117/56/14 115/57/14 112/58/14 121/59/14 122/60/14 123/55/14
f 124/29/7 131/61/7 129/62/7 127/63/7
f 128/29/8 125/61/8 130/62/8 126/63/8
f 125/29/15 124/61/15 127/62/15 130/63/15
f 131/29/16 128/61/16 126/62/16 129/63/16
f 127/29/9 129/64/9 126/65/9 130/66/9
f 125/29/14 128/64/14 131/65/14 124/66/14
s 1
f 132/41/10 143/42/10 139/43/10 138/44/10
f 143/42/8 142/45/8 140/46/8 139/43/8
f 142/45/11 134/47/11 133/48/11 140/46/11
f 134/47/12 135/49/12 141/50/12 133/48/12
f 135/49/7 136/51/7 137/52/7 141/50/7
f 136/51/13 132/53/13 138/54/13 137/52/13
s 0
f 138/55/9 139/56/9 140/57/9 133/58/9 141/59/9 137/60/9
f 136/56/14 135/57/14 134/58/14 142/59/14 143/60/14 132/55/14
f 144/29/7 151/61/7 145/62/7 149/63/7
f 148/29/8 146/61/8 150/62/8 147/63/8
f 146/29/15 144/61/15 149/62/15 150/63/15
f 151/29/16 148/61/16 147/62/16 145/63/16
f 149/29/9 145/64/9 147/65/9 150/66/9
f 146/29/14 148/64/14 151/65/14 144/66/14
