# Blender 4.5.14 LTS
# www.blender.org
mtllib track_post.mtl
o track_post
v 0.100000 0.000000 0.100000 0.8509 0.8509 0.8509
v 0.100000 0.000000 -0.100000 0.8509 0.8509 0.8509
v -0.100000 0.000000 -0.100000 0.8470 0.8470 0.8470
v 0.100000 2.000000 0.100000 1.0000 1.0000 1.0000
v -0.100000 2.000000 0.100000 1.0000 1.0000 1.0000
v 0.100000 1.000000 -0.100000 1.0000 1.0000 1.0000
v 0.100000 3.000000 0.100000 1.0000 1.0000 1.0000
v -0.100000 3.000000 -0.100000 1.0000 1.0000 1.0000
v 0.100000 2.000000 -0.100000 1.0000 1.0000 1.0000
v -0.100000 3.000000 0.100000 1.0000 1.0000 1.0000
v -0.100000 4.000000 0.100000 1.0000 1.0000 1.0000
v -0.100000 4.000000 -0.100000 1.0000 1.0000 1.0000
v 0.100000 3.000000 -0.100000 1.0000 1.0000 1.0000
v -0.100000 5.000000 0.100000 1.0000 1.0000 1.0000
v 0.100000 5.350000 0.100000 1.0000 1.0000 1.0000
v 0.100000 1.000000 0.100000 1.0000 1.0000 1.0000
v 0.100000 4.000000 0.100000 1.0000 1.0000 1.0000
v 0.100000 4.000000 -0.100000 1.0000 1.0000 1.0000
v 0.100000 5.000000 -0.100000 1.0000 1.0000 1.0000
v 0.100000 5.000000 0.100000 1.0000 1.0000 1.0000
v 0.100000 5.350000 -0.100000 1.0000 1.0000 1.0000
v -0.100000 0.000000 0.100000 0.8470 0.8470 0.8470
v -0.100000 1.000000 -0.100000 1.0000 1.0000 1.0000
v -0.100000 1.000000 0.100000 1.0000 1.0000 1.0000
v -0.100000 2.000000 -0.100000 1.0000 1.0000 1.0000
v -0.100000 5.000000 -0.100000 1.0000 1.0000 1.0000
v -0.100000 5.350000 0.100000 1.0000 1.0000 1.0000
v -0.100000 5.350000 -0.100000 1.0000 1.0000 1.0000
vn -0.0000 -0.0000 1.0000
vn -0.0000 -0.0000 -1.0000
vn -0.0000 1.0000 -0.0000
vn 1.0000 -0.0000 -0.0000
vn -1.0000 -0.0000 -0.0000
vt 0.437744 0.937744
vt 0.450146 0.937744
vt 0.450146 0.999756
vt 0.437744 0.999756
vt 0.499756 0.999756
vt 0.487354 0.999756
vt 0.487354 0.937744
vt 0.499756 0.937744
vt 0.500244 0.937744
vt 0.512646 0.937744
vt 0.512646 0.999756
vt 0.500244 0.999756
vt 0.562256 0.999756
vt 0.549854 0.999756
vt 0.549854 0.937744
vt 0.562256 0.937744
vt 0.312744 0.937744
vt 0.325146 0.937744
vt 0.325146 0.999756
vt 0.312744 0.999756
vt 0.374756 0.999756
vt 0.362354 0.999756
vt 0.362354 0.937744
vt 0.374756 0.937744
vt 0.325146 0.959448
vt 0.312744 0.959448
vt 0.374756 0.959448
vt 0.362354 0.959448
vt 0.325146 0.950146
vt 0.312744 0.950146
s 0
usemtl props
f 22/1/1 1/2/1 16/3/1 24/4/1
f 23/5/2 6/6/2 2/7/2 3/8/2
f 24/9/1 16/10/1 4/11/1 5/12/1
f 25/13/2 9/14/2 6/15/2 23/16/2
f 5/17/1 4/18/1 7/19/1 10/20/1
f 8/21/2 13/22/2 9/23/2 25/24/2
f 10/17/1 7/18/1 17/19/1 11/20/1
f 12/21/2 18/22/2 13/23/2 8/24/2
f 11/17/1 17/18/1 20/19/1 14/20/1
f 26/21/2 19/22/2 18/23/2 12/24/2
f 14/17/1 20/18/1 15/25/1 27/26/1
f 28/27/2 21/28/2 19/23/2 26/24/2
f 27/17/3 15/18/3 21/29/3 28/30/3
f 1/1/4 2/2/4 6/3/4 16/4/4
f 16/9/4 6/10/4 9/11/4 4/12/4
f 4/17/4 9/18/4 13/19/4 7/20/4
f 7/17/4 13/18/4 18/19/4 17/20/4
f 17/17/4 18/18/4 19/19/4 20/20/4
f 20/17/4 19/18/4 21/25/4 15/26/4
f 3/1/5 22/2/5 24/3/5 23/4/5
f 23/9/5 24/10/5 5/11/5 25/12/5
f 25/17/5 5/18/5 10/19/5 8/20/5
f 8/17/5 10/18/5 11/19/5 12/20/5
f 12/17/5 11/18/5 14/19/5 26/20/5
f 26/17/5 14/18/5 27/25/5 28/26/5
