# Blender 4.5.14 LTS
# www.blender.org
mtllib wall_post_hall.mtl
o wall_post_hall
v 0.100000 0.000000 0.100000 0.8509 0.8509 0.8509
v -0.100000 1.000000 0.100000 1.0000 1.0000 1.0000
v 0.100000 1.000000 -0.100000 1.0000 1.0000 1.0000
v 0.100000 0.000000 -0.100000 0.8509 0.8509 0.8509
v -0.100000 0.000000 -0.100000 0.8470 0.8470 0.8470
v 0.100000 2.000000 0.100000 1.0000 1.0000 1.0000
v -0.100000 2.000000 -0.100000 1.0000 1.0000 1.0000
v 0.100000 2.000000 -0.100000 1.0000 1.0000 1.0000
v -0.100000 1.000000 -0.100000 1.0000 1.0000 1.0000
v -0.100000 2.000000 0.100000 1.0000 1.0000 1.0000
v -0.100000 3.000000 0.100000 1.0000 1.0000 1.0000
v 0.100000 4.000000 -0.100000 1.0000 1.0000 1.0000
v -0.100000 4.000000 0.100000 1.0000 1.0000 1.0000
v 0.100000 1.000000 0.100000 1.0000 1.0000 1.0000
v 0.100000 3.000000 -0.100000 1.0000 1.0000 1.0000
v 0.100000 3.000000 0.100000 1.0000 1.0000 1.0000
v 0.100000 4.000000 0.100000 1.0000 1.0000 1.0000
v -0.100000 0.000000 0.100000 0.8470 0.8470 0.8470
v -0.100000 3.000000 -0.100000 1.0000 1.0000 1.0000
v -0.100000 4.000000 -0.100000 1.0000 1.0000 1.0000
vn -0.0000 -0.0000 1.0000
vn -0.0000 -0.0000 -1.0000
vn -0.0000 1.0000 -0.0000
vn 1.0000 -0.0000 -0.0000
vn -1.0000 -0.0000 -0.0000
vt 0.250244 0.937744
vt 0.262646 0.937744
vt 0.262646 0.999756
vt 0.250244 0.999756
vt 0.312256 0.999756
vt 0.299854 0.999756
vt 0.299854 0.937744
vt 0.312256 0.937744
vt 0.312744 0.937744
vt 0.325146 0.937744
vt 0.325146 0.999756
vt 0.312744 0.999756
vt 0.374756 0.999756
vt 0.362354 0.999756
vt 0.362354 0.937744
vt 0.374756 0.937744
vt 0.325146 0.950146
vt 0.312744 0.950146
s 0
usemtl props
f 18/1/1 1/2/1 14/3/1 2/4/1
f 9/5/2 3/6/2 4/7/2 5/8/2
f 2/9/1 14/10/1 6/11/1 10/12/1
f 7/13/2 8/14/2 3/15/2 9/16/2
f 10/9/1 6/10/1 16/11/1 11/12/1
f 19/13/2 15/14/2 8/15/2 7/16/2
f 11/9/1 16/10/1 17/11/1 13/12/1
f 20/13/2 12/14/2 15/15/2 19/16/2
f 13/9/3 17/10/3 12/17/3 20/18/3
f 1/1/4 4/2/4 3/3/4 14/4/4
f 14/9/4 3/10/4 8/11/4 6/12/4
f 6/9/4 8/10/4 15/11/4 16/12/4
f 16/9/4 15/10/4 12/11/4 17/12/4
f 5/1/5 18/2/5 2/3/5 9/4/5
f 9/9/5 2/10/5 10/11/5 7/12/5
f 7/9/5 10/10/5 11/11/5 19/12/5
f 19/9/5 11/10/5 13/11/5 20/12/5
