# Blender 4.5.14 LTS
# www.blender.org
mtllib wall_hall.mtl
o wall_hall
v -1.000000 0.000000 0.100000 0.8470 0.8470 0.8470
v -1.000000 0.000000 -0.100000 0.8509 0.8509 0.8509
v -1.000000 1.000000 0.100000 1.0000 1.0000 1.0000
v -1.000000 1.000000 -0.100000 1.0000 1.0000 1.0000
v -1.000000 2.000000 0.100000 1.0000 1.0000 1.0000
v -1.000000 2.000000 -0.100000 1.0000 1.0000 1.0000
v -1.000000 3.000000 0.100000 1.0000 1.0000 1.0000
v -1.000000 4.000000 0.100000 1.0000 1.0000 1.0000
v -1.000000 4.000000 -0.100000 1.0000 1.0000 1.0000
v -1.000000 3.000000 -0.100000 1.0000 1.0000 1.0000
v 0.000000 0.000000 0.100000 0.8470 0.8470 0.8470
v 1.000000 0.000000 0.100000 0.8470 0.8470 0.8470
v 0.000000 1.000000 -0.100000 1.0000 1.0000 1.0000
v 1.000000 0.000000 -0.100000 0.8509 0.8509 0.8509
v 0.000000 0.000000 -0.100000 0.8509 0.8509 0.8509
v 0.000000 1.000000 0.100000 1.0000 1.0000 1.0000
v 1.000000 1.000000 0.100000 1.0000 1.0000 1.0000
v 0.000000 2.000000 -0.100000 1.0000 1.0000 1.0000
v 1.000000 1.000000 -0.100000 1.0000 1.0000 1.0000
v 0.000000 2.000000 0.100000 1.0000 1.0000 1.0000
v 1.000000 2.000000 0.100000 1.0000 1.0000 1.0000
v 0.000000 3.000000 0.100000 1.0000 1.0000 1.0000
v 1.000000 3.000000 -0.100000 1.0000 1.0000 1.0000
v 1.000000 2.000000 -0.100000 1.0000 1.0000 1.0000
v 1.000000 3.000000 0.100000 1.0000 1.0000 1.0000
v 0.000000 4.000000 -0.100000 1.0000 1.0000 1.0000
v 0.000000 3.000000 -0.100000 1.0000 1.0000 1.0000
v 0.000000 4.000000 0.100000 1.0000 1.0000 1.0000
v 1.000000 4.000000 0.100000 1.0000 1.0000 1.0000
v 1.000000 4.000000 -0.100000 1.0000 1.0000 1.0000
vn -0.0000 -0.0000 1.0000
vn -0.0000 -0.0000 -1.0000
vn -0.0000 1.0000 -0.0000
vt 0.250244 0.937744
vt 0.312256 0.937744
vt 0.312256 0.999756
vt 0.250244 0.999756
vt 0.312744 0.937744
vt 0.374756 0.937744
vt 0.374756 0.999756
vt 0.312744 0.999756
vt 0.374756 0.950146
vt 0.312744 0.950146
s 0
usemtl props
f 1/1/1 11/2/1 16/3/1 3/4/1
f 4/3/2 13/4/2 15/1/2 2/2/2
f 3/5/1 16/6/1 20/7/1 5/8/1
f 6/7/2 18/8/2 13/5/2 4/6/2
f 5/5/1 20/6/1 22/7/1 7/8/1
f 10/7/2 27/8/2 18/5/2 6/6/2
f 7/5/1 22/6/1 28/7/1 8/8/1
f 9/7/2 26/8/2 27/5/2 10/6/2
f 11/1/1 12/2/1 17/3/1 16/4/1
f 13/3/2 19/4/2 14/1/2 15/2/2
f 16/5/1 17/6/1 21/7/1 20/8/1
f 18/7/2 24/8/2 19/5/2 13/6/2
f 20/5/1 21/6/1 25/7/1 22/8/1
f 27/7/2 23/8/2 24/5/2 18/6/2
f 22/5/1 25/6/1 29/7/1 28/8/1
f 26/7/2 30/8/2 23/5/2 27/6/2
f 8/5/3 28/6/3 26/9/3 9/10/3
f 28/5/3 29/6/3 30/9/3 26/10/3
