# Blender 4.0.2
# www.blender.org
mtllib Flashlight01.mtl
o Flashlight.001
v -0.012047 0.126853 -0.038889
v -0.012047 0.126853 -0.050959
v -0.012047 0.084587 -0.038889
v -0.012047 0.084587 -0.050959
v 0.012047 0.126853 -0.038889
v 0.012047 0.126853 -0.050959
v 0.012047 0.084587 -0.038889
v 0.012047 0.084587 -0.050959
v 0.006275 0.094713 -0.050959
v -0.006275 0.094713 -0.050959
v -0.006275 0.116727 -0.050959
v 0.006275 0.116727 -0.050959
v -0.006275 0.094713 -0.058875
v 0.006275 0.094713 -0.058875
v 0.006275 0.116727 -0.058875
v -0.006275 0.116727 -0.058875
vn -1.0000 -0.0000 -0.0000
vn -0.0000 -1.0000 -0.0000
vn 1.0000 -0.0000 -0.0000
vn -0.0000 1.0000 -0.0000
vn -0.0000 -0.0000 -1.0000
vt 0.751846 0.655940
vt 0.831041 0.695096
vt 0.751846 0.695096
vt 0.831041 0.655940
vt 0.910235 0.695096
vt 0.910235 0.655940
vt 0.989430 0.695096
vt 0.672651 0.655940
vt 0.672651 0.695096
vt 0.770819 0.636967
vt 0.812068 0.611283
vt 0.812068 0.636967
vt 0.891262 0.636967
vt 0.691624 0.636967
vt 0.732873 0.636967
vt 0.970457 0.636967
vt 0.989430 0.655940
vt 0.929208 0.570034
vt 0.970457 0.611283
vt 0.929208 0.611283
vt 0.850013 0.636967
vt 0.891262 0.611283
vt 0.732873 0.611283
vt 0.770819 0.611283
vt 0.929208 0.636967
vt 0.970457 0.570034
vt 0.850013 0.611283
vt 0.691624 0.611283
s 0
usemtl Flashlight
f 2/1/1 3/2/1 1/3/1
f 4/4/2 7/5/2 3/2/2
f 8/6/3 5/7/3 7/5/3
f 6/8/4 1/3/4 5/9/4
f 11/10/1 13/11/1 10/12/1
f 4/4/5 9/13/5 8/6/5
f 2/1/5 10/12/5 4/4/5
f 2/1/5 12/14/5 11/15/5
f 8/6/5 12/16/5 6/17/5
f 13/18/5 15/19/5 14/20/5
f 10/21/2 14/22/2 9/13/2
f 12/14/4 16/23/4 11/15/4
f 12/16/3 14/20/3 15/19/3
f 2/1/1 4/4/1 3/2/1
f 4/4/2 8/6/2 7/5/2
f 8/6/3 6/17/3 5/7/3
f 6/8/4 2/1/4 1/3/4
f 11/10/1 16/24/1 13/11/1
f 4/4/5 10/21/5 9/13/5
f 2/1/5 11/10/5 10/12/5
f 2/1/5 6/8/5 12/14/5
f 8/6/5 9/25/5 12/16/5
f 13/18/5 16/26/5 15/19/5
f 10/21/2 13/27/2 14/22/2
f 12/14/4 15/28/4 16/23/4
f 12/16/3 9/25/3 14/20/3
o Flashlight.002
v 0.000000 0.068971 -0.047303
v 0.025352 0.068971 -0.036940
v 0.035854 0.068971 -0.011921
v 0.025352 0.068971 0.013097
v 0.000000 0.068971 0.023461
v -0.025352 0.068971 0.013097
v -0.035854 0.068971 -0.011921
v -0.025352 0.068971 -0.036940
v 0.000000 0.028627 -0.070169
v 0.041737 0.028627 -0.053109
v 0.059024 0.028627 -0.011921
v 0.041737 0.028627 0.029266
v 0.000000 0.028627 0.046326
v -0.041737 0.028627 0.029266
v -0.059024 0.028627 -0.011921
v -0.041737 0.028627 -0.053109
v 0.000000 0.001091 -0.065963
v 0.000000 0.004149 -0.070169
v 0.041737 0.004149 -0.053109
v 0.038723 0.001091 -0.050134
v 0.059024 0.004149 -0.011921
v 0.054762 0.001091 -0.011921
v 0.041737 0.004149 0.029266
v 0.038723 0.001091 0.026292
v 0.000000 0.004149 0.046326
v 0.000000 0.001091 0.042120
v -0.041737 0.004149 0.029266
v -0.038723 0.001091 0.026292
v -0.059024 0.004149 -0.011921
v -0.054762 0.001091 -0.011921
v -0.041737 0.004149 -0.053109
v -0.038723 0.001091 -0.050134
v 0.000000 0.261767 -0.041148
v 0.000000 0.257291 -0.047303
v 0.020942 0.261767 -0.032588
v 0.025352 0.257291 -0.036940
v 0.029617 0.261767 -0.011921
v 0.035854 0.257291 -0.011921
v 0.020942 0.261767 0.008746
v 0.025352 0.257291 0.013097
v -0.000000 0.261767 0.017306
v 0.000000 0.257291 0.023461
v -0.020942 0.261767 0.008746
v -0.025352 0.257291 0.013097
v -0.029617 0.261767 -0.011921
v -0.035854 0.257291 -0.011921
v -0.020942 0.261767 -0.032588
v -0.025352 0.257291 -0.036940
vn -0.3784 -0.0000 -0.9257
vn -0.3661 0.2527 -0.8956
vn -0.3660 0.2533 -0.8955
vn 0.9221 -0.0000 0.3870
vn 0.8917 0.2545 0.3743
vn 0.8916 0.2551 0.3742
vn 0.3784 -0.0000 0.9257
vn 0.3661 0.2527 0.8956
vn 0.3660 0.2533 0.8955
vn -0.3784 -0.0000 0.9257
vn -0.3660 0.2533 0.8955
vn -0.3661 0.2527 0.8956
vn -0.9221 -0.0000 0.3870
vn -0.8916 0.2551 0.3742
vn -0.8917 0.2545 0.3743
vn -0.8916 0.2551 -0.3742
vn -0.9221 -0.0000 -0.3870
vn -0.8917 0.2545 -0.3743
vn 0.3784 -0.0000 -0.9257
vn 0.3660 0.2533 -0.8955
vn 0.3661 0.2527 -0.8956
vn 0.9221 -0.0000 -0.3870
vn 0.8916 0.2551 -0.3742
vn 0.8917 0.2545 -0.3743
vn 0.3688 0.2240 0.9021
vn 0.3688 0.2233 0.9023
vn -0.8982 0.2260 -0.3770
vn -0.8984 0.2252 -0.3771
vn 0.8982 0.2260 -0.3770
vn -0.3688 0.2240 0.9021
vn -0.3688 0.2240 -0.9021
vn -0.3688 0.2233 -0.9023
vn 0.3688 0.2240 -0.9021
vn 0.8982 0.2260 0.3770
vn 0.8984 0.2252 0.3771
vn -0.8982 0.2260 0.3770
vn -0.8984 0.2252 0.3771
vn -0.0000 -1.0000 -0.0000
vn 0.8984 0.2252 -0.3771
vn -0.3688 0.2233 0.9023
vn -0.0000 -0.8088 -0.5881
vn 0.4108 -0.8106 -0.4173
vn 0.4129 -0.8106 -0.4153
vn 0.5831 -0.8124 -0.0000
vn 0.4129 -0.8106 0.4153
vn 0.5830 -0.8124 -0.0000
vn -0.0000 -0.8088 0.5881
vn 0.4108 -0.8106 0.4173
vn -0.4108 -0.8106 0.4173
vn -0.4129 -0.8106 0.4153
vn -0.5831 -0.8124 -0.0000
vn -0.4129 -0.8106 -0.4153
vn -0.4108 -0.8106 -0.4173
vn 0.3688 0.2233 -0.9023
vn -0.0000 0.8088 -0.5881
vn 0.4108 0.8106 -0.4173
vn 0.4129 0.8106 -0.4153
vn 0.5830 0.8124 -0.0000
vn 0.4129 0.8106 0.4153
vn 0.4108 0.8106 0.4173
vn -0.0000 0.8088 0.5881
vn -0.4108 0.8106 0.4173
vn -0.4129 0.8106 0.4153
vn -0.5830 0.8124 -0.0000
vn -0.4129 0.8106 -0.4153
vn -0.4108 0.8106 -0.4173
vn -0.0000 1.0000 -0.0000
vt 0.352504 0.864369
vt 0.317770 0.488497
vt 0.362301 0.492747
vt 0.235784 0.863860
vt 0.187815 0.499540
vt 0.230212 0.495556
vt 0.196929 0.864519
vt 0.148521 0.506947
vt 0.468570 0.869176
vt 0.448465 0.504108
vt 0.488743 0.513441
vt 0.429996 0.867153
vt 0.406531 0.495310
vt 0.313596 0.863711
vt 0.273523 0.490828
vt 0.274675 0.863565
vt 0.116695 0.442294
vt 0.167608 0.426151
vt 0.369563 0.410363
vt 0.420304 0.417166
vt 0.268399 0.410042
vt 0.525156 0.447285
vt 0.318912 0.408683
vt 0.217501 0.415496
vt 0.472136 0.428501
vt 0.371916 0.373508
vt 0.481634 0.390466
vt 0.158040 0.390734
vt 0.447165 0.228550
vt 0.275835 0.301780
vt 0.204309 0.130941
vt 0.265211 0.373330
vt 0.426099 0.379578
vt 0.538011 0.407625
vt 0.211105 0.379229
vt 0.267799 0.044057
vt 0.375336 0.057278
vt 0.273976 0.057784
vt 0.381104 0.043018
vt 0.447776 0.128047
vt 0.460653 0.234065
vt 0.461694 0.122482
vt 0.382846 0.315409
vt 0.376817 0.301294
vt 0.270389 0.315293
vt 0.204064 0.231833
vt 0.190411 0.125587
vt 0.190411 0.237820
vt 0.318549 0.371826
vt 0.198895 0.963009
vt 0.215310 0.929314
vt 0.227201 0.933587
vt 0.214496 0.898299
vt 0.225937 0.893015
vt 0.192560 0.876343
vt 0.156356 0.865406
vt 0.161608 0.876852
vt 0.139738 0.898801
vt 0.127959 0.894452
vt 0.140229 0.929863
vt 0.128848 0.934712
vt 0.157491 0.963948
vt 0.162397 0.951802
vt 0.193569 0.951416
vt 0.391304 0.865528
vt 0.106034 0.406017
s 1
usemtl Flashlight
f 64/29/6 17/30/7 24/31/8
f 54/32/9 20/33/10 19/34/11
f 56/35/12 21/36/13 20/33/14
f 58/37/15 22/38/16 21/39/17
f 60/40/18 23/41/19 22/38/20
f 23/41/21 64/29/22 24/31/23
f 50/42/24 18/43/25 17/30/26
f 52/44/27 19/34/28 18/43/29
f 20/33/14 29/45/30 28/46/31
f 23/41/21 32/47/32 31/48/33
f 19/34/28 26/49/34 18/43/29
f 22/38/16 29/50/35 21/39/17
f 24/31/8 25/51/36 32/47/37
f 18/43/25 25/51/38 17/30/26
f 19/34/11 28/46/39 27/52/40
f 23/41/19 30/53/41 22/38/20
f 25/51/36 47/54/6 32/47/37
f 31/48/42 43/55/18 30/53/41
f 29/45/30 39/56/12 28/46/31
f 40/57/43 44/58/43 48/59/43
f 27/52/44 35/60/27 26/49/34
f 32/47/32 45/61/22 31/48/33
f 30/53/45 41/62/15 29/50/35
f 27/52/40 39/56/9 37/63/9
f 34/64/46 36/65/47 33/66/46
f 35/67/48 38/68/49 36/65/47
f 39/69/50 38/68/49 37/70/51
f 41/71/52 40/57/53 39/69/50
f 41/71/52 44/58/54 42/72/52
f 43/73/55 46/74/56 44/58/54
f 47/75/57 46/74/56 45/76/56
f 34/64/46 48/59/58 47/75/57
f 26/49/59 34/77/24 25/51/38
f 50/78/60 51/79/61 52/80/62
f 52/80/62 53/81/63 54/82/63
f 56/35/64 53/81/63 55/83/65
f 58/84/66 55/83/65 57/85/66
f 58/84/66 59/86/67 60/87/68
f 60/87/68 61/88/69 62/89/69
f 64/90/70 61/88/69 63/91/71
f 50/78/60 63/91/71 49/92/60
f 61/88/72 57/85/72 53/81/72
f 64/29/6 50/42/6 17/30/7
f 54/32/9 56/35/9 20/33/10
f 56/35/12 58/84/12 21/36/13
f 58/37/15 60/40/15 22/38/16
f 60/40/18 62/93/18 23/41/19
f 23/41/21 62/93/22 64/29/22
f 50/42/24 52/44/24 18/43/25
f 52/44/27 54/32/27 19/34/28
f 20/33/14 21/36/13 29/45/30
f 23/41/21 24/31/23 32/47/32
f 19/34/28 27/52/44 26/49/34
f 22/38/16 30/53/45 29/50/35
f 24/31/8 17/30/7 25/51/36
f 18/43/25 26/49/59 25/51/38
f 19/34/11 20/33/10 28/46/39
f 23/41/19 31/48/42 30/53/41
f 25/51/36 34/77/6 47/54/6
f 31/48/42 45/61/18 43/55/18
f 29/45/30 41/94/12 39/56/12
f 48/59/43 33/66/43 36/65/43
f 36/65/43 38/68/43 40/57/43
f 40/57/43 42/72/43 44/58/43
f 44/58/43 46/74/43 48/59/43
f 48/59/43 36/65/43 40/57/43
f 27/52/44 37/63/27 35/60/27
f 32/47/32 47/54/22 45/61/22
f 30/53/45 43/55/15 41/62/15
f 27/52/40 28/46/39 39/56/9
f 34/64/46 35/67/48 36/65/47
f 35/67/48 37/70/51 38/68/49
f 39/69/50 40/57/53 38/68/49
f 41/71/52 42/72/52 40/57/53
f 41/71/52 43/73/55 44/58/54
f 43/73/55 45/76/56 46/74/56
f 47/75/57 48/59/58 46/74/56
f 34/64/46 33/66/46 48/59/58
f 26/49/59 35/60/24 34/77/24
f 50/78/60 49/92/60 51/79/61
f 52/80/62 51/79/61 53/81/63
f 56/35/64 54/82/63 53/81/63
f 58/84/66 56/35/64 55/83/65
f 58/84/66 57/85/66 59/86/67
f 60/87/68 59/86/67 61/88/69
f 64/90/70 62/89/69 61/88/69
f 50/78/60 64/90/70 63/91/71
f 53/81/72 51/79/72 49/92/72
f 49/92/72 63/91/72 61/88/72
f 61/88/72 59/86/72 57/85/72
f 57/85/72 55/83/72 53/81/72
f 53/81/72 49/92/72 61/88/72
