# Blender 4.0.2
# www.blender.org
mtllib Pen.mtl
o Pen
v 0.000000 0.018868 0.005498
v -0.000887 0.034427 0.005498
v -0.008681 0.018868 0.005498
v -0.006811 0.003678 0.005498
v 0.000000 0.034427 0.005498
v 0.000000 0.003678 0.005498
v -0.002110 0.027609 0.005498
v 0.000000 0.027609 0.005498
v -0.005098 0.022666 0.005498
v 0.000000 0.022666 0.005498
v -0.000887 0.030261 0.005498
v 0.000000 0.030261 0.005498
v -0.001174 0.032159 0.005498
v 0.000000 0.032159 0.005498
v -0.001174 0.033219 0.005498
v 0.000000 0.033219 0.005498
v -0.000887 0.031210 0.005498
v 0.000000 0.031210 0.005498
v 0.000887 0.034427 0.005498
v 0.008681 0.018868 0.005498
v 0.006811 0.003678 0.005498
v 0.002110 0.027609 0.005498
v 0.005098 0.022666 0.005498
v 0.000887 0.030261 0.005498
v 0.001174 0.032159 0.005498
v 0.001174 0.033219 0.005498
v 0.000887 0.031210 0.005498
v 0.000000 0.018868 -0.004502
v -0.000887 0.034427 -0.004502
v -0.008681 0.018868 -0.004502
v -0.006811 0.003678 -0.004502
v 0.000000 0.034427 -0.004502
v 0.000000 0.003678 -0.004502
v -0.002110 0.027609 -0.004502
v 0.000000 0.027609 -0.004502
v -0.005098 0.022666 -0.004502
v 0.000000 0.022666 -0.004502
v -0.000887 0.030261 -0.004502
v 0.000000 0.030261 -0.004502
v -0.001174 0.032159 -0.004502
v 0.000000 0.032159 -0.004502
v -0.001174 0.033219 -0.004502
v 0.000000 0.033219 -0.004502
v -0.000887 0.031210 -0.004502
v 0.000000 0.031210 -0.004502
v 0.000887 0.034427 -0.004502
v 0.008681 0.018868 -0.004502
v 0.006811 0.003678 -0.004502
v 0.002110 0.027609 -0.004502
v 0.005098 0.022666 -0.004502
v 0.000887 0.030261 -0.004502
v 0.001174 0.032159 -0.004502
v 0.001174 0.033219 -0.004502
v 0.000887 0.031210 -0.004502
vn -0.0000 -0.0000 1.0000
vn -0.0000 -0.0000 -1.0000
vn -0.0000 1.0000 -0.0000
vn -0.9925 -0.1222 -0.0000
vn -0.7273 0.6863 -0.0000
vn -0.0000 -1.0000 -0.0000
vn -0.9080 0.4190 -0.0000
vn -0.8559 0.5172 -0.0000
vn -1.0000 -0.0000 -0.0000
vn -0.9729 0.2310 -0.0000
vn -0.9573 -0.2892 -0.0000
vn 0.9925 -0.1222 -0.0000
vn 0.7273 0.6863 -0.0000
vn 0.9080 0.4190 -0.0000
vn 0.8559 0.5172 -0.0000
vn 1.0000 -0.0000 -0.0000
vn 0.9729 0.2310 -0.0000
vn 0.9573 -0.2892 -0.0000
vt 0.500000 0.500000
vt 1.000000 1.000000
vt 0.500000 1.000000
vt 1.000000 0.375000
vt 0.500000 0.375000
vt 1.000000 0.125000
vt 0.500000 0.250000
vt 0.500000 0.125000
vt 1.000000 0.250000
vt 1.000000 0.093750
vt 0.500000 0.093750
vt 0.500000 0.031250
vt 1.000000 0.062500
vt 0.500000 0.062500
vt 1.000000 0.000000
vt 0.500000 0.000000
vt 1.000000 0.500000
vt 1.000000 0.031250
s 0
f 1/1/1 4/2/1 6/3/1
f 9/4/1 1/1/1 10/5/1
f 11/6/1 8/7/1 12/8/1
f 7/9/1 10/5/1 8/7/1
f 17/10/1 12/8/1 18/11/1
f 16/12/1 13/13/1 14/14/1
f 2/15/1 16/12/1 5/16/1
f 14/14/1 17/10/1 18/11/1
f 1/1/1 21/2/1 20/17/1
f 1/1/1 23/4/1 10/5/1
f 8/7/1 24/6/1 12/8/1
f 10/5/1 22/9/1 8/7/1
f 12/8/1 27/10/1 18/11/1
f 16/12/1 25/13/1 26/18/1
f 16/12/1 19/15/1 5/16/1
f 14/14/1 27/10/1 25/13/1
f 28/1/2 31/2/2 30/17/2
f 28/1/2 36/4/2 37/5/2
f 35/7/2 38/6/2 39/8/2
f 37/5/2 34/9/2 35/7/2
f 39/8/2 44/10/2 45/11/2
f 41/14/2 42/18/2 43/12/2
f 43/12/2 29/15/2 32/16/2
f 41/14/2 44/10/2 40/13/2
f 28/1/2 48/2/2 33/3/2
f 50/4/2 28/1/2 37/5/2
f 51/6/2 35/7/2 39/8/2
f 49/9/2 37/5/2 35/7/2
f 54/10/2 39/8/2 45/11/2
f 43/12/2 52/13/2 41/14/2
f 46/15/2 43/12/2 32/16/2
f 41/14/2 54/10/2 45/11/2
f 5/16/3 29/15/3 2/15/3
f 3/17/4 31/2/4 4/2/4
f 9/4/5 30/17/5 3/17/5
f 4/2/6 33/3/6 6/3/6
f 11/6/7 34/9/7 7/9/7
f 7/9/8 36/4/8 9/4/8
f 17/10/9 38/6/9 11/6/9
f 15/18/9 40/13/9 13/13/9
f 2/15/10 42/18/10 15/18/10
f 13/13/11 44/10/11 17/10/11
f 19/15/3 32/16/3 5/16/3
f 21/2/12 47/17/12 20/17/12
f 20/17/13 50/4/13 23/4/13
f 6/3/6 48/2/6 21/2/6
f 24/6/14 49/9/14 51/6/14
f 23/4/15 49/9/15 22/9/15
f 24/6/16 54/10/16 27/10/16
f 25/13/16 53/18/16 26/18/16
f 26/18/17 46/15/17 19/15/17
f 25/13/18 54/10/18 52/13/18
f 1/1/1 3/17/1 4/2/1
f 9/4/1 3/17/1 1/1/1
f 11/6/1 7/9/1 8/7/1
f 7/9/1 9/4/1 10/5/1
f 17/10/1 11/6/1 12/8/1
f 16/12/1 15/18/1 13/13/1
f 2/15/1 15/18/1 16/12/1
f 14/14/1 13/13/1 17/10/1
f 1/1/1 6/3/1 21/2/1
f 1/1/1 20/17/1 23/4/1
f 8/7/1 22/9/1 24/6/1
f 10/5/1 23/4/1 22/9/1
f 12/8/1 24/6/1 27/10/1
f 16/12/1 14/14/1 25/13/1
f 16/12/1 26/18/1 19/15/1
f 14/14/1 18/11/1 27/10/1
f 28/1/2 33/3/2 31/2/2
f 28/1/2 30/17/2 36/4/2
f 35/7/2 34/9/2 38/6/2
f 37/5/2 36/4/2 34/9/2
f 39/8/2 38/6/2 44/10/2
f 41/14/2 40/13/2 42/18/2
f 43/12/2 42/18/2 29/15/2
f 41/14/2 45/11/2 44/10/2
f 28/1/2 47/17/2 48/2/2
f 50/4/2 47/17/2 28/1/2
f 51/6/2 49/9/2 35/7/2
f 49/9/2 50/4/2 37/5/2
f 54/10/2 51/6/2 39/8/2
f 43/12/2 53/18/2 52/13/2
f 46/15/2 53/18/2 43/12/2
f 41/14/2 52/13/2 54/10/2
f 5/16/3 32/16/3 29/15/3
f 3/17/4 30/17/4 31/2/4
f 9/4/5 36/4/5 30/17/5
f 4/2/6 31/2/6 33/3/6
f 11/6/7 38/6/7 34/9/7
f 7/9/8 34/9/8 36/4/8
f 17/10/9 44/10/9 38/6/9
f 15/18/9 42/18/9 40/13/9
f 2/15/10 29/15/10 42/18/10
f 13/13/11 40/13/11 44/10/11
f 19/15/3 46/15/3 32/16/3
f 21/2/12 48/2/12 47/17/12
f 20/17/13 47/17/13 50/4/13
f 6/3/6 33/3/6 48/2/6
f 24/6/14 22/9/14 49/9/14
f 23/4/15 50/4/15 49/9/15
f 24/6/16 51/6/16 54/10/16
f 25/13/16 52/13/16 53/18/16
f 26/18/17 53/18/17 46/15/17
f 25/13/18 27/10/18 54/10/18
o Pen.001
v 0.000000 -0.102893 0.000000
v -0.000209 -0.102816 0.000000
v -0.000482 -0.102735 0.000000
v -0.000809 -0.102652 0.000000
v -0.001181 -0.102566 0.000000
v -0.001590 -0.102478 0.000000
v -0.002027 -0.102389 0.000000
v -0.002481 -0.102299 0.000000
v -0.002945 -0.102209 0.000000
v -0.003408 -0.102118 0.000000
v -0.003863 -0.102028 0.000000
v -0.004299 -0.101939 0.000000
v -0.004708 -0.101851 0.000000
v -0.007812 -0.097667 0.000000
v -0.011726 -0.071430 0.000000
v -0.009297 -0.004409 0.000000
v -0.012266 0.000180 0.000000
v -0.010782 0.004680 0.000000
v 0.000001 0.004680 -0.000000
v 0.000000 -0.102893 -0.000000
v -0.000193 -0.102816 0.000080
v -0.000445 -0.102735 0.000184
v -0.000747 -0.102652 0.000309
v -0.001091 -0.102566 0.000452
v -0.001469 -0.102478 0.000609
v -0.001872 -0.102389 0.000776
v -0.002292 -0.102299 0.000949
v -0.002720 -0.102209 0.001127
v -0.003149 -0.102118 0.001304
v -0.003569 -0.102028 0.001478
v -0.003972 -0.101939 0.001645
v -0.004350 -0.101851 0.001802
v -0.007217 -0.097667 0.002990
v -0.010833 -0.071430 0.004487
v -0.008589 -0.004409 0.003558
v -0.011332 0.000180 0.004694
v -0.009962 0.004680 0.004126
v 0.000001 0.004680 -0.000000
v 0.000000 -0.102893 -0.000000
v -0.000148 -0.102816 0.000148
v -0.000341 -0.102735 0.000341
v -0.000572 -0.102652 0.000572
v -0.000835 -0.102566 0.000835
v -0.001125 -0.102478 0.001125
v -0.001433 -0.102389 0.001433
v -0.001754 -0.102299 0.001754
v -0.002082 -0.102209 0.002082
v -0.002410 -0.102118 0.002410
v -0.002731 -0.102028 0.002731
v -0.003040 -0.101939 0.003040
v -0.003329 -0.101851 0.003329
v -0.005524 -0.097667 0.005524
v -0.008292 -0.071430 0.008292
v -0.006574 -0.004409 0.006574
v -0.008673 0.000180 0.008673
v -0.007624 0.004680 0.007624
v 0.000001 0.004680 -0.000001
v 0.000000 -0.102893 -0.000000
v -0.000080 -0.102816 0.000193
v -0.000184 -0.102735 0.000445
v -0.000309 -0.102652 0.000747
v -0.000452 -0.102566 0.001091
v -0.000609 -0.102478 0.001469
v -0.000776 -0.102389 0.001872
v -0.000949 -0.102299 0.002292
v -0.001127 -0.102209 0.002720
v -0.001304 -0.102118 0.003149
v -0.001478 -0.102028 0.003569
v -0.001645 -0.101939 0.003972
v -0.001802 -0.101851 0.004350
v -0.002990 -0.097667 0.007217
v -0.004487 -0.071430 0.010833
v -0.003558 -0.004409 0.008589
v -0.004694 0.000180 0.011332
v -0.004126 0.004680 0.009962
v 0.000000 0.004680 -0.000001
v -0.000000 -0.102893 -0.000000
v 0.000000 -0.102816 0.000209
v 0.000000 -0.102735 0.000482
v 0.000000 -0.102652 0.000809
v 0.000000 -0.102566 0.001181
v 0.000000 -0.102478 0.001590
v 0.000000 -0.102389 0.002027
v 0.000000 -0.102299 0.002481
v 0.000000 -0.102209 0.002945
v 0.000000 -0.102118 0.003408
v 0.000000 -0.102028 0.003863
v 0.000000 -0.101939 0.004299
v 0.000000 -0.101851 0.004708
v 0.000000 -0.097667 0.007812
v 0.000000 -0.071430 0.011726
v 0.000000 -0.004409 0.009297
v 0.000000 0.000180 0.012266
v 0.000000 0.004680 0.010782
v -0.000000 0.004680 -0.000001
v -0.000000 -0.102893 -0.000000
v 0.000080 -0.102816 0.000193
v 0.000184 -0.102735 0.000445
v 0.000309 -0.102652 0.000747
v 0.000452 -0.102566 0.001091
v 0.000609 -0.102478 0.001469
v 0.000776 -0.102389 0.001872
v 0.000949 -0.102299 0.002292
v 0.001127 -0.102209 0.002720
v 0.001304 -0.102118 0.003149
v 0.001478 -0.102028 0.003569
v 0.001645 -0.101939 0.003972
v 0.001802 -0.101851 0.004350
v 0.002990 -0.097667 0.007217
v 0.004487 -0.071430 0.010833
v 0.003558 -0.004409 0.008589
v 0.004694 0.000180 0.011332
v 0.004126 0.004680 0.009962
v -0.000000 0.004680 -0.000001
v -0.000000 -0.102893 -0.000000
v 0.000148 -0.102816 0.000148
v 0.000341 -0.102735 0.000341
v 0.000572 -0.102652 0.000572
v 0.000835 -0.102566 0.000835
v 0.001125 -0.102478 0.001125
v 0.001433 -0.102389 0.001433
v 0.001754 -0.102299 0.001754
v 0.002082 -0.102209 0.002082
v 0.002410 -0.102118 0.002410
v 0.002731 -0.102028 0.002731
v 0.003040 -0.101939 0.003040
v 0.003329 -0.101851 0.003329
v 0.005524 -0.097667 0.005524
v 0.008292 -0.071430 0.008292
v 0.006574 -0.004409 0.006574
v 0.008673 0.000180 0.008673
v 0.007624 0.004680 0.007624
v -0.000001 0.004680 -0.000001
v -0.000000 -0.102893 -0.000000
v 0.000193 -0.102816 0.000080
v 0.000445 -0.102735 0.000184
v 0.000747 -0.102652 0.000309
v 0.001091 -0.102566 0.000452
v 0.001469 -0.102478 0.000609
v 0.001872 -0.102389 0.000776
v 0.002292 -0.102299 0.000949
v 0.002720 -0.102209 0.001127
v 0.003149 -0.102118 0.001304
v 0.003569 -0.102028 0.001478
v 0.003972 -0.101939 0.001645
v 0.004350 -0.101851 0.001802
v 0.007217 -0.097667 0.002990
v 0.010833 -0.071430 0.004487
v 0.008589 -0.004409 0.003558
v 0.011332 0.000180 0.004694
v 0.009962 0.004680 0.004126
v -0.000001 0.004680 -0.000000
v -0.000000 -0.102893 0.000000
v 0.000209 -0.102816 -0.000000
v 0.000482 -0.102735 -0.000000
v 0.000809 -0.102652 -0.000000
v 0.001181 -0.102566 -0.000000
v 0.001590 -0.102478 -0.000000
v 0.002027 -0.102389 -0.000000
v 0.002481 -0.102299 -0.000000
v 0.002945 -0.102209 -0.000000
v 0.003408 -0.102118 -0.000000
v 0.003863 -0.102028 -0.000000
v 0.004299 -0.101939 -0.000000
v 0.004708 -0.101851 -0.000000
v 0.007812 -0.097667 -0.000000
v 0.011726 -0.071430 -0.000000
v 0.009297 -0.004409 -0.000000
v 0.012266 0.000180 -0.000000
v 0.010782 0.004680 -0.000000
v -0.000001 0.004680 0.000000
v -0.000000 -0.102893 0.000000
v 0.000193 -0.102816 -0.000080
v 0.000445 -0.102735 -0.000184
v 0.000747 -0.102652 -0.000309
v 0.001091 -0.102566 -0.000452
v 0.001469 -0.102478 -0.000609
v 0.001872 -0.102389 -0.000776
v 0.002292 -0.102299 -0.000949
v 0.002720 -0.102209 -0.001127
v 0.003149 -0.102118 -0.001304
v 0.003569 -0.102028 -0.001478
v 0.003972 -0.101939 -0.001645
v 0.004350 -0.101851 -0.001802
v 0.007217 -0.097667 -0.002990
v 0.010833 -0.071430 -0.004487
v 0.008589 -0.004409 -0.003558
v 0.011332 0.000180 -0.004694
v 0.009962 0.004680 -0.004126
v -0.000001 0.004680 0.000000
v -0.000000 -0.102893 0.000000
v 0.000148 -0.102816 -0.000148
v 0.000341 -0.102735 -0.000341
v 0.000572 -0.102652 -0.000572
v 0.000835 -0.102566 -0.000835
v 0.001125 -0.102478 -0.001125
v 0.001433 -0.102389 -0.001433
v 0.001754 -0.102299 -0.001754
v 0.002082 -0.102209 -0.002082
v 0.002410 -0.102118 -0.002410
v 0.002731 -0.102028 -0.002731
v 0.003040 -0.101939 -0.003040
v 0.003329 -0.101851 -0.003329
v 0.005524 -0.097667 -0.005524
v 0.008292 -0.071430 -0.008292
v 0.006574 -0.004409 -0.006574
v 0.008673 0.000180 -0.008673
v 0.007624 0.004680 -0.007624
v -0.000001 0.004680 0.000001
v -0.000000 -0.102893 0.000000
v 0.000080 -0.102816 -0.000193
v 0.000184 -0.102735 -0.000445
v 0.000309 -0.102652 -0.000747
v 0.000452 -0.102566 -0.001091
v 0.000609 -0.102478 -0.001469
v 0.000776 -0.102389 -0.001872
v 0.000949 -0.102299 -0.002292
v 0.001127 -0.102209 -0.002720
v 0.001304 -0.102118 -0.003149
v 0.001478 -0.102028 -0.003569
v 0.001645 -0.101939 -0.003972
v 0.001802 -0.101851 -0.004350
v 0.002990 -0.097667 -0.007217
v 0.004487 -0.071430 -0.010833
v 0.003558 -0.004409 -0.008589
v 0.004694 0.000180 -0.011332
v 0.004126 0.004680 -0.009962
v -0.000000 0.004680 0.000001
v 0.000000 -0.102893 0.000000
v -0.000000 -0.102816 -0.000209
v -0.000000 -0.102735 -0.000482
v -0.000000 -0.102652 -0.000809
v -0.000000 -0.102566 -0.001181
v -0.000000 -0.102478 -0.001590
v -0.000000 -0.102389 -0.002027
v -0.000000 -0.102299 -0.002481
v -0.000000 -0.102209 -0.002945
v -0.000000 -0.102118 -0.003408
v -0.000000 -0.102028 -0.003863
v -0.000000 -0.101939 -0.004299
v -0.000000 -0.101851 -0.004708
v -0.000000 -0.097667 -0.007812
v -0.000000 -0.071430 -0.011726
v -0.000000 -0.004409 -0.009297
v -0.000000 0.000180 -0.012266
v -0.000000 0.004680 -0.010782
v 0.000000 0.004680 0.000001
v 0.000000 -0.102893 0.000000
v -0.000080 -0.102816 -0.000193
v -0.000184 -0.102735 -0.000445
v -0.000309 -0.102652 -0.000747
v -0.000452 -0.102566 -0.001091
v -0.000609 -0.102478 -0.001469
v -0.000776 -0.102389 -0.001872
v -0.000949 -0.102299 -0.002292
v -0.001127 -0.102209 -0.002720
v -0.001304 -0.102118 -0.003149
v -0.001478 -0.102028 -0.003569
v -0.001645 -0.101939 -0.003972
v -0.001802 -0.101851 -0.004350
v -0.002990 -0.097667 -0.007217
v -0.004487 -0.071430 -0.010833
v -0.003558 -0.004409 -0.008589
v -0.004694 0.000180 -0.011332
v -0.004126 0.004680 -0.009962
v 0.000000 0.004680 0.000001
v 0.000000 -0.102893 0.000000
v -0.000148 -0.102816 -0.000148
v -0.000341 -0.102735 -0.000341
v -0.000572 -0.102652 -0.000572
v -0.000835 -0.102566 -0.000835
v -0.001125 -0.102478 -0.001125
v -0.001433 -0.102389 -0.001433
v -0.001754 -0.102299 -0.001754
v -0.002082 -0.102209 -0.002082
v -0.002410 -0.102118 -0.002410
v -0.002731 -0.102028 -0.002731
v -0.003040 -0.101939 -0.003040
v -0.003329 -0.101851 -0.003329
v -0.005524 -0.097667 -0.005524
v -0.008292 -0.071430 -0.008292
v -0.006574 -0.004409 -0.006574
v -0.008673 0.000180 -0.008673
v -0.007624 0.004680 -0.007624
v 0.000001 0.004680 0.000001
v 0.000000 -0.102893 0.000000
v -0.000193 -0.102816 -0.000080
v -0.000445 -0.102735 -0.000184
v -0.000747 -0.102652 -0.000309
v -0.001091 -0.102566 -0.000452
v -0.001469 -0.102478 -0.000609
v -0.001872 -0.102389 -0.000776
v -0.002292 -0.102299 -0.000949
v -0.002720 -0.102209 -0.001127
v -0.003149 -0.102118 -0.001304
v -0.003569 -0.102028 -0.001478
v -0.003972 -0.101939 -0.001645
v -0.004350 -0.101851 -0.001802
v -0.007217 -0.097667 -0.002990
v -0.010833 -0.071430 -0.004487
v -0.008589 -0.004409 -0.003558
v -0.011332 0.000180 -0.004694
v -0.009962 0.004680 -0.004126
v 0.000001 0.004680 0.000000
vn 0.3473 0.9377 -0.0000
vn 0.3120 0.9501 -0.0000
vn 0.2882 0.9501 -0.1194
vn 0.3209 0.9378 -0.1329
vn 0.2206 0.9501 -0.2206
vn 0.2456 0.9377 -0.2456
vn 0.1194 0.9501 -0.2882
vn 0.1330 0.9377 -0.3209
vn -0.0000 0.9501 -0.3120
vn -0.0000 0.9377 -0.3473
vn -0.1194 0.9501 -0.2882
vn -0.1330 0.9377 -0.3209
vn -0.2206 0.9501 -0.2206
vn -0.2456 0.9377 -0.2456
vn -0.2882 0.9501 -0.1194
vn -0.3208 0.9378 -0.1329
vn -0.3120 0.9501 -0.0000
vn -0.3474 0.9377 -0.0000
vn -0.2882 0.9501 0.1194
vn -0.3209 0.9377 0.1329
vn -0.2205 0.9501 0.2206
vn -0.2455 0.9378 0.2456
vn -0.1194 0.9501 0.2882
vn -0.1329 0.9377 0.3209
vn -0.0000 0.9501 0.3120
vn -0.0000 0.9377 0.3473
vn 0.1194 0.9501 0.2882
vn 0.1330 0.9377 0.3209
vn 0.2206 0.9501 0.2206
vn 0.2456 0.9377 0.2456
vn 0.2882 0.9501 0.1194
vn 0.3209 0.9377 0.1329
vn 0.2634 0.9647 -0.0000
vn 0.2433 0.9647 -0.1008
vn 0.1862 0.9647 -0.1862
vn 0.1008 0.9647 -0.2433
vn -0.0000 0.9647 -0.2634
vn -0.1008 0.9647 -0.2433
vn -0.1862 0.9647 -0.1862
vn -0.2433 0.9647 -0.1008
vn -0.2634 0.9647 -0.0000
vn -0.2433 0.9647 0.1008
vn -0.1862 0.9647 0.1862
vn -0.1008 0.9647 0.2433
vn -0.0000 0.9647 0.2634
vn 0.1008 0.9647 0.2433
vn 0.1862 0.9647 0.1862
vn 0.2433 0.9647 0.1008
vn 0.2345 0.9721 -0.0000
vn 0.2166 0.9721 -0.0897
vn 0.1658 0.9721 -0.1658
vn 0.0897 0.9721 -0.2166
vn -0.0000 0.9721 -0.2345
vn -0.0897 0.9721 -0.2166
vn -0.1658 0.9721 -0.1658
vn -0.2167 0.9721 -0.0897
vn -0.2345 0.9721 -0.0000
vn -0.2166 0.9721 0.0897
vn -0.1658 0.9721 0.1658
vn -0.0897 0.9721 0.2166
vn -0.0000 0.9721 0.2345
vn 0.0897 0.9721 0.2166
vn 0.1658 0.9721 0.1658
vn 0.2166 0.9721 0.0897
vn 0.2162 0.9764 -0.0000
vn 0.1997 0.9764 -0.0827
vn 0.1529 0.9764 -0.1529
vn 0.0827 0.9764 -0.1997
vn -0.0000 0.9764 -0.2162
vn -0.0827 0.9764 -0.1997
vn -0.1529 0.9764 -0.1529
vn -0.1997 0.9764 -0.0827
vn -0.2162 0.9764 -0.0000
vn -0.1997 0.9764 0.0827
vn -0.1529 0.9764 0.1529
vn -0.0827 0.9764 0.1997
vn -0.0000 0.9764 0.2162
vn 0.0827 0.9764 0.1997
vn 0.1529 0.9764 0.1529
vn 0.1997 0.9764 0.0827
vn 0.2043 0.9789 -0.0000
vn 0.1888 0.9789 -0.0782
vn 0.1445 0.9789 -0.1445
vn 0.0782 0.9789 -0.1888
vn -0.0000 0.9789 -0.2043
vn -0.0782 0.9789 -0.1888
vn -0.1445 0.9789 -0.1445
vn -0.1888 0.9789 -0.0782
vn -0.2043 0.9789 -0.0000
vn -0.1888 0.9789 0.0782
vn -0.1445 0.9789 0.1445
vn -0.0782 0.9789 0.1888
vn -0.0000 0.9789 0.2043
vn 0.0782 0.9789 0.1888
vn 0.1445 0.9789 0.1445
vn 0.1888 0.9789 0.0782
vn 0.1969 0.9804 -0.0000
vn 0.1819 0.9804 -0.0753
vn 0.1392 0.9804 -0.1392
vn 0.0753 0.9804 -0.1819
vn -0.0000 0.9804 -0.1969
vn -0.0753 0.9804 -0.1819
vn -0.1392 0.9804 -0.1392
vn -0.1819 0.9804 -0.0753
vn -0.1969 0.9804 -0.0000
vn -0.1819 0.9804 0.0753
vn -0.1392 0.9804 0.1392
vn -0.0753 0.9804 0.1819
vn -0.0000 0.9804 0.1969
vn 0.0753 0.9804 0.1819
vn 0.1392 0.9804 0.1392
vn 0.1819 0.9804 0.0753
vn 0.1928 0.9812 -0.0000
vn 0.1782 0.9812 -0.0738
vn 0.1364 0.9812 -0.1364
vn 0.0738 0.9812 -0.1782
vn -0.0000 0.9812 -0.1928
vn -0.0738 0.9812 -0.1782
vn -0.1364 0.9812 -0.1364
vn -0.1782 0.9812 -0.0738
vn -0.1928 0.9812 -0.0000
vn -0.1782 0.9812 0.0738
vn -0.1364 0.9812 0.1364
vn -0.0738 0.9812 0.1782
vn -0.0000 0.9812 0.1928
vn 0.0738 0.9812 0.1782
vn 0.1364 0.9812 0.1364
vn 0.1782 0.9812 0.0738
vn 0.1916 0.9815 -0.0000
vn 0.1771 0.9815 -0.0733
vn 0.1355 0.9815 -0.1355
vn 0.0733 0.9815 -0.1771
vn -0.0000 0.9815 -0.1916
vn -0.0733 0.9815 -0.1771
vn -0.1355 0.9815 -0.1355
vn -0.1771 0.9815 -0.0733
vn -0.1916 0.9815 -0.0000
vn -0.1771 0.9815 0.0733
vn -0.1355 0.9815 0.1355
vn -0.0733 0.9815 0.1771
vn -0.0000 0.9815 0.1916
vn 0.0733 0.9815 0.1771
vn 0.1355 0.9815 0.1355
vn 0.1771 0.9815 0.0733
vn 0.1932 0.9812 -0.0000
vn 0.1785 0.9812 -0.0739
vn 0.1366 0.9812 -0.1366
vn 0.0739 0.9812 -0.1785
vn -0.0000 0.9812 -0.1932
vn -0.0739 0.9812 -0.1785
vn -0.1366 0.9812 -0.1366
vn -0.1785 0.9812 -0.0739
vn -0.1932 0.9812 -0.0000
vn -0.1785 0.9812 0.0739
vn -0.1366 0.9812 0.1366
vn -0.0739 0.9812 0.1785
vn -0.0000 0.9812 0.1932
vn 0.0739 0.9812 0.1785
vn 0.1366 0.9812 0.1366
vn 0.1785 0.9812 0.0739
vn 0.1976 0.9803 -0.0000
vn 0.1826 0.9803 -0.0756
vn 0.1397 0.9803 -0.1397
vn 0.0756 0.9803 -0.1826
vn -0.0000 0.9803 -0.1976
vn -0.0756 0.9803 -0.1826
vn -0.1397 0.9803 -0.1397
vn -0.1826 0.9803 -0.0756
vn -0.1976 0.9803 -0.0000
vn -0.1826 0.9803 0.0756
vn -0.1397 0.9803 0.1397
vn -0.0756 0.9803 0.1826
vn -0.0000 0.9803 0.1976
vn 0.0756 0.9803 0.1826
vn 0.1397 0.9803 0.1397
vn 0.1825 0.9803 0.0756
vn 0.2055 0.9787 -0.0000
vn 0.1899 0.9787 -0.0786
vn 0.1453 0.9787 -0.1453
vn 0.0786 0.9787 -0.1899
vn -0.0000 0.9787 -0.2055
vn -0.0786 0.9787 -0.1899
vn -0.1453 0.9787 -0.1453
vn -0.1899 0.9787 -0.0786
vn -0.2055 0.9787 -0.0000
vn -0.1899 0.9787 0.0786
vn -0.1453 0.9787 0.1453
vn -0.0786 0.9787 0.1899
vn -0.0000 0.9787 0.2055
vn 0.0786 0.9787 0.1899
vn 0.1453 0.9787 0.1453
vn 0.1899 0.9787 0.0786
vn 0.5709 0.8210 -0.0000
vn 0.5274 0.8210 -0.2185
vn 0.4037 0.8210 -0.4037
vn 0.2185 0.8210 -0.5274
vn -0.0000 0.8210 -0.5709
vn -0.2185 0.8210 -0.5274
vn -0.4037 0.8210 -0.4037
vn -0.5274 0.8210 -0.2185
vn -0.5709 0.8210 -0.0000
vn -0.5275 0.8210 0.2185
vn -0.4037 0.8210 0.4037
vn -0.2185 0.8210 0.5274
vn -0.0000 0.8210 0.5709
vn 0.2185 0.8210 0.5274
vn 0.4037 0.8210 0.4037
vn 0.5274 0.8210 0.2185
vn 0.9279 0.3729 -0.0000
vn 0.8573 0.3729 -0.3551
vn 0.6561 0.3729 -0.6561
vn 0.3551 0.3729 -0.8573
vn -0.0000 0.3729 -0.9279
vn -0.3551 0.3729 -0.8573
vn -0.6561 0.3729 -0.6561
vn -0.8573 0.3729 -0.3551
vn -0.9279 0.3729 -0.0000
vn -0.8573 0.3729 0.3551
vn -0.6561 0.3729 0.6561
vn -0.3551 0.3729 0.8573
vn -0.0000 0.3729 0.9279
vn 0.3551 0.3729 0.8573
vn 0.6561 0.3729 0.6561
vn 0.8573 0.3729 0.3551
vn 0.9985 0.0553 -0.0000
vn 0.9225 0.0553 -0.3821
vn 0.7060 0.0553 -0.7060
vn 0.3821 0.0553 -0.9225
vn -0.0000 0.0553 -0.9985
vn -0.3821 0.0553 -0.9225
vn -0.7060 0.0553 -0.7060
vn -0.9225 0.0553 -0.3821
vn -0.9985 0.0553 -0.0000
vn -0.9225 0.0553 0.3821
vn -0.7060 0.0553 0.7060
vn -0.3821 0.0553 0.9225
vn -0.0000 0.0553 0.9985
vn 0.3821 0.0553 0.9225
vn 0.7060 0.0553 0.7060
vn 0.9225 0.0553 0.3821
vn 0.9612 0.2759 -0.0000
vn 0.8880 0.2759 -0.3678
vn 0.6797 0.2759 -0.6797
vn 0.3678 0.2759 -0.8880
vn -0.0000 0.2759 -0.9612
vn -0.3678 0.2759 -0.8880
vn -0.6797 0.2759 -0.6797
vn -0.8880 0.2759 -0.3678
vn -0.9612 0.2759 -0.0000
vn -0.8880 0.2759 0.3678
vn -0.6797 0.2759 0.6797
vn -0.3678 0.2759 0.8880
vn -0.0000 0.2759 0.9612
vn 0.3678 0.2759 0.8880
vn 0.6797 0.2759 0.6797
vn 0.8880 0.2759 0.3678
vn 0.9926 0.1213 -0.0000
vn 0.9171 0.1213 -0.3799
vn 0.7019 0.1213 -0.7019
vn 0.3799 0.1213 -0.9171
vn -0.0000 0.1213 -0.9926
vn -0.3799 0.1213 -0.9171
vn -0.7019 0.1213 -0.7019
vn -0.9171 0.1213 -0.3799
vn -0.9926 0.1213 -0.0000
vn -0.9171 0.1213 0.3799
vn -0.7019 0.1213 0.7019
vn -0.3799 0.1213 0.9171
vn -0.0000 0.1213 0.9926
vn 0.3799 0.1213 0.9171
vn 0.7019 0.1213 0.7019
vn 0.9171 0.1213 0.3799
vn 0.6302 -0.7765 -0.0000
vn 0.5822 -0.7765 -0.2412
vn 0.4456 -0.7765 -0.4456
vn 0.2412 -0.7765 -0.5822
vn -0.0000 -0.7765 -0.6302
vn -0.2412 -0.7765 -0.5822
vn -0.4456 -0.7765 -0.4456
vn -0.5822 -0.7765 -0.2412
vn -0.6302 -0.7765 -0.0000
vn -0.5822 -0.7765 0.2412
vn -0.4456 -0.7765 0.4456
vn -0.2412 -0.7765 0.5822
vn -0.0000 -0.7765 0.6302
vn 0.2412 -0.7765 0.5822
vn 0.4456 -0.7765 0.4456
vn 0.5822 -0.7765 0.2412
vn -0.0000 -1.0000 -0.0000
vt 0.000000 -0.102893
vt 0.000000 -0.102816
vt 0.062500 -0.102816
vt 0.062500 -0.102893
vt 0.125000 -0.102816
vt 0.125000 -0.102893
vt 0.187500 -0.102816
vt 0.187500 -0.102893
vt 0.250000 -0.102816
vt 0.250000 -0.102893
vt 0.312500 -0.102816
vt 0.312500 -0.102893
vt 0.375000 -0.102816
vt 0.375000 -0.102893
vt 0.437500 -0.102816
vt 0.437500 -0.102893
vt 0.500000 -0.102816
vt 0.500000 -0.102893
vt 0.562500 -0.102816
vt 0.562500 -0.102893
vt 0.625000 -0.102816
vt 0.625000 -0.102893
vt 0.687500 -0.102816
vt 0.687500 -0.102893
vt 0.750000 -0.102816
vt 0.750000 -0.102893
vt 0.812500 -0.102816
vt 0.812500 -0.102893
vt 0.875000 -0.102816
vt 0.875000 -0.102893
vt 0.937500 -0.102816
vt 0.937500 -0.102893
vt 1.000000 -0.102816
vt 1.000000 -0.102893
vt 0.000000 -0.102735
vt 0.062500 -0.102735
vt 0.125000 -0.102735
vt 0.187500 -0.102735
vt 0.250000 -0.102735
vt 0.312500 -0.102735
vt 0.375000 -0.102735
vt 0.437500 -0.102735
vt 0.500000 -0.102735
vt 0.562500 -0.102735
vt 0.625000 -0.102735
vt 0.687500 -0.102735
vt 0.750000 -0.102735
vt 0.812500 -0.102735
vt 0.875000 -0.102735
vt 0.937500 -0.102735
vt 1.000000 -0.102735
vt 0.000000 -0.102652
vt 0.062500 -0.102652
vt 0.125000 -0.102652
vt 0.187500 -0.102652
vt 0.250000 -0.102652
vt 0.312500 -0.102652
vt 0.375000 -0.102652
vt 0.437500 -0.102652
vt 0.500000 -0.102652
vt 0.562500 -0.102652
vt 0.625000 -0.102652
vt 0.687500 -0.102652
vt 0.750000 -0.102652
vt 0.812500 -0.102652
vt 0.875000 -0.102652
vt 0.937500 -0.102652
vt 1.000000 -0.102652
vt 0.000000 -0.102566
vt 0.062500 -0.102566
vt 0.125000 -0.102566
vt 0.187500 -0.102566
vt 0.250000 -0.102566
vt 0.312500 -0.102566
vt 0.375000 -0.102566
vt 0.437500 -0.102566
vt 0.500000 -0.102566
vt 0.562500 -0.102566
vt 0.625000 -0.102566
vt 0.687500 -0.102566
vt 0.750000 -0.102566
vt 0.812500 -0.102566
vt 0.875000 -0.102566
vt 0.937500 -0.102566
vt 1.000000 -0.102566
vt 0.000000 -0.102478
vt 0.062500 -0.102478
vt 0.125000 -0.102478
vt 0.187500 -0.102478
vt 0.250000 -0.102478
vt 0.312500 -0.102478
vt 0.375000 -0.102478
vt 0.437500 -0.102478
vt 0.500000 -0.102478
vt 0.562500 -0.102478
vt 0.625000 -0.102478
vt 0.687500 -0.102478
vt 0.750000 -0.102478
vt 0.812500 -0.102478
vt 0.875000 -0.102478
vt 0.937500 -0.102478
vt 1.000000 -0.102478
vt 0.000000 -0.102389
vt 0.062500 -0.102389
vt 0.125000 -0.102389
vt 0.187500 -0.102389
vt 0.250000 -0.102389
vt 0.312500 -0.102389
vt 0.375000 -0.102389
vt 0.437500 -0.102389
vt 0.500000 -0.102389
vt 0.562500 -0.102389
vt 0.625000 -0.102389
vt 0.687500 -0.102389
vt 0.750000 -0.102389
vt 0.812500 -0.102389
vt 0.875000 -0.102389
vt 0.937500 -0.102389
vt 1.000000 -0.102389
vt 0.000000 -0.102299
vt 0.062500 -0.102299
vt 0.125000 -0.102299
vt 0.187500 -0.102299
vt 0.250000 -0.102299
vt 0.312500 -0.102299
vt 0.375000 -0.102299
vt 0.437500 -0.102299
vt 0.500000 -0.102299
vt 0.562500 -0.102299
vt 0.625000 -0.102299
vt 0.687500 -0.102299
vt 0.750000 -0.102299
vt 0.812500 -0.102299
vt 0.875000 -0.102299
vt 0.937500 -0.102299
vt 1.000000 -0.102299
vt 0.000000 -0.102209
vt 0.062500 -0.102209
vt 0.125000 -0.102209
vt 0.187500 -0.102209
vt 0.250000 -0.102209
vt 0.312500 -0.102209
vt 0.375000 -0.102209
vt 0.437500 -0.102209
vt 0.500000 -0.102209
vt 0.562500 -0.102209
vt 0.625000 -0.102209
vt 0.687500 -0.102209
vt 0.750000 -0.102209
vt 0.812500 -0.102209
vt 0.875000 -0.102209
vt 0.937500 -0.102209
vt 1.000000 -0.102209
vt 0.000000 -0.102118
vt 0.062500 -0.102118
vt 0.125000 -0.102118
vt 0.187500 -0.102118
vt 0.250000 -0.102118
vt 0.312500 -0.102118
vt 0.375000 -0.102118
vt 0.437500 -0.102118
vt 0.500000 -0.102118
vt 0.562500 -0.102118
vt 0.625000 -0.102118
vt 0.687500 -0.102118
vt 0.750000 -0.102118
vt 0.812500 -0.102118
vt 0.875000 -0.102118
vt 0.937500 -0.102118
vt 1.000000 -0.102118
vt 0.000000 -0.102028
vt 0.062500 -0.102028
vt 0.125000 -0.102028
vt 0.187500 -0.102028
vt 0.250000 -0.102028
vt 0.312500 -0.102028
vt 0.375000 -0.102028
vt 0.437500 -0.102028
vt 0.500000 -0.102028
vt 0.562500 -0.102028
vt 0.625000 -0.102028
vt 0.687500 -0.102028
vt 0.750000 -0.102028
vt 0.812500 -0.102028
vt 0.875000 -0.102028
vt 0.937500 -0.102028
vt 1.000000 -0.102028
vt 0.000000 -0.101939
vt 0.062500 -0.101939
vt 0.125000 -0.101939
vt 0.187500 -0.101939
vt 0.250000 -0.101939
vt 0.312500 -0.101939
vt 0.375000 -0.101939
vt 0.437500 -0.101939
vt 0.500000 -0.101939
vt 0.562500 -0.101939
vt 0.625000 -0.101939
vt 0.687500 -0.101939
vt 0.750000 -0.101939
vt 0.812500 -0.101939
vt 0.875000 -0.101939
vt 0.937500 -0.101939
vt 1.000000 -0.101939
vt 0.000000 -0.101851
vt 0.062500 -0.101851
vt 0.125000 -0.101851
vt 0.187500 -0.101851
vt 0.250000 -0.101851
vt 0.312500 -0.101851
vt 0.375000 -0.101851
vt 0.437500 -0.101851
vt 0.500000 -0.101851
vt 0.562500 -0.101851
vt 0.625000 -0.101851
vt 0.687500 -0.101851
vt 0.750000 -0.101851
vt 0.812500 -0.101851
vt 0.875000 -0.101851
vt 0.937500 -0.101851
vt 1.000000 -0.101851
vt 0.000000 -0.097667
vt 0.062500 -0.097667
vt 0.125000 -0.097667
vt 0.187500 -0.097667
vt 0.250000 -0.097667
vt 0.312500 -0.097667
vt 0.375000 -0.097667
vt 0.437500 -0.097667
vt 0.500000 -0.097667
vt 0.562500 -0.097667
vt 0.625000 -0.097667
vt 0.687500 -0.097667
vt 0.750000 -0.097667
vt 0.812500 -0.097667
vt 0.875000 -0.097667
vt 0.937500 -0.097667
vt 1.000000 -0.097667
vt 0.000000 -0.071430
vt 0.062500 -0.071430
vt 0.125000 -0.071430
vt 0.187500 -0.071430
vt 0.250000 -0.071430
vt 0.312500 -0.071430
vt 0.375000 -0.071430
vt 0.437500 -0.071430
vt 0.500000 -0.071430
vt 0.562500 -0.071430
vt 0.625000 -0.071430
vt 0.687500 -0.071430
vt 0.750000 -0.071430
vt 0.812500 -0.071430
vt 0.875000 -0.071430
vt 0.937500 -0.071430
vt 1.000000 -0.071430
vt 0.000000 -0.004409
vt 0.062500 -0.004409
vt 0.125000 -0.004409
vt 0.187500 -0.004409
vt 0.250000 -0.004409
vt 0.312500 -0.004409
vt 0.375000 -0.004409
vt 0.437500 -0.004409
vt 0.500000 -0.004409
vt 0.562500 -0.004409
vt 0.625000 -0.004409
vt 0.687500 -0.004409
vt 0.750000 -0.004409
vt 0.812500 -0.004409
vt 0.875000 -0.004409
vt 0.937500 -0.004409
vt 1.000000 -0.004409
vt 0.000000 0.000180
vt 0.062500 0.000180
vt 0.125000 0.000180
vt 0.187500 0.000180
vt 0.250000 0.000180
vt 0.312500 0.000180
vt 0.375000 0.000180
vt 0.437500 0.000180
vt 0.500000 0.000180
vt 0.562500 0.000180
vt 0.625000 0.000180
vt 0.687500 0.000180
vt 0.750000 0.000180
vt 0.812500 0.000180
vt 0.875000 0.000180
vt 0.937500 0.000180
vt 1.000000 0.000180
vt 0.000000 0.004680
vt 0.062500 0.004680
vt 0.125000 0.004680
vt 0.187500 0.004680
vt 0.250000 0.004680
vt 0.312500 0.004680
vt 0.375000 0.004680
vt 0.437500 0.004680
vt 0.500000 0.004680
vt 0.562500 0.004680
vt 0.625000 0.004680
vt 0.687500 0.004680
vt 0.750000 0.004680
vt 0.812500 0.004680
vt 0.875000 0.004680
vt 0.937500 0.004680
vt 1.000000 0.004680
vt 0.000000 0.004680
vt 0.062500 0.004680
vt 0.125000 0.004680
vt 0.187500 0.004680
vt 0.250000 0.004680
vt 0.312500 0.004680
vt 0.375000 0.004680
vt 0.437500 0.004680
vt 0.500000 0.004680
vt 0.562500 0.004680
vt 0.625000 0.004680
vt 0.687500 0.004680
vt 0.750000 0.004680
vt 0.812500 0.004680
vt 0.875000 0.004680
vt 0.937500 0.004680
vt 1.000000 0.004680
s 1
f 55/19/19 56/20/20 75/21/21 74/22/22
f 74/22/22 75/21/21 94/23/23 93/24/24
f 93/24/24 94/23/23 113/25/25 112/26/26
f 112/26/26 113/25/25 132/27/27 131/28/28
f 131/28/28 132/27/27 151/29/29 150/30/30
f 150/30/30 151/29/29 170/31/31 169/32/32
f 169/32/32 170/31/31 189/33/33 188/34/34
f 188/34/34 189/33/33 208/35/35 207/36/36
f 207/36/36 208/35/35 227/37/37 226/38/38
f 226/38/38 227/37/37 246/39/39 245/40/40
f 245/40/40 246/39/39 265/41/41 264/42/42
f 264/42/42 265/41/41 284/43/43 283/44/44
f 283/44/44 284/43/43 303/45/45 302/46/46
f 302/46/46 303/45/45 322/47/47 321/48/48
f 321/48/48 322/47/47 341/49/49 340/50/50
f 340/50/50 341/49/49 56/51/20 55/52/19
f 56/20/20 57/53/51 76/54/52 75/21/21
f 75/21/21 76/54/52 95/55/53 94/23/23
f 94/23/23 95/55/53 114/56/54 113/25/25
f 113/25/25 114/56/54 133/57/55 132/27/27
f 132/27/27 133/57/55 152/58/56 151/29/29
f 151/29/29 152/58/56 171/59/57 170/31/31
f 170/31/31 171/59/57 190/60/58 189/33/33
f 189/33/33 190/60/58 209/61/59 208/35/35
f 208/35/35 209/61/59 228/62/60 227/37/37
f 227/37/37 228/62/60 247/63/61 246/39/39
f 246/39/39 247/63/61 266/64/62 265/41/41
f 265/41/41 266/64/62 285/65/63 284/43/43
f 284/43/43 285/65/63 304/66/64 303/45/45
f 303/45/45 304/66/64 323/67/65 322/47/47
f 322/47/47 323/67/65 342/68/66 341/49/49
f 341/49/49 342/68/66 57/69/51 56/51/20
f 57/53/51 58/70/67 77/71/68 76/54/52
f 76/54/52 77/71/68 96/72/69 95/55/53
f 95/55/53 96/72/69 115/73/70 114/56/54
f 114/56/54 115/73/70 134/74/71 133/57/55
f 133/57/55 134/74/71 153/75/72 152/58/56
f 152/58/56 153/75/72 172/76/73 171/59/57
f 171/59/57 172/76/73 191/77/74 190/60/58
f 190/60/58 191/77/74 210/78/75 209/61/59
f 209/61/59 210/78/75 229/79/76 228/62/60
f 228/62/60 229/79/76 248/80/77 247/63/61
f 247/63/61 248/80/77 267/81/78 266/64/62
f 266/64/62 267/81/78 286/82/79 285/65/63
f 285/65/63 286/82/79 305/83/80 304/66/64
f 304/66/64 305/83/80 324/84/81 323/67/65
f 323/67/65 324/84/81 343/85/82 342/68/66
f 342/68/66 343/85/82 58/86/67 57/69/51
f 58/70/67 59/87/83 78/88/84 77/71/68
f 77/71/68 78/88/84 97/89/85 96/72/69
f 96/72/69 97/89/85 116/90/86 115/73/70
f 115/73/70 116/90/86 135/91/87 134/74/71
f 134/74/71 135/91/87 154/92/88 153/75/72
f 153/75/72 154/92/88 173/93/89 172/76/73
f 172/76/73 173/93/89 192/94/90 191/77/74
f 191/77/74 192/94/90 211/95/91 210/78/75
f 210/78/75 211/95/91 230/96/92 229/79/76
f 229/79/76 230/96/92 249/97/93 248/80/77
f 248/80/77 249/97/93 268/98/94 267/81/78
f 267/81/78 268/98/94 287/99/95 286/82/79
f 286/82/79 287/99/95 306/100/96 305/83/80
f 305/83/80 306/100/96 325/101/97 324/84/81
f 324/84/81 325/101/97 344/102/98 343/85/82
f 343/85/82 344/102/98 59/103/83 58/86/67
f 59/87/83 60/104/99 79/105/100 78/88/84
f 78/88/84 79/105/100 98/106/101 97/89/85
f 97/89/85 98/106/101 117/107/102 116/90/86
f 116/90/86 117/107/102 136/108/103 135/91/87
f 135/91/87 136/108/103 155/109/104 154/92/88
f 154/92/88 155/109/104 174/110/105 173/93/89
f 173/93/89 174/110/105 193/111/106 192/94/90
f 192/94/90 193/111/106 212/112/107 211/95/91
f 211/95/91 212/112/107 231/113/108 230/96/92
f 230/96/92 231/113/108 250/114/109 249/97/93
f 249/97/93 250/114/109 269/115/110 268/98/94
f 268/98/94 269/115/110 288/116/111 287/99/95
f 287/99/95 288/116/111 307/117/112 306/100/96
f 306/100/96 307/117/112 326/118/113 325/101/97
f 325/101/97 326/118/113 345/119/114 344/102/98
f 344/102/98 345/119/114 60/120/99 59/103/83
f 60/104/99 61/121/115 80/122/116 79/105/100
f 79/105/100 80/122/116 99/123/117 98/106/101
f 98/106/101 99/123/117 118/124/118 117/107/102
f 117/107/102 118/124/118 137/125/119 136/108/103
f 136/108/103 137/125/119 156/126/120 155/109/104
f 155/109/104 156/126/120 175/127/121 174/110/105
f 174/110/105 175/127/121 194/128/122 193/111/106
f 193/111/106 194/128/122 213/129/123 212/112/107
f 212/112/107 213/129/123 232/130/124 231/113/108
f 231/113/108 232/130/124 251/131/125 250/114/109
f 250/114/109 251/131/125 270/132/126 269/115/110
f 269/115/110 270/132/126 289/133/127 288/116/111
f 288/116/111 289/133/127 308/134/128 307/117/112
f 307/117/112 308/134/128 327/135/129 326/118/113
f 326/118/113 327/135/129 346/136/130 345/119/114
f 345/119/114 346/136/130 61/137/115 60/120/99
f 61/121/115 62/138/131 81/139/132 80/122/116
f 80/122/116 81/139/132 100/140/133 99/123/117
f 99/123/117 100/140/133 119/141/134 118/124/118
f 118/124/118 119/141/134 138/142/135 137/125/119
f 137/125/119 138/142/135 157/143/136 156/126/120
f 156/126/120 157/143/136 176/144/137 175/127/121
f 175/127/121 176/144/137 195/145/138 194/128/122
f 194/128/122 195/145/138 214/146/139 213/129/123
f 213/129/123 214/146/139 233/147/140 232/130/124
f 232/130/124 233/147/140 252/148/141 251/131/125
f 251/131/125 252/148/141 271/149/142 270/132/126
f 270/132/126 271/149/142 290/150/143 289/133/127
f 289/133/127 290/150/143 309/151/144 308/134/128
f 308/134/128 309/151/144 328/152/145 327/135/129
f 327/135/129 328/152/145 347/153/146 346/136/130
f 346/136/130 347/153/146 62/154/131 61/137/115
f 62/138/131 63/155/147 82/156/148 81/139/132
f 81/139/132 82/156/148 101/157/149 100/140/133
f 100/140/133 101/157/149 120/158/150 119/141/134
f 119/141/134 120/158/150 139/159/151 138/142/135
f 138/142/135 139/159/151 158/160/152 157/143/136
f 157/143/136 158/160/152 177/161/153 176/144/137
f 176/144/137 177/161/153 196/162/154 195/145/138
f 195/145/138 196/162/154 215/163/155 214/146/139
f 214/146/139 215/163/155 234/164/156 233/147/140
f 233/147/140 234/164/156 253/165/157 252/148/141
f 252/148/141 253/165/157 272/166/158 271/149/142
f 271/149/142 272/166/158 291/167/159 290/150/143
f 290/150/143 291/167/159 310/168/160 309/151/144
f 309/151/144 310/168/160 329/169/161 328/152/145
f 328/152/145 329/169/161 348/170/162 347/153/146
f 347/153/146 348/170/162 63/171/147 62/154/131
f 63/155/147 64/172/163 83/173/164 82/156/148
f 82/156/148 83/173/164 102/174/165 101/157/149
f 101/157/149 102/174/165 121/175/166 120/158/150
f 120/158/150 121/175/166 140/176/167 139/159/151
f 139/159/151 140/176/167 159/177/168 158/160/152
f 158/160/152 159/177/168 178/178/169 177/161/153
f 177/161/153 178/178/169 197/179/170 196/162/154
f 196/162/154 197/179/170 216/180/171 215/163/155
f 215/163/155 216/180/171 235/181/172 234/164/156
f 234/164/156 235/181/172 254/182/173 253/165/157
f 253/165/157 254/182/173 273/183/174 272/166/158
f 272/166/158 273/183/174 292/184/175 291/167/159
f 291/167/159 292/184/175 311/185/176 310/168/160
f 310/168/160 311/185/176 330/186/177 329/169/161
f 329/169/161 330/186/177 349/187/178 348/170/162
f 348/170/162 349/187/178 64/188/163 63/171/147
f 64/172/163 65/189/179 84/190/180 83/173/164
f 83/173/164 84/190/180 103/191/181 102/174/165
f 102/174/165 103/191/181 122/192/182 121/175/166
f 121/175/166 122/192/182 141/193/183 140/176/167
f 140/176/167 141/193/183 160/194/184 159/177/168
f 159/177/168 160/194/184 179/195/185 178/178/169
f 178/178/169 179/195/185 198/196/186 197/179/170
f 197/179/170 198/196/186 217/197/187 216/180/171
f 216/180/171 217/197/187 236/198/188 235/181/172
f 235/181/172 236/198/188 255/199/189 254/182/173
f 254/182/173 255/199/189 274/200/190 273/183/174
f 273/183/174 274/200/190 293/201/191 292/184/175
f 292/184/175 293/201/191 312/202/192 311/185/176
f 311/185/176 312/202/192 331/203/193 330/186/177
f 330/186/177 331/203/193 350/204/194 349/187/178
f 349/187/178 350/204/194 65/205/179 64/188/163
f 65/189/179 66/206/195 85/207/196 84/190/180
f 84/190/180 85/207/196 104/208/197 103/191/181
f 103/191/181 104/208/197 123/209/198 122/192/182
f 122/192/182 123/209/198 142/210/199 141/193/183
f 141/193/183 142/210/199 161/211/200 160/194/184
f 160/194/184 161/211/200 180/212/201 179/195/185
f 179/195/185 180/212/201 199/213/202 198/196/186
f 198/196/186 199/213/202 218/214/203 217/197/187
f 217/197/187 218/214/203 237/215/204 236/198/188
f 236/198/188 237/215/204 256/216/205 255/199/189
f 255/199/189 256/216/205 275/217/206 274/200/190
f 274/200/190 275/217/206 294/218/207 293/201/191
f 293/201/191 294/218/207 313/219/208 312/202/192
f 312/202/192 313/219/208 332/220/209 331/203/193
f 331/203/193 332/220/209 351/221/210 350/204/194
f 350/204/194 351/221/210 66/222/195 65/205/179
f 66/206/195 67/223/211 86/224/212 85/207/196
f 85/207/196 86/224/212 105/225/213 104/208/197
f 104/208/197 105/225/213 124/226/214 123/209/198
f 123/209/198 124/226/214 143/227/215 142/210/199
f 142/210/199 143/227/215 162/228/216 161/211/200
f 161/211/200 162/228/216 181/229/217 180/212/201
f 180/212/201 181/229/217 200/230/218 199/213/202
f 199/213/202 200/230/218 219/231/219 218/214/203
f 218/214/203 219/231/219 238/232/220 237/215/204
f 237/215/204 238/232/220 257/233/221 256/216/205
f 256/216/205 257/233/221 276/234/222 275/217/206
f 275/217/206 276/234/222 295/235/223 294/218/207
f 294/218/207 295/235/223 314/236/224 313/219/208
f 313/219/208 314/236/224 333/237/225 332/220/209
f 332/220/209 333/237/225 352/238/226 351/221/210
f 351/221/210 352/238/226 67/239/211 66/222/195
f 67/223/211 68/240/227 87/241/228 86/224/212
f 86/224/212 87/241/228 106/242/229 105/225/213
f 105/225/213 106/242/229 125/243/230 124/226/214
f 124/226/214 125/243/230 144/244/231 143/227/215
f 143/227/215 144/244/231 163/245/232 162/228/216
f 162/228/216 163/245/232 182/246/233 181/229/217
f 181/229/217 182/246/233 201/247/234 200/230/218
f 200/230/218 201/247/234 220/248/235 219/231/219
f 219/231/219 220/248/235 239/249/236 238/232/220
f 238/232/220 239/249/236 258/250/237 257/233/221
f 257/233/221 258/250/237 277/251/238 276/234/222
f 276/234/222 277/251/238 296/252/239 295/235/223
f 295/235/223 296/252/239 315/253/240 314/236/224
f 314/236/224 315/253/240 334/254/241 333/237/225
f 333/237/225 334/254/241 353/255/242 352/238/226
f 352/238/226 353/255/242 68/256/227 67/239/211
f 68/240/227 69/257/243 88/258/244 87/241/228
f 87/241/228 88/258/244 107/259/245 106/242/229
f 106/242/229 107/259/245 126/260/246 125/243/230
f 125/243/230 126/260/246 145/261/247 144/244/231
f 144/244/231 145/261/247 164/262/248 163/245/232
f 163/245/232 164/262/248 183/263/249 182/246/233
f 182/246/233 183/263/249 202/264/250 201/247/234
f 201/247/234 202/264/250 221/265/251 220/248/235
f 220/248/235 221/265/251 240/266/252 239/249/236
f 239/249/236 240/266/252 259/267/253 258/250/237
f 258/250/237 259/267/253 278/268/254 277/251/238
f 277/251/238 278/268/254 297/269/255 296/252/239
f 296/252/239 297/269/255 316/270/256 315/253/240
f 315/253/240 316/270/256 335/271/257 334/254/241
f 334/254/241 335/271/257 354/272/258 353/255/242
f 353/255/242 354/272/258 69/273/243 68/256/227
f 69/257/243 70/274/259 89/275/260 88/258/244
f 88/258/244 89/275/260 108/276/261 107/259/245
f 107/259/245 108/276/261 127/277/262 126/260/246
f 126/260/246 127/277/262 146/278/263 145/261/247
f 145/261/247 146/278/263 165/279/264 164/262/248
f 164/262/248 165/279/264 184/280/265 183/263/249
f 183/263/249 184/280/265 203/281/266 202/264/250
f 202/264/250 203/281/266 222/282/267 221/265/251
f 221/265/251 222/282/267 241/283/268 240/266/252
f 240/266/252 241/283/268 260/284/269 259/267/253
f 259/267/253 260/284/269 279/285/270 278/268/254
f 278/268/254 279/285/270 298/286/271 297/269/255
f 297/269/255 298/286/271 317/287/272 316/270/256
f 316/270/256 317/287/272 336/288/273 335/271/257
f 335/271/257 336/288/273 355/289/274 354/272/258
f 354/272/258 355/289/274 70/290/259 69/273/243
f 70/274/259 71/291/275 90/292/276 89/275/260
f 89/275/260 90/292/276 109/293/277 108/276/261
f 108/276/261 109/293/277 128/294/278 127/277/262
f 127/277/262 128/294/278 147/295/279 146/278/263
f 146/278/263 147/295/279 166/296/280 165/279/264
f 165/279/264 166/296/280 185/297/281 184/280/265
f 184/280/265 185/297/281 204/298/282 203/281/266
f 203/281/266 204/298/282 223/299/283 222/282/267
f 222/282/267 223/299/283 242/300/284 241/283/268
f 241/283/268 242/300/284 261/301/285 260/284/269
f 260/284/269 261/301/285 280/302/286 279/285/270
f 279/285/270 280/302/286 299/303/287 298/286/271
f 298/286/271 299/303/287 318/304/288 317/287/272
f 317/287/272 318/304/288 337/305/289 336/288/273
f 336/288/273 337/305/289 356/306/290 355/289/274
f 355/289/274 356/306/290 71/307/275 70/290/259
f 71/291/275 72/308/291 91/309/292 90/292/276
f 90/292/276 91/309/292 110/310/293 109/293/277
f 109/293/277 110/310/293 129/311/294 128/294/278
f 128/294/278 129/311/294 148/312/295 147/295/279
f 147/295/279 148/312/295 167/313/296 166/296/280
f 166/296/280 167/313/296 186/314/297 185/297/281
f 185/297/281 186/314/297 205/315/298 204/298/282
f 204/298/282 205/315/298 224/316/299 223/299/283
f 223/299/283 224/316/299 243/317/300 242/300/284
f 242/300/284 243/317/300 262/318/301 261/301/285
f 261/301/285 262/318/301 281/319/302 280/302/286
f 280/302/286 281/319/302 300/320/303 299/303/287
f 299/303/287 300/320/303 319/321/304 318/304/288
f 318/304/288 319/321/304 338/322/305 337/305/289
f 337/305/289 338/322/305 357/323/306 356/306/290
f 356/306/290 357/323/306 72/324/291 71/307/275
f 72/308/291 73/325/307 92/326/307 91/309/292
f 91/309/292 92/326/307 111/327/307 110/310/293
f 110/310/293 111/327/307 130/328/307 129/311/294
f 129/311/294 130/328/307 149/329/307 148/312/295
f 148/312/295 149/329/307 168/330/307 167/313/296
f 167/313/296 168/330/307 187/331/307 186/314/297
f 186/314/297 187/331/307 206/332/307 205/315/298
f 205/315/298 206/332/307 225/333/307 224/316/299
f 224/316/299 225/333/307 244/334/307 243/317/300
f 243/317/300 244/334/307 263/335/307 262/318/301
f 262/318/301 263/335/307 282/336/307 281/319/302
f 281/319/302 282/336/307 301/337/307 300/320/303
f 300/320/303 301/337/307 320/338/307 319/321/304
f 319/321/304 320/338/307 339/339/307 338/322/305
f 338/322/305 339/339/307 358/340/307 357/323/306
f 357/323/306 358/340/307 73/341/307 72/324/291
o Pen.001
v 0.000000 -0.102893 0.000000
v -0.000209 -0.102816 0.000000
v -0.000482 -0.102735 0.000000
v -0.000809 -0.102652 0.000000
v -0.001181 -0.102566 0.000000
v -0.001590 -0.102478 0.000000
v -0.002027 -0.102389 0.000000
v -0.002481 -0.102299 0.000000
v -0.002945 -0.102209 0.000000
v -0.003408 -0.102118 0.000000
v -0.003863 -0.102028 0.000000
v -0.004299 -0.101939 0.000000
v -0.004708 -0.101851 0.000000
v -0.007812 -0.097667 0.000000
v -0.011726 -0.071430 0.000000
v -0.009297 -0.004409 0.000000
v -0.012266 0.000180 0.000000
v -0.010782 0.004680 0.000000
v 0.000001 0.004680 -0.000000
v 0.000000 -0.102893 -0.000000
v -0.000193 -0.102816 0.000080
v -0.000445 -0.102735 0.000184
v -0.000747 -0.102652 0.000309
v -0.001091 -0.102566 0.000452
v -0.001469 -0.102478 0.000609
v -0.001872 -0.102389 0.000776
v -0.002292 -0.102299 0.000949
v -0.002720 -0.102209 0.001127
v -0.003149 -0.102118 0.001304
v -0.003569 -0.102028 0.001478
v -0.003972 -0.101939 0.001645
v -0.004350 -0.101851 0.001802
v -0.007217 -0.097667 0.002990
v -0.010833 -0.071430 0.004487
v -0.008589 -0.004409 0.003558
v -0.011332 0.000180 0.004694
v -0.009962 0.004680 0.004126
v 0.000001 0.004680 -0.000000
v 0.000000 -0.102893 -0.000000
v -0.000148 -0.102816 0.000148
v -0.000341 -0.102735 0.000341
v -0.000572 -0.102652 0.000572
v -0.000835 -0.102566 0.000835
v -0.001125 -0.102478 0.001125
v -0.001433 -0.102389 0.001433
v -0.001754 -0.102299 0.001754
v -0.002082 -0.102209 0.002082
v -0.002410 -0.102118 0.002410
v -0.002731 -0.102028 0.002731
v -0.003040 -0.101939 0.003040
v -0.003329 -0.101851 0.003329
v -0.005524 -0.097667 0.005524
v -0.008292 -0.071430 0.008292
v -0.006574 -0.004409 0.006574
v -0.008673 0.000180 0.008673
v -0.007624 0.004680 0.007624
v 0.000001 0.004680 -0.000001
v 0.000000 -0.102893 -0.000000
v -0.000080 -0.102816 0.000193
v -0.000184 -0.102735 0.000445
v -0.000309 -0.102652 0.000747
v -0.000452 -0.102566 0.001091
v -0.000609 -0.102478 0.001469
v -0.000776 -0.102389 0.001872
v -0.000949 -0.102299 0.002292
v -0.001127 -0.102209 0.002720
v -0.001304 -0.102118 0.003149
v -0.001478 -0.102028 0.003569
v -0.001645 -0.101939 0.003972
v -0.001802 -0.101851 0.004350
v -0.002990 -0.097667 0.007217
v -0.004487 -0.071430 0.010833
v -0.003558 -0.004409 0.008589
v -0.004694 0.000180 0.011332
v -0.004126 0.004680 0.009962
v 0.000000 0.004680 -0.000001
v -0.000000 -0.102893 -0.000000
v 0.000000 -0.102816 0.000209
v 0.000000 -0.102735 0.000482
v 0.000000 -0.102652 0.000809
v 0.000000 -0.102566 0.001181
v 0.000000 -0.102478 0.001590
v 0.000000 -0.102389 0.002027
v 0.000000 -0.102299 0.002481
v 0.000000 -0.102209 0.002945
v 0.000000 -0.102118 0.003408
v 0.000000 -0.102028 0.003863
v 0.000000 -0.101939 0.004299
v 0.000000 -0.101851 0.004708
v 0.000000 -0.097667 0.007812
v 0.000000 -0.071430 0.011726
v 0.000000 -0.004409 0.009297
v 0.000000 0.000180 0.012266
v 0.000000 0.004680 0.010782
v -0.000000 0.004680 -0.000001
v -0.000000 -0.102893 -0.000000
v 0.000080 -0.102816 0.000193
v 0.000184 -0.102735 0.000445
v 0.000309 -0.102652 0.000747
v 0.000452 -0.102566 0.001091
v 0.000609 -0.102478 0.001469
v 0.000776 -0.102389 0.001872
v 0.000949 -0.102299 0.002292
v 0.001127 -0.102209 0.002720
v 0.001304 -0.102118 0.003149
v 0.001478 -0.102028 0.003569
v 0.001645 -0.101939 0.003972
v 0.001802 -0.101851 0.004350
v 0.002990 -0.097667 0.007217
v 0.004487 -0.071430 0.010833
v 0.003558 -0.004409 0.008589
v 0.004694 0.000180 0.011332
v 0.004126 0.004680 0.009962
v -0.000000 0.004680 -0.000001
v -0.000000 -0.102893 -0.000000
v 0.000148 -0.102816 0.000148
v 0.000341 -0.102735 0.000341
v 0.000572 -0.102652 0.000572
v 0.000835 -0.102566 0.000835
v 0.001125 -0.102478 0.001125
v 0.001433 -0.102389 0.001433
v 0.001754 -0.102299 0.001754
v 0.002082 -0.102209 0.002082
v 0.002410 -0.102118 0.002410
v 0.002731 -0.102028 0.002731
v 0.003040 -0.101939 0.003040
v 0.003329 -0.101851 0.003329
v 0.005524 -0.097667 0.005524
v 0.008292 -0.071430 0.008292
v 0.006574 -0.004409 0.006574
v 0.008673 0.000180 0.008673
v 0.007624 0.004680 0.007624
v -0.000001 0.004680 -0.000001
v -0.000000 -0.102893 -0.000000
v 0.000193 -0.102816 0.000080
v 0.000445 -0.102735 0.000184
v 0.000747 -0.102652 0.000309
v 0.001091 -0.102566 0.000452
v 0.001469 -0.102478 0.000609
v 0.001872 -0.102389 0.000776
v 0.002292 -0.102299 0.000949
v 0.002720 -0.102209 0.001127
v 0.003149 -0.102118 0.001304
v 0.003569 -0.102028 0.001478
v 0.003972 -0.101939 0.001645
v 0.004350 -0.101851 0.001802
v 0.007217 -0.097667 0.002990
v 0.010833 -0.071430 0.004487
v 0.008589 -0.004409 0.003558
v 0.011332 0.000180 0.004694
v 0.009962 0.004680 0.004126
v -0.000001 0.004680 -0.000000
v -0.000000 -0.102893 0.000000
v 0.000209 -0.102816 -0.000000
v 0.000482 -0.102735 -0.000000
v 0.000809 -0.102652 -0.000000
v 0.001181 -0.102566 -0.000000
v 0.001590 -0.102478 -0.000000
v 0.002027 -0.102389 -0.000000
v 0.002481 -0.102299 -0.000000
v 0.002945 -0.102209 -0.000000
v 0.003408 -0.102118 -0.000000
v 0.003863 -0.102028 -0.000000
v 0.004299 -0.101939 -0.000000
v 0.004708 -0.101851 -0.000000
v 0.007812 -0.097667 -0.000000
v 0.011726 -0.071430 -0.000000
v 0.009297 -0.004409 -0.000000
v 0.012266 0.000180 -0.000000
v 0.010782 0.004680 -0.000000
v -0.000001 0.004680 0.000000
v -0.000000 -0.102893 0.000000
v 0.000193 -0.102816 -0.000080
v 0.000445 -0.102735 -0.000184
v 0.000747 -0.102652 -0.000309
v 0.001091 -0.102566 -0.000452
v 0.001469 -0.102478 -0.000609
v 0.001872 -0.102389 -0.000776
v 0.002292 -0.102299 -0.000949
v 0.002720 -0.102209 -0.001127
v 0.003149 -0.102118 -0.001304
v 0.003569 -0.102028 -0.001478
v 0.003972 -0.101939 -0.001645
v 0.004350 -0.101851 -0.001802
v 0.007217 -0.097667 -0.002990
v 0.010833 -0.071430 -0.004487
v 0.008589 -0.004409 -0.003558
v 0.011332 0.000180 -0.004694
v 0.009962 0.004680 -0.004126
v -0.000001 0.004680 0.000000
v -0.000000 -0.102893 0.000000
v 0.000148 -0.102816 -0.000148
v 0.000341 -0.102735 -0.000341
v 0.000572 -0.102652 -0.000572
v 0.000835 -0.102566 -0.000835
v 0.001125 -0.102478 -0.001125
v 0.001433 -0.102389 -0.001433
v 0.001754 -0.102299 -0.001754
v 0.002082 -0.102209 -0.002082
v 0.002410 -0.102118 -0.002410
v 0.002731 -0.102028 -0.002731
v 0.003040 -0.101939 -0.003040
v 0.003329 -0.101851 -0.003329
v 0.005524 -0.097667 -0.005524
v 0.008292 -0.071430 -0.008292
v 0.006574 -0.004409 -0.006574
v 0.008673 0.000180 -0.008673
v 0.007624 0.004680 -0.007624
v -0.000001 0.004680 0.000001
v -0.000000 -0.102893 0.000000
v 0.000080 -0.102816 -0.000193
v 0.000184 -0.102735 -0.000445
v 0.000309 -0.102652 -0.000747
v 0.000452 -0.102566 -0.001091
v 0.000609 -0.102478 -0.001469
v 0.000776 -0.102389 -0.001872
v 0.000949 -0.102299 -0.002292
v 0.001127 -0.102209 -0.002720
v 0.001304 -0.102118 -0.003149
v 0.001478 -0.102028 -0.003569
v 0.001645 -0.101939 -0.003972
v 0.001802 -0.101851 -0.004350
v 0.002990 -0.097667 -0.007217
v 0.004487 -0.071430 -0.010833
v 0.003558 -0.004409 -0.008589
v 0.004694 0.000180 -0.011332
v 0.004126 0.004680 -0.009962
v -0.000000 0.004680 0.000001
v 0.000000 -0.102893 0.000000
v -0.000000 -0.102816 -0.000209
v -0.000000 -0.102735 -0.000482
v -0.000000 -0.102652 -0.000809
v -0.000000 -0.102566 -0.001181
v -0.000000 -0.102478 -0.001590
v -0.000000 -0.102389 -0.002027
v -0.000000 -0.102299 -0.002481
v -0.000000 -0.102209 -0.002945
v -0.000000 -0.102118 -0.003408
v -0.000000 -0.102028 -0.003863
v -0.000000 -0.101939 -0.004299
v -0.000000 -0.101851 -0.004708
v -0.000000 -0.097667 -0.007812
v -0.000000 -0.071430 -0.011726
v -0.000000 -0.004409 -0.009297
v -0.000000 0.000180 -0.012266
v -0.000000 0.004680 -0.010782
v 0.000000 0.004680 0.000001
v 0.000000 -0.102893 0.000000
v -0.000080 -0.102816 -0.000193
v -0.000184 -0.102735 -0.000445
v -0.000309 -0.102652 -0.000747
v -0.000452 -0.102566 -0.001091
v -0.000609 -0.102478 -0.001469
v -0.000776 -0.102389 -0.001872
v -0.000949 -0.102299 -0.002292
v -0.001127 -0.102209 -0.002720
v -0.001304 -0.102118 -0.003149
v -0.001478 -0.102028 -0.003569
v -0.001645 -0.101939 -0.003972
v -0.001802 -0.101851 -0.004350
v -0.002990 -0.097667 -0.007217
v -0.004487 -0.071430 -0.010833
v -0.003558 -0.004409 -0.008589
v -0.004694 0.000180 -0.011332
v -0.004126 0.004680 -0.009962
v 0.000000 0.004680 0.000001
v 0.000000 -0.102893 0.000000
v -0.000148 -0.102816 -0.000148
v -0.000341 -0.102735 -0.000341
v -0.000572 -0.102652 -0.000572
v -0.000835 -0.102566 -0.000835
v -0.001125 -0.102478 -0.001125
v -0.001433 -0.102389 -0.001433
v -0.001754 -0.102299 -0.001754
v -0.002082 -0.102209 -0.002082
v -0.002410 -0.102118 -0.002410
v -0.002731 -0.102028 -0.002731
v -0.003040 -0.101939 -0.003040
v -0.003329 -0.101851 -0.003329
v -0.005524 -0.097667 -0.005524
v -0.008292 -0.071430 -0.008292
v -0.006574 -0.004409 -0.006574
v -0.008673 0.000180 -0.008673
v -0.007624 0.004680 -0.007624
v 0.000001 0.004680 0.000001
v 0.000000 -0.102893 0.000000
v -0.000193 -0.102816 -0.000080
v -0.000445 -0.102735 -0.000184
v -0.000747 -0.102652 -0.000309
v -0.001091 -0.102566 -0.000452
v -0.001469 -0.102478 -0.000609
v -0.001872 -0.102389 -0.000776
v -0.002292 -0.102299 -0.000949
v -0.002720 -0.102209 -0.001127
v -0.003149 -0.102118 -0.001304
v -0.003569 -0.102028 -0.001478
v -0.003972 -0.101939 -0.001645
v -0.004350 -0.101851 -0.001802
v -0.007217 -0.097667 -0.002990
v -0.010833 -0.071430 -0.004487
v -0.008589 -0.004409 -0.003558
v -0.011332 0.000180 -0.004694
v -0.009962 0.004680 -0.004126
v 0.000001 0.004680 0.000000
vn -0.6749 -0.7377 -0.0178
vn 0.2882 0.9501 -0.1194
vn -0.8597 -0.5062 0.0688
vn 0.2206 0.9501 -0.2206
vn -0.4334 -0.8688 0.2393
vn 0.1194 0.9501 -0.2882
vn 0.0091 -0.9462 0.3235
vn -0.0000 0.9501 -0.3120
vn -0.0091 -0.9377 0.3474
vn -0.1194 0.9501 -0.2882
vn -0.0260 -0.9459 0.3235
vn -0.2206 0.9501 -0.2206
vn -0.0387 -0.9669 0.2523
vn -0.2882 0.9501 -0.1194
vn 0.1764 -0.9743 0.1398
vn -0.3120 0.9501 -0.0000
vn 0.1295 -0.9916 -0.0030
vn -0.2882 0.9501 0.1194
vn -0.0388 -0.9894 -0.1402
vn -0.2205 0.9501 0.2206
vn -0.0260 -0.9672 -0.2528
vn -0.1194 0.9501 0.2882
vn -0.0092 -0.9462 -0.3235
vn -0.0001 0.9501 0.3120
vn 0.0092 -0.9377 -0.3474
vn 0.1193 0.9501 0.2882
vn 0.0260 -0.9459 -0.3235
vn 0.2206 0.9501 0.2206
vn -0.5410 -0.8098 -0.2270
vn 0.2882 0.9501 0.1194
vn -0.6079 -0.7878 -0.0992
vn 0.3120 0.9501 -0.0000
vn 0.2433 0.9647 -0.1008
vn 0.1008 0.9647 -0.2433
vn -0.0000 0.9647 -0.2634
vn -0.1862 0.9647 -0.1862
vn -0.2433 0.9647 -0.1008
vn -0.2634 0.9647 -0.0000
vn -0.2433 0.9647 0.1008
vn -0.1862 0.9647 0.1862
vn -0.1008 0.9647 0.2433
vn -0.0000 0.9647 0.2634
vn 0.1008 0.9647 0.2433
vn 0.1863 0.9647 0.1862
vn 0.2634 0.9647 -0.0000
vn 0.2345 0.9721 -0.0000
vn 0.2167 0.9721 -0.0897
vn 0.1862 0.9647 -0.1862
vn 0.0897 0.9721 -0.2166
vn -0.0000 0.9721 -0.2345
vn -0.1008 0.9647 -0.2433
vn -0.0897 0.9721 -0.2166
vn -0.2167 0.9721 -0.0897
vn -0.2345 0.9721 -0.0000
vn -0.2167 0.9721 0.0897
vn -0.1658 0.9721 0.1658
vn -0.0000 0.9721 0.2345
vn 0.0897 0.9721 0.2166
vn 0.1658 0.9721 0.1658
vn 0.2433 0.9647 0.1008
vn 0.2166 0.9721 0.0897
vn 0.2162 0.9764 -0.0000
vn 0.1997 0.9764 -0.0827
vn 0.1658 0.9721 -0.1658
vn 0.0827 0.9764 -0.1997
vn -0.0000 0.9764 -0.2162
vn -0.1529 0.9764 -0.1529
vn -0.1658 0.9721 -0.1658
vn -0.2162 0.9764 -0.0000
vn -0.1997 0.9764 0.0827
vn -0.1529 0.9764 0.1529
vn -0.0897 0.9721 0.2166
vn -0.0000 0.9764 0.2162
vn 0.0827 0.9764 0.1997
vn 0.1529 0.9764 0.1529
vn 0.1997 0.9764 0.0827
vn 0.2043 0.9789 -0.0000
vn 0.1445 0.9789 -0.1445
vn 0.1529 0.9764 -0.1529
vn 0.0782 0.9789 -0.1888
vn -0.0000 0.9789 -0.2043
vn -0.0827 0.9764 -0.1997
vn -0.0782 0.9789 -0.1888
vn -0.1445 0.9789 -0.1445
vn -0.1997 0.9764 -0.0827
vn -0.1888 0.9789 -0.0782
vn -0.2043 0.9789 -0.0000
vn -0.1888 0.9789 0.0782
vn -0.1445 0.9789 0.1445
vn -0.0827 0.9764 0.1997
vn -0.0000 0.9789 0.2043
vn 0.0782 0.9789 0.1888
vn 0.1445 0.9789 0.1445
vn 0.1888 0.9789 0.0782
vn 0.1969 0.9804 -0.0000
vn 0.1888 0.9789 -0.0782
vn 0.1819 0.9804 -0.0753
vn 0.1392 0.9804 -0.1392
vn 0.0753 0.9804 -0.1819
vn -0.0754 0.9804 -0.1819
vn -0.1392 0.9804 -0.1392
vn -0.1819 0.9804 -0.0753
vn -0.1969 0.9804 -0.0000
vn -0.1819 0.9804 0.0753
vn -0.1392 0.9804 0.1392
vn -0.0782 0.9789 0.1888
vn -0.0000 0.9804 0.1969
vn 0.0753 0.9804 0.1819
vn 0.1392 0.9804 0.1392
vn 0.1928 0.9812 -0.0000
vn 0.1782 0.9812 -0.0738
vn 0.1364 0.9812 -0.1364
vn 0.0738 0.9812 -0.1782
vn -0.0000 0.9804 -0.1969
vn -0.0000 0.9812 -0.1928
vn -0.1364 0.9812 -0.1364
vn -0.1782 0.9812 -0.0738
vn -0.1781 0.9812 0.0738
vn -0.1364 0.9812 0.1364
vn -0.0753 0.9804 0.1819
vn -0.0000 0.9812 0.1928
vn 0.0738 0.9812 0.1782
vn 0.1363 0.9812 0.1364
vn 0.1819 0.9804 0.0753
vn 0.1916 0.9815 -0.0000
vn 0.1771 0.9815 -0.0733
vn 0.0733 0.9815 -0.1771
vn -0.0000 0.9815 -0.1916
vn -0.0738 0.9812 -0.1782
vn -0.0733 0.9815 -0.1771
vn -0.1355 0.9815 -0.1355
vn -0.1771 0.9815 -0.0733
vn -0.1928 0.9812 -0.0000
vn -0.1771 0.9815 0.0733
vn -0.0733 0.9815 0.1771
vn -0.0738 0.9812 0.1782
vn -0.0000 0.9815 0.1916
vn 0.0733 0.9815 0.1771
vn 0.1355 0.9815 0.1355
vn 0.1782 0.9812 0.0738
vn 0.1932 0.9812 -0.0000
vn 0.1785 0.9812 -0.0739
vn 0.1355 0.9815 -0.1355
vn 0.0739 0.9812 -0.1785
vn -0.0000 0.9812 -0.1932
vn -0.0739 0.9812 -0.1785
vn -0.1366 0.9812 -0.1366
vn -0.1932 0.9812 -0.0000
vn -0.1917 0.9815 -0.0000
vn -0.1785 0.9812 0.0739
vn -0.1355 0.9815 0.1355
vn -0.1366 0.9812 0.1366
vn -0.0739 0.9812 0.1785
vn 0.0739 0.9812 0.1785
vn 0.1366 0.9812 0.1366
vn 0.1771 0.9815 0.0733
vn 0.1785 0.9812 0.0739
vn 0.1976 0.9803 -0.0000
vn 0.1825 0.9803 -0.0756
vn 0.1366 0.9812 -0.1366
vn 0.0756 0.9803 -0.1826
vn -0.0000 0.9803 -0.1976
vn -0.0756 0.9803 -0.1826
vn -0.1397 0.9803 -0.1397
vn -0.1785 0.9812 -0.0739
vn -0.1825 0.9803 -0.0756
vn -0.1976 0.9803 -0.0000
vn -0.1397 0.9803 0.1397
vn -0.0000 0.9803 0.1976
vn -0.0000 0.9812 0.1932
vn 0.0756 0.9803 0.1826
vn 0.1825 0.9803 0.0756
vn 0.2055 0.9787 -0.0000
vn 0.1453 0.9787 -0.1453
vn 0.1397 0.9803 -0.1397
vn 0.0786 0.9787 -0.1899
vn -0.0000 0.9787 -0.2055
vn -0.1453 0.9787 -0.1453
vn -0.1899 0.9787 -0.0786
vn -0.2055 0.9787 -0.0000
vn -0.1826 0.9803 0.0756
vn -0.1899 0.9787 0.0786
vn -0.1453 0.9787 0.1453
vn -0.0756 0.9803 0.1826
vn -0.0000 0.9787 0.2055
vn 0.1453 0.9787 0.1453
vn 0.1397 0.9803 0.1397
vn 0.5275 0.8210 -0.2185
vn 0.1899 0.9787 -0.0786
vn 0.4037 0.8210 -0.4037
vn 0.2185 0.8210 -0.5274
vn -0.2185 0.8210 -0.5274
vn -0.0786 0.9787 -0.1899
vn -0.4037 0.8210 -0.4037
vn -0.5274 0.8210 -0.2185
vn -0.5709 0.8210 -0.0000
vn -0.5274 0.8210 0.2185
vn -0.4037 0.8210 0.4037
vn -0.0786 0.9787 0.1899
vn -0.2185 0.8210 0.5274
vn -0.0000 0.8210 0.5709
vn 0.0787 0.9787 0.1899
vn 0.2185 0.8210 0.5274
vn 0.4037 0.8210 0.4037
vn 0.1899 0.9787 0.0786
vn 0.5709 0.8210 -0.0000
vn 0.9279 0.3729 -0.0000
vn 0.8573 0.3729 -0.3551
vn 0.6561 0.3729 -0.6561
vn 0.3551 0.3729 -0.8573
vn -0.0000 0.8210 -0.5709
vn -0.0000 0.3729 -0.9279
vn -0.3551 0.3729 -0.8573
vn -0.6561 0.3729 -0.6561
vn -0.8573 0.3729 -0.3551
vn -0.8573 0.3729 0.3551
vn -0.6561 0.3729 0.6561
vn -0.0000 0.3729 0.9279
vn 0.3551 0.3729 0.8573
vn 0.6561 0.3729 0.6561
vn 0.5274 0.8210 0.2185
vn 0.9985 0.0553 -0.0000
vn 0.9225 0.0553 -0.3821
vn 0.7060 0.0553 -0.7060
vn -0.0000 0.0553 -0.9985
vn -0.3821 0.0553 -0.9225
vn -0.7060 0.0553 -0.7060
vn -0.9225 0.0553 -0.3821
vn -0.9279 0.3729 -0.0000
vn -0.9985 0.0553 -0.0000
vn -0.9225 0.0553 0.3821
vn -0.7060 0.0553 0.7060
vn -0.3551 0.3729 0.8573
vn -0.3821 0.0553 0.9225
vn -0.0000 0.0553 0.9985
vn 0.7060 0.0553 0.7060
vn 0.8573 0.3729 0.3551
vn 0.9612 0.2759 -0.0000
vn 0.8880 0.2759 -0.3678
vn 0.6797 0.2759 -0.6797
vn 0.3821 0.0553 -0.9225
vn 0.3678 0.2759 -0.8880
vn -0.0000 0.2759 -0.9612
vn -0.3678 0.2759 -0.8880
vn -0.6797 0.2759 -0.6797
vn -0.8880 0.2759 -0.3678
vn -0.9612 0.2759 -0.0000
vn -0.8880 0.2759 0.3678
vn -0.6797 0.2759 0.6797
vn -0.3678 0.2759 0.8880
vn -0.0000 0.2759 0.9612
vn 0.3821 0.0553 0.9225
vn 0.3678 0.2759 0.8880
vn 0.6797 0.2759 0.6797
vn 0.9225 0.0553 0.3821
vn 0.8880 0.2759 0.3678
vn 0.9926 0.1213 -0.0000
vn 0.9171 0.1213 -0.3799
vn 0.7019 0.1213 -0.7019
vn 0.3799 0.1213 -0.9171
vn -0.0000 0.1213 -0.9926
vn -0.3799 0.1213 -0.9171
vn -0.7019 0.1213 -0.7019
vn -0.9171 0.1213 -0.3799
vn -0.9926 0.1213 -0.0000
vn -0.9171 0.1213 0.3799
vn -0.3799 0.1213 0.9171
vn -0.0000 0.1213 0.9926
vn 0.3799 0.1213 0.9171
vn 0.7019 0.1213 0.7019
vn 0.9171 0.1213 0.3799
vn 0.6302 -0.7765 -0.0000
vn 0.4456 -0.7765 -0.4456
vn -0.0000 -0.7765 -0.6302
vn -0.2411 -0.7765 -0.5822
vn -0.4456 -0.7765 -0.4456
vn -0.6302 -0.7765 -0.0000
vn -0.5822 -0.7765 0.2411
vn -0.7019 0.1213 0.7019
vn -0.4456 -0.7765 0.4456
vn -0.2411 -0.7765 0.5822
vn -0.0000 -0.7765 0.6302
vn 0.2411 -0.7765 0.5822
vn 0.5822 -0.7765 0.2411
vn -0.0000 1.0000 -0.0000
vn 0.5822 -0.7765 -0.2411
vn -0.0001 1.0000 -0.0000
vn -0.0013 1.0000 -0.0000
vn 0.2411 -0.7765 -0.5822
vn -0.0011 1.0000 -0.0000
vn -0.0002 1.0000 -0.0000
vn -0.0005 1.0000 -0.0000
vn 0.0003 1.0000 -0.0000
vn -0.5822 -0.7764 -0.2412
vn -0.0004 1.0000 -0.0000
vn 0.0001 1.0000 -0.0000
vn 0.0005 1.0000 -0.0000
vn -0.0006 1.0000 -0.0000
vn 0.4456 -0.7765 0.4456
vn -0.0007 1.0000 -0.0000
vt 0.000000 -0.102893
vt 0.062500 -0.102816
vt 0.062500 -0.102893
vt 0.125000 -0.102816
vt 0.125000 -0.102893
vt 0.187500 -0.102816
vt 0.187500 -0.102893
vt 0.250000 -0.102816
vt 0.250000 -0.102893
vt 0.312500 -0.102816
vt 0.312500 -0.102893
vt 0.375000 -0.102816
vt 0.375000 -0.102893
vt 0.437500 -0.102816
vt 0.437500 -0.102893
vt 0.500000 -0.102816
vt 0.500000 -0.102893
vt 0.562500 -0.102816
vt 0.562500 -0.102893
vt 0.625000 -0.102816
vt 0.625000 -0.102893
vt 0.687500 -0.102816
vt 0.687500 -0.102893
vt 0.750000 -0.102816
vt 0.750000 -0.102893
vt 0.812500 -0.102816
vt 0.812500 -0.102893
vt 0.875000 -0.102816
vt 0.875000 -0.102893
vt 0.937500 -0.102816
vt 0.937500 -0.102893
vt 1.000000 -0.102816
vt 1.000000 -0.102893
vt 0.000000 -0.102816
vt 0.062500 -0.102735
vt 0.187500 -0.102735
vt 0.250000 -0.102735
vt 0.375000 -0.102735
vt 0.437500 -0.102735
vt 0.500000 -0.102735
vt 0.562500 -0.102735
vt 0.625000 -0.102735
vt 0.687500 -0.102735
vt 0.750000 -0.102735
vt 0.812500 -0.102735
vt 0.875000 -0.102735
vt 1.000000 -0.102735
vt 0.000000 -0.102652
vt 0.000000 -0.102735
vt 0.062500 -0.102652
vt 0.125000 -0.102735
vt 0.187500 -0.102652
vt 0.250000 -0.102652
vt 0.312500 -0.102735
vt 0.312500 -0.102652
vt 0.437500 -0.102652
vt 0.500000 -0.102652
vt 0.562500 -0.102652
vt 0.625000 -0.102652
vt 0.750000 -0.102652
vt 0.812500 -0.102652
vt 0.875000 -0.102652
vt 0.937500 -0.102735
vt 0.937500 -0.102652
vt 0.000000 -0.102566
vt 0.062500 -0.102566
vt 0.125000 -0.102652
vt 0.187500 -0.102566
vt 0.250000 -0.102566
vt 0.375000 -0.102566
vt 0.375000 -0.102652
vt 0.500000 -0.102566
vt 0.562500 -0.102566
vt 0.625000 -0.102566
vt 0.687500 -0.102652
vt 0.750000 -0.102566
vt 0.812500 -0.102566
vt 0.875000 -0.102566
vt 0.937500 -0.102566
vt 1.000000 -0.102652
vt 0.000000 -0.102478
vt 0.125000 -0.102478
vt 0.125000 -0.102566
vt 0.187500 -0.102478
vt 0.250000 -0.102478
vt 0.312500 -0.102566
vt 0.312500 -0.102478
vt 0.375000 -0.102478
vt 0.437500 -0.102566
vt 0.437500 -0.102478
vt 0.500000 -0.102478
vt 0.562500 -0.102478
vt 0.625000 -0.102478
vt 0.687500 -0.102566
vt 0.750000 -0.102478
vt 0.812500 -0.102478
vt 0.875000 -0.102478
vt 0.937500 -0.102478
vt 1.000000 -0.102566
vt 0.000000 -0.102389
vt 0.062500 -0.102478
vt 0.062500 -0.102389
vt 0.125000 -0.102389
vt 0.187500 -0.102389
vt 0.312500 -0.102389
vt 0.375000 -0.102389
vt 0.437500 -0.102389
vt 0.500000 -0.102389
vt 0.562500 -0.102389
vt 0.625000 -0.102389
vt 0.687500 -0.102478
vt 0.750000 -0.102389
vt 0.812500 -0.102389
vt 0.875000 -0.102389
vt 1.000000 -0.102389
vt 1.000000 -0.102478
vt 0.000000 -0.102299
vt 0.062500 -0.102299
vt 0.125000 -0.102299
vt 0.187500 -0.102299
vt 0.250000 -0.102389
vt 0.250000 -0.102299
vt 0.375000 -0.102299
vt 0.437500 -0.102299
vt 0.562500 -0.102299
vt 0.625000 -0.102299
vt 0.687500 -0.102389
vt 0.750000 -0.102299
vt 0.812500 -0.102299
vt 0.875000 -0.102299
vt 0.937500 -0.102389
vt 1.000000 -0.102299
vt 0.000000 -0.102209
vt 0.062500 -0.102209
vt 0.187500 -0.102209
vt 0.250000 -0.102209
vt 0.312500 -0.102299
vt 0.312500 -0.102209
vt 0.375000 -0.102209
vt 0.437500 -0.102209
vt 0.500000 -0.102299
vt 0.562500 -0.102209
vt 0.687500 -0.102209
vt 0.687500 -0.102299
vt 0.750000 -0.102209
vt 0.812500 -0.102209
vt 0.875000 -0.102209
vt 0.937500 -0.102299
vt 1.000000 -0.102209
vt 0.000000 -0.102118
vt 0.062500 -0.102118
vt 0.125000 -0.102209
vt 0.187500 -0.102118
vt 0.250000 -0.102118
vt 0.312500 -0.102118
vt 0.375000 -0.102118
vt 0.500000 -0.102118
vt 0.500000 -0.102209
vt 0.562500 -0.102118
vt 0.625000 -0.102209
vt 0.625000 -0.102118
vt 0.687500 -0.102118
vt 0.812500 -0.102118
vt 0.875000 -0.102118
vt 0.937500 -0.102209
vt 0.937500 -0.102118
vt 0.000000 -0.102028
vt 0.062500 -0.102028
vt 0.125000 -0.102118
vt 0.187500 -0.102028
vt 0.250000 -0.102028
vt 0.312500 -0.102028
vt 0.375000 -0.102028
vt 0.437500 -0.102118
vt 0.437500 -0.102028
vt 0.500000 -0.102028
vt 0.625000 -0.102028
vt 0.750000 -0.102028
vt 0.750000 -0.102118
vt 0.812500 -0.102028
vt 0.937500 -0.102028
vt 1.000000 -0.102118
vt 0.000000 -0.101939
vt 0.125000 -0.101939
vt 0.125000 -0.102028
vt 0.187500 -0.101939
vt 0.250000 -0.101939
vt 0.375000 -0.101939
vt 0.437500 -0.101939
vt 0.500000 -0.101939
vt 0.562500 -0.102028
vt 0.562500 -0.101939
vt 0.625000 -0.101939
vt 0.687500 -0.102028
vt 0.750000 -0.101939
vt 0.875000 -0.101939
vt 0.875000 -0.102028
vt 1.000000 -0.101939
vt 1.000000 -0.102028
vt 0.062500 -0.101851
vt 0.062500 -0.101939
vt 0.125000 -0.101851
vt 0.187500 -0.101851
vt 0.312500 -0.101851
vt 0.312500 -0.101939
vt 0.375000 -0.101851
vt 0.437500 -0.101851
vt 0.500000 -0.101851
vt 0.562500 -0.101851
vt 0.625000 -0.101851
vt 0.687500 -0.101939
vt 0.687500 -0.101851
vt 0.750000 -0.101851
vt 0.812500 -0.101939
vt 0.812500 -0.101851
vt 0.875000 -0.101851
vt 0.937500 -0.101939
vt 1.000000 -0.101851
vt 0.000000 -0.097667
vt 0.000000 -0.101851
vt 0.062500 -0.097667
vt 0.125000 -0.097667
vt 0.187500 -0.097667
vt 0.250000 -0.101851
vt 0.250000 -0.097667
vt 0.312500 -0.097667
vt 0.375000 -0.097667
vt 0.437500 -0.097667
vt 0.562500 -0.097667
vt 0.625000 -0.097667
vt 0.750000 -0.097667
vt 0.812500 -0.097667
vt 0.875000 -0.097667
vt 0.937500 -0.101851
vt 1.000000 -0.097667
vt 0.000000 -0.071430
vt 0.062500 -0.071430
vt 0.125000 -0.071430
vt 0.250000 -0.071430
vt 0.312500 -0.071430
vt 0.375000 -0.071430
vt 0.437500 -0.071430
vt 0.500000 -0.097667
vt 0.500000 -0.071430
vt 0.562500 -0.071430
vt 0.625000 -0.071430
vt 0.687500 -0.097667
vt 0.687500 -0.071430
vt 0.750000 -0.071430
vt 0.875000 -0.071430
vt 0.937500 -0.097667
vt 1.000000 -0.071430
vt 0.000000 -0.004409
vt 0.062500 -0.004409
vt 0.125000 -0.004409
vt 0.187500 -0.071430
vt 0.187500 -0.004409
vt 0.250000 -0.004409
vt 0.312500 -0.004409
vt 0.375000 -0.004409
vt 0.437500 -0.004409
vt 0.500000 -0.004409
vt 0.562500 -0.004409
vt 0.625000 -0.004409
vt 0.687500 -0.004409
vt 0.750000 -0.004409
vt 0.812500 -0.071430
vt 0.812500 -0.004409
vt 0.875000 -0.004409
vt 0.937500 -0.071430
vt 0.937500 -0.004409
vt 0.000000 0.000180
vt 0.062500 0.000180
vt 0.125000 0.000180
vt 0.187500 0.000180
vt 0.250000 0.000180
vt 0.312500 0.000180
vt 0.375000 0.000180
vt 0.437500 0.000180
vt 0.500000 0.000180
vt 0.562500 0.000180
vt 0.687500 0.000180
vt 0.750000 0.000180
vt 0.812500 0.000180
vt 0.875000 0.000180
vt 0.937500 0.000180
vt 1.000000 -0.004409
vt 0.000000 0.004680
vt 0.125000 0.004680
vt 0.250000 0.004680
vt 0.312500 0.004680
vt 0.375000 0.004680
vt 0.500000 0.004680
vt 0.562500 0.004680
vt 0.625000 0.000180
vt 0.625000 0.004680
vt 0.687500 0.004680
vt 0.750000 0.004680
vt 0.812500 0.004680
vt 0.937500 0.004680
vt 1.000000 0.000180
vt 0.062500 0.004680
vt 0.062500 0.004680
vt 0.125000 0.004680
vt 0.187500 0.004680
vt 0.187500 0.004680
vt 0.250000 0.004680
vt 0.312500 0.004680
vt 0.375000 0.004680
vt 0.437500 0.004680
vt 0.437500 0.004680
vt 0.500000 0.004680
vt 0.562500 0.004680
vt 0.625000 0.004680
vt 0.687500 0.004680
vt 0.750000 0.004680
vt 0.812500 0.004680
vt 0.875000 0.004680
vt 0.875000 0.004680
vt 0.937500 0.004680
vt 1.000000 0.004680
vt 1.000000 0.004680
vt 0.000000 0.004680
s 1
f 359/342/308 379/343/309 378/344/310
f 378/344/310 398/345/311 397/346/312
f 397/346/312 417/347/313 416/348/314
f 416/348/314 436/349/315 435/350/316
f 435/350/316 455/351/317 454/352/318
f 454/352/318 474/353/319 473/354/320
f 473/354/320 493/355/321 492/356/322
f 492/356/322 512/357/323 511/358/324
f 511/358/324 531/359/325 530/360/326
f 530/360/326 550/361/327 549/362/328
f 549/362/328 569/363/329 568/364/330
f 568/364/330 588/365/331 587/366/332
f 587/366/332 607/367/333 606/368/334
f 606/368/334 626/369/335 625/370/336
f 625/370/336 645/371/337 644/372/338
f 644/372/338 360/373/339 359/374/308
f 360/375/339 380/376/340 379/343/309
f 380/376/340 398/345/311 379/343/309
f 398/345/311 418/377/341 417/347/313
f 417/347/313 437/378/342 436/349/315
f 437/378/342 455/351/317 436/349/315
f 455/351/317 475/379/343 474/353/319
f 474/353/319 494/380/344 493/355/321
f 494/380/344 512/357/323 493/355/321
f 513/381/345 531/359/325 512/357/323
f 532/382/346 550/361/327 531/359/325
f 551/383/347 569/363/329 550/361/327
f 570/384/348 588/365/331 569/363/329
f 589/385/349 607/367/333 588/365/331
f 608/386/350 626/369/335 607/367/333
f 627/387/351 645/371/337 626/369/335
f 645/371/337 361/388/352 360/373/339
f 362/389/353 380/376/340 361/390/352
f 381/391/354 399/392/355 380/376/340
f 399/392/355 419/393/356 418/377/341
f 419/393/356 437/378/342 418/377/341
f 438/394/357 456/395/358 437/378/342
f 457/396/359 475/379/343 456/395/358
f 475/379/343 495/397/360 494/380/344
f 495/397/360 513/381/345 494/380/344
f 514/398/361 532/382/346 513/381/345
f 533/399/362 551/383/347 532/382/346
f 552/400/363 570/384/348 551/383/347
f 570/384/348 590/401/364 589/385/349
f 590/401/364 608/386/350 589/385/349
f 609/402/365 627/387/351 608/386/350
f 628/403/366 646/404/367 627/387/351
f 647/405/368 361/388/352 646/404/367
f 363/406/369 381/391/354 362/389/353
f 382/407/370 400/408/371 381/391/354
f 400/408/371 420/409/372 419/393/356
f 420/409/372 438/394/357 419/393/356
f 439/410/373 457/396/359 438/394/357
f 457/396/359 477/411/374 476/412/375
f 477/411/374 495/397/360 476/412/375
f 495/397/360 515/413/376 514/398/361
f 515/413/376 533/399/362 514/398/361
f 534/414/377 552/400/363 533/399/362
f 553/415/378 571/416/379 552/400/363
f 571/416/379 591/417/380 590/401/364
f 591/417/380 609/402/365 590/401/364
f 610/418/381 628/403/366 609/402/365
f 629/419/382 647/405/368 628/403/366
f 648/420/383 362/421/353 647/405/368
f 364/422/384 382/407/370 363/406/369
f 382/407/370 402/423/385 401/424/386
f 402/423/385 420/409/372 401/424/386
f 421/425/387 439/410/373 420/409/372
f 440/426/388 458/427/389 439/410/373
f 459/428/390 477/411/374 458/427/389
f 478/429/391 496/430/392 477/411/374
f 497/431/393 515/413/376 496/430/392
f 516/432/394 534/414/377 515/413/376
f 535/433/395 553/415/378 534/414/377
f 554/434/396 572/435/397 553/415/378
f 572/435/397 592/436/398 591/417/380
f 591/417/380 611/437/399 610/418/381
f 610/418/381 630/438/400 629/419/382
f 630/438/400 648/420/383 629/419/382
f 649/439/401 363/440/369 648/420/383
f 365/441/402 383/442/403 364/422/384
f 384/443/404 402/423/385 383/442/403
f 403/444/405 421/425/387 402/423/385
f 422/445/406 440/426/388 421/425/387
f 440/426/388 460/446/407 459/428/390
f 460/446/407 478/429/391 459/428/390
f 479/447/408 497/431/393 478/429/391
f 498/448/409 516/432/394 497/431/393
f 517/449/410 535/433/395 516/432/394
f 536/450/411 554/434/396 535/433/395
f 555/451/412 573/452/413 554/434/396
f 573/452/413 593/453/414 592/436/398
f 593/453/414 611/437/399 592/436/398
f 612/454/415 630/438/400 611/437/399
f 631/455/416 649/439/401 630/438/400
f 649/439/401 365/456/402 364/457/384
f 366/458/417 384/443/404 365/441/402
f 385/459/418 403/444/405 384/443/404
f 404/460/419 422/445/406 403/444/405
f 423/461/420 441/462/421 422/445/406
f 442/463/422 460/446/407 441/462/421
f 460/446/407 480/464/423 479/447/408
f 480/464/423 498/448/409 479/447/408
f 499/465/424 517/449/410 498/448/409
f 517/449/410 537/466/425 536/450/411
f 537/466/425 555/451/412 536/450/411
f 556/467/426 574/468/427 555/451/412
f 574/468/427 594/469/428 593/453/414
f 594/469/428 612/454/415 593/453/414
f 613/470/429 631/455/416 612/454/415
f 632/471/430 650/472/431 631/455/416
f 650/472/431 366/473/417 365/456/402
f 367/474/432 385/459/418 366/458/417
f 386/475/433 404/460/419 385/459/418
f 404/460/419 424/476/434 423/461/420
f 424/476/434 442/463/422 423/461/420
f 443/477/435 461/478/436 442/463/422
f 462/479/437 480/464/423 461/478/436
f 481/480/438 499/465/424 480/464/423
f 500/481/439 518/482/440 499/465/424
f 518/482/440 538/483/441 537/466/425
f 538/483/441 556/467/426 537/466/425
f 556/467/426 576/484/442 575/485/443
f 575/485/443 595/486/444 594/469/428
f 595/486/444 613/470/429 594/469/428
f 614/487/445 632/471/430 613/470/429
f 633/488/446 651/489/447 632/471/430
f 651/489/447 367/490/432 366/473/417
f 368/491/448 386/475/433 367/474/432
f 387/492/449 405/493/450 386/475/433
f 405/493/450 425/494/451 424/476/434
f 425/494/451 443/477/435 424/476/434
f 444/495/452 462/479/437 443/477/435
f 463/496/453 481/480/438 462/479/437
f 482/497/454 500/481/439 481/480/438
f 500/481/439 520/498/455 519/499/456
f 520/498/455 538/483/441 519/499/456
f 539/500/457 557/501/458 538/483/441
f 558/502/459 576/484/442 557/501/458
f 577/503/460 595/486/444 576/484/442
f 595/486/444 615/504/461 614/487/445
f 615/504/461 633/488/446 614/487/445
f 634/505/462 652/506/463 633/488/446
f 653/507/464 367/490/432 652/506/463
f 369/508/465 387/492/449 368/491/448
f 388/509/466 406/510/467 387/492/449
f 406/510/467 426/511/468 425/494/451
f 426/511/468 444/495/452 425/494/451
f 445/512/469 463/496/453 444/495/452
f 464/513/470 482/497/454 463/496/453
f 483/514/471 501/515/472 482/497/454
f 502/516/473 520/498/455 501/515/472
f 521/517/474 539/500/457 520/498/455
f 539/500/457 559/518/475 558/502/459
f 559/518/475 577/503/460 558/502/459
f 577/503/460 597/519/476 596/520/477
f 596/520/477 616/521/478 615/504/461
f 616/521/478 634/505/462 615/504/461
f 634/505/462 654/522/479 653/507/464
f 654/522/479 368/523/448 653/507/464
f 370/524/480 388/509/466 369/508/465
f 388/509/466 408/525/481 407/526/482
f 407/526/482 427/527/483 426/511/468
f 427/527/483 445/512/469 426/511/468
f 446/528/484 464/513/470 445/512/469
f 464/513/470 484/529/485 483/514/471
f 484/529/485 502/516/473 483/514/471
f 503/530/486 521/517/474 502/516/473
f 522/531/487 540/532/488 521/517/474
f 541/533/489 559/518/475 540/532/488
f 560/534/490 578/535/491 559/518/475
f 578/535/491 598/536/492 597/519/476
f 598/536/492 616/521/478 597/519/476
f 616/521/478 636/537/493 635/538/494
f 636/537/493 654/522/479 635/538/494
f 654/522/479 370/539/480 369/540/465
f 370/524/480 390/541/495 389/542/496
f 390/541/495 408/525/481 389/542/496
f 409/543/497 427/527/483 408/525/481
f 428/544/498 446/528/484 427/527/483
f 446/528/484 466/545/499 465/546/500
f 466/545/499 484/529/485 465/546/500
f 485/547/501 503/530/486 484/529/485
f 504/548/502 522/531/487 503/530/486
f 523/549/503 541/533/489 522/531/487
f 542/550/504 560/534/490 541/533/489
f 561/551/505 579/552/506 560/534/490
f 580/553/507 598/536/492 579/552/506
f 599/554/508 617/555/509 598/536/492
f 618/556/510 636/537/493 617/555/509
f 637/557/511 655/558/512 636/537/493
f 655/558/512 371/559/513 370/539/480
f 372/560/514 390/541/495 371/561/513
f 391/562/515 409/543/497 390/541/495
f 410/563/516 428/544/498 409/543/497
f 429/564/517 447/565/518 428/544/498
f 448/566/519 466/545/499 447/565/518
f 467/567/520 485/547/501 466/545/499
f 486/568/521 504/548/502 485/547/501
f 505/569/522 523/549/503 504/548/502
f 523/549/503 543/570/523 542/550/504
f 542/550/504 562/571/524 561/551/505
f 562/571/524 580/553/507 561/551/505
f 580/553/507 600/572/525 599/554/508
f 599/554/508 619/573/526 618/556/510
f 619/573/526 637/557/511 618/556/510
f 638/574/527 656/575/528 637/557/511
f 656/575/528 372/576/514 371/559/513
f 373/577/529 391/562/515 372/560/514
f 392/578/530 410/563/516 391/562/515
f 411/579/531 429/564/517 410/563/516
f 429/564/517 449/580/532 448/566/519
f 449/580/532 467/567/520 448/566/519
f 468/581/533 486/568/521 467/567/520
f 487/582/534 505/569/522 486/568/521
f 506/583/535 524/584/536 505/569/522
f 525/585/537 543/570/523 524/584/536
f 544/586/538 562/571/524 543/570/523
f 563/587/539 581/588/540 562/571/524
f 582/589/541 600/572/525 581/588/540
f 601/590/542 619/573/526 600/572/525
f 619/573/526 639/591/543 638/574/527
f 639/591/543 657/592/544 638/574/527
f 657/592/544 373/593/529 372/576/514
f 374/594/545 392/578/530 373/577/529
f 393/595/546 411/579/531 392/578/530
f 412/596/547 430/597/548 411/579/531
f 431/598/549 449/580/532 430/597/548
f 450/599/550 468/581/533 449/580/532
f 469/600/551 487/582/534 468/581/533
f 488/601/552 506/583/535 487/582/534
f 507/602/553 525/585/537 506/583/535
f 526/603/554 544/586/538 525/585/537
f 545/604/555 563/587/539 544/586/538
f 564/605/556 582/589/541 563/587/539
f 583/606/557 601/590/542 582/589/541
f 602/607/558 620/608/559 601/590/542
f 621/609/560 639/591/543 620/608/559
f 640/610/561 658/611/562 639/591/543
f 659/612/563 373/593/529 658/611/562
f 375/613/564 393/595/546 374/594/545
f 394/614/565 412/596/547 393/595/546
f 413/615/566 431/598/549 412/596/547
f 432/616/567 450/599/550 431/598/549
f 451/617/568 469/600/551 450/599/550
f 470/618/569 488/601/552 469/600/551
f 489/619/570 507/602/553 488/601/552
f 508/620/571 526/603/554 507/602/553
f 527/621/572 545/604/555 526/603/554
f 546/622/573 564/605/556 545/604/555
f 564/605/556 584/623/574 583/606/557
f 583/606/557 603/624/575 602/607/558
f 603/624/575 621/609/560 602/607/558
f 622/625/576 640/610/561 621/609/560
f 641/626/577 659/612/563 640/610/561
f 660/627/578 374/628/545 659/612/563
f 376/629/579 394/614/565 375/613/564
f 394/614/565 414/630/580 413/615/566
f 414/630/580 432/616/567 413/615/566
f 432/616/567 452/631/581 451/617/568
f 452/631/581 470/618/569 451/617/568
f 471/632/582 489/619/570 470/618/569
f 490/633/583 508/620/571 489/619/570
f 508/620/571 528/634/584 527/621/572
f 528/634/584 546/622/573 527/621/572
f 547/635/585 565/636/586 546/622/573
f 566/637/587 584/623/574 565/636/586
f 585/638/588 603/624/575 584/623/574
f 604/639/589 622/625/576 603/624/575
f 623/640/590 641/626/577 622/625/576
f 641/626/577 661/641/591 660/627/578
f 661/641/591 375/642/564 660/627/578
f 376/629/579 396/643/592 395/644/593
f 395/644/593 415/645/594 414/630/580
f 414/630/580 434/646/595 433/647/596
f 433/647/596 453/648/597 452/631/581
f 452/631/581 472/649/598 471/632/582
f 471/632/582 491/650/599 490/633/583
f 490/633/583 510/651/600 509/652/601
f 509/652/601 529/653/602 528/634/584
f 528/634/584 548/654/592 547/635/585
f 547/635/585 567/655/603 566/637/587
f 566/637/587 586/656/604 585/638/588
f 585/638/588 605/657/603 604/639/589
f 604/639/589 624/658/605 623/640/590
f 623/640/590 643/659/599 642/660/606
f 642/660/606 662/661/607 661/641/591
f 661/641/591 377/662/594 376/663/579
f 359/342/308 360/375/339 379/343/309
f 378/344/310 379/343/309 398/345/311
f 397/346/312 398/345/311 417/347/313
f 416/348/314 417/347/313 436/349/315
f 435/350/316 436/349/315 455/351/317
f 454/352/318 455/351/317 474/353/319
f 473/354/320 474/353/319 493/355/321
f 492/356/322 493/355/321 512/357/323
f 511/358/324 512/357/323 531/359/325
f 530/360/326 531/359/325 550/361/327
f 549/362/328 550/361/327 569/363/329
f 568/364/330 569/363/329 588/365/331
f 587/366/332 588/365/331 607/367/333
f 606/368/334 607/367/333 626/369/335
f 625/370/336 626/369/335 645/371/337
f 644/372/338 645/371/337 360/373/339
f 360/375/339 361/390/352 380/376/340
f 380/376/340 399/392/355 398/345/311
f 398/345/311 399/392/355 418/377/341
f 417/347/313 418/377/341 437/378/342
f 437/378/342 456/395/358 455/351/317
f 455/351/317 456/395/358 475/379/343
f 474/353/319 475/379/343 494/380/344
f 494/380/344 513/381/345 512/357/323
f 513/381/345 532/382/346 531/359/325
f 532/382/346 551/383/347 550/361/327
f 551/383/347 570/384/348 569/363/329
f 570/384/348 589/385/349 588/365/331
f 589/385/349 608/386/350 607/367/333
f 608/386/350 627/387/351 626/369/335
f 627/387/351 646/404/367 645/371/337
f 645/371/337 646/404/367 361/388/352
f 362/389/353 381/391/354 380/376/340
f 381/391/354 400/408/371 399/392/355
f 399/392/355 400/408/371 419/393/356
f 419/393/356 438/394/357 437/378/342
f 438/394/357 457/396/359 456/395/358
f 457/396/359 476/412/375 475/379/343
f 475/379/343 476/412/375 495/397/360
f 495/397/360 514/398/361 513/381/345
f 514/398/361 533/399/362 532/382/346
f 533/399/362 552/400/363 551/383/347
f 552/400/363 571/416/379 570/384/348
f 570/384/348 571/416/379 590/401/364
f 590/401/364 609/402/365 608/386/350
f 609/402/365 628/403/366 627/387/351
f 628/403/366 647/405/368 646/404/367
f 647/405/368 362/421/353 361/388/352
f 363/406/369 382/407/370 381/391/354
f 382/407/370 401/424/386 400/408/371
f 400/408/371 401/424/386 420/409/372
f 420/409/372 439/410/373 438/394/357
f 439/410/373 458/427/389 457/396/359
f 457/396/359 458/427/389 477/411/374
f 477/411/374 496/430/392 495/397/360
f 495/397/360 496/430/392 515/413/376
f 515/413/376 534/414/377 533/399/362
f 534/414/377 553/415/378 552/400/363
f 553/415/378 572/435/397 571/416/379
f 571/416/379 572/435/397 591/417/380
f 591/417/380 610/418/381 609/402/365
f 610/418/381 629/419/382 628/403/366
f 629/419/382 648/420/383 647/405/368
f 648/420/383 363/440/369 362/421/353
f 364/422/384 383/442/403 382/407/370
f 382/407/370 383/442/403 402/423/385
f 402/423/385 421/425/387 420/409/372
f 421/425/387 440/426/388 439/410/373
f 440/426/388 459/428/390 458/427/389
f 459/428/390 478/429/391 477/411/374
f 478/429/391 497/431/393 496/430/392
f 497/431/393 516/432/394 515/413/376
f 516/432/394 535/433/395 534/414/377
f 535/433/395 554/434/396 553/415/378
f 554/434/396 573/452/413 572/435/397
f 572/435/397 573/452/413 592/436/398
f 591/417/380 592/436/398 611/437/399
f 610/418/381 611/437/399 630/438/400
f 630/438/400 649/439/401 648/420/383
f 649/439/401 364/457/384 363/440/369
f 365/441/402 384/443/404 383/442/403
f 384/443/404 403/444/405 402/423/385
f 403/444/405 422/445/406 421/425/387
f 422/445/406 441/462/421 440/426/388
f 440/426/388 441/462/421 460/446/407
f 460/446/407 479/447/408 478/429/391
f 479/447/408 498/448/409 497/431/393
f 498/448/409 517/449/410 516/432/394
f 517/449/410 536/450/411 535/433/395
f 536/450/411 555/451/412 554/434/396
f 555/451/412 574/468/427 573/452/413
f 573/452/413 574/468/427 593/453/414
f 593/453/414 612/454/415 611/437/399
f 612/454/415 631/455/416 630/438/400
f 631/455/416 650/472/431 649/439/401
f 649/439/401 650/472/431 365/456/402
f 366/458/417 385/459/418 384/443/404
f 385/459/418 404/460/419 403/444/405
f 404/460/419 423/461/420 422/445/406
f 423/461/420 442/463/422 441/462/421
f 442/463/422 461/478/436 460/446/407
f 460/446/407 461/478/436 480/464/423
f 480/464/423 499/465/424 498/448/409
f 499/465/424 518/482/440 517/449/410
f 517/449/410 518/482/440 537/466/425
f 537/466/425 556/467/426 555/451/412
f 556/467/426 575/485/443 574/468/427
f 574/468/427 575/485/443 594/469/428
f 594/469/428 613/470/429 612/454/415
f 613/470/429 632/471/430 631/455/416
f 632/471/430 651/489/447 650/472/431
f 650/472/431 651/489/447 366/473/417
f 367/474/432 386/475/433 385/459/418
f 386/475/433 405/493/450 404/460/419
f 404/460/419 405/493/450 424/476/434
f 424/476/434 443/477/435 442/463/422
f 443/477/435 462/479/437 461/478/436
f 462/479/437 481/480/438 480/464/423
f 481/480/438 500/481/439 499/465/424
f 500/481/439 519/499/456 518/482/440
f 518/482/440 519/499/456 538/483/441
f 538/483/441 557/501/458 556/467/426
f 556/467/426 557/501/458 576/484/442
f 575/485/443 576/484/442 595/486/444
f 595/486/444 614/487/445 613/470/429
f 614/487/445 633/488/446 632/471/430
f 633/488/446 652/506/463 651/489/447
f 651/489/447 652/506/463 367/490/432
f 368/491/448 387/492/449 386/475/433
f 387/492/449 406/510/467 405/493/450
f 405/493/450 406/510/467 425/494/451
f 425/494/451 444/495/452 443/477/435
f 444/495/452 463/496/453 462/479/437
f 463/496/453 482/497/454 481/480/438
f 482/497/454 501/515/472 500/481/439
f 500/481/439 501/515/472 520/498/455
f 520/498/455 539/500/457 538/483/441
f 539/500/457 558/502/459 557/501/458
f 558/502/459 577/503/460 576/484/442
f 577/503/460 596/520/477 595/486/444
f 595/486/444 596/520/477 615/504/461
f 615/504/461 634/505/462 633/488/446
f 634/505/462 653/507/464 652/506/463
f 653/507/464 368/523/448 367/490/432
f 369/508/465 388/509/466 387/492/449
f 388/509/466 407/526/482 406/510/467
f 406/510/467 407/526/482 426/511/468
f 426/511/468 445/512/469 444/495/452
f 445/512/469 464/513/470 463/496/453
f 464/513/470 483/514/471 482/497/454
f 483/514/471 502/516/473 501/515/472
f 502/516/473 521/517/474 520/498/455
f 521/517/474 540/532/488 539/500/457
f 539/500/457 540/532/488 559/518/475
f 559/518/475 578/535/491 577/503/460
f 577/503/460 578/535/491 597/519/476
f 596/520/477 597/519/476 616/521/478
f 616/521/478 635/538/494 634/505/462
f 634/505/462 635/538/494 654/522/479
f 654/522/479 369/540/465 368/523/448
f 370/524/480 389/542/496 388/509/466
f 388/509/466 389/542/496 408/525/481
f 407/526/482 408/525/481 427/527/483
f 427/527/483 446/528/484 445/512/469
f 446/528/484 465/546/500 464/513/470
f 464/513/470 465/546/500 484/529/485
f 484/529/485 503/530/486 502/516/473
f 503/530/486 522/531/487 521/517/474
f 522/531/487 541/533/489 540/532/488
f 541/533/489 560/534/490 559/518/475
f 560/534/490 579/552/506 578/535/491
f 578/535/491 579/552/506 598/536/492
f 598/536/492 617/555/509 616/521/478
f 616/521/478 617/555/509 636/537/493
f 636/537/493 655/558/512 654/522/479
f 654/522/479 655/558/512 370/539/480
f 370/524/480 371/561/513 390/541/495
f 390/541/495 409/543/497 408/525/481
f 409/543/497 428/544/498 427/527/483
f 428/544/498 447/565/518 446/528/484
f 446/528/484 447/565/518 466/545/499
f 466/545/499 485/547/501 484/529/485
f 485/547/501 504/548/502 503/530/486
f 504/548/502 523/549/503 522/531/487
f 523/549/503 542/550/504 541/533/489
f 542/550/504 561/551/505 560/534/490
f 561/551/505 580/553/507 579/552/506
f 580/553/507 599/554/508 598/536/492
f 599/554/508 618/556/510 617/555/509
f 618/556/510 637/557/511 636/537/493
f 637/557/511 656/575/528 655/558/512
f 655/558/512 656/575/528 371/559/513
f 372/560/514 391/562/515 390/541/495
f 391/562/515 410/563/516 409/543/497
f 410/563/516 429/564/517 428/544/498
f 429/564/517 448/566/519 447/565/518
f 448/566/519 467/567/520 466/545/499
f 467/567/520 486/568/521 485/547/501
f 486/568/521 505/569/522 504/548/502
f 505/569/522 524/584/536 523/549/503
f 523/549/503 524/584/536 543/570/523
f 542/550/504 543/570/523 562/571/524
f 562/571/524 581/588/540 580/553/507
f 580/553/507 581/588/540 600/572/525
f 599/554/508 600/572/525 619/573/526
f 619/573/526 638/574/527 637/557/511
f 638/574/527 657/592/544 656/575/528
f 656/575/528 657/592/544 372/576/514
f 373/577/529 392/578/530 391/562/515
f 392/578/530 411/579/531 410/563/516
f 411/579/531 430/597/548 429/564/517
f 429/564/517 430/597/548 449/580/532
f 449/580/532 468/581/533 467/567/520
f 468/581/533 487/582/534 486/568/521
f 487/582/534 506/583/535 505/569/522
f 506/583/535 525/585/537 524/584/536
f 525/585/537 544/586/538 543/570/523
f 544/586/538 563/587/539 562/571/524
f 563/587/539 582/589/541 581/588/540
f 582/589/541 601/590/542 600/572/525
f 601/590/542 620/608/559 619/573/526
f 619/573/526 620/608/559 639/591/543
f 639/591/543 658/611/562 657/592/544
f 657/592/544 658/611/562 373/593/529
f 374/594/545 393/595/546 392/578/530
f 393/595/546 412/596/547 411/579/531
f 412/596/547 431/598/549 430/597/548
f 431/598/549 450/599/550 449/580/532
f 450/599/550 469/600/551 468/581/533
f 469/600/551 488/601/552 487/582/534
f 488/601/552 507/602/553 506/583/535
f 507/602/553 526/603/554 525/585/537
f 526/603/554 545/604/555 544/586/538
f 545/604/555 564/605/556 563/587/539
f 564/605/556 583/606/557 582/589/541
f 583/606/557 602/607/558 601/590/542
f 602/607/558 621/609/560 620/608/559
f 621/609/560 640/610/561 639/591/543
f 640/610/561 659/612/563 658/611/562
f 659/612/563 374/628/545 373/593/529
f 375/613/564 394/614/565 393/595/546
f 394/614/565 413/615/566 412/596/547
f 413/615/566 432/616/567 431/598/549
f 432/616/567 451/617/568 450/599/550
f 451/617/568 470/618/569 469/600/551
f 470/618/569 489/619/570 488/601/552
f 489/619/570 508/620/571 507/602/553
f 508/620/571 527/621/572 526/603/554
f 527/621/572 546/622/573 545/604/555
f 546/622/573 565/636/586 564/605/556
f 564/605/556 565/636/586 584/623/574
f 583/606/557 584/623/574 603/624/575
f 603/624/575 622/625/576 621/609/560
f 622/625/576 641/626/577 640/610/561
f 641/626/577 660/627/578 659/612/563
f 660/627/578 375/642/564 374/628/545
f 376/629/579 395/644/593 394/614/565
f 394/614/565 395/644/593 414/630/580
f 414/630/580 433/647/596 432/616/567
f 432/616/567 433/647/596 452/631/581
f 452/631/581 471/632/582 470/618/569
f 471/632/582 490/633/583 489/619/570
f 490/633/583 509/652/601 508/620/571
f 508/620/571 509/652/601 528/634/584
f 528/634/584 547/635/585 546/622/573
f 547/635/585 566/637/587 565/636/586
f 566/637/587 585/638/588 584/623/574
f 585/638/588 604/639/589 603/624/575
f 604/639/589 623/640/590 622/625/576
f 623/640/590 642/660/606 641/626/577
f 641/626/577 642/660/606 661/641/591
f 661/641/591 376/663/579 375/642/564
f 376/629/579 377/664/594 396/643/592
f 395/644/593 396/643/592 415/645/594
f 414/630/580 415/645/594 434/646/595
f 433/647/596 434/646/595 453/648/597
f 452/631/581 453/648/597 472/649/598
f 471/632/582 472/649/598 491/650/599
f 490/633/583 491/650/599 510/651/600
f 509/652/601 510/651/600 529/653/602
f 528/634/584 529/653/602 548/654/592
f 547/635/585 548/654/592 567/655/603
f 566/637/587 567/655/603 586/656/604
f 585/638/588 586/656/604 605/657/603
f 604/639/589 605/657/603 624/658/605
f 623/640/590 624/658/605 643/659/599
f 642/660/606 643/659/599 662/661/607
f 661/641/591 662/661/607 377/662/594
