# Blender 4.0.2
# www.blender.org
mtllib ShotgunShell.mtl
o ShotgunShell
v 0.000016 0.009326 -0.017912
v 0.000112 0.067186 -0.019602
v 0.012484 0.009456 -0.012750
v 0.012580 0.067316 -0.014439
v 0.017649 0.009812 -0.000287
v 0.017745 0.067672 -0.001976
v 0.012485 0.010184 0.012176
v 0.012580 0.068044 0.010486
v 0.000017 0.010356 0.017338
v 0.000112 0.068215 0.015648
v -0.012452 0.010225 0.012175
v -0.012356 0.068085 0.010486
v -0.017616 0.009870 -0.000288
v -0.017521 0.067730 -0.001977
v -0.012452 0.009498 -0.012750
v -0.012356 0.067358 -0.014440
v 0.000012 0.007192 -0.024333
v 0.017063 0.007370 -0.017273
v 0.024126 0.007856 -0.000230
v 0.017064 0.008365 0.016813
v 0.000014 0.008599 0.023872
v -0.017037 0.008421 0.016812
v -0.024100 0.007935 -0.000231
v -0.017038 0.007426 -0.017274
v -0.000001 -0.001019 -0.024094
v 0.017050 -0.000841 -0.017034
v 0.024113 -0.000355 0.000010
v 0.017050 0.000155 0.017053
v 0.000000 0.000389 0.024112
v -0.017051 0.000211 0.017052
v -0.024114 -0.000275 0.000009
v -0.017051 -0.000784 -0.017035
vn 0.3827 -0.0276 -0.9235
vn 0.9239 -0.0127 -0.3825
vn 0.9239 0.0096 0.3825
vn 0.3827 0.0263 0.9235
vn -0.3827 0.0276 0.9235
vn -0.9239 0.0127 0.3825
vn 0.0017 0.9996 -0.0292
vn -0.9239 -0.0096 -0.3825
vn -0.3827 -0.0263 -0.9235
vn 0.2872 0.9536 0.0905
vn -0.2840 0.9545 0.0905
vn 0.1199 0.9587 0.2577
vn -0.2840 0.9476 -0.1460
vn 0.2872 0.9467 -0.1460
vn -0.1167 0.9591 0.2577
vn -0.1167 0.9425 -0.3132
vn 0.1199 0.9421 -0.3132
vn -0.0017 -0.9996 0.0292
vt 1.000000 1.000000
vt 0.875000 0.500000
vt 1.000000 0.500000
vt 0.875000 1.000000
vt 0.750000 0.500000
vt 0.750000 1.000000
vt 0.625000 0.500000
vt 0.625000 1.000000
vt 0.500000 0.500000
vt 0.500000 1.000000
vt 0.375000 0.500000
vt 0.375000 1.000000
vt 0.250000 0.500000
vt 0.010000 0.250000
vt 0.250000 0.010000
vt 0.490000 0.250000
vt 0.250000 1.000000
vt 0.125000 0.500000
vt 0.125000 1.000000
vt 0.000000 0.500000
vt 0.919706 0.080294
vt 0.580294 0.080294
vt 0.580294 0.419706
vt 0.419706 0.419706
vt 0.250000 0.490000
vt 0.080294 0.419706
vt 0.080294 0.080294
vt 0.419706 0.080294
vt 0.000000 1.000000
vt 0.750000 0.490000
vt 0.919706 0.419706
vt 0.990000 0.250000
vt 0.750000 0.010000
vt 0.510000 0.250000
s 0
f 2/1/1 3/2/1 1/3/1
f 4/4/2 5/5/2 3/2/2
f 6/6/3 7/7/3 5/5/3
f 8/8/4 9/9/4 7/7/4
f 10/10/5 11/11/5 9/9/5
f 12/12/6 13/13/6 11/11/6
f 14/14/7 10/15/7 6/16/7
f 14/17/8 15/18/8 13/13/8
f 16/19/9 1/20/9 15/18/9
f 7/7/10 19/5/10 5/5/10
f 17/20/9 32/18/9 24/18/9
f 11/11/11 23/13/11 22/11/11
f 9/9/12 20/7/12 7/7/12
f 15/18/13 23/13/13 13/13/13
f 5/5/14 18/2/14 3/2/14
f 9/9/15 22/11/15 21/9/15
f 15/18/16 17/20/16 24/18/16
f 3/2/17 17/3/17 1/3/17
f 28/21/18 30/22/18 32/23/18
f 22/11/6 31/13/6 30/11/6
f 20/7/4 29/9/4 28/7/4
f 19/5/2 26/2/2 18/2/2
f 24/18/8 31/13/8 23/13/8
f 22/11/5 29/9/5 21/9/5
f 20/7/3 27/5/3 19/5/3
f 17/3/1 26/2/1 25/3/1
f 2/1/1 4/4/1 3/2/1
f 4/4/2 6/6/2 5/5/2
f 6/6/3 8/8/3 7/7/3
f 8/8/4 10/10/4 9/9/4
f 10/10/5 12/12/5 11/11/5
f 12/12/6 14/17/6 13/13/6
f 6/16/7 4/24/7 2/25/7
f 2/25/7 16/26/7 14/14/7
f 14/14/7 12/27/7 10/15/7
f 10/15/7 8/28/7 6/16/7
f 6/16/7 2/25/7 14/14/7
f 14/17/8 16/19/8 15/18/8
f 16/19/9 2/29/9 1/20/9
f 7/7/10 20/7/10 19/5/10
f 17/20/9 25/20/9 32/18/9
f 11/11/11 13/13/11 23/13/11
f 9/9/12 21/9/12 20/7/12
f 15/18/13 24/18/13 23/13/13
f 5/5/14 19/5/14 18/2/14
f 9/9/15 11/11/15 22/11/15
f 15/18/16 1/20/16 17/20/16
f 3/2/17 18/2/17 17/3/17
f 32/23/18 25/30/18 26/31/18
f 26/31/18 27/32/18 28/21/18
f 28/21/18 29/33/18 30/22/18
f 30/22/18 31/34/18 32/23/18
f 32/23/18 26/31/18 28/21/18
f 22/11/6 23/13/6 31/13/6
f 20/7/4 21/9/4 29/9/4
f 19/5/2 27/5/2 26/2/2
f 24/18/8 32/18/8 31/13/8
f 22/11/5 30/11/5 29/9/5
f 20/7/3 28/7/3 27/5/3
f 17/3/1 18/2/1 26/2/1
