# Blender 4.0.2
# www.blender.org
mtllib Shotgun.mtl
o Gun
v -0.029673 0.066024 0.159874
v -0.016617 0.044457 0.159874
v -0.016617 0.133225 0.159874
v -0.029673 0.110969 0.159874
v -0.016617 0.030975 -0.057766
v -0.028376 0.051397 -0.061864
v -0.029203 0.083305 -0.071054
v -0.016617 0.105301 -0.078252
v 0.016617 0.044457 0.159874
v 0.029673 0.066024 0.159874
v 0.029673 0.110969 0.159874
v 0.016617 0.133225 0.159874
v 0.028376 0.051498 -0.062379
v 0.016617 0.030990 -0.057842
v 0.016617 0.105301 -0.078252
v 0.029203 0.083305 -0.071054
v -0.016617 0.037766 -0.018838
v -0.029673 0.059485 -0.018838
v -0.016617 0.043714 0.040733
v -0.029673 0.065355 0.040733
v -0.029673 0.066043 0.100304
v -0.016617 0.044457 0.100304
v -0.016617 0.133225 0.100304
v -0.029673 0.110923 0.100304
v -0.016617 0.133225 0.040733
v -0.029673 0.110782 0.040733
v -0.029673 0.106328 -0.018838
v -0.016617 0.129012 -0.018838
v 0.016617 0.044457 0.100304
v 0.029673 0.066043 0.100304
v 0.016617 0.043714 0.040733
v 0.029673 0.065355 0.040733
v 0.029673 0.059485 -0.018838
v 0.016617 0.037766 -0.018838
v 0.016617 0.129012 -0.018838
v 0.029673 0.106328 -0.018838
v 0.016617 0.133225 0.040733
v 0.029673 0.110782 0.040733
v 0.029673 0.110923 0.100304
v 0.016617 0.133225 0.100304
v -0.045991 0.008173 -0.204440
v -0.045991 -0.071481 -0.426330
v -0.042488 0.005576 -0.166057
v -0.045991 0.079840 -0.193913
v -0.036623 0.098379 -0.192618
v -0.043247 0.092949 -0.192997
v -0.045991 0.057195 -0.436414
v -0.036626 0.075363 -0.437838
v -0.043248 0.070042 -0.437421
v 0.045991 0.026404 -0.202221
v 0.035680 0.008172 -0.204437
v 0.042971 0.013503 -0.203740
v 0.036623 0.098379 -0.192618
v 0.045991 0.079840 -0.193913
v 0.043247 0.092949 -0.192997
v 0.045991 -0.053918 -0.427706
v 0.035718 -0.071481 -0.426110
v 0.042982 -0.066337 -0.426638
v 0.036626 0.075363 -0.437615
v 0.045991 0.057195 -0.436414
v 0.043248 0.070042 -0.437321
v -0.026770 -0.016440 -0.100205
v -0.040840 -0.004780 -0.132987
v -0.035950 -0.013025 -0.108751
v -0.026654 0.035081 -0.066876
v -0.040551 0.049113 -0.086234
v -0.035832 0.039194 -0.072330
v 0.040551 0.049292 -0.087141
v 0.028214 0.035230 -0.067635
v 0.036289 0.039404 -0.073396
v 0.040840 0.011735 -0.119601
v 0.028435 -0.016440 -0.100555
v 0.036438 -0.008018 -0.106610
v 0.032075 0.005576 -0.166050
v 0.042488 0.023389 -0.157099
v 0.039438 0.010850 -0.163727
v -0.041690 0.046721 -0.115061
v -0.032458 0.065016 -0.124027
v -0.039316 0.060281 -0.121976
v 0.032458 0.065195 -0.124935
v 0.041690 0.046742 -0.116833
v 0.039316 0.060476 -0.122964
v 0.006445 0.041107 -0.036938
v 0.019287 0.057644 -0.037688
v 0.015347 0.045948 -0.037146
v -0.019287 0.057644 -0.037688
v -0.005165 0.041109 -0.036947
v -0.014972 0.045947 -0.037141
v -0.009088 0.106355 -0.039985
v -0.020060 0.087446 -0.039093
v -0.017050 0.100817 -0.039724
v 0.020060 0.087446 -0.039093
v 0.009088 0.106355 -0.039985
v 0.017050 0.100817 -0.039724
v 0.030603 0.072432 -0.075375
v 0.020059 0.089578 -0.085915
v 0.027894 0.084556 -0.082814
v 0.029801 0.057558 -0.068456
v 0.016766 0.041327 -0.061579
v 0.025619 0.046117 -0.063777
v -0.015435 0.041255 -0.061211
v -0.029801 0.057474 -0.068029
v -0.025229 0.046002 -0.063192
v -0.020059 0.089578 -0.085915
v -0.030603 0.072432 -0.075375
v -0.027894 0.084556 -0.082814
vn -0.0000 0.9288 -0.3706
vn -0.0000 0.9748 -0.2233
vn 0.0005 -0.9852 0.1715
vn 0.0002 -0.9908 0.1355
vn -0.0000 -0.9908 0.1357
vn 0.9742 0.1999 -0.1052
vn 0.9645 -0.2629 0.0258
vn 0.9642 -0.2637 0.0265
vn -0.0000 -1.0000 0.0062
vn -0.0000 -1.0000 -0.0000
vn -0.0000 1.0000 -0.0000
vn -0.0110 -0.2781 -0.9605
vn 0.0286 -0.2666 -0.9634
vn 0.0064 -0.2533 -0.9674
vn 1.0000 -0.0000 -0.0000
vn 0.9640 0.2656 -0.0100
vn -0.0000 0.9994 -0.0353
vn -0.9645 -0.2626 0.0262
vn -0.9739 0.2009 -0.1056
vn -0.9637 -0.2657 0.0272
vn -1.0000 -0.0000 -0.0000
vn -0.9640 0.2656 -0.0100
vn -0.9578 0.2778 -0.0740
vn 0.9578 0.2778 -0.0740
vn -0.0000 -0.0000 1.0000
vn -0.0000 -0.9984 0.0560
vn -0.8557 -0.5175 0.0030
vn -0.8555 -0.5178 -0.0000
vn -0.8556 -0.5175 0.0029
vn -0.8705 0.4502 -0.1991
vn -0.8615 0.4966 -0.1057
vn 0.8585 -0.5089 0.0632
vn 0.8629 0.5053 -0.0001
vn 0.8627 0.5058 -0.0001
vn 0.8632 0.5049 -0.0004
vn -0.8582 -0.5093 0.0641
vn -0.8707 -0.4844 0.0845
vn -0.8560 -0.5162 0.0294
vn -0.8558 -0.5165 0.0279
vn -0.8629 0.5053 -0.0001
vn -0.8627 0.5058 -0.0001
vn -0.8625 0.5060 -0.0000
vn -0.8640 0.5031 -0.0179
vn -0.8632 0.5049 -0.0004
vn 0.8557 -0.5175 0.0030
vn 0.8555 -0.5178 -0.0000
vn 0.8555 -0.5179 -0.0000
vn 0.8558 -0.5165 0.0279
vn 0.8556 -0.5175 0.0029
vn 0.8560 -0.5162 0.0294
vn 0.8705 0.4502 -0.1991
vn 0.8615 0.4966 -0.1057
vn 0.8640 0.5031 -0.0179
vn 0.0002 0.9956 -0.0935
vn 0.0001 0.9956 -0.0935
vn -0.0000 0.9956 -0.0935
vn -0.0007 -0.9412 0.3379
vn -0.0001 -0.9895 0.1444
vn -0.0009 -0.9412 0.3379
vn 0.9923 0.1123 0.0515
vn 0.9915 -0.1265 0.0299
vn 0.9929 -0.1075 0.0508
vn 0.0124 -0.5876 0.8090
vn 0.0117 -0.6928 0.7211
vn 0.0099 -0.6857 0.7279
vn -0.0025 -0.9823 -0.1875
vn -0.0000 -0.9838 -0.1794
vn 0.0016 0.8986 0.4389
vn 0.0019 0.8986 0.4387
vn -0.0000 0.8979 0.4402
vn -0.0188 -0.9465 -0.3222
vn -0.0125 -0.9486 -0.3162
vn -0.9052 0.0463 0.4224
vn -0.9646 0.1527 0.2152
vn -0.9531 0.2295 0.1975
vn 0.9738 0.1438 0.1764
vn 0.9539 0.2249 0.1987
vn 0.9077 0.0467 0.4170
vn 0.0102 -0.5866 0.8098
vn 0.0090 -0.5400 0.8416
vn 0.0053 -0.5373 0.8434
vn -0.9993 -0.0056 0.0378
vn -0.9946 0.1033 -0.0096
vn -0.9928 0.0967 0.0705
vn -0.9942 -0.0675 0.0834
vn -0.9722 0.1422 0.1863
vn 0.0007 -0.0777 -0.9970
vn -0.0087 -0.0830 -0.9965
vn -0.0052 -0.0814 -0.9967
vn 0.9946 0.1031 -0.0096
vn 0.9898 -0.1338 0.0480
vn 0.9648 0.1517 0.2146
vn 0.9312 -0.1472 0.3335
vn -0.0000 0.0471 0.9989
vn 0.0002 0.0457 0.9990
vn -0.0002 0.0466 0.9989
vn -0.0000 0.8877 -0.4604
vn -0.0000 0.9393 -0.3431
vn -0.0035 0.8896 -0.4567
vn 0.9932 0.0935 0.0695
vn 0.9895 -0.1352 0.0511
vn -0.2995 -0.9471 0.1155
vn 0.0012 -1.0000 -0.0071
vn -0.1701 -0.9832 0.0661
vn -0.0054 0.8439 -0.5365
vn -0.0098 0.8466 -0.5321
vn -0.6275 0.7752 -0.0727
vn -0.6264 0.7621 0.1639
vn -0.6319 0.7604 0.1500
vn -0.9781 0.2073 -0.0194
vn -0.9924 0.1119 0.0508
vn -0.9780 0.2008 0.0562
vn 0.5739 -0.8046 0.1525
vn 0.5681 -0.7745 0.2784
vn 0.5763 -0.8067 0.1305
vn 0.9687 -0.2358 0.0780
vn 0.6267 0.7758 -0.0727
vn 0.6262 0.7619 0.1654
vn 0.6267 0.7759 -0.0727
vn 0.9781 0.2074 -0.0194
vn -0.6884 -0.4114 0.5974
vn -0.8151 -0.1412 0.5618
vn -0.6987 -0.4082 0.5875
vn -0.9777 -0.1317 0.1636
vn 0.6028 -0.2736 0.7495
vn 0.7587 -0.3506 0.5491
vn 0.8410 -0.1243 0.5266
vn 0.9691 -0.2456 0.0233
vn 0.6240 -0.7506 -0.2175
vn 0.6020 -0.7914 -0.1059
vn 0.6024 -0.7895 -0.1170
vn 0.9628 0.2316 0.1391
vn 0.4491 0.8002 0.3975
vn 0.4396 0.8052 0.3980
vn -0.9603 0.2415 0.1399
vn -0.4482 0.8020 0.3949
vn 0.5853 0.7819 -0.2147
vn 0.5682 0.8073 -0.1594
vn 0.5875 0.7773 -0.2250
vn 0.9510 0.2818 0.1271
vn 0.5572 -0.0996 0.8244
vn 0.3528 -0.2367 0.9053
vn -0.5297 -0.1256 0.8388
vn -0.5307 -0.3141 0.7872
vn -0.3135 -0.2665 0.9114
vn -0.9509 0.2820 0.1277
vn -0.5682 0.8073 -0.1594
vn -0.5858 0.7806 -0.2180
vn -0.5883 0.7754 -0.2294
vn 0.5972 0.7514 -0.2807
vn 0.5975 0.7512 -0.2805
vn 0.4976 -0.8466 0.1890
vn 0.4783 -0.8574 0.1899
vn 0.4724 -0.8606 0.1902
vn 0.9194 -0.2250 0.3226
vn 0.8948 -0.2855 0.3433
vn -0.9273 -0.1602 0.3382
vn -0.9121 -0.2485 0.3260
vn -0.8848 -0.3101 0.3477
vn -0.4423 -0.8787 0.1798
vn -0.6002 0.7464 -0.2874
vn -0.6009 0.7460 -0.2872
vn -0.9980 -0.0251 0.0574
vn 0.0008 -0.9852 0.1712
vn -0.0021 -0.1979 -0.9802
vn -0.0347 -0.2622 -0.9644
vn -0.0629 -0.2777 -0.9586
vn -0.0000 -0.3110 -0.9504
vn 0.0903 -0.2642 -0.9602
vn -0.8555 -0.5179 -0.0000
vn 0.8723 -0.4817 0.0837
vn 0.8625 0.5060 -0.0000
vn 0.0003 0.9956 -0.0934
vn -0.0000 -0.9895 0.1446
vn 0.0036 0.8993 0.4372
vn -0.0020 -0.9478 -0.3187
vn -0.0646 -0.9486 -0.3097
vn 0.0027 -0.0781 -0.9969
vn 0.0016 -0.0787 -0.9969
vn -0.0000 -0.0781 -0.9969
vn 0.0030 -0.0514 -0.9987
vn -0.0011 -0.0709 -0.9975
vn -0.0364 -0.0781 -0.9963
vn -0.0142 -0.0823 -0.9965
vn 0.0002 0.0470 0.9989
vn 0.0012 0.0471 0.9989
vn -0.0007 0.0387 0.9993
vn 0.0001 0.0446 0.9990
vn -0.0024 0.0471 0.9989
vn 0.0022 -1.0000 -0.0080
vn 0.5685 -0.7742 0.2783
vn 0.9702 -0.2280 0.0817
vn 0.6318 0.7602 0.1512
vn 0.9780 0.2007 0.0568
vn 0.7686 -0.3414 0.5410
vn 0.9831 -0.1564 0.0953
vn 0.6248 -0.7499 -0.2174
vn -0.4388 0.8069 0.3954
vn 0.5673 0.8079 -0.1596
vn 0.9618 0.2240 0.1575
vn -0.9618 0.2240 0.1575
vn -0.5673 0.8079 -0.1596
vn 0.5032 -0.8433 0.1887
vn -0.4582 -0.8707 0.1786
vt 0.820000 0.500000
vt 0.680000 0.562500
vt 0.680000 0.500000
vt 0.180000 0.500000
vt 0.320000 0.562500
vt 0.180000 0.562500
vt 0.551512 0.500000
vt 0.434506 0.562500
vt 0.444643 0.500000
vt 0.320000 0.687500
vt 0.180000 0.750000
vt 0.180000 0.687500
vt 0.820000 0.687500
vt 0.680000 0.750000
vt 0.680000 0.687500
vt 0.625000 0.305000
vt 0.375000 0.445000
vt 0.562191 0.687500
vt 0.435741 0.750000
vt 0.435792 0.687500
vt 0.562319 0.625000
vt 0.435444 0.625000
vt 0.820000 0.562500
vt 0.680000 0.625000
vt 0.680000 0.562500
vt 0.434506 0.187500
vt 0.551512 0.250000
vt 0.444643 0.250000
vt 0.435792 0.062500
vt 0.562319 0.125000
vt 0.435444 0.125000
vt 0.820000 0.625000
vt 0.680000 0.687500
vt 0.680000 0.625000
vt 0.562850 0.187500
vt 0.562850 0.562500
vt 0.625000 0.805000
vt 0.562320 1.000000
vt 0.375000 0.945000
vt 0.320000 0.625000
vt 0.180000 0.687500
vt 0.180000 0.625000
vt 0.180000 0.625000
vt 0.180000 0.562500
vt 0.125000 0.750000
vt 0.125000 0.687500
vt 0.625000 0.250000
vt 0.625000 0.187500
vt 0.562320 0.750000
vt 0.125000 0.521540
vt 0.125000 0.575717
vt 0.125000 0.626746
vt 0.625000 0.062500
vt 0.562320 0.000000
vt 0.625000 0.000000
vt 0.625000 0.125000
vt 0.562191 0.062500
vt 0.320000 0.750000
vt 0.435741 0.000000
vt 0.650455 0.500000
vt 0.849539 0.750000
vt 0.650461 0.750000
vt 0.347078 0.500000
vt 0.125000 0.500000
vt 0.574225 0.750000
vt 0.446013 0.750000
vt 0.425436 0.750000
vt 0.625000 0.960462
vt 0.625000 0.802534
vt 0.625000 0.941714
vt 0.344366 0.750000
vt 0.654276 0.750000
vt 0.650461 0.750000
vt 0.164166 0.750000
vt 0.625000 0.750000
vt 0.625000 0.784534
vt 0.375000 0.960834
vt 0.375000 0.783826
vt 0.375000 0.000000
vt 0.594069 0.250000
vt 0.375000 0.250000
vt 0.568821 0.000000
vt 0.625000 0.275455
vt 0.404901 0.500000
vt 0.375000 0.472078
vt 0.594069 0.500000
vt 0.425436 0.750000
vt 0.805277 0.750000
vt 0.848825 0.750000
vt 0.829550 0.750000
vt 0.694723 0.750000
vt 0.670450 0.750000
vt 0.568821 0.750000
vt 0.452536 0.750000
vt 0.446013 0.750000
vt 0.625000 0.941714
vt 0.625000 0.832279
vt 0.625000 0.909238
vt 0.843983 0.750000
vt 0.670450 0.750000
vt 0.656017 0.750000
vt 0.849545 0.500000
vt 0.875000 0.746556
vt 0.574225 0.000000
vt 0.625000 0.003444
vt 0.346974 0.750000
vt 0.375000 0.506741
vt 0.375000 0.750000
vt 0.625000 0.748278
vt 0.625000 0.500000
vt 0.625000 1.000000
vt 0.388552 1.000000
vt 0.388552 0.000000
vt 0.411960 0.750000
vt 0.560145 0.750000
vt 0.346974 0.750000
vt 0.875000 0.750000
vt 0.845724 0.750000
vt 0.631922 0.750000
vt 0.625000 0.750000
vt 0.560145 0.000000
vt 0.820000 0.562500
vt 0.320000 0.500000
vt 0.820000 0.750000
vt 0.375000 0.305000
vt 0.625000 0.445000
vt 0.820000 0.625000
vt 0.820000 0.687500
vt 0.375000 0.805000
vt 0.625000 0.945000
vt 0.435741 1.000000
vt 0.125000 0.562500
vt 0.125000 0.625000
vt 0.341174 0.750000
vt 0.136141 0.750000
vt 0.615940 0.257456
vt 0.625000 0.474545
vt 0.615940 0.492544
vt 0.383758 0.491822
vt 0.694723 0.750000
vt 0.854233 0.750000
vt 0.784238 0.750000
vt 0.707279 0.750000
vt 0.648710 0.750000
vt 0.875000 0.500000
s 1
f 8/1/1 35/2/2 15/3/1
f 5/4/3 34/5/4 17/6/5
f 16/7/6 33/8/7 13/9/8
f 29/10/9 2/11/10 22/12/9
f 23/13/11 12/14/11 40/15/11
f 8/16/12 16/7/13 14/17/14
f 39/18/15 10/19/15 30/20/15
f 38/21/16 30/20/15 32/22/15
f 28/23/2 37/24/17 35/25/2
f 18/26/18 7/27/19 6/28/20
f 21/29/21 26/30/22 20/31/21
f 25/32/17 40/33/11 37/34/17
f 20/31/21 27/35/23 18/26/18
f 36/36/24 32/22/15 33/8/7
f 12/37/25 4/38/25 2/39/25
f 31/40/26 22/41/9 19/42/26
f 34/5/4 19/43/26 17/44/5
f 22/12/27 1/45/28 21/46/29
f 8/47/30 27/35/23 28/48/31
f 34/5/32 13/9/8 33/8/7
f 40/15/33 11/49/34 39/18/35
f 17/6/36 6/50/20 5/4/37
f 19/43/38 18/51/18 17/44/36
f 22/41/27 20/52/39 19/42/38
f 23/53/40 4/54/41 3/55/42
f 25/56/43 24/57/44 23/53/40
f 28/48/31 26/30/22 25/56/43
f 29/10/45 10/19/46 9/58/47
f 29/10/45 32/22/48 30/20/49
f 31/40/50 33/8/7 32/22/48
f 15/3/51 36/36/24 16/7/6
f 35/25/52 38/21/16 36/36/24
f 37/34/53 39/18/35 38/21/16
f 1/59/21 24/57/21 21/29/21
f 59/60/54 45/61/55 53/62/56
f 57/63/57 41/45/58 42/64/59
f 54/65/60 75/66/61 50/67/62
f 65/68/63 99/69/64 101/70/65
f 41/45/58 74/71/66 43/45/67
f 45/61/68 80/72/69 53/73/70
f 74/71/66 62/74/71 63/45/72
f 102/55/73 90/55/74 105/55/75
f 68/75/76 95/75/77 98/75/78
f 69/76/79 62/77/80 72/78/81
f 41/79/82 47/80/83 42/81/21
f 77/82/84 63/79/85 66/55/86
f 48/83/87 56/84/88 57/85/89
f 60/86/90 50/87/62 56/84/91
f 98/75/78 92/75/92 84/75/93
f 89/88/94 88/89/95 84/75/96
f 104/90/97 93/91/98 96/92/99
f 81/93/100 71/94/101 75/95/61
f 101/96/102 83/97/103 87/98/104
f 66/55/86 105/55/75 77/55/84
f 78/99/105 96/100/99 80/101/106
f 48/102/107 46/103/108 45/61/109
f 49/47/110 44/104/111 46/105/112
f 51/106/113 58/107/114 52/108/115
f 52/108/116 56/84/91 50/87/62
f 59/60/117 55/109/118 61/110/119
f 61/110/120 54/65/60 60/86/90
f 62/77/121 67/111/122 64/112/123
f 64/113/124 66/55/86 63/79/85
f 69/76/125 73/114/126 70/75/127
f 70/75/127 71/94/101 68/75/76
f 71/94/101 76/108/128 75/95/61
f 73/108/129 74/71/130 76/108/131
f 54/65/60 82/75/132 81/115/100
f 55/109/118 80/72/133 82/75/134
f 50/67/62 76/108/128 52/108/116
f 52/108/115 74/71/130 51/116/113
f 44/104/111 79/55/135 46/55/112
f 46/117/108 78/118/136 45/61/109
f 96/92/137 94/119/138 97/75/139
f 97/75/140 92/75/92 95/75/77
f 69/76/125 100/75/141 99/69/142
f 70/75/127 98/75/78 100/75/141
f 102/55/73 67/55/122 103/55/143
f 103/111/143 65/68/144 101/70/145
f 90/55/74 106/55/146 105/55/75
f 91/117/147 104/90/148 106/117/149
f 80/101/150 97/75/139 82/75/151
f 82/75/132 95/75/77 81/120/100
f 99/69/152 85/75/153 83/97/154
f 100/75/155 84/75/93 85/75/156
f 86/55/157 103/55/158 88/55/159
f 88/111/160 101/96/102 87/98/104
f 105/55/75 79/55/135 77/55/84
f 106/117/149 78/99/161 79/117/162
f 44/104/111 43/79/163 77/121/84
f 8/1/1 28/122/2 35/2/2
f 5/4/3 14/123/164 34/5/4
f 16/7/6 36/36/24 33/8/7
f 29/10/9 9/58/10 2/11/10
f 23/13/11 3/124/11 12/14/11
f 14/17/14 5/125/165 6/28/166
f 6/28/166 7/27/167 8/16/12
f 8/16/12 15/126/168 16/7/13
f 16/7/13 13/9/169 14/17/14
f 14/17/14 6/28/166 8/16/12
f 39/18/15 11/49/15 10/19/15
f 38/21/16 39/18/15 30/20/15
f 28/23/2 25/127/17 37/24/17
f 18/26/18 27/35/23 7/27/19
f 21/29/21 24/57/21 26/30/22
f 25/32/17 23/128/11 40/33/11
f 20/31/21 26/30/22 27/35/23
f 36/36/24 38/21/16 32/22/15
f 2/39/25 9/129/25 10/19/25
f 10/19/25 11/49/25 12/37/25
f 12/37/25 3/130/25 4/38/25
f 4/38/25 1/131/25 2/39/25
f 2/39/25 10/19/25 12/37/25
f 31/40/26 29/10/9 22/41/9
f 34/5/4 31/40/26 19/43/26
f 22/12/27 2/11/170 1/45/28
f 8/47/30 7/27/19 27/35/23
f 34/5/32 14/123/171 13/9/8
f 40/15/33 12/14/172 11/49/34
f 17/6/36 18/132/18 6/50/20
f 19/43/38 20/133/39 18/51/18
f 22/41/27 21/46/29 20/52/39
f 23/53/40 24/57/44 4/54/41
f 25/56/43 26/30/22 24/57/44
f 28/48/31 27/35/23 26/30/22
f 29/10/45 30/20/49 10/19/46
f 29/10/45 31/40/50 32/22/48
f 31/40/50 34/5/32 33/8/7
f 15/3/51 35/2/52 36/36/24
f 35/25/52 37/24/53 38/21/16
f 37/34/53 40/33/33 39/18/35
f 1/59/21 4/54/21 24/57/21
f 59/60/54 48/102/173 45/61/55
f 57/63/57 51/106/174 41/45/58
f 54/65/60 81/115/100 75/66/61
f 65/68/63 69/76/79 99/69/64
f 41/45/58 51/116/174 74/71/66
f 45/61/68 78/118/175 80/72/69
f 63/45/72 43/45/67 74/71/66
f 74/71/66 72/134/176 62/74/71
f 62/74/71 64/135/177 63/45/72
f 102/55/73 86/55/157 90/55/74
f 68/75/76 81/120/100 95/75/77
f 69/76/79 65/68/63 62/77/80
f 41/79/82 44/104/111 47/80/83
f 77/82/84 43/79/163 63/79/85
f 57/85/89 42/81/178 47/80/179
f 47/80/179 49/136/180 48/83/87
f 48/83/87 59/137/181 61/138/182
f 61/138/182 60/86/183 56/84/88
f 56/84/88 58/139/184 57/85/89
f 57/85/89 47/80/179 48/83/87
f 48/83/87 61/138/182 56/84/88
f 60/86/90 54/65/60 50/87/62
f 98/75/78 95/75/77 92/75/92
f 84/75/96 92/75/94 94/119/94
f 94/119/94 93/140/94 89/88/94
f 89/88/94 91/141/94 90/117/185
f 90/117/185 86/117/186 88/89/95
f 88/89/95 87/142/187 83/143/188
f 83/143/188 85/144/189 84/75/96
f 84/75/96 94/119/94 89/88/94
f 89/88/94 90/117/185 88/89/95
f 88/89/95 83/143/188 84/75/96
f 104/90/97 89/88/98 93/91/98
f 81/93/100 68/75/76 71/94/101
f 101/96/102 99/69/190 83/97/103
f 66/55/86 102/55/73 105/55/75
f 78/99/105 104/90/97 96/100/99
f 48/102/107 49/145/107 46/103/108
f 49/47/110 47/80/83 44/104/111
f 51/106/113 57/63/191 58/107/114
f 52/108/116 58/107/192 56/84/91
f 59/60/117 53/62/193 55/109/118
f 61/110/120 55/109/194 54/65/60
f 62/77/121 65/68/144 67/111/122
f 64/113/124 67/55/122 66/55/86
f 69/76/125 72/78/195 73/114/126
f 70/75/127 73/114/196 71/94/101
f 71/94/101 73/108/196 76/108/128
f 73/108/129 72/134/197 74/71/130
f 54/65/60 55/109/194 82/75/132
f 55/109/118 53/73/193 80/72/133
f 50/67/62 75/66/61 76/108/128
f 52/108/115 76/108/131 74/71/130
f 44/104/111 77/121/84 79/55/135
f 46/117/108 79/117/198 78/118/136
f 96/92/137 93/91/199 94/119/138
f 97/75/140 94/119/200 92/75/92
f 69/76/125 70/75/127 100/75/141
f 70/75/127 68/75/76 98/75/78
f 102/55/73 66/55/86 67/55/122
f 103/111/143 67/111/122 65/68/144
f 90/55/74 91/55/201 106/55/146
f 91/117/147 89/88/202 104/90/148
f 80/101/150 96/100/137 97/75/139
f 82/75/132 97/75/140 95/75/77
f 99/69/152 100/75/203 85/75/153
f 100/75/155 98/75/78 84/75/93
f 86/55/157 102/55/73 103/55/158
f 88/111/160 103/111/204 101/96/102
f 105/55/75 106/55/146 79/55/135
f 106/117/149 104/90/148 78/99/161
f 44/104/111 41/79/82 43/79/163
o Gun.001
v -0.015120 0.019553 -0.042430
v 0.015120 0.019553 -0.042430
v -0.015120 -0.005279 -0.029922
v 0.015120 -0.005279 -0.029922
v -0.015120 -0.015565 0.000274
v 0.015120 -0.015565 0.000274
v -0.015120 -0.005279 0.030470
v 0.015120 -0.005279 0.030470
v -0.015120 0.019553 0.055386
v 0.015120 0.019553 0.055386
v -0.015120 0.047813 0.083192
v 0.015120 0.047813 0.083192
v -0.015120 0.047813 -0.042279
v 0.015120 0.047813 -0.042279
v 0.015120 0.047813 0.029138
v -0.015120 0.047813 0.029138
v 0.015120 0.047813 -0.025301
v 0.015120 0.006080 -0.017861
v 0.015120 -0.000097 0.000274
v 0.015120 0.020993 -0.025372
v 0.015120 0.020993 0.033245
v 0.015120 0.006080 0.018408
v -0.015120 0.047813 -0.025301
v -0.015120 0.020993 -0.025372
v -0.015120 0.020993 0.033245
v -0.015120 0.006080 0.018408
v -0.015120 0.006080 -0.017861
v -0.015120 -0.000097 0.000274
vn -0.0000 -0.4498 -0.8931
vn -0.0000 -0.9466 -0.3224
vn -0.0000 -0.9466 0.3224
vn -0.0000 -0.7083 0.7059
vn -0.0000 -0.7014 0.7128
vn 1.0000 -0.0000 -0.0000
vn -0.0000 0.0053 -1.0000
vn -1.0000 -0.0000 -0.0000
vn -0.0000 0.4498 0.8931
vn -0.0000 0.9466 0.3224
vn -0.0000 0.9466 -0.3224
vn -0.0000 0.7053 -0.7089
vn -0.0000 -0.1514 -0.9885
vn -0.0000 -0.0026 1.0000
vt 1.000000 1.000000
vt 0.875000 0.500000
vt 1.000000 0.500000
vt 0.875000 1.000000
vt 0.750000 0.500000
vt 0.750000 1.000000
vt 0.625000 0.500000
vt 0.625000 1.000000
vt 0.500000 0.500000
vt 0.500000 1.000000
vt 0.375000 0.500000
vt 0.419706 0.080294
vt 0.419706 0.419706
vt 0.383490 0.250000
vt 0.125000 1.000000
vt 0.000000 0.500000
vt 0.125000 0.500000
vt 0.919706 0.419706
vt 0.919706 0.080294
vt 0.883490 0.250000
vt 1.000000 0.923625
vt 0.875000 0.576375
vt 0.875000 0.923625
vt 0.750000 0.923625
vt 0.750000 0.576375
vt 0.625000 0.576375
vt 0.625000 0.923625
vt 0.500000 0.923625
vt 0.500000 0.576375
vt 0.402798 0.576375
vt 0.402798 0.923625
vt 0.097202 0.923625
vt 0.000000 0.576375
vt 0.000000 0.923625
vt 0.375000 1.000000
vt 0.240162 0.115675
vt 0.052248 0.148003
vt 0.080294 0.080294
vt 0.250000 0.010000
vt 0.490000 0.250000
vt 0.250000 0.490000
vt 0.080294 0.419706
vt 0.052248 0.351997
vt 0.240162 0.384325
vt 0.341307 0.349974
vt 0.341308 0.150026
vt 0.000000 1.000000
vt 0.740162 0.384325
vt 0.552248 0.351997
vt 0.580294 0.419706
vt 0.750000 0.490000
vt 0.990000 0.250000
vt 0.750000 0.010000
vt 0.580294 0.080294
vt 0.552248 0.148003
vt 0.740162 0.115675
vt 0.841307 0.150026
vt 0.841307 0.349974
vt 1.000000 0.576375
vt 0.097202 0.576375
s 0
f 108/146/205 109/147/205 107/148/205
f 110/149/206 111/150/206 109/147/206
f 112/151/207 113/152/207 111/150/207
f 114/153/208 115/154/208 113/152/208
f 116/155/209 117/156/209 115/154/209
f 114/157/210 110/158/210 125/159/210
f 120/160/211 107/161/211 119/162/211
f 109/163/212 113/164/212 134/165/212
f 126/166/213 133/167/213 124/168/213
f 125/169/214 133/167/214 134/170/214
f 125/169/215 132/171/215 128/172/215
f 127/173/216 132/171/216 131/174/216
f 127/173/217 122/175/217 121/176/217
f 123/177/218 130/178/218 126/179/218
f 108/146/205 110/149/205 109/147/205
f 110/149/206 112/151/206 111/150/206
f 112/151/207 114/153/207 113/152/207
f 114/153/208 116/155/208 115/154/208
f 116/155/209 118/180/209 117/156/209
f 127/181/210 121/182/210 118/183/210
f 118/183/210 116/184/210 114/157/210
f 114/157/210 112/185/210 110/158/210
f 110/158/210 108/186/210 120/187/210
f 120/187/210 123/188/210 126/189/210
f 120/187/210 126/189/210 124/190/210
f 127/181/210 118/183/210 114/157/210
f 128/191/210 127/181/210 114/157/210
f 110/158/210 120/187/210 124/190/210
f 125/159/210 128/191/210 114/157/210
f 110/158/210 124/190/210 125/159/210
f 120/160/211 108/192/211 107/161/211
f 130/193/212 129/194/212 119/195/212
f 119/195/212 107/196/212 109/163/212
f 109/163/212 111/197/212 113/164/212
f 113/164/212 115/198/212 117/199/212
f 117/199/212 122/200/212 131/201/212
f 117/199/212 131/201/212 132/202/212
f 130/193/212 119/195/212 109/163/212
f 133/203/212 130/193/212 109/163/212
f 113/164/212 117/199/212 132/202/212
f 134/165/212 133/203/212 109/163/212
f 113/164/212 132/202/212 134/165/212
f 126/166/213 130/204/213 133/167/213
f 125/169/214 124/168/214 133/167/214
f 125/169/215 134/170/215 132/171/215
f 127/173/216 128/172/216 132/171/216
f 127/173/217 131/174/217 122/175/217
f 123/177/218 129/205/218 130/178/218
o Gun.002
v -0.000000 0.090980 0.496722
v -0.000000 0.090980 0.537095
v 0.014830 0.086144 0.496722
v 0.014830 0.086144 0.537095
v 0.023995 0.073484 0.496722
v 0.023995 0.073484 0.537095
v 0.023995 0.057835 0.496722
v 0.023995 0.057835 0.537095
v 0.014830 0.045174 0.496722
v 0.014830 0.045174 0.537095
v -0.000000 0.040338 0.496722
v -0.000000 0.040338 0.537095
v -0.014830 0.045174 0.496722
v -0.014830 0.045174 0.537095
v -0.023995 0.057835 0.496722
v -0.023995 0.057835 0.537095
v -0.023995 0.073484 0.496722
v -0.023995 0.073484 0.537095
v -0.014830 0.086144 0.496722
v -0.014830 0.086144 0.537095
v -0.000000 0.104205 0.496722
v 0.014820 0.104205 0.496722
v 0.014820 0.104205 0.537095
v -0.000000 0.104205 0.537095
v -0.014820 0.104205 0.537095
v -0.014820 0.104205 0.496722
vn -0.0000 -0.0000 1.0000
vn 0.8100 0.5864 -0.0000
vn 1.0000 -0.0000 -0.0000
vn 0.8100 -0.5864 -0.0000
vn 0.3100 -0.9507 -0.0000
vn -0.3100 -0.9507 -0.0000
vn -0.8100 -0.5864 -0.0000
vn -1.0000 -0.0000 -0.0000
vn -0.8100 0.5864 -0.0000
vn -0.0000 -0.0000 -1.0000
vn -0.0000 1.0000 -0.0000
vn -1.0000 0.0005 -0.0000
vn 1.0000 0.0005 -0.0000
vt 0.250000 0.490000
vt 0.108932 0.444164
vt 0.900000 1.000000
vt 0.800000 0.500000
vt 0.900000 0.500000
vt 0.800000 1.000000
vt 0.700000 0.500000
vt 0.700000 1.000000
vt 0.600000 0.500000
vt 0.600000 1.000000
vt 0.500000 0.500000
vt 0.500000 1.000000
vt 0.400000 0.500000
vt 0.400000 1.000000
vt 0.300000 0.500000
vt 0.300000 1.000000
vt 0.200000 0.500000
vt 0.021746 0.324164
vt 0.391068 0.055836
vt 0.478254 0.324164
vt 0.200000 1.000000
vt 0.100000 0.500000
vt 0.750000 0.490000
vt 0.891068 0.444164
vt 0.978254 0.175836
vt 0.521746 0.175836
vt 0.608932 0.444164
vt 1.000000 1.000000
vt 1.000000 0.500000
vt 0.100000 1.000000
vt -0.000000 0.500000
vt 0.391068 0.444164
vt 0.021746 0.175836
vt 0.108932 0.055836
vt 0.250000 0.010000
vt 0.478254 0.175836
vt 0.978254 0.324164
vt 0.891068 0.055836
vt 0.750000 0.010000
vt 0.608932 0.055836
vt 0.521746 0.324164
vt -0.000000 1.000000
s 0
f 136/206/219 159/207/219 154/207/219
f 138/208/220 139/209/220 137/210/220
f 140/211/221 141/212/221 139/209/221
f 142/213/222 143/214/222 141/212/222
f 144/215/223 145/216/223 143/214/223
f 146/217/224 147/218/224 145/216/224
f 148/219/225 149/220/225 147/218/225
f 150/221/226 151/222/226 149/220/226
f 152/223/219 144/224/219 140/225/219
f 152/226/227 153/227/227 151/222/227
f 135/228/228 156/229/228 137/229/228
f 141/230/228 149/231/228 153/232/228
f 158/233/229 156/210/229 155/234/229
f 159/235/229 155/236/229 160/227/229
f 154/235/230 160/227/230 153/227/230
f 138/208/231 156/210/231 157/208/231
f 136/206/219 157/237/219 158/206/219
f 135/228/228 160/232/228 155/228/228
f 136/206/219 158/206/219 159/207/219
f 138/208/220 140/211/220 139/209/220
f 140/211/221 142/213/221 141/212/221
f 142/213/222 144/215/222 143/214/222
f 144/215/223 146/217/223 145/216/223
f 146/217/224 148/219/224 147/218/224
f 148/219/225 150/221/225 149/220/225
f 150/221/226 152/226/226 151/222/226
f 140/225/219 138/237/219 136/206/219
f 136/206/219 154/207/219 152/223/219
f 152/223/219 150/238/219 148/239/219
f 148/239/219 146/240/219 144/224/219
f 144/224/219 142/241/219 140/225/219
f 140/225/219 136/206/219 152/223/219
f 152/223/219 148/239/219 144/224/219
f 152/226/227 154/235/227 153/227/227
f 135/228/228 155/228/228 156/229/228
f 153/232/228 135/228/228 137/229/228
f 137/229/228 139/242/228 141/230/228
f 141/230/228 143/243/228 145/244/228
f 145/244/228 147/245/228 149/231/228
f 149/231/228 151/246/228 153/232/228
f 153/232/228 137/229/228 141/230/228
f 141/230/228 145/244/228 149/231/228
f 158/233/229 157/208/229 156/210/229
f 159/235/229 158/247/229 155/236/229
f 154/235/230 159/235/230 160/227/230
f 138/208/231 137/210/231 156/210/231
f 136/206/219 138/237/219 157/237/219
f 135/228/228 153/232/228 160/232/228
o Gun.004
v -0.000000 0.085264 0.139764
v -0.000000 0.085264 0.508044
v 0.011482 0.081520 0.139764
v 0.011482 0.081520 0.508044
v 0.018578 0.071718 0.139764
v 0.018578 0.071718 0.508044
v 0.018578 0.059601 0.139764
v 0.018578 0.059601 0.508044
v 0.011482 0.049798 0.139764
v 0.011482 0.049798 0.508044
v -0.000000 0.046054 0.139764
v -0.000000 0.046054 0.508044
v -0.011482 0.049798 0.139764
v -0.011482 0.049798 0.508044
v -0.018578 0.059601 0.139764
v -0.018578 0.059601 0.508044
v -0.018578 0.071718 0.139764
v -0.018578 0.071718 0.508044
v -0.011482 0.081520 0.139764
v -0.011482 0.081520 0.508044
vn 0.3100 0.9507 -0.0000
vn 0.8100 0.5864 -0.0000
vn 1.0000 -0.0000 -0.0000
vn 0.8100 -0.5864 -0.0000
vn 0.3100 -0.9507 -0.0000
vn -0.3100 -0.9507 -0.0000
vn -0.8100 -0.5864 -0.0000
vn -1.0000 -0.0000 -0.0000
vn -0.0000 -0.0000 1.0000
vn -0.8100 0.5864 -0.0000
vn -0.3100 0.9507 -0.0000
vt 1.000000 1.000000
vt 0.900000 0.500000
vt 1.000000 0.500000
vt 0.900000 1.000000
vt 0.800000 0.500000
vt 0.800000 1.000000
vt 0.700000 0.500000
vt 0.700000 1.000000
vt 0.600000 0.500000
vt 0.600000 1.000000
vt 0.500000 0.500000
vt 0.500000 1.000000
vt 0.400000 0.500000
vt 0.400000 1.000000
vt 0.300000 0.500000
vt 0.300000 1.000000
vt 0.200000 0.500000
vt 0.021746 0.324164
vt 0.391068 0.055836
vt 0.478254 0.324164
vt 0.200000 1.000000
vt 0.100000 0.500000
vt 0.100000 1.000000
vt -0.000000 0.500000
vt 0.391068 0.444164
vt 0.250000 0.490000
vt 0.108932 0.444164
vt 0.021746 0.175836
vt 0.108932 0.055836
vt 0.250000 0.010000
vt 0.478254 0.175836
vt -0.000000 1.000000
s 0
f 162/248/232 163/249/232 161/250/232
f 164/251/233 165/252/233 163/249/233
f 166/253/234 167/254/234 165/252/234
f 168/255/235 169/256/235 167/254/235
f 170/257/236 171/258/236 169/256/236
f 172/259/237 173/260/237 171/258/237
f 174/261/238 175/262/238 173/260/238
f 176/263/239 177/264/239 175/262/239
f 178/265/240 170/266/240 166/267/240
f 178/268/241 179/269/241 177/264/241
f 180/270/242 161/271/242 179/269/242
f 162/248/232 164/251/232 163/249/232
f 164/251/233 166/253/233 165/252/233
f 166/253/234 168/255/234 167/254/234
f 168/255/235 170/257/235 169/256/235
f 170/257/236 172/259/236 171/258/236
f 172/259/237 174/261/237 173/260/237
f 174/261/238 176/263/238 175/262/238
f 176/263/239 178/268/239 177/264/239
f 166/267/240 164/272/240 162/273/240
f 162/273/240 180/274/240 178/265/240
f 178/265/240 176/275/240 174/276/240
f 174/276/240 172/277/240 170/266/240
f 170/266/240 168/278/240 166/267/240
f 166/267/240 162/273/240 178/265/240
f 178/265/240 174/276/240 170/266/240
f 178/268/241 180/270/241 179/269/241
f 180/270/242 162/279/242 161/271/242
o Gun.005
v -0.000000 0.131439 0.131403
v -0.000000 0.131439 0.728021
v 0.011482 0.127695 0.131403
v 0.011482 0.127695 0.728021
v 0.018578 0.117892 0.131403
v 0.018578 0.117892 0.728021
v 0.018578 0.105776 0.131403
v 0.018578 0.105776 0.728021
v 0.011482 0.095973 0.131403
v 0.011482 0.095973 0.728021
v -0.000000 0.092229 0.131403
v -0.000000 0.092229 0.728021
v -0.011482 0.095973 0.131403
v -0.011482 0.095973 0.728021
v -0.018578 0.105776 0.131403
v -0.018578 0.105776 0.728021
v -0.018578 0.117892 0.131403
v -0.018578 0.117892 0.728021
v -0.011482 0.127695 0.131403
v -0.011482 0.127695 0.728021
vn 0.3100 0.9507 -0.0000
vn 0.8100 0.5864 -0.0000
vn 1.0000 -0.0000 -0.0000
vn 0.8100 -0.5864 -0.0000
vn 0.3100 -0.9507 -0.0000
vn -0.3100 -0.9507 -0.0000
vn -0.8100 -0.5864 -0.0000
vn -1.0000 -0.0000 -0.0000
vn -0.0000 -0.0000 1.0000
vn -0.8100 0.5864 -0.0000
vn -0.3100 0.9507 -0.0000
vt 1.000000 1.000000
vt 0.900000 0.500000
vt 1.000000 0.500000
vt 0.900000 1.000000
vt 0.800000 0.500000
vt 0.800000 1.000000
vt 0.700000 0.500000
vt 0.700000 1.000000
vt 0.600000 0.500000
vt 0.600000 1.000000
vt 0.500000 0.500000
vt 0.500000 1.000000
vt 0.400000 0.500000
vt 0.400000 1.000000
vt 0.300000 0.500000
vt 0.300000 1.000000
vt 0.200000 0.500000
vt 0.021746 0.324164
vt 0.391068 0.055836
vt 0.478254 0.324164
vt 0.200000 1.000000
vt 0.100000 0.500000
vt 0.100000 1.000000
vt -0.000000 0.500000
vt 0.391068 0.444164
vt 0.250000 0.490000
vt 0.108932 0.444164
vt 0.021746 0.175836
vt 0.108932 0.055836
vt 0.250000 0.010000
vt 0.478254 0.175836
vt -0.000000 1.000000
s 0
f 182/280/243 183/281/243 181/282/243
f 184/283/244 185/284/244 183/281/244
f 186/285/245 187/286/245 185/284/245
f 188/287/246 189/288/246 187/286/246
f 190/289/247 191/290/247 189/288/247
f 192/291/248 193/292/248 191/290/248
f 194/293/249 195/294/249 193/292/249
f 196/295/250 197/296/250 195/294/250
f 198/297/251 190/298/251 186/299/251
f 198/300/252 199/301/252 197/296/252
f 200/302/253 181/303/253 199/301/253
f 182/280/243 184/283/243 183/281/243
f 184/283/244 186/285/244 185/284/244
f 186/285/245 188/287/245 187/286/245
f 188/287/246 190/289/246 189/288/246
f 190/289/247 192/291/247 191/290/247
f 192/291/248 194/293/248 193/292/248
f 194/293/249 196/295/249 195/294/249
f 196/295/250 198/300/250 197/296/250
f 186/299/251 184/304/251 182/305/251
f 182/305/251 200/306/251 198/297/251
f 198/297/251 196/307/251 194/308/251
f 194/308/251 192/309/251 190/298/251
f 190/298/251 188/310/251 186/299/251
f 186/299/251 182/305/251 198/297/251
f 198/297/251 194/308/251 190/298/251
f 198/300/252 200/302/252 199/301/252
f 200/302/253 182/311/253 181/303/253
o Gun.006
v -0.006490 0.012765 0.005692
v -0.006490 0.043710 0.001486
v -0.006490 0.005109 0.001539
v -0.006490 0.041796 -0.020197
v 0.006490 0.012765 0.005692
v 0.006490 0.043710 0.001486
v 0.006490 0.005109 0.001539
v 0.006490 0.041796 -0.020197
v -0.006490 0.030676 -0.004465
v -0.006490 0.034752 -0.022631
v 0.006490 0.034752 -0.022631
v 0.006490 0.030676 -0.004465
v -0.006490 0.017591 -0.018692
v 0.006490 0.017591 -0.018692
v 0.006490 0.024646 -0.001462
v -0.006490 0.024646 -0.001462
vn -1.0000 -0.0000 -0.0000
vn -0.0000 0.3267 -0.9451
vn 1.0000 -0.0000 -0.0000
vn -0.0000 -0.4153 0.9097
vn -0.0000 -0.4768 0.8790
vn -0.0000 0.4457 0.8952
vn -0.0000 0.4812 0.8766
vn -0.0000 -0.2237 -0.9747
vn -0.0000 -0.8511 -0.5251
vn -0.0000 0.5159 0.8567
vt 0.500000 0.000000
vt 0.625000 0.250000
vt 0.500000 0.250000
vt 0.500000 0.500000
vt 0.625000 0.500000
vt 0.500000 0.750000
vt 0.625000 0.750000
vt 0.500000 1.000000
vt 0.375000 0.500000
vt 0.125000 0.750000
vt 0.125000 0.500000
vt 0.437500 1.000000
vt 0.437500 0.750000
vt 0.437500 0.500000
vt 0.437500 0.250000
vt 0.437500 0.000000
vt 0.375000 0.250000
vt 0.375000 0.000000
vt 0.375000 0.750000
vt 0.375000 1.000000
vt 0.625000 0.000000
vt 0.625000 1.000000
s 1
f 209/312/254 204/313/254 210/314/254
f 204/313/255 211/315/255 210/314/255
f 208/316/256 212/317/256 211/315/256
f 206/318/257 209/319/257 212/317/257
f 207/320/258 201/321/258 203/322/258
f 212/317/259 216/323/260 215/324/260
f 214/325/256 212/317/256 215/324/256
f 210/314/261 214/325/261 213/326/261
f 209/312/254 213/326/254 216/327/254
f 216/327/254 203/328/254 201/329/254
f 213/326/262 207/320/262 203/328/262
f 207/320/256 215/324/256 205/330/256
f 215/324/260 201/331/263 205/330/263
f 209/312/254 202/332/254 204/313/254
f 204/313/255 208/316/255 211/315/255
f 208/316/256 206/318/256 212/317/256
f 206/318/257 202/333/257 209/319/257
f 207/320/258 205/330/258 201/321/258
f 212/317/259 209/319/259 216/323/260
f 214/325/256 211/315/256 212/317/256
f 210/314/261 211/315/261 214/325/261
f 209/312/254 210/314/254 213/326/254
f 216/327/254 213/326/254 203/328/254
f 213/326/262 214/325/262 207/320/262
f 207/320/256 214/325/256 215/324/256
f 215/324/260 216/323/260 201/331/263
o Gun.007
v -0.000000 0.090980 0.307216
v -0.000000 0.090980 0.473460
v 0.014830 0.086144 0.307216
v 0.014830 0.086144 0.473460
v 0.023995 0.073484 0.307216
v 0.023995 0.073484 0.473460
v 0.023995 0.057835 0.307216
v 0.023995 0.057835 0.473460
v 0.014830 0.045174 0.307216
v 0.014830 0.045174 0.473460
v -0.000000 0.040338 0.307216
v -0.000000 0.040338 0.473460
v -0.014830 0.045174 0.307216
v -0.014830 0.045174 0.473460
v -0.023995 0.057835 0.307216
v -0.023995 0.057835 0.473460
v -0.023995 0.073484 0.307216
v -0.023995 0.073484 0.473460
v -0.014830 0.086144 0.307216
v -0.014830 0.086144 0.473460
v -0.000000 0.104205 0.307216
v 0.014820 0.104205 0.307216
v 0.014820 0.104205 0.473460
v -0.000000 0.104205 0.473460
v -0.014820 0.104205 0.473460
v -0.014820 0.104205 0.307216
vn -0.0000 -0.0000 1.0000
vn 0.8100 0.5864 -0.0000
vn 1.0000 -0.0000 -0.0000
vn 0.8100 -0.5864 -0.0000
vn 0.3100 -0.9507 -0.0000
vn -0.3100 -0.9507 -0.0000
vn -0.8100 -0.5864 -0.0000
vn -1.0000 -0.0000 -0.0000
vn -0.8100 0.5864 -0.0000
vn -0.0000 -0.0000 -1.0000
vn -0.0000 1.0000 -0.0000
vn -1.0000 0.0005 -0.0000
vn 1.0000 0.0005 -0.0000
vt 0.250000 0.490000
vt 0.108932 0.444164
vt 0.900000 1.000000
vt 0.800000 0.500000
vt 0.900000 0.500000
vt 0.800000 1.000000
vt 0.700000 0.500000
vt 0.700000 1.000000
vt 0.600000 0.500000
vt 0.600000 1.000000
vt 0.500000 0.500000
vt 0.500000 1.000000
vt 0.400000 0.500000
vt 0.400000 1.000000
vt 0.300000 0.500000
vt 0.300000 1.000000
vt 0.200000 0.500000
vt 0.021746 0.324164
vt 0.391068 0.055836
vt 0.478254 0.324164
vt 0.200000 1.000000
vt 0.100000 0.500000
vt 0.750000 0.490000
vt 0.891068 0.444164
vt 0.978254 0.175836
vt 0.521746 0.175836
vt 0.608932 0.444164
vt 1.000000 1.000000
vt 1.000000 0.500000
vt 0.100000 1.000000
vt -0.000000 0.500000
vt 0.391068 0.444164
vt 0.021746 0.175836
vt 0.108932 0.055836
vt 0.250000 0.010000
vt 0.478254 0.175836
vt 0.978254 0.324164
vt 0.891068 0.055836
vt 0.750000 0.010000
vt 0.608932 0.055836
vt 0.521746 0.324164
vt -0.000000 1.000000
s 0
f 218/334/264 241/335/264 236/335/264
f 220/336/265 221/337/265 219/338/265
f 222/339/266 223/340/266 221/337/266
f 224/341/267 225/342/267 223/340/267
f 226/343/268 227/344/268 225/342/268
f 228/345/269 229/346/269 227/344/269
f 230/347/270 231/348/270 229/346/270
f 232/349/271 233/350/271 231/348/271
f 234/351/264 226/352/264 222/353/264
f 234/354/272 235/355/272 233/350/272
f 217/356/273 238/357/273 219/357/273
f 223/358/273 231/359/273 235/360/273
f 240/361/274 238/338/274 237/362/274
f 241/363/274 237/364/274 242/355/274
f 236/363/275 242/355/275 235/355/275
f 219/338/276 239/336/276 220/336/276
f 218/334/264 239/365/264 240/334/264
f 217/356/273 242/360/273 237/356/273
f 218/334/264 240/334/264 241/335/264
f 220/336/265 222/339/265 221/337/265
f 222/339/266 224/341/266 223/340/266
f 224/341/267 226/343/267 225/342/267
f 226/343/268 228/345/268 227/344/268
f 228/345/269 230/347/269 229/346/269
f 230/347/270 232/349/270 231/348/270
f 232/349/271 234/354/271 233/350/271
f 222/353/264 220/365/264 218/334/264
f 218/334/264 236/335/264 234/351/264
f 234/351/264 232/366/264 230/367/264
f 230/367/264 228/368/264 226/352/264
f 226/352/264 224/369/264 222/353/264
f 222/353/264 218/334/264 234/351/264
f 234/351/264 230/367/264 226/352/264
f 234/354/272 236/363/272 235/355/272
f 217/356/273 237/356/273 238/357/273
f 235/360/273 217/356/273 219/357/273
f 219/357/273 221/370/273 223/358/273
f 223/358/273 225/371/273 227/372/273
f 227/372/273 229/373/273 231/359/273
f 231/359/273 233/374/273 235/360/273
f 235/360/273 219/357/273 223/358/273
f 223/358/273 227/372/273 231/359/273
f 240/361/274 239/336/274 238/338/274
f 241/363/274 240/375/274 237/364/274
f 236/363/275 241/363/275 242/355/275
f 219/338/276 238/338/276 239/336/276
f 218/334/264 220/365/264 239/365/264
f 217/356/273 235/360/273 242/360/273
