# Blender 4.1.0
# www.blender.org
mtllib Threshold.mtl
o Threshold
v 0.597766 2.282618 0.030952
v 0.591122 2.282678 -0.219519
v 1.961901 2.283547 0.028745
v 1.965229 2.280148 -0.219326
v 0.596845 0.148666 0.033791
v 0.600341 0.154621 -0.218718
v 1.961306 0.142864 -0.223714
v 1.963285 0.152634 0.034490
v 0.538875 -0.000000 -0.238066
v 0.538875 -0.000000 0.048226
v 0.537744 0.148933 -0.235437
v 2.015022 -0.000000 -0.238066
v 2.013381 0.149609 -0.236445
v 2.015022 -0.000000 0.048226
v 2.018909 0.144358 0.053992
v 0.539332 0.149476 0.048339
v 1.797640 2.127406 -0.219016
v 0.720094 2.132636 -0.216682
v 1.795134 0.148789 -0.219798
v 0.720471 0.149891 -0.222566
v 0.721171 2.131347 0.029309
v 1.798633 2.129982 0.031458
v 0.720805 0.149898 0.029849
v 1.791194 0.146285 0.031391
v 0.720442 -0.000000 -0.238066
v 1.798316 -0.000000 -0.238066
v 0.720513 0.149187 0.047086
v 1.799484 0.149168 0.048938
v 1.798316 -0.000000 0.048226
v 0.720442 -0.000000 0.048226
v 1.792112 0.146589 -0.241514
v 0.717037 0.155846 -0.231506
vn -1.0000 0.0036 0.0024
vn -0.9905 -0.0121 0.1371
vn -1.0000 0.0037 0.0039
vn -0.0022 -0.0006 -1.0000
vn 0.0094 -0.0102 -0.9999
vn 0.0087 -0.0101 -0.9999
vn -0.0000 -1.0000 -0.0000
vn 0.0081 0.0091 0.9999
vn 0.0057 -0.0042 1.0000
vn 0.0071 0.0086 0.9999
vn 0.0039 0.0040 1.0000
vn 0.0030 0.0029 1.0000
vn -0.0000 -0.0008 1.0000
vn -0.0090 -0.0177 0.9998
vn -0.0148 -0.0262 0.9995
vn -0.0239 -0.0393 0.9989
vn 1.0000 -0.0001 -0.0058
vn 0.9998 -0.0150 -0.0136
vn 0.9999 0.0110 -0.0000
vn 0.0145 -0.0100 -0.9998
vn 0.0088 -0.0018 -1.0000
vn -0.0000 0.0108 -0.9999
vn 0.0091 0.0289 -0.9995
vn 0.0113 0.0315 -0.9994
vn -0.0000 0.0177 -0.9998
vn -0.0018 -1.0000 0.0081
vn -0.0043 -1.0000 -0.0030
vn -0.0049 -1.0000 -0.0052
vn 0.0016 1.0000 -0.0014
vn -0.0004 0.9999 -0.0121
vn 0.0018 1.0000 0.0002
vn -1.0000 -0.0043 0.0017
vn -1.0000 -0.0002 0.0039
vn -1.0000 0.0031 0.0056
vn 0.0535 0.9760 0.2110
vn 0.1153 0.9892 0.0909
vn -0.0840 0.9954 0.0461
vn 0.0010 1.0000 0.0087
vn -0.0509 0.9907 -0.1260
vn -0.0814 0.9961 -0.0341
vn -0.9995 -0.0303 0.0036
vn -0.9994 -0.0180 0.0304
vn -0.0225 0.0005 -0.9997
vn -0.0019 0.0001 -1.0000
vn 0.0311 0.0003 0.9995
vn 0.0070 -0.0053 1.0000
vn -0.0164 0.0002 0.9999
vn -0.0180 -0.0000 0.9998
vn -0.0297 0.0028 -0.9996
vn -0.0319 0.0030 -0.9995
vn 0.9999 0.0006 -0.0152
vn 1.0000 -0.0008 0.0045
vn 1.0000 -0.0023 0.0012
vn 0.0298 0.9968 -0.0742
vn 0.0330 0.9939 -0.1052
vn -0.0660 0.9725 0.2234
vn -0.0338 0.9886 -0.1464
vn -0.0314 0.9926 -0.1177
vn -0.0079 0.9994 0.0345
vn 0.0082 0.9998 -0.0193
vn -0.0086 0.9991 0.0411
vn 0.0504 0.8400 0.5402
vn -0.0331 0.9774 -0.2086
vn 0.9999 -0.0003 0.0169
vn 0.9405 0.0348 -0.3380
vn 0.9910 0.0135 -0.1330
vn 0.9999 0.0005 0.0118
vn 1.0000 -0.0016 -0.0061
vn 1.0000 -0.0018 -0.0076
vn -0.9892 -0.0385 0.1416
vn -0.9984 -0.0445 0.0357
vn -0.9045 0.0050 0.4265
vn 1.0000 0.0002 -0.0041
vn 1.0000 0.0002 -0.0044
vn -0.9997 -0.0040 0.0235
vn -0.9999 0.0001 -0.0109
vn -0.9999 0.0004 -0.0138
vn 0.0069 0.0076 0.9999
vn -0.0000 -0.0048 1.0000
vn 0.9995 -0.0261 -0.0195
vn 0.0232 -0.0225 -0.9995
vn 0.0203 0.0425 -0.9989
vn -0.0013 -0.9999 0.0103
vn -0.0007 0.9999 -0.0137
vn -1.0000 -0.0076 -0.0000
vn -0.0235 0.0004 -0.9997
vn 0.0318 0.0003 0.9995
vn 0.9999 0.0007 0.0134
vn -0.9996 -0.0043 0.0265
vt 0.456684 0.715842
vt 0.496904 0.061242
vt 0.496904 0.715842
vt 0.668931 0.705424
vt 0.326688 0.705424
vt 0.285843 0.755705
vt 0.326688 0.011853
vt 0.269038 0.011853
vt 0.720934 0.755705
vt 0.668931 0.011853
vt 0.737739 0.011853
vt 0.269038 0.060761
vt 0.668931 0.060761
vt 0.737739 0.060761
vt 0.737739 0.060761
vt 0.269038 0.060761
vt 0.663437 0.724147
vt 0.344268 0.764367
vt 0.344268 0.724147
vt 0.720934 0.060761
vt 0.285843 0.060761
vt 0.453503 0.011580
vt 0.456684 0.061242
vt 0.285843 0.060761
vt 0.668931 0.060761
vt 0.326688 0.060761
vt 0.500085 0.011580
vt 0.326688 0.060761
vt 0.500085 0.061242
vt 0.453503 0.061242
vt 0.663437 0.764367
s 1
usemtl Wall1UnitDoorFrame
f 17/1/1 24/2/2 22/3/3
f 17/4/4 18/5/5 2/6/6
f 25/7/7 10/8/7 9/8/7
f 3/9/8 1/6/9 22/4/10
f 26/10/7 14/11/7 29/10/7
f 30/7/11 16/12/12 10/8/13
f 28/13/14 14/11/15 15/14/16
f 13/15/17 14/11/18 12/11/19
f 26/10/20 13/15/21 12/11/22
f 11/16/23 25/7/24 9/8/25
f 17/17/26 21/18/27 18/19/28
f 1/6/29 4/9/30 2/6/31
f 11/16/32 10/8/33 16/12/34
f 8/20/35 15/14/36 13/15/37
f 16/12/38 6/21/39 11/16/40
f 26/22/41 24/2/2 19/23/42
f 7/20/43 17/4/4 4/9/44
f 5/24/45 21/5/46 1/6/9
f 8/20/47 22/4/10 24/25/48
f 4/9/44 17/4/4 2/6/6
f 6/21/49 18/5/5 20/26/50
f 25/22/51 23/2/52 30/27/53
f 1/6/9 21/5/46 22/4/10
f 31/25/54 19/25/55 7/20/56
f 8/20/35 24/25/57 28/13/58
f 13/15/37 31/25/54 7/20/56
f 8/20/35 28/13/58 15/14/36
f 13/15/37 7/20/56 8/20/35
f 16/12/38 27/28/59 5/24/60
f 27/28/59 23/28/61 5/24/60
f 20/26/62 32/26/62 6/21/62
f 32/26/63 11/16/40 6/21/39
f 16/12/38 5/24/60 6/21/39
f 23/2/52 27/29/64 30/27/53
f 25/22/51 32/30/65 20/23/66
f 4/9/67 8/20/68 7/20/69
f 31/30/70 26/22/41 19/23/42
f 29/27/71 28/29/72 24/2/2
f 21/3/73 20/23/66 18/1/74
f 1/6/75 6/21/76 5/24/77
f 17/1/1 19/23/42 24/2/2
f 25/7/7 30/7/7 10/8/7
f 26/10/7 12/11/7 14/11/7
f 30/7/11 27/28/78 16/12/12
f 28/13/14 29/10/79 14/11/15
f 13/15/17 15/14/80 14/11/18
f 26/10/20 31/25/81 13/15/21
f 11/16/23 32/26/82 25/7/24
f 17/17/26 22/31/83 21/18/27
f 1/6/29 3/9/84 4/9/30
f 11/16/32 9/8/85 10/8/33
f 26/22/41 29/27/71 24/2/2
f 7/20/43 19/25/86 17/4/4
f 5/24/45 23/28/87 21/5/46
f 8/20/47 3/9/8 22/4/10
f 6/21/49 2/6/6 18/5/5
f 25/22/51 20/23/66 23/2/52
f 4/9/67 3/9/88 8/20/68
f 21/3/73 23/2/52 20/23/66
f 1/6/75 2/6/89 6/21/76
