# Blender 4.0.2
# www.blender.org
mtllib KeyFob.mtl
o KeyFob
v -0.011057 -0.004985 0.033175
v -0.011057 0.004985 0.033175
v 0.011057 -0.004985 0.033175
v 0.011057 0.004985 0.033175
v 0.001132 -0.004985 0.102382
v 0.001132 0.004985 0.102382
v -0.001132 0.004985 0.102382
v -0.001132 -0.004985 0.102382
v 0.011057 0.004985 0.091260
v 0.011057 -0.004985 0.091260
v -0.011057 0.004985 0.091260
v -0.011057 -0.004985 0.091260
v -0.018568 -0.011152 -0.027009
v -0.024734 -0.004985 -0.027009
v -0.018568 -0.004985 -0.033175
v -0.018568 0.011152 -0.027009
v -0.018568 0.004985 -0.033175
v -0.024734 0.004985 -0.027009
v 0.018568 -0.011152 -0.027009
v 0.018568 -0.004985 -0.033175
v 0.024734 -0.004985 -0.027009
v 0.018568 0.011152 -0.027009
v 0.024734 0.004985 -0.027009
v 0.018568 0.004985 -0.033175
v -0.018568 -0.011152 0.027009
v -0.017299 -0.007799 0.033175
v -0.024734 -0.004985 0.027009
v -0.017299 0.007799 0.033175
v -0.018568 0.011152 0.027009
v -0.024734 0.004985 0.027009
v 0.018568 0.011152 0.027009
v 0.017299 0.007799 0.033175
v 0.024734 0.004985 0.027009
v 0.018568 -0.011152 0.027009
v 0.024734 -0.004985 0.027009
v 0.017299 -0.007799 0.033175
v 0.006209 -0.004985 0.074798
v 0.011057 -0.004985 0.079271
v 0.011057 -0.004985 0.069542
v 0.006209 0.004985 0.074798
v 0.011057 0.004985 0.079271
v 0.011057 0.004985 0.069542
v 0.011057 -0.004985 0.058765
v 0.011057 -0.004985 0.049205
v 0.006606 -0.004985 0.052242
v 0.011057 0.004985 0.058765
v 0.011057 0.004985 0.049205
v 0.006606 0.004985 0.052242
vn -0.0000 0.9728 0.2315
vn -0.0000 1.0000 -0.0000
vn 0.8260 -0.0000 -0.5636
vn -0.0000 -0.0000 1.0000
vn 1.0000 -0.0000 -0.0000
vn 0.7350 -0.0000 0.6780
vn -0.0000 -1.0000 -0.0000
vn 0.7461 -0.0000 0.6658
vn -0.7461 -0.0000 0.6658
vn -0.0000 -0.0000 -1.0000
vn -0.6983 -0.6983 0.1576
vn -0.7071 -0.7071 -0.0000
vn -0.6891 -0.6891 0.2241
vn -0.5774 -0.5774 -0.5774
vn -0.5774 0.5774 -0.5774
vn 0.5774 -0.5774 -0.5774
vn 0.5774 0.5774 -0.5774
vn -0.6248 -0.6248 0.4682
vn -0.6248 0.6248 0.4682
vn -0.6891 0.6891 0.2241
vn -0.6983 0.6983 0.1576
vn 0.6891 0.6891 0.2241
vn 0.6248 0.6248 0.4682
vn 0.6983 0.6983 0.1576
vn 0.6891 -0.6891 0.2241
vn 0.6983 -0.6983 0.1576
vn 0.6248 -0.6248 0.4682
vn -0.7071 0.7071 -0.0000
vn 0.6384 -0.0000 0.7697
vn 0.7071 0.7071 -0.0000
vn 0.5636 -0.0000 0.8260
vn -0.0000 0.7071 -0.7071
vn 0.7071 -0.0000 -0.7071
vn -0.7071 -0.0000 -0.7071
vn -0.0000 -0.7071 -0.7071
vn 0.7071 -0.7071 -0.0000
vn -0.0000 0.8786 0.4776
vn -0.0000 -0.9728 0.2315
vn -1.0000 -0.0000 -0.0000
vn 0.6780 -0.0000 -0.7350
vn -0.0000 -0.8786 0.4776
vn -0.6384 -0.0000 0.7697
vt 0.843837 0.726766
vt 0.656163 0.523234
vt 0.843837 0.523234
vt 0.566955 0.250000
vt 0.433045 0.046282
vt 0.433045 0.250000
vt 0.555881 0.819119
vt 0.412575 0.787575
vt 0.587425 0.787575
vt 0.555881 0.930881
vt 0.555881 0.843622
vt 0.555881 0.841615
vt 0.555881 0.726766
vt 0.444119 0.523234
vt 0.555881 0.523233
vt 0.433045 0.000000
vt 0.566955 0.184457
vt 0.566955 0.000000
vt 0.444119 0.930881
vt 0.444119 0.841615
vt 0.444119 0.843622
vt 0.444119 0.819119
vt 0.555881 0.819119
vt 0.555881 0.468837
vt 0.444119 0.281163
vt 0.555881 0.281163
vt 0.125000 0.726766
vt 0.156163 0.523234
vt 0.156163 0.726767
vt 0.125000 0.523234
vt 0.156163 0.500000
vt 0.625000 0.281163
vt 0.555881 0.250000
vt 0.343837 0.523234
vt 0.343837 0.500000
vt 0.375000 0.523234
vt 0.625000 0.523234
vt 0.555881 0.500000
vt 0.162575 0.750000
vt 0.837425 0.750000
vt 0.875000 0.726766
vt 0.656163 0.726767
vt 0.662575 0.750000
vt 0.625000 0.726766
vt 0.343837 0.726766
vt 0.375000 0.726766
vt 0.337425 0.750000
vt 0.555881 0.226766
vt 0.625000 0.023234
vt 0.625000 0.226766
vt 0.444119 0.726767
vt 0.566955 0.312379
vt 0.625000 0.468837
vt 0.444119 0.468837
vt 0.444119 0.226766
vt 0.587425 0.962425
vt 0.412575 0.962425
vt 0.444119 0.023234
vt 0.555881 0.023234
vt 0.566955 1.000000
vt 0.433045 0.923641
vt 0.433045 1.000000
vt 0.555881 0.819119
vt 0.412575 0.000000
vt 0.587425 0.000000
vt 0.566955 0.046282
vt 0.433045 0.184457
vt 0.433045 0.312379
vt 0.566955 0.923641
s 1
f 29/1/1 22/2/2 16/3/2
f 48/4/3 43/5/3 45/6/3
f 4/7/4 36/8/4 32/9/4
f 11/10/2 40/11/2 48/12/2
f 33/13/5 21/14/5 23/15/5
f 37/16/6 42/17/6 40/18/6
f 12/19/7 45/20/7 37/21/7
f 5/22/8 9/23/8 6/7/8
f 7/10/9 12/19/9 8/19/9
f 47/23/5 3/22/5 4/7/5
f 24/24/10 15/25/10 17/26/10
f 43/22/5 42/23/5 39/22/5
f 38/22/5 9/23/5 10/22/5
f 27/27/11 13/28/12 25/29/13
f 13/28/14 14/30/14 15/31/14
f 16/32/15 17/26/15 18/33/15
f 19/34/16 20/35/16 21/36/16
f 22/37/17 23/15/17 24/38/17
f 25/29/13 26/39/18 27/27/11
f 28/40/19 29/1/20 30/41/21
f 31/42/22 32/43/23 33/44/24
f 34/45/25 35/46/26 36/47/27
f 18/48/28 29/49/20 16/50/28
f 35/51/29 32/9/29 36/8/29
f 33/13/24 22/2/30 31/42/22
f 45/6/31 47/52/31 48/4/31
f 24/24/32 16/32/32 22/53/32
f 20/54/33 23/15/33 21/14/33
f 14/55/34 17/26/34 15/25/34
f 15/31/35 19/34/35 13/28/35
f 21/14/36 34/45/25 19/34/36
f 1/19/4 28/56/4 26/57/4
f 28/40/37 31/42/1 29/1/1
f 9/23/2 11/10/2 6/7/2
f 7/10/4 5/22/4 6/7/4
f 34/45/38 13/28/7 19/34/7
f 18/48/39 27/58/39 30/59/39
f 40/60/40 38/61/40 37/62/40
f 36/47/41 25/29/38 34/45/38
f 48/12/2 47/23/2 4/7/2
f 4/7/2 2/10/2 48/12/2
f 2/10/2 11/10/2 48/12/2
f 11/10/2 7/10/2 6/7/2
f 10/22/7 12/19/7 37/21/7
f 9/23/2 41/23/2 40/11/2
f 40/11/2 42/23/2 46/63/2
f 40/11/2 46/63/2 48/12/2
f 3/22/4 1/19/4 26/57/4
f 32/9/4 28/56/4 2/10/4
f 32/9/4 2/10/4 4/7/4
f 3/22/4 26/57/4 36/8/4
f 38/22/7 10/22/7 37/21/7
f 30/59/42 26/64/42 28/65/42
f 5/22/7 8/19/7 12/19/7
f 12/19/7 1/19/7 45/20/7
f 1/19/7 3/22/7 45/20/7
f 3/22/7 44/22/7 45/20/7
f 45/20/7 43/22/7 37/21/7
f 43/22/7 39/22/7 37/21/7
f 11/10/39 1/19/39 12/19/39
f 29/1/1 31/42/1 22/2/2
f 48/4/3 46/66/3 43/5/3
f 4/7/4 3/22/4 36/8/4
f 33/13/5 35/51/5 21/14/5
f 37/16/6 39/67/6 42/17/6
f 5/22/8 10/22/8 9/23/8
f 7/10/9 11/10/9 12/19/9
f 47/23/5 44/22/5 3/22/5
f 24/24/10 20/54/10 15/25/10
f 43/22/5 46/63/5 42/23/5
f 38/22/5 41/23/5 9/23/5
f 27/27/11 14/30/12 13/28/12
f 18/48/28 30/59/21 29/49/20
f 35/51/29 33/13/29 32/9/29
f 33/13/24 23/15/30 22/2/30
f 45/6/31 44/68/31 47/52/31
f 24/24/32 17/26/32 16/32/32
f 20/54/33 24/24/33 23/15/33
f 14/55/34 18/48/34 17/26/34
f 15/31/35 20/35/35 19/34/35
f 21/14/36 35/51/26 34/45/25
f 1/19/4 2/10/4 28/56/4
f 28/40/37 32/43/37 31/42/1
f 9/23/2 40/11/2 11/10/2
f 7/10/4 8/19/4 5/22/4
f 34/45/38 25/29/38 13/28/7
f 18/48/39 14/55/39 27/58/39
f 40/60/40 41/69/40 38/61/40
f 36/47/41 26/39/41 25/29/38
f 10/22/7 5/22/7 12/19/7
f 30/59/42 27/58/42 26/64/42
f 11/10/39 2/10/39 1/19/39
