# Blender 4.0.2
# www.blender.org
mtllib HandMirror.mtl
o HandMirror
v 0.000000 0.103648 -0.020704
v 0.103245 0.103648 0.018785
v 0.103245 0.103648 -0.020704
v 0.020189 -0.015148 0.018785
v 0.019484 0.214662 0.018785
v 0.022819 -0.022296 -0.020704
v 0.021560 0.221783 -0.020704
v 0.000000 0.222086 -0.020704
v 0.000000 -0.022296 0.018785
v 0.000000 0.222086 0.018785
v 0.079392 0.163243 0.018785
v 0.000000 0.166620 -0.020704
v 0.085876 0.166620 -0.020704
v 0.085876 0.040676 -0.020704
v 0.079392 0.044053 0.018785
v 0.000000 0.040676 -0.020704
v 0.059823 0.009190 -0.020704
v 0.054714 0.014229 0.018785
v 0.000000 -0.022296 -0.020704
v 0.055063 0.192645 0.018785
v 0.000000 0.198106 -0.020704
v 0.059823 0.198106 -0.020704
v 0.059596 -0.010000 -0.020704
v 0.028487 -0.046496 -0.020704
v 0.028487 -0.046496 0.018785
v 0.059596 -0.010000 0.018785
v 0.000000 -0.046940 0.018785
v 0.000000 -0.046940 -0.020704
v 0.022570 -0.232484 0.018785
v 0.022570 -0.232484 -0.020704
v 0.000000 -0.239265 0.018785
v 0.000000 -0.239265 -0.020704
v 0.000000 -0.074191 -0.020704
v 0.000000 -0.074191 0.018785
v 0.018351 -0.073746 0.018785
v 0.018351 -0.073746 -0.020704
v 0.000000 -0.123818 -0.020704
v 0.000000 -0.123818 0.018785
v 0.017729 -0.123373 0.018785
v 0.017729 -0.123373 -0.020704
v 0.000000 -0.169004 -0.020704
v 0.000000 -0.169004 0.018785
v 0.028753 -0.168560 0.018785
v 0.028753 -0.168560 -0.020704
v 0.000000 -0.189562 -0.020704
v 0.000000 -0.189562 0.018785
v 0.033824 -0.189118 0.018785
v 0.033824 -0.189118 -0.020704
v 0.000000 -0.215190 -0.020704
v 0.000000 -0.215190 0.018785
v 0.033880 -0.214746 0.018785
v 0.033880 -0.214746 -0.020704
v 0.085876 0.166620 0.018785
v 0.095830 0.103648 0.018785
v 0.059823 0.009190 0.018785
v 0.022819 -0.022296 0.018785
v 0.021560 0.221783 0.018785
v 0.000000 -0.015148 0.018785
v 0.000000 0.214843 0.018785
v 0.059823 0.198106 0.018785
v 0.085876 0.040676 0.018785
v 0.095830 0.103648 0.010055
v 0.079392 0.163243 0.010055
v 0.055063 0.192645 0.010055
v 0.019484 0.214662 0.010055
v 0.000000 0.214843 0.010055
v 0.000000 -0.015148 0.010055
v 0.020189 -0.015148 0.010055
v 0.054714 0.014229 0.010055
v 0.079392 0.044053 0.010055
v 0.021560 0.221783 -0.000960
v 0.103245 0.103648 -0.000960
v 0.000000 0.222086 -0.000960
v 0.085876 0.166620 -0.000960
v 0.085876 0.040676 -0.000960
v 0.067230 0.010059 -0.000960
v 0.059823 0.198106 -0.000960
v 0.035767 -0.049787 -0.000960
v 0.000000 -0.046940 -0.000960
v 0.066846 -0.009402 -0.000960
v 0.030149 -0.236823 -0.000960
v 0.000000 -0.248602 -0.000960
v 0.026230 -0.076888 -0.000960
v 0.000000 -0.074191 -0.000960
v 0.025608 -0.123373 -0.000960
v 0.000000 -0.123818 -0.000960
v 0.035884 -0.165717 -0.000960
v 0.000000 -0.169004 -0.000960
v 0.041703 -0.189118 -0.000960
v 0.000000 -0.189562 -0.000960
v 0.041609 -0.217888 -0.000960
v 0.000000 -0.215190 -0.000960
v 0.000000 -0.022296 -0.000960
v -0.103245 0.103648 0.018785
v -0.103245 0.103648 -0.020704
v -0.020189 -0.015148 0.018785
v -0.019484 0.214662 0.018785
v -0.022819 -0.022296 -0.020704
v -0.021560 0.221783 -0.020704
v -0.079392 0.163243 0.018785
v -0.085876 0.166620 -0.020704
v -0.085876 0.040676 -0.020704
v -0.079392 0.044053 0.018785
v -0.059823 0.009190 -0.020704
v -0.054714 0.014229 0.018785
v -0.055063 0.192645 0.018785
v -0.059823 0.198106 -0.020704
v -0.059596 -0.010000 -0.020704
v -0.028487 -0.046496 -0.020704
v -0.028487 -0.046496 0.018785
v -0.059596 -0.010000 0.018785
v -0.022570 -0.232484 0.018785
v -0.022570 -0.232484 -0.020704
v -0.018351 -0.073746 0.018785
v -0.018351 -0.073746 -0.020704
v -0.017729 -0.123373 0.018785
v -0.017729 -0.123373 -0.020704
v -0.028753 -0.168560 0.018785
v -0.028753 -0.168560 -0.020704
v -0.033824 -0.189118 0.018785
v -0.033824 -0.189118 -0.020704
v -0.033880 -0.214746 0.018785
v -0.033880 -0.214746 -0.020704
v -0.085876 0.166620 0.018785
v -0.095830 0.103648 0.018785
v -0.059823 0.009190 0.018785
v -0.022819 -0.022296 0.018785
v -0.021560 0.221783 0.018785
v -0.059823 0.198106 0.018785
v -0.085876 0.040676 0.018785
v -0.095830 0.103648 0.010055
v -0.079392 0.163243 0.010055
v -0.055063 0.192645 0.010055
v -0.019484 0.214662 0.010055
v -0.020189 -0.015148 0.010055
v -0.054714 0.014229 0.010055
v -0.079392 0.044053 0.010055
v -0.021560 0.221783 -0.000960
v -0.103245 0.103648 -0.000960
v -0.085876 0.166620 -0.000960
v -0.085876 0.040676 -0.000960
v -0.067230 0.010059 -0.000960
v -0.059823 0.198106 -0.000960
v -0.035767 -0.049787 -0.000960
v -0.066846 -0.009402 -0.000960
v -0.030149 -0.236823 -0.000960
v -0.026230 -0.076888 -0.000960
v -0.025608 -0.123373 -0.000960
v -0.035884 -0.165717 -0.000960
v -0.041703 -0.189118 -0.000960
v -0.041609 -0.217888 -0.000960
vn 0.9640 0.2659 -0.0000
vn -0.0000 -0.0000 -1.0000
vn 0.5262 0.8503 -0.0000
vn -1.0000 -0.0000 -0.0000
vn 0.9640 -0.2659 -0.0000
vn 0.0140 0.9999 -0.0000
vn 0.7455 -0.6168 0.2525
vn -0.0000 -0.0000 1.0000
vn 0.9288 0.0020 -0.3706
vn 0.7704 0.6375 -0.0000
vn 0.7093 -0.6046 0.3623
vn 0.9364 -0.0185 0.3505
vn 0.2621 -0.8724 0.4125
vn 0.7895 -0.4778 0.3851
vn 0.8668 -0.3050 0.3944
vn 0.9287 -0.0124 0.3706
vn 0.9069 0.2201 0.3592
vn 0.9050 0.2250 0.3611
vn 0.9310 -0.0030 0.3649
vn -0.9640 -0.2659 -0.0000
vn -0.7704 -0.6375 -0.0000
vn -0.5262 -0.8504 -0.0000
vn -0.0093 -1.0000 -0.0000
vn -0.0000 1.0000 -0.0000
vn -0.6480 0.7616 -0.0000
vn -0.7704 0.6375 -0.0000
vn -0.9640 0.2659 -0.0000
vn 0.9060 0.2235 -0.3594
vn 0.9058 0.2210 -0.3615
vn 0.9281 -0.0116 -0.3722
vn 0.8691 -0.3233 -0.3744
vn 0.7713 -0.4918 -0.4041
vn 0.2621 -0.8724 -0.4125
vn 0.9388 -0.0111 -0.3444
vn 0.7093 -0.6046 -0.3623
vn 0.7455 -0.6168 -0.2525
vn -0.5262 0.8503 -0.0000
vn -0.0140 0.9999 -0.0000
vn -0.8541 -0.5201 -0.0000
vn -0.9288 0.0020 -0.3706
vn -0.7646 -0.5884 0.2629
vn -0.9364 -0.0185 0.3505
vn -0.3441 -0.8807 0.3256
vn -0.7895 -0.4778 0.3851
vn -0.8691 -0.3233 0.3744
vn -0.9281 -0.0116 0.3722
vn -0.9058 0.2210 0.3615
vn -0.9060 0.2235 0.3594
vn -0.9288 0.0020 0.3706
vn 0.7704 -0.6375 -0.0000
vn 0.5262 -0.8504 -0.0000
vn 0.0093 -1.0000 -0.0000
vn 0.6480 0.7616 -0.0000
vn -0.9060 0.2235 -0.3594
vn -0.9058 0.2210 -0.3615
vn -0.9281 -0.0116 -0.3722
vn -0.8691 -0.3233 -0.3744
vn -0.7895 -0.4778 -0.3851
vn -0.2621 -0.8724 -0.4125
vn -0.9364 -0.0185 -0.3505
vn -0.7093 -0.6046 -0.3623
vn -0.7455 -0.6168 -0.2525
vn 0.8541 -0.5201 -0.0000
vn 0.9310 -0.0030 -0.3649
vn 0.7646 -0.5884 0.2629
vn 0.9388 -0.0111 0.3444
vn 0.3441 -0.8807 0.3256
vn 0.7713 -0.4918 0.4041
vn 0.8691 -0.3233 0.3744
vn 0.9281 -0.0116 0.3722
vn 0.9058 0.2210 0.3615
vn 0.9060 0.2235 0.3594
vn 0.9288 0.0020 0.3706
vn -0.5262 -0.8503 -0.0000
vn 0.9050 0.2250 -0.3611
vn 0.9069 0.2201 -0.3592
vn 0.9287 -0.0124 -0.3706
vn 0.8668 -0.3050 -0.3944
vn 0.7895 -0.4778 -0.3851
vn 0.3441 -0.8807 -0.3256
vn 0.9364 -0.0185 -0.3505
vn 0.7646 -0.5884 -0.2629
vn -0.7455 -0.6168 0.2525
vn -0.9310 -0.0030 -0.3649
vn -0.7093 -0.6046 0.3623
vn -0.9388 -0.0111 0.3444
vn -0.2621 -0.8724 0.4125
vn -0.7713 -0.4918 0.4041
vn -0.8668 -0.3050 0.3944
vn -0.9287 -0.0124 0.3706
vn -0.9069 0.2201 0.3592
vn -0.9050 0.2250 0.3611
vn -0.9310 -0.0030 0.3649
vn 0.5262 -0.8503 -0.0000
vn -0.9050 0.2250 -0.3611
vn -0.9069 0.2201 -0.3592
vn -0.9287 -0.0124 -0.3706
vn -0.8668 -0.3050 -0.3944
vn -0.7713 -0.4918 -0.4041
vn -0.3441 -0.8807 -0.3256
vn -0.9388 -0.0111 -0.3444
vn -0.7646 -0.5884 -0.2629
vt 0.562500 0.625000
vt 0.500000 0.750000
vt 0.500000 0.625000
vt 0.593750 0.375000
vt 0.625000 0.500000
vt 0.593750 0.500000
vt 0.625000 0.625000
vt 0.593750 0.750000
vt 0.593750 0.625000
vt 0.500000 0.375000
vt 0.437500 0.500000
vt 0.437500 0.375000
vt 0.000000 0.000000
vt 0.437500 0.750000
vt 0.437500 0.625000
vt 0.750000 0.625000
vt 0.625000 0.750000
vt 0.562500 0.500000
vt 0.500000 0.500000
vt 0.406250 0.625000
vt 0.406250 0.750000
vt 0.406250 0.500000
vt 0.406250 0.375000
vt 0.375000 0.500000
vt 0.375000 0.750000
vt 0.375000 0.875000
vt 0.375000 0.625000
vt 0.562500 0.750000
vt 0.562500 0.375000
vt 0.375000 0.375000
vt 0.250000 0.625000
vt 0.250000 0.750000
vt 0.500000 0.758860
vt 0.559148 0.762702
vt 0.382095 0.784290
vt 0.411251 0.766163
vt 0.615546 0.788593
vt 0.625000 0.875000
vt 0.615635 0.845720
vt 0.586558 0.774779
vt 0.440852 0.762702
vt 0.382095 0.845173
vt 0.250000 0.500000
vt 0.750000 0.500000
vt 0.625000 0.375000
vt 0.750000 0.750000
s 0
f 74/1/1 2/2/1 72/3/1
f 21/4/2 7/5/2 22/6/2
f 71/7/3 60/8/3 77/9/3
f 1/10/2 14/11/2 16/12/2
f 93/13/4 28/13/4 79/13/4
f 72/3/5 61/14/5 75/15/5
f 73/16/6 57/17/6 71/7/6
f 1/10/2 13/18/2 3/19/2
f 76/20/7 61/14/7 55/21/7
f 16/12/2 17/22/2 19/23/2
f 19/23/2 17/22/2 6/24/2
f 56/25/8 27/26/8 25/25/8
f 89/27/9 52/24/9 48/24/9
f 77/9/10 53/28/10 74/1/10
f 12/29/2 22/6/2 13/18/2
f 92/13/4 32/13/4 82/13/4
f 78/27/11 26/21/11 25/25/11
f 6/24/2 23/22/2 24/24/2
f 56/25/8 26/21/8 55/21/8
f 55/21/12 80/20/12 76/20/12
f 6/24/2 28/30/2 19/30/2
f 82/31/13 29/25/13 31/32/13
f 50/26/8 29/25/8 51/25/8
f 51/25/14 81/27/14 91/27/14
f 49/30/2 30/24/2 32/30/2
f 28/30/2 36/24/2 33/30/2
f 78/27/15 35/25/15 83/27/15
f 27/26/8 35/25/8 25/25/8
f 28/13/4 84/13/4 79/13/4
f 33/30/2 40/24/2 37/30/2
f 83/27/16 39/25/16 85/27/16
f 34/26/8 39/25/8 35/25/8
f 33/13/4 86/13/4 84/13/4
f 40/24/2 41/30/2 37/30/2
f 85/27/17 43/25/17 87/27/17
f 39/25/8 42/26/8 43/25/8
f 37/13/4 88/13/4 86/13/4
f 44/24/2 45/30/2 41/30/2
f 87/27/18 47/25/18 89/27/18
f 43/25/8 46/26/8 47/25/8
f 88/13/4 45/13/4 90/13/4
f 45/30/2 52/24/2 49/30/2
f 89/27/19 51/25/19 91/27/19
f 46/26/8 51/25/8 47/25/8
f 90/13/4 49/13/4 92/13/4
f 54/33/8 53/28/8 11/34/8
f 4/35/8 55/21/8 18/36/8
f 4/35/8 9/26/8 56/25/8
f 5/37/8 10/38/8 59/39/8
f 11/34/8 60/8/8 20/40/8
f 54/33/8 61/14/8 2/2/8
f 15/41/8 55/21/8 61/14/8
f 5/37/8 60/8/8 57/17/8
f 63/34/8 67/42/8 69/36/8
f 63/34/20 54/33/20 11/34/20
f 64/40/21 11/34/21 20/40/21
f 65/37/22 20/40/22 5/37/22
f 66/39/23 5/37/23 59/39/23
f 90/13/4 50/13/4 46/13/4
f 68/35/24 58/42/24 4/35/24
f 69/36/25 4/35/25 18/36/25
f 70/41/26 18/36/26 15/41/26
f 62/33/27 15/41/27 54/33/27
f 42/13/4 90/13/4 46/13/4
f 87/27/28 48/24/28 44/24/28
f 38/13/4 88/13/4 42/13/4
f 85/27/29 44/24/29 40/24/29
f 84/13/4 38/13/4 34/13/4
f 83/27/30 40/24/30 36/24/30
f 79/13/4 34/13/4 27/13/4
f 78/27/31 36/24/31 24/24/31
f 52/24/32 81/27/32 30/24/32
f 30/24/33 82/31/33 32/43/33
f 17/22/34 80/20/34 23/22/34
f 23/22/35 78/27/35 24/24/35
f 92/13/4 31/13/4 50/13/4
f 22/6/10 74/1/10 13/18/10
f 14/11/36 76/20/36 17/22/36
f 8/44/6 71/7/6 7/5/6
f 3/19/5 75/15/5 14/11/5
f 93/13/4 27/13/4 9/13/4
f 7/5/3 77/9/3 22/6/3
f 13/18/1 72/3/1 3/19/1
f 94/2/27 140/1/27 139/3/27
f 21/4/2 99/5/2 8/45/2
f 129/8/37 138/7/37 143/9/37
f 102/11/2 1/10/2 16/12/2
f 130/14/20 139/3/20 141/15/20
f 128/17/38 73/16/38 138/7/38
f 1/10/2 101/18/2 12/29/2
f 142/20/39 130/14/39 141/15/39
f 104/22/2 16/12/2 19/23/2
f 19/23/2 98/24/2 104/22/2
f 127/25/8 27/26/8 9/26/8
f 123/24/40 150/27/40 121/24/40
f 124/28/26 143/9/26 140/1/26
f 12/29/2 107/6/2 21/4/2
f 144/27/41 111/21/41 145/20/41
f 98/24/2 108/22/2 104/22/2
f 111/21/8 127/25/8 126/21/8
f 145/20/42 126/21/42 142/20/42
f 28/30/2 98/24/2 19/30/2
f 82/31/43 112/25/43 146/27/43
f 112/25/8 50/26/8 122/25/8
f 146/27/44 122/25/44 151/27/44
f 49/30/2 113/24/2 123/24/2
f 28/30/2 115/24/2 109/24/2
f 144/27/45 114/25/45 110/25/45
f 114/25/8 27/26/8 110/25/8
f 33/30/2 117/24/2 115/24/2
f 147/27/46 116/25/46 114/25/46
f 116/25/8 34/26/8 114/25/8
f 41/30/2 117/24/2 37/30/2
f 148/27/47 118/25/47 116/25/47
f 116/25/8 42/26/8 38/26/8
f 45/30/2 119/24/2 41/30/2
f 149/27/48 120/25/48 118/25/48
f 118/25/8 46/26/8 42/26/8
f 45/30/2 123/24/2 121/24/2
f 150/27/49 122/25/49 120/25/49
f 122/25/8 46/26/8 120/25/8
f 124/28/8 125/33/8 100/34/8
f 126/21/8 96/35/8 105/36/8
f 96/35/8 9/26/8 58/42/8
f 10/38/8 97/37/8 59/39/8
f 129/8/8 100/34/8 106/40/8
f 125/33/8 130/14/8 103/41/8
f 103/41/8 126/21/8 105/36/8
f 97/37/8 129/8/8 106/40/8
f 137/41/8 66/39/8 133/40/8
f 125/33/5 132/34/5 100/34/5
f 100/34/50 133/40/50 106/40/50
f 106/40/51 134/37/51 97/37/51
f 97/37/52 66/39/52 59/39/52
f 58/42/24 135/35/24 96/35/24
f 96/35/53 136/36/53 105/36/53
f 105/36/10 137/41/10 103/41/10
f 103/41/1 131/33/1 125/33/1
f 121/24/54 149/27/54 119/24/54
f 119/24/55 148/27/55 117/24/55
f 117/24/56 147/27/56 115/24/56
f 115/24/57 144/27/57 109/24/57
f 123/24/58 146/27/58 151/27/58
f 82/31/59 113/24/59 32/43/59
f 104/22/60 145/20/60 142/20/60
f 144/27/61 108/22/61 109/24/61
f 140/1/26 107/6/26 101/18/26
f 142/20/62 102/11/62 104/22/62
f 138/7/38 8/44/38 99/5/38
f 141/15/20 95/19/20 102/11/20
f 143/9/37 99/5/37 107/6/37
f 139/3/27 101/18/27 95/19/27
f 74/1/1 53/28/1 2/2/1
f 21/4/2 8/45/2 7/5/2
f 71/7/3 57/17/3 60/8/3
f 1/10/2 3/19/2 14/11/2
f 93/13/4 19/13/4 28/13/4
f 72/3/5 2/2/5 61/14/5
f 73/16/6 10/46/6 57/17/6
f 1/10/2 12/29/2 13/18/2
f 76/20/63 75/15/63 61/14/63
f 16/12/2 14/11/2 17/22/2
f 56/25/8 9/26/8 27/26/8
f 89/27/64 91/27/64 52/24/64
f 77/9/10 60/8/10 53/28/10
f 12/29/2 21/4/2 22/6/2
f 92/13/4 49/13/4 32/13/4
f 78/27/65 80/20/65 26/21/65
f 6/24/2 17/22/2 23/22/2
f 56/25/8 25/25/8 26/21/8
f 55/21/66 26/21/66 80/20/66
f 6/24/2 24/24/2 28/30/2
f 82/31/67 81/27/67 29/25/67
f 50/26/8 31/26/8 29/25/8
f 51/25/68 29/25/68 81/27/68
f 49/30/2 52/24/2 30/24/2
f 28/30/2 24/24/2 36/24/2
f 78/27/69 25/25/69 35/25/69
f 27/26/8 34/26/8 35/25/8
f 28/13/4 33/13/4 84/13/4
f 33/30/2 36/24/2 40/24/2
f 83/27/70 35/25/70 39/25/70
f 34/26/8 38/26/8 39/25/8
f 33/13/4 37/13/4 86/13/4
f 40/24/2 44/24/2 41/30/2
f 85/27/71 39/25/71 43/25/71
f 39/25/8 38/26/8 42/26/8
f 37/13/4 41/13/4 88/13/4
f 44/24/2 48/24/2 45/30/2
f 87/27/72 43/25/72 47/25/72
f 43/25/8 42/26/8 46/26/8
f 88/13/4 41/13/4 45/13/4
f 45/30/2 48/24/2 52/24/2
f 89/27/73 47/25/73 51/25/73
f 46/26/8 50/26/8 51/25/8
f 90/13/4 45/13/4 49/13/4
f 54/33/8 2/2/8 53/28/8
f 4/35/8 56/25/8 55/21/8
f 4/35/8 58/42/8 9/26/8
f 5/37/8 57/17/8 10/38/8
f 11/34/8 53/28/8 60/8/8
f 54/33/8 15/41/8 61/14/8
f 15/41/8 18/36/8 55/21/8
f 5/37/8 20/40/8 60/8/8
f 70/41/8 62/33/8 63/34/8
f 63/34/8 64/40/8 65/37/8
f 65/37/8 66/39/8 67/42/8
f 67/42/8 68/35/8 69/36/8
f 69/36/8 70/41/8 63/34/8
f 63/34/8 65/37/8 67/42/8
f 63/34/20 62/33/20 54/33/20
f 64/40/21 63/34/21 11/34/21
f 65/37/74 64/40/74 20/40/74
f 66/39/23 65/37/23 5/37/23
f 90/13/4 92/13/4 50/13/4
f 68/35/24 67/42/24 58/42/24
f 69/36/25 68/35/25 4/35/25
f 70/41/26 69/36/26 18/36/26
f 62/33/27 70/41/27 15/41/27
f 42/13/4 88/13/4 90/13/4
f 87/27/75 89/27/75 48/24/75
f 38/13/4 86/13/4 88/13/4
f 85/27/76 87/27/76 44/24/76
f 84/13/4 86/13/4 38/13/4
f 83/27/77 85/27/77 40/24/77
f 79/13/4 84/13/4 34/13/4
f 78/27/78 83/27/78 36/24/78
f 52/24/79 91/27/79 81/27/79
f 30/24/80 81/27/80 82/31/80
f 17/22/81 76/20/81 80/20/81
f 23/22/82 80/20/82 78/27/82
f 92/13/4 82/13/4 31/13/4
f 22/6/10 77/9/10 74/1/10
f 14/11/63 75/15/63 76/20/63
f 8/44/6 73/16/6 71/7/6
f 3/19/5 72/3/5 75/15/5
f 93/13/4 79/13/4 27/13/4
f 7/5/3 71/7/3 77/9/3
f 13/18/1 74/1/1 72/3/1
f 94/2/27 124/28/27 140/1/27
f 21/4/2 107/6/2 99/5/2
f 129/8/37 128/17/37 138/7/37
f 102/11/2 95/19/2 1/10/2
f 130/14/20 94/2/20 139/3/20
f 128/17/38 10/46/38 73/16/38
f 1/10/2 95/19/2 101/18/2
f 142/20/83 126/21/83 130/14/83
f 104/22/2 102/11/2 16/12/2
f 127/25/8 110/25/8 27/26/8
f 123/24/84 151/27/84 150/27/84
f 124/28/26 129/8/26 143/9/26
f 12/29/2 101/18/2 107/6/2
f 144/27/85 110/25/85 111/21/85
f 98/24/2 109/24/2 108/22/2
f 111/21/8 110/25/8 127/25/8
f 145/20/86 111/21/86 126/21/86
f 28/30/2 109/24/2 98/24/2
f 82/31/87 31/32/87 112/25/87
f 112/25/8 31/26/8 50/26/8
f 146/27/88 112/25/88 122/25/88
f 49/30/2 32/30/2 113/24/2
f 28/30/2 33/30/2 115/24/2
f 144/27/89 147/27/89 114/25/89
f 114/25/8 34/26/8 27/26/8
f 33/30/2 37/30/2 117/24/2
f 147/27/90 148/27/90 116/25/90
f 116/25/8 38/26/8 34/26/8
f 41/30/2 119/24/2 117/24/2
f 148/27/91 149/27/91 118/25/91
f 116/25/8 118/25/8 42/26/8
f 45/30/2 121/24/2 119/24/2
f 149/27/92 150/27/92 120/25/92
f 118/25/8 120/25/8 46/26/8
f 45/30/2 49/30/2 123/24/2
f 150/27/93 151/27/93 122/25/93
f 122/25/8 50/26/8 46/26/8
f 124/28/8 94/2/8 125/33/8
f 126/21/8 127/25/8 96/35/8
f 96/35/8 127/25/8 9/26/8
f 10/38/8 128/17/8 97/37/8
f 129/8/8 124/28/8 100/34/8
f 125/33/8 94/2/8 130/14/8
f 103/41/8 130/14/8 126/21/8
f 97/37/8 128/17/8 129/8/8
f 132/34/8 131/33/8 137/41/8
f 137/41/8 136/36/8 135/35/8
f 135/35/8 67/42/8 66/39/8
f 66/39/8 134/37/8 133/40/8
f 133/40/8 132/34/8 137/41/8
f 137/41/8 135/35/8 66/39/8
f 125/33/5 131/33/5 132/34/5
f 100/34/50 132/34/50 133/40/50
f 106/40/94 133/40/94 134/37/94
f 97/37/52 134/37/52 66/39/52
f 58/42/24 67/42/24 135/35/24
f 96/35/53 135/35/53 136/36/53
f 105/36/10 136/36/10 137/41/10
f 103/41/1 137/41/1 131/33/1
f 121/24/95 150/27/95 149/27/95
f 119/24/96 149/27/96 148/27/96
f 117/24/97 148/27/97 147/27/97
f 115/24/98 147/27/98 144/27/98
f 123/24/99 113/24/99 146/27/99
f 82/31/100 146/27/100 113/24/100
f 104/22/101 108/22/101 145/20/101
f 144/27/102 145/20/102 108/22/102
f 140/1/26 143/9/26 107/6/26
f 142/20/39 141/15/39 102/11/39
f 138/7/38 73/16/38 8/44/38
f 141/15/20 139/3/20 95/19/20
f 143/9/37 138/7/37 99/5/37
f 139/3/27 140/1/27 101/18/27
