# Blender 4.0.2
# www.blender.org
mtllib Vase.mtl
o Vase
v -0.000016 0.210095 0.000000
v 0.058152 0.210000 -0.000000
v 0.058622 0.440000 0.000000
v 0.076461 0.440000 -0.000001
v 0.105335 0.420000 0.000000
v 0.101798 0.386654 -0.000001
v 0.077830 0.353784 -0.000001
v 0.075091 0.309957 -0.000001
v 0.119603 0.275717 -0.000001
v 0.179865 0.221619 -0.000000
v 0.167812 0.129856 -0.000000
v 0.139736 0.032616 -0.000000
v 0.095909 -0.000254 -0.000000
v 0.000000 0.000000 0.000000
v -0.000013 0.210095 0.000009
v 0.047046 0.210000 -0.034181
v 0.047426 0.440000 -0.034457
v 0.061857 0.440000 -0.044943
v 0.085218 0.420000 -0.061915
v 0.082356 0.386654 -0.059836
v 0.062966 0.353784 -0.045748
v 0.060750 0.309957 -0.044138
v 0.096760 0.275717 -0.070301
v 0.145513 0.221619 -0.105722
v 0.135763 0.129856 -0.098638
v 0.113048 0.032616 -0.082135
v 0.077592 -0.000254 -0.056374
v 0.000000 0.000000 0.000000
v -0.000005 0.210095 0.000015
v 0.017970 0.210000 -0.055305
v 0.018115 0.440000 -0.055753
v 0.023627 0.440000 -0.072719
v 0.032550 0.420000 -0.100180
v 0.031456 0.386654 -0.096816
v 0.024050 0.353784 -0.074021
v 0.023204 0.309957 -0.071416
v 0.036959 0.275717 -0.113749
v 0.055581 0.221619 -0.171062
v 0.051856 0.129856 -0.159599
v 0.043180 0.032616 -0.132897
v 0.029637 -0.000254 -0.091215
v 0.000000 0.000000 0.000000
v 0.000005 0.210095 0.000015
v -0.017970 0.210000 -0.055305
v -0.018115 0.440000 -0.055753
v -0.023629 0.440000 -0.072718
v -0.032550 0.420000 -0.100180
v -0.031458 0.386654 -0.096815
v -0.024052 0.353784 -0.074021
v -0.023205 0.309957 -0.071416
v -0.036960 0.275717 -0.113749
v -0.055582 0.221619 -0.171061
v -0.051857 0.129856 -0.159599
v -0.043181 0.032616 -0.132896
v -0.029638 -0.000254 -0.091215
v 0.000000 0.000000 0.000000
v 0.000013 0.210095 0.000009
v -0.047046 0.210000 -0.034181
v -0.047426 0.440000 -0.034457
v -0.061859 0.440000 -0.044942
v -0.085218 0.420000 -0.061915
v -0.082357 0.386654 -0.059835
v -0.062967 0.353784 -0.045747
v -0.060750 0.309957 -0.044137
v -0.096761 0.275717 -0.070300
v -0.145514 0.221619 -0.105721
v -0.135763 0.129856 -0.098637
v -0.113049 0.032616 -0.082134
v -0.077592 -0.000254 -0.056374
v 0.000000 0.000000 0.000000
v 0.000016 0.210095 -0.000000
v -0.058152 0.210000 0.000000
v -0.058622 0.440000 0.000000
v -0.076461 0.440000 0.000001
v -0.105335 0.420000 0.000000
v -0.101798 0.386654 0.000001
v -0.077830 0.353784 0.000001
v -0.075091 0.309957 0.000001
v -0.119603 0.275717 0.000001
v -0.179865 0.221619 0.000000
v -0.167812 0.129856 0.000000
v -0.139736 0.032616 0.000000
v -0.095909 -0.000254 0.000000
v 0.000000 0.000000 0.000000
v 0.000013 0.210095 -0.000009
v -0.047046 0.210000 0.034181
v -0.047426 0.440000 0.034457
v -0.061857 0.440000 0.044943
v -0.085218 0.420000 0.061915
v -0.082356 0.386654 0.059836
v -0.062966 0.353784 0.045748
v -0.060750 0.309957 0.044138
v -0.096760 0.275717 0.070301
v -0.145513 0.221619 0.105722
v -0.135763 0.129856 0.098638
v -0.113048 0.032616 0.082135
v -0.077592 -0.000254 0.056374
v 0.000000 0.000000 0.000000
v 0.000005 0.210095 -0.000015
v -0.017970 0.210000 0.055305
v -0.018115 0.440000 0.055753
v -0.023627 0.440000 0.072719
v -0.032550 0.420000 0.100180
v -0.031456 0.386654 0.096816
v -0.024050 0.353784 0.074021
v -0.023204 0.309957 0.071416
v -0.036959 0.275717 0.113749
v -0.055581 0.221619 0.171062
v -0.051857 0.129856 0.159599
v -0.043180 0.032616 0.132897
v -0.029637 -0.000254 0.091215
v 0.000000 0.000000 0.000000
v -0.000005 0.210095 -0.000015
v 0.017970 0.210000 0.055305
v 0.018115 0.440000 0.055753
v 0.023629 0.440000 0.072718
v 0.032550 0.420000 0.100180
v 0.031458 0.386654 0.096815
v 0.024052 0.353784 0.074021
v 0.023205 0.309957 0.071416
v 0.036960 0.275717 0.113749
v 0.055582 0.221619 0.171061
v 0.051857 0.129856 0.159599
v 0.043181 0.032616 0.132896
v 0.029638 -0.000254 0.091215
v 0.000000 0.000000 0.000000
v -0.000013 0.210095 -0.000009
v 0.047046 0.210000 0.034181
v 0.047426 0.440000 0.034457
v 0.061859 0.440000 0.044942
v 0.085218 0.420000 0.061915
v 0.082357 0.386654 0.059835
v 0.062967 0.353784 0.045747
v 0.060750 0.309957 0.044137
v 0.096761 0.275717 0.070300
v 0.145514 0.221619 0.105721
v 0.135763 0.129856 0.098637
v 0.113049 0.032616 0.082134
v 0.077592 -0.000254 0.056374
v 0.000000 0.000000 0.000000
vn 0.0016 1.0000 -0.0000
vn -0.7642 0.6450 -0.0000
vn -0.6182 0.6450 0.4492
vn 0.0013 1.0000 -0.0010
vn -0.2361 0.6450 0.7268
vn 0.0005 1.0000 -0.0016
vn 0.2361 0.6450 0.7268
vn -0.0005 1.0000 -0.0016
vn 0.6182 0.6450 0.4492
vn -0.0013 1.0000 -0.0010
vn 0.7642 0.6450 -0.0000
vn -0.0016 1.0000 -0.0000
vn 0.6182 0.6450 -0.4492
vn -0.0013 1.0000 0.0010
vn 0.2361 0.6450 -0.7268
vn -0.0005 1.0000 0.0016
vn -0.2361 0.6450 -0.7268
vn 0.0005 1.0000 0.0016
vn -0.6182 0.6450 -0.4492
vn 0.0013 1.0000 0.0010
vn -0.6204 0.7843 -0.0000
vn -0.5019 0.7843 0.3646
vn -0.1917 0.7843 0.5900
vn 0.1917 0.7843 0.5900
vn 0.5019 0.7843 0.3646
vn 0.6204 0.7843 -0.0000
vn 0.5019 0.7843 -0.3646
vn 0.1917 0.7843 -0.5900
vn -0.1917 0.7843 -0.5900
vn -0.5019 0.7843 -0.3646
vn 0.3505 0.9365 -0.0000
vn 0.2836 0.9365 -0.2060
vn 0.1083 0.9365 -0.3334
vn -0.1083 0.9365 -0.3334
vn -0.2836 0.9365 -0.2060
vn -0.3505 0.9365 -0.0000
vn -0.2836 0.9365 0.2060
vn -0.1083 0.9365 0.3334
vn 0.1083 0.9365 0.3334
vn 0.2836 0.9365 0.2060
vn 0.9239 0.3827 -0.0000
vn 0.7474 0.3827 -0.5430
vn 0.2855 0.3827 -0.8786
vn -0.2855 0.3827 -0.8786
vn -0.7474 0.3827 -0.5430
vn -0.9239 0.3827 -0.0000
vn -0.7474 0.3827 0.5430
vn -0.2855 0.3827 0.8786
vn 0.2855 0.3827 0.8786
vn 0.7474 0.3827 0.5430
vn 0.9391 -0.3435 -0.0000
vn 0.7598 -0.3435 -0.5520
vn 0.2902 -0.3435 -0.8932
vn -0.2902 -0.3435 -0.8932
vn -0.7598 -0.3435 -0.5520
vn -0.9391 -0.3435 -0.0000
vn -0.7598 -0.3435 0.5520
vn -0.2902 -0.3435 0.8932
vn 0.2902 -0.3435 0.8932
vn 0.7598 -0.3435 0.5520
vn 0.9336 -0.3584 -0.0000
vn 0.7553 -0.3584 -0.5488
vn 0.2885 -0.3584 -0.8879
vn -0.2885 -0.3584 -0.8879
vn -0.7553 -0.3584 -0.5487
vn -0.9336 -0.3584 -0.0000
vn -0.7553 -0.3584 0.5488
vn -0.2885 -0.3584 0.8879
vn 0.2885 -0.3584 0.8879
vn 0.7553 -0.3584 0.5487
vn 0.8915 0.4529 -0.0000
vn 0.7213 0.4529 -0.5240
vn 0.2755 0.4529 -0.8479
vn -0.2755 0.4529 -0.8479
vn -0.7213 0.4529 -0.5240
vn -0.8915 0.4529 -0.0000
vn -0.7213 0.4529 0.5240
vn -0.2755 0.4529 0.8479
vn 0.2755 0.4529 0.8479
vn 0.7213 0.4529 0.5240
vn 0.6437 0.7652 -0.0000
vn 0.5208 0.7652 -0.3784
vn 0.1989 0.7652 -0.6122
vn -0.1989 0.7652 -0.6122
vn -0.5208 0.7652 -0.3784
vn -0.6437 0.7652 -0.0000
vn -0.5208 0.7652 0.3784
vn -0.1989 0.7652 0.6122
vn 0.1989 0.7652 0.6122
vn 0.5208 0.7652 0.3784
vn 0.9473 0.3203 -0.0000
vn 0.7664 0.3203 -0.5568
vn 0.2927 0.3203 -0.9010
vn -0.2927 0.3203 -0.9010
vn -0.7664 0.3203 -0.5568
vn -0.9473 0.3203 -0.0000
vn -0.7664 0.3203 0.5568
vn -0.2927 0.3203 0.9010
vn 0.2927 0.3203 0.9010
vn 0.7664 0.3203 0.5568
vn 0.9795 -0.2015 -0.0000
vn 0.7924 -0.2015 -0.5757
vn 0.3027 -0.2015 -0.9316
vn -0.3027 -0.2015 -0.9316
vn -0.7924 -0.2015 -0.5757
vn -0.9795 -0.2015 -0.0000
vn -0.7924 -0.2015 0.5757
vn -0.3027 -0.2015 0.9316
vn 0.3027 -0.2015 0.9316
vn 0.7924 -0.2015 0.5757
vn 0.8413 -0.5405 -0.0000
vn 0.6806 -0.5405 -0.4945
vn 0.2600 -0.5405 -0.8001
vn -0.2600 -0.5405 -0.8001
vn -0.6806 -0.5405 -0.4945
vn -0.8413 -0.5405 -0.0000
vn -0.6806 -0.5405 0.4945
vn -0.2600 -0.5405 0.8001
vn 0.2600 -0.5405 0.8001
vn 0.6806 -0.5405 0.4945
vn 0.3697 -0.9291 -0.0000
vn 0.2991 -0.9291 -0.2173
vn 0.1142 -0.9291 -0.3516
vn -0.1142 -0.9291 -0.3516
vn -0.2991 -0.9291 -0.2173
vn -0.3697 -0.9291 -0.0000
vn -0.2991 -0.9291 0.2173
vn -0.1142 -0.9291 0.3516
vn 0.1142 -0.9291 0.3516
vn 0.2991 -0.9291 0.2173
vn -0.0027 -1.0000 -0.0000
vn -0.0021 -1.0000 0.0016
vn -0.0008 -1.0000 0.0025
vn 0.0008 -1.0000 0.0025
vn 0.0021 -1.0000 0.0016
vn 0.0027 -1.0000 -0.0000
vn 0.0021 -1.0000 -0.0016
vn 0.0008 -1.0000 -0.0025
vn -0.0008 -1.0000 -0.0025
vn -0.0021 -1.0000 -0.0016
vt 0.000000 0.210095
vt 0.000000 0.210000
vt 0.100000 0.210000
vt 0.100000 0.210095
vt 0.200000 0.210000
vt 0.200000 0.210095
vt 0.300000 0.210000
vt 0.300000 0.210095
vt 0.400000 0.210000
vt 0.400000 0.210095
vt 0.500000 0.210000
vt 0.500000 0.210095
vt 0.600000 0.210000
vt 0.600000 0.210095
vt 0.700000 0.210000
vt 0.700000 0.210095
vt 0.800000 0.210000
vt 0.800000 0.210095
vt 0.900000 0.210000
vt 0.900000 0.210095
vt 1.000000 0.210000
vt 1.000000 0.210095
vt 0.000000 0.440000
vt 0.100000 0.440000
vt 0.200000 0.440000
vt 0.300000 0.440000
vt 0.400000 0.440000
vt 0.500000 0.440000
vt 0.600000 0.440000
vt 0.700000 0.440000
vt 0.800000 0.440000
vt 0.900000 0.440000
vt 1.000000 0.440000
vt 0.000000 0.420000
vt 0.100000 0.420000
vt 0.200000 0.420000
vt 0.300000 0.420000
vt 0.400000 0.420000
vt 0.500000 0.420000
vt 0.600000 0.420000
vt 0.700000 0.420000
vt 0.800000 0.420000
vt 0.900000 0.420000
vt 1.000000 0.420000
vt 0.000000 0.386654
vt 0.100000 0.386654
vt 0.200000 0.386654
vt 0.300000 0.386654
vt 0.400000 0.386654
vt 0.500000 0.386654
vt 0.600000 0.386654
vt 0.700000 0.386654
vt 0.800000 0.386654
vt 0.900000 0.386654
vt 1.000000 0.386654
vt 0.000000 0.353784
vt 0.100000 0.353784
vt 0.200000 0.353784
vt 0.300000 0.353784
vt 0.400000 0.353784
vt 0.500000 0.353784
vt 0.600000 0.353784
vt 0.700000 0.353784
vt 0.800000 0.353784
vt 0.900000 0.353784
vt 1.000000 0.353784
vt 0.000000 0.309957
vt 0.100000 0.309957
vt 0.200000 0.309957
vt 0.300000 0.309957
vt 0.400000 0.309957
vt 0.500000 0.309957
vt 0.600000 0.309957
vt 0.700000 0.309957
vt 0.800000 0.309957
vt 0.900000 0.309957
vt 1.000000 0.309957
vt 0.000000 0.275717
vt 0.100000 0.275717
vt 0.200000 0.275717
vt 0.300000 0.275717
vt 0.400000 0.275717
vt 0.500000 0.275717
vt 0.600000 0.275717
vt 0.700000 0.275717
vt 0.800000 0.275717
vt 0.900000 0.275717
vt 1.000000 0.275717
vt 0.000000 0.221619
vt 0.100000 0.221619
vt 0.200000 0.221619
vt 0.300000 0.221619
vt 0.400000 0.221619
vt 0.500000 0.221619
vt 0.600000 0.221619
vt 0.700000 0.221619
vt 0.800000 0.221619
vt 0.900000 0.221619
vt 1.000000 0.221619
vt 0.000000 0.129856
vt 0.100000 0.129856
vt 0.200000 0.129856
vt 0.300000 0.129856
vt 0.400000 0.129856
vt 0.500000 0.129856
vt 0.600000 0.129856
vt 0.700000 0.129856
vt 0.800000 0.129856
vt 0.900000 0.129856
vt 1.000000 0.129856
vt 0.000000 0.032616
vt 0.100000 0.032616
vt 0.200000 0.032616
vt 0.300000 0.032616
vt 0.400000 0.032616
vt 0.500000 0.032616
vt 0.600000 0.032616
vt 0.700000 0.032616
vt 0.800000 0.032616
vt 0.900000 0.032616
vt 1.000000 0.032616
vt 0.000000 -0.000254
vt 0.100000 -0.000254
vt 0.200000 -0.000254
vt 0.300000 -0.000254
vt 0.400000 -0.000254
vt 0.500000 -0.000254
vt 0.600000 -0.000254
vt 0.700000 -0.000254
vt 0.800000 -0.000254
vt 0.900000 -0.000254
vt 1.000000 -0.000254
vt 0.000000 0.000000
vt 0.100000 0.000000
vt 0.200000 0.000000
vt 0.300000 0.000000
vt 0.400000 0.000000
vt 0.500000 0.000000
vt 0.600000 0.000000
vt 0.700000 0.000000
vt 0.800000 0.000000
vt 0.900000 0.000000
vt 1.000000 0.000000
s 1
f 1/1/1 2/2/2 16/3/3 15/4/4
f 15/4/4 16/3/3 30/5/5 29/6/6
f 29/6/6 30/5/5 44/7/7 43/8/8
f 43/8/8 44/7/7 58/9/9 57/10/10
f 57/10/10 58/9/9 72/11/11 71/12/12
f 71/12/12 72/11/11 86/13/13 85/14/14
f 85/14/14 86/13/13 100/15/15 99/16/16
f 99/16/16 100/15/15 114/17/17 113/18/18
f 113/18/18 114/17/17 128/19/19 127/20/20
f 127/20/20 128/19/19 2/21/2 1/22/1
f 2/2/2 3/23/21 17/24/22 16/3/3
f 16/3/3 17/24/22 31/25/23 30/5/5
f 30/5/5 31/25/23 45/26/24 44/7/7
f 44/7/7 45/26/24 59/27/25 58/9/9
f 58/9/9 59/27/25 73/28/26 72/11/11
f 72/11/11 73/28/26 87/29/27 86/13/13
f 86/13/13 87/29/27 101/30/28 100/15/15
f 100/15/15 101/30/28 115/31/29 114/17/17
f 114/17/17 115/31/29 129/32/30 128/19/19
f 128/19/19 129/32/30 3/33/21 2/21/2
f 3/23/21 4/23/31 18/24/32 17/24/22
f 17/24/22 18/24/32 32/25/33 31/25/23
f 31/25/23 32/25/33 46/26/34 45/26/24
f 45/26/24 46/26/34 60/27/35 59/27/25
f 59/27/25 60/27/35 74/28/36 73/28/26
f 73/28/26 74/28/36 88/29/37 87/29/27
f 87/29/27 88/29/37 102/30/38 101/30/28
f 101/30/28 102/30/38 116/31/39 115/31/29
f 115/31/29 116/31/39 130/32/40 129/32/30
f 129/32/30 130/32/40 4/33/31 3/33/21
f 4/23/31 5/34/41 19/35/42 18/24/32
f 18/24/32 19/35/42 33/36/43 32/25/33
f 32/25/33 33/36/43 47/37/44 46/26/34
f 46/26/34 47/37/44 61/38/45 60/27/35
f 60/27/35 61/38/45 75/39/46 74/28/36
f 74/28/36 75/39/46 89/40/47 88/29/37
f 88/29/37 89/40/47 103/41/48 102/30/38
f 102/30/38 103/41/48 117/42/49 116/31/39
f 116/31/39 117/42/49 131/43/50 130/32/40
f 130/32/40 131/43/50 5/44/41 4/33/31
f 5/34/41 6/45/51 20/46/52 19/35/42
f 19/35/42 20/46/52 34/47/53 33/36/43
f 33/36/43 34/47/53 48/48/54 47/37/44
f 47/37/44 48/48/54 62/49/55 61/38/45
f 61/38/45 62/49/55 76/50/56 75/39/46
f 75/39/46 76/50/56 90/51/57 89/40/47
f 89/40/47 90/51/57 104/52/58 103/41/48
f 103/41/48 104/52/58 118/53/59 117/42/49
f 117/42/49 118/53/59 132/54/60 131/43/50
f 131/43/50 132/54/60 6/55/51 5/44/41
f 6/45/51 7/56/61 21/57/62 20/46/52
f 20/46/52 21/57/62 35/58/63 34/47/53
f 34/47/53 35/58/63 49/59/64 48/48/54
f 48/48/54 49/59/64 63/60/65 62/49/55
f 62/49/55 63/60/65 77/61/66 76/50/56
f 76/50/56 77/61/66 91/62/67 90/51/57
f 90/51/57 91/62/67 105/63/68 104/52/58
f 104/52/58 105/63/68 119/64/69 118/53/59
f 118/53/59 119/64/69 133/65/70 132/54/60
f 132/54/60 133/65/70 7/66/61 6/55/51
f 7/56/61 8/67/71 22/68/72 21/57/62
f 21/57/62 22/68/72 36/69/73 35/58/63
f 35/58/63 36/69/73 50/70/74 49/59/64
f 49/59/64 50/70/74 64/71/75 63/60/65
f 63/60/65 64/71/75 78/72/76 77/61/66
f 77/61/66 78/72/76 92/73/77 91/62/67
f 91/62/67 92/73/77 106/74/78 105/63/68
f 105/63/68 106/74/78 120/75/79 119/64/69
f 119/64/69 120/75/79 134/76/80 133/65/70
f 133/65/70 134/76/80 8/77/71 7/66/61
f 8/67/71 9/78/81 23/79/82 22/68/72
f 22/68/72 23/79/82 37/80/83 36/69/73
f 36/69/73 37/80/83 51/81/84 50/70/74
f 50/70/74 51/81/84 65/82/85 64/71/75
f 64/71/75 65/82/85 79/83/86 78/72/76
f 78/72/76 79/83/86 93/84/87 92/73/77
f 92/73/77 93/84/87 107/85/88 106/74/78
f 106/74/78 107/85/88 121/86/89 120/75/79
f 120/75/79 121/86/89 135/87/90 134/76/80
f 134/76/80 135/87/90 9/88/81 8/77/71
f 9/78/81 10/89/91 24/90/92 23/79/82
f 23/79/82 24/90/92 38/91/93 37/80/83
f 37/80/83 38/91/93 52/92/94 51/81/84
f 51/81/84 52/92/94 66/93/95 65/82/85
f 65/82/85 66/93/95 80/94/96 79/83/86
f 79/83/86 80/94/96 94/95/97 93/84/87
f 93/84/87 94/95/97 108/96/98 107/85/88
f 107/85/88 108/96/98 122/97/99 121/86/89
f 121/86/89 122/97/99 136/98/100 135/87/90
f 135/87/90 136/98/100 10/99/91 9/88/81
f 10/89/91 11/100/101 25/101/102 24/90/92
f 24/90/92 25/101/102 39/102/103 38/91/93
f 38/91/93 39/102/103 53/103/104 52/92/94
f 52/92/94 53/103/104 67/104/105 66/93/95
f 66/93/95 67/104/105 81/105/106 80/94/96
f 80/94/96 81/105/106 95/106/107 94/95/97
f 94/95/97 95/106/107 109/107/108 108/96/98
f 108/96/98 109/107/108 123/108/109 122/97/99
f 122/97/99 123/108/109 137/109/110 136/98/100
f 136/98/100 137/109/110 11/110/101 10/99/91
f 11/100/101 12/111/111 26/112/112 25/101/102
f 25/101/102 26/112/112 40/113/113 39/102/103
f 39/102/103 40/113/113 54/114/114 53/103/104
f 53/103/104 54/114/114 68/115/115 67/104/105
f 67/104/105 68/115/115 82/116/116 81/105/106
f 81/105/106 82/116/116 96/117/117 95/106/107
f 95/106/107 96/117/117 110/118/118 109/107/108
f 109/107/108 110/118/118 124/119/119 123/108/109
f 123/108/109 124/119/119 138/120/120 137/109/110
f 137/109/110 138/120/120 12/121/111 11/110/101
f 12/111/111 13/122/121 27/123/122 26/112/112
f 26/112/112 27/123/122 41/124/123 40/113/113
f 40/113/113 41/124/123 55/125/124 54/114/114
f 54/114/114 55/125/124 69/126/125 68/115/115
f 68/115/115 69/126/125 83/127/126 82/116/116
f 82/116/116 83/127/126 97/128/127 96/117/117
f 96/117/117 97/128/127 111/129/128 110/118/118
f 110/118/118 111/129/128 125/130/129 124/119/119
f 124/119/119 125/130/129 139/131/130 138/120/120
f 138/120/120 139/131/130 13/132/121 12/121/111
f 13/122/121 14/133/131 28/134/132 27/123/122
f 27/123/122 28/134/132 42/135/133 41/124/123
f 41/124/123 42/135/133 56/136/134 55/125/124
f 55/125/124 56/136/134 70/137/135 69/126/125
f 69/126/125 70/137/135 84/138/136 83/127/126
f 83/127/126 84/138/136 98/139/137 97/128/127
f 97/128/127 98/139/137 112/140/138 111/129/128
f 111/129/128 112/140/138 126/141/139 125/130/129
f 125/130/129 126/141/139 140/142/140 139/131/130
f 139/131/130 140/142/140 14/143/131 13/132/121
o Vase
v -0.000016 0.210095 0.000000
v 0.058152 0.210000 -0.000000
v 0.058622 0.440000 0.000000
v 0.076461 0.440000 -0.000001
v 0.105335 0.420000 0.000000
v 0.101798 0.386654 -0.000001
v 0.077830 0.353784 -0.000001
v 0.075091 0.309957 -0.000001
v 0.119603 0.275717 -0.000001
v 0.179865 0.221619 -0.000000
v 0.167812 0.129856 -0.000000
v 0.139736 0.032616 -0.000000
v 0.095909 -0.000254 -0.000000
v 0.000000 0.000000 0.000000
v -0.000013 0.210095 0.000009
v 0.047046 0.210000 -0.034181
v 0.047426 0.440000 -0.034457
v 0.061857 0.440000 -0.044943
v 0.085218 0.420000 -0.061915
v 0.082356 0.386654 -0.059836
v 0.062966 0.353784 -0.045748
v 0.060750 0.309957 -0.044138
v 0.096760 0.275717 -0.070301
v 0.145513 0.221619 -0.105722
v 0.135763 0.129856 -0.098638
v 0.113048 0.032616 -0.082135
v 0.077592 -0.000254 -0.056374
v 0.000000 0.000000 0.000000
v -0.000005 0.210095 0.000015
v 0.017970 0.210000 -0.055305
v 0.018115 0.440000 -0.055753
v 0.023627 0.440000 -0.072719
v 0.032550 0.420000 -0.100180
v 0.031456 0.386654 -0.096816
v 0.024050 0.353784 -0.074021
v 0.023204 0.309957 -0.071416
v 0.036959 0.275717 -0.113749
v 0.055581 0.221619 -0.171062
v 0.051856 0.129856 -0.159599
v 0.043180 0.032616 -0.132897
v 0.029637 -0.000254 -0.091215
v 0.000000 0.000000 0.000000
v 0.000005 0.210095 0.000015
v -0.017970 0.210000 -0.055305
v -0.018115 0.440000 -0.055753
v -0.023629 0.440000 -0.072718
v -0.032550 0.420000 -0.100180
v -0.031458 0.386654 -0.096815
v -0.024052 0.353784 -0.074021
v -0.023205 0.309957 -0.071416
v -0.036960 0.275717 -0.113749
v -0.055582 0.221619 -0.171061
v -0.051857 0.129856 -0.159599
v -0.043181 0.032616 -0.132896
v -0.029638 -0.000254 -0.091215
v 0.000000 0.000000 0.000000
v 0.000013 0.210095 0.000009
v -0.047046 0.210000 -0.034181
v -0.047426 0.440000 -0.034457
v -0.061859 0.440000 -0.044942
v -0.085218 0.420000 -0.061915
v -0.082357 0.386654 -0.059835
v -0.062967 0.353784 -0.045747
v -0.060750 0.309957 -0.044137
v -0.096761 0.275717 -0.070300
v -0.145514 0.221619 -0.105721
v -0.135763 0.129856 -0.098637
v -0.113049 0.032616 -0.082134
v -0.077592 -0.000254 -0.056374
v 0.000000 0.000000 0.000000
v 0.000016 0.210095 -0.000000
v -0.058152 0.210000 0.000000
v -0.058622 0.440000 0.000000
v -0.076461 0.440000 0.000001
v -0.105335 0.420000 0.000000
v -0.101798 0.386654 0.000001
v -0.077830 0.353784 0.000001
v -0.075091 0.309957 0.000001
v -0.119603 0.275717 0.000001
v -0.179865 0.221619 0.000000
v -0.167812 0.129856 0.000000
v -0.139736 0.032616 0.000000
v -0.095909 -0.000254 0.000000
v 0.000000 0.000000 0.000000
v 0.000013 0.210095 -0.000009
v -0.047046 0.210000 0.034181
v -0.047426 0.440000 0.034457
v -0.061857 0.440000 0.044943
v -0.085218 0.420000 0.061915
v -0.082356 0.386654 0.059836
v -0.062966 0.353784 0.045748
v -0.060750 0.309957 0.044138
v -0.096760 0.275717 0.070301
v -0.145513 0.221619 0.105722
v -0.135763 0.129856 0.098638
v -0.113048 0.032616 0.082135
v -0.077592 -0.000254 0.056374
v 0.000000 0.000000 0.000000
v 0.000005 0.210095 -0.000015
v -0.017970 0.210000 0.055305
v -0.018115 0.440000 0.055753
v -0.023627 0.440000 0.072719
v -0.032550 0.420000 0.100180
v -0.031456 0.386654 0.096816
v -0.024050 0.353784 0.074021
v -0.023204 0.309957 0.071416
v -0.036959 0.275717 0.113749
v -0.055581 0.221619 0.171062
v -0.051857 0.129856 0.159599
v -0.043180 0.032616 0.132897
v -0.029637 -0.000254 0.091215
v 0.000000 0.000000 0.000000
v -0.000005 0.210095 -0.000015
v 0.017970 0.210000 0.055305
v 0.018115 0.440000 0.055753
v 0.023629 0.440000 0.072718
v 0.032550 0.420000 0.100180
v 0.031458 0.386654 0.096815
v 0.024052 0.353784 0.074021
v 0.023205 0.309957 0.071416
v 0.036960 0.275717 0.113749
v 0.055582 0.221619 0.171061
v 0.051857 0.129856 0.159599
v 0.043181 0.032616 0.132896
v 0.029638 -0.000254 0.091215
v 0.000000 0.000000 0.000000
v -0.000013 0.210095 -0.000009
v 0.047046 0.210000 0.034181
v 0.047426 0.440000 0.034457
v 0.061859 0.440000 0.044942
v 0.085218 0.420000 0.061915
v 0.082357 0.386654 0.059835
v 0.062967 0.353784 0.045747
v 0.060750 0.309957 0.044137
v 0.096761 0.275717 0.070300
v 0.145514 0.221619 0.105721
v 0.135763 0.129856 0.098637
v 0.113049 0.032616 0.082134
v 0.077592 -0.000254 0.056374
v 0.000000 0.000000 0.000000
vn -0.0004 -1.0000 -0.0000
vn -0.6182 0.6450 0.4492
vn 0.0003 -1.0000 0.0010
vn -0.2361 0.6450 0.7268
vn -0.0000 -1.0000 0.0016
vn 0.2361 0.6450 0.7268
vn -0.0003 -1.0000 0.0016
vn 0.6183 0.6450 0.4492
vn 0.0008 -1.0000 0.0010
vn 0.7642 0.6450 -0.0000
vn 0.0017 -1.0000 -0.0000
vn 0.6183 0.6450 -0.4492
vn 0.0006 -1.0000 -0.0010
vn 0.2361 0.6450 -0.7268
vn -0.0000 -1.0000 -0.0016
vn -0.2361 0.6450 -0.7268
vn 0.0003 -1.0000 -0.0016
vn -0.6182 0.6450 -0.4492
vn -0.0008 -1.0000 -0.0010
vn -0.7642 0.6450 -0.0000
vn -0.5019 0.7843 0.3646
vn -0.1917 0.7843 0.5900
vn 0.1917 0.7843 0.5900
vn 0.5019 0.7843 0.3646
vn 0.6204 0.7843 -0.0000
vn 0.5019 0.7843 -0.3646
vn 0.1917 0.7843 -0.5900
vn -0.5019 0.7843 -0.3646
vn -0.6204 0.7843 -0.0000
vn 0.3505 0.9365 -0.0000
vn 0.2836 0.9365 -0.2060
vn 0.1083 0.9365 -0.3334
vn -0.1083 0.9365 -0.3334
vn -0.2836 0.9365 -0.2060
vn -0.3505 0.9365 -0.0000
vn -0.2836 0.9365 0.2060
vn -0.1083 0.9365 0.3334
vn -0.1917 0.7843 -0.5900
vn 0.1083 0.9365 0.3334
vn 0.2836 0.9365 0.2060
vn 0.7474 0.3827 -0.5430
vn 0.2855 0.3827 -0.8786
vn -0.2855 0.3827 -0.8786
vn -0.7474 0.3827 -0.5430
vn -0.9239 0.3827 -0.0000
vn -0.7474 0.3827 0.5430
vn -0.2855 0.3827 0.8786
vn 0.2855 0.3827 0.8786
vn 0.7474 0.3827 0.5430
vn 0.9239 0.3827 -0.0000
vn 0.9391 -0.3435 -0.0000
vn 0.7598 -0.3435 -0.5520
vn 0.2902 -0.3435 -0.8932
vn -0.2902 -0.3435 -0.8932
vn -0.7598 -0.3435 -0.5520
vn -0.9391 -0.3435 -0.0000
vn -0.7598 -0.3435 0.5520
vn -0.2902 -0.3435 0.8932
vn 0.2902 -0.3435 0.8932
vn 0.7598 -0.3435 0.5520
vn 0.9336 -0.3584 -0.0000
vn 0.7553 -0.3584 -0.5488
vn 0.2885 -0.3584 -0.8879
vn -0.2885 -0.3584 -0.8879
vn -0.7553 -0.3584 -0.5487
vn -0.9336 -0.3584 -0.0000
vn -0.7553 -0.3584 0.5488
vn -0.2885 -0.3584 0.8879
vn 0.2885 -0.3584 0.8879
vn 0.7553 -0.3584 0.5487
vn 0.7213 0.4529 -0.5240
vn 0.2755 0.4529 -0.8479
vn -0.2755 0.4529 -0.8479
vn -0.7213 0.4529 -0.5240
vn -0.8915 0.4529 -0.0000
vn -0.7213 0.4529 0.5240
vn -0.2755 0.4529 0.8479
vn 0.2755 0.4529 0.8479
vn 0.7213 0.4529 0.5240
vn 0.8915 0.4529 -0.0000
vn 0.5208 0.7652 -0.3784
vn 0.1989 0.7652 -0.6122
vn -0.1989 0.7652 -0.6122
vn -0.5208 0.7652 -0.3784
vn -0.6437 0.7652 -0.0000
vn -0.5208 0.7652 0.3784
vn -0.1989 0.7652 0.6122
vn 0.1989 0.7652 0.6122
vn 0.5208 0.7652 0.3784
vn 0.6437 0.7652 -0.0000
vn 0.7664 0.3203 -0.5568
vn 0.2927 0.3203 -0.9010
vn -0.2927 0.3203 -0.9010
vn -0.7664 0.3203 -0.5568
vn -0.9473 0.3203 -0.0000
vn -0.7664 0.3203 0.5568
vn -0.2927 0.3203 0.9010
vn 0.2927 0.3203 0.9010
vn 0.7664 0.3203 0.5568
vn 0.9473 0.3203 -0.0000
vn 0.7924 -0.2015 -0.5757
vn 0.3027 -0.2015 -0.9316
vn -0.3027 -0.2015 -0.9316
vn -0.7924 -0.2015 -0.5757
vn -0.9795 -0.2015 -0.0000
vn -0.7924 -0.2015 0.5757
vn -0.3027 -0.2015 0.9316
vn 0.3027 -0.2015 0.9316
vn 0.7924 -0.2015 0.5757
vn 0.9795 -0.2015 -0.0000
vn 0.6806 -0.5405 -0.4945
vn 0.2600 -0.5405 -0.8001
vn -0.2600 -0.5405 -0.8001
vn -0.6806 -0.5405 -0.4945
vn -0.8413 -0.5405 -0.0000
vn -0.6806 -0.5405 0.4945
vn -0.2600 -0.5405 0.8001
vn 0.2600 -0.5405 0.8001
vn 0.6806 -0.5405 0.4945
vn 0.8413 -0.5405 -0.0000
vn 0.2991 -0.9291 -0.2173
vn 0.1142 -0.9291 -0.3516
vn -0.1143 -0.9291 -0.3516
vn -0.2991 -0.9291 -0.2173
vn -0.3697 -0.9291 -0.0000
vn -0.2991 -0.9291 0.2173
vn -0.1143 -0.9291 0.3516
vn 0.1143 -0.9291 0.3516
vn 0.2991 -0.9291 0.2173
vn 0.3697 -0.9291 -0.0000
vn -0.0007 1.0000 0.0002
vn -0.0004 1.0000 0.0006
vn -0.0000 1.0000 0.0007
vn 0.0004 1.0000 0.0006
vn 0.0007 1.0000 0.0002
vn 0.0007 1.0000 -0.0002
vn 0.0004 1.0000 -0.0006
vn -0.0000 1.0000 -0.0007
vn -0.0004 1.0000 -0.0006
vn -0.0007 1.0000 -0.0002
vt 0.000000 0.210095
vt 0.100000 0.210000
vt 0.100000 0.210095
vt 0.200000 0.210000
vt 0.200000 0.210095
vt 0.300000 0.210000
vt 0.300000 0.210095
vt 0.400000 0.210000
vt 0.400000 0.210095
vt 0.500000 0.210000
vt 0.500000 0.210095
vt 0.600000 0.210000
vt 0.600000 0.210095
vt 0.700000 0.210000
vt 0.700000 0.210095
vt 0.800000 0.210000
vt 0.800000 0.210095
vt 0.900000 0.210000
vt 0.900000 0.210095
vt 1.000000 0.210000
vt 1.000000 0.210095
vt 0.000000 0.210000
vt 0.100000 0.440000
vt 0.200000 0.440000
vt 0.300000 0.440000
vt 0.400000 0.440000
vt 0.500000 0.440000
vt 0.600000 0.440000
vt 0.700000 0.440000
vt 0.900000 0.440000
vt 1.000000 0.440000
vt 0.000000 0.440000
vt 0.800000 0.440000
vt 0.100000 0.420000
vt 0.200000 0.420000
vt 0.300000 0.420000
vt 0.400000 0.420000
vt 0.500000 0.420000
vt 0.600000 0.420000
vt 0.700000 0.420000
vt 0.800000 0.420000
vt 0.900000 0.420000
vt 1.000000 0.420000
vt 0.000000 0.386654
vt 0.000000 0.420000
vt 0.100000 0.386654
vt 0.200000 0.386654
vt 0.300000 0.386654
vt 0.400000 0.386654
vt 0.500000 0.386654
vt 0.600000 0.386654
vt 0.700000 0.386654
vt 0.800000 0.386654
vt 0.900000 0.386654
vt 0.000000 0.353784
vt 0.100000 0.353784
vt 0.200000 0.353784
vt 0.300000 0.353784
vt 0.400000 0.353784
vt 0.500000 0.353784
vt 0.600000 0.353784
vt 0.700000 0.353784
vt 0.800000 0.353784
vt 0.900000 0.353784
vt 1.000000 0.386654
vt 0.100000 0.309957
vt 0.200000 0.309957
vt 0.300000 0.309957
vt 0.400000 0.309957
vt 0.500000 0.309957
vt 0.600000 0.309957
vt 0.700000 0.309957
vt 0.800000 0.309957
vt 0.900000 0.309957
vt 1.000000 0.309957
vt 1.000000 0.353784
vt 0.000000 0.309957
vt 0.100000 0.275717
vt 0.200000 0.275717
vt 0.300000 0.275717
vt 0.400000 0.275717
vt 0.500000 0.275717
vt 0.600000 0.275717
vt 0.700000 0.275717
vt 0.800000 0.275717
vt 0.900000 0.275717
vt 1.000000 0.275717
vt 0.000000 0.275717
vt 0.100000 0.221619
vt 0.200000 0.221619
vt 0.300000 0.221619
vt 0.400000 0.221619
vt 0.500000 0.221619
vt 0.600000 0.221619
vt 0.700000 0.221619
vt 0.800000 0.221619
vt 0.900000 0.221619
vt 1.000000 0.221619
vt 0.000000 0.221619
vt 0.100000 0.129856
vt 0.200000 0.129856
vt 0.300000 0.129856
vt 0.400000 0.129856
vt 0.500000 0.129856
vt 0.600000 0.129856
vt 0.700000 0.129856
vt 0.800000 0.129856
vt 0.900000 0.129856
vt 1.000000 0.129856
vt 0.000000 0.129856
vt 0.100000 0.032616
vt 0.200000 0.032616
vt 0.300000 0.032616
vt 0.400000 0.032616
vt 0.500000 0.032616
vt 0.600000 0.032616
vt 0.700000 0.032616
vt 0.800000 0.032616
vt 0.900000 0.032616
vt 1.000000 0.032616
vt 0.000000 0.032616
vt 0.100000 -0.000254
vt 0.200000 -0.000254
vt 0.300000 -0.000254
vt 0.400000 -0.000254
vt 0.500000 -0.000254
vt 0.600000 -0.000254
vt 0.700000 -0.000254
vt 0.800000 -0.000254
vt 0.900000 -0.000254
vt 1.000000 -0.000254
vt 0.000000 -0.000254
vt 0.100000 0.000000
vt 0.200000 0.000000
vt 0.300000 0.000000
vt 0.400000 0.000000
vt 0.500000 0.000000
vt 0.600000 0.000000
vt 0.700000 0.000000
vt 0.800000 0.000000
vt 0.900000 0.000000
vt 1.000000 0.000000
vt 0.000000 0.000000
s 1
f 141/144/141 156/145/142 155/146/143
f 155/146/143 170/147/144 169/148/145
f 169/148/145 184/149/146 183/150/147
f 183/150/147 198/151/148 197/152/149
f 197/152/149 212/153/150 211/154/151
f 211/154/151 226/155/152 225/156/153
f 225/156/153 240/157/154 239/158/155
f 239/158/155 254/159/156 253/160/157
f 253/160/157 268/161/158 267/162/159
f 267/162/159 142/163/160 141/164/141
f 142/165/160 157/166/161 156/145/142
f 156/145/142 171/167/162 170/147/144
f 171/167/162 184/149/146 170/147/144
f 185/168/163 198/151/148 184/149/146
f 199/169/164 212/153/150 198/151/148
f 213/170/165 226/155/152 212/153/150
f 227/171/166 240/157/154 226/155/152
f 241/172/167 254/159/156 240/157/154
f 254/159/156 269/173/168 268/161/158
f 268/161/158 143/174/169 142/163/160
f 144/175/170 157/166/161 143/175/169
f 158/166/171 171/167/162 157/166/161
f 172/167/172 185/168/163 171/167/162
f 186/168/173 199/169/164 185/168/163
f 200/169/174 213/170/165 199/169/164
f 214/170/175 227/171/166 213/170/165
f 228/171/176 241/172/167 227/171/166
f 242/172/177 255/176/178 241/172/167
f 256/176/179 269/173/168 255/176/178
f 270/173/180 143/174/169 269/173/168
f 144/175/170 159/177/181 158/166/171
f 158/166/171 173/178/182 172/167/172
f 172/167/172 187/179/183 186/168/173
f 186/168/173 201/180/184 200/169/174
f 200/169/174 215/181/185 214/170/175
f 214/170/175 229/182/186 228/171/176
f 228/171/176 243/183/187 242/172/177
f 242/172/177 257/184/188 256/176/179
f 256/176/179 271/185/189 270/173/180
f 270/173/180 145/186/190 144/174/170
f 146/187/191 159/177/181 145/188/190
f 160/189/192 173/178/182 159/177/181
f 174/190/193 187/179/183 173/178/182
f 188/191/194 201/180/184 187/179/183
f 202/192/195 215/181/185 201/180/184
f 216/193/196 229/182/186 215/181/185
f 230/194/197 243/183/187 229/182/186
f 244/195/198 257/184/188 243/183/187
f 258/196/199 271/185/189 257/184/188
f 272/197/200 145/186/190 271/185/189
f 147/198/201 160/189/192 146/187/191
f 161/199/202 174/190/193 160/189/192
f 175/200/203 188/191/194 174/190/193
f 189/201/204 202/192/195 188/191/194
f 203/202/205 216/193/196 202/192/195
f 217/203/206 230/194/197 216/193/196
f 231/204/207 244/195/198 230/194/197
f 245/205/208 258/196/199 244/195/198
f 259/206/209 272/197/200 258/196/199
f 273/207/210 146/208/191 272/197/200
f 147/198/201 162/209/211 161/199/202
f 161/199/202 176/210/212 175/200/203
f 175/200/203 190/211/213 189/201/204
f 189/201/204 204/212/214 203/202/205
f 203/202/205 218/213/215 217/203/206
f 217/203/206 232/214/216 231/204/207
f 231/204/207 246/215/217 245/205/208
f 245/205/208 260/216/218 259/206/209
f 259/206/209 274/217/219 273/207/210
f 273/207/210 148/218/220 147/219/201
f 148/220/220 163/221/221 162/209/211
f 162/209/211 177/222/222 176/210/212
f 176/210/212 191/223/223 190/211/213
f 190/211/213 205/224/224 204/212/214
f 204/212/214 219/225/225 218/213/215
f 218/213/215 233/226/226 232/214/216
f 232/214/216 247/227/227 246/215/217
f 246/215/217 261/228/228 260/216/218
f 260/216/218 275/229/229 274/217/219
f 274/217/219 149/230/230 148/218/220
f 149/231/230 164/232/231 163/221/221
f 163/221/221 178/233/232 177/222/222
f 177/222/222 192/234/233 191/223/223
f 191/223/223 206/235/234 205/224/224
f 205/224/224 220/236/235 219/225/225
f 219/225/225 234/237/236 233/226/226
f 233/226/226 248/238/237 247/227/227
f 247/227/227 262/239/238 261/228/228
f 261/228/228 276/240/239 275/229/229
f 275/229/229 150/241/240 149/230/230
f 150/242/240 165/243/241 164/232/231
f 164/232/231 179/244/242 178/233/232
f 178/233/232 193/245/243 192/234/233
f 192/234/233 207/246/244 206/235/234
f 206/235/234 221/247/245 220/236/235
f 220/236/235 235/248/246 234/237/236
f 234/237/236 249/249/247 248/238/237
f 248/238/237 263/250/248 262/239/238
f 262/239/238 277/251/249 276/240/239
f 276/240/239 151/252/250 150/241/240
f 151/253/250 166/254/251 165/243/241
f 165/243/241 180/255/252 179/244/242
f 179/244/242 194/256/253 193/245/243
f 193/245/243 208/257/254 207/246/244
f 207/246/244 222/258/255 221/247/245
f 221/247/245 236/259/256 235/248/246
f 235/248/246 250/260/257 249/249/247
f 249/249/247 264/261/258 263/250/248
f 263/250/248 278/262/259 277/251/249
f 277/251/249 152/263/260 151/252/250
f 152/264/260 167/265/261 166/254/251
f 166/254/251 181/266/262 180/255/252
f 180/255/252 195/267/263 194/256/253
f 194/256/253 209/268/264 208/257/254
f 208/257/254 223/269/265 222/258/255
f 222/258/255 237/270/266 236/259/256
f 236/259/256 251/271/267 250/260/257
f 250/260/257 265/272/268 264/261/258
f 264/261/258 279/273/269 278/262/259
f 278/262/259 153/274/270 152/263/260
f 153/275/270 168/276/271 167/265/261
f 167/265/261 182/277/272 181/266/262
f 181/266/262 196/278/273 195/267/263
f 195/267/263 210/279/274 209/268/264
f 209/268/264 224/280/275 223/269/265
f 223/269/265 238/281/276 237/270/266
f 237/270/266 252/282/277 251/271/267
f 251/271/267 266/283/278 265/272/268
f 265/272/268 280/284/279 279/273/269
f 279/273/269 154/285/280 153/274/270
f 141/144/141 142/165/160 156/145/142
f 155/146/143 156/145/142 170/147/144
f 169/148/145 170/147/144 184/149/146
f 183/150/147 184/149/146 198/151/148
f 197/152/149 198/151/148 212/153/150
f 211/154/151 212/153/150 226/155/152
f 225/156/153 226/155/152 240/157/154
f 239/158/155 240/157/154 254/159/156
f 253/160/157 254/159/156 268/161/158
f 267/162/159 268/161/158 142/163/160
f 142/165/160 143/175/169 157/166/161
f 156/145/142 157/166/161 171/167/162
f 171/167/162 185/168/163 184/149/146
f 185/168/163 199/169/164 198/151/148
f 199/169/164 213/170/165 212/153/150
f 213/170/165 227/171/166 226/155/152
f 227/171/166 241/172/167 240/157/154
f 241/172/167 255/176/178 254/159/156
f 254/159/156 255/176/178 269/173/168
f 268/161/158 269/173/168 143/174/169
f 144/175/170 158/166/171 157/166/161
f 158/166/171 172/167/172 171/167/162
f 172/167/172 186/168/173 185/168/163
f 186/168/173 200/169/174 199/169/164
f 200/169/174 214/170/175 213/170/165
f 214/170/175 228/171/176 227/171/166
f 228/171/176 242/172/177 241/172/167
f 242/172/177 256/176/179 255/176/178
f 256/176/179 270/173/180 269/173/168
f 270/173/180 144/174/170 143/174/169
f 144/175/170 145/188/190 159/177/181
f 158/166/171 159/177/181 173/178/182
f 172/167/172 173/178/182 187/179/183
f 186/168/173 187/179/183 201/180/184
f 200/169/174 201/180/184 215/181/185
f 214/170/175 215/181/185 229/182/186
f 228/171/176 229/182/186 243/183/187
f 242/172/177 243/183/187 257/184/188
f 256/176/179 257/184/188 271/185/189
f 270/173/180 271/185/189 145/186/190
f 146/187/191 160/189/192 159/177/181
f 160/189/192 174/190/193 173/178/182
f 174/190/193 188/191/194 187/179/183
f 188/191/194 202/192/195 201/180/184
f 202/192/195 216/193/196 215/181/185
f 216/193/196 230/194/197 229/182/186
f 230/194/197 244/195/198 243/183/187
f 244/195/198 258/196/199 257/184/188
f 258/196/199 272/197/200 271/185/189
f 272/197/200 146/208/191 145/186/190
f 147/198/201 161/199/202 160/189/192
f 161/199/202 175/200/203 174/190/193
f 175/200/203 189/201/204 188/191/194
f 189/201/204 203/202/205 202/192/195
f 203/202/205 217/203/206 216/193/196
f 217/203/206 231/204/207 230/194/197
f 231/204/207 245/205/208 244/195/198
f 245/205/208 259/206/209 258/196/199
f 259/206/209 273/207/210 272/197/200
f 273/207/210 147/219/201 146/208/191
f 147/198/201 148/220/220 162/209/211
f 161/199/202 162/209/211 176/210/212
f 175/200/203 176/210/212 190/211/213
f 189/201/204 190/211/213 204/212/214
f 203/202/205 204/212/214 218/213/215
f 217/203/206 218/213/215 232/214/216
f 231/204/207 232/214/216 246/215/217
f 245/205/208 246/215/217 260/216/218
f 259/206/209 260/216/218 274/217/219
f 273/207/210 274/217/219 148/218/220
f 148/220/220 149/231/230 163/221/221
f 162/209/211 163/221/221 177/222/222
f 176/210/212 177/222/222 191/223/223
f 190/211/213 191/223/223 205/224/224
f 204/212/214 205/224/224 219/225/225
f 218/213/215 219/225/225 233/226/226
f 232/214/216 233/226/226 247/227/227
f 246/215/217 247/227/227 261/228/228
f 260/216/218 261/228/228 275/229/229
f 274/217/219 275/229/229 149/230/230
f 149/231/230 150/242/240 164/232/231
f 163/221/221 164/232/231 178/233/232
f 177/222/222 178/233/232 192/234/233
f 191/223/223 192/234/233 206/235/234
f 205/224/224 206/235/234 220/236/235
f 219/225/225 220/236/235 234/237/236
f 233/226/226 234/237/236 248/238/237
f 247/227/227 248/238/237 262/239/238
f 261/228/228 262/239/238 276/240/239
f 275/229/229 276/240/239 150/241/240
f 150/242/240 151/253/250 165/243/241
f 164/232/231 165/243/241 179/244/242
f 178/233/232 179/244/242 193/245/243
f 192/234/233 193/245/243 207/246/244
f 206/235/234 207/246/244 221/247/245
f 220/236/235 221/247/245 235/248/246
f 234/237/236 235/248/246 249/249/247
f 248/238/237 249/249/247 263/250/248
f 262/239/238 263/250/248 277/251/249
f 276/240/239 277/251/249 151/252/250
f 151/253/250 152/264/260 166/254/251
f 165/243/241 166/254/251 180/255/252
f 179/244/242 180/255/252 194/256/253
f 193/245/243 194/256/253 208/257/254
f 207/246/244 208/257/254 222/258/255
f 221/247/245 222/258/255 236/259/256
f 235/248/246 236/259/256 250/260/257
f 249/249/247 250/260/257 264/261/258
f 263/250/248 264/261/258 278/262/259
f 277/251/249 278/262/259 152/263/260
f 152/264/260 153/275/270 167/265/261
f 166/254/251 167/265/261 181/266/262
f 180/255/252 181/266/262 195/267/263
f 194/256/253 195/267/263 209/268/264
f 208/257/254 209/268/264 223/269/265
f 222/258/255 223/269/265 237/270/266
f 236/259/256 237/270/266 251/271/267
f 250/260/257 251/271/267 265/272/268
f 264/261/258 265/272/268 279/273/269
f 278/262/259 279/273/269 153/274/270
f 153/275/270 154/286/280 168/276/271
f 167/265/261 168/276/271 182/277/272
f 181/266/262 182/277/272 196/278/273
f 195/267/263 196/278/273 210/279/274
f 209/268/264 210/279/274 224/280/275
f 223/269/265 224/280/275 238/281/276
f 237/270/266 238/281/276 252/282/277
f 251/271/267 252/282/277 266/283/278
f 265/272/268 266/283/278 280/284/279
f 279/273/269 280/284/279 154/285/280
