# Blender 4.5.14 LTS
# www.blender.org
mtllib candelabrum.mtl
o candelabrum
v 0.090000 0.000000 -0.155885 0.8706 0.8706 0.8706
v 0.030000 0.040000 -0.051962 0.9529 0.9529 0.9529
v 0.060000 0.040000 0.000000 0.7020 0.7020 0.7020
v -0.090000 0.000000 -0.155885 0.8706 0.8706 0.8706
v -0.030000 0.040000 -0.051962 0.9490 0.9490 0.9490
v -0.090000 0.000000 0.155885 0.8706 0.8706 0.8706
v -0.030000 0.040000 0.051962 0.9490 0.9490 0.9490
v -0.060000 0.040000 -0.000000 0.9490 0.9490 0.9490
v 0.090000 0.000000 0.155885 0.8745 0.8745 0.8745
v 0.030000 0.040000 0.051962 0.9529 0.9529 0.9529
v -0.180000 0.000000 -0.000000 0.8823 0.8823 0.8823
v 0.180000 0.000000 0.000000 0.7568 0.7568 0.7568
v -0.030000 0.015000 -0.015000 0.7020 0.7020 0.7020
v -0.030000 0.015000 0.015000 0.7020 0.7020 0.7020
v -0.030000 0.045000 -0.015000 0.8627 0.8627 0.8627
v 0.270000 0.045000 0.015000 0.9058 0.9058 0.9058
v -0.030000 0.045000 0.015000 0.8627 0.8627 0.8627
v 0.270000 0.045000 -0.015000 0.9019 0.9019 0.9019
v 0.270000 0.015000 -0.015000 0.8000 0.8000 0.8000
v 0.270000 0.015000 0.015000 0.8000 0.8000 0.8000
v -0.147990 0.015000 -0.018481 0.7960 0.7960 0.7960
v 0.002010 0.015000 0.241327 0.7960 0.7960 0.7960
v -0.147990 0.045000 -0.018481 0.8980 0.8980 0.8980
v 0.027990 0.015000 0.226327 0.7960 0.7960 0.7960
v 0.002010 0.045000 0.241327 0.9019 0.9019 0.9019
v -0.122010 0.015000 -0.033481 0.7608 0.7608 0.7608
v -0.122010 0.045000 -0.033481 0.8745 0.8745 0.8745
v 0.027990 0.045000 0.226327 0.8980 0.8980 0.8980
v 0.027990 0.015000 -0.226327 0.7960 0.7960 0.7960
v 0.002010 0.015000 -0.241327 0.8000 0.8000 0.8000
v 0.027990 0.045000 -0.226327 0.9019 0.9019 0.9019
v -0.147990 0.015000 0.018481 0.7960 0.7960 0.7960
v -0.122010 0.015000 0.033481 0.7568 0.7568 0.7568
v -0.122010 0.045000 0.033481 0.8745 0.8745 0.8745
v 0.002010 0.045000 -0.241327 0.9019 0.9019 0.9019
v -0.147990 0.045000 0.018481 0.8941 0.8941 0.8941
v 0.012500 0.040000 -0.021651 0.8039 0.8039 0.8039
v -0.012500 0.040000 -0.021651 0.8000 0.8000 0.8000
v 0.010000 0.600000 -0.017321 0.9960 0.9960 0.9960
v -0.010000 0.600000 -0.017321 0.9882 0.9882 0.9882
v -0.025000 0.040000 -0.000000 0.7960 0.7960 0.7960
v -0.020000 0.600000 -0.000000 0.9960 0.9960 0.9960
v -0.012500 0.040000 0.021651 0.8000 0.8000 0.8000
v 0.010000 0.600000 0.017321 0.9921 0.9921 0.9921
v 0.020000 0.650000 -0.034641 0.9960 0.9960 0.9960
v -0.040000 0.650000 -0.000000 1.0000 1.0000 1.0000
v -0.010000 0.600000 0.017321 0.9960 0.9960 0.9960
v -0.020000 0.650000 0.034641 1.0000 1.0000 1.0000
v 0.020000 0.650000 0.034641 0.9921 0.9921 0.9921
v 0.020000 0.600000 0.000000 0.9960 0.9960 0.9960
v 0.018000 0.700000 0.000000 0.9921 0.9921 0.9921
v -0.020000 0.650000 -0.034641 1.0000 1.0000 1.0000
v 0.040000 0.650000 0.000000 1.0000 1.0000 1.0000
v 0.009000 0.700000 -0.015588 0.9960 0.9960 0.9960
v -0.009000 0.700000 -0.015588 0.9882 0.9882 0.9882
v -0.018000 0.700000 -0.000000 0.9960 0.9960 0.9960
v -0.018000 1.400000 -0.000000 0.9411 0.9411 0.9411
v -0.009000 1.400000 -0.015588 0.9490 0.9490 0.9490
v -0.009000 0.700000 0.015588 0.9921 0.9921 0.9921
v 0.009000 0.700000 0.015588 0.9882 0.9882 0.9882
v 0.009000 1.400000 0.015588 0.9529 0.9529 0.9529
v 0.009000 1.400000 -0.015588 0.9607 0.9607 0.9607
v -0.035000 1.450000 -0.000000 0.9568 0.9568 0.9568
v -0.009000 1.400000 0.015588 0.9607 0.9607 0.9607
v 0.018000 1.400000 0.000000 0.9451 0.9451 0.9451
v 0.035000 1.450000 0.000000 0.9529 0.9529 0.9529
v 0.017500 1.450000 -0.030311 0.9568 0.9568 0.9568
v -0.017500 1.450000 -0.030311 0.9568 0.9568 0.9568
v -0.017500 1.450000 0.030311 0.9568 0.9568 0.9568
v 0.017500 1.450000 0.030311 0.9568 0.9568 0.9568
v 0.000000 1.470000 0.000000 0.7020 0.7020 0.7020
v 0.012500 0.040000 0.021651 0.8039 0.8039 0.8039
v 0.025000 0.040000 0.000000 0.8039 0.8039 0.8039
v -0.001498 1.410113 0.000000 0.7020 0.7020 0.7020
v -0.000000 1.420000 -0.010000 0.7020 0.7020 0.7020
v 0.129369 1.409648 -0.000000 0.9529 0.9529 0.9529
v 0.001498 1.429887 -0.000000 0.7020 0.7020 0.7020
v 0.134631 1.390352 0.000000 0.9921 0.9921 0.9921
v 0.132000 1.400000 -0.010000 0.9764 0.9764 0.9764
v 0.220000 1.480000 -0.010000 0.7960 0.7960 0.7960
v 0.226727 1.472601 0.000000 0.9058 0.9058 0.9058
v 0.213273 1.487399 -0.000000 0.7020 0.7020 0.7020
v 0.132000 1.400000 0.010000 0.9686 0.9686 0.9686
v 0.220000 1.480000 0.010000 0.8039 0.8039 0.8039
v 0.250000 1.480000 0.000000 0.9921 0.9921 0.9921
v 0.250000 1.500000 0.000000 0.9804 0.9804 0.9804
v 0.205000 1.480000 -0.025981 0.9647 0.9647 0.9647
v 0.190000 1.480000 -0.000000 0.9372 0.9372 0.9372
v 0.205000 1.500000 -0.025981 0.9568 0.9568 0.9568
v 0.205000 1.480000 0.025981 0.9686 0.9686 0.9686
v 0.190000 1.500000 -0.000000 0.9607 0.9607 0.9607
v 0.235000 1.480000 0.025981 0.9843 0.9843 0.9843
v 0.205000 1.500000 0.025981 0.9686 0.9686 0.9686
v 0.235000 1.500000 0.025981 0.9804 0.9804 0.9804
v 0.235000 1.500000 -0.025981 0.9804 0.9804 0.9804
v 0.235000 1.480000 -0.025981 0.9882 0.9882 0.9882
v 0.232000 1.500000 0.000000 0.8078 0.8078 0.8078
v 0.214000 1.620000 -0.010392 0.9764 0.9764 0.9764
v 0.226000 1.620000 -0.010392 0.9804 0.9804 0.9804
v 0.214000 1.500000 -0.010392 0.8000 0.8000 0.8000
v 0.208000 1.500000 -0.000000 0.8000 0.8000 0.8000
v 0.214000 1.500000 0.010392 0.8000 0.8000 0.8000
v 0.214000 1.620000 0.010392 0.9686 0.9686 0.9686
v 0.232000 1.620000 0.000000 0.9843 0.9843 0.9843
v 0.208000 1.620000 -0.000000 0.9686 0.9686 0.9686
v 0.226000 1.620000 0.010392 0.9843 0.9843 0.9843
v 0.226000 1.500000 0.010392 0.8078 0.8078 0.8078
v 0.226000 1.500000 -0.010392 0.8078 0.8078 0.8078
v 0.220000 1.620000 0.000000 0.7020 0.7020 0.7020
v 0.213000 1.630000 -0.000000 0.9647 0.9647 0.9647
v 0.220000 1.630000 0.007000 0.9647 0.9647 0.9647
v 0.227000 1.630000 0.000000 0.9686 0.9686 0.9686
v 0.220000 1.630000 -0.007000 0.9647 0.9647 0.9647
v 0.214000 1.644000 -0.000000 0.9882 0.9882 0.9882
v 0.220000 1.644000 -0.006000 0.9921 0.9921 0.9921
v 0.220000 1.644000 0.006000 0.9921 0.9921 0.9921
v 0.220000 1.665000 0.000000 0.9921 0.9921 0.9921
v 0.226000 1.644000 0.000000 0.9960 0.9960 0.9960
v 0.000000 1.410113 0.001498 0.7020 0.7020 0.7020
v -0.010000 1.420000 -0.000000 0.7020 0.7020 0.7020
v 0.000000 1.409648 -0.129369 0.9490 0.9490 0.9490
v -0.000000 1.429887 -0.001498 0.7020 0.7020 0.7020
v 0.000000 1.390352 -0.134631 0.9843 0.9843 0.9843
v -0.010000 1.400000 -0.132000 0.9725 0.9725 0.9725
v 0.000000 1.487399 -0.213273 0.7020 0.7020 0.7020
v -0.010000 1.480000 -0.220000 0.8000 0.8000 0.8000
v 0.010000 1.400000 -0.132000 0.9725 0.9725 0.9725
v 0.010000 1.480000 -0.220000 0.8000 0.8000 0.8000
v 0.000000 1.472601 -0.226727 0.9098 0.9098 0.9098
v 0.015000 1.480000 -0.245981 0.9921 0.9921 0.9921
v -0.015000 1.480000 -0.245981 0.9921 0.9921 0.9921
v -0.015000 1.500000 -0.245981 0.9843 0.9843 0.9843
v -0.015000 1.500000 -0.194019 0.9607 0.9607 0.9607
v -0.015000 1.480000 -0.194019 0.9333 0.9333 0.9333
v 0.015000 1.500000 -0.194019 0.9568 0.9568 0.9568
v 0.030000 1.480000 -0.220000 0.9764 0.9764 0.9764
v 0.030000 1.500000 -0.220000 0.9764 0.9764 0.9764
v 0.015000 1.500000 -0.245981 0.9804 0.9804 0.9804
v -0.030000 1.500000 -0.220000 0.9725 0.9725 0.9725
v 0.015000 1.480000 -0.194019 0.9372 0.9372 0.9372
v -0.030000 1.480000 -0.220000 0.9804 0.9804 0.9804
v 0.012000 1.600000 -0.220000 0.9804 0.9804 0.9804
v 0.006000 1.500000 -0.230392 0.8039 0.8039 0.8039
v 0.006000 1.600000 -0.230392 0.9843 0.9843 0.9843
v -0.006000 1.500000 -0.230392 0.8039 0.8039 0.8039
v -0.012000 1.600000 -0.220000 0.9764 0.9764 0.9764
v -0.006000 1.500000 -0.209608 0.8000 0.8000 0.8000
v 0.006000 1.600000 -0.209608 0.9686 0.9686 0.9686
v -0.006000 1.600000 -0.209608 0.9607 0.9607 0.9607
v 0.006000 1.500000 -0.209608 0.8000 0.8000 0.8000
v -0.006000 1.600000 -0.230392 0.9843 0.9843 0.9843
v -0.012000 1.500000 -0.220000 0.8000 0.8000 0.8000
v 0.012000 1.500000 -0.220000 0.8039 0.8039 0.8039
v 0.007000 1.610000 -0.220000 0.9647 0.9647 0.9647
v 0.000000 1.600000 -0.220000 0.7020 0.7020 0.7020
v 0.000000 1.610000 -0.227000 0.9725 0.9725 0.9725
v -0.007000 1.610000 -0.220000 0.9647 0.9647 0.9647
v 0.000000 1.624000 -0.214000 0.9764 0.9764 0.9764
v 0.000000 1.610000 -0.213000 0.9529 0.9529 0.9529
v 0.000000 1.645000 -0.220000 0.9921 0.9921 0.9921
v 0.000000 1.624000 -0.226000 1.0000 1.0000 1.0000
v -0.006000 1.624000 -0.220000 0.9882 0.9882 0.9882
v 0.006000 1.624000 -0.220000 0.9882 0.9882 0.9882
v -0.000000 1.420000 0.010000 0.7020 0.7020 0.7020
v -0.132000 1.400000 -0.010000 0.9686 0.9686 0.9686
v -0.129369 1.409648 -0.000000 0.9490 0.9490 0.9490
v -0.134631 1.390352 -0.000000 0.9843 0.9843 0.9843
v -0.132000 1.400000 0.010000 0.9686 0.9686 0.9686
v -0.220000 1.480000 0.010000 0.7960 0.7960 0.7960
v -0.213273 1.487399 -0.000000 0.7020 0.7020 0.7020
v -0.001498 1.429887 0.000000 0.7020 0.7020 0.7020
v 0.001498 1.410113 -0.000000 0.7020 0.7020 0.7020
v -0.220000 1.480000 -0.010000 0.8000 0.8000 0.8000
v -0.226727 1.472601 -0.000000 0.9137 0.9137 0.9137
v -0.205000 1.480000 -0.025981 0.9568 0.9568 0.9568
v -0.235000 1.480000 -0.025981 0.9882 0.9882 0.9882
v -0.235000 1.500000 -0.025981 0.9764 0.9764 0.9764
v -0.250000 1.480000 -0.000000 0.9960 0.9960 0.9960
v -0.205000 1.480000 0.025981 0.9607 0.9607 0.9607
v -0.205000 1.500000 0.025981 0.9647 0.9647 0.9647
v -0.190000 1.480000 -0.000000 0.9294 0.9294 0.9294
v -0.190000 1.500000 -0.000000 0.9647 0.9647 0.9647
v -0.205000 1.500000 -0.025981 0.9607 0.9607 0.9607
v -0.250000 1.500000 -0.000000 0.9843 0.9843 0.9843
v -0.235000 1.500000 0.025981 0.9764 0.9764 0.9764
v -0.235000 1.480000 0.025981 0.9882 0.9882 0.9882
v -0.208000 1.500000 -0.000000 0.8000 0.8000 0.8000
v -0.214000 1.500000 -0.010392 0.8039 0.8039 0.8039
v -0.226000 1.500000 -0.010392 0.8000 0.8000 0.8000
v -0.232000 1.580000 -0.000000 0.9843 0.9843 0.9843
v -0.232000 1.500000 -0.000000 0.7960 0.7960 0.7960
v -0.226000 1.580000 0.010392 0.9764 0.9764 0.9764
v -0.214000 1.500000 0.010392 0.7960 0.7960 0.7960
v -0.208000 1.580000 -0.000000 0.9647 0.9647 0.9647
v -0.214000 1.580000 -0.010392 0.9764 0.9764 0.9764
v -0.226000 1.580000 -0.010392 0.9843 0.9843 0.9843
v -0.214000 1.580000 0.010392 0.9725 0.9725 0.9725
v -0.226000 1.500000 0.010392 0.7960 0.7960 0.7960
v -0.220000 1.580000 -0.000000 0.7020 0.7020 0.7020
v -0.220000 1.590000 0.007000 0.9607 0.9607 0.9607
v -0.220000 1.604000 -0.006000 0.9960 0.9960 0.9960
v -0.214000 1.604000 -0.000000 0.9843 0.9843 0.9843
v -0.220000 1.590000 -0.007000 0.9647 0.9647 0.9647
v -0.227000 1.590000 -0.000000 0.9725 0.9725 0.9725
v -0.220000 1.604000 0.006000 0.9882 0.9882 0.9882
v -0.213000 1.590000 -0.000000 0.9568 0.9568 0.9568
v -0.226000 1.604000 -0.000000 1.0000 1.0000 1.0000
v -0.220000 1.625000 -0.000000 0.9921 0.9921 0.9921
v -0.000000 1.410113 -0.001498 0.7020 0.7020 0.7020
v -0.000000 1.390352 0.134631 0.9882 0.9882 0.9882
v -0.010000 1.400000 0.132000 0.9725 0.9725 0.9725
v 0.010000 1.420000 0.000000 0.7020 0.7020 0.7020
v -0.000000 1.409648 0.129369 0.9529 0.9529 0.9529
v -0.000000 1.472601 0.226727 0.9098 0.9098 0.9098
v 0.010000 1.400000 0.132000 0.9725 0.9725 0.9725
v 0.010000 1.480000 0.220000 0.8000 0.8000 0.8000
v 0.000000 1.429887 0.001498 0.7020 0.7020 0.7020
v -0.010000 1.480000 0.220000 0.8000 0.8000 0.8000
v -0.000000 1.487399 0.213273 0.7020 0.7020 0.7020
v 0.015000 1.480000 0.194019 0.9411 0.9411 0.9411
v -0.015000 1.480000 0.194019 0.9372 0.9372 0.9372
v -0.015000 1.500000 0.194019 0.9529 0.9529 0.9529
v 0.015000 1.500000 0.194019 0.9607 0.9607 0.9607
v -0.030000 1.480000 0.220000 0.9804 0.9804 0.9804
v -0.030000 1.500000 0.220000 0.9804 0.9804 0.9804
v -0.015000 1.480000 0.245981 0.9960 0.9960 0.9960
v -0.015000 1.500000 0.245981 0.9843 0.9843 0.9843
v 0.030000 1.480000 0.220000 0.9804 0.9804 0.9804
v 0.030000 1.500000 0.220000 0.9725 0.9725 0.9725
v 0.015000 1.500000 0.245981 0.9843 0.9843 0.9843
v 0.015000 1.480000 0.245981 0.9921 0.9921 0.9921
v 0.006000 1.560000 0.209608 0.9607 0.9607 0.9607
v 0.012000 1.560000 0.220000 0.9725 0.9725 0.9725
v -0.006000 1.560000 0.209608 0.9607 0.9607 0.9607
v -0.012000 1.500000 0.220000 0.7960 0.7960 0.7960
v 0.006000 1.560000 0.230392 0.9764 0.9764 0.9764
v -0.006000 1.560000 0.230392 0.9804 0.9804 0.9804
v 0.006000 1.500000 0.230392 0.8000 0.8000 0.8000
v 0.012000 1.500000 0.220000 0.8000 0.8000 0.8000
v -0.012000 1.560000 0.220000 0.9804 0.9804 0.9804
v -0.006000 1.500000 0.230392 0.7960 0.7960 0.7960
v -0.006000 1.500000 0.209608 0.7960 0.7960 0.7960
v 0.006000 1.500000 0.209608 0.8000 0.8000 0.8000
v -0.000000 1.570000 0.227000 0.9725 0.9725 0.9725
v -0.007000 1.570000 0.220000 0.9686 0.9686 0.9686
v -0.000000 1.560000 0.220000 0.7020 0.7020 0.7020
v 0.007000 1.570000 0.220000 0.9568 0.9568 0.9568
v -0.000000 1.570000 0.213000 0.9490 0.9490 0.9490
v -0.000000 1.584000 0.214000 0.9764 0.9764 0.9764
v 0.006000 1.584000 0.220000 0.9882 0.9882 0.9882
v -0.006000 1.584000 0.220000 0.9882 0.9882 0.9882
v -0.000000 1.584000 0.226000 1.0000 1.0000 1.0000
v -0.000000 1.605000 0.220000 0.9882 0.9882 0.9882
v 0.006000 1.470000 -0.010392 0.8823 0.8823 0.8823
v -0.006000 1.470000 -0.010392 0.8823 0.8823 0.8823
v -0.006000 1.630000 -0.010392 0.9725 0.9725 0.9725
v -0.006000 1.470000 0.010392 0.8862 0.8862 0.8862
v 0.006000 1.470000 0.010392 0.8823 0.8823 0.8823
v -0.006000 1.630000 0.010392 0.9647 0.9647 0.9647
v 0.012000 1.630000 0.000000 0.9647 0.9647 0.9647
v 0.006000 1.630000 0.010392 0.9725 0.9725 0.9725
v 0.006000 1.630000 -0.010392 0.9686 0.9686 0.9686
v -0.012000 1.630000 -0.000000 0.9725 0.9725 0.9725
v -0.012000 1.470000 -0.000000 0.8862 0.8862 0.8862
v 0.012000 1.470000 0.000000 0.8941 0.8941 0.8941
v 0.000000 1.630000 0.000000 0.7020 0.7020 0.7020
v -0.000000 1.640000 0.007000 0.9568 0.9568 0.9568
v 0.000000 1.654000 -0.006000 0.9804 0.9804 0.9804
v 0.000000 1.640000 -0.007000 0.9607 0.9607 0.9607
v -0.006000 1.654000 -0.000000 0.9843 0.9843 0.9843
v -0.007000 1.640000 -0.000000 0.9568 0.9568 0.9568
v -0.000000 1.654000 0.006000 0.9843 0.9843 0.9843
v 0.007000 1.640000 0.000000 0.9568 0.9568 0.9568
v 0.006000 1.654000 0.000000 0.9843 0.9843 0.9843
v 0.000000 1.675000 0.000000 0.9843 0.9843 0.9843
vn 0.3162 0.9487 -0.0000
vn 0.1581 0.9487 -0.2739
vn -0.1581 0.9487 -0.2739
vn -0.3162 0.9487 -0.0000
vn -0.1581 0.9487 0.2739
vn 0.1581 0.9487 0.2739
vn -0.0000 1.0000 -0.0000
vn -0.0000 -1.0000 -0.0000
vn -0.0000 -0.0000 1.0000
vn -0.0000 -0.0000 -1.0000
vn -1.0000 -0.0000 -0.0000
vn 1.0000 -0.0000 -0.0000
vn 0.8660 -0.0000 -0.5000
vn -0.8660 -0.0000 0.5000
vn 0.5000 -0.0000 0.8660
vn -0.5000 -0.0000 -0.8660
vn -0.8660 -0.0000 -0.5000
vn 0.8660 -0.0000 0.5000
vn 0.5000 -0.0000 -0.8660
vn -0.5000 -0.0000 0.8660
vn 0.8660 0.0077 -0.5000
vn 0.8532 -0.1714 -0.4926
vn -0.0000 0.0077 -1.0000
vn -0.0000 -0.1714 -0.9852
vn -0.8660 0.0077 -0.5000
vn -0.8532 -0.1714 -0.4926
vn -0.8660 0.0077 0.5000
vn -0.8532 -0.1714 0.4926
vn -0.0000 0.0077 1.0000
vn -0.0000 -0.1714 0.9852
vn 0.8660 0.0077 0.5000
vn 0.8532 -0.1714 0.4926
vn 0.8660 0.0132 -0.5000
vn -0.0000 0.0132 -0.9999
vn -0.8660 0.0132 -0.5000
vn -0.8660 0.0132 0.5000
vn -0.0000 0.0132 0.9999
vn 0.8660 0.0132 0.5000
vn 0.8499 0.1920 -0.4907
vn -0.0000 0.1920 -0.9814
vn -0.8499 0.1920 -0.4907
vn -0.8499 0.1920 0.4907
vn -0.0000 0.1920 0.9814
vn 0.8499 0.1920 0.4907
vn 0.8563 -0.1497 -0.4944
vn -0.0000 -0.1497 -0.9887
vn -0.8563 -0.1497 -0.4944
vn -0.8563 -0.1497 0.4944
vn -0.0000 -0.1497 0.9887
vn 0.8563 -0.1497 0.4944
vn 0.8308 -0.2825 -0.4796
vn -0.0000 -0.2825 -0.9593
vn -0.8308 -0.2825 -0.4796
vn -0.8308 -0.2825 0.4796
vn -0.0000 -0.2825 0.9593
vn 0.8308 -0.2825 0.4796
vn 0.4961 0.8682 -0.0000
vn 0.2481 0.8682 -0.4297
vn -0.2481 0.8682 -0.4297
vn -0.4961 0.8682 -0.0000
vn -0.2481 0.8682 0.4297
vn 0.2481 0.8682 0.4297
vn -0.1059 -0.7143 0.6917
vn 0.1955 -0.6604 0.7250
vn 0.2029 -0.6583 0.7249
vn -0.1059 -0.7143 -0.6917
vn 0.2029 -0.6583 -0.7249
vn 0.1955 -0.6604 -0.7250
vn 0.1106 0.7141 -0.6912
vn -0.2039 0.6572 -0.7256
vn -0.1960 0.6596 -0.7256
vn 0.1106 0.7141 0.6912
vn -0.1960 0.6596 0.7256
vn -0.2039 0.6572 0.7256
vn 0.4861 -0.5396 0.6874
vn 0.4861 -0.5396 -0.6874
vn -0.4916 0.5357 -0.6866
vn -0.4916 0.5357 0.6866
vn -0.9887 0.1498 -0.0000
vn 0.7399 0.6727 -0.0000
vn 0.6337 -0.4436 -0.6337
vn 0.6971 -0.1680 -0.6971
vn -0.6337 -0.4436 -0.6337
vn -0.6971 -0.1680 -0.6971
vn -0.6337 -0.4436 0.6337
vn -0.6971 -0.1680 0.6971
vn 0.6337 -0.4436 0.6337
vn 0.6971 -0.1680 0.6971
vn 0.7021 0.1185 -0.7021
vn -0.7021 0.1185 -0.7021
vn -0.7021 0.1185 0.7021
vn 0.7021 0.1185 0.7021
vn 0.6931 0.1980 -0.6931
vn -0.6931 0.1980 -0.6931
vn -0.6931 0.1980 0.6931
vn 0.6931 0.1980 0.6931
vn 0.6917 -0.7144 0.1059
vn 0.7250 -0.6604 -0.1955
vn 0.7249 -0.6583 -0.2029
vn -0.6917 -0.7144 0.1059
vn -0.7249 -0.6583 -0.2029
vn -0.7250 -0.6604 -0.1955
vn -0.6912 0.7141 -0.1106
vn -0.7256 0.6572 0.2039
vn -0.7256 0.6596 0.1960
vn 0.6912 0.7141 -0.1106
vn 0.7256 0.6596 0.1960
vn 0.7256 0.6572 0.2039
vn 0.6874 -0.5396 -0.4861
vn -0.6874 -0.5396 -0.4861
vn -0.6866 0.5357 0.4916
vn 0.6866 0.5357 0.4916
vn -0.0000 0.1498 0.9887
vn -0.0000 0.6727 -0.7399
vn 0.1059 -0.7143 -0.6917
vn -0.1955 -0.6604 -0.7250
vn -0.2029 -0.6583 -0.7249
vn 0.1059 -0.7143 0.6917
vn -0.2029 -0.6583 0.7249
vn -0.1955 -0.6604 0.7250
vn -0.1106 0.7141 0.6912
vn 0.2039 0.6572 0.7256
vn 0.1960 0.6596 0.7256
vn -0.1106 0.7141 -0.6912
vn 0.1960 0.6596 -0.7256
vn 0.2039 0.6572 -0.7256
vn -0.4861 -0.5396 -0.6874
vn -0.4861 -0.5396 0.6874
vn 0.4916 0.5357 0.6866
vn 0.4916 0.5357 -0.6866
vn 0.9887 0.1498 -0.0000
vn -0.7399 0.6727 -0.0000
vn -0.6917 -0.7144 -0.1059
vn -0.7250 -0.6604 0.1955
vn -0.7249 -0.6583 0.2029
vn 0.6917 -0.7144 -0.1059
vn 0.7249 -0.6583 0.2029
vn 0.7250 -0.6604 0.1955
vn 0.6912 0.7141 0.1106
vn 0.7256 0.6572 -0.2039
vn 0.7256 0.6596 -0.1960
vn -0.6912 0.7141 0.1106
vn -0.7256 0.6596 -0.1960
vn -0.7256 0.6572 -0.2039
vn -0.6874 -0.5396 0.4861
vn 0.6874 -0.5396 0.4861
vn 0.6866 0.5357 -0.4916
vn -0.6866 0.5357 -0.4916
vn -0.0000 0.1498 -0.9887
vn -0.0000 0.6727 0.7399
vt 0.203613 0.844238
vt 0.208659 0.844238
vt 0.208659 0.874512
vt 0.203613 0.874512
vt 0.213704 0.844238
vt 0.213704 0.874512
vt 0.218750 0.844238
vt 0.218750 0.874512
vt 0.223796 0.844238
vt 0.223796 0.874512
vt 0.228841 0.844238
vt 0.228841 0.874512
vt 0.233887 0.844238
vt 0.233887 0.874512
vt 0.233887 0.859375
vt 0.226318 0.874512
vt 0.211182 0.874512
vt 0.203613 0.859375
vt 0.211182 0.844238
vt 0.226318 0.844238
vt 0.233887 0.847266
vt 0.203613 0.847266
vt 0.207246 0.844238
vt 0.207246 0.847871
vt 0.203613 0.847871
vt 0.208659 0.855838
vt 0.203613 0.855838
vt 0.213704 0.855838
vt 0.218750 0.855838
vt 0.223796 0.855838
vt 0.228841 0.855838
vt 0.233887 0.855838
vt 0.208659 0.856953
vt 0.203613 0.856953
vt 0.213704 0.856953
vt 0.218750 0.856953
vt 0.223796 0.856953
vt 0.228841 0.856953
vt 0.233887 0.856953
vt 0.208659 0.858084
vt 0.203613 0.858084
vt 0.213704 0.858084
vt 0.218750 0.858084
vt 0.223796 0.858084
vt 0.228841 0.858084
vt 0.233887 0.858084
vt 0.208659 0.872583
vt 0.203613 0.872583
vt 0.213704 0.872583
vt 0.218750 0.872583
vt 0.223796 0.872583
vt 0.228841 0.872583
vt 0.233887 0.872583
vt 0.208659 0.873677
vt 0.203613 0.873677
vt 0.213704 0.873677
vt 0.218750 0.873677
vt 0.223796 0.873677
vt 0.228841 0.873677
vt 0.233887 0.873677
vt 0.206136 0.874512
vt 0.216227 0.874512
vt 0.221273 0.874512
vt 0.231364 0.874512
vt 0.211182 0.859375
vt 0.218750 0.859375
vt 0.226318 0.859375
vt 0.391113 0.844238
vt 0.396159 0.844238
vt 0.396159 0.874512
vt 0.391113 0.874512
vt 0.401204 0.844238
vt 0.401204 0.874512
vt 0.406250 0.844238
vt 0.406250 0.874512
vt 0.411296 0.844238
vt 0.411296 0.874512
vt 0.416341 0.844238
vt 0.416341 0.874512
vt 0.421387 0.844238
vt 0.421387 0.874512
vt 0.421387 0.859375
vt 0.413818 0.874512
vt 0.398682 0.874512
vt 0.391113 0.859375
vt 0.398682 0.844238
vt 0.413818 0.844238
vt 0.657593 0.859863
vt 0.658447 0.863582
vt 0.656738 0.863582
vt 0.659302 0.859863
vt 0.660156 0.863582
vt 0.661011 0.859863
vt 0.661865 0.863582
vt 0.662720 0.859863
vt 0.663574 0.863582
vt 0.658447 0.867858
vt 0.656738 0.867858
vt 0.660156 0.867858
vt 0.661865 0.867858
vt 0.663574 0.867858
vt 0.657593 0.874512
vt 0.659302 0.874512
vt 0.661011 0.874512
vt 0.662720 0.874512
s 1
usemtl props
f 12/1/1 1/2/2 2/3/2 3/4/1
f 1/2/2 4/5/3 5/6/3 2/3/2
f 4/5/3 11/7/4 8/8/4 5/6/3
f 11/7/4 6/9/5 7/10/5 8/8/4
f 6/9/5 9/11/6 10/12/6 7/10/5
f 9/11/6 12/13/1 3/14/1 10/12/6
s 0
f 3/15/7 2/16/7 5/17/7 8/18/7 7/19/7 10/20/7
f 9/16/8 6/17/8 11/18/8 4/19/8 1/20/8 12/15/8
f 14/1/9 20/13/9 16/21/9 17/22/9
f 19/1/10 13/13/10 15/21/10 18/22/10
f 13/1/11 14/23/11 17/24/11 15/25/11
f 20/1/12 19/23/12 18/24/12 16/25/12
f 17/1/7 16/13/7 18/21/7 15/22/7
f 13/1/8 19/13/8 20/21/8 14/22/8
f 24/1/13 26/13/13 27/21/13 28/22/13
f 21/1/14 22/13/14 25/21/14 23/22/14
f 22/1/15 24/23/15 28/24/15 25/25/15
f 26/1/16 21/23/16 23/24/16 27/25/16
f 28/1/7 27/13/7 23/21/7 25/22/7
f 22/1/8 21/13/8 26/21/8 24/22/8
f 30/1/17 32/13/17 36/21/17 35/22/17
f 33/1/18 29/13/18 31/21/18 34/22/18
f 29/1/19 30/23/19 35/24/19 31/25/19
f 32/1/20 33/23/20 34/24/20 36/25/20
f 35/1/7 36/13/7 34/21/7 31/22/7
f 29/1/8 33/13/8 32/21/8 30/22/8
s 1
f 73/1/21 37/2/21 39/26/22 50/27/22
f 37/2/23 38/5/23 40/28/24 39/26/24
f 38/5/25 41/7/25 42/29/26 40/28/26
f 41/7/27 43/9/27 47/30/28 42/29/28
f 43/9/29 72/11/29 44/31/30 47/30/30
f 72/11/31 73/13/31 50/32/32 44/31/32
f 50/27/22 39/26/22 45/33/33 53/34/33
f 39/26/24 40/28/24 52/35/34 45/33/34
f 40/28/26 42/29/26 46/36/35 52/35/35
f 42/29/28 47/30/28 48/37/36 46/36/36
f 47/30/30 44/31/30 49/38/37 48/37/37
f 44/31/32 50/32/32 53/39/38 49/38/38
f 53/34/33 45/33/33 54/40/39 51/41/39
f 45/33/34 52/35/34 55/42/40 54/40/40
f 52/35/35 46/36/35 56/43/41 55/42/41
f 46/36/36 48/37/36 59/44/42 56/43/42
f 48/37/37 49/38/37 60/45/43 59/44/43
f 49/38/38 53/39/38 51/46/44 60/45/44
f 51/41/39 54/40/39 62/47/45 65/48/45
f 54/40/40 55/42/40 58/49/46 62/47/46
f 55/42/41 56/43/41 57/50/47 58/49/47
f 56/43/42 59/44/42 64/51/48 57/50/48
f 59/44/43 60/45/43 61/52/49 64/51/49
f 60/45/44 51/46/44 65/53/50 61/52/50
f 65/48/45 62/47/45 67/54/51 66/55/51
f 62/47/46 58/49/46 68/56/52 67/54/52
f 58/49/47 57/50/47 63/57/53 68/56/53
f 57/50/48 64/51/48 69/58/54 63/57/54
f 64/51/49 61/52/49 70/59/55 69/58/55
f 61/52/50 65/53/50 66/60/56 70/59/56
f 66/55/57 67/54/58 71/61/7
f 67/54/58 68/56/59 71/17/7
f 68/56/59 63/57/60 71/62/7
f 63/57/60 69/58/61 71/63/7
f 69/58/61 70/59/62 71/16/7
f 70/59/62 66/60/57 71/64/7
s 0
f 72/16/8 43/17/8 41/18/8 38/19/8 37/20/8 73/15/8
s 1
f 164/1/63 74/19/63 78/65/64 83/18/65
f 74/19/66 75/7/66 79/66/67 78/65/68
f 75/7/69 77/20/69 76/67/70 79/66/71
f 77/20/72 164/13/72 83/15/73 76/67/74
f 83/18/65 78/65/64 81/17/75 84/4/75
f 78/65/68 79/66/67 80/8/76 81/17/76
f 79/66/71 76/67/70 82/16/77 80/8/77
f 76/67/74 83/15/73 84/14/78 82/16/78
s 0
f 77/8/79 75/18/79 74/7/79 164/15/79
f 84/18/80 81/7/80 80/15/80 82/8/80
s 1
f 85/1/13 96/2/13 95/3/13 86/4/13
f 96/2/10 87/5/10 89/6/10 95/3/10
f 87/5/17 88/7/17 91/8/17 89/6/17
f 88/7/14 90/9/14 93/10/14 91/8/14
f 90/9/9 92/11/9 94/12/9 93/10/9
f 92/11/18 85/13/18 86/14/18 94/12/18
s 0
f 86/15/7 95/16/7 89/17/7 91/18/7 93/19/7 94/20/7
f 92/16/8 90/17/8 88/18/8 87/19/8 96/20/8 85/15/8
s 1
f 97/68/13 108/69/13 99/70/13 104/71/13
f 108/69/10 100/72/10 98/73/10 99/70/10
f 100/72/17 101/74/17 105/75/17 98/73/17
f 101/74/14 102/76/14 103/77/14 105/75/14
f 102/76/9 107/78/9 106/79/9 103/77/9
f 107/78/18 97/80/18 104/81/18 106/79/18
s 0
f 104/82/7 99/83/7 98/84/7 105/85/7 103/86/7 106/87/7
f 107/83/8 102/84/8 101/85/8 100/86/8 108/87/8 97/82/8
s 1
f 109/88/81 113/89/82 112/90/82
f 109/91/83 110/92/84 113/89/84
f 109/93/85 111/94/86 110/92/86
f 109/95/87 112/96/88 111/94/88
f 112/90/82 113/89/82 115/97/89 118/98/89
f 113/89/84 110/92/84 114/99/90 115/97/90
f 110/92/86 111/94/86 116/100/91 114/99/91
f 111/94/88 112/96/88 118/101/92 116/100/92
f 118/98/89 115/97/89 117/102/93
f 115/97/90 114/99/90 117/103/94
f 114/99/91 116/100/91 117/104/95
f 116/100/92 118/101/92 117/105/96
f 212/1/97 119/19/97 123/65/98 127/18/99
f 119/19/100 120/7/100 124/66/101 123/65/102
f 120/7/103 122/20/103 121/67/104 124/66/105
f 122/20/106 212/13/106 127/15/107 121/67/108
f 127/18/99 123/65/98 129/17/109 128/4/109
f 123/65/102 124/66/101 126/8/110 129/17/110
f 124/66/105 121/67/104 125/16/111 126/8/111
f 121/67/108 127/15/107 128/14/112 125/16/112
s 0
f 122/8/113 120/18/113 119/7/113 212/15/113
f 128/18/114 129/7/114 126/15/114 125/8/114
s 1
f 136/1/13 130/2/13 138/3/13 137/4/13
f 130/2/10 131/5/10 132/6/10 138/3/10
f 131/5/17 141/7/17 139/8/17 132/6/17
f 141/7/14 134/9/14 133/10/14 139/8/14
f 134/9/9 140/11/9 135/12/9 133/10/9
f 140/11/18 136/13/18 137/14/18 135/12/18
s 0
f 137/15/7 138/16/7 132/17/7 139/18/7 133/19/7 135/20/7
f 140/16/8 134/17/8 141/18/8 131/19/8 130/20/8 136/15/8
s 1
f 153/68/13 143/69/13 144/70/13 142/71/13
f 143/69/10 145/72/10 151/73/10 144/70/10
f 145/72/17 152/74/17 146/75/17 151/73/17
f 152/74/14 147/76/14 149/77/14 146/75/14
f 147/76/9 150/78/9 148/79/9 149/77/9
f 150/78/18 153/80/18 142/81/18 148/79/18
s 0
f 142/82/7 144/83/7 151/84/7 146/85/7 149/86/7 148/87/7
f 150/83/8 147/84/8 152/85/8 145/86/8 143/87/8 153/82/8
s 1
f 155/88/81 156/89/82 154/90/82
f 155/91/83 157/92/84 156/89/84
f 155/93/85 159/94/86 157/92/86
f 155/95/87 154/96/88 159/94/88
f 154/90/82 156/89/82 161/97/89 163/98/89
f 156/89/84 157/92/84 162/99/90 161/97/90
f 157/92/86 159/94/86 158/100/91 162/99/91
f 159/94/88 154/96/88 163/101/92 158/100/92
f 163/98/89 161/97/89 160/102/93
f 161/97/90 162/99/90 160/103/94
f 162/99/91 158/100/91 160/104/95
f 158/100/92 163/101/92 160/105/96
f 75/1/115 172/19/115 167/65/116 165/18/117
f 172/19/118 164/7/118 168/66/119 167/65/120
f 164/7/121 171/20/121 166/67/122 168/66/123
f 171/20/124 75/13/124 165/15/125 166/67/126
f 165/18/117 167/65/116 174/17/127 173/4/127
f 167/65/120 168/66/119 169/8/128 174/17/128
f 168/66/123 166/67/122 170/16/129 169/8/129
f 166/67/126 165/15/125 173/14/130 170/16/130
s 0
f 171/8/131 164/18/131 172/7/131 75/15/131
f 173/18/132 174/7/132 169/15/132 170/8/132
s 1
f 181/1/13 175/2/13 183/3/13 182/4/13
f 175/2/10 176/5/10 177/6/10 183/3/10
f 176/5/17 178/7/17 184/8/17 177/6/17
f 178/7/14 186/9/14 185/10/14 184/8/14
f 186/9/9 179/11/9 180/12/9 185/10/9
f 179/11/18 181/13/18 182/14/18 180/12/18
s 0
f 182/15/7 183/16/7 177/17/7 184/18/7 185/19/7 180/20/7
f 179/16/8 186/17/8 178/18/8 176/19/8 175/20/8 181/15/8
s 1
f 187/68/13 188/69/13 195/70/13 194/71/13
f 188/69/10 189/72/10 196/73/10 195/70/10
f 189/72/17 191/74/17 190/75/17 196/73/17
f 191/74/14 198/76/14 192/77/14 190/75/14
f 198/76/9 193/78/9 197/79/9 192/77/9
f 193/78/18 187/80/18 194/81/18 197/79/18
s 0
f 194/82/7 195/83/7 196/84/7 190/85/7 192/86/7 197/87/7
f 193/83/8 198/84/8 191/85/8 189/86/8 188/87/8 187/82/8
s 1
f 199/88/81 203/89/82 206/90/82
f 199/91/83 204/92/84 203/89/84
f 199/93/85 200/94/86 204/92/86
f 199/95/87 206/96/88 200/94/88
f 206/90/82 203/89/82 201/97/89 202/98/89
f 203/89/84 204/92/84 207/99/90 201/97/90
f 204/92/86 200/94/86 205/100/91 207/99/91
f 200/94/88 206/96/88 202/101/92 205/100/92
f 202/98/89 201/97/89 208/102/93
f 201/97/90 207/99/90 208/103/94
f 207/99/91 205/100/91 208/104/95
f 205/100/92 202/101/92 208/105/96
f 120/1/133 209/19/133 210/65/134 211/18/135
f 209/19/136 212/7/136 215/66/137 210/65/138
f 212/7/139 217/20/139 213/67/140 215/66/141
f 217/20/142 120/13/142 211/15/143 213/67/144
f 211/18/135 210/65/134 214/17/145 218/4/145
f 210/65/138 215/66/137 216/8/146 214/17/146
f 215/66/141 213/67/140 219/16/147 216/8/147
f 213/67/144 211/15/143 218/14/148 219/16/148
s 0
f 217/8/149 212/18/149 209/7/149 120/15/149
f 218/18/150 214/7/150 216/15/150 219/8/150
s 1
f 228/1/13 220/2/13 223/3/13 229/4/13
f 220/2/10 221/5/10 222/6/10 223/3/10
f 221/5/17 224/7/17 225/8/17 222/6/17
f 224/7/14 226/9/14 227/10/14 225/8/14
f 226/9/9 231/11/9 230/12/9 227/10/9
f 231/11/18 228/13/18 229/14/18 230/12/18
s 0
f 229/15/7 223/16/7 222/17/7 225/18/7 227/19/7 230/20/7
f 231/16/8 226/17/8 224/18/8 221/19/8 220/20/8 228/15/8
s 1
f 239/68/13 243/69/13 232/70/13 233/71/13
f 243/69/10 242/72/10 234/73/10 232/70/10
f 242/72/17 235/74/17 240/75/17 234/73/17
f 235/74/14 241/76/14 237/77/14 240/75/14
f 241/76/9 238/78/9 236/79/9 237/77/9
f 238/78/18 239/80/18 233/81/18 236/79/18
s 0
f 233/82/7 232/83/7 234/84/7 240/85/7 237/86/7 236/87/7
f 238/83/8 241/84/8 235/85/8 242/86/8 243/87/8 239/82/8
s 1
f 246/88/81 248/89/82 247/90/82
f 246/91/83 245/92/84 248/89/84
f 246/93/85 244/94/86 245/92/86
f 246/95/87 247/96/88 244/94/88
f 247/90/82 248/89/82 249/97/89 250/98/89
f 248/89/84 245/92/84 251/99/90 249/97/90
f 245/92/86 244/94/86 252/100/91 251/99/91
f 244/94/88 247/96/88 250/101/92 252/100/92
f 250/98/89 249/97/89 253/102/93
f 249/97/90 251/99/90 253/103/94
f 251/99/91 252/100/91 253/104/95
f 252/100/92 250/101/92 253/105/96
f 265/68/13 254/69/13 262/70/13 260/71/13
f 254/69/10 255/72/10 256/73/10 262/70/10
f 255/72/17 264/74/17 263/75/17 256/73/17
f 264/74/14 257/76/14 259/77/14 263/75/14
f 257/76/9 258/78/9 261/79/9 259/77/9
f 258/78/18 265/80/18 260/81/18 261/79/18
s 0
f 260/82/7 262/83/7 256/84/7 263/85/7 259/86/7 261/87/7
f 258/83/8 257/84/8 264/85/8 255/86/8 254/87/8 265/82/8
s 1
f 266/88/81 269/89/82 273/90/82
f 266/91/83 271/92/84 269/89/84
f 266/93/85 267/94/86 271/92/86
f 266/95/87 273/96/88 267/94/88
f 273/90/82 269/89/82 268/97/89 274/98/89
f 269/89/84 271/92/84 270/99/90 268/97/90
f 271/92/86 267/94/86 272/100/91 270/99/91
f 267/94/88 273/96/88 274/101/92 272/100/92
f 274/98/89 268/97/89 275/102/93
f 268/97/90 270/99/90 275/103/94
f 270/99/91 272/100/91 275/104/95
f 272/100/92 274/101/92 275/105/96
