# Blender 4.5.14 LTS
# www.blender.org
mtllib cradle.mtl
o cradle
v -0.244564 0.028653 0.395000 0.7529 0.7529 0.7529
v -0.240000 0.048125 0.375000 0.7882 0.7882 0.7882
v -0.320000 0.070000 0.375000 0.8431 0.8431 0.8431
v -0.314725 0.089292 0.395000 0.8862 0.8862 0.8862
v -0.320000 0.070000 0.415000 0.8627 0.8627 0.8627
v -0.163088 0.012740 0.395000 0.7451 0.7451 0.7451
v -0.160000 0.032500 0.375000 0.7647 0.7647 0.7647
v -0.235436 0.067597 0.395000 0.8353 0.8353 0.8353
v -0.240000 0.048125 0.415000 0.8117 0.8117 0.8117
v -0.156912 0.052260 0.395000 0.8039 0.8039 0.8039
v -0.080000 0.023125 0.415000 0.7960 0.7960 0.7960
v -0.160000 0.032500 0.415000 0.7960 0.7960 0.7960
v -0.078442 0.043064 0.395000 0.7921 0.7921 0.7921
v -0.081558 0.003186 0.395000 0.7412 0.7412 0.7412
v 0.000000 0.020000 0.415000 0.7960 0.7960 0.7960
v -0.080000 0.023125 0.375000 0.7568 0.7568 0.7568
v 0.000000 0.020000 0.375000 0.7529 0.7529 0.7529
v 0.000000 0.040000 0.395000 0.7921 0.7921 0.7921
v 0.081558 0.003186 0.395000 0.7412 0.7412 0.7412
v 0.000000 0.000000 0.395000 0.7412 0.7412 0.7412
v 0.080000 0.023125 0.375000 0.7608 0.7608 0.7608
v 0.080000 0.023125 0.415000 0.8000 0.8000 0.8000
v 0.160000 0.032500 0.375000 0.7686 0.7686 0.7686
v 0.163088 0.012740 0.395000 0.7451 0.7451 0.7451
v 0.078442 0.043064 0.395000 0.7960 0.7960 0.7960
v 0.235436 0.067597 0.395000 0.8313 0.8313 0.8313
v 0.240000 0.048125 0.375000 0.7882 0.7882 0.7882
v 0.156912 0.052260 0.395000 0.8039 0.8039 0.8039
v 0.160000 0.032500 0.415000 0.8078 0.8078 0.8078
v 0.240000 0.048125 0.415000 0.8196 0.8196 0.8196
v 0.244564 0.028653 0.395000 0.7568 0.7568 0.7568
v 0.325275 0.050708 0.395000 0.8078 0.8078 0.8078
v 0.314725 0.089292 0.395000 0.8902 0.8902 0.8902
v -0.325275 0.050708 0.395000 0.8078 0.8078 0.8078
v 0.320000 0.070000 0.415000 0.8666 0.8666 0.8666
v 0.320000 0.070000 0.375000 0.8509 0.8509 0.8509
v -0.325275 0.050708 -0.395000 0.8078 0.8078 0.8078
v -0.320000 0.070000 -0.415000 0.8588 0.8588 0.8588
v -0.314725 0.089292 -0.395000 0.8902 0.8902 0.8902
v -0.320000 0.070000 -0.375000 0.8470 0.8470 0.8470
v -0.240000 0.048125 -0.375000 0.7843 0.7843 0.7843
v -0.244564 0.028653 -0.395000 0.7529 0.7529 0.7529
v -0.240000 0.048125 -0.415000 0.8196 0.8196 0.8196
v -0.163088 0.012740 -0.395000 0.7412 0.7412 0.7412
v -0.160000 0.032500 -0.415000 0.8078 0.8078 0.8078
v -0.235436 0.067597 -0.395000 0.8313 0.8313 0.8313
v -0.160000 0.032500 -0.375000 0.7529 0.7529 0.7529
v -0.081558 0.003186 -0.395000 0.7372 0.7372 0.7372
v -0.156912 0.052260 -0.395000 0.8000 0.8000 0.8000
v -0.080000 0.023125 -0.375000 0.7412 0.7412 0.7412
v 0.000000 0.020000 -0.375000 0.7412 0.7412 0.7412
v -0.080000 0.023125 -0.415000 0.8078 0.8078 0.8078
v 0.000000 0.000000 -0.395000 0.7372 0.7372 0.7372
v 0.000000 0.020000 -0.415000 0.8039 0.8039 0.8039
v -0.078442 0.043064 -0.395000 0.7921 0.7921 0.7921
v 0.081558 0.003186 -0.395000 0.7372 0.7372 0.7372
v 0.000000 0.040000 -0.395000 0.7921 0.7921 0.7921
v 0.160000 0.032500 -0.375000 0.7647 0.7647 0.7647
v 0.080000 0.023125 -0.415000 0.8078 0.8078 0.8078
v 0.160000 0.032500 -0.415000 0.8117 0.8117 0.8117
v 0.078442 0.043064 -0.395000 0.7960 0.7960 0.7960
v 0.080000 0.023125 -0.375000 0.7490 0.7490 0.7490
v 0.244564 0.028653 -0.395000 0.7529 0.7529 0.7529
v 0.163088 0.012740 -0.395000 0.7451 0.7451 0.7451
v 0.240000 0.048125 -0.415000 0.8235 0.8235 0.8235
v 0.156912 0.052260 -0.395000 0.8039 0.8039 0.8039
v 0.325275 0.050708 -0.395000 0.8078 0.8078 0.8078
v 0.235436 0.067597 -0.395000 0.8274 0.8274 0.8274
v 0.240000 0.048125 -0.375000 0.7882 0.7882 0.7882
v 0.314725 0.089292 -0.395000 0.8941 0.8941 0.8941
v 0.320000 0.070000 -0.375000 0.8509 0.8509 0.8509
v 0.320000 0.070000 -0.415000 0.8706 0.8706 0.8706
v 0.250000 0.135000 -0.475000 0.8274 0.8274 0.8274
v -0.250000 0.135000 -0.475000 0.8274 0.8274 0.8274
v -0.250000 0.165000 0.475000 0.7020 0.7020 0.7020
v 0.250000 0.165000 -0.475000 0.7020 0.7020 0.7020
v 0.250000 0.165000 0.475000 0.7020 0.7020 0.7020
v -0.250000 0.165000 -0.475000 0.7020 0.7020 0.7020
v 0.250000 0.135000 0.475000 0.8313 0.8313 0.8313
v -0.250000 0.135000 0.475000 0.8313 0.8313 0.8313
v -0.262500 0.150000 0.475000 0.8470 0.8470 0.8470
v -0.262500 0.550000 -0.475000 0.9411 0.9411 0.9411
v -0.262500 0.150000 -0.475000 0.8431 0.8431 0.8431
v -0.237500 0.150000 -0.475000 0.7020 0.7020 0.7020
v -0.237500 0.550000 -0.475000 0.7059 0.7059 0.7059
v -0.237500 0.550000 0.475000 0.9804 0.9804 0.9804
v -0.262500 0.550000 0.475000 1.0000 1.0000 1.0000
v -0.237500 0.150000 0.475000 0.7294 0.7294 0.7294
v 0.237500 0.150000 0.475000 0.7294 0.7294 0.7294
v 0.262500 0.150000 0.475000 0.8431 0.8431 0.8431
v 0.262500 0.550000 0.475000 0.9960 0.9960 0.9960
v 0.262500 0.550000 -0.475000 0.9372 0.9372 0.9372
v 0.237500 0.150000 -0.475000 0.7020 0.7020 0.7020
v 0.237500 0.550000 -0.475000 0.7020 0.7020 0.7020
v 0.237500 0.550000 0.475000 0.9804 0.9804 0.9804
v 0.262500 0.150000 -0.475000 0.8431 0.8431 0.8431
v -0.250000 0.150000 -0.490000 0.8470 0.8470 0.8470
v -0.250000 0.650000 -0.460000 0.9411 0.9411 0.9411
v 0.250000 0.150000 -0.460000 0.7020 0.7020 0.7020
v 0.250000 0.650000 -0.460000 0.9411 0.9411 0.9411
v 0.250000 0.650000 -0.490000 0.9960 0.9960 0.9960
v -0.250000 0.650000 -0.490000 0.9960 0.9960 0.9960
v 0.250000 0.150000 -0.490000 0.8470 0.8470 0.8470
v -0.250000 0.150000 -0.460000 0.7020 0.7020 0.7020
v -0.250000 0.505000 0.460000 0.7020 0.7020 0.7020
v -0.250000 0.155000 0.460000 0.7020 0.7020 0.7020
v 0.250000 0.155000 0.490000 0.8470 0.8470 0.8470
v 0.250000 0.155000 0.460000 0.7020 0.7020 0.7020
v 0.250000 0.505000 0.460000 0.7020 0.7020 0.7020
v 0.250000 0.505000 0.490000 0.9607 0.9607 0.9607
v -0.250000 0.505000 0.490000 0.9607 0.9607 0.9607
v -0.250000 0.155000 0.490000 0.8470 0.8470 0.8470
v 0.220000 0.170000 0.445000 0.7020 0.7020 0.7020
v 0.220000 0.170000 -0.445000 0.7020 0.7020 0.7020
v -0.220000 0.170000 -0.445000 0.7020 0.7020 0.7020
v -0.220000 0.230000 -0.445000 0.7255 0.7255 0.7255
v -0.220000 0.230000 0.445000 0.7294 0.7294 0.7294
v 0.220000 0.230000 0.445000 0.7294 0.7294 0.7294
v 0.220000 0.230000 -0.445000 0.7294 0.7294 0.7294
v -0.220000 0.170000 0.445000 0.7020 0.7020 0.7020
v -0.250000 0.769419 -0.130908 0.9882 0.9882 0.9882
v 0.250000 0.639629 -0.456568 0.8706 0.8706 0.8706
v 0.250000 0.769419 -0.130908 0.9921 0.9921 0.9921
v 0.250000 0.621502 -0.448116 0.9019 0.9019 0.9019
v 0.250000 0.787545 -0.139361 1.0000 1.0000 1.0000
v -0.250000 0.787545 -0.139361 1.0000 1.0000 1.0000
v -0.250000 0.639629 -0.456568 0.8706 0.8706 0.8706
v -0.250000 0.621502 -0.448116 0.9019 0.9019 0.9019
vn -0.1865 -0.6822 0.7070
vn -0.1611 -0.6885 0.7072
vn -0.1865 -0.6822 -0.7070
vn -0.1611 -0.6885 -0.7072
vn 0.1866 0.6822 -0.7070
vn 0.1611 0.6884 -0.7072
vn 0.1612 0.6884 -0.7072
vn 0.1866 0.6822 0.7070
vn 0.1612 0.6884 0.7072
vn 0.1611 0.6884 0.7072
vn -0.1090 -0.6987 0.7071
vn -0.1090 -0.6987 -0.7071
vn 0.1090 0.6987 -0.7071
vn 0.1090 0.6987 0.7071
vn -0.0550 -0.7050 0.7071
vn -0.0550 -0.7050 -0.7071
vn 0.0550 0.7050 -0.7071
vn 0.0550 0.7050 0.7071
vn -0.0000 -0.7071 0.7071
vn -0.0000 -0.7071 -0.7071
vn -0.0000 0.7071 -0.7071
vn -0.0000 0.7071 0.7071
vn 0.0550 -0.7050 0.7071
vn 0.0550 -0.7050 -0.7071
vn -0.0550 0.7050 -0.7071
vn -0.0550 0.7050 0.7071
vn 0.1090 -0.6987 0.7071
vn 0.1090 -0.6987 -0.7071
vn -0.1090 0.6987 -0.7071
vn -0.1090 0.6987 0.7071
vn 0.1611 -0.6885 0.7072
vn 0.1611 -0.6885 -0.7072
vn -0.1611 0.6884 -0.7072
vn -0.1612 0.6884 -0.7072
vn -0.1612 0.6884 0.7072
vn -0.1611 0.6884 0.7072
vn 0.1865 -0.6822 0.7070
vn 0.1865 -0.6822 -0.7070
vn -0.1866 0.6822 -0.7070
vn -0.1866 0.6822 0.7070
vn -0.9646 0.2638 -0.0000
vn 0.9646 0.2638 -0.0000
vn -0.0000 -0.0000 1.0000
vn -0.0000 -0.0000 -1.0000
vn -1.0000 -0.0000 -0.0000
vn 1.0000 -0.0000 -0.0000
vn -0.0000 1.0000 -0.0000
vn -0.0000 -1.0000 -0.0000
vn -0.0000 0.4226 0.9063
vn -0.0000 -0.4226 -0.9063
vn -0.0000 0.9063 -0.4226
vn -0.0000 -0.9063 0.4226
vt 0.062988 0.812988
vt 0.078369 0.812988
vt 0.078369 0.820679
vt 0.062988 0.820679
vt 0.093750 0.812988
vt 0.093750 0.820679
vt 0.109131 0.812988
vt 0.109131 0.820679
vt 0.124512 0.812988
vt 0.124512 0.820679
vt 0.078369 0.828369
vt 0.062988 0.828369
vt 0.093750 0.828369
vt 0.109131 0.828369
vt 0.124512 0.828369
vt 0.078369 0.836060
vt 0.062988 0.836060
vt 0.093750 0.836060
vt 0.109131 0.836060
vt 0.124512 0.836060
vt 0.078369 0.843750
vt 0.062988 0.843750
vt 0.093750 0.843750
vt 0.109131 0.843750
vt 0.124512 0.843750
vt 0.078369 0.851440
vt 0.062988 0.851440
vt 0.093750 0.851440
vt 0.109131 0.851440
vt 0.124512 0.851440
vt 0.078369 0.859131
vt 0.062988 0.859131
vt 0.093750 0.859131
vt 0.109131 0.859131
vt 0.124512 0.859131
vt 0.078369 0.866821
vt 0.062988 0.866821
vt 0.093750 0.866821
vt 0.109131 0.866821
vt 0.124512 0.866821
vt 0.078369 0.874512
vt 0.062988 0.874512
vt 0.093750 0.874512
vt 0.109131 0.874512
vt 0.124512 0.874512
vt 0.124512 0.816680
vt 0.062988 0.816680
vt 0.124512 0.814931
vt 0.062988 0.814931
vt 0.095369 0.812988
vt 0.095369 0.874512
vt 0.500488 0.859863
vt 0.530762 0.859863
vt 0.530762 0.874512
vt 0.500488 0.874512
vt 0.064607 0.812988
vt 0.064607 0.874512
vt 0.066680 0.812988
vt 0.066680 0.874512
vt 0.124512 0.856055
vt 0.062988 0.856055
vt 0.066680 0.856055
vt 0.812988 0.937988
vt 0.867129 0.937988
vt 0.867129 0.945371
vt 0.812988 0.945371
vt 0.874512 0.937988
vt 0.874512 0.942136
vt 0.812988 0.942136
vt 0.843404 0.937988
vt 0.843404 0.999512
vt 0.812988 0.999512
vt 0.124512 0.815449
vt 0.062988 0.815449
vt 0.106055 0.812988
vt 0.106055 0.815449
s 1
usemtl props
f 5/1/1 34/2/1 1/3/2 9/4/2
f 34/2/3 3/5/3 2/6/4 1/3/4
f 3/5/5 4/7/5 8/8/6 2/6/7
f 4/7/8 5/9/8 9/10/9 8/8/10
f 9/4/2 1/3/2 6/11/11 12/12/11
f 1/3/4 2/6/4 7/13/12 6/11/12
f 2/6/7 8/8/6 10/14/13 7/13/13
f 8/8/10 9/10/9 12/15/14 10/14/14
f 12/12/11 6/11/11 14/16/15 11/17/15
f 6/11/12 7/13/12 16/18/16 14/16/16
f 7/13/13 10/14/13 13/19/17 16/18/17
f 10/14/14 12/15/14 11/20/18 13/19/18
f 11/17/15 14/16/15 20/21/19 15/22/19
f 14/16/16 16/18/16 17/23/20 20/21/20
f 16/18/17 13/19/17 18/24/21 17/23/21
f 13/19/18 11/20/18 15/25/22 18/24/22
f 15/22/19 20/21/19 19/26/23 22/27/23
f 20/21/20 17/23/20 21/28/24 19/26/24
f 17/23/21 18/24/21 25/29/25 21/28/25
f 18/24/22 15/25/22 22/30/26 25/29/26
f 22/27/23 19/26/23 24/31/27 29/32/27
f 19/26/24 21/28/24 23/33/28 24/31/28
f 21/28/25 25/29/25 28/34/29 23/33/29
f 25/29/26 22/30/26 29/35/30 28/34/30
f 29/32/27 24/31/27 31/36/31 30/37/31
f 24/31/28 23/33/28 27/38/32 31/36/32
f 23/33/29 28/34/29 26/39/33 27/38/34
f 28/34/30 29/35/30 30/40/35 26/39/36
f 30/37/31 31/36/31 32/41/37 35/42/37
f 31/36/32 27/38/32 36/43/38 32/41/38
f 27/38/34 26/39/33 33/44/39 36/43/39
f 26/39/36 30/40/35 35/45/40 33/44/40
s 0
f 4/43/41 3/22/41 34/5/41 5/25/41
f 35/22/42 32/5/42 36/25/42 33/43/42
s 1
f 40/1/1 37/2/1 42/3/2 41/4/2
f 37/2/3 38/5/3 43/6/4 42/3/4
f 38/5/5 39/7/5 46/8/6 43/6/7
f 39/7/8 40/9/8 41/10/9 46/8/10
f 41/4/2 42/3/2 44/11/11 47/12/11
f 42/3/4 43/6/4 45/13/12 44/11/12
f 43/6/7 46/8/6 49/14/13 45/13/13
f 46/8/10 41/10/9 47/15/14 49/14/14
f 47/12/11 44/11/11 48/16/15 50/17/15
f 44/11/12 45/13/12 52/18/16 48/16/16
f 45/13/13 49/14/13 55/19/17 52/18/17
f 49/14/14 47/15/14 50/20/18 55/19/18
f 50/17/15 48/16/15 53/21/19 51/22/19
f 48/16/16 52/18/16 54/23/20 53/21/20
f 52/18/17 55/19/17 57/24/21 54/23/21
f 55/19/18 50/20/18 51/25/22 57/24/22
f 51/22/19 53/21/19 56/26/23 62/27/23
f 53/21/20 54/23/20 59/28/24 56/26/24
f 54/23/21 57/24/21 61/29/25 59/28/25
f 57/24/22 51/25/22 62/30/26 61/29/26
f 62/27/23 56/26/23 64/31/27 58/32/27
f 56/26/24 59/28/24 60/33/28 64/31/28
f 59/28/25 61/29/25 66/34/29 60/33/29
f 61/29/26 62/30/26 58/35/30 66/34/30
f 58/32/27 64/31/27 63/36/31 69/37/31
f 64/31/28 60/33/28 65/38/32 63/36/32
f 60/33/29 66/34/29 68/39/33 65/38/34
f 66/34/30 58/35/30 69/40/35 68/39/36
f 69/37/31 63/36/31 67/41/37 71/42/37
f 63/36/32 65/38/32 72/43/38 67/41/38
f 65/38/34 68/39/33 70/44/39 72/43/39
f 68/39/36 69/40/35 71/45/40 70/44/40
s 0
f 39/43/41 38/22/41 37/5/41 40/25/41
f 71/22/42 67/5/42 72/25/42 70/43/42
f 80/1/43 79/9/43 77/46/43 75/47/43
f 73/1/44 74/9/44 78/46/44 76/47/44
f 74/1/45 80/9/45 75/48/45 78/49/45
f 79/1/46 73/9/46 76/48/46 77/49/46
f 75/1/47 77/50/47 76/51/47 78/42/47
f 74/1/48 73/50/48 79/51/48 80/42/48
f 81/52/43 88/53/43 86/54/43 87/55/43
f 84/52/44 83/53/44 82/54/44 85/55/44
f 83/52/45 81/53/45 87/54/45 82/55/45
f 88/52/46 84/53/46 85/54/46 86/55/46
f 87/1/47 86/56/47 85/57/47 82/42/47
f 83/1/48 84/56/48 88/57/48 81/42/48
f 89/52/43 90/53/43 91/54/43 95/55/43
f 96/52/44 93/53/44 94/54/44 92/55/44
f 93/52/45 89/53/45 95/54/45 94/55/45
f 90/52/46 96/53/46 92/54/46 91/55/46
f 95/1/47 91/56/47 92/57/47 94/42/47
f 93/1/48 96/56/48 90/57/48 89/42/48
f 104/1/43 99/9/43 100/45/43 98/42/43
f 103/1/44 97/9/44 102/45/44 101/42/44
f 97/1/45 104/58/45 98/59/45 102/42/45
f 99/1/46 103/58/46 101/59/46 100/42/46
f 98/1/47 100/9/47 101/46/47 102/47/47
f 97/1/48 103/9/48 99/46/48 104/47/48
f 112/1/43 107/9/43 110/60/43 111/61/43
f 108/1/44 106/9/44 105/60/44 109/61/44
f 106/1/45 112/58/45 111/62/45 105/61/45
f 107/1/46 108/58/46 109/62/46 110/61/46
f 111/1/47 110/9/47 109/46/47 105/47/47
f 106/1/48 108/9/48 107/46/48 112/47/48
f 120/63/43 113/64/43 118/65/43 117/66/43
f 114/63/44 115/64/44 116/65/44 119/66/44
f 115/63/45 120/67/45 117/68/45 116/69/45
f 113/63/46 114/67/46 119/68/46 118/69/46
f 117/63/47 118/70/47 119/71/47 116/72/47
f 115/63/48 114/70/48 113/71/48 120/72/48
f 121/1/49 123/9/49 125/73/49 126/74/49
f 124/1/50 128/9/50 127/73/50 122/74/50
f 128/1/45 121/75/45 126/76/45 127/74/45
f 123/1/46 124/75/46 122/76/46 125/74/46
f 126/1/51 125/9/51 122/60/51 127/61/51
f 128/1/52 124/9/52 123/60/52 121/61/52
