# Blender 4.5.14 LTS
# www.blender.org
mtllib door_panel.mtl
o door_panel
v -0.570000 0.000000 0.120000 0.8000 0.8000 0.8000
v -0.490000 0.000000 0.120000 0.7804 0.7804 0.7804
v -0.570000 2.270000 -0.120000 1.0000 1.0000 1.0000
v -0.570000 0.000000 -0.120000 0.8039 0.8039 0.8039
v -0.570000 2.270000 0.120000 1.0000 1.0000 1.0000
v -0.490000 2.270000 0.120000 0.8980 0.8980 0.8980
v -0.490000 2.270000 -0.120000 0.9019 0.9019 0.9019
v -0.490000 0.000000 -0.120000 0.7882 0.7882 0.7882
vn -0.0000 -0.0000 1.0000
vn -0.0000 -0.0000 -1.0000
vn -1.0000 -0.0000 -0.0000
vn 1.0000 -0.0000 -0.0000
vn -0.0000 1.0000 -0.0000
vn -0.0000 -1.0000 -0.0000
vt 0.000488 0.812988
vt 0.002657 0.812988
vt 0.002657 0.874512
vt 0.000488 0.874512
vt 0.006993 0.812988
vt 0.006993 0.874512
vt 0.010332 0.812988
vt 0.010332 0.842520
vt 0.000488 0.842520
s 0
usemtl props
f 1/1/1 2/2/1 6/3/1 5/4/1
f 8/1/2 4/2/2 3/3/2 7/4/2
f 4/1/3 1/5/3 5/6/3 3/4/3
f 2/1/4 8/5/4 7/6/4 6/4/4
f 5/1/5 6/7/5 7/8/5 3/9/5
f 4/1/6 8/7/6 2/8/6 1/9/6
o door_panel_casing_r
v 0.490000 0.000000 0.120000 0.7804 0.7804 0.7804
v 0.570000 0.000000 0.120000 0.8000 0.8000 0.8000
v 0.490000 2.270000 -0.120000 0.9019 0.9019 0.9019
v 0.490000 0.000000 -0.120000 0.7804 0.7804 0.7804
v 0.490000 2.270000 0.120000 0.9019 0.9019 0.9019
v 0.570000 2.270000 0.120000 1.0000 1.0000 1.0000
v 0.570000 2.270000 -0.120000 1.0000 1.0000 1.0000
v 0.570000 0.000000 -0.120000 0.8039 0.8039 0.8039
vn -0.0000 -0.0000 1.0000
vn -0.0000 -0.0000 -1.0000
vn -1.0000 -0.0000 -0.0000
vn 1.0000 -0.0000 -0.0000
vn -0.0000 1.0000 -0.0000
vn -0.0000 -1.0000 -0.0000
vt 0.000488 0.812988
vt 0.002657 0.812988
vt 0.002657 0.874512
vt 0.000488 0.874512
vt 0.006993 0.812988
vt 0.006993 0.874512
vt 0.010332 0.812988
vt 0.010332 0.842520
vt 0.000488 0.842520
s 0
usemtl props
f 9/10/7 10/11/7 14/12/7 13/13/7
f 16/10/8 12/11/8 11/12/8 15/13/8
f 12/10/9 9/14/9 13/15/9 11/13/9
f 10/10/10 16/14/10 15/15/10 14/13/10
f 13/10/11 14/16/11 15/17/11 11/18/11
f 12/10/12 16/16/12 10/17/12 9/18/12
o door_panel_casing_top
v -0.510000 2.190000 0.120000 0.8039 0.8039 0.8039
v 0.510000 2.190000 0.120000 0.8000 0.8000 0.8000
v -0.510000 2.260000 -0.120000 0.8000 0.8000 0.8000
v -0.510000 2.190000 -0.120000 0.8039 0.8039 0.8039
v -0.510000 2.260000 0.120000 0.8000 0.8000 0.8000
v 0.510000 2.260000 0.120000 0.8000 0.8000 0.8000
v 0.510000 2.260000 -0.120000 0.8000 0.8000 0.8000
v 0.510000 2.190000 -0.120000 0.8039 0.8039 0.8039
vn -0.0000 -0.0000 1.0000
vn -0.0000 -0.0000 -1.0000
vn -1.0000 -0.0000 -0.0000
vn 1.0000 -0.0000 -0.0000
vn -0.0000 1.0000 -0.0000
vn -0.0000 -1.0000 -0.0000
vt 0.000488 0.812988
vt 0.062012 0.812988
vt 0.062012 0.817210
vt 0.000488 0.817210
vt 0.030020 0.812988
vt 0.030020 0.821602
vt 0.000488 0.821602
vt 0.062012 0.827464
vt 0.000488 0.827464
s 0
usemtl props
f 17/19/13 18/20/13 22/21/13 21/22/13
f 24/19/14 20/20/14 19/21/14 23/22/14
f 20/19/15 17/23/15 21/24/15 19/25/15
f 18/19/16 24/23/16 23/24/16 22/25/16
f 21/19/17 22/20/17 23/26/17 19/27/17
f 20/19/18 24/20/18 18/26/18 17/27/18
o door_panel_leaf
v -0.480000 0.010000 -0.030000 0.7372 0.7372 0.7372
v -0.480000 2.190000 -0.030000 0.7372 0.7372 0.7372
v 0.480000 2.190000 -0.030000 0.7372 0.7372 0.7372
v -0.480000 0.010000 0.030000 0.7333 0.7333 0.7333
v 0.480000 0.010000 0.030000 0.7333 0.7333 0.7333
v 0.480000 0.010000 -0.030000 0.7294 0.7294 0.7294
v 0.480000 2.190000 0.030000 0.7412 0.7412 0.7412
v -0.480000 2.190000 0.030000 0.7372 0.7372 0.7372
v 0.424749 0.975251 0.022000 0.7020 0.7020 0.7020
v 0.435000 1.000000 0.022000 0.7020 0.7020 0.7020
v 0.375251 0.975251 0.030000 0.7804 0.7804 0.7804
v 0.400000 0.965000 0.022000 0.7059 0.7059 0.7059
v 0.375251 0.975251 0.022000 0.7137 0.7137 0.7137
v 0.365000 1.000000 0.030000 0.7843 0.7843 0.7843
v 0.375251 1.024749 0.030000 0.7804 0.7804 0.7804
v 0.400000 1.035000 0.022000 0.7098 0.7098 0.7098
v 0.375251 1.024749 0.022000 0.7137 0.7137 0.7137
v 0.424749 1.024749 0.022000 0.7020 0.7020 0.7020
v 0.435000 1.000000 0.030000 0.7529 0.7529 0.7529
v 0.365000 1.000000 0.022000 0.7137 0.7137 0.7137
v 0.424749 1.024749 0.030000 0.7608 0.7608 0.7608
v 0.400000 1.035000 0.030000 0.7686 0.7686 0.7686
v 0.400000 0.965000 0.030000 0.7647 0.7647 0.7647
v 0.424749 0.975251 0.030000 0.7529 0.7529 0.7529
v 0.406000 0.989608 0.038000 0.7255 0.7255 0.7255
v 0.394000 0.989608 0.038000 0.7529 0.7529 0.7529
v 0.388000 1.000000 0.038000 0.7608 0.7608 0.7608
v 0.394000 1.010392 0.038000 0.7490 0.7490 0.7490
v 0.412000 1.000000 -0.002000 0.7020 0.7020 0.7020
v 0.406000 1.010392 -0.002000 0.7020 0.7020 0.7020
v 0.406000 0.989608 -0.002000 0.7059 0.7059 0.7059
v 0.394000 0.989608 -0.002000 0.7176 0.7176 0.7176
v 0.388000 1.000000 -0.002000 0.7176 0.7176 0.7176
v 0.394000 1.010392 -0.002000 0.7137 0.7137 0.7137
v 0.406000 1.010392 0.038000 0.7255 0.7255 0.7255
v 0.412000 1.000000 0.038000 0.7059 0.7059 0.7059
v 0.419799 0.980201 0.075000 0.8509 0.8509 0.8509
v 0.419799 0.980201 0.045000 0.7451 0.7451 0.7451
v 0.400000 0.972000 0.075000 0.8823 0.8823 0.8823
v 0.380201 0.980201 0.075000 0.8980 0.8980 0.8980
v 0.400000 0.972000 0.045000 0.7764 0.7764 0.7764
v 0.372000 1.000000 0.045000 0.8039 0.8039 0.8039
v 0.372000 1.000000 0.075000 0.9019 0.9019 0.9019
v 0.400000 1.028000 0.045000 0.7725 0.7725 0.7725
v 0.400000 1.028000 0.075000 0.8823 0.8823 0.8823
v 0.419799 1.019799 0.075000 0.8549 0.8549 0.8549
v 0.419799 1.019799 0.045000 0.7451 0.7451 0.7451
v 0.428000 1.000000 0.045000 0.7255 0.7255 0.7255
v 0.380201 0.980201 0.045000 0.7960 0.7960 0.7960
v 0.380201 1.019799 0.045000 0.7960 0.7960 0.7960
v 0.380201 1.019799 0.075000 0.8980 0.8980 0.8980
v 0.428000 1.000000 0.075000 0.8313 0.8313 0.8313
v 0.385000 0.865000 0.036000 0.8745 0.8745 0.8745
v 0.385000 0.935000 0.036000 0.8627 0.8627 0.8627
v 0.415000 0.865000 0.030000 0.7490 0.7490 0.7490
v 0.385000 0.935000 0.030000 0.7764 0.7764 0.7764
v 0.415000 0.865000 0.036000 0.8313 0.8313 0.8313
v 0.415000 0.935000 0.036000 0.8117 0.8117 0.8117
v 0.415000 0.935000 0.030000 0.7333 0.7333 0.7333
v 0.385000 0.865000 0.030000 0.7882 0.7882 0.7882
v 0.435000 1.000000 -0.030000 0.7490 0.7490 0.7490
v 0.424749 1.024749 -0.022000 0.7059 0.7059 0.7059
v 0.424749 1.024749 -0.030000 0.7529 0.7529 0.7529
v 0.400000 1.035000 -0.030000 0.7647 0.7647 0.7647
v 0.375251 1.024749 -0.030000 0.7804 0.7804 0.7804
v 0.365000 1.000000 -0.030000 0.7843 0.7843 0.7843
v 0.375251 1.024749 -0.022000 0.7176 0.7176 0.7176
v 0.375251 0.975251 -0.022000 0.7176 0.7176 0.7176
v 0.365000 1.000000 -0.022000 0.7216 0.7216 0.7216
v 0.400000 0.965000 -0.030000 0.7647 0.7647 0.7647
v 0.424749 0.975251 -0.030000 0.7490 0.7490 0.7490
v 0.400000 0.965000 -0.022000 0.7059 0.7059 0.7059
v 0.435000 1.000000 -0.022000 0.7020 0.7020 0.7020
v 0.400000 1.035000 -0.022000 0.7098 0.7098 0.7098
v 0.424749 0.975251 -0.022000 0.7020 0.7020 0.7020
v 0.375251 0.975251 -0.030000 0.7804 0.7804 0.7804
v 0.412000 1.000000 -0.038000 0.7059 0.7059 0.7059
v 0.406000 1.010392 0.002000 0.7059 0.7059 0.7059
v 0.394000 1.010392 0.002000 0.7137 0.7137 0.7137
v 0.394000 1.010392 -0.038000 0.7490 0.7490 0.7490
v 0.388000 1.000000 -0.038000 0.7608 0.7608 0.7608
v 0.406000 0.989608 -0.038000 0.7216 0.7216 0.7216
v 0.412000 1.000000 0.002000 0.7020 0.7020 0.7020
v 0.388000 1.000000 0.002000 0.7176 0.7176 0.7176
v 0.394000 0.989608 0.002000 0.7137 0.7137 0.7137
v 0.406000 0.989608 0.002000 0.7059 0.7059 0.7059
v 0.394000 0.989608 -0.038000 0.7529 0.7529 0.7529
v 0.406000 1.010392 -0.038000 0.7255 0.7255 0.7255
v 0.428000 1.000000 -0.075000 0.8313 0.8313 0.8313
v 0.428000 1.000000 -0.045000 0.7294 0.7294 0.7294
v 0.419799 1.019799 -0.075000 0.8509 0.8509 0.8509
v 0.400000 1.028000 -0.075000 0.8862 0.8862 0.8862
v 0.400000 1.028000 -0.045000 0.7764 0.7764 0.7764
v 0.372000 1.000000 -0.045000 0.7960 0.7960 0.7960
v 0.380201 1.019799 -0.045000 0.7960 0.7960 0.7960
v 0.372000 1.000000 -0.075000 0.9019 0.9019 0.9019
v 0.380201 0.980201 -0.075000 0.8980 0.8980 0.8980
v 0.400000 0.972000 -0.075000 0.8784 0.8784 0.8784
v 0.419799 0.980201 -0.045000 0.7451 0.7451 0.7451
v 0.419799 1.019799 -0.045000 0.7490 0.7490 0.7490
v 0.380201 0.980201 -0.045000 0.7921 0.7921 0.7921
v 0.400000 0.972000 -0.045000 0.7764 0.7764 0.7764
v 0.419799 0.980201 -0.075000 0.8509 0.8509 0.8509
v 0.380201 1.019799 -0.075000 0.8980 0.8980 0.8980
v 0.385000 0.935000 -0.030000 0.7764 0.7764 0.7764
v 0.385000 0.935000 -0.036000 0.8627 0.8627 0.8627
v 0.385000 0.865000 -0.036000 0.8706 0.8706 0.8706
v 0.415000 0.935000 -0.030000 0.7412 0.7412 0.7412
v 0.415000 0.935000 -0.036000 0.8157 0.8157 0.8157
v 0.415000 0.865000 -0.036000 0.8313 0.8313 0.8313
v 0.415000 0.865000 -0.030000 0.7529 0.7529 0.7529
v 0.385000 0.865000 -0.030000 0.7843 0.7843 0.7843
vn -0.0000 -0.0000 1.0000
vn -0.0000 -0.0000 -1.0000
vn -1.0000 -0.0000 -0.0000
vn 1.0000 -0.0000 -0.0000
vn -0.0000 1.0000 -0.0000
vn -0.0000 -1.0000 -0.0000
vn 0.7071 -0.7071 -0.0000
vn -0.7071 -0.7071 -0.0000
vn -0.7071 0.7071 -0.0000
vn 0.7071 0.7071 -0.0000
vn 0.8660 -0.5000 -0.0000
vn -0.8660 -0.5000 -0.0000
vn -0.8660 0.5000 -0.0000
vn 0.8660 0.5000 -0.0000
vt 0.750488 0.875488
vt 0.812012 0.875488
vt 0.812012 0.999512
vt 0.750488 0.999512
vt 0.000488 0.812988
vt 0.002182 0.812988
vt 0.002182 0.874512
vt 0.000488 0.874512
vt 0.062012 0.812988
vt 0.062012 0.816833
vt 0.000488 0.816833
vt 0.172363 0.844238
vt 0.176147 0.844238
vt 0.176147 0.874512
vt 0.172363 0.874512
vt 0.179932 0.844238
vt 0.179932 0.874512
vt 0.183716 0.844238
vt 0.183716 0.874512
vt 0.187500 0.844238
vt 0.187500 0.874512
vt 0.191284 0.844238
vt 0.191284 0.874512
vt 0.195068 0.844238
vt 0.195068 0.874512
vt 0.198853 0.844238
vt 0.198853 0.874512
vt 0.202637 0.844238
vt 0.202637 0.874512
vt 0.202637 0.859375
vt 0.198203 0.870078
vt 0.176797 0.870078
vt 0.172363 0.859375
vt 0.176797 0.848672
vt 0.198203 0.848672
vt 0.177409 0.844238
vt 0.177409 0.874512
vt 0.182454 0.844238
vt 0.182454 0.874512
vt 0.192546 0.844238
vt 0.192546 0.874512
vt 0.197591 0.844238
vt 0.197591 0.874512
vt 0.175996 0.844238
vt 0.175996 0.852715
vt 0.172363 0.852715
vt 0.173090 0.844238
vt 0.173090 0.852715
vt 0.175996 0.844965
vt 0.172363 0.844965
s 0
usemtl props
f 28/28/19 29/29/19 31/30/19 32/31/19
f 30/28/20 25/29/20 26/30/20 27/31/20
f 25/32/21 28/33/21 32/34/21 26/35/21
f 29/32/22 30/33/22 27/34/22 31/35/22
f 32/32/23 31/36/23 27/37/23 26/38/23
f 25/32/24 30/36/24 29/37/24 28/38/24
s 1
f 43/39/22 48/40/25 33/41/25 34/42/22
f 48/40/25 47/43/24 36/44/24 33/41/25
f 47/43/24 35/45/26 37/46/26 36/44/24
f 35/45/26 38/47/21 44/48/21 37/46/26
f 38/47/21 39/49/27 41/50/27 44/48/21
f 39/49/27 46/51/23 40/52/23 41/50/27
f 46/51/23 45/53/28 42/54/28 40/52/23
f 45/53/28 43/55/22 34/56/22 42/54/28
s 0
f 34/57/20 33/58/20 36/48/20 37/59/20 44/60/20 41/61/20 40/47/20 42/62/20
f 45/58/19 46/48/19 39/59/19 38/60/19 35/61/19 47/47/19 48/62/19 43/57/19
s 1
f 60/39/29 49/63/29 55/64/29 53/42/29
f 49/63/24 50/65/24 56/66/24 55/64/24
f 50/65/30 51/47/30 57/48/30 56/66/30
f 51/47/31 52/67/31 58/68/31 57/48/31
f 52/67/23 59/69/23 54/70/23 58/68/23
f 59/69/32 60/55/32 53/56/32 54/70/32
s 0
f 53/57/20 55/52/20 56/44/20 57/60/20 58/43/20 54/51/20
f 59/52/19 52/44/19 51/60/19 50/43/19 49/51/19 60/57/19
s 1
f 76/39/22 61/40/25 62/41/25 72/42/22
f 61/40/25 63/43/24 65/44/24 62/41/25
f 63/43/24 64/45/26 73/46/26 65/44/24
f 64/45/26 67/47/21 66/48/21 73/46/26
f 67/47/21 75/49/27 74/50/27 66/48/21
f 75/49/27 69/51/23 68/52/23 74/50/27
f 69/51/23 70/53/28 71/54/28 68/52/23
f 70/53/28 76/55/22 72/56/22 71/54/28
s 0
f 72/57/20 62/58/20 65/48/20 73/59/20 66/60/20 74/61/20 68/47/20 71/62/20
f 70/58/19 69/48/19 75/59/19 67/60/19 64/61/19 63/47/19 61/62/19 76/57/19
f 77/39/19 81/71/19 82/72/19 78/73/19
f 79/39/20 84/71/20 80/72/20 83/73/20
f 84/39/21 77/74/21 78/75/21 80/73/21
f 81/39/22 79/74/22 83/75/22 82/73/22
f 78/39/23 82/71/23 83/76/23 80/77/23
f 84/39/24 79/71/24 81/76/24 77/77/24
s 1
f 85/39/22 87/40/28 86/41/28 97/42/22
f 87/40/28 88/43/23 98/44/23 86/41/28
f 88/43/23 89/45/27 91/46/27 98/44/23
f 89/45/27 90/47/21 93/48/21 91/46/27
f 90/47/21 100/49/26 92/50/26 93/48/21
f 100/49/26 94/51/24 96/52/24 92/50/26
f 94/51/24 95/53/25 99/54/25 96/52/24
f 95/53/25 85/55/22 97/56/22 99/54/25
s 0
f 97/57/19 86/58/19 98/48/19 91/59/19 93/60/19 92/61/19 96/47/19 99/62/19
f 95/58/20 94/48/20 100/59/20 90/60/20 89/61/20 88/47/20 87/62/20 85/57/20
s 1
f 101/39/32 112/63/32 102/64/32 107/42/32
f 112/63/23 104/65/23 103/66/23 102/64/23
f 104/65/31 105/47/31 108/48/31 103/66/31
f 105/47/30 111/67/30 109/68/30 108/48/30
f 111/67/24 106/69/24 110/70/24 109/68/24
f 106/69/29 101/55/29 107/56/29 110/70/29
s 0
f 107/57/19 102/52/19 103/44/19 108/60/19 109/43/19 110/51/19
f 106/52/20 111/44/20 105/60/20 104/43/20 112/51/20 101/57/20
s 1
f 113/39/22 115/40/28 124/41/28 114/42/22
f 115/40/28 116/43/23 117/44/23 124/41/28
f 116/43/23 128/45/27 119/46/27 117/44/23
f 128/45/27 120/47/21 118/48/21 119/46/27
f 120/47/21 121/49/26 125/50/26 118/48/21
f 121/49/26 122/51/24 126/52/24 125/50/26
f 122/51/24 127/53/25 123/54/25 126/52/24
f 127/53/25 113/55/22 114/56/22 123/54/25
s 0
f 114/57/19 124/58/19 117/48/19 119/59/19 118/60/19 125/61/19 126/47/19 123/62/19
f 127/58/20 122/48/20 121/59/20 120/60/20 128/61/20 116/47/20 115/62/20 113/57/20
f 136/39/19 135/71/19 132/72/19 129/73/19
f 134/39/20 131/71/20 130/72/20 133/73/20
f 131/39/21 136/74/21 129/75/21 130/73/21
f 135/39/22 134/74/22 133/75/22 132/73/22
f 129/39/23 132/71/23 133/76/23 130/77/23
f 131/39/24 134/71/24 135/76/24 136/77/24
