# Blender 4.5.14 LTS
# www.blender.org
mtllib fireplace.mtl
o fireplace
v -0.520000 0.000000 0.400000 0.7960 0.7960 0.7960
v -0.800000 0.000000 0.000000 0.8000 0.8000 0.8000
v -0.800000 0.000000 0.400000 0.8431 0.8431 0.8431
v -0.520000 1.100000 0.400000 0.8666 0.8666 0.8666
v -0.520000 1.100000 0.000000 0.7098 0.7098 0.7098
v 0.520000 0.000000 0.400000 0.8000 0.8000 0.8000
v 0.800000 0.000000 0.400000 0.8509 0.8509 0.8509
v 0.520000 1.100000 0.400000 0.8666 0.8666 0.8666
v 0.520000 1.100000 0.000000 0.7059 0.7059 0.7059
v 0.520000 0.000000 0.000000 0.7529 0.7529 0.7529
v 0.800000 0.000000 0.000000 0.8000 0.8000 0.8000
v 0.800000 1.100000 0.400000 0.8941 0.8941 0.8941
v 0.800000 1.100000 0.000000 0.7568 0.7568 0.7568
v -0.800000 1.340000 0.000000 0.7255 0.7255 0.7255
v -0.800000 1.340000 0.400000 0.8000 0.8000 0.8000
v 0.800000 1.340000 0.400000 0.8000 0.8000 0.8000
v 0.800000 1.340000 0.000000 0.7255 0.7255 0.7255
v -0.800000 1.100000 0.000000 0.7568 0.7568 0.7568
v -0.800000 1.100000 0.400000 0.8941 0.8941 0.8941
v 0.880000 1.400000 0.500000 1.0000 1.0000 1.0000
v -0.880000 1.340000 0.000000 0.7804 0.7804 0.7804
v -0.880000 1.340000 0.500000 0.9804 0.9804 0.9804
v -0.880000 1.400000 0.000000 0.8000 0.8000 0.8000
v 0.880000 1.340000 0.500000 0.9804 0.9804 0.9804
v -0.880000 1.400000 0.500000 1.0000 1.0000 1.0000
v 0.880000 1.400000 0.000000 0.7960 0.7960 0.7960
v 0.880000 1.340000 0.000000 0.7804 0.7804 0.7804
v -0.950000 0.040000 0.900000 1.0000 1.0000 1.0000
v -0.950000 0.040000 0.400000 0.9176 0.9176 0.9176
v 0.950000 0.000000 0.400000 0.9372 0.9372 0.9372
v 0.950000 0.040000 0.900000 1.0000 1.0000 1.0000
v 0.950000 0.040000 0.400000 0.9176 0.9176 0.9176
v -0.950000 0.000000 0.400000 0.9372 0.9372 0.9372
v 0.950000 0.000000 0.900000 1.0000 1.0000 1.0000
v -0.950000 0.000000 0.900000 1.0000 1.0000 1.0000
v 0.520000 1.100000 0.020000 0.7372 0.7372 0.7372
v -0.520000 1.100000 0.020000 0.7372 0.7372 0.7372
v -0.520000 0.000000 0.000000 0.7529 0.7529 0.7529
v 0.520000 0.000000 0.020000 0.7568 0.7568 0.7568
v -0.520000 0.000000 0.020000 0.7568 0.7568 0.7568
v -0.520000 0.020000 0.400000 0.7333 0.7333 0.7333
v -0.520000 0.020000 0.000000 0.7098 0.7098 0.7098
v 0.520000 0.020000 0.000000 0.7059 0.7059 0.7059
v 0.520000 0.020000 0.400000 0.7294 0.7294 0.7294
v -0.350000 0.125000 0.305000 0.7686 0.7686 0.7686
v 0.350000 0.125000 0.305000 0.7725 0.7725 0.7725
v 0.350000 0.155000 0.305000 0.8157 0.8157 0.8157
v 0.350000 0.125000 0.055000 0.7020 0.7020 0.7020
v 0.350000 0.155000 0.055000 0.7333 0.7333 0.7333
v -0.350000 0.155000 0.305000 0.8235 0.8235 0.8235
v -0.350000 0.155000 0.055000 0.7216 0.7216 0.7216
v -0.350000 0.125000 0.055000 0.7020 0.7020 0.7020
v -0.345000 0.000000 0.305000 0.7843 0.7843 0.7843
v -0.315000 0.000000 0.305000 0.7843 0.7843 0.7843
v -0.345000 0.140000 0.305000 0.7529 0.7529 0.7529
v -0.315000 0.140000 0.305000 0.7529 0.7529 0.7529
v -0.315000 0.140000 0.275000 0.7020 0.7020 0.7020
v -0.345000 0.140000 0.275000 0.7020 0.7020 0.7020
v -0.345000 0.000000 0.275000 0.7804 0.7804 0.7804
v -0.315000 0.000000 0.275000 0.7804 0.7804 0.7804
v -0.315000 0.000000 0.085000 0.7608 0.7608 0.7608
v -0.345000 0.140000 0.055000 0.7020 0.7020 0.7020
v -0.345000 0.000000 0.055000 0.7529 0.7529 0.7529
v -0.345000 0.000000 0.085000 0.7608 0.7608 0.7608
v -0.315000 0.140000 0.085000 0.7020 0.7020 0.7020
v -0.345000 0.140000 0.085000 0.7020 0.7020 0.7020
v -0.315000 0.140000 0.055000 0.7020 0.7020 0.7020
v -0.315000 0.000000 0.055000 0.7529 0.7529 0.7529
v 0.315000 0.140000 0.305000 0.7529 0.7529 0.7529
v 0.345000 0.000000 0.275000 0.7804 0.7804 0.7804
v 0.345000 0.140000 0.275000 0.7020 0.7020 0.7020
v 0.315000 0.000000 0.275000 0.7804 0.7804 0.7804
v 0.315000 0.000000 0.305000 0.7843 0.7843 0.7843
v 0.345000 0.140000 0.305000 0.7529 0.7529 0.7529
v 0.315000 0.140000 0.275000 0.7020 0.7020 0.7020
v 0.345000 0.000000 0.305000 0.7843 0.7843 0.7843
v 0.315000 0.000000 0.085000 0.7608 0.7608 0.7608
v 0.345000 0.140000 0.085000 0.7020 0.7020 0.7020
v 0.345000 0.000000 0.055000 0.7529 0.7529 0.7529
v 0.315000 0.140000 0.055000 0.7020 0.7020 0.7020
v 0.345000 0.140000 0.055000 0.7020 0.7020 0.7020
v 0.315000 0.140000 0.085000 0.7020 0.7020 0.7020
v 0.315000 0.000000 0.055000 0.7568 0.7568 0.7568
v 0.345000 0.000000 0.085000 0.7608 0.7608 0.7608
v -0.294000 0.270000 0.316000 0.8784 0.8784 0.8784
v -0.306000 0.270000 0.316000 0.8627 0.8627 0.8627
v -0.294000 0.150000 0.304000 0.7020 0.7020 0.7020
v -0.306000 0.150000 0.304000 0.7020 0.7020 0.7020
v -0.306000 0.270000 0.304000 0.7921 0.7921 0.7921
v -0.294000 0.270000 0.304000 0.8078 0.8078 0.8078
v -0.294000 0.150000 0.316000 0.7960 0.7960 0.7960
v -0.306000 0.150000 0.316000 0.7843 0.7843 0.7843
v -0.174000 0.270000 0.316000 0.8823 0.8823 0.8823
v -0.186000 0.150000 0.304000 0.7020 0.7020 0.7020
v -0.186000 0.150000 0.316000 0.7882 0.7882 0.7882
v -0.186000 0.270000 0.316000 0.8784 0.8784 0.8784
v -0.174000 0.150000 0.304000 0.7020 0.7020 0.7020
v -0.174000 0.270000 0.304000 0.8117 0.8117 0.8117
v -0.186000 0.270000 0.304000 0.8039 0.8039 0.8039
v -0.174000 0.150000 0.316000 0.7921 0.7921 0.7921
v -0.054000 0.150000 0.316000 0.7960 0.7960 0.7960
v -0.054000 0.150000 0.304000 0.7020 0.7020 0.7020
v -0.054000 0.270000 0.304000 0.8117 0.8117 0.8117
v -0.066000 0.270000 0.316000 0.8784 0.8784 0.8784
v -0.054000 0.270000 0.316000 0.8823 0.8823 0.8823
v -0.066000 0.270000 0.304000 0.8078 0.8078 0.8078
v -0.066000 0.150000 0.304000 0.7020 0.7020 0.7020
v -0.066000 0.150000 0.316000 0.7921 0.7921 0.7921
v 0.054000 0.150000 0.316000 0.7960 0.7960 0.7960
v 0.066000 0.150000 0.316000 0.7921 0.7921 0.7921
v 0.054000 0.270000 0.316000 0.8902 0.8902 0.8902
v 0.066000 0.270000 0.304000 0.8117 0.8117 0.8117
v 0.054000 0.270000 0.304000 0.8157 0.8157 0.8157
v 0.066000 0.270000 0.316000 0.8862 0.8862 0.8862
v 0.054000 0.150000 0.304000 0.7020 0.7020 0.7020
v 0.066000 0.150000 0.304000 0.7020 0.7020 0.7020
v 0.186000 0.270000 0.316000 0.8470 0.8470 0.8470
v 0.174000 0.270000 0.316000 0.8745 0.8745 0.8745
v 0.186000 0.270000 0.304000 0.7020 0.7020 0.7020
v 0.174000 0.150000 0.304000 0.7020 0.7020 0.7020
v 0.174000 0.270000 0.304000 0.7020 0.7020 0.7020
v 0.186000 0.150000 0.316000 0.7882 0.7882 0.7882
v 0.186000 0.150000 0.304000 0.7020 0.7020 0.7020
v 0.174000 0.150000 0.316000 0.7960 0.7960 0.7960
v 0.306000 0.150000 0.316000 0.7804 0.7804 0.7804
v 0.306000 0.270000 0.304000 0.7882 0.7882 0.7882
v 0.294000 0.150000 0.316000 0.7882 0.7882 0.7882
v 0.294000 0.270000 0.316000 0.8392 0.8392 0.8392
v 0.294000 0.270000 0.304000 0.7686 0.7686 0.7686
v 0.306000 0.270000 0.316000 0.8509 0.8509 0.8509
v 0.294000 0.150000 0.304000 0.7020 0.7020 0.7020
v 0.306000 0.150000 0.304000 0.7020 0.7020 0.7020
v -0.402962 0.175000 0.189451 0.7098 0.7098 0.7098
v -0.402962 0.225000 0.189451 0.7333 0.7333 0.7333
v 0.187923 0.225000 0.085262 0.7333 0.7333 0.7333
v 0.187923 0.175000 0.085262 0.7059 0.7059 0.7059
v -0.395442 0.250000 0.232094 0.8039 0.8039 0.8039
v -0.387923 0.225000 0.274738 0.8431 0.8431 0.8431
v 0.195442 0.250000 0.127906 0.7647 0.7647 0.7647
v -0.387923 0.175000 0.274738 0.7843 0.7843 0.7843
v 0.202962 0.225000 0.170549 0.7020 0.7020 0.7020
v 0.195442 0.150000 0.127906 0.7020 0.7020 0.7020
v 0.202962 0.175000 0.170549 0.7020 0.7020 0.7020
v -0.395442 0.150000 0.232094 0.7176 0.7176 0.7176
v -0.180613 0.175000 0.065408 0.7020 0.7020 0.7020
v -0.180613 0.225000 0.065408 0.7059 0.7059 0.7059
v 0.401564 0.175000 0.210562 0.7137 0.7137 0.7137
v 0.391089 0.250000 0.252577 0.8157 0.8157 0.8157
v 0.401564 0.225000 0.210562 0.7412 0.7412 0.7412
v -0.191089 0.250000 0.107423 0.7020 0.7020 0.7020
v -0.201564 0.225000 0.149438 0.7333 0.7333 0.7333
v 0.380613 0.175000 0.294592 0.8000 0.8000 0.8000
v 0.380613 0.225000 0.294592 0.8588 0.8588 0.8588
v 0.391089 0.150000 0.252577 0.7255 0.7255 0.7255
v -0.201564 0.175000 0.149438 0.7059 0.7059 0.7059
v -0.191089 0.150000 0.107423 0.7020 0.7020 0.7020
v -0.271892 0.230000 0.053215 0.7020 0.7020 0.7020
v 0.271892 0.230000 0.306785 0.7647 0.7647 0.7647
v -0.253592 0.305000 0.013970 0.7059 0.7059 0.7059
v 0.290192 0.255000 0.267541 0.7333 0.7333 0.7333
v 0.290192 0.305000 0.267541 0.7764 0.7764 0.7764
v 0.253592 0.305000 0.346030 0.9137 0.9137 0.9137
v 0.253592 0.255000 0.346030 0.8470 0.8470 0.8470
v 0.271892 0.330000 0.306785 0.8745 0.8745 0.8745
v -0.290192 0.255000 0.092459 0.7294 0.7294 0.7294
v -0.290192 0.305000 0.092459 0.7843 0.7843 0.7843
v -0.271892 0.330000 0.053215 0.7686 0.7686 0.7686
v -0.253592 0.255000 0.013970 0.7020 0.7020 0.7020
vn -0.0000 -0.0000 1.0000
vn -0.0000 -0.0000 -1.0000
vn -1.0000 -0.0000 -0.0000
vn 1.0000 -0.0000 -0.0000
vn -0.0000 1.0000 -0.0000
vn -0.0000 -1.0000 -0.0000
vn -0.0868 -0.8660 -0.4924
vn -0.1736 -0.0000 -0.9848
vn -0.0868 0.8660 -0.4924
vn 0.0868 0.8660 0.4924
vn 0.1736 -0.0000 0.9848
vn 0.0868 -0.8660 0.4924
vn 0.9848 -0.0000 -0.1736
vn -0.9848 -0.0000 0.1736
vn 0.1210 -0.8660 -0.4851
vn 0.2419 -0.0000 -0.9703
vn 0.1210 0.8660 -0.4851
vn -0.1210 0.8660 0.4851
vn -0.2419 -0.0000 0.9703
vn -0.1210 -0.8660 0.4851
vn 0.9703 -0.0000 0.2419
vn -0.9703 -0.0000 -0.2419
vn 0.2113 -0.8660 -0.4532
vn 0.4226 -0.0000 -0.9063
vn 0.2113 0.8660 -0.4532
vn -0.2113 0.8660 0.4532
vn -0.4226 -0.0000 0.9063
vn -0.2113 -0.8660 0.4532
vn 0.9063 -0.0000 0.4226
vn -0.9063 -0.0000 -0.4226
vt 0.125488 0.812988
vt 0.140137 0.812988
vt 0.140137 0.874512
vt 0.125488 0.874512
vt 0.266113 0.844238
vt 0.273819 0.844238
vt 0.273819 0.874512
vt 0.266113 0.874512
vt 0.277122 0.844238
vt 0.277122 0.874512
vt 0.287305 0.844238
vt 0.287305 0.874512
vt 0.437988 0.859863
vt 0.499512 0.859863
vt 0.499512 0.874512
vt 0.437988 0.874512
vt 0.296387 0.844238
vt 0.296387 0.848779
vt 0.266113 0.848779
vt 0.296387 0.862402
vt 0.266113 0.862402
vt 0.296387 0.851807
vt 0.266113 0.851807
vt 0.296387 0.845270
vt 0.266113 0.845270
vt 0.296387 0.847871
vt 0.266113 0.847871
vt 0.296387 0.852839
vt 0.266113 0.852839
vt 0.234863 0.844238
vt 0.265137 0.844238
vt 0.265137 0.844876
vt 0.234863 0.844876
vt 0.265137 0.846660
vt 0.234863 0.846660
vt 0.265137 0.852205
vt 0.234863 0.852205
vt 0.641113 0.859863
vt 0.654963 0.859863
vt 0.654963 0.874512
vt 0.641113 0.874512
vt 0.641380 0.859863
vt 0.641380 0.874512
vt 0.655762 0.859863
vt 0.655762 0.860145
vt 0.641113 0.860145
vt 0.655762 0.860596
vt 0.641113 0.860596
vt 0.655762 0.865497
vt 0.641113 0.865497
vt 0.655762 0.874512
vt 0.203613 0.844238
vt 0.233887 0.844238
vt 0.233887 0.845536
vt 0.203613 0.845536
vt 0.233887 0.847871
vt 0.203613 0.847871
vt 0.233887 0.855050
vt 0.203613 0.855050
vt 0.207246 0.844238
vt 0.207246 0.861191
vt 0.203613 0.861191
vt 0.207246 0.847871
vt 0.205066 0.844238
vt 0.205066 0.858770
vt 0.203613 0.858770
vt 0.205066 0.845691
vt 0.203613 0.845691
vt 0.531738 0.859863
vt 0.536784 0.859863
vt 0.536784 0.874512
vt 0.531738 0.874512
vt 0.541829 0.859863
vt 0.541829 0.874512
vt 0.546875 0.859863
vt 0.546875 0.874512
vt 0.551921 0.859863
vt 0.551921 0.874512
vt 0.556966 0.859863
vt 0.556966 0.874512
vt 0.562012 0.859863
vt 0.562012 0.874512
vt 0.624512 0.867188
vt 0.620850 0.874512
vt 0.613525 0.874512
vt 0.609863 0.867188
vt 0.613525 0.859863
vt 0.620850 0.859863
s 0
usemtl props
f 3/1/1 1/2/1 4/3/1 19/4/1
f 38/5/2 2/6/2 18/7/2 5/8/2
f 2/5/3 3/9/3 19/10/3 18/8/3
f 1/5/4 38/9/4 5/10/4 4/8/4
f 19/5/5 4/11/5 5/12/5 18/8/5
f 2/5/6 38/11/6 1/12/6 3/8/6
f 6/1/1 7/2/1 12/3/1 8/4/1
f 11/5/2 10/6/2 9/7/2 13/8/2
f 10/5/3 6/9/3 8/10/3 9/8/3
f 7/5/4 11/9/4 13/10/4 12/8/4
f 8/5/5 12/11/5 13/12/5 9/8/5
f 10/5/6 11/11/6 7/12/6 6/8/6
f 19/13/1 12/14/1 16/15/1 15/16/1
f 13/5/2 18/17/2 14/18/2 17/19/2
f 18/5/3 19/17/3 15/20/3 14/21/3
f 12/5/4 13/17/4 17/20/4 16/21/4
f 15/5/5 16/17/5 17/22/5 14/23/5
f 18/5/6 13/17/6 12/22/6 19/23/6
f 22/5/1 24/17/1 20/24/1 25/25/1
f 27/5/2 21/17/2 23/24/2 26/25/2
f 21/5/3 22/17/3 25/26/3 23/27/3
f 24/5/4 27/17/4 26/26/4 20/27/4
f 25/5/5 20/17/5 26/28/5 23/29/5
f 21/5/6 27/17/6 24/28/6 22/29/6
f 35/30/1 34/31/1 31/32/1 28/33/1
f 30/30/2 33/31/2 29/32/2 32/33/2
f 33/30/3 35/31/3 28/34/3 29/35/3
f 34/30/4 30/31/4 32/34/4 31/35/4
f 28/30/5 31/31/5 32/36/5 29/37/5
f 33/30/6 30/31/6 34/36/6 35/37/6
f 40/38/1 39/39/1 36/40/1 37/41/1
f 10/38/2 38/39/2 5/40/2 9/41/2
f 38/38/3 40/42/3 37/43/3 5/41/3
f 39/38/4 10/42/4 9/43/4 36/41/4
f 37/38/5 36/44/5 9/45/5 5/46/5
f 38/38/6 10/44/6 39/45/6 40/46/6
f 1/38/1 6/44/1 44/45/1 41/46/1
f 10/38/2 38/44/2 42/45/2 43/46/2
f 38/38/3 1/44/3 41/47/3 42/48/3
f 6/38/4 10/44/4 43/47/4 44/48/4
f 41/38/5 44/44/5 43/49/5 42/50/5
f 38/38/6 10/44/6 6/49/6 1/50/6
f 5/38/6 9/44/6 8/51/6 4/41/6
f 45/52/1 46/53/1 47/54/1 50/55/1
f 48/52/2 52/53/2 51/54/2 49/55/2
f 52/52/3 45/53/3 50/56/3 51/57/3
f 46/52/4 48/53/4 49/56/4 47/57/4
f 50/52/5 47/53/5 49/58/5 51/59/5
f 52/52/6 48/53/6 46/58/6 45/59/6
f 53/52/1 54/60/1 56/61/1 55/62/1
f 60/52/2 59/60/2 58/61/2 57/62/2
f 59/52/3 53/60/3 55/61/3 58/62/3
f 54/52/4 60/60/4 57/61/4 56/62/4
f 55/52/5 56/60/5 57/63/5 58/57/5
f 59/52/6 60/60/6 54/63/6 53/57/6
f 64/52/1 61/60/1 65/61/1 66/62/1
f 68/52/2 63/60/2 62/61/2 67/62/2
f 63/52/3 64/60/3 66/61/3 62/62/3
f 61/52/4 68/60/4 67/61/4 65/62/4
f 66/52/5 65/60/5 67/63/5 62/57/5
f 63/52/6 68/60/6 61/63/6 64/57/6
f 73/52/1 76/60/1 74/61/1 69/62/1
f 70/52/2 72/60/2 75/61/2 71/62/2
f 72/52/3 73/60/3 69/61/3 75/62/3
f 76/52/4 70/60/4 71/61/4 74/62/4
f 69/52/5 74/60/5 71/63/5 75/57/5
f 72/52/6 70/60/6 76/63/6 73/57/6
f 77/52/1 84/60/1 78/61/1 82/62/1
f 79/52/2 83/60/2 80/61/2 81/62/2
f 83/52/3 77/60/3 82/61/3 80/62/3
f 84/52/4 79/60/4 81/61/4 78/62/4
f 82/52/5 78/60/5 81/63/5 80/57/5
f 83/52/6 79/60/6 84/63/6 77/57/6
f 92/52/1 91/64/1 85/65/1 86/66/1
f 87/52/2 88/64/2 89/65/2 90/66/2
f 88/52/3 92/64/3 86/65/3 89/66/3
f 91/52/4 87/64/4 90/65/4 85/66/4
f 86/52/5 85/64/5 90/67/5 89/68/5
f 88/52/6 87/64/6 91/67/6 92/68/6
f 95/52/1 100/64/1 93/65/1 96/66/1
f 97/52/2 94/64/2 99/65/2 98/66/2
f 94/52/3 95/64/3 96/65/3 99/66/3
f 100/52/4 97/64/4 98/65/4 93/66/4
f 96/52/5 93/64/5 98/67/5 99/68/5
f 94/52/6 97/64/6 100/67/6 95/68/6
f 108/52/1 101/64/1 105/65/1 104/66/1
f 102/52/2 107/64/2 106/65/2 103/66/2
f 107/52/3 108/64/3 104/65/3 106/66/3
f 101/52/4 102/64/4 103/65/4 105/66/4
f 104/52/5 105/64/5 103/67/5 106/68/5
f 107/52/6 102/64/6 101/67/6 108/68/6
f 109/52/1 110/64/1 114/65/1 111/66/1
f 116/52/2 115/64/2 113/65/2 112/66/2
f 115/52/3 109/64/3 111/65/3 113/66/3
f 110/52/4 116/64/4 112/65/4 114/66/4
f 111/52/5 114/64/5 112/67/5 113/68/5
f 115/52/6 116/64/6 110/67/6 109/68/6
f 124/52/1 122/64/1 117/65/1 118/66/1
f 123/52/2 120/64/2 121/65/2 119/66/2
f 120/52/3 124/64/3 118/65/3 121/66/3
f 122/52/4 123/64/4 119/65/4 117/66/4
f 118/52/5 117/64/5 119/67/5 121/68/5
f 120/52/6 123/64/6 122/67/6 124/68/6
f 127/52/1 125/64/1 130/65/1 128/66/1
f 132/52/2 131/64/2 129/65/2 126/66/2
f 131/52/3 127/64/3 128/65/3 129/66/3
f 125/52/4 132/64/4 126/65/4 130/66/4
f 128/52/5 130/64/5 126/67/5 129/68/5
f 131/52/6 132/64/6 125/67/6 127/68/6
s 1
f 144/69/7 133/70/7 136/71/7 142/72/7
f 133/70/8 134/73/8 135/74/8 136/71/8
f 134/73/9 137/75/9 139/76/9 135/74/9
f 137/75/10 138/77/10 141/78/10 139/76/10
f 138/77/11 140/79/11 143/80/11 141/78/11
f 140/79/12 144/81/12 142/82/12 143/80/12
s 0
f 142/83/13 136/84/13 135/85/13 139/86/13 141/87/13 143/88/13
f 140/84/14 138/85/14 137/86/14 134/87/14 133/88/14 144/83/14
s 1
f 156/69/15 145/70/15 147/71/15 154/72/15
f 145/70/16 146/73/16 149/74/16 147/71/16
f 146/73/17 150/75/17 148/76/17 149/74/17
f 150/75/18 151/77/18 153/78/18 148/76/18
f 151/77/19 155/79/19 152/80/19 153/78/19
f 155/79/20 156/81/20 154/82/20 152/80/20
s 0
f 154/83/21 147/84/21 149/85/21 148/86/21 153/87/21 152/88/21
f 155/84/22 151/85/22 150/86/22 146/87/22 145/88/22 156/83/22
s 1
f 157/69/23 168/70/23 160/71/23 158/72/23
f 168/70/24 159/73/24 161/74/24 160/71/24
f 159/73/25 167/75/25 164/76/25 161/74/25
f 167/75/26 166/77/26 162/78/26 164/76/26
f 166/77/27 165/79/27 163/80/27 162/78/27
f 165/79/28 157/81/28 158/82/28 163/80/28
s 0
f 158/83/29 160/84/29 161/85/29 164/86/29 162/87/29 163/88/29
f 165/84/30 166/85/30 167/86/30 159/87/30 168/88/30 157/83/30
o fireplace_flame0
v -0.284889 0.220000 0.238823 0.7020 0.7020 0.7020
v 0.004889 0.220000 0.161177 0.7020 0.7020 0.7020
v -0.082044 0.460000 0.184471 0.9529 0.9529 0.9529
v -0.125511 0.620000 0.196118 0.9804 0.9804 0.9804
v -0.226933 0.420000 0.223294 0.9411 0.9411 0.9411
v -0.226985 0.420000 0.223101 0.7098 0.7098 0.7098
v -0.125563 0.620000 0.195925 0.7216 0.7216 0.7216
v -0.082096 0.460000 0.184278 0.7020 0.7020 0.7020
v 0.004837 0.220000 0.160984 0.7020 0.7020 0.7020
v -0.284941 0.220000 0.238630 0.7020 0.7020 0.7020
v -0.173646 0.220000 0.305570 0.8353 0.8353 0.8353
v -0.106354 0.220000 0.054430 0.7451 0.7451 0.7451
v -0.126541 0.412000 0.129772 0.7372 0.7372 0.7372
v -0.136635 0.540000 0.167443 0.7804 0.7804 0.7804
v -0.160188 0.380000 0.255342 0.8588 0.8588 0.8588
v -0.160381 0.380000 0.255290 0.7725 0.7725 0.7725
v -0.136829 0.540000 0.167391 0.7568 0.7568 0.7568
v -0.126735 0.412000 0.129720 0.7451 0.7451 0.7451
v -0.106547 0.220000 0.054378 0.7020 0.7020 0.7020
v -0.173840 0.220000 0.305519 0.7176 0.7176 0.7176
vn 0.2588 -0.0000 0.9659
vn -0.2588 -0.0000 -0.9659
vn 0.9659 -0.0000 0.2588
vn -0.9659 -0.0000 -0.2588
vt 0.656738 0.859863
vt 0.663574 0.859863
vt 0.661523 0.868652
vt 0.660498 0.874512
vt 0.658105 0.867188
s 0
usemtl props
f 169/89/31 170/90/31 171/91/31 172/92/31 173/93/31
f 174/93/32 175/92/32 176/91/32 177/90/32 178/89/32
f 179/89/33 180/90/33 181/91/33 182/92/33 183/93/33
f 184/93/34 185/92/34 186/91/34 187/90/34 188/89/34
o fireplace_flame1
v -0.007015 0.220000 0.188888 0.7020 0.7020 0.7020
v 0.247015 0.220000 0.211112 0.7020 0.7020 0.7020
v 0.170806 0.424000 0.204445 0.9333 0.9333 0.9333
v 0.132701 0.560000 0.201111 0.9607 0.9607 0.9607
v 0.043791 0.390000 0.193333 0.7255 0.7255 0.7255
v 0.043809 0.390000 0.193133 0.7059 0.7059 0.7059
v 0.132719 0.560000 0.200912 0.7255 0.7255 0.7255
v 0.170823 0.424000 0.204246 0.7059 0.7059 0.7059
v 0.247032 0.220000 0.210913 0.7020 0.7020 0.7020
v -0.006997 0.220000 0.188688 0.7020 0.7020 0.7020
v 0.148600 0.220000 0.286735 0.7216 0.7216 0.7216
v 0.091400 0.220000 0.073265 0.7294 0.7294 0.7294
v 0.108560 0.383200 0.137306 0.7372 0.7372 0.7372
v 0.117140 0.492000 0.169327 0.7647 0.7647 0.7647
v 0.137160 0.356000 0.244041 0.7608 0.7608 0.7608
v 0.136967 0.356000 0.244093 0.8078 0.8078 0.8078
v 0.116947 0.492000 0.169378 0.7529 0.7529 0.7529
v 0.108367 0.383200 0.137358 0.7294 0.7294 0.7294
v 0.091207 0.220000 0.073317 0.7294 0.7294 0.7294
v 0.148406 0.220000 0.286787 0.8078 0.8078 0.8078
vn -0.0872 -0.0000 0.9962
vn 0.0872 -0.0000 -0.9962
vn 0.9659 -0.0000 -0.2588
vn -0.9659 -0.0000 0.2588
vt 0.656738 0.859863
vt 0.663574 0.859863
vt 0.661523 0.868652
vt 0.660498 0.874512
vt 0.658105 0.867188
s 0
usemtl props
f 189/94/35 190/95/35 191/96/35 192/97/35 193/98/35
f 194/98/36 195/97/36 196/96/36 197/95/36 198/94/36
f 199/94/37 200/95/37 201/96/37 202/97/37 203/98/37
f 204/98/38 205/97/38 206/96/38 207/95/38 208/94/38
o fireplace_flame2
v -0.163135 0.220000 0.123929 0.7020 0.7020 0.7020
v 0.163135 0.220000 0.276071 0.8117 0.8117 0.8117
v 0.065254 0.508000 0.230429 0.9725 0.9725 0.9725
v 0.016314 0.700000 0.207607 0.9804 0.9804 0.9804
v -0.097881 0.460000 0.154357 0.7372 0.7372 0.7372
v -0.097797 0.460000 0.154176 0.7098 0.7098 0.7098
v 0.016398 0.700000 0.207426 0.7568 0.7568 0.7568
v 0.065339 0.508000 0.230247 0.7372 0.7372 0.7372
v 0.163220 0.220000 0.275890 0.7020 0.7020 0.7020
v -0.163051 0.220000 0.123747 0.7020 0.7020 0.7020
v 0.110309 0.220000 0.290309 0.7098 0.7098 0.7098
v -0.110309 0.220000 0.069691 0.7176 0.7176 0.7176
v -0.044123 0.450400 0.135877 0.7451 0.7451 0.7451
v -0.011031 0.604000 0.168969 0.7843 0.7843 0.7843
v 0.066185 0.412000 0.246185 0.7255 0.7255 0.7255
v 0.066044 0.412000 0.246327 0.9294 0.9294 0.9294
v -0.011172 0.604000 0.169111 0.8117 0.8117 0.8117
v -0.044265 0.450400 0.136018 0.7294 0.7294 0.7294
v -0.110450 0.220000 0.069833 0.7020 0.7020 0.7020
v 0.110167 0.220000 0.290450 0.8549 0.8549 0.8549
vn -0.4226 -0.0000 0.9063
vn 0.4226 -0.0000 -0.9063
vn 0.7071 -0.0000 -0.7071
vn -0.7071 -0.0000 0.7071
vt 0.656738 0.859863
vt 0.663574 0.859863
vt 0.661523 0.868652
vt 0.660498 0.874512
vt 0.658105 0.867188
s 0
usemtl props
f 209/99/39 210/100/39 211/101/39 212/102/39 213/103/39
f 214/103/40 215/102/40 216/101/40 217/100/40 218/99/40
f 219/99/41 220/100/41 221/101/41 222/102/41 223/103/41
f 224/103/42 225/102/42 226/101/42 227/100/42 228/99/42
