# Blender 4.5.14 LTS
# www.blender.org
mtllib music_box.mtl
o music_box
v 0.110000 0.000000 0.075000 0.8000 0.8000 0.8000
v 0.110000 0.000000 -0.075000 0.8000 0.8000 0.8000
v -0.110000 0.000000 0.075000 0.7960 0.7960 0.7960
v 0.110000 0.090000 0.075000 0.9019 0.9019 0.9019
v -0.110000 0.090000 0.075000 0.9019 0.9019 0.9019
v 0.110000 0.090000 -0.075000 0.9019 0.9019 0.9019
v -0.110000 0.090000 -0.075000 0.9019 0.9019 0.9019
v -0.110000 0.000000 -0.075000 0.8000 0.8000 0.8000
v -0.100000 0.091000 0.065000 0.7098 0.7098 0.7098
v 0.100000 0.091000 0.065000 0.7059 0.7059 0.7059
v 0.100000 0.091000 -0.065000 0.7020 0.7020 0.7020
v -0.100000 0.091000 -0.065000 0.7059 0.7059 0.7059
vn -0.0000 -0.0000 1.0000
vn -0.0000 -0.0000 -1.0000
vn -1.0000 -0.0000 -0.0000
vn 1.0000 -0.0000 -0.0000
vn -0.0000 1.0000 -0.0000
vn -0.0000 -1.0000 -0.0000
vt 0.562988 0.859863
vt 0.593262 0.859863
vt 0.593262 0.874512
vt 0.562988 0.874512
vt 0.625488 0.859863
vt 0.640137 0.859863
vt 0.640137 0.865856
vt 0.625488 0.865856
vt 0.640137 0.868652
vt 0.625488 0.868652
vt 0.640137 0.869851
vt 0.625488 0.869851
vt 0.359863 0.844238
vt 0.390137 0.844238
vt 0.390137 0.874512
vt 0.359863 0.874512
s 0
usemtl props
f 3/1/1 1/2/1 4/3/1 5/4/1
f 2/5/2 8/6/2 7/7/2 6/8/2
f 8/5/3 3/6/3 5/9/3 7/10/3
f 1/5/4 2/6/4 6/9/4 4/10/4
f 5/5/5 4/6/5 6/11/5 7/12/5
f 8/5/6 2/6/6 1/11/6 3/12/6
f 9/13/5 10/14/5 11/15/5 12/16/5
o music_box_lid
v -0.110000 0.090000 0.075000 0.9255 0.9255 0.9255
v 0.110000 0.090000 0.075000 0.9255 0.9255 0.9255
v -0.110000 0.115000 -0.075000 1.0000 1.0000 1.0000
v -0.110000 0.090000 -0.075000 0.9255 0.9255 0.9255
v -0.110000 0.115000 0.075000 1.0000 1.0000 1.0000
v 0.110000 0.115000 0.075000 1.0000 1.0000 1.0000
v 0.110000 0.115000 -0.075000 1.0000 1.0000 1.0000
v 0.110000 0.090000 -0.075000 0.9255 0.9255 0.9255
vn -0.0000 -0.0000 1.0000
vn -0.0000 -0.0000 -1.0000
vn -1.0000 -0.0000 -0.0000
vn 1.0000 -0.0000 -0.0000
vn -0.0000 1.0000 -0.0000
vn -0.0000 -1.0000 -0.0000
vt 0.625488 0.859863
vt 0.640137 0.859863
vt 0.640137 0.861528
vt 0.625488 0.861528
vt 0.640137 0.862305
vt 0.625488 0.862305
vt 0.640137 0.869851
vt 0.625488 0.869851
vt 0.422363 0.844238
vt 0.437012 0.844238
vt 0.437012 0.874512
vt 0.422363 0.874512
s 0
usemtl props
f 13/17/7 14/18/7 18/19/7 17/20/7
f 20/17/8 16/18/8 15/19/8 19/20/8
f 16/17/9 13/18/9 17/21/9 15/22/9
f 14/17/10 20/18/10 19/21/10 18/22/10
f 17/17/11 18/18/11 19/23/11 15/24/11
f 16/25/12 20/26/12 14/27/12 13/28/12
o music_box_dancer
v 0.008000 0.002000 0.000000 0.7882 0.7882 0.7882
v 0.004000 0.012000 -0.006928 0.8196 0.8196 0.8196
v 0.008000 0.012000 0.000000 0.8353 0.8353 0.8353
v -0.004000 0.002000 -0.006928 0.7647 0.7647 0.7647
v -0.008000 0.002000 -0.000000 0.7804 0.7804 0.7804
v -0.004000 0.012000 -0.006928 0.8196 0.8196 0.8196
v -0.008000 0.012000 -0.000000 0.8353 0.8353 0.8353
v 0.004000 0.002000 0.006928 0.7647 0.7647 0.7647
v 0.004000 0.012000 0.006928 0.8117 0.8117 0.8117
v -0.004000 0.012000 0.006928 0.8157 0.8157 0.8157
v -0.004000 0.002000 0.006928 0.7686 0.7686 0.7686
v 0.004000 0.002000 -0.006928 0.7725 0.7725 0.7725
v 0.000000 0.012000 0.000000 0.7020 0.7020 0.7020
v -0.010000 0.037000 -0.017321 0.7608 0.7608 0.7608
v -0.020000 0.037000 -0.000000 0.8078 0.8078 0.8078
v 0.010000 0.037000 0.017321 0.7647 0.7647 0.7647
v 0.020000 0.037000 0.000000 0.8078 0.8078 0.8078
v 0.004000 0.047000 0.000000 0.8039 0.8039 0.8039
v 0.010000 0.037000 -0.017321 0.7608 0.7608 0.7608
v -0.002000 0.047000 -0.003464 0.7882 0.7882 0.7882
v 0.002000 0.047000 -0.003464 0.7843 0.7843 0.7843
v -0.004000 0.047000 -0.000000 0.8157 0.8157 0.8157
v -0.010000 0.037000 0.017321 0.7647 0.7647 0.7647
v 0.002000 0.047000 0.003464 0.7843 0.7843 0.7843
v -0.002000 0.047000 0.003464 0.7843 0.7843 0.7843
v -0.002000 0.072000 -0.003464 0.8157 0.8157 0.8157
v -0.002000 0.072000 0.003464 0.8157 0.8157 0.8157
v 0.004000 0.072000 0.000000 0.7020 0.7020 0.7020
v 0.002000 0.072000 -0.003464 0.8157 0.8157 0.8157
v -0.004000 0.072000 -0.000000 0.7020 0.7020 0.7020
v -0.008000 0.077000 -0.000000 0.8078 0.8078 0.8078
v 0.002000 0.072000 0.003464 0.8157 0.8157 0.8157
v 0.004000 0.077000 0.006928 0.7921 0.7921 0.7921
v 0.008000 0.077000 0.000000 0.8039 0.8039 0.8039
v 0.004000 0.077000 -0.006928 0.7921 0.7921 0.7921
v -0.004000 0.077000 -0.006928 0.7960 0.7960 0.7960
v -0.004000 0.077000 0.006928 0.7882 0.7882 0.7882
v 0.000000 0.087000 0.000000 0.7490 0.7490 0.7490
v -0.025000 0.068000 0.002000 0.8235 0.8235 0.8235
v 0.025000 0.068000 0.002000 0.8235 0.8235 0.8235
v 0.025000 0.068000 -0.002000 0.8196 0.8196 0.8196
v -0.025000 0.068000 -0.002000 0.8157 0.8157 0.8157
v 0.025000 0.072000 -0.002000 0.7764 0.7764 0.7764
v 0.025000 0.072000 0.002000 0.7804 0.7804 0.7804
v -0.025000 0.072000 0.002000 0.7804 0.7804 0.7804
v -0.025000 0.072000 -0.002000 0.7764 0.7764 0.7764
vn 0.8660 -0.0000 -0.5000
vn -0.0000 -0.0000 -1.0000
vn -0.8660 -0.0000 -0.5000
vn -0.8660 -0.0000 0.5000
vn -0.0000 -0.0000 1.0000
vn 0.8660 -0.0000 0.5000
vn -0.0000 1.0000 -0.0000
vn -0.0000 -1.0000 -0.0000
vn 0.3904 -0.6247 -0.6763
vn 0.7809 -0.6247 -0.0000
vn -0.3904 -0.6247 -0.6763
vn -0.7809 -0.6247 -0.0000
vn -0.3904 -0.6247 0.6763
vn 0.3904 -0.6247 0.6763
vn 0.5300 0.8480 -0.0000
vn 0.2650 0.8480 -0.4590
vn -0.2650 0.8480 -0.4590
vn -0.5300 0.8480 -0.0000
vn -0.2650 0.8480 0.4590
vn 0.2650 0.8480 0.4590
vn 0.4646 -0.3695 -0.8047
vn 0.9292 -0.3695 -0.0000
vn -0.4646 -0.3695 -0.8047
vn -0.9292 -0.3695 -0.0000
vn -0.4646 -0.3695 0.8047
vn 0.4646 -0.3695 0.8047
vn 0.7809 0.6247 -0.0000
vn 0.3904 0.6247 -0.6763
vn -0.3904 0.6247 -0.6763
vn -0.7809 0.6247 -0.0000
vn -0.3904 0.6247 0.6763
vn 0.3904 0.6247 0.6763
vn -1.0000 -0.0000 -0.0000
vn 1.0000 -0.0000 -0.0000
vt 0.172363 0.844238
vt 0.177409 0.844238
vt 0.177409 0.874512
vt 0.172363 0.874512
vt 0.182454 0.844238
vt 0.182454 0.874512
vt 0.187500 0.844238
vt 0.187500 0.874512
vt 0.192546 0.844238
vt 0.192546 0.874512
vt 0.197591 0.844238
vt 0.197591 0.874512
vt 0.202637 0.844238
vt 0.202637 0.874512
vt 0.202637 0.859375
vt 0.195068 0.874512
vt 0.179932 0.874512
vt 0.172363 0.859375
vt 0.179932 0.844238
vt 0.195068 0.844238
vt 0.299886 0.844238
vt 0.302409 0.854431
vt 0.297363 0.854431
vt 0.304932 0.844238
vt 0.307454 0.854431
vt 0.309977 0.844238
vt 0.312500 0.854431
vt 0.315023 0.844238
vt 0.317546 0.854431
vt 0.320068 0.844238
vt 0.322591 0.854431
vt 0.325114 0.844238
vt 0.327637 0.854431
vt 0.302409 0.860437
vt 0.297363 0.860437
vt 0.307454 0.860437
vt 0.312500 0.860437
vt 0.317546 0.860437
vt 0.322591 0.860437
vt 0.327637 0.860437
vt 0.302409 0.868396
vt 0.297363 0.868396
vt 0.307454 0.868396
vt 0.312500 0.868396
vt 0.317546 0.868396
vt 0.322591 0.868396
vt 0.327637 0.868396
vt 0.302409 0.870435
vt 0.297363 0.870435
vt 0.307454 0.870435
vt 0.312500 0.870435
vt 0.317546 0.870435
vt 0.322591 0.870435
vt 0.327637 0.870435
vt 0.299886 0.874512
vt 0.304932 0.874512
vt 0.309977 0.874512
vt 0.315023 0.874512
vt 0.320068 0.874512
vt 0.325114 0.874512
vt 0.297363 0.844238
vt 0.303418 0.844238
vt 0.303418 0.844723
vt 0.297363 0.844723
vt 0.297848 0.844238
vt 0.297848 0.844723
s 1
usemtl props
f 21/29/13 32/30/13 22/31/13 23/32/13
f 32/30/14 24/33/14 26/34/14 22/31/14
f 24/33/15 25/35/15 27/36/15 26/34/15
f 25/35/16 31/37/16 30/38/16 27/36/16
f 31/37/17 28/39/17 29/40/17 30/38/17
f 28/39/18 21/41/18 23/42/18 29/40/18
s 0
f 23/43/19 22/44/19 26/45/19 27/46/19 30/47/19 29/48/19
f 28/44/20 31/45/20 25/46/20 24/47/20 32/48/20 21/43/20
s 1
f 33/49/20 39/50/21 37/51/22
f 33/52/20 34/53/23 39/50/21
f 33/54/20 35/55/24 34/53/23
f 33/56/20 43/57/25 35/55/24
f 33/58/20 36/59/26 43/57/25
f 33/60/20 37/61/22 36/59/26
f 37/51/27 39/50/28 41/62/28 38/63/27
f 39/50/28 34/53/29 40/64/29 41/62/28
f 34/53/29 35/55/30 42/65/30 40/64/29
f 35/55/30 43/57/31 45/66/31 42/65/30
f 43/57/31 36/59/32 44/67/32 45/66/31
f 36/59/32 37/61/27 38/68/27 44/67/32
f 38/63/13 41/62/13 49/69/33 48/70/34
f 41/62/14 40/64/14 46/71/35 49/69/33
f 40/64/15 42/65/15 50/72/36 46/71/35
f 42/65/16 45/66/16 47/73/37 50/72/36
f 45/66/17 44/67/17 52/74/38 47/73/37
f 44/67/18 38/68/18 48/75/34 52/74/38
f 48/70/34 49/69/33 55/76/21 54/77/22
f 49/69/33 46/71/35 56/78/23 55/76/21
f 46/71/35 50/72/36 51/79/24 56/78/23
f 50/72/36 47/73/37 57/80/25 51/79/24
f 47/73/37 52/74/38 53/81/26 57/80/25
f 52/74/38 48/75/34 54/82/22 53/81/26
f 54/77/39 55/76/40 58/83/19
f 55/76/40 56/78/41 58/84/19
f 56/78/41 51/79/42 58/85/19
f 51/79/42 57/80/43 58/86/19
f 57/80/43 53/81/44 58/87/19
f 53/81/44 54/82/39 58/88/19
s 0
f 59/89/17 60/90/17 64/91/17 65/92/17
f 61/89/14 62/90/14 66/91/14 63/92/14
f 62/89/45 59/93/45 65/94/45 66/92/45
f 60/89/46 61/93/46 63/94/46 64/92/46
f 65/89/19 64/90/19 63/91/19 66/92/19
f 62/89/20 61/90/20 60/91/20 59/92/20
