# Blender 4.5.14 LTS
# www.blender.org
mtllib portrait_lady.mtl
o portrait_lady
v -0.350000 1.045000 0.060000 0.8549 0.8549 0.8549
v -0.430000 2.155000 0.000000 0.8000 0.8000 0.8000
v -0.430000 1.045000 0.000000 0.8000 0.8000 0.8000
v -0.430000 2.155000 0.060000 0.9098 0.9098 0.9098
v -0.350000 2.155000 0.000000 0.7490 0.7490 0.7490
v -0.430000 1.045000 0.060000 0.9098 0.9098 0.9098
v 0.350000 1.045000 0.060000 0.8549 0.8549 0.8549
v 0.350000 2.155000 0.060000 0.8549 0.8549 0.8549
v 0.350000 2.155000 0.000000 0.7490 0.7490 0.7490
v 0.430000 1.045000 0.060000 0.9098 0.9098 0.9098
v 0.430000 1.045000 0.000000 0.7960 0.7960 0.7960
v 0.430000 2.155000 0.060000 0.9098 0.9098 0.9098
v 0.430000 2.155000 0.000000 0.7960 0.7960 0.7960
v 0.350000 1.045000 0.000000 0.7490 0.7490 0.7490
v -0.350000 2.075000 0.000000 0.7020 0.7020 0.7020
v -0.350000 2.075000 0.060000 0.8470 0.8470 0.8470
v 0.350000 2.075000 0.060000 0.8509 0.8509 0.8509
v 0.350000 2.075000 0.000000 0.7020 0.7020 0.7020
v -0.350000 2.155000 0.060000 0.8549 0.8549 0.8549
v 0.350000 1.125000 0.060000 0.8470 0.8470 0.8470
v -0.350000 1.125000 0.060000 0.8509 0.8509 0.8509
v -0.350000 1.125000 0.000000 0.7020 0.7020 0.7020
v -0.350000 1.045000 0.000000 0.7490 0.7490 0.7490
v 0.350000 1.125000 0.000000 0.7020 0.7020 0.7020
v -0.350000 1.125000 0.020000 0.8117 0.8117 0.8117
v 0.350000 1.125000 0.020000 0.8157 0.8157 0.8157
v 0.350000 2.075000 0.020000 0.8157 0.8157 0.8157
v -0.350000 2.075000 0.020000 0.8117 0.8117 0.8117
vn -0.0000 -0.0000 1.0000
vn -0.0000 -0.0000 -1.0000
vn -1.0000 -0.0000 -0.0000
vn 1.0000 -0.0000 -0.0000
vn -0.0000 1.0000 -0.0000
vn -0.0000 -1.0000 -0.0000
vt 0.594238 0.859863
vt 0.595294 0.859863
vt 0.595294 0.874512
vt 0.594238 0.874512
vt 0.595030 0.859863
vt 0.595030 0.874512
vt 0.603613 0.859863
vt 0.603613 0.866895
vt 0.594238 0.866895
vt 0.608887 0.859863
vt 0.608887 0.861537
vt 0.594238 0.861537
vt 0.601270 0.859863
vt 0.601270 0.869238
vt 0.594238 0.869238
vt 0.608887 0.861119
vt 0.594238 0.861119
vt 0.141113 0.832520
vt 0.171387 0.832520
vt 0.171387 0.874512
vt 0.141113 0.874512
s 0
usemtl props
f 6/1/1 1/2/1 19/3/1 4/4/1
f 23/1/2 3/2/2 2/3/2 5/4/2
f 3/1/3 6/5/3 4/6/3 2/4/3
f 1/1/4 23/5/4 5/6/4 19/4/4
f 4/1/5 19/7/5 5/8/5 2/9/5
f 3/1/6 23/7/6 1/8/6 6/9/6
f 7/1/1 10/2/1 12/3/1 8/4/1
f 11/1/2 14/2/2 9/3/2 13/4/2
f 14/1/3 7/5/3 8/6/3 9/4/3
f 10/1/4 11/5/4 13/6/4 12/4/4
f 8/1/5 12/7/5 13/8/5 9/9/5
f 14/1/6 11/7/6 10/8/6 7/9/6
f 16/1/1 17/10/1 8/11/1 19/12/1
f 18/1/2 15/10/2 5/11/2 9/12/2
f 15/1/3 16/13/3 19/14/3 5/15/3
f 17/1/4 18/13/4 9/14/4 8/15/4
f 19/1/5 8/10/5 9/16/5 5/17/5
f 15/1/6 18/10/6 17/16/6 16/17/6
f 1/1/1 7/10/1 20/11/1 21/12/1
f 14/1/2 23/10/2 22/11/2 24/12/2
f 23/1/3 1/13/3 21/14/3 22/15/3
f 7/1/4 14/13/4 24/14/4 20/15/4
f 21/1/5 20/10/5 24/16/5 22/17/5
f 23/1/6 14/10/6 7/16/6 1/17/6
f 25/18/1 26/19/1 27/20/1 28/21/1
