# Blender 4.5.14 LTS
# www.blender.org
mtllib sconce_candle.mtl
o sconce_candle
v -0.060000 1.970000 0.020000 0.9058 0.9058 0.9058
v -0.060000 1.730000 0.020000 0.9019 0.9019 0.9019
v -0.060000 1.970000 0.000000 0.8000 0.8000 0.8000
v 0.060000 1.730000 0.020000 0.9019 0.9019 0.9019
v 0.060000 1.970000 0.000000 0.7960 0.7960 0.7960
v 0.060000 1.970000 0.020000 0.9019 0.9019 0.9019
v -0.060000 1.730000 0.000000 0.8000 0.8000 0.8000
v 0.060000 1.730000 0.000000 0.7960 0.7960 0.7960
v -0.082144 1.772446 0.101531 0.9607 0.9607 0.9607
v 0.005657 1.800000 0.025657 0.7020 0.7020 0.7020
v -0.005657 1.800000 0.014343 0.7020 0.7020 0.7020
v -0.075350 1.780000 0.106510 0.9843 0.9843 0.9843
v -0.134046 1.864961 0.118015 0.7020 0.7020 0.7020
v -0.137470 1.860000 0.127589 0.8000 0.8000 0.8000
v -0.077856 1.787554 0.098469 0.9058 0.9058 0.9058
v -0.084650 1.780000 0.093490 0.8745 0.8745 0.8745
v -0.142530 1.860000 0.112411 0.7804 0.7804 0.7804
v -0.000985 1.807878 0.020985 0.8157 0.8157 0.8157
v 0.000985 1.792122 0.019015 0.7608 0.7608 0.7608
v -0.145954 1.855039 0.121985 0.8784 0.8784 0.8784
v -0.110000 1.860000 0.120000 0.9451 0.9451 0.9451
v -0.110000 1.875000 0.120000 0.9529 0.9529 0.9529
v -0.155000 1.860000 0.094019 0.8902 0.8902 0.8902
v -0.170000 1.860000 0.120000 0.9804 0.9804 0.9804
v -0.155000 1.860000 0.145981 0.9921 0.9921 0.9921
v -0.155000 1.875000 0.145981 0.9843 0.9843 0.9843
v -0.125000 1.875000 0.145981 0.9843 0.9843 0.9843
v -0.125000 1.860000 0.145981 0.9843 0.9843 0.9843
v -0.125000 1.875000 0.094019 0.8706 0.8706 0.8706
v -0.155000 1.875000 0.094019 0.8823 0.8823 0.8823
v -0.170000 1.875000 0.120000 0.9647 0.9647 0.9647
v -0.125000 1.860000 0.094019 0.8706 0.8706 0.8706
v -0.146000 1.875000 0.109608 0.7725 0.7725 0.7725
v -0.146000 1.975000 0.109608 0.9176 0.9176 0.9176
v -0.152000 1.875000 0.120000 0.7960 0.7960 0.7960
v -0.152000 1.975000 0.120000 0.9686 0.9686 0.9686
v -0.134000 1.975000 0.130392 0.9843 0.9843 0.9843
v -0.146000 1.975000 0.130392 0.9804 0.9804 0.9804
v -0.134000 1.875000 0.130392 0.8039 0.8039 0.8039
v -0.128000 1.975000 0.120000 0.9647 0.9647 0.9647
v -0.134000 1.975000 0.109608 0.9137 0.9137 0.9137
v -0.146000 1.875000 0.130392 0.8039 0.8039 0.8039
v -0.134000 1.875000 0.109608 0.7725 0.7725 0.7725
v -0.128000 1.875000 0.120000 0.7960 0.7960 0.7960
v -0.140000 1.975000 0.120000 0.7020 0.7020 0.7020
v -0.140000 1.985000 0.113000 0.9019 0.9019 0.9019
v -0.147000 1.985000 0.120000 0.9490 0.9490 0.9490
v -0.133000 1.985000 0.120000 0.9451 0.9451 0.9451
v -0.134000 1.999000 0.120000 0.9725 0.9725 0.9725
v -0.140000 1.985000 0.127000 0.9686 0.9686 0.9686
v -0.140000 1.999000 0.114000 0.9215 0.9215 0.9215
v -0.140000 2.020000 0.120000 0.9725 0.9725 0.9725
v -0.146000 1.999000 0.120000 0.9686 0.9686 0.9686
v -0.140000 1.999000 0.126000 0.9960 0.9960 0.9960
v 0.005657 1.800000 0.014343 0.7020 0.7020 0.7020
v 0.082144 1.772446 0.101531 0.9568 0.9568 0.9568
v 0.000985 1.807878 0.020985 0.8157 0.8157 0.8157
v 0.077856 1.787554 0.098469 0.9058 0.9058 0.9058
v -0.005657 1.800000 0.025657 0.7020 0.7020 0.7020
v 0.145954 1.855039 0.121985 0.8745 0.8745 0.8745
v 0.084650 1.780000 0.093490 0.8745 0.8745 0.8745
v 0.142530 1.860000 0.112411 0.7843 0.7843 0.7843
v 0.134046 1.864961 0.118015 0.7020 0.7020 0.7020
v 0.075350 1.780000 0.106510 0.9882 0.9882 0.9882
v 0.137470 1.860000 0.127589 0.8000 0.8000 0.8000
v -0.000985 1.792122 0.019015 0.7608 0.7608 0.7608
v 0.170000 1.875000 0.120000 0.9647 0.9647 0.9647
v 0.155000 1.860000 0.094019 0.8902 0.8902 0.8902
v 0.125000 1.860000 0.094019 0.8627 0.8627 0.8627
v 0.155000 1.875000 0.094019 0.8862 0.8862 0.8862
v 0.110000 1.875000 0.120000 0.9568 0.9568 0.9568
v 0.155000 1.875000 0.145981 0.9843 0.9843 0.9843
v 0.125000 1.875000 0.145981 0.9843 0.9843 0.9843
v 0.155000 1.860000 0.145981 0.9921 0.9921 0.9921
v 0.170000 1.860000 0.120000 0.9764 0.9764 0.9764
v 0.125000 1.875000 0.094019 0.8706 0.8706 0.8706
v 0.125000 1.860000 0.145981 0.9882 0.9882 0.9882
v 0.110000 1.860000 0.120000 0.9490 0.9490 0.9490
v 0.152000 1.875000 0.120000 0.7960 0.7960 0.7960
v 0.152000 1.975000 0.120000 0.9647 0.9647 0.9647
v 0.146000 1.875000 0.109608 0.7764 0.7764 0.7764
v 0.134000 1.975000 0.109608 0.9098 0.9098 0.9098
v 0.146000 1.975000 0.109608 0.9176 0.9176 0.9176
v 0.134000 1.875000 0.109608 0.7686 0.7686 0.7686
v 0.134000 1.875000 0.130392 0.8039 0.8039 0.8039
v 0.134000 1.975000 0.130392 0.9804 0.9804 0.9804
v 0.128000 1.975000 0.120000 0.9647 0.9647 0.9647
v 0.146000 1.975000 0.130392 0.9843 0.9843 0.9843
v 0.146000 1.875000 0.130392 0.8039 0.8039 0.8039
v 0.128000 1.875000 0.120000 0.7921 0.7921 0.7921
v 0.140000 1.975000 0.120000 0.7020 0.7020 0.7020
v 0.133000 1.985000 0.120000 0.9451 0.9451 0.9451
v 0.147000 1.985000 0.120000 0.9451 0.9451 0.9451
v 0.140000 1.985000 0.113000 0.9019 0.9019 0.9019
v 0.140000 1.985000 0.127000 0.9686 0.9686 0.9686
v 0.140000 1.999000 0.126000 0.9960 0.9960 0.9960
v 0.134000 1.999000 0.120000 0.9686 0.9686 0.9686
v 0.146000 1.999000 0.120000 0.9725 0.9725 0.9725
v 0.140000 1.999000 0.114000 0.9215 0.9215 0.9215
v 0.140000 2.020000 0.120000 0.9725 0.9725 0.9725
vn -0.0000 -0.0000 1.0000
vn -0.0000 -0.0000 -1.0000
vn -1.0000 -0.0000 -0.0000
vn 1.0000 -0.0000 -0.0000
vn -0.0000 1.0000 -0.0000
vn -0.0000 -1.0000 -0.0000
vn -0.4005 -0.7123 -0.5764
vn -0.6012 -0.6230 -0.5004
vn -0.6116 -0.6170 -0.4952
vn 0.5686 -0.7209 0.3962
vn 0.3980 0.7123 0.5782
vn 0.6109 0.6169 0.4963
vn 0.6029 0.6215 0.5002
vn -0.5758 0.7198 -0.3877
vn -0.7803 -0.4899 -0.3887
vn -0.2573 -0.4214 0.8696
vn 0.7822 0.4879 0.3874
vn 0.2695 0.4084 -0.8721
vn 0.6963 0.1741 -0.6963
vn -0.5883 0.7845 0.1961
vn 0.8660 -0.0000 -0.5000
vn -0.8660 -0.0000 -0.5000
vn -0.8660 -0.0000 0.5000
vn 0.8660 -0.0000 0.5000
vn 0.6337 -0.4436 -0.6337
vn 0.6971 -0.1680 -0.6971
vn -0.6337 -0.4436 -0.6337
vn -0.6971 -0.1680 -0.6971
vn -0.6337 -0.4436 0.6337
vn -0.6971 -0.1680 0.6971
vn 0.6337 -0.4436 0.6337
vn 0.6971 -0.1680 0.6971
vn 0.7021 0.1185 -0.7021
vn -0.7021 0.1185 -0.7021
vn -0.7021 0.1185 0.7021
vn 0.7021 0.1185 0.7021
vn 0.6931 0.1980 -0.6931
vn -0.6931 0.1980 -0.6931
vn -0.6931 0.1980 0.6931
vn 0.6931 0.1980 0.6931
vn -0.5686 -0.7209 0.3962
vn 0.4005 -0.7123 -0.5764
vn 0.6116 -0.6170 -0.4952
vn 0.6012 -0.6230 -0.5004
vn 0.5758 0.7198 -0.3877
vn -0.3980 0.7123 0.5782
vn -0.6029 0.6215 0.5002
vn -0.6109 0.6169 0.4963
vn 0.2573 -0.4214 0.8696
vn 0.7803 -0.4899 -0.3887
vn -0.2695 0.4084 -0.8721
vn -0.7822 0.4879 0.3874
vn -0.6963 0.1741 -0.6963
vn 0.5883 0.7845 0.1961
vt 0.422363 0.844238
vt 0.437012 0.844238
vt 0.437012 0.874512
vt 0.422363 0.874512
vt 0.172363 0.844238
vt 0.187500 0.844238
vt 0.187500 0.874512
vt 0.172363 0.874512
vt 0.174886 0.844238
vt 0.174886 0.874512
vt 0.202637 0.844238
vt 0.202637 0.849284
vt 0.172363 0.849284
vt 0.179932 0.844238
vt 0.179932 0.859375
vt 0.172363 0.859375
vt 0.187500 0.859375
vt 0.195068 0.844238
vt 0.195068 0.859375
vt 0.202637 0.859375
vt 0.179932 0.874512
vt 0.195068 0.874512
vt 0.202637 0.874512
vt 0.181068 0.874512
vt 0.172363 0.855417
vt 0.193932 0.844238
vt 0.202637 0.863333
vt 0.177409 0.844238
vt 0.177409 0.874512
vt 0.182454 0.844238
vt 0.182454 0.874512
vt 0.192546 0.844238
vt 0.192546 0.874512
vt 0.197591 0.844238
vt 0.197591 0.874512
vt 0.391113 0.844238
vt 0.396159 0.844238
vt 0.396159 0.874512
vt 0.391113 0.874512
vt 0.401204 0.844238
vt 0.401204 0.874512
vt 0.406250 0.844238
vt 0.406250 0.874512
vt 0.411296 0.844238
vt 0.411296 0.874512
vt 0.416341 0.844238
vt 0.416341 0.874512
vt 0.421387 0.844238
vt 0.421387 0.874512
vt 0.421387 0.859375
vt 0.413818 0.874512
vt 0.398682 0.874512
vt 0.391113 0.859375
vt 0.398682 0.844238
vt 0.413818 0.844238
vt 0.657593 0.859863
vt 0.658447 0.863582
vt 0.656738 0.863582
vt 0.659302 0.859863
vt 0.660156 0.863582
vt 0.661011 0.859863
vt 0.661865 0.863582
vt 0.662720 0.859863
vt 0.663574 0.863582
vt 0.658447 0.867858
vt 0.656738 0.867858
vt 0.660156 0.867858
vt 0.661865 0.867858
vt 0.663574 0.867858
vt 0.657593 0.874512
vt 0.659302 0.874512
vt 0.661011 0.874512
vt 0.662720 0.874512
vt 0.181068 0.844238
vt 0.202637 0.855417
vt 0.193932 0.874512
vt 0.172363 0.863333
s 0
usemtl props
f 2/1/1 4/2/1 6/3/1 1/4/1
f 8/5/2 7/6/2 3/7/2 5/8/2
f 7/5/3 2/9/3 1/10/3 3/8/3
f 4/5/4 8/9/4 5/10/4 6/8/4
f 1/5/5 6/11/5 5/12/5 3/13/5
f 7/5/6 8/11/6 4/12/6 2/13/6
s 1
f 11/5/7 19/14/7 9/15/8 16/16/9
f 19/14/10 10/6/10 12/17/10 9/15/10
f 10/6/11 18/18/11 15/19/12 12/17/13
f 18/18/14 11/11/14 16/20/14 15/19/14
f 16/16/9 9/15/8 20/21/15 17/8/15
f 9/15/16 12/17/16 14/7/16 20/21/16
f 12/17/13 15/19/12 13/22/17 14/7/17
f 15/19/18 16/20/18 17/23/18 13/22/18
s 0
f 18/7/19 10/16/19 19/6/19 11/20/19
f 17/24/20 20/25/20 14/26/20 13/27/20
s 1
f 21/5/21 32/28/21 29/29/21 22/8/21
f 32/28/2 23/30/2 30/31/2 29/29/2
f 23/30/22 24/6/22 31/7/22 30/31/22
f 24/6/23 25/32/23 26/33/23 31/7/23
f 25/32/1 28/34/1 27/35/1 26/33/1
f 28/34/24 21/11/24 22/23/24 27/35/24
s 0
f 22/20/5 29/22/5 30/21/5 31/16/5 26/14/5 27/18/5
f 28/22/6 25/21/6 24/16/6 23/14/6 32/18/6 21/20/6
s 1
f 44/36/21 43/37/21 41/38/21 40/39/21
f 43/37/2 33/40/2 34/41/2 41/38/2
f 33/40/22 35/42/22 36/43/22 34/41/22
f 35/42/23 42/44/23 38/45/23 36/43/23
f 42/44/1 39/46/1 37/47/1 38/45/1
f 39/46/24 44/48/24 40/49/24 37/47/24
s 0
f 40/50/5 41/51/5 34/52/5 36/53/5 38/54/5 37/55/5
f 39/51/6 42/52/6 35/53/6 33/54/6 43/55/6 44/50/6
s 1
f 45/56/25 46/57/26 48/58/26
f 45/59/27 47/60/28 46/57/28
f 45/61/29 50/62/30 47/60/30
f 45/63/31 48/64/32 50/62/32
f 48/58/26 46/57/26 51/65/33 49/66/33
f 46/57/28 47/60/28 53/67/34 51/65/34
f 47/60/30 50/62/30 54/68/35 53/67/35
f 50/62/32 48/64/32 49/69/36 54/68/36
f 49/66/33 51/65/33 52/70/37
f 51/65/34 53/67/34 52/71/38
f 53/67/35 54/68/35 52/72/39
f 54/68/36 49/69/36 52/73/40
f 59/5/41 66/14/41 56/15/41 64/16/41
f 66/14/42 55/6/42 61/17/43 56/15/44
f 55/6/45 57/18/45 58/19/45 61/17/45
f 57/18/46 59/11/46 64/20/47 58/19/48
f 64/16/49 56/15/49 60/21/49 65/8/49
f 56/15/44 61/17/43 62/7/50 60/21/50
f 61/17/51 58/19/51 63/22/51 62/7/51
f 58/19/48 64/20/47 65/23/52 63/22/52
s 0
f 57/7/53 55/16/53 66/6/53 59/20/53
f 65/74/54 60/75/54 62/76/54 63/77/54
s 1
f 75/5/21 68/28/21 70/29/21 67/8/21
f 68/28/2 69/30/2 76/31/2 70/29/2
f 69/30/22 78/6/22 71/7/22 76/31/22
f 78/6/23 77/32/23 73/33/23 71/7/23
f 77/32/1 74/34/1 72/35/1 73/33/1
f 74/34/24 75/11/24 67/23/24 72/35/24
s 0
f 67/20/5 70/22/5 76/21/5 71/16/5 73/14/5 72/18/5
f 74/22/6 77/21/6 78/16/6 69/14/6 68/18/6 75/20/6
s 1
f 79/36/21 81/37/21 83/38/21 80/39/21
f 81/37/2 84/40/2 82/41/2 83/38/2
f 84/40/22 90/42/22 87/43/22 82/41/22
f 90/42/23 85/44/23 86/45/23 87/43/23
f 85/44/1 89/46/1 88/47/1 86/45/1
f 89/46/24 79/48/24 80/49/24 88/47/24
s 0
f 80/50/5 83/51/5 82/52/5 87/53/5 86/54/5 88/55/5
f 89/51/6 85/52/6 90/53/6 84/54/6 81/55/6 79/50/6
s 1
f 91/56/25 94/57/26 93/58/26
f 91/59/27 92/60/28 94/57/28
f 91/61/29 95/62/30 92/60/30
f 91/63/31 93/64/32 95/62/32
f 93/58/26 94/57/26 99/65/33 98/66/33
f 94/57/28 92/60/28 97/67/34 99/65/34
f 92/60/30 95/62/30 96/68/35 97/67/35
f 95/62/32 93/64/32 98/69/36 96/68/36
f 98/66/33 99/65/33 100/70/37
f 99/65/34 97/67/34 100/71/38
f 97/67/35 96/68/35 100/72/39
f 96/68/36 98/69/36 100/73/40
