# Blender 4.5.14 LTS
# www.blender.org
mtllib suit_of_armour.mtl
o suit_of_armour
v -0.300000 0.120000 -0.250000 0.9137 0.9137 0.9137
v 0.300000 0.120000 -0.250000 0.9176 0.9176 0.9176
v -0.300000 0.000000 -0.250000 0.7960 0.7960 0.7960
v -0.300000 0.000000 0.250000 0.7960 0.7960 0.7960
v -0.300000 0.120000 0.250000 0.9098 0.9098 0.9098
v 0.300000 0.000000 -0.250000 0.8000 0.8000 0.8000
v 0.300000 0.120000 0.250000 0.9137 0.9137 0.9137
v 0.300000 0.000000 0.250000 0.8000 0.8000 0.8000
v -0.035000 0.120000 0.140000 0.7686 0.7686 0.7686
v -0.165000 0.180000 0.140000 0.9058 0.9058 0.9058
v -0.165000 0.180000 -0.080000 0.9058 0.9058 0.9058
v -0.165000 0.120000 0.140000 0.7921 0.7921 0.7921
v -0.035000 0.120000 -0.080000 0.7804 0.7804 0.7804
v -0.035000 0.180000 -0.080000 0.8706 0.8706 0.8706
v -0.035000 0.180000 0.140000 0.8666 0.8666 0.8666
v -0.165000 0.120000 -0.080000 0.8000 0.8000 0.8000
v -0.045000 0.180000 0.000000 0.7647 0.7647 0.7647
v -0.054038 0.600000 -0.045962 0.8353 0.8353 0.8353
v -0.100000 0.180000 -0.055000 0.8078 0.8078 0.8078
v -0.100000 0.600000 -0.065000 0.8666 0.8666 0.8666
v -0.138891 0.180000 -0.038891 0.8078 0.8078 0.8078
v -0.145962 0.600000 -0.045962 0.8745 0.8745 0.8745
v -0.165000 0.600000 -0.000000 0.8745 0.8745 0.8745
v -0.138891 0.180000 0.038891 0.8039 0.8039 0.8039
v -0.061109 0.180000 0.038891 0.7764 0.7764 0.7764
v -0.054038 0.600000 0.045962 0.8274 0.8274 0.8274
v -0.035000 0.600000 0.000000 0.7960 0.7960 0.7960
v -0.145962 0.600000 0.045962 0.8666 0.8666 0.8666
v -0.100000 0.600000 0.065000 0.8392 0.8392 0.8392
v -0.100000 0.180000 0.055000 0.7804 0.7804 0.7804
v -0.155000 0.180000 -0.000000 0.8274 0.8274 0.8274
v -0.061109 0.180000 -0.038891 0.7882 0.7882 0.7882
v -0.030000 0.600000 0.000000 0.8431 0.8431 0.8431
v -0.050503 0.600000 -0.049497 0.8980 0.8980 0.8980
v -0.100000 0.600000 -0.070000 0.9451 0.9451 0.9451
v -0.100000 0.660000 -0.075000 0.9882 0.9882 0.9882
v -0.153033 0.660000 -0.053033 0.9960 0.9960 0.9960
v -0.149497 0.600000 -0.049497 0.9568 0.9568 0.9568
v -0.175000 0.660000 -0.000000 1.0000 1.0000 1.0000
v -0.046967 0.660000 0.053033 0.9058 0.9058 0.9058
v -0.100000 0.660000 0.075000 0.9333 0.9333 0.9333
v -0.025000 0.660000 0.000000 0.8353 0.8353 0.8353
v -0.046967 0.660000 -0.053033 0.9294 0.9294 0.9294
v -0.170000 0.720000 -0.000000 0.9372 0.9372 0.9372
v -0.153033 0.660000 0.053033 0.9804 0.9804 0.9804
v -0.050503 0.720000 0.049497 0.8588 0.8588 0.8588
v -0.050503 0.600000 0.049497 0.8784 0.8784 0.8784
v -0.100000 0.600000 0.070000 0.9019 0.9019 0.9019
v -0.149497 0.600000 0.049497 0.9451 0.9451 0.9451
v -0.170000 0.600000 -0.000000 0.9568 0.9568 0.9568
v -0.050503 0.720000 -0.049497 0.8823 0.8823 0.8823
v -0.043431 1.080000 -0.056569 0.7020 0.7020 0.7020
v -0.156569 1.080000 -0.056569 0.7020 0.7020 0.7020
v -0.156569 1.080000 0.056569 0.7020 0.7020 0.7020
v -0.149497 0.720000 0.049497 0.9215 0.9215 0.9215
v -0.100000 0.720000 0.070000 0.8862 0.8862 0.8862
v -0.020000 1.080000 0.000000 0.7020 0.7020 0.7020
v -0.043431 1.080000 0.056569 0.7020 0.7020 0.7020
v -0.100000 1.080000 -0.080000 0.7020 0.7020 0.7020
v -0.180000 1.080000 -0.000000 0.7020 0.7020 0.7020
v -0.100000 1.080000 0.080000 0.7020 0.7020 0.7020
v -0.149497 0.720000 -0.049497 0.9372 0.9372 0.9372
v -0.100000 0.720000 -0.070000 0.9294 0.9294 0.9294
v -0.030000 0.720000 0.000000 0.8078 0.8078 0.8078
v 0.035000 0.120000 0.140000 0.7686 0.7686 0.7686
v 0.035000 0.120000 -0.080000 0.7764 0.7764 0.7764
v 0.165000 0.120000 0.140000 0.8000 0.8000 0.8000
v 0.165000 0.120000 -0.080000 0.8000 0.8000 0.8000
v 0.165000 0.180000 -0.080000 0.9058 0.9058 0.9058
v 0.165000 0.180000 0.140000 0.9098 0.9098 0.9098
v 0.035000 0.180000 0.140000 0.8706 0.8706 0.8706
v 0.035000 0.180000 -0.080000 0.8666 0.8666 0.8666
v 0.155000 0.180000 0.000000 0.8313 0.8313 0.8313
v 0.138891 0.180000 -0.038891 0.8078 0.8078 0.8078
v 0.165000 0.600000 0.000000 0.8706 0.8706 0.8706
v 0.100000 0.180000 -0.055000 0.8078 0.8078 0.8078
v 0.100000 0.600000 -0.065000 0.8666 0.8666 0.8666
v 0.145962 0.600000 -0.045962 0.8706 0.8706 0.8706
v 0.054038 0.600000 -0.045962 0.8392 0.8392 0.8392
v 0.045000 0.180000 -0.000000 0.7647 0.7647 0.7647
v 0.054038 0.600000 0.045962 0.8235 0.8235 0.8235
v 0.100000 0.180000 0.055000 0.7921 0.7921 0.7921
v 0.138891 0.180000 0.038891 0.8039 0.8039 0.8039
v 0.145962 0.600000 0.045962 0.8706 0.8706 0.8706
v 0.100000 0.600000 0.065000 0.8588 0.8588 0.8588
v 0.035000 0.600000 -0.000000 0.7882 0.7882 0.7882
v 0.061109 0.180000 0.038891 0.7725 0.7725 0.7725
v 0.061109 0.180000 -0.038891 0.7882 0.7882 0.7882
v 0.149497 0.600000 -0.049497 0.9568 0.9568 0.9568
v 0.153033 0.660000 -0.053033 1.0000 1.0000 1.0000
v 0.100000 0.660000 -0.075000 0.9921 0.9921 0.9921
v 0.030000 0.600000 -0.000000 0.8353 0.8353 0.8353
v 0.050503 0.600000 0.049497 0.8823 0.8823 0.8823
v 0.100000 0.660000 0.075000 0.9725 0.9725 0.9725
v 0.046967 0.660000 0.053033 0.9019 0.9019 0.9019
v 0.153033 0.660000 0.053033 0.9960 0.9960 0.9960
v 0.149497 0.600000 0.049497 0.9529 0.9529 0.9529
v 0.170000 0.600000 0.000000 0.9529 0.9529 0.9529
v 0.175000 0.660000 0.000000 0.9960 0.9960 0.9960
v 0.149497 0.720000 -0.049497 0.9372 0.9372 0.9372
v 0.170000 0.720000 0.000000 0.9333 0.9333 0.9333
v 0.100000 0.720000 -0.070000 0.9333 0.9333 0.9333
v 0.046967 0.660000 -0.053033 0.9294 0.9294 0.9294
v 0.050503 0.720000 -0.049497 0.8784 0.8784 0.8784
v 0.025000 0.660000 -0.000000 0.8235 0.8235 0.8235
v 0.050503 0.720000 0.049497 0.8588 0.8588 0.8588
v 0.100000 0.600000 0.070000 0.9255 0.9255 0.9255
v 0.050503 0.600000 -0.049497 0.8980 0.8980 0.8980
v 0.100000 0.600000 -0.070000 0.9451 0.9451 0.9451
v 0.100000 1.080000 -0.080000 0.7020 0.7020 0.7020
v 0.156569 1.080000 -0.056569 0.7020 0.7020 0.7020
v 0.020000 1.080000 -0.000000 0.7020 0.7020 0.7020
v 0.030000 0.720000 -0.000000 0.8000 0.8000 0.8000
v 0.043431 1.080000 0.056569 0.7020 0.7020 0.7020
v 0.100000 0.720000 0.070000 0.9176 0.9176 0.9176
v 0.180000 1.080000 0.000000 0.7020 0.7020 0.7020
v 0.043431 1.080000 -0.056569 0.7020 0.7020 0.7020
v 0.100000 1.080000 0.080000 0.7020 0.7020 0.7020
v 0.156569 1.080000 0.056569 0.7020 0.7020 0.7020
v 0.149497 0.720000 0.049497 0.9333 0.9333 0.9333
v 0.200000 1.120000 0.000000 0.8706 0.8706 0.8706
v 0.055623 1.060000 -0.128393 0.7020 0.7020 0.7020
v 0.061803 1.120000 -0.142658 0.9921 0.9921 0.9921
v -0.055623 1.060000 -0.128393 0.7020 0.7020 0.7020
v -0.061803 1.120000 -0.142658 0.9882 0.9882 0.9882
v -0.200000 1.120000 -0.000000 0.8627 0.8627 0.8627
v -0.145623 1.060000 0.079351 0.7020 0.7020 0.7020
v -0.061803 1.120000 0.142658 0.7020 0.7020 0.7020
v 0.055623 1.060000 0.128393 0.7020 0.7020 0.7020
v 0.145623 1.060000 0.079351 0.7020 0.7020 0.7020
v 0.180000 1.060000 0.000000 0.7020 0.7020 0.7020
v 0.161803 1.120000 0.088168 0.9098 0.9098 0.9098
v 0.161803 1.120000 -0.088168 0.9764 0.9764 0.9764
v 0.052533 1.200000 -0.121260 0.9921 0.9921 0.9921
v -0.161803 1.120000 -0.088168 0.9686 0.9686 0.9686
v -0.052533 1.200000 -0.121260 0.9882 0.9882 0.9882
v -0.170000 1.200000 -0.000000 0.8627 0.8627 0.8627
v -0.137533 1.200000 0.074943 0.9019 0.9019 0.9019
v -0.161803 1.120000 0.088168 0.8902 0.8902 0.8902
v 0.061803 1.120000 0.142658 0.9764 0.9764 0.9764
v 0.137533 1.200000 0.074943 0.9294 0.9294 0.9294
v 0.170000 1.200000 0.000000 0.8627 0.8627 0.8627
v 0.137533 1.200000 -0.074943 0.9568 0.9568 0.9568
v 0.190000 1.400000 0.000000 0.7020 0.7020 0.7020
v 0.058713 1.400000 -0.135526 0.9960 0.9960 0.9960
v -0.137533 1.200000 -0.074943 0.9568 0.9568 0.9568
v -0.052533 1.200000 0.121260 0.7921 0.7921 0.7921
v 0.052533 1.200000 0.121260 0.9686 0.9686 0.9686
v 0.058713 1.400000 0.135526 0.9804 0.9804 0.9804
v 0.153713 1.400000 0.083759 0.9255 0.9255 0.9255
v 0.153713 1.400000 -0.083759 0.9333 0.9333 0.9333
v -0.058713 1.400000 -0.135526 1.0000 1.0000 1.0000
v -0.153713 1.400000 -0.083759 0.9333 0.9333 0.9333
v -0.169894 1.500000 -0.092576 0.9451 0.9451 0.9451
v -0.190000 1.400000 -0.000000 0.7020 0.7020 0.7020
v -0.210000 1.500000 -0.000000 0.7020 0.7020 0.7020
v -0.153713 1.400000 0.083759 0.9098 0.9098 0.9098
v -0.058713 1.400000 0.135526 0.7216 0.7216 0.7216
v 0.169894 1.500000 -0.092576 0.9451 0.9451 0.9451
v 0.064894 1.500000 -0.149791 0.9647 0.9647 0.9647
v -0.064894 1.500000 -0.149791 0.9607 0.9607 0.9607
v -0.169894 1.500000 0.092576 0.9255 0.9255 0.9255
v 0.000000 1.520000 0.000000 0.7020 0.7020 0.7020
v -0.064894 1.500000 0.149791 0.7020 0.7020 0.7020
v 0.064894 1.500000 0.149791 0.9451 0.9451 0.9451
v 0.169894 1.500000 0.092576 0.9411 0.9411 0.9411
v 0.210000 1.500000 0.000000 0.7020 0.7020 0.7020
v -0.055623 1.060000 0.128393 0.7020 0.7020 0.7020
v -0.180000 1.060000 -0.000000 0.7020 0.7020 0.7020
v -0.145623 1.060000 -0.079351 0.7020 0.7020 0.7020
v 0.145623 1.060000 -0.079351 0.7020 0.7020 0.7020
v 0.161803 1.000000 -0.088168 0.9686 0.9686 0.9686
v 0.169894 1.080000 -0.092576 0.9804 0.9804 0.9804
v 0.064894 1.080000 -0.149791 0.9882 0.9882 0.9882
v -0.061803 1.000000 -0.142658 0.9686 0.9686 0.9686
v -0.161803 1.000000 -0.088168 0.9647 0.9647 0.9647
v -0.064894 1.080000 -0.149791 0.9882 0.9882 0.9882
v -0.210000 1.080000 -0.000000 0.8980 0.8980 0.8980
v -0.169894 1.080000 -0.092576 0.9725 0.9725 0.9725
v -0.161803 1.000000 0.088168 0.9333 0.9333 0.9333
v -0.061803 1.000000 0.142658 0.7020 0.7020 0.7020
v 0.061803 1.000000 0.142658 0.9607 0.9607 0.9607
v 0.064894 1.080000 0.149791 0.9764 0.9764 0.9764
v 0.200000 1.000000 0.000000 0.9490 0.9490 0.9490
v 0.210000 1.080000 0.000000 0.8980 0.8980 0.8980
v 0.180000 1.120000 0.000000 0.7020 0.7020 0.7020
v -0.055623 1.120000 -0.128393 0.7020 0.7020 0.7020
v -0.145623 1.120000 -0.079351 0.7020 0.7020 0.7020
v -0.169894 1.080000 0.092576 0.8627 0.8627 0.8627
v -0.064894 1.080000 0.149791 0.7020 0.7020 0.7020
v -0.055623 1.120000 0.128393 0.7020 0.7020 0.7020
v 0.169894 1.080000 0.092576 0.8745 0.8745 0.8745
v 0.145623 1.120000 -0.079351 0.7020 0.7020 0.7020
v 0.055623 1.120000 -0.128393 0.7020 0.7020 0.7020
v -0.180000 1.120000 -0.000000 0.7020 0.7020 0.7020
v -0.145623 1.120000 0.079351 0.7020 0.7020 0.7020
v 0.055623 1.120000 0.128393 0.7020 0.7020 0.7020
v 0.145623 1.120000 0.079351 0.7020 0.7020 0.7020
v 0.161803 1.000000 0.088168 0.9411 0.9411 0.9411
v -0.200000 1.000000 -0.000000 0.9451 0.9451 0.9451
v 0.061803 1.000000 -0.142658 0.9725 0.9725 0.9725
v -0.250000 1.380000 -0.100000 0.9607 0.9607 0.9607
v -0.179289 1.380000 -0.070711 0.8784 0.8784 0.8784
v -0.350000 1.380000 -0.000000 0.9843 0.9843 0.9843
v -0.250000 1.320000 0.000000 0.7020 0.7020 0.7020
v -0.150000 1.380000 0.000000 0.7020 0.7020 0.7020
v -0.179289 1.380000 0.070711 0.8157 0.8157 0.8157
v -0.140000 1.460000 0.000000 0.7020 0.7020 0.7020
v -0.320711 1.380000 -0.070711 0.9804 0.9804 0.9804
v -0.360000 1.460000 -0.000000 0.9960 0.9960 0.9960
v -0.320711 1.380000 0.070711 0.9725 0.9725 0.9725
v -0.250000 1.380000 0.100000 0.9333 0.9333 0.9333
v -0.250000 1.460000 0.110000 0.9568 0.9568 0.9568
v -0.172218 1.460000 0.077782 0.8078 0.8078 0.8078
v -0.172218 1.460000 -0.077782 0.8274 0.8274 0.8274
v -0.250000 1.540000 0.000000 0.9451 0.9451 0.9451
v -0.250000 1.460000 -0.110000 0.9764 0.9764 0.9764
v -0.327782 1.460000 -0.077782 0.9960 0.9960 0.9960
v -0.327782 1.460000 0.077782 0.9921 0.9921 0.9921
v -0.288583 1.367596 0.021878 0.7020 0.7020 0.7020
v -0.318861 1.139152 0.000072 0.9843 0.9843 0.9843
v -0.288583 1.363329 -0.022919 0.7020 0.7020 0.7020
v -0.250000 1.355734 -0.044797 0.7020 0.7020 0.7020
v -0.241139 1.144603 -0.002038 0.8078 0.8078 0.8078
v -0.280000 1.133755 -0.021966 0.9294 0.9294 0.9294
v -0.241139 1.160848 0.039928 0.8196 0.8196 0.8196
v -0.211417 1.356671 0.022919 0.7020 0.7020 0.7020
v -0.250000 1.364266 0.044797 0.7020 0.7020 0.7020
v -0.318861 1.155397 0.042038 0.9882 0.9882 0.9882
v -0.257092 1.020689 0.108339 0.9686 0.9686 0.9686
v -0.217662 1.020689 0.086653 0.9176 0.9176 0.9176
v -0.192908 1.079311 0.131661 0.8196 0.8196 0.8196
v -0.280000 1.166245 0.061966 0.9411 0.9411 0.9411
v -0.211417 1.352404 -0.021878 0.7020 0.7020 0.7020
v -0.264430 1.050000 0.141686 0.9686 0.9686 0.9686
v -0.185570 1.050000 0.098314 0.8039 0.8039 0.8039
v -0.232338 1.079311 0.153347 0.9176 0.9176 0.9176
v 0.250000 1.320000 0.000000 0.7020 0.7020 0.7020
v 0.350000 1.380000 0.000000 0.9843 0.9843 0.9843
v 0.320711 1.380000 -0.070711 0.9804 0.9804 0.9804
v 0.179289 1.380000 -0.070711 0.8784 0.8784 0.8784
v 0.150000 1.380000 -0.000000 0.7020 0.7020 0.7020
v 0.320711 1.380000 0.070711 0.9764 0.9764 0.9764
v 0.327782 1.460000 -0.077782 1.0000 1.0000 1.0000
v 0.250000 1.380000 -0.100000 0.9607 0.9607 0.9607
v 0.250000 1.460000 -0.110000 0.9843 0.9843 0.9843
v 0.179289 1.380000 0.070711 0.8666 0.8666 0.8666
v 0.172218 1.460000 0.077782 0.8274 0.8274 0.8274
v 0.140000 1.460000 -0.000000 0.7020 0.7020 0.7020
v 0.250000 1.380000 0.100000 0.9490 0.9490 0.9490
v 0.327782 1.460000 0.077782 0.9960 0.9960 0.9960
v 0.250000 1.460000 0.110000 0.9686 0.9686 0.9686
v 0.172218 1.460000 -0.077782 0.8274 0.8274 0.8274
v 0.250000 1.540000 0.000000 0.9529 0.9529 0.9529
v 0.360000 1.460000 0.000000 1.0000 1.0000 1.0000
v 0.250000 1.364266 0.044797 0.7020 0.7020 0.7020
v 0.211417 1.356671 0.022919 0.7020 0.7020 0.7020
v 0.211417 1.352404 -0.021878 0.7020 0.7020 0.7020
v 0.250000 1.355734 -0.044797 0.7020 0.7020 0.7020
v 0.241139 1.144603 -0.002038 0.8666 0.8666 0.8666
v 0.288583 1.367596 0.021878 0.7020 0.7020 0.7020
v 0.318861 1.155397 0.042038 0.9568 0.9568 0.9568
v 0.280000 1.166245 0.061966 0.8823 0.8823 0.8823
v 0.241139 1.160848 0.039928 0.8157 0.8157 0.8157
v 0.257092 1.020689 0.108339 0.9215 0.9215 0.9215
v 0.217662 1.020689 0.086653 0.8353 0.8353 0.8353
v 0.280000 1.133755 -0.021966 0.9568 0.9568 0.9568
v 0.318861 1.139152 0.000072 0.9725 0.9725 0.9725
v 0.185570 1.050000 0.098314 0.8470 0.8470 0.8470
v 0.288583 1.363329 -0.022919 0.7020 0.7020 0.7020
v 0.264430 1.050000 0.141686 0.9686 0.9686 0.9686
v 0.232338 1.079311 0.153347 0.9568 0.9568 0.9568
v 0.192908 1.079311 0.131661 0.9176 0.9176 0.9176
v -0.051716 0.970000 0.141716 0.8235 0.8235 0.8235
v -0.051716 1.920000 0.141716 0.9411 0.9411 0.9411
v -0.040000 1.920000 0.170000 0.9568 0.9568 0.9568
v -0.080000 0.970000 0.130000 0.8000 0.8000 0.8000
v -0.080000 1.920000 0.130000 0.9411 0.9411 0.9411
v -0.120000 0.970000 0.170000 0.9294 0.9294 0.9294
v -0.120000 1.920000 0.170000 0.9764 0.9764 0.9764
v -0.080000 0.970000 0.210000 0.9764 0.9764 0.9764
v -0.080000 1.920000 0.210000 0.9804 0.9804 0.9804
v -0.051716 0.970000 0.198284 0.9529 0.9529 0.9529
v -0.040000 0.970000 0.170000 0.8941 0.8941 0.8941
v -0.108284 1.920000 0.141716 0.9607 0.9607 0.9607
v -0.108284 1.920000 0.198284 0.9764 0.9764 0.9764
v -0.051716 1.920000 0.198284 0.9764 0.9764 0.9764
v -0.108284 0.970000 0.198284 0.9647 0.9647 0.9647
v -0.108284 0.970000 0.141716 0.8588 0.8588 0.8588
v -0.074438 0.120000 0.152881 0.7255 0.7255 0.7255
v -0.074438 2.320000 0.152881 0.9686 0.9686 0.9686
v -0.094562 0.120000 0.159420 0.7490 0.7490 0.7490
v -0.094562 0.120000 0.180580 0.8039 0.8039 0.8039
v -0.074438 2.320000 0.187119 0.9686 0.9686 0.9686
v -0.094562 2.320000 0.180580 0.9764 0.9764 0.9764
v -0.074438 0.120000 0.187119 0.8196 0.8196 0.8196
v -0.062000 2.320000 0.170000 0.9607 0.9607 0.9607
v -0.094562 2.320000 0.159420 0.9764 0.9764 0.9764
v -0.062000 0.120000 0.170000 0.7764 0.7764 0.7764
v -0.030000 2.260000 0.176000 0.9490 0.9490 0.9490
v 0.100000 2.100000 0.164000 0.9804 0.9804 0.9804
v 0.030000 2.260000 0.164000 0.9921 0.9921 0.9921
v -0.100000 2.100000 0.176000 0.9372 0.9372 0.9372
v 0.100000 2.100000 0.176000 0.9843 0.9843 0.9843
v 0.030000 2.260000 0.176000 0.9921 0.9921 0.9921
v -0.030000 2.260000 0.164000 0.9451 0.9451 0.9451
v -0.100000 2.100000 0.164000 0.9294 0.9294 0.9294
v -0.092500 2.280000 0.176000 0.7020 0.7020 0.7020
v -0.081250 2.560000 0.176000 1.0000 1.0000 1.0000
v -0.067500 2.280000 0.164000 0.7020 0.7020 0.7020
v -0.081250 2.560000 0.164000 1.0000 1.0000 1.0000
v -0.078750 2.560000 0.164000 1.0000 1.0000 1.0000
v -0.078750 2.560000 0.176000 1.0000 1.0000 1.0000
v -0.092500 2.280000 0.164000 0.7020 0.7020 0.7020
v -0.067500 2.280000 0.176000 0.7020 0.7020 0.7020
vn -0.0000 -0.0000 1.0000
vn -0.0000 -0.0000 -1.0000
vn -1.0000 -0.0000 -0.0000
vn 1.0000 -0.0000 -0.0000
vn -0.0000 1.0000 -0.0000
vn -0.0000 -1.0000 -0.0000
vn 0.9997 -0.0238 -0.0000
vn 0.7069 -0.0238 -0.7069
vn -0.0000 -0.0238 -0.9997
vn -0.7069 -0.0238 -0.7069
vn -0.9997 -0.0238 -0.0000
vn -0.7069 -0.0238 0.7069
vn -0.0000 -0.0238 0.9997
vn 0.7069 -0.0238 0.7069
vn 0.9965 -0.0830 -0.0000
vn 0.7047 -0.0830 -0.7047
vn 0.7071 -0.0000 -0.7071
vn -0.0000 -0.0830 -0.9965
vn -0.7047 -0.0830 -0.7047
vn -0.7071 -0.0000 -0.7071
vn -0.9965 -0.0830 -0.0000
vn -0.7047 -0.0830 0.7047
vn -0.7071 -0.0000 0.7071
vn -0.0000 -0.0830 0.9965
vn 0.7047 -0.0830 0.7047
vn 0.7071 -0.0000 0.7071
vn 0.7047 0.0830 -0.7047
vn 0.9965 0.0830 -0.0000
vn -0.0000 0.0830 -0.9965
vn -0.7047 0.0830 -0.7047
vn -0.9965 0.0830 -0.0000
vn -0.7047 0.0830 0.7047
vn -0.0000 0.0830 0.9965
vn 0.7047 0.0830 0.7047
vn 0.9996 -0.0278 -0.0000
vn 0.7068 -0.0278 -0.7068
vn -0.0000 -0.0278 -0.9996
vn -0.7068 -0.0278 -0.7068
vn -0.9996 -0.0278 -0.0000
vn -0.7068 -0.0278 0.7068
vn -0.0000 -0.0278 0.9996
vn 0.7068 -0.0278 0.7068
vn 0.9487 -0.3162 -0.0000
vn 0.6973 -0.2847 -0.6578
vn 0.7476 0.0161 -0.6640
vn 0.9999 0.0171 -0.0000
vn 0.2330 -0.2476 -0.9404
vn 0.2529 0.0143 -0.9674
vn -0.2330 -0.2476 -0.9404
vn -0.2529 0.0143 -0.9674
vn -0.6973 -0.2847 -0.6578
vn -0.7476 0.0161 -0.6640
vn -0.9487 -0.3162 -0.0000
vn -0.9999 0.0171 -0.0000
vn -0.6973 -0.2847 0.6578
vn -0.7476 0.0161 0.6640
vn -0.2330 -0.2476 0.9404
vn -0.2529 0.0143 0.9674
vn 0.2330 -0.2476 0.9404
vn 0.2529 0.0143 0.9674
vn 0.6973 -0.2847 0.6578
vn 0.7476 0.0161 0.6640
vn 0.7251 0.1215 -0.6778
vn 0.9905 0.1372 -0.0000
vn 0.2410 0.1044 -0.9649
vn -0.2410 0.1044 -0.9649
vn -0.7251 0.1215 -0.6778
vn -0.9905 0.1372 -0.0000
vn -0.7251 0.1215 0.6778
vn -0.2410 0.1044 0.9649
vn 0.2410 0.1044 0.9649
vn 0.7251 0.1215 0.6778
vn 0.7298 -0.1338 -0.6704
vn 0.9887 -0.1498 -0.0000
vn 0.2442 -0.1148 -0.9629
vn -0.2442 -0.1148 -0.9629
vn -0.7298 -0.1338 -0.6704
vn -0.9887 -0.1498 -0.0000
vn -0.7298 -0.1338 0.6704
vn -0.2442 -0.1148 0.9629
vn 0.2442 -0.1148 0.9629
vn 0.7298 -0.1338 0.6704
vn 0.7323 -0.1765 -0.6577
vn 0.9806 -0.1961 -0.0000
vn 0.2476 -0.1518 -0.9569
vn -0.2476 -0.1518 -0.9569
vn -0.7323 -0.1765 -0.6577
vn -0.9806 -0.1961 -0.0000
vn -0.7323 -0.1765 0.6577
vn -0.2476 -0.1518 0.9569
vn 0.2476 -0.1518 0.9569
vn 0.7323 -0.1765 0.6577
vn 0.0948 0.9955 -0.0000
vn 0.0801 0.9945 -0.0678
vn 0.0327 0.9924 -0.1183
vn -0.0327 0.9924 -0.1183
vn -0.0801 0.9945 -0.0678
vn -0.0948 0.9955 -0.0000
vn -0.0801 0.9945 0.0678
vn -0.0327 0.9924 0.1183
vn 0.0327 0.9924 0.1183
vn 0.0801 0.9945 0.0678
vn 0.9923 -0.1240 -0.0000
vn 0.7297 -0.1110 -0.6747
vn 0.7284 0.2236 -0.6476
vn 0.9718 0.2358 -0.0000
vn 0.2434 -0.0955 -0.9652
vn 0.2478 0.2028 -0.9474
vn -0.2434 -0.0955 -0.9652
vn -0.2478 0.2028 -0.9474
vn -0.7297 -0.1110 -0.6747
vn -0.7284 0.2236 -0.6476
vn -0.9923 -0.1240 -0.0000
vn -0.9718 0.2358 -0.0000
vn -0.7297 -0.1110 0.6747
vn -0.7284 0.2236 0.6476
vn -0.2434 -0.0955 0.9652
vn -0.2478 0.2028 0.9474
vn 0.2434 -0.0955 0.9652
vn 0.2478 0.2028 0.9474
vn 0.7297 -0.1110 0.6747
vn 0.7284 0.2236 0.6476
vn 0.5953 0.5537 -0.5823
vn 0.8000 0.6000 -0.0000
vn 0.2021 0.4980 -0.8433
vn -0.2021 0.4980 -0.8433
vn -0.5953 0.5537 -0.5823
vn -0.8000 0.6000 -0.0000
vn -0.5953 0.5537 0.5823
vn -0.2021 0.4980 0.8433
vn 0.2021 0.4980 0.8433
vn 0.5953 0.5537 0.5823
vn 0.3638 -0.8575 -0.3638
vn 0.5145 -0.8575 -0.0000
vn -0.0000 -0.8575 -0.5145
vn -0.3638 -0.8575 -0.3638
vn -0.5145 -0.8575 -0.0000
vn -0.3638 -0.8575 0.3638
vn -0.0000 -0.8575 0.5145
vn 0.3638 -0.8575 0.3638
vn 0.7016 -0.1240 -0.7016
vn -0.0000 -0.1240 -0.9923
vn -0.7016 -0.1240 -0.7016
vn -0.7016 -0.1240 0.7016
vn -0.0000 -0.1240 0.9923
vn 0.7016 -0.1240 0.7016
vn 0.5882 0.8087 -0.0000
vn 0.4159 0.8087 -0.4159
vn -0.0000 0.8087 -0.5882
vn -0.4159 0.8087 -0.4159
vn -0.5882 0.8087 -0.0000
vn -0.4159 0.8087 0.4159
vn -0.0000 0.8087 0.5882
vn 0.4159 0.8087 0.4159
vn -0.4897 0.1501 0.8588
vn -0.7054 0.0890 0.7032
vn -0.6944 0.0927 0.7136
vn -0.9904 0.1343 -0.0318
vn -0.4960 -0.0221 -0.8681
vn 0.4897 -0.1533 -0.8583
vn 0.7164 -0.0853 -0.6925
vn 0.6658 -0.1028 -0.7390
vn 0.9892 -0.1426 0.0337
vn 0.4934 0.0007 0.8698
vn -0.8675 0.0218 0.4969
vn -0.7192 -0.6343 -0.2837
vn 0.1118 -0.6557 -0.7467
vn 0.8668 -0.0194 -0.4983
vn 0.6845 0.6852 0.2491
vn -0.1260 0.6851 0.7175
vn 0.1408 0.9856 -0.0939
vn 0.3625 -0.6590 0.6590
vn -0.4934 0.0007 0.8698
vn -0.9892 -0.1426 0.0337
vn -0.4897 -0.1533 -0.8583
vn 0.4960 -0.0221 -0.8681
vn 0.9904 0.1343 -0.0318
vn 0.4897 0.1501 0.8588
vn -0.9141 0.3598 -0.1869
vn -0.5456 -0.4169 -0.7269
vn 0.4429 -0.7143 -0.5419
vn 0.9322 -0.3288 0.1513
vn 0.5467 0.4297 0.7187
vn -0.4401 0.7872 0.4320
vn -0.1408 0.9856 -0.0939
vn -0.3625 -0.6590 0.6590
vn 0.8090 -0.0000 -0.5878
vn -0.3090 -0.0000 -0.9511
vn -0.3090 -0.0000 0.9511
vn 0.8090 -0.0000 0.5878
vn -0.9162 0.4008 -0.0000
vn 0.9162 0.4008 -0.0000
vn -0.9992 0.0401 -0.0000
vn 0.9992 0.0401 -0.0000
vt 0.000488 0.812988
vt 0.062012 0.812988
vt 0.062012 0.825293
vt 0.000488 0.825293
vt 0.062012 0.827754
vt 0.000488 0.827754
vt 0.062012 0.864258
vt 0.000488 0.864258
vt 0.328613 0.844238
vt 0.344355 0.844238
vt 0.344355 0.851504
vt 0.328613 0.851504
vt 0.355254 0.844238
vt 0.355254 0.851504
vt 0.344355 0.870879
vt 0.328613 0.870879
vt 0.332397 0.844238
vt 0.332397 0.874512
vt 0.328613 0.874512
vt 0.336182 0.844238
vt 0.336182 0.874512
vt 0.339966 0.844238
vt 0.339966 0.874512
vt 0.343750 0.844238
vt 0.343750 0.874512
vt 0.347534 0.844238
vt 0.347534 0.874512
vt 0.351318 0.844238
vt 0.351318 0.874512
vt 0.355103 0.844238
vt 0.355103 0.874512
vt 0.358887 0.844238
vt 0.358887 0.874512
vt 0.358887 0.859375
vt 0.354453 0.870078
vt 0.333047 0.870078
vt 0.328613 0.859375
vt 0.333047 0.848672
vt 0.354453 0.848672
vt 0.332397 0.859375
vt 0.336182 0.859375
vt 0.339966 0.859375
vt 0.343750 0.859375
vt 0.347534 0.859375
vt 0.351318 0.859375
vt 0.355103 0.859375
vt 0.331641 0.844238
vt 0.331641 0.847128
vt 0.328613 0.847128
vt 0.334668 0.844238
vt 0.334668 0.847128
vt 0.337695 0.844238
vt 0.337695 0.847128
vt 0.340723 0.844238
vt 0.340723 0.847128
vt 0.343750 0.847128
vt 0.346777 0.844238
vt 0.346777 0.847128
vt 0.349805 0.844238
vt 0.349805 0.847128
vt 0.352832 0.844238
vt 0.352832 0.847128
vt 0.355859 0.844238
vt 0.355859 0.847128
vt 0.358887 0.847128
vt 0.331641 0.851031
vt 0.328613 0.851031
vt 0.334668 0.851031
vt 0.337695 0.851031
vt 0.340723 0.851031
vt 0.343750 0.851031
vt 0.346777 0.851031
vt 0.349805 0.851031
vt 0.352832 0.851031
vt 0.355859 0.851031
vt 0.358887 0.851031
vt 0.331641 0.860215
vt 0.328613 0.860215
vt 0.334668 0.860215
vt 0.337695 0.860215
vt 0.340723 0.860215
vt 0.343750 0.860215
vt 0.346777 0.860215
vt 0.349805 0.860215
vt 0.352832 0.860215
vt 0.355859 0.860215
vt 0.358887 0.860215
vt 0.331641 0.864874
vt 0.328613 0.864874
vt 0.334668 0.864874
vt 0.337695 0.864874
vt 0.340723 0.864874
vt 0.343750 0.864874
vt 0.346777 0.864874
vt 0.349805 0.864874
vt 0.352832 0.864874
vt 0.355859 0.864874
vt 0.358887 0.864874
vt 0.330127 0.874512
vt 0.333154 0.874512
vt 0.339209 0.874512
vt 0.342236 0.874512
vt 0.345264 0.874512
vt 0.348291 0.874512
vt 0.354346 0.874512
vt 0.357373 0.874512
vt 0.355996 0.868730
vt 0.348428 0.874512
vt 0.339072 0.874512
vt 0.331504 0.868730
vt 0.331504 0.850020
vt 0.339072 0.844238
vt 0.348428 0.844238
vt 0.355996 0.850020
vt 0.331641 0.862924
vt 0.328613 0.862924
vt 0.334668 0.862924
vt 0.337695 0.862924
vt 0.340723 0.862924
vt 0.343750 0.862924
vt 0.346777 0.862924
vt 0.349805 0.862924
vt 0.352832 0.862924
vt 0.355859 0.862924
vt 0.358887 0.862924
vt 0.331641 0.874512
vt 0.334668 0.874512
vt 0.337695 0.874512
vt 0.340723 0.874512
vt 0.346777 0.874512
vt 0.349805 0.874512
vt 0.352832 0.874512
vt 0.355859 0.874512
vt 0.330505 0.844238
vt 0.332397 0.854832
vt 0.328613 0.854832
vt 0.334290 0.844238
vt 0.336182 0.854832
vt 0.338074 0.844238
vt 0.339966 0.854832
vt 0.341858 0.844238
vt 0.343750 0.854832
vt 0.345642 0.844238
vt 0.347534 0.854832
vt 0.349426 0.844238
vt 0.351318 0.854832
vt 0.353210 0.844238
vt 0.355103 0.854832
vt 0.356995 0.844238
vt 0.358887 0.854832
vt 0.332397 0.862156
vt 0.328613 0.862156
vt 0.336182 0.862156
vt 0.339966 0.862156
vt 0.343750 0.862156
vt 0.347534 0.862156
vt 0.351318 0.862156
vt 0.355103 0.862156
vt 0.358887 0.862156
vt 0.330505 0.874512
vt 0.334290 0.874512
vt 0.338074 0.874512
vt 0.341858 0.874512
vt 0.345642 0.874512
vt 0.349426 0.874512
vt 0.353210 0.874512
vt 0.356995 0.874512
vt 0.333659 0.844238
vt 0.333659 0.859375
vt 0.338704 0.844238
vt 0.338704 0.859375
vt 0.348796 0.844238
vt 0.348796 0.859375
vt 0.353841 0.844238
vt 0.353841 0.859375
vt 0.333659 0.874512
vt 0.338704 0.874512
vt 0.348796 0.874512
vt 0.353841 0.874512
vt 0.358887 0.851631
vt 0.358887 0.866768
vt 0.328613 0.867119
vt 0.328613 0.851982
vt 0.358887 0.851982
vt 0.358887 0.867119
vt 0.328613 0.866768
vt 0.328613 0.851631
vt 0.012793 0.812988
vt 0.012793 0.874512
vt 0.000488 0.874512
vt 0.025098 0.812988
vt 0.025098 0.874512
vt 0.037402 0.812988
vt 0.037402 0.874512
vt 0.049707 0.812988
vt 0.049707 0.874512
vt 0.062012 0.874512
vt 0.062012 0.843750
vt 0.038512 0.874512
vt 0.000488 0.862762
vt 0.000488 0.824738
vt 0.038512 0.812988
vt 0.203613 0.844238
vt 0.227832 0.844238
vt 0.219355 0.863613
vt 0.212090 0.863613
vt 0.205066 0.844238
vt 0.205066 0.865386
vt 0.203613 0.865386
vt 0.210879 0.844238
vt 0.210879 0.845691
vt 0.203613 0.845691
vt 0.227832 0.845691
vt 0.206316 0.844238
vt 0.205100 0.874512
vt 0.204830 0.874512
vt 0.204910 0.844238
vt 0.204910 0.874512
vt 0.203613 0.874512
vt 0.203916 0.844238
vt 0.203916 0.845691
vt 0.206641 0.844238
vt 0.206641 0.845691
s 0
usemtl props
f 4/1/1 8/2/1 7/3/1 5/4/1
f 6/1/2 3/2/2 1/3/2 2/4/2
f 3/1/3 4/2/3 5/5/3 1/6/3
f 8/1/4 6/2/4 2/5/4 7/6/4
f 5/1/5 7/2/5 2/7/5 1/8/5
f 3/1/6 6/2/6 8/7/6 4/8/6
f 12/9/1 9/10/1 15/11/1 10/12/1
f 13/9/2 16/10/2 11/11/2 14/12/2
f 16/9/3 12/13/3 10/14/3 11/12/3
f 9/9/4 13/13/4 14/14/4 15/12/4
f 10/9/5 15/10/5 14/15/5 11/16/5
f 16/9/6 13/10/6 9/15/6 12/16/6
s 1
f 17/9/7 32/17/8 18/18/8 27/19/7
f 32/17/8 19/20/9 20/21/9 18/18/8
f 19/20/9 21/22/10 22/23/10 20/21/9
f 21/22/10 31/24/11 23/25/11 22/23/10
f 31/24/11 24/26/12 28/27/12 23/25/11
f 24/26/12 30/28/13 29/29/13 28/27/12
f 30/28/13 25/30/14 26/31/14 29/29/13
f 25/30/14 17/32/7 27/33/7 26/31/14
s 0
f 27/34/5 18/35/5 20/25/5 22/36/5 23/37/5 28/38/5 29/24/5 26/39/5
f 25/35/6 30/25/6 24/36/6 31/37/6 21/38/6 19/24/6 32/39/6 17/34/6
s 1
f 33/9/15 34/17/16 43/40/17 42/37/4
f 34/17/16 35/20/18 36/41/2 43/40/17
f 35/20/18 38/22/19 37/42/20 36/41/2
f 38/22/19 50/24/21 39/43/3 37/42/20
f 50/24/21 49/26/22 45/44/23 39/43/3
f 49/26/22 48/28/24 41/45/1 45/44/23
f 48/28/24 47/30/25 40/46/26 41/45/1
f 47/30/25 33/32/15 42/34/4 40/46/26
f 42/37/4 43/40/17 51/18/27 64/19/28
f 43/40/17 36/41/2 63/21/29 51/18/27
f 36/41/2 37/42/20 62/23/30 63/21/29
f 37/42/20 39/43/3 44/25/31 62/23/30
f 39/43/3 45/44/23 55/27/32 44/25/31
f 45/44/23 41/45/1 56/29/33 55/27/32
f 41/45/1 40/46/26 46/31/34 56/29/33
f 40/46/26 42/34/4 64/33/28 46/31/34
s 0
f 64/34/5 51/35/5 63/25/5 62/36/5 44/37/5 55/38/5 56/24/5 46/39/5
f 47/35/6 48/25/6 49/36/6 50/37/6 38/38/6 35/24/6 34/39/6 33/34/6
s 1
f 64/9/35 51/17/36 52/18/36 57/19/35
f 51/17/36 63/20/37 59/21/37 52/18/36
f 63/20/37 62/22/38 53/23/38 59/21/37
f 62/22/38 44/24/39 60/25/39 53/23/38
f 44/24/39 55/26/40 54/27/40 60/25/39
f 55/26/40 56/28/41 61/29/41 54/27/40
f 56/28/41 46/30/42 58/31/42 61/29/41
f 46/30/42 64/32/35 57/33/35 58/31/42
s 0
f 57/34/5 52/35/5 59/25/5 53/36/5 60/37/5 54/38/5 61/24/5 58/39/5
f 65/9/1 67/10/1 70/11/1 71/12/1
f 68/9/2 66/10/2 72/11/2 69/12/2
f 66/9/3 65/13/3 71/14/3 72/12/3
f 67/9/4 68/13/4 69/14/4 70/12/4
f 71/9/5 70/10/5 69/15/5 72/16/5
f 66/9/6 68/10/6 67/15/6 65/16/6
s 1
f 73/9/7 74/17/8 78/18/8 75/19/7
f 74/17/8 76/20/9 77/21/9 78/18/8
f 76/20/9 88/22/10 79/23/10 77/21/9
f 88/22/10 80/24/11 86/25/11 79/23/10
f 80/24/11 87/26/12 81/27/12 86/25/11
f 87/26/12 82/28/13 85/29/13 81/27/12
f 82/28/13 83/30/14 84/31/14 85/29/13
f 83/30/14 73/32/7 75/33/7 84/31/14
s 0
f 75/34/5 78/35/5 77/25/5 79/36/5 86/37/5 81/38/5 85/24/5 84/39/5
f 83/35/6 82/25/6 87/36/6 80/37/6 88/38/6 76/24/6 74/39/6 73/34/6
s 1
f 98/9/15 89/17/16 90/40/17 99/37/4
f 89/17/16 109/20/18 91/41/2 90/40/17
f 109/20/18 108/22/19 103/42/20 91/41/2
f 108/22/19 92/24/21 105/43/3 103/42/20
f 92/24/21 93/26/22 95/44/23 105/43/3
f 93/26/22 107/28/24 94/45/1 95/44/23
f 107/28/24 97/30/25 96/46/26 94/45/1
f 97/30/25 98/32/15 99/34/4 96/46/26
f 99/37/4 90/40/17 100/18/27 101/19/28
f 90/40/17 91/41/2 102/21/29 100/18/27
f 91/41/2 103/42/20 104/23/30 102/21/29
f 103/42/20 105/43/3 113/25/31 104/23/30
f 105/43/3 95/44/23 106/27/32 113/25/31
f 95/44/23 94/45/1 115/29/33 106/27/32
f 94/45/1 96/46/26 120/31/34 115/29/33
f 96/46/26 99/34/4 101/33/28 120/31/34
s 0
f 101/34/5 100/35/5 102/25/5 104/36/5 113/37/5 106/38/5 115/24/5 120/39/5
f 97/35/6 107/25/6 93/36/6 92/37/6 108/38/6 109/24/6 89/39/6 98/34/6
s 1
f 101/9/35 100/17/36 111/18/36 116/19/35
f 100/17/36 102/20/37 110/21/37 111/18/36
f 102/20/37 104/22/38 117/23/38 110/21/37
f 104/22/38 113/24/39 112/25/39 117/23/38
f 113/24/39 106/26/40 114/27/40 112/25/39
f 106/26/40 115/28/41 118/29/41 114/27/40
f 115/28/41 120/30/42 119/31/42 118/29/41
f 120/30/42 101/32/35 116/33/35 119/31/42
s 0
f 116/34/5 111/35/5 110/25/5 117/36/5 112/37/5 114/38/5 118/24/5 119/39/5
s 1
f 131/9/43 171/47/44 133/48/45 121/49/46
f 171/47/44 122/50/47 123/51/48 133/48/45
f 122/50/47 124/52/49 125/53/50 123/51/48
f 124/52/49 170/54/51 135/55/52 125/53/50
f 170/54/51 169/24/53 126/56/54 135/55/52
f 169/24/53 127/57/55 139/58/56 126/56/54
f 127/57/55 168/59/57 128/60/58 139/58/56
f 168/59/57 129/61/59 140/62/60 128/60/58
f 129/61/59 130/63/61 132/64/62 140/62/60
f 130/63/61 131/32/43 121/65/46 132/64/62
f 121/49/46 133/48/45 143/66/63 142/67/64
f 133/48/45 123/51/48 134/68/65 143/66/63
f 123/51/48 125/53/50 136/69/66 134/68/65
f 125/53/50 135/55/52 146/70/67 136/69/66
f 135/55/52 126/56/54 137/71/68 146/70/67
f 126/56/54 139/58/56 138/72/69 137/71/68
f 139/58/56 128/60/58 147/73/70 138/72/69
f 128/60/58 140/62/60 148/74/71 147/73/70
f 140/62/60 132/64/62 141/75/72 148/74/71
f 132/64/62 121/65/46 142/76/64 141/75/72
f 142/67/64 143/66/63 151/77/73 144/78/74
f 143/66/63 134/68/65 145/79/75 151/77/73
f 134/68/65 136/69/66 152/80/76 145/79/75
f 136/69/66 146/70/67 153/81/77 152/80/76
f 146/70/67 137/71/68 155/82/78 153/81/77
f 137/71/68 138/72/69 157/83/79 155/82/78
f 138/72/69 147/73/70 158/84/80 157/83/79
f 147/73/70 148/74/71 149/85/81 158/84/80
f 148/74/71 141/75/72 150/86/82 149/85/81
f 141/75/72 142/76/64 144/87/74 150/86/82
f 144/78/74 151/77/73 159/88/83 167/89/84
f 151/77/73 145/79/75 160/90/85 159/88/83
f 145/79/75 152/80/76 161/91/86 160/90/85
f 152/80/76 153/81/77 154/92/87 161/91/86
f 153/81/77 155/82/78 156/93/88 154/92/87
f 155/82/78 157/83/79 162/94/89 156/93/88
f 157/83/79 158/84/80 164/95/90 162/94/89
f 158/84/80 149/85/81 165/96/91 164/95/90
f 149/85/81 150/86/82 166/97/92 165/96/91
f 150/86/82 144/87/74 167/98/84 166/97/92
f 167/89/93 159/88/94 163/99/5
f 159/88/94 160/90/95 163/100/5
f 160/90/95 161/91/96 163/21/5
f 161/91/96 154/92/97 163/101/5
f 154/92/97 156/93/98 163/102/5
f 156/93/98 162/94/99 163/103/5
f 162/94/99 164/95/100 163/104/5
f 164/95/100 165/96/101 163/29/5
f 165/96/101 166/97/102 163/105/5
f 166/97/102 167/98/93 163/106/5
s 0
f 130/107/6 129/108/6 168/109/6 127/110/6 169/37/6 170/111/6 124/112/6 122/113/6 171/114/6 131/34/6
s 1
f 184/9/103 172/47/104 173/115/105 185/116/106
f 172/47/104 201/50/107 174/117/108 173/115/105
f 201/50/107 175/52/109 177/118/110 174/117/108
f 175/52/109 176/54/111 179/119/112 177/118/110
f 176/54/111 200/24/113 178/120/114 179/119/112
f 200/24/113 180/57/115 189/121/116 178/120/114
f 180/57/115 181/59/117 190/122/118 189/121/116
f 181/59/117 182/61/119 183/123/120 190/122/118
f 182/61/119 199/63/121 192/124/122 183/123/120
f 199/63/121 184/32/103 185/125/106 192/124/122
f 185/116/106 173/115/105 193/126/123 186/19/124
f 173/115/105 174/117/108 194/127/125 193/126/123
f 174/117/108 177/118/110 187/128/126 194/127/125
f 177/118/110 179/119/112 188/129/127 187/128/126
f 179/119/112 178/120/114 195/25/128 188/129/127
f 178/120/114 189/121/116 196/130/129 195/25/128
f 189/121/116 190/122/118 191/131/130 196/130/129
f 190/122/118 183/123/120 197/132/131 191/131/130
f 183/123/120 192/124/122 198/133/132 197/132/131
f 192/124/122 185/125/106 186/33/124 198/133/132
s 0
f 186/34/5 193/107/5 194/108/5 187/109/5 188/110/5 195/37/5 196/111/5 191/112/5 197/113/5 198/114/5
f 199/107/6 182/108/6 181/109/6 180/110/6 200/37/6 176/111/6 175/112/6 201/113/6 172/114/6 184/34/6
s 1
f 205/134/6 203/135/133 206/136/134
f 205/137/6 202/138/135 203/135/133
f 205/139/6 209/140/136 202/138/135
f 205/141/6 204/142/137 209/140/136
f 205/143/6 211/144/138 204/142/137
f 205/145/6 212/146/139 211/144/138
f 205/147/6 207/148/140 212/146/139
f 205/149/6 206/150/134 207/148/140
f 206/136/103 203/135/141 215/151/141 208/152/103
f 203/135/141 202/138/142 217/153/142 215/151/141
f 202/138/142 209/140/143 218/154/143 217/153/142
f 209/140/143 204/142/113 210/155/113 218/154/143
f 204/142/113 211/144/144 219/156/144 210/155/113
f 211/144/144 212/146/145 213/157/145 219/156/144
f 212/146/145 207/148/146 214/158/146 213/157/145
f 207/148/146 206/150/103 208/159/103 214/158/146
f 208/152/147 215/151/148 216/160/5
f 215/151/148 217/153/149 216/161/5
f 217/153/149 218/154/150 216/162/5
f 218/154/150 210/155/151 216/163/5
f 210/155/151 219/156/152 216/164/5
f 219/156/152 213/157/153 216/165/5
f 213/157/153 214/158/154 216/166/5
f 214/158/154 208/159/147 216/167/5
f 228/9/155 220/168/155 229/169/156 233/37/157
f 220/168/158 222/170/158 221/171/158 229/169/158
f 222/170/159 223/24/159 225/43/159 221/171/159
f 223/24/160 234/172/160 224/173/161 225/43/162
f 234/172/163 227/174/163 226/175/163 224/173/163
f 227/174/164 228/32/164 233/34/164 226/175/164
f 233/37/157 229/169/156 230/176/165 235/19/165
f 229/169/166 221/171/166 231/177/166 230/176/166
f 221/171/167 225/43/167 236/25/167 231/177/167
f 225/43/162 224/173/161 232/178/168 236/25/168
f 224/173/169 226/175/169 237/179/169 232/178/169
f 226/175/170 233/34/170 235/33/170 237/179/170
s 0
f 227/180/171 234/181/171 223/25/171 222/182/171 220/183/171 228/24/171
f 235/37/172 230/20/172 231/28/172 236/34/172 232/29/172 237/21/172
s 1
f 238/134/6 240/135/133 239/136/134
f 238/137/6 245/138/135 240/135/133
f 238/139/6 241/140/136 245/138/135
f 238/141/6 242/142/137 241/140/136
f 238/143/6 247/144/138 242/142/137
f 238/145/6 250/146/139 247/144/138
f 238/147/6 243/148/140 250/146/139
f 238/149/6 239/150/134 243/148/140
f 239/136/103 240/135/141 244/151/141 255/152/103
f 240/135/141 245/138/142 246/153/142 244/151/141
f 245/138/142 241/140/143 253/154/143 246/153/142
f 241/140/143 242/142/113 249/155/113 253/154/143
f 242/142/113 247/144/144 248/156/144 249/155/113
f 247/144/144 250/146/145 252/157/145 248/156/144
f 250/146/145 243/148/146 251/158/146 252/157/145
f 243/148/146 239/150/103 255/159/103 251/158/146
f 255/152/147 244/151/148 254/160/5
f 244/151/148 246/153/149 254/161/5
f 246/153/149 253/154/150 254/162/5
f 253/154/150 249/155/151 254/163/5
f 249/155/151 248/156/152 254/164/5
f 248/156/152 252/157/153 254/165/5
f 252/157/153 251/158/154 254/166/5
f 251/158/154 255/159/147 254/167/5
f 256/9/173 257/168/173 264/169/173 263/37/173
f 257/168/174 258/170/174 260/171/174 264/169/174
f 258/170/175 259/24/175 267/43/175 260/171/175
f 259/24/176 270/172/176 268/173/176 267/43/176
f 270/172/177 261/174/177 262/175/177 268/173/177
f 261/174/178 256/32/178 263/34/178 262/175/178
f 263/37/179 264/169/179 266/176/179 269/19/179
f 264/169/180 260/171/180 265/177/180 266/176/180
f 260/171/181 267/43/181 271/25/181 265/177/181
f 267/43/182 268/173/182 272/178/182 271/25/182
f 268/173/183 262/175/183 273/179/183 272/178/183
f 262/175/184 263/34/184 269/33/184 273/179/184
s 0
f 261/184/185 270/185/185 259/25/185 258/186/185 257/187/185 256/24/185
f 269/37/186 266/20/186 265/28/186 271/34/186 272/29/186 273/21/186
s 1
f 284/9/4 274/17/17 275/18/17 276/19/4
f 274/17/17 277/20/2 278/21/2 275/18/17
f 277/20/2 289/22/20 285/23/20 278/21/2
f 289/22/20 279/24/3 280/25/3 285/23/20
f 279/24/3 288/26/23 286/27/23 280/25/3
f 288/26/23 281/28/1 282/29/1 286/27/23
f 281/28/1 283/30/26 287/31/26 282/29/1
f 283/30/26 284/32/4 276/33/4 287/31/26
s 0
f 276/34/5 275/35/5 278/25/5 285/36/5 280/37/5 286/38/5 282/24/5 287/39/5
f 283/35/6 281/25/6 288/36/6 279/37/6 289/38/6 277/24/6 274/39/6 284/34/6
s 1
f 299/1/187 290/188/187 291/189/187 297/190/187
f 290/188/188 292/191/188 298/192/188 291/189/188
f 292/191/3 293/193/3 295/194/3 298/192/3
f 293/193/189 296/195/189 294/196/189 295/194/189
f 296/195/190 299/2/190 297/197/190 294/196/190
s 0
f 297/198/5 291/199/5 298/200/5 295/201/5 294/202/5
f 296/199/6 293/200/6 292/201/6 290/202/6 299/198/6
f 303/203/1 304/204/1 305/205/1 300/206/1
f 301/203/2 307/204/2 306/205/2 302/206/2
f 307/203/191 303/207/191 300/208/191 306/209/191
f 304/203/192 301/207/192 302/208/192 305/209/192
f 300/203/5 305/210/5 302/211/5 306/212/5
f 307/203/6 301/204/6 304/213/6 303/212/6
f 308/203/1 315/214/1 313/215/1 309/216/1
f 310/203/2 314/214/2 311/215/2 312/216/2
f 314/203/193 308/217/193 309/218/193 311/219/193
f 315/203/194 310/217/194 312/218/194 313/219/194
f 309/203/5 313/220/5 312/221/5 311/212/5
f 314/203/6 310/222/6 315/223/6 308/212/6
o suit_of_armour_helm
v 0.072812 1.520000 -0.052901 0.7764 0.7764 0.7764
v 0.000000 1.500000 0.000000 0.7020 0.7020 0.7020
v -0.027812 1.520000 -0.085595 0.7843 0.7843 0.7843
v -0.072812 1.520000 0.052901 0.7608 0.7608 0.7608
v -0.090000 1.520000 -0.000000 0.7686 0.7686 0.7686
v 0.072812 1.520000 0.052901 0.7725 0.7725 0.7725
v 0.090000 1.520000 0.000000 0.7725 0.7725 0.7725
v 0.027812 1.520000 -0.085595 0.7882 0.7882 0.7882
v -0.037082 1.620000 -0.114127 0.9764 0.9764 0.9764
v -0.097082 1.620000 -0.070534 0.9568 0.9568 0.9568
v -0.072812 1.520000 -0.052901 0.7804 0.7804 0.7804
v -0.120000 1.620000 -0.000000 0.9411 0.9411 0.9411
v -0.027812 1.520000 0.085595 0.7529 0.7529 0.7529
v 0.027812 1.520000 0.085595 0.7764 0.7764 0.7764
v 0.037082 1.620000 0.114127 0.9568 0.9568 0.9568
v 0.097082 1.620000 0.070534 0.9568 0.9568 0.9568
v 0.120000 1.620000 0.000000 0.9411 0.9411 0.9411
v 0.097082 1.740000 -0.070534 0.9921 0.9921 0.9921
v 0.120000 1.740000 0.000000 0.9843 0.9843 0.9843
v 0.097082 1.620000 -0.070534 0.9568 0.9568 0.9568
v 0.037082 1.620000 -0.114127 0.9843 0.9843 0.9843
v 0.037082 1.740000 -0.114127 0.9960 0.9960 0.9960
v -0.097082 1.740000 -0.070534 0.9921 0.9921 0.9921
v -0.097082 1.620000 0.070534 0.9058 0.9058 0.9058
v -0.097082 1.740000 0.070534 0.9294 0.9294 0.9294
v -0.037082 1.620000 0.114127 0.8353 0.8353 0.8353
v 0.037082 1.740000 0.114127 0.9686 0.9686 0.9686
v 0.097082 1.740000 0.070534 0.9882 0.9882 0.9882
v 0.080902 1.820000 -0.058779 0.9960 0.9960 0.9960
v 0.030902 1.820000 -0.095106 0.9960 0.9960 0.9960
v -0.037082 1.740000 -0.114127 1.0000 1.0000 1.0000
v -0.030902 1.820000 -0.095106 0.9960 0.9960 0.9960
v -0.100000 1.820000 -0.000000 0.9804 0.9804 0.9804
v -0.080902 1.820000 -0.058779 0.9921 0.9921 0.9921
v -0.120000 1.740000 -0.000000 0.9764 0.9764 0.9764
v -0.037082 1.740000 0.114127 0.8431 0.8431 0.8431
v 0.100000 1.820000 0.000000 0.9921 0.9921 0.9921
v -0.080902 1.820000 0.058779 0.9451 0.9451 0.9451
v -0.030902 1.820000 0.095106 0.8941 0.8941 0.8941
v 0.030902 1.820000 0.095106 0.9607 0.9607 0.9607
v 0.080902 1.820000 0.058779 0.9921 0.9921 0.9921
v 0.000000 1.860000 0.000000 0.9725 0.9725 0.9725
v 0.060000 1.702500 0.125000 0.9333 0.9333 0.9333
v -0.060000 1.702500 0.105000 0.8078 0.8078 0.8078
v 0.060000 1.677500 0.125000 0.9176 0.9176 0.9176
v 0.060000 1.677500 0.105000 0.8274 0.8274 0.8274
v 0.060000 1.702500 0.105000 0.8392 0.8392 0.8392
v -0.060000 1.702500 0.125000 0.8235 0.8235 0.8235
v -0.060000 1.677500 0.105000 0.7960 0.7960 0.7960
v -0.060000 1.677500 0.125000 0.8039 0.8039 0.8039
v -0.006000 1.620000 0.115000 0.8196 0.8196 0.8196
v 0.006000 1.620000 0.115000 0.8509 0.8509 0.8509
v 0.006000 1.620000 0.085000 0.7020 0.7020 0.7020
v 0.006000 1.820000 0.085000 0.7020 0.7020 0.7020
v -0.006000 1.820000 0.085000 0.7020 0.7020 0.7020
v -0.006000 1.820000 0.115000 0.9058 0.9058 0.9058
v 0.006000 1.820000 0.115000 0.9411 0.9411 0.9411
v -0.006000 1.620000 0.085000 0.7020 0.7020 0.7020
vn -0.0000 -1.0000 -0.0000
vn 0.1755 -0.9762 -0.1275
vn 0.2169 -0.9762 -0.0000
vn 0.0670 -0.9762 -0.2063
vn -0.0670 -0.9762 -0.2063
vn -0.1755 -0.9762 -0.1275
vn -0.2169 -0.9762 -0.0000
vn -0.1755 -0.9762 0.1275
vn -0.0670 -0.9762 0.2063
vn 0.0670 -0.9762 0.2063
vn 0.1755 -0.9762 0.1275
vn 0.9578 -0.2873 -0.0000
vn 0.7749 -0.2873 -0.5630
vn 0.8009 -0.1413 -0.5819
vn 0.9900 -0.1413 -0.0000
vn 0.2960 -0.2873 -0.9109
vn 0.3059 -0.1413 -0.9415
vn -0.2960 -0.2873 -0.9109
vn -0.3059 -0.1413 -0.9415
vn -0.7749 -0.2873 -0.5630
vn -0.8009 -0.1413 -0.5819
vn -0.9578 -0.2873 -0.0000
vn -0.9900 -0.1413 -0.0000
vn -0.7749 -0.2873 0.5630
vn -0.8009 -0.1413 0.5819
vn -0.2960 -0.2873 0.9109
vn -0.3059 -0.1413 0.9415
vn 0.2960 -0.2873 0.9109
vn 0.3059 -0.1413 0.9415
vn 0.7749 -0.2873 0.5630
vn 0.8009 -0.1413 0.5819
vn 0.8032 0.1194 -0.5836
vn 0.9929 0.1194 -0.0000
vn 0.3068 0.1194 -0.9443
vn -0.3068 0.1194 -0.9443
vn -0.8032 0.1194 -0.5836
vn -0.9929 0.1194 -0.0000
vn -0.8032 0.1194 0.5836
vn -0.3068 0.1194 0.9443
vn 0.3068 0.1194 0.9443
vn 0.8032 0.1194 0.5836
vn 0.7849 0.2425 -0.5702
vn 0.9701 0.2425 -0.0000
vn 0.2998 0.2425 -0.9227
vn -0.2998 0.2425 -0.9227
vn -0.7849 0.2425 -0.5702
vn -0.9701 0.2425 -0.0000
vn -0.7849 0.2425 0.5702
vn -0.2998 0.2425 0.9227
vn 0.2998 0.2425 0.9227
vn 0.7849 0.2425 0.5702
vn 0.3714 0.9285 -0.0000
vn 0.3005 0.9285 -0.2183
vn -0.0000 1.0000 -0.0000
vn 0.1148 0.9285 -0.3532
vn -0.1148 0.9285 -0.3532
vn -0.3005 0.9285 -0.2183
vn -0.3714 0.9285 -0.0000
vn -0.3005 0.9285 0.2183
vn -0.1148 0.9285 0.3532
vn 0.1148 0.9285 0.3532
vn 0.3005 0.9285 0.2183
vn -0.0000 -0.0000 1.0000
vn -0.0000 -0.0000 -1.0000
vn -1.0000 -0.0000 -0.0000
vn 1.0000 -0.0000 -0.0000
vt 0.330127 0.844238
vt 0.331641 0.849746
vt 0.328613 0.849746
vt 0.333154 0.844238
vt 0.334668 0.849746
vt 0.336182 0.844238
vt 0.337695 0.849746
vt 0.339209 0.844238
vt 0.340723 0.849746
vt 0.342236 0.844238
vt 0.343750 0.849746
vt 0.345264 0.844238
vt 0.346777 0.849746
vt 0.348291 0.844238
vt 0.349805 0.849746
vt 0.351318 0.844238
vt 0.352832 0.849746
vt 0.354346 0.844238
vt 0.355859 0.849746
vt 0.357373 0.844238
vt 0.358887 0.849746
vt 0.331641 0.855983
vt 0.328613 0.855983
vt 0.334668 0.855983
vt 0.337695 0.855983
vt 0.340723 0.855983
vt 0.343750 0.855983
vt 0.346777 0.855983
vt 0.349805 0.855983
vt 0.352832 0.855983
vt 0.355859 0.855983
vt 0.358887 0.855983
vt 0.331641 0.863151
vt 0.328613 0.863151
vt 0.334668 0.863151
vt 0.337695 0.863151
vt 0.340723 0.863151
vt 0.343750 0.863151
vt 0.346777 0.863151
vt 0.349805 0.863151
vt 0.352832 0.863151
vt 0.355859 0.863151
vt 0.358887 0.863151
vt 0.331641 0.868078
vt 0.328613 0.868078
vt 0.334668 0.868078
vt 0.337695 0.868078
vt 0.340723 0.868078
vt 0.343750 0.868078
vt 0.346777 0.868078
vt 0.349805 0.868078
vt 0.352832 0.868078
vt 0.355859 0.868078
vt 0.358887 0.868078
vt 0.330127 0.874512
vt 0.333154 0.874512
vt 0.336182 0.874512
vt 0.339209 0.874512
vt 0.342236 0.874512
vt 0.345264 0.874512
vt 0.348291 0.874512
vt 0.351318 0.874512
vt 0.354346 0.874512
vt 0.357373 0.874512
vt 0.664551 0.871582
vt 0.667480 0.871582
vt 0.667480 0.872192
vt 0.664551 0.872192
vt 0.666426 0.871582
vt 0.666426 0.873926
vt 0.664551 0.873926
vt 0.667480 0.872070
vt 0.664551 0.872070
vt 0.328613 0.844238
vt 0.330066 0.844238
vt 0.330066 0.868457
vt 0.328613 0.868457
vt 0.332246 0.844238
vt 0.332246 0.868457
vt 0.330066 0.847871
vt 0.328613 0.847871
s 1
usemtl props
f 317/224/195 316/225/196 322/226/197
f 317/227/195 323/228/198 316/225/196
f 317/229/195 318/230/199 323/228/198
f 317/231/195 326/232/200 318/230/199
f 317/233/195 320/234/201 326/232/200
f 317/235/195 319/236/202 320/234/201
f 317/237/195 328/238/203 319/236/202
f 317/239/195 329/240/204 328/238/203
f 317/241/195 321/242/205 329/240/204
f 317/243/195 322/244/197 321/242/205
f 322/226/206 316/225/207 335/245/208 332/246/209
f 316/225/207 323/228/210 336/247/211 335/245/208
f 323/228/210 318/230/212 324/248/213 336/247/211
f 318/230/212 326/232/214 325/249/215 324/248/213
f 326/232/214 320/234/216 327/250/217 325/249/215
f 320/234/216 319/236/218 339/251/219 327/250/217
f 319/236/218 328/238/220 341/252/221 339/251/219
f 328/238/220 329/240/222 330/253/223 341/252/221
f 329/240/222 321/242/224 331/254/225 330/253/223
f 321/242/224 322/244/206 332/255/209 331/254/225
f 332/246/209 335/245/208 333/256/226 334/257/227
f 335/245/208 336/247/211 337/258/228 333/256/226
f 336/247/211 324/248/213 346/259/229 337/258/228
f 324/248/213 325/249/215 338/260/230 346/259/229
f 325/249/215 327/250/217 350/261/231 338/260/230
f 327/250/217 339/251/219 340/262/232 350/261/231
f 339/251/219 341/252/221 351/263/233 340/262/232
f 341/252/221 330/253/223 342/264/234 351/263/233
f 330/253/223 331/254/225 343/265/235 342/264/234
f 331/254/225 332/255/209 334/266/227 343/265/235
f 334/257/227 333/256/226 344/267/236 352/268/237
f 333/256/226 337/258/228 345/269/238 344/267/236
f 337/258/228 346/259/229 347/270/239 345/269/238
f 346/259/229 338/260/230 349/271/240 347/270/239
f 338/260/230 350/261/231 348/272/241 349/271/240
f 350/261/231 340/262/232 353/273/242 348/272/241
f 340/262/232 351/263/233 354/274/243 353/273/242
f 351/263/233 342/264/234 355/275/244 354/274/243
f 342/264/234 343/265/235 356/276/245 355/275/244
f 343/265/235 334/266/227 352/277/237 356/276/245
f 352/268/246 344/267/247 357/278/248
f 344/267/247 345/269/249 357/279/248
f 345/269/249 347/270/250 357/280/248
f 347/270/250 349/271/251 357/281/248
f 349/271/251 348/272/252 357/282/248
f 348/272/252 353/273/253 357/283/248
f 353/273/253 354/274/254 357/284/248
f 354/274/254 355/275/255 357/285/248
f 355/275/255 356/276/256 357/286/248
f 356/276/256 352/277/246 357/287/248
s 0
f 365/288/257 360/289/257 358/290/257 363/291/257
f 361/288/258 364/289/258 359/290/258 362/291/258
f 364/288/259 365/292/259 363/293/259 359/294/259
f 360/288/260 361/292/260 362/293/260 358/294/260
f 363/288/248 358/289/248 362/295/248 359/296/248
f 364/288/195 361/289/195 360/295/195 365/296/195
f 366/297/257 367/298/257 372/299/257 371/300/257
f 368/297/258 373/298/258 370/299/258 369/300/258
f 373/297/259 366/301/259 371/302/259 370/300/259
f 367/297/260 368/301/260 369/302/260 372/300/260
f 371/297/248 372/298/248 369/303/248 370/304/248
f 373/297/195 368/298/195 367/303/195 366/304/195
