# Blender 4.5.14 LTS
# www.blender.org
mtllib wall_damask.mtl
o wall_damask
v -1.000000 0.000000 0.100000 0.8470 0.8470 0.8470
v 0.000000 0.000000 0.100000 0.8470 0.8470 0.8470
v -1.000000 0.000000 -0.100000 0.8509 0.8509 0.8509
v -1.000000 1.000000 0.100000 1.0000 1.0000 1.0000
v -1.000000 1.000000 -0.100000 1.0000 1.0000 1.0000
v -1.000000 2.000000 0.100000 1.0000 1.0000 1.0000
v -1.000000 3.000000 0.100000 1.0000 1.0000 1.0000
v -1.000000 3.000000 -0.100000 1.0000 1.0000 1.0000
v -1.000000 2.000000 -0.100000 1.0000 1.0000 1.0000
v 1.000000 0.000000 0.100000 0.8470 0.8470 0.8470
v 0.000000 1.000000 -0.100000 1.0000 1.0000 1.0000
v 1.000000 0.000000 -0.100000 0.8509 0.8509 0.8509
v 0.000000 0.000000 -0.100000 0.8509 0.8509 0.8509
v 0.000000 1.000000 0.100000 1.0000 1.0000 1.0000
v 1.000000 1.000000 0.100000 1.0000 1.0000 1.0000
v 1.000000 1.000000 -0.100000 1.0000 1.0000 1.0000
v 0.000000 2.000000 0.100000 1.0000 1.0000 1.0000
v 1.000000 2.000000 0.100000 1.0000 1.0000 1.0000
v 0.000000 3.000000 -0.100000 1.0000 1.0000 1.0000
v 1.000000 2.000000 -0.100000 1.0000 1.0000 1.0000
v 0.000000 2.000000 -0.100000 1.0000 1.0000 1.0000
v 0.000000 3.000000 0.100000 1.0000 1.0000 1.0000
v 1.000000 3.000000 0.100000 1.0000 1.0000 1.0000
v 1.000000 3.000000 -0.100000 1.0000 1.0000 1.0000
vn -0.0000 -0.0000 1.0000
vn -0.0000 -0.0000 -1.0000
vn -0.0000 1.0000 -0.0000
vt 0.625488 0.875488
vt 0.749512 0.875488
vt 0.749512 0.999512
vt 0.625488 0.999512
vt 0.250488 0.875488
vt 0.374512 0.875488
vt 0.374512 0.999512
vt 0.250488 0.999512
vt 0.375488 0.875488
vt 0.499512 0.875488
vt 0.499512 0.999512
vt 0.375488 0.999512
vt 0.499512 0.900293
vt 0.375488 0.900293
s 0
usemtl props
f 1/1/1 2/2/1 14/3/1 4/4/1
f 5/3/2 11/4/2 13/1/2 3/2/2
f 4/5/1 14/6/1 17/7/1 6/8/1
f 9/7/2 21/8/2 11/5/2 5/6/2
f 6/9/1 17/10/1 22/11/1 7/12/1
f 8/11/2 19/12/2 21/9/2 9/10/2
f 2/1/1 10/2/1 15/3/1 14/4/1
f 11/3/2 16/4/2 12/1/2 13/2/2
f 14/5/1 15/6/1 18/7/1 17/8/1
f 21/7/2 20/8/2 16/5/2 11/6/2
f 17/9/1 18/10/1 23/11/1 22/12/1
f 19/11/2 24/12/2 20/9/2 21/10/2
f 7/9/3 22/10/3 19/13/3 8/14/3
f 22/9/3 23/10/3 24/13/3 19/14/3
