# Blender 4.5.14 LTS
# www.blender.org
mtllib wall_doorway_damask.mtl
o wall_doorway_damask
v -1.000000 0.000000 0.100000 0.8470 0.8470 0.8470
v -0.500000 1.000000 0.100000 1.0000 1.0000 1.0000
v -1.000000 1.000000 0.100000 1.0000 1.0000 1.0000
v -1.000000 0.000000 -0.100000 0.8509 0.8509 0.8509
v -1.000000 2.000000 0.100000 1.0000 1.0000 1.0000
v -1.000000 1.000000 -0.100000 1.0000 1.0000 1.0000
v -0.500000 3.000000 0.100000 1.0000 1.0000 1.0000
v -1.000000 3.000000 0.100000 1.0000 1.0000 1.0000
v -1.000000 3.000000 -0.100000 1.0000 1.0000 1.0000
v -1.000000 2.000000 -0.100000 1.0000 1.0000 1.0000
v -0.500000 3.000000 -0.100000 1.0000 1.0000 1.0000
v -0.500000 0.000000 0.100000 0.8509 0.8509 0.8509
v -0.500000 0.000000 -0.100000 0.8509 0.8509 0.8509
v -0.500000 1.000000 -0.100000 1.0000 1.0000 1.0000
v -0.500000 2.000000 0.100000 0.9764 0.9764 0.9764
v -0.500000 2.000000 -0.100000 0.9804 0.9804 0.9804
v -0.500000 2.200000 -0.100000 0.8784 0.8784 0.8784
v -0.500000 2.200000 0.100000 0.8784 0.8784 0.8784
vn -0.0000 -0.0000 1.0000
vn -0.0000 -0.0000 -1.0000
vn -0.0000 1.0000 -0.0000
vn 1.0000 -0.0000 -0.0000
vt 0.625488 0.875488
vt 0.687500 0.875488
vt 0.687500 0.999512
vt 0.625488 0.999512
vt 0.749512 0.999512
vt 0.749512 0.875488
vt 0.250488 0.875488
vt 0.312500 0.875488
vt 0.312500 0.999512
vt 0.250488 0.999512
vt 0.374512 0.999512
vt 0.374512 0.875488
vt 0.375488 0.875488
vt 0.437500 0.875488
vt 0.437500 0.999512
vt 0.375488 0.999512
vt 0.499512 0.999512
vt 0.499512 0.875488
vt 0.437500 0.900293
vt 0.375488 0.900293
vt 0.650293 0.875488
vt 0.650293 0.999512
vt 0.275293 0.875488
vt 0.275293 0.999512
vt 0.400293 0.875488
vt 0.400293 0.900293
s 0
usemtl props
f 1/1/1 12/2/1 2/3/1 3/4/1
f 6/5/2 14/3/2 13/2/2 4/6/2
f 3/7/1 2/8/1 15/9/1 5/10/1
f 10/11/2 16/9/2 14/8/2 6/12/2
f 5/13/1 15/14/1 7/15/1 8/16/1
f 9/17/2 11/15/2 16/14/2 10/18/2
f 8/13/3 7/14/3 11/19/3 9/20/3
f 12/1/4 13/21/4 14/22/4 2/4/4
f 2/7/4 14/23/4 16/24/4 15/10/4
f 15/13/4 16/25/4 17/26/4 18/20/4
o wall_doorway_damask_1
v -0.500000 2.200000 0.100000 0.9490 0.9490 0.9490
v -0.500000 3.000000 0.100000 1.0000 1.0000 1.0000
v 0.500000 2.200000 0.100000 0.9490 0.9490 0.9490
v 0.500000 2.200000 -0.100000 0.9490 0.9490 0.9490
v -0.500000 3.000000 -0.100000 1.0000 1.0000 1.0000
v 0.000000 3.000000 0.100000 1.0000 1.0000 1.0000
v 0.500000 3.000000 0.100000 1.0000 1.0000 1.0000
v 0.500000 3.000000 -0.100000 1.0000 1.0000 1.0000
v 0.000000 3.000000 -0.100000 1.0000 1.0000 1.0000
v -0.500000 2.200000 -0.100000 0.9490 0.9490 0.9490
v 0.000000 2.200000 -0.100000 1.0000 1.0000 1.0000
v 0.000000 2.200000 0.100000 1.0000 1.0000 1.0000
vn -0.0000 -0.0000 1.0000
vn -0.0000 -0.0000 -1.0000
vn -0.0000 1.0000 -0.0000
vn -0.0000 -1.0000 -0.0000
vt 0.437500 0.900293
vt 0.499512 0.900293
vt 0.499512 0.999512
vt 0.437500 0.999512
vt 0.375488 0.999512
vt 0.375488 0.900293
vt 0.437500 0.875488
vt 0.499512 0.875488
vt 0.375488 0.875488
s 0
usemtl props
f 19/27/5 30/28/5 24/29/5 20/30/5
f 23/30/6 27/31/6 29/32/6 28/27/6
f 30/32/5 21/27/5 25/30/5 24/31/5
f 27/29/6 26/30/6 22/27/6 29/28/6
f 20/33/7 24/34/7 27/28/7 23/27/7
f 24/35/7 25/33/7 26/27/7 27/32/7
f 28/27/8 29/28/8 30/34/8 19/33/8
f 29/32/8 22/27/8 21/33/8 30/35/8
o wall_doorway_damask_2
v 1.000000 0.000000 0.100000 0.8470 0.8470 0.8470
v 1.000000 1.000000 0.100000 1.0000 1.0000 1.0000
v 1.000000 0.000000 -0.100000 0.8509 0.8509 0.8509
v 0.500000 1.000000 0.100000 1.0000 1.0000 1.0000
v 1.000000 2.000000 0.100000 1.0000 1.0000 1.0000
v 1.000000 1.000000 -0.100000 1.0000 1.0000 1.0000
v 1.000000 3.000000 0.100000 1.0000 1.0000 1.0000
v 0.500000 3.000000 -0.100000 1.0000 1.0000 1.0000
v 1.000000 3.000000 -0.100000 1.0000 1.0000 1.0000
v 1.000000 2.000000 -0.100000 1.0000 1.0000 1.0000
v 0.500000 2.000000 -0.100000 0.9764 0.9764 0.9764
v 0.500000 3.000000 0.100000 1.0000 1.0000 1.0000
v 0.500000 0.000000 -0.100000 0.8470 0.8470 0.8470
v 0.500000 0.000000 0.100000 0.8470 0.8470 0.8470
v 0.500000 1.000000 -0.100000 1.0000 1.0000 1.0000
v 0.500000 2.000000 0.100000 0.9843 0.9843 0.9843
v 0.500000 2.200000 0.100000 0.8862 0.8862 0.8862
v 0.500000 2.200000 -0.100000 0.8784 0.8784 0.8784
vn -0.0000 -0.0000 1.0000
vn -0.0000 -0.0000 -1.0000
vn -0.0000 1.0000 -0.0000
vn -1.0000 -0.0000 -0.0000
vt 0.687500 0.875488
vt 0.749512 0.875488
vt 0.749512 0.999512
vt 0.687500 0.999512
vt 0.625488 0.999512
vt 0.625488 0.875488
vt 0.312500 0.875488
vt 0.374512 0.875488
vt 0.374512 0.999512
vt 0.312500 0.999512
vt 0.250488 0.999512
vt 0.250488 0.875488
vt 0.437500 0.875488
vt 0.499512 0.875488
vt 0.499512 0.999512
vt 0.437500 0.999512
vt 0.375488 0.999512
vt 0.375488 0.875488
vt 0.499512 0.900293
vt 0.437500 0.900293
vt 0.650293 0.875488
vt 0.650293 0.999512
vt 0.275293 0.875488
vt 0.275293 0.999512
vt 0.400293 0.875488
vt 0.400293 0.900293
vt 0.375488 0.900293
s 0
usemtl props
f 44/36/9 31/37/9 32/38/9 34/39/9
f 45/39/10 36/40/10 33/41/10 43/36/10
f 34/42/9 32/43/9 35/44/9 46/45/9
f 41/45/10 40/46/10 36/47/10 45/42/10
f 46/48/9 35/49/9 37/50/9 42/51/9
f 38/51/10 39/52/10 40/53/10 41/48/10
f 42/48/11 37/49/11 39/54/11 38/55/11
f 43/41/12 44/56/12 34/57/12 45/40/12
f 45/47/12 34/58/12 46/59/12 41/46/12
f 41/53/12 46/60/12 47/61/12 48/62/12
