# Blender 4.5.14 LTS
# www.blender.org
mtllib wall_window_damask.mtl
o wall_window_damask
v -1.000000 0.000000 0.100000 0.8470 0.8470 0.8470
v -0.500000 0.000000 0.100000 0.8470 0.8470 0.8470
v -0.500000 1.000000 0.100000 0.9843 0.9843 0.9843
v -0.500000 0.000000 -0.100000 0.8509 0.8509 0.8509
v -1.000000 0.000000 -0.100000 0.8509 0.8509 0.8509
v -1.000000 1.000000 0.100000 1.0000 1.0000 1.0000
v -1.000000 1.000000 -0.100000 1.0000 1.0000 1.0000
v -1.000000 2.000000 0.100000 1.0000 1.0000 1.0000
v -0.500000 3.000000 0.100000 1.0000 1.0000 1.0000
v -1.000000 3.000000 0.100000 1.0000 1.0000 1.0000
v -1.000000 3.000000 -0.100000 1.0000 1.0000 1.0000
v -1.000000 2.000000 -0.100000 1.0000 1.0000 1.0000
v -0.500000 3.000000 -0.100000 1.0000 1.0000 1.0000
v -0.500000 0.700000 0.100000 0.8941 0.8941 0.8941
v -0.500000 0.700000 -0.100000 0.8902 0.8902 0.8902
v -0.500000 1.000000 -0.100000 0.9882 0.9882 0.9882
v -0.500000 2.000000 0.100000 1.0000 1.0000 1.0000
v -0.500000 2.000000 -0.100000 1.0000 1.0000 1.0000
v -0.500000 2.600000 -0.100000 0.9019 0.9019 0.9019
v -0.500000 2.600000 0.100000 0.8980 0.8980 0.8980
vn -0.0000 -0.0000 1.0000
vn -0.0000 -0.0000 -1.0000
vn -0.0000 1.0000 -0.0000
vn 1.0000 -0.0000 -0.0000
vt 0.625488 0.875488
vt 0.687500 0.875488
vt 0.687500 0.999512
vt 0.625488 0.999512
vt 0.124512 0.999512
vt 0.062500 0.999512
vt 0.062500 0.875488
vt 0.124512 0.875488
vt 0.250488 0.875488
vt 0.312500 0.875488
vt 0.312500 0.999512
vt 0.250488 0.999512
vt 0.375488 0.875488
vt 0.437500 0.875488
vt 0.437500 0.999512
vt 0.375488 0.999512
vt 0.437500 0.900293
vt 0.375488 0.900293
vt 0.625488 0.962305
vt 0.650293 0.962305
vt 0.650293 0.999512
vt 0.275293 0.875488
vt 0.275293 0.999512
vt 0.400293 0.875488
vt 0.400293 0.949902
vt 0.375488 0.949902
s 0
usemtl props
f 1/1/1 2/2/1 3/3/1 6/4/1
f 7/5/2 16/6/2 4/7/2 5/8/2
f 6/9/1 3/10/1 17/11/1 8/12/1
f 12/5/2 18/6/2 16/7/2 7/8/2
f 8/13/1 17/14/1 9/15/1 10/16/1
f 11/5/2 13/6/2 18/7/2 12/8/2
f 10/13/3 9/14/3 13/17/3 11/18/3
f 14/19/4 15/20/4 16/21/4 3/4/4
f 3/9/4 16/22/4 18/23/4 17/12/4
f 17/13/4 18/24/4 19/25/4 20/26/4
o wall_window_damask_1
v -0.500000 0.000000 0.100000 0.8470 0.8470 0.8470
v -0.500000 0.000000 -0.100000 0.8509 0.8509 0.8509
v 0.000000 0.000000 0.100000 0.8470 0.8470 0.8470
v 0.500000 0.000000 0.100000 0.8470 0.8470 0.8470
v 0.500000 0.700000 0.100000 0.9490 0.9490 0.9490
v 0.000000 0.700000 -0.100000 1.0000 1.0000 1.0000
v 0.500000 0.000000 -0.100000 0.8509 0.8509 0.8509
v 0.000000 0.000000 -0.100000 0.8509 0.8509 0.8509
v -0.500000 0.700000 0.100000 0.9490 0.9490 0.9490
v -0.500000 0.700000 -0.100000 0.9529 0.9529 0.9529
v 0.000000 0.700000 0.100000 1.0000 1.0000 1.0000
v 0.500000 0.700000 -0.100000 0.9490 0.9490 0.9490
vn -0.0000 -0.0000 1.0000
vn -0.0000 -0.0000 -1.0000
vn -0.0000 1.0000 -0.0000
vt 0.687500 0.875488
vt 0.749512 0.875488
vt 0.749512 0.962305
vt 0.687500 0.962305
vt 0.062500 0.962305
vt 0.000488 0.962305
vt 0.000488 0.875488
vt 0.062500 0.875488
vt 0.625488 0.875488
vt 0.625488 0.962305
vt 0.124512 0.962305
vt 0.124512 0.875488
vt 0.437500 0.875488
vt 0.499512 0.875488
vt 0.499512 0.900293
vt 0.437500 0.900293
vt 0.375488 0.875488
vt 0.375488 0.900293
s 0
usemtl props
f 21/27/5 23/28/5 31/29/5 29/30/5
f 30/31/6 26/32/6 28/33/6 22/34/6
f 23/35/5 24/27/5 25/30/5 31/36/5
f 26/37/6 32/31/6 27/34/6 28/38/6
f 29/39/7 31/40/7 26/41/7 30/42/7
f 31/43/7 25/39/7 32/42/7 26/44/7
o wall_window_damask_2
v -0.500000 2.600000 0.100000 0.9490 0.9490 0.9490
v -0.500000 3.000000 0.100000 1.0000 1.0000 1.0000
v 0.500000 2.600000 0.100000 0.9490 0.9490 0.9490
v 0.500000 2.600000 -0.100000 0.9490 0.9490 0.9490
v -0.500000 3.000000 -0.100000 1.0000 1.0000 1.0000
v 0.000000 3.000000 0.100000 1.0000 1.0000 1.0000
v 0.500000 3.000000 0.100000 1.0000 1.0000 1.0000
v 0.500000 3.000000 -0.100000 1.0000 1.0000 1.0000
v 0.000000 3.000000 -0.100000 1.0000 1.0000 1.0000
v -0.500000 2.600000 -0.100000 0.9490 0.9490 0.9490
v 0.000000 2.600000 -0.100000 1.0000 1.0000 1.0000
v 0.000000 2.600000 0.100000 1.0000 1.0000 1.0000
vn -0.0000 -0.0000 1.0000
vn -0.0000 -0.0000 -1.0000
vn -0.0000 1.0000 -0.0000
vn -0.0000 -1.0000 -0.0000
vt 0.437500 0.949902
vt 0.499512 0.949902
vt 0.499512 0.999512
vt 0.437500 0.999512
vt 0.062500 0.999512
vt 0.000488 0.999512
vt 0.000488 0.949902
vt 0.062500 0.949902
vt 0.375488 0.949902
vt 0.375488 0.999512
vt 0.124512 0.999512
vt 0.124512 0.949902
vt 0.437500 0.875488
vt 0.499512 0.875488
vt 0.499512 0.900293
vt 0.437500 0.900293
vt 0.375488 0.875488
vt 0.375488 0.900293
s 0
usemtl props
f 33/45/8 44/46/8 38/47/8 34/48/8
f 37/49/9 41/50/9 43/51/9 42/52/9
f 44/53/8 35/45/8 39/48/8 38/54/8
f 41/55/9 40/49/9 36/52/9 43/56/9
f 34/57/10 38/58/10 41/59/10 37/60/10
f 38/61/10 39/57/10 40/60/10 41/62/10
f 42/60/11 43/59/11 44/58/11 33/57/11
f 43/62/11 36/60/11 35/57/11 44/61/11
o wall_window_damask_3
v 0.500000 0.000000 0.100000 0.8470 0.8470 0.8470
v 1.000000 0.000000 0.100000 0.8470 0.8470 0.8470
v 1.000000 1.000000 0.100000 1.0000 1.0000 1.0000
v 1.000000 0.000000 -0.100000 0.8509 0.8509 0.8509
v 0.500000 0.000000 -0.100000 0.8509 0.8509 0.8509
v 0.500000 1.000000 0.100000 0.9882 0.9882 0.9882
v 1.000000 2.000000 0.100000 1.0000 1.0000 1.0000
v 1.000000 1.000000 -0.100000 1.0000 1.0000 1.0000
v 1.000000 3.000000 0.100000 1.0000 1.0000 1.0000
v 0.500000 3.000000 -0.100000 1.0000 1.0000 1.0000
v 1.000000 3.000000 -0.100000 1.0000 1.0000 1.0000
v 1.000000 2.000000 -0.100000 1.0000 1.0000 1.0000
v 0.500000 2.000000 -0.100000 1.0000 1.0000 1.0000
v 0.500000 3.000000 0.100000 1.0000 1.0000 1.0000
v 0.500000 0.700000 -0.100000 0.8902 0.8902 0.8902
v 0.500000 0.700000 0.100000 0.8902 0.8902 0.8902
v 0.500000 1.000000 -0.100000 0.9882 0.9882 0.9882
v 0.500000 2.000000 0.100000 1.0000 1.0000 1.0000
v 0.500000 2.600000 0.100000 0.9058 0.9058 0.9058
v 0.500000 2.600000 -0.100000 0.8980 0.8980 0.8980
vn -0.0000 -0.0000 1.0000
vn -0.0000 -0.0000 -1.0000
vn -0.0000 1.0000 -0.0000
vn -1.0000 -0.0000 -0.0000
vt 0.687500 0.875488
vt 0.749512 0.875488
vt 0.749512 0.999512
vt 0.687500 0.999512
vt 0.062500 0.999512
vt 0.000488 0.999512
vt 0.000488 0.875488
vt 0.062500 0.875488
vt 0.312500 0.875488
vt 0.374512 0.875488
vt 0.374512 0.999512
vt 0.312500 0.999512
vt 0.437500 0.875488
vt 0.499512 0.875488
vt 0.499512 0.999512
vt 0.437500 0.999512
vt 0.499512 0.900293
vt 0.437500 0.900293
vt 0.000488 0.962305
vt 0.025293 0.962305
vt 0.025293 0.999512
vt 0.025293 0.875488
vt 0.025293 0.949902
vt 0.000488 0.949902
s 0
usemtl props
f 45/63/12 46/64/12 47/65/12 50/66/12
f 61/67/13 52/68/13 48/69/13 49/70/13
f 50/71/12 47/72/12 51/73/12 62/74/12
f 57/67/13 56/68/13 52/69/13 61/70/13
f 62/75/12 51/76/12 53/77/12 58/78/12
f 54/67/13 55/68/13 56/69/13 57/70/13
f 58/75/14 53/76/14 55/79/14 54/80/14
f 59/81/15 60/82/15 50/83/15 61/68/15
f 61/69/15 50/84/15 62/83/15 57/68/15
f 57/69/15 62/84/15 63/85/15 64/86/15
