# Blender 4.5.14 LTS
# www.blender.org
mtllib window_tall.mtl
o window_tall
v 0.580000 0.685000 0.180000 1.0000 1.0000 1.0000
v 0.580000 0.685000 -0.120000 1.0000 1.0000 1.0000
v 0.580000 0.735000 -0.120000 0.9764 0.9764 0.9764
v -0.580000 0.735000 -0.120000 0.9764 0.9764 0.9764
v -0.580000 0.735000 0.180000 0.9804 0.9804 0.9804
v 0.580000 0.735000 0.180000 0.9804 0.9804 0.9804
v -0.580000 0.685000 -0.120000 1.0000 1.0000 1.0000
v -0.580000 0.685000 0.180000 1.0000 1.0000 1.0000
v -0.560000 0.700000 0.040000 0.7020 0.7020 0.7020
v -0.560000 0.700000 -0.080000 0.7020 0.7020 0.7020
v -0.500000 2.600000 -0.080000 0.9019 0.9019 0.9019
v -0.560000 2.600000 0.040000 1.0000 1.0000 1.0000
v -0.500000 2.600000 0.040000 0.8980 0.8980 0.8980
v -0.500000 0.700000 -0.080000 0.7020 0.7020 0.7020
v -0.500000 0.700000 0.040000 0.7020 0.7020 0.7020
v 0.560000 0.700000 -0.080000 0.7020 0.7020 0.7020
v 0.500000 2.600000 0.040000 0.8980 0.8980 0.8980
v 0.560000 2.600000 0.040000 1.0000 1.0000 1.0000
v 0.560000 2.600000 -0.080000 1.0000 1.0000 1.0000
v 0.500000 2.600000 -0.080000 0.9019 0.9019 0.9019
v 0.500000 0.700000 -0.080000 0.7020 0.7020 0.7020
v 0.560000 0.700000 0.040000 0.7020 0.7020 0.7020
v 0.500000 0.700000 0.040000 0.7020 0.7020 0.7020
v 0.560000 2.540000 -0.080000 0.9019 0.9019 0.9019
v -0.560000 2.540000 -0.080000 0.8980 0.8980 0.8980
v 0.560000 2.540000 0.040000 0.9019 0.9019 0.9019
v -0.560000 2.600000 -0.080000 1.0000 1.0000 1.0000
v -0.560000 2.540000 0.040000 0.9019 0.9019 0.9019
v 0.500000 1.650000 -0.030000 0.7020 0.7020 0.7020
v 0.500000 1.650000 -0.070000 0.7843 0.7843 0.7843
v -0.500000 1.650000 -0.030000 0.7020 0.7020 0.7020
v -0.500000 1.650000 -0.070000 0.7843 0.7843 0.7843
v 0.500000 1.600000 -0.030000 0.7255 0.7255 0.7255
v 0.500000 1.600000 -0.070000 0.8000 0.8000 0.8000
v -0.500000 2.570000 -0.030000 0.7020 0.7020 0.7020
v -0.500000 2.530000 -0.070000 0.7725 0.7725 0.7725
v -0.500000 2.530000 -0.030000 0.7294 0.7294 0.7294
v -0.500000 2.570000 -0.070000 0.7020 0.7020 0.7020
v 0.500000 2.530000 -0.030000 0.7294 0.7294 0.7294
v 0.500000 2.570000 -0.030000 0.7020 0.7020 0.7020
v 0.500000 2.530000 -0.070000 0.7725 0.7725 0.7725
v -0.500000 1.600000 -0.030000 0.7255 0.7255 0.7255
v -0.450000 1.600000 -0.030000 0.7372 0.7372 0.7372
v -0.450000 2.570000 -0.030000 0.7020 0.7020 0.7020
v -0.450000 2.570000 -0.070000 0.7020 0.7020 0.7020
v -0.500000 1.600000 -0.070000 0.8000 0.8000 0.8000
v -0.450000 1.600000 -0.070000 0.8470 0.8470 0.8470
v 0.500000 2.570000 -0.070000 0.7020 0.7020 0.7020
v 0.450000 1.600000 -0.070000 0.8470 0.8470 0.8470
v 0.450000 2.570000 -0.030000 0.7020 0.7020 0.7020
v 0.450000 2.570000 -0.070000 0.7020 0.7020 0.7020
v 0.450000 1.600000 -0.030000 0.7372 0.7372 0.7372
v -0.175667 2.540000 -0.035000 0.7020 0.7020 0.7020
v -0.157667 2.540000 -0.065000 0.7020 0.7020 0.7020
v -0.175667 2.540000 -0.065000 0.7020 0.7020 0.7020
v -0.157667 1.630000 -0.035000 0.7020 0.7020 0.7020
v -0.157667 2.540000 -0.035000 0.7020 0.7020 0.7020
v -0.175667 1.630000 -0.065000 0.7020 0.7020 0.7020
v -0.157667 1.630000 -0.065000 0.7020 0.7020 0.7020
v -0.175667 1.630000 -0.035000 0.7020 0.7020 0.7020
v 0.157667 1.630000 -0.035000 0.7020 0.7020 0.7020
v 0.175667 1.630000 -0.035000 0.7020 0.7020 0.7020
v 0.157667 2.540000 -0.035000 0.7020 0.7020 0.7020
v 0.157667 2.540000 -0.065000 0.7020 0.7020 0.7020
v 0.175667 2.540000 -0.065000 0.7020 0.7020 0.7020
v 0.175667 2.540000 -0.035000 0.7020 0.7020 0.7020
v 0.157667 1.630000 -0.065000 0.7020 0.7020 0.7020
v 0.175667 1.630000 -0.065000 0.7020 0.7020 0.7020
v 0.470000 2.094000 -0.035000 0.7020 0.7020 0.7020
v -0.470000 2.094000 -0.065000 0.7020 0.7020 0.7020
v 0.470000 2.094000 -0.065000 0.7020 0.7020 0.7020
v -0.470000 2.076000 -0.065000 0.7020 0.7020 0.7020
v -0.470000 2.094000 -0.035000 0.7020 0.7020 0.7020
v 0.470000 2.076000 -0.065000 0.7020 0.7020 0.7020
v 0.470000 2.076000 -0.035000 0.7020 0.7020 0.7020
v -0.470000 2.076000 -0.035000 0.7020 0.7020 0.7020
v -0.475000 1.640000 -0.050000 0.7020 0.7020 0.7020
v 0.475000 1.640000 -0.050000 0.7020 0.7020 0.7020
v 0.475000 2.520000 -0.050000 0.7020 0.7020 0.7020
v -0.475000 2.520000 -0.050000 0.7020 0.7020 0.7020
v 0.475000 1.640000 -0.050200 0.7020 0.7020 0.7020
v -0.475000 1.640000 -0.050200 0.7020 0.7020 0.7020
v -0.475000 2.520000 -0.050200 0.7020 0.7020 0.7020
v 0.475000 2.520000 -0.050200 0.7020 0.7020 0.7020
vn -0.0000 -0.0000 1.0000
vn -0.0000 -0.0000 -1.0000
vn -1.0000 -0.0000 -0.0000
vn 1.0000 -0.0000 -0.0000
vn -0.0000 1.0000 -0.0000
vn -0.0000 -1.0000 -0.0000
vt 0.000488 0.812988
vt 0.062012 0.812988
vt 0.062012 0.815640
vt 0.000488 0.815640
vt 0.037402 0.812988
vt 0.037402 0.819141
vt 0.000488 0.819141
vt 0.062012 0.828900
vt 0.000488 0.828900
vt 0.937988 0.937988
vt 0.939931 0.937988
vt 0.939931 0.999512
vt 0.937988 0.999512
vt 0.941874 0.937988
vt 0.941874 0.999512
vt 0.945371 0.937988
vt 0.945371 0.952754
vt 0.937988 0.952754
vt 0.999512 0.937988
vt 0.999512 0.941284
vt 0.937988 0.941284
vt 0.952754 0.937988
vt 0.952754 0.945371
vt 0.937988 0.945371
vt 0.999512 0.944580
vt 0.937988 0.944580
vt 0.999512 0.941064
vt 0.937988 0.941064
vt 0.942910 0.937988
vt 0.942910 0.944141
vt 0.937988 0.944141
vt 0.999512 0.940449
vt 0.937988 0.940449
vt 0.942910 0.942910
vt 0.937988 0.942910
vt 0.941160 0.937988
vt 0.941160 0.999512
vt 0.940525 0.937988
vt 0.940525 0.999512
vt 0.944141 0.937988
vt 0.944141 0.942910
vt 0.939205 0.937988
vt 0.939205 0.999512
vt 0.940017 0.937988
vt 0.940017 0.999512
vt 0.940203 0.937988
vt 0.940203 0.941680
vt 0.937988 0.941680
vt 0.999512 0.939166
vt 0.937988 0.939166
vt 0.941680 0.937988
vt 0.941680 0.940203
vt 0.937988 0.940203
vt 0.999512 0.939952
vt 0.937988 0.939952
vt 0.875488 0.937988
vt 0.937012 0.937988
vt 0.937012 0.999512
vt 0.875488 0.999512
s 0
usemtl props
f 8/1/1 1/2/1 6/3/1 5/4/1
f 2/1/2 7/2/2 4/3/2 3/4/2
f 7/1/3 8/5/3 5/6/3 4/7/3
f 1/1/4 2/5/4 3/6/4 6/7/4
f 5/1/5 6/2/5 3/8/5 4/9/5
f 7/1/6 2/2/6 1/8/6 8/9/6
f 9/10/1 15/11/1 13/12/1 12/13/1
f 14/10/2 10/11/2 27/12/2 11/13/2
f 10/10/3 9/14/3 12/15/3 27/13/3
f 15/10/4 14/14/4 11/15/4 13/13/4
f 12/10/5 13/16/5 11/17/5 27/18/5
f 10/10/6 14/16/6 15/17/6 9/18/6
f 23/10/1 22/11/1 18/12/1 17/13/1
f 16/10/2 21/11/2 20/12/2 19/13/2
f 21/10/3 23/14/3 17/15/3 20/13/3
f 22/10/4 16/14/4 19/15/4 18/13/4
f 17/10/5 18/16/5 19/17/5 20/18/5
f 21/10/6 16/16/6 22/17/6 23/18/6
f 28/10/1 26/19/1 18/20/1 12/21/1
f 24/10/2 25/19/2 27/20/2 19/21/2
f 25/10/3 28/22/3 12/23/3 27/24/3
f 26/10/4 24/22/4 19/23/4 18/24/4
f 12/10/5 18/19/5 19/25/5 27/26/5
f 25/10/6 24/19/6 26/25/6 28/26/6
f 42/10/1 33/19/1 29/27/1 31/28/1
f 34/10/2 46/19/2 32/27/2 30/28/2
f 46/10/3 42/29/3 31/30/3 32/31/3
f 33/10/4 34/29/4 30/30/4 29/31/4
f 31/10/5 29/19/5 30/32/5 32/33/5
f 46/10/6 34/19/6 33/32/6 42/33/6
f 37/10/1 39/19/1 40/32/1 35/33/1
f 41/10/2 36/19/2 38/32/2 48/33/2
f 36/10/3 37/29/3 35/34/3 38/35/3
f 39/10/4 41/29/4 48/34/4 40/35/4
f 35/10/5 40/19/5 48/32/5 38/33/5
f 36/10/6 41/19/6 39/32/6 37/33/6
f 42/10/1 43/36/1 44/37/1 35/13/1
f 47/10/2 46/36/2 38/37/2 45/13/2
f 46/10/3 42/38/3 35/39/3 38/13/3
f 43/10/4 47/38/4 45/39/4 44/13/4
f 35/10/5 44/40/5 45/41/5 38/35/5
f 46/10/6 47/40/6 43/41/6 42/35/6
f 52/10/1 33/36/1 40/37/1 50/13/1
f 34/10/2 49/36/2 51/37/2 48/13/2
f 49/10/3 52/38/3 50/39/3 51/13/3
f 33/10/4 34/38/4 48/39/4 40/13/4
f 50/10/5 40/40/5 48/41/5 51/35/5
f 49/10/6 34/40/6 33/41/6 52/35/6
f 60/10/1 56/42/1 57/43/1 53/13/1
f 59/10/2 58/42/2 55/43/2 54/13/2
f 58/10/3 60/44/3 53/45/3 55/13/3
f 56/10/4 59/44/4 54/45/4 57/13/4
f 53/10/5 57/46/5 54/47/5 55/48/5
f 58/10/6 59/46/6 56/47/6 60/48/6
f 61/10/1 62/42/1 66/43/1 63/13/1
f 68/10/2 67/42/2 64/43/2 65/13/2
f 67/10/3 61/44/3 63/45/3 64/13/3
f 62/10/4 68/44/4 65/45/4 66/13/4
f 63/10/5 66/46/5 65/47/5 64/48/5
f 67/10/6 68/46/6 62/47/6 61/48/6
f 76/10/1 75/19/1 69/49/1 73/50/1
f 74/10/2 72/19/2 70/49/2 71/50/2
f 72/10/3 76/51/3 73/52/3 70/53/3
f 75/10/4 74/51/4 71/52/4 69/53/4
f 73/10/5 69/19/5 71/54/5 70/55/5
f 72/10/6 74/19/6 75/54/6 76/55/6
f 77/56/1 78/57/1 79/58/1 80/59/1
f 81/56/2 82/57/2 83/58/2 84/59/2
o window_tall_lower
v -0.500000 0.780000 -0.020000 0.7412 0.7412 0.7412
v 0.500000 0.730000 -0.020000 0.7137 0.7137 0.7137
v 0.500000 0.780000 -0.020000 0.7412 0.7412 0.7412
v -0.500000 0.780000 0.020000 0.7451 0.7451 0.7451
v 0.500000 0.780000 0.020000 0.7451 0.7451 0.7451
v 0.500000 0.730000 0.020000 0.7137 0.7137 0.7137
v -0.500000 1.660000 0.020000 0.7686 0.7686 0.7686
v -0.500000 1.660000 -0.020000 0.7020 0.7020 0.7020
v -0.500000 1.700000 -0.020000 0.7255 0.7255 0.7255
v -0.500000 1.700000 0.020000 0.7921 0.7921 0.7921
v 0.500000 1.660000 -0.020000 0.7020 0.7020 0.7020
v 0.500000 1.700000 0.020000 0.7921 0.7921 0.7921
v 0.500000 1.700000 -0.020000 0.7255 0.7255 0.7255
v 0.500000 1.660000 0.020000 0.7686 0.7686 0.7686
v -0.450000 0.730000 0.020000 0.7490 0.7490 0.7490
v -0.500000 0.730000 -0.020000 0.7137 0.7137 0.7137
v -0.450000 1.700000 -0.020000 0.7372 0.7372 0.7372
v -0.450000 1.700000 0.020000 0.8431 0.8431 0.8431
v -0.450000 0.730000 -0.020000 0.7451 0.7451 0.7451
v -0.500000 0.730000 0.020000 0.7137 0.7137 0.7137
v 0.450000 1.700000 0.020000 0.8431 0.8431 0.8431
v 0.450000 1.700000 -0.020000 0.7372 0.7372 0.7372
v 0.450000 0.730000 -0.020000 0.7412 0.7412 0.7412
v 0.450000 0.730000 0.020000 0.7490 0.7490 0.7490
v -0.157667 1.670000 0.015000 0.7020 0.7020 0.7020
v -0.157667 1.670000 -0.015000 0.7020 0.7020 0.7020
v -0.175667 0.760000 0.015000 0.7020 0.7020 0.7020
v -0.175667 1.670000 0.015000 0.7020 0.7020 0.7020
v -0.157667 0.760000 -0.015000 0.7020 0.7020 0.7020
v -0.175667 1.670000 -0.015000 0.7020 0.7020 0.7020
v -0.175667 0.760000 -0.015000 0.7020 0.7020 0.7020
v -0.157667 0.760000 0.015000 0.7020 0.7020 0.7020
v 0.175667 1.670000 0.015000 0.7020 0.7020 0.7020
v 0.157667 0.760000 -0.015000 0.7020 0.7020 0.7020
v 0.157667 0.760000 0.015000 0.7020 0.7020 0.7020
v 0.157667 1.670000 0.015000 0.7020 0.7020 0.7020
v 0.175667 0.760000 0.015000 0.7020 0.7020 0.7020
v 0.175667 1.670000 -0.015000 0.7020 0.7020 0.7020
v 0.157667 1.670000 -0.015000 0.7020 0.7020 0.7020
v 0.175667 0.760000 -0.015000 0.7020 0.7020 0.7020
v -0.470000 1.206000 0.015000 0.7020 0.7020 0.7020
v 0.470000 1.224000 -0.015000 0.7020 0.7020 0.7020
v -0.470000 1.206000 -0.015000 0.7020 0.7020 0.7020
v -0.470000 1.224000 0.015000 0.7020 0.7020 0.7020
v 0.470000 1.224000 0.015000 0.7020 0.7020 0.7020
v -0.470000 1.224000 -0.015000 0.7020 0.7020 0.7020
v 0.470000 1.206000 -0.015000 0.7020 0.7020 0.7020
v 0.470000 1.206000 0.015000 0.7020 0.7020 0.7020
v -0.475000 0.770000 0.000000 0.7020 0.7020 0.7020
v 0.475000 0.770000 0.000000 0.7020 0.7020 0.7020
v 0.475000 1.650000 0.000000 0.7020 0.7020 0.7020
v -0.475000 1.650000 0.000000 0.7020 0.7020 0.7020
v 0.475000 0.770000 -0.000200 0.7020 0.7020 0.7020
v -0.475000 0.770000 -0.000200 0.7020 0.7020 0.7020
v -0.475000 1.650000 -0.000200 0.7020 0.7020 0.7020
v 0.475000 1.650000 -0.000200 0.7020 0.7020 0.7020
vn -0.0000 -0.0000 1.0000
vn -0.0000 -0.0000 -1.0000
vn -1.0000 -0.0000 -0.0000
vn 1.0000 -0.0000 -0.0000
vn -0.0000 1.0000 -0.0000
vn -0.0000 -1.0000 -0.0000
vt 0.937988 0.937988
vt 0.999512 0.937988
vt 0.999512 0.941064
vt 0.937988 0.941064
vt 0.942910 0.937988
vt 0.942910 0.944141
vt 0.937988 0.944141
vt 0.999512 0.940449
vt 0.937988 0.940449
vt 0.942910 0.942910
vt 0.937988 0.942910
vt 0.941160 0.937988
vt 0.941160 0.999512
vt 0.937988 0.999512
vt 0.940525 0.937988
vt 0.940525 0.999512
vt 0.944141 0.937988
vt 0.944141 0.942910
vt 0.939205 0.937988
vt 0.939205 0.999512
vt 0.940017 0.937988
vt 0.940017 0.999512
vt 0.940203 0.937988
vt 0.940203 0.941680
vt 0.937988 0.941680
vt 0.999512 0.939166
vt 0.937988 0.939166
vt 0.941680 0.937988
vt 0.941680 0.940203
vt 0.937988 0.940203
vt 0.999512 0.939952
vt 0.937988 0.939952
vt 0.875488 0.937988
vt 0.937012 0.937988
vt 0.937012 0.999512
vt 0.875488 0.999512
s 0
usemtl props
f 104/60/7 90/61/7 89/62/7 88/63/7
f 86/60/8 100/61/8 85/62/8 87/63/8
f 100/60/9 104/64/9 88/65/9 85/66/9
f 90/60/10 86/64/10 87/65/10 89/66/10
f 88/60/11 89/61/11 87/67/11 85/68/11
f 100/60/12 86/61/12 90/67/12 104/68/12
f 91/60/7 98/61/7 96/67/7 94/68/7
f 95/60/8 92/61/8 93/67/8 97/68/8
f 92/60/9 91/64/9 94/69/9 93/70/9
f 98/60/10 95/64/10 97/69/10 96/70/10
f 94/60/11 96/61/11 97/67/11 93/68/11
f 92/60/12 95/61/12 98/67/12 91/68/12
f 104/60/7 99/71/7 102/72/7 94/73/7
f 103/60/8 100/71/8 93/72/8 101/73/8
f 100/60/9 104/74/9 94/75/9 93/73/9
f 99/60/10 103/74/10 101/75/10 102/73/10
f 94/60/11 102/76/11 101/77/11 93/70/11
f 100/60/12 103/76/12 99/77/12 104/70/12
f 108/60/7 90/71/7 96/72/7 105/73/7
f 86/60/8 107/71/8 106/72/8 97/73/8
f 107/60/9 108/74/9 105/75/9 106/73/9
f 90/60/10 86/74/10 97/75/10 96/73/10
f 105/60/11 96/76/11 97/77/11 106/70/11
f 107/60/12 86/76/12 90/77/12 108/70/12
f 111/60/7 116/78/7 109/79/7 112/73/7
f 113/60/8 115/78/8 114/79/8 110/73/8
f 115/60/9 111/80/9 112/81/9 114/73/9
f 116/60/10 113/80/10 110/81/10 109/73/10
f 112/60/11 109/82/11 110/83/11 114/84/11
f 115/60/12 113/82/12 116/83/12 111/84/12
f 119/60/7 121/78/7 117/79/7 120/73/7
f 124/60/8 118/78/8 123/79/8 122/73/8
f 118/60/9 119/80/9 120/81/9 123/73/9
f 121/60/10 124/80/10 122/81/10 117/73/10
f 120/60/11 117/82/11 122/83/11 123/84/11
f 118/60/12 124/82/12 121/83/12 119/84/12
f 125/60/7 132/61/7 129/85/7 128/86/7
f 131/60/8 127/61/8 130/85/8 126/86/8
f 127/60/9 125/87/9 128/88/9 130/89/9
f 132/60/10 131/87/10 126/88/10 129/89/10
f 128/60/11 129/61/11 126/90/11 130/91/11
f 127/60/12 131/61/12 132/90/12 125/91/12
f 133/92/7 134/93/7 135/94/7 136/95/7
f 137/92/8 138/93/8 139/94/8 140/95/8
