# Blender 4.0.2
# www.blender.org
mtllib Chainlink.mtl
o Chainlink.001
v 0.058574 0.052557 0.000000
v 0.050373 0.044356 0.040330
v 0.033973 0.027956 0.040330
v 0.025772 0.019755 0.000000
v 0.033973 0.033973 -0.040330
v 0.050373 0.050373 -0.040330
v 0.000000 0.076819 0.000000
v 0.000000 0.065222 0.040330
v 0.000000 0.042028 0.040330
v 0.000000 0.030431 0.000000
v 0.000000 0.048045 -0.040330
v 0.000000 0.071239 -0.040330
v -0.058574 0.052557 0.000000
v -0.050373 0.044356 0.040330
v -0.033973 0.027956 0.040330
v -0.025772 0.019755 0.000000
v -0.033973 0.033973 -0.040330
v -0.050373 0.050373 -0.040330
v -0.058574 -0.058574 -0.000000
v -0.050373 -0.050373 0.040330
v -0.033973 -0.033973 0.040330
v -0.025772 -0.025772 -0.000000
v -0.033973 -0.033973 -0.040330
v -0.050373 -0.050373 -0.040330
v 0.000000 -0.082836 -0.000000
v 0.000000 -0.071239 0.040330
v 0.000000 -0.048045 0.040330
v 0.000000 -0.036448 -0.000000
v 0.000000 -0.048045 -0.040330
v 0.000000 -0.071239 -0.040330
v 0.058574 -0.058574 -0.000000
v 0.050373 -0.050373 0.040330
v 0.033973 -0.033973 0.040330
v 0.025772 -0.025772 -0.000000
v 0.033973 -0.033973 -0.040330
v 0.050373 -0.050373 -0.040330
vn -0.0000 -0.0000 1.0000
vn -0.9799 -0.0000 0.1993
vn -0.9799 -0.0000 -0.1993
vn -0.0000 -0.0000 -1.0000
vn 0.9799 -0.0000 -0.1993
vn 0.9799 -0.0000 0.1993
vn 0.3699 0.8929 0.2568
vn -0.3699 -0.8929 0.2568
vn -0.3549 -0.8568 -0.3742
vn 0.3796 0.9164 -0.1268
vn -0.3699 0.8929 0.2568
vn 0.3699 -0.8929 0.2568
vn 0.3549 -0.8568 -0.3742
vn -0.3796 0.9164 -0.1268
vn 0.3699 0.8929 -0.2568
vn -0.3699 -0.8929 -0.2568
vn -0.3699 0.8929 -0.2568
vn 0.3699 -0.8929 -0.2568
vt 0.375000 0.666667
vt 0.625000 0.833333
vt 0.375000 0.833333
vt 0.375000 1.000000
vt 0.625000 -0.000000
vt 0.375000 0.166667
vt 0.375000 -0.000000
vt 0.625000 0.166667
vt 0.375000 0.333333
vt 0.625000 0.500000
vt 0.375000 0.500000
vt 0.875000 0.833333
vt 0.125000 1.000000
vt 0.875000 1.000000
vt 0.750000 0.500000
vt 0.625000 0.666667
vt 0.750000 0.666667
vt 0.750000 0.833333
vt 0.625000 1.000000
vt 0.750000 -0.000000
vt 0.750000 0.166667
vt 0.625000 0.333333
vt 0.875000 0.500000
vt 0.875000 0.666667
vt 0.750000 1.000000
vt 0.875000 0.166667
vt 0.750000 0.333333
vt 0.875000 0.333333
vt 0.125000 0.666667
vt 0.125000 0.333333
vt 0.875000 -0.000000
vt 0.125000 0.166667
vt 0.125000 0.500000
vt 0.250000 0.666667
vt 0.125000 0.833333
vt 0.250000 0.833333
vt 0.125000 -0.000000
vt 0.250000 0.166667
vt 0.250000 0.333333
vt 0.250000 0.500000
vt 0.250000 1.000000
vt 0.250000 -0.000000
s 0
f 32/1/1 3/2/1 33/3/1
f 3/2/2 34/4/2 33/3/2
f 4/5/3 35/6/3 34/7/3
f 5/8/4 36/9/4 35/6/4
f 36/9/5 1/10/5 31/11/5
f 15/12/6 22/13/6 16/14/6
f 7/15/7 2/16/7 1/10/7
f 8/17/1 3/2/1 2/16/1
f 9/18/8 4/19/8 3/2/8
f 10/20/9 5/8/9 4/5/9
f 11/21/4 6/22/4 5/8/4
f 6/22/10 7/15/10 1/10/10
f 13/23/11 8/17/11 7/15/11
f 14/24/1 9/18/1 8/17/1
f 15/12/12 10/25/12 9/18/12
f 10/20/13 17/26/13 11/21/13
f 17/26/4 12/27/4 11/21/4
f 18/28/14 7/15/14 12/27/14
f 20/29/1 15/12/1 14/24/1
f 24/30/3 13/23/3 18/28/3
f 16/31/5 23/32/5 17/26/5
f 17/26/4 24/30/4 18/28/4
f 19/33/2 14/24/2 13/23/2
f 19/33/8 26/34/8 20/29/8
f 26/34/1 21/35/1 20/29/1
f 27/36/7 22/13/7 21/35/7
f 22/37/15 29/38/15 23/32/15
f 23/32/4 30/39/4 24/30/4
f 30/39/16 19/33/16 24/30/16
f 25/40/12 32/1/12 26/34/12
f 32/1/1 27/36/1 26/34/1
f 27/36/11 34/4/11 28/41/11
f 28/42/17 35/6/17 29/38/17
f 35/6/4 30/39/4 29/38/4
f 36/9/18 25/40/18 30/39/18
f 1/10/6 32/1/6 31/11/6
f 32/1/1 2/16/1 3/2/1
f 3/2/2 4/19/2 34/4/2
f 4/5/3 5/8/3 35/6/3
f 5/8/4 6/22/4 36/9/4
f 36/9/5 6/22/5 1/10/5
f 15/12/6 21/35/6 22/13/6
f 7/15/7 8/17/7 2/16/7
f 8/17/1 9/18/1 3/2/1
f 9/18/8 10/25/8 4/19/8
f 10/20/9 11/21/9 5/8/9
f 11/21/4 12/27/4 6/22/4
f 6/22/10 12/27/10 7/15/10
f 13/23/11 14/24/11 8/17/11
f 14/24/1 15/12/1 9/18/1
f 15/12/12 16/14/12 10/25/12
f 10/20/13 16/31/13 17/26/13
f 17/26/4 18/28/4 12/27/4
f 18/28/14 13/23/14 7/15/14
f 20/29/1 21/35/1 15/12/1
f 24/30/3 19/33/3 13/23/3
f 16/31/5 22/37/5 23/32/5
f 17/26/4 23/32/4 24/30/4
f 19/33/2 20/29/2 14/24/2
f 19/33/8 25/40/8 26/34/8
f 26/34/1 27/36/1 21/35/1
f 27/36/7 28/41/7 22/13/7
f 22/37/15 28/42/15 29/38/15
f 23/32/4 29/38/4 30/39/4
f 30/39/16 25/40/16 19/33/16
f 25/40/12 31/11/12 32/1/12
f 32/1/1 33/3/1 27/36/1
f 27/36/11 33/3/11 34/4/11
f 28/42/17 34/7/17 35/6/17
f 35/6/4 36/9/4 30/39/4
f 36/9/18 31/11/18 25/40/18
f 1/10/6 2/16/6 32/1/6
