# Blender 4.0.2
# www.blender.org
mtllib Chair.mtl
o chair_top_arms.001
v -0.156274 0.405072 -0.255395
v -0.149571 0.710373 -0.353505
v -0.129727 0.408315 -0.244888
v -0.123024 0.713616 -0.342998
v -0.118731 0.416143 -0.219522
v -0.112028 0.721444 -0.317632
v -0.129727 0.423971 -0.194155
v -0.123024 0.729272 -0.292265
v -0.156274 0.427213 -0.183648
v -0.149571 0.732514 -0.281758
v -0.182821 0.423971 -0.194155
v -0.176118 0.729272 -0.292265
v -0.193817 0.416143 -0.219522
v -0.187114 0.721444 -0.317632
v -0.182821 0.408315 -0.244888
v -0.176118 0.713616 -0.342998
v 0.156274 0.405072 -0.255395
v 0.149571 0.710373 -0.353505
v 0.129727 0.408315 -0.244888
v 0.123024 0.713616 -0.342998
v 0.118731 0.416143 -0.219522
v 0.112028 0.721444 -0.317632
v 0.129727 0.423971 -0.194155
v 0.123024 0.729272 -0.292265
v 0.156274 0.427213 -0.183648
v 0.149571 0.732514 -0.281758
v 0.182821 0.423971 -0.194155
v 0.176118 0.729272 -0.292265
v 0.193817 0.416143 -0.219522
v 0.187114 0.721444 -0.317632
v 0.182821 0.408315 -0.244888
v 0.176118 0.713616 -0.342998
vn 0.3826 -0.2903 -0.8771
vn 0.9236 -0.1355 -0.3586
vn 0.9238 0.0986 0.3700
vn 0.3827 0.2750 0.8820
vn -0.3826 0.2903 0.8771
vn -0.9236 0.1355 0.3586
vn -0.0000 0.9555 -0.2949
vn -0.9238 -0.0986 -0.3700
vn -0.3827 -0.2750 -0.8820
vn -0.0000 -0.9555 0.2949
vn -0.3826 -0.2903 -0.8771
vn -0.9236 -0.1355 -0.3586
vn -0.9238 0.0986 0.3700
vn -0.3827 0.2750 0.8820
vn 0.3826 0.2903 0.8771
vn 0.9236 0.1355 0.3586
vn 0.9238 -0.0986 -0.3700
vn 0.3827 -0.2750 -0.8820
vt 1.000000 1.000000
vt 0.875000 0.500000
vt 1.000000 0.500000
vt 0.750000 1.000000
vt 0.750000 0.500000
vt 0.625000 1.000000
vt 0.625000 0.500000
vt 0.500000 1.000000
vt 0.500000 0.500000
vt 0.375000 1.000000
vt 0.375000 0.500000
vt 0.250000 0.500000
vt 0.010000 0.250000
vt 0.250000 0.010000
vt 0.490000 0.250000
vt 0.250000 1.000000
vt 0.125000 0.500000
vt 0.125000 1.000000
vt 0.000000 0.500000
vt 0.919706 0.080294
vt 0.580294 0.080294
vt 0.580294 0.419706
vt 0.875000 1.000000
vt 0.250000 0.490000
vt 0.919706 0.419706
vt 0.419706 0.419706
vt 0.080294 0.419706
vt 0.080294 0.080294
vt 0.419706 0.080294
vt 0.000000 1.000000
vt 0.750000 0.490000
vt 0.990000 0.250000
vt 0.750000 0.010000
vt 0.510000 0.250000
s 0
f 2/1/1 3/2/1 1/3/1
f 3/2/2 6/4/2 5/5/2
f 5/5/3 8/6/3 7/7/3
f 7/7/4 10/8/4 9/9/4
f 9/9/5 12/10/5 11/11/5
f 12/10/6 13/12/6 11/11/6
f 14/13/7 10/14/7 6/15/7
f 14/16/8 15/17/8 13/12/8
f 16/18/9 1/19/9 15/17/9
f 7/20/10 11/21/10 15/22/10
f 19/2/11 18/1/11 17/3/11
f 19/2/12 22/4/12 20/23/12
f 21/5/13 24/6/13 22/4/13
f 23/7/14 26/8/14 24/6/14
f 25/9/15 28/10/15 26/8/15
f 29/12/16 28/10/16 27/11/16
f 26/14/7 30/13/7 18/24/7
f 31/17/17 30/16/17 29/12/17
f 17/19/18 32/18/18 31/17/18
f 27/21/10 23/20/10 19/25/10
f 2/1/1 4/23/1 3/2/1
f 3/2/2 4/23/2 6/4/2
f 5/5/3 6/4/3 8/6/3
f 7/7/4 8/6/4 10/8/4
f 9/9/5 10/8/5 12/10/5
f 12/10/6 14/16/6 13/12/6
f 6/15/7 4/26/7 2/24/7
f 2/24/7 16/27/7 14/13/7
f 14/13/7 12/28/7 10/14/7
f 10/14/7 8/29/7 6/15/7
f 6/15/7 2/24/7 14/13/7
f 14/16/8 16/18/8 15/17/8
f 16/18/9 2/30/9 1/19/9
f 15/22/10 1/31/10 3/25/10
f 3/25/10 5/32/10 7/20/10
f 7/20/10 9/33/10 11/21/10
f 11/21/10 13/34/10 15/22/10
f 15/22/10 3/25/10 7/20/10
f 19/2/11 20/23/11 18/1/11
f 19/2/12 21/5/12 22/4/12
f 21/5/13 23/7/13 24/6/13
f 23/7/14 25/9/14 26/8/14
f 25/9/15 27/11/15 28/10/15
f 29/12/16 30/16/16 28/10/16
f 18/24/7 20/26/7 22/15/7
f 22/15/7 24/29/7 26/14/7
f 26/14/7 28/28/7 30/13/7
f 30/13/7 32/27/7 18/24/7
f 18/24/7 22/15/7 26/14/7
f 31/17/17 32/18/17 30/16/17
f 17/19/18 18/30/18 32/18/18
f 19/25/10 17/31/10 31/22/10
f 31/22/10 29/34/10 27/21/10
f 27/21/10 25/33/10 23/20/10
f 23/20/10 21/32/10 19/25/10
f 19/25/10 31/22/10 27/21/10
o chair_top.001
v -0.243289 0.371136 0.120834
v -0.213216 0.341135 0.120767
v -0.215310 0.370851 0.150766
v -0.243289 0.425984 0.120834
v -0.215310 0.426269 0.150766
v -0.213216 0.455985 0.120767
v -0.215472 0.375042 -0.291222
v -0.183452 0.375324 -0.321154
v -0.185409 0.345040 -0.291155
v -0.215472 0.422079 -0.291222
v -0.185409 0.452081 -0.291155
v -0.183452 0.421796 -0.321154
v 0.267732 0.371136 0.120834
v 0.239753 0.370851 0.150766
v 0.237659 0.341135 0.120767
v 0.267732 0.425984 0.120834
v 0.237659 0.455985 0.120767
v 0.239753 0.426269 0.150766
v 0.239915 0.375042 -0.291222
v 0.209851 0.345040 -0.291155
v 0.207895 0.375324 -0.321154
v 0.209851 0.452081 -0.291155
v 0.239915 0.422079 -0.291222
v 0.207895 0.421796 -0.321154
v 0.108846 0.345040 -0.291155
v 0.107987 0.375324 -0.321154
v -0.083544 0.375324 -0.321154
v -0.084404 0.345040 -0.291155
v -0.084403 0.452081 -0.291155
v -0.083544 0.421796 -0.321154
v 0.107987 0.421796 -0.321154
v 0.108846 0.452081 -0.291155
v -0.096204 0.341135 0.120767
v -0.097063 0.370851 0.150766
v 0.121506 0.370851 0.150766
v 0.120647 0.341135 0.120767
v 0.120647 0.455985 0.120767
v 0.121506 0.426269 0.150766
v -0.097063 0.426269 0.150766
v -0.096204 0.455985 0.120767
vn -0.0000 -1.0000 -0.0095
vn -0.0000 1.0000 -0.0095
vn 0.9977 -0.0000 -0.0674
vn -0.0000 -0.0000 -1.0000
vn -0.0000 -0.0000 1.0000
vn -0.9977 -0.0000 -0.0674
vn -0.5908 -0.5934 0.5466
vn -0.5908 0.5934 0.5466
vn -0.5613 -0.5638 -0.6058
vn -0.5613 0.5638 -0.6058
vn 0.5908 -0.5934 0.5466
vn 0.5908 0.5934 0.5466
vn 0.5613 -0.5638 -0.6058
vn 0.5613 0.5638 -0.6058
vn -0.7305 -0.0000 0.6829
vn -0.6829 -0.0000 -0.7305
vn -0.0000 -0.7037 -0.7105
vn -0.0000 -0.7037 -0.7104
vn -0.0000 0.7037 -0.7104
vn 0.6829 -0.0000 -0.7305
vn 0.7305 -0.0000 0.6829
vn -0.0000 -0.7105 0.7037
vn -0.0000 -0.7104 0.7037
vn -0.0000 0.7105 0.7037
vn -0.0000 0.7104 0.7037
vn -0.7053 -0.7068 -0.0543
vn -0.7053 0.7068 -0.0543
vn -0.7053 0.7069 -0.0543
vn 0.7053 -0.7068 -0.0543
vn 0.7053 0.7068 -0.0543
vn -0.0000 0.7037 -0.7105
vt 0.291667 0.515892
vt 0.208333 0.734108
vt 0.208333 0.515892
vt 0.855977 0.515892
vt 0.791667 0.734108
vt 0.791667 0.515892
vt 0.144023 0.515892
vt 0.142101 0.734108
vt 0.644023 0.515892
vt 0.708333 0.734108
vt 0.642101 0.734108
vt 0.555041 0.515856
vt 0.440418 0.734143
vt 0.444960 0.515856
vt 0.554559 0.269244
vt 0.445441 0.333333
vt 0.445441 0.269244
vt 0.554559 0.416667
vt 0.445441 0.480756
vt 0.445441 0.416667
vt 0.560019 0.833333
vt 0.439981 0.916667
vt 0.439981 0.833333
vt 0.559582 0.015856
vt 0.444960 0.234144
vt 0.440418 0.015856
vt 0.355977 0.515892
vt 0.291667 0.734108
vt 0.560019 0.766864
vt 0.439981 0.766864
vt 0.791667 0.515892
vt 0.708333 0.734108
vt 0.708333 0.515892
vt 0.554559 0.333333
vt 0.445441 0.416667
vt 0.445441 0.333333
vt 0.440598 0.998864
vt 0.375616 0.981959
vt 0.439981 0.983136
vt 0.559402 0.998864
vt 0.560019 0.983136
vt 0.624384 0.981959
vt 0.125000 0.515706
vt 0.144244 0.500000
vt 0.555041 0.234144
vt 0.625000 0.235178
vt 0.554559 0.250000
vt 0.440598 0.751136
vt 0.375616 0.768041
vt 0.559402 0.751136
vt 0.624384 0.768041
vt 0.375000 0.515706
vt 0.355756 0.500000
vt 0.625000 0.482011
vt 0.555222 0.500000
vt 0.554559 0.480756
vt 0.440598 1.000000
vt 0.208333 0.500000
vt 0.625000 0.417218
vt 0.559582 0.734144
vt 0.375000 0.768041
vt 0.375000 0.833333
vt 0.625000 0.981959
vt 0.560019 0.916667
vt 0.625000 0.916667
vt 0.291667 0.500000
vt 0.625000 0.332782
vt 0.625000 0.267989
vt 0.625000 0.416667
vt 0.625000 0.333333
vt 0.375000 0.981959
vt 0.375000 0.833661
vt 0.375000 0.916339
vt 0.625000 0.768041
vt 0.625000 0.916339
vt 0.625000 0.833661
vt 0.625000 0.016962
vt 0.357899 0.734108
vt 0.291667 0.734108
vt 0.857899 0.734108
vt 0.708333 0.515892
vt 0.791667 0.734108
vt 0.559402 1.000000
vt 0.375000 0.916667
vt 0.625000 0.833333
vt 0.125000 0.733994
s 1
f 57/35/19 65/36/19 60/37/19
f 43/38/20 72/39/20 61/40/20
f 41/41/19 65/36/19 34/42/19
f 54/43/20 69/44/20 49/45/20
f 55/46/21 45/47/21 51/48/21
f 44/49/22 59/50/22 40/51/22
f 63/52/22 53/53/22 58/54/22
f 70/55/23 66/56/23 67/57/23
f 36/58/24 39/59/24 33/60/24
f 52/61/19 68/62/19 57/35/19
f 50/63/23 67/57/23 46/64/23
f 61/65/20 69/66/20 64/67/20
f 62/68/22 58/69/22 59/70/22
f 33/71/25 34/72/25 35/73/25
f 36/74/26 37/75/26 38/76/26
f 39/77/27 40/78/27 41/41/27
f 42/79/28 43/80/28 44/81/28
f 45/82/29 46/64/29 47/83/29
f 48/84/30 49/85/30 50/63/30
f 51/86/31 52/61/31 53/87/31
f 54/88/32 55/89/32 56/90/32
f 37/75/33 33/91/33 35/73/33
f 40/51/34 42/79/34 44/49/34
f 60/37/35 40/78/36 59/92/35
f 64/93/37 56/90/37 63/52/37
f 55/46/38 53/53/38 56/90/38
f 46/64/39 48/94/39 50/63/39
f 47/95/40 67/57/40 68/96/41
f 38/97/42 71/98/43 72/99/43
f 57/35/36 53/87/36 52/61/36
f 60/37/35 58/100/36 57/35/36
f 61/101/37 44/49/37 43/102/37
f 64/103/37 62/68/37 61/104/37
f 34/105/41 66/56/40 35/73/41
f 68/106/41 66/56/40 65/107/40
f 49/108/43 70/55/43 50/63/43
f 72/109/43 70/55/43 69/110/43
f 34/42/44 39/77/44 41/41/44
f 38/111/45 42/79/46 36/58/45
f 47/112/47 51/48/47 45/47/47
f 49/45/48 55/46/48 54/43/48
f 71/98/23 35/73/23 66/56/23
f 57/35/19 68/113/19 65/36/19
f 43/38/20 38/114/20 72/39/20
f 41/41/19 60/37/19 65/36/19
f 54/43/20 64/115/20 69/44/20
f 55/46/21 48/94/21 45/47/21
f 44/49/22 62/68/22 59/50/22
f 63/52/22 56/90/22 53/53/22
f 70/55/23 71/98/23 66/56/23
f 36/58/24 42/79/24 39/59/24
f 52/61/19 47/112/19 68/62/19
f 50/63/23 70/55/23 67/57/23
f 61/65/20 72/116/20 69/66/20
f 62/68/22 63/52/22 58/69/22
f 37/75/33 36/117/33 33/91/33
f 40/51/34 39/59/34 42/79/34
f 60/37/35 41/41/36 40/78/36
f 64/93/37 54/88/49 56/90/37
f 55/46/38 51/48/38 53/53/38
f 46/64/39 45/47/39 48/94/39
f 47/95/40 46/64/40 67/57/40
f 38/97/42 37/75/42 71/98/43
f 57/35/36 58/100/36 53/87/36
f 60/37/35 59/92/35 58/100/36
f 61/101/37 62/68/37 44/49/37
f 64/103/37 63/52/37 62/68/37
f 34/105/41 65/118/40 66/56/40
f 68/106/41 67/57/40 66/56/40
f 49/108/43 69/119/43 70/55/43
f 72/109/43 71/98/43 70/55/43
f 34/42/44 33/120/44 39/77/44
f 38/111/45 43/80/46 42/79/46
f 47/112/47 52/61/47 51/48/47
f 49/45/48 48/94/48 55/46/48
f 71/98/23 37/75/23 35/73/23
o chair_rest.001
v -0.214125 0.873286 -0.435112
v -0.243738 0.885323 -0.402455
v -0.213738 0.911868 -0.417183
v -0.213738 0.933513 -0.358458
v -0.243738 0.907126 -0.343301
v -0.214125 0.915840 -0.319660
v 0.214532 0.911881 -0.417147
v 0.244532 0.885323 -0.402454
v 0.214913 0.873299 -0.435077
v 0.214913 0.915853 -0.319626
v 0.244532 0.907126 -0.343301
v 0.214532 0.933526 -0.358421
v -0.213738 0.673014 -0.329146
v -0.243738 0.702768 -0.335168
v -0.214125 0.690731 -0.367825
v -0.214125 0.733284 -0.252373
v -0.243738 0.724571 -0.276014
v -0.213738 0.694659 -0.270421
v 0.214913 0.690744 -0.367791
v 0.244532 0.702768 -0.335168
v 0.214532 0.673028 -0.329110
v 0.214913 0.733297 -0.252339
v 0.214532 0.694673 -0.270384
v 0.244532 0.724571 -0.276014
v -0.000559 0.682945 -0.388948
v -0.000559 0.665246 -0.350222
v -0.000559 0.865501 -0.456235
v -0.000559 0.904099 -0.438259
v -0.000559 0.908054 -0.340783
v -0.000559 0.925753 -0.379509
v -0.000559 0.725499 -0.273497
v -0.000559 0.686900 -0.291472
v -0.122148 0.906726 -0.431133
v -0.122148 0.868125 -0.449115
v -0.122148 0.689522 -0.284359
v -0.122148 0.728123 -0.266377
v -0.122148 0.667873 -0.343096
v -0.122148 0.685570 -0.381828
v -0.122148 0.928375 -0.372396
v -0.122148 0.910678 -0.333663
v 0.121964 0.928375 -0.372397
v 0.121964 0.910678 -0.333665
v 0.121964 0.667872 -0.343099
v 0.121964 0.685569 -0.381830
v 0.121964 0.906725 -0.431135
v 0.121964 0.868124 -0.449117
v 0.121964 0.689522 -0.284360
v 0.121964 0.728122 -0.266379
vn 0.0002 0.3458 0.9383
vn 0.1114 0.3437 0.9325
vn 0.1589 -0.3414 -0.9264
vn 0.1105 -0.3437 -0.9325
vn -0.0000 0.9383 -0.3458
vn -0.1114 -0.3437 -0.9325
vn -0.1602 -0.3414 -0.9262
vn -0.0000 -0.9383 0.3458
vn 0.1602 0.3414 0.9262
vn 1.0000 -0.0000 -0.0000
vn -0.1105 0.3437 0.9325
vn -0.0002 -0.3458 -0.9383
vn -1.0000 -0.0000 -0.0000
vn -0.1589 0.3414 0.9264
vn -0.6352 0.3307 -0.6979
vn -0.5116 0.7838 0.3519
vn 0.6348 0.3308 -0.6983
vn 0.5121 0.7835 0.3519
vn -0.6352 -0.7045 -0.3163
vn -0.5116 -0.3679 0.7765
vn 0.6348 -0.7048 -0.3166
vn 0.5121 -0.3677 0.7762
vn -0.1136 0.4196 -0.9006
vn -0.0805 0.4209 -0.9035
vn -0.0770 0.4210 -0.9038
vn -0.7071 0.6635 -0.2445
vn -0.0799 0.9067 0.4142
vn -0.1127 0.9038 0.4129
vn -0.0764 0.9069 0.4144
vn 0.7071 0.6635 -0.2445
vn 0.7612 -0.2243 -0.6085
vn 0.6485 0.2633 0.7143
vn 0.7071 -0.6635 0.2445
vn 0.1127 -0.9038 -0.4129
vn 0.0799 -0.9067 -0.4142
vn 0.0764 -0.9069 -0.4144
vn 0.0805 -0.4209 0.9035
vn 0.1136 -0.4196 0.9006
vn 0.0770 -0.4210 0.9038
vn -0.7071 -0.6635 0.2445
vn -0.7616 -0.2241 -0.6080
vn -0.6480 0.2634 0.7146
vn -0.0770 -0.9069 -0.4144
vn -0.0002 -0.9095 -0.4157
vn -0.0805 -0.9066 -0.4142
vn 0.0764 0.4210 -0.9038
vn -0.0002 0.4222 -0.9065
vn 0.0799 0.4209 -0.9036
vn 0.0002 0.9095 0.4157
vn 0.0770 0.9069 0.4144
vn 0.0805 0.9066 0.4142
vn 0.0002 -0.4222 0.9065
vn -0.0764 -0.4210 0.9038
vn -0.0799 -0.4209 0.9036
vn -0.1136 -0.9037 -0.4128
vn 0.1135 0.9037 0.4128
vn 0.1136 0.9037 0.4128
vn 0.1127 0.4196 -0.9007
vn 0.1127 0.4197 -0.9007
vn -0.1127 -0.4196 0.9007
vn -0.1127 -0.4197 0.9007
vn -0.1127 0.9038 0.4128
vn 0.1127 -0.9038 -0.4128
vt 0.845538 0.623353
vt 0.654463 0.692039
vt 0.654462 0.634079
vt 0.154462 0.514407
vt 0.345538 0.562823
vt 0.154462 0.559440
vt 0.563609 0.129249
vt 0.436404 0.190607
vt 0.436391 0.131214
vt 0.154462 0.684440
vt 0.345537 0.734814
vt 0.154463 0.734076
vt 0.563608 0.633512
vt 0.436405 0.689455
vt 0.436392 0.628909
vt 0.845537 0.686677
vt 0.654462 0.735816
vt 0.654462 0.692039
vt 0.563596 0.189625
vt 0.436417 0.235419
vt 0.436404 0.190607
vt 0.436417 0.515879
vt 0.563596 0.566756
vt 0.436404 0.564455
vt 0.564046 0.279462
vt 0.435954 0.470538
vt 0.435954 0.279462
vt 0.436404 0.564455
vt 0.563609 0.633512
vt 0.436392 0.628909
vt 0.845538 0.561677
vt 0.654463 0.634079
vt 0.654462 0.567039
vt 0.345537 0.562823
vt 0.154463 0.618881
vt 0.435954 0.779463
vt 0.564046 0.970538
vt 0.435954 0.970538
vt 0.436405 0.065607
vt 0.436392 0.131214
vt 0.563595 0.691756
vt 0.436418 0.735165
vt 0.845538 0.514973
vt 0.654462 0.567039
vt 0.654462 0.516131
vt 0.345538 0.625645
vt 0.154462 0.684440
vt 0.154462 0.618881
vt 0.154462 0.750000
vt 0.125000 0.736293
vt 0.553692 1.000000
vt 0.615237 0.970538
vt 0.125000 0.512141
vt 0.154462 0.500000
vt 0.615312 0.279462
vt 0.553771 0.250000
vt 0.435954 0.750000
vt 0.375000 0.734984
vt 0.625000 0.736085
vt 0.564046 0.750000
vt 0.563582 0.735633
vt 0.375000 0.515307
vt 0.435954 0.500000
vt 0.625000 0.516400
vt 0.563583 0.516342
vt 0.564046 0.500000
vt 0.125000 0.686516
vt 0.426528 1.000000
vt 0.875000 0.517249
vt 0.875000 0.560850
vt 0.563583 0.235221
vt 0.345538 0.500000
vt 0.345538 0.515138
vt 0.625000 0.470537
vt 0.625000 0.279462
vt 0.564046 0.470537
vt 0.564046 0.779463
vt 0.345538 0.750000
vt 0.625000 0.779462
vt 0.345538 0.687823
vt 0.125000 0.616941
vt 0.125000 0.558919
vt 0.875000 0.684858
vt 0.845538 0.686677
vt 0.125000 0.618858
vt 0.563595 0.691756
vt 0.875000 0.731651
vt 0.845538 0.734646
vt 0.845538 0.623353
vt 0.875000 0.561775
vt 0.875000 0.621699
vt 0.345537 0.625645
vt 0.125000 0.556639
vt 0.436418 0.016143
vt 0.563595 0.064625
vt 0.563596 0.189625
vt 0.625000 0.970538
vt 0.125000 0.683919
vt 0.875000 0.685850
vt 0.563582 0.015943
s 1
f 101/121/50 108/122/51 103/123/50
f 81/124/52 116/125/53 118/126/53
f 102/127/54 117/128/54 100/129/54
f 106/130/55 87/131/56 73/132/56
f 104/133/57 109/134/57 98/135/57
f 112/136/51 88/137/58 108/138/51
f 113/139/54 79/140/54 117/141/54
f 93/142/57 119/143/57 115/144/57
f 83/145/59 92/146/59 80/147/59
f 115/148/57 104/149/57 98/150/57
f 114/151/60 103/152/50 120/153/60
f 116/154/53 99/155/61 118/126/53
f 86/156/62 77/157/62 74/158/62
f 105/159/54 102/127/54 100/160/54
f 107/161/57 85/162/57 109/134/57
f 82/163/63 120/164/60 94/165/63
f 97/166/61 106/167/55 99/168/61
f 73/132/64 74/169/64 75/170/64
f 76/171/65 77/157/65 78/172/65
f 79/173/66 80/174/66 81/124/66
f 82/175/67 83/145/67 84/176/67
f 85/162/68 86/177/68 87/178/68
f 88/179/69 89/180/69 90/181/69
f 91/182/70 92/183/70 93/142/70
f 94/184/71 95/185/71 96/186/71
f 73/132/72 105/187/73 106/130/74
f 74/158/75 76/171/75 75/188/75
f 114/151/76 84/189/77 113/190/78
f 80/147/79 84/191/79 83/145/79
f 81/124/80 92/192/80 91/193/80
f 94/194/81 83/145/81 82/195/81
f 95/185/82 92/146/82 96/196/82
f 91/193/83 115/144/84 116/125/85
f 108/138/86 90/181/87 107/161/88
f 86/156/89 90/181/89 89/197/89
f 73/132/90 86/198/90 74/169/90
f 88/199/91 77/157/91 89/197/91
f 110/200/92 98/135/93 109/134/94
f 118/126/95 100/201/96 117/202/97
f 101/121/98 111/203/99 112/204/100
f 103/152/101 119/143/102 120/153/103
f 106/167/74 100/205/96 99/168/96
f 103/123/101 107/206/88 104/133/101
f 87/131/104 109/134/94 85/162/104
f 112/136/100 76/207/105 78/208/106
f 101/209/98 113/210/78 102/211/98
f 116/154/85 98/150/93 97/212/93
f 81/124/107 117/213/97 79/173/108
f 120/164/103 95/185/109 94/165/110
f 75/214/54 111/215/54 105/159/54
f 101/121/50 112/204/51 108/122/51
f 81/124/52 91/193/52 116/125/53
f 102/127/54 113/216/54 117/128/54
f 106/130/55 110/200/55 87/131/56
f 104/133/57 107/206/57 109/134/57
f 112/136/51 78/208/58 88/137/58
f 113/139/54 84/191/54 79/140/54
f 93/142/57 95/185/57 119/143/57
f 83/145/59 96/196/59 92/146/59
f 115/148/57 119/143/57 104/149/57
f 114/151/60 101/209/50 103/152/50
f 116/154/53 97/212/61 99/155/61
f 86/156/62 89/197/62 77/157/62
f 105/159/54 111/215/54 102/127/54
f 107/161/57 90/181/57 85/162/57
f 82/163/63 114/151/60 120/164/60
f 97/166/61 110/200/55 106/167/55
f 73/132/72 75/170/72 105/187/73
f 74/158/75 77/157/75 76/171/75
f 114/151/76 82/163/111 84/189/77
f 80/147/79 79/140/79 84/191/79
f 81/124/80 80/174/80 92/192/80
f 94/194/81 96/196/81 83/145/81
f 95/185/82 93/142/82 92/146/82
f 91/193/83 93/142/112 115/144/84
f 108/138/86 88/137/87 90/181/87
f 86/156/89 85/162/89 90/181/89
f 73/132/90 87/131/90 86/198/90
f 88/199/91 78/217/91 77/157/91
f 110/200/92 97/166/93 98/135/93
f 118/126/95 99/155/96 100/201/96
f 101/121/98 102/211/98 111/203/99
f 103/152/101 104/149/101 119/143/102
f 106/167/74 105/218/73 100/205/96
f 103/123/101 108/122/86 107/206/88
f 87/131/104 110/200/92 109/134/94
f 112/136/100 111/219/99 76/207/105
f 101/209/98 114/151/76 113/210/78
f 116/154/85 115/148/84 98/150/93
f 81/124/107 118/126/95 117/213/97
f 120/164/103 119/143/102 95/185/109
f 75/214/54 76/220/54 111/215/54
o chair_leg.001
v -0.177165 -0.002302 -0.291781
v -0.148485 0.399387 -0.279895
v -0.154120 -0.002302 -0.282662
v -0.118694 0.399387 -0.264415
v -0.144574 -0.002302 -0.260646
v -0.106354 0.399387 -0.227044
v -0.154120 -0.002302 -0.238631
v -0.118694 0.399387 -0.189672
v -0.177165 -0.002302 -0.229511
v -0.148485 0.399387 -0.174193
v -0.200210 -0.002302 -0.238631
v -0.178275 0.399387 -0.189672
v -0.209755 -0.002302 -0.260646
v -0.190615 0.399387 -0.227044
v -0.200210 -0.002302 -0.282662
v -0.178275 0.399387 -0.264415
v 0.177165 -0.002302 -0.291781
v 0.148485 0.399387 -0.279895
v 0.154120 -0.002302 -0.282662
v 0.118694 0.399387 -0.264415
v 0.144574 -0.002302 -0.260646
v 0.106354 0.399387 -0.227044
v 0.154120 -0.002302 -0.238631
v 0.118694 0.399387 -0.189672
v 0.177165 -0.002302 -0.229511
v 0.148485 0.399387 -0.174193
v 0.200210 -0.002302 -0.238631
v 0.178275 0.399387 -0.189672
v 0.209755 -0.002302 -0.260646
v 0.190615 0.399387 -0.227044
v 0.200210 -0.002302 -0.282662
v 0.178275 0.399387 -0.264415
v -0.177165 -0.002302 0.135604
v -0.148485 0.399387 0.123717
v -0.154120 -0.002302 0.126485
v -0.118694 0.399387 0.108238
v -0.144574 -0.002302 0.104469
v -0.106354 0.399387 0.070866
v -0.154120 -0.002302 0.082453
v -0.118694 0.399387 0.033495
v -0.177165 -0.002302 0.073334
v -0.148485 0.399387 0.018015
v -0.200210 -0.002302 0.082453
v -0.178275 0.399387 0.033495
v -0.209755 -0.002302 0.104469
v -0.190615 0.399387 0.070866
v -0.200210 -0.002302 0.126485
v -0.178275 0.399387 0.108238
v 0.177165 -0.002302 0.135604
v 0.148485 0.399387 0.123717
v 0.154120 -0.002302 0.126485
v 0.118694 0.399387 0.108238
v 0.144574 -0.002302 0.104469
v 0.106354 0.399387 0.070866
v 0.154120 -0.002302 0.082453
v 0.118694 0.399387 0.033495
v 0.177165 -0.002302 0.073334
v 0.148485 0.399387 0.018015
v 0.200210 -0.002302 0.082453
v 0.178275 0.399387 0.033495
v 0.209755 -0.002302 0.104469
v 0.190615 0.399387 0.070866
v 0.200210 -0.002302 0.126485
v 0.178275 0.399387 0.108238
vn 0.3680 0.0012 -0.9298
vn 0.9157 -0.0627 -0.3970
vn 0.9109 -0.1197 0.3949
vn 0.3637 -0.1525 0.9190
vn -0.3664 -0.0928 0.9258
vn -0.9174 0.0104 0.3978
vn -0.0000 1.0000 -0.0000
vn -0.9153 0.0680 -0.3969
vn -0.3672 0.0622 -0.9280
vn -0.0000 -1.0000 -0.0000
vn -0.3680 0.0012 -0.9298
vn -0.9157 -0.0627 -0.3970
vn -0.9109 -0.1197 0.3949
vn -0.4561 -0.1472 0.8777
vn 0.4593 -0.0889 0.8838
vn 0.9495 0.0136 0.3135
vn 0.9472 0.0713 -0.3127
vn 0.3672 0.0622 -0.9280
vn 0.3680 0.0012 0.9298
vn 0.9157 -0.0627 0.3970
vn 0.9109 -0.1197 -0.3949
vn 0.4561 -0.1472 -0.8777
vn -0.4593 -0.0889 -0.8838
vn -0.9495 0.0136 -0.3135
vn -0.9472 0.0713 0.3127
vn -0.3672 0.0622 0.9280
vn -0.3680 0.0012 0.9298
vn -0.9157 -0.0627 0.3970
vn -0.9109 -0.1197 -0.3949
vn -0.3637 -0.1525 -0.9190
vn 0.3664 -0.0928 -0.9258
vn 0.9174 0.0104 -0.3978
vn 0.9153 0.0680 0.3969
vn 0.3672 0.0622 0.9280
vn 0.4611 -0.0004 -0.8874
vn 0.9476 -0.0640 -0.3129
vn 0.9426 -0.1211 0.3112
vn 0.4561 -0.1472 0.8777
vn -0.4593 -0.0889 0.8838
vn -0.9495 0.0136 0.3135
vn -0.9472 0.0713 -0.3127
vn -0.4603 0.0591 -0.8858
vn -0.4611 -0.0004 -0.8874
vn -0.9476 -0.0640 -0.3129
vn -0.9426 -0.1211 0.3112
vn -0.3637 -0.1525 0.9190
vn 0.3664 -0.0928 0.9258
vn 0.9174 0.0104 0.3978
vn 0.9153 0.0680 -0.3969
vn 0.4603 0.0591 -0.8858
vn 0.4611 -0.0004 0.8874
vn 0.9476 -0.0640 0.3129
vn 0.9426 -0.1211 -0.3112
vn 0.3637 -0.1525 -0.9190
vn -0.3664 -0.0928 -0.9258
vn -0.9174 0.0104 -0.3978
vn -0.9153 0.0680 0.3969
vn -0.4603 0.0591 0.8858
vn -0.4611 -0.0004 0.8874
vn -0.9476 -0.0640 0.3129
vn -0.9426 -0.1211 -0.3112
vn -0.4561 -0.1472 -0.8777
vn 0.4593 -0.0889 -0.8838
vn 0.9495 0.0136 -0.3135
vn 0.9472 0.0713 0.3127
vn 0.4603 0.0591 0.8858
vt 1.000000 1.000000
vt 0.875000 0.500000
vt 1.000000 0.500000
vt 0.875000 1.000000
vt 0.750000 0.500000
vt 0.750000 1.000000
vt 0.625000 0.500000
vt 0.500000 1.000000
vt 0.500000 0.500000
vt 0.375000 1.000000
vt 0.375000 0.500000
vt 0.250000 1.000000
vt 0.250000 0.500000
vt 0.010000 0.250000
vt 0.250000 0.010000
vt 0.490000 0.250000
vt 0.125000 1.000000
vt 0.125000 0.500000
vt 0.000000 0.500000
vt 0.919706 0.080294
vt 0.580294 0.080294
vt 0.580294 0.419706
vt 0.625000 1.000000
vt 0.250000 0.490000
vt 0.919706 0.419706
vt 0.419706 0.419706
vt 0.080294 0.419706
vt 0.080294 0.080294
vt 0.419706 0.080294
vt 0.000000 1.000000
vt 0.750000 0.490000
vt 0.990000 0.250000
vt 0.750000 0.010000
vt 0.510000 0.250000
s 0
f 122/221/113 123/222/113 121/223/113
f 124/224/114 125/225/114 123/222/114
f 126/226/115 127/227/115 125/225/115
f 127/227/116 130/228/116 129/229/116
f 129/229/117 132/230/117 131/231/117
f 131/231/118 134/232/118 133/233/118
f 134/234/119 130/235/119 126/236/119
f 133/233/120 136/237/120 135/238/120
f 136/237/121 121/239/121 135/238/121
f 127/240/122 131/241/122 135/242/122
f 139/222/123 138/221/123 137/223/123
f 141/225/124 140/224/124 139/222/124
f 143/227/125 142/226/125 141/225/125
f 143/227/126 146/228/126 144/243/126
f 145/229/127 148/230/127 146/228/127
f 147/231/128 150/232/128 148/230/128
f 146/235/119 150/234/119 138/244/119
f 149/233/129 152/237/129 150/232/129
f 137/239/130 152/237/130 151/238/130
f 147/241/122 143/240/122 139/245/122
f 155/222/131 154/221/131 153/223/131
f 157/225/132 156/224/132 155/222/132
f 159/227/133 158/226/133 157/225/133
f 159/227/134 162/228/134 160/243/134
f 161/229/135 164/230/135 162/228/135
f 163/231/136 166/232/136 164/230/136
f 162/235/119 166/234/119 154/244/119
f 165/233/137 168/237/137 166/232/137
f 153/239/138 168/237/138 167/238/138
f 163/241/122 159/240/122 155/245/122
f 170/221/139 171/222/139 169/223/139
f 172/224/140 173/225/140 171/222/140
f 174/226/141 175/227/141 173/225/141
f 175/227/142 178/228/142 177/229/142
f 177/229/143 180/230/143 179/231/143
f 179/231/144 182/232/144 181/233/144
f 182/234/119 178/235/119 174/236/119
f 181/233/145 184/237/145 183/238/145
f 184/237/146 169/239/146 183/238/146
f 175/240/122 179/241/122 183/242/122
f 122/221/147 124/224/147 123/222/147
f 124/224/148 126/226/148 125/225/148
f 126/226/149 128/243/149 127/227/149
f 127/227/150 128/243/150 130/228/150
f 129/229/151 130/228/151 132/230/151
f 131/231/152 132/230/152 134/232/152
f 126/236/119 124/246/119 122/244/119
f 122/244/119 136/247/119 134/234/119
f 134/234/119 132/248/119 130/235/119
f 130/235/119 128/249/119 126/236/119
f 126/236/119 122/244/119 134/234/119
f 133/233/153 134/232/153 136/237/153
f 136/237/154 122/250/154 121/239/154
f 135/242/122 121/251/122 123/245/122
f 123/245/122 125/252/122 127/240/122
f 127/240/122 129/253/122 131/241/122
f 131/241/122 133/254/122 135/242/122
f 135/242/122 123/245/122 127/240/122
f 139/222/155 140/224/155 138/221/155
f 141/225/156 142/226/156 140/224/156
f 143/227/157 144/243/157 142/226/157
f 143/227/158 145/229/158 146/228/158
f 145/229/159 147/231/159 148/230/159
f 147/231/160 149/233/160 150/232/160
f 138/244/119 140/246/119 142/236/119
f 142/236/119 144/249/119 146/235/119
f 146/235/119 148/248/119 150/234/119
f 150/234/119 152/247/119 138/244/119
f 138/244/119 142/236/119 146/235/119
f 149/233/161 151/238/161 152/237/161
f 137/239/162 138/250/162 152/237/162
f 139/245/122 137/251/122 151/242/122
f 151/242/122 149/254/122 147/241/122
f 147/241/122 145/253/122 143/240/122
f 143/240/122 141/252/122 139/245/122
f 139/245/122 151/242/122 147/241/122
f 155/222/163 156/224/163 154/221/163
f 157/225/164 158/226/164 156/224/164
f 159/227/165 160/243/165 158/226/165
f 159/227/166 161/229/166 162/228/166
f 161/229/167 163/231/167 164/230/167
f 163/231/168 165/233/168 166/232/168
f 154/244/119 156/246/119 158/236/119
f 158/236/119 160/249/119 162/235/119
f 162/235/119 164/248/119 166/234/119
f 166/234/119 168/247/119 154/244/119
f 154/244/119 158/236/119 162/235/119
f 165/233/169 167/238/169 168/237/169
f 153/239/170 154/250/170 168/237/170
f 155/245/122 153/251/122 167/242/122
f 167/242/122 165/254/122 163/241/122
f 163/241/122 161/253/122 159/240/122
f 159/240/122 157/252/122 155/245/122
f 155/245/122 167/242/122 163/241/122
f 170/221/171 172/224/171 171/222/171
f 172/224/172 174/226/172 173/225/172
f 174/226/173 176/243/173 175/227/173
f 175/227/174 176/243/174 178/228/174
f 177/229/175 178/228/175 180/230/175
f 179/231/176 180/230/176 182/232/176
f 174/236/119 172/246/119 170/244/119
f 170/244/119 184/247/119 182/234/119
f 182/234/119 180/248/119 178/235/119
f 178/235/119 176/249/119 174/236/119
f 174/236/119 170/244/119 182/234/119
f 181/233/177 182/232/177 184/237/177
f 184/237/178 170/250/178 169/239/178
f 183/242/122 169/251/122 171/245/122
f 171/245/122 173/252/122 175/240/122
f 175/240/122 177/253/122 179/241/122
f 179/241/122 181/254/122 183/242/122
f 183/242/122 171/245/122 175/240/122
