# Blender 4.0.2
# www.blender.org
mtllib Ashtray.mtl
o Ashtray
v 0.059053 0.012256 -0.000000
v 0.063648 0.042161 0.000000
v 0.081420 0.042161 0.000000
v 0.081420 0.024710 0.000000
v 0.076504 0.017808 0.000000
v 0.076221 0.003902 0.000000
v 0.070330 -0.000039 -0.000000
v -0.008301 -0.000039 0.025549
v 0.047775 0.012256 -0.034710
v 0.051493 0.042161 -0.037411
v 0.065870 0.042161 -0.047858
v 0.065870 0.024710 -0.047858
v 0.061893 0.017808 -0.044968
v 0.061664 0.003902 -0.044802
v 0.056898 -0.000039 -0.041339
v 0.018248 0.012256 -0.056163
v 0.019668 0.042161 -0.060533
v 0.025160 0.042161 -0.077435
v 0.025160 0.024710 -0.077435
v 0.023641 0.017808 -0.072760
v 0.023554 0.003902 -0.072490
v 0.021733 -0.000039 -0.066888
v -0.018248 0.012256 -0.056163
v -0.019668 0.042161 -0.060533
v -0.025160 0.042161 -0.077435
v -0.025160 0.024710 -0.077435
v -0.023641 0.017808 -0.072760
v -0.023554 0.003902 -0.072490
v -0.021733 -0.000039 -0.066888
v -0.047775 0.012256 -0.034710
v -0.051493 0.042161 -0.037411
v -0.065870 0.042161 -0.047858
v -0.065870 0.024710 -0.047858
v -0.061893 0.017808 -0.044968
v -0.061664 0.003902 -0.044802
v -0.056898 -0.000039 -0.041339
v -0.059053 0.012256 0.000000
v -0.063648 0.042161 0.000000
v -0.081420 0.042161 -0.000000
v -0.081420 0.024710 -0.000000
v -0.076504 0.017808 -0.000000
v -0.076221 0.003902 0.000000
v -0.070330 -0.000039 0.000000
v -0.047775 0.012256 0.034710
v -0.051493 0.042161 0.037412
v -0.065870 0.042161 0.047858
v -0.065870 0.024710 0.047858
v -0.061893 0.017808 0.044968
v -0.061664 0.003902 0.044802
v -0.056898 -0.000039 0.041339
v -0.018248 0.012256 0.056163
v -0.019668 0.042161 0.060533
v -0.025160 0.042161 0.077435
v -0.025160 0.024710 0.077435
v -0.023641 0.017808 0.072760
v -0.023554 0.003902 0.072490
v -0.021733 -0.000039 0.066888
v 0.018248 0.012256 0.056163
v 0.019668 0.042161 0.060533
v 0.025160 0.042161 0.077435
v 0.025160 0.024710 0.077435
v 0.023641 0.017808 0.072760
v 0.023554 0.003902 0.072490
v 0.021733 -0.000039 0.066888
v 0.047775 0.012256 0.034710
v 0.051493 0.042161 0.037411
v 0.065870 0.042161 0.047858
v 0.065870 0.024710 0.047858
v 0.061893 0.017808 0.044968
v 0.061664 0.003902 0.044802
v 0.056898 -0.000039 0.041339
v -0.011848 0.042161 -0.060533
v 0.011848 0.028995 -0.058609
v 0.011848 0.042161 -0.060533
v -0.011848 0.028995 -0.058609
v -0.054366 0.042161 0.028568
v -0.059846 0.028995 0.005476
v -0.061690 0.042161 0.006025
v -0.052521 0.028995 0.028018
v 0.053799 0.042161 0.030312
v 0.051973 0.028995 0.029706
v 0.061122 0.042161 0.007775
v 0.059295 0.028995 0.007170
v -0.011848 0.042161 -0.077435
v 0.011848 0.042161 -0.077435
v -0.077893 0.042161 0.010855
v -0.070569 0.042161 0.033398
v 0.069844 0.042161 0.035629
v 0.077166 0.042161 0.013093
v -0.011848 0.028995 -0.077435
v 0.011848 0.028995 -0.077435
v -0.070569 0.028995 0.033398
v -0.077893 0.028995 0.010855
v 0.069844 0.028995 0.035629
v 0.077166 0.028995 0.013093
v 0.008301 -0.000039 -0.025549
v -0.006970 0.012256 0.021452
v 0.006970 0.012256 -0.021452
vn -0.5630 0.8265 -0.0000
vn -0.5781 0.6996 0.4200
vn -0.7145 0.6996 -0.0000
vn -0.1740 0.8265 0.5354
vn -0.2208 0.6996 0.6796
vn 0.2208 0.6996 0.6796
vn 0.2654 0.4193 0.8682
vn 0.1740 0.8265 0.5354
vn 0.5781 0.6996 0.4200
vn 0.4554 0.8265 0.3309
vn 0.7145 0.6996 -0.0000
vn 0.5781 0.6996 -0.4200
vn 0.7472 0.4131 -0.5206
vn 0.4554 0.8265 -0.3309
vn 0.2208 0.6996 -0.6796
vn -0.1740 0.8265 -0.5354
vn -0.2208 0.6996 -0.6796
vn -0.5781 0.6996 -0.4200
vn -0.9084 0.4178 -0.0163
vn 0.6191 0.6437 -0.4498
vn -0.4554 0.8265 0.3309
vn 0.2365 0.6437 -0.7278
vn 0.5774 0.5774 -0.5774
vn 0.5854 0.6134 0.5302
vn -0.5774 0.5774 -0.5774
vn -0.5854 0.6134 0.5302
vn -0.6191 0.6437 -0.4498
vn -0.7653 0.6437 -0.0000
vn 0.5630 0.8265 -0.0000
vn -0.3791 0.5786 0.7221
vn 0.6808 0.6125 0.4016
vn -0.7237 0.5761 -0.3800
vn -0.6191 0.6437 0.4498
vn -0.2365 0.6437 0.7278
vn 0.1740 0.8265 -0.5354
vn 0.2365 0.6437 0.7278
vn 0.6191 0.6437 0.4498
vn -0.4554 0.8265 -0.3309
vn 0.7284 0.5777 -0.3684
vn -0.3213 0.6132 -0.7217
vn 0.3686 0.5770 0.7288
vn -0.6862 0.6136 0.3908
vn 0.9575 -0.2885 -0.0000
vn 0.7653 0.6437 -0.0000
vn 0.7746 -0.2885 -0.5628
vn 0.2959 -0.2885 -0.9106
vn -0.2959 -0.2885 -0.9106
vn -0.3015 0.3015 -0.9045
vn -0.2365 0.6437 -0.7278
vn -0.7746 -0.2885 -0.5628
vn -0.9575 -0.2885 -0.0000
vn -0.7746 -0.2885 0.5628
vn -0.7701 0.2953 0.5655
vn -0.2959 -0.2885 0.9106
vn 0.2959 -0.2885 0.9106
vn 0.7746 -0.2885 0.5628
vn 0.9539 0.3000 -0.0067
vn 0.9429 -0.3330 -0.0000
vn 0.7628 -0.3330 -0.5542
vn 0.2914 -0.3330 -0.8968
vn -0.2914 -0.3330 -0.8968
vn -0.9429 -0.3330 -0.0000
vn -0.7628 -0.3330 0.5542
vn -0.2914 -0.3330 0.8968
vn 0.2914 -0.3330 0.8968
vn 0.7628 -0.3330 0.5542
vn 0.8953 -0.4454 -0.0000
vn 0.7243 -0.4454 -0.5263
vn 0.2767 -0.4454 -0.8515
vn -0.2767 -0.4454 -0.8515
vn -0.7628 -0.3330 -0.5542
vn -0.7243 -0.4454 -0.5263
vn -0.8953 -0.4454 -0.0000
vn -0.7243 -0.4454 0.5263
vn -0.2767 -0.4454 0.8515
vn 0.2767 -0.4454 0.8515
vn 0.7243 -0.4454 0.5263
vn 0.3418 -0.9398 -0.0000
vn 0.2765 -0.9398 -0.2009
vn -0.1056 -0.9398 -0.3250
vn -0.2765 -0.9398 -0.2009
vn -0.3418 -0.9398 -0.0000
vn -0.2765 -0.9398 0.2009
vn -0.1056 -0.9398 0.3250
vn 0.1056 -0.9398 0.3250
vn -0.0000 -1.0000 -0.0000
vn 0.1056 -0.9398 -0.3250
vn 0.2765 -0.9398 0.2009
vn -0.2857 -0.0000 -0.9583
vn 0.2857 -0.0000 0.9583
vn -0.0000 1.0000 -0.0000
vn 1.0000 -0.0000 -0.0000
vn -1.0000 -0.0000 -0.0000
vn -0.3146 -0.0000 0.9492
vn 0.3146 -0.0000 -0.9492
vn -0.2654 0.4193 0.8682
vn 0.3320 0.6142 -0.7159
vn 0.9048 0.4256 -0.0138
vn -0.7428 0.4208 -0.5207
vn 0.3015 0.3015 -0.9045
vn -0.9514 0.3078 -0.0095
vn 0.7664 0.3030 0.5664
vt 0.000000 0.091641
vt 0.100000 0.027559
vt 0.000000 0.027559
vt 0.200000 0.091641
vt 0.200000 0.027559
vt 0.300000 0.027559
vt 0.281093 0.063428
vt 0.300000 0.091641
vt 0.400000 0.027559
vt 0.400000 0.091641
vt 0.500000 0.027559
vt 0.600000 0.027559
vt 0.577337 0.063428
vt 0.600000 0.091641
vt 0.700000 0.027559
vt 0.800000 0.091641
vt 0.800000 0.027559
vt 0.900000 0.027559
vt 1.000000 0.027559
vt 0.980191 0.063428
vt 0.100000 0.091641
vt 0.273545 0.091641
vt 0.280119 0.091641
vt 0.226455 0.091641
vt 0.219881 0.091641
vt 0.500000 0.091641
vt 0.522682 0.091641
vt 0.516106 0.091641
vt 0.569786 0.091641
vt 0.700000 0.091641
vt 0.900000 0.091641
vt 0.925552 0.091641
vt 0.918978 0.091641
vt 0.972642 0.091641
vt 1.000000 0.091641
vt 0.979217 0.091641
vt 0.000000 0.054244
vt 0.100000 0.054244
vt 0.200000 0.054244
vt 0.300000 0.054244
vt 0.226455 0.063428
vt 0.400000 0.054244
vt 0.500000 0.054244
vt 0.600000 0.054244
vt 0.522682 0.063428
vt 0.700000 0.054244
vt 0.800000 0.054244
vt 0.900000 0.054244
vt 1.000000 0.054244
vt 0.925552 0.063428
vt 0.000000 0.039455
vt 0.100000 0.039455
vt 0.200000 0.039455
vt 0.300000 0.039455
vt 0.500000 0.039455
vt 0.600000 0.039455
vt 0.700000 0.039455
vt 0.800000 0.039455
vt 0.900000 0.039455
vt 0.000000 0.009656
vt 0.100000 0.009656
vt 0.200000 0.009656
vt 0.300000 0.009656
vt 0.400000 0.039455
vt 0.400000 0.009656
vt 0.500000 0.009656
vt 0.600000 0.009656
vt 0.700000 0.009656
vt 0.800000 0.009656
vt 0.900000 0.009656
vt 1.000000 0.039455
vt 0.000000 0.001213
vt 0.100000 0.001213
vt 0.300000 0.001213
vt 0.400000 0.001213
vt 0.500000 0.001213
vt 0.600000 0.001213
vt 0.700000 0.001213
vt 0.800000 0.001213
vt 1.000000 0.001213
vt 1.000000 0.009656
vt 0.288235 0.001213
vt 0.200000 0.001213
vt 0.523529 0.001213
vt 0.611765 0.001213
vt 0.900000 0.001213
vt 0.485530 0.104328
vt 0.375000 0.167206
vt 0.485530 0.167206
vt 0.375000 0.580637
vt 0.485530 0.643515
vt 0.485530 0.580637
vt 0.375000 0.650673
vt 0.125000 0.582794
vt 0.125000 0.652830
vt 0.485530 0.105339
vt 0.375000 0.168198
vt 0.485530 0.168198
vt 0.375000 0.581802
vt 0.485530 0.644661
vt 0.485530 0.581802
vt 0.125000 0.651817
vt 0.125000 0.581802
vt 0.485530 0.105084
vt 0.375000 0.167945
vt 0.485530 0.167945
vt 0.375000 0.581538
vt 0.485530 0.644399
vt 0.485530 0.581538
vt 0.375000 0.651555
vt 0.125000 0.582055
vt 0.125000 0.652072
vt 0.611765 0.027559
vt 0.523529 0.027559
vt 0.288235 0.027559
vt 0.218907 0.063428
vt 0.576362 0.091641
vt 0.515131 0.063428
vt 0.918004 0.063428
vt 0.273545 0.063428
vt 0.569786 0.063428
vt 0.972642 0.063428
vt 0.375000 0.097170
vt 0.375000 0.098183
vt 0.375000 0.651817
vt 0.375000 0.097928
s 1
f 2/1/1 9/2/2 1/3/3
f 9/2/2 17/4/4 16/5/5
f 23/6/6 16/5/5 75/7/7
f 24/8/8 30/9/9 23/6/6
f 31/10/10 37/11/11 30/9/9
f 44/12/12 37/11/11 79/13/13
f 45/14/14 51/15/15 44/12/12
f 51/15/15 59/16/16 58/17/17
f 59/16/16 65/18/18 58/17/17
f 1/19/3 65/18/18 83/20/19
f 2/1/1 11/21/20 10/21/21
f 10/21/21 18/4/22 17/4/4
f 84/22/23 24/8/8 72/23/24
f 17/4/4 85/24/25 74/25/26
f 24/8/8 32/10/27 31/10/10
f 31/10/10 39/26/28 38/26/29
f 38/26/29 86/27/30 78/28/31
f 45/14/14 87/29/32 46/14/33
f 45/14/14 53/30/34 52/30/35
f 52/30/35 60/16/36 59/16/16
f 59/16/16 67/31/37 66/31/38
f 66/31/38 88/32/39 80/33/40
f 89/34/41 2/35/1 82/36/42
f 4/37/43 11/21/20 3/1/44
f 12/38/45 18/4/22 11/21/20
f 19/39/46 26/40/47 91/41/48
f 26/40/47 32/10/27 25/8/49
f 33/42/50 39/26/28 32/10/27
f 40/43/51 47/44/52 93/45/53
f 47/44/52 53/30/34 46/14/33
f 54/46/54 60/16/36 53/30/34
f 61/47/55 67/31/37 60/16/36
f 68/48/56 4/49/43 94/50/57
f 5/51/58 12/38/45 4/37/43
f 13/52/59 19/39/46 12/38/45
f 20/53/60 26/40/47 19/39/46
f 27/54/61 33/42/50 26/40/47
f 33/42/50 41/55/62 40/43/51
f 40/43/51 48/56/63 47/44/52
f 48/56/63 54/46/54 47/44/52
f 55/57/64 61/47/55 54/46/54
f 62/58/65 68/48/56 61/47/55
f 69/59/66 4/49/43 68/48/56
f 6/60/67 13/52/59 5/51/58
f 14/61/68 20/53/60 13/52/59
f 21/62/69 27/54/61 20/53/60
f 28/63/70 34/64/71 27/54/61
f 35/65/72 41/55/62 34/64/71
f 42/66/73 48/56/63 41/55/62
f 49/67/74 55/57/64 48/56/63
f 56/68/75 62/58/65 55/57/64
f 63/69/76 69/59/66 62/58/65
f 70/70/77 5/71/58 69/59/66
f 7/72/78 14/61/68 6/60/67
f 15/73/79 21/62/69 14/61/68
f 21/62/69 29/74/80 28/63/70
f 29/74/80 35/65/72 28/63/70
f 36/75/81 42/66/73 35/65/72
f 43/76/82 49/67/74 42/66/73
f 50/77/83 56/68/75 49/67/74
f 57/78/84 63/69/76 56/68/75
f 64/79/85 70/70/77 63/69/76
f 70/70/77 7/80/78 6/81/67
f 29/74/80 96/82/86 36/75/81
f 15/73/79 96/82/86 22/83/87
f 96/84/86 43/76/82 36/75/81
f 8/85/86 64/79/85 57/78/84
f 96/84/86 71/86/88 8/85/86
s 0
f 76/87/89 92/88/89 87/89/89
f 93/90/90 78/91/90 86/92/90
f 77/93/91 92/94/91 79/95/91
f 72/96/92 90/97/92 84/98/92
f 91/99/93 74/100/93 85/101/93
f 75/102/91 91/99/91 90/103/91
f 82/104/94 95/105/94 89/106/94
f 94/107/95 80/108/95 88/109/95
f 81/110/91 95/111/91 83/112/91
s 1
f 8/85/86 50/77/83 43/76/82
f 44/12/12 97/113/91 37/11/11
f 58/17/17 97/113/91 51/15/15
f 37/11/11 98/114/91 30/9/9
f 97/113/91 1/19/3 98/114/91
f 98/115/91 23/6/6 30/9/9
f 98/115/91 9/2/2 16/5/5
f 2/1/1 10/21/21 9/2/2
f 9/2/2 10/21/21 17/4/4
f 75/7/7 72/23/24 24/8/8
f 16/5/5 17/4/4 74/25/26
f 16/5/5 74/25/26 73/116/96
f 75/7/7 24/8/8 23/6/6
f 16/5/5 73/116/96 75/7/7
f 24/8/8 31/10/10 30/9/9
f 31/10/10 38/26/29 37/11/11
f 79/13/13 76/117/97 45/14/14
f 37/11/11 38/26/29 78/28/31
f 37/11/11 78/28/31 77/118/98
f 79/13/13 45/14/14 44/12/12
f 37/11/11 77/118/98 79/13/13
f 45/14/14 52/30/35 51/15/15
f 51/15/15 52/30/35 59/16/16
f 59/16/16 66/31/38 65/18/18
f 83/20/19 82/36/42 2/35/1
f 65/18/18 66/31/38 80/33/40
f 65/18/18 80/33/40 81/119/99
f 83/20/19 2/35/1 1/19/3
f 65/18/18 81/119/99 83/20/19
f 2/1/1 3/1/44 11/21/20
f 10/21/21 11/21/20 18/4/22
f 84/22/23 25/8/49 24/8/8
f 17/4/4 18/4/22 85/24/25
f 24/8/8 25/8/49 32/10/27
f 31/10/10 32/10/27 39/26/28
f 38/26/29 39/26/28 86/27/30
f 45/14/14 76/117/97 87/29/32
f 45/14/14 46/14/33 53/30/34
f 52/30/35 53/30/34 60/16/36
f 59/16/16 60/16/36 67/31/37
f 66/31/38 67/31/37 88/32/39
f 89/34/41 3/35/44 2/35/1
f 4/37/43 12/38/45 11/21/20
f 12/38/45 19/39/46 18/4/22
f 85/24/25 18/4/22 19/39/46
f 26/40/47 25/8/49 84/22/23
f 26/40/47 84/22/23 90/120/100
f 91/41/48 85/24/25 19/39/46
f 26/40/47 90/120/100 91/41/48
f 26/40/47 33/42/50 32/10/27
f 33/42/50 40/43/51 39/26/28
f 86/27/30 39/26/28 40/43/51
f 47/44/52 46/14/33 87/29/32
f 47/44/52 87/29/32 92/121/101
f 93/45/53 86/27/30 40/43/51
f 47/44/52 92/121/101 93/45/53
f 47/44/52 54/46/54 53/30/34
f 54/46/54 61/47/55 60/16/36
f 61/47/55 68/48/56 67/31/37
f 94/50/57 88/32/39 67/31/37
f 4/49/43 3/35/44 89/34/41
f 4/49/43 89/34/41 95/122/102
f 94/50/57 67/31/37 68/48/56
f 4/49/43 95/122/102 94/50/57
f 5/51/58 13/52/59 12/38/45
f 13/52/59 20/53/60 19/39/46
f 20/53/60 27/54/61 26/40/47
f 27/54/61 34/64/71 33/42/50
f 33/42/50 34/64/71 41/55/62
f 40/43/51 41/55/62 48/56/63
f 48/56/63 55/57/64 54/46/54
f 55/57/64 62/58/65 61/47/55
f 62/58/65 69/59/66 68/48/56
f 69/59/66 5/71/58 4/49/43
f 6/60/67 14/61/68 13/52/59
f 14/61/68 21/62/69 20/53/60
f 21/62/69 28/63/70 27/54/61
f 28/63/70 35/65/72 34/64/71
f 35/65/72 42/66/73 41/55/62
f 42/66/73 49/67/74 48/56/63
f 49/67/74 56/68/75 55/57/64
f 56/68/75 63/69/76 62/58/65
f 63/69/76 70/70/77 69/59/66
f 70/70/77 6/81/67 5/71/58
f 7/72/78 15/73/79 14/61/68
f 15/73/79 22/83/87 21/62/69
f 21/62/69 22/83/87 29/74/80
f 29/74/80 36/75/81 35/65/72
f 36/75/81 43/76/82 42/66/73
f 43/76/82 50/77/83 49/67/74
f 50/77/83 57/78/84 56/68/75
f 57/78/84 64/79/85 63/69/76
f 64/79/85 71/86/88 70/70/77
f 70/70/77 71/86/88 7/80/78
f 29/74/80 22/83/87 96/82/86
f 15/73/79 7/72/78 96/82/86
f 96/84/86 8/85/86 43/76/82
f 8/85/86 71/86/88 64/79/85
f 96/84/86 7/80/78 71/86/88
s 0
f 76/87/89 79/123/89 92/88/89
f 93/90/90 77/93/90 78/91/90
f 77/93/91 93/90/91 92/94/91
f 72/96/92 75/124/92 90/97/92
f 91/99/93 73/125/93 74/100/93
f 75/102/91 73/125/91 91/99/91
f 82/104/94 83/126/94 95/105/94
f 94/107/95 81/110/95 80/108/95
f 81/110/91 94/107/91 95/111/91
s 1
f 8/85/86 57/78/84 50/77/83
f 44/12/12 51/15/15 97/113/91
f 58/17/17 65/18/18 97/113/91
f 37/11/11 97/113/91 98/114/91
f 97/113/91 65/18/18 1/19/3
f 98/115/91 16/5/5 23/6/6
f 98/115/91 1/3/3 9/2/2
