# Blender 4.0.2
# www.blender.org
mtllib Glass02.mtl
o Glass02
v -0.000000 0.006937 0.000000
v -0.039225 0.006937 0.000000
v -0.042545 0.010258 0.000000
v -0.047982 0.195209 0.000000
v -0.055520 0.198025 0.000000
v -0.058981 0.196338 0.000000
v -0.056930 0.191176 0.000000
v -0.051060 0.003153 0.000000
v -0.046973 0.000403 0.000000
v -0.000000 0.000403 0.000000
v -0.033970 0.006937 0.019612
v -0.036845 0.010258 0.021273
v -0.041554 0.195209 0.023991
v -0.048081 0.198025 0.027760
v -0.051079 0.196338 0.029491
v -0.049303 0.191176 0.028465
v -0.044219 0.003153 0.025530
v -0.040680 0.000403 0.023487
v -0.019612 0.006937 0.033970
v -0.021273 0.010258 0.036846
v -0.023991 0.195209 0.041554
v -0.027760 0.198025 0.048081
v -0.029491 0.196338 0.051079
v -0.028465 0.191176 0.049303
v -0.025530 0.003153 0.044219
v -0.023487 0.000403 0.040680
v 0.000000 0.006937 0.039225
v 0.000000 0.010258 0.042546
v 0.000000 0.195209 0.047982
v 0.000000 0.198025 0.055520
v 0.000000 0.196338 0.058981
v 0.000000 0.191176 0.056930
v 0.000000 0.003153 0.051060
v 0.000000 0.000403 0.046973
v 0.019612 0.006937 0.033970
v 0.021273 0.010258 0.036846
v 0.023991 0.195209 0.041554
v 0.027760 0.198025 0.048081
v 0.029491 0.196338 0.051079
v 0.028465 0.191176 0.049303
v 0.025530 0.003153 0.044219
v 0.023487 0.000403 0.040680
v 0.033970 0.006937 0.019612
v 0.036845 0.010258 0.021273
v 0.041554 0.195209 0.023991
v 0.048081 0.198025 0.027760
v 0.051079 0.196338 0.029491
v 0.049303 0.191176 0.028465
v 0.044219 0.003153 0.025530
v 0.040680 0.000403 0.023487
v 0.039225 0.006937 0.000000
v 0.042545 0.010258 0.000000
v 0.047982 0.195209 0.000000
v 0.055520 0.198025 0.000000
v 0.058981 0.196338 0.000000
v 0.056930 0.191176 0.000000
v 0.051060 0.003153 0.000000
v 0.046973 0.000403 0.000000
v 0.033970 0.006937 -0.019612
v 0.036845 0.010258 -0.021273
v 0.041554 0.195209 -0.023991
v 0.048081 0.198025 -0.027760
v 0.051079 0.196338 -0.029491
v 0.049303 0.191176 -0.028465
v 0.044219 0.003153 -0.025530
v 0.040680 0.000403 -0.023487
v 0.019612 0.006937 -0.033970
v 0.021273 0.010258 -0.036845
v 0.023991 0.195209 -0.041554
v 0.027760 0.198025 -0.048081
v 0.029491 0.196338 -0.051079
v 0.028465 0.191176 -0.049303
v 0.025530 0.003153 -0.044219
v 0.023487 0.000403 -0.040680
v -0.000000 0.006937 -0.039225
v -0.000000 0.010258 -0.042545
v -0.000000 0.195209 -0.047982
v -0.000000 0.198025 -0.055520
v -0.000000 0.196338 -0.058981
v -0.000000 0.191176 -0.056930
v -0.000000 0.003153 -0.051059
v -0.000000 0.000403 -0.046973
v -0.019612 0.006937 -0.033970
v -0.021273 0.010258 -0.036845
v -0.023991 0.195209 -0.041554
v -0.027760 0.198025 -0.048081
v -0.029491 0.196338 -0.051079
v -0.028465 0.191176 -0.049303
v -0.025530 0.003153 -0.044219
v -0.023487 0.000403 -0.040680
v -0.033970 0.006937 -0.019612
v -0.036845 0.010258 -0.021273
v -0.041554 0.195209 -0.023991
v -0.048081 0.198025 -0.027760
v -0.051079 0.196338 -0.029491
v -0.049303 0.191176 -0.028465
v -0.044219 0.003153 -0.025530
v -0.040680 0.000403 -0.023487
vn -0.0000 1.0000 -0.0000
vn 0.4344 0.9007 -0.0000
vn 0.3762 0.9007 -0.2172
vn 0.2172 0.9007 -0.3762
vn -0.0000 0.9007 -0.4344
vn -0.2172 0.9007 -0.3762
vn -0.3762 0.9007 -0.2172
vn -0.4344 0.9007 -0.0000
vn -0.3762 0.9007 0.2172
vn -0.2172 0.9007 0.3762
vn -0.0000 0.9007 0.4344
vn 0.2172 0.9007 0.3762
vn 0.3762 0.9007 0.2172
vn 0.9268 0.3756 -0.0000
vn 0.8026 0.3756 -0.4634
vn 0.4634 0.3756 -0.8026
vn -0.0000 0.3756 -0.9268
vn -0.4634 0.3756 -0.8026
vn -0.8026 0.3756 -0.4634
vn -0.9268 0.3756 -0.0000
vn -0.8026 0.3756 0.4634
vn -0.4634 0.3756 0.8026
vn -0.0000 0.3756 0.9268
vn 0.4634 0.3756 0.8026
vn 0.7765 0.6301 -0.0000
vn 0.6725 0.6301 -0.3883
vn 0.3883 0.6301 -0.6725
vn -0.0000 0.6301 -0.7765
vn -0.3883 0.6301 -0.6725
vn -0.6725 0.6301 -0.3883
vn -0.7765 0.6301 -0.0000
vn -0.6725 0.6301 0.3883
vn -0.0000 0.6301 0.7765
vn 0.3883 0.6301 0.6725
vn 0.8026 0.3756 0.4634
vn 0.6725 0.6301 0.3883
vn -0.1128 0.9936 -0.0000
vn -0.0977 0.9936 0.0564
vn -0.0564 0.9936 0.0977
vn -0.0000 0.9936 0.1128
vn 0.0977 0.9936 0.0564
vn 0.1128 0.9936 -0.0000
vn 0.0977 0.9936 -0.0564
vn -0.3883 0.6301 0.6725
vn -0.0000 0.9936 -0.1128
vn -0.0564 0.9936 -0.0977
vn -0.0977 0.9936 -0.0564
vn -0.9446 0.3283 -0.0000
vn -0.8180 0.3283 0.4723
vn -0.4723 0.3283 0.8180
vn 0.4723 0.3283 0.8180
vn 0.0564 0.9936 0.0977
vn 0.8180 0.3283 0.4723
vn 0.9446 0.3283 -0.0000
vn 0.8180 0.3283 -0.4723
vn 0.0564 0.9936 -0.0977
vn 0.4723 0.3283 -0.8180
vn -0.0000 0.3283 -0.9446
vn -0.8180 0.3283 -0.4723
vn -0.8469 -0.2092 0.4889
vn -0.4889 -0.2092 0.8469
vn -0.0000 0.3283 0.9446
vn 0.4889 -0.2092 0.8469
vn 0.8469 -0.2092 0.4889
vn 0.9779 -0.2092 -0.0000
vn 0.8469 -0.2092 -0.4889
vn 0.4889 -0.2092 -0.8469
vn -0.4889 -0.2092 -0.8469
vn -0.4723 0.3283 -0.8180
vn -0.8469 -0.2092 -0.4889
vn -0.8908 -0.4543 -0.0000
vn -0.9779 -0.2092 -0.0000
vn -0.7715 -0.4543 0.4454
vn -0.4454 -0.4543 0.7715
vn -0.0000 -0.2092 0.9779
vn -0.0000 -0.4543 0.8908
vn 0.7715 -0.4543 0.4454
vn 0.8908 -0.4543 -0.0000
vn 0.4454 -0.4543 -0.7715
vn -0.0000 -0.2092 -0.9779
vn -0.4454 -0.4543 -0.7715
vn -0.7715 -0.4543 -0.4454
vn -0.2901 -0.9422 0.1675
vn -0.1675 -0.9422 0.2901
vn -0.0000 -0.9422 0.3350
vn 0.4454 -0.4543 0.7715
vn 0.1675 -0.9422 0.2901
vn 0.2901 -0.9422 0.1675
vn 0.3350 -0.9422 -0.0000
vn 0.7715 -0.4543 -0.4454
vn 0.2901 -0.9422 -0.1675
vn -0.0000 -0.9422 -0.3350
vn -0.0000 -0.4543 -0.8908
vn -0.1675 -0.9422 -0.2901
vn -0.2901 -0.9422 -0.1675
vn -0.3350 -0.9422 -0.0000
vn -0.0000 -1.0000 -0.0000
vn 0.1675 -0.9422 -0.2901
vt 0.041667 0.022862
vt 0.000000 0.022862
vt 0.083333 0.022862
vt 0.125000 0.022862
vt 0.166667 0.022862
vt 0.208333 0.022862
vt 0.250000 0.022862
vt 0.291667 0.022862
vt 0.333333 0.022862
vt 0.375000 0.022862
vt 0.416667 0.022862
vt 0.458333 0.022862
vt 0.500000 0.022862
vt 0.541667 0.022862
vt 0.583333 0.022862
vt 0.625000 0.022862
vt 0.666667 0.022862
vt 0.708333 0.022862
vt 0.750000 0.022862
vt 0.791667 0.022862
vt 0.833333 0.022862
vt 0.875000 0.022862
vt 0.916667 0.022862
vt 0.958333 0.022862
vt 1.000000 0.022862
vt 0.000000 0.034480
vt 0.083333 0.034480
vt 0.166667 0.034480
vt 0.250000 0.034480
vt 0.333333 0.034480
vt 0.416667 0.034480
vt 0.500000 0.034480
vt 0.583333 0.034480
vt 0.666667 0.034480
vt 0.750000 0.034480
vt 0.833333 0.034480
vt 1.000000 0.034480
vt 0.000000 0.681603
vt 0.083333 0.681603
vt 0.166667 0.681603
vt 0.250000 0.681603
vt 0.333333 0.681603
vt 0.416667 0.681603
vt 0.500000 0.681603
vt 0.583333 0.681603
vt 0.750000 0.681603
vt 0.833333 0.681603
vt 0.916667 0.034480
vt 0.916667 0.681603
vt 0.000000 0.691453
vt 0.083333 0.691453
vt 0.166667 0.691453
vt 0.250000 0.691453
vt 0.416667 0.691453
vt 0.500000 0.691453
vt 0.583333 0.691453
vt 0.666667 0.681603
vt 0.750000 0.691453
vt 0.833333 0.691453
vt 0.916667 0.691453
vt 1.000000 0.681603
vt 0.000000 0.685554
vt 0.083333 0.685554
vt 0.166667 0.685554
vt 0.333333 0.685554
vt 0.333333 0.691453
vt 0.416667 0.685554
vt 0.500000 0.685554
vt 0.583333 0.685554
vt 0.666667 0.691453
vt 0.666667 0.685554
vt 0.750000 0.685554
vt 0.916667 0.685554
vt 1.000000 0.685554
vt 1.000000 0.691453
vt 0.083333 0.667490
vt 0.166667 0.667490
vt 0.250000 0.685554
vt 0.333333 0.667490
vt 0.416667 0.667490
vt 0.500000 0.667490
vt 0.583333 0.667490
vt 0.666667 0.667490
vt 0.833333 0.667490
vt 0.833333 0.685554
vt 0.916667 0.667490
vt 0.000000 0.009622
vt 0.000000 0.667490
vt 0.083333 0.009622
vt 0.166667 0.009622
vt 0.250000 0.667490
vt 0.250000 0.009622
vt 0.416667 0.009622
vt 0.500000 0.009622
vt 0.666667 0.009622
vt 0.750000 0.667490
vt 0.833333 0.009622
vt 0.916667 0.009622
vt 1.000000 0.667490
vt 0.083333 -0.000000
vt 0.166667 -0.000000
vt 0.250000 -0.000000
vt 0.333333 0.009622
vt 0.333333 -0.000000
vt 0.416667 -0.000000
vt 0.500000 -0.000000
vt 0.583333 0.009622
vt 0.583333 -0.000000
vt 0.750000 -0.000000
vt 0.750000 0.009622
vt 0.833333 -0.000000
vt 0.916667 -0.000000
vt 1.000000 0.009622
vt 0.000000 -0.000000
vt 0.041667 -0.000000
vt 0.125000 -0.000000
vt 0.208333 -0.000000
vt 0.291667 -0.000000
vt 0.375000 -0.000000
vt 0.458333 -0.000000
vt 0.541667 -0.000000
vt 0.625000 -0.000000
vt 0.666667 -0.000000
vt 0.708333 -0.000000
vt 0.791667 -0.000000
vt 0.875000 -0.000000
vt 0.958333 -0.000000
vt 1.000000 -0.000000
s 1
f 1/1/1 2/2/2 11/3/3
f 1/4/1 11/3/3 19/5/4
f 1/6/1 19/5/4 27/7/5
f 1/8/1 27/7/5 35/9/6
f 1/10/1 35/9/6 43/11/7
f 1/12/1 43/11/7 51/13/8
f 1/14/1 51/13/8 59/15/9
f 1/16/1 59/15/9 67/17/10
f 1/18/1 67/17/10 75/19/11
f 1/20/1 75/19/11 83/21/12
f 1/22/1 83/21/12 91/23/13
f 1/24/1 91/23/13 2/25/2
f 3/26/14 11/3/3 2/2/2
f 12/27/15 19/5/4 11/3/3
f 20/28/16 27/7/5 19/5/4
f 28/29/17 35/9/6 27/7/5
f 36/30/18 43/11/7 35/9/6
f 44/31/19 51/13/8 43/11/7
f 52/32/20 59/15/9 51/13/8
f 60/33/21 67/17/10 59/15/9
f 68/34/22 75/19/11 67/17/10
f 76/35/23 83/21/12 75/19/11
f 84/36/24 91/23/13 83/21/12
f 91/23/13 3/37/14 2/25/2
f 4/38/25 12/27/15 3/26/14
f 13/39/26 20/28/16 12/27/15
f 21/40/27 28/29/17 20/28/16
f 29/41/28 36/30/18 28/29/17
f 37/42/29 44/31/19 36/30/18
f 45/43/30 52/32/20 44/31/19
f 53/44/31 60/33/21 52/32/20
f 61/45/32 68/34/22 60/33/21
f 68/34/22 77/46/33 76/35/23
f 77/46/33 84/36/24 76/35/23
f 85/47/34 92/48/35 84/36/24
f 93/49/36 3/37/14 92/48/35
f 5/50/37 13/39/26 4/38/25
f 14/51/38 21/40/27 13/39/26
f 22/52/39 29/41/28 21/40/27
f 30/53/40 37/42/29 29/41/28
f 37/42/29 46/54/41 45/43/30
f 45/43/30 54/55/42 53/44/31
f 54/55/42 61/45/32 53/44/31
f 62/56/43 69/57/44 61/45/32
f 69/57/44 78/58/45 77/46/33
f 78/58/45 85/47/34 77/46/33
f 86/59/46 93/49/36 85/47/34
f 94/60/47 4/61/25 93/49/36
f 6/62/48 14/51/38 5/50/37
f 15/63/49 22/52/39 14/51/38
f 23/64/50 30/53/40 22/52/39
f 30/53/40 39/65/51 38/66/52
f 38/66/52 47/67/53 46/54/41
f 46/54/41 55/68/54 54/55/42
f 55/68/54 62/56/43 54/55/42
f 63/69/55 70/70/56 62/56/43
f 71/71/57 78/58/45 70/70/56
f 79/72/58 86/59/46 78/58/45
f 86/59/46 95/73/59 94/60/47
f 94/60/47 6/74/48 5/75/37
f 6/62/48 16/76/60 15/63/49
f 15/63/49 24/77/61 23/64/50
f 24/77/61 31/78/62 23/64/50
f 31/78/62 40/79/63 39/65/51
f 40/79/63 47/67/53 39/65/51
f 48/80/64 55/68/54 47/67/53
f 56/81/65 63/69/55 55/68/54
f 64/82/66 71/71/57 63/69/55
f 72/83/67 79/72/58 71/71/57
f 79/72/58 88/84/68 87/85/69
f 88/84/68 95/73/59 87/85/69
f 96/86/70 6/74/48 95/73/59
f 8/87/71 16/76/60 7/88/72
f 17/89/73 24/77/61 16/76/60
f 25/90/74 32/91/75 24/77/61
f 33/92/76 40/79/63 32/91/75
f 40/79/63 49/93/77 48/80/64
f 49/93/77 56/81/65 48/80/64
f 57/94/78 64/82/66 56/81/65
f 64/82/66 73/95/79 72/83/67
f 73/95/79 80/96/80 72/83/67
f 80/96/80 89/97/81 88/84/68
f 89/97/81 96/86/70 88/84/68
f 97/98/82 7/99/72 96/86/70
f 8/87/71 18/100/83 17/89/73
f 17/89/73 26/101/84 25/90/74
f 25/90/74 34/102/85 33/92/76
f 34/102/85 41/103/86 33/92/76
f 42/104/87 49/93/77 41/103/86
f 50/105/88 57/94/78 49/93/77
f 58/106/89 65/107/90 57/94/78
f 66/108/91 73/95/79 65/107/90
f 73/95/79 82/109/92 81/110/93
f 82/109/92 89/97/81 81/110/93
f 90/111/94 97/98/82 89/97/81
f 98/112/95 8/113/71 97/98/82
f 9/114/96 10/115/97 18/100/83
f 18/100/83 10/116/97 26/101/84
f 26/101/84 10/117/97 34/102/85
f 34/102/85 10/118/97 42/104/87
f 42/104/87 10/119/97 50/105/88
f 50/105/88 10/120/97 58/106/89
f 58/106/89 10/121/97 66/108/91
f 66/108/91 10/122/97 74/123/98
f 74/123/98 10/124/97 82/109/92
f 82/109/92 10/125/97 90/111/94
f 90/111/94 10/126/97 98/112/95
f 98/112/95 10/127/97 9/128/96
f 3/26/14 12/27/15 11/3/3
f 12/27/15 20/28/16 19/5/4
f 20/28/16 28/29/17 27/7/5
f 28/29/17 36/30/18 35/9/6
f 36/30/18 44/31/19 43/11/7
f 44/31/19 52/32/20 51/13/8
f 52/32/20 60/33/21 59/15/9
f 60/33/21 68/34/22 67/17/10
f 68/34/22 76/35/23 75/19/11
f 76/35/23 84/36/24 83/21/12
f 84/36/24 92/48/35 91/23/13
f 91/23/13 92/48/35 3/37/14
f 4/38/25 13/39/26 12/27/15
f 13/39/26 21/40/27 20/28/16
f 21/40/27 29/41/28 28/29/17
f 29/41/28 37/42/29 36/30/18
f 37/42/29 45/43/30 44/31/19
f 45/43/30 53/44/31 52/32/20
f 53/44/31 61/45/32 60/33/21
f 61/45/32 69/57/44 68/34/22
f 68/34/22 69/57/44 77/46/33
f 77/46/33 85/47/34 84/36/24
f 85/47/34 93/49/36 92/48/35
f 93/49/36 4/61/25 3/37/14
f 5/50/37 14/51/38 13/39/26
f 14/51/38 22/52/39 21/40/27
f 22/52/39 30/53/40 29/41/28
f 30/53/40 38/66/52 37/42/29
f 37/42/29 38/66/52 46/54/41
f 45/43/30 46/54/41 54/55/42
f 54/55/42 62/56/43 61/45/32
f 62/56/43 70/70/56 69/57/44
f 69/57/44 70/70/56 78/58/45
f 78/58/45 86/59/46 85/47/34
f 86/59/46 94/60/47 93/49/36
f 94/60/47 5/75/37 4/61/25
f 6/62/48 15/63/49 14/51/38
f 15/63/49 23/64/50 22/52/39
f 23/64/50 31/78/62 30/53/40
f 30/53/40 31/78/62 39/65/51
f 38/66/52 39/65/51 47/67/53
f 46/54/41 47/67/53 55/68/54
f 55/68/54 63/69/55 62/56/43
f 63/69/55 71/71/57 70/70/56
f 71/71/57 79/72/58 78/58/45
f 79/72/58 87/85/69 86/59/46
f 86/59/46 87/85/69 95/73/59
f 94/60/47 95/73/59 6/74/48
f 6/62/48 7/88/72 16/76/60
f 15/63/49 16/76/60 24/77/61
f 24/77/61 32/91/75 31/78/62
f 31/78/62 32/91/75 40/79/63
f 40/79/63 48/80/64 47/67/53
f 48/80/64 56/81/65 55/68/54
f 56/81/65 64/82/66 63/69/55
f 64/82/66 72/83/67 71/71/57
f 72/83/67 80/96/80 79/72/58
f 79/72/58 80/96/80 88/84/68
f 88/84/68 96/86/70 95/73/59
f 96/86/70 7/99/72 6/74/48
f 8/87/71 17/89/73 16/76/60
f 17/89/73 25/90/74 24/77/61
f 25/90/74 33/92/76 32/91/75
f 33/92/76 41/103/86 40/79/63
f 40/79/63 41/103/86 49/93/77
f 49/93/77 57/94/78 56/81/65
f 57/94/78 65/107/90 64/82/66
f 64/82/66 65/107/90 73/95/79
f 73/95/79 81/110/93 80/96/80
f 80/96/80 81/110/93 89/97/81
f 89/97/81 97/98/82 96/86/70
f 97/98/82 8/113/71 7/99/72
f 8/87/71 9/114/96 18/100/83
f 17/89/73 18/100/83 26/101/84
f 25/90/74 26/101/84 34/102/85
f 34/102/85 42/104/87 41/103/86
f 42/104/87 50/105/88 49/93/77
f 50/105/88 58/106/89 57/94/78
f 58/106/89 66/108/91 65/107/90
f 66/108/91 74/123/98 73/95/79
f 73/95/79 74/123/98 82/109/92
f 82/109/92 90/111/94 89/97/81
f 90/111/94 98/112/95 97/98/82
f 98/112/95 9/128/96 8/113/71
