# Blender 4.0.2
# www.blender.org
mtllib CutlerySpoonTable.mtl
o CutlerySpoonTable
v 0.000000 0.000403 -0.184325
v 0.008078 -0.002229 -0.181133
v 0.015074 -0.005264 -0.172867
v 0.018230 -0.005264 -0.157144
v 0.015467 -0.000989 -0.134041
v 0.006479 0.000402 -0.123363
v 0.003792 0.000896 -0.118340
v 0.007533 0.003346 -0.028327
v 0.008066 0.003513 -0.019947
v 0.007945 0.003033 -0.014438
v 0.005866 0.001340 -0.004282
v 0.000000 0.000403 0.000000
v -0.008078 -0.002229 -0.181133
v -0.015074 -0.005264 -0.172867
v -0.018230 -0.005264 -0.157144
v -0.015467 -0.000989 -0.134041
v -0.006479 0.000402 -0.123363
v -0.003792 0.000896 -0.118340
v -0.007533 0.003346 -0.028327
v -0.008066 0.003513 -0.019947
v -0.007945 0.003033 -0.014438
v -0.005866 0.001340 -0.004282
v 0.017864 -0.002873 -0.139742
v -0.017864 -0.002873 -0.139742
v 0.005669 0.004399 -0.073180
v -0.005669 0.004399 -0.073180
v 0.000000 -0.002134 -0.181133
v 0.000000 -0.005128 -0.172867
v 0.000000 -0.005120 -0.157144
v 0.000000 -0.000908 -0.134041
v 0.000000 0.000402 -0.123363
v 0.000000 0.000896 -0.118340
v 0.000000 0.001485 -0.028327
v 0.000000 0.001652 -0.019947
v 0.000000 0.001173 -0.014438
v 0.000000 -0.000521 -0.004282
v 0.000000 -0.002720 -0.139742
v 0.000000 0.004399 -0.073180
v -0.000000 0.000655 -0.178948
v 0.006696 -0.000097 -0.177062
v 0.012757 -0.001051 -0.170945
v 0.015691 -0.000841 -0.157249
v 0.013292 0.001220 -0.136833
v 0.005292 0.002018 -0.126688
v 0.003792 0.005462 -0.118811
v 0.007533 0.007934 -0.028321
v 0.008066 0.008097 -0.019765
v 0.007945 0.007581 -0.013788
v 0.005866 0.005844 -0.003345
v 0.000000 0.004869 0.001130
v -0.006696 -0.000097 -0.177062
v -0.012757 -0.001051 -0.170945
v -0.015691 -0.000841 -0.157249
v -0.013292 0.001220 -0.136833
v -0.005292 0.002018 -0.126688
v -0.003792 0.005462 -0.118811
v -0.007533 0.007934 -0.028321
v -0.008066 0.008097 -0.019765
v -0.007945 0.007581 -0.013788
v -0.005866 0.005844 -0.003345
v 0.015344 0.000291 -0.141437
v -0.015344 0.000291 -0.141437
v 0.005669 0.008985 -0.073315
v -0.005669 0.008985 -0.073315
v 0.000000 -0.000874 -0.171945
v 0.000000 -0.000837 -0.157504
v 0.000000 0.001406 -0.135219
v 0.000000 0.002019 -0.126662
v 0.000000 0.005463 -0.118804
v 0.000000 0.009279 -0.028317
v 0.000000 0.009443 -0.019769
v 0.000000 0.008925 -0.013772
v 0.000000 0.007178 -0.003281
v 0.000000 0.000383 -0.140935
v 0.000000 0.008985 -0.073323
v 0.000000 0.003297 -0.181050
v 0.008078 0.001313 -0.179059
v 0.015074 -0.000848 -0.172264
v 0.018230 -0.000820 -0.157528
v 0.017864 0.001015 -0.140862
v 0.015467 0.002516 -0.135415
v 0.006479 0.004048 -0.123997
v -0.008078 0.001313 -0.179059
v -0.015074 -0.000848 -0.172264
v -0.018230 -0.000820 -0.157528
v -0.017864 0.001015 -0.140862
v -0.015467 0.002516 -0.135415
v -0.006479 0.004048 -0.123997
v 0.000000 0.003799 -0.123965
vn -0.0000 -0.7829 -0.6221
vn -0.0000 -0.8727 -0.4883
vn 0.0094 -0.9205 -0.3907
vn -0.0000 -0.9851 -0.1722
vn -0.0000 -0.9976 0.0689
vn 0.0085 -0.9934 -0.1146
vn -0.0000 -0.9751 0.2216
vn 0.0069 -0.9674 0.2532
vn 0.0082 -0.9773 0.2116
vn -0.0000 -0.9768 0.2142
vn 0.0019 -0.9933 0.1152
vn -0.0000 -0.9940 0.1098
vn -0.0000 -0.9960 0.0889
vn -0.0000 -0.9993 -0.0366
vn -0.2259 -0.9694 -0.0966
vn -0.2246 -0.9737 -0.0376
vn -0.0000 -0.9939 -0.1106
vn -0.7300 -0.6019 0.3237
vn -0.0000 -1.0000 -0.0082
vn -0.0132 -0.9999 0.0060
vn -0.0000 -1.0000 0.0063
vn -0.0000 -0.6496 0.7603
vn -0.0000 -0.9997 0.0228
vn 0.7300 -0.6019 0.3237
vn -0.2360 -0.9717 -0.0095
vn 0.0079 -0.9973 0.0730
vn -0.0000 -0.9962 0.0876
vn -0.0082 -0.9773 0.2116
vn -0.0079 -0.9973 0.0730
vn 0.2360 -0.9717 -0.0095
vn 0.0132 -0.9999 0.0060
vn 0.2259 -0.9694 -0.0966
vn 0.2246 -0.9737 -0.0376
vn -0.0019 -0.9933 0.1152
vn -0.0069 -0.9674 0.2532
vn -0.0085 -0.9934 -0.1146
vn -0.0094 -0.9205 -0.3907
vn 0.0928 0.9284 0.3597
vn -0.0000 0.9953 0.0969
vn -0.0000 0.8341 0.5517
vn 0.0183 0.9948 0.0999
vn -0.0000 0.9992 -0.0405
vn -0.0000 0.9917 -0.1284
vn 0.1608 0.9521 -0.2601
vn -0.0000 0.9926 -0.1210
vn 0.1429 0.9225 -0.3586
vn -0.0000 0.9466 -0.3223
vn -0.0000 0.9005 -0.4349
vn 0.0115 0.9799 -0.1992
vn -0.0000 0.9811 -0.1933
vn -0.1652 0.9858 0.0299
vn -0.0000 0.9907 0.1361
vn -0.0000 0.9995 0.0306
vn -0.2010 0.9447 0.2591
vn -0.0000 0.9499 0.3124
vn -0.0095 0.9992 -0.0397
vn -0.0000 1.0000 -0.0025
vn -0.0000 0.9991 -0.0419
vn -0.0000 0.8860 0.4638
vn -0.1730 0.9849 -0.0047
vn 0.1227 0.9788 -0.1638
vn -0.0115 0.9799 -0.1992
vn 0.0095 0.9992 -0.0397
vn -0.1227 0.9788 -0.1638
vn -0.0064 0.9990 -0.0441
vn 0.1730 0.9849 -0.0047
vn 0.1652 0.9858 0.0299
vn 0.2010 0.9447 0.2591
vn 0.1654 0.9765 0.1380
vn -0.1602 0.8782 -0.4506
vn -0.1429 0.9225 -0.3586
vn -0.1608 0.9521 -0.2601
vn -0.0183 0.9948 0.0999
vn -0.0928 0.9284 0.3597
vn -0.0000 0.6889 -0.7248
vn 0.6146 0.4065 -0.6760
vn 0.6250 0.3945 -0.6737
vn 0.8911 0.0930 -0.4442
vn 0.8818 0.0598 -0.4679
vn 0.9957 -0.0035 -0.0921
vn 0.9953 -0.0083 -0.0966
vn 0.9772 0.0650 0.2024
vn 0.8686 0.1742 0.4638
vn 0.8576 0.1780 0.4825
vn 0.8341 0.0977 0.5429
vn 0.8309 0.0953 0.5481
vn 0.9770 0.0278 0.2115
vn 0.9794 0.0208 0.2007
vn 0.9991 -0.0013 -0.0413
vn 0.9986 0.0004 -0.0523
vn 0.9986 0.0001 -0.0525
vn 0.9998 0.0004 -0.0205
vn 0.9998 0.0003 -0.0204
vn 0.9940 -0.0149 0.1080
vn 0.9940 -0.0171 0.1085
vn 0.8462 -0.1149 0.5203
vn 0.6152 -0.1934 0.7643
vn -0.6146 0.4065 -0.6760
vn -0.0000 0.7494 -0.6622
vn -0.8911 0.0930 -0.4442
vn -0.6250 0.3945 -0.6737
vn -0.9957 -0.0035 -0.0921
vn -0.8818 0.0598 -0.4679
vn -0.9772 0.0650 0.2024
vn -0.8686 0.1742 0.4638
vn -0.9800 0.0549 0.1915
vn -0.8576 0.1780 0.4825
vn -0.8341 0.0977 0.5429
vn -0.9770 0.0278 0.2115
vn -0.8309 0.0953 0.5481
vn -0.9991 -0.0013 -0.0413
vn -0.9986 0.0004 -0.0523
vn -0.9991 -0.0012 -0.0413
vn -0.9998 0.0004 -0.0205
vn -0.9986 0.0001 -0.0525
vn -0.9940 -0.0149 0.1080
vn -0.9998 0.0003 -0.0204
vn -0.9940 -0.0171 0.1085
vn -0.8462 -0.1149 0.5203
vn 0.9800 0.0549 0.1915
vn -0.9953 -0.0083 -0.0966
vn 0.9991 -0.0012 -0.0413
vn -0.9794 0.0208 0.2007
vn -0.1355 0.8477 0.5128
vn -0.0000 0.6225 0.7826
vn -0.0299 0.9986 -0.0428
vn -0.0097 0.9908 0.1353
vn -0.2421 0.9459 -0.2159
vn -0.3121 0.8818 -0.3535
vn 0.1355 0.8477 0.5128
vn 0.0097 0.9908 0.1353
vn 0.0299 0.9986 -0.0428
vn 0.0064 0.9990 -0.0441
vn 0.2421 0.9459 -0.2159
vn 0.3121 0.8818 -0.3535
vn 0.1602 0.8782 -0.4506
vn -0.1654 0.9765 0.1380
vn -0.6152 -0.1934 0.7643
vt 0.000000 0.000000
s 1
f 1/1/1 27/1/2 13/1/3
f 28/1/4 13/1/3 27/1/2
f 29/1/5 14/1/6 28/1/4
f 37/1/7 16/1/8 24/1/9
f 30/1/10 17/1/11 16/1/8
f 31/1/12 18/1/13 17/1/11
f 34/1/14 21/1/15 20/1/16
f 35/1/17 22/1/18 21/1/15
f 33/1/19 26/1/20 38/1/21
f 12/1/22 36/1/23 11/1/24
f 34/1/14 19/1/25 33/1/19
f 29/1/5 24/1/9 15/1/26
f 38/1/21 18/1/13 32/1/27
f 7/1/13 38/1/21 32/1/27
f 23/1/28 29/1/5 4/1/29
f 8/1/30 34/1/14 33/1/19
f 25/1/31 33/1/19 38/1/21
f 11/1/24 35/1/17 10/1/32
f 10/1/32 34/1/14 9/1/33
f 7/1/13 31/1/12 6/1/34
f 6/1/34 30/1/10 5/1/35
f 5/1/35 37/1/7 23/1/28
f 3/1/36 29/1/5 28/1/4
f 2/1/37 28/1/4 27/1/2
f 51/1/38 65/1/39 39/1/40
f 52/1/41 66/1/42 65/1/39
f 74/1/43 54/1/44 67/1/45
f 67/1/45 55/1/46 68/1/47
f 89/1/48 56/1/49 69/1/50
f 58/1/51 72/1/52 71/1/53
f 72/1/52 60/1/54 73/1/55
f 64/1/56 70/1/57 75/1/58
f 50/1/59 73/1/55 60/1/54
f 57/1/60 71/1/53 70/1/57
f 66/1/42 62/1/61 74/1/43
f 56/1/49 75/1/58 69/1/50
f 45/1/62 75/1/58 63/1/63
f 66/1/42 61/1/64 42/1/65
f 46/1/66 71/1/53 47/1/67
f 63/1/63 70/1/57 46/1/66
f 72/1/52 49/1/68 48/1/69
f 47/1/67 72/1/52 48/1/69
f 89/1/48 45/1/62 82/1/70
f 67/1/45 44/1/71 43/1/72
f 74/1/43 43/1/72 61/1/64
f 41/1/73 66/1/42 42/1/65
f 40/1/74 65/1/39 41/1/73
f 1/1/75 77/1/76 2/1/77
f 3/1/78 77/1/76 78/1/79
f 4/1/80 78/1/79 79/1/81
f 23/1/82 81/1/83 5/1/84
f 5/1/84 82/1/85 6/1/86
f 7/1/87 82/1/85 45/1/88
f 25/1/89 46/1/90 8/1/91
f 9/1/92 46/1/90 47/1/93
f 10/1/94 47/1/93 48/1/95
f 11/1/24 48/1/95 49/1/96
f 12/1/22 49/1/96 50/1/97
f 1/1/75 83/1/98 76/1/99
f 14/1/100 83/1/98 13/1/101
f 15/1/102 84/1/103 14/1/100
f 24/1/104 87/1/105 86/1/106
f 16/1/107 88/1/108 87/1/105
f 18/1/109 88/1/108 17/1/110
f 26/1/111 57/1/112 64/1/113
f 20/1/114 57/1/112 19/1/115
f 21/1/116 58/1/117 20/1/114
f 22/1/18 59/1/118 21/1/116
f 12/1/22 60/1/119 22/1/18
f 4/1/80 80/1/120 23/1/82
f 15/1/102 86/1/106 85/1/121
f 25/1/89 45/1/88 63/1/122
f 26/1/111 56/1/123 18/1/109
f 39/1/40 77/1/124 76/1/125
f 41/1/73 77/1/124 40/1/74
f 41/1/73 79/1/126 78/1/127
f 43/1/72 80/1/128 61/1/64
f 44/1/71 81/1/129 43/1/72
f 39/1/40 83/1/130 51/1/38
f 52/1/41 83/1/130 84/1/131
f 52/1/41 85/1/132 53/1/133
f 54/1/44 86/1/134 87/1/135
f 55/1/46 87/1/135 88/1/136
f 55/1/46 89/1/48 68/1/47
f 61/1/64 79/1/126 42/1/65
f 62/1/61 85/1/132 86/1/134
f 44/1/71 89/1/48 82/1/70
f 1/1/1 2/1/37 27/1/2
f 28/1/4 14/1/6 13/1/3
f 29/1/5 15/1/26 14/1/6
f 37/1/7 30/1/10 16/1/8
f 30/1/10 31/1/12 17/1/11
f 31/1/12 32/1/27 18/1/13
f 34/1/14 35/1/17 21/1/15
f 35/1/17 36/1/23 22/1/18
f 33/1/19 19/1/25 26/1/20
f 12/1/22 22/1/18 36/1/23
f 34/1/14 20/1/16 19/1/25
f 29/1/5 37/1/7 24/1/9
f 38/1/21 26/1/20 18/1/13
f 7/1/13 25/1/31 38/1/21
f 23/1/28 37/1/7 29/1/5
f 8/1/30 9/1/33 34/1/14
f 25/1/31 8/1/30 33/1/19
f 11/1/24 36/1/23 35/1/17
f 10/1/32 35/1/17 34/1/14
f 7/1/13 32/1/27 31/1/12
f 6/1/34 31/1/12 30/1/10
f 5/1/35 30/1/10 37/1/7
f 3/1/36 4/1/29 29/1/5
f 2/1/37 3/1/36 28/1/4
f 51/1/38 52/1/41 65/1/39
f 52/1/41 53/1/133 66/1/42
f 74/1/43 62/1/61 54/1/44
f 67/1/45 54/1/44 55/1/46
f 89/1/48 88/1/136 56/1/49
f 58/1/51 59/1/137 72/1/52
f 72/1/52 59/1/137 60/1/54
f 64/1/56 57/1/60 70/1/57
f 50/1/59 49/1/68 73/1/55
f 57/1/60 58/1/51 71/1/53
f 66/1/42 53/1/133 62/1/61
f 56/1/49 64/1/56 75/1/58
f 45/1/62 69/1/50 75/1/58
f 66/1/42 74/1/43 61/1/64
f 46/1/66 70/1/57 71/1/53
f 63/1/63 75/1/58 70/1/57
f 72/1/52 73/1/55 49/1/68
f 47/1/67 71/1/53 72/1/52
f 89/1/48 69/1/50 45/1/62
f 67/1/45 68/1/47 44/1/71
f 74/1/43 67/1/45 43/1/72
f 41/1/73 65/1/39 66/1/42
f 40/1/74 39/1/40 65/1/39
f 1/1/75 76/1/99 77/1/76
f 3/1/78 2/1/77 77/1/76
f 4/1/80 3/1/78 78/1/79
f 23/1/82 80/1/120 81/1/83
f 5/1/84 81/1/83 82/1/85
f 7/1/87 6/1/86 82/1/85
f 25/1/89 63/1/122 46/1/90
f 9/1/92 8/1/91 46/1/90
f 10/1/94 9/1/92 47/1/93
f 11/1/24 10/1/94 48/1/95
f 12/1/22 11/1/24 49/1/96
f 1/1/75 13/1/101 83/1/98
f 14/1/100 84/1/103 83/1/98
f 15/1/102 85/1/121 84/1/103
f 24/1/104 16/1/107 87/1/105
f 16/1/107 17/1/110 88/1/108
f 18/1/109 56/1/123 88/1/108
f 26/1/111 19/1/115 57/1/112
f 20/1/114 58/1/117 57/1/112
f 21/1/116 59/1/118 58/1/117
f 22/1/18 60/1/119 59/1/118
f 12/1/22 50/1/138 60/1/119
f 4/1/80 79/1/81 80/1/120
f 15/1/102 24/1/104 86/1/106
f 25/1/89 7/1/87 45/1/88
f 26/1/111 64/1/113 56/1/123
f 39/1/40 40/1/74 77/1/124
f 41/1/73 78/1/127 77/1/124
f 41/1/73 42/1/65 79/1/126
f 43/1/72 81/1/129 80/1/128
f 44/1/71 82/1/70 81/1/129
f 39/1/40 76/1/125 83/1/130
f 52/1/41 51/1/38 83/1/130
f 52/1/41 84/1/131 85/1/132
f 54/1/44 62/1/61 86/1/134
f 55/1/46 54/1/44 87/1/135
f 55/1/46 88/1/136 89/1/48
f 61/1/64 80/1/128 79/1/126
f 62/1/61 53/1/133 85/1/132
f 44/1/71 68/1/47 89/1/48
