# Blender 4.0.2
# www.blender.org
mtllib PillBottle02.mtl
o PillBottle02
v 0.000000 0.105106 0.000000
v 0.029948 0.105106 0.000000
v 0.029948 0.090050 0.000000
v 0.025707 0.090050 0.000000
v 0.025463 0.003888 0.000000
v 0.020381 0.000488 -0.000000
v 0.000000 0.000000 0.000000
v 0.000000 0.105106 0.000000
v 0.021177 0.105106 -0.021177
v 0.021177 0.090050 -0.021177
v 0.018177 0.090050 -0.018177
v 0.018005 0.003888 -0.018005
v 0.014411 0.000488 -0.014411
v 0.000000 0.000000 0.000000
v 0.000000 0.105106 0.000000
v 0.000000 0.105106 -0.029948
v 0.000000 0.090050 -0.029948
v 0.000000 0.090050 -0.025707
v 0.000000 0.003888 -0.025463
v -0.000000 0.000488 -0.020381
v 0.000000 0.000000 0.000000
v 0.000000 0.105106 0.000000
v -0.021177 0.105106 -0.021177
v -0.021177 0.090050 -0.021177
v -0.018177 0.090050 -0.018177
v -0.018005 0.003888 -0.018005
v -0.014411 0.000488 -0.014411
v 0.000000 0.000000 0.000000
v 0.000000 0.105106 0.000000
v -0.029948 0.105106 -0.000000
v -0.029948 0.090050 -0.000000
v -0.025707 0.090050 -0.000000
v -0.025463 0.003888 0.000000
v -0.020381 0.000488 0.000000
v 0.000000 0.000000 0.000000
v 0.000000 0.105106 0.000000
v -0.021177 0.105106 0.021177
v -0.021177 0.090050 0.021177
v -0.018177 0.090050 0.018177
v -0.018005 0.003888 0.018005
v -0.014411 0.000488 0.014411
v 0.000000 0.000000 0.000000
v 0.000000 0.105106 0.000000
v -0.000000 0.105106 0.029948
v -0.000000 0.090050 0.029948
v -0.000000 0.090050 0.025707
v -0.000000 0.003888 0.025463
v 0.000000 0.000488 0.020381
v 0.000000 0.000000 0.000000
v 0.000000 0.105106 0.000000
v 0.021177 0.105106 0.021177
v 0.021177 0.090050 0.021177
v 0.018177 0.090050 0.018177
v 0.018005 0.003888 0.018005
v 0.014411 0.000488 0.014411
v 0.000000 0.000000 0.000000
vn -0.0000 1.0000 -0.0000
vn 0.7764 0.6303 -0.0000
vn 0.5490 0.6303 -0.5490
vn -0.0000 0.6303 -0.7764
vn -0.5490 0.6303 -0.5490
vn -0.7764 0.6303 -0.0000
vn -0.5490 0.6303 0.5490
vn -0.0000 0.6303 0.7764
vn 0.5490 0.6303 0.5490
vn 0.7764 -0.6303 -0.0000
vn 0.5490 -0.6303 -0.5490
vn -0.0000 -0.6303 -0.7764
vn -0.5490 -0.6303 -0.5490
vn -0.7764 -0.6303 -0.0000
vn -0.5490 -0.6303 0.5490
vn -0.0000 -0.6303 0.7764
vn 0.5490 -0.6303 0.5490
vn 0.5933 -0.8050 -0.0000
vn 0.4195 -0.8050 -0.4195
vn -0.0000 -0.8050 -0.5933
vn -0.4195 -0.8050 -0.4195
vn -0.5933 -0.8050 -0.0000
vn -0.4195 -0.8050 0.4195
vn -0.0000 -0.8050 0.5933
vn 0.4195 -0.8050 0.4195
vn 0.9027 -0.4303 -0.0000
vn 0.6383 -0.4303 -0.6383
vn -0.0000 -0.4303 -0.9027
vn -0.6383 -0.4303 -0.6383
vn -0.9027 -0.4303 -0.0000
vn -0.6383 -0.4303 0.6383
vn -0.0000 -0.4303 0.9027
vn 0.6383 -0.4303 0.6383
vn 0.3624 -0.9320 -0.0000
vn 0.2563 -0.9320 -0.2563
vn -0.0000 -0.9320 -0.3624
vn -0.2563 -0.9320 -0.2563
vn -0.3624 -0.9320 -0.0000
vn -0.2563 -0.9320 0.2563
vn -0.0000 -0.9320 0.3624
vn 0.2563 -0.9320 0.2563
vn 0.0240 -0.9997 -0.0000
vn 0.0169 -0.9997 -0.0169
vn -0.0000 -0.9997 -0.0240
vn -0.0169 -0.9997 -0.0169
vn -0.0240 -0.9997 -0.0000
vn -0.0169 -0.9997 0.0169
vn -0.0000 -0.9997 0.0240
vn 0.0169 -0.9997 0.0169
vt 0.000000 0.105106
vt 0.125000 0.105106
vt 0.250000 0.105106
vt 0.375000 0.105106
vt 0.500000 0.105106
vt 0.625000 0.105106
vt 0.750000 0.105106
vt 0.875000 0.105106
vt 1.000000 0.105106
vt 0.000000 0.090050
vt 0.125000 0.090050
vt 0.250000 0.090050
vt 0.375000 0.090050
vt 0.500000 0.090050
vt 0.625000 0.090050
vt 0.750000 0.090050
vt 0.875000 0.090050
vt 1.000000 0.090050
vt 0.000000 0.003888
vt 0.125000 0.003888
vt 0.250000 0.003888
vt 0.375000 0.003888
vt 0.500000 0.003888
vt 0.625000 0.003888
vt 0.750000 0.003888
vt 0.875000 0.003888
vt 1.000000 0.003888
vt 0.000000 0.000488
vt 0.125000 0.000488
vt 0.250000 0.000488
vt 0.375000 0.000488
vt 0.500000 0.000488
vt 0.625000 0.000488
vt 0.750000 0.000488
vt 0.875000 0.000488
vt 1.000000 0.000488
vt 0.000000 0.000000
vt 0.125000 0.000000
vt 0.250000 0.000000
vt 0.375000 0.000000
vt 0.500000 0.000000
vt 0.625000 0.000000
vt 0.750000 0.000000
vt 0.875000 0.000000
vt 1.000000 0.000000
s 1
f 1/1/1 2/1/2 9/2/3 8/2/1
f 8/2/1 9/2/3 16/3/4 15/3/1
f 15/3/1 16/3/4 23/4/5 22/4/1
f 22/4/1 23/4/5 30/5/6 29/5/1
f 29/5/1 30/5/6 37/6/7 36/6/1
f 36/6/1 37/6/7 44/7/8 43/7/1
f 43/7/1 44/7/8 51/8/9 50/8/1
f 50/8/1 51/8/9 2/9/2 1/9/1
f 2/1/2 3/10/10 10/11/11 9/2/3
f 9/2/3 10/11/11 17/12/12 16/3/4
f 16/3/4 17/12/12 24/13/13 23/4/5
f 23/4/5 24/13/13 31/14/14 30/5/6
f 30/5/6 31/14/14 38/15/15 37/6/7
f 37/6/7 38/15/15 45/16/16 44/7/8
f 44/7/8 45/16/16 52/17/17 51/8/9
f 51/8/9 52/17/17 3/18/10 2/9/2
f 3/10/10 4/10/18 11/11/19 10/11/11
f 10/11/11 11/11/19 18/12/20 17/12/12
f 17/12/12 18/12/20 25/13/21 24/13/13
f 24/13/13 25/13/21 32/14/22 31/14/14
f 31/14/14 32/14/22 39/15/23 38/15/15
f 38/15/15 39/15/23 46/16/24 45/16/16
f 45/16/16 46/16/24 53/17/25 52/17/17
f 52/17/17 53/17/25 4/18/18 3/18/10
f 4/10/18 5/19/26 12/20/27 11/11/19
f 11/11/19 12/20/27 19/21/28 18/12/20
f 18/12/20 19/21/28 26/22/29 25/13/21
f 25/13/21 26/22/29 33/23/30 32/14/22
f 32/14/22 33/23/30 40/24/31 39/15/23
f 39/15/23 40/24/31 47/25/32 46/16/24
f 46/16/24 47/25/32 54/26/33 53/17/25
f 53/17/25 54/26/33 5/27/26 4/18/18
f 5/19/26 6/28/34 13/29/35 12/20/27
f 12/20/27 13/29/35 20/30/36 19/21/28
f 19/21/28 20/30/36 27/31/37 26/22/29
f 26/22/29 27/31/37 34/32/38 33/23/30
f 33/23/30 34/32/38 41/33/39 40/24/31
f 40/24/31 41/33/39 48/34/40 47/25/32
f 47/25/32 48/34/40 55/35/41 54/26/33
f 54/26/33 55/35/41 6/36/34 5/27/26
f 6/28/34 7/37/42 14/38/43 13/29/35
f 13/29/35 14/38/43 21/39/44 20/30/36
f 20/30/36 21/39/44 28/40/45 27/31/37
f 27/31/37 28/40/45 35/41/46 34/32/38
f 34/32/38 35/41/46 42/42/47 41/33/39
f 41/33/39 42/42/47 49/43/48 48/34/40
f 48/34/40 49/43/48 56/44/49 55/35/41
f 55/35/41 56/44/49 7/45/42 6/36/34
o PillBottle02
v 0.000000 0.105106 0.000000
v 0.029948 0.105106 0.000000
v 0.029948 0.090050 0.000000
v 0.025707 0.090050 0.000000
v 0.025463 0.003888 0.000000
v 0.020381 0.000488 -0.000000
v 0.000000 0.000000 0.000000
v 0.000000 0.105106 0.000000
v 0.021177 0.105106 -0.021177
v 0.021177 0.090050 -0.021177
v 0.018177 0.090050 -0.018177
v 0.018005 0.003888 -0.018005
v 0.014411 0.000488 -0.014411
v 0.000000 0.000000 0.000000
v 0.000000 0.105106 0.000000
v 0.000000 0.105106 -0.029948
v 0.000000 0.090050 -0.029948
v 0.000000 0.090050 -0.025707
v 0.000000 0.003888 -0.025463
v -0.000000 0.000488 -0.020381
v 0.000000 0.000000 0.000000
v 0.000000 0.105106 0.000000
v -0.021177 0.105106 -0.021177
v -0.021177 0.090050 -0.021177
v -0.018177 0.090050 -0.018177
v -0.018005 0.003888 -0.018005
v -0.014411 0.000488 -0.014411
v 0.000000 0.000000 0.000000
v 0.000000 0.105106 0.000000
v -0.029948 0.105106 -0.000000
v -0.029948 0.090050 -0.000000
v -0.025707 0.090050 -0.000000
v -0.025463 0.003888 0.000000
v -0.020381 0.000488 0.000000
v 0.000000 0.000000 0.000000
v 0.000000 0.105106 0.000000
v -0.021177 0.105106 0.021177
v -0.021177 0.090050 0.021177
v -0.018177 0.090050 0.018177
v -0.018005 0.003888 0.018005
v -0.014411 0.000488 0.014411
v 0.000000 0.000000 0.000000
v 0.000000 0.105106 0.000000
v -0.000000 0.105106 0.029948
v -0.000000 0.090050 0.029948
v -0.000000 0.090050 0.025707
v -0.000000 0.003888 0.025463
v 0.000000 0.000488 0.020381
v 0.000000 0.000000 0.000000
v 0.000000 0.105106 0.000000
v 0.021177 0.105106 0.021177
v 0.021177 0.090050 0.021177
v 0.018177 0.090050 0.018177
v 0.018005 0.003888 0.018005
v 0.014411 0.000488 0.014411
v 0.000000 0.000000 0.000000
vn -0.0000 1.0000 -0.0000
vn 0.5489 0.6303 -0.5489
vn -0.0000 0.6303 -0.7763
vn -0.5489 0.6303 -0.5489
vn -0.7763 0.6303 -0.0000
vn -0.5489 0.6303 0.5489
vn -0.0000 0.6303 0.7763
vn 0.5489 0.6303 0.5489
vn 0.7763 0.6303 -0.0000
vn 0.7764 -0.6303 -0.0000
vn 0.5490 -0.6303 -0.5490
vn -0.0000 -0.6303 -0.7764
vn -0.5490 -0.6303 -0.5490
vn -0.7764 -0.6303 -0.0000
vn -0.5490 -0.6303 0.5490
vn -0.0000 -0.6303 0.7764
vn 0.5490 -0.6303 0.5490
vn 0.4195 -0.8050 -0.4195
vn -0.0000 -0.8050 -0.5933
vn -0.4195 -0.8050 -0.4195
vn -0.5933 -0.8050 -0.0000
vn -0.4195 -0.8050 0.4195
vn -0.0000 -0.8050 0.5933
vn 0.4195 -0.8050 0.4195
vn 0.9027 -0.4303 -0.0000
vn 0.5933 -0.8050 -0.0000
vn 0.6383 -0.4303 -0.6383
vn -0.0000 -0.4303 -0.9027
vn -0.6383 -0.4303 -0.6383
vn -0.9027 -0.4303 -0.0000
vn -0.6383 -0.4303 0.6383
vn -0.0000 -0.4303 0.9027
vn 0.6383 -0.4303 0.6383
vn 0.3624 -0.9320 -0.0000
vn 0.2563 -0.9320 -0.2563
vn -0.0000 -0.9320 -0.3624
vn -0.2563 -0.9320 -0.2563
vn -0.3624 -0.9320 -0.0000
vn -0.2563 -0.9320 0.2563
vn -0.0000 -0.9320 0.3624
vn 0.2563 -0.9320 0.2563
vn 0.0080 1.0000 -0.0033
vn 0.0033 1.0000 -0.0080
vn -0.0033 1.0000 -0.0080
vn -0.0080 1.0000 -0.0033
vn -0.0080 1.0000 0.0033
vn -0.0033 1.0000 0.0080
vn 0.0033 1.0000 0.0080
vn 0.0080 1.0000 0.0033
vt 0.000000 0.105106
vt 0.125000 0.105106
vt 0.250000 0.105106
vt 0.375000 0.105106
vt 0.500000 0.105106
vt 0.625000 0.105106
vt 0.750000 0.105106
vt 0.875000 0.105106
vt 1.000000 0.105106
vt 0.000000 0.090050
vt 0.125000 0.090050
vt 0.250000 0.090050
vt 0.375000 0.090050
vt 0.500000 0.090050
vt 0.625000 0.090050
vt 0.750000 0.090050
vt 0.875000 0.090050
vt 1.000000 0.090050
vt 0.000000 0.003888
vt 0.125000 0.003888
vt 0.250000 0.003888
vt 0.375000 0.003888
vt 0.500000 0.003888
vt 0.625000 0.003888
vt 0.750000 0.003888
vt 0.875000 0.003888
vt 0.000000 0.000488
vt 0.125000 0.000488
vt 0.250000 0.000488
vt 0.375000 0.000488
vt 0.500000 0.000488
vt 0.625000 0.000488
vt 0.750000 0.000488
vt 0.875000 0.000488
vt 1.000000 0.003888
vt 0.125000 0.000000
vt 0.250000 0.000000
vt 0.375000 0.000000
vt 0.500000 0.000000
vt 0.625000 0.000000
vt 0.750000 0.000000
vt 0.875000 0.000000
vt 1.000000 0.000000
vt 1.000000 0.000488
vt 0.000000 0.000000
s 1
f 57/46/50 65/47/51 64/47/50
f 64/47/50 72/48/52 71/48/50
f 71/48/50 79/49/53 78/49/50
f 78/49/50 86/50/54 85/50/50
f 85/50/50 93/51/55 92/51/50
f 92/51/50 100/52/56 99/52/50
f 99/52/50 107/53/57 106/53/50
f 106/53/50 58/54/58 57/54/50
f 59/55/59 65/47/51 58/46/58
f 66/56/60 72/48/52 65/47/51
f 73/57/61 79/49/53 72/48/52
f 80/58/62 86/50/54 79/49/53
f 87/59/63 93/51/55 86/50/54
f 94/60/64 100/52/56 93/51/55
f 101/61/65 107/53/57 100/52/56
f 108/62/66 58/54/58 107/53/57
f 59/55/59 67/56/67 66/56/60
f 66/56/60 74/57/68 73/57/61
f 73/57/61 81/58/69 80/58/62
f 80/58/62 88/59/70 87/59/63
f 87/59/63 95/60/71 94/60/64
f 94/60/64 102/61/72 101/61/65
f 101/61/65 109/62/73 108/62/66
f 109/62/73 59/63/59 108/62/66
f 61/64/74 67/56/67 60/55/75
f 68/65/76 74/57/68 67/56/67
f 75/66/77 81/58/69 74/57/68
f 82/67/78 88/59/70 81/58/69
f 89/68/79 95/60/71 88/59/70
f 96/69/80 102/61/72 95/60/71
f 103/70/81 109/62/73 102/61/72
f 110/71/82 60/63/75 109/62/73
f 62/72/83 68/65/76 61/64/74
f 69/73/84 75/66/77 68/65/76
f 76/74/85 82/67/78 75/66/77
f 83/75/86 89/68/79 82/67/78
f 90/76/87 96/69/80 89/68/79
f 97/77/88 103/70/81 96/69/80
f 104/78/89 110/71/82 103/70/81
f 111/79/90 61/80/74 110/71/82
f 62/72/83 70/81/91 69/73/84
f 69/73/84 77/82/92 76/74/85
f 76/74/85 84/83/93 83/75/86
f 83/75/86 91/84/94 90/76/87
f 90/76/87 98/85/95 97/77/88
f 97/77/88 105/86/96 104/78/89
f 104/78/89 112/87/97 111/79/90
f 111/79/90 63/88/98 62/89/83
f 57/46/50 58/46/58 65/47/51
f 64/47/50 65/47/51 72/48/52
f 71/48/50 72/48/52 79/49/53
f 78/49/50 79/49/53 86/50/54
f 85/50/50 86/50/54 93/51/55
f 92/51/50 93/51/55 100/52/56
f 99/52/50 100/52/56 107/53/57
f 106/53/50 107/53/57 58/54/58
f 59/55/59 66/56/60 65/47/51
f 66/56/60 73/57/61 72/48/52
f 73/57/61 80/58/62 79/49/53
f 80/58/62 87/59/63 86/50/54
f 87/59/63 94/60/64 93/51/55
f 94/60/64 101/61/65 100/52/56
f 101/61/65 108/62/66 107/53/57
f 108/62/66 59/63/59 58/54/58
f 59/55/59 60/55/75 67/56/67
f 66/56/60 67/56/67 74/57/68
f 73/57/61 74/57/68 81/58/69
f 80/58/62 81/58/69 88/59/70
f 87/59/63 88/59/70 95/60/71
f 94/60/64 95/60/71 102/61/72
f 101/61/65 102/61/72 109/62/73
f 109/62/73 60/63/75 59/63/59
f 61/64/74 68/65/76 67/56/67
f 68/65/76 75/66/77 74/57/68
f 75/66/77 82/67/78 81/58/69
f 82/67/78 89/68/79 88/59/70
f 89/68/79 96/69/80 95/60/71
f 96/69/80 103/70/81 102/61/72
f 103/70/81 110/71/82 109/62/73
f 110/71/82 61/80/74 60/63/75
f 62/72/83 69/73/84 68/65/76
f 69/73/84 76/74/85 75/66/77
f 76/74/85 83/75/86 82/67/78
f 83/75/86 90/76/87 89/68/79
f 90/76/87 97/77/88 96/69/80
f 97/77/88 104/78/89 103/70/81
f 104/78/89 111/79/90 110/71/82
f 111/79/90 62/89/83 61/80/74
f 62/72/83 63/90/98 70/81/91
f 69/73/84 70/81/91 77/82/92
f 76/74/85 77/82/92 84/83/93
f 83/75/86 84/83/93 91/84/94
f 90/76/87 91/84/94 98/85/95
f 97/77/88 98/85/95 105/86/96
f 104/78/89 105/86/96 112/87/97
f 111/79/90 112/87/97 63/88/98
