# Blender 4.0.2
# www.blender.org
mtllib RoomRug.mtl
o RoomRug
v -0.486402 0.061202 0.144160
v -0.483672 0.078759 0.139317
v -0.491353 0.000310 -0.236862
v -0.491035 0.016686 -0.237739
v 0.372652 0.000145 0.148542
v 0.372507 0.017770 0.148296
v 0.372376 0.000402 -0.238456
v 0.372111 0.017928 -0.238267
v -0.491328 0.000311 -0.188418
v -0.491233 0.001551 -0.139940
v -0.491028 0.005119 -0.091520
v -0.490557 0.011871 -0.043268
v -0.489426 0.021417 0.004481
v -0.488144 0.033234 0.051699
v -0.487065 0.048597 0.097984
v -0.485166 0.065013 0.093176
v -0.486755 0.050408 0.047341
v -0.487819 0.039222 0.000674
v -0.488725 0.029933 -0.046331
v -0.489388 0.023324 -0.093793
v -0.490059 0.018853 -0.141541
v -0.490407 0.017865 -0.189627
v 0.264394 0.000124 -0.238343
v 0.156425 0.000373 -0.238256
v 0.048451 0.000621 -0.238181
v -0.059539 0.000654 -0.238085
v -0.167542 0.000590 -0.237933
v -0.275523 0.000226 -0.237580
v -0.383456 0.000000 -0.237082
v -0.383240 0.017635 -0.236418
v -0.275348 0.017757 -0.235718
v -0.167425 0.017967 -0.235719
v -0.059508 0.018123 -0.235662
v 0.048407 0.018100 -0.235841
v 0.156316 0.017829 -0.236219
v 0.264218 0.017606 -0.236927
v 0.372597 0.000182 0.100146
v 0.372553 0.000476 0.051782
v 0.372522 0.000834 0.003419
v 0.372510 0.000856 -0.044946
v 0.372506 0.000863 -0.093318
v 0.372488 0.000872 -0.141697
v 0.372433 0.000510 -0.190074
v 0.371822 0.018098 -0.189931
v 0.371604 0.018518 -0.141618
v 0.371522 0.018524 -0.093306
v 0.371527 0.018521 -0.044990
v 0.371607 0.018478 0.003328
v 0.371841 0.017939 0.051647
v 0.372126 0.017687 0.099978
v -0.379914 0.047197 0.144739
v -0.274413 0.023660 0.147418
v -0.167407 0.007537 0.148812
v -0.059374 0.001327 0.148910
v 0.048642 0.000007 0.148781
v 0.156677 0.000036 0.148710
v 0.264666 0.000374 0.148660
v 0.264660 0.017872 0.146983
v 0.156824 0.017180 0.146611
v 0.049108 0.017282 0.146409
v -0.058361 0.018819 0.146008
v -0.165491 0.025412 0.144951
v -0.271636 0.041276 0.142924
v -0.376837 0.063172 0.139921
v 0.264643 0.005284 -0.190140
v 0.264684 0.003222 -0.141841
v 0.264725 0.002537 -0.093415
v 0.264775 0.002430 -0.044993
v 0.264834 0.002620 0.003430
v 0.264938 0.003294 0.051837
v 0.264916 0.005380 0.100247
v 0.156625 0.003625 -0.190006
v 0.156654 0.002117 -0.141670
v 0.156740 0.002148 -0.093293
v 0.156790 0.002152 -0.044891
v 0.156853 0.002125 0.003507
v 0.156925 0.001980 0.051889
v 0.156948 0.003301 0.100252
v 0.048600 0.003143 -0.189883
v 0.048670 0.001900 -0.141524
v 0.048729 0.002124 -0.093156
v 0.048795 0.002245 -0.044784
v 0.048858 0.002138 0.003587
v 0.048916 0.001884 0.051946
v 0.048966 0.002738 0.100305
v -0.059389 0.002965 -0.189752
v -0.059335 0.001807 -0.141392
v -0.059275 0.002015 -0.093028
v -0.059215 0.002095 -0.044662
v -0.059155 0.002103 0.003701
v -0.059093 0.001820 0.052065
v -0.059002 0.002964 0.100418
v -0.167362 0.003051 -0.189671
v -0.167344 0.001851 -0.141283
v -0.167289 0.001978 -0.092917
v -0.167230 0.001994 -0.044542
v -0.167162 0.001948 0.003836
v -0.167100 0.002259 0.052217
v -0.166899 0.006810 0.100319
v -0.275373 0.003373 -0.189594
v -0.275354 0.001969 -0.141197
v -0.275297 0.002022 -0.092810
v -0.275230 0.002081 -0.044421
v -0.275164 0.003282 0.003961
v -0.274805 0.009895 0.051863
v -0.273897 0.021409 0.098869
v -0.383320 0.004749 -0.189692
v -0.383297 0.003085 -0.141292
v -0.383251 0.003467 -0.092854
v -0.383044 0.007795 -0.044601
v -0.382236 0.016952 0.002958
v -0.380039 0.034077 0.048339
v -0.379217 0.044644 0.095425
v -0.383381 0.001832 -0.188774
v -0.383272 0.001685 -0.140365
v -0.383137 0.002472 -0.091980
v -0.382856 0.005740 -0.043739
v -0.381598 0.020796 0.002271
v -0.380235 0.034507 0.048835
v -0.379014 0.047456 0.096091
v -0.275435 0.001697 -0.189247
v -0.275338 0.001832 -0.140903
v -0.275191 0.001821 -0.092580
v -0.275079 0.001495 -0.044258
v -0.275216 0.002730 0.004065
v -0.275245 0.008505 0.052012
v -0.274863 0.015602 0.099758
v -0.167465 0.001640 -0.189549
v -0.167373 0.001886 -0.141175
v -0.167252 0.001932 -0.092805
v -0.167217 0.001934 -0.044439
v -0.167297 0.002133 0.003916
v -0.167392 0.002564 0.052252
v -0.167384 0.004770 0.100568
v -0.059489 0.001663 -0.189696
v -0.059409 0.001885 -0.141314
v -0.059313 0.001945 -0.092929
v -0.059312 0.001983 -0.044543
v -0.059361 0.002029 0.003833
v -0.059399 0.002293 0.052200
v -0.059396 0.002636 0.100577
v 0.048492 0.001700 -0.189802
v 0.048557 0.001842 -0.141416
v 0.048630 0.001933 -0.093031
v 0.048626 0.002225 -0.044644
v 0.048604 0.002012 0.003742
v 0.048595 0.002025 0.052123
v 0.048627 0.002338 0.100515
v 0.156479 0.001706 -0.189890
v 0.156531 0.001841 -0.141510
v 0.156579 0.001887 -0.093125
v 0.156577 0.001927 -0.044740
v 0.156576 0.001937 0.003641
v 0.156588 0.001937 0.052020
v 0.156633 0.002075 0.100401
v 0.264457 0.001652 -0.189984
v 0.264511 0.001794 -0.141600
v 0.264541 0.001802 -0.093217
v 0.264546 0.001882 -0.044838
v 0.264554 0.001904 0.003540
v 0.264579 0.001882 0.051918
v 0.264621 0.001709 0.100298
vn -0.9941 0.1085 -0.0090
vn -0.9964 0.0843 0.0001
vn -0.9967 0.0818 0.0002
vn 0.0041 0.0411 -0.9991
vn 0.0008 0.1021 -0.9948
vn 0.0030 0.0332 -0.9994
vn 0.9993 0.0364 0.0028
vn 0.9988 0.0483 0.0013
vn 0.9995 0.0325 0.0015
vn -0.0072 0.0925 0.9957
vn -0.0010 0.1202 0.9927
vn -0.0007 0.1223 0.9925
vn -0.0049 -0.9999 -0.0143
vn -0.0109 -0.9999 -0.0079
vn 0.0005 -0.9996 -0.0276
vn 0.1687 0.9360 -0.3091
vn 0.1848 0.9092 -0.3730
vn 0.1907 0.9312 -0.3107
vn -0.0715 0.9969 -0.0325
vn -0.0436 0.9735 -0.2246
vn 0.0010 1.0000 -0.0017
vn -0.0676 0.9864 -0.1498
vn -0.0067 0.9591 -0.2830
vn -0.0096 0.9870 -0.1603
vn 0.0057 0.9542 -0.2990
vn 0.0016 0.9866 -0.1634
vn 0.0331 0.9451 -0.3250
vn 0.0231 0.9831 -0.1818
vn 0.0870 0.9201 -0.3819
vn 0.1657 0.9349 -0.3138
vn 0.0789 0.9682 -0.2375
vn 0.1745 0.8958 -0.4088
vn -0.0479 0.9729 0.2263
vn -0.0760 0.9967 0.0284
vn -0.0030 1.0000 -0.0035
vn -0.0706 0.9868 0.1457
vn -0.1356 0.9908 0.0041
vn -0.0760 0.9971 0.0063
vn -0.1484 0.9889 0.0002
vn -0.0764 0.9971 -0.0008
vn -0.1483 0.9889 -0.0001
vn -0.0777 0.9970 -0.0073
vn -0.1428 0.9897 0.0030
vn -0.0775 0.9967 -0.0256
vn -0.1278 0.9918 0.0023
vn -0.0053 0.9868 0.1619
vn -0.0770 0.9967 0.0276
vn -0.0050 0.9999 0.0156
vn -0.0015 1.0000 -0.0004
vn -0.0020 1.0000 0.0016
vn -0.0059 0.9999 -0.0126
vn 0.0010 0.9552 0.2959
vn -0.0009 0.9857 0.1685
vn -0.0010 1.0000 -0.0032
vn -0.0003 1.0000 -0.0001
vn -0.0010 1.0000 0.0003
vn -0.0000 1.0000 0.0037
vn -0.0001 1.0000 -0.0068
vn 0.0014 0.9507 0.3100
vn 0.0001 0.9854 0.1703
vn -0.0004 0.9999 0.0101
vn -0.0014 0.9999 0.0106
vn -0.0008 1.0000 -0.0029
vn -0.0012 1.0000 -0.0009
vn -0.0011 1.0000 0.0030
vn 0.0066 0.9999 -0.0145
vn 0.0005 0.9498 0.3128
vn 0.0014 0.9857 0.1685
vn 0.0002 1.0000 -0.0017
vn 0.0022 1.0000 -0.0015
vn 0.0173 0.9998 -0.0108
vn 0.0001 0.9518 0.3068
vn 0.0060 0.9862 0.1656
vn 0.0010 0.9999 0.0115
vn 0.0143 0.9999 -0.0072
vn 0.0404 0.9989 -0.0241
vn 0.0861 0.9918 -0.0944
vn 0.1378 0.9742 -0.1789
vn 0.0494 0.9970 -0.0602
vn 0.0031 0.9560 0.2935
vn 0.0681 0.9865 0.1489
vn 0.0858 0.9963 0.0070
vn 0.0063 0.9999 0.0135
vn 0.0984 0.9940 -0.0482
vn 0.1181 0.9835 -0.1369
vn 0.1508 0.9530 -0.2628
vn 0.1769 0.9476 -0.2661
vn 0.0413 0.9728 0.2279
vn 0.0733 0.9972 0.0162
vn 0.1370 0.9893 -0.0503
vn 0.1779 0.9792 -0.0979
vn 0.2056 0.9646 -0.1651
vn 0.1850 0.9554 -0.2304
vn 0.1630 0.9523 -0.2579
vn -0.0422 -0.9680 0.2473
vn -0.1586 -0.9860 0.0513
vn -0.1272 -0.9564 0.2629
vn -0.1661 -0.9753 0.1458
vn -0.1528 -0.9796 0.1302
vn -0.0761 -0.9957 0.0530
vn -0.1665 -0.9744 0.1513
vn -0.0210 -0.9997 -0.0158
vn -0.1035 -0.9930 0.0569
vn -0.0098 -0.9999 -0.0088
vn -0.0025 -0.9990 -0.0454
vn -0.0021 -0.9998 -0.0205
vn -0.0017 -0.9992 -0.0410
vn -0.0026 -0.9998 -0.0194
vn 0.0096 -0.9999 0.0102
vn 0.0038 -0.9999 0.0153
vn 0.0094 -0.9999 0.0090
vn 0.0023 -1.0000 0.0074
vn -0.0080 -0.9991 0.0419
vn -0.0165 -0.9990 0.0409
vn -0.0357 -0.9947 0.0967
vn -0.0547 -0.9841 0.1690
vn -0.0553 -0.9842 0.1680
vn -0.0203 -0.9717 0.2354
vn -0.0931 -0.9542 0.2843
vn 0.0121 -0.9587 0.2841
vn -0.1256 -0.9546 0.2701
vn -0.0015 -0.9993 0.0369
vn -0.0000 -0.9999 0.0173
vn 0.0005 -1.0000 0.0009
vn -0.0007 -1.0000 -0.0018
vn -0.0132 -0.9998 0.0129
vn -0.0724 -0.9938 0.0843
vn -0.1355 -0.9803 0.1439
vn 0.0014 -0.9996 0.0292
vn 0.0006 -0.9999 0.0140
vn 0.0002 -1.0000 0.0028
vn 0.0014 -1.0000 0.0014
vn -0.0018 -1.0000 0.0077
vn -0.0312 -0.9988 0.0389
vn 0.0019 -0.9998 0.0216
vn 0.0003 -0.9999 0.0128
vn -0.0000 -1.0000 0.0028
vn 0.0006 -1.0000 0.0006
vn 0.0008 -1.0000 0.0005
vn -0.0007 -1.0000 0.0031
vn -0.0023 -1.0000 0.0065
vn 0.0004 -0.9998 0.0210
vn -0.0005 -0.9999 0.0130
vn -0.0001 -1.0000 0.0024
vn 0.0004 -1.0000 0.0014
vn -0.0003 -1.0000 0.0008
vn -0.0000 -1.0000 -0.0017
vn -0.0015 -1.0000 0.0035
vn -0.0014 -0.9996 0.0269
vn -0.0013 -0.9998 0.0223
vn -0.0006 -0.9999 0.0155
vn -0.0004 -1.0000 0.0019
vn -0.0006 -1.0000 0.0036
vn -0.0011 -1.0000 0.0009
vn -0.0009 -1.0000 -0.0002
vn -0.0012 -1.0000 0.0010
vn 0.0008 -0.9995 0.0311
vn -0.0031 -0.9999 0.0153
vn -0.0048 -1.0000 0.0008
vn -0.0005 -1.0000 0.0009
vn -0.0051 -1.0000 0.0009
vn -0.0057 -1.0000 -0.0005
vn -0.0069 -1.0000 -0.0021
vn -0.0070 -0.9999 0.0101
vn -0.0098 -0.9999 0.0043
vn -0.0049 -1.0000 0.0018
vn -0.0086 -1.0000 -0.0001
vn -0.0092 -1.0000 -0.0001
vn -0.0098 -0.9999 -0.0038
vn -0.0119 -0.9999 -0.0058
vn -0.0137 -0.9999 -0.0031
vn -0.0002 0.0223 0.9998
vn 0.0011 0.0139 0.9999
vn -0.0007 0.1353 0.9908
vn -0.0003 0.1375 0.9905
vn 0.0015 0.1622 0.9868
vn 0.0023 0.1661 0.9861
vn 0.0144 0.2091 0.9778
vn 0.0150 0.2096 0.9777
vn 0.0237 0.2417 0.9701
vn 0.0240 0.2456 0.9691
vn 0.0332 0.2794 0.9596
vn 0.9997 0.0248 -0.0036
vn 0.9999 0.0123 -0.0026
vn 1.0000 0.0082 -0.0011
vn 0.9998 0.0194 0.0004
vn 0.9999 0.0151 -0.0012
vn 0.9987 0.0506 0.0021
vn 0.9985 0.0550 0.0006
vn 0.9985 0.0556 -0.0008
vn 0.9985 0.0551 -0.0007
vn 0.9986 0.0522 -0.0024
vn 0.9987 0.0506 -0.0018
vn 0.9991 0.0419 -0.0034
vn 0.9992 0.0392 -0.0025
vn 0.9996 0.0284 -0.0049
vn -0.0061 0.0771 -0.9970
vn -0.0023 0.0179 -0.9998
vn -0.0011 0.0108 -0.9999
vn -0.0007 -0.0442 -0.9990
vn -0.0022 -0.0534 -0.9986
vn 0.0015 0.1067 -0.9943
vn -0.0010 0.1253 -0.9921
vn -0.0008 0.1270 -0.9919
vn -0.0007 0.1366 -0.9906
vn -0.0020 0.1330 -0.9911
vn -0.0019 0.1319 -0.9913
vn -0.0035 0.1168 -0.9932
vn -0.0031 0.1141 -0.9935
vn -0.0069 0.0825 -0.9966
vn -0.9988 0.0492 0.0045
vn -0.9996 0.0272 0.0099
vn -0.9985 0.0543 0.0028
vn -0.9898 0.1415 -0.0134
vn -0.9931 0.1170 -0.0086
vn -0.9960 0.0895 0.0027
vn -0.9958 0.0919 0.0031
vn -0.9952 0.0984 -0.0001
vn -0.9949 0.1008 -0.0005
vn -0.9959 0.0909 -0.0011
vn -0.9962 0.0874 0.0006
vn -0.9975 0.0705 0.0028
vn -0.9978 0.0664 0.0045
vn 0.0298 0.2637 0.9642
vn 0.0292 0.2616 0.9647
vn -0.0080 0.0954 0.9954
vn 0.1399 0.9477 -0.2869
vn -0.0085 0.9997 -0.0244
vn -0.0085 -1.0000 0.0037
vn 0.0336 0.2826 0.9586
vn 0.9985 0.0556 0.0008
vn -0.0006 0.1374 -0.9905
vn -0.9997 0.0201 0.0125
vn -0.9886 0.1502 -0.0127
vt 0.375000 0.031250
vt 0.625000 0.062500
vt 0.375000 0.062500
vt 0.625000 0.281250
vt 0.375000 0.312500
vt 0.375000 0.281250
vt 0.625000 0.531250
vt 0.375000 0.562500
vt 0.375000 0.531250
vt 0.375000 0.781250
vt 0.625000 0.812500
vt 0.375000 0.812500
vt 0.343750 0.718750
vt 0.375000 0.750000
vt 0.343750 0.750000
vt 0.875000 0.718750
vt 0.843750 0.750000
vt 0.843750 0.718750
vt 0.625000 0.718750
vt 0.656250 0.750000
vt 0.625000 0.750000
vt 0.656250 0.718750
vt 0.687500 0.750000
vt 0.687500 0.718750
vt 0.718750 0.750000
vt 0.718750 0.718750
vt 0.750000 0.750000
vt 0.750000 0.718750
vt 0.781250 0.750000
vt 0.812500 0.718750
vt 0.781250 0.718750
vt 0.812500 0.750000
vt 0.656250 0.500000
vt 0.625000 0.500000
vt 0.656250 0.531250
vt 0.625000 0.562500
vt 0.656250 0.593750
vt 0.625000 0.593750
vt 0.656250 0.625000
vt 0.625000 0.625000
vt 0.656250 0.656250
vt 0.625000 0.656250
vt 0.656250 0.687500
vt 0.625000 0.687500
vt 0.687500 0.531250
vt 0.656250 0.562500
vt 0.687500 0.562500
vt 0.687500 0.593750
vt 0.687500 0.656250
vt 0.687500 0.687500
vt 0.687500 0.500000
vt 0.718750 0.531250
vt 0.718750 0.593750
vt 0.718750 0.625000
vt 0.687500 0.625000
vt 0.718750 0.656250
vt 0.718750 0.687500
vt 0.718750 0.500000
vt 0.750000 0.531250
vt 0.750000 0.562500
vt 0.718750 0.562500
vt 0.750000 0.593750
vt 0.750000 0.625000
vt 0.750000 0.656250
vt 0.750000 0.687500
vt 0.750000 0.500000
vt 0.781250 0.531250
vt 0.781250 0.593750
vt 0.781250 0.625000
vt 0.781250 0.656250
vt 0.781250 0.500000
vt 0.812500 0.531250
vt 0.781250 0.562500
vt 0.812500 0.593750
vt 0.812500 0.625000
vt 0.812500 0.656250
vt 0.812500 0.687500
vt 0.781250 0.687500
vt 0.812500 0.500000
vt 0.843750 0.531250
vt 0.843750 0.562500
vt 0.812500 0.562500
vt 0.843750 0.593750
vt 0.843750 0.625000
vt 0.843750 0.656250
vt 0.843750 0.687500
vt 0.843750 0.500000
vt 0.875000 0.531250
vt 0.875000 0.562500
vt 0.875000 0.593750
vt 0.875000 0.625000
vt 0.875000 0.656250
vt 0.875000 0.687500
vt 0.125000 0.718750
vt 0.156250 0.750000
vt 0.125000 0.750000
vt 0.187500 0.718750
vt 0.156250 0.718750
vt 0.218750 0.718750
vt 0.187500 0.750000
vt 0.250000 0.750000
vt 0.218750 0.750000
vt 0.250000 0.718750
vt 0.281250 0.750000
vt 0.281250 0.718750
vt 0.312500 0.750000
vt 0.312500 0.718750
vt 0.125000 0.500000
vt 0.156250 0.531250
vt 0.125000 0.531250
vt 0.156250 0.562500
vt 0.125000 0.562500
vt 0.156250 0.593750
vt 0.125000 0.593750
vt 0.156250 0.625000
vt 0.125000 0.625000
vt 0.125000 0.656250
vt 0.156250 0.656250
vt 0.125000 0.687500
vt 0.156250 0.687500
vt 0.156250 0.500000
vt 0.187500 0.531250
vt 0.187500 0.562500
vt 0.187500 0.593750
vt 0.187500 0.625000
vt 0.187500 0.656250
vt 0.187500 0.687500
vt 0.187500 0.500000
vt 0.218750 0.531250
vt 0.218750 0.562500
vt 0.218750 0.625000
vt 0.218750 0.656250
vt 0.218750 0.687500
vt 0.218750 0.500000
vt 0.250000 0.531250
vt 0.250000 0.562500
vt 0.218750 0.593750
vt 0.250000 0.625000
vt 0.250000 0.656250
vt 0.250000 0.687500
vt 0.250000 0.500000
vt 0.281250 0.531250
vt 0.281250 0.562500
vt 0.250000 0.593750
vt 0.281250 0.625000
vt 0.281250 0.656250
vt 0.281250 0.687500
vt 0.312500 0.500000
vt 0.281250 0.500000
vt 0.312500 0.531250
vt 0.312500 0.562500
vt 0.281250 0.593750
vt 0.312500 0.625000
vt 0.312500 0.656250
vt 0.312500 0.687500
vt 0.343750 0.500000
vt 0.343750 0.531250
vt 0.343750 0.593750
vt 0.312500 0.593750
vt 0.343750 0.625000
vt 0.343750 0.656250
vt 0.343750 0.687500
vt 0.375000 0.500000
vt 0.343750 0.562500
vt 0.375000 0.593750
vt 0.375000 0.625000
vt 0.375000 0.656250
vt 0.375000 0.687500
vt 0.375000 0.718750
vt 0.625000 0.843750
vt 0.375000 0.843750
vt 0.625000 0.875000
vt 0.375000 0.875000
vt 0.625000 0.906250
vt 0.375000 0.906250
vt 0.375000 0.937500
vt 0.625000 0.937500
vt 0.375000 0.968750
vt 0.375000 0.468750
vt 0.625000 0.250000
vt 0.375000 0.250000
vt 0.625000 0.312500
vt 0.375000 0.343750
vt 0.625000 0.343750
vt 0.375000 0.375000
vt 0.625000 0.406250
vt 0.375000 0.406250
vt 0.625000 0.437500
vt 0.375000 0.437500
vt 0.625000 0.468750
vt 0.625000 0.218750
vt 0.375000 0.218750
vt 0.375000 0.000000
vt 0.625000 0.031250
vt 0.625000 0.093750
vt 0.375000 0.093750
vt 0.625000 0.125000
vt 0.375000 0.125000
vt 0.375000 0.156250
vt 0.625000 0.156250
vt 0.375000 0.187500
vt 0.625000 0.187500
vt 0.625000 1.000000
vt 0.375000 1.000000
vt 0.625000 0.781250
vt 0.875000 0.750000
vt 0.875000 0.500000
vt 0.625000 0.968750
vt 0.625000 0.375000
vt 0.625000 0.000000
s 1
f 15/1/1 17/2/2 14/3/3
f 30/4/4 28/5/5 29/6/6
f 44/7/7 42/8/8 43/9/9
f 57/10/10 59/11/11 56/12/12
f 162/13/13 5/14/14 57/15/15
f 16/16/16 64/17/17 113/18/18
f 50/19/19 58/20/20 6/21/21
f 71/22/22 59/23/23 58/20/20
f 78/24/24 60/25/25 59/23/23
f 85/26/26 61/27/27 60/25/25
f 92/28/28 62/29/29 61/27/27
f 106/30/30 62/29/29 99/31/31
f 113/18/18 63/32/32 106/30/30
f 36/33/33 44/7/34 8/34/35
f 65/35/36 45/36/37 44/7/34
f 45/36/37 67/37/38 46/38/39
f 46/38/39 68/39/40 47/40/41
f 47/40/41 69/41/42 48/42/43
f 48/42/43 70/43/44 49/44/45
f 49/44/45 71/22/22 50/19/19
f 36/33/33 72/45/46 65/35/36
f 72/45/46 66/46/47 65/35/36
f 73/47/48 67/37/38 66/46/47
f 74/48/49 68/39/40 67/37/38
f 68/39/40 76/49/50 69/41/42
f 69/41/42 77/50/51 70/43/44
f 70/43/44 78/24/24 71/22/22
f 35/51/52 79/52/53 72/45/46
f 79/52/53 73/47/48 72/45/46
f 73/47/48 81/53/54 74/48/49
f 74/48/49 82/54/55 75/55/56
f 75/55/56 83/56/57 76/49/50
f 76/49/50 84/57/58 77/50/51
f 77/50/51 85/26/26 78/24/24
f 34/58/59 86/59/60 79/52/53
f 79/52/53 87/60/61 80/61/62
f 80/61/62 88/62/63 81/53/54
f 81/53/54 89/63/64 82/54/55
f 82/54/55 90/64/65 83/56/57
f 83/56/57 91/65/66 84/57/58
f 84/57/58 92/28/28 85/26/26
f 33/66/67 93/67/68 86/59/60
f 93/67/68 87/60/61 86/59/60
f 87/60/61 95/68/69 88/62/63
f 88/62/63 96/69/70 89/63/64
f 89/63/64 97/70/71 90/64/65
f 97/70/71 91/65/66 90/64/65
f 91/65/66 99/31/31 92/28/28
f 32/71/72 100/72/73 93/67/68
f 100/72/73 94/73/74 93/67/68
f 94/73/74 102/74/75 95/68/69
f 95/68/69 103/75/76 96/69/70
f 96/69/70 104/76/77 97/70/71
f 97/70/71 105/77/78 98/78/79
f 98/78/79 106/30/30 99/31/31
f 31/79/80 107/80/81 100/72/73
f 100/72/73 108/81/82 101/82/83
f 101/82/83 109/83/84 102/74/75
f 102/74/75 110/84/85 103/75/76
f 103/75/76 111/85/86 104/76/77
f 104/76/77 112/86/87 105/77/78
f 112/86/87 106/30/30 105/77/78
f 30/87/88 22/88/89 107/80/81
f 107/80/81 21/89/90 108/81/82
f 108/81/82 20/90/91 109/83/84
f 20/90/91 110/84/85 109/83/84
f 19/91/92 111/85/86 110/84/85
f 18/92/93 112/86/87 111/85/86
f 17/93/94 113/18/18 112/86/87
f 15/94/95 51/95/96 1/96/97
f 127/97/98 51/95/96 120/98/99
f 134/99/100 52/100/101 127/97/98
f 134/99/100 54/101/102 53/102/103
f 141/103/104 55/104/105 54/101/102
f 148/105/106 56/106/107 55/104/105
f 162/13/13 56/106/107 155/107/108
f 3/108/109 114/109/110 9/110/111
f 9/110/111 115/111/112 10/112/113
f 10/112/113 116/113/114 11/114/115
f 11/114/115 117/115/116 12/116/117
f 117/115/116 13/117/118 12/116/117
f 118/118/119 14/119/120 13/117/118
f 119/120/121 15/94/95 14/119/120
f 29/121/122 121/122/123 114/109/110
f 114/109/110 122/123/124 115/111/112
f 115/111/112 123/124/125 116/113/114
f 116/113/114 124/125/126 117/115/116
f 117/115/116 125/126/127 118/118/119
f 118/118/119 126/127/128 119/120/121
f 119/120/121 127/97/98 120/98/99
f 28/128/129 128/129/130 121/122/123
f 121/122/123 129/130/131 122/123/124
f 129/130/131 123/124/125 122/123/124
f 123/124/125 131/131/132 124/125/126
f 124/125/126 132/132/133 125/126/127
f 125/126/127 133/133/134 126/127/128
f 133/133/134 127/97/98 126/127/128
f 27/134/135 135/135/136 128/129/130
f 135/135/136 129/130/131 128/129/130
f 136/136/137 130/137/138 129/130/131
f 130/137/138 138/138/139 131/131/132
f 131/131/132 139/139/140 132/132/133
f 132/132/133 140/140/141 133/133/134
f 133/133/134 141/103/104 134/99/100
f 26/141/142 142/142/143 135/135/136
f 142/142/143 136/136/137 135/135/136
f 143/143/144 137/144/145 136/136/137
f 137/144/145 145/145/146 138/138/139
f 138/138/139 146/146/147 139/139/140
f 139/139/140 147/147/148 140/140/141
f 140/140/141 148/105/106 141/103/104
f 24/148/149 142/142/143 25/149/150
f 149/150/151 143/143/144 142/142/143
f 150/151/152 144/152/153 143/143/144
f 144/152/153 152/153/154 145/145/146
f 145/145/146 153/154/155 146/146/147
f 146/146/147 154/155/156 147/147/148
f 147/147/148 155/107/108 148/105/106
f 23/156/157 149/150/151 24/148/149
f 156/157/158 150/151/152 149/150/151
f 150/151/152 158/158/159 151/159/160
f 151/159/160 159/160/161 152/153/154
f 152/153/154 160/161/162 153/154/155
f 153/154/155 161/162/163 154/155/156
f 154/155/156 162/13/13 155/107/108
f 7/163/164 156/157/158 23/156/157
f 43/9/165 157/164/166 156/157/158
f 157/164/166 41/165/167 158/158/159
f 158/158/159 40/166/168 159/160/161
f 159/160/161 39/167/169 160/161/162
f 160/161/162 38/168/170 161/162/163
f 161/162/163 37/169/171 162/13/13
f 6/21/172 57/10/10 5/14/173
f 56/12/12 60/170/174 55/171/175
f 55/171/175 61/172/176 54/173/177
f 54/173/177 62/174/178 53/175/179
f 62/174/178 52/176/180 53/175/179
f 63/177/181 51/178/182 52/176/180
f 37/169/183 6/21/184 5/14/185
f 8/34/186 43/9/9 7/163/187
f 45/36/188 41/165/189 42/8/8
f 41/165/189 47/40/190 40/166/191
f 40/166/191 48/42/192 39/167/193
f 39/167/193 49/44/194 38/168/195
f 38/168/195 50/19/196 37/169/183
f 23/179/197 8/34/198 7/163/199
f 4/180/200 29/6/6 3/181/201
f 31/182/202 27/183/203 28/5/5
f 32/184/204 26/185/205 27/183/203
f 26/185/205 34/186/206 25/187/207
f 25/187/207 35/188/208 24/189/209
f 24/189/209 36/190/210 23/179/197
f 22/191/211 3/181/212 9/192/213
f 1/193/214 16/194/215 15/1/1
f 14/3/3 18/195/216 13/196/217
f 13/196/217 19/197/218 12/198/219
f 19/197/218 11/199/220 12/198/219
f 20/200/221 10/201/222 11/199/220
f 21/202/223 9/192/213 10/201/222
f 51/178/182 2/203/224 1/204/225
f 15/1/1 16/194/215 17/2/2
f 30/4/4 31/182/202 28/5/5
f 44/7/7 45/36/188 42/8/8
f 57/10/10 58/205/226 59/11/11
f 162/13/13 37/169/171 5/14/14
f 16/16/16 2/206/227 64/17/17
f 50/19/19 71/22/22 58/20/20
f 71/22/22 78/24/24 59/23/23
f 78/24/24 85/26/26 60/25/25
f 85/26/26 92/28/28 61/27/27
f 92/28/28 99/31/31 62/29/29
f 106/30/30 63/32/32 62/29/29
f 113/18/18 64/17/17 63/32/32
f 36/33/33 65/35/36 44/7/34
f 65/35/36 66/46/47 45/36/37
f 45/36/37 66/46/47 67/37/38
f 46/38/39 67/37/38 68/39/40
f 47/40/41 68/39/40 69/41/42
f 48/42/43 69/41/42 70/43/44
f 49/44/45 70/43/44 71/22/22
f 36/33/33 35/51/52 72/45/46
f 72/45/46 73/47/48 66/46/47
f 73/47/48 74/48/49 67/37/38
f 74/48/49 75/55/56 68/39/40
f 68/39/40 75/55/56 76/49/50
f 69/41/42 76/49/50 77/50/51
f 70/43/44 77/50/51 78/24/24
f 35/51/52 34/58/59 79/52/53
f 79/52/53 80/61/62 73/47/48
f 73/47/48 80/61/62 81/53/54
f 74/48/49 81/53/54 82/54/55
f 75/55/56 82/54/55 83/56/57
f 76/49/50 83/56/57 84/57/58
f 77/50/51 84/57/58 85/26/26
f 34/58/59 33/66/67 86/59/60
f 79/52/53 86/59/60 87/60/61
f 80/61/62 87/60/61 88/62/63
f 81/53/54 88/62/63 89/63/64
f 82/54/55 89/63/64 90/64/65
f 83/56/57 90/64/65 91/65/66
f 84/57/58 91/65/66 92/28/28
f 33/66/67 32/71/72 93/67/68
f 93/67/68 94/73/74 87/60/61
f 87/60/61 94/73/74 95/68/69
f 88/62/63 95/68/69 96/69/70
f 89/63/64 96/69/70 97/70/71
f 97/70/71 98/78/79 91/65/66
f 91/65/66 98/78/79 99/31/31
f 32/71/72 31/79/80 100/72/73
f 100/72/73 101/82/83 94/73/74
f 94/73/74 101/82/83 102/74/75
f 95/68/69 102/74/75 103/75/76
f 96/69/70 103/75/76 104/76/77
f 97/70/71 104/76/77 105/77/78
f 98/78/79 105/77/78 106/30/30
f 31/79/80 30/87/88 107/80/81
f 100/72/73 107/80/81 108/81/82
f 101/82/83 108/81/82 109/83/84
f 102/74/75 109/83/84 110/84/85
f 103/75/76 110/84/85 111/85/86
f 104/76/77 111/85/86 112/86/87
f 112/86/87 113/18/18 106/30/30
f 30/87/88 4/207/228 22/88/89
f 107/80/81 22/88/89 21/89/90
f 108/81/82 21/89/90 20/90/91
f 20/90/91 19/91/92 110/84/85
f 19/91/92 18/92/93 111/85/86
f 18/92/93 17/93/94 112/86/87
f 17/93/94 16/16/16 113/18/18
f 15/94/95 120/98/99 51/95/96
f 127/97/98 52/100/101 51/95/96
f 134/99/100 53/102/103 52/100/101
f 134/99/100 141/103/104 54/101/102
f 141/103/104 148/105/106 55/104/105
f 148/105/106 155/107/108 56/106/107
f 162/13/13 57/15/15 56/106/107
f 3/108/109 29/121/122 114/109/110
f 9/110/111 114/109/110 115/111/112
f 10/112/113 115/111/112 116/113/114
f 11/114/115 116/113/114 117/115/116
f 117/115/116 118/118/119 13/117/118
f 118/118/119 119/120/121 14/119/120
f 119/120/121 120/98/99 15/94/95
f 29/121/122 28/128/129 121/122/123
f 114/109/110 121/122/123 122/123/124
f 115/111/112 122/123/124 123/124/125
f 116/113/114 123/124/125 124/125/126
f 117/115/116 124/125/126 125/126/127
f 118/118/119 125/126/127 126/127/128
f 119/120/121 126/127/128 127/97/98
f 28/128/129 27/134/135 128/129/130
f 121/122/123 128/129/130 129/130/131
f 129/130/131 130/137/138 123/124/125
f 123/124/125 130/137/138 131/131/132
f 124/125/126 131/131/132 132/132/133
f 125/126/127 132/132/133 133/133/134
f 133/133/134 134/99/100 127/97/98
f 27/134/135 26/141/142 135/135/136
f 135/135/136 136/136/137 129/130/131
f 136/136/137 137/144/145 130/137/138
f 130/137/138 137/144/145 138/138/139
f 131/131/132 138/138/139 139/139/140
f 132/132/133 139/139/140 140/140/141
f 133/133/134 140/140/141 141/103/104
f 26/141/142 25/149/150 142/142/143
f 142/142/143 143/143/144 136/136/137
f 143/143/144 144/152/153 137/144/145
f 137/144/145 144/152/153 145/145/146
f 138/138/139 145/145/146 146/146/147
f 139/139/140 146/146/147 147/147/148
f 140/140/141 147/147/148 148/105/106
f 24/148/149 149/150/151 142/142/143
f 149/150/151 150/151/152 143/143/144
f 150/151/152 151/159/160 144/152/153
f 144/152/153 151/159/160 152/153/154
f 145/145/146 152/153/154 153/154/155
f 146/146/147 153/154/155 154/155/156
f 147/147/148 154/155/156 155/107/108
f 23/156/157 156/157/158 149/150/151
f 156/157/158 157/164/166 150/151/152
f 150/151/152 157/164/166 158/158/159
f 151/159/160 158/158/159 159/160/161
f 152/153/154 159/160/161 160/161/162
f 153/154/155 160/161/162 161/162/163
f 154/155/156 161/162/163 162/13/13
f 7/163/164 43/9/165 156/157/158
f 43/9/165 42/8/229 157/164/166
f 157/164/166 42/8/229 41/165/167
f 158/158/159 41/165/167 40/166/168
f 159/160/161 40/166/168 39/167/169
f 160/161/162 39/167/169 38/168/170
f 161/162/163 38/168/170 37/169/171
f 6/21/172 58/205/226 57/10/10
f 56/12/12 59/11/11 60/170/174
f 55/171/175 60/170/174 61/172/176
f 54/173/177 61/172/176 62/174/178
f 62/174/178 63/177/181 52/176/180
f 63/177/181 64/208/230 51/178/182
f 37/169/183 50/19/196 6/21/184
f 8/34/186 44/7/7 43/9/9
f 45/36/188 46/38/231 41/165/189
f 41/165/189 46/38/231 47/40/190
f 40/166/191 47/40/190 48/42/192
f 39/167/193 48/42/192 49/44/194
f 38/168/195 49/44/194 50/19/196
f 23/179/197 36/190/210 8/34/198
f 4/180/200 30/4/4 29/6/6
f 31/182/202 32/184/204 27/183/203
f 32/184/204 33/209/232 26/185/205
f 26/185/205 33/209/232 34/186/206
f 25/187/207 34/186/206 35/188/208
f 24/189/209 35/188/208 36/190/210
f 22/191/211 4/180/233 3/181/212
f 1/193/214 2/210/234 16/194/215
f 14/3/3 17/2/2 18/195/216
f 13/196/217 18/195/216 19/197/218
f 19/197/218 20/200/221 11/199/220
f 20/200/221 21/202/223 10/201/222
f 21/202/223 22/191/211 9/192/213
f 51/178/182 64/208/230 2/203/224
