# Blender 4.0.2
# www.blender.org
mtllib Flashlight02.mtl
o Flashlight.003
v 0.057663 -0.002518 -0.074639
v 0.059652 0.007482 -0.084639
v 0.083695 -0.002518 -0.048607
v 0.093695 0.007482 -0.050596
v 0.076070 -0.002518 -0.067014
v 0.083724 0.007482 -0.074668
v 0.083695 0.184871 -0.048607
v 0.093695 0.174871 -0.050596
v 0.057663 0.184871 -0.074639
v 0.059652 0.174871 -0.084639
v 0.076070 0.184871 -0.067014
v 0.083724 0.174871 -0.074668
v 0.083695 -0.002518 0.042387
v 0.093695 0.007482 0.044376
v 0.057663 -0.002518 0.068419
v 0.059652 0.007482 0.078419
v 0.076070 -0.002518 0.060794
v 0.083724 0.007482 0.068448
v 0.057663 0.184871 0.068419
v 0.059652 0.174871 0.078419
v 0.083695 0.184871 0.042387
v 0.093695 0.174871 0.044376
v 0.076070 0.184871 0.060794
v 0.083724 0.174871 0.068448
v -0.083695 -0.002518 -0.048607
v -0.093695 0.007482 -0.050596
v -0.057663 -0.002518 -0.074639
v -0.059652 0.007482 -0.084639
v -0.076070 -0.002518 -0.067014
v -0.083724 0.007482 -0.074668
v -0.057663 0.184871 -0.074639
v -0.059652 0.174871 -0.084639
v -0.083695 0.184871 -0.048607
v -0.093695 0.174871 -0.050596
v -0.076070 0.184871 -0.067014
v -0.083724 0.174871 -0.074668
v -0.057663 -0.002518 0.068419
v -0.059652 0.007482 0.078419
v -0.083695 -0.002518 0.042387
v -0.093695 0.007482 0.044376
v -0.076070 -0.002518 0.060794
v -0.083724 0.007482 0.068448
v -0.083695 0.184871 0.042387
v -0.093695 0.174871 0.044376
v -0.057663 0.184871 0.068419
v -0.059652 0.174871 0.078419
v -0.076070 0.184871 0.060794
v -0.083724 0.174871 0.068448
vn 0.9239 -0.0000 -0.3827
vn -0.3827 -0.0000 -0.9239
vn 0.9239 -0.0000 0.3827
vn -0.0000 1.0000 -0.0000
vn -0.9239 -0.0000 -0.3827
vn -0.0000 -0.0000 -1.0000
vn 1.0000 -0.0000 -0.0000
vn -0.0000 -0.0000 1.0000
vn 0.3827 -0.0000 0.9239
vn -0.9239 -0.0000 0.3827
vn -0.3827 -0.0000 0.9239
vn -1.0000 -0.0000 -0.0000
vn 0.3827 -0.0000 -0.9239
vn 0.2706 -0.7071 -0.6533
vn 0.2706 0.7071 -0.6533
vn 0.6533 -0.7071 -0.2706
vn 0.6533 0.7071 -0.2706
vn 0.2706 0.7071 0.6533
vn 0.2706 -0.7071 0.6533
vn 0.6533 0.7071 0.2706
vn 0.6533 -0.7071 0.2706
vn -0.6533 0.7071 0.2706
vn -0.6533 -0.7071 0.2706
vn -0.2706 0.7071 0.6533
vn -0.2706 -0.7071 0.6533
vn -0.2706 0.7071 -0.6533
vn -0.2706 -0.7071 -0.6533
vn -0.6533 0.7071 -0.2706
vn -0.6533 -0.7071 -0.2706
vn 0.7071 -0.7071 -0.0000
vn -0.0000 -0.7071 0.7071
vn -0.7071 -0.7071 -0.0000
vn -0.0000 -0.7071 -0.7071
vn 0.7071 0.7071 -0.0000
vn -0.0000 0.7071 -0.7071
vn -0.7071 0.7071 -0.0000
vn -0.0000 0.7071 0.7071
vn -0.0000 -1.0000 -0.0000
vt 0.611659 0.000000
vt 0.388341 0.045417
vt 0.388341 0.000000
vt 0.388341 0.795417
vt 0.611659 0.750000
vt 0.611659 0.795417
vt 0.388341 0.250000
vt 0.611659 0.204583
vt 0.611659 0.250000
vt 0.826929 0.513341
vt 0.851487 0.726487
vt 0.638341 0.701929
vt 0.388341 0.750000
vt 0.611659 0.704583
vt 0.611659 0.750000
vt 0.611659 0.795417
vt 0.388341 0.954583
vt 0.388341 0.795417
vt 0.611659 0.045417
vt 0.388341 0.204583
vt 0.388341 0.045417
vt 0.611659 0.295417
vt 0.388341 0.454583
vt 0.388341 0.295417
vt 0.388341 0.295417
vt 0.611659 0.295417
vt 0.388341 0.545417
vt 0.611659 0.500000
vt 0.611659 0.545417
vt 0.388341 0.500000
vt 0.611659 0.454583
vt 0.611659 0.545417
vt 0.388341 0.704583
vt 0.388341 0.545417
vt 0.611659 0.954583
vt 0.388341 1.000000
vt 0.388341 0.954583
vt 0.148513 0.726487
vt 0.170417 0.750000
vt 0.138302 0.736698
vt 0.829583 0.750000
vt 0.826929 0.736659
vt 0.125000 0.704583
vt 0.138341 0.701929
vt 0.875000 0.704583
vt 0.861698 0.736698
vt 0.851487 0.523513
vt 0.829583 0.500000
vt 0.861698 0.513302
vt 0.148513 0.523513
vt 0.170417 0.500000
vt 0.173071 0.513341
vt 0.875000 0.545417
vt 0.861659 0.548071
vt 0.125000 0.545417
vt 0.138302 0.513302
vt 0.648513 0.523513
vt 0.625000 0.545417
vt 0.638302 0.513302
vt 0.351487 0.523513
vt 0.375000 0.545417
vt 0.361659 0.548071
vt 0.670417 0.500000
vt 0.673071 0.513341
vt 0.329583 0.500000
vt 0.361698 0.513302
vt 0.648513 0.726487
vt 0.670417 0.750000
vt 0.638302 0.736698
vt 0.351487 0.726487
vt 0.329583 0.750000
vt 0.326929 0.736659
vt 0.625000 0.704583
vt 0.375000 0.704583
vt 0.361698 0.736698
vt 0.861659 0.701929
vt 0.673071 0.736659
vt 0.611659 0.704583
vt 0.326929 0.513341
vt 0.611659 0.045417
vt 0.388341 0.750000
vt 0.388341 0.204583
vt 0.638341 0.548071
vt 0.388341 0.704583
vt 0.388341 0.454583
vt 0.611659 1.000000
vt 0.173071 0.736659
vt 0.138341 0.548071
vt 0.361659 0.701929
s 0
f 12/1/1 4/2/1 6/3/1
f 28/4/2 36/5/2 32/6/2
f 18/7/3 22/8/3 24/9/3
f 19/10/4 11/11/4 33/12/4
f 30/13/5 34/14/5 36/15/5
f 32/16/6 2/17/6 28/18/6
f 8/19/7 14/20/7 4/21/7
f 20/22/8 38/23/8 16/24/8
f 16/25/9 24/9/9 20/26/9
f 40/27/10 48/28/10 44/29/10
f 42/30/11 46/31/11 48/28/11
f 44/32/12 26/33/12 40/34/12
f 10/35/13 6/36/13 2/37/13
f 5/38/14 2/39/14 6/40/14
f 11/11/15 10/41/15 9/42/15
f 5/38/16 4/43/16 3/44/16
f 11/11/17 8/45/17 12/46/17
f 23/47/18 20/48/18 24/49/18
f 17/50/19 16/51/19 15/52/19
f 23/47/20 22/53/20 21/54/20
f 17/50/21 14/55/21 18/56/21
f 47/57/22 44/58/22 48/59/22
f 41/60/23 40/61/23 39/62/23
f 47/57/24 46/63/24 45/64/24
f 41/60/25 38/65/25 42/66/25
f 35/67/26 32/68/26 36/69/26
f 29/70/27 28/71/27 27/72/27
f 35/67/28 34/73/28 33/12/28
f 29/70/29 26/74/29 30/75/29
f 14/55/30 3/44/30 4/43/30
f 38/65/31 15/52/31 16/51/31
f 26/33/32 39/62/32 40/34/32
f 2/39/33 27/72/33 28/71/33
f 7/76/34 22/53/34 8/45/34
f 9/42/35 32/68/35 31/77/35
f 44/32/36 33/12/36 34/78/36
f 20/48/37 45/64/37 46/63/37
f 37/79/38 29/70/38 3/44/38
f 12/1/1 8/80/1 4/2/1
f 28/4/2 30/81/2 36/5/2
f 18/7/3 14/82/3 22/8/3
f 33/12/4 43/83/4 47/57/4
f 47/57/4 45/64/4 19/10/4
f 19/10/4 23/47/4 21/54/4
f 21/54/4 7/76/4 11/11/4
f 11/11/4 9/42/4 31/77/4
f 31/77/4 35/67/4 33/12/4
f 33/12/4 47/57/4 19/10/4
f 19/10/4 21/54/4 11/11/4
f 11/11/4 31/77/4 33/12/4
f 30/13/5 26/84/5 34/14/5
f 32/16/6 10/35/6 2/17/6
f 8/19/7 22/8/7 14/20/7
f 20/22/8 46/31/8 38/23/8
f 16/25/9 18/7/9 24/9/9
f 40/27/10 42/30/10 48/28/10
f 42/30/11 38/85/11 46/31/11
f 44/32/12 34/78/12 26/33/12
f 10/35/13 12/86/13 6/36/13
f 5/38/14 1/87/14 2/39/14
f 11/11/15 12/46/15 10/41/15
f 5/38/16 6/40/16 4/43/16
f 11/11/17 7/76/17 8/45/17
f 23/47/18 19/10/18 20/48/18
f 17/50/19 18/56/19 16/51/19
f 23/47/20 24/49/20 22/53/20
f 17/50/21 13/88/21 14/55/21
f 47/57/22 43/83/22 44/58/22
f 41/60/23 42/66/23 40/61/23
f 47/57/24 48/59/24 46/63/24
f 41/60/25 37/79/25 38/65/25
f 35/67/26 31/77/26 32/68/26
f 29/70/27 30/75/27 28/71/27
f 35/67/28 36/69/28 34/73/28
f 29/70/29 25/89/29 26/74/29
f 14/55/30 13/88/30 3/44/30
f 38/65/31 37/79/31 15/52/31
f 26/33/32 25/89/32 39/62/32
f 2/39/33 1/87/33 27/72/33
f 7/76/34 21/54/34 22/53/34
f 9/42/35 10/41/35 32/68/35
f 44/32/36 43/83/36 33/12/36
f 20/48/37 19/10/37 45/64/37
f 3/44/38 13/88/38 17/50/38
f 17/50/38 15/52/38 37/79/38
f 37/79/38 41/60/38 39/62/38
f 39/62/38 25/89/38 29/70/38
f 29/70/38 27/72/38 1/87/38
f 1/87/38 5/38/38 3/44/38
f 3/44/38 17/50/38 37/79/38
f 37/79/38 39/62/38 29/70/38
f 29/70/38 1/87/38 3/44/38
o Flashlight.004
v 0.000000 0.081177 0.123974
v -0.046675 0.081177 0.124045
v -0.050063 0.081177 0.127951
v -0.072078 0.081177 0.127951
v -0.074569 0.081177 0.124045
v -0.071887 0.081177 0.095837
v -0.068000 0.081177 0.092548
v -0.040000 0.081177 0.078548
v 0.000000 0.081177 0.078548
v 0.000000 0.081177 0.123974
v -0.033005 0.114181 0.124045
v -0.035400 0.116576 0.127951
v -0.050967 0.132144 0.127951
v -0.052728 0.133905 0.124045
v -0.050832 0.132008 0.095837
v -0.048083 0.129260 0.092548
v -0.028284 0.109461 0.078548
v 0.000000 0.081177 0.078548
v -0.000000 0.081177 0.123974
v 0.000000 0.127852 0.124045
v 0.000000 0.131239 0.127951
v 0.000000 0.153255 0.127951
v 0.000000 0.155745 0.124045
v 0.000000 0.153063 0.095837
v 0.000000 0.149177 0.092548
v 0.000000 0.121177 0.078548
v -0.000000 0.081177 0.078548
v -0.000000 0.081177 0.123974
v 0.033005 0.114181 0.124045
v 0.035400 0.116576 0.127951
v 0.050967 0.132144 0.127951
v 0.052728 0.133905 0.124045
v 0.050832 0.132008 0.095837
v 0.048083 0.129260 0.092548
v 0.028284 0.109461 0.078548
v -0.000000 0.081177 0.078548
v -0.000000 0.081177 0.123974
v 0.046675 0.081177 0.124045
v 0.050063 0.081177 0.127951
v 0.072078 0.081177 0.127951
v 0.074569 0.081177 0.124045
v 0.071887 0.081177 0.095837
v 0.068000 0.081177 0.092548
v 0.040000 0.081177 0.078548
v -0.000000 0.081177 0.078548
v -0.000000 0.081177 0.123974
v 0.033005 0.048172 0.124045
v 0.035400 0.045777 0.127951
v 0.050967 0.030209 0.127951
v 0.052728 0.028448 0.124045
v 0.050832 0.030345 0.095837
v 0.048083 0.033093 0.092548
v 0.028284 0.052892 0.078548
v -0.000000 0.081177 0.078548
v 0.000000 0.081177 0.123974
v -0.000000 0.034501 0.124045
v -0.000000 0.031114 0.127951
v -0.000000 0.009098 0.127951
v -0.000000 0.006608 0.124045
v -0.000000 0.009290 0.095837
v -0.000000 0.013177 0.092548
v -0.000000 0.041177 0.078548
v 0.000000 0.081177 0.078548
v 0.000000 0.081177 0.123974
v -0.033005 0.048172 0.124045
v -0.035400 0.045777 0.127951
v -0.050967 0.030209 0.127951
v -0.052728 0.028448 0.124045
v -0.050832 0.030345 0.095837
v -0.048083 0.033093 0.092548
v -0.028284 0.052892 0.078548
v 0.000000 0.081177 0.078548
vn -0.0015 0.0006 -1.0000
vn -0.0006 0.0015 -1.0000
vn 0.0006 0.0015 -1.0000
vn 0.0015 0.0006 -1.0000
vn 0.0015 -0.0006 -1.0000
vn 0.0006 -0.0015 -1.0000
vn -0.0006 -0.0015 -1.0000
vn -0.0015 -0.0006 -1.0000
vn -0.7211 0.2987 -0.6252
vn -0.2987 0.7211 -0.6252
vn 0.2987 0.7211 -0.6252
vn 0.7211 0.2987 -0.6252
vn 0.7211 -0.2987 -0.6252
vn 0.2987 -0.7211 -0.6252
vn -0.2987 -0.7211 -0.6252
vn -0.7211 -0.2987 -0.6252
vn -0.0000 -0.0000 -1.0000
vn 0.7961 -0.3297 -0.5075
vn 0.3297 -0.7961 -0.5075
vn -0.3297 -0.7961 -0.5075
vn -0.7961 -0.3297 -0.5075
vn -0.7961 0.3297 -0.5075
vn -0.3297 0.7961 -0.5075
vn 0.3297 0.7961 -0.5075
vn 0.7961 0.3297 -0.5075
vn 0.9203 -0.3812 0.0875
vn 0.3812 -0.9203 0.0875
vn -0.3812 -0.9203 0.0875
vn -0.9203 -0.3812 0.0875
vn -0.9203 0.3812 0.0875
vn -0.3812 0.9203 0.0875
vn 0.3812 0.9203 0.0875
vn 0.9203 0.3812 0.0875
vn 0.6241 -0.2585 0.7373
vn 0.2585 -0.6241 0.7373
vn -0.2585 -0.6241 0.7373
vn -0.6241 -0.2585 0.7373
vn -0.6241 0.2585 0.7373
vn -0.2585 0.6241 0.7373
vn 0.2585 0.6241 0.7373
vn 0.6241 0.2585 0.7373
vn 0.4397 -0.1821 0.8795
vn 0.1821 -0.4397 0.8795
vn -0.1821 -0.4397 0.8795
vn -0.4397 -0.1821 0.8795
vn -0.4397 0.1821 0.8795
vn -0.1821 0.4397 0.8795
vn 0.1821 0.4397 0.8795
vn 0.4397 0.1821 0.8795
vn -0.0000 -0.0000 1.0000
vt 0.000000 -0.098902
vt 0.000000 -0.098973
vt 0.125000 -0.098973
vt 0.125000 -0.098902
vt 0.250000 -0.098973
vt 0.250000 -0.098902
vt 0.375000 -0.098973
vt 0.375000 -0.098902
vt 0.500000 -0.098973
vt 0.500000 -0.098902
vt 0.625000 -0.098973
vt 0.625000 -0.098902
vt 0.750000 -0.098973
vt 0.750000 -0.098902
vt 0.875000 -0.098973
vt 0.875000 -0.098902
vt 1.000000 -0.098973
vt 1.000000 -0.098902
vt 0.000000 -0.102880
vt 0.125000 -0.102880
vt 0.250000 -0.102880
vt 0.375000 -0.102880
vt 0.500000 -0.102880
vt 0.625000 -0.102880
vt 0.750000 -0.102880
vt 0.875000 -0.102880
vt 1.000000 -0.102880
vt 0.000000 -0.098973
vt 0.125000 -0.098973
vt 0.250000 -0.098973
vt 0.375000 -0.098973
vt 0.500000 -0.098973
vt 0.625000 -0.098973
vt 0.750000 -0.098973
vt 0.875000 -0.098973
vt 1.000000 -0.098973
vt 0.000000 -0.070766
vt 0.125000 -0.070766
vt 0.250000 -0.070766
vt 0.375000 -0.070766
vt 0.500000 -0.070766
vt 0.625000 -0.070766
vt 0.750000 -0.070766
vt 0.875000 -0.070766
vt 1.000000 -0.070766
vt 0.000000 -0.067476
vt 0.125000 -0.067476
vt 0.250000 -0.067476
vt 0.375000 -0.067476
vt 0.500000 -0.067476
vt 0.625000 -0.067476
vt 0.750000 -0.067476
vt 0.875000 -0.067476
vt 1.000000 -0.067476
vt 0.000000 -0.053476
vt 0.125000 -0.053476
vt 0.250000 -0.053476
vt 0.375000 -0.053476
vt 0.500000 -0.053476
vt 0.625000 -0.053476
vt 0.750000 -0.053476
vt 0.875000 -0.053476
vt 1.000000 -0.053476
vt 0.000000 -0.053476
vt 0.125000 -0.053476
vt 0.250000 -0.053476
vt 0.375000 -0.053476
vt 0.500000 -0.053476
vt 0.625000 -0.053476
vt 0.750000 -0.053476
vt 0.875000 -0.053476
vt 1.000000 -0.053476
s 0
f 49/90/39 50/91/39 59/92/39 58/93/39
f 58/93/40 59/92/40 68/94/40 67/95/40
f 67/95/41 68/94/41 77/96/41 76/97/41
f 76/97/42 77/96/42 86/98/42 85/99/42
f 85/99/43 86/98/43 95/100/43 94/101/43
f 94/101/44 95/100/44 104/102/44 103/103/44
f 103/103/45 104/102/45 113/104/45 112/105/45
f 112/105/46 113/104/46 50/106/46 49/107/46
f 50/91/47 51/108/47 60/109/47 59/92/47
f 59/92/48 60/109/48 69/110/48 68/94/48
f 68/94/49 69/110/49 78/111/49 77/96/49
f 77/96/50 78/111/50 87/112/50 86/98/50
f 86/98/51 87/112/51 96/113/51 95/100/51
f 95/100/52 96/113/52 105/114/52 104/102/52
f 104/102/53 105/114/53 114/115/53 113/104/53
f 113/104/54 114/115/54 51/116/54 50/106/54
f 51/108/55 52/108/55 61/109/55 60/109/55
f 60/109/55 61/109/55 70/110/55 69/110/55
f 69/110/55 70/110/55 79/111/55 78/111/55
f 78/111/55 79/111/55 88/112/55 87/112/55
f 87/112/55 88/112/55 97/113/55 96/113/55
f 96/113/55 97/113/55 106/114/55 105/114/55
f 105/114/55 106/114/55 115/115/55 114/115/55
f 114/115/55 115/115/55 52/116/55 51/116/55
f 52/108/56 53/117/56 62/118/56 61/109/56
f 61/109/57 62/118/57 71/119/57 70/110/57
f 70/110/58 71/119/58 80/120/58 79/111/58
f 79/111/59 80/120/59 89/121/59 88/112/59
f 88/112/60 89/121/60 98/122/60 97/113/60
f 97/113/61 98/122/61 107/123/61 106/114/61
f 106/114/62 107/123/62 116/124/62 115/115/62
f 115/115/63 116/124/63 53/125/63 52/116/63
f 53/117/64 54/126/64 63/127/64 62/118/64
f 62/118/65 63/127/65 72/128/65 71/119/65
f 71/119/66 72/128/66 81/129/66 80/120/66
f 80/120/67 81/129/67 90/130/67 89/121/67
f 89/121/68 90/130/68 99/131/68 98/122/68
f 98/122/69 99/131/69 108/132/69 107/123/69
f 107/123/70 108/132/70 117/133/70 116/124/70
f 116/124/71 117/133/71 54/134/71 53/125/71
f 54/126/72 55/135/72 64/136/72 63/127/72
f 63/127/73 64/136/73 73/137/73 72/128/73
f 72/128/74 73/137/74 82/138/74 81/129/74
f 81/129/75 82/138/75 91/139/75 90/130/75
f 90/130/76 91/139/76 100/140/76 99/131/76
f 99/131/77 100/140/77 109/141/77 108/132/77
f 108/132/78 109/141/78 118/142/78 117/133/78
f 117/133/79 118/142/79 55/143/79 54/134/79
f 55/135/80 56/144/80 65/145/80 64/136/80
f 64/136/81 65/145/81 74/146/81 73/137/81
f 73/137/82 74/146/82 83/147/82 82/138/82
f 82/138/83 83/147/83 92/148/83 91/139/83
f 91/139/84 92/148/84 101/149/84 100/140/84
f 100/140/85 101/149/85 110/150/85 109/141/85
f 109/141/86 110/150/86 119/151/86 118/142/86
f 118/142/87 119/151/87 56/152/87 55/143/87
f 56/144/88 57/153/88 66/154/88 65/145/88
f 65/145/88 66/154/88 75/155/88 74/146/88
f 74/146/88 75/155/88 84/156/88 83/147/88
f 83/147/88 84/156/88 93/157/88 92/148/88
f 92/148/88 93/157/88 102/158/88 101/149/88
f 101/149/88 102/158/88 111/159/88 110/150/88
f 110/150/88 111/159/88 120/160/88 119/151/88
f 119/151/88 120/160/88 57/161/88 56/152/88
o Flashlight.004
v 0.000000 0.081177 0.123974
v -0.046675 0.081177 0.124045
v -0.050063 0.081177 0.127951
v -0.072078 0.081177 0.127951
v -0.074569 0.081177 0.124045
v -0.071887 0.081177 0.095837
v -0.068000 0.081177 0.092548
v -0.040000 0.081177 0.078548
v 0.000000 0.081177 0.078548
v 0.000000 0.081177 0.123974
v -0.033005 0.114181 0.124045
v -0.035400 0.116576 0.127951
v -0.050967 0.132144 0.127951
v -0.052728 0.133905 0.124045
v -0.050832 0.132008 0.095837
v -0.048083 0.129260 0.092548
v -0.028284 0.109461 0.078548
v 0.000000 0.081177 0.078548
v -0.000000 0.081177 0.123974
v 0.000000 0.127852 0.124045
v 0.000000 0.131239 0.127951
v 0.000000 0.153255 0.127951
v 0.000000 0.155745 0.124045
v 0.000000 0.153063 0.095837
v 0.000000 0.149177 0.092548
v 0.000000 0.121177 0.078548
v -0.000000 0.081177 0.078548
v -0.000000 0.081177 0.123974
v 0.033005 0.114181 0.124045
v 0.035400 0.116576 0.127951
v 0.050967 0.132144 0.127951
v 0.052728 0.133905 0.124045
v 0.050832 0.132008 0.095837
v 0.048083 0.129260 0.092548
v 0.028284 0.109461 0.078548
v -0.000000 0.081177 0.078548
v -0.000000 0.081177 0.123974
v 0.046675 0.081177 0.124045
v 0.050063 0.081177 0.127951
v 0.072078 0.081177 0.127951
v 0.074569 0.081177 0.124045
v 0.071887 0.081177 0.095837
v 0.068000 0.081177 0.092548
v 0.040000 0.081177 0.078548
v -0.000000 0.081177 0.078548
v -0.000000 0.081177 0.123974
v 0.033005 0.048172 0.124045
v 0.035400 0.045777 0.127951
v 0.050967 0.030209 0.127951
v 0.052728 0.028448 0.124045
v 0.050832 0.030345 0.095837
v 0.048083 0.033093 0.092548
v 0.028284 0.052892 0.078548
v -0.000000 0.081177 0.078548
v 0.000000 0.081177 0.123974
v -0.000000 0.034501 0.124045
v -0.000000 0.031114 0.127951
v -0.000000 0.009098 0.127951
v -0.000000 0.006608 0.124045
v -0.000000 0.009290 0.095837
v -0.000000 0.013177 0.092548
v -0.000000 0.041177 0.078548
v 0.000000 0.081177 0.078548
v 0.000000 0.081177 0.123974
v -0.033005 0.048172 0.124045
v -0.035400 0.045777 0.127951
v -0.050967 0.030209 0.127951
v -0.052728 0.028448 0.124045
v -0.050832 0.030345 0.095837
v -0.048083 0.033093 0.092548
v -0.028284 0.052892 0.078548
v 0.000000 0.081177 0.078548
vn 0.0009 0.8944 0.4472
vn -0.0000 -0.0015 1.0000
vn -0.0000 -0.0000 1.0000
vn -0.0005 0.9508 0.3099
vn -0.0009 -0.8944 0.4472
vn -0.0000 0.0015 1.0000
vn -0.0000 0.8944 0.4472
vn 0.0005 -0.9508 0.3099
vn -0.7211 0.2987 -0.6252
vn -0.2987 0.7211 -0.6252
vn 0.2987 0.7211 -0.6252
vn 0.7211 0.2987 -0.6252
vn 0.7211 -0.2987 -0.6252
vn 0.2987 -0.7211 -0.6252
vn -0.2987 -0.7211 -0.6252
vn -0.7211 -0.2987 -0.6252
vn -0.0000 -0.0000 -1.0000
vn 0.7961 -0.3297 -0.5075
vn 0.3297 -0.7961 -0.5075
vn -0.3297 -0.7961 -0.5075
vn -0.7961 -0.3297 -0.5075
vn -0.7961 0.3297 -0.5075
vn -0.3297 0.7961 -0.5075
vn 0.3297 0.7961 -0.5075
vn 0.7961 0.3297 -0.5075
vn 0.9203 -0.3812 0.0875
vn 0.3812 -0.9203 0.0875
vn -0.3812 -0.9203 0.0875
vn -0.9203 -0.3812 0.0875
vn -0.9203 0.3812 0.0875
vn -0.3812 0.9203 0.0875
vn 0.3812 0.9203 0.0875
vn 0.9203 0.3812 0.0875
vn 0.6241 -0.2585 0.7373
vn 0.2585 -0.6241 0.7373
vn -0.2585 -0.6241 0.7373
vn -0.6241 -0.2585 0.7373
vn -0.6241 0.2585 0.7373
vn -0.2585 0.6241 0.7373
vn 0.2585 0.6241 0.7373
vn 0.6241 0.2585 0.7373
vn 0.4397 -0.1821 0.8795
vn 0.1821 -0.4397 0.8795
vn -0.1821 -0.4397 0.8795
vn -0.4397 -0.1821 0.8795
vn -0.4397 0.1821 0.8795
vn -0.1821 0.4397 0.8795
vn 0.1821 0.4397 0.8795
vn 0.4397 0.1821 0.8795
vn -0.0015 0.0006 -1.0000
vn -0.0006 0.0015 -1.0000
vn 0.0006 0.0015 -1.0000
vn 0.0015 0.0006 -1.0000
vn 0.0015 -0.0006 -1.0000
vn 0.0006 -0.0015 -1.0000
vn -0.0006 -0.0015 -1.0000
vn -0.0015 -0.0006 -1.0000
vn -0.0000 0.9861 -0.1661
vn -0.0000 -0.9498 -0.3128
vn -0.0000 -1.0000 -0.0000
vn -0.0000 -0.9861 -0.1661
vn -0.0000 1.0000 -0.0000
vt 0.000000 -0.098902
vt 0.125000 -0.098973
vt 0.125000 -0.098902
vt 0.250000 -0.098973
vt 0.250000 -0.098902
vt 0.375000 -0.098973
vt 0.375000 -0.098902
vt 0.500000 -0.098973
vt 0.500000 -0.098902
vt 0.625000 -0.098973
vt 0.625000 -0.098902
vt 0.750000 -0.098973
vt 0.750000 -0.098902
vt 0.875000 -0.098973
vt 0.875000 -0.098902
vt 1.000000 -0.098973
vt 1.000000 -0.098902
vt 0.000000 -0.102880
vt 0.000000 -0.098973
vt 0.125000 -0.102880
vt 0.250000 -0.102880
vt 0.375000 -0.102880
vt 0.500000 -0.102880
vt 0.750000 -0.102880
vt 1.000000 -0.102880
vt 0.625000 -0.102880
vt 0.875000 -0.102880
vt 0.125000 -0.098973
vt 0.250000 -0.098973
vt 0.375000 -0.098973
vt 0.500000 -0.098973
vt 0.625000 -0.098973
vt 0.750000 -0.098973
vt 0.875000 -0.098973
vt 0.000000 -0.070766
vt 0.000000 -0.098973
vt 0.125000 -0.070766
vt 0.375000 -0.070766
vt 0.500000 -0.070766
vt 0.625000 -0.070766
vt 0.750000 -0.070766
vt 1.000000 -0.070766
vt 1.000000 -0.098973
vt 0.000000 -0.067476
vt 0.250000 -0.067476
vt 0.250000 -0.070766
vt 0.500000 -0.067476
vt 0.625000 -0.067476
vt 0.750000 -0.067476
vt 0.875000 -0.070766
vt 1.000000 -0.067476
vt 0.000000 -0.053476
vt 0.125000 -0.067476
vt 0.250000 -0.053476
vt 0.375000 -0.067476
vt 0.500000 -0.053476
vt 0.625000 -0.053476
vt 0.750000 -0.053476
vt 0.875000 -0.067476
vt 0.875000 -0.053476
vt 0.125000 -0.053476
vt 0.125000 -0.053476
vt 0.250000 -0.053476
vt 0.375000 -0.053476
vt 0.375000 -0.053476
vt 0.500000 -0.053476
vt 0.625000 -0.053476
vt 0.750000 -0.053476
vt 0.875000 -0.053476
vt 1.000000 -0.053476
vt 1.000000 -0.053476
vt 0.000000 -0.053476
s 0
f 121/162/89 131/163/89 130/164/89
f 130/164/90 140/165/90 139/166/90
f 139/166/91 149/167/91 148/168/91
f 148/168/92 158/169/92 157/170/92
f 157/170/93 167/171/93 166/172/93
f 166/172/94 176/173/94 175/174/94
f 175/174/95 185/175/95 184/176/95
f 184/176/96 122/177/96 121/178/96
f 123/179/97 131/163/97 122/180/97
f 132/181/98 140/165/98 131/163/98
f 141/182/99 149/167/99 140/165/99
f 150/183/100 158/169/100 149/167/100
f 159/184/101 167/171/101 158/169/101
f 167/171/102 177/185/102 176/173/102
f 177/185/103 185/175/103 176/173/103
f 185/175/104 123/186/104 122/177/104
f 123/179/105 133/181/105 132/181/105
f 133/181/105 141/182/105 132/181/105
f 142/182/105 150/183/105 141/182/105
f 151/183/105 159/184/105 150/183/105
f 160/184/105 168/187/105 159/184/105
f 169/187/105 177/185/105 168/187/105
f 178/185/105 186/188/105 177/185/105
f 187/188/105 123/186/105 186/188/105
f 124/179/106 134/189/106 133/181/106
f 134/189/107 142/182/107 133/181/107
f 143/190/108 151/183/108 142/182/108
f 152/191/109 160/184/109 151/183/109
f 161/192/110 169/187/110 160/184/110
f 170/193/111 178/185/111 169/187/111
f 179/194/112 187/188/112 178/185/112
f 188/195/113 124/186/113 187/188/113
f 126/196/114 134/189/114 125/197/114
f 135/198/115 143/190/115 134/189/115
f 143/190/116 153/199/116 152/191/116
f 153/199/117 161/192/117 152/191/117
f 162/200/118 170/193/118 161/192/118
f 171/201/119 179/194/119 170/193/119
f 180/202/120 188/195/120 179/194/120
f 188/195/121 126/203/121 125/204/121
f 127/205/122 135/198/122 126/196/122
f 135/198/123 145/206/123 144/207/123
f 145/206/124 153/199/124 144/207/124
f 153/199/125 163/208/125 162/200/125
f 163/208/126 171/201/126 162/200/126
f 172/209/127 180/202/127 171/201/127
f 181/210/128 189/211/128 180/202/128
f 189/211/129 127/212/129 126/203/129
f 128/213/130 136/214/130 127/205/130
f 136/214/131 146/215/131 145/206/131
f 146/215/132 154/216/132 145/206/132
f 154/216/133 164/217/133 163/208/133
f 164/217/134 172/209/134 163/208/134
f 173/218/135 181/210/135 172/209/135
f 182/219/136 190/220/136 181/210/136
f 191/221/137 127/212/137 190/220/137
f 128/213/91 138/222/91 137/223/91
f 137/223/91 147/224/91 146/215/91
f 146/215/91 156/225/91 155/226/91
f 155/226/91 165/227/91 164/217/91
f 164/217/91 174/228/91 173/218/91
f 173/218/91 183/229/91 182/219/91
f 182/219/91 192/230/91 191/221/91
f 191/221/91 129/231/91 128/232/91
f 121/162/138 122/180/138 131/163/138
f 130/164/139 131/163/139 140/165/139
f 139/166/140 140/165/140 149/167/140
f 148/168/141 149/167/141 158/169/141
f 157/170/142 158/169/142 167/171/142
f 166/172/143 167/171/143 176/173/143
f 175/174/144 176/173/144 185/175/144
f 184/176/145 185/175/145 122/177/145
f 123/179/97 132/181/97 131/163/97
f 132/181/98 141/182/98 140/165/98
f 141/182/99 150/183/99 149/167/99
f 150/183/100 159/184/100 158/169/100
f 159/184/101 168/187/101 167/171/101
f 167/171/102 168/187/102 177/185/102
f 177/185/103 186/188/103 185/175/103
f 185/175/104 186/188/104 123/186/104
f 123/179/105 124/179/105 133/181/105
f 133/181/105 142/182/105 141/182/105
f 142/182/105 151/183/105 150/183/105
f 151/183/105 160/184/105 159/184/105
f 160/184/105 169/187/105 168/187/105
f 169/187/105 178/185/105 177/185/105
f 178/185/105 187/188/105 186/188/105
f 187/188/105 124/186/105 123/186/105
f 124/179/106 125/197/106 134/189/106
f 134/189/107 143/190/107 142/182/107
f 143/190/108 152/191/108 151/183/108
f 152/191/109 161/192/109 160/184/109
f 161/192/110 170/193/110 169/187/110
f 170/193/111 179/194/111 178/185/111
f 179/194/112 188/195/112 187/188/112
f 188/195/113 125/204/113 124/186/113
f 126/196/114 135/198/114 134/189/114
f 135/198/115 144/207/115 143/190/115
f 143/190/116 144/207/116 153/199/116
f 153/199/117 162/200/117 161/192/117
f 162/200/118 171/201/118 170/193/118
f 171/201/119 180/202/119 179/194/119
f 180/202/120 189/211/120 188/195/120
f 188/195/121 189/211/121 126/203/121
f 127/205/122 136/214/122 135/198/122
f 135/198/123 136/214/123 145/206/123
f 145/206/124 154/216/124 153/199/124
f 153/199/125 154/216/125 163/208/125
f 163/208/126 172/209/126 171/201/126
f 172/209/127 181/210/127 180/202/127
f 181/210/128 190/220/128 189/211/128
f 189/211/129 190/220/129 127/212/129
f 128/213/130 137/223/130 136/214/130
f 136/214/131 137/223/131 146/215/131
f 146/215/132 155/226/132 154/216/132
f 154/216/133 155/226/133 164/217/133
f 164/217/134 173/218/134 172/209/134
f 173/218/135 182/219/135 181/210/135
f 182/219/136 191/221/136 190/220/136
f 191/221/137 128/232/137 127/212/137
f 128/213/146 129/233/146 138/222/146
f 137/223/147 138/222/147 147/224/147
f 146/215/105 147/224/105 156/225/105
f 155/226/148 156/225/148 165/227/148
f 164/217/149 165/227/149 174/228/149
f 173/218/148 174/228/148 183/229/148
f 182/219/105 183/229/105 192/230/105
f 191/221/150 192/230/150 129/231/150
o Flashlight
v -0.012500 0.161935 -0.068506
v 0.012500 0.161935 -0.068506
v 0.012500 0.139854 -0.080229
v -0.012500 0.139854 -0.080229
v -0.012500 0.176941 -0.100517
v 0.012500 0.176941 -0.100517
v 0.012500 0.163957 -0.121881
v -0.012500 0.163957 -0.121881
v -0.012500 0.236457 -0.100345
v 0.012500 0.236457 -0.100345
v 0.012500 0.246143 -0.123392
v -0.012500 0.246143 -0.123392
v -0.012500 0.249657 -0.086449
v 0.012500 0.249657 -0.086449
v 0.012500 0.272855 -0.095769
v -0.012500 0.272855 -0.095769
v -0.012500 0.249380 0.073546
v 0.012500 0.249380 0.073546
v 0.012500 0.272596 0.082821
v -0.012500 0.272596 0.082821
v -0.012500 0.236641 0.087187
v 0.012500 0.236641 0.087187
v 0.012500 0.246495 0.110163
v -0.012500 0.246495 0.110163
v -0.012500 0.177151 0.087521
v 0.012500 0.177151 0.087521
v 0.012500 0.165354 0.109562
v -0.012500 0.165354 0.109562
v -0.012500 0.161564 0.061595
v 0.012500 0.161564 0.061595
v 0.012500 0.140789 0.075501
v -0.012500 0.140789 0.075501
vn -1.0000 -0.0000 -0.0000
vn -0.0000 0.9055 0.4244
vn 1.0000 -0.0000 -0.0000
vn -0.0000 -0.8655 -0.5009
vn -0.0000 -0.0029 1.0000
vn -0.0000 -0.0184 -0.9998
vn -0.0000 -0.7250 0.6887
vn -0.0000 0.7189 -0.6952
vn -0.0000 -1.0000 -0.0017
vn -0.0000 1.0000 0.0014
vn -0.0000 -0.7308 -0.6825
vn -0.0000 0.7233 0.6905
vn -0.0000 -0.0056 -1.0000
vn -0.0000 -0.0074 1.0000
vn -0.0000 0.8570 -0.5153
vn -0.0000 -0.8111 0.5849
vt 0.142857 1.000000
vt 0.000000 0.750000
vt 0.000000 1.000000
vt 0.142857 0.250000
vt 0.000000 0.000000
vt 0.000000 0.250000
vt 0.000000 0.500000
vt 0.142857 0.750000
vt 0.285714 0.750000
vt 0.285714 0.000000
vt 0.142857 0.000000
vt 0.285714 0.500000
vt 0.142857 0.500000
vt 0.285714 1.000000
vt 0.428571 0.750000
vt 0.285714 0.250000
vt 0.428571 0.000000
vt 0.428571 0.500000
vt 0.428571 1.000000
vt 0.571429 0.750000
vt 0.571429 0.250000
vt 0.428571 0.250000
vt 0.571429 0.500000
vt 0.714286 1.000000
vt 0.571429 1.000000
vt 0.714286 0.250000
vt 0.571429 0.000000
vt 0.714286 0.750000
vt 0.857143 1.000000
vt 0.857143 0.250000
vt 0.714286 0.000000
vt 0.714286 0.500000
vt 0.857143 0.750000
vt 1.000000 0.750000
vt 1.000000 0.250000
vt 0.857143 0.000000
vt 1.000000 0.500000
vt 0.857143 0.500000
vt 1.000000 1.000000
vt 1.000000 0.000000
s 0
f 197/234/151 196/235/151 193/236/151
f 198/237/152 193/238/152 194/239/152
f 195/240/153 198/237/153 194/239/153
f 200/241/154 195/240/154 196/235/154
f 197/234/151 204/242/151 200/241/151
f 198/237/155 201/243/155 197/244/155
f 203/245/153 198/237/153 199/246/153
f 204/242/156 199/246/156 200/241/156
f 201/247/151 208/248/151 204/242/151
f 202/249/157 205/250/157 201/243/157
f 207/251/153 202/249/153 203/245/153
f 208/248/158 203/245/158 204/242/158
f 205/252/151 212/253/151 208/248/151
f 210/254/159 205/250/159 206/255/159
f 211/256/153 206/255/153 207/251/153
f 212/253/160 207/251/160 208/248/160
f 213/257/151 212/253/151 209/258/151
f 214/259/161 209/260/161 210/254/161
f 211/256/153 214/259/153 210/254/153
f 216/261/162 211/256/162 212/253/162
f 217/262/151 216/261/151 213/257/151
f 218/263/163 213/264/163 214/259/163
f 215/265/153 218/263/153 214/259/153
f 220/266/164 215/265/164 216/261/164
f 217/262/151 224/267/151 220/266/151
f 222/268/165 217/269/165 218/263/165
f 223/270/153 218/263/153 219/271/153
f 224/267/166 219/271/166 220/266/166
f 197/234/151 200/241/151 196/235/151
f 198/237/152 197/244/152 193/238/152
f 195/240/153 199/246/153 198/237/153
f 200/241/154 199/246/154 195/240/154
f 197/234/151 201/247/151 204/242/151
f 198/237/155 202/249/155 201/243/155
f 203/245/153 202/249/153 198/237/153
f 204/242/156 203/245/156 199/246/156
f 201/247/151 205/252/151 208/248/151
f 202/249/157 206/255/157 205/250/157
f 207/251/153 206/255/153 202/249/153
f 208/248/158 207/251/158 203/245/158
f 205/252/151 209/258/151 212/253/151
f 210/254/159 209/260/159 205/250/159
f 211/256/153 210/254/153 206/255/153
f 212/253/160 211/256/160 207/251/160
f 213/257/151 216/261/151 212/253/151
f 214/259/161 213/264/161 209/260/161
f 211/256/153 215/265/153 214/259/153
f 216/261/162 215/265/162 211/256/162
f 217/262/151 220/266/151 216/261/151
f 218/263/163 217/269/163 213/264/163
f 215/265/153 219/271/153 218/263/153
f 220/266/164 219/271/164 215/265/164
f 217/262/151 221/272/151 224/267/151
f 222/268/165 221/273/165 217/269/165
f 223/270/153 222/268/153 218/263/153
f 224/267/166 223/270/166 219/271/166
