# Blender 4.0.2
# www.blender.org
mtllib Hacksaw.mtl
o Hacksaw.001
v 0.009206 -0.001373 -0.139494
v -0.009206 -0.001373 -0.139494
v -0.009206 -0.001373 -0.111447
v 0.009206 -0.001373 -0.111447
v 0.009206 0.110711 -0.138395
v -0.009206 0.110711 -0.138395
v -0.009206 0.099826 -0.112547
v 0.009206 0.099826 -0.112547
v 0.009206 0.140063 -0.108436
v -0.009206 0.140063 -0.108436
v -0.009206 0.114089 -0.097855
v 0.009206 0.114089 -0.097855
v 0.009206 0.140325 0.220727
v -0.009206 0.140325 0.220727
v -0.009206 0.113827 0.211537
v 0.009206 0.113827 0.211537
v 0.009206 0.111387 0.256406
v -0.009206 0.111387 0.256406
v -0.009206 0.099149 0.231170
v 0.009206 0.099149 0.231170
v 0.009206 -0.001373 0.257811
v -0.009206 -0.001373 0.257811
v -0.009206 -0.001373 0.229765
v 0.009206 -0.001373 0.229765
vn 1.0000 -0.0000 -0.0000
vn -0.0000 0.0098 -1.0000
vn -1.0000 -0.0000 -0.0000
vn -0.0000 0.0109 0.9999
vn -0.0000 0.7143 -0.6998
vn -0.0000 -0.7175 0.6966
vn -0.0000 1.0000 -0.0008
vn -0.0000 -1.0000 -0.0008
vn -0.0000 0.7767 0.6299
vn -0.0000 -0.8009 -0.5988
vn -0.0000 0.0125 0.9999
vn -0.0000 0.0140 -0.9999
vt 0.000000 1.000000
vt 0.200000 0.750000
vt 0.000000 0.750000
vt 0.200000 0.250000
vt 0.000000 0.000000
vt 0.000000 0.250000
vt 0.200000 0.500000
vt 0.000000 0.500000
vt 0.400000 1.000000
vt 0.200000 1.000000
vt 0.400000 0.000000
vt 0.200000 0.000000
vt 0.400000 0.250000
vt 0.400000 0.750000
vt 0.600000 1.000000
vt 0.600000 0.250000
vt 0.400000 0.500000
vt 0.600000 0.750000
vt 0.800000 0.750000
vt 0.800000 0.250000
vt 0.600000 0.000000
vt 0.800000 0.500000
vt 0.600000 0.500000
vt 1.000000 1.000000
vt 0.800000 1.000000
vt 1.000000 0.250000
vt 0.800000 0.000000
vt 1.000000 0.750000
vt 1.000000 0.000000
vt 1.000000 0.500000
s 0
f 1/1/1 8/2/1 4/3/1
f 6/4/2 1/5/2 2/6/2
f 7/7/3 2/6/3 3/8/3
f 8/2/4 3/8/4 4/3/4
f 9/9/1 8/2/1 5/10/1
f 6/4/5 9/11/5 5/12/5
f 7/7/3 10/13/3 6/4/3
f 12/14/6 7/7/6 8/2/6
f 13/15/1 12/14/1 9/9/1
f 14/16/7 9/11/7 10/13/7
f 11/17/3 14/16/3 10/13/3
f 16/18/8 11/17/8 12/14/8
f 13/15/1 20/19/1 16/18/1
f 18/20/9 13/21/9 14/16/9
f 19/22/3 14/16/3 15/23/3
f 20/19/10 15/23/10 16/18/10
f 21/24/1 20/19/1 17/25/1
f 22/26/11 17/27/11 18/20/11
f 19/22/3 22/26/3 18/20/3
f 24/28/12 19/22/12 20/19/12
f 1/1/1 5/10/1 8/2/1
f 6/4/2 5/12/2 1/5/2
f 7/7/3 6/4/3 2/6/3
f 8/2/4 7/7/4 3/8/4
f 9/9/1 12/14/1 8/2/1
f 6/4/5 10/13/5 9/11/5
f 7/7/3 11/17/3 10/13/3
f 12/14/6 11/17/6 7/7/6
f 13/15/1 16/18/1 12/14/1
f 14/16/7 13/21/7 9/11/7
f 11/17/3 15/23/3 14/16/3
f 16/18/8 15/23/8 11/17/8
f 13/15/1 17/25/1 20/19/1
f 18/20/9 17/27/9 13/21/9
f 19/22/3 18/20/3 14/16/3
f 20/19/10 19/22/10 15/23/10
f 21/24/1 24/28/1 20/19/1
f 22/26/11 21/29/11 17/27/11
f 19/22/3 23/30/3 22/26/3
f 24/28/12 23/30/12 19/22/12
o Hacksaw.002
v -0.000000 -0.013902 -0.124421
v 0.000000 0.013902 -0.124421
v -0.000000 -0.013902 0.245574
v 0.000000 0.013902 0.245574
v 0.002736 -0.013902 -0.124421
v 0.002736 0.013902 -0.124421
v 0.002736 -0.013902 0.245574
v 0.002736 0.013902 0.245574
vn -1.0000 -0.0000 -0.0000
vn 1.0000 -0.0000 -0.0000
vn -0.0000 -1.0000 -0.0000
vn -0.0000 -0.0000 -1.0000
vn -0.0000 1.0000 -0.0000
vn -0.0000 -0.0000 1.0000
vt 1.000000 0.000000
vt 0.000000 1.000000
vt 0.000000 0.000000
vt 1.000000 1.000000
s 0
f 26/31/13 25/33/13 27/32/13
f 31/32/14 29/33/14 30/31/14
f 27/32/15 25/33/15 29/33/15
f 25/33/16 26/31/16 30/31/16
f 26/31/17 28/34/17 32/34/17
f 28/34/18 27/32/18 31/32/18
f 26/31/13 27/32/13 28/34/13
f 31/32/14 30/31/14 32/34/14
f 27/32/15 29/33/15 31/32/15
f 25/33/16 30/31/16 29/33/16
f 26/31/17 32/34/17 30/31/17
f 28/34/18 31/32/18 32/34/18
o Hacksaw.003
v 0.000000 0.020000 -0.152658
v 0.000000 0.020000 -0.104391
v 0.014142 0.014142 -0.152658
v 0.014142 0.014142 -0.104391
v 0.020000 0.000000 -0.152658
v 0.020000 -0.000000 -0.104391
v 0.014142 -0.014142 -0.152658
v 0.014142 -0.014142 -0.104391
v 0.000000 -0.020000 -0.152658
v 0.000000 -0.020000 -0.104391
v -0.014142 -0.014142 -0.152658
v -0.014142 -0.014142 -0.104391
v -0.020000 0.000000 -0.152658
v -0.020000 -0.000000 -0.104391
v -0.014142 0.014142 -0.152658
v -0.014142 0.014142 -0.104391
v 0.000000 0.036373 -0.155840
v 0.025720 0.025720 -0.155840
v 0.036373 0.000000 -0.155840
v 0.025720 -0.025720 -0.155840
v 0.000000 -0.036373 -0.155840
v -0.025720 -0.025720 -0.155840
v -0.036373 0.000000 -0.155840
v -0.025720 0.025720 -0.155840
v 0.000000 0.036373 -0.314256
v 0.025720 0.025720 -0.314256
v 0.036373 0.000000 -0.314256
v 0.025720 -0.025720 -0.314256
v 0.000000 -0.036373 -0.314256
v -0.025720 -0.025720 -0.314256
v -0.036373 0.000000 -0.314256
v -0.025720 0.025720 -0.314256
v -0.044887 0.000000 -0.180266
v -0.031740 -0.031740 -0.180266
v 0.000000 -0.044887 -0.180266
v 0.031740 -0.031740 -0.180266
v 0.044887 0.000000 -0.180266
v 0.031740 0.031740 -0.180266
v -0.031740 0.031740 -0.180266
v 0.000000 0.044887 -0.180266
v -0.044887 0.000000 -0.291859
v 0.000000 -0.044887 -0.291859
v 0.044887 0.000000 -0.291859
v -0.031740 0.031740 -0.291859
v -0.031740 -0.031740 -0.291859
v 0.031740 -0.031740 -0.291859
v 0.031740 0.031740 -0.291859
v 0.000000 0.044887 -0.291859
vn 0.3827 0.9239 -0.0000
vn 0.9239 0.3827 -0.0000
vn 0.9239 -0.3827 -0.0000
vn 0.3827 -0.9239 -0.0000
vn -0.3827 -0.9239 -0.0000
vn -0.9239 -0.3827 -0.0000
vn -0.0000 -0.0000 1.0000
vn -0.9239 0.3827 -0.0000
vn -0.3827 0.9239 -0.0000
vn 0.1902 -0.0788 0.9786
vn -0.8717 -0.3611 -0.3314
vn -0.1902 -0.0788 0.9786
vn 0.0788 -0.1902 0.9786
vn -0.1902 0.0788 0.9786
vn 0.1902 0.0788 0.9786
vn -0.0788 -0.1902 0.9786
vn -0.0788 0.1902 0.9786
vn 0.0788 0.1902 0.9786
vn -0.0000 -0.0000 -1.0000
vn 0.3611 -0.8717 -0.3314
vn 0.8717 0.3611 -0.3314
vn -0.8717 0.3611 -0.3314
vn -0.3611 -0.8717 -0.3314
vn 0.8717 -0.3611 -0.3314
vn 0.3611 0.8717 -0.3314
vn -0.3611 0.8717 -0.3314
vn -0.3643 0.8794 0.3065
vn 0.3643 0.8794 0.3065
vn 0.8794 -0.3643 0.3065
vn -0.3643 -0.8794 0.3065
vn -0.8794 0.3643 0.3065
vn 0.8794 0.3643 0.3065
vn 0.3643 -0.8794 0.3065
vn -0.8794 -0.3643 0.3065
vt 1.000000 1.000000
vt 0.875000 0.500000
vt 1.000000 0.500000
vt 0.875000 1.000000
vt 0.750000 0.500000
vt 0.750000 1.000000
vt 0.625000 0.500000
vt 0.625000 1.000000
vt 0.500000 0.500000
vt 0.500000 1.000000
vt 0.375000 0.500000
vt 0.375000 1.000000
vt 0.250000 0.500000
vt 0.010000 0.250000
vt 0.250000 0.010000
vt 0.490000 0.250000
vt 0.250000 1.000000
vt 0.125000 0.500000
vt 0.125000 1.000000
vt 0.000000 0.500000
vt 0.919706 0.080294
vt 0.580294 0.080294
vt 0.580294 0.419706
vt 0.419706 0.419706
vt 0.250000 0.490000
vt 0.080294 0.419706
vt 0.080294 0.080294
vt 0.419706 0.080294
vt 0.000000 1.000000
vt 0.750000 0.490000
vt 0.919706 0.419706
vt 0.990000 0.250000
vt 0.750000 0.010000
vt 0.510000 0.250000
s 0
f 34/35/19 35/36/19 33/37/19
f 36/38/20 37/39/20 35/36/20
f 38/40/21 39/41/21 37/39/21
f 40/42/22 41/43/22 39/41/22
f 42/44/23 43/45/23 41/43/23
f 44/46/24 45/47/24 43/45/24
f 46/48/25 42/49/25 38/50/25
f 46/51/26 47/52/26 45/47/26
f 48/53/27 33/54/27 47/52/27
f 39/41/28 51/39/28 37/39/28
f 73/47/29 62/45/29 77/45/29
f 45/47/30 54/45/30 43/45/30
f 39/41/31 53/43/31 52/41/31
f 47/52/32 55/47/32 45/47/32
f 37/39/33 50/36/33 35/36/33
f 41/43/34 54/45/34 53/43/34
f 33/54/35 56/52/35 47/52/35
f 35/36/36 49/37/36 33/37/36
f 60/55/37 62/56/37 64/57/37
f 74/43/38 60/41/38 78/41/38
f 79/36/39 59/39/39 58/36/39
f 76/52/40 63/47/40 73/47/40
f 74/43/41 62/45/41 61/43/41
f 78/41/42 59/39/42 75/39/42
f 79/36/43 57/37/43 80/37/43
f 80/54/44 64/52/44 76/52/44
f 49/54/45 71/52/45 56/52/45
f 49/37/46 70/36/46 72/37/46
f 51/39/47 68/41/47 69/39/47
f 54/45/48 67/43/48 53/43/48
f 56/52/49 65/47/49 55/47/49
f 51/39/50 70/36/50 50/36/50
f 53/43/51 68/41/51 52/41/51
f 55/47/52 66/45/52 54/45/52
f 71/52/27 80/54/27 76/52/27
f 70/36/19 80/37/19 72/37/19
f 68/41/21 75/39/21 69/39/21
f 67/43/23 77/45/23 74/43/23
f 71/52/26 73/47/26 65/47/26
f 69/39/20 79/36/20 70/36/20
f 67/43/22 78/41/22 68/41/22
f 65/47/24 77/45/24 66/45/24
f 34/35/19 36/38/19 35/36/19
f 36/38/20 38/40/20 37/39/20
f 38/40/21 40/42/21 39/41/21
f 40/42/22 42/44/22 41/43/22
f 42/44/23 44/46/23 43/45/23
f 44/46/24 46/51/24 45/47/24
f 38/50/25 36/58/25 34/59/25
f 34/59/25 48/60/25 46/48/25
f 46/48/25 44/61/25 42/49/25
f 42/49/25 40/62/25 38/50/25
f 38/50/25 34/59/25 46/48/25
f 46/51/26 48/53/26 47/52/26
f 48/53/27 34/63/27 33/54/27
f 39/41/28 52/41/28 51/39/28
f 73/47/29 63/47/29 62/45/29
f 45/47/30 55/47/30 54/45/30
f 39/41/31 41/43/31 53/43/31
f 47/52/32 56/52/32 55/47/32
f 37/39/33 51/39/33 50/36/33
f 41/43/34 43/45/34 54/45/34
f 33/54/35 49/54/35 56/52/35
f 35/36/36 50/36/36 49/37/36
f 64/57/37 57/64/37 58/65/37
f 58/65/37 59/66/37 60/55/37
f 60/55/37 61/67/37 62/56/37
f 62/56/37 63/68/37 64/57/37
f 64/57/37 58/65/37 60/55/37
f 74/43/38 61/43/38 60/41/38
f 79/36/39 75/39/39 59/39/39
f 76/52/40 64/52/40 63/47/40
f 74/43/41 77/45/41 62/45/41
f 78/41/42 60/41/42 59/39/42
f 79/36/43 58/36/43 57/37/43
f 80/54/44 57/54/44 64/52/44
f 49/54/45 72/54/45 71/52/45
f 49/37/46 50/36/46 70/36/46
f 51/39/47 52/41/47 68/41/47
f 54/45/48 66/45/48 67/43/48
f 56/52/49 71/52/49 65/47/49
f 51/39/50 69/39/50 70/36/50
f 53/43/51 67/43/51 68/41/51
f 55/47/52 65/47/52 66/45/52
f 71/52/27 72/54/27 80/54/27
f 70/36/19 79/36/19 80/37/19
f 68/41/21 78/41/21 75/39/21
f 67/43/23 66/45/23 77/45/23
f 71/52/26 76/52/26 73/47/26
f 69/39/20 75/39/20 79/36/20
f 67/43/22 74/43/22 78/41/22
f 65/47/24 73/47/24 77/45/24
o Hacksaw
v 0.000000 0.020000 0.226170
v 0.000000 0.020000 0.274437
v 0.014142 0.014142 0.226170
v 0.014142 0.014142 0.274437
v 0.020000 0.000000 0.226170
v 0.020000 -0.000000 0.274437
v 0.014142 -0.014142 0.226170
v 0.014142 -0.014142 0.274437
v 0.000000 -0.020000 0.226170
v 0.000000 -0.020000 0.274437
v -0.014142 -0.014142 0.226170
v -0.014142 -0.014142 0.274437
v -0.020000 0.000000 0.226170
v -0.020000 -0.000000 0.274437
v -0.014142 0.014142 0.226170
v -0.014142 0.014142 0.274437
vn 0.3827 0.9239 -0.0000
vn 0.9239 0.3827 -0.0000
vn 0.9239 -0.3827 -0.0000
vn 0.3827 -0.9239 -0.0000
vn -0.3827 -0.9239 -0.0000
vn -0.9239 -0.3827 -0.0000
vn -0.0000 -0.0000 1.0000
vn -0.9239 0.3827 -0.0000
vn -0.3827 0.9239 -0.0000
vn -0.0000 -0.0000 -1.0000
vt 1.000000 1.000000
vt 0.875000 0.500000
vt 1.000000 0.500000
vt 0.875000 1.000000
vt 0.750000 0.500000
vt 0.750000 1.000000
vt 0.625000 0.500000
vt 0.625000 1.000000
vt 0.500000 0.500000
vt 0.500000 1.000000
vt 0.375000 0.500000
vt 0.375000 1.000000
vt 0.250000 0.500000
vt 0.010000 0.250000
vt 0.250000 0.010000
vt 0.490000 0.250000
vt 0.250000 1.000000
vt 0.125000 0.500000
vt 0.125000 1.000000
vt 0.000000 0.500000
vt 0.919706 0.080294
vt 0.580294 0.080294
vt 0.580294 0.419706
vt 0.419706 0.419706
vt 0.250000 0.490000
vt 0.080294 0.419706
vt 0.080294 0.080294
vt 0.419706 0.080294
vt 0.000000 1.000000
vt 0.750000 0.490000
vt 0.919706 0.419706
vt 0.990000 0.250000
vt 0.750000 0.010000
vt 0.510000 0.250000
s 0
f 82/69/53 83/70/53 81/71/53
f 84/72/54 85/73/54 83/70/54
f 86/74/55 87/75/55 85/73/55
f 88/76/56 89/77/56 87/75/56
f 90/78/57 91/79/57 89/77/57
f 92/80/58 93/81/58 91/79/58
f 94/82/59 90/83/59 86/84/59
f 94/85/60 95/86/60 93/81/60
f 96/87/61 81/88/61 95/86/61
f 87/89/62 91/90/62 95/91/62
f 82/69/53 84/72/53 83/70/53
f 84/72/54 86/74/54 85/73/54
f 86/74/55 88/76/55 87/75/55
f 88/76/56 90/78/56 89/77/56
f 90/78/57 92/80/57 91/79/57
f 92/80/58 94/85/58 93/81/58
f 86/84/59 84/92/59 82/93/59
f 82/93/59 96/94/59 94/82/59
f 94/82/59 92/95/59 90/83/59
f 90/83/59 88/96/59 86/84/59
f 86/84/59 82/93/59 94/82/59
f 94/85/60 96/87/60 95/86/60
f 96/87/61 82/97/61 81/88/61
f 95/91/62 81/98/62 83/99/62
f 83/99/62 85/100/62 87/89/62
f 87/89/62 89/101/62 91/90/62
f 91/90/62 93/102/62 95/91/62
f 95/91/62 83/99/62 87/89/62
