# Blender 4.0.2
# www.blender.org
mtllib Radio.mtl
o Radio.002
v -0.208566 0.007880 0.079893
v -0.195219 0.000000 0.076102
v -0.199256 0.007919 0.089379
v -0.206271 0.291285 0.076886
v -0.206533 0.299844 0.065103
v -0.215533 0.290844 0.067598
v -0.195219 0.000000 -0.065930
v -0.208566 0.007880 -0.069869
v -0.199256 0.007919 -0.079207
v -0.215533 0.290844 -0.076755
v -0.206533 0.299844 -0.077006
v -0.206271 0.290844 -0.086006
v 0.201322 0.000000 0.076102
v 0.214670 0.007880 0.079893
v 0.205359 0.007919 0.089379
v 0.221637 0.290844 0.067598
v 0.212637 0.299844 0.065103
v 0.212375 0.291285 0.076886
v 0.201322 0.000000 -0.065930
v 0.205359 0.007919 -0.079207
v 0.214670 0.007880 -0.069869
v 0.212375 0.290844 -0.086006
v 0.212637 0.299844 -0.077006
v 0.221637 0.290844 -0.076755
v -0.215533 0.231955 0.086748
v -0.206261 0.231955 0.096179
v -0.206261 0.231955 -0.086006
v -0.215533 0.231955 -0.076745
v 0.221637 0.231955 -0.076745
v 0.212364 0.231955 -0.086006
v 0.212364 0.231955 0.096179
v 0.221637 0.231955 0.086748
v -0.215533 0.020508 -0.076715
v -0.206229 0.020508 -0.086006
v 0.212332 0.020508 -0.086006
v 0.221637 0.020508 -0.076715
v 0.221637 0.020508 0.086733
v 0.212332 0.020508 0.096179
v -0.215533 0.020508 0.086733
v -0.206229 0.020508 0.096179
vn -0.0000 1.0000 -0.0000
vn 0.8756 -0.4831 -0.0000
vn -1.0000 -0.0000 -0.0000
vn -0.0000 -0.4752 0.8799
vn -0.0000 -0.4752 -0.8799
vn -0.0000 -0.0000 -1.0000
vn 1.0000 -0.0000 -0.0000
vn -0.0000 -0.0000 1.0000
vn -0.0000 -1.0000 -0.0000
vn -0.0000 0.3092 0.9510
vn -0.3866 -0.8390 0.3829
vn -0.5372 0.6767 0.5035
vn -0.3824 -0.8401 -0.3848
vn -0.5825 0.5662 -0.5832
vn 0.3866 -0.8390 0.3829
vn 0.5372 0.6767 0.5035
vn 0.3824 -0.8401 -0.3848
vn 0.5825 0.5662 -0.5832
vn -0.5084 -0.8611 -0.0000
vn -0.6953 0.2222 0.6836
vn -0.7071 0.7071 -0.0000
vn -0.5589 -0.6118 -0.5597
vn -0.0000 -0.8588 -0.5122
vn -0.0000 0.7071 -0.7071
vn 0.5589 -0.6118 -0.5597
vn 0.5084 -0.8611 -0.0000
vn 0.7071 0.7071 -0.0000
vn 0.5636 -0.6117 0.5552
vn -0.0000 -0.8588 0.5122
vn -0.0000 0.8091 0.5877
vn -0.7124 -0.0001 0.7018
vn -0.7067 -0.0001 -0.7075
vn 0.7067 -0.0001 -0.7075
vn 0.6957 0.2221 0.6831
vn 0.7131 -0.0000 0.7011
vn -0.5633 -0.6119 0.5553
vn -0.8756 -0.4831 -0.0000
vn -0.6957 0.2221 0.6831
vn 0.5633 -0.6119 0.5553
vn -0.7131 -0.0000 0.7011
vn 0.6953 0.2222 0.6836
vn -0.7066 -0.0001 -0.7076
vn 0.7066 -0.0001 -0.7076
vn 0.7124 -0.0001 0.7018
vn -0.5636 -0.6117 0.5552
vt 0.869853 0.514053
vt 0.630147 0.735947
vt 0.630147 0.514053
vt 0.399015 0.513490
vt 0.437500 0.737038
vt 0.399016 0.736293
vt 0.500000 0.012941
vt 0.437500 0.237250
vt 0.437500 0.012962
vt 0.608429 0.014004
vt 0.500000 0.237292
vt 0.500000 0.012941
vt 0.437500 0.755321
vt 0.399133 0.994550
vt 0.399133 0.755450
vt 0.437500 0.255321
vt 0.399133 0.494550
vt 0.399133 0.255450
vt 0.500000 0.255302
vt 0.437500 0.494679
vt 0.437500 0.512750
vt 0.500000 0.737059
vt 0.500000 0.755302
vt 0.437500 0.994679
vt 0.369572 0.514060
vt 0.130428 0.735940
vt 0.130428 0.514060
vt 0.500000 0.255302
vt 0.608429 0.494704
vt 0.500000 0.494698
vt 0.500000 0.512708
vt 0.608429 0.735996
vt 0.500000 0.737059
vt 0.609241 0.755296
vt 0.500000 0.994698
vt 0.125000 0.741862
vt 0.127993 0.750000
vt 0.609241 0.994704
vt 0.625000 0.994853
vt 0.613536 1.000000
vt 0.125000 0.507907
vt 0.127993 0.500000
vt 0.608429 0.236052
vt 0.625000 0.235947
vt 0.608429 0.250000
vt 0.369572 0.735940
vt 0.375000 0.741862
vt 0.372007 0.750000
vt 0.625000 0.735947
vt 0.609241 0.750000
vt 0.372007 0.500000
vt 0.375000 0.507907
vt 0.625000 0.494853
vt 0.608429 0.500000
vt 0.609241 0.000000
vt 0.500000 0.000000
vt 0.625000 0.014053
vt 0.399015 0.236510
vt 0.437500 0.237250
vt 0.625000 0.255147
vt 0.608429 0.255296
vt 0.437500 0.512750
vt 0.608429 0.513947
vt 0.625000 0.755147
vt 0.437500 0.000000
vt 0.500000 0.494698
vt 0.500000 0.512708
vt 0.427698 0.000000
vt 0.399015 0.013708
vt 0.389303 0.000000
vt 0.437500 0.012962
vt 0.869853 0.735947
vt 0.500000 0.994698
s 0
f 11/1/1 17/2/1 23/3/1
f 21/4/2 37/5/2 14/6/2
f 25/7/3 33/8/3 39/9/3
f 6/10/3 28/11/3 25/12/3
f 38/13/4 3/14/4 15/15/4
f 34/16/5 20/17/5 9/18/5
f 27/19/6 35/20/6 34/16/6
f 36/21/7 32/22/7 37/5/7
f 31/23/8 40/24/8 38/13/8
f 19/25/9 2/26/9 7/27/9
f 27/28/6 22/29/6 30/30/6
f 29/31/7 16/32/7 32/33/7
f 18/34/10 26/35/10 31/23/10
f 1/36/11 2/26/11 3/37/11
f 4/38/12 5/39/12 6/40/12
f 7/27/13 8/41/13 9/42/13
f 10/43/14 11/44/14 12/45/14
f 13/46/15 14/47/15 15/48/15
f 16/32/16 17/49/16 18/50/16
f 19/25/17 20/51/17 21/52/17
f 22/29/18 23/53/18 24/54/18
f 7/27/19 1/36/19 8/41/19
f 4/55/20 25/12/20 26/56/20
f 5/57/21 10/43/21 6/10/21
f 34/16/22 8/58/22 33/59/22
f 7/27/23 20/51/23 19/25/23
f 11/60/24 22/29/24 12/61/24
f 21/4/25 35/20/25 36/62/25
f 19/25/26 14/6/26 13/46/26
f 17/2/27 24/63/27 23/3/27
f 38/13/28 14/6/28 37/5/28
f 13/46/29 3/37/29 2/26/29
f 5/39/30 18/34/30 17/64/30
f 26/56/31 39/9/31 40/65/31
f 12/61/32 28/11/32 10/43/32
f 29/31/33 22/29/33 24/63/33
f 18/34/34 32/33/34 16/32/34
f 27/19/32 33/8/32 28/11/32
f 36/21/33 30/66/33 29/67/33
f 31/23/35 37/5/35 32/22/35
f 40/68/36 1/69/36 3/70/36
f 39/71/37 8/58/37 1/69/37
f 11/1/1 5/72/1 17/2/1
f 21/4/2 36/62/2 37/5/2
f 25/7/3 28/11/3 33/8/3
f 6/10/3 10/43/3 28/11/3
f 38/13/4 40/24/4 3/14/4
f 34/16/5 35/20/5 20/17/5
f 27/19/6 30/66/6 35/20/6
f 36/21/7 29/67/7 32/22/7
f 31/23/8 26/73/8 40/24/8
f 19/25/9 13/46/9 2/26/9
f 27/28/6 12/61/6 22/29/6
f 29/31/7 24/63/7 16/32/7
f 18/34/10 4/38/10 26/35/10
f 7/27/19 2/26/19 1/36/19
f 4/55/38 6/10/38 25/12/38
f 5/57/21 11/44/21 10/43/21
f 34/16/22 9/18/22 8/58/22
f 7/27/23 9/42/23 20/51/23
f 11/60/24 23/53/24 22/29/24
f 21/4/25 20/17/25 35/20/25
f 19/25/26 21/4/26 14/6/26
f 17/2/27 16/32/27 24/63/27
f 38/13/39 15/15/39 14/6/39
f 13/46/29 15/48/29 3/37/29
f 5/39/30 4/38/30 18/34/30
f 26/56/40 25/7/40 39/9/40
f 12/61/32 27/28/32 28/11/32
f 29/31/33 30/30/33 22/29/33
f 18/34/41 31/23/41 32/33/41
f 27/19/42 34/16/42 33/8/42
f 36/21/43 35/20/43 30/66/43
f 31/23/44 38/13/44 37/5/44
f 40/68/45 39/71/45 1/69/45
f 39/71/37 33/59/37 8/58/37
o Radio.001
v 0.115144 0.209630 0.082234
v 0.115144 0.209630 0.121344
v 0.164199 0.193691 0.082234
v 0.164199 0.193691 0.121344
v 0.194516 0.151963 0.082234
v 0.194516 0.151963 0.121344
v 0.194516 0.100385 0.082234
v 0.194516 0.100385 0.121344
v 0.164199 0.058656 0.082234
v 0.164199 0.058656 0.121344
v 0.115144 0.042718 0.082234
v 0.115144 0.042718 0.121344
v 0.066090 0.058656 0.082234
v 0.066090 0.058656 0.121344
v 0.035773 0.100385 0.082234
v 0.035773 0.100385 0.121344
v 0.035773 0.151963 0.082234
v 0.035773 0.151963 0.121344
v 0.066090 0.193691 0.082234
v 0.066090 0.193691 0.121344
vn 0.3090 0.9511 -0.0000
vn 0.8090 0.5878 -0.0000
vn 1.0000 -0.0000 -0.0000
vn 0.8090 -0.5878 -0.0000
vn 0.3090 -0.9511 -0.0000
vn -0.3090 -0.9511 -0.0000
vn -0.8090 -0.5878 -0.0000
vn -1.0000 -0.0000 -0.0000
vn -0.0000 -0.0000 1.0000
vn -0.8090 0.5878 -0.0000
vn -0.3090 0.9511 -0.0000
vt 1.000000 1.000000
vt 0.900000 0.500000
vt 1.000000 0.500000
vt 0.900000 1.000000
vt 0.800000 0.500000
vt 0.800000 1.000000
vt 0.700000 0.500000
vt 0.700000 1.000000
vt 0.600000 0.500000
vt 0.600000 1.000000
vt 0.500000 0.500000
vt 0.500000 1.000000
vt 0.400000 0.500000
vt 0.400000 1.000000
vt 0.300000 0.500000
vt 0.300000 1.000000
vt 0.200000 0.500000
vt 0.021746 0.324164
vt 0.391068 0.055836
vt 0.478254 0.324164
vt 0.200000 1.000000
vt 0.100000 0.500000
vt 0.100000 1.000000
vt -0.000000 0.500000
vt 0.391068 0.444164
vt 0.250000 0.490000
vt 0.108932 0.444164
vt 0.021746 0.175836
vt 0.108932 0.055836
vt 0.250000 0.010000
vt 0.478254 0.175836
vt -0.000000 1.000000
s 0
f 42/74/46 43/75/46 41/76/46
f 44/77/47 45/78/47 43/75/47
f 46/79/48 47/80/48 45/78/48
f 48/81/49 49/82/49 47/80/49
f 50/83/50 51/84/50 49/82/50
f 52/85/51 53/86/51 51/84/51
f 54/87/52 55/88/52 53/86/52
f 56/89/53 57/90/53 55/88/53
f 58/91/54 50/92/54 46/93/54
f 58/94/55 59/95/55 57/90/55
f 60/96/56 41/97/56 59/95/56
f 42/74/46 44/77/46 43/75/46
f 44/77/47 46/79/47 45/78/47
f 46/79/48 48/81/48 47/80/48
f 48/81/49 50/83/49 49/82/49
f 50/83/50 52/85/50 51/84/50
f 52/85/51 54/87/51 53/86/51
f 54/87/52 56/89/52 55/88/52
f 56/89/53 58/94/53 57/90/53
f 46/93/54 44/98/54 42/99/54
f 42/99/54 60/100/54 58/91/54
f 58/91/54 56/101/54 54/102/54
f 54/102/54 52/103/54 50/92/54
f 50/92/54 48/104/54 46/93/54
f 46/93/54 42/99/54 58/91/54
f 58/91/54 54/102/54 50/92/54
f 58/94/55 60/96/55 59/95/55
f 60/96/56 42/105/56 41/97/56
o Radio
v 0.173923 0.291341 -0.059019
v 0.173750 0.448412 -0.059019
v 0.180876 0.291344 -0.056056
v 0.180703 0.448414 -0.056056
v 0.183756 0.291345 -0.048902
v 0.183583 0.448415 -0.048902
v 0.180876 0.291344 -0.041749
v 0.180703 0.448414 -0.041749
v 0.173923 0.291341 -0.038785
v 0.173750 0.448412 -0.038785
v 0.166970 0.291339 -0.041749
v 0.166796 0.448409 -0.041749
v 0.164089 0.291338 -0.048902
v 0.163916 0.448408 -0.048902
v 0.166970 0.291339 -0.056056
v 0.166796 0.448409 -0.056056
v 0.185948 0.449012 -0.061453
v 0.173749 0.449007 -0.066652
v 0.161551 0.449003 -0.061453
v 0.156498 0.449001 -0.048902
v 0.161551 0.449003 -0.036352
v 0.173749 0.449007 -0.031153
v 0.185948 0.449012 -0.036352
v 0.191001 0.449014 -0.048902
v 0.185922 0.501046 -0.061453
v 0.173723 0.501042 -0.066652
v 0.161525 0.501037 -0.061453
v 0.156472 0.501036 -0.048902
v 0.161525 0.501037 -0.036352
v 0.173723 0.501042 -0.031153
v 0.185922 0.501046 -0.036352
v 0.190975 0.501048 -0.048902
v 0.181767 0.503825 -0.057179
v 0.173722 0.503822 -0.060608
v 0.165677 0.503819 -0.057179
v 0.162345 0.503818 -0.048902
v 0.165677 0.503819 -0.040626
v 0.173722 0.503822 -0.037197
v 0.181767 0.503825 -0.040626
v 0.185099 0.503827 -0.048902
vn 0.3920 0.0004 -0.9199
vn 0.9276 0.0010 -0.3735
vn 0.9276 0.0010 0.3735
vn 0.3920 0.0004 0.9199
vn -0.3920 -0.0004 0.9199
vn -0.9276 -0.0010 0.3735
vn -0.9276 -0.0010 -0.3735
vn -0.3920 -0.0004 -0.9199
vn -0.0004 1.0000 -0.0000
vn 0.0335 -0.9964 -0.0778
vn -0.0328 -0.9964 -0.0778
vn -0.0796 -0.9963 -0.0322
vn -0.0796 -0.9963 0.0322
vn -0.0328 -0.9964 0.0778
vn 0.0335 -0.9964 0.0778
vn 0.0804 -0.9962 0.0322
vn 0.0804 -0.9962 -0.0322
vn 0.3920 0.0002 -0.9199
vn -0.3920 -0.0002 -0.9199
vn -0.9276 -0.0005 -0.3735
vn -0.9276 -0.0005 0.3735
vn -0.3920 -0.0002 0.9199
vn 0.3920 0.0002 0.9199
vn 0.9276 0.0005 0.3735
vn 0.9276 0.0005 -0.3735
vn 0.1750 0.8945 -0.4114
vn -0.1757 0.8943 -0.4115
vn -0.4219 0.8906 -0.1697
vn -0.4219 0.8906 0.1697
vn -0.1757 0.8943 0.4115
vn 0.1750 0.8945 0.4114
vn 0.4213 0.8909 0.1697
vn 0.4213 0.8909 -0.1697
vn -0.0797 -0.9963 -0.0322
vn -0.0797 -0.9963 0.0322
vn 0.4212 0.8909 0.1697
vn 0.4212 0.8909 -0.1697
vt 1.000000 0.500000
vt 0.875000 1.000000
vt 0.875000 0.500000
vt 0.750000 1.000000
vt 0.750000 0.500000
vt 0.625000 0.500000
vt 0.625000 1.000000
vt 0.500000 0.500000
vt 0.500000 1.000000
vt 0.375000 0.500000
vt 0.375000 1.000000
vt 0.250000 0.500000
vt 0.125000 1.000000
vt 0.125000 0.500000
vt 0.000000 1.000000
vt 0.000000 0.500000
vt 0.010000 0.250000
vt 0.250000 0.010000
vt 0.490000 0.250000
vt 0.250000 0.490000
vt 0.419706 0.419706
vt 0.080294 0.419706
vt 0.080294 0.080294
vt 0.419706 0.080294
vt 1.000000 1.000000
vt 0.250000 1.000000
s 0
f 61/106/57 64/107/57 63/108/57
f 63/108/58 66/109/58 65/110/58
f 66/109/59 67/111/59 65/110/59
f 68/112/60 69/113/60 67/111/60
f 70/114/61 71/115/61 69/113/61
f 72/116/62 73/117/62 71/115/62
f 73/117/63 76/118/63 75/119/63
f 75/119/64 62/120/64 61/121/64
f 96/122/65 98/123/65 100/124/65
f 62/125/66 77/126/66 64/126/66
f 79/127/67 62/125/67 76/127/67
f 80/122/68 76/127/68 74/122/68
f 72/128/69 80/122/69 74/122/69
f 70/123/70 81/128/70 72/128/70
f 83/129/71 70/123/71 68/129/71
f 84/124/72 68/129/72 66/124/72
f 64/126/73 84/124/73 66/124/73
f 78/125/74 85/126/74 77/126/74
f 79/127/75 86/125/75 78/125/75
f 80/122/76 87/127/76 79/127/76
f 89/128/77 80/122/77 81/128/77
f 90/123/78 81/128/78 82/123/78
f 91/129/79 82/123/79 83/129/79
f 92/124/80 83/129/80 84/124/80
f 77/126/81 92/124/81 84/124/81
f 94/125/82 85/126/82 86/125/82
f 87/127/83 94/125/83 86/125/83
f 88/122/84 95/127/84 87/127/84
f 97/128/85 88/122/85 89/128/85
f 98/123/86 89/128/86 90/123/86
f 91/129/87 98/123/87 90/123/87
f 92/124/88 99/129/88 91/129/88
f 93/126/89 92/124/89 85/126/89
f 61/106/57 62/130/57 64/107/57
f 63/108/58 64/107/58 66/109/58
f 66/109/59 68/112/59 67/111/59
f 68/112/60 70/114/60 69/113/60
f 70/114/61 72/116/61 71/115/61
f 72/116/62 74/131/62 73/117/62
f 73/117/63 74/131/63 76/118/63
f 75/119/64 76/118/64 62/120/64
f 100/124/65 93/126/65 94/125/65
f 94/125/65 95/127/65 96/122/65
f 96/122/65 97/128/65 98/123/65
f 98/123/65 99/129/65 100/124/65
f 100/124/65 94/125/65 96/122/65
f 62/125/66 78/125/66 77/126/66
f 79/127/67 78/125/67 62/125/67
f 80/122/90 79/127/90 76/127/90
f 72/128/91 81/128/91 80/122/91
f 70/123/70 82/123/70 81/128/70
f 83/129/71 82/123/71 70/123/71
f 84/124/72 83/129/72 68/129/72
f 64/126/73 77/126/73 84/124/73
f 78/125/74 86/125/74 85/126/74
f 79/127/75 87/127/75 86/125/75
f 80/122/76 88/122/76 87/127/76
f 89/128/77 88/122/77 80/122/77
f 90/123/78 89/128/78 81/128/78
f 91/129/79 90/123/79 82/123/79
f 92/124/80 91/129/80 83/129/80
f 77/126/81 85/126/81 92/124/81
f 94/125/82 93/126/82 85/126/82
f 87/127/83 95/127/83 94/125/83
f 88/122/84 96/122/84 95/127/84
f 97/128/85 96/122/85 88/122/85
f 98/123/86 97/128/86 89/128/86
f 91/129/87 99/129/87 98/123/87
f 92/124/92 100/124/92 99/129/92
f 93/126/93 100/124/93 92/124/93
o Radio.003
v 0.221213 0.291207 0.003033
v 0.242594 0.291207 0.003033
v 0.242594 0.251640 0.024706
v 0.221213 0.251640 0.024706
v 0.221946 0.244610 -0.082036
v 0.241861 0.240872 -0.088860
v 0.241861 0.201305 -0.067187
v 0.221946 0.205043 -0.060363
v 0.204089 0.235189 -0.099235
v 0.212669 0.225781 -0.116411
v 0.212669 0.186214 -0.094737
v 0.204089 0.195622 -0.077562
v -0.199656 0.235158 -0.099291
v -0.208523 0.225812 -0.116354
v -0.208523 0.186245 -0.094681
v -0.199656 0.195591 -0.077618
v -0.216249 0.244540 -0.082165
v -0.236276 0.240943 -0.088731
v -0.236276 0.201376 -0.067058
v -0.216250 0.204972 -0.060492
v -0.215572 0.293539 0.007289
v -0.236953 0.293539 0.007289
v -0.236953 0.253972 0.028962
v -0.215573 0.253972 0.028962
vn -1.0000 -0.0036 -0.0066
vn -0.0000 0.8770 -0.4804
vn 1.0000 -0.0034 -0.0061
vn -0.0000 -0.8770 0.4804
vn -0.7394 0.3235 0.5905
vn 0.7325 -0.3270 -0.5970
vn -0.0002 0.4804 0.8770
vn -0.0002 -0.4804 -0.8770
vn 0.7620 0.3111 0.5679
vn -0.7503 -0.3176 -0.5798
vn 1.0000 -0.0032 -0.0058
vn -1.0000 -0.0030 -0.0054
vn -0.0000 0.4804 0.8770
vt 0.200000 1.000000
vt 0.000000 0.750000
vt 0.000000 1.000000
vt 0.000000 0.250000
vt 0.200000 0.000000
vt 0.000000 0.000000
vt 0.200000 0.500000
vt 0.000000 0.500000
vt 0.200000 0.750000
vt 0.400000 1.000000
vt 0.200000 0.250000
vt 0.400000 0.000000
vt 0.400000 0.500000
vt 0.400000 0.750000
vt 0.600000 1.000000
vt 0.400000 0.250000
vt 0.600000 0.000000
vt 0.600000 0.250000
vt 0.600000 0.750000
vt 0.800000 0.750000
vt 0.800000 0.250000
vt 0.800000 0.500000
vt 0.600000 0.500000
vt 1.000000 1.000000
vt 0.800000 1.000000
vt 1.000000 0.250000
vt 0.800000 0.000000
vt 1.000000 0.500000
vt 1.000000 0.750000
vt 1.000000 0.000000
s 0
f 105/132/94 104/133/94 101/134/94
f 102/135/95 105/136/95 101/137/95
f 107/138/96 102/135/96 103/139/96
f 108/140/97 103/139/97 104/133/97
f 109/141/98 108/140/98 105/132/98
f 106/142/95 109/143/95 105/136/95
f 111/144/99 106/142/99 107/138/99
f 112/145/97 107/138/97 108/140/97
f 113/146/100 112/145/100 109/141/100
f 110/147/95 113/148/95 109/143/95
f 111/144/101 114/149/101 110/147/101
f 116/150/97 111/144/97 112/145/97
f 113/146/102 120/151/102 116/150/102
f 118/152/95 113/148/95 114/149/95
f 119/153/103 114/149/103 115/154/103
f 116/150/97 119/153/97 115/154/97
f 121/155/104 120/151/104 117/156/104
f 122/157/95 117/158/95 118/152/95
f 119/153/105 122/157/105 118/152/105
f 120/151/97 123/159/97 119/153/97
f 121/137/106 122/137/106 124/137/106
f 101/137/106 104/137/106 103/137/106
f 122/137/106 123/137/106 124/137/106
f 101/137/106 103/137/106 102/137/106
f 105/132/94 108/140/94 104/133/94
f 102/135/95 106/142/95 105/136/95
f 107/138/96 106/142/96 102/135/96
f 108/140/97 107/138/97 103/139/97
f 109/141/98 112/145/98 108/140/98
f 106/142/95 110/147/95 109/143/95
f 111/144/99 110/147/99 106/142/99
f 112/145/97 111/144/97 107/138/97
f 113/146/100 116/150/100 112/145/100
f 110/147/95 114/149/95 113/148/95
f 111/144/101 115/154/101 114/149/101
f 116/150/97 115/154/97 111/144/97
f 113/146/102 117/156/102 120/151/102
f 118/152/95 117/158/95 113/148/95
f 119/153/103 118/152/103 114/149/103
f 116/150/97 120/151/97 119/153/97
f 121/155/104 124/160/104 120/151/104
f 122/157/95 121/161/95 117/158/95
f 119/153/105 123/159/105 122/157/105
f 120/151/97 124/160/97 123/159/97
