# Blender 4.0.2
# www.blender.org
mtllib VHSTape.mtl
o VHSTape
v -0.091499 -0.015469 -0.073489
v -0.091499 0.015469 -0.073489
v 0.091499 -0.015469 -0.073489
v 0.091499 0.015469 -0.073489
v -0.080873 -0.015469 0.029076
v -0.091499 -0.015469 0.018450
v -0.088386 -0.015469 0.025963
v -0.091499 0.015469 0.018450
v -0.080873 0.015469 0.029076
v -0.088386 0.015469 0.025963
v 0.091499 -0.015469 0.018450
v 0.080873 -0.015469 0.029076
v 0.088386 -0.015469 0.025963
v 0.080873 0.015469 0.029076
v 0.091499 0.015469 0.018450
v 0.088386 0.015469 0.025963
vn -0.0000 -0.0000 1.0000
vn -0.0000 -0.0000 -1.0000
vn -0.0000 1.0000 -0.0000
vn -1.0000 -0.0000 -0.0000
vn 1.0000 -0.0000 -0.0000
vn -0.3827 -0.0000 0.9239
vn -0.9239 -0.0000 0.3827
vn 0.3827 -0.0000 0.9239
vn 0.9239 -0.0000 0.3827
vn -0.0000 -1.0000 -0.0000
vt 0.625000 0.764516
vt 0.375000 0.985484
vt 0.375000 0.764516
vt 0.625000 0.250000
vt 0.375000 0.500000
vt 0.375000 0.250000
vt 0.870748 0.743871
vt 0.639516 0.750000
vt 0.625000 0.729073
vt 0.625000 0.020927
vt 0.375000 0.020927
vt 0.625000 0.500000
vt 0.375000 0.729073
vt 0.625000 0.985484
vt 0.375000 1.000000
vt 0.625000 0.000000
vt 0.375000 0.000000
vt 0.625000 0.750000
vt 0.375000 0.750000
vt 0.370748 0.743871
vt 0.139516 0.750000
vt 0.125000 0.729073
vt 0.875000 0.500000
vt 0.875000 0.729073
vt 0.860484 0.750000
vt 0.629252 0.743871
vt 0.625000 1.000000
vt 0.125000 0.500000
vt 0.360484 0.750000
vt 0.129252 0.743871
s 0
f 14/1/1 5/2/1 12/3/1
f 2/4/2 3/5/2 1/6/2
f 10/7/3 14/8/3 15/9/3
f 8/10/4 1/6/4 6/11/4
f 4/12/5 11/13/5 3/5/5
f 9/14/6 7/15/6 5/2/6
f 10/16/7 6/11/7 7/17/7
f 12/3/8 16/18/8 14/1/8
f 13/19/9 15/9/9 16/18/9
f 13/20/10 5/21/10 6/22/10
f 14/1/1 9/14/1 5/2/1
f 2/4/2 4/12/2 3/5/2
f 15/9/3 4/12/3 2/23/3
f 2/23/3 8/24/3 10/7/3
f 10/7/3 9/25/3 14/8/3
f 14/8/3 16/26/3 15/9/3
f 15/9/3 2/23/3 10/7/3
f 8/10/4 2/4/4 1/6/4
f 4/12/5 15/9/5 11/13/5
f 9/14/6 10/27/6 7/15/6
f 10/16/7 8/10/7 6/11/7
f 12/3/8 13/19/8 16/18/8
f 13/19/9 11/13/9 15/9/9
f 6/22/10 1/28/10 3/5/10
f 3/5/10 11/13/10 13/20/10
f 13/20/10 12/29/10 5/21/10
f 5/21/10 7/30/10 6/22/10
f 6/22/10 3/5/10 13/20/10
