# Blender 4.0.2
# www.blender.org
mtllib KitchenKnife.mtl
o KitchenKnife
v -0.003947 0.016190 0.275342
v -0.003511 -0.015233 -0.056723
v -0.003511 0.037441 -0.056723
v 0.003947 0.016190 0.275342
v 0.003511 -0.015233 -0.056723
v 0.003511 0.037441 -0.056723
v -0.003947 -0.014422 0.209360
v -0.003947 0.033869 0.209360
v 0.003947 -0.014422 0.209360
v 0.003947 0.033869 0.209360
v -0.003947 0.043787 0.123833
v 0.003947 -0.029914 0.123833
v -0.003947 -0.029914 0.123833
v 0.003947 0.043787 0.123833
v -0.003947 -0.002640 0.244922
v 0.003947 0.026970 0.244922
v -0.003947 0.026970 0.244922
v 0.003947 -0.002640 0.244922
v -0.003947 0.043787 -0.056723
v -0.003947 -0.039475 -0.056723
v 0.003947 -0.039475 -0.056723
v 0.003947 0.043787 -0.056723
v -0.003879 0.032476 -0.059332
v -0.003879 -0.007045 -0.059332
v 0.003879 -0.007045 -0.059332
v 0.003879 0.032476 -0.059332
v -0.012535 0.032476 -0.070724
v -0.012535 -0.007045 -0.070724
v 0.012535 -0.007045 -0.070724
v 0.012535 0.032476 -0.070724
v -0.012535 0.021526 -0.267255
v -0.012535 0.009988 -0.267255
v 0.012535 0.009988 -0.267255
v 0.012535 0.021526 -0.267255
v -0.012535 -0.003896 -0.151949
v 0.012535 -0.003896 -0.151949
v 0.012535 0.032476 -0.151949
v -0.012535 0.032476 -0.151949
v -0.012535 0.004907 -0.218705
v 0.012535 0.032476 -0.218705
v 0.012535 0.004907 -0.218705
v -0.012535 0.032476 -0.218705
v 0.012535 0.003189 -0.089406
v -0.012535 0.032476 -0.089406
v -0.012535 0.003189 -0.089406
v 0.012535 0.032476 -0.089406
v 0.012535 -0.000676 -0.186743
v -0.012535 0.032476 -0.186743
v -0.012535 -0.000676 -0.186743
v 0.012535 0.032476 -0.186743
v -0.012535 -0.001463 -0.120881
v 0.012535 0.032476 -0.120881
v 0.012535 -0.001463 -0.120881
v -0.012535 0.032476 -0.120881
v -0.012535 -0.001892 -0.245407
v 0.012535 0.032476 -0.245407
v 0.012535 -0.001892 -0.245407
v -0.012535 0.032476 -0.245407
v -0.012535 0.001901 -0.258961
v 0.012535 0.028540 -0.258961
v 0.012535 0.001901 -0.258961
v -0.012535 0.028540 -0.258961
v -0.003947 0.043787 0.033555
v 0.003947 -0.036598 0.033555
v -0.003947 -0.036598 0.033555
v 0.003947 0.043787 0.033555
v 0.000000 -0.043823 -0.056527
v 0.000000 0.043787 -0.056723
v 0.000000 0.016084 0.275537
v 0.000000 0.033869 0.209360
v 0.000000 -0.018771 0.209556
v 0.000000 -0.034263 0.124029
v 0.000000 0.043787 0.123833
v 0.000000 0.026970 0.244922
v 0.000000 -0.006989 0.245117
v 0.000000 -0.015233 -0.056723
v 0.000000 0.037441 -0.056723
v 0.000000 -0.016048 -0.059380
v 0.000000 0.039331 -0.059380
v 0.000000 -0.016048 -0.071119
v 0.000000 0.039331 -0.071119
v 0.000000 0.007819 -0.273614
v 0.000000 0.023988 -0.273614
v 0.000000 0.039331 -0.154808
v 0.000000 -0.011636 -0.154808
v 0.000000 0.039331 -0.223591
v 0.000000 0.000699 -0.223591
v 0.000000 -0.001708 -0.090368
v 0.000000 0.039331 -0.090368
v 0.000000 -0.007123 -0.190658
v 0.000000 0.039331 -0.190658
v 0.000000 -0.008226 -0.122797
v 0.000000 0.039331 -0.122797
v 0.000000 0.039331 -0.251103
v 0.000000 -0.008828 -0.251103
v 0.000000 0.033816 -0.265068
v 0.000000 -0.003513 -0.265068
v 0.000000 0.043787 0.033555
v 0.000000 -0.040947 0.033751
vn -1.0000 -0.0000 -0.0000
vn 0.8201 0.4664 0.3317
vn 1.0000 -0.0000 -0.0000
vn 0.6721 -0.5899 0.4475
vn 0.0087 0.9422 0.3350
vn -0.0000 0.9933 0.1152
vn 0.7378 -0.6642 0.1203
vn 0.7407 -0.6700 0.0496
vn -0.0000 1.0000 -0.0000
vn -0.0000 0.9817 0.1905
vn 0.7278 -0.6509 0.2157
vn -0.0000 -0.0000 -1.0000
vn -0.0000 -0.0068 -1.0000
vn 0.7962 -0.0000 0.6050
vn -0.9902 -0.0000 0.1395
vn 0.9902 -0.0000 0.1395
vn -0.0000 -0.9561 0.2932
vn -0.4538 -0.5365 -0.7115
vn -0.9184 -0.3957 -0.0000
vn 0.8703 0.4924 -0.0000
vn -0.7962 -0.0000 0.6050
vn 0.4524 -0.0000 -0.8918
vn 0.4555 0.5841 -0.6718
vn 0.4798 0.8774 -0.0000
vn -0.5080 -0.8565 0.0912
vn -0.3846 -0.8981 -0.2133
vn -0.5112 -0.6892 -0.5135
vn -0.4815 -0.8696 -0.1095
vn -0.4464 -0.8773 0.1763
vn -0.3504 -0.8850 0.3065
vn 0.4955 0.8079 -0.3191
vn -0.4997 -0.8095 -0.3081
vn 0.7408 -0.6714 0.0214
vn -0.7408 -0.6714 0.0214
vn 0.5481 -0.8055 -0.2254
vn -0.5461 0.8045 -0.2336
vn 0.2233 -0.9446 0.2405
vn -0.4798 0.8774 -0.0000
vn 0.3513 -0.9262 0.1369
vn 0.5366 -0.8403 -0.0778
vn 0.3548 -0.8200 -0.4492
vn 0.4889 -0.8593 -0.1501
vn 0.4655 -0.8823 0.0691
vn -0.5367 0.6443 -0.5448
vn -0.4524 -0.0000 -0.8918
vn -0.4436 0.8305 0.3370
vn 0.5264 -0.7503 0.3999
vn 0.5446 -0.6005 -0.5855
vn 0.6203 -0.2632 -0.7389
vn 0.0485 -0.0009 -0.9988
vn -0.7278 -0.6509 0.2157
vn -0.7407 -0.6700 0.0496
vn -0.7378 -0.6642 0.1203
vn -0.0000 0.9426 0.3340
vn -0.0488 -0.8493 0.5257
vn -0.6795 0.3800 -0.6276
vn -0.0000 0.4651 -0.8852
vn 0.0488 -0.8493 0.5257
vn -0.0485 -0.0009 -0.9988
vn -0.6203 -0.2632 -0.7389
vn -0.5446 -0.6005 -0.5855
vn -0.5264 -0.7503 0.3999
vn 0.4436 0.8305 0.3370
vn 0.5367 0.6443 -0.5448
vn -0.4655 -0.8823 0.0691
vn -0.4889 -0.8593 -0.1501
vn -0.3548 -0.8200 -0.4492
vn -0.5366 -0.8403 -0.0778
vn -0.3513 -0.9262 0.1369
vn -0.2233 -0.9446 0.2405
vn 0.5461 0.8045 -0.2336
vn -0.5481 -0.8055 -0.2254
vn 0.4997 -0.8095 -0.3081
vn -0.4955 0.8079 -0.3191
vn 0.3504 -0.8850 0.3065
vn 0.4464 -0.8773 0.1763
vn 0.4815 -0.8696 -0.1095
vn 0.5112 -0.6892 -0.5135
vn 0.3846 -0.8981 -0.2133
vn 0.5080 -0.8565 0.0912
vn -0.4555 0.5841 -0.6718
vn -0.8703 0.4924 -0.0000
vn 0.9184 -0.3957 -0.0000
vn 0.4538 -0.5365 -0.7115
vn -0.0087 0.9422 0.3350
vn -0.6721 -0.5899 0.4475
vn -0.0000 0.8149 0.5796
vt 0.375000 0.218750
vt 0.625000 0.250000
vt 0.375000 0.250000
vt 0.610476 0.375000
vt 0.610476 0.486191
vt 0.375000 0.687500
vt 0.625000 0.687500
vt 0.375000 0.750000
vt 0.250000 0.750000
vt 0.250000 0.687500
vt 0.750000 0.687500
vt 0.875000 0.750000
vt 0.750000 0.750000
vt 0.875000 0.562500
vt 0.750000 0.625000
vt 0.750000 0.562500
vt 0.375000 0.562500
vt 0.250000 0.625000
vt 0.250000 0.562500
vt 0.625000 0.562500
vt 0.375000 0.625000
vt 0.375000 0.062500
vt 0.625000 0.125000
vt 0.375000 0.125000
vt 0.625000 0.531250
vt 0.375000 0.531250
vt 0.250000 0.531250
vt 0.875000 0.531250
vt 0.750000 0.531250
vt 0.625000 0.187500
vt 0.375000 0.187500
vt 0.625000 0.000000
vt 0.625000 0.062500
vt 0.875000 0.625000
vt 0.625000 0.625000
vt 0.389524 0.263809
vt 0.610476 0.263809
vt 0.389524 0.486191
vt 0.375000 0.375000
vt 0.389524 0.375000
vt 0.625000 0.375000
vt 0.625000 0.500000
vt 0.375000 0.500000
vt 0.875000 0.500000
vt 0.750000 0.500000
vt 0.250000 0.500000
vt 0.625000 0.218750
vt 0.125000 0.531250
vt 0.125000 0.500000
vt 0.125000 0.625000
vt 0.125000 0.687500
vt 0.125000 0.562500
vt 0.625000 0.750000
vt 0.125000 0.750000
vt 0.875000 0.687500
s 0
f 65/1/1 19/2/1 20/3/1
f 77/4/2 26/5/2 79/4/2
f 18/6/3 16/7/3 4/8/3
f 18/6/4 69/9/4 75/10/4
f 74/11/5 1/12/5 69/13/5
f 11/14/6 70/15/6 73/16/6
f 12/17/7 71/18/7 72/19/7
f 14/20/3 9/21/3 12/17/3
f 15/22/1 8/23/1 7/24/1
f 66/25/3 12/17/3 64/26/3
f 64/26/8 72/19/8 99/27/8
f 63/28/9 73/16/9 98/29/9
f 7/24/1 11/30/1 13/31/1
f 1/32/1 17/33/1 15/22/1
f 8/34/10 74/11/10 70/15/10
f 9/21/11 75/10/11 71/18/11
f 10/35/3 18/6/3 9/21/3
f 2/36/12 19/2/12 3/37/12
f 5/38/13 67/39/13 76/40/13
f 3/37/12 68/41/12 77/4/12
f 5/38/12 22/42/12 21/43/12
f 25/38/14 30/5/14 26/5/14
f 3/37/15 24/36/15 2/36/15
f 6/5/16 25/38/16 26/5/16
f 2/36/17 78/40/17 76/40/17
f 97/40/18 32/36/18 82/40/18
f 24/36/19 80/40/19 78/40/19
f 26/5/20 81/4/20 79/4/20
f 23/37/21 28/36/21 24/36/21
f 82/40/22 34/5/22 33/38/22
f 96/4/23 34/5/23 83/4/23
f 62/37/1 32/36/1 59/36/1
f 60/5/3 33/38/3 34/5/3
f 53/38/3 37/5/3 52/5/3
f 51/36/1 38/37/1 35/36/1
f 93/4/24 37/5/24 84/4/24
f 92/40/25 35/36/25 85/40/25
f 50/5/3 41/38/3 40/5/3
f 48/37/1 39/36/1 49/36/1
f 91/4/24 40/5/24 86/4/24
f 90/40/26 39/36/26 87/40/26
f 28/36/27 88/40/27 80/40/27
f 81/4/24 46/5/24 89/4/24
f 27/37/1 45/36/1 28/36/1
f 30/5/3 43/38/3 46/5/3
f 85/40/28 49/36/28 90/40/28
f 84/4/24 50/5/24 91/4/24
f 38/37/1 49/36/1 35/36/1
f 37/5/3 47/38/3 50/5/3
f 88/40/29 51/36/29 92/40/29
f 89/4/24 52/5/24 93/4/24
f 45/36/1 54/37/1 51/36/1
f 43/38/3 52/5/3 46/5/3
f 41/38/3 56/5/3 40/5/3
f 39/36/1 58/37/1 55/36/1
f 86/4/24 56/5/24 94/4/24
f 87/40/30 55/36/30 95/40/30
f 57/38/3 60/5/3 56/5/3
f 55/36/1 62/37/1 59/36/1
f 94/4/31 60/5/31 96/4/31
f 95/40/32 59/36/32 97/40/32
f 19/44/9 98/29/9 68/45/9
f 67/46/33 64/26/33 99/27/33
f 22/42/3 64/26/3 21/43/3
f 13/31/1 63/47/1 65/1/1
f 67/46/34 65/48/34 20/49/34
f 68/45/9 66/25/9 22/42/9
f 95/40/35 61/38/35 57/38/35
f 94/4/36 62/37/36 58/37/36
f 87/40/37 57/38/37 41/38/37
f 86/4/38 58/37/38 42/37/38
f 89/4/38 54/37/38 44/37/38
f 88/40/39 53/38/39 43/38/39
f 84/4/38 48/37/38 38/37/38
f 85/40/40 47/38/40 36/38/40
f 81/4/38 44/37/38 27/37/38
f 29/38/41 88/40/41 43/38/41
f 90/40/42 41/38/42 47/38/42
f 91/4/38 42/37/38 48/37/38
f 92/40/43 36/38/43 53/38/43
f 93/4/38 38/37/38 54/37/38
f 96/4/44 31/37/44 62/37/44
f 31/37/45 82/40/45 32/36/45
f 23/37/46 81/4/46 27/37/46
f 25/38/47 80/40/47 29/38/47
f 97/40/48 33/38/48 61/38/48
f 5/38/49 78/40/49 25/38/49
f 6/5/12 68/41/12 22/42/12
f 2/36/50 67/39/50 20/3/50
f 7/50/51 75/10/51 15/51/51
f 70/15/10 16/7/10 10/35/10
f 98/29/9 14/20/9 66/25/9
f 65/48/52 72/19/52 13/52/52
f 13/52/53 71/18/53 7/50/53
f 73/16/6 10/35/6 14/20/6
f 74/11/54 4/53/54 16/7/54
f 15/51/55 69/9/55 1/54/55
f 3/37/56 79/4/56 23/37/56
f 65/1/1 63/47/1 19/2/1
f 77/4/57 6/5/57 26/5/57
f 18/6/58 4/8/58 69/9/58
f 74/11/54 17/55/54 1/12/54
f 11/14/6 8/34/6 70/15/6
f 12/17/7 9/21/7 71/18/7
f 14/20/3 10/35/3 9/21/3
f 15/22/1 17/33/1 8/23/1
f 66/25/3 14/20/3 12/17/3
f 64/26/8 12/17/8 72/19/8
f 63/28/9 11/14/9 73/16/9
f 7/24/1 8/23/1 11/30/1
f 8/34/10 17/55/10 74/11/10
f 9/21/11 18/6/11 75/10/11
f 10/35/3 16/7/3 18/6/3
f 2/36/12 20/3/12 19/2/12
f 5/38/59 21/43/59 67/39/59
f 3/37/12 19/2/12 68/41/12
f 5/38/12 6/5/12 22/42/12
f 25/38/14 29/38/14 30/5/14
f 3/37/15 23/37/15 24/36/15
f 6/5/16 5/38/16 25/38/16
f 2/36/60 24/36/60 78/40/60
f 97/40/61 59/36/61 32/36/61
f 24/36/62 28/36/62 80/40/62
f 26/5/63 30/5/63 81/4/63
f 23/37/21 27/37/21 28/36/21
f 82/40/22 83/4/22 34/5/22
f 96/4/64 60/5/64 34/5/64
f 62/37/1 31/37/1 32/36/1
f 60/5/3 61/38/3 33/38/3
f 53/38/3 36/38/3 37/5/3
f 51/36/1 54/37/1 38/37/1
f 93/4/24 52/5/24 37/5/24
f 92/40/65 51/36/65 35/36/65
f 50/5/3 47/38/3 41/38/3
f 48/37/1 42/37/1 39/36/1
f 91/4/24 50/5/24 40/5/24
f 90/40/66 49/36/66 39/36/66
f 28/36/67 45/36/67 88/40/67
f 81/4/24 30/5/24 46/5/24
f 27/37/1 44/37/1 45/36/1
f 30/5/3 29/38/3 43/38/3
f 85/40/68 35/36/68 49/36/68
f 84/4/24 37/5/24 50/5/24
f 38/37/1 48/37/1 49/36/1
f 37/5/3 36/38/3 47/38/3
f 88/40/69 45/36/69 51/36/69
f 89/4/24 46/5/24 52/5/24
f 45/36/1 44/37/1 54/37/1
f 43/38/3 53/38/3 52/5/3
f 41/38/3 57/38/3 56/5/3
f 39/36/1 42/37/1 58/37/1
f 86/4/24 40/5/24 56/5/24
f 87/40/70 39/36/70 55/36/70
f 57/38/3 61/38/3 60/5/3
f 55/36/1 58/37/1 62/37/1
f 94/4/71 56/5/71 60/5/71
f 95/40/72 55/36/72 59/36/72
f 19/44/9 63/28/9 98/29/9
f 67/46/33 21/43/33 64/26/33
f 22/42/3 66/25/3 64/26/3
f 13/31/1 11/30/1 63/47/1
f 67/46/34 99/27/34 65/48/34
f 68/45/9 98/29/9 66/25/9
f 95/40/73 97/40/73 61/38/73
f 94/4/74 96/4/74 62/37/74
f 87/40/75 95/40/75 57/38/75
f 86/4/38 94/4/38 58/37/38
f 89/4/38 93/4/38 54/37/38
f 88/40/76 92/40/76 53/38/76
f 84/4/38 91/4/38 48/37/38
f 85/40/77 90/40/77 47/38/77
f 81/4/38 89/4/38 44/37/38
f 29/38/78 80/40/78 88/40/78
f 90/40/79 87/40/79 41/38/79
f 91/4/38 86/4/38 42/37/38
f 92/40/80 85/40/80 36/38/80
f 93/4/38 84/4/38 38/37/38
f 96/4/81 83/4/81 31/37/81
f 31/37/45 83/4/45 82/40/45
f 23/37/82 79/4/82 81/4/82
f 25/38/83 78/40/83 80/40/83
f 97/40/84 82/40/84 33/38/84
f 5/38/17 76/40/17 78/40/17
f 6/5/12 77/4/12 68/41/12
f 2/36/13 76/40/13 67/39/13
f 7/50/51 71/18/51 75/10/51
f 70/15/10 74/11/10 16/7/10
f 98/29/9 73/16/9 14/20/9
f 65/48/52 99/27/52 72/19/52
f 13/52/53 72/19/53 71/18/53
f 73/16/6 70/15/6 10/35/6
f 74/11/85 69/13/85 4/53/85
f 15/51/86 75/10/86 69/9/86
f 3/37/87 77/4/87 79/4/87
