# Blender 4.1.0
# www.blender.org
mtllib DoorFlap.mtl
o DoorFlap
v -0.284818 1.721870 -0.012375
v -0.284818 1.780974 -0.064080
v -0.284818 1.702214 -0.034843
v -0.284818 1.761318 -0.086548
v 0.322558 1.721870 -0.012375
v 0.322558 1.780974 -0.064080
v 0.322558 1.702214 -0.034843
v 0.322558 1.761318 -0.086548
v -0.284818 1.658863 -0.012375
v -0.284818 1.717966 -0.064080
v -0.284818 1.639207 -0.034843
v -0.284818 1.698311 -0.086548
v 0.322558 1.658863 -0.012375
v 0.322558 1.717966 -0.064080
v 0.322558 1.639207 -0.034843
v 0.322558 1.698311 -0.086548
v -0.284818 1.595855 -0.012375
v -0.284818 1.654959 -0.064080
v -0.284818 1.576199 -0.034843
v -0.284818 1.635303 -0.086548
v 0.322558 1.595855 -0.012375
v 0.322558 1.654959 -0.064080
v 0.322558 1.576199 -0.034843
v 0.322558 1.635303 -0.086548
v -0.284818 1.532847 -0.012375
v -0.284818 1.591951 -0.064080
v -0.284818 1.513191 -0.034843
v -0.284818 1.572295 -0.086548
v 0.322558 1.532847 -0.012375
v 0.322558 1.591951 -0.064080
v 0.322558 1.513191 -0.034843
v 0.322558 1.572295 -0.086548
v -0.284818 1.469839 -0.012375
v -0.284818 1.528943 -0.064080
v -0.284818 1.450184 -0.034843
v -0.284818 1.509288 -0.086548
v 0.322558 1.469839 -0.012375
v 0.322558 1.528943 -0.064080
v 0.322558 1.450184 -0.034843
v 0.322558 1.509288 -0.086548
vn -1.0000 -0.0000 -0.0000
vn -0.0000 -0.6584 -0.7526
vn 1.0000 -0.0000 -0.0000
vn -0.0000 0.6584 0.7526
vn -0.0000 -0.7526 0.6584
vn -0.0000 0.7526 -0.6584
vt 0.661577 0.990416
vt 0.661577 0.913237
vt 0.661577 0.932498
vt 0.661577 0.971155
vt 0.973802 0.913237
vt 0.973802 0.971155
vt 0.973802 0.932498
vt 0.973802 0.990416
vt 0.661577 0.928673
vt 0.661577 0.851494
vt 0.661577 0.870755
vt 0.661577 0.909412
vt 0.973802 0.851494
vt 0.973802 0.909412
vt 0.973802 0.870755
vt 0.973802 0.928673
vt 0.661577 0.866930
vt 0.661577 0.789751
vt 0.661577 0.809012
vt 0.661577 0.847668
vt 0.973802 0.789751
vt 0.973802 0.866930
vt 0.973802 0.809012
vt 0.973802 0.847668
vt 0.661577 0.805187
vt 0.661577 0.728008
vt 0.661577 0.747269
vt 0.661577 0.785925
vt 0.973802 0.728008
vt 0.973802 0.805187
vt 0.973802 0.747269
vt 0.973802 0.785925
vt 0.661577 0.743444
vt 0.661577 0.666264
vt 0.661577 0.685526
vt 0.661577 0.724182
vt 0.973802 0.666264
vt 0.973802 0.724182
vt 0.973802 0.685526
vt 0.973802 0.743444
s 0
usemtl Door04
f 2/1/1 3/2/1 1/3/1
f 4/4/2 7/5/2 3/2/2
f 8/6/3 5/7/3 7/5/3
f 6/8/4 1/3/4 5/7/4
f 7/5/5 1/3/5 3/2/5
f 4/4/6 6/8/6 8/6/6
f 10/9/1 11/10/1 9/11/1
f 12/12/2 15/13/2 11/10/2
f 16/14/3 13/15/3 15/13/3
f 14/16/4 9/11/4 13/15/4
f 15/13/5 9/11/5 11/10/5
f 12/12/6 14/16/6 16/14/6
f 18/17/1 19/18/1 17/19/1
f 20/20/2 23/21/2 19/18/2
f 23/21/3 22/22/3 21/23/3
f 22/22/4 17/19/4 21/23/4
f 23/21/5 17/19/5 19/18/5
f 20/20/6 22/22/6 24/24/6
f 26/25/1 27/26/1 25/27/1
f 28/28/2 31/29/2 27/26/2
f 31/29/3 30/30/3 29/31/3
f 30/30/4 25/27/4 29/31/4
f 31/29/5 25/27/5 27/26/5
f 28/28/6 30/30/6 32/32/6
f 34/33/1 35/34/1 33/35/1
f 36/36/2 39/37/2 35/34/2
f 40/38/3 37/39/3 39/37/3
f 38/40/4 33/35/4 37/39/4
f 39/37/5 33/35/5 35/34/5
f 36/36/6 38/40/6 40/38/6
f 2/1/1 4/4/1 3/2/1
f 4/4/2 8/6/2 7/5/2
f 8/6/3 6/8/3 5/7/3
f 6/8/4 2/1/4 1/3/4
f 7/5/5 5/7/5 1/3/5
f 4/4/6 2/1/6 6/8/6
f 10/9/1 12/12/1 11/10/1
f 12/12/2 16/14/2 15/13/2
f 16/14/3 14/16/3 13/15/3
f 14/16/4 10/9/4 9/11/4
f 15/13/5 13/15/5 9/11/5
f 12/12/6 10/9/6 14/16/6
f 18/17/1 20/20/1 19/18/1
f 20/20/2 24/24/2 23/21/2
f 23/21/3 24/24/3 22/22/3
f 22/22/4 18/17/4 17/19/4
f 23/21/5 21/23/5 17/19/5
f 20/20/6 18/17/6 22/22/6
f 26/25/1 28/28/1 27/26/1
f 28/28/2 32/32/2 31/29/2
f 31/29/3 32/32/3 30/30/3
f 30/30/4 26/25/4 25/27/4
f 31/29/5 29/31/5 25/27/5
f 28/28/6 26/25/6 30/30/6
f 34/33/1 36/36/1 35/34/1
f 36/36/2 40/38/2 39/37/2
f 40/38/3 38/40/3 37/39/3
f 38/40/4 34/33/4 33/35/4
f 39/37/5 37/39/5 33/35/5
f 36/36/6 34/33/6 38/40/6
