# Blender 4.1.0
# www.blender.org
mtllib Door.001.mtl
o Door.001
v 0.321580 1.166747 -0.133683
v 0.409993 1.166747 -0.133683
v 0.409993 1.114426 -0.133683
v 0.321580 1.114426 -0.133683
v 0.321580 1.164360 -0.266289
v 0.409993 1.164360 -0.266289
v 0.409993 1.116814 -0.244452
v 0.321580 1.116814 -0.244452
v 0.321580 1.115533 -0.309229
v 0.409993 1.115533 -0.309229
v 0.409993 1.097355 -0.260167
v 0.321580 1.097355 -0.260167
v 0.321580 0.857019 -0.308690
v 0.409993 0.857019 -0.308690
v 0.409993 0.877875 -0.260706
v 0.321580 0.877875 -0.260706
v 0.321580 0.815744 -0.264962
v 0.409993 0.815744 -0.264962
v 0.409993 0.864422 -0.245779
v 0.321580 0.864422 -0.245779
v 0.321580 0.813923 -0.133666
v 0.409993 0.813923 -0.133666
v 0.409993 0.866244 -0.133666
v 0.321580 0.866244 -0.133666
v -0.536982 2.125598 0.006553
v -0.536982 2.125598 -0.118705
v 0.540892 2.125598 0.006553
v 0.540892 2.125598 -0.118705
v -0.536982 0.383755 0.006553
v -0.536982 0.383755 -0.118705
v 0.540892 0.383755 -0.118705
v 0.540892 0.383755 0.006553
v -0.536982 0.383755 -0.147302
v -0.536982 0.000000 -0.147302
v 0.540892 0.000000 -0.147302
v 0.540892 0.383755 -0.147302
v 0.540892 0.383755 0.028156
v 0.540892 0.000000 0.028156
v -0.536982 0.000000 0.028156
v -0.536982 0.383755 0.028156
v -0.536982 1.242792 0.006553
v -0.536982 1.242792 -0.118705
v 0.540892 1.242792 -0.118705
v 0.540892 1.242792 0.006553
v -0.536982 0.746503 -0.118705
v 0.540892 0.746503 -0.118705
v 0.540892 0.746503 0.006553
v -0.536982 0.746503 0.006553
v -0.536982 1.893079 0.006553
v -0.536982 1.893079 -0.118705
v 0.540892 1.893079 -0.118705
v 0.540892 1.893079 0.006553
v -0.536982 1.893079 0.029112
v -0.536982 2.125598 0.029112
v -0.536982 2.125598 -0.141264
v 0.540892 2.125598 -0.141264
v 0.540892 2.125598 0.029112
v -0.536982 0.746503 0.029112
v -0.536982 1.242792 0.029112
v 0.540892 1.242792 0.029112
v -0.536982 1.242792 -0.141264
v 0.540892 1.242792 -0.141264
v -0.536982 0.746503 -0.141264
v 0.540892 0.746503 -0.141264
v 0.540892 0.746503 0.029112
v -0.536982 1.893079 -0.141264
v 0.540892 1.893079 -0.141264
v 0.540892 1.893079 0.029112
v -0.262184 1.762224 0.006553
v 0.308462 1.479346 0.006553
v 0.308462 1.762224 0.006553
v -0.262184 1.479346 0.006553
v -0.262184 1.479346 -0.118705
v -0.262184 1.762224 -0.118705
v 0.308462 1.762224 -0.118705
v 0.308462 1.479346 -0.118705
vn -1.0000 -0.0000 -0.0000
vn -0.0000 0.9998 -0.0180
vn 1.0000 -0.0000 -0.0000
vn -0.0000 -0.9998 -0.0216
vn -0.0000 0.6604 -0.7509
vn -0.0000 -0.6283 0.7780
vn -0.0000 -0.0021 -1.0000
vn -0.0000 -0.0025 1.0000
vn -0.0000 -0.7272 -0.6864
vn -0.0000 0.7428 0.6695
vn -0.0000 -0.9999 -0.0139
vn -0.0000 0.9999 -0.0162
vn -0.0000 -1.0000 -0.0000
vn -0.0000 1.0000 -0.0000
vn -0.0000 -0.0000 1.0000
vn -0.0000 -0.0000 -1.0000
vt 0.944995 0.807532
vt 0.944995 0.784536
vt 0.944995 0.783437
vt 0.984114 0.806433
vt 0.984114 0.807532
vt 0.984114 0.784536
vt 0.984114 0.783437
vt 0.944995 0.783947
vt 0.944995 0.806433
vt 0.984114 0.783947
vt 0.944995 0.775575
vt 0.944995 0.674497
vt 0.984114 0.664892
vt 0.984114 0.674497
vt 0.984114 0.775575
vt 0.944995 0.645884
vt 0.944995 0.664892
vt 0.984114 0.645884
vt 0.944995 0.668302
vt 0.944995 0.645045
vt 0.984114 0.645045
vt 0.984114 0.668302
vt 0.944995 0.669141
vt 0.148892 0.882761
vt 0.148892 0.989844
vt 0.148892 0.354726
vt 0.148892 0.583283
vt 0.625803 0.989844
vt 0.625803 0.882761
vt 0.625803 0.010937
vt 0.148892 0.010937
vt 0.148892 0.187669
vt 0.625803 0.187669
vt 0.625803 0.583283
vt 0.625803 0.354726
vt 0.522963 0.692224
vt 0.270478 0.822498
vt 0.522963 0.822498
vt 0.270478 0.692224
vt 0.984114 0.669141
s 0
usemtl Door04
f 1/1/1 8/2/1 4/3/1
f 6/4/2 1/1/2 2/5/2
f 7/6/3 2/5/3 3/7/3
f 8/2/4 3/7/4 4/3/4
f 9/8/1 8/2/1 5/9/1
f 10/10/5 5/9/5 6/4/5
f 7/6/3 10/10/3 6/4/3
f 12/11/6 7/6/6 8/2/6
f 9/8/1 16/12/1 12/11/1
f 14/13/7 9/8/7 10/10/7
f 15/14/3 10/10/3 11/15/3
f 16/12/8 11/15/8 12/11/8
f 17/16/1 16/12/1 13/17/1
f 18/18/9 13/17/9 14/13/9
f 15/14/3 18/18/3 14/13/3
f 20/19/10 15/14/10 16/12/10
f 21/20/1 20/19/1 17/16/1
f 22/21/11 17/16/11 18/18/11
f 19/22/3 22/21/3 18/18/3
f 24/23/12 19/22/12 20/19/12
f 49/24/1 26/25/1 50/24/1
f 48/26/1 59/27/1 41/27/1
f 28/28/3 52/29/3 51/29/3
f 50/24/13 67/29/13 51/29/13
f 35/30/13 39/31/13 34/31/13
f 26/25/14 27/28/14 28/28/14
f 29/32/14 37/33/14 32/33/14
f 31/33/3 38/30/3 35/30/3
f 31/33/14 33/32/14 30/32/14
f 39/31/1 30/32/1 34/31/1
f 37/33/15 39/31/15 38/30/15
f 33/32/16 35/30/16 34/31/16
f 34/31/1 30/32/1 33/32/1
f 29/32/1 39/31/1 40/32/1
f 31/33/3 35/30/3 36/33/3
f 38/30/3 32/33/3 37/33/3
f 49/24/1 54/25/1 25/25/1
f 43/34/3 47/35/3 46/35/3
f 43/34/14 61/27/14 42/27/14
f 41/27/1 45/26/1 48/26/1
f 48/26/1 30/32/1 29/32/1
f 45/26/16 31/33/16 30/32/16
f 46/35/3 32/33/3 31/33/3
f 47/35/15 29/32/15 32/33/15
f 52/29/15 70/36/15 44/34/15
f 49/24/15 41/27/15 69/37/15
f 51/29/3 44/34/3 43/34/3
f 51/29/16 76/36/16 75/38/16
f 42/27/16 50/24/16 73/39/16
f 49/24/1 42/27/1 41/27/1
f 55/25/16 67/29/16 66/24/16
f 57/28/15 53/24/15 68/29/15
f 60/34/15 58/26/15 65/35/15
f 61/27/16 64/35/16 63/26/16
f 47/35/13 58/26/13 48/26/13
f 42/27/1 63/26/1 45/26/1
f 46/35/3 62/34/3 43/34/3
f 26/25/1 66/24/1 50/24/1
f 28/28/14 55/25/14 26/25/14
f 44/34/3 65/35/3 47/35/3
f 51/29/3 56/28/3 28/28/3
f 41/27/14 60/34/14 44/34/14
f 27/28/3 68/29/3 52/29/3
f 52/29/13 53/24/13 49/24/13
f 25/25/14 57/28/14 27/28/14
f 45/26/13 64/35/13 46/35/13
f 69/37/3 73/39/3 74/37/3
f 70/36/1 75/38/1 76/36/1
f 72/39/14 76/36/14 73/39/14
f 69/37/13 75/38/13 71/38/13
f 1/1/1 5/9/1 8/2/1
f 6/4/2 5/9/2 1/1/2
f 7/6/3 6/4/3 2/5/3
f 8/2/4 7/6/4 3/7/4
f 9/8/1 12/11/1 8/2/1
f 10/10/5 9/8/5 5/9/5
f 7/6/3 11/15/3 10/10/3
f 12/11/6 11/15/6 7/6/6
f 9/8/1 13/17/1 16/12/1
f 14/13/7 13/17/7 9/8/7
f 15/14/3 14/13/3 10/10/3
f 16/12/8 15/14/8 11/15/8
f 17/16/1 20/19/1 16/12/1
f 18/18/9 17/16/9 13/17/9
f 15/14/3 19/22/3 18/18/3
f 20/19/10 19/22/10 15/14/10
f 21/20/1 24/23/1 20/19/1
f 22/21/11 21/20/11 17/16/11
f 19/22/3 23/40/3 22/21/3
f 24/23/12 23/40/12 19/22/12
f 49/24/1 25/25/1 26/25/1
f 48/26/1 58/26/1 59/27/1
f 28/28/3 27/28/3 52/29/3
f 50/24/13 66/24/13 67/29/13
f 35/30/13 38/30/13 39/31/13
f 26/25/14 25/25/14 27/28/14
f 29/32/14 40/32/14 37/33/14
f 31/33/3 32/33/3 38/30/3
f 31/33/14 36/33/14 33/32/14
f 39/31/1 29/32/1 30/32/1
f 37/33/15 40/32/15 39/31/15
f 33/32/16 36/33/16 35/30/16
f 49/24/1 53/24/1 54/25/1
f 43/34/3 44/34/3 47/35/3
f 43/34/14 62/34/14 61/27/14
f 41/27/1 42/27/1 45/26/1
f 48/26/1 45/26/1 30/32/1
f 45/26/16 46/35/16 31/33/16
f 46/35/3 47/35/3 32/33/3
f 47/35/15 48/26/15 29/32/15
f 52/29/15 71/38/15 70/36/15
f 69/37/15 71/38/15 52/29/15
f 41/27/15 44/34/15 70/36/15
f 41/27/15 70/36/15 72/39/15
f 69/37/15 52/29/15 49/24/15
f 41/27/15 72/39/15 69/37/15
f 51/29/3 52/29/3 44/34/3
f 51/29/16 43/34/16 76/36/16
f 73/39/16 76/36/16 43/34/16
f 50/24/16 51/29/16 75/38/16
f 50/24/16 75/38/16 74/37/16
f 73/39/16 43/34/16 42/27/16
f 50/24/16 74/37/16 73/39/16
f 49/24/1 50/24/1 42/27/1
f 55/25/16 56/28/16 67/29/16
f 57/28/15 54/25/15 53/24/15
f 60/34/15 59/27/15 58/26/15
f 61/27/16 62/34/16 64/35/16
f 47/35/13 65/35/13 58/26/13
f 42/27/1 61/27/1 63/26/1
f 46/35/3 64/35/3 62/34/3
f 26/25/1 55/25/1 66/24/1
f 28/28/14 56/28/14 55/25/14
f 44/34/3 60/34/3 65/35/3
f 51/29/3 67/29/3 56/28/3
f 41/27/14 59/27/14 60/34/14
f 27/28/3 57/28/3 68/29/3
f 52/29/13 68/29/13 53/24/13
f 25/25/14 54/25/14 57/28/14
f 45/26/13 63/26/13 64/35/13
f 69/37/3 72/39/3 73/39/3
f 70/36/1 71/38/1 75/38/1
f 72/39/14 70/36/14 76/36/14
f 69/37/13 74/37/13 75/38/13
