# Blender 4.1.0
# www.blender.org
mtllib Hinge.002.mtl
o Hinge.002
v -0.536983 0.696732 -0.100574
v -0.536983 0.429787 -0.100574
v -0.572220 0.696732 -0.120918
v -0.572220 0.429787 -0.120918
v -0.572220 0.696732 -0.161606
v -0.572220 0.429787 -0.161606
v -0.536983 0.696732 -0.181950
v -0.536983 0.429787 -0.181950
v -0.501746 0.696732 -0.161606
v -0.501746 0.429787 -0.161606
v -0.501746 0.696732 -0.120918
v -0.501746 0.429787 -0.120918
v -0.536983 1.490366 -0.100574
v -0.536983 1.757310 -0.100574
v -0.572220 1.490366 -0.120918
v -0.572220 1.757310 -0.120918
v -0.572220 1.490366 -0.161606
v -0.572220 1.757310 -0.161606
v -0.536983 1.490366 -0.181950
v -0.536983 1.757310 -0.181950
v -0.501746 1.490366 -0.161606
v -0.501746 1.757310 -0.161606
v -0.501746 1.490366 -0.120918
v -0.501746 1.757310 -0.120918
vn 0.5000 -0.0000 -0.8660
vn 1.0000 -0.0000 -0.0000
vn 0.5000 -0.0000 0.8660
vn -0.5000 -0.0000 0.8660
vn -0.0000 1.0000 -0.0000
vn -1.0000 -0.0000 -0.0000
vn -0.5000 -0.0000 -0.8660
vn -0.0000 -1.0000 -0.0000
vt 0.149339 0.265822
vt 0.133749 0.388758
vt 0.149339 0.388758
vt 0.133749 0.265822
vt 0.164930 0.388758
vt 0.164930 0.265822
vt 0.133749 0.796623
vt 0.149339 0.919559
vt 0.149339 0.796623
vt 0.133749 0.919559
vt 0.164930 0.796623
vt 0.164930 0.919559
s 0
usemtl Door04
f 2/1/1 3/2/1 1/3/1
f 4/4/2 5/2/2 3/2/2
f 6/4/3 7/3/3 5/2/3
f 8/1/4 9/5/4 7/3/4
f 2/1/5 10/6/5 6/4/5
f 10/6/6 11/5/6 9/5/6
f 12/6/7 1/3/7 11/5/7
f 3/2/8 7/3/8 11/5/8
f 15/7/1 14/8/1 13/9/1
f 17/7/2 16/10/2 15/7/2
f 19/9/3 18/10/3 17/7/3
f 21/11/4 20/8/4 19/9/4
f 18/10/8 22/12/8 14/8/8
f 23/11/6 22/12/6 21/11/6
f 13/9/7 24/12/7 23/11/7
f 23/11/5 19/9/5 15/7/5
f 2/1/1 4/4/1 3/2/1
f 4/4/2 6/4/2 5/2/2
f 6/4/3 8/1/3 7/3/3
f 8/1/4 10/6/4 9/5/4
f 6/4/5 4/4/5 2/1/5
f 2/1/5 12/6/5 10/6/5
f 10/6/5 8/1/5 6/4/5
f 10/6/6 12/6/6 11/5/6
f 12/6/7 2/1/7 1/3/7
f 11/5/8 1/3/8 3/2/8
f 3/2/8 5/2/8 7/3/8
f 7/3/8 9/5/8 11/5/8
f 15/7/1 16/10/1 14/8/1
f 17/7/2 18/10/2 16/10/2
f 19/9/3 20/8/3 18/10/3
f 21/11/4 22/12/4 20/8/4
f 14/8/8 16/10/8 18/10/8
f 18/10/8 20/8/8 22/12/8
f 22/12/8 24/12/8 14/8/8
f 23/11/6 24/12/6 22/12/6
f 13/9/7 14/8/7 24/12/7
f 15/7/5 13/9/5 23/11/5
f 23/11/5 21/11/5 19/9/5
f 19/9/5 17/7/5 15/7/5
