# Blender 4.0.2
# www.blender.org
mtllib BottleWineCapped.mtl
o Cap
v 0.000000 0.493719 0.000000
v 0.028079 0.493719 0.000000
v 0.032665 0.487450 0.000000
v 0.026427 0.415879 0.000000
v 0.019664 0.409116 0.000000
v 0.000000 0.408552 0.000000
v 0.025942 0.493719 -0.010745
v 0.030178 0.487450 -0.012500
v 0.024415 0.415879 -0.010113
v 0.018167 0.409116 -0.007525
v 0.019855 0.493719 -0.019855
v 0.023098 0.487450 -0.023098
v 0.018687 0.415879 -0.018687
v 0.013905 0.409116 -0.013905
v 0.010745 0.493719 -0.025942
v 0.012500 0.487450 -0.030178
v 0.010113 0.415879 -0.024415
v 0.007525 0.409116 -0.018167
v 0.000000 0.493719 -0.028079
v 0.000000 0.487450 -0.032665
v 0.000000 0.415879 -0.026427
v -0.000000 0.409116 -0.019664
v -0.010745 0.493719 -0.025942
v -0.012500 0.487450 -0.030178
v -0.010113 0.415879 -0.024415
v -0.007525 0.409116 -0.018167
v -0.019855 0.493719 -0.019855
v -0.023098 0.487450 -0.023098
v -0.018687 0.415879 -0.018687
v -0.013905 0.409116 -0.013905
v -0.025942 0.493719 -0.010745
v -0.030178 0.487450 -0.012500
v -0.024415 0.415879 -0.010113
v -0.018167 0.409116 -0.007525
v -0.028079 0.493719 -0.000000
v -0.032665 0.487450 -0.000000
v -0.026427 0.415879 -0.000000
v -0.019664 0.409116 0.000000
v -0.025942 0.493719 0.010745
v -0.030178 0.487450 0.012500
v -0.024415 0.415879 0.010113
v -0.018167 0.409116 0.007525
v -0.019855 0.493719 0.019855
v -0.023098 0.487450 0.023098
v -0.018687 0.415879 0.018687
v -0.013905 0.409116 0.013905
v -0.010745 0.493719 0.025942
v -0.012500 0.487450 0.030178
v -0.010113 0.415879 0.024415
v -0.007525 0.409116 0.018167
v -0.000000 0.493719 0.028079
v -0.000000 0.487450 0.032665
v -0.000000 0.415879 0.026427
v 0.000000 0.409116 0.019664
v 0.010745 0.493719 0.025942
v 0.012500 0.487450 0.030178
v 0.010113 0.415879 0.024415
v 0.007525 0.409116 0.018167
v 0.019855 0.493719 0.019855
v 0.023098 0.487450 0.023098
v 0.018687 0.415879 0.018687
v 0.013905 0.409116 0.013905
v 0.025942 0.493719 0.010745
v 0.030178 0.487450 0.012500
v 0.024415 0.415879 0.010113
v 0.018167 0.409116 0.007525
vn -0.0000 1.0000 -0.0000
vn 0.4952 0.8688 -0.0000
vn 0.4575 0.8688 -0.1895
vn 0.3502 0.8688 -0.3502
vn 0.1895 0.8688 -0.4575
vn -0.0000 0.8688 -0.4952
vn -0.1895 0.8688 -0.4575
vn -0.3502 0.8688 -0.3502
vn -0.4575 0.8688 -0.1895
vn -0.4952 0.8688 -0.0000
vn -0.4575 0.8688 0.1895
vn -0.3502 0.8688 0.3502
vn -0.1895 0.8688 0.4575
vn -0.0000 0.8688 0.4952
vn 0.1895 0.8688 0.4575
vn 0.3502 0.8688 0.3502
vn 0.4575 0.8688 0.1895
vn 0.9661 0.2583 -0.0000
vn 0.8925 0.2583 -0.3697
vn 0.6831 0.2583 -0.6831
vn 0.3697 0.2583 -0.8925
vn -0.0000 0.2583 -0.9661
vn -0.3697 0.2583 -0.8925
vn -0.6831 0.2583 -0.6831
vn -0.8925 0.2583 -0.3697
vn -0.9661 0.2583 -0.0000
vn -0.8925 0.2583 0.3697
vn -0.6831 0.2583 0.6831
vn -0.3697 0.2583 0.8925
vn -0.0000 0.2583 0.9661
vn 0.3697 0.2583 0.8925
vn 0.6831 0.2583 0.6831
vn 0.8925 0.2583 0.3697
vn 0.9134 -0.4070 -0.0000
vn 0.8439 -0.4070 -0.3496
vn 0.6459 -0.4070 -0.6459
vn 0.3496 -0.4070 -0.8439
vn -0.0000 -0.4070 -0.9134
vn -0.3496 -0.4070 -0.8439
vn -0.6459 -0.4070 -0.6459
vn -0.8439 -0.4070 -0.3496
vn -0.9134 -0.4070 -0.0000
vn -0.8439 -0.4070 0.3496
vn -0.6459 -0.4070 0.6459
vn -0.3496 -0.4070 0.8439
vn -0.0000 -0.4070 0.9134
vn 0.3496 -0.4070 0.8439
vn 0.6459 -0.4070 0.6459
vn 0.8439 -0.4070 0.3496
vn 0.4334 -0.9012 -0.0000
vn 0.4004 -0.9012 -0.1658
vn 0.3064 -0.9012 -0.3064
vn 0.1658 -0.9012 -0.4004
vn -0.0000 -0.9012 -0.4334
vn -0.1658 -0.9012 -0.4004
vn -0.3064 -0.9012 -0.3064
vn -0.4004 -0.9012 -0.1658
vn -0.4334 -0.9012 -0.0000
vn -0.4004 -0.9012 0.1658
vn -0.3064 -0.9012 0.3064
vn -0.1658 -0.9012 0.4004
vn -0.0000 -0.9012 0.4334
vn 0.1658 -0.9012 0.4004
vn 0.3064 -0.9012 0.3064
vn 0.4004 -0.9012 0.1658
vn -0.0000 -1.0000 -0.0000
vt 0.031250 0.041240
vt 0.000000 0.041240
vt 0.062500 0.041240
vt 0.093750 0.041240
vt 0.125000 0.041240
vt 0.156250 0.041240
vt 0.187500 0.041240
vt 0.218750 0.041240
vt 0.250000 0.041240
vt 0.281250 0.041240
vt 0.312500 0.041240
vt 0.343750 0.041240
vt 0.375000 0.041240
vt 0.406250 0.041240
vt 0.437500 0.041240
vt 0.468750 0.041240
vt 0.500000 0.041240
vt 0.531250 0.041240
vt 0.562500 0.041240
vt 0.593750 0.041240
vt 0.625000 0.041240
vt 0.656250 0.041240
vt 0.687500 0.041240
vt 0.718750 0.041240
vt 0.750000 0.041240
vt 0.781250 0.041240
vt 0.812500 0.041240
vt 0.843750 0.041240
vt 0.875000 0.041240
vt 0.906250 0.041240
vt 0.937500 0.041240
vt 0.968750 0.041240
vt 1.000000 0.041240
vt 0.000000 0.034971
vt 0.062500 0.034971
vt 0.125000 0.034971
vt 0.187500 0.034971
vt 0.250000 0.034971
vt 0.312500 0.034971
vt 0.375000 0.034971
vt 0.437500 0.034971
vt 0.500000 0.034971
vt 0.562500 0.034971
vt 0.625000 0.034971
vt 0.687500 0.034971
vt 0.750000 0.034971
vt 0.812500 0.034971
vt 0.875000 0.034971
vt 0.937500 0.034971
vt 1.000000 0.034971
vt 0.000000 -0.036600
vt 0.062500 -0.036600
vt 0.125000 -0.036600
vt 0.187500 -0.036600
vt 0.250000 -0.036600
vt 0.312500 -0.036600
vt 0.375000 -0.036600
vt 0.437500 -0.036600
vt 0.500000 -0.036600
vt 0.562500 -0.036600
vt 0.625000 -0.036600
vt 0.687500 -0.036600
vt 0.750000 -0.036600
vt 0.812500 -0.036600
vt 0.875000 -0.036600
vt 0.937500 -0.036600
vt 1.000000 -0.036600
vt 0.000000 -0.043363
vt 0.062500 -0.043363
vt 0.125000 -0.043363
vt 0.187500 -0.043363
vt 0.250000 -0.043363
vt 0.312500 -0.043363
vt 0.375000 -0.043363
vt 0.437500 -0.043363
vt 0.500000 -0.043363
vt 0.562500 -0.043363
vt 0.625000 -0.043363
vt 0.687500 -0.043363
vt 0.750000 -0.043363
vt 0.812500 -0.043363
vt 0.875000 -0.043363
vt 0.937500 -0.043363
vt 1.000000 -0.043363
vt 0.031250 -0.043927
vt 0.093750 -0.043927
vt 0.156250 -0.043927
vt 0.218750 -0.043927
vt 0.281250 -0.043927
vt 0.343750 -0.043927
vt 0.406250 -0.043927
vt 0.468750 -0.043927
vt 0.531250 -0.043927
vt 0.593750 -0.043927
vt 0.656250 -0.043927
vt 0.718750 -0.043927
vt 0.781250 -0.043927
vt 0.843750 -0.043927
vt 0.906250 -0.043927
vt 0.968750 -0.043927
s 1
f 1/1/1 2/2/2 7/3/3
f 1/4/1 7/3/3 11/5/4
f 1/6/1 11/5/4 15/7/5
f 1/8/1 15/7/5 19/9/6
f 1/10/1 19/9/6 23/11/7
f 1/12/1 23/11/7 27/13/8
f 1/14/1 27/13/8 31/15/9
f 1/16/1 31/15/9 35/17/10
f 1/18/1 35/17/10 39/19/11
f 1/20/1 39/19/11 43/21/12
f 1/22/1 43/21/12 47/23/13
f 1/24/1 47/23/13 51/25/14
f 1/26/1 51/25/14 55/27/15
f 1/28/1 55/27/15 59/29/16
f 1/30/1 59/29/16 63/31/17
f 1/32/1 63/31/17 2/33/2
f 2/2/2 3/34/18 8/35/19 7/3/3
f 7/3/3 8/35/19 12/36/20 11/5/4
f 11/5/4 12/36/20 16/37/21 15/7/5
f 15/7/5 16/37/21 20/38/22 19/9/6
f 19/9/6 20/38/22 24/39/23 23/11/7
f 23/11/7 24/39/23 28/40/24 27/13/8
f 27/13/8 28/40/24 32/41/25 31/15/9
f 31/15/9 32/41/25 36/42/26 35/17/10
f 35/17/10 36/42/26 40/43/27 39/19/11
f 39/19/11 40/43/27 44/44/28 43/21/12
f 43/21/12 44/44/28 48/45/29 47/23/13
f 47/23/13 48/45/29 52/46/30 51/25/14
f 51/25/14 52/46/30 56/47/31 55/27/15
f 55/27/15 56/47/31 60/48/32 59/29/16
f 59/29/16 60/48/32 64/49/33 63/31/17
f 63/31/17 64/49/33 3/50/18 2/33/2
f 3/34/18 4/51/34 9/52/35 8/35/19
f 8/35/19 9/52/35 13/53/36 12/36/20
f 12/36/20 13/53/36 17/54/37 16/37/21
f 16/37/21 17/54/37 21/55/38 20/38/22
f 20/38/22 21/55/38 25/56/39 24/39/23
f 24/39/23 25/56/39 29/57/40 28/40/24
f 28/40/24 29/57/40 33/58/41 32/41/25
f 32/41/25 33/58/41 37/59/42 36/42/26
f 36/42/26 37/59/42 41/60/43 40/43/27
f 40/43/27 41/60/43 45/61/44 44/44/28
f 44/44/28 45/61/44 49/62/45 48/45/29
f 48/45/29 49/62/45 53/63/46 52/46/30
f 52/46/30 53/63/46 57/64/47 56/47/31
f 56/47/31 57/64/47 61/65/48 60/48/32
f 60/48/32 61/65/48 65/66/49 64/49/33
f 64/49/33 65/66/49 4/67/34 3/50/18
f 4/51/34 5/68/50 10/69/51 9/52/35
f 9/52/35 10/69/51 14/70/52 13/53/36
f 13/53/36 14/70/52 18/71/53 17/54/37
f 17/54/37 18/71/53 22/72/54 21/55/38
f 21/55/38 22/72/54 26/73/55 25/56/39
f 25/56/39 26/73/55 30/74/56 29/57/40
f 29/57/40 30/74/56 34/75/57 33/58/41
f 33/58/41 34/75/57 38/76/58 37/59/42
f 37/59/42 38/76/58 42/77/59 41/60/43
f 41/60/43 42/77/59 46/78/60 45/61/44
f 45/61/44 46/78/60 50/79/61 49/62/45
f 49/62/45 50/79/61 54/80/62 53/63/46
f 53/63/46 54/80/62 58/81/63 57/64/47
f 57/64/47 58/81/63 62/82/64 61/65/48
f 61/65/48 62/82/64 66/83/65 65/66/49
f 65/66/49 66/83/65 5/84/50 4/67/34
f 5/68/50 6/85/66 10/69/51
f 10/69/51 6/86/66 14/70/52
f 14/70/52 6/87/66 18/71/53
f 18/71/53 6/88/66 22/72/54
f 22/72/54 6/89/66 26/73/55
f 26/73/55 6/90/66 30/74/56
f 30/74/56 6/91/66 34/75/57
f 34/75/57 6/92/66 38/76/58
f 38/76/58 6/93/66 42/77/59
f 42/77/59 6/94/66 46/78/60
f 46/78/60 6/95/66 50/79/61
f 50/79/61 6/96/66 54/80/62
f 54/80/62 6/97/66 58/81/63
f 58/81/63 6/98/66 62/82/64
f 62/82/64 6/99/66 66/83/65
f 66/83/65 6/100/66 5/84/50
o Cap
v 0.000000 0.493719 0.000000
v 0.028079 0.493719 0.000000
v 0.032665 0.487450 0.000000
v 0.026427 0.415879 0.000000
v 0.019664 0.409116 0.000000
v 0.000000 0.408552 0.000000
v 0.025942 0.493719 -0.010745
v 0.030178 0.487450 -0.012500
v 0.024415 0.415879 -0.010113
v 0.018167 0.409116 -0.007525
v 0.019855 0.493719 -0.019855
v 0.023098 0.487450 -0.023098
v 0.018687 0.415879 -0.018687
v 0.013905 0.409116 -0.013905
v 0.010745 0.493719 -0.025942
v 0.012500 0.487450 -0.030178
v 0.010113 0.415879 -0.024415
v 0.007525 0.409116 -0.018167
v 0.000000 0.493719 -0.028079
v 0.000000 0.487450 -0.032665
v 0.000000 0.415879 -0.026427
v -0.000000 0.409116 -0.019664
v -0.010745 0.493719 -0.025942
v -0.012500 0.487450 -0.030178
v -0.010113 0.415879 -0.024415
v -0.007525 0.409116 -0.018167
v -0.019855 0.493719 -0.019855
v -0.023098 0.487450 -0.023098
v -0.018687 0.415879 -0.018687
v -0.013905 0.409116 -0.013905
v -0.025942 0.493719 -0.010745
v -0.030178 0.487450 -0.012500
v -0.024415 0.415879 -0.010113
v -0.018167 0.409116 -0.007525
v -0.028079 0.493719 -0.000000
v -0.032665 0.487450 -0.000000
v -0.026427 0.415879 -0.000000
v -0.019664 0.409116 0.000000
v -0.025942 0.493719 0.010745
v -0.030178 0.487450 0.012500
v -0.024415 0.415879 0.010113
v -0.018167 0.409116 0.007525
v -0.019855 0.493719 0.019855
v -0.023098 0.487450 0.023098
v -0.018687 0.415879 0.018687
v -0.013905 0.409116 0.013905
v -0.010745 0.493719 0.025942
v -0.012500 0.487450 0.030178
v -0.010113 0.415879 0.024415
v -0.007525 0.409116 0.018167
v -0.000000 0.493719 0.028079
v -0.000000 0.487450 0.032665
v -0.000000 0.415879 0.026427
v 0.000000 0.409116 0.019664
v 0.010745 0.493719 0.025942
v 0.012500 0.487450 0.030178
v 0.010113 0.415879 0.024415
v 0.007525 0.409116 0.018167
v 0.019855 0.493719 0.019855
v 0.023098 0.487450 0.023098
v 0.018687 0.415879 0.018687
v 0.013905 0.409116 0.013905
v 0.025942 0.493719 0.010745
v 0.030178 0.487450 0.012500
v 0.024415 0.415879 0.010113
v 0.018167 0.409116 0.007525
vn -0.0000 1.0000 -0.0000
vn 0.4952 0.8688 -0.0000
vn 0.4575 0.8688 -0.1895
vn 0.3502 0.8688 -0.3502
vn 0.1895 0.8688 -0.4575
vn -0.0000 0.8688 -0.4952
vn -0.1895 0.8688 -0.4575
vn -0.3502 0.8688 -0.3502
vn -0.4575 0.8688 -0.1895
vn -0.4952 0.8688 -0.0000
vn -0.4575 0.8688 0.1895
vn -0.3502 0.8688 0.3502
vn -0.1895 0.8688 0.4575
vn -0.0000 0.8688 0.4952
vn 0.1895 0.8688 0.4575
vn 0.3502 0.8688 0.3502
vn 0.4575 0.8688 0.1895
vn 0.9661 0.2583 -0.0000
vn 0.8925 0.2583 -0.3697
vn 0.6831 0.2583 -0.6831
vn 0.3697 0.2583 -0.8925
vn -0.0000 0.2583 -0.9661
vn -0.3697 0.2583 -0.8925
vn -0.6831 0.2583 -0.6831
vn -0.8925 0.2583 -0.3697
vn -0.9661 0.2583 -0.0000
vn -0.8925 0.2583 0.3697
vn -0.6831 0.2583 0.6831
vn -0.3697 0.2583 0.8925
vn -0.0000 0.2583 0.9661
vn 0.3697 0.2583 0.8925
vn 0.6831 0.2583 0.6831
vn 0.8925 0.2583 0.3697
vn 0.9134 -0.4070 -0.0000
vn 0.8439 -0.4070 -0.3496
vn 0.6459 -0.4070 -0.6459
vn -0.0000 -0.4070 -0.9134
vn -0.3496 -0.4070 -0.8439
vn -0.6459 -0.4070 -0.6459
vn -0.8439 -0.4070 -0.3496
vn -0.9134 -0.4070 -0.0000
vn -0.8439 -0.4070 0.3496
vn -0.6459 -0.4070 0.6459
vn -0.3496 -0.4070 0.8439
vn 0.3496 -0.4070 0.8439
vn 0.6459 -0.4070 0.6459
vn 0.8439 -0.4070 0.3496
vn 0.4334 -0.9012 -0.0000
vn 0.4004 -0.9012 -0.1658
vn 0.3064 -0.9012 -0.3064
vn 0.3496 -0.4070 -0.8439
vn 0.1658 -0.9012 -0.4004
vn -0.0000 -0.9012 -0.4334
vn -0.1658 -0.9012 -0.4004
vn -0.3064 -0.9012 -0.3064
vn -0.4004 -0.9012 -0.1658
vn -0.4334 -0.9012 -0.0000
vn -0.4004 -0.9012 0.1658
vn -0.3064 -0.9012 0.3064
vn -0.1658 -0.9012 0.4004
vn -0.0000 -0.4070 0.9134
vn -0.0000 -0.9012 0.4334
vn 0.1658 -0.9012 0.4004
vn 0.3064 -0.9012 0.3064
vn 0.4004 -0.9012 0.1658
vn -0.0000 -1.0000 -0.0000
vt 0.031250 0.041240
vt 0.000000 0.041240
vt 0.062500 0.041240
vt 0.093750 0.041240
vt 0.125000 0.041240
vt 0.156250 0.041240
vt 0.187500 0.041240
vt 0.218750 0.041240
vt 0.250000 0.041240
vt 0.281250 0.041240
vt 0.312500 0.041240
vt 0.343750 0.041240
vt 0.375000 0.041240
vt 0.406250 0.041240
vt 0.437500 0.041240
vt 0.468750 0.041240
vt 0.500000 0.041240
vt 0.531250 0.041240
vt 0.562500 0.041240
vt 0.593750 0.041240
vt 0.625000 0.041240
vt 0.656250 0.041240
vt 0.687500 0.041240
vt 0.718750 0.041240
vt 0.750000 0.041240
vt 0.781250 0.041240
vt 0.812500 0.041240
vt 0.843750 0.041240
vt 0.875000 0.041240
vt 0.906250 0.041240
vt 0.937500 0.041240
vt 0.968750 0.041240
vt 1.000000 0.041240
vt 0.000000 0.034971
vt 0.062500 0.034971
vt 0.125000 0.034971
vt 0.187500 0.034971
vt 0.250000 0.034971
vt 0.312500 0.034971
vt 0.375000 0.034971
vt 0.437500 0.034971
vt 0.500000 0.034971
vt 0.562500 0.034971
vt 0.625000 0.034971
vt 0.687500 0.034971
vt 0.750000 0.034971
vt 0.812500 0.034971
vt 0.875000 0.034971
vt 0.937500 0.034971
vt 0.000000 -0.036600
vt 0.062500 -0.036600
vt 0.125000 -0.036600
vt 0.250000 -0.036600
vt 0.312500 -0.036600
vt 0.375000 -0.036600
vt 0.437500 -0.036600
vt 0.500000 -0.036600
vt 0.562500 -0.036600
vt 0.625000 -0.036600
vt 0.687500 -0.036600
vt 0.812500 -0.036600
vt 0.875000 -0.036600
vt 0.937500 -0.036600
vt 1.000000 0.034971
vt 0.000000 -0.043363
vt 0.062500 -0.043363
vt 0.125000 -0.043363
vt 0.187500 -0.036600
vt 0.187500 -0.043363
vt 0.250000 -0.043363
vt 0.312500 -0.043363
vt 0.375000 -0.043363
vt 0.437500 -0.043363
vt 0.500000 -0.043363
vt 0.562500 -0.043363
vt 0.625000 -0.043363
vt 0.687500 -0.043363
vt 0.750000 -0.036600
vt 0.750000 -0.043363
vt 0.812500 -0.043363
vt 0.875000 -0.043363
vt 0.937500 -0.043363
vt 1.000000 -0.036600
vt 0.031250 -0.043927
vt 0.093750 -0.043927
vt 0.156250 -0.043927
vt 0.218750 -0.043927
vt 0.281250 -0.043927
vt 0.343750 -0.043927
vt 0.406250 -0.043927
vt 0.468750 -0.043927
vt 0.531250 -0.043927
vt 0.593750 -0.043927
vt 0.656250 -0.043927
vt 0.718750 -0.043927
vt 0.781250 -0.043927
vt 0.843750 -0.043927
vt 0.906250 -0.043927
vt 0.968750 -0.043927
vt 1.000000 -0.043363
s 1
f 67/101/67 68/102/68 73/103/69
f 67/104/67 73/103/69 77/105/70
f 67/106/67 77/105/70 81/107/71
f 67/108/67 81/107/71 85/109/72
f 67/110/67 85/109/72 89/111/73
f 67/112/67 89/111/73 93/113/74
f 67/114/67 93/113/74 97/115/75
f 67/116/67 97/115/75 101/117/76
f 67/118/67 101/117/76 105/119/77
f 67/120/67 105/119/77 109/121/78
f 67/122/67 109/121/78 113/123/79
f 67/124/67 113/123/79 117/125/80
f 67/126/67 117/125/80 121/127/81
f 67/128/67 121/127/81 125/129/82
f 67/130/67 125/129/82 129/131/83
f 67/132/67 129/131/83 68/133/68
f 69/134/84 73/103/69 68/102/68
f 74/135/85 77/105/70 73/103/69
f 78/136/86 81/107/71 77/105/70
f 82/137/87 85/109/72 81/107/71
f 86/138/88 89/111/73 85/109/72
f 90/139/89 93/113/74 89/111/73
f 94/140/90 97/115/75 93/113/74
f 98/141/91 101/117/76 97/115/75
f 102/142/92 105/119/77 101/117/76
f 106/143/93 109/121/78 105/119/77
f 110/144/94 113/123/79 109/121/78
f 114/145/95 117/125/80 113/123/79
f 118/146/96 121/127/81 117/125/80
f 122/147/97 125/129/82 121/127/81
f 126/148/98 129/131/83 125/129/82
f 130/149/99 68/133/68 129/131/83
f 70/150/100 74/135/85 69/134/84
f 75/151/101 78/136/86 74/135/85
f 79/152/102 82/137/87 78/136/86
f 82/137/87 87/153/103 86/138/88
f 87/153/103 90/139/89 86/138/88
f 91/154/104 94/140/90 90/139/89
f 95/155/105 98/141/91 94/140/90
f 99/156/106 102/142/92 98/141/91
f 103/157/107 106/143/93 102/142/92
f 107/158/108 110/144/94 106/143/93
f 111/159/109 114/145/95 110/144/94
f 115/160/110 118/146/96 114/145/95
f 118/146/96 123/161/111 122/147/97
f 123/161/111 126/148/98 122/147/97
f 127/162/112 130/149/99 126/148/98
f 131/163/113 69/164/84 130/149/99
f 71/165/114 75/151/101 70/150/100
f 76/166/115 79/152/102 75/151/101
f 80/167/116 83/168/117 79/152/102
f 84/169/118 87/153/103 83/168/117
f 88/170/119 91/154/104 87/153/103
f 92/171/120 95/155/105 91/154/104
f 96/172/121 99/156/106 95/155/105
f 100/173/122 103/157/107 99/156/106
f 104/174/123 107/158/108 103/157/107
f 108/175/124 111/159/109 107/158/108
f 112/176/125 115/160/110 111/159/109
f 116/177/126 119/178/127 115/160/110
f 120/179/128 123/161/111 119/178/127
f 124/180/129 127/162/112 123/161/111
f 128/181/130 131/163/113 127/162/112
f 132/182/131 70/183/100 131/163/113
f 71/165/114 72/184/132 76/166/115
f 76/166/115 72/185/132 80/167/116
f 80/167/116 72/186/132 84/169/118
f 84/169/118 72/187/132 88/170/119
f 88/170/119 72/188/132 92/171/120
f 92/171/120 72/189/132 96/172/121
f 96/172/121 72/190/132 100/173/122
f 100/173/122 72/191/132 104/174/123
f 104/174/123 72/192/132 108/175/124
f 108/175/124 72/193/132 112/176/125
f 112/176/125 72/194/132 116/177/126
f 116/177/126 72/195/132 120/179/128
f 120/179/128 72/196/132 124/180/129
f 124/180/129 72/197/132 128/181/130
f 128/181/130 72/198/132 132/182/131
f 132/182/131 72/199/132 71/200/114
f 69/134/84 74/135/85 73/103/69
f 74/135/85 78/136/86 77/105/70
f 78/136/86 82/137/87 81/107/71
f 82/137/87 86/138/88 85/109/72
f 86/138/88 90/139/89 89/111/73
f 90/139/89 94/140/90 93/113/74
f 94/140/90 98/141/91 97/115/75
f 98/141/91 102/142/92 101/117/76
f 102/142/92 106/143/93 105/119/77
f 106/143/93 110/144/94 109/121/78
f 110/144/94 114/145/95 113/123/79
f 114/145/95 118/146/96 117/125/80
f 118/146/96 122/147/97 121/127/81
f 122/147/97 126/148/98 125/129/82
f 126/148/98 130/149/99 129/131/83
f 130/149/99 69/164/84 68/133/68
f 70/150/100 75/151/101 74/135/85
f 75/151/101 79/152/102 78/136/86
f 79/152/102 83/168/117 82/137/87
f 82/137/87 83/168/117 87/153/103
f 87/153/103 91/154/104 90/139/89
f 91/154/104 95/155/105 94/140/90
f 95/155/105 99/156/106 98/141/91
f 99/156/106 103/157/107 102/142/92
f 103/157/107 107/158/108 106/143/93
f 107/158/108 111/159/109 110/144/94
f 111/159/109 115/160/110 114/145/95
f 115/160/110 119/178/127 118/146/96
f 118/146/96 119/178/127 123/161/111
f 123/161/111 127/162/112 126/148/98
f 127/162/112 131/163/113 130/149/99
f 131/163/113 70/183/100 69/164/84
f 71/165/114 76/166/115 75/151/101
f 76/166/115 80/167/116 79/152/102
f 80/167/116 84/169/118 83/168/117
f 84/169/118 88/170/119 87/153/103
f 88/170/119 92/171/120 91/154/104
f 92/171/120 96/172/121 95/155/105
f 96/172/121 100/173/122 99/156/106
f 100/173/122 104/174/123 103/157/107
f 104/174/123 108/175/124 107/158/108
f 108/175/124 112/176/125 111/159/109
f 112/176/125 116/177/126 115/160/110
f 116/177/126 120/179/128 119/178/127
f 120/179/128 124/180/129 123/161/111
f 124/180/129 128/181/130 127/162/112
f 128/181/130 132/182/131 131/163/113
f 132/182/131 71/200/114 70/183/100
o BottleWine
v 0.000000 0.075014 0.000000
v 0.031978 0.069257 0.000000
v 0.064062 0.042316 0.000000
v 0.064062 0.161531 0.000000
v 0.037667 0.241881 -0.000000
v 0.020872 0.309167 0.000000
v 0.020500 0.471853 0.000000
v 0.021124 0.483109 0.000000
v 0.026478 0.480712 0.000000
v 0.029269 0.317579 0.000000
v 0.043803 0.261900 0.000000
v 0.066622 0.213543 0.000000
v 0.081191 0.163678 0.000000
v 0.081986 0.113746 0.000000
v 0.081986 0.011756 0.000000
v 0.076412 0.004762 0.000000
v 0.066051 0.004762 0.000000
v 0.040324 0.041591 0.000000
v 0.000000 0.055823 0.000000
v 0.029544 0.069257 -0.012238
v 0.059185 0.042316 -0.024515
v 0.059185 0.161531 -0.024515
v 0.034799 0.241881 -0.014414
v 0.019283 0.309167 -0.007987
v 0.018940 0.471853 -0.007845
v 0.019516 0.483109 -0.008084
v 0.024463 0.480712 -0.010133
v 0.027041 0.317579 -0.011201
v 0.040468 0.261900 -0.016763
v 0.061551 0.213543 -0.025495
v 0.075011 0.163678 -0.031071
v 0.075746 0.113746 -0.031375
v 0.075746 0.011756 -0.031375
v 0.070596 0.004762 -0.029242
v 0.061023 0.004762 -0.025277
v 0.037254 0.041591 -0.015431
v 0.022612 0.069257 -0.022612
v 0.045299 0.042316 -0.045299
v 0.045299 0.161531 -0.045298
v 0.026634 0.241881 -0.026634
v 0.014759 0.309167 -0.014759
v 0.014496 0.471853 -0.014496
v 0.014937 0.483109 -0.014937
v 0.018723 0.480712 -0.018723
v 0.020696 0.317579 -0.020696
v 0.030973 0.261900 -0.030973
v 0.047109 0.213543 -0.047109
v 0.057411 0.163678 -0.057411
v 0.057973 0.113746 -0.057973
v 0.057973 0.011756 -0.057973
v 0.054032 0.004762 -0.054032
v 0.046705 0.004762 -0.046705
v 0.028513 0.041591 -0.028513
v 0.012238 0.069257 -0.029544
v 0.024515 0.042316 -0.059185
v 0.024515 0.161531 -0.059185
v 0.014414 0.241881 -0.034799
v 0.007987 0.309167 -0.019283
v 0.007845 0.471853 -0.018940
v 0.008084 0.483109 -0.019516
v 0.010133 0.480712 -0.024463
v 0.011201 0.317579 -0.027041
v 0.016763 0.261900 -0.040468
v 0.025495 0.213543 -0.061551
v 0.031071 0.163678 -0.075011
v 0.031375 0.113746 -0.075746
v 0.031375 0.011756 -0.075746
v 0.029242 0.004762 -0.070596
v 0.025277 0.004762 -0.061023
v 0.015431 0.041591 -0.037254
v 0.000000 0.069257 -0.031978
v 0.000000 0.042316 -0.064062
v 0.000000 0.161531 -0.064062
v -0.000000 0.241881 -0.037667
v -0.000000 0.309167 -0.020872
v -0.000000 0.471853 -0.020500
v 0.000000 0.483109 -0.021124
v 0.000000 0.480712 -0.026478
v -0.000000 0.317579 -0.029269
v -0.000000 0.261900 -0.043803
v 0.000000 0.213543 -0.066622
v 0.000000 0.163678 -0.081191
v 0.000000 0.113746 -0.081986
v -0.000000 0.011756 -0.081986
v -0.000000 0.004762 -0.076412
v 0.000000 0.004762 -0.066051
v 0.000000 0.041591 -0.040324
v -0.012238 0.069257 -0.029544
v -0.024515 0.042316 -0.059185
v -0.024515 0.161531 -0.059185
v -0.014414 0.241881 -0.034799
v -0.007987 0.309167 -0.019283
v -0.007845 0.471853 -0.018940
v -0.008084 0.483109 -0.019516
v -0.010133 0.480712 -0.024463
v -0.011201 0.317579 -0.027041
v -0.016763 0.261900 -0.040468
v -0.025495 0.213543 -0.061551
v -0.031071 0.163678 -0.075011
v -0.031375 0.113746 -0.075746
v -0.031375 0.011756 -0.075746
v -0.029242 0.004762 -0.070596
v -0.025277 0.004762 -0.061023
v -0.015431 0.041591 -0.037254
v -0.022612 0.069257 -0.022612
v -0.045299 0.042316 -0.045299
v -0.045298 0.161531 -0.045299
v -0.026634 0.241881 -0.026634
v -0.014759 0.309167 -0.014759
v -0.014496 0.471853 -0.014496
v -0.014937 0.483109 -0.014937
v -0.018723 0.480712 -0.018723
v -0.020696 0.317579 -0.020696
v -0.030973 0.261900 -0.030973
v -0.047109 0.213543 -0.047109
v -0.057411 0.163678 -0.057411
v -0.057973 0.113746 -0.057973
v -0.057973 0.011756 -0.057973
v -0.054032 0.004762 -0.054032
v -0.046705 0.004762 -0.046705
v -0.028513 0.041591 -0.028513
v -0.029544 0.069257 -0.012238
v -0.059185 0.042316 -0.024515
v -0.059185 0.161531 -0.024515
v -0.034799 0.241881 -0.014414
v -0.019283 0.309167 -0.007987
v -0.018940 0.471853 -0.007845
v -0.019516 0.483109 -0.008084
v -0.024463 0.480712 -0.010133
v -0.027041 0.317579 -0.011201
v -0.040468 0.261900 -0.016763
v -0.061551 0.213543 -0.025495
v -0.075011 0.163678 -0.031071
v -0.075746 0.113746 -0.031375
v -0.075746 0.011756 -0.031375
v -0.070596 0.004762 -0.029242
v -0.061023 0.004762 -0.025277
v -0.037254 0.041591 -0.015431
v -0.031978 0.069257 -0.000000
v -0.064062 0.042316 -0.000000
v -0.064062 0.161531 -0.000000
v -0.037667 0.241881 0.000000
v -0.020872 0.309167 0.000000
v -0.020500 0.471853 0.000000
v -0.021124 0.483109 -0.000000
v -0.026478 0.480712 -0.000000
v -0.029269 0.317579 0.000000
v -0.043803 0.261900 0.000000
v -0.066622 0.213543 -0.000000
v -0.081191 0.163678 -0.000000
v -0.081986 0.113746 -0.000000
v -0.081986 0.011756 0.000000
v -0.076412 0.004762 0.000000
v -0.066051 0.004762 0.000000
v -0.040324 0.041591 -0.000000
v -0.029544 0.069257 0.012238
v -0.059185 0.042316 0.024515
v -0.059185 0.161531 0.024515
v -0.034799 0.241881 0.014414
v -0.019283 0.309167 0.007987
v -0.018940 0.471853 0.007845
v -0.019516 0.483109 0.008084
v -0.024463 0.480712 0.010133
v -0.027041 0.317579 0.011201
v -0.040468 0.261900 0.016763
v -0.061551 0.213543 0.025495
v -0.075011 0.163678 0.031071
v -0.075746 0.113746 0.031375
v -0.075746 0.011756 0.031375
v -0.070596 0.004762 0.029242
v -0.061023 0.004762 0.025277
v -0.037254 0.041591 0.015431
v -0.022612 0.069257 0.022612
v -0.045299 0.042316 0.045299
v -0.045299 0.161531 0.045298
v -0.026634 0.241881 0.026634
v -0.014759 0.309167 0.014759
v -0.014496 0.471853 0.014496
v -0.014937 0.483109 0.014937
v -0.018723 0.480712 0.018723
v -0.020696 0.317579 0.020696
v -0.030973 0.261900 0.030973
v -0.047109 0.213543 0.047109
v -0.057411 0.163678 0.057411
v -0.057973 0.113746 0.057973
v -0.057973 0.011756 0.057973
v -0.054032 0.004762 0.054032
v -0.046705 0.004762 0.046705
v -0.028513 0.041591 0.028513
v -0.012238 0.069257 0.029544
v -0.024515 0.042316 0.059185
v -0.024515 0.161531 0.059185
v -0.014414 0.241881 0.034799
v -0.007987 0.309167 0.019283
v -0.007845 0.471853 0.018940
v -0.008084 0.483109 0.019516
v -0.010133 0.480712 0.024463
v -0.011201 0.317579 0.027041
v -0.016763 0.261900 0.040468
v -0.025495 0.213543 0.061551
v -0.031071 0.163678 0.075011
v -0.031375 0.113746 0.075746
v -0.031375 0.011756 0.075746
v -0.029242 0.004762 0.070596
v -0.025277 0.004762 0.061023
v -0.015431 0.041591 0.037254
v -0.000000 0.069257 0.031978
v -0.000000 0.042316 0.064062
v -0.000000 0.161531 0.064062
v 0.000000 0.241881 0.037667
v 0.000000 0.309167 0.020872
v 0.000000 0.471853 0.020500
v -0.000000 0.483109 0.021124
v -0.000000 0.480712 0.026478
v 0.000000 0.317579 0.029269
v 0.000000 0.261900 0.043803
v -0.000000 0.213543 0.066622
v -0.000000 0.163678 0.081191
v -0.000000 0.113746 0.081986
v -0.000000 0.011756 0.081986
v -0.000000 0.004762 0.076412
v -0.000000 0.004762 0.066051
v -0.000000 0.041591 0.040324
v 0.012238 0.069257 0.029544
v 0.024515 0.042316 0.059185
v 0.024515 0.161531 0.059185
v 0.014414 0.241881 0.034799
v 0.007987 0.309167 0.019283
v 0.007845 0.471853 0.018940
v 0.008084 0.483109 0.019516
v 0.010133 0.480712 0.024463
v 0.011201 0.317579 0.027041
v 0.016763 0.261900 0.040468
v 0.025495 0.213543 0.061551
v 0.031071 0.163678 0.075011
v 0.031375 0.113746 0.075746
v 0.031375 0.011756 0.075746
v 0.029242 0.004762 0.070596
v 0.025277 0.004762 0.061023
v 0.015431 0.041591 0.037254
v 0.022612 0.069257 0.022612
v 0.045299 0.042316 0.045299
v 0.045299 0.161531 0.045299
v 0.026634 0.241881 0.026634
v 0.014759 0.309167 0.014759
v 0.014496 0.471853 0.014496
v 0.014937 0.483109 0.014937
v 0.018723 0.480712 0.018723
v 0.020696 0.317579 0.020696
v 0.030973 0.261900 0.030973
v 0.047109 0.213543 0.047109
v 0.057411 0.163678 0.057411
v 0.057973 0.113746 0.057973
v 0.057973 0.011756 0.057973
v 0.054032 0.004762 0.054032
v 0.046705 0.004762 0.046705
v 0.028513 0.041591 0.028513
v 0.029544 0.069257 0.012238
v 0.059185 0.042316 0.024515
v 0.059185 0.161531 0.024515
v 0.034799 0.241881 0.014414
v 0.019283 0.309167 0.007987
v 0.018940 0.471853 0.007845
v 0.019516 0.483109 0.008084
v 0.024463 0.480712 0.010133
v 0.027041 0.317579 0.011201
v 0.040468 0.261900 0.016763
v 0.061551 0.213543 0.025495
v 0.075011 0.163678 0.031071
v 0.075746 0.113746 0.031375
v 0.075746 0.011756 0.031375
v 0.070596 0.004762 0.029242
v 0.061023 0.004762 0.025277
v 0.037254 0.041591 0.015431
vn -0.0000 1.0000 -0.0000
vn 0.4500 0.8930 -0.0000
vn 0.4158 0.8930 -0.1722
vn 0.3182 0.8930 -0.3182
vn 0.1722 0.8930 -0.4158
vn -0.0000 0.8930 -0.4500
vn -0.1722 0.8930 -0.4158
vn -0.3182 0.8930 -0.3182
vn -0.4158 0.8930 -0.1722
vn -0.4500 0.8930 -0.0000
vn -0.4158 0.8930 0.1722
vn -0.3182 0.8930 0.3182
vn -0.1722 0.8930 0.4158
vn -0.0000 0.8930 0.4500
vn 0.1722 0.8930 0.4158
vn 0.3182 0.8930 0.3182
vn 0.4158 0.8930 0.1722
vn -0.5067 0.8621 -0.0000
vn -0.4681 0.8621 0.1939
vn -0.3583 0.8621 0.3583
vn -0.1939 0.8621 0.4681
vn -0.0000 0.8621 0.5067
vn 0.1939 0.8621 0.4681
vn 0.3583 0.8621 0.3583
vn 0.4681 0.8621 0.1939
vn 0.5067 0.8621 -0.0000
vn 0.4681 0.8621 -0.1939
vn 0.3583 0.8621 -0.3583
vn 0.1939 0.8621 -0.4681
vn -0.0000 0.8621 -0.5067
vn -0.1939 0.8621 -0.4681
vn -0.3583 0.8621 -0.3583
vn -0.4681 0.8621 -0.1939
vn -0.9879 -0.1551 -0.0000
vn -0.9127 -0.1551 0.3781
vn -0.6986 -0.1551 0.6986
vn -0.3781 -0.1551 0.9127
vn -0.0000 -0.1551 0.9879
vn 0.3781 -0.1551 0.9127
vn 0.6986 -0.1551 0.6986
vn 0.9127 -0.1551 0.3781
vn 0.9879 -0.1551 -0.0000
vn 0.9127 -0.1551 -0.3781
vn 0.6986 -0.1551 -0.6986
vn 0.3781 -0.1551 -0.9127
vn -0.0000 -0.1551 -0.9879
vn -0.3781 -0.1551 -0.9127
vn -0.6986 -0.1551 -0.6986
vn -0.9127 -0.1551 -0.3781
vn -0.9604 -0.2785 -0.0000
vn -0.8873 -0.2785 0.3675
vn -0.6791 -0.2785 0.6791
vn -0.3675 -0.2785 0.8873
vn -0.0000 -0.2785 0.9604
vn 0.3675 -0.2785 0.8873
vn 0.6791 -0.2785 0.6791
vn 0.8873 -0.2785 0.3675
vn 0.9604 -0.2785 -0.0000
vn 0.8873 -0.2785 -0.3675
vn 0.6791 -0.2785 -0.6791
vn 0.3675 -0.2785 -0.8873
vn -0.0000 -0.2785 -0.9604
vn -0.3675 -0.2785 -0.8873
vn -0.6791 -0.2785 -0.6791
vn -0.8873 -0.2785 -0.3675
vn -0.9922 -0.1250 -0.0000
vn -0.9166 -0.1250 0.3797
vn -0.7016 -0.1250 0.7016
vn -0.3797 -0.1250 0.9166
vn -0.0000 -0.1250 0.9922
vn 0.3797 -0.1250 0.9166
vn 0.7016 -0.1250 0.7016
vn 0.9166 -0.1250 0.3797
vn 0.9922 -0.1250 -0.0000
vn 0.9166 -0.1250 -0.3797
vn 0.7016 -0.1250 -0.7016
vn 0.3797 -0.1250 -0.9166
vn -0.0000 -0.1250 -0.9922
vn -0.3797 -0.1250 -0.9166
vn -0.7016 -0.1250 -0.7016
vn -0.9166 -0.1250 -0.3797
vn -0.9996 0.0266 -0.0000
vn -0.9236 0.0266 0.3825
vn -0.7069 0.0266 0.7069
vn -0.3825 0.0266 0.9236
vn -0.0000 0.0266 0.9996
vn 0.3825 0.0266 0.9236
vn 0.7069 0.0266 0.7069
vn 0.9236 0.0266 0.3825
vn 0.9996 0.0266 -0.0000
vn 0.9236 0.0266 -0.3825
vn 0.7069 0.0266 -0.7069
vn 0.3825 0.0266 -0.9236
vn -0.0000 0.0266 -0.9996
vn -0.3825 0.0266 -0.9236
vn -0.7069 0.0266 -0.7069
vn -0.9236 0.0266 -0.3825
vn -0.4373 0.8993 -0.0000
vn -0.4040 0.8993 0.1674
vn -0.3092 0.8993 0.3092
vn -0.1674 0.8993 0.4040
vn -0.0000 0.8993 0.4373
vn 0.1674 0.8993 0.4040
vn 0.3092 0.8993 0.3092
vn 0.4040 0.8993 0.1674
vn 0.4373 0.8993 -0.0000
vn 0.4040 0.8993 -0.1674
vn 0.3092 0.8993 -0.3092
vn 0.1674 0.8993 -0.4040
vn -0.0000 0.8993 -0.4373
vn -0.1674 0.8993 -0.4040
vn -0.3092 0.8993 -0.3092
vn -0.4040 0.8993 -0.1674
vn 0.8528 0.5223 -0.0000
vn 0.7879 0.5223 -0.3263
vn 0.6030 0.5223 -0.6030
vn 0.3263 0.5223 -0.7879
vn -0.0000 0.5223 -0.8528
vn -0.3263 0.5223 -0.7879
vn -0.6030 0.5223 -0.6030
vn -0.7879 0.5223 -0.3263
vn -0.8528 0.5223 -0.0000
vn -0.7879 0.5223 0.3263
vn -0.6030 0.5223 0.6030
vn -0.3263 0.5223 0.7879
vn -0.0000 0.5223 0.8528
vn 0.3263 0.5223 0.7879
vn 0.6030 0.5223 0.6030
vn 0.7879 0.5223 0.3263
vn 0.9905 0.1378 -0.0000
vn 0.9151 0.1378 -0.3790
vn 0.7004 0.1378 -0.7004
vn 0.3790 0.1378 -0.9151
vn -0.0000 0.1378 -0.9905
vn -0.3790 0.1378 -0.9151
vn -0.7004 0.1378 -0.7004
vn -0.9151 0.1378 -0.3790
vn -0.9905 0.1378 -0.0000
vn -0.9151 0.1378 0.3790
vn -0.7004 0.1378 0.7004
vn -0.3790 0.1378 0.9151
vn -0.0000 0.1378 0.9905
vn 0.3790 0.1378 0.9151
vn 0.7004 0.1378 0.7004
vn 0.9151 0.1378 0.3790
vn 0.9386 0.3449 -0.0000
vn 0.8672 0.3449 -0.3592
vn 0.6637 0.3449 -0.6637
vn 0.3592 0.3449 -0.8672
vn -0.0000 0.3449 -0.9386
vn -0.3592 0.3449 -0.8672
vn -0.6637 0.3449 -0.6637
vn -0.8672 0.3449 -0.3592
vn -0.9386 0.3449 -0.0000
vn -0.8672 0.3449 0.3592
vn -0.6637 0.3449 0.6637
vn -0.3592 0.3449 0.8672
vn -0.0000 0.3449 0.9386
vn 0.3592 0.3449 0.8672
vn 0.6637 0.3449 0.6637
vn 0.8672 0.3449 0.3592
vn 0.9362 0.3515 -0.0000
vn 0.8649 0.3515 -0.3583
vn 0.6620 0.3515 -0.6620
vn 0.3583 0.3515 -0.8649
vn -0.0000 0.3515 -0.9362
vn -0.3583 0.3515 -0.8649
vn -0.6620 0.3515 -0.6620
vn -0.8649 0.3515 -0.3583
vn -0.9362 0.3515 -0.0000
vn -0.8649 0.3515 0.3583
vn -0.6620 0.3515 0.6620
vn -0.3583 0.3515 0.8649
vn -0.0000 0.3515 0.9362
vn 0.3583 0.3515 0.8649
vn 0.6620 0.3515 0.6620
vn 0.8649 0.3515 0.3583
vn 0.9891 0.1471 -0.0000
vn 0.9138 0.1471 -0.3785
vn 0.6994 0.1471 -0.6994
vn 0.3785 0.1471 -0.9138
vn -0.0000 0.1471 -0.9891
vn -0.3785 0.1471 -0.9138
vn -0.6994 0.1471 -0.6994
vn -0.9138 0.1471 -0.3785
vn -0.9891 0.1471 -0.0000
vn -0.9138 0.1471 0.3785
vn -0.6994 0.1471 0.6994
vn -0.3785 0.1471 0.9138
vn -0.0000 0.1471 0.9891
vn 0.3785 0.1471 0.9138
vn 0.6994 0.1471 0.6994
vn 0.9138 0.1471 0.3785
vn 1.0000 0.0080 -0.0000
vn 0.9239 0.0080 -0.3827
vn 0.7071 0.0080 -0.7071
vn 0.3827 0.0080 -0.9239
vn -0.0000 0.0080 -1.0000
vn -0.3827 0.0080 -0.9239
vn -0.7071 0.0080 -0.7071
vn -0.9239 0.0080 -0.3827
vn -1.0000 0.0080 -0.0000
vn -0.9239 0.0080 0.3827
vn -0.7071 0.0080 0.7071
vn -0.3827 0.0080 0.9239
vn -0.0000 0.0080 1.0000
vn 0.3827 0.0080 0.9239
vn 0.7071 0.0080 0.7071
vn 0.9239 0.0080 0.3827
vn 0.9481 -0.3180 -0.0000
vn 0.8759 -0.3180 -0.3628
vn 0.6704 -0.3180 -0.6704
vn 0.3628 -0.3180 -0.8759
vn -0.0000 -0.3180 -0.9481
vn -0.3628 -0.3180 -0.8759
vn -0.6704 -0.3180 -0.6704
vn -0.8759 -0.3180 -0.3628
vn -0.9481 -0.3180 -0.0000
vn -0.8759 -0.3180 0.3628
vn -0.6704 -0.3180 0.6704
vn -0.3628 -0.3180 0.8759
vn -0.0000 -0.3180 0.9481
vn 0.3628 -0.3180 0.8759
vn 0.6704 -0.3180 0.6704
vn 0.8759 -0.3180 0.3628
vn 0.4759 -0.8795 -0.0000
vn 0.4397 -0.8795 -0.1821
vn 0.3365 -0.8795 -0.3365
vn 0.1821 -0.8795 -0.4397
vn -0.0000 -0.8795 -0.4759
vn -0.1821 -0.8795 -0.4397
vn -0.3365 -0.8795 -0.3365
vn -0.4397 -0.8795 -0.1821
vn -0.4759 -0.8795 -0.0000
vn -0.4397 -0.8795 0.1821
vn -0.3365 -0.8795 0.3365
vn -0.1821 -0.8795 0.4397
vn -0.0000 -0.8795 0.4759
vn 0.1821 -0.8795 0.4397
vn 0.3365 -0.8795 0.3365
vn 0.4397 -0.8795 0.1821
vn -0.4145 -0.9101 -0.0000
vn -0.3829 -0.9101 0.1586
vn -0.2931 -0.9101 0.2931
vn -0.1586 -0.9101 0.3829
vn -0.0000 -0.9101 0.4145
vn 0.1586 -0.9101 0.3829
vn 0.2931 -0.9101 0.2931
vn 0.3829 -0.9101 0.1586
vn 0.4145 -0.9101 -0.0000
vn 0.3829 -0.9101 -0.1586
vn 0.2931 -0.9101 -0.2931
vn 0.1586 -0.9101 -0.3829
vn -0.0000 -0.9101 -0.4145
vn -0.1586 -0.9101 -0.3829
vn -0.2931 -0.9101 -0.2931
vn -0.3829 -0.9101 -0.1586
vn -0.6284 -0.7779 -0.0000
vn -0.5806 -0.7779 0.2405
vn -0.4443 -0.7779 0.4443
vn -0.2405 -0.7779 0.5806
vn -0.0000 -0.7779 0.6284
vn 0.2405 -0.7779 0.5806
vn 0.4443 -0.7779 0.4443
vn 0.5806 -0.7779 0.2405
vn 0.6284 -0.7779 -0.0000
vn 0.5806 -0.7779 -0.2405
vn 0.4443 -0.7779 -0.4443
vn 0.2405 -0.7779 -0.5806
vn -0.0000 -0.7779 -0.6284
vn -0.2405 -0.7779 -0.5806
vn -0.4443 -0.7779 -0.4443
vn -0.5806 -0.7779 -0.2405
vn -0.0000 -1.0000 -0.0000
vt 0.031250 0.070531
vt 0.000000 0.064774
vt 0.062500 0.064774
vt 0.093750 0.070531
vt 0.125000 0.064774
vt 0.156250 0.070531
vt 0.187500 0.064774
vt 0.218750 0.070531
vt 0.250000 0.064774
vt 0.281250 0.070531
vt 0.312500 0.064774
vt 0.343750 0.070531
vt 0.375000 0.064774
vt 0.406250 0.070531
vt 0.437500 0.064774
vt 0.468750 0.070531
vt 0.500000 0.064774
vt 0.531250 0.070531
vt 0.562500 0.064774
vt 0.593750 0.070531
vt 0.625000 0.064774
vt 0.656250 0.070531
vt 0.687500 0.064774
vt 0.718750 0.070531
vt 0.750000 0.064774
vt 0.781250 0.070531
vt 0.812500 0.064774
vt 0.843750 0.070531
vt 0.875000 0.064774
vt 0.906250 0.070531
vt 0.937500 0.064774
vt 0.968750 0.070531
vt 1.000000 0.064774
vt 0.000000 0.037833
vt 0.062500 0.037833
vt 0.125000 0.037833
vt 0.187500 0.037833
vt 0.250000 0.037833
vt 0.312500 0.037833
vt 0.375000 0.037833
vt 0.437500 0.037833
vt 0.500000 0.037833
vt 0.562500 0.037833
vt 0.625000 0.037833
vt 0.687500 0.037833
vt 0.750000 0.037833
vt 0.812500 0.037833
vt 0.875000 0.037833
vt 0.937500 0.037833
vt 1.000000 0.037833
vt 0.000000 0.157048
vt 0.062500 0.157048
vt 0.125000 0.157048
vt 0.187500 0.157048
vt 0.250000 0.157048
vt 0.312500 0.157048
vt 0.375000 0.157048
vt 0.437500 0.157048
vt 0.500000 0.157048
vt 0.562500 0.157048
vt 0.625000 0.157048
vt 0.687500 0.157048
vt 0.750000 0.157048
vt 0.812500 0.157048
vt 0.875000 0.157048
vt 0.937500 0.157048
vt 1.000000 0.157048
vt 0.000000 0.237398
vt 0.062500 0.237398
vt 0.125000 0.237398
vt 0.187500 0.237398
vt 0.250000 0.237398
vt 0.312500 0.237398
vt 0.375000 0.237398
vt 0.437500 0.237398
vt 0.500000 0.237398
vt 0.562500 0.237398
vt 0.625000 0.237398
vt 0.687500 0.237398
vt 0.750000 0.237398
vt 0.812500 0.237398
vt 0.875000 0.237398
vt 0.937500 0.237398
vt 1.000000 0.237398
vt 0.000000 0.304683
vt 0.062500 0.304683
vt 0.125000 0.304683
vt 0.187500 0.304683
vt 0.250000 0.304683
vt 0.312500 0.304683
vt 0.375000 0.304683
vt 0.437500 0.304683
vt 0.500000 0.304683
vt 0.562500 0.304683
vt 0.625000 0.304683
vt 0.687500 0.304683
vt 0.750000 0.304683
vt 0.812500 0.304683
vt 0.875000 0.304683
vt 0.937500 0.304683
vt 1.000000 0.304683
vt 0.000000 0.467370
vt 0.062500 0.467370
vt 0.125000 0.467370
vt 0.187500 0.467370
vt 0.250000 0.467370
vt 0.312500 0.467370
vt 0.375000 0.467370
vt 0.437500 0.467370
vt 0.500000 0.467370
vt 0.562500 0.467370
vt 0.625000 0.467370
vt 0.687500 0.467370
vt 0.750000 0.467370
vt 0.812500 0.467370
vt 0.875000 0.467370
vt 0.937500 0.467370
vt 1.000000 0.467370
vt 0.000000 0.478626
vt 0.062500 0.478626
vt 0.125000 0.478626
vt 0.187500 0.478626
vt 0.250000 0.478626
vt 0.312500 0.478626
vt 0.375000 0.478626
vt 0.437500 0.478626
vt 0.500000 0.478626
vt 0.562500 0.478626
vt 0.625000 0.478626
vt 0.687500 0.478626
vt 0.750000 0.478626
vt 0.812500 0.478626
vt 0.875000 0.478626
vt 0.937500 0.478626
vt 1.000000 0.478626
vt 0.000000 0.476229
vt 0.062500 0.476229
vt 0.125000 0.476229
vt 0.187500 0.476229
vt 0.250000 0.476229
vt 0.312500 0.476229
vt 0.375000 0.476229
vt 0.437500 0.476229
vt 0.500000 0.476229
vt 0.562500 0.476229
vt 0.625000 0.476229
vt 0.687500 0.476229
vt 0.750000 0.476229
vt 0.812500 0.476229
vt 0.875000 0.476229
vt 0.937500 0.476229
vt 1.000000 0.476229
vt 0.000000 0.313095
vt 0.062500 0.313095
vt 0.125000 0.313095
vt 0.187500 0.313095
vt 0.250000 0.313095
vt 0.312500 0.313095
vt 0.375000 0.313095
vt 0.437500 0.313095
vt 0.500000 0.313095
vt 0.562500 0.313095
vt 0.625000 0.313095
vt 0.687500 0.313095
vt 0.750000 0.313095
vt 0.812500 0.313095
vt 0.875000 0.313095
vt 0.937500 0.313095
vt 1.000000 0.313095
vt 0.000000 0.257417
vt 0.062500 0.257417
vt 0.125000 0.257417
vt 0.187500 0.257417
vt 0.250000 0.257417
vt 0.312500 0.257417
vt 0.375000 0.257417
vt 0.437500 0.257417
vt 0.500000 0.257417
vt 0.562500 0.257417
vt 0.625000 0.257417
vt 0.687500 0.257417
vt 0.750000 0.257417
vt 0.812500 0.257417
vt 0.875000 0.257417
vt 0.937500 0.257417
vt 1.000000 0.257417
vt 0.000000 0.209060
vt 0.062500 0.209060
vt 0.125000 0.209060
vt 0.187500 0.209060
vt 0.250000 0.209060
vt 0.312500 0.209060
vt 0.375000 0.209060
vt 0.437500 0.209060
vt 0.500000 0.209060
vt 0.562500 0.209060
vt 0.625000 0.209060
vt 0.687500 0.209060
vt 0.750000 0.209060
vt 0.812500 0.209060
vt 0.875000 0.209060
vt 0.937500 0.209060
vt 1.000000 0.209060
vt 0.000000 0.159195
vt 0.062500 0.159195
vt 0.125000 0.159195
vt 0.187500 0.159195
vt 0.250000 0.159195
vt 0.312500 0.159195
vt 0.375000 0.159195
vt 0.437500 0.159195
vt 0.500000 0.159195
vt 0.562500 0.159195
vt 0.625000 0.159195
vt 0.687500 0.159195
vt 0.750000 0.159195
vt 0.812500 0.159195
vt 0.875000 0.159195
vt 0.937500 0.159195
vt 1.000000 0.159195
vt 0.000000 0.109263
vt 0.062500 0.109263
vt 0.125000 0.109263
vt 0.187500 0.109263
vt 0.250000 0.109263
vt 0.312500 0.109263
vt 0.375000 0.109263
vt 0.437500 0.109263
vt 0.500000 0.109263
vt 0.562500 0.109263
vt 0.625000 0.109263
vt 0.687500 0.109263
vt 0.750000 0.109263
vt 0.812500 0.109263
vt 0.875000 0.109263
vt 0.937500 0.109263
vt 1.000000 0.109263
vt 0.000000 0.007273
vt 0.062500 0.007273
vt 0.125000 0.007273
vt 0.187500 0.007273
vt 0.250000 0.007273
vt 0.312500 0.007273
vt 0.375000 0.007273
vt 0.437500 0.007273
vt 0.500000 0.007273
vt 0.562500 0.007273
vt 0.625000 0.007273
vt 0.687500 0.007273
vt 0.750000 0.007273
vt 0.812500 0.007273
vt 0.875000 0.007273
vt 0.937500 0.007273
vt 1.000000 0.007273
vt 0.000000 0.000279
vt 0.062500 0.000279
vt 0.125000 0.000279
vt 0.187500 0.000279
vt 0.250000 0.000279
vt 0.312500 0.000279
vt 0.375000 0.000279
vt 0.437500 0.000279
vt 0.500000 0.000279
vt 0.562500 0.000279
vt 0.625000 0.000279
vt 0.687500 0.000279
vt 0.750000 0.000279
vt 0.812500 0.000279
vt 0.875000 0.000279
vt 0.937500 0.000279
vt 1.000000 0.000279
vt 0.000000 0.000279
vt 0.062500 0.000279
vt 0.125000 0.000279
vt 0.187500 0.000279
vt 0.250000 0.000279
vt 0.312500 0.000279
vt 0.375000 0.000279
vt 0.437500 0.000279
vt 0.500000 0.000279
vt 0.562500 0.000279
vt 0.625000 0.000279
vt 0.687500 0.000279
vt 0.750000 0.000279
vt 0.812500 0.000279
vt 0.875000 0.000279
vt 0.937500 0.000279
vt 1.000000 0.000279
vt 0.000000 0.037108
vt 0.062500 0.037108
vt 0.125000 0.037108
vt 0.187500 0.037108
vt 0.250000 0.037108
vt 0.312500 0.037108
vt 0.375000 0.037108
vt 0.437500 0.037108
vt 0.500000 0.037108
vt 0.562500 0.037108
vt 0.625000 0.037108
vt 0.687500 0.037108
vt 0.750000 0.037108
vt 0.812500 0.037108
vt 0.875000 0.037108
vt 0.937500 0.037108
vt 1.000000 0.037108
vt 0.031250 0.051339
vt 0.093750 0.051339
vt 0.156250 0.051339
vt 0.218750 0.051339
vt 0.281250 0.051339
vt 0.343750 0.051339
vt 0.406250 0.051339
vt 0.468750 0.051339
vt 0.531250 0.051339
vt 0.593750 0.051339
vt 0.656250 0.051339
vt 0.718750 0.051339
vt 0.781250 0.051339
vt 0.843750 0.051339
vt 0.906250 0.051339
vt 0.968750 0.051339
s 1
f 133/201/133 134/202/134 152/203/135
f 133/204/133 152/203/135 169/205/136
f 133/206/133 169/205/136 186/207/137
f 133/208/133 186/207/137 203/209/138
f 133/210/133 203/209/138 220/211/139
f 133/212/133 220/211/139 237/213/140
f 133/214/133 237/213/140 254/215/141
f 133/216/133 254/215/141 271/217/142
f 133/218/133 271/217/142 288/219/143
f 133/220/133 288/219/143 305/221/144
f 133/222/133 305/221/144 322/223/145
f 133/224/133 322/223/145 339/225/146
f 133/226/133 339/225/146 356/227/147
f 133/228/133 356/227/147 373/229/148
f 133/230/133 373/229/148 390/231/149
f 133/232/133 390/231/149 134/233/134
f 134/202/134 135/234/150 153/235/151 152/203/135
f 152/203/135 153/235/151 170/236/152 169/205/136
f 169/205/136 170/236/152 187/237/153 186/207/137
f 186/207/137 187/237/153 204/238/154 203/209/138
f 203/209/138 204/238/154 221/239/155 220/211/139
f 220/211/139 221/239/155 238/240/156 237/213/140
f 237/213/140 238/240/156 255/241/157 254/215/141
f 254/215/141 255/241/157 272/242/158 271/217/142
f 271/217/142 272/242/158 289/243/159 288/219/143
f 288/219/143 289/243/159 306/244/160 305/221/144
f 305/221/144 306/244/160 323/245/161 322/223/145
f 322/223/145 323/245/161 340/246/162 339/225/146
f 339/225/146 340/246/162 357/247/163 356/227/147
f 356/227/147 357/247/163 374/248/164 373/229/148
f 373/229/148 374/248/164 391/249/165 390/231/149
f 390/231/149 391/249/165 135/250/150 134/233/134
f 135/234/150 136/251/166 154/252/167 153/235/151
f 153/235/151 154/252/167 171/253/168 170/236/152
f 170/236/152 171/253/168 188/254/169 187/237/153
f 187/237/153 188/254/169 205/255/170 204/238/154
f 204/238/154 205/255/170 222/256/171 221/239/155
f 221/239/155 222/256/171 239/257/172 238/240/156
f 238/240/156 239/257/172 256/258/173 255/241/157
f 255/241/157 256/258/173 273/259/174 272/242/158
f 272/242/158 273/259/174 290/260/175 289/243/159
f 289/243/159 290/260/175 307/261/176 306/244/160
f 306/244/160 307/261/176 324/262/177 323/245/161
f 323/245/161 324/262/177 341/263/178 340/246/162
f 340/246/162 341/263/178 358/264/179 357/247/163
f 357/247/163 358/264/179 375/265/180 374/248/164
f 374/248/164 375/265/180 392/266/181 391/249/165
f 391/249/165 392/266/181 136/267/166 135/250/150
f 136/251/166 137/268/182 155/269/183 154/252/167
f 154/252/167 155/269/183 172/270/184 171/253/168
f 171/253/168 172/270/184 189/271/185 188/254/169
f 188/254/169 189/271/185 206/272/186 205/255/170
f 205/255/170 206/272/186 223/273/187 222/256/171
f 222/256/171 223/273/187 240/274/188 239/257/172
f 239/257/172 240/274/188 257/275/189 256/258/173
f 256/258/173 257/275/189 274/276/190 273/259/174
f 273/259/174 274/276/190 291/277/191 290/260/175
f 290/260/175 291/277/191 308/278/192 307/261/176
f 307/261/176 308/278/192 325/279/193 324/262/177
f 324/262/177 325/279/193 342/280/194 341/263/178
f 341/263/178 342/280/194 359/281/195 358/264/179
f 358/264/179 359/281/195 376/282/196 375/265/180
f 375/265/180 376/282/196 393/283/197 392/266/181
f 392/266/181 393/283/197 137/284/182 136/267/166
f 137/268/182 138/285/198 156/286/199 155/269/183
f 155/269/183 156/286/199 173/287/200 172/270/184
f 172/270/184 173/287/200 190/288/201 189/271/185
f 189/271/185 190/288/201 207/289/202 206/272/186
f 206/272/186 207/289/202 224/290/203 223/273/187
f 223/273/187 224/290/203 241/291/204 240/274/188
f 240/274/188 241/291/204 258/292/205 257/275/189
f 257/275/189 258/292/205 275/293/206 274/276/190
f 274/276/190 275/293/206 292/294/207 291/277/191
f 291/277/191 292/294/207 309/295/208 308/278/192
f 308/278/192 309/295/208 326/296/209 325/279/193
f 325/279/193 326/296/209 343/297/210 342/280/194
f 342/280/194 343/297/210 360/298/211 359/281/195
f 359/281/195 360/298/211 377/299/212 376/282/196
f 376/282/196 377/299/212 394/300/213 393/283/197
f 393/283/197 394/300/213 138/301/198 137/284/182
f 138/285/198 139/302/214 157/303/215 156/286/199
f 156/286/199 157/303/215 174/304/216 173/287/200
f 173/287/200 174/304/216 191/305/217 190/288/201
f 190/288/201 191/305/217 208/306/218 207/289/202
f 207/289/202 208/306/218 225/307/219 224/290/203
f 224/290/203 225/307/219 242/308/220 241/291/204
f 241/291/204 242/308/220 259/309/221 258/292/205
f 258/292/205 259/309/221 276/310/222 275/293/206
f 275/293/206 276/310/222 293/311/223 292/294/207
f 292/294/207 293/311/223 310/312/224 309/295/208
f 309/295/208 310/312/224 327/313/225 326/296/209
f 326/296/209 327/313/225 344/314/226 343/297/210
f 343/297/210 344/314/226 361/315/227 360/298/211
f 360/298/211 361/315/227 378/316/228 377/299/212
f 377/299/212 378/316/228 395/317/229 394/300/213
f 394/300/213 395/317/229 139/318/214 138/301/198
f 139/302/214 140/319/230 158/320/231 157/303/215
f 157/303/215 158/320/231 175/321/232 174/304/216
f 174/304/216 175/321/232 192/322/233 191/305/217
f 191/305/217 192/322/233 209/323/234 208/306/218
f 208/306/218 209/323/234 226/324/235 225/307/219
f 225/307/219 226/324/235 243/325/236 242/308/220
f 242/308/220 243/325/236 260/326/237 259/309/221
f 259/309/221 260/326/237 277/327/238 276/310/222
f 276/310/222 277/327/238 294/328/239 293/311/223
f 293/311/223 294/328/239 311/329/240 310/312/224
f 310/312/224 311/329/240 328/330/241 327/313/225
f 327/313/225 328/330/241 345/331/242 344/314/226
f 344/314/226 345/331/242 362/332/243 361/315/227
f 361/315/227 362/332/243 379/333/244 378/316/228
f 378/316/228 379/333/244 396/334/245 395/317/229
f 395/317/229 396/334/245 140/335/230 139/318/214
f 140/319/230 141/336/246 159/337/247 158/320/231
f 158/320/231 159/337/247 176/338/248 175/321/232
f 175/321/232 176/338/248 193/339/249 192/322/233
f 192/322/233 193/339/249 210/340/250 209/323/234
f 209/323/234 210/340/250 227/341/251 226/324/235
f 226/324/235 227/341/251 244/342/252 243/325/236
f 243/325/236 244/342/252 261/343/253 260/326/237
f 260/326/237 261/343/253 278/344/254 277/327/238
f 277/327/238 278/344/254 295/345/255 294/328/239
f 294/328/239 295/345/255 312/346/256 311/329/240
f 311/329/240 312/346/256 329/347/257 328/330/241
f 328/330/241 329/347/257 346/348/258 345/331/242
f 345/331/242 346/348/258 363/349/259 362/332/243
f 362/332/243 363/349/259 380/350/260 379/333/244
f 379/333/244 380/350/260 397/351/261 396/334/245
f 396/334/245 397/351/261 141/352/246 140/335/230
f 141/336/246 142/353/262 160/354/263 159/337/247
f 159/337/247 160/354/263 177/355/264 176/338/248
f 176/338/248 177/355/264 194/356/265 193/339/249
f 193/339/249 194/356/265 211/357/266 210/340/250
f 210/340/250 211/357/266 228/358/267 227/341/251
f 227/341/251 228/358/267 245/359/268 244/342/252
f 244/342/252 245/359/268 262/360/269 261/343/253
f 261/343/253 262/360/269 279/361/270 278/344/254
f 278/344/254 279/361/270 296/362/271 295/345/255
f 295/345/255 296/362/271 313/363/272 312/346/256
f 312/346/256 313/363/272 330/364/273 329/347/257
f 329/347/257 330/364/273 347/365/274 346/348/258
f 346/348/258 347/365/274 364/366/275 363/349/259
f 363/349/259 364/366/275 381/367/276 380/350/260
f 380/350/260 381/367/276 398/368/277 397/351/261
f 397/351/261 398/368/277 142/369/262 141/352/246
f 142/353/262 143/370/278 161/371/279 160/354/263
f 160/354/263 161/371/279 178/372/280 177/355/264
f 177/355/264 178/372/280 195/373/281 194/356/265
f 194/356/265 195/373/281 212/374/282 211/357/266
f 211/357/266 212/374/282 229/375/283 228/358/267
f 228/358/267 229/375/283 246/376/284 245/359/268
f 245/359/268 246/376/284 263/377/285 262/360/269
f 262/360/269 263/377/285 280/378/286 279/361/270
f 279/361/270 280/378/286 297/379/287 296/362/271
f 296/362/271 297/379/287 314/380/288 313/363/272
f 313/363/272 314/380/288 331/381/289 330/364/273
f 330/364/273 331/381/289 348/382/290 347/365/274
f 347/365/274 348/382/290 365/383/291 364/366/275
f 364/366/275 365/383/291 382/384/292 381/367/276
f 381/367/276 382/384/292 399/385/293 398/368/277
f 398/368/277 399/385/293 143/386/278 142/369/262
f 143/370/278 144/387/294 162/388/295 161/371/279
f 161/371/279 162/388/295 179/389/296 178/372/280
f 178/372/280 179/389/296 196/390/297 195/373/281
f 195/373/281 196/390/297 213/391/298 212/374/282
f 212/374/282 213/391/298 230/392/299 229/375/283
f 229/375/283 230/392/299 247/393/300 246/376/284
f 246/376/284 247/393/300 264/394/301 263/377/285
f 263/377/285 264/394/301 281/395/302 280/378/286
f 280/378/286 281/395/302 298/396/303 297/379/287
f 297/379/287 298/396/303 315/397/304 314/380/288
f 314/380/288 315/397/304 332/398/305 331/381/289
f 331/381/289 332/398/305 349/399/306 348/382/290
f 348/382/290 349/399/306 366/400/307 365/383/291
f 365/383/291 366/400/307 383/401/308 382/384/292
f 382/384/292 383/401/308 400/402/309 399/385/293
f 399/385/293 400/402/309 144/403/294 143/386/278
f 144/387/294 145/404/310 163/405/311 162/388/295
f 162/388/295 163/405/311 180/406/312 179/389/296
f 179/389/296 180/406/312 197/407/313 196/390/297
f 196/390/297 197/407/313 214/408/314 213/391/298
f 213/391/298 214/408/314 231/409/315 230/392/299
f 230/392/299 231/409/315 248/410/316 247/393/300
f 247/393/300 248/410/316 265/411/317 264/394/301
f 264/394/301 265/411/317 282/412/318 281/395/302
f 281/395/302 282/412/318 299/413/319 298/396/303
f 298/396/303 299/413/319 316/414/320 315/397/304
f 315/397/304 316/414/320 333/415/321 332/398/305
f 332/398/305 333/415/321 350/416/322 349/399/306
f 349/399/306 350/416/322 367/417/323 366/400/307
f 366/400/307 367/417/323 384/418/324 383/401/308
f 383/401/308 384/418/324 401/419/325 400/402/309
f 400/402/309 401/419/325 145/420/310 144/403/294
f 145/404/310 146/421/326 164/422/327 163/405/311
f 163/405/311 164/422/327 181/423/328 180/406/312
f 180/406/312 181/423/328 198/424/329 197/407/313
f 197/407/313 198/424/329 215/425/330 214/408/314
f 214/408/314 215/425/330 232/426/331 231/409/315
f 231/409/315 232/426/331 249/427/332 248/410/316
f 248/410/316 249/427/332 266/428/333 265/411/317
f 265/411/317 266/428/333 283/429/334 282/412/318
f 282/412/318 283/429/334 300/430/335 299/413/319
f 299/413/319 300/430/335 317/431/336 316/414/320
f 316/414/320 317/431/336 334/432/337 333/415/321
f 333/415/321 334/432/337 351/433/338 350/416/322
f 350/416/322 351/433/338 368/434/339 367/417/323
f 367/417/323 368/434/339 385/435/340 384/418/324
f 384/418/324 385/435/340 402/436/341 401/419/325
f 401/419/325 402/436/341 146/437/326 145/420/310
f 146/421/326 147/438/342 165/439/343 164/422/327
f 164/422/327 165/439/343 182/440/344 181/423/328
f 181/423/328 182/440/344 199/441/345 198/424/329
f 198/424/329 199/441/345 216/442/346 215/425/330
f 215/425/330 216/442/346 233/443/347 232/426/331
f 232/426/331 233/443/347 250/444/348 249/427/332
f 249/427/332 250/444/348 267/445/349 266/428/333
f 266/428/333 267/445/349 284/446/350 283/429/334
f 283/429/334 284/446/350 301/447/351 300/430/335
f 300/430/335 301/447/351 318/448/352 317/431/336
f 317/431/336 318/448/352 335/449/353 334/432/337
f 334/432/337 335/449/353 352/450/354 351/433/338
f 351/433/338 352/450/354 369/451/355 368/434/339
f 368/434/339 369/451/355 386/452/356 385/435/340
f 385/435/340 386/452/356 403/453/357 402/436/341
f 402/436/341 403/453/357 147/454/342 146/437/326
f 147/438/342 148/455/358 166/456/359 165/439/343
f 165/439/343 166/456/359 183/457/360 182/440/344
f 182/440/344 183/457/360 200/458/361 199/441/345
f 199/441/345 200/458/361 217/459/362 216/442/346
f 216/442/346 217/459/362 234/460/363 233/443/347
f 233/443/347 234/460/363 251/461/364 250/444/348
f 250/444/348 251/461/364 268/462/365 267/445/349
f 267/445/349 268/462/365 285/463/366 284/446/350
f 284/446/350 285/463/366 302/464/367 301/447/351
f 301/447/351 302/464/367 319/465/368 318/448/352
f 318/448/352 319/465/368 336/466/369 335/449/353
f 335/449/353 336/466/369 353/467/370 352/450/354
f 352/450/354 353/467/370 370/468/371 369/451/355
f 369/451/355 370/468/371 387/469/372 386/452/356
f 386/452/356 387/469/372 404/470/373 403/453/357
f 403/453/357 404/470/373 148/471/358 147/454/342
f 148/455/358 149/472/374 167/473/375 166/456/359
f 166/456/359 167/473/375 184/474/376 183/457/360
f 183/457/360 184/474/376 201/475/377 200/458/361
f 200/458/361 201/475/377 218/476/378 217/459/362
f 217/459/362 218/476/378 235/477/379 234/460/363
f 234/460/363 235/477/379 252/478/380 251/461/364
f 251/461/364 252/478/380 269/479/381 268/462/365
f 268/462/365 269/479/381 286/480/382 285/463/366
f 285/463/366 286/480/382 303/481/383 302/464/367
f 302/464/367 303/481/383 320/482/384 319/465/368
f 319/465/368 320/482/384 337/483/385 336/466/369
f 336/466/369 337/483/385 354/484/386 353/467/370
f 353/467/370 354/484/386 371/485/387 370/468/371
f 370/468/371 371/485/387 388/486/388 387/469/372
f 387/469/372 388/486/388 405/487/389 404/470/373
f 404/470/373 405/487/389 149/488/374 148/471/358
f 149/472/374 150/489/390 168/490/391 167/473/375
f 167/473/375 168/490/391 185/491/392 184/474/376
f 184/474/376 185/491/392 202/492/393 201/475/377
f 201/475/377 202/492/393 219/493/394 218/476/378
f 218/476/378 219/493/394 236/494/395 235/477/379
f 235/477/379 236/494/395 253/495/396 252/478/380
f 252/478/380 253/495/396 270/496/397 269/479/381
f 269/479/381 270/496/397 287/497/398 286/480/382
f 286/480/382 287/497/398 304/498/399 303/481/383
f 303/481/383 304/498/399 321/499/400 320/482/384
f 320/482/384 321/499/400 338/500/401 337/483/385
f 337/483/385 338/500/401 355/501/402 354/484/386
f 354/484/386 355/501/402 372/502/403 371/485/387
f 371/485/387 372/502/403 389/503/404 388/486/388
f 388/486/388 389/503/404 406/504/405 405/487/389
f 405/487/389 406/504/405 150/505/390 149/488/374
f 150/489/390 151/506/406 168/490/391
f 168/490/391 151/507/406 185/491/392
f 185/491/392 151/508/406 202/492/393
f 202/492/393 151/509/406 219/493/394
f 219/493/394 151/510/406 236/494/395
f 236/494/395 151/511/406 253/495/396
f 253/495/396 151/512/406 270/496/397
f 270/496/397 151/513/406 287/497/398
f 287/497/398 151/514/406 304/498/399
f 304/498/399 151/515/406 321/499/400
f 321/499/400 151/516/406 338/500/401
f 338/500/401 151/517/406 355/501/402
f 355/501/402 151/518/406 372/502/403
f 372/502/403 151/519/406 389/503/404
f 389/503/404 151/520/406 406/504/405
f 406/504/405 151/521/406 150/505/390
o BottleWine
v 0.000000 0.075014 0.000000
v 0.031978 0.069257 0.000000
v 0.064062 0.042316 0.000000
v 0.064062 0.161531 0.000000
v 0.037667 0.241881 -0.000000
v 0.020872 0.309167 0.000000
v 0.020500 0.471853 0.000000
v 0.021124 0.483109 0.000000
v 0.026478 0.480712 0.000000
v 0.029269 0.317579 0.000000
v 0.043803 0.261900 0.000000
v 0.066622 0.213543 0.000000
v 0.081191 0.163678 0.000000
v 0.081986 0.113746 0.000000
v 0.081986 0.011756 0.000000
v 0.076412 0.004762 0.000000
v 0.066051 0.004762 0.000000
v 0.040324 0.041591 0.000000
v 0.000000 0.055823 0.000000
v 0.029544 0.069257 -0.012238
v 0.059185 0.042316 -0.024515
v 0.059185 0.161531 -0.024515
v 0.034799 0.241881 -0.014414
v 0.019283 0.309167 -0.007987
v 0.018940 0.471853 -0.007845
v 0.019516 0.483109 -0.008084
v 0.024463 0.480712 -0.010133
v 0.027041 0.317579 -0.011201
v 0.040468 0.261900 -0.016763
v 0.061551 0.213543 -0.025495
v 0.075011 0.163678 -0.031071
v 0.075746 0.113746 -0.031375
v 0.075746 0.011756 -0.031375
v 0.070596 0.004762 -0.029242
v 0.061023 0.004762 -0.025277
v 0.037254 0.041591 -0.015431
v 0.022612 0.069257 -0.022612
v 0.045299 0.042316 -0.045299
v 0.045299 0.161531 -0.045298
v 0.026634 0.241881 -0.026634
v 0.014759 0.309167 -0.014759
v 0.014496 0.471853 -0.014496
v 0.014937 0.483109 -0.014937
v 0.018723 0.480712 -0.018723
v 0.020696 0.317579 -0.020696
v 0.030973 0.261900 -0.030973
v 0.047109 0.213543 -0.047109
v 0.057411 0.163678 -0.057411
v 0.057973 0.113746 -0.057973
v 0.057973 0.011756 -0.057973
v 0.054032 0.004762 -0.054032
v 0.046705 0.004762 -0.046705
v 0.028513 0.041591 -0.028513
v 0.012238 0.069257 -0.029544
v 0.024515 0.042316 -0.059185
v 0.024515 0.161531 -0.059185
v 0.014414 0.241881 -0.034799
v 0.007987 0.309167 -0.019283
v 0.007845 0.471853 -0.018940
v 0.008084 0.483109 -0.019516
v 0.010133 0.480712 -0.024463
v 0.011201 0.317579 -0.027041
v 0.016763 0.261900 -0.040468
v 0.025495 0.213543 -0.061551
v 0.031071 0.163678 -0.075011
v 0.031375 0.113746 -0.075746
v 0.031375 0.011756 -0.075746
v 0.029242 0.004762 -0.070596
v 0.025277 0.004762 -0.061023
v 0.015431 0.041591 -0.037254
v 0.000000 0.069257 -0.031978
v 0.000000 0.042316 -0.064062
v 0.000000 0.161531 -0.064062
v -0.000000 0.241881 -0.037667
v -0.000000 0.309167 -0.020872
v -0.000000 0.471853 -0.020500
v 0.000000 0.483109 -0.021124
v 0.000000 0.480712 -0.026478
v -0.000000 0.317579 -0.029269
v -0.000000 0.261900 -0.043803
v 0.000000 0.213543 -0.066622
v 0.000000 0.163678 -0.081191
v 0.000000 0.113746 -0.081986
v -0.000000 0.011756 -0.081986
v -0.000000 0.004762 -0.076412
v 0.000000 0.004762 -0.066051
v 0.000000 0.041591 -0.040324
v -0.012238 0.069257 -0.029544
v -0.024515 0.042316 -0.059185
v -0.024515 0.161531 -0.059185
v -0.014414 0.241881 -0.034799
v -0.007987 0.309167 -0.019283
v -0.007845 0.471853 -0.018940
v -0.008084 0.483109 -0.019516
v -0.010133 0.480712 -0.024463
v -0.011201 0.317579 -0.027041
v -0.016763 0.261900 -0.040468
v -0.025495 0.213543 -0.061551
v -0.031071 0.163678 -0.075011
v -0.031375 0.113746 -0.075746
v -0.031375 0.011756 -0.075746
v -0.029242 0.004762 -0.070596
v -0.025277 0.004762 -0.061023
v -0.015431 0.041591 -0.037254
v -0.022612 0.069257 -0.022612
v -0.045299 0.042316 -0.045299
v -0.045298 0.161531 -0.045299
v -0.026634 0.241881 -0.026634
v -0.014759 0.309167 -0.014759
v -0.014496 0.471853 -0.014496
v -0.014937 0.483109 -0.014937
v -0.018723 0.480712 -0.018723
v -0.020696 0.317579 -0.020696
v -0.030973 0.261900 -0.030973
v -0.047109 0.213543 -0.047109
v -0.057411 0.163678 -0.057411
v -0.057973 0.113746 -0.057973
v -0.057973 0.011756 -0.057973
v -0.054032 0.004762 -0.054032
v -0.046705 0.004762 -0.046705
v -0.028513 0.041591 -0.028513
v -0.029544 0.069257 -0.012238
v -0.059185 0.042316 -0.024515
v -0.059185 0.161531 -0.024515
v -0.034799 0.241881 -0.014414
v -0.019283 0.309167 -0.007987
v -0.018940 0.471853 -0.007845
v -0.019516 0.483109 -0.008084
v -0.024463 0.480712 -0.010133
v -0.027041 0.317579 -0.011201
v -0.040468 0.261900 -0.016763
v -0.061551 0.213543 -0.025495
v -0.075011 0.163678 -0.031071
v -0.075746 0.113746 -0.031375
v -0.075746 0.011756 -0.031375
v -0.070596 0.004762 -0.029242
v -0.061023 0.004762 -0.025277
v -0.037254 0.041591 -0.015431
v -0.031978 0.069257 -0.000000
v -0.064062 0.042316 -0.000000
v -0.064062 0.161531 -0.000000
v -0.037667 0.241881 0.000000
v -0.020872 0.309167 0.000000
v -0.020500 0.471853 0.000000
v -0.021124 0.483109 -0.000000
v -0.026478 0.480712 -0.000000
v -0.029269 0.317579 0.000000
v -0.043803 0.261900 0.000000
v -0.066622 0.213543 -0.000000
v -0.081191 0.163678 -0.000000
v -0.081986 0.113746 -0.000000
v -0.081986 0.011756 0.000000
v -0.076412 0.004762 0.000000
v -0.066051 0.004762 0.000000
v -0.040324 0.041591 -0.000000
v -0.029544 0.069257 0.012238
v -0.059185 0.042316 0.024515
v -0.059185 0.161531 0.024515
v -0.034799 0.241881 0.014414
v -0.019283 0.309167 0.007987
v -0.018940 0.471853 0.007845
v -0.019516 0.483109 0.008084
v -0.024463 0.480712 0.010133
v -0.027041 0.317579 0.011201
v -0.040468 0.261900 0.016763
v -0.061551 0.213543 0.025495
v -0.075011 0.163678 0.031071
v -0.075746 0.113746 0.031375
v -0.075746 0.011756 0.031375
v -0.070596 0.004762 0.029242
v -0.061023 0.004762 0.025277
v -0.037254 0.041591 0.015431
v -0.022612 0.069257 0.022612
v -0.045299 0.042316 0.045299
v -0.045299 0.161531 0.045298
v -0.026634 0.241881 0.026634
v -0.014759 0.309167 0.014759
v -0.014496 0.471853 0.014496
v -0.014937 0.483109 0.014937
v -0.018723 0.480712 0.018723
v -0.020696 0.317579 0.020696
v -0.030973 0.261900 0.030973
v -0.047109 0.213543 0.047109
v -0.057411 0.163678 0.057411
v -0.057973 0.113746 0.057973
v -0.057973 0.011756 0.057973
v -0.054032 0.004762 0.054032
v -0.046705 0.004762 0.046705
v -0.028513 0.041591 0.028513
v -0.012238 0.069257 0.029544
v -0.024515 0.042316 0.059185
v -0.024515 0.161531 0.059185
v -0.014414 0.241881 0.034799
v -0.007987 0.309167 0.019283
v -0.007845 0.471853 0.018940
v -0.008084 0.483109 0.019516
v -0.010133 0.480712 0.024463
v -0.011201 0.317579 0.027041
v -0.016763 0.261900 0.040468
v -0.025495 0.213543 0.061551
v -0.031071 0.163678 0.075011
v -0.031375 0.113746 0.075746
v -0.031375 0.011756 0.075746
v -0.029242 0.004762 0.070596
v -0.025277 0.004762 0.061023
v -0.015431 0.041591 0.037254
v -0.000000 0.069257 0.031978
v -0.000000 0.042316 0.064062
v -0.000000 0.161531 0.064062
v 0.000000 0.241881 0.037667
v 0.000000 0.309167 0.020872
v 0.000000 0.471853 0.020500
v -0.000000 0.483109 0.021124
v -0.000000 0.480712 0.026478
v 0.000000 0.317579 0.029269
v 0.000000 0.261900 0.043803
v -0.000000 0.213543 0.066622
v -0.000000 0.163678 0.081191
v -0.000000 0.113746 0.081986
v -0.000000 0.011756 0.081986
v -0.000000 0.004762 0.076412
v -0.000000 0.004762 0.066051
v -0.000000 0.041591 0.040324
v 0.012238 0.069257 0.029544
v 0.024515 0.042316 0.059185
v 0.024515 0.161531 0.059185
v 0.014414 0.241881 0.034799
v 0.007987 0.309167 0.019283
v 0.007845 0.471853 0.018940
v 0.008084 0.483109 0.019516
v 0.010133 0.480712 0.024463
v 0.011201 0.317579 0.027041
v 0.016763 0.261900 0.040468
v 0.025495 0.213543 0.061551
v 0.031071 0.163678 0.075011
v 0.031375 0.113746 0.075746
v 0.031375 0.011756 0.075746
v 0.029242 0.004762 0.070596
v 0.025277 0.004762 0.061023
v 0.015431 0.041591 0.037254
v 0.022612 0.069257 0.022612
v 0.045299 0.042316 0.045299
v 0.045299 0.161531 0.045299
v 0.026634 0.241881 0.026634
v 0.014759 0.309167 0.014759
v 0.014496 0.471853 0.014496
v 0.014937 0.483109 0.014937
v 0.018723 0.480712 0.018723
v 0.020696 0.317579 0.020696
v 0.030973 0.261900 0.030973
v 0.047109 0.213543 0.047109
v 0.057411 0.163678 0.057411
v 0.057973 0.113746 0.057973
v 0.057973 0.011756 0.057973
v 0.054032 0.004762 0.054032
v 0.046705 0.004762 0.046705
v 0.028513 0.041591 0.028513
v 0.029544 0.069257 0.012238
v 0.059185 0.042316 0.024515
v 0.059185 0.161531 0.024515
v 0.034799 0.241881 0.014414
v 0.019283 0.309167 0.007987
v 0.018940 0.471853 0.007845
v 0.019516 0.483109 0.008084
v 0.024463 0.480712 0.010133
v 0.027041 0.317579 0.011201
v 0.040468 0.261900 0.016763
v 0.061551 0.213543 0.025495
v 0.075011 0.163678 0.031071
v 0.075746 0.113746 0.031375
v 0.075746 0.011756 0.031375
v 0.070596 0.004762 0.029242
v 0.061023 0.004762 0.025277
v 0.037254 0.041591 0.015431
vn -0.0000 1.0000 -0.0000
vn 0.4500 0.8930 -0.0000
vn 0.4158 0.8930 -0.1722
vn 0.3182 0.8930 -0.3182
vn 0.1722 0.8930 -0.4158
vn -0.0000 0.8930 -0.4500
vn -0.1722 0.8930 -0.4158
vn -0.3182 0.8930 -0.3182
vn -0.4158 0.8930 -0.1722
vn -0.4500 0.8930 -0.0000
vn -0.4158 0.8930 0.1722
vn -0.3182 0.8930 0.3182
vn -0.1722 0.8930 0.4158
vn -0.0000 0.8930 0.4500
vn 0.1722 0.8930 0.4158
vn 0.3182 0.8930 0.3182
vn 0.4158 0.8930 0.1722
vn -0.5067 0.8621 -0.0000
vn -0.4681 0.8621 0.1939
vn -0.3583 0.8621 0.3583
vn -0.1939 0.8621 0.4681
vn -0.0000 0.8621 0.5067
vn 0.1939 0.8621 0.4681
vn 0.3583 0.8621 0.3583
vn 0.4681 0.8621 0.1939
vn 0.5067 0.8621 -0.0000
vn 0.4681 0.8621 -0.1939
vn 0.3583 0.8621 -0.3583
vn 0.1939 0.8621 -0.4681
vn -0.0000 0.8621 -0.5067
vn -0.1939 0.8621 -0.4681
vn -0.3583 0.8621 -0.3583
vn -0.9879 -0.1551 -0.0000
vn -0.6986 -0.1551 0.6986
vn -0.3781 -0.1551 0.9127
vn -0.0000 -0.1551 0.9879
vn 0.6986 -0.1551 0.6986
vn 0.9879 -0.1551 -0.0000
vn 0.9127 -0.1551 -0.3781
vn 0.6986 -0.1551 -0.6986
vn 0.3781 -0.1551 -0.9127
vn -0.0000 -0.1551 -0.9879
vn -0.6986 -0.1551 -0.6986
vn -0.4681 0.8621 -0.1939
vn -0.9604 -0.2785 -0.0000
vn -0.9127 -0.1551 0.3781
vn -0.8873 -0.2785 0.3675
vn -0.6791 -0.2785 0.6791
vn -0.3675 -0.2785 0.8873
vn -0.0000 -0.2785 0.9604
vn 0.3781 -0.1551 0.9127
vn 0.3675 -0.2785 0.8873
vn 0.6791 -0.2785 0.6791
vn 0.9127 -0.1551 0.3781
vn 0.8873 -0.2785 0.3675
vn 0.9604 -0.2785 -0.0000
vn 0.8873 -0.2785 -0.3675
vn 0.6791 -0.2785 -0.6791
vn 0.3675 -0.2785 -0.8873
vn -0.0000 -0.2785 -0.9604
vn -0.3781 -0.1551 -0.9127
vn -0.3675 -0.2785 -0.8873
vn -0.6791 -0.2785 -0.6791
vn -0.9127 -0.1551 -0.3781
vn -0.8873 -0.2785 -0.3675
vn -0.9922 -0.1250 -0.0000
vn -0.9166 -0.1250 0.3797
vn -0.7016 -0.1250 0.7016
vn -0.3797 -0.1250 0.9166
vn 0.3797 -0.1250 0.9166
vn 0.7016 -0.1250 0.7016
vn 0.9166 -0.1250 0.3797
vn 0.9922 -0.1250 -0.0000
vn 0.7016 -0.1250 -0.7016
vn 0.3797 -0.1250 -0.9166
vn -0.3797 -0.1250 -0.9166
vn -0.7016 -0.1250 -0.7016
vn -0.9166 -0.1250 -0.3797
vn -0.9996 0.0266 -0.0000
vn -0.9236 0.0266 0.3825
vn -0.7069 0.0266 0.7069
vn -0.3825 0.0266 0.9236
vn -0.0000 -0.1250 0.9922
vn -0.0000 0.0266 0.9996
vn 0.3825 0.0266 0.9236
vn 0.7069 0.0266 0.7069
vn 0.9236 0.0266 0.3825
vn 0.9996 0.0266 -0.0000
vn 0.9166 -0.1250 -0.3797
vn 0.9236 0.0266 -0.3825
vn 0.7069 0.0266 -0.7069
vn 0.3825 0.0266 -0.9236
vn -0.0000 -0.1250 -0.9922
vn -0.0000 0.0266 -0.9996
vn -0.3825 0.0266 -0.9236
vn -0.7069 0.0266 -0.7069
vn -0.9236 0.0266 -0.3825
vn -0.4040 0.8993 0.1674
vn -0.3092 0.8993 0.3092
vn -0.1674 0.8993 0.4040
vn -0.0000 0.8993 0.4373
vn 0.1673 0.8993 0.4040
vn 0.3092 0.8993 0.3092
vn 0.4040 0.8993 0.1674
vn 0.4373 0.8993 -0.0000
vn 0.4040 0.8993 -0.1674
vn 0.3092 0.8993 -0.3092
vn 0.1674 0.8993 -0.4040
vn -0.0000 0.8993 -0.4373
vn -0.1673 0.8993 -0.4040
vn -0.3092 0.8993 -0.3092
vn -0.4040 0.8993 -0.1674
vn -0.4373 0.8993 -0.0000
vn 0.8528 0.5223 -0.0000
vn 0.7879 0.5223 -0.3263
vn 0.6030 0.5223 -0.6030
vn 0.3263 0.5223 -0.7879
vn -0.0000 0.5223 -0.8528
vn -0.3263 0.5223 -0.7879
vn -0.6030 0.5223 -0.6030
vn -0.7879 0.5223 -0.3263
vn -0.8528 0.5223 -0.0000
vn -0.7879 0.5223 0.3263
vn -0.6030 0.5223 0.6030
vn -0.3263 0.5223 0.7879
vn -0.0000 0.5223 0.8528
vn 0.3263 0.5223 0.7879
vn 0.6030 0.5223 0.6030
vn 0.7879 0.5223 0.3263
vn 0.9905 0.1378 -0.0000
vn 0.9151 0.1378 -0.3790
vn 0.7004 0.1378 -0.7004
vn 0.3790 0.1378 -0.9151
vn -0.0000 0.1378 -0.9905
vn -0.3790 0.1378 -0.9151
vn -0.9151 0.1378 -0.3790
vn -0.9905 0.1378 -0.0000
vn -0.9151 0.1378 0.3790
vn -0.7004 0.1378 0.7004
vn -0.3790 0.1378 0.9151
vn -0.0000 0.1378 0.9905
vn 0.3790 0.1378 0.9151
vn 0.7004 0.1378 0.7004
vn 0.9151 0.1378 0.3790
vn 0.9386 0.3449 -0.0000
vn 0.8672 0.3449 -0.3592
vn 0.6637 0.3449 -0.6637
vn 0.3592 0.3449 -0.8672
vn -0.3592 0.3449 -0.8672
vn -0.7004 0.1378 -0.7004
vn -0.6637 0.3449 -0.6637
vn -0.8672 0.3449 -0.3592
vn -0.9386 0.3449 -0.0000
vn -0.8672 0.3449 0.3592
vn -0.6637 0.3449 0.6637
vn -0.0000 0.3449 0.9386
vn 0.3592 0.3449 0.8672
vn 0.6637 0.3449 0.6637
vn 0.8672 0.3449 0.3592
vn 0.8649 0.3515 -0.3583
vn 0.6620 0.3515 -0.6620
vn 0.3583 0.3515 -0.8649
vn -0.0000 0.3515 -0.9362
vn -0.0000 0.3449 -0.9386
vn -0.3583 0.3515 -0.8649
vn -0.6620 0.3515 -0.6620
vn -0.8649 0.3515 -0.3583
vn -0.9362 0.3515 -0.0000
vn -0.8649 0.3515 0.3583
vn -0.6620 0.3515 0.6620
vn -0.3583 0.3515 0.8649
vn -0.3592 0.3449 0.8672
vn -0.0000 0.3515 0.9362
vn 0.3583 0.3515 0.8649
vn 0.6620 0.3515 0.6620
vn 0.8649 0.3515 0.3583
vn 0.9362 0.3515 -0.0000
vn 0.9891 0.1471 -0.0000
vn 0.9138 0.1471 -0.3785
vn 0.6994 0.1471 -0.6994
vn 0.3785 0.1471 -0.9138
vn -0.0000 0.1471 -0.9891
vn -0.3785 0.1471 -0.9138
vn -0.6994 0.1471 -0.6994
vn -0.9138 0.1471 -0.3785
vn -0.9891 0.1471 -0.0000
vn -0.9138 0.1471 0.3785
vn -0.6994 0.1471 0.6994
vn -0.3785 0.1471 0.9138
vn -0.0000 0.1471 0.9891
vn 0.3785 0.1471 0.9138
vn 0.6994 0.1471 0.6994
vn 0.9138 0.1471 0.3785
vn 1.0000 0.0080 -0.0000
vn 0.9239 0.0080 -0.3827
vn 0.7071 0.0080 -0.7071
vn 0.3827 0.0080 -0.9239
vn -0.0000 0.0080 -1.0000
vn -0.3827 0.0080 -0.9239
vn -0.7071 0.0080 -0.7071
vn -0.9239 0.0080 -0.3827
vn -1.0000 0.0080 -0.0000
vn -0.9239 0.0080 0.3827
vn -0.7071 0.0080 0.7071
vn -0.3827 0.0080 0.9239
vn -0.0000 0.0080 1.0000
vn 0.3827 0.0080 0.9239
vn 0.7071 0.0080 0.7071
vn 0.9239 0.0080 0.3827
vn 0.9481 -0.3180 -0.0000
vn 0.8759 -0.3180 -0.3628
vn 0.6704 -0.3180 -0.6704
vn 0.3628 -0.3180 -0.8759
vn -0.0000 -0.3180 -0.9481
vn -0.3628 -0.3180 -0.8759
vn -0.6704 -0.3180 -0.6704
vn -0.8759 -0.3180 -0.3628
vn -0.9481 -0.3180 -0.0000
vn -0.8759 -0.3180 0.3628
vn -0.6704 -0.3180 0.6704
vn -0.3628 -0.3180 0.8759
vn -0.0000 -0.3180 0.9481
vn 0.3628 -0.3180 0.8759
vn 0.6704 -0.3180 0.6704
vn 0.8759 -0.3180 0.3628
vn 0.4759 -0.8795 -0.0000
vn 0.4397 -0.8795 -0.1821
vn 0.3365 -0.8795 -0.3365
vn 0.1821 -0.8795 -0.4397
vn -0.0000 -0.8795 -0.4759
vn -0.3365 -0.8795 -0.3365
vn -0.4397 -0.8795 -0.1821
vn -0.4759 -0.8795 -0.0000
vn -0.3365 -0.8795 0.3365
vn -0.1821 -0.8795 0.4397
vn -0.0000 -0.8795 0.4759
vn 0.1821 -0.8795 0.4397
vn 0.3365 -0.8795 0.3365
vn 0.4397 -0.8795 0.1821
vn -0.3829 -0.9101 0.1586
vn -0.2931 -0.9101 0.2931
vn -0.1586 -0.9101 0.3829
vn -0.0000 -0.9101 0.4145
vn 0.1586 -0.9101 0.3829
vn -0.1821 -0.8795 -0.4397
vn 0.2931 -0.9101 0.2931
vn 0.3829 -0.9101 0.1586
vn 0.4145 -0.9101 -0.0000
vn 0.3829 -0.9101 -0.1586
vn -0.4397 -0.8795 0.1821
vn 0.1586 -0.9101 -0.3829
vn -0.0000 -0.9101 -0.4145
vn -0.2931 -0.9101 -0.2931
vn -0.3829 -0.9101 -0.1586
vn -0.4145 -0.9101 -0.0000
vn -0.6284 -0.7779 -0.0000
vn -0.4443 -0.7779 0.4443
vn -0.0000 -0.7779 0.6284
vn 0.2405 -0.7779 0.5806
vn 0.5806 -0.7779 0.2405
vn 0.6284 -0.7779 -0.0000
vn 0.5806 -0.7779 -0.2405
vn 0.2931 -0.9101 -0.2931
vn 0.4443 -0.7779 -0.4443
vn 0.2405 -0.7779 -0.5806
vn -0.0000 -0.7779 -0.6284
vn -0.1586 -0.9101 -0.3829
vn -0.2405 -0.7779 -0.5806
vn -0.4443 -0.7779 -0.4443
vn -0.5806 -0.7779 -0.2405
vn -0.0000 -1.0000 -0.0000
vn -0.5806 -0.7779 0.2405
vn -0.2405 -0.7779 0.5806
vn 0.4443 -0.7779 0.4443
vt 0.031250 0.070531
vt 0.000000 0.064774
vt 0.062500 0.064774
vt 0.093750 0.070531
vt 0.125000 0.064774
vt 0.156250 0.070531
vt 0.187500 0.064774
vt 0.218750 0.070531
vt 0.250000 0.064774
vt 0.281250 0.070531
vt 0.312500 0.064774
vt 0.343750 0.070531
vt 0.375000 0.064774
vt 0.406250 0.070531
vt 0.437500 0.064774
vt 0.468750 0.070531
vt 0.500000 0.064774
vt 0.531250 0.070531
vt 0.562500 0.064774
vt 0.593750 0.070531
vt 0.625000 0.064774
vt 0.656250 0.070531
vt 0.687500 0.064774
vt 0.718750 0.070531
vt 0.750000 0.064774
vt 0.781250 0.070531
vt 0.812500 0.064774
vt 0.843750 0.070531
vt 0.875000 0.064774
vt 0.906250 0.070531
vt 0.937500 0.064774
vt 0.968750 0.070531
vt 1.000000 0.064774
vt 0.000000 0.037833
vt 0.062500 0.037833
vt 0.125000 0.037833
vt 0.187500 0.037833
vt 0.250000 0.037833
vt 0.312500 0.037833
vt 0.375000 0.037833
vt 0.437500 0.037833
vt 0.500000 0.037833
vt 0.562500 0.037833
vt 0.625000 0.037833
vt 0.687500 0.037833
vt 0.750000 0.037833
vt 0.812500 0.037833
vt 0.875000 0.037833
vt 1.000000 0.037833
vt 0.000000 0.157048
vt 0.125000 0.157048
vt 0.187500 0.157048
vt 0.250000 0.157048
vt 0.375000 0.157048
vt 0.500000 0.157048
vt 0.562500 0.157048
vt 0.625000 0.157048
vt 0.687500 0.157048
vt 0.750000 0.157048
vt 0.875000 0.157048
vt 0.937500 0.037833
vt 1.000000 0.157048
vt 0.000000 0.237398
vt 0.062500 0.157048
vt 0.062500 0.237398
vt 0.125000 0.237398
vt 0.187500 0.237398
vt 0.250000 0.237398
vt 0.312500 0.157048
vt 0.312500 0.237398
vt 0.375000 0.237398
vt 0.437500 0.157048
vt 0.437500 0.237398
vt 0.500000 0.237398
vt 0.562500 0.237398
vt 0.625000 0.237398
vt 0.687500 0.237398
vt 0.750000 0.237398
vt 0.812500 0.157048
vt 0.812500 0.237398
vt 0.875000 0.237398
vt 0.937500 0.157048
vt 0.937500 0.237398
vt 0.000000 0.304683
vt 0.062500 0.304683
vt 0.125000 0.304683
vt 0.187500 0.304683
vt 0.312500 0.304683
vt 0.375000 0.304683
vt 0.437500 0.304683
vt 0.500000 0.304683
vt 0.625000 0.304683
vt 0.687500 0.304683
vt 0.812500 0.304683
vt 0.875000 0.304683
vt 0.937500 0.304683
vt 1.000000 0.237398
vt 0.000000 0.467370
vt 0.062500 0.467370
vt 0.125000 0.467370
vt 0.187500 0.467370
vt 0.250000 0.304683
vt 0.250000 0.467370
vt 0.312500 0.467370
vt 0.375000 0.467370
vt 0.437500 0.467370
vt 0.500000 0.467370
vt 0.562500 0.304683
vt 0.562500 0.467370
vt 0.625000 0.467370
vt 0.687500 0.467370
vt 0.750000 0.304683
vt 0.750000 0.467370
vt 0.812500 0.467370
vt 0.875000 0.467370
vt 0.937500 0.467370
vt 1.000000 0.304683
vt 0.062500 0.478626
vt 0.125000 0.478626
vt 0.187500 0.478626
vt 0.250000 0.478626
vt 0.312500 0.478626
vt 0.375000 0.478626
vt 0.437500 0.478626
vt 0.500000 0.478626
vt 0.562500 0.478626
vt 0.625000 0.478626
vt 0.687500 0.478626
vt 0.750000 0.478626
vt 0.812500 0.478626
vt 0.875000 0.478626
vt 0.937500 0.478626
vt 1.000000 0.478626
vt 1.000000 0.467370
vt 0.000000 0.476229
vt 0.000000 0.478626
vt 0.062500 0.476229
vt 0.125000 0.476229
vt 0.187500 0.476229
vt 0.250000 0.476229
vt 0.312500 0.476229
vt 0.375000 0.476229
vt 0.437500 0.476229
vt 0.500000 0.476229
vt 0.562500 0.476229
vt 0.625000 0.476229
vt 0.687500 0.476229
vt 0.750000 0.476229
vt 0.812500 0.476229
vt 0.875000 0.476229
vt 0.937500 0.476229
vt 0.000000 0.313095
vt 0.062500 0.313095
vt 0.125000 0.313095
vt 0.187500 0.313095
vt 0.250000 0.313095
vt 0.312500 0.313095
vt 0.437500 0.313095
vt 0.500000 0.313095
vt 0.562500 0.313095
vt 0.625000 0.313095
vt 0.687500 0.313095
vt 0.750000 0.313095
vt 0.812500 0.313095
vt 0.875000 0.313095
vt 0.937500 0.313095
vt 1.000000 0.476229
vt 0.000000 0.257417
vt 0.062500 0.257417
vt 0.125000 0.257417
vt 0.187500 0.257417
vt 0.312500 0.257417
vt 0.375000 0.313095
vt 0.375000 0.257417
vt 0.437500 0.257417
vt 0.500000 0.257417
vt 0.562500 0.257417
vt 0.625000 0.257417
vt 0.750000 0.257417
vt 0.812500 0.257417
vt 0.875000 0.257417
vt 0.937500 0.257417
vt 1.000000 0.313095
vt 0.062500 0.209060
vt 0.125000 0.209060
vt 0.187500 0.209060
vt 0.250000 0.209060
vt 0.250000 0.257417
vt 0.312500 0.209060
vt 0.375000 0.209060
vt 0.437500 0.209060
vt 0.500000 0.209060
vt 0.562500 0.209060
vt 0.625000 0.209060
vt 0.687500 0.209060
vt 0.687500 0.257417
vt 0.750000 0.209060
vt 0.812500 0.209060
vt 0.875000 0.209060
vt 0.937500 0.209060
vt 1.000000 0.209060
vt 1.000000 0.257417
vt 0.000000 0.159195
vt 0.000000 0.209060
vt 0.062500 0.159195
vt 0.125000 0.159195
vt 0.187500 0.159195
vt 0.250000 0.159195
vt 0.312500 0.159195
vt 0.375000 0.159195
vt 0.437500 0.159195
vt 0.500000 0.159195
vt 0.562500 0.159195
vt 0.625000 0.159195
vt 0.687500 0.159195
vt 0.750000 0.159195
vt 0.812500 0.159195
vt 0.875000 0.159195
vt 0.937500 0.159195
vt 0.000000 0.109263
vt 0.062500 0.109263
vt 0.125000 0.109263
vt 0.187500 0.109263
vt 0.250000 0.109263
vt 0.312500 0.109263
vt 0.375000 0.109263
vt 0.437500 0.109263
vt 0.500000 0.109263
vt 0.562500 0.109263
vt 0.625000 0.109263
vt 0.687500 0.109263
vt 0.750000 0.109263
vt 0.812500 0.109263
vt 0.875000 0.109263
vt 0.937500 0.109263
vt 1.000000 0.159195
vt 0.000000 0.007273
vt 0.062500 0.007273
vt 0.125000 0.007273
vt 0.187500 0.007273
vt 0.250000 0.007273
vt 0.312500 0.007273
vt 0.375000 0.007273
vt 0.437500 0.007273
vt 0.500000 0.007273
vt 0.562500 0.007273
vt 0.625000 0.007273
vt 0.687500 0.007273
vt 0.750000 0.007273
vt 0.812500 0.007273
vt 0.875000 0.007273
vt 0.937500 0.007273
vt 1.000000 0.109263
vt 0.000000 0.000279
vt 0.062500 0.000279
vt 0.125000 0.000279
vt 0.187500 0.000279
vt 0.250000 0.000279
vt 0.375000 0.000279
vt 0.437500 0.000279
vt 0.500000 0.000279
vt 0.625000 0.000279
vt 0.687500 0.000279
vt 0.750000 0.000279
vt 0.812500 0.000279
vt 0.875000 0.000279
vt 0.937500 0.000279
vt 1.000000 0.007273
vt 0.062500 0.000279
vt 0.125000 0.000279
vt 0.187500 0.000279
vt 0.250000 0.000279
vt 0.312500 0.000279
vt 0.312500 0.000279
vt 0.375000 0.000279
vt 0.437500 0.000279
vt 0.500000 0.000279
vt 0.562500 0.000279
vt 0.562500 0.000279
vt 0.687500 0.000279
vt 0.750000 0.000279
vt 0.875000 0.000279
vt 0.937500 0.000279
vt 1.000000 0.000279
vt 1.000000 0.000279
vt 0.000000 0.037108
vt 0.000000 0.000279
vt 0.125000 0.037108
vt 0.250000 0.037108
vt 0.312500 0.037108
vt 0.437500 0.037108
vt 0.500000 0.037108
vt 0.562500 0.037108
vt 0.625000 0.000279
vt 0.625000 0.037108
vt 0.687500 0.037108
vt 0.750000 0.037108
vt 0.812500 0.000279
vt 0.812500 0.037108
vt 0.875000 0.037108
vt 0.937500 0.037108
vt 0.031250 0.051339
vt 0.062500 0.037108
vt 0.093750 0.051339
vt 0.156250 0.051339
vt 0.187500 0.037108
vt 0.218750 0.051339
vt 0.281250 0.051339
vt 0.343750 0.051339
vt 0.375000 0.037108
vt 0.406250 0.051339
vt 0.468750 0.051339
vt 0.531250 0.051339
vt 0.593750 0.051339
vt 0.656250 0.051339
vt 0.718750 0.051339
vt 0.781250 0.051339
vt 0.843750 0.051339
vt 0.906250 0.051339
vt 0.968750 0.051339
vt 1.000000 0.037108
s 1
f 407/522/407 408/523/408 426/524/409
f 407/525/407 426/524/409 443/526/410
f 407/527/407 443/526/410 460/528/411
f 407/529/407 460/528/411 477/530/412
f 407/531/407 477/530/412 494/532/413
f 407/533/407 494/532/413 511/534/414
f 407/535/407 511/534/414 528/536/415
f 407/537/407 528/536/415 545/538/416
f 407/539/407 545/538/416 562/540/417
f 407/541/407 562/540/417 579/542/418
f 407/543/407 579/542/418 596/544/419
f 407/545/407 596/544/419 613/546/420
f 407/547/407 613/546/420 630/548/421
f 407/549/407 630/548/421 647/550/422
f 407/551/407 647/550/422 664/552/423
f 407/553/407 664/552/423 408/554/408
f 409/555/424 426/524/409 408/523/408
f 427/556/425 443/526/410 426/524/409
f 444/557/426 460/528/411 443/526/410
f 461/558/427 477/530/412 460/528/411
f 478/559/428 494/532/413 477/530/412
f 495/560/429 511/534/414 494/532/413
f 512/561/430 528/536/415 511/534/414
f 529/562/431 545/538/416 528/536/415
f 546/563/432 562/540/417 545/538/416
f 563/564/433 579/542/418 562/540/417
f 580/565/434 596/544/419 579/542/418
f 597/566/435 613/546/420 596/544/419
f 614/567/436 630/548/421 613/546/420
f 631/568/437 647/550/422 630/548/421
f 648/569/438 664/552/423 647/550/422
f 664/552/423 409/570/424 408/554/408
f 410/571/439 427/556/425 409/555/424
f 427/556/425 445/572/440 444/557/426
f 444/557/426 462/573/441 461/558/427
f 462/573/441 478/559/428 461/558/427
f 479/574/442 495/560/429 478/559/428
f 495/560/429 513/575/443 512/561/430
f 513/575/443 529/562/431 512/561/430
f 529/562/431 547/576/444 546/563/432
f 546/563/432 564/577/445 563/564/433
f 563/564/433 581/578/446 580/565/434
f 580/565/434 598/579/447 597/566/435
f 597/566/435 615/580/448 614/567/436
f 615/580/448 631/568/437 614/567/436
f 631/568/437 649/581/449 648/569/438
f 649/581/449 665/582/450 648/569/438
f 665/582/450 410/583/439 409/570/424
f 411/584/451 428/585/452 410/571/439
f 429/586/453 445/572/440 428/585/452
f 446/587/454 462/573/441 445/572/440
f 463/588/455 479/574/442 462/573/441
f 480/589/456 496/590/457 479/574/442
f 497/591/458 513/575/443 496/590/457
f 514/592/459 530/593/460 513/575/443
f 531/594/461 547/576/444 530/593/460
f 548/595/462 564/577/445 547/576/444
f 565/596/463 581/578/446 564/577/445
f 582/597/464 598/579/447 581/578/446
f 599/598/465 615/580/448 598/579/447
f 616/599/466 632/600/467 615/580/448
f 633/601/468 649/581/449 632/600/467
f 650/602/469 666/603/470 649/581/449
f 667/604/471 410/583/439 666/603/470
f 412/605/472 429/586/453 411/584/451
f 430/606/473 446/587/454 429/586/453
f 447/607/474 463/588/455 446/587/454
f 464/608/475 480/589/456 463/588/455
f 480/589/456 498/609/476 497/591/458
f 498/609/476 514/592/459 497/591/458
f 515/610/477 531/594/461 514/592/459
f 532/611/478 548/595/462 531/594/461
f 549/612/479 565/596/463 548/595/462
f 565/596/463 583/613/480 582/597/464
f 583/613/480 599/598/465 582/597/464
f 600/614/481 616/599/466 599/598/465
f 616/599/466 634/615/482 633/601/468
f 633/601/468 651/616/483 650/602/469
f 650/602/469 668/617/484 667/604/471
f 668/617/484 411/618/451 667/604/471
f 413/619/485 430/606/473 412/605/472
f 431/620/486 447/607/474 430/606/473
f 448/621/487 464/608/475 447/607/474
f 465/622/488 481/623/489 464/608/475
f 482/624/490 498/609/476 481/623/489
f 499/625/491 515/610/477 498/609/476
f 516/626/492 532/611/478 515/610/477
f 533/627/493 549/612/479 532/611/478
f 550/628/494 566/629/495 549/612/479
f 567/630/496 583/613/480 566/629/495
f 584/631/497 600/614/481 583/613/480
f 601/632/498 617/633/499 600/614/481
f 618/634/500 634/615/482 617/633/499
f 635/635/501 651/616/483 634/615/482
f 652/636/502 668/617/484 651/616/483
f 669/637/503 412/638/472 668/617/484
f 413/619/485 432/639/504 431/620/486
f 431/620/486 449/640/505 448/621/487
f 448/621/487 466/641/506 465/622/488
f 465/622/488 483/642/507 482/624/490
f 482/624/490 500/643/508 499/625/491
f 499/625/491 517/644/509 516/626/492
f 516/626/492 534/645/510 533/627/493
f 533/627/493 551/646/511 550/628/494
f 550/628/494 568/647/512 567/630/496
f 567/630/496 585/648/513 584/631/497
f 584/631/497 602/649/514 601/632/498
f 601/632/498 619/650/515 618/634/500
f 618/634/500 636/651/516 635/635/501
f 635/635/501 653/652/517 652/636/502
f 652/636/502 670/653/518 669/637/503
f 669/637/503 414/654/519 413/655/485
f 415/656/520 432/639/504 414/657/519
f 433/658/521 449/640/505 432/639/504
f 450/659/522 466/641/506 449/640/505
f 467/660/523 483/642/507 466/641/506
f 484/661/524 500/643/508 483/642/507
f 501/662/525 517/644/509 500/643/508
f 518/663/526 534/645/510 517/644/509
f 535/664/527 551/646/511 534/645/510
f 552/665/528 568/647/512 551/646/511
f 569/666/529 585/648/513 568/647/512
f 586/667/530 602/649/514 585/648/513
f 603/668/531 619/650/515 602/649/514
f 620/669/532 636/651/516 619/650/515
f 637/670/533 653/652/517 636/651/516
f 654/671/534 670/653/518 653/652/517
f 671/672/535 414/654/519 670/653/518
f 416/673/536 433/658/521 415/656/520
f 434/674/537 450/659/522 433/658/521
f 451/675/538 467/660/523 450/659/522
f 468/676/539 484/661/524 467/660/523
f 485/677/540 501/662/525 484/661/524
f 502/678/541 518/663/526 501/662/525
f 518/663/526 536/679/542 535/664/527
f 535/664/527 553/680/543 552/665/528
f 553/680/543 569/666/529 552/665/528
f 570/681/544 586/667/530 569/666/529
f 587/682/545 603/668/531 586/667/530
f 604/683/546 620/669/532 603/668/531
f 621/684/547 637/670/533 620/669/532
f 638/685/548 654/671/534 637/670/533
f 655/686/549 671/672/535 654/671/534
f 672/687/550 415/688/520 671/672/535
f 417/689/551 434/674/537 416/673/536
f 435/690/552 451/675/538 434/674/537
f 452/691/553 468/676/539 451/675/538
f 469/692/554 485/677/540 468/676/539
f 485/677/540 503/693/555 502/678/541
f 503/693/555 519/694/556 502/678/541
f 520/695/557 536/679/542 519/694/556
f 537/696/558 553/680/543 536/679/542
f 554/697/559 570/681/544 553/680/543
f 571/698/560 587/682/545 570/681/544
f 588/699/561 604/683/546 587/682/545
f 604/683/546 622/700/562 621/684/547
f 622/700/562 638/685/548 621/684/547
f 639/701/563 655/686/549 638/685/548
f 656/702/564 672/687/550 655/686/549
f 673/703/565 416/704/536 672/687/550
f 417/689/551 436/705/566 435/690/552
f 435/690/552 453/706/567 452/691/553
f 452/691/553 470/707/568 469/692/554
f 469/692/554 487/708/569 486/709/570
f 486/709/570 504/710/571 503/693/555
f 503/693/555 521/711/572 520/695/557
f 520/695/557 538/712/573 537/696/558
f 537/696/558 555/713/574 554/697/559
f 554/697/559 572/714/575 571/698/560
f 571/698/560 589/715/576 588/699/561
f 588/699/561 606/716/577 605/717/578
f 605/717/578 623/718/579 622/700/562
f 622/700/562 640/719/580 639/701/563
f 639/701/563 657/720/581 656/702/564
f 656/702/564 674/721/582 673/703/565
f 673/703/565 418/722/583 417/723/551
f 419/724/584 436/705/566 418/725/583
f 437/726/585 453/706/567 436/705/566
f 454/727/586 470/707/568 453/706/567
f 471/728/587 487/708/569 470/707/568
f 488/729/588 504/710/571 487/708/569
f 505/730/589 521/711/572 504/710/571
f 522/731/590 538/712/573 521/711/572
f 539/732/591 555/713/574 538/712/573
f 556/733/592 572/714/575 555/713/574
f 573/734/593 589/715/576 572/714/575
f 590/735/594 606/716/577 589/715/576
f 607/736/595 623/718/579 606/716/577
f 624/737/596 640/719/580 623/718/579
f 641/738/597 657/720/581 640/719/580
f 658/739/598 674/721/582 657/720/581
f 675/740/599 418/722/583 674/721/582
f 420/741/600 437/726/585 419/724/584
f 438/742/601 454/727/586 437/726/585
f 455/743/602 471/728/587 454/727/586
f 472/744/603 488/729/588 471/728/587
f 489/745/604 505/730/589 488/729/588
f 506/746/605 522/731/590 505/730/589
f 523/747/606 539/732/591 522/731/590
f 540/748/607 556/733/592 539/732/591
f 557/749/608 573/734/593 556/733/592
f 574/750/609 590/735/594 573/734/593
f 591/751/610 607/736/595 590/735/594
f 608/752/611 624/737/596 607/736/595
f 625/753/612 641/738/597 624/737/596
f 642/754/613 658/739/598 641/738/597
f 659/755/614 675/740/599 658/739/598
f 676/756/615 419/757/584 675/740/599
f 421/758/616 438/742/601 420/741/600
f 439/759/617 455/743/602 438/742/601
f 456/760/618 472/744/603 455/743/602
f 473/761/619 489/745/604 472/744/603
f 490/762/620 506/746/605 489/745/604
f 507/763/621 523/747/606 506/746/605
f 524/764/622 540/748/607 523/747/606
f 541/765/623 557/749/608 540/748/607
f 558/766/624 574/750/609 557/749/608
f 575/767/625 591/751/610 574/750/609
f 592/768/626 608/752/611 591/751/610
f 609/769/627 625/753/612 608/752/611
f 626/770/628 642/754/613 625/753/612
f 643/771/629 659/755/614 642/754/613
f 660/772/630 676/756/615 659/755/614
f 677/773/631 420/774/600 676/756/615
f 422/775/632 439/759/617 421/758/616
f 440/776/633 456/760/618 439/759/617
f 457/777/634 473/761/619 456/760/618
f 474/778/635 490/762/620 473/761/619
f 491/779/636 507/763/621 490/762/620
f 507/763/621 525/780/637 524/764/622
f 525/780/637 541/765/623 524/764/622
f 542/781/638 558/766/624 541/765/623
f 559/782/639 575/767/625 558/766/624
f 575/767/625 593/783/640 592/768/626
f 593/783/640 609/769/627 592/768/626
f 610/784/641 626/770/628 609/769/627
f 627/785/642 643/771/629 626/770/628
f 644/786/643 660/772/630 643/771/629
f 661/787/644 677/773/631 660/772/630
f 678/788/645 421/789/616 677/773/631
f 422/775/632 441/790/646 440/776/633
f 440/776/633 458/791/647 457/777/634
f 457/777/634 475/792/648 474/778/635
f 474/778/635 492/793/649 491/779/636
f 491/779/636 509/794/650 508/795/651
f 508/795/651 526/796/652 525/780/637
f 525/780/637 543/797/653 542/781/638
f 542/781/638 560/798/654 559/782/639
f 559/782/639 577/799/655 576/800/656
f 577/799/655 593/783/640 576/800/656
f 593/783/640 611/801/657 610/784/641
f 610/784/641 628/802/658 627/785/642
f 628/802/658 644/786/643 627/785/642
f 644/786/643 662/803/659 661/787/644
f 661/787/644 679/804/660 678/788/645
f 678/788/645 423/805/661 422/806/632
f 424/807/662 441/790/646 423/808/661
f 441/790/646 459/809/663 458/791/647
f 459/809/663 475/792/648 458/791/647
f 475/792/648 493/810/664 492/793/649
f 493/810/664 509/794/650 492/793/649
f 510/811/665 526/796/652 509/794/650
f 526/796/652 544/812/666 543/797/653
f 544/812/666 560/798/654 543/797/653
f 561/813/667 577/799/655 560/798/654
f 578/814/668 594/815/669 577/799/655
f 595/816/670 611/801/657 594/815/669
f 612/817/671 628/802/658 611/801/657
f 629/818/672 645/819/673 628/802/658
f 646/820/674 662/803/659 645/819/673
f 663/821/675 679/804/660 662/803/659
f 680/822/676 423/805/661 679/804/660
f 424/807/662 425/823/677 442/824/678
f 442/824/678 425/825/677 459/809/663
f 459/809/663 425/826/677 476/827/679
f 476/827/679 425/828/677 493/810/664
f 493/810/664 425/829/677 510/811/665
f 510/811/665 425/830/677 527/831/680
f 527/831/680 425/832/677 544/812/666
f 544/812/666 425/833/677 561/813/667
f 561/813/667 425/834/677 578/814/668
f 578/814/668 425/835/677 595/816/670
f 595/816/670 425/836/677 612/817/671
f 612/817/671 425/837/677 629/818/672
f 629/818/672 425/838/677 646/820/674
f 646/820/674 425/839/677 663/821/675
f 663/821/675 425/840/677 680/822/676
f 680/822/676 425/841/677 424/842/662
f 409/555/424 427/556/425 426/524/409
f 427/556/425 444/557/426 443/526/410
f 444/557/426 461/558/427 460/528/411
f 461/558/427 478/559/428 477/530/412
f 478/559/428 495/560/429 494/532/413
f 495/560/429 512/561/430 511/534/414
f 512/561/430 529/562/431 528/536/415
f 529/562/431 546/563/432 545/538/416
f 546/563/432 563/564/433 562/540/417
f 563/564/433 580/565/434 579/542/418
f 580/565/434 597/566/435 596/544/419
f 597/566/435 614/567/436 613/546/420
f 614/567/436 631/568/437 630/548/421
f 631/568/437 648/569/438 647/550/422
f 648/569/438 665/582/450 664/552/423
f 664/552/423 665/582/450 409/570/424
f 410/571/439 428/585/452 427/556/425
f 427/556/425 428/585/452 445/572/440
f 444/557/426 445/572/440 462/573/441
f 462/573/441 479/574/442 478/559/428
f 479/574/442 496/590/457 495/560/429
f 495/560/429 496/590/457 513/575/443
f 513/575/443 530/593/460 529/562/431
f 529/562/431 530/593/460 547/576/444
f 546/563/432 547/576/444 564/577/445
f 563/564/433 564/577/445 581/578/446
f 580/565/434 581/578/446 598/579/447
f 597/566/435 598/579/447 615/580/448
f 615/580/448 632/600/467 631/568/437
f 631/568/437 632/600/467 649/581/449
f 649/581/449 666/603/470 665/582/450
f 665/582/450 666/603/470 410/583/439
f 411/584/451 429/586/453 428/585/452
f 429/586/453 446/587/454 445/572/440
f 446/587/454 463/588/455 462/573/441
f 463/588/455 480/589/456 479/574/442
f 480/589/456 497/591/458 496/590/457
f 497/591/458 514/592/459 513/575/443
f 514/592/459 531/594/461 530/593/460
f 531/594/461 548/595/462 547/576/444
f 548/595/462 565/596/463 564/577/445
f 565/596/463 582/597/464 581/578/446
f 582/597/464 599/598/465 598/579/447
f 599/598/465 616/599/466 615/580/448
f 616/599/466 633/601/468 632/600/467
f 633/601/468 650/602/469 649/581/449
f 650/602/469 667/604/471 666/603/470
f 667/604/471 411/618/451 410/583/439
f 412/605/472 430/606/473 429/586/453
f 430/606/473 447/607/474 446/587/454
f 447/607/474 464/608/475 463/588/455
f 464/608/475 481/623/489 480/589/456
f 480/589/456 481/623/489 498/609/476
f 498/609/476 515/610/477 514/592/459
f 515/610/477 532/611/478 531/594/461
f 532/611/478 549/612/479 548/595/462
f 549/612/479 566/629/495 565/596/463
f 565/596/463 566/629/495 583/613/480
f 583/613/480 600/614/481 599/598/465
f 600/614/481 617/633/499 616/599/466
f 616/599/466 617/633/499 634/615/482
f 633/601/468 634/615/482 651/616/483
f 650/602/469 651/616/483 668/617/484
f 668/617/484 412/638/472 411/618/451
f 413/619/485 431/620/486 430/606/473
f 431/620/486 448/621/487 447/607/474
f 448/621/487 465/622/488 464/608/475
f 465/622/488 482/624/490 481/623/489
f 482/624/490 499/625/491 498/609/476
f 499/625/491 516/626/492 515/610/477
f 516/626/492 533/627/493 532/611/478
f 533/627/493 550/628/494 549/612/479
f 550/628/494 567/630/496 566/629/495
f 567/630/496 584/631/497 583/613/480
f 584/631/497 601/632/498 600/614/481
f 601/632/498 618/634/500 617/633/499
f 618/634/500 635/635/501 634/615/482
f 635/635/501 652/636/502 651/616/483
f 652/636/502 669/637/503 668/617/484
f 669/637/503 413/655/485 412/638/472
f 413/619/485 414/657/519 432/639/504
f 431/620/486 432/639/504 449/640/505
f 448/621/487 449/640/505 466/641/506
f 465/622/488 466/641/506 483/642/507
f 482/624/490 483/642/507 500/643/508
f 499/625/491 500/643/508 517/644/509
f 516/626/492 517/644/509 534/645/510
f 533/627/493 534/645/510 551/646/511
f 550/628/494 551/646/511 568/647/512
f 567/630/496 568/647/512 585/648/513
f 584/631/497 585/648/513 602/649/514
f 601/632/498 602/649/514 619/650/515
f 618/634/500 619/650/515 636/651/516
f 635/635/501 636/651/516 653/652/517
f 652/636/502 653/652/517 670/653/518
f 669/637/503 670/653/518 414/654/519
f 415/656/520 433/658/521 432/639/504
f 433/658/521 450/659/522 449/640/505
f 450/659/522 467/660/523 466/641/506
f 467/660/523 484/661/524 483/642/507
f 484/661/524 501/662/525 500/643/508
f 501/662/525 518/663/526 517/644/509
f 518/663/526 535/664/527 534/645/510
f 535/664/527 552/665/528 551/646/511
f 552/665/528 569/666/529 568/647/512
f 569/666/529 586/667/530 585/648/513
f 586/667/530 603/668/531 602/649/514
f 603/668/531 620/669/532 619/650/515
f 620/669/532 637/670/533 636/651/516
f 637/670/533 654/671/534 653/652/517
f 654/671/534 671/672/535 670/653/518
f 671/672/535 415/688/520 414/654/519
f 416/673/536 434/674/537 433/658/521
f 434/674/537 451/675/538 450/659/522
f 451/675/538 468/676/539 467/660/523
f 468/676/539 485/677/540 484/661/524
f 485/677/540 502/678/541 501/662/525
f 502/678/541 519/694/556 518/663/526
f 518/663/526 519/694/556 536/679/542
f 535/664/527 536/679/542 553/680/543
f 553/680/543 570/681/544 569/666/529
f 570/681/544 587/682/545 586/667/530
f 587/682/545 604/683/546 603/668/531
f 604/683/546 621/684/547 620/669/532
f 621/684/547 638/685/548 637/670/533
f 638/685/548 655/686/549 654/671/534
f 655/686/549 672/687/550 671/672/535
f 672/687/550 416/704/536 415/688/520
f 417/689/551 435/690/552 434/674/537
f 435/690/552 452/691/553 451/675/538
f 452/691/553 469/692/554 468/676/539
f 469/692/554 486/709/570 485/677/540
f 485/677/540 486/709/570 503/693/555
f 503/693/555 520/695/557 519/694/556
f 520/695/557 537/696/558 536/679/542
f 537/696/558 554/697/559 553/680/543
f 554/697/559 571/698/560 570/681/544
f 571/698/560 588/699/561 587/682/545
f 588/699/561 605/717/578 604/683/546
f 604/683/546 605/717/578 622/700/562
f 622/700/562 639/701/563 638/685/548
f 639/701/563 656/702/564 655/686/549
f 656/702/564 673/703/565 672/687/550
f 673/703/565 417/723/551 416/704/536
f 417/689/551 418/725/583 436/705/566
f 435/690/552 436/705/566 453/706/567
f 452/691/553 453/706/567 470/707/568
f 469/692/554 470/707/568 487/708/569
f 486/709/570 487/708/569 504/710/571
f 503/693/555 504/710/571 521/711/572
f 520/695/557 521/711/572 538/712/573
f 537/696/558 538/712/573 555/713/574
f 554/697/559 555/713/574 572/714/575
f 571/698/560 572/714/575 589/715/576
f 588/699/561 589/715/576 606/716/577
f 605/717/578 606/716/577 623/718/579
f 622/700/562 623/718/579 640/719/580
f 639/701/563 640/719/580 657/720/581
f 656/702/564 657/720/581 674/721/582
f 673/703/565 674/721/582 418/722/583
f 419/724/584 437/726/585 436/705/566
f 437/726/585 454/727/586 453/706/567
f 454/727/586 471/728/587 470/707/568
f 471/728/587 488/729/588 487/708/569
f 488/729/588 505/730/589 504/710/571
f 505/730/589 522/731/590 521/711/572
f 522/731/590 539/732/591 538/712/573
f 539/732/591 556/733/592 555/713/574
f 556/733/592 573/734/593 572/714/575
f 573/734/593 590/735/594 589/715/576
f 590/735/594 607/736/595 606/716/577
f 607/736/595 624/737/596 623/718/579
f 624/737/596 641/738/597 640/719/580
f 641/738/597 658/739/598 657/720/581
f 658/739/598 675/740/599 674/721/582
f 675/740/599 419/757/584 418/722/583
f 420/741/600 438/742/601 437/726/585
f 438/742/601 455/743/602 454/727/586
f 455/743/602 472/744/603 471/728/587
f 472/744/603 489/745/604 488/729/588
f 489/745/604 506/746/605 505/730/589
f 506/746/605 523/747/606 522/731/590
f 523/747/606 540/748/607 539/732/591
f 540/748/607 557/749/608 556/733/592
f 557/749/608 574/750/609 573/734/593
f 574/750/609 591/751/610 590/735/594
f 591/751/610 608/752/611 607/736/595
f 608/752/611 625/753/612 624/737/596
f 625/753/612 642/754/613 641/738/597
f 642/754/613 659/755/614 658/739/598
f 659/755/614 676/756/615 675/740/599
f 676/756/615 420/774/600 419/757/584
f 421/758/616 439/759/617 438/742/601
f 439/759/617 456/760/618 455/743/602
f 456/760/618 473/761/619 472/744/603
f 473/761/619 490/762/620 489/745/604
f 490/762/620 507/763/621 506/746/605
f 507/763/621 524/764/622 523/747/606
f 524/764/622 541/765/623 540/748/607
f 541/765/623 558/766/624 557/749/608
f 558/766/624 575/767/625 574/750/609
f 575/767/625 592/768/626 591/751/610
f 592/768/626 609/769/627 608/752/611
f 609/769/627 626/770/628 625/753/612
f 626/770/628 643/771/629 642/754/613
f 643/771/629 660/772/630 659/755/614
f 660/772/630 677/773/631 676/756/615
f 677/773/631 421/789/616 420/774/600
f 422/775/632 440/776/633 439/759/617
f 440/776/633 457/777/634 456/760/618
f 457/777/634 474/778/635 473/761/619
f 474/778/635 491/779/636 490/762/620
f 491/779/636 508/795/651 507/763/621
f 507/763/621 508/795/651 525/780/637
f 525/780/637 542/781/638 541/765/623
f 542/781/638 559/782/639 558/766/624
f 559/782/639 576/800/656 575/767/625
f 575/767/625 576/800/656 593/783/640
f 593/783/640 610/784/641 609/769/627
f 610/784/641 627/785/642 626/770/628
f 627/785/642 644/786/643 643/771/629
f 644/786/643 661/787/644 660/772/630
f 661/787/644 678/788/645 677/773/631
f 678/788/645 422/806/632 421/789/616
f 422/775/632 423/808/661 441/790/646
f 440/776/633 441/790/646 458/791/647
f 457/777/634 458/791/647 475/792/648
f 474/778/635 475/792/648 492/793/649
f 491/779/636 492/793/649 509/794/650
f 508/795/651 509/794/650 526/796/652
f 525/780/637 526/796/652 543/797/653
f 542/781/638 543/797/653 560/798/654
f 559/782/639 560/798/654 577/799/655
f 577/799/655 594/815/669 593/783/640
f 593/783/640 594/815/669 611/801/657
f 610/784/641 611/801/657 628/802/658
f 628/802/658 645/819/673 644/786/643
f 644/786/643 645/819/673 662/803/659
f 661/787/644 662/803/659 679/804/660
f 678/788/645 679/804/660 423/805/661
f 424/807/662 442/824/678 441/790/646
f 441/790/646 442/824/678 459/809/663
f 459/809/663 476/827/679 475/792/648
f 475/792/648 476/827/679 493/810/664
f 493/810/664 510/811/665 509/794/650
f 510/811/665 527/831/680 526/796/652
f 526/796/652 527/831/680 544/812/666
f 544/812/666 561/813/667 560/798/654
f 561/813/667 578/814/668 577/799/655
f 578/814/668 595/816/670 594/815/669
f 595/816/670 612/817/671 611/801/657
f 612/817/671 629/818/672 628/802/658
f 629/818/672 646/820/674 645/819/673
f 646/820/674 663/821/675 662/803/659
f 663/821/675 680/822/676 679/804/660
f 680/822/676 424/842/662 423/805/661
