# Blender 4.0.2
# www.blender.org
mtllib CigretteLit.mtl
o CigretteLit
v 0.000000 0.047099 0.008980
v 0.000000 -0.000021 0.008980
v -0.006350 0.047099 0.006350
v -0.006350 -0.000021 0.006350
v -0.008980 0.047099 0.000000
v -0.008980 -0.000021 0.000000
v -0.006350 0.047099 -0.006350
v -0.006350 -0.000021 -0.006350
v 0.000000 0.047099 -0.008980
v 0.000000 -0.000021 -0.008980
v 0.006350 0.047099 -0.006350
v 0.006350 -0.000021 -0.006350
v 0.008980 0.047099 0.000000
v 0.008980 -0.000021 0.000000
v 0.006350 0.047099 0.006350
v 0.006350 -0.000021 0.006350
v 0.001879 0.023539 0.006844
v -0.004470 0.023539 0.004214
v -0.007101 0.023539 -0.002136
v -0.004470 0.023539 -0.008486
v 0.001879 0.023539 -0.011116
v 0.008229 0.023539 -0.008486
v 0.010860 0.023539 -0.002136
v 0.008229 0.023539 0.004214
v -0.003075 0.011759 0.010347
v -0.009425 0.011759 0.007717
v -0.012056 0.011759 0.001367
v -0.009425 0.011759 -0.004983
v -0.003075 0.011759 -0.007613
v 0.003274 0.011759 -0.004983
v 0.005905 0.011759 0.001367
v 0.003274 0.011759 0.007717
vn 0.3747 0.2028 -0.9047
vn 0.8884 0.2746 -0.3680
vn 0.9065 0.1931 0.3755
vn 0.9228 -0.0493 0.3822
vn 0.9237 -0.0187 0.3826
vn 0.3827 -0.0073 0.9239
vn 0.3821 0.0558 0.9224
vn 0.3822 0.0483 0.9228
vn -0.3747 -0.2028 0.9047
vn -0.8884 -0.2746 0.3680
vn -0.0000 1.0000 -0.0000
vn -0.9228 0.0493 -0.3822
vn -0.9065 -0.1931 -0.3755
vn -0.9237 0.0187 -0.3826
vn -0.3821 -0.0558 -0.9224
vn -0.3827 0.0073 -0.9239
vn -0.3822 -0.0483 -0.9228
vn -0.0000 -1.0000 -0.0000
vn -0.3821 0.0531 -0.9226
vn -0.3824 -0.0380 -0.9232
vn -0.9232 -0.0390 -0.3824
vn -0.9165 0.1263 -0.3796
vn -0.9185 -0.1078 0.3805
vn -0.3802 -0.1135 0.9179
vn 0.3824 0.0380 0.9232
vn 0.3821 -0.0531 0.9226
vn 0.9165 -0.1263 0.3796
vn 0.9232 0.0390 0.3824
vn 0.9185 0.1078 -0.3805
vn 0.3802 0.1135 -0.9179
vn -0.3826 -0.0185 -0.9237
vn -0.9195 0.0977 -0.3809
vn -0.8255 0.4489 0.3420
vn -0.3508 0.3994 0.8470
vn 0.3826 0.0185 0.9237
vn 0.9195 -0.0977 0.3809
vn 0.8255 -0.4489 -0.3420
vn 0.3508 -0.3994 -0.8470
vt 1.000000 0.875000
vt 0.875000 1.000000
vt 0.875000 0.875000
vt 0.750000 0.875000
vt 0.750000 1.000000
vt 0.625000 0.875000
vt 0.625000 1.000000
vt 0.500000 0.875000
vt 0.500000 1.000000
vt 0.375000 0.875000
vt 0.250000 1.000000
vt 0.250000 0.875000
vt 0.010000 0.250000
vt 0.250000 0.010000
vt 0.490000 0.250000
vt 0.125000 1.000000
vt 0.125000 0.875000
vt 0.000000 1.000000
vt 0.000000 0.875000
vt 0.919706 0.080294
vt 0.580294 0.080294
vt 0.580294 0.419706
vt 0.125000 0.500000
vt 0.000000 0.750000
vt 0.000000 0.500000
vt 0.250000 0.500000
vt 0.125000 0.750000
vt 0.375000 0.500000
vt 0.250000 0.750000
vt 0.500000 0.750000
vt 0.500000 0.500000
vt 0.625000 0.750000
vt 0.625000 0.500000
vt 0.750000 0.750000
vt 0.750000 0.500000
vt 0.875000 0.750000
vt 0.875000 0.500000
vt 1.000000 0.500000
vt 0.375000 0.750000
vt 1.000000 0.750000
vt 1.000000 1.000000
vt 0.375000 1.000000
vt 0.419706 0.419706
vt 0.250000 0.490000
vt 0.080294 0.419706
vt 0.080294 0.080294
vt 0.419706 0.080294
vt 0.750000 0.490000
vt 0.919706 0.419706
vt 0.990000 0.250000
vt 0.750000 0.010000
vt 0.510000 0.250000
s 1
f 25/1/1 4/2/1 26/3/1
f 4/2/2 27/4/2 26/3/2
f 6/5/3 28/6/4 27/4/5
f 8/7/6 29/8/7 28/6/8
f 10/9/9 30/10/9 29/8/9
f 30/10/10 14/11/10 31/12/10
f 14/13/11 10/14/11 6/15/11
f 31/12/12 16/16/13 32/17/14
f 32/17/15 2/18/16 25/19/17
f 7/20/18 11/21/18 15/22/18
f 15/23/19 17/24/20 1/25/19
f 13/26/21 24/27/22 15/23/21
f 11/28/23 23/29/23 13/26/23
f 21/30/24 11/28/24 9/31/24
f 20/32/25 9/31/26 7/33/26
f 19/34/27 7/33/28 5/35/28
f 18/36/29 5/35/29 3/37/29
f 1/38/30 18/36/30 3/37/30
f 32/17/15 17/24/20 24/27/31
f 31/12/12 24/27/22 23/29/32
f 30/10/33 23/29/33 22/39/33
f 21/30/34 30/10/34 22/39/34
f 20/32/25 29/8/7 21/30/35
f 19/34/27 28/6/4 20/32/36
f 18/36/37 27/4/37 19/34/37
f 25/1/38 18/36/38 17/40/38
f 25/1/1 2/41/1 4/2/1
f 4/2/2 6/5/2 27/4/2
f 6/5/3 8/7/3 28/6/4
f 8/7/6 10/9/6 29/8/7
f 10/9/9 12/42/9 30/10/9
f 30/10/10 12/42/10 14/11/10
f 6/15/11 4/43/11 2/44/11
f 2/44/11 16/45/11 14/13/11
f 14/13/11 12/46/11 10/14/11
f 10/14/11 8/47/11 6/15/11
f 6/15/11 2/44/11 14/13/11
f 31/12/12 14/11/13 16/16/13
f 32/17/15 16/16/16 2/18/16
f 15/22/18 1/48/18 3/49/18
f 3/49/18 5/50/18 7/20/18
f 7/20/18 9/51/18 11/21/18
f 11/21/18 13/52/18 15/22/18
f 15/22/18 3/49/18 7/20/18
f 15/23/19 24/27/31 17/24/20
f 13/26/21 23/29/32 24/27/22
f 11/28/23 22/39/23 23/29/23
f 21/30/24 22/39/24 11/28/24
f 20/32/25 21/30/35 9/31/26
f 19/34/27 20/32/36 7/33/28
f 18/36/29 19/34/29 5/35/29
f 1/38/30 17/40/30 18/36/30
f 32/17/15 25/19/17 17/24/20
f 31/12/12 32/17/14 24/27/22
f 30/10/33 31/12/33 23/29/33
f 21/30/34 29/8/34 30/10/34
f 20/32/25 28/6/8 29/8/7
f 19/34/27 27/4/5 28/6/4
f 18/36/37 26/3/37 27/4/37
f 25/1/38 26/3/38 18/36/38
