# Blender 4.0.2
# www.blender.org
mtllib TV.mtl
o TV
v -0.282964 0.062604 0.227994
v -0.281599 0.421124 0.227994
v 0.273014 0.429650 0.227994
v 0.273552 0.053868 0.227994
v -0.220101 0.155373 0.210237
v -0.220101 0.191121 0.210237
v -0.220101 0.226869 0.210237
v -0.220101 0.262617 0.210237
v -0.220101 0.298365 0.210237
v -0.220101 0.334114 0.210237
v 0.145218 0.334114 0.210237
v 0.145218 0.298365 0.210237
v 0.145218 0.262617 0.210237
v 0.145218 0.226869 0.210237
v 0.145218 0.191121 0.210237
v 0.145218 0.155373 0.210237
v -0.167913 0.119625 0.210237
v -0.115724 0.119625 0.210237
v -0.063536 0.119625 0.210237
v -0.011348 0.119625 0.210237
v 0.040841 0.119625 0.210237
v 0.093029 0.119625 0.210237
v 0.093029 0.369862 0.210237
v 0.040841 0.369862 0.210237
v -0.011348 0.369862 0.210237
v -0.063536 0.369862 0.210237
v -0.115724 0.369862 0.210237
v -0.167913 0.369862 0.210237
v -0.220101 0.130575 0.210237
v -0.207967 0.119625 0.210237
v -0.207967 0.369862 0.210237
v -0.220101 0.358912 0.210237
v 0.133084 0.119625 0.210237
v 0.145218 0.130575 0.210237
v 0.145218 0.358912 0.210237
v 0.133084 0.369862 0.210237
v -0.251359 0.092483 0.227994
v -0.224829 0.105309 0.222216
v -0.237756 0.115586 0.222779
v -0.237756 0.373901 0.222779
v -0.224829 0.384177 0.222216
v -0.251384 0.396257 0.227994
v 0.183327 0.396003 0.227994
v 0.149946 0.384177 0.222216
v 0.162873 0.373901 0.222779
v 0.162873 0.115586 0.222779
v 0.149946 0.105309 0.222216
v 0.183335 0.092749 0.227994
v -0.272973 0.050998 -0.011867
v -0.274764 0.041994 -0.002863
v -0.295760 0.073785 -0.011867
v -0.304764 0.071994 -0.002863
v -0.289086 0.057672 -0.011867
v -0.287658 0.047335 -0.002863
v -0.299423 0.059100 -0.002863
v -0.295760 0.408396 -0.011867
v -0.304764 0.410187 -0.002863
v -0.272973 0.431183 -0.011867
v -0.274764 0.440187 -0.002863
v -0.289086 0.424509 -0.011867
v -0.299423 0.423082 -0.002863
v -0.287658 0.434846 -0.002863
v 0.292099 0.073785 -0.011867
v 0.301103 0.071994 -0.002863
v 0.269312 0.050998 -0.011867
v 0.271103 0.041994 -0.002863
v 0.285425 0.057672 -0.011867
v 0.295762 0.059100 -0.002863
v 0.283997 0.047335 -0.002863
v 0.269312 0.431183 -0.011867
v 0.271103 0.440187 -0.002863
v 0.292099 0.408396 -0.011867
v 0.301103 0.410187 -0.002863
v 0.285425 0.424509 -0.011867
v 0.283997 0.434846 -0.002863
v 0.295762 0.423082 -0.002863
v -0.295798 0.068132 0.227994
v -0.304764 0.071994 0.218990
v -0.274764 0.041994 0.218990
v -0.277881 0.049830 0.227994
v -0.299423 0.059100 0.218990
v -0.287658 0.047335 0.218990
v -0.290740 0.055539 0.227994
v -0.277283 0.433162 0.227994
v -0.274764 0.440187 0.218990
v -0.304764 0.410187 0.218990
v -0.295755 0.414441 0.227994
v -0.287658 0.434846 0.218990
v -0.299423 0.423082 0.218990
v -0.290414 0.427425 0.227994
v 0.286286 0.420454 0.227994
v 0.301103 0.410187 0.218990
v 0.271103 0.440187 0.218990
v 0.272304 0.433568 0.227994
v 0.295762 0.423082 0.218990
v 0.283997 0.434846 0.218990
v 0.281734 0.430441 0.227994
v 0.272635 0.049419 0.227994
v 0.271103 0.041994 0.218990
v 0.301103 0.071994 0.218990
v 0.286286 0.062246 0.227994
v 0.283997 0.047335 0.218990
v 0.295762 0.059100 0.218990
v 0.281836 0.052505 0.227994
vn -0.9239 -0.3827 -0.0000
vn 0.9239 -0.3827 -0.0000
vn -0.0000 -0.0000 1.0000
vn -0.9239 0.3827 -0.0000
vn 0.3827 -0.9239 -0.0000
vn -0.3827 -0.9239 -0.0000
vn -0.0000 -0.6417 0.7669
vn 0.5792 -0.0000 0.8152
vn -0.5792 -0.0000 0.8152
vn -0.0000 -1.0000 -0.0000
vn -1.0000 -0.0000 -0.0000
vn -0.0000 1.0000 -0.0000
vn -0.3827 0.9239 -0.0000
vn 0.3827 0.9239 -0.0000
vn 1.0000 -0.0000 -0.0000
vn 0.9239 0.3827 -0.0000
vn -0.0000 -0.0000 -1.0000
vn 0.1489 0.1335 0.9798
vn 0.1510 -0.1363 0.9791
vn -0.1312 -0.1110 0.9851
vn -0.1296 0.1089 0.9856
vn -0.5794 -0.5794 -0.5733
vn -0.5794 0.5794 -0.5733
vn 0.5794 -0.5794 -0.5733
vn 0.5794 0.5794 -0.5733
vn -0.6560 -0.6560 0.3732
vn -0.6639 0.6639 0.3440
vn 0.6264 0.6264 0.4640
vn 0.6128 -0.6128 0.4989
vn 0.3579 -0.0000 0.9338
vn -0.2470 -0.0000 0.9690
vn -0.0000 0.4107 0.9117
vn -0.0003 -0.4384 0.8988
vn 0.3212 0.3560 0.8776
vn 0.3212 -0.3560 0.8776
vn -0.3212 -0.3560 0.8776
vn -0.3212 0.3560 0.8776
vn -0.7370 -0.3053 0.6030
vn -0.3334 -0.7509 0.5701
vn -0.3261 0.7874 0.5231
vn -0.7428 0.3055 0.5958
vn 0.6264 0.2595 0.7350
vn 0.2765 0.8339 0.4776
vn 0.3140 -0.7580 0.5717
vn 0.6111 -0.2792 0.7407
vn -0.2706 -0.6533 -0.7071
vn -0.7071 -0.7071 -0.0000
vn -0.6533 -0.2706 -0.7071
vn -0.2706 0.6533 -0.7071
vn -0.7071 0.7071 -0.0000
vn -0.6533 0.2706 -0.7071
vn 0.2706 -0.6533 -0.7071
vn 0.7071 -0.7071 -0.0000
vn 0.6533 -0.2706 -0.7071
vn 0.2706 0.6533 -0.7071
vn 0.7071 0.7071 -0.0000
vn 0.6533 0.2706 -0.7071
vn -0.0000 -0.7071 -0.7071
vn -0.0000 -0.7715 0.6362
vn -0.7086 -0.0000 0.7056
vn -0.7071 -0.0000 -0.7071
vn -0.0000 0.7071 -0.7071
vn 0.7071 -0.0000 -0.7071
vn -0.0006 0.7885 0.6150
vn 0.5193 -0.0000 0.8546
vn -0.0000 0.6417 0.7669
vn 0.3574 -0.0000 0.9340
vn -0.0003 0.4174 0.9087
vn -0.0000 -0.4315 0.9021
vn -0.7433 -0.2985 0.5987
vn -0.3177 -0.7670 0.5575
vn -0.3383 0.7744 0.5347
vn -0.7414 0.3071 0.5967
vn 0.6186 0.2820 0.7333
vn 0.3240 0.7823 0.5320
vn 0.2701 -0.8056 0.5273
vn 0.6196 -0.2567 0.7417
vn -0.0006 -0.7544 0.6564
vn -0.7069 0.0001 0.7073
vn -0.0000 0.8057 0.5923
vt 0.382386 0.009385
vt 0.393835 0.240615
vt 0.382386 0.240615
vt 0.382386 0.509385
vt 0.393835 0.740615
vt 0.382386 0.740615
vt 0.400419 0.983294
vt 0.378945 0.989735
vt 0.380978 0.753929
vt 0.617614 0.240615
vt 0.606165 0.009385
vt 0.617614 0.009385
vt 0.362621 0.509385
vt 0.370146 0.740615
vt 0.362621 0.740615
vt 0.599445 0.766795
vt 0.621171 0.757119
vt 0.613974 0.992754
vt 0.400553 0.766794
vt 0.386921 0.752113
vt 0.618905 0.754006
vt 0.137379 0.740615
vt 0.129854 0.509385
vt 0.137379 0.509385
vt 0.588009 0.860761
vt 0.588009 0.832284
vt 0.593804 0.972896
vt 0.599593 0.983301
vt 0.609202 0.997182
vt 0.385376 0.993180
vt 0.512573 0.974671
vt 0.537718 0.974671
vt 0.413229 0.979377
vt 0.487427 0.775329
vt 0.462282 0.775329
vt 0.586771 0.770622
vt 0.130787 0.750000
vt 0.136092 0.750000
vt 0.133995 0.750000
vt 0.620937 0.989513
vt 0.617947 0.995365
vt 0.616431 0.994368
vt 0.620774 0.752778
vt 0.620620 0.752878
vt 0.618905 0.754006
vt 0.378738 0.757095
vt 0.379354 0.752862
vt 0.379308 0.752832
vt 0.362621 0.509385
vt 0.137379 0.740615
vt 0.137379 0.509385
vt 0.606165 0.009385
vt 0.393835 0.240615
vt 0.393835 0.009385
vt 0.862621 0.509385
vt 0.637379 0.740615
vt 0.637379 0.509385
vt 0.870146 0.740615
vt 0.862621 0.740615
vt 0.629854 0.509385
vt 0.637379 0.509385
vt 0.606165 0.509385
vt 0.393835 0.509385
vt 0.617614 0.740615
vt 0.617614 0.509385
vt 0.128700 0.750000
vt 0.605040 0.253715
vt 0.615157 0.493531
vt 0.380653 0.486882
vt 0.406196 0.972896
vt 0.586771 0.979378
vt 0.593804 0.777104
vt 0.413229 0.770622
vt 0.406196 0.777104
vt 0.127011 0.500000
vt 0.125000 0.509385
vt 0.615157 0.256469
vt 0.614261 0.252204
vt 0.621647 0.257058
vt 0.378059 0.500000
vt 0.375000 0.509385
vt 0.621647 0.492942
vt 0.614260 0.497796
vt 0.125000 0.740615
vt 0.129854 0.740615
vt 0.126627 0.750000
vt 0.625000 0.009385
vt 0.623733 0.000000
vt 0.625000 0.740615
vt 0.625000 0.750000
vt 0.375000 0.740615
vt 0.370136 0.750000
vt 0.599593 0.983301
vt 0.419693 0.974671
vt 0.580307 0.974671
vt 0.588009 0.968050
vt 0.580307 0.775329
vt 0.419693 0.775329
vt 0.411991 0.781950
vt 0.388094 0.000000
vt 0.393835 0.009385
vt 0.134209 0.750000
vt 0.622237 0.993330
vt 0.625000 0.987621
vt 0.612216 0.000000
vt 0.622763 0.751470
vt 0.622859 0.751407
vt 0.623603 0.755772
vt 0.364916 0.750000
vt 0.377326 0.751529
vt 0.136413 0.500000
vt 0.392366 0.250000
vt 0.619347 0.263118
vt 0.625000 0.262379
vt 0.625000 0.240615
vt 0.363587 0.500000
vt 0.370146 0.509385
vt 0.392366 0.500000
vt 0.378059 0.500000
vt 0.619347 0.486882
vt 0.629854 0.740615
vt 0.605040 0.496285
vt 0.606165 0.500000
vt 0.361882 0.500000
vt 0.138118 0.500000
vt 0.362621 0.750000
vt 0.362621 0.740615
vt 0.393835 0.000000
vt 0.394960 0.253715
vt 0.606165 0.240615
vt 0.625000 0.487621
vt 0.606165 0.740615
vt 0.612886 0.752113
vt 0.411991 0.889239
vt 0.411991 0.917716
vt 0.606165 0.240615
vt 0.380978 0.753929
vt 0.588009 0.946193
vt 0.588009 0.917716
vt 0.588009 0.781950
vt 0.588009 0.803807
vt 0.588009 0.889239
vt 0.390356 0.997195
vt 0.437136 0.974671
vt 0.462282 0.974671
vt 0.562864 0.974671
vt 0.487427 0.974671
vt 0.562864 0.775329
vt 0.537718 0.775329
vt 0.437136 0.775329
vt 0.512573 0.775329
vt 0.870146 0.509385
vt 0.380653 0.263118
vt 0.384843 0.256469
vt 0.394960 0.496285
vt 0.384843 0.493531
vt 0.411991 0.968050
vt 0.376962 0.000000
vt 0.625000 0.762379
vt 0.377366 0.751555
vt 0.378059 0.250000
vt 0.606165 0.250000
vt 0.372989 0.500000
vt 0.137379 0.750000
vt 0.606165 0.000000
vt 0.411991 0.803807
vt 0.411991 0.832284
vt 0.411991 0.946193
vt 0.411991 0.860761
s 0
f 81/1/1 52/2/1 55/3/1
f 68/4/2 100/5/2 103/6/2
f 37/7/3 80/8/3 4/9/3
f 61/10/4 86/11/4 89/12/4
f 66/13/5 102/14/5 99/15/5
f 43/16/3 94/17/3 2/18/3
f 48/19/3 101/20/3 3/21/3
f 79/22/6 54/23/6 50/24/6
f 25/25/7 24/26/7 41/27/7
f 42/28/3 87/29/3 1/30/3
f 8/31/8 9/32/8 39/33/8
f 14/34/9 15/35/9 45/36/9
f 83/37/3 80/38/3 1/39/3
f 84/40/3 90/41/3 2/18/3
f 90/41/3 87/42/3 2/18/3
f 91/43/3 97/44/3 3/45/3
f 97/44/3 94/17/3 3/45/3
f 98/46/3 104/47/3 4/9/3
f 104/47/3 101/48/3 4/9/3
f 66/49/10 79/50/10 50/51/10
f 86/52/11 52/53/11 78/54/11
f 59/55/12 93/56/12 71/57/12
f 59/55/13 88/58/13 85/59/13
f 93/56/14 75/60/14 71/61/14
f 73/62/15 100/5/15 64/63/15
f 95/64/16 73/62/16 76/65/16
f 77/66/3 83/37/3 1/39/3
f 56/67/17 74/68/17 65/69/17
f 37/7/18 38/70/18 39/33/18
f 40/71/19 41/27/19 42/28/19
f 43/16/20 44/72/20 45/36/20
f 46/73/21 47/74/21 48/19/21
f 53/75/22 54/23/22 55/76/22
f 60/77/23 61/78/23 62/79/23
f 67/80/24 68/4/24 69/81/24
f 74/68/25 75/82/25 76/83/25
f 81/84/26 82/85/26 83/86/26
f 88/87/27 89/12/27 90/88/27
f 95/64/28 96/89/28 97/90/28
f 102/14/29 103/91/29 104/92/29
f 39/33/30 42/28/30 37/7/30
f 46/73/31 43/16/31 45/36/31
f 37/7/32 47/74/32 38/70/32
f 42/93/33 44/72/33 43/16/33
f 38/70/34 29/94/34 39/33/34
f 41/27/35 32/95/35 31/96/35
f 44/72/36 35/97/36 45/36/36
f 47/74/37 34/98/37 33/99/37
f 81/1/38 77/100/38 78/101/38
f 82/85/39 80/102/39 83/86/39
f 88/103/40 84/40/40 85/104/40
f 89/12/41 87/105/41 90/88/41
f 95/106/42 91/43/42 92/107/42
f 96/108/43 94/17/43 97/44/43
f 102/14/44 98/109/44 99/15/44
f 103/110/45 101/48/45 104/47/45
f 49/111/46 54/23/46 53/75/46
f 55/76/47 82/85/47 81/84/47
f 51/112/48 55/3/48 52/2/48
f 58/113/49 62/79/49 59/114/49
f 89/12/50 62/115/50 61/10/50
f 56/67/51 61/78/51 60/77/51
f 65/116/52 69/117/52 66/13/52
f 103/6/53 69/117/53 68/4/53
f 63/118/54 68/4/54 67/119/54
f 70/120/55 75/82/55 74/68/55
f 76/65/56 96/121/56 95/64/56
f 72/122/57 76/83/57 73/123/57
f 65/124/58 50/51/58 49/125/58
f 98/126/59 79/50/59 99/127/59
f 77/128/60 86/52/60 78/54/60
f 51/129/61 57/130/61 56/67/61
f 71/131/62 58/113/62 59/114/62
f 64/63/63 72/122/63 73/62/63
f 94/17/64 85/104/64 84/40/64
f 101/20/65 92/132/65 91/133/65
f 19/134/66 18/135/66 47/74/66
f 81/1/1 78/101/1 52/2/1
f 68/4/2 64/63/2 100/5/2
f 4/9/3 48/19/3 37/7/3
f 37/7/3 1/30/3 80/8/3
f 80/8/3 98/46/3 4/9/3
f 61/10/4 57/136/4 86/11/4
f 66/13/5 69/117/5 102/14/5
f 2/18/3 42/93/3 43/16/3
f 43/16/3 3/45/3 94/17/3
f 94/17/3 84/40/3 2/18/3
f 3/21/3 43/16/3 48/19/3
f 48/19/3 4/137/3 101/20/3
f 101/20/3 91/133/3 3/21/3
f 79/22/6 82/85/6 54/23/6
f 41/27/7 31/96/7 28/138/7
f 41/27/7 28/138/7 27/139/7
f 36/140/7 44/72/7 41/27/7
f 23/141/7 36/140/7 41/27/7
f 41/27/7 27/139/7 26/142/7
f 41/27/7 26/142/7 25/25/7
f 24/26/7 23/141/7 41/27/7
f 1/30/3 37/7/3 42/28/3
f 42/28/3 2/18/3 87/29/3
f 87/29/3 77/143/3 1/30/3
f 39/33/8 29/94/8 5/144/8
f 39/33/8 5/144/8 6/145/8
f 32/95/8 40/71/8 39/33/8
f 10/146/8 32/95/8 39/33/8
f 39/33/8 6/145/8 7/147/8
f 39/33/8 7/147/8 8/31/8
f 9/32/8 10/146/8 39/33/8
f 45/36/9 35/97/9 11/148/9
f 45/36/9 11/148/9 12/149/9
f 34/98/9 46/73/9 45/36/9
f 16/150/9 34/98/9 45/36/9
f 45/36/9 12/149/9 13/151/9
f 45/36/9 13/151/9 14/34/9
f 15/35/9 16/150/9 45/36/9
f 66/49/10 99/127/10 79/50/10
f 86/52/11 57/130/11 52/53/11
f 59/55/12 85/59/12 93/56/12
f 59/55/13 62/152/13 88/58/13
f 93/56/14 96/121/14 75/60/14
f 73/62/15 92/132/15 100/5/15
f 95/64/16 92/132/16 73/62/16
f 65/69/17 49/153/17 53/154/17
f 53/154/17 51/129/17 56/67/17
f 56/67/17 60/77/17 58/113/17
f 58/113/17 70/120/17 74/68/17
f 74/68/17 72/122/17 63/155/17
f 63/155/17 67/156/17 65/69/17
f 65/69/17 53/154/17 56/67/17
f 56/67/17 58/113/17 74/68/17
f 74/68/17 63/155/17 65/69/17
f 39/33/67 40/71/67 42/28/67
f 46/73/31 48/19/31 43/16/31
f 37/7/68 48/19/68 47/74/68
f 42/93/69 41/27/69 44/72/69
f 38/70/34 30/157/34 29/94/34
f 41/27/35 40/71/35 32/95/35
f 44/72/36 36/140/36 35/97/36
f 47/74/37 46/73/37 34/98/37
f 81/1/70 83/158/70 77/100/70
f 82/85/71 79/22/71 80/102/71
f 88/103/72 90/41/72 84/40/72
f 89/12/73 86/11/73 87/105/73
f 95/106/74 97/44/74 91/43/74
f 96/108/75 93/159/75 94/17/75
f 102/14/76 104/92/76 98/109/76
f 103/110/77 100/160/77 101/48/77
f 49/111/46 50/24/46 54/23/46
f 55/76/47 54/23/47 82/85/47
f 51/112/48 53/161/48 55/3/48
f 58/113/49 60/77/49 62/79/49
f 89/12/50 88/87/50 62/115/50
f 56/67/51 57/162/51 61/78/51
f 65/116/52 67/163/52 69/117/52
f 103/6/53 102/14/53 69/117/53
f 63/118/54 64/63/54 68/4/54
f 70/120/55 71/131/55 75/82/55
f 76/65/56 75/60/56 96/121/56
f 72/122/57 74/68/57 76/83/57
f 65/124/58 66/49/58 50/51/58
f 98/126/78 80/164/78 79/50/78
f 77/128/79 87/165/79 86/52/79
f 51/129/61 52/53/61 57/130/61
f 71/131/62 70/120/62 58/113/62
f 64/63/63 63/155/63 72/122/63
f 94/17/80 93/159/80 85/104/80
f 101/20/65 100/5/65 92/132/65
f 47/74/66 33/99/66 22/166/66
f 47/74/66 22/166/66 21/167/66
f 30/157/66 38/70/66 47/74/66
f 17/168/66 30/157/66 47/74/66
f 47/74/66 21/167/66 20/169/66
f 47/74/66 20/169/66 19/134/66
f 18/135/66 17/168/66 47/74/66
o TV.001
v -0.251830 0.047174 0.030458
v -0.246830 0.042174 0.030458
v -0.246830 0.391266 0.030458
v -0.251830 0.386173 0.030458
v -0.246830 0.042174 -0.224148
v -0.251830 0.047174 -0.224148
v -0.246830 0.047174 -0.229148
v -0.246830 0.342005 -0.224239
v -0.246830 0.336055 -0.229148
v -0.251830 0.336930 -0.224148
v 0.243170 0.042174 0.030458
v 0.248170 0.047174 0.030458
v 0.248170 0.386173 0.030458
v 0.243170 0.391266 0.030458
v 0.243170 0.042174 -0.224148
v 0.243170 0.047174 -0.229148
v 0.248170 0.047174 -0.224148
v 0.243170 0.342005 -0.224239
v 0.248170 0.336930 -0.224148
v 0.243170 0.336055 -0.229148
vn -0.0000 0.9818 -0.1899
vn 1.0000 -0.0000 -0.0000
vn -1.0000 -0.0000 -0.0000
vn -0.0000 -0.0000 -1.0000
vn -0.5774 -0.5774 -0.5774
vn -0.5509 0.5312 -0.6437
vn 0.5774 -0.5774 -0.5774
vn 0.5509 0.5312 -0.6437
vn -0.7071 -0.7071 -0.0000
vn -0.7071 0.6942 -0.1343
vn -0.7071 -0.0000 -0.7071
vn -0.0000 -0.7071 -0.7071
vn -0.0000 0.6364 -0.7713
vn 0.7071 -0.0000 -0.7071
vn 0.7071 -0.7071 -0.0000
vn 0.7071 0.6942 -0.1343
vn -0.0000 -1.0000 -0.0000
vt 0.872500 0.504727
vt 0.627500 0.750000
vt 0.627500 0.504727
vt 0.620899 0.504815
vt 0.378581 0.750000
vt 0.379060 0.504815
vt 0.378581 0.000000
vt 0.620899 0.245185
vt 0.379060 0.245185
vt 0.620818 0.252500
vt 0.379182 0.497500
vt 0.379182 0.252500
vt 0.127500 0.504815
vt 0.125000 0.504815
vt 0.127500 0.500000
vt 0.625000 0.252500
vt 0.621549 0.250000
vt 0.372500 0.504815
vt 0.372500 0.500000
vt 0.375000 0.504815
vt 0.625000 0.504727
vt 0.620818 0.500000
vt 0.127500 0.750000
vt 0.625000 0.245273
vt 0.621353 0.000000
vt 0.625000 0.000000
vt 0.625000 0.497500
vt 0.620818 0.497500
vt 0.372500 0.750000
vt 0.621353 0.750000
vt 0.872500 0.750000
vt 0.125000 0.750000
s 0
f 112/170/81 118/171/81 122/172/81
f 123/173/82 116/174/82 121/175/82
f 105/176/83 114/177/83 110/178/83
f 113/179/84 120/180/84 111/181/84
f 109/182/85 110/183/85 111/184/85
f 112/185/86 113/179/86 114/186/86
f 119/187/87 120/188/87 121/189/87
f 122/190/88 123/173/88 124/191/88
f 106/192/89 110/183/89 109/182/89
f 112/193/90 108/194/90 107/195/90
f 113/179/91 110/178/91 114/177/91
f 109/182/92 120/188/92 119/187/92
f 122/196/93 113/179/93 112/185/93
f 121/175/94 124/197/94 123/173/94
f 119/187/95 116/174/95 115/198/95
f 122/172/96 117/199/96 123/173/96
f 119/187/97 106/192/97 109/182/97
f 112/170/81 107/200/81 118/171/81
f 123/173/82 117/199/82 116/174/82
f 105/176/83 108/194/83 114/177/83
f 113/179/84 124/197/84 120/180/84
f 106/192/89 105/201/89 110/183/89
f 112/193/90 114/177/90 108/194/90
f 113/179/91 111/181/91 110/178/91
f 109/182/92 111/184/92 120/188/92
f 122/196/93 124/197/93 113/179/93
f 121/175/94 120/180/94 124/197/94
f 119/187/95 121/175/95 116/174/95
f 122/172/96 118/171/96 117/199/96
f 119/187/97 115/198/97 106/192/97
o TV.002
v -0.224383 0.000000 0.174842
v -0.224383 0.004000 0.178842
v -0.228383 0.004000 0.174842
v -0.228383 0.056264 0.174842
v -0.224383 0.056264 0.178842
v -0.224383 0.000000 -0.205464
v -0.228383 0.004000 -0.205464
v -0.224383 0.004000 -0.209464
v -0.224383 0.056264 -0.209464
v -0.228383 0.056264 -0.205464
v 0.220722 0.000000 0.174842
v 0.224722 0.004000 0.174842
v 0.220722 0.004000 0.178842
v 0.220722 0.056264 0.178842
v 0.224722 0.056264 0.174842
v 0.220722 0.000000 -0.205464
v 0.220722 0.004000 -0.209464
v 0.224722 0.004000 -0.205464
v 0.224722 0.056264 -0.205464
v 0.220722 0.056264 -0.209464
vn -0.0000 -0.0000 1.0000
vn 1.0000 -0.0000 -0.0000
vn -0.0000 -0.0000 -1.0000
vn -1.0000 -0.0000 -0.0000
vn -0.5773 -0.5773 0.5774
vn -0.5773 -0.5773 -0.5774
vn 0.5774 -0.5773 0.5774
vn 0.5774 -0.5773 -0.5774
vn -0.7071 -0.7071 -0.0000
vn -0.7071 -0.0000 0.7071
vn -0.7071 -0.0000 -0.7071
vn -0.0000 -0.7071 -0.7071
vn 0.7071 -0.0000 -0.7071
vn 0.7071 -0.7071 -0.0000
vn 0.7071 -0.0000 0.7071
vn -0.0000 -0.7071 0.7071
vn -0.0000 -1.0000 -0.0000
vt 0.625000 0.752207
vt 0.392773 0.997793
vt 0.392773 0.752207
vt 0.625000 0.502575
vt 0.392773 0.747425
vt 0.392773 0.502575
vt 0.625000 0.252207
vt 0.392773 0.497793
vt 0.392773 0.252207
vt 0.625000 0.002575
vt 0.392773 0.247425
vt 0.392773 0.002575
vt 0.127207 0.747425
vt 0.127207 0.750000
vt 0.125000 0.747425
vt 0.127207 0.502575
vt 0.125000 0.502575
vt 0.127207 0.500000
vt 0.372793 0.747425
vt 0.375000 0.747425
vt 0.372793 0.750000
vt 0.372793 0.502575
vt 0.372793 0.500000
vt 0.375000 0.502575
vt 0.625000 0.000000
vt 0.392773 0.000000
vt 0.625000 0.247425
vt 0.625000 0.497793
vt 0.625000 0.747425
vt 0.625000 0.997793
s 0
f 138/202/98 126/203/98 137/204/98
f 143/205/99 136/206/99 142/207/99
f 133/208/100 141/209/100 132/210/100
f 128/211/101 131/212/101 127/213/101
f 125/214/102 126/215/102 127/216/102
f 130/217/103 131/218/103 132/219/103
f 135/220/104 136/221/104 137/222/104
f 140/223/105 141/224/105 142/225/105
f 125/214/106 131/218/106 130/217/106
f 129/226/107 127/213/107 126/227/107
f 132/210/108 134/228/108 133/208/108
f 130/217/109 141/224/109 140/223/109
f 142/207/110 144/229/110 143/205/110
f 140/223/111 136/206/111 135/220/111
f 137/204/112 139/230/112 138/202/112
f 135/220/113 126/215/113 125/214/113
f 140/223/114 125/214/114 130/217/114
f 138/202/98 129/231/98 126/203/98
f 143/205/99 139/230/99 136/206/99
f 133/208/100 144/229/100 141/209/100
f 128/211/101 134/228/101 131/212/101
f 125/214/106 127/216/106 131/218/106
f 129/226/107 128/211/107 127/213/107
f 132/210/108 131/212/108 134/228/108
f 130/217/109 132/219/109 141/224/109
f 142/207/110 141/209/110 144/229/110
f 140/223/111 142/207/111 136/206/111
f 137/204/112 136/206/112 139/230/112
f 135/220/113 137/222/113 126/215/113
f 140/223/114 135/220/114 125/214/114
o TV.003
v -0.226423 0.128004 0.209467
v -0.226423 0.343887 0.209467
v 0.150979 0.128004 0.209467
v 0.150979 0.343887 0.209467
v -0.234091 0.104350 0.123139
v -0.231527 0.112259 0.188526
v -0.231527 0.171904 0.216977
v -0.234091 0.235945 0.220749
v -0.231527 0.299987 0.216977
v -0.231527 0.359632 0.188526
v -0.234091 0.367541 0.123139
v 0.155543 0.112259 0.188526
v 0.157836 0.104350 0.123139
v 0.157836 0.367541 0.123139
v 0.155543 0.359632 0.188526
v 0.155543 0.299987 0.216977
v 0.157836 0.235945 0.220749
v 0.155543 0.171904 0.216977
v -0.208611 0.112259 0.216977
v 0.136134 0.112259 0.216977
v 0.136134 0.359632 0.216977
v -0.208611 0.359632 0.216977
v -0.242448 0.167692 0.190535
v -0.246146 0.235945 0.192284
v -0.242448 0.304198 0.190535
v -0.246146 0.164026 0.123139
v -0.250182 0.235945 0.123139
v -0.246146 0.307865 0.123139
v 0.168618 0.164026 0.123139
v 0.172228 0.235945 0.123139
v 0.168618 0.307865 0.123139
v 0.165311 0.167692 0.190535
v 0.168618 0.235945 0.192284
v 0.165311 0.304198 0.190535
v 0.138159 0.167692 0.233047
v 0.139922 0.235945 0.238488
v 0.138159 0.304198 0.233047
v -0.211104 0.167692 0.233047
v -0.213274 0.235945 0.238488
v -0.211104 0.304198 0.233047
v -0.213274 0.067162 0.123139
v 0.139922 0.067162 0.123139
v -0.211104 0.078569 0.190535
v 0.138159 0.078569 0.190535
v 0.139922 0.404729 0.123139
v -0.213274 0.404729 0.123139
v 0.138159 0.393322 0.190535
v -0.211104 0.393322 0.190535
vn -0.9656 -0.1251 0.2279
vn -0.9983 -0.0000 0.0580
vn -0.9898 -0.1286 0.0607
vn -0.9656 0.1251 0.2279
vn -0.9735 -0.0000 0.2287
vn -0.7521 -0.2978 0.5879
vn -0.8847 -0.3662 0.2884
vn -0.7923 -0.1252 0.5972
vn -0.7923 0.1252 0.5972
vn -0.8043 -0.0000 0.5942
vn -0.7521 0.2978 0.5879
vn -0.8847 0.3662 0.2884
vn -0.9898 0.1286 0.0607
vn -0.9290 -0.3599 0.0862
vn 0.9987 -0.0000 0.0519
vn 0.9719 -0.1129 0.2067
vn 0.9918 -0.1155 0.0544
vn 0.9719 0.1129 0.2067
vn 0.9783 -0.0000 0.2071
vn 0.9918 0.1155 0.0544
vn 0.9078 0.3266 0.2630
vn 0.7947 0.2699 0.5437
vn 0.8269 0.1156 0.5503
vn 0.8364 -0.0000 0.5482
vn 0.8269 -0.1156 0.5503
vn 0.7947 -0.2699 0.5437
vn 0.9078 -0.3266 0.2630
vn 0.9444 -0.3198 0.0765
vn -0.0000 0.1775 0.9841
vn -0.0000 -0.0000 1.0000
vn -0.0000 0.1779 0.9840
vn -0.0000 0.4571 0.8894
vn -0.0000 0.4569 0.8895
vn 0.6822 -0.1426 0.7171
vn 0.7199 -0.3549 0.5964
vn 0.7002 -0.0000 0.7139
vn 0.6822 0.1426 0.7171
vn -0.0000 -0.1779 0.9840
vn -0.0000 -0.4571 0.8894
vn -0.0000 -0.4569 0.8895
vn -0.6200 0.1528 0.7696
vn -0.6437 -0.0000 0.7653
vn -0.6200 -0.1528 0.7696
vn -0.6568 -0.3837 0.6491
vn -0.0000 -0.9860 0.1669
vn -0.0000 -0.6174 0.7866
vn 0.8696 -0.4282 0.2457
vn 0.8967 -0.4320 0.0966
vn -0.0000 0.9860 0.1669
vn -0.8320 -0.4797 0.2786
vn -0.0000 -0.1775 0.9841
vn -0.0000 0.6174 0.7866
vn -0.9290 0.3599 0.0862
vn -0.8320 0.4797 0.2786
vn -0.8673 0.4855 0.1101
vn -0.6568 0.3837 0.6491
vn 0.7199 0.3549 0.5964
vn 0.9444 0.3198 0.0765
vn 0.8696 0.4282 0.2457
vn -0.8673 -0.4855 0.1101
vn 0.8967 0.4320 0.0966
vt 0.437500 0.062500
vt 0.500000 0.125000
vt 0.437500 0.125000
vt 0.562500 0.062500
vt 0.500000 0.062500
vt 0.375000 0.000000
vt 0.375000 0.062500
vt 0.437500 0.000000
vt 0.562500 0.000000
vt 0.500000 0.000000
vt 0.625000 0.000000
vt 0.625000 0.062500
vt 0.562500 0.125000
vt 0.375000 0.125000
vt 0.500000 0.625000
vt 0.437500 0.687500
vt 0.437500 0.625000
vt 0.562500 0.687500
vt 0.500000 0.687500
vt 0.562500 0.625000
vt 0.625000 0.687500
vt 0.625000 0.750000
vt 0.562500 0.750000
vt 0.500000 0.750000
vt 0.437500 0.750000
vt 0.375000 0.750000
vt 0.375000 0.687500
vt 0.375000 0.625000
vt 0.562500 0.937500
vt 0.500000 0.812500
vt 0.562500 0.812500
vt 0.625000 0.937500
vt 0.625000 0.812500
vt 0.437500 0.812500
vt 0.375000 0.812500
vt 0.375000 0.937500
vt 0.625000 1.000000
vt 0.562500 1.000000
vt 0.500000 0.937500
vt 0.500000 1.000000
vt 0.437500 1.000000
vt 0.437500 0.937500
vt 0.375000 1.000000
vt 0.312500 0.625000
vt 0.187500 0.687500
vt 0.187500 0.625000
vt 0.312500 0.687500
vt 0.187500 0.750000
vt 0.312500 0.750000
vt 0.687500 0.625000
vt 0.812500 0.687500
vt 0.687500 0.687500
vt 0.125000 0.687500
vt 0.125000 0.750000
vt 0.125000 0.625000
vt 0.812500 0.750000
vt 0.687500 0.750000
vt 0.875000 0.625000
vt 0.812500 0.625000
vt 0.875000 0.687500
vt 0.625000 0.625000
vt 0.625000 0.125000
vt 0.875000 0.750000
s 1
f 167/232/115 171/233/116 170/234/117
f 169/235/118 171/233/116 168/236/119
f 145/237/120 167/232/115 150/238/121
f 151/239/122 168/236/119 167/232/115
f 153/240/123 168/236/119 152/241/124
f 146/242/125 169/235/118 153/240/123
f 154/243/126 172/244/127 169/235/118
f 150/238/121 170/234/117 149/245/128
f 174/246/129 176/247/130 173/248/131
f 174/246/129 178/249/132 177/250/133
f 175/251/134 159/252/135 178/249/132
f 178/249/132 148/253/136 160/254/137
f 177/250/133 160/254/137 161/255/138
f 177/250/133 162/256/139 176/247/130
f 176/247/130 147/257/140 156/258/141
f 173/248/131 156/258/141 157/259/142
f 184/260/143 180/261/144 181/262/145
f 166/263/146 181/262/145 165/264/147
f 147/257/140 179/265/148 164/266/149
f 162/256/139 180/261/150 179/265/148
f 160/254/137 180/261/150 161/255/138
f 148/253/136 181/262/151 160/254/137
f 179/265/152 163/267/153 164/266/154
f 184/260/155 146/268/125 153/269/123
f 183/270/156 153/269/123 152/271/124
f 183/270/156 151/272/122 182/273/157
f 182/273/157 145/274/120 163/267/158
f 186/275/159 187/276/159 185/277/159
f 188/278/160 163/279/153 187/276/160
f 157/259/142 188/278/161 186/275/162
f 156/258/141 164/280/149 188/278/161
f 189/281/163 192/282/163 191/283/163
f 150/284/121 163/279/158 145/285/120
f 149/286/128 187/276/164 150/284/121
f 180/261/144 182/273/165 179/265/152
f 191/283/166 166/287/146 165/288/147
f 155/289/167 192/282/168 190/290/169
f 154/291/126 166/287/170 192/282/168
f 159/252/135 165/288/171 148/253/136
f 158/292/172 191/283/173 159/252/135
f 167/232/115 168/236/119 171/233/116
f 169/235/118 172/244/127 171/233/116
f 145/237/120 151/239/122 167/232/115
f 151/239/122 152/241/124 168/236/119
f 153/240/123 169/235/118 168/236/119
f 146/242/125 154/243/126 169/235/118
f 154/243/126 155/293/167 172/244/127
f 150/238/121 167/232/115 170/234/117
f 174/246/129 177/250/133 176/247/130
f 174/246/129 175/251/134 178/249/132
f 175/251/134 158/292/172 159/252/135
f 178/249/132 159/252/135 148/253/136
f 177/250/133 178/249/132 160/254/137
f 177/250/133 161/255/138 162/256/139
f 176/247/130 162/256/139 147/257/140
f 173/248/131 176/247/130 156/258/141
f 184/260/143 183/270/144 180/261/144
f 166/263/146 184/260/143 181/262/145
f 147/257/140 162/256/139 179/265/148
f 162/256/139 161/255/138 180/261/150
f 160/254/137 181/262/151 180/261/150
f 148/253/136 165/264/171 181/262/151
f 179/265/152 182/273/165 163/267/153
f 184/260/155 166/263/170 146/268/125
f 183/270/156 184/260/155 153/269/123
f 183/270/156 152/271/124 151/272/122
f 182/273/157 151/272/122 145/274/120
f 186/275/159 188/278/159 187/276/159
f 188/278/160 164/280/154 163/279/153
f 157/259/142 156/258/141 188/278/161
f 156/258/141 147/257/140 164/280/149
f 189/281/163 190/290/163 192/282/163
f 150/284/121 187/276/164 163/279/158
f 149/286/128 185/277/174 187/276/164
f 180/261/144 183/270/144 182/273/165
f 191/283/166 192/282/166 166/287/146
f 155/289/167 154/291/126 192/282/168
f 154/291/126 146/294/125 166/287/170
f 159/252/135 191/283/173 165/288/171
f 158/292/172 189/281/175 191/283/173
o TV.004
v 0.193692 0.097611 0.251848
v 0.193692 0.179946 0.251848
v 0.193692 0.097611 0.197815
v 0.193692 0.179946 0.197815
v 0.276026 0.097611 0.251848
v 0.276026 0.179946 0.251848
v 0.276026 0.097611 0.197815
v 0.276026 0.179946 0.197815
vn -1.0000 -0.0000 -0.0000
vn 1.0000 -0.0000 -0.0000
vn -0.0000 -0.0000 1.0000
vn -0.0000 -1.0000 -0.0000
vn -0.0000 1.0000 -0.0000
vt 0.625000 0.000000
vt 0.375000 0.250000
vt 0.375000 0.000000
vt 0.625000 0.500000
vt 0.375000 0.750000
vt 0.375000 0.500000
vt 0.625000 0.750000
vt 0.375000 1.000000
vt 0.125000 0.750000
vt 0.125000 0.500000
vt 0.875000 0.500000
vt 0.625000 0.250000
vt 0.625000 1.000000
vt 0.875000 0.750000
s 0
f 194/295/176 195/296/176 193/297/176
f 200/298/177 197/299/177 199/300/177
f 198/301/178 193/302/178 197/299/178
f 199/300/179 193/303/179 195/304/179
f 196/305/180 198/301/180 200/298/180
f 194/295/176 196/306/176 195/296/176
f 200/298/177 198/301/177 197/299/177
f 198/301/178 194/307/178 193/302/178
f 199/300/179 197/299/179 193/303/179
f 196/305/180 194/308/180 198/301/180
o TV.005
v 0.234859 0.201868 0.205963
v 0.206108 0.230619 0.205963
v 0.214529 0.210289 0.205963
v 0.206108 0.230619 0.205963
v 0.234859 0.259370 0.205963
v 0.214529 0.250949 0.205963
v 0.263610 0.230619 0.205963
v 0.234859 0.201868 0.205963
v 0.255189 0.210289 0.205963
v 0.234859 0.259370 0.205963
v 0.263610 0.230619 0.205963
v 0.255189 0.250949 0.205963
v 0.206108 0.230619 0.243700
v 0.206108 0.230619 0.243700
v 0.206108 0.230619 0.243700
v 0.234859 0.201868 0.243700
v 0.234859 0.201868 0.243700
v 0.234859 0.201868 0.243700
v 0.214529 0.210289 0.243700
v 0.214529 0.210289 0.243700
v 0.214529 0.210289 0.243700
v 0.234859 0.259370 0.243700
v 0.234859 0.259370 0.243700
v 0.234859 0.259370 0.243700
v 0.206108 0.230619 0.243700
v 0.206108 0.230619 0.243700
v 0.206108 0.230619 0.243700
v 0.214529 0.250949 0.243700
v 0.214529 0.250949 0.243700
v 0.214529 0.250949 0.243700
v 0.234859 0.201868 0.243700
v 0.234859 0.201868 0.243700
v 0.234859 0.201868 0.243700
v 0.263610 0.230619 0.243700
v 0.263610 0.230619 0.243700
v 0.263610 0.230619 0.243700
v 0.255189 0.210289 0.243700
v 0.255189 0.210289 0.243700
v 0.255189 0.210289 0.243700
v 0.263610 0.230619 0.243700
v 0.263610 0.230619 0.243700
v 0.263610 0.230619 0.243700
v 0.234859 0.259370 0.243700
v 0.234859 0.259370 0.243700
v 0.234859 0.259370 0.243700
v 0.255189 0.250949 0.243700
v 0.255189 0.250949 0.243700
v 0.255189 0.250949 0.243700
vn -0.0000 1.0000 -0.0000
vn 0.9239 0.3827 -0.0000
vn -0.9239 0.3827 -0.0000
vn -0.0000 -0.0000 1.0000
vn -0.3827 0.9239 -0.0000
vn 0.3827 -0.9239 -0.0000
vn 0.9239 -0.3827 -0.0000
vn 0.3827 0.9239 -0.0000
vn -0.3827 -0.9239 -0.0000
vn -0.9239 -0.3827 -0.0000
vt 0.250000 0.500000
vt 0.250000 0.750000
vt 0.625000 0.750000
vt 0.500000 0.500000
vt 0.625000 0.500000
vt 0.625000 0.250000
vt 0.500000 0.000000
vt 0.625000 0.000000
vt 0.411612 0.786612
vt 0.500000 0.750000
vt 0.588388 0.786612
vt 0.750000 0.500000
vt 0.875000 0.750000
vt 0.750000 0.750000
vt 0.500000 0.250000
vt 0.375000 0.750000
vt 0.375000 0.500000
vt 0.125000 0.500000
vt 0.375000 0.875000
vt 0.411612 0.963388
vt 0.125000 0.750000
vt 0.500000 1.000000
vt 0.375000 0.000000
vt 0.588388 0.963388
vt 0.625000 0.875000
vt 0.375000 0.250000
vt 0.875000 0.500000
s 0
f 201/309/181 232/310/181 217/310/181
f 247/311/182 211/312/182 212/313/182
f 206/314/183 226/315/183 229/316/183
f 237/317/184 240/318/184 246/319/184
f 205/320/185 229/321/185 223/322/185
f 214/315/181 204/323/181 202/323/181
f 210/320/181 223/322/181 244/322/181
f 208/309/186 238/324/186 232/310/186
f 209/325/187 235/318/187 238/324/187
f 207/312/181 241/318/181 235/318/181
f 244/322/188 212/313/188 210/320/188
f 217/310/189 203/326/189 201/309/189
f 216/327/181 221/328/181 218/327/181
f 218/310/181 220/329/181 217/310/181
f 219/328/181 215/330/181 221/328/181
f 221/331/181 214/315/181 220/331/181
f 228/332/181 224/333/181 230/332/181
f 230/321/181 223/322/181 229/321/181
f 225/330/181 230/332/181 227/330/181
f 227/315/181 229/316/181 226/315/181
f 237/317/181 233/327/181 239/317/181
f 239/324/181 232/310/181 238/324/181
f 234/318/181 239/317/181 236/318/181
f 236/318/181 238/324/181 235/318/181
f 243/333/181 248/319/181 245/333/181
f 245/322/181 247/311/181 244/322/181
f 246/319/181 242/318/181 248/319/181
f 248/311/181 241/318/181 247/311/181
f 231/327/181 218/327/181 233/327/181
f 233/310/181 217/310/181 232/310/181
f 213/330/181 227/330/181 215/330/181
f 215/315/181 226/315/181 214/315/181
f 235/318/181 242/318/181 236/318/181
f 236/318/181 240/318/181 234/318/181
f 244/322/181 224/322/181 245/322/181
f 245/333/181 222/333/181 243/333/181
f 220/331/190 202/323/190 203/334/190
f 201/309/181 208/309/181 232/310/181
f 247/311/182 241/318/182 211/312/182
f 206/314/183 204/323/183 226/315/183
f 216/327/181 231/327/181 237/317/181
f 219/328/184 216/327/184 237/317/184
f 228/332/181 225/330/181 213/330/181
f 213/330/184 219/328/184 237/317/184
f 228/332/184 213/330/184 237/317/184
f 246/319/181 243/333/181 222/333/181
f 222/333/184 228/332/184 237/317/184
f 246/319/184 222/333/184 237/317/184
f 237/317/181 234/318/181 240/318/181
f 205/320/185 206/335/185 229/321/185
f 214/315/181 226/315/181 204/323/181
f 210/320/181 205/320/181 223/322/181
f 208/309/186 209/325/186 238/324/186
f 209/325/187 207/312/187 235/318/187
f 207/312/181 211/312/181 241/318/181
f 244/322/188 247/311/188 212/313/188
f 217/310/189 220/329/189 203/326/189
f 216/327/181 219/328/181 221/328/181
f 218/310/181 221/329/181 220/329/181
f 219/328/181 213/330/181 215/330/181
f 221/331/181 215/315/181 214/315/181
f 228/332/181 222/333/181 224/333/181
f 230/321/181 224/322/181 223/322/181
f 225/330/181 228/332/181 230/332/181
f 227/315/181 230/316/181 229/316/181
f 237/317/181 231/327/181 233/327/181
f 239/324/181 233/310/181 232/310/181
f 234/318/181 237/317/181 239/317/181
f 236/318/181 239/324/181 238/324/181
f 243/333/181 246/319/181 248/319/181
f 245/322/181 248/311/181 247/311/181
f 246/319/181 240/318/181 242/318/181
f 248/311/181 242/318/181 241/318/181
f 231/327/181 216/327/181 218/327/181
f 233/310/181 218/310/181 217/310/181
f 213/330/181 225/330/181 227/330/181
f 215/315/181 227/315/181 226/315/181
f 235/318/181 241/318/181 242/318/181
f 236/318/181 242/318/181 240/318/181
f 244/322/181 223/322/181 224/322/181
f 245/333/181 224/333/181 222/333/181
f 220/331/190 214/315/190 202/323/190
