# Blender 4.1.0
# www.blender.org
mtllib CeliningLight.001.mtl
o CeliningLight.001
v -0.665658 -0.069294 -0.076935
v 0.665658 -0.069294 -0.076935
v -0.665658 -0.091472 -0.067749
v 0.665658 -0.091472 -0.067749
v -0.665658 -0.100659 -0.045571
v 0.665658 -0.100659 -0.045571
v -0.665658 -0.091472 -0.023393
v 0.665658 -0.091472 -0.023393
v -0.665658 -0.069294 -0.014206
v 0.665658 -0.069294 -0.014206
v -0.665658 -0.047116 -0.023393
v 0.665658 -0.047117 -0.023393
v -0.665658 -0.037930 -0.045571
v 0.665658 -0.037930 -0.045571
v -0.665658 -0.047116 -0.067749
v 0.665658 -0.047117 -0.067749
v -0.665658 -0.069294 0.076935
v 0.665658 -0.069294 0.076935
v -0.665658 -0.091472 0.067749
v 0.665658 -0.091472 0.067749
v -0.665658 -0.100659 0.045571
v 0.665658 -0.100659 0.045571
v -0.665658 -0.091472 0.023393
v 0.665658 -0.091472 0.023393
v -0.665658 -0.069294 0.014206
v 0.665658 -0.069294 0.014206
v -0.665658 -0.047116 0.023393
v 0.665658 -0.047117 0.023393
v -0.665658 -0.037930 0.045571
v 0.665658 -0.037930 0.045571
v -0.665658 -0.047116 0.067749
v 0.665658 -0.047117 0.067749
vn -0.0000 -0.3827 -0.9239
vn -0.0000 -0.9239 -0.3827
vn -0.0000 -0.9239 0.3827
vn -0.0000 -0.3827 0.9239
vn -0.0000 0.3827 0.9239
vn -0.0000 0.9239 0.3827
vn 1.0000 -0.0000 -0.0000
vn -0.0000 0.9239 -0.3827
vn -0.0000 0.3827 -0.9239
vn -1.0000 -0.0000 -0.0000
vt 0.015819 0.176443
vt 0.610209 0.067252
vt 0.610209 0.176443
vt 0.015819 0.067252
vt 0.610209 0.022023
vt 0.015819 0.022023
vt 0.610209 0.285634
vt 0.015819 0.330862
vt 0.610209 0.330862
vt 0.015819 0.285634
s 1
usemtl CeilingLight01
f 2/1/1 3/2/1 1/3/1
f 4/4/2 5/5/2 3/2/2
f 6/6/3 7/2/3 5/5/3
f 8/4/4 9/3/4 7/2/4
f 10/1/5 11/7/5 9/3/5
f 11/7/6 14/8/6 13/9/6
f 14/8/7 10/1/7 6/6/7
f 14/8/8 15/7/8 13/9/8
f 16/10/9 1/3/9 15/7/9
f 7/2/10 11/7/10 15/7/10
f 19/2/4 18/1/4 17/3/4
f 21/5/3 20/4/3 19/2/3
f 23/2/2 22/6/2 21/5/2
f 25/3/1 24/4/1 23/2/1
f 27/7/9 26/1/9 25/3/9
f 27/7/8 30/8/8 28/10/8
f 26/1/7 30/8/7 18/1/7
f 31/7/6 30/8/6 29/9/6
f 17/3/5 32/10/5 31/7/5
f 27/7/10 23/2/10 19/2/10
f 2/1/1 4/4/1 3/2/1
f 4/4/2 6/6/2 5/5/2
f 6/6/3 8/4/3 7/2/3
f 8/4/4 10/1/4 9/3/4
f 10/1/5 12/10/5 11/7/5
f 11/7/6 12/10/6 14/8/6
f 6/6/7 4/4/7 2/1/7
f 2/1/7 16/10/7 14/8/7
f 14/8/7 12/10/7 10/1/7
f 10/1/7 8/4/7 6/6/7
f 6/6/7 2/1/7 14/8/7
f 14/8/8 16/10/8 15/7/8
f 16/10/9 2/1/9 1/3/9
f 15/7/10 1/3/10 3/2/10
f 3/2/10 5/5/10 7/2/10
f 7/2/10 9/3/10 11/7/10
f 11/7/10 13/9/10 15/7/10
f 15/7/10 3/2/10 7/2/10
f 19/2/4 20/4/4 18/1/4
f 21/5/3 22/6/3 20/4/3
f 23/2/2 24/4/2 22/6/2
f 25/3/1 26/1/1 24/4/1
f 27/7/9 28/10/9 26/1/9
f 27/7/8 29/9/8 30/8/8
f 18/1/7 20/4/7 22/6/7
f 22/6/7 24/4/7 26/1/7
f 26/1/7 28/10/7 30/8/7
f 30/8/7 32/10/7 18/1/7
f 18/1/7 22/6/7 26/1/7
f 31/7/6 32/10/6 30/8/6
f 17/3/5 18/1/5 32/10/5
f 19/2/10 17/3/10 31/7/10
f 31/7/10 29/9/10 27/7/10
f 27/7/10 25/3/10 23/2/10
f 23/2/10 21/5/10 19/2/10
f 19/2/10 31/7/10 27/7/10
