# Blender 4.1.0
# www.blender.org
mtllib CeliningLight.002.mtl
o CeliningLight.002
v -0.698420 -0.024206 0.103849
v -0.698420 -0.024206 -0.103849
v -0.657807 -0.024206 0.103849
v -0.657807 -0.024206 -0.103849
v -0.698420 -0.114383 0.045644
v -0.698420 -0.056179 0.103849
v -0.698420 -0.097336 0.086801
v -0.698420 -0.056179 -0.103849
v -0.698420 -0.114383 -0.045644
v -0.698420 -0.097336 -0.086801
v -0.657807 -0.056179 0.103849
v -0.657807 -0.114383 0.045644
v -0.657807 -0.097336 0.086801
v -0.657807 -0.114383 -0.045644
v -0.657807 -0.056179 -0.103849
v -0.657807 -0.097336 -0.086801
v -0.698481 -0.031651 0.104593
v -0.698481 -0.000001 0.104593
v -0.698481 -0.031651 -0.104593
v -0.698481 -0.000001 -0.104593
v 0.698481 -0.031651 0.104593
v 0.698481 -0.000001 0.104593
v 0.698481 -0.031651 -0.104593
v 0.698481 -0.000001 -0.104593
v 0.698420 -0.024206 0.103849
v 0.698420 -0.024206 -0.103849
v 0.657807 -0.024206 0.103849
v 0.657807 -0.024206 -0.103849
v 0.698420 -0.114383 0.045644
v 0.698420 -0.056179 0.103849
v 0.698420 -0.097336 0.086801
v 0.698420 -0.056179 -0.103849
v 0.698420 -0.114383 -0.045644
v 0.698420 -0.097336 -0.086801
v 0.657807 -0.056179 0.103849
v 0.657807 -0.114383 0.045644
v 0.657807 -0.097336 0.086801
v 0.657807 -0.114383 -0.045644
v 0.657807 -0.056179 -0.103849
v 0.657807 -0.097336 -0.086801
v 0.698481 -0.031651 0.104593
v 0.698481 -0.000001 0.104593
v 0.698481 -0.031651 -0.104593
v 0.698481 -0.000001 -0.104593
v -0.698481 -0.031651 0.104593
v -0.698481 -0.000001 0.104593
v -0.698481 -0.031651 -0.104593
v -0.698481 -0.000001 -0.104593
vn -0.0000 -0.0000 1.0000
vn 1.0000 -0.0000 -0.0000
vn -0.0000 -0.0000 -1.0000
vn -1.0000 -0.0000 -0.0000
vn -0.0000 1.0000 -0.0000
vn -0.0000 -0.9239 -0.3827
vn -0.0000 -0.3827 -0.9239
vn -0.0000 -0.9239 0.3827
vn -0.0000 -0.3827 0.9239
vn -0.0000 -1.0000 -0.0000
vt 0.661652 0.931334
vt 0.661652 0.843881
vt 0.979116 0.931334
vt 0.750617 0.684680
vt 0.979116 0.843881
vt 0.890150 0.684680
vt 0.953058 0.731309
vt 0.687709 0.731309
vt 0.664021 0.766671
vt 0.664021 0.657276
vt 0.664021 0.766671
vt 0.962259 0.657276
vt 0.962259 0.766671
vt 0.962259 0.766671
vt 0.988231 0.898008
vt 0.656778 0.983790
vt 0.656778 0.898008
vt 0.988231 0.983790
s 0
usemtl CeilingLight01
f 3/1/1 6/2/1 11/2/1
f 4/3/2 11/2/2 12/4/2
f 2/3/3 15/5/3 8/5/3
f 1/1/4 8/5/4 9/6/4
f 2/3/5 3/1/5 4/3/5
f 14/6/6 10/7/6 16/7/6
f 10/7/7 15/5/7 16/7/7
f 12/4/8 7/8/8 5/4/8
f 13/8/9 6/2/9 7/8/9
f 14/6/10 5/4/10 9/6/10
f 18/9/4 19/10/4 17/10/4
f 20/11/3 23/12/3 19/10/3
f 24/13/2 21/12/2 23/12/2
f 22/14/1 17/10/1 21/12/1
f 23/15/10 17/16/10 19/17/10
f 20/11/5 22/14/5 24/13/5
f 30/2/1 27/1/1 35/2/1
f 35/2/4 28/3/4 40/7/4
f 39/5/3 26/3/3 32/5/3
f 32/5/2 25/1/2 31/8/2
f 27/1/5 26/3/5 28/3/5
f 38/6/6 34/7/6 33/6/6
f 39/5/7 34/7/7 40/7/7
f 31/8/8 36/4/8 29/4/8
f 30/2/9 37/8/9 31/8/9
f 29/4/10 38/6/10 33/6/10
f 43/10/2 42/9/2 41/10/2
f 47/12/3 44/11/3 43/10/3
f 45/12/4 48/13/4 47/12/4
f 41/10/1 46/14/1 45/12/1
f 41/16/10 47/15/10 43/17/10
f 46/14/5 44/11/5 48/13/5
f 3/1/1 1/1/1 6/2/1
f 12/4/2 14/6/2 16/7/2
f 16/7/2 15/5/2 4/3/2
f 4/3/2 3/1/2 11/2/2
f 11/2/2 13/8/2 12/4/2
f 12/4/2 16/7/2 4/3/2
f 2/3/3 4/3/3 15/5/3
f 9/6/4 5/4/4 7/8/4
f 7/8/4 6/2/4 1/1/4
f 1/1/4 2/3/4 8/5/4
f 8/5/4 10/7/4 9/6/4
f 9/6/4 7/8/4 1/1/4
f 2/3/5 1/1/5 3/1/5
f 14/6/6 9/6/6 10/7/6
f 10/7/7 8/5/7 15/5/7
f 12/4/8 13/8/8 7/8/8
f 13/8/9 11/2/9 6/2/9
f 14/6/10 12/4/10 5/4/10
f 18/9/4 20/11/4 19/10/4
f 20/11/3 24/13/3 23/12/3
f 24/13/2 22/14/2 21/12/2
f 22/14/1 18/9/1 17/10/1
f 23/15/10 21/18/10 17/16/10
f 20/11/5 18/9/5 22/14/5
f 30/2/1 25/1/1 27/1/1
f 40/7/4 38/6/4 36/4/4
f 36/4/4 37/8/4 35/2/4
f 35/2/4 27/1/4 28/3/4
f 28/3/4 39/5/4 40/7/4
f 40/7/4 36/4/4 35/2/4
f 39/5/3 28/3/3 26/3/3
f 31/8/2 29/4/2 33/6/2
f 33/6/2 34/7/2 32/5/2
f 32/5/2 26/3/2 25/1/2
f 25/1/2 30/2/2 31/8/2
f 31/8/2 33/6/2 32/5/2
f 27/1/5 25/1/5 26/3/5
f 38/6/6 40/7/6 34/7/6
f 39/5/7 32/5/7 34/7/7
f 31/8/8 37/8/8 36/4/8
f 30/2/9 35/2/9 37/8/9
f 29/4/10 36/4/10 38/6/10
f 43/10/2 44/11/2 42/9/2
f 47/12/3 48/13/3 44/11/3
f 45/12/4 46/14/4 48/13/4
f 41/10/1 42/9/1 46/14/1
f 41/16/10 45/18/10 47/15/10
f 46/14/5 42/9/5 44/11/5
