# Blender 4.5.14 LTS
# www.blender.org
mtllib bare_bulb.mtl
o bare_bulb
v 0.050000 2.970000 0.000000 0.9921 0.9921 0.9921
v 0.035355 2.970000 -0.035355 0.9960 0.9960 0.9960
v 0.000000 2.970000 -0.050000 0.9921 0.9921 0.9921
v -0.035355 2.970000 -0.035355 0.9960 0.9960 0.9960
v -0.050000 3.000000 -0.000000 1.0000 1.0000 1.0000
v -0.035355 3.000000 -0.035355 1.0000 1.0000 1.0000
v -0.050000 2.970000 -0.000000 0.9921 0.9921 0.9921
v -0.035355 3.000000 0.035355 1.0000 1.0000 1.0000
v -0.000000 2.970000 0.050000 0.9921 0.9921 0.9921
v 0.035355 2.970000 0.035355 0.9921 0.9921 0.9921
v 0.050000 3.000000 0.000000 1.0000 1.0000 1.0000
v 0.035355 3.000000 0.035355 1.0000 1.0000 1.0000
v 0.035355 3.000000 -0.035355 1.0000 1.0000 1.0000
v 0.000000 3.000000 -0.050000 1.0000 1.0000 1.0000
v -0.000000 3.000000 0.050000 1.0000 1.0000 1.0000
v -0.035355 2.970000 0.035355 0.9960 0.9960 0.9960
vn 1.0000 -0.0000 -0.0000
vn 0.7071 -0.0000 -0.7071
vn -0.0000 -0.0000 -1.0000
vn -0.7071 -0.0000 -0.7071
vn -1.0000 -0.0000 -0.0000
vn -0.7071 -0.0000 0.7071
vn -0.0000 -0.0000 1.0000
vn 0.7071 -0.0000 0.7071
vn -0.0000 1.0000 -0.0000
vn -0.0000 -1.0000 -0.0000
vt 0.656494 0.968994
vt 0.660339 0.968994
vt 0.660339 0.999756
vt 0.656494 0.999756
vt 0.664185 0.968994
vt 0.664185 0.999756
vt 0.668030 0.968994
vt 0.668030 0.999756
vt 0.671875 0.968994
vt 0.671875 0.999756
vt 0.675720 0.968994
vt 0.675720 0.999756
vt 0.679565 0.968994
vt 0.679565 0.999756
vt 0.683411 0.968994
vt 0.683411 0.999756
vt 0.687256 0.968994
vt 0.687256 0.999756
vt 0.687256 0.984375
vt 0.682751 0.995251
vt 0.660999 0.995251
vt 0.656494 0.984375
vt 0.660999 0.973499
vt 0.682751 0.973499
s 1
usemtl props
f 1/1/1 2/2/2 13/3/2 11/4/1
f 2/2/2 3/5/3 14/6/3 13/3/2
f 3/5/3 4/7/4 6/8/4 14/6/3
f 4/7/4 7/9/5 5/10/5 6/8/4
f 7/9/5 16/11/6 8/12/6 5/10/5
f 16/11/6 9/13/7 15/14/7 8/12/6
f 9/13/7 10/15/8 12/16/8 15/14/7
f 10/15/8 1/17/1 11/18/1 12/16/8
s 0
f 11/19/9 13/20/9 14/10/9 6/21/9 5/22/9 8/23/9 15/9/9 12/24/9
f 10/20/10 9/10/10 16/21/10 7/22/10 4/23/10 3/9/10 2/24/10 1/19/10
o bare_bulb_flex
v -0.005000 2.970000 0.000000 0.8157 0.8157 0.8157
v -0.005000 2.300000 0.000000 0.8470 0.8470 0.8470
v -0.000000 2.300000 -0.005000 0.8431 0.8431 0.8431
v 0.005000 2.300000 -0.000000 0.8431 0.8431 0.8431
v 0.005000 2.970000 -0.000000 0.8117 0.8117 0.8117
v -0.000000 2.970000 -0.005000 0.8117 0.8117 0.8117
v 0.000000 2.970000 0.005000 0.8157 0.8157 0.8157
v 0.000000 2.300000 0.005000 0.8470 0.8470 0.8470
v -0.010000 2.250000 -0.017321 0.9529 0.9529 0.9529
v 0.010000 2.300000 -0.017321 0.9882 0.9882 0.9882
v -0.020000 2.250000 -0.000000 0.9529 0.9529 0.9529
v -0.020000 2.300000 -0.000000 0.9882 0.9882 0.9882
v -0.010000 2.300000 -0.017321 0.9882 0.9882 0.9882
v -0.010000 2.300000 0.017321 0.9882 0.9882 0.9882
v 0.010000 2.300000 0.017321 0.9921 0.9921 0.9921
v 0.020000 2.300000 0.000000 0.9882 0.9882 0.9882
v 0.010000 2.250000 0.017321 0.9490 0.9490 0.9490
v -0.010000 2.250000 0.017321 0.9529 0.9529 0.9529
v 0.010000 2.250000 -0.017321 0.9568 0.9568 0.9568
v 0.020000 2.250000 0.000000 0.9529 0.9529 0.9529
v 0.000000 2.100000 0.000000 1.0000 1.0000 1.0000
v 0.035000 2.120000 0.000000 1.0000 1.0000 1.0000
v 0.024749 2.120000 -0.024749 1.0000 1.0000 1.0000
v 0.000000 2.120000 -0.035000 1.0000 1.0000 1.0000
v -0.024749 2.120000 -0.024749 1.0000 1.0000 1.0000
v 0.028284 2.170000 -0.028284 1.0000 1.0000 1.0000
v 0.000000 2.170000 -0.040000 1.0000 1.0000 1.0000
v -0.035000 2.120000 -0.000000 1.0000 1.0000 1.0000
v -0.024749 2.120000 0.024749 1.0000 1.0000 1.0000
v -0.028284 2.170000 0.028284 1.0000 1.0000 1.0000
v -0.000000 2.120000 0.035000 1.0000 1.0000 1.0000
v 0.024749 2.120000 0.024749 1.0000 1.0000 1.0000
v 0.040000 2.170000 0.000000 1.0000 1.0000 1.0000
v -0.028284 2.170000 -0.028284 1.0000 1.0000 1.0000
v -0.012728 2.220000 -0.012728 0.9882 0.9882 0.9882
v -0.040000 2.170000 -0.000000 1.0000 1.0000 1.0000
v -0.012728 2.220000 0.012728 0.9921 0.9921 0.9921
v -0.000000 2.170000 0.040000 1.0000 1.0000 1.0000
v 0.028284 2.170000 0.028284 0.9960 0.9960 0.9960
v 0.012728 2.220000 0.012728 0.9882 0.9882 0.9882
v 0.012728 2.220000 -0.012728 0.9921 0.9921 0.9921
v 0.000000 2.250000 -0.018000 0.9451 0.9451 0.9451
v 0.000000 2.220000 -0.018000 0.9882 0.9882 0.9882
v -0.018000 2.250000 -0.000000 0.8353 0.8353 0.8353
v -0.018000 2.220000 -0.000000 0.9921 0.9921 0.9921
v -0.012728 2.250000 0.012728 0.8980 0.8980 0.8980
v -0.000000 2.220000 0.018000 0.9843 0.9843 0.9843
v 0.012728 2.250000 0.012728 0.8902 0.8902 0.8902
v -0.000000 2.250000 0.018000 0.9490 0.9490 0.9490
v 0.018000 2.220000 0.000000 0.9882 0.9882 0.9882
v 0.018000 2.250000 0.000000 0.8274 0.8274 0.8274
v 0.012728 2.250000 -0.012728 0.8980 0.8980 0.8980
v -0.012728 2.250000 -0.012728 0.8941 0.8941 0.8941
vn -0.7071 -0.0000 0.7071
vn -0.7071 -0.0000 -0.7071
vn 0.7071 -0.0000 -0.7071
vn 0.7071 -0.0000 0.7071
vn -0.0000 1.0000 -0.0000
vn -0.0000 -1.0000 -0.0000
vn 0.8660 -0.0000 -0.5000
vn -0.0000 -0.0000 -1.0000
vn -0.8660 -0.0000 -0.5000
vn -0.8660 -0.0000 0.5000
vn -0.0000 -0.0000 1.0000
vn 0.8660 -0.0000 0.5000
vn 0.3508 -0.8682 -0.3508
vn 0.4961 -0.8682 -0.0000
vn -0.0000 -0.8682 -0.4961
vn -0.3508 -0.8682 -0.3508
vn -0.4961 -0.8682 -0.0000
vn -0.3508 -0.8682 0.3508
vn -0.0000 -0.8682 0.4961
vn 0.3508 -0.8682 0.3508
vn 0.9950 -0.0995 -0.0000
vn 0.7036 -0.0995 -0.7036
vn 0.6993 0.1480 -0.6993
vn 0.9890 0.1480 -0.0000
vn -0.0000 -0.0995 -0.9950
vn -0.0000 0.1480 -0.9890
vn -0.7036 -0.0995 -0.7036
vn -0.6993 0.1480 -0.6993
vn -0.9950 -0.0995 -0.0000
vn -0.9890 0.1480 -0.0000
vn -0.7036 -0.0995 0.7036
vn -0.6993 0.1480 0.6993
vn -0.0000 -0.0995 0.9950
vn -0.0000 0.1480 0.9890
vn 0.7036 -0.0995 0.7036
vn 0.6993 0.1480 0.6993
vn 0.6903 0.2167 -0.6903
vn 0.9762 0.2167 -0.0000
vn -0.0000 0.2167 -0.9762
vn -0.6903 0.2167 -0.6903
vn -0.9762 0.2167 -0.0000
vn -0.6903 0.2167 0.6903
vn -0.0000 0.2167 0.9762
vn 0.6903 0.2167 0.6903
vn 1.0000 -0.0000 -0.0000
vn -1.0000 -0.0000 -0.0000
vt 0.750244 0.984619
vt 0.754028 0.984619
vt 0.754028 0.999756
vt 0.750244 0.999756
vt 0.757812 0.984619
vt 0.757812 0.999756
vt 0.761597 0.984619
vt 0.761597 0.999756
vt 0.765381 0.984619
vt 0.765381 0.999756
vt 0.765381 0.992188
vt 0.750244 0.992188
vt 0.781494 0.984619
vt 0.784017 0.984619
vt 0.784017 0.999756
vt 0.781494 0.999756
vt 0.786540 0.984619
vt 0.786540 0.999756
vt 0.789062 0.984619
vt 0.789062 0.999756
vt 0.791585 0.984619
vt 0.791585 0.999756
vt 0.794108 0.984619
vt 0.794108 0.999756
vt 0.796631 0.984619
vt 0.796631 0.999756
vt 0.796631 0.992188
vt 0.792847 0.999756
vt 0.785278 0.999756
vt 0.781494 0.992188
vt 0.785278 0.984619
vt 0.792847 0.984619
vt 0.922577 0.992432
vt 0.923035 0.994117
vt 0.922119 0.994117
vt 0.923492 0.992432
vt 0.923950 0.994117
vt 0.924408 0.992432
vt 0.924866 0.994117
vt 0.925323 0.992432
vt 0.925781 0.994117
vt 0.926239 0.992432
vt 0.926697 0.994117
vt 0.927155 0.992432
vt 0.927612 0.994117
vt 0.928070 0.992432
vt 0.928528 0.994117
vt 0.928986 0.992432
vt 0.929443 0.994117
vt 0.923035 0.996218
vt 0.922119 0.996218
vt 0.923950 0.996218
vt 0.924866 0.996218
vt 0.925781 0.996218
vt 0.926697 0.996218
vt 0.927612 0.996218
vt 0.928528 0.996218
vt 0.929443 0.996218
vt 0.923035 0.998502
vt 0.922119 0.998502
vt 0.923950 0.998502
vt 0.924866 0.998502
vt 0.925781 0.998502
vt 0.926697 0.998502
vt 0.927612 0.998502
vt 0.928528 0.998502
vt 0.929443 0.998502
vt 0.923035 0.999756
vt 0.922119 0.999756
vt 0.923950 0.999756
vt 0.924866 0.999756
vt 0.925781 0.999756
vt 0.926697 0.999756
vt 0.927612 0.999756
vt 0.928528 0.999756
vt 0.929443 0.999756
vt 0.929443 0.996094
vt 0.928371 0.998683
vt 0.923192 0.998683
vt 0.922119 0.996094
vt 0.923192 0.993504
vt 0.925781 0.992432
vt 0.928371 0.993504
s 1
usemtl props
f 23/25/11 17/26/11 18/27/11 24/28/11
f 17/26/12 22/29/12 19/30/12 18/27/12
f 22/29/13 21/31/13 20/32/13 19/30/13
f 21/31/14 23/33/14 24/34/14 20/32/14
s 0
f 21/35/15 22/30/15 17/36/15 23/29/15
f 24/30/16 18/36/16 19/29/16 20/35/16
s 1
f 36/37/17 35/38/17 26/39/17 32/40/17
f 35/38/18 25/41/18 29/42/18 26/39/18
f 25/41/19 27/43/19 28/44/19 29/42/19
f 27/43/20 34/45/20 30/46/20 28/44/20
f 34/45/21 33/47/21 31/48/21 30/46/21
f 33/47/22 36/49/22 32/50/22 31/48/22
s 0
f 32/51/15 26/52/15 29/53/15 28/54/15 30/55/15 31/56/15
f 33/52/16 34/53/16 27/54/16 25/55/16 35/56/16 36/51/16
s 1
f 37/57/16 39/58/23 38/59/24
f 37/60/16 40/61/25 39/58/23
f 37/62/16 41/63/26 40/61/25
f 37/64/16 44/65/27 41/63/26
f 37/66/16 45/67/28 44/65/27
f 37/68/16 47/69/29 45/67/28
f 37/70/16 48/71/30 47/69/29
f 37/72/16 38/73/24 48/71/30
f 38/59/31 39/58/32 42/74/33 49/75/34
f 39/58/32 40/61/35 43/76/36 42/74/33
f 40/61/35 41/63/37 50/77/38 43/76/36
f 41/63/37 44/65/39 52/78/40 50/77/38
f 44/65/39 45/67/41 46/79/42 52/78/40
f 45/67/41 47/69/43 54/80/44 46/79/42
f 47/69/43 48/71/45 55/81/46 54/80/44
f 48/71/45 38/73/31 49/82/34 55/81/46
f 49/75/34 42/74/33 57/83/47 66/84/48
f 42/74/33 43/76/36 59/85/49 57/83/47
f 43/76/36 50/77/38 51/86/50 59/85/49
f 50/77/38 52/78/40 61/87/51 51/86/50
f 52/78/40 46/79/42 53/88/52 61/87/51
f 46/79/42 54/80/44 63/89/53 53/88/52
f 54/80/44 55/81/46 56/90/54 63/89/53
f 55/81/46 49/82/34 66/91/48 56/90/54
f 66/84/48 57/83/47 68/92/13 67/93/55
f 57/83/47 59/85/49 58/94/18 68/92/13
f 59/85/49 51/86/50 69/95/12 58/94/18
f 51/86/50 61/87/51 60/96/56 69/95/12
f 61/87/51 53/88/52 62/97/11 60/96/56
f 53/88/52 63/89/53 65/98/21 62/97/11
f 63/89/53 56/90/54 64/99/14 65/98/21
f 56/90/54 66/91/48 67/100/55 64/99/14
s 0
f 67/101/15 68/102/15 58/96/15 69/103/15 60/104/15 62/105/15 65/106/15 64/107/15
