# Blender 4.5.14 LTS
# www.blender.org
mtllib door_flat.mtl
o door_flat
v -0.570000 0.000000 0.120000 0.8000 0.8000 0.8000
v -0.490000 0.000000 0.120000 0.7804 0.7804 0.7804
v -0.570000 2.270000 -0.120000 1.0000 1.0000 1.0000
v -0.570000 0.000000 -0.120000 0.8039 0.8039 0.8039
v -0.570000 2.270000 0.120000 1.0000 1.0000 1.0000
v -0.490000 2.270000 0.120000 0.8980 0.8980 0.8980
v -0.490000 2.270000 -0.120000 0.9019 0.9019 0.9019
v -0.490000 0.000000 -0.120000 0.7882 0.7882 0.7882
vn -0.0000 -0.0000 1.0000
vn -0.0000 -0.0000 -1.0000
vn -1.0000 -0.0000 -0.0000
vn 1.0000 -0.0000 -0.0000
vn -0.0000 1.0000 -0.0000
vn -0.0000 -1.0000 -0.0000
vt 0.687744 0.968994
vt 0.688828 0.968994
vt 0.688828 0.999756
vt 0.687744 0.999756
vt 0.690996 0.968994
vt 0.690996 0.999756
vt 0.692666 0.968994
vt 0.692666 0.983760
vt 0.687744 0.983760
s 0
usemtl props
f 1/1/1 2/2/1 6/3/1 5/4/1
f 8/1/2 4/2/2 3/3/2 7/4/2
f 4/1/3 1/5/3 5/6/3 3/4/3
f 2/1/4 8/5/4 7/6/4 6/4/4
f 5/1/5 6/7/5 7/8/5 3/9/5
f 4/1/6 8/7/6 2/8/6 1/9/6
o door_flat_casing_r
v 0.490000 0.000000 0.120000 0.7804 0.7804 0.7804
v 0.570000 0.000000 0.120000 0.8000 0.8000 0.8000
v 0.490000 2.270000 -0.120000 0.9019 0.9019 0.9019
v 0.490000 0.000000 -0.120000 0.7804 0.7804 0.7804
v 0.490000 2.270000 0.120000 0.9019 0.9019 0.9019
v 0.570000 2.270000 0.120000 1.0000 1.0000 1.0000
v 0.570000 2.270000 -0.120000 1.0000 1.0000 1.0000
v 0.570000 0.000000 -0.120000 0.8039 0.8039 0.8039
vn -0.0000 -0.0000 1.0000
vn -0.0000 -0.0000 -1.0000
vn -1.0000 -0.0000 -0.0000
vn 1.0000 -0.0000 -0.0000
vn -0.0000 1.0000 -0.0000
vn -0.0000 -1.0000 -0.0000
vt 0.687744 0.968994
vt 0.688828 0.968994
vt 0.688828 0.999756
vt 0.687744 0.999756
vt 0.690996 0.968994
vt 0.690996 0.999756
vt 0.692666 0.968994
vt 0.692666 0.983760
vt 0.687744 0.983760
s 0
usemtl props
f 9/10/7 10/11/7 14/12/7 13/13/7
f 16/10/8 12/11/8 11/12/8 15/13/8
f 12/10/9 9/14/9 13/15/9 11/13/9
f 10/10/10 16/14/10 15/15/10 14/13/10
f 13/10/11 14/16/11 15/17/11 11/18/11
f 12/10/12 16/16/12 10/17/12 9/18/12
o door_flat_casing_top
v -0.510000 2.190000 0.120000 0.8039 0.8039 0.8039
v 0.510000 2.190000 0.120000 0.8000 0.8000 0.8000
v -0.510000 2.260000 -0.120000 0.8000 0.8000 0.8000
v -0.510000 2.190000 -0.120000 0.8039 0.8039 0.8039
v -0.510000 2.260000 0.120000 0.8000 0.8000 0.8000
v 0.510000 2.260000 0.120000 0.8000 0.8000 0.8000
v 0.510000 2.260000 -0.120000 0.8000 0.8000 0.8000
v 0.510000 2.190000 -0.120000 0.8039 0.8039 0.8039
vn -0.0000 -0.0000 1.0000
vn -0.0000 -0.0000 -1.0000
vn -1.0000 -0.0000 -0.0000
vn 1.0000 -0.0000 -0.0000
vn -0.0000 1.0000 -0.0000
vn -0.0000 -1.0000 -0.0000
vt 0.687744 0.968994
vt 0.718506 0.968994
vt 0.718506 0.971105
vt 0.687744 0.971105
vt 0.702510 0.968994
vt 0.702510 0.973301
vt 0.687744 0.973301
vt 0.718506 0.976232
vt 0.687744 0.976232
s 0
usemtl props
f 17/19/13 18/20/13 22/21/13 21/22/13
f 24/19/14 20/20/14 19/21/14 23/22/14
f 20/19/15 17/23/15 21/24/15 19/25/15
f 18/19/16 24/23/16 23/24/16 22/25/16
f 21/19/17 22/20/17 23/26/17 19/27/17
f 20/19/18 24/20/18 18/26/18 17/27/18
o door_flat_leaf
v 0.480000 2.190000 0.022500 0.7372 0.7372 0.7372
v -0.480000 0.010000 -0.022500 0.7333 0.7333 0.7333
v -0.480000 2.190000 -0.022500 0.7372 0.7372 0.7372
v 0.480000 2.190000 -0.022500 0.7372 0.7372 0.7372
v -0.480000 0.010000 0.022500 0.7333 0.7333 0.7333
v 0.480000 0.010000 0.022500 0.7333 0.7333 0.7333
v 0.480000 0.010000 -0.022500 0.7294 0.7294 0.7294
v -0.480000 2.190000 0.022500 0.7372 0.7372 0.7372
v 0.419799 1.019799 0.052500 0.7490 0.7490 0.7490
v 0.400000 1.028000 0.072500 0.8823 0.8823 0.8823
v 0.419799 1.019799 0.072500 0.8470 0.8470 0.8470
v 0.372000 1.000000 0.052500 0.8039 0.8039 0.8039
v 0.380201 0.980201 0.072500 0.8980 0.8980 0.8980
v 0.400000 0.972000 0.052500 0.7804 0.7804 0.7804
v 0.400000 0.972000 0.072500 0.8823 0.8823 0.8823
v 0.419799 0.980201 0.052500 0.7490 0.7490 0.7490
v 0.428000 1.000000 0.072500 0.8274 0.8274 0.8274
v 0.380201 1.019799 0.072500 0.8980 0.8980 0.8980
v 0.372000 1.000000 0.072500 0.9019 0.9019 0.9019
v 0.419799 0.980201 0.072500 0.8470 0.8470 0.8470
v 0.380201 0.980201 0.052500 0.8000 0.8000 0.8000
v 0.380201 1.019799 0.052500 0.8039 0.8039 0.8039
v 0.400000 1.028000 0.052500 0.7843 0.7843 0.7843
v 0.428000 1.000000 0.052500 0.7333 0.7333 0.7333
v 0.408000 1.000000 0.047500 0.7059 0.7059 0.7059
v 0.392000 1.000000 0.047500 0.7333 0.7333 0.7333
v 0.392000 1.000000 0.067500 0.7020 0.7020 0.7020
v 0.400000 1.008000 0.067500 0.7020 0.7020 0.7020
v 0.400000 0.992000 0.067500 0.7020 0.7020 0.7020
v 0.400000 0.992000 0.047500 0.7216 0.7216 0.7216
v 0.408000 1.000000 0.067500 0.7020 0.7020 0.7020
v 0.400000 1.008000 0.047500 0.7216 0.7216 0.7216
v 0.419799 1.019799 -0.052500 0.8313 0.8313 0.8313
v 0.380201 1.019799 -0.052500 0.8862 0.8862 0.8862
v 0.400000 1.028000 -0.032500 0.7764 0.7764 0.7764
v 0.372000 1.000000 -0.032500 0.7960 0.7960 0.7960
v 0.400000 0.972000 -0.052500 0.8627 0.8627 0.8627
v 0.380201 0.980201 -0.032500 0.7921 0.7921 0.7921
v 0.400000 0.972000 -0.032500 0.7725 0.7725 0.7725
v 0.428000 1.000000 -0.052500 0.8157 0.8157 0.8157
v 0.428000 1.000000 -0.032500 0.7255 0.7255 0.7255
v 0.419799 1.019799 -0.032500 0.7451 0.7451 0.7451
v 0.380201 1.019799 -0.032500 0.7921 0.7921 0.7921
v 0.419799 0.980201 -0.032500 0.7412 0.7412 0.7412
v 0.419799 0.980201 -0.052500 0.8274 0.8274 0.8274
v 0.380201 0.980201 -0.052500 0.8823 0.8823 0.8823
v 0.372000 1.000000 -0.052500 0.8902 0.8902 0.8902
v 0.400000 1.028000 -0.052500 0.8666 0.8666 0.8666
v 0.408000 1.000000 -0.047500 0.7020 0.7020 0.7020
v 0.400000 1.008000 -0.047500 0.7020 0.7020 0.7020
v 0.392000 1.000000 -0.027500 0.7333 0.7333 0.7333
v 0.400000 1.008000 -0.027500 0.7216 0.7216 0.7216
v 0.400000 0.992000 -0.027500 0.7137 0.7137 0.7137
v 0.408000 1.000000 -0.027500 0.7098 0.7098 0.7098
v 0.400000 0.992000 -0.047500 0.7020 0.7020 0.7020
v 0.392000 1.000000 -0.047500 0.7020 0.7020 0.7020
v 0.440000 1.450080 0.038499 0.8509 0.8509 0.8509
v 0.434053 1.450793 0.032489 0.8274 0.8274 0.8274
v 0.420000 1.300044 0.040500 0.8941 0.8941 0.8941
v 0.440000 1.449920 0.026501 0.7451 0.7451 0.7451
v 0.445947 1.449207 0.032511 0.7647 0.7647 0.7647
v 0.414004 1.300222 0.034498 0.8509 0.8509 0.8509
v 0.430000 1.180000 0.040500 0.8549 0.8549 0.8549
v 0.420000 1.299956 0.028500 0.7255 0.7255 0.7255
v 0.424021 1.179502 0.034500 0.8313 0.8313 0.8313
v 0.430000 1.180000 0.028500 0.7490 0.7490 0.7490
v 0.425996 1.299778 0.034502 0.7608 0.7608 0.7608
v 0.435979 1.180498 0.034500 0.7686 0.7686 0.7686
vn -0.0000 -0.0000 1.0000
vn -0.0000 -0.0000 -1.0000
vn -1.0000 -0.0000 -0.0000
vn 1.0000 -0.0000 -0.0000
vn -0.0000 1.0000 -0.0000
vn -0.0000 -1.0000 -0.0000
vn 0.7071 0.7071 -0.0000
vn -0.7071 0.7071 -0.0000
vn -0.7071 -0.7071 -0.0000
vn 0.7071 -0.7071 -0.0000
vn -0.7015 0.1029 0.7052
vn -0.7060 0.0226 0.7078
vn -0.7060 0.0218 0.7078
vn -0.7019 0.0841 -0.7073
vn -0.7058 0.0123 -0.7083
vn -0.7057 0.0132 -0.7084
vn 0.7015 -0.1030 -0.7052
vn 0.7060 -0.0217 -0.7079
vn 0.7060 -0.0225 -0.7079
vn 0.7019 -0.0842 0.7073
vn 0.7057 -0.0131 0.7084
vn 0.7057 -0.0123 0.7084
vn -0.7059 -0.0587 0.7059
vn -0.7060 -0.0587 -0.7058
vn 0.7059 0.0590 -0.7059
vn 0.7060 0.0589 0.7058
vn 0.1322 0.9911 -0.0132
vn 0.0830 -0.9965 -0.0000
vt 0.562744 0.937744
vt 0.593506 0.937744
vt 0.593506 0.999756
vt 0.562744 0.999756
vt 0.687744 0.968994
vt 0.688379 0.968994
vt 0.688379 0.999756
vt 0.687744 0.999756
vt 0.718506 0.968994
vt 0.718506 0.970436
vt 0.687744 0.970436
vt 0.781494 0.984619
vt 0.783386 0.984619
vt 0.783386 0.999756
vt 0.781494 0.999756
vt 0.785278 0.984619
vt 0.785278 0.999756
vt 0.787170 0.984619
vt 0.787170 0.999756
vt 0.789062 0.984619
vt 0.789062 0.999756
vt 0.790955 0.984619
vt 0.790955 0.999756
vt 0.792847 0.984619
vt 0.792847 0.999756
vt 0.794739 0.984619
vt 0.794739 0.999756
vt 0.796631 0.984619
vt 0.796631 0.999756
vt 0.796631 0.992188
vt 0.794414 0.997539
vt 0.783711 0.997539
vt 0.781494 0.992188
vt 0.783711 0.986836
vt 0.794414 0.986836
vt 0.906494 0.984619
vt 0.910278 0.984619
vt 0.910278 0.992188
vt 0.906494 0.992188
vt 0.914062 0.984619
vt 0.914062 0.992188
vt 0.917847 0.984619
vt 0.917847 0.992188
vt 0.921631 0.984619
vt 0.921631 0.992188
vt 0.910278 0.999756
vt 0.906494 0.999756
vt 0.914062 0.999756
vt 0.917847 0.999756
vt 0.921631 0.999756
vt 0.921631 0.992174
vt 0.906494 0.992201
s 0
usemtl props
f 29/28/19 30/29/19 25/30/19 32/31/19
f 31/28/20 26/29/20 27/30/20 28/31/20
f 26/32/21 29/33/21 32/34/21 27/35/21
f 30/32/22 31/33/22 28/34/22 25/35/22
f 32/32/23 25/36/23 28/37/23 27/38/23
f 26/32/24 31/36/24 30/37/24 29/38/24
s 1
f 48/39/22 33/40/25 35/41/25 41/42/22
f 33/40/25 47/43/23 34/44/23 35/41/25
f 47/43/23 46/45/26 42/46/26 34/44/23
f 46/45/26 36/47/21 43/48/21 42/46/26
f 36/47/21 45/49/27 37/50/27 43/48/21
f 45/49/27 38/51/24 39/52/24 37/50/27
f 38/51/24 40/53/28 44/54/28 39/52/24
f 40/53/28 48/55/22 41/56/22 44/54/28
s 0
f 41/57/19 35/58/19 34/48/19 42/59/19 43/60/19 37/61/19 39/47/19 44/62/19
f 40/58/20 38/48/20 45/59/20 36/60/20 46/61/20 47/47/20 33/62/20 48/57/20
s 1
f 49/39/25 56/43/25 52/44/25 55/42/25
f 56/43/26 50/47/26 51/48/26 52/44/26
f 50/47/27 54/51/27 53/52/27 51/48/27
f 54/51/28 49/55/28 55/56/28 53/52/28
s 0
f 55/57/19 52/48/19 51/60/19 53/47/19
f 54/48/20 50/60/20 56/47/20 49/57/20
s 1
f 64/39/22 57/40/25 66/41/25 65/42/22
f 57/40/25 72/43/23 59/44/23 66/41/25
f 72/43/23 58/45/26 67/46/26 59/44/23
f 58/45/26 71/47/21 60/48/21 67/46/26
f 71/47/21 70/49/27 62/50/27 60/48/21
f 70/49/27 61/51/24 63/52/24 62/50/27
f 61/51/24 69/53/28 68/54/28 63/52/24
f 69/53/28 64/55/22 65/56/22 68/54/28
s 0
f 65/57/19 66/58/19 59/48/19 67/59/19 60/60/19 62/61/19 63/47/19 68/62/19
f 69/58/20 61/48/20 70/59/20 71/60/20 58/61/20 72/47/20 57/62/20 64/57/20
s 1
f 73/39/25 74/43/25 76/44/25 78/42/25
f 74/43/26 80/47/26 75/48/26 76/44/26
f 80/47/27 79/51/27 77/52/27 75/48/27
f 79/51/28 73/55/28 78/56/28 77/52/28
s 0
f 78/57/19 76/48/19 75/60/19 77/47/19
f 79/48/20 80/60/20 74/47/20 73/57/20
s 1
f 81/63/29 82/64/29 86/65/30 83/66/31
f 82/64/32 84/67/32 88/68/33 86/65/34
f 84/67/35 85/69/35 91/70/36 88/68/37
f 85/69/38 81/71/38 83/72/39 91/70/40
f 83/66/31 86/65/30 89/73/41 87/74/41
f 86/65/34 88/68/33 90/75/42 89/73/42
f 88/68/37 91/70/36 92/76/43 90/75/43
f 91/70/40 83/72/39 87/77/44 92/76/44
s 0
f 85/78/45 84/75/45 82/79/45 81/67/45
f 87/75/46 89/66/46 90/67/46 92/72/46
