# Blender 4.5.14 LTS
# www.blender.org
mtllib kitchen_sink.mtl
o kitchen_sink
v -0.500000 0.860000 0.020000 0.7529 0.7529 0.7529
v 0.500000 0.100000 0.040000 0.8000 0.8000 0.8000
v 0.500000 0.100000 0.020000 0.7843 0.7843 0.7843
v -0.500000 0.860000 0.040000 0.7647 0.7647 0.7647
v 0.500000 0.860000 0.040000 0.7647 0.7647 0.7647
v 0.500000 0.860000 0.020000 0.7529 0.7529 0.7529
v -0.500000 0.100000 0.020000 0.7804 0.7804 0.7804
v -0.500000 0.100000 0.040000 0.8000 0.8000 0.8000
v -0.480000 0.120000 0.040050 0.7764 0.7764 0.7764
v 0.480000 0.120000 0.040050 0.7804 0.7804 0.7804
v 0.480000 0.840000 0.040050 0.7333 0.7333 0.7333
v -0.480000 0.840000 0.040050 0.7294 0.7294 0.7294
v -0.500000 0.100000 0.600000 0.9725 0.9725 0.9725
v -0.500000 0.120000 0.600000 0.8431 0.8431 0.8431
v -0.500000 0.120000 0.040000 0.7568 0.7568 0.7568
v 0.500000 0.120000 0.040000 0.7529 0.7529 0.7529
v 0.500000 0.100000 0.600000 0.9647 0.9647 0.9647
v 0.500000 0.840000 0.600000 0.8392 0.8392 0.8392
v 0.500000 0.860000 0.600000 0.8353 0.8353 0.8353
v -0.500000 0.840000 0.040000 0.7568 0.7568 0.7568
v -0.500000 0.840000 0.600000 0.8431 0.8431 0.8431
v -0.500000 0.860000 0.600000 0.8392 0.8392 0.8392
v -0.480000 0.120000 0.040000 0.7255 0.7255 0.7255
v -0.480000 0.120000 0.600000 0.7255 0.7255 0.7255
v -0.480000 0.840000 0.600000 0.7098 0.7098 0.7098
v -0.480000 0.840000 0.040000 0.7059 0.7059 0.7059
v 0.480000 0.840000 0.600000 0.7098 0.7098 0.7098
v 0.500000 0.120000 0.600000 0.8392 0.8392 0.8392
v 0.500000 0.840000 0.040000 0.7529 0.7529 0.7529
v 0.480000 0.840000 0.040000 0.7059 0.7059 0.7059
v 0.480000 0.120000 0.040000 0.7255 0.7255 0.7255
v 0.480000 0.120000 0.600000 0.7255 0.7255 0.7255
v -0.480000 0.000000 0.540000 0.9921 0.9921 0.9921
v -0.480000 0.000000 0.020000 0.8039 0.8039 0.8039
v -0.480000 0.100000 0.020000 0.7294 0.7294 0.7294
v -0.480000 0.100000 0.540000 0.8039 0.8039 0.8039
v 0.480000 0.100000 0.020000 0.7294 0.7294 0.7294
v 0.480000 0.100000 0.540000 0.8000 0.8000 0.8000
v 0.480000 0.000000 0.020000 0.8039 0.8039 0.8039
v 0.480000 0.000000 0.540000 0.9882 0.9882 0.9882
v -0.400000 0.860000 0.610000 0.8274 0.8274 0.8274
v -0.400000 0.900000 0.610000 0.9647 0.9647 0.9647
v -0.500000 0.900000 0.610000 1.0000 1.0000 1.0000
v -0.500000 0.860000 -0.010000 0.7804 0.7804 0.7804
v -0.500000 0.900000 -0.010000 0.7764 0.7764 0.7764
v -0.400000 0.900000 -0.010000 0.7020 0.7020 0.7020
v -0.400000 0.860000 -0.010000 0.7059 0.7059 0.7059
v -0.500000 0.860000 0.610000 0.9490 0.9490 0.9490
v 0.500000 0.860000 -0.010000 0.7764 0.7764 0.7764
v 0.400000 0.900000 -0.010000 0.7020 0.7020 0.7020
v 0.500000 0.900000 -0.010000 0.7725 0.7725 0.7725
v 0.400000 0.860000 -0.010000 0.7059 0.7059 0.7059
v 0.500000 0.860000 0.610000 0.9451 0.9451 0.9451
v 0.500000 0.900000 0.610000 0.9960 0.9960 0.9960
v 0.400000 0.900000 0.610000 0.9607 0.9607 0.9607
v 0.400000 0.860000 0.610000 0.8313 0.8313 0.8313
v 0.400000 0.732000 0.010000 0.7098 0.7098 0.7098
v -0.400000 0.732000 0.550000 0.7020 0.7020 0.7020
v -0.400000 0.732000 0.010000 0.7098 0.7098 0.7098
v 0.400000 0.720000 0.550000 0.7372 0.7372 0.7372
v 0.400000 0.720000 0.010000 0.7137 0.7137 0.7137
v 0.400000 0.732000 0.550000 0.7059 0.7059 0.7059
v -0.400000 0.720000 0.550000 0.7372 0.7372 0.7372
v -0.388000 0.732050 0.538000 0.7059 0.7059 0.7059
v 0.388000 0.732050 0.538000 0.7059 0.7059 0.7059
v 0.388000 0.732050 0.022000 0.7020 0.7020 0.7020
v -0.388000 0.732050 0.022000 0.7020 0.7020 0.7020
v -0.400000 0.900000 0.550000 0.8431 0.8431 0.8431
v 0.400000 0.900000 0.538000 0.8000 0.8000 0.8000
v 0.400000 0.900000 0.550000 0.8431 0.8431 0.8431
v -0.400000 0.900000 0.010000 0.7020 0.7020 0.7020
v 0.400000 0.900000 0.010000 0.7020 0.7020 0.7020
v -0.400000 0.720000 0.010000 0.7137 0.7137 0.7137
v -0.400000 0.720000 0.022000 0.7020 0.7020 0.7020
v 0.400000 0.900000 0.022000 0.7490 0.7490 0.7490
v -0.400000 0.720000 0.538000 0.7372 0.7372 0.7372
v -0.388000 0.720000 0.538000 0.7372 0.7372 0.7372
v -0.388000 0.900000 0.538000 0.8470 0.8470 0.8470
v -0.400000 0.900000 0.538000 0.8000 0.8000 0.8000
v -0.388000 0.720000 0.022000 0.7020 0.7020 0.7020
v -0.388000 0.900000 0.022000 0.7529 0.7529 0.7529
v -0.400000 0.900000 0.022000 0.7490 0.7490 0.7490
v 0.388000 0.900000 0.022000 0.7529 0.7529 0.7529
v 0.388000 0.900000 0.538000 0.8431 0.8431 0.8431
v 0.400000 0.720000 0.022000 0.7020 0.7020 0.7020
v 0.388000 0.720000 0.022000 0.7020 0.7020 0.7020
v 0.400000 0.720000 0.538000 0.7372 0.7372 0.7372
v 0.388000 0.720000 0.538000 0.7333 0.7333 0.7333
v 0.400000 0.900000 0.065000 0.7568 0.7568 0.7568
v 0.400000 0.860000 -0.005000 0.7059 0.7059 0.7059
v 0.400000 0.900000 -0.005000 0.7020 0.7020 0.7020
v -0.400000 0.860000 -0.005000 0.7059 0.7059 0.7059
v -0.400000 0.900000 -0.005000 0.7020 0.7020 0.7020
v 0.400000 0.860000 0.065000 0.7020 0.7020 0.7020
v -0.400000 0.900000 0.065000 0.7568 0.7568 0.7568
v -0.400000 0.860000 0.065000 0.7020 0.7020 0.7020
v 0.400000 0.900000 0.590000 0.8745 0.8745 0.8745
v -0.400000 0.900000 0.590000 0.8745 0.8745 0.8745
v 0.400000 0.860000 0.570000 0.7059 0.7059 0.7059
v -0.400000 0.900000 0.570000 0.8470 0.8470 0.8470
v -0.400000 0.860000 0.570000 0.7059 0.7059 0.7059
v 0.400000 0.900000 0.570000 0.8470 0.8470 0.8470
v 0.400000 0.860000 0.590000 0.7372 0.7372 0.7372
v -0.400000 0.860000 0.590000 0.7372 0.7372 0.7372
v -0.012000 1.150000 0.040000 0.7960 0.7960 0.7960
v 0.009708 1.146198 0.045941 0.8235 0.8235 0.8235
v -0.003708 1.156152 0.030387 0.7921 0.7921 0.7921
v 0.011413 0.900000 0.036292 0.7137 0.7137 0.7137
v 0.000000 0.900000 0.028000 0.7098 0.7098 0.7098
v -0.003708 1.139792 0.194896 0.7804 0.7804 0.7804
v -0.003708 1.143848 0.049613 0.8078 0.8078 0.8078
v 0.009708 1.143691 0.196846 0.7764 0.7764 0.7764
v 0.009708 1.153802 0.034059 0.8392 0.8392 0.8392
v 0.009708 1.156309 0.203154 0.8745 0.8745 0.8745
v -0.007053 1.070000 0.190292 0.7451 0.7451 0.7451
v 0.007053 1.070000 0.190292 0.7843 0.7843 0.7843
v -0.003708 1.160208 0.205104 0.9294 0.9294 0.9294
v -0.012000 1.150000 0.200000 0.8941 0.8941 0.8941
v 0.000000 1.070000 0.212000 0.8470 0.8470 0.8470
v 0.011413 1.070000 0.203708 0.8509 0.8509 0.8509
v 0.007053 0.900000 0.049708 0.7608 0.7608 0.7608
v -0.007053 0.900000 0.049708 0.7960 0.7960 0.7960
v -0.011413 0.900000 0.036292 0.7608 0.7608 0.7608
v -0.011413 1.070000 0.203708 0.7882 0.7882 0.7882
v -0.090000 0.950000 0.022679 0.7529 0.7529 0.7529
v -0.080000 0.950000 0.040000 0.7960 0.7960 0.7960
v -0.110000 0.900000 0.022679 0.7137 0.7137 0.7137
v -0.120000 0.900000 0.040000 0.7529 0.7529 0.7529
v -0.120000 0.950000 0.040000 0.8117 0.8117 0.8117
v -0.110000 0.950000 0.022679 0.7647 0.7647 0.7647
v -0.110000 0.950000 0.057321 0.8549 0.8549 0.8549
v -0.090000 0.950000 0.057321 0.8509 0.8509 0.8509
v -0.090000 0.900000 0.057321 0.7921 0.7921 0.7921
v -0.110000 0.900000 0.057321 0.7921 0.7921 0.7921
v -0.090000 0.900000 0.022679 0.7059 0.7059 0.7059
v -0.080000 0.900000 0.040000 0.7451 0.7451 0.7451
v 0.120000 0.950000 0.040000 0.8157 0.8157 0.8157
v 0.110000 0.900000 0.022679 0.7098 0.7098 0.7098
v 0.090000 0.900000 0.022679 0.7098 0.7098 0.7098
v 0.090000 0.950000 0.022679 0.7529 0.7529 0.7529
v 0.090000 0.900000 0.057321 0.7882 0.7882 0.7882
v 0.090000 0.950000 0.057321 0.8549 0.8549 0.8549
v 0.110000 0.900000 0.057321 0.7921 0.7921 0.7921
v 0.120000 0.900000 0.040000 0.7568 0.7568 0.7568
v 0.110000 0.950000 0.057321 0.8549 0.8549 0.8549
v 0.110000 0.950000 0.022679 0.7608 0.7608 0.7608
v 0.080000 0.950000 0.040000 0.7960 0.7960 0.7960
v 0.080000 0.900000 0.040000 0.7412 0.7412 0.7412
v -0.500000 0.900000 0.020000 0.8000 0.8000 0.8000
v -0.500000 0.900000 0.000000 0.7529 0.7529 0.7529
v -0.500000 1.000000 0.020000 0.8823 0.8823 0.8823
v 0.500000 0.900000 0.020000 0.8039 0.8039 0.8039
v 0.500000 1.000000 0.020000 0.8823 0.8823 0.8823
v 0.500000 1.000000 0.000000 0.7960 0.7960 0.7960
v -0.500000 1.000000 0.000000 0.8000 0.8000 0.8000
v 0.500000 0.900000 0.000000 0.7490 0.7490 0.7490
v -0.490000 0.110000 0.620000 0.9764 0.9764 0.9764
v -0.010000 0.110000 0.620000 0.9411 0.9411 0.9411
v -0.010000 0.850000 0.620000 0.9215 0.9215 0.9215
v -0.490000 0.850000 0.620000 0.9529 0.9529 0.9529
v -0.010000 0.850000 0.600000 0.7764 0.7764 0.7764
v -0.490000 0.850000 0.600000 0.7647 0.7647 0.7647
v -0.490000 0.110000 0.600000 0.8039 0.8039 0.8039
v -0.010000 0.110000 0.600000 0.7804 0.7804 0.7804
v -0.120000 0.760000 0.640000 0.9058 0.9058 0.9058
v -0.020000 0.780000 0.640000 0.9098 0.9098 0.9098
v -0.120000 0.780000 0.620000 0.8000 0.8000 0.8000
v -0.020000 0.780000 0.620000 0.7882 0.7882 0.7882
v -0.020000 0.760000 0.620000 0.7921 0.7921 0.7921
v -0.120000 0.780000 0.640000 0.9137 0.9137 0.9137
v -0.120000 0.760000 0.620000 0.8000 0.8000 0.8000
v -0.020000 0.760000 0.640000 0.9058 0.9058 0.9058
vn -0.0000 -0.0000 -1.0000
vn -1.0000 -0.0000 -0.0000
vn 1.0000 -0.0000 -0.0000
vn -0.0000 1.0000 -0.0000
vn -0.0000 -1.0000 -0.0000
vn -0.0000 -0.0000 1.0000
vn -0.9852 0.0002 -0.1716
vn -0.9024 -0.4212 -0.0907
vn -0.9387 -0.3262 -0.1120
vn -0.4814 0.0069 0.8765
vn 0.6427 0.0048 0.7661
vn 0.8837 0.0018 -0.4681
vn -0.0695 0.0083 -0.9976
vn -0.9248 -0.3589 0.1266
vn -0.8738 -0.4785 0.0863
vn 0.2255 -0.9740 -0.0216
vn 0.2279 0.9735 -0.0186
vn -0.7035 0.7107 -0.0086
vn -0.9745 0.0033 0.2245
vn -0.5528 0.0812 -0.8293
vn 0.3543 0.0702 -0.9325
vn 0.8635 0.0203 0.5039
vn 0.1184 0.0805 0.9897
vn 0.8660 -0.0000 -0.5000
vn -0.8660 -0.0000 -0.5000
vn -0.8660 -0.0000 0.5000
vn 0.8660 -0.0000 0.5000
vt 0.718994 0.968994
vt 0.749756 0.968994
vt 0.749756 0.992373
vt 0.718994 0.992373
vt 0.719804 0.968994
vt 0.719804 0.999756
vt 0.718994 0.999756
vt 0.749756 0.969609
vt 0.718994 0.969609
vt 0.687744 0.968994
vt 0.718506 0.968994
vt 0.718506 0.992065
vt 0.687744 0.992065
vt 0.749756 0.970093
vt 0.718994 0.970093
vt 0.718506 0.986221
vt 0.687744 0.986221
vt 0.749756 0.986221
vt 0.718994 0.986221
vt 0.719849 0.968994
vt 0.719849 0.999756
vt 0.742920 0.968994
vt 0.742920 0.999756
vt 0.711670 0.968994
vt 0.711670 0.999756
vt 0.687744 0.999756
vt 0.720093 0.968994
vt 0.720093 0.999756
vt 0.750244 0.984619
vt 0.765381 0.984619
vt 0.765381 0.986196
vt 0.750244 0.986196
vt 0.765381 0.987530
vt 0.750244 0.987530
vt 0.765381 0.992818
vt 0.750244 0.992818
vt 0.828369 0.984619
vt 0.834424 0.984619
vt 0.834424 0.987041
vt 0.828369 0.987041
vt 0.843506 0.984619
vt 0.843506 0.985596
vt 0.828369 0.985596
vt 0.830811 0.984619
vt 0.830811 0.999756
vt 0.828369 0.999756
vt 0.906494 0.984619
vt 0.921631 0.984619
vt 0.921631 0.984846
vt 0.906494 0.984846
vt 0.921631 0.984955
vt 0.906494 0.984955
vt 0.921631 0.994836
vt 0.906494 0.994836
vt 0.921631 0.994684
vt 0.906494 0.994684
vt 0.921631 0.988025
vt 0.906494 0.988025
vt 0.907221 0.984619
vt 0.907221 0.995518
vt 0.906494 0.995518
vt 0.921631 0.989899
vt 0.906494 0.989899
vt 0.906846 0.984619
vt 0.906846 0.999756
vt 0.906494 0.999756
vt 0.921631 0.985376
vt 0.906494 0.985376
vt 0.910732 0.984619
vt 0.910732 0.987041
vt 0.906494 0.987041
vt 0.921631 0.985944
vt 0.906494 0.985944
vt 0.907705 0.984619
vt 0.907705 0.987041
vt 0.921631 0.984998
vt 0.906494 0.984998
vt 0.812744 0.984619
vt 0.815771 0.984619
vt 0.815771 0.989665
vt 0.812744 0.989665
vt 0.818799 0.984619
vt 0.818799 0.989665
vt 0.821826 0.984619
vt 0.821826 0.989665
vt 0.824854 0.984619
vt 0.824854 0.989665
vt 0.827881 0.984619
vt 0.827881 0.989665
vt 0.815771 0.994710
vt 0.812744 0.994710
vt 0.818799 0.994710
vt 0.821826 0.994710
vt 0.824854 0.994710
vt 0.827881 0.994710
vt 0.815771 0.999756
vt 0.812744 0.999756
vt 0.818799 0.999756
vt 0.821826 0.999756
vt 0.824854 0.999756
vt 0.827881 0.999756
vt 0.827881 0.990401
vt 0.824990 0.999756
vt 0.815635 0.999756
vt 0.812744 0.990401
vt 0.820312 0.984619
vt 0.820312 0.999756
vt 0.812744 0.993974
vt 0.815635 0.984619
vt 0.824990 0.984619
vt 0.827881 0.993974
vt 0.815267 0.984619
vt 0.815267 0.999756
vt 0.817790 0.984619
vt 0.817790 0.999756
vt 0.822835 0.984619
vt 0.822835 0.999756
vt 0.825358 0.984619
vt 0.825358 0.999756
vt 0.906006 0.992188
vt 0.902222 0.999756
vt 0.894653 0.999756
vt 0.890869 0.992188
vt 0.894653 0.984619
vt 0.902222 0.984619
vt 0.824097 0.999756
vt 0.816528 0.999756
vt 0.812744 0.992188
vt 0.816528 0.984619
vt 0.824097 0.984619
vt 0.827881 0.992188
vt 0.843506 0.986133
vt 0.828369 0.986133
vt 0.829580 0.984619
vt 0.829580 0.990674
vt 0.828369 0.990674
vt 0.843506 0.984922
vt 0.828369 0.984922
vt 0.797119 0.984619
vt 0.812256 0.984619
vt 0.812256 0.999756
vt 0.797119 0.999756
vt 0.738948 0.968994
vt 0.738948 0.999756
vt 0.719826 0.968994
vt 0.719826 0.999756
vt 0.748525 0.968994
vt 0.748525 0.970225
vt 0.718994 0.970225
vt 0.693896 0.968994
vt 0.693896 0.970225
vt 0.687744 0.970225
vt 0.688975 0.968994
vt 0.688975 0.970225
s 0
usemtl props
f 3/1/1 7/2/1 1/3/1 6/4/1
f 7/1/2 8/5/2 4/6/2 1/7/2
f 2/1/3 3/5/3 6/6/3 5/7/3
f 4/1/4 5/2/4 6/8/4 1/9/4
f 7/1/5 3/2/5 2/8/5 8/9/5
f 9/10/6 10/11/6 11/12/6 12/13/6
f 13/1/6 17/2/6 28/8/6 14/9/6
f 2/1/1 8/2/1 15/8/1 16/9/1
f 8/1/2 13/2/2 14/14/2 15/15/2
f 17/1/3 2/2/3 16/14/3 28/15/3
f 14/10/4 28/11/4 16/16/4 15/17/4
f 8/1/5 2/2/5 17/18/5 13/19/5
f 21/1/6 18/2/6 19/8/6 22/9/6
f 29/1/1 20/2/1 4/8/1 5/9/1
f 20/1/2 21/2/2 22/14/2 4/15/2
f 18/1/3 29/2/3 5/14/3 19/15/3
f 22/1/4 19/2/4 5/18/4 4/19/4
f 20/10/5 29/11/5 18/16/5 21/17/5
f 14/1/6 24/20/6 25/21/6 21/7/6
f 23/1/1 15/20/1 20/21/1 26/7/1
f 15/1/2 14/22/2 21/23/2 20/7/2
f 24/10/3 23/24/3 26/25/3 25/26/3
f 21/1/4 25/27/4 26/28/4 20/7/4
f 15/1/5 23/27/5 24/28/5 14/7/5
f 32/1/6 28/20/6 18/21/6 27/7/6
f 16/1/1 31/20/1 30/21/1 29/7/1
f 31/10/2 32/24/2 27/25/2 30/26/2
f 28/1/3 16/22/3 29/23/3 18/7/3
f 27/1/4 18/27/4 29/28/4 30/7/4
f 31/1/5 16/27/5 28/28/5 32/7/5
f 33/29/6 40/30/6 38/31/6 36/32/6
f 39/29/1 34/30/1 35/31/1 37/32/1
f 34/29/2 33/30/2 36/33/2 35/34/2
f 40/29/3 39/30/3 37/33/3 38/34/3
f 36/29/4 38/30/4 37/35/4 35/36/4
f 34/29/5 39/30/5 40/35/5 33/36/5
f 48/37/6 41/38/6 42/39/6 43/40/6
f 47/37/1 44/38/1 45/39/1 46/40/1
f 44/37/2 48/41/2 43/42/2 45/43/2
f 41/37/3 47/41/3 46/42/3 42/43/3
f 43/37/4 42/44/4 46/45/4 45/46/4
f 44/37/5 47/44/5 41/45/5 48/46/5
f 56/37/6 53/38/6 54/39/6 55/40/6
f 49/37/1 52/38/1 50/39/1 51/40/1
f 52/37/2 56/41/2 55/42/2 50/43/2
f 53/37/3 49/41/3 51/42/3 54/43/3
f 55/37/4 54/44/4 51/45/4 50/46/4
f 52/37/5 49/44/5 53/45/5 56/46/5
f 63/47/6 60/48/6 62/49/6 58/50/6
f 61/47/1 73/48/1 59/49/1 57/50/1
f 73/47/2 63/48/2 58/51/2 59/52/2
f 60/47/3 61/48/3 57/51/3 62/52/3
f 73/47/5 61/48/5 60/53/5 63/54/5
f 64/47/4 65/48/4 66/55/4 67/56/4
f 63/47/6 60/48/6 70/57/6 68/58/6
f 87/47/1 76/48/1 79/57/1 69/58/1
f 76/47/2 63/59/2 68/60/2 79/61/2
f 60/47/3 87/59/3 69/60/3 70/61/3
f 68/47/4 70/48/4 69/49/4 79/50/4
f 76/47/5 87/48/5 60/49/5 63/50/5
f 74/47/6 85/48/6 75/57/6 82/58/6
f 61/47/1 73/48/1 71/57/1 72/58/1
f 73/47/2 74/59/2 82/60/2 71/61/2
f 85/47/3 61/59/3 72/60/3 75/61/3
f 82/47/4 75/48/4 72/49/4 71/50/4
f 73/47/5 61/48/5 85/49/5 74/50/5
f 76/47/6 77/59/6 78/60/6 79/61/6
f 80/47/1 74/59/1 82/60/1 81/61/1
f 74/47/2 76/48/2 79/62/2 82/63/2
f 77/47/3 80/48/3 81/62/3 78/63/3
f 79/47/4 78/64/4 81/65/4 82/66/4
f 74/47/5 80/64/5 77/65/5 76/66/5
f 88/47/6 87/59/6 69/60/6 84/61/6
f 85/47/1 86/59/1 83/60/1 75/61/1
f 86/47/2 88/48/2 84/62/2 83/63/2
f 87/47/3 85/48/3 75/62/3 69/63/3
f 84/47/4 69/64/4 75/65/4 83/66/4
f 86/47/5 85/64/5 87/65/5 88/66/5
f 96/47/6 94/48/6 89/67/6 95/68/6
f 90/47/1 92/48/1 93/67/1 91/68/1
f 92/47/2 96/69/2 95/70/2 93/71/2
f 94/47/3 90/69/3 91/70/3 89/71/3
f 95/47/4 89/48/4 91/72/4 93/73/4
f 92/47/5 90/48/5 94/72/5 96/73/5
f 104/47/6 103/48/6 97/67/6 98/68/6
f 99/47/1 101/48/1 100/67/1 102/68/1
f 101/47/2 104/74/2 98/75/2 100/71/2
f 103/47/3 99/74/3 102/75/3 97/71/3
f 98/47/4 97/48/4 102/76/4 100/77/4
f 101/47/5 99/48/5 103/76/5 104/77/5
s 1
f 109/78/7 123/79/7 111/80/8 105/81/9
f 123/79/10 122/82/10 106/83/10 111/80/10
f 122/82/11 121/84/11 113/85/11 106/83/11
f 121/84/12 108/86/12 107/87/12 113/85/12
f 108/86/13 109/88/13 105/89/13 107/87/13
f 105/81/9 111/80/8 110/90/14 118/91/15
f 111/80/16 106/83/16 112/92/16 110/90/16
f 106/83/3 113/85/3 114/93/3 112/92/3
f 113/85/17 107/87/17 117/94/17 114/93/17
f 107/87/18 105/89/18 118/95/18 117/94/18
f 118/91/15 110/90/14 124/96/19 119/97/19
f 110/90/20 112/92/20 115/98/20 124/96/20
f 112/92/21 114/93/21 116/99/21 115/98/21
f 114/93/22 117/94/22 120/100/22 116/99/22
f 117/94/23 118/95/23 119/101/23 120/100/23
s 0
f 108/102/5 121/103/5 122/104/5 123/105/5 109/106/5
f 119/107/5 124/108/5 115/109/5 116/110/5 120/111/5
s 1
f 136/78/24 135/112/24 125/113/24 126/97/24
f 135/112/1 127/114/1 130/115/1 125/113/1
f 127/114/25 128/106/25 129/107/25 130/115/25
f 128/106/26 134/116/26 131/117/26 129/107/26
f 134/116/6 133/118/6 132/119/6 131/117/6
f 133/118/27 136/88/27 126/101/27 132/119/27
s 0
f 126/120/4 125/121/4 130/122/4 129/123/4 131/124/4 132/125/4
f 133/126/5 134/127/5 128/128/5 127/129/5 135/130/5 136/131/5
s 1
f 144/78/24 138/112/24 146/113/24 137/97/24
f 138/112/1 139/114/1 140/115/1 146/113/1
f 139/114/25 148/106/25 147/107/25 140/115/25
f 148/106/26 141/116/26 142/117/26 147/107/26
f 141/116/6 143/118/6 145/119/6 142/117/6
f 143/118/27 144/88/27 137/101/27 145/119/27
s 0
f 137/131/4 146/126/4 140/127/4 147/128/4 142/129/4 145/130/4
f 143/126/5 141/127/5 148/128/5 139/129/5 138/130/5 144/131/5
f 149/37/6 152/41/6 153/132/6 151/133/6
f 156/37/1 150/41/1 155/132/1 154/133/1
f 150/37/2 149/134/2 151/135/2 155/136/2
f 152/37/3 156/134/3 154/135/3 153/136/3
f 151/37/4 153/41/4 154/137/4 155/138/4
f 150/37/5 156/41/5 152/137/5 149/138/5
f 157/139/6 158/140/6 159/141/6 160/142/6
f 164/1/1 163/143/1 162/144/1 161/7/1
f 163/1/2 157/145/2 160/146/2 162/7/2
f 158/1/3 164/145/3 161/146/3 159/7/3
f 160/1/4 159/147/4 161/148/4 162/149/4
f 163/1/5 164/147/5 158/148/5 157/149/5
f 165/10/6 172/150/6 166/151/6 170/152/6
f 169/10/1 171/150/1 167/151/1 168/152/1
f 171/10/2 165/153/2 170/154/2 167/152/2
f 172/10/3 169/153/3 168/154/3 166/152/3
f 170/10/4 166/150/4 168/151/4 167/152/4
f 171/10/5 169/150/5 172/151/5 165/152/5
o kitchen_sink_door
v 0.010000 0.110000 0.620000 0.7020 0.7020 0.7020
v 0.490000 0.110000 0.600000 0.7020 0.7020 0.7020
v 0.010000 0.110000 0.600000 0.7020 0.7020 0.7020
v 0.490000 0.850000 0.620000 0.7020 0.7020 0.7020
v 0.010000 0.850000 0.620000 0.7020 0.7020 0.7020
v 0.010000 0.850000 0.600000 0.7020 0.7020 0.7020
v 0.490000 0.850000 0.600000 0.7020 0.7020 0.7020
v 0.490000 0.110000 0.620000 0.7020 0.7020 0.7020
v 0.020000 0.760000 0.640000 0.9098 0.9098 0.9098
v 0.020000 0.760000 0.620000 0.7921 0.7921 0.7921
v 0.020000 0.780000 0.640000 0.9137 0.9137 0.9137
v 0.120000 0.760000 0.620000 0.7960 0.7960 0.7960
v 0.120000 0.780000 0.620000 0.7960 0.7960 0.7960
v 0.120000 0.780000 0.640000 0.9098 0.9098 0.9098
v 0.020000 0.780000 0.620000 0.7921 0.7921 0.7921
v 0.120000 0.760000 0.640000 0.9019 0.9019 0.9019
vn -0.0000 -0.0000 -1.0000
vn -0.0000 -0.0000 1.0000
vn -1.0000 -0.0000 -0.0000
vn 1.0000 -0.0000 -0.0000
vn -0.0000 -1.0000 -0.0000
vn -0.0000 1.0000 -0.0000
vt 0.797119 0.984619
vt 0.812256 0.984619
vt 0.812256 0.999756
vt 0.797119 0.999756
vt 0.718994 0.968994
vt 0.738948 0.968994
vt 0.738948 0.999756
vt 0.718994 0.999756
vt 0.719826 0.968994
vt 0.719826 0.999756
vt 0.748525 0.970225
vt 0.718994 0.970225
vt 0.748525 0.968994
vt 0.687744 0.968994
vt 0.693896 0.968994
vt 0.693896 0.970225
vt 0.687744 0.970225
vt 0.688975 0.968994
vt 0.688975 0.970225
s 0
usemtl props
f 180/155/28 173/156/28 177/157/28 176/158/28
f 175/159/29 174/160/29 179/161/29 178/162/29
f 174/159/30 180/163/30 176/164/30 179/162/30
f 173/159/31 175/163/31 178/164/31 177/162/31
f 176/165/32 177/166/32 178/159/32 179/167/32
f 174/165/33 175/166/33 173/159/33 180/167/33
f 181/168/29 188/169/29 186/170/29 183/171/29
f 184/168/28 182/169/28 187/170/28 185/171/28
f 182/168/30 181/172/30 183/173/30 187/171/30
f 188/168/31 184/172/31 185/173/31 186/171/31
f 183/168/33 186/169/33 185/170/33 187/171/33
f 182/168/32 184/169/32 188/170/32 181/171/32
