# Blender 4.5.14 LTS
# www.blender.org
mtllib mould.mtl
o mould
v 0.444476 2.500000 0.003000 1.0000 1.0000 1.0000
v 0.463920 2.692604 0.003000 1.0000 1.0000 1.0000
v 0.103948 2.682811 0.003000 1.0000 1.0000 1.0000
v -0.177037 2.811350 0.003000 1.0000 1.0000 1.0000
v -0.312020 2.629541 0.003000 1.0000 1.0000 1.0000
v -0.418458 2.500000 0.003000 1.0000 1.0000 1.0000
v -0.434721 2.319518 0.003000 1.0000 1.0000 1.0000
v -0.128027 2.274842 0.003000 1.0000 1.0000 1.0000
v 0.140782 2.252410 0.003000 1.0000 1.0000 1.0000
v 0.244406 2.398531 0.003000 1.0000 1.0000 1.0000
v 0.551393 2.200000 0.003000 1.0000 1.0000 1.0000
v 0.526060 2.291588 0.003000 1.0000 1.0000 1.0000
v 0.467275 2.407052 0.003000 1.0000 1.0000 1.0000
v 0.359510 2.324617 0.003000 1.0000 1.0000 1.0000
v 0.244659 2.312862 0.003000 1.0000 1.0000 1.0000
v 0.192573 2.200000 0.003000 1.0000 1.0000 1.0000
v 0.284676 2.116212 0.003000 1.0000 1.0000 1.0000
v 0.360873 2.079580 0.003000 1.0000 1.0000 1.0000
v 0.447278 2.054492 0.003000 1.0000 1.0000 1.0000
v 0.560907 2.083094 0.003000 1.0000 1.0000 1.0000
v -0.202292 2.300000 0.003000 1.0000 1.0000 1.0000
v -0.209946 2.391599 0.003000 1.0000 1.0000 1.0000
v -0.249904 2.515852 0.003000 1.0000 1.0000 1.0000
v -0.344002 2.489595 0.003000 1.0000 1.0000 1.0000
v -0.379665 2.381032 0.003000 1.0000 1.0000 1.0000
v -0.428981 2.300000 0.003000 1.0000 1.0000 1.0000
v -0.407692 2.190460 0.003000 1.0000 1.0000 1.0000
v -0.332254 2.161025 0.003000 1.0000 1.0000 1.0000
v -0.251759 2.092140 0.003000 1.0000 1.0000 1.0000
v -0.218912 2.217520 0.003000 1.0000 1.0000 1.0000
vn -0.0000 -0.0000 1.0000
vt 0.874428 0.988790
vt 0.874756 0.992034
vt 0.868693 0.991869
vt 0.863960 0.994034
vt 0.861686 0.990972
vt 0.859893 0.988790
vt 0.859619 0.985750
vt 0.864785 0.984997
vt 0.869313 0.984619
vt 0.871058 0.987080
vt 0.874365 0.990599
vt 0.873324 0.994363
vt 0.870908 0.999108
vt 0.866479 0.995720
vt 0.861760 0.995237
vt 0.859619 0.990599
vt 0.863404 0.987156
vt 0.866535 0.985650
vt 0.870086 0.984619
vt 0.874756 0.985795
vt 0.867717 0.992045
vt 0.867444 0.995317
vt 0.866017 0.999756
vt 0.862655 0.998818
vt 0.861381 0.994940
vt 0.859619 0.992045
vt 0.860380 0.988132
vt 0.863075 0.987080
vt 0.865950 0.984619
vt 0.867124 0.989098
s 0
usemtl props
f 1/1/1 2/2/1 3/3/1 4/4/1 5/5/1 6/6/1 7/7/1 8/8/1 9/9/1 10/10/1
f 11/11/1 12/12/1 13/13/1 14/14/1 15/15/1 16/16/1 17/17/1 18/18/1 19/19/1 20/20/1
f 21/21/1 22/22/1 23/23/1 24/24/1 25/25/1 26/26/1 27/27/1 28/28/1 29/29/1 30/30/1
