# Blender 4.5.14 LTS
# www.blender.org
mtllib radiator.mtl
o radiator
v -0.480000 0.140000 0.200000 0.9372 0.9372 0.9372
v -0.430000 0.760000 0.200000 0.9176 0.9176 0.9176
v -0.480000 0.140000 0.040000 0.7882 0.7882 0.7882
v -0.430000 0.760000 0.040000 0.7686 0.7686 0.7686
v -0.480000 0.760000 0.200000 0.9372 0.9372 0.9372
v -0.480000 0.760000 0.040000 0.8000 0.8000 0.8000
v -0.430000 0.140000 0.040000 0.7490 0.7490 0.7490
v -0.430000 0.140000 0.200000 0.9215 0.9215 0.9215
v -0.410000 0.140000 0.200000 0.9176 0.9176 0.9176
v -0.360000 0.140000 0.200000 0.9215 0.9215 0.9215
v -0.410000 0.760000 0.200000 0.9215 0.9215 0.9215
v -0.360000 0.760000 0.040000 0.7686 0.7686 0.7686
v -0.410000 0.760000 0.040000 0.7647 0.7647 0.7647
v -0.360000 0.140000 0.040000 0.7568 0.7568 0.7568
v -0.360000 0.760000 0.200000 0.9176 0.9176 0.9176
v -0.410000 0.140000 0.040000 0.7451 0.7451 0.7451
v -0.340000 0.760000 0.040000 0.7647 0.7647 0.7647
v -0.340000 0.140000 0.040000 0.7490 0.7490 0.7490
v -0.290000 0.760000 0.040000 0.7686 0.7686 0.7686
v -0.290000 0.760000 0.200000 0.9176 0.9176 0.9176
v -0.340000 0.760000 0.200000 0.9215 0.9215 0.9215
v -0.290000 0.140000 0.040000 0.7608 0.7608 0.7608
v -0.290000 0.140000 0.200000 0.9215 0.9215 0.9215
v -0.340000 0.140000 0.200000 0.9176 0.9176 0.9176
v -0.270000 0.140000 0.040000 0.7568 0.7568 0.7568
v -0.270000 0.760000 0.040000 0.7647 0.7647 0.7647
v -0.220000 0.140000 0.200000 0.9215 0.9215 0.9215
v -0.220000 0.140000 0.040000 0.7647 0.7647 0.7647
v -0.270000 0.760000 0.200000 0.9215 0.9215 0.9215
v -0.220000 0.760000 0.200000 0.9176 0.9176 0.9176
v -0.220000 0.760000 0.040000 0.7686 0.7686 0.7686
v -0.270000 0.140000 0.200000 0.9176 0.9176 0.9176
v -0.200000 0.760000 0.040000 0.7647 0.7647 0.7647
v -0.150000 0.760000 0.040000 0.7686 0.7686 0.7686
v -0.200000 0.140000 0.200000 0.9176 0.9176 0.9176
v -0.200000 0.760000 0.200000 0.9215 0.9215 0.9215
v -0.150000 0.140000 0.040000 0.7647 0.7647 0.7647
v -0.150000 0.760000 0.200000 0.9176 0.9176 0.9176
v -0.200000 0.140000 0.040000 0.7608 0.7608 0.7608
v -0.150000 0.140000 0.200000 0.9215 0.9215 0.9215
v -0.080000 0.760000 0.200000 0.9176 0.9176 0.9176
v -0.080000 0.140000 0.040000 0.7647 0.7647 0.7647
v -0.130000 0.140000 0.040000 0.7647 0.7647 0.7647
v -0.130000 0.760000 0.200000 0.9215 0.9215 0.9215
v -0.080000 0.760000 0.040000 0.7686 0.7686 0.7686
v -0.130000 0.760000 0.040000 0.7647 0.7647 0.7647
v -0.080000 0.140000 0.200000 0.9215 0.9215 0.9215
v -0.130000 0.140000 0.200000 0.9176 0.9176 0.9176
v -0.060000 0.140000 0.040000 0.7686 0.7686 0.7686
v -0.060000 0.140000 0.200000 0.9215 0.9215 0.9215
v -0.060000 0.760000 0.200000 0.9215 0.9215 0.9215
v -0.010000 0.140000 0.040000 0.7647 0.7647 0.7647
v -0.010000 0.760000 0.200000 0.9176 0.9176 0.9176
v -0.010000 0.760000 0.040000 0.7686 0.7686 0.7686
v -0.060000 0.760000 0.040000 0.7647 0.7647 0.7647
v -0.010000 0.140000 0.200000 0.9215 0.9215 0.9215
v 0.010000 0.140000 0.200000 0.9215 0.9215 0.9215
v 0.010000 0.760000 0.040000 0.7647 0.7647 0.7647
v 0.060000 0.140000 0.040000 0.7647 0.7647 0.7647
v 0.060000 0.760000 0.040000 0.7686 0.7686 0.7686
v 0.010000 0.760000 0.200000 0.9215 0.9215 0.9215
v 0.060000 0.760000 0.200000 0.9176 0.9176 0.9176
v 0.010000 0.140000 0.040000 0.7686 0.7686 0.7686
v 0.060000 0.140000 0.200000 0.9215 0.9215 0.9215
v 0.080000 0.140000 0.200000 0.9215 0.9215 0.9215
v 0.130000 0.140000 0.200000 0.9215 0.9215 0.9215
v 0.080000 0.760000 0.200000 0.9215 0.9215 0.9215
v 0.130000 0.760000 0.040000 0.7686 0.7686 0.7686
v 0.130000 0.140000 0.040000 0.7647 0.7647 0.7647
v 0.130000 0.760000 0.200000 0.9176 0.9176 0.9176
v 0.080000 0.760000 0.040000 0.7647 0.7647 0.7647
v 0.080000 0.140000 0.040000 0.7647 0.7647 0.7647
v 0.150000 0.140000 0.200000 0.9215 0.9215 0.9215
v 0.200000 0.760000 0.040000 0.7686 0.7686 0.7686
v 0.150000 0.760000 0.040000 0.7647 0.7647 0.7647
v 0.150000 0.760000 0.200000 0.9215 0.9215 0.9215
v 0.200000 0.760000 0.200000 0.9176 0.9176 0.9176
v 0.150000 0.140000 0.040000 0.7647 0.7647 0.7647
v 0.200000 0.140000 0.040000 0.7608 0.7608 0.7608
v 0.200000 0.140000 0.200000 0.9215 0.9215 0.9215
v 0.220000 0.760000 0.200000 0.9215 0.9215 0.9215
v 0.270000 0.140000 0.040000 0.7568 0.7568 0.7568
v 0.220000 0.140000 0.040000 0.7647 0.7647 0.7647
v 0.220000 0.140000 0.200000 0.9215 0.9215 0.9215
v 0.270000 0.140000 0.200000 0.9176 0.9176 0.9176
v 0.270000 0.760000 0.200000 0.9176 0.9176 0.9176
v 0.270000 0.760000 0.040000 0.7686 0.7686 0.7686
v 0.220000 0.760000 0.040000 0.7647 0.7647 0.7647
v 0.290000 0.140000 0.200000 0.9215 0.9215 0.9215
v 0.340000 0.760000 0.200000 0.9176 0.9176 0.9176
v 0.340000 0.140000 0.040000 0.7490 0.7490 0.7490
v 0.290000 0.140000 0.040000 0.7608 0.7608 0.7608
v 0.290000 0.760000 0.200000 0.9215 0.9215 0.9215
v 0.290000 0.760000 0.040000 0.7647 0.7647 0.7647
v 0.340000 0.140000 0.200000 0.9176 0.9176 0.9176
v 0.340000 0.760000 0.040000 0.7686 0.7686 0.7686
v 0.360000 0.140000 0.200000 0.9176 0.9176 0.9176
v 0.360000 0.760000 0.200000 0.9215 0.9215 0.9215
v 0.360000 0.760000 0.040000 0.7647 0.7647 0.7647
v 0.410000 0.140000 0.040000 0.7412 0.7412 0.7412
v 0.410000 0.760000 0.040000 0.7686 0.7686 0.7686
v 0.410000 0.760000 0.200000 0.9176 0.9176 0.9176
v 0.360000 0.140000 0.040000 0.7608 0.7608 0.7608
v 0.410000 0.140000 0.200000 0.9176 0.9176 0.9176
v 0.480000 0.140000 0.040000 0.7725 0.7725 0.7725
v 0.430000 0.140000 0.040000 0.7490 0.7490 0.7490
v 0.430000 0.760000 0.040000 0.7647 0.7647 0.7647
v 0.430000 0.760000 0.200000 0.9215 0.9215 0.9215
v 0.480000 0.140000 0.200000 0.9372 0.9372 0.9372
v 0.480000 0.760000 0.200000 0.9333 0.9333 0.9333
v 0.480000 0.760000 0.040000 0.7960 0.7960 0.7960
v 0.430000 0.140000 0.200000 0.9215 0.9215 0.9215
v -0.480000 0.160000 0.140000 0.7647 0.7647 0.7647
v 0.480000 0.160000 0.140000 0.7490 0.7490 0.7490
v 0.480000 0.160000 0.100000 0.7333 0.7333 0.7333
v -0.480000 0.160000 0.100000 0.7568 0.7568 0.7568
v 0.480000 0.200000 0.100000 0.7176 0.7176 0.7176
v -0.480000 0.200000 0.140000 0.7647 0.7647 0.7647
v 0.480000 0.200000 0.140000 0.7412 0.7412 0.7412
v -0.480000 0.200000 0.100000 0.7608 0.7608 0.7608
v -0.480000 0.700000 0.140000 0.7647 0.7647 0.7647
v 0.480000 0.700000 0.100000 0.7568 0.7568 0.7568
v -0.480000 0.700000 0.100000 0.7568 0.7568 0.7568
v -0.480000 0.740000 0.100000 0.7568 0.7568 0.7568
v -0.480000 0.740000 0.140000 0.7647 0.7647 0.7647
v 0.480000 0.740000 0.140000 0.7608 0.7608 0.7608
v 0.480000 0.740000 0.100000 0.7529 0.7529 0.7529
v 0.480000 0.700000 0.140000 0.7647 0.7647 0.7647
v -0.460000 0.020000 0.070000 0.8039 0.8039 0.8039
v -0.460000 0.140000 0.070000 0.7294 0.7294 0.7294
v -0.460000 0.140000 0.170000 0.7882 0.7882 0.7882
v -0.420000 0.020000 0.170000 0.9176 0.9176 0.9176
v -0.420000 0.140000 0.070000 0.7255 0.7255 0.7255
v -0.420000 0.140000 0.170000 0.8078 0.8078 0.8078
v -0.420000 0.020000 0.070000 0.7921 0.7921 0.7921
v -0.460000 0.020000 0.170000 0.9294 0.9294 0.9294
v 0.420000 0.020000 0.170000 0.9176 0.9176 0.9176
v 0.420000 0.020000 0.070000 0.7921 0.7921 0.7921
v 0.460000 0.140000 0.070000 0.7255 0.7255 0.7255
v 0.460000 0.020000 0.070000 0.7960 0.7960 0.7960
v 0.420000 0.140000 0.170000 0.8039 0.8039 0.8039
v 0.460000 0.140000 0.170000 0.7882 0.7882 0.7882
v 0.420000 0.140000 0.070000 0.7255 0.7255 0.7255
v 0.460000 0.020000 0.170000 0.9255 0.9255 0.9255
v 0.500000 0.200000 0.135000 0.7020 0.7020 0.7020
v 0.580000 0.200000 0.135000 0.9372 0.9372 0.9372
v 0.500000 0.185734 0.124635 0.7020 0.7020 0.7020
v 0.571814 0.196726 0.107865 0.7216 0.7216 0.7216
v 0.566755 0.194702 0.124635 0.8157 0.8157 0.8157
v 0.588186 0.203274 0.107865 0.7608 0.7608 0.7608
v 0.571183 0.000000 0.107865 0.7882 0.7882 0.7882
v 0.593246 0.205298 0.124635 0.8941 0.8941 0.8941
v 0.588817 0.000000 0.107865 0.8039 0.8039 0.8039
v 0.580000 0.000000 0.135000 0.9411 0.9411 0.9411
v 0.500000 0.214266 0.124635 0.7020 0.7020 0.7020
v 0.500000 0.208817 0.107865 0.7020 0.7020 0.7020
v 0.500000 0.191183 0.107865 0.7020 0.7020 0.7020
v 0.565734 0.000000 0.124635 0.8745 0.8745 0.8745
v 0.594266 0.000000 0.124635 0.9058 0.9058 0.9058
v 0.540000 0.215000 0.094019 0.7647 0.7647 0.7647
v 0.540000 0.185000 0.094019 0.7490 0.7490 0.7490
v 0.500000 0.230000 0.120000 0.7686 0.7686 0.7686
v 0.540000 0.215000 0.145981 0.9098 0.9098 0.9098
v 0.540000 0.170000 0.120000 0.8078 0.8078 0.8078
v 0.540000 0.185000 0.145981 0.9137 0.9137 0.9137
v 0.540000 0.230000 0.120000 0.8313 0.8313 0.8313
v 0.500000 0.185000 0.145981 0.8274 0.8274 0.8274
v 0.500000 0.215000 0.145981 0.8235 0.8235 0.8235
v 0.500000 0.215000 0.094019 0.7216 0.7216 0.7216
v 0.500000 0.185000 0.094019 0.7176 0.7176 0.7176
v 0.500000 0.170000 0.120000 0.7764 0.7764 0.7764
vn -0.0000 -0.0000 1.0000
vn -0.0000 -0.0000 -1.0000
vn -1.0000 -0.0000 -0.0000
vn 1.0000 -0.0000 -0.0000
vn -0.0000 1.0000 -0.0000
vn -0.0000 -1.0000 -0.0000
vn 0.0453 -0.7408 0.6702
vn 0.1020 -0.9741 -0.2016
vn 0.0776 0.9706 -0.2279
vn 0.0370 0.7148 0.6983
vn -0.6020 0.0016 0.7985
vn -0.9543 0.0040 -0.2987
vn 0.9542 0.0039 -0.2992
vn 0.6016 0.0015 0.7988
vn -0.0000 -0.8660 -0.5000
vn -0.0000 0.8660 -0.5000
vn -0.0000 0.8660 0.5000
vn -0.0000 -0.8660 0.5000
vt 0.875244 0.984619
vt 0.876465 0.984619
vt 0.876465 0.999756
vt 0.875244 0.999756
vt 0.879150 0.984619
vt 0.879150 0.999756
vt 0.878271 0.984619
vt 0.878271 0.994307
vt 0.875244 0.994307
vt 0.890381 0.984619
vt 0.890381 0.985250
vt 0.875244 0.985250
vt 0.877666 0.984619
vt 0.877666 0.987041
vt 0.875244 0.987041
vt 0.843994 0.984619
vt 0.846416 0.984619
vt 0.846416 0.991885
vt 0.843994 0.991885
vt 0.850049 0.984619
vt 0.850049 0.991885
vt 0.846416 0.990674
vt 0.843994 0.990674
vt 0.593994 0.968994
vt 0.600146 0.968994
vt 0.600146 0.984375
vt 0.593994 0.984375
vt 0.606299 0.968994
vt 0.606299 0.984375
vt 0.612451 0.968994
vt 0.612451 0.984375
vt 0.618604 0.968994
vt 0.618604 0.984375
vt 0.624756 0.968994
vt 0.624756 0.984375
vt 0.600146 0.999756
vt 0.593994 0.999756
vt 0.606299 0.999756
vt 0.612451 0.999756
vt 0.618604 0.999756
vt 0.624756 0.999756
vt 0.613006 0.999756
vt 0.593994 0.993881
vt 0.593994 0.974869
vt 0.613006 0.968994
vt 0.609375 0.999756
vt 0.593994 0.988006
vt 0.599869 0.968994
vt 0.618881 0.968994
vt 0.624756 0.988006
vt 0.890869 0.984619
vt 0.893392 0.984619
vt 0.893392 0.999756
vt 0.890869 0.999756
vt 0.895915 0.984619
vt 0.895915 0.999756
vt 0.898438 0.984619
vt 0.898438 0.999756
vt 0.900960 0.984619
vt 0.900960 0.999756
vt 0.903483 0.984619
vt 0.903483 0.999756
vt 0.906006 0.984619
vt 0.906006 0.999756
vt 0.906006 0.992188
vt 0.902222 0.999756
vt 0.894653 0.999756
vt 0.890869 0.992188
vt 0.894653 0.984619
vt 0.902222 0.984619
s 0
usemtl props
f 1/1/1 8/2/1 2/3/1 5/4/1
f 7/1/2 3/2/2 6/3/2 4/4/2
f 3/1/3 1/5/3 5/6/3 6/4/3
f 8/1/4 7/5/4 4/6/4 2/4/4
f 5/1/5 2/7/5 4/8/5 6/9/5
f 3/1/6 7/7/6 8/8/6 1/9/6
f 9/1/1 10/2/1 15/3/1 11/4/1
f 14/1/2 16/2/2 13/3/2 12/4/2
f 16/1/3 9/5/3 11/6/3 13/4/3
f 10/1/4 14/5/4 12/6/4 15/4/4
f 11/1/5 15/7/5 12/8/5 13/9/5
f 16/1/6 14/7/6 10/8/6 9/9/6
f 24/1/1 23/2/1 20/3/1 21/4/1
f 22/1/2 18/2/2 17/3/2 19/4/2
f 18/1/3 24/5/3 21/6/3 17/4/3
f 23/1/4 22/5/4 19/6/4 20/4/4
f 21/1/5 20/7/5 19/8/5 17/9/5
f 18/1/6 22/7/6 23/8/6 24/9/6
f 32/1/1 27/2/1 30/3/1 29/4/1
f 28/1/2 25/2/2 26/3/2 31/4/2
f 25/1/3 32/5/3 29/6/3 26/4/3
f 27/1/4 28/5/4 31/6/4 30/4/4
f 29/1/5 30/7/5 31/8/5 26/9/5
f 25/1/6 28/7/6 27/8/6 32/9/6
f 35/1/1 40/2/1 38/3/1 36/4/1
f 37/1/2 39/2/2 33/3/2 34/4/2
f 39/1/3 35/5/3 36/6/3 33/4/3
f 40/1/4 37/5/4 34/6/4 38/4/4
f 36/1/5 38/7/5 34/8/5 33/9/5
f 39/1/6 37/7/6 40/8/6 35/9/6
f 48/1/1 47/2/1 41/3/1 44/4/1
f 42/1/2 43/2/2 46/3/2 45/4/2
f 43/1/3 48/5/3 44/6/3 46/4/3
f 47/1/4 42/5/4 45/6/4 41/4/4
f 44/1/5 41/7/5 45/8/5 46/9/5
f 43/1/6 42/7/6 47/8/6 48/9/6
f 50/1/1 56/2/1 53/3/1 51/4/1
f 52/1/2 49/2/2 55/3/2 54/4/2
f 49/1/3 50/5/3 51/6/3 55/4/3
f 56/1/4 52/5/4 54/6/4 53/4/4
f 51/1/5 53/7/5 54/8/5 55/9/5
f 49/1/6 52/7/6 56/8/6 50/9/6
f 57/1/1 64/2/1 62/3/1 61/4/1
f 59/1/2 63/2/2 58/3/2 60/4/2
f 63/1/3 57/5/3 61/6/3 58/4/3
f 64/1/4 59/5/4 60/6/4 62/4/4
f 61/1/5 62/7/5 60/8/5 58/9/5
f 63/1/6 59/7/6 64/8/6 57/9/6
f 65/1/1 66/2/1 70/3/1 67/4/1
f 69/1/2 72/2/2 71/3/2 68/4/2
f 72/1/3 65/5/3 67/6/3 71/4/3
f 66/1/4 69/5/4 68/6/4 70/4/4
f 67/1/5 70/7/5 68/8/5 71/9/5
f 72/1/6 69/7/6 66/8/6 65/9/6
f 73/1/1 80/2/1 77/3/1 76/4/1
f 79/1/2 78/2/2 75/3/2 74/4/2
f 78/1/3 73/5/3 76/6/3 75/4/3
f 80/1/4 79/5/4 74/6/4 77/4/4
f 76/1/5 77/7/5 74/8/5 75/9/5
f 78/1/6 79/7/6 80/8/6 73/9/6
f 84/1/1 85/2/1 86/3/1 81/4/1
f 82/1/2 83/2/2 88/3/2 87/4/2
f 83/1/3 84/5/3 81/6/3 88/4/3
f 85/1/4 82/5/4 87/6/4 86/4/4
f 81/1/5 86/7/5 87/8/5 88/9/5
f 83/1/6 82/7/6 85/8/6 84/9/6
f 89/1/1 95/2/1 90/3/1 93/4/1
f 91/1/2 92/2/2 94/3/2 96/4/2
f 92/1/3 89/5/3 93/6/3 94/4/3
f 95/1/4 91/5/4 96/6/4 90/4/4
f 93/1/5 90/7/5 96/8/5 94/9/5
f 92/1/6 91/7/6 95/8/6 89/9/6
f 97/1/1 104/2/1 102/3/1 98/4/1
f 100/1/2 103/2/2 99/3/2 101/4/2
f 103/1/3 97/5/3 98/6/3 99/4/3
f 104/1/4 100/5/4 101/6/4 102/4/4
f 98/1/5 102/7/5 101/8/5 99/9/5
f 103/1/6 100/7/6 104/8/6 97/9/6
f 112/1/1 109/2/1 110/3/1 108/4/1
f 105/1/2 106/2/2 107/3/2 111/4/2
f 106/1/3 112/5/3 108/6/3 107/4/3
f 109/1/4 105/5/4 111/6/4 110/4/4
f 108/1/5 110/7/5 111/8/5 107/9/5
f 106/1/6 105/7/6 109/8/6 112/9/6
f 113/1/1 114/10/1 119/11/1 118/12/1
f 115/1/2 116/10/2 120/11/2 117/12/2
f 116/1/3 113/13/3 118/14/3 120/15/3
f 114/1/4 115/13/4 117/14/4 119/15/4
f 118/1/5 119/10/5 117/11/5 120/12/5
f 116/1/6 115/10/6 114/11/6 113/12/6
f 121/1/1 128/10/1 126/11/1 125/12/1
f 122/1/2 123/10/2 124/11/2 127/12/2
f 123/1/3 121/13/3 125/14/3 124/15/3
f 128/1/4 122/13/4 127/14/4 126/15/4
f 125/1/5 126/10/5 127/11/5 124/12/5
f 123/1/6 122/10/6 128/11/6 121/12/6
f 136/16/1 132/17/1 134/18/1 131/19/1
f 135/16/2 129/17/2 130/18/2 133/19/2
f 129/16/3 136/20/3 131/21/3 130/19/3
f 132/16/4 135/20/4 133/21/4 134/19/4
f 131/16/5 134/17/5 133/22/5 130/23/5
f 129/16/6 135/17/6 132/22/6 136/23/6
f 137/16/1 144/17/1 142/18/1 141/19/1
f 140/16/2 138/17/2 143/18/2 139/19/2
f 138/16/3 137/20/3 141/21/3 143/19/3
f 144/16/4 140/20/4 139/21/4 142/19/4
f 141/16/5 142/17/5 139/22/5 143/23/5
f 138/16/6 140/17/6 144/22/6 137/23/6
s 1
f 145/24/7 147/25/7 149/26/7 146/27/7
f 147/25/8 157/28/8 148/29/8 149/26/8
f 157/28/2 156/30/2 150/31/2 148/29/2
f 156/30/9 155/32/9 152/33/9 150/31/9
f 155/32/10 145/34/10 146/35/10 152/33/10
f 146/27/11 149/26/11 158/36/11 154/37/11
f 149/26/12 148/29/12 151/38/12 158/36/12
f 148/29/2 150/31/2 153/39/2 151/38/2
f 150/31/13 152/33/13 159/40/13 153/39/13
f 152/33/14 146/35/14 154/41/14 159/40/14
s 0
f 155/42/3 156/43/3 157/44/3 147/45/3 145/35/3
f 154/46/6 158/47/6 151/48/6 153/49/6 159/50/6
s 1
f 171/51/15 170/52/15 161/53/15 164/54/15
f 170/52/2 169/55/2 160/56/2 161/53/2
f 169/55/16 162/57/16 166/58/16 160/56/16
f 162/57/17 168/59/17 163/60/17 166/58/17
f 168/59/1 167/61/1 165/62/1 163/60/1
f 167/61/18 171/63/18 164/64/18 165/62/18
s 0
f 164/65/4 161/66/4 160/67/4 166/68/4 163/69/4 165/70/4
f 167/66/3 168/67/3 162/68/3 169/69/3 170/70/3 171/65/3
