# Blender 4.5.14 LTS
# www.blender.org
mtllib wall_papered_torn.mtl
o wall_papered_torn
v -1.000000 0.000000 0.100000 0.8470 0.8470 0.8470
v 0.000000 0.000000 0.100000 0.8470 0.8470 0.8470
v -1.000000 0.000000 -0.100000 0.8509 0.8509 0.8509
v -1.000000 1.000000 0.100000 1.0000 1.0000 1.0000
v -1.000000 1.000000 -0.100000 1.0000 1.0000 1.0000
v -1.000000 2.000000 0.100000 1.0000 1.0000 1.0000
v -1.000000 3.000000 0.100000 1.0000 1.0000 1.0000
v -1.000000 3.000000 -0.100000 1.0000 1.0000 1.0000
v -1.000000 2.000000 -0.100000 1.0000 1.0000 1.0000
v 1.000000 0.000000 0.100000 0.8470 0.8470 0.8470
v 0.000000 1.000000 -0.100000 1.0000 1.0000 1.0000
v 1.000000 0.000000 -0.100000 0.8509 0.8509 0.8509
v 0.000000 0.000000 -0.100000 0.8509 0.8509 0.8509
v 0.000000 1.000000 0.100000 1.0000 1.0000 1.0000
v 1.000000 1.000000 0.100000 1.0000 1.0000 1.0000
v 1.000000 1.000000 -0.100000 1.0000 1.0000 1.0000
v 0.000000 2.000000 0.100000 1.0000 1.0000 1.0000
v 1.000000 2.000000 0.100000 1.0000 1.0000 1.0000
v 0.000000 3.000000 -0.100000 1.0000 1.0000 1.0000
v 1.000000 2.000000 -0.100000 1.0000 1.0000 1.0000
v 0.000000 2.000000 -0.100000 1.0000 1.0000 1.0000
v 0.000000 3.000000 0.100000 1.0000 1.0000 1.0000
v 1.000000 3.000000 0.100000 1.0000 1.0000 1.0000
v 1.000000 3.000000 -0.100000 1.0000 1.0000 1.0000
vn -0.0000 -0.0000 1.0000
vn -0.0000 -0.0000 -1.0000
vn -0.0000 1.0000 -0.0000
vt 0.187744 0.937744
vt 0.249756 0.937744
vt 0.249756 0.999756
vt 0.187744 0.999756
vt 0.250244 0.937744
vt 0.312256 0.937744
vt 0.312256 0.999756
vt 0.250244 0.999756
vt 0.187256 0.999756
vt 0.125244 0.999756
vt 0.125244 0.937744
vt 0.187256 0.937744
vt 0.187256 0.950146
vt 0.125244 0.950146
s 0
usemtl props
f 1/1/1 2/2/1 14/3/1 4/4/1
f 5/3/2 11/4/2 13/1/2 3/2/2
f 4/5/1 14/6/1 17/7/1 6/8/1
f 9/9/2 21/10/2 11/11/2 5/12/2
f 6/11/1 17/12/1 22/9/1 7/10/1
f 8/9/2 19/10/2 21/11/2 9/12/2
f 2/1/1 10/2/1 15/3/1 14/4/1
f 11/3/2 16/4/2 12/1/2 13/2/2
f 14/11/1 15/12/1 18/9/1 17/10/1
f 21/9/2 20/10/2 16/11/2 11/12/2
f 17/5/1 18/6/1 23/7/1 22/8/1
f 19/9/2 24/10/2 20/11/2 21/12/2
f 7/11/3 22/12/3 19/13/3 8/14/3
f 22/11/3 23/12/3 24/13/3 19/14/3
