# Blender 4.5.14 LTS
# www.blender.org
mtllib wallpaper_peel.mtl
o wallpaper_peel
v 0.250000 2.400000 0.009722 0.9960 0.9960 0.9960
v 0.250000 2.600000 0.000000 1.0000 1.0000 1.0000
v -0.250000 2.600000 0.000000 1.0000 1.0000 1.0000
v -0.250000 2.600000 -0.000200 0.7020 0.7020 0.7020
v 0.250000 2.600000 -0.000200 0.7020 0.7020 0.7020
v 0.250000 2.400000 0.009522 0.7020 0.7020 0.7020
v 0.250000 2.200000 0.038889 0.9960 0.9960 0.9960
v -0.250000 2.400000 0.009722 1.0000 1.0000 1.0000
v -0.250000 2.400000 0.009522 0.7020 0.7020 0.7020
v 0.250000 2.200000 0.038689 0.7059 0.7059 0.7059
v 0.250000 2.000000 0.087500 0.9960 0.9960 0.9960
v -0.250000 2.200000 0.038889 1.0000 1.0000 1.0000
v -0.250000 2.200000 0.038689 0.7059 0.7059 0.7059
v -0.250000 2.000000 0.087300 0.7176 0.7176 0.7176
v -0.250000 2.000000 0.087500 1.0000 1.0000 1.0000
v 0.250000 2.000000 0.087300 0.7176 0.7176 0.7176
v -0.250000 1.800000 0.155356 0.7529 0.7529 0.7529
v -0.250000 1.600000 0.243056 1.0000 1.0000 1.0000
v 0.250000 1.800000 0.155556 0.9960 0.9960 0.9960
v -0.250000 1.800000 0.155556 1.0000 1.0000 1.0000
v 0.250000 1.800000 0.155356 0.7529 0.7529 0.7529
v -0.250000 1.400000 0.350000 1.0000 1.0000 1.0000
v 0.250000 1.400000 0.350000 1.0000 1.0000 1.0000
v 0.250000 1.600000 0.243056 1.0000 1.0000 1.0000
v -0.250000 1.600000 0.242856 0.7960 0.7960 0.7960
v 0.250000 1.600000 0.242856 0.7960 0.7960 0.7960
v 0.250000 1.400000 0.349800 0.8706 0.8706 0.8706
v -0.250000 1.400000 0.349800 0.8706 0.8706 0.8706
vn -0.0000 0.0486 0.9988
vn -0.0000 -0.0486 -0.9988
vn -0.0000 0.1443 0.9895
vn -0.0000 -0.1443 -0.9895
vn -0.0000 0.2362 0.9717
vn -0.0000 -0.2362 -0.9717
vn -0.0000 0.3221 0.9467
vn -0.0000 -0.3221 -0.9467
vn -0.0000 0.4008 0.9162
vn -0.0000 -0.4008 -0.9162
vn -0.0000 0.4715 0.8818
vn -0.0000 -0.4715 -0.8818
vt 0.125244 0.989421
vt 0.156250 0.989421
vt 0.156250 0.999756
vt 0.125244 0.999756
vt 0.468750 0.999756
vt 0.437744 0.999756
vt 0.437744 0.989421
vt 0.468750 0.989421
vt 0.125244 0.979085
vt 0.156250 0.979085
vt 0.437744 0.979085
vt 0.468750 0.979085
vt 0.125244 0.968750
vt 0.156250 0.968750
vt 0.437744 0.968750
vt 0.468750 0.968750
vt 0.125244 0.958415
vt 0.156250 0.958415
vt 0.437744 0.958415
vt 0.468750 0.958415
vt 0.125244 0.948079
vt 0.156250 0.948079
vt 0.437744 0.948079
vt 0.468750 0.948079
vt 0.125244 0.937744
vt 0.156250 0.937744
vt 0.437744 0.937744
vt 0.468750 0.937744
s 0
usemtl props
f 8/1/1 1/2/1 2/3/1 3/4/1
f 4/5/2 5/6/2 6/7/2 9/8/2
f 12/9/3 7/10/3 1/2/3 8/1/3
f 9/8/4 6/7/4 10/11/4 13/12/4
f 15/13/5 11/14/5 7/10/5 12/9/5
f 13/12/6 10/11/6 16/15/6 14/16/6
f 20/17/7 19/18/7 11/14/7 15/13/7
f 14/16/8 16/15/8 21/19/8 17/20/8
f 18/21/9 24/22/9 19/18/9 20/17/9
f 17/20/10 21/19/10 26/23/10 25/24/10
f 22/25/11 23/26/11 24/22/11 18/21/11
f 25/24/12 26/23/12 27/27/12 28/28/12
