# Blender 4.5.14 LTS
# www.blender.org
mtllib wall_window.mtl
o wall_window
v -1.000000 0.000000 0.100000 0.8470 0.8470 0.8470
v -0.500000 0.000000 0.100000 0.8470 0.8470 0.8470
v -0.500000 1.000000 0.100000 0.9804 0.9804 0.9804
v -0.500000 0.000000 -0.100000 0.8509 0.8509 0.8509
v -1.000000 0.000000 -0.100000 0.8509 0.8509 0.8509
v -1.000000 1.000000 0.100000 1.0000 1.0000 1.0000
v -1.000000 1.000000 -0.100000 1.0000 1.0000 1.0000
v -1.000000 2.000000 0.100000 1.0000 1.0000 1.0000
v -0.500000 3.000000 0.100000 1.0000 1.0000 1.0000
v -1.000000 3.000000 0.100000 1.0000 1.0000 1.0000
v -1.000000 3.000000 -0.100000 1.0000 1.0000 1.0000
v -1.000000 2.000000 -0.100000 1.0000 1.0000 1.0000
v -0.500000 3.000000 -0.100000 1.0000 1.0000 1.0000
v -0.500000 0.800000 0.100000 0.8862 0.8862 0.8862
v -0.500000 0.800000 -0.100000 0.8862 0.8862 0.8862
v -0.500000 1.000000 -0.100000 0.9764 0.9764 0.9764
v -0.500000 2.000000 0.100000 0.9843 0.9843 0.9843
v -0.500000 2.000000 -0.100000 0.9882 0.9882 0.9882
v -0.500000 2.300000 -0.100000 0.8902 0.8902 0.8902
v -0.500000 2.300000 0.100000 0.8902 0.8902 0.8902
vn -0.0000 -0.0000 1.0000
vn -0.0000 -0.0000 -1.0000
vn -0.0000 1.0000 -0.0000
vn 1.0000 -0.0000 -0.0000
vt 0.187744 0.937744
vt 0.218750 0.937744
vt 0.218750 0.999756
vt 0.187744 0.999756
vt 0.062256 0.999756
vt 0.031250 0.999756
vt 0.031250 0.937744
vt 0.062256 0.937744
vt 0.125244 0.937744
vt 0.156250 0.937744
vt 0.156250 0.999756
vt 0.125244 0.999756
vt 0.156250 0.950146
vt 0.125244 0.950146
vt 0.187744 0.987354
vt 0.200146 0.987354
vt 0.200146 0.999756
vt 0.137646 0.937744
vt 0.137646 0.999756
vt 0.137646 0.956348
vt 0.125244 0.956348
s 0
usemtl props
f 1/1/1 2/2/1 3/3/1 6/4/1
f 7/5/2 16/6/2 4/7/2 5/8/2
f 6/9/1 3/10/1 17/11/1 8/12/1
f 12/5/2 18/6/2 16/7/2 7/8/2
f 8/9/1 17/10/1 9/11/1 10/12/1
f 11/5/2 13/6/2 18/7/2 12/8/2
f 10/9/3 9/10/3 13/13/3 11/14/3
f 14/15/4 15/16/4 16/17/4 3/4/4
f 3/9/4 16/18/4 18/19/4 17/12/4
f 17/9/4 18/18/4 19/20/4 20/21/4
o wall_window_1
v -0.500000 0.000000 0.100000 0.8470 0.8470 0.8470
v -0.500000 0.000000 -0.100000 0.8509 0.8509 0.8509
v 0.000000 0.000000 0.100000 0.8470 0.8470 0.8470
v 0.500000 0.000000 0.100000 0.8470 0.8470 0.8470
v 0.500000 0.800000 0.100000 0.9490 0.9490 0.9490
v 0.000000 0.800000 -0.100000 1.0000 1.0000 1.0000
v 0.500000 0.000000 -0.100000 0.8509 0.8509 0.8509
v 0.000000 0.000000 -0.100000 0.8509 0.8509 0.8509
v -0.500000 0.800000 0.100000 0.9490 0.9490 0.9490
v -0.500000 0.800000 -0.100000 0.9529 0.9529 0.9529
v 0.000000 0.800000 0.100000 1.0000 1.0000 1.0000
v 0.500000 0.800000 -0.100000 0.9490 0.9490 0.9490
vn -0.0000 -0.0000 1.0000
vn -0.0000 -0.0000 -1.0000
vn -0.0000 1.0000 -0.0000
vt 0.218750 0.937744
vt 0.249756 0.937744
vt 0.249756 0.987354
vt 0.218750 0.987354
vt 0.031250 0.987354
vt 0.000244 0.987354
vt 0.000244 0.937744
vt 0.031250 0.937744
vt 0.187744 0.937744
vt 0.187744 0.987354
vt 0.062256 0.987354
vt 0.062256 0.937744
vt 0.156250 0.937744
vt 0.187256 0.937744
vt 0.187256 0.950146
vt 0.156250 0.950146
vt 0.125244 0.937744
vt 0.125244 0.950146
s 0
usemtl props
f 21/22/5 23/23/5 31/24/5 29/25/5
f 30/26/6 26/27/6 28/28/6 22/29/6
f 23/30/5 24/22/5 25/25/5 31/31/5
f 26/32/6 32/26/6 27/29/6 28/33/6
f 29/34/7 31/35/7 26/36/7 30/37/7
f 31/38/7 25/34/7 32/37/7 26/39/7
o wall_window_2
v -0.500000 2.300000 0.100000 0.9490 0.9490 0.9490
v -0.500000 3.000000 0.100000 1.0000 1.0000 1.0000
v 0.500000 2.300000 0.100000 0.9490 0.9490 0.9490
v 0.500000 2.300000 -0.100000 0.9490 0.9490 0.9490
v -0.500000 3.000000 -0.100000 1.0000 1.0000 1.0000
v 0.000000 3.000000 0.100000 1.0000 1.0000 1.0000
v 0.500000 3.000000 0.100000 1.0000 1.0000 1.0000
v 0.500000 3.000000 -0.100000 1.0000 1.0000 1.0000
v 0.000000 3.000000 -0.100000 1.0000 1.0000 1.0000
v -0.500000 2.300000 -0.100000 0.9490 0.9490 0.9490
v 0.000000 2.300000 -0.100000 1.0000 1.0000 1.0000
v 0.000000 2.300000 0.100000 1.0000 1.0000 1.0000
vn -0.0000 -0.0000 1.0000
vn -0.0000 -0.0000 -1.0000
vn -0.0000 1.0000 -0.0000
vn -0.0000 -1.0000 -0.0000
vt 0.156250 0.956348
vt 0.187256 0.956348
vt 0.187256 0.999756
vt 0.156250 0.999756
vt 0.031250 0.999756
vt 0.000244 0.999756
vt 0.000244 0.956348
vt 0.031250 0.956348
vt 0.125244 0.956348
vt 0.125244 0.999756
vt 0.062256 0.999756
vt 0.062256 0.956348
vt 0.156250 0.937744
vt 0.187256 0.937744
vt 0.187256 0.950146
vt 0.156250 0.950146
vt 0.125244 0.937744
vt 0.125244 0.950146
s 0
usemtl props
f 33/40/8 44/41/8 38/42/8 34/43/8
f 37/44/9 41/45/9 43/46/9 42/47/9
f 44/48/8 35/40/8 39/43/8 38/49/8
f 41/50/9 40/44/9 36/47/9 43/51/9
f 34/52/10 38/53/10 41/54/10 37/55/10
f 38/56/10 39/52/10 40/55/10 41/57/10
f 42/55/11 43/54/11 44/53/11 33/52/11
f 43/57/11 36/55/11 35/52/11 44/56/11
o wall_window_3
v 0.500000 0.000000 0.100000 0.8470 0.8470 0.8470
v 1.000000 0.000000 0.100000 0.8470 0.8470 0.8470
v 1.000000 1.000000 0.100000 1.0000 1.0000 1.0000
v 1.000000 0.000000 -0.100000 0.8509 0.8509 0.8509
v 0.500000 0.000000 -0.100000 0.8509 0.8509 0.8509
v 0.500000 1.000000 0.100000 0.9764 0.9764 0.9764
v 1.000000 2.000000 0.100000 1.0000 1.0000 1.0000
v 1.000000 1.000000 -0.100000 1.0000 1.0000 1.0000
v 1.000000 3.000000 0.100000 1.0000 1.0000 1.0000
v 0.500000 3.000000 -0.100000 1.0000 1.0000 1.0000
v 1.000000 3.000000 -0.100000 1.0000 1.0000 1.0000
v 1.000000 2.000000 -0.100000 1.0000 1.0000 1.0000
v 0.500000 2.000000 -0.100000 0.9882 0.9882 0.9882
v 0.500000 3.000000 0.100000 1.0000 1.0000 1.0000
v 0.500000 0.800000 -0.100000 0.8745 0.8745 0.8745
v 0.500000 0.800000 0.100000 0.8784 0.8784 0.8784
v 0.500000 1.000000 -0.100000 0.9804 0.9804 0.9804
v 0.500000 2.000000 0.100000 0.9882 0.9882 0.9882
v 0.500000 2.300000 0.100000 0.8941 0.8941 0.8941
v 0.500000 2.300000 -0.100000 0.8902 0.8902 0.8902
vn -0.0000 -0.0000 1.0000
vn -0.0000 -0.0000 -1.0000
vn -0.0000 1.0000 -0.0000
vn -1.0000 -0.0000 -0.0000
vt 0.218750 0.937744
vt 0.249756 0.937744
vt 0.249756 0.999756
vt 0.218750 0.999756
vt 0.031250 0.999756
vt 0.000244 0.999756
vt 0.000244 0.937744
vt 0.031250 0.937744
vt 0.156250 0.937744
vt 0.187256 0.937744
vt 0.187256 0.999756
vt 0.156250 0.999756
vt 0.187256 0.950146
vt 0.156250 0.950146
vt 0.000244 0.987354
vt 0.012646 0.987354
vt 0.012646 0.999756
vt 0.012646 0.937744
vt 0.012646 0.956348
vt 0.000244 0.956348
s 0
usemtl props
f 45/58/12 46/59/12 47/60/12 50/61/12
f 61/62/13 52/63/13 48/64/13 49/65/13
f 50/66/12 47/67/12 51/68/12 62/69/12
f 57/62/13 56/63/13 52/64/13 61/65/13
f 62/66/12 51/67/12 53/68/12 58/69/12
f 54/62/13 55/63/13 56/64/13 57/65/13
f 58/66/14 53/67/14 55/70/14 54/71/14
f 59/72/15 60/73/15 50/74/15 61/63/15
f 61/64/15 50/75/15 62/74/15 57/63/15
f 57/64/15 62/75/15 63/76/15 64/77/15
