# Blender 4.5.14 LTS
# www.blender.org
mtllib wall_doorway_flat.mtl
o wall_doorway_flat
v -1.000000 0.000000 0.100000 0.8470 0.8470 0.8470
v -0.500000 1.000000 0.100000 1.0000 1.0000 1.0000
v -1.000000 1.000000 0.100000 1.0000 1.0000 1.0000
v -1.000000 0.000000 -0.100000 0.8509 0.8509 0.8509
v -1.000000 2.000000 0.100000 1.0000 1.0000 1.0000
v -1.000000 1.000000 -0.100000 1.0000 1.0000 1.0000
v -0.500000 3.000000 0.100000 1.0000 1.0000 1.0000
v -1.000000 3.000000 0.100000 1.0000 1.0000 1.0000
v -1.000000 3.000000 -0.100000 1.0000 1.0000 1.0000
v -1.000000 2.000000 -0.100000 1.0000 1.0000 1.0000
v -0.500000 3.000000 -0.100000 1.0000 1.0000 1.0000
v -0.500000 0.000000 0.100000 0.8509 0.8509 0.8509
v -0.500000 0.000000 -0.100000 0.8509 0.8509 0.8509
v -0.500000 1.000000 -0.100000 1.0000 1.0000 1.0000
v -0.500000 2.000000 0.100000 0.9764 0.9764 0.9764
v -0.500000 2.000000 -0.100000 0.9804 0.9804 0.9804
v -0.500000 2.200000 -0.100000 0.8784 0.8784 0.8784
v -0.500000 2.200000 0.100000 0.8784 0.8784 0.8784
vn -0.0000 -0.0000 1.0000
vn -0.0000 -0.0000 -1.0000
vn -0.0000 1.0000 -0.0000
vn 1.0000 -0.0000 -0.0000
vt 0.312744 0.937744
vt 0.343750 0.937744
vt 0.343750 0.999756
vt 0.312744 0.999756
vt 0.249756 0.999756
vt 0.218750 0.999756
vt 0.218750 0.937744
vt 0.249756 0.937744
vt 0.375244 0.937744
vt 0.406250 0.937744
vt 0.406250 0.999756
vt 0.375244 0.999756
vt 0.187256 0.999756
vt 0.156250 0.999756
vt 0.156250 0.937744
vt 0.187256 0.937744
vt 0.406250 0.950146
vt 0.375244 0.950146
vt 0.325146 0.937744
vt 0.325146 0.999756
vt 0.387646 0.937744
vt 0.387646 0.999756
vt 0.387646 0.950146
s 0
usemtl props
f 1/1/1 12/2/1 2/3/1 3/4/1
f 6/5/2 14/6/2 13/7/2 4/8/2
f 3/9/1 2/10/1 15/11/1 5/12/1
f 10/13/2 16/14/2 14/15/2 6/16/2
f 5/9/1 15/10/1 7/11/1 8/12/1
f 9/13/2 11/14/2 16/15/2 10/16/2
f 8/9/3 7/10/3 11/17/3 9/18/3
f 12/1/4 13/19/4 14/20/4 2/4/4
f 2/9/4 14/21/4 16/22/4 15/12/4
f 15/9/4 16/21/4 17/23/4 18/18/4
o wall_doorway_flat_1
v -0.500000 2.200000 0.100000 0.9490 0.9490 0.9490
v -0.500000 3.000000 0.100000 1.0000 1.0000 1.0000
v 0.500000 2.200000 0.100000 0.9490 0.9490 0.9490
v 0.500000 2.200000 -0.100000 0.9490 0.9490 0.9490
v -0.500000 3.000000 -0.100000 1.0000 1.0000 1.0000
v 0.000000 3.000000 0.100000 1.0000 1.0000 1.0000
v 0.500000 3.000000 0.100000 1.0000 1.0000 1.0000
v 0.500000 3.000000 -0.100000 1.0000 1.0000 1.0000
v 0.000000 3.000000 -0.100000 1.0000 1.0000 1.0000
v -0.500000 2.200000 -0.100000 0.9490 0.9490 0.9490
v 0.000000 2.200000 -0.100000 1.0000 1.0000 1.0000
v 0.000000 2.200000 0.100000 1.0000 1.0000 1.0000
vn -0.0000 -0.0000 1.0000
vn -0.0000 -0.0000 -1.0000
vn -0.0000 1.0000 -0.0000
vn -0.0000 -1.0000 -0.0000
vt 0.406250 0.950146
vt 0.437256 0.950146
vt 0.437256 0.999756
vt 0.406250 0.999756
vt 0.156250 0.999756
vt 0.125244 0.999756
vt 0.125244 0.950146
vt 0.156250 0.950146
vt 0.375244 0.950146
vt 0.375244 0.999756
vt 0.187256 0.999756
vt 0.187256 0.950146
vt 0.406250 0.937744
vt 0.437256 0.937744
vt 0.375244 0.937744
s 0
usemtl props
f 19/24/5 30/25/5 24/26/5 20/27/5
f 23/28/6 27/29/6 29/30/6 28/31/6
f 30/32/5 21/24/5 25/27/5 24/33/5
f 27/34/6 26/28/6 22/31/6 29/35/6
f 20/36/7 24/37/7 27/25/7 23/24/7
f 24/38/7 25/36/7 26/24/7 27/32/7
f 28/24/8 29/25/8 30/37/8 19/36/8
f 29/32/8 22/24/8 21/36/8 30/38/8
o wall_doorway_flat_2
v 1.000000 0.000000 0.100000 0.8470 0.8470 0.8470
v 1.000000 1.000000 0.100000 1.0000 1.0000 1.0000
v 1.000000 0.000000 -0.100000 0.8509 0.8509 0.8509
v 0.500000 1.000000 0.100000 1.0000 1.0000 1.0000
v 1.000000 2.000000 0.100000 1.0000 1.0000 1.0000
v 1.000000 1.000000 -0.100000 1.0000 1.0000 1.0000
v 1.000000 3.000000 0.100000 1.0000 1.0000 1.0000
v 0.500000 3.000000 -0.100000 1.0000 1.0000 1.0000
v 1.000000 3.000000 -0.100000 1.0000 1.0000 1.0000
v 1.000000 2.000000 -0.100000 1.0000 1.0000 1.0000
v 0.500000 2.000000 -0.100000 0.9764 0.9764 0.9764
v 0.500000 3.000000 0.100000 1.0000 1.0000 1.0000
v 0.500000 0.000000 -0.100000 0.8470 0.8470 0.8470
v 0.500000 0.000000 0.100000 0.8470 0.8470 0.8470
v 0.500000 1.000000 -0.100000 1.0000 1.0000 1.0000
v 0.500000 2.000000 0.100000 0.9843 0.9843 0.9843
v 0.500000 2.200000 0.100000 0.8862 0.8862 0.8862
v 0.500000 2.200000 -0.100000 0.8784 0.8784 0.8784
vn -0.0000 -0.0000 1.0000
vn -0.0000 -0.0000 -1.0000
vn -0.0000 1.0000 -0.0000
vn -1.0000 -0.0000 -0.0000
vt 0.343750 0.937744
vt 0.374756 0.937744
vt 0.374756 0.999756
vt 0.343750 0.999756
vt 0.218750 0.999756
vt 0.187744 0.999756
vt 0.187744 0.937744
vt 0.218750 0.937744
vt 0.406250 0.937744
vt 0.437256 0.937744
vt 0.437256 0.999756
vt 0.406250 0.999756
vt 0.156250 0.999756
vt 0.125244 0.999756
vt 0.125244 0.937744
vt 0.156250 0.937744
vt 0.437256 0.950146
vt 0.406250 0.950146
vt 0.200146 0.937744
vt 0.200146 0.999756
vt 0.137646 0.937744
vt 0.137646 0.999756
vt 0.137646 0.950146
vt 0.125244 0.950146
s 0
usemtl props
f 44/39/9 31/40/9 32/41/9 34/42/9
f 45/43/10 36/44/10 33/45/10 43/46/10
f 34/47/9 32/48/9 35/49/9 46/50/9
f 41/51/10 40/52/10 36/53/10 45/54/10
f 46/47/9 35/48/9 37/49/9 42/50/9
f 38/51/10 39/52/10 40/53/10 41/54/10
f 42/47/11 37/48/11 39/55/11 38/56/11
f 43/45/12 44/57/12 34/58/12 45/44/12
f 45/53/12 34/59/12 46/60/12 41/52/12
f 41/53/12 46/59/12 47/61/12 48/62/12
