# Blender 4.5.14 LTS
# www.blender.org
mtllib window_sash.mtl
o window_sash
v -0.580000 0.785000 0.160000 1.0000 1.0000 1.0000
v 0.580000 0.785000 0.160000 1.0000 1.0000 1.0000
v 0.580000 0.785000 -0.120000 1.0000 1.0000 1.0000
v -0.580000 0.835000 -0.120000 0.9764 0.9764 0.9764
v -0.580000 0.835000 0.160000 0.9804 0.9804 0.9804
v 0.580000 0.835000 -0.120000 0.9804 0.9804 0.9804
v 0.580000 0.835000 0.160000 0.9804 0.9804 0.9804
v -0.580000 0.785000 -0.120000 1.0000 1.0000 1.0000
v -0.500000 2.300000 -0.080000 0.9019 0.9019 0.9019
v -0.560000 0.800000 0.020000 0.7020 0.7020 0.7020
v -0.500000 2.300000 0.020000 0.8980 0.8980 0.8980
v -0.560000 0.800000 -0.080000 0.7020 0.7020 0.7020
v -0.500000 0.800000 -0.080000 0.7020 0.7020 0.7020
v -0.500000 0.800000 0.020000 0.7020 0.7020 0.7020
v 0.560000 0.800000 -0.080000 0.7020 0.7020 0.7020
v 0.500000 0.800000 0.020000 0.7020 0.7020 0.7020
v 0.500000 2.300000 -0.080000 0.8980 0.8980 0.8980
v 0.560000 0.800000 0.020000 0.7020 0.7020 0.7020
v 0.500000 2.300000 0.020000 0.8980 0.8980 0.8980
v 0.500000 0.800000 -0.080000 0.7020 0.7020 0.7020
v 0.560000 2.300000 0.020000 1.0000 1.0000 1.0000
v 0.560000 2.240000 -0.080000 0.9019 0.9019 0.9019
v -0.560000 2.240000 -0.080000 0.8980 0.8980 0.8980
v -0.560000 2.300000 -0.080000 1.0000 1.0000 1.0000
v 0.560000 2.300000 -0.080000 1.0000 1.0000 1.0000
v -0.560000 2.300000 0.020000 1.0000 1.0000 1.0000
v 0.560000 2.240000 0.020000 0.9019 0.9019 0.9019
v -0.560000 2.240000 0.020000 0.9019 0.9019 0.9019
v 0.500000 1.550000 -0.020000 0.7020 0.7020 0.7020
v -0.500000 1.550000 -0.060000 0.7725 0.7725 0.7725
v 0.500000 1.550000 -0.060000 0.7686 0.7686 0.7686
v 0.500000 1.500000 -0.020000 0.7294 0.7294 0.7294
v -0.500000 1.550000 -0.020000 0.7020 0.7020 0.7020
v 0.500000 2.230000 -0.020000 0.7412 0.7412 0.7412
v -0.500000 2.230000 -0.060000 0.7568 0.7568 0.7568
v 0.500000 2.230000 -0.060000 0.7529 0.7529 0.7529
v 0.500000 2.270000 -0.060000 0.7020 0.7020 0.7020
v -0.500000 2.270000 -0.020000 0.7020 0.7020 0.7020
v -0.500000 2.270000 -0.060000 0.7020 0.7020 0.7020
v -0.500000 2.230000 -0.020000 0.7372 0.7372 0.7372
v -0.450000 1.500000 -0.060000 0.8431 0.8431 0.8431
v -0.500000 1.500000 -0.060000 0.7921 0.7921 0.7921
v -0.450000 2.270000 -0.020000 0.7020 0.7020 0.7020
v -0.450000 2.270000 -0.060000 0.7020 0.7020 0.7020
v -0.450000 1.500000 -0.020000 0.7372 0.7372 0.7372
v -0.500000 1.500000 -0.020000 0.7255 0.7255 0.7255
v 0.500000 1.500000 -0.060000 0.7882 0.7882 0.7882
v 0.450000 1.500000 -0.060000 0.8392 0.8392 0.8392
v 0.450000 2.270000 -0.020000 0.7020 0.7020 0.7020
v 0.500000 2.270000 -0.020000 0.7020 0.7020 0.7020
v 0.450000 2.270000 -0.060000 0.7020 0.7020 0.7020
v 0.450000 1.500000 -0.020000 0.7372 0.7372 0.7372
v -0.012500 1.500000 -0.020000 0.7529 0.7529 0.7529
v 0.012500 1.500000 -0.020000 0.7529 0.7529 0.7529
v 0.012500 2.270000 -0.020000 0.7020 0.7020 0.7020
v -0.012500 2.270000 -0.020000 0.7020 0.7020 0.7020
v -0.012500 1.500000 -0.060000 0.8549 0.8549 0.8549
v -0.012500 2.270000 -0.060000 0.7020 0.7020 0.7020
v 0.012500 2.270000 -0.060000 0.7020 0.7020 0.7020
v 0.012500 1.500000 -0.060000 0.8549 0.8549 0.8549
v -0.475000 1.540000 -0.040000 0.7020 0.7020 0.7020
v 0.475000 1.540000 -0.040000 0.7020 0.7020 0.7020
v 0.475000 2.220000 -0.040000 0.7020 0.7020 0.7020
v -0.475000 2.220000 -0.040000 0.7020 0.7020 0.7020
v 0.475000 1.540000 -0.040200 0.7020 0.7020 0.7020
v -0.475000 1.540000 -0.040200 0.7020 0.7020 0.7020
v -0.475000 2.220000 -0.040200 0.7020 0.7020 0.7020
v 0.475000 2.220000 -0.040200 0.7020 0.7020 0.7020
vn -0.0000 -0.0000 1.0000
vn -0.0000 -0.0000 -1.0000
vn -1.0000 -0.0000 -0.0000
vn 1.0000 -0.0000 -0.0000
vn -0.0000 1.0000 -0.0000
vn -0.0000 -1.0000 -0.0000
vt 0.656494 0.968994
vt 0.687256 0.968994
vt 0.687256 0.970320
vt 0.656494 0.970320
vt 0.673721 0.968994
vt 0.673721 0.972070
vt 0.656494 0.972070
vt 0.687256 0.976419
vt 0.656494 0.976419
vt 0.657725 0.968994
vt 0.657725 0.999756
vt 0.656494 0.999756
vt 0.658545 0.968994
vt 0.658545 0.999756
vt 0.660186 0.968994
vt 0.660186 0.975146
vt 0.656494 0.975146
vt 0.687256 0.970642
vt 0.656494 0.970642
vt 0.662646 0.968994
vt 0.662646 0.972686
vt 0.656494 0.972686
vt 0.687256 0.971741
vt 0.656494 0.971741
vt 0.687256 0.970532
vt 0.656494 0.970532
vt 0.658955 0.968994
vt 0.658955 0.972070
vt 0.687256 0.970225
vt 0.656494 0.970225
vt 0.658955 0.971455
vt 0.656494 0.971455
vt 0.658492 0.968994
vt 0.658492 0.999756
vt 0.658092 0.968994
vt 0.658092 0.999756
vt 0.659570 0.968994
vt 0.659570 0.971455
vt 0.657493 0.968994
vt 0.657493 0.999756
vt 0.658032 0.968994
vt 0.658032 0.971455
vt 0.625244 0.968994
vt 0.656006 0.968994
vt 0.656006 0.999756
vt 0.625244 0.999756
s 0
usemtl props
f 1/1/1 2/2/1 7/3/1 5/4/1
f 3/1/2 8/2/2 4/3/2 6/4/2
f 8/1/3 1/5/3 5/6/3 4/7/3
f 2/1/4 3/5/4 6/6/4 7/7/4
f 5/1/5 7/2/5 6/8/5 4/9/5
f 8/1/6 3/2/6 2/8/6 1/9/6
f 10/1/1 14/10/1 11/11/1 26/12/1
f 13/1/2 12/10/2 24/11/2 9/12/2
f 12/1/3 10/13/3 26/14/3 24/12/3
f 14/1/4 13/13/4 9/14/4 11/12/4
f 26/1/5 11/15/5 9/16/5 24/17/5
f 12/1/6 13/15/6 14/16/6 10/17/6
f 16/1/1 18/10/1 21/11/1 19/12/1
f 15/1/2 20/10/2 17/11/2 25/12/2
f 20/1/3 16/13/3 19/14/3 17/12/3
f 18/1/4 15/13/4 25/14/4 21/12/4
f 19/1/5 21/15/5 25/16/5 17/17/5
f 20/1/6 15/15/6 18/16/6 16/17/6
f 28/1/1 27/2/1 21/18/1 26/19/1
f 22/1/2 23/2/2 24/18/2 25/19/2
f 23/1/3 28/20/3 26/21/3 24/22/3
f 27/1/4 22/20/4 25/21/4 21/22/4
f 26/1/5 21/2/5 25/23/5 24/24/5
f 23/1/6 22/2/6 27/23/6 28/24/6
f 46/1/1 32/2/1 29/25/1 33/26/1
f 47/1/2 42/2/2 30/25/2 31/26/2
f 42/1/3 46/27/3 33/28/3 30/7/3
f 32/1/4 47/27/4 31/28/4 29/7/4
f 33/1/5 29/2/5 31/29/5 30/30/5
f 42/1/6 47/2/6 32/29/6 46/30/6
f 40/1/1 34/2/1 50/29/1 38/30/1
f 36/1/2 35/2/2 39/29/2 37/30/2
f 35/1/3 40/27/3 38/31/3 39/32/3
f 34/1/4 36/27/4 37/31/4 50/32/4
f 38/1/5 50/2/5 37/29/5 39/30/5
f 35/1/6 36/2/6 34/29/6 40/30/6
f 46/1/1 45/33/1 43/34/1 38/12/1
f 41/1/2 42/33/2 39/34/2 44/12/2
f 42/1/3 46/35/3 38/36/3 39/12/3
f 45/1/4 41/35/4 44/36/4 43/12/4
f 38/1/5 43/37/5 44/38/5 39/32/5
f 42/1/6 41/37/6 45/38/6 46/32/6
f 52/1/1 32/33/1 50/34/1 49/12/1
f 47/1/2 48/33/2 51/34/2 37/12/2
f 48/1/3 52/35/3 49/36/3 51/12/3
f 32/1/4 47/35/4 37/36/4 50/12/4
f 49/1/5 50/37/5 37/38/5 51/32/5
f 48/1/6 47/37/6 32/38/6 52/32/6
f 53/1/1 54/39/1 55/40/1 56/12/1
f 60/1/2 57/39/2 58/40/2 59/12/2
f 57/1/3 53/35/3 56/36/3 58/12/3
f 54/1/4 60/35/4 59/36/4 55/12/4
f 56/1/5 55/41/5 59/42/5 58/32/5
f 57/1/6 60/41/6 54/42/6 53/32/6
f 61/43/1 62/44/1 63/45/1 64/46/1
f 65/43/2 66/44/2 67/45/2 68/46/2
o window_sash_lower
v -0.500000 0.880000 0.030000 0.8078 0.8078 0.8078
v 0.500000 0.830000 0.030000 0.7372 0.7372 0.7372
v 0.500000 0.880000 0.030000 0.8078 0.8078 0.8078
v 0.500000 0.880000 -0.010000 0.7372 0.7372 0.7372
v -0.500000 0.880000 -0.010000 0.7372 0.7372 0.7372
v -0.500000 1.600000 -0.010000 0.7294 0.7294 0.7294
v 0.500000 1.600000 0.030000 0.9058 0.9058 0.9058
v -0.500000 1.560000 -0.010000 0.7020 0.7020 0.7020
v 0.500000 1.560000 -0.010000 0.7020 0.7020 0.7020
v 0.500000 1.560000 0.030000 0.8549 0.8549 0.8549
v -0.500000 1.560000 0.030000 0.8549 0.8549 0.8549
v -0.500000 0.830000 0.030000 0.7372 0.7372 0.7372
v -0.500000 1.600000 0.030000 0.9098 0.9098 0.9098
v -0.450000 0.830000 0.030000 0.7490 0.7490 0.7490
v -0.450000 1.600000 0.030000 0.8549 0.8549 0.8549
v -0.450000 1.600000 -0.010000 0.7412 0.7412 0.7412
v -0.500000 0.830000 -0.010000 0.7137 0.7137 0.7137
v -0.450000 0.830000 -0.010000 0.7412 0.7412 0.7412
v 0.450000 0.830000 0.030000 0.7490 0.7490 0.7490
v 0.450000 0.830000 -0.010000 0.7412 0.7412 0.7412
v 0.500000 0.830000 -0.010000 0.7137 0.7137 0.7137
v 0.450000 1.600000 0.030000 0.8509 0.8509 0.8509
v 0.500000 1.600000 -0.010000 0.7294 0.7294 0.7294
v 0.450000 1.600000 -0.010000 0.7412 0.7412 0.7412
v -0.012500 0.830000 0.030000 0.7490 0.7490 0.7490
v 0.012500 0.830000 0.030000 0.7490 0.7490 0.7490
v -0.012500 1.600000 -0.010000 0.7490 0.7490 0.7490
v -0.012500 0.830000 -0.010000 0.7490 0.7490 0.7490
v 0.012500 0.830000 -0.010000 0.7490 0.7490 0.7490
v 0.012500 1.600000 0.030000 0.8549 0.8549 0.8549
v -0.012500 1.600000 0.030000 0.8549 0.8549 0.8549
v 0.012500 1.600000 -0.010000 0.7490 0.7490 0.7490
v -0.475000 0.870000 0.010000 0.7020 0.7020 0.7020
v 0.475000 0.870000 0.010000 0.7020 0.7020 0.7020
v 0.475000 1.550000 0.010000 0.7020 0.7020 0.7020
v -0.475000 1.550000 0.010000 0.7020 0.7020 0.7020
v 0.475000 0.870000 0.009800 0.7020 0.7020 0.7020
v -0.475000 0.870000 0.009800 0.7020 0.7020 0.7020
v -0.475000 1.550000 0.009800 0.7020 0.7020 0.7020
v 0.475000 1.550000 0.009800 0.7020 0.7020 0.7020
vn -0.0000 -0.0000 1.0000
vn -0.0000 -0.0000 -1.0000
vn -1.0000 -0.0000 -0.0000
vn 1.0000 -0.0000 -0.0000
vn -0.0000 1.0000 -0.0000
vn -0.0000 -1.0000 -0.0000
vt 0.656494 0.968994
vt 0.687256 0.968994
vt 0.687256 0.970532
vt 0.656494 0.970532
vt 0.658955 0.968994
vt 0.658955 0.972070
vt 0.656494 0.972070
vt 0.687256 0.970225
vt 0.656494 0.970225
vt 0.658955 0.971455
vt 0.656494 0.971455
vt 0.658492 0.968994
vt 0.658492 0.999756
vt 0.656494 0.999756
vt 0.658092 0.968994
vt 0.658092 0.999756
vt 0.659570 0.968994
vt 0.659570 0.971455
vt 0.657493 0.968994
vt 0.657493 0.999756
vt 0.658032 0.968994
vt 0.658032 0.971455
vt 0.625244 0.968994
vt 0.656006 0.968994
vt 0.656006 0.999756
vt 0.625244 0.999756
s 0
usemtl props
f 80/47/7 70/48/7 71/49/7 69/50/7
f 89/47/8 85/48/8 73/49/8 72/50/8
f 85/47/9 80/51/9 69/52/9 73/53/9
f 70/47/10 89/51/10 72/52/10 71/53/10
f 69/47/11 71/48/11 72/54/11 73/55/11
f 85/47/12 89/48/12 70/54/12 80/55/12
f 79/47/7 78/48/7 75/54/7 81/55/7
f 77/47/8 76/48/8 74/54/8 91/55/8
f 76/47/9 79/51/9 81/56/9 74/57/9
f 78/47/10 77/51/10 91/56/10 75/57/10
f 81/47/11 75/48/11 91/54/11 74/55/11
f 76/47/12 77/48/12 78/54/12 79/55/12
f 80/47/7 82/58/7 83/59/7 81/60/7
f 86/47/8 85/58/8 74/59/8 84/60/8
f 85/47/9 80/61/9 81/62/9 74/60/9
f 82/47/10 86/61/10 84/62/10 83/60/10
f 81/47/11 83/63/11 84/64/11 74/57/11
f 85/47/12 86/63/12 82/64/12 80/57/12
f 87/47/7 70/58/7 75/59/7 90/60/7
f 89/47/8 88/58/8 92/59/8 91/60/8
f 88/47/9 87/61/9 90/62/9 92/60/9
f 70/47/10 89/61/10 91/62/10 75/60/10
f 90/47/11 75/63/11 91/64/11 92/57/11
f 88/47/12 89/63/12 70/64/12 87/57/12
f 93/47/7 94/65/7 98/66/7 99/60/7
f 97/47/8 96/65/8 95/66/8 100/60/8
f 96/47/9 93/61/9 99/62/9 95/60/9
f 94/47/10 97/61/10 100/62/10 98/60/10
f 99/47/11 98/67/11 100/68/11 95/57/11
f 96/47/12 97/67/12 94/68/12 93/57/12
f 101/69/7 102/70/7 103/71/7 104/72/7
f 105/69/8 106/70/8 107/71/8 108/72/8
