# Blender 4.0.2
# www.blender.org
mtllib CoffeeMug.mtl
o CoffeeMug
v 0.000000 0.011476 0.000000
v -0.039007 0.011476 0.000000
v -0.043800 0.014556 0.000000
v -0.043800 0.102860 0.000000
v -0.045795 0.110487 0.000000
v -0.059397 0.112898 0.000000
v -0.062088 0.111454 0.000000
v -0.058760 0.104439 0.000000
v -0.058760 0.004085 0.000000
v -0.052666 0.000183 0.000000
v 0.000000 0.000000 0.000000
v -0.033781 0.011476 0.019504
v -0.037932 0.014556 0.021900
v -0.037932 0.102860 0.021900
v -0.039660 0.110487 0.022898
v -0.051440 0.112898 0.029699
v -0.053770 0.111454 0.031044
v -0.050887 0.104439 0.029380
v -0.050887 0.004085 0.029380
v -0.045610 0.000183 0.026333
v -0.019504 0.011476 0.033781
v -0.021900 0.014556 0.037932
v -0.021900 0.102860 0.037932
v -0.022898 0.110487 0.039660
v -0.029699 0.112898 0.051440
v -0.031044 0.111454 0.053770
v -0.029380 0.104439 0.050887
v -0.029380 0.004085 0.050887
v -0.026333 0.000183 0.045610
v 0.000000 0.011476 0.039007
v 0.000000 0.014556 0.043800
v 0.000000 0.102860 0.043800
v 0.000000 0.110487 0.045795
v 0.000000 0.112898 0.059397
v 0.000000 0.111454 0.062088
v 0.000000 0.104439 0.058760
v 0.000000 0.004085 0.058760
v 0.000000 0.000183 0.052666
v 0.019504 0.011476 0.033781
v 0.021900 0.014556 0.037932
v 0.021900 0.102860 0.037932
v 0.022898 0.110487 0.039660
v 0.029699 0.112898 0.051440
v 0.031044 0.111454 0.053770
v 0.029380 0.104439 0.050887
v 0.029380 0.004085 0.050887
v 0.026333 0.000183 0.045610
v 0.033781 0.011476 0.019504
v 0.037932 0.014556 0.021900
v 0.037932 0.102860 0.021900
v 0.039660 0.110487 0.022898
v 0.051440 0.112898 0.029699
v 0.053770 0.111454 0.031044
v 0.050887 0.104439 0.029380
v 0.050887 0.004085 0.029380
v 0.045610 0.000183 0.026333
v 0.039007 0.011476 -0.000000
v 0.043800 0.014556 -0.000000
v 0.043800 0.102860 0.000000
v 0.045795 0.110487 0.000000
v 0.059397 0.112898 0.000000
v 0.062088 0.111454 0.000000
v 0.058760 0.104439 0.000000
v 0.058760 0.004085 -0.000000
v 0.052666 0.000183 -0.000000
v 0.033781 0.011476 -0.019504
v 0.037932 0.014556 -0.021900
v 0.037932 0.102860 -0.021900
v 0.039660 0.110487 -0.022898
v 0.051440 0.112898 -0.029699
v 0.053770 0.111454 -0.031044
v 0.050887 0.104439 -0.029380
v 0.050887 0.004085 -0.029380
v 0.045610 0.000183 -0.026333
v 0.019504 0.011476 -0.033781
v 0.021900 0.014556 -0.037932
v 0.021900 0.102860 -0.037932
v 0.022898 0.110487 -0.039660
v 0.029699 0.112898 -0.051440
v 0.031044 0.111454 -0.053770
v 0.029380 0.104439 -0.050887
v 0.029380 0.004085 -0.050887
v 0.026333 0.000183 -0.045610
v -0.000000 0.011476 -0.039007
v -0.000000 0.014556 -0.043800
v -0.000000 0.102860 -0.043800
v -0.000000 0.110487 -0.045795
v -0.000000 0.112898 -0.059397
v -0.000000 0.111454 -0.062088
v -0.000000 0.104439 -0.058760
v -0.000000 0.004085 -0.058760
v -0.000000 0.000183 -0.052666
v -0.019504 0.011476 -0.033781
v -0.021900 0.014556 -0.037932
v -0.021900 0.102860 -0.037932
v -0.022898 0.110487 -0.039660
v -0.029699 0.112898 -0.051440
v -0.031044 0.111454 -0.053770
v -0.029380 0.104439 -0.050887
v -0.029380 0.004085 -0.050887
v -0.026333 0.000183 -0.045610
v -0.033781 0.011476 -0.019504
v -0.037932 0.014556 -0.021900
v -0.037932 0.102860 -0.021900
v -0.039660 0.110487 -0.022898
v -0.051440 0.112898 -0.029699
v -0.053770 0.111454 -0.031044
v -0.050887 0.104439 -0.029380
v -0.050887 0.004085 -0.029380
v -0.045610 0.000183 -0.026333
vn -0.0000 1.0000 -0.0000
vn 0.3238 0.9461 -0.0000
vn 0.2804 0.9461 -0.1619
vn 0.1619 0.9461 -0.2804
vn -0.0000 0.9461 -0.3238
vn -0.1619 0.9461 -0.2804
vn -0.2804 0.9461 -0.1619
vn -0.3238 0.9461 -0.0000
vn -0.2804 0.9461 0.1619
vn -0.1619 0.9461 0.2804
vn -0.0000 0.9461 0.3238
vn 0.1619 0.9461 0.2804
vn 0.2804 0.9461 0.1619
vn 0.7739 0.4488 -0.4468
vn 0.4468 0.4488 -0.7739
vn -0.0000 0.4488 -0.8937
vn -0.4468 0.4488 -0.7739
vn -0.7739 0.4488 -0.4468
vn -0.8937 0.4488 -0.0000
vn -0.4468 0.4488 0.7739
vn -0.0000 0.4488 0.8937
vn 0.4468 0.4488 0.7739
vn 0.7739 0.4488 0.4468
vn 0.9915 0.1303 -0.0000
vn 0.8937 0.4488 -0.0000
vn 0.8586 0.1303 -0.4957
vn 0.4957 0.1303 -0.8586
vn -0.0000 0.1303 -0.9915
vn -0.4957 0.1303 -0.8586
vn -0.8586 0.1303 -0.4957
vn -0.9915 0.1303 -0.0000
vn -0.7739 0.4488 0.4468
vn -0.8586 0.1303 0.4957
vn -0.0000 0.1303 0.9915
vn 0.8586 0.1303 0.4957
vn 0.6235 0.7818 -0.0000
vn 0.3118 0.7818 -0.5400
vn -0.0000 0.7818 -0.6235
vn -0.5400 0.7818 -0.3118
vn -0.6235 0.7818 -0.0000
vn -0.5400 0.7818 0.3118
vn -0.4957 0.1303 0.8586
vn -0.0000 0.7818 0.6235
vn 0.4957 0.1303 0.8586
vn 0.3118 0.7818 0.5400
vn 0.5400 0.7818 0.3118
vn -0.2101 0.9777 -0.0000
vn 0.5400 0.7818 -0.3118
vn -0.1819 0.9777 0.1050
vn -0.1050 0.9777 0.1819
vn -0.0000 0.9777 0.2101
vn -0.3118 0.7818 -0.5400
vn 0.1050 0.9777 0.1819
vn 0.1819 0.9777 0.1050
vn 0.2101 0.9777 -0.0000
vn 0.1819 0.9777 -0.1050
vn -0.3118 0.7818 0.5400
vn 0.1050 0.9777 -0.1819
vn -0.0000 0.9777 -0.2101
vn -0.1050 0.9777 -0.1819
vn -0.9591 0.2831 -0.0000
vn -0.8306 0.2831 0.4795
vn -0.4795 0.2831 0.8306
vn -0.0000 0.2831 0.9591
vn 0.4795 0.2831 0.8306
vn 0.8306 0.2831 0.4795
vn 0.8306 0.2831 -0.4795
vn -0.0000 0.2831 -0.9591
vn -0.4795 0.2831 -0.8306
vn -0.1819 0.9777 -0.1050
vn -0.8306 0.2831 -0.4795
vn -0.9737 -0.2279 -0.0000
vn -0.4868 -0.2279 0.8432
vn -0.0000 -0.2279 0.9737
vn 0.4868 -0.2279 0.8432
vn 0.8432 -0.2279 0.4868
vn 0.9591 0.2831 -0.0000
vn 0.8432 -0.2279 -0.4868
vn 0.4795 0.2831 -0.8306
vn -0.0000 -0.2279 -0.9737
vn -0.8432 -0.2279 -0.4868
vn -0.8933 -0.4494 -0.0000
vn -0.8432 -0.2279 0.4868
vn -0.7736 -0.4494 0.4467
vn -0.4467 -0.4494 0.7736
vn -0.0000 -0.4494 0.8933
vn 0.7736 -0.4494 0.4467
vn 0.9737 -0.2279 -0.0000
vn 0.8933 -0.4494 -0.0000
vn 0.7736 -0.4494 -0.4467
vn 0.4868 -0.2279 -0.8432
vn 0.4467 -0.4494 -0.7736
vn -0.0000 -0.4494 -0.8933
vn -0.4868 -0.2279 -0.8432
vn -0.4467 -0.4494 -0.7736
vn -0.7736 -0.4494 -0.4467
vn -0.2808 -0.9460 0.1621
vn -0.1621 -0.9460 0.2808
vn -0.0000 -0.9460 0.3242
vn 0.4467 -0.4494 0.7736
vn 0.1621 -0.9460 0.2808
vn 0.2808 -0.9460 0.1621
vn 0.3242 -0.9460 -0.0000
vn 0.2808 -0.9460 -0.1621
vn 0.1621 -0.9460 -0.2808
vn -0.0000 -0.9460 -0.3242
vn -0.1621 -0.9460 -0.2808
vn -0.2808 -0.9460 -0.1621
vn -0.3242 -0.9460 -0.0000
vn -0.0000 -1.0000 -0.0000
vt 0.041667 0.046882
vt 0.000000 0.046882
vt 0.083333 0.046882
vt 0.125000 0.046882
vt 0.166667 0.046882
vt 0.208333 0.046882
vt 0.250000 0.046882
vt 0.291667 0.046882
vt 0.333333 0.046882
vt 0.375000 0.046882
vt 0.416667 0.046882
vt 0.458333 0.046882
vt 0.500000 0.046882
vt 0.541667 0.046882
vt 0.583333 0.046882
vt 0.625000 0.046882
vt 0.666667 0.046882
vt 0.708333 0.046882
vt 0.750000 0.046882
vt 0.791667 0.046882
vt 0.833333 0.046882
vt 0.875000 0.046882
vt 0.916667 0.046882
vt 0.958333 0.046882
vt 1.000000 0.046882
vt 0.083333 0.059465
vt 0.166667 0.059465
vt 0.250000 0.059465
vt 0.333333 0.059465
vt 0.416667 0.059465
vt 0.500000 0.059465
vt 0.666667 0.059465
vt 0.750000 0.059465
vt 0.833333 0.059465
vt 0.916667 0.059465
vt 0.000000 0.420216
vt 0.000000 0.059465
vt 0.083333 0.420216
vt 0.166667 0.420216
vt 0.250000 0.420216
vt 0.333333 0.420216
vt 0.416667 0.420216
vt 0.500000 0.420216
vt 0.583333 0.059465
vt 0.583333 0.420216
vt 0.750000 0.420216
vt 0.916667 0.420216
vt 1.000000 0.059465
vt 0.000000 0.451378
vt 0.166667 0.451378
vt 0.250000 0.451378
vt 0.416667 0.451378
vt 0.500000 0.451378
vt 0.583333 0.451378
vt 0.666667 0.420216
vt 0.750000 0.451378
vt 0.833333 0.420216
vt 0.833333 0.451378
vt 0.916667 0.451378
vt 1.000000 0.420216
vt 0.000000 0.461229
vt 0.083333 0.451378
vt 0.083333 0.461229
vt 0.166667 0.461229
vt 0.250000 0.461229
vt 0.333333 0.451378
vt 0.333333 0.461229
vt 0.416667 0.461229
vt 0.500000 0.461229
vt 0.583333 0.461229
vt 0.666667 0.451378
vt 0.666667 0.461229
vt 0.750000 0.461229
vt 0.833333 0.461229
vt 1.000000 0.461229
vt 1.000000 0.451378
vt 0.000000 0.455329
vt 0.083333 0.455329
vt 0.166667 0.455329
vt 0.250000 0.455329
vt 0.333333 0.455329
vt 0.416667 0.455329
vt 0.583333 0.455329
vt 0.750000 0.455329
vt 0.833333 0.455329
vt 0.916667 0.461229
vt 0.916667 0.455329
vt 0.000000 0.426668
vt 0.166667 0.426668
vt 0.250000 0.426668
vt 0.333333 0.426668
vt 0.416667 0.426668
vt 0.500000 0.455329
vt 0.583333 0.426668
vt 0.666667 0.455329
vt 0.750000 0.426668
vt 0.916667 0.426668
vt 1.000000 0.455329
vt 0.000000 0.016687
vt 0.083333 0.426668
vt 0.083333 0.016687
vt 0.166667 0.016687
vt 0.250000 0.016687
vt 0.416667 0.016687
vt 0.500000 0.426668
vt 0.500000 0.016687
vt 0.583333 0.016687
vt 0.666667 0.426668
vt 0.666667 0.016687
vt 0.750000 0.016687
vt 0.833333 0.426668
vt 0.833333 0.016687
vt 0.916667 0.016687
vt 1.000000 0.426668
vt 0.083333 0.000747
vt 0.166667 0.000747
vt 0.250000 0.000747
vt 0.333333 0.016687
vt 0.333333 0.000747
vt 0.416667 0.000747
vt 0.500000 0.000747
vt 0.583333 0.000747
vt 0.666667 0.000747
vt 0.750000 0.000747
vt 0.833333 0.000747
vt 0.916667 0.000747
vt 1.000000 0.016687
vt 0.000000 0.000747
vt 0.041667 -0.000000
vt 0.125000 -0.000000
vt 0.208333 -0.000000
vt 0.291667 -0.000000
vt 0.375000 -0.000000
vt 0.458333 -0.000000
vt 0.541667 -0.000000
vt 0.625000 -0.000000
vt 0.708333 -0.000000
vt 0.791667 -0.000000
vt 0.875000 -0.000000
vt 0.958333 -0.000000
vt 1.000000 0.000747
s 1
f 1/1/1 2/2/2 12/3/3
f 1/4/1 12/3/3 21/5/4
f 1/6/1 21/5/4 30/7/5
f 1/8/1 30/7/5 39/9/6
f 1/10/1 39/9/6 48/11/7
f 1/12/1 48/11/7 57/13/8
f 1/14/1 57/13/8 66/15/9
f 1/16/1 66/15/9 75/17/10
f 1/18/1 75/17/10 84/19/11
f 1/20/1 84/19/11 93/21/12
f 1/22/1 93/21/12 102/23/13
f 1/24/1 102/23/13 2/25/2
f 2/2/2 13/26/14 12/3/3
f 13/26/14 21/5/4 12/3/3
f 22/27/15 30/7/5 21/5/4
f 31/28/16 39/9/6 30/7/5
f 40/29/17 48/11/7 39/9/6
f 49/30/18 57/13/8 48/11/7
f 58/31/19 66/15/9 57/13/8
f 66/15/9 76/32/20 75/17/10
f 76/32/20 84/19/11 75/17/10
f 85/33/21 93/21/12 84/19/11
f 94/34/22 102/23/13 93/21/12
f 103/35/23 2/25/2 102/23/13
f 4/36/24 13/26/14 3/37/25
f 14/38/26 22/27/15 13/26/14
f 23/39/27 31/28/16 22/27/15
f 32/40/28 40/29/17 31/28/16
f 41/41/29 49/30/18 40/29/17
f 50/42/30 58/31/19 49/30/18
f 59/43/31 67/44/32 58/31/19
f 68/45/33 76/32/20 67/44/32
f 76/32/20 86/46/34 85/33/21
f 86/46/34 94/34/22 85/33/21
f 94/34/22 104/47/35 103/35/23
f 104/47/35 3/48/25 103/35/23
f 5/49/36 14/38/26 4/36/24
f 14/38/26 24/50/37 23/39/27
f 24/50/37 32/40/28 23/39/27
f 33/51/38 41/41/29 32/40/28
f 41/41/29 51/52/39 50/42/30
f 50/42/30 60/53/40 59/43/31
f 60/53/40 68/45/33 59/43/31
f 69/54/41 77/55/42 68/45/33
f 77/55/42 87/56/43 86/46/34
f 87/56/43 95/57/44 86/46/34
f 96/58/45 104/47/35 95/57/44
f 105/59/46 4/60/24 104/47/35
f 6/61/47 15/62/48 5/49/36
f 16/63/49 24/50/37 15/62/48
f 25/64/50 33/51/38 24/50/37
f 34/65/51 42/66/52 33/51/38
f 43/67/53 51/52/39 42/66/52
f 52/68/54 60/53/40 51/52/39
f 61/69/55 69/54/41 60/53/40
f 70/70/56 78/71/57 69/54/41
f 79/72/58 87/56/43 78/71/57
f 88/73/59 96/58/45 87/56/43
f 97/74/60 105/59/46 96/58/45
f 105/59/46 6/75/47 5/76/36
f 7/77/61 16/63/49 6/61/47
f 17/78/62 25/64/50 16/63/49
f 26/79/63 34/65/51 25/64/50
f 35/80/64 43/67/53 34/65/51
f 44/81/65 52/68/54 43/67/53
f 53/82/66 61/69/55 52/68/54
f 61/69/55 71/83/67 70/70/56
f 71/83/67 79/72/58 70/70/56
f 79/72/58 89/84/68 88/73/59
f 89/84/68 97/74/60 88/73/59
f 98/85/69 106/86/70 97/74/60
f 107/87/71 6/75/47 106/86/70
f 8/88/72 17/78/62 7/77/61
f 17/78/62 27/89/73 26/79/63
f 26/79/63 36/90/74 35/80/64
f 35/80/64 45/91/75 44/81/65
f 44/81/65 54/92/76 53/82/66
f 54/92/76 62/93/77 53/82/66
f 62/93/77 72/94/78 71/83/67
f 72/94/78 80/95/79 71/83/67
f 80/95/79 90/96/80 89/84/68
f 90/96/80 98/85/69 89/84/68
f 98/85/69 108/97/81 107/87/71
f 108/97/81 7/98/61 107/87/71
f 9/99/82 18/100/83 8/88/72
f 19/101/84 27/89/73 18/100/83
f 28/102/85 36/90/74 27/89/73
f 37/103/86 45/91/75 36/90/74
f 45/91/75 55/104/87 54/92/76
f 55/104/87 63/105/88 54/92/76
f 64/106/89 72/94/78 63/105/88
f 73/107/90 81/108/91 72/94/78
f 82/109/92 90/96/80 81/108/91
f 91/110/93 99/111/94 90/96/80
f 100/112/95 108/97/81 99/111/94
f 109/113/96 8/114/72 108/97/81
f 9/99/82 20/115/97 19/101/84
f 20/115/97 28/102/85 19/101/84
f 29/116/98 37/103/86 28/102/85
f 38/117/99 46/118/100 37/103/86
f 47/119/101 55/104/87 46/118/100
f 56/120/102 64/106/89 55/104/87
f 65/121/103 73/107/90 64/106/89
f 74/122/104 82/109/92 73/107/90
f 83/123/105 91/110/93 82/109/92
f 92/124/106 100/112/95 91/110/93
f 101/125/107 109/113/96 100/112/95
f 110/126/108 9/127/82 109/113/96
f 10/128/109 11/129/110 20/115/97
f 20/115/97 11/130/110 29/116/98
f 29/116/98 11/131/110 38/117/99
f 38/117/99 11/132/110 47/119/101
f 47/119/101 11/133/110 56/120/102
f 56/120/102 11/134/110 65/121/103
f 65/121/103 11/135/110 74/122/104
f 74/122/104 11/136/110 83/123/105
f 83/123/105 11/137/110 92/124/106
f 92/124/106 11/138/110 101/125/107
f 101/125/107 11/139/110 110/126/108
f 110/126/108 11/140/110 10/141/109
f 2/2/2 3/37/25 13/26/14
f 13/26/14 22/27/15 21/5/4
f 22/27/15 31/28/16 30/7/5
f 31/28/16 40/29/17 39/9/6
f 40/29/17 49/30/18 48/11/7
f 49/30/18 58/31/19 57/13/8
f 58/31/19 67/44/32 66/15/9
f 66/15/9 67/44/32 76/32/20
f 76/32/20 85/33/21 84/19/11
f 85/33/21 94/34/22 93/21/12
f 94/34/22 103/35/23 102/23/13
f 103/35/23 3/48/25 2/25/2
f 4/36/24 14/38/26 13/26/14
f 14/38/26 23/39/27 22/27/15
f 23/39/27 32/40/28 31/28/16
f 32/40/28 41/41/29 40/29/17
f 41/41/29 50/42/30 49/30/18
f 50/42/30 59/43/31 58/31/19
f 59/43/31 68/45/33 67/44/32
f 68/45/33 77/55/42 76/32/20
f 76/32/20 77/55/42 86/46/34
f 86/46/34 95/57/44 94/34/22
f 94/34/22 95/57/44 104/47/35
f 104/47/35 4/60/24 3/48/25
f 5/49/36 15/62/48 14/38/26
f 14/38/26 15/62/48 24/50/37
f 24/50/37 33/51/38 32/40/28
f 33/51/38 42/66/52 41/41/29
f 41/41/29 42/66/52 51/52/39
f 50/42/30 51/52/39 60/53/40
f 60/53/40 69/54/41 68/45/33
f 69/54/41 78/71/57 77/55/42
f 77/55/42 78/71/57 87/56/43
f 87/56/43 96/58/45 95/57/44
f 96/58/45 105/59/46 104/47/35
f 105/59/46 5/76/36 4/60/24
f 6/61/47 16/63/49 15/62/48
f 16/63/49 25/64/50 24/50/37
f 25/64/50 34/65/51 33/51/38
f 34/65/51 43/67/53 42/66/52
f 43/67/53 52/68/54 51/52/39
f 52/68/54 61/69/55 60/53/40
f 61/69/55 70/70/56 69/54/41
f 70/70/56 79/72/58 78/71/57
f 79/72/58 88/73/59 87/56/43
f 88/73/59 97/74/60 96/58/45
f 97/74/60 106/86/70 105/59/46
f 105/59/46 106/86/70 6/75/47
f 7/77/61 17/78/62 16/63/49
f 17/78/62 26/79/63 25/64/50
f 26/79/63 35/80/64 34/65/51
f 35/80/64 44/81/65 43/67/53
f 44/81/65 53/82/66 52/68/54
f 53/82/66 62/93/77 61/69/55
f 61/69/55 62/93/77 71/83/67
f 71/83/67 80/95/79 79/72/58
f 79/72/58 80/95/79 89/84/68
f 89/84/68 98/85/69 97/74/60
f 98/85/69 107/87/71 106/86/70
f 107/87/71 7/98/61 6/75/47
f 8/88/72 18/100/83 17/78/62
f 17/78/62 18/100/83 27/89/73
f 26/79/63 27/89/73 36/90/74
f 35/80/64 36/90/74 45/91/75
f 44/81/65 45/91/75 54/92/76
f 54/92/76 63/105/88 62/93/77
f 62/93/77 63/105/88 72/94/78
f 72/94/78 81/108/91 80/95/79
f 80/95/79 81/108/91 90/96/80
f 90/96/80 99/111/94 98/85/69
f 98/85/69 99/111/94 108/97/81
f 108/97/81 8/114/72 7/98/61
f 9/99/82 19/101/84 18/100/83
f 19/101/84 28/102/85 27/89/73
f 28/102/85 37/103/86 36/90/74
f 37/103/86 46/118/100 45/91/75
f 45/91/75 46/118/100 55/104/87
f 55/104/87 64/106/89 63/105/88
f 64/106/89 73/107/90 72/94/78
f 73/107/90 82/109/92 81/108/91
f 82/109/92 91/110/93 90/96/80
f 91/110/93 100/112/95 99/111/94
f 100/112/95 109/113/96 108/97/81
f 109/113/96 9/127/82 8/114/72
f 9/99/82 10/128/109 20/115/97
f 20/115/97 29/116/98 28/102/85
f 29/116/98 38/117/99 37/103/86
f 38/117/99 47/119/101 46/118/100
f 47/119/101 56/120/102 55/104/87
f 56/120/102 65/121/103 64/106/89
f 65/121/103 74/122/104 73/107/90
f 74/122/104 83/123/105 82/109/92
f 83/123/105 92/124/106 91/110/93
f 92/124/106 101/125/107 100/112/95
f 101/125/107 110/126/108 109/113/96
f 110/126/108 10/141/109 9/127/82
o CoffeeMug.001
v 0.000000 0.097427 -0.055000
v 0.010762 0.091214 -0.055000
v 0.010762 0.078786 -0.055000
v -0.000000 0.072573 -0.055000
v -0.010762 0.078786 -0.055000
v -0.010762 0.091214 -0.055000
v 0.000000 0.096868 -0.079686
v 0.010762 0.090934 -0.077843
v 0.010762 0.079066 -0.074157
v -0.000000 0.073132 -0.072314
v -0.010762 0.079066 -0.074157
v -0.010762 0.090934 -0.077843
v 0.000000 0.080912 -0.102328
v 0.010762 0.077456 -0.097164
v 0.010762 0.070544 -0.086836
v -0.000000 0.067088 -0.081672
v -0.010762 0.070544 -0.086836
v -0.010762 0.077456 -0.097164
v 0.000000 0.059692 -0.107424
v 0.010762 0.059846 -0.101212
v 0.010762 0.060154 -0.088788
v -0.000000 0.060308 -0.082576
v -0.010762 0.060154 -0.088788
v -0.010762 0.059846 -0.101212
v 0.000000 0.037762 -0.101102
v 0.010762 0.041381 -0.096051
v 0.010762 0.048619 -0.085949
v -0.000000 0.052238 -0.080898
v -0.010762 0.048619 -0.085949
v -0.010762 0.041381 -0.096051
v 0.000000 0.023106 -0.079601
v 0.010762 0.029053 -0.077801
v 0.010762 0.040947 -0.074199
v -0.000000 0.046894 -0.072399
v -0.010762 0.040947 -0.074199
v -0.010762 0.029053 -0.077801
v 0.000000 0.022573 -0.055000
v 0.010762 0.028786 -0.055000
v 0.010762 0.041214 -0.055000
v -0.000000 0.047427 -0.055000
v -0.010762 0.041214 -0.055000
v -0.010762 0.028786 -0.055000
vn -0.0000 0.9999 -0.0155
vn -0.8261 0.5356 -0.1751
vn -0.8643 0.5029 -0.0062
vn 0.8261 0.5356 -0.1751
vn 0.8643 0.5029 -0.0062
vn 0.9063 -0.4054 0.1192
vn 0.8618 -0.5071 -0.0128
vn -0.0000 -0.9627 0.2704
vn -0.0000 -0.9995 -0.0323
vn -0.8618 -0.5071 -0.0128
vn -0.9063 -0.4054 0.1192
vn -0.0000 0.9507 -0.3102
vn -0.8174 0.3235 -0.4767
vn 0.8174 0.3235 -0.4767
vn 0.9191 -0.2169 0.3288
vn -0.0000 -0.5392 0.8422
vn -0.9191 -0.2169 0.3288
vn -0.0000 -0.0230 -0.9997
vn -0.0000 0.5611 -0.8278
vn 0.8320 -0.0129 -0.5547
vn 0.8919 0.0132 0.4520
vn -0.8919 0.0132 0.4520
vn -0.8320 -0.0129 -0.5547
vn -0.8193 -0.3362 -0.4645
vn 0.8193 -0.3362 -0.4645
vn 0.9164 0.2316 0.3263
vn -0.0000 0.5732 0.8194
vn -0.0000 0.0369 0.9993
vn -0.9164 0.2316 0.3263
vn -0.0000 -0.9531 -0.3026
vn -0.0000 -0.5860 -0.8103
vn 0.8271 -0.5357 -0.1703
vn 0.9055 0.4079 0.1173
vn -0.9055 0.4079 0.1173
vn -0.8271 -0.5357 -0.1703
vn -0.0000 -0.9999 -0.0149
vn 0.8644 -0.5028 -0.0059
vn -0.0000 0.9642 0.2653
vn 0.8620 0.5067 -0.0122
vn -0.8620 0.5067 -0.0122
vn -0.8644 -0.5028 -0.0059
vn -0.0000 0.9995 -0.0306
vt 0.000000 1.000000
vt 0.166667 0.833333
vt 0.000000 0.833333
vt 0.166667 0.166667
vt 0.000000 0.000000
vt 0.000000 0.166667
vt 0.166667 0.333333
vt 0.000000 0.333333
vt 0.166667 0.500000
vt 0.000000 0.500000
vt 0.000000 0.666667
vt 0.166667 0.666667
vt 0.166667 1.000000
vt 0.333333 0.833333
vt 0.333333 0.166667
vt 0.166667 0.000000
vt 0.333333 0.333333
vt 0.333333 0.500000
vt 0.333333 0.666667
vt 0.500000 1.000000
vt 0.333333 1.000000
vt 0.500000 0.000000
vt 0.333333 0.000000
vt 0.500000 0.166667
vt 0.500000 0.333333
vt 0.500000 0.666667
vt 0.500000 0.833333
vt 0.666667 0.833333
vt 0.666667 0.166667
vt 0.666667 0.333333
vt 0.666667 0.500000
vt 0.500000 0.500000
vt 0.666667 0.666667
vt 0.833333 1.000000
vt 0.666667 1.000000
vt 0.833333 0.000000
vt 0.666667 0.000000
vt 0.833333 0.166667
vt 0.833333 0.333333
vt 0.833333 0.666667
vt 0.833333 0.833333
vt 1.000000 1.000000
vt 1.000000 0.000000
vt 1.000000 0.166667
vt 0.833333 0.500000
vt 1.000000 0.333333
vt 1.000000 0.666667
vt 1.000000 0.833333
vt 1.000000 0.500000
s 1
f 111/142/111 122/143/112 116/144/113
f 118/145/114 111/146/111 112/147/115
f 119/148/116 112/147/115 113/149/117
f 120/150/118 113/149/117 114/151/119
f 115/152/120 120/150/118 114/151/119
f 116/144/113 121/153/121 115/152/120
f 117/154/122 128/155/123 122/143/112
f 124/156/124 117/157/122 118/145/114
f 125/158/125 118/145/114 119/148/116
f 126/159/126 119/148/116 120/150/118
f 121/153/121 126/159/126 120/150/118
f 122/143/112 127/160/127 121/153/121
f 129/161/128 128/155/123 123/162/129
f 124/156/124 129/163/128 123/164/129
f 125/158/125 130/165/130 124/156/124
f 126/159/126 131/166/131 125/158/125
f 133/167/132 126/159/126 127/160/127
f 134/168/133 127/160/127 128/155/123
f 129/161/128 140/169/134 134/168/133
f 136/170/135 129/163/128 130/165/130
f 137/171/136 130/165/130 131/166/131
f 138/172/137 131/166/131 132/173/138
f 133/167/132 138/172/137 132/173/138
f 134/168/133 139/174/139 133/167/132
f 141/175/140 140/169/134 135/176/141
f 136/170/135 141/177/140 135/178/141
f 137/171/136 142/179/142 136/170/135
f 138/172/137 143/180/143 137/171/136
f 145/181/144 138/172/137 139/174/139
f 146/182/145 139/174/139 140/169/134
f 147/183/146 146/182/145 141/175/140
f 142/179/142 147/184/146 141/177/140
f 143/180/143 148/185/147 142/179/142
f 144/186/148 149/187/149 143/180/143
f 151/188/150 144/186/148 145/181/144
f 152/189/151 145/181/144 146/182/145
f 111/142/111 117/154/122 122/143/112
f 118/145/114 117/157/122 111/146/111
f 119/148/116 118/145/114 112/147/115
f 120/150/118 119/148/116 113/149/117
f 115/152/120 121/153/121 120/150/118
f 116/144/113 122/143/112 121/153/121
f 117/154/122 123/162/129 128/155/123
f 124/156/124 123/164/129 117/157/122
f 125/158/125 124/156/124 118/145/114
f 126/159/126 125/158/125 119/148/116
f 121/153/121 127/160/127 126/159/126
f 122/143/112 128/155/123 127/160/127
f 129/161/128 134/168/133 128/155/123
f 124/156/124 130/165/130 129/163/128
f 125/158/125 131/166/131 130/165/130
f 126/159/126 132/173/138 131/166/131
f 133/167/132 132/173/138 126/159/126
f 134/168/133 133/167/132 127/160/127
f 129/161/128 135/176/141 140/169/134
f 136/170/135 135/178/141 129/163/128
f 137/171/136 136/170/135 130/165/130
f 138/172/137 137/171/136 131/166/131
f 133/167/132 139/174/139 138/172/137
f 134/168/133 140/169/134 139/174/139
f 141/175/140 146/182/145 140/169/134
f 136/170/135 142/179/142 141/177/140
f 137/171/136 143/180/143 142/179/142
f 138/172/137 144/186/148 143/180/143
f 145/181/144 144/186/148 138/172/137
f 146/182/145 145/181/144 139/174/139
f 147/183/146 152/189/151 146/182/145
f 142/179/142 148/185/147 147/184/146
f 143/180/143 149/187/149 148/185/147
f 144/186/148 150/190/152 149/187/149
f 151/188/150 150/190/152 144/186/148
f 152/189/151 151/188/150 145/181/144
