# Blender 4.0.2
# www.blender.org
mtllib PillBottle01.mtl
o PillBottle01
v 0.000000 0.124771 0.000000
v 0.034760 0.124771 0.000000
v 0.034760 0.105946 0.000000
v 0.027129 0.105801 0.000000
v 0.027371 0.100661 0.000000
v 0.037312 0.095386 0.000000
v 0.040975 0.085805 0.000000
v 0.039532 0.004549 0.000000
v 0.033633 0.000445 -0.000000
v 0.000000 0.000000 0.000000
v 0.000000 0.124771 0.000000
v 0.028122 0.124771 -0.020432
v 0.028122 0.105946 -0.020432
v 0.021948 0.105801 -0.015946
v 0.022144 0.100661 -0.016088
v 0.030186 0.095386 -0.021931
v 0.033149 0.085805 -0.024084
v 0.031982 0.004549 -0.023236
v 0.027210 0.000445 -0.019769
v 0.000000 0.000000 0.000000
v 0.000000 0.124771 0.000000
v 0.010742 0.124771 -0.033059
v 0.010742 0.105946 -0.033059
v 0.008383 0.105801 -0.025801
v 0.008458 0.100661 -0.026031
v 0.011530 0.095386 -0.035486
v 0.012662 0.085805 -0.038969
v 0.012216 0.004549 -0.037597
v 0.010393 0.000445 -0.031987
v 0.000000 0.000000 0.000000
v 0.000000 0.124771 0.000000
v -0.010741 0.124771 -0.033059
v -0.010741 0.105946 -0.033059
v -0.008383 0.105801 -0.025801
v -0.008458 0.100661 -0.026031
v -0.011530 0.095386 -0.035486
v -0.012662 0.085805 -0.038969
v -0.012216 0.004549 -0.037597
v -0.010393 0.000445 -0.031987
v 0.000000 0.000000 0.000000
v 0.000000 0.124771 0.000000
v -0.028122 0.124771 -0.020432
v -0.028122 0.105946 -0.020432
v -0.021948 0.105801 -0.015946
v -0.022143 0.100661 -0.016088
v -0.030186 0.095386 -0.021931
v -0.033149 0.085805 -0.024084
v -0.031982 0.004549 -0.023236
v -0.027210 0.000445 -0.019769
v 0.000000 0.000000 0.000000
v 0.000000 0.124771 0.000000
v -0.034760 0.124771 -0.000000
v -0.034760 0.105946 -0.000000
v -0.027129 0.105801 -0.000000
v -0.027371 0.100661 -0.000000
v -0.037312 0.095386 -0.000000
v -0.040975 0.085805 -0.000000
v -0.039532 0.004549 0.000000
v -0.033633 0.000445 0.000000
v 0.000000 0.000000 0.000000
v 0.000000 0.124771 0.000000
v -0.028122 0.124771 0.020432
v -0.028122 0.105946 0.020432
v -0.021948 0.105801 0.015946
v -0.022144 0.100661 0.016088
v -0.030186 0.095386 0.021931
v -0.033149 0.085805 0.024084
v -0.031982 0.004549 0.023236
v -0.027210 0.000445 0.019769
v 0.000000 0.000000 0.000000
v 0.000000 0.124771 0.000000
v -0.010742 0.124771 0.033059
v -0.010742 0.105946 0.033059
v -0.008383 0.105801 0.025801
v -0.008458 0.100661 0.026031
v -0.011530 0.095386 0.035486
v -0.012662 0.085805 0.038969
v -0.012216 0.004549 0.037597
v -0.010393 0.000445 0.031987
v 0.000000 0.000000 0.000000
v 0.000000 0.124771 0.000000
v 0.010741 0.124771 0.033059
v 0.010741 0.105946 0.033059
v 0.008383 0.105801 0.025801
v 0.008458 0.100661 0.026031
v 0.011530 0.095386 0.035486
v 0.012662 0.085805 0.038969
v 0.012216 0.004549 0.037597
v 0.010393 0.000445 0.031987
v 0.000000 0.000000 0.000000
v 0.000000 0.124771 0.000000
v 0.028122 0.124771 0.020432
v 0.028122 0.105946 0.020432
v 0.021948 0.105801 0.015946
v 0.022144 0.100661 0.016088
v 0.030186 0.095386 0.021931
v 0.033149 0.085805 0.024084
v 0.031982 0.004549 0.023236
v 0.027210 0.000445 0.019769
v 0.000000 0.000000 0.000000
vn -0.0000 1.0000 -0.0000
vn 0.7653 0.6437 -0.0000
vn 0.6191 0.6437 -0.4498
vn 0.2365 0.6437 -0.7278
vn -0.2365 0.6437 -0.7278
vn -0.6191 0.6437 -0.4498
vn -0.7653 0.6437 -0.0000
vn -0.6191 0.6437 0.4498
vn -0.2365 0.6437 0.7278
vn 0.2365 0.6437 0.7278
vn 0.6191 0.6437 0.4498
vn 0.7703 -0.6377 -0.0000
vn 0.6232 -0.6377 -0.4528
vn 0.2380 -0.6377 -0.7326
vn -0.2380 -0.6377 -0.7326
vn -0.6232 -0.6377 -0.4528
vn -0.7703 -0.6377 -0.0000
vn -0.6232 -0.6377 0.4528
vn -0.2380 -0.6377 0.7326
vn 0.2380 -0.6377 0.7326
vn 0.6232 -0.6377 0.4528
vn 0.6477 -0.7619 -0.0000
vn 0.5240 -0.7619 -0.3807
vn 0.2002 -0.7619 -0.6160
vn -0.2002 -0.7619 -0.6160
vn -0.5240 -0.7619 -0.3807
vn -0.6477 -0.7619 -0.0000
vn -0.5240 -0.7619 0.3807
vn -0.2002 -0.7619 0.6160
vn 0.2002 -0.7619 0.6160
vn 0.5240 -0.7619 0.3807
vn 0.8112 0.5847 -0.0000
vn 0.6563 0.5847 -0.4768
vn 0.2507 0.5847 -0.7715
vn -0.2507 0.5847 -0.7715
vn -0.6563 0.5847 -0.4768
vn -0.8112 0.5847 -0.0000
vn -0.6563 0.5847 0.4768
vn -0.2507 0.5847 0.7715
vn 0.2507 0.5847 0.7715
vn 0.6563 0.5847 0.4768
vn 0.7768 0.6298 -0.0000
vn 0.6284 0.6298 -0.4566
vn 0.2400 0.6298 -0.7387
vn -0.2400 0.6298 -0.7387
vn -0.6284 0.6298 -0.4566
vn -0.7768 0.6298 -0.0000
vn -0.6284 0.6298 0.4566
vn -0.2400 0.6298 0.7387
vn 0.2400 0.6298 0.7387
vn 0.6284 0.6298 0.4566
vn 0.9860 0.1668 -0.0000
vn 0.7977 0.1668 -0.5796
vn 0.3047 0.1668 -0.9377
vn -0.3047 0.1668 -0.9377
vn -0.7977 0.1668 -0.5796
vn -0.9860 0.1668 -0.0000
vn -0.7977 0.1668 0.5796
vn -0.3047 0.1668 0.9377
vn 0.3047 0.1668 0.9377
vn 0.7977 0.1668 0.5796
vn 0.8994 -0.4372 -0.0000
vn 0.7276 -0.4372 -0.5286
vn 0.2779 -0.4372 -0.8554
vn -0.2779 -0.4372 -0.8554
vn -0.7276 -0.4372 -0.5286
vn -0.8994 -0.4372 -0.0000
vn -0.7276 -0.4372 0.5286
vn -0.2779 -0.4372 0.8554
vn 0.2779 -0.4372 0.8554
vn 0.7276 -0.4372 0.5286
vn 0.3567 -0.9342 -0.0000
vn 0.2886 -0.9342 -0.2096
vn 0.1102 -0.9342 -0.3392
vn -0.1102 -0.9342 -0.3392
vn -0.2886 -0.9342 -0.2096
vn -0.3567 -0.9342 -0.0000
vn -0.2886 -0.9342 0.2096
vn -0.1102 -0.9342 0.3392
vn 0.1102 -0.9342 0.3392
vn 0.2886 -0.9342 0.2096
vn 0.0132 -0.9999 -0.0000
vn 0.0107 -0.9999 -0.0078
vn 0.0041 -0.9999 -0.0126
vn -0.0041 -0.9999 -0.0126
vn -0.0107 -0.9999 -0.0078
vn -0.0132 -0.9999 -0.0000
vn -0.0107 -0.9999 0.0078
vn -0.0041 -0.9999 0.0126
vn 0.0041 -0.9999 0.0126
vn 0.0107 -0.9999 0.0078
vt 0.000000 0.124771
vt 0.100000 0.124771
vt 0.200000 0.124771
vt 0.300000 0.124771
vt 0.400000 0.124771
vt 0.500000 0.124771
vt 0.600000 0.124771
vt 0.700000 0.124771
vt 0.800000 0.124771
vt 0.900000 0.124771
vt 1.000000 0.124771
vt 0.000000 0.105946
vt 0.100000 0.105946
vt 0.200000 0.105946
vt 0.300000 0.105946
vt 0.400000 0.105946
vt 0.500000 0.105946
vt 0.600000 0.105946
vt 0.700000 0.105946
vt 0.800000 0.105946
vt 0.900000 0.105946
vt 1.000000 0.105946
vt 0.000000 0.105801
vt 0.100000 0.105801
vt 0.200000 0.105801
vt 0.300000 0.105801
vt 0.400000 0.105801
vt 0.500000 0.105801
vt 0.600000 0.105801
vt 0.700000 0.105801
vt 0.800000 0.105801
vt 0.900000 0.105801
vt 1.000000 0.105801
vt 0.000000 0.100661
vt 0.100000 0.100661
vt 0.200000 0.100661
vt 0.300000 0.100661
vt 0.400000 0.100661
vt 0.500000 0.100661
vt 0.600000 0.100661
vt 0.700000 0.100661
vt 0.800000 0.100661
vt 0.900000 0.100661
vt 1.000000 0.100661
vt 0.000000 0.095386
vt 0.100000 0.095386
vt 0.200000 0.095386
vt 0.300000 0.095386
vt 0.400000 0.095386
vt 0.500000 0.095386
vt 0.600000 0.095386
vt 0.700000 0.095386
vt 0.800000 0.095386
vt 0.900000 0.095386
vt 1.000000 0.095386
vt 0.000000 0.085805
vt 0.100000 0.085805
vt 0.200000 0.085805
vt 0.300000 0.085805
vt 0.400000 0.085805
vt 0.500000 0.085805
vt 0.600000 0.085805
vt 0.700000 0.085805
vt 0.800000 0.085805
vt 0.900000 0.085805
vt 1.000000 0.085805
vt 0.000000 0.004549
vt 0.100000 0.004549
vt 0.200000 0.004549
vt 0.300000 0.004549
vt 0.400000 0.004549
vt 0.500000 0.004549
vt 0.600000 0.004549
vt 0.700000 0.004549
vt 0.800000 0.004549
vt 0.900000 0.004549
vt 1.000000 0.004549
vt 0.000000 0.000445
vt 0.100000 0.000445
vt 0.200000 0.000445
vt 0.300000 0.000445
vt 0.400000 0.000445
vt 0.500000 0.000445
vt 0.600000 0.000445
vt 0.700000 0.000445
vt 0.800000 0.000445
vt 0.900000 0.000445
vt 1.000000 0.000445
vt 0.000000 0.000000
vt 0.100000 0.000000
vt 0.200000 0.000000
vt 0.300000 0.000000
vt 0.400000 0.000000
vt 0.500000 0.000000
vt 0.600000 0.000000
vt 0.700000 0.000000
vt 0.800000 0.000000
vt 0.900000 0.000000
vt 1.000000 0.000000
s 1
f 1/1/1 2/1/2 12/2/3 11/2/1
f 11/2/1 12/2/3 22/3/4 21/3/1
f 21/3/1 22/3/4 32/4/5 31/4/1
f 31/4/1 32/4/5 42/5/6 41/5/1
f 41/5/1 42/5/6 52/6/7 51/6/1
f 51/6/1 52/6/7 62/7/8 61/7/1
f 61/7/1 62/7/8 72/8/9 71/8/1
f 71/8/1 72/8/9 82/9/10 81/9/1
f 81/9/1 82/9/10 92/10/11 91/10/1
f 91/10/1 92/10/11 2/11/2 1/11/1
f 2/1/2 3/12/12 13/13/13 12/2/3
f 12/2/3 13/13/13 23/14/14 22/3/4
f 22/3/4 23/14/14 33/15/15 32/4/5
f 32/4/5 33/15/15 43/16/16 42/5/6
f 42/5/6 43/16/16 53/17/17 52/6/7
f 52/6/7 53/17/17 63/18/18 62/7/8
f 62/7/8 63/18/18 73/19/19 72/8/9
f 72/8/9 73/19/19 83/20/20 82/9/10
f 82/9/10 83/20/20 93/21/21 92/10/11
f 92/10/11 93/21/21 3/22/12 2/11/2
f 3/12/12 4/23/22 14/24/23 13/13/13
f 13/13/13 14/24/23 24/25/24 23/14/14
f 23/14/14 24/25/24 34/26/25 33/15/15
f 33/15/15 34/26/25 44/27/26 43/16/16
f 43/16/16 44/27/26 54/28/27 53/17/17
f 53/17/17 54/28/27 64/29/28 63/18/18
f 63/18/18 64/29/28 74/30/29 73/19/19
f 73/19/19 74/30/29 84/31/30 83/20/20
f 83/20/20 84/31/30 94/32/31 93/21/21
f 93/21/21 94/32/31 4/33/22 3/22/12
f 4/23/22 5/34/32 15/35/33 14/24/23
f 14/24/23 15/35/33 25/36/34 24/25/24
f 24/25/24 25/36/34 35/37/35 34/26/25
f 34/26/25 35/37/35 45/38/36 44/27/26
f 44/27/26 45/38/36 55/39/37 54/28/27
f 54/28/27 55/39/37 65/40/38 64/29/28
f 64/29/28 65/40/38 75/41/39 74/30/29
f 74/30/29 75/41/39 85/42/40 84/31/30
f 84/31/30 85/42/40 95/43/41 94/32/31
f 94/32/31 95/43/41 5/44/32 4/33/22
f 5/34/32 6/45/42 16/46/43 15/35/33
f 15/35/33 16/46/43 26/47/44 25/36/34
f 25/36/34 26/47/44 36/48/45 35/37/35
f 35/37/35 36/48/45 46/49/46 45/38/36
f 45/38/36 46/49/46 56/50/47 55/39/37
f 55/39/37 56/50/47 66/51/48 65/40/38
f 65/40/38 66/51/48 76/52/49 75/41/39
f 75/41/39 76/52/49 86/53/50 85/42/40
f 85/42/40 86/53/50 96/54/51 95/43/41
f 95/43/41 96/54/51 6/55/42 5/44/32
f 6/45/42 7/56/52 17/57/53 16/46/43
f 16/46/43 17/57/53 27/58/54 26/47/44
f 26/47/44 27/58/54 37/59/55 36/48/45
f 36/48/45 37/59/55 47/60/56 46/49/46
f 46/49/46 47/60/56 57/61/57 56/50/47
f 56/50/47 57/61/57 67/62/58 66/51/48
f 66/51/48 67/62/58 77/63/59 76/52/49
f 76/52/49 77/63/59 87/64/60 86/53/50
f 86/53/50 87/64/60 97/65/61 96/54/51
f 96/54/51 97/65/61 7/66/52 6/55/42
f 7/56/52 8/67/62 18/68/63 17/57/53
f 17/57/53 18/68/63 28/69/64 27/58/54
f 27/58/54 28/69/64 38/70/65 37/59/55
f 37/59/55 38/70/65 48/71/66 47/60/56
f 47/60/56 48/71/66 58/72/67 57/61/57
f 57/61/57 58/72/67 68/73/68 67/62/58
f 67/62/58 68/73/68 78/74/69 77/63/59
f 77/63/59 78/74/69 88/75/70 87/64/60
f 87/64/60 88/75/70 98/76/71 97/65/61
f 97/65/61 98/76/71 8/77/62 7/66/52
f 8/67/62 9/78/72 19/79/73 18/68/63
f 18/68/63 19/79/73 29/80/74 28/69/64
f 28/69/64 29/80/74 39/81/75 38/70/65
f 38/70/65 39/81/75 49/82/76 48/71/66
f 48/71/66 49/82/76 59/83/77 58/72/67
f 58/72/67 59/83/77 69/84/78 68/73/68
f 68/73/68 69/84/78 79/85/79 78/74/69
f 78/74/69 79/85/79 89/86/80 88/75/70
f 88/75/70 89/86/80 99/87/81 98/76/71
f 98/76/71 99/87/81 9/88/72 8/77/62
f 9/78/72 10/89/82 20/90/83 19/79/73
f 19/79/73 20/90/83 30/91/84 29/80/74
f 29/80/74 30/91/84 40/92/85 39/81/75
f 39/81/75 40/92/85 50/93/86 49/82/76
f 49/82/76 50/93/86 60/94/87 59/83/77
f 59/83/77 60/94/87 70/95/88 69/84/78
f 69/84/78 70/95/88 80/96/89 79/85/79
f 79/85/79 80/96/89 90/97/90 89/86/80
f 89/86/80 90/97/90 100/98/91 99/87/81
f 99/87/81 100/98/91 10/99/82 9/88/72
o PillBottle01
v 0.000000 0.124771 0.000000
v 0.034760 0.124771 0.000000
v 0.034760 0.105946 0.000000
v 0.027129 0.105801 0.000000
v 0.027371 0.100661 0.000000
v 0.037312 0.095386 0.000000
v 0.040975 0.085805 0.000000
v 0.039532 0.004549 0.000000
v 0.033633 0.000445 -0.000000
v 0.000000 0.000000 0.000000
v 0.000000 0.124771 0.000000
v 0.028122 0.124771 -0.020432
v 0.028122 0.105946 -0.020432
v 0.021948 0.105801 -0.015946
v 0.022144 0.100661 -0.016088
v 0.030186 0.095386 -0.021931
v 0.033149 0.085805 -0.024084
v 0.031982 0.004549 -0.023236
v 0.027210 0.000445 -0.019769
v 0.000000 0.000000 0.000000
v 0.000000 0.124771 0.000000
v 0.010742 0.124771 -0.033059
v 0.010742 0.105946 -0.033059
v 0.008383 0.105801 -0.025801
v 0.008458 0.100661 -0.026031
v 0.011530 0.095386 -0.035486
v 0.012662 0.085805 -0.038969
v 0.012216 0.004549 -0.037597
v 0.010393 0.000445 -0.031987
v 0.000000 0.000000 0.000000
v 0.000000 0.124771 0.000000
v -0.010741 0.124771 -0.033059
v -0.010741 0.105946 -0.033059
v -0.008383 0.105801 -0.025801
v -0.008458 0.100661 -0.026031
v -0.011530 0.095386 -0.035486
v -0.012662 0.085805 -0.038969
v -0.012216 0.004549 -0.037597
v -0.010393 0.000445 -0.031987
v 0.000000 0.000000 0.000000
v 0.000000 0.124771 0.000000
v -0.028122 0.124771 -0.020432
v -0.028122 0.105946 -0.020432
v -0.021948 0.105801 -0.015946
v -0.022143 0.100661 -0.016088
v -0.030186 0.095386 -0.021931
v -0.033149 0.085805 -0.024084
v -0.031982 0.004549 -0.023236
v -0.027210 0.000445 -0.019769
v 0.000000 0.000000 0.000000
v 0.000000 0.124771 0.000000
v -0.034760 0.124771 -0.000000
v -0.034760 0.105946 -0.000000
v -0.027129 0.105801 -0.000000
v -0.027371 0.100661 -0.000000
v -0.037312 0.095386 -0.000000
v -0.040975 0.085805 -0.000000
v -0.039532 0.004549 0.000000
v -0.033633 0.000445 0.000000
v 0.000000 0.000000 0.000000
v 0.000000 0.124771 0.000000
v -0.028122 0.124771 0.020432
v -0.028122 0.105946 0.020432
v -0.021948 0.105801 0.015946
v -0.022144 0.100661 0.016088
v -0.030186 0.095386 0.021931
v -0.033149 0.085805 0.024084
v -0.031982 0.004549 0.023236
v -0.027210 0.000445 0.019769
v 0.000000 0.000000 0.000000
v 0.000000 0.124771 0.000000
v -0.010742 0.124771 0.033059
v -0.010742 0.105946 0.033059
v -0.008383 0.105801 0.025801
v -0.008458 0.100661 0.026031
v -0.011530 0.095386 0.035486
v -0.012662 0.085805 0.038969
v -0.012216 0.004549 0.037597
v -0.010393 0.000445 0.031987
v 0.000000 0.000000 0.000000
v 0.000000 0.124771 0.000000
v 0.010741 0.124771 0.033059
v 0.010741 0.105946 0.033059
v 0.008383 0.105801 0.025801
v 0.008458 0.100661 0.026031
v 0.011530 0.095386 0.035486
v 0.012662 0.085805 0.038969
v 0.012216 0.004549 0.037597
v 0.010393 0.000445 0.031987
v 0.000000 0.000000 0.000000
v 0.000000 0.124771 0.000000
v 0.028122 0.124771 0.020432
v 0.028122 0.105946 0.020432
v 0.021948 0.105801 0.015946
v 0.022144 0.100661 0.016088
v 0.030186 0.095386 0.021931
v 0.033149 0.085805 0.024084
v 0.031982 0.004549 0.023236
v 0.027210 0.000445 0.019769
v 0.000000 0.000000 0.000000
vn -0.0000 1.0000 -0.0000
vn 0.6191 0.6437 -0.4498
vn 0.2365 0.6438 -0.7278
vn -0.2365 0.6437 -0.7278
vn -0.6191 0.6437 -0.4498
vn -0.7653 0.6437 -0.0000
vn -0.6191 0.6437 0.4498
vn -0.2365 0.6437 0.7278
vn 0.2365 0.6437 0.7278
vn 0.6190 0.6438 0.4498
vn 0.7653 0.6437 -0.0000
vn 0.7703 -0.6377 -0.0000
vn 0.6232 -0.6377 -0.4528
vn 0.2380 -0.6377 -0.7326
vn -0.2380 -0.6377 -0.7326
vn -0.6232 -0.6377 -0.4528
vn -0.7703 -0.6377 -0.0000
vn -0.6232 -0.6377 0.4528
vn -0.2380 -0.6377 0.7326
vn 0.2380 -0.6377 0.7326
vn 0.6232 -0.6377 0.4528
vn 0.5240 -0.7619 -0.3807
vn 0.2002 -0.7619 -0.6160
vn -0.2002 -0.7619 -0.6160
vn -0.5240 -0.7619 -0.3807
vn -0.6477 -0.7619 -0.0000
vn -0.5240 -0.7619 0.3807
vn -0.2002 -0.7619 0.6160
vn 0.2002 -0.7619 0.6160
vn 0.5240 -0.7619 0.3807
vn 0.6477 -0.7619 -0.0000
vn 0.8112 0.5847 -0.0000
vn 0.6563 0.5847 -0.4768
vn 0.2507 0.5847 -0.7715
vn -0.2507 0.5847 -0.7715
vn -0.6563 0.5847 -0.4768
vn -0.8112 0.5847 -0.0000
vn -0.6563 0.5847 0.4768
vn -0.2507 0.5847 0.7715
vn 0.2507 0.5847 0.7715
vn 0.6563 0.5847 0.4768
vn 0.7768 0.6298 -0.0000
vn 0.6284 0.6298 -0.4566
vn 0.2400 0.6298 -0.7387
vn -0.2400 0.6298 -0.7387
vn -0.6284 0.6298 -0.4566
vn -0.7768 0.6298 -0.0000
vn -0.6284 0.6298 0.4566
vn -0.2400 0.6298 0.7387
vn 0.2400 0.6298 0.7387
vn 0.6284 0.6298 0.4566
vn 0.9860 0.1668 -0.0000
vn 0.7977 0.1668 -0.5796
vn 0.3047 0.1668 -0.9377
vn -0.3047 0.1668 -0.9377
vn -0.7977 0.1668 -0.5796
vn -0.9860 0.1668 -0.0000
vn -0.7977 0.1668 0.5796
vn -0.3047 0.1668 0.9377
vn 0.3047 0.1668 0.9377
vn 0.7977 0.1668 0.5796
vn 0.8994 -0.4372 -0.0000
vn 0.7276 -0.4372 -0.5286
vn 0.2779 -0.4372 -0.8554
vn -0.2779 -0.4372 -0.8554
vn -0.7276 -0.4372 -0.5286
vn -0.8994 -0.4372 -0.0000
vn -0.7276 -0.4372 0.5286
vn -0.2779 -0.4372 0.8554
vn 0.2779 -0.4372 0.8554
vn 0.7276 -0.4372 0.5286
vn 0.3567 -0.9342 -0.0000
vn 0.2886 -0.9342 -0.2096
vn 0.1102 -0.9342 -0.3392
vn -0.1102 -0.9342 -0.3392
vn -0.2886 -0.9342 -0.2096
vn -0.3567 -0.9342 -0.0000
vn -0.2886 -0.9342 0.2096
vn -0.1102 -0.9342 0.3392
vn 0.1102 -0.9342 0.3392
vn 0.2886 -0.9342 0.2096
vn 0.0033 1.0000 -0.0011
vn 0.0020 1.0000 -0.0028
vn -0.0000 1.0000 -0.0035
vn -0.0020 1.0000 -0.0028
vn -0.0033 1.0000 -0.0011
vn -0.0033 1.0000 0.0011
vn -0.0020 1.0000 0.0028
vn -0.0000 1.0000 0.0035
vn 0.0020 1.0000 0.0028
vn 0.0033 1.0000 0.0011
vt 0.000000 0.124771
vt 0.100000 0.124771
vt 0.200000 0.124771
vt 0.300000 0.124771
vt 0.400000 0.124771
vt 0.500000 0.124771
vt 0.600000 0.124771
vt 0.700000 0.124771
vt 0.800000 0.124771
vt 0.900000 0.124771
vt 1.000000 0.124771
vt 0.000000 0.105946
vt 0.100000 0.105946
vt 0.200000 0.105946
vt 0.300000 0.105946
vt 0.400000 0.105946
vt 0.500000 0.105946
vt 0.600000 0.105946
vt 0.700000 0.105946
vt 0.800000 0.105946
vt 0.900000 0.105946
vt 0.100000 0.105801
vt 0.200000 0.105801
vt 0.300000 0.105801
vt 0.400000 0.105801
vt 0.500000 0.105801
vt 0.600000 0.105801
vt 0.700000 0.105801
vt 0.800000 0.105801
vt 0.900000 0.105801
vt 1.000000 0.105801
vt 1.000000 0.105946
vt 0.000000 0.100661
vt 0.000000 0.105801
vt 0.100000 0.100661
vt 0.200000 0.100661
vt 0.300000 0.100661
vt 0.400000 0.100661
vt 0.500000 0.100661
vt 0.600000 0.100661
vt 0.700000 0.100661
vt 0.800000 0.100661
vt 0.900000 0.100661
vt 0.000000 0.095386
vt 0.100000 0.095386
vt 0.200000 0.095386
vt 0.300000 0.095386
vt 0.400000 0.095386
vt 0.500000 0.095386
vt 0.600000 0.095386
vt 0.700000 0.095386
vt 0.800000 0.095386
vt 0.900000 0.095386
vt 1.000000 0.100661
vt 0.000000 0.085805
vt 0.100000 0.085805
vt 0.200000 0.085805
vt 0.300000 0.085805
vt 0.400000 0.085805
vt 0.500000 0.085805
vt 0.600000 0.085805
vt 0.700000 0.085805
vt 0.800000 0.085805
vt 0.900000 0.085805
vt 1.000000 0.095386
vt 0.000000 0.004549
vt 0.100000 0.004549
vt 0.200000 0.004549
vt 0.300000 0.004549
vt 0.400000 0.004549
vt 0.500000 0.004549
vt 0.600000 0.004549
vt 0.700000 0.004549
vt 0.800000 0.004549
vt 0.900000 0.004549
vt 1.000000 0.085805
vt 0.000000 0.000445
vt 0.100000 0.000445
vt 0.200000 0.000445
vt 0.300000 0.000445
vt 0.400000 0.000445
vt 0.500000 0.000445
vt 0.600000 0.000445
vt 0.700000 0.000445
vt 0.800000 0.000445
vt 0.900000 0.000445
vt 1.000000 0.004549
vt 0.100000 0.000000
vt 0.200000 0.000000
vt 0.300000 0.000000
vt 0.400000 0.000000
vt 0.500000 0.000000
vt 0.600000 0.000000
vt 0.700000 0.000000
vt 0.800000 0.000000
vt 0.900000 0.000000
vt 1.000000 0.000000
vt 1.000000 0.000445
vt 0.000000 0.000000
s 1
f 101/100/92 112/101/93 111/101/92
f 111/101/92 122/102/94 121/102/92
f 121/102/92 132/103/95 131/103/92
f 131/103/92 142/104/96 141/104/92
f 141/104/92 152/105/97 151/105/92
f 151/105/92 162/106/98 161/106/92
f 161/106/92 172/107/99 171/107/92
f 171/107/92 182/108/100 181/108/92
f 181/108/92 192/109/101 191/109/92
f 191/109/92 102/110/102 101/110/92
f 103/111/103 112/101/93 102/100/102
f 113/112/104 122/102/94 112/101/93
f 123/113/105 132/103/95 122/102/94
f 133/114/106 142/104/96 132/103/95
f 143/115/107 152/105/97 142/104/96
f 153/116/108 162/106/98 152/105/97
f 163/117/109 172/107/99 162/106/98
f 173/118/110 182/108/100 172/107/99
f 183/119/111 192/109/101 182/108/100
f 193/120/112 102/110/102 192/109/101
f 103/111/103 114/121/113 113/112/104
f 113/112/104 124/122/114 123/113/105
f 123/113/105 134/123/115 133/114/106
f 133/114/106 144/124/116 143/115/107
f 143/115/107 154/125/117 153/116/108
f 153/116/108 164/126/118 163/117/109
f 163/117/109 174/127/119 173/118/110
f 173/118/110 184/128/120 183/119/111
f 183/119/111 194/129/121 193/120/112
f 193/120/112 104/130/122 103/131/103
f 105/132/123 114/121/113 104/133/122
f 115/134/124 124/122/114 114/121/113
f 125/135/125 134/123/115 124/122/114
f 135/136/126 144/124/116 134/123/115
f 145/137/127 154/125/117 144/124/116
f 155/138/128 164/126/118 154/125/117
f 165/139/129 174/127/119 164/126/118
f 175/140/130 184/128/120 174/127/119
f 185/141/131 194/129/121 184/128/120
f 195/142/132 104/130/122 194/129/121
f 106/143/133 115/134/124 105/132/123
f 116/144/134 125/135/125 115/134/124
f 126/145/135 135/136/126 125/135/125
f 136/146/136 145/137/127 135/136/126
f 146/147/137 155/138/128 145/137/127
f 156/148/138 165/139/129 155/138/128
f 166/149/139 175/140/130 165/139/129
f 176/150/140 185/141/131 175/140/130
f 186/151/141 195/142/132 185/141/131
f 196/152/142 105/153/123 195/142/132
f 107/154/143 116/144/134 106/143/133
f 117/155/144 126/145/135 116/144/134
f 127/156/145 136/146/136 126/145/135
f 137/157/146 146/147/137 136/146/136
f 147/158/147 156/148/138 146/147/137
f 157/159/148 166/149/139 156/148/138
f 167/160/149 176/150/140 166/149/139
f 177/161/150 186/151/141 176/150/140
f 187/162/151 196/152/142 186/151/141
f 197/163/152 106/164/133 196/152/142
f 108/165/153 117/155/144 107/154/143
f 118/166/154 127/156/145 117/155/144
f 128/167/155 137/157/146 127/156/145
f 138/168/156 147/158/147 137/157/146
f 148/169/157 157/159/148 147/158/147
f 158/170/158 167/160/149 157/159/148
f 168/171/159 177/161/150 167/160/149
f 178/172/160 187/162/151 177/161/150
f 188/173/161 197/163/152 187/162/151
f 198/174/162 107/175/143 197/163/152
f 109/176/163 118/166/154 108/165/153
f 119/177/164 128/167/155 118/166/154
f 129/178/165 138/168/156 128/167/155
f 139/179/166 148/169/157 138/168/156
f 149/180/167 158/170/158 148/169/157
f 159/181/168 168/171/159 158/170/158
f 169/182/169 178/172/160 168/171/159
f 179/183/170 188/173/161 178/172/160
f 189/184/171 198/174/162 188/173/161
f 199/185/172 108/186/153 198/174/162
f 109/176/163 120/187/173 119/177/164
f 119/177/164 130/188/174 129/178/165
f 129/178/165 140/189/175 139/179/166
f 139/179/166 150/190/176 149/180/167
f 149/180/167 160/191/177 159/181/168
f 159/181/168 170/192/178 169/182/169
f 169/182/169 180/193/179 179/183/170
f 179/183/170 190/194/180 189/184/171
f 189/184/171 200/195/181 199/185/172
f 199/185/172 110/196/182 109/197/163
f 101/100/92 102/100/102 112/101/93
f 111/101/92 112/101/93 122/102/94
f 121/102/92 122/102/94 132/103/95
f 131/103/92 132/103/95 142/104/96
f 141/104/92 142/104/96 152/105/97
f 151/105/92 152/105/97 162/106/98
f 161/106/92 162/106/98 172/107/99
f 171/107/92 172/107/99 182/108/100
f 181/108/92 182/108/100 192/109/101
f 191/109/92 192/109/101 102/110/102
f 103/111/103 113/112/104 112/101/93
f 113/112/104 123/113/105 122/102/94
f 123/113/105 133/114/106 132/103/95
f 133/114/106 143/115/107 142/104/96
f 143/115/107 153/116/108 152/105/97
f 153/116/108 163/117/109 162/106/98
f 163/117/109 173/118/110 172/107/99
f 173/118/110 183/119/111 182/108/100
f 183/119/111 193/120/112 192/109/101
f 193/120/112 103/131/103 102/110/102
f 103/111/103 104/133/122 114/121/113
f 113/112/104 114/121/113 124/122/114
f 123/113/105 124/122/114 134/123/115
f 133/114/106 134/123/115 144/124/116
f 143/115/107 144/124/116 154/125/117
f 153/116/108 154/125/117 164/126/118
f 163/117/109 164/126/118 174/127/119
f 173/118/110 174/127/119 184/128/120
f 183/119/111 184/128/120 194/129/121
f 193/120/112 194/129/121 104/130/122
f 105/132/123 115/134/124 114/121/113
f 115/134/124 125/135/125 124/122/114
f 125/135/125 135/136/126 134/123/115
f 135/136/126 145/137/127 144/124/116
f 145/137/127 155/138/128 154/125/117
f 155/138/128 165/139/129 164/126/118
f 165/139/129 175/140/130 174/127/119
f 175/140/130 185/141/131 184/128/120
f 185/141/131 195/142/132 194/129/121
f 195/142/132 105/153/123 104/130/122
f 106/143/133 116/144/134 115/134/124
f 116/144/134 126/145/135 125/135/125
f 126/145/135 136/146/136 135/136/126
f 136/146/136 146/147/137 145/137/127
f 146/147/137 156/148/138 155/138/128
f 156/148/138 166/149/139 165/139/129
f 166/149/139 176/150/140 175/140/130
f 176/150/140 186/151/141 185/141/131
f 186/151/141 196/152/142 195/142/132
f 196/152/142 106/164/133 105/153/123
f 107/154/143 117/155/144 116/144/134
f 117/155/144 127/156/145 126/145/135
f 127/156/145 137/157/146 136/146/136
f 137/157/146 147/158/147 146/147/137
f 147/158/147 157/159/148 156/148/138
f 157/159/148 167/160/149 166/149/139
f 167/160/149 177/161/150 176/150/140
f 177/161/150 187/162/151 186/151/141
f 187/162/151 197/163/152 196/152/142
f 197/163/152 107/175/143 106/164/133
f 108/165/153 118/166/154 117/155/144
f 118/166/154 128/167/155 127/156/145
f 128/167/155 138/168/156 137/157/146
f 138/168/156 148/169/157 147/158/147
f 148/169/157 158/170/158 157/159/148
f 158/170/158 168/171/159 167/160/149
f 168/171/159 178/172/160 177/161/150
f 178/172/160 188/173/161 187/162/151
f 188/173/161 198/174/162 197/163/152
f 198/174/162 108/186/153 107/175/143
f 109/176/163 119/177/164 118/166/154
f 119/177/164 129/178/165 128/167/155
f 129/178/165 139/179/166 138/168/156
f 139/179/166 149/180/167 148/169/157
f 149/180/167 159/181/168 158/170/158
f 159/181/168 169/182/169 168/171/159
f 169/182/169 179/183/170 178/172/160
f 179/183/170 189/184/171 188/173/161
f 189/184/171 199/185/172 198/174/162
f 199/185/172 109/197/163 108/186/153
f 109/176/163 110/198/182 120/187/173
f 119/177/164 120/187/173 130/188/174
f 129/178/165 130/188/174 140/189/175
f 139/179/166 140/189/175 150/190/176
f 149/180/167 150/190/176 160/191/177
f 159/181/168 160/191/177 170/192/178
f 169/182/169 170/192/178 180/193/179
f 179/183/170 180/193/179 190/194/180
f 189/184/171 190/194/180 200/195/181
f 199/185/172 200/195/181 110/196/182
