# Blender 4.0.2
# www.blender.org
mtllib Wallclock02.mtl
o Wallclock02
v 0.000000 0.166903 -0.068204
v 0.000000 0.227993 -0.020506
v 0.000000 0.166903 0.068204
v 0.000000 0.227993 0.020506
v 0.083451 0.144542 -0.068204
v 0.056998 0.212721 -0.020506
v 0.155722 0.155722 -0.020506
v 0.083451 0.144542 0.068204
v 0.155722 0.155722 0.020506
v 0.056998 0.212721 0.020506
v 0.144542 0.083451 -0.068204
v 0.155722 0.155722 -0.020506
v 0.212721 0.056998 -0.020506
v 0.144542 0.083451 0.068204
v 0.212721 0.056998 0.020506
v 0.155722 0.155722 0.020506
v 0.166903 0.000000 -0.068204
v 0.227993 0.000000 -0.020506
v 0.166903 -0.000000 0.068204
v 0.227993 -0.000000 0.020506
v 0.144542 -0.083451 -0.068204
v 0.212721 -0.056998 -0.020506
v 0.155722 -0.155722 -0.020506
v 0.144542 -0.083451 0.068204
v 0.155722 -0.155722 0.020506
v 0.212721 -0.056998 0.020506
v 0.083451 -0.144542 -0.068204
v 0.155722 -0.155722 -0.020506
v 0.056998 -0.212721 -0.020506
v 0.083451 -0.144542 0.068204
v 0.056998 -0.212721 0.020506
v 0.155722 -0.155722 0.020506
v 0.000000 -0.166903 -0.068204
v 0.000000 -0.227993 -0.020506
v 0.000000 -0.166903 0.068204
v 0.000000 -0.227993 0.020506
v -0.083451 -0.144542 -0.068204
v -0.056998 -0.212721 -0.020506
v -0.155722 -0.155722 -0.020506
v -0.083451 -0.144542 0.068204
v -0.155722 -0.155722 0.020506
v -0.056998 -0.212721 0.020506
v -0.144542 -0.083451 -0.068204
v -0.155722 -0.155722 -0.020506
v -0.212721 -0.056998 -0.020506
v -0.144542 -0.083451 0.068204
v -0.212721 -0.056998 0.020506
v -0.155722 -0.155722 0.020506
v -0.166903 0.000000 -0.068204
v -0.227993 0.000000 -0.020506
v -0.166903 -0.000000 0.068204
v -0.227993 -0.000000 0.020506
v -0.144542 0.083451 -0.068204
v -0.212721 0.056998 -0.020506
v -0.155722 0.155722 -0.020506
v -0.144542 0.083451 0.068204
v -0.155722 0.155722 0.020506
v -0.212721 0.056998 0.020506
v -0.083451 0.144542 -0.068204
v -0.155722 0.155722 -0.020506
v -0.056998 0.212721 -0.020506
v -0.083451 0.144542 0.068204
v -0.056998 0.212721 0.020506
v -0.155722 0.155722 0.020506
v 0.059038 0.220334 0.030257
v 0.085491 0.152155 0.077955
v 0.152155 0.085491 0.077955
v 0.220334 0.059038 0.030257
v 0.220334 -0.059038 0.030257
v 0.152155 -0.085491 0.077955
v 0.085491 -0.152155 0.077955
v 0.059038 -0.220334 0.030257
v -0.059038 -0.220334 0.030257
v -0.085491 -0.152155 0.077955
v -0.152155 -0.085491 0.077955
v -0.220334 -0.059038 0.030257
v -0.220334 0.059038 0.030257
v -0.152155 0.085491 0.077955
v -0.085491 0.152155 0.077955
v -0.059038 0.220334 0.030257
v 0.000000 0.235709 0.030388
v 0.000000 0.174619 0.078086
v 0.174619 -0.000000 0.078086
v 0.235709 -0.000000 0.030388
v -0.000000 -0.174619 0.078086
v 0.000000 -0.235709 0.030388
v -0.174619 -0.000000 0.078086
v -0.235709 -0.000000 0.030388
vn -0.2588 0.9659 -0.0000
vn 0.9659 0.2588 -0.0000
vn 0.9659 -0.2588 -0.0000
vn 0.8361 -0.5486 -0.0000
vn 0.2588 -0.9659 -0.0000
vn -0.2588 -0.9659 -0.0000
vn -0.6061 -0.7954 -0.0000
vn -0.9659 -0.2588 -0.0000
vn -0.9659 0.2588 -0.0000
vn -0.8361 0.5486 -0.0000
vn 0.6061 0.7954 -0.0000
vn -0.0000 -0.0000 1.0000
vn 0.2588 0.9659 -0.0000
vn 0.3606 0.6246 -0.6928
vn 0.3606 0.6246 0.6928
vn 0.6246 0.3606 -0.6928
vn 0.6246 0.3606 0.6928
vn 0.6246 -0.3606 -0.6928
vn 0.6246 -0.3606 0.6928
vn 0.3606 -0.6246 -0.6928
vn 0.3606 -0.6246 0.6928
vn -0.3606 -0.6246 -0.6928
vn -0.3606 -0.6246 0.6928
vn -0.6246 -0.3606 -0.6928
vn -0.6246 -0.3606 0.6928
vn -0.6246 0.3606 -0.6928
vn -0.6246 0.3606 0.6928
vn -0.3606 0.6246 -0.6928
vn -0.3606 0.6246 0.6928
vn 0.1627 0.6072 -0.7777
vn 0.7720 -0.2019 0.6027
vn 0.5000 0.8660 -0.0000
vn 0.4445 0.4445 -0.7777
vn 0.4445 0.4445 0.7777
vn 0.8660 0.5000 -0.0000
vn 0.6072 0.1627 -0.7777
vn 0.9390 0.1467 -0.3110
vn 0.6072 -0.1627 -0.7777
vn 0.1467 0.9390 -0.3110
vn 0.8660 -0.5000 -0.0000
vn 0.4445 -0.4445 -0.7777
vn 0.4445 -0.4445 0.7777
vn 0.5000 -0.8660 -0.0000
vn 0.1627 -0.6072 -0.7777
vn 0.1998 -0.7723 -0.6030
vn -0.1627 -0.6072 -0.7777
vn -0.7512 0.2013 -0.6286
vn -0.5000 -0.8660 -0.0000
vn -0.0000 -0.6508 -0.7593
vn -0.4445 -0.4445 0.7777
vn -0.8660 -0.5000 -0.0000
vn -0.6072 -0.1627 -0.7777
vn -0.1467 0.9390 -0.3110
vn -0.6072 0.1627 -0.7777
vn -0.9390 0.1467 -0.3110
vn -0.8660 0.5000 -0.0000
vn -0.4445 0.4445 -0.7777
vn -0.0000 0.6508 0.7593
vn -0.5000 0.8660 -0.0000
vn -0.1627 0.6072 -0.7777
vn -0.2019 -0.7720 0.6027
vn -0.0000 -0.0000 -1.0000
vn 0.1607 0.6069 0.7784
vn 0.6075 0.1599 0.7781
vn 0.6069 -0.1607 0.7784
vn 0.1599 -0.6075 0.7781
vn -0.1607 -0.6069 0.7784
vn -0.6075 -0.1599 0.7781
vn -0.6069 0.1607 0.7784
vn -0.1599 0.6075 0.7781
vn 0.7512 -0.2013 -0.6286
vn -0.2013 0.7512 0.6286
vn -0.7720 0.2019 0.6027
vn -0.1467 -0.9390 -0.3110
vn -0.9390 -0.1467 -0.3110
vn -0.7723 -0.1998 -0.6030
vn -0.2013 -0.7512 -0.6286
vn 0.2013 0.7512 -0.6286
vn 0.7512 0.2013 0.6286
vn 0.7723 0.1998 -0.6030
vn -0.1998 0.7723 -0.6030
vn 0.9390 -0.1467 -0.3110
vn 0.2019 0.7720 0.6027
vn 0.1467 -0.9390 -0.3110
vn -0.7512 -0.2013 0.6286
vn 0.2013 -0.7512 0.6286
vn 0.6061 -0.7954 -0.0000
vn -0.8361 -0.5486 -0.0000
vn -0.6061 0.7954 -0.0000
vn 0.8361 0.5486 -0.0000
vn 0.7512 -0.2013 0.6286
vn 0.3618 0.5879 -0.7235
vn 0.3482 0.3482 0.8704
vn 0.3482 -0.3482 -0.8704
vn 0.3618 -0.5879 0.7235
vn 0.2013 -0.7512 -0.6286
vn -0.7723 0.1998 -0.6030
vn -0.4445 -0.4445 -0.7777
vn -0.3651 -0.1826 0.9129
vn -0.3651 0.1826 -0.9129
vn -0.4445 0.4445 0.7777
vn -0.2013 -0.7512 0.6286
vn 0.1599 0.6075 0.7781
vn 0.6069 0.1607 0.7784
vn 0.6075 -0.1599 0.7781
vn 0.1607 -0.6069 0.7784
vn -0.1599 -0.6075 0.7781
vn -0.6069 -0.1607 0.7784
vn -0.6075 0.1599 0.7781
vn -0.1607 0.6069 0.7784
vn 0.7723 -0.1998 -0.6030
vn -0.2019 0.7720 0.6027
vn -0.7512 0.2013 0.6286
vn -0.7512 -0.2013 -0.6286
vn -0.1998 -0.7723 -0.6030
vn 0.1998 0.7723 -0.6030
vn 0.7720 0.2019 0.6027
vn 0.7512 0.2013 -0.6286
vn -0.2013 0.7512 -0.6286
vn 0.2013 0.7512 0.6286
vn -0.7720 -0.2019 0.6027
vn 0.2019 -0.7720 0.6027
vt 0.041667 0.825164
vt 0.000000 0.674836
vt 0.041667 0.674836
vt 0.791667 0.825164
vt 0.750000 0.674836
vt 0.791667 0.674836
vt 0.750000 0.825164
vt 0.708333 0.674836
vt 0.625000 0.825164
vt 0.625000 0.674836
vt 0.625000 0.674836
vt 0.541667 0.825164
vt 0.500000 0.674836
vt 0.541667 0.674836
vt 0.500000 0.825164
vt 0.458333 0.674836
vt 0.375000 0.825164
vt 0.375000 0.674836
vt 0.375000 0.674836
vt 0.291667 0.825164
vt 0.250000 0.674836
vt 0.291667 0.674836
vt 0.250000 0.825164
vt 0.208333 0.674836
vt 0.125000 0.825164
vt 0.125000 0.674836
vt 0.125000 0.674836
vt 0.875000 0.825164
vt 0.875000 0.674836
vt 0.875000 0.674836
vt 0.097846 0.337846
vt 0.250000 0.074308
vt 0.402154 0.337846
vt 1.000000 0.825164
vt 0.958333 0.674836
vt 1.000000 0.674836
vt 0.837846 0.402154
vt 0.810000 0.473923
vt 0.913923 0.413923
vt 0.337846 0.402154
vt 0.413923 0.413923
vt 0.310000 0.473923
vt 0.902154 0.337846
vt 0.913923 0.413923
vt 0.973923 0.310000
vt 0.473923 0.310000
vt 0.413923 0.413923
vt 0.902154 0.162154
vt 0.973923 0.190000
vt 0.913923 0.086077
vt 0.402154 0.162154
vt 0.413923 0.086077
vt 0.473923 0.190000
vt 0.837846 0.097846
vt 0.913923 0.086077
vt 0.810000 0.026077
vt 0.337846 0.097846
vt 0.310000 0.026077
vt 0.413923 0.086077
vt 0.662154 0.097846
vt 0.690000 0.026077
vt 0.586077 0.086077
vt 0.162154 0.097846
vt 0.086077 0.086077
vt 0.190000 0.026077
vt 0.597846 0.162154
vt 0.586077 0.086077
vt 0.526077 0.190000
vt 0.097846 0.162154
vt 0.026077 0.190000
vt 0.086077 0.086077
vt 0.597846 0.337846
vt 0.526077 0.310000
vt 0.586077 0.413923
vt 0.086077 0.413923
vt 0.026077 0.310000
vt 0.662154 0.402154
vt 0.586077 0.413923
vt 0.690000 0.473923
vt 0.162154 0.402154
vt 0.190000 0.473923
vt 0.086077 0.413923
vt 0.750000 0.425692
vt 0.750000 0.490000
vt 0.074308 0.250000
vt 0.958333 0.825164
vt 0.875000 0.825164
vt 0.925692 0.250000
vt 0.990000 0.250000
vt 0.708333 0.825164
vt 0.625000 0.825164
vt 0.750000 0.074308
vt 0.750000 0.010000
vt 0.208333 0.825164
vt 0.458333 0.825164
vt 0.375000 0.825164
vt 0.574308 0.250000
vt 0.510000 0.250000
vt 0.125000 0.825164
vt 0.250000 0.425692
vt 0.425692 0.250000
vt 0.490000 0.250000
vt 0.250000 0.010000
vt 0.010000 0.250000
vt 0.250000 0.490000
vt 0.000000 0.825164
s 0
f 63/1/1 2/2/1 61/3/1
f 15/4/2 18/5/2 13/6/2
f 20/7/3 22/8/3 18/5/3
f 25/9/4 28/10/4 23/11/4
f 31/12/5 34/13/5 29/14/5
f 36/15/6 38/16/6 34/13/6
f 41/17/7 44/18/7 39/19/7
f 47/20/8 50/21/8 45/22/8
f 52/23/9 54/24/9 50/21/9
f 57/25/10 60/26/10 55/27/10
f 9/28/11 12/29/11 7/30/11
f 56/31/12 35/32/12 14/33/12
f 4/34/13 6/35/13 2/36/13
f 5/37/14 6/38/14 7/39/14
f 8/40/15 9/41/15 10/42/15
f 11/43/16 12/44/16 13/45/16
f 14/33/17 15/46/17 16/47/17
f 21/48/18 22/49/18 23/50/18
f 24/51/19 25/52/19 26/53/19
f 27/54/20 28/55/20 29/56/20
f 30/57/21 31/58/21 32/59/21
f 37/60/22 38/61/22 39/62/22
f 40/63/23 41/64/23 42/65/23
f 43/66/24 44/67/24 45/68/24
f 46/69/25 47/70/25 48/71/25
f 53/72/26 54/73/26 55/74/26
f 56/31/27 57/75/27 58/76/27
f 59/77/28 60/78/28 61/79/28
f 62/80/29 63/81/29 64/82/29
f 6/38/30 1/83/30 2/84/30
f 51/85/31 78/31/31 87/85/31
f 7/30/32 10/86/32 9/28/32
f 7/39/33 11/43/33 5/37/33
f 16/47/34 8/40/34 14/33/34
f 15/4/35 12/29/35 16/87/35
f 13/45/36 17/88/36 11/43/36
f 10/42/37 66/40/37 8/40/37
f 22/49/38 17/88/38 18/89/38
f 14/33/39 68/46/39 15/46/39
f 25/9/40 22/8/40 26/90/40
f 23/50/41 27/54/41 21/48/41
f 32/59/42 24/51/42 30/57/42
f 29/14/43 32/91/43 31/12/43
f 29/56/44 33/92/44 27/54/44
f 36/15/45 72/12/45 86/15/45
f 38/61/46 33/92/46 34/93/46
f 52/23/47 77/94/47 58/94/47
f 39/19/48 42/95/48 41/17/48
f 44/67/49 37/60/49 39/62/49
f 48/71/50 40/63/50 46/69/50
f 45/22/51 48/96/51 47/20/51
f 45/68/52 49/97/52 43/66/52
f 56/31/53 77/76/53 78/31/53
f 54/73/54 49/97/54 50/98/54
f 62/80/55 80/81/55 63/81/55
f 55/27/56 58/94/56 57/25/56
f 55/74/57 59/77/57 53/72/57
f 57/75/58 62/80/58 64/82/58
f 61/3/59 64/99/59 63/1/59
f 61/79/60 1/83/60 59/77/60
f 3/100/61 66/40/61 82/100/61
f 17/88/62 37/60/62 59/77/62
f 65/42/63 82/100/63 66/40/63
f 68/46/64 83/101/64 84/102/64
f 69/53/65 83/101/65 70/51/65
f 72/58/66 85/32/66 86/103/66
f 73/65/67 85/32/67 74/63/67
f 76/70/68 87/85/68 88/104/68
f 77/76/69 87/85/69 78/31/69
f 80/81/70 82/100/70 81/105/70
f 20/7/71 69/90/71 26/90/71
f 35/32/72 71/57/72 30/57/72
f 19/101/73 70/51/73 83/101/73
f 47/70/74 75/69/74 76/70/74
f 40/63/75 73/65/75 74/63/75
f 52/23/76 76/20/76 88/23/76
f 36/15/77 73/95/77 42/95/77
f 4/34/78 65/86/78 10/86/78
f 51/85/79 75/69/79 46/69/79
f 20/7/80 68/4/80 84/7/80
f 4/106/81 80/1/81 81/106/81
f 30/57/82 72/58/82 31/58/82
f 35/32/83 74/63/83 85/32/83
f 24/51/84 69/53/84 70/51/84
f 19/101/85 67/33/85 14/33/85
f 3/100/86 79/80/86 62/80/86
f 63/1/1 4/106/1 2/2/1
f 15/4/2 20/7/2 18/5/2
f 20/7/3 26/90/3 22/8/3
f 25/9/87 32/91/87 28/10/87
f 31/12/5 36/15/5 34/13/5
f 36/15/6 42/95/6 38/16/6
f 41/17/88 48/96/88 44/18/88
f 47/20/8 52/23/8 50/21/8
f 52/23/9 58/94/9 54/24/9
f 57/25/89 64/99/89 60/26/89
f 9/28/90 16/87/90 12/29/90
f 14/33/12 8/40/12 3/100/12
f 3/100/12 62/80/12 56/31/12
f 56/31/12 51/85/12 46/69/12
f 46/69/12 40/63/12 35/32/12
f 35/32/12 30/57/12 24/51/12
f 24/51/12 19/101/12 14/33/12
f 14/33/12 3/100/12 56/31/12
f 56/31/12 46/69/12 35/32/12
f 35/32/12 24/51/12 14/33/12
f 4/34/13 10/86/13 6/35/13
f 6/38/30 5/37/30 1/83/30
f 51/85/91 56/31/91 78/31/91
f 7/30/32 6/35/32 10/86/32
f 7/39/92 12/44/92 11/43/92
f 16/47/93 9/41/93 8/40/93
f 15/4/35 13/6/35 12/29/35
f 13/45/36 18/89/36 17/88/36
f 10/42/37 65/42/37 66/40/37
f 22/49/38 21/48/38 17/88/38
f 14/33/39 67/33/39 68/46/39
f 25/9/40 23/11/40 22/8/40
f 23/50/94 28/55/94 27/54/94
f 32/59/95 25/52/95 24/51/95
f 29/14/43 28/10/43 32/91/43
f 29/56/44 34/93/44 33/92/44
f 36/15/96 31/12/96 72/12/96
f 38/61/46 37/60/46 33/92/46
f 52/23/97 88/23/97 77/94/97
f 39/19/48 38/16/48 42/95/48
f 44/67/98 43/66/98 37/60/98
f 48/71/99 41/64/99 40/63/99
f 45/22/51 44/18/51 48/96/51
f 45/68/52 50/98/52 49/97/52
f 56/31/53 58/76/53 77/76/53
f 54/73/54 53/72/54 49/97/54
f 62/80/55 79/80/55 80/81/55
f 55/27/56 54/24/56 58/94/56
f 55/74/100 60/78/100 59/77/100
f 57/75/101 56/31/101 62/80/101
f 61/3/59 60/26/59 64/99/59
f 61/79/60 2/84/60 1/83/60
f 3/100/102 8/40/102 66/40/102
f 59/77/62 1/83/62 5/37/62
f 5/37/62 11/43/62 17/88/62
f 17/88/62 21/48/62 27/54/62
f 27/54/62 33/92/62 37/60/62
f 37/60/62 43/66/62 49/97/62
f 49/97/62 53/72/62 59/77/62
f 59/77/62 5/37/62 17/88/62
f 17/88/62 27/54/62 37/60/62
f 37/60/62 49/97/62 59/77/62
f 65/42/103 81/105/103 82/100/103
f 68/46/104 67/33/104 83/101/104
f 69/53/105 84/102/105 83/101/105
f 72/58/106 71/57/106 85/32/106
f 73/65/107 86/103/107 85/32/107
f 76/70/108 75/69/108 87/85/108
f 77/76/109 88/104/109 87/85/109
f 80/81/110 79/80/110 82/100/110
f 20/7/111 84/7/111 69/90/111
f 35/32/112 85/32/112 71/57/112
f 19/101/113 24/51/113 70/51/113
f 47/70/74 46/69/74 75/69/74
f 40/63/75 42/65/75 73/65/75
f 52/23/114 47/20/114 76/20/114
f 36/15/115 86/15/115 73/95/115
f 4/34/116 81/34/116 65/86/116
f 51/85/117 87/85/117 75/69/117
f 20/7/118 15/4/118 68/4/118
f 4/106/119 63/1/119 80/1/119
f 30/57/82 71/57/82 72/58/82
f 35/32/120 40/63/120 74/63/120
f 24/51/84 26/53/84 69/53/84
f 19/101/121 83/101/121 67/33/121
f 3/100/122 82/100/122 79/80/122
