# Blender 4.1.0
# www.blender.org
mtllib Wall2UnitEmpty.mtl
o Wall2UnitEmpty
v 0.000000 0.000000 0.000000
v 0.000000 2.768600 0.000000
v 0.000000 0.000000 -0.200000
v 0.000000 2.768600 -0.200000
v 2.500000 0.000000 0.000000
v 2.500000 2.768600 0.000000
v 2.500000 0.000000 -0.200000
v 2.500000 2.768600 -0.200000
v 4.989231 0.000000 0.000000
v 4.989231 2.768600 0.000000
v 4.989231 0.000000 -0.200000
v 4.989231 2.768600 -0.200000
vn -1.0000 -0.0000 -0.0000
vn -0.0000 -0.0000 -1.0000
vn -0.0000 -0.0000 1.0000
vn -0.0000 -1.0000 -0.0000
vn -0.0000 1.0000 -0.0000
vn 1.0000 -0.0000 -0.0000
vt 0.000000 1.000000
vt 1.000000 0.000000
vt 0.000000 0.000000
vt 1.000000 1.000000
s 0
usemtl WallInterior.002
f 2/1/1 3/2/1 1/3/1
f 4/1/2 7/2/2 3/3/2
f 6/4/3 1/3/3 5/2/3
f 7/4/4 1/3/4 3/1/4
f 4/1/5 6/2/5 8/4/5
f 2/1/1 4/4/1 3/2/1
f 4/1/2 8/4/2 7/2/2
f 6/4/3 2/1/3 1/3/3
f 7/4/4 5/2/4 1/3/4
f 4/1/5 2/3/5 6/2/5
usemtl WallInterior.003
f 8/1/2 11/2/2 7/3/2
f 12/4/6 9/3/6 11/2/6
f 10/4/3 5/3/3 9/2/3
f 11/4/4 5/3/4 7/1/4
f 8/1/5 10/2/5 12/4/5
f 8/1/2 12/4/2 11/2/2
f 12/4/6 10/1/6 9/3/6
f 10/4/3 6/1/3 5/3/3
f 11/4/4 9/2/4 5/3/4
f 8/1/5 6/3/5 10/2/5
