# Blender 4.0.2
# www.blender.org
mtllib Revolver.mtl
o Revolver.001
v 0.000000 0.010393 0.100401
v 0.000000 0.010393 -0.008781
v -0.036307 0.025432 0.100401
v -0.036307 0.025432 -0.008781
v -0.051346 0.061739 0.100401
v -0.051346 0.061739 -0.008781
v -0.036307 0.098046 0.100401
v -0.036307 0.098046 -0.008781
v 0.000000 0.113085 0.100401
v 0.000000 0.113085 -0.008781
v 0.036307 0.098046 0.100401
v 0.036307 0.098046 -0.008781
v 0.051346 0.061739 0.100401
v 0.051346 0.061739 -0.008781
v 0.036307 0.025432 0.100401
v 0.036307 0.025432 -0.008781
vn 0.3827 0.9239 -0.0000
vn 0.9239 0.3827 -0.0000
vn 0.9239 -0.3827 -0.0000
vn 0.3827 -0.9239 -0.0000
vn -0.3827 -0.9239 -0.0000
vn -0.9239 -0.3827 -0.0000
vn -0.0000 -0.0000 1.0000
vn -0.9239 0.3827 -0.0000
vn -0.3827 0.9239 -0.0000
vn -0.0000 -0.0000 -1.0000
vt 1.000000 1.000000
vt 0.875000 0.500000
vt 1.000000 0.500000
vt 0.875000 1.000000
vt 0.750000 0.500000
vt 0.750000 1.000000
vt 0.625000 0.500000
vt 0.625000 1.000000
vt 0.500000 0.500000
vt 0.500000 1.000000
vt 0.375000 0.500000
vt 0.375000 1.000000
vt 0.250000 0.500000
vt 0.010000 0.250000
vt 0.250000 0.010000
vt 0.490000 0.250000
vt 0.250000 1.000000
vt 0.125000 0.500000
vt 0.125000 1.000000
vt 0.000000 0.500000
vt 0.919706 0.080294
vt 0.580294 0.080294
vt 0.580294 0.419706
vt 0.419706 0.419706
vt 0.250000 0.490000
vt 0.080294 0.419706
vt 0.080294 0.080294
vt 0.419706 0.080294
vt 0.000000 1.000000
vt 0.750000 0.490000
vt 0.919706 0.419706
vt 0.990000 0.250000
vt 0.750000 0.010000
vt 0.510000 0.250000
s 1
f 2/1/1 3/2/1 1/3/1
f 4/4/2 5/5/2 3/2/2
f 6/6/3 7/7/3 5/5/3
f 8/8/4 9/9/4 7/7/4
f 10/10/5 11/11/5 9/9/5
f 12/12/6 13/13/6 11/11/6
f 14/14/7 10/15/7 6/16/7
f 14/17/8 15/18/8 13/13/8
f 16/19/9 1/20/9 15/18/9
f 7/21/10 11/22/10 15/23/10
f 2/1/1 4/4/1 3/2/1
f 4/4/2 6/6/2 5/5/2
f 6/6/3 8/8/3 7/7/3
f 8/8/4 10/10/4 9/9/4
f 10/10/5 12/12/5 11/11/5
f 12/12/6 14/17/6 13/13/6
f 6/16/7 4/24/7 2/25/7
f 2/25/7 16/26/7 14/14/7
f 14/14/7 12/27/7 10/15/7
f 10/15/7 8/28/7 6/16/7
f 6/16/7 2/25/7 14/14/7
f 14/17/8 16/19/8 15/18/8
f 16/19/9 2/29/9 1/20/9
f 15/23/10 1/30/10 3/31/10
f 3/31/10 5/32/10 7/21/10
f 7/21/10 9/33/10 11/22/10
f 11/22/10 13/34/10 15/23/10
f 15/23/10 3/31/10 7/21/10
o Revolver.002
v -0.026829 -0.114649 -0.086458
v -0.015622 0.009177 0.118075
v -0.021031 0.108891 -0.031658
v -0.026829 0.119414 0.123844
v 0.026829 -0.114649 -0.086458
v 0.015622 0.009177 0.118075
v 0.021031 0.108891 -0.031658
v 0.026829 0.119414 0.123844
v -0.026829 -0.114649 -0.149596
v -0.026829 0.055286 0.123844
v 0.026829 -0.114649 -0.149596
v 0.026829 0.055286 0.123844
v -0.015622 0.009177 0.094608
v -0.026829 0.119414 0.094608
v 0.026829 0.119414 0.094608
v 0.015622 0.009177 0.094608
v 0.026829 0.055286 0.094608
v -0.026829 0.055286 0.094608
v -0.026829 0.119414 0.066698
v 0.026829 0.119414 0.066698
v 0.015622 0.009177 0.066698
v 0.026829 0.055286 0.066698
v -0.026829 0.055286 0.066698
v -0.015622 0.009177 0.066698
v -0.026829 0.119414 0.021267
v 0.026829 0.119414 0.021267
v 0.015622 0.009177 0.021267
v 0.026829 0.055286 0.021267
v -0.026829 0.055286 0.021267
v -0.015622 0.009177 0.021267
v -0.021031 0.090667 -0.044635
v -0.015622 0.002232 -0.007166
v -0.026829 0.060153 -0.104100
v 0.021031 0.090667 -0.044635
v 0.015622 0.002232 -0.007166
v 0.015622 -0.033878 -0.023355
v -0.015622 -0.033878 -0.023355
v 0.026829 0.060153 -0.104100
v 0.026829 -0.090687 -0.077594
v -0.026829 -0.075048 -0.149104
v 0.026829 -0.075048 -0.149104
v -0.026829 -0.090687 -0.077594
v 0.026829 -0.023734 -0.133842
v -0.026829 -0.043369 -0.070370
v 0.026829 -0.043369 -0.070370
v -0.026829 -0.023734 -0.133842
v 0.026829 0.000298 -0.114371
v -0.026829 -0.037149 -0.065407
v 0.026829 -0.037149 -0.065407
v -0.026829 0.000298 -0.114371
v -0.015622 -0.036354 0.052824
v -0.015622 -0.052185 0.065060
v 0.015622 -0.052185 0.065060
v 0.015622 -0.036354 0.052824
v -0.015622 -0.060979 -0.003032
v 0.015622 -0.060979 -0.003032
v 0.015622 -0.041751 0.004028
v -0.015622 -0.041751 0.004028
v 0.015622 -0.042626 0.028272
v 0.015622 -0.061557 0.030469
v -0.015622 -0.061557 0.030469
v -0.015622 -0.042626 0.028272
v 0.015622 -0.028614 -0.004948
v -0.015622 -0.051022 -0.015868
v 0.015622 -0.051022 -0.015868
v -0.015622 -0.028614 -0.004948
v -0.015622 -0.013589 0.059761
v -0.015622 -0.019989 0.086126
v 0.015622 -0.019989 0.086126
v 0.015622 -0.013589 0.059761
v -0.007212 -0.004873 0.008333
v -0.007212 0.001356 0.020730
v 0.007212 0.001356 0.020730
v 0.007212 -0.004873 0.008333
v -0.007212 -0.017567 0.005363
v -0.007212 -0.017253 0.020198
v 0.007212 -0.017253 0.020198
v 0.007212 -0.017567 0.005363
v -0.007212 -0.036274 0.016195
v -0.007212 -0.031577 0.026310
v 0.007212 -0.031577 0.026310
v 0.007212 -0.036274 0.016195
v 0.026829 0.119414 -0.024165
v -0.026829 0.119414 -0.024165
v 0.026829 0.080143 -0.052128
v -0.026829 0.080143 -0.052128
v 0.021031 0.109781 -0.077357
v -0.021031 0.109781 -0.077357
v 0.021031 0.100320 -0.077352
v -0.021031 0.100320 -0.077352
v -0.021031 0.096991 -0.052354
v 0.021031 0.096991 -0.052354
v 0.021031 0.105645 -0.045860
v -0.021031 0.105645 -0.045860
v -0.021031 0.101895 -0.062329
v -0.021031 0.111723 -0.058909
v 0.021031 0.101895 -0.062329
v 0.021031 0.111723 -0.058909
v -0.026829 -0.123383 -0.161431
v -0.026829 -0.123383 -0.077526
v 0.026829 -0.092351 -0.066046
v 0.026829 -0.123383 -0.077526
v -0.026829 -0.074053 -0.160818
v 0.026829 -0.123383 -0.161431
v 0.026829 -0.046219 -0.059004
v -0.026829 -0.020447 -0.144874
v 0.026829 -0.074053 -0.160818
v -0.026829 -0.092351 -0.066046
v 0.026829 -0.020447 -0.144874
v -0.026829 -0.046219 -0.059004
v 0.026829 -0.035854 -0.050733
v -0.026829 0.014494 -0.116564
v 0.026829 0.014494 -0.116564
v -0.026829 -0.035854 -0.050733
v -0.031866 -0.090687 -0.077594
v -0.031866 -0.075048 -0.149104
v 0.031866 -0.075048 -0.149104
v 0.031866 -0.090687 -0.077594
v -0.031866 -0.043369 -0.070370
v -0.031866 -0.023734 -0.133842
v 0.031866 -0.023734 -0.133842
v 0.031866 -0.043369 -0.070370
v -0.031866 -0.114649 -0.149596
v -0.031866 -0.114649 -0.086458
v 0.031866 -0.114649 -0.086458
v 0.031866 -0.114649 -0.149596
v 0.031866 -0.037149 -0.065407
v -0.031866 0.000298 -0.114371
v 0.031866 0.000298 -0.114371
v -0.031866 -0.037149 -0.065407
vn -0.9935 -0.1142 -0.0000
vn -1.0000 -0.0000 -0.0000
vn -0.9929 -0.1189 -0.0000
vn -0.0000 1.0000 -0.0000
vn 0.9929 -0.1189 -0.0000
vn 0.9717 -0.2362 -0.0000
vn 0.9857 -0.1685 -0.0000
vn -0.0000 -1.0000 -0.0000
vn -0.0000 -0.0571 0.9984
vn -0.0000 -0.1242 0.9923
vn -0.0000 -0.0000 1.0000
vn -0.0000 -0.9946 0.1042
vn 1.0000 -0.0000 -0.0000
vn 0.9935 -0.1142 -0.0000
vn -0.9717 -0.2362 -0.0000
vn -0.9857 -0.1685 -0.0000
vn -0.9888 -0.1491 -0.0000
vn 0.9888 -0.1491 -0.0000
vn -0.9930 -0.1174 -0.0090
vn 0.9247 -0.3681 0.0966
vn 0.9930 -0.1174 -0.0090
vn -0.9247 -0.3681 0.0966
vn -0.9805 -0.1888 0.0541
vn -0.9971 -0.0341 0.0678
vn -0.9942 0.0331 0.1025
vn 0.9960 -0.0886 0.0092
vn 0.9971 -0.0341 0.0678
vn 0.9805 -0.1888 0.0541
vn 0.9942 0.0331 0.1025
vn -0.0000 0.9333 -0.3590
vn 0.9776 0.1023 0.1840
vn -0.9960 -0.0886 0.0092
vn -0.0000 0.1502 -0.9887
vn -0.0000 0.0124 -0.9999
vn -0.7491 -0.6318 0.1993
vn -0.6257 -0.6970 0.3502
vn -0.0000 -0.9974 0.0720
vn -0.9776 0.1023 0.1840
vn -0.0000 0.4662 -0.8847
vn -0.0000 -0.2502 0.9682
vn -0.0000 -0.3469 0.9379
vn -0.0000 0.7943 0.6075
vn -0.0000 0.4562 -0.8899
vn -0.0000 -0.4009 0.9161
vn -0.0000 0.2634 -0.9647
vn -0.0000 -0.6237 0.7816
vn -0.0000 0.5641 0.8257
vn -0.0000 -0.6142 -0.7891
vn -0.0000 -0.7901 -0.6129
vn -0.0000 0.9993 0.0361
vn -0.0000 0.9943 -0.1068
vn -0.0000 0.2915 -0.9566
vn -0.0000 -0.4180 0.9085
vn -0.0000 -0.5475 0.8368
vn -0.0000 -0.9999 -0.0172
vn -0.0000 -0.9924 0.1234
vn -0.0000 -0.9652 0.2615
vn -0.0000 0.9689 -0.2475
vn -0.0000 -0.4002 -0.9164
vn -0.0000 0.0717 0.9974
vn -0.0000 -0.2793 0.9602
vn 0.7491 -0.6318 0.1993
vn -0.0000 -0.9090 -0.4167
vn -0.0000 -0.0685 0.9977
vn -0.0000 -0.0527 0.9986
vn -0.0000 0.2278 -0.9737
vn -0.0000 0.1863 0.9825
vn -0.0000 -0.9070 0.4211
vn -0.0000 -0.5011 -0.8654
vn -0.0000 0.3925 0.9198
vn -0.0000 0.5800 -0.8146
vn -0.0000 -0.0005 -1.0000
vn -0.0000 0.9945 -0.1047
vn -0.0000 0.9749 -0.2228
vn -0.0000 -0.7735 -0.6338
vn -0.0000 -0.8410 -0.5410
vn -0.0000 0.9065 0.4222
vn -0.0000 -0.8974 -0.4411
vn -0.0000 0.6295 -0.7770
vn 0.6257 -0.6970 0.3502
vt 0.625000 0.125000
vt 0.500000 0.250000
vt 0.500000 0.125000
vt 0.625000 0.250000
vt 0.500000 0.500000
vt 0.500000 0.625000
vt 0.625000 0.750000
vt 0.500000 0.750000
vt 0.500000 1.000000
vt 0.375000 0.625000
vt 0.125000 0.750000
vt 0.125000 0.625000
vt 0.875000 0.625000
vt 0.625000 0.625000
vt 0.875000 0.500000
vt 0.625000 0.500000
vt 0.347986 0.538650
vt 0.152014 0.538649
vt 0.625000 0.000000
vt 0.500000 0.000000
vt 0.437500 0.125000
vt 0.437500 0.000000
vt 0.437500 0.625000
vt 0.437500 0.500000
vt 0.392094 0.750000
vt 0.383547 0.750000
vt 0.437500 0.750000
vt 0.437500 0.250000
vt 0.406250 0.250000
vt 0.406250 0.125000
vt 0.406250 0.500000
vt 0.406250 0.750000
vt 0.406250 0.625000
vt 0.406250 1.000000
vt 0.406250 0.000000
vt 0.392094 0.000000
vt 0.383455 0.125000
vt 0.383547 0.000000
vt 0.375000 0.500000
vt 0.375000 0.552798
vt 0.383455 0.625000
vt 0.375000 0.250000
vt 0.125000 0.588899
vt 0.125000 0.552798
vt 0.382479 0.750000
vt 0.382398 0.625000
vt 0.391910 0.125000
vt 0.375000 0.606949
vt 0.125000 0.606949
vt 0.382479 1.000000
vt 0.382479 0.000000
vt 0.382398 0.125000
vt 0.381351 0.641037
vt 0.379283 0.640043
vt 0.379273 0.750000
vt 0.375000 1.000000
vt 0.375000 0.750000
vt 0.375000 0.597924
vt 0.125000 0.597924
vt 0.381856 0.733953
vt 0.382146 0.641050
vt 0.375000 0.593412
vt 0.125000 0.593412
vt 0.376081 0.016871
vt 0.375812 0.108185
vt 0.381410 0.750000
vt 0.379273 1.000000
vt 0.379244 0.015092
vt 0.375000 0.588899
vt 0.382146 0.108950
vt 0.381856 0.016047
vt 0.381410 1.000000
vt 0.375812 0.641815
vt 0.392094 1.000000
vt 0.383547 1.000000
vt 0.437500 1.000000
vt 0.152014 0.514148
vt 0.347986 0.514148
vt 0.125000 0.500000
vt 0.375000 0.000000
vt 0.376081 0.733129
vt 0.379227 0.125000
vt 0.375000 0.125000
vt 0.379244 0.734908
vt 0.379283 0.109957
vt 0.381341 0.125000
vt 0.379227 0.625000
vt 0.379273 0.000000
vt 0.381341 0.625000
vt 0.381410 0.000000
vt 0.381369 0.016017
vt 0.381369 0.733983
vt 0.381351 0.108963
vt 0.625000 1.000000
vt 0.875000 0.750000
vt 0.391910 0.625000
s 1
f 26/35/11 30/36/12 34/37/13
f 20/38/14 31/39/14 30/36/14
f 33/40/15 22/41/16 32/42/17
f 22/41/18 29/43/18 32/42/18
f 120/44/18 116/45/18 115/46/18
f 26/47/19 22/41/20 28/48/19
f 20/49/21 28/48/19 24/50/21
f 113/51/22 106/52/22 105/51/22
f 31/39/23 28/48/24 33/40/15
f 18/53/25 34/37/13 29/54/26
f 29/54/26 39/55/13 40/56/27
f 31/39/23 38/57/15 36/58/23
f 73/59/23 76/60/23 72/60/23
f 33/40/15 37/61/28 38/57/15
f 30/36/14 36/58/14 35/62/14
f 34/37/13 35/62/12 39/55/13
f 39/55/13 41/63/12 45/64/29
f 35/62/14 42/65/14 41/63/14
f 38/57/15 43/66/30 44/67/31
f 37/61/18 46/68/18 43/66/18
f 36/58/23 44/67/31 42/65/23
f 46/69/32 39/55/13 45/64/29
f 48/70/33 49/71/34 53/72/35
f 99/73/23 44/67/31 101/74/36
f 84/54/12 67/56/12 68/54/12
f 54/75/37 51/59/38 52/60/39
f 41/63/14 99/73/14 100/76/14
f 101/74/40 49/77/40 102/78/40
f 54/75/37 127/79/41 129/80/23
f 45/64/29 100/76/12 102/81/42
f 123/82/43 115/46/44 119/83/43
f 46/69/32 87/70/45 88/69/46
f 51/59/38 44/67/31 43/66/30
f 48/70/33 45/64/29 102/81/42
f 52/60/47 130/84/47 127/79/47
f 130/85/48 49/71/34 128/86/12
f 59/87/49 133/88/43 57/88/43
f 117/89/50 116/90/51 118/91/51
f 125/92/49 119/83/43 122/93/49
f 65/94/52 145/95/52 63/95/52
f 129/96/53 122/93/49 128/97/53
f 17/98/18 139/99/18 25/99/18
f 121/100/54 124/101/50 117/89/50
f 58/102/50 140/98/51 17/98/51
f 54/103/55 128/97/53 49/77/55
f 66/104/52 146/105/52 64/105/52
f 127/79/56 126/106/54 121/100/54
f 57/88/43 142/107/44 27/107/44
f 82/108/57 73/59/57 79/59/57
f 81/60/58 71/109/59 80/109/58
f 85/42/23 70/61/23 86/61/23
f 74/108/60 75/59/61 73/59/60
f 86/61/62 67/110/62 83/110/62
f 84/43/63 69/42/64 85/42/63
f 72/60/65 77/109/66 71/109/65
f 74/70/12 77/72/12 78/70/12
f 80/72/12 74/70/12 82/70/12
f 76/42/23 70/61/23 69/42/23
f 77/43/66 69/42/67 68/43/67
f 67/110/12 77/43/12 68/43/12
f 75/61/61 67/110/68 70/61/68
f 81/60/23 73/59/23 72/60/23
f 52/60/39 79/59/23 81/60/23
f 53/72/35 82/70/12 48/70/33
f 52/60/69 80/109/58 53/109/69
f 48/108/70 79/59/70 51/59/70
f 29/43/71 85/42/63 32/42/71
f 37/61/62 83/110/62 40/110/62
f 37/61/28 85/42/23 86/61/23
f 40/56/27 84/54/12 29/54/26
f 90/59/23 93/66/23 94/59/23
f 43/66/30 90/59/72 51/59/38
f 51/59/73 87/108/73 48/108/73
f 46/68/74 89/66/75 43/66/74
f 93/66/23 98/59/23 94/59/23
f 87/70/12 92/69/12 88/69/12
f 90/59/76 91/108/76 87/108/76
f 88/68/75 93/66/77 89/66/75
f 98/59/78 96/68/78 95/108/78
f 92/69/12 95/70/12 96/69/12
f 94/59/79 95/108/79 91/108/79
f 92/68/77 97/66/80 93/66/77
f 19/111/81 99/73/81 23/112/81
f 23/112/81 101/74/81 50/51/81
f 19/111/81 102/78/81 100/113/81
f 50/51/81 102/78/81 47/52/81
f 103/112/82 106/52/82 104/111/82
f 113/51/23 103/112/23 114/112/23
f 111/52/12 104/111/12 106/52/12
f 114/112/83 104/111/83 112/111/83
f 23/112/84 110/111/84 19/111/84
f 47/52/12 110/111/12 107/52/12
f 50/51/23 109/112/23 23/112/23
f 47/52/85 108/51/86 50/51/85
f 109/112/87 112/111/87 110/111/87
f 107/52/12 112/111/12 111/52/12
f 108/51/23 114/112/23 109/112/23
f 107/52/86 113/51/88 108/51/86
f 25/99/12 116/114/12 17/98/12
f 21/115/23 117/89/23 118/91/23
f 25/99/12 119/116/12 115/117/12
f 27/107/23 118/91/23 120/44/23
f 55/118/23 121/100/23 117/89/23
f 56/119/12 122/120/12 119/116/12
f 27/107/23 123/121/23 57/88/23
f 17/98/12 124/122/12 58/102/12
f 57/88/23 125/123/23 59/87/23
f 58/102/12 126/124/12 60/125/12
f 65/94/23 121/100/23 61/126/23
f 66/104/12 122/120/12 62/127/12
f 63/95/23 125/123/23 129/80/23
f 64/105/12 126/124/12 130/85/48
f 64/105/12 128/86/12 66/104/12
f 65/94/23 129/80/23 127/79/41
f 140/98/12 132/119/12 139/99/12
f 133/88/23 141/115/23 142/107/23
f 135/125/12 132/119/12 131/102/12
f 133/88/23 138/126/23 134/118/23
f 135/125/12 144/104/12 136/127/12
f 145/95/23 138/126/23 137/87/23
f 21/115/51 134/118/50 55/118/50
f 60/125/54 131/102/50 58/102/50
f 25/99/44 132/119/43 56/119/43
f 61/126/54 143/94/56 65/94/56
f 27/107/18 141/115/18 21/115/18
f 62/127/49 144/104/89 66/104/89
f 55/118/50 138/126/54 61/126/54
f 63/95/89 137/87/49 59/87/49
f 56/119/43 136/127/49 62/127/49
f 64/105/56 135/125/54 60/125/54
f 26/35/11 20/38/12 30/36/12
f 20/38/14 24/50/14 31/39/14
f 33/40/15 28/48/24 22/41/16
f 22/41/18 18/128/18 29/43/18
f 120/44/18 118/91/18 116/45/18
f 26/47/19 18/129/20 22/41/20
f 20/49/21 26/47/19 28/48/19
f 113/51/22 111/52/22 106/52/22
f 31/39/23 24/50/23 28/48/24
f 18/53/25 26/35/11 34/37/13
f 29/54/26 34/37/13 39/55/13
f 31/39/23 33/40/15 38/57/15
f 73/59/23 75/59/23 76/60/23
f 33/40/15 32/42/17 37/61/28
f 30/36/14 31/39/14 36/58/14
f 34/37/13 30/36/12 35/62/12
f 39/55/13 35/62/12 41/63/12
f 35/62/14 36/58/14 42/65/14
f 38/57/15 37/61/28 43/66/30
f 37/61/18 40/110/18 46/68/18
f 36/58/23 38/57/15 44/67/31
f 46/69/32 40/56/27 39/55/13
f 48/70/33 102/81/42 49/71/34
f 99/73/23 42/65/23 44/67/31
f 84/54/12 83/56/12 67/56/12
f 54/75/37 101/130/36 51/59/38
f 41/63/14 42/65/14 99/73/14
f 101/74/40 54/103/40 49/77/40
f 54/75/37 52/60/39 127/79/41
f 45/64/29 41/63/12 100/76/12
f 123/82/43 120/44/44 115/46/44
f 46/69/32 48/70/33 87/70/45
f 51/59/38 101/130/36 44/67/31
f 48/70/33 46/69/32 45/64/29
f 52/60/47 53/109/47 130/84/47
f 130/85/48 53/72/35 49/71/34
f 59/87/49 137/87/49 133/88/43
f 117/89/50 124/101/50 116/90/51
f 125/92/49 123/82/43 119/83/43
f 65/94/52 143/94/52 145/95/52
f 129/96/53 125/92/49 122/93/49
f 17/98/18 140/98/18 139/99/18
f 121/100/54 126/106/54 124/101/50
f 58/102/50 131/102/50 140/98/51
f 54/103/55 129/96/53 128/97/53
f 66/104/52 144/104/52 146/105/52
f 127/79/56 130/84/56 126/106/54
f 57/88/43 133/88/43 142/107/44
f 82/108/57 74/108/57 73/59/57
f 81/60/58 72/60/59 71/109/59
f 85/42/23 69/42/23 70/61/23
f 74/108/60 78/108/61 75/59/61
f 86/61/62 70/61/62 67/110/62
f 84/43/63 68/43/64 69/42/64
f 72/60/65 76/60/66 77/109/66
f 74/70/12 71/72/12 77/72/12
f 80/72/12 71/72/12 74/70/12
f 76/42/23 75/61/23 70/61/23
f 77/43/66 76/42/66 69/42/67
f 67/110/12 78/110/12 77/43/12
f 75/61/61 78/110/61 67/110/68
f 81/60/23 79/59/23 73/59/23
f 52/60/39 51/59/38 79/59/23
f 53/72/35 80/72/12 82/70/12
f 52/60/69 81/60/58 80/109/58
f 48/108/70 82/108/70 79/59/70
f 29/43/71 84/43/63 85/42/63
f 37/61/62 86/61/62 83/110/62
f 37/61/28 32/42/17 85/42/23
f 40/56/27 83/56/12 84/54/12
f 90/59/23 89/66/23 93/66/23
f 43/66/30 89/66/90 90/59/72
f 51/59/73 90/59/73 87/108/73
f 46/68/74 88/68/75 89/66/75
f 93/66/23 97/66/23 98/59/23
f 87/70/12 91/70/12 92/69/12
f 90/59/76 94/59/76 91/108/76
f 88/68/75 92/68/77 93/66/77
f 98/59/78 97/66/78 96/68/78
f 92/69/12 91/70/12 95/70/12
f 94/59/79 98/59/79 95/108/79
f 92/68/77 96/68/80 97/66/80
f 19/111/81 100/113/81 99/73/81
f 23/112/81 99/73/81 101/74/81
f 19/111/81 47/52/81 102/78/81
f 50/51/81 101/74/81 102/78/81
f 103/112/82 105/51/82 106/52/82
f 113/51/23 105/51/23 103/112/23
f 111/52/12 112/111/12 104/111/12
f 114/112/83 103/112/83 104/111/83
f 23/112/84 109/112/84 110/111/84
f 47/52/12 19/111/12 110/111/12
f 50/51/23 108/51/23 109/112/23
f 47/52/85 107/52/86 108/51/86
f 109/112/87 114/112/87 112/111/87
f 107/52/12 110/111/12 112/111/12
f 108/51/23 113/51/23 114/112/23
f 107/52/86 111/52/88 113/51/88
f 25/99/12 115/117/12 116/114/12
f 21/115/23 55/118/23 117/89/23
f 25/99/12 56/119/12 119/116/12
f 27/107/23 21/115/23 118/91/23
f 55/118/23 61/126/23 121/100/23
f 56/119/12 62/127/12 122/120/12
f 27/107/23 120/44/23 123/121/23
f 17/98/12 116/114/12 124/122/12
f 57/88/23 123/121/23 125/123/23
f 58/102/12 124/122/12 126/124/12
f 65/94/23 127/79/41 121/100/23
f 66/104/12 128/86/12 122/120/12
f 63/95/23 59/87/23 125/123/23
f 64/105/12 60/125/12 126/124/12
f 64/105/12 130/85/48 128/86/12
f 65/94/23 63/95/23 129/80/23
f 140/98/12 131/102/12 132/119/12
f 133/88/23 134/118/23 141/115/23
f 135/125/12 136/127/12 132/119/12
f 133/88/23 137/87/23 138/126/23
f 135/125/12 146/105/12 144/104/12
f 145/95/23 143/94/23 138/126/23
f 21/115/51 141/115/51 134/118/50
f 60/125/54 135/125/54 131/102/50
f 25/99/44 139/99/44 132/119/43
f 61/126/54 138/126/54 143/94/56
f 27/107/18 142/107/18 141/115/18
f 62/127/49 136/127/49 144/104/89
f 55/118/50 134/118/50 138/126/54
f 63/95/89 145/95/89 137/87/49
f 56/119/43 132/119/43 136/127/49
f 64/105/56 146/105/56 135/125/54
o Revolver
v 0.000000 0.062092 0.199142
v 0.000000 0.062092 0.103504
v -0.017523 0.069351 0.199142
v -0.017523 0.069351 0.103504
v -0.024781 0.086873 0.199142
v -0.024781 0.086873 0.103504
v -0.017523 0.104396 0.199142
v -0.017523 0.104396 0.103504
v 0.000000 0.111654 0.199142
v 0.000000 0.111654 0.103504
v 0.017523 0.104396 0.199142
v 0.017523 0.104396 0.103504
v 0.024781 0.086873 0.199142
v 0.024781 0.086873 0.103504
v 0.017523 0.069351 0.199142
v 0.017523 0.069351 0.103504
vn 0.3827 0.9239 -0.0000
vn 0.9239 0.3827 -0.0000
vn 0.9239 -0.3827 -0.0000
vn 0.3827 -0.9239 -0.0000
vn -0.3827 -0.9239 -0.0000
vn -0.9239 -0.3827 -0.0000
vn -0.0000 -0.0000 1.0000
vn -0.9239 0.3827 -0.0000
vn -0.3827 0.9239 -0.0000
vn -0.0000 -0.0000 -1.0000
vt 1.000000 1.000000
vt 0.875000 0.500000
vt 1.000000 0.500000
vt 0.875000 1.000000
vt 0.750000 0.500000
vt 0.750000 1.000000
vt 0.625000 0.500000
vt 0.625000 1.000000
vt 0.500000 0.500000
vt 0.500000 1.000000
vt 0.375000 0.500000
vt 0.375000 1.000000
vt 0.250000 0.500000
vt 0.010000 0.250000
vt 0.250000 0.010000
vt 0.490000 0.250000
vt 0.250000 1.000000
vt 0.125000 0.500000
vt 0.125000 1.000000
vt 0.000000 0.500000
vt 0.919706 0.080294
vt 0.580294 0.080294
vt 0.580294 0.419706
vt 0.419706 0.419706
vt 0.250000 0.490000
vt 0.080294 0.419706
vt 0.080294 0.080294
vt 0.419706 0.080294
vt 0.000000 1.000000
vt 0.750000 0.490000
vt 0.919706 0.419706
vt 0.990000 0.250000
vt 0.750000 0.010000
vt 0.510000 0.250000
s 1
f 148/131/91 149/132/91 147/133/91
f 150/134/92 151/135/92 149/132/92
f 152/136/93 153/137/93 151/135/93
f 154/138/94 155/139/94 153/137/94
f 156/140/95 157/141/95 155/139/95
f 158/142/96 159/143/96 157/141/96
f 160/144/97 156/145/97 152/146/97
f 160/147/98 161/148/98 159/143/98
f 162/149/99 147/150/99 161/148/99
f 153/151/100 157/152/100 161/153/100
f 148/131/91 150/134/91 149/132/91
f 150/134/92 152/136/92 151/135/92
f 152/136/93 154/138/93 153/137/93
f 154/138/94 156/140/94 155/139/94
f 156/140/95 158/142/95 157/141/95
f 158/142/96 160/147/96 159/143/96
f 152/146/97 150/154/97 148/155/97
f 148/155/97 162/156/97 160/144/97
f 160/144/97 158/157/97 156/145/97
f 156/145/97 154/158/97 152/146/97
f 152/146/97 148/155/97 160/144/97
f 160/147/98 162/149/98 161/148/98
f 162/149/99 148/159/99 147/150/99
f 161/153/100 147/160/100 149/161/100
f 149/161/100 151/162/100 153/151/100
f 153/151/100 155/163/100 157/152/100
f 157/152/100 159/164/100 161/153/100
f 161/153/100 149/161/100 153/151/100
