# Blender 4.0.2
# www.blender.org
mtllib Footstool01.mtl
o foot_stool_leg.003
v -0.119638 -0.005075 -0.124533
v -0.094081 0.255891 -0.118934
v -0.102564 -0.005075 -0.118709
v -0.074113 0.255891 -0.109991
v -0.095492 -0.005075 -0.104649
v -0.065843 0.255891 -0.088401
v -0.102564 -0.005075 -0.090590
v -0.074113 0.255891 -0.066811
v -0.119638 -0.005075 -0.084766
v -0.094081 0.255891 -0.057868
v -0.136713 -0.005075 -0.090590
v -0.114048 0.255891 -0.066811
v -0.143785 -0.005075 -0.104649
v -0.122319 0.255891 -0.088401
v -0.136713 -0.005075 -0.118709
v -0.114048 0.255891 -0.109991
v 0.119638 -0.005075 -0.124533
v 0.094081 0.255891 -0.118934
v 0.102564 -0.005075 -0.118709
v 0.074113 0.255891 -0.109991
v 0.095492 -0.005075 -0.104649
v 0.065843 0.255891 -0.088401
v 0.102564 -0.005075 -0.090590
v 0.074113 0.255891 -0.066811
v 0.119638 -0.005075 -0.084766
v 0.094081 0.255891 -0.057868
v 0.136713 -0.005075 -0.090590
v 0.114048 0.255891 -0.066811
v 0.143785 -0.005075 -0.104649
v 0.122319 0.255891 -0.088401
v 0.136713 -0.005075 -0.118709
v 0.114048 0.255891 -0.109991
v -0.119638 -0.005075 0.124533
v -0.094081 0.255891 0.118934
v -0.102564 -0.005075 0.118709
v -0.074113 0.255891 0.109991
v -0.095492 -0.005075 0.104649
v -0.065843 0.255891 0.088401
v -0.102564 -0.005075 0.090590
v -0.074113 0.255891 0.066811
v -0.119638 -0.005075 0.084766
v -0.094081 0.255891 0.057868
v -0.136713 -0.005075 0.090590
v -0.114048 0.255891 0.066811
v -0.143785 -0.005075 0.104649
v -0.122319 0.255891 0.088401
v -0.136713 -0.005075 0.118709
v -0.114048 0.255891 0.109991
v 0.119638 -0.005075 0.124533
v 0.094081 0.255891 0.118934
v 0.102564 -0.005075 0.118709
v 0.074113 0.255891 0.109991
v 0.095492 -0.005075 0.104649
v 0.065843 0.255891 0.088401
v 0.102564 -0.005075 0.090590
v 0.074113 0.255891 0.066811
v 0.119638 -0.005075 0.084766
v 0.094081 0.255891 0.057868
v 0.136713 -0.005075 0.090590
v 0.114048 0.255891 0.066811
v 0.143785 -0.005075 0.104649
v 0.122319 0.255891 0.088401
v 0.136713 -0.005075 0.118709
v 0.114048 0.255891 0.109991
vn 0.3228 -0.0113 -0.9464
vn 0.8903 -0.0821 -0.4479
vn 0.8859 -0.1284 0.4457
vn 0.3202 -0.1281 0.9387
vn -0.3223 -0.0581 0.9449
vn -0.8924 0.0455 0.4489
vn -0.0000 1.0000 -0.0000
vn -0.8895 0.0922 -0.4475
vn -0.3223 0.0595 -0.9448
vn -0.0000 -1.0000 -0.0000
vn -0.3228 -0.0113 -0.9464
vn -0.8903 -0.0821 -0.4479
vn -0.8859 -0.1284 0.4457
vn -0.4055 -0.1267 0.9053
vn 0.4082 -0.0540 0.9113
vn 0.9327 0.0484 0.3573
vn 0.9293 0.0986 -0.3560
vn 0.3223 0.0595 -0.9448
vn 0.3228 -0.0113 0.9464
vn 0.8903 -0.0821 0.4479
vn 0.8859 -0.1284 -0.4457
vn 0.4055 -0.1267 -0.9053
vn -0.4082 -0.0540 -0.9113
vn -0.9327 0.0484 -0.3573
vn -0.9293 0.0986 0.3560
vn -0.3223 0.0595 0.9448
vn -0.3228 -0.0113 0.9464
vn -0.8903 -0.0821 0.4479
vn -0.8859 -0.1284 -0.4457
vn -0.3202 -0.1281 -0.9387
vn 0.3223 -0.0581 -0.9449
vn 0.8924 0.0455 -0.4489
vn 0.8895 0.0922 0.4475
vn 0.3223 0.0595 0.9448
vn 0.4087 -0.0141 -0.9126
vn 0.9306 -0.0835 -0.3565
vn 0.9255 -0.1332 0.3545
vn 0.4055 -0.1267 0.9053
vn -0.4082 -0.0540 0.9113
vn -0.9327 0.0484 0.3573
vn -0.9293 0.0986 -0.3560
vn -0.4080 0.0595 -0.9110
vn -0.4087 -0.0141 -0.9126
vn -0.9306 -0.0835 -0.3565
vn -0.9255 -0.1332 0.3545
vn -0.3202 -0.1281 0.9387
vn 0.3223 -0.0581 0.9449
vn 0.8924 0.0455 0.4489
vn 0.8895 0.0922 -0.4475
vn 0.4080 0.0595 -0.9110
vn 0.4087 -0.0141 0.9126
vn 0.9306 -0.0835 0.3565
vn 0.9255 -0.1332 -0.3545
vn 0.3202 -0.1281 -0.9387
vn -0.3223 -0.0581 -0.9449
vn -0.8924 0.0455 -0.4489
vn -0.8895 0.0922 0.4475
vn -0.4080 0.0595 0.9110
vn -0.4087 -0.0141 0.9126
vn -0.9306 -0.0835 0.3565
vn -0.9255 -0.1332 -0.3545
vn -0.4055 -0.1267 -0.9053
vn 0.4082 -0.0540 -0.9113
vn 0.9327 0.0484 -0.3573
vn 0.9293 0.0986 0.3560
vn 0.4080 0.0595 0.9110
vt 1.000000 1.000000
vt 0.875000 0.500000
vt 1.000000 0.500000
vt 0.875000 1.000000
vt 0.750000 0.500000
vt 0.750000 1.000000
vt 0.625000 0.500000
vt 0.500000 1.000000
vt 0.500000 0.500000
vt 0.375000 1.000000
vt 0.375000 0.500000
vt 0.250000 1.000000
vt 0.250000 0.500000
vt 0.010000 0.250000
vt 0.250000 0.010000
vt 0.490000 0.250000
vt 0.125000 1.000000
vt 0.125000 0.500000
vt 0.000000 0.500000
vt 0.919706 0.080294
vt 0.580294 0.080294
vt 0.580294 0.419706
vt 0.625000 1.000000
vt 0.250000 0.490000
vt 0.919706 0.419706
vt 0.419706 0.419706
vt 0.080294 0.419706
vt 0.080294 0.080294
vt 0.419706 0.080294
vt 0.000000 1.000000
vt 0.750000 0.490000
vt 0.990000 0.250000
vt 0.750000 0.010000
vt 0.510000 0.250000
s 0
f 2/1/1 3/2/1 1/3/1
f 4/4/2 5/5/2 3/2/2
f 6/6/3 7/7/3 5/5/3
f 7/7/4 10/8/4 9/9/4
f 9/9/5 12/10/5 11/11/5
f 11/11/6 14/12/6 13/13/6
f 14/14/7 10/15/7 6/16/7
f 13/13/8 16/17/8 15/18/8
f 16/17/9 1/19/9 15/18/9
f 7/20/10 11/21/10 15/22/10
f 19/2/11 18/1/11 17/3/11
f 21/5/12 20/4/12 19/2/12
f 23/7/13 22/6/13 21/5/13
f 23/7/14 26/8/14 24/23/14
f 25/9/15 28/10/15 26/8/15
f 27/11/16 30/12/16 28/10/16
f 26/15/7 30/14/7 18/24/7
f 29/13/17 32/17/17 30/12/17
f 17/19/18 32/17/18 31/18/18
f 27/21/10 23/20/10 19/25/10
f 35/2/19 34/1/19 33/3/19
f 37/5/20 36/4/20 35/2/20
f 39/7/21 38/6/21 37/5/21
f 39/7/22 42/8/22 40/23/22
f 41/9/23 44/10/23 42/8/23
f 43/11/24 46/12/24 44/10/24
f 42/15/7 46/14/7 34/24/7
f 45/13/25 48/17/25 46/12/25
f 33/19/26 48/17/26 47/18/26
f 43/21/10 39/20/10 35/25/10
f 50/1/27 51/2/27 49/3/27
f 52/4/28 53/5/28 51/2/28
f 54/6/29 55/7/29 53/5/29
f 55/7/30 58/8/30 57/9/30
f 57/9/31 60/10/31 59/11/31
f 59/11/32 62/12/32 61/13/32
f 62/14/7 58/15/7 54/16/7
f 61/13/33 64/17/33 63/18/33
f 64/17/34 49/19/34 63/18/34
f 55/20/10 59/21/10 63/22/10
f 2/1/35 4/4/35 3/2/35
f 4/4/36 6/6/36 5/5/36
f 6/6/37 8/23/37 7/7/37
f 7/7/38 8/23/38 10/8/38
f 9/9/39 10/8/39 12/10/39
f 11/11/40 12/10/40 14/12/40
f 6/16/7 4/26/7 2/24/7
f 2/24/7 16/27/7 14/14/7
f 14/14/7 12/28/7 10/15/7
f 10/15/7 8/29/7 6/16/7
f 6/16/7 2/24/7 14/14/7
f 13/13/41 14/12/41 16/17/41
f 16/17/42 2/30/42 1/19/42
f 15/22/10 1/31/10 3/25/10
f 3/25/10 5/32/10 7/20/10
f 7/20/10 9/33/10 11/21/10
f 11/21/10 13/34/10 15/22/10
f 15/22/10 3/25/10 7/20/10
f 19/2/43 20/4/43 18/1/43
f 21/5/44 22/6/44 20/4/44
f 23/7/45 24/23/45 22/6/45
f 23/7/46 25/9/46 26/8/46
f 25/9/47 27/11/47 28/10/47
f 27/11/48 29/13/48 30/12/48
f 18/24/7 20/26/7 22/16/7
f 22/16/7 24/29/7 26/15/7
f 26/15/7 28/28/7 30/14/7
f 30/14/7 32/27/7 18/24/7
f 18/24/7 22/16/7 26/15/7
f 29/13/49 31/18/49 32/17/49
f 17/19/50 18/30/50 32/17/50
f 19/25/10 17/31/10 31/22/10
f 31/22/10 29/34/10 27/21/10
f 27/21/10 25/33/10 23/20/10
f 23/20/10 21/32/10 19/25/10
f 19/25/10 31/22/10 27/21/10
f 35/2/51 36/4/51 34/1/51
f 37/5/52 38/6/52 36/4/52
f 39/7/53 40/23/53 38/6/53
f 39/7/54 41/9/54 42/8/54
f 41/9/55 43/11/55 44/10/55
f 43/11/56 45/13/56 46/12/56
f 34/24/7 36/26/7 38/16/7
f 38/16/7 40/29/7 42/15/7
f 42/15/7 44/28/7 46/14/7
f 46/14/7 48/27/7 34/24/7
f 34/24/7 38/16/7 42/15/7
f 45/13/57 47/18/57 48/17/57
f 33/19/58 34/30/58 48/17/58
f 35/25/10 33/31/10 47/22/10
f 47/22/10 45/34/10 43/21/10
f 43/21/10 41/33/10 39/20/10
f 39/20/10 37/32/10 35/25/10
f 35/25/10 47/22/10 43/21/10
f 50/1/59 52/4/59 51/2/59
f 52/4/60 54/6/60 53/5/60
f 54/6/61 56/23/61 55/7/61
f 55/7/62 56/23/62 58/8/62
f 57/9/63 58/8/63 60/10/63
f 59/11/64 60/10/64 62/12/64
f 54/16/7 52/26/7 50/24/7
f 50/24/7 64/27/7 62/14/7
f 62/14/7 60/28/7 58/15/7
f 58/15/7 56/29/7 54/16/7
f 54/16/7 50/24/7 62/14/7
f 61/13/65 62/12/65 64/17/65
f 64/17/66 50/30/66 49/19/66
f 63/22/10 49/31/10 51/25/10
f 51/25/10 53/32/10 55/20/10
f 55/20/10 57/33/10 59/21/10
f 59/21/10 61/34/10 63/22/10
f 63/22/10 51/25/10 55/20/10
o foot_stool_top.001
v -0.137507 0.214193 0.125435
v -0.137507 0.244193 0.155435
v -0.167507 0.244193 0.125435
v -0.137507 0.261194 0.155435
v -0.137507 0.291194 0.125435
v -0.167507 0.261194 0.125435
v -0.137507 0.214193 -0.125435
v -0.167507 0.244193 -0.125435
v -0.137507 0.244193 -0.155435
v -0.137507 0.291194 -0.125435
v -0.137507 0.261194 -0.155435
v -0.167507 0.261194 -0.125435
v 0.137507 0.214193 0.125435
v 0.167507 0.244193 0.125435
v 0.137507 0.244193 0.155435
v 0.137507 0.291194 0.125435
v 0.137507 0.261194 0.155435
v 0.167507 0.261194 0.125435
v 0.137507 0.214193 -0.125435
v 0.137507 0.244193 -0.155435
v 0.167507 0.244193 -0.125435
v 0.137507 0.291194 -0.125435
v 0.167507 0.261194 -0.125435
v 0.137507 0.261194 -0.155435
vn -0.0000 -0.0000 1.0000
vn 1.0000 -0.0000 -0.0000
vn -0.0000 1.0000 -0.0000
vn -1.0000 -0.0000 -0.0000
vn -0.0000 -0.0000 -1.0000
vn -0.5774 -0.5774 0.5773
vn -0.5774 0.5774 0.5773
vn -0.5774 -0.5774 -0.5773
vn -0.5774 0.5774 -0.5773
vn 0.5774 -0.5774 0.5773
vn 0.5774 0.5774 0.5773
vn 0.5774 -0.5774 -0.5773
vn 0.5774 0.5774 -0.5773
vn -0.7071 -0.7071 -0.0000
vn -0.7071 -0.0000 0.7071
vn -0.7071 0.7071 -0.0000
vn -0.7071 -0.0000 -0.7071
vn -0.0000 -0.7071 -0.7071
vn -0.0000 0.7071 -0.7071
vn 0.7071 -0.0000 -0.7071
vn 0.7071 -0.7071 -0.0000
vn 0.7071 0.7071 -0.0000
vn 0.7071 -0.0000 0.7071
vn -0.0000 -0.7071 0.7071
vn -0.0000 0.7071 0.7071
vn -0.0000 -1.0000 -0.0000
vt 0.527599 0.772387
vt 0.472401 0.977613
vt 0.472401 0.772387
vt 0.527599 0.524126
vt 0.472401 0.725874
vt 0.472401 0.524126
vt 0.852613 0.524126
vt 0.647387 0.725874
vt 0.647387 0.524126
vt 0.527599 0.024126
vt 0.472401 0.225874
vt 0.472401 0.024126
vt 0.527599 0.272387
vt 0.472401 0.477613
vt 0.472401 0.272387
vt 0.147387 0.725874
vt 0.147387 0.750000
vt 0.125000 0.725874
vt 0.527599 0.000000
vt 0.625000 0.024126
vt 0.147387 0.524126
vt 0.125000 0.524126
vt 0.147387 0.500000
vt 0.625000 0.225874
vt 0.527599 0.250000
vt 0.527599 0.225874
vt 0.352613 0.725874
vt 0.375000 0.725874
vt 0.352613 0.750000
vt 0.625000 0.772387
vt 0.527599 0.750000
vt 0.352613 0.524126
vt 0.352613 0.500000
vt 0.375000 0.524126
vt 0.625000 0.477613
vt 0.527599 0.500000
vt 0.527599 0.477613
vt 0.472401 0.000000
vt 0.625000 0.272387
vt 0.527599 0.725874
vt 0.625000 0.977613
vt 0.527599 0.977613
vt 0.852613 0.725874
s 0
f 81/35/67 66/36/67 79/37/67
f 87/38/68 78/39/68 85/40/68
f 74/41/69 80/42/69 86/43/69
f 70/44/70 72/45/70 67/46/70
f 75/47/71 84/48/71 73/49/71
f 65/50/72 66/51/72 67/52/72
f 68/53/73 69/54/73 70/44/73
f 71/55/74 72/56/74 73/57/74
f 74/58/75 75/59/75 76/60/75
f 77/61/76 78/62/76 79/63/76
f 80/64/77 81/35/77 82/65/77
f 83/66/78 84/67/78 85/68/78
f 86/69/79 87/70/79 88/71/79
f 65/50/80 72/56/80 71/55/80
f 68/53/81 67/46/81 66/72/81
f 74/58/82 70/44/82 69/54/82
f 73/49/83 76/60/83 75/47/83
f 71/55/84 84/67/84 83/66/84
f 86/69/85 75/47/85 74/73/85
f 85/40/86 88/71/86 87/38/86
f 83/66/87 78/39/87 77/61/87
f 80/42/88 87/38/88 86/43/88
f 79/37/89 82/74/89 81/35/89
f 77/61/90 66/51/90 65/50/90
f 69/75/91 81/35/91 80/64/91
f 83/66/92 65/50/92 71/55/92
f 81/35/67 68/76/67 66/36/67
f 87/38/68 82/74/68 78/39/68
f 74/41/69 69/77/69 80/42/69
f 70/44/70 76/60/70 72/45/70
f 75/47/71 88/71/71 84/48/71
f 65/50/80 67/52/80 72/56/80
f 68/53/81 70/44/81 67/46/81
f 74/58/82 76/60/82 70/44/82
f 73/49/83 72/45/83 76/60/83
f 71/55/84 73/57/84 84/67/84
f 86/69/85 88/71/85 75/47/85
f 85/40/86 84/48/86 88/71/86
f 83/66/87 85/40/87 78/39/87
f 80/42/88 82/74/88 87/38/88
f 79/37/89 78/39/89 82/74/89
f 77/61/90 79/63/90 66/51/90
f 69/75/91 68/76/91 81/35/91
f 83/66/92 77/61/92 65/50/92
