# Blender 4.0.2
# www.blender.org
mtllib Battery.mtl
o Battery
v -0.000000 0.098084 -0.032737
v 0.019242 0.098084 -0.026484
v 0.031134 0.098084 -0.010116
v 0.031134 0.098084 0.010116
v 0.019242 0.098084 0.026484
v -0.000000 0.098084 0.032737
v -0.019242 0.098084 0.026484
v -0.031134 0.098084 0.010116
v -0.001465 0.102071 -0.002016
v -0.031134 0.098084 -0.010116
v 0.001465 0.102071 0.002016
v -0.019242 0.098084 -0.026484
v 0.003835 0.095578 -0.005279
v -0.000000 0.095578 -0.006525
v -0.003835 0.095578 -0.005279
v -0.006206 0.095578 -0.002016
v -0.006206 0.095578 0.002016
v -0.003835 0.095578 0.005279
v -0.000000 0.095578 0.006525
v 0.003835 0.095578 0.005279
v 0.006206 0.095578 0.002016
v 0.006206 0.095578 -0.002016
v -0.000000 0.095578 -0.029843
v 0.017541 0.095578 -0.024144
v -0.017541 0.095578 -0.024144
v -0.028383 0.095578 -0.009222
v -0.028383 0.095578 0.009222
v -0.017541 0.095578 0.024144
v -0.000000 0.095578 0.029843
v 0.017541 0.095578 0.024144
v 0.028383 0.095578 0.009222
v 0.028383 0.095578 -0.009222
v -0.000000 0.102071 -0.006525
v 0.003835 0.102071 -0.005279
v -0.003835 0.102071 -0.005279
v -0.006206 0.102071 -0.002016
v -0.006206 0.102071 0.002016
v -0.003835 0.102071 0.005279
v -0.000000 0.102071 0.006525
v 0.003835 0.102071 0.005279
v 0.006206 0.102071 0.002016
v 0.006206 0.102071 -0.002016
v 0.000000 0.000000 -0.030065
v 0.017672 0.000000 -0.024323
v 0.028594 0.000000 -0.009291
v 0.028594 0.000000 0.009291
v 0.017672 0.000000 0.024323
v 0.000000 0.000000 0.030065
v -0.017672 0.000000 0.024323
v -0.028594 0.000000 0.009291
v -0.028594 0.000000 -0.009291
v -0.017672 0.000000 -0.024323
v 0.000000 0.002573 -0.022201
v 0.013050 0.002573 -0.017961
v 0.021115 0.002573 -0.006861
v 0.021115 0.002573 0.006861
v 0.013050 0.002573 0.017961
v 0.000000 0.002573 0.022201
v -0.013050 0.002573 0.017961
v -0.021115 0.002573 0.006861
v -0.021115 0.002573 -0.006861
v -0.013050 0.002573 -0.017961
v 0.021925 0.098084 -0.030177
v 0.023879 0.094923 -0.032866
v 0.000000 0.094923 -0.040625
v -0.000000 0.098084 -0.037300
v 0.035475 0.098084 -0.011526
v 0.038636 0.094923 -0.012554
v 0.035475 0.098084 0.011526
v 0.038636 0.094923 0.012554
v 0.021925 0.098084 0.030177
v 0.023879 0.094923 0.032866
v -0.000000 0.098084 0.037300
v 0.000000 0.094923 0.040625
v -0.021925 0.098084 0.030177
v -0.023879 0.094923 0.032866
v -0.035475 0.098084 0.011526
v -0.038636 0.094923 0.012554
v -0.035475 0.098084 -0.011526
v -0.038636 0.094923 -0.012554
v -0.021925 0.098084 -0.030177
v -0.023879 0.094923 -0.032866
v 0.000000 0.000000 -0.037300
v 0.000000 0.003162 -0.040625
v 0.023879 0.003162 -0.032866
v 0.021925 0.000000 -0.030177
v 0.038636 0.003162 -0.012554
v 0.035475 0.000000 -0.011526
v 0.038636 0.003162 0.012554
v 0.035475 0.000000 0.011526
v 0.023879 0.003162 0.032866
v 0.021925 0.000000 0.030177
v 0.000000 0.003162 0.040625
v 0.000000 0.000000 0.037300
v -0.023879 0.003162 0.032866
v -0.021925 0.000000 0.030177
v -0.038636 0.003162 0.012554
v -0.035475 0.000000 0.011526
v -0.038636 0.003162 -0.012554
v -0.035475 0.000000 -0.011526
v -0.023879 0.003162 -0.032866
v -0.021925 0.000000 -0.030177
vn -0.1203 -0.9920 -0.0391
vn -0.0000 -1.0000 -0.0000
vn -0.0000 1.0000 -0.0000
vn -0.0743 -0.9920 0.1023
vn -0.1203 -0.9920 0.0391
vn 0.0743 -0.9920 0.1023
vn -0.0000 -0.9920 0.1265
vn -0.0743 -0.9920 -0.1023
vn -0.0000 -0.9920 -0.1265
vn 0.0743 -0.9920 -0.1023
vn 0.1203 -0.9920 -0.0391
vn 0.1203 -0.9920 0.0391
vn 0.8090 -0.0000 0.5878
vn -0.0000 0.7558 0.6548
vn -0.3849 0.7558 0.5298
vn 0.3849 0.7558 0.5298
vn 0.6228 0.7558 0.2023
vn 0.6228 0.7558 -0.2023
vn 0.3849 0.7558 -0.5298
vn -0.0000 0.7558 -0.6548
vn -0.3849 0.7558 -0.5298
vn -0.6228 0.7558 -0.2023
vn -0.6228 0.7558 0.2023
vn -0.8090 -0.0000 0.5878
vn -0.3090 -0.0000 -0.9511
vn 1.0000 -0.0000 -0.0000
vn -0.3090 -0.0000 0.9511
vn -0.8090 -0.0000 -0.5878
vn 0.8090 -0.0000 -0.5878
vn 0.3090 -0.0000 0.9511
vn -1.0000 -0.0000 -0.0000
vn 0.3090 -0.0000 -0.9511
vn -0.1786 -0.9822 -0.0580
vn 0.1786 -0.9822 -0.0580
vn 0.1104 -0.9822 0.1519
vn -0.0000 -0.9822 0.1878
vn -0.1786 -0.9822 0.0580
vn -0.1104 -0.9822 -0.1519
vn -0.0000 -0.9822 -0.1878
vn 0.1104 -0.9822 -0.1519
vn 0.1786 -0.9822 0.0580
vn -0.0000 0.7246 -0.6892
vn 0.4051 0.7246 -0.5575
vn 0.6554 0.7246 -0.2130
vn 0.6554 0.7246 0.2130
vn 0.4051 0.7246 0.5575
vn -0.0000 0.7246 0.6892
vn -0.4051 0.7246 0.5575
vn -0.6554 0.7246 0.2130
vn -0.6554 0.7246 -0.2130
vn -0.4051 0.7246 -0.5575
vn -0.0000 -0.7246 -0.6892
vn 0.4051 -0.7246 -0.5575
vn 0.6554 -0.7246 -0.2130
vn 0.6554 -0.7246 0.2130
vn 0.4051 -0.7246 0.5575
vn -0.0000 -0.7246 0.6892
vn -0.4051 -0.7246 0.5575
vn -0.6554 -0.7246 0.2130
vn -0.6554 -0.7246 -0.2130
vn -0.4051 -0.7246 -0.5575
vn -0.1104 -0.9822 0.1519
vt 0.918925 0.195113
vt 0.959576 0.318095
vt 0.959576 0.181905
vt 0.457016 0.317264
vt 0.385537 0.436551
vt 0.377943 0.426098
vt 0.457016 0.182737
vt 0.469303 0.321256
vt 0.377943 0.073902
vt 0.469303 0.178744
vt 0.250000 0.032331
vt 0.385537 0.063449
vt 0.114463 0.063449
vt 0.250000 0.019411
vt 0.122057 0.073902
vt 0.030697 0.178744
vt 0.042984 0.317263
vt 0.042984 0.182737
vt 0.122057 0.426098
vt 0.030697 0.321256
vt 0.250000 0.467669
vt 0.114463 0.436551
vt 0.854402 0.393697
vt 0.918925 0.304887
vt 0.645598 0.393697
vt 0.750000 0.470361
vt 0.750000 0.427619
vt 0.854402 0.106303
vt 0.750000 0.029639
vt 0.750000 0.072381
vt 0.645598 0.106303
vt 0.620475 0.071724
vt 0.540424 0.181905
vt 0.581075 0.195113
vt 0.581075 0.304887
vt 0.540424 0.318095
vt 0.620475 0.428276
vt 0.259005 0.237606
vt 0.250000 0.202408
vt 0.277974 0.211497
vt 0.879525 0.071724
vt 0.295263 0.235293
vt 0.277974 0.288503
vt 0.250000 0.297592
vt 0.222026 0.288503
vt 0.204737 0.264707
vt 0.204737 0.235293
vt 0.222026 0.211497
vt 0.295263 0.264707
vt 0.100000 0.983883
vt -0.000000 0.516117
vt 0.100000 0.516117
vt 0.900000 0.983883
vt 0.800000 0.516117
vt 0.900000 0.516117
vt 0.800000 0.983883
vt 0.700000 0.516117
vt 0.700000 0.983883
vt 0.600000 0.516117
vt 0.700000 0.516117
vt 0.600000 0.983883
vt 0.500000 0.516117
vt 0.500000 0.983883
vt 0.400000 0.516117
vt 0.400000 0.983883
vt 0.300000 0.516117
vt 0.300000 0.983883
vt 0.200000 0.516117
vt 0.200000 0.983883
vt 0.200000 0.516117
vt 1.000000 0.983883
vt 1.000000 0.516117
vt 0.250000 0.490000
vt 0.391068 0.444164
vt 0.478254 0.324164
vt 0.478254 0.175836
vt 0.391068 0.055836
vt 0.250000 0.010000
vt 0.108932 0.055836
vt 0.021746 0.175836
vt 0.021746 0.324164
vt 0.108932 0.444164
vt 0.250000 0.480589
vt 0.750000 0.490000
vt 0.879525 0.428276
vt 0.978254 0.324164
vt 0.879525 0.428276
vt 0.891068 0.444164
vt 0.978254 0.175836
vt 0.750000 0.010000
vt 0.879525 0.071724
vt 0.891068 0.055836
vt 0.521746 0.175836
vt 0.608932 0.055836
vt 0.521746 0.324164
vt 0.620475 0.428276
vt 0.608932 0.444164
vt 0.240995 0.262394
vt -0.000000 0.983883
s 1
f 46/1/1 88/2/2 90/3/2
f 3/4/3 63/5/3 2/6/3
f 4/7/3 67/8/3 3/4/3
f 5/9/3 69/10/3 4/7/3
f 6/11/3 71/12/3 5/9/3
f 6/11/3 75/13/3 73/14/3
f 7/15/3 77/16/3 75/13/3
f 10/17/3 77/16/3 8/18/3
f 12/19/3 79/20/3 10/17/3
f 1/21/3 81/22/3 12/19/3
f 44/23/4 88/2/2 45/24/5
f 52/25/6 83/26/2 43/27/7
f 47/28/8 94/29/2 48/30/9
f 49/31/10 94/29/2 96/32/2
f 49/31/10 98/33/2 50/34/11
f 51/35/12 98/33/2 100/36/2
f 51/35/12 102/37/2 52/25/6
f 11/38/3 39/39/3 40/40/3
f 46/1/1 92/41/2 47/28/8
f 21/42/13 40/40/13 20/40/13
f 23/21/14 2/6/15 1/21/14
f 25/19/16 1/21/14 12/19/16
f 10/17/17 25/19/16 12/19/16
f 27/18/18 10/17/17 8/18/18
f 28/15/19 8/18/18 7/15/19
f 29/11/20 7/15/19 6/11/20
f 30/9/21 6/11/20 5/9/21
f 4/7/22 30/9/21 5/9/21
f 32/4/23 4/7/22 3/4/23
f 2/6/15 32/4/23 3/4/23
f 13/43/3 23/21/3 14/44/3
f 14/44/3 25/19/3 15/45/3
f 16/46/3 25/19/3 26/17/3
f 16/46/3 27/18/3 17/47/3
f 18/48/3 27/18/3 28/15/3
f 18/48/3 29/11/3 19/39/3
f 19/39/3 30/9/3 20/40/3
f 20/40/3 31/7/3 21/42/3
f 21/42/3 32/4/3 22/49/3
f 22/49/3 24/6/3 13/43/3
f 11/38/3 41/42/3 42/49/3
f 18/48/24 37/47/24 17/47/24
f 15/45/25 33/44/25 14/44/25
f 22/49/26 41/42/26 21/42/26
f 19/39/27 38/48/27 18/48/27
f 16/46/28 35/45/28 15/45/28
f 13/43/29 42/49/29 22/49/29
f 20/40/30 39/39/30 19/39/30
f 17/47/31 36/46/31 16/46/31
f 14/44/32 34/43/32 13/43/32
f 82/50/25 84/51/25 101/52/25
f 64/53/29 87/54/29 85/55/29
f 68/56/26 89/57/26 87/54/26
f 70/58/13 91/59/13 89/60/13
f 72/61/30 93/62/30 91/59/30
f 74/63/27 95/64/27 93/62/27
f 76/65/24 97/66/24 95/64/24
f 78/67/31 99/68/31 97/66/31
f 80/69/28 101/52/28 99/70/28
f 65/71/32 85/55/32 84/72/32
f 56/1/33 60/34/34 62/25/35
f 44/23/4 53/27/36 43/27/7
f 55/24/37 44/23/4 45/24/5
f 56/1/33 45/24/5 46/1/1
f 57/28/38 46/1/1 47/28/8
f 58/30/39 47/28/8 48/30/9
f 59/31/40 48/30/9 49/31/10
f 60/34/34 49/31/10 50/34/11
f 61/35/41 50/34/11 51/35/12
f 52/25/6 61/35/41 51/35/12
f 43/27/7 62/25/35 52/25/6
f 65/73/42 63/5/43 64/74/43
f 64/74/43 67/8/44 68/75/44
f 68/75/44 69/10/45 70/76/45
f 70/76/45 71/12/46 72/77/46
f 72/77/46 73/14/47 74/78/47
f 74/78/47 75/13/48 76/79/48
f 76/79/48 77/16/49 78/80/49
f 78/80/49 79/20/50 80/81/50
f 80/81/50 81/22/51 82/82/51
f 82/82/51 66/83/42 65/73/42
f 2/6/3 66/83/3 1/21/3
f 84/84/52 86/85/53 83/26/52
f 87/86/54 86/87/53 85/88/53
f 89/89/55 88/2/54 87/86/54
f 89/89/55 92/41/56 90/3/55
f 93/90/57 92/91/56 91/92/56
f 93/90/57 96/32/58 94/29/57
f 97/93/59 96/32/58 95/94/58
f 99/95/60 98/33/59 97/93/59
f 99/95/60 102/37/61 100/36/60
f 84/84/52 102/96/61 101/97/61
f 44/23/4 83/26/2 86/85/2
f 9/98/3 42/49/3 34/43/3
f 37/47/3 11/38/3 9/98/3
f 33/44/3 9/98/3 34/43/3
f 36/46/3 9/98/3 35/45/3
f 46/1/1 45/24/5 88/2/2
f 3/4/3 67/8/3 63/5/3
f 4/7/3 69/10/3 67/8/3
f 5/9/3 71/12/3 69/10/3
f 6/11/3 73/14/3 71/12/3
f 6/11/3 7/15/3 75/13/3
f 7/15/3 8/18/3 77/16/3
f 10/17/3 79/20/3 77/16/3
f 12/19/3 81/22/3 79/20/3
f 1/21/3 66/83/3 81/22/3
f 44/23/4 86/87/2 88/2/2
f 52/25/6 102/96/2 83/26/2
f 47/28/8 92/91/2 94/29/2
f 49/31/10 48/30/9 94/29/2
f 49/31/10 96/32/2 98/33/2
f 51/35/12 50/34/11 98/33/2
f 51/35/12 100/36/2 102/37/2
f 11/38/3 38/48/3 39/39/3
f 46/1/1 90/3/2 92/41/2
f 21/42/13 41/42/13 40/40/13
f 23/21/14 24/6/15 2/6/15
f 25/19/16 23/21/14 1/21/14
f 10/17/17 26/17/17 25/19/16
f 27/18/18 26/17/17 10/17/17
f 28/15/19 27/18/18 8/18/18
f 29/11/20 28/15/19 7/15/19
f 30/9/21 29/11/20 6/11/20
f 4/7/22 31/7/22 30/9/21
f 32/4/23 31/7/22 4/7/22
f 2/6/15 24/6/15 32/4/23
f 13/43/3 24/6/3 23/21/3
f 14/44/3 23/21/3 25/19/3
f 16/46/3 15/45/3 25/19/3
f 16/46/3 26/17/3 27/18/3
f 18/48/3 17/47/3 27/18/3
f 18/48/3 28/15/3 29/11/3
f 19/39/3 29/11/3 30/9/3
f 20/40/3 30/9/3 31/7/3
f 21/42/3 31/7/3 32/4/3
f 22/49/3 32/4/3 24/6/3
f 11/38/3 40/40/3 41/42/3
f 18/48/24 38/48/24 37/47/24
f 15/45/25 35/45/25 33/44/25
f 22/49/26 42/49/26 41/42/26
f 19/39/27 39/39/27 38/48/27
f 16/46/28 36/46/28 35/45/28
f 13/43/29 34/43/29 42/49/29
f 20/40/30 40/40/30 39/39/30
f 17/47/31 37/47/31 36/46/31
f 14/44/32 33/44/32 34/43/32
f 82/50/25 65/99/25 84/51/25
f 64/53/29 68/56/29 87/54/29
f 68/56/26 70/58/26 89/57/26
f 70/58/13 72/61/13 91/59/13
f 72/61/30 74/63/30 93/62/30
f 74/63/27 76/65/27 95/64/27
f 76/65/24 78/67/24 97/66/24
f 78/67/31 80/69/31 99/68/31
f 80/69/28 82/50/28 101/52/28
f 65/71/32 64/53/32 85/55/32
f 62/25/35 53/27/36 54/23/62
f 54/23/62 55/24/37 56/1/33
f 56/1/33 57/28/38 58/30/39
f 58/30/39 59/31/40 60/34/34
f 60/34/34 61/35/41 62/25/35
f 62/25/35 54/23/62 56/1/33
f 56/1/33 58/30/39 60/34/34
f 44/23/4 54/23/62 53/27/36
f 55/24/37 54/23/62 44/23/4
f 56/1/33 55/24/37 45/24/5
f 57/28/38 56/1/33 46/1/1
f 58/30/39 57/28/38 47/28/8
f 59/31/40 58/30/39 48/30/9
f 60/34/34 59/31/40 49/31/10
f 61/35/41 60/34/34 50/34/11
f 52/25/6 62/25/35 61/35/41
f 43/27/7 53/27/36 62/25/35
f 65/73/42 66/83/42 63/5/43
f 64/74/43 63/5/43 67/8/44
f 68/75/44 67/8/44 69/10/45
f 70/76/45 69/10/45 71/12/46
f 72/77/46 71/12/46 73/14/47
f 74/78/47 73/14/47 75/13/48
f 76/79/48 75/13/48 77/16/49
f 78/80/49 77/16/49 79/20/50
f 80/81/50 79/20/50 81/22/51
f 82/82/51 81/22/51 66/83/42
f 2/6/3 63/5/3 66/83/3
f 84/84/52 85/88/53 86/85/53
f 87/86/54 88/2/54 86/87/53
f 89/89/55 90/3/55 88/2/54
f 89/89/55 91/92/56 92/41/56
f 93/90/57 94/29/57 92/91/56
f 93/90/57 95/94/58 96/32/58
f 97/93/59 98/33/59 96/32/58
f 99/95/60 100/36/60 98/33/59
f 99/95/60 101/97/61 102/37/61
f 84/84/52 83/26/52 102/96/61
f 44/23/4 43/27/7 83/26/2
f 9/98/3 11/38/3 42/49/3
f 37/47/3 38/48/3 11/38/3
f 33/44/3 35/45/3 9/98/3
f 36/46/3 37/47/3 9/98/3
