# Blender 4.0.2
# www.blender.org
mtllib CutleryKnife.mtl
o CutleryKnife
v 0.006479 0.000647 -0.123675
v 0.003792 -0.000310 -0.118574
v 0.007533 -0.001206 -0.028327
v 0.008066 -0.001047 -0.019857
v 0.007945 -0.001190 -0.014110
v 0.005866 -0.000962 -0.003803
v 0.000000 -0.000944 0.000000
v -0.006479 -0.000705 -0.123675
v -0.003792 -0.001406 -0.118574
v -0.007533 -0.001206 -0.028327
v -0.008066 -0.001047 -0.019857
v -0.007945 -0.001190 -0.014110
v -0.005866 -0.000962 -0.003803
v 0.005669 -0.001072 -0.073249
v -0.005669 -0.001072 -0.073249
v 0.000000 -0.000706 -0.123675
v 0.000000 -0.001084 -0.118574
v 0.000000 -0.003008 -0.028327
v 0.000000 -0.003008 -0.019857
v 0.000000 -0.003008 -0.014110
v 0.000000 -0.002822 -0.003803
v 0.000000 -0.001072 -0.073249
v 0.003792 0.002065 -0.118574
v 0.007533 0.003381 -0.028321
v 0.008066 0.003351 -0.019857
v 0.007945 0.003357 -0.014110
v 0.005866 0.003542 -0.003803
v 0.000000 0.003521 0.001130
v -0.003792 0.003161 -0.118574
v -0.007533 0.003381 -0.028321
v -0.008066 0.003351 -0.019857
v -0.007945 0.003357 -0.014110
v -0.005866 0.003542 -0.003803
v 0.005669 0.003514 -0.073249
v -0.005669 0.003514 -0.073249
v 0.000000 0.002840 -0.118574
v 0.000000 0.004709 -0.028317
v 0.000000 0.004709 -0.019857
v 0.000000 0.004709 -0.014110
v 0.000000 0.004876 -0.003803
v 0.000000 0.003514 -0.073249
v 0.006479 0.001540 -0.123675
v -0.006479 0.002941 -0.123675
v 0.000000 0.002691 -0.123675
v 0.007997 0.000647 -0.218704
v -0.006479 -0.000560 -0.218704
v -0.000000 -0.000588 -0.218704
v 0.007997 0.001540 -0.218704
v -0.006479 0.002782 -0.218704
v -0.000000 0.002586 -0.218704
v 0.003326 0.000627 -0.222214
v -0.005911 0.000756 -0.223433
v 0.000000 0.000627 -0.224024
v 0.003326 0.001520 -0.222214
v -0.005911 0.001317 -0.223433
v 0.000000 0.001459 -0.224024
v 0.012983 0.000647 -0.194947
v 0.012633 0.000647 -0.171189
v 0.012633 0.000647 -0.147432
v -0.000000 -0.000706 -0.147432
v -0.000000 -0.000706 -0.171189
v -0.000000 -0.000706 -0.194947
v 0.012983 0.001540 -0.194947
v 0.012633 0.001540 -0.171189
v 0.012633 0.001540 -0.147432
v -0.006479 0.002941 -0.194947
v -0.006479 0.002941 -0.171189
v -0.006479 0.002941 -0.147432
v -0.000000 0.002691 -0.147432
v -0.000000 0.002691 -0.171189
v -0.000000 0.002691 -0.194947
v -0.006479 -0.000705 -0.194947
v -0.006479 -0.000705 -0.171189
v -0.006479 -0.000705 -0.147432
v -0.000000 -0.000706 -0.208869
v -0.000000 0.002691 -0.208869
v 0.012183 0.000647 -0.208869
v 0.012183 0.001540 -0.208869
v -0.006479 0.002941 -0.208869
v -0.006479 -0.000705 -0.208869
v 0.011307 0.000647 -0.135553
v 0.011307 0.001540 -0.135553
v -0.006479 0.002941 -0.135553
v -0.006479 -0.000705 -0.135553
v -0.000000 -0.000706 -0.135553
v -0.000000 0.002691 -0.135553
vn 0.1110 -0.9927 -0.0467
vn 0.0558 -0.9966 -0.0600
vn -0.0001 -0.9984 -0.0558
vn -0.0000 -1.0000 -0.0029
vn -0.2274 -0.9735 0.0245
vn -0.2363 -0.9717 -0.0081
vn -0.0000 -0.9997 0.0255
vn -0.2751 -0.9505 0.1443
vn -0.0000 -1.0000 -0.0077
vn -0.0127 -0.9998 -0.0169
vn 0.0038 -0.9997 -0.0238
vn 0.2736 -0.8624 0.4260
vn 0.2952 -0.9305 0.2169
vn 0.2751 -0.9505 0.1443
vn -0.2336 -0.9723 -0.0052
vn 0.1422 -0.9892 -0.0365
vn 0.1946 -0.9800 -0.0424
vn 0.2336 -0.9723 -0.0052
vn 0.0127 -0.9995 -0.0287
vn 0.2274 -0.9735 0.0245
vn 0.2363 -0.9717 -0.0081
vn 0.1793 -0.9837 -0.0126
vn 0.1144 0.9933 -0.0167
vn 0.0674 0.9972 -0.0331
vn 0.1425 0.9896 -0.0218
vn -0.0000 1.0000 -0.0014
vn -0.1671 0.9859 0.0083
vn -0.0000 1.0000 0.0027
vn -0.2054 0.9759 0.0741
vn -0.0000 0.9924 0.1231
vn -0.0093 0.9998 -0.0163
vn -0.0000 1.0000 -0.0031
vn 0.0038 0.9997 -0.0231
vn -0.0000 0.9643 0.2648
vn -0.1716 0.9852 -0.0038
vn 0.1858 0.9824 -0.0170
vn 0.0093 0.9996 -0.0280
vn 0.1716 0.9852 -0.0038
vn 0.1659 0.9861 -0.0022
vn 0.2054 0.9759 0.0741
vn 0.1671 0.9859 0.0083
vn 0.1534 0.9881 0.0088
vn 0.9056 -0.0000 0.4241
vn 0.8847 -0.0000 0.4661
vn 0.9991 -0.0000 -0.0414
vn 0.9986 -0.0000 -0.0522
vn 0.9986 0.0001 -0.0521
vn 0.9998 -0.0000 -0.0208
vn 0.9998 -0.0000 -0.0209
vn 0.9939 -0.0000 0.1104
vn 0.9939 -0.0000 0.1100
vn 0.9803 -0.0000 0.1977
vn 0.6064 -0.1275 0.7849
vn 0.5799 -0.0702 0.8117
vn 0.6323 -0.1901 0.7510
vn -0.9685 -0.0000 0.2490
vn -0.8847 -0.0000 0.4661
vn -0.9700 -0.0000 0.2429
vn -0.9991 -0.0000 -0.0414
vn -0.9986 -0.0000 -0.0522
vn -0.9998 -0.0000 -0.0208
vn -0.9986 0.0001 -0.0521
vn -0.9939 -0.0000 0.1104
vn -0.9998 -0.0000 -0.0209
vn -0.9803 -0.0000 0.1977
vn -0.9939 -0.0000 0.1100
vn -0.6064 -0.1275 0.7849
vn -0.5799 -0.0702 0.8117
vn -0.5440 -0.0000 0.8391
vn 0.0599 -0.9981 -0.0109
vn 0.1348 -0.9882 -0.0722
vn 0.1085 -0.9939 -0.0213
vn 0.9737 -0.0000 -0.2279
vn 0.9201 -0.0000 -0.3917
vn 0.0695 0.9975 -0.0103
vn 0.0316 0.9884 -0.1485
vn 0.0385 0.9992 -0.0081
vn 0.1147 0.9913 -0.0641
vn 0.0652 0.9912 -0.1149
vn -1.0000 -0.0000 -0.0000
vn -0.9986 -0.0000 -0.0531
vn -0.9986 -0.0000 -0.0538
vn -0.0009 -1.0000 -0.0065
vn 0.0651 -0.9907 -0.1194
vn 0.6007 -0.0000 -0.7994
vn -0.0033 0.9668 -0.2554
vn -0.0215 -0.9685 -0.2483
vn 0.0260 -0.9746 -0.2226
vn -0.9929 -0.0000 -0.1192
vn 0.1130 0.9754 -0.1891
vn 0.0143 0.9782 -0.2072
vn 0.1369 -0.9690 -0.2058
vn -0.0001 -1.0000 -0.0000
vn 0.0548 -0.9985 0.0015
vn 0.0665 -0.9978 0.0082
vn 0.0533 -0.9986 -0.0000
vn 0.0528 -0.9986 -0.0005
vn 0.0980 0.9950 0.0201
vn 0.0659 0.9978 0.0013
vn 0.0759 0.9971 0.0070
vn 0.0907 0.9959 0.0049
vn 0.0647 0.9979 -0.0000
vn 0.0903 0.9959 0.0002
vn 0.0643 0.9979 -0.0005
vn 0.0385 0.9993 -0.0000
vn 0.9693 -0.0000 0.2461
vn 0.9985 -0.0000 0.0555
vn 1.0000 -0.0000 0.0074
vn 0.9998 -0.0000 -0.0213
vn 0.1150 -0.9931 0.0236
vn 0.1065 -0.9943 0.0057
vn 0.1061 -0.9944 0.0002
vn 0.1037 -0.9946 -0.0022
vn 0.0924 0.9956 -0.0181
vn 0.9061 -0.0000 0.4231
vn 0.0385 0.9989 -0.0259
vn -0.0995 -0.0000 -0.9950
vn 0.4780 -0.0000 -0.8784
vn -0.2952 -0.9305 0.2169
vn -0.2736 -0.8624 0.4260
vn -0.1659 0.9861 -0.0022
vn 0.5440 -0.0000 0.8391
vn -0.6323 -0.1901 0.7510
vn -0.0043 -0.9904 -0.1380
vn 0.0883 0.9961 -0.0018
vt 0.000000 0.000000
s 1
f 16/1/1 9/1/2 8/1/3
f 19/1/4 12/1/5 11/1/6
f 20/1/7 13/1/8 12/1/5
f 18/1/9 15/1/10 22/1/11
f 7/1/12 21/1/13 6/1/14
f 19/1/4 10/1/15 18/1/9
f 22/1/11 9/1/2 17/1/16
f 2/1/17 22/1/11 17/1/16
f 3/1/18 19/1/4 18/1/9
f 14/1/19 18/1/9 22/1/11
f 6/1/14 20/1/7 5/1/20
f 5/1/20 19/1/4 4/1/21
f 2/1/17 16/1/1 1/1/22
f 44/1/23 29/1/24 36/1/25
f 38/1/26 32/1/27 39/1/28
f 39/1/28 33/1/29 40/1/30
f 35/1/31 37/1/32 41/1/33
f 28/1/34 40/1/30 33/1/29
f 30/1/35 38/1/26 37/1/32
f 29/1/24 41/1/33 36/1/25
f 23/1/36 41/1/33 34/1/37
f 24/1/38 38/1/26 25/1/39
f 34/1/37 37/1/32 24/1/38
f 39/1/28 27/1/40 26/1/41
f 38/1/26 26/1/41 25/1/39
f 44/1/23 23/1/36 42/1/42
f 1/1/43 23/1/44 2/1/44
f 14/1/45 24/1/46 3/1/47
f 4/1/48 24/1/46 25/1/49
f 4/1/48 26/1/50 5/1/51
f 6/1/52 26/1/50 27/1/52
f 7/1/53 27/1/54 28/1/55
f 8/1/56 29/1/57 43/1/58
f 15/1/59 30/1/60 35/1/59
f 11/1/61 30/1/60 10/1/62
f 11/1/61 32/1/63 31/1/64
f 13/1/65 32/1/63 12/1/66
f 7/1/67 33/1/68 13/1/69
f 14/1/45 23/1/45 34/1/45
f 15/1/59 29/1/59 9/1/59
f 75/1/70 45/1/71 77/1/72
f 77/1/73 48/1/74 78/1/73
f 76/1/75 49/1/76 79/1/77
f 76/1/75 48/1/78 50/1/79
f 80/1/80 49/1/81 46/1/82
f 80/1/83 47/1/84 75/1/70
f 45/1/85 54/1/85 48/1/85
f 50/1/79 55/1/86 49/1/76
f 47/1/84 52/1/87 53/1/88
f 46/1/82 55/1/89 52/1/89
f 50/1/79 54/1/90 56/1/91
f 47/1/84 51/1/92 45/1/71
f 84/1/93 60/1/94 85/1/95
f 74/1/93 61/1/96 60/1/94
f 73/1/93 62/1/97 61/1/96
f 83/1/80 74/1/80 84/1/80
f 68/1/80 73/1/80 74/1/80
f 67/1/80 72/1/80 73/1/80
f 82/1/98 69/1/99 86/1/100
f 65/1/101 70/1/102 69/1/99
f 64/1/103 71/1/104 70/1/102
f 86/1/100 68/1/105 83/1/105
f 69/1/99 67/1/105 68/1/105
f 70/1/102 66/1/105 67/1/105
f 81/1/106 65/1/107 82/1/106
f 59/1/107 64/1/108 65/1/107
f 58/1/108 63/1/109 64/1/108
f 81/1/110 60/1/94 59/1/111
f 60/1/94 58/1/112 59/1/111
f 58/1/112 62/1/97 57/1/113
f 72/1/93 75/1/70 62/1/97
f 66/1/80 80/1/80 72/1/80
f 71/1/104 78/1/114 76/1/75
f 71/1/104 79/1/77 66/1/105
f 57/1/109 78/1/73 63/1/109
f 62/1/97 77/1/72 57/1/113
f 1/1/22 85/1/95 81/1/110
f 1/1/43 82/1/106 42/1/115
f 44/1/23 83/1/105 43/1/116
f 42/1/42 86/1/100 44/1/23
f 43/1/58 84/1/80 8/1/56
f 8/1/3 85/1/95 16/1/1
s 0
f 52/1/117 55/1/117 53/1/117
f 56/1/118 51/1/118 53/1/118
f 54/1/118 51/1/118 56/1/118
f 55/1/117 56/1/117 53/1/117
s 1
f 16/1/1 17/1/16 9/1/2
f 19/1/4 20/1/7 12/1/5
f 20/1/7 21/1/119 13/1/8
f 18/1/9 10/1/15 15/1/10
f 7/1/120 13/1/8 21/1/119
f 19/1/4 11/1/6 10/1/15
f 22/1/11 15/1/10 9/1/2
f 2/1/17 14/1/19 22/1/11
f 3/1/18 4/1/21 19/1/4
f 14/1/19 3/1/18 18/1/9
f 6/1/14 21/1/13 20/1/7
f 5/1/20 20/1/7 19/1/4
f 2/1/17 17/1/16 16/1/1
f 44/1/23 43/1/116 29/1/24
f 38/1/26 31/1/121 32/1/27
f 39/1/28 32/1/27 33/1/29
f 35/1/31 30/1/35 37/1/32
f 28/1/34 27/1/40 40/1/30
f 30/1/35 31/1/121 38/1/26
f 29/1/24 35/1/31 41/1/33
f 23/1/36 36/1/25 41/1/33
f 24/1/38 37/1/32 38/1/26
f 34/1/37 41/1/33 37/1/32
f 39/1/28 40/1/30 27/1/40
f 38/1/26 39/1/28 26/1/41
f 44/1/23 36/1/25 23/1/36
f 1/1/43 42/1/115 23/1/44
f 14/1/45 34/1/45 24/1/46
f 4/1/48 3/1/47 24/1/46
f 4/1/48 25/1/49 26/1/50
f 6/1/52 5/1/51 26/1/50
f 7/1/53 6/1/122 27/1/54
f 8/1/56 9/1/57 29/1/57
f 15/1/59 10/1/62 30/1/60
f 11/1/61 31/1/64 30/1/60
f 11/1/61 12/1/66 32/1/63
f 13/1/65 33/1/65 32/1/63
f 7/1/67 28/1/123 33/1/68
f 14/1/45 2/1/45 23/1/45
f 15/1/59 35/1/59 29/1/59
f 75/1/70 47/1/84 45/1/71
f 77/1/73 45/1/74 48/1/74
f 76/1/75 50/1/79 49/1/76
f 76/1/75 78/1/114 48/1/78
f 80/1/80 79/1/80 49/1/81
f 80/1/83 46/1/124 47/1/84
f 45/1/85 51/1/85 54/1/85
f 50/1/79 56/1/91 55/1/86
f 47/1/84 46/1/124 52/1/87
f 46/1/82 49/1/81 55/1/89
f 50/1/79 48/1/78 54/1/90
f 47/1/84 53/1/88 51/1/92
f 84/1/93 74/1/93 60/1/94
f 74/1/93 73/1/93 61/1/96
f 73/1/93 72/1/93 62/1/97
f 83/1/80 68/1/80 74/1/80
f 68/1/80 67/1/80 73/1/80
f 67/1/80 66/1/80 72/1/80
f 82/1/98 65/1/101 69/1/99
f 65/1/101 64/1/103 70/1/102
f 64/1/103 63/1/125 71/1/104
f 86/1/100 69/1/99 68/1/105
f 69/1/99 70/1/102 67/1/105
f 70/1/102 71/1/104 66/1/105
f 81/1/106 59/1/107 65/1/107
f 59/1/107 58/1/108 64/1/108
f 58/1/108 57/1/109 63/1/109
f 81/1/110 85/1/95 60/1/94
f 60/1/94 61/1/96 58/1/112
f 58/1/112 61/1/96 62/1/97
f 72/1/93 80/1/83 75/1/70
f 66/1/80 79/1/80 80/1/80
f 71/1/104 63/1/125 78/1/114
f 71/1/104 76/1/75 79/1/77
f 57/1/109 77/1/73 78/1/73
f 62/1/97 75/1/70 77/1/72
f 1/1/22 16/1/1 85/1/95
f 1/1/43 81/1/106 82/1/106
f 44/1/23 86/1/100 83/1/105
f 42/1/42 82/1/98 86/1/100
f 43/1/58 83/1/80 84/1/80
f 8/1/3 84/1/93 85/1/95
