# Blender 4.0.2
# www.blender.org
mtllib BeerCanTallBoy.mtl
o BeerCanTallBoy
v 0.000000 0.208868 0.000000
v 0.037880 0.208733 0.000000
v 0.037880 0.202507 0.000000
v 0.036207 0.200653 0.000000
v 0.043819 0.189797 0.000000
v 0.043536 0.009031 0.000000
v 0.039624 0.005599 0.000000
v 0.037367 0.000026 -0.000000
v 0.000000 0.000000 0.000000
v 0.000000 0.208868 0.000000
v 0.030646 0.208733 -0.022265
v 0.030646 0.202507 -0.022265
v 0.029292 0.200653 -0.021282
v 0.035451 0.189797 -0.025756
v 0.035222 0.009031 -0.025590
v 0.032056 0.005599 -0.023290
v 0.030231 0.000026 -0.021964
v 0.000000 0.000000 0.000000
v 0.000000 0.208868 0.000000
v 0.011706 0.208733 -0.036026
v 0.011706 0.202507 -0.036026
v 0.011189 0.200653 -0.034435
v 0.013541 0.189797 -0.041675
v 0.013453 0.009031 -0.041406
v 0.012244 0.005599 -0.037684
v 0.011547 0.000026 -0.035538
v 0.000000 0.000000 0.000000
v 0.000000 0.208868 0.000000
v -0.011706 0.208733 -0.036026
v -0.011706 0.202507 -0.036026
v -0.011189 0.200653 -0.034435
v -0.013541 0.189797 -0.041675
v -0.013453 0.009031 -0.041406
v -0.012244 0.005599 -0.037684
v -0.011547 0.000026 -0.035538
v 0.000000 0.000000 0.000000
v 0.000000 0.208868 0.000000
v -0.030645 0.208733 -0.022265
v -0.030645 0.202507 -0.022265
v -0.029292 0.200653 -0.021282
v -0.035451 0.189797 -0.025756
v -0.035222 0.009031 -0.025590
v -0.032056 0.005599 -0.023290
v -0.030231 0.000026 -0.021964
v 0.000000 0.000000 0.000000
v 0.000000 0.208868 0.000000
v -0.037880 0.208733 -0.000000
v -0.037880 0.202507 -0.000000
v -0.036207 0.200653 -0.000000
v -0.043819 0.189797 -0.000000
v -0.043536 0.009031 0.000000
v -0.039624 0.005599 0.000000
v -0.037367 0.000026 0.000000
v 0.000000 0.000000 0.000000
v 0.000000 0.208868 0.000000
v -0.030645 0.208733 0.022265
v -0.030645 0.202507 0.022265
v -0.029292 0.200653 0.021282
v -0.035451 0.189797 0.025756
v -0.035222 0.009031 0.025590
v -0.032056 0.005599 0.023290
v -0.030231 0.000026 0.021964
v 0.000000 0.000000 0.000000
v 0.000000 0.208868 0.000000
v -0.011706 0.208733 0.036026
v -0.011706 0.202507 0.036026
v -0.011189 0.200653 0.034435
v -0.013541 0.189797 0.041675
v -0.013454 0.009031 0.041406
v -0.012244 0.005599 0.037684
v -0.011547 0.000026 0.035538
v 0.000000 0.000000 0.000000
v 0.000000 0.208868 0.000000
v 0.011706 0.208733 0.036026
v 0.011706 0.202507 0.036026
v 0.011189 0.200653 0.034435
v 0.013541 0.189797 0.041675
v 0.013453 0.009031 0.041406
v 0.012244 0.005599 0.037684
v 0.011547 0.000026 0.035538
v 0.000000 0.000000 0.000000
v 0.000000 0.208868 0.000000
v 0.030645 0.208733 0.022265
v 0.030645 0.202507 0.022265
v 0.029292 0.200653 0.021282
v 0.035451 0.189797 0.025756
v 0.035222 0.009031 0.025590
v 0.032056 0.005599 0.023290
v 0.030231 0.000026 0.021964
v 0.000000 0.000000 0.000000
vn 0.0036 1.0000 -0.0000
vn 0.7662 0.6426 -0.0000
vn 0.6199 0.6426 -0.4504
vn 0.0029 1.0000 -0.0021
vn 0.2368 0.6426 -0.7287
vn 0.0011 1.0000 -0.0034
vn -0.2368 0.6426 -0.7287
vn -0.0011 1.0000 -0.0034
vn -0.6199 0.6426 -0.4504
vn -0.0029 1.0000 -0.0021
vn -0.7662 0.6426 -0.0000
vn -0.0036 1.0000 -0.0000
vn -0.6199 0.6426 0.4504
vn -0.0029 1.0000 0.0021
vn -0.2368 0.6426 0.7287
vn -0.0011 1.0000 0.0034
vn 0.2368 0.6426 0.7287
vn 0.0011 1.0000 0.0034
vn 0.6199 0.6426 0.4504
vn 0.0029 1.0000 0.0021
vn 0.9414 -0.3372 -0.0000
vn 0.7616 -0.3372 -0.5534
vn 0.2909 -0.3372 -0.8954
vn -0.2909 -0.3372 -0.8954
vn -0.7616 -0.3372 -0.5534
vn -0.9414 -0.3372 -0.0000
vn -0.7616 -0.3372 0.5534
vn -0.2909 -0.3372 0.8954
vn 0.2909 -0.3372 0.8954
vn 0.7616 -0.3372 0.5534
vn 0.9975 -0.0704 -0.0000
vn 0.8070 -0.0704 -0.5863
vn 0.3082 -0.0704 -0.9487
vn -0.3082 -0.0704 -0.9487
vn -0.8070 -0.0704 -0.5863
vn -0.9975 -0.0704 -0.0000
vn -0.8070 -0.0704 0.5863
vn -0.3082 -0.0704 0.9487
vn 0.3082 -0.0704 0.9487
vn 0.8070 -0.0704 0.5863
vn 0.9587 0.2845 -0.0000
vn 0.7756 0.2845 -0.5635
vn 0.2962 0.2845 -0.9118
vn -0.2962 0.2845 -0.9118
vn -0.7756 0.2845 -0.5635
vn -0.9587 0.2845 -0.0000
vn -0.7756 0.2845 0.5635
vn -0.2962 0.2845 0.9118
vn 0.2962 0.2845 0.9118
vn 0.7756 0.2845 0.5635
vn 0.9227 -0.3856 -0.0000
vn 0.7464 -0.3856 -0.5423
vn 0.2851 -0.3856 -0.8775
vn -0.2851 -0.3856 -0.8775
vn -0.7464 -0.3856 -0.5423
vn -0.9227 -0.3856 -0.0000
vn -0.7464 -0.3856 0.5423
vn -0.2851 -0.3856 0.8775
vn 0.2851 -0.3856 0.8775
vn 0.7464 -0.3856 0.5423
vn 0.7987 -0.6018 -0.0000
vn 0.6461 -0.6018 -0.4694
vn 0.2468 -0.6018 -0.7596
vn -0.2468 -0.6018 -0.7596
vn -0.6461 -0.6018 -0.4694
vn -0.7987 -0.6018 -0.0000
vn -0.6461 -0.6018 0.4694
vn -0.2468 -0.6018 0.7596
vn 0.2468 -0.6018 0.7596
vn 0.6461 -0.6018 0.4694
vn 0.6267 -0.7793 -0.0000
vn 0.5070 -0.7793 -0.3684
vn 0.1937 -0.7793 -0.5960
vn -0.1937 -0.7793 -0.5960
vn -0.5070 -0.7793 -0.3684
vn -0.6267 -0.7793 -0.0000
vn -0.5070 -0.7793 0.3684
vn -0.1937 -0.7793 0.5960
vn 0.1937 -0.7793 0.5960
vn 0.5070 -0.7793 0.3684
vn 0.0007 -1.0000 -0.0000
vn 0.0006 -1.0000 -0.0004
vn 0.0002 -1.0000 -0.0007
vn -0.0002 -1.0000 -0.0007
vn -0.0006 -1.0000 -0.0004
vn -0.0007 -1.0000 -0.0000
vn -0.0006 -1.0000 0.0004
vn -0.0002 -1.0000 0.0007
vn 0.0002 -1.0000 0.0007
vn 0.0006 -1.0000 0.0004
vt 0.000000 0.428249
vt 0.000000 0.427972
vt 0.100000 0.427972
vt 0.100000 0.428249
vt 0.200000 0.427972
vt 0.200000 0.428249
vt 0.300000 0.427972
vt 0.300000 0.428249
vt 0.400000 0.427972
vt 0.400000 0.428249
vt 0.500000 0.427972
vt 0.500000 0.428249
vt 0.600000 0.427972
vt 0.600000 0.428249
vt 0.700000 0.427972
vt 0.700000 0.428249
vt 0.800000 0.427972
vt 0.800000 0.428249
vt 0.900000 0.427972
vt 0.900000 0.428249
vt 1.000000 0.427972
vt 1.000000 0.428249
vt 0.000000 0.415207
vt 0.100000 0.415207
vt 0.200000 0.415207
vt 0.300000 0.415207
vt 0.400000 0.415207
vt 0.500000 0.415207
vt 0.600000 0.415207
vt 0.700000 0.415207
vt 0.800000 0.415207
vt 0.900000 0.415207
vt 1.000000 0.415207
vt 0.000000 0.411407
vt 0.100000 0.411407
vt 0.200000 0.411407
vt 0.300000 0.411407
vt 0.400000 0.411407
vt 0.500000 0.411407
vt 0.600000 0.411407
vt 0.700000 0.411407
vt 0.800000 0.411407
vt 0.900000 0.411407
vt 1.000000 0.411407
vt 0.000000 0.389148
vt 0.100000 0.389148
vt 0.200000 0.389148
vt 0.300000 0.389148
vt 0.400000 0.389148
vt 0.500000 0.389148
vt 0.600000 0.389148
vt 0.700000 0.389148
vt 0.800000 0.389148
vt 0.900000 0.389148
vt 1.000000 0.389148
vt 0.000000 0.018516
vt 0.100000 0.018516
vt 0.200000 0.018516
vt 0.300000 0.018516
vt 0.400000 0.018516
vt 0.500000 0.018516
vt 0.600000 0.018516
vt 0.700000 0.018516
vt 0.800000 0.018516
vt 0.900000 0.018516
vt 1.000000 0.018516
vt 0.000000 0.011479
vt 0.100000 0.011479
vt 0.200000 0.011479
vt 0.300000 0.011479
vt 0.400000 0.011479
vt 0.500000 0.011479
vt 0.600000 0.011479
vt 0.700000 0.011479
vt 0.800000 0.011479
vt 0.900000 0.011479
vt 1.000000 0.011479
vt 0.000000 0.000054
vt 0.100000 0.000054
vt 0.200000 0.000054
vt 0.300000 0.000054
vt 0.400000 0.000054
vt 0.500000 0.000054
vt 0.600000 0.000054
vt 0.700000 0.000054
vt 0.800000 0.000054
vt 0.900000 0.000054
vt 1.000000 0.000054
vt 0.000000 0.000000
vt 0.100000 0.000000
vt 0.200000 0.000000
vt 0.300000 0.000000
vt 0.400000 0.000000
vt 0.500000 0.000000
vt 0.600000 0.000000
vt 0.700000 0.000000
vt 0.800000 0.000000
vt 0.900000 0.000000
vt 1.000000 0.000000
s 1
f 1/1/1 2/2/2 11/3/3 10/4/4
f 10/4/4 11/3/3 20/5/5 19/6/6
f 19/6/6 20/5/5 29/7/7 28/8/8
f 28/8/8 29/7/7 38/9/9 37/10/10
f 37/10/10 38/9/9 47/11/11 46/12/12
f 46/12/12 47/11/11 56/13/13 55/14/14
f 55/14/14 56/13/13 65/15/15 64/16/16
f 64/16/16 65/15/15 74/17/17 73/18/18
f 73/18/18 74/17/17 83/19/19 82/20/20
f 82/20/20 83/19/19 2/21/2 1/22/1
f 2/2/2 3/23/21 12/24/22 11/3/3
f 11/3/3 12/24/22 21/25/23 20/5/5
f 20/5/5 21/25/23 30/26/24 29/7/7
f 29/7/7 30/26/24 39/27/25 38/9/9
f 38/9/9 39/27/25 48/28/26 47/11/11
f 47/11/11 48/28/26 57/29/27 56/13/13
f 56/13/13 57/29/27 66/30/28 65/15/15
f 65/15/15 66/30/28 75/31/29 74/17/17
f 74/17/17 75/31/29 84/32/30 83/19/19
f 83/19/19 84/32/30 3/33/21 2/21/2
f 3/23/21 4/34/31 13/35/32 12/24/22
f 12/24/22 13/35/32 22/36/33 21/25/23
f 21/25/23 22/36/33 31/37/34 30/26/24
f 30/26/24 31/37/34 40/38/35 39/27/25
f 39/27/25 40/38/35 49/39/36 48/28/26
f 48/28/26 49/39/36 58/40/37 57/29/27
f 57/29/27 58/40/37 67/41/38 66/30/28
f 66/30/28 67/41/38 76/42/39 75/31/29
f 75/31/29 76/42/39 85/43/40 84/32/30
f 84/32/30 85/43/40 4/44/31 3/33/21
f 4/34/31 5/45/41 14/46/42 13/35/32
f 13/35/32 14/46/42 23/47/43 22/36/33
f 22/36/33 23/47/43 32/48/44 31/37/34
f 31/37/34 32/48/44 41/49/45 40/38/35
f 40/38/35 41/49/45 50/50/46 49/39/36
f 49/39/36 50/50/46 59/51/47 58/40/37
f 58/40/37 59/51/47 68/52/48 67/41/38
f 67/41/38 68/52/48 77/53/49 76/42/39
f 76/42/39 77/53/49 86/54/50 85/43/40
f 85/43/40 86/54/50 5/55/41 4/44/31
f 5/45/41 6/56/51 15/57/52 14/46/42
f 14/46/42 15/57/52 24/58/53 23/47/43
f 23/47/43 24/58/53 33/59/54 32/48/44
f 32/48/44 33/59/54 42/60/55 41/49/45
f 41/49/45 42/60/55 51/61/56 50/50/46
f 50/50/46 51/61/56 60/62/57 59/51/47
f 59/51/47 60/62/57 69/63/58 68/52/48
f 68/52/48 69/63/58 78/64/59 77/53/49
f 77/53/49 78/64/59 87/65/60 86/54/50
f 86/54/50 87/65/60 6/66/51 5/55/41
f 6/56/51 7/67/61 16/68/62 15/57/52
f 15/57/52 16/68/62 25/69/63 24/58/53
f 24/58/53 25/69/63 34/70/64 33/59/54
f 33/59/54 34/70/64 43/71/65 42/60/55
f 42/60/55 43/71/65 52/72/66 51/61/56
f 51/61/56 52/72/66 61/73/67 60/62/57
f 60/62/57 61/73/67 70/74/68 69/63/58
f 69/63/58 70/74/68 79/75/69 78/64/59
f 78/64/59 79/75/69 88/76/70 87/65/60
f 87/65/60 88/76/70 7/77/61 6/66/51
f 7/67/61 8/78/71 17/79/72 16/68/62
f 16/68/62 17/79/72 26/80/73 25/69/63
f 25/69/63 26/80/73 35/81/74 34/70/64
f 34/70/64 35/81/74 44/82/75 43/71/65
f 43/71/65 44/82/75 53/83/76 52/72/66
f 52/72/66 53/83/76 62/84/77 61/73/67
f 61/73/67 62/84/77 71/85/78 70/74/68
f 70/74/68 71/85/78 80/86/79 79/75/69
f 79/75/69 80/86/79 89/87/80 88/76/70
f 88/76/70 89/87/80 8/88/71 7/77/61
f 8/78/71 9/89/81 18/90/82 17/79/72
f 17/79/72 18/90/82 27/91/83 26/80/73
f 26/80/73 27/91/83 36/92/84 35/81/74
f 35/81/74 36/92/84 45/93/85 44/82/75
f 44/82/75 45/93/85 54/94/86 53/83/76
f 53/83/76 54/94/86 63/95/87 62/84/77
f 62/84/77 63/95/87 72/96/88 71/85/78
f 71/85/78 72/96/88 81/97/89 80/86/79
f 80/86/79 81/97/89 90/98/90 89/87/80
f 89/87/80 90/98/90 9/99/81 8/88/71
o BeerCanTallBoy
v 0.000000 0.208868 0.000000
v 0.037880 0.208733 0.000000
v 0.037880 0.202507 0.000000
v 0.036207 0.200653 0.000000
v 0.043819 0.189797 0.000000
v 0.043536 0.009031 0.000000
v 0.039624 0.005599 0.000000
v 0.037367 0.000026 -0.000000
v 0.000000 0.000000 0.000000
v 0.000000 0.208868 0.000000
v 0.030646 0.208733 -0.022265
v 0.030646 0.202507 -0.022265
v 0.029292 0.200653 -0.021282
v 0.035451 0.189797 -0.025756
v 0.035222 0.009031 -0.025590
v 0.032056 0.005599 -0.023290
v 0.030231 0.000026 -0.021964
v 0.000000 0.000000 0.000000
v 0.000000 0.208868 0.000000
v 0.011706 0.208733 -0.036026
v 0.011706 0.202507 -0.036026
v 0.011189 0.200653 -0.034435
v 0.013541 0.189797 -0.041675
v 0.013453 0.009031 -0.041406
v 0.012244 0.005599 -0.037684
v 0.011547 0.000026 -0.035538
v 0.000000 0.000000 0.000000
v 0.000000 0.208868 0.000000
v -0.011706 0.208733 -0.036026
v -0.011706 0.202507 -0.036026
v -0.011189 0.200653 -0.034435
v -0.013541 0.189797 -0.041675
v -0.013453 0.009031 -0.041406
v -0.012244 0.005599 -0.037684
v -0.011547 0.000026 -0.035538
v 0.000000 0.000000 0.000000
v 0.000000 0.208868 0.000000
v -0.030645 0.208733 -0.022265
v -0.030645 0.202507 -0.022265
v -0.029292 0.200653 -0.021282
v -0.035451 0.189797 -0.025756
v -0.035222 0.009031 -0.025590
v -0.032056 0.005599 -0.023290
v -0.030231 0.000026 -0.021964
v 0.000000 0.000000 0.000000
v 0.000000 0.208868 0.000000
v -0.037880 0.208733 -0.000000
v -0.037880 0.202507 -0.000000
v -0.036207 0.200653 -0.000000
v -0.043819 0.189797 -0.000000
v -0.043536 0.009031 0.000000
v -0.039624 0.005599 0.000000
v -0.037367 0.000026 0.000000
v 0.000000 0.000000 0.000000
v 0.000000 0.208868 0.000000
v -0.030645 0.208733 0.022265
v -0.030645 0.202507 0.022265
v -0.029292 0.200653 0.021282
v -0.035451 0.189797 0.025756
v -0.035222 0.009031 0.025590
v -0.032056 0.005599 0.023290
v -0.030231 0.000026 0.021964
v 0.000000 0.000000 0.000000
v 0.000000 0.208868 0.000000
v -0.011706 0.208733 0.036026
v -0.011706 0.202507 0.036026
v -0.011189 0.200653 0.034435
v -0.013541 0.189797 0.041675
v -0.013454 0.009031 0.041406
v -0.012244 0.005599 0.037684
v -0.011547 0.000026 0.035538
v 0.000000 0.000000 0.000000
v 0.000000 0.208868 0.000000
v 0.011706 0.208733 0.036026
v 0.011706 0.202507 0.036026
v 0.011189 0.200653 0.034435
v 0.013541 0.189797 0.041675
v 0.013453 0.009031 0.041406
v 0.012244 0.005599 0.037684
v 0.011547 0.000026 0.035538
v 0.000000 0.000000 0.000000
v 0.000000 0.208868 0.000000
v 0.030645 0.208733 0.022265
v 0.030645 0.202507 0.022265
v 0.029292 0.200653 0.021282
v 0.035451 0.189797 0.025756
v 0.035222 0.009031 0.025590
v 0.032056 0.005599 0.023290
v 0.030231 0.000026 0.021964
v 0.000000 0.000000 0.000000
vn 0.0006 1.0000 -0.0002
vn 0.6199 0.6426 -0.4504
vn 0.0004 1.0000 -0.0005
vn 0.2368 0.6426 -0.7287
vn -0.0000 1.0000 -0.0006
vn -0.2368 0.6427 -0.7287
vn -0.0004 1.0000 -0.0005
vn -0.6199 0.6426 -0.4504
vn -0.0006 1.0000 -0.0002
vn -0.7662 0.6426 -0.0000
vn -0.0006 1.0000 0.0002
vn -0.6199 0.6426 0.4504
vn -0.0004 1.0000 0.0005
vn -0.2368 0.6426 0.7287
vn -0.0000 1.0000 0.0006
vn 0.2368 0.6426 0.7287
vn 0.0004 1.0000 0.0005
vn 0.6199 0.6426 0.4504
vn 0.0006 1.0000 0.0002
vn 0.7662 0.6426 -0.0000
vn 0.9414 -0.3372 -0.0000
vn 0.7616 -0.3372 -0.5534
vn 0.2909 -0.3372 -0.8954
vn -0.2909 -0.3372 -0.8954
vn -0.7616 -0.3372 -0.5534
vn -0.9414 -0.3372 -0.0000
vn -0.7616 -0.3372 0.5534
vn -0.2909 -0.3372 0.8954
vn 0.2909 -0.3372 0.8954
vn 0.9975 -0.0704 -0.0000
vn 0.8070 -0.0704 -0.5863
vn 0.3083 -0.0704 -0.9487
vn -0.3082 -0.0704 -0.9487
vn -0.8070 -0.0704 -0.5863
vn -0.9975 -0.0704 -0.0000
vn -0.3083 -0.0704 0.9487
vn 0.3082 -0.0704 0.9487
vn 0.7616 -0.3372 0.5534
vn 0.8070 -0.0704 0.5863
vn 0.9587 0.2845 -0.0000
vn 0.7756 0.2845 -0.5635
vn 0.2962 0.2845 -0.9118
vn -0.2962 0.2845 -0.9118
vn -0.7756 0.2845 -0.5635
vn -0.9587 0.2845 -0.0000
vn -0.8070 -0.0704 0.5863
vn -0.7756 0.2845 0.5635
vn -0.2962 0.2845 0.9118
vn 0.2962 0.2845 0.9118
vn 0.7756 0.2845 0.5635
vn 0.7464 -0.3856 -0.5423
vn 0.2851 -0.3856 -0.8775
vn -0.2851 -0.3856 -0.8775
vn -0.7464 -0.3856 -0.5423
vn -0.9227 -0.3856 -0.0000
vn -0.7464 -0.3856 0.5423
vn -0.2851 -0.3856 0.8775
vn 0.2851 -0.3856 0.8775
vn 0.7464 -0.3856 0.5423
vn 0.7987 -0.6018 -0.0000
vn 0.9227 -0.3856 -0.0000
vn 0.6461 -0.6018 -0.4694
vn 0.2468 -0.6018 -0.7596
vn -0.2468 -0.6018 -0.7596
vn -0.6461 -0.6018 -0.4694
vn -0.7987 -0.6018 -0.0000
vn -0.6461 -0.6018 0.4694
vn -0.2468 -0.6018 0.7596
vn 0.2468 -0.6018 0.7596
vn 0.6461 -0.6018 0.4694
vn 0.6267 -0.7793 -0.0000
vn 0.5070 -0.7793 -0.3684
vn 0.1937 -0.7793 -0.5960
vn -0.1937 -0.7793 -0.5960
vn -0.5070 -0.7793 -0.3684
vn -0.5070 -0.7793 0.3684
vn -0.1937 -0.7793 0.5960
vn 0.1937 -0.7793 0.5960
vn 0.5070 -0.7793 0.3684
vn 0.0002 1.0000 -0.0001
vn 0.0001 1.0000 -0.0001
vn -0.0000 1.0000 -0.0002
vn -0.0001 1.0000 -0.0001
vn -0.0002 1.0000 -0.0001
vn -0.6267 -0.7793 -0.0000
vn -0.0002 1.0000 0.0001
vn -0.0001 1.0000 0.0001
vn -0.0000 1.0000 0.0002
vn 0.0001 1.0000 0.0001
vn 0.0002 1.0000 0.0001
vt 0.000000 0.428249
vt 0.100000 0.427972
vt 0.100000 0.428249
vt 0.200000 0.427972
vt 0.200000 0.428249
vt 0.300000 0.427972
vt 0.300000 0.428249
vt 0.400000 0.427972
vt 0.400000 0.428249
vt 0.500000 0.427972
vt 0.500000 0.428249
vt 0.600000 0.427972
vt 0.600000 0.428249
vt 0.700000 0.427972
vt 0.700000 0.428249
vt 0.800000 0.427972
vt 0.800000 0.428249
vt 0.900000 0.427972
vt 0.900000 0.428249
vt 1.000000 0.427972
vt 1.000000 0.428249
vt 0.000000 0.415207
vt 0.000000 0.427972
vt 0.100000 0.415207
vt 0.200000 0.415207
vt 0.300000 0.415207
vt 0.400000 0.415207
vt 0.500000 0.415207
vt 0.600000 0.415207
vt 0.700000 0.415207
vt 0.800000 0.415207
vt 1.000000 0.415207
vt 0.000000 0.411407
vt 0.100000 0.411407
vt 0.200000 0.411407
vt 0.300000 0.411407
vt 0.400000 0.411407
vt 0.500000 0.411407
vt 0.700000 0.411407
vt 0.800000 0.411407
vt 0.900000 0.415207
vt 0.900000 0.411407
vt 0.000000 0.389148
vt 0.100000 0.389148
vt 0.200000 0.389148
vt 0.300000 0.389148
vt 0.400000 0.389148
vt 0.500000 0.389148
vt 0.600000 0.411407
vt 0.600000 0.389148
vt 0.700000 0.389148
vt 0.800000 0.389148
vt 0.900000 0.389148
vt 1.000000 0.411407
vt 0.100000 0.018516
vt 0.200000 0.018516
vt 0.300000 0.018516
vt 0.400000 0.018516
vt 0.500000 0.018516
vt 0.600000 0.018516
vt 0.700000 0.018516
vt 0.800000 0.018516
vt 0.900000 0.018516
vt 1.000000 0.389148
vt 0.000000 0.011479
vt 0.000000 0.018516
vt 0.100000 0.011479
vt 0.200000 0.011479
vt 0.300000 0.011479
vt 0.400000 0.011479
vt 0.500000 0.011479
vt 0.600000 0.011479
vt 0.700000 0.011479
vt 0.800000 0.011479
vt 0.900000 0.011479
vt 1.000000 0.018516
vt 0.000000 0.000054
vt 0.100000 0.000054
vt 0.200000 0.000054
vt 0.300000 0.000054
vt 0.400000 0.000054
vt 0.600000 0.000054
vt 0.700000 0.000054
vt 0.800000 0.000054
vt 0.900000 0.000054
vt 1.000000 0.011479
vt 0.100000 0.000000
vt 0.200000 0.000000
vt 0.300000 0.000000
vt 0.400000 0.000000
vt 0.500000 0.000000
vt 0.500000 0.000054
vt 0.600000 0.000000
vt 0.700000 0.000000
vt 0.800000 0.000000
vt 0.900000 0.000000
vt 1.000000 0.000000
vt 1.000000 0.000054
vt 0.000000 0.000000
s 1
f 91/100/91 101/101/92 100/102/93
f 100/102/93 110/103/94 109/104/95
f 109/104/95 119/105/96 118/106/97
f 118/106/97 128/107/98 127/108/99
f 127/108/99 137/109/100 136/110/101
f 136/110/101 146/111/102 145/112/103
f 145/112/103 155/113/104 154/114/105
f 154/114/105 164/115/106 163/116/107
f 163/116/107 173/117/108 172/118/109
f 172/118/109 92/119/110 91/120/91
f 93/121/111 101/101/92 92/122/110
f 102/123/112 110/103/94 101/101/92
f 111/124/113 119/105/96 110/103/94
f 120/125/114 128/107/98 119/105/96
f 129/126/115 137/109/100 128/107/98
f 138/127/116 146/111/102 137/109/100
f 147/128/117 155/113/104 146/111/102
f 156/129/118 164/115/106 155/113/104
f 165/130/119 173/117/108 164/115/106
f 173/117/108 93/131/111 92/119/110
f 94/132/120 102/123/112 93/121/111
f 103/133/121 111/124/113 102/123/112
f 112/134/122 120/125/114 111/124/113
f 121/135/123 129/126/115 120/125/114
f 130/136/124 138/127/116 129/126/115
f 139/137/125 147/128/117 138/127/116
f 147/128/117 157/138/126 156/129/118
f 157/138/126 165/130/119 156/129/118
f 166/139/127 174/140/128 165/130/119
f 175/141/129 93/131/111 174/140/128
f 95/142/130 103/133/121 94/132/120
f 104/143/131 112/134/122 103/133/121
f 113/144/132 121/135/123 112/134/122
f 122/145/133 130/136/124 121/135/123
f 131/146/134 139/137/125 130/136/124
f 140/147/135 148/148/136 139/137/125
f 149/149/137 157/138/126 148/148/136
f 158/150/138 166/139/127 157/138/126
f 167/151/139 175/141/129 166/139/127
f 176/152/140 94/153/120 175/141/129
f 95/142/130 105/154/141 104/143/131
f 105/154/141 113/144/132 104/143/131
f 114/155/142 122/145/133 113/144/132
f 123/156/143 131/146/134 122/145/133
f 132/157/144 140/147/135 131/146/134
f 141/158/145 149/149/137 140/147/135
f 150/159/146 158/150/138 149/149/137
f 159/160/147 167/151/139 158/150/138
f 168/161/148 176/152/140 167/151/139
f 177/162/149 95/163/130 176/152/140
f 97/164/150 105/154/141 96/165/151
f 106/166/152 114/155/142 105/154/141
f 115/167/153 123/156/143 114/155/142
f 124/168/154 132/157/144 123/156/143
f 133/169/155 141/158/145 132/157/144
f 142/170/156 150/159/146 141/158/145
f 151/171/157 159/160/147 150/159/146
f 160/172/158 168/161/148 159/160/147
f 169/173/159 177/162/149 168/161/148
f 178/174/160 96/175/151 177/162/149
f 98/176/161 106/166/152 97/164/150
f 107/177/162 115/167/153 106/166/152
f 116/178/163 124/168/154 115/167/153
f 125/179/164 133/169/155 124/168/154
f 134/180/165 142/170/156 133/169/155
f 142/170/156 152/181/166 151/171/157
f 152/181/166 160/172/158 151/171/157
f 161/182/167 169/173/159 160/172/158
f 170/183/168 178/174/160 169/173/159
f 179/184/169 97/185/150 178/174/160
f 98/176/161 108/186/170 107/177/162
f 107/177/162 117/187/171 116/178/163
f 116/178/163 126/188/172 125/179/164
f 125/179/164 135/189/173 134/180/165
f 134/180/165 144/190/174 143/191/175
f 143/191/175 153/192/176 152/181/166
f 152/181/166 162/193/177 161/182/167
f 161/182/167 171/194/178 170/183/168
f 170/183/168 180/195/179 179/184/169
f 179/184/169 99/196/180 98/197/161
f 91/100/91 92/122/110 101/101/92
f 100/102/93 101/101/92 110/103/94
f 109/104/95 110/103/94 119/105/96
f 118/106/97 119/105/96 128/107/98
f 127/108/99 128/107/98 137/109/100
f 136/110/101 137/109/100 146/111/102
f 145/112/103 146/111/102 155/113/104
f 154/114/105 155/113/104 164/115/106
f 163/116/107 164/115/106 173/117/108
f 172/118/109 173/117/108 92/119/110
f 93/121/111 102/123/112 101/101/92
f 102/123/112 111/124/113 110/103/94
f 111/124/113 120/125/114 119/105/96
f 120/125/114 129/126/115 128/107/98
f 129/126/115 138/127/116 137/109/100
f 138/127/116 147/128/117 146/111/102
f 147/128/117 156/129/118 155/113/104
f 156/129/118 165/130/119 164/115/106
f 165/130/119 174/140/128 173/117/108
f 173/117/108 174/140/128 93/131/111
f 94/132/120 103/133/121 102/123/112
f 103/133/121 112/134/122 111/124/113
f 112/134/122 121/135/123 120/125/114
f 121/135/123 130/136/124 129/126/115
f 130/136/124 139/137/125 138/127/116
f 139/137/125 148/148/136 147/128/117
f 147/128/117 148/148/136 157/138/126
f 157/138/126 166/139/127 165/130/119
f 166/139/127 175/141/129 174/140/128
f 175/141/129 94/153/120 93/131/111
f 95/142/130 104/143/131 103/133/121
f 104/143/131 113/144/132 112/134/122
f 113/144/132 122/145/133 121/135/123
f 122/145/133 131/146/134 130/136/124
f 131/146/134 140/147/135 139/137/125
f 140/147/135 149/149/137 148/148/136
f 149/149/137 158/150/138 157/138/126
f 158/150/138 167/151/139 166/139/127
f 167/151/139 176/152/140 175/141/129
f 176/152/140 95/163/130 94/153/120
f 95/142/130 96/165/151 105/154/141
f 105/154/141 114/155/142 113/144/132
f 114/155/142 123/156/143 122/145/133
f 123/156/143 132/157/144 131/146/134
f 132/157/144 141/158/145 140/147/135
f 141/158/145 150/159/146 149/149/137
f 150/159/146 159/160/147 158/150/138
f 159/160/147 168/161/148 167/151/139
f 168/161/148 177/162/149 176/152/140
f 177/162/149 96/175/151 95/163/130
f 97/164/150 106/166/152 105/154/141
f 106/166/152 115/167/153 114/155/142
f 115/167/153 124/168/154 123/156/143
f 124/168/154 133/169/155 132/157/144
f 133/169/155 142/170/156 141/158/145
f 142/170/156 151/171/157 150/159/146
f 151/171/157 160/172/158 159/160/147
f 160/172/158 169/173/159 168/161/148
f 169/173/159 178/174/160 177/162/149
f 178/174/160 97/185/150 96/175/151
f 98/176/161 107/177/162 106/166/152
f 107/177/162 116/178/163 115/167/153
f 116/178/163 125/179/164 124/168/154
f 125/179/164 134/180/165 133/169/155
f 134/180/165 143/191/175 142/170/156
f 142/170/156 143/191/175 152/181/166
f 152/181/166 161/182/167 160/172/158
f 161/182/167 170/183/168 169/173/159
f 170/183/168 179/184/169 178/174/160
f 179/184/169 98/197/161 97/185/150
f 98/176/161 99/198/180 108/186/170
f 107/177/162 108/186/170 117/187/171
f 116/178/163 117/187/171 126/188/172
f 125/179/164 126/188/172 135/189/173
f 134/180/165 135/189/173 144/190/174
f 143/191/175 144/190/174 153/192/176
f 152/181/166 153/192/176 162/193/177
f 161/182/167 162/193/177 171/194/178
f 170/183/168 171/194/178 180/195/179
f 179/184/169 180/195/179 99/196/180
