# Blender 4.0.2
# www.blender.org
mtllib TeaCupPlate.mtl
o TeaCupPlate
v 0.000000 0.003554 -0.000000
v -0.039885 0.003712 -0.000000
v -0.052947 0.005126 -0.000000
v -0.066642 0.014332 -0.000000
v -0.073006 0.017253 -0.000000
v -0.079506 0.016678 -0.000000
v -0.080453 0.013459 -0.000000
v -0.079538 0.011194 -0.000000
v -0.072978 0.010497 -0.000000
v -0.062080 0.005286 -0.000000
v -0.054630 0.000039 -0.000000
v 0.000000 0.000000 -0.000000
v -0.034541 0.003712 0.019942
v -0.045854 0.005126 0.026474
v -0.057713 0.014332 0.033321
v -0.063225 0.017253 0.036503
v -0.068854 0.016678 0.039753
v -0.069674 0.013459 0.040226
v -0.068882 0.011194 0.039769
v -0.063201 0.010497 0.036489
v -0.053763 0.005286 0.031040
v -0.047311 0.000039 0.027315
v -0.019942 0.003712 0.034541
v -0.026474 0.005126 0.045854
v -0.033321 0.014332 0.057713
v -0.036503 0.017253 0.063225
v -0.039753 0.016678 0.068854
v -0.040226 0.013459 0.069674
v -0.039769 0.011194 0.068882
v -0.036489 0.010497 0.063201
v -0.031040 0.005286 0.053763
v -0.027315 0.000039 0.047311
v 0.000000 0.003712 0.039885
v 0.000000 0.005126 0.052947
v 0.000000 0.014332 0.066642
v 0.000000 0.017253 0.073006
v 0.000000 0.016678 0.079506
v 0.000000 0.013459 0.080453
v 0.000000 0.011194 0.079538
v 0.000000 0.010497 0.072978
v 0.000000 0.005286 0.062080
v 0.000000 0.000039 0.054630
v 0.019942 0.003712 0.034541
v 0.026474 0.005126 0.045854
v 0.033321 0.014332 0.057713
v 0.036503 0.017253 0.063225
v 0.039753 0.016678 0.068854
v 0.040226 0.013459 0.069674
v 0.039769 0.011194 0.068882
v 0.036489 0.010497 0.063201
v 0.031040 0.005286 0.053763
v 0.027315 0.000039 0.047311
v 0.034541 0.003712 0.019942
v 0.045854 0.005126 0.026474
v 0.057713 0.014332 0.033321
v 0.063225 0.017253 0.036503
v 0.068854 0.016678 0.039753
v 0.069674 0.013459 0.040226
v 0.068882 0.011194 0.039769
v 0.063201 0.010497 0.036489
v 0.053763 0.005286 0.031040
v 0.047311 0.000039 0.027315
v 0.039885 0.003712 -0.000000
v 0.052947 0.005126 -0.000000
v 0.066642 0.014332 -0.000000
v 0.073006 0.017253 -0.000000
v 0.079506 0.016678 -0.000000
v 0.080453 0.013459 -0.000000
v 0.079538 0.011194 -0.000000
v 0.072978 0.010497 -0.000000
v 0.062080 0.005286 -0.000000
v 0.054630 0.000039 -0.000000
v 0.034541 0.003712 -0.019942
v 0.045854 0.005126 -0.026474
v 0.057713 0.014332 -0.033321
v 0.063225 0.017253 -0.036503
v 0.068854 0.016678 -0.039753
v 0.069674 0.013459 -0.040226
v 0.068882 0.011194 -0.039769
v 0.063201 0.010497 -0.036489
v 0.053763 0.005286 -0.031040
v 0.047311 0.000039 -0.027315
v 0.019942 0.003712 -0.034541
v 0.026474 0.005126 -0.045854
v 0.033321 0.014332 -0.057713
v 0.036503 0.017253 -0.063225
v 0.039753 0.016678 -0.068854
v 0.040226 0.013459 -0.069674
v 0.039769 0.011194 -0.068882
v 0.036489 0.010497 -0.063201
v 0.031040 0.005286 -0.053763
v 0.027315 0.000039 -0.047311
v 0.000000 0.003712 -0.039885
v 0.000000 0.005126 -0.052947
v 0.000000 0.014332 -0.066642
v 0.000000 0.017253 -0.073006
v 0.000000 0.016678 -0.079506
v 0.000000 0.013459 -0.080453
v 0.000000 0.011194 -0.079538
v 0.000000 0.010497 -0.072978
v 0.000000 0.005286 -0.062080
v 0.000000 0.000039 -0.054630
v -0.019942 0.003712 -0.034541
v -0.026474 0.005126 -0.045854
v -0.033321 0.014332 -0.057713
v -0.036503 0.017253 -0.063225
v -0.039753 0.016678 -0.068854
v -0.040226 0.013459 -0.069674
v -0.039769 0.011194 -0.068882
v -0.036489 0.010497 -0.063201
v -0.031040 0.005286 -0.053763
v -0.027315 0.000039 -0.047311
v -0.034541 0.003712 -0.019942
v -0.045854 0.005126 -0.026474
v -0.057713 0.014332 -0.033321
v -0.063225 0.017253 -0.036503
v -0.068854 0.016678 -0.039753
v -0.069674 0.013459 -0.040226
v -0.068882 0.011194 -0.039769
v -0.063201 0.010497 -0.036489
v -0.053763 0.005286 -0.031040
v -0.047311 0.000039 -0.027315
vn -0.0000 1.0000 -0.0000
vn 0.0644 0.9979 -0.0000
vn 0.0558 0.9979 -0.0322
vn 0.0322 0.9979 -0.0558
vn -0.0000 0.9979 -0.0644
vn -0.0322 0.9979 -0.0558
vn -0.0558 0.9979 -0.0322
vn -0.0644 0.9979 -0.0000
vn -0.0558 0.9979 0.0322
vn -0.0322 0.9979 0.0558
vn -0.0000 0.9979 0.0645
vn 0.0322 0.9979 0.0558
vn 0.0558 0.9979 0.0322
vn 0.3265 0.9262 -0.1885
vn 0.1885 0.9262 -0.3265
vn -0.0000 0.9262 -0.3770
vn -0.1885 0.9262 -0.3265
vn -0.3265 0.9262 -0.1885
vn -0.3265 0.9262 0.1885
vn -0.1885 0.9262 0.3265
vn 0.1885 0.9262 0.3265
vn 0.3770 0.9262 -0.0000
vn 0.4788 0.8779 -0.0000
vn 0.4146 0.8779 -0.2394
vn 0.2394 0.8779 -0.4146
vn -0.2394 0.8779 -0.4146
vn -0.4146 0.8779 -0.2394
vn -0.4788 0.8779 -0.0000
vn -0.3770 0.9262 -0.0000
vn -0.4146 0.8779 0.2394
vn -0.2394 0.8779 0.4146
vn -0.0000 0.9262 0.3770
vn 0.2394 0.8779 0.4146
vn 0.3265 0.9262 0.1885
vn 0.1282 0.9918 -0.0000
vn 0.0641 0.9918 -0.1110
vn -0.0000 0.8779 -0.4788
vn -0.0000 0.9918 -0.1282
vn -0.0641 0.9918 -0.1110
vn -0.1282 0.9918 -0.0000
vn -0.1110 0.9918 0.0641
vn -0.0641 0.9918 0.1110
vn -0.0000 0.8779 0.4788
vn 0.0641 0.9918 0.1110
vn 0.4146 0.8779 0.2394
vn -0.6836 0.7298 -0.0000
vn 0.1110 0.9918 -0.0641
vn -0.5920 0.7298 0.3418
vn -0.3418 0.7298 0.5920
vn 0.3418 0.7298 0.5920
vn 0.5920 0.7298 0.3418
vn -0.1110 0.9918 -0.0641
vn 0.5920 0.7298 -0.3418
vn 0.3418 0.7298 -0.5920
vn -0.0000 0.7298 -0.6836
vn -0.0000 0.9918 0.1282
vn -0.3418 0.7298 -0.5920
vn 0.1110 0.9918 0.0641
vn -0.9989 -0.0464 -0.0000
vn -0.8651 -0.0464 0.4995
vn -0.4995 -0.0464 0.8651
vn -0.0000 0.7298 0.6836
vn -0.0000 -0.0464 0.9989
vn 0.4995 -0.0464 0.8651
vn 0.8651 -0.0464 0.4995
vn 0.6836 0.7298 -0.0000
vn 0.9989 -0.0464 -0.0000
vn 0.8651 -0.0464 -0.4995
vn 0.4995 -0.0464 -0.8651
vn -0.0000 -0.0464 -0.9989
vn -0.4995 -0.0464 -0.8651
vn -0.5920 0.7298 -0.3418
vn -0.8651 -0.0464 -0.4995
vn -0.5642 -0.7586 0.3258
vn -0.3258 -0.7586 0.5642
vn -0.0000 -0.7586 0.6515
vn 0.3258 -0.7586 0.5642
vn 0.5642 -0.7586 0.3258
vn 0.6515 -0.7586 -0.0000
vn 0.5642 -0.7586 -0.3258
vn 0.3258 -0.7586 -0.5642
vn -0.0000 -0.7586 -0.6515
vn -0.3258 -0.7586 -0.5642
vn -0.5642 -0.7586 -0.3258
vn -0.2460 -0.9693 -0.0000
vn -0.6515 -0.7586 -0.0000
vn -0.2130 -0.9693 0.1230
vn -0.0000 -0.9693 0.2460
vn 0.1230 -0.9693 0.2130
vn 0.2130 -0.9693 0.1230
vn 0.2460 -0.9693 -0.0000
vn 0.2130 -0.9693 -0.1230
vn 0.1230 -0.9693 -0.2130
vn -0.1230 -0.9693 -0.2130
vn -0.2130 -0.9693 -0.1230
vn -0.4286 -0.8690 0.2474
vn -0.1230 -0.9693 0.2130
vn -0.2474 -0.8690 0.4286
vn -0.0000 -0.8690 0.4949
vn 0.2474 -0.8690 0.4286
vn 0.4286 -0.8690 0.2474
vn 0.4286 -0.8690 -0.2474
vn 0.2474 -0.8690 -0.4286
vn -0.0000 -0.8690 -0.4949
vn -0.0000 -0.9693 -0.2460
vn -0.4286 -0.8690 -0.2474
vn -0.4949 -0.8690 -0.0000
vn -0.3465 -0.9380 -0.0000
vn -0.3001 -0.9380 0.1733
vn -0.1733 -0.9380 0.3001
vn -0.0000 -0.9380 0.3465
vn 0.1733 -0.9380 0.3001
vn 0.3001 -0.9380 0.1733
vn 0.4949 -0.8690 -0.0000
vn 0.3465 -0.9380 -0.0000
vn 0.1733 -0.9380 -0.3001
vn -0.0000 -0.9380 -0.3465
vn -0.2474 -0.8690 -0.4286
vn -0.1733 -0.9380 -0.3001
vn -0.3001 -0.9380 -0.1733
vn -0.0000 -1.0000 -0.0000
vn 0.3001 -0.9380 -0.1733
vt 0.041667 0.027516
vt 0.000000 0.028746
vt 0.083333 0.028746
vt 0.125000 0.027516
vt 0.166667 0.028746
vt 0.208333 0.027516
vt 0.250000 0.028746
vt 0.291667 0.027516
vt 0.333333 0.028746
vt 0.375000 0.027516
vt 0.416667 0.028746
vt 0.458333 0.027516
vt 0.500000 0.028746
vt 0.541667 0.027516
vt 0.583333 0.028746
vt 0.625000 0.027516
vt 0.666667 0.028746
vt 0.708333 0.027516
vt 0.750000 0.028746
vt 0.791667 0.027516
vt 0.833333 0.028746
vt 0.875000 0.027516
vt 0.916667 0.028746
vt 0.958333 0.027516
vt 1.000000 0.028746
vt 0.083333 0.039739
vt 0.166667 0.039739
vt 0.250000 0.039739
vt 0.333333 0.039739
vt 0.416667 0.039739
vt 0.583333 0.039739
vt 0.666667 0.039739
vt 0.833333 0.039739
vt 1.000000 0.039739
vt 0.000000 0.111350
vt 0.000000 0.039739
vt 0.083333 0.111350
vt 0.166667 0.111350
vt 0.333333 0.111350
vt 0.416667 0.111350
vt 0.500000 0.111350
vt 0.500000 0.039739
vt 0.583333 0.111350
vt 0.666667 0.111350
vt 0.750000 0.039739
vt 0.833333 0.111350
vt 0.916667 0.039739
vt 1.000000 0.111350
vt 0.000000 0.134070
vt 0.166667 0.134070
vt 0.250000 0.111350
vt 0.250000 0.134070
vt 0.333333 0.134070
vt 0.500000 0.134070
vt 0.583333 0.134070
vt 0.666667 0.134070
vt 0.750000 0.111350
vt 0.833333 0.134070
vt 0.916667 0.111350
vt 1.000000 0.134070
vt 0.000000 0.129598
vt 0.083333 0.134070
vt 0.083333 0.129598
vt 0.166667 0.129598
vt 0.333333 0.129598
vt 0.416667 0.129598
vt 0.416667 0.134070
vt 0.583333 0.129598
vt 0.666667 0.129598
vt 0.750000 0.129598
vt 0.750000 0.134070
vt 0.833333 0.129598
vt 0.916667 0.134070
vt 1.000000 0.129598
vt 0.000000 0.104561
vt 0.083333 0.104561
vt 0.166667 0.104561
vt 0.250000 0.129598
vt 0.250000 0.104561
vt 0.333333 0.104561
vt 0.416667 0.104561
vt 0.500000 0.129598
vt 0.500000 0.104561
vt 0.583333 0.104561
vt 0.666667 0.104561
vt 0.750000 0.104561
vt 0.833333 0.104561
vt 0.916667 0.129598
vt 0.916667 0.104561
vt 0.083333 0.086940
vt 0.166667 0.086940
vt 0.250000 0.086940
vt 0.333333 0.086940
vt 0.416667 0.086940
vt 0.500000 0.086940
vt 0.583333 0.086940
vt 0.666667 0.086940
vt 0.750000 0.086940
vt 0.833333 0.086940
vt 0.916667 0.086940
vt 1.000000 0.104561
vt 0.000000 0.081521
vt 0.000000 0.086940
vt 0.083333 0.081521
vt 0.250000 0.081521
vt 0.333333 0.081521
vt 0.416667 0.081521
vt 0.500000 0.081521
vt 0.583333 0.081521
vt 0.666667 0.081521
vt 0.833333 0.081521
vt 0.916667 0.081521
vt 1.000000 0.086940
vt 0.083333 0.040985
vt 0.166667 0.081521
vt 0.166667 0.040985
vt 0.250000 0.040985
vt 0.333333 0.040985
vt 0.416667 0.040985
vt 0.583333 0.040985
vt 0.666667 0.040985
vt 0.750000 0.040985
vt 0.750000 0.081521
vt 0.916667 0.040985
vt 1.000000 0.040985
vt 1.000000 0.081521
vt 0.000000 0.000169
vt 0.000000 0.040985
vt 0.083333 0.000169
vt 0.166667 0.000169
vt 0.250000 0.000169
vt 0.333333 0.000169
vt 0.416667 0.000169
vt 0.500000 0.040985
vt 0.500000 0.000169
vt 0.666667 0.000169
vt 0.750000 0.000169
vt 0.833333 0.040985
vt 0.833333 0.000169
vt 0.916667 0.000169
vt 0.041667 -0.000132
vt 0.125000 -0.000132
vt 0.208333 -0.000132
vt 0.291667 -0.000132
vt 0.375000 -0.000132
vt 0.458333 -0.000132
vt 0.541667 -0.000132
vt 0.583333 0.000169
vt 0.625000 -0.000132
vt 0.708333 -0.000132
vt 0.791667 -0.000132
vt 0.875000 -0.000132
vt 0.958333 -0.000132
vt 1.000000 0.000169
s 1
f 1/1/1 2/2/2 13/3/3
f 1/4/1 13/3/3 23/5/4
f 1/6/1 23/5/4 33/7/5
f 1/8/1 33/7/5 43/9/6
f 1/10/1 43/9/6 53/11/7
f 1/12/1 53/11/7 63/13/8
f 1/14/1 63/13/8 73/15/9
f 1/16/1 73/15/9 83/17/10
f 1/18/1 83/17/10 93/19/11
f 1/20/1 93/19/11 103/21/12
f 1/22/1 103/21/12 113/23/13
f 1/24/1 113/23/13 2/25/2
f 2/2/2 14/26/14 13/3/3
f 14/26/14 23/5/4 13/3/3
f 24/27/15 33/7/5 23/5/4
f 34/28/16 43/9/6 33/7/5
f 44/29/17 53/11/7 43/9/6
f 54/30/18 63/13/8 53/11/7
f 63/13/8 74/31/19 73/15/9
f 73/15/9 84/32/20 83/17/10
f 84/32/20 93/19/11 83/17/10
f 93/19/11 104/33/21 103/21/12
f 104/33/21 113/23/13 103/21/12
f 113/23/13 3/34/22 2/25/2
f 4/35/23 14/26/14 3/36/22
f 15/37/24 24/27/15 14/26/14
f 25/38/25 34/28/16 24/27/15
f 34/28/16 45/39/26 44/29/17
f 44/29/17 55/40/27 54/30/18
f 54/30/18 65/41/28 64/42/29
f 65/41/28 74/31/19 64/42/29
f 75/43/30 84/32/20 74/31/19
f 85/44/31 94/45/32 84/32/20
f 94/45/32 105/46/33 104/33/21
f 105/46/33 114/47/34 104/33/21
f 114/47/34 4/48/23 3/34/22
f 5/49/35 15/37/24 4/35/23
f 15/37/24 26/50/36 25/38/25
f 26/50/36 35/51/37 25/38/25
f 36/52/38 45/39/26 35/51/37
f 46/53/39 55/40/27 45/39/26
f 55/40/27 66/54/40 65/41/28
f 66/54/40 75/43/30 65/41/28
f 76/55/41 85/44/31 75/43/30
f 86/56/42 95/57/43 85/44/31
f 95/57/43 106/58/44 105/46/33
f 106/58/44 115/59/45 105/46/33
f 115/59/45 5/60/35 4/48/23
f 6/61/46 16/62/47 5/49/35
f 17/63/48 26/50/36 16/62/47
f 27/64/49 36/52/38 26/50/36
f 36/52/38 47/65/50 46/53/39
f 46/53/39 57/66/51 56/67/52
f 57/66/51 66/54/40 56/67/52
f 66/54/40 77/68/53 76/55/41
f 76/55/41 87/69/54 86/56/42
f 86/56/42 97/70/55 96/71/56
f 96/71/56 107/72/57 106/58/44
f 107/72/57 116/73/58 106/58/44
f 116/73/58 6/74/46 5/60/35
f 7/75/59 17/63/48 6/61/46
f 18/76/60 27/64/49 17/63/48
f 28/77/61 37/78/62 27/64/49
f 38/79/63 47/65/50 37/78/62
f 48/80/64 57/66/51 47/65/50
f 58/81/65 67/82/66 57/66/51
f 68/83/67 77/68/53 67/82/66
f 78/84/68 87/69/54 77/68/53
f 88/85/69 97/70/55 87/69/54
f 98/86/70 107/72/57 97/70/55
f 108/87/71 117/88/72 107/72/57
f 118/89/73 6/74/46 117/88/72
f 7/75/59 19/90/74 18/76/60
f 19/90/74 28/77/61 18/76/60
f 29/91/75 38/79/63 28/77/61
f 39/92/76 48/80/64 38/79/63
f 49/93/77 58/81/65 48/80/64
f 59/94/78 68/83/67 58/81/65
f 69/95/79 78/84/68 68/83/67
f 79/96/80 88/85/69 78/84/68
f 89/97/81 98/86/70 88/85/69
f 99/98/82 108/87/71 98/86/70
f 109/99/83 118/89/73 108/87/71
f 119/100/84 7/101/59 118/89/73
f 9/102/85 19/90/74 8/103/86
f 20/104/87 29/91/75 19/90/74
f 29/91/75 40/105/88 39/92/76
f 39/92/76 50/106/89 49/93/77
f 50/106/89 59/94/78 49/93/77
f 60/107/90 69/95/79 59/94/78
f 70/108/91 79/96/80 69/95/79
f 80/109/92 89/97/81 79/96/80
f 90/110/93 99/98/82 89/97/81
f 99/98/82 110/111/94 109/99/83
f 110/111/94 119/100/84 109/99/83
f 120/112/95 8/113/86 119/100/84
f 9/102/85 21/114/96 20/104/87
f 21/114/96 30/115/97 20/104/87
f 31/116/98 40/105/88 30/115/97
f 41/117/99 50/106/89 40/105/88
f 51/118/100 60/107/90 50/106/89
f 61/119/101 70/108/91 60/107/90
f 70/108/91 81/120/102 80/109/92
f 80/109/92 91/121/103 90/110/93
f 90/110/93 101/122/104 100/123/105
f 101/122/104 110/111/94 100/123/105
f 110/111/94 121/124/106 120/112/95
f 120/112/95 10/125/107 9/126/85
f 11/127/108 21/114/96 10/128/107
f 22/129/109 31/116/98 21/114/96
f 32/130/110 41/117/99 31/116/98
f 42/131/111 51/118/100 41/117/99
f 52/132/112 61/119/101 51/118/100
f 62/133/113 71/134/114 61/119/101
f 72/135/115 81/120/102 71/134/114
f 81/120/102 92/136/116 91/121/103
f 91/121/103 102/137/117 101/122/104
f 102/137/117 111/138/118 101/122/104
f 112/139/119 121/124/106 111/138/118
f 122/140/120 10/125/107 121/124/106
f 11/127/108 12/141/121 22/129/109
f 22/129/109 12/142/121 32/130/110
f 32/130/110 12/143/121 42/131/111
f 42/131/111 12/144/121 52/132/112
f 52/132/112 12/145/121 62/133/113
f 62/133/113 12/146/121 72/135/115
f 72/135/115 12/147/121 82/148/122
f 82/148/122 12/149/121 92/136/116
f 92/136/116 12/150/121 102/137/117
f 102/137/117 12/151/121 112/139/119
f 112/139/119 12/152/121 122/140/120
f 122/140/120 12/153/121 11/154/108
f 2/2/2 3/36/22 14/26/14
f 14/26/14 24/27/15 23/5/4
f 24/27/15 34/28/16 33/7/5
f 34/28/16 44/29/17 43/9/6
f 44/29/17 54/30/18 53/11/7
f 54/30/18 64/42/29 63/13/8
f 63/13/8 64/42/29 74/31/19
f 73/15/9 74/31/19 84/32/20
f 84/32/20 94/45/32 93/19/11
f 93/19/11 94/45/32 104/33/21
f 104/33/21 114/47/34 113/23/13
f 113/23/13 114/47/34 3/34/22
f 4/35/23 15/37/24 14/26/14
f 15/37/24 25/38/25 24/27/15
f 25/38/25 35/51/37 34/28/16
f 34/28/16 35/51/37 45/39/26
f 44/29/17 45/39/26 55/40/27
f 54/30/18 55/40/27 65/41/28
f 65/41/28 75/43/30 74/31/19
f 75/43/30 85/44/31 84/32/20
f 85/44/31 95/57/43 94/45/32
f 94/45/32 95/57/43 105/46/33
f 105/46/33 115/59/45 114/47/34
f 114/47/34 115/59/45 4/48/23
f 5/49/35 16/62/47 15/37/24
f 15/37/24 16/62/47 26/50/36
f 26/50/36 36/52/38 35/51/37
f 36/52/38 46/53/39 45/39/26
f 46/53/39 56/67/52 55/40/27
f 55/40/27 56/67/52 66/54/40
f 66/54/40 76/55/41 75/43/30
f 76/55/41 86/56/42 85/44/31
f 86/56/42 96/71/56 95/57/43
f 95/57/43 96/71/56 106/58/44
f 106/58/44 116/73/58 115/59/45
f 115/59/45 116/73/58 5/60/35
f 6/61/46 17/63/48 16/62/47
f 17/63/48 27/64/49 26/50/36
f 27/64/49 37/78/62 36/52/38
f 36/52/38 37/78/62 47/65/50
f 46/53/39 47/65/50 57/66/51
f 57/66/51 67/82/66 66/54/40
f 66/54/40 67/82/66 77/68/53
f 76/55/41 77/68/53 87/69/54
f 86/56/42 87/69/54 97/70/55
f 96/71/56 97/70/55 107/72/57
f 107/72/57 117/88/72 116/73/58
f 116/73/58 117/88/72 6/74/46
f 7/75/59 18/76/60 17/63/48
f 18/76/60 28/77/61 27/64/49
f 28/77/61 38/79/63 37/78/62
f 38/79/63 48/80/64 47/65/50
f 48/80/64 58/81/65 57/66/51
f 58/81/65 68/83/67 67/82/66
f 68/83/67 78/84/68 77/68/53
f 78/84/68 88/85/69 87/69/54
f 88/85/69 98/86/70 97/70/55
f 98/86/70 108/87/71 107/72/57
f 108/87/71 118/89/73 117/88/72
f 118/89/73 7/101/59 6/74/46
f 7/75/59 8/103/86 19/90/74
f 19/90/74 29/91/75 28/77/61
f 29/91/75 39/92/76 38/79/63
f 39/92/76 49/93/77 48/80/64
f 49/93/77 59/94/78 58/81/65
f 59/94/78 69/95/79 68/83/67
f 69/95/79 79/96/80 78/84/68
f 79/96/80 89/97/81 88/85/69
f 89/97/81 99/98/82 98/86/70
f 99/98/82 109/99/83 108/87/71
f 109/99/83 119/100/84 118/89/73
f 119/100/84 8/113/86 7/101/59
f 9/102/85 20/104/87 19/90/74
f 20/104/87 30/115/97 29/91/75
f 29/91/75 30/115/97 40/105/88
f 39/92/76 40/105/88 50/106/89
f 50/106/89 60/107/90 59/94/78
f 60/107/90 70/108/91 69/95/79
f 70/108/91 80/109/92 79/96/80
f 80/109/92 90/110/93 89/97/81
f 90/110/93 100/123/105 99/98/82
f 99/98/82 100/123/105 110/111/94
f 110/111/94 120/112/95 119/100/84
f 120/112/95 9/126/85 8/113/86
f 9/102/85 10/128/107 21/114/96
f 21/114/96 31/116/98 30/115/97
f 31/116/98 41/117/99 40/105/88
f 41/117/99 51/118/100 50/106/89
f 51/118/100 61/119/101 60/107/90
f 61/119/101 71/134/114 70/108/91
f 70/108/91 71/134/114 81/120/102
f 80/109/92 81/120/102 91/121/103
f 90/110/93 91/121/103 101/122/104
f 101/122/104 111/138/118 110/111/94
f 110/111/94 111/138/118 121/124/106
f 120/112/95 121/124/106 10/125/107
f 11/127/108 22/129/109 21/114/96
f 22/129/109 32/130/110 31/116/98
f 32/130/110 42/131/111 41/117/99
f 42/131/111 52/132/112 51/118/100
f 52/132/112 62/133/113 61/119/101
f 62/133/113 72/135/115 71/134/114
f 72/135/115 82/148/122 81/120/102
f 81/120/102 82/148/122 92/136/116
f 91/121/103 92/136/116 102/137/117
f 102/137/117 112/139/119 111/138/118
f 112/139/119 122/140/120 121/124/106
f 122/140/120 11/154/108 10/125/107
