# Blender 4.0.2
# www.blender.org
mtllib ChairRocking.mtl
o chair_top_arms.003
v -0.163299 0.454271 -0.243440
v -0.156596 0.740131 -0.388761
v -0.136752 0.459140 -0.233581
v -0.130050 0.745000 -0.378902
v -0.125756 0.470894 -0.209778
v -0.119053 0.756755 -0.355100
v -0.136752 0.482649 -0.185976
v -0.130050 0.768509 -0.331297
v -0.163299 0.487518 -0.176116
v -0.156596 0.773378 -0.321438
v -0.189846 0.482649 -0.185976
v -0.183143 0.768509 -0.331297
v -0.200842 0.470894 -0.209778
v -0.194139 0.756755 -0.355100
v -0.189846 0.459140 -0.233581
v -0.183143 0.745000 -0.378902
v 0.164093 0.454271 -0.243440
v 0.157390 0.740131 -0.388761
v 0.137546 0.459140 -0.233581
v 0.130844 0.745000 -0.378902
v 0.126550 0.470894 -0.209778
v 0.119848 0.756755 -0.355100
v 0.137546 0.482649 -0.185976
v 0.130844 0.768509 -0.331297
v 0.164093 0.487518 -0.176116
v 0.157390 0.773378 -0.321438
v 0.190640 0.482649 -0.185976
v 0.183937 0.768509 -0.331297
v 0.201636 0.470894 -0.209778
v 0.194933 0.756755 -0.355100
v 0.190640 0.459140 -0.233581
v 0.183937 0.745000 -0.378902
vn 0.3826 -0.4258 -0.8199
vn 0.9236 -0.1907 -0.3325
vn 0.9238 0.1561 0.3497
vn 0.3827 0.4115 0.8272
vn -0.3826 0.4258 0.8199
vn -0.9236 0.1907 0.3325
vn -0.0000 0.8966 -0.4428
vn -0.9238 -0.1561 -0.3497
vn -0.3827 -0.4115 -0.8272
vn -0.0000 -0.8966 0.4428
vn -0.3826 -0.4258 -0.8199
vn -0.9236 -0.1907 -0.3325
vn -0.9238 0.1561 0.3497
vn -0.3827 0.4115 0.8272
vn 0.3826 0.4258 0.8199
vn 0.9236 0.1907 0.3325
vn 0.9238 -0.1561 -0.3497
vn 0.3827 -0.4115 -0.8272
vt 1.000000 1.000000
vt 0.875000 0.500000
vt 1.000000 0.500000
vt 0.750000 1.000000
vt 0.750000 0.500000
vt 0.625000 1.000000
vt 0.625000 0.500000
vt 0.500000 1.000000
vt 0.500000 0.500000
vt 0.375000 1.000000
vt 0.375000 0.500000
vt 0.250000 0.500000
vt 0.010000 0.250000
vt 0.250000 0.010000
vt 0.490000 0.250000
vt 0.250000 1.000000
vt 0.125000 0.500000
vt 0.125000 1.000000
vt 0.000000 0.500000
vt 0.919706 0.080294
vt 0.580294 0.080294
vt 0.580294 0.419706
vt 0.875000 1.000000
vt 0.250000 0.490000
vt 0.919706 0.419706
vt 0.419706 0.419706
vt 0.080294 0.419706
vt 0.080294 0.080294
vt 0.419706 0.080294
vt 0.000000 1.000000
vt 0.750000 0.490000
vt 0.990000 0.250000
vt 0.750000 0.010000
vt 0.510000 0.250000
s 0
f 2/1/1 3/2/1 1/3/1
f 3/2/2 6/4/2 5/5/2
f 5/5/3 8/6/3 7/7/3
f 7/7/4 10/8/4 9/9/4
f 9/9/5 12/10/5 11/11/5
f 12/10/6 13/12/6 11/11/6
f 14/13/7 10/14/7 6/15/7
f 14/16/8 15/17/8 13/12/8
f 16/18/9 1/19/9 15/17/9
f 7/20/10 11/21/10 15/22/10
f 19/2/11 18/1/11 17/3/11
f 19/2/12 22/4/12 20/23/12
f 21/5/13 24/6/13 22/4/13
f 23/7/14 26/8/14 24/6/14
f 25/9/15 28/10/15 26/8/15
f 29/12/16 28/10/16 27/11/16
f 26/14/7 30/13/7 18/24/7
f 31/17/17 30/16/17 29/12/17
f 17/19/18 32/18/18 31/17/18
f 27/21/10 23/20/10 19/25/10
f 2/1/1 4/23/1 3/2/1
f 3/2/2 4/23/2 6/4/2
f 5/5/3 6/4/3 8/6/3
f 7/7/4 8/6/4 10/8/4
f 9/9/5 10/8/5 12/10/5
f 12/10/6 14/16/6 13/12/6
f 6/15/7 4/26/7 2/24/7
f 2/24/7 16/27/7 14/13/7
f 14/13/7 12/28/7 10/14/7
f 10/14/7 8/29/7 6/15/7
f 6/15/7 2/24/7 14/13/7
f 14/16/8 16/18/8 15/17/8
f 16/18/9 2/30/9 1/19/9
f 15/22/10 1/31/10 3/25/10
f 3/25/10 5/32/10 7/20/10
f 7/20/10 9/33/10 11/21/10
f 11/21/10 13/34/10 15/22/10
f 15/22/10 3/25/10 7/20/10
f 19/2/11 20/23/11 18/1/11
f 19/2/12 21/5/12 22/4/12
f 21/5/13 23/7/13 24/6/13
f 23/7/14 25/9/14 26/8/14
f 25/9/15 27/11/15 28/10/15
f 29/12/16 30/16/16 28/10/16
f 18/24/7 20/26/7 22/15/7
f 22/15/7 24/29/7 26/14/7
f 26/14/7 28/28/7 30/13/7
f 30/13/7 32/27/7 18/24/7
f 18/24/7 22/15/7 26/14/7
f 31/17/17 32/18/17 30/16/17
f 17/19/18 18/30/18 32/18/18
f 19/25/10 17/31/10 31/22/10
f 31/22/10 29/34/10 27/21/10
f 27/21/10 25/33/10 23/20/10
f 23/20/10 21/32/10 19/25/10
f 19/25/10 31/22/10 27/21/10
o chair_top.002
v -0.255113 0.480477 0.133406
v -0.225041 0.450846 0.138102
v -0.227134 0.484946 0.163004
v -0.255113 0.534630 0.124701
v -0.227134 0.539662 0.154208
v -0.225041 0.564240 0.119874
v -0.227297 0.418935 -0.274046
v -0.195276 0.414463 -0.303644
v -0.197233 0.389324 -0.269219
v -0.227297 0.465376 -0.281512
v -0.197233 0.495008 -0.286207
v -0.195276 0.460346 -0.311019
v 0.255908 0.480477 0.133406
v 0.227928 0.484946 0.163004
v 0.225835 0.450846 0.138102
v 0.255908 0.534630 0.124701
v 0.225835 0.564240 0.119874
v 0.227928 0.539662 0.154208
v 0.228091 0.418935 -0.274046
v 0.198027 0.389324 -0.269219
v 0.196070 0.414463 -0.303644
v 0.198027 0.495008 -0.286207
v 0.228091 0.465376 -0.281512
v 0.196070 0.460346 -0.311019
v 0.097022 0.389324 -0.269219
v 0.096163 0.414463 -0.303644
v -0.095368 0.414463 -0.303644
v -0.096228 0.389324 -0.269219
v -0.096228 0.495008 -0.286207
v -0.095368 0.460346 -0.311019
v 0.096163 0.460346 -0.311019
v 0.097022 0.495008 -0.286207
v -0.108028 0.450846 0.138102
v -0.108888 0.484946 0.163004
v 0.109682 0.484946 0.163004
v 0.108822 0.450846 0.138102
v 0.108822 0.564240 0.119874
v 0.109682 0.539662 0.154208
v -0.108888 0.539662 0.154208
v -0.108028 0.564240 0.119874
vn -0.0000 -0.9888 0.1493
vn -0.0000 0.9858 -0.1681
vn 0.9977 -0.0107 -0.0665
vn -0.0000 -0.1587 -0.9873
vn -0.0000 0.1587 0.9873
vn -0.9977 -0.0107 -0.0665
vn -0.5908 -0.4992 0.6339
vn -0.5908 0.6727 0.4455
vn -0.5613 -0.6528 -0.5086
vn -0.5613 0.4605 -0.6876
vn 0.5908 -0.4992 0.6339
vn 0.5908 0.6727 0.4455
vn 0.5613 -0.6528 -0.5086
vn 0.5613 0.4605 -0.6876
vn -0.7305 0.1084 0.6742
vn -0.6829 -0.1159 -0.7213
vn -0.0000 -0.8076 -0.5898
vn -0.0000 0.5821 -0.8131
vn 0.6829 -0.1159 -0.7213
vn 0.7305 0.1084 0.6742
vn -0.0000 -0.5898 0.8076
vn -0.0000 0.8131 0.5821
vn -0.7053 -0.7065 0.0586
vn -0.7053 0.6893 -0.1658
vn 0.7053 -0.7065 0.0586
vn 0.7053 0.6893 -0.1658
vt 0.291667 0.515892
vt 0.208333 0.734108
vt 0.208333 0.515892
vt 0.855977 0.515892
vt 0.791667 0.734108
vt 0.791667 0.515892
vt 0.144023 0.515892
vt 0.208333 0.734108
vt 0.142101 0.734108
vt 0.644023 0.515892
vt 0.708333 0.734108
vt 0.642101 0.734108
vt 0.555040 0.515857
vt 0.440418 0.734144
vt 0.444960 0.515857
vt 0.554559 0.269244
vt 0.445441 0.333333
vt 0.445441 0.269244
vt 0.554559 0.416667
vt 0.445441 0.480756
vt 0.445441 0.416667
vt 0.560019 0.833333
vt 0.439981 0.916667
vt 0.439981 0.833333
vt 0.559582 0.015856
vt 0.444960 0.234144
vt 0.440418 0.015856
vt 0.355977 0.515892
vt 0.291667 0.734108
vt 0.291667 0.515892
vt 0.560019 0.766864
vt 0.439981 0.833333
vt 0.439981 0.766864
vt 0.791667 0.515892
vt 0.708333 0.734108
vt 0.708333 0.515892
vt 0.554559 0.333333
vt 0.440598 0.998864
vt 0.375616 0.981959
vt 0.439981 0.983136
vt 0.559402 0.998864
vt 0.560019 0.983136
vt 0.624384 0.981959
vt 0.125000 0.515707
vt 0.144244 0.500000
vt 0.555222 0.250000
vt 0.625000 0.267989
vt 0.440598 0.751136
vt 0.375616 0.768040
vt 0.559402 0.751136
vt 0.624384 0.768041
vt 0.375000 0.515707
vt 0.355756 0.500000
vt 0.625000 0.482011
vt 0.555222 0.500000
vt 0.554559 0.480756
vt 0.559402 1.000000
vt 0.440598 1.000000
vt 0.555040 0.234144
vt 0.208333 0.515892
vt 0.208333 0.500000
vt 0.625000 0.417218
vt 0.559582 0.734144
vt 0.375000 0.768041
vt 0.375000 0.833333
vt 0.625000 0.981959
vt 0.560019 0.916667
vt 0.625000 0.916667
vt 0.291667 0.500000
vt 0.625000 0.332782
vt 0.625000 0.416667
vt 0.625000 0.333333
vt 0.375000 0.981959
vt 0.375000 0.833661
vt 0.375000 0.916339
vt 0.625000 0.768041
vt 0.625000 0.916339
vt 0.625000 0.833661
vt 0.625000 0.016962
vt 0.357899 0.734108
vt 0.291667 0.734108
vt 0.857899 0.734108
vt 0.708333 0.515892
vt 0.375000 0.916667
vt 0.625000 0.833333
vt 0.125000 0.733994
vt 0.625000 0.235179
s 1
f 57/35/19 65/36/19 60/37/19
f 43/38/20 72/39/20 61/40/20
f 41/41/19 65/42/19 34/43/19
f 54/44/20 69/45/20 49/46/20
f 55/47/21 45/48/21 51/49/21
f 44/50/22 59/51/22 40/52/22
f 63/53/22 53/54/22 58/55/22
f 70/56/23 66/57/23 67/58/23
f 36/59/24 39/60/24 33/61/24
f 52/62/19 68/63/19 57/64/19
f 50/65/23 67/66/23 46/67/23
f 61/68/20 69/69/20 64/70/20
f 62/71/22 58/55/22 59/51/22
f 33/72/25 34/73/25 35/74/25
f 36/75/26 37/76/26 38/77/26
f 39/78/27 40/79/27 41/41/27
f 42/80/28 43/81/28 44/50/28
f 45/82/29 46/67/29 47/83/29
f 48/84/30 49/85/30 50/65/30
f 51/86/31 52/62/31 53/87/31
f 54/88/32 55/89/32 56/90/32
f 35/74/33 36/91/33 33/92/33
f 40/52/34 42/93/34 44/50/34
f 60/94/35 40/79/35 59/95/35
f 64/96/36 56/90/36 63/53/36
f 55/47/37 53/54/37 56/90/37
f 46/67/38 48/97/38 50/65/38
f 47/98/39 67/66/39 68/99/39
f 38/100/40 71/101/40 72/102/40
f 57/64/35 53/87/35 52/62/35
f 60/37/35 58/103/35 57/35/35
f 61/104/36 44/50/36 43/81/36
f 64/105/36 62/71/36 61/106/36
f 34/107/39 66/57/39 35/74/39
f 68/108/39 66/57/39 65/109/39
f 49/110/40 70/56/40 50/65/40
f 72/111/40 70/56/40 69/112/40
f 34/43/41 39/78/41 41/41/41
f 38/113/42 42/93/42 36/59/42
f 47/114/43 51/49/43 45/48/43
f 49/46/44 55/47/44 54/44/44
f 71/101/23 35/74/23 66/57/23
f 57/35/19 68/115/19 65/36/19
f 43/38/20 38/116/20 72/39/20
f 41/41/19 60/94/19 65/42/19
f 54/44/20 64/117/20 69/45/20
f 55/47/21 48/97/21 45/48/21
f 44/50/22 62/71/22 59/51/22
f 63/53/22 56/90/22 53/54/22
f 70/56/23 71/101/23 66/57/23
f 36/59/24 42/93/24 39/60/24
f 52/62/19 47/114/19 68/63/19
f 50/65/23 70/56/23 67/66/23
f 61/68/20 72/39/20 69/69/20
f 62/71/22 63/53/22 58/55/22
f 35/74/33 37/76/33 36/91/33
f 40/52/34 39/60/34 42/93/34
f 60/94/35 41/41/35 40/79/35
f 64/96/36 54/88/36 56/90/36
f 55/47/37 51/49/37 53/54/37
f 46/67/38 45/48/38 48/97/38
f 47/98/39 46/67/39 67/66/39
f 38/100/40 37/76/40 71/101/40
f 57/64/35 58/103/35 53/87/35
f 60/37/35 59/95/35 58/103/35
f 61/104/36 62/71/36 44/50/36
f 64/105/36 63/53/36 62/71/36
f 34/107/39 65/118/39 66/57/39
f 68/108/39 67/58/39 66/57/39
f 49/110/40 69/119/40 70/56/40
f 72/111/40 71/101/40 70/56/40
f 34/43/41 33/120/41 39/78/41
f 38/113/42 43/121/42 42/93/42
f 47/114/43 52/62/43 51/49/43
f 49/46/44 48/97/44 55/47/44
f 71/101/23 37/76/23 35/74/23
o chair_rest.002
v -0.214125 0.888027 -0.495190
v -0.243738 0.905094 -0.464857
v -0.213738 0.928965 -0.483611
v -0.213738 0.959656 -0.429066
v -0.243738 0.936010 -0.409913
v -0.214125 0.948365 -0.387955
v 0.214532 0.928983 -0.483578
v 0.244532 0.905094 -0.464857
v 0.214913 0.888045 -0.495158
v 0.214913 0.948383 -0.387923
v 0.244532 0.936010 -0.409913
v 0.214532 0.959675 -0.429032
v -0.213738 0.707112 -0.358781
v -0.243738 0.735532 -0.369449
v -0.214125 0.718465 -0.399782
v -0.214125 0.778802 -0.292548
v -0.243738 0.766447 -0.314506
v -0.213738 0.737803 -0.304236
v 0.214913 0.718483 -0.399750
v 0.244532 0.735532 -0.369449
v 0.214532 0.707130 -0.358749
v 0.214913 0.778820 -0.292516
v 0.214532 0.737822 -0.304202
v 0.244532 0.766447 -0.314506
v -0.000559 0.707425 -0.419402
v -0.000559 0.696097 -0.378358
v -0.000559 0.876988 -0.514810
v -0.000559 0.917950 -0.503188
v -0.000559 0.937325 -0.407575
v -0.000559 0.948654 -0.448619
v -0.000559 0.767763 -0.312168
v -0.000559 0.726800 -0.323790
v -0.122148 0.921674 -0.496569
v -0.122148 0.880709 -0.508197
v -0.122148 0.730518 -0.317182
v -0.122148 0.771484 -0.305554
v -0.122148 0.699821 -0.371739
v -0.122148 0.711146 -0.412789
v -0.122148 0.952371 -0.442012
v -0.122148 0.941046 -0.400962
v 0.121964 0.952371 -0.442013
v 0.121964 0.941045 -0.400964
v 0.121964 0.699820 -0.371741
v 0.121964 0.711145 -0.412791
v 0.121964 0.921673 -0.496571
v 0.121964 0.880708 -0.508198
v 0.121964 0.730517 -0.317184
v 0.121964 0.771483 -0.305556
vn 0.0002 0.4904 0.8715
vn 0.1114 0.4873 0.8661
vn 0.1589 -0.4841 -0.8604
vn 0.1105 -0.4874 -0.8662
vn -0.0000 0.8715 -0.4904
vn -0.1114 -0.4873 -0.8661
vn -0.1602 -0.4840 -0.8603
vn -0.0000 -0.8715 0.4904
vn 0.1602 0.4840 0.8603
vn 1.0000 -0.0000 -0.0000
vn -0.1105 0.4874 0.8662
vn -0.0002 -0.4904 -0.8715
vn -1.0000 -0.0000 -0.0000
vn -0.1589 0.4841 0.8604
vn -0.6352 0.2157 -0.7416
vn -0.5116 0.8298 0.2231
vn 0.6348 0.2158 -0.7419
vn 0.5121 0.8294 0.2231
vn -0.6352 -0.7458 -0.2005
vn -0.5116 -0.2400 0.8250
vn 0.6348 -0.7461 -0.2007
vn 0.5121 -0.2399 0.8247
vn -0.1136 0.2714 -0.9557
vn -0.0805 0.2722 -0.9589
vn -0.0770 0.2722 -0.9591
vn -0.7071 0.6163 -0.3467
vn -0.0799 0.9609 0.2651
vn -0.1127 0.9579 0.2642
vn -0.0764 0.9612 0.2652
vn 0.7071 0.6163 -0.3467
vn 0.7612 -0.3180 -0.5652
vn 0.6485 0.3733 0.6634
vn 0.7071 -0.6163 0.3467
vn 0.1127 -0.9579 -0.2642
vn 0.0799 -0.9609 -0.2651
vn 0.0764 -0.9612 -0.2652
vn 0.0805 -0.2722 0.9589
vn 0.1136 -0.2714 0.9558
vn 0.0770 -0.2722 0.9591
vn -0.7071 -0.6163 0.3467
vn -0.7616 -0.3178 -0.5647
vn -0.6480 0.3735 0.6638
vn -0.0770 -0.9611 -0.2652
vn -0.0002 -0.9640 -0.2660
vn -0.0805 -0.9609 -0.2651
vn 0.0764 0.2722 -0.9592
vn -0.0002 0.2730 -0.9620
vn 0.0799 0.2722 -0.9589
vn 0.0002 0.9640 0.2660
vn 0.0770 0.9611 0.2652
vn 0.0805 0.9609 0.2651
vn 0.0002 -0.2730 0.9620
vn -0.0764 -0.2722 0.9592
vn -0.0799 -0.2722 0.9589
vn -0.1136 -0.9578 -0.2642
vn -0.1136 -0.9578 -0.2641
vn 0.1136 0.9578 0.2642
vn 0.1136 0.9578 0.2641
vn 0.0002 0.9640 0.2661
vn -0.0002 -0.9640 -0.2661
vn 0.1127 0.2714 -0.9558
vn -0.1127 -0.2714 0.9559
vn -0.1127 -0.2714 0.9558
vn 0.1136 -0.2714 0.9557
vt 0.845538 0.623353
vt 0.654462 0.692039
vt 0.654462 0.634079
vt 0.154462 0.514407
vt 0.345538 0.562823
vt 0.154463 0.559440
vt 0.563608 0.129249
vt 0.436404 0.190607
vt 0.436392 0.131214
vt 0.345537 0.687823
vt 0.154462 0.734076
vt 0.154462 0.684440
vt 0.563608 0.633512
vt 0.436405 0.689455
vt 0.436392 0.628909
vt 0.845537 0.686677
vt 0.654462 0.735816
vt 0.563596 0.189625
vt 0.436417 0.235419
vt 0.436417 0.515879
vt 0.563596 0.566756
vt 0.436404 0.564455
vt 0.564046 0.279462
vt 0.435954 0.470538
vt 0.435954 0.279462
vt 0.654462 0.567039
vt 0.654463 0.634079
vt 0.154462 0.559440
vt 0.345538 0.625645
vt 0.154462 0.618881
vt 0.564046 0.779463
vt 0.435954 0.970538
vt 0.435954 0.779462
vt 0.436405 0.065607
vt 0.563595 0.691756
vt 0.436418 0.735165
vt 0.845538 0.514973
vt 0.654463 0.567040
vt 0.654462 0.516131
vt 0.345538 0.687823
vt 0.154462 0.684440
vt 0.154463 0.750000
vt 0.125000 0.736293
vt 0.553692 1.000000
vt 0.564046 0.970538
vt 0.615237 0.970538
vt 0.125000 0.512141
vt 0.154462 0.500000
vt 0.615312 0.279462
vt 0.553771 0.250000
vt 0.435954 0.750000
vt 0.375000 0.734984
vt 0.625000 0.736085
vt 0.564046 0.750000
vt 0.563582 0.735633
vt 0.375000 0.515307
vt 0.435954 0.500000
vt 0.625000 0.516400
vt 0.563583 0.516342
vt 0.564046 0.500000
vt 0.125000 0.686516
vt 0.426528 1.000000
vt 0.845538 0.561677
vt 0.875000 0.517249
vt 0.875000 0.560850
vt 0.563583 0.235221
vt 0.345538 0.500000
vt 0.345538 0.515138
vt 0.625000 0.279462
vt 0.564046 0.470538
vt 0.345538 0.734814
vt 0.625000 0.970538
vt 0.625000 0.779462
vt 0.125000 0.616941
vt 0.125000 0.558919
vt 0.875000 0.684858
vt 0.563596 0.566756
vt 0.125000 0.618858
vt 0.875000 0.731651
vt 0.845538 0.734646
vt 0.875000 0.561775
vt 0.875000 0.621699
vt 0.345537 0.562823
vt 0.125000 0.556639
vt 0.436418 0.016143
vt 0.563595 0.064625
vt 0.436405 0.065607
vt 0.845537 0.561677
vt 0.345538 0.625645
vt 0.625000 0.470538
vt 0.345538 0.750000
vt 0.125000 0.683919
vt 0.875000 0.685850
vt 0.563582 0.015943
s 1
f 101/122/45 108/123/46 103/124/45
f 81/125/47 116/126/48 118/127/48
f 102/128/49 117/129/49 100/130/49
f 110/131/50 73/132/51 106/133/50
f 104/134/52 109/135/52 98/136/52
f 112/137/46 88/138/53 108/123/46
f 113/139/49 79/140/49 117/129/49
f 93/141/52 119/142/52 115/143/52
f 83/144/54 92/145/54 80/146/54
f 115/143/52 104/134/52 98/136/52
f 120/147/55 101/122/45 103/148/45
f 118/149/48 97/150/56 99/151/56
f 89/152/57 74/153/57 86/154/57
f 105/155/49 102/128/49 100/130/49
f 107/156/52 85/157/52 109/135/52
f 82/158/58 120/159/55 94/160/58
f 99/151/56 110/161/50 106/162/50
f 73/132/59 74/163/59 75/164/59
f 76/165/60 77/166/60 78/167/60
f 79/168/61 80/169/61 81/125/61
f 82/170/62 83/144/62 84/171/62
f 85/157/63 86/172/63 87/173/63
f 88/174/64 89/175/64 90/176/64
f 91/177/65 92/178/65 93/141/65
f 94/179/66 95/180/66 96/181/66
f 73/132/67 105/182/68 106/133/69
f 74/153/70 76/165/70 75/183/70
f 114/184/71 84/185/72 113/186/73
f 80/146/74 84/187/74 83/144/74
f 81/125/75 92/188/75 91/189/75
f 82/190/76 96/191/76 83/144/76
f 95/180/77 92/145/77 96/191/77
f 91/189/78 115/143/79 116/126/80
f 108/123/81 90/176/82 107/156/83
f 86/154/84 90/176/84 89/152/84
f 87/192/85 74/163/85 73/132/85
f 78/193/86 89/152/86 88/194/86
f 110/161/87 98/136/88 109/135/89
f 118/149/90 100/195/91 117/196/92
f 101/122/93 111/197/94 112/137/95
f 103/148/96 119/198/97 120/147/98
f 106/162/69 100/199/91 99/151/91
f 103/124/96 107/156/83 104/134/96
f 87/192/99 109/135/89 85/157/100
f 112/137/95 76/200/101 78/201/102
f 101/122/93 113/202/73 102/203/103
f 116/204/80 98/136/88 97/150/104
f 81/125/105 117/205/92 79/168/105
f 120/159/98 95/180/106 94/160/107
f 75/206/49 111/207/49 105/208/49
f 101/122/45 112/137/46 108/123/46
f 81/125/47 91/189/47 116/126/48
f 102/128/49 113/139/49 117/129/49
f 110/131/50 87/192/51 73/132/51
f 104/134/52 107/156/52 109/135/52
f 112/137/46 78/201/53 88/138/53
f 113/139/49 84/187/49 79/140/49
f 93/141/52 95/180/52 119/142/52
f 83/144/54 96/191/54 92/145/54
f 115/143/52 119/198/52 104/134/52
f 120/147/55 114/209/55 101/122/45
f 118/149/48 116/204/48 97/150/56
f 89/152/57 77/166/57 74/153/57
f 105/155/49 111/207/49 102/128/49
f 107/156/52 90/176/52 85/157/52
f 82/158/58 114/184/55 120/159/55
f 99/151/56 97/210/56 110/161/50
f 73/132/67 75/164/67 105/182/68
f 74/153/70 77/166/70 76/165/70
f 114/184/71 82/158/72 84/185/72
f 80/146/74 79/140/74 84/187/74
f 81/125/75 80/169/75 92/188/75
f 82/190/76 94/211/76 96/191/76
f 95/180/77 93/141/77 92/145/77
f 91/189/78 93/141/78 115/143/79
f 108/123/81 88/138/108 90/176/82
f 86/154/84 85/157/84 90/176/84
f 87/192/85 86/212/85 74/163/85
f 78/193/86 77/166/86 89/152/86
f 110/161/87 97/210/104 98/136/88
f 118/149/90 99/151/91 100/195/91
f 101/122/93 102/203/103 111/197/94
f 103/148/96 104/134/96 119/198/97
f 106/162/69 105/213/68 100/199/91
f 103/124/96 108/123/81 107/156/83
f 87/192/99 110/131/87 109/135/89
f 112/137/95 111/214/94 76/200/101
f 101/122/93 114/209/71 113/202/73
f 116/204/80 115/143/79 98/136/88
f 81/125/105 118/127/90 117/205/92
f 120/159/98 119/142/97 95/180/106
f 75/206/49 76/215/49 111/207/49
o chair_leg.002
v -0.177165 0.046121 -0.215735
v -0.148485 0.444605 -0.267752
v -0.154120 0.047568 -0.206731
v -0.118694 0.447062 -0.252468
v -0.144574 0.051062 -0.184994
v -0.106354 0.452993 -0.215570
v -0.154120 0.054556 -0.163258
v -0.118694 0.458924 -0.178673
v -0.177165 0.056004 -0.154254
v -0.148485 0.461381 -0.163389
v -0.200210 0.054556 -0.163258
v -0.178275 0.458924 -0.178673
v -0.209755 0.051062 -0.184994
v -0.190615 0.452993 -0.215570
v -0.200210 0.047568 -0.206731
v -0.178275 0.447062 -0.252468
v 0.177959 0.046121 -0.215735
v 0.149279 0.444605 -0.267752
v 0.154914 0.047568 -0.206731
v 0.119488 0.447062 -0.252468
v 0.145369 0.051062 -0.184994
v 0.107148 0.452993 -0.215570
v 0.154914 0.054556 -0.163258
v 0.119488 0.458924 -0.178673
v 0.177959 0.056004 -0.154254
v 0.149279 0.461381 -0.163389
v 0.201004 0.054556 -0.163258
v 0.179070 0.458924 -0.178673
v 0.210550 0.051062 -0.184994
v 0.191409 0.452993 -0.215570
v 0.201004 0.047568 -0.206731
v 0.179070 0.447062 -0.252468
v -0.177165 0.112026 0.194252
v -0.148485 0.506737 0.118764
v -0.154120 0.110579 0.185248
v -0.118694 0.504280 0.103480
v -0.144574 0.107084 0.163512
v -0.106354 0.498349 0.066582
v -0.154120 0.103590 0.141775
v -0.118694 0.492417 0.029685
v -0.177165 0.102143 0.132771
v -0.148485 0.489961 0.014401
v -0.200210 0.103590 0.141775
v -0.178275 0.492417 0.029685
v -0.209755 0.107084 0.163512
v -0.190615 0.498349 0.066582
v -0.200210 0.110579 0.185248
v -0.178275 0.504280 0.103480
v 0.177959 0.112026 0.194252
v 0.149279 0.506737 0.118764
v 0.154914 0.110579 0.185248
v 0.119488 0.504280 0.103480
v 0.145369 0.107084 0.163512
v 0.107148 0.498349 0.066582
v 0.154914 0.103590 0.141775
v 0.119488 0.492417 0.029685
v 0.177959 0.102143 0.132771
v 0.149279 0.489961 0.014401
v 0.201004 0.103590 0.141775
v 0.179070 0.492417 0.029685
v 0.210550 0.107084 0.163512
v 0.191409 0.498349 0.066582
v 0.201004 0.110579 0.185248
v 0.179070 0.504280 0.103480
vn 0.3680 -0.1463 -0.9183
vn 0.9157 -0.1249 -0.3820
vn 0.9109 -0.0555 0.4089
vn 0.3637 -0.0047 0.9315
vn -0.3664 0.0553 0.9288
vn -0.9174 0.0734 0.3911
vn -0.0000 0.9873 -0.1587
vn -0.9153 0.0042 -0.4026
vn -0.3672 -0.0859 -0.9262
vn -0.0000 -0.9873 0.1587
vn -0.3680 -0.1463 -0.9183
vn -0.9157 -0.1249 -0.3820
vn -0.9109 -0.0555 0.4089
vn -0.4561 -0.0060 0.8899
vn 0.4593 0.0525 0.8868
vn 0.9495 0.0632 0.3074
vn 0.9472 0.0208 -0.3201
vn 0.3672 -0.0859 -0.9262
vn 0.3680 0.1488 0.9179
vn 0.9157 0.0011 0.4019
vn 0.9109 -0.1809 -0.3709
vn 0.4561 -0.2846 -0.8432
vn -0.4593 -0.2281 -0.8585
vn -0.9495 -0.0363 -0.3117
vn -0.9472 0.1200 0.2975
vn -0.3672 0.2087 0.9064
vn -0.3680 0.1488 0.9179
vn -0.9157 0.0011 0.4019
vn -0.9109 -0.1809 -0.3709
vn -0.3637 -0.2964 -0.8831
vn 0.3664 -0.2386 -0.8994
vn 0.9174 -0.0528 -0.3944
vn 0.9153 0.1301 0.3811
vn 0.3672 0.2087 0.9064
vn 0.4611 -0.1412 -0.8761
vn 0.9476 -0.1128 -0.2988
vn 0.9426 -0.0701 0.3265
vn 0.4561 -0.0060 0.8899
vn -0.4593 0.0525 0.8868
vn -0.9495 0.0632 0.3074
vn -0.9472 0.0208 -0.3201
vn -0.4603 -0.0823 -0.8840
vn -0.4611 -0.1412 -0.8761
vn -0.9476 -0.1128 -0.2988
vn -0.9426 -0.0701 0.3265
vn -0.3637 -0.0047 0.9315
vn 0.3664 0.0553 0.9288
vn 0.9174 0.0734 0.3911
vn 0.9153 0.0042 -0.4026
vn 0.4603 -0.0823 -0.8840
vn 0.4611 0.1405 0.8762
vn 0.9476 -0.0135 0.3191
vn 0.9426 -0.1689 -0.2881
vn 0.3637 -0.2964 -0.8831
vn -0.3664 -0.2386 -0.8994
vn -0.9174 -0.0528 -0.3944
vn -0.9153 0.1301 0.3811
vn -0.4603 0.1989 0.8652
vn -0.4611 0.1405 0.8762
vn -0.9476 -0.0135 0.3191
vn -0.9426 -0.1689 -0.2881
vn -0.4561 -0.2846 -0.8432
vn 0.4593 -0.2281 -0.8585
vn 0.9495 -0.0363 -0.3117
vn 0.9472 0.1200 0.2975
vn 0.4603 0.1989 0.8652
vt 1.000000 1.000000
vt 0.875000 0.500000
vt 1.000000 0.500000
vt 0.875000 1.000000
vt 0.750000 0.500000
vt 0.750000 1.000000
vt 0.625000 0.500000
vt 0.500000 1.000000
vt 0.500000 0.500000
vt 0.375000 1.000000
vt 0.375000 0.500000
vt 0.250000 1.000000
vt 0.250000 0.500000
vt 0.010000 0.250000
vt 0.250000 0.010000
vt 0.490000 0.250000
vt 0.125000 1.000000
vt 0.125000 0.500000
vt 0.000000 0.500000
vt 0.919706 0.080294
vt 0.580294 0.080294
vt 0.580294 0.419706
vt 0.625000 1.000000
vt 0.250000 0.490000
vt 0.919706 0.419706
vt 0.419706 0.419706
vt 0.080294 0.419706
vt 0.080294 0.080294
vt 0.419706 0.080294
vt 0.000000 1.000000
vt 0.750000 0.490000
vt 0.990000 0.250000
vt 0.750000 0.010000
vt 0.510000 0.250000
s 0
f 122/216/109 123/217/109 121/218/109
f 124/219/110 125/220/110 123/217/110
f 126/221/111 127/222/111 125/220/111
f 127/222/112 130/223/112 129/224/112
f 129/224/113 132/225/113 131/226/113
f 131/226/114 134/227/114 133/228/114
f 134/229/115 130/230/115 126/231/115
f 133/228/116 136/232/116 135/233/116
f 136/232/117 121/234/117 135/233/117
f 127/235/118 131/236/118 135/237/118
f 139/217/119 138/216/119 137/218/119
f 141/220/120 140/219/120 139/217/120
f 143/222/121 142/221/121 141/220/121
f 143/222/122 146/223/122 144/238/122
f 145/224/123 148/225/123 146/223/123
f 147/226/124 150/227/124 148/225/124
f 146/230/115 150/229/115 138/239/115
f 149/228/125 152/232/125 150/227/125
f 137/234/126 152/232/126 151/233/126
f 147/236/118 143/235/118 139/240/118
f 155/217/127 154/216/127 153/218/127
f 157/220/128 156/219/128 155/217/128
f 159/222/129 158/221/129 157/220/129
f 159/222/130 162/223/130 160/238/130
f 161/224/131 164/225/131 162/223/131
f 163/226/132 166/227/132 164/225/132
f 162/230/115 166/229/115 154/239/115
f 165/228/133 168/232/133 166/227/133
f 153/234/134 168/232/134 167/233/134
f 163/236/118 159/235/118 155/240/118
f 170/216/135 171/217/135 169/218/135
f 172/219/136 173/220/136 171/217/136
f 174/221/137 175/222/137 173/220/137
f 175/222/138 178/223/138 177/224/138
f 177/224/139 180/225/139 179/226/139
f 179/226/140 182/227/140 181/228/140
f 182/229/115 178/230/115 174/231/115
f 181/228/141 184/232/141 183/233/141
f 184/232/142 169/234/142 183/233/142
f 175/235/118 179/236/118 183/237/118
f 122/216/143 124/219/143 123/217/143
f 124/219/144 126/221/144 125/220/144
f 126/221/145 128/238/145 127/222/145
f 127/222/146 128/238/146 130/223/146
f 129/224/147 130/223/147 132/225/147
f 131/226/148 132/225/148 134/227/148
f 126/231/115 124/241/115 122/239/115
f 122/239/115 136/242/115 134/229/115
f 134/229/115 132/243/115 130/230/115
f 130/230/115 128/244/115 126/231/115
f 126/231/115 122/239/115 134/229/115
f 133/228/149 134/227/149 136/232/149
f 136/232/150 122/245/150 121/234/150
f 135/237/118 121/246/118 123/240/118
f 123/240/118 125/247/118 127/235/118
f 127/235/118 129/248/118 131/236/118
f 131/236/118 133/249/118 135/237/118
f 135/237/118 123/240/118 127/235/118
f 139/217/151 140/219/151 138/216/151
f 141/220/152 142/221/152 140/219/152
f 143/222/153 144/238/153 142/221/153
f 143/222/154 145/224/154 146/223/154
f 145/224/155 147/226/155 148/225/155
f 147/226/156 149/228/156 150/227/156
f 138/239/115 140/241/115 142/231/115
f 142/231/115 144/244/115 146/230/115
f 146/230/115 148/243/115 150/229/115
f 150/229/115 152/242/115 138/239/115
f 138/239/115 142/231/115 146/230/115
f 149/228/157 151/233/157 152/232/157
f 137/234/158 138/245/158 152/232/158
f 139/240/118 137/246/118 151/237/118
f 151/237/118 149/249/118 147/236/118
f 147/236/118 145/248/118 143/235/118
f 143/235/118 141/247/118 139/240/118
f 139/240/118 151/237/118 147/236/118
f 155/217/159 156/219/159 154/216/159
f 157/220/160 158/221/160 156/219/160
f 159/222/161 160/238/161 158/221/161
f 159/222/162 161/224/162 162/223/162
f 161/224/163 163/226/163 164/225/163
f 163/226/164 165/228/164 166/227/164
f 154/239/115 156/241/115 158/231/115
f 158/231/115 160/244/115 162/230/115
f 162/230/115 164/243/115 166/229/115
f 166/229/115 168/242/115 154/239/115
f 154/239/115 158/231/115 162/230/115
f 165/228/165 167/233/165 168/232/165
f 153/234/166 154/245/166 168/232/166
f 155/240/118 153/246/118 167/237/118
f 167/237/118 165/249/118 163/236/118
f 163/236/118 161/248/118 159/235/118
f 159/235/118 157/247/118 155/240/118
f 155/240/118 167/237/118 163/236/118
f 170/216/167 172/219/167 171/217/167
f 172/219/168 174/221/168 173/220/168
f 174/221/169 176/238/169 175/222/169
f 175/222/170 176/238/170 178/223/170
f 177/224/171 178/223/171 180/225/171
f 179/226/172 180/225/172 182/227/172
f 174/231/115 172/241/115 170/239/115
f 170/239/115 184/242/115 182/229/115
f 182/229/115 180/243/115 178/230/115
f 178/230/115 176/244/115 174/231/115
f 174/231/115 170/239/115 182/229/115
f 181/228/173 182/227/173 184/232/173
f 184/232/174 170/245/174 169/234/174
f 183/237/118 169/246/118 171/240/118
f 171/240/118 173/247/118 175/235/118
f 175/235/118 177/248/118 179/236/118
f 179/236/118 181/249/118 183/237/118
f 183/237/118 171/240/118 175/235/118
o chair_leg
v -0.225788 0.130244 -0.467361
v -0.131350 0.130244 -0.467361
v -0.131350 0.181499 -0.440859
v -0.225788 0.181499 -0.440859
v -0.225788 0.022472 -0.257931
v -0.131350 0.022472 -0.257931
v -0.131350 0.077614 -0.240938
v -0.225788 0.077614 -0.240938
v -0.225788 0.000335 -0.076449
v -0.131350 0.000335 -0.076449
v -0.131350 0.058012 -0.078123
v -0.225788 0.058012 -0.078123
v -0.225788 0.032949 0.105041
v -0.131350 0.032949 0.105041
v -0.131350 0.088315 0.088791
v -0.225788 0.088315 0.088791
v -0.225788 0.093209 0.251109
v -0.131350 0.093209 0.251109
v -0.131350 0.146526 0.229049
v -0.225788 0.146526 0.229049
v 0.226582 0.130244 -0.467361
v 0.132144 0.130244 -0.467361
v 0.132144 0.181499 -0.440859
v 0.226582 0.181499 -0.440859
v 0.226582 0.022472 -0.257931
v 0.132144 0.022472 -0.257931
v 0.132144 0.077614 -0.240938
v 0.226582 0.077614 -0.240938
v 0.226582 0.000335 -0.076449
v 0.132144 0.000335 -0.076449
v 0.132144 0.058012 -0.078123
v 0.226582 0.058012 -0.078123
v 0.226582 0.032949 0.105041
v 0.132144 0.032949 0.105041
v 0.132144 0.088315 0.088791
v 0.226582 0.088315 0.088791
v 0.226582 0.093209 0.251109
v 0.132144 0.093209 0.251109
v 0.132144 0.146526 0.229049
v 0.226582 0.146526 0.229049
vn -1.0000 -0.0000 -0.0000
vn 1.0000 -0.0000 -0.0000
vn -0.0000 0.8874 0.4611
vn -0.0000 0.9928 0.1195
vn -0.0000 -0.9926 -0.1211
vn -0.0000 0.9839 -0.1786
vn -0.0000 -0.8892 -0.4576
vn -0.0000 -0.9244 0.3814
vn -0.0000 -0.9842 0.1769
vn -0.0000 0.9236 -0.3833
vn -0.0000 0.3823 0.9240
vn -0.0000 0.4593 -0.8883
vt 0.000000 1.000000
vt 0.250000 0.933333
vt 0.000000 0.933333
vt 0.250000 0.866667
vt 0.000000 0.800000
vt 0.000000 0.866667
vt 0.500000 1.000000
vt 0.250000 1.000000
vt 0.500000 0.800000
vt 0.250000 0.800000
vt 0.500000 0.866667
vt 0.750000 1.000000
vt 0.500000 0.933333
vt 0.500000 0.000000
vt 0.750000 0.800000
vt 0.750000 0.933333
vt 1.000000 1.000000
vt 0.250000 0.000000
vt 1.000000 0.000000
vt 1.000000 0.800000
vt 0.750000 0.000000
vt 0.750000 0.866667
vt 1.000000 0.933333
vt 0.000000 0.000000
vt 1.000000 0.866667
s 0
f 185/250/175 192/251/175 188/252/175
f 191/253/176 186/254/176 187/255/176
f 192/251/177 187/255/177 188/252/177
f 193/256/175 192/251/175 189/257/175
f 191/253/176 194/258/176 190/259/176
f 192/251/178 195/260/178 191/253/178
f 197/261/175 196/262/175 193/256/175
f 193/263/179 190/259/179 194/258/179
f 195/260/176 198/264/176 194/258/176
f 200/265/180 195/260/180 196/262/180
f 201/266/175 200/265/175 197/261/175
f 189/267/181 186/254/181 190/259/181
f 201/268/182 198/264/182 202/269/182
f 197/270/183 194/258/183 198/264/183
f 199/271/176 202/269/176 198/264/176
f 204/272/184 199/271/184 200/265/184
f 204/273/185 201/273/185 202/273/185
f 204/273/185 202/273/185 203/273/185
f 187/273/186 186/273/186 185/273/186
f 187/273/186 185/273/186 188/273/186
f 205/250/176 212/251/176 209/257/176
f 206/254/175 211/253/175 207/255/175
f 207/255/177 212/251/177 208/252/177
f 212/251/176 213/256/176 209/257/176
f 211/253/175 214/258/175 215/260/175
f 212/251/178 215/260/178 216/262/178
f 216/262/176 217/261/176 213/256/176
f 210/259/179 213/263/179 214/258/179
f 215/260/175 218/264/175 219/271/175
f 215/260/180 220/265/180 216/262/180
f 220/265/176 221/266/176 217/261/176
f 206/254/181 209/267/181 210/259/181
f 218/264/182 221/268/182 222/269/182
f 214/258/183 217/270/183 218/264/183
f 219/271/175 222/269/175 223/274/175
f 219/271/184 224/272/184 220/265/184
f 224/273/185 222/273/185 221/273/185
f 224/273/185 223/273/185 222/273/185
f 207/273/186 205/273/186 206/273/186
f 207/273/186 208/273/186 205/273/186
f 185/250/175 189/257/175 192/251/175
f 191/253/176 190/259/176 186/254/176
f 192/251/177 191/253/177 187/255/177
f 193/256/175 196/262/175 192/251/175
f 191/253/176 195/260/176 194/258/176
f 192/251/178 196/262/178 195/260/178
f 197/261/175 200/265/175 196/262/175
f 193/263/179 189/267/179 190/259/179
f 195/260/176 199/271/176 198/264/176
f 200/265/180 199/271/180 195/260/180
f 201/266/175 204/272/175 200/265/175
f 189/267/181 185/273/181 186/254/181
f 201/268/182 197/270/182 198/264/182
f 197/270/183 193/263/183 194/258/183
f 199/271/176 203/274/176 202/269/176
f 204/272/184 203/274/184 199/271/184
f 205/250/176 208/252/176 212/251/176
f 206/254/175 210/259/175 211/253/175
f 207/255/177 211/253/177 212/251/177
f 212/251/176 216/262/176 213/256/176
f 211/253/175 210/259/175 214/258/175
f 212/251/178 211/253/178 215/260/178
f 216/262/176 220/265/176 217/261/176
f 210/259/179 209/267/179 213/263/179
f 215/260/175 214/258/175 218/264/175
f 215/260/180 219/271/180 220/265/180
f 220/265/176 224/272/176 221/266/176
f 206/254/181 205/273/181 209/267/181
f 218/264/182 217/270/182 221/268/182
f 214/258/183 213/263/183 217/270/183
f 219/271/175 218/264/175 222/269/175
f 219/271/184 223/274/184 224/272/184
o chair_top_arms.004
v -0.141513 0.609546 -0.308261
v 0.159048 0.604484 -0.308505
v -0.141513 0.597030 -0.293973
v 0.159048 0.591968 -0.294217
v -0.141513 0.598283 -0.275019
v 0.159048 0.593221 -0.275263
v -0.141513 0.612572 -0.262503
v 0.159048 0.607509 -0.262747
v -0.141513 0.631525 -0.263756
v 0.159048 0.626463 -0.264000
v -0.141513 0.644042 -0.278044
v 0.159048 0.638979 -0.278288
v -0.141513 0.642789 -0.296998
v 0.159048 0.637726 -0.297242
v -0.141513 0.628500 -0.309514
v 0.159048 0.623438 -0.309758
vn -0.0132 -0.7521 -0.6589
vn -0.0168 -0.9977 0.0660
vn -0.0105 -0.6589 0.7522
vn 0.0019 0.0660 0.9978
vn 0.0132 0.7521 0.6589
vn 0.0168 0.9977 -0.0660
vn 1.0000 -0.0000 -0.0000
vn 0.0105 0.6589 -0.7522
vn -0.0019 -0.0660 -0.9978
vn -1.0000 -0.0000 -0.0000
vt 1.000000 1.000000
vt 0.875000 0.500000
vt 1.000000 0.500000
vt 0.750000 1.000000
vt 0.750000 0.500000
vt 0.625000 1.000000
vt 0.625000 0.500000
vt 0.500000 1.000000
vt 0.500000 0.500000
vt 0.375000 1.000000
vt 0.375000 0.500000
vt 0.250000 0.500000
vt 0.010000 0.250000
vt 0.250000 0.010000
vt 0.490000 0.250000
vt 0.250000 1.000000
vt 0.125000 0.500000
vt 0.125000 1.000000
vt 0.000000 0.500000
vt 0.919706 0.080294
vt 0.580294 0.080294
vt 0.580294 0.419706
vt 0.875000 1.000000
vt 0.419706 0.419706
vt 0.250000 0.490000
vt 0.080294 0.419706
vt 0.080294 0.080294
vt 0.419706 0.080294
vt 0.000000 1.000000
vt 0.750000 0.490000
vt 0.919706 0.419706
vt 0.990000 0.250000
vt 0.750000 0.010000
vt 0.510000 0.250000
s 0
f 226/275/187 227/276/187 225/277/187
f 227/276/188 230/278/188 229/279/188
f 229/279/189 232/280/189 231/281/189
f 231/281/190 234/282/190 233/283/190
f 233/283/191 236/284/191 235/285/191
f 236/284/192 237/286/192 235/285/192
f 238/287/193 234/288/193 230/289/193
f 238/290/194 239/291/194 237/286/194
f 240/292/195 225/293/195 239/291/195
f 231/294/196 235/295/196 239/296/196
f 226/275/187 228/297/187 227/276/187
f 227/276/188 228/297/188 230/278/188
f 229/279/189 230/278/189 232/280/189
f 231/281/190 232/280/190 234/282/190
f 233/283/191 234/282/191 236/284/191
f 236/284/192 238/290/192 237/286/192
f 230/289/193 228/298/193 226/299/193
f 226/299/193 240/300/193 238/287/193
f 238/287/193 236/301/193 234/288/193
f 234/288/193 232/302/193 230/289/193
f 230/289/193 226/299/193 238/287/193
f 238/290/194 240/292/194 239/291/194
f 240/292/195 226/303/195 225/293/195
f 239/296/196 225/304/196 227/305/196
f 227/305/196 229/306/196 231/294/196
f 231/294/196 233/307/196 235/295/196
f 235/295/196 237/308/196 239/296/196
f 239/296/196 227/305/196 231/294/196
