# Blender 4.5.14 LTS
# www.blender.org
mtllib ammo_box_9mm.mtl
o ammo_box_9mm
v -0.042500 0.000000 0.029000 0.7960 0.7960 0.7960
v -0.042500 0.032000 -0.029000 0.9921 0.9921 0.9921
v -0.042500 0.032000 0.029000 0.9921 0.9921 0.9921
v 0.042500 0.000000 -0.029000 0.8000 0.8000 0.8000
v 0.042500 0.032000 -0.029000 0.9960 0.9960 0.9960
v 0.042500 0.032000 0.029000 0.9960 0.9960 0.9960
v -0.042500 0.000000 -0.029000 0.8000 0.8000 0.8000
v 0.042500 0.000000 0.029000 0.8000 0.8000 0.8000
v -0.041000 0.032000 0.027500 0.7020 0.7020 0.7020
v 0.041000 0.001500 0.027500 0.7020 0.7020 0.7020
v 0.041000 0.032000 -0.027500 0.7020 0.7020 0.7020
v -0.041000 0.001500 -0.027500 0.7020 0.7020 0.7020
v 0.041000 0.001500 -0.027500 0.7020 0.7020 0.7020
v -0.041000 0.032000 -0.027500 0.7020 0.7020 0.7020
v -0.041000 0.001500 0.027500 0.7020 0.7020 0.7020
v 0.041000 0.032000 0.027500 0.7020 0.7020 0.7020
v -0.041000 0.019440 0.027500 0.7020 0.7020 0.7020
v 0.041000 0.019440 0.027500 0.7020 0.7020 0.7020
v -0.041000 0.020240 0.027500 0.7020 0.7020 0.7020
v -0.041000 0.019440 -0.027500 0.7098 0.7098 0.7098
v -0.041000 0.020240 -0.027500 0.7020 0.7020 0.7020
v 0.041000 0.019440 -0.027500 0.7059 0.7059 0.7059
v 0.041000 0.020240 -0.027500 0.7020 0.7020 0.7020
v 0.041000 0.020240 0.027500 0.7020 0.7020 0.7020
vn -0.0000 -0.0000 1.0000
vn -0.0000 -0.0000 -1.0000
vn -1.0000 -0.0000 -0.0000
vn 1.0000 -0.0000 -0.0000
vn -0.0000 -1.0000 -0.0000
vn -0.0000 1.0000 -0.0000
vt 0.906738 0.891113
vt 0.976074 0.891113
vt 0.976074 0.905762
vt 0.906738 0.905762
vt 0.125488 0.859863
vt 0.155762 0.859863
vt 0.155762 0.874512
vt 0.125488 0.874512
vt 0.172363 0.875488
vt 0.218262 0.875488
vt 0.218262 0.905762
vt 0.172363 0.905762
vt 0.344238 0.865312
vt 0.358887 0.865312
vt 0.358887 0.859863
vt 0.344238 0.859863
vt 0.344238 0.867987
vt 0.358887 0.867987
vt 0.344238 0.869688
vt 0.358887 0.869688
vt 0.358887 0.860006
vt 0.344238 0.860006
vt 0.358887 0.860076
vt 0.344238 0.860076
vt 0.766113 0.961426
vt 0.843262 0.961426
vt 0.843262 0.999512
vt 0.766113 0.999512
s 0
usemtl props
f 1/1/1 8/2/1 6/3/1 3/4/1
f 4/1/2 7/2/2 2/3/2 5/4/2
f 7/5/3 1/6/3 3/7/3 2/8/3
f 8/5/4 4/6/4 5/7/4 6/8/4
f 7/9/5 4/10/5 8/11/5 1/12/5
f 15/13/1 10/14/1 16/15/1 9/16/1
f 13/13/2 12/14/2 14/15/2 11/16/2
f 12/17/3 15/18/3 9/15/3 14/16/3
f 10/17/4 13/18/4 11/15/4 16/16/4
f 12/19/5 13/20/5 10/15/5 15/16/5
f 17/16/1 18/15/1 24/21/1 19/22/1
f 22/16/2 20/15/2 21/21/2 23/22/2
f 20/16/3 17/15/3 19/23/3 21/24/3
f 18/16/4 22/15/4 23/23/4 24/24/4
f 19/25/6 24/26/6 23/27/6 21/28/6
f 20/16/5 22/15/5 18/20/5 17/19/5
o ammo_box_9mm_lid
v 0.042500 0.032000 -0.029000 0.9019 0.9019 0.9019
v -0.042500 0.032000 -0.029000 0.9019 0.9019 0.9019
v -0.042500 0.032000 0.029000 0.9019 0.9019 0.9019
v -0.042500 0.033500 -0.029000 1.0000 1.0000 1.0000
v 0.042500 0.033500 0.029000 1.0000 1.0000 1.0000
v -0.042500 0.033500 0.029000 1.0000 1.0000 1.0000
v 0.042500 0.033500 -0.029000 1.0000 1.0000 1.0000
v 0.042500 0.032000 0.029000 0.8980 0.8980 0.8980
v 0.040250 0.017600 0.027350 0.7059 0.7059 0.7059
v -0.040250 0.032000 0.025850 0.7137 0.7137 0.7137
v 0.040250 0.032000 0.025850 0.7098 0.7098 0.7098
v -0.040250 0.017600 0.025850 0.7255 0.7255 0.7255
v -0.040250 0.017600 0.027350 0.7059 0.7059 0.7059
v -0.040250 0.032000 0.027350 0.7020 0.7020 0.7020
v 0.040250 0.032000 0.027350 0.7020 0.7020 0.7020
v 0.040250 0.017600 0.025850 0.7216 0.7216 0.7216
vn -0.0000 -0.0000 1.0000
vn -0.0000 -0.0000 -1.0000
vn -1.0000 -0.0000 -0.0000
vn 1.0000 -0.0000 -0.0000
vn -0.0000 1.0000 -0.0000
vn -0.0000 -1.0000 -0.0000
vt 0.344238 0.859863
vt 0.358887 0.859863
vt 0.358887 0.860122
vt 0.344238 0.860122
vt 0.358887 0.860242
vt 0.344238 0.860242
vt 0.633301 0.953613
vt 0.702637 0.953613
vt 0.702637 0.999512
vt 0.633301 0.999512
vt 0.358887 0.869859
vt 0.344238 0.869859
vt 0.358887 0.862484
vt 0.344238 0.862484
vt 0.345062 0.859863
vt 0.345062 0.867773
vt 0.344238 0.867773
vt 0.358887 0.860136
vt 0.344238 0.860136
s 0
usemtl props
f 27/29/7 32/30/7 29/31/7 30/32/7
f 25/29/8 26/30/8 28/31/8 31/32/8
f 26/29/9 27/30/9 30/33/9 28/34/9
f 32/29/10 25/30/10 31/33/10 29/34/10
f 30/35/11 29/36/11 31/37/11 28/38/11
f 26/29/12 25/30/12 32/39/12 27/40/12
f 37/29/7 33/30/7 39/41/7 38/42/7
f 40/29/8 36/30/8 34/41/8 35/42/8
f 36/29/9 37/43/9 38/44/9 34/45/9
f 33/29/10 40/43/10 35/44/10 39/45/10
f 38/29/11 39/30/11 35/46/11 34/47/11
f 36/29/12 40/30/12 33/46/12 37/47/12
