# Blender 4.5.14 LTS
# www.blender.org
mtllib ammo_box_12ga.mtl
o ammo_box_12ga
v -0.060000 0.000000 0.032500 0.7960 0.7960 0.7960
v -0.060000 0.070000 -0.032500 1.0000 1.0000 1.0000
v -0.060000 0.070000 0.032500 1.0000 1.0000 1.0000
v 0.060000 0.000000 -0.032500 0.8000 0.8000 0.8000
v 0.060000 0.070000 -0.032500 1.0000 1.0000 1.0000
v 0.060000 0.070000 0.032500 1.0000 1.0000 1.0000
v -0.060000 0.000000 -0.032500 0.8000 0.8000 0.8000
v 0.060000 0.000000 0.032500 0.8000 0.8000 0.8000
v -0.058500 0.070000 0.031000 0.7020 0.7020 0.7020
v 0.058500 0.001500 0.031000 0.7020 0.7020 0.7020
v 0.058500 0.070000 -0.031000 0.7020 0.7020 0.7020
v -0.058500 0.001500 -0.031000 0.7020 0.7020 0.7020
v 0.058500 0.001500 -0.031000 0.7020 0.7020 0.7020
v -0.058500 0.070000 -0.031000 0.7020 0.7020 0.7020
v -0.058500 0.001500 0.031000 0.7020 0.7020 0.7020
v 0.058500 0.070000 0.031000 0.7020 0.7020 0.7020
v -0.058500 0.043000 0.031000 0.7020 0.7020 0.7020
v 0.058500 0.043000 0.031000 0.7020 0.7020 0.7020
v -0.058500 0.043800 0.031000 0.7020 0.7020 0.7020
v -0.058500 0.043000 -0.031000 0.7216 0.7216 0.7216
v -0.058500 0.043800 -0.031000 0.7098 0.7098 0.7098
v 0.058500 0.043000 -0.031000 0.7176 0.7176 0.7176
v 0.058500 0.043800 -0.031000 0.7098 0.7098 0.7098
v 0.058500 0.043800 0.031000 0.7020 0.7020 0.7020
vn -0.0000 -0.0000 1.0000
vn -0.0000 -0.0000 -1.0000
vn -1.0000 -0.0000 -0.0000
vn 1.0000 -0.0000 -0.0000
vn -0.0000 -1.0000 -0.0000
vn -0.0000 1.0000 -0.0000
vt 0.836426 0.891113
vt 0.905762 0.891113
vt 0.905762 0.905762
vt 0.836426 0.905762
vt 0.094238 0.859863
vt 0.124512 0.859863
vt 0.124512 0.874512
vt 0.094238 0.874512
vt 0.125488 0.875488
vt 0.171387 0.875488
vt 0.171387 0.905762
vt 0.125488 0.905762
vt 0.344238 0.868439
vt 0.358887 0.868439
vt 0.358887 0.859863
vt 0.344238 0.859863
vt 0.344238 0.874512
vt 0.357497 0.874512
vt 0.357497 0.859863
vt 0.344238 0.867626
vt 0.358887 0.867626
vt 0.358887 0.859963
vt 0.344238 0.859963
vt 0.358887 0.860052
vt 0.344238 0.860052
vt 0.484863 0.953613
vt 0.562012 0.953613
vt 0.562012 0.999512
vt 0.484863 0.999512
s 0
usemtl props
f 1/1/1 8/2/1 6/3/1 3/4/1
f 4/1/2 7/2/2 2/3/2 5/4/2
f 7/5/3 1/6/3 3/7/3 2/8/3
f 8/5/4 4/6/4 5/7/4 6/8/4
f 7/9/5 4/10/5 8/11/5 1/12/5
f 15/13/1 10/14/1 16/15/1 9/16/1
f 13/13/2 12/14/2 14/15/2 11/16/2
f 12/17/3 15/18/3 9/19/3 14/16/3
f 10/17/4 13/18/4 11/19/4 16/16/4
f 12/20/5 13/21/5 10/15/5 15/16/5
f 17/16/1 18/15/1 24/22/1 19/23/1
f 22/16/2 20/15/2 21/22/2 23/23/2
f 20/16/3 17/15/3 19/24/3 21/25/3
f 18/16/4 22/15/4 23/24/4 24/25/4
f 19/26/6 24/27/6 23/28/6 21/29/6
f 20/16/5 22/15/5 18/21/5 17/20/5
o ammo_box_12ga_lid
v 0.060000 0.070000 -0.032500 0.9019 0.9019 0.9019
v -0.060000 0.070000 -0.032500 0.9019 0.9019 0.9019
v -0.060000 0.070000 0.032500 0.9019 0.9019 0.9019
v -0.060000 0.071500 -0.032500 1.0000 1.0000 1.0000
v 0.060000 0.071500 0.032500 1.0000 1.0000 1.0000
v -0.060000 0.071500 0.032500 1.0000 1.0000 1.0000
v 0.060000 0.071500 -0.032500 1.0000 1.0000 1.0000
v 0.060000 0.070000 0.032500 0.9019 0.9019 0.9019
v 0.057750 0.038500 0.030850 0.7137 0.7137 0.7137
v -0.057750 0.070000 0.029350 0.7176 0.7176 0.7176
v 0.057750 0.070000 0.029350 0.7176 0.7176 0.7176
v -0.057750 0.038500 0.029350 0.7412 0.7412 0.7412
v -0.057750 0.038500 0.030850 0.7137 0.7137 0.7137
v -0.057750 0.070000 0.030850 0.7020 0.7020 0.7020
v 0.057750 0.070000 0.030850 0.7020 0.7020 0.7020
v 0.057750 0.038500 0.029350 0.7412 0.7412 0.7412
vn -0.0000 -0.0000 1.0000
vn -0.0000 -0.0000 -1.0000
vn -1.0000 -0.0000 -0.0000
vn 1.0000 -0.0000 -0.0000
vn -0.0000 1.0000 -0.0000
vn -0.0000 -1.0000 -0.0000
vt 0.344238 0.859863
vt 0.358887 0.859863
vt 0.358887 0.860046
vt 0.344238 0.860046
vt 0.358887 0.860201
vt 0.344238 0.860201
vt 0.562988 0.953613
vt 0.632324 0.953613
vt 0.632324 0.999512
vt 0.562988 0.999512
vt 0.358887 0.867798
vt 0.344238 0.867798
vt 0.358887 0.863858
vt 0.344238 0.863858
vt 0.344936 0.859863
vt 0.344936 0.874512
vt 0.344238 0.874512
vt 0.358887 0.860054
vt 0.344238 0.860054
s 0
usemtl props
f 27/30/7 32/31/7 29/32/7 30/33/7
f 25/30/8 26/31/8 28/32/8 31/33/8
f 26/30/9 27/31/9 30/34/9 28/35/9
f 32/30/10 25/31/10 31/34/10 29/35/10
f 30/36/11 29/37/11 31/38/11 28/39/11
f 26/30/12 25/31/12 32/40/12 27/41/12
f 37/30/7 33/31/7 39/42/7 38/43/7
f 40/30/8 36/31/8 34/42/8 35/43/8
f 36/30/9 37/44/9 38/45/9 34/46/9
f 33/30/10 40/44/10 35/45/10 39/46/10
f 38/30/11 39/31/11 35/47/11 34/48/11
f 36/30/12 40/31/12 33/47/12 37/48/12
