# Blender 4.5.14 LTS
# www.blender.org
mtllib battery_aa_pack.mtl
o battery_aa_pack
v -0.037500 0.000000 -0.055000 0.7960 0.7960 0.7960
v -0.037500 0.001000 -0.055000 0.8980 0.8980 0.8980
v 0.037500 0.001000 -0.055000 0.9019 0.9019 0.9019
v -0.037500 0.000000 0.055000 0.7960 0.7960 0.7960
v -0.037500 0.001000 0.055000 0.8862 0.8862 0.8862
v 0.037500 0.000000 -0.055000 0.8000 0.8000 0.8000
v 0.037500 0.001000 0.055000 0.8902 0.8902 0.8902
v 0.037500 0.000000 0.055000 0.7960 0.7960 0.7960
v -0.017550 0.012950 0.050000 0.9294 0.9294 0.9294
v -0.017550 0.012950 -0.000000 0.9255 0.9255 0.9255
v -0.022500 0.015000 0.050000 0.9607 0.9607 0.9607
v -0.022500 0.015000 -0.000000 0.9647 0.9647 0.9647
v -0.027450 0.012950 0.050000 0.9490 0.9490 0.9490
v -0.029500 0.008000 -0.000000 0.8706 0.8706 0.8706
v -0.029500 0.008000 0.050000 0.8706 0.8706 0.8706
v -0.027450 0.003050 0.000000 0.7921 0.7921 0.7921
v -0.022500 0.001000 0.000000 0.7490 0.7490 0.7490
v -0.015500 0.008000 0.000000 0.7843 0.7843 0.7843
v -0.017550 0.003050 0.050000 0.7686 0.7686 0.7686
v -0.015500 0.008000 0.050000 0.7804 0.7804 0.7804
v -0.027450 0.003050 0.050000 0.7921 0.7921 0.7921
v -0.022500 0.001000 0.050000 0.7490 0.7490 0.7490
v -0.017550 0.003050 0.000000 0.7647 0.7647 0.7647
v -0.027450 0.012950 -0.000000 0.9490 0.9490 0.9490
v -0.000500 0.008000 0.000000 0.7843 0.7843 0.7843
v -0.002550 0.012950 -0.000000 0.9255 0.9255 0.9255
v -0.002550 0.012950 0.050000 0.9294 0.9294 0.9294
v -0.007500 0.015000 0.050000 0.9568 0.9568 0.9568
v -0.007500 0.015000 -0.000000 0.9647 0.9647 0.9647
v -0.012450 0.012950 -0.000000 0.9255 0.9255 0.9255
v -0.014500 0.008000 -0.000000 0.7804 0.7804 0.7804
v -0.012450 0.012950 0.050000 0.9255 0.9255 0.9255
v -0.014500 0.008000 0.050000 0.7764 0.7764 0.7764
v -0.007500 0.001000 0.050000 0.7490 0.7490 0.7490
v -0.002550 0.003050 0.000000 0.7647 0.7647 0.7647
v -0.000500 0.008000 0.050000 0.7804 0.7804 0.7804
v -0.012450 0.003050 0.050000 0.7686 0.7686 0.7686
v -0.002550 0.003050 0.050000 0.7686 0.7686 0.7686
v -0.007500 0.001000 0.000000 0.7490 0.7490 0.7490
v -0.012450 0.003050 0.000000 0.7686 0.7686 0.7686
v 0.014500 0.008000 0.000000 0.7882 0.7882 0.7882
v 0.014500 0.008000 0.050000 0.7804 0.7804 0.7804
v 0.012450 0.012950 -0.000000 0.9255 0.9255 0.9255
v 0.007500 0.015000 0.050000 0.9568 0.9568 0.9568
v 0.012450 0.012950 0.050000 0.9294 0.9294 0.9294
v 0.007500 0.015000 -0.000000 0.9647 0.9647 0.9647
v 0.002550 0.012950 -0.000000 0.9255 0.9255 0.9255
v 0.007500 0.001000 0.000000 0.7490 0.7490 0.7490
v 0.002550 0.003050 0.050000 0.7686 0.7686 0.7686
v 0.012450 0.003050 0.050000 0.7686 0.7686 0.7686
v 0.002550 0.012950 0.050000 0.9255 0.9255 0.9255
v 0.000500 0.008000 0.050000 0.7764 0.7764 0.7764
v 0.007500 0.001000 0.050000 0.7490 0.7490 0.7490
v 0.012450 0.003050 0.000000 0.7686 0.7686 0.7686
v 0.002550 0.003050 0.000000 0.7686 0.7686 0.7686
v 0.000500 0.008000 -0.000000 0.7804 0.7804 0.7804
v 0.029500 0.008000 0.000000 0.8784 0.8784 0.8784
v 0.027450 0.012950 -0.000000 0.9411 0.9411 0.9411
v 0.022500 0.015000 -0.000000 0.9647 0.9647 0.9647
v 0.022500 0.015000 0.050000 0.9647 0.9647 0.9647
v 0.015500 0.008000 0.050000 0.7764 0.7764 0.7764
v 0.015500 0.008000 -0.000000 0.7843 0.7843 0.7843
v 0.022500 0.001000 0.000000 0.7490 0.7490 0.7490
v 0.022500 0.001000 0.050000 0.7490 0.7490 0.7490
v 0.027450 0.003050 0.050000 0.7921 0.7921 0.7921
v 0.027450 0.003050 0.000000 0.7921 0.7921 0.7921
v 0.029500 0.008000 0.050000 0.8706 0.8706 0.8706
v 0.027450 0.012950 0.050000 0.9451 0.9451 0.9451
v 0.017550 0.012950 0.050000 0.9255 0.9255 0.9255
v 0.017550 0.003050 0.050000 0.7686 0.7686 0.7686
v 0.017550 0.003050 0.000000 0.7686 0.7686 0.7686
v 0.017550 0.012950 -0.000000 0.9255 0.9255 0.9255
vn -0.0000 -0.0000 1.0000
vn -0.0000 -0.0000 -1.0000
vn -1.0000 -0.0000 -0.0000
vn 1.0000 -0.0000 -0.0000
vn -0.0000 1.0000 -0.0000
vn -0.0000 -1.0000 -0.0000
vn 0.7071 0.7071 -0.0000
vn -0.7071 0.7071 -0.0000
vn -0.7071 -0.7071 -0.0000
vn 0.7071 -0.7071 -0.0000
vt 0.484863 0.859863
vt 0.499512 0.859863
vt 0.499512 0.860059
vt 0.484863 0.860059
vt 0.499512 0.859996
vt 0.484863 0.859996
vt 0.062988 0.930176
vt 0.108887 0.930176
vt 0.108887 0.999512
vt 0.062988 0.999512
vt 0.766113 0.875488
vt 0.788574 0.875488
vt 0.788574 0.905762
vt 0.766113 0.905762
vt 0.062988 0.859863
vt 0.066772 0.859863
vt 0.066772 0.874512
vt 0.062988 0.874512
vt 0.070557 0.859863
vt 0.070557 0.874512
vt 0.074341 0.859863
vt 0.074341 0.874512
vt 0.078125 0.859863
vt 0.078125 0.874512
vt 0.081909 0.859863
vt 0.081909 0.874512
vt 0.085693 0.859863
vt 0.085693 0.874512
vt 0.089478 0.859863
vt 0.089478 0.874512
vt 0.093262 0.859863
vt 0.093262 0.874512
vt 0.702637 0.890625
vt 0.698203 0.901328
vt 0.687500 0.905762
vt 0.676797 0.901328
vt 0.672363 0.890625
vt 0.676797 0.879922
vt 0.687500 0.875488
vt 0.698203 0.879922
s 0
usemtl props
f 4/1/1 8/2/1 7/3/1 5/4/1
f 6/1/2 1/2/2 2/3/2 3/4/2
f 1/1/3 4/2/3 5/5/3 2/6/3
f 8/1/4 6/2/4 3/5/4 7/6/4
f 5/7/5 7/8/5 3/9/5 2/10/5
f 1/11/6 6/12/6 8/13/6 4/14/6
s 1
f 18/15/4 10/16/7 9/17/7 20/18/4
f 10/16/7 12/19/5 11/20/5 9/17/7
f 12/19/5 24/21/8 13/22/8 11/20/5
f 24/21/8 14/23/3 15/24/3 13/22/8
f 14/23/3 16/25/9 21/26/9 15/24/3
f 16/25/9 17/27/6 22/28/6 21/26/9
f 17/27/6 23/29/10 19/30/10 22/28/6
f 23/29/10 18/31/4 20/32/4 19/30/10
s 0
f 20/33/1 9/34/1 11/35/1 13/36/1 15/37/1 21/38/1 22/39/1 19/40/1
f 23/34/2 17/35/2 16/36/2 14/37/2 24/38/2 12/39/2 10/40/2 18/33/2
s 1
f 25/15/4 26/16/7 27/17/7 36/18/4
f 26/16/7 29/19/5 28/20/5 27/17/7
f 29/19/5 30/21/8 32/22/8 28/20/5
f 30/21/8 31/23/3 33/24/3 32/22/8
f 31/23/3 40/25/9 37/26/9 33/24/3
f 40/25/9 39/27/6 34/28/6 37/26/9
f 39/27/6 35/29/10 38/30/10 34/28/6
f 35/29/10 25/31/4 36/32/4 38/30/10
s 0
f 36/33/1 27/34/1 28/35/1 32/36/1 33/37/1 37/38/1 34/39/1 38/40/1
f 35/34/2 39/35/2 40/36/2 31/37/2 30/38/2 29/39/2 26/40/2 25/33/2
s 1
f 41/15/4 43/16/7 45/17/7 42/18/4
f 43/16/7 46/19/5 44/20/5 45/17/7
f 46/19/5 47/21/8 51/22/8 44/20/5
f 47/21/8 56/23/3 52/24/3 51/22/8
f 56/23/3 55/25/9 49/26/9 52/24/3
f 55/25/9 48/27/6 53/28/6 49/26/9
f 48/27/6 54/29/10 50/30/10 53/28/6
f 54/29/10 41/31/4 42/32/4 50/30/10
s 0
f 42/33/1 45/34/1 44/35/1 51/36/1 52/37/1 49/38/1 53/39/1 50/40/1
f 54/34/2 48/35/2 55/36/2 56/37/2 47/38/2 46/39/2 43/40/2 41/33/2
s 1
f 57/15/4 58/16/7 68/17/7 67/18/4
f 58/16/7 59/19/5 60/20/5 68/17/7
f 59/19/5 72/21/8 69/22/8 60/20/5
f 72/21/8 62/23/3 61/24/3 69/22/8
f 62/23/3 71/25/9 70/26/9 61/24/3
f 71/25/9 63/27/6 64/28/6 70/26/9
f 63/27/6 66/29/10 65/30/10 64/28/6
f 66/29/10 57/31/4 67/32/4 65/30/10
s 0
f 67/33/1 68/34/1 60/35/1 69/36/1 61/37/1 70/38/1 64/39/1 65/40/1
f 66/34/2 63/35/2 71/36/2 62/37/2 72/38/2 59/39/2 58/40/2 57/33/2
