# Blender 4.5.14 LTS
# www.blender.org
mtllib coin_gold.mtl
o coin_gold
v 0.007794 0.000000 -0.009773 0.8000 0.8000 0.8000
v -0.002782 0.002200 -0.012187 0.9058 0.9058 0.9058
v -0.011262 0.000000 -0.005424 0.7960 0.7960 0.7960
v -0.012500 0.002200 -0.000000 0.9058 0.9058 0.9058
v -0.002782 0.000000 0.012187 0.7960 0.7960 0.7960
v -0.002782 0.002200 0.012187 0.9058 0.9058 0.9058
v 0.002782 0.002200 0.012187 0.9058 0.9058 0.9058
v 0.007794 0.000000 0.009773 0.8000 0.8000 0.8000
v 0.011262 0.000000 0.005424 0.8000 0.8000 0.8000
v 0.011262 0.002200 0.005424 0.9058 0.9058 0.9058
v 0.007794 0.002200 0.009773 0.9058 0.9058 0.9058
v 0.012500 0.000000 0.000000 0.7960 0.7960 0.7960
v 0.012500 0.002200 0.000000 0.9019 0.9019 0.9019
v 0.011262 0.002200 -0.005424 0.9058 0.9058 0.9058
v 0.007794 0.002200 -0.009773 0.9058 0.9058 0.9058
v 0.002782 0.002200 -0.012187 0.9058 0.9058 0.9058
v -0.007794 0.002200 -0.009773 0.9019 0.9019 0.9019
v -0.011262 0.002200 -0.005424 0.9019 0.9019 0.9019
v -0.011262 0.002200 0.005424 0.9019 0.9019 0.9019
v -0.007794 0.002200 0.009773 0.9058 0.9058 0.9058
v 0.002782 0.000000 0.012187 0.7960 0.7960 0.7960
v -0.007794 0.000000 0.009773 0.7960 0.7960 0.7960
v -0.011262 0.000000 0.005424 0.7960 0.7960 0.7960
v -0.012500 0.000000 -0.000000 0.7960 0.7960 0.7960
v -0.007794 0.000000 -0.009773 0.8000 0.8000 0.8000
v -0.002782 0.000000 -0.012187 0.8000 0.8000 0.8000
v 0.002782 0.000000 -0.012187 0.8000 0.8000 0.8000
v 0.011262 0.000000 -0.005424 0.8000 0.8000 0.8000
vn 1.0000 -0.0000 -0.0000
vn 0.9010 -0.0000 -0.4339
vn 0.6235 -0.0000 -0.7818
vn 0.2225 -0.0000 -0.9749
vn -0.2225 -0.0000 -0.9749
vn -0.6235 -0.0000 -0.7818
vn -0.9010 -0.0000 -0.4339
vn -1.0000 -0.0000 -0.0000
vn -0.9010 -0.0000 0.4339
vn -0.6235 -0.0000 0.7818
vn -0.2225 -0.0000 0.9749
vn 0.2225 -0.0000 0.9749
vn 0.6235 -0.0000 0.7818
vn 0.9010 -0.0000 0.4339
vn -0.0000 1.0000 -0.0000
vn -0.0000 -1.0000 -0.0000
vt 0.500488 0.867676
vt 0.502651 0.867676
vt 0.502651 0.874512
vt 0.500488 0.874512
vt 0.504813 0.867676
vt 0.504813 0.874512
vt 0.506975 0.867676
vt 0.506975 0.874512
vt 0.509138 0.867676
vt 0.509138 0.874512
vt 0.511300 0.867676
vt 0.511300 0.874512
vt 0.513463 0.867676
vt 0.513463 0.874512
vt 0.515625 0.867676
vt 0.515625 0.874512
vt 0.517787 0.867676
vt 0.517787 0.874512
vt 0.519950 0.867676
vt 0.519950 0.874512
vt 0.522112 0.867676
vt 0.522112 0.874512
vt 0.524275 0.867676
vt 0.524275 0.874512
vt 0.526437 0.867676
vt 0.526437 0.874512
vt 0.528599 0.867676
vt 0.528599 0.874512
vt 0.530762 0.867676
vt 0.530762 0.874512
vt 0.421387 0.890625
vt 0.419888 0.897361
vt 0.415688 0.902764
vt 0.409618 0.905762
vt 0.402882 0.905762
vt 0.396812 0.902764
vt 0.392612 0.897361
vt 0.391113 0.890625
vt 0.392612 0.883889
vt 0.396812 0.878486
vt 0.402882 0.875488
vt 0.409618 0.875488
vt 0.415688 0.878486
vt 0.419888 0.883889
s 1
usemtl props
f 12/1/1 28/2/2 14/3/2 13/4/1
f 28/2/2 1/5/3 15/6/3 14/3/2
f 1/5/3 27/7/4 16/8/4 15/6/3
f 27/7/4 26/9/5 2/10/5 16/8/4
f 26/9/5 25/11/6 17/12/6 2/10/5
f 25/11/6 3/13/7 18/14/7 17/12/6
f 3/13/7 24/15/8 4/16/8 18/14/7
f 24/15/8 23/17/9 19/18/9 4/16/8
f 23/17/9 22/19/10 20/20/10 19/18/9
f 22/19/10 5/21/11 6/22/11 20/20/10
f 5/21/11 21/23/12 7/24/12 6/22/11
f 21/23/12 8/25/13 11/26/13 7/24/12
f 8/25/13 9/27/14 10/28/14 11/26/13
f 9/27/14 12/29/1 13/30/1 10/28/14
s 0
f 13/31/15 14/32/15 15/33/15 16/34/15 2/35/15 17/36/15 18/37/15 4/38/15 19/39/15 20/40/15 6/41/15 7/42/15 11/43/15 10/44/15
f 9/32/16 8/33/16 21/34/16 5/35/16 22/36/16 23/37/16 24/38/16 3/39/16 25/40/16 26/41/16 27/42/16 1/43/16 28/44/16 12/31/16
