# Blender 4.5.14 LTS
# www.blender.org
mtllib diary_leather.mtl
o diary_leather
v 0.075000 0.004000 0.105000 0.8666 0.8666 0.8666
v -0.075000 0.000000 -0.105000 0.7960 0.7960 0.7960
v -0.075000 0.004000 -0.105000 0.8470 0.8470 0.8470
v -0.075000 0.000000 0.105000 0.7960 0.7960 0.7960
v -0.075000 0.004000 0.105000 0.8470 0.8470 0.8470
v 0.075000 0.000000 -0.105000 0.8000 0.8000 0.8000
v 0.075000 0.004000 -0.105000 0.8706 0.8706 0.8706
v 0.075000 0.000000 0.105000 0.7960 0.7960 0.7960
v -0.068000 0.004000 -0.100000 0.7882 0.7882 0.7882
v -0.068000 0.028000 0.100000 0.7412 0.7412 0.7412
v -0.068000 0.028000 -0.100000 0.7412 0.7412 0.7412
v 0.074000 0.004000 0.100000 0.8000 0.8000 0.8000
v 0.074000 0.028000 0.100000 0.7882 0.7882 0.7882
v 0.074000 0.028000 -0.100000 0.7843 0.7843 0.7843
v 0.074000 0.004000 -0.100000 0.8039 0.8039 0.8039
v -0.068000 0.004000 0.100000 0.7843 0.7843 0.7843
v -0.075000 0.010000 0.105000 0.7059 0.7059 0.7059
v -0.077296 0.010457 -0.105000 0.7255 0.7255 0.7255
v -0.075000 0.010000 -0.105000 0.7059 0.7059 0.7059
v -0.077296 0.010457 0.105000 0.7255 0.7255 0.7255
v -0.079243 0.011757 0.105000 0.7647 0.7647 0.7647
v -0.079243 0.011757 -0.105000 0.7647 0.7647 0.7647
v -0.080543 0.013704 0.105000 0.8157 0.8157 0.8157
v -0.081000 0.016000 0.105000 0.8706 0.8706 0.8706
v -0.080543 0.013704 -0.105000 0.8157 0.8157 0.8157
v -0.081000 0.016000 -0.105000 0.8706 0.8706 0.8706
v -0.080543 0.018296 0.105000 0.9294 0.9294 0.9294
v -0.079243 0.020243 0.105000 0.9529 0.9529 0.9529
v -0.080543 0.018296 -0.105000 0.9294 0.9294 0.9294
v -0.077296 0.021543 -0.105000 0.9451 0.9451 0.9451
v -0.079243 0.020243 -0.105000 0.9568 0.9568 0.9568
v -0.077296 0.021543 0.105000 0.9451 0.9451 0.9451
v -0.075000 0.022000 0.105000 0.9058 0.9058 0.9058
v -0.075000 0.022000 -0.105000 0.9098 0.9098 0.9098
v 0.017000 0.000000 0.130000 0.7843 0.7843 0.7843
v 0.023000 0.000000 0.130000 0.7882 0.7882 0.7882
v 0.023000 0.001000 0.120000 0.8117 0.8117 0.8117
v 0.017000 0.001000 0.120000 0.8117 0.8117 0.8117
v 0.023000 0.000000 0.120000 0.7412 0.7412 0.7412
v 0.017000 0.001000 0.130000 0.8666 0.8666 0.8666
v 0.023000 0.001000 0.130000 0.8706 0.8706 0.8706
v 0.017000 0.000000 0.120000 0.7412 0.7412 0.7412
vn -0.0000 -0.0000 1.0000
vn -0.0000 -0.0000 -1.0000
vn -1.0000 -0.0000 -0.0000
vn 1.0000 -0.0000 -0.0000
vn -0.0000 1.0000 -0.0000
vn -0.0000 -1.0000 -0.0000
vn -0.1951 -0.9808 -0.0000
vn -0.3827 -0.9239 -0.0000
vn -0.7071 -0.7071 -0.0000
vn -0.9239 -0.3827 -0.0000
vn -0.9239 0.3827 -0.0000
vn -0.7071 0.7071 -0.0000
vn -0.3827 0.9239 -0.0000
vn -0.1951 0.9808 -0.0000
vt 0.547363 0.875488
vt 0.577637 0.875488
vt 0.577637 0.876296
vt 0.547363 0.876296
vt 0.577637 0.876065
vt 0.547363 0.876065
vt 0.568987 0.875488
vt 0.568987 0.905762
vt 0.547363 0.905762
vt 0.250488 0.859863
vt 0.280762 0.859863
vt 0.280762 0.864815
vt 0.250488 0.864815
vt 0.280762 0.863379
vt 0.250488 0.863379
vt 0.359863 0.937988
vt 0.405762 0.937988
vt 0.405762 0.999512
vt 0.359863 0.999512
vt 0.609863 0.875488
vt 0.631357 0.875488
vt 0.631357 0.905762
vt 0.609863 0.905762
vt 0.551147 0.875488
vt 0.551147 0.905762
vt 0.554932 0.875488
vt 0.554932 0.905762
vt 0.558716 0.875488
vt 0.558716 0.905762
vt 0.562500 0.875488
vt 0.562500 0.905762
vt 0.566284 0.875488
vt 0.566284 0.905762
vt 0.570068 0.875488
vt 0.570068 0.905762
vt 0.573853 0.875488
vt 0.573853 0.905762
vt 0.577637 0.905762
vt 0.406738 0.859863
vt 0.408936 0.859863
vt 0.408936 0.860229
vt 0.406738 0.860229
vt 0.410400 0.859863
vt 0.410400 0.860229
vt 0.408936 0.863525
vt 0.406738 0.863525
s 0
usemtl props
f 4/1/1 8/2/1 1/3/1 5/4/1
f 6/1/2 2/2/2 3/3/2 7/4/2
f 2/1/3 4/2/3 5/5/3 3/6/3
f 8/1/4 6/2/4 7/5/4 1/6/4
f 5/1/5 1/7/5 7/8/5 3/9/5
f 2/1/6 6/7/6 8/8/6 4/9/6
f 16/10/1 12/11/1 13/12/1 10/13/1
f 15/10/2 9/11/2 11/12/2 14/13/2
f 9/10/3 16/11/3 10/14/3 11/15/3
f 12/10/4 15/11/4 14/14/4 13/15/4
f 10/16/5 13/17/5 14/18/5 11/19/5
f 9/20/6 15/21/6 12/22/6 16/23/6
s 1
f 17/1/7 20/24/8 18/25/8 19/9/7
f 20/24/8 21/26/9 22/27/9 18/25/8
f 21/26/9 23/28/10 25/29/10 22/27/9
f 23/28/10 24/30/3 26/31/3 25/29/10
f 24/30/3 27/32/11 29/33/11 26/31/3
f 27/32/11 28/34/12 31/35/12 29/33/11
f 28/34/12 32/36/13 30/37/13 31/35/12
f 32/36/13 33/2/14 34/38/14 30/37/13
s 0
f 35/39/1 36/40/1 41/41/1 40/42/1
f 39/39/2 42/40/2 38/41/2 37/42/2
f 42/39/3 35/43/3 40/44/3 38/42/3
f 36/39/4 39/43/4 37/44/4 41/42/4
f 40/39/5 41/40/5 37/45/5 38/46/5
f 42/39/6 39/40/6 36/45/6 35/46/6
o diary_leather_cover
v 0.075000 0.028000 -0.105000 0.8353 0.8353 0.8353
v -0.075000 0.028000 -0.105000 0.8392 0.8392 0.8392
v -0.075000 0.032000 0.105000 0.9333 0.9333 0.9333
v -0.075000 0.032000 -0.105000 0.9333 0.9333 0.9333
v 0.075000 0.032000 -0.105000 0.9333 0.9333 0.9333
v 0.075000 0.032000 0.105000 0.9333 0.9333 0.9333
v 0.075000 0.028000 0.105000 0.8353 0.8353 0.8353
v -0.075000 0.028000 0.105000 0.8353 0.8353 0.8353
v 0.061000 0.028000 0.015000 0.7059 0.7059 0.7059
v 0.061000 0.034000 0.015000 0.8980 0.8980 0.8980
v 0.061000 0.034000 -0.015000 0.8980 0.8980 0.8980
v 0.081000 0.028000 -0.015000 0.8157 0.8157 0.8157
v 0.081000 0.034000 -0.015000 0.9333 0.9333 0.9333
v 0.081000 0.034000 0.015000 0.9294 0.9294 0.9294
v 0.061000 0.028000 -0.015000 0.7098 0.7098 0.7098
v 0.081000 0.028000 0.015000 0.8157 0.8157 0.8157
v 0.056000 0.035500 -0.009000 0.9019 0.9019 0.9019
v 0.070000 0.032500 0.009000 0.7020 0.7020 0.7020
v 0.070000 0.032500 -0.009000 0.7020 0.7020 0.7020
v 0.070000 0.035500 0.009000 0.9058 0.9058 0.9058
v 0.056000 0.035500 0.009000 0.8980 0.8980 0.8980
v 0.070000 0.035500 -0.009000 0.9098 0.9098 0.9098
v 0.056000 0.032500 -0.009000 0.7960 0.7960 0.7960
v 0.056000 0.032500 0.009000 0.7960 0.7960 0.7960
vn -0.0000 -0.0000 1.0000
vn -0.0000 -0.0000 -1.0000
vn -1.0000 -0.0000 -0.0000
vn 1.0000 -0.0000 -0.0000
vn -0.0000 1.0000 -0.0000
vn -0.0000 -1.0000 -0.0000
vt 0.547363 0.875488
vt 0.577637 0.875488
vt 0.577637 0.876296
vt 0.547363 0.876296
vt 0.577637 0.876065
vt 0.547363 0.876065
vt 0.266113 0.937988
vt 0.312012 0.937988
vt 0.312012 0.999512
vt 0.266113 0.999512
vt 0.312988 0.937988
vt 0.358887 0.937988
vt 0.358887 0.999512
vt 0.312988 0.999512
vt 0.554932 0.875488
vt 0.554932 0.877759
vt 0.547363 0.877759
vt 0.558716 0.875488
vt 0.558716 0.877759
vt 0.554932 0.886841
vt 0.547363 0.886841
vt 0.297363 0.875488
vt 0.302661 0.875488
vt 0.302661 0.876624
vt 0.297363 0.876624
vt 0.304175 0.875488
vt 0.304175 0.876624
vt 0.302661 0.882300
vt 0.297363 0.882300
s 0
usemtl props
f 50/47/15 49/48/15 48/49/15 45/50/15
f 43/47/16 44/48/16 46/49/16 47/50/16
f 44/47/17 50/48/17 45/51/17 46/52/17
f 49/47/18 43/48/18 47/51/18 48/52/18
f 45/53/19 48/54/19 47/55/19 46/56/19
f 44/57/20 43/58/20 49/59/20 50/60/20
f 51/47/15 58/61/15 56/62/15 52/63/15
f 54/47/16 57/61/16 53/62/16 55/63/16
f 57/47/17 51/64/17 52/65/17 53/63/17
f 58/47/18 54/64/18 55/65/18 56/63/18
f 52/47/19 56/61/19 55/66/19 53/67/19
f 57/47/20 54/61/20 58/66/20 51/67/20
f 66/68/15 60/69/15 62/70/15 63/71/15
f 61/68/16 65/69/16 59/70/16 64/71/16
f 65/68/17 66/72/17 63/73/17 59/71/17
f 60/68/18 61/72/18 64/73/18 62/71/18
f 63/68/19 62/69/19 64/74/19 59/75/19
f 65/68/20 61/69/20 60/74/20 66/75/20
