# Blender 4.5.14 LTS
# www.blender.org
mtllib first_aid_box.mtl
o first_aid_box
v 0.100000 0.000000 0.065000 0.8000 0.8000 0.8000
v -0.100000 0.003000 -0.065000 0.8509 0.8509 0.8509
v 0.100000 0.003000 -0.065000 0.8549 0.8549 0.8549
v -0.100000 0.003000 0.065000 0.8470 0.8470 0.8470
v 0.100000 0.003000 0.065000 0.8509 0.8509 0.8509
v -0.100000 0.000000 -0.065000 0.7960 0.7960 0.7960
v -0.100000 0.000000 0.065000 0.7960 0.7960 0.7960
v -0.097000 0.003050 0.062000 0.7216 0.7216 0.7216
v 0.097000 0.003050 0.062000 0.7372 0.7372 0.7372
v 0.097000 0.003050 -0.062000 0.7294 0.7294 0.7294
v -0.097000 0.003050 -0.062000 0.7294 0.7294 0.7294
v 0.100000 0.065000 0.065000 0.8353 0.8353 0.8353
v 0.100000 0.000000 0.062000 0.7529 0.7529 0.7529
v -0.100000 0.065000 0.062000 0.7764 0.7764 0.7764
v -0.100000 0.065000 0.065000 0.8431 0.8431 0.8431
v 0.100000 0.065000 0.062000 0.7647 0.7647 0.7647
v -0.100000 0.000000 0.062000 0.7490 0.7490 0.7490
v -0.100000 0.000000 -0.062000 0.7490 0.7490 0.7490
v -0.100000 0.065000 -0.062000 0.7725 0.7725 0.7725
v 0.100000 0.065000 -0.062000 0.7647 0.7647 0.7647
v 0.100000 0.065000 -0.065000 0.8353 0.8353 0.8353
v -0.100000 0.065000 -0.065000 0.8431 0.8431 0.8431
v 0.100000 0.000000 -0.065000 0.8000 0.8000 0.8000
v -0.097000 0.000000 0.062000 0.7020 0.7020 0.7020
v -0.097000 0.065000 -0.062000 0.7176 0.7176 0.7176
v -0.097000 0.065000 0.062000 0.7137 0.7137 0.7137
v -0.097000 0.000000 -0.062000 0.7020 0.7020 0.7020
v 0.097000 0.000000 0.062000 0.7020 0.7020 0.7020
v 0.100000 0.000000 -0.062000 0.7529 0.7529 0.7529
v 0.097000 0.000000 -0.062000 0.7020 0.7020 0.7020
v 0.097000 0.065000 -0.062000 0.7176 0.7176 0.7176
v 0.097000 0.065000 0.062000 0.7216 0.7216 0.7216
v -0.048000 0.025000 -0.025000 0.7176 0.7176 0.7176
v -0.054444 0.040556 -0.025000 0.7255 0.7255 0.7255
v -0.070000 0.047000 -0.025000 0.7098 0.7098 0.7098
v -0.070000 0.047000 0.025000 0.7098 0.7098 0.7098
v -0.092000 0.025000 0.025000 0.7020 0.7020 0.7020
v -0.085556 0.009444 0.025000 0.7020 0.7020 0.7020
v -0.070000 0.003000 0.025000 0.7020 0.7020 0.7020
v -0.048000 0.025000 0.025000 0.7176 0.7176 0.7176
v -0.054444 0.040556 0.025000 0.7216 0.7216 0.7216
v -0.085556 0.040556 0.025000 0.7020 0.7020 0.7020
v -0.054444 0.009444 0.025000 0.7059 0.7059 0.7059
v -0.054444 0.009444 -0.025000 0.7098 0.7098 0.7098
v -0.070000 0.003000 -0.025000 0.7059 0.7059 0.7059
v -0.085556 0.009444 -0.025000 0.7020 0.7020 0.7020
v -0.092000 0.025000 -0.025000 0.7020 0.7020 0.7020
v -0.085556 0.040556 -0.025000 0.7020 0.7020 0.7020
v -0.006444 0.040556 -0.025000 0.7333 0.7333 0.7333
v -0.006444 0.040556 0.025000 0.7372 0.7372 0.7372
v 0.000000 0.025000 0.025000 0.7490 0.7490 0.7490
v -0.022000 0.047000 -0.025000 0.7137 0.7137 0.7137
v -0.037556 0.040556 0.025000 0.7098 0.7098 0.7098
v -0.022000 0.047000 0.025000 0.7137 0.7137 0.7137
v -0.044000 0.025000 0.025000 0.7020 0.7020 0.7020
v -0.044000 0.025000 -0.025000 0.7020 0.7020 0.7020
v -0.022000 0.003000 0.025000 0.7059 0.7059 0.7059
v -0.037556 0.009444 0.025000 0.7020 0.7020 0.7020
v -0.006444 0.009444 0.025000 0.7020 0.7020 0.7020
v -0.006444 0.009444 -0.025000 0.7216 0.7216 0.7216
v -0.022000 0.003000 -0.025000 0.7020 0.7020 0.7020
v -0.037556 0.009444 -0.025000 0.7020 0.7020 0.7020
v -0.037556 0.040556 -0.025000 0.7059 0.7059 0.7059
v 0.000000 0.025000 -0.025000 0.7412 0.7412 0.7412
v 0.071314 0.003000 -0.031314 0.7020 0.7020 0.7020
v 0.044000 0.003000 -0.020000 0.7255 0.7255 0.7255
v 0.060000 0.003000 -0.020000 0.7020 0.7020 0.7020
v 0.048686 0.003000 -0.008686 0.7255 0.7255 0.7255
v 0.060000 0.003000 -0.004000 0.7098 0.7098 0.7098
v 0.076000 0.003000 -0.020000 0.7059 0.7059 0.7059
v 0.060000 0.003000 -0.036000 0.7059 0.7059 0.7059
v 0.048686 0.003000 -0.031314 0.7137 0.7137 0.7137
v 0.048686 0.048000 -0.031314 0.7333 0.7333 0.7333
v 0.048686 0.048000 -0.008686 0.7451 0.7451 0.7451
v 0.071314 0.003000 -0.008686 0.7059 0.7059 0.7059
v 0.071314 0.048000 -0.008686 0.7059 0.7059 0.7059
v 0.076000 0.048000 -0.020000 0.7059 0.7059 0.7059
v 0.071314 0.048000 -0.031314 0.7020 0.7020 0.7020
v 0.065657 0.058000 -0.025657 0.7020 0.7020 0.7020
v 0.060000 0.048000 -0.036000 0.7059 0.7059 0.7059
v 0.054343 0.058000 -0.025657 0.7294 0.7294 0.7294
v 0.060000 0.058000 -0.028000 0.7098 0.7098 0.7098
v 0.044000 0.048000 -0.020000 0.7608 0.7608 0.7608
v 0.060000 0.048000 -0.004000 0.7216 0.7216 0.7216
v 0.054343 0.058000 -0.014343 0.7568 0.7568 0.7568
v 0.065657 0.058000 -0.014343 0.7137 0.7137 0.7137
v 0.065657 0.063000 -0.025657 0.7020 0.7020 0.7020
v 0.054343 0.063000 -0.025657 0.7176 0.7176 0.7176
v 0.052000 0.058000 -0.020000 0.7568 0.7568 0.7568
v 0.052000 0.063000 -0.020000 0.7333 0.7333 0.7333
v 0.060000 0.058000 -0.012000 0.7372 0.7372 0.7372
v 0.060000 0.063000 -0.012000 0.7255 0.7255 0.7255
v 0.068000 0.058000 -0.020000 0.7059 0.7059 0.7059
v 0.065657 0.063000 -0.014343 0.7098 0.7098 0.7098
v 0.068000 0.063000 -0.020000 0.7059 0.7059 0.7059
v 0.060000 0.063000 -0.028000 0.7059 0.7059 0.7059
v 0.054343 0.063000 -0.014343 0.7412 0.7412 0.7412
v 0.060000 0.063000 -0.020000 0.7020 0.7020 0.7020
v 0.060000 0.003000 0.055000 0.7020 0.7020 0.7020
v -0.060000 0.003000 0.015000 0.7020 0.7020 0.7020
v 0.060000 0.018000 0.015000 0.7255 0.7255 0.7255
v -0.060000 0.018000 0.055000 0.7059 0.7059 0.7059
v 0.060000 0.018000 0.055000 0.7137 0.7137 0.7137
v -0.060000 0.018000 0.015000 0.7020 0.7020 0.7020
v 0.060000 0.003000 0.015000 0.7176 0.7176 0.7176
v -0.060000 0.003000 0.055000 0.7020 0.7020 0.7020
v -0.033000 0.053000 0.066000 0.8039 0.8039 0.8039
v -0.030000 0.050574 0.064235 0.7020 0.7020 0.7020
v -0.030384 0.042025 0.076930 0.7686 0.7686 0.7686
v -0.030000 0.055426 0.067765 0.8392 0.8392 0.8392
v -0.029616 0.047975 0.077070 0.8902 0.8902 0.8902
v -0.029459 0.045000 0.074049 0.7333 0.7333 0.7333
v 0.030384 0.042025 0.076930 0.7686 0.7686 0.7686
v -0.030541 0.045000 0.079951 0.8941 0.8941 0.8941
v 0.033000 0.053000 0.066000 0.8039 0.8039 0.8039
v 0.029459 0.045000 0.074049 0.7333 0.7333 0.7333
v 0.030000 0.055426 0.067765 0.8353 0.8353 0.8353
v 0.027000 0.053000 0.066000 0.7647 0.7647 0.7647
v 0.029616 0.047975 0.077070 0.8941 0.8941 0.8941
v 0.030541 0.045000 0.079951 0.8902 0.8902 0.8902
v -0.027000 0.053000 0.066000 0.7647 0.7647 0.7647
v 0.030000 0.050574 0.064235 0.7059 0.7059 0.7059
vn -0.0000 -0.0000 1.0000
vn -0.0000 -0.0000 -1.0000
vn -1.0000 -0.0000 -0.0000
vn 1.0000 -0.0000 -0.0000
vn -0.0000 -1.0000 -0.0000
vn -0.0000 1.0000 -0.0000
vn 0.7071 0.7071 -0.0000
vn -0.7071 0.7071 -0.0000
vn -0.7071 -0.7071 -0.0000
vn 0.7071 -0.7071 -0.0000
vn 0.7071 -0.0000 -0.7071
vn 0.6727 0.3082 -0.6727
vn 0.9513 0.3082 -0.0000
vn -0.0000 0.3082 -0.9513
vn -0.7071 -0.0000 -0.7071
vn -0.6727 0.3082 -0.6727
vn -0.9513 0.3082 -0.0000
vn -0.7071 -0.0000 0.7071
vn -0.6727 0.3082 0.6727
vn -0.0000 0.3082 0.9513
vn 0.7071 -0.0000 0.7071
vn 0.6727 0.3082 0.6727
vn 0.6599 0.3593 -0.6599
vn 0.9332 0.3593 -0.0000
vn -0.0000 0.3593 -0.9332
vn -0.6599 0.3593 -0.6599
vn -0.9332 0.3593 -0.0000
vn -0.6599 0.3593 0.6599
vn -0.0000 0.3593 0.9332
vn 0.6599 0.3593 0.6599
vn -0.9085 -0.3830 -0.1671
vn 0.7106 -0.5942 -0.3767
vn 0.4888 -0.6832 -0.5425
vn 0.1294 -0.7111 -0.6911
vn 0.9130 0.2443 0.3267
vn -0.6664 0.5809 0.4674
vn -0.1796 0.7020 0.6892
vn -0.4377 0.6675 0.6023
vn -0.0000 -0.7126 0.7016
vn -0.4888 -0.6832 -0.5425
vn -0.1294 -0.7111 -0.6911
vn -0.0000 0.7126 -0.7016
vn 0.1796 0.7020 0.6892
vn 0.4377 0.6675 0.6023
vn 0.9085 -0.3830 -0.1671
vn -0.7106 -0.5942 -0.3767
vn -0.9130 0.2443 0.3267
vn 0.6664 0.5809 0.4674
vn -0.0000 0.5882 -0.8087
vt 0.422363 0.875488
vt 0.452637 0.875488
vt 0.452637 0.875942
vt 0.422363 0.875942
vt 0.452637 0.876187
vt 0.422363 0.876187
vt 0.452637 0.895166
vt 0.422363 0.895166
vt 0.703613 0.875488
vt 0.733887 0.875488
vt 0.733887 0.894838
vt 0.703613 0.894838
vt 0.452637 0.885327
vt 0.422363 0.885327
vt 0.733887 0.885327
vt 0.703613 0.885327
vt 0.423499 0.875488
vt 0.423499 0.900085
vt 0.422363 0.900085
vt 0.452637 0.891357
vt 0.422363 0.891357
vt 0.733887 0.891357
vt 0.703613 0.891357
vt 0.423096 0.875488
vt 0.423096 0.905762
vt 0.422363 0.905762
vt 0.156738 0.859863
vt 0.160522 0.859863
vt 0.160522 0.874512
vt 0.156738 0.874512
vt 0.164307 0.859863
vt 0.164307 0.874512
vt 0.168091 0.859863
vt 0.168091 0.874512
vt 0.171875 0.859863
vt 0.171875 0.874512
vt 0.175659 0.859863
vt 0.175659 0.874512
vt 0.179443 0.859863
vt 0.179443 0.874512
vt 0.183228 0.859863
vt 0.183228 0.874512
vt 0.187012 0.859863
vt 0.187012 0.874512
vt 0.327637 0.867188
vt 0.325492 0.872366
vt 0.320312 0.874512
vt 0.315133 0.872366
vt 0.312988 0.867188
vt 0.315133 0.862009
vt 0.320312 0.859863
vt 0.325492 0.862009
vt 0.329529 0.859863
vt 0.330444 0.862563
vt 0.328613 0.862563
vt 0.331360 0.859863
vt 0.332275 0.862563
vt 0.333191 0.859863
vt 0.334106 0.862563
vt 0.335022 0.859863
vt 0.335938 0.862563
vt 0.336853 0.859863
vt 0.337769 0.862563
vt 0.338684 0.859863
vt 0.339600 0.862563
vt 0.340515 0.859863
vt 0.341431 0.862563
vt 0.342346 0.859863
vt 0.343262 0.862563
vt 0.330444 0.870157
vt 0.328613 0.870157
vt 0.332275 0.870157
vt 0.334106 0.870157
vt 0.335938 0.870157
vt 0.337769 0.870157
vt 0.339600 0.870157
vt 0.341431 0.870157
vt 0.343262 0.870157
vt 0.330444 0.872318
vt 0.328613 0.872318
vt 0.332275 0.872318
vt 0.334106 0.872318
vt 0.335938 0.872318
vt 0.337769 0.872318
vt 0.339600 0.872318
vt 0.341431 0.872318
vt 0.343262 0.872318
vt 0.330444 0.873162
vt 0.328613 0.873162
vt 0.332275 0.873162
vt 0.334106 0.873162
vt 0.335938 0.873162
vt 0.337769 0.873162
vt 0.339600 0.873162
vt 0.341431 0.873162
vt 0.343262 0.873162
vt 0.329529 0.874512
vt 0.331360 0.874512
vt 0.333191 0.874512
vt 0.335022 0.874512
vt 0.336853 0.874512
vt 0.338684 0.874512
vt 0.340515 0.874512
vt 0.342346 0.874512
vt 0.609863 0.875488
vt 0.640137 0.875488
vt 0.640137 0.879272
vt 0.609863 0.879272
vt 0.625000 0.875488
vt 0.625000 0.881165
vt 0.609863 0.881165
vt 0.789551 0.883301
vt 0.835449 0.883301
vt 0.835449 0.905762
vt 0.789551 0.905762
vt 0.640137 0.885579
vt 0.609863 0.885579
vt 0.359863 0.875488
vt 0.367432 0.875488
vt 0.367432 0.885579
vt 0.359863 0.885579
vt 0.375000 0.875488
vt 0.375000 0.885579
vt 0.382568 0.875488
vt 0.382568 0.885579
vt 0.390137 0.875488
vt 0.390137 0.885579
vt 0.367432 0.895671
vt 0.359863 0.895671
vt 0.375000 0.895671
vt 0.382568 0.895671
vt 0.390137 0.895671
vt 0.367432 0.905762
vt 0.359863 0.905762
vt 0.375000 0.905762
vt 0.382568 0.905762
vt 0.390137 0.905762
vt 0.359863 0.890625
vt 0.390137 0.890625
s 0
usemtl props
f 7/1/1 1/2/1 5/3/1 4/4/1
f 23/1/2 6/2/2 2/3/2 3/4/2
f 6/1/3 7/2/3 4/5/3 2/6/3
f 1/1/4 23/2/4 3/5/4 5/6/4
f 6/1/5 23/2/5 1/7/5 7/8/5
f 8/9/6 9/10/6 10/11/6 11/12/6
f 7/1/1 1/2/1 12/13/1 15/14/1
f 13/9/2 17/10/2 14/15/2 16/16/2
f 17/1/3 7/17/3 15/18/3 14/19/3
f 1/1/4 13/17/4 16/18/4 12/19/4
f 15/1/6 12/2/6 16/3/6 14/4/6
f 17/1/5 13/2/5 1/3/5 7/4/5
f 18/9/1 29/10/1 20/15/1 19/16/1
f 23/1/2 6/2/2 22/13/2 21/14/2
f 6/1/3 18/17/3 19/18/3 22/19/3
f 29/1/4 23/17/4 21/18/4 20/19/4
f 19/1/6 20/2/6 21/3/6 22/4/6
f 6/1/5 23/2/5 29/3/5 18/4/5
f 17/1/1 24/17/1 26/18/1 14/19/1
f 27/1/2 18/17/2 19/18/2 25/19/2
f 18/1/3 17/2/3 14/20/3 19/21/3
f 24/9/4 27/10/4 25/22/4 26/23/4
f 14/1/6 26/24/6 25/25/6 19/26/6
f 18/1/5 27/24/5 24/25/5 17/26/5
f 28/1/1 13/17/1 16/18/1 32/19/1
f 29/1/2 30/17/2 31/18/2 20/19/2
f 30/9/3 28/10/3 32/22/3 31/23/3
f 13/1/4 29/2/4 20/20/4 16/21/4
f 32/1/6 16/24/6 20/25/6 31/26/6
f 30/1/5 29/24/5 13/25/5 28/26/5
s 1
f 33/27/4 34/28/7 41/29/7 40/30/4
f 34/28/7 35/31/6 36/32/6 41/29/7
f 35/31/6 48/33/8 42/34/8 36/32/6
f 48/33/8 47/35/3 37/36/3 42/34/8
f 47/35/3 46/37/9 38/38/9 37/36/3
f 46/37/9 45/39/5 39/40/5 38/38/9
f 45/39/5 44/41/10 43/42/10 39/40/5
f 44/41/10 33/43/4 40/44/4 43/42/10
s 0
f 40/45/1 41/46/1 36/47/1 42/48/1 37/49/1 38/50/1 39/51/1 43/52/1
f 44/46/2 45/47/2 46/48/2 47/49/2 48/50/2 35/51/2 34/52/2 33/45/2
s 1
f 64/27/4 49/28/7 50/29/7 51/30/4
f 49/28/7 52/31/6 54/32/6 50/29/7
f 52/31/6 63/33/8 53/34/8 54/32/6
f 63/33/8 56/35/3 55/36/3 53/34/8
f 56/35/3 62/37/9 58/38/9 55/36/3
f 62/37/9 61/39/5 57/40/5 58/38/9
f 61/39/5 60/41/10 59/42/10 57/40/5
f 60/41/10 64/43/4 51/44/4 59/42/10
s 0
f 51/45/1 50/46/1 54/47/1 53/48/1 55/49/1 58/50/1 57/51/1 59/52/1
f 60/46/2 61/47/2 62/48/2 56/49/2 63/50/2 52/51/2 49/52/2 64/45/2
s 1
f 67/53/5 65/54/5 70/55/5
f 67/56/5 71/57/5 65/54/5
f 67/58/5 72/59/5 71/57/5
f 67/60/5 66/61/5 72/59/5
f 67/62/5 68/63/5 66/61/5
f 67/64/5 69/65/5 68/63/5
f 67/66/5 75/67/5 69/65/5
f 67/68/5 70/69/5 75/67/5
f 70/55/4 65/54/11 78/70/12 77/71/13
f 65/54/11 71/57/2 80/72/14 78/70/12
f 71/57/2 72/59/15 73/73/16 80/72/14
f 72/59/15 66/61/3 83/74/17 73/73/16
f 66/61/3 68/63/18 74/75/19 83/74/17
f 68/63/18 69/65/1 84/76/20 74/75/19
f 69/65/1 75/67/21 76/77/22 84/76/20
f 75/67/21 70/69/4 77/78/13 76/77/22
f 77/71/13 78/70/12 79/79/23 93/80/24
f 78/70/12 80/72/14 82/81/25 79/79/23
f 80/72/14 73/73/16 81/82/26 82/81/25
f 73/73/16 83/74/17 89/83/27 81/82/26
f 83/74/17 74/75/19 85/84/28 89/83/27
f 74/75/19 84/76/20 91/85/29 85/84/28
f 84/76/20 76/77/22 86/86/30 91/85/29
f 76/77/22 77/78/13 93/87/24 86/86/30
f 93/80/24 79/79/23 87/88/11 95/89/4
f 79/79/23 82/81/25 96/90/2 87/88/11
f 82/81/25 81/82/26 88/91/15 96/90/2
f 81/82/26 89/83/27 90/92/3 88/91/15
f 89/83/27 85/84/28 97/93/18 90/92/3
f 85/84/28 91/85/29 92/94/1 97/93/18
f 91/85/29 86/86/30 94/95/21 92/94/1
f 86/86/30 93/87/24 95/96/4 94/95/21
f 95/89/6 87/88/6 98/97/6
f 87/88/6 96/90/6 98/98/6
f 96/90/6 88/91/6 98/99/6
f 88/91/6 90/92/6 98/100/6
f 90/92/6 97/93/6 98/101/6
f 97/93/6 92/94/6 98/102/6
f 92/94/6 94/95/6 98/103/6
f 94/95/6 95/96/6 98/104/6
s 0
f 106/105/1 99/106/1 103/107/1 102/108/1
f 105/105/2 100/106/2 104/107/2 101/108/2
f 100/105/3 106/109/3 102/110/3 104/111/3
f 99/105/4 105/109/4 101/110/4 103/111/4
f 102/112/6 103/113/6 101/114/6 104/115/6
f 100/105/5 105/106/5 99/116/5 106/117/5
s 1
f 107/118/31 108/119/31 109/120/31 114/121/31
f 108/119/32 121/122/32 112/123/33 109/120/34
f 121/122/35 110/124/35 111/125/35 112/123/35
f 110/124/36 107/126/36 114/127/37 111/125/38
f 114/121/39 109/120/39 113/128/39 120/129/39
f 109/120/34 112/123/33 116/130/40 113/128/41
f 112/123/42 111/125/42 119/131/42 116/130/42
f 111/125/38 114/127/37 120/132/43 119/131/44
f 120/129/45 113/128/45 122/133/45 115/134/45
f 113/128/41 116/130/40 118/135/46 122/133/46
f 116/130/47 119/131/47 117/136/47 118/135/47
f 119/131/44 120/132/43 115/137/48 117/136/48
s 0
f 110/135/49 121/138/49 108/122/49 107/139/49
f 115/138/49 122/122/49 118/139/49 117/135/49
o first_aid_box_lid
v 0.102000 0.065000 0.067000 0.9255 0.9255 0.9255
v 0.102000 0.065000 -0.067000 0.9255 0.9255 0.9255
v -0.102000 0.065000 -0.067000 0.9333 0.9333 0.9333
v -0.102000 0.065000 0.067000 0.9294 0.9294 0.9294
v -0.102000 0.077000 0.067000 1.0000 1.0000 1.0000
v -0.102000 0.077000 -0.067000 1.0000 1.0000 1.0000
v 0.102000 0.077000 0.067000 1.0000 1.0000 1.0000
v 0.102000 0.077000 -0.067000 1.0000 1.0000 1.0000
v -0.015000 0.072000 0.072000 0.9372 0.9372 0.9372
v 0.015000 0.062000 0.066000 0.7608 0.7608 0.7608
v -0.015000 0.072000 0.066000 0.7137 0.7137 0.7137
v 0.015000 0.072000 0.066000 0.7137 0.7137 0.7137
v -0.015000 0.062000 0.066000 0.7608 0.7608 0.7608
v 0.015000 0.062000 0.072000 0.8627 0.8627 0.8627
v 0.015000 0.072000 0.072000 0.9372 0.9372 0.9372
v -0.015000 0.062000 0.072000 0.8666 0.8666 0.8666
vn -0.0000 -0.0000 1.0000
vn -0.0000 -0.0000 -1.0000
vn -1.0000 -0.0000 -0.0000
vn 1.0000 -0.0000 -0.0000
vn -0.0000 1.0000 -0.0000
vn -0.0000 -1.0000 -0.0000
vt 0.422363 0.875488
vt 0.452637 0.875488
vt 0.452637 0.877269
vt 0.422363 0.877269
vt 0.452637 0.878199
vt 0.422363 0.878199
vt 0.703613 0.953613
vt 0.765137 0.953613
vt 0.765137 0.999512
vt 0.703613 0.999512
vt 0.452637 0.895374
vt 0.422363 0.895374
vt 0.359863 0.875488
vt 0.371216 0.875488
vt 0.371216 0.879272
vt 0.359863 0.879272
vt 0.362134 0.875488
vt 0.362134 0.879272
vt 0.371216 0.877759
vt 0.359863 0.877759
s 0
usemtl props
f 126/140/50 123/141/50 129/142/50 127/143/50
f 124/140/51 125/141/51 128/142/51 130/143/51
f 125/140/52 126/141/52 127/144/52 128/145/52
f 123/140/53 124/141/53 130/144/53 129/145/53
f 127/146/54 129/147/54 130/148/54 128/149/54
f 125/140/55 124/141/55 123/150/55 126/151/55
f 138/152/50 136/153/50 137/154/50 131/155/50
f 132/152/51 135/153/51 133/154/51 134/155/51
f 135/152/52 138/156/52 131/157/52 133/155/52
f 136/152/53 132/156/53 134/157/53 137/155/53
f 131/152/54 137/153/54 134/158/54 133/159/54
f 135/152/55 132/153/55 136/158/55 138/159/55
