# Blender 4.5.14 LTS
# www.blender.org
mtllib herb_green.mtl
o herb_green
v -0.050040 0.005600 -0.000000 0.9529 0.9529 0.9529
v -0.009630 0.005000 -0.001557 0.8392 0.8392 0.8392
v 0.017005 0.004401 0.015924 0.7451 0.7451 0.7451
v -0.009955 0.003401 0.000011 0.7451 0.7451 0.7451
v -0.010370 0.005000 0.001557 0.8509 0.8509 0.8509
v 0.016148 0.006000 0.017276 0.8039 0.8039 0.8039
v 0.017774 0.006000 0.014519 0.7608 0.7608 0.7608
v 0.016917 0.007599 0.015872 0.8902 0.8902 0.8902
v 0.016899 0.006696 0.015859 0.7882 0.7882 0.7882
v 0.034536 0.008160 0.013909 0.7216 0.7216 0.7216
v 0.047094 0.008440 0.024114 0.7608 0.7608 0.7608
v 0.037556 0.008440 0.039379 0.8157 0.8157 0.8157
v 0.022877 0.008160 0.032566 0.9019 0.9019 0.9019
v 0.023002 0.006767 0.032643 0.8078 0.8078 0.8078
v 0.037432 0.009832 0.039302 0.9176 0.9176 0.9176
v 0.055820 0.010112 0.040179 0.8235 0.8235 0.8235
v 0.055695 0.011504 0.040102 0.9215 0.9215 0.9215
v 0.046970 0.009832 0.024037 0.7568 0.7568 0.7568
v 0.034660 0.006767 0.013986 0.7294 0.7294 0.7294
v 0.017023 0.005304 0.015936 0.7294 0.7294 0.7294
v -0.050000 0.004000 0.001600 0.8509 0.8509 0.8509
v -0.009909 0.003403 0.000014 0.7451 0.7451 0.7451
v 0.018110 0.008000 0.012249 0.8157 0.8157 0.8157
v -0.009753 0.005000 -0.001581 0.8431 0.8431 0.8431
v 0.018818 0.006408 0.010806 0.7255 0.7255 0.7255
v -0.010091 0.006597 -0.000014 0.9529 0.9529 0.9529
v 0.019233 0.008000 0.009253 0.7882 0.7882 0.7882
v -0.010247 0.005000 0.001581 0.8509 0.8509 0.8509
v 0.018526 0.009592 0.010696 0.9098 0.9098 0.9098
v 0.018558 0.008689 0.010707 0.7960 0.7960 0.7960
v 0.037894 0.011485 0.004580 0.8823 0.8823 0.8823
v 0.038121 0.010106 0.004667 0.7059 0.7059 0.7059
v 0.046795 0.013301 0.032633 0.8392 0.8392 0.8392
v 0.028827 0.011485 0.028199 0.9137 0.9137 0.9137
v 0.018785 0.007311 0.010795 0.7333 0.7333 0.7333
v 0.029054 0.010106 0.028286 0.8117 0.8117 0.8117
v 0.067194 0.017875 0.029377 0.9411 0.9411 0.9411
v 0.046568 0.014680 0.032546 0.9333 0.9333 0.9333
v 0.067421 0.016497 0.029464 0.8470 0.8470 0.8470
v 0.053986 0.014680 0.013221 0.8000 0.8000 0.8000
v 0.054213 0.013301 0.013308 0.7529 0.7529 0.7529
v -0.005101 0.006685 0.007895 0.8823 0.8823 0.8823
v 0.010983 0.010427 0.016865 0.8902 0.8902 0.8902
v 0.005350 0.008431 0.009257 0.8706 0.8706 0.8706
v 0.013786 0.011054 0.027590 0.8274 0.8274 0.8274
v 0.003390 0.009058 0.024550 0.8313 0.8313 0.8313
v -0.004899 0.005315 0.008105 0.7686 0.7686 0.7686
v -0.004177 0.008431 0.018393 0.9058 0.9058 0.9058
v -0.003976 0.007062 0.018603 0.8078 0.8078 0.8078
v 0.003188 0.010427 0.024340 0.9255 0.9255 0.9255
v 0.013585 0.012423 0.027380 0.9215 0.9215 0.9215
v 0.011185 0.009058 0.017075 0.7960 0.7960 0.7960
v 0.005551 0.007062 0.009467 0.7451 0.7451 0.7451
v -0.010119 0.005000 0.001596 0.8549 0.8549 0.8549
v -0.009881 0.005000 -0.001596 0.8509 0.8509 0.8509
v 0.019973 0.006000 0.003634 0.7490 0.7490 0.7490
v -0.010046 0.006599 -0.000003 0.9529 0.9529 0.9529
v 0.019420 0.006000 0.006785 0.7686 0.7686 0.7686
v 0.019748 0.004401 0.005219 0.7412 0.7412 0.7412
v 0.019644 0.007599 0.005200 0.8588 0.8588 0.8588
v 0.030997 0.010066 0.018372 0.7020 0.7020 0.7020
v 0.035151 0.008708 -0.003235 0.7059 0.7059 0.7059
v 0.063818 0.016449 0.012989 0.8431 0.8431 0.8431
v 0.031331 0.008708 0.018431 0.7176 0.7176 0.7176
v 0.019863 0.005321 0.005239 0.7137 0.7137 0.7137
v 0.046967 0.012578 0.019157 0.7059 0.7059 0.7059
v 0.063485 0.017808 0.012931 0.9372 0.9372 0.9372
v 0.046633 0.013937 0.019098 0.8941 0.8941 0.8941
v 0.049759 0.013937 0.001371 0.8980 0.8980 0.8980
v 0.050092 0.012578 0.001430 0.7960 0.7960 0.7960
v 0.019529 0.006679 0.005180 0.7804 0.7804 0.7804
v 0.034817 0.010066 -0.003294 0.7960 0.7960 0.7960
v -0.049960 0.002400 0.000000 0.7568 0.7568 0.7568
v -0.010012 0.005000 -0.001600 0.8509 0.8509 0.8509
v -0.009909 0.003403 -0.000001 0.7490 0.7490 0.7490
v 0.019838 0.009592 -0.000521 0.7725 0.7725 0.7725
v 0.019969 0.008000 -0.002123 0.7921 0.7921 0.7921
v -0.010091 0.006597 0.000001 0.9568 0.9568 0.9568
v -0.009988 0.005000 0.001600 0.8509 0.8509 0.8509
v 0.020025 0.008000 0.001076 0.7921 0.7921 0.7921
v 0.020156 0.006408 -0.000526 0.7294 0.7294 0.7294
v 0.019924 0.008696 -0.000522 0.7333 0.7333 0.7333
v 0.035712 0.010379 -0.013450 0.7176 0.7176 0.7176
v 0.035859 0.008987 -0.013452 0.7020 0.7020 0.7020
v 0.054195 0.010910 -0.011472 0.7490 0.7490 0.7490
v 0.054557 0.010910 0.009225 0.7608 0.7608 0.7608
v 0.054410 0.012302 0.009227 0.7568 0.7568 0.7568
v 0.036154 0.010379 0.011846 0.7020 0.7020 0.7020
v 0.036300 0.008987 0.011844 0.7137 0.7137 0.7137
v 0.072526 0.014226 -0.001440 0.9294 0.9294 0.9294
v 0.072672 0.012833 -0.001443 0.8392 0.8392 0.8392
v 0.054049 0.012302 -0.011470 0.7843 0.7843 0.7843
v 0.020070 0.007304 -0.000525 0.7333 0.7333 0.7333
v 0.021832 0.012423 -0.001031 0.9058 0.9058 0.9058
v 0.012532 0.009058 -0.006077 0.7960 0.7960 0.7960
v 0.012946 0.009058 0.004715 0.7882 0.7882 0.7882
v -0.004855 0.005315 -0.000006 0.7020 0.7020 0.7020
v 0.003609 0.007062 0.006274 0.7529 0.7529 0.7529
v 0.012656 0.010427 0.004726 0.9019 0.9019 0.9019
v 0.003318 0.008431 0.006285 0.8823 0.8823 0.8823
v 0.022122 0.011054 -0.001042 0.8000 0.8000 0.8000
v 0.012241 0.010427 -0.006066 0.9058 0.9058 0.9058
v 0.002812 0.008431 -0.006905 0.8862 0.8862 0.8862
v -0.005145 0.006685 0.000006 0.8000 0.8000 0.8000
v 0.003102 0.007062 -0.006916 0.7451 0.7451 0.7451
v -0.050000 0.004000 -0.001600 0.8549 0.8549 0.8549
v -0.009857 0.005000 0.001594 0.8431 0.8431 0.8431
v -0.009954 0.003401 -0.000004 0.7490 0.7490 0.7490
v 0.019233 0.006000 -0.007803 0.7725 0.7725 0.7725
v -0.010143 0.005000 -0.001594 0.8509 0.8509 0.8509
v 0.019511 0.007599 -0.006226 0.8509 0.8509 0.8509
v 0.019893 0.006000 -0.004672 0.7529 0.7529 0.7529
v 0.019615 0.004401 -0.006248 0.7255 0.7255 0.7255
v 0.030881 0.007742 -0.019889 0.7020 0.7020 0.7020
v 0.035217 0.009120 0.001681 0.7020 0.7020 0.7020
v 0.019444 0.006689 -0.006212 0.7764 0.7764 0.7764
v 0.019682 0.005311 -0.006263 0.7098 0.7098 0.7098
v 0.035455 0.007742 0.001630 0.7255 0.7255 0.7255
v 0.050214 0.011899 -0.003551 0.8313 0.8313 0.8313
v 0.050452 0.010520 -0.003602 0.7020 0.7020 0.7020
v 0.063755 0.014677 -0.015631 0.9176 0.9176 0.9176
v 0.046471 0.011899 -0.021158 0.7568 0.7568 0.7568
v 0.063993 0.013298 -0.015681 0.8274 0.8274 0.8274
v 0.030643 0.009120 -0.019838 0.7294 0.7294 0.7294
v 0.046709 0.010520 -0.021209 0.7608 0.7608 0.7608
v -0.010091 0.006597 0.000016 0.9529 0.9529 0.9529
v -0.010270 0.005000 -0.001577 0.8549 0.8549 0.8549
v -0.009730 0.005000 0.001577 0.8431 0.8431 0.8431
v 0.018554 0.006408 -0.011781 0.7216 0.7216 0.7216
v -0.009909 0.003403 -0.000016 0.7451 0.7451 0.7451
v 0.017800 0.008000 -0.013201 0.8078 0.8078 0.8078
v 0.018266 0.009592 -0.011663 0.9019 0.9019 0.9019
v 0.019020 0.008000 -0.010243 0.7882 0.7882 0.7882
v 0.018254 0.008679 -0.011656 0.7960 0.7960 0.7960
v 0.028003 0.011216 -0.029536 0.8157 0.8157 0.8157
v 0.065814 0.020118 -0.031844 0.8666 0.8666 0.8666
v 0.037889 0.011216 -0.006248 0.7804 0.7804 0.7804
v 0.018566 0.007321 -0.011788 0.7255 0.7255 0.7255
v 0.037577 0.012574 -0.006115 0.8902 0.8902 0.8902
v 0.053424 0.015667 -0.015341 0.8274 0.8274 0.8274
v 0.065502 0.021477 -0.031711 0.9529 0.9529 0.9529
v 0.053112 0.017026 -0.015208 0.9255 0.9255 0.9255
v 0.045336 0.015667 -0.034395 0.8549 0.8549 0.8549
v 0.045024 0.017026 -0.034263 0.9451 0.9451 0.9451
v 0.027691 0.012574 -0.029404 0.9215 0.9215 0.9215
v -0.005092 0.006685 -0.007888 0.8745 0.8745 0.8745
v 0.010256 0.010427 -0.018065 0.8941 0.8941 0.8941
v 0.001910 0.010427 -0.024920 0.9255 0.9255 0.9255
v -0.004977 0.008431 -0.018426 0.9058 0.9058 0.9058
v 0.005408 0.007062 -0.010272 0.7412 0.7412 0.7412
v 0.005223 0.008431 -0.010047 0.8666 0.8666 0.8666
v 0.010441 0.009058 -0.018290 0.7882 0.7882 0.7882
v 0.012043 0.012423 -0.028749 0.9215 0.9215 0.9215
v 0.012228 0.011054 -0.028974 0.8235 0.8235 0.8235
v 0.002095 0.009058 -0.025145 0.8274 0.8274 0.8274
v -0.004792 0.007062 -0.018651 0.8039 0.8039 0.8039
v -0.004908 0.005315 -0.008112 0.7647 0.7647 0.7647
v -0.010045 0.006599 0.000011 0.9529 0.9529 0.9529
v -0.009609 0.005000 0.001552 0.8353 0.8353 0.8353
v 0.016624 0.004401 -0.016803 0.7451 0.7451 0.7451
v 0.015727 0.006000 -0.018129 0.8039 0.8039 0.8039
v -0.010391 0.005000 -0.001552 0.8549 0.8549 0.8549
v 0.017435 0.006000 -0.015423 0.7686 0.7686 0.7686
v 0.016538 0.007599 -0.016749 0.8862 0.8862 0.8862
v 0.016520 0.006696 -0.016735 0.7843 0.7843 0.7843
v 0.034214 0.008160 -0.015401 0.7255 0.7255 0.7255
v 0.054568 0.010112 -0.042399 0.8274 0.8274 0.8274
v 0.016641 0.005304 -0.016817 0.7255 0.7255 0.7255
v 0.034335 0.006767 -0.015483 0.7294 0.7294 0.7294
v 0.054447 0.011504 -0.042317 0.9098 0.9098 0.9098
v 0.046288 0.009832 -0.025957 0.7725 0.7725 0.7725
v 0.046409 0.008440 -0.026039 0.7647 0.7647 0.7647
v 0.036222 0.009832 -0.040880 0.9137 0.9137 0.9137
v 0.021912 0.008160 -0.033640 0.9058 0.9058 0.9058
v 0.036344 0.008440 -0.040962 0.8235 0.8235 0.8235
v 0.022033 0.006767 -0.033722 0.8078 0.8078 0.8078
v -0.028800 0.002318 -0.003182 0.8000 0.8000 0.8000
v -0.030000 0.002200 0.000000 0.7647 0.7647 0.7647
v -0.031200 0.002318 -0.003182 0.8000 0.8000 0.8000
v -0.030000 0.001469 -0.004031 0.7764 0.7764 0.7764
v -0.030000 0.005500 -0.003300 0.8039 0.8039 0.8039
v -0.030000 0.003167 -0.002333 0.7804 0.7804 0.7804
v -0.031200 0.005500 -0.004500 0.8431 0.8431 0.8431
v -0.030000 0.005500 -0.005700 0.8549 0.8549 0.8549
v -0.030000 0.009531 -0.004031 0.9372 0.9372 0.9372
v -0.028800 0.005500 -0.004500 0.8353 0.8353 0.8353
v -0.028800 0.008682 -0.003182 0.8588 0.8588 0.8588
v -0.030000 0.007833 -0.002333 0.7882 0.7882 0.7882
v -0.028800 0.010000 -0.000000 0.8588 0.8588 0.8588
v -0.031200 0.008682 -0.003182 0.8706 0.8706 0.8706
v -0.030000 0.011200 -0.000000 0.9647 0.9647 0.9647
v -0.030000 0.008800 -0.000000 0.7647 0.7647 0.7647
v -0.031200 0.008682 0.003182 0.8666 0.8666 0.8666
v -0.031200 0.010000 -0.000000 0.8745 0.8745 0.8745
v -0.028800 0.008682 0.003182 0.8588 0.8588 0.8588
v -0.030000 0.005500 0.003300 0.8039 0.8039 0.8039
v -0.030000 0.007833 0.002333 0.7882 0.7882 0.7882
v -0.031200 0.005500 0.004500 0.8431 0.8431 0.8431
v -0.030000 0.009531 0.004031 0.9372 0.9372 0.9372
v -0.030000 0.005500 0.005700 0.8627 0.8627 0.8627
v -0.028800 0.005500 0.004500 0.8353 0.8353 0.8353
v -0.030000 0.001469 0.004031 0.7764 0.7764 0.7764
v -0.028800 0.001000 0.000000 0.7843 0.7843 0.7843
v -0.028800 0.002318 0.003182 0.7960 0.7960 0.7960
v -0.030000 0.003167 0.002333 0.7843 0.7843 0.7843
v -0.031200 0.002318 0.003182 0.8000 0.8000 0.8000
v -0.031200 0.001000 0.000000 0.7882 0.7882 0.7882
v -0.030000 -0.000200 0.000000 0.7451 0.7451 0.7451
vn 0.0179 -0.6998 0.7141
vn -0.1623 -0.7133 0.6818
vn -0.1679 -0.7133 0.6804
vn 0.0180 -0.7043 -0.7097
vn 0.2013 -0.7129 -0.6717
vn 0.2067 -0.7128 -0.6702
vn -0.0171 0.7007 -0.7133
vn 0.1673 0.7140 -0.6799
vn 0.1617 0.7140 -0.6812
vn -0.0173 0.7035 0.7105
vn -0.2073 0.7121 0.6708
vn -0.2019 0.7122 0.6723
vn -0.3430 -0.7020 0.6242
vn 0.3832 -0.6956 -0.6077
vn 0.3411 0.7028 -0.6243
vn -0.3850 0.6947 0.6077
vn -0.9997 -0.0250 -0.0000
vn 0.8610 0.0319 0.5077
vn -0.0886 0.9945 -0.0554
vn 0.0886 -0.9945 0.0554
vn -0.9378 -0.0646 0.3412
vn -0.4212 0.0130 0.9069
vn -0.0484 0.0512 0.9975
vn 0.8754 0.0512 -0.4808
vn 0.6304 0.0130 -0.7761
vn -0.1044 -0.0646 -0.9924
vn 0.0177 -0.7026 0.7114
vn -0.0817 -0.7078 0.7017
vn -0.0843 -0.7078 0.7013
vn 0.0179 -0.7071 -0.7069
vn 0.1669 -0.7092 -0.6850
vn 0.1694 -0.7091 -0.6845
vn -0.0175 0.7026 -0.7114
vn 0.0841 0.7078 -0.7014
vn 0.0816 0.7078 -0.7017
vn -0.0174 0.7071 0.7069
vn -0.1697 0.7091 0.6844
vn -0.1672 0.7092 0.6849
vn -0.1830 -0.7058 0.6844
vn 0.3146 -0.6947 -0.6468
vn 0.1826 0.7058 -0.6845
vn -0.3157 0.6946 0.6464
vn 0.9319 0.0975 0.3494
vn -0.1621 0.9848 -0.0622
vn 0.1621 -0.9848 0.0622
vn -0.8498 -0.1073 0.5160
vn -0.2416 0.0215 0.9701
vn 0.1384 0.0851 0.9867
vn 0.7631 0.0851 -0.6407
vn 0.4696 0.0215 -0.8826
vn -0.2862 -0.1073 -0.9521
vn -0.1439 0.9781 -0.1501
vn 0.1439 -0.9781 0.1501
vn -0.9858 -0.1285 0.1081
vn -0.6322 0.0258 0.7744
vn -0.2972 0.1019 0.9494
vn 0.9610 0.1019 -0.2571
vn 0.8002 0.0258 -0.5992
vn 0.1493 -0.1285 -0.9804
vn 0.0176 -0.7049 0.7091
vn -0.0405 -0.7067 0.7063
vn -0.0412 -0.7067 0.7063
vn 0.0178 -0.7079 -0.7061
vn 0.0813 -0.7082 -0.7013
vn 0.0820 -0.7082 -0.7012
vn -0.0176 0.7057 -0.7083
vn 0.0411 0.7075 -0.7055
vn 0.0404 0.7075 -0.7055
vn -0.0176 0.7071 0.7069
vn -0.0821 0.7074 0.7020
vn -0.0815 0.7074 0.7021
vn -0.0992 -0.7061 0.7011
vn 0.1452 -0.7056 -0.6936
vn 0.0990 0.7069 -0.7003
vn -0.1456 0.7048 0.6943
vn 0.9844 0.0331 0.1727
vn -0.2382 0.9703 -0.0420
vn 0.2382 -0.9703 0.0420
vn -0.7269 -0.1495 0.6703
vn -0.0538 0.0300 0.9981
vn 0.3171 0.1186 0.9409
vn 0.6198 0.1186 -0.7757
vn 0.2908 0.0300 -0.9563
vn -0.4538 -0.1495 -0.8785
vn 0.0177 -0.7071 0.7069
vn 0.0501 -0.7057 0.7068
vn 0.0503 -0.7056 0.7068
vn 0.0177 -0.7069 -0.7071
vn 0.0379 -0.7056 -0.7076
vn 0.0378 -0.7056 -0.7076
vn -0.0177 0.7071 -0.7069
vn -0.0503 0.7056 -0.7068
vn -0.0502 0.7057 -0.7068
vn -0.0177 0.7069 0.7071
vn -0.0378 0.7056 0.7076
vn -0.0379 0.7056 0.7076
vn 0.0826 -0.7035 0.7059
vn 0.0580 -0.7040 -0.7078
vn -0.0827 0.7035 -0.7059
vn -0.0581 0.7040 0.7078
vn 0.9949 0.0995 -0.0174
vn -0.1045 0.9945 0.0018
vn 0.1045 -0.9945 -0.0018
vn -0.6006 -0.0646 0.7969
vn 0.1407 0.0130 0.9900
vn 0.5027 0.0512 0.8629
vn 0.4723 0.0512 -0.8800
vn 0.1060 0.0130 -0.9943
vn -0.6281 -0.0646 -0.7755
vn -0.2078 0.9781 0.0080
vn 0.2078 -0.9781 -0.0080
vn -0.5737 -0.1285 0.8089
vn 0.1593 0.0258 0.9869
vn 0.5127 0.1019 0.8525
vn 0.4457 0.1019 -0.8893
vn 0.0831 0.0258 -0.9962
vn -0.6341 -0.1285 -0.7625
vn 0.0177 -0.7070 0.7070
vn 0.0942 -0.7077 0.7002
vn 0.0932 -0.7077 0.7004
vn 0.0177 -0.7053 -0.7087
vn -0.0534 -0.7078 -0.7044
vn -0.0524 -0.7078 -0.7045
vn -0.0176 0.7078 -0.7062
vn -0.0933 0.7085 -0.6995
vn -0.0942 0.7085 -0.6994
vn -0.0176 0.7045 0.7095
vn 0.0524 0.7070 0.7053
vn 0.0534 0.7070 0.7052
vn 0.1692 -0.7042 0.6896
vn -0.1232 -0.7068 -0.6966
vn -0.1694 0.7050 -0.6887
vn 0.1232 0.7060 0.6974
vn 0.9779 0.0331 -0.2063
vn -0.1699 0.9848 0.0361
vn 0.1699 -0.9848 -0.0361
vn -0.4317 -0.1073 0.8956
vn 0.3258 0.0215 0.9452
vn 0.6535 0.0851 0.7521
vn 0.2911 0.0851 -0.9529
vn -0.0868 0.0215 -0.9960
vn -0.7586 -0.1073 -0.6426
vn 0.0180 -0.7069 0.7071
vn 0.1806 -0.7097 0.6810
vn 0.1775 -0.7098 0.6817
vn 0.0177 -0.7019 -0.7120
vn -0.0960 -0.7083 -0.6993
vn -0.0928 -0.7083 -0.6998
vn -0.0174 0.7069 -0.7071
vn -0.1779 0.7098 -0.6816
vn -0.1808 0.7097 -0.6809
vn -0.0174 0.7019 0.7120
vn 0.0928 0.7082 0.6998
vn 0.0958 0.7083 0.6994
vn 0.3356 -0.6936 0.6374
vn -0.2056 -0.7056 -0.6781
vn -0.3367 0.6934 -0.6370
vn 0.2050 0.7056 0.6783
vn 0.9200 0.0972 -0.3796
vn -0.2227 0.9703 0.0945
vn 0.2227 -0.9703 -0.0945
vn -0.2446 -0.1495 0.9580
vn 0.4985 0.0300 0.8664
vn 0.7784 0.1186 0.6164
vn 0.0973 0.1186 -0.9882
vn -0.2769 0.0300 -0.9604
vn -0.8591 -0.1495 -0.4896
vn -0.1320 0.9781 0.1607
vn 0.1320 -0.9781 -0.1607
vn 0.2240 -0.1285 0.9661
vn 0.8438 0.0258 0.5361
vn 0.9779 0.1019 0.1827
vn -0.3691 0.1019 -0.9238
vn -0.6898 0.0258 -0.7236
vn -0.9912 -0.1285 -0.0321
vn 0.0180 -0.7030 0.7109
vn 0.2170 -0.7128 0.6670
vn 0.2112 -0.7129 0.6687
vn 0.0180 -0.6999 -0.7140
vn -0.1782 -0.7149 -0.6762
vn -0.1718 -0.7148 -0.6779
vn -0.0171 0.7038 -0.7102
vn -0.2113 0.7138 -0.6677
vn -0.2173 0.7136 -0.6660
vn -0.0171 0.6991 0.7148
vn 0.1719 0.7139 0.6788
vn 0.1778 0.7140 0.6772
vn 0.4022 -0.6938 0.5975
vn -0.3619 -0.7019 -0.6134
vn -0.4034 0.6943 -0.5960
vn 0.3607 0.7013 0.6149
vn 0.8452 0.0318 -0.5334
vn -0.0867 0.9945 0.0585
vn 0.0867 -0.9945 -0.0585
vn -0.0697 -0.0646 0.9955
vn 0.6571 0.0130 0.7537
vn 0.8916 0.0512 0.4499
vn -0.0832 0.0512 -0.9952
vn -0.4526 0.0130 -0.8916
vn -0.9491 -0.0646 -0.3083
vn 0.7071 -0.7071 -0.0000
vn 0.7071 -0.5000 -0.5000
vn 0.7071 0.7071 -0.0000
vn 0.7071 0.5000 0.5000
vn -0.7071 0.7071 -0.0000
vn -0.7071 0.5000 0.5000
vn -0.7071 -0.7071 -0.0000
vn -0.7071 -0.5000 -0.5000
vn 0.7071 -0.0000 -0.7071
vn 0.7071 -0.0000 0.7071
vn -0.7071 -0.0000 0.7071
vn -0.7071 -0.0000 -0.7071
vn 0.7071 0.5000 -0.5000
vn 0.7071 -0.5000 0.5000
vn -0.7071 -0.5000 0.5000
vn -0.7071 0.5000 -0.5000
vt 0.531738 0.867676
vt 0.535400 0.867676
vt 0.535400 0.871094
vt 0.531738 0.871094
vt 0.539062 0.867676
vt 0.539062 0.871094
vt 0.542725 0.867676
vt 0.542725 0.871094
vt 0.546387 0.867676
vt 0.546387 0.871094
vt 0.535400 0.874512
vt 0.531738 0.874512
vt 0.539062 0.874512
vt 0.542725 0.874512
vt 0.546387 0.874512
vt 0.219238 0.867188
vt 0.228452 0.859863
vt 0.238982 0.861195
vt 0.249512 0.867188
vt 0.238982 0.873180
vt 0.228452 0.874512
vt 0.240298 0.874512
vt 0.229768 0.873180
vt 0.229768 0.861195
vt 0.240298 0.859863
vt 0.534232 0.867676
vt 0.534232 0.874512
vt 0.536491 0.867676
vt 0.536491 0.874512
vt 0.541634 0.867676
vt 0.541634 0.874512
vt 0.543893 0.867676
vt 0.543893 0.874512
vt 0.547363 0.867676
vt 0.549194 0.867676
vt 0.549194 0.869385
vt 0.547363 0.869385
vt 0.549194 0.871094
vt 0.547363 0.871094
vt 0.549194 0.872803
vt 0.547363 0.872803
vt 0.549194 0.874512
vt 0.547363 0.874512
vt 0.551025 0.867676
vt 0.551025 0.869385
vt 0.551025 0.871094
vt 0.551025 0.872803
vt 0.551025 0.874512
vt 0.552856 0.867676
vt 0.552856 0.869385
vt 0.552856 0.871094
vt 0.552856 0.872803
vt 0.552856 0.874512
vt 0.554688 0.867676
vt 0.554688 0.869385
vt 0.554688 0.871094
vt 0.554688 0.872803
vt 0.554688 0.874512
vt 0.556519 0.867676
vt 0.556519 0.869385
vt 0.556519 0.871094
vt 0.556519 0.872803
vt 0.556519 0.874512
vt 0.558350 0.867676
vt 0.558350 0.869385
vt 0.558350 0.871094
vt 0.558350 0.872803
vt 0.558350 0.874512
vt 0.560181 0.867676
vt 0.560181 0.869385
vt 0.560181 0.871094
vt 0.560181 0.872803
vt 0.560181 0.874512
vt 0.562012 0.867676
vt 0.562012 0.869385
vt 0.562012 0.871094
vt 0.562012 0.872803
vt 0.562012 0.874512
s 1
usemtl props
f 21/1/1 73/2/1 4/3/2 5/4/3
f 73/2/4 106/5/4 2/6/5 4/3/6
f 106/5/7 1/7/7 57/8/8 2/6/9
f 1/7/10 21/9/10 5/10/11 57/8/12
f 5/4/3 4/3/2 3/11/13 6/12/13
f 4/3/6 2/6/5 7/13/14 3/11/14
f 2/6/9 57/8/8 8/14/15 7/13/15
f 57/8/12 5/10/11 6/15/16 8/14/16
s 0
f 1/13/17 106/4/17 73/5/17 21/10/17
f 6/4/18 3/5/18 7/10/18 8/13/18
f 9/16/19 13/17/19 15/18/19 17/19/19 18/20/19 10/21/19
f 19/22/20 11/23/20 16/16/20 12/24/20 14/25/20 20/19/20
f 13/26/21 9/1/21 20/12/21 14/27/21
f 15/28/22 13/26/22 14/27/22 12/29/22
f 17/5/23 15/28/23 12/29/23 16/13/23
f 18/30/24 17/5/24 16/13/24 11/31/24
f 10/32/25 18/30/25 11/31/25 19/33/25
f 9/9/26 10/32/26 19/33/26 20/15/26
s 1
f 21/1/27 73/2/27 22/3/28 28/4/29
f 73/2/30 106/5/30 24/6/31 22/3/32
f 106/5/33 1/7/33 26/8/34 24/6/35
f 1/7/36 21/9/36 28/10/37 26/8/38
f 28/4/29 22/3/28 25/11/39 23/12/39
f 22/3/32 24/6/31 27/13/40 25/11/40
f 24/6/35 26/8/34 29/14/41 27/13/41
f 26/8/38 28/10/37 23/15/42 29/14/42
s 0
f 23/4/43 25/5/43 27/10/43 29/13/43
f 30/16/44 34/17/44 38/18/44 37/19/44 40/20/44 31/21/44
f 32/22/45 41/23/45 39/16/45 33/24/45 36/25/45 35/19/45
f 34/26/46 30/1/46 35/12/46 36/27/46
f 38/28/47 34/26/47 36/27/47 33/29/47
f 37/5/48 38/28/48 33/29/48 39/13/48
f 40/30/49 37/5/49 39/13/49 41/31/49
f 31/32/50 40/30/50 41/31/50 32/33/50
f 30/9/51 31/32/51 32/33/51 35/15/51
f 42/16/52 48/17/52 50/18/52 51/19/52 43/20/52 44/21/52
f 53/22/53 52/23/53 45/16/53 46/24/53 49/25/53 47/19/53
f 48/26/54 42/1/54 47/12/54 49/27/54
f 50/28/55 48/26/55 49/27/55 46/29/55
f 51/5/56 50/28/56 46/29/56 45/13/56
f 43/30/57 51/5/57 45/13/57 52/31/57
f 44/32/58 43/30/58 52/31/58 53/33/58
f 42/9/59 44/32/59 53/33/59 47/15/59
s 1
f 21/1/60 73/2/60 4/3/61 54/4/62
f 73/2/63 106/5/63 55/6/64 4/3/65
f 106/5/66 1/7/66 57/8/67 55/6/68
f 1/7/69 21/9/69 54/10/70 57/8/71
f 54/4/62 4/3/61 59/11/72 58/12/72
f 4/3/65 55/6/64 56/13/73 59/11/73
f 55/6/68 57/8/67 60/14/74 56/13/74
f 57/8/71 54/10/70 58/15/75 60/14/75
s 0
f 58/4/76 59/5/76 56/10/76 60/13/76
f 71/16/77 61/17/77 68/18/77 67/19/77 69/20/77 72/21/77
f 62/22/78 70/23/78 63/16/78 66/24/78 64/25/78 65/19/78
f 61/26/79 71/1/79 65/12/79 64/27/79
f 68/28/80 61/26/80 64/27/80 66/29/80
f 67/5/81 68/28/81 66/29/81 63/13/81
f 69/30/82 67/5/82 63/13/82 70/31/82
f 72/32/83 69/30/83 70/31/83 62/33/83
f 71/9/84 72/32/84 62/33/84 65/15/84
s 1
f 21/1/85 73/2/85 75/3/86 79/4/87
f 73/2/88 106/5/88 74/6/89 75/3/90
f 106/5/91 1/7/91 78/8/92 74/6/93
f 1/7/94 21/9/94 79/10/95 78/8/96
f 79/4/87 75/3/86 81/11/97 80/12/97
f 75/3/90 74/6/89 77/13/98 81/11/98
f 74/6/93 78/8/92 76/14/99 77/13/99
f 78/8/96 79/10/95 80/15/100 76/14/100
s 0
f 80/4/101 81/5/101 77/10/101 76/13/101
f 82/16/102 88/17/102 87/18/102 90/19/102 92/20/102 83/21/102
f 84/22/103 85/23/103 91/16/103 86/24/103 89/25/103 93/19/103
f 88/26/104 82/1/104 93/12/104 89/27/104
f 87/28/105 88/26/105 89/27/105 86/29/105
f 90/5/106 87/28/106 86/29/106 91/13/106
f 92/30/107 90/5/107 91/13/107 85/31/107
f 83/32/108 92/30/108 85/31/108 84/33/108
f 82/9/109 83/32/109 84/33/109 93/15/109
f 104/16/110 100/17/110 99/18/110 94/19/110 102/20/110 103/21/110
f 105/22/111 95/23/111 101/16/111 96/24/111 98/25/111 97/19/111
f 100/26/112 104/1/112 97/12/112 98/27/112
f 99/28/113 100/26/113 98/27/113 96/29/113
f 94/5/114 99/28/114 96/29/114 101/13/114
f 102/30/115 94/5/115 101/13/115 95/31/115
f 103/32/116 102/30/116 95/31/116 105/33/116
f 104/9/117 103/32/117 105/33/117 97/15/117
s 1
f 21/1/118 73/2/118 108/3/119 107/4/120
f 73/2/121 106/5/121 110/6/122 108/3/123
f 106/5/124 1/7/124 158/8/125 110/6/126
f 1/7/127 21/9/127 107/10/128 158/8/129
f 107/4/120 108/3/119 113/11/130 112/12/130
f 108/3/123 110/6/122 109/13/131 113/11/131
f 110/6/126 158/8/125 111/14/132 109/13/132
f 158/8/129 107/10/128 112/15/133 111/14/133
s 0
f 112/4/134 113/5/134 109/10/134 111/13/134
f 116/16/135 115/17/135 119/18/135 121/19/135 122/20/135 124/21/135
f 114/22/136 125/23/136 123/16/136 120/24/136 118/25/136 117/19/136
f 115/26/137 116/1/137 117/12/137 118/27/137
f 119/28/138 115/26/138 118/27/138 120/29/138
f 121/5/139 119/28/139 120/29/139 123/13/139
f 122/30/140 121/5/140 123/13/140 125/31/140
f 124/32/141 122/30/141 125/31/141 114/33/141
f 116/9/142 124/32/142 114/33/142 117/15/142
s 1
f 21/1/143 73/2/143 130/3/144 128/4/145
f 73/2/146 106/5/146 127/6/147 130/3/148
f 106/5/149 1/7/149 126/8/150 127/6/151
f 1/7/152 21/9/152 128/10/153 126/8/154
f 128/4/145 130/3/144 129/11/155 133/12/155
f 130/3/148 127/6/147 131/13/156 129/11/156
f 127/6/151 126/8/150 132/14/157 131/13/157
f 126/8/154 128/10/153 133/15/158 132/14/158
s 0
f 133/4/159 129/5/159 131/10/159 132/13/159
f 134/16/160 139/17/160 142/18/160 141/19/160 144/20/160 145/21/160
f 135/22/161 143/23/161 136/16/161 140/24/161 137/25/161 138/19/161
f 139/26/162 134/1/162 138/12/162 137/27/162
f 142/28/163 139/26/163 137/27/163 140/29/163
f 141/5/164 142/28/164 140/29/164 136/13/164
f 144/30/165 141/5/165 136/13/165 143/31/165
f 145/32/166 144/30/166 143/31/166 135/33/166
f 134/9/167 145/32/167 135/33/167 138/15/167
f 146/16/168 151/17/168 147/18/168 153/19/168 148/20/168 149/21/168
f 156/22/169 155/23/169 154/16/169 152/24/169 150/25/169 157/19/169
f 151/26/170 146/1/170 157/12/170 150/27/170
f 147/28/171 151/26/171 150/27/171 152/29/171
f 153/5/172 147/28/172 152/29/172 154/13/172
f 148/30/173 153/5/173 154/13/173 155/31/173
f 149/32/174 148/30/174 155/31/174 156/33/174
f 146/9/175 149/32/175 156/33/175 157/15/175
s 1
f 21/1/176 73/2/176 108/3/177 159/4/178
f 73/2/179 106/5/179 162/6/180 108/3/181
f 106/5/182 1/7/182 158/8/183 162/6/184
f 1/7/185 21/9/185 159/10/186 158/8/187
f 159/4/178 108/3/177 160/11/188 163/12/188
f 108/3/181 162/6/180 161/13/189 160/11/189
f 162/6/184 158/8/183 164/14/190 161/13/190
f 158/8/187 159/10/186 163/15/191 164/14/191
s 0
f 163/4/192 160/5/192 161/10/192 164/13/192
f 165/16/193 166/17/193 171/18/193 170/19/193 173/20/193 174/21/193
f 176/22/194 175/23/194 167/16/194 172/24/194 169/25/194 168/19/194
f 166/26/195 165/1/195 168/12/195 169/27/195
f 171/28/196 166/26/196 169/27/196 172/29/196
f 170/5/197 171/28/197 172/29/197 167/13/197
f 173/30/198 170/5/198 167/13/198 175/31/198
f 174/32/199 173/30/199 175/31/199 176/33/199
f 165/9/200 174/32/200 176/33/200 168/15/200
s 1
f 208/34/201 180/35/202 177/36/202 203/37/201
f 203/37/203 177/36/204 182/38/204 178/39/203
f 178/39/205 182/38/206 179/40/206 207/41/205
f 207/41/207 179/40/208 180/42/208 208/43/207
f 180/35/202 184/44/209 186/45/209 177/36/202
f 177/36/204 186/45/210 181/46/210 182/38/204
f 182/38/206 181/46/211 183/47/211 179/40/206
f 179/40/208 183/47/212 184/48/212 180/42/208
f 184/44/209 185/49/213 187/50/213 186/45/209
f 186/45/210 187/50/214 188/51/214 181/46/210
f 181/46/211 188/51/215 190/52/215 183/47/211
f 183/47/212 190/52/216 185/53/216 184/48/212
f 185/49/213 191/54/203 189/55/203 187/50/213
f 187/50/214 189/55/201 192/56/201 188/51/214
f 188/51/215 192/56/207 194/57/207 190/52/215
f 190/52/216 194/57/205 191/58/205 185/53/216
f 191/54/203 199/59/204 195/60/204 189/55/203
f 189/55/201 195/60/202 197/61/202 192/56/201
f 192/56/207 197/61/208 193/62/208 194/57/207
f 194/57/205 193/62/206 199/63/206 191/58/205
f 199/59/204 200/64/210 201/65/210 195/60/204
f 195/60/202 201/65/209 196/66/209 197/61/202
f 197/61/208 196/66/212 198/67/212 193/62/208
f 193/62/206 198/67/211 200/68/211 199/63/206
f 200/64/210 202/69/214 204/70/214 201/65/210
f 201/65/209 204/70/213 205/71/213 196/66/209
f 196/66/212 205/71/216 206/72/216 198/67/212
f 198/67/211 206/72/215 202/73/215 200/68/211
f 202/69/214 208/74/201 203/75/201 204/70/214
f 204/70/213 203/75/203 178/76/203 205/71/213
f 205/71/216 178/76/205 207/77/205 206/72/216
f 206/72/215 207/77/207 208/78/207 202/73/215
