# Blender 4.5.14 LTS
# www.blender.org
mtllib ink_ribbon_tin.mtl
o ink_ribbon_tin
v 0.030000 0.000000 0.000000 0.7764 0.7764 0.7764
v 0.015000 0.000000 -0.025981 0.7764 0.7764 0.7764
v 0.000000 0.000000 0.000000 0.7020 0.7020 0.7020
v -0.025981 0.000000 0.015000 0.7725 0.7725 0.7725
v -0.030000 0.000000 -0.000000 0.7725 0.7725 0.7725
v -0.000000 0.000000 0.030000 0.7725 0.7725 0.7725
v 0.025981 0.000000 0.015000 0.7725 0.7725 0.7725
v 0.025981 0.000000 -0.015000 0.7764 0.7764 0.7764
v 0.000000 0.000000 -0.030000 0.7764 0.7764 0.7764
v -0.015000 0.000000 -0.025981 0.7764 0.7764 0.7764
v -0.025981 0.000000 -0.015000 0.7725 0.7725 0.7725
v -0.025981 0.016000 -0.015000 0.7020 0.7020 0.7020
v -0.025981 0.016000 0.015000 0.7020 0.7020 0.7020
v -0.015000 0.000000 0.025981 0.7725 0.7725 0.7725
v 0.015000 0.000000 0.025981 0.7725 0.7725 0.7725
v 0.025981 0.016000 0.015000 0.7020 0.7020 0.7020
v 0.025981 0.016000 -0.015000 0.7020 0.7020 0.7020
v 0.014250 0.017000 -0.024682 0.7020 0.7020 0.7020
v 0.024682 0.017000 -0.014250 0.7020 0.7020 0.7020
v 0.015000 0.016000 -0.025981 0.7020 0.7020 0.7020
v 0.000000 0.016000 -0.030000 0.7020 0.7020 0.7020
v 0.000000 0.017000 -0.028500 0.7020 0.7020 0.7020
v -0.015000 0.016000 -0.025981 0.7020 0.7020 0.7020
v -0.024682 0.017000 -0.014250 0.7020 0.7020 0.7020
v -0.014250 0.017000 -0.024682 0.7020 0.7020 0.7020
v -0.030000 0.016000 -0.000000 0.7020 0.7020 0.7020
v -0.028500 0.017000 -0.000000 0.7020 0.7020 0.7020
v -0.015000 0.016000 0.025981 0.7020 0.7020 0.7020
v -0.024682 0.017000 0.014250 0.7020 0.7020 0.7020
v -0.000000 0.016000 0.030000 0.7020 0.7020 0.7020
v -0.014250 0.017000 0.024682 0.7020 0.7020 0.7020
v 0.014250 0.017000 0.024682 0.7020 0.7020 0.7020
v -0.000000 0.017000 0.028500 0.7020 0.7020 0.7020
v 0.015000 0.016000 0.025981 0.7020 0.7020 0.7020
v 0.030000 0.016000 0.000000 0.7020 0.7020 0.7020
v 0.028500 0.017000 0.000000 0.7020 0.7020 0.7020
v 0.024682 0.017000 0.014250 0.7020 0.7020 0.7020
v 0.024000 0.003000 0.000000 0.7020 0.7020 0.7020
v 0.020785 0.003000 -0.012000 0.7020 0.7020 0.7020
v 0.012000 0.015000 -0.020785 0.7020 0.7020 0.7020
v 0.020785 0.015000 -0.012000 0.7020 0.7020 0.7020
v 0.012000 0.003000 -0.020785 0.7020 0.7020 0.7020
v 0.000000 0.003000 -0.024000 0.7020 0.7020 0.7020
v -0.012000 0.003000 -0.020785 0.7020 0.7020 0.7020
v 0.000000 0.015000 -0.024000 0.7020 0.7020 0.7020
v -0.020785 0.003000 -0.012000 0.7020 0.7020 0.7020
v -0.020785 0.015000 -0.012000 0.7020 0.7020 0.7020
v -0.012000 0.015000 -0.020785 0.7020 0.7020 0.7020
v -0.024000 0.003000 -0.000000 0.7020 0.7020 0.7020
v -0.024000 0.015000 -0.000000 0.7020 0.7020 0.7020
v -0.020785 0.003000 0.012000 0.7020 0.7020 0.7020
v -0.012000 0.015000 0.020785 0.7020 0.7020 0.7020
v -0.012000 0.003000 0.020785 0.7020 0.7020 0.7020
v -0.000000 0.003000 0.024000 0.7020 0.7020 0.7020
v -0.000000 0.015000 0.024000 0.7020 0.7020 0.7020
v 0.012000 0.003000 0.020785 0.7020 0.7020 0.7020
v 0.020785 0.003000 0.012000 0.7020 0.7020 0.7020
v 0.012000 0.015000 0.020785 0.7020 0.7020 0.7020
v 0.020785 0.015000 0.012000 0.7020 0.7020 0.7020
v 0.024000 0.015000 0.000000 0.7020 0.7020 0.7020
v -0.020785 0.015000 0.012000 0.7020 0.7020 0.7020
v 0.004950 0.003000 -0.004950 0.7020 0.7020 0.7020
v 0.000000 0.003000 -0.007000 0.7020 0.7020 0.7020
v -0.004950 0.016500 -0.004950 0.7020 0.7020 0.7020
v -0.004950 0.003000 -0.004950 0.7020 0.7020 0.7020
v -0.007000 0.016500 -0.000000 0.7020 0.7020 0.7020
v -0.007000 0.003000 -0.000000 0.7020 0.7020 0.7020
v -0.004950 0.003000 0.004950 0.7020 0.7020 0.7020
v -0.000000 0.016500 0.007000 0.7020 0.7020 0.7020
v -0.004950 0.016500 0.004950 0.7020 0.7020 0.7020
v 0.004950 0.003000 0.004950 0.7020 0.7020 0.7020
v 0.007000 0.003000 0.000000 0.7020 0.7020 0.7020
v 0.007000 0.016500 0.000000 0.7020 0.7020 0.7020
v 0.004950 0.016500 0.004950 0.7020 0.7020 0.7020
v 0.004950 0.016500 -0.004950 0.7020 0.7020 0.7020
v 0.000000 0.016500 -0.007000 0.7020 0.7020 0.7020
v -0.000000 0.003000 0.007000 0.7020 0.7020 0.7020
vn -0.0000 -1.0000 -0.0000
vn 1.0000 -0.0000 -0.0000
vn 0.8660 -0.0000 -0.5000
vn 0.5000 -0.0000 -0.8660
vn -0.0000 -0.0000 -1.0000
vn -0.5000 -0.0000 -0.8660
vn -0.8660 -0.0000 -0.5000
vn -1.0000 -0.0000 -0.0000
vn -0.8660 -0.0000 0.5000
vn -0.5000 -0.0000 0.8660
vn -0.0000 -0.0000 1.0000
vn 0.5000 -0.0000 0.8660
vn 0.8660 -0.0000 0.5000
vn 0.5547 0.8321 -0.0000
vn 0.4804 0.8321 -0.2774
vn 0.2774 0.8321 -0.4804
vn -0.0000 0.8321 -0.5547
vn -0.2774 0.8321 -0.4804
vn -0.4804 0.8321 -0.2774
vn -0.5547 0.8321 -0.0000
vn -0.4804 0.8321 0.2774
vn -0.2774 0.8321 0.4804
vn -0.0000 0.8321 0.5547
vn 0.2774 0.8321 0.4804
vn 0.4804 0.8321 0.2774
vn -0.0000 1.0000 -0.0000
vn 0.7071 -0.0000 -0.7071
vn -0.7071 -0.0000 -0.7071
vn -0.7071 -0.0000 0.7071
vn 0.7071 -0.0000 0.7071
vt 0.003052 0.859863
vt 0.005615 0.869056
vt 0.000488 0.869056
vt 0.008179 0.859863
vt 0.010742 0.869056
vt 0.013306 0.859863
vt 0.015869 0.869056
vt 0.018433 0.859863
vt 0.020996 0.869056
vt 0.023560 0.859863
vt 0.026123 0.869056
vt 0.028687 0.859863
vt 0.031250 0.869056
vt 0.033813 0.859863
vt 0.036377 0.869056
vt 0.038940 0.859863
vt 0.041504 0.869056
vt 0.044067 0.859863
vt 0.046631 0.869056
vt 0.049194 0.859863
vt 0.051758 0.869056
vt 0.054321 0.859863
vt 0.056885 0.869056
vt 0.059448 0.859863
vt 0.062012 0.869056
vt 0.005615 0.873959
vt 0.000488 0.873959
vt 0.010742 0.873959
vt 0.015869 0.873959
vt 0.020996 0.873959
vt 0.026123 0.873959
vt 0.031250 0.873959
vt 0.036377 0.873959
vt 0.041504 0.873959
vt 0.046631 0.873959
vt 0.051758 0.873959
vt 0.056885 0.873959
vt 0.062012 0.873959
vt 0.005615 0.874512
vt 0.000488 0.874512
vt 0.010742 0.874512
vt 0.015869 0.874512
vt 0.020996 0.874512
vt 0.026123 0.874512
vt 0.031250 0.874512
vt 0.036377 0.874512
vt 0.041504 0.874512
vt 0.046631 0.874512
vt 0.051758 0.874512
vt 0.056885 0.874512
vt 0.062012 0.874512
vt 0.422363 0.859863
vt 0.423584 0.859863
vt 0.423584 0.874512
vt 0.422363 0.874512
vt 0.424805 0.859863
vt 0.424805 0.874512
vt 0.426025 0.859863
vt 0.426025 0.874512
vt 0.427246 0.859863
vt 0.427246 0.874512
vt 0.428467 0.859863
vt 0.428467 0.874512
vt 0.429688 0.859863
vt 0.429688 0.874512
vt 0.430908 0.859863
vt 0.430908 0.874512
vt 0.432129 0.859863
vt 0.432129 0.874512
vt 0.433350 0.859863
vt 0.433350 0.874512
vt 0.434570 0.859863
vt 0.434570 0.874512
vt 0.435791 0.859863
vt 0.435791 0.874512
vt 0.437012 0.859863
vt 0.437012 0.874512
vt 0.452637 0.867188
vt 0.451655 0.870850
vt 0.448975 0.873530
vt 0.445312 0.874512
vt 0.441650 0.873530
vt 0.438970 0.870850
vt 0.437988 0.867188
vt 0.438970 0.863525
vt 0.441650 0.860845
vt 0.445312 0.859863
vt 0.448975 0.860845
vt 0.451655 0.863525
vt 0.436030 0.870850
vt 0.433350 0.873530
vt 0.426025 0.873530
vt 0.423345 0.870850
vt 0.422363 0.867188
vt 0.423345 0.863525
vt 0.426025 0.860845
vt 0.433350 0.860845
vt 0.436030 0.863525
vt 0.437012 0.867188
vt 0.672363 0.875488
vt 0.676147 0.875488
vt 0.676147 0.905762
vt 0.672363 0.905762
vt 0.679932 0.875488
vt 0.679932 0.905762
vt 0.683716 0.875488
vt 0.683716 0.905762
vt 0.687500 0.875488
vt 0.687500 0.905762
vt 0.691284 0.875488
vt 0.691284 0.905762
vt 0.695068 0.875488
vt 0.695068 0.905762
vt 0.698853 0.875488
vt 0.698853 0.905762
vt 0.702637 0.875488
vt 0.702637 0.905762
vt 0.468262 0.867188
vt 0.466117 0.872366
vt 0.460938 0.874512
vt 0.455758 0.872366
vt 0.453613 0.867188
vt 0.455758 0.862009
vt 0.460938 0.859863
vt 0.466117 0.862009
vt 0.698203 0.901328
vt 0.676797 0.901328
vt 0.672363 0.890625
vt 0.676797 0.879922
vt 0.698203 0.879922
vt 0.702637 0.890625
s 1
usemtl props
f 3/1/1 8/2/1 1/3/1
f 3/4/1 2/5/1 8/2/1
f 3/6/1 9/7/1 2/5/1
f 3/8/1 10/9/1 9/7/1
f 3/10/1 11/11/1 10/9/1
f 3/12/1 5/13/1 11/11/1
f 3/14/1 4/15/1 5/13/1
f 3/16/1 14/17/1 4/15/1
f 3/18/1 6/19/1 14/17/1
f 3/20/1 15/21/1 6/19/1
f 3/22/1 7/23/1 15/21/1
f 3/24/1 1/25/1 7/23/1
f 1/3/2 8/2/3 17/26/3 35/27/2
f 8/2/3 2/5/4 20/28/4 17/26/3
f 2/5/4 9/7/5 21/29/5 20/28/4
f 9/7/5 10/9/6 23/30/6 21/29/5
f 10/9/6 11/11/7 12/31/7 23/30/6
f 11/11/7 5/13/8 26/32/8 12/31/7
f 5/13/8 4/15/9 13/33/9 26/32/8
f 4/15/9 14/17/10 28/34/10 13/33/9
f 14/17/10 6/19/11 30/35/11 28/34/10
f 6/19/11 15/21/12 34/36/12 30/35/11
f 15/21/12 7/23/13 16/37/13 34/36/12
f 7/23/13 1/25/2 35/38/2 16/37/13
f 35/27/14 17/26/15 19/39/15 36/40/14
f 17/26/15 20/28/16 18/41/16 19/39/15
f 20/28/16 21/29/17 22/42/17 18/41/16
f 21/29/17 23/30/18 25/43/18 22/42/17
f 23/30/18 12/31/19 24/44/19 25/43/18
f 12/31/19 26/32/20 27/45/20 24/44/19
f 26/32/20 13/33/21 29/46/21 27/45/20
f 13/33/21 28/34/22 31/47/22 29/46/21
f 28/34/22 30/35/23 33/48/23 31/47/22
f 30/35/23 34/36/24 32/49/24 33/48/23
f 34/36/24 16/37/25 37/50/25 32/49/24
f 16/37/25 35/38/14 36/51/14 37/50/25
f 38/52/2 39/53/3 41/54/3 60/55/2
f 39/53/3 42/56/4 40/57/4 41/54/3
f 42/56/4 43/58/5 45/59/5 40/57/4
f 43/58/5 44/60/6 48/61/6 45/59/5
f 44/60/6 46/62/7 47/63/7 48/61/6
f 46/62/7 49/64/8 50/65/8 47/63/7
f 49/64/8 51/66/9 61/67/9 50/65/8
f 51/66/9 53/68/10 52/69/10 61/67/9
f 53/68/10 54/70/11 55/71/11 52/69/10
f 54/70/11 56/72/12 58/73/12 55/71/11
f 56/72/12 57/74/13 59/75/13 58/73/12
f 57/74/13 38/76/2 60/77/2 59/75/13
s 0
f 60/78/26 41/79/26 40/80/26 45/81/26 48/82/26 47/83/26 50/84/26 61/85/26 52/86/26 55/87/26 58/88/26 59/89/26
f 57/90/1 56/91/1 54/65/1 53/92/1 51/93/1 49/94/1 46/95/1 44/96/1 43/64/1 42/97/1 39/98/1 38/99/1
s 1
f 72/100/2 62/101/27 75/102/27 73/103/2
f 62/101/27 63/104/5 76/105/5 75/102/27
f 63/104/5 65/106/28 64/107/28 76/105/5
f 65/106/28 67/108/8 66/109/8 64/107/28
f 67/108/8 68/110/29 70/111/29 66/109/8
f 68/110/29 77/112/11 69/113/11 70/111/29
f 77/112/11 71/114/30 74/115/30 69/113/11
f 71/114/30 72/116/2 73/117/2 74/115/30
s 0
f 73/118/26 75/119/26 76/120/26 64/121/26 66/122/26 70/123/26 69/124/26 74/125/26
f 71/126/1 77/109/1 68/127/1 67/128/1 65/129/1 63/108/1 62/130/1 72/131/1
o ink_ribbon_tin_lid
v 0.031200 0.011000 0.000000 0.8470 0.8470 0.8470
v 0.027020 0.019000 -0.015600 0.9686 0.9686 0.9686
v 0.027020 0.011000 -0.015600 0.8470 0.8470 0.8470
v 0.015600 0.011000 -0.027020 0.8470 0.8470 0.8470
v 0.015600 0.019000 -0.027020 0.9686 0.9686 0.9686
v 0.000000 0.011000 -0.031200 0.8431 0.8431 0.8431
v -0.015600 0.011000 -0.027020 0.8470 0.8470 0.8470
v -0.027020 0.011000 -0.015600 0.8470 0.8470 0.8470
v -0.031200 0.011000 -0.000000 0.8470 0.8470 0.8470
v -0.027020 0.019000 -0.015600 0.9686 0.9686 0.9686
v -0.015600 0.011000 0.027020 0.8431 0.8431 0.8431
v -0.000000 0.011000 0.031200 0.8431 0.8431 0.8431
v 0.015600 0.019000 0.027020 0.9686 0.9686 0.9686
v 0.015600 0.011000 0.027020 0.8431 0.8431 0.8431
v 0.027020 0.011000 0.015600 0.8470 0.8470 0.8470
v 0.031200 0.019000 0.000000 0.9686 0.9686 0.9686
v 0.027020 0.019000 0.015600 0.9686 0.9686 0.9686
v 0.000000 0.019000 -0.031200 0.9686 0.9686 0.9686
v -0.015600 0.019000 -0.027020 0.9686 0.9686 0.9686
v -0.031200 0.019000 -0.000000 0.9686 0.9686 0.9686
v -0.027020 0.019000 0.015600 0.9686 0.9686 0.9686
v -0.015600 0.019000 0.027020 0.9686 0.9686 0.9686
v -0.000000 0.019000 0.031200 0.9647 0.9647 0.9647
v -0.027020 0.011000 0.015600 0.8470 0.8470 0.8470
vn 1.0000 -0.0000 -0.0000
vn 0.8660 -0.0000 -0.5000
vn 0.5000 -0.0000 -0.8660
vn -0.0000 -0.0000 -1.0000
vn -0.5000 -0.0000 -0.8660
vn -0.8660 -0.0000 -0.5000
vn -1.0000 -0.0000 -0.0000
vn -0.8660 -0.0000 0.5000
vn -0.5000 -0.0000 0.8660
vn -0.0000 -0.0000 1.0000
vn 0.5000 -0.0000 0.8660
vn 0.8660 -0.0000 0.5000
vn -0.0000 1.0000 -0.0000
vn -0.0000 -1.0000 -0.0000
vt 0.000488 0.859863
vt 0.005615 0.859863
vt 0.005615 0.874512
vt 0.000488 0.874512
vt 0.010742 0.859863
vt 0.010742 0.874512
vt 0.015869 0.859863
vt 0.015869 0.874512
vt 0.020996 0.859863
vt 0.020996 0.874512
vt 0.026123 0.859863
vt 0.026123 0.874512
vt 0.031250 0.859863
vt 0.031250 0.874512
vt 0.036377 0.859863
vt 0.036377 0.874512
vt 0.041504 0.859863
vt 0.041504 0.874512
vt 0.046631 0.859863
vt 0.046631 0.874512
vt 0.051758 0.859863
vt 0.051758 0.874512
vt 0.056885 0.859863
vt 0.056885 0.874512
vt 0.062012 0.859863
vt 0.062012 0.874512
vt 0.671387 0.890625
vt 0.669359 0.898193
vt 0.663818 0.903734
vt 0.656250 0.905762
vt 0.648682 0.903734
vt 0.643141 0.898193
vt 0.641113 0.890625
vt 0.643141 0.883057
vt 0.648682 0.877516
vt 0.656250 0.875488
vt 0.663818 0.877516
vt 0.669359 0.883057
vt 0.057890 0.870850
vt 0.046631 0.873530
vt 0.015869 0.873530
vt 0.004610 0.870850
vt 0.000488 0.867188
vt 0.004610 0.863525
vt 0.015869 0.860845
vt 0.046631 0.860845
vt 0.057890 0.863525
vt 0.062012 0.867188
s 1
usemtl props
f 78/132/31 80/133/32 79/134/32 93/135/31
f 80/133/32 81/136/33 82/137/33 79/134/32
f 81/136/33 83/138/34 95/139/34 82/137/33
f 83/138/34 84/140/35 96/141/35 95/139/34
f 84/140/35 85/142/36 87/143/36 96/141/35
f 85/142/36 86/144/37 97/145/37 87/143/36
f 86/144/37 101/146/38 98/147/38 97/145/37
f 101/146/38 88/148/39 99/149/39 98/147/38
f 88/148/39 89/150/40 100/151/40 99/149/39
f 89/150/40 91/152/41 90/153/41 100/151/40
f 91/152/41 92/154/42 94/155/42 90/153/41
f 92/154/42 78/156/31 93/157/31 94/155/42
s 0
f 93/158/43 79/159/43 82/160/43 95/161/43 96/162/43 87/163/43 97/164/43 98/165/43 99/166/43 100/167/43 90/168/43 94/169/43
f 92/170/44 91/171/44 89/145/44 88/172/44 101/173/44 86/174/44 85/175/44 84/176/44 83/144/44 81/177/44 80/178/44 78/179/44
