# Blender 4.5.14 LTS
# www.blender.org
mtllib item_box.mtl
o item_box
v 0.400000 0.000000 0.225000 0.8000 0.8000 0.8000
v 0.400000 0.380000 0.225000 0.8627 0.8627 0.8627
v -0.400000 0.380000 0.225000 0.8666 0.8666 0.8666
v -0.400000 0.000000 -0.225000 0.8000 0.8000 0.8000
v 0.400000 0.380000 -0.225000 0.8627 0.8627 0.8627
v 0.400000 0.000000 -0.225000 0.8000 0.8000 0.8000
v -0.400000 0.000000 0.225000 0.7960 0.7960 0.7960
v 0.380000 0.380000 0.205000 0.7020 0.7020 0.7020
v 0.380000 0.020000 -0.205000 0.7020 0.7020 0.7020
v -0.380000 0.020000 0.205000 0.7020 0.7020 0.7020
v 0.380000 0.020000 0.205000 0.7020 0.7020 0.7020
v -0.380000 0.020000 -0.205000 0.7020 0.7020 0.7020
v 0.400000 0.380000 0.205000 0.7020 0.7020 0.7020
v -0.400000 0.380000 -0.205000 0.7020 0.7020 0.7020
v 0.400000 0.380000 -0.205000 0.7020 0.7020 0.7020
v -0.400000 0.380000 -0.225000 0.8627 0.8627 0.8627
v -0.400000 0.380000 0.205000 0.7020 0.7020 0.7020
v -0.380000 0.380000 0.205000 0.7020 0.7020 0.7020
v -0.380000 0.380000 -0.205000 0.7020 0.7020 0.7020
v 0.380000 0.380000 -0.205000 0.7020 0.7020 0.7020
v -0.325000 -0.002000 0.231000 0.8117 0.8117 0.8117
v -0.275000 -0.002000 0.231000 0.8117 0.8117 0.8117
v -0.275000 0.382000 0.231000 0.8078 0.8078 0.8078
v -0.275000 -0.002000 -0.231000 0.8157 0.8157 0.8157
v -0.325000 -0.002000 -0.231000 0.8117 0.8117 0.8117
v -0.275000 0.382000 -0.231000 0.8078 0.8078 0.8078
v -0.325000 0.382000 0.231000 0.8157 0.8157 0.8157
v -0.325000 0.382000 -0.231000 0.8078 0.8078 0.8078
v 0.275000 0.382000 -0.231000 0.8078 0.8078 0.8078
v 0.275000 -0.002000 -0.231000 0.8117 0.8117 0.8117
v 0.275000 -0.002000 0.231000 0.8117 0.8117 0.8117
v 0.275000 0.382000 0.231000 0.8117 0.8117 0.8117
v 0.325000 -0.002000 0.231000 0.8117 0.8117 0.8117
v 0.325000 -0.002000 -0.231000 0.8157 0.8157 0.8157
v 0.325000 0.382000 -0.231000 0.8078 0.8078 0.8078
v 0.325000 0.382000 0.231000 0.8117 0.8117 0.8117
v -0.400000 0.246000 0.040000 0.7608 0.7608 0.7608
v -0.400000 0.286000 0.040000 0.7882 0.7882 0.7882
v -0.400000 0.246000 -0.040000 0.7568 0.7568 0.7568
v -0.412000 0.246000 -0.040000 0.7921 0.7921 0.7921
v -0.400000 0.286000 -0.040000 0.7882 0.7882 0.7882
v -0.412000 0.286000 0.040000 0.8902 0.8902 0.8902
v -0.412000 0.286000 -0.040000 0.8902 0.8902 0.8902
v -0.412000 0.246000 0.040000 0.8000 0.8000 0.8000
v -0.409608 0.266000 0.044498 0.7451 0.7451 0.7451
v -0.440813 0.228000 0.041486 0.9058 0.9058 0.9058
v -0.416592 0.269305 0.048003 0.8666 0.8666 0.8666
v -0.435562 0.233553 0.037799 0.8862 0.8862 0.8862
v -0.434438 0.222447 0.042201 0.7764 0.7764 0.7764
v -0.440813 0.228000 -0.041486 0.9058 0.9058 0.9058
v -0.435562 0.233553 -0.037799 0.8823 0.8823 0.8823
v -0.429187 0.228000 0.038514 0.7294 0.7294 0.7294
v -0.429187 0.228000 -0.038514 0.7333 0.7333 0.7333
v -0.409608 0.266000 -0.044498 0.7451 0.7451 0.7451
v -0.434438 0.222447 -0.042201 0.7725 0.7725 0.7725
v -0.414392 0.266000 -0.055502 0.8627 0.8627 0.8627
v -0.407408 0.262695 -0.051997 0.7647 0.7647 0.7647
v -0.414392 0.266000 0.055502 0.8588 0.8588 0.8588
v -0.407408 0.262695 0.051997 0.7647 0.7647 0.7647
v -0.416592 0.269305 -0.048003 0.8706 0.8706 0.8706
v 0.400000 0.246000 0.040000 0.7568 0.7568 0.7568
v 0.412000 0.286000 -0.040000 0.8941 0.8941 0.8941
v 0.400000 0.246000 -0.040000 0.7608 0.7608 0.7608
v 0.400000 0.286000 0.040000 0.7921 0.7921 0.7921
v 0.400000 0.286000 -0.040000 0.7921 0.7921 0.7921
v 0.412000 0.246000 0.040000 0.7960 0.7960 0.7960
v 0.412000 0.246000 -0.040000 0.7960 0.7960 0.7960
v 0.412000 0.286000 0.040000 0.8941 0.8941 0.8941
v 0.440813 0.228000 0.041486 0.9098 0.9098 0.9098
v 0.407408 0.262695 0.051997 0.7647 0.7647 0.7647
v 0.416592 0.269305 0.048003 0.8666 0.8666 0.8666
v 0.414392 0.266000 0.055502 0.8627 0.8627 0.8627
v 0.434438 0.222447 0.042201 0.7804 0.7804 0.7804
v 0.429187 0.228000 0.038514 0.7333 0.7333 0.7333
v 0.435562 0.233553 0.037799 0.8902 0.8902 0.8902
v 0.440813 0.228000 -0.041486 0.9098 0.9098 0.9098
v 0.434438 0.222447 -0.042201 0.7804 0.7804 0.7804
v 0.429187 0.228000 -0.038514 0.7333 0.7333 0.7333
v 0.407408 0.262695 -0.051997 0.7686 0.7686 0.7686
v 0.435562 0.233553 -0.037799 0.8902 0.8902 0.8902
v 0.409608 0.266000 -0.044498 0.7490 0.7490 0.7490
v 0.409608 0.266000 0.044498 0.7490 0.7490 0.7490
v 0.414392 0.266000 -0.055502 0.8627 0.8627 0.8627
v 0.416592 0.269305 -0.048003 0.8706 0.8706 0.8706
v 0.035000 0.375000 0.225000 0.7490 0.7490 0.7490
v -0.035000 0.375000 0.225000 0.7490 0.7490 0.7490
v 0.035000 0.285000 0.225000 0.7725 0.7725 0.7725
v 0.035000 0.375000 0.237000 0.8902 0.8902 0.8902
v -0.035000 0.375000 0.237000 0.8902 0.8902 0.8902
v -0.035000 0.285000 0.225000 0.7764 0.7764 0.7764
v 0.035000 0.285000 0.237000 0.8706 0.8706 0.8706
v -0.035000 0.285000 0.237000 0.8745 0.8745 0.8745
vn -0.0000 -0.0000 1.0000
vn -0.0000 -0.0000 -1.0000
vn -1.0000 -0.0000 -0.0000
vn 1.0000 -0.0000 -0.0000
vn -0.0000 -1.0000 -0.0000
vn -0.0000 1.0000 -0.0000
vn 0.8625 -0.4839 -0.1480
vn 0.7849 -0.6171 -0.0558
vn 0.8099 -0.5807 -0.0826
vn 0.0047 -0.2940 0.9558
vn -0.8632 0.4830 0.1471
vn -0.8090 0.5822 0.0806
vn -0.7895 0.6108 0.0599
vn -0.0456 0.2369 -0.9705
vn 0.7849 -0.6171 0.0558
vn 0.8099 -0.5807 0.0826
vn -0.6568 -0.7541 -0.0000
vn -0.8090 0.5822 -0.0806
vn -0.7895 0.6108 -0.0599
vn 0.6568 0.7541 -0.0000
vn 0.8625 -0.4839 0.1480
vn 0.0047 -0.2940 -0.9558
vn -0.8632 0.4830 -0.1471
vn -0.0456 0.2369 0.9705
vn 0.5052 0.8346 0.2196
vn 0.5052 0.8346 -0.2196
vn -0.0047 -0.2940 0.9558
vn -0.8625 -0.4839 -0.1480
vn -0.8099 -0.5807 -0.0826
vn -0.7849 -0.6171 -0.0558
vn 0.0456 0.2369 -0.9705
vn 0.8632 0.4830 0.1471
vn 0.7895 0.6108 0.0599
vn 0.8090 0.5822 0.0806
vn 0.6568 -0.7541 -0.0000
vn -0.8099 -0.5807 0.0826
vn -0.7849 -0.6171 0.0558
vn -0.6568 0.7541 -0.0000
vn 0.7895 0.6108 -0.0599
vn 0.8090 0.5822 -0.0806
vn -0.0047 -0.2940 -0.9558
vn -0.8625 -0.4839 0.1480
vn 0.0456 0.2369 0.9705
vn 0.8632 0.4830 -0.1471
vn -0.5052 0.8346 0.2196
vn -0.5052 0.8346 -0.2196
vt 0.203613 0.937988
vt 0.265137 0.937988
vt 0.265137 0.967212
vt 0.203613 0.967212
vt 0.258984 0.937988
vt 0.258984 0.984746
vt 0.203613 0.984746
vt 0.265137 0.972595
vt 0.203613 0.972595
vt 0.328613 0.889828
vt 0.358887 0.889828
vt 0.358887 0.875488
vt 0.328613 0.875488
vt 0.328613 0.902070
vt 0.358887 0.902070
vt 0.328613 0.891820
vt 0.358887 0.891820
vt 0.265137 0.939526
vt 0.203613 0.939526
vt 0.206074 0.937988
vt 0.206074 0.988437
vt 0.203613 0.988437
vt 0.516113 0.875488
vt 0.520055 0.875488
vt 0.520055 0.905762
vt 0.516113 0.905762
vt 0.546387 0.875488
vt 0.546387 0.900651
vt 0.516113 0.900651
vt 0.484863 0.875488
vt 0.486316 0.875488
vt 0.486316 0.880332
vt 0.484863 0.880332
vt 0.494551 0.875488
vt 0.494551 0.880332
vt 0.486316 0.885176
vt 0.484863 0.885176
vt 0.492432 0.875488
vt 0.492432 0.885579
vt 0.484863 0.885579
vt 0.500000 0.875488
vt 0.500000 0.885579
vt 0.507568 0.875488
vt 0.507568 0.885579
vt 0.515137 0.875488
vt 0.515137 0.885579
vt 0.492432 0.895671
vt 0.484863 0.895671
vt 0.500000 0.895671
vt 0.507568 0.895671
vt 0.515137 0.895671
vt 0.492432 0.905762
vt 0.484863 0.905762
vt 0.500000 0.905762
vt 0.507568 0.905762
vt 0.515137 0.905762
vt 0.484863 0.896118
vt 0.492115 0.875488
vt 0.515137 0.885132
vt 0.507885 0.905762
vt 0.507885 0.875488
vt 0.515137 0.896118
vt 0.492115 0.905762
vt 0.484863 0.885132
vt 0.359863 0.859863
vt 0.374512 0.859863
vt 0.374512 0.874512
vt 0.359863 0.874512
vt 0.493340 0.875488
vt 0.493340 0.886387
vt 0.484863 0.886387
vt 0.486316 0.886387
vt 0.493340 0.876941
vt 0.484863 0.876941
s 0
usemtl props
f 7/1/1 1/2/1 2/3/1 3/4/1
f 6/1/2 4/2/2 16/3/2 5/4/2
f 4/1/3 7/5/3 3/6/3 16/7/3
f 1/1/4 6/5/4 5/6/4 2/7/4
f 4/1/5 6/2/5 1/8/5 7/9/5
f 10/10/1 11/11/1 8/12/1 18/13/1
f 9/10/2 12/11/2 19/12/2 20/13/2
f 12/14/3 10/15/3 18/12/3 19/13/3
f 11/14/4 9/15/4 20/12/4 8/13/4
f 12/16/5 9/17/5 11/12/5 10/13/5
f 3/1/6 2/2/6 13/18/6 17/19/6
f 14/1/6 15/2/6 5/18/6 16/19/6
f 17/1/6 18/20/6 19/21/6 14/22/6
f 8/1/6 13/20/6 15/21/6 20/22/6
f 21/23/1 22/24/1 23/25/1 27/26/1
f 24/23/2 25/24/2 28/25/2 26/26/2
f 25/23/3 21/27/3 27/28/3 28/29/3
f 22/23/4 24/27/4 26/28/4 23/29/4
f 31/23/1 33/24/1 36/25/1 32/26/1
f 34/23/2 30/24/2 29/25/2 35/26/2
f 30/23/3 31/27/3 32/28/3 29/29/3
f 33/23/4 34/27/4 35/28/4 36/29/4
f 44/30/1 37/31/1 38/32/1 42/33/1
f 39/30/2 40/31/2 43/32/2 41/33/2
f 40/30/3 44/34/3 42/35/3 43/33/3
f 37/30/4 39/34/4 41/35/4 38/33/4
f 42/30/6 38/31/6 41/36/6 43/37/6
f 40/30/5 39/31/5 37/36/5 44/37/5
s 1
f 45/30/7 59/38/7 49/39/8 52/40/9
f 59/38/10 58/41/10 46/42/10 49/39/10
f 58/41/11 47/43/11 48/44/12 46/42/13
f 47/43/14 45/45/14 52/46/14 48/44/14
f 52/40/9 49/39/8 55/47/15 53/48/16
f 49/39/17 46/42/17 50/49/17 55/47/17
f 46/42/13 48/44/12 51/50/18 50/49/19
f 48/44/20 52/46/20 53/51/20 51/50/20
f 53/48/16 55/47/15 57/52/21 54/53/21
f 55/47/22 50/49/22 56/54/22 57/52/22
f 50/49/19 51/50/18 60/55/23 56/54/23
f 51/50/24 53/51/24 54/56/24 60/55/24
s 0
f 47/57/25 58/58/25 59/59/25 45/60/25
f 54/61/26 57/62/26 56/63/26 60/64/26
f 61/30/1 66/31/1 68/32/1 64/33/1
f 67/30/2 63/31/2 65/32/2 62/33/2
f 63/30/3 61/34/3 64/35/3 65/33/3
f 66/30/4 67/34/4 62/35/4 68/33/4
f 64/30/6 68/31/6 62/36/6 65/37/6
f 63/30/5 67/31/5 66/36/5 61/37/5
s 1
f 72/30/27 70/38/27 73/39/27 69/40/27
f 70/38/28 82/41/28 74/42/29 73/39/30
f 82/41/31 71/43/31 75/44/31 74/42/31
f 71/43/32 72/45/32 69/46/33 75/44/34
f 69/40/35 73/39/35 77/47/35 76/48/35
f 73/39/30 74/42/29 78/49/36 77/47/37
f 74/42/38 75/44/38 80/50/38 78/49/38
f 75/44/34 69/46/33 76/51/39 80/50/40
f 76/48/41 77/47/41 79/52/41 83/53/41
f 77/47/37 78/49/36 81/54/42 79/52/42
f 78/49/43 80/50/43 84/55/43 81/54/43
f 80/50/40 76/51/39 83/56/44 84/55/44
s 0
f 71/62/45 82/63/45 70/64/45 72/61/45
f 83/60/46 79/57/46 81/58/46 84/59/46
f 92/65/1 91/66/1 88/67/1 89/68/1
f 87/30/2 90/69/2 86/70/2 85/71/2
f 90/30/3 92/31/3 89/72/3 86/71/3
f 91/30/4 87/31/4 85/72/4 88/71/4
f 89/30/6 88/69/6 85/73/6 86/74/6
f 90/30/5 87/69/5 91/73/5 92/74/5
o item_box_lid
v 0.405000 0.380000 0.230000 0.9490 0.9490 0.9490
v -0.405000 0.480000 0.230000 1.0000 1.0000 1.0000
v -0.405000 0.380000 -0.230000 0.9490 0.9490 0.9490
v 0.405000 0.480000 -0.230000 1.0000 1.0000 1.0000
v 0.405000 0.380000 -0.230000 0.9490 0.9490 0.9490
v 0.405000 0.480000 0.230000 1.0000 1.0000 1.0000
v -0.405000 0.480000 -0.230000 1.0000 1.0000 1.0000
v -0.405000 0.380000 0.230000 0.9490 0.9490 0.9490
v -0.325000 0.378000 0.236000 0.9255 0.9255 0.9255
v -0.325000 0.482000 0.236000 0.9686 0.9686 0.9686
v -0.275000 0.378000 -0.236000 0.9255 0.9255 0.9255
v -0.325000 0.482000 -0.236000 0.9686 0.9686 0.9686
v -0.275000 0.482000 -0.236000 0.9725 0.9725 0.9725
v -0.325000 0.378000 -0.236000 0.9255 0.9255 0.9255
v -0.275000 0.378000 0.236000 0.9215 0.9215 0.9215
v -0.275000 0.482000 0.236000 0.9725 0.9725 0.9725
v 0.275000 0.378000 0.236000 0.9255 0.9255 0.9255
v 0.325000 0.378000 0.236000 0.9255 0.9255 0.9255
v 0.275000 0.482000 0.236000 0.9686 0.9686 0.9686
v 0.325000 0.378000 -0.236000 0.9255 0.9255 0.9255
v 0.275000 0.378000 -0.236000 0.9215 0.9215 0.9215
v 0.275000 0.482000 -0.236000 0.9686 0.9686 0.9686
v 0.325000 0.482000 -0.236000 0.9725 0.9725 0.9725
v 0.325000 0.482000 0.236000 0.9725 0.9725 0.9725
v -0.020000 0.350000 0.243000 0.9019 0.9019 0.9019
v 0.020000 0.350000 0.243000 0.9019 0.9019 0.9019
v -0.020000 0.430000 0.231000 0.8000 0.8000 0.8000
v 0.020000 0.430000 0.231000 0.7960 0.7960 0.7960
v -0.020000 0.350000 0.231000 0.7020 0.7020 0.7020
v -0.020000 0.430000 0.243000 0.9098 0.9098 0.9098
v 0.020000 0.430000 0.243000 0.9098 0.9098 0.9098
v 0.020000 0.350000 0.231000 0.7020 0.7020 0.7020
vn -0.0000 -0.0000 1.0000
vn -0.0000 -0.0000 -1.0000
vn -1.0000 -0.0000 -0.0000
vn 1.0000 -0.0000 -0.0000
vn -0.0000 1.0000 -0.0000
vn -0.0000 -1.0000 -0.0000
vt 0.203613 0.937988
vt 0.265137 0.937988
vt 0.265137 0.945584
vt 0.203613 0.945584
vt 0.260215 0.937988
vt 0.260215 0.950293
vt 0.203613 0.950293
vt 0.265137 0.972928
vt 0.203613 0.972928
vt 0.516113 0.875488
vt 0.522168 0.875488
vt 0.522168 0.888082
vt 0.516113 0.888082
vt 0.546387 0.875488
vt 0.546387 0.882159
vt 0.516113 0.882159
vt 0.519320 0.875488
vt 0.519320 0.905762
vt 0.516113 0.905762
vt 0.484863 0.875488
vt 0.489707 0.875488
vt 0.489707 0.885176
vt 0.484863 0.885176
vt 0.486316 0.875488
vt 0.486316 0.885176
vt 0.489707 0.876941
vt 0.484863 0.876941
s 0
usemtl props
f 100/75/47 93/76/47 98/77/47 94/78/47
f 97/75/48 95/76/48 99/77/48 96/78/48
f 95/75/49 100/79/49 94/80/49 99/81/49
f 93/75/50 97/79/50 96/80/50 98/81/50
f 94/75/51 98/76/51 96/82/51 99/83/51
f 95/75/52 97/76/52 93/82/52 100/83/52
f 101/84/47 107/85/47 108/86/47 102/87/47
f 103/84/48 106/85/48 104/86/48 105/87/48
f 106/84/49 101/88/49 102/89/49 104/90/49
f 107/84/50 103/88/50 105/89/50 108/90/50
f 102/84/51 108/91/51 105/92/51 104/93/51
f 109/84/47 110/85/47 116/86/47 111/87/47
f 112/84/48 113/85/48 114/86/48 115/87/48
f 113/84/49 109/88/49 111/89/49 114/90/49
f 110/84/50 112/88/50 115/89/50 116/90/50
f 111/84/51 116/91/51 115/92/51 114/93/51
f 117/94/47 118/95/47 123/96/47 122/97/47
f 124/94/48 121/95/48 119/96/48 120/97/48
f 121/94/49 117/98/49 122/99/49 119/97/49
f 118/94/50 124/98/50 120/99/50 123/97/50
f 122/94/51 123/95/51 120/100/51 119/101/51
f 121/94/52 124/95/52 118/100/52 117/101/52
