# Blender 4.5.14 LTS
# www.blender.org
mtllib key_iron.mtl
o key_iron
v -0.060240 0.006000 0.006568 0.9255 0.9255 0.9255
v -0.057483 -0.000000 0.016857 0.7725 0.7725 0.7725
v -0.062000 -0.000000 0.006800 0.7294 0.7294 0.7294
v -0.062000 -0.000000 0.018000 0.7725 0.7725 0.7725
v -0.062000 0.006000 0.006800 0.9215 0.9215 0.9215
v -0.057483 0.006000 0.016857 0.9333 0.9333 0.9333
v -0.054071 0.006000 0.013733 0.9294 0.9294 0.9294
v -0.058600 0.006000 0.005889 0.9215 0.9215 0.9215
v -0.054071 -0.000000 0.013733 0.7725 0.7725 0.7725
v -0.060240 -0.000000 0.006568 0.7294 0.7294 0.7294
v -0.057192 -0.000000 0.004808 0.7294 0.7294 0.7294
v -0.058600 -0.000000 0.005889 0.7294 0.7294 0.7294
v -0.056111 0.006000 0.003400 0.9215 0.9215 0.9215
v -0.057192 0.006000 0.004808 0.9215 0.9215 0.9215
v -0.052548 -0.000000 0.009452 0.7647 0.7647 0.7647
v -0.056111 0.000000 0.003400 0.7294 0.7294 0.7294
v -0.048267 0.006000 0.007929 0.9255 0.9255 0.9255
v -0.052548 0.006000 0.009452 0.9294 0.9294 0.9294
v -0.048267 -0.000000 0.007929 0.7725 0.7725 0.7725
v -0.045143 0.006000 0.004517 0.8431 0.8431 0.8431
v -0.045143 -0.000000 0.004517 0.7568 0.7568 0.7568
v -0.044000 0.006000 0.000000 0.7020 0.7020 0.7020
v -0.055432 0.006000 0.001760 0.9215 0.9215 0.9215
v -0.044000 0.000000 -0.000000 0.7020 0.7020 0.7020
v -0.055432 0.000000 0.001760 0.7294 0.7294 0.7294
v -0.055200 0.000000 -0.000000 0.7294 0.7294 0.7294
v -0.055200 0.006000 0.000000 0.9215 0.9215 0.9215
v -0.055432 0.006000 -0.001760 0.9215 0.9215 0.9215
v -0.045143 0.006000 -0.004517 0.8509 0.8509 0.8509
v -0.056111 0.006000 -0.003400 0.9215 0.9215 0.9215
v -0.048267 0.000000 -0.007929 0.7725 0.7725 0.7725
v -0.045143 0.000000 -0.004517 0.7568 0.7568 0.7568
v -0.056111 0.000000 -0.003400 0.7294 0.7294 0.7294
v -0.055432 0.000000 -0.001760 0.7294 0.7294 0.7294
v -0.057192 0.000000 -0.004808 0.7333 0.7333 0.7333
v -0.048267 0.006000 -0.007929 0.9255 0.9255 0.9255
v -0.052548 0.000000 -0.009452 0.7608 0.7608 0.7608
v -0.057192 0.006000 -0.004808 0.9176 0.9176 0.9176
v -0.054071 0.006000 -0.013733 0.9294 0.9294 0.9294
v -0.052548 0.006000 -0.009452 0.9294 0.9294 0.9294
v -0.054071 0.000000 -0.013733 0.7725 0.7725 0.7725
v -0.058600 0.000000 -0.005889 0.7333 0.7333 0.7333
v -0.058600 0.006000 -0.005889 0.9176 0.9176 0.9176
v -0.057483 0.000000 -0.016857 0.7725 0.7725 0.7725
v -0.060240 0.000000 -0.006568 0.7294 0.7294 0.7294
v -0.062000 0.006000 -0.018000 0.9333 0.9333 0.9333
v -0.062000 0.006000 -0.006800 0.9176 0.9176 0.9176
v -0.062000 0.000000 -0.018000 0.7764 0.7764 0.7764
v -0.057483 0.006000 -0.016857 0.9333 0.9333 0.9333
v -0.060240 0.006000 -0.006568 0.9176 0.9176 0.9176
v -0.066517 0.006000 -0.016857 0.9333 0.9333 0.9333
v -0.062000 0.000000 -0.006800 0.7255 0.7255 0.7255
v -0.066517 0.000000 -0.016857 0.7764 0.7764 0.7764
v -0.063760 0.006000 -0.006568 0.9176 0.9176 0.9176
v -0.065400 0.000000 -0.005889 0.7333 0.7333 0.7333
v -0.063760 0.000000 -0.006568 0.7255 0.7255 0.7255
v -0.069929 0.006000 -0.013733 0.9333 0.9333 0.9333
v -0.065400 0.006000 -0.005889 0.9176 0.9176 0.9176
v -0.069929 0.000000 -0.013733 0.7725 0.7725 0.7725
v -0.071452 0.000000 -0.009452 0.7608 0.7608 0.7608
v -0.066808 0.006000 -0.004808 0.9176 0.9176 0.9176
v -0.071452 0.006000 -0.009452 0.9294 0.9294 0.9294
v -0.067889 0.006000 -0.003400 0.9215 0.9215 0.9215
v -0.075733 0.000000 -0.007929 0.7725 0.7725 0.7725
v -0.066808 0.000000 -0.004808 0.7333 0.7333 0.7333
v -0.075733 0.006000 -0.007929 0.9333 0.9333 0.9333
v -0.067889 0.000000 -0.003400 0.7294 0.7294 0.7294
v -0.078857 0.006000 -0.004517 0.9333 0.9333 0.9333
v -0.068568 0.006000 -0.001760 0.9215 0.9215 0.9215
v -0.068568 0.000000 -0.001760 0.7294 0.7294 0.7294
v -0.078857 0.000000 -0.004517 0.7725 0.7725 0.7725
v -0.080000 0.000000 -0.000000 0.7725 0.7725 0.7725
v -0.080000 0.006000 -0.000000 0.9333 0.9333 0.9333
v -0.078857 -0.000000 0.004517 0.7725 0.7725 0.7725
v -0.068800 0.006000 -0.000000 0.9176 0.9176 0.9176
v -0.068568 0.000000 0.001760 0.7294 0.7294 0.7294
v -0.068800 0.000000 -0.000000 0.7294 0.7294 0.7294
v -0.078857 0.006000 0.004517 0.9333 0.9333 0.9333
v -0.075733 0.006000 0.007929 0.9333 0.9333 0.9333
v -0.068568 0.006000 0.001760 0.9215 0.9215 0.9215
v -0.067889 0.000000 0.003400 0.7294 0.7294 0.7294
v -0.075733 -0.000000 0.007929 0.7725 0.7725 0.7725
v -0.067889 0.006000 0.003400 0.9215 0.9215 0.9215
v -0.066808 0.006000 0.004808 0.9215 0.9215 0.9215
v -0.069929 -0.000000 0.013733 0.7725 0.7725 0.7725
v -0.071452 -0.000000 0.009452 0.7647 0.7647 0.7647
v -0.066808 -0.000000 0.004808 0.7294 0.7294 0.7294
v -0.065400 -0.000000 0.005889 0.7294 0.7294 0.7294
v -0.069929 0.006000 0.013733 0.9333 0.9333 0.9333
v -0.071452 0.006000 0.009452 0.9294 0.9294 0.9294
v -0.066517 0.006000 0.016857 0.9333 0.9333 0.9333
v -0.065400 0.006000 0.005889 0.9215 0.9215 0.9215
v -0.063760 -0.000000 0.006568 0.7294 0.7294 0.7294
v -0.063760 0.006000 0.006568 0.9215 0.9215 0.9215
v -0.066517 -0.000000 0.016857 0.7725 0.7725 0.7725
v -0.062000 0.006000 0.018000 0.9333 0.9333 0.9333
v -0.046000 0.000000 0.000000 0.7020 0.7020 0.7020
v 0.050000 0.001900 -0.003291 0.8117 0.8117 0.8117
v -0.046000 0.007600 -0.000000 0.7529 0.7529 0.7529
v 0.050000 0.005700 0.003291 0.9019 0.9019 0.9019
v 0.050000 0.007600 -0.000000 0.9490 0.9490 0.9490
v -0.046000 0.001900 0.003291 0.7020 0.7020 0.7020
v 0.050000 0.000000 0.000000 0.7647 0.7647 0.7647
v 0.050000 0.005700 -0.003291 0.9058 0.9058 0.9058
v 0.050000 0.001900 0.003291 0.8000 0.8000 0.8000
v -0.046000 0.005700 0.003291 0.7020 0.7020 0.7020
v -0.046000 0.005700 -0.003291 0.7020 0.7020 0.7020
v -0.046000 0.001900 -0.003291 0.7020 0.7020 0.7020
v -0.046000 -0.001375 0.000000 0.7098 0.7098 0.7098
v -0.042000 -0.001375 0.000000 0.7176 0.7176 0.7176
v -0.046000 0.000236 -0.003889 0.7137 0.7137 0.7137
v -0.042000 0.004125 -0.005500 0.8470 0.8470 0.8470
v -0.046000 0.004125 -0.005500 0.8039 0.8039 0.8039
v -0.042000 0.008014 -0.003889 0.9255 0.9255 0.9255
v -0.046000 0.009625 -0.000000 0.9529 0.9529 0.9529
v -0.042000 0.009625 -0.000000 0.9529 0.9529 0.9529
v -0.046000 0.008014 0.003889 0.9255 0.9255 0.9255
v -0.042000 0.000236 0.003889 0.7529 0.7529 0.7529
v -0.042000 0.004125 0.005500 0.8392 0.8392 0.8392
v -0.046000 0.000236 0.003889 0.7137 0.7137 0.7137
v -0.042000 0.000236 -0.003889 0.7529 0.7529 0.7529
v -0.042000 0.008014 0.003889 0.9215 0.9215 0.9215
v -0.046000 0.004125 0.005500 0.7921 0.7921 0.7921
v -0.046000 0.008014 -0.003889 0.9255 0.9255 0.9255
v -0.038000 -0.001375 0.000000 0.7137 0.7137 0.7137
v -0.038000 0.000236 -0.003889 0.7490 0.7490 0.7490
v -0.038000 0.009625 -0.000000 0.9490 0.9490 0.9490
v -0.038000 0.008014 0.003889 0.9176 0.9176 0.9176
v -0.034000 0.008014 0.003889 0.9255 0.9255 0.9255
v -0.034000 -0.001375 0.000000 0.7294 0.7294 0.7294
v -0.034000 0.000236 -0.003889 0.7608 0.7608 0.7608
v -0.034000 0.004125 -0.005500 0.8549 0.8549 0.8549
v -0.034000 0.008014 -0.003889 0.9294 0.9294 0.9294
v -0.034000 0.009625 -0.000000 0.9568 0.9568 0.9568
v -0.034000 0.004125 0.005500 0.8470 0.8470 0.8470
v -0.034000 0.000236 0.003889 0.7647 0.7647 0.7647
v -0.038000 0.000236 0.003889 0.7529 0.7529 0.7529
v -0.038000 0.004125 0.005500 0.8313 0.8313 0.8313
v -0.038000 0.008014 -0.003889 0.9215 0.9215 0.9215
v -0.038000 0.004125 -0.005500 0.8431 0.8431 0.8431
v 0.026000 0.000236 -0.003889 0.7608 0.7608 0.7608
v 0.026000 -0.001375 0.000000 0.7216 0.7216 0.7216
v 0.022000 0.004125 -0.005500 0.8549 0.8549 0.8549
v 0.022000 0.008014 -0.003889 0.9294 0.9294 0.9294
v 0.022000 0.009625 -0.000000 0.9568 0.9568 0.9568
v 0.026000 0.009625 -0.000000 0.9568 0.9568 0.9568
v 0.022000 0.004125 0.005500 0.8353 0.8353 0.8353
v 0.026000 0.000236 0.003889 0.7333 0.7333 0.7333
v 0.026000 0.004125 -0.005500 0.8549 0.8549 0.8549
v 0.026000 0.008014 -0.003889 0.9294 0.9294 0.9294
v 0.026000 0.008014 0.003889 0.9255 0.9255 0.9255
v 0.026000 0.004125 0.005500 0.7843 0.7843 0.7843
v 0.022000 0.000236 0.003889 0.7608 0.7608 0.7608
v 0.022000 0.008014 0.003889 0.9255 0.9255 0.9255
v 0.022000 0.000236 -0.003889 0.7608 0.7608 0.7608
v 0.022000 -0.001375 0.000000 0.7294 0.7294 0.7294
v 0.028000 0.001300 0.016000 0.7960 0.7960 0.7960
v 0.030000 0.006300 0.010000 0.9215 0.9215 0.9215
v 0.028000 0.006300 -0.001000 0.8509 0.8509 0.8509
v 0.028000 0.001300 -0.001000 0.7020 0.7020 0.7020
v 0.032000 0.001300 0.010000 0.7098 0.7098 0.7098
v 0.046000 0.006300 -0.001000 0.9215 0.9215 0.9215
v 0.032000 0.006300 0.016000 0.9411 0.9411 0.9411
v 0.042000 0.006300 0.016000 0.9058 0.9058 0.9058
v 0.042000 0.001300 0.016000 0.7764 0.7764 0.7764
v 0.042000 0.001300 0.007000 0.7059 0.7059 0.7059
v 0.032000 0.001300 0.016000 0.7451 0.7451 0.7451
v 0.046000 0.001300 -0.001000 0.7020 0.7020 0.7020
v 0.044000 0.001300 0.016000 0.7568 0.7568 0.7568
v 0.028000 0.006300 0.016000 0.9058 0.9058 0.9058
v 0.030000 0.001300 0.016000 0.7568 0.7568 0.7568
v 0.030000 0.006300 0.016000 0.9294 0.9294 0.9294
v 0.030000 0.001300 0.010000 0.7059 0.7059 0.7059
v 0.032000 0.006300 0.010000 0.8980 0.8980 0.8980
v 0.042000 0.006300 0.007000 0.9215 0.9215 0.9215
v 0.044000 0.006300 0.007000 0.9019 0.9019 0.9019
v 0.044000 0.001300 0.007000 0.7098 0.7098 0.7098
v 0.044000 0.006300 0.016000 0.9255 0.9255 0.9255
v 0.046000 0.001300 0.016000 0.8000 0.8000 0.8000
v 0.046000 0.006300 0.016000 0.9137 0.9137 0.9137
vn -0.0000 1.0000 -0.0000
vn -0.0000 -1.0000 -0.0000
vn 0.2452 -0.0000 0.9695
vn -0.1305 -0.0000 -0.9914
vn 0.6754 -0.0000 0.7375
vn -0.3827 -0.0000 -0.9239
vn 0.9421 -0.0000 0.3353
vn -0.6088 -0.0000 -0.7934
vn 0.3353 -0.0000 0.9421
vn -0.7934 -0.0000 -0.6088
vn 0.7375 -0.0000 0.6754
vn -0.9239 -0.0000 -0.3827
vn 0.9695 -0.0000 0.2452
vn -0.9914 -0.0000 -0.1305
vn 0.9695 -0.0000 -0.2452
vn -0.9914 -0.0000 0.1305
vn 0.7375 -0.0000 -0.6754
vn -0.9239 -0.0000 0.3827
vn 0.3353 -0.0000 -0.9421
vn -0.7934 -0.0000 0.6088
vn 0.9421 -0.0000 -0.3353
vn -0.6088 -0.0000 0.7934
vn 0.6754 -0.0000 -0.7375
vn -0.3827 -0.0000 0.9239
vn 0.2452 -0.0000 -0.9695
vn -0.1305 -0.0000 0.9914
vn -0.2452 -0.0000 -0.9695
vn 0.1305 -0.0000 0.9914
vn -0.6754 -0.0000 -0.7375
vn 0.3827 -0.0000 0.9239
vn -0.9421 -0.0000 -0.3353
vn 0.6088 -0.0000 0.7934
vn -0.3353 -0.0000 -0.9421
vn 0.7934 -0.0000 0.6088
vn -0.7375 -0.0000 -0.6754
vn 0.9239 -0.0000 0.3827
vn -0.9695 -0.0000 -0.2452
vn 0.9914 -0.0000 0.1305
vn -0.9695 -0.0000 0.2452
vn 0.9914 -0.0000 -0.1305
vn -0.7375 -0.0000 0.6754
vn 0.9239 -0.0000 -0.3827
vn -0.3353 -0.0000 0.9421
vn 0.7934 -0.0000 -0.6088
vn -0.9421 -0.0000 0.3353
vn 0.6088 -0.0000 -0.7934
vn -0.6754 -0.0000 0.7375
vn 0.3827 -0.0000 -0.9239
vn -0.2452 -0.0000 0.9695
vn 0.1305 -0.0000 -0.9914
vn -0.0000 -0.8660 -0.5000
vn -0.0000 -0.0000 -1.0000
vn -0.0000 0.8660 -0.5000
vn -0.0000 0.8660 0.5000
vn -0.0000 -0.0000 1.0000
vn -0.0000 -0.8660 0.5000
vn 1.0000 -0.0000 -0.0000
vn -1.0000 -0.0000 -0.0000
vn -0.0000 -0.7071 -0.7071
vn -0.0000 0.7071 -0.7071
vn -0.0000 0.7071 0.7071
vn -0.0000 -0.7071 0.7071
vt 0.500000 0.875488
vt 0.503798 0.876449
vt 0.501480 0.885102
vt 0.500000 0.884907
vt 0.486125 0.875488
vt 0.484863 0.875488
vt 0.484863 0.905762
vt 0.486125 0.905762
vt 0.506668 0.879076
vt 0.502859 0.885673
vt 0.487386 0.875488
vt 0.487386 0.905762
vt 0.507949 0.882676
vt 0.504043 0.886582
vt 0.488647 0.875488
vt 0.488647 0.905762
vt 0.511549 0.883957
vt 0.504952 0.887766
vt 0.489909 0.875488
vt 0.489909 0.905762
vt 0.514176 0.886827
vt 0.505523 0.889145
vt 0.491170 0.875488
vt 0.491170 0.905762
vt 0.515137 0.890625
vt 0.505718 0.890625
vt 0.492432 0.875488
vt 0.492432 0.905762
vt 0.514176 0.894423
vt 0.505523 0.892105
vt 0.493693 0.875488
vt 0.493693 0.905762
vt 0.511549 0.897293
vt 0.504952 0.893484
vt 0.494954 0.875488
vt 0.494954 0.905762
vt 0.507949 0.898574
vt 0.504043 0.894668
vt 0.496216 0.875488
vt 0.496216 0.905762
vt 0.506668 0.902174
vt 0.502859 0.895577
vt 0.497477 0.875488
vt 0.497477 0.905762
vt 0.503798 0.904801
vt 0.501480 0.896148
vt 0.498739 0.875488
vt 0.498739 0.905762
vt 0.500000 0.905762
vt 0.500000 0.896343
vt 0.496202 0.904801
vt 0.498520 0.896148
vt 0.501261 0.875488
vt 0.501261 0.905762
vt 0.493332 0.902174
vt 0.497141 0.895577
vt 0.502523 0.875488
vt 0.502523 0.905762
vt 0.492051 0.898574
vt 0.495957 0.894668
vt 0.503784 0.875488
vt 0.503784 0.905762
vt 0.488452 0.897293
vt 0.495048 0.893484
vt 0.505046 0.875488
vt 0.505046 0.905762
vt 0.485824 0.894423
vt 0.494477 0.892105
vt 0.506307 0.875488
vt 0.506307 0.905762
vt 0.484863 0.890625
vt 0.494282 0.890625
vt 0.507568 0.875488
vt 0.507568 0.905762
vt 0.485824 0.886827
vt 0.494477 0.889145
vt 0.508830 0.875488
vt 0.508830 0.905762
vt 0.488452 0.883957
vt 0.495048 0.887766
vt 0.510091 0.875488
vt 0.510091 0.905762
vt 0.492051 0.882676
vt 0.495957 0.886582
vt 0.511353 0.875488
vt 0.511353 0.905762
vt 0.493332 0.879076
vt 0.497141 0.885673
vt 0.512614 0.875488
vt 0.512614 0.905762
vt 0.496202 0.876449
vt 0.498520 0.885102
vt 0.513875 0.875488
vt 0.513875 0.905762
vt 0.515137 0.875488
vt 0.515137 0.905762
vt 0.510703 0.901328
vt 0.489297 0.901328
vt 0.489297 0.879922
vt 0.510703 0.879922
vt 0.484863 0.883723
vt 0.485832 0.875488
vt 0.485832 0.878395
vt 0.493582 0.883723
vt 0.486801 0.878395
vt 0.486801 0.875488
vt 0.491645 0.875488
vt 0.491645 0.879848
vt 0.492613 0.879848
vt 0.492613 0.875488
vt 0.493582 0.875488
vt 0.490010 0.875488
vt 0.484863 0.877910
vt 0.490010 0.877910
vt 0.490615 0.875488
vt 0.490615 0.877910
vt 0.492432 0.877910
vt 0.493037 0.875488
vt 0.493037 0.877910
vt 0.494854 0.875488
vt 0.494854 0.877910
vt 0.497881 0.875488
vt 0.497881 0.877910
vt 0.500605 0.875488
vt 0.500605 0.877910
vt 0.501211 0.875488
vt 0.501211 0.877910
vt 0.503936 0.875488
vt 0.503936 0.877910
vt 0.504541 0.875488
vt 0.504541 0.877910
vt 0.509687 0.875488
vt 0.509687 0.877910
vt 0.515137 0.877910
s 0
usemtl props
f 96/1/1 6/2/1 1/3/1 5/4/1
f 2/2/2 4/1/2 3/4/2 10/3/2
f 6/5/3 96/6/3 4/7/3 2/8/3
f 5/6/4 1/5/4 10/8/4 3/7/4
f 6/2/1 7/9/1 8/10/1 1/3/1
f 9/9/2 2/2/2 10/3/2 12/10/2
f 7/11/5 6/5/5 2/8/5 9/12/5
f 1/5/6 8/11/6 12/12/6 10/8/6
f 7/9/1 18/13/1 14/14/1 8/10/1
f 15/13/2 9/9/2 12/10/2 11/14/2
f 18/15/7 7/11/7 9/12/7 15/16/7
f 8/11/8 14/15/8 11/16/8 12/12/8
f 18/13/1 17/17/1 13/18/1 14/14/1
f 19/17/2 15/13/2 11/14/2 16/18/2
f 17/19/9 18/15/9 15/16/9 19/20/9
f 14/15/10 13/19/10 16/20/10 11/16/10
f 17/17/1 20/21/1 23/22/1 13/18/1
f 21/21/2 19/17/2 16/18/2 25/22/2
f 20/23/11 17/19/11 19/20/11 21/24/11
f 13/19/12 23/23/12 25/24/12 16/20/12
f 20/21/1 22/25/1 27/26/1 23/22/1
f 24/25/2 21/21/2 25/22/2 26/26/2
f 22/27/13 20/23/13 21/24/13 24/28/13
f 23/23/14 27/27/14 26/28/14 25/24/14
f 22/25/1 29/29/1 28/30/1 27/26/1
f 32/29/2 24/25/2 26/26/2 34/30/2
f 29/31/15 22/27/15 24/28/15 32/32/15
f 27/27/16 28/31/16 34/32/16 26/28/16
f 29/29/1 36/33/1 30/34/1 28/30/1
f 31/33/2 32/29/2 34/30/2 33/34/2
f 36/35/17 29/31/17 32/32/17 31/36/17
f 28/31/18 30/35/18 33/36/18 34/32/18
f 36/33/1 40/37/1 38/38/1 30/34/1
f 37/37/2 31/33/2 33/34/2 35/38/2
f 40/39/19 36/35/19 31/36/19 37/40/19
f 30/35/20 38/39/20 35/40/20 33/36/20
f 40/37/1 39/41/1 43/42/1 38/38/1
f 41/41/2 37/37/2 35/38/2 42/42/2
f 39/43/21 40/39/21 37/40/21 41/44/21
f 38/39/22 43/43/22 42/44/22 35/40/22
f 39/41/1 49/45/1 50/46/1 43/42/1
f 44/45/2 41/41/2 42/42/2 45/46/2
f 49/47/23 39/43/23 41/44/23 44/48/23
f 43/43/24 50/47/24 45/48/24 42/44/24
f 49/45/1 46/49/1 47/50/1 50/46/1
f 48/49/2 44/45/2 45/46/2 52/50/2
f 46/1/25 49/47/25 44/48/25 48/49/25
f 50/47/26 47/1/26 52/49/26 45/48/26
f 46/49/1 51/51/1 54/52/1 47/50/1
f 53/51/2 48/49/2 52/50/2 56/52/2
f 51/53/27 46/1/27 48/49/27 53/54/27
f 47/1/28 54/53/28 56/54/28 52/49/28
f 51/51/1 57/55/1 58/56/1 54/52/1
f 59/55/2 53/51/2 56/52/2 55/56/2
f 57/57/29 51/53/29 53/54/29 59/58/29
f 54/53/30 58/57/30 55/58/30 56/54/30
f 57/55/1 62/59/1 61/60/1 58/56/1
f 60/59/2 59/55/2 55/56/2 65/60/2
f 62/61/31 57/57/31 59/58/31 60/62/31
f 58/57/32 61/61/32 65/62/32 55/58/32
f 62/59/1 66/63/1 63/64/1 61/60/1
f 64/63/2 60/59/2 65/60/2 67/64/2
f 66/65/33 62/61/33 60/62/33 64/66/33
f 61/61/34 63/65/34 67/66/34 65/62/34
f 66/63/1 68/67/1 69/68/1 63/64/1
f 71/67/2 64/63/2 67/64/2 70/68/2
f 68/69/35 66/65/35 64/66/35 71/70/35
f 63/65/36 69/69/36 70/70/36 67/66/36
f 68/67/1 73/71/1 75/72/1 69/68/1
f 72/71/2 71/67/2 70/68/2 77/72/2
f 73/73/37 68/69/37 71/70/37 72/74/37
f 69/69/38 75/73/38 77/74/38 70/70/38
f 73/71/1 78/75/1 80/76/1 75/72/1
f 74/75/2 72/71/2 77/72/2 76/76/2
f 78/77/39 73/73/39 72/74/39 74/78/39
f 75/73/40 80/77/40 76/78/40 77/74/40
f 78/75/1 79/79/1 83/80/1 80/76/1
f 82/79/2 74/75/2 76/76/2 81/80/2
f 79/81/41 78/77/41 74/78/41 82/82/41
f 80/77/42 83/81/42 81/82/42 76/78/42
f 79/79/1 90/83/1 84/84/1 83/80/1
f 86/83/2 82/79/2 81/80/2 87/84/2
f 90/85/43 79/81/43 82/82/43 86/86/43
f 83/81/44 84/85/44 87/86/44 81/82/44
f 90/83/1 89/87/1 92/88/1 84/84/1
f 85/87/2 86/83/2 87/84/2 88/88/2
f 89/89/45 90/85/45 86/86/45 85/90/45
f 84/85/46 92/89/46 88/90/46 87/86/46
f 89/87/1 91/91/1 94/92/1 92/88/1
f 95/91/2 85/87/2 88/88/2 93/92/2
f 91/93/47 89/89/47 85/90/47 95/94/47
f 92/89/48 94/93/48 93/94/48 88/90/48
f 91/91/1 96/1/1 5/4/1 94/92/1
f 4/1/2 95/91/2 93/92/2 3/4/2
f 96/95/49 91/93/49 95/94/49 4/96/49
f 94/93/50 5/95/50 3/96/50 93/94/50
s 1
f 97/6/51 108/19/51 98/20/51 103/7/51
f 108/19/52 107/35/52 104/36/52 98/20/52
f 107/35/53 99/1/53 101/49/53 104/36/53
f 99/1/54 106/65/54 100/66/54 101/49/54
f 106/65/55 102/81/55 105/82/55 100/66/55
f 102/81/56 97/95/56 103/96/56 105/82/56
s 0
f 103/25/57 98/74/57 104/28/57 101/71/57 100/27/57 105/73/57
f 102/74/58 106/28/58 99/71/58 107/27/58 108/73/58 97/25/58
s 1
f 109/6/2 111/15/59 121/16/59 110/7/2
f 111/15/59 113/27/52 112/28/52 121/16/59
f 113/27/52 124/39/60 114/40/60 112/28/52
f 124/39/60 115/1/1 116/49/1 114/40/60
f 115/1/1 117/61/61 122/62/61 116/49/1
f 117/61/61 123/73/55 119/74/55 122/62/61
f 123/73/55 120/85/62 118/86/62 119/74/55
f 120/85/62 109/95/2 110/96/2 118/86/62
s 0
f 110/25/57 121/97/57 112/49/57 114/98/57 116/71/57 122/99/57 119/1/57 118/100/57
f 120/97/58 123/49/58 117/98/58 115/71/58 124/99/58 113/1/58 111/100/58 109/25/58
s 1
f 125/6/2 126/15/59 131/16/59 130/7/2
f 126/15/59 140/27/52 132/28/52 131/16/59
f 140/27/52 139/39/60 133/40/60 132/28/52
f 139/39/60 127/1/1 134/49/1 133/40/60
f 127/1/1 128/61/61 129/62/61 134/49/1
f 128/61/61 138/73/55 135/74/55 129/62/61
f 138/73/55 137/85/62 136/86/62 135/74/55
f 137/85/62 125/95/2 130/96/2 136/86/62
s 0
f 130/25/57 131/97/57 132/49/57 133/98/57 134/71/57 129/99/57 135/1/57 136/100/57
f 137/97/58 138/49/58 128/98/58 127/71/58 139/99/58 140/1/58 126/100/58 125/25/58
s 1
f 156/6/2 155/15/59 141/16/59 142/7/2
f 155/15/59 143/27/52 149/28/52 141/16/59
f 143/27/52 144/39/60 150/40/60 149/28/52
f 144/39/60 145/1/1 146/49/1 150/40/60
f 145/1/1 154/61/61 151/62/61 146/49/1
f 154/61/61 147/73/55 152/74/55 151/62/61
f 147/73/55 153/85/62 148/86/62 152/74/55
f 153/85/62 156/95/2 142/96/2 148/86/62
s 0
f 142/25/57 141/97/57 149/49/57 150/98/57 146/71/57 151/99/57 152/1/57 148/100/57
f 153/97/58 147/49/58 154/98/58 145/71/58 144/99/58 143/1/58 155/100/58 156/25/58
f 159/101/1 170/6/1 172/102/1
f 171/102/2 157/6/2 160/101/2
f 159/101/1 172/102/1 158/103/1
f 173/103/2 171/102/2 160/101/2
f 162/104/1 159/101/1 158/103/1
f 173/103/2 160/101/2 168/104/2
f 162/104/1 158/103/1 174/105/1
f 161/105/2 173/103/2 168/104/2
f 162/104/1 174/105/1 163/106/1
f 167/106/2 161/105/2 168/104/2
f 163/106/1 164/107/1 175/108/1
f 166/108/2 165/107/2 167/106/2
f 162/104/1 163/106/1 175/108/1
f 166/108/2 167/106/2 168/104/2
f 162/104/1 175/108/1 176/109/1
f 177/109/2 166/108/2 168/104/2
f 162/104/1 176/109/1 178/110/1
f 169/110/2 177/109/2 168/104/2
f 178/110/1 180/111/1 162/104/1
f 168/104/2 179/111/2 169/110/2
f 170/112/58 159/6/58 160/113/58 157/114/58
f 172/115/55 170/112/55 157/114/55 171/116/55
f 158/27/57 172/115/57 171/116/57 173/117/57
f 174/118/55 158/27/55 173/117/55 161/119/55
f 163/120/58 174/118/58 161/119/58 167/121/58
f 164/122/55 163/120/55 167/121/55 165/123/55
f 175/124/57 164/122/57 165/123/57 166/125/57
f 176/126/55 175/124/55 166/125/55 177/127/55
f 178/128/58 176/126/58 177/127/58 169/129/58
f 180/130/55 178/128/55 169/129/55 179/131/55
f 162/132/57 180/130/57 179/131/57 168/133/57
f 159/95/52 162/132/52 168/133/52 160/134/52
