# Blender 4.5.14 LTS
# www.blender.org
mtllib keycard_red.mtl
o keycard_red
v -0.043000 0.000000 0.027000 0.7960 0.7960 0.7960
v 0.043000 0.000000 0.027000 0.7960 0.7960 0.7960
v -0.043000 0.001400 -0.027000 0.9019 0.9019 0.9019
v -0.043000 0.000000 -0.027000 0.7960 0.7960 0.7960
v -0.043000 0.001400 0.027000 0.8980 0.8980 0.8980
v 0.043000 0.001400 0.027000 0.9019 0.9019 0.9019
v 0.043000 0.001400 -0.027000 0.9019 0.9019 0.9019
v 0.043000 0.000000 -0.027000 0.8000 0.8000 0.8000
vn -0.0000 -0.0000 1.0000
vn -0.0000 -0.0000 -1.0000
vn -1.0000 -0.0000 -0.0000
vn 1.0000 -0.0000 -0.0000
vn -0.0000 1.0000 -0.0000
vn -0.0000 -1.0000 -0.0000
vt 0.453613 0.875488
vt 0.483887 0.875488
vt 0.483887 0.875981
vt 0.453613 0.875981
vt 0.483887 0.876273
vt 0.453613 0.876273
vt 0.844238 0.961426
vt 0.905762 0.961426
vt 0.905762 0.999512
vt 0.844238 0.999512
vt 0.219238 0.875488
vt 0.265137 0.875488
vt 0.265137 0.905762
vt 0.219238 0.905762
s 0
usemtl props
f 1/1/1 2/2/1 6/3/1 5/4/1
f 8/1/2 4/2/2 3/3/2 7/4/2
f 4/1/3 1/2/3 5/5/3 3/6/3
f 2/1/4 8/2/4 7/5/4 6/6/4
f 5/7/5 6/8/5 7/9/5 3/10/5
f 4/11/6 8/12/6 2/13/6 1/14/6
