# Blender 4.5.14 LTS
# www.blender.org
mtllib map_folded.mtl
o map_folded
v -0.050000 0.000600 0.105000 0.7333 0.7333 0.7333
v 0.050000 0.000600 0.105000 0.7333 0.7333 0.7333
v 0.050000 0.000600 -0.105000 0.7372 0.7372 0.7372
v -0.050000 0.000600 -0.105000 0.7372 0.7372 0.7372
v -0.050000 0.000300 -0.105000 0.7020 0.7020 0.7020
v 0.050000 0.000300 -0.105000 0.7020 0.7020 0.7020
v 0.050000 0.000300 0.105000 0.7020 0.7020 0.7020
v -0.050000 0.000300 0.105000 0.7020 0.7020 0.7020
vn -0.0000 1.0000 -0.0000
vn -0.0000 -1.0000 -0.0000
vt 0.140788 0.937988
vt 0.171712 0.937988
vt 0.171712 0.999512
vt 0.140788 0.999512
vt 0.578613 0.905762
vt 0.608887 0.905762
vt 0.608887 0.875488
vt 0.578613 0.875488
s 0
usemtl props
f 1/1/1 2/2/1 3/3/1 4/4/1
f 5/5/2 6/6/2 7/7/2 8/8/2
o map_folded_left
v -0.050000 0.001600 0.105000 0.7529 0.7529 0.7529
v 0.050000 0.001600 0.105000 0.7216 0.7216 0.7216
v 0.050000 0.001600 -0.105000 0.7451 0.7451 0.7451
v -0.050000 0.001600 -0.105000 0.7568 0.7568 0.7568
v -0.050000 0.001300 -0.105000 0.7020 0.7020 0.7020
v 0.050000 0.001300 -0.105000 0.7020 0.7020 0.7020
v 0.050000 0.001300 0.105000 0.7020 0.7020 0.7020
v -0.050000 0.001300 0.105000 0.7020 0.7020 0.7020
vn -0.0000 1.0000 -0.0000
vn -0.0000 -1.0000 -0.0000
vt 0.578613 0.875488
vt 0.608887 0.875488
vt 0.608887 0.905762
vt 0.578613 0.905762
vt 0.140788 0.999512
vt 0.109863 0.999512
vt 0.109863 0.937988
vt 0.140788 0.937988
s 0
usemtl props
f 9/9/3 10/10/3 11/11/3 12/12/3
f 13/13/4 14/14/4 15/15/4 16/16/4
o map_folded_right
v -0.050000 0.002600 0.105000 1.0000 1.0000 1.0000
v 0.050000 0.002600 0.105000 1.0000 1.0000 1.0000
v 0.050000 0.002600 -0.105000 1.0000 1.0000 1.0000
v -0.050000 0.002600 -0.105000 1.0000 1.0000 1.0000
v -0.050000 0.002300 -0.105000 0.7020 0.7020 0.7020
v 0.050000 0.002300 -0.105000 0.7020 0.7020 0.7020
v 0.050000 0.002300 0.105000 0.7020 0.7020 0.7020
v -0.050000 0.002300 0.105000 0.7020 0.7020 0.7020
vn -0.0000 1.0000 -0.0000
vn -0.0000 -1.0000 -0.0000
vt 0.453613 0.937988
vt 0.483887 0.937988
vt 0.483887 0.999512
vt 0.453613 0.999512
vt 0.202637 0.999512
vt 0.171712 0.999512
vt 0.171712 0.937988
vt 0.202637 0.937988
s 0
usemtl props
f 17/17/5 18/18/5 19/19/5 20/20/5
f 21/21/6 22/22/6 23/23/6 24/24/6
