# Blender 4.5.14 LTS
# www.blender.org
mtllib pill_bottle.mtl
o pill_bottle
v 0.005562 0.000000 -0.017119 0.7608 0.7608 0.7608
v -0.005562 0.000000 -0.017119 0.7568 0.7568 0.7568
v -0.018000 0.000000 -0.000000 0.7529 0.7529 0.7529
v 0.000000 0.000000 0.000000 0.7020 0.7020 0.7020
v 0.005562 0.000000 0.017119 0.7529 0.7529 0.7529
v 0.014562 0.000000 0.010580 0.7568 0.7568 0.7568
v 0.015371 0.004000 -0.011168 0.8470 0.8470 0.8470
v 0.014562 0.000000 -0.010580 0.7568 0.7568 0.7568
v -0.005871 0.004000 -0.018070 0.8509 0.8509 0.8509
v -0.014562 0.000000 -0.010580 0.7568 0.7568 0.7568
v -0.014562 0.000000 0.010580 0.7529 0.7529 0.7529
v -0.015371 0.004000 0.011168 0.8470 0.8470 0.8470
v -0.005562 0.000000 0.017119 0.7529 0.7529 0.7529
v 0.005871 0.004000 0.018070 0.8509 0.8509 0.8509
v 0.018000 0.000000 0.000000 0.7568 0.7568 0.7568
v 0.019000 0.004000 0.000000 0.8509 0.8509 0.8509
v 0.019000 0.060000 0.000000 0.9725 0.9725 0.9725
v 0.005871 0.004000 -0.018070 0.8470 0.8470 0.8470
v 0.005871 0.060000 -0.018070 0.9764 0.9764 0.9764
v -0.015371 0.060000 -0.011168 0.9764 0.9764 0.9764
v -0.015371 0.004000 -0.011168 0.8509 0.8509 0.8509
v -0.019000 0.060000 -0.000000 0.9764 0.9764 0.9764
v -0.019000 0.004000 -0.000000 0.8470 0.8470 0.8470
v -0.005871 0.004000 0.018070 0.8470 0.8470 0.8470
v -0.005871 0.060000 0.018070 0.9764 0.9764 0.9764
v 0.005871 0.060000 0.018070 0.9764 0.9764 0.9764
v 0.015371 0.004000 0.011168 0.8509 0.8509 0.8509
v 0.015371 0.060000 -0.011168 0.9764 0.9764 0.9764
v 0.012944 0.064000 -0.009405 0.7020 0.7020 0.7020
v 0.004944 0.064000 -0.015217 0.7020 0.7020 0.7020
v -0.005871 0.060000 -0.018070 0.9764 0.9764 0.9764
v -0.004944 0.064000 -0.015217 0.7020 0.7020 0.7020
v -0.012944 0.064000 0.009405 0.7020 0.7020 0.7020
v -0.015371 0.060000 0.011168 0.9764 0.9764 0.9764
v -0.004944 0.064000 0.015217 0.7020 0.7020 0.7020
v 0.015371 0.060000 0.011168 0.9804 0.9804 0.9804
v 0.004944 0.064000 0.015217 0.7020 0.7020 0.7020
v 0.016000 0.064000 0.000000 0.7020 0.7020 0.7020
v 0.016000 0.070000 0.000000 0.7020 0.7020 0.7020
v 0.004944 0.070000 -0.015217 0.7059 0.7059 0.7059
v -0.004944 0.070000 -0.015217 0.7059 0.7059 0.7059
v -0.012944 0.064000 -0.009405 0.7020 0.7020 0.7020
v -0.016000 0.064000 -0.000000 0.7020 0.7020 0.7020
v -0.016000 0.070000 -0.000000 0.7020 0.7020 0.7020
v 0.004944 0.070000 0.015217 0.7020 0.7020 0.7020
v 0.012944 0.064000 0.009405 0.7020 0.7020 0.7020
v 0.012944 0.070000 -0.009405 0.7020 0.7020 0.7020
v 0.000000 0.070000 0.000000 0.7020 0.7020 0.7020
v -0.012944 0.070000 -0.009405 0.7020 0.7020 0.7020
v -0.012944 0.070000 0.009405 0.7059 0.7059 0.7059
v -0.004944 0.070000 0.015217 0.7020 0.7020 0.7020
v 0.012944 0.070000 0.009405 0.7059 0.7059 0.7059
v 0.013000 0.070000 0.004000 0.7020 0.7020 0.7020
v -0.013000 0.066000 -0.004000 0.7020 0.7020 0.7020
v 0.013000 0.070000 -0.004000 0.7020 0.7020 0.7020
v -0.013000 0.070000 -0.004000 0.7020 0.7020 0.7020
v 0.013000 0.066000 0.004000 0.7020 0.7020 0.7020
v 0.013000 0.066000 -0.004000 0.7020 0.7020 0.7020
v -0.013000 0.070000 0.004000 0.7020 0.7020 0.7020
v -0.013000 0.066000 0.004000 0.7020 0.7020 0.7020
vn -0.0000 -1.0000 -0.0000
vn 0.9701 -0.2425 -0.0000
vn 0.7849 -0.2425 -0.5702
vn 0.8032 -0.1194 -0.5836
vn 0.9929 -0.1194 -0.0000
vn 0.2998 -0.2425 -0.9227
vn 0.3068 -0.1194 -0.9443
vn -0.2998 -0.2425 -0.9227
vn -0.3068 -0.1194 -0.9443
vn -0.7849 -0.2425 -0.5702
vn -0.8032 -0.1194 -0.5836
vn -0.9701 -0.2425 -0.0000
vn -0.9929 -0.1194 -0.0000
vn -0.7849 -0.2425 0.5702
vn -0.8032 -0.1194 0.5836
vn -0.2998 -0.2425 0.9227
vn -0.3068 -0.1194 0.9443
vn 0.2998 -0.2425 0.9227
vn 0.3068 -0.1194 0.9443
vn 0.7849 -0.2425 0.5702
vn 0.8032 -0.1194 0.5836
vn 0.7720 0.2990 -0.5609
vn 0.9543 0.2990 -0.0000
vn 0.2949 0.2990 -0.9076
vn -0.2949 0.2990 -0.9076
vn -0.7720 0.2990 -0.5609
vn -0.9543 0.2990 -0.0000
vn -0.7720 0.2990 0.5609
vn -0.2949 0.2990 0.9076
vn 0.2949 0.2990 0.9076
vn 0.7720 0.2990 0.5609
vn 0.7618 0.3366 -0.5535
vn 0.9416 0.3366 -0.0000
vn 0.2910 0.3366 -0.8956
vn -0.2910 0.3366 -0.8956
vn -0.7618 0.3366 -0.5535
vn -0.9416 0.3366 -0.0000
vn -0.7618 0.3366 0.5535
vn -0.2910 0.3366 0.8956
vn 0.2910 0.3366 0.8956
vn 0.7618 0.3366 0.5535
vn 0.8090 -0.0000 -0.5878
vn 1.0000 -0.0000 -0.0000
vn 0.3090 -0.0000 -0.9511
vn -0.3090 -0.0000 -0.9511
vn -0.8090 -0.0000 -0.5878
vn -1.0000 -0.0000 -0.0000
vn -0.8090 -0.0000 0.5878
vn -0.3090 -0.0000 0.9511
vn 0.3090 -0.0000 0.9511
vn 0.8090 -0.0000 0.5878
vn -0.0000 1.0000 -0.0000
vn -0.0000 -0.0000 1.0000
vn -0.0000 -0.0000 -1.0000
vt 0.003564 0.875488
vt 0.006641 0.880672
vt 0.000488 0.880672
vt 0.009717 0.875488
vt 0.012793 0.880672
vt 0.015869 0.875488
vt 0.018945 0.880672
vt 0.022021 0.875488
vt 0.025098 0.880672
vt 0.028174 0.875488
vt 0.031250 0.880672
vt 0.034326 0.875488
vt 0.037402 0.880672
vt 0.040479 0.875488
vt 0.043555 0.880672
vt 0.046631 0.875488
vt 0.049707 0.880672
vt 0.052783 0.875488
vt 0.055859 0.880672
vt 0.058936 0.875488
vt 0.062012 0.880672
vt 0.006641 0.881859
vt 0.000488 0.881859
vt 0.012793 0.881859
vt 0.018945 0.881859
vt 0.025098 0.881859
vt 0.031250 0.881859
vt 0.037402 0.881859
vt 0.043555 0.881859
vt 0.049707 0.881859
vt 0.055859 0.881859
vt 0.062012 0.881859
vt 0.006641 0.897986
vt 0.000488 0.897986
vt 0.012793 0.897986
vt 0.018945 0.897986
vt 0.025098 0.897986
vt 0.031250 0.897986
vt 0.037402 0.897986
vt 0.043555 0.897986
vt 0.049707 0.897986
vt 0.055859 0.897986
vt 0.062012 0.897986
vt 0.006641 0.899426
vt 0.000488 0.899426
vt 0.012793 0.899426
vt 0.018945 0.899426
vt 0.025098 0.899426
vt 0.031250 0.899426
vt 0.037402 0.899426
vt 0.043555 0.899426
vt 0.049707 0.899426
vt 0.055859 0.899426
vt 0.062012 0.899426
vt 0.006641 0.901154
vt 0.000488 0.901154
vt 0.012793 0.901154
vt 0.018945 0.901154
vt 0.025098 0.901154
vt 0.031250 0.901154
vt 0.037402 0.901154
vt 0.043555 0.901154
vt 0.049707 0.901154
vt 0.055859 0.901154
vt 0.062012 0.901154
vt 0.003564 0.905762
vt 0.009717 0.905762
vt 0.015869 0.905762
vt 0.022021 0.905762
vt 0.028174 0.905762
vt 0.034326 0.905762
vt 0.040479 0.905762
vt 0.046631 0.905762
vt 0.052783 0.905762
vt 0.058936 0.905762
vt 0.570801 0.867676
vt 0.577637 0.867676
vt 0.577637 0.868727
vt 0.570801 0.868727
vt 0.574902 0.867676
vt 0.574902 0.869727
vt 0.570801 0.869727
vt 0.577637 0.869779
vt 0.570801 0.869779
s 1
usemtl props
f 4/1/1 8/2/1 15/3/1
f 4/4/1 1/5/1 8/2/1
f 4/6/1 2/7/1 1/5/1
f 4/8/1 10/9/1 2/7/1
f 4/10/1 3/11/1 10/9/1
f 4/12/1 11/13/1 3/11/1
f 4/14/1 13/15/1 11/13/1
f 4/16/1 5/17/1 13/15/1
f 4/18/1 6/19/1 5/17/1
f 4/20/1 15/21/1 6/19/1
f 15/3/2 8/2/3 7/22/4 16/23/5
f 8/2/3 1/5/6 18/24/7 7/22/4
f 1/5/6 2/7/8 9/25/9 18/24/7
f 2/7/8 10/9/10 21/26/11 9/25/9
f 10/9/10 3/11/12 23/27/13 21/26/11
f 3/11/12 11/13/14 12/28/15 23/27/13
f 11/13/14 13/15/16 24/29/17 12/28/15
f 13/15/16 5/17/18 14/30/19 24/29/17
f 5/17/18 6/19/20 27/31/21 14/30/19
f 6/19/20 15/21/2 16/32/5 27/31/21
f 16/23/5 7/22/4 28/33/22 17/34/23
f 7/22/4 18/24/7 19/35/24 28/33/22
f 18/24/7 9/25/9 31/36/25 19/35/24
f 9/25/9 21/26/11 20/37/26 31/36/25
f 21/26/11 23/27/13 22/38/27 20/37/26
f 23/27/13 12/28/15 34/39/28 22/38/27
f 12/28/15 24/29/17 25/40/29 34/39/28
f 24/29/17 14/30/19 26/41/30 25/40/29
f 14/30/19 27/31/21 36/42/31 26/41/30
f 27/31/21 16/32/5 17/43/23 36/42/31
f 17/34/23 28/33/22 29/44/32 38/45/33
f 28/33/22 19/35/24 30/46/34 29/44/32
f 19/35/24 31/36/25 32/47/35 30/46/34
f 31/36/25 20/37/26 42/48/36 32/47/35
f 20/37/26 22/38/27 43/49/37 42/48/36
f 22/38/27 34/39/28 33/50/38 43/49/37
f 34/39/28 25/40/29 35/51/39 33/50/38
f 25/40/29 26/41/30 37/52/40 35/51/39
f 26/41/30 36/42/31 46/53/41 37/52/40
f 36/42/31 17/43/23 38/54/33 46/53/41
f 38/45/33 29/44/32 47/55/42 39/56/43
f 29/44/32 30/46/34 40/57/44 47/55/42
f 30/46/34 32/47/35 41/58/45 40/57/44
f 32/47/35 42/48/36 49/59/46 41/58/45
f 42/48/36 43/49/37 44/60/47 49/59/46
f 43/49/37 33/50/38 50/61/48 44/60/47
f 33/50/38 35/51/39 51/62/49 50/61/48
f 35/51/39 37/52/40 45/63/50 51/62/49
f 37/52/40 46/53/41 52/64/51 45/63/50
f 46/53/41 38/54/33 39/65/43 52/64/51
f 39/56/52 47/55/52 48/66/52
f 47/55/52 40/57/52 48/67/52
f 40/57/52 41/58/52 48/68/52
f 41/58/52 49/59/52 48/69/52
f 49/59/52 44/60/52 48/70/52
f 44/60/52 50/61/52 48/71/52
f 50/61/52 51/62/52 48/72/52
f 51/62/52 45/63/52 48/73/52
f 45/63/52 52/64/52 48/74/52
f 52/64/52 39/65/52 48/75/52
s 0
f 60/76/53 57/77/53 53/78/53 59/79/53
f 58/76/54 54/77/54 56/78/54 55/79/54
f 54/76/47 60/80/47 59/81/47 56/82/47
f 57/76/43 58/80/43 55/81/43 53/82/43
f 59/76/52 53/77/52 55/83/52 56/84/52
f 54/76/1 58/77/1 57/83/1 60/84/1
o pill_bottle_cap
v 0.016585 0.064000 -0.012050 0.9372 0.9372 0.9372
v -0.006335 0.064000 -0.019497 0.9411 0.9411 0.9411
v 0.000000 0.064000 0.000000 0.7843 0.7843 0.7843
v -0.006335 0.064000 0.019497 0.9372 0.9372 0.9372
v -0.016585 0.064000 0.012050 0.9411 0.9411 0.9411
v 0.006335 0.064000 0.019497 0.9451 0.9451 0.9451
v 0.020500 0.064000 0.000000 0.9372 0.9372 0.9372
v 0.006335 0.064000 -0.019497 0.9372 0.9372 0.9372
v -0.016585 0.064000 -0.012050 0.9451 0.9451 0.9451
v -0.006335 0.082000 -0.019497 1.0000 1.0000 1.0000
v -0.020500 0.064000 -0.000000 0.9411 0.9411 0.9411
v -0.006335 0.082000 0.019497 1.0000 1.0000 1.0000
v 0.016585 0.064000 0.012050 0.9372 0.9372 0.9372
v 0.020500 0.082000 0.000000 1.0000 1.0000 1.0000
v 0.017000 0.085000 0.000000 1.0000 1.0000 1.0000
v 0.016585 0.082000 -0.012050 1.0000 1.0000 1.0000
v 0.006335 0.082000 -0.019497 1.0000 1.0000 1.0000
v 0.005253 0.085000 -0.016168 1.0000 1.0000 1.0000
v -0.005253 0.085000 -0.016168 1.0000 1.0000 1.0000
v -0.016585 0.082000 -0.012050 1.0000 1.0000 1.0000
v -0.020500 0.082000 -0.000000 1.0000 1.0000 1.0000
v -0.016585 0.082000 0.012050 1.0000 1.0000 1.0000
v -0.013753 0.085000 0.009992 1.0000 1.0000 1.0000
v -0.005253 0.085000 0.016168 1.0000 1.0000 1.0000
v 0.006335 0.082000 0.019497 1.0000 1.0000 1.0000
v 0.016585 0.082000 0.012050 1.0000 1.0000 1.0000
v 0.013753 0.085000 0.009992 1.0000 1.0000 1.0000
v 0.005253 0.085000 0.016168 1.0000 1.0000 1.0000
v 0.013753 0.085000 -0.009992 1.0000 1.0000 1.0000
v 0.000000 0.085000 0.000000 1.0000 1.0000 1.0000
v -0.013753 0.085000 -0.009992 1.0000 1.0000 1.0000
v -0.017000 0.085000 -0.000000 1.0000 1.0000 1.0000
vn -0.0000 -1.0000 -0.0000
vn 1.0000 -0.0000 -0.0000
vn 0.8090 -0.0000 -0.5878
vn 0.7451 0.3895 -0.5414
vn 0.9210 0.3895 -0.0000
vn 0.3090 -0.0000 -0.9511
vn 0.2846 0.3895 -0.8760
vn -0.3090 -0.0000 -0.9511
vn -0.2846 0.3895 -0.8760
vn -0.8090 -0.0000 -0.5878
vn -0.7451 0.3895 -0.5414
vn -1.0000 -0.0000 -0.0000
vn -0.9210 0.3895 -0.0000
vn -0.8090 -0.0000 0.5878
vn -0.7451 0.3895 0.5414
vn -0.3090 -0.0000 0.9511
vn -0.2846 0.3895 0.8760
vn 0.3090 -0.0000 0.9511
vn 0.2846 0.3895 0.8760
vn 0.8090 -0.0000 0.5878
vn 0.7451 0.3895 0.5414
vn 0.3275 0.9144 -0.2380
vn 0.4049 0.9144 -0.0000
vn 0.1251 0.9144 -0.3851
vn -0.1251 0.9144 -0.3851
vn -0.3275 0.9144 -0.2380
vn -0.4049 0.9144 -0.0000
vn -0.3275 0.9144 0.2380
vn -0.1251 0.9144 0.3851
vn 0.1251 0.9144 0.3851
vn 0.3275 0.9144 0.2380
vn -0.0000 1.0000 -0.0000
vt 0.189502 0.859863
vt 0.191016 0.864859
vt 0.187988 0.864859
vt 0.192529 0.859863
vt 0.194043 0.864859
vt 0.195557 0.859863
vt 0.197070 0.864859
vt 0.198584 0.859863
vt 0.200098 0.864859
vt 0.201611 0.859863
vt 0.203125 0.864859
vt 0.204639 0.859863
vt 0.206152 0.864859
vt 0.207666 0.859863
vt 0.209180 0.864859
vt 0.210693 0.859863
vt 0.212207 0.864859
vt 0.213721 0.859863
vt 0.215234 0.864859
vt 0.216748 0.859863
vt 0.218262 0.864859
vt 0.191016 0.869246
vt 0.187988 0.869246
vt 0.194043 0.869246
vt 0.197070 0.869246
vt 0.200098 0.869246
vt 0.203125 0.869246
vt 0.206152 0.869246
vt 0.209180 0.869246
vt 0.212207 0.869246
vt 0.215234 0.869246
vt 0.218262 0.869246
vt 0.191016 0.870369
vt 0.187988 0.870369
vt 0.194043 0.870369
vt 0.197070 0.870369
vt 0.200098 0.870369
vt 0.203125 0.870369
vt 0.206152 0.870369
vt 0.209180 0.870369
vt 0.212207 0.870369
vt 0.215234 0.870369
vt 0.218262 0.870369
vt 0.189502 0.874512
vt 0.192529 0.874512
vt 0.195557 0.874512
vt 0.198584 0.874512
vt 0.201611 0.874512
vt 0.204639 0.874512
vt 0.207666 0.874512
vt 0.210693 0.874512
vt 0.213721 0.874512
vt 0.216748 0.874512
s 1
usemtl props
f 63/85/55 61/86/55 67/87/55
f 63/88/55 68/89/55 61/86/55
f 63/90/55 62/91/55 68/89/55
f 63/92/55 69/93/55 62/91/55
f 63/94/55 71/95/55 69/93/55
f 63/96/55 65/97/55 71/95/55
f 63/98/55 64/99/55 65/97/55
f 63/100/55 66/101/55 64/99/55
f 63/102/55 73/103/55 66/101/55
f 63/104/55 67/105/55 73/103/55
f 67/87/56 61/86/57 76/106/58 74/107/59
f 61/86/57 68/89/60 77/108/61 76/106/58
f 68/89/60 62/91/62 70/109/63 77/108/61
f 62/91/62 69/93/64 80/110/65 70/109/63
f 69/93/64 71/95/66 81/111/67 80/110/65
f 71/95/66 65/97/68 82/112/69 81/111/67
f 65/97/68 64/99/70 72/113/71 82/112/69
f 64/99/70 66/101/72 85/114/73 72/113/71
f 66/101/72 73/103/74 86/115/75 85/114/73
f 73/103/74 67/105/56 74/116/59 86/115/75
f 74/107/59 76/106/58 89/117/76 75/118/77
f 76/106/58 77/108/61 78/119/78 89/117/76
f 77/108/61 70/109/63 79/120/79 78/119/78
f 70/109/63 80/110/65 91/121/80 79/120/79
f 80/110/65 81/111/67 92/122/81 91/121/80
f 81/111/67 82/112/69 83/123/82 92/122/81
f 82/112/69 72/113/71 84/124/83 83/123/82
f 72/113/71 85/114/73 88/125/84 84/124/83
f 85/114/73 86/115/75 87/126/85 88/125/84
f 86/115/75 74/116/59 75/127/77 87/126/85
f 75/118/77 89/117/76 90/128/86
f 89/117/76 78/119/78 90/129/86
f 78/119/78 79/120/79 90/130/86
f 79/120/79 91/121/80 90/131/86
f 91/121/80 92/122/81 90/132/86
f 92/122/81 83/123/82 90/133/86
f 83/123/82 84/124/83 90/134/86
f 84/124/83 88/125/84 90/135/86
f 88/125/84 87/126/85 90/136/86
f 87/126/85 75/127/77 90/137/86
