# Blender 4.5.14 LTS
# www.blender.org
mtllib typewriter_save.mtl
o typewriter_save
v 0.150000 0.095000 -0.130000 0.8431 0.8431 0.8431
v 0.150000 0.115000 -0.070000 0.7020 0.7020 0.7020
v 0.150000 0.085000 0.020000 0.9607 0.9607 0.9607
v -0.150000 0.030000 0.150000 0.9098 0.9098 0.9098
v -0.150000 0.000000 0.150000 0.7960 0.7960 0.7960
v 0.150000 0.000000 -0.130000 0.8000 0.8000 0.8000
v -0.150000 0.000000 -0.130000 0.7960 0.7960 0.7960
v -0.150000 0.095000 -0.130000 0.8470 0.8470 0.8470
v -0.150000 0.115000 -0.070000 0.7020 0.7020 0.7020
v 0.150000 0.030000 0.150000 0.9137 0.9137 0.9137
v -0.150000 0.085000 0.020000 0.9568 0.9568 0.9568
v 0.150000 0.000000 0.150000 0.8000 0.8000 0.8000
v 0.130000 0.018000 0.134000 0.7020 0.7020 0.7020
v -0.130000 0.030000 0.134000 0.7020 0.7020 0.7020
v -0.130000 0.018000 0.128000 0.7137 0.7137 0.7137
v -0.130000 0.030000 0.128000 0.7137 0.7137 0.7137
v 0.130000 0.018000 0.128000 0.7176 0.7176 0.7176
v 0.130000 0.030000 0.128000 0.7137 0.7137 0.7137
v 0.130000 0.030000 0.134000 0.7020 0.7020 0.7020
v -0.130000 0.018000 0.134000 0.7020 0.7020 0.7020
v -0.103200 0.038000 0.135000 0.8706 0.8706 0.8706
v -0.106600 0.034000 0.129111 0.7176 0.7176 0.7176
v -0.113400 0.038000 0.129111 0.7843 0.7843 0.7843
v -0.113400 0.034000 0.129111 0.7098 0.7098 0.7098
v -0.116800 0.038000 0.135000 0.8784 0.8784 0.8784
v -0.113400 0.034000 0.140889 0.8117 0.8117 0.8117
v -0.106600 0.034000 0.140889 0.8039 0.8039 0.8039
v -0.113400 0.038000 0.140889 0.9019 0.9019 0.9019
v -0.103200 0.034000 0.135000 0.7098 0.7098 0.7098
v -0.106600 0.038000 0.129111 0.7882 0.7882 0.7882
v -0.106600 0.038000 0.140889 0.9019 0.9019 0.9019
v -0.116800 0.034000 0.135000 0.7020 0.7020 0.7020
v -0.084600 0.034000 0.129111 0.7176 0.7176 0.7176
v -0.084600 0.038000 0.129111 0.7843 0.7843 0.7843
v -0.091400 0.034000 0.129111 0.7098 0.7098 0.7098
v -0.094800 0.038000 0.135000 0.8706 0.8706 0.8706
v -0.094800 0.034000 0.135000 0.7020 0.7020 0.7020
v -0.091400 0.038000 0.140889 0.9019 0.9019 0.9019
v -0.091400 0.034000 0.140889 0.8078 0.8078 0.8078
v -0.081200 0.038000 0.135000 0.8666 0.8666 0.8666
v -0.084600 0.038000 0.140889 0.9019 0.9019 0.9019
v -0.091400 0.038000 0.129111 0.7804 0.7804 0.7804
v -0.084600 0.034000 0.140889 0.8039 0.8039 0.8039
v -0.081200 0.034000 0.135000 0.7098 0.7098 0.7098
v -0.062600 0.034000 0.129111 0.7216 0.7216 0.7216
v -0.062600 0.038000 0.129111 0.7843 0.7843 0.7843
v -0.069400 0.038000 0.129111 0.7804 0.7804 0.7804
v -0.069400 0.038000 0.140889 0.8980 0.8980 0.8980
v -0.059200 0.038000 0.135000 0.8666 0.8666 0.8666
v -0.062600 0.038000 0.140889 0.9019 0.9019 0.9019
v -0.072800 0.038000 0.135000 0.8666 0.8666 0.8666
v -0.062600 0.034000 0.140889 0.8039 0.8039 0.8039
v -0.069400 0.034000 0.140889 0.8078 0.8078 0.8078
v -0.072800 0.034000 0.135000 0.7020 0.7020 0.7020
v -0.069400 0.034000 0.129111 0.7137 0.7137 0.7137
v -0.059200 0.034000 0.135000 0.7098 0.7098 0.7098
v -0.040600 0.034000 0.129111 0.7216 0.7216 0.7216
v -0.047400 0.034000 0.129111 0.7137 0.7137 0.7137
v -0.047400 0.038000 0.129111 0.7764 0.7764 0.7764
v -0.047400 0.038000 0.140889 0.8941 0.8941 0.8941
v -0.050800 0.038000 0.135000 0.8627 0.8627 0.8627
v -0.047400 0.034000 0.140889 0.8078 0.8078 0.8078
v -0.040600 0.038000 0.140889 0.8980 0.8980 0.8980
v -0.040600 0.034000 0.140889 0.8039 0.8039 0.8039
v -0.037200 0.038000 0.135000 0.8666 0.8666 0.8666
v -0.040600 0.038000 0.129111 0.7804 0.7804 0.7804
v -0.050800 0.034000 0.135000 0.7020 0.7020 0.7020
v -0.037200 0.034000 0.135000 0.7098 0.7098 0.7098
v -0.015200 0.034000 0.135000 0.7098 0.7098 0.7098
v -0.018600 0.034000 0.129111 0.7176 0.7176 0.7176
v -0.025400 0.034000 0.129111 0.7176 0.7176 0.7176
v -0.018600 0.038000 0.129111 0.7764 0.7764 0.7764
v -0.028800 0.034000 0.135000 0.7020 0.7020 0.7020
v -0.018600 0.034000 0.140889 0.8039 0.8039 0.8039
v -0.025400 0.038000 0.140889 0.8941 0.8941 0.8941
v -0.015200 0.038000 0.135000 0.8666 0.8666 0.8666
v -0.018600 0.038000 0.140889 0.8980 0.8980 0.8980
v -0.025400 0.038000 0.129111 0.7764 0.7764 0.7764
v -0.028800 0.038000 0.135000 0.8627 0.8627 0.8627
v -0.025400 0.034000 0.140889 0.8039 0.8039 0.8039
v 0.006800 0.034000 0.135000 0.7059 0.7059 0.7059
v 0.003400 0.034000 0.129111 0.7176 0.7176 0.7176
v -0.003400 0.038000 0.129111 0.7764 0.7764 0.7764
v -0.003400 0.034000 0.129111 0.7176 0.7176 0.7176
v -0.006800 0.034000 0.135000 0.7059 0.7059 0.7059
v -0.006800 0.038000 0.135000 0.8627 0.8627 0.8627
v -0.003400 0.038000 0.140889 0.8941 0.8941 0.8941
v 0.003400 0.034000 0.140889 0.8039 0.8039 0.8039
v 0.006800 0.038000 0.135000 0.8666 0.8666 0.8666
v 0.003400 0.038000 0.129111 0.7764 0.7764 0.7764
v 0.003400 0.038000 0.140889 0.8980 0.8980 0.8980
v -0.003400 0.034000 0.140889 0.8039 0.8039 0.8039
v 0.018600 0.034000 0.129111 0.7176 0.7176 0.7176
v 0.015200 0.038000 0.135000 0.8627 0.8627 0.8627
v 0.018600 0.034000 0.140889 0.8039 0.8039 0.8039
v 0.025400 0.034000 0.140889 0.8078 0.8078 0.8078
v 0.025400 0.038000 0.140889 0.8980 0.8980 0.8980
v 0.028800 0.034000 0.135000 0.7059 0.7059 0.7059
v 0.028800 0.038000 0.135000 0.8666 0.8666 0.8666
v 0.025400 0.038000 0.129111 0.7764 0.7764 0.7764
v 0.018600 0.038000 0.129111 0.7764 0.7764 0.7764
v 0.018600 0.038000 0.140889 0.8941 0.8941 0.8941
v 0.015200 0.034000 0.135000 0.7098 0.7098 0.7098
v 0.025400 0.034000 0.129111 0.7137 0.7137 0.7137
v 0.050800 0.034000 0.135000 0.7020 0.7020 0.7020
v 0.047400 0.038000 0.129111 0.7764 0.7764 0.7764
v 0.040600 0.034000 0.129111 0.7176 0.7176 0.7176
v 0.040600 0.038000 0.129111 0.7804 0.7804 0.7804
v 0.037200 0.038000 0.135000 0.8627 0.8627 0.8627
v 0.040600 0.034000 0.140889 0.8039 0.8039 0.8039
v 0.047400 0.034000 0.140889 0.8078 0.8078 0.8078
v 0.040600 0.038000 0.140889 0.8941 0.8941 0.8941
v 0.050800 0.038000 0.135000 0.8666 0.8666 0.8666
v 0.047400 0.038000 0.140889 0.8980 0.8980 0.8980
v 0.037200 0.034000 0.135000 0.7098 0.7098 0.7098
v 0.047400 0.034000 0.129111 0.7098 0.7098 0.7098
v 0.069400 0.038000 0.129111 0.7764 0.7764 0.7764
v 0.062600 0.038000 0.129111 0.7804 0.7804 0.7804
v 0.059200 0.034000 0.135000 0.7098 0.7098 0.7098
v 0.062600 0.034000 0.140889 0.8039 0.8039 0.8039
v 0.069400 0.038000 0.140889 0.8980 0.8980 0.8980
v 0.062600 0.038000 0.140889 0.8941 0.8941 0.8941
v 0.069400 0.034000 0.140889 0.8078 0.8078 0.8078
v 0.072800 0.038000 0.135000 0.8666 0.8666 0.8666
v 0.059200 0.038000 0.135000 0.8627 0.8627 0.8627
v 0.062600 0.034000 0.129111 0.7176 0.7176 0.7176
v 0.069400 0.034000 0.129111 0.7098 0.7098 0.7098
v 0.072800 0.034000 0.135000 0.7020 0.7020 0.7020
v 0.091400 0.038000 0.129111 0.7804 0.7804 0.7804
v 0.094800 0.038000 0.135000 0.8706 0.8706 0.8706
v 0.084600 0.034000 0.129111 0.7176 0.7176 0.7176
v 0.084600 0.038000 0.129111 0.7804 0.7804 0.7804
v 0.081200 0.034000 0.135000 0.7098 0.7098 0.7098
v 0.084600 0.034000 0.140889 0.8039 0.8039 0.8039
v 0.084600 0.038000 0.140889 0.8941 0.8941 0.8941
v 0.091400 0.038000 0.140889 0.8980 0.8980 0.8980
v 0.081200 0.038000 0.135000 0.8627 0.8627 0.8627
v 0.091400 0.034000 0.140889 0.8078 0.8078 0.8078
v 0.091400 0.034000 0.129111 0.7098 0.7098 0.7098
v 0.094800 0.034000 0.135000 0.7020 0.7020 0.7020
v 0.113400 0.038000 0.129111 0.7843 0.7843 0.7843
v 0.106600 0.034000 0.129111 0.7176 0.7176 0.7176
v 0.103200 0.038000 0.135000 0.8627 0.8627 0.8627
v 0.113400 0.034000 0.140889 0.8078 0.8078 0.8078
v 0.106600 0.038000 0.140889 0.8941 0.8941 0.8941
v 0.113400 0.038000 0.140889 0.9058 0.9058 0.9058
v 0.116800 0.038000 0.135000 0.8823 0.8823 0.8823
v 0.106600 0.038000 0.129111 0.7804 0.7804 0.7804
v 0.106600 0.034000 0.140889 0.8039 0.8039 0.8039
v 0.103200 0.034000 0.135000 0.7098 0.7098 0.7098
v 0.113400 0.034000 0.129111 0.7098 0.7098 0.7098
v 0.116800 0.034000 0.135000 0.7020 0.7020 0.7020
v -0.130000 0.046000 0.112000 0.8470 0.8470 0.8470
v -0.130000 0.034000 0.106000 0.7176 0.7176 0.7176
v 0.130000 0.046000 0.106000 0.7137 0.7137 0.7137
v -0.130000 0.046000 0.106000 0.7176 0.7176 0.7176
v 0.130000 0.034000 0.112000 0.7020 0.7020 0.7020
v 0.130000 0.034000 0.106000 0.7176 0.7176 0.7176
v 0.130000 0.046000 0.112000 0.8392 0.8392 0.8392
v -0.130000 0.034000 0.112000 0.7020 0.7020 0.7020
v -0.097200 0.050000 0.113000 0.7764 0.7764 0.7764
v -0.097200 0.054000 0.113000 0.8706 0.8706 0.8706
v -0.100600 0.050000 0.107111 0.7451 0.7451 0.7451
v -0.107400 0.054000 0.107111 0.8353 0.8353 0.8353
v -0.110800 0.050000 0.113000 0.7960 0.7960 0.7960
v -0.110800 0.054000 0.113000 0.8902 0.8902 0.8902
v -0.100600 0.050000 0.118889 0.8235 0.8235 0.8235
v -0.100600 0.054000 0.107111 0.8235 0.8235 0.8235
v -0.107400 0.054000 0.118889 0.9137 0.9137 0.9137
v -0.100600 0.054000 0.118889 0.9137 0.9137 0.9137
v -0.107400 0.050000 0.118889 0.8274 0.8274 0.8274
v -0.107400 0.050000 0.107111 0.7451 0.7451 0.7451
v -0.078600 0.050000 0.107111 0.7412 0.7412 0.7412
v -0.078600 0.054000 0.107111 0.8235 0.8235 0.8235
v -0.085400 0.050000 0.107111 0.7412 0.7412 0.7412
v -0.085400 0.054000 0.107111 0.8235 0.8235 0.8235
v -0.088800 0.054000 0.113000 0.8706 0.8706 0.8706
v -0.088800 0.050000 0.113000 0.7725 0.7725 0.7725
v -0.085400 0.054000 0.118889 0.9098 0.9098 0.9098
v -0.085400 0.050000 0.118889 0.8196 0.8196 0.8196
v -0.078600 0.054000 0.118889 0.9137 0.9137 0.9137
v -0.075200 0.054000 0.113000 0.8706 0.8706 0.8706
v -0.078600 0.050000 0.118889 0.8235 0.8235 0.8235
v -0.075200 0.050000 0.113000 0.7764 0.7764 0.7764
v -0.063400 0.050000 0.107111 0.7372 0.7372 0.7372
v -0.063400 0.054000 0.107111 0.8196 0.8196 0.8196
v -0.066800 0.050000 0.113000 0.7725 0.7725 0.7725
v -0.066800 0.054000 0.113000 0.8666 0.8666 0.8666
v -0.063400 0.050000 0.118889 0.8196 0.8196 0.8196
v -0.056600 0.050000 0.118889 0.8235 0.8235 0.8235
v -0.053200 0.054000 0.113000 0.8666 0.8666 0.8666
v -0.056600 0.054000 0.118889 0.9098 0.9098 0.9098
v -0.056600 0.054000 0.107111 0.8196 0.8196 0.8196
v -0.063400 0.054000 0.118889 0.9058 0.9058 0.9058
v -0.056600 0.050000 0.107111 0.7412 0.7412 0.7412
v -0.053200 0.050000 0.113000 0.7764 0.7764 0.7764
v -0.034600 0.054000 0.107111 0.8196 0.8196 0.8196
v -0.041400 0.050000 0.107111 0.7372 0.7372 0.7372
v -0.041400 0.054000 0.107111 0.8157 0.8157 0.8157
v -0.041400 0.054000 0.118889 0.9058 0.9058 0.9058
v -0.034600 0.050000 0.118889 0.8235 0.8235 0.8235
v -0.031200 0.054000 0.113000 0.8666 0.8666 0.8666
v -0.034600 0.054000 0.118889 0.9098 0.9098 0.9098
v -0.044800 0.054000 0.113000 0.8666 0.8666 0.8666
v -0.041400 0.050000 0.118889 0.8196 0.8196 0.8196
v -0.044800 0.050000 0.113000 0.7725 0.7725 0.7725
v -0.034600 0.050000 0.107111 0.7412 0.7412 0.7412
v -0.031200 0.050000 0.113000 0.7764 0.7764 0.7764
v -0.019400 0.050000 0.107111 0.7372 0.7372 0.7372
v -0.012600 0.054000 0.107111 0.8196 0.8196 0.8196
v -0.022800 0.050000 0.113000 0.7725 0.7725 0.7725
v -0.019400 0.054000 0.107111 0.8157 0.8157 0.8157
v -0.019400 0.050000 0.118889 0.8196 0.8196 0.8196
v -0.022800 0.054000 0.113000 0.8627 0.8627 0.8627
v -0.012600 0.054000 0.118889 0.9098 0.9098 0.9098
v -0.009200 0.054000 0.113000 0.8666 0.8666 0.8666
v -0.019400 0.054000 0.118889 0.9058 0.9058 0.9058
v -0.012600 0.050000 0.118889 0.8235 0.8235 0.8235
v -0.012600 0.050000 0.107111 0.7412 0.7412 0.7412
v -0.009200 0.050000 0.113000 0.7764 0.7764 0.7764
v 0.012800 0.054000 0.113000 0.8666 0.8666 0.8666
v 0.002600 0.054000 0.107111 0.8157 0.8157 0.8157
v -0.000800 0.054000 0.113000 0.8627 0.8627 0.8627
v 0.009400 0.050000 0.118889 0.8235 0.8235 0.8235
v 0.009400 0.054000 0.107111 0.8196 0.8196 0.8196
v 0.002600 0.054000 0.118889 0.9058 0.9058 0.9058
v 0.009400 0.054000 0.118889 0.9098 0.9098 0.9098
v 0.002600 0.050000 0.118889 0.8196 0.8196 0.8196
v -0.000800 0.050000 0.113000 0.7725 0.7725 0.7725
v 0.002600 0.050000 0.107111 0.7372 0.7372 0.7372
v 0.009400 0.050000 0.107111 0.7412 0.7412 0.7412
v 0.012800 0.050000 0.113000 0.7764 0.7764 0.7764
v 0.034800 0.050000 0.113000 0.7764 0.7764 0.7764
v 0.031400 0.054000 0.107111 0.8196 0.8196 0.8196
v 0.034800 0.054000 0.113000 0.8666 0.8666 0.8666
v 0.031400 0.050000 0.107111 0.7412 0.7412 0.7412
v 0.024600 0.050000 0.107111 0.7372 0.7372 0.7372
v 0.021200 0.050000 0.113000 0.7725 0.7725 0.7725
v 0.024600 0.054000 0.107111 0.8157 0.8157 0.8157
v 0.024600 0.054000 0.118889 0.9058 0.9058 0.9058
v 0.021200 0.054000 0.113000 0.8627 0.8627 0.8627
v 0.031400 0.054000 0.118889 0.9098 0.9098 0.9098
v 0.031400 0.050000 0.118889 0.8235 0.8235 0.8235
v 0.024600 0.050000 0.118889 0.8196 0.8196 0.8196
v 0.056800 0.050000 0.113000 0.7764 0.7764 0.7764
v 0.056800 0.054000 0.113000 0.8706 0.8706 0.8706
v 0.046600 0.054000 0.107111 0.8157 0.8157 0.8157
v 0.053400 0.054000 0.107111 0.8196 0.8196 0.8196
v 0.046600 0.050000 0.107111 0.7372 0.7372 0.7372
v 0.043200 0.050000 0.113000 0.7725 0.7725 0.7725
v 0.046600 0.050000 0.118889 0.8196 0.8196 0.8196
v 0.046600 0.054000 0.118889 0.9058 0.9058 0.9058
v 0.053400 0.050000 0.118889 0.8235 0.8235 0.8235
v 0.043200 0.054000 0.113000 0.8627 0.8627 0.8627
v 0.053400 0.054000 0.118889 0.9098 0.9098 0.9098
v 0.053400 0.050000 0.107111 0.7451 0.7451 0.7451
v 0.075400 0.054000 0.107111 0.8235 0.8235 0.8235
v 0.078800 0.054000 0.113000 0.8745 0.8745 0.8745
v 0.075400 0.050000 0.107111 0.7451 0.7451 0.7451
v 0.068600 0.050000 0.107111 0.7412 0.7412 0.7412
v 0.065200 0.050000 0.113000 0.7725 0.7725 0.7725
v 0.068600 0.054000 0.107111 0.8157 0.8157 0.8157
v 0.068600 0.054000 0.118889 0.9058 0.9058 0.9058
v 0.065200 0.054000 0.113000 0.8627 0.8627 0.8627
v 0.075400 0.054000 0.118889 0.9137 0.9137 0.9137
v 0.078800 0.050000 0.113000 0.7804 0.7804 0.7804
v 0.075400 0.050000 0.118889 0.8235 0.8235 0.8235
v 0.068600 0.050000 0.118889 0.8196 0.8196 0.8196
v 0.100800 0.050000 0.113000 0.7843 0.7843 0.7843
v 0.097400 0.050000 0.107111 0.7490 0.7490 0.7490
v 0.097400 0.054000 0.107111 0.8274 0.8274 0.8274
v 0.090600 0.050000 0.107111 0.7412 0.7412 0.7412
v 0.087200 0.054000 0.113000 0.8627 0.8627 0.8627
v 0.087200 0.050000 0.113000 0.7725 0.7725 0.7725
v 0.090600 0.050000 0.118889 0.8196 0.8196 0.8196
v 0.097400 0.050000 0.118889 0.8274 0.8274 0.8274
v 0.090600 0.054000 0.118889 0.9058 0.9058 0.9058
v 0.100800 0.054000 0.113000 0.8784 0.8784 0.8784
v 0.090600 0.054000 0.107111 0.8196 0.8196 0.8196
v 0.097400 0.054000 0.118889 0.9137 0.9137 0.9137
v 0.119400 0.050000 0.107111 0.7647 0.7647 0.7647
v 0.119400 0.054000 0.107111 0.8509 0.8509 0.8509
v 0.112600 0.050000 0.107111 0.7451 0.7451 0.7451
v 0.109200 0.050000 0.113000 0.7725 0.7725 0.7725
v 0.112600 0.050000 0.118889 0.8196 0.8196 0.8196
v 0.112600 0.054000 0.118889 0.9098 0.9098 0.9098
v 0.119400 0.050000 0.118889 0.8313 0.8313 0.8313
v 0.119400 0.054000 0.118889 0.9176 0.9176 0.9176
v 0.122800 0.050000 0.113000 0.8078 0.8078 0.8078
v 0.122800 0.054000 0.113000 0.9019 0.9019 0.9019
v 0.112600 0.054000 0.107111 0.8274 0.8274 0.8274
v 0.109200 0.054000 0.113000 0.8666 0.8666 0.8666
v -0.130000 0.050000 0.090000 0.7020 0.7020 0.7020
v -0.130000 0.062000 0.090000 0.9098 0.9098 0.9098
v -0.130000 0.062000 0.084000 0.8509 0.8509 0.8509
v 0.130000 0.050000 0.090000 0.7020 0.7020 0.7020
v 0.130000 0.062000 0.084000 0.8549 0.8549 0.8549
v 0.130000 0.062000 0.090000 0.9137 0.9137 0.9137
v -0.130000 0.050000 0.084000 0.7176 0.7176 0.7176
v 0.130000 0.050000 0.084000 0.7176 0.7176 0.7176
v -0.106600 0.066000 0.085111 0.7490 0.7490 0.7490
v -0.106600 0.070000 0.085111 0.8353 0.8353 0.8353
v -0.113400 0.066000 0.085111 0.7686 0.7686 0.7686
v -0.113400 0.070000 0.085111 0.8627 0.8627 0.8627
v -0.113400 0.066000 0.096889 0.8392 0.8392 0.8392
v -0.106600 0.070000 0.096889 0.9176 0.9176 0.9176
v -0.106600 0.066000 0.096889 0.8274 0.8274 0.8274
v -0.103200 0.070000 0.091000 0.8745 0.8745 0.8745
v -0.116800 0.070000 0.091000 0.9098 0.9098 0.9098
v -0.113400 0.070000 0.096889 0.9294 0.9294 0.9294
v -0.116800 0.066000 0.091000 0.8235 0.8235 0.8235
v -0.103200 0.066000 0.091000 0.7725 0.7725 0.7725
v -0.084600 0.070000 0.085111 0.8235 0.8235 0.8235
v -0.084600 0.066000 0.085111 0.7451 0.7451 0.7451
v -0.091400 0.070000 0.085111 0.8353 0.8353 0.8353
v -0.091400 0.066000 0.085111 0.7451 0.7451 0.7451
v -0.094800 0.066000 0.091000 0.7921 0.7921 0.7921
v -0.091400 0.066000 0.096889 0.8313 0.8313 0.8313
v -0.094800 0.070000 0.091000 0.8862 0.8862 0.8862
v -0.084600 0.070000 0.096889 0.9176 0.9176 0.9176
v -0.091400 0.070000 0.096889 0.9255 0.9255 0.9255
v -0.084600 0.066000 0.096889 0.8274 0.8274 0.8274
v -0.081200 0.070000 0.091000 0.8745 0.8745 0.8745
v -0.081200 0.066000 0.091000 0.7725 0.7725 0.7725
v -0.062600 0.066000 0.085111 0.7451 0.7451 0.7451
v -0.059200 0.070000 0.091000 0.8706 0.8706 0.8706
v -0.062600 0.070000 0.085111 0.8274 0.8274 0.8274
v -0.069400 0.070000 0.085111 0.8313 0.8313 0.8313
v -0.069400 0.066000 0.096889 0.8313 0.8313 0.8313
v -0.072800 0.070000 0.091000 0.8823 0.8823 0.8823
v -0.069400 0.070000 0.096889 0.9255 0.9255 0.9255
v -0.062600 0.070000 0.096889 0.9176 0.9176 0.9176
v -0.062600 0.066000 0.096889 0.8274 0.8274 0.8274
v -0.072800 0.066000 0.091000 0.7843 0.7843 0.7843
v -0.069400 0.066000 0.085111 0.7451 0.7451 0.7451
v -0.059200 0.066000 0.091000 0.7725 0.7725 0.7725
v -0.037200 0.066000 0.091000 0.7725 0.7725 0.7725
v -0.047400 0.066000 0.085111 0.7412 0.7412 0.7412
v -0.047400 0.070000 0.085111 0.8313 0.8313 0.8313
v -0.050800 0.070000 0.091000 0.8745 0.8745 0.8745
v -0.040600 0.066000 0.096889 0.8274 0.8274 0.8274
v -0.047400 0.070000 0.096889 0.9215 0.9215 0.9215
v -0.040600 0.070000 0.096889 0.9137 0.9137 0.9137
v -0.037200 0.070000 0.091000 0.8706 0.8706 0.8706
v -0.040600 0.070000 0.085111 0.8274 0.8274 0.8274
v -0.047400 0.066000 0.096889 0.8313 0.8313 0.8313
v -0.050800 0.066000 0.091000 0.7843 0.7843 0.7843
v -0.040600 0.066000 0.085111 0.7451 0.7451 0.7451
v -0.015200 0.066000 0.091000 0.7725 0.7725 0.7725
v -0.018600 0.066000 0.085111 0.7451 0.7451 0.7451
v -0.025400 0.066000 0.085111 0.7412 0.7412 0.7412
v -0.028800 0.066000 0.091000 0.7843 0.7843 0.7843
v -0.025400 0.066000 0.096889 0.8274 0.8274 0.8274
v -0.028800 0.070000 0.091000 0.8745 0.8745 0.8745
v -0.018600 0.066000 0.096889 0.8274 0.8274 0.8274
v -0.015200 0.070000 0.091000 0.8706 0.8706 0.8706
v -0.018600 0.070000 0.096889 0.9137 0.9137 0.9137
v -0.018600 0.070000 0.085111 0.8274 0.8274 0.8274
v -0.025400 0.070000 0.085111 0.8313 0.8313 0.8313
v -0.025400 0.070000 0.096889 0.9176 0.9176 0.9176
v 0.003400 0.070000 0.085111 0.8274 0.8274 0.8274
v 0.006800 0.070000 0.091000 0.8706 0.8706 0.8706
v -0.003400 0.066000 0.085111 0.7412 0.7412 0.7412
v -0.006800 0.066000 0.091000 0.7804 0.7804 0.7804
v 0.003400 0.070000 0.096889 0.9137 0.9137 0.9137
v 0.003400 0.066000 0.096889 0.8274 0.8274 0.8274
v -0.003400 0.070000 0.085111 0.8313 0.8313 0.8313
v -0.006800 0.070000 0.091000 0.8745 0.8745 0.8745
v -0.003400 0.070000 0.096889 0.9176 0.9176 0.9176
v -0.003400 0.066000 0.096889 0.8274 0.8274 0.8274
v 0.003400 0.066000 0.085111 0.7451 0.7451 0.7451
v 0.006800 0.066000 0.091000 0.7725 0.7725 0.7725
v 0.018600 0.066000 0.085111 0.7412 0.7412 0.7412
v 0.025400 0.070000 0.085111 0.8274 0.8274 0.8274
v 0.015200 0.070000 0.091000 0.8745 0.8745 0.8745
v 0.028800 0.066000 0.091000 0.7764 0.7764 0.7764
v 0.028800 0.070000 0.091000 0.8706 0.8706 0.8706
v 0.025400 0.070000 0.096889 0.9137 0.9137 0.9137
v 0.018600 0.070000 0.085111 0.8313 0.8313 0.8313
v 0.018600 0.070000 0.096889 0.9176 0.9176 0.9176
v 0.025400 0.066000 0.096889 0.8274 0.8274 0.8274
v 0.018600 0.066000 0.096889 0.8274 0.8274 0.8274
v 0.015200 0.066000 0.091000 0.7804 0.7804 0.7804
v 0.025400 0.066000 0.085111 0.7451 0.7451 0.7451
v 0.050800 0.066000 0.091000 0.7764 0.7764 0.7764
v 0.040600 0.066000 0.085111 0.7412 0.7412 0.7412
v 0.040600 0.070000 0.085111 0.8313 0.8313 0.8313
v 0.037200 0.066000 0.091000 0.7804 0.7804 0.7804
v 0.040600 0.066000 0.096889 0.8274 0.8274 0.8274
v 0.047400 0.070000 0.096889 0.9137 0.9137 0.9137
v 0.040600 0.070000 0.096889 0.9176 0.9176 0.9176
v 0.047400 0.066000 0.096889 0.8313 0.8313 0.8313
v 0.050800 0.070000 0.091000 0.8745 0.8745 0.8745
v 0.047400 0.070000 0.085111 0.8274 0.8274 0.8274
v 0.037200 0.070000 0.091000 0.8745 0.8745 0.8745
v 0.047400 0.066000 0.085111 0.7451 0.7451 0.7451
v 0.069400 0.066000 0.085111 0.7490 0.7490 0.7490
v 0.062600 0.070000 0.085111 0.8313 0.8313 0.8313
v 0.059200 0.070000 0.091000 0.8745 0.8745 0.8745
v 0.059200 0.066000 0.091000 0.7804 0.7804 0.7804
v 0.062600 0.070000 0.096889 0.9176 0.9176 0.9176
v 0.062600 0.066000 0.096889 0.8274 0.8274 0.8274
v 0.069400 0.066000 0.096889 0.8313 0.8313 0.8313
v 0.072800 0.070000 0.091000 0.8784 0.8784 0.8784
v 0.069400 0.070000 0.096889 0.9176 0.9176 0.9176
v 0.069400 0.070000 0.085111 0.8313 0.8313 0.8313
v 0.062600 0.066000 0.085111 0.7412 0.7412 0.7412
v 0.072800 0.066000 0.091000 0.7843 0.7843 0.7843
v 0.091400 0.070000 0.085111 0.8392 0.8392 0.8392
v 0.081200 0.066000 0.091000 0.7804 0.7804 0.7804
v 0.091400 0.070000 0.096889 0.9215 0.9215 0.9215
v 0.091400 0.066000 0.096889 0.8353 0.8353 0.8353
v 0.094800 0.070000 0.091000 0.8862 0.8862 0.8862
v 0.084600 0.070000 0.085111 0.8313 0.8313 0.8313
v 0.081200 0.070000 0.091000 0.8745 0.8745 0.8745
v 0.084600 0.070000 0.096889 0.9215 0.9215 0.9215
v 0.084600 0.066000 0.096889 0.8274 0.8274 0.8274
v 0.084600 0.066000 0.085111 0.7412 0.7412 0.7412
v 0.091400 0.066000 0.085111 0.7529 0.7529 0.7529
v 0.094800 0.066000 0.091000 0.7921 0.7921 0.7921
v 0.116800 0.066000 0.091000 0.8235 0.8235 0.8235
v 0.113400 0.066000 0.085111 0.7725 0.7725 0.7725
v 0.113400 0.070000 0.085111 0.8627 0.8627 0.8627
v 0.106600 0.070000 0.085111 0.8392 0.8392 0.8392
v 0.103200 0.066000 0.091000 0.7804 0.7804 0.7804
v 0.106600 0.066000 0.096889 0.8274 0.8274 0.8274
v 0.106600 0.070000 0.096889 0.9215 0.9215 0.9215
v 0.103200 0.070000 0.091000 0.8784 0.8784 0.8784
v 0.113400 0.070000 0.096889 0.9255 0.9255 0.9255
v 0.116800 0.070000 0.091000 0.9137 0.9137 0.9137
v 0.113400 0.066000 0.096889 0.8392 0.8392 0.8392
v 0.106600 0.066000 0.085111 0.7490 0.7490 0.7490
v -0.130000 0.066000 0.062000 0.7216 0.7216 0.7216
v -0.130000 0.078000 0.068000 0.9294 0.9294 0.9294
v -0.130000 0.078000 0.062000 0.8941 0.8941 0.8941
v 0.130000 0.066000 0.068000 0.8117 0.8117 0.8117
v 0.130000 0.078000 0.062000 0.8862 0.8862 0.8862
v 0.130000 0.078000 0.068000 0.9294 0.9294 0.9294
v 0.130000 0.066000 0.062000 0.7216 0.7216 0.7216
v -0.130000 0.066000 0.068000 0.8117 0.8117 0.8117
v -0.097200 0.082000 0.069000 0.7882 0.7882 0.7882
v -0.100600 0.082000 0.063111 0.7725 0.7725 0.7725
v -0.107400 0.086000 0.063111 0.8745 0.8745 0.8745
v -0.100600 0.086000 0.063111 0.8549 0.8549 0.8549
v -0.107400 0.082000 0.063111 0.7804 0.7804 0.7804
v -0.110800 0.082000 0.069000 0.8235 0.8235 0.8235
v -0.107400 0.082000 0.074889 0.8509 0.8509 0.8509
v -0.107400 0.086000 0.074889 0.9333 0.9333 0.9333
v -0.100600 0.082000 0.074889 0.8353 0.8353 0.8353
v -0.097200 0.086000 0.069000 0.8823 0.8823 0.8823
v -0.110800 0.086000 0.069000 0.9176 0.9176 0.9176
v -0.100600 0.086000 0.074889 0.9215 0.9215 0.9215
v -0.078600 0.086000 0.063111 0.8549 0.8549 0.8549
v -0.088800 0.086000 0.069000 0.8941 0.8941 0.8941
v -0.085400 0.082000 0.074889 0.8392 0.8392 0.8392
v -0.078600 0.082000 0.074889 0.8353 0.8353 0.8353
v -0.078600 0.086000 0.074889 0.9215 0.9215 0.9215
v -0.075200 0.086000 0.069000 0.8862 0.8862 0.8862
v -0.085400 0.086000 0.063111 0.8627 0.8627 0.8627
v -0.085400 0.086000 0.074889 0.9294 0.9294 0.9294
v -0.088800 0.082000 0.069000 0.7960 0.7960 0.7960
v -0.085400 0.082000 0.063111 0.7686 0.7686 0.7686
v -0.078600 0.082000 0.063111 0.7686 0.7686 0.7686
v -0.075200 0.082000 0.069000 0.7882 0.7882 0.7882
v -0.056600 0.082000 0.063111 0.7686 0.7686 0.7686
v -0.066800 0.082000 0.069000 0.7921 0.7921 0.7921
v -0.063400 0.086000 0.063111 0.8627 0.8627 0.8627
v -0.056600 0.086000 0.074889 0.9176 0.9176 0.9176
v -0.053200 0.082000 0.069000 0.7882 0.7882 0.7882
v -0.053200 0.086000 0.069000 0.8862 0.8862 0.8862
v -0.056600 0.086000 0.063111 0.8549 0.8549 0.8549
v -0.066800 0.086000 0.069000 0.8941 0.8941 0.8941
v -0.063400 0.086000 0.074889 0.9294 0.9294 0.9294
v -0.056600 0.082000 0.074889 0.8353 0.8353 0.8353
v -0.063400 0.082000 0.074889 0.8392 0.8392 0.8392
v -0.063400 0.082000 0.063111 0.7686 0.7686 0.7686
v -0.031200 0.086000 0.069000 0.8862 0.8862 0.8862
v -0.034600 0.082000 0.063111 0.7686 0.7686 0.7686
v -0.041400 0.086000 0.063111 0.8588 0.8588 0.8588
v -0.034600 0.086000 0.063111 0.8509 0.8509 0.8509
v -0.041400 0.082000 0.063111 0.7686 0.7686 0.7686
v -0.041400 0.082000 0.074889 0.8392 0.8392 0.8392
v -0.044800 0.086000 0.069000 0.8902 0.8902 0.8902
v -0.034600 0.082000 0.074889 0.8353 0.8353 0.8353
v -0.034600 0.086000 0.074889 0.9176 0.9176 0.9176
v -0.041400 0.086000 0.074889 0.9255 0.9255 0.9255
v -0.044800 0.082000 0.069000 0.7921 0.7921 0.7921
v -0.031200 0.082000 0.069000 0.7882 0.7882 0.7882
v -0.012600 0.086000 0.063111 0.8509 0.8509 0.8509
v -0.009200 0.086000 0.069000 0.8862 0.8862 0.8862
v -0.012600 0.082000 0.063111 0.7686 0.7686 0.7686
v -0.019400 0.082000 0.063111 0.7686 0.7686 0.7686
v -0.022800 0.082000 0.069000 0.7882 0.7882 0.7882
v -0.019400 0.082000 0.074889 0.8353 0.8353 0.8353
v -0.012600 0.082000 0.074889 0.8353 0.8353 0.8353
v -0.009200 0.082000 0.069000 0.7882 0.7882 0.7882
v -0.019400 0.086000 0.063111 0.8549 0.8549 0.8549
v -0.022800 0.086000 0.069000 0.8902 0.8902 0.8902
v -0.019400 0.086000 0.074889 0.9255 0.9255 0.9255
v -0.012600 0.086000 0.074889 0.9215 0.9215 0.9215
v 0.009400 0.082000 0.063111 0.7686 0.7686 0.7686
v 0.002600 0.082000 0.063111 0.7686 0.7686 0.7686
v 0.009400 0.086000 0.063111 0.8509 0.8509 0.8509
v 0.002600 0.086000 0.063111 0.8549 0.8549 0.8549
v -0.000800 0.082000 0.069000 0.7882 0.7882 0.7882
v 0.002600 0.082000 0.074889 0.8353 0.8353 0.8353
v 0.002600 0.086000 0.074889 0.9255 0.9255 0.9255
v 0.009400 0.082000 0.074889 0.8353 0.8353 0.8353
v 0.012800 0.082000 0.069000 0.7882 0.7882 0.7882
v 0.012800 0.086000 0.069000 0.8862 0.8862 0.8862
v 0.009400 0.086000 0.074889 0.9215 0.9215 0.9215
v -0.000800 0.086000 0.069000 0.8902 0.8902 0.8902
v 0.031400 0.086000 0.063111 0.8549 0.8549 0.8549
v 0.034800 0.086000 0.069000 0.8862 0.8862 0.8862
v 0.024600 0.082000 0.063111 0.7647 0.7647 0.7647
v 0.024600 0.086000 0.063111 0.8549 0.8549 0.8549
v 0.021200 0.086000 0.069000 0.8902 0.8902 0.8902
v 0.024600 0.086000 0.074889 0.9255 0.9255 0.9255
v 0.031400 0.086000 0.074889 0.9255 0.9255 0.9255
v 0.031400 0.082000 0.074889 0.8353 0.8353 0.8353
v 0.024600 0.082000 0.074889 0.8353 0.8353 0.8353
v 0.021200 0.082000 0.069000 0.7882 0.7882 0.7882
v 0.031400 0.082000 0.063111 0.7686 0.7686 0.7686
v 0.034800 0.082000 0.069000 0.7921 0.7921 0.7921
v 0.056800 0.086000 0.069000 0.8902 0.8902 0.8902
v 0.053400 0.082000 0.063111 0.7686 0.7686 0.7686
v 0.046600 0.082000 0.063111 0.7647 0.7647 0.7647
v 0.046600 0.086000 0.063111 0.8549 0.8549 0.8549
v 0.053400 0.086000 0.063111 0.8588 0.8588 0.8588
v 0.043200 0.086000 0.069000 0.8941 0.8941 0.8941
v 0.046600 0.086000 0.074889 0.9255 0.9255 0.9255
v 0.053400 0.086000 0.074889 0.9294 0.9294 0.9294
v 0.053400 0.082000 0.074889 0.8353 0.8353 0.8353
v 0.046600 0.082000 0.074889 0.8353 0.8353 0.8353
v 0.043200 0.082000 0.069000 0.7843 0.7843 0.7843
v 0.056800 0.082000 0.069000 0.7921 0.7921 0.7921
v 0.075400 0.082000 0.063111 0.7764 0.7764 0.7764
v 0.068600 0.086000 0.063111 0.8549 0.8549 0.8549
v 0.075400 0.086000 0.063111 0.8588 0.8588 0.8588
v 0.065200 0.082000 0.069000 0.7882 0.7882 0.7882
v 0.068600 0.082000 0.074889 0.8353 0.8353 0.8353
v 0.068600 0.086000 0.074889 0.9255 0.9255 0.9255
v 0.075400 0.082000 0.074889 0.8392 0.8392 0.8392
v 0.078800 0.082000 0.069000 0.8000 0.8000 0.8000
v 0.078800 0.086000 0.069000 0.8941 0.8941 0.8941
v 0.065200 0.086000 0.069000 0.8941 0.8941 0.8941
v 0.075400 0.086000 0.074889 0.9294 0.9294 0.9294
v 0.068600 0.082000 0.063111 0.7686 0.7686 0.7686
v 0.097400 0.086000 0.063111 0.8706 0.8706 0.8706
v 0.100800 0.086000 0.069000 0.9137 0.9137 0.9137
v 0.090600 0.086000 0.063111 0.8588 0.8588 0.8588
v 0.090600 0.082000 0.063111 0.7686 0.7686 0.7686
v 0.090600 0.086000 0.074889 0.9294 0.9294 0.9294
v 0.087200 0.086000 0.069000 0.8941 0.8941 0.8941
v 0.100800 0.082000 0.069000 0.8235 0.8235 0.8235
v 0.097400 0.086000 0.074889 0.9411 0.9411 0.9411
v 0.097400 0.082000 0.074889 0.8470 0.8470 0.8470
v 0.090600 0.082000 0.074889 0.8353 0.8353 0.8353
v 0.087200 0.082000 0.069000 0.7882 0.7882 0.7882
v 0.097400 0.082000 0.063111 0.7804 0.7804 0.7804
v 0.070000 0.021000 0.166000 0.8000 0.8000 0.8000
v 0.070000 0.027000 0.166000 0.8902 0.8902 0.8902
v -0.070000 0.027000 0.166000 0.8902 0.8902 0.8902
v -0.070000 0.021000 0.154000 0.7412 0.7412 0.7412
v -0.070000 0.027000 0.154000 0.8392 0.8392 0.8392
v 0.070000 0.027000 0.154000 0.8431 0.8431 0.8431
v 0.070000 0.021000 0.154000 0.7412 0.7412 0.7412
v -0.070000 0.021000 0.166000 0.8000 0.8000 0.8000
v 0.050000 0.083072 0.024000 0.7059 0.7059 0.7059
v 0.047553 0.101327 -0.004381 0.8000 0.8000 0.8000
v 0.050000 0.109053 0.009000 0.8353 0.8353 0.8353
v 0.047553 0.075346 0.010619 0.7020 0.7020 0.7020
v 0.040451 0.094358 -0.016452 0.7020 0.7020 0.7020
v 0.040451 0.068377 -0.001452 0.7020 0.7020 0.7020
v 0.029389 0.062846 -0.011031 0.7020 0.7020 0.7020
v 0.015451 0.059295 -0.017182 0.7020 0.7020 0.7020
v 0.029389 0.088827 -0.026031 0.7020 0.7020 0.7020
v 0.000000 0.084053 -0.034301 0.7020 0.7020 0.7020
v 0.015451 0.085276 -0.032182 0.7020 0.7020 0.7020
v 0.000000 0.058072 -0.019301 0.7020 0.7020 0.7020
v -0.015451 0.059295 -0.017182 0.7020 0.7020 0.7020
v -0.029389 0.062846 -0.011031 0.7020 0.7020 0.7020
v -0.015451 0.085276 -0.032182 0.7020 0.7020 0.7020
v -0.040451 0.068377 -0.001452 0.7020 0.7020 0.7020
v -0.029389 0.088827 -0.026031 0.7020 0.7020 0.7020
v -0.047553 0.075346 0.010619 0.7020 0.7020 0.7020
v -0.047553 0.101327 -0.004381 0.8000 0.8000 0.8000
v -0.040451 0.094358 -0.016452 0.7020 0.7020 0.7020
v -0.050000 0.083072 0.024000 0.7020 0.7020 0.7020
v -0.050000 0.109053 0.009000 0.8353 0.8353 0.8353
v -0.083202 0.096000 -0.050923 0.7098 0.7098 0.7098
v -0.072202 0.096000 -0.042931 0.7176 0.7176 0.7176
v -0.083202 0.088000 -0.050923 0.7176 0.7176 0.7176
v -0.096798 0.088000 -0.050923 0.7059 0.7059 0.7059
v -0.107798 0.088000 -0.042931 0.7059 0.7059 0.7059
v -0.112000 0.088000 -0.030000 0.7059 0.7059 0.7059
v -0.107798 0.088000 -0.017069 0.7059 0.7059 0.7059
v -0.096798 0.088000 -0.009077 0.7098 0.7098 0.7098
v -0.083202 0.096000 -0.009077 0.8784 0.8784 0.8784
v -0.096798 0.096000 -0.009077 0.8862 0.8862 0.8862
v -0.083202 0.088000 -0.009077 0.7098 0.7098 0.7098
v -0.068000 0.088000 -0.030000 0.7255 0.7255 0.7255
v -0.068000 0.096000 -0.030000 0.7176 0.7176 0.7176
v -0.096798 0.096000 -0.050923 0.7020 0.7020 0.7020
v -0.107798 0.096000 -0.042931 0.7020 0.7020 0.7020
v -0.112000 0.096000 -0.030000 0.7020 0.7020 0.7020
v -0.107798 0.096000 -0.017069 0.7020 0.7020 0.7020
v -0.072202 0.096000 -0.017069 0.7098 0.7098 0.7098
v -0.072202 0.088000 -0.017069 0.7098 0.7098 0.7098
v -0.072202 0.088000 -0.042931 0.7216 0.7216 0.7216
v 0.112000 0.088000 -0.030000 0.7059 0.7059 0.7059
v 0.107798 0.088000 -0.042931 0.7059 0.7059 0.7059
v 0.083202 0.088000 -0.050923 0.7176 0.7176 0.7176
v 0.083202 0.096000 -0.050923 0.7098 0.7098 0.7098
v 0.068000 0.096000 -0.030000 0.7176 0.7176 0.7176
v 0.072202 0.096000 -0.042931 0.7216 0.7216 0.7216
v 0.072202 0.088000 -0.017069 0.7098 0.7098 0.7098
v 0.083202 0.088000 -0.009077 0.7176 0.7176 0.7176
v 0.083202 0.096000 -0.009077 0.8823 0.8823 0.8823
v 0.072202 0.096000 -0.017069 0.7137 0.7137 0.7137
v 0.096798 0.096000 -0.009077 0.8902 0.8902 0.8902
v 0.096798 0.088000 -0.009077 0.7137 0.7137 0.7137
v 0.107798 0.088000 -0.017069 0.7059 0.7059 0.7059
v 0.112000 0.096000 -0.030000 0.7020 0.7020 0.7020
v 0.107798 0.096000 -0.042931 0.7020 0.7020 0.7020
v 0.096798 0.096000 -0.050923 0.7020 0.7020 0.7020
v 0.107798 0.096000 -0.017069 0.7020 0.7020 0.7020
v 0.068000 0.088000 -0.030000 0.7216 0.7216 0.7216
v 0.072202 0.088000 -0.042931 0.7294 0.7294 0.7294
v 0.096798 0.088000 -0.050923 0.7098 0.7098 0.7098
v -0.010000 0.102000 0.018000 0.8902 0.8902 0.8902
v 0.010000 0.090000 0.006000 0.7529 0.7529 0.7529
v -0.010000 0.090000 0.006000 0.7529 0.7529 0.7529
v 0.010000 0.102000 0.006000 0.8431 0.8431 0.8431
v -0.010000 0.090000 0.018000 0.7960 0.7960 0.7960
v -0.010000 0.102000 0.006000 0.8392 0.8392 0.8392
v 0.010000 0.090000 0.018000 0.7921 0.7921 0.7921
v 0.010000 0.102000 0.018000 0.8941 0.8941 0.8941
vn 1.0000 -0.0000 -0.0000
vn -1.0000 -0.0000 -0.0000
vn -0.0000 -1.0000 -0.0000
vn -0.0000 -0.0000 -1.0000
vn -0.0000 0.9487 -0.3162
vn -0.0000 0.9487 0.3162
vn -0.0000 0.9210 0.3896
vn -0.0000 -0.0000 1.0000
vn -0.0000 1.0000 -0.0000
vn 0.8660 -0.0000 -0.5000
vn -0.8660 -0.0000 -0.5000
vn -0.8660 -0.0000 0.5000
vn 0.8660 -0.0000 0.5000
vn 0.9877 -0.0782 -0.1355
vn 0.9511 -0.1545 -0.2676
vn 0.8090 -0.2939 -0.5090
vn 0.5878 -0.4045 -0.7006
vn 0.3090 -0.4755 -0.8236
vn -0.0000 -0.5000 -0.8660
vn -0.3090 -0.4755 -0.8236
vn -0.5878 -0.4045 -0.7006
vn -0.8090 -0.2939 -0.5090
vn -0.9511 -0.1545 -0.2676
vn -0.9877 -0.0782 -0.1355
vn 0.8090 -0.0000 -0.5878
vn 0.3090 -0.0000 -0.9511
vn -0.3090 -0.0000 -0.9511
vn -0.8090 -0.0000 -0.5878
vn -0.8090 -0.0000 0.5878
vn -0.3090 -0.0000 0.9511
vn 0.3090 -0.0000 0.9511
vn 0.8090 -0.0000 0.5878
vt 0.062988 0.875488
vt 0.124512 0.875488
vt 0.124512 0.900497
vt 0.111328 0.905762
vt 0.091553 0.897864
vt 0.062988 0.883386
vt 0.124512 0.883386
vt 0.095947 0.897864
vt 0.076172 0.905762
vt 0.062988 0.900497
vt 0.746899 0.875488
vt 0.734863 0.875488
vt 0.734863 0.905762
vt 0.746899 0.905762
vt 0.750983 0.875488
vt 0.750983 0.905762
vt 0.753702 0.875488
vt 0.753702 0.905762
vt 0.757779 0.875488
vt 0.757779 0.905762
vt 0.763847 0.875488
vt 0.763847 0.905762
vt 0.765137 0.875488
vt 0.765137 0.905762
vt 0.765137 0.876886
vt 0.734863 0.876886
vt 0.737134 0.875488
vt 0.737134 0.880029
vt 0.734863 0.880029
vt 0.765137 0.876187
vt 0.734863 0.876187
vt 0.359863 0.875488
vt 0.364909 0.875488
vt 0.364909 0.905762
vt 0.359863 0.905762
vt 0.369954 0.875488
vt 0.369954 0.905762
vt 0.375000 0.875488
vt 0.375000 0.905762
vt 0.380046 0.875488
vt 0.380046 0.905762
vt 0.385091 0.875488
vt 0.385091 0.905762
vt 0.390137 0.875488
vt 0.390137 0.905762
vt 0.569824 0.871094
vt 0.568115 0.874512
vt 0.564697 0.874512
vt 0.562988 0.871094
vt 0.564697 0.867676
vt 0.568115 0.867676
vt 0.382568 0.905762
vt 0.367432 0.905762
vt 0.359863 0.890625
vt 0.367432 0.875488
vt 0.382568 0.875488
vt 0.390137 0.890625
vt 0.390137 0.876786
vt 0.359863 0.876786
vt 0.364404 0.875488
vt 0.364404 0.877759
vt 0.359863 0.877759
vt 0.390137 0.878083
vt 0.359863 0.878083
vt 0.469238 0.859863
vt 0.470703 0.859863
vt 0.470703 0.874512
vt 0.469238 0.874512
vt 0.472168 0.859863
vt 0.472168 0.874512
vt 0.473633 0.859863
vt 0.473633 0.874512
vt 0.475098 0.859863
vt 0.475098 0.874512
vt 0.476562 0.859863
vt 0.476562 0.874512
vt 0.478027 0.859863
vt 0.478027 0.874512
vt 0.479492 0.859863
vt 0.479492 0.874512
vt 0.480957 0.859863
vt 0.480957 0.874512
vt 0.482422 0.859863
vt 0.482422 0.874512
vt 0.483887 0.859863
vt 0.483887 0.874512
vt 0.422363 0.859863
vt 0.423828 0.859863
vt 0.423828 0.874512
vt 0.422363 0.874512
vt 0.425293 0.859863
vt 0.425293 0.874512
vt 0.426758 0.859863
vt 0.426758 0.874512
vt 0.428223 0.859863
vt 0.428223 0.874512
vt 0.429688 0.859863
vt 0.429688 0.874512
vt 0.431152 0.859863
vt 0.431152 0.874512
vt 0.432617 0.859863
vt 0.432617 0.874512
vt 0.434082 0.859863
vt 0.434082 0.874512
vt 0.435547 0.859863
vt 0.435547 0.874512
vt 0.437012 0.859863
vt 0.437012 0.874512
vt 0.468262 0.867188
vt 0.466863 0.871714
vt 0.463201 0.874512
vt 0.458674 0.874512
vt 0.455012 0.871714
vt 0.453613 0.867188
vt 0.455012 0.862661
vt 0.458674 0.859863
vt 0.463201 0.859863
vt 0.466863 0.862661
vt 0.435613 0.871714
vt 0.431951 0.874512
vt 0.427424 0.874512
vt 0.423762 0.871714
vt 0.422363 0.867188
vt 0.423762 0.862661
vt 0.427424 0.859863
vt 0.431951 0.859863
vt 0.435613 0.862661
vt 0.437012 0.867188
vt 0.367432 0.880029
vt 0.359863 0.880029
vt 0.364404 0.880029
s 0
usemtl props
f 12/1/1 6/2/1 1/3/1 2/4/1 3/5/1 10/6/1
f 4/7/2 11/8/2 9/9/2 8/10/2 7/1/2 5/2/2
f 6/11/3 12/12/3 5/13/3 7/14/3
f 1/15/4 6/11/4 7/14/4 8/16/4
f 2/17/5 1/15/5 8/16/5 9/18/5
f 3/19/6 2/17/6 9/18/6 11/20/6
f 10/21/7 3/19/7 11/20/7 4/22/7
f 12/23/8 10/21/8 4/22/8 5/24/8
f 20/12/8 13/23/8 19/25/8 14/26/8
f 17/12/4 15/23/4 16/25/4 18/26/4
f 15/12/2 20/27/2 14/28/2 16/29/2
f 13/12/1 17/27/1 18/28/1 19/29/1
f 14/12/9 19/23/9 18/30/9 16/31/9
f 15/12/3 17/23/3 13/30/3 20/31/3
s 1
f 29/32/10 22/33/10 30/34/10 21/35/10
f 22/33/4 24/36/4 23/37/4 30/34/4
f 24/36/11 32/38/11 25/39/11 23/37/11
f 32/38/12 26/40/12 28/41/12 25/39/12
f 26/40/8 27/42/8 31/43/8 28/41/8
f 27/42/13 29/44/13 21/45/13 31/43/13
s 0
f 21/46/9 30/47/9 23/48/9 25/49/9 28/50/9 31/51/9
f 27/52/3 26/53/3 32/54/3 24/55/3 22/56/3 29/57/3
s 1
f 44/32/10 33/33/10 34/34/10 40/35/10
f 33/33/4 35/36/4 42/37/4 34/34/4
f 35/36/11 37/38/11 36/39/11 42/37/11
f 37/38/12 39/40/12 38/41/12 36/39/12
f 39/40/8 43/42/8 41/43/8 38/41/8
f 43/42/13 44/44/13 40/45/13 41/43/13
s 0
f 40/46/9 34/47/9 42/48/9 36/49/9 38/50/9 41/51/9
f 43/52/3 39/53/3 37/54/3 35/55/3 33/56/3 44/57/3
s 1
f 56/32/10 45/33/10 46/34/10 49/35/10
f 45/33/4 55/36/4 47/37/4 46/34/4
f 55/36/11 54/38/11 51/39/11 47/37/11
f 54/38/12 53/40/12 48/41/12 51/39/12
f 53/40/8 52/42/8 50/43/8 48/41/8
f 52/42/13 56/44/13 49/45/13 50/43/13
s 0
f 49/46/9 46/47/9 47/48/9 51/49/9 48/50/9 50/51/9
f 52/52/3 53/53/3 54/54/3 55/55/3 45/56/3 56/57/3
s 1
f 68/32/10 57/33/10 66/34/10 65/35/10
f 57/33/4 58/36/4 59/37/4 66/34/4
f 58/36/11 67/38/11 61/39/11 59/37/11
f 67/38/12 62/40/12 60/41/12 61/39/12
f 62/40/8 64/42/8 63/43/8 60/41/8
f 64/42/13 68/44/13 65/45/13 63/43/13
s 0
f 65/46/9 66/47/9 59/48/9 61/49/9 60/50/9 63/51/9
f 64/52/3 62/53/3 67/54/3 58/55/3 57/56/3 68/57/3
s 1
f 69/32/10 70/33/10 72/34/10 76/35/10
f 70/33/4 71/36/4 78/37/4 72/34/4
f 71/36/11 73/38/11 79/39/11 78/37/11
f 73/38/12 80/40/12 75/41/12 79/39/12
f 80/40/8 74/42/8 77/43/8 75/41/8
f 74/42/13 69/44/13 76/45/13 77/43/13
s 0
f 76/46/9 72/47/9 78/48/9 79/49/9 75/50/9 77/51/9
f 74/52/3 80/53/3 73/54/3 71/55/3 70/56/3 69/57/3
s 1
f 81/32/10 82/33/10 90/34/10 89/35/10
f 82/33/4 84/36/4 83/37/4 90/34/4
f 84/36/11 85/38/11 86/39/11 83/37/11
f 85/38/12 92/40/12 87/41/12 86/39/12
f 92/40/8 88/42/8 91/43/8 87/41/8
f 88/42/13 81/44/13 89/45/13 91/43/13
s 0
f 89/46/9 90/47/9 83/48/9 86/49/9 87/50/9 91/51/9
f 88/52/3 92/53/3 85/54/3 84/55/3 82/56/3 81/57/3
s 1
f 98/32/10 104/33/10 100/34/10 99/35/10
f 104/33/4 93/36/4 101/37/4 100/34/4
f 93/36/11 103/38/11 94/39/11 101/37/11
f 103/38/12 95/40/12 102/41/12 94/39/12
f 95/40/8 96/42/8 97/43/8 102/41/8
f 96/42/13 98/44/13 99/45/13 97/43/13
s 0
f 99/46/9 100/47/9 101/48/9 94/49/9 102/50/9 97/51/9
f 96/52/3 95/53/3 103/54/3 93/55/3 104/56/3 98/57/3
s 1
f 105/32/10 116/33/10 106/34/10 113/35/10
f 116/33/4 107/36/4 108/37/4 106/34/4
f 107/36/11 115/38/11 109/39/11 108/37/11
f 115/38/12 110/40/12 112/41/12 109/39/12
f 110/40/8 111/42/8 114/43/8 112/41/8
f 111/42/13 105/44/13 113/45/13 114/43/13
s 0
f 113/46/9 106/47/9 108/48/9 109/49/9 112/50/9 114/51/9
f 111/52/3 110/53/3 115/54/3 107/55/3 116/56/3 105/57/3
s 1
f 128/32/10 127/33/10 117/34/10 124/35/10
f 127/33/4 126/36/4 118/37/4 117/34/4
f 126/36/11 119/38/11 125/39/11 118/37/11
f 119/38/12 120/40/12 122/41/12 125/39/12
f 120/40/8 123/42/8 121/43/8 122/41/8
f 123/42/13 128/44/13 124/45/13 121/43/13
s 0
f 124/46/9 117/47/9 118/48/9 125/49/9 122/50/9 121/51/9
f 123/52/3 120/53/3 119/54/3 126/55/3 127/56/3 128/57/3
s 1
f 140/32/10 139/33/10 129/34/10 130/35/10
f 139/33/4 131/36/4 132/37/4 129/34/4
f 131/36/11 133/38/11 137/39/11 132/37/11
f 133/38/12 134/40/12 135/41/12 137/39/12
f 134/40/8 138/42/8 136/43/8 135/41/8
f 138/42/13 140/44/13 130/45/13 136/43/13
s 0
f 130/46/9 129/47/9 132/48/9 137/49/9 135/50/9 136/51/9
f 138/52/3 134/53/3 133/54/3 131/55/3 139/56/3 140/57/3
s 1
f 152/32/10 151/33/10 141/34/10 147/35/10
f 151/33/4 142/36/4 148/37/4 141/34/4
f 142/36/11 150/38/11 143/39/11 148/37/11
f 150/38/12 149/40/12 145/41/12 143/39/12
f 149/40/8 144/42/8 146/43/8 145/41/8
f 144/42/13 152/44/13 147/45/13 146/43/13
s 0
f 147/46/9 141/47/9 148/48/9 143/49/9 145/50/9 146/51/9
f 144/52/3 149/53/3 150/54/3 142/55/3 151/56/3 152/57/3
f 160/12/8 157/23/8 159/25/8 153/26/8
f 158/12/4 154/23/4 156/25/4 155/26/4
f 154/12/2 160/27/2 153/28/2 156/29/2
f 157/12/1 158/27/1 155/28/1 159/29/1
f 153/12/9 159/23/9 155/30/9 156/31/9
f 154/12/3 158/23/3 157/30/3 160/31/3
s 1
f 161/32/10 163/33/10 168/34/10 162/35/10
f 163/33/4 172/36/4 164/37/4 168/34/4
f 172/36/11 165/38/11 166/39/11 164/37/11
f 165/38/12 171/40/12 169/41/12 166/39/12
f 171/40/8 167/42/8 170/43/8 169/41/8
f 167/42/13 161/44/13 162/45/13 170/43/13
s 0
f 162/46/9 168/47/9 164/48/9 166/49/9 169/50/9 170/51/9
f 167/52/3 171/53/3 165/54/3 172/55/3 163/56/3 161/57/3
s 1
f 184/32/10 173/33/10 174/34/10 182/35/10
f 173/33/4 175/36/4 176/37/4 174/34/4
f 175/36/11 178/38/11 177/39/11 176/37/11
f 178/38/12 180/40/12 179/41/12 177/39/12
f 180/40/8 183/42/8 181/43/8 179/41/8
f 183/42/13 184/44/13 182/45/13 181/43/13
s 0
f 182/46/9 174/47/9 176/48/9 177/49/9 179/50/9 181/51/9
f 183/52/3 180/53/3 178/54/3 175/55/3 173/56/3 184/57/3
s 1
f 196/32/10 195/33/10 193/34/10 191/35/10
f 195/33/4 185/36/4 186/37/4 193/34/4
f 185/36/11 187/38/11 188/39/11 186/37/11
f 187/38/12 189/40/12 194/41/12 188/39/12
f 189/40/8 190/42/8 192/43/8 194/41/8
f 190/42/13 196/44/13 191/45/13 192/43/13
s 0
f 191/46/9 193/47/9 186/48/9 188/49/9 194/50/9 192/51/9
f 190/52/3 189/53/3 187/54/3 185/55/3 195/56/3 196/57/3
s 1
f 208/32/10 207/33/10 197/34/10 202/35/10
f 207/33/4 198/36/4 199/37/4 197/34/4
f 198/36/11 206/38/11 204/39/11 199/37/11
f 206/38/12 205/40/12 200/41/12 204/39/12
f 205/40/8 201/42/8 203/43/8 200/41/8
f 201/42/13 208/44/13 202/45/13 203/43/13
s 0
f 202/46/9 197/47/9 199/48/9 204/49/9 200/50/9 203/51/9
f 201/52/3 205/53/3 206/54/3 198/55/3 207/56/3 208/57/3
s 1
f 220/32/10 219/33/10 210/34/10 216/35/10
f 219/33/4 209/36/4 212/37/4 210/34/4
f 209/36/11 211/38/11 214/39/11 212/37/11
f 211/38/12 213/40/12 217/41/12 214/39/12
f 213/40/8 218/42/8 215/43/8 217/41/8
f 218/42/13 220/44/13 216/45/13 215/43/13
s 0
f 216/46/9 210/47/9 212/48/9 214/49/9 217/50/9 215/51/9
f 218/52/3 213/53/3 211/54/3 209/55/3 219/56/3 220/57/3
s 1
f 232/32/10 231/33/10 225/34/10 221/35/10
f 231/33/4 230/36/4 222/37/4 225/34/4
f 230/36/11 229/38/11 223/39/11 222/37/11
f 229/38/12 228/40/12 226/41/12 223/39/12
f 228/40/8 224/42/8 227/43/8 226/41/8
f 224/42/13 232/44/13 221/45/13 227/43/13
s 0
f 221/46/9 225/47/9 222/48/9 223/49/9 226/50/9 227/51/9
f 224/52/3 228/53/3 229/54/3 230/55/3 231/56/3 232/57/3
s 1
f 233/32/10 236/33/10 234/34/10 235/35/10
f 236/33/4 237/36/4 239/37/4 234/34/4
f 237/36/11 238/38/11 241/39/11 239/37/11
f 238/38/12 244/40/12 240/41/12 241/39/12
f 244/40/8 243/42/8 242/43/8 240/41/8
f 243/42/13 233/44/13 235/45/13 242/43/13
s 0
f 235/46/9 234/47/9 239/48/9 241/49/9 240/50/9 242/51/9
f 243/52/3 244/53/3 238/54/3 237/55/3 236/56/3 233/57/3
s 1
f 245/32/10 256/33/10 248/34/10 246/35/10
f 256/33/4 249/36/4 247/37/4 248/34/4
f 249/36/11 250/38/11 254/39/11 247/37/11
f 250/38/12 251/40/12 252/41/12 254/39/12
f 251/40/8 253/42/8 255/43/8 252/41/8
f 253/42/13 245/44/13 246/45/13 255/43/13
s 0
f 246/46/9 248/47/9 247/48/9 254/49/9 252/50/9 255/51/9
f 253/52/3 251/53/3 250/54/3 249/55/3 256/56/3 245/57/3
s 1
f 266/32/10 259/33/10 257/34/10 258/35/10
f 259/33/4 260/36/4 262/37/4 257/34/4
f 260/36/11 261/38/11 264/39/11 262/37/11
f 261/38/12 268/40/12 263/41/12 264/39/12
f 268/40/8 267/42/8 265/43/8 263/41/8
f 267/42/13 266/44/13 258/45/13 265/43/13
s 0
f 258/46/9 257/47/9 262/48/9 264/49/9 263/50/9 265/51/9
f 267/52/3 268/53/3 261/54/3 260/55/3 259/56/3 266/57/3
s 1
f 269/32/10 270/33/10 271/34/10 278/35/10
f 270/33/4 272/36/4 279/37/4 271/34/4
f 272/36/11 274/38/11 273/39/11 279/37/11
f 274/38/12 275/40/12 277/41/12 273/39/12
f 275/40/8 276/42/8 280/43/8 277/41/8
f 276/42/13 269/44/13 278/45/13 280/43/13
s 0
f 278/46/9 271/47/9 279/48/9 273/49/9 277/50/9 280/51/9
f 276/52/3 275/53/3 274/54/3 272/55/3 270/56/3 269/57/3
s 1
f 289/32/10 281/33/10 282/34/10 290/35/10
f 281/33/4 283/36/4 291/37/4 282/34/4
f 283/36/11 284/38/11 292/39/11 291/37/11
f 284/38/12 285/40/12 286/41/12 292/39/12
f 285/40/8 287/42/8 288/43/8 286/41/8
f 287/42/13 289/44/13 290/45/13 288/43/13
s 0
f 290/46/9 282/47/9 291/48/9 292/49/9 286/50/9 288/51/9
f 287/52/3 285/53/3 284/54/3 283/55/3 281/56/3 289/57/3
f 293/12/8 296/23/8 298/25/8 294/26/8
f 300/12/4 299/23/4 295/25/4 297/26/4
f 299/12/2 293/27/2 294/28/2 295/29/2
f 296/12/1 300/27/1 297/28/1 298/29/1
f 294/12/9 298/23/9 297/30/9 295/31/9
f 299/12/3 300/23/3 296/30/3 293/31/3
s 1
f 312/32/10 301/33/10 302/34/10 308/35/10
f 301/33/4 303/36/4 304/37/4 302/34/4
f 303/36/11 311/38/11 309/39/11 304/37/11
f 311/38/12 305/40/12 310/41/12 309/39/12
f 305/40/8 307/42/8 306/43/8 310/41/8
f 307/42/13 312/44/13 308/45/13 306/43/13
s 0
f 308/46/9 302/47/9 304/48/9 309/49/9 310/50/9 306/51/9
f 307/52/3 305/53/3 311/54/3 303/55/3 301/56/3 312/57/3
s 1
f 324/32/10 314/33/10 313/34/10 323/35/10
f 314/33/4 316/36/4 315/37/4 313/34/4
f 316/36/11 317/38/11 319/39/11 315/37/11
f 317/38/12 318/40/12 321/41/12 319/39/12
f 318/40/8 322/42/8 320/43/8 321/41/8
f 322/42/13 324/44/13 323/45/13 320/43/13
s 0
f 323/46/9 313/47/9 315/48/9 319/49/9 321/50/9 320/51/9
f 322/52/3 318/53/3 317/54/3 316/55/3 314/56/3 324/57/3
s 1
f 336/32/10 325/33/10 327/34/10 326/35/10
f 325/33/4 335/36/4 328/37/4 327/34/4
f 335/36/11 334/38/11 330/39/11 328/37/11
f 334/38/12 329/40/12 331/41/12 330/39/12
f 329/40/8 333/42/8 332/43/8 331/41/8
f 333/42/13 336/44/13 326/45/13 332/43/13
s 0
f 326/46/9 327/47/9 328/48/9 330/49/9 331/50/9 332/51/9
f 333/52/3 329/53/3 334/54/3 335/55/3 325/56/3 336/57/3
s 1
f 337/32/10 348/33/10 345/34/10 344/35/10
f 348/33/4 338/36/4 339/37/4 345/34/4
f 338/36/11 347/38/11 340/39/11 339/37/11
f 347/38/12 346/40/12 342/41/12 340/39/12
f 346/40/8 341/42/8 343/43/8 342/41/8
f 341/42/13 337/44/13 344/45/13 343/43/13
s 0
f 344/46/9 345/47/9 339/48/9 340/49/9 342/50/9 343/51/9
f 341/52/3 346/53/3 347/54/3 338/55/3 348/56/3 337/57/3
s 1
f 349/32/10 350/33/10 358/34/10 356/35/10
f 350/33/4 351/36/4 359/37/4 358/34/4
f 351/36/11 352/38/11 354/39/11 359/37/11
f 352/38/12 353/40/12 360/41/12 354/39/12
f 353/40/8 355/42/8 357/43/8 360/41/8
f 355/42/13 349/44/13 356/45/13 357/43/13
s 0
f 356/46/9 358/47/9 359/48/9 354/49/9 360/50/9 357/51/9
f 355/52/3 353/53/3 352/54/3 351/55/3 350/56/3 349/57/3
s 1
f 372/32/10 371/33/10 361/34/10 362/35/10
f 371/33/4 363/36/4 367/37/4 361/34/4
f 363/36/11 364/38/11 368/39/11 367/37/11
f 364/38/12 370/40/12 369/41/12 368/39/12
f 370/40/8 366/42/8 365/43/8 369/41/8
f 366/42/13 372/44/13 362/45/13 365/43/13
s 0
f 362/46/9 361/47/9 367/48/9 368/49/9 369/50/9 365/51/9
f 366/52/3 370/53/3 364/54/3 363/55/3 371/56/3 372/57/3
s 1
f 376/32/10 384/33/10 374/34/10 377/35/10
f 384/33/4 373/36/4 379/37/4 374/34/4
f 373/36/11 383/38/11 375/39/11 379/37/11
f 383/38/12 382/40/12 380/41/12 375/39/12
f 382/40/8 381/42/8 378/43/8 380/41/8
f 381/42/13 376/44/13 377/45/13 378/43/13
s 0
f 377/46/9 374/47/9 379/48/9 375/49/9 380/50/9 378/51/9
f 381/52/3 382/53/3 383/54/3 373/55/3 384/56/3 376/57/3
s 1
f 385/32/10 396/33/10 394/34/10 393/35/10
f 396/33/4 386/36/4 387/37/4 394/34/4
f 386/36/11 388/38/11 395/39/11 387/37/11
f 388/38/12 389/40/12 391/41/12 395/39/12
f 389/40/8 392/42/8 390/43/8 391/41/8
f 392/42/13 385/44/13 393/45/13 390/43/13
s 0
f 393/46/9 394/47/9 387/48/9 395/49/9 391/50/9 390/51/9
f 392/52/3 389/53/3 388/54/3 386/55/3 396/56/3 385/57/3
s 1
f 408/32/10 397/33/10 406/34/10 404/35/10
f 397/33/4 407/36/4 398/37/4 406/34/4
f 407/36/11 400/38/11 399/39/11 398/37/11
f 400/38/12 402/40/12 401/41/12 399/39/12
f 402/40/8 403/42/8 405/43/8 401/41/8
f 403/42/13 408/44/13 404/45/13 405/43/13
s 0
f 404/46/9 406/47/9 398/48/9 399/49/9 401/50/9 405/51/9
f 403/52/3 402/53/3 400/54/3 407/55/3 397/56/3 408/57/3
s 1
f 420/32/10 419/33/10 409/34/10 413/35/10
f 419/33/4 418/36/4 414/37/4 409/34/4
f 418/36/11 410/38/11 415/39/11 414/37/11
f 410/38/12 417/40/12 416/41/12 415/39/12
f 417/40/8 412/42/8 411/43/8 416/41/8
f 412/42/13 420/44/13 413/45/13 411/43/13
s 0
f 413/46/9 409/47/9 414/48/9 415/49/9 416/50/9 411/51/9
f 412/52/3 417/53/3 410/54/3 418/55/3 419/56/3 420/57/3
s 1
f 421/32/10 422/33/10 423/34/10 430/35/10
f 422/33/4 432/36/4 424/37/4 423/34/4
f 432/36/11 425/38/11 428/39/11 424/37/11
f 425/38/12 426/40/12 427/41/12 428/39/12
f 426/40/8 431/42/8 429/43/8 427/41/8
f 431/42/13 421/44/13 430/45/13 429/43/13
s 0
f 430/46/9 423/47/9 424/48/9 428/49/9 427/50/9 429/51/9
f 431/52/3 426/53/3 425/54/3 432/55/3 422/56/3 421/57/3
f 440/12/8 436/23/8 438/25/8 434/26/8
f 439/12/4 433/23/4 435/25/4 437/26/4
f 433/12/2 440/27/2 434/28/2 435/29/2
f 436/12/1 439/27/1 437/28/1 438/29/1
f 434/12/9 438/23/9 437/30/9 435/31/9
f 433/12/3 439/23/3 436/30/3 440/31/3
s 1
f 441/32/10 442/33/10 444/34/10 450/35/10
f 442/33/4 445/36/4 443/37/4 444/34/4
f 445/36/11 446/38/11 451/39/11 443/37/11
f 446/38/12 447/40/12 448/41/12 451/39/12
f 447/40/8 449/42/8 452/43/8 448/41/8
f 449/42/13 441/44/13 450/45/13 452/43/13
s 0
f 450/46/9 444/47/9 443/48/9 451/49/9 448/50/9 452/51/9
f 449/52/3 447/53/3 446/54/3 445/55/3 442/56/3 441/57/3
s 1
f 464/32/10 463/33/10 453/34/10 458/35/10
f 463/33/4 462/36/4 459/37/4 453/34/4
f 462/36/11 461/38/11 454/39/11 459/37/11
f 461/38/12 455/40/12 460/41/12 454/39/12
f 455/40/8 456/42/8 457/43/8 460/41/8
f 456/42/13 464/44/13 458/45/13 457/43/13
s 0
f 458/46/9 453/47/9 459/48/9 454/49/9 460/50/9 457/51/9
f 456/52/3 455/53/3 461/54/3 462/55/3 463/56/3 464/57/3
s 1
f 469/32/10 465/33/10 471/34/10 470/35/10
f 465/33/4 476/36/4 467/37/4 471/34/4
f 476/36/11 466/38/11 472/39/11 467/37/11
f 466/38/12 475/40/12 473/41/12 472/39/12
f 475/40/8 474/42/8 468/43/8 473/41/8
f 474/42/13 469/44/13 470/45/13 468/43/13
s 0
f 470/46/9 471/47/9 467/48/9 472/49/9 473/50/9 468/51/9
f 474/52/3 475/53/3 466/54/3 476/55/3 465/56/3 469/57/3
s 1
f 488/32/10 478/33/10 480/34/10 477/35/10
f 478/33/4 481/36/4 479/37/4 480/34/4
f 481/36/11 487/38/11 483/39/11 479/37/11
f 487/38/12 482/40/12 486/41/12 483/39/12
f 482/40/8 484/42/8 485/43/8 486/41/8
f 484/42/13 488/44/13 477/45/13 485/43/13
s 0
f 477/46/9 480/47/9 479/48/9 483/49/9 486/50/9 485/51/9
f 484/52/3 482/53/3 487/54/3 481/55/3 478/56/3 488/57/3
s 1
f 496/32/10 491/33/10 489/34/10 490/35/10
f 491/33/4 492/36/4 497/37/4 489/34/4
f 492/36/11 493/38/11 498/39/11 497/37/11
f 493/38/12 494/40/12 499/41/12 498/39/12
f 494/40/8 495/42/8 500/43/8 499/41/8
f 495/42/13 496/44/13 490/45/13 500/43/13
s 0
f 490/46/9 489/47/9 497/48/9 498/49/9 499/50/9 500/51/9
f 495/52/3 494/53/3 493/54/3 492/55/3 491/56/3 496/57/3
s 1
f 509/32/10 501/33/10 503/34/10 510/35/10
f 501/33/4 502/36/4 504/37/4 503/34/4
f 502/36/11 505/38/11 512/39/11 504/37/11
f 505/38/12 506/40/12 507/41/12 512/39/12
f 506/40/8 508/42/8 511/43/8 507/41/8
f 508/42/13 509/44/13 510/45/13 511/43/13
s 0
f 510/46/9 503/47/9 504/48/9 512/49/9 507/50/9 511/51/9
f 508/52/3 506/53/3 505/54/3 502/55/3 501/56/3 509/57/3
s 1
f 524/32/10 523/33/10 513/34/10 514/35/10
f 523/33/4 515/36/4 516/37/4 513/34/4
f 515/36/11 522/38/11 517/39/11 516/37/11
f 522/38/12 521/40/12 518/41/12 517/39/12
f 521/40/8 520/42/8 519/43/8 518/41/8
f 520/42/13 524/44/13 514/45/13 519/43/13
s 0
f 514/46/9 513/47/9 516/48/9 517/49/9 518/50/9 519/51/9
f 520/52/3 521/53/3 522/54/3 515/55/3 523/56/3 524/57/3
s 1
f 536/32/10 526/33/10 529/34/10 525/35/10
f 526/33/4 527/36/4 528/37/4 529/34/4
f 527/36/11 535/38/11 530/39/11 528/37/11
f 535/38/12 534/40/12 531/41/12 530/39/12
f 534/40/8 533/42/8 532/43/8 531/41/8
f 533/42/13 536/44/13 525/45/13 532/43/13
s 0
f 525/46/9 529/47/9 528/48/9 530/49/9 531/50/9 532/51/9
f 533/52/3 534/53/3 535/54/3 527/55/3 526/56/3 536/57/3
s 1
f 544/32/10 537/33/10 539/34/10 545/35/10
f 537/33/4 548/36/4 538/37/4 539/34/4
f 548/36/11 540/38/11 546/39/11 538/37/11
f 540/38/12 541/40/12 542/41/12 546/39/12
f 541/40/8 543/42/8 547/43/8 542/41/8
f 543/42/13 544/44/13 545/45/13 547/43/13
s 0
f 545/46/9 539/47/9 538/48/9 546/49/9 542/50/9 547/51/9
f 543/52/3 541/53/3 540/54/3 548/55/3 537/56/3 544/57/3
s 1
f 555/32/10 560/33/10 549/34/10 550/35/10
f 560/33/4 552/36/4 551/37/4 549/34/4
f 552/36/11 559/38/11 554/39/11 551/37/11
f 559/38/12 558/40/12 553/41/12 554/39/12
f 558/40/8 557/42/8 556/43/8 553/41/8
f 557/42/13 555/44/13 550/45/13 556/43/13
s 0
f 550/46/9 549/47/9 551/48/9 554/49/9 553/50/9 556/51/9
f 557/52/3 558/53/3 559/54/3 552/55/3 560/56/3 555/57/3
f 568/32/8 561/44/8 562/58/8 563/59/8
f 567/32/4 564/44/4 565/58/4 566/59/4
f 564/32/2 568/60/2 563/61/2 565/62/2
f 561/32/1 567/60/1 566/61/1 562/62/1
f 563/32/9 562/44/9 566/63/9 565/64/9
f 564/32/3 567/44/3 561/63/3 568/64/3
s 1
f 569/65/14 572/66/15 570/67/15 571/68/14
f 572/66/15 574/69/16 573/70/16 570/67/15
f 574/69/16 575/71/17 577/72/17 573/70/16
f 575/71/17 576/73/18 579/74/18 577/72/17
f 576/73/18 580/75/19 578/76/19 579/74/18
f 580/75/19 581/77/20 583/78/20 578/76/19
f 581/77/20 582/79/21 585/80/21 583/78/20
f 582/79/21 584/81/22 588/82/22 585/80/21
f 584/81/22 586/83/23 587/84/23 588/82/22
f 586/83/23 589/85/24 590/86/24 587/84/23
f 602/87/1 610/88/25 592/89/25 603/90/1
f 610/88/25 593/91/26 591/92/26 592/89/25
f 593/91/26 594/93/27 604/94/27 591/92/26
f 594/93/27 595/95/28 605/96/28 604/94/27
f 595/95/28 596/97/2 606/98/2 605/96/28
f 596/97/2 597/99/29 607/100/29 606/98/2
f 597/99/29 598/101/30 600/102/30 607/100/29
f 598/101/30 601/103/31 599/104/31 600/102/30
f 601/103/31 609/105/32 608/106/32 599/104/31
f 609/105/32 602/107/1 603/108/1 608/106/32
s 0
f 603/109/9 592/110/9 591/111/9 604/112/9 605/113/9 606/114/9 607/115/9 600/116/9 599/117/9 608/118/9
f 609/119/3 601/120/3 598/121/3 597/122/3 596/123/3 595/124/3 594/125/3 593/126/3 610/127/3 602/128/3
s 1
f 611/87/1 612/88/25 625/89/25 624/90/1
f 612/88/25 630/91/26 626/92/26 625/89/25
f 630/91/26 613/93/27 614/94/27 626/92/26
f 613/93/27 629/95/28 616/96/28 614/94/27
f 629/95/28 628/97/2 615/98/2 616/96/28
f 628/97/2 617/99/29 620/100/29 615/98/2
f 617/99/29 618/101/30 619/102/30 620/100/29
f 618/101/30 622/103/31 621/104/31 619/102/30
f 622/103/31 623/105/32 627/106/32 621/104/31
f 623/105/32 611/107/1 624/108/1 627/106/32
s 0
f 624/109/9 625/110/9 626/111/9 614/112/9 616/113/9 615/114/9 620/115/9 619/116/9 621/117/9 627/118/9
f 623/119/3 622/120/3 618/121/3 617/122/3 628/123/3 629/124/3 613/125/3 630/126/3 612/127/3 611/128/3
f 635/32/8 637/55/8 638/129/8 631/130/8
f 632/32/4 633/55/4 636/129/4 634/130/4
f 633/32/2 635/60/2 631/131/2 636/130/2
f 637/32/1 632/60/1 634/131/1 638/130/1
f 631/32/9 638/55/9 634/129/9 636/130/9
f 633/32/3 632/55/3 637/129/3 635/130/3
o typewriter_save_carriage
v -0.190000 0.100000 -0.075000 0.8000 0.8000 0.8000
v -0.190000 0.115202 -0.095923 0.8823 0.8823 0.8823
v 0.190000 0.104202 -0.087931 0.8196 0.8196 0.8196
v -0.190000 0.128798 -0.095923 0.9411 0.9411 0.9411
v 0.190000 0.139798 -0.087931 0.9686 0.9686 0.9686
v -0.190000 0.139798 -0.087931 0.9686 0.9686 0.9686
v 0.190000 0.139798 -0.062069 0.9568 0.9568 0.9568
v 0.190000 0.144000 -0.075000 0.9725 0.9725 0.9725
v -0.190000 0.139798 -0.062069 0.9529 0.9529 0.9529
v -0.190000 0.128798 -0.054077 0.9058 0.9058 0.9058
v 0.190000 0.128798 -0.054077 0.9333 0.9333 0.9333
v -0.190000 0.115202 -0.054077 0.8823 0.8823 0.8823
v 0.190000 0.115202 -0.054077 0.8902 0.8902 0.8902
v 0.190000 0.104202 -0.062069 0.8196 0.8196 0.8196
v 0.190000 0.100000 -0.075000 0.7921 0.7921 0.7921
v 0.190000 0.115202 -0.095923 0.8862 0.8862 0.8862
v 0.190000 0.128798 -0.095923 0.9372 0.9372 0.9372
v -0.190000 0.104202 -0.062069 0.8274 0.8274 0.8274
v -0.190000 0.144000 -0.075000 0.9607 0.9607 0.9607
v -0.190000 0.104202 -0.087931 0.8274 0.8274 0.8274
v -0.208000 0.109979 -0.087021 0.8706 0.8706 0.8706
v -0.192000 0.109979 -0.087021 0.7725 0.7725 0.7725
v -0.208000 0.122000 -0.092000 0.9411 0.9411 0.9411
v -0.208000 0.134021 -0.087021 0.9804 0.9804 0.9804
v -0.192000 0.139000 -0.075000 0.8431 0.8431 0.8431
v -0.208000 0.139000 -0.075000 0.9764 0.9764 0.9764
v -0.208000 0.134021 -0.062979 0.9529 0.9529 0.9529
v -0.192000 0.134021 -0.062979 0.8235 0.8235 0.8235
v -0.208000 0.109979 -0.062979 0.8706 0.8706 0.8706
v -0.192000 0.105000 -0.075000 0.7451 0.7451 0.7451
v -0.192000 0.109979 -0.062979 0.7725 0.7725 0.7725
v -0.192000 0.122000 -0.092000 0.8235 0.8235 0.8235
v -0.192000 0.134021 -0.087021 0.8470 0.8470 0.8470
v -0.192000 0.122000 -0.058000 0.8157 0.8157 0.8157
v -0.208000 0.122000 -0.058000 0.9294 0.9294 0.9294
v -0.208000 0.105000 -0.075000 0.8313 0.8313 0.8313
v 0.192000 0.109979 -0.087021 0.7725 0.7725 0.7725
v 0.192000 0.122000 -0.092000 0.8274 0.8274 0.8274
v 0.208000 0.122000 -0.092000 0.9411 0.9411 0.9411
v 0.208000 0.109979 -0.087021 0.8706 0.8706 0.8706
v 0.192000 0.134021 -0.087021 0.8470 0.8470 0.8470
v 0.192000 0.139000 -0.075000 0.8470 0.8470 0.8470
v 0.208000 0.139000 -0.075000 0.9843 0.9843 0.9843
v 0.208000 0.134021 -0.062979 0.9725 0.9725 0.9725
v 0.192000 0.134021 -0.062979 0.8431 0.8431 0.8431
v 0.192000 0.122000 -0.058000 0.8274 0.8274 0.8274
v 0.192000 0.109979 -0.062979 0.7764 0.7764 0.7764
v 0.208000 0.105000 -0.075000 0.8353 0.8353 0.8353
v 0.208000 0.134021 -0.087021 0.9764 0.9764 0.9764
v 0.208000 0.122000 -0.058000 0.9372 0.9372 0.9372
v 0.208000 0.109979 -0.062979 0.8706 0.8706 0.8706
v 0.192000 0.105000 -0.075000 0.7412 0.7412 0.7412
v -0.180000 0.102000 -0.085000 0.7764 0.7764 0.7764
v 0.180000 0.102000 -0.085000 0.7686 0.7686 0.7686
v -0.180000 0.108000 -0.085000 0.7020 0.7020 0.7020
v 0.180000 0.102000 -0.135000 0.8745 0.8745 0.8745
v 0.180000 0.108000 -0.085000 0.7020 0.7020 0.7020
v 0.180000 0.108000 -0.135000 0.9451 0.9451 0.9451
v -0.180000 0.108000 -0.135000 0.9451 0.9451 0.9451
v -0.180000 0.102000 -0.135000 0.8823 0.8823 0.8823
v 0.120000 0.115265 -0.087175 0.7020 0.7020 0.7020
v -0.080000 0.115265 -0.087175 0.7020 0.7020 0.7020
v -0.080000 0.115390 -0.086588 0.7020 0.7020 0.7020
v -0.080000 0.281550 -0.122520 0.9960 0.9960 0.9960
v 0.120000 0.115390 -0.086588 0.7020 0.7020 0.7020
v 0.120000 0.281675 -0.121933 0.9921 0.9921 0.9921
v -0.080000 0.281675 -0.121933 0.9921 0.9921 0.9921
v 0.120000 0.281550 -0.122520 1.0000 1.0000 1.0000
v 0.150000 0.156000 -0.050000 0.9529 0.9529 0.9529
v -0.150000 0.156000 -0.054000 0.9372 0.9372 0.9372
v 0.150000 0.144000 -0.050000 0.8745 0.8745 0.8745
v 0.150000 0.156000 -0.054000 0.9255 0.9255 0.9255
v -0.150000 0.156000 -0.050000 0.9529 0.9529 0.9529
v -0.150000 0.144000 -0.054000 0.8353 0.8353 0.8353
v 0.150000 0.144000 -0.054000 0.8313 0.8313 0.8313
v -0.150000 0.144000 -0.050000 0.8666 0.8666 0.8666
v -0.192305 0.130000 -0.061921 0.7059 0.7059 0.7059
v -0.190875 0.127330 -0.058949 0.7529 0.7529 0.7529
v -0.187695 0.130000 -0.058079 0.7020 0.7020 0.7020
v -0.189125 0.132670 -0.061051 0.7020 0.7020 0.7020
v -0.212456 0.150000 -0.028410 0.9098 0.9098 0.9098
v -0.217544 0.150000 -0.031590 0.9529 0.9529 0.9529
v -0.242748 0.160000 0.018798 0.9647 0.9647 0.9647
v -0.215482 0.147141 -0.029229 0.8745 0.8745 0.8745
v -0.214518 0.152859 -0.030771 0.9804 0.9804 0.9804
v -0.237252 0.160000 0.021202 0.9255 0.9255 0.9255
v -0.249940 0.155006 0.049820 0.9215 0.9215 0.9215
v -0.240110 0.157013 0.020251 0.8980 0.8980 0.8980
v -0.247154 0.158000 0.050949 0.9451 0.9451 0.9451
v -0.239890 0.162987 0.019749 0.9921 0.9921 0.9921
v -0.252846 0.158000 0.049051 0.9686 0.9686 0.9686
v -0.250060 0.160994 0.050180 0.9882 0.9882 0.9882
vn -0.0000 -1.0000 -0.0000
vn -0.0000 -0.8090 -0.5878
vn -0.0000 -0.3090 -0.9511
vn -0.0000 0.3090 -0.9511
vn -0.0000 0.8090 -0.5878
vn -0.0000 1.0000 -0.0000
vn -0.0000 0.8090 0.5878
vn -0.0000 0.3090 0.9511
vn -0.0000 -0.3090 0.9511
vn -0.0000 -0.8090 0.5878
vn 1.0000 -0.0000 -0.0000
vn -1.0000 -0.0000 -0.0000
vn -0.0000 -0.7071 -0.7071
vn -0.0000 -0.0000 -1.0000
vn -0.0000 0.7071 -0.7071
vn -0.0000 0.7071 0.7071
vn -0.0000 -0.0000 1.0000
vn -0.0000 -0.7071 0.7071
vn -0.0000 0.2079 0.9781
vn -0.0000 -0.2079 -0.9781
vn -0.0000 0.9781 -0.2079
vn -0.0000 -0.9781 0.2079
vn -0.7400 -0.6464 -0.1857
vn -0.7166 -0.6691 -0.1966
vn -0.7160 -0.6698 -0.1969
vn 0.3544 -0.6134 0.7058
vn 0.4706 -0.6695 0.5747
vn 0.4699 -0.6692 0.5757
vn 0.7400 0.6464 0.1858
vn 0.7159 0.6698 0.1970
vn 0.7167 0.6691 0.1966
vn -0.3556 0.6143 -0.7044
vn -0.4705 0.6695 -0.5748
vn -0.4707 0.6696 -0.5745
vn -0.6738 -0.6997 -0.2375
vn -0.6747 -0.6994 -0.2360
vn 0.6324 -0.7116 0.3060
vn 0.6331 -0.7117 0.3046
vn 0.6747 0.6994 0.2360
vn 0.6738 0.6997 0.2374
vn -0.6326 0.7116 -0.3057
vn -0.6318 0.7116 -0.3073
vn -0.6558 -0.7066 -0.2658
vn 0.6835 -0.7075 0.1796
vn 0.6558 0.7066 0.2656
vn -0.6829 0.7076 -0.1815
vn 0.5698 -0.4558 -0.6838
vn -0.3156 -0.0631 0.9468
vt 0.281738 0.859863
vt 0.284766 0.859863
vt 0.284766 0.874512
vt 0.281738 0.874512
vt 0.287793 0.859863
vt 0.287793 0.874512
vt 0.290820 0.859863
vt 0.290820 0.874512
vt 0.293848 0.859863
vt 0.293848 0.874512
vt 0.296875 0.859863
vt 0.296875 0.874512
vt 0.299902 0.859863
vt 0.299902 0.874512
vt 0.302930 0.859863
vt 0.302930 0.874512
vt 0.305957 0.859863
vt 0.305957 0.874512
vt 0.308984 0.859863
vt 0.308984 0.874512
vt 0.312012 0.859863
vt 0.312012 0.874512
vt 0.390137 0.890625
vt 0.387246 0.899980
vt 0.379678 0.905762
vt 0.370322 0.905762
vt 0.362754 0.899980
vt 0.359863 0.890625
vt 0.362754 0.881270
vt 0.370322 0.875488
vt 0.379678 0.875488
vt 0.387246 0.881270
vt 0.391113 0.859863
vt 0.392944 0.859863
vt 0.392944 0.874512
vt 0.391113 0.874512
vt 0.394775 0.859863
vt 0.394775 0.874512
vt 0.396606 0.859863
vt 0.396606 0.874512
vt 0.398438 0.859863
vt 0.398438 0.874512
vt 0.400269 0.859863
vt 0.400269 0.874512
vt 0.402100 0.859863
vt 0.402100 0.874512
vt 0.403931 0.859863
vt 0.403931 0.874512
vt 0.405762 0.859863
vt 0.405762 0.874512
vt 0.296387 0.890625
vt 0.291953 0.901328
vt 0.281250 0.905762
vt 0.270547 0.901328
vt 0.266113 0.890625
vt 0.270547 0.879922
vt 0.281250 0.875488
vt 0.291953 0.879922
vt 0.734863 0.875488
vt 0.765137 0.875488
vt 0.765137 0.875993
vt 0.734863 0.875993
vt 0.753784 0.875488
vt 0.753784 0.877759
vt 0.734863 0.877759
vt 0.765137 0.879693
vt 0.734863 0.879693
vt 0.406738 0.937988
vt 0.452637 0.937988
vt 0.452637 0.999512
vt 0.406738 0.999512
vt 0.375488 0.859863
vt 0.390137 0.859863
vt 0.390137 0.872314
vt 0.375488 0.872314
vt 0.375540 0.859863
vt 0.375540 0.874512
vt 0.375488 0.874512
vt 0.390137 0.859907
vt 0.375488 0.859907
vt 0.359863 0.875488
vt 0.390137 0.875488
vt 0.390137 0.876699
vt 0.359863 0.876699
vt 0.361377 0.875488
vt 0.361377 0.880029
vt 0.359863 0.880029
vt 0.390137 0.875892
vt 0.359863 0.875892
vt 0.367432 0.875488
vt 0.367432 0.885579
vt 0.359863 0.885579
vt 0.375000 0.875488
vt 0.375000 0.885579
vt 0.382568 0.875488
vt 0.382568 0.885579
vt 0.390137 0.885579
vt 0.367432 0.895671
vt 0.359863 0.895671
vt 0.375000 0.895671
vt 0.382568 0.895671
vt 0.390137 0.895671
vt 0.367432 0.905762
vt 0.359863 0.905762
vt 0.375000 0.905762
vt 0.382568 0.905762
vt 0.390137 0.905762
s 1
usemtl props
f 639/132/33 658/133/34 641/134/34 653/135/33
f 658/133/34 640/136/35 654/137/35 641/134/34
f 640/136/35 642/138/36 655/139/36 654/137/35
f 642/138/36 644/140/37 643/141/37 655/139/36
f 644/140/37 657/142/38 646/143/38 643/141/37
f 657/142/38 647/144/39 645/145/39 646/143/38
f 647/144/39 648/146/40 649/147/40 645/145/39
f 648/146/40 650/148/41 651/149/41 649/147/40
f 650/148/41 656/150/42 652/151/42 651/149/41
f 656/150/42 639/152/33 653/153/33 652/151/42
s 0
f 653/154/43 641/155/43 654/156/43 655/157/43 643/158/43 646/159/43 645/160/43 649/161/43 651/162/43 652/163/43
f 656/155/44 650/156/44 648/157/44 647/158/44 657/159/44 644/160/44 642/161/44 640/162/44 658/163/44 639/154/44
s 1
f 674/164/33 659/165/45 660/166/45 668/167/33
f 659/165/45 661/168/46 670/169/46 660/166/45
f 661/168/46 662/170/47 671/171/47 670/169/46
f 662/170/47 664/172/38 663/173/38 671/171/47
f 664/172/38 665/174/48 666/175/48 663/173/38
f 665/174/48 673/176/49 672/177/49 666/175/48
f 673/176/49 667/178/50 669/179/50 672/177/49
f 667/178/50 674/180/33 668/181/33 669/179/50
s 0
f 668/182/43 660/183/43 670/184/43 671/185/43 663/186/43 666/187/43 672/188/43 669/189/43
f 667/183/44 673/184/44 665/185/44 664/186/44 662/187/44 661/188/44 659/189/44 674/182/44
s 1
f 690/164/33 675/165/45 678/166/45 686/167/33
f 675/165/45 676/168/46 677/169/46 678/166/45
f 676/168/46 679/170/47 687/171/47 677/169/46
f 679/170/47 680/172/38 681/173/38 687/171/47
f 680/172/38 683/174/48 682/175/48 681/173/38
f 683/174/48 684/176/49 688/177/49 682/175/48
f 684/176/49 685/178/50 689/179/50 688/177/49
f 685/178/50 690/180/33 686/181/33 689/179/50
s 0
f 686/182/43 678/183/43 677/184/43 687/185/43 681/186/43 682/187/43 688/188/43 689/189/43
f 685/183/44 684/184/44 683/185/44 680/186/44 679/187/44 676/188/44 675/189/44 690/182/44
f 691/190/49 692/191/49 695/192/49 693/193/49
f 694/190/46 698/191/46 697/192/46 696/193/46
f 698/190/44 691/194/44 693/195/44 697/196/44
f 692/190/43 694/194/43 696/195/43 695/196/43
f 693/190/38 695/191/38 696/197/38 697/198/38
f 698/190/33 694/191/33 692/197/33 691/198/33
f 701/199/51 703/200/51 704/201/51 705/202/51
f 699/203/52 700/204/52 702/205/52 706/206/52
f 700/203/44 701/207/44 705/208/44 702/209/44
f 703/203/43 699/207/43 706/208/43 704/209/43
f 705/203/53 704/204/53 706/210/53 702/211/53
f 700/203/54 699/204/54 703/210/54 701/211/54
f 714/212/49 709/213/49 707/214/49 711/215/49
f 713/212/46 712/213/46 708/214/46 710/215/46
f 712/212/44 714/216/44 711/217/44 708/218/44
f 709/212/43 713/216/43 710/217/43 707/218/43
f 711/212/38 707/213/38 710/219/38 708/220/38
f 712/212/33 713/213/33 709/219/33 714/220/33
s 1
f 715/212/55 716/221/55 722/222/56 720/223/57
f 716/221/58 717/224/58 719/225/59 722/222/60
f 717/224/61 718/226/61 723/227/62 719/225/63
f 718/226/64 715/213/64 720/228/65 723/227/66
f 720/223/57 722/222/56 726/229/67 721/230/68
f 722/222/60 719/225/59 724/231/69 726/229/70
f 719/225/63 723/227/62 728/232/71 724/231/72
f 723/227/66 720/228/65 721/233/73 728/232/74
f 721/230/68 726/229/67 725/234/75 729/235/75
f 726/229/70 724/231/69 727/236/76 725/234/76
f 724/231/72 728/232/71 730/237/77 727/236/77
f 728/232/74 721/233/73 729/238/78 730/237/78
s 0
f 718/236/79 717/159/79 716/224/79 715/154/79
f 729/159/80 725/224/80 727/154/80 730/236/80
