# Blender 4.1.0
# www.blender.org
mtllib WindowPane.003.mtl
o WindowPane.003
v -0.535527 2.072963 0.055366
v -0.535527 1.989606 0.055366
v -0.535527 2.072963 -0.065020
v -0.535527 1.989606 -0.065020
v 0.538775 2.072963 0.055366
v 0.538775 1.989606 0.055366
v 0.538775 2.072963 -0.065020
v 0.538775 1.989606 -0.065020
vn 1.0000 -0.0000 -0.0000
vn -0.0000 -0.0000 1.0000
vn -1.0000 -0.0000 -0.0000
vn -0.0000 -0.0000 -1.0000
vn -0.0000 -1.0000 -0.0000
vn -0.0000 1.0000 -0.0000
vt 0.096683 0.762431
vt 0.096683 0.798006
vt 0.555165 0.798006
vt 0.555165 0.762431
vt 0.109025 0.128169
vt 0.551353 0.078602
vt 0.551353 0.128169
vt 0.109025 0.078602
s 0
usemtl Window01.001
f 2/1/1 3/2/1 1/2/1
f 4/1/2 7/3/2 3/2/2
f 8/4/3 5/3/3 7/3/3
f 6/4/4 1/2/4 5/3/4
f 7/3/5 1/2/5 3/2/5
f 4/5/6 6/6/6 8/7/6
f 2/1/1 4/1/1 3/2/1
f 4/1/2 8/4/2 7/3/2
f 8/4/3 6/4/3 5/3/3
f 6/4/4 2/1/4 1/2/4
f 7/3/5 5/3/5 1/2/5
f 4/5/6 2/8/6 6/6/6
