# Blender 4.0.2
# www.blender.org
mtllib Handsaw.mtl
o Handsaw
v 0.004352 0.077352 0.568390
v 0.004352 -0.003710 0.568390
v 0.004352 0.077352 -0.004958
v 0.004352 -0.101541 -0.004958
v -0.004121 0.077352 0.568390
v -0.004121 -0.003710 0.568390
v -0.004121 0.077352 -0.004958
v -0.004121 -0.101541 -0.004958
vn 1.0000 -0.0000 -0.0000
vn -1.0000 -0.0000 -0.0000
vn -0.0000 1.0000 -0.0000
vn -0.0000 -0.0000 1.0000
vn -0.0000 -0.9858 0.1682
vn -0.0000 -0.0000 -1.0000
vt 1.000000 0.000000
vt 0.000000 1.000000
vt 0.000000 0.000000
vt 1.000000 1.000000
s 0
f 2/1/1 3/2/1 1/3/1
f 7/2/2 6/1/2 5/3/2
f 3/2/3 5/3/3 1/3/3
f 1/3/4 6/1/4 2/1/4
f 2/1/5 8/4/5 4/4/5
f 4/4/6 7/2/6 3/2/6
f 2/1/1 4/4/1 3/2/1
f 7/2/2 8/4/2 6/1/2
f 3/2/3 7/2/3 5/3/3
f 1/3/4 5/3/4 6/1/4
f 2/1/5 6/1/5 8/4/5
f 4/4/6 8/4/6 7/2/6
o Handsaw.001
v -0.032559 -0.024050 0.045792
v -0.032559 -0.017846 0.052661
v -0.037743 -0.018733 0.044637
v -0.032559 0.091315 0.089616
v -0.037743 0.087834 0.085740
v -0.032559 0.086343 0.092929
v 0.032559 -0.024050 0.045792
v 0.037743 -0.018733 0.044637
v 0.032559 -0.017846 0.052661
v 0.032559 0.091315 0.089616
v 0.032559 0.086343 0.092929
v 0.037743 0.087834 0.085740
v -0.032559 0.038520 -0.110757
v -0.032559 0.030202 -0.106629
v -0.037743 0.030202 -0.101445
v -0.037743 0.043119 -0.107265
v 0.032559 0.038520 -0.110757
v 0.037743 0.043119 -0.107265
v 0.037743 0.030202 -0.101445
v 0.032559 0.030202 -0.106629
v -0.032559 -0.051649 -0.106629
v -0.037743 -0.054834 -0.101445
v 0.037743 -0.054834 -0.101445
v 0.032559 -0.051649 -0.106629
v -0.037743 -0.034686 -0.013677
v -0.032559 -0.040419 -0.014003
v -0.032559 0.093981 -0.011361
v -0.037743 0.090135 -0.011361
v 0.032559 -0.040419 -0.014003
v 0.037743 -0.034686 -0.013677
v 0.037743 0.090135 -0.011361
v 0.032559 0.093981 -0.011361
v 0.037743 0.057174 -0.016545
v 0.037743 0.046807 -0.006177
v 0.032559 0.046807 -0.011361
v 0.032559 0.051991 -0.016545
v -0.037743 0.046807 -0.006177
v -0.037743 0.057174 -0.016545
v -0.032559 0.051991 -0.016545
v -0.032559 0.046807 -0.011361
v -0.032559 0.011276 -0.011361
v -0.032559 0.002991 -0.015514
v -0.037743 -0.001162 -0.012413
v -0.037743 0.011276 -0.006177
v 0.032559 0.002991 -0.015514
v 0.032559 0.011276 -0.011361
v 0.037743 0.011276 -0.006177
v 0.037743 -0.001162 -0.012413
v -0.032559 0.070959 -0.066452
v -0.037743 0.066939 -0.066452
v 0.032559 -0.073630 -0.066452
v 0.037743 -0.068100 -0.066452
v -0.037743 0.057174 -0.061269
v -0.037743 0.046807 -0.071636
v -0.032559 0.046807 -0.066452
v -0.032559 0.051991 -0.061269
v -0.032559 -0.031942 -0.062299
v -0.032559 -0.029860 -0.066452
v -0.037743 -0.029860 -0.071636
v -0.037743 -0.036096 -0.059198
v -0.037743 -0.068100 -0.066452
v -0.032559 -0.073630 -0.066452
v 0.037743 0.066939 -0.066452
v 0.032559 0.070959 -0.066452
v 0.032559 0.051991 -0.061269
v 0.032559 0.046807 -0.066452
v 0.037743 0.046807 -0.071636
v 0.037743 0.057174 -0.061269
v 0.037743 -0.036096 -0.059198
v 0.037743 -0.029860 -0.071636
v 0.032559 -0.029860 -0.066452
v 0.032559 -0.031942 -0.062299
v -0.037743 -0.073162 -0.107440
v -0.032559 -0.068159 -0.112057
v -0.032559 -0.081649 -0.099610
v -0.037743 -0.076266 -0.100188
v -0.037743 -0.074946 -0.107208
v -0.032559 -0.074380 -0.111398
v -0.032559 -0.080493 -0.105758
v -0.037743 0.058729 -0.114525
v -0.032559 0.062042 -0.118973
v -0.032559 0.047472 -0.122547
v -0.037743 0.053609 -0.121042
v -0.037743 0.054335 -0.121423
v -0.032559 0.059251 -0.123353
v -0.032559 0.051974 -0.125139
v 0.037743 -0.076266 -0.100188
v 0.032559 -0.081649 -0.099610
v 0.032559 -0.068159 -0.112057
v 0.037743 -0.073162 -0.107440
v 0.037743 -0.074946 -0.107208
v 0.032559 -0.080493 -0.105758
v 0.032559 -0.074380 -0.111398
v 0.037743 0.053609 -0.121042
v 0.032559 0.047472 -0.122547
v 0.032559 0.062042 -0.118973
v 0.037743 0.058729 -0.114525
v 0.037743 0.054335 -0.121423
v 0.032559 0.051974 -0.125139
v 0.032559 0.059251 -0.123353
vn 1.0000 -0.0000 -0.0000
vn -0.0000 -0.3605 0.9328
vn -1.0000 -0.0000 -0.0000
vn -0.0000 -0.0000 1.0000
vn -0.0000 0.3123 -0.9500
vn -0.0000 -0.9828 -0.1848
vn -0.0000 0.9227 -0.3856
vn -0.0000 0.9859 -0.1674
vn -0.0000 -1.0000 -0.0000
vn -0.0000 -0.9720 0.2351
vn -0.0000 -0.4989 -0.8666
vn -0.0000 -0.0000 -1.0000
vn -0.0000 -0.7964 -0.6047
vn -0.0000 -0.8449 0.5350
vn -0.0000 -0.1053 -0.9944
vn -0.0000 0.9997 0.0264
vn -0.0000 -0.9645 0.2640
vn -0.0000 0.8434 -0.5373
vn -0.0000 0.8013 -0.5983
vn -0.6733 -0.5487 0.4956
vn -0.7052 0.3932 0.5900
vn 0.6733 -0.5487 0.4956
vn 0.7052 0.3932 0.5900
vn -0.6995 -0.2936 -0.6516
vn 0.6672 -0.3311 -0.6672
vn 0.5774 -0.5774 -0.5774
vn -0.5774 -0.5774 -0.5774
vn -0.6665 0.3341 -0.6665
vn 0.6665 0.3341 -0.6665
vn -0.5773 -0.5774 0.5774
vn -0.4090 0.8158 0.4090
vn 0.5773 -0.5774 0.5774
vn 0.4090 0.8158 0.4090
vn -0.4614 -0.6016 -0.6520
vn -0.5067 0.2054 -0.8373
vn 0.4614 -0.6016 -0.6520
vn 0.5067 0.2054 -0.8373
vn -0.7242 -0.6652 0.1821
vn 0.5957 0.8030 0.0190
vn -0.0000 -0.7421 0.6703
vn -0.0000 0.5545 0.8322
vn -0.0000 -0.4446 -0.8957
vn -0.7071 -0.0000 -0.7071
vn 0.7071 -0.0000 -0.7071
vn 0.8132 -0.2098 0.5428
vn -0.8103 -0.2109 0.5468
vn -0.6695 -0.6276 0.3974
vn -0.5684 0.8224 0.0217
vn 0.7235 -0.6658 0.1822
vn 0.5815 0.7498 -0.3157
vn 0.7071 -0.7071 -0.0000
vn 0.7071 0.5666 -0.4231
vn -0.5649 0.7614 -0.3182
vn 0.6693 -0.6278 0.3975
vn -0.7071 -0.7071 -0.0000
vn -0.7071 0.5666 -0.4231
vn 0.7071 -0.0000 0.7071
vn -0.7071 -0.0000 0.7071
vn 0.7071 -0.6949 -0.1307
vn -0.7071 -0.6949 -0.1307
vn -0.0000 -0.6781 -0.7349
vn 0.6170 -0.0829 -0.7826
vn -0.6187 -0.1014 -0.7791
vn -0.7071 0.5964 -0.3799
vn 0.7071 0.5964 -0.3799
vn -0.0000 0.2383 -0.9712
vn -0.6443 -0.3816 -0.6628
vn 0.6461 -0.3552 -0.6756
vn -0.7536 0.2043 -0.6247
vn 0.7523 0.2058 -0.6259
vn -0.7198 -0.6747 0.1633
vn 0.7193 -0.6752 0.1633
vn 0.6074 0.7831 -0.1337
vn -0.6119 0.7798 -0.1324
vn -0.7442 -0.5320 -0.4039
vn 0.7453 -0.5304 -0.4039
vn -0.0000 0.8940 0.4482
vn -0.0000 0.4482 -0.8940
vn -0.0000 -0.7071 0.7071
vn -0.0000 -0.7071 -0.7071
vn -0.6672 -0.3311 -0.6672
vn 0.6995 -0.2936 -0.6516
vn 0.5773 -0.5774 -0.5774
vn -0.5773 -0.5774 -0.5774
vn -0.5774 -0.5774 0.5773
vn 0.5774 -0.5774 0.5773
vn -0.7235 -0.6658 0.1822
vn 0.5684 0.8224 0.0217
vn 0.8103 -0.2109 0.5468
vn -0.8132 -0.2098 0.5428
vn -0.6693 -0.6278 0.3975
vn -0.5957 0.8030 0.0190
vn 0.7242 -0.6652 0.1821
vn 0.5649 0.7614 -0.3182
vn -0.5815 0.7498 -0.3157
vn 0.6695 -0.6276 0.3974
vn 0.6187 -0.1014 -0.7791
vn -0.6170 -0.0829 -0.7826
vn -0.6461 -0.3552 -0.6756
vn 0.6443 -0.3816 -0.6628
vn -0.7523 0.2058 -0.6259
vn 0.7536 0.2043 -0.6247
vn -0.7193 -0.6752 0.1633
vn 0.7198 -0.6747 0.1633
vn 0.6119 0.7798 -0.1324
vn -0.6074 0.7831 -0.1337
vn -0.7453 -0.5304 -0.4039
vn 0.7442 -0.5320 -0.4039
vt 0.382703 0.625000
vt 0.427610 0.570913
vt 0.428409 0.624238
vt 0.614384 0.982833
vt 0.385616 0.767167
vt 0.614384 0.767167
vt 0.613552 0.125000
vt 0.484976 0.118896
vt 0.614335 0.010665
vt 0.532687 0.242549
vt 0.483672 0.197130
vt 0.598507 0.187500
vt 0.428748 0.241785
vt 0.395467 0.241744
vt 0.385889 0.230836
vt 0.534093 0.506858
vt 0.589869 0.506886
vt 0.607315 0.516408
vt 0.441222 0.187500
vt 0.496278 0.187500
vt 0.441222 0.187500
vt 0.385972 0.519062
vt 0.391814 0.509368
vt 0.395467 0.508256
vt 0.437500 0.482833
vt 0.407534 0.267167
vt 0.437500 0.267167
vt 0.142167 0.510086
vt 0.357833 0.522258
vt 0.142167 0.522258
vt 0.380381 0.010549
vt 0.614335 0.010665
vt 0.491695 0.115129
vt 0.391814 0.240632
vt 0.385972 0.230938
vt 0.857833 0.625000
vt 0.642167 0.562500
vt 0.857833 0.562500
vt 0.642167 0.516347
vt 0.857833 0.516347
vt 0.607582 0.233705
vt 0.593275 0.242690
vt 0.589869 0.243114
vt 0.500000 0.181619
vt 0.500000 0.130881
vt 0.500000 0.181619
vt 0.517437 0.130881
vt 0.357833 0.562500
vt 0.564299 0.482833
vt 0.594680 0.267167
vt 0.594680 0.482833
vt 0.427610 0.179087
vt 0.382703 0.125000
vt 0.428409 0.125762
vt 0.534093 0.243142
vt 0.607315 0.233592
vt 0.492942 0.125000
vt 0.444558 0.125000
vt 0.492942 0.125000
vt 0.442761 0.195564
vt 0.494739 0.241936
vt 0.433674 0.241936
vt 0.598507 0.562500
vt 0.483672 0.552870
vt 0.532687 0.507451
vt 0.516675 0.267167
vt 0.564299 0.267167
vt 0.382685 0.737622
vt 0.442614 0.635425
vt 0.490997 0.635425
vt 0.613552 0.625000
vt 0.614335 0.739335
vt 0.515024 0.618897
vt 0.383957 0.187500
vt 0.450103 0.196470
vt 0.427768 0.240577
vt 0.593275 0.507310
vt 0.607582 0.516295
vt 0.357833 0.625000
vt 0.142167 0.562500
vt 0.382689 0.737500
vt 0.427991 0.623746
vt 0.442639 0.634581
vt 0.428748 0.508215
vt 0.385889 0.519164
vt 0.431789 0.572739
vt 0.385816 0.519254
vt 0.427768 0.509423
vt 0.407534 0.267167
vt 0.389742 0.482833
vt 0.389742 0.267167
vt 0.517437 0.619119
vt 0.530288 0.568381
vt 0.442614 0.114575
vt 0.382685 0.012378
vt 0.490997 0.114575
vt 0.857833 0.743899
vt 0.642167 0.625000
vt 0.357833 0.740355
vt 0.142167 0.625000
vt 0.614335 0.739335
vt 0.491695 0.634871
vt 0.508305 0.615129
vt 0.494739 0.508064
vt 0.442761 0.554436
vt 0.433674 0.508064
vt 0.642167 0.508165
vt 0.496278 0.482833
vt 0.437500 0.267167
vt 0.496278 0.267167
vt 0.437500 0.129712
vt 0.437500 0.182788
vt 0.142167 0.740355
vt 0.142167 0.750000
vt 0.125000 0.740894
vt 0.625000 0.006101
vt 0.621214 0.003786
vt 0.375000 0.740894
vt 0.357833 0.750000
vt 0.625000 0.743899
vt 0.621214 0.746214
vt 0.496278 0.250000
vt 0.516675 0.482833
vt 0.490608 0.634392
vt 0.500000 0.625000
vt 0.437500 0.625000
vt 0.437500 0.620288
vt 0.497816 0.195564
vt 0.500000 0.181619
vt 0.441222 0.187500
vt 0.500000 0.187500
vt 0.437500 0.562500
vt 0.441222 0.562500
vt 0.439727 0.562500
vt 0.394858 0.246317
vt 0.380115 0.236231
vt 0.615914 0.239359
vt 0.585595 0.247525
vt 0.375000 0.505319
vt 0.357833 0.510086
vt 0.357833 0.500000
vt 0.595804 0.500000
vt 0.625000 0.482833
vt 0.125000 0.628401
vt 0.625000 0.982833
vt 0.625000 0.767167
vt 0.385616 0.000000
vt 0.125000 0.565478
vt 0.625000 0.125000
vt 0.613552 0.625000
vt 0.500000 0.130881
vt 0.437500 0.567212
vt 0.492942 0.625000
vt 0.625000 0.187500
vt 0.383957 0.562500
vt 0.530288 0.181619
vt 0.497816 0.554436
vt 0.496278 0.562500
vt 0.375000 0.519219
vt 0.125000 0.519219
vt 0.142167 0.500000
vt 0.394858 0.503683
vt 0.407534 0.500000
vt 0.625000 0.233653
vt 0.625000 0.516347
vt 0.591015 0.250000
vt 0.564299 0.267167
vt 0.591015 0.500000
vt 0.407534 0.482833
vt 0.125000 0.523089
vt 0.125000 0.562500
vt 0.606708 0.516664
vt 0.606708 0.233336
vt 0.444558 0.125000
vt 0.496278 0.187500
vt 0.500000 0.130881
vt 0.382689 0.012500
vt 0.427991 0.126254
vt 0.385616 0.982833
vt 0.515024 0.131104
vt 0.465515 0.247754
vt 0.525853 0.181888
vt 0.525853 0.568112
vt 0.465516 0.502246
vt 0.385816 0.230746
vt 0.431789 0.177261
vt 0.450103 0.553530
vt 0.642167 0.743899
vt 0.380381 0.739451
vt 0.857833 0.508165
vt 0.516675 0.500000
vt 0.614384 0.000000
vt 0.125000 0.625000
vt 0.444558 0.625000
vt 0.125000 0.505319
vt 0.407534 0.250000
vt 0.615914 0.510641
vt 0.625000 0.267167
vt 0.595804 0.250000
vt 0.442639 0.115419
s 0
f 38/5/7 77/6/7 56/7/7
f 14/8/8 17/9/8 19/10/8
f 36/11/9 45/12/9 13/13/9
f 24/14/9 62/15/9 58/16/9
f 30/17/9 81/18/9 84/19/9
f 26/20/7 102/21/7 105/22/7
f 79/23/10 63/24/10 66/25/10
f 95/26/7 99/27/7 98/28/7
f 32/29/11 82/30/11 29/31/11
f 87/32/12 96/33/12 83/34/12
f 11/35/9 13/36/9 45/37/9
f 81/18/9 85/38/9 84/39/9
f 35/40/13 72/41/13 57/42/13
f 57/42/14 104/43/14 89/44/14
f 88/45/9 92/46/9 91/47/9
f 73/48/15 47/49/15 64/50/15
f 58/16/9 46/51/9 36/11/9
f 59/52/16 83/34/16 96/33/16
f 103/53/17 94/54/17 107/55/17
f 68/56/9 33/57/9 51/58/9
f 91/47/9 24/59/9 88/60/9
f 43/61/18 49/62/18 48/63/18
f 67/64/9 23/65/9 30/66/9
f 71/67/7 75/68/7 26/69/7
f 103/53/19 21/70/19 90/71/19
f 16/72/7 55/73/7 42/74/7
f 39/75/7 20/76/7 41/77/7
f 69/78/9 67/79/9 30/80/9
f 102/21/7 106/81/7 105/82/7
f 37/83/20 70/84/20 59/52/20
f 16/85/7 56/86/7 55/87/7
f 98/28/7 31/88/7 95/89/7
f 77/90/7 95/91/7 31/92/7
f 82/93/21 101/94/21 86/95/21
f 71/67/7 41/96/7 76/97/7
f 52/98/9 11/99/9 45/100/9
f 12/101/22 40/102/22 35/40/22
f 15/103/23 34/104/23 37/83/23
f 20/105/7 42/106/7 41/107/7
f 27/108/7 78/109/7 31/110/7
f 108/111/24 89/44/24 104/43/24
f 28/112/18 29/113/18 22/114/18
f 53/115/25 65/116/25 50/115/25
f 9/117/26 10/118/26 11/119/26
f 12/120/27 13/13/27 14/121/27
f 15/103/28 16/122/28 17/123/28
f 18/124/29 19/125/29 20/76/29
f 21/70/30 23/126/30 24/59/30
f 25/127/31 27/108/31 28/112/31
f 42/128/32 44/129/32 41/129/32
f 46/51/33 48/63/33 45/63/33
f 50/115/34 52/98/34 49/62/34
f 54/130/35 56/7/35 53/131/35
f 62/132/36 64/50/36 61/133/36
f 65/116/37 67/134/37 68/56/37
f 73/48/38 75/135/38 76/133/38
f 77/136/39 79/137/39 80/138/39
f 85/38/40 86/139/40 87/140/40
f 92/46/41 93/141/41 94/142/41
f 99/143/42 100/144/42 101/145/42
f 106/146/43 107/55/43 108/147/43
f 9/117/44 33/148/44 34/104/44
f 40/102/45 20/76/45 39/75/45
f 15/103/46 10/118/46 9/117/46
f 12/149/47 19/10/47 18/150/47
f 25/127/48 22/114/48 21/70/48
f 29/113/49 23/65/49 22/114/49
f 27/108/50 32/29/50 28/112/50
f 17/9/51 20/105/51 19/10/51
f 10/151/52 13/36/52 11/35/52
f 34/104/53 69/152/53 70/84/53
f 35/153/54 13/13/54 12/120/54
f 15/103/55 38/5/55 16/85/55
f 72/41/56 39/154/56 71/67/56
f 41/155/57 73/48/57 76/133/57
f 53/131/58 77/6/58 80/156/58
f 49/62/49 45/100/49 48/63/49
f 55/73/50 43/157/50 42/74/50
f 57/158/59 36/11/59 35/153/59
f 37/83/60 60/159/60 38/5/60
f 61/160/61 47/49/61 46/51/61
f 65/116/62 51/58/62 50/115/62
f 79/137/63 75/161/63 74/162/63
f 67/64/64 63/24/64 62/132/64
f 95/163/65 100/144/65 99/143/65
f 84/164/66 87/32/66 83/34/66
f 101/145/67 87/32/67 86/165/67
f 98/28/68 101/166/68 97/167/68
f 81/18/69 86/139/69 85/38/69
f 92/46/70 89/168/70 93/141/70
f 106/81/71 104/169/71 105/82/71
f 94/54/72 108/147/72 107/55/72
f 91/170/73 94/54/73 90/171/73
f 102/172/74 107/55/74 106/146/74
f 30/17/75 82/30/75 81/18/75
f 31/88/76 97/173/76 32/29/76
f 84/174/77 70/84/77 69/175/77
f 95/91/78 59/52/78 96/33/78
f 105/176/79 72/41/79 71/67/79
f 88/177/80 57/158/80 89/168/80
f 24/59/81 90/71/81 21/70/81
f 26/20/82 103/53/82 102/21/82
f 66/25/83 80/116/83 79/23/83
f 54/178/84 50/115/84 49/62/84
f 64/50/85 74/179/85 73/48/85
f 48/63/86 44/180/86 43/61/86
f 11/181/9 51/182/9 33/57/9
f 38/5/7 60/159/7 77/6/7
f 14/8/8 10/183/8 17/9/8
f 36/11/9 46/184/9 45/12/9
f 58/16/9 88/177/9 24/14/9
f 24/14/9 23/185/9 62/15/9
f 62/15/9 61/186/9 58/16/9
f 79/23/10 74/179/10 63/24/10
f 32/29/11 97/173/11 82/30/11
f 87/32/12 100/144/12 96/33/12
f 35/40/13 40/102/13 72/41/13
f 57/42/14 72/41/14 104/43/14
f 73/48/15 44/180/15 47/49/15
f 58/16/9 61/160/9 46/51/9
f 59/52/16 70/84/16 83/34/16
f 103/53/17 90/171/17 94/54/17
f 68/56/9 69/78/9 33/57/9
f 43/61/18 54/178/18 49/62/18
f 67/64/9 62/132/9 23/65/9
f 26/69/7 105/176/7 71/67/7
f 71/67/7 76/187/7 75/68/7
f 75/68/7 27/188/7 26/69/7
f 103/53/19 25/127/19 21/70/19
f 30/80/9 84/189/9 69/78/9
f 69/78/9 68/190/9 67/79/9
f 37/83/20 34/104/20 70/84/20
f 16/85/7 38/5/7 56/86/7
f 31/92/7 78/191/7 77/90/7
f 77/90/7 60/159/7 95/91/7
f 82/93/21 97/173/21 101/94/21
f 71/67/7 39/154/7 41/96/7
f 12/101/22 18/192/22 40/102/22
f 15/103/23 9/117/23 34/104/23
f 20/105/7 16/193/7 42/106/7
f 27/108/7 75/161/7 78/109/7
f 108/111/24 93/194/24 89/44/24
f 28/112/18 32/29/18 29/113/18
f 53/115/25 80/116/25 65/116/25
f 21/70/87 22/114/87 23/126/87
f 25/127/88 26/195/88 27/108/88
f 42/128/89 43/157/89 44/129/89
f 46/51/90 47/49/90 48/63/90
f 50/115/34 51/115/34 52/98/34
f 54/130/35 55/130/35 56/7/35
f 62/132/91 63/24/91 64/50/91
f 65/116/37 66/25/37 67/134/37
f 73/48/92 74/135/92 75/135/92
f 77/136/39 78/109/39 79/137/39
f 9/117/93 11/119/93 33/148/93
f 40/102/94 18/192/94 20/76/94
f 15/103/46 17/123/46 10/118/46
f 12/149/47 14/8/47 19/10/47
f 25/127/48 28/112/48 22/114/48
f 29/113/49 30/66/49 23/65/49
f 27/108/50 31/110/50 32/29/50
f 17/9/95 16/193/95 20/105/95
f 10/151/96 14/196/96 13/36/96
f 34/104/97 33/197/97 69/152/97
f 35/153/98 36/11/98 13/13/98
f 15/103/99 37/83/99 38/5/99
f 72/41/100 40/102/100 39/154/100
f 41/155/57 44/180/57 73/48/57
f 53/131/58 56/7/58 77/6/58
f 49/62/49 52/98/49 45/100/49
f 55/73/50 54/198/50 43/157/50
f 57/158/101 58/16/101 36/11/101
f 37/83/102 59/52/102 60/159/102
f 61/160/61 64/50/61 47/49/61
f 65/116/62 68/56/62 51/58/62
f 79/137/63 78/109/63 75/161/63
f 67/64/64 66/25/64 63/24/64
f 95/163/65 96/33/65 100/144/65
f 84/164/66 85/199/66 87/32/66
f 101/145/67 100/144/67 87/32/67
f 98/28/103 99/27/103 101/166/103
f 81/18/104 82/200/104 86/139/104
f 92/46/70 88/45/70 89/168/70
f 106/81/71 108/201/71 104/169/71
f 94/54/72 93/202/72 108/147/72
f 91/170/105 92/203/105 94/54/105
f 102/172/106 103/53/106 107/55/106
f 30/17/107 29/31/107 82/30/107
f 31/88/108 98/28/108 97/173/108
f 84/174/109 83/34/109 70/84/109
f 95/91/110 60/159/110 59/52/110
f 105/176/111 104/43/111 72/41/111
f 88/177/112 58/16/112 57/158/112
f 24/59/113 91/47/113 90/71/113
f 26/20/114 25/127/114 103/53/114
f 66/25/83 65/116/83 80/116/83
f 54/178/84 53/115/84 50/115/84
f 64/50/85 63/24/85 74/179/85
f 48/63/86 47/49/86 44/180/86
f 11/181/9 52/204/9 51/182/9
