# Blender 4.1.0
# www.blender.org
mtllib DoorKeypad.001.mtl
o DoorKeypad.001
v -0.098693 0.317550 0.160063
v -0.098693 0.371044 0.146022
v -0.098693 0.303509 0.106570
v -0.098693 0.357002 0.092529
v -0.043388 0.317550 0.160063
v -0.043388 0.371044 0.146022
v -0.043388 0.303509 0.106570
v -0.043388 0.357002 0.092529
v -0.026796 0.317550 0.160063
v -0.026796 0.371044 0.146022
v -0.026796 0.303509 0.106570
v -0.026796 0.357002 0.092529
v 0.028509 0.317550 0.160063
v 0.028509 0.371044 0.146022
v 0.028509 0.303509 0.106570
v 0.028509 0.357002 0.092529
v 0.045101 0.317550 0.160063
v 0.045101 0.371044 0.146022
v 0.045101 0.303509 0.106570
v 0.045101 0.357002 0.092529
v 0.100406 0.317550 0.160063
v 0.100406 0.371044 0.146022
v 0.100406 0.303509 0.106570
v 0.100406 0.357002 0.092529
v -0.098693 0.248009 0.178317
v -0.098693 0.301502 0.164276
v -0.098693 0.233968 0.124824
v -0.098693 0.287461 0.110782
v -0.043388 0.248009 0.178317
v -0.043388 0.301502 0.164276
v -0.043388 0.233968 0.124824
v -0.043388 0.287461 0.110782
v -0.026796 0.248009 0.178317
v -0.026796 0.301502 0.164276
v -0.026796 0.233968 0.124824
v -0.026796 0.287461 0.110782
v 0.028509 0.248009 0.178317
v 0.028509 0.301502 0.164276
v 0.028509 0.233968 0.124824
v 0.028509 0.287461 0.110782
v 0.045101 0.248009 0.178317
v 0.045101 0.301502 0.164276
v 0.045101 0.233968 0.124824
v 0.045101 0.287461 0.110782
v 0.100406 0.248009 0.178317
v 0.100406 0.301502 0.164276
v 0.100406 0.233968 0.124824
v 0.100406 0.287461 0.110782
v -0.098693 0.178468 0.196571
v -0.098693 0.231961 0.182529
v -0.098693 0.164427 0.143078
v -0.098693 0.217920 0.129036
v -0.043388 0.178468 0.196571
v -0.043388 0.231961 0.182529
v -0.043388 0.164427 0.143078
v -0.043388 0.217920 0.129036
v -0.026796 0.178468 0.196571
v -0.026796 0.231961 0.182529
v -0.026796 0.164427 0.143078
v -0.026796 0.217920 0.129036
v 0.028509 0.178468 0.196571
v 0.028509 0.231961 0.182529
v 0.028509 0.164427 0.143078
v 0.028509 0.217920 0.129036
v 0.045101 0.178468 0.196571
v 0.045101 0.231961 0.182529
v 0.045101 0.164427 0.143078
v 0.045101 0.217920 0.129036
v 0.100406 0.178468 0.196571
v 0.100406 0.231961 0.182529
v 0.100406 0.164427 0.143078
v 0.100406 0.217920 0.129036
v -0.097872 0.113399 0.213651
v -0.097872 0.166892 0.199609
v -0.097872 0.099358 0.160158
v -0.097872 0.152851 0.146116
v -0.042566 0.113399 0.213651
v -0.042566 0.166892 0.199609
v -0.042566 0.099358 0.160158
v -0.042566 0.152851 0.146116
v -0.026010 0.113399 0.213651
v -0.026010 0.166892 0.199609
v -0.026010 0.099358 0.160158
v -0.026010 0.152851 0.146116
v 0.100335 0.113399 0.213651
v 0.100335 0.166892 0.199609
v 0.100335 0.099358 0.160158
v 0.100335 0.152851 0.146116
vn -1.0000 -0.0000 -0.0000
vn -0.0000 -0.2539 -0.9672
vn 1.0000 -0.0000 -0.0000
vn -0.0000 0.2539 0.9672
vn -0.0000 -0.9672 0.2539
vn -0.0000 0.9672 -0.2539
vt 0.602899 0.845132
vt 0.601776 0.958159
vt 0.602010 0.847624
vt 0.700761 0.847908
vt 0.700528 0.958443
vt 0.701650 0.845416
vt 0.701417 0.955950
vt 0.731276 0.845501
vt 0.730153 0.958528
vt 0.730386 0.847993
vt 0.829138 0.848277
vt 0.828904 0.958811
vt 0.830027 0.845785
vt 0.829793 0.956319
vt 0.859652 0.845870
vt 0.858530 0.958896
vt 0.858763 0.848362
vt 0.957514 0.848645
vt 0.957281 0.959180
vt 0.958403 0.846153
vt 0.958170 0.956688
vt 0.602969 0.811972
vt 0.602313 0.703929
vt 0.603202 0.701437
vt 0.602080 0.814464
vt 0.701064 0.704213
vt 0.700831 0.814747
vt 0.701954 0.701721
vt 0.701720 0.812256
vt 0.731346 0.812341
vt 0.730690 0.704298
vt 0.731579 0.701806
vt 0.730456 0.814833
vt 0.829441 0.704582
vt 0.829208 0.815116
vt 0.830330 0.702089
vt 0.830097 0.812624
vt 0.859722 0.812709
vt 0.859066 0.704667
vt 0.859955 0.702175
vt 0.858833 0.815201
vt 0.957818 0.704950
vt 0.957584 0.815485
vt 0.958707 0.702458
vt 0.958473 0.812993
vt 0.603272 0.668277
vt 0.602617 0.560234
vt 0.603506 0.557742
vt 0.602383 0.670769
vt 0.701368 0.560518
vt 0.702024 0.668560
vt 0.702257 0.558026
vt 0.701135 0.671052
vt 0.731649 0.668645
vt 0.730993 0.560603
vt 0.731882 0.558111
vt 0.730760 0.671138
vt 0.829744 0.560887
vt 0.830400 0.668929
vt 0.830634 0.558395
vt 0.829511 0.671421
vt 0.860025 0.669014
vt 0.859370 0.560972
vt 0.860259 0.558480
vt 0.859136 0.671506
vt 0.958121 0.561255
vt 0.958777 0.669298
vt 0.959010 0.558763
vt 0.957888 0.671790
vt 0.605023 0.533826
vt 0.604367 0.425784
vt 0.605256 0.423292
vt 0.604134 0.536318
vt 0.703118 0.426067
vt 0.702885 0.536602
vt 0.704007 0.423575
vt 0.703774 0.534110
vt 0.733336 0.534195
vt 0.732680 0.426152
vt 0.733569 0.423660
vt 0.732447 0.536687
vt 0.958278 0.426800
vt 0.958045 0.537335
vt 0.959167 0.424308
vt 0.958934 0.534843
vt 0.602666 0.955667
vt 0.731042 0.956035
vt 0.859419 0.956404
s 0
usemtl DoorKeypad
f 1/1/1 4/2/1 3/3/1
f 4/2/2 7/4/2 3/3/2
f 8/5/3 5/6/3 7/4/3
f 6/7/4 1/1/4 5/6/4
f 7/4/5 1/1/5 3/3/5
f 4/2/6 6/7/6 8/5/6
f 9/8/1 12/9/1 11/10/1
f 12/9/2 15/11/2 11/10/2
f 16/12/3 13/13/3 15/11/3
f 14/14/4 9/8/4 13/13/4
f 15/11/5 9/8/5 11/10/5
f 12/9/6 14/14/6 16/12/6
f 17/15/1 20/16/1 19/17/1
f 20/16/2 23/18/2 19/17/2
f 24/19/3 21/20/3 23/18/3
f 22/21/4 17/15/4 21/20/4
f 23/18/5 17/15/5 19/17/5
f 20/16/6 22/21/6 24/19/6
f 26/22/1 27/23/1 25/24/1
f 28/25/2 31/26/2 27/23/2
f 32/27/3 29/28/3 31/26/3
f 30/29/4 25/24/4 29/28/4
f 31/26/5 25/24/5 27/23/5
f 28/25/6 30/29/6 32/27/6
f 34/30/1 35/31/1 33/32/1
f 36/33/2 39/34/2 35/31/2
f 40/35/3 37/36/3 39/34/3
f 38/37/4 33/32/4 37/36/4
f 39/34/5 33/32/5 35/31/5
f 36/33/6 38/37/6 40/35/6
f 42/38/1 43/39/1 41/40/1
f 44/41/2 47/42/2 43/39/2
f 48/43/3 45/44/3 47/42/3
f 46/45/4 41/40/4 45/44/4
f 47/42/5 41/40/5 43/39/5
f 44/41/6 46/45/6 48/43/6
f 50/46/1 51/47/1 49/48/1
f 52/49/2 55/50/2 51/47/2
f 55/50/3 54/51/3 53/52/3
f 54/51/4 49/48/4 53/52/4
f 55/50/5 49/48/5 51/47/5
f 52/49/6 54/51/6 56/53/6
f 58/54/1 59/55/1 57/56/1
f 60/57/2 63/58/2 59/55/2
f 63/58/3 62/59/3 61/60/3
f 62/59/4 57/56/4 61/60/4
f 63/58/5 57/56/5 59/55/5
f 60/57/6 62/59/6 64/61/6
f 66/62/1 67/63/1 65/64/1
f 68/65/2 71/66/2 67/63/2
f 71/66/3 70/67/3 69/68/3
f 70/67/4 65/64/4 69/68/4
f 71/66/5 65/64/5 67/63/5
f 68/65/6 70/67/6 72/69/6
f 74/70/1 75/71/1 73/72/1
f 76/73/2 79/74/2 75/71/2
f 80/75/3 77/76/3 79/74/3
f 78/77/4 73/72/4 77/76/4
f 79/74/5 73/72/5 75/71/5
f 76/73/6 78/77/6 80/75/6
f 82/78/1 83/79/1 81/80/1
f 84/81/2 87/82/2 83/79/2
f 88/83/3 85/84/3 87/82/3
f 86/85/4 81/80/4 85/84/4
f 87/82/5 81/80/5 83/79/5
f 84/81/6 86/85/6 88/83/6
f 1/1/1 2/86/1 4/2/1
f 4/2/2 8/5/2 7/4/2
f 8/5/3 6/7/3 5/6/3
f 6/7/4 2/86/4 1/1/4
f 7/4/5 5/6/5 1/1/5
f 4/2/6 2/86/6 6/7/6
f 9/8/1 10/87/1 12/9/1
f 12/9/2 16/12/2 15/11/2
f 16/12/3 14/14/3 13/13/3
f 14/14/4 10/87/4 9/8/4
f 15/11/5 13/13/5 9/8/5
f 12/9/6 10/87/6 14/14/6
f 17/15/1 18/88/1 20/16/1
f 20/16/2 24/19/2 23/18/2
f 24/19/3 22/21/3 21/20/3
f 22/21/4 18/88/4 17/15/4
f 23/18/5 21/20/5 17/15/5
f 20/16/6 18/88/6 22/21/6
f 26/22/1 28/25/1 27/23/1
f 28/25/2 32/27/2 31/26/2
f 32/27/3 30/29/3 29/28/3
f 30/29/4 26/22/4 25/24/4
f 31/26/5 29/28/5 25/24/5
f 28/25/6 26/22/6 30/29/6
f 34/30/1 36/33/1 35/31/1
f 36/33/2 40/35/2 39/34/2
f 40/35/3 38/37/3 37/36/3
f 38/37/4 34/30/4 33/32/4
f 39/34/5 37/36/5 33/32/5
f 36/33/6 34/30/6 38/37/6
f 42/38/1 44/41/1 43/39/1
f 44/41/2 48/43/2 47/42/2
f 48/43/3 46/45/3 45/44/3
f 46/45/4 42/38/4 41/40/4
f 47/42/5 45/44/5 41/40/5
f 44/41/6 42/38/6 46/45/6
f 50/46/1 52/49/1 51/47/1
f 52/49/2 56/53/2 55/50/2
f 55/50/3 56/53/3 54/51/3
f 54/51/4 50/46/4 49/48/4
f 55/50/5 53/52/5 49/48/5
f 52/49/6 50/46/6 54/51/6
f 58/54/1 60/57/1 59/55/1
f 60/57/2 64/61/2 63/58/2
f 63/58/3 64/61/3 62/59/3
f 62/59/4 58/54/4 57/56/4
f 63/58/5 61/60/5 57/56/5
f 60/57/6 58/54/6 62/59/6
f 66/62/1 68/65/1 67/63/1
f 68/65/2 72/69/2 71/66/2
f 71/66/3 72/69/3 70/67/3
f 70/67/4 66/62/4 65/64/4
f 71/66/5 69/68/5 65/64/5
f 68/65/6 66/62/6 70/67/6
f 74/70/1 76/73/1 75/71/1
f 76/73/2 80/75/2 79/74/2
f 80/75/3 78/77/3 77/76/3
f 78/77/4 74/70/4 73/72/4
f 79/74/5 77/76/5 73/72/5
f 76/73/6 74/70/6 78/77/6
f 82/78/1 84/81/1 83/79/1
f 84/81/2 88/83/2 87/82/2
f 88/83/3 86/85/3 85/84/3
f 86/85/4 82/78/4 81/80/4
f 87/82/5 85/84/5 81/80/5
f 84/81/6 82/78/6 86/85/6
