# Blender 4.1.0
# www.blender.org
mtllib DoorKeypad.mtl
o DoorKeypad
v -0.108180 0.058778 0.183458
v -0.108180 0.085902 0.196677
v -0.128180 0.077859 0.178129
v -0.128180 0.386119 0.095243
v -0.108180 0.386805 0.115769
v -0.108180 0.406119 0.090575
v -0.128180 0.020349 -0.137138
v -0.108180 0.020008 -0.157138
v -0.108180 0.000008 -0.137138
v -0.108180 0.406119 -0.137138
v -0.108180 0.386119 -0.157138
v -0.128180 0.386119 -0.137138
v 0.128180 0.077859 0.178129
v 0.108180 0.085902 0.196677
v 0.108180 0.058778 0.183458
v 0.108180 0.406119 0.090575
v 0.108180 0.386805 0.115769
v 0.128180 0.386119 0.095243
v 0.108180 0.000008 -0.137138
v 0.108180 0.020008 -0.157138
v 0.128180 0.020349 -0.137138
v 0.108180 0.406119 -0.137138
v 0.128180 0.386119 -0.137138
v 0.108180 0.386119 -0.157138
v -0.128180 0.020362 0.042601
v -0.108180 0.000008 0.044889
v -0.128180 0.386119 0.001489
v -0.108180 0.406119 -0.000759
v 0.128180 0.020362 0.042601
v 0.108180 0.000008 0.044889
v 0.128180 0.386119 0.001489
v 0.108180 0.406119 -0.000759
vn -0.0000 1.0000 -0.0000
vn -0.0000 -1.0000 -0.0000
vn 1.0000 -0.0000 -0.0000
vn -0.0000 -0.9206 0.3905
vn -0.0000 -0.0000 -1.0000
vn -1.0000 -0.0000 -0.0000
vn -0.0000 0.2597 0.9657
vn -0.5494 -0.3661 0.7511
vn -0.5460 0.6649 0.5097
vn -0.5839 -0.5741 -0.5741
vn -0.5774 0.5773 -0.5773
vn 0.5494 -0.3661 0.7511
vn 0.5460 0.6649 0.5097
vn 0.5839 -0.5741 -0.5741
vn 0.5774 0.5773 -0.5773
vn -0.7005 -0.6570 0.2786
vn -0.7071 0.1836 0.6829
vn -0.7071 0.7071 -0.0000
vn -0.7071 -0.0000 -0.7071
vn -0.0000 -0.7071 -0.7071
vn -0.0000 0.7071 -0.7071
vn 0.7071 -0.0000 -0.7071
vn 0.7133 -0.7009 -0.0000
vn 0.7071 0.7071 -0.0000
vn 0.7071 0.1836 0.6829
vn -0.0000 -0.4381 0.8989
vn -0.0000 0.7936 0.6084
vn -0.7131 -0.7011 0.0001
vn 0.7008 -0.6567 0.2786
vn -0.7008 -0.6567 0.2786
vn 0.7131 -0.7011 0.0001
vn -0.7133 -0.7009 -0.0000
vn 0.7005 -0.6570 0.2786
vt 0.214982 0.391277
vt 0.329194 0.321965
vt 0.342307 0.391515
vt 0.349944 0.658813
vt 0.221191 0.768670
vt 0.212564 0.660330
vt 0.526855 0.257748
vt 0.342676 0.316749
vt 0.454690 0.180448
vt 0.339182 0.853013
vt 0.222179 0.853843
vt 0.231287 0.319759
vt 0.315878 0.286211
vt 0.209798 0.409903
vt 0.349746 0.640854
vt 0.212365 0.642371
vt 0.376660 0.153529
vt 0.217370 0.313206
vt 0.025850 0.232733
vt 0.111250 0.154291
vt 0.315701 0.275053
vt 0.215021 0.129950
vt 0.363027 0.149743
vt 0.219490 0.871738
vt 0.206141 0.858490
vt 0.239906 0.276129
vt 0.249644 0.271661
vt 0.248319 0.282803
vt 0.013367 0.245753
vt 0.008162 0.228484
vt 0.196146 0.392113
vt 0.354514 0.857498
vt 0.341924 0.869758
vt 0.324568 0.280439
vt 0.543377 0.255061
vt 0.537418 0.270551
vt 0.359663 0.392329
vt 0.347179 0.408386
vt 0.203814 0.770641
vt 0.199693 0.132366
vt 0.183821 0.405281
vt 0.370070 0.405258
vt 0.359734 0.771739
vt 0.342413 0.769633
vt 0.195271 0.661687
vt 0.367667 0.660073
s 0
usemtl DoorKeypad
f 10/1/1 32/2/1 22/3/1
f 19/4/2 26/5/2 9/6/2
f 21/7/3 31/8/3 29/9/3
f 26/5/4 15/10/4 1/11/4
f 28/12/1 16/13/1 32/2/1
f 11/14/5 20/15/5 8/16/5
f 31/8/3 13/17/3 29/9/3
f 27/18/6 7/19/6 25/20/6
f 17/21/7 2/22/7 14/23/7
f 1/11/8 2/24/8 3/25/8
f 4/26/9 5/27/9 6/28/9
f 7/19/10 8/29/10 9/30/10
f 10/1/11 11/14/11 12/31/11
f 13/32/12 14/33/12 15/10/12
f 16/13/13 17/21/13 18/34/13
f 19/35/14 20/36/14 21/7/14
f 22/3/15 23/37/15 24/38/15
f 1/11/16 25/39/16 26/5/16
f 5/27/17 3/40/17 2/22/17
f 28/12/18 12/31/18 27/18/18
f 11/41/19 7/19/19 12/31/19
f 9/6/20 20/15/20 19/4/20
f 22/3/21 11/14/21 10/1/21
f 21/7/22 24/42/22 23/37/22
f 19/4/23 29/43/23 30/44/23
f 16/13/24 31/8/24 32/2/24
f 17/21/25 13/17/25 18/34/25
f 15/10/26 2/24/26 1/11/26
f 6/28/27 17/21/27 16/13/27
f 9/6/28 25/39/28 7/45/28
f 6/28/18 27/18/18 4/26/18
f 15/10/29 29/43/29 13/32/29
f 32/2/24 23/37/24 22/3/24
f 3/40/6 27/18/6 25/20/6
f 10/1/1 28/12/1 32/2/1
f 19/4/2 30/44/2 26/5/2
f 21/7/3 23/37/3 31/8/3
f 26/5/4 30/44/4 15/10/4
f 28/12/1 6/28/1 16/13/1
f 11/14/5 24/38/5 20/15/5
f 31/8/3 18/34/3 13/17/3
f 27/18/6 12/31/6 7/19/6
f 17/21/7 5/27/7 2/22/7
f 1/11/30 3/25/30 25/39/30
f 5/27/17 4/26/17 3/40/17
f 28/12/18 10/1/18 12/31/18
f 11/41/19 8/29/19 7/19/19
f 9/6/20 8/16/20 20/15/20
f 22/3/21 24/38/21 11/14/21
f 21/7/22 20/36/22 24/42/22
f 19/4/31 21/46/31 29/43/31
f 16/13/24 18/34/24 31/8/24
f 17/21/25 14/23/25 13/17/25
f 15/10/26 14/33/26 2/24/26
f 6/28/27 5/27/27 17/21/27
f 9/6/32 26/5/32 25/39/32
f 6/28/18 28/12/18 27/18/18
f 15/10/33 30/44/33 29/43/33
f 32/2/24 31/8/24 23/37/24
f 3/40/6 4/26/6 27/18/6
