# Blender 4.0.2
# www.blender.org
mtllib Magazine.mtl
o Magazine.002
v -0.137648 0.002858 0.159237
v -0.137648 -0.005805 0.159237
v -0.136625 0.002858 -0.167445
v -0.136625 -0.005805 -0.167445
v 0.112119 0.007490 0.159237
v 0.112119 -0.001172 0.159237
v 0.112407 0.007490 -0.150808
v 0.112407 -0.001172 -0.150808
v -0.141555 0.002858 -0.081148
v -0.143089 0.002858 -0.000001
v -0.143266 0.002858 0.079618
v -0.137648 0.000692 0.159237
v -0.137648 -0.001474 0.159237
v -0.137648 -0.003639 0.159237
v -0.143266 -0.005805 0.079618
v -0.143089 -0.005805 -0.000001
v -0.141555 -0.005805 -0.081148
v -0.136625 -0.003639 -0.167445
v -0.136625 -0.001474 -0.167445
v -0.136625 0.000692 -0.167445
v 0.053452 0.001237 -0.154979
v -0.003260 0.002886 -0.159389
v -0.068022 0.000188 -0.163518
v -0.068022 -0.008475 -0.163518
v -0.003260 -0.005776 -0.159389
v 0.053452 -0.007426 -0.154979
v 0.112407 0.000993 -0.150808
v 0.112407 0.003159 -0.150808
v 0.112407 0.005325 -0.150808
v 0.106001 0.007490 0.080158
v 0.103500 0.007490 0.002430
v 0.108340 0.007490 -0.075563
v 0.108340 -0.001172 -0.075563
v 0.103500 -0.001172 0.002430
v 0.106001 -0.001172 0.080158
v 0.112119 0.000993 0.159237
v 0.112119 0.003159 0.159237
v 0.112119 0.005325 0.159237
v -0.069635 0.000188 0.159236
v -0.004222 0.002886 0.159236
v 0.052916 0.001237 0.159237
v 0.052916 -0.007426 0.159237
v -0.004222 -0.005776 0.159236
v -0.069635 -0.008475 0.159236
v 0.049304 -0.007426 -0.078988
v 0.044421 -0.007426 -0.000282
v 0.046826 -0.007426 0.079546
v -0.006811 -0.005776 -0.081667
v -0.011152 -0.005776 -0.002165
v -0.009912 -0.005776 0.079122
v -0.069885 -0.008475 -0.081004
v -0.072026 -0.008475 -0.000625
v -0.074211 -0.008475 0.079475
v -0.069885 0.000188 -0.081004
v -0.072026 0.000188 -0.000625
v -0.074211 0.000188 0.079475
v -0.006811 0.002886 -0.081667
v -0.011152 0.002886 -0.002165
v -0.009912 0.002886 0.079122
v 0.049304 0.001237 -0.078988
v 0.044421 0.001237 -0.000282
v 0.046826 0.001237 0.079546
v 0.052916 -0.000929 0.159237
v -0.004222 0.000721 0.159236
v -0.069635 -0.001978 0.159236
v 0.052916 -0.003095 0.159236
v -0.004222 -0.001445 0.159236
v -0.069635 -0.004143 0.159236
v 0.052916 -0.005260 0.159237
v -0.004222 -0.003611 0.159236
v -0.069635 -0.006309 0.159236
v 0.108340 0.005325 -0.075563
v 0.103500 0.005325 0.002430
v 0.106001 0.005325 0.080158
v 0.108340 0.003159 -0.075563
v 0.103500 0.003159 0.002430
v 0.106001 0.003159 0.080158
v 0.108340 0.000993 -0.075563
v 0.103500 0.000993 0.002430
v 0.106001 0.000993 0.080158
v -0.068022 -0.001978 -0.163518
v -0.003260 0.000721 -0.159389
v 0.053452 -0.000929 -0.154979
v -0.068022 -0.004143 -0.163518
v -0.003260 -0.001445 -0.159389
v 0.053452 -0.003095 -0.154979
v -0.068022 -0.006309 -0.163518
v -0.003260 -0.003611 -0.159389
v 0.053452 -0.005260 -0.154979
v -0.143266 0.000692 0.079618
v -0.143089 0.000692 -0.000001
v -0.141555 0.000692 -0.081148
v -0.143266 -0.001474 0.079618
v -0.143089 -0.001474 -0.000001
v -0.141555 -0.001474 -0.081148
v -0.143266 -0.003639 0.079618
v -0.143089 -0.003639 -0.000001
v -0.141555 -0.003639 -0.081148
vn 0.9984 -0.0000 0.0570
vn -0.0706 -0.0000 0.9975
vn -0.9970 -0.0000 0.0771
vn -0.0000 -0.0000 -1.0000
vn 0.1052 -0.9944 -0.0080
vn 0.0392 0.9992 -0.0022
vn -0.1050 0.9944 0.0081
vn 0.0289 0.9996 -0.0022
vn -0.0412 0.9991 0.0029
vn -0.1050 0.9945 -0.0057
vn -0.1050 0.9945 -0.0065
vn -0.1051 0.9945 0.0034
vn 0.0293 0.9996 0.0016
vn 0.0293 0.9996 0.0018
vn 0.0291 0.9996 -0.0009
vn -0.0415 0.9991 -0.0019
vn -0.0428 0.9991 -0.0023
vn -0.0443 0.9990 0.0007
vn 0.0388 0.9992 0.0009
vn 0.0372 0.9993 0.0010
vn 0.0376 0.9993 0.0010
vn -0.0386 -0.9993 0.0027
vn 0.0419 -0.9991 -0.0024
vn -0.0291 -0.9996 0.0021
vn -0.0372 -0.9993 -0.0021
vn -0.0375 -0.9993 -0.0007
vn -0.0386 -0.9993 -0.0001
vn 0.0428 -0.9991 0.0010
vn 0.0443 -0.9990 0.0012
vn 0.0419 -0.9991 0.0011
vn -0.0290 -0.9996 -0.0013
vn -0.0296 -0.9996 -0.0016
vn -0.0297 -0.9996 0.0005
vn 0.1051 -0.9944 0.0057
vn 0.1050 -0.9945 0.0065
vn 0.1054 -0.9944 -0.0032
vn -0.9985 -0.0000 -0.0540
vn -0.9981 -0.0000 -0.0619
vn -0.9995 -0.0000 0.0322
vn -0.0571 -0.0000 0.9984
vn -0.0636 -0.0000 0.9980
vn -0.0775 -0.0000 0.9970
vn -0.0636 0.0001 0.9980
vn 0.9975 -0.0000 -0.0704
vn 1.0000 -0.0000 0.0022
vn 0.9998 -0.0000 0.0189
vn 0.1050 -0.9944 -0.0081
vn 0.0386 0.9993 -0.0027
vn -0.1052 0.9944 0.0080
vn 0.0291 0.9996 -0.0021
vn -0.0419 0.9991 0.0024
vn -0.1051 0.9944 -0.0057
vn -0.1054 0.9944 0.0032
vn 0.0290 0.9996 0.0013
vn 0.0296 0.9996 0.0016
vn 0.0297 0.9996 -0.0005
vn -0.0428 0.9991 -0.0010
vn -0.0443 0.9990 -0.0012
vn -0.0419 0.9991 -0.0011
vn 0.0372 0.9993 0.0021
vn 0.0375 0.9993 0.0007
vn 0.0386 0.9993 0.0001
vn -0.0392 -0.9992 0.0022
vn 0.0412 -0.9991 -0.0029
vn -0.0289 -0.9996 0.0022
vn -0.0388 -0.9992 -0.0009
vn -0.0372 -0.9993 -0.0010
vn -0.0376 -0.9993 -0.0010
vn 0.0415 -0.9991 0.0019
vn 0.0428 -0.9991 0.0023
vn 0.0443 -0.9990 -0.0007
vn -0.0293 -0.9996 -0.0016
vn -0.0293 -0.9996 -0.0018
vn -0.0291 -0.9996 0.0009
vn 0.1050 -0.9945 0.0057
vn 0.1051 -0.9945 -0.0034
vt 0.562500 0.187500
vt 0.625000 0.250000
vt 0.562500 0.250000
vt 0.562500 0.437500
vt 0.625000 0.500000
vt 0.562500 0.500000
vt 0.625000 0.687500
vt 0.562500 0.750000
vt 0.562500 0.687500
vt 0.562500 0.937500
vt 0.625000 1.000000
vt 0.562500 1.000000
vt 0.375000 0.687500
vt 0.312500 0.750000
vt 0.312500 0.687500
vt 0.812500 0.687500
vt 0.875000 0.750000
vt 0.812500 0.750000
vt 0.687500 0.750000
vt 0.625000 0.750000
vt 0.687500 0.687500
vt 0.750000 0.750000
vt 0.750000 0.687500
vt 0.687500 0.562500
vt 0.625000 0.562500
vt 0.625000 0.625000
vt 0.687500 0.500000
vt 0.750000 0.562500
vt 0.687500 0.625000
vt 0.812500 0.500000
vt 0.750000 0.500000
vt 0.812500 0.562500
vt 0.750000 0.625000
vt 0.812500 0.625000
vt 0.875000 0.500000
vt 0.875000 0.562500
vt 0.875000 0.625000
vt 0.187500 0.687500
vt 0.125000 0.750000
vt 0.125000 0.687500
vt 0.250000 0.687500
vt 0.187500 0.750000
vt 0.250000 0.750000
vt 0.125000 0.500000
vt 0.187500 0.562500
vt 0.125000 0.562500
vt 0.187500 0.625000
vt 0.125000 0.625000
vt 0.187500 0.500000
vt 0.250000 0.562500
vt 0.250000 0.625000
vt 0.312500 0.500000
vt 0.250000 0.500000
vt 0.312500 0.625000
vt 0.375000 0.500000
vt 0.312500 0.562500
vt 0.375000 0.625000
vt 0.375000 0.937500
vt 0.437500 1.000000
vt 0.375000 1.000000
vt 0.437500 0.937500
vt 0.500000 1.000000
vt 0.500000 0.937500
vt 0.437500 0.750000
vt 0.375000 0.812500
vt 0.375000 0.750000
vt 0.437500 0.875000
vt 0.375000 0.875000
vt 0.500000 0.750000
vt 0.437500 0.812500
vt 0.500000 0.875000
vt 0.500000 0.812500
vt 0.562500 0.875000
vt 0.562500 0.812500
vt 0.625000 0.875000
vt 0.437500 0.687500
vt 0.500000 0.687500
vt 0.437500 0.500000
vt 0.375000 0.562500
vt 0.437500 0.625000
vt 0.500000 0.500000
vt 0.437500 0.562500
vt 0.500000 0.562500
vt 0.500000 0.625000
vt 0.562500 0.562500
vt 0.562500 0.625000
vt 0.375000 0.437500
vt 0.437500 0.437500
vt 0.500000 0.437500
vt 0.437500 0.250000
vt 0.375000 0.312500
vt 0.375000 0.250000
vt 0.437500 0.375000
vt 0.375000 0.375000
vt 0.500000 0.250000
vt 0.437500 0.312500
vt 0.500000 0.375000
vt 0.500000 0.312500
vt 0.562500 0.375000
vt 0.562500 0.312500
vt 0.625000 0.375000
vt 0.437500 0.187500
vt 0.375000 0.187500
vt 0.500000 0.187500
vt 0.437500 0.000000
vt 0.375000 0.062500
vt 0.375000 0.000000
vt 0.437500 0.062500
vt 0.375000 0.125000
vt 0.437500 0.125000
vt 0.500000 0.000000
vt 0.500000 0.062500
vt 0.500000 0.125000
vt 0.562500 0.000000
vt 0.562500 0.062500
vt 0.562500 0.125000
vt 0.625000 0.000000
vt 0.625000 0.062500
vt 0.625000 0.125000
vt 0.625000 0.187500
vt 0.625000 0.437500
vt 0.625000 0.937500
vt 0.875000 0.687500
vt 0.625000 0.812500
vt 0.625000 0.312500
s 0
f 98/1/1 4/2/1 18/3/1
f 89/4/2 8/5/2 27/6/2
f 35/7/3 36/8/3 80/9/3
f 71/10/4 2/11/4 14/12/4
f 30/13/5 41/14/5 62/15/5
f 53/16/6 2/17/6 44/18/6
f 35/7/7 42/19/7 6/20/7
f 47/21/8 43/22/8 42/19/8
f 50/23/9 44/18/9 43/22/9
f 8/5/10 45/24/10 33/25/10
f 45/24/11 34/26/11 33/25/11
f 34/26/12 47/21/12 35/7/12
f 26/27/13 48/28/13 45/24/13
f 48/28/14 46/29/14 45/24/14
f 46/29/15 50/23/15 47/21/15
f 24/30/16 48/28/16 25/31/16
f 51/32/17 49/33/17 48/28/17
f 52/34/18 50/23/18 49/33/18
f 4/35/19 51/32/19 24/30/19
f 17/36/20 52/34/20 51/32/20
f 16/37/21 53/16/21 52/34/21
f 56/38/22 1/39/22 11/40/22
f 59/41/23 39/42/23 56/38/23
f 62/15/24 40/43/24 59/41/24
f 3/44/25 54/45/25 9/46/25
f 9/46/26 55/47/26 10/48/26
f 10/48/27 56/38/27 11/40/27
f 23/49/28 57/50/28 54/45/28
f 54/45/29 58/51/29 55/47/29
f 55/47/30 59/41/30 56/38/30
f 21/52/31 57/50/31 22/53/31
f 57/50/32 61/54/32 58/51/32
f 61/54/33 59/41/33 58/51/33
f 7/55/34 60/56/34 21/52/34
f 60/56/35 31/57/35 61/54/35
f 31/57/36 62/15/36 61/54/36
f 39/58/4 12/59/4 1/60/4
f 65/61/4 13/62/4 12/59/4
f 68/63/4 14/12/4 13/62/4
f 38/64/4 41/65/4 5/66/4
f 41/65/4 64/67/4 40/68/4
f 64/67/4 39/58/4 40/68/4
f 37/69/4 63/70/4 38/64/4
f 63/70/4 67/71/4 64/67/4
f 67/71/4 65/61/4 64/67/4
f 36/8/4 66/72/4 37/69/4
f 66/72/4 70/73/4 67/71/4
f 70/73/4 68/63/4 67/71/4
f 6/20/4 69/74/4 36/8/4
f 69/74/4 43/75/4 70/73/4
f 43/75/4 71/10/4 70/73/4
f 74/76/3 5/66/3 30/13/3
f 77/77/3 38/64/3 74/76/3
f 77/77/3 36/8/3 37/69/3
f 29/78/37 32/79/37 7/55/37
f 32/79/38 73/80/38 31/57/38
f 73/80/39 30/13/39 31/57/39
f 28/81/37 72/82/37 29/78/37
f 75/83/38 73/80/38 72/82/38
f 76/84/39 74/76/39 73/80/39
f 28/81/37 78/85/37 75/83/37
f 78/85/38 76/84/38 75/83/38
f 79/86/39 77/77/39 76/84/39
f 27/6/37 33/25/37 78/85/37
f 78/85/38 34/26/38 79/86/38
f 34/26/39 80/9/39 79/86/39
f 21/87/2 29/78/2 7/55/2
f 83/88/2 28/81/2 29/78/2
f 86/89/2 27/6/2 28/81/2
f 20/90/40 23/91/40 3/92/40
f 23/91/41 82/93/41 22/94/41
f 82/93/42 21/87/42 22/94/42
f 19/95/40 81/96/40 20/90/40
f 81/96/43 85/97/43 82/93/43
f 85/97/42 83/88/42 82/93/42
f 18/3/40 84/98/40 19/95/40
f 84/98/41 88/99/41 85/97/41
f 88/99/42 86/89/42 85/97/42
f 4/2/40 87/100/40 18/3/40
f 87/100/41 25/101/41 88/99/41
f 25/101/42 89/4/42 88/99/42
f 92/102/1 3/92/1 9/103/1
f 92/102/1 19/95/1 20/90/1
f 98/1/1 19/95/1 95/104/1
f 12/105/44 11/106/44 1/107/44
f 90/108/45 10/109/45 11/106/45
f 91/110/46 9/103/46 10/109/46
f 13/111/44 90/108/44 12/105/44
f 93/112/45 91/110/45 90/108/45
f 94/113/46 92/102/46 91/110/46
f 14/114/44 93/112/44 13/111/44
f 96/115/45 94/113/45 93/112/45
f 97/116/46 95/104/46 94/113/46
f 2/117/44 96/115/44 14/114/44
f 15/118/45 97/116/45 96/115/45
f 16/119/46 98/1/46 97/116/46
f 98/1/1 17/120/1 4/2/1
f 89/4/2 26/121/2 8/5/2
f 35/7/3 6/20/3 36/8/3
f 71/10/4 44/122/4 2/11/4
f 30/13/47 5/66/47 41/14/47
f 53/16/48 15/123/48 2/17/48
f 35/7/49 47/21/49 42/19/49
f 47/21/50 50/23/50 43/22/50
f 50/23/51 53/16/51 44/18/51
f 8/5/52 26/27/52 45/24/52
f 45/24/11 46/29/11 34/26/11
f 34/26/53 46/29/53 47/21/53
f 26/27/54 25/31/54 48/28/54
f 48/28/55 49/33/55 46/29/55
f 46/29/56 49/33/56 50/23/56
f 24/30/57 51/32/57 48/28/57
f 51/32/58 52/34/58 49/33/58
f 52/34/59 53/16/59 50/23/59
f 4/35/60 17/36/60 51/32/60
f 17/36/61 16/37/61 52/34/61
f 16/37/62 15/123/62 53/16/62
f 56/38/63 39/42/63 1/39/63
f 59/41/64 40/43/64 39/42/64
f 62/15/65 41/14/65 40/43/65
f 3/44/66 23/49/66 54/45/66
f 9/46/67 54/45/67 55/47/67
f 10/48/68 55/47/68 56/38/68
f 23/49/69 22/53/69 57/50/69
f 54/45/70 57/50/70 58/51/70
f 55/47/71 58/51/71 59/41/71
f 21/52/72 60/56/72 57/50/72
f 57/50/73 60/56/73 61/54/73
f 61/54/74 62/15/74 59/41/74
f 7/55/75 32/79/75 60/56/75
f 60/56/35 32/79/35 31/57/35
f 31/57/76 30/13/76 62/15/76
f 39/58/4 65/61/4 12/59/4
f 65/61/4 68/63/4 13/62/4
f 68/63/4 71/10/4 14/12/4
f 38/64/4 63/70/4 41/65/4
f 41/65/4 63/70/4 64/67/4
f 64/67/4 65/61/4 39/58/4
f 37/69/4 66/72/4 63/70/4
f 63/70/4 66/72/4 67/71/4
f 67/71/4 68/63/4 65/61/4
f 36/8/4 69/74/4 66/72/4
f 66/72/4 69/74/4 70/73/4
f 70/73/4 71/10/4 68/63/4
f 6/20/4 42/124/4 69/74/4
f 69/74/4 42/124/4 43/75/4
f 43/75/4 44/122/4 71/10/4
f 74/76/3 38/64/3 5/66/3
f 77/77/3 37/69/3 38/64/3
f 77/77/3 80/9/3 36/8/3
f 29/78/37 72/82/37 32/79/37
f 32/79/38 72/82/38 73/80/38
f 73/80/39 74/76/39 30/13/39
f 28/81/37 75/83/37 72/82/37
f 75/83/38 76/84/38 73/80/38
f 76/84/39 77/77/39 74/76/39
f 28/81/37 27/6/37 78/85/37
f 78/85/38 79/86/38 76/84/38
f 79/86/39 80/9/39 77/77/39
f 27/6/37 8/5/37 33/25/37
f 78/85/38 33/25/38 34/26/38
f 34/26/39 35/7/39 80/9/39
f 21/87/2 83/88/2 29/78/2
f 83/88/2 86/89/2 28/81/2
f 86/89/2 89/4/2 27/6/2
f 20/90/40 81/96/40 23/91/40
f 23/91/41 81/96/41 82/93/41
f 82/93/42 83/88/42 21/87/42
f 19/95/40 84/98/40 81/96/40
f 81/96/41 84/98/41 85/97/41
f 85/97/42 86/89/42 83/88/42
f 18/3/40 87/100/40 84/98/40
f 84/98/41 87/100/41 88/99/41
f 88/99/42 89/4/42 86/89/42
f 4/2/40 24/125/40 87/100/40
f 87/100/41 24/125/41 25/101/41
f 25/101/42 26/121/42 89/4/42
f 92/102/1 20/90/1 3/92/1
f 92/102/1 95/104/1 19/95/1
f 98/1/1 18/3/1 19/95/1
f 12/105/44 90/108/44 11/106/44
f 90/108/45 91/110/45 10/109/45
f 91/110/46 92/102/46 9/103/46
f 13/111/44 93/112/44 90/108/44
f 93/112/45 94/113/45 91/110/45
f 94/113/46 95/104/46 92/102/46
f 14/114/44 96/115/44 93/112/44
f 96/115/45 97/116/45 94/113/45
f 97/116/46 98/1/46 95/104/46
f 2/117/44 15/118/44 96/115/44
f 15/118/45 16/119/45 97/116/45
f 16/119/46 17/120/46 98/1/46
