# Blender 4.1.0
# www.blender.org
mtllib CeliningLight01.mtl
o CeliningLight01
v 0.044877 -0.248429 -0.000000
v 0.050654 -0.221809 -0.000000
v 0.040083 -0.206022 -0.000000
v 0.163863 -0.169512 -0.000000
v 0.229569 -0.091584 -0.000000
v 0.242131 -0.050883 -0.000000
v 0.281553 -0.028091 -0.000000
v 0.281553 -0.000067 0.000000
v 0.036306 -0.248429 -0.026378
v 0.040979 -0.221809 -0.029773
v 0.032428 -0.206022 -0.023560
v 0.132568 -0.169512 -0.096316
v 0.185726 -0.091584 -0.134938
v 0.195888 -0.050883 -0.142321
v 0.227781 -0.028091 -0.165493
v 0.227781 -0.000067 -0.165493
v 0.013868 -0.248429 -0.042680
v 0.015653 -0.221809 -0.048174
v 0.012386 -0.206022 -0.038121
v 0.050636 -0.169512 -0.155843
v 0.070941 -0.091584 -0.218333
v 0.074822 -0.050883 -0.230280
v 0.087005 -0.028091 -0.267773
v 0.087005 -0.000067 -0.267773
v -0.013868 -0.248429 -0.042680
v -0.015653 -0.221809 -0.048174
v -0.012386 -0.206022 -0.038121
v -0.050636 -0.169512 -0.155843
v -0.070941 -0.091584 -0.218333
v -0.074823 -0.050883 -0.230280
v -0.087005 -0.028091 -0.267773
v -0.087005 -0.000067 -0.267773
v -0.000000 -0.253779 0.000000
v -0.036306 -0.248429 -0.026378
v -0.040980 -0.221809 -0.029773
v -0.032428 -0.206022 -0.023560
v -0.132568 -0.169512 -0.096316
v -0.185726 -0.091584 -0.134937
v -0.195888 -0.050883 -0.142321
v -0.227781 -0.028091 -0.165493
v -0.227781 -0.000067 -0.165493
v -0.044877 -0.248429 0.000000
v -0.050654 -0.221809 0.000000
v -0.040083 -0.206022 0.000000
v -0.163863 -0.169512 0.000000
v -0.229569 -0.091584 0.000000
v -0.242131 -0.050883 0.000000
v -0.281553 -0.028091 0.000000
v -0.281553 -0.000067 0.000000
v -0.036306 -0.248429 0.026378
v -0.040979 -0.221809 0.029773
v -0.032428 -0.206022 0.023560
v -0.132568 -0.169512 0.096316
v -0.185726 -0.091584 0.134938
v -0.195888 -0.050883 0.142321
v -0.227781 -0.028091 0.165493
v -0.227781 -0.000067 0.165493
v -0.013868 -0.248429 0.042680
v -0.015653 -0.221809 0.048174
v -0.012386 -0.206022 0.038121
v -0.050636 -0.169512 0.155843
v -0.070941 -0.091584 0.218333
v -0.074823 -0.050883 0.230280
v -0.087005 -0.028091 0.267773
v -0.087005 -0.000067 0.267773
v 0.013868 -0.248429 0.042680
v 0.015653 -0.221809 0.048174
v 0.012386 -0.206022 0.038121
v 0.050636 -0.169512 0.155843
v 0.070941 -0.091584 0.218333
v 0.074823 -0.050883 0.230280
v 0.087005 -0.028091 0.267773
v 0.087005 -0.000067 0.267773
v 0.036306 -0.248429 0.026378
v 0.040980 -0.221809 0.029773
v 0.032428 -0.206022 0.023560
v 0.132568 -0.169512 0.096316
v 0.185726 -0.091584 0.134937
v 0.195888 -0.050883 0.142321
v 0.227782 -0.028091 0.165493
v 0.227782 -0.000067 0.165493
vn -0.0000 -1.0000 -0.0000
vn 0.0958 -0.9930 -0.0696
vn 0.1184 -0.9930 -0.0000
vn 0.0366 -0.9930 -0.1126
vn -0.0366 -0.9930 -0.1126
vn -0.0958 -0.9930 -0.0696
vn -0.1184 -0.9930 -0.0000
vn -0.0958 -0.9930 0.0696
vn -0.0366 -0.9930 0.1126
vn 0.0366 -0.9930 0.1126
vn 0.0958 -0.9930 0.0696
vn -0.7906 -0.2121 -0.5744
vn -0.9847 0.1743 -0.0000
vn -0.7966 0.1743 -0.5788
vn 0.7906 -0.2121 0.5744
vn 0.9847 0.1743 -0.0000
vn 0.7966 0.1743 0.5788
vn -0.9773 -0.2121 -0.0000
vn -0.7966 0.1743 0.5788
vn 0.3020 -0.2121 -0.9294
vn -0.3043 0.1743 -0.9365
vn 0.3043 0.1743 -0.9365
vn 0.3020 -0.2121 0.9294
vn 0.3043 0.1743 0.9365
vn 0.9773 -0.2121 -0.0000
vn 0.7966 0.1743 -0.5788
vn 0.7906 -0.2121 -0.5744
vn 0.7168 -0.4635 -0.5208
vn 0.2319 -0.6609 -0.7137
vn 0.6071 -0.6609 -0.4411
vn -0.3020 -0.2121 0.9294
vn -0.3043 0.1743 0.9365
vn -0.3020 -0.2121 -0.9294
vn -0.8309 0.5564 -0.0000
vn -0.6722 0.5564 -0.4884
vn -0.2568 0.5564 -0.7903
vn 0.2568 0.5564 0.7903
vn 0.8309 0.5564 -0.0000
vn -0.2568 0.5564 0.7903
vn 0.6722 0.5564 -0.4884
vn 0.2568 0.5564 -0.7903
vn 0.4729 -0.8114 0.3436
vn 0.8861 -0.4635 -0.0000
vn 0.7168 -0.4635 0.5208
vn -0.6722 0.5564 0.4884
vn -0.4729 -0.8114 0.3436
vn -0.2829 -0.9591 -0.0000
vn -0.2289 -0.9591 0.1663
vn 0.5845 -0.8114 -0.0000
vn 0.2289 -0.9591 0.1663
vn 0.2829 -0.9591 -0.0000
vn -0.4729 -0.8114 -0.3436
vn -0.0874 -0.9591 -0.2691
vn -0.2289 -0.9591 -0.1663
vn 0.1806 -0.8114 0.5559
vn -0.0874 -0.9591 0.2691
vn 0.0874 -0.9591 0.2691
vn 0.1806 -0.8114 -0.5559
vn 0.2289 -0.9591 -0.1663
vn 0.0874 -0.9591 -0.2691
vn 0.4729 -0.8114 -0.3436
vn -0.1806 -0.8114 -0.5559
vn -0.2738 -0.4636 -0.8427
vn 0.2738 -0.4635 -0.8427
vn -0.1806 -0.8114 0.5559
vn 0.2738 -0.4635 0.8427
vn -0.2738 -0.4635 0.8427
vn -0.6071 -0.6609 0.4411
vn -0.1547 -0.8657 0.4760
vn -0.4049 -0.8657 0.2942
vn -0.5845 -0.8114 -0.0000
vn -0.7168 -0.4635 0.5208
vn -0.8861 -0.4635 -0.0000
vn -0.7168 -0.4635 -0.5208
vn 0.2319 -0.6609 0.7137
vn -0.2319 -0.6609 0.7137
vn -0.7504 -0.6609 -0.0000
vn 0.6071 -0.6609 0.4411
vn -0.2319 -0.6609 -0.7137
vn 0.7504 -0.6609 -0.0000
vn 0.6722 0.5564 0.4884
vn -0.6071 -0.6609 -0.4411
vn -0.4049 -0.8657 -0.2942
vn 0.1547 -0.8657 0.4760
vn -0.1547 -0.8657 -0.4760
vn 0.5005 -0.8657 -0.0000
vn 0.4049 -0.8657 -0.2942
vn 0.4049 -0.8657 0.2942
vn -0.5005 -0.8657 -0.0000
vn -0.8090 -0.0000 0.5878
vn -1.0000 -0.0000 -0.0000
vn -0.3090 -0.0000 -0.9511
vn 0.3090 -0.0000 -0.9511
vn -0.7906 -0.2121 0.5744
vn 0.8090 -0.0000 0.5878
vn 0.3090 -0.0000 0.9511
vn 1.0000 -0.0000 -0.0000
vn -0.8090 -0.0000 -0.5878
vn 0.8090 -0.0000 -0.5878
vn -0.3090 -0.0000 0.9511
vn 0.1547 -0.8657 -0.4760
vt 0.308631 0.436125
vt 0.499223 0.475857
vt 0.544216 0.475857
vt 0.381430 0.475857
vt 0.235831 0.475857
vt 0.118039 0.475857
vt 0.073046 0.475857
vt 0.118040 0.475857
vt 0.235832 0.475857
vt 0.381432 0.475857
vt 0.499225 0.475857
vt 0.042720 0.673562
vt 0.093504 0.673562
vt 0.574543 0.673562
vt 0.523759 0.673562
vt 0.093505 0.673562
vt 0.226460 0.673562
vt 0.390802 0.673562
vt 0.390803 0.673562
vt 0.523758 0.673562
vt 0.481774 0.297824
vt 0.369936 0.355891
vt 0.492022 0.355892
vt 0.226461 0.673562
vt 0.098211 0.790808
vt 0.138397 0.790808
vt 0.243608 0.790808
vt 0.373656 0.790809
vt 0.519052 0.790808
vt 0.243609 0.790809
vt 0.478865 0.790808
vt 0.373655 0.790808
vt 0.428168 0.186648
vt 0.525987 0.297824
vt 0.481774 0.297824
vt 0.138398 0.790809
vt 0.160799 0.186648
vt 0.254063 0.134559
vt 0.261783 0.134559
vt 0.459727 0.186648
vt 0.327185 0.134559
vt 0.334904 0.134559
vt 0.160799 0.186648
vt 0.281993 0.134559
vt 0.261783 0.134559
vt 0.345547 0.186648
vt 0.281993 0.134559
vt 0.306974 0.134559
vt 0.345547 0.186648
vt 0.327185 0.134559
vt 0.306974 0.134559
vt 0.428168 0.186648
vt 0.243421 0.186648
vt 0.222945 0.297824
vt 0.366022 0.297824
vt 0.243421 0.186648
vt 0.366022 0.297824
vt 0.222945 0.297824
vt 0.715868 0.675227
vt 0.779060 0.707743
vt 0.697357 0.707743
vt 0.129240 0.186648
vt 0.107194 0.297824
vt 0.062980 0.297824
vt 0.107193 0.297824
vt 0.369937 0.355892
vt 0.219031 0.355892
vt 0.096946 0.355892
vt 0.050313 0.355892
vt 0.492022 0.355892
vt 0.219031 0.355891
vt 0.538654 0.355892
vt 0.478866 0.790809
vt 0.096946 0.355892
vt 0.697357 0.707743
vt 0.786130 0.675227
vt 0.715867 0.675227
vt 0.689030 0.675227
vt 0.943242 0.675227
vt 0.880050 0.707743
vt 0.872980 0.675228
vt 0.786130 0.675228
vt 0.779060 0.707743
vt 0.872979 0.675227
vt 0.943242 0.675227
vt 0.992960 0.707743
vt 0.970080 0.675227
vt 0.961752 0.707743
vt 0.961752 0.707743
vt 0.666150 0.707743
vt 0.697357 0.747724
vt 0.779060 0.747724
vt 0.880050 0.707743
vt 0.961752 0.747724
vt 0.992960 0.747724
vt 0.666150 0.747724
vt 0.961752 0.747724
vt 0.880050 0.747724
vt 0.697357 0.747724
vt 0.880050 0.747724
vt 0.779060 0.747724
s 1
usemtl CeilingLight01
f 33/1/1 9/2/2 1/3/3
f 33/1/1 17/4/4 9/2/2
f 33/1/1 25/5/5 17/4/4
f 33/1/1 34/6/6 25/5/5
f 33/1/1 42/7/7 34/6/6
f 33/1/1 50/8/8 42/7/7
f 33/1/1 58/9/9 50/8/8
f 33/1/1 66/10/10 58/9/9
f 33/1/1 74/11/11 66/10/10
f 33/1/1 1/3/3 74/11/11
f 34/6/12 43/12/13 35/13/14
f 74/11/15 2/14/16 75/15/17
f 42/7/18 51/16/19 43/12/13
f 17/4/20 26/17/21 18/18/22
f 66/10/23 75/15/17 67/19/24
f 1/3/25 10/20/26 2/14/16
f 17/4/20 10/20/26 9/2/27
f 13/21/28 22/22/29 14/23/30
f 58/9/31 67/19/24 59/24/32
f 25/5/33 35/13/14 26/17/21
f 51/16/19 44/25/34 43/12/13
f 43/12/13 36/26/35 35/13/14
f 35/13/14 27/27/36 26/17/21
f 75/15/17 68/28/37 67/19/24
f 10/20/26 3/29/38 2/14/16
f 67/19/24 60/30/39 59/24/32
f 18/18/22 11/31/40 10/20/26
f 26/17/21 19/32/41 18/18/22
f 77/33/42 5/34/43 78/35/44
f 59/24/32 52/36/45 51/16/19
f 53/37/46 44/38/47 52/39/48
f 4/40/49 76/41/50 3/42/51
f 37/43/52 27/44/53 36/45/54
f 69/46/55 60/47/56 68/48/57
f 20/49/58 11/50/59 19/51/60
f 12/52/61 3/42/51 11/50/59
f 28/53/62 19/51/60 27/44/53
f 77/33/42 68/48/57 76/41/50
f 20/49/58 29/54/63 21/55/64
f 61/56/65 70/57/66 62/58/67
f 55/59/68 64/60/69 56/61/70
f 78/35/44 69/46/55 77/33/42
f 45/62/71 54/63/72 46/64/73
f 12/52/61 21/55/64 13/21/28
f 37/43/52 46/64/73 38/65/74
f 4/40/49 13/21/28 5/34/43
f 53/37/46 62/58/67 54/63/72
f 37/43/52 29/54/63 28/53/62
f 62/58/67 71/66/75 63/67/76
f 46/64/73 55/68/68 47/69/77
f 70/57/66 79/70/78 71/66/75
f 21/55/64 30/71/79 22/22/29
f 14/23/30 5/34/43 13/21/28
f 78/35/44 6/72/80 79/70/78
f 2/14/16 76/73/81 75/15/17
f 54/63/72 63/67/76 55/68/68
f 38/65/74 47/69/77 39/74/82
f 39/74/82 29/54/63 38/65/74
f 40/75/83 30/76/79 39/77/82
f 56/61/70 47/78/77 55/59/68
f 61/56/65 52/39/48 60/47/56
f 79/79/78 72/80/84 71/81/75
f 72/80/84 63/82/76 71/81/75
f 31/83/85 22/84/29 30/76/79
f 14/85/30 7/86/86 6/87/80
f 22/84/29 15/88/87 14/85/30
f 79/79/78 7/86/86 80/89/88
f 39/77/82 48/90/89 40/75/83
f 57/91/90 48/90/91 56/61/90
f 32/92/92 23/93/93 31/83/92
f 50/8/94 59/24/32 51/16/19
f 81/94/95 72/80/96 80/89/95
f 8/95/97 80/89/95 7/86/97
f 49/96/91 40/75/98 48/90/91
f 23/93/93 16/97/99 15/88/99
f 64/60/100 57/91/90 56/61/90
f 73/98/96 64/60/100 72/80/96
f 41/99/98 31/83/92 40/75/98
f 45/62/71 36/45/54 44/38/47
f 16/97/99 7/86/97 15/88/99
f 34/6/12 42/7/18 43/12/13
f 74/11/15 1/3/25 2/14/16
f 42/7/18 50/8/94 51/16/19
f 17/4/20 25/5/33 26/17/21
f 66/10/23 74/11/15 75/15/17
f 1/3/25 9/2/27 10/20/26
f 17/4/20 18/18/22 10/20/26
f 13/21/28 21/55/64 22/22/29
f 58/9/31 66/10/23 67/19/24
f 25/5/33 34/6/12 35/13/14
f 51/16/19 52/36/45 44/25/34
f 43/12/13 44/25/34 36/26/35
f 35/13/14 36/26/35 27/27/36
f 75/15/17 76/73/81 68/28/37
f 10/20/26 11/31/40 3/29/38
f 67/19/24 68/28/37 60/30/39
f 18/18/22 19/32/41 11/31/40
f 26/17/21 27/27/36 19/32/41
f 77/33/42 4/40/49 5/34/43
f 59/24/32 60/30/39 52/36/45
f 53/37/46 45/62/71 44/38/47
f 4/40/49 77/33/42 76/41/50
f 37/43/52 28/53/62 27/44/53
f 69/46/55 61/56/65 60/47/56
f 20/49/58 12/52/61 11/50/59
f 12/52/61 4/40/49 3/42/51
f 28/53/62 20/49/58 19/51/60
f 77/33/42 69/46/55 68/48/57
f 20/49/58 28/53/62 29/54/63
f 61/56/65 69/46/55 70/57/66
f 55/59/68 63/82/76 64/60/69
f 78/35/44 70/57/66 69/46/55
f 45/62/71 53/37/46 54/63/72
f 12/52/61 20/49/58 21/55/64
f 37/43/52 45/62/71 46/64/73
f 4/40/49 12/52/61 13/21/28
f 53/37/46 61/56/65 62/58/67
f 37/43/52 38/65/74 29/54/63
f 62/58/67 70/57/66 71/66/75
f 46/64/73 54/63/72 55/68/68
f 70/57/66 78/35/44 79/70/78
f 21/55/64 29/54/63 30/71/79
f 14/23/30 6/72/80 5/34/43
f 78/35/44 5/34/43 6/72/80
f 2/14/16 3/29/38 76/73/81
f 54/63/72 62/58/67 63/67/76
f 38/65/74 46/64/73 47/69/77
f 39/74/82 30/71/79 29/54/63
f 40/75/83 31/83/85 30/76/79
f 56/61/70 48/90/89 47/78/77
f 61/56/65 53/37/46 52/39/48
f 79/79/78 80/89/88 72/80/84
f 72/80/84 64/60/69 63/82/76
f 31/83/85 23/93/101 22/84/29
f 14/85/30 15/88/87 7/86/86
f 22/84/29 23/93/101 15/88/87
f 79/79/78 6/87/80 7/86/86
f 39/77/82 47/78/77 48/90/89
f 57/91/90 49/96/91 48/90/91
f 32/92/92 24/100/93 23/93/93
f 50/8/94 58/9/31 59/24/32
f 81/94/95 73/98/96 72/80/96
f 8/95/97 81/94/95 80/89/95
f 49/96/91 41/99/98 40/75/98
f 23/93/93 24/100/93 16/97/99
f 64/60/100 65/101/100 57/91/90
f 73/98/96 65/101/100 64/60/100
f 41/99/98 32/92/92 31/83/92
f 45/62/71 37/43/52 36/45/54
f 16/97/99 8/95/97 7/86/97
