# Blender 4.0.2
# www.blender.org
mtllib NightStandDrawIsolated.mtl
o NightStandDrawIsolated.001
v -0.259489 -0.114242 0.224260
v -0.222323 0.092263 0.182247
v -0.253704 -0.114242 -0.269763
v -0.217532 0.092263 -0.226891
v 0.255844 -0.104155 0.230294
v 0.211620 0.100757 0.187328
v 0.261629 -0.104155 -0.263728
v 0.216411 0.100757 -0.221809
v -0.263515 0.091467 0.224213
v -0.257730 0.091467 -0.269810
v 0.257603 0.101554 -0.263776
v 0.251818 0.101554 0.230247
v 0.219821 -0.073505 -0.221769
v -0.214122 -0.081999 -0.226851
v -0.218912 -0.081999 0.182287
v 0.215030 -0.073505 0.187368
vn -0.9997 -0.0196 -0.0117
vn 0.0117 -0.0000 -0.9999
vn 0.9997 0.0196 0.0117
vn -0.0117 -0.0000 0.9999
vn 0.0196 -0.9998 0.0002
vn -0.0196 0.9998 -0.0002
vt 0.375000 0.000000
vt 0.625000 0.250000
vt 0.375000 0.250000
vt 0.375000 0.500000
vt 0.625000 0.500000
vt 0.375000 0.750000
vt 0.625000 0.750000
vt 0.375000 1.000000
vt 0.125000 0.750000
vt 0.125000 0.500000
vt 0.855258 0.519742
vt 0.875000 0.750000
vt 0.855258 0.730258
vt 0.644742 0.519742
vt 0.875000 0.500000
vt 0.644742 0.730258
vt 0.625000 0.000000
vt 0.625000 1.000000
s 0
f 1/1/1 10/2/1 3/3/1
f 10/2/2 7/4/2 3/3/2
f 11/5/3 5/6/3 7/4/3
f 12/7/4 1/8/4 5/6/4
f 7/4/5 1/9/5 3/10/5
f 4/11/6 9/12/6 2/13/6
f 8/14/6 10/15/6 4/11/6
f 6/16/6 11/5/6 8/14/6
f 2/13/6 12/7/6 6/16/6
f 14/11/6 16/16/6 13/14/6
f 14/11/4 8/14/4 4/11/4
f 15/13/3 4/11/3 2/13/3
f 16/16/2 2/13/2 6/16/2
f 13/14/1 6/16/1 8/14/1
f 1/1/1 9/17/1 10/2/1
f 10/2/2 11/5/2 7/4/2
f 11/5/3 12/7/3 5/6/3
f 12/7/4 9/18/4 1/8/4
f 7/4/5 5/6/5 1/9/5
f 4/11/6 10/15/6 9/12/6
f 8/14/6 11/5/6 10/15/6
f 6/16/6 12/7/6 11/5/6
f 2/13/6 9/12/6 12/7/6
f 14/11/6 15/13/6 16/16/6
f 14/11/4 13/14/4 8/14/4
f 15/13/3 14/11/3 4/11/3
f 16/16/2 15/13/2 2/13/2
f 13/14/1 16/16/1 6/16/1
o NightStandDrawIsolated
v -0.022620 -0.012784 0.265717
v -0.023342 0.024120 0.265708
v -0.022192 -0.012784 0.229130
v -0.022914 0.024120 0.229122
v 0.014281 -0.012062 0.266149
v 0.013559 0.024842 0.266140
v 0.014710 -0.012062 0.229562
v 0.013987 0.024842 0.229554
v -0.026370 -0.016907 0.247377
v -0.027071 0.005589 0.269674
v -0.027250 0.028084 0.247367
v -0.026549 0.005589 0.225070
v -0.003615 -0.016466 0.225339
v -0.004495 0.028524 0.225328
v 0.018439 0.006469 0.225597
v 0.018618 -0.016026 0.247904
v 0.017737 0.028965 0.247893
v 0.017916 0.006469 0.270200
v -0.004137 -0.016466 0.269942
v -0.005018 0.028524 0.269932
v -0.035295 0.005423 0.247272
v -0.003957 0.006029 0.216921
v 0.026662 0.006635 0.247998
v -0.004676 0.006029 0.278350
v -0.003710 -0.024952 0.247642
v -0.004923 0.037010 0.247628
vn -0.8962 -0.3570 0.2635
vn -0.9086 0.2538 0.3317
vn -0.9006 0.2538 -0.3529
vn -0.8898 -0.3570 -0.2844
vn -0.2526 -0.3425 -0.9049
vn -0.3319 0.2632 -0.9059
vn 0.3424 0.2764 -0.8980
vn 0.2869 -0.3319 -0.8986
vn 0.9095 -0.3218 -0.2633
vn 0.8980 0.2890 -0.3318
vn 0.8900 0.2890 0.3527
vn 0.9030 -0.3218 0.2846
vn 0.2658 -0.3319 0.9051
vn 0.3213 0.2764 0.9057
vn -0.3530 0.2632 0.8978
vn -0.2737 -0.3425 0.8988
vn -0.3185 -0.9063 -0.2777
vn 0.2930 -0.8940 -0.3389
vn 0.2850 -0.8940 0.3457
vn -0.3249 -0.9063 0.2702
vn 0.3249 0.9063 -0.2702
vn -0.2850 0.8940 -0.3457
vn -0.2930 0.8940 0.3389
vn 0.3185 0.9063 0.2777
vn -0.8980 -0.2890 0.3318
vn -0.9095 0.3218 0.2633
vn -0.9030 0.3218 -0.2846
vn -0.8900 -0.2890 -0.3527
vn -0.3213 -0.2764 -0.9057
vn -0.2658 0.3319 -0.9051
vn 0.2737 0.3425 -0.8988
vn 0.3530 -0.2632 -0.8978
vn 0.9086 -0.2538 -0.3317
vn 0.8962 0.3570 -0.2635
vn 0.8898 0.3570 0.2844
vn 0.9006 -0.2538 0.3529
vn 0.3319 -0.2632 0.9059
vn 0.2526 0.3425 0.9049
vn -0.2869 0.3319 0.8986
vn -0.3424 -0.2764 0.8980
vn -0.2498 -0.9047 -0.3452
vn 0.3602 -0.8930 -0.2698
vn 0.3537 -0.8930 0.2781
vn -0.2578 -0.9047 0.3393
vn 0.2578 0.9047 -0.3393
vn -0.3537 0.8930 -0.2781
vn -0.3602 0.8930 0.2698
vn 0.2498 0.9047 0.3452
vt 0.375000 0.000000
vt 0.500000 0.125000
vt 0.375000 0.125000
vt 0.625000 0.000000
vt 0.500000 0.000000
vt 0.625000 0.250000
vt 0.500000 0.250000
vt 0.375000 0.250000
vt 0.500000 0.375000
vt 0.375000 0.375000
vt 0.625000 0.500000
vt 0.500000 0.500000
vt 0.375000 0.500000
vt 0.500000 0.625000
vt 0.375000 0.625000
vt 0.625000 0.750000
vt 0.500000 0.750000
vt 0.375000 0.750000
vt 0.500000 0.875000
vt 0.375000 0.875000
vt 0.625000 1.000000
vt 0.500000 1.000000
vt 0.375000 1.000000
vt 0.125000 0.500000
vt 0.250000 0.625000
vt 0.125000 0.625000
vt 0.250000 0.500000
vt 0.250000 0.750000
vt 0.125000 0.750000
vt 0.750000 0.625000
vt 0.625000 0.625000
vt 0.875000 0.500000
vt 0.750000 0.500000
vt 0.875000 0.750000
vt 0.750000 0.750000
vt 0.625000 0.125000
vt 0.625000 0.375000
vt 0.625000 0.875000
vt 0.875000 0.625000
s 0
f 17/19/7 37/20/7 25/21/7
f 18/22/8 37/20/8 26/23/8
f 37/20/9 20/24/9 28/25/9
f 37/20/10 19/26/10 25/21/10
f 19/26/11 38/27/11 29/28/11
f 20/24/12 38/27/12 28/25/12
f 38/27/13 24/29/13 31/30/13
f 38/27/14 23/31/14 29/28/14
f 23/31/15 39/32/15 32/33/15
f 24/29/16 39/32/16 31/30/16
f 39/32/17 22/34/17 34/35/17
f 39/32/18 21/36/18 32/33/18
f 21/36/19 40/37/19 35/38/19
f 22/34/20 40/37/20 34/35/20
f 40/37/21 18/39/21 26/40/21
f 40/37/22 17/41/22 35/38/22
f 19/42/23 41/43/23 25/44/23
f 23/31/24 41/43/24 29/45/24
f 41/43/25 21/36/25 35/46/25
f 41/43/26 17/47/26 25/44/26
f 24/29/27 42/48/27 33/49/27
f 20/50/28 42/48/28 30/51/28
f 42/48/29 18/52/29 36/53/29
f 42/48/30 22/34/30 33/49/30
f 17/19/31 26/23/31 37/20/31
f 18/22/32 27/54/32 37/20/32
f 37/20/33 27/54/33 20/24/33
f 37/20/34 28/25/34 19/26/34
f 19/26/35 28/25/35 38/27/35
f 20/24/36 30/55/36 38/27/36
f 38/27/37 30/55/37 24/29/37
f 38/27/38 31/30/38 23/31/38
f 23/31/39 31/30/39 39/32/39
f 24/29/40 33/49/40 39/32/40
f 39/32/41 33/49/41 22/34/41
f 39/32/42 34/35/42 21/36/42
f 21/36/43 34/35/43 40/37/43
f 22/34/44 36/56/44 40/37/44
f 40/37/45 36/56/45 18/39/45
f 40/37/46 26/40/46 17/41/46
f 19/42/47 29/45/47 41/43/47
f 23/31/48 32/33/48 41/43/48
f 41/43/49 32/33/49 21/36/49
f 41/43/50 35/46/50 17/47/50
f 24/29/51 30/51/51 42/48/51
f 20/50/52 27/57/52 42/48/52
f 42/48/53 27/57/53 18/52/53
f 42/48/54 36/53/54 22/34/54
