# Blender 4.0.2
# www.blender.org
mtllib BaseballBat.mtl
o BaseballBat
v -0.000418 1.087064 0.000000
v 0.031043 1.080037 0.000000
v 0.049146 1.051223 0.000000
v 0.048957 0.877284 0.000000
v 0.043146 0.628851 0.000000
v 0.022564 0.369876 0.000000
v 0.020874 0.050701 0.000000
v 0.038650 0.036829 0.000000
v 0.033377 0.006036 -0.000000
v 0.000000 0.000000 0.000000
v -0.000338 1.087064 0.000246
v 0.025114 1.080037 -0.018246
v 0.039760 1.051223 -0.028887
v 0.039607 0.877284 -0.028776
v 0.034905 0.628851 -0.025360
v 0.018254 0.369876 -0.013262
v 0.016887 0.050701 -0.012269
v 0.031268 0.036829 -0.022718
v 0.027003 0.006036 -0.019619
v 0.000000 0.000000 0.000000
v -0.000129 1.087064 0.000398
v 0.009593 1.080037 -0.029523
v 0.015187 1.051223 -0.046740
v 0.015129 0.877284 -0.046561
v 0.013333 0.628851 -0.041034
v 0.006973 0.369876 -0.021459
v 0.006450 0.050701 -0.019852
v 0.011943 0.036829 -0.036758
v 0.010314 0.006036 -0.031744
v 0.000000 0.000000 0.000000
v 0.000129 1.087064 0.000398
v -0.009593 1.080037 -0.029524
v -0.015187 1.051223 -0.046740
v -0.015128 0.877284 -0.046561
v -0.013333 0.628851 -0.041034
v -0.006972 0.369876 -0.021459
v -0.006450 0.050701 -0.019852
v -0.011943 0.036829 -0.036758
v -0.010314 0.006036 -0.031744
v 0.000000 0.000000 0.000000
v 0.000338 1.087064 0.000246
v -0.025114 1.080037 -0.018247
v -0.039760 1.051223 -0.028887
v -0.039607 0.877284 -0.028776
v -0.034905 0.628851 -0.025360
v -0.018254 0.369876 -0.013263
v -0.016887 0.050701 -0.012269
v -0.031268 0.036829 -0.022718
v -0.027003 0.006036 -0.019619
v 0.000000 0.000000 0.000000
v 0.000418 1.087064 -0.000000
v -0.031043 1.080037 -0.000000
v -0.049146 1.051223 -0.000000
v -0.048957 0.877284 -0.000000
v -0.043146 0.628851 -0.000000
v -0.022564 0.369876 -0.000000
v -0.020874 0.050701 -0.000000
v -0.038650 0.036829 0.000000
v -0.033377 0.006036 0.000000
v 0.000000 0.000000 0.000000
v 0.000338 1.087064 -0.000246
v -0.025114 1.080037 0.018246
v -0.039760 1.051223 0.028887
v -0.039607 0.877284 0.028776
v -0.034905 0.628851 0.025360
v -0.018254 0.369876 0.013262
v -0.016887 0.050701 0.012269
v -0.031268 0.036829 0.022718
v -0.027003 0.006036 0.019619
v 0.000000 0.000000 0.000000
v 0.000129 1.087064 -0.000398
v -0.009593 1.080037 0.029523
v -0.015187 1.051223 0.046740
v -0.015129 0.877284 0.046561
v -0.013333 0.628851 0.041034
v -0.006973 0.369876 0.021459
v -0.006450 0.050701 0.019852
v -0.011943 0.036829 0.036758
v -0.010314 0.006036 0.031744
v 0.000000 0.000000 0.000000
v -0.000129 1.087064 -0.000398
v 0.009593 1.080037 0.029524
v 0.015187 1.051223 0.046740
v 0.015128 0.877284 0.046561
v 0.013333 0.628851 0.041034
v 0.006972 0.369876 0.021459
v 0.006450 0.050701 0.019852
v 0.011943 0.036829 0.036758
v 0.010314 0.006036 0.031744
v 0.000000 0.000000 0.000000
v -0.000338 1.087064 -0.000246
v 0.025114 1.080037 0.018247
v 0.039760 1.051223 0.028887
v 0.039607 0.877284 0.028776
v 0.034905 0.628851 0.025360
v 0.018254 0.369876 0.013263
v 0.016887 0.050701 0.012269
v 0.031268 0.036829 0.022718
v 0.027003 0.006036 0.019619
v 0.000000 0.000000 0.000000
vn -0.2171 -0.9736 0.0707
vn -0.1341 -0.9735 0.1850
vn -0.0000 -0.9735 0.2286
vn 0.1341 -0.9736 0.1849
vn 0.2175 -0.9735 0.0706
vn 0.2171 -0.9736 -0.0707
vn 0.1341 -0.9735 -0.1850
vn -0.0000 -0.9735 -0.2286
vn -0.1341 -0.9736 -0.1849
vn -0.2175 -0.9735 -0.0706
vn 0.8164 0.5129 -0.2653
vn 0.5046 0.5129 -0.6945
vn -0.0000 0.5129 -0.8584
vn -0.5046 0.5129 -0.6945
vn -0.8164 0.5129 -0.2653
vn -0.8164 0.5129 0.2653
vn -0.5046 0.5129 0.6945
vn -0.0000 0.5129 0.8584
vn 0.5046 0.5129 0.6945
vn 0.8164 0.5129 0.2653
vn 0.9510 -0.0116 -0.3090
vn 0.9511 -0.0010 -0.3090
vn 0.5877 -0.0116 -0.8090
vn 0.5878 -0.0010 -0.8090
vn -0.0000 -0.0116 -0.9999
vn -0.0000 -0.0010 -1.0000
vn -0.5877 -0.0116 -0.8090
vn -0.5878 -0.0010 -0.8090
vn -0.9510 -0.0116 -0.3090
vn -0.9511 -0.0010 -0.3090
vn -0.9510 -0.0116 0.3090
vn -0.9511 -0.0010 0.3090
vn -0.5877 -0.0116 0.8090
vn -0.5878 -0.0010 0.8090
vn -0.0000 -0.0116 0.9999
vn -0.0000 -0.0010 1.0000
vn 0.5878 -0.0010 0.8090
vn 0.5877 -0.0116 0.8090
vn 0.9510 -0.0116 0.3090
vn 0.9511 -0.0010 0.3090
vn 0.9499 -0.0486 -0.3087
vn 0.5871 -0.0486 -0.8081
vn -0.0000 -0.0486 -0.9988
vn -0.5871 -0.0486 -0.8081
vn -0.9499 -0.0486 -0.3087
vn -0.9499 -0.0486 0.3087
vn -0.5871 -0.0486 0.8081
vn -0.0000 -0.0486 0.9988
vn 0.5871 -0.0486 0.8081
vn 0.9499 -0.0486 0.3087
vn 0.9503 -0.0405 -0.3088
vn 0.5873 -0.0405 -0.8084
vn -0.0000 -0.0405 -0.9992
vn -0.5873 -0.0405 -0.8084
vn -0.9503 -0.0405 -0.3088
vn -0.9503 -0.0405 0.3088
vn -0.5873 -0.0405 0.8084
vn -0.0000 -0.0405 0.9992
vn 0.5873 -0.0405 0.8084
vn 0.9503 -0.0405 0.3088
vn 0.9510 -0.0050 -0.3090
vn 0.5878 -0.0050 -0.8090
vn -0.0000 -0.0050 -1.0000
vn -0.5878 -0.0050 -0.8090
vn -0.9510 -0.0050 -0.3090
vn -0.9510 -0.0050 0.3090
vn -0.5878 -0.0050 0.8090
vn -0.0000 -0.0050 1.0000
vn 0.5878 -0.0050 0.8090
vn 0.9510 -0.0050 0.3090
vn 0.6152 0.7884 -0.0000
vn 0.4977 0.7884 -0.3616
vn 0.1901 0.7884 -0.5851
vn -0.1901 0.7884 -0.5851
vn -0.4977 0.7884 -0.3616
vn -0.6152 0.7884 -0.0000
vn -0.4977 0.7884 0.3616
vn -0.1901 0.7884 0.5851
vn 0.1901 0.7884 0.5851
vn 0.4977 0.7884 0.3616
vn 0.9387 -0.1607 -0.3050
vn 0.5801 -0.1607 -0.7985
vn -0.0000 -0.1607 -0.9870
vn -0.5801 -0.1607 -0.7985
vn -0.9387 -0.1607 -0.3050
vn -0.9387 -0.1607 0.3050
vn -0.5801 -0.1607 0.7985
vn -0.0000 -0.1607 0.9870
vn 0.5801 -0.1607 0.7985
vn 0.9387 -0.1607 0.3050
vn 0.1777 -0.9824 -0.0577
vn 0.1098 -0.9824 -0.1511
vn -0.0000 -0.9824 -0.1868
vn -0.1098 -0.9824 -0.1511
vn -0.1777 -0.9824 -0.0577
vn -0.1777 -0.9824 0.0577
vn -0.1098 -0.9824 0.1511
vn -0.0000 -0.9824 0.1868
vn 0.1098 -0.9824 0.1511
vn 0.1777 -0.9824 0.0577
vn 0.2175 0.9735 -0.0707
vn 0.1344 0.9735 -0.1850
vn -0.0000 0.9735 -0.2287
vn -0.1344 0.9735 -0.1850
vn -0.2175 0.9735 -0.0707
vn -0.2175 0.9735 0.0707
vn -0.1344 0.9735 0.1850
vn -0.0000 0.9735 0.2287
vn 0.1344 0.9735 0.1850
vn 0.2175 0.9735 0.0707
vn -0.0000 1.0000 -0.0000
vt 0.000000 0.891561
vt 0.100000 0.885797
vt 0.100000 0.891561
vt 0.200000 0.885797
vt 0.200000 0.891561
vt 0.300000 0.885797
vt 0.300000 0.891561
vt 0.400000 0.885797
vt 0.400000 0.891561
vt 0.500000 0.885797
vt 0.500000 0.891561
vt 0.600000 0.885797
vt 0.600000 0.891561
vt 0.700000 0.885797
vt 0.700000 0.891561
vt 0.800000 0.885797
vt 0.800000 0.891561
vt 0.900000 0.885797
vt 0.900000 0.891561
vt 1.000000 0.885797
vt 1.000000 0.891561
vt 0.000000 0.862165
vt 0.000000 0.885797
vt 0.100000 0.862165
vt 0.200000 0.862165
vt 0.300000 0.862165
vt 0.400000 0.862165
vt 0.500000 0.862165
vt 0.600000 0.862165
vt 0.700000 0.862165
vt 0.800000 0.862165
vt 0.900000 0.862165
vt 0.000000 0.719509
vt 0.100000 0.719509
vt 0.200000 0.719509
vt 0.300000 0.719509
vt 0.400000 0.719509
vt 0.500000 0.719509
vt 0.600000 0.719509
vt 0.700000 0.719509
vt 0.900000 0.719509
vt 1.000000 0.862165
vt 0.000000 0.515755
vt 0.100000 0.515755
vt 0.200000 0.515755
vt 0.300000 0.515755
vt 0.500000 0.515755
vt 0.600000 0.515755
vt 0.700000 0.515755
vt 0.800000 0.719509
vt 0.800000 0.515755
vt 0.900000 0.515755
vt 1.000000 0.719509
vt 0.000000 0.303356
vt 0.100000 0.303356
vt 0.200000 0.303356
vt 0.300000 0.303356
vt 0.400000 0.515755
vt 0.400000 0.303356
vt 0.500000 0.303356
vt 0.600000 0.303356
vt 0.700000 0.303356
vt 0.800000 0.303356
vt 0.900000 0.303356
vt 1.000000 0.515755
vt 0.000000 0.041583
vt 0.100000 0.041583
vt 0.200000 0.041583
vt 0.300000 0.041583
vt 0.400000 0.041583
vt 0.500000 0.041583
vt 0.600000 0.041583
vt 0.700000 0.041583
vt 0.800000 0.041583
vt 0.900000 0.041583
vt 1.000000 0.303356
vt 0.000000 0.030206
vt 0.100000 0.030206
vt 0.200000 0.030206
vt 0.300000 0.030206
vt 0.400000 0.030206
vt 0.500000 0.030206
vt 0.600000 0.030206
vt 0.700000 0.030206
vt 0.800000 0.030206
vt 0.900000 0.030206
vt 1.000000 0.041583
vt 0.000000 0.004950
vt 0.100000 0.004950
vt 0.200000 0.004950
vt 0.400000 0.004950
vt 0.500000 0.004950
vt 0.600000 0.004950
vt 0.700000 0.004950
vt 0.800000 0.004950
vt 0.900000 0.004950
vt 1.000000 0.030206
vt 0.100000 0.000000
vt 0.200000 0.000000
vt 0.300000 0.000000
vt 0.300000 0.004950
vt 0.400000 0.000000
vt 0.500000 0.000000
vt 0.600000 0.000000
vt 0.700000 0.000000
vt 0.800000 0.000000
vt 0.900000 0.000000
vt 1.000000 0.000000
vt 1.000000 0.004950
vt 0.000000 0.000000
s 1
f 1/1/1 12/2/1 11/3/1
f 11/3/2 22/4/2 21/5/2
f 21/5/3 32/6/3 31/7/3
f 31/7/4 42/8/4 41/9/4
f 41/9/5 52/10/5 51/11/5
f 51/11/6 62/12/6 61/13/6
f 61/13/7 72/14/7 71/15/7
f 71/15/8 82/16/8 81/17/8
f 81/17/9 92/18/9 91/19/9
f 91/19/10 2/20/10 1/21/10
f 3/22/11 12/2/11 2/23/11
f 13/24/12 22/4/12 12/2/12
f 23/25/13 32/6/13 22/4/13
f 33/26/14 42/8/14 32/6/14
f 43/27/15 52/10/15 42/8/15
f 53/28/16 62/12/16 52/10/16
f 63/29/17 72/14/17 62/12/17
f 73/30/18 82/16/18 72/14/18
f 83/31/19 92/18/19 82/16/19
f 93/32/20 2/20/20 92/18/20
f 4/33/21 13/24/22 3/22/22
f 14/34/23 23/25/24 13/24/24
f 24/35/25 33/26/26 23/25/26
f 34/36/27 43/27/28 33/26/28
f 44/37/29 53/28/30 43/27/30
f 54/38/31 63/29/32 53/28/32
f 64/39/33 73/30/34 63/29/34
f 74/40/35 83/31/36 73/30/36
f 83/31/37 94/41/38 93/32/37
f 94/41/39 3/42/40 93/32/40
f 5/43/41 14/34/21 4/33/21
f 15/44/42 24/35/23 14/34/23
f 25/45/43 34/36/25 24/35/25
f 35/46/44 44/37/27 34/36/27
f 44/37/29 55/47/45 54/38/29
f 54/38/31 65/48/46 64/39/31
f 65/48/47 74/40/33 64/39/33
f 75/49/48 84/50/35 74/40/35
f 85/51/49 94/41/38 84/50/38
f 95/52/50 4/53/39 94/41/39
f 6/54/51 15/44/41 5/43/41
f 16/55/52 25/45/42 15/44/42
f 26/56/53 35/46/43 25/45/43
f 36/57/54 45/58/44 35/46/44
f 46/59/55 55/47/45 45/58/45
f 56/60/56 65/48/46 55/47/46
f 66/61/57 75/49/47 65/48/47
f 76/62/58 85/51/48 75/49/48
f 86/63/59 95/52/49 85/51/49
f 96/64/60 5/65/50 95/52/50
f 7/66/61 16/55/51 6/54/51
f 17/67/62 26/56/52 16/55/52
f 27/68/63 36/57/53 26/56/53
f 37/69/64 46/59/54 36/57/54
f 47/70/65 56/60/55 46/59/55
f 57/71/66 66/61/56 56/60/56
f 67/72/67 76/62/57 66/61/57
f 77/73/68 86/63/58 76/62/58
f 87/74/69 96/64/59 86/63/59
f 97/75/70 6/76/60 96/64/60
f 8/77/71 17/67/72 7/66/71
f 18/78/72 27/68/73 17/67/72
f 28/79/73 37/69/74 27/68/73
f 38/80/74 47/70/75 37/69/74
f 48/81/75 57/71/76 47/70/75
f 58/82/76 67/72/77 57/71/76
f 68/83/77 77/73/78 67/72/77
f 78/84/78 87/74/79 77/73/78
f 88/85/79 97/75/80 87/74/79
f 98/86/80 7/87/71 97/75/80
f 9/88/81 18/78/81 8/77/81
f 19/89/82 28/79/82 18/78/82
f 29/90/83 38/80/83 28/79/83
f 38/80/84 49/91/84 48/81/84
f 48/81/85 59/92/85 58/82/85
f 58/82/86 69/93/86 68/83/86
f 68/83/87 79/94/87 78/84/87
f 79/94/88 88/85/88 78/84/88
f 89/95/89 98/86/89 88/85/89
f 99/96/90 8/97/90 98/86/90
f 9/88/91 20/98/91 19/89/91
f 19/89/92 30/99/92 29/90/92
f 29/90/93 40/100/93 39/101/93
f 39/101/94 50/102/94 49/91/94
f 49/91/95 60/103/95 59/92/95
f 59/92/96 70/104/96 69/93/96
f 69/93/97 80/105/97 79/94/97
f 79/94/98 90/106/98 89/95/98
f 89/95/99 100/107/99 99/96/99
f 99/96/100 10/108/100 9/109/100
f 1/1/101 2/23/101 12/2/101
f 11/3/102 12/2/102 22/4/102
f 21/5/103 22/4/103 32/6/103
f 31/7/104 32/6/104 42/8/104
f 41/9/105 42/8/105 52/10/105
f 51/11/106 52/10/106 62/12/106
f 61/13/107 62/12/107 72/14/107
f 71/15/108 72/14/108 82/16/108
f 81/17/109 82/16/109 92/18/109
f 91/19/110 92/18/110 2/20/110
f 3/22/11 13/24/11 12/2/11
f 13/24/12 23/25/12 22/4/12
f 23/25/13 33/26/13 32/6/13
f 33/26/14 43/27/14 42/8/14
f 43/27/15 53/28/15 52/10/15
f 53/28/16 63/29/16 62/12/16
f 63/29/17 73/30/17 72/14/17
f 73/30/18 83/31/18 82/16/18
f 83/31/19 93/32/19 92/18/19
f 93/32/20 3/42/20 2/20/20
f 4/33/21 14/34/21 13/24/22
f 14/34/23 24/35/23 23/25/24
f 24/35/25 34/36/25 33/26/26
f 34/36/27 44/37/27 43/27/28
f 44/37/29 54/38/29 53/28/30
f 54/38/31 64/39/31 63/29/32
f 64/39/33 74/40/33 73/30/34
f 74/40/35 84/50/35 83/31/36
f 83/31/37 84/50/38 94/41/38
f 94/41/39 4/53/39 3/42/40
f 5/43/41 15/44/41 14/34/21
f 15/44/42 25/45/42 24/35/23
f 25/45/43 35/46/43 34/36/25
f 35/46/44 45/58/44 44/37/27
f 44/37/29 45/58/45 55/47/45
f 54/38/31 55/47/46 65/48/46
f 65/48/47 75/49/47 74/40/33
f 75/49/48 85/51/48 84/50/35
f 85/51/49 95/52/49 94/41/38
f 95/52/50 5/65/50 4/53/39
f 6/54/51 16/55/51 15/44/41
f 16/55/52 26/56/52 25/45/42
f 26/56/53 36/57/53 35/46/43
f 36/57/54 46/59/54 45/58/44
f 46/59/55 56/60/55 55/47/45
f 56/60/56 66/61/56 65/48/46
f 66/61/57 76/62/57 75/49/47
f 76/62/58 86/63/58 85/51/48
f 86/63/59 96/64/59 95/52/49
f 96/64/60 6/76/60 5/65/50
f 7/66/61 17/67/61 16/55/51
f 17/67/62 27/68/62 26/56/52
f 27/68/63 37/69/63 36/57/53
f 37/69/64 47/70/64 46/59/54
f 47/70/65 57/71/65 56/60/55
f 57/71/66 67/72/66 66/61/56
f 67/72/67 77/73/67 76/62/57
f 77/73/68 87/74/68 86/63/58
f 87/74/69 97/75/69 96/64/59
f 97/75/70 7/87/70 6/76/60
f 8/77/71 18/78/72 17/67/72
f 18/78/72 28/79/73 27/68/73
f 28/79/73 38/80/74 37/69/74
f 38/80/74 48/81/75 47/70/75
f 48/81/75 58/82/76 57/71/76
f 58/82/76 68/83/77 67/72/77
f 68/83/77 78/84/78 77/73/78
f 78/84/78 88/85/79 87/74/79
f 88/85/79 98/86/80 97/75/80
f 98/86/80 8/97/71 7/87/71
f 9/88/81 19/89/81 18/78/81
f 19/89/82 29/90/82 28/79/82
f 29/90/83 39/101/83 38/80/83
f 38/80/84 39/101/84 49/91/84
f 48/81/85 49/91/85 59/92/85
f 58/82/86 59/92/86 69/93/86
f 68/83/87 69/93/87 79/94/87
f 79/94/88 89/95/88 88/85/88
f 89/95/89 99/96/89 98/86/89
f 99/96/90 9/109/90 8/97/90
f 9/88/111 10/110/111 20/98/111
f 19/89/111 20/98/111 30/99/111
f 29/90/111 30/99/111 40/100/111
f 39/101/111 40/100/111 50/102/111
f 49/91/111 50/102/111 60/103/111
f 59/92/111 60/103/111 70/104/111
f 69/93/111 70/104/111 80/105/111
f 79/94/111 80/105/111 90/106/111
f 89/95/111 90/106/111 100/107/111
f 99/96/111 100/107/111 10/108/111
