# Blender 4.1.0
# www.blender.org
mtllib Glass.001.mtl
o Glass.001
v -0.466418 1.556635 0.110091
v -0.466418 2.078845 0.110091
v -0.466418 1.556635 0.071861
v -0.466418 2.078845 0.071861
v 0.466419 1.556635 0.110091
v 0.466419 2.078845 0.110091
v 0.466419 1.556635 0.071861
v 0.466419 2.078845 0.071861
vn -1.0000 -0.0000 -0.0000
vn -0.0000 -0.0000 -1.0000
vn 1.0000 -0.0000 -0.0000
vn -0.0000 -0.0000 1.0000
vn -0.0000 -1.0000 -0.0000
vn -0.0000 1.0000 -0.0000
vt 0.671375 0.275287
vt 0.671375 0.063016
vt 0.982272 0.063016
vt 0.982272 0.275287
s 0
usemtl Window01
f 2/1/1 3/2/1 1/2/1
f 4/1/2 7/3/2 3/2/2
f 8/4/3 5/3/3 7/3/3
f 6/4/4 1/2/4 5/3/4
f 7/3/5 1/2/5 3/2/5
f 4/1/6 6/4/6 8/4/6
f 2/1/1 4/1/1 3/2/1
f 4/1/2 8/4/2 7/3/2
f 8/4/3 6/4/3 5/3/3
f 6/4/4 2/1/4 1/2/4
f 7/3/5 5/3/5 1/2/5
f 4/1/6 2/1/6 6/4/6
