# Blender 4.1.0
# www.blender.org
mtllib WindowPane.001.mtl
o WindowPane.001
v -0.535527 1.607757 0.141772
v -0.535527 1.524400 0.141772
v -0.535527 1.607757 0.021386
v -0.535527 1.524400 0.021386
v 0.538775 1.607757 0.141772
v 0.538775 1.524400 0.141772
v 0.538775 1.607757 0.021386
v 0.538775 1.524400 0.021386
vn 1.0000 -0.0000 -0.0000
vn -0.0000 -0.0000 1.0000
vn -1.0000 -0.0000 -0.0000
vn -0.0000 -0.0000 -1.0000
vn -0.0000 -1.0000 -0.0000
vn -0.0000 1.0000 -0.0000
vt 0.096683 0.563894
vt 0.096683 0.599469
vt 0.555165 0.599469
vt 0.555165 0.563894
vt 0.551353 0.092592
vt 0.109025 0.043025
vt 0.109025 0.092592
vt 0.551353 0.043025
s 0
usemtl Window01
f 2/1/1 3/2/1 1/2/1
f 4/1/2 7/3/2 3/2/2
f 8/4/3 5/3/3 7/3/3
f 6/4/4 1/2/4 5/3/4
f 7/5/5 1/6/5 3/7/5
f 4/1/6 6/4/6 8/4/6
f 2/1/1 4/1/1 3/2/1
f 4/1/2 8/4/2 7/3/2
f 8/4/3 6/4/3 5/3/3
f 6/4/4 2/1/4 1/2/4
f 7/5/5 5/8/5 1/6/5
f 4/1/6 2/1/6 6/4/6
