# Blender 4.1.0
# www.blender.org
mtllib WindowFrame.mtl
o WindowFrame
v -0.590236 2.202132 0.159644
v -0.590236 2.202132 -0.136244
v 0.578675 2.202132 0.159644
v 0.578675 2.202132 -0.136244
v -0.590236 0.941120 0.159644
v -0.590236 0.941120 -0.136244
v 0.578675 0.941120 -0.136244
v 0.578675 0.941120 0.159644
v -0.710604 0.814929 -0.162445
v -0.710604 0.814929 0.182830
v -0.710604 0.941120 -0.162445
v 0.699043 0.814929 -0.162445
v 0.699043 0.941120 -0.162445
v 0.699043 0.814929 0.182830
v 0.699043 0.941120 0.182830
v -0.710604 0.941120 0.182830
v 0.442622 2.061282 -0.136244
v -0.454182 2.061282 -0.136244
v -0.454182 0.962935 -0.136244
v 0.442622 0.962935 -0.136244
v -0.454182 2.061282 0.159644
v 0.442622 2.061282 0.159644
v -0.454182 0.962935 0.159644
v 0.442622 0.962935 0.159644
vn 1.0000 -0.0000 -0.0000
vn -0.0000 1.0000 -0.0000
vn -0.0000 -0.0000 1.0000
vn -0.0000 -1.0000 -0.0000
vn -1.0000 -0.0000 -0.0000
vn -0.0000 -0.0000 -1.0000
vt 0.624877 0.512415
vt 0.507938 0.078334
vt 0.507938 0.512415
vt 0.086499 0.157494
vt 0.567781 0.157494
vt 0.617341 0.168282
vt 0.507938 0.568080
vt 0.624877 0.069712
vt 0.507938 0.069712
vt 0.086499 0.035667
vt 0.036939 0.026120
vt 0.617341 0.026120
vt 0.514129 0.793021
vt 0.572193 0.314967
vt 0.572193 0.853132
vt 0.036939 0.168282
vt 0.021965 0.261112
vt 0.623563 0.261112
vt 0.624877 0.078334
vt 0.142517 0.035667
vt 0.511763 0.157494
vt 0.142517 0.157494
vt 0.567781 0.035667
vt 0.623563 0.314967
vt 0.021965 0.314967
vt 0.497583 0.019840
vt 0.634040 0.069712
vt 0.497583 0.069712
vt 0.514129 0.324277
vt 0.634040 0.019840
vt 0.131399 0.793021
vt 0.073335 0.853132
vt 0.624877 0.568080
vt 0.073335 0.314967
vt 0.131399 0.324277
vt 0.511763 0.035667
s 1
usemtl Window01
f 21/1/1 19/2/1 18/3/1
f 6/4/2 7/5/2 13/6/2
f 4/7/1 8/8/1 7/9/1
f 5/10/2 16/11/2 15/12/2
f 22/13/3 8/14/3 3/15/3
f 6/4/2 13/6/2 11/16/2
f 9/17/4 14/18/4 10/17/4
f 16/11/2 6/4/2 11/16/2
f 24/19/5 17/3/5 20/2/5
f 23/20/2 20/21/2 19/22/2
f 5/10/3 8/23/3 23/20/3
f 15/12/2 7/5/2 8/23/2
f 10/17/3 15/24/3 16/25/3
f 17/21/4 21/20/4 18/22/4
f 9/26/5 16/27/5 11/28/5
f 17/13/6 7/14/6 20/29/6
f 14/30/1 13/28/1 15/27/1
f 3/23/2 2/4/2 1/10/2
f 18/31/6 2/32/6 4/15/6
f 7/5/6 6/4/6 19/22/6
f 21/31/3 22/13/3 1/32/3
f 6/9/5 1/33/5 2/7/5
f 20/21/6 7/5/6 19/22/6
f 8/23/2 5/10/2 15/12/2
f 6/34/6 18/31/6 19/35/6
f 4/15/6 17/13/6 18/31/6
f 24/36/3 23/20/3 8/23/3
f 3/15/3 1/32/3 22/13/3
f 21/31/3 5/34/3 23/35/3
f 12/18/6 11/25/6 13/24/6
f 21/1/1 23/19/1 19/2/1
f 4/7/1 3/33/1 8/8/1
f 22/13/3 24/29/3 8/14/3
f 9/17/4 12/18/4 14/18/4
f 16/11/2 5/10/2 6/4/2
f 24/19/5 22/1/5 17/3/5
f 23/20/2 24/36/2 20/21/2
f 15/12/2 13/6/2 7/5/2
f 10/17/3 14/18/3 15/24/3
f 17/21/4 22/36/4 21/20/4
f 9/26/5 10/30/5 16/27/5
f 17/13/6 4/15/6 7/14/6
f 14/30/1 12/26/1 13/28/1
f 3/23/2 4/5/2 2/4/2
f 6/9/5 5/8/5 1/33/5
f 6/34/6 2/32/6 18/31/6
f 21/31/3 1/32/3 5/34/3
f 12/18/6 9/17/6 11/25/6
