# Blender 4.5.14 LTS
# www.blender.org
mtllib burger.mtl
o burger
v 0.050000 0.000000 0.000000 0.7764 0.7764 0.7764
v 0.040451 0.000000 -0.029389 0.7764 0.7764 0.7764
v 0.040451 0.020000 -0.029389 0.7372 0.7372 0.7372
v 0.015451 0.000000 -0.047553 0.7764 0.7764 0.7764
v -0.015451 0.000000 -0.047553 0.7764 0.7764 0.7764
v 0.015451 0.020000 -0.047553 0.7372 0.7372 0.7372
v -0.015451 0.020000 -0.047553 0.7372 0.7372 0.7372
v -0.040451 0.000000 -0.029389 0.7725 0.7725 0.7725
v -0.050000 0.000000 -0.000000 0.7686 0.7686 0.7686
v -0.040451 0.000000 0.029389 0.7686 0.7686 0.7686
v -0.015451 0.000000 0.047553 0.7686 0.7686 0.7686
v -0.040451 0.020000 0.029389 0.7412 0.7412 0.7412
v -0.015451 0.020000 0.047553 0.7372 0.7372 0.7372
v 0.015451 0.000000 0.047553 0.7686 0.7686 0.7686
v 0.040451 0.000000 0.029389 0.7686 0.7686 0.7686
v 0.015451 0.020000 0.047553 0.7372 0.7372 0.7372
v 0.050000 0.020000 0.000000 0.7412 0.7412 0.7412
v -0.040451 0.020000 -0.029389 0.7333 0.7333 0.7333
v -0.050000 0.020000 -0.000000 0.7372 0.7372 0.7372
v 0.040451 0.020000 0.029389 0.7412 0.7412 0.7412
v 0.054000 0.020000 0.000000 0.8431 0.8431 0.8431
v 0.043687 0.034000 -0.031740 0.7568 0.7568 0.7568
v 0.016687 0.020000 -0.051357 0.8431 0.8431 0.8431
v -0.016687 0.034000 -0.051357 0.7568 0.7568 0.7568
v 0.016687 0.034000 -0.051357 0.7608 0.7608 0.7608
v -0.043687 0.020000 -0.031740 0.8470 0.8470 0.8470
v -0.054000 0.020000 -0.000000 0.8431 0.8431 0.8431
v -0.043687 0.034000 -0.031740 0.7608 0.7608 0.7608
v -0.043687 0.020000 0.031740 0.8431 0.8431 0.8431
v -0.043687 0.034000 0.031740 0.7647 0.7647 0.7647
v -0.054000 0.034000 -0.000000 0.7608 0.7608 0.7608
v -0.016687 0.020000 0.051357 0.8392 0.8392 0.8392
v 0.016687 0.020000 0.051357 0.8392 0.8392 0.8392
v 0.043687 0.020000 0.031740 0.8392 0.8392 0.8392
v 0.054000 0.034000 0.000000 0.7529 0.7529 0.7529
v -0.016687 0.034000 0.051357 0.7647 0.7647 0.7647
v 0.016687 0.034000 0.051357 0.7647 0.7647 0.7647
v 0.043687 0.034000 0.031740 0.7608 0.7608 0.7608
v -0.016687 0.020000 -0.051357 0.8431 0.8431 0.8431
v 0.043687 0.020000 -0.031740 0.8431 0.8431 0.8431
v 0.058000 0.034000 0.000000 0.8941 0.8941 0.8941
v 0.058000 0.040000 0.000000 0.9529 0.9529 0.9529
v 0.017923 0.034000 -0.055161 0.9019 0.9019 0.9019
v 0.046923 0.040000 -0.034092 0.9607 0.9607 0.9607
v -0.017923 0.040000 -0.055161 0.9529 0.9529 0.9529
v -0.017923 0.034000 -0.055161 0.8980 0.8980 0.8980
v -0.046923 0.034000 -0.034092 0.8980 0.8980 0.8980
v -0.058000 0.034000 -0.000000 0.8980 0.8980 0.8980
v -0.046923 0.034000 0.034092 0.8980 0.8980 0.8980
v -0.046923 0.040000 0.034092 0.9568 0.9568 0.9568
v -0.058000 0.040000 -0.000000 0.9568 0.9568 0.9568
v -0.017923 0.034000 0.055161 0.9019 0.9019 0.9019
v 0.017923 0.034000 0.055161 0.9019 0.9019 0.9019
v 0.017923 0.040000 -0.055161 0.9568 0.9568 0.9568
v -0.046923 0.040000 -0.034092 0.9568 0.9568 0.9568
v -0.017923 0.040000 0.055161 0.9490 0.9490 0.9490
v 0.017923 0.040000 0.055161 0.9529 0.9529 0.9529
v 0.046923 0.040000 0.034092 0.9529 0.9529 0.9529
v 0.046923 0.034000 0.034092 0.8980 0.8980 0.8980
v 0.046923 0.034000 -0.034092 0.8980 0.8980 0.8980
v 0.040000 0.040000 0.000000 0.7333 0.7333 0.7333
v 0.028284 0.040000 -0.028284 0.7412 0.7412 0.7412
v 0.040000 0.046000 0.000000 0.7333 0.7333 0.7333
v 0.028284 0.046000 -0.028284 0.7294 0.7294 0.7294
v 0.000000 0.040000 -0.040000 0.7412 0.7412 0.7412
v -0.028284 0.040000 -0.028284 0.7333 0.7333 0.7333
v -0.040000 0.046000 -0.000000 0.7294 0.7294 0.7294
v -0.028284 0.046000 -0.028284 0.7333 0.7333 0.7333
v -0.040000 0.040000 -0.000000 0.7294 0.7294 0.7294
v -0.000000 0.046000 0.040000 0.7333 0.7333 0.7333
v -0.028284 0.046000 0.028284 0.7333 0.7333 0.7333
v 0.028284 0.040000 0.028284 0.7372 0.7372 0.7372
v 0.000000 0.046000 -0.040000 0.7333 0.7333 0.7333
v 0.028284 0.046000 0.028284 0.7372 0.7372 0.7372
v -0.000000 0.040000 0.040000 0.7372 0.7372 0.7372
v -0.028284 0.040000 0.028284 0.7333 0.7333 0.7333
v 0.041260 0.061000 -0.029977 0.9960 0.9960 0.9960
v 0.015451 0.046000 -0.047553 0.8902 0.8902 0.8902
v -0.051000 0.061000 -0.000000 0.9960 0.9960 0.9960
v -0.015451 0.046000 0.047553 0.8902 0.8902 0.8902
v 0.015451 0.046000 0.047553 0.8862 0.8862 0.8862
v 0.015760 0.061000 0.048504 0.9960 0.9960 0.9960
v 0.041260 0.061000 0.029977 0.9921 0.9921 0.9921
v 0.015760 0.061000 -0.048504 0.9960 0.9960 0.9960
v 0.032361 0.081000 -0.023511 1.0000 1.0000 1.0000
v -0.015760 0.061000 -0.048504 0.9960 0.9960 0.9960
v -0.041260 0.061000 -0.029977 0.9960 0.9960 0.9960
v -0.041260 0.061000 0.029977 0.9960 0.9960 0.9960
v -0.040000 0.081000 -0.000000 1.0000 1.0000 1.0000
v -0.012361 0.081000 0.038042 1.0000 1.0000 1.0000
v -0.015760 0.061000 0.048504 0.9921 0.9921 0.9921
v 0.012361 0.081000 0.038042 1.0000 1.0000 1.0000
v 0.032361 0.081000 0.023511 1.0000 1.0000 1.0000
v 0.051000 0.061000 0.000000 0.9921 0.9921 0.9921
v 0.040000 0.081000 0.000000 1.0000 1.0000 1.0000
v 0.012361 0.081000 -0.038042 1.0000 1.0000 1.0000
v -0.012361 0.081000 -0.038042 1.0000 1.0000 1.0000
v -0.032361 0.081000 -0.023511 1.0000 1.0000 1.0000
v 0.000000 0.088000 0.000000 1.0000 1.0000 1.0000
v -0.032361 0.081000 0.023511 1.0000 1.0000 1.0000
v 0.040451 0.046000 -0.029389 0.8902 0.8902 0.8902
v 0.050000 0.047000 0.000000 0.9529 0.9529 0.9529
v 0.015451 0.047000 -0.047553 0.9529 0.9529 0.9529
v 0.040451 0.047000 -0.029389 0.9490 0.9490 0.9490
v -0.040451 0.047000 -0.029389 0.9490 0.9490 0.9490
v -0.015451 0.047000 -0.047553 0.9490 0.9490 0.9490
v -0.040451 0.046000 -0.029389 0.8902 0.8902 0.8902
v -0.050000 0.047000 -0.000000 0.9490 0.9490 0.9490
v -0.015451 0.047000 0.047553 0.9451 0.9451 0.9451
v -0.040451 0.047000 0.029389 0.9529 0.9529 0.9529
v 0.015451 0.047000 0.047553 0.9490 0.9490 0.9490
v 0.040451 0.047000 0.029389 0.9490 0.9490 0.9490
v 0.040451 0.046000 0.029389 0.8941 0.8941 0.8941
v 0.050000 0.046000 0.000000 0.8902 0.8902 0.8902
v -0.040451 0.046000 0.029389 0.8862 0.8862 0.8862
v -0.050000 0.046000 -0.000000 0.8902 0.8902 0.8902
v -0.015451 0.046000 -0.047553 0.8941 0.8941 0.8941
vn 1.0000 -0.0000 -0.0000
vn 0.8090 -0.0000 -0.5878
vn 0.3090 -0.0000 -0.9511
vn -0.3090 -0.0000 -0.9511
vn -0.8090 -0.0000 -0.5878
vn -1.0000 -0.0000 -0.0000
vn -0.8090 -0.0000 0.5878
vn -0.3090 -0.0000 0.9511
vn 0.3090 -0.0000 0.9511
vn 0.8090 -0.0000 0.5878
vn -0.0000 1.0000 -0.0000
vn -0.0000 -1.0000 -0.0000
vn 0.7071 -0.0000 -0.7071
vn -0.0000 -0.0000 -1.0000
vn -0.7071 -0.0000 -0.7071
vn -0.7071 -0.0000 0.7071
vn -0.0000 -0.0000 1.0000
vn 0.7071 -0.0000 0.7071
vn 0.9978 -0.0665 -0.0000
vn 0.8072 -0.0665 -0.5865
vn 0.7917 0.2056 -0.5752
vn 0.9786 0.2056 -0.0000
vn 0.3083 -0.0665 -0.9490
vn 0.3024 0.2056 -0.9307
vn -0.3083 -0.0665 -0.9490
vn -0.3024 0.2056 -0.9307
vn -0.8072 -0.0665 -0.5865
vn -0.7917 0.2056 -0.5752
vn -0.9978 -0.0665 -0.0000
vn -0.9786 0.2056 -0.0000
vn -0.8072 -0.0665 0.5865
vn -0.7917 0.2056 0.5752
vn -0.3083 -0.0665 0.9490
vn -0.3024 0.2056 0.9307
vn 0.3083 -0.0665 0.9490
vn 0.3024 0.2056 0.9307
vn 0.8072 -0.0665 0.5865
vn 0.7917 0.2056 0.5752
vn 0.7089 0.4819 -0.5150
vn 0.8762 0.4819 -0.0000
vn 0.2708 0.4819 -0.8333
vn -0.2708 0.4819 -0.8333
vn -0.7089 0.4819 -0.5150
vn -0.8762 0.4819 -0.0000
vn -0.7089 0.4819 0.5150
vn -0.2708 0.4819 0.8333
vn 0.2708 0.4819 0.8333
vn 0.7089 0.4819 0.5150
vn 0.1724 0.9850 -0.0000
vn 0.1395 0.9850 -0.1013
vn 0.0533 0.9850 -0.1639
vn -0.0533 0.9850 -0.1639
vn -0.1395 0.9850 -0.1013
vn -0.1724 0.9850 -0.0000
vn -0.1395 0.9850 0.1013
vn -0.0533 0.9850 0.1639
vn 0.0533 0.9850 0.1639
vn 0.1395 0.9850 0.1013
vt 0.312988 0.969238
vt 0.316016 0.969238
vt 0.316016 0.999512
vt 0.312988 0.999512
vt 0.319043 0.969238
vt 0.319043 0.999512
vt 0.322070 0.969238
vt 0.322070 0.999512
vt 0.325098 0.969238
vt 0.325098 0.999512
vt 0.328125 0.969238
vt 0.328125 0.999512
vt 0.331152 0.969238
vt 0.331152 0.999512
vt 0.334180 0.969238
vt 0.334180 0.999512
vt 0.337207 0.969238
vt 0.337207 0.999512
vt 0.340234 0.969238
vt 0.340234 0.999512
vt 0.343262 0.969238
vt 0.343262 0.999512
vt 0.374512 0.984375
vt 0.371621 0.993730
vt 0.364053 0.999512
vt 0.354697 0.999512
vt 0.347129 0.993730
vt 0.344238 0.984375
vt 0.347129 0.975020
vt 0.354697 0.969238
vt 0.364053 0.969238
vt 0.371621 0.975020
vt 0.340371 0.993730
vt 0.332803 0.999512
vt 0.323447 0.999512
vt 0.315879 0.993730
vt 0.312988 0.984375
vt 0.315879 0.975020
vt 0.323447 0.969238
vt 0.332803 0.969238
vt 0.340371 0.975020
vt 0.343262 0.984375
vt 0.719238 0.969238
vt 0.722266 0.969238
vt 0.722266 0.999512
vt 0.719238 0.999512
vt 0.725293 0.969238
vt 0.725293 0.999512
vt 0.728320 0.969238
vt 0.728320 0.999512
vt 0.731348 0.969238
vt 0.731348 0.999512
vt 0.734375 0.969238
vt 0.734375 0.999512
vt 0.737402 0.969238
vt 0.737402 0.999512
vt 0.740430 0.969238
vt 0.740430 0.999512
vt 0.743457 0.969238
vt 0.743457 0.999512
vt 0.746484 0.969238
vt 0.746484 0.999512
vt 0.749512 0.969238
vt 0.749512 0.999512
vt 0.749512 0.984375
vt 0.746621 0.993730
vt 0.739052 0.999512
vt 0.729698 0.999512
vt 0.722129 0.993730
vt 0.719238 0.984375
vt 0.722129 0.975020
vt 0.729698 0.969238
vt 0.739052 0.969238
vt 0.746621 0.975020
vt 0.531738 0.969238
vt 0.534766 0.969238
vt 0.534766 0.999512
vt 0.531738 0.999512
vt 0.537793 0.969238
vt 0.537793 0.999512
vt 0.540820 0.969238
vt 0.540820 0.999512
vt 0.543848 0.969238
vt 0.543848 0.999512
vt 0.546875 0.969238
vt 0.546875 0.999512
vt 0.549902 0.969238
vt 0.549902 0.999512
vt 0.552930 0.969238
vt 0.552930 0.999512
vt 0.555957 0.969238
vt 0.555957 0.999512
vt 0.558984 0.969238
vt 0.558984 0.999512
vt 0.562012 0.969238
vt 0.562012 0.999512
vt 0.562012 0.984375
vt 0.559121 0.993730
vt 0.551552 0.999512
vt 0.542198 0.999512
vt 0.534629 0.993730
vt 0.531738 0.984375
vt 0.534629 0.975020
vt 0.542198 0.969238
vt 0.551552 0.969238
vt 0.559121 0.975020
vt 0.156738 0.906738
vt 0.160522 0.906738
vt 0.160522 0.937012
vt 0.156738 0.937012
vt 0.164307 0.906738
vt 0.164307 0.937012
vt 0.168091 0.906738
vt 0.168091 0.937012
vt 0.171875 0.906738
vt 0.171875 0.937012
vt 0.175659 0.906738
vt 0.175659 0.937012
vt 0.179443 0.906738
vt 0.179443 0.937012
vt 0.183228 0.906738
vt 0.183228 0.937012
vt 0.187012 0.906738
vt 0.187012 0.937012
vt 0.187012 0.921875
vt 0.182578 0.932578
vt 0.161172 0.932578
vt 0.156738 0.921875
vt 0.161172 0.911172
vt 0.182578 0.911172
vt 0.316016 0.975038
vt 0.312988 0.975038
vt 0.319043 0.975038
vt 0.322070 0.975038
vt 0.325098 0.975038
vt 0.328125 0.975038
vt 0.331152 0.975038
vt 0.334180 0.975038
vt 0.337207 0.975038
vt 0.340234 0.975038
vt 0.343262 0.975038
vt 0.316016 0.983845
vt 0.312988 0.983845
vt 0.319043 0.983845
vt 0.322070 0.983845
vt 0.325098 0.983845
vt 0.328125 0.983845
vt 0.331152 0.983845
vt 0.334180 0.983845
vt 0.337207 0.983845
vt 0.340234 0.983845
vt 0.343262 0.983845
vt 0.314502 0.999512
vt 0.317529 0.999512
vt 0.320557 0.999512
vt 0.323584 0.999512
vt 0.326611 0.999512
vt 0.329639 0.999512
vt 0.332666 0.999512
vt 0.335693 0.999512
vt 0.338721 0.999512
vt 0.341748 0.999512
vt 0.344238 0.969238
vt 0.347266 0.969238
vt 0.347266 0.999512
vt 0.344238 0.999512
vt 0.350293 0.969238
vt 0.350293 0.999512
vt 0.353320 0.969238
vt 0.353320 0.999512
vt 0.356348 0.969238
vt 0.356348 0.999512
vt 0.359375 0.969238
vt 0.359375 0.999512
vt 0.362402 0.969238
vt 0.362402 0.999512
vt 0.365430 0.969238
vt 0.365430 0.999512
vt 0.368457 0.969238
vt 0.368457 0.999512
vt 0.371484 0.969238
vt 0.371484 0.999512
vt 0.374512 0.969238
vt 0.374512 0.999512
s 1
usemtl props
f 1/1/1 2/2/2 3/3/2 17/4/1
f 2/2/2 4/5/3 6/6/3 3/3/2
f 4/5/3 5/7/4 7/8/4 6/6/3
f 5/7/4 8/9/5 18/10/5 7/8/4
f 8/9/5 9/11/6 19/12/6 18/10/5
f 9/11/6 10/13/7 12/14/7 19/12/6
f 10/13/7 11/15/8 13/16/8 12/14/7
f 11/15/8 14/17/9 16/18/9 13/16/8
f 14/17/9 15/19/10 20/20/10 16/18/9
f 15/19/10 1/21/1 17/22/1 20/20/10
s 0
f 17/23/11 3/24/11 6/25/11 7/26/11 18/27/11 19/28/11 12/29/11 13/30/11 16/31/11 20/32/11
f 15/33/12 14/34/12 11/35/12 10/36/12 9/37/12 8/38/12 5/39/12 4/40/12 2/41/12 1/42/12
s 1
f 21/43/1 40/44/2 22/45/2 35/46/1
f 40/44/2 23/47/3 25/48/3 22/45/2
f 23/47/3 39/49/4 24/50/4 25/48/3
f 39/49/4 26/51/5 28/52/5 24/50/4
f 26/51/5 27/53/6 31/54/6 28/52/5
f 27/53/6 29/55/7 30/56/7 31/54/6
f 29/55/7 32/57/8 36/58/8 30/56/7
f 32/57/8 33/59/9 37/60/9 36/58/8
f 33/59/9 34/61/10 38/62/10 37/60/9
f 34/61/10 21/63/1 35/64/1 38/62/10
s 0
f 35/65/11 22/66/11 25/67/11 24/68/11 28/69/11 31/70/11 30/71/11 36/72/11 37/73/11 38/74/11
f 34/66/12 33/67/12 32/68/12 29/69/12 27/70/12 26/71/12 39/72/12 23/73/12 40/74/12 21/65/12
s 1
f 41/75/1 60/76/2 44/77/2 42/78/1
f 60/76/2 43/79/3 54/80/3 44/77/2
f 43/79/3 46/81/4 45/82/4 54/80/3
f 46/81/4 47/83/5 55/84/5 45/82/4
f 47/83/5 48/85/6 51/86/6 55/84/5
f 48/85/6 49/87/7 50/88/7 51/86/6
f 49/87/7 52/89/8 56/90/8 50/88/7
f 52/89/8 53/91/9 57/92/9 56/90/8
f 53/91/9 59/93/10 58/94/10 57/92/9
f 59/93/10 41/95/1 42/96/1 58/94/10
s 0
f 42/97/11 44/98/11 54/99/11 45/100/11 55/101/11 51/102/11 50/103/11 56/104/11 57/105/11 58/106/11
f 59/98/12 53/99/12 52/100/12 49/101/12 48/102/12 47/103/12 46/104/12 43/105/12 60/106/12 41/97/12
s 1
f 61/107/1 62/108/13 64/109/13 63/110/1
f 62/108/13 65/111/14 73/112/14 64/109/13
f 65/111/14 66/113/15 68/114/15 73/112/14
f 66/113/15 69/115/6 67/116/6 68/114/15
f 69/115/6 76/117/16 71/118/16 67/116/6
f 76/117/16 75/119/17 70/120/17 71/118/16
f 75/119/17 72/121/18 74/122/18 70/120/17
f 72/121/18 61/123/1 63/124/1 74/122/18
s 0
f 63/125/11 64/126/11 73/116/11 68/127/11 67/128/11 71/129/11 70/115/11 74/130/11
f 72/126/12 75/116/12 76/127/12 69/128/12 66/129/12 65/115/12 62/130/12 61/125/12
s 1
f 114/1/19 101/2/20 77/131/21 94/132/22
f 101/2/20 78/5/23 84/133/24 77/131/21
f 78/5/23 117/7/25 86/134/26 84/133/24
f 117/7/25 107/9/27 87/135/28 86/134/26
f 107/9/27 116/11/29 79/136/30 87/135/28
f 116/11/29 115/13/31 88/137/32 79/136/30
f 115/13/31 80/15/33 91/138/34 88/137/32
f 80/15/33 81/17/35 82/139/36 91/138/34
f 81/17/35 113/19/37 83/140/38 82/139/36
f 113/19/37 114/21/19 94/141/22 83/140/38
f 94/132/22 77/131/21 85/142/39 95/143/40
f 77/131/21 84/133/24 96/144/41 85/142/39
f 84/133/24 86/134/26 97/145/42 96/144/41
f 86/134/26 87/135/28 98/146/43 97/145/42
f 87/135/28 79/136/30 89/147/44 98/146/43
f 79/136/30 88/137/32 100/148/45 89/147/44
f 88/137/32 91/138/34 90/149/46 100/148/45
f 91/138/34 82/139/36 92/150/47 90/149/46
f 82/139/36 83/140/38 93/151/48 92/150/47
f 83/140/38 94/141/22 95/152/40 93/151/48
f 95/143/49 85/142/50 99/153/11
f 85/142/50 96/144/51 99/154/11
f 96/144/51 97/145/52 99/155/11
f 97/145/52 98/146/53 99/156/11
f 98/146/53 89/147/54 99/157/11
f 89/147/54 100/148/55 99/158/11
f 100/148/55 90/149/56 99/159/11
f 90/149/56 92/150/57 99/160/11
f 92/150/57 93/151/58 99/161/11
f 93/151/58 95/152/49 99/162/11
f 114/163/1 101/164/2 104/165/2 102/166/1
f 101/164/2 78/167/3 103/168/3 104/165/2
f 78/167/3 117/169/4 106/170/4 103/168/3
f 117/169/4 107/171/5 105/172/5 106/170/4
f 107/171/5 116/173/6 108/174/6 105/172/5
f 116/173/6 115/175/7 110/176/7 108/174/6
f 115/175/7 80/177/8 109/178/8 110/176/7
f 80/177/8 81/179/9 111/180/9 109/178/8
f 81/179/9 113/181/10 112/182/10 111/180/9
f 113/181/10 114/183/1 102/184/1 112/182/10
s 0
f 113/24/12 81/25/12 80/26/12 115/27/12 116/28/12 107/29/12 117/30/12 78/31/12 101/32/12 114/23/12
