# Blender 4.5.14 LTS
# www.blender.org
mtllib can_tomatoes.mtl
o can_tomatoes
v 0.063103 0.000000 -0.045847 0.6745 0.6745 0.6745
v 0.024103 0.000000 -0.074182 0.6706 0.6706 0.6706
v 0.024103 0.178000 -0.074182 0.7960 0.7960 0.7960
v -0.024103 0.000000 -0.074182 0.6745 0.6745 0.6745
v -0.024103 0.178000 -0.074182 0.7960 0.7960 0.7960
v -0.078000 0.178000 -0.000000 0.7882 0.7882 0.7882
v -0.078000 0.000000 -0.000000 0.6706 0.6706 0.6706
v -0.063103 0.000000 0.045847 0.6706 0.6706 0.6706
v -0.024103 0.000000 0.074182 0.6706 0.6706 0.6706
v -0.024103 0.178000 0.074182 0.7960 0.7960 0.7960
v -0.063103 0.178000 0.045847 0.7921 0.7921 0.7921
v 0.024103 0.000000 0.074182 0.6706 0.6706 0.6706
v 0.063103 0.178000 0.045847 0.7921 0.7921 0.7921
v 0.078000 0.000000 0.000000 0.6706 0.6706 0.6706
v 0.078000 0.178000 0.000000 0.7921 0.7921 0.7921
v 0.063103 0.178000 -0.045847 0.7960 0.7960 0.7960
v -0.063103 0.178000 -0.045847 0.7921 0.7921 0.7921
v 0.024103 0.178000 0.074182 0.7960 0.7960 0.7960
v 0.063103 0.000000 0.045847 0.6706 0.6706 0.6706
v -0.063103 0.000000 -0.045847 0.6706 0.6706 0.6706
v 0.064721 0.000000 -0.047023 0.8313 0.8313 0.8313
v 0.024721 0.004000 -0.076085 0.8431 0.8431 0.8431
v 0.064721 0.004000 -0.047023 0.8392 0.8392 0.8392
v 0.024721 0.000000 -0.076085 0.8313 0.8313 0.8313
v -0.024721 0.004000 -0.076085 0.8431 0.8431 0.8431
v -0.024721 0.000000 -0.076085 0.8313 0.8313 0.8313
v -0.064721 0.000000 -0.047023 0.8274 0.8274 0.8274
v -0.064721 0.004000 -0.047023 0.8392 0.8392 0.8392
v -0.080000 0.000000 -0.000000 0.8235 0.8235 0.8235
v -0.064721 0.000000 0.047023 0.8196 0.8196 0.8196
v -0.080000 0.004000 -0.000000 0.8353 0.8353 0.8353
v -0.024721 0.004000 0.076085 0.8392 0.8392 0.8392
v -0.064721 0.004000 0.047023 0.8392 0.8392 0.8392
v -0.024721 0.000000 0.076085 0.8196 0.8196 0.8196
v 0.024721 0.000000 0.076085 0.8196 0.8196 0.8196
v 0.024721 0.004000 0.076085 0.8392 0.8392 0.8392
v 0.064721 0.004000 0.047023 0.8392 0.8392 0.8392
v 0.064721 0.000000 0.047023 0.8235 0.8235 0.8235
v 0.080000 0.000000 0.000000 0.8313 0.8313 0.8313
v 0.080000 0.004000 0.000000 0.8392 0.8392 0.8392
v 0.080000 0.174000 0.000000 1.0000 1.0000 1.0000
v 0.064721 0.178000 -0.047023 1.0000 1.0000 1.0000
v 0.080000 0.178000 0.000000 1.0000 1.0000 1.0000
v 0.064721 0.174000 -0.047023 1.0000 1.0000 1.0000
v 0.024721 0.178000 -0.076085 1.0000 1.0000 1.0000
v 0.024721 0.174000 -0.076085 1.0000 1.0000 1.0000
v -0.024721 0.174000 -0.076085 1.0000 1.0000 1.0000
v -0.064721 0.178000 -0.047023 1.0000 1.0000 1.0000
v -0.024721 0.178000 -0.076085 1.0000 1.0000 1.0000
v -0.064721 0.174000 -0.047023 1.0000 1.0000 1.0000
v -0.080000 0.174000 -0.000000 1.0000 1.0000 1.0000
v -0.064721 0.174000 0.047023 1.0000 1.0000 1.0000
v -0.064721 0.178000 0.047023 1.0000 1.0000 1.0000
v -0.080000 0.178000 -0.000000 1.0000 1.0000 1.0000
v -0.024721 0.178000 0.076085 1.0000 1.0000 1.0000
v -0.024721 0.174000 0.076085 1.0000 1.0000 1.0000
v 0.024721 0.174000 0.076085 1.0000 1.0000 1.0000
v 0.024721 0.178000 0.076085 1.0000 1.0000 1.0000
v 0.064721 0.178000 0.047023 1.0000 1.0000 1.0000
v 0.064721 0.174000 0.047023 1.0000 1.0000 1.0000
vn 1.0000 -0.0000 -0.0000
vn 0.8090 -0.0000 -0.5878
vn 0.3090 -0.0000 -0.9511
vn -0.3090 -0.0000 -0.9511
vn -0.8090 -0.0000 -0.5878
vn -1.0000 -0.0000 -0.0000
vn -0.8090 -0.0000 0.5878
vn -0.3090 -0.0000 0.9511
vn 0.3090 -0.0000 0.9511
vn 0.8090 -0.0000 0.5878
vn -0.0000 1.0000 -0.0000
vn -0.0000 -1.0000 -0.0000
vt 0.125488 0.969238
vt 0.131641 0.969238
vt 0.131641 0.999512
vt 0.125488 0.999512
vt 0.137793 0.969238
vt 0.137793 0.999512
vt 0.143945 0.969238
vt 0.143945 0.999512
vt 0.150098 0.969238
vt 0.150098 0.999512
vt 0.156250 0.969238
vt 0.156250 0.999512
vt 0.162402 0.969238
vt 0.162402 0.999512
vt 0.168555 0.969238
vt 0.168555 0.999512
vt 0.174707 0.969238
vt 0.174707 0.999512
vt 0.180859 0.969238
vt 0.180859 0.999512
vt 0.187012 0.969238
vt 0.187012 0.999512
vt 0.062012 0.921875
vt 0.059121 0.931230
vt 0.051553 0.937012
vt 0.042197 0.937012
vt 0.034629 0.931230
vt 0.031738 0.921875
vt 0.034629 0.912520
vt 0.042197 0.906738
vt 0.051553 0.906738
vt 0.059121 0.912520
vt 0.031738 0.906738
vt 0.034766 0.906738
vt 0.034766 0.937012
vt 0.031738 0.937012
vt 0.037793 0.906738
vt 0.037793 0.937012
vt 0.040820 0.906738
vt 0.040820 0.937012
vt 0.043848 0.906738
vt 0.043848 0.937012
vt 0.046875 0.906738
vt 0.046875 0.937012
vt 0.049902 0.906738
vt 0.049902 0.937012
vt 0.052930 0.906738
vt 0.052930 0.937012
vt 0.055957 0.906738
vt 0.055957 0.937012
vt 0.058984 0.906738
vt 0.058984 0.937012
vt 0.062012 0.906738
vt 0.062012 0.937012
s 1
usemtl props
f 14/1/1 1/2/2 16/3/2 15/4/1
f 1/2/2 2/5/3 3/6/3 16/3/2
f 2/5/3 4/7/4 5/8/4 3/6/3
f 4/7/4 20/9/5 17/10/5 5/8/4
f 20/9/5 7/11/6 6/12/6 17/10/5
f 7/11/6 8/13/7 11/14/7 6/12/6
f 8/13/7 9/15/8 10/16/8 11/14/7
f 9/15/8 12/17/9 18/18/9 10/16/8
f 12/17/9 19/19/10 13/20/10 18/18/9
f 19/19/10 14/21/1 15/22/1 13/20/10
s 0
f 15/23/11 16/24/11 3/25/11 5/26/11 17/27/11 6/28/11 11/29/11 10/30/11 18/31/11 13/32/11
f 19/24/12 12/25/12 9/26/12 8/27/12 7/28/12 20/29/12 4/30/12 2/31/12 1/32/12 14/23/12
s 1
f 39/33/1 21/34/2 23/35/2 40/36/1
f 21/34/2 24/37/3 22/38/3 23/35/2
f 24/37/3 26/39/4 25/40/4 22/38/3
f 26/39/4 27/41/5 28/42/5 25/40/4
f 27/41/5 29/43/6 31/44/6 28/42/5
f 29/43/6 30/45/7 33/46/7 31/44/6
f 30/45/7 34/47/8 32/48/8 33/46/7
f 34/47/8 35/49/9 36/50/9 32/48/8
f 35/49/9 38/51/10 37/52/10 36/50/9
f 38/51/10 39/53/1 40/54/1 37/52/10
f 41/33/1 44/34/2 42/35/2 43/36/1
f 44/34/2 46/37/3 45/38/3 42/35/2
f 46/37/3 47/39/4 49/40/4 45/38/3
f 47/39/4 50/41/5 48/42/5 49/40/4
f 50/41/5 51/43/6 54/44/6 48/42/5
f 51/43/6 52/45/7 53/46/7 54/44/6
f 52/45/7 56/47/8 55/48/8 53/46/7
f 56/47/8 57/49/9 58/50/9 55/48/8
f 57/49/9 60/51/10 59/52/10 58/50/9
f 60/51/10 41/53/1 43/54/1 59/52/10
