# Blender 4.5.14 LTS
# www.blender.org
mtllib cash_register.mtl
o cash_register
v -0.180000 0.080000 -0.200000 0.8784 0.8784 0.8784
v 0.180000 0.000000 0.200000 0.7647 0.7647 0.7647
v 0.180000 0.000000 -0.200000 0.7764 0.7764 0.7764
v 0.180000 0.080000 -0.200000 0.8784 0.8784 0.8784
v -0.180000 0.000000 -0.200000 0.7725 0.7725 0.7725
v -0.180000 0.000000 0.200000 0.7608 0.7608 0.7608
v -0.180000 0.080000 0.200000 0.9411 0.9411 0.9411
v -0.180000 0.000000 0.180000 0.7176 0.7176 0.7176
v -0.180000 0.080000 0.180000 0.8588 0.8588 0.8588
v 0.180000 0.000000 0.180000 0.7216 0.7216 0.7216
v 0.180000 0.080000 0.180000 0.8588 0.8588 0.8588
v 0.180000 0.080000 0.200000 0.9411 0.9411 0.9411
v -0.170000 0.080000 0.080000 0.8078 0.8078 0.8078
v 0.170000 0.260000 -0.002500 0.9764 0.9764 0.9764
v -0.170000 0.260000 -0.137500 0.9255 0.9255 0.9255
v 0.170000 0.080000 -0.220000 0.8588 0.8588 0.8588
v 0.170000 0.260000 -0.137500 0.9255 0.9255 0.9255
v -0.170000 0.260000 -0.002500 0.9843 0.9843 0.9843
v -0.170000 0.080000 -0.220000 0.8588 0.8588 0.8588
v 0.170000 0.080000 0.080000 0.8039 0.8039 0.8039
v -0.150000 0.260000 -0.180000 0.9372 0.9372 0.9372
v -0.150000 0.260000 -0.060000 0.8157 0.8157 0.8157
v -0.150000 0.360000 -0.060000 0.9921 0.9921 0.9921
v 0.150000 0.260000 -0.060000 0.8157 0.8157 0.8157
v 0.150000 0.360000 -0.060000 0.9882 0.9882 0.9882
v 0.150000 0.360000 -0.180000 1.0000 1.0000 1.0000
v -0.150000 0.360000 -0.180000 1.0000 1.0000 1.0000
v 0.150000 0.260000 -0.180000 0.9411 0.9411 0.9411
v 0.180000 0.168000 -0.020000 0.7568 0.7568 0.7568
v 0.260000 0.189708 -0.027053 0.7608 0.7608 0.7608
v 0.180000 0.189708 -0.027053 0.7882 0.7882 0.7882
v 0.180000 0.189708 -0.012947 0.7960 0.7960 0.7960
v 0.180000 0.176292 -0.008587 0.7804 0.7804 0.7804
v 0.260000 0.176292 -0.008587 0.7608 0.7608 0.7608
v 0.260000 0.168000 -0.020000 0.7255 0.7255 0.7255
v 0.260000 0.176292 -0.031413 0.7372 0.7372 0.7372
v 0.260000 0.189708 -0.012947 0.7804 0.7804 0.7804
v 0.180000 0.176292 -0.031413 0.7725 0.7725 0.7725
v 0.290000 0.160000 -0.020000 0.9058 0.9058 0.9058
v 0.260000 0.170000 -0.037321 0.8431 0.8431 0.8431
v 0.290000 0.190000 -0.037321 0.9764 0.9764 0.9764
v 0.260000 0.190000 -0.037321 0.8862 0.8862 0.8862
v 0.260000 0.200000 -0.020000 0.9098 0.9098 0.9098
v 0.290000 0.200000 -0.020000 0.9843 0.9843 0.9843
v 0.260000 0.170000 -0.002679 0.8745 0.8745 0.8745
v 0.290000 0.190000 -0.002679 0.9921 0.9921 0.9921
v 0.260000 0.160000 -0.020000 0.8117 0.8117 0.8117
v 0.290000 0.170000 -0.002679 0.9490 0.9490 0.9490
v 0.290000 0.170000 -0.037321 0.9372 0.9372 0.9372
v 0.260000 0.190000 -0.002679 0.9215 0.9215 0.9215
vn -0.0000 -0.0000 -1.0000
vn -1.0000 -0.0000 -0.0000
vn 1.0000 -0.0000 -0.0000
vn -0.0000 1.0000 -0.0000
vn -0.0000 -1.0000 -0.0000
vn -0.0000 -0.0000 1.0000
vn -0.0000 0.4167 0.9091
vn -0.0000 0.4167 -0.9091
vn -0.0000 -0.8090 -0.5878
vn -0.0000 0.3090 -0.9511
vn -0.0000 0.3090 0.9511
vn -0.0000 -0.8090 0.5878
vn -0.0000 -0.8660 -0.5000
vn -0.0000 0.8660 -0.5000
vn -0.0000 0.8660 0.5000
vn -0.0000 -0.8660 0.5000
vt 0.297363 0.922363
vt 0.312012 0.922363
vt 0.312012 0.937012
vt 0.297363 0.937012
vt 0.375488 0.969238
vt 0.405762 0.969238
vt 0.405762 0.975966
vt 0.375488 0.975966
vt 0.383057 0.969238
vt 0.383057 0.999512
vt 0.375488 0.999512
vt 0.405762 0.970920
vt 0.375488 0.970920
vt 0.906738 0.969238
vt 0.937012 0.969238
vt 0.937012 0.999512
vt 0.906738 0.999512
vt 0.307983 0.937012
vt 0.301392 0.937012
vt 0.266113 0.922363
vt 0.296387 0.922363
vt 0.296387 0.937012
vt 0.266113 0.937012
vt 0.405762 0.994466
vt 0.375488 0.994466
vt 0.405762 0.981348
vt 0.375488 0.981348
vt 0.381543 0.969238
vt 0.381543 0.999512
vt 0.387598 0.969238
vt 0.387598 0.999512
vt 0.393652 0.969238
vt 0.393652 0.999512
vt 0.399707 0.969238
vt 0.399707 0.999512
vt 0.405762 0.999512
vt 0.405762 0.984375
vt 0.394198 0.999512
vt 0.375488 0.993730
vt 0.375488 0.975020
vt 0.394198 0.969238
vt 0.250488 0.969238
vt 0.255534 0.969238
vt 0.255534 0.999512
vt 0.250488 0.999512
vt 0.260579 0.969238
vt 0.260579 0.999512
vt 0.265625 0.969238
vt 0.265625 0.999512
vt 0.270671 0.969238
vt 0.270671 0.999512
vt 0.275716 0.969238
vt 0.275716 0.999512
vt 0.280762 0.969238
vt 0.280762 0.999512
vt 0.280762 0.984375
vt 0.273193 0.999512
vt 0.258057 0.999512
vt 0.250488 0.984375
vt 0.258057 0.969238
vt 0.273193 0.969238
s 0
usemtl props
f 3/1/1 5/2/1 1/3/1 4/4/1
f 5/1/2 6/2/2 7/3/2 1/4/2
f 2/1/3 3/2/3 4/3/3 12/4/3
f 7/1/4 12/2/4 4/3/4 1/4/4
f 5/1/5 3/2/5 2/3/5 6/4/5
f 6/5/6 2/6/6 12/7/6 7/8/6
f 10/5/1 8/6/1 9/7/1 11/8/1
f 8/5/2 6/9/2 7/10/2 9/11/2
f 2/5/3 10/9/3 11/10/3 12/11/3
f 7/5/4 12/6/4 11/12/4 9/13/4
f 8/5/5 10/6/5 2/12/5 6/13/5
f 13/14/7 20/15/7 14/16/7 18/17/7
f 16/1/8 19/2/8 15/3/8 17/4/8
f 19/1/2 13/2/2 18/18/2 15/19/2
f 20/1/3 16/2/3 17/18/3 14/19/3
f 18/14/4 14/15/4 17/16/4 15/17/4
f 19/1/5 16/2/5 20/3/5 13/4/5
f 22/20/6 24/21/6 25/22/6 23/23/6
f 28/20/1 21/21/1 27/22/1 26/23/1
f 21/5/2 22/6/2 23/24/2 27/25/2
f 24/5/3 28/6/3 26/24/3 25/25/3
f 23/5/4 25/6/4 26/26/4 27/27/4
f 21/5/5 28/6/5 24/26/5 22/27/5
s 1
f 29/5/9 38/28/9 36/29/9 35/11/9
f 38/28/10 31/30/10 30/31/10 36/29/10
f 31/30/4 32/32/4 37/33/4 30/31/4
f 32/32/11 33/34/11 34/35/11 37/33/11
f 33/34/12 29/6/12 35/36/12 34/35/12
s 0
f 35/37/3 36/38/3 30/39/3 37/40/3 34/41/3
f 33/38/2 32/39/2 31/40/2 38/41/2 29/37/2
s 1
f 47/42/13 40/43/13 49/44/13 39/45/13
f 40/43/1 42/46/1 41/47/1 49/44/1
f 42/46/14 43/48/14 44/49/14 41/47/14
f 43/48/15 50/50/15 46/51/15 44/49/15
f 50/50/6 45/52/6 48/53/6 46/51/6
f 45/52/16 47/54/16 39/55/16 48/53/16
s 0
f 39/56/3 49/57/3 41/58/3 44/59/3 46/60/3 48/61/3
f 45/57/2 50/58/2 43/59/2 42/60/2 40/61/2 47/56/2
o cash_register_drawer
v -0.170000 0.007500 0.180000 0.6667 0.6667 0.6667
v 0.170000 0.007500 0.180000 0.6667 0.6667 0.6667
v -0.170000 0.072500 -0.180000 0.6667 0.6667 0.6667
v -0.170000 0.007500 -0.180000 0.6667 0.6667 0.6667
v -0.170000 0.072500 0.180000 0.6667 0.6667 0.6667
v 0.170000 0.072500 0.180000 0.6667 0.6667 0.6667
v 0.170000 0.072500 -0.180000 0.6667 0.6667 0.6667
v 0.170000 0.007500 -0.180000 0.6667 0.6667 0.6667
vn -0.0000 -0.0000 1.0000
vn -0.0000 -0.0000 -1.0000
vn -1.0000 -0.0000 -0.0000
vn 1.0000 -0.0000 -0.0000
vn -0.0000 1.0000 -0.0000
vn -0.0000 -1.0000 -0.0000
vt 0.375488 0.969238
vt 0.405762 0.969238
vt 0.405762 0.975026
vt 0.375488 0.975026
vt 0.297363 0.922363
vt 0.312012 0.922363
vt 0.312012 0.925164
vt 0.297363 0.925164
vt 0.312012 0.925008
vt 0.297363 0.925008
vt 0.125488 0.906738
vt 0.155762 0.906738
vt 0.155762 0.937012
vt 0.125488 0.937012
vt 0.311198 0.922363
vt 0.311198 0.937012
vt 0.297363 0.937012
s 0
usemtl props
f 51/62/17 52/63/17 56/64/17 55/65/17
f 58/66/18 54/67/18 53/68/18 57/69/18
f 54/66/19 51/67/19 55/70/19 53/71/19
f 52/66/20 58/67/20 57/70/20 56/71/20
f 55/72/21 56/73/21 57/74/21 53/75/21
f 54/66/22 58/76/22 52/77/22 51/78/22
