# Blender 4.5.14 LTS
# www.blender.org
mtllib chef_knife.mtl
o chef_knife
v 0.022500 0.003000 0.066000 0.8902 0.8902 0.8902
v -0.022500 0.000000 0.033000 0.7725 0.7725 0.7725
v 0.022500 0.000000 0.220000 0.7764 0.7764 0.7764
v 0.022500 0.003000 0.220000 0.8902 0.8902 0.8902
v 0.000000 0.003000 0.000000 0.7490 0.7490 0.7490
v 0.022500 0.000000 0.066000 0.7804 0.7804 0.7804
v -0.022500 0.003000 0.033000 0.8823 0.8823 0.8823
v 0.000000 0.000000 0.000000 0.6863 0.6863 0.6863
v -0.022500 0.003000 0.220000 0.8862 0.8862 0.8862
v -0.022500 0.000000 0.220000 0.7764 0.7764 0.7764
v 0.011000 0.020000 -0.120000 0.9098 0.9098 0.9098
v -0.011000 0.000000 -0.120000 0.7764 0.7764 0.7764
v -0.011000 0.020000 0.000000 0.9019 0.9019 0.9019
v 0.011000 0.000000 0.000000 0.7686 0.7686 0.7686
v 0.011000 0.000000 -0.120000 0.7804 0.7804 0.7804
v 0.011000 0.020000 0.000000 0.9098 0.9098 0.9098
v -0.011000 0.020000 -0.120000 0.9058 0.9058 0.9058
v -0.011000 0.000000 0.000000 0.7647 0.7647 0.7647
v 0.000000 0.021000 -0.034000 0.8902 0.8902 0.8902
v 0.000000 -0.001000 -0.034000 0.6706 0.6706 0.6706
v -0.004000 -0.001000 -0.030000 0.6745 0.6745 0.6745
v -0.004000 0.021000 -0.030000 0.8941 0.8941 0.8941
v -0.000000 0.021000 -0.026000 0.8902 0.8902 0.8902
v 0.004000 0.021000 -0.030000 0.8941 0.8941 0.8941
v -0.000000 -0.001000 -0.026000 0.6706 0.6706 0.6706
v 0.004000 -0.001000 -0.030000 0.6785 0.6785 0.6785
v 0.004000 0.021000 -0.090000 0.8941 0.8941 0.8941
v 0.000000 -0.001000 -0.094000 0.6667 0.6667 0.6667
v -0.004000 0.021000 -0.090000 0.8902 0.8902 0.8902
v -0.000000 -0.001000 -0.086000 0.6745 0.6745 0.6745
v 0.004000 -0.001000 -0.090000 0.6785 0.6785 0.6785
v 0.000000 0.021000 -0.094000 0.8902 0.8902 0.8902
v -0.000000 0.021000 -0.086000 0.8902 0.8902 0.8902
v -0.004000 -0.001000 -0.090000 0.6706 0.6706 0.6706
vn -0.0000 1.0000 -0.0000
vn -0.0000 -1.0000 -0.0000
vn -0.0000 -0.0000 1.0000
vn 1.0000 -0.0000 -0.0000
vn 0.9465 -0.0000 -0.3227
vn -0.8262 -0.0000 -0.5633
vn -1.0000 -0.0000 -0.0000
vn -0.0000 -0.0000 -1.0000
vn 0.7071 -0.0000 -0.7071
vn -0.7071 -0.0000 -0.7071
vn -0.7071 -0.0000 0.7071
vn 0.7071 -0.0000 0.7071
vt 0.062988 0.906738
vt 0.069181 0.906738
vt 0.069181 0.927930
vt 0.066084 0.937012
vt 0.062988 0.932471
vt 0.069181 0.932471
vt 0.062988 0.927930
vt 0.065737 0.906738
vt 0.062988 0.908191
vt 0.065737 0.908191
vt 0.075142 0.906738
vt 0.075142 0.908191
vt 0.079401 0.906738
vt 0.079401 0.908191
vt 0.081841 0.906738
vt 0.081841 0.908191
vt 0.093262 0.906738
vt 0.093262 0.908191
vt 0.000488 0.937988
vt 0.011316 0.937988
vt 0.011316 0.947832
vt 0.000488 0.947832
vt 0.059551 0.937988
vt 0.059551 0.947832
vt 0.011316 0.997051
vt 0.000488 0.997051
vt 0.281738 0.969238
vt 0.289307 0.969238
vt 0.289307 0.999512
vt 0.281738 0.999512
vt 0.296875 0.969238
vt 0.296875 0.999512
vt 0.304443 0.969238
vt 0.304443 0.999512
vt 0.312012 0.969238
vt 0.312012 0.999512
vt 0.312012 0.984375
vt 0.281738 0.984375
s 0
usemtl props
f 9/1/1 4/2/1 1/3/1 5/4/1 7/5/1
f 2/6/2 8/4/2 6/7/2 3/1/2 10/2/2
f 4/8/3 9/1/3 10/9/3 3/10/3
f 1/11/4 4/8/4 3/10/4 6/12/4
f 5/13/5 1/11/5 6/12/5 8/14/5
f 7/15/6 5/13/6 8/14/6 2/16/6
f 9/17/7 7/15/7 2/16/7 10/18/7
f 18/19/3 14/20/3 16/21/3 13/22/3
f 15/19/8 12/20/8 17/21/8 11/22/8
f 12/19/7 18/23/7 13/24/7 17/22/7
f 14/19/4 15/23/4 11/24/4 16/22/4
f 13/19/1 16/20/1 11/25/1 17/26/1
f 12/19/2 15/20/2 14/25/2 18/26/2
s 1
f 26/27/9 20/28/9 19/29/9 24/30/9
f 20/28/10 21/31/10 22/32/10 19/29/10
f 21/31/11 25/33/11 23/34/11 22/32/11
f 25/33/12 26/35/12 24/36/12 23/34/12
s 0
f 24/37/1 19/32/1 22/38/1 23/31/1
f 25/32/2 21/38/2 20/31/2 26/37/2
s 1
f 31/27/9 28/28/9 32/29/9 27/30/9
f 28/28/10 34/31/10 29/32/10 32/29/10
f 34/31/11 30/33/11 33/34/11 29/32/11
f 30/33/12 31/35/12 27/36/12 33/34/12
s 0
f 27/37/1 32/32/1 29/38/1 33/31/1
f 30/32/2 34/38/2 28/31/2 31/37/2
