# Blender 4.5.14 LTS
# www.blender.org
mtllib fries.mtl
o fries
v 0.046000 0.100000 -0.028000 1.0000 1.0000 1.0000
v -0.040000 0.000000 0.020000 0.7686 0.7686 0.7686
v -0.046000 0.100000 0.028000 1.0000 1.0000 1.0000
v 0.040000 0.000000 0.020000 0.7725 0.7725 0.7725
v 0.040000 0.000000 -0.020000 0.7725 0.7725 0.7725
v 0.046000 0.100000 0.028000 1.0000 1.0000 1.0000
v -0.046000 0.100000 -0.028000 1.0000 1.0000 1.0000
v -0.040000 0.000000 -0.020000 0.7686 0.7686 0.7686
v 0.004730 0.016051 -0.000987 0.6745 0.6745 0.6745
v 0.000400 0.104341 -0.019699 0.9058 0.9058 0.9058
v 0.000631 0.102694 -0.027525 0.9647 0.9647 0.9647
v -0.007522 0.103228 -0.019699 0.8784 0.8784 0.8784
v -0.007291 0.101581 -0.027525 0.9451 0.9451 0.9451
v 0.012652 0.017165 -0.000987 0.6745 0.6745 0.6745
v 0.012883 0.015517 -0.008812 0.6706 0.6706 0.6706
v 0.004961 0.014404 -0.008812 0.6863 0.6863 0.6863
v -0.023336 0.104226 -0.007706 0.8862 0.8862 0.8862
v -0.023336 0.105062 0.000250 0.9058 0.9058 0.9058
v -0.015336 0.015555 0.009658 0.6745 0.6745 0.6745
v -0.015336 0.105062 0.000250 0.8941 0.8941 0.8941
v -0.015336 0.104226 -0.007706 0.7764 0.7764 0.7764
v -0.023336 0.014719 0.001702 0.6745 0.6745 0.6745
v -0.015336 0.014719 0.001702 0.6824 0.6824 0.6824
v -0.023336 0.015555 0.009658 0.6745 0.6745 0.6745
v 0.039573 0.103811 0.001575 0.9098 0.9098 0.9098
v 0.019125 0.015800 0.001575 0.6785 0.6785 0.6785
v 0.019125 0.015800 0.009575 0.6706 0.6706 0.6706
v 0.039573 0.103811 0.009575 0.9137 0.9137 0.9137
v 0.031651 0.104924 0.009575 0.9058 0.9058 0.9058
v 0.031651 0.104924 0.001575 0.9019 0.9019 0.9019
v 0.027047 0.014687 0.001575 0.6706 0.6706 0.6706
v 0.027047 0.014687 0.009575 0.6706 0.6706 0.6706
v -0.003834 0.014408 -0.009924 0.6863 0.6863 0.6863
v -0.008369 0.104157 -0.000516 0.8862 0.8862 0.8862
v -0.016291 0.103044 -0.000516 0.6667 0.6667 0.6667
v -0.016408 0.103872 -0.008473 0.7764 0.7764 0.7764
v 0.004088 0.015522 -0.009924 0.6706 0.6706 0.6706
v 0.003972 0.016350 -0.017880 0.6667 0.6667 0.6667
v -0.008485 0.104986 -0.008473 0.9058 0.9058 0.9058
v -0.003951 0.015236 -0.017880 0.6902 0.6902 0.6902
v -0.003707 0.014715 0.009788 0.6863 0.6863 0.6863
v -0.003707 0.102748 0.028500 0.9647 0.9647 0.9647
v -0.011707 0.016378 0.001963 0.6745 0.6745 0.6745
v -0.003707 0.104411 0.020675 0.9098 0.9098 0.9098
v -0.003707 0.016378 0.001963 0.6667 0.6667 0.6667
v -0.011707 0.102748 0.028500 0.9686 0.9686 0.9686
v -0.011707 0.104411 0.020675 0.9019 0.9019 0.9019
v -0.011707 0.014715 0.009788 0.6745 0.6745 0.6745
v 0.019975 0.017165 0.004068 0.6667 0.6667 0.6667
v 0.027897 0.016051 0.004068 0.6667 0.6667 0.6667
v 0.032227 0.104341 -0.014644 0.9058 0.9058 0.9058
v 0.027665 0.014404 -0.003757 0.6706 0.6706 0.6706
v 0.031995 0.102694 -0.022469 0.8980 0.8980 0.8980
v 0.039917 0.101581 -0.022469 0.8823 0.8823 0.8823
v 0.040149 0.103228 -0.014644 0.9137 0.9137 0.9137
v 0.019743 0.015517 -0.003757 0.6824 0.6824 0.6824
v -0.014623 0.104986 -0.006454 0.8862 0.8862 0.8862
v -0.022429 0.103044 -0.014410 0.8862 0.8862 0.8862
v -0.014507 0.104157 -0.014410 0.8980 0.8980 0.8980
v -0.009972 0.014408 -0.005002 0.6785 0.6785 0.6785
v -0.010089 0.015236 0.002954 0.6706 0.6706 0.6706
v -0.002166 0.016350 0.002954 0.6706 0.6706 0.6706
v -0.002050 0.015522 -0.005002 0.6785 0.6785 0.6785
v -0.022545 0.103872 -0.006454 0.8313 0.8313 0.8313
v 0.013959 0.015000 0.006406 0.6706 0.6706 0.6706
v 0.005959 0.015000 0.006406 0.6824 0.6824 0.6824
v 0.005959 0.105000 0.006406 0.8902 0.8902 0.8902
v 0.013959 0.105000 0.014406 0.9058 0.9058 0.9058
v 0.005959 0.105000 0.014406 0.8980 0.8980 0.8980
v 0.013959 0.105000 0.006406 0.8902 0.8902 0.8902
v 0.013959 0.015000 0.014406 0.6745 0.6745 0.6745
v 0.005959 0.015000 0.014406 0.6902 0.6902 0.6902
v -0.000922 0.015522 -0.010345 0.6785 0.6785 0.6785
v 0.011535 0.104157 -0.000937 0.8784 0.8784 0.8784
v 0.007116 0.015236 -0.018301 0.6745 0.6745 0.6745
v 0.019573 0.103872 -0.008894 0.7764 0.7764 0.7764
v -0.000806 0.016350 -0.018301 0.6824 0.6824 0.6824
v 0.011651 0.104986 -0.008894 0.9058 0.9058 0.9058
v 0.007000 0.014408 -0.010345 0.6745 0.6745 0.6745
v 0.019457 0.103044 -0.000937 0.8627 0.8627 0.8627
v -0.000954 0.017165 -0.002247 0.6785 0.6785 0.6785
v -0.008645 0.014404 0.005578 0.6706 0.6706 0.6706
v -0.021128 0.103228 0.016465 0.8902 0.8902 0.8902
v -0.020897 0.101581 0.024290 0.8784 0.8784 0.8784
v -0.012975 0.102694 0.024290 0.8313 0.8313 0.8313
v -0.013206 0.104341 0.016465 0.9019 0.9019 0.9019
v -0.008877 0.016051 -0.002247 0.6667 0.6667 0.6667
v -0.000723 0.015517 0.005578 0.6863 0.6863 0.6863
v 0.015824 0.016378 0.010699 0.6706 0.6706 0.6706
v 0.023824 0.016378 0.010699 0.6706 0.6706 0.6706
v 0.015824 0.104411 -0.008013 0.7764 0.7764 0.7764
v 0.023824 0.014715 0.002873 0.6667 0.6667 0.6667
v 0.015824 0.014715 0.002873 0.6863 0.6863 0.6863
v 0.015824 0.102748 -0.015839 0.8745 0.8745 0.8745
v 0.023824 0.102748 -0.015839 0.8745 0.8745 0.8745
v 0.023824 0.104411 -0.008013 0.9019 0.9019 0.9019
vn -0.0000 -0.0797 0.9968
vn -0.0000 -0.0797 -0.9968
vn -0.9982 -0.0599 -0.0000
vn 0.9982 -0.0599 -0.0000
vn -0.0000 1.0000 -0.0000
vn -0.0000 -1.0000 -0.0000
vn -0.0289 0.2059 0.9781
vn 0.0289 -0.2059 -0.9781
vn -0.9903 -0.1392 -0.0000
vn 0.9903 0.1392 -0.0000
vn -0.1361 0.9686 -0.2079
vn 0.1361 -0.9686 0.2079
vn -0.0000 0.1045 0.9945
vn -0.0000 -0.1045 -0.9945
vn -1.0000 -0.0000 -0.0000
vn 1.0000 -0.0000 -0.0000
vn -0.0000 0.9945 -0.1045
vn -0.0000 -0.9945 0.1045
vn -0.0000 -0.0000 1.0000
vn -0.0000 -0.0000 -1.0000
vn -0.9903 0.1392 -0.0000
vn 0.9903 -0.1392 -0.0000
vn 0.1392 0.9903 -0.0000
vn -0.1392 -0.9903 -0.0000
vn 0.0145 -0.1035 0.9945
vn -0.0145 0.1035 -0.9945
vn -0.1384 0.9848 0.1045
vn 0.1384 -0.9848 -0.1045
vn -0.0000 -0.2079 0.9781
vn -0.0000 0.2079 -0.9781
vn -0.0000 0.9781 0.2079
vn -0.0000 -0.9781 -0.2079
vn 0.0289 0.2059 0.9781
vn -0.0289 -0.2059 -0.9781
vn 0.1361 0.9686 -0.2079
vn -0.1361 -0.9686 0.2079
vn -0.0145 0.1035 0.9945
vn 0.0145 -0.1035 -0.9945
vn -0.1384 0.9848 -0.1045
vn 0.1384 -0.9848 0.1045
vn -0.0145 -0.1035 0.9945
vn 0.0145 0.1035 -0.9945
vn 0.1384 0.9848 0.1045
vn -0.1384 -0.9848 -0.1045
vn 0.0289 -0.2059 0.9781
vn -0.0289 0.2059 -0.9781
vn -0.1361 0.9686 0.2079
vn 0.1361 -0.9686 -0.2079
vn -0.0000 0.2079 0.9781
vn -0.0000 -0.2079 -0.9781
vn -0.0000 0.9781 -0.2079
vn -0.0000 -0.9781 0.2079
vt 0.408713 0.969238
vt 0.435037 0.969238
vt 0.437012 0.999512
vt 0.406738 0.999512
vt 0.877906 0.969238
vt 0.889993 0.969238
vt 0.892411 0.999512
vt 0.875488 0.999512
vt 0.875488 0.969238
vt 0.905762 0.969238
vt 0.905762 0.987666
vt 0.875488 0.987666
vt 0.905762 0.984375
vt 0.875488 0.984375
vt 0.312988 0.922363
vt 0.314290 0.922363
vt 0.314290 0.937012
vt 0.312988 0.937012
vt 0.316738 0.922363
vt 0.316738 0.926113
vt 0.312988 0.926113
s 0
usemtl props
f 2/1/1 4/2/1 6/3/1 3/4/1
f 5/1/2 8/2/2 7/3/2 1/4/2
f 8/5/3 2/6/3 3/7/3 7/8/3
f 4/5/4 5/6/4 1/7/4 6/8/4
f 3/9/5 6/10/5 1/11/5 7/12/5
f 8/9/6 5/10/6 4/13/6 2/14/6
f 9/15/7 14/16/7 10/17/7 12/18/7
f 15/15/8 16/16/8 13/17/8 11/18/8
f 16/15/9 9/16/9 12/17/9 13/18/9
f 14/15/10 15/16/10 11/17/10 10/18/10
f 12/15/11 10/19/11 11/20/11 13/21/11
f 16/15/12 15/19/12 14/20/12 9/21/12
f 24/15/13 19/16/13 20/17/13 18/18/13
f 23/15/14 22/16/14 17/17/14 21/18/14
f 22/15/15 24/16/15 18/17/15 17/18/15
f 19/15/16 23/16/16 21/17/16 20/18/16
f 18/15/17 20/19/17 21/20/17 17/21/17
f 22/15/18 23/19/18 19/20/18 24/21/18
f 27/15/19 32/16/19 28/17/19 29/18/19
f 31/15/20 26/16/20 30/17/20 25/18/20
f 26/15/21 27/16/21 29/17/21 30/18/21
f 32/15/22 31/16/22 25/17/22 28/18/22
f 29/15/23 28/19/23 25/20/23 30/21/23
f 26/15/24 31/19/24 32/20/24 27/21/24
f 33/15/25 37/16/25 34/17/25 35/18/25
f 38/15/26 40/16/26 36/17/26 39/18/26
f 40/15/9 33/16/9 35/17/9 36/18/9
f 37/15/10 38/16/10 39/17/10 34/18/10
f 35/15/27 34/19/27 39/20/27 36/21/27
f 40/15/28 38/19/28 37/20/28 33/21/28
f 48/15/29 41/16/29 42/17/29 46/18/29
f 45/15/30 43/16/30 47/17/30 44/18/30
f 43/15/15 48/16/15 46/17/15 47/18/15
f 41/15/16 45/16/16 44/17/16 42/18/16
f 46/15/31 42/19/31 44/20/31 47/21/31
f 43/15/32 45/19/32 41/20/32 48/21/32
f 49/15/33 50/16/33 55/17/33 51/18/33
f 52/15/34 56/16/34 53/17/34 54/18/34
f 56/15/21 49/16/21 51/17/21 53/18/21
f 50/15/22 52/16/22 54/17/22 55/18/22
f 51/15/35 55/19/35 54/20/35 53/21/35
f 56/15/36 52/19/36 50/20/36 49/21/36
f 61/15/37 62/16/37 57/17/37 64/18/37
f 63/15/38 60/16/38 58/17/38 59/18/38
f 60/15/9 61/16/9 64/17/9 58/18/9
f 62/15/10 63/16/10 59/17/10 57/18/10
f 64/15/39 57/19/39 59/20/39 58/21/39
f 60/15/40 63/19/40 62/20/40 61/21/40
f 72/15/19 71/16/19 68/17/19 69/18/19
f 65/15/20 66/16/20 67/17/20 70/18/20
f 66/15/15 72/16/15 69/17/15 67/18/15
f 71/15/16 65/16/16 70/17/16 68/18/16
f 69/15/5 68/19/5 70/20/5 67/21/5
f 66/15/6 65/19/6 71/20/6 72/21/6
f 73/15/41 79/16/41 80/17/41 74/18/41
f 75/15/42 77/16/42 78/17/42 76/18/42
f 77/15/21 73/16/21 74/17/21 78/18/21
f 79/15/22 75/16/22 76/17/22 80/18/22
f 74/15/43 80/19/43 76/20/43 78/21/43
f 77/15/44 75/19/44 79/20/44 73/21/44
f 82/15/45 88/16/45 85/17/45 84/18/45
f 81/15/46 87/16/46 83/17/46 86/18/46
f 87/15/9 82/16/9 84/17/9 83/18/9
f 88/15/10 81/16/10 86/17/10 85/18/10
f 84/15/47 85/19/47 86/20/47 83/21/47
f 87/15/48 81/19/48 88/20/48 82/21/48
f 89/15/49 90/16/49 96/17/49 91/18/49
f 92/15/50 93/16/50 94/17/50 95/18/50
f 93/15/15 89/16/15 91/17/15 94/18/15
f 90/15/16 92/16/16 95/17/16 96/18/16
f 91/15/51 96/19/51 95/20/51 94/21/51
f 93/15/52 92/19/52 90/20/52 89/21/52
