# Blender 4.5.14 LTS
# www.blender.org
mtllib frying_pan_steel.mtl
o frying_pan_steel
v 0.050000 0.000000 -0.086603 0.7059 0.7059 0.7059
v 0.086603 0.000000 -0.050000 0.7020 0.7020 0.7020
v -0.050000 0.000000 -0.086603 0.7059 0.7059 0.7059
v 0.000000 0.000000 -0.100000 0.7059 0.7059 0.7059
v -0.086603 0.000000 -0.050000 0.7020 0.7020 0.7020
v 0.000000 0.000000 0.000000 0.6667 0.6667 0.6667
v 0.050000 0.000000 0.086603 0.7059 0.7059 0.7059
v 0.086603 0.000000 0.050000 0.7059 0.7059 0.7059
v 0.112583 0.045000 -0.065000 0.8941 0.8941 0.8941
v 0.130000 0.045000 0.000000 0.6667 0.6667 0.6667
v 0.065000 0.045000 -0.112583 0.8902 0.8902 0.8902
v 0.000000 0.045000 -0.130000 0.8941 0.8941 0.8941
v -0.112583 0.045000 -0.065000 0.8941 0.8941 0.8941
v -0.100000 0.000000 -0.000000 0.7020 0.7020 0.7020
v -0.086603 0.000000 0.050000 0.7020 0.7020 0.7020
v -0.050000 0.000000 0.086603 0.7020 0.7020 0.7020
v -0.065000 0.045000 0.112583 0.8941 0.8941 0.8941
v -0.000000 0.000000 0.100000 0.7059 0.7059 0.7059
v 0.100000 0.000000 0.000000 0.7020 0.7020 0.7020
v 0.062500 0.045000 -0.108253 0.9647 0.9647 0.9647
v -0.065000 0.045000 -0.112583 0.8941 0.8941 0.8941
v -0.108253 0.045000 -0.062500 0.9686 0.9686 0.9686
v -0.130000 0.045000 -0.000000 0.8941 0.8941 0.8941
v -0.125000 0.045000 -0.000000 0.9686 0.9686 0.9686
v -0.112583 0.045000 0.065000 0.8902 0.8902 0.8902
v -0.000000 0.045000 0.130000 0.8902 0.8902 0.8902
v 0.065000 0.045000 0.112583 0.8862 0.8862 0.8862
v 0.062500 0.045000 0.108253 0.9725 0.9725 0.9725
v 0.108253 0.045000 0.062500 0.9686 0.9686 0.9686
v 0.112583 0.045000 0.065000 0.8862 0.8862 0.8862
v 0.125000 0.045000 0.000000 0.9372 0.9372 0.9372
v 0.108253 0.045000 -0.062500 0.9686 0.9686 0.9686
v 0.082272 0.005000 -0.047500 0.8941 0.8941 0.8941
v 0.000000 0.045000 -0.125000 0.9607 0.9607 0.9607
v 0.047500 0.005000 -0.082272 0.8902 0.8902 0.8902
v -0.062500 0.045000 -0.108253 0.9647 0.9647 0.9647
v -0.108253 0.045000 0.062500 0.9686 0.9686 0.9686
v -0.082272 0.005000 0.047500 0.8941 0.8941 0.8941
v -0.062500 0.045000 0.108253 0.9725 0.9725 0.9725
v -0.000000 0.005000 0.095000 0.8902 0.8902 0.8902
v -0.000000 0.045000 0.125000 0.9725 0.9725 0.9725
v 0.047500 0.005000 0.082272 0.8941 0.8941 0.8941
v 0.082272 0.005000 0.047500 0.8980 0.8980 0.8980
v 0.000000 0.005000 -0.095000 0.8902 0.8902 0.8902
v -0.047500 0.005000 -0.082272 0.8862 0.8862 0.8862
v -0.082272 0.005000 -0.047500 0.8902 0.8902 0.8902
v -0.095000 0.005000 -0.000000 0.8941 0.8941 0.8941
v -0.047500 0.005000 0.082272 0.8941 0.8941 0.8941
v 0.000000 0.005000 0.000000 0.9607 0.9607 0.9607
v 0.095000 0.005000 0.000000 0.8902 0.8902 0.8902
v 0.129653 0.031970 0.013000 0.7176 0.7176 0.7176
v 0.326614 0.066699 0.013000 0.8431 0.8431 0.8431
v 0.323836 0.082456 0.013000 0.9490 0.9490 0.9490
v 0.126874 0.047727 0.013000 0.8980 0.8980 0.8980
v 0.126874 0.047727 -0.013000 0.8941 0.8941 0.8941
v 0.323836 0.082456 -0.013000 0.9490 0.9490 0.9490
v 0.129653 0.031970 -0.013000 0.7216 0.7216 0.7216
v 0.326614 0.066699 -0.013000 0.8431 0.8431 0.8431
vn -0.0000 -1.0000 -0.0000
vn 0.8321 -0.5547 -0.0000
vn 0.7206 -0.5547 -0.4160
vn 0.4160 -0.5547 -0.7206
vn -0.0000 -0.5547 -0.8321
vn -0.4160 -0.5547 -0.7206
vn -0.7206 -0.5547 -0.4160
vn -0.8321 -0.5547 -0.0000
vn -0.7206 -0.5547 0.4160
vn -0.4160 -0.5547 0.7206
vn -0.0000 -0.5547 0.8321
vn 0.4160 -0.5547 0.7206
vn 0.7206 -0.5547 0.4160
vn -0.0000 1.0000 -0.0000
vn -0.8000 0.6000 -0.0000
vn -0.6928 0.6000 0.4000
vn -0.4000 0.6000 0.6928
vn -0.0000 0.6000 0.8000
vn 0.4000 0.6000 0.6928
vn 0.6928 0.6000 0.4000
vn 0.8000 0.6000 -0.0000
vn 0.6928 0.6000 -0.4000
vn 0.4000 0.6000 -0.6928
vn -0.0000 0.6000 -0.8000
vn -0.4000 0.6000 -0.6928
vn -0.6928 0.6000 -0.4000
vn -0.0000 -0.0000 1.0000
vn -0.0000 -0.0000 -1.0000
vn -0.9848 -0.1736 -0.0000
vn 0.9848 0.1736 -0.0000
vn -0.1736 0.9848 -0.0000
vn 0.1736 -0.9848 -0.0000
vt 0.814250 0.969238
vt 0.815511 0.988886
vt 0.812988 0.988886
vt 0.816772 0.969238
vt 0.818034 0.988886
vt 0.819295 0.969238
vt 0.820557 0.988886
vt 0.821818 0.969238
vt 0.823079 0.988886
vt 0.824341 0.969238
vt 0.825602 0.988886
vt 0.826864 0.969238
vt 0.828125 0.988886
vt 0.829386 0.969238
vt 0.830648 0.988886
vt 0.831909 0.969238
vt 0.833171 0.988886
vt 0.834432 0.969238
vt 0.835693 0.988886
vt 0.836955 0.969238
vt 0.838216 0.988886
vt 0.839478 0.969238
vt 0.840739 0.988886
vt 0.842000 0.969238
vt 0.843262 0.988886
vt 0.815511 0.999512
vt 0.812988 0.999512
vt 0.818034 0.999512
vt 0.820557 0.999512
vt 0.823079 0.999512
vt 0.825602 0.999512
vt 0.828125 0.999512
vt 0.830648 0.999512
vt 0.833171 0.999512
vt 0.835693 0.999512
vt 0.838216 0.999512
vt 0.840739 0.999512
vt 0.843262 0.999512
vt 0.094238 0.906738
vt 0.096761 0.906738
vt 0.096761 0.907747
vt 0.094238 0.907747
vt 0.099284 0.906738
vt 0.099284 0.907747
vt 0.101807 0.906738
vt 0.101807 0.907747
vt 0.104329 0.906738
vt 0.104329 0.907747
vt 0.106852 0.906738
vt 0.106852 0.907747
vt 0.109375 0.906738
vt 0.109375 0.907747
vt 0.111898 0.906738
vt 0.111898 0.907747
vt 0.114421 0.906738
vt 0.114421 0.907747
vt 0.116943 0.906738
vt 0.116943 0.907747
vt 0.119466 0.906738
vt 0.119466 0.907747
vt 0.121989 0.906738
vt 0.121989 0.907747
vt 0.124512 0.906738
vt 0.124512 0.907747
vt 0.096761 0.917839
vt 0.094238 0.917839
vt 0.099284 0.917839
vt 0.101807 0.917839
vt 0.104329 0.917839
vt 0.106852 0.917839
vt 0.109375 0.917839
vt 0.111898 0.917839
vt 0.114421 0.917839
vt 0.116943 0.917839
vt 0.119466 0.917839
vt 0.121989 0.917839
vt 0.124512 0.917839
vt 0.095500 0.937012
vt 0.098022 0.937012
vt 0.100545 0.937012
vt 0.103068 0.937012
vt 0.105591 0.937012
vt 0.108114 0.937012
vt 0.110636 0.937012
vt 0.113159 0.937012
vt 0.115682 0.937012
vt 0.118205 0.937012
vt 0.120728 0.937012
vt 0.123250 0.937012
vt 0.250488 0.969238
vt 0.280762 0.969238
vt 0.280762 0.971660
vt 0.250488 0.971660
vt 0.263082 0.969238
vt 0.263082 0.976988
vt 0.250488 0.976988
vt 0.280762 0.973174
vt 0.250488 0.973174
s 1
usemtl props
f 6/1/1 2/2/1 19/3/1
f 6/4/1 1/5/1 2/2/1
f 6/6/1 4/7/1 1/5/1
f 6/8/1 3/9/1 4/7/1
f 6/10/1 5/11/1 3/9/1
f 6/12/1 14/13/1 5/11/1
f 6/14/1 15/15/1 14/13/1
f 6/16/1 16/17/1 15/15/1
f 6/18/1 18/19/1 16/17/1
f 6/20/1 7/21/1 18/19/1
f 6/22/1 8/23/1 7/21/1
f 6/24/1 19/25/1 8/23/1
f 19/3/2 2/2/3 9/26/3 10/27/2
f 2/2/3 1/5/4 11/28/4 9/26/3
f 1/5/4 4/7/5 12/29/5 11/28/4
f 4/7/5 3/9/6 21/30/6 12/29/5
f 3/9/6 5/11/7 13/31/7 21/30/6
f 5/11/7 14/13/8 23/32/8 13/31/7
f 14/13/8 15/15/9 25/33/9 23/32/8
f 15/15/9 16/17/10 17/34/10 25/33/9
f 16/17/10 18/19/11 26/35/11 17/34/10
f 18/19/11 7/21/12 27/36/12 26/35/11
f 7/21/12 8/23/13 30/37/13 27/36/12
f 8/23/13 19/25/2 10/38/2 30/37/13
f 10/39/14 9/40/14 32/41/14 31/42/14
f 9/40/14 11/43/14 20/44/14 32/41/14
f 11/43/14 12/45/14 34/46/14 20/44/14
f 12/45/14 21/47/14 36/48/14 34/46/14
f 21/47/14 13/49/14 22/50/14 36/48/14
f 13/49/14 23/51/14 24/52/14 22/50/14
f 23/51/14 25/53/14 37/54/14 24/52/14
f 25/53/14 17/55/14 39/56/14 37/54/14
f 17/55/14 26/57/14 41/58/14 39/56/14
f 26/57/14 27/59/14 28/60/14 41/58/14
f 27/59/14 30/61/14 29/62/14 28/60/14
f 30/61/14 10/63/14 31/64/14 29/62/14
f 31/42/15 32/41/16 33/65/16 50/66/15
f 32/41/16 20/44/17 35/67/17 33/65/16
f 20/44/17 34/46/18 44/68/18 35/67/17
f 34/46/18 36/48/19 45/69/19 44/68/18
f 36/48/19 22/50/20 46/70/20 45/69/19
f 22/50/20 24/52/21 47/71/21 46/70/20
f 24/52/21 37/54/22 38/72/22 47/71/21
f 37/54/22 39/56/23 48/73/23 38/72/22
f 39/56/23 41/58/24 40/74/24 48/73/23
f 41/58/24 28/60/25 42/75/25 40/74/24
f 28/60/25 29/62/26 43/76/26 42/75/25
f 29/62/26 31/64/15 50/77/15 43/76/26
f 50/66/14 33/65/14 49/78/14
f 33/65/14 35/67/14 49/79/14
f 35/67/14 44/68/14 49/80/14
f 44/68/14 45/69/14 49/81/14
f 45/69/14 46/70/14 49/82/14
f 46/70/14 47/71/14 49/83/14
f 47/71/14 38/72/14 49/84/14
f 38/72/14 48/73/14 49/85/14
f 48/73/14 40/74/14 49/86/14
f 40/74/14 42/75/14 49/87/14
f 42/75/14 43/76/14 49/88/14
f 43/76/14 50/77/14 49/89/14
s 0
f 51/90/27 52/91/27 53/92/27 54/93/27
f 58/90/28 57/91/28 55/92/28 56/93/28
f 57/90/29 51/94/29 54/95/29 55/96/29
f 52/90/30 58/94/30 56/95/30 53/96/30
f 54/90/31 53/91/31 56/97/31 55/98/31
f 57/90/32 58/91/32 52/97/32 51/98/32
