# Blender 4.5.14 LTS
# www.blender.org
mtllib jar_jam.mtl
o jar_jam
v 0.012361 0.000000 -0.038042 0.7490 0.7490 0.7490
v -0.032361 0.000000 -0.023511 0.7490 0.7490 0.7490
v -0.012361 0.000000 -0.038042 0.7490 0.7490 0.7490
v -0.040000 0.000000 -0.000000 0.7451 0.7451 0.7451
v -0.032361 0.000000 0.023511 0.7451 0.7451 0.7451
v 0.000000 0.000000 0.000000 0.6667 0.6667 0.6667
v 0.012361 0.000000 0.038042 0.7490 0.7490 0.7490
v 0.040000 0.000000 0.000000 0.7529 0.7529 0.7529
v 0.032361 0.000000 0.023511 0.7490 0.7490 0.7490
v 0.032361 0.000000 -0.023511 0.7529 0.7529 0.7529
v 0.032361 0.096000 -0.023511 1.0000 1.0000 1.0000
v 0.040000 0.096000 0.000000 0.9960 0.9960 0.9960
v -0.012361 0.096000 -0.038042 0.9960 0.9960 0.9960
v -0.012361 0.096000 0.038042 0.9960 0.9960 0.9960
v -0.032361 0.096000 0.023511 0.9960 0.9960 0.9960
v -0.012361 0.000000 0.038042 0.7490 0.7490 0.7490
v 0.012361 0.096000 -0.038042 0.9960 0.9960 0.9960
v -0.032361 0.096000 -0.023511 0.9960 0.9960 0.9960
v -0.040000 0.096000 -0.000000 0.9960 0.9960 0.9960
v 0.012361 0.096000 0.038042 0.9960 0.9960 0.9960
v 0.025889 0.110400 0.018809 0.9529 0.9529 0.9529
v 0.032361 0.096000 0.023511 0.9960 0.9960 0.9960
v 0.032000 0.110400 0.000000 0.9490 0.9490 0.9490
v 0.032000 0.120000 0.000000 0.6667 0.6667 0.6667
v 0.025889 0.110400 -0.018809 0.9529 0.9529 0.9529
v 0.009889 0.120000 -0.030434 0.6667 0.6667 0.6667
v 0.025889 0.120000 -0.018809 0.6667 0.6667 0.6667
v 0.009889 0.110400 -0.030434 0.9529 0.9529 0.9529
v -0.009889 0.110400 -0.030434 0.9529 0.9529 0.9529
v -0.025889 0.120000 -0.018809 0.6667 0.6667 0.6667
v -0.009889 0.120000 -0.030434 0.6667 0.6667 0.6667
v -0.025889 0.110400 -0.018809 0.9529 0.9529 0.9529
v -0.032000 0.110400 -0.000000 0.9529 0.9529 0.9529
v -0.025889 0.110400 0.018809 0.9568 0.9568 0.9568
v -0.025889 0.120000 0.018809 0.6667 0.6667 0.6667
v -0.032000 0.120000 -0.000000 0.6667 0.6667 0.6667
v -0.009889 0.110400 0.030434 0.9568 0.9568 0.9568
v -0.009889 0.120000 0.030434 0.6667 0.6667 0.6667
v 0.009889 0.110400 0.030434 0.9529 0.9529 0.9529
v 0.009889 0.120000 0.030434 0.6667 0.6667 0.6667
v 0.025889 0.120000 0.018809 0.6667 0.6667 0.6667
v 0.030743 0.092000 -0.022336 0.6667 0.6667 0.6667
v 0.038000 0.092000 0.000000 0.6667 0.6667 0.6667
v 0.030743 0.002000 -0.022336 0.6667 0.6667 0.6667
v 0.011743 0.002000 -0.036140 0.6667 0.6667 0.6667
v -0.011743 0.092000 -0.036140 0.6667 0.6667 0.6667
v 0.011743 0.092000 -0.036140 0.6667 0.6667 0.6667
v -0.011743 0.002000 -0.036140 0.6667 0.6667 0.6667
v -0.030743 0.002000 0.022336 0.6667 0.6667 0.6667
v -0.011743 0.002000 0.036140 0.6667 0.6667 0.6667
v 0.011743 0.002000 0.036140 0.6667 0.6667 0.6667
v 0.030743 0.002000 0.022336 0.6667 0.6667 0.6667
v 0.030743 0.092000 0.022336 0.6667 0.6667 0.6667
v 0.038000 0.002000 0.000000 0.6667 0.6667 0.6667
v -0.030743 0.092000 -0.022336 0.6667 0.6667 0.6667
v -0.038000 0.092000 -0.000000 0.6667 0.6667 0.6667
v -0.030743 0.092000 0.022336 0.6667 0.6667 0.6667
v -0.011743 0.092000 0.036140 0.6667 0.6667 0.6667
v 0.011743 0.092000 0.036140 0.6667 0.6667 0.6667
v -0.038000 0.002000 -0.000000 0.6667 0.6667 0.6667
v -0.030743 0.002000 -0.022336 0.6667 0.6667 0.6667
v 0.033574 0.021600 -0.024393 0.9098 0.9098 0.9098
v 0.033574 0.075600 -0.024393 1.0000 1.0000 1.0000
v 0.041500 0.075600 0.000000 1.0000 1.0000 1.0000
v 0.012824 0.021600 -0.039469 0.9098 0.9098 0.9098
v -0.012824 0.075600 -0.039469 1.0000 1.0000 1.0000
v 0.012824 0.075600 -0.039469 1.0000 1.0000 1.0000
v -0.012824 0.021600 -0.039469 0.9098 0.9098 0.9098
v -0.033574 0.021600 -0.024393 0.9098 0.9098 0.9098
v -0.033574 0.075600 -0.024393 1.0000 1.0000 1.0000
v -0.041500 0.021600 -0.000000 0.9176 0.9176 0.9176
v -0.041500 0.075600 -0.000000 1.0000 1.0000 1.0000
v -0.033574 0.021600 0.024393 0.9137 0.9137 0.9137
v -0.012824 0.075600 0.039469 1.0000 1.0000 1.0000
v -0.033574 0.075600 0.024393 1.0000 1.0000 1.0000
v -0.012824 0.021600 0.039469 0.9098 0.9098 0.9098
v 0.012824 0.021600 0.039469 0.9098 0.9098 0.9098
v 0.033574 0.075600 0.024393 1.0000 1.0000 1.0000
v 0.012824 0.075600 0.039469 1.0000 1.0000 1.0000
v 0.033574 0.021600 0.024393 0.9137 0.9137 0.9137
v 0.041500 0.021600 0.000000 0.9137 0.9137 0.9137
vn -0.0000 -1.0000 -0.0000
vn 1.0000 -0.0000 -0.0000
vn 0.8090 -0.0000 -0.5878
vn 0.7854 0.2396 -0.5707
vn 0.9709 0.2396 -0.0000
vn 0.3090 -0.0000 -0.9511
vn 0.3000 0.2396 -0.9233
vn -0.3090 -0.0000 -0.9511
vn -0.3000 0.2396 -0.9233
vn -0.8090 -0.0000 -0.5878
vn -0.7854 0.2396 -0.5707
vn -1.0000 -0.0000 -0.0000
vn -0.9709 0.2396 -0.0000
vn -0.8090 -0.0000 0.5878
vn -0.7854 0.2396 0.5707
vn -0.3090 -0.0000 0.9511
vn -0.3000 0.2396 0.9233
vn 0.3090 -0.0000 0.9511
vn 0.3000 0.2396 0.9233
vn 0.8090 -0.0000 0.5878
vn 0.7854 0.2396 0.5707
vn 0.7804 0.2637 -0.5670
vn 0.9646 0.2637 -0.0000
vn 0.2981 0.2637 -0.9174
vn -0.2981 0.2637 -0.9174
vn -0.7804 0.2637 -0.5670
vn -0.9646 0.2637 -0.0000
vn -0.7804 0.2637 0.5670
vn -0.2981 0.2637 0.9174
vn 0.2981 0.2637 0.9174
vn 0.7804 0.2637 0.5670
vn -0.0000 1.0000 -0.0000
vt 0.439502 0.969238
vt 0.441016 0.976710
vt 0.437988 0.976710
vt 0.442529 0.969238
vt 0.444043 0.976710
vt 0.445557 0.969238
vt 0.447070 0.976710
vt 0.448584 0.969238
vt 0.450098 0.976710
vt 0.451611 0.969238
vt 0.453125 0.976710
vt 0.454639 0.969238
vt 0.456152 0.976710
vt 0.457666 0.969238
vt 0.459180 0.976710
vt 0.460693 0.969238
vt 0.462207 0.976710
vt 0.463721 0.969238
vt 0.465234 0.976710
vt 0.466748 0.969238
vt 0.468262 0.976710
vt 0.441016 0.994642
vt 0.437988 0.994642
vt 0.444043 0.994642
vt 0.447070 0.994642
vt 0.450098 0.994642
vt 0.453125 0.994642
vt 0.456152 0.994642
vt 0.459180 0.994642
vt 0.462207 0.994642
vt 0.465234 0.994642
vt 0.468262 0.994642
vt 0.441016 0.997719
vt 0.437988 0.997719
vt 0.444043 0.997719
vt 0.447070 0.997719
vt 0.450098 0.997719
vt 0.453125 0.997719
vt 0.456152 0.997719
vt 0.459180 0.997719
vt 0.462207 0.997719
vt 0.465234 0.997719
vt 0.468262 0.997719
vt 0.441016 0.999512
vt 0.437988 0.999512
vt 0.444043 0.999512
vt 0.447070 0.999512
vt 0.450098 0.999512
vt 0.453125 0.999512
vt 0.456152 0.999512
vt 0.459180 0.999512
vt 0.462207 0.999512
vt 0.465234 0.999512
vt 0.468262 0.999512
vt 0.500488 0.969238
vt 0.503516 0.969238
vt 0.503516 0.999512
vt 0.500488 0.999512
vt 0.506543 0.969238
vt 0.506543 0.999512
vt 0.509570 0.969238
vt 0.509570 0.999512
vt 0.512598 0.969238
vt 0.512598 0.999512
vt 0.515625 0.969238
vt 0.515625 0.999512
vt 0.518652 0.969238
vt 0.518652 0.999512
vt 0.521680 0.969238
vt 0.521680 0.999512
vt 0.524707 0.969238
vt 0.524707 0.999512
vt 0.527734 0.969238
vt 0.527734 0.999512
vt 0.530762 0.969238
vt 0.530762 0.999512
vt 0.530762 0.984375
vt 0.527871 0.993730
vt 0.520302 0.999512
vt 0.510948 0.999512
vt 0.503379 0.993730
vt 0.500488 0.984375
vt 0.503379 0.975020
vt 0.510948 0.969238
vt 0.520302 0.969238
vt 0.527871 0.975020
vt 0.187988 0.969238
vt 0.194141 0.969238
vt 0.194141 0.999512
vt 0.187988 0.999512
vt 0.200293 0.969238
vt 0.200293 0.999512
vt 0.206445 0.969238
vt 0.206445 0.999512
vt 0.212598 0.969238
vt 0.212598 0.999512
vt 0.218750 0.969238
vt 0.218750 0.999512
vt 0.224902 0.969238
vt 0.224902 0.999512
vt 0.231055 0.969238
vt 0.231055 0.999512
vt 0.237207 0.969238
vt 0.237207 0.999512
vt 0.243359 0.969238
vt 0.243359 0.999512
vt 0.249512 0.969238
vt 0.249512 0.999512
s 1
usemtl props
f 6/1/1 10/2/1 8/3/1
f 6/4/1 1/5/1 10/2/1
f 6/6/1 3/7/1 1/5/1
f 6/8/1 2/9/1 3/7/1
f 6/10/1 4/11/1 2/9/1
f 6/12/1 5/13/1 4/11/1
f 6/14/1 16/15/1 5/13/1
f 6/16/1 7/17/1 16/15/1
f 6/18/1 9/19/1 7/17/1
f 6/20/1 8/21/1 9/19/1
f 8/3/2 10/2/3 11/22/4 12/23/5
f 10/2/3 1/5/6 17/24/7 11/22/4
f 1/5/6 3/7/8 13/25/9 17/24/7
f 3/7/8 2/9/10 18/26/11 13/25/9
f 2/9/10 4/11/12 19/27/13 18/26/11
f 4/11/12 5/13/14 15/28/15 19/27/13
f 5/13/14 16/15/16 14/29/17 15/28/15
f 16/15/16 7/17/18 20/30/19 14/29/17
f 7/17/18 9/19/20 22/31/21 20/30/19
f 9/19/20 8/21/2 12/32/5 22/31/21
f 12/23/5 11/22/4 25/33/22 23/34/23
f 11/22/4 17/24/7 28/35/24 25/33/22
f 17/24/7 13/25/9 29/36/25 28/35/24
f 13/25/9 18/26/11 32/37/26 29/36/25
f 18/26/11 19/27/13 33/38/27 32/37/26
f 19/27/13 15/28/15 34/39/28 33/38/27
f 15/28/15 14/29/17 37/40/29 34/39/28
f 14/29/17 20/30/19 39/41/30 37/40/29
f 20/30/19 22/31/21 21/42/31 39/41/30
f 22/31/21 12/32/5 23/43/23 21/42/31
f 23/34/23 25/33/22 27/44/3 24/45/2
f 25/33/22 28/35/24 26/46/6 27/44/3
f 28/35/24 29/36/25 31/47/8 26/46/6
f 29/36/25 32/37/26 30/48/10 31/47/8
f 32/37/26 33/38/27 36/49/12 30/48/10
f 33/38/27 34/39/28 35/50/14 36/49/12
f 34/39/28 37/40/29 38/51/16 35/50/14
f 37/40/29 39/41/30 40/52/18 38/51/16
f 39/41/30 21/42/31 41/53/20 40/52/18
f 21/42/31 23/43/23 24/54/2 41/53/20
f 54/55/2 44/56/3 42/57/3 43/58/2
f 44/56/3 45/59/6 47/60/6 42/57/3
f 45/59/6 48/61/8 46/62/8 47/60/6
f 48/61/8 61/63/10 55/64/10 46/62/8
f 61/63/10 60/65/12 56/66/12 55/64/10
f 60/65/12 49/67/14 57/68/14 56/66/12
f 49/67/14 50/69/16 58/70/16 57/68/14
f 50/69/16 51/71/18 59/72/18 58/70/16
f 51/71/18 52/73/20 53/74/20 59/72/18
f 52/73/20 54/75/2 43/76/2 53/74/20
s 0
f 43/77/32 42/78/32 47/79/32 46/80/32 55/81/32 56/82/32 57/83/32 58/84/32 59/85/32 53/86/32
f 52/78/1 51/79/1 50/80/1 49/81/1 60/82/1 61/83/1 48/84/1 45/85/1 44/86/1 54/77/1
s 1
f 81/87/2 62/88/3 63/89/3 64/90/2
f 62/88/3 65/91/6 67/92/6 63/89/3
f 65/91/6 68/93/8 66/94/8 67/92/6
f 68/93/8 69/95/10 70/96/10 66/94/8
f 69/95/10 71/97/12 72/98/12 70/96/10
f 71/97/12 73/99/14 75/100/14 72/98/12
f 73/99/14 76/101/16 74/102/16 75/100/14
f 76/101/16 77/103/18 79/104/18 74/102/16
f 77/103/18 80/105/20 78/106/20 79/104/18
f 80/105/20 81/107/2 64/108/2 78/106/20
o jar_jam_lid
v 0.033600 0.112000 0.000000 0.9255 0.9255 0.9255
v 0.027183 0.112000 -0.019750 0.9294 0.9294 0.9294
v 0.033600 0.132000 0.000000 1.0000 1.0000 1.0000
v 0.010383 0.112000 -0.031955 0.9294 0.9294 0.9294
v 0.027183 0.132000 -0.019750 1.0000 1.0000 1.0000
v -0.010383 0.112000 -0.031955 0.9255 0.9255 0.9255
v -0.027183 0.112000 -0.019750 0.9255 0.9255 0.9255
v -0.010383 0.132000 -0.031955 1.0000 1.0000 1.0000
v -0.027183 0.132000 -0.019750 1.0000 1.0000 1.0000
v -0.010383 0.132000 0.031955 0.9960 0.9960 0.9960
v -0.027183 0.132000 0.019750 1.0000 1.0000 1.0000
v 0.010383 0.132000 0.031955 0.9960 0.9960 0.9960
v 0.010383 0.112000 0.031955 0.9255 0.9255 0.9255
v 0.027183 0.132000 0.019750 0.9960 0.9960 0.9960
v 0.010383 0.132000 -0.031955 1.0000 1.0000 1.0000
v -0.033600 0.132000 -0.000000 1.0000 1.0000 1.0000
v 0.027183 0.112000 0.019750 0.9215 0.9215 0.9215
v -0.010383 0.112000 0.031955 0.9176 0.9176 0.9176
v -0.027183 0.112000 0.019750 0.9294 0.9294 0.9294
v -0.033600 0.112000 -0.000000 0.9294 0.9294 0.9294
vn 1.0000 -0.0000 -0.0000
vn 0.8090 -0.0000 -0.5878
vn 0.3090 -0.0000 -0.9511
vn -0.3090 -0.0000 -0.9511
vn -0.8090 -0.0000 -0.5878
vn -1.0000 -0.0000 -0.0000
vn -0.8090 -0.0000 0.5878
vn -0.3090 -0.0000 0.9511
vn 0.3090 -0.0000 0.9511
vn 0.8090 -0.0000 0.5878
vn -0.0000 1.0000 -0.0000
vn -0.0000 -1.0000 -0.0000
vt 0.031738 0.906738
vt 0.034766 0.906738
vt 0.034766 0.937012
vt 0.031738 0.937012
vt 0.037793 0.906738
vt 0.037793 0.937012
vt 0.040820 0.906738
vt 0.040820 0.937012
vt 0.043848 0.906738
vt 0.043848 0.937012
vt 0.046875 0.906738
vt 0.046875 0.937012
vt 0.049902 0.906738
vt 0.049902 0.937012
vt 0.052930 0.906738
vt 0.052930 0.937012
vt 0.055957 0.906738
vt 0.055957 0.937012
vt 0.058984 0.906738
vt 0.058984 0.937012
vt 0.062012 0.906738
vt 0.062012 0.937012
vt 0.358887 0.929688
vt 0.357488 0.934214
vt 0.353826 0.937012
vt 0.349299 0.937012
vt 0.345637 0.934214
vt 0.344238 0.929688
vt 0.345637 0.925161
vt 0.349299 0.922363
vt 0.353826 0.922363
vt 0.357488 0.925161
vt 0.059121 0.931230
vt 0.051553 0.937012
vt 0.042197 0.937012
vt 0.034629 0.931230
vt 0.031738 0.921875
vt 0.034629 0.912520
vt 0.042197 0.906738
vt 0.051553 0.906738
vt 0.059121 0.912520
vt 0.062012 0.921875
s 1
usemtl props
f 82/109/33 83/110/34 86/111/34 84/112/33
f 83/110/34 85/113/35 96/114/35 86/111/34
f 85/113/35 87/115/36 89/116/36 96/114/35
f 87/115/36 88/117/37 90/118/37 89/116/36
f 88/117/37 101/119/38 97/120/38 90/118/37
f 101/119/38 100/121/39 92/122/39 97/120/38
f 100/121/39 99/123/40 91/124/40 92/122/39
f 99/123/40 94/125/41 93/126/41 91/124/40
f 94/125/41 98/127/42 95/128/42 93/126/41
f 98/127/42 82/129/33 84/130/33 95/128/42
s 0
f 84/131/43 86/132/43 96/133/43 89/134/43 90/135/43 97/136/43 92/137/43 91/138/43 93/139/43 95/140/43
f 98/141/44 94/142/44 99/143/44 100/144/44 101/145/44 88/146/44 87/147/44 85/148/44 83/149/44 82/150/44
