# Blender 4.5.14 LTS
# www.blender.org
mtllib microwave.mtl
o microwave
v -0.260000 0.320000 -0.210000 1.0000 1.0000 1.0000
v -0.260000 0.000000 0.210000 0.7490 0.7490 0.7490
v 0.260000 0.000000 -0.210000 0.7804 0.7804 0.7804
v 0.260000 0.320000 -0.210000 1.0000 1.0000 1.0000
v -0.260000 0.320000 0.210000 1.0000 1.0000 1.0000
v -0.260000 0.000000 -0.210000 0.7764 0.7764 0.7764
v 0.120000 0.000000 0.190000 0.6980 0.6980 0.6980
v 0.120000 0.000000 0.210000 0.7176 0.7176 0.7176
v 0.120000 0.320000 0.210000 0.9058 0.9058 0.9058
v 0.120000 0.320000 0.190000 0.8117 0.8117 0.8117
v 0.260000 0.000000 0.190000 0.7490 0.7490 0.7490
v 0.260000 0.320000 0.190000 0.9137 0.9137 0.9137
v 0.260000 0.320000 0.210000 1.0000 1.0000 1.0000
v 0.260000 0.000000 0.210000 0.7686 0.7686 0.7686
v 0.100000 0.020000 -0.180000 0.6863 0.6863 0.6863
v -0.240000 0.020000 -0.180000 0.6667 0.6667 0.6667
v 0.100000 0.300000 -0.180000 0.6824 0.6824 0.6824
v -0.240000 0.300000 -0.180000 0.6667 0.6667 0.6667
v -0.240000 0.020000 -0.175000 0.6667 0.6667 0.6667
v -0.235000 0.025000 -0.174950 0.7451 0.7451 0.7451
v 0.095000 0.025000 -0.174950 0.7451 0.7451 0.7451
v 0.095000 0.295000 -0.174950 0.7568 0.7568 0.7568
v -0.235000 0.295000 -0.174950 0.7568 0.7568 0.7568
v 0.100000 0.020000 0.200000 0.6824 0.6824 0.6824
v 0.100000 0.020000 -0.175000 0.6902 0.6902 0.6902
v -0.240000 0.025000 0.200000 0.6745 0.6745 0.6745
v -0.240000 0.020000 0.200000 0.6745 0.6745 0.6745
v -0.240000 0.295000 0.200000 0.6824 0.6824 0.6824
v 0.100000 0.300000 0.200000 0.7098 0.7098 0.7098
v 0.100000 0.300000 -0.175000 0.6863 0.6863 0.6863
v -0.240000 0.295000 -0.175000 0.6667 0.6667 0.6667
v -0.240000 0.300000 -0.175000 0.6667 0.6667 0.6667
v 0.100000 0.295000 0.200000 0.6941 0.6941 0.6941
v -0.240000 0.300000 0.200000 0.6980 0.6980 0.6980
v -0.235000 0.025000 -0.175000 0.6902 0.6902 0.6902
v -0.240000 0.025000 -0.175000 0.6667 0.6667 0.6667
v -0.235000 0.025000 0.200000 0.7020 0.7020 0.7020
v -0.235000 0.295000 -0.175000 0.6941 0.6941 0.6941
v -0.235000 0.295000 0.200000 0.7020 0.7020 0.7020
v 0.095000 0.025000 0.200000 0.6980 0.6980 0.6980
v 0.095000 0.295000 0.200000 0.7059 0.7059 0.7059
v 0.095000 0.295000 -0.175000 0.6941 0.6941 0.6941
v 0.095000 0.025000 -0.175000 0.6902 0.6902 0.6902
v 0.100000 0.295000 -0.175000 0.6863 0.6863 0.6863
v 0.100000 0.025000 -0.175000 0.6863 0.6863 0.6863
v 0.100000 0.025000 0.200000 0.6824 0.6824 0.6824
vn -0.0000 -0.0000 -1.0000
vn -1.0000 -0.0000 -0.0000
vn 1.0000 -0.0000 -0.0000
vn -0.0000 1.0000 -0.0000
vn -0.0000 -1.0000 -0.0000
vn -0.0000 -0.0000 1.0000
vt 0.937988 0.969238
vt 0.968262 0.969238
vt 0.968262 0.987868
vt 0.937988 0.987868
vt 0.968262 0.992304
vt 0.937988 0.992304
vt 0.968262 0.993690
vt 0.937988 0.993690
vt 0.250488 0.906738
vt 0.265137 0.906738
vt 0.265137 0.937012
vt 0.250488 0.937012
vt 0.951233 0.969238
vt 0.951233 0.999512
vt 0.937988 0.999512
vt 0.939880 0.969238
vt 0.939880 0.999512
vt 0.968262 0.973563
vt 0.937988 0.973563
vt 0.968262 0.994169
vt 0.937988 0.994169
vt 0.938529 0.969238
vt 0.938529 0.999512
vt 0.968262 0.969683
vt 0.937988 0.969683
vt 0.359863 0.922363
vt 0.374512 0.922363
vt 0.374512 0.934348
vt 0.359863 0.934348
vt 0.968262 0.969642
vt 0.937988 0.969642
vt 0.373145 0.922363
vt 0.373145 0.937012
vt 0.359863 0.937012
vt 0.965436 0.969238
vt 0.965436 0.999512
vt 0.938549 0.969238
vt 0.938549 0.999512
vt 0.968262 0.991035
vt 0.937988 0.991035
vt 0.374512 0.932910
vt 0.359863 0.932910
vt 0.938392 0.969238
vt 0.938392 0.999512
s 0
usemtl props
f 3/1/1 6/2/1 1/3/1 4/4/1
f 6/1/2 2/2/2 5/5/2 1/6/2
f 14/1/3 3/2/3 4/5/3 13/6/3
f 5/1/4 13/2/4 4/7/4 1/8/4
f 6/1/5 3/2/5 14/7/5 2/8/5
f 8/9/6 14/10/6 13/11/6 9/12/6
f 11/1/1 7/13/1 10/14/1 12/15/1
f 7/1/2 8/16/2 9/17/2 10/15/2
f 14/1/3 11/16/3 12/17/3 13/15/3
f 9/1/4 13/2/4 12/18/4 10/19/4
f 7/1/5 11/2/5 14/18/5 8/19/5
f 15/1/1 16/2/1 18/20/1 17/21/1
f 16/1/2 19/22/2 32/23/2 18/15/2
f 25/1/3 15/22/3 17/23/3 30/15/3
f 32/1/4 30/2/4 17/24/4 18/25/4
f 16/1/5 15/2/5 25/24/5 19/25/5
f 20/26/6 21/27/6 22/28/6 23/29/6
f 27/1/6 24/2/6 46/24/6 26/25/6
f 25/1/1 19/2/1 36/24/1 45/25/1
f 19/1/2 27/2/2 26/30/2 36/31/2
f 24/1/3 25/2/3 45/30/3 46/31/3
f 26/26/4 46/32/4 45/33/4 36/34/4
f 19/1/5 25/35/5 24/36/5 27/15/5
f 28/1/6 33/2/6 29/24/6 34/25/6
f 44/1/1 31/2/1 32/24/1 30/25/1
f 31/1/2 28/2/2 34/30/2 32/31/2
f 33/1/3 44/2/3 30/30/3 29/31/3
f 34/1/4 29/35/4 30/36/4 32/15/4
f 31/26/5 44/32/5 33/33/5 28/34/5
f 26/1/6 37/37/6 39/38/6 28/15/6
f 35/1/1 36/37/1 31/38/1 38/15/1
f 36/1/2 26/2/2 28/39/2 31/40/2
f 37/26/3 35/27/3 38/41/3 39/42/3
f 28/1/4 39/43/4 38/44/4 31/15/4
f 36/1/5 35/43/5 37/44/5 26/15/5
f 40/1/6 46/37/6 33/38/6 41/15/6
f 45/1/1 43/37/1 42/38/1 44/15/1
f 43/26/2 40/27/2 41/41/2 42/42/2
f 46/1/3 45/2/3 44/39/3 33/40/3
f 41/1/4 33/43/4 44/44/4 42/15/4
f 43/1/5 45/43/5 46/44/5 40/15/5
o microwave_plate
v 0.060000 0.030000 0.000000 0.6667 0.6667 0.6667
v 0.042583 0.030000 -0.065000 0.6667 0.6667 0.6667
v 0.060000 0.038000 0.000000 0.7294 0.7294 0.7294
v -0.005000 0.030000 -0.112583 0.6706 0.6706 0.6706
v 0.042583 0.038000 -0.065000 0.7176 0.7176 0.7176
v -0.070000 0.038000 -0.130000 0.7255 0.7255 0.7255
v -0.135000 0.030000 -0.112583 0.6667 0.6667 0.6667
v -0.182583 0.030000 -0.065000 0.6667 0.6667 0.6667
v -0.182583 0.038000 0.065000 0.7451 0.7451 0.7451
v -0.005000 0.030000 0.112583 0.7059 0.7059 0.7059
v -0.005000 0.038000 -0.112583 0.7255 0.7255 0.7255
v -0.135000 0.038000 -0.112583 0.7216 0.7216 0.7216
v -0.182583 0.038000 -0.065000 0.7216 0.7216 0.7216
v -0.200000 0.038000 -0.000000 0.7294 0.7294 0.7294
v -0.135000 0.038000 0.112583 0.7921 0.7921 0.7921
v -0.070000 0.038000 0.130000 0.8196 0.8196 0.8196
v -0.005000 0.038000 0.112583 0.7882 0.7882 0.7882
v 0.042583 0.038000 0.065000 0.7490 0.7490 0.7490
v 0.042583 0.030000 0.065000 0.6824 0.6824 0.6824
v -0.070000 0.030000 0.130000 0.7216 0.7216 0.7216
v -0.135000 0.030000 0.112583 0.7059 0.7059 0.7059
v -0.182583 0.030000 0.065000 0.6745 0.6745 0.6745
v -0.200000 0.030000 -0.000000 0.6667 0.6667 0.6667
v -0.070000 0.030000 -0.130000 0.6706 0.6706 0.6706
v -0.020503 0.038000 -0.049497 0.6824 0.6824 0.6824
v 0.000000 0.068000 0.000000 0.7686 0.7686 0.7686
v -0.070000 0.038000 -0.070000 0.6824 0.6824 0.6824
v -0.020503 0.068000 -0.049497 0.7568 0.7568 0.7568
v -0.119497 0.038000 -0.049497 0.6785 0.6785 0.6785
v -0.070000 0.068000 -0.070000 0.7647 0.7647 0.7647
v -0.119497 0.068000 -0.049497 0.7529 0.7529 0.7529
v -0.119497 0.068000 0.049497 0.8000 0.8000 0.8000
v -0.140000 0.068000 -0.000000 0.7725 0.7725 0.7725
v -0.119497 0.038000 0.049497 0.7059 0.7059 0.7059
v -0.070000 0.038000 0.070000 0.7412 0.7412 0.7412
v -0.020503 0.068000 0.049497 0.8039 0.8039 0.8039
v -0.070000 0.068000 0.070000 0.8509 0.8509 0.8509
v -0.020503 0.038000 0.049497 0.7137 0.7137 0.7137
v -0.140000 0.038000 -0.000000 0.6902 0.6902 0.6902
v 0.000000 0.038000 0.000000 0.6902 0.6902 0.6902
vn 1.0000 -0.0000 -0.0000
vn 0.8660 -0.0000 -0.5000
vn 0.5000 -0.0000 -0.8660
vn -0.0000 -0.0000 -1.0000
vn -0.5000 -0.0000 -0.8660
vn -0.8660 -0.0000 -0.5000
vn -1.0000 -0.0000 -0.0000
vn -0.8660 -0.0000 0.5000
vn -0.5000 -0.0000 0.8660
vn -0.0000 -0.0000 1.0000
vn 0.5000 -0.0000 0.8660
vn 0.8660 -0.0000 0.5000
vn -0.0000 1.0000 -0.0000
vn -0.0000 -1.0000 -0.0000
vn 0.7071 -0.0000 -0.7071
vn -0.7071 -0.0000 -0.7071
vn -0.7071 -0.0000 0.7071
vn 0.7071 -0.0000 0.7071
vt 0.437988 0.969238
vt 0.440511 0.969238
vt 0.440511 0.999512
vt 0.437988 0.999512
vt 0.443034 0.969238
vt 0.443034 0.999512
vt 0.445557 0.969238
vt 0.445557 0.999512
vt 0.448079 0.969238
vt 0.448079 0.999512
vt 0.450602 0.969238
vt 0.450602 0.999512
vt 0.453125 0.969238
vt 0.453125 0.999512
vt 0.455648 0.969238
vt 0.455648 0.999512
vt 0.458171 0.969238
vt 0.458171 0.999512
vt 0.460693 0.969238
vt 0.460693 0.999512
vt 0.463216 0.969238
vt 0.463216 0.999512
vt 0.465739 0.969238
vt 0.465739 0.999512
vt 0.468262 0.969238
vt 0.468262 0.999512
vt 0.780762 0.984375
vt 0.778734 0.991943
vt 0.773193 0.997484
vt 0.765625 0.999512
vt 0.758057 0.997484
vt 0.752516 0.991943
vt 0.750488 0.984375
vt 0.752516 0.976807
vt 0.758057 0.971266
vt 0.765625 0.969238
vt 0.773193 0.971266
vt 0.778734 0.976807
vt 0.466234 0.991943
vt 0.460693 0.997484
vt 0.445557 0.997484
vt 0.440016 0.991943
vt 0.437988 0.984375
vt 0.440016 0.976807
vt 0.445557 0.971266
vt 0.460693 0.971266
vt 0.466234 0.976807
vt 0.468262 0.984375
vt 0.781738 0.969238
vt 0.785522 0.969238
vt 0.785522 0.999512
vt 0.781738 0.999512
vt 0.789307 0.969238
vt 0.789307 0.999512
vt 0.793091 0.969238
vt 0.793091 0.999512
vt 0.796875 0.969238
vt 0.796875 0.999512
vt 0.800659 0.969238
vt 0.800659 0.999512
vt 0.804443 0.969238
vt 0.804443 0.999512
vt 0.808228 0.969238
vt 0.808228 0.999512
vt 0.812012 0.969238
vt 0.812012 0.999512
vt 0.624512 0.984375
vt 0.620078 0.995078
vt 0.609375 0.999512
vt 0.598672 0.995078
vt 0.594238 0.984375
vt 0.598672 0.973672
vt 0.609375 0.969238
vt 0.620078 0.973672
vt 0.807578 0.995078
vt 0.786172 0.995078
vt 0.781738 0.984375
vt 0.786172 0.973672
vt 0.807578 0.973672
vt 0.812012 0.984375
s 1
usemtl props
f 47/45/7 48/46/8 51/47/8 49/48/7
f 48/46/8 50/49/9 57/50/9 51/47/8
f 50/49/9 70/51/10 52/52/10 57/50/9
f 70/51/10 53/53/11 58/54/11 52/52/10
f 53/53/11 54/55/12 59/56/12 58/54/11
f 54/55/12 69/57/13 60/58/13 59/56/12
f 69/57/13 68/59/14 55/60/14 60/58/13
f 68/59/14 67/61/15 61/62/15 55/60/14
f 67/61/15 66/63/16 62/64/16 61/62/15
f 66/63/16 56/65/17 63/66/17 62/64/16
f 56/65/17 65/67/18 64/68/18 63/66/17
f 65/67/18 47/69/7 49/70/7 64/68/18
s 0
f 49/71/19 51/72/19 57/73/19 52/74/19 58/75/19 59/76/19 60/77/19 55/78/19 61/79/19 62/80/19 63/81/19 64/82/19
f 65/83/20 56/84/20 66/58/20 67/85/20 68/86/20 69/87/20 54/88/20 53/89/20 70/57/20 50/90/20 48/91/20 47/92/20
s 1
f 86/93/7 71/94/21 74/95/21 72/96/7
f 71/94/21 73/97/10 76/98/10 74/95/21
f 73/97/10 75/99/22 77/100/22 76/98/10
f 75/99/22 85/101/13 79/102/13 77/100/22
f 85/101/13 80/103/23 78/104/23 79/102/13
f 80/103/23 81/105/16 83/106/16 78/104/23
f 81/105/16 84/107/24 82/108/24 83/106/16
f 84/107/24 86/109/7 72/110/7 82/108/24
s 0
f 72/111/19 74/112/19 76/113/19 77/114/19 79/115/19 78/116/19 83/117/19 82/118/19
f 84/119/20 81/102/20 80/120/20 85/121/20 75/122/20 73/101/20 71/123/20 86/124/20
o microwave_door
v -0.255000 0.010000 0.240000 0.7764 0.7764 0.7764
v -0.255000 0.010000 0.210000 0.7059 0.7059 0.7059
v 0.115000 0.010000 0.240000 0.7568 0.7568 0.7568
v 0.115000 0.060000 0.240000 0.7686 0.7686 0.7686
v 0.115000 0.010000 0.210000 0.7137 0.7137 0.7137
v 0.115000 0.310000 0.240000 0.9607 0.9607 0.9607
v 0.115000 0.310000 0.210000 0.7921 0.7921 0.7921
v -0.255000 0.260000 0.210000 0.7333 0.7333 0.7333
v -0.255000 0.260000 0.240000 0.8862 0.8862 0.8862
v -0.255000 0.310000 0.240000 0.9960 0.9960 0.9960
v -0.255000 0.310000 0.210000 0.7882 0.7882 0.7882
v 0.115000 0.260000 0.240000 0.8274 0.8274 0.8274
v 0.115000 0.260000 0.210000 0.7412 0.7412 0.7412
v -0.255000 0.280000 0.240000 0.8862 0.8862 0.8862
v -0.255000 0.060000 0.210000 0.7137 0.7137 0.7137
v -0.255000 0.280000 0.210000 0.7333 0.7333 0.7333
v -0.205000 0.060000 0.240000 0.8039 0.8039 0.8039
v -0.205000 0.060000 0.210000 0.7686 0.7686 0.7686
v -0.205000 0.280000 0.210000 0.7020 0.7020 0.7020
v -0.205000 0.280000 0.240000 0.7764 0.7764 0.7764
v -0.255000 0.060000 0.240000 0.8078 0.8078 0.8078
v 0.065000 0.280000 0.240000 0.7686 0.7686 0.7686
v 0.115000 0.060000 0.210000 0.7216 0.7216 0.7216
v 0.065000 0.280000 0.210000 0.7020 0.7020 0.7020
v 0.065000 0.060000 0.210000 0.7608 0.7608 0.7608
v 0.115000 0.280000 0.240000 0.8392 0.8392 0.8392
v 0.115000 0.280000 0.210000 0.7333 0.7333 0.7333
v 0.065000 0.060000 0.240000 0.7921 0.7921 0.7921
v 0.080000 0.070000 0.270000 0.8117 0.8117 0.8117
v 0.110000 0.250000 0.270000 0.9372 0.9372 0.9372
v 0.080000 0.070000 0.240000 0.7098 0.7098 0.7098
v 0.080000 0.250000 0.240000 0.7764 0.7764 0.7764
v 0.110000 0.250000 0.240000 0.7804 0.7804 0.7804
v 0.110000 0.070000 0.270000 0.8000 0.8000 0.8000
v 0.110000 0.070000 0.240000 0.7137 0.7137 0.7137
v 0.080000 0.250000 0.270000 0.9490 0.9490 0.9490
vn -0.0000 -0.0000 1.0000
vn -0.0000 -0.0000 -1.0000
vn -1.0000 -0.0000 -0.0000
vn 1.0000 -0.0000 -0.0000
vn -0.0000 1.0000 -0.0000
vn -0.0000 -1.0000 -0.0000
vt 0.937988 0.969238
vt 0.968262 0.969238
vt 0.968262 0.973329
vt 0.937988 0.973329
vt 0.949341 0.969238
vt 0.949341 0.988159
vt 0.937988 0.988159
vt 0.968262 0.971693
vt 0.937988 0.971693
vt 0.944869 0.969238
vt 0.944869 0.999512
vt 0.937988 0.999512
vt 0.942116 0.969238
vt 0.942116 0.999512
vt 0.956909 0.969238
vt 0.956909 0.980591
vt 0.937988 0.980591
vt 0.375488 0.969238
vt 0.380534 0.969238
vt 0.380534 0.999512
vt 0.375488 0.999512
vt 0.386841 0.969238
vt 0.386841 0.980591
vt 0.375488 0.980591
s 0
usemtl props
f 87/125/25 89/126/25 90/127/25 107/128/25
f 91/125/26 88/126/26 101/127/26 109/128/26
f 88/125/27 87/129/27 107/130/27 101/131/27
f 89/125/28 91/129/28 109/130/28 90/131/28
f 107/125/29 90/126/29 109/132/29 101/133/29
f 88/125/30 91/126/30 89/132/30 87/133/30
f 95/125/25 98/126/25 92/127/25 96/128/25
f 99/125/26 94/126/26 97/127/26 93/128/26
f 94/125/27 95/129/27 96/130/27 97/131/27
f 98/125/28 99/129/28 93/130/28 92/131/28
f 96/125/29 92/126/29 93/132/29 97/133/29
f 94/125/30 99/126/30 98/132/30 95/133/30
f 107/125/25 103/134/25 106/135/25 100/136/25
f 104/125/26 101/134/26 102/135/26 105/136/26
f 101/125/27 107/137/27 100/138/27 102/136/27
f 103/125/28 104/137/28 105/138/28 106/136/28
f 100/125/29 106/139/29 105/140/29 102/141/29
f 101/125/30 104/139/30 103/140/30 107/141/30
f 114/125/25 90/134/25 112/135/25 108/136/25
f 109/125/26 111/134/26 110/135/26 113/136/26
f 111/125/27 114/137/27 108/138/27 110/136/27
f 90/125/28 109/137/28 113/138/28 112/136/28
f 108/125/29 112/139/29 113/140/29 110/141/29
f 111/125/30 109/139/30 90/140/30 114/141/30
f 115/142/25 120/143/25 116/144/25 122/145/25
f 121/142/26 117/143/26 118/144/26 119/145/26
f 117/142/27 115/143/27 122/144/27 118/145/27
f 120/142/28 121/143/28 119/144/28 116/145/28
f 122/142/29 116/146/29 119/147/29 118/148/29
f 117/142/30 121/146/30 120/147/30 115/148/30
