# Blender 4.5.14 LTS
# www.blender.org
mtllib prep_table.mtl
o prep_table
v -0.600000 0.860000 0.375000 0.9804 0.9804 0.9804
v 0.600000 0.900000 0.375000 1.0000 1.0000 1.0000
v -0.600000 0.900000 -0.375000 0.8862 0.8862 0.8862
v -0.600000 0.860000 -0.375000 0.9804 0.9804 0.9804
v 0.600000 0.860000 -0.375000 0.9804 0.9804 0.9804
v -0.600000 0.900000 0.375000 1.0000 1.0000 1.0000
v 0.600000 0.860000 0.375000 0.9804 0.9804 0.9804
v -0.600000 1.000000 -0.355000 0.9725 0.9725 0.9725
v 0.600000 0.900000 -0.375000 0.8862 0.8862 0.8862
v -0.600000 1.000000 -0.375000 1.0000 1.0000 1.0000
v 0.600000 0.900000 -0.355000 0.8313 0.8313 0.8313
v 0.600000 1.000000 -0.375000 1.0000 1.0000 1.0000
v 0.600000 1.000000 -0.355000 0.9725 0.9725 0.9725
v -0.600000 0.900000 -0.355000 0.8313 0.8313 0.8313
v -0.530000 0.000000 0.325000 0.6667 0.6667 0.6667
v -0.540000 0.000000 0.307680 0.6667 0.6667 0.6667
v -0.560000 0.000000 0.307680 0.6667 0.6667 0.6667
v -0.570000 0.000000 0.325000 0.6667 0.6667 0.6667
v -0.562000 0.860000 0.304215 0.7921 0.7921 0.7921
v -0.560000 0.000000 0.342321 0.6667 0.6667 0.6667
v -0.562000 0.860000 0.345785 0.8078 0.8078 0.8078
v -0.540000 0.000000 0.342321 0.6667 0.6667 0.6667
v -0.538000 0.860000 0.345785 0.8000 0.8000 0.8000
v -0.526000 0.860000 0.325000 0.7804 0.7804 0.7804
v -0.538000 0.860000 0.304215 0.7764 0.7764 0.7764
v -0.574000 0.860000 0.325000 0.8078 0.8078 0.8078
v -0.538000 0.860000 -0.345785 0.8000 0.8000 0.8000
v -0.540000 0.000000 -0.342321 0.6667 0.6667 0.6667
v -0.560000 0.000000 -0.342321 0.6667 0.6667 0.6667
v -0.574000 0.860000 -0.325000 0.8039 0.8039 0.8039
v -0.570000 0.000000 -0.325000 0.6667 0.6667 0.6667
v -0.560000 0.000000 -0.307680 0.6667 0.6667 0.6667
v -0.562000 0.860000 -0.304215 0.7882 0.7882 0.7882
v -0.540000 0.000000 -0.307680 0.6667 0.6667 0.6667
v -0.538000 0.860000 -0.304215 0.7804 0.7804 0.7804
v -0.530000 0.000000 -0.325000 0.6667 0.6667 0.6667
v -0.526000 0.860000 -0.325000 0.7804 0.7804 0.7804
v -0.562000 0.860000 -0.345785 0.8078 0.8078 0.8078
v 0.560000 0.000000 0.307680 0.6667 0.6667 0.6667
v 0.540000 0.000000 0.307680 0.6667 0.6667 0.6667
v 0.530000 0.000000 0.325000 0.6667 0.6667 0.6667
v 0.540000 0.000000 0.342321 0.6667 0.6667 0.6667
v 0.560000 0.000000 0.342321 0.6667 0.6667 0.6667
v 0.538000 0.860000 0.345785 0.8000 0.8000 0.8000
v 0.570000 0.000000 0.325000 0.6667 0.6667 0.6667
v 0.574000 0.860000 0.325000 0.8039 0.8039 0.8039
v 0.562000 0.860000 0.345785 0.8039 0.8039 0.8039
v 0.562000 0.860000 0.304215 0.7843 0.7843 0.7843
v 0.538000 0.860000 0.304215 0.7764 0.7764 0.7764
v 0.526000 0.860000 0.325000 0.7804 0.7804 0.7804
v 0.570000 0.000000 -0.325000 0.6667 0.6667 0.6667
v 0.560000 0.000000 -0.342321 0.6667 0.6667 0.6667
v 0.562000 0.860000 -0.345785 0.8039 0.8039 0.8039
v 0.574000 0.860000 -0.325000 0.8039 0.8039 0.8039
v 0.540000 0.000000 -0.342321 0.6667 0.6667 0.6667
v 0.538000 0.860000 -0.345785 0.8000 0.8000 0.8000
v 0.530000 0.000000 -0.325000 0.6667 0.6667 0.6667
v 0.540000 0.000000 -0.307680 0.6667 0.6667 0.6667
v 0.538000 0.860000 -0.304215 0.7804 0.7804 0.7804
v 0.526000 0.860000 -0.325000 0.7843 0.7843 0.7843
v 0.562000 0.860000 -0.304215 0.7882 0.7882 0.7882
v 0.560000 0.000000 -0.307680 0.6667 0.6667 0.6667
v -0.518000 0.000000 0.325000 0.7412 0.7412 0.7412
v -0.534000 0.000000 0.297287 0.7333 0.7333 0.7333
v -0.534000 0.020000 0.297287 0.7843 0.7843 0.7843
v -0.518000 0.020000 0.325000 0.8000 0.8000 0.8000
v -0.566000 0.000000 0.297287 0.7568 0.7568 0.7568
v -0.582000 0.000000 0.325000 0.7686 0.7686 0.7686
v -0.566000 0.000000 0.352713 0.7686 0.7686 0.7686
v -0.534000 0.000000 0.352713 0.7647 0.7647 0.7647
v -0.566000 0.020000 0.297287 0.8157 0.8157 0.8157
v -0.582000 0.020000 0.325000 0.8431 0.8431 0.8431
v -0.566000 0.020000 0.352713 0.8549 0.8549 0.8549
v -0.534000 0.020000 0.352713 0.8392 0.8392 0.8392
v -0.518000 0.000000 -0.325000 0.7490 0.7490 0.7490
v -0.534000 0.020000 -0.352713 0.8431 0.8431 0.8431
v -0.534000 0.000000 -0.352713 0.7725 0.7725 0.7725
v -0.566000 0.020000 -0.352713 0.8588 0.8588 0.8588
v -0.566000 0.000000 -0.352713 0.7725 0.7725 0.7725
v -0.582000 0.020000 -0.325000 0.8509 0.8509 0.8509
v -0.566000 0.020000 -0.297287 0.8196 0.8196 0.8196
v -0.534000 0.000000 -0.297287 0.7333 0.7333 0.7333
v -0.518000 0.020000 -0.325000 0.8000 0.8000 0.8000
v -0.534000 0.020000 -0.297287 0.7843 0.7843 0.7843
v -0.566000 0.000000 -0.297287 0.7568 0.7568 0.7568
v -0.582000 0.000000 -0.325000 0.7686 0.7686 0.7686
v 0.582000 0.020000 0.325000 0.8549 0.8549 0.8549
v 0.566000 0.000000 0.297287 0.7608 0.7608 0.7608
v 0.534000 0.020000 0.352713 0.8353 0.8353 0.8353
v 0.566000 0.000000 0.352713 0.7725 0.7725 0.7725
v 0.566000 0.020000 0.352713 0.8627 0.8627 0.8627
v 0.566000 0.020000 0.297287 0.8235 0.8235 0.8235
v 0.534000 0.020000 0.297287 0.7804 0.7804 0.7804
v 0.518000 0.020000 0.325000 0.7921 0.7921 0.7921
v 0.534000 0.000000 0.352713 0.7647 0.7647 0.7647
v 0.518000 0.000000 0.325000 0.7412 0.7412 0.7412
v 0.534000 0.000000 0.297287 0.7333 0.7333 0.7333
v 0.582000 0.000000 0.325000 0.7764 0.7764 0.7764
v 0.566000 0.000000 -0.352713 0.7764 0.7764 0.7764
v 0.534000 0.020000 -0.352713 0.8353 0.8353 0.8353
v 0.566000 0.020000 -0.352713 0.8627 0.8627 0.8627
v 0.534000 0.000000 -0.352713 0.7686 0.7686 0.7686
v 0.518000 0.000000 -0.325000 0.7372 0.7372 0.7372
v 0.534000 0.020000 -0.297287 0.7764 0.7764 0.7764
v 0.534000 0.000000 -0.297287 0.7255 0.7255 0.7255
v 0.582000 0.020000 -0.325000 0.8588 0.8588 0.8588
v 0.518000 0.020000 -0.325000 0.7921 0.7921 0.7921
v 0.566000 0.020000 -0.297287 0.8196 0.8196 0.8196
v 0.566000 0.000000 -0.297287 0.7568 0.7568 0.7568
v 0.582000 0.000000 -0.325000 0.7764 0.7764 0.7764
v 0.560000 0.180000 0.335000 0.6667 0.6667 0.6667
v -0.560000 0.180000 -0.335000 0.6667 0.6667 0.6667
v 0.560000 0.180000 -0.335000 0.6667 0.6667 0.6667
v -0.560000 0.160000 0.335000 0.6667 0.6667 0.6667
v -0.560000 0.180000 0.335000 0.6667 0.6667 0.6667
v 0.560000 0.160000 0.335000 0.6667 0.6667 0.6667
v -0.560000 0.160000 -0.335000 0.6667 0.6667 0.6667
v 0.560000 0.160000 -0.335000 0.6667 0.6667 0.6667
vn -0.0000 -0.0000 1.0000
vn -0.0000 -0.0000 -1.0000
vn -1.0000 -0.0000 -0.0000
vn 1.0000 -0.0000 -0.0000
vn -0.0000 1.0000 -0.0000
vn -0.0000 -1.0000 -0.0000
vn 0.8660 -0.0040 -0.5000
vn -0.0000 -0.0040 -1.0000
vn -0.8660 -0.0040 -0.5000
vn -0.8660 -0.0040 0.5000
vn -0.0000 -0.0040 1.0000
vn 0.8660 -0.0040 0.5000
vn 0.8660 -0.0000 -0.5000
vn -0.8660 -0.0000 -0.5000
vn -0.8660 -0.0000 0.5000
vn 0.8660 -0.0000 0.5000
vt 0.937988 0.969238
vt 0.968262 0.969238
vt 0.968262 0.970247
vt 0.937988 0.970247
vt 0.968262 0.970853
vt 0.937988 0.970853
vt 0.968262 0.988159
vt 0.937988 0.988159
vt 0.968262 0.971761
vt 0.937988 0.971761
vt 0.942832 0.969238
vt 0.942832 0.993457
vt 0.937988 0.993457
vt 0.968262 0.969743
vt 0.937988 0.969743
vt 0.375488 0.969238
vt 0.380534 0.969238
vt 0.380534 0.999512
vt 0.375488 0.999512
vt 0.385579 0.969238
vt 0.385579 0.999512
vt 0.390625 0.969238
vt 0.390625 0.999512
vt 0.395671 0.969238
vt 0.395671 0.999512
vt 0.400716 0.969238
vt 0.400716 0.999512
vt 0.405762 0.969238
vt 0.405762 0.999512
vt 0.405762 0.984375
vt 0.398193 0.999512
vt 0.383057 0.999512
vt 0.375488 0.984375
vt 0.383057 0.969238
vt 0.398193 0.969238
vt 0.250488 0.969238
vt 0.255534 0.969238
vt 0.255534 0.999512
vt 0.250488 0.999512
vt 0.260579 0.969238
vt 0.260579 0.999512
vt 0.265625 0.969238
vt 0.265625 0.999512
vt 0.270671 0.969238
vt 0.270671 0.999512
vt 0.275716 0.969238
vt 0.275716 0.999512
vt 0.280762 0.969238
vt 0.280762 0.999512
vt 0.280762 0.984375
vt 0.273193 0.999512
vt 0.258057 0.999512
vt 0.250488 0.984375
vt 0.258057 0.969238
vt 0.273193 0.969238
vt 0.968262 0.969779
vt 0.937988 0.969779
vt 0.968262 0.970142
vt 0.937988 0.970142
vt 0.968262 0.987348
vt 0.937988 0.987348
s 0
usemtl props
f 1/1/1 7/2/1 2/3/1 6/4/1
f 5/1/2 4/2/2 3/3/2 9/4/2
f 4/1/3 1/2/3 6/5/3 3/6/3
f 7/1/4 5/2/4 9/5/4 2/6/4
f 6/1/5 2/2/5 9/7/5 3/8/5
f 4/1/6 5/2/6 7/7/6 1/8/6
f 14/1/1 11/2/1 13/9/1 8/10/1
f 9/1/2 3/2/2 10/9/2 12/10/2
f 3/1/3 14/11/3 8/12/3 10/13/3
f 11/1/4 9/11/4 12/12/4 13/13/4
f 8/1/5 13/2/5 12/14/5 10/15/5
f 3/1/6 9/2/6 11/14/6 14/15/6
s 1
f 15/16/7 16/17/7 25/18/7 24/19/7
f 16/17/8 17/20/8 19/21/8 25/18/8
f 17/20/9 18/22/9 26/23/9 19/21/9
f 18/22/10 20/24/10 21/25/10 26/23/10
f 20/24/11 22/26/11 23/27/11 21/25/11
f 22/26/12 15/28/12 24/29/12 23/27/12
s 0
f 24/30/5 25/31/5 19/32/5 26/33/5 21/34/5 23/35/5
s 1
f 36/16/7 28/17/7 27/18/7 37/19/7
f 28/17/8 29/20/8 38/21/8 27/18/8
f 29/20/9 31/22/9 30/23/9 38/21/9
f 31/22/10 32/24/10 33/25/10 30/23/10
f 32/24/11 34/26/11 35/27/11 33/25/11
f 34/26/12 36/28/12 37/29/12 35/27/12
s 0
f 37/30/5 27/31/5 38/32/5 30/33/5 33/34/5 35/35/5
s 1
f 45/16/7 39/17/7 48/18/7 46/19/7
f 39/17/8 40/20/8 49/21/8 48/18/8
f 40/20/9 41/22/9 50/23/9 49/21/9
f 41/22/10 42/24/10 44/25/10 50/23/10
f 42/24/11 43/26/11 47/27/11 44/25/11
f 43/26/12 45/28/12 46/29/12 47/27/12
s 0
f 46/30/5 48/31/5 49/32/5 50/33/5 44/34/5 47/35/5
s 1
f 51/16/7 52/17/7 53/18/7 54/19/7
f 52/17/8 55/20/8 56/21/8 53/18/8
f 55/20/9 57/22/9 60/23/9 56/21/9
f 57/22/10 58/24/10 59/25/10 60/23/10
f 58/24/11 62/26/11 61/27/11 59/25/11
f 62/26/12 51/28/12 54/29/12 61/27/12
s 0
f 54/30/5 53/31/5 56/32/5 60/33/5 59/34/5 61/35/5
s 1
f 63/36/13 64/37/13 65/38/13 66/39/13
f 64/37/2 67/40/2 71/41/2 65/38/2
f 67/40/14 68/42/14 72/43/14 71/41/14
f 68/42/15 69/44/15 73/45/15 72/43/15
f 69/44/1 70/46/1 74/47/1 73/45/1
f 70/46/16 63/48/16 66/49/16 74/47/16
s 0
f 66/50/5 65/51/5 71/52/5 72/53/5 73/54/5 74/55/5
f 70/51/6 69/52/6 68/53/6 67/54/6 64/55/6 63/50/6
s 1
f 75/36/13 77/37/13 76/38/13 83/39/13
f 77/37/2 79/40/2 78/41/2 76/38/2
f 79/40/14 86/42/14 80/43/14 78/41/14
f 86/42/15 85/44/15 81/45/15 80/43/15
f 85/44/1 82/46/1 84/47/1 81/45/1
f 82/46/16 75/48/16 83/49/16 84/47/16
s 0
f 83/50/5 76/51/5 78/52/5 80/53/5 81/54/5 84/55/5
f 82/51/6 85/52/6 86/53/6 79/54/6 77/55/6 75/50/6
s 1
f 98/36/13 88/37/13 92/38/13 87/39/13
f 88/37/2 97/40/2 93/41/2 92/38/2
f 97/40/14 96/42/14 94/43/14 93/41/14
f 96/42/15 95/44/15 89/45/15 94/43/15
f 95/44/1 90/46/1 91/47/1 89/45/1
f 90/46/16 98/48/16 87/49/16 91/47/16
s 0
f 87/50/5 92/51/5 93/52/5 94/53/5 89/54/5 91/55/5
f 90/51/6 95/52/6 96/53/6 97/54/6 88/55/6 98/50/6
s 1
f 110/36/13 99/37/13 101/38/13 106/39/13
f 99/37/2 102/40/2 100/41/2 101/38/2
f 102/40/14 103/42/14 107/43/14 100/41/14
f 103/42/15 105/44/15 104/45/15 107/43/15
f 105/44/1 109/46/1 108/47/1 104/45/1
f 109/46/16 110/48/16 106/49/16 108/47/16
s 0
f 106/50/5 101/51/5 100/52/5 107/53/5 104/54/5 108/55/5
f 109/51/6 105/52/6 103/53/6 102/54/6 99/55/6 110/50/6
f 114/1/1 116/2/1 111/56/1 115/57/1
f 118/1/2 117/2/2 112/56/2 113/57/2
f 117/1/3 114/2/3 115/58/3 112/59/3
f 116/1/4 118/2/4 113/58/4 111/59/4
f 115/1/5 111/2/5 113/60/5 112/61/5
f 117/1/6 118/2/6 116/60/6 114/61/6
