# Blender 4.5.14 LTS
# www.blender.org
mtllib range_six.mtl
o range_six
v -0.460000 0.150000 0.400000 0.8196 0.8196 0.8196
v 0.460000 0.150000 0.400000 0.8157 0.8157 0.8157
v 0.460000 0.900000 0.400000 0.9843 0.9843 0.9843
v -0.460000 0.900000 0.400000 0.9804 0.9804 0.9804
v -0.460000 0.900000 -0.400000 0.9176 0.9176 0.9176
v 0.460000 0.150000 -0.400000 0.8196 0.8196 0.8196
v -0.460000 0.150000 -0.400000 0.8235 0.8235 0.8235
v -0.402500 0.000000 0.333349 0.6667 0.6667 0.6667
v -0.400000 0.150000 0.329019 0.7412 0.7412 0.7412
v -0.427500 0.000000 0.333349 0.6667 0.6667 0.6667
v -0.445000 0.150000 0.355000 0.7412 0.7412 0.7412
v -0.440000 0.000000 0.355000 0.6667 0.6667 0.6667
v -0.427500 0.000000 0.376651 0.6667 0.6667 0.6667
v -0.402500 0.000000 0.376651 0.6667 0.6667 0.6667
v -0.400000 0.150000 0.380981 0.7490 0.7490 0.7490
v -0.390000 0.000000 0.355000 0.6667 0.6667 0.6667
v -0.385000 0.150000 0.355000 0.7412 0.7412 0.7412
v -0.430000 0.150000 0.329019 0.7412 0.7412 0.7412
v -0.430000 0.150000 0.380981 0.7451 0.7451 0.7451
v -0.402500 0.000000 -0.376651 0.6667 0.6667 0.6667
v -0.430000 0.150000 -0.380981 0.7412 0.7412 0.7412
v -0.427500 0.000000 -0.376651 0.6667 0.6667 0.6667
v -0.440000 0.000000 -0.355000 0.6667 0.6667 0.6667
v -0.427500 0.000000 -0.333349 0.6667 0.6667 0.6667
v -0.402500 0.000000 -0.333349 0.6667 0.6667 0.6667
v -0.400000 0.150000 -0.329019 0.7490 0.7490 0.7490
v -0.430000 0.150000 -0.329019 0.7451 0.7451 0.7451
v -0.390000 0.000000 -0.355000 0.6667 0.6667 0.6667
v -0.385000 0.150000 -0.355000 0.7412 0.7412 0.7412
v -0.400000 0.150000 -0.380981 0.7490 0.7490 0.7490
v -0.445000 0.150000 -0.355000 0.7412 0.7412 0.7412
v 0.427500 0.000000 0.333349 0.6667 0.6667 0.6667
v 0.402500 0.000000 0.333349 0.6667 0.6667 0.6667
v 0.390000 0.000000 0.355000 0.6667 0.6667 0.6667
v 0.385000 0.150000 0.355000 0.7372 0.7372 0.7372
v 0.400000 0.150000 0.329019 0.7372 0.7372 0.7372
v 0.402500 0.000000 0.376651 0.6667 0.6667 0.6667
v 0.427500 0.000000 0.376651 0.6667 0.6667 0.6667
v 0.400000 0.150000 0.380981 0.7451 0.7451 0.7451
v 0.440000 0.000000 0.355000 0.6667 0.6667 0.6667
v 0.445000 0.150000 0.355000 0.7490 0.7490 0.7490
v 0.430000 0.150000 0.329019 0.7412 0.7412 0.7412
v 0.430000 0.150000 0.380981 0.7490 0.7490 0.7490
v 0.440000 0.000000 -0.355000 0.6667 0.6667 0.6667
v 0.445000 0.150000 -0.355000 0.7490 0.7490 0.7490
v 0.427500 0.000000 -0.376651 0.6667 0.6667 0.6667
v 0.400000 0.150000 -0.380981 0.7451 0.7451 0.7451
v 0.402500 0.000000 -0.376651 0.6667 0.6667 0.6667
v 0.385000 0.150000 -0.355000 0.7372 0.7372 0.7372
v 0.390000 0.000000 -0.355000 0.6667 0.6667 0.6667
v 0.400000 0.150000 -0.329019 0.7451 0.7451 0.7451
v 0.402500 0.000000 -0.333349 0.6667 0.6667 0.6667
v 0.427500 0.000000 -0.333349 0.6667 0.6667 0.6667
v 0.430000 0.150000 -0.380981 0.7451 0.7451 0.7451
v 0.430000 0.150000 -0.329019 0.7490 0.7490 0.7490
v -0.375000 0.000000 0.355000 0.7333 0.7333 0.7333
v -0.395000 0.000000 0.320359 0.7216 0.7216 0.7216
v -0.395000 0.020000 0.320359 0.7608 0.7608 0.7608
v -0.435000 0.020000 0.320359 0.8000 0.8000 0.8000
v -0.435000 0.000000 0.320359 0.7529 0.7529 0.7529
v -0.455000 0.020000 0.355000 0.8392 0.8392 0.8392
v -0.435000 0.020000 0.389641 0.8431 0.8431 0.8431
v -0.375000 0.020000 0.355000 0.7725 0.7725 0.7725
v -0.395000 0.020000 0.389641 0.8196 0.8196 0.8196
v -0.395000 0.000000 0.389641 0.7608 0.7608 0.7608
v -0.435000 0.000000 0.389641 0.7686 0.7686 0.7686
v -0.455000 0.000000 0.355000 0.7686 0.7686 0.7686
v -0.435000 0.000000 -0.389641 0.7725 0.7725 0.7725
v -0.435000 0.020000 -0.389641 0.8470 0.8470 0.8470
v -0.395000 0.020000 -0.389641 0.8274 0.8274 0.8274
v -0.435000 0.000000 -0.320359 0.7490 0.7490 0.7490
v -0.435000 0.020000 -0.320359 0.8000 0.8000 0.8000
v -0.455000 0.020000 -0.355000 0.8392 0.8392 0.8392
v -0.395000 0.020000 -0.320359 0.7568 0.7568 0.7568
v -0.375000 0.000000 -0.355000 0.7412 0.7412 0.7412
v -0.375000 0.020000 -0.355000 0.7764 0.7764 0.7764
v -0.395000 0.000000 -0.320359 0.7216 0.7216 0.7216
v -0.455000 0.000000 -0.355000 0.7686 0.7686 0.7686
v -0.395000 0.000000 -0.389641 0.7686 0.7686 0.7686
v 0.455000 0.020000 0.355000 0.8470 0.8470 0.8470
v 0.435000 0.000000 0.320359 0.7529 0.7529 0.7529
v 0.395000 0.000000 0.320359 0.7216 0.7216 0.7216
v 0.435000 0.020000 0.320359 0.8039 0.8039 0.8039
v 0.395000 0.020000 0.320359 0.7490 0.7490 0.7490
v 0.375000 0.020000 0.355000 0.7686 0.7686 0.7686
v 0.395000 0.000000 0.389641 0.7608 0.7608 0.7608
v 0.435000 0.000000 0.389641 0.7725 0.7725 0.7725
v 0.455000 0.000000 0.355000 0.7725 0.7725 0.7725
v 0.395000 0.020000 0.389641 0.8157 0.8157 0.8157
v 0.435000 0.020000 0.389641 0.8470 0.8470 0.8470
v 0.375000 0.000000 0.355000 0.7333 0.7333 0.7333
v 0.455000 0.020000 -0.355000 0.8470 0.8470 0.8470
v 0.435000 0.000000 -0.389641 0.7764 0.7764 0.7764
v 0.395000 0.020000 -0.389641 0.8235 0.8235 0.8235
v 0.395000 0.000000 -0.389641 0.7647 0.7647 0.7647
v 0.375000 0.020000 -0.355000 0.7686 0.7686 0.7686
v 0.435000 0.000000 -0.320359 0.7490 0.7490 0.7490
v 0.435000 0.020000 -0.320359 0.8000 0.8000 0.8000
v 0.435000 0.020000 -0.389641 0.8549 0.8549 0.8549
v 0.395000 0.020000 -0.320359 0.7490 0.7490 0.7490
v 0.395000 0.000000 -0.320359 0.7137 0.7137 0.7137
v 0.375000 0.000000 -0.355000 0.7333 0.7333 0.7333
v 0.455000 0.000000 -0.355000 0.7764 0.7764 0.7764
v 0.460000 0.880000 0.400000 0.8980 0.8980 0.8980
v 0.460000 0.880000 -0.400000 0.9176 0.9176 0.9176
v 0.460000 0.900000 -0.400000 0.9176 0.9176 0.9176
v -0.460000 0.880000 -0.400000 0.9176 0.9176 0.9176
v -0.460000 0.880000 0.400000 0.8980 0.8980 0.8980
v -0.460000 0.900000 -0.320000 0.8274 0.8274 0.8274
v 0.460000 1.400000 -0.320000 0.7764 0.7764 0.7764
v -0.460000 1.400000 -0.400000 0.8862 0.8862 0.8862
v -0.460000 1.400000 -0.320000 0.7764 0.7764 0.7764
v 0.460000 1.400000 -0.400000 0.8862 0.8862 0.8862
v 0.460000 0.900000 -0.320000 0.8274 0.8274 0.8274
v -0.460000 1.390000 -0.150000 0.9686 0.9686 0.9686
v -0.460000 1.410000 -0.150000 1.0000 1.0000 1.0000
v -0.460000 1.410000 -0.400000 1.0000 1.0000 1.0000
v 0.460000 1.390000 -0.150000 0.9686 0.9686 0.9686
v 0.460000 1.390000 -0.400000 0.8941 0.8941 0.8941
v 0.460000 1.410000 -0.150000 1.0000 1.0000 1.0000
v 0.460000 1.410000 -0.400000 1.0000 1.0000 1.0000
v -0.460000 1.390000 -0.400000 0.8941 0.8941 0.8941
v -0.450000 0.870000 0.400000 0.8078 0.8078 0.8078
v -0.450000 0.770000 0.420000 0.9451 0.9451 0.9451
v -0.450000 0.870000 0.420000 0.9647 0.9647 0.9647
v 0.450000 0.770000 0.420000 0.9451 0.9451 0.9451
v 0.450000 0.770000 0.400000 0.8078 0.8078 0.8078
v 0.450000 0.870000 0.420000 0.9647 0.9647 0.9647
v 0.450000 0.870000 0.400000 0.8039 0.8039 0.8039
v -0.450000 0.770000 0.400000 0.8117 0.8117 0.8117
v -0.155000 0.930000 0.370000 0.9294 0.9294 0.9294
v -0.425000 0.930000 0.050000 0.9098 0.9098 0.9098
v -0.425000 0.900000 0.050000 0.7568 0.7568 0.7568
v -0.155000 0.900000 0.050000 0.7059 0.7059 0.7059
v -0.155000 0.930000 0.050000 0.8470 0.8470 0.8470
v -0.425000 0.930000 0.370000 0.9568 0.9568 0.9568
v -0.155000 0.900000 0.370000 0.7490 0.7490 0.7490
v -0.425000 0.900000 0.370000 0.7725 0.7725 0.7725
v -0.247574 0.912000 0.167574 0.6667 0.6667 0.6667
v -0.290000 0.900000 0.150000 0.6667 0.6667 0.6667
v -0.290000 0.912000 0.150000 0.6667 0.6667 0.6667
v -0.350000 0.900000 0.210000 0.6667 0.6667 0.6667
v -0.350000 0.912000 0.210000 0.6667 0.6667 0.6667
v -0.332426 0.912000 0.167574 0.6667 0.6667 0.6667
v -0.290000 0.912000 0.270000 0.6667 0.6667 0.6667
v -0.332426 0.912000 0.252426 0.6667 0.6667 0.6667
v -0.247574 0.900000 0.252426 0.6667 0.6667 0.6667
v -0.247574 0.912000 0.252426 0.6667 0.6667 0.6667
v -0.230000 0.900000 0.210000 0.6667 0.6667 0.6667
v -0.230000 0.912000 0.210000 0.6667 0.6667 0.6667
v -0.290000 0.900000 0.270000 0.6667 0.6667 0.6667
v -0.332426 0.900000 0.252426 0.6667 0.6667 0.6667
v -0.332426 0.900000 0.167574 0.6667 0.6667 0.6667
v -0.247574 0.900000 0.167574 0.6667 0.6667 0.6667
v -0.155000 0.930000 0.010000 0.8588 0.8588 0.8588
v -0.425000 0.930000 0.010000 0.9137 0.9137 0.9137
v -0.155000 0.900000 -0.310000 0.6706 0.6706 0.6706
v -0.425000 0.900000 -0.310000 0.7020 0.7020 0.7020
v -0.425000 0.930000 -0.310000 0.7843 0.7843 0.7843
v -0.425000 0.900000 0.010000 0.7529 0.7529 0.7529
v -0.155000 0.900000 0.010000 0.7137 0.7137 0.7137
v -0.155000 0.930000 -0.310000 0.7412 0.7412 0.7412
v -0.247574 0.900000 -0.192426 0.6667 0.6667 0.6667
v -0.247574 0.912000 -0.192426 0.6667 0.6667 0.6667
v -0.230000 0.912000 -0.150000 0.6667 0.6667 0.6667
v -0.290000 0.912000 -0.210000 0.6667 0.6667 0.6667
v -0.350000 0.900000 -0.150000 0.6667 0.6667 0.6667
v -0.332426 0.912000 -0.107574 0.6667 0.6667 0.6667
v -0.350000 0.912000 -0.150000 0.6667 0.6667 0.6667
v -0.332426 0.900000 -0.107574 0.6667 0.6667 0.6667
v -0.290000 0.912000 -0.090000 0.6667 0.6667 0.6667
v -0.247574 0.900000 -0.107574 0.6667 0.6667 0.6667
v -0.332426 0.912000 -0.192426 0.6667 0.6667 0.6667
v -0.247574 0.912000 -0.107574 0.6667 0.6667 0.6667
v -0.290000 0.900000 -0.090000 0.6667 0.6667 0.6667
v -0.332426 0.900000 -0.192426 0.6667 0.6667 0.6667
v -0.290000 0.900000 -0.210000 0.6667 0.6667 0.6667
v -0.230000 0.900000 -0.150000 0.6667 0.6667 0.6667
v 0.135000 0.900000 0.050000 0.7059 0.7059 0.7059
v -0.135000 0.900000 0.050000 0.7020 0.7020 0.7020
v -0.135000 0.930000 0.050000 0.8470 0.8470 0.8470
v 0.135000 0.930000 0.050000 0.8470 0.8470 0.8470
v 0.135000 0.900000 0.370000 0.7490 0.7490 0.7490
v 0.135000 0.930000 0.370000 0.9294 0.9294 0.9294
v -0.135000 0.930000 0.370000 0.9294 0.9294 0.9294
v -0.135000 0.900000 0.370000 0.7490 0.7490 0.7490
v 0.042426 0.912000 0.167574 0.6667 0.6667 0.6667
v 0.000000 0.912000 0.150000 0.6667 0.6667 0.6667
v 0.000000 0.900000 0.150000 0.6667 0.6667 0.6667
v -0.042426 0.900000 0.167574 0.6667 0.6667 0.6667
v -0.042426 0.912000 0.167574 0.6667 0.6667 0.6667
v -0.060000 0.912000 0.210000 0.6667 0.6667 0.6667
v -0.042426 0.900000 0.252426 0.6667 0.6667 0.6667
v -0.042426 0.912000 0.252426 0.6667 0.6667 0.6667
v -0.000000 0.900000 0.270000 0.6667 0.6667 0.6667
v 0.042426 0.912000 0.252426 0.6667 0.6667 0.6667
v -0.000000 0.912000 0.270000 0.6667 0.6667 0.6667
v 0.042426 0.900000 0.252426 0.6667 0.6667 0.6667
v 0.060000 0.900000 0.210000 0.6667 0.6667 0.6667
v 0.060000 0.912000 0.210000 0.6667 0.6667 0.6667
v -0.060000 0.900000 0.210000 0.6667 0.6667 0.6667
v 0.042426 0.900000 0.167574 0.6667 0.6667 0.6667
v -0.135000 0.900000 0.010000 0.7020 0.7020 0.7020
v 0.135000 0.930000 0.010000 0.8588 0.8588 0.8588
v 0.135000 0.900000 -0.310000 0.6706 0.6706 0.6706
v -0.135000 0.900000 -0.310000 0.6667 0.6667 0.6667
v -0.135000 0.930000 0.010000 0.8549 0.8549 0.8549
v -0.135000 0.930000 -0.310000 0.7451 0.7451 0.7451
v 0.135000 0.930000 -0.310000 0.7412 0.7412 0.7412
v 0.135000 0.900000 0.010000 0.7137 0.7137 0.7137
v 0.042426 0.900000 -0.192426 0.6667 0.6667 0.6667
v 0.042426 0.912000 -0.192426 0.6667 0.6667 0.6667
v 0.060000 0.912000 -0.150000 0.6667 0.6667 0.6667
v 0.000000 0.912000 -0.210000 0.6667 0.6667 0.6667
v -0.060000 0.900000 -0.150000 0.6667 0.6667 0.6667
v -0.042426 0.900000 -0.107574 0.6667 0.6667 0.6667
v -0.000000 0.912000 -0.090000 0.6667 0.6667 0.6667
v 0.042426 0.912000 -0.107574 0.6667 0.6667 0.6667
v 0.060000 0.900000 -0.150000 0.6667 0.6667 0.6667
v -0.042426 0.912000 -0.192426 0.6667 0.6667 0.6667
v -0.060000 0.912000 -0.150000 0.6667 0.6667 0.6667
v -0.042426 0.912000 -0.107574 0.6667 0.6667 0.6667
v 0.042426 0.900000 -0.107574 0.6667 0.6667 0.6667
v -0.000000 0.900000 -0.090000 0.6667 0.6667 0.6667
v -0.042426 0.900000 -0.192426 0.6667 0.6667 0.6667
v 0.000000 0.900000 -0.210000 0.6667 0.6667 0.6667
v 0.425000 0.900000 0.370000 0.7764 0.7764 0.7764
v 0.425000 0.930000 0.370000 0.9607 0.9607 0.9607
v 0.155000 0.930000 0.370000 0.9294 0.9294 0.9294
v 0.425000 0.900000 0.050000 0.7608 0.7608 0.7608
v 0.425000 0.930000 0.050000 0.9098 0.9098 0.9098
v 0.155000 0.930000 0.050000 0.8470 0.8470 0.8470
v 0.155000 0.900000 0.050000 0.7020 0.7020 0.7020
v 0.155000 0.900000 0.370000 0.7490 0.7490 0.7490
v 0.350000 0.900000 0.210000 0.6667 0.6667 0.6667
v 0.332426 0.912000 0.167574 0.6667 0.6667 0.6667
v 0.332426 0.900000 0.167574 0.6667 0.6667 0.6667
v 0.290000 0.900000 0.150000 0.6667 0.6667 0.6667
v 0.247574 0.900000 0.167574 0.6667 0.6667 0.6667
v 0.247574 0.912000 0.167574 0.6667 0.6667 0.6667
v 0.290000 0.912000 0.150000 0.6667 0.6667 0.6667
v 0.230000 0.900000 0.210000 0.6667 0.6667 0.6667
v 0.230000 0.912000 0.210000 0.6667 0.6667 0.6667
v 0.290000 0.912000 0.270000 0.6667 0.6667 0.6667
v 0.332426 0.900000 0.252426 0.6667 0.6667 0.6667
v 0.332426 0.912000 0.252426 0.6667 0.6667 0.6667
v 0.350000 0.912000 0.210000 0.6667 0.6667 0.6667
v 0.247574 0.912000 0.252426 0.6667 0.6667 0.6667
v 0.290000 0.900000 0.270000 0.6667 0.6667 0.6667
v 0.247574 0.900000 0.252426 0.6667 0.6667 0.6667
v 0.425000 0.900000 0.010000 0.7608 0.7608 0.7608
v 0.155000 0.900000 0.010000 0.7020 0.7020 0.7020
v 0.425000 0.930000 -0.310000 0.7843 0.7843 0.7843
v 0.425000 0.930000 0.010000 0.9215 0.9215 0.9215
v 0.155000 0.930000 0.010000 0.8549 0.8549 0.8549
v 0.155000 0.930000 -0.310000 0.7451 0.7451 0.7451
v 0.155000 0.900000 -0.310000 0.6667 0.6667 0.6667
v 0.425000 0.900000 -0.310000 0.7059 0.7059 0.7059
v 0.350000 0.900000 -0.150000 0.6667 0.6667 0.6667
v 0.332426 0.912000 -0.192426 0.6667 0.6667 0.6667
v 0.230000 0.900000 -0.150000 0.6667 0.6667 0.6667
v 0.247574 0.912000 -0.192426 0.6667 0.6667 0.6667
v 0.247574 0.912000 -0.107574 0.6667 0.6667 0.6667
v 0.290000 0.900000 -0.090000 0.6667 0.6667 0.6667
v 0.332426 0.912000 -0.107574 0.6667 0.6667 0.6667
v 0.290000 0.912000 -0.090000 0.6667 0.6667 0.6667
v 0.332426 0.900000 -0.107574 0.6667 0.6667 0.6667
v 0.350000 0.912000 -0.150000 0.6667 0.6667 0.6667
v 0.290000 0.912000 -0.210000 0.6667 0.6667 0.6667
v 0.230000 0.912000 -0.150000 0.6667 0.6667 0.6667
v 0.247574 0.900000 -0.107574 0.6667 0.6667 0.6667
v 0.247574 0.900000 -0.192426 0.6667 0.6667 0.6667
v 0.290000 0.900000 -0.210000 0.6667 0.6667 0.6667
v 0.332426 0.900000 -0.192426 0.6667 0.6667 0.6667
vn -0.0000 -0.0000 1.0000
vn -0.0000 -0.0000 -1.0000
vn -1.0000 -0.0000 -0.0000
vn 1.0000 -0.0000 -0.0000
vn -0.0000 -1.0000 -0.0000
vn 0.8657 -0.0289 -0.4998
vn -0.0000 -0.0289 -0.9996
vn -0.8657 -0.0289 -0.4998
vn -0.8657 -0.0289 0.4998
vn -0.0000 -0.0289 0.9996
vn 0.8657 -0.0289 0.4998
vn -0.0000 1.0000 -0.0000
vn 0.8660 -0.0000 -0.5000
vn -0.8660 -0.0000 -0.5000
vn -0.8660 -0.0000 0.5000
vn 0.8660 -0.0000 0.5000
vn 0.7071 -0.0000 -0.7071
vn -0.7071 -0.0000 -0.7071
vn -0.7071 -0.0000 0.7071
vn 0.7071 -0.0000 0.7071
vt 0.844238 0.969238
vt 0.874512 0.969238
vt 0.874512 0.999512
vt 0.844238 0.999512
vt 0.937988 0.969238
vt 0.968262 0.969238
vt 0.968262 0.993918
vt 0.937988 0.993918
vt 0.968262 0.997620
vt 0.937988 0.997620
vt 0.968262 0.995563
vt 0.937988 0.995563
vt 0.375488 0.969238
vt 0.380534 0.969238
vt 0.380534 0.999512
vt 0.375488 0.999512
vt 0.385579 0.969238
vt 0.385579 0.999512
vt 0.390625 0.969238
vt 0.390625 0.999512
vt 0.395671 0.969238
vt 0.395671 0.999512
vt 0.400716 0.969238
vt 0.400716 0.999512
vt 0.405762 0.969238
vt 0.405762 0.999512
vt 0.405762 0.984375
vt 0.398193 0.999512
vt 0.383057 0.999512
vt 0.375488 0.984375
vt 0.383057 0.969238
vt 0.398193 0.969238
vt 0.250488 0.969238
vt 0.255534 0.969238
vt 0.255534 0.999512
vt 0.250488 0.999512
vt 0.260579 0.969238
vt 0.260579 0.999512
vt 0.265625 0.969238
vt 0.265625 0.999512
vt 0.270671 0.969238
vt 0.270671 0.999512
vt 0.275716 0.969238
vt 0.275716 0.999512
vt 0.280762 0.969238
vt 0.280762 0.999512
vt 0.280762 0.984375
vt 0.273193 0.999512
vt 0.258057 0.999512
vt 0.250488 0.984375
vt 0.258057 0.969238
vt 0.273193 0.969238
vt 0.094238 0.906738
vt 0.124512 0.906738
vt 0.124512 0.907396
vt 0.094238 0.907396
vt 0.124512 0.907495
vt 0.094238 0.907495
vt 0.124512 0.933063
vt 0.094238 0.933063
vt 0.968262 0.985691
vt 0.937988 0.985691
vt 0.942832 0.969238
vt 0.942832 0.999512
vt 0.937988 0.999512
vt 0.968262 0.971871
vt 0.937988 0.971871
vt 0.968262 0.969896
vt 0.937988 0.969896
vt 0.968262 0.971660
vt 0.937988 0.971660
vt 0.968262 0.977465
vt 0.937988 0.977465
vt 0.383301 0.930176
vt 0.444824 0.930176
vt 0.444824 0.937012
vt 0.383301 0.937012
vt 0.968262 0.972602
vt 0.937988 0.972602
vt 0.942832 0.993457
vt 0.937988 0.993457
vt 0.968262 0.969911
vt 0.937988 0.969911
vt 0.469238 0.969238
vt 0.499512 0.969238
vt 0.499512 0.972602
vt 0.469238 0.972602
vt 0.499512 0.972076
vt 0.469238 0.972076
vt 0.328613 0.922363
vt 0.343262 0.922363
vt 0.343262 0.937012
vt 0.328613 0.937012
vt 0.494781 0.969238
vt 0.494781 0.999512
vt 0.469238 0.999512
vt 0.473022 0.969238
vt 0.473022 0.999512
vt 0.476807 0.969238
vt 0.476807 0.999512
vt 0.480591 0.969238
vt 0.480591 0.999512
vt 0.484375 0.969238
vt 0.484375 0.999512
vt 0.488159 0.969238
vt 0.488159 0.999512
vt 0.491943 0.969238
vt 0.491943 0.999512
vt 0.495728 0.969238
vt 0.495728 0.999512
vt 0.499512 0.999512
vt 0.499512 0.984375
vt 0.495078 0.995078
vt 0.473672 0.995078
vt 0.469238 0.984375
vt 0.473672 0.973672
vt 0.495078 0.973672
s 0
usemtl props
f 1/1/1 2/2/1 3/3/1 4/4/1
f 6/5/2 7/6/2 5/7/2 106/8/2
f 7/5/3 1/6/3 4/9/3 5/10/3
f 2/5/4 6/6/4 106/9/4 3/10/4
f 7/5/5 6/6/5 2/11/5 1/12/5
s 1
f 16/13/6 8/14/6 9/15/6 17/16/6
f 8/14/7 10/17/7 18/18/7 9/15/7
f 10/17/8 12/19/8 11/20/8 18/18/8
f 12/19/9 13/21/9 19/22/9 11/20/9
f 13/21/10 14/23/10 15/24/10 19/22/10
f 14/23/11 16/25/11 17/26/11 15/24/11
s 0
f 17/27/12 9/28/12 18/29/12 11/30/12 19/31/12 15/32/12
s 1
f 28/13/6 20/14/6 30/15/6 29/16/6
f 20/14/7 22/17/7 21/18/7 30/15/7
f 22/17/8 23/19/8 31/20/8 21/18/8
f 23/19/9 24/21/9 27/22/9 31/20/9
f 24/21/10 25/23/10 26/24/10 27/22/10
f 25/23/11 28/25/11 29/26/11 26/24/11
s 0
f 29/27/12 30/28/12 21/29/12 31/30/12 27/31/12 26/32/12
s 1
f 40/13/6 32/14/6 42/15/6 41/16/6
f 32/14/7 33/17/7 36/18/7 42/15/7
f 33/17/8 34/19/8 35/20/8 36/18/8
f 34/19/9 37/21/9 39/22/9 35/20/9
f 37/21/10 38/23/10 43/24/10 39/22/10
f 38/23/11 40/25/11 41/26/11 43/24/11
s 0
f 41/27/12 42/28/12 36/29/12 35/30/12 39/31/12 43/32/12
s 1
f 44/13/6 46/14/6 54/15/6 45/16/6
f 46/14/7 48/17/7 47/18/7 54/15/7
f 48/17/8 50/19/8 49/20/8 47/18/8
f 50/19/9 52/21/9 51/22/9 49/20/9
f 52/21/10 53/23/10 55/24/10 51/22/10
f 53/23/11 44/25/11 45/26/11 55/24/11
s 0
f 45/27/12 54/28/12 47/29/12 49/30/12 51/31/12 55/32/12
s 1
f 56/33/13 57/34/13 58/35/13 63/36/13
f 57/34/2 60/37/2 59/38/2 58/35/2
f 60/37/14 67/39/14 61/40/14 59/38/14
f 67/39/15 66/41/15 62/42/15 61/40/15
f 66/41/1 65/43/1 64/44/1 62/42/1
f 65/43/16 56/45/16 63/46/16 64/44/16
s 0
f 63/47/12 58/48/12 59/49/12 61/50/12 62/51/12 64/52/12
f 65/48/5 66/49/5 67/50/5 60/51/5 57/52/5 56/47/5
s 1
f 75/33/13 79/34/13 70/35/13 76/36/13
f 79/34/2 68/37/2 69/38/2 70/35/2
f 68/37/14 78/39/14 73/40/14 69/38/14
f 78/39/15 71/41/15 72/42/15 73/40/15
f 71/41/1 77/43/1 74/44/1 72/42/1
f 77/43/16 75/45/16 76/46/16 74/44/16
s 0
f 76/47/12 70/48/12 69/49/12 73/50/12 72/51/12 74/52/12
f 77/48/5 71/49/5 78/50/5 68/51/5 79/52/5 75/47/5
s 1
f 88/33/13 81/34/13 83/35/13 80/36/13
f 81/34/2 82/37/2 84/38/2 83/35/2
f 82/37/14 91/39/14 85/40/14 84/38/14
f 91/39/15 86/41/15 89/42/15 85/40/15
f 86/41/1 87/43/1 90/44/1 89/42/1
f 87/43/16 88/45/16 80/46/16 90/44/16
s 0
f 80/47/12 83/48/12 84/49/12 85/50/12 89/51/12 90/52/12
f 87/48/5 86/49/5 91/50/5 82/51/5 81/52/5 88/47/5
s 1
f 103/33/13 93/34/13 99/35/13 92/36/13
f 93/34/2 95/37/2 94/38/2 99/35/2
f 95/37/14 102/39/14 96/40/14 94/38/14
f 102/39/15 101/41/15 100/42/15 96/40/15
f 101/41/1 97/43/1 98/44/1 100/42/1
f 97/43/16 103/45/16 92/46/16 98/44/16
s 0
f 92/47/12 99/48/12 94/49/12 96/50/12 100/51/12 98/52/12
f 97/48/5 101/49/5 102/50/5 95/51/5 93/52/5 103/47/5
f 108/53/1 104/54/1 3/55/1 4/56/1
f 105/53/2 107/54/2 5/55/2 106/56/2
f 107/53/3 108/54/3 4/57/3 5/58/3
f 104/53/4 105/54/4 106/57/4 3/58/4
f 4/53/12 3/54/12 106/59/12 5/60/12
f 107/53/5 105/54/5 104/59/5 108/60/5
f 109/5/1 114/6/1 110/61/1 112/62/1
f 106/5/2 5/6/2 111/61/2 113/62/2
f 5/5/3 109/63/3 112/64/3 111/65/3
f 114/5/4 106/63/4 113/64/4 110/65/4
f 112/5/12 110/6/12 113/66/12 111/67/12
f 5/5/5 106/6/5 114/66/5 109/67/5
f 115/5/1 118/6/1 120/68/1 116/69/1
f 119/5/2 122/6/2 117/68/2 121/69/2
f 122/5/3 115/6/3 116/70/3 117/71/3
f 118/5/4 119/6/4 121/70/4 120/71/4
f 116/5/12 120/6/12 121/72/12 117/73/12
f 122/5/5 119/6/5 118/72/5 115/73/5
f 124/74/1 126/75/1 128/76/1 125/77/1
f 127/5/2 130/6/2 123/78/2 129/79/2
f 130/5/3 124/63/3 125/80/3 123/81/3
f 126/5/4 127/63/4 129/80/4 128/81/4
f 125/5/12 128/6/12 129/82/12 123/83/12
f 130/5/5 127/6/5 126/82/5 124/83/5
f 138/84/1 137/85/1 131/86/1 136/87/1
f 134/84/2 133/85/2 132/86/2 135/87/2
f 133/84/3 138/85/3 136/88/3 132/89/3
f 137/84/4 134/85/4 135/88/4 131/89/4
f 136/90/12 131/91/12 135/92/12 132/93/12
f 133/84/5 134/94/5 137/95/5 138/96/5
s 1
f 149/84/4 154/97/17 139/98/17 150/96/4
f 154/97/17 140/99/2 141/100/2 139/98/17
f 140/99/2 153/101/18 144/102/18 141/100/2
f 153/101/18 142/103/3 143/104/3 144/102/18
f 142/103/3 152/105/19 146/106/19 143/104/3
f 152/105/19 151/107/1 145/108/1 146/106/19
f 151/107/1 147/109/20 148/110/20 145/108/1
f 147/109/20 149/85/4 150/111/4 148/110/20
s 0
f 150/112/12 139/113/12 141/104/12 144/114/12 143/115/12 146/116/12 145/103/12 148/117/12
f 147/113/5 151/104/5 152/114/5 142/115/5 153/116/5 140/103/5 154/117/5 149/112/5
f 160/84/1 161/85/1 155/86/1 156/87/1
f 157/84/2 158/85/2 159/86/2 162/87/2
f 158/84/3 160/85/3 156/88/3 159/89/3
f 161/84/4 157/85/4 162/88/4 155/89/4
f 156/90/12 155/91/12 162/92/12 159/93/12
f 158/84/5 157/94/5 161/95/5 160/96/5
s 1
f 178/84/4 163/97/17 164/98/17 165/96/4
f 163/97/17 177/99/2 166/100/2 164/98/17
f 177/99/2 176/101/18 173/102/18 166/100/2
f 176/101/18 167/103/3 169/104/3 173/102/18
f 167/103/3 170/105/19 168/106/19 169/104/3
f 170/105/19 175/107/1 171/108/1 168/106/19
f 175/107/1 172/109/20 174/110/20 171/108/1
f 172/109/20 178/85/4 165/111/4 174/110/20
s 0
f 165/112/12 164/113/12 166/104/12 173/114/12 169/115/12 168/116/12 171/103/12 174/117/12
f 172/113/5 175/104/5 170/114/5 167/115/5 176/116/5 177/103/5 163/117/5 178/112/5
f 186/84/1 183/85/1 184/86/1 185/87/1
f 179/84/2 180/85/2 181/86/2 182/87/2
f 180/84/3 186/85/3 185/88/3 181/89/3
f 183/84/4 179/85/4 182/88/4 184/89/4
f 185/90/12 184/91/12 182/92/12 181/93/12
f 180/84/5 179/94/5 183/95/5 186/96/5
s 1
f 199/84/4 202/97/17 187/98/17 200/96/4
f 202/97/17 189/99/2 188/100/2 187/98/17
f 189/99/2 190/101/18 191/102/18 188/100/2
f 190/101/18 201/103/3 192/104/3 191/102/18
f 201/103/3 193/105/19 194/106/19 192/104/3
f 193/105/19 195/107/1 197/108/1 194/106/19
f 195/107/1 198/109/20 196/110/20 197/108/1
f 198/109/20 199/85/4 200/111/4 196/110/20
s 0
f 200/112/12 187/113/12 188/104/12 191/114/12 192/115/12 194/116/12 197/103/12 196/117/12
f 198/113/5 195/104/5 193/114/5 201/115/5 190/116/5 189/103/5 202/117/5 199/112/5
f 203/84/1 210/85/1 204/86/1 207/87/1
f 205/84/2 206/85/2 208/86/2 209/87/2
f 206/84/3 203/85/3 207/88/3 208/89/3
f 210/84/4 205/85/4 209/88/4 204/89/4
f 207/90/12 204/91/12 209/92/12 208/93/12
f 206/84/5 205/94/5 210/95/5 203/96/5
s 1
f 219/84/4 211/97/17 212/98/17 213/96/4
f 211/97/17 226/99/2 214/100/2 212/98/17
f 226/99/2 225/101/18 220/102/18 214/100/2
f 225/101/18 215/103/3 221/104/3 220/102/18
f 215/103/3 216/105/19 222/106/19 221/104/3
f 216/105/19 224/107/1 217/108/1 222/106/19
f 224/107/1 223/109/20 218/110/20 217/108/1
f 223/109/20 219/85/4 213/111/4 218/110/20
s 0
f 213/112/12 212/113/12 214/104/12 220/114/12 221/115/12 222/116/12 217/103/12 218/117/12
f 223/113/5 224/104/5 216/114/5 215/115/5 225/116/5 226/103/5 211/117/5 219/112/5
f 234/84/1 227/85/1 228/86/1 229/87/1
f 230/84/2 233/85/2 232/86/2 231/87/2
f 233/84/3 234/85/3 229/88/3 232/89/3
f 227/84/4 230/85/4 231/88/4 228/89/4
f 229/90/12 228/91/12 231/92/12 232/93/12
f 233/84/5 230/94/5 227/95/5 234/96/5
s 1
f 235/84/4 237/97/17 236/98/17 247/96/4
f 237/97/17 238/99/2 241/100/2 236/98/17
f 238/99/2 239/101/18 240/102/18 241/100/2
f 239/101/18 242/103/3 243/104/3 240/102/18
f 242/103/3 250/105/19 248/106/19 243/104/3
f 250/105/19 249/107/1 244/108/1 248/106/19
f 249/107/1 245/109/20 246/110/20 244/108/1
f 245/109/20 235/85/4 247/111/4 246/110/20
s 0
f 247/112/12 236/113/12 241/104/12 240/114/12 243/115/12 248/116/12 244/103/12 246/117/12
f 245/113/5 249/104/5 250/114/5 242/115/5 239/116/5 238/103/5 237/117/5 235/112/5
f 252/84/1 251/85/1 254/86/1 255/87/1
f 258/84/2 257/85/2 256/86/2 253/87/2
f 257/84/3 252/85/3 255/88/3 256/89/3
f 251/84/4 258/85/4 253/88/4 254/89/4
f 255/90/12 254/91/12 253/92/12 256/93/12
f 257/84/5 258/94/5 251/95/5 252/96/5
s 1
f 259/84/4 274/97/17 260/98/17 268/96/4
f 274/97/17 273/99/2 269/100/2 260/98/17
f 273/99/2 272/101/18 262/102/18 269/100/2
f 272/101/18 261/103/3 270/104/3 262/102/18
f 261/103/3 271/105/19 263/106/19 270/104/3
f 271/105/19 264/107/1 266/108/1 263/106/19
f 264/107/1 267/109/20 265/110/20 266/108/1
f 267/109/20 259/85/4 268/111/4 265/110/20
s 0
f 268/112/12 260/113/12 269/104/12 262/114/12 270/115/12 263/116/12 266/103/12 265/117/12
f 267/113/5 264/104/5 271/114/5 261/115/5 272/116/5 273/103/5 274/117/5 259/112/5
o range_six_door
v -0.430000 0.200000 0.430000 0.8274 0.8274 0.8274
v 0.430000 0.200000 0.430000 0.8313 0.8313 0.8313
v -0.430000 0.650000 0.400000 0.8157 0.8157 0.8157
v -0.430000 0.200000 0.400000 0.7568 0.7568 0.7568
v -0.430000 0.650000 0.430000 0.9333 0.9333 0.9333
v 0.430000 0.650000 0.430000 0.9333 0.9333 0.9333
v 0.430000 0.650000 0.400000 0.8117 0.8117 0.8117
v 0.430000 0.200000 0.400000 0.7529 0.7529 0.7529
vn -0.0000 -0.0000 1.0000
vn -0.0000 -0.0000 -1.0000
vn -1.0000 -0.0000 -0.0000
vn 1.0000 -0.0000 -0.0000
vn -0.0000 1.0000 -0.0000
vn -0.0000 -1.0000 -0.0000
vt 0.656738 0.969238
vt 0.687012 0.969238
vt 0.687012 0.999512
vt 0.656738 0.999512
vt 0.937988 0.969238
vt 0.968262 0.969238
vt 0.968262 0.985079
vt 0.937988 0.985079
vt 0.940006 0.969238
vt 0.940006 0.999512
vt 0.937988 0.999512
vt 0.968262 0.970294
vt 0.937988 0.970294
s 0
usemtl props
f 275/118/21 276/119/21 280/120/21 279/121/21
f 282/122/22 278/123/22 277/124/22 281/125/22
f 278/122/23 275/126/23 279/127/23 277/128/23
f 276/122/24 282/126/24 281/127/24 280/128/24
f 279/122/25 280/123/25 281/129/25 277/130/25
f 278/122/26 282/123/26 276/129/26 275/130/26
o range_six_flames
v -0.220000 0.870000 0.210000 0.7059 0.7059 0.7059
v -0.268787 0.905000 0.188787 0.6667 0.6667 0.6667
v -0.260000 0.905000 0.210000 0.6667 0.6667 0.6667
v -0.240503 0.870000 0.160503 0.7059 0.7059 0.7059
v -0.290000 0.870000 0.140000 0.6980 0.6980 0.6980
v -0.339497 0.870000 0.160503 0.6785 0.6785 0.6785
v -0.360000 0.870000 0.210000 0.6667 0.6667 0.6667
v -0.311213 0.905000 0.188787 0.6667 0.6667 0.6667
v -0.339497 0.870000 0.259497 0.6667 0.6667 0.6667
v -0.311213 0.905000 0.231213 0.6667 0.6667 0.6667
v -0.290000 0.870000 0.280000 0.6667 0.6667 0.6667
v -0.240503 0.870000 0.259497 0.6824 0.6824 0.6824
v -0.290000 0.905000 0.180000 0.6667 0.6667 0.6667
v -0.320000 0.905000 0.210000 0.6667 0.6667 0.6667
v -0.290000 0.905000 0.240000 0.6667 0.6667 0.6667
v -0.268787 0.905000 0.231213 0.6667 0.6667 0.6667
v -0.220000 0.870000 -0.150000 0.7020 0.7020 0.7020
v -0.260000 0.905000 -0.150000 0.6667 0.6667 0.6667
v -0.240503 0.870000 -0.199497 0.6824 0.6824 0.6824
v -0.290000 0.870000 -0.220000 0.6667 0.6667 0.6667
v -0.290000 0.905000 -0.180000 0.6667 0.6667 0.6667
v -0.339497 0.870000 -0.199497 0.6667 0.6667 0.6667
v -0.320000 0.905000 -0.150000 0.6667 0.6667 0.6667
v -0.311213 0.905000 -0.171213 0.6667 0.6667 0.6667
v -0.360000 0.870000 -0.150000 0.6667 0.6667 0.6667
v -0.339497 0.870000 -0.100503 0.6706 0.6706 0.6706
v -0.290000 0.870000 -0.080000 0.6863 0.6863 0.6863
v -0.290000 0.905000 -0.120000 0.6667 0.6667 0.6667
v -0.240503 0.870000 -0.100503 0.7059 0.7059 0.7059
v -0.268787 0.905000 -0.171213 0.6667 0.6667 0.6667
v -0.311213 0.905000 -0.128787 0.6667 0.6667 0.6667
v -0.268787 0.905000 -0.128787 0.6667 0.6667 0.6667
v 0.070000 0.870000 0.210000 0.6824 0.6824 0.6824
v 0.021213 0.905000 0.188787 0.6667 0.6667 0.6667
v 0.049497 0.870000 0.160503 0.6902 0.6902 0.6902
v 0.000000 0.870000 0.140000 0.7059 0.7059 0.7059
v -0.049497 0.870000 0.160503 0.6941 0.6941 0.6941
v 0.000000 0.905000 0.180000 0.6667 0.6667 0.6667
v -0.070000 0.870000 0.210000 0.6745 0.6745 0.6745
v -0.030000 0.905000 0.210000 0.6667 0.6667 0.6667
v -0.049497 0.870000 0.259497 0.6667 0.6667 0.6667
v -0.000000 0.870000 0.280000 0.6667 0.6667 0.6667
v 0.021213 0.905000 0.231213 0.6667 0.6667 0.6667
v 0.049497 0.870000 0.259497 0.6667 0.6667 0.6667
v 0.030000 0.905000 0.210000 0.6667 0.6667 0.6667
v -0.021213 0.905000 0.188787 0.6667 0.6667 0.6667
v -0.021213 0.905000 0.231213 0.6667 0.6667 0.6667
v -0.000000 0.905000 0.240000 0.6667 0.6667 0.6667
v 0.049497 0.870000 -0.199497 0.6667 0.6667 0.6667
v 0.030000 0.905000 -0.150000 0.6667 0.6667 0.6667
v 0.000000 0.870000 -0.220000 0.6706 0.6706 0.6706
v 0.000000 0.905000 -0.180000 0.6667 0.6667 0.6667
v 0.021213 0.905000 -0.171213 0.6667 0.6667 0.6667
v -0.049497 0.870000 -0.199497 0.6667 0.6667 0.6667
v -0.070000 0.870000 -0.150000 0.6785 0.6785 0.6785
v -0.049497 0.870000 -0.100503 0.6980 0.6980 0.6980
v -0.021213 0.905000 -0.128787 0.6667 0.6667 0.6667
v -0.000000 0.870000 -0.080000 0.6980 0.6980 0.6980
v 0.049497 0.870000 -0.100503 0.6902 0.6902 0.6902
v -0.000000 0.905000 -0.120000 0.6667 0.6667 0.6667
v 0.070000 0.870000 -0.150000 0.6745 0.6745 0.6745
v 0.021213 0.905000 -0.128787 0.6667 0.6667 0.6667
v -0.021213 0.905000 -0.171213 0.6667 0.6667 0.6667
v -0.030000 0.905000 -0.150000 0.6667 0.6667 0.6667
v 0.339497 0.870000 0.160503 0.6745 0.6745 0.6745
v 0.290000 0.870000 0.140000 0.6902 0.6902 0.6902
v 0.240503 0.870000 0.160503 0.7059 0.7059 0.7059
v 0.260000 0.905000 0.210000 0.6667 0.6667 0.6667
v 0.268787 0.905000 0.188787 0.6667 0.6667 0.6667
v 0.220000 0.870000 0.210000 0.6980 0.6980 0.6980
v 0.268787 0.905000 0.231213 0.6667 0.6667 0.6667
v 0.240503 0.870000 0.259497 0.6785 0.6785 0.6785
v 0.290000 0.905000 0.240000 0.6667 0.6667 0.6667
v 0.290000 0.870000 0.280000 0.6667 0.6667 0.6667
v 0.339497 0.870000 0.259497 0.6667 0.6667 0.6667
v 0.360000 0.870000 0.210000 0.6667 0.6667 0.6667
v 0.311213 0.905000 0.231213 0.6667 0.6667 0.6667
v 0.320000 0.905000 0.210000 0.6667 0.6667 0.6667
v 0.311213 0.905000 0.188787 0.6667 0.6667 0.6667
v 0.290000 0.905000 0.180000 0.6667 0.6667 0.6667
v 0.360000 0.870000 -0.150000 0.6667 0.6667 0.6667
v 0.339497 0.870000 -0.199497 0.6667 0.6667 0.6667
v 0.320000 0.905000 -0.150000 0.6667 0.6667 0.6667
v 0.290000 0.870000 -0.220000 0.6667 0.6667 0.6667
v 0.311213 0.905000 -0.171213 0.6667 0.6667 0.6667
v 0.240503 0.870000 -0.199497 0.6824 0.6824 0.6824
v 0.268787 0.905000 -0.171213 0.6667 0.6667 0.6667
v 0.290000 0.905000 -0.180000 0.6667 0.6667 0.6667
v 0.220000 0.870000 -0.150000 0.7020 0.7020 0.7020
v 0.240503 0.870000 -0.100503 0.7059 0.7059 0.7059
v 0.268787 0.905000 -0.128787 0.6667 0.6667 0.6667
v 0.290000 0.870000 -0.080000 0.6863 0.6863 0.6863
v 0.339497 0.870000 -0.100503 0.6745 0.6745 0.6745
v 0.290000 0.905000 -0.120000 0.6667 0.6667 0.6667
v 0.311213 0.905000 -0.128787 0.6667 0.6667 0.6667
v 0.260000 0.905000 -0.150000 0.6667 0.6667 0.6667
vn 0.6585 0.7526 -0.0000
vn 0.4656 0.7526 -0.4656
vn -0.0000 0.7526 -0.6585
vn -0.4656 0.7526 -0.4656
vn -0.6585 0.7526 -0.0000
vn -0.4656 0.7526 0.4656
vn -0.0000 0.7526 0.6585
vn 0.4656 0.7526 0.4656
vn -0.0000 1.0000 -0.0000
vt 0.375488 0.922363
vt 0.376343 0.922363
vt 0.376343 0.937012
vt 0.375488 0.937012
vt 0.377197 0.922363
vt 0.377197 0.937012
vt 0.378052 0.922363
vt 0.378052 0.937012
vt 0.378906 0.922363
vt 0.378906 0.937012
vt 0.379761 0.922363
vt 0.379761 0.937012
vt 0.380615 0.922363
vt 0.380615 0.937012
vt 0.381470 0.922363
vt 0.381470 0.937012
vt 0.382324 0.922363
vt 0.382324 0.937012
vt 0.382324 0.929688
vt 0.381323 0.934866
vt 0.376489 0.934866
vt 0.375488 0.929688
vt 0.376489 0.924509
vt 0.381323 0.924509
s 1
usemtl props
f 283/131/27 286/132/28 284/133/28 285/134/27
f 286/132/28 287/135/29 295/136/29 284/133/28
f 287/135/29 288/137/30 290/138/30 295/136/29
f 288/137/30 289/139/31 296/140/31 290/138/30
f 289/139/31 291/141/32 292/142/32 296/140/31
f 291/141/32 293/143/33 297/144/33 292/142/32
f 293/143/33 294/145/34 298/146/34 297/144/33
f 294/145/34 283/147/27 285/148/27 298/146/34
s 0
f 285/149/35 284/150/35 295/140/35 290/151/35 296/152/35 292/153/35 297/139/35 298/154/35
s 1
f 299/131/27 301/132/28 312/133/28 300/134/27
f 301/132/28 302/135/29 303/136/29 312/133/28
f 302/135/29 304/137/30 306/138/30 303/136/29
f 304/137/30 307/139/31 305/140/31 306/138/30
f 307/139/31 308/141/32 313/142/32 305/140/31
f 308/141/32 309/143/33 310/144/33 313/142/32
f 309/143/33 311/145/34 314/146/34 310/144/33
f 311/145/34 299/147/27 300/148/27 314/146/34
s 0
f 300/149/35 312/150/35 303/140/35 306/151/35 305/152/35 313/153/35 310/139/35 314/154/35
s 1
f 315/131/27 317/132/28 316/133/28 327/134/27
f 317/132/28 318/135/29 320/136/29 316/133/28
f 318/135/29 319/137/30 328/138/30 320/136/29
f 319/137/30 321/139/31 322/140/31 328/138/30
f 321/139/31 323/141/32 329/142/32 322/140/31
f 323/141/32 324/143/33 330/144/33 329/142/32
f 324/143/33 326/145/34 325/146/34 330/144/33
f 326/145/34 315/147/27 327/148/27 325/146/34
s 0
f 327/149/35 316/150/35 320/140/35 328/151/35 322/152/35 329/153/35 330/139/35 325/154/35
s 1
f 343/131/27 331/132/28 335/133/28 332/134/27
f 331/132/28 333/135/29 334/136/29 335/133/28
f 333/135/29 336/137/30 345/138/30 334/136/29
f 336/137/30 337/139/31 346/140/31 345/138/30
f 337/139/31 338/141/32 339/142/32 346/140/31
f 338/141/32 340/143/33 342/144/33 339/142/32
f 340/143/33 341/145/34 344/146/34 342/144/33
f 341/145/34 343/147/27 332/148/27 344/146/34
s 0
f 332/149/35 335/150/35 334/140/35 345/151/35 346/152/35 339/153/35 342/139/35 344/154/35
s 1
f 358/131/27 347/132/28 361/133/28 360/134/27
f 347/132/28 348/135/29 362/136/29 361/133/28
f 348/135/29 349/137/30 351/138/30 362/136/29
f 349/137/30 352/139/31 350/140/31 351/138/30
f 352/139/31 354/141/32 353/142/32 350/140/31
f 354/141/32 356/143/33 355/144/33 353/142/32
f 356/143/33 357/145/34 359/146/34 355/144/33
f 357/145/34 358/147/27 360/148/27 359/146/34
s 0
f 360/149/35 361/150/35 362/140/35 351/151/35 350/152/35 353/153/35 355/139/35 359/154/35
s 1
f 363/131/27 364/132/28 367/133/28 365/134/27
f 364/132/28 366/135/29 370/136/29 367/133/28
f 366/135/29 368/137/30 369/138/30 370/136/29
f 368/137/30 371/139/31 378/140/31 369/138/30
f 371/139/31 372/141/32 373/142/32 378/140/31
f 372/141/32 374/143/33 376/144/33 373/142/32
f 374/143/33 375/145/34 377/146/34 376/144/33
f 375/145/34 363/147/27 365/148/27 377/146/34
s 0
f 365/149/35 367/150/35 370/140/35 369/151/35 378/152/35 373/153/35 376/139/35 377/154/35
