# Blender 4.5.14 LTS
# www.blender.org
mtllib soda_cup.mtl
o soda_cup
v 0.032400 0.000000 0.000000 0.7490 0.7490 0.7490
v -0.010012 0.000000 -0.030814 0.7451 0.7451 0.7451
v 0.000000 0.000000 0.000000 0.6667 0.6667 0.6667
v -0.032400 0.000000 -0.000000 0.7412 0.7412 0.7412
v -0.010012 0.000000 0.030814 0.7412 0.7412 0.7412
v -0.026212 0.000000 0.019044 0.7412 0.7412 0.7412
v 0.045000 0.170000 0.000000 0.8039 0.8039 0.8039
v 0.026212 0.000000 -0.019044 0.7490 0.7490 0.7490
v 0.010012 0.000000 -0.030814 0.7451 0.7451 0.7451
v 0.013906 0.170000 -0.042798 0.8078 0.8078 0.8078
v -0.026212 0.000000 -0.019044 0.7412 0.7412 0.7412
v -0.036406 0.170000 -0.026450 0.8078 0.8078 0.8078
v -0.045000 0.170000 -0.000000 0.8039 0.8039 0.8039
v 0.010012 0.000000 0.030814 0.7412 0.7412 0.7412
v -0.013906 0.170000 0.042798 0.8078 0.8078 0.8078
v 0.013906 0.170000 0.042798 0.8078 0.8078 0.8078
v 0.026212 0.000000 0.019044 0.7451 0.7451 0.7451
v 0.036406 0.170000 0.026450 0.8078 0.8078 0.8078
v 0.036406 0.170000 -0.026450 0.8039 0.8039 0.8039
v -0.013906 0.170000 -0.042798 0.8078 0.8078 0.8078
v -0.036406 0.170000 0.026450 0.8039 0.8039 0.8039
v 0.000000 0.170000 0.000000 0.6667 0.6667 0.6667
v 0.048000 0.170000 0.000000 0.9568 0.9568 0.9568
v 0.038833 0.170000 -0.028214 0.9568 0.9568 0.9568
v 0.048000 0.180000 0.000000 0.9921 0.9921 0.9921
v 0.014833 0.180000 -0.045651 0.9960 0.9960 0.9960
v -0.014833 0.170000 -0.045651 0.9568 0.9568 0.9568
v -0.038833 0.180000 -0.028214 0.9960 0.9960 0.9960
v -0.014833 0.180000 -0.045651 0.9960 0.9960 0.9960
v -0.038833 0.170000 -0.028214 0.9607 0.9607 0.9607
v -0.048000 0.170000 -0.000000 0.9607 0.9607 0.9607
v -0.038833 0.180000 0.028214 0.9960 0.9960 0.9960
v 0.014833 0.170000 0.045651 0.9568 0.9568 0.9568
v -0.014833 0.180000 0.045651 0.9921 0.9921 0.9921
v 0.038833 0.170000 0.028214 0.9607 0.9607 0.9607
v 0.038833 0.180000 0.028214 0.9960 0.9960 0.9960
v 0.038833 0.180000 -0.028214 0.9960 0.9960 0.9960
v -0.048000 0.180000 -0.000000 1.0000 1.0000 1.0000
v 0.014833 0.180000 0.045651 0.9921 0.9921 0.9921
v -0.014833 0.170000 0.045651 0.9568 0.9568 0.9568
v -0.038833 0.170000 0.028214 0.9607 0.9607 0.9607
v 0.014833 0.170000 -0.045651 0.9568 0.9568 0.9568
v 0.007224 0.169828 -0.003804 0.6785 0.6785 0.6785
v 0.022487 0.258567 0.000000 0.9882 0.9882 0.9882
v 0.015321 0.259575 -0.002351 0.9921 0.9921 0.9921
v 0.019750 0.258952 -0.003804 0.9921 0.9921 0.9921
v 0.002795 0.170450 -0.002351 0.6785 0.6785 0.6785
v 0.002795 0.170450 0.002351 0.6785 0.6785 0.6785
v 0.019750 0.258952 0.003804 0.9843 0.9843 0.9843
v 0.015321 0.259575 0.002351 0.9843 0.9843 0.9843
v 0.007224 0.169828 0.003804 0.6824 0.6824 0.6824
v 0.009961 0.169443 0.000000 0.6785 0.6785 0.6785
vn -0.0000 -1.0000 -0.0000
vn 0.9973 -0.0739 -0.0000
vn 0.8068 -0.0739 -0.5862
vn 0.3082 -0.0739 -0.9485
vn -0.3082 -0.0739 -0.9485
vn -0.8068 -0.0739 -0.5862
vn -0.9973 -0.0739 -0.0000
vn -0.8068 -0.0739 0.5862
vn -0.3082 -0.0739 0.9485
vn 0.3082 -0.0739 0.9485
vn 0.8068 -0.0739 0.5862
vn -0.0000 1.0000 -0.0000
vn 1.0000 -0.0000 -0.0000
vn 0.8090 -0.0000 -0.5878
vn 0.3090 -0.0000 -0.9511
vn -0.3090 -0.0000 -0.9511
vn -0.8090 -0.0000 -0.5878
vn -1.0000 -0.0000 -0.0000
vn -0.8090 -0.0000 0.5878
vn -0.3090 -0.0000 0.9511
vn 0.3090 -0.0000 0.9511
vn 0.8090 -0.0000 0.5878
vn 0.8011 -0.1126 -0.5878
vn -0.3060 0.0430 -0.9511
vn -0.9903 0.1392 -0.0000
vn -0.3060 0.0430 0.9511
vn 0.8011 -0.1126 0.5878
vn 0.1392 0.9903 -0.0000
vn -0.1392 -0.9903 -0.0000
vt 0.066064 0.969238
vt 0.069141 0.973195
vt 0.062988 0.973195
vt 0.072217 0.969238
vt 0.075293 0.973195
vt 0.078369 0.969238
vt 0.081445 0.973195
vt 0.084521 0.969238
vt 0.087598 0.973195
vt 0.090674 0.969238
vt 0.093750 0.973195
vt 0.096826 0.969238
vt 0.099902 0.973195
vt 0.102979 0.969238
vt 0.106055 0.973195
vt 0.109131 0.969238
vt 0.112207 0.973195
vt 0.115283 0.969238
vt 0.118359 0.973195
vt 0.121436 0.969238
vt 0.124512 0.973195
vt 0.069141 0.994016
vt 0.062988 0.994016
vt 0.075293 0.994016
vt 0.081445 0.994016
vt 0.087598 0.994016
vt 0.093750 0.994016
vt 0.099902 0.994016
vt 0.106055 0.994016
vt 0.112207 0.994016
vt 0.118359 0.994016
vt 0.124512 0.994016
vt 0.066064 0.999512
vt 0.072217 0.999512
vt 0.078369 0.999512
vt 0.084521 0.999512
vt 0.090674 0.999512
vt 0.096826 0.999512
vt 0.102979 0.999512
vt 0.109131 0.999512
vt 0.115283 0.999512
vt 0.121436 0.999512
vt 0.219238 0.906738
vt 0.222266 0.906738
vt 0.222266 0.937012
vt 0.219238 0.937012
vt 0.225293 0.906738
vt 0.225293 0.937012
vt 0.228320 0.906738
vt 0.228320 0.937012
vt 0.231348 0.906738
vt 0.231348 0.937012
vt 0.234375 0.906738
vt 0.234375 0.937012
vt 0.237402 0.906738
vt 0.237402 0.937012
vt 0.240430 0.906738
vt 0.240430 0.937012
vt 0.243457 0.906738
vt 0.243457 0.937012
vt 0.246484 0.906738
vt 0.246484 0.937012
vt 0.249512 0.906738
vt 0.249512 0.937012
vt 0.249512 0.921875
vt 0.246621 0.931230
vt 0.239053 0.937012
vt 0.229697 0.937012
vt 0.222129 0.931230
vt 0.219238 0.921875
vt 0.222129 0.912520
vt 0.229697 0.906738
vt 0.239053 0.906738
vt 0.246621 0.912520
vt 0.445801 0.930176
vt 0.447168 0.930176
vt 0.447168 0.937012
vt 0.445801 0.937012
vt 0.448535 0.930176
vt 0.448535 0.937012
vt 0.449902 0.930176
vt 0.449902 0.937012
vt 0.451270 0.930176
vt 0.451270 0.937012
vt 0.452637 0.930176
vt 0.452637 0.937012
vt 0.452637 0.933594
vt 0.450026 0.937012
vt 0.445801 0.935706
vt 0.445801 0.931481
vt 0.450026 0.930176
s 1
usemtl props
f 3/1/1 8/2/1 1/3/1
f 3/4/1 9/5/1 8/2/1
f 3/6/1 2/7/1 9/5/1
f 3/8/1 11/9/1 2/7/1
f 3/10/1 4/11/1 11/9/1
f 3/12/1 6/13/1 4/11/1
f 3/14/1 5/15/1 6/13/1
f 3/16/1 14/17/1 5/15/1
f 3/18/1 17/19/1 14/17/1
f 3/20/1 1/21/1 17/19/1
f 1/3/2 8/2/3 19/22/3 7/23/2
f 8/2/3 9/5/4 10/24/4 19/22/3
f 9/5/4 2/7/5 20/25/5 10/24/4
f 2/7/5 11/9/6 12/26/6 20/25/5
f 11/9/6 4/11/7 13/27/7 12/26/6
f 4/11/7 6/13/8 21/28/8 13/27/7
f 6/13/8 5/15/9 15/29/9 21/28/8
f 5/15/9 14/17/10 16/30/10 15/29/9
f 14/17/10 17/19/11 18/31/11 16/30/10
f 17/19/11 1/21/2 7/32/2 18/31/11
f 7/23/12 19/22/12 22/33/12
f 19/22/12 10/24/12 22/34/12
f 10/24/12 20/25/12 22/35/12
f 20/25/12 12/26/12 22/36/12
f 12/26/12 13/27/12 22/37/12
f 13/27/12 21/28/12 22/38/12
f 21/28/12 15/29/12 22/39/12
f 15/29/12 16/30/12 22/40/12
f 16/30/12 18/31/12 22/41/12
f 18/31/12 7/32/12 22/42/12
f 23/43/13 24/44/14 37/45/14 25/46/13
f 24/44/14 42/47/15 26/48/15 37/45/14
f 42/47/15 27/49/16 29/50/16 26/48/15
f 27/49/16 30/51/17 28/52/17 29/50/16
f 30/51/17 31/53/18 38/54/18 28/52/17
f 31/53/18 41/55/19 32/56/19 38/54/18
f 41/55/19 40/57/20 34/58/20 32/56/19
f 40/57/20 33/59/21 39/60/21 34/58/20
f 33/59/21 35/61/22 36/62/22 39/60/21
f 35/61/22 23/63/13 25/64/13 36/62/22
s 0
f 25/65/12 37/66/12 26/67/12 29/68/12 28/69/12 38/70/12 32/71/12 34/72/12 39/73/12 36/74/12
f 35/66/1 33/67/1 40/68/1 41/69/1 31/70/1 30/71/1 27/72/1 42/73/1 24/74/1 23/65/1
s 1
f 52/75/23 43/76/23 46/77/23 44/78/23
f 43/76/24 47/79/24 45/80/24 46/77/24
f 47/79/25 48/81/25 50/82/25 45/80/25
f 48/81/26 51/83/26 49/84/26 50/82/26
f 51/83/27 52/85/27 44/86/27 49/84/27
s 0
f 44/87/28 46/88/28 45/89/28 50/90/28 49/91/28
f 51/88/29 48/89/29 47/90/29 43/91/29 52/87/29
