# Blender 4.5.14 LTS
# www.blender.org
mtllib steak_rotten.mtl
o steak_rotten
v -0.150000 0.002000 -0.150000 0.8862 0.8862 0.8862
v -0.150000 0.000000 0.150000 0.7686 0.7686 0.7686
v 0.150000 0.000000 0.150000 0.7725 0.7725 0.7725
v 0.150000 0.000000 -0.150000 0.7764 0.7764 0.7764
v 0.150000 0.002000 -0.150000 0.8902 0.8902 0.8902
v -0.150000 0.002000 0.150000 0.8862 0.8862 0.8862
v 0.150000 0.002000 0.150000 0.8902 0.8902 0.8902
v -0.150000 0.000000 -0.150000 0.7725 0.7725 0.7725
v 0.110000 0.027000 -0.000000 0.9176 0.9176 0.9176
v -0.100000 0.002000 -0.050000 0.7725 0.7725 0.7725
v -0.100000 0.027000 -0.050000 0.9176 0.9176 0.9176
v 0.060000 0.002000 -0.070000 0.7804 0.7804 0.7804
v 0.060000 0.027000 -0.070000 0.9176 0.9176 0.9176
v 0.060000 0.002000 0.060000 0.7764 0.7764 0.7764
v 0.110000 0.002000 0.000000 0.7804 0.7804 0.7804
v 0.060000 0.027000 0.060000 0.9098 0.9098 0.9098
v -0.090000 0.002000 0.050000 0.7725 0.7725 0.7725
v -0.090000 0.027000 0.050000 0.9098 0.9098 0.9098
v 0.025000 0.039500 -0.015981 0.8549 0.8549 0.8549
v 0.025000 0.042500 -0.015981 0.9137 0.9137 0.9137
v -0.005000 0.039500 -0.015981 0.8274 0.8274 0.8274
v -0.020000 0.039500 0.010000 0.8392 0.8392 0.8392
v -0.020000 0.042500 0.010000 0.8941 0.8941 0.8941
v -0.005000 0.042500 0.035981 0.9176 0.9176 0.9176
v -0.005000 0.039500 0.035981 0.8666 0.8666 0.8666
v 0.025000 0.039500 0.035981 0.8784 0.8784 0.8784
v 0.040000 0.039500 0.010000 0.8745 0.8745 0.8745
v 0.040000 0.042500 0.010000 0.9176 0.9176 0.9176
v -0.005000 0.042500 -0.015981 0.8980 0.8980 0.8980
v 0.025000 0.042500 0.035981 0.9255 0.9255 0.9255
v 0.003404 0.037500 0.011507 0.7020 0.7020 0.7020
v 0.003404 0.041500 0.007507 0.6667 0.6667 0.6667
v 0.017404 0.041500 0.007507 0.6785 0.6785 0.6785
v 0.003404 0.041500 0.015507 0.6863 0.6863 0.6863
v 0.017404 0.041500 0.015507 0.6902 0.6902 0.6902
v 0.017404 0.045500 0.011507 0.9255 0.9255 0.9255
v 0.017404 0.037500 0.011507 0.7059 0.7059 0.7059
v 0.003404 0.045500 0.011507 0.9176 0.9176 0.9176
v 0.014034 0.037500 -0.028759 0.7568 0.7568 0.7568
v 0.010839 0.041500 -0.031166 0.8431 0.8431 0.8431
v 0.022459 0.037500 -0.039940 0.7804 0.7804 0.7804
v 0.022459 0.045500 -0.039940 0.9490 0.9490 0.9490
v 0.017228 0.041500 -0.026351 0.8235 0.8235 0.8235
v 0.025653 0.041500 -0.037532 0.8588 0.8588 0.8588
v 0.019264 0.041500 -0.042347 0.8706 0.8706 0.8706
v 0.014034 0.045500 -0.028759 0.9255 0.9255 0.9255
v -0.052241 0.037500 0.005599 0.7764 0.7764 0.7764
v -0.052227 0.041500 0.020159 0.8745 0.8745 0.8745
v -0.056086 0.041500 0.006702 0.8745 0.8745 0.8745
v -0.048382 0.045500 0.019057 0.9372 0.9372 0.9372
v -0.044537 0.041500 0.017954 0.8470 0.8470 0.8470
v -0.052241 0.045500 0.005599 0.9372 0.9372 0.9372
v -0.048382 0.037500 0.019057 0.7764 0.7764 0.7764
v -0.048396 0.041500 0.004497 0.8431 0.8431 0.8431
v 0.009770 0.041500 0.008033 0.6667 0.6667 0.6667
v -0.001867 0.045500 -0.000718 0.9215 0.9215 0.9215
v -0.003300 0.041500 0.003016 0.6745 0.6745 0.6745
v 0.011204 0.045500 0.004299 0.9137 0.9137 0.9137
v 0.012637 0.041500 0.000564 0.6667 0.6667 0.6667
v 0.011204 0.037500 0.004299 0.7059 0.7059 0.7059
v -0.001867 0.037500 -0.000718 0.7059 0.7059 0.7059
v -0.000433 0.041500 -0.004453 0.6706 0.6706 0.6706
v -0.012168 0.041500 -0.025241 0.8353 0.8353 0.8353
v -0.024041 0.041500 -0.017822 0.8078 0.8078 0.8078
v -0.016407 0.041500 -0.032026 0.8706 0.8706 0.8706
v -0.028280 0.041500 -0.024607 0.8627 0.8627 0.8627
v -0.026160 0.045500 -0.021214 0.9255 0.9255 0.9255
v -0.026160 0.037500 -0.021214 0.7647 0.7647 0.7647
v -0.014288 0.045500 -0.028633 0.9372 0.9372 0.9372
v -0.014288 0.037500 -0.028633 0.7764 0.7764 0.7764
v -0.010324 0.041500 0.050341 0.8509 0.8509 0.8509
v -0.011544 0.041500 0.064288 0.8706 0.8706 0.8706
v -0.014308 0.045500 0.049993 0.9294 0.9294 0.9294
v -0.014308 0.037500 0.049993 0.7647 0.7647 0.7647
v -0.015529 0.037500 0.063939 0.7921 0.7921 0.7921
v -0.015529 0.045500 0.063939 0.9490 0.9490 0.9490
v -0.019513 0.041500 0.063591 0.8784 0.8784 0.8784
v -0.018293 0.041500 0.049644 0.8588 0.8588 0.8588
v 0.010228 0.037500 -0.006277 0.6980 0.6980 0.6980
v 0.012904 0.041500 -0.009249 0.6706 0.6706 0.6706
v 0.020632 0.037500 0.003091 0.7098 0.7098 0.7098
v 0.010228 0.045500 -0.006277 0.9137 0.9137 0.9137
v 0.023308 0.041500 0.000118 0.6785 0.6785 0.6785
v 0.017955 0.041500 0.006064 0.6824 0.6824 0.6824
v 0.020632 0.045500 0.003091 0.9255 0.9255 0.9255
v 0.007551 0.041500 -0.003304 0.6667 0.6667 0.6667
v -0.031417 0.037500 -0.006080 0.7725 0.7725 0.7725
v -0.032180 0.041500 -0.010006 0.8509 0.8509 0.8509
v -0.017674 0.037500 -0.008751 0.7372 0.7372 0.7372
v -0.031417 0.045500 -0.006080 0.9294 0.9294 0.9294
v -0.016911 0.041500 -0.004824 0.8235 0.8235 0.8235
v -0.030654 0.041500 -0.002153 0.8509 0.8509 0.8509
v -0.018438 0.041500 -0.012677 0.8235 0.8235 0.8235
v -0.017674 0.045500 -0.008751 0.9255 0.9255 0.9255
vn -0.0000 -0.0000 1.0000
vn -0.0000 -0.0000 -1.0000
vn -1.0000 -0.0000 -0.0000
vn 1.0000 -0.0000 -0.0000
vn -0.0000 1.0000 -0.0000
vn -0.0000 -1.0000 -0.0000
vn -0.1240 -0.0000 -0.9923
vn 0.8137 -0.0000 -0.5812
vn 0.7682 -0.0000 0.6402
vn -0.0665 -0.0000 0.9978
vn -0.9950 -0.0000 0.0995
vn 0.8660 -0.0000 -0.5000
vn -0.8660 -0.0000 -0.5000
vn -0.8660 -0.0000 0.5000
vn 0.8660 -0.0000 0.5000
vn -0.0000 -0.7071 -0.7071
vn -0.0000 0.7071 -0.7071
vn -0.0000 0.7071 0.7071
vn -0.0000 -0.7071 0.7071
vn -0.5647 -0.7071 -0.4255
vn -0.5647 0.7071 -0.4255
vn 0.5647 0.7071 0.4255
vn 0.5647 -0.7071 0.4255
vn 0.6018 -0.0000 -0.7986
vn -0.6018 -0.0000 0.7986
vn -0.6797 -0.7071 0.1949
vn -0.6797 0.7071 0.1949
vn 0.6797 0.7071 -0.1949
vn 0.6797 -0.7071 -0.1949
vn -0.2756 -0.0000 -0.9613
vn 0.2756 -0.0000 0.9613
vn -0.2534 -0.7071 0.6601
vn -0.2534 0.7071 0.6601
vn 0.2534 0.7071 -0.6601
vn 0.2534 -0.7071 -0.6601
vn -0.9336 -0.0000 -0.3584
vn 0.9336 -0.0000 0.3584
vn 0.3747 -0.7071 0.5997
vn 0.3747 0.7071 0.5997
vn -0.3747 0.7071 -0.5997
vn -0.3747 -0.7071 -0.5997
vn -0.8480 -0.0000 0.5299
vn 0.8480 -0.0000 -0.5299
vn 0.7044 -0.7071 0.0616
vn 0.7044 0.7071 0.0616
vn -0.7044 0.7071 -0.0616
vn -0.7044 -0.7071 -0.0616
vn -0.0872 -0.0000 0.9962
vn 0.0872 -0.0000 -0.9962
vn 0.4731 -0.7071 -0.5255
vn 0.4731 0.7071 -0.5255
vn -0.4731 0.7071 0.5255
vn -0.4731 -0.7071 0.5255
vn 0.7431 -0.0000 0.6691
vn -0.7431 -0.0000 -0.6691
vn -0.1349 -0.7071 -0.6941
vn -0.1349 0.7071 -0.6941
vn 0.1349 0.7071 0.6941
vn 0.1349 -0.7071 0.6941
vn 0.9816 -0.0000 -0.1908
vn -0.9816 -0.0000 0.1908
vt 0.687988 0.969238
vt 0.718262 0.969238
vt 0.718262 0.969440
vt 0.687988 0.969440
vt 0.718262 0.999512
vt 0.687988 0.999512
vt 0.000488 0.909621
vt 0.023554 0.906738
vt 0.030762 0.916829
vt 0.023554 0.925479
vt 0.001930 0.924037
vt 0.029320 0.924037
vt 0.007696 0.925479
vt 0.000488 0.916829
vt 0.007696 0.906738
vt 0.030762 0.909621
vt 0.008960 0.906738
vt 0.000488 0.906738
vt 0.000488 0.918848
vt 0.008960 0.918848
vt 0.013480 0.906738
vt 0.013480 0.918848
vt 0.017583 0.906738
vt 0.017583 0.918848
vt 0.025482 0.906738
vt 0.025482 0.918848
vt 0.030762 0.906738
vt 0.030762 0.918848
vt 0.625488 0.969238
vt 0.630534 0.969238
vt 0.630534 0.999512
vt 0.625488 0.999512
vt 0.635579 0.969238
vt 0.635579 0.999512
vt 0.640625 0.969238
vt 0.640625 0.999512
vt 0.645671 0.969238
vt 0.645671 0.999512
vt 0.650716 0.969238
vt 0.650716 0.999512
vt 0.655762 0.969238
vt 0.655762 0.999512
vt 0.655762 0.984375
vt 0.648193 0.999512
vt 0.633057 0.999512
vt 0.625488 0.984375
vt 0.633057 0.969238
vt 0.648193 0.969238
vt 0.562988 0.969238
vt 0.570557 0.969238
vt 0.570557 0.999512
vt 0.562988 0.999512
vt 0.578125 0.969238
vt 0.578125 0.999512
vt 0.585693 0.969238
vt 0.585693 0.999512
vt 0.593262 0.969238
vt 0.593262 0.999512
vt 0.593262 0.984375
vt 0.562988 0.984375
s 0
usemtl props
f 2/1/1 3/2/1 7/3/1 6/4/1
f 4/1/2 8/2/2 1/3/2 5/4/2
f 8/1/3 2/2/3 6/3/3 1/4/3
f 3/1/4 4/2/4 5/3/4 7/4/4
f 6/1/5 7/2/5 5/5/5 1/6/5
f 8/1/6 4/2/6 3/5/6 2/6/6
f 10/7/6 12/8/6 15/9/6 14/10/6 17/11/6
f 18/12/5 16/13/5 9/14/5 13/15/5 11/16/5
f 12/17/7 10/18/7 11/19/7 13/20/7
f 15/21/8 12/17/8 13/20/8 9/22/8
f 14/23/9 15/21/9 9/22/9 16/24/9
f 17/25/10 14/23/10 16/24/10 18/26/10
f 10/27/11 17/25/11 18/26/11 11/28/11
s 1
f 27/29/12 19/30/12 20/31/12 28/32/12
f 19/30/2 21/33/2 29/34/2 20/31/2
f 21/33/13 22/35/13 23/36/13 29/34/13
f 22/35/14 25/37/14 24/38/14 23/36/14
f 25/37/1 26/39/1 30/40/1 24/38/1
f 26/39/15 27/41/15 28/42/15 30/40/15
s 0
f 28/43/5 20/44/5 29/45/5 23/46/5 24/47/5 30/48/5
s 1
f 31/49/16 32/50/16 33/51/16 37/52/16
f 32/50/17 38/53/17 36/54/17 33/51/17
f 38/53/18 34/55/18 35/56/18 36/54/18
f 34/55/19 31/57/19 37/58/19 35/56/19
s 0
f 37/59/4 33/54/4 36/60/4 35/53/4
f 34/54/3 38/60/3 32/53/3 31/59/3
s 1
f 39/49/20 40/50/20 45/51/20 41/52/20
f 40/50/21 46/53/21 42/54/21 45/51/21
f 46/53/22 43/55/22 44/56/22 42/54/22
f 43/55/23 39/57/23 41/58/23 44/56/23
s 0
f 41/59/24 45/54/24 42/60/24 44/53/24
f 43/54/25 46/60/25 40/53/25 39/59/25
s 1
f 53/49/26 48/50/26 49/51/26 47/52/26
f 48/50/27 50/53/27 52/54/27 49/51/27
f 50/53/28 51/55/28 54/56/28 52/54/28
f 51/55/29 53/57/29 47/58/29 54/56/29
s 0
f 47/59/30 49/54/30 52/60/30 54/53/30
f 51/54/31 50/60/31 48/53/31 53/59/31
s 1
f 60/49/32 55/50/32 57/51/32 61/52/32
f 55/50/33 58/53/33 56/54/33 57/51/33
f 58/53/34 59/55/34 62/56/34 56/54/34
f 59/55/35 60/57/35 61/58/35 62/56/35
s 0
f 61/59/36 57/54/36 56/60/36 62/53/36
f 59/54/37 58/60/37 55/53/37 60/59/37
s 1
f 70/49/38 63/50/38 64/51/38 68/52/38
f 63/50/39 69/53/39 67/54/39 64/51/39
f 69/53/40 65/55/40 66/56/40 67/54/40
f 65/55/41 70/57/41 68/58/41 66/56/41
s 0
f 68/59/42 64/54/42 67/60/42 66/53/42
f 65/54/43 69/60/43 63/53/43 70/59/43
s 1
f 74/49/44 71/50/44 72/51/44 75/52/44
f 71/50/45 73/53/45 76/54/45 72/51/45
f 73/53/46 78/55/46 77/56/46 76/54/46
f 78/55/47 74/57/47 75/58/47 77/56/47
s 0
f 75/59/48 72/54/48 76/60/48 77/53/48
f 78/54/49 73/60/49 71/53/49 74/59/49
s 1
f 79/49/50 80/50/50 83/51/50 81/52/50
f 80/50/51 82/53/51 85/54/51 83/51/51
f 82/53/52 86/55/52 84/56/52 85/54/52
f 86/55/53 79/57/53 81/58/53 84/56/53
s 0
f 81/59/54 83/54/54 85/60/54 84/53/54
f 86/54/55 82/60/55 80/53/55 79/59/55
s 1
f 87/49/56 88/50/56 93/51/56 89/52/56
f 88/50/57 90/53/57 94/54/57 93/51/57
f 90/53/58 92/55/58 91/56/58 94/54/58
f 92/55/59 87/57/59 89/58/59 91/56/59
s 0
f 89/59/60 93/54/60 94/60/60 91/53/60
f 92/54/61 90/60/61 88/53/61 87/59/61
o steak_rotten_flies
v 0.078000 0.143500 0.006000 0.9960 0.9960 0.9960
v 0.090000 0.143500 -0.006000 1.0000 1.0000 1.0000
v 0.078000 0.135500 -0.006000 0.9686 0.9686 0.9686
v 0.078000 0.135500 0.006000 0.9686 0.9686 0.9686
v 0.078000 0.143500 -0.006000 1.0000 1.0000 1.0000
v 0.090000 0.135500 0.006000 0.9764 0.9764 0.9764
v 0.090000 0.135500 -0.006000 0.9843 0.9843 0.9843
v 0.090000 0.143500 0.006000 0.9921 0.9921 0.9921
v 0.006575 0.195500 -0.107222 1.0000 1.0000 1.0000
v 0.006575 0.195500 -0.095222 0.9921 0.9921 0.9921
v 0.006575 0.203500 -0.095222 1.0000 1.0000 1.0000
v 0.018575 0.195500 -0.095222 0.9960 0.9960 0.9960
v 0.018575 0.195500 -0.107222 1.0000 1.0000 1.0000
v 0.018575 0.203500 -0.095222 1.0000 1.0000 1.0000
v 0.018575 0.203500 -0.107222 1.0000 1.0000 1.0000
v 0.006575 0.203500 -0.107222 1.0000 1.0000 1.0000
v -0.054000 0.173500 -0.097923 1.0000 1.0000 1.0000
v -0.066000 0.173500 -0.097923 1.0000 1.0000 1.0000
v -0.054000 0.173500 -0.109923 0.9921 0.9921 0.9921
v -0.066000 0.165500 -0.109923 1.0000 1.0000 1.0000
v -0.066000 0.165500 -0.097923 1.0000 1.0000 1.0000
v -0.054000 0.165500 -0.109923 1.0000 1.0000 1.0000
v -0.066000 0.173500 -0.109923 1.0000 1.0000 1.0000
v -0.054000 0.165500 -0.097923 0.9960 0.9960 0.9960
v -0.071369 0.135500 0.038711 0.9725 0.9725 0.9725
v -0.071369 0.143500 0.026711 1.0000 1.0000 1.0000
v -0.083369 0.143500 0.026711 1.0000 1.0000 1.0000
v -0.071369 0.143500 0.038711 0.9960 0.9960 0.9960
v -0.083369 0.143500 0.038711 1.0000 1.0000 1.0000
v -0.083369 0.135500 0.026711 0.9804 0.9804 0.9804
v -0.071369 0.135500 0.026711 0.9686 0.9686 0.9686
v -0.083369 0.135500 0.038711 0.9843 0.9843 0.9843
v -0.057000 0.203500 0.094335 1.0000 1.0000 1.0000
v -0.057000 0.203500 0.082335 0.9921 0.9921 0.9921
v -0.057000 0.195500 0.094335 1.0000 1.0000 1.0000
v -0.045000 0.195500 0.094335 1.0000 1.0000 1.0000
v -0.045000 0.203500 0.082335 1.0000 1.0000 1.0000
v -0.045000 0.203500 0.094335 1.0000 1.0000 1.0000
v -0.057000 0.195500 0.082335 0.9921 0.9921 0.9921
v -0.045000 0.195500 0.082335 0.9960 0.9960 0.9960
v 0.101733 0.165500 0.078354 1.0000 1.0000 1.0000
v 0.089733 0.173500 0.078354 1.0000 1.0000 1.0000
v 0.089733 0.173500 0.066354 1.0000 1.0000 1.0000
v 0.101733 0.173500 0.066354 1.0000 1.0000 1.0000
v 0.101733 0.173500 0.078354 1.0000 1.0000 1.0000
v 0.089733 0.165500 0.066354 0.9921 0.9921 0.9921
v 0.101733 0.165500 0.066354 1.0000 1.0000 1.0000
v 0.089733 0.165500 0.078354 1.0000 1.0000 1.0000
vn -0.0000 -0.0000 1.0000
vn -0.0000 -0.0000 -1.0000
vn -1.0000 -0.0000 -0.0000
vn 1.0000 -0.0000 -0.0000
vn -0.0000 1.0000 -0.0000
vn -0.0000 -1.0000 -0.0000
vt 0.453613 0.934082
vt 0.456543 0.934082
vt 0.456543 0.936035
vt 0.453613 0.936035
vt 0.456543 0.937012
vt 0.453613 0.937012
s 0
usemtl props
f 98/61/62 100/62/62 102/63/62 95/64/62
f 101/61/63 97/62/63 99/63/63 96/64/63
f 97/61/64 98/62/64 95/63/64 99/64/64
f 100/61/65 101/62/65 96/63/65 102/64/65
f 95/61/66 102/62/66 96/65/66 99/66/66
f 97/61/67 101/62/67 100/65/67 98/66/67
f 104/61/62 106/62/62 108/63/62 105/64/62
f 107/61/63 103/62/63 110/63/63 109/64/63
f 103/61/64 104/62/64 105/63/64 110/64/64
f 106/61/65 107/62/65 109/63/65 108/64/65
f 105/61/66 108/62/66 109/65/66 110/66/66
f 103/61/67 107/62/67 106/65/67 104/66/67
f 115/61/62 118/62/62 111/63/62 112/64/62
f 116/61/63 114/62/63 117/63/63 113/64/63
f 114/61/64 115/62/64 112/63/64 117/64/64
f 118/61/65 116/62/65 113/63/65 111/64/65
f 112/61/66 111/62/66 113/65/66 117/66/66
f 114/61/67 116/62/67 118/65/67 115/66/67
f 126/61/62 119/62/62 122/63/62 123/64/62
f 125/61/63 124/62/63 121/63/63 120/64/63
f 124/61/64 126/62/64 123/63/64 121/64/64
f 119/61/65 125/62/65 120/63/65 122/64/65
f 123/61/66 122/62/66 120/65/66 121/66/66
f 124/61/67 125/62/67 119/65/67 126/66/67
f 129/61/62 130/62/62 132/63/62 127/64/62
f 134/61/63 133/62/63 128/63/63 131/64/63
f 133/61/64 129/62/64 127/63/64 128/64/64
f 130/61/65 134/62/65 131/63/65 132/64/65
f 127/61/66 132/62/66 131/65/66 128/66/66
f 133/61/67 134/62/67 130/65/67 129/66/67
f 142/61/62 135/62/62 139/63/62 136/64/62
f 141/61/63 140/62/63 137/63/63 138/64/63
f 140/61/64 142/62/64 136/63/64 137/64/64
f 135/61/65 141/62/65 138/63/65 139/64/65
f 136/61/66 139/62/66 138/65/66 137/66/66
f 140/61/67 141/62/67 135/65/67 142/66/67
