# Blender 4.5.14 LTS
# www.blender.org
mtllib steak.mtl
o steak
v 0.150000 0.000000 0.150000 0.7725 0.7725 0.7725
v -0.150000 0.000000 0.150000 0.7686 0.7686 0.7686
v -0.150000 0.002000 0.150000 0.8862 0.8862 0.8862
v -0.150000 0.002000 -0.150000 0.8862 0.8862 0.8862
v 0.150000 0.000000 -0.150000 0.7764 0.7764 0.7764
v 0.150000 0.002000 -0.150000 0.8902 0.8902 0.8902
v 0.150000 0.002000 0.150000 0.8902 0.8902 0.8902
v -0.150000 0.000000 -0.150000 0.7725 0.7725 0.7725
v -0.100000 0.002000 -0.050000 0.7725 0.7725 0.7725
v 0.110000 0.002000 0.000000 0.7804 0.7804 0.7804
v 0.060000 0.002000 0.060000 0.7764 0.7764 0.7764
v 0.110000 0.027000 -0.000000 0.9176 0.9176 0.9176
v 0.060000 0.027000 -0.070000 0.9176 0.9176 0.9176
v 0.060000 0.002000 -0.070000 0.7804 0.7804 0.7804
v 0.060000 0.027000 0.060000 0.9098 0.9098 0.9098
v -0.090000 0.002000 0.050000 0.7725 0.7725 0.7725
v -0.090000 0.027000 0.050000 0.9098 0.9098 0.9098
v -0.100000 0.027000 -0.050000 0.9176 0.9176 0.9176
vn -0.0000 -0.0000 1.0000
vn -0.0000 -0.0000 -1.0000
vn -1.0000 -0.0000 -0.0000
vn 1.0000 -0.0000 -0.0000
vn -0.0000 1.0000 -0.0000
vn -0.0000 -1.0000 -0.0000
vn -0.1240 -0.0000 -0.9923
vn 0.8137 -0.0000 -0.5812
vn 0.7682 -0.0000 0.6402
vn -0.0665 -0.0000 0.9978
vn -0.9950 -0.0000 0.0995
vt 0.687988 0.969238
vt 0.718262 0.969238
vt 0.718262 0.969440
vt 0.687988 0.969440
vt 0.718262 0.999512
vt 0.687988 0.999512
vt 0.969238 0.972121
vt 0.992304 0.969238
vt 0.999512 0.979329
vt 0.992304 0.987979
vt 0.970680 0.986537
vt 0.998070 0.986537
vt 0.976446 0.987979
vt 0.969238 0.979329
vt 0.976446 0.969238
vt 0.999512 0.972121
vt 0.977710 0.969238
vt 0.969238 0.969238
vt 0.969238 0.981348
vt 0.977710 0.981348
vt 0.982230 0.969238
vt 0.982230 0.981348
vt 0.986333 0.969238
vt 0.986333 0.981348
vt 0.994232 0.969238
vt 0.994232 0.981348
vt 0.999512 0.969238
vt 0.999512 0.981348
s 0
usemtl props
f 2/1/1 1/2/1 7/3/1 3/4/1
f 5/1/2 8/2/2 4/3/2 6/4/2
f 8/1/3 2/2/3 3/3/3 4/4/3
f 1/1/4 5/2/4 6/3/4 7/4/4
f 3/1/5 7/2/5 6/5/5 4/6/5
f 8/1/6 5/2/6 1/5/6 2/6/6
f 9/7/6 14/8/6 10/9/6 11/10/6 16/11/6
f 17/12/5 15/13/5 12/14/5 13/15/5 18/16/5
f 14/17/7 9/18/7 18/19/7 13/20/7
f 10/21/8 14/17/8 13/20/8 12/22/8
f 11/23/9 10/21/9 12/22/9 15/24/9
f 16/25/10 11/23/10 15/24/10 17/26/10
f 9/27/11 16/25/11 17/26/11 18/28/11
