# Blender 4.5.14 LTS
# www.blender.org
mtllib stockpot.mtl
o stockpot
v 0.100000 0.000000 -0.173205 0.7490 0.7490 0.7490
v 0.000000 0.000000 -0.200000 0.7490 0.7490 0.7490
v -0.100000 0.000000 -0.173205 0.7490 0.7490 0.7490
v -0.173205 0.000000 0.100000 0.7451 0.7451 0.7451
v -0.200000 0.000000 -0.000000 0.7451 0.7451 0.7451
v 0.000000 0.000000 0.000000 0.6667 0.6667 0.6667
v 0.100000 0.000000 0.173205 0.7490 0.7490 0.7490
v 0.200000 0.000000 0.000000 0.7529 0.7529 0.7529
v 0.173205 0.000000 -0.100000 0.7490 0.7490 0.7490
v 0.100000 0.360000 -0.173205 0.8000 0.8000 0.8000
v -0.173205 0.000000 -0.100000 0.7451 0.7451 0.7451
v -0.100000 0.360000 -0.173205 0.8000 0.8000 0.8000
v -0.200000 0.360000 -0.000000 0.7843 0.7843 0.7843
v -0.100000 0.000000 0.173205 0.7490 0.7490 0.7490
v -0.000000 0.360000 0.200000 0.8078 0.8078 0.8078
v -0.000000 0.000000 0.200000 0.7490 0.7490 0.7490
v 0.173205 0.000000 0.100000 0.7490 0.7490 0.7490
v 0.100000 0.360000 0.173205 0.8039 0.8039 0.8039
v 0.168875 0.360000 -0.097500 0.7451 0.7451 0.7451
v 0.195000 0.360000 0.000000 0.7412 0.7412 0.7412
v 0.173205 0.360000 -0.100000 0.8000 0.8000 0.8000
v 0.000000 0.360000 -0.200000 0.8000 0.8000 0.8000
v -0.097500 0.360000 -0.168875 0.7451 0.7451 0.7451
v -0.173205 0.360000 -0.100000 0.8000 0.8000 0.8000
v -0.173205 0.360000 0.100000 0.8000 0.8000 0.8000
v -0.100000 0.360000 0.173205 0.8078 0.8078 0.8078
v -0.097500 0.360000 0.168875 0.7451 0.7451 0.7451
v -0.168875 0.360000 0.097500 0.7490 0.7490 0.7490
v -0.000000 0.360000 0.195000 0.7490 0.7490 0.7490
v 0.173205 0.360000 0.100000 0.8039 0.8039 0.8039
v 0.200000 0.360000 0.000000 0.7843 0.7843 0.7843
v 0.195000 0.005000 0.000000 0.7960 0.7960 0.7960
v 0.097500 0.360000 -0.168875 0.7451 0.7451 0.7451
v 0.097500 0.005000 -0.168875 0.8000 0.8000 0.8000
v 0.000000 0.360000 -0.195000 0.7451 0.7451 0.7451
v -0.168875 0.360000 -0.097500 0.7490 0.7490 0.7490
v -0.195000 0.360000 -0.000000 0.7490 0.7490 0.7490
v -0.195000 0.005000 -0.000000 0.8039 0.8039 0.8039
v -0.168875 0.005000 0.097500 0.8039 0.8039 0.8039
v -0.097500 0.005000 0.168875 0.8000 0.8000 0.8000
v 0.097500 0.360000 0.168875 0.7451 0.7451 0.7451
v -0.000000 0.005000 0.195000 0.8000 0.8000 0.8000
v 0.168875 0.360000 0.097500 0.7412 0.7412 0.7412
v 0.168875 0.005000 -0.097500 0.8039 0.8039 0.8039
v 0.000000 0.005000 -0.195000 0.8000 0.8000 0.8000
v 0.000000 0.005000 0.000000 0.9921 0.9921 0.9921
v -0.097500 0.005000 -0.168875 0.7960 0.7960 0.7960
v -0.168875 0.005000 -0.097500 0.8039 0.8039 0.8039
v 0.097500 0.005000 0.168875 0.8039 0.8039 0.8039
v 0.168875 0.005000 0.097500 0.7960 0.7960 0.7960
v -0.195000 0.322000 0.030000 0.7804 0.7804 0.7804
v -0.196131 0.330000 0.037920 0.8235 0.8235 0.8235
v -0.195000 0.338000 0.030000 0.7725 0.7725 0.7725
v -0.236749 0.330000 0.029295 0.9725 0.9725 0.9725
v -0.223251 0.330000 0.020705 0.7804 0.7804 0.7804
v -0.223251 0.330000 -0.020705 0.7804 0.7804 0.7804
v -0.230000 0.322000 0.025000 0.8862 0.8862 0.8862
v -0.230000 0.338000 0.025000 0.9255 0.9255 0.9255
v -0.236749 0.330000 -0.029295 0.9725 0.9725 0.9725
v -0.230000 0.322000 -0.025000 0.8862 0.8862 0.8862
v -0.193869 0.330000 -0.022080 0.6667 0.6667 0.6667
v -0.196131 0.330000 -0.037920 0.8235 0.8235 0.8235
v -0.230000 0.338000 -0.025000 0.9255 0.9255 0.9255
v -0.195000 0.338000 -0.030000 0.7725 0.7725 0.7725
v -0.193869 0.330000 0.022080 0.6667 0.6667 0.6667
v -0.195000 0.322000 -0.030000 0.7843 0.7843 0.7843
v 0.236749 0.330000 0.029295 0.9686 0.9686 0.9686
v 0.195000 0.322000 0.030000 0.7843 0.7843 0.7843
v 0.193869 0.330000 0.022080 0.6667 0.6667 0.6667
v 0.223251 0.330000 0.020705 0.7764 0.7764 0.7764
v 0.230000 0.338000 0.025000 0.9255 0.9255 0.9255
v 0.230000 0.322000 0.025000 0.8823 0.8823 0.8823
v 0.223251 0.330000 -0.020705 0.7764 0.7764 0.7764
v 0.230000 0.322000 -0.025000 0.8784 0.8784 0.8784
v 0.230000 0.338000 -0.025000 0.9215 0.9215 0.9215
v 0.236749 0.330000 -0.029295 0.9686 0.9686 0.9686
v 0.196131 0.330000 -0.037920 0.8196 0.8196 0.8196
v 0.195000 0.338000 -0.030000 0.7764 0.7764 0.7764
v 0.195000 0.338000 0.030000 0.7764 0.7764 0.7764
v 0.196131 0.330000 0.037920 0.8157 0.8157 0.8157
v 0.195000 0.322000 -0.030000 0.7804 0.7804 0.7804
v 0.193869 0.330000 -0.022080 0.6667 0.6667 0.6667
vn -0.0000 -1.0000 -0.0000
vn 1.0000 -0.0000 -0.0000
vn 0.8660 -0.0000 -0.5000
vn 0.5000 -0.0000 -0.8660
vn -0.0000 -0.0000 -1.0000
vn -0.5000 -0.0000 -0.8660
vn -0.8660 -0.0000 -0.5000
vn -1.0000 -0.0000 -0.0000
vn -0.8660 -0.0000 0.5000
vn -0.5000 -0.0000 0.8660
vn -0.0000 -0.0000 1.0000
vn 0.5000 -0.0000 0.8660
vn 0.8660 -0.0000 0.5000
vn -0.0000 1.0000 -0.0000
vn 0.0766 -0.6286 -0.7740
vn -0.1359 -0.6426 0.7541
vn -0.1359 0.6426 0.7541
vn 0.0766 0.6286 -0.7739
vn 0.7643 -0.6448 -0.0000
vn -0.7643 -0.6448 -0.0000
vn -0.7643 0.6448 -0.0000
vn 0.7643 0.6448 -0.0000
vn 0.0766 -0.6286 0.7740
vn -0.1359 -0.6426 -0.7541
vn -0.1359 0.6426 -0.7541
vn 0.0766 0.6286 0.7739
vn 0.9899 -0.0000 0.1414
vn 0.9899 -0.0000 -0.1414
vn 0.1359 -0.6426 0.7541
vn -0.0766 -0.6286 -0.7740
vn -0.0766 0.6286 -0.7739
vn 0.1359 0.6426 0.7541
vn 0.1359 -0.6426 -0.7541
vn -0.0766 -0.6286 0.7740
vn -0.0766 0.6286 0.7739
vn 0.1359 0.6426 -0.7541
vn -0.9899 -0.0000 0.1414
vn -0.9899 -0.0000 -0.1414
vt 0.814250 0.969238
vt 0.815511 0.980050
vt 0.812988 0.980050
vt 0.816772 0.969238
vt 0.818034 0.980050
vt 0.819295 0.969238
vt 0.820557 0.980050
vt 0.821818 0.969238
vt 0.823079 0.980050
vt 0.824341 0.969238
vt 0.825602 0.980050
vt 0.826864 0.969238
vt 0.828125 0.980050
vt 0.829386 0.969238
vt 0.830648 0.980050
vt 0.831909 0.969238
vt 0.833171 0.980050
vt 0.834432 0.969238
vt 0.835693 0.980050
vt 0.836955 0.969238
vt 0.838216 0.980050
vt 0.839478 0.969238
vt 0.840739 0.980050
vt 0.842000 0.969238
vt 0.843262 0.980050
vt 0.815511 0.999512
vt 0.812988 0.999512
vt 0.818034 0.999512
vt 0.820557 0.999512
vt 0.823079 0.999512
vt 0.825602 0.999512
vt 0.828125 0.999512
vt 0.830648 0.999512
vt 0.833171 0.999512
vt 0.835693 0.999512
vt 0.838216 0.999512
vt 0.840739 0.999512
vt 0.843262 0.999512
vt 0.812988 0.969238
vt 0.815511 0.969238
vt 0.815511 0.969511
vt 0.812988 0.969511
vt 0.818034 0.969238
vt 0.818034 0.969511
vt 0.820557 0.969238
vt 0.820557 0.969511
vt 0.823079 0.969238
vt 0.823079 0.969511
vt 0.825602 0.969238
vt 0.825602 0.969511
vt 0.828125 0.969238
vt 0.828125 0.969511
vt 0.830648 0.969238
vt 0.830648 0.969511
vt 0.833171 0.969238
vt 0.833171 0.969511
vt 0.835693 0.969238
vt 0.835693 0.969511
vt 0.838216 0.969238
vt 0.838216 0.969511
vt 0.840739 0.969238
vt 0.840739 0.969511
vt 0.843262 0.969238
vt 0.843262 0.969511
vt 0.815511 0.988875
vt 0.812988 0.988875
vt 0.818034 0.988875
vt 0.820557 0.988875
vt 0.823079 0.988875
vt 0.825602 0.988875
vt 0.828125 0.988875
vt 0.830648 0.988875
vt 0.833171 0.988875
vt 0.835693 0.988875
vt 0.838216 0.988875
vt 0.840739 0.988875
vt 0.843262 0.988875
vt 0.814250 0.999512
vt 0.816772 0.999512
vt 0.819295 0.999512
vt 0.821818 0.999512
vt 0.824341 0.999512
vt 0.826864 0.999512
vt 0.829386 0.999512
vt 0.831909 0.999512
vt 0.834432 0.999512
vt 0.836955 0.999512
vt 0.839478 0.999512
vt 0.842000 0.999512
vt 0.820557 0.979329
vt 0.812988 0.979329
vt 0.828125 0.979329
vt 0.835693 0.979329
vt 0.843262 0.979329
vt 0.820557 0.989421
vt 0.812988 0.989421
vt 0.828125 0.989421
vt 0.835693 0.989421
vt 0.843262 0.989421
vt 0.812988 0.984375
vt 0.843262 0.984375
s 1
usemtl props
f 6/1/1 9/2/1 8/3/1
f 6/4/1 1/5/1 9/2/1
f 6/6/1 2/7/1 1/5/1
f 6/8/1 3/9/1 2/7/1
f 6/10/1 11/11/1 3/9/1
f 6/12/1 5/13/1 11/11/1
f 6/14/1 4/15/1 5/13/1
f 6/16/1 14/17/1 4/15/1
f 6/18/1 16/19/1 14/17/1
f 6/20/1 7/21/1 16/19/1
f 6/22/1 17/23/1 7/21/1
f 6/24/1 8/25/1 17/23/1
f 8/3/2 9/2/3 21/26/3 31/27/2
f 9/2/3 1/5/4 10/28/4 21/26/3
f 1/5/4 2/7/5 22/29/5 10/28/4
f 2/7/5 3/9/6 12/30/6 22/29/5
f 3/9/6 11/11/7 24/31/7 12/30/6
f 11/11/7 5/13/8 13/32/8 24/31/7
f 5/13/8 4/15/9 25/33/9 13/32/8
f 4/15/9 14/17/10 26/34/10 25/33/9
f 14/17/10 16/19/11 15/35/11 26/34/10
f 16/19/11 7/21/12 18/36/12 15/35/11
f 7/21/12 17/23/13 30/37/13 18/36/12
f 17/23/13 8/25/2 31/38/2 30/37/13
f 31/39/14 21/40/14 19/41/14 20/42/14
f 21/40/14 10/43/14 33/44/14 19/41/14
f 10/43/14 22/45/14 35/46/14 33/44/14
f 22/45/14 12/47/14 23/48/14 35/46/14
f 12/47/14 24/49/14 36/50/14 23/48/14
f 24/49/14 13/51/14 37/52/14 36/50/14
f 13/51/14 25/53/14 28/54/14 37/52/14
f 25/53/14 26/55/14 27/56/14 28/54/14
f 26/55/14 15/57/14 29/58/14 27/56/14
f 15/57/14 18/59/14 41/60/14 29/58/14
f 18/59/14 30/61/14 43/62/14 41/60/14
f 30/61/14 31/63/14 20/64/14 43/62/14
f 20/42/8 19/41/9 44/65/9 32/66/8
f 19/41/9 33/44/10 34/67/10 44/65/9
f 33/44/10 35/46/11 45/68/11 34/67/10
f 35/46/11 23/48/12 47/69/12 45/68/11
f 23/48/12 36/50/13 48/70/13 47/69/12
f 36/50/13 37/52/2 38/71/2 48/70/13
f 37/52/2 28/54/3 39/72/3 38/71/2
f 28/54/3 27/56/4 40/73/4 39/72/3
f 27/56/4 29/58/5 42/74/5 40/73/4
f 29/58/5 41/60/6 49/75/6 42/74/5
f 41/60/6 43/62/7 50/76/7 49/75/6
f 43/62/7 20/64/8 32/77/8 50/76/7
f 32/66/14 44/65/14 46/78/14
f 44/65/14 34/67/14 46/79/14
f 34/67/14 45/68/14 46/80/14
f 45/68/14 47/69/14 46/81/14
f 47/69/14 48/70/14 46/82/14
f 48/70/14 38/71/14 46/83/14
f 38/71/14 39/72/14 46/84/14
f 39/72/14 40/73/14 46/85/14
f 40/73/14 42/74/14 46/86/14
f 42/74/14 49/75/14 46/87/14
f 49/75/14 50/76/14 46/88/14
f 50/76/14 32/77/14 46/89/14
f 65/39/15 51/45/15 57/90/15 55/91/15
f 51/45/16 52/51/16 54/92/16 57/90/16
f 52/51/17 53/57/17 58/93/17 54/92/17
f 53/57/18 65/63/18 55/94/18 58/93/18
f 55/91/19 57/90/19 60/95/19 56/96/19
f 57/90/20 54/92/20 59/97/20 60/95/20
f 54/92/21 58/93/21 63/98/21 59/97/21
f 58/93/22 55/94/22 56/99/22 63/98/22
f 56/96/23 60/95/23 66/29/23 61/27/23
f 60/95/24 59/97/24 62/32/24 66/29/24
f 59/97/25 63/98/25 64/35/25 62/32/25
f 63/98/26 56/99/26 61/38/26 64/35/26
s 0
f 53/32/27 52/100/27 51/51/27 65/101/27
f 61/100/28 66/51/28 62/101/28 64/32/28
s 1
f 80/39/29 68/45/29 72/90/29 67/91/29
f 68/45/30 69/51/30 70/92/30 72/90/30
f 69/51/31 79/57/31 71/93/31 70/92/31
f 79/57/32 80/63/32 67/94/32 71/93/32
f 67/91/19 72/90/19 74/95/19 76/96/19
f 72/90/20 70/92/20 73/97/20 74/95/20
f 70/92/21 71/93/21 75/98/21 73/97/21
f 71/93/22 67/94/22 76/99/22 75/98/22
f 76/96/33 74/95/33 81/29/33 77/27/33
f 74/95/34 73/97/34 82/32/34 81/29/34
f 73/97/35 75/98/35 78/35/35 82/32/35
f 75/98/36 76/99/36 77/38/36 78/35/36
s 0
f 79/32/37 69/100/37 68/51/37 80/101/37
f 77/100/38 81/51/38 82/101/38 78/32/38
o stockpot_lid
v 0.177535 0.360000 -0.102500 1.0000 1.0000 1.0000
v 0.205000 0.368000 0.000000 0.9843 0.9843 0.9843
v 0.102500 0.360000 -0.177535 1.0000 1.0000 1.0000
v 0.000000 0.360000 -0.205000 1.0000 1.0000 1.0000
v -0.102500 0.360000 -0.177535 1.0000 1.0000 1.0000
v -0.102500 0.368000 -0.177535 1.0000 1.0000 1.0000
v -0.177535 0.360000 -0.102500 0.9960 0.9960 0.9960
v -0.205000 0.360000 -0.000000 0.9607 0.9607 0.9607
v -0.205000 0.368000 -0.000000 0.9843 0.9843 0.9843
v -0.177535 0.360000 0.102500 0.9960 0.9960 0.9960
v -0.102500 0.360000 0.177535 1.0000 1.0000 1.0000
v -0.102500 0.368000 0.177535 1.0000 1.0000 1.0000
v -0.000000 0.360000 0.205000 1.0000 1.0000 1.0000
v 0.102500 0.360000 0.177535 1.0000 1.0000 1.0000
v -0.000000 0.368000 0.205000 1.0000 1.0000 1.0000
v 0.177535 0.360000 0.102500 1.0000 1.0000 1.0000
v 0.102500 0.368000 0.177535 1.0000 1.0000 1.0000
v 0.205000 0.360000 0.000000 0.9607 0.9607 0.9607
v 0.086603 0.380000 -0.050000 1.0000 1.0000 1.0000
v 0.177535 0.368000 -0.102500 1.0000 1.0000 1.0000
v 0.102500 0.368000 -0.177535 1.0000 1.0000 1.0000
v 0.000000 0.368000 -0.205000 1.0000 1.0000 1.0000
v -0.177535 0.368000 -0.102500 0.9960 0.9960 0.9960
v -0.177535 0.368000 0.102500 0.9960 0.9960 0.9960
v -0.050000 0.380000 0.086603 0.9960 0.9960 0.9960
v -0.000000 0.380000 0.100000 1.0000 1.0000 1.0000
v 0.177535 0.368000 0.102500 1.0000 1.0000 1.0000
v 0.086603 0.380000 0.050000 0.9960 0.9960 0.9960
v 0.100000 0.380000 0.000000 1.0000 1.0000 1.0000
v 0.000000 0.382000 0.000000 0.8902 0.8902 0.8902
v 0.050000 0.380000 -0.086603 0.9960 0.9960 0.9960
v 0.000000 0.380000 -0.100000 1.0000 1.0000 1.0000
v -0.050000 0.380000 -0.086603 0.9960 0.9960 0.9960
v -0.086603 0.380000 -0.050000 0.9960 0.9960 0.9960
v -0.100000 0.380000 -0.000000 1.0000 1.0000 1.0000
v -0.086603 0.380000 0.050000 1.0000 1.0000 1.0000
v 0.050000 0.380000 0.086603 1.0000 1.0000 1.0000
v -0.030000 0.380000 -0.007000 0.8000 0.8000 0.8000
v -0.037000 0.380000 -0.000000 0.7843 0.7843 0.7843
v -0.030000 0.380000 0.007000 0.8000 0.8000 0.8000
v -0.032692 0.411462 -0.000000 0.9372 0.9372 0.9372
v 0.030000 0.405000 0.007000 0.8627 0.8627 0.8627
v -0.027308 0.398538 0.000000 0.6941 0.6941 0.6941
v 0.030000 0.405000 -0.007000 0.8588 0.8588 0.8588
v -0.030000 0.405000 -0.007000 0.8313 0.8313 0.8313
v -0.030000 0.405000 0.007000 0.8039 0.8039 0.8039
v 0.023000 0.380000 0.000000 0.8627 0.8627 0.8627
v 0.030000 0.380000 0.007000 0.8353 0.8353 0.8353
v 0.027308 0.398538 0.000000 0.7451 0.7451 0.7451
v 0.032692 0.411462 -0.000000 0.9294 0.9294 0.9294
v 0.037000 0.380000 -0.000000 0.8039 0.8039 0.8039
v -0.023000 0.380000 0.000000 0.8196 0.8196 0.8196
v 0.030000 0.380000 -0.007000 0.8313 0.8313 0.8313
vn 1.0000 -0.0000 -0.0000
vn 0.8660 -0.0000 -0.5000
vn 0.5000 -0.0000 -0.8660
vn -0.0000 -0.0000 -1.0000
vn -0.5000 -0.0000 -0.8660
vn -0.8660 -0.0000 -0.5000
vn -1.0000 -0.0000 -0.0000
vn -0.8660 -0.0000 0.5000
vn -0.5000 -0.0000 0.8660
vn -0.0000 -0.0000 1.0000
vn 0.5000 -0.0000 0.8660
vn 0.8660 -0.0000 0.5000
vn 0.1135 0.9935 -0.0000
vn 0.0983 0.9935 -0.0568
vn 0.0646 0.9972 -0.0373
vn 0.0746 0.9972 -0.0000
vn 0.0568 0.9935 -0.0983
vn 0.0373 0.9972 -0.0646
vn -0.0000 0.9935 -0.1135
vn -0.0000 0.9972 -0.0746
vn -0.0568 0.9935 -0.0983
vn -0.0373 0.9972 -0.0646
vn -0.0983 0.9935 -0.0568
vn -0.0646 0.9972 -0.0373
vn -0.1135 0.9935 -0.0000
vn -0.0746 0.9972 -0.0000
vn -0.0983 0.9935 0.0568
vn -0.0646 0.9972 0.0373
vn -0.0568 0.9935 0.0983
vn -0.0373 0.9972 0.0646
vn -0.0000 0.9935 0.1135
vn -0.0000 0.9972 0.0746
vn 0.0568 0.9935 0.0983
vn 0.0373 0.9972 0.0646
vn 0.0983 0.9935 0.0568
vn 0.0646 0.9972 0.0373
vn -0.0000 1.0000 -0.0000
vn -0.4198 0.2799 -0.8634
vn -0.5462 0.3642 -0.7543
vn -0.3325 0.2216 -0.9167
vn -0.5462 0.3642 0.7543
vn -0.4198 0.2799 0.8634
vn -0.3325 0.2216 0.9167
vn -0.2787 0.1858 0.9422
vn -0.2787 0.1858 -0.9422
vn -0.0000 -0.7348 0.6783
vn -0.0000 -0.7348 -0.6783
vn -0.0000 0.7348 -0.6783
vn -0.0000 0.7348 0.6783
vn -0.8368 0.0828 0.5411
vn -0.8368 0.0828 -0.5411
vn 0.8071 0.0616 -0.5872
vn 0.8071 0.0616 0.5872
vn -0.0000 -1.0000 -0.0000
vt 0.812988 0.969238
vt 0.815511 0.969238
vt 0.815511 0.970372
vt 0.812988 0.970372
vt 0.818034 0.969238
vt 0.818034 0.970372
vt 0.820557 0.969238
vt 0.820557 0.970372
vt 0.823079 0.969238
vt 0.823079 0.970372
vt 0.825602 0.969238
vt 0.825602 0.970372
vt 0.828125 0.969238
vt 0.828125 0.970372
vt 0.830648 0.969238
vt 0.830648 0.970372
vt 0.833171 0.969238
vt 0.833171 0.970372
vt 0.835693 0.969238
vt 0.835693 0.970372
vt 0.838216 0.969238
vt 0.838216 0.970372
vt 0.840739 0.969238
vt 0.840739 0.970372
vt 0.843262 0.969238
vt 0.843262 0.970372
vt 0.815511 0.985343
vt 0.812988 0.985343
vt 0.818034 0.985343
vt 0.820557 0.985343
vt 0.823079 0.985343
vt 0.825602 0.985343
vt 0.828125 0.985343
vt 0.830648 0.985343
vt 0.833171 0.985343
vt 0.835693 0.985343
vt 0.838216 0.985343
vt 0.840739 0.985343
vt 0.843262 0.985343
vt 0.814250 0.999512
vt 0.816772 0.999512
vt 0.819295 0.999512
vt 0.821818 0.999512
vt 0.824341 0.999512
vt 0.826864 0.999512
vt 0.829386 0.999512
vt 0.831909 0.999512
vt 0.834432 0.999512
vt 0.836955 0.999512
vt 0.839478 0.999512
vt 0.842000 0.999512
vt 0.250488 0.969238
vt 0.258057 0.969238
vt 0.258057 0.979329
vt 0.250488 0.979329
vt 0.265625 0.969238
vt 0.265625 0.979329
vt 0.273193 0.969238
vt 0.273193 0.979329
vt 0.280762 0.969238
vt 0.280762 0.979329
vt 0.258057 0.989421
vt 0.250488 0.989421
vt 0.265625 0.989421
vt 0.273193 0.989421
vt 0.280762 0.989421
vt 0.258057 0.999512
vt 0.250488 0.999512
vt 0.265625 0.999512
vt 0.273193 0.999512
vt 0.280762 0.999512
vt 0.280762 0.984375
vt 0.250488 0.984375
s 1
usemtl props
f 100/102/39 83/103/40 102/104/40 84/105/39
f 83/103/40 85/106/41 103/107/41 102/104/40
f 85/106/41 86/108/42 104/109/42 103/107/41
f 86/108/42 87/110/43 88/111/43 104/109/42
f 87/110/43 89/112/44 105/113/44 88/111/43
f 89/112/44 90/114/45 91/115/45 105/113/44
f 90/114/45 92/116/46 106/117/46 91/115/45
f 92/116/46 93/118/47 94/119/47 106/117/46
f 93/118/47 95/120/48 97/121/48 94/119/47
f 95/120/48 96/122/49 99/123/49 97/121/48
f 96/122/49 98/124/50 109/125/50 99/123/49
f 98/124/50 100/126/39 84/127/39 109/125/50
f 84/105/51 102/104/52 101/128/53 111/129/54
f 102/104/52 103/107/55 113/130/56 101/128/53
f 103/107/55 104/109/57 114/131/58 113/130/56
f 104/109/57 88/111/59 115/132/60 114/131/58
f 88/111/59 105/113/61 116/133/62 115/132/60
f 105/113/61 91/115/63 117/134/64 116/133/62
f 91/115/63 106/117/65 118/135/66 117/134/64
f 106/117/65 94/119/67 107/136/68 118/135/66
f 94/119/67 97/121/69 108/137/70 107/136/68
f 97/121/69 99/123/71 119/138/72 108/137/70
f 99/123/71 109/125/73 110/139/74 119/138/72
f 109/125/73 84/127/51 111/140/54 110/139/74
f 111/129/54 101/128/53 112/141/75
f 101/128/53 113/130/56 112/142/75
f 113/130/56 114/131/58 112/143/75
f 114/131/58 115/132/60 112/144/75
f 115/132/60 116/133/62 112/145/75
f 116/133/62 117/134/64 112/146/75
f 117/134/64 118/135/66 112/147/75
f 118/135/66 107/136/68 112/148/75
f 107/136/68 108/137/70 112/149/75
f 108/137/70 119/138/72 112/150/75
f 119/138/72 110/139/74 112/151/75
f 110/139/74 111/140/54 112/152/75
f 120/153/76 121/154/77 125/155/77 128/156/78
f 121/154/79 122/157/80 127/158/81 125/155/79
f 122/157/80 134/159/82 123/160/82 127/158/81
f 134/159/83 120/161/76 128/162/78 123/160/83
f 128/156/84 125/155/84 131/163/84 124/164/84
f 125/155/85 127/158/85 126/165/85 131/163/85
f 127/158/86 123/160/86 132/166/86 126/165/86
f 123/160/87 128/162/87 124/167/87 132/166/87
f 124/164/88 131/163/88 129/168/88 130/169/88
f 131/163/89 126/165/89 135/170/89 129/168/89
f 126/165/90 132/166/90 133/171/90 135/170/90
f 132/166/91 124/167/91 130/172/91 133/171/91
s 0
f 134/173/92 122/170/92 121/174/92 120/157/92
f 130/170/92 129/174/92 135/157/92 133/173/92
