# Blender 4.5.14 LTS
# www.blender.org
mtllib stool_red.mtl
o stool_red
v 0.137533 0.000000 -0.099923 0.8588 0.8588 0.8588
v 0.105172 0.030000 -0.076412 0.9490 0.9490 0.9490
v 0.052533 0.000000 -0.161680 0.8470 0.8470 0.8470
v -0.040172 0.030000 -0.123637 0.9490 0.9490 0.9490
v -0.052533 0.000000 -0.161680 0.8470 0.8470 0.8470
v -0.105172 0.030000 -0.076412 0.9607 0.9607 0.9607
v -0.170000 0.000000 -0.000000 0.8549 0.8549 0.8549
v -0.130000 0.030000 -0.000000 0.9568 0.9568 0.9568
v -0.137533 0.000000 0.099923 0.8549 0.8549 0.8549
v -0.052533 0.000000 0.161680 0.8509 0.8509 0.8509
v -0.040172 0.030000 0.123637 0.9451 0.9451 0.9451
v -0.105172 0.030000 0.076412 0.9568 0.9568 0.9568
v 0.052533 0.000000 0.161680 0.8470 0.8470 0.8470
v 0.040172 0.030000 0.123637 0.9451 0.9451 0.9451
v 0.137533 0.000000 0.099923 0.8470 0.8470 0.8470
v 0.130000 0.030000 0.000000 0.9529 0.9529 0.9529
v 0.040172 0.030000 -0.123637 0.9451 0.9451 0.9451
v 0.105172 0.030000 0.076412 0.9490 0.9490 0.9490
v -0.137533 0.000000 -0.099923 0.8549 0.8549 0.8549
v 0.170000 0.000000 0.000000 0.8549 0.8549 0.8549
v 0.035000 0.000000 0.000000 0.6667 0.6667 0.6667
v 0.024749 0.660000 -0.024749 0.7960 0.7960 0.7960
v 0.000000 0.000000 -0.035000 0.6667 0.6667 0.6667
v -0.024749 0.660000 -0.024749 0.7960 0.7960 0.7960
v -0.035000 0.660000 -0.000000 0.7960 0.7960 0.7960
v -0.024749 0.660000 0.024749 0.7960 0.7960 0.7960
v 0.035000 0.660000 0.000000 0.7921 0.7921 0.7921
v 0.000000 0.660000 -0.035000 0.7960 0.7960 0.7960
v -0.000000 0.660000 0.035000 0.8000 0.8000 0.8000
v 0.024749 0.660000 0.024749 0.7960 0.7960 0.7960
v 0.024749 0.000000 0.024749 0.6667 0.6667 0.6667
v -0.000000 0.000000 0.035000 0.6667 0.6667 0.6667
v -0.024749 0.000000 0.024749 0.6667 0.6667 0.6667
v -0.035000 0.000000 -0.000000 0.6667 0.6667 0.6667
v -0.024749 0.000000 -0.024749 0.6667 0.6667 0.6667
v 0.024749 0.000000 -0.024749 0.6667 0.6667 0.6667
v 0.170000 0.310000 0.000000 0.9607 0.9607 0.9607
v 0.129443 0.300000 -0.094046 0.9058 0.9058 0.9058
v 0.160000 0.300000 0.000000 0.6667 0.6667 0.6667
v 0.170000 0.290000 0.000000 0.9137 0.9137 0.9137
v 0.180000 0.300000 0.000000 0.9843 0.9843 0.9843
v 0.052533 0.310000 -0.161680 0.9568 0.9568 0.9568
v 0.137533 0.310000 -0.099923 0.9607 0.9607 0.9607
v 0.049443 0.300000 -0.152169 0.9058 0.9058 0.9058
v 0.137533 0.290000 -0.099923 0.9176 0.9176 0.9176
v 0.055623 0.300000 -0.171190 0.9804 0.9804 0.9804
v 0.145623 0.300000 -0.105801 0.9843 0.9843 0.9843
v -0.049443 0.300000 -0.152169 0.9019 0.9019 0.9019
v 0.052533 0.290000 -0.161680 0.9098 0.9098 0.9098
v -0.055623 0.300000 -0.171190 0.9764 0.9764 0.9764
v -0.052533 0.310000 -0.161680 0.9568 0.9568 0.9568
v -0.052533 0.290000 -0.161680 0.9098 0.9098 0.9098
v -0.137533 0.310000 -0.099923 0.9607 0.9607 0.9607
v -0.129443 0.300000 -0.094046 0.9019 0.9019 0.9019
v -0.160000 0.300000 -0.000000 0.6667 0.6667 0.6667
v -0.137533 0.290000 -0.099923 0.9137 0.9137 0.9137
v -0.170000 0.290000 -0.000000 0.9098 0.9098 0.9098
v -0.180000 0.300000 -0.000000 0.9764 0.9764 0.9764
v -0.145623 0.300000 -0.105801 0.9804 0.9804 0.9804
v -0.170000 0.310000 -0.000000 0.9568 0.9568 0.9568
v -0.129443 0.300000 0.094046 0.9058 0.9058 0.9058
v -0.145623 0.300000 0.105801 0.9804 0.9804 0.9804
v -0.052533 0.310000 0.161680 0.9607 0.9607 0.9607
v -0.137533 0.310000 0.099923 0.9607 0.9607 0.9607
v -0.049443 0.300000 0.152169 0.8941 0.8941 0.8941
v -0.137533 0.290000 0.099923 0.9176 0.9176 0.9176
v -0.052533 0.290000 0.161680 0.9176 0.9176 0.9176
v 0.052533 0.310000 0.161680 0.9607 0.9607 0.9607
v -0.055623 0.300000 0.171190 0.9804 0.9804 0.9804
v 0.145623 0.300000 0.105801 0.9843 0.9843 0.9843
v 0.137533 0.310000 0.099923 0.9568 0.9568 0.9568
v 0.129443 0.300000 0.094046 0.8980 0.8980 0.8980
v 0.049443 0.300000 0.152169 0.8941 0.8941 0.8941
v 0.052533 0.290000 0.161680 0.9215 0.9215 0.9215
v 0.137533 0.290000 0.099923 0.9176 0.9176 0.9176
v 0.055623 0.300000 0.171190 0.9764 0.9764 0.9764
v 0.006000 0.306000 -0.015000 0.6667 0.6667 0.6667
v -0.006000 0.306000 -0.015000 0.6667 0.6667 0.6667
v 0.006000 0.306000 -0.165000 0.7608 0.7608 0.7608
v -0.006000 0.294000 -0.165000 0.7568 0.7568 0.7568
v -0.006000 0.294000 -0.015000 0.6667 0.6667 0.6667
v 0.006000 0.294000 -0.015000 0.6667 0.6667 0.6667
v -0.006000 0.306000 -0.165000 0.7608 0.7608 0.7608
v 0.006000 0.294000 -0.165000 0.7568 0.7568 0.7568
v -0.015000 0.294000 0.006000 0.6667 0.6667 0.6667
v -0.015000 0.294000 -0.006000 0.6667 0.6667 0.6667
v -0.165000 0.306000 0.006000 0.8000 0.8000 0.8000
v -0.165000 0.306000 -0.006000 0.7921 0.7921 0.7921
v -0.165000 0.294000 -0.006000 0.7764 0.7764 0.7764
v -0.015000 0.306000 0.006000 0.6667 0.6667 0.6667
v -0.015000 0.306000 -0.006000 0.6667 0.6667 0.6667
v -0.165000 0.294000 0.006000 0.7804 0.7804 0.7804
v -0.006000 0.306000 0.015000 0.6667 0.6667 0.6667
v 0.006000 0.306000 0.015000 0.6667 0.6667 0.6667
v -0.006000 0.294000 0.165000 0.7608 0.7608 0.7608
v 0.006000 0.294000 0.165000 0.7608 0.7608 0.7608
v 0.006000 0.306000 0.165000 0.7568 0.7568 0.7568
v -0.006000 0.306000 0.165000 0.7568 0.7568 0.7568
v -0.006000 0.294000 0.015000 0.6667 0.6667 0.6667
v 0.006000 0.294000 0.015000 0.6667 0.6667 0.6667
v 0.015000 0.294000 0.006000 0.6667 0.6667 0.6667
v 0.015000 0.306000 0.006000 0.6667 0.6667 0.6667
v 0.015000 0.306000 -0.006000 0.6667 0.6667 0.6667
v 0.165000 0.306000 -0.006000 0.7921 0.7921 0.7921
v 0.165000 0.294000 -0.006000 0.7804 0.7804 0.7804
v 0.165000 0.294000 0.006000 0.7804 0.7804 0.7804
v 0.165000 0.306000 0.006000 0.8000 0.8000 0.8000
v 0.015000 0.294000 -0.006000 0.6667 0.6667 0.6667
vn 0.6000 0.8000 -0.0000
vn 0.4854 0.8000 -0.3527
vn 0.1854 0.8000 -0.5706
vn -0.1854 0.8000 -0.5706
vn -0.4854 0.8000 -0.3527
vn -0.6000 0.8000 -0.0000
vn -0.4854 0.8000 0.3527
vn -0.1854 0.8000 0.5706
vn 0.1854 0.8000 0.5706
vn 0.4854 0.8000 0.3527
vn -0.0000 1.0000 -0.0000
vn -0.0000 -1.0000 -0.0000
vn 1.0000 -0.0000 -0.0000
vn 0.7071 -0.0000 -0.7071
vn -0.0000 -0.0000 -1.0000
vn -0.7071 -0.0000 -0.7071
vn -1.0000 -0.0000 -0.0000
vn -0.7071 -0.0000 0.7071
vn -0.0000 -0.0000 1.0000
vn 0.7071 -0.0000 0.7071
vn 0.7071 0.7071 -0.0000
vn 0.5721 0.7071 -0.4156
vn -0.7071 0.7071 -0.0000
vn -0.5721 0.7071 0.4156
vn -0.7071 -0.7071 -0.0000
vn -0.5721 -0.7071 0.4156
vn 0.7071 -0.7071 -0.0000
vn 0.5721 -0.7071 -0.4156
vn 0.2185 0.7071 -0.6725
vn -0.2185 0.7071 0.6725
vn -0.2185 -0.7071 0.6725
vn 0.2185 -0.7071 -0.6725
vn -0.2185 0.7071 -0.6725
vn 0.2185 0.7071 0.6725
vn 0.2185 -0.7071 0.6725
vn -0.2185 -0.7071 -0.6725
vn -0.5721 0.7071 -0.4156
vn 0.5721 0.7071 0.4156
vn 0.5721 -0.7071 0.4156
vn -0.5721 -0.7071 -0.4156
vt 0.375488 0.969238
vt 0.378516 0.969238
vt 0.378516 0.999512
vt 0.375488 0.999512
vt 0.381543 0.969238
vt 0.381543 0.999512
vt 0.384570 0.969238
vt 0.384570 0.999512
vt 0.387598 0.969238
vt 0.387598 0.999512
vt 0.390625 0.969238
vt 0.390625 0.999512
vt 0.393652 0.969238
vt 0.393652 0.999512
vt 0.396680 0.969238
vt 0.396680 0.999512
vt 0.399707 0.969238
vt 0.399707 0.999512
vt 0.402734 0.969238
vt 0.402734 0.999512
vt 0.405762 0.969238
vt 0.405762 0.999512
vt 0.405762 0.984375
vt 0.402871 0.993730
vt 0.395303 0.999512
vt 0.385947 0.999512
vt 0.378379 0.993730
vt 0.375488 0.984375
vt 0.378379 0.975020
vt 0.385947 0.969238
vt 0.395303 0.969238
vt 0.402871 0.975020
vt 0.379272 0.969238
vt 0.379272 0.999512
vt 0.383057 0.969238
vt 0.383057 0.999512
vt 0.386841 0.969238
vt 0.386841 0.999512
vt 0.394409 0.969238
vt 0.394409 0.999512
vt 0.398193 0.969238
vt 0.398193 0.999512
vt 0.401978 0.969238
vt 0.401978 0.999512
vt 0.401328 0.995078
vt 0.379922 0.995078
vt 0.379922 0.973672
vt 0.401328 0.973672
vt 0.378516 0.976807
vt 0.375488 0.976807
vt 0.378516 0.984375
vt 0.378516 0.991943
vt 0.375488 0.991943
vt 0.381543 0.976807
vt 0.381543 0.984375
vt 0.381543 0.991943
vt 0.384570 0.976807
vt 0.384570 0.984375
vt 0.384570 0.991943
vt 0.387598 0.976807
vt 0.387598 0.984375
vt 0.387598 0.991943
vt 0.390625 0.976807
vt 0.390625 0.984375
vt 0.390625 0.991943
vt 0.393652 0.976807
vt 0.393652 0.984375
vt 0.393652 0.991943
vt 0.396680 0.976807
vt 0.396680 0.984375
vt 0.396680 0.991943
vt 0.399707 0.976807
vt 0.399707 0.984375
vt 0.399707 0.991943
vt 0.402734 0.976807
vt 0.402734 0.984375
vt 0.402734 0.991943
vt 0.405762 0.976807
vt 0.405762 0.991943
vt 0.378894 0.969238
vt 0.378894 0.972644
vt 0.375488 0.972644
vt 0.405762 0.971660
vt 0.375488 0.971660
vt 0.377910 0.969238
vt 0.377910 0.999512
s 1
usemtl props
f 20/1/1 1/2/2 2/3/2 16/4/1
f 1/2/2 3/5/3 17/6/3 2/3/2
f 3/5/3 5/7/4 4/8/4 17/6/3
f 5/7/4 19/9/5 6/10/5 4/8/4
f 19/9/5 7/11/6 8/12/6 6/10/5
f 7/11/6 9/13/7 12/14/7 8/12/6
f 9/13/7 10/15/8 11/16/8 12/14/7
f 10/15/8 13/17/9 14/18/9 11/16/8
f 13/17/9 15/19/10 18/20/10 14/18/9
f 15/19/10 20/21/1 16/22/1 18/20/10
s 0
f 16/23/11 2/24/11 17/25/11 4/26/11 6/27/11 8/28/11 12/29/11 11/30/11 14/31/11 18/32/11
f 15/24/12 13/25/12 10/26/12 9/27/12 7/28/12 19/29/12 5/30/12 3/31/12 1/32/12 20/23/12
s 1
f 21/1/13 36/33/14 22/34/14 27/4/13
f 36/33/14 23/35/15 28/36/15 22/34/14
f 23/35/15 35/37/16 24/38/16 28/36/15
f 35/37/16 34/11/17 25/12/17 24/38/16
f 34/11/17 33/39/18 26/40/18 25/12/17
f 33/39/18 32/41/19 29/42/19 26/40/18
f 32/41/19 31/43/20 30/44/20 29/42/19
f 31/43/20 21/21/13 27/22/13 30/44/20
s 0
f 27/23/11 22/45/11 28/12/11 24/46/11 25/28/11 26/47/11 29/11/11 30/48/11
f 31/45/12 32/12/12 33/46/12 34/28/12 35/47/12 23/11/12 36/48/12 21/23/12
s 1
f 41/1/21 47/2/22 43/49/22 37/50/21
f 37/50/23 43/49/24 38/51/24 39/28/23
f 39/28/25 38/51/26 45/52/26 40/53/25
f 40/53/27 45/52/28 47/3/28 41/4/27
f 47/2/22 46/5/29 42/54/29 43/49/22
f 43/49/24 42/54/30 44/55/30 38/51/24
f 38/51/26 44/55/31 49/56/31 45/52/26
f 45/52/28 49/56/32 46/6/32 47/3/28
f 46/5/29 50/7/33 51/57/33 42/54/29
f 42/54/30 51/57/34 48/58/34 44/55/30
f 44/55/31 48/58/35 52/59/35 49/56/31
f 49/56/32 52/59/36 50/8/36 46/6/32
f 50/7/33 59/9/37 53/60/37 51/57/33
f 51/57/34 53/60/38 54/61/38 48/58/34
f 48/58/35 54/61/39 56/62/39 52/59/35
f 52/59/36 56/62/40 59/10/40 50/8/36
f 59/9/37 58/11/23 60/63/23 53/60/37
f 53/60/38 60/63/21 55/64/21 54/61/38
f 54/61/39 55/64/27 57/65/27 56/62/39
f 56/62/40 57/65/25 58/12/25 59/10/40
f 58/11/23 62/13/24 64/66/24 60/63/23
f 60/63/21 64/66/22 61/67/22 55/64/21
f 55/64/27 61/67/28 66/68/28 57/65/27
f 57/65/25 66/68/26 62/14/26 58/12/25
f 62/13/24 69/15/30 63/69/30 64/66/24
f 64/66/22 63/69/29 65/70/29 61/67/22
f 61/67/28 65/70/32 67/71/32 66/68/28
f 66/68/26 67/71/31 69/16/31 62/14/26
f 69/15/30 76/17/34 68/72/34 63/69/30
f 63/69/29 68/72/33 73/73/33 65/70/29
f 65/70/32 73/73/36 74/74/36 67/71/32
f 67/71/31 74/74/35 76/18/35 69/16/31
f 76/17/34 70/19/38 71/75/38 68/72/34
f 68/72/33 71/75/37 72/76/37 73/73/33
f 73/73/36 72/76/40 75/77/40 74/74/36
f 74/74/35 75/77/39 70/20/39 76/18/35
f 70/19/38 41/21/21 37/78/21 71/75/38
f 71/75/37 37/78/23 39/23/23 72/76/37
f 72/76/40 39/23/25 40/79/25 75/77/40
f 75/77/39 40/79/27 41/22/27 70/20/39
s 0
f 81/1/19 82/80/19 77/81/19 78/82/19
f 84/1/15 80/80/15 83/81/15 79/82/15
f 80/1/17 81/21/17 78/83/17 83/84/17
f 82/1/13 84/21/13 79/83/13 77/84/13
f 78/1/11 77/85/11 79/86/11 83/4/11
f 80/1/12 84/85/12 82/86/12 81/4/12
f 85/1/13 86/80/13 91/81/13 90/82/13
f 89/1/17 92/80/17 87/81/17 88/82/17
f 92/1/19 85/21/19 90/83/19 87/84/19
f 86/1/15 89/21/15 88/83/15 91/84/15
f 90/1/11 91/85/11 88/86/11 87/4/11
f 92/1/12 89/85/12 86/86/12 85/4/12
f 100/1/15 99/80/15 93/81/15 94/82/15
f 95/1/19 96/80/19 97/81/19 98/82/19
f 96/1/13 100/21/13 94/83/13 97/84/13
f 99/1/17 95/21/17 98/83/17 93/84/17
f 94/1/11 93/85/11 98/86/11 97/4/11
f 96/1/12 95/85/12 99/86/12 100/4/12
f 108/1/17 101/80/17 102/81/17 103/82/17
f 106/1/13 105/80/13 104/81/13 107/82/13
f 105/1/15 108/21/15 103/83/15 104/84/15
f 101/1/19 106/21/19 107/83/19 102/84/19
f 103/1/11 102/85/11 107/86/11 104/4/11
f 105/1/12 106/85/12 101/86/12 108/4/12
o stool_red_seat
v 0.173205 0.680000 -0.100000 0.9921 0.9921 0.9921
v 0.173205 0.740000 -0.100000 0.9607 0.9607 0.9607
v 0.000000 0.680000 -0.200000 0.9921 0.9921 0.9921
v 0.000000 0.740000 -0.200000 0.9568 0.9568 0.9568
v -0.173205 0.680000 -0.100000 0.9921 0.9921 0.9921
v -0.173205 0.740000 -0.100000 0.9568 0.9568 0.9568
v -0.100000 0.740000 -0.173205 0.9568 0.9568 0.9568
v -0.173205 0.680000 0.100000 0.9921 0.9921 0.9921
v -0.100000 0.680000 0.173205 0.9921 0.9921 0.9921
v -0.100000 0.740000 0.173205 0.9607 0.9607 0.9607
v 0.100000 0.680000 0.173205 0.9921 0.9921 0.9921
v 0.173205 0.740000 0.100000 0.9568 0.9568 0.9568
v 0.100000 0.740000 0.173205 0.9568 0.9568 0.9568
v 0.173205 0.680000 0.100000 0.9921 0.9921 0.9921
v 0.200000 0.680000 0.000000 0.9921 0.9921 0.9921
v 0.200000 0.740000 0.000000 0.9607 0.9607 0.9607
v 0.100000 0.740000 -0.173205 0.9568 0.9568 0.9568
v -0.200000 0.740000 -0.000000 0.9568 0.9568 0.9568
v -0.173205 0.740000 0.100000 0.9529 0.9529 0.9529
v -0.000000 0.740000 0.200000 0.9568 0.9568 0.9568
v -0.000000 0.680000 0.200000 0.9921 0.9921 0.9921
v -0.200000 0.680000 -0.000000 0.9921 0.9921 0.9921
v -0.100000 0.680000 -0.173205 0.9921 0.9921 0.9921
v 0.100000 0.680000 -0.173205 0.9960 0.9960 0.9960
v 0.164545 0.740000 -0.095000 0.8392 0.8392 0.8392
v 0.095000 0.740000 -0.164545 0.8392 0.8392 0.8392
v 0.095000 0.780000 -0.164545 0.9960 0.9960 0.9960
v 0.000000 0.740000 -0.190000 0.8392 0.8392 0.8392
v -0.095000 0.740000 -0.164545 0.8392 0.8392 0.8392
v -0.095000 0.780000 -0.164545 1.0000 1.0000 1.0000
v 0.000000 0.780000 -0.190000 1.0000 1.0000 1.0000
v -0.164545 0.740000 -0.095000 0.8353 0.8353 0.8353
v -0.164545 0.780000 -0.095000 0.9960 0.9960 0.9960
v -0.190000 0.740000 -0.000000 0.8313 0.8313 0.8313
v -0.164545 0.740000 0.095000 0.8313 0.8313 0.8313
v -0.190000 0.780000 -0.000000 1.0000 1.0000 1.0000
v -0.095000 0.740000 0.164545 0.8313 0.8313 0.8313
v -0.164545 0.780000 0.095000 1.0000 1.0000 1.0000
v -0.000000 0.740000 0.190000 0.8313 0.8313 0.8313
v 0.095000 0.740000 0.164545 0.8313 0.8313 0.8313
v 0.164545 0.740000 0.095000 0.8353 0.8353 0.8353
v 0.095000 0.780000 0.164545 0.9960 0.9960 0.9960
v 0.190000 0.740000 0.000000 0.8392 0.8392 0.8392
v 0.164545 0.780000 0.095000 0.9921 0.9921 0.9921
v 0.190000 0.780000 0.000000 0.9960 0.9960 0.9960
v 0.164545 0.780000 -0.095000 1.0000 1.0000 1.0000
v -0.095000 0.780000 0.164545 0.9960 0.9960 0.9960
v -0.000000 0.780000 0.190000 0.9960 0.9960 0.9960
vn 1.0000 -0.0000 -0.0000
vn 0.8660 -0.0000 -0.5000
vn 0.5000 -0.0000 -0.8660
vn -0.0000 -0.0000 -1.0000
vn -0.5000 -0.0000 -0.8660
vn -0.8660 -0.0000 -0.5000
vn -1.0000 -0.0000 -0.0000
vn -0.8660 -0.0000 0.5000
vn -0.5000 -0.0000 0.8660
vn -0.0000 -0.0000 1.0000
vn 0.5000 -0.0000 0.8660
vn 0.8660 -0.0000 0.5000
vn -0.0000 1.0000 -0.0000
vn -0.0000 -1.0000 -0.0000
vt 0.297363 0.922363
vt 0.298584 0.922363
vt 0.298584 0.937012
vt 0.297363 0.937012
vt 0.299805 0.922363
vt 0.299805 0.937012
vt 0.301025 0.922363
vt 0.301025 0.937012
vt 0.302246 0.922363
vt 0.302246 0.937012
vt 0.303467 0.922363
vt 0.303467 0.937012
vt 0.304688 0.922363
vt 0.304688 0.937012
vt 0.305908 0.922363
vt 0.305908 0.937012
vt 0.307129 0.922363
vt 0.307129 0.937012
vt 0.308350 0.922363
vt 0.308350 0.937012
vt 0.309570 0.922363
vt 0.309570 0.937012
vt 0.310791 0.922363
vt 0.310791 0.937012
vt 0.312012 0.922363
vt 0.312012 0.937012
vt 0.218262 0.921875
vt 0.216234 0.929443
vt 0.210693 0.934984
vt 0.203125 0.937012
vt 0.195557 0.934984
vt 0.190016 0.929443
vt 0.187988 0.921875
vt 0.190016 0.914307
vt 0.195557 0.908766
vt 0.203125 0.906738
vt 0.210693 0.908766
vt 0.216234 0.914307
vt 0.403734 0.991943
vt 0.398193 0.997484
vt 0.390625 0.999512
vt 0.383057 0.997484
vt 0.377516 0.991943
vt 0.375488 0.984375
vt 0.377516 0.976807
vt 0.383057 0.971266
vt 0.390625 0.969238
vt 0.398193 0.971266
vt 0.403734 0.976807
vt 0.405762 0.984375
vt 0.187988 0.906738
vt 0.190511 0.906738
vt 0.190511 0.937012
vt 0.187988 0.937012
vt 0.193034 0.906738
vt 0.193034 0.937012
vt 0.195557 0.906738
vt 0.195557 0.937012
vt 0.198079 0.906738
vt 0.198079 0.937012
vt 0.200602 0.906738
vt 0.200602 0.937012
vt 0.205648 0.906738
vt 0.205648 0.937012
vt 0.208171 0.906738
vt 0.208171 0.937012
vt 0.210693 0.906738
vt 0.210693 0.937012
vt 0.213216 0.906738
vt 0.213216 0.937012
vt 0.215739 0.906738
vt 0.215739 0.937012
vt 0.218262 0.906738
vt 0.218262 0.937012
s 1
usemtl props
f 123/87/41 109/88/42 110/89/42 124/90/41
f 109/88/42 132/91/43 125/92/43 110/89/42
f 132/91/43 111/93/44 112/94/44 125/92/43
f 111/93/44 131/95/45 115/96/45 112/94/44
f 131/95/45 113/97/46 114/98/46 115/96/45
f 113/97/46 130/99/47 126/100/47 114/98/46
f 130/99/47 116/101/48 127/102/48 126/100/47
f 116/101/48 117/103/49 118/104/49 127/102/48
f 117/103/49 129/105/50 128/106/50 118/104/49
f 129/105/50 119/107/51 121/108/51 128/106/50
f 119/107/51 122/109/52 120/110/52 121/108/51
f 122/109/52 123/111/41 124/112/41 120/110/52
s 0
f 124/113/53 110/114/53 125/115/53 112/116/53 115/117/53 114/118/53 126/119/53 127/120/53 118/121/53 128/122/53 121/123/53 120/124/53
f 122/125/54 119/126/54 129/127/54 117/128/54 116/129/54 130/130/54 113/131/54 131/132/54 111/133/54 132/134/54 109/135/54 123/136/54
s 1
f 151/137/41 133/138/42 154/139/42 153/140/41
f 133/138/42 134/141/43 135/142/43 154/139/42
f 134/141/43 136/143/44 139/144/44 135/142/43
f 136/143/44 137/145/45 138/146/45 139/144/44
f 137/145/45 140/147/46 141/148/46 138/146/45
f 140/147/46 142/122/47 144/116/47 141/148/46
f 142/122/47 143/149/48 146/150/48 144/116/47
f 143/149/48 145/151/49 155/152/49 146/150/48
f 145/151/49 147/153/50 156/154/50 155/152/49
f 147/153/50 148/155/51 150/156/51 156/154/50
f 148/155/51 149/157/52 152/158/52 150/156/51
f 149/157/52 151/159/41 153/160/41 152/158/52
s 0
f 153/113/53 154/114/53 135/115/53 139/116/53 138/117/53 141/118/53 144/119/53 146/120/53 155/121/53 156/122/53 150/123/53 152/124/53
