# Blender 4.5.14 LTS
# www.blender.org
mtllib bench_entrance.mtl
o bench_entrance
v -0.800000 0.000000 0.180000 0.7882 0.7882 0.7882
v -0.780000 0.420000 0.200000 0.8706 0.8706 0.8706
v -0.790000 0.408055 0.187458 0.8392 0.8392 0.8392
v -0.810000 0.408055 0.187458 0.8588 0.8588 0.8588
v -0.800000 0.000000 0.220000 0.7921 0.7921 0.7921
v -0.820000 0.420000 0.200000 0.9215 0.9215 0.9215
v -0.782679 0.000000 0.210000 0.7960 0.7960 0.7960
v -0.782679 0.000000 0.190000 0.7882 0.7882 0.7882
v -0.790000 0.431945 0.212542 0.9255 0.9255 0.9255
v -0.810000 0.431945 0.212542 0.9451 0.9451 0.9451
v -0.790000 0.431846 -0.187364 0.7412 0.7412 0.7412
v -0.790000 0.408154 -0.212636 0.7020 0.7020 0.7020
v -0.817321 0.901036 -0.240054 0.9607 0.9607 0.9607
v -0.817321 0.898964 -0.259946 0.9607 0.9607 0.9607
v -0.810000 0.408154 -0.212636 0.7020 0.7020 0.7020
v -0.800000 0.902072 -0.230108 0.9804 0.9804 0.9804
v -0.820000 0.420000 -0.200000 0.8509 0.8509 0.8509
v -0.810000 0.431846 -0.187364 0.7020 0.7020 0.7020
v -0.782679 0.901036 -0.240054 0.9764 0.9764 0.9764
v -0.780000 0.420000 -0.200000 0.9019 0.9019 0.9019
v -0.800000 0.897928 -0.269892 0.9490 0.9490 0.9490
v -0.817321 0.000000 0.210000 0.7882 0.7882 0.7882
v -0.817321 0.000000 0.190000 0.7843 0.7843 0.7843
v -0.782679 0.898964 -0.259946 0.9607 0.9607 0.9607
v -0.800000 0.420000 -0.220000 0.9294 0.9294 0.9294
v -0.817321 0.000000 -0.210000 0.7960 0.7960 0.7960
v -0.817321 0.420000 -0.210000 0.9137 0.9137 0.9137
v -0.817321 0.000000 -0.190000 0.7960 0.7960 0.7960
v -0.800000 0.000000 -0.180000 0.7882 0.7882 0.7882
v -0.782679 0.420000 -0.190000 0.8117 0.8117 0.8117
v -0.782679 0.000000 -0.190000 0.7921 0.7921 0.7921
v -0.782679 0.000000 -0.210000 0.8000 0.8000 0.8000
v -0.782679 0.420000 -0.210000 0.9098 0.9098 0.9098
v -0.800000 0.000000 -0.220000 0.8000 0.8000 0.8000
v -0.817321 0.420000 -0.190000 0.8117 0.8117 0.8117
v -0.800000 0.420000 -0.180000 0.7020 0.7020 0.7020
v 0.782679 0.000000 0.190000 0.7843 0.7843 0.7843
v 0.782679 0.000000 0.210000 0.7882 0.7882 0.7882
v 0.790000 0.408055 0.187458 0.8549 0.8549 0.8549
v 0.810000 0.408055 0.187458 0.8392 0.8392 0.8392
v 0.800000 0.000000 0.220000 0.7921 0.7921 0.7921
v 0.817321 0.000000 0.210000 0.7960 0.7960 0.7960
v 0.790000 0.431945 0.212542 0.9451 0.9451 0.9451
v 0.780000 0.420000 0.200000 0.9215 0.9215 0.9215
v 0.817321 0.000000 0.190000 0.7960 0.7960 0.7960
v 0.810000 0.431945 0.212542 0.9294 0.9294 0.9294
v 0.800000 0.000000 0.180000 0.7882 0.7882 0.7882
v 0.820000 0.420000 0.200000 0.8706 0.8706 0.8706
v 0.810000 0.408154 -0.212636 0.7020 0.7020 0.7020
v 0.790000 0.408154 -0.212636 0.7020 0.7020 0.7020
v 0.820000 0.420000 -0.200000 0.9058 0.9058 0.9058
v 0.810000 0.431846 -0.187364 0.7451 0.7451 0.7451
v 0.782679 0.898964 -0.259946 0.9529 0.9529 0.9529
v 0.800000 0.902072 -0.230108 0.9725 0.9725 0.9725
v 0.780000 0.420000 -0.200000 0.8470 0.8470 0.8470
v 0.817321 0.901036 -0.240054 0.9804 0.9804 0.9804
v 0.790000 0.431846 -0.187364 0.7059 0.7059 0.7059
v 0.800000 0.897928 -0.269892 0.9568 0.9568 0.9568
v 0.782679 0.901036 -0.240054 0.9490 0.9490 0.9490
v 0.817321 0.898964 -0.259946 0.9647 0.9647 0.9647
v 0.800000 0.420000 -0.220000 0.9255 0.9255 0.9255
v 0.782679 0.000000 -0.210000 0.7960 0.7960 0.7960
v 0.782679 0.420000 -0.210000 0.9058 0.9058 0.9058
v 0.782679 0.000000 -0.190000 0.7921 0.7921 0.7921
v 0.800000 0.420000 -0.180000 0.7020 0.7020 0.7020
v 0.782679 0.420000 -0.190000 0.8078 0.8078 0.8078
v 0.800000 0.000000 -0.180000 0.7882 0.7882 0.7882
v 0.817321 0.420000 -0.210000 0.9098 0.9098 0.9098
v 0.817321 0.000000 -0.210000 0.8000 0.8000 0.8000
v 0.817321 0.000000 -0.190000 0.7921 0.7921 0.7921
v 0.800000 0.000000 -0.220000 0.8000 0.8000 0.8000
v 0.817321 0.420000 -0.190000 0.8157 0.8157 0.8157
v -0.950000 0.420000 0.185000 0.9529 0.9529 0.9529
v 0.950000 0.460000 0.185000 0.9843 0.9843 0.9843
v -0.950000 0.460000 0.185000 0.9921 0.9921 0.9921
v 0.950000 0.460000 0.075000 0.9333 0.9333 0.9333
v -0.950000 0.460000 0.075000 0.9372 0.9372 0.9372
v -0.950000 0.420000 0.075000 0.9098 0.9098 0.9098
v 0.950000 0.420000 0.075000 0.9058 0.9058 0.9058
v 0.950000 0.420000 0.185000 0.9529 0.9529 0.9529
v -0.950000 0.420000 0.055000 0.9098 0.9098 0.9098
v 0.950000 0.420000 0.055000 0.9098 0.9098 0.9098
v -0.950000 0.420000 -0.055000 0.9058 0.9058 0.9058
v -0.950000 0.460000 -0.055000 0.9294 0.9294 0.9294
v 0.950000 0.420000 -0.055000 0.9098 0.9098 0.9098
v -0.950000 0.460000 0.055000 0.9411 0.9411 0.9411
v 0.950000 0.460000 0.055000 0.9411 0.9411 0.9411
v 0.950000 0.460000 -0.055000 0.9255 0.9255 0.9255
v 0.950000 0.420000 -0.075000 0.9098 0.9098 0.9098
v 0.950000 0.460000 -0.075000 0.9333 0.9333 0.9333
v -0.950000 0.460000 -0.075000 0.9333 0.9333 0.9333
v 0.950000 0.460000 -0.185000 0.9686 0.9686 0.9686
v -0.950000 0.460000 -0.185000 0.9725 0.9725 0.9725
v -0.950000 0.420000 -0.185000 0.9490 0.9490 0.9490
v 0.950000 0.420000 -0.185000 0.9451 0.9451 0.9451
v -0.950000 0.420000 -0.075000 0.9098 0.9098 0.9098
v -0.950000 0.671994 -0.239356 0.9607 0.9607 0.9607
v -0.950000 0.666785 -0.268900 0.9686 0.9686 0.9686
v 0.950000 0.563665 -0.220255 0.9490 0.9490 0.9490
v 0.950000 0.666785 -0.268900 0.9725 0.9725 0.9725
v 0.950000 0.671994 -0.239356 0.9607 0.9607 0.9607
v -0.950000 0.558456 -0.249799 0.9725 0.9725 0.9725
v 0.950000 0.558456 -0.249799 0.9725 0.9725 0.9725
v -0.950000 0.563665 -0.220255 0.9490 0.9490 0.9490
v -0.950000 0.722400 -0.299016 0.9725 0.9725 0.9725
v -0.950000 0.830729 -0.318117 0.9960 0.9960 0.9960
v -0.950000 0.727610 -0.269471 0.9529 0.9529 0.9529
v -0.950000 0.835939 -0.288573 0.9921 0.9921 0.9921
v 0.950000 0.835939 -0.288573 0.9882 0.9882 0.9882
v 0.950000 0.830729 -0.318117 1.0000 1.0000 1.0000
v 0.950000 0.722400 -0.299016 0.9764 0.9764 0.9764
v 0.950000 0.727610 -0.269471 0.9529 0.9529 0.9529
vn 0.0857 0.0161 -0.9962
vn -0.7071 0.0083 -0.7071
vn -0.9513 0.0013 0.3083
vn -0.0991 0.0149 0.9950
vn 0.7071 0.0078 0.7071
vn 0.9509 0.0013 -0.3095
vn 0.7655 -0.6434 -0.0001
vn -0.0000 -1.0000 -0.0002
vn -0.7655 -0.6434 -0.0001
vn -0.7654 0.6435 -0.0001
vn -0.0000 1.0000 -0.0002
vn 0.7654 0.6435 -0.0001
vn 0.1412 -0.1121 -0.9836
vn -0.7071 -0.0783 -0.7028
vn -0.9557 0.0297 0.2929
vn -0.1338 0.0925 0.9867
vn 0.7071 0.0680 0.7038
vn 0.9559 -0.0312 -0.2921
vn -0.0000 -1.0000 -0.0000
vn -0.0000 0.9946 -0.1036
vn -0.5000 -0.0000 -0.8660
vn -1.0000 -0.0000 -0.0000
vn -0.5000 -0.0000 0.8660
vn 0.5000 -0.0000 0.8660
vn 1.0000 -0.0000 -0.0000
vn 0.5000 -0.0000 -0.8660
vn -0.0000 1.0000 -0.0000
vn -0.0000 -0.0000 1.0000
vn -0.0000 -0.0000 -1.0000
vn -0.0000 0.1736 0.9848
vn -0.0000 -0.1736 -0.9848
vn -0.0000 0.9848 -0.1736
vn -0.0000 -0.9848 0.1736
vt 0.343994 0.922119
vt 0.346517 0.922119
vt 0.346517 0.927165
vt 0.343994 0.927165
vt 0.349040 0.922119
vt 0.349040 0.927165
vt 0.351562 0.922119
vt 0.351562 0.927165
vt 0.354085 0.922119
vt 0.354085 0.927165
vt 0.356608 0.922119
vt 0.356608 0.927165
vt 0.359131 0.922119
vt 0.359131 0.927165
vt 0.346517 0.932210
vt 0.343994 0.932210
vt 0.349040 0.932210
vt 0.351562 0.932210
vt 0.354085 0.932210
vt 0.356608 0.932210
vt 0.359131 0.932210
vt 0.346517 0.937256
vt 0.343994 0.937256
vt 0.349040 0.937256
vt 0.351562 0.937256
vt 0.354085 0.937256
vt 0.356608 0.937256
vt 0.359131 0.937256
vt 0.359131 0.925903
vt 0.359131 0.933472
vt 0.343994 0.933472
vt 0.343994 0.925903
vt 0.297119 0.922119
vt 0.327881 0.922119
vt 0.327881 0.922756
vt 0.297119 0.922756
vt 0.303887 0.922119
vt 0.303887 0.924541
vt 0.297119 0.924541
vt 0.327881 0.923872
vt 0.297119 0.923872
vt 0.298965 0.922119
vt 0.298965 0.928779
vt 0.297119 0.928779
vt 0.327881 0.922597
vt 0.297119 0.922597
s 0
usemtl props
f 1/1/1 23/2/1 3/3/1 2/4/1
f 23/2/2 22/5/2 4/6/2 3/3/2
f 22/5/3 5/7/3 6/8/3 4/6/3
f 5/7/4 7/9/4 10/10/4 6/8/4
f 7/9/5 8/11/5 9/12/5 10/10/5
f 8/11/6 1/13/6 2/14/6 9/12/6
f 2/4/7 3/3/7 12/15/7 20/16/7
f 3/3/8 4/6/8 15/17/8 12/15/8
f 4/6/9 6/8/9 17/18/9 15/17/9
f 6/8/10 10/10/10 18/19/10 17/18/10
f 10/10/11 9/12/11 11/20/11 18/19/11
f 9/12/12 2/14/12 20/21/12 11/20/12
f 20/16/13 12/15/13 14/22/13 21/23/13
f 12/15/14 15/17/14 13/24/14 14/22/14
f 15/17/15 17/18/15 16/25/15 13/24/15
f 17/18/16 18/19/16 19/26/16 16/25/16
f 18/19/17 11/20/17 24/27/17 19/26/17
f 11/20/18 20/21/18 21/28/18 24/27/18
f 8/29/19 7/30/19 5/25/19 22/31/19 23/32/19 1/7/19
f 21/25/20 14/31/20 13/32/20 16/7/20 19/29/20 24/30/20
f 34/1/21 26/2/21 27/22/21 25/23/21
f 26/2/22 28/5/22 35/24/22 27/22/22
f 28/5/23 29/7/23 36/25/23 35/24/23
f 29/7/24 31/9/24 30/26/24 36/25/24
f 31/9/25 32/11/25 33/27/25 30/26/25
f 32/11/26 34/13/26 25/28/26 33/27/26
f 32/29/19 31/30/19 29/25/19 28/31/19 26/32/19 34/7/19
f 25/25/27 27/31/27 35/32/27 36/7/27 30/29/27 33/30/27
f 47/1/1 37/2/1 40/3/1 48/4/1
f 37/2/2 38/5/2 39/6/2 40/3/2
f 38/5/3 41/7/3 44/8/3 39/6/3
f 41/7/4 42/9/4 43/10/4 44/8/4
f 42/9/5 45/11/5 46/12/5 43/10/5
f 45/11/6 47/13/6 48/14/6 46/12/6
f 48/4/7 40/3/7 49/15/7 51/16/7
f 40/3/8 39/6/8 50/17/8 49/15/8
f 39/6/9 44/8/9 55/18/9 50/17/9
f 44/8/10 43/10/10 57/19/10 55/18/10
f 43/10/11 46/12/11 52/20/11 57/19/11
f 46/12/12 48/14/12 51/21/12 52/20/12
f 51/16/13 49/15/13 53/22/13 58/23/13
f 49/15/14 50/17/14 59/24/14 53/22/14
f 50/17/15 55/18/15 54/25/15 59/24/15
f 55/18/16 57/19/16 56/26/16 54/25/16
f 57/19/17 52/20/17 60/27/17 56/26/17
f 52/20/18 51/21/18 58/28/18 60/27/18
f 45/29/19 42/30/19 41/25/19 38/31/19 37/32/19 47/7/19
f 58/25/20 53/31/20 59/32/20 54/7/20 56/29/20 60/30/20
f 71/1/21 62/2/21 63/22/21 61/23/21
f 62/2/22 64/5/22 66/24/22 63/22/22
f 64/5/23 67/7/23 65/25/23 66/24/23
f 67/7/24 70/9/24 72/26/24 65/25/24
f 70/9/25 69/11/25 68/27/25 72/26/25
f 69/11/26 71/13/26 61/28/26 68/27/26
f 69/29/19 70/30/19 67/25/19 64/31/19 62/32/19 71/7/19
f 61/25/27 63/31/27 66/32/27 65/7/27 72/29/27 68/30/27
f 73/33/28 80/34/28 74/35/28 75/36/28
f 79/33/29 78/34/29 77/35/29 76/36/29
f 78/33/22 73/37/22 75/38/22 77/39/22
f 80/33/25 79/37/25 76/38/25 74/39/25
f 75/33/27 74/34/27 76/40/27 77/41/27
f 78/33/19 79/34/19 80/40/19 73/41/19
f 81/33/28 82/34/28 87/35/28 86/36/28
f 85/33/29 83/34/29 84/35/29 88/36/29
f 83/33/22 81/37/22 86/38/22 84/39/22
f 82/33/25 85/37/25 88/38/25 87/39/25
f 86/33/27 87/34/27 88/40/27 84/41/27
f 83/33/19 85/34/19 82/40/19 81/41/19
f 96/33/28 89/34/28 90/35/28 91/36/28
f 95/33/29 94/34/29 93/35/29 92/36/29
f 94/33/22 96/37/22 91/38/22 93/39/22
f 89/33/25 95/37/25 92/38/25 90/39/25
f 91/33/27 90/34/27 92/40/27 93/41/27
f 94/33/19 95/34/19 89/40/19 96/41/19
f 104/33/30 99/34/30 101/40/30 97/41/30
f 103/33/31 102/34/31 98/40/31 100/41/31
f 102/33/22 104/42/22 97/43/22 98/44/22
f 99/33/25 103/42/25 100/43/25 101/44/25
f 97/33/32 101/34/32 100/45/32 98/46/32
f 102/33/33 103/34/33 99/45/33 104/46/33
f 107/33/30 112/34/30 109/40/30 108/41/30
f 111/33/31 105/34/31 106/40/31 110/41/31
f 105/33/22 107/42/22 108/43/22 106/44/22
f 112/33/25 111/42/25 110/43/25 109/44/25
f 108/33/32 109/34/32 110/45/32 106/46/32
f 105/33/33 111/34/33 112/45/33 107/46/33
