# Blender 4.5.14 LTS
# www.blender.org
mtllib bin_container.mtl
o bin_container
v -0.750000 0.100000 0.500000 0.8157 0.8157 0.8157
v 0.750000 0.100000 0.500000 0.8196 0.8196 0.8196
v -0.840000 1.100000 0.575000 0.7921 0.7921 0.7921
v 0.840000 1.100000 0.575000 0.7882 0.7882 0.7882
v 0.840000 1.100000 -0.575000 0.7882 0.7882 0.7882
v -0.840000 1.100000 -0.575000 0.7882 0.7882 0.7882
v -0.750000 0.100000 -0.500000 0.8196 0.8196 0.8196
v 0.750000 0.100000 -0.500000 0.8235 0.8235 0.8235
v -0.850000 1.070000 0.590000 1.0000 1.0000 1.0000
v 0.850000 1.070000 0.590000 1.0000 1.0000 1.0000
v 0.850000 1.130000 0.590000 1.0000 1.0000 1.0000
v 0.850000 1.070000 -0.590000 1.0000 1.0000 1.0000
v -0.850000 1.070000 -0.590000 1.0000 1.0000 1.0000
v 0.850000 1.130000 -0.590000 1.0000 1.0000 1.0000
v -0.850000 1.130000 0.590000 1.0000 1.0000 1.0000
v -0.850000 1.130000 -0.590000 1.0000 1.0000 1.0000
v -0.550000 0.050000 0.365000 0.7333 0.7333 0.7333
v -0.575000 0.093301 0.365000 0.7255 0.7255 0.7255
v -0.625000 0.093301 0.395000 0.7255 0.7255 0.7255
v -0.650000 0.050000 0.395000 0.7843 0.7843 0.7843
v -0.550000 0.050000 0.395000 0.7568 0.7568 0.7568
v -0.575000 0.006699 0.395000 0.7490 0.7490 0.7490
v -0.575000 0.093301 0.395000 0.7216 0.7216 0.7216
v -0.625000 0.006699 0.395000 0.7529 0.7529 0.7529
v -0.575000 0.006699 0.365000 0.7333 0.7333 0.7333
v -0.625000 0.006699 0.365000 0.7372 0.7372 0.7372
v -0.650000 0.050000 0.365000 0.7686 0.7686 0.7686
v -0.625000 0.093301 0.365000 0.7255 0.7255 0.7255
v -0.550000 0.050000 -0.395000 0.7568 0.7568 0.7568
v -0.575000 0.093301 -0.365000 0.7216 0.7216 0.7216
v -0.650000 0.050000 -0.365000 0.7686 0.7686 0.7686
v -0.625000 0.006699 -0.395000 0.7568 0.7568 0.7568
v -0.625000 0.006699 -0.365000 0.7372 0.7372 0.7372
v -0.575000 0.006699 -0.395000 0.7490 0.7490 0.7490
v -0.575000 0.006699 -0.365000 0.7294 0.7294 0.7294
v -0.550000 0.050000 -0.365000 0.7412 0.7412 0.7412
v -0.625000 0.093301 -0.365000 0.7255 0.7255 0.7255
v -0.650000 0.050000 -0.395000 0.7804 0.7804 0.7804
v -0.625000 0.093301 -0.395000 0.7294 0.7294 0.7294
v -0.575000 0.093301 -0.395000 0.7255 0.7255 0.7255
v 0.625000 0.093301 0.365000 0.7255 0.7255 0.7255
v 0.550000 0.050000 0.365000 0.7333 0.7333 0.7333
v 0.550000 0.050000 0.395000 0.7608 0.7608 0.7608
v 0.575000 0.006699 0.395000 0.7451 0.7451 0.7451
v 0.625000 0.006699 0.365000 0.7451 0.7451 0.7451
v 0.625000 0.006699 0.395000 0.7608 0.7608 0.7608
v 0.650000 0.050000 0.395000 0.7804 0.7804 0.7804
v 0.625000 0.093301 0.395000 0.7255 0.7255 0.7255
v 0.575000 0.093301 0.395000 0.7255 0.7255 0.7255
v 0.575000 0.006699 0.365000 0.7294 0.7294 0.7294
v 0.575000 0.093301 0.365000 0.7255 0.7255 0.7255
v 0.650000 0.050000 0.365000 0.7647 0.7647 0.7647
v 0.650000 0.050000 -0.395000 0.7804 0.7804 0.7804
v 0.575000 0.093301 -0.395000 0.7294 0.7294 0.7294
v 0.575000 0.093301 -0.365000 0.7255 0.7255 0.7255
v 0.550000 0.050000 -0.395000 0.7568 0.7568 0.7568
v 0.575000 0.006699 -0.395000 0.7451 0.7451 0.7451
v 0.575000 0.006699 -0.365000 0.7255 0.7255 0.7255
v 0.550000 0.050000 -0.365000 0.7372 0.7372 0.7372
v 0.650000 0.050000 -0.365000 0.7647 0.7647 0.7647
v 0.625000 0.093301 -0.365000 0.7216 0.7216 0.7216
v 0.625000 0.006699 -0.365000 0.7412 0.7412 0.7412
v 0.625000 0.006699 -0.395000 0.7608 0.7608 0.7608
v 0.625000 0.093301 -0.395000 0.7294 0.7294 0.7294
v -0.940194 0.832680 0.248039 0.8509 0.8509 0.8509
v -0.930388 0.850000 0.246078 0.7647 0.7647 0.7647
v -0.850000 0.832680 0.240000 0.8078 0.8078 0.8078
v -0.850000 0.832680 0.260000 0.8235 0.8235 0.8235
v -0.959806 0.832680 0.251961 0.9372 0.9372 0.9372
v -0.850000 0.850000 0.270000 0.8196 0.8196 0.8196
v -0.969612 0.850000 0.253922 0.9607 0.9607 0.9607
v -0.959806 0.867321 0.251961 0.9294 0.9294 0.9294
v -0.940194 0.867321 0.248039 0.8431 0.8431 0.8431
v -0.850000 0.850000 0.230000 0.8000 0.8000 0.8000
v -0.940194 0.832680 -0.248039 0.8509 0.8509 0.8509
v -0.959806 0.867321 -0.251961 0.9294 0.9294 0.9294
v -0.969612 0.850000 -0.253922 0.9607 0.9607 0.9607
v -0.850000 0.832680 -0.240000 0.8117 0.8117 0.8117
v -0.959806 0.832680 -0.251961 0.9333 0.9333 0.9333
v -0.850000 0.832680 -0.260000 0.8157 0.8157 0.8157
v -0.940194 0.867321 -0.248039 0.8431 0.8431 0.8431
v -0.850000 0.867321 -0.260000 0.8039 0.8039 0.8039
v -0.930388 0.850000 -0.246078 0.7647 0.7647 0.7647
v -0.850000 0.867321 -0.240000 0.8039 0.8039 0.8039
v -0.850000 0.867321 0.240000 0.8000 0.8000 0.8000
v -0.850000 0.867321 0.260000 0.8039 0.8039 0.8039
v -0.850000 0.850000 -0.230000 0.8117 0.8117 0.8117
v -0.850000 0.850000 -0.270000 0.8157 0.8157 0.8157
v 0.850000 0.832680 0.260000 0.8157 0.8157 0.8157
v 0.850000 0.832680 0.240000 0.8078 0.8078 0.8078
v 0.959806 0.832680 0.251961 0.9333 0.9333 0.9333
v 0.930388 0.850000 0.246078 0.7647 0.7647 0.7647
v 0.940194 0.832680 0.248039 0.8549 0.8549 0.8549
v 0.850000 0.850000 0.230000 0.8078 0.8078 0.8078
v 0.850000 0.867321 0.240000 0.8039 0.8039 0.8039
v 0.850000 0.867321 0.260000 0.8117 0.8117 0.8117
v 0.940194 0.867321 0.248039 0.8470 0.8470 0.8470
v 0.850000 0.850000 0.270000 0.8157 0.8157 0.8157
v 0.959806 0.867321 0.251961 0.9294 0.9294 0.9294
v 0.969612 0.850000 0.253922 0.9607 0.9607 0.9607
v 0.940194 0.832680 -0.248039 0.8509 0.8509 0.8509
v 0.940194 0.867321 -0.248039 0.8431 0.8431 0.8431
v 0.959806 0.832680 -0.251961 0.9294 0.9294 0.9294
v 0.850000 0.832680 -0.260000 0.8157 0.8157 0.8157
v 0.850000 0.832680 -0.240000 0.8078 0.8078 0.8078
v 0.930388 0.850000 -0.246078 0.7686 0.7686 0.7686
v 0.850000 0.867321 -0.240000 0.8039 0.8039 0.8039
v 0.959806 0.867321 -0.251961 0.9294 0.9294 0.9294
v 0.969612 0.850000 -0.253922 0.9568 0.9568 0.9568
v 0.850000 0.850000 -0.270000 0.8157 0.8157 0.8157
v 0.850000 0.867321 -0.260000 0.8078 0.8078 0.8078
v 0.850000 0.850000 -0.230000 0.8117 0.8117 0.8117
vn -0.0000 -0.0748 0.9972
vn -0.0000 -0.0748 -0.9972
vn -0.9960 -0.0896 -0.0000
vn 0.9960 -0.0896 -0.0000
vn -0.0000 1.0000 -0.0000
vn -0.0000 -1.0000 -0.0000
vn -0.0000 -0.0000 1.0000
vn -0.0000 -0.0000 -1.0000
vn -1.0000 -0.0000 -0.0000
vn 1.0000 -0.0000 -0.0000
vn 0.8660 0.5000 -0.0000
vn -0.8660 0.5000 -0.0000
vn -0.8660 -0.5000 -0.0000
vn 0.8660 -0.5000 -0.0000
vn -0.1340 -0.2893 -0.9478
vn -0.0980 -0.3495 0.9318
vn -0.0980 0.3495 0.9318
vn -0.1340 0.2893 -0.9478
vn 0.8702 -0.4927 -0.0000
vn -0.8702 -0.4927 -0.0000
vn -0.8702 0.4927 -0.0000
vn 0.8702 0.4927 -0.0000
vn -0.1340 -0.2893 0.9478
vn -0.0980 -0.3495 -0.9318
vn -0.0980 0.3495 -0.9318
vn -0.1340 0.2893 0.9478
vn 0.0980 -0.3495 0.9318
vn 0.1340 -0.2893 -0.9478
vn 0.1340 0.2893 -0.9478
vn 0.0980 0.3495 0.9318
vn 0.0980 -0.3495 -0.9318
vn 0.1340 -0.2893 0.9478
vn 0.1340 0.2893 0.9478
vn 0.0980 0.3495 -0.9318
vt 0.127729 0.906494
vt 0.169146 0.906494
vt 0.171631 0.937256
vt 0.125244 0.937256
vt 0.128269 0.906494
vt 0.168606 0.906494
vt 0.265869 0.914307
vt 0.296631 0.914307
vt 0.296631 0.937256
vt 0.265869 0.937256
vt 0.422119 0.922119
vt 0.437256 0.922119
vt 0.437256 0.937256
vt 0.422119 0.937256
vt 0.125244 0.906494
vt 0.171631 0.906494
vt 0.171631 0.908123
vt 0.125244 0.908123
vt 0.171631 0.908840
vt 0.125244 0.908840
vt 0.506104 0.929932
vt 0.507324 0.929932
vt 0.507324 0.937256
vt 0.506104 0.937256
vt 0.508545 0.929932
vt 0.508545 0.937256
vt 0.509766 0.929932
vt 0.509766 0.937256
vt 0.510986 0.929932
vt 0.510986 0.937256
vt 0.512207 0.929932
vt 0.512207 0.937256
vt 0.513428 0.929932
vt 0.513428 0.937256
vt 0.513428 0.933594
vt 0.511597 0.937256
vt 0.507935 0.937256
vt 0.506104 0.933594
vt 0.507935 0.929932
vt 0.511597 0.929932
vt 0.424642 0.922119
vt 0.424642 0.927165
vt 0.422119 0.927165
vt 0.427165 0.922119
vt 0.427165 0.927165
vt 0.429688 0.922119
vt 0.429688 0.927165
vt 0.432210 0.922119
vt 0.432210 0.927165
vt 0.434733 0.922119
vt 0.434733 0.927165
vt 0.437256 0.927165
vt 0.424642 0.932210
vt 0.422119 0.932210
vt 0.427165 0.932210
vt 0.429688 0.932210
vt 0.432210 0.932210
vt 0.434733 0.932210
vt 0.437256 0.932210
vt 0.424642 0.937256
vt 0.427165 0.937256
vt 0.429688 0.937256
vt 0.432210 0.937256
vt 0.434733 0.937256
vt 0.433472 0.937256
vt 0.425903 0.937256
vt 0.422119 0.929688
vt 0.425903 0.922119
vt 0.433472 0.922119
vt 0.437256 0.929688
s 0
usemtl props
f 1/1/1 2/2/1 4/3/1 3/4/1
f 8/1/2 7/2/2 6/3/2 5/4/2
f 7/5/3 1/6/3 3/3/3 6/4/3
f 2/5/4 8/6/4 5/3/4 4/4/4
f 3/7/5 4/8/5 5/9/5 6/10/5
f 7/11/6 8/12/6 2/13/6 1/14/6
f 9/15/7 10/16/7 11/17/7 15/18/7
f 12/15/8 13/16/8 16/17/8 14/18/8
f 13/15/9 9/16/9 15/19/9 16/20/9
f 10/15/10 12/16/10 14/19/10 11/20/10
s 1
f 17/21/11 18/22/11 23/23/11 21/24/11
f 18/22/5 28/25/5 19/26/5 23/23/5
f 28/25/12 27/27/12 20/28/12 19/26/12
f 27/27/13 26/29/13 24/30/13 20/28/13
f 26/29/6 25/31/6 22/32/6 24/30/6
f 25/31/14 17/33/14 21/34/14 22/32/14
s 0
f 21/35/7 23/36/7 19/37/7 20/38/7 24/39/7 22/40/7
f 25/36/8 26/37/8 27/38/8 28/39/8 18/40/8 17/35/8
s 1
f 29/21/11 40/22/11 30/23/11 36/24/11
f 40/22/5 39/25/5 37/26/5 30/23/5
f 39/25/12 38/27/12 31/28/12 37/26/12
f 38/27/13 32/29/13 33/30/13 31/28/13
f 32/29/6 34/31/6 35/32/6 33/30/6
f 34/31/14 29/33/14 36/34/14 35/32/14
s 0
f 36/35/7 30/36/7 37/37/7 31/38/7 33/39/7 35/40/7
f 34/36/8 32/37/8 38/38/8 39/39/8 40/40/8 29/35/8
s 1
f 52/21/11 41/22/11 48/23/11 47/24/11
f 41/22/5 51/25/5 49/26/5 48/23/5
f 51/25/12 42/27/12 43/28/12 49/26/12
f 42/27/13 50/29/13 44/30/13 43/28/13
f 50/29/6 45/31/6 46/32/6 44/30/6
f 45/31/14 52/33/14 47/34/14 46/32/14
s 0
f 47/35/7 48/36/7 49/37/7 43/38/7 44/39/7 46/40/7
f 45/36/8 50/37/8 42/38/8 51/39/8 41/40/8 52/35/8
s 1
f 53/21/11 64/22/11 61/23/11 60/24/11
f 64/22/5 54/25/5 55/26/5 61/23/5
f 54/25/12 56/27/12 59/28/12 55/26/12
f 56/27/13 57/29/13 58/30/13 59/28/13
f 57/29/6 63/31/6 62/32/6 58/30/6
f 63/31/14 53/33/14 60/34/14 62/32/14
s 0
f 60/35/7 61/36/7 55/37/7 59/38/7 58/39/7 62/40/7
f 63/36/8 57/37/8 56/38/8 54/39/8 64/40/8 53/35/8
f 74/11/15 67/41/15 65/42/15 66/43/15
f 67/41/6 68/44/6 69/45/6 65/42/6
f 68/44/16 70/46/16 71/47/16 69/45/16
f 70/46/17 86/48/17 72/49/17 71/47/17
f 86/48/5 85/50/5 73/51/5 72/49/5
f 85/50/18 74/12/18 66/52/18 73/51/18
f 66/43/19 65/42/19 75/53/19 83/54/19
f 65/42/6 69/45/6 79/55/6 75/53/6
f 69/45/20 71/47/20 77/56/20 79/55/20
f 71/47/21 72/49/21 76/57/21 77/56/21
f 72/49/5 73/51/5 81/58/5 76/57/5
f 73/51/22 66/52/22 83/59/22 81/58/22
f 83/54/23 75/53/23 78/60/23 87/14/23
f 75/53/6 79/55/6 80/61/6 78/60/6
f 79/55/24 77/56/24 88/62/24 80/61/24
f 77/56/25 76/57/25 82/63/25 88/62/25
f 76/57/5 81/58/5 84/64/5 82/63/5
f 81/58/26 83/59/26 87/13/26 84/64/26
f 85/65/10 86/66/10 70/67/10 68/68/10 67/69/10 74/70/10
f 87/67/10 78/68/10 80/69/10 88/70/10 82/65/10 84/66/10
f 98/11/27 89/41/27 91/42/27 100/43/27
f 89/41/6 90/44/6 93/45/6 91/42/6
f 90/44/28 94/46/28 92/47/28 93/45/28
f 94/46/29 95/48/29 97/49/29 92/47/29
f 95/48/5 96/50/5 99/51/5 97/49/5
f 96/50/30 98/12/30 100/52/30 99/51/30
f 100/43/19 91/42/19 103/53/19 109/54/19
f 91/42/6 93/45/6 101/55/6 103/53/6
f 93/45/20 92/47/20 106/56/20 101/55/20
f 92/47/21 97/49/21 102/57/21 106/56/21
f 97/49/5 99/51/5 108/58/5 102/57/5
f 99/51/22 100/52/22 109/59/22 108/58/22
f 109/54/31 103/53/31 104/60/31 110/14/31
f 103/53/6 101/55/6 105/61/6 104/60/6
f 101/55/32 106/56/32 112/62/32 105/61/32
f 106/56/33 102/57/33 107/63/33 112/62/33
f 102/57/5 108/58/5 111/64/5 107/63/5
f 108/58/34 109/59/34 110/13/34 111/64/34
f 96/65/9 95/66/9 94/67/9 90/68/9 89/69/9 98/70/9
f 110/67/9 104/68/9 105/69/9 112/70/9 107/65/9 111/66/9
