# Blender 4.5.14 LTS
# www.blender.org
mtllib door_entrance.mtl
o door_entrance
v -0.570000 0.000000 0.120000 0.8000 0.8000 0.8000
v -0.490000 0.000000 0.120000 0.7804 0.7804 0.7804
v -0.570000 2.270000 -0.120000 1.0000 1.0000 1.0000
v -0.570000 0.000000 -0.120000 0.8039 0.8039 0.8039
v -0.570000 2.270000 0.120000 1.0000 1.0000 1.0000
v -0.490000 2.270000 0.120000 0.8980 0.8980 0.8980
v -0.490000 2.270000 -0.120000 0.9019 0.9019 0.9019
v -0.490000 0.000000 -0.120000 0.7882 0.7882 0.7882
vn -0.0000 -0.0000 1.0000
vn -0.0000 -0.0000 -1.0000
vn -1.0000 -0.0000 -0.0000
vn 1.0000 -0.0000 -0.0000
vn -0.0000 1.0000 -0.0000
vn -0.0000 -1.0000 -0.0000
vt 0.203369 0.906494
vt 0.204453 0.906494
vt 0.204453 0.937256
vt 0.203369 0.937256
vt 0.206621 0.906494
vt 0.206621 0.937256
vt 0.208291 0.906494
vt 0.208291 0.921260
vt 0.203369 0.921260
s 0
usemtl props
f 1/1/1 2/2/1 6/3/1 5/4/1
f 8/1/2 4/2/2 3/3/2 7/4/2
f 4/1/3 1/5/3 5/6/3 3/4/3
f 2/1/4 8/5/4 7/6/4 6/4/4
f 5/1/5 6/7/5 7/8/5 3/9/5
f 4/1/6 8/7/6 2/8/6 1/9/6
o door_entrance_casing_r
v 0.490000 0.000000 0.120000 0.7804 0.7804 0.7804
v 0.570000 0.000000 0.120000 0.8000 0.8000 0.8000
v 0.490000 2.270000 -0.120000 0.9019 0.9019 0.9019
v 0.490000 0.000000 -0.120000 0.7843 0.7843 0.7843
v 0.490000 2.270000 0.120000 0.9019 0.9019 0.9019
v 0.570000 2.270000 0.120000 1.0000 1.0000 1.0000
v 0.570000 2.270000 -0.120000 1.0000 1.0000 1.0000
v 0.570000 0.000000 -0.120000 0.8039 0.8039 0.8039
vn -0.0000 -0.0000 1.0000
vn -0.0000 -0.0000 -1.0000
vn -1.0000 -0.0000 -0.0000
vn 1.0000 -0.0000 -0.0000
vn -0.0000 1.0000 -0.0000
vn -0.0000 -1.0000 -0.0000
vt 0.203369 0.906494
vt 0.204453 0.906494
vt 0.204453 0.937256
vt 0.203369 0.937256
vt 0.206621 0.906494
vt 0.206621 0.937256
vt 0.208291 0.906494
vt 0.208291 0.921260
vt 0.203369 0.921260
s 0
usemtl props
f 9/10/7 10/11/7 14/12/7 13/13/7
f 16/10/8 12/11/8 11/12/8 15/13/8
f 12/10/9 9/14/9 13/15/9 11/13/9
f 10/10/10 16/14/10 15/15/10 14/13/10
f 13/10/11 14/16/11 15/17/11 11/18/11
f 12/10/12 16/16/12 10/17/12 9/18/12
o door_entrance_casing_top
v -0.510000 2.190000 0.120000 0.8039 0.8039 0.8039
v 0.510000 2.190000 0.120000 0.8000 0.8000 0.8000
v -0.510000 2.260000 -0.120000 0.8000 0.8000 0.8000
v -0.510000 2.190000 -0.120000 0.8039 0.8039 0.8039
v -0.510000 2.260000 0.120000 0.8000 0.8000 0.8000
v 0.510000 2.260000 0.120000 0.8000 0.8000 0.8000
v 0.510000 2.260000 -0.120000 0.8000 0.8000 0.8000
v 0.510000 2.190000 -0.120000 0.8039 0.8039 0.8039
vn -0.0000 -0.0000 1.0000
vn -0.0000 -0.0000 -1.0000
vn -1.0000 -0.0000 -0.0000
vn 1.0000 -0.0000 -0.0000
vn -0.0000 1.0000 -0.0000
vn -0.0000 -1.0000 -0.0000
vt 0.203369 0.906494
vt 0.234131 0.906494
vt 0.234131 0.908605
vt 0.203369 0.908605
vt 0.218135 0.906494
vt 0.218135 0.910801
vt 0.203369 0.910801
vt 0.234131 0.913732
vt 0.203369 0.913732
s 0
usemtl props
f 17/19/13 18/20/13 22/21/13 21/22/13
f 24/19/14 20/20/14 19/21/14 23/22/14
f 20/19/15 17/23/15 21/24/15 19/25/15
f 18/19/16 24/23/16 23/24/16 22/25/16
f 21/19/17 22/20/17 23/26/17 19/27/17
f 20/19/18 24/20/18 18/26/18 17/27/18
o door_entrance_leaf
v 0.480000 0.010000 -0.005000 0.7294 0.7294 0.7294
v 0.480000 2.190000 -0.005000 0.7372 0.7372 0.7372
v -0.480000 0.010000 -0.005000 0.7333 0.7333 0.7333
v -0.480000 0.010000 0.045000 0.7333 0.7333 0.7333
v -0.480000 2.190000 0.045000 0.7412 0.7412 0.7412
v 0.480000 2.190000 0.045000 0.7412 0.7412 0.7412
v -0.480000 2.190000 -0.005000 0.7372 0.7372 0.7372
v 0.480000 0.010000 0.045000 0.7333 0.7333 0.7333
v 0.375365 0.836755 0.050298 0.8078 0.8078 0.8078
v 0.392135 0.841814 0.048274 0.7960 0.7960 0.7960
v 0.388817 0.877589 0.131893 0.9019 0.9019 0.9019
v 0.375365 0.863245 0.039702 0.7059 0.7059 0.7059
v 0.380000 0.882980 0.105299 0.7529 0.7529 0.7529
v 0.365734 0.880921 0.115457 0.8549 0.8549 0.8549
v 0.371183 0.877589 0.131893 0.9372 0.9372 0.9372
v 0.394266 0.880921 0.115457 0.7804 0.7804 0.7804
v 0.394266 1.219079 0.115457 0.8313 0.8313 0.8313
v 0.380000 1.217020 0.105299 0.7372 0.7372 0.7372
v 0.365734 1.219079 0.115457 0.8039 0.8039 0.8039
v 0.395000 1.250000 0.045000 0.7412 0.7412 0.7412
v 0.371183 1.222411 0.131893 0.9215 0.9215 0.9215
v 0.367865 1.241814 0.041726 0.7176 0.7176 0.7176
v 0.384635 1.236755 0.039702 0.7137 0.7137 0.7137
v 0.388817 1.222411 0.131893 0.9294 0.9294 0.9294
v 0.367865 1.258186 0.048274 0.8196 0.8196 0.8196
v 0.384635 1.263245 0.050298 0.7725 0.7725 0.7725
v 0.392135 0.858186 0.041726 0.7020 0.7020 0.7020
v 0.365000 0.850000 0.045000 0.7764 0.7764 0.7764
v -0.310000 1.950000 -0.005000 0.7686 0.7686 0.7686
v -0.410000 1.950000 -0.005000 0.7294 0.7294 0.7294
v -0.410000 1.950000 -0.025000 0.8157 0.8157 0.8157
v -0.310000 1.950000 -0.025000 0.8666 0.8666 0.8666
v -0.410000 1.850000 -0.025000 0.8274 0.8274 0.8274
v -0.410000 1.850000 -0.005000 0.7451 0.7451 0.7451
v -0.310000 1.850000 -0.025000 0.8823 0.8823 0.8823
v -0.310000 1.850000 -0.005000 0.7882 0.7882 0.7882
vn -0.0000 -0.0000 1.0000
vn -0.0000 -0.0000 -1.0000
vn -1.0000 -0.0000 -0.0000
vn 1.0000 -0.0000 -0.0000
vn -0.0000 1.0000 -0.0000
vn -0.0000 -1.0000 -0.0000
vn -0.9812 0.1804 -0.0690
vn -0.2099 -0.8786 0.4289
vn 0.7065 -0.6401 0.3019
vn 0.7768 0.5951 -0.2059
vn 0.9260 0.3773 0.0131
vn 0.9674 0.1669 0.1907
vn -0.3603 0.9000 -0.2453
vn -0.5800 -0.0000 -0.8146
vn -0.9492 -0.0000 0.3147
vn -0.9674 -0.1669 0.1907
vn -0.9260 -0.3773 0.0131
vn 0.9492 -0.0000 0.3147
vn 0.5800 -0.0000 -0.8146
vn 0.3603 -0.9000 -0.2453
vn -0.7768 -0.5951 -0.2059
vn -0.7065 0.6401 0.3019
vn 0.2099 0.8786 0.4289
vn 0.9812 -0.1804 -0.0690
vn -0.0000 -0.3714 -0.9285
vn -0.0000 0.3714 -0.9285
vt 0.062744 0.875244
vt 0.093506 0.875244
vt 0.093506 0.937256
vt 0.062744 0.937256
vt 0.093994 0.875244
vt 0.124756 0.875244
vt 0.124756 0.937256
vt 0.093994 0.937256
vt 0.203369 0.906494
vt 0.204075 0.906494
vt 0.204075 0.937256
vt 0.203369 0.937256
vt 0.234131 0.906494
vt 0.234131 0.908096
vt 0.203369 0.908096
vt 0.422119 0.922119
vt 0.425146 0.922119
vt 0.425146 0.927165
vt 0.422119 0.927165
vt 0.428174 0.922119
vt 0.428174 0.927165
vt 0.431201 0.922119
vt 0.431201 0.927165
vt 0.434229 0.922119
vt 0.434229 0.927165
vt 0.437256 0.922119
vt 0.437256 0.927165
vt 0.425146 0.932210
vt 0.422119 0.932210
vt 0.428174 0.932210
vt 0.431201 0.932210
vt 0.434229 0.932210
vt 0.437256 0.932210
vt 0.425146 0.937256
vt 0.422119 0.937256
vt 0.428174 0.937256
vt 0.431201 0.937256
vt 0.434229 0.937256
vt 0.437256 0.937256
vt 0.431474 0.937256
vt 0.422119 0.934365
vt 0.422119 0.925010
vt 0.431474 0.922119
vt 0.437256 0.929688
vt 0.422119 0.929688
vt 0.427901 0.922119
vt 0.437256 0.925010
vt 0.437256 0.934365
vt 0.427901 0.937256
vt 0.428174 0.928174
vt 0.422119 0.928174
vt 0.423330 0.922119
vt 0.423330 0.928174
vt 0.428174 0.923330
vt 0.422119 0.923330
s 0
usemtl props
f 28/28/19 32/29/19 30/30/19 29/31/19
f 25/32/20 27/33/20 31/34/20 26/35/20
f 27/36/21 28/37/21 29/38/21 31/39/21
f 32/36/22 25/37/22 26/38/22 30/39/22
f 29/36/23 30/40/23 26/41/23 31/42/23
f 27/36/24 25/40/24 32/41/24 28/42/24
s 1
f 52/43/25 33/44/25 38/45/25 37/46/25
f 33/44/26 34/47/26 39/48/26 38/45/26
f 34/47/27 51/49/27 35/50/27 39/48/27
f 51/49/28 36/51/28 40/52/29 35/50/30
f 36/51/31 52/53/31 37/54/31 40/52/31
f 37/46/32 38/45/32 43/55/32 42/56/32
f 38/45/33 39/48/33 45/57/34 43/55/35
f 39/48/19 35/50/19 48/58/19 45/57/19
f 35/50/30 40/52/29 41/59/36 48/58/36
f 40/52/37 37/54/37 42/60/37 41/59/37
f 42/56/38 43/55/38 47/61/38 44/62/38
f 43/55/35 45/57/34 46/63/39 47/61/39
f 45/57/40 48/58/40 49/64/40 46/63/40
f 48/58/41 41/59/41 50/65/41 49/64/41
f 41/59/42 42/60/42 44/66/42 50/65/42
s 0
f 36/67/43 51/68/43 34/69/43 33/70/43 52/71/43
f 44/72/44 47/73/44 46/74/44 49/75/44 50/76/44
f 58/43/19 60/47/19 53/77/19 54/78/19
f 59/43/20 57/47/20 55/77/20 56/78/20
f 57/43/21 58/79/21 54/80/21 55/78/21
f 60/43/22 59/79/22 56/80/22 53/78/22
f 54/43/23 53/47/23 56/81/23 55/82/23
f 57/43/24 59/47/24 60/81/24 58/82/24
