# Blender 4.5.14 LTS
# www.blender.org
mtllib entrance_canopy.mtl
o entrance_canopy
v 1.000000 2.530000 0.100000 1.0000 1.0000 1.0000
v -1.000000 2.530000 0.100000 1.0000 1.0000 1.0000
v -1.000000 2.670000 0.100000 1.0000 1.0000 1.0000
v 1.000000 2.670000 0.100000 1.0000 1.0000 1.0000
v -1.000000 2.670000 1.500000 1.0000 1.0000 1.0000
v 1.000000 2.670000 1.500000 1.0000 1.0000 1.0000
v 1.000000 2.530000 1.500000 0.9882 0.9882 0.9882
v -1.000000 2.530000 1.500000 0.9882 0.9882 0.9882
v -0.830000 2.530000 1.345359 0.8039 0.8039 0.8039
v -0.830000 0.000000 1.345359 0.8392 0.8392 0.8392
v -0.870000 2.530000 1.345359 0.8117 0.8117 0.8117
v -0.890000 0.000000 1.380000 0.8353 0.8353 0.8353
v -0.870000 0.000000 1.414641 0.8353 0.8353 0.8353
v -0.890000 2.530000 1.380000 0.8235 0.8235 0.8235
v -0.830000 0.000000 1.414641 0.8392 0.8392 0.8392
v -0.810000 0.000000 1.380000 0.8392 0.8392 0.8392
v -0.830000 2.530000 1.414641 0.8235 0.8235 0.8235
v -0.810000 2.530000 1.380000 0.8078 0.8078 0.8078
v -0.870000 2.530000 1.414641 0.8274 0.8274 0.8274
v -0.870000 0.000000 1.345359 0.8392 0.8392 0.8392
v 0.830000 0.000000 1.345359 0.8392 0.8392 0.8392
v 0.830000 2.530000 1.345359 0.8039 0.8039 0.8039
v 0.870000 2.530000 1.345359 0.8078 0.8078 0.8078
v 0.810000 2.530000 1.380000 0.8078 0.8078 0.8078
v 0.830000 0.000000 1.414641 0.8353 0.8353 0.8353
v 0.830000 2.530000 1.414641 0.8235 0.8235 0.8235
v 0.890000 0.000000 1.380000 0.8392 0.8392 0.8392
v 0.870000 2.530000 1.414641 0.8235 0.8235 0.8235
v 0.890000 2.530000 1.380000 0.8157 0.8157 0.8157
v 0.870000 0.000000 1.414641 0.8392 0.8392 0.8392
v 0.810000 0.000000 1.380000 0.8353 0.8353 0.8353
v 0.870000 0.000000 1.345359 0.8392 0.8392 0.8392
v -0.100000 2.410000 0.290000 0.9294 0.9294 0.9294
v 0.100000 2.410000 0.290000 0.9255 0.9255 0.9255
v -0.100000 2.530000 0.290000 0.8039 0.8039 0.8039
v -0.100000 2.530000 0.150000 0.8000 0.8000 0.8000
v 0.100000 2.530000 0.290000 0.8039 0.8039 0.8039
v 0.100000 2.530000 0.150000 0.8000 0.8000 0.8000
v -0.100000 2.410000 0.150000 0.9686 0.9686 0.9686
v 0.100000 2.410000 0.150000 0.9686 0.9686 0.9686
vn -0.0000 -0.0000 1.0000
vn -0.0000 -0.0000 -1.0000
vn -1.0000 -0.0000 -0.0000
vn 1.0000 -0.0000 -0.0000
vn -0.0000 1.0000 -0.0000
vn -0.0000 -1.0000 -0.0000
vn 0.8660 -0.0000 -0.5000
vn -0.8660 -0.0000 -0.5000
vn -0.8660 -0.0000 0.5000
vn 0.8660 -0.0000 0.5000
vt 0.172119 0.906494
vt 0.202881 0.906494
vt 0.202881 0.908647
vt 0.172119 0.908647
vt 0.202881 0.909570
vt 0.172119 0.909570
vt 0.062744 0.937744
vt 0.124756 0.937744
vt 0.124756 0.981152
vt 0.062744 0.981152
vt 0.750244 0.937744
vt 0.812256 0.937744
vt 0.812256 0.981152
vt 0.750244 0.981152
vt 0.422119 0.922119
vt 0.424642 0.922119
vt 0.424642 0.937256
vt 0.422119 0.937256
vt 0.427165 0.922119
vt 0.427165 0.937256
vt 0.429688 0.922119
vt 0.429688 0.937256
vt 0.432210 0.922119
vt 0.432210 0.937256
vt 0.434733 0.922119
vt 0.434733 0.937256
vt 0.437256 0.922119
vt 0.437256 0.937256
vt 0.437256 0.929688
vt 0.433472 0.937256
vt 0.425903 0.937256
vt 0.422119 0.929688
vt 0.425903 0.922119
vt 0.433472 0.922119
vt 0.434229 0.922119
vt 0.434229 0.929385
vt 0.422119 0.929385
vt 0.430596 0.922119
vt 0.430596 0.929385
vt 0.434229 0.930596
vt 0.422119 0.930596
vt 0.498291 0.929932
vt 0.505615 0.929932
vt 0.505615 0.937256
vt 0.498291 0.937256
s 0
usemtl props
f 8/1/1 7/2/1 6/3/1 5/4/1
f 1/1/2 2/2/2 3/3/2 4/4/2
f 2/1/3 8/2/3 5/5/3 3/6/3
f 7/1/4 1/2/4 4/5/4 6/6/4
f 5/7/5 6/8/5 4/9/5 3/10/5
f 2/11/6 1/12/6 7/13/6 8/14/6
s 1
f 16/15/7 10/16/7 9/17/7 18/18/7
f 10/16/2 20/19/2 11/20/2 9/17/2
f 20/19/8 12/21/8 14/22/8 11/20/8
f 12/21/9 13/23/9 19/24/9 14/22/9
f 13/23/1 15/25/1 17/26/1 19/24/1
f 15/25/10 16/27/10 18/28/10 17/26/10
s 0
f 18/29/5 9/30/5 11/31/5 14/32/5 19/33/5 17/34/5
f 15/30/6 13/31/6 12/32/6 20/33/6 10/34/6 16/29/6
s 1
f 27/15/7 32/16/7 23/17/7 29/18/7
f 32/16/2 21/19/2 22/20/2 23/17/2
f 21/19/8 31/21/8 24/22/8 22/20/8
f 31/21/9 25/23/9 26/24/9 24/22/9
f 25/23/1 30/25/1 28/26/1 26/24/1
f 30/25/10 27/27/10 29/28/10 28/26/10
s 0
f 29/29/5 23/30/5 22/31/5 24/32/5 26/33/5 28/34/5
f 30/30/6 25/31/6 31/32/6 21/33/6 32/34/6 27/29/6
f 33/15/1 34/35/1 37/36/1 35/37/1
f 40/15/2 39/35/2 36/36/2 38/37/2
f 39/15/3 33/38/3 35/39/3 36/37/3
f 34/15/4 40/38/4 38/39/4 37/37/4
f 35/15/5 37/35/5 38/40/5 36/41/5
f 39/42/6 40/43/6 34/44/6 33/45/6
o entrance_canopy_1
v -1.000000 -0.130000 0.700000 0.7960 0.7960 0.7960
v 1.000000 -0.130000 0.700000 0.8000 0.8000 0.8000
v -1.000000 0.010000 0.100000 0.9255 0.9255 0.9255
v -1.000000 -0.130000 0.100000 0.7960 0.7960 0.7960
v -1.000000 0.010000 0.700000 0.9255 0.9255 0.9255
v 1.000000 0.010000 0.700000 0.9294 0.9294 0.9294
v 1.000000 0.010000 0.100000 0.9294 0.9294 0.9294
v 1.000000 -0.130000 0.100000 0.8000 0.8000 0.8000
vn -0.0000 -0.0000 1.0000
vn -0.0000 -0.0000 -1.0000
vn -1.0000 -0.0000 -0.0000
vn 1.0000 -0.0000 -0.0000
vn -0.0000 1.0000 -0.0000
vn -0.0000 -1.0000 -0.0000
vt 0.172119 0.906494
vt 0.202881 0.906494
vt 0.202881 0.908647
vt 0.172119 0.908647
vt 0.202881 0.913672
vt 0.172119 0.913672
vt 0.125244 0.937744
vt 0.187256 0.937744
vt 0.187256 0.956348
vt 0.125244 0.956348
vt 0.202881 0.915723
vt 0.172119 0.915723
s 0
usemtl props
f 41/46/11 42/47/11 46/48/11 45/49/11
f 48/46/12 44/47/12 43/48/12 47/49/12
f 44/46/13 41/47/13 45/50/13 43/51/13
f 42/46/14 48/47/14 47/50/14 46/51/14
f 45/52/15 46/53/15 47/54/15 43/55/15
f 44/46/16 48/47/16 42/56/16 41/57/16
