# Blender 4.5.14 LTS
# www.blender.org
mtllib fence_low.mtl
o fence_low
v -1.000000 0.000000 -0.025000 0.7960 0.7960 0.7960
v -1.021651 0.000000 -0.012500 0.8000 0.8000 0.8000
v -1.000000 0.550000 -0.025000 0.9960 0.9960 0.9960
v -1.021651 0.000000 0.012500 0.7960 0.7960 0.7960
v -1.021651 0.550000 -0.012500 1.0000 1.0000 1.0000
v -1.021651 0.550000 0.012500 1.0000 1.0000 1.0000
v -1.000000 0.000000 0.025000 0.7921 0.7921 0.7921
v -0.978349 0.000000 0.012500 0.7960 0.7960 0.7960
v -1.000000 0.550000 0.025000 0.9960 0.9960 0.9960
v -0.978349 0.000000 -0.012500 0.7960 0.7960 0.7960
v -0.978349 0.550000 -0.012500 0.9764 0.9764 0.9764
v -0.978349 0.550000 0.012500 0.9764 0.9764 0.9764
v 0.978349 0.000000 -0.012500 0.7921 0.7921 0.7921
v 1.000000 0.550000 -0.025000 0.9960 0.9960 0.9960
v 0.978349 0.000000 0.012500 0.7882 0.7882 0.7882
v 1.000000 0.000000 0.025000 0.7921 0.7921 0.7921
v 0.978349 0.550000 0.012500 0.9764 0.9764 0.9764
v 1.021651 0.000000 0.012500 0.8000 0.8000 0.8000
v 1.000000 0.550000 0.025000 0.9960 0.9960 0.9960
v 1.021651 0.000000 -0.012500 0.8000 0.8000 0.8000
v 1.021651 0.550000 0.012500 1.0000 1.0000 1.0000
v 1.000000 0.000000 -0.025000 0.8000 0.8000 0.8000
v 1.021651 0.550000 -0.012500 1.0000 1.0000 1.0000
v 0.978349 0.550000 -0.012500 0.9764 0.9764 0.9764
v -1.000000 0.500000 0.020000 0.8823 0.8823 0.8823
v -1.000000 0.482679 0.010000 0.7020 0.7020 0.7020
v 1.000000 0.500000 0.020000 0.8862 0.8862 0.8862
v -1.000000 0.482679 -0.010000 0.7020 0.7020 0.7020
v -1.000000 0.500000 -0.020000 0.8862 0.8862 0.8862
v -1.000000 0.517321 -0.010000 0.7020 0.7020 0.7020
v 1.000000 0.517321 -0.010000 0.7020 0.7020 0.7020
v -1.000000 0.517321 0.010000 0.7020 0.7020 0.7020
v 1.000000 0.517321 0.010000 0.7020 0.7020 0.7020
v 1.000000 0.482679 0.010000 0.7020 0.7020 0.7020
v 1.000000 0.482679 -0.010000 0.7020 0.7020 0.7020
v 1.000000 0.500000 -0.020000 0.8784 0.8784 0.8784
v -0.800000 0.000000 -0.012000 0.7960 0.7960 0.7960
v -0.810392 0.000000 -0.006000 0.7882 0.7882 0.7882
v -0.810392 0.500000 -0.006000 0.7020 0.7020 0.7020
v -0.789608 0.000000 0.006000 0.7921 0.7921 0.7921
v -0.800000 0.500000 0.012000 0.7020 0.7020 0.7020
v -0.789608 0.000000 -0.006000 0.7960 0.7960 0.7960
v -0.789608 0.500000 0.006000 0.7020 0.7020 0.7020
v -0.789608 0.500000 -0.006000 0.7020 0.7020 0.7020
v -0.800000 0.000000 0.012000 0.7921 0.7921 0.7921
v -0.810392 0.000000 0.006000 0.7843 0.7843 0.7843
v -0.800000 0.500000 -0.012000 0.7020 0.7020 0.7020
v -0.810392 0.500000 0.006000 0.7020 0.7020 0.7020
v -0.610392 0.000000 -0.006000 0.7921 0.7921 0.7921
v -0.610392 0.000000 0.006000 0.7960 0.7960 0.7960
v -0.610392 0.500000 0.006000 0.7020 0.7020 0.7020
v -0.610392 0.500000 -0.006000 0.7020 0.7020 0.7020
v -0.589608 0.500000 0.006000 0.7020 0.7020 0.7020
v -0.589608 0.000000 -0.006000 0.7960 0.7960 0.7960
v -0.600000 0.500000 -0.012000 0.7020 0.7020 0.7020
v -0.589608 0.500000 -0.006000 0.7020 0.7020 0.7020
v -0.589608 0.000000 0.006000 0.7921 0.7921 0.7921
v -0.600000 0.000000 0.012000 0.7921 0.7921 0.7921
v -0.600000 0.000000 -0.012000 0.7960 0.7960 0.7960
v -0.600000 0.500000 0.012000 0.7020 0.7020 0.7020
v -0.410392 0.500000 -0.006000 0.7020 0.7020 0.7020
v -0.410392 0.000000 -0.006000 0.7921 0.7921 0.7921
v -0.400000 0.000000 0.012000 0.7921 0.7921 0.7921
v -0.400000 0.500000 0.012000 0.7020 0.7020 0.7020
v -0.410392 0.500000 0.006000 0.7020 0.7020 0.7020
v -0.389608 0.500000 0.006000 0.7020 0.7020 0.7020
v -0.389608 0.000000 0.006000 0.7921 0.7921 0.7921
v -0.400000 0.000000 -0.012000 0.7960 0.7960 0.7960
v -0.389608 0.000000 -0.006000 0.7960 0.7960 0.7960
v -0.410392 0.000000 0.006000 0.7960 0.7960 0.7960
v -0.400000 0.500000 -0.012000 0.7020 0.7020 0.7020
v -0.389608 0.500000 -0.006000 0.7020 0.7020 0.7020
v -0.210392 0.500000 0.006000 0.7020 0.7020 0.7020
v -0.210392 0.500000 -0.006000 0.7020 0.7020 0.7020
v -0.200000 0.000000 0.012000 0.7921 0.7921 0.7921
v -0.189608 0.500000 0.006000 0.7020 0.7020 0.7020
v -0.200000 0.500000 0.012000 0.7020 0.7020 0.7020
v -0.189608 0.500000 -0.006000 0.7020 0.7020 0.7020
v -0.189608 0.000000 -0.006000 0.7960 0.7960 0.7960
v -0.200000 0.000000 -0.012000 0.7960 0.7960 0.7960
v -0.200000 0.500000 -0.012000 0.7020 0.7020 0.7020
v -0.189608 0.000000 0.006000 0.7921 0.7921 0.7921
v -0.210392 0.000000 0.006000 0.7960 0.7960 0.7960
v -0.210392 0.000000 -0.006000 0.7921 0.7921 0.7921
v -0.010392 0.000000 -0.006000 0.7921 0.7921 0.7921
v -0.010392 0.500000 -0.006000 0.7020 0.7020 0.7020
v -0.010392 0.500000 0.006000 0.7020 0.7020 0.7020
v -0.010392 0.000000 0.006000 0.7960 0.7960 0.7960
v -0.000000 0.000000 0.012000 0.7921 0.7921 0.7921
v 0.010392 0.500000 0.006000 0.7020 0.7020 0.7020
v -0.000000 0.500000 0.012000 0.7020 0.7020 0.7020
v 0.010392 0.500000 -0.006000 0.7020 0.7020 0.7020
v 0.010392 0.000000 -0.006000 0.7960 0.7960 0.7960
v 0.000000 0.000000 -0.012000 0.7960 0.7960 0.7960
v 0.000000 0.500000 -0.012000 0.7020 0.7020 0.7020
v 0.010392 0.000000 0.006000 0.7921 0.7921 0.7921
v 0.189608 0.500000 -0.006000 0.7020 0.7020 0.7020
v 0.210392 0.500000 0.006000 0.7020 0.7020 0.7020
v 0.210392 0.000000 -0.006000 0.7960 0.7960 0.7960
v 0.210392 0.500000 -0.006000 0.7020 0.7020 0.7020
v 0.210392 0.000000 0.006000 0.7921 0.7921 0.7921
v 0.200000 0.000000 0.012000 0.7921 0.7921 0.7921
v 0.189608 0.000000 0.006000 0.7960 0.7960 0.7960
v 0.189608 0.000000 -0.006000 0.7921 0.7921 0.7921
v 0.200000 0.000000 -0.012000 0.7960 0.7960 0.7960
v 0.200000 0.500000 -0.012000 0.7020 0.7020 0.7020
v 0.189608 0.500000 0.006000 0.7020 0.7020 0.7020
v 0.200000 0.500000 0.012000 0.7020 0.7020 0.7020
v 0.389608 0.000000 0.006000 0.7960 0.7960 0.7960
v 0.400000 0.500000 0.012000 0.7020 0.7020 0.7020
v 0.410392 0.000000 0.006000 0.7921 0.7921 0.7921
v 0.410392 0.500000 0.006000 0.7020 0.7020 0.7020
v 0.410392 0.000000 -0.006000 0.7960 0.7960 0.7960
v 0.400000 0.000000 -0.012000 0.7960 0.7960 0.7960
v 0.400000 0.500000 -0.012000 0.7020 0.7020 0.7020
v 0.410392 0.500000 -0.006000 0.7020 0.7020 0.7020
v 0.400000 0.000000 0.012000 0.7921 0.7921 0.7921
v 0.389608 0.000000 -0.006000 0.7921 0.7921 0.7921
v 0.389608 0.500000 -0.006000 0.7020 0.7020 0.7020
v 0.389608 0.500000 0.006000 0.7020 0.7020 0.7020
v 0.589608 0.000000 -0.006000 0.7921 0.7921 0.7921
v 0.589608 0.500000 -0.006000 0.7020 0.7020 0.7020
v 0.589608 0.000000 0.006000 0.7960 0.7960 0.7960
v 0.589608 0.500000 0.006000 0.7020 0.7020 0.7020
v 0.600000 0.500000 0.012000 0.7020 0.7020 0.7020
v 0.610392 0.000000 0.006000 0.7921 0.7921 0.7921
v 0.610392 0.000000 -0.006000 0.7960 0.7960 0.7960
v 0.610392 0.500000 -0.006000 0.7020 0.7020 0.7020
v 0.610392 0.500000 0.006000 0.7020 0.7020 0.7020
v 0.600000 0.000000 -0.012000 0.7960 0.7960 0.7960
v 0.600000 0.000000 0.012000 0.7882 0.7882 0.7882
v 0.600000 0.500000 -0.012000 0.7020 0.7020 0.7020
v 0.789608 0.000000 -0.006000 0.7921 0.7921 0.7921
v 0.800000 0.500000 -0.012000 0.7020 0.7020 0.7020
v 0.789608 0.500000 0.006000 0.7020 0.7020 0.7020
v 0.789608 0.500000 -0.006000 0.7020 0.7020 0.7020
v 0.789608 0.000000 0.006000 0.7960 0.7960 0.7960
v 0.800000 0.500000 0.012000 0.7020 0.7020 0.7020
v 0.800000 0.000000 -0.012000 0.7960 0.7960 0.7960
v 0.810392 0.500000 -0.006000 0.7020 0.7020 0.7020
v 0.810392 0.000000 -0.006000 0.7921 0.7921 0.7921
v 0.810392 0.000000 0.006000 0.7882 0.7882 0.7882
v 0.800000 0.000000 0.012000 0.7882 0.7882 0.7882
v 0.810392 0.500000 0.006000 0.7020 0.7020 0.7020
vn -0.5000 -0.0000 -0.8660
vn -1.0000 -0.0000 -0.0000
vn -0.5000 -0.0000 0.8660
vn 0.5000 -0.0000 0.8660
vn 1.0000 -0.0000 -0.0000
vn 0.5000 -0.0000 -0.8660
vn -0.0000 -1.0000 -0.0000
vn -0.0000 1.0000 -0.0000
vn -0.0000 -0.5000 0.8660
vn -0.0000 -0.5000 -0.8660
vn -0.0000 0.5000 -0.8660
vn -0.0000 0.5000 0.8660
vt 0.359619 0.922119
vt 0.362142 0.922119
vt 0.362142 0.937256
vt 0.359619 0.937256
vt 0.364665 0.922119
vt 0.364665 0.937256
vt 0.367188 0.922119
vt 0.367188 0.937256
vt 0.369710 0.922119
vt 0.369710 0.937256
vt 0.372233 0.922119
vt 0.372233 0.937256
vt 0.374756 0.922119
vt 0.374756 0.937256
vt 0.374756 0.925903
vt 0.374756 0.933472
vt 0.359619 0.933472
vt 0.359619 0.925903
vt 0.370972 0.937256
vt 0.363403 0.937256
vt 0.359619 0.929688
vt 0.363403 0.922119
vt 0.370972 0.922119
vt 0.374756 0.929688
s 0
usemtl props
f 1/1/1 2/2/1 5/3/1 3/4/1
f 2/2/2 4/5/2 6/6/2 5/3/2
f 4/5/3 7/7/3 9/8/3 6/6/3
f 7/7/4 8/9/4 12/10/4 9/8/4
f 8/9/5 10/11/5 11/12/5 12/10/5
f 10/11/6 1/13/6 3/14/6 11/12/6
f 10/15/7 8/16/7 7/8/7 4/17/7 2/18/7 1/7/7
f 3/8/8 5/17/8 6/18/8 9/7/8 12/15/8 11/16/8
f 22/1/1 13/2/1 24/3/1 14/4/1
f 13/2/2 15/5/2 17/6/2 24/3/2
f 15/5/3 16/7/3 19/8/3 17/6/3
f 16/7/4 18/9/4 21/10/4 19/8/4
f 18/9/5 20/11/5 23/12/5 21/10/5
f 20/11/6 22/13/6 14/14/6 23/12/6
f 20/15/7 18/16/7 16/8/7 15/17/7 13/18/7 22/7/7
f 14/8/8 24/17/8 17/18/8 19/7/8 21/15/8 23/16/8
f 25/1/9 26/2/9 34/3/9 27/4/9
f 26/2/7 28/5/7 35/6/7 34/3/7
f 28/5/10 29/7/10 36/8/10 35/6/10
f 29/7/11 30/9/11 31/10/11 36/8/11
f 30/9/8 32/11/8 33/12/8 31/10/8
f 32/11/12 25/13/12 27/14/12 33/12/12
f 32/19/2 30/20/2 29/21/2 28/22/2 26/23/2 25/24/2
f 27/21/5 34/22/5 35/23/5 36/24/5 31/19/5 33/20/5
f 37/1/1 38/2/1 39/3/1 47/4/1
f 38/2/2 46/5/2 48/6/2 39/3/2
f 46/5/3 45/7/3 41/8/3 48/6/3
f 45/7/4 40/9/4 43/10/4 41/8/4
f 40/9/5 42/11/5 44/12/5 43/10/5
f 42/11/6 37/13/6 47/14/6 44/12/6
f 42/15/7 40/16/7 45/8/7 46/17/7 38/18/7 37/7/7
f 47/8/8 39/17/8 48/18/8 41/7/8 43/15/8 44/16/8
f 59/1/1 49/2/1 52/3/1 55/4/1
f 49/2/2 50/5/2 51/6/2 52/3/2
f 50/5/3 58/7/3 60/8/3 51/6/3
f 58/7/4 57/9/4 53/10/4 60/8/4
f 57/9/5 54/11/5 56/12/5 53/10/5
f 54/11/6 59/13/6 55/14/6 56/12/6
f 54/15/7 57/16/7 58/8/7 50/17/7 49/18/7 59/7/7
f 55/8/8 52/17/8 51/18/8 60/7/8 53/15/8 56/16/8
f 68/1/1 62/2/1 61/3/1 71/4/1
f 62/2/2 70/5/2 65/6/2 61/3/2
f 70/5/3 63/7/3 64/8/3 65/6/3
f 63/7/4 67/9/4 66/10/4 64/8/4
f 67/9/5 69/11/5 72/12/5 66/10/5
f 69/11/6 68/13/6 71/14/6 72/12/6
f 69/15/7 67/16/7 63/8/7 70/17/7 62/18/7 68/7/7
f 71/8/8 61/17/8 65/18/8 64/7/8 66/15/8 72/16/8
f 80/1/1 84/2/1 74/3/1 81/4/1
f 84/2/2 83/5/2 73/6/2 74/3/2
f 83/5/3 75/7/3 77/8/3 73/6/3
f 75/7/4 82/9/4 76/10/4 77/8/4
f 82/9/5 79/11/5 78/12/5 76/10/5
f 79/11/6 80/13/6 81/14/6 78/12/6
f 79/15/7 82/16/7 75/8/7 83/17/7 84/18/7 80/7/7
f 81/8/8 74/17/8 73/18/8 77/7/8 76/15/8 78/16/8
f 94/1/1 85/2/1 86/3/1 95/4/1
f 85/2/2 88/5/2 87/6/2 86/3/2
f 88/5/3 89/7/3 91/8/3 87/6/3
f 89/7/4 96/9/4 90/10/4 91/8/4
f 96/9/5 93/11/5 92/12/5 90/10/5
f 93/11/6 94/13/6 95/14/6 92/12/6
f 93/15/7 96/16/7 89/8/7 88/17/7 85/18/7 94/7/7
f 95/8/8 86/17/8 87/18/8 91/7/8 90/15/8 92/16/8
f 105/1/1 104/2/1 97/3/1 106/4/1
f 104/2/2 103/5/2 107/6/2 97/3/2
f 103/5/3 102/7/3 108/8/3 107/6/3
f 102/7/4 101/9/4 98/10/4 108/8/4
f 101/9/5 99/11/5 100/12/5 98/10/5
f 99/11/6 105/13/6 106/14/6 100/12/6
f 99/15/7 101/16/7 102/8/7 103/17/7 104/18/7 105/7/7
f 106/8/8 97/17/8 107/18/8 108/7/8 98/15/8 100/16/8
f 114/1/1 118/2/1 119/3/1 115/4/1
f 118/2/2 109/5/2 120/6/2 119/3/2
f 109/5/3 117/7/3 110/8/3 120/6/3
f 117/7/4 111/9/4 112/10/4 110/8/4
f 111/9/5 113/11/5 116/12/5 112/10/5
f 113/11/6 114/13/6 115/14/6 116/12/6
f 113/15/7 111/16/7 117/8/7 109/17/7 118/18/7 114/7/7
f 115/8/8 119/17/8 120/18/8 110/7/8 112/15/8 116/16/8
f 130/1/1 121/2/1 122/3/1 132/4/1
f 121/2/2 123/5/2 124/6/2 122/3/2
f 123/5/3 131/7/3 125/8/3 124/6/3
f 131/7/4 126/9/4 129/10/4 125/8/4
f 126/9/5 127/11/5 128/12/5 129/10/5
f 127/11/6 130/13/6 132/14/6 128/12/6
f 127/15/7 126/16/7 131/8/7 123/17/7 121/18/7 130/7/7
f 132/8/8 122/17/8 124/18/8 125/7/8 129/15/8 128/16/8
f 139/1/1 133/2/1 136/3/1 134/4/1
f 133/2/2 137/5/2 135/6/2 136/3/2
f 137/5/3 143/7/3 138/8/3 135/6/3
f 143/7/4 142/9/4 144/10/4 138/8/4
f 142/9/5 141/11/5 140/12/5 144/10/5
f 141/11/6 139/13/6 134/14/6 140/12/6
f 141/15/7 142/16/7 143/8/7 137/17/7 133/18/7 139/7/7
f 134/8/8 136/17/8 135/18/8 138/7/8 144/15/8 140/16/8
