# Blender 4.5.14 LTS
# www.blender.org
mtllib rocket.mtl
o rocket
v 0.650000 0.400000 -0.030000 0.8588 0.8588 0.8588
v 0.624019 0.400000 -0.015000 0.9137 0.9137 0.9137
v 0.624019 3.600000 0.015000 0.8313 0.8313 0.8313
v 0.624019 3.600000 -0.015000 0.8313 0.8313 0.8313
v 0.624019 0.400000 0.015000 0.9255 0.9255 0.9255
v 0.650000 0.400000 0.030000 0.9176 0.9176 0.9176
v 0.675981 3.600000 0.015000 0.9490 0.9490 0.9490
v 0.675981 0.400000 -0.015000 0.8902 0.8902 0.8902
v 0.675981 0.400000 0.015000 0.9333 0.9333 0.9333
v 0.650000 3.600000 -0.030000 0.8353 0.8353 0.8353
v 0.650000 3.600000 0.030000 0.8313 0.8313 0.8313
v 0.675981 3.600000 -0.015000 0.9490 0.9490 0.9490
v 0.433639 3.600000 -0.474619 0.8157 0.8157 0.8157
v 0.459619 3.600000 -0.429619 0.8078 0.8078 0.8078
v 0.433639 3.600000 -0.444619 0.8353 0.8353 0.8353
v 0.485600 0.400000 -0.444619 0.8549 0.8549 0.8549
v 0.485600 3.600000 -0.444619 0.8509 0.8509 0.8509
v 0.485600 3.600000 -0.474619 0.9568 0.9568 0.9568
v 0.459619 0.400000 -0.489619 0.9294 0.9294 0.9294
v 0.459619 3.600000 -0.489619 0.8902 0.8902 0.8902
v 0.485600 0.400000 -0.474619 0.8980 0.8980 0.8980
v 0.459619 0.400000 -0.429619 0.8941 0.8941 0.8941
v 0.433639 0.400000 -0.444619 0.9294 0.9294 0.9294
v 0.433639 0.400000 -0.474619 0.9176 0.9176 0.9176
v -0.025981 3.600000 -0.635000 0.8078 0.8078 0.8078
v -0.025981 3.600000 -0.665000 0.8745 0.8745 0.8745
v 0.025981 3.600000 -0.635000 0.8078 0.8078 0.8078
v 0.025981 0.400000 -0.665000 0.9372 0.9372 0.9372
v 0.000000 0.400000 -0.680000 0.9490 0.9490 0.9490
v 0.025981 3.600000 -0.665000 0.8706 0.8706 0.8706
v 0.025981 0.400000 -0.635000 0.9294 0.9294 0.9294
v 0.000000 0.400000 -0.620000 0.9372 0.9372 0.9372
v -0.025981 0.400000 -0.635000 0.9255 0.9255 0.9255
v -0.025981 0.400000 -0.665000 0.9372 0.9372 0.9372
v 0.000000 3.600000 -0.680000 0.9019 0.9019 0.9019
v 0.000000 3.600000 -0.620000 0.8392 0.8392 0.8392
v -0.485600 0.400000 -0.474619 0.8431 0.8431 0.8431
v -0.485600 0.400000 -0.444619 0.8117 0.8117 0.8117
v -0.485600 3.600000 -0.474619 0.9607 0.9607 0.9607
v -0.459619 0.400000 -0.429619 0.8941 0.8941 0.8941
v -0.459619 3.600000 -0.429619 0.8078 0.8078 0.8078
v -0.433639 0.400000 -0.444619 0.9294 0.9294 0.9294
v -0.433639 3.600000 -0.444619 0.8353 0.8353 0.8353
v -0.433639 0.400000 -0.474619 0.9137 0.9137 0.9137
v -0.459619 0.400000 -0.489619 0.9058 0.9058 0.9058
v -0.459619 3.600000 -0.489619 0.8941 0.8941 0.8941
v -0.485600 3.600000 -0.444619 0.8549 0.8549 0.8549
v -0.433639 3.600000 -0.474619 0.8196 0.8196 0.8196
v -0.675981 0.400000 -0.015000 0.9294 0.9294 0.9294
v -0.675981 3.600000 0.015000 0.9490 0.9490 0.9490
v -0.675981 3.600000 -0.015000 0.9529 0.9529 0.9529
v -0.675981 0.400000 0.015000 0.9451 0.9451 0.9451
v -0.624019 3.600000 0.015000 0.8353 0.8353 0.8353
v -0.624019 0.400000 -0.015000 0.9255 0.9255 0.9255
v -0.624019 3.600000 -0.015000 0.8353 0.8353 0.8353
v -0.624019 0.400000 0.015000 0.9333 0.9333 0.9333
v -0.650000 0.400000 0.030000 0.9215 0.9215 0.9215
v -0.650000 0.400000 -0.030000 0.9019 0.9019 0.9019
v -0.650000 3.600000 -0.030000 0.8353 0.8353 0.8353
v -0.650000 3.600000 0.030000 0.8392 0.8392 0.8392
v -0.485600 3.600000 0.474619 0.9568 0.9568 0.9568
v -0.459619 0.400000 0.489619 0.9255 0.9255 0.9255
v -0.433639 3.600000 0.474619 0.8196 0.8196 0.8196
v -0.433639 0.400000 0.474619 0.9019 0.9019 0.9019
v -0.433639 0.400000 0.444619 0.9137 0.9137 0.9137
v -0.459619 0.400000 0.429619 0.9255 0.9255 0.9255
v -0.485600 0.400000 0.474619 0.9451 0.9451 0.9451
v -0.485600 0.400000 0.444619 0.9255 0.9255 0.9255
v -0.459619 3.600000 0.429619 0.8000 0.8000 0.8000
v -0.485600 3.600000 0.444619 0.8509 0.8509 0.8509
v -0.459619 3.600000 0.489619 0.8902 0.8902 0.8902
v -0.433639 3.600000 0.444619 0.8313 0.8313 0.8313
v -0.025981 0.400000 0.635000 0.8588 0.8588 0.8588
v -0.025981 0.400000 0.665000 0.7921 0.7921 0.7921
v -0.025981 3.600000 0.635000 0.8039 0.8039 0.8039
v -0.025981 3.600000 0.665000 0.8706 0.8706 0.8706
v -0.000000 0.400000 0.680000 0.8588 0.8588 0.8588
v 0.025981 0.400000 0.665000 0.9137 0.9137 0.9137
v 0.025981 0.400000 0.635000 0.9058 0.9058 0.9058
v 0.025981 3.600000 0.665000 0.8706 0.8706 0.8706
v -0.000000 3.600000 0.620000 0.8313 0.8313 0.8313
v -0.000000 0.400000 0.620000 0.8980 0.8980 0.8980
v 0.025981 3.600000 0.635000 0.8039 0.8039 0.8039
v 0.459619 0.400000 0.429619 0.9215 0.9215 0.9215
v 0.459619 3.600000 0.429619 0.8000 0.8000 0.8000
v 0.433639 0.400000 0.444619 0.9215 0.9215 0.9215
v 0.433639 3.600000 0.474619 0.8196 0.8196 0.8196
v 0.433639 0.400000 0.474619 0.9098 0.9098 0.9098
v 0.459619 0.400000 0.489619 0.9372 0.9372 0.9372
v 0.485600 0.400000 0.474619 0.9451 0.9451 0.9451
v 0.485600 3.600000 0.474619 0.9607 0.9607 0.9607
v 0.459619 3.600000 0.489619 0.8902 0.8902 0.8902
v 0.485600 0.400000 0.444619 0.9294 0.9294 0.9294
v 0.433639 3.600000 0.444619 0.8353 0.8353 0.8353
v 0.485600 3.600000 0.444619 0.8549 0.8549 0.8549
v 0.607659 0.476224 -0.251701 0.7059 0.7059 0.7059
v 0.657725 0.476224 0.000000 0.7020 0.7020 0.7020
v 0.581836 0.485305 -0.241004 0.9607 0.9607 0.9607
v 0.629775 0.485305 -0.000000 0.7020 0.7020 0.7020
v 0.629775 0.514695 -0.000000 0.7020 0.7020 0.7020
v 0.607659 0.523776 -0.251701 0.7059 0.7059 0.7059
v 0.477297 0.500000 -0.477297 0.7020 0.7020 0.7020
v 0.465082 0.476224 -0.465082 0.7020 0.7020 0.7020
v 0.581836 0.514695 -0.241004 0.9568 0.9568 0.9568
v 0.623619 0.500000 -0.258311 0.7098 0.7098 0.7098
v 0.445318 0.485305 -0.445318 0.7020 0.7020 0.7020
v 0.241004 0.485305 -0.581836 0.9764 0.9764 0.9764
v 0.251701 0.476224 -0.607659 0.9647 0.9647 0.9647
v 0.445318 0.514695 -0.445318 0.7020 0.7020 0.7020
v 0.241004 0.514695 -0.581836 0.9725 0.9725 0.9725
v 0.251701 0.523776 -0.607659 0.9764 0.9764 0.9764
v 0.465082 0.523776 -0.465082 0.7020 0.7020 0.7020
v 0.258311 0.500000 -0.623619 0.9882 0.9882 0.9882
v 0.000000 0.476224 -0.657725 0.7020 0.7020 0.7020
v 0.000000 0.485305 -0.629775 0.7020 0.7020 0.7020
v -0.251701 0.476224 -0.607659 0.9568 0.9568 0.9568
v -0.241004 0.485305 -0.581836 0.9725 0.9725 0.9725
v 0.000000 0.514695 -0.629775 0.7020 0.7020 0.7020
v 0.000000 0.523776 -0.657725 0.7020 0.7020 0.7020
v 0.000000 0.500000 -0.675000 0.7020 0.7020 0.7020
v -0.258311 0.500000 -0.623619 0.9804 0.9804 0.9804
v -0.477297 0.500000 -0.477297 0.7020 0.7020 0.7020
v -0.465082 0.476224 -0.465082 0.7020 0.7020 0.7020
v -0.241004 0.514695 -0.581836 0.9725 0.9725 0.9725
v -0.251701 0.523776 -0.607659 0.9764 0.9764 0.9764
v -0.445318 0.514695 -0.445318 0.7020 0.7020 0.7020
v -0.445318 0.485305 -0.445318 0.7020 0.7020 0.7020
v -0.465082 0.523776 -0.465082 0.7020 0.7020 0.7020
v -0.623619 0.500000 -0.258311 0.9215 0.9215 0.9215
v -0.607659 0.523776 -0.251701 0.9294 0.9294 0.9294
v -0.607659 0.476224 -0.251701 0.9137 0.9137 0.9137
v -0.629775 0.485305 -0.000000 0.7020 0.7020 0.7020
v -0.581836 0.485305 -0.241004 0.9607 0.9607 0.9607
v -0.581836 0.514695 -0.241004 0.9647 0.9647 0.9647
v -0.629775 0.514695 -0.000000 0.7020 0.7020 0.7020
v -0.675000 0.500000 -0.000000 0.7020 0.7020 0.7020
v -0.657725 0.476224 -0.000000 0.7020 0.7020 0.7020
v -0.607659 0.476224 0.251701 0.9647 0.9647 0.9647
v -0.581836 0.514695 0.241004 0.9647 0.9647 0.9647
v -0.581836 0.485305 0.241004 0.9647 0.9647 0.9647
v -0.657725 0.523776 -0.000000 0.7020 0.7020 0.7020
v -0.445318 0.514695 0.445318 0.7020 0.7020 0.7020
v -0.607659 0.523776 0.251701 0.9804 0.9804 0.9804
v -0.465082 0.523776 0.465082 0.7020 0.7020 0.7020
v -0.623619 0.500000 0.258311 0.9921 0.9921 0.9921
v -0.477297 0.500000 0.477297 0.7020 0.7020 0.7020
v -0.465082 0.476224 0.465082 0.7020 0.7020 0.7020
v -0.445318 0.485305 0.445318 0.7020 0.7020 0.7020
v -0.241004 0.514695 0.581836 0.9372 0.9372 0.9372
v -0.000000 0.500000 0.675000 0.7020 0.7020 0.7020
v -0.251701 0.476224 0.607659 0.9137 0.9137 0.9137
v -0.241004 0.485305 0.581836 0.9294 0.9294 0.9294
v -0.251701 0.523776 0.607659 0.9294 0.9294 0.9294
v -0.258311 0.500000 0.623619 0.9333 0.9333 0.9333
v -0.000000 0.523776 0.657725 0.7020 0.7020 0.7020
v -0.000000 0.476224 0.657725 0.7020 0.7020 0.7020
v -0.000000 0.485305 0.629775 0.7020 0.7020 0.7020
v 0.251701 0.476224 0.607659 0.9451 0.9451 0.9451
v -0.000000 0.514695 0.629775 0.7020 0.7020 0.7020
v 0.251701 0.523776 0.607659 0.9686 0.9686 0.9686
v 0.465082 0.476224 0.465082 0.7020 0.7020 0.7020
v 0.241004 0.485305 0.581836 0.9451 0.9451 0.9451
v 0.241004 0.514695 0.581836 0.9529 0.9529 0.9529
v 0.465082 0.523776 0.465082 0.7020 0.7020 0.7020
v 0.445318 0.514695 0.445318 0.7020 0.7020 0.7020
v 0.258311 0.500000 0.623619 0.9804 0.9804 0.9804
v 0.477297 0.500000 0.477297 0.7020 0.7020 0.7020
v 0.445318 0.485305 0.445318 0.7020 0.7020 0.7020
v 0.581836 0.514695 0.241004 0.9607 0.9607 0.9607
v 0.623619 0.500000 0.258311 0.9960 0.9960 0.9960
v 0.607659 0.523776 0.251701 0.9804 0.9804 0.9804
v 0.607659 0.476224 0.251701 0.9647 0.9647 0.9647
v 0.581836 0.485305 0.241004 0.9686 0.9686 0.9686
v 0.675000 0.500000 0.000000 0.7020 0.7020 0.7020
v 0.657725 0.523776 0.000000 0.7020 0.7020 0.7020
v 0.657725 1.576224 0.000000 0.7020 0.7020 0.7020
v 0.607659 1.576224 -0.251701 0.9647 0.9647 0.9647
v 0.581836 1.585305 -0.241004 0.9058 0.9058 0.9058
v 0.629775 1.614695 -0.000000 0.7020 0.7020 0.7020
v 0.607659 1.623776 -0.251701 0.9804 0.9804 0.9804
v 0.675000 1.600000 0.000000 0.7020 0.7020 0.7020
v 0.623619 1.600000 -0.258311 0.9882 0.9882 0.9882
v 0.581836 1.614695 -0.241004 0.9255 0.9255 0.9255
v 0.445318 1.614695 -0.445318 0.7020 0.7020 0.7020
v 0.477297 1.600000 -0.477297 0.7020 0.7020 0.7020
v 0.258311 1.600000 -0.623619 0.9882 0.9882 0.9882
v 0.465082 1.576224 -0.465082 0.7020 0.7020 0.7020
v 0.445318 1.585305 -0.445318 0.7020 0.7020 0.7020
v 0.241004 1.585305 -0.581836 0.9019 0.9019 0.9019
v 0.465082 1.623776 -0.465082 0.7020 0.7020 0.7020
v 0.251701 1.623776 -0.607659 0.9725 0.9725 0.9725
v 0.000000 1.600000 -0.675000 0.7020 0.7020 0.7020
v 0.251701 1.576224 -0.607659 0.9725 0.9725 0.9725
v 0.000000 1.585305 -0.629775 0.7020 0.7020 0.7020
v 0.241004 1.614695 -0.581836 0.9176 0.9176 0.9176
v 0.000000 1.614695 -0.629775 0.7020 0.7020 0.7020
v 0.000000 1.623776 -0.657725 0.7020 0.7020 0.7020
v 0.000000 1.576224 -0.657725 0.7020 0.7020 0.7020
v -0.251701 1.623776 -0.607659 0.9804 0.9804 0.9804
v -0.251701 1.576224 -0.607659 0.9686 0.9686 0.9686
v -0.465082 1.576224 -0.465082 0.7020 0.7020 0.7020
v -0.241004 1.585305 -0.581836 0.9137 0.9137 0.9137
v -0.445318 1.614695 -0.445318 0.7020 0.7020 0.7020
v -0.445318 1.585305 -0.445318 0.7020 0.7020 0.7020
v -0.241004 1.614695 -0.581836 0.9215 0.9215 0.9215
v -0.258311 1.600000 -0.623619 0.9882 0.9882 0.9882
v -0.465082 1.623776 -0.465082 0.7020 0.7020 0.7020
v -0.477297 1.600000 -0.477297 0.7020 0.7020 0.7020
v -0.607659 1.576224 -0.251701 0.9647 0.9647 0.9647
v -0.581836 1.614695 -0.241004 0.9294 0.9294 0.9294
v -0.581836 1.585305 -0.241004 0.9058 0.9058 0.9058
v -0.629775 1.585305 -0.000000 0.7020 0.7020 0.7020
v -0.607659 1.623776 -0.251701 0.9764 0.9764 0.9764
v -0.623619 1.600000 -0.258311 0.9882 0.9882 0.9882
v -0.657725 1.576224 -0.000000 0.7020 0.7020 0.7020
v -0.581836 1.585305 0.241004 0.9019 0.9019 0.9019
v -0.629775 1.614695 -0.000000 0.7020 0.7020 0.7020
v -0.657725 1.623776 -0.000000 0.7020 0.7020 0.7020
v -0.675000 1.600000 -0.000000 0.7020 0.7020 0.7020
v -0.607659 1.623776 0.251701 0.9725 0.9725 0.9725
v -0.607659 1.576224 0.251701 0.9647 0.9647 0.9647
v -0.465082 1.576224 0.465082 0.7020 0.7020 0.7020
v -0.477297 1.600000 0.477297 0.7020 0.7020 0.7020
v -0.581836 1.614695 0.241004 0.9215 0.9215 0.9215
v -0.445318 1.614695 0.445318 0.7020 0.7020 0.7020
v -0.623619 1.600000 0.258311 0.9882 0.9882 0.9882
v -0.258311 1.600000 0.623619 0.9882 0.9882 0.9882
v -0.445318 1.585305 0.445318 0.7020 0.7020 0.7020
v -0.241004 1.585305 0.581836 0.8941 0.8941 0.8941
v -0.251701 1.623776 0.607659 0.9725 0.9725 0.9725
v -0.465082 1.623776 0.465082 0.7020 0.7020 0.7020
v -0.251701 1.576224 0.607659 0.9607 0.9607 0.9607
v -0.000000 1.600000 0.675000 0.7020 0.7020 0.7020
v -0.000000 1.585305 0.629775 0.7020 0.7020 0.7020
v -0.000000 1.576224 0.657725 0.7020 0.7020 0.7020
v -0.241004 1.614695 0.581836 0.9137 0.9137 0.9137
v 0.241004 1.614695 0.581836 0.9019 0.9019 0.9019
v 0.241004 1.585305 0.581836 0.8862 0.8862 0.8862
v -0.000000 1.614695 0.629775 0.7020 0.7020 0.7020
v -0.000000 1.623776 0.657725 0.7020 0.7020 0.7020
v 0.258311 1.600000 0.623619 0.9921 0.9921 0.9921
v 0.251701 1.576224 0.607659 0.9647 0.9647 0.9647
v 0.465082 1.576224 0.465082 0.7020 0.7020 0.7020
v 0.445318 1.585305 0.445318 0.7020 0.7020 0.7020
v 0.445318 1.614695 0.445318 0.7020 0.7020 0.7020
v 0.251701 1.623776 0.607659 0.9686 0.9686 0.9686
v 0.465082 1.623776 0.465082 0.7020 0.7020 0.7020
v 0.477297 1.600000 0.477297 0.7020 0.7020 0.7020
v 0.607659 1.576224 0.251701 0.9647 0.9647 0.9647
v 0.607659 1.623776 0.251701 0.9764 0.9764 0.9764
v 0.623619 1.600000 0.258311 0.9921 0.9921 0.9921
v 0.581836 1.585305 0.241004 0.9058 0.9058 0.9058
v 0.629775 1.585305 -0.000000 0.7020 0.7020 0.7020
v 0.581836 1.614695 0.241004 0.9137 0.9137 0.9137
v 0.657725 1.623776 0.000000 0.7020 0.7020 0.7020
v 0.657725 2.676224 0.000000 0.7020 0.7020 0.7020
v 0.607659 2.676224 -0.251701 0.9686 0.9686 0.9686
v 0.629775 2.714695 -0.000000 0.7020 0.7020 0.7020
v 0.623619 2.700000 -0.258311 0.9921 0.9921 0.9921
v 0.581836 2.685305 -0.241004 0.9058 0.9058 0.9058
v 0.581836 2.714695 -0.241004 0.9255 0.9255 0.9255
v 0.445318 2.714695 -0.445318 0.7020 0.7020 0.7020
v 0.607659 2.723776 -0.251701 0.9804 0.9804 0.9804
v 0.477297 2.700000 -0.477297 0.7020 0.7020 0.7020
v 0.465082 2.676224 -0.465082 0.7020 0.7020 0.7020
v 0.445318 2.685305 -0.445318 0.7020 0.7020 0.7020
v 0.251701 2.676224 -0.607659 0.9725 0.9725 0.9725
v 0.241004 2.714695 -0.581836 0.9176 0.9176 0.9176
v 0.465082 2.723776 -0.465082 0.7020 0.7020 0.7020
v 0.258311 2.700000 -0.623619 0.9882 0.9882 0.9882
v 0.000000 2.676224 -0.657725 0.7020 0.7020 0.7020
v 0.241004 2.685305 -0.581836 0.9019 0.9019 0.9019
v 0.000000 2.723776 -0.657725 0.7020 0.7020 0.7020
v 0.251701 2.723776 -0.607659 0.9725 0.9725 0.9725
v 0.000000 2.700000 -0.675000 0.7020 0.7020 0.7020
v -0.258311 2.700000 -0.623619 0.9882 0.9882 0.9882
v 0.000000 2.685305 -0.629775 0.7020 0.7020 0.7020
v 0.000000 2.714695 -0.629775 0.7020 0.7020 0.7020
v -0.241004 2.714695 -0.581836 0.9215 0.9215 0.9215
v -0.251701 2.723776 -0.607659 0.9804 0.9804 0.9804
v -0.477297 2.700000 -0.477297 0.7020 0.7020 0.7020
v -0.251701 2.676224 -0.607659 0.9686 0.9686 0.9686
v -0.241004 2.685305 -0.581836 0.9137 0.9137 0.9137
v -0.465082 2.723776 -0.465082 0.7020 0.7020 0.7020
v -0.465082 2.676224 -0.465082 0.7020 0.7020 0.7020
v -0.623619 2.700000 -0.258311 0.9921 0.9921 0.9921
v -0.607659 2.676224 -0.251701 0.9725 0.9725 0.9725
v -0.445318 2.685305 -0.445318 0.7020 0.7020 0.7020
v -0.445318 2.714695 -0.445318 0.7020 0.7020 0.7020
v -0.581836 2.685305 -0.241004 0.9058 0.9058 0.9058
v -0.581836 2.714695 -0.241004 0.9294 0.9294 0.9294
v -0.607659 2.723776 -0.251701 0.9764 0.9764 0.9764
v -0.657725 2.676224 -0.000000 0.7020 0.7020 0.7020
v -0.629775 2.685305 -0.000000 0.7020 0.7020 0.7020
v -0.629775 2.714695 -0.000000 0.7020 0.7020 0.7020
v -0.675000 2.700000 -0.000000 0.7020 0.7020 0.7020
v -0.623619 2.700000 0.258311 0.9882 0.9882 0.9882
v -0.607659 2.676224 0.251701 0.9647 0.9647 0.9647
v -0.581836 2.685305 0.241004 0.9019 0.9019 0.9019
v -0.581836 2.714695 0.241004 0.9215 0.9215 0.9215
v -0.657725 2.723776 -0.000000 0.7020 0.7020 0.7020
v -0.477297 2.700000 0.477297 0.7020 0.7020 0.7020
v -0.445318 2.685305 0.445318 0.7020 0.7020 0.7020
v -0.607659 2.723776 0.251701 0.9764 0.9764 0.9764
v -0.465082 2.723776 0.465082 0.7020 0.7020 0.7020
v -0.251701 2.676224 0.607659 0.9647 0.9647 0.9647
v -0.465082 2.676224 0.465082 0.7020 0.7020 0.7020
v -0.241004 2.685305 0.581836 0.9058 0.9058 0.9058
v -0.445318 2.714695 0.445318 0.7020 0.7020 0.7020
v -0.000000 2.676224 0.657725 0.7020 0.7020 0.7020
v -0.000000 2.714695 0.629775 0.7020 0.7020 0.7020
v -0.000000 2.685305 0.629775 0.7020 0.7020 0.7020
v -0.241004 2.714695 0.581836 0.9255 0.9255 0.9255
v -0.251701 2.723776 0.607659 0.9764 0.9764 0.9764
v -0.258311 2.700000 0.623619 0.9921 0.9921 0.9921
v -0.000000 2.723776 0.657725 0.7020 0.7020 0.7020
v -0.000000 2.700000 0.675000 0.7020 0.7020 0.7020
v 0.251701 2.676224 0.607659 0.9686 0.9686 0.9686
v 0.258311 2.700000 0.623619 0.9921 0.9921 0.9921
v 0.241004 2.685305 0.581836 0.8980 0.8980 0.8980
v 0.241004 2.714695 0.581836 0.9215 0.9215 0.9215
v 0.445318 2.685305 0.445318 0.7020 0.7020 0.7020
v 0.251701 2.723776 0.607659 0.9725 0.9725 0.9725
v 0.445318 2.714695 0.445318 0.7020 0.7020 0.7020
v 0.465082 2.723776 0.465082 0.7020 0.7020 0.7020
v 0.465082 2.676224 0.465082 0.7020 0.7020 0.7020
v 0.581836 2.685305 0.241004 0.9058 0.9058 0.9058
v 0.607659 2.723776 0.251701 0.9764 0.9764 0.9764
v 0.477297 2.700000 0.477297 0.7020 0.7020 0.7020
v 0.607659 2.676224 0.251701 0.9647 0.9647 0.9647
v 0.581836 2.714695 0.241004 0.9176 0.9176 0.9176
v 0.629775 2.685305 -0.000000 0.7020 0.7020 0.7020
v 0.657725 2.723776 0.000000 0.7020 0.7020 0.7020
v 0.623619 2.700000 0.258311 0.9921 0.9921 0.9921
v 0.675000 2.700000 0.000000 0.7020 0.7020 0.7020
v 0.657725 3.576224 0.000000 0.7020 0.7020 0.7020
v 0.623619 3.600000 -0.258311 0.9921 0.9921 0.9921
v 0.657725 3.623776 0.000000 0.7608 0.7608 0.7608
v 0.581836 3.614695 -0.241004 0.7725 0.7725 0.7725
v 0.607659 3.576224 -0.251701 0.9764 0.9764 0.9764
v 0.581836 3.585305 -0.241004 0.9058 0.9058 0.9058
v 0.445318 3.614695 -0.445318 0.8274 0.8274 0.8274
v 0.607659 3.623776 -0.251701 0.9176 0.9176 0.9176
v 0.465082 3.623776 -0.465082 0.7608 0.7608 0.7608
v 0.477297 3.600000 -0.477297 0.7020 0.7020 0.7020
v 0.465082 3.576224 -0.465082 0.7020 0.7020 0.7020
v 0.251701 3.576224 -0.607659 0.9764 0.9764 0.9764
v 0.241004 3.585305 -0.581836 0.9019 0.9019 0.9019
v 0.445318 3.585305 -0.445318 0.7020 0.7020 0.7020
v 0.241004 3.614695 -0.581836 0.7686 0.7686 0.7686
v 0.251701 3.623776 -0.607659 0.9176 0.9176 0.9176
v 0.000000 3.614695 -0.629775 0.8274 0.8274 0.8274
v 0.258311 3.600000 -0.623619 0.9921 0.9921 0.9921
v 0.000000 3.600000 -0.675000 0.7020 0.7020 0.7020
v 0.000000 3.576224 -0.657725 0.7020 0.7020 0.7020
v 0.000000 3.585305 -0.629775 0.7020 0.7020 0.7020
v -0.241004 3.585305 -0.581836 0.9098 0.9098 0.9098
v 0.000000 3.623776 -0.657725 0.7608 0.7608 0.7608
v -0.258311 3.600000 -0.623619 0.9882 0.9882 0.9882
v -0.251701 3.576224 -0.607659 0.9764 0.9764 0.9764
v -0.465082 3.576224 -0.465082 0.7020 0.7020 0.7020
v -0.445318 3.585305 -0.445318 0.7020 0.7020 0.7020
v -0.241004 3.614695 -0.581836 0.7686 0.7686 0.7686
v -0.251701 3.623776 -0.607659 0.9176 0.9176 0.9176
v -0.465082 3.623776 -0.465082 0.7647 0.7647 0.7647
v -0.477297 3.600000 -0.477297 0.7020 0.7020 0.7020
v -0.623619 3.600000 -0.258311 0.9921 0.9921 0.9921
v -0.607659 3.576224 -0.251701 0.9804 0.9804 0.9804
v -0.581836 3.585305 -0.241004 0.9019 0.9019 0.9019
v -0.445318 3.614695 -0.445318 0.8274 0.8274 0.8274
v -0.629775 3.585305 -0.000000 0.7020 0.7020 0.7020
v -0.629775 3.614695 -0.000000 0.8274 0.8274 0.8274
v -0.581836 3.614695 -0.241004 0.7764 0.7764 0.7764
v -0.607659 3.623776 -0.251701 0.9215 0.9215 0.9215
v -0.657725 3.623776 -0.000000 0.7608 0.7608 0.7608
v -0.675000 3.600000 -0.000000 0.7020 0.7020 0.7020
v -0.657725 3.576224 -0.000000 0.7020 0.7020 0.7020
v -0.607659 3.576224 0.251701 0.9725 0.9725 0.9725
v -0.581836 3.585305 0.241004 0.9019 0.9019 0.9019
v -0.581836 3.614695 0.241004 0.7686 0.7686 0.7686
v -0.607659 3.623776 0.251701 0.9215 0.9215 0.9215
v -0.623619 3.600000 0.258311 0.9882 0.9882 0.9882
v -0.477297 3.600000 0.477297 0.7020 0.7020 0.7020
v -0.465082 3.576224 0.465082 0.7020 0.7020 0.7020
v -0.251701 3.576224 0.607659 0.9764 0.9764 0.9764
v -0.445318 3.585305 0.445318 0.7020 0.7020 0.7020
v -0.445318 3.614695 0.445318 0.8274 0.8274 0.8274
v -0.465082 3.623776 0.465082 0.7608 0.7608 0.7608
v -0.241004 3.585305 0.581836 0.9058 0.9058 0.9058
v -0.000000 3.576224 0.657725 0.7020 0.7020 0.7020
v -0.000000 3.585305 0.629775 0.7020 0.7020 0.7020
v -0.241004 3.614695 0.581836 0.7686 0.7686 0.7686
v -0.251701 3.623776 0.607659 0.9215 0.9215 0.9215
v -0.258311 3.600000 0.623619 0.9882 0.9882 0.9882
v -0.000000 3.600000 0.675000 0.7020 0.7020 0.7020
v 0.251701 3.576224 0.607659 0.9764 0.9764 0.9764
v -0.000000 3.614695 0.629775 0.8274 0.8274 0.8274
v -0.000000 3.623776 0.657725 0.7608 0.7608 0.7608
v 0.258311 3.600000 0.623619 0.9921 0.9921 0.9921
v 0.241004 3.585305 0.581836 0.8980 0.8980 0.8980
v 0.241004 3.614695 0.581836 0.7686 0.7686 0.7686
v 0.251701 3.623776 0.607659 0.9176 0.9176 0.9176
v 0.477297 3.600000 0.477297 0.7020 0.7020 0.7020
v 0.465082 3.576224 0.465082 0.7020 0.7020 0.7020
v 0.623619 3.600000 0.258311 0.9882 0.9882 0.9882
v 0.445318 3.585305 0.445318 0.7020 0.7020 0.7020
v 0.581836 3.585305 0.241004 0.9058 0.9058 0.9058
v 0.445318 3.614695 0.445318 0.8274 0.8274 0.8274
v 0.581836 3.614695 0.241004 0.7686 0.7686 0.7686
v 0.465082 3.623776 0.465082 0.7608 0.7608 0.7608
v 0.607659 3.623776 0.251701 0.9176 0.9176 0.9176
v 0.607659 3.576224 0.251701 0.9725 0.9725 0.9725
v 0.629775 3.585305 -0.000000 0.7020 0.7020 0.7020
v 0.629775 3.614695 -0.000000 0.8274 0.8274 0.8274
v 0.675000 3.600000 0.000000 0.7020 0.7020 0.7020
v 0.520000 4.200000 0.000000 1.0000 1.0000 1.0000
v 0.480833 3.600000 -0.480833 0.8980 0.8980 0.8980
v -0.520000 4.200000 -0.000000 1.0000 1.0000 1.0000
v -0.480833 3.600000 0.480833 0.8980 0.8980 0.8980
v -0.000000 3.600000 0.680000 0.9058 0.9058 0.9058
v -0.367696 4.200000 0.367696 1.0000 1.0000 1.0000
v 0.367696 4.200000 0.367696 1.0000 1.0000 1.0000
v -0.000000 4.200000 0.520000 1.0000 1.0000 1.0000
v 0.680000 3.600000 0.000000 0.8980 0.8980 0.8980
v 0.367696 4.200000 -0.367696 1.0000 1.0000 1.0000
v 0.000000 4.200000 -0.520000 1.0000 1.0000 1.0000
v -0.367696 4.200000 -0.367696 1.0000 1.0000 1.0000
v -0.000000 4.700000 0.292500 1.0000 1.0000 1.0000
v 0.292500 4.700000 0.000000 1.0000 1.0000 1.0000
v 0.206829 4.700000 0.206829 1.0000 1.0000 1.0000
v 0.206829 4.700000 -0.206829 1.0000 1.0000 1.0000
v 0.084853 5.100000 -0.084853 0.9960 0.9960 0.9960
v 0.120000 5.100000 0.000000 1.0000 1.0000 1.0000
v 0.000000 4.700000 -0.292500 1.0000 1.0000 1.0000
v -0.206829 4.700000 -0.206829 1.0000 1.0000 1.0000
v 0.000000 5.100000 -0.120000 1.0000 1.0000 1.0000
v -0.292500 4.700000 -0.000000 1.0000 1.0000 1.0000
v -0.084853 5.100000 -0.084853 1.0000 1.0000 1.0000
v -0.206829 4.700000 0.206829 1.0000 1.0000 1.0000
v -0.120000 5.100000 -0.000000 0.9960 0.9960 0.9960
v -0.084853 5.100000 0.084853 1.0000 1.0000 1.0000
v 0.000000 5.250000 0.000000 0.7020 0.7020 0.7020
v -0.000000 5.100000 0.120000 1.0000 1.0000 1.0000
v 0.084853 5.100000 0.084853 0.9960 0.9960 0.9960
v 0.480833 3.600000 0.480833 0.8980 0.8980 0.8980
v -0.680000 3.600000 -0.000000 0.8980 0.8980 0.8980
v -0.480833 3.600000 -0.480833 0.8980 0.8980 0.8980
v -0.020000 5.200000 -0.000000 0.7294 0.7294 0.7294
v -0.000000 5.200000 0.020000 0.7294 0.7294 0.7294
v 0.020000 5.200000 0.000000 0.7294 0.7294 0.7294
v 0.020000 5.700000 0.000000 1.0000 1.0000 1.0000
v 0.000000 5.700000 -0.020000 1.0000 1.0000 1.0000
v -0.020000 5.700000 -0.000000 1.0000 1.0000 1.0000
v -0.000000 5.700000 0.020000 1.0000 1.0000 1.0000
v 0.000000 5.200000 -0.020000 0.7333 0.7333 0.7333
v 0.592848 0.000000 -0.266938 0.8000 0.8000 0.8000
v 1.249274 0.000000 -0.511899 0.8235 0.8235 0.8235
v 1.237591 0.000000 -0.539531 0.8235 0.8235 0.8235
v 0.604531 0.000000 -0.239306 0.7960 0.7960 0.7960
v 0.604531 1.400000 -0.239306 0.9372 0.9372 0.9372
v 0.592848 1.400000 -0.266938 0.9411 0.9411 0.9411
v -0.509511 0.000000 -0.403886 0.8039 0.8039 0.8039
v -0.509511 1.400000 -0.403886 0.9137 0.9137 0.9137
v -1.086043 0.000000 -0.802020 0.8196 0.8196 0.8196
v -1.067954 0.000000 -0.825953 0.8235 0.8235 0.8235
v -0.527599 1.400000 -0.379953 0.9451 0.9451 0.9451
v -0.527599 0.000000 -0.379953 0.8000 0.8000 0.8000
v -0.181319 0.000000 1.337852 0.8157 0.8157 0.8157
v -0.151548 0.000000 1.341551 0.8196 0.8196 0.8196
v -0.095020 1.400000 0.643192 0.9333 0.9333 0.9333
v -0.065249 1.400000 0.646891 0.8980 0.8980 0.8980
v -0.095020 0.000000 0.643192 0.7960 0.7960 0.7960
v -0.065249 0.000000 0.646891 0.7960 0.7960 0.7960
v 0.620000 1.600000 0.000000 0.7843 0.7843 0.7843
v -0.438406 1.600000 -0.438406 0.7882 0.7882 0.7882
v -0.438406 1.560000 -0.438406 0.7960 0.7960 0.7960
v -0.620000 1.600000 -0.000000 0.7843 0.7843 0.7843
v -0.620000 1.560000 -0.000000 0.7921 0.7921 0.7921
v -0.438406 1.600000 0.438406 0.7804 0.7804 0.7804
v -0.438406 1.560000 0.438406 0.7882 0.7882 0.7882
v -0.000000 1.560000 0.620000 0.7960 0.7960 0.7960
v -0.000000 1.600000 0.620000 0.7843 0.7843 0.7843
v 0.438406 1.600000 0.438406 0.7843 0.7843 0.7843
v 0.438406 1.560000 0.438406 0.8039 0.8039 0.8039
v 0.620000 1.560000 0.000000 0.7882 0.7882 0.7882
v 0.438406 1.600000 -0.438406 0.7804 0.7804 0.7804
v 0.000000 1.600000 -0.620000 0.7843 0.7843 0.7843
v 0.000000 1.560000 -0.620000 0.8000 0.8000 0.8000
v 0.438406 1.560000 -0.438406 0.7921 0.7921 0.7921
v 0.620000 2.700000 0.000000 0.7843 0.7843 0.7843
v 0.000000 2.700000 -0.620000 0.7843 0.7843 0.7843
v 0.438406 2.700000 -0.438406 0.7804 0.7804 0.7804
v -0.438406 2.660000 -0.438406 0.8000 0.8000 0.8000
v -0.620000 2.660000 -0.000000 0.7921 0.7921 0.7921
v -0.620000 2.700000 -0.000000 0.7843 0.7843 0.7843
v -0.000000 2.700000 0.620000 0.7882 0.7882 0.7882
v -0.438406 2.700000 0.438406 0.7843 0.7843 0.7843
v 0.438406 2.660000 0.438406 0.8039 0.8039 0.8039
v -0.438406 2.700000 -0.438406 0.7882 0.7882 0.7882
v 0.438406 2.700000 0.438406 0.7882 0.7882 0.7882
v -0.000000 2.660000 0.620000 0.7960 0.7960 0.7960
v -0.438406 2.660000 0.438406 0.7921 0.7921 0.7921
v 0.000000 2.660000 -0.620000 0.8000 0.8000 0.8000
v 0.438406 2.660000 -0.438406 0.8000 0.8000 0.8000
v 0.620000 2.660000 0.000000 0.7921 0.7921 0.7921
v 0.220000 0.284412 0.309000 0.7020 0.7020 0.7020
v -0.220000 0.284412 0.291000 0.7020 0.7020 0.7020
v -0.220000 0.300000 0.282000 0.7020 0.7020 0.7020
v -0.220000 0.315588 0.291000 0.7020 0.7020 0.7020
v 0.220000 0.300000 0.282000 0.7020 0.7020 0.7020
v -0.220000 0.315588 0.309000 0.7020 0.7020 0.7020
v 0.220000 0.315588 0.309000 0.7020 0.7020 0.7020
v 0.220000 0.300000 0.318000 0.7020 0.7020 0.7020
v -0.220000 0.284412 0.309000 0.7020 0.7020 0.7020
v -0.220000 0.300000 0.318000 0.7020 0.7020 0.7020
v 0.220000 0.284412 0.291000 0.7020 0.7020 0.7020
v 0.220000 0.315588 0.291000 0.7020 0.7020 0.7020
v -0.220000 0.614412 0.309000 0.7020 0.7020 0.7020
v 0.220000 0.614412 0.309000 0.7020 0.7020 0.7020
v -0.220000 0.614412 0.291000 0.7020 0.7020 0.7020
v -0.220000 0.630000 0.282000 0.7020 0.7020 0.7020
v 0.220000 0.614412 0.291000 0.7020 0.7020 0.7020
v -0.220000 0.645588 0.291000 0.7020 0.7020 0.7020
v 0.220000 0.645588 0.291000 0.7020 0.7020 0.7020
v -0.220000 0.645588 0.309000 0.7020 0.7020 0.7020
v -0.220000 0.630000 0.318000 0.7020 0.7020 0.7020
v 0.220000 0.630000 0.318000 0.7020 0.7020 0.7020
v 0.220000 0.645588 0.309000 0.7020 0.7020 0.7020
v 0.220000 0.630000 0.282000 0.7020 0.7020 0.7020
v -0.220000 0.960000 0.318000 0.7020 0.7020 0.7020
v 0.220000 0.960000 0.318000 0.7020 0.7020 0.7020
v -0.220000 0.944412 0.309000 0.7020 0.7020 0.7020
v -0.220000 0.944412 0.291000 0.7020 0.7020 0.7020
v 0.220000 0.944412 0.309000 0.7020 0.7020 0.7020
v 0.220000 0.960000 0.282000 0.7020 0.7020 0.7020
v 0.220000 0.944412 0.291000 0.7020 0.7020 0.7020
v -0.220000 0.960000 0.282000 0.7020 0.7020 0.7020
v -0.220000 0.975588 0.291000 0.7020 0.7020 0.7020
v 0.220000 0.975588 0.309000 0.7020 0.7020 0.7020
v 0.220000 0.975588 0.291000 0.7020 0.7020 0.7020
v -0.220000 0.975588 0.309000 0.7020 0.7020 0.7020
v -0.220000 1.274412 0.309000 0.7020 0.7020 0.7020
v 0.220000 1.274412 0.291000 0.7020 0.7020 0.7020
v -0.220000 1.290000 0.282000 0.7020 0.7020 0.7020
v 0.220000 1.290000 0.282000 0.7020 0.7020 0.7020
v -0.220000 1.305588 0.309000 0.7020 0.7020 0.7020
v 0.220000 1.305588 0.309000 0.7020 0.7020 0.7020
v -0.220000 1.305588 0.291000 0.7020 0.7020 0.7020
v -0.220000 1.274412 0.291000 0.7020 0.7020 0.7020
v -0.220000 1.290000 0.318000 0.7020 0.7020 0.7020
v 0.220000 1.290000 0.318000 0.7020 0.7020 0.7020
v 0.220000 1.274412 0.309000 0.7020 0.7020 0.7020
v 0.220000 1.305588 0.291000 0.7020 0.7020 0.7020
v 0.220000 1.604412 0.309000 0.7020 0.7020 0.7020
v 0.220000 1.620000 0.318000 0.7020 0.7020 0.7020
v -0.220000 1.604412 0.309000 0.7020 0.7020 0.7020
v 0.220000 1.620000 0.282000 0.7020 0.7020 0.7020
v 0.220000 1.604412 0.291000 0.7020 0.7020 0.7020
v -0.220000 1.635588 0.309000 0.7020 0.7020 0.7020
v 0.220000 1.635588 0.309000 0.7020 0.7020 0.7020
v -0.220000 1.635588 0.291000 0.7020 0.7020 0.7020
v -0.220000 1.620000 0.282000 0.7020 0.7020 0.7020
v -0.220000 1.604412 0.291000 0.7020 0.7020 0.7020
v -0.220000 1.620000 0.318000 0.7020 0.7020 0.7020
v 0.220000 1.635588 0.291000 0.7020 0.7020 0.7020
v 0.220000 1.934412 0.309000 0.7020 0.7020 0.7020
v -0.220000 1.934412 0.291000 0.7020 0.7020 0.7020
v 0.220000 1.934412 0.291000 0.7020 0.7020 0.7020
v -0.220000 1.950000 0.282000 0.7020 0.7020 0.7020
v 0.220000 1.950000 0.282000 0.7020 0.7020 0.7020
v -0.220000 1.965588 0.309000 0.7020 0.7020 0.7020
v 0.220000 1.965588 0.309000 0.7020 0.7020 0.7020
v 0.220000 1.965588 0.291000 0.7020 0.7020 0.7020
v -0.220000 1.950000 0.318000 0.7020 0.7020 0.7020
v 0.220000 1.950000 0.318000 0.7020 0.7020 0.7020
v -0.220000 1.965588 0.291000 0.7020 0.7020 0.7020
v -0.220000 1.934412 0.309000 0.7020 0.7020 0.7020
v -0.220000 2.264411 0.309000 0.7020 0.7020 0.7020
v 0.220000 2.264411 0.309000 0.7020 0.7020 0.7020
v -0.220000 2.280000 0.282000 0.7020 0.7020 0.7020
v 0.220000 2.280000 0.282000 0.7020 0.7020 0.7020
v -0.220000 2.295588 0.309000 0.7020 0.7020 0.7020
v 0.220000 2.295588 0.309000 0.7020 0.7020 0.7020
v 0.220000 2.295588 0.291000 0.7020 0.7020 0.7020
v 0.220000 2.280000 0.318000 0.7020 0.7020 0.7020
v -0.220000 2.295588 0.291000 0.7020 0.7020 0.7020
v -0.220000 2.264411 0.291000 0.7020 0.7020 0.7020
v -0.220000 2.280000 0.318000 0.7020 0.7020 0.7020
v 0.220000 2.264411 0.291000 0.7020 0.7020 0.7020
v -0.220000 2.610000 0.318000 0.7020 0.7020 0.7020
v -0.220000 2.594412 0.309000 0.7020 0.7020 0.7020
v -0.220000 2.594412 0.291000 0.7020 0.7020 0.7020
v -0.220000 2.610000 0.282000 0.7020 0.7020 0.7020
v 0.220000 2.594412 0.291000 0.7020 0.7020 0.7020
v -0.220000 2.625588 0.291000 0.7020 0.7020 0.7020
v 0.220000 2.610000 0.282000 0.7020 0.7020 0.7020
v -0.220000 2.625588 0.309000 0.7020 0.7020 0.7020
v 0.220000 2.610000 0.318000 0.7020 0.7020 0.7020
v 0.220000 2.594412 0.309000 0.7020 0.7020 0.7020
v 0.220000 2.625588 0.291000 0.7020 0.7020 0.7020
v 0.220000 2.625588 0.309000 0.7020 0.7020 0.7020
v -0.239053 0.000000 0.289000 0.8039 0.8039 0.8039
v -0.239053 2.750000 0.289000 0.8862 0.8862 0.8862
v -0.220000 2.750000 0.278000 0.8941 0.8941 0.8941
v -0.239053 0.000000 0.311000 0.8000 0.8000 0.8000
v -0.220000 0.000000 0.322000 0.7960 0.7960 0.7960
v -0.220000 2.750000 0.322000 0.8862 0.8862 0.8862
v -0.239053 2.750000 0.311000 0.8784 0.8784 0.8784
v -0.200947 0.000000 0.311000 0.7921 0.7921 0.7921
v -0.200947 2.750000 0.311000 0.8862 0.8862 0.8862
v -0.200947 0.000000 0.289000 0.7960 0.7960 0.7960
v -0.220000 0.000000 0.278000 0.8039 0.8039 0.8039
v -0.200947 2.750000 0.289000 0.8941 0.8941 0.8941
v 0.220000 0.000000 0.278000 0.8039 0.8039 0.8039
v 0.200947 0.000000 0.289000 0.8000 0.8000 0.8000
v 0.200947 2.750000 0.311000 0.8862 0.8862 0.8862
v 0.200947 2.750000 0.289000 0.8941 0.8941 0.8941
v 0.200947 0.000000 0.311000 0.7960 0.7960 0.7960
v 0.239053 0.000000 0.311000 0.8039 0.8039 0.8039
v 0.239053 0.000000 0.289000 0.8039 0.8039 0.8039
v 0.220000 0.000000 0.322000 0.8000 0.8000 0.8000
v 0.220000 2.750000 0.278000 0.8941 0.8941 0.8941
v 0.220000 2.750000 0.322000 0.8784 0.8784 0.8784
v 0.239053 2.750000 0.311000 0.8745 0.8745 0.8745
v 0.239053 2.750000 0.289000 0.8902 0.8902 0.8902
vn -0.5000 -0.0000 -0.8660
vn -1.0000 -0.0000 -0.0000
vn -0.5000 -0.0000 0.8660
vn 0.5000 -0.0000 0.8660
vn 1.0000 -0.0000 -0.0000
vn 0.5000 -0.0000 -0.8660
vn -0.0000 -1.0000 -0.0000
vn -0.0000 1.0000 -0.0000
vn 0.8090 -0.5878 -0.0000
vn 0.7474 -0.5878 -0.3096
vn -0.3090 -0.9511 -0.0000
vn -0.2855 -0.9511 0.1183
vn -0.9239 -0.0000 0.3827
vn -0.3090 0.9511 -0.0000
vn -0.2855 0.9511 0.1183
vn 0.8090 0.5878 -0.0000
vn 0.7474 0.5878 -0.3096
vn 0.5721 -0.5878 -0.5721
vn -0.2185 -0.9511 0.2185
vn -0.7071 -0.0000 0.7071
vn -0.2185 0.9511 0.2185
vn 0.5721 0.5878 -0.5721
vn 0.3096 -0.5878 -0.7474
vn -0.1183 -0.9511 0.2855
vn -0.3827 -0.0000 0.9239
vn -0.1183 0.9511 0.2855
vn 0.3096 0.5878 -0.7474
vn -0.0000 -0.5878 -0.8090
vn -0.0000 -0.9511 0.3090
vn -0.0000 -0.0000 1.0000
vn -0.0000 0.9511 0.3090
vn -0.0000 0.5878 -0.8090
vn -0.3096 -0.5878 -0.7474
vn 0.1183 -0.9511 0.2855
vn 0.3827 -0.0000 0.9239
vn 0.1183 0.9511 0.2855
vn -0.3096 0.5878 -0.7474
vn -0.5721 -0.5878 -0.5721
vn 0.2185 -0.9511 0.2185
vn 0.7071 -0.0000 0.7071
vn 0.2185 0.9511 0.2185
vn -0.5721 0.5878 -0.5721
vn -0.7474 -0.5878 -0.3096
vn 0.2855 -0.9511 0.1183
vn 0.9239 -0.0000 0.3827
vn 0.2855 0.9511 0.1183
vn -0.7474 0.5878 -0.3096
vn -0.8090 -0.5878 -0.0000
vn 0.3090 -0.9511 -0.0000
vn 0.3090 0.9511 -0.0000
vn -0.8090 0.5878 -0.0000
vn -0.7474 -0.5878 0.3096
vn 0.2855 -0.9511 -0.1183
vn 0.9239 -0.0000 -0.3827
vn 0.2855 0.9511 -0.1183
vn -0.7474 0.5878 0.3096
vn -0.5721 -0.5878 0.5721
vn 0.2185 -0.9511 -0.2185
vn 0.7071 -0.0000 -0.7071
vn 0.2185 0.9511 -0.2185
vn -0.5721 0.5878 0.5721
vn -0.3096 -0.5878 0.7474
vn 0.1183 -0.9511 -0.2855
vn 0.3827 -0.0000 -0.9239
vn 0.1183 0.9511 -0.2855
vn -0.3096 0.5878 0.7474
vn -0.0000 -0.5878 0.8090
vn -0.0000 -0.9511 -0.3090
vn -0.0000 -0.0000 -1.0000
vn -0.0000 0.9511 -0.3090
vn -0.0000 0.5878 0.8090
vn 0.3096 -0.5878 0.7474
vn -0.1183 -0.9511 -0.2855
vn -0.3827 -0.0000 -0.9239
vn -0.1183 0.9511 -0.2855
vn 0.3096 0.5878 0.7474
vn 0.5721 -0.5878 0.5721
vn -0.2185 -0.9511 -0.2185
vn -0.7071 -0.0000 -0.7071
vn -0.2185 0.9511 -0.2185
vn 0.5721 0.5878 0.5721
vn 0.7474 -0.5878 0.3096
vn -0.2855 -0.9511 -0.1183
vn -0.9239 -0.0000 -0.3827
vn -0.2855 0.9511 -0.1183
vn 0.7474 0.5878 0.3096
vn 0.9662 0.2577 -0.0000
vn 0.6832 0.2577 -0.6832
vn 0.6673 0.3308 -0.6673
vn 0.9437 0.3308 -0.0000
vn -0.0000 0.2577 -0.9662
vn -0.0000 0.3308 -0.9437
vn -0.6832 0.2577 -0.6832
vn -0.6673 0.3308 -0.6673
vn -0.9662 0.2577 -0.0000
vn -0.9437 0.3308 -0.0000
vn -0.6832 0.2577 0.6832
vn -0.6673 0.3308 0.6673
vn -0.0000 0.2577 0.9662
vn -0.0000 0.3308 0.9437
vn 0.6832 0.2577 0.6832
vn 0.6673 0.3308 0.6673
vn 0.6462 0.4060 -0.6462
vn 0.9139 0.4060 -0.0000
vn -0.0000 0.4060 -0.9139
vn -0.6462 0.4060 -0.6462
vn -0.9139 0.4060 -0.0000
vn -0.6462 0.4060 0.6462
vn -0.0000 0.4060 0.9139
vn 0.6462 0.4060 0.6462
vn 0.6120 0.5010 -0.6120
vn 0.8654 0.5010 -0.0000
vn -0.0000 0.5010 -0.8654
vn -0.6120 0.5010 -0.6120
vn -0.8654 0.5010 -0.0000
vn -0.6120 0.5010 0.6120
vn -0.0000 0.5010 0.8654
vn 0.6120 0.5010 0.6120
vn 0.3894 -0.0000 0.9211
vn -0.3894 -0.0000 -0.9211
vn 0.8238 0.4472 -0.3483
vn -0.9211 -0.0000 0.3894
vn 0.6030 -0.0000 -0.7978
vn -0.6030 -0.0000 0.7978
vn -0.7136 0.4472 -0.5393
vn 0.7978 -0.0000 0.6030
vn -0.9924 -0.0000 -0.1233
vn 0.9924 -0.0000 0.1233
vn -0.1103 0.4472 0.8876
vn 0.1233 -0.0000 -0.9924
vn -0.0000 -0.5000 0.8660
vn -0.0000 -0.5000 -0.8660
vn -0.0000 0.5000 -0.8660
vn -0.0000 0.5000 0.8660
vt 0.343994 0.922119
vt 0.346517 0.922119
vt 0.346517 0.937256
vt 0.343994 0.937256
vt 0.349040 0.922119
vt 0.349040 0.937256
vt 0.351562 0.922119
vt 0.351562 0.937256
vt 0.354085 0.922119
vt 0.354085 0.937256
vt 0.356608 0.922119
vt 0.356608 0.937256
vt 0.359131 0.922119
vt 0.359131 0.937256
vt 0.359131 0.925903
vt 0.359131 0.933472
vt 0.343994 0.933472
vt 0.343994 0.925903
vt 0.375244 0.922119
vt 0.378271 0.922119
vt 0.378271 0.923065
vt 0.375244 0.923065
vt 0.381299 0.922119
vt 0.381299 0.923065
vt 0.384326 0.922119
vt 0.384326 0.923065
vt 0.387354 0.922119
vt 0.387354 0.923065
vt 0.390381 0.922119
vt 0.390381 0.923065
vt 0.378271 0.924011
vt 0.375244 0.924011
vt 0.381299 0.924011
vt 0.384326 0.924011
vt 0.387354 0.924011
vt 0.390381 0.924011
vt 0.378271 0.924957
vt 0.375244 0.924957
vt 0.381299 0.924957
vt 0.384326 0.924957
vt 0.387354 0.924957
vt 0.390381 0.924957
vt 0.378271 0.925903
vt 0.375244 0.925903
vt 0.381299 0.925903
vt 0.384326 0.925903
vt 0.387354 0.925903
vt 0.390381 0.925903
vt 0.378271 0.926849
vt 0.375244 0.926849
vt 0.381299 0.926849
vt 0.384326 0.926849
vt 0.387354 0.926849
vt 0.390381 0.926849
vt 0.378271 0.927795
vt 0.375244 0.927795
vt 0.381299 0.927795
vt 0.384326 0.927795
vt 0.387354 0.927795
vt 0.390381 0.927795
vt 0.378271 0.928741
vt 0.375244 0.928741
vt 0.381299 0.928741
vt 0.384326 0.928741
vt 0.387354 0.928741
vt 0.390381 0.928741
vt 0.378271 0.929688
vt 0.375244 0.929688
vt 0.381299 0.929688
vt 0.384326 0.929688
vt 0.387354 0.929688
vt 0.390381 0.929688
vt 0.378271 0.930634
vt 0.375244 0.930634
vt 0.381299 0.930634
vt 0.384326 0.930634
vt 0.387354 0.930634
vt 0.390381 0.930634
vt 0.378271 0.931580
vt 0.375244 0.931580
vt 0.381299 0.931580
vt 0.384326 0.931580
vt 0.387354 0.931580
vt 0.390381 0.931580
vt 0.378271 0.932526
vt 0.375244 0.932526
vt 0.381299 0.932526
vt 0.384326 0.932526
vt 0.387354 0.932526
vt 0.390381 0.932526
vt 0.378271 0.933472
vt 0.375244 0.933472
vt 0.381299 0.933472
vt 0.384326 0.933472
vt 0.387354 0.933472
vt 0.390381 0.933472
vt 0.378271 0.934418
vt 0.375244 0.934418
vt 0.381299 0.934418
vt 0.384326 0.934418
vt 0.387354 0.934418
vt 0.390381 0.934418
vt 0.378271 0.935364
vt 0.375244 0.935364
vt 0.381299 0.935364
vt 0.384326 0.935364
vt 0.387354 0.935364
vt 0.390381 0.935364
vt 0.378271 0.936310
vt 0.375244 0.936310
vt 0.381299 0.936310
vt 0.384326 0.936310
vt 0.387354 0.936310
vt 0.390381 0.936310
vt 0.378271 0.937256
vt 0.375244 0.937256
vt 0.381299 0.937256
vt 0.384326 0.937256
vt 0.387354 0.937256
vt 0.390381 0.937256
vt 0.377136 0.922119
vt 0.377136 0.927347
vt 0.375244 0.927347
vt 0.379028 0.922119
vt 0.379028 0.927347
vt 0.380920 0.922119
vt 0.380920 0.927347
vt 0.382812 0.922119
vt 0.382812 0.927347
vt 0.384705 0.922119
vt 0.384705 0.927347
vt 0.386597 0.922119
vt 0.386597 0.927347
vt 0.388489 0.922119
vt 0.388489 0.927347
vt 0.390381 0.927347
vt 0.377136 0.931971
vt 0.375244 0.931971
vt 0.379028 0.931971
vt 0.380920 0.931971
vt 0.382812 0.931971
vt 0.384705 0.931971
vt 0.386597 0.931971
vt 0.388489 0.931971
vt 0.390381 0.931971
vt 0.377136 0.935639
vt 0.375244 0.935639
vt 0.379028 0.935639
vt 0.380920 0.935639
vt 0.382812 0.935639
vt 0.384705 0.935639
vt 0.386597 0.935639
vt 0.388489 0.935639
vt 0.390381 0.935639
vt 0.376190 0.937256
vt 0.378082 0.937256
vt 0.379974 0.937256
vt 0.381866 0.937256
vt 0.383759 0.937256
vt 0.385651 0.937256
vt 0.387543 0.937256
vt 0.389435 0.937256
vt 0.388164 0.935039
vt 0.382812 0.937256
vt 0.377461 0.935039
vt 0.377461 0.924336
vt 0.388164 0.924336
vt 0.422119 0.922119
vt 0.425903 0.922119
vt 0.425903 0.937256
vt 0.422119 0.937256
vt 0.429688 0.922119
vt 0.429688 0.937256
vt 0.433472 0.922119
vt 0.433472 0.937256
vt 0.437256 0.922119
vt 0.437256 0.937256
vt 0.437256 0.929688
vt 0.422119 0.929688
vt 0.406494 0.922119
vt 0.414062 0.922119
vt 0.406494 0.937256
vt 0.414062 0.937256
vt 0.409385 0.922119
vt 0.406494 0.923936
vt 0.409385 0.923936
vt 0.415849 0.922119
vt 0.415849 0.923936
vt 0.421631 0.922119
vt 0.421631 0.923936
vt 0.424011 0.922119
vt 0.424011 0.937256
vt 0.427795 0.922119
vt 0.427795 0.937256
vt 0.431580 0.922119
vt 0.431580 0.937256
vt 0.435364 0.922119
vt 0.435364 0.937256
vt 0.343506 0.929688
vt 0.341289 0.935039
vt 0.335938 0.937256
vt 0.330586 0.935039
vt 0.328369 0.929688
vt 0.330586 0.924336
vt 0.335938 0.922119
vt 0.341289 0.924336
vt 0.435039 0.935039
vt 0.424336 0.935039
vt 0.424336 0.924336
vt 0.435039 0.924336
vt 0.409017 0.922119
vt 0.409017 0.937256
vt 0.411540 0.922119
vt 0.411540 0.937256
vt 0.416585 0.922119
vt 0.416585 0.937256
vt 0.419108 0.922119
vt 0.419108 0.937256
vt 0.421631 0.937256
vt 0.417847 0.937256
vt 0.410278 0.937256
vt 0.406494 0.929688
vt 0.410278 0.922119
vt 0.417847 0.922119
vt 0.421631 0.929688
vt 0.421631 0.925903
vt 0.421631 0.933472
vt 0.406494 0.933472
vt 0.406494 0.925903
s 0
usemtl props
f 1/1/1 2/2/1 4/3/1 10/4/1
f 2/2/2 5/5/2 3/6/2 4/3/2
f 5/5/3 6/7/3 11/8/3 3/6/3
f 6/7/4 9/9/4 7/10/4 11/8/4
f 9/9/5 8/11/5 12/12/5 7/10/5
f 8/11/6 1/13/6 10/14/6 12/12/6
f 8/15/7 9/16/7 6/8/7 5/17/7 2/18/7 1/7/7
f 10/8/8 4/17/8 3/18/8 11/7/8 7/15/8 12/16/8
f 19/1/1 24/2/1 13/3/1 20/4/1
f 24/2/2 23/5/2 15/6/2 13/3/2
f 23/5/3 22/7/3 14/8/3 15/6/3
f 22/7/4 16/9/4 17/10/4 14/8/4
f 16/9/5 21/11/5 18/12/5 17/10/5
f 21/11/6 19/13/6 20/14/6 18/12/6
f 21/15/7 16/16/7 22/8/7 23/17/7 24/18/7 19/7/7
f 20/8/8 13/17/8 15/18/8 14/7/8 17/15/8 18/16/8
f 29/1/1 34/2/1 26/3/1 35/4/1
f 34/2/2 33/5/2 25/6/2 26/3/2
f 33/5/3 32/7/3 36/8/3 25/6/3
f 32/7/4 31/9/4 27/10/4 36/8/4
f 31/9/5 28/11/5 30/12/5 27/10/5
f 28/11/6 29/13/6 35/14/6 30/12/6
f 28/15/7 31/16/7 32/8/7 33/17/7 34/18/7 29/7/7
f 35/8/8 26/17/8 25/18/8 36/7/8 27/15/8 30/16/8
f 45/1/1 37/2/1 39/3/1 46/4/1
f 37/2/2 38/5/2 47/6/2 39/3/2
f 38/5/3 40/7/3 41/8/3 47/6/3
f 40/7/4 42/9/4 43/10/4 41/8/4
f 42/9/5 44/11/5 48/12/5 43/10/5
f 44/11/6 45/13/6 46/14/6 48/12/6
f 44/15/7 42/16/7 40/8/7 38/17/7 37/18/7 45/7/7
f 46/8/8 39/17/8 47/18/8 41/7/8 43/15/8 48/16/8
f 58/1/1 49/2/1 51/3/1 59/4/1
f 49/2/2 52/5/2 50/6/2 51/3/2
f 52/5/3 57/7/3 60/8/3 50/6/3
f 57/7/4 56/9/4 53/10/4 60/8/4
f 56/9/5 54/11/5 55/12/5 53/10/5
f 54/11/6 58/13/6 59/14/6 55/12/6
f 54/15/7 56/16/7 57/8/7 52/17/7 49/18/7 58/7/7
f 59/8/8 51/17/8 50/18/8 60/7/8 53/15/8 55/16/8
f 66/1/1 68/2/1 70/3/1 69/4/1
f 68/2/2 67/5/2 61/6/2 70/3/2
f 67/5/3 62/7/3 71/8/3 61/6/3
f 62/7/4 64/9/4 63/10/4 71/8/4
f 64/9/5 65/11/5 72/12/5 63/10/5
f 65/11/6 66/13/6 69/14/6 72/12/6
f 65/15/7 64/16/7 62/8/7 67/17/7 68/18/7 66/7/7
f 69/8/8 70/17/8 61/18/8 71/7/8 63/15/8 72/16/8
f 82/1/1 73/2/1 75/3/1 81/4/1
f 73/2/2 74/5/2 76/6/2 75/3/2
f 74/5/3 77/7/3 420/8/3 76/6/3
f 77/7/4 78/9/4 80/10/4 420/8/4
f 78/9/5 79/11/5 83/12/5 80/10/5
f 79/11/6 82/13/6 81/14/6 83/12/6
f 79/15/7 78/16/7 77/8/7 74/17/7 73/18/7 82/7/7
f 81/8/8 75/17/8 76/18/8 420/7/8 80/15/8 83/16/8
f 84/1/1 86/2/1 94/3/1 85/4/1
f 86/2/2 88/5/2 87/6/2 94/3/2
f 88/5/3 89/7/3 92/8/3 87/6/3
f 89/7/4 90/9/4 91/10/4 92/8/4
f 90/9/5 93/11/5 95/12/5 91/10/5
f 93/11/6 84/13/6 85/14/6 95/12/6
f 93/15/7 90/16/7 89/8/7 88/17/7 86/18/7 84/7/7
f 85/8/8 94/17/8 87/18/8 92/7/8 91/15/8 95/16/8
s 1
f 174/19/9 97/20/9 96/21/10 105/22/10
f 97/20/11 99/23/11 98/24/12 96/21/12
f 99/23/2 100/25/2 104/26/13 98/24/13
f 100/25/14 175/27/14 101/28/15 104/26/15
f 175/27/16 174/29/16 105/30/17 101/28/17
f 105/22/10 96/21/10 103/31/18 102/32/18
f 96/21/12 98/24/12 106/33/19 103/31/19
f 98/24/13 104/26/13 109/34/20 106/33/20
f 104/26/15 101/28/15 112/35/21 109/34/21
f 101/28/17 105/30/17 102/36/22 112/35/22
f 102/32/18 103/31/18 108/37/23 113/38/23
f 103/31/19 106/33/19 107/39/24 108/37/24
f 106/33/20 109/34/20 110/40/25 107/39/25
f 109/34/21 112/35/21 111/41/26 110/40/26
f 112/35/22 102/36/22 113/42/27 111/41/27
f 113/38/23 108/37/23 114/43/28 120/44/28
f 108/37/24 107/39/24 115/45/29 114/43/29
f 107/39/25 110/40/25 118/46/30 115/45/30
f 110/40/26 111/41/26 119/47/31 118/46/31
f 111/41/27 113/42/27 120/48/32 119/47/32
f 120/44/28 114/43/28 116/49/33 121/50/33
f 114/43/29 115/45/29 117/51/34 116/49/34
f 115/45/30 118/46/30 124/52/35 117/51/35
f 118/46/31 119/47/31 125/53/36 124/52/36
f 119/47/32 120/48/32 121/54/37 125/53/37
f 121/50/33 116/49/33 123/55/38 122/56/38
f 116/49/34 117/51/34 127/57/39 123/55/39
f 117/51/35 124/52/35 126/58/40 127/57/40
f 124/52/36 125/53/36 128/59/41 126/58/41
f 125/53/37 121/54/37 122/60/42 128/59/42
f 122/56/38 123/55/38 131/61/43 129/62/43
f 123/55/39 127/57/39 133/63/44 131/61/44
f 127/57/40 126/58/40 134/64/45 133/63/45
f 126/58/41 128/59/41 130/65/46 134/64/46
f 128/59/42 122/60/42 129/66/47 130/65/47
f 129/62/43 131/61/43 137/67/48 136/68/48
f 131/61/44 133/63/44 132/69/49 137/67/49
f 133/63/45 134/64/45 135/70/5 132/69/5
f 134/64/46 130/65/46 141/71/50 135/70/50
f 130/65/47 129/66/47 136/72/51 141/71/51
f 136/68/48 137/67/48 138/73/52 145/74/52
f 137/67/49 132/69/49 140/75/53 138/73/53
f 132/69/5 135/70/5 139/76/54 140/75/54
f 135/70/50 141/71/50 143/77/55 139/76/55
f 141/71/51 136/72/51 145/78/56 143/77/56
f 145/74/52 138/73/52 147/79/57 146/80/57
f 138/73/53 140/75/53 148/81/58 147/79/58
f 140/75/54 139/76/54 142/82/59 148/81/59
f 139/76/55 143/77/55 144/83/60 142/82/60
f 143/77/56 145/78/56 146/84/61 144/83/61
f 146/80/57 147/79/57 151/85/62 154/86/62
f 147/79/58 148/81/58 152/87/63 151/85/63
f 148/81/59 142/82/59 149/88/64 152/87/64
f 142/82/60 144/83/60 153/89/65 149/88/65
f 144/83/61 146/84/61 154/90/66 153/89/66
f 154/86/62 151/85/62 156/91/67 150/92/67
f 151/85/63 152/87/63 157/93/68 156/91/68
f 152/87/64 149/88/64 159/94/69 157/93/69
f 149/88/65 153/89/65 155/95/70 159/94/70
f 153/89/66 154/90/66 150/96/71 155/95/71
f 150/92/67 156/91/67 158/97/72 166/98/72
f 156/91/68 157/93/68 162/99/73 158/97/73
f 157/93/69 159/94/69 163/100/74 162/99/74
f 159/94/70 155/95/70 160/101/75 163/100/75
f 155/95/71 150/96/71 166/102/76 160/101/76
f 166/98/72 158/97/72 161/103/77 167/104/77
f 158/97/73 162/99/73 168/105/78 161/103/78
f 162/99/74 163/100/74 165/106/79 168/105/79
f 163/100/75 160/101/75 164/107/80 165/106/80
f 160/101/76 166/102/76 167/108/81 164/107/81
f 167/104/77 161/103/77 172/109/82 170/110/82
f 161/103/78 168/105/78 173/111/83 172/109/83
f 168/105/79 165/106/79 169/112/84 173/111/84
f 165/106/80 164/107/80 171/113/85 169/112/85
f 164/107/81 167/108/81 170/114/86 171/113/86
f 170/110/82 172/109/82 97/115/9 174/116/9
f 172/109/83 173/111/83 99/117/11 97/115/11
f 173/111/84 169/112/84 100/118/2 99/117/2
f 169/112/85 171/113/85 175/119/14 100/118/14
f 171/113/86 170/114/86 174/120/16 175/119/16
f 181/19/9 176/20/9 177/21/10 182/22/10
f 176/20/11 253/23/11 178/24/12 177/21/12
f 253/23/2 179/25/2 183/26/13 178/24/13
f 179/25/14 255/27/14 180/28/15 183/26/15
f 255/27/16 181/29/16 182/30/17 180/28/17
f 182/22/10 177/21/10 187/31/18 185/32/18
f 177/21/12 178/24/12 188/33/19 187/31/19
f 178/24/13 183/26/13 184/34/20 188/33/20
f 183/26/15 180/28/15 190/35/21 184/34/21
f 180/28/17 182/30/17 185/36/22 190/35/22
f 185/32/18 187/31/18 193/37/23 186/38/23
f 187/31/19 188/33/19 189/39/24 193/37/24
f 188/33/20 184/34/20 195/40/25 189/39/25
f 184/34/21 190/35/21 191/41/26 195/40/26
f 190/35/22 185/36/22 186/42/27 191/41/27
f 186/38/23 193/37/23 198/43/28 192/44/28
f 193/37/24 189/39/24 194/45/29 198/43/29
f 189/39/25 195/40/25 196/46/30 194/45/30
f 195/40/26 191/41/26 197/47/31 196/46/31
f 191/41/27 186/42/27 192/48/32 197/47/32
f 192/44/28 198/43/28 200/49/33 206/50/33
f 198/43/29 194/45/29 202/51/34 200/49/34
f 194/45/30 196/46/30 205/52/35 202/51/35
f 196/46/31 197/47/31 199/53/36 205/52/36
f 197/47/32 192/48/32 206/54/37 199/53/37
f 206/50/33 200/49/33 201/55/38 208/56/38
f 200/49/34 202/51/34 204/57/39 201/55/39
f 202/51/35 205/52/35 203/58/40 204/57/40
f 205/52/36 199/53/36 207/59/41 203/58/41
f 199/53/37 206/54/37 208/60/42 207/59/42
f 208/56/38 201/55/38 209/61/43 214/62/43
f 201/55/39 204/57/39 211/63/44 209/61/44
f 204/57/40 203/58/40 210/64/45 211/63/45
f 203/58/41 207/59/41 213/65/46 210/64/46
f 207/59/42 208/60/42 214/66/47 213/65/47
f 214/62/43 209/61/43 215/67/48 219/68/48
f 209/61/44 211/63/44 212/69/49 215/67/49
f 211/63/45 210/64/45 217/70/5 212/69/5
f 210/64/46 213/65/46 218/71/50 217/70/50
f 213/65/47 214/66/47 219/72/51 218/71/51
f 219/68/48 215/67/48 221/73/52 226/74/52
f 215/67/49 212/69/49 216/75/53 221/73/53
f 212/69/5 217/70/5 224/76/54 216/75/54
f 217/70/50 218/71/50 220/77/55 224/76/55
f 218/71/51 219/72/51 226/78/56 220/77/56
f 226/74/52 221/73/52 222/79/57 223/80/57
f 221/73/53 216/75/53 228/81/58 222/79/58
f 216/75/54 224/76/54 225/82/59 228/81/59
f 224/76/55 220/77/55 231/83/60 225/82/60
f 220/77/56 226/78/56 223/84/61 231/83/61
f 223/80/57 222/79/57 232/85/62 227/86/62
f 222/79/58 228/81/58 229/87/63 232/85/63
f 228/81/59 225/82/59 236/88/64 229/87/64
f 225/82/60 231/83/60 230/89/65 236/88/65
f 231/83/61 223/84/61 227/90/66 230/89/66
f 227/86/62 232/85/62 235/91/67 233/92/67
f 232/85/63 229/87/63 234/93/68 235/91/68
f 229/87/64 236/88/64 239/94/69 234/93/69
f 236/88/65 230/89/65 240/95/70 239/94/70
f 230/89/66 227/90/66 233/96/71 240/95/71
f 233/92/67 235/91/67 242/97/72 241/98/72
f 235/91/68 234/93/68 238/99/73 242/97/73
f 234/93/69 239/94/69 237/100/74 238/99/74
f 239/94/70 240/95/70 246/101/75 237/100/75
f 240/95/71 233/96/71 241/102/76 246/101/76
f 241/98/72 242/97/72 243/103/77 248/104/77
f 242/97/73 238/99/73 244/105/78 243/103/78
f 238/99/74 237/100/74 245/106/79 244/105/79
f 237/100/75 246/101/75 247/107/80 245/106/80
f 246/101/76 241/102/76 248/108/81 247/107/81
f 248/104/77 243/103/77 249/109/82 251/110/82
f 243/103/78 244/105/78 252/111/83 249/109/83
f 244/105/79 245/106/79 254/112/84 252/111/84
f 245/106/80 247/107/80 250/113/85 254/112/85
f 247/107/81 248/108/81 251/114/86 250/113/86
f 251/110/82 249/109/82 176/115/9 181/116/9
f 249/109/83 252/111/83 253/117/11 176/115/11
f 252/111/84 254/112/84 179/118/2 253/117/2
f 254/112/85 250/113/85 255/119/14 179/118/14
f 250/113/86 251/114/86 181/120/16 255/119/16
f 335/19/9 256/20/9 257/21/10 259/22/10
f 256/20/11 332/23/11 260/24/12 257/21/12
f 332/23/2 258/25/2 261/26/13 260/24/13
f 258/25/14 333/27/14 263/28/15 261/26/15
f 333/27/16 335/29/16 259/30/17 263/28/17
f 259/22/10 257/21/10 265/31/18 264/32/18
f 257/21/12 260/24/12 266/33/19 265/31/19
f 260/24/13 261/26/13 262/34/20 266/33/20
f 261/26/15 263/28/15 269/35/21 262/34/21
f 263/28/17 259/30/17 264/36/22 269/35/22
f 264/32/18 265/31/18 267/37/23 270/38/23
f 265/31/19 266/33/19 272/39/24 267/37/24
f 266/33/20 262/34/20 268/40/25 272/39/25
f 262/34/21 269/35/21 274/41/26 268/40/26
f 269/35/22 264/36/22 270/42/27 274/41/27
f 270/38/23 267/37/23 271/43/28 275/44/28
f 267/37/24 272/39/24 277/45/29 271/43/29
f 272/39/25 268/40/25 278/46/30 277/45/30
f 268/40/26 274/41/26 273/47/31 278/46/31
f 274/41/27 270/42/27 275/48/32 273/47/32
f 275/44/28 271/43/28 282/49/33 276/50/33
f 271/43/29 277/45/29 283/51/34 282/49/34
f 277/45/30 278/46/30 279/52/35 283/51/35
f 278/46/31 273/47/31 280/53/36 279/52/36
f 273/47/32 275/48/32 276/54/37 280/53/37
f 276/50/33 282/49/33 285/55/38 281/56/38
f 282/49/34 283/51/34 288/57/39 285/55/39
f 283/51/35 279/52/35 289/58/40 288/57/40
f 279/52/36 280/53/36 284/59/41 289/58/41
f 280/53/37 276/54/37 281/60/42 284/59/42
f 281/56/38 285/55/38 287/61/43 286/62/43
f 285/55/39 288/57/39 290/63/44 287/61/44
f 288/57/40 289/58/40 291/64/45 290/63/45
f 289/58/41 284/59/41 292/65/46 291/64/46
f 284/59/42 281/60/42 286/66/47 292/65/47
f 286/62/43 287/61/43 293/67/48 296/68/48
f 287/61/44 290/63/44 294/69/49 293/67/49
f 290/63/45 291/64/45 295/70/5 294/69/5
f 291/64/46 292/65/46 301/71/50 295/70/50
f 292/65/47 286/66/47 296/72/51 301/71/51
f 296/68/48 293/67/48 298/73/52 297/74/52
f 293/67/49 294/69/49 299/75/53 298/73/53
f 294/69/5 295/70/5 300/76/54 299/75/54
f 295/70/50 301/71/50 304/77/55 300/76/55
f 301/71/51 296/72/51 297/78/56 304/77/56
f 297/74/52 298/73/52 307/79/57 302/80/57
f 298/73/53 299/75/53 303/81/58 307/79/58
f 299/75/54 300/76/54 309/82/59 303/81/59
f 300/76/55 304/77/55 305/83/60 309/82/60
f 304/77/56 297/78/56 302/84/61 305/83/61
f 302/80/57 307/79/57 306/85/62 315/86/62
f 307/79/58 303/81/58 308/87/63 306/85/63
f 303/81/59 309/82/59 313/88/64 308/87/64
f 309/82/60 305/83/60 314/89/65 313/88/65
f 305/83/61 302/84/61 315/90/66 314/89/66
f 315/86/62 306/85/62 310/91/67 317/92/67
f 306/85/63 308/87/63 312/93/68 310/91/68
f 308/87/64 313/88/64 311/94/69 312/93/69
f 313/88/65 314/89/65 316/95/70 311/94/70
f 314/89/66 315/90/66 317/96/71 316/95/71
f 317/92/67 310/91/67 318/97/72 319/98/72
f 310/91/68 312/93/68 320/99/73 318/97/73
f 312/93/69 311/94/69 321/100/74 320/99/74
f 311/94/70 316/95/70 323/101/75 321/100/75
f 316/95/71 317/96/71 319/102/76 323/101/76
f 319/98/72 318/97/72 326/103/77 329/104/77
f 318/97/73 320/99/73 322/105/78 326/103/78
f 320/99/74 321/100/74 324/106/79 322/105/79
f 321/100/75 323/101/75 325/107/80 324/106/80
f 323/101/76 319/102/76 329/108/81 325/107/81
f 329/104/77 326/103/77 330/109/82 334/110/82
f 326/103/78 322/105/78 327/111/83 330/109/83
f 322/105/79 324/106/79 331/112/84 327/111/84
f 324/106/80 325/107/80 328/113/85 331/112/85
f 325/107/81 329/108/81 334/114/86 328/113/86
f 334/110/82 330/109/82 256/115/9 335/116/9
f 330/109/83 327/111/83 332/117/11 256/115/11
f 327/111/84 331/112/84 258/118/2 332/117/2
f 331/112/85 328/113/85 333/119/14 258/118/14
f 328/113/86 334/114/86 335/120/16 333/119/16
f 415/19/9 336/20/9 340/21/10 337/22/10
f 336/20/11 413/23/11 341/24/12 340/21/12
f 413/23/2 414/25/2 339/26/13 341/24/13
f 414/25/14 338/27/14 343/28/15 339/26/15
f 338/27/16 415/29/16 337/30/17 343/28/17
f 337/22/10 340/21/10 346/31/18 345/32/18
f 340/21/12 341/24/12 349/33/19 346/31/19
f 341/24/13 339/26/13 342/34/20 349/33/20
f 339/26/15 343/28/15 344/35/21 342/34/21
f 343/28/17 337/30/17 345/36/22 344/35/22
f 345/32/18 346/31/18 347/37/23 353/38/23
f 346/31/19 349/33/19 348/39/24 347/37/24
f 349/33/20 342/34/20 350/40/25 348/39/25
f 342/34/21 344/35/21 351/41/26 350/40/26
f 344/35/22 345/36/22 353/42/27 351/41/27
f 353/38/23 347/37/23 355/43/28 354/44/28
f 347/37/24 348/39/24 356/45/29 355/43/29
f 348/39/25 350/40/25 352/46/30 356/45/30
f 350/40/26 351/41/26 358/47/31 352/46/31
f 351/41/27 353/42/27 354/48/32 358/47/32
f 354/44/28 355/43/28 360/49/33 359/50/33
f 355/43/29 356/45/29 357/51/34 360/49/34
f 356/45/30 352/46/30 363/52/35 357/51/35
f 352/46/31 358/47/31 364/53/36 363/52/36
f 358/47/32 354/48/32 359/54/37 364/53/37
f 359/50/33 360/49/33 361/55/38 366/56/38
f 360/49/34 357/51/34 362/57/39 361/55/39
f 357/51/35 363/52/35 370/58/40 362/57/40
f 363/52/36 364/53/36 365/59/41 370/58/41
f 364/53/37 359/54/37 366/60/42 365/59/42
f 366/56/38 361/55/38 368/61/43 367/62/43
f 361/55/39 362/57/39 369/63/44 368/61/44
f 362/57/40 370/58/40 373/64/45 369/63/45
f 370/58/41 365/59/41 374/65/46 373/64/46
f 365/59/42 366/60/42 367/66/47 374/65/47
f 367/62/43 368/61/43 377/67/48 376/68/48
f 368/61/44 369/63/44 371/69/49 377/67/49
f 369/63/45 373/64/45 372/70/5 371/69/5
f 373/64/46 374/65/46 375/71/50 372/70/50
f 374/65/47 367/66/47 376/72/51 375/71/51
f 376/68/48 377/67/48 378/73/52 382/74/52
f 377/67/49 371/69/49 379/75/53 378/73/53
f 371/69/5 372/70/5 380/76/54 379/75/54
f 372/70/50 375/71/50 381/77/55 380/76/55
f 375/71/51 376/72/51 382/78/56 381/77/56
f 382/74/52 378/73/52 384/79/57 383/80/57
f 378/73/53 379/75/53 386/81/58 384/79/58
f 379/75/54 380/76/54 387/82/59 386/81/59
f 380/76/55 381/77/55 388/83/60 387/82/60
f 381/77/56 382/78/56 383/84/61 388/83/61
f 383/80/57 384/79/57 385/85/62 394/86/62
f 384/79/58 386/81/58 389/87/63 385/85/63
f 386/81/59 387/82/59 392/88/64 389/87/64
f 387/82/60 388/83/60 393/89/65 392/88/65
f 388/83/61 383/84/61 394/90/66 393/89/66
f 394/86/62 385/85/62 390/91/67 395/92/67
f 385/85/63 389/87/63 391/93/68 390/91/68
f 389/87/64 392/88/64 397/94/69 391/93/69
f 392/88/65 393/89/65 398/95/70 397/94/70
f 393/89/66 394/90/66 395/96/71 398/95/71
f 395/92/67 390/91/67 396/97/72 399/98/72
f 390/91/68 391/93/68 400/99/73 396/97/73
f 391/93/69 397/94/69 401/100/74 400/99/74
f 397/94/70 398/95/70 402/101/75 401/100/75
f 398/95/71 395/96/71 399/102/76 402/101/76
f 399/98/72 396/97/72 404/103/77 403/104/77
f 396/97/73 400/99/73 406/105/78 404/103/78
f 400/99/74 401/100/74 408/106/79 406/105/79
f 401/100/75 402/101/75 410/107/80 408/106/80
f 402/101/76 399/102/76 403/108/81 410/107/81
f 403/104/77 404/103/77 412/109/82 405/110/82
f 404/103/78 406/105/78 407/111/83 412/109/83
f 406/105/79 408/106/79 409/112/84 407/111/84
f 408/106/80 410/107/80 411/113/85 409/112/85
f 410/107/81 403/108/81 405/114/86 411/113/86
f 405/110/82 412/109/82 336/115/9 415/116/9
f 412/109/83 407/111/83 413/117/11 336/115/11
f 407/111/84 409/112/84 414/118/2 413/117/2
f 409/112/85 411/113/85 338/119/14 414/118/14
f 411/113/86 405/114/86 415/120/16 338/119/16
f 424/19/87 417/121/88 425/122/89 416/123/90
f 417/121/88 35/124/91 426/125/92 425/122/89
f 35/124/91 447/126/93 427/127/94 426/125/92
f 447/126/93 446/128/95 418/129/96 427/127/94
f 446/128/95 419/130/97 421/131/98 418/129/96
f 419/130/97 420/132/99 423/133/100 421/131/98
f 420/132/99 445/134/101 422/135/102 423/133/100
f 445/134/101 424/29/87 416/136/90 422/135/102
f 416/123/90 425/122/89 431/137/103 429/138/104
f 425/122/89 426/125/92 434/139/105 431/137/103
f 426/125/92 427/127/94 435/140/106 434/139/105
f 427/127/94 418/129/96 437/141/107 435/140/106
f 418/129/96 421/131/98 439/142/108 437/141/107
f 421/131/98 423/133/100 428/143/109 439/142/108
f 423/133/100 422/135/102 430/144/110 428/143/109
f 422/135/102 416/136/90 429/145/104 430/144/110
f 429/138/104 431/137/103 432/146/111 433/147/112
f 431/137/103 434/139/105 436/148/113 432/146/111
f 434/139/105 435/140/106 438/149/114 436/148/113
f 435/140/106 437/141/107 440/150/115 438/149/114
f 437/141/107 439/142/108 441/151/116 440/150/115
f 439/142/108 428/143/109 443/152/117 441/151/116
f 428/143/109 430/144/110 444/153/118 443/152/117
f 430/144/110 429/145/104 433/154/112 444/153/118
f 433/147/112 432/146/111 442/155/8
f 432/146/111 436/148/113 442/156/8
f 436/148/113 438/149/114 442/157/8
f 438/149/114 440/150/115 442/158/8
f 440/150/115 441/151/116 442/159/8
f 441/151/116 443/152/117 442/160/8
f 443/152/117 444/153/118 442/161/8
f 444/153/118 433/154/112 442/162/8
s 0
f 445/163/7 420/164/7 419/165/7 446/68/7 447/166/7 35/128/7 417/167/7 424/72/7
s 1
f 450/168/59 455/169/59 452/170/59 451/171/59
f 455/169/79 448/172/79 453/173/79 452/170/79
f 448/172/20 449/174/20 454/175/20 453/173/20
f 449/174/40 450/176/40 451/177/40 454/175/40
s 0
f 451/178/8 452/173/8 453/179/8 454/172/8
f 449/173/7 448/179/7 455/172/7 450/178/7
f 459/180/119 457/181/119 460/182/119
f 461/183/120 458/180/120 456/181/120
f 457/184/7 459/180/7 456/185/7 458/186/7
f 460/187/121 457/184/121 458/186/121 461/188/121
f 459/189/122 460/187/122 461/188/122 456/190/122
f 462/180/123 465/181/123 463/182/123
f 466/183/124 464/180/124 467/181/124
f 465/184/7 462/180/7 467/185/7 464/186/7
f 463/187/125 465/184/125 464/186/125 466/188/125
f 462/189/126 463/187/126 466/188/126 467/190/126
f 472/180/127 468/181/127 470/182/127
f 471/183/128 469/180/128 473/181/128
f 468/184/7 472/180/7 473/185/7 469/186/7
f 470/187/129 468/184/129 469/186/129 471/188/129
f 472/189/130 470/187/130 471/188/130 473/190/130
s 1
f 485/168/5 489/191/59 486/192/59 474/171/5
f 489/191/59 488/169/69 487/170/69 486/192/59
f 488/169/69 476/193/79 475/194/79 487/170/69
f 476/193/79 478/172/2 477/173/2 475/194/79
f 478/172/2 480/195/20 479/196/20 477/173/2
f 480/195/20 481/174/30 482/175/30 479/196/20
f 481/174/30 484/197/40 483/198/40 482/175/30
f 484/197/40 485/176/5 474/177/5 483/198/40
s 0
f 474/199/8 486/200/8 487/201/8 475/202/8 477/203/8 479/204/8 482/205/8 483/206/8
f 484/207/7 481/173/7 480/208/7 478/179/7 476/209/7 488/172/7 489/210/7 485/178/7
s 1
f 505/168/5 504/191/59 492/192/59 490/171/5
f 504/191/59 503/169/69 491/170/69 492/192/59
f 503/169/69 493/193/79 499/194/79 491/170/69
f 493/193/79 494/172/2 495/173/2 499/194/79
f 494/172/2 502/195/20 497/196/20 495/173/2
f 502/195/20 501/174/30 496/175/30 497/196/20
f 501/174/30 498/197/40 500/198/40 496/175/30
f 498/197/40 505/176/5 490/177/5 500/198/40
s 0
f 490/199/8 492/200/8 491/201/8 499/202/8 495/203/8 497/204/8 496/205/8 500/206/8
f 498/207/7 501/173/7 502/208/7 494/179/7 493/209/7 503/172/7 504/210/7 505/178/7
f 515/180/131 514/211/131 506/212/131 513/182/131
f 514/211/7 507/213/7 516/214/7 506/212/7
f 507/213/132 508/181/132 510/183/132 516/214/132
f 508/181/133 509/215/133 517/216/133 510/183/133
f 509/215/8 511/217/8 512/218/8 517/216/8
f 511/217/134 515/189/134 513/219/134 512/218/134
f 511/220/2 509/221/2 508/222/2 507/223/2 514/224/2 515/225/2
f 513/222/5 506/223/5 516/224/5 510/225/5 517/220/5 512/221/5
f 526/180/131 518/211/131 519/212/131 527/182/131
f 518/211/7 520/213/7 522/214/7 519/212/7
f 520/213/132 521/181/132 529/183/132 522/214/132
f 521/181/133 523/215/133 524/216/133 529/183/133
f 523/215/8 525/217/8 528/218/8 524/216/8
f 525/217/134 526/189/134 527/219/134 528/218/134
f 525/220/2 523/221/2 521/222/2 520/223/2 518/224/2 526/225/2
f 527/222/5 519/223/5 522/224/5 529/225/5 524/220/5 528/221/5
f 530/180/131 532/211/131 534/212/131 531/182/131
f 532/211/7 533/213/7 536/214/7 534/212/7
f 533/213/132 537/181/132 535/183/132 536/214/132
f 537/181/133 538/215/133 540/216/133 535/183/133
f 538/215/8 541/217/8 539/218/8 540/216/8
f 541/217/134 530/189/134 531/219/134 539/218/134
f 541/220/2 538/221/2 537/222/2 533/223/2 532/224/2 530/225/2
f 531/222/5 534/223/5 536/224/5 535/225/5 540/220/5 539/221/5
f 550/180/131 542/211/131 552/212/131 551/182/131
f 542/211/7 549/213/7 543/214/7 552/212/7
f 549/213/132 544/181/132 545/183/132 543/214/132
f 544/181/133 548/215/133 553/216/133 545/183/133
f 548/215/8 546/217/8 547/218/8 553/216/8
f 546/217/134 550/189/134 551/219/134 547/218/134
f 546/220/2 548/221/2 544/222/2 549/223/2 542/224/2 550/225/2
f 551/222/5 552/223/5 543/224/5 545/225/5 553/220/5 547/221/5
f 564/180/131 556/211/131 554/212/131 555/182/131
f 556/211/7 563/213/7 558/214/7 554/212/7
f 563/213/132 562/181/132 557/183/132 558/214/132
f 562/181/133 561/215/133 565/216/133 557/183/133
f 561/215/8 559/217/8 560/218/8 565/216/8
f 559/217/134 564/189/134 555/219/134 560/218/134
f 559/220/2 561/221/2 562/222/2 563/223/2 556/224/2 564/225/2
f 555/222/5 554/223/5 558/224/5 557/225/5 565/220/5 560/221/5
f 574/180/131 577/211/131 566/212/131 575/182/131
f 577/211/7 567/213/7 568/214/7 566/212/7
f 567/213/132 569/181/132 570/183/132 568/214/132
f 569/181/133 576/215/133 573/216/133 570/183/133
f 576/215/8 571/217/8 572/218/8 573/216/8
f 571/217/134 574/189/134 575/219/134 572/218/134
f 571/220/2 576/221/2 569/222/2 567/223/2 577/224/2 574/225/2
f 575/222/5 566/223/5 568/224/5 570/225/5 573/220/5 572/221/5
f 588/180/131 578/211/131 579/212/131 585/182/131
f 578/211/7 587/213/7 589/214/7 579/212/7
f 587/213/132 580/181/132 581/183/132 589/214/132
f 580/181/133 586/215/133 584/216/133 581/183/133
f 586/215/8 582/217/8 583/218/8 584/216/8
f 582/217/134 588/189/134 585/219/134 583/218/134
f 582/220/2 586/221/2 580/222/2 587/223/2 578/224/2 588/225/2
f 585/222/5 579/223/5 589/224/5 581/225/5 584/220/5 583/221/5
f 590/180/131 591/211/131 599/212/131 598/182/131
f 591/211/7 592/213/7 594/214/7 599/212/7
f 592/213/132 593/181/132 596/183/132 594/214/132
f 593/181/133 595/215/133 600/216/133 596/183/133
f 595/215/8 597/217/8 601/218/8 600/216/8
f 597/217/134 590/189/134 598/219/134 601/218/134
f 597/220/2 595/221/2 593/222/2 592/223/2 591/224/2 590/225/2
f 598/222/5 599/223/5 594/224/5 596/225/5 600/220/5 601/221/5
f 612/180/1 602/211/1 603/212/1 604/182/1
f 602/211/2 605/213/2 608/214/2 603/212/2
f 605/213/3 606/181/3 607/183/3 608/214/3
f 606/181/4 609/215/4 610/216/4 607/183/4
f 609/215/5 611/217/5 613/218/5 610/216/5
f 611/217/6 612/189/6 604/219/6 613/218/6
f 611/226/7 609/227/7 606/183/7 605/228/7 602/229/7 612/181/7
f 604/183/8 603/228/8 608/229/8 607/181/8 610/226/8 613/227/8
f 614/180/1 615/211/1 617/212/1 622/182/1
f 615/211/2 618/213/2 616/214/2 617/212/2
f 618/213/3 621/181/3 623/183/3 616/214/3
f 621/181/4 619/215/4 624/216/4 623/183/4
f 619/215/5 620/217/5 625/218/5 624/216/5
f 620/217/6 614/189/6 622/219/6 625/218/6
f 620/226/7 619/227/7 621/183/7 618/228/7 615/229/7 614/181/7
f 622/183/8 617/228/8 616/229/8 623/181/8 624/226/8 625/227/8
