# Blender 4.5.14 LTS
# www.blender.org
mtllib sign_entrance.mtl
o sign_entrance
v -0.300000 2.680000 0.060000 0.9255 0.9255 0.9255
v 0.300000 2.680000 0.060000 0.9255 0.9255 0.9255
v -0.300000 2.920000 0.000000 0.8000 0.8000 0.8000
v -0.300000 2.680000 0.000000 0.8000 0.8000 0.8000
v -0.300000 2.920000 0.060000 0.9255 0.9255 0.9255
v 0.300000 2.920000 0.060000 0.9255 0.9255 0.9255
v 0.300000 2.920000 0.000000 0.7960 0.7960 0.7960
v 0.300000 2.680000 0.000000 0.7960 0.7960 0.7960
vn -0.0000 -0.0000 1.0000
vn -0.0000 -0.0000 -1.0000
vn -1.0000 -0.0000 -0.0000
vn 1.0000 -0.0000 -0.0000
vn -0.0000 1.0000 -0.0000
vn -0.0000 -1.0000 -0.0000
vt 0.468994 0.926025
vt 0.497803 0.926025
vt 0.497803 0.937256
vt 0.468994 0.937256
vt 0.422119 0.922119
vt 0.437256 0.922119
vt 0.437256 0.928174
vt 0.422119 0.928174
vt 0.425752 0.922119
vt 0.425752 0.936650
vt 0.422119 0.936650
vt 0.437256 0.923633
vt 0.422119 0.923633
s 0
usemtl props
f 1/1/1 2/2/1 6/3/1 5/4/1
f 8/5/2 4/6/2 3/7/2 7/8/2
f 4/5/3 1/9/3 5/10/3 3/11/3
f 2/5/4 8/9/4 7/10/4 6/11/4
f 5/5/5 6/6/5 7/12/5 3/13/5
f 4/5/6 8/6/6 2/12/6 1/13/6
