# Blender 4.5.14 LTS
# www.blender.org
mtllib wall_panel_graffiti.mtl
o wall_panel_graffiti
v -1.000000 0.000000 0.100000 0.8470 0.8470 0.8470
v 0.000000 0.000000 0.100000 0.8470 0.8470 0.8470
v -1.000000 0.000000 -0.100000 0.8509 0.8509 0.8509
v -1.000000 1.000000 0.100000 1.0000 1.0000 1.0000
v -1.000000 1.000000 -0.100000 1.0000 1.0000 1.0000
v -1.000000 2.000000 0.100000 1.0000 1.0000 1.0000
v -1.000000 3.000000 0.100000 1.0000 1.0000 1.0000
v -1.000000 3.000000 -0.100000 1.0000 1.0000 1.0000
v -1.000000 2.000000 -0.100000 1.0000 1.0000 1.0000
v 1.000000 0.000000 0.100000 0.8470 0.8470 0.8470
v 0.000000 1.000000 -0.100000 1.0000 1.0000 1.0000
v 1.000000 0.000000 -0.100000 0.8509 0.8509 0.8509
v 0.000000 0.000000 -0.100000 0.8509 0.8509 0.8509
v 0.000000 1.000000 0.100000 1.0000 1.0000 1.0000
v 1.000000 1.000000 0.100000 1.0000 1.0000 1.0000
v 1.000000 1.000000 -0.100000 1.0000 1.0000 1.0000
v 0.000000 2.000000 0.100000 1.0000 1.0000 1.0000
v 1.000000 2.000000 0.100000 1.0000 1.0000 1.0000
v 0.000000 3.000000 -0.100000 1.0000 1.0000 1.0000
v 1.000000 2.000000 -0.100000 1.0000 1.0000 1.0000
v 0.000000 2.000000 -0.100000 1.0000 1.0000 1.0000
v 0.000000 3.000000 0.100000 1.0000 1.0000 1.0000
v 1.000000 3.000000 0.100000 1.0000 1.0000 1.0000
v 1.000000 3.000000 -0.100000 1.0000 1.0000 1.0000
vn -0.0000 -0.0000 1.0000
vn -0.0000 -0.0000 -1.0000
vn -0.0000 1.0000 -0.0000
vt 0.250244 0.937744
vt 0.312256 0.937744
vt 0.312256 0.999756
vt 0.250244 0.999756
vt 0.999756 0.999756
vt 0.937744 0.999756
vt 0.937744 0.937744
vt 0.999756 0.937744
vt 0.375244 0.937744
vt 0.437256 0.937744
vt 0.437256 0.999756
vt 0.375244 0.999756
vt 0.625244 0.937744
vt 0.687256 0.937744
vt 0.687256 0.999756
vt 0.625244 0.999756
vt 0.312744 0.937744
vt 0.374756 0.937744
vt 0.374756 0.999756
vt 0.312744 0.999756
vt 0.437744 0.937744
vt 0.499756 0.937744
vt 0.499756 0.999756
vt 0.437744 0.999756
vt 0.687744 0.937744
vt 0.749756 0.937744
vt 0.749756 0.999756
vt 0.687744 0.999756
vt 0.687256 0.950146
vt 0.625244 0.950146
s 0
usemtl props
f 1/1/1 2/2/1 14/3/1 4/4/1
f 5/5/2 11/6/2 13/7/2 3/8/2
f 4/9/1 14/10/1 17/11/1 6/12/1
f 9/5/2 21/6/2 11/7/2 5/8/2
f 6/13/1 17/14/1 22/15/1 7/16/1
f 8/5/2 19/6/2 21/7/2 9/8/2
f 2/17/1 10/18/1 15/19/1 14/20/1
f 11/5/2 16/6/2 12/7/2 13/8/2
f 14/21/1 15/22/1 18/23/1 17/24/1
f 21/5/2 20/6/2 16/7/2 11/8/2
f 17/25/1 18/26/1 23/27/1 22/28/1
f 19/5/2 24/6/2 20/7/2 21/8/2
f 7/13/3 22/14/3 19/29/3 8/30/3
f 22/13/3 23/14/3 24/29/3 19/30/3
