# Blender 4.5.14 LTS
# www.blender.org
mtllib wall_window_panel.mtl
o wall_window_panel
v -1.000000 0.000000 0.100000 0.8470 0.8470 0.8470
v -0.700000 0.000000 0.100000 0.8470 0.8470 0.8470
v -0.700000 1.000000 0.100000 0.9725 0.9725 0.9725
v -0.700000 0.000000 -0.100000 0.8509 0.8509 0.8509
v -1.000000 0.000000 -0.100000 0.8509 0.8509 0.8509
v -1.000000 1.000000 0.100000 1.0000 1.0000 1.0000
v -1.000000 1.000000 -0.100000 1.0000 1.0000 1.0000
v -1.000000 2.000000 0.100000 1.0000 1.0000 1.0000
v -0.700000 3.000000 0.100000 1.0000 1.0000 1.0000
v -1.000000 3.000000 0.100000 1.0000 1.0000 1.0000
v -1.000000 3.000000 -0.100000 1.0000 1.0000 1.0000
v -1.000000 2.000000 -0.100000 1.0000 1.0000 1.0000
v -0.700000 3.000000 -0.100000 1.0000 1.0000 1.0000
v -0.700000 0.850000 0.100000 0.8745 0.8745 0.8745
v -0.700000 0.850000 -0.100000 0.8706 0.8706 0.8706
v -0.700000 1.000000 -0.100000 0.9725 0.9725 0.9725
v -0.700000 2.000000 0.100000 0.9882 0.9882 0.9882
v -0.700000 2.000000 -0.100000 0.9882 0.9882 0.9882
v -0.700000 2.350000 -0.100000 0.8902 0.8902 0.8902
v -0.700000 2.350000 0.100000 0.8902 0.8902 0.8902
vn -0.0000 -0.0000 1.0000
vn -0.0000 -0.0000 -1.0000
vn -0.0000 1.0000 -0.0000
vn 1.0000 -0.0000 -0.0000
vt 0.250244 0.937744
vt 0.268848 0.937744
vt 0.268848 0.999756
vt 0.250244 0.999756
vt 0.999756 0.999756
vt 0.981152 0.999756
vt 0.981152 0.937744
vt 0.999756 0.937744
vt 0.500244 0.937744
vt 0.518848 0.937744
vt 0.518848 0.999756
vt 0.500244 0.999756
vt 0.625244 0.937744
vt 0.643848 0.937744
vt 0.643848 0.999756
vt 0.625244 0.999756
vt 0.643848 0.950146
vt 0.625244 0.950146
vt 0.250244 0.990454
vt 0.262646 0.990454
vt 0.262646 0.999756
vt 0.512646 0.937744
vt 0.512646 0.999756
vt 0.637646 0.937744
vt 0.637646 0.959448
vt 0.625244 0.959448
s 0
usemtl props
f 1/1/1 2/2/1 3/3/1 6/4/1
f 7/5/2 16/6/2 4/7/2 5/8/2
f 6/9/1 3/10/1 17/11/1 8/12/1
f 12/5/2 18/6/2 16/7/2 7/8/2
f 8/13/1 17/14/1 9/15/1 10/16/1
f 11/5/2 13/6/2 18/7/2 12/8/2
f 10/13/3 9/14/3 13/17/3 11/18/3
f 14/19/4 15/20/4 16/21/4 3/4/4
f 3/9/4 16/22/4 18/23/4 17/12/4
f 17/13/4 18/24/4 19/25/4 20/26/4
o wall_window_panel_1
v -0.700000 0.000000 0.100000 0.8470 0.8470 0.8470
v -0.700000 0.000000 -0.100000 0.8509 0.8509 0.8509
v 0.000000 0.000000 0.100000 0.8470 0.8470 0.8470
v 0.700000 0.000000 0.100000 0.8470 0.8470 0.8470
v 0.700000 0.850000 0.100000 0.9490 0.9490 0.9490
v 0.000000 0.850000 -0.100000 1.0000 1.0000 1.0000
v 0.700000 0.000000 -0.100000 0.8509 0.8509 0.8509
v 0.000000 0.000000 -0.100000 0.8509 0.8509 0.8509
v -0.700000 0.850000 0.100000 0.9490 0.9490 0.9490
v -0.700000 0.850000 -0.100000 0.9529 0.9529 0.9529
v 0.000000 0.850000 0.100000 1.0000 1.0000 1.0000
v 0.700000 0.850000 -0.100000 0.9490 0.9490 0.9490
vn -0.0000 -0.0000 1.0000
vn -0.0000 -0.0000 -1.0000
vn -0.0000 1.0000 -0.0000
vt 0.268848 0.937744
vt 0.312256 0.937744
vt 0.312256 0.990454
vt 0.268848 0.990454
vt 0.981152 0.990454
vt 0.937744 0.990454
vt 0.937744 0.937744
vt 0.981152 0.937744
vt 0.312744 0.937744
vt 0.356152 0.937744
vt 0.356152 0.990454
vt 0.312744 0.990454
vt 0.999756 0.990454
vt 0.956348 0.990454
vt 0.956348 0.937744
vt 0.999756 0.937744
vt 0.643848 0.937744
vt 0.687256 0.937744
vt 0.687256 0.950146
vt 0.643848 0.950146
vt 0.625244 0.937744
vt 0.668652 0.937744
vt 0.668652 0.950146
vt 0.625244 0.950146
s 0
usemtl props
f 21/27/5 23/28/5 31/29/5 29/30/5
f 30/31/6 26/32/6 28/33/6 22/34/6
f 23/35/5 24/36/5 25/37/5 31/38/5
f 26/39/6 32/40/6 27/41/6 28/42/6
f 29/43/7 31/44/7 26/45/7 30/46/7
f 31/47/7 25/48/7 32/49/7 26/50/7
o wall_window_panel_2
v -0.700000 2.350000 0.100000 0.9529 0.9529 0.9529
v -0.700000 3.000000 0.100000 1.0000 1.0000 1.0000
v 0.700000 2.350000 0.100000 0.9529 0.9529 0.9529
v 0.700000 2.350000 -0.100000 0.9529 0.9529 0.9529
v -0.700000 3.000000 -0.100000 1.0000 1.0000 1.0000
v 0.000000 3.000000 0.100000 1.0000 1.0000 1.0000
v 0.700000 3.000000 0.100000 1.0000 1.0000 1.0000
v 0.700000 3.000000 -0.100000 1.0000 1.0000 1.0000
v 0.000000 3.000000 -0.100000 1.0000 1.0000 1.0000
v -0.700000 2.350000 -0.100000 0.9490 0.9490 0.9490
v 0.000000 2.350000 -0.100000 1.0000 1.0000 1.0000
v 0.000000 2.350000 0.100000 1.0000 1.0000 1.0000
vn -0.0000 -0.0000 1.0000
vn -0.0000 -0.0000 -1.0000
vn -0.0000 1.0000 -0.0000
vn -0.0000 -1.0000 -0.0000
vt 0.643848 0.959448
vt 0.687256 0.959448
vt 0.687256 0.999756
vt 0.643848 0.999756
vt 0.981152 0.999756
vt 0.937744 0.999756
vt 0.937744 0.959448
vt 0.981152 0.959448
vt 0.687744 0.959448
vt 0.731152 0.959448
vt 0.731152 0.999756
vt 0.687744 0.999756
vt 0.999756 0.999756
vt 0.956348 0.999756
vt 0.956348 0.959448
vt 0.999756 0.959448
vt 0.643848 0.937744
vt 0.687256 0.937744
vt 0.687256 0.950146
vt 0.643848 0.950146
vt 0.625244 0.937744
vt 0.668652 0.937744
vt 0.668652 0.950146
vt 0.625244 0.950146
s 0
usemtl props
f 33/51/8 44/52/8 38/53/8 34/54/8
f 37/55/9 41/56/9 43/57/9 42/58/9
f 44/59/8 35/60/8 39/61/8 38/62/8
f 41/63/9 40/64/9 36/65/9 43/66/9
f 34/67/10 38/68/10 41/69/10 37/70/10
f 38/71/10 39/72/10 40/73/10 41/74/10
f 42/70/11 43/69/11 44/68/11 33/67/11
f 43/74/11 36/73/11 35/72/11 44/71/11
o wall_window_panel_3
v 0.700000 0.000000 0.100000 0.8470 0.8470 0.8470
v 1.000000 0.000000 0.100000 0.8470 0.8470 0.8470
v 1.000000 1.000000 0.100000 1.0000 1.0000 1.0000
v 1.000000 0.000000 -0.100000 0.8509 0.8509 0.8509
v 0.700000 0.000000 -0.100000 0.8509 0.8509 0.8509
v 0.700000 1.000000 0.100000 0.9725 0.9725 0.9725
v 1.000000 2.000000 0.100000 1.0000 1.0000 1.0000
v 1.000000 1.000000 -0.100000 1.0000 1.0000 1.0000
v 1.000000 3.000000 0.100000 1.0000 1.0000 1.0000
v 0.700000 3.000000 -0.100000 1.0000 1.0000 1.0000
v 1.000000 3.000000 -0.100000 1.0000 1.0000 1.0000
v 1.000000 2.000000 -0.100000 1.0000 1.0000 1.0000
v 0.700000 2.000000 -0.100000 0.9882 0.9882 0.9882
v 0.700000 3.000000 0.100000 1.0000 1.0000 1.0000
v 0.700000 0.850000 -0.100000 0.8706 0.8706 0.8706
v 0.700000 0.850000 0.100000 0.8706 0.8706 0.8706
v 0.700000 1.000000 -0.100000 0.9725 0.9725 0.9725
v 0.700000 2.000000 0.100000 0.9921 0.9921 0.9921
v 0.700000 2.350000 0.100000 0.8980 0.8980 0.8980
v 0.700000 2.350000 -0.100000 0.8941 0.8941 0.8941
vn -0.0000 -0.0000 1.0000
vn -0.0000 -0.0000 -1.0000
vn -0.0000 1.0000 -0.0000
vn -1.0000 -0.0000 -0.0000
vt 0.356152 0.937744
vt 0.374756 0.937744
vt 0.374756 0.999756
vt 0.356152 0.999756
vt 0.956348 0.999756
vt 0.937744 0.999756
vt 0.937744 0.937744
vt 0.956348 0.937744
vt 0.606152 0.937744
vt 0.624756 0.937744
vt 0.624756 0.999756
vt 0.606152 0.999756
vt 0.731152 0.937744
vt 0.749756 0.937744
vt 0.749756 0.999756
vt 0.731152 0.999756
vt 0.668652 0.937744
vt 0.687256 0.937744
vt 0.687256 0.950146
vt 0.668652 0.950146
vt 0.937744 0.990454
vt 0.950146 0.990454
vt 0.950146 0.999756
vt 0.950146 0.937744
vt 0.950146 0.959448
vt 0.937744 0.959448
s 0
usemtl props
f 45/75/12 46/76/12 47/77/12 50/78/12
f 61/79/13 52/80/13 48/81/13 49/82/13
f 50/83/12 47/84/12 51/85/12 62/86/12
f 57/79/13 56/80/13 52/81/13 61/82/13
f 62/87/12 51/88/12 53/89/12 58/90/12
f 54/79/13 55/80/13 56/81/13 57/82/13
f 58/91/14 53/92/14 55/93/14 54/94/14
f 59/95/15 60/96/15 50/97/15 61/80/15
f 61/81/15 50/98/15 62/97/15 57/80/15
f 57/81/15 62/98/15 63/99/15 64/100/15
