# Blender 4.5.14 LTS
# www.blender.org
mtllib wall_doorway_panel.mtl
o wall_doorway_panel
v -1.000000 0.000000 0.100000 0.8470 0.8470 0.8470
v -0.500000 1.000000 0.100000 1.0000 1.0000 1.0000
v -1.000000 1.000000 0.100000 1.0000 1.0000 1.0000
v -1.000000 0.000000 -0.100000 0.8509 0.8509 0.8509
v -1.000000 2.000000 0.100000 1.0000 1.0000 1.0000
v -1.000000 1.000000 -0.100000 1.0000 1.0000 1.0000
v -0.500000 3.000000 0.100000 1.0000 1.0000 1.0000
v -1.000000 3.000000 0.100000 1.0000 1.0000 1.0000
v -1.000000 3.000000 -0.100000 1.0000 1.0000 1.0000
v -1.000000 2.000000 -0.100000 1.0000 1.0000 1.0000
v -0.500000 3.000000 -0.100000 1.0000 1.0000 1.0000
v -0.500000 0.000000 0.100000 0.8509 0.8509 0.8509
v -0.500000 0.000000 -0.100000 0.8509 0.8509 0.8509
v -0.500000 1.000000 -0.100000 1.0000 1.0000 1.0000
v -0.500000 2.000000 0.100000 0.9764 0.9764 0.9764
v -0.500000 2.000000 -0.100000 0.9804 0.9804 0.9804
v -0.500000 2.200000 -0.100000 0.8784 0.8784 0.8784
v -0.500000 2.200000 0.100000 0.8784 0.8784 0.8784
vn -0.0000 -0.0000 1.0000
vn -0.0000 -0.0000 -1.0000
vn -0.0000 1.0000 -0.0000
vn 1.0000 -0.0000 -0.0000
vt 0.250244 0.937744
vt 0.281250 0.937744
vt 0.281250 0.999756
vt 0.250244 0.999756
vt 0.937256 0.999756
vt 0.906250 0.999756
vt 0.906250 0.937744
vt 0.937256 0.937744
vt 0.500244 0.937744
vt 0.531250 0.937744
vt 0.531250 0.999756
vt 0.500244 0.999756
vt 0.874756 0.999756
vt 0.843750 0.999756
vt 0.843750 0.937744
vt 0.874756 0.937744
vt 0.625244 0.937744
vt 0.656250 0.937744
vt 0.656250 0.999756
vt 0.625244 0.999756
vt 0.062256 0.937256
vt 0.031250 0.937256
vt 0.031250 0.875244
vt 0.062256 0.875244
vt 0.656250 0.950146
vt 0.625244 0.950146
vt 0.262646 0.937744
vt 0.262646 0.999756
vt 0.512646 0.937744
vt 0.512646 0.999756
vt 0.637646 0.937744
vt 0.637646 0.950146
s 0
usemtl props
f 1/1/1 12/2/1 2/3/1 3/4/1
f 6/5/2 14/6/2 13/7/2 4/8/2
f 3/9/1 2/10/1 15/11/1 5/12/1
f 10/13/2 16/14/2 14/15/2 6/16/2
f 5/17/1 15/18/1 7/19/1 8/20/1
f 9/21/2 11/22/2 16/23/2 10/24/2
f 8/17/3 7/18/3 11/25/3 9/26/3
f 12/1/4 13/27/4 14/28/4 2/4/4
f 2/9/4 14/29/4 16/30/4 15/12/4
f 15/17/4 16/31/4 17/32/4 18/26/4
o wall_doorway_panel_1
v -0.500000 2.200000 0.100000 0.9490 0.9490 0.9490
v -0.500000 3.000000 0.100000 1.0000 1.0000 1.0000
v 0.500000 2.200000 0.100000 0.9490 0.9490 0.9490
v 0.500000 2.200000 -0.100000 0.9490 0.9490 0.9490
v -0.500000 3.000000 -0.100000 1.0000 1.0000 1.0000
v 0.000000 3.000000 0.100000 1.0000 1.0000 1.0000
v 0.500000 3.000000 0.100000 1.0000 1.0000 1.0000
v 0.500000 3.000000 -0.100000 1.0000 1.0000 1.0000
v 0.000000 3.000000 -0.100000 1.0000 1.0000 1.0000
v -0.500000 2.200000 -0.100000 0.9490 0.9490 0.9490
v 0.000000 2.200000 -0.100000 1.0000 1.0000 1.0000
v 0.000000 2.200000 0.100000 1.0000 1.0000 1.0000
vn -0.0000 -0.0000 1.0000
vn -0.0000 -0.0000 -1.0000
vn -0.0000 1.0000 -0.0000
vn -0.0000 -1.0000 -0.0000
vt 0.656250 0.950146
vt 0.687256 0.950146
vt 0.687256 0.999756
vt 0.656250 0.999756
vt 0.031250 0.937256
vt 0.000244 0.937256
vt 0.000244 0.887646
vt 0.031250 0.887646
vt 0.687744 0.950146
vt 0.718750 0.950146
vt 0.718750 0.999756
vt 0.687744 0.999756
vt 0.062256 0.937256
vt 0.062256 0.887646
vt 0.656250 0.937744
vt 0.687256 0.937744
vt 0.625244 0.937744
vt 0.625244 0.950146
s 0
usemtl props
f 19/33/5 30/34/5 24/35/5 20/36/5
f 23/37/6 27/38/6 29/39/6 28/40/6
f 30/41/5 21/42/5 25/43/5 24/44/5
f 27/45/6 26/37/6 22/40/6 29/46/6
f 20/47/7 24/48/7 27/34/7 23/33/7
f 24/49/7 25/47/7 26/33/7 27/50/7
f 28/33/8 29/34/8 30/48/8 19/47/8
f 29/50/8 22/33/8 21/47/8 30/49/8
o wall_doorway_panel_2
v 1.000000 0.000000 0.100000 0.8470 0.8470 0.8470
v 1.000000 1.000000 0.100000 1.0000 1.0000 1.0000
v 1.000000 0.000000 -0.100000 0.8509 0.8509 0.8509
v 0.500000 1.000000 0.100000 1.0000 1.0000 1.0000
v 1.000000 2.000000 0.100000 1.0000 1.0000 1.0000
v 1.000000 1.000000 -0.100000 1.0000 1.0000 1.0000
v 1.000000 3.000000 0.100000 1.0000 1.0000 1.0000
v 0.500000 3.000000 -0.100000 1.0000 1.0000 1.0000
v 1.000000 3.000000 -0.100000 1.0000 1.0000 1.0000
v 1.000000 2.000000 -0.100000 1.0000 1.0000 1.0000
v 0.500000 2.000000 -0.100000 0.9764 0.9764 0.9764
v 0.500000 3.000000 0.100000 1.0000 1.0000 1.0000
v 0.500000 0.000000 -0.100000 0.8470 0.8470 0.8470
v 0.500000 0.000000 0.100000 0.8470 0.8470 0.8470
v 0.500000 1.000000 -0.100000 1.0000 1.0000 1.0000
v 0.500000 2.000000 0.100000 0.9843 0.9843 0.9843
v 0.500000 2.200000 0.100000 0.8862 0.8862 0.8862
v 0.500000 2.200000 -0.100000 0.8784 0.8784 0.8784
vn -0.0000 -0.0000 1.0000
vn -0.0000 -0.0000 -1.0000
vn -0.0000 1.0000 -0.0000
vn -1.0000 -0.0000 -0.0000
vt 0.343750 0.937744
vt 0.374756 0.937744
vt 0.374756 0.999756
vt 0.343750 0.999756
vt 0.906250 0.999756
vt 0.875244 0.999756
vt 0.875244 0.937744
vt 0.906250 0.937744
vt 0.593750 0.937744
vt 0.624756 0.937744
vt 0.624756 0.999756
vt 0.593750 0.999756
vt 0.843750 0.999756
vt 0.812744 0.999756
vt 0.812744 0.937744
vt 0.843750 0.937744
vt 0.718750 0.937744
vt 0.749756 0.937744
vt 0.749756 0.999756
vt 0.718750 0.999756
vt 0.031250 0.937256
vt 0.000244 0.937256
vt 0.000244 0.875244
vt 0.031250 0.875244
vt 0.656250 0.937744
vt 0.687256 0.937744
vt 0.687256 0.950146
vt 0.656250 0.950146
vt 0.887646 0.937744
vt 0.887646 0.999756
vt 0.825146 0.937744
vt 0.825146 0.999756
vt 0.012646 0.875244
vt 0.012646 0.887646
vt 0.000244 0.887646
s 0
usemtl props
f 44/51/9 31/52/9 32/53/9 34/54/9
f 45/55/10 36/56/10 33/57/10 43/58/10
f 34/59/9 32/60/9 35/61/9 46/62/9
f 41/63/10 40/64/10 36/65/10 45/66/10
f 46/67/9 35/68/9 37/69/9 42/70/9
f 38/71/10 39/72/10 40/73/10 41/74/10
f 42/75/11 37/76/11 39/77/11 38/78/11
f 43/57/12 44/79/12 34/80/12 45/56/12
f 45/65/12 34/81/12 46/82/12 41/64/12
f 41/73/12 46/83/12 47/84/12 48/85/12
