# Blender 4.5.14 LTS
# www.blender.org
mtllib window_curtains.mtl
o window_curtains
v -0.760000 2.290000 0.120000 0.9764 0.9764 0.9764
v 0.760000 2.290000 0.120000 0.9725 0.9725 0.9725
v 0.760000 2.350000 0.120000 1.0000 1.0000 1.0000
v -0.760000 2.350000 0.120000 1.0000 1.0000 1.0000
v -0.760000 2.290000 -0.120000 0.9725 0.9725 0.9725
v 0.760000 2.290000 -0.120000 0.9725 0.9725 0.9725
v 0.760000 2.350000 -0.120000 1.0000 1.0000 1.0000
v -0.760000 2.350000 -0.120000 1.0000 1.0000 1.0000
v -0.760000 0.850000 0.050000 0.9725 0.9725 0.9725
v -0.760000 0.880000 0.050000 0.9255 0.9255 0.9255
v 0.760000 0.880000 0.050000 0.9294 0.9294 0.9294
v 0.760000 0.850000 0.250000 1.0000 1.0000 1.0000
v 0.760000 0.850000 0.050000 0.9725 0.9725 0.9725
v 0.760000 0.880000 0.250000 0.9843 0.9843 0.9843
v -0.760000 0.880000 0.250000 0.9843 0.9843 0.9843
v -0.760000 0.850000 0.250000 1.0000 1.0000 1.0000
v -0.740000 0.850000 -0.020000 0.9686 0.9686 0.9686
v -0.740000 0.890000 -0.020000 0.9058 0.9058 0.9058
v -0.740000 0.890000 -0.280000 0.9843 0.9843 0.9843
v -0.740000 0.850000 -0.280000 1.0000 1.0000 1.0000
v 0.740000 0.850000 -0.020000 0.9647 0.9647 0.9647
v 0.740000 0.890000 -0.020000 0.9098 0.9098 0.9098
v 0.740000 0.890000 -0.280000 0.9843 0.9843 0.9843
v 0.740000 0.850000 -0.280000 1.0000 1.0000 1.0000
v -0.640000 2.350000 0.120000 0.8980 0.8980 0.8980
v -0.640000 0.850000 -0.120000 0.8000 0.8000 0.8000
v -0.700000 0.850000 -0.120000 0.8000 0.8000 0.8000
v -0.700000 2.350000 -0.120000 0.8980 0.8980 0.8980
v -0.640000 2.350000 -0.120000 0.9019 0.9019 0.9019
v -0.700000 2.350000 0.120000 0.8980 0.8980 0.8980
v -0.640000 0.850000 0.120000 0.8000 0.8000 0.8000
v -0.700000 0.850000 0.120000 0.8000 0.8000 0.8000
v 0.700000 2.350000 -0.120000 0.8980 0.8980 0.8980
v 0.640000 0.850000 -0.120000 0.8000 0.8000 0.8000
v 0.640000 0.850000 0.120000 0.8000 0.8000 0.8000
v 0.640000 2.350000 -0.120000 0.8980 0.8980 0.8980
v 0.700000 0.850000 0.120000 0.8000 0.8000 0.8000
v 0.700000 0.850000 -0.120000 0.8000 0.8000 0.8000
v 0.640000 2.350000 0.120000 0.8980 0.8980 0.8980
v 0.700000 2.350000 0.120000 0.8980 0.8980 0.8980
v -0.640000 0.930000 -0.025000 0.7020 0.7020 0.7020
v -0.640000 0.930000 0.025000 0.7333 0.7333 0.7333
v -0.640000 2.270000 0.025000 0.7333 0.7333 0.7333
v -0.640000 2.320000 0.025000 0.7020 0.7020 0.7020
v -0.640000 2.270000 -0.025000 0.7020 0.7020 0.7020
v -0.640000 0.880000 0.025000 0.7686 0.7686 0.7686
v -0.590000 2.320000 0.025000 0.7020 0.7020 0.7020
v -0.590000 2.320000 -0.025000 0.7020 0.7020 0.7020
v -0.640000 2.320000 -0.025000 0.7020 0.7020 0.7020
v -0.640000 0.880000 -0.025000 0.7020 0.7020 0.7020
v -0.590000 0.880000 -0.025000 0.7020 0.7020 0.7020
v -0.590000 0.880000 0.025000 0.8117 0.8117 0.8117
v -0.050000 0.880000 0.025000 0.8274 0.8274 0.8274
v -0.050000 2.320000 0.025000 0.7020 0.7020 0.7020
v -0.050000 2.320000 -0.025000 0.7020 0.7020 0.7020
v -0.050000 0.880000 -0.025000 0.7020 0.7020 0.7020
v -0.640000 1.847900 -0.020000 0.7020 0.7020 0.7020
v -0.640000 1.847900 0.020000 0.7020 0.7020 0.7020
v -0.640000 1.812900 -0.020000 0.7020 0.7020 0.7020
v -0.640000 1.812900 0.020000 0.7020 0.7020 0.7020
v -0.302500 1.830400 0.020000 0.7960 0.7960 0.7960
v -0.302500 2.320000 0.020000 0.7020 0.7020 0.7020
v -0.337500 1.830400 -0.020000 0.7020 0.7020 0.7020
v -0.337500 1.830400 0.020000 0.7960 0.7960 0.7960
v -0.337500 2.320000 0.020000 0.7020 0.7020 0.7020
v -0.302500 1.830400 -0.020000 0.7020 0.7020 0.7020
v -0.302500 2.320000 -0.020000 0.7020 0.7020 0.7020
v -0.337500 2.320000 -0.020000 0.7020 0.7020 0.7020
v -0.600000 0.920000 0.000000 0.7020 0.7020 0.7020
v -0.040000 0.920000 0.000000 0.7020 0.7020 0.7020
v -0.040000 2.280000 0.000000 0.7020 0.7020 0.7020
v -0.600000 2.280000 0.000000 0.7020 0.7020 0.7020
v -0.040000 0.920000 -0.000200 0.7020 0.7020 0.7020
v -0.600000 0.920000 -0.000200 0.7020 0.7020 0.7020
v -0.600000 2.280000 -0.000200 0.7020 0.7020 0.7020
v -0.040000 2.280000 -0.000200 0.7020 0.7020 0.7020
v -0.640000 0.880000 -0.045000 0.7020 0.7020 0.7020
v -0.640000 0.930000 -0.045000 0.7020 0.7020 0.7020
v -0.640000 0.930000 -0.095000 0.7412 0.7412 0.7412
v -0.640000 0.880000 -0.095000 0.7137 0.7137 0.7137
v -0.640000 2.320000 -0.095000 0.7020 0.7020 0.7020
v -0.640000 2.270000 -0.095000 0.7529 0.7529 0.7529
v -0.640000 2.270000 -0.045000 0.7020 0.7020 0.7020
v -0.590000 2.320000 -0.045000 0.7020 0.7020 0.7020
v -0.640000 2.320000 -0.045000 0.7020 0.7020 0.7020
v -0.590000 0.880000 -0.095000 0.7490 0.7490 0.7490
v -0.590000 2.320000 -0.095000 0.7020 0.7020 0.7020
v -0.590000 0.880000 -0.045000 0.7020 0.7020 0.7020
v 0.000000 0.880000 -0.045000 0.7020 0.7020 0.7020
v -0.050000 2.320000 -0.095000 0.7020 0.7020 0.7020
v -0.050000 0.880000 -0.045000 0.7020 0.7020 0.7020
v -0.050000 2.320000 -0.045000 0.7020 0.7020 0.7020
v 0.000000 2.320000 -0.095000 0.7020 0.7020 0.7020
v -0.050000 0.880000 -0.095000 0.7490 0.7490 0.7490
v 0.000000 0.880000 -0.095000 0.7294 0.7294 0.7294
v 0.000000 1.812900 -0.050000 0.7020 0.7020 0.7020
v 0.000000 1.847900 -0.050000 0.7020 0.7020 0.7020
v -0.640000 1.847900 -0.050000 0.7020 0.7020 0.7020
v -0.640000 1.847900 -0.090000 0.7020 0.7020 0.7020
v 0.000000 1.847900 -0.090000 0.7020 0.7020 0.7020
v -0.640000 1.812900 -0.090000 0.7020 0.7020 0.7020
v -0.640000 1.812900 -0.050000 0.7020 0.7020 0.7020
v 0.000000 1.812900 -0.090000 0.7020 0.7020 0.7020
v -0.600000 0.920000 -0.070000 0.7020 0.7020 0.7020
v -0.040000 0.920000 -0.070000 0.7020 0.7020 0.7020
v -0.040000 2.280000 -0.070000 0.7020 0.7020 0.7020
v -0.600000 2.280000 -0.070000 0.7020 0.7020 0.7020
v -0.040000 0.920000 -0.070200 0.7020 0.7020 0.7020
v -0.600000 0.920000 -0.070200 0.7020 0.7020 0.7020
v -0.600000 2.280000 -0.070200 0.7020 0.7020 0.7020
v -0.040000 2.280000 -0.070200 0.7020 0.7020 0.7020
v 0.640000 0.880000 0.025000 0.7725 0.7725 0.7725
v 0.640000 0.880000 -0.025000 0.7020 0.7020 0.7020
v 0.000000 0.930000 0.025000 0.7686 0.7686 0.7686
v 0.640000 0.930000 -0.025000 0.7020 0.7020 0.7020
v 0.640000 0.930000 0.025000 0.7333 0.7333 0.7333
v 0.000000 0.930000 -0.025000 0.7020 0.7020 0.7020
v 0.000000 2.270000 0.025000 0.7686 0.7686 0.7686
v 0.000000 2.320000 0.025000 0.7020 0.7020 0.7020
v 0.000000 2.320000 -0.025000 0.7020 0.7020 0.7020
v 0.640000 2.320000 -0.025000 0.7020 0.7020 0.7020
v 0.000000 2.270000 -0.025000 0.7020 0.7020 0.7020
v 0.640000 2.270000 -0.025000 0.7020 0.7020 0.7020
v 0.640000 2.270000 0.025000 0.7333 0.7333 0.7333
v 0.050000 2.320000 0.025000 0.7020 0.7020 0.7020
v 0.000000 0.880000 -0.025000 0.7020 0.7020 0.7020
v 0.050000 2.320000 -0.025000 0.7020 0.7020 0.7020
v 0.000000 0.880000 0.025000 0.8509 0.8509 0.8509
v 0.050000 0.880000 -0.025000 0.7020 0.7020 0.7020
v 0.050000 0.880000 0.025000 0.8274 0.8274 0.8274
v 0.640000 2.320000 0.025000 0.7020 0.7020 0.7020
v 0.590000 2.320000 0.025000 0.7020 0.7020 0.7020
v 0.590000 0.880000 -0.025000 0.7020 0.7020 0.7020
v 0.590000 2.320000 -0.025000 0.7020 0.7020 0.7020
v 0.590000 0.880000 0.025000 0.8117 0.8117 0.8117
v 0.640000 1.812900 -0.020000 0.7020 0.7020 0.7020
v 0.000000 1.812900 -0.020000 0.7020 0.7020 0.7020
v 0.000000 1.847900 0.020000 0.7020 0.7020 0.7020
v 0.000000 1.847900 -0.020000 0.7020 0.7020 0.7020
v 0.640000 1.847900 0.020000 0.7020 0.7020 0.7020
v 0.640000 1.847900 -0.020000 0.7020 0.7020 0.7020
v 0.640000 1.812900 0.020000 0.7020 0.7020 0.7020
v 0.000000 1.812900 0.020000 0.7020 0.7020 0.7020
v 0.040000 0.920000 0.000000 0.7020 0.7020 0.7020
v 0.600000 0.920000 0.000000 0.7020 0.7020 0.7020
v 0.600000 2.280000 0.000000 0.7020 0.7020 0.7020
v 0.040000 2.280000 0.000000 0.7020 0.7020 0.7020
v 0.600000 0.920000 -0.000200 0.7020 0.7020 0.7020
v 0.040000 0.920000 -0.000200 0.7020 0.7020 0.7020
v 0.040000 2.280000 -0.000200 0.7020 0.7020 0.7020
v 0.600000 2.280000 -0.000200 0.7020 0.7020 0.7020
v 0.640000 0.930000 -0.045000 0.7020 0.7020 0.7020
v 0.000000 0.930000 -0.095000 0.7725 0.7725 0.7725
v 0.640000 0.930000 -0.095000 0.7372 0.7372 0.7372
v 0.000000 0.930000 -0.045000 0.7020 0.7020 0.7020
v 0.640000 0.880000 -0.045000 0.7020 0.7020 0.7020
v 0.000000 2.320000 -0.045000 0.7020 0.7020 0.7020
v 0.640000 2.270000 -0.095000 0.7490 0.7490 0.7490
v 0.000000 2.270000 -0.095000 0.7921 0.7921 0.7921
v 0.000000 2.270000 -0.045000 0.7020 0.7020 0.7020
v 0.640000 2.270000 -0.045000 0.7020 0.7020 0.7020
v 0.050000 0.880000 -0.045000 0.7020 0.7020 0.7020
v 0.050000 0.880000 -0.095000 0.7490 0.7490 0.7490
v 0.050000 2.320000 -0.095000 0.7020 0.7020 0.7020
v 0.050000 2.320000 -0.045000 0.7020 0.7020 0.7020
v 0.640000 0.880000 -0.095000 0.7137 0.7137 0.7137
v 0.590000 2.320000 -0.045000 0.7020 0.7020 0.7020
v 0.640000 2.320000 -0.095000 0.7020 0.7020 0.7020
v 0.640000 2.320000 -0.045000 0.7020 0.7020 0.7020
v 0.590000 2.320000 -0.095000 0.7020 0.7020 0.7020
v 0.590000 0.880000 -0.095000 0.7490 0.7490 0.7490
v 0.590000 0.880000 -0.045000 0.7020 0.7020 0.7020
v 0.640000 1.812900 -0.090000 0.7020 0.7020 0.7020
v 0.640000 1.847900 -0.090000 0.7020 0.7020 0.7020
v 0.640000 1.847900 -0.050000 0.7020 0.7020 0.7020
v 0.640000 1.812900 -0.050000 0.7020 0.7020 0.7020
v 0.040000 0.920000 -0.070000 0.7020 0.7020 0.7020
v 0.600000 0.920000 -0.070000 0.7020 0.7020 0.7020
v 0.600000 2.280000 -0.070000 0.7020 0.7020 0.7020
v 0.040000 2.280000 -0.070000 0.7020 0.7020 0.7020
v 0.600000 0.920000 -0.070200 0.7020 0.7020 0.7020
v 0.040000 0.920000 -0.070200 0.7020 0.7020 0.7020
v 0.040000 2.280000 -0.070200 0.7020 0.7020 0.7020
v 0.600000 2.280000 -0.070200 0.7020 0.7020 0.7020
vn -0.0000 -0.0000 1.0000
vn -0.0000 -0.0000 -1.0000
vn -1.0000 -0.0000 -0.0000
vn 1.0000 -0.0000 -0.0000
vn -0.0000 1.0000 -0.0000
vn -0.0000 -1.0000 -0.0000
vt 0.453369 0.922119
vt 0.468506 0.922119
vt 0.468506 0.922717
vt 0.453369 0.922717
vt 0.467900 0.922119
vt 0.467900 0.925752
vt 0.453369 0.925752
vt 0.468506 0.924509
vt 0.453369 0.924509
vt 0.437744 0.922119
vt 0.452881 0.922119
vt 0.452881 0.922418
vt 0.437744 0.922418
vt 0.449854 0.922119
vt 0.449854 0.923936
vt 0.437744 0.923936
vt 0.452881 0.924111
vt 0.437744 0.924111
vt 0.390869 0.922119
vt 0.406006 0.922119
vt 0.406006 0.922528
vt 0.390869 0.922528
vt 0.406006 0.924448
vt 0.390869 0.924448
vt 0.406006 0.924778
vt 0.390869 0.924778
vt 0.453975 0.922119
vt 0.453975 0.937256
vt 0.453369 0.937256
vt 0.455791 0.922119
vt 0.455791 0.937256
vt 0.457002 0.922119
vt 0.457002 0.936650
vt 0.453369 0.936650
vt 0.468506 0.923302
vt 0.453369 0.923302
vt 0.456396 0.922119
vt 0.456396 0.925146
vt 0.453369 0.925146
vt 0.453895 0.922119
vt 0.453895 0.937256
vt 0.468506 0.922947
vt 0.453369 0.922947
vt 0.455791 0.924238
vt 0.453369 0.924238
vt 0.468506 0.923065
vt 0.453369 0.923065
vt 0.454451 0.922119
vt 0.454451 0.937256
vt 0.454606 0.922119
vt 0.454606 0.937256
vt 0.455488 0.922119
vt 0.455488 0.924541
vt 0.453369 0.924541
vt 0.234619 0.906494
vt 0.249756 0.906494
vt 0.249756 0.937256
vt 0.234619 0.937256
vt 0.250244 0.906494
vt 0.265381 0.906494
vt 0.265381 0.937256
vt 0.250244 0.937256
s 0
usemtl props
f 1/1/1 2/2/1 3/3/1 4/4/1
f 6/1/2 5/2/2 8/3/2 7/4/2
f 5/1/3 1/5/3 4/6/3 8/7/3
f 2/1/4 6/5/4 7/6/4 3/7/4
f 4/1/5 3/2/5 7/8/5 8/9/5
f 5/1/6 6/2/6 2/8/6 1/9/6
f 16/10/1 12/11/1 14/12/1 15/13/1
f 13/10/2 9/11/2 10/12/2 11/13/2
f 9/10/3 16/14/3 15/15/3 10/16/3
f 12/10/4 13/14/4 11/15/4 14/16/4
f 15/10/5 14/11/5 11/17/5 10/18/5
f 9/10/6 13/11/6 12/17/6 16/18/6
f 17/19/1 21/20/1 22/21/1 18/22/1
f 24/19/2 20/20/2 19/21/2 23/22/2
f 20/19/3 17/20/3 18/23/3 19/24/3
f 21/19/4 24/20/4 23/23/4 22/24/4
f 18/19/5 22/20/5 23/25/5 19/26/5
f 20/19/6 24/20/6 21/25/6 17/26/6
f 32/1/1 31/27/1 25/28/1 30/29/1
f 26/1/2 27/27/2 28/28/2 29/29/2
f 27/1/3 32/30/3 30/31/3 28/29/3
f 31/1/4 26/30/4 29/31/4 25/29/4
f 30/1/5 25/32/5 29/33/5 28/34/5
f 27/1/6 26/32/6 31/33/6 32/34/6
f 35/1/1 37/27/1 40/28/1 39/29/1
f 38/1/2 34/27/2 36/28/2 33/29/2
f 34/1/3 35/30/3 39/31/3 36/29/3
f 37/1/4 38/30/4 33/31/4 40/29/4
f 39/1/5 40/32/5 33/33/5 36/34/5
f 34/1/6 38/32/6 37/33/6 35/34/6
f 46/1/1 128/2/1 114/35/1 42/36/1
f 126/1/2 50/2/2 41/35/2 117/36/2
f 50/1/3 46/37/3 42/38/3 41/39/3
f 128/1/4 126/37/4 117/38/4 114/39/4
f 42/1/5 114/2/5 117/35/5 41/36/5
f 50/1/6 126/2/6 128/35/6 46/36/6
f 43/1/1 118/2/1 119/35/1 44/36/1
f 122/1/2 45/2/2 49/35/2 120/36/2
f 45/1/3 43/37/3 44/38/3 49/39/3
f 118/1/4 122/37/4 120/38/4 119/39/4
f 44/1/5 119/2/5 120/35/5 49/36/5
f 45/1/6 122/2/6 118/35/6 43/36/6
f 46/1/1 52/40/1 47/41/1 44/29/1
f 51/1/2 50/40/2 49/41/2 48/29/2
f 50/1/3 46/40/3 44/41/3 49/29/3
f 52/1/4 51/40/4 48/41/4 47/29/4
f 44/1/5 47/37/5 48/38/5 49/39/5
f 50/1/6 51/37/6 52/38/6 46/39/6
f 53/1/1 128/40/1 119/41/1 54/29/1
f 126/1/2 56/40/2 55/41/2 120/29/2
f 56/1/3 53/40/3 54/41/3 55/29/3
f 128/1/4 126/40/4 120/41/4 119/29/4
f 54/1/5 119/37/5 120/38/5 55/39/5
f 56/1/6 126/37/6 128/38/6 53/39/6
f 60/1/1 143/2/1 138/42/1 58/43/1
f 137/1/2 59/2/2 57/42/2 139/43/2
f 59/1/3 60/30/3 58/44/3 57/45/3
f 143/1/4 137/30/4 139/44/4 138/45/4
f 58/1/5 138/2/5 139/46/5 57/47/5
f 59/1/6 137/2/6 143/46/6 60/47/6
f 64/1/1 61/48/1 62/49/1 65/29/1
f 66/1/2 63/48/2 68/49/2 67/29/2
f 63/1/3 64/50/3 65/51/3 68/29/3
f 61/1/4 66/50/4 67/51/4 62/29/4
f 65/1/5 62/52/5 67/53/5 68/54/5
f 63/1/6 66/52/6 61/53/6 64/54/6
f 69/55/1 70/56/1 71/57/1 72/58/1
f 73/55/2 74/56/2 75/57/2 76/58/2
f 77/1/1 89/2/1 155/35/1 78/36/1
f 95/1/2 80/2/2 79/35/2 153/36/2
f 80/1/3 77/37/3 78/38/3 79/39/3
f 89/1/4 95/37/4 153/38/4 155/39/4
f 78/1/5 155/2/5 153/35/5 79/36/5
f 80/1/6 95/2/6 89/35/6 77/36/6
f 83/1/1 160/2/1 157/35/1 85/36/1
f 159/1/2 82/2/2 81/35/2 93/36/2
f 82/1/3 83/37/3 85/38/3 81/39/3
f 160/1/4 159/37/4 93/38/4 157/39/4
f 85/1/5 157/2/5 93/35/5 81/36/5
f 82/1/6 159/2/6 160/35/6 83/36/6
f 77/1/1 88/40/1 84/41/1 85/29/1
f 86/1/2 80/40/2 81/41/2 87/29/2
f 80/1/3 77/40/3 85/41/3 81/29/3
f 88/1/4 86/40/4 87/41/4 84/29/4
f 85/1/5 84/37/5 87/38/5 81/39/5
f 80/1/6 86/37/6 88/38/6 77/39/6
f 91/1/1 89/40/1 157/41/1 92/29/1
f 95/1/2 94/40/2 90/41/2 93/29/2
f 94/1/3 91/40/3 92/41/3 90/29/3
f 89/1/4 95/40/4 93/41/4 157/29/4
f 92/1/5 157/37/5 93/38/5 90/39/5
f 94/1/6 95/37/6 89/38/6 91/39/6
f 102/1/1 96/2/1 97/42/1 98/43/1
f 103/1/2 101/2/2 99/42/2 100/43/2
f 101/1/3 102/30/3 98/44/3 99/45/3
f 96/1/4 103/30/4 100/44/4 97/45/4
f 98/1/5 97/2/5 100/46/5 99/47/5
f 101/1/6 103/2/6 96/46/6 102/47/6
f 104/59/1 105/60/1 106/61/1 107/62/1
f 108/59/2 109/60/2 110/61/2 111/62/2
f 128/1/1 112/2/1 116/35/1 114/36/1
f 113/1/2 126/2/2 117/35/2 115/36/2
f 112/1/4 113/37/4 115/38/4 116/39/4
f 114/1/5 116/2/5 115/35/5 117/36/5
f 126/1/6 113/2/6 112/35/6 128/36/6
f 118/1/1 124/2/1 131/35/1 119/36/1
f 123/1/2 122/2/2 120/35/2 121/36/2
f 124/1/4 123/37/4 121/38/4 131/39/4
f 119/1/5 131/2/5 121/35/5 120/36/5
f 122/1/6 123/2/6 124/35/6 118/36/6
f 128/1/1 130/40/1 125/41/1 119/29/1
f 129/1/2 126/40/2 120/41/2 127/29/2
f 130/1/4 129/40/4 127/41/4 125/29/4
f 119/1/5 125/37/5 127/38/5 120/39/5
f 126/1/6 129/37/6 130/38/6 128/39/6
f 135/1/1 112/40/1 131/41/1 132/29/1
f 113/1/2 133/40/2 134/41/2 121/29/2
f 133/1/3 135/40/3 132/41/3 134/29/3
f 112/1/4 113/40/4 121/41/4 131/29/4
f 132/1/5 131/37/5 121/38/5 134/39/5
f 133/1/6 113/37/6 112/38/6 135/39/6
f 143/1/1 142/2/1 140/42/1 138/43/1
f 136/1/2 137/2/2 139/42/2 141/43/2
f 142/1/4 136/30/4 141/44/4 140/45/4
f 138/1/5 140/2/5 141/46/5 139/47/5
f 137/1/6 136/2/6 142/46/6 143/47/6
f 144/55/1 145/56/1 146/57/1 147/58/1
f 148/55/2 149/56/2 150/57/2 151/58/2
f 89/1/1 156/2/1 152/35/1 155/36/1
f 166/1/2 95/2/2 153/35/2 154/36/2
f 156/1/4 166/37/4 154/38/4 152/39/4
f 155/1/5 152/2/5 154/35/5 153/36/5
f 95/1/6 166/2/6 156/35/6 89/36/6
f 160/1/1 161/2/1 169/35/1 157/36/1
f 158/1/2 159/2/2 93/35/2 168/36/2
f 161/1/4 158/37/4 168/38/4 169/39/4
f 157/1/5 169/2/5 168/35/5 93/36/5
f 159/1/6 158/2/6 161/35/6 160/36/6
f 89/1/1 162/40/1 165/41/1 157/29/1
f 163/1/2 95/40/2 93/41/2 164/29/2
f 162/1/4 163/40/4 164/41/4 165/29/4
f 157/1/5 165/37/5 164/38/5 93/39/5
f 95/1/6 163/37/6 162/38/6 89/39/6
f 172/1/1 156/40/1 169/41/1 167/29/1
f 166/1/2 171/40/2 170/41/2 168/29/2
f 171/1/3 172/40/3 167/41/3 170/29/3
f 156/1/4 166/40/4 168/41/4 169/29/4
f 167/1/5 169/37/5 168/38/5 170/39/5
f 171/1/6 166/37/6 156/38/6 172/39/6
f 96/1/1 176/2/1 175/42/1 97/43/1
f 173/1/2 103/2/2 100/42/2 174/43/2
f 176/1/4 173/30/4 174/44/4 175/45/4
f 97/1/5 175/2/5 174/46/5 100/47/5
f 103/1/6 173/2/6 176/46/6 96/47/6
f 177/59/1 178/60/1 179/61/1 180/62/1
f 181/59/2 182/60/2 183/61/2 184/62/2
