# Blender 4.0.2
# www.blender.org
mtllib Telephone.mtl
o Telephone
v -0.072346 0.000000 -0.011135
v -0.037892 0.000000 -0.011135
v 0.000000 0.000000 -0.011135
v 0.072346 0.000000 -0.011135
v 0.037892 0.000000 -0.011135
v -0.103816 0.000000 0.105263
v -0.103219 0.003743 0.109006
v -0.107010 0.003703 0.105263
v -0.097526 0.067765 0.105263
v -0.094032 0.065688 0.109006
v -0.093229 0.071410 0.105829
v -0.107024 0.003705 -0.105935
v -0.103236 0.003743 -0.109679
v -0.103816 0.000000 -0.105935
v -0.082986 0.144253 -0.105935
v -0.083487 0.140510 -0.109679
v -0.087303 0.140279 -0.105935
v -0.107024 0.003705 -0.011135
v -0.103816 0.000000 -0.011135
v -0.082986 0.144253 -0.014878
v -0.087304 0.140268 -0.011135
v -0.083254 0.142274 -0.007957
v -0.072003 0.003743 -0.109679
v -0.072346 0.000000 -0.105935
v -0.055408 0.147997 -0.086238
v -0.051665 0.147997 -0.089981
v -0.056225 0.144253 -0.094280
v -0.072346 0.000000 0.105263
v -0.071999 0.003743 0.109006
v -0.066263 0.065688 0.109006
v -0.065738 0.071410 0.105829
v -0.055408 0.147997 -0.034576
v -0.056225 0.144253 -0.026533
v -0.051665 0.147997 -0.030832
v -0.032184 0.147997 -0.089981
v -0.028441 0.147997 -0.086238
v -0.027624 0.144253 -0.094280
v -0.037892 0.000000 0.105263
v -0.037545 0.003743 0.109006
v -0.032184 0.147997 -0.030832
v -0.027624 0.144253 -0.026533
v -0.028441 0.147997 -0.034576
v -0.037550 0.003743 -0.109679
v -0.037892 0.000000 -0.105935
v -0.031810 0.065688 0.109006
v -0.031284 0.071410 0.105829
v 0.000000 0.144253 -0.105935
v 0.000000 0.140510 -0.109679
v 0.000000 0.000000 0.105263
v 0.000000 0.003743 0.109006
v 0.000000 0.142274 -0.007957
v 0.000000 0.144253 -0.014878
v 0.000000 0.003743 -0.109679
v 0.000000 0.000000 -0.105935
v 0.000000 0.065688 0.109006
v 0.000000 0.071410 0.105829
v -0.059152 0.144253 -0.105935
v -0.059494 0.140510 -0.109679
v -0.059330 0.142274 -0.007957
v -0.059152 0.144253 -0.014878
v -0.024698 0.144253 -0.105935
v -0.025040 0.140510 -0.109679
v -0.024877 0.142274 -0.007957
v -0.024698 0.144253 -0.014878
v -0.055408 0.170411 -0.086238
v -0.051665 0.174154 -0.086238
v -0.051665 0.170411 -0.089981
v -0.055408 0.170411 -0.034576
v -0.051665 0.170411 -0.030832
v -0.051665 0.174154 -0.034576
v -0.032184 0.170411 -0.089981
v -0.032184 0.174154 -0.086238
v -0.028441 0.170411 -0.086238
v -0.032184 0.170411 -0.030832
v -0.028441 0.170411 -0.034576
v -0.032184 0.174154 -0.034576
v 0.103816 0.000000 0.105263
v 0.107010 0.003703 0.105263
v 0.103219 0.003743 0.109006
v 0.097526 0.067765 0.105263
v 0.093229 0.071410 0.105829
v 0.094032 0.065688 0.109006
v 0.107024 0.003705 -0.105935
v 0.103816 0.000000 -0.105935
v 0.103236 0.003743 -0.109679
v 0.082986 0.144253 -0.105935
v 0.087303 0.140279 -0.105935
v 0.083487 0.140510 -0.109679
v 0.103816 0.000000 -0.011135
v 0.107024 0.003705 -0.011135
v 0.082986 0.144253 -0.014878
v 0.083254 0.142274 -0.007957
v 0.087304 0.140268 -0.011135
v 0.072346 0.000000 -0.105935
v 0.072003 0.003743 -0.109679
v 0.055408 0.147997 -0.086238
v 0.056225 0.144253 -0.094280
v 0.051665 0.147997 -0.089981
v 0.071999 0.003743 0.109006
v 0.072346 0.000000 0.105263
v 0.065738 0.071410 0.105829
v 0.066263 0.065688 0.109006
v 0.055408 0.147997 -0.034576
v 0.051665 0.147997 -0.030832
v 0.056225 0.144253 -0.026533
v 0.032184 0.147997 -0.089981
v 0.027624 0.144253 -0.094280
v 0.028441 0.147997 -0.086238
v 0.037545 0.003743 0.109006
v 0.037892 0.000000 0.105263
v 0.032184 0.147997 -0.030832
v 0.028441 0.147997 -0.034576
v 0.027624 0.144253 -0.026533
v 0.037892 0.000000 -0.105935
v 0.037550 0.003743 -0.109679
v 0.031284 0.071410 0.105829
v 0.031810 0.065688 0.109006
v 0.059494 0.140510 -0.109679
v 0.059152 0.144253 -0.105935
v 0.059152 0.144253 -0.014878
v 0.059330 0.142274 -0.007957
v 0.025040 0.140510 -0.109679
v 0.024698 0.144253 -0.105935
v 0.024698 0.144253 -0.014878
v 0.024877 0.142274 -0.007957
v 0.055408 0.170411 -0.086238
v 0.051665 0.170411 -0.089981
v 0.051665 0.174154 -0.086238
v 0.055408 0.170411 -0.034576
v 0.051665 0.174154 -0.034576
v 0.051665 0.170411 -0.030832
v 0.032184 0.170411 -0.089981
v 0.028441 0.170411 -0.086238
v 0.032184 0.174154 -0.086238
v 0.032184 0.170411 -0.030832
v 0.032184 0.174154 -0.034576
v 0.028441 0.170411 -0.034576
vn -0.0000 1.0000 -0.0000
vn -0.0000 0.8488 0.5286
vn -0.0000 -0.0000 -1.0000
vn -0.0000 -0.0000 1.0000
vn -0.9897 0.1429 -0.0000
vn 1.0000 -0.0000 -0.0000
vn -0.9892 0.1464 0.0001
vn -0.0000 -1.0000 -0.0000
vn -1.0000 -0.0000 -0.0000
vn 0.9897 0.1429 -0.0000
vn 0.9892 0.1464 0.0001
vn -0.5989 -0.5166 0.6120
vn -0.4974 0.4735 0.7269
vn -0.5985 -0.5183 -0.6109
vn -0.5692 0.6183 -0.5420
vn -0.5601 0.8020 0.2076
vn -0.3627 0.8584 -0.3627
vn -0.3627 0.8584 0.3627
vn 0.3627 0.8584 -0.3627
vn 0.3627 0.8584 0.3627
vn -0.5773 0.5773 -0.5774
vn -0.5773 0.5774 0.5774
vn 0.5773 0.5773 -0.5774
vn 0.5773 0.5774 0.5774
vn 0.5989 -0.5166 0.6120
vn 0.4974 0.4735 0.7269
vn 0.5985 -0.5183 -0.6109
vn 0.5692 0.6183 -0.5420
vn 0.5601 0.8020 0.2076
vn -0.7559 -0.6546 0.0001
vn -0.6995 0.1037 0.7071
vn -0.6781 0.7349 0.0001
vn -0.6998 0.1011 -0.7071
vn -0.0000 -0.7071 -0.7071
vn -0.0000 0.4855 0.8743
vn -0.7559 -0.6546 -0.0000
vn -0.6288 0.6836 0.3706
vn -0.0000 0.7071 -0.7071
vn -0.0000 -0.7071 0.7071
vn -0.0000 0.9615 0.2749
vn -0.9770 0.2132 -0.0000
vn -0.0000 0.7542 -0.6567
vn -0.0000 0.7542 0.6566
vn 0.9770 0.2132 -0.0000
vn -0.7071 0.7071 -0.0000
vn -0.0000 0.7071 0.7071
vn 0.7071 0.7071 -0.0000
vn 0.7071 -0.0000 0.7071
vn -0.7071 -0.0000 0.7071
vn -0.7071 -0.0000 -0.7071
vn 0.7071 -0.0000 -0.7071
vn 0.7559 -0.6546 0.0001
vn 0.6995 0.1037 0.7071
vn 0.6781 0.7349 0.0001
vn 0.6998 0.1011 -0.7071
vn 0.7559 -0.6546 -0.0000
vn 0.6288 0.6836 0.3706
vn -0.9897 0.1429 0.0021
vn 0.9897 0.1429 0.0021
vn -0.7572 -0.6532 -0.0000
vn -0.6979 0.1033 0.7087
vn -0.6773 0.7357 -0.0000
vn -0.6291 0.6834 0.3704
vn -0.0000 0.7542 -0.6566
vn 0.7572 -0.6532 -0.0000
vn 0.6979 0.1033 0.7087
vn 0.6773 0.7357 -0.0000
vn 0.6291 0.6834 0.3704
vt 0.858033 0.504748
vt 0.750000 0.620252
vt 0.750000 0.504748
vt 0.858135 0.628306
vt 0.750000 0.746694
vt 0.750000 0.628306
vt 0.618513 0.266827
vt 0.381487 0.375000
vt 0.381487 0.263601
vt 0.618513 0.375000
vt 0.381487 0.437500
vt 0.381487 0.375000
vt 0.388478 0.875000
vt 0.611522 0.985172
vt 0.388478 0.986402
vt 0.618093 0.125000
vt 0.381421 0.245252
vt 0.381421 0.125000
vt 0.694290 0.512058
vt 0.694290 0.612942
vt 0.744692 0.621288
vt 0.687500 0.624098
vt 0.692808 0.621288
vt 0.613488 0.003895
vt 0.386936 0.003895
vt 0.750000 0.628306
vt 0.687500 0.746694
vt 0.687500 0.628306
vt 0.250000 0.504748
vt 0.138288 0.625000
vt 0.138288 0.504748
vt 0.343750 0.625000
vt 0.312500 0.746105
vt 0.312500 0.625000
vt 0.687500 0.504748
vt 0.656250 0.620252
vt 0.656250 0.504748
vt 0.687500 0.504748
vt 0.656250 0.504748
vt 0.743210 0.612942
vt 0.743210 0.512058
vt 0.388478 0.812500
vt 0.611522 0.875000
vt 0.388478 0.875000
vt 0.312500 0.504748
vt 0.250000 0.625000
vt 0.250000 0.504748
vt 0.687500 0.628306
vt 0.656250 0.746694
vt 0.656250 0.628306
vt 0.618513 0.437500
vt 0.381487 0.468750
vt 0.381487 0.437500
vt 0.343750 0.504748
vt 0.312500 0.504748
vt 0.736419 0.504748
vt 0.701081 0.504748
vt 0.750000 0.504748
vt 0.701081 0.620252
vt 0.736419 0.620252
vt 0.388478 0.781250
vt 0.611522 0.812500
vt 0.388478 0.812500
vt 0.138288 0.746105
vt 0.692808 0.503712
vt 0.750000 0.500902
vt 0.744692 0.503712
vt 0.250000 0.746105
vt 0.858033 0.504748
vt 0.858135 0.628306
vt 0.618513 0.266827
vt 0.381487 0.263601
vt 0.381421 0.245252
vt 0.618093 0.125000
vt 0.381421 0.125000
vt 0.694290 0.612942
vt 0.687500 0.624098
vt 0.613488 0.003895
vt 0.312500 0.746105
vt 0.343750 0.504748
vt 0.381487 0.468750
vt 0.743210 0.512058
vt 0.736419 0.512058
vt 0.701081 0.612942
vt 0.701081 0.512058
vt 0.656250 0.746694
vt 0.388478 0.781250
vt 0.611522 0.781250
vt 0.701081 0.504748
vt 0.250000 0.746105
vt 0.736419 0.620252
vt 0.701081 0.612942
vt 0.701081 0.512058
vt 0.750000 0.500902
vt 0.138288 0.746105
vt 0.140404 0.750000
vt 0.126950 0.746105
vt 0.613499 0.000000
vt 0.625000 0.003551
vt 0.382414 0.250000
vt 0.375918 0.245252
vt 0.860307 0.500000
vt 0.875000 0.504748
vt 0.858033 0.620252
vt 0.875000 0.625000
vt 0.859249 0.625000
vt 0.743210 0.612942
vt 0.736419 0.612942
vt 0.694290 0.512058
vt 0.875000 0.748001
vt 0.859921 0.746694
vt 0.862123 0.750000
vt 0.126899 0.504748
vt 0.140344 0.500000
vt 0.875000 0.504748
vt 0.860307 0.500000
vt 0.858033 0.625000
vt 0.875000 0.626888
vt 0.736419 0.504748
vt 0.736419 0.612942
vt 0.694290 0.512058
vt 0.701081 0.620252
vt 0.125000 0.746105
vt 0.125000 0.625000
vt 0.390456 0.000000
vt 0.618112 0.245252
vt 0.250000 0.500000
vt 0.859921 0.746694
vt 0.751382 0.750000
vt 0.125000 0.504748
vt 0.875000 0.626888
vt 0.875000 0.748000
vt 0.250621 0.500000
vt 0.312500 0.500000
vt 0.751552 0.500000
vt 0.688129 0.750000
vt 0.688121 0.500000
vt 0.750000 0.500000
vt 0.250629 0.750000
vt 0.750000 0.624098
vt 0.312782 0.500000
vt 0.343750 0.500000
vt 0.656250 0.750000
vt 0.656250 0.500000
vt 0.687500 0.500000
vt 0.343750 0.746105
vt 0.312786 0.750000
vt 0.687500 0.620252
vt 0.125000 0.746105
vt 0.613499 0.000000
vt 0.618112 0.245252
vt 0.125000 0.504748
vt 0.688129 0.750000
vt 0.687500 0.746694
vt 0.343750 0.746105
vt 0.687500 0.620252
vt 0.618513 0.468750
vt 0.611522 0.781250
vt 0.687500 0.500902
vt 0.388478 0.986402
vt 0.618513 0.468750
vt 0.687500 0.500902
vt 0.250000 0.750000
vt 0.750000 0.750000
vt 0.312500 0.750000
vt 0.687500 0.750000
vt 0.343750 0.750000
s 0
f 15/1/1 60/2/1 57/3/1
f 22/4/2 31/5/2 59/6/2
f 16/7/3 23/8/3 13/9/3
f 58/10/3 43/11/3 23/12/3
f 29/13/4 10/14/4 7/15/4
f 21/16/5 12/17/5 18/18/5
f 36/19/6 75/20/6 42/20/6
f 33/21/1 64/22/1 41/23/1
f 9/24/7 18/18/7 8/25/7
f 59/26/2 46/27/2 63/28/2
f 24/29/8 19/30/8 14/31/8
f 3/32/8 38/33/8 2/34/8
f 61/35/1 52/36/1 47/37/1
f 52/36/1 123/38/1 47/39/1
f 32/40/9 65/41/9 25/41/9
f 39/42/4 30/43/4 29/44/4
f 44/45/8 1/46/8 24/47/8
f 63/48/2 56/49/2 51/50/2
f 62/51/3 53/52/3 43/53/3
f 54/54/8 2/34/8 44/55/8
f 26/56/3 71/57/3 35/57/3
f 33/21/1 57/58/1 60/2/1
f 40/59/4 69/60/4 34/60/4
f 50/61/4 45/62/4 39/63/4
f 77/64/8 4/46/8 89/30/8
f 37/65/1 57/66/1 27/67/1
f 41/23/1 61/38/1 37/65/1
f 2/34/8 28/68/8 1/46/8
f 120/2/1 86/69/1 119/58/1
f 101/5/2 92/70/2 121/26/2
f 95/12/3 88/71/3 85/72/3
f 115/53/3 118/10/3 95/8/3
f 99/44/4 82/14/4 102/43/4
f 83/73/10 93/74/10 90/75/10
f 137/76/9 108/19/9 112/20/9
f 124/77/1 105/21/1 113/23/1
f 90/18/11 80/78/11 78/25/11
f 116/27/2 121/6/2 125/48/2
f 89/30/8 94/47/8 84/31/8
f 110/79/8 3/32/8 5/34/8
f 5/34/8 54/80/8 114/45/8
f 53/81/3 122/51/3 115/11/3
f 126/82/6 103/40/6 96/41/6
f 109/63/4 102/43/4 117/62/4
f 4/46/8 114/55/8 94/29/8
f 66/83/1 76/84/1 72/85/1
f 56/86/2 125/48/2 51/50/2
f 50/87/4 117/62/4 55/88/4
f 132/89/3 98/56/3 106/57/3
f 100/90/8 5/34/8 4/46/8
f 131/91/4 111/59/4 104/60/4
f 136/92/1 128/83/1 134/93/1
f 105/21/1 119/3/1 97/67/1
f 123/35/1 113/23/1 107/65/1
f 119/94/1 107/65/1 97/67/1
f 6/95/12 7/96/12 8/97/12
f 9/24/13 10/98/13 11/99/13
f 12/17/14 13/100/14 14/101/14
f 15/1/15 16/102/15 17/103/15
f 20/104/16 21/105/16 22/106/16
f 25/41/17 26/56/17 27/67/17
f 32/40/18 33/21/18 34/60/18
f 35/57/19 36/19/19 37/65/19
f 40/59/20 41/23/20 42/20/20
f 65/41/21 66/83/21 67/56/21
f 68/107/22 69/60/22 70/108/22
f 71/57/23 72/85/23 73/109/23
f 74/59/24 75/20/24 76/84/24
f 77/64/25 78/97/25 79/96/25
f 80/110/26 81/111/26 82/112/26
f 83/113/27 84/31/27 85/114/27
f 86/69/28 87/115/28 88/116/28
f 91/117/29 92/70/29 93/118/29
f 96/41/19 97/67/19 98/56/19
f 103/40/20 104/60/20 105/21/20
f 106/57/17 107/65/17 108/19/17
f 111/59/18 112/20/18 113/23/18
f 126/82/23 127/119/23 128/83/23
f 129/107/24 130/120/24 131/91/24
f 132/89/21 133/121/21 134/93/21
f 135/122/22 136/92/22 137/76/22
f 19/30/30 8/123/30 18/124/30
f 10/98/31 8/25/31 7/125/31
f 20/104/32 17/103/32 21/105/32
f 13/9/33 17/126/33 16/7/33
f 24/29/34 13/114/34 23/127/34
f 11/128/35 30/129/35 31/5/35
f 19/30/36 12/130/36 14/31/36
f 11/128/37 21/131/37 9/132/37
f 44/45/34 23/133/34 43/134/34
f 15/1/38 58/135/38 16/102/38
f 28/90/39 7/96/39 6/95/39
f 31/5/35 45/136/35 46/27/35
f 59/6/40 20/104/40 22/4/40
f 57/66/38 62/137/38 58/138/38
f 38/79/39 29/139/39 28/68/39
f 63/28/40 60/140/40 59/26/40
f 54/54/34 43/141/34 53/142/34
f 46/27/35 55/143/35 56/49/35
f 61/35/38 48/144/38 62/145/38
f 49/146/39 39/147/39 38/33/39
f 51/50/40 64/148/40 63/48/40
f 33/21/41 25/41/41 27/67/41
f 35/57/42 27/67/42 26/56/42
f 33/21/43 40/59/43 34/60/43
f 42/20/44 37/65/44 36/19/44
f 68/107/45 66/83/45 65/41/45
f 72/85/38 67/56/38 66/83/38
f 74/59/46 70/108/46 69/60/46
f 76/84/47 73/109/47 72/85/47
f 75/20/48 40/59/48 42/20/48
f 32/40/49 69/60/49 68/107/49
f 26/56/50 65/41/50 67/56/50
f 71/57/51 36/19/51 35/57/51
f 78/149/52 89/30/52 90/124/52
f 78/25/53 82/150/53 79/125/53
f 87/115/54 91/104/54 93/105/54
f 87/151/55 85/72/55 88/71/55
f 85/114/34 94/47/34 95/127/34
f 102/129/35 81/111/35 101/5/35
f 90/124/56 84/31/56 83/152/56
f 93/118/57 81/111/57 80/110/57
f 95/133/34 114/55/34 115/134/34
f 118/135/38 86/69/38 88/116/38
f 79/96/39 100/68/39 77/64/39
f 117/153/35 101/5/35 116/27/35
f 91/104/40 121/26/40 92/70/40
f 122/137/38 119/94/38 118/138/38
f 99/139/39 110/33/39 100/90/39
f 120/140/40 125/48/40 121/6/40
f 115/141/34 54/80/34 53/142/34
f 55/143/35 116/154/35 56/86/35
f 48/144/38 123/38/38 122/145/38
f 109/147/39 49/155/39 110/79/39
f 124/156/40 51/50/40 125/48/40
f 103/40/44 97/67/44 96/41/44
f 97/67/42 106/57/42 98/56/42
f 111/59/43 105/21/43 104/60/43
f 113/23/41 108/19/41 107/65/41
f 130/120/47 126/82/47 128/83/47
f 132/89/38 128/83/38 127/119/38
f 136/92/46 131/91/46 130/120/46
f 137/76/45 134/93/45 133/121/45
f 135/122/49 112/20/49 111/59/49
f 104/60/48 129/107/48 131/91/48
f 96/41/51 127/119/51 126/82/51
f 133/121/50 106/57/50 108/19/50
f 1/46/8 6/95/8 19/30/8
f 15/1/1 20/104/1 60/2/1
f 22/4/2 11/128/2 31/5/2
f 16/7/3 58/10/3 23/8/3
f 58/10/3 62/51/3 43/11/3
f 29/13/4 30/43/4 10/14/4
f 21/16/5 17/126/5 12/17/5
f 36/19/6 73/109/6 75/20/6
f 33/21/1 60/140/1 64/22/1
f 9/24/58 21/16/58 18/18/58
f 59/26/2 31/5/2 46/27/2
f 24/29/8 1/46/8 19/30/8
f 3/32/8 49/146/8 38/33/8
f 61/35/1 64/148/1 52/36/1
f 52/36/1 124/156/1 123/38/1
f 32/40/9 68/107/9 65/41/9
f 39/42/4 45/62/4 30/43/4
f 44/45/8 2/34/8 1/46/8
f 63/48/2 46/27/2 56/49/2
f 62/51/3 48/157/3 53/52/3
f 54/54/8 3/32/8 2/34/8
f 26/56/3 67/56/3 71/57/3
f 33/21/1 27/67/1 57/58/1
f 40/59/4 74/59/4 69/60/4
f 50/61/4 55/158/4 45/62/4
f 77/64/8 100/68/8 4/46/8
f 37/65/1 61/159/1 57/66/1
f 41/23/1 64/156/1 61/38/1
f 2/34/8 38/79/8 28/68/8
f 120/2/1 91/104/1 86/69/1
f 101/5/2 81/111/2 92/70/2
f 95/12/3 118/10/3 88/71/3
f 115/53/3 122/51/3 118/10/3
f 99/44/4 79/160/4 82/14/4
f 83/73/10 87/151/10 93/74/10
f 137/76/9 133/121/9 108/19/9
f 124/77/1 120/140/1 105/21/1
f 90/18/59 93/16/59 80/78/59
f 116/27/2 101/5/2 121/6/2
f 89/30/8 4/46/8 94/47/8
f 110/79/8 49/155/8 3/32/8
f 5/34/8 3/32/8 54/80/8
f 53/81/3 48/161/3 122/51/3
f 126/82/6 129/107/6 103/40/6
f 109/63/4 99/13/4 102/43/4
f 4/46/8 5/34/8 114/55/8
f 66/83/1 70/108/1 76/84/1
f 56/86/2 116/154/2 125/48/2
f 50/87/4 109/42/4 117/62/4
f 132/89/3 127/119/3 98/56/3
f 100/90/8 110/33/8 5/34/8
f 131/91/4 135/122/4 111/59/4
f 136/92/1 130/120/1 128/83/1
f 105/21/1 120/2/1 119/3/1
f 123/35/1 124/148/1 113/23/1
f 119/94/1 123/162/1 107/65/1
f 19/30/60 6/95/60 8/123/60
f 10/98/61 9/24/61 8/25/61
f 20/104/62 15/1/62 17/103/62
f 13/9/33 12/17/33 17/126/33
f 24/29/34 14/31/34 13/114/34
f 11/128/35 10/112/35 30/129/35
f 19/30/36 18/124/36 12/130/36
f 11/128/63 22/4/63 21/131/63
f 44/45/34 24/47/34 23/133/34
f 15/1/38 57/3/38 58/135/38
f 28/90/39 29/163/39 7/96/39
f 31/5/35 30/164/35 45/136/35
f 59/6/40 60/2/40 20/104/40
f 57/66/38 61/159/38 62/137/38
f 38/79/39 39/165/39 29/139/39
f 63/28/40 64/22/40 60/140/40
f 54/54/34 44/55/34 43/141/34
f 46/27/35 45/166/35 55/143/35
f 61/35/38 47/37/38 48/144/38
f 49/146/39 50/167/39 39/147/39
f 51/50/40 52/36/40 64/148/40
f 33/21/41 32/40/41 25/41/41
f 35/57/64 37/65/64 27/67/64
f 33/21/43 41/23/43 40/59/43
f 42/20/44 41/23/44 37/65/44
f 68/107/45 70/108/45 66/83/45
f 72/85/38 71/57/38 67/56/38
f 74/59/46 76/84/46 70/108/46
f 76/84/47 75/20/47 73/109/47
f 75/20/48 74/59/48 40/59/48
f 32/40/49 34/60/49 69/60/49
f 26/56/50 25/41/50 65/41/50
f 71/57/51 73/109/51 36/19/51
f 78/149/65 77/64/65 89/30/65
f 78/25/66 80/78/66 82/150/66
f 87/115/67 86/69/67 91/104/67
f 87/151/55 83/73/55 85/72/55
f 85/114/34 84/31/34 94/47/34
f 102/129/35 82/112/35 81/111/35
f 90/124/56 89/30/56 84/31/56
f 93/118/68 92/70/68 81/111/68
f 95/133/34 94/29/34 114/55/34
f 118/135/38 119/58/38 86/69/38
f 79/96/39 99/163/39 100/68/39
f 117/153/35 102/164/35 101/5/35
f 91/104/40 120/2/40 121/26/40
f 122/137/38 123/162/38 119/94/38
f 99/139/39 109/165/39 110/33/39
f 120/140/40 124/77/40 125/48/40
f 115/141/34 114/45/34 54/80/34
f 55/143/35 117/166/35 116/154/35
f 48/144/38 47/39/38 123/38/38
f 109/147/39 50/167/39 49/155/39
f 124/156/40 52/36/40 51/50/40
f 103/40/44 105/21/44 97/67/44
f 97/67/64 107/65/64 106/57/64
f 111/59/43 113/23/43 105/21/43
f 113/23/41 112/20/41 108/19/41
f 130/120/47 129/107/47 126/82/47
f 132/89/38 134/93/38 128/83/38
f 136/92/46 135/122/46 131/91/46
f 137/76/45 136/92/45 134/93/45
f 135/122/49 137/76/49 112/20/49
f 104/60/48 103/40/48 129/107/48
f 96/41/51 98/56/51 127/119/51
f 133/121/50 132/89/50 106/57/50
f 1/46/8 28/90/8 6/95/8
o Telephone.001
v -0.049994 0.172969 -0.036761
v -0.049994 0.217435 -0.036761
v -0.049994 0.172969 -0.089916
v -0.049994 0.217435 -0.089916
v 0.000000 0.166555 -0.063339
v 0.000000 0.225981 -0.063339
v -0.049994 0.225981 -0.063339
v -0.049994 0.164423 -0.063339
v 0.000000 0.175101 -0.089916
v 0.000000 0.217435 -0.089916
v 0.000000 0.175101 -0.036761
v 0.000000 0.217435 -0.036761
v -0.049994 0.195202 -0.031674
v -0.049994 0.195202 -0.095004
v -0.114324 0.155206 -0.063339
v 0.000000 0.195202 -0.031674
v 0.000000 0.195202 -0.095004
v -0.076553 0.160610 -0.063339
v -0.077084 0.169139 -0.036761
v -0.078468 0.191329 -0.031674
v -0.079851 0.213519 -0.036761
v -0.080382 0.222049 -0.063339
v -0.079851 0.213519 -0.089916
v -0.078468 0.191329 -0.095004
v -0.077084 0.169139 -0.089916
v -0.116440 0.162233 -0.041730
v -0.121944 0.180515 -0.037594
v -0.127449 0.198797 -0.041730
v -0.129565 0.205825 -0.063339
v -0.127449 0.198797 -0.084948
v -0.121944 0.180515 -0.089084
v -0.116440 0.162233 -0.084948
v -0.121944 0.180515 -0.063339
v 0.049994 0.172969 -0.036761
v 0.049994 0.217435 -0.036761
v 0.049994 0.172969 -0.089916
v 0.049994 0.217435 -0.089916
v 0.049994 0.225981 -0.063339
v 0.049994 0.164423 -0.063339
v 0.049994 0.195202 -0.031674
v 0.049994 0.195202 -0.095004
v 0.114324 0.155206 -0.063339
v 0.076553 0.160610 -0.063339
v 0.077084 0.169139 -0.036761
v 0.078468 0.191329 -0.031674
v 0.079851 0.213519 -0.036761
v 0.080382 0.222049 -0.063339
v 0.079851 0.213519 -0.089916
v 0.078468 0.191329 -0.095004
v 0.077084 0.169139 -0.089916
v 0.116440 0.162233 -0.041730
v 0.121944 0.180515 -0.037594
v 0.127449 0.198797 -0.041730
v 0.129565 0.205825 -0.063339
v 0.127449 0.198797 -0.084948
v 0.121944 0.180515 -0.089084
v 0.116440 0.162233 -0.084948
v 0.121944 0.180515 -0.063339
vn 0.0207 -0.2227 0.9747
vn -0.0636 0.0003 0.9980
vn -0.0263 -0.2270 0.9735
vn 0.0862 -0.9484 -0.3050
vn -0.0000 -0.9520 -0.3061
vn 0.0884 -0.9481 -0.3054
vn 0.0007 0.0080 -1.0000
vn -0.0000 -0.2394 -0.9709
vn 0.0207 -0.2227 -0.9747
vn -0.0000 0.2231 0.9748
vn 0.0007 0.0080 1.0000
vn -0.0000 -0.0115 0.9999
vn -0.0917 0.2174 -0.9718
vn -0.0140 0.2230 -0.9747
vn -0.0605 0.9502 0.3056
vn -0.0000 0.9520 0.3061
vn -0.0624 0.9500 -0.3059
vn -0.0000 0.9520 -0.3061
vn -0.0000 -0.9520 0.3061
vn 0.0862 -0.9484 0.3050
vn 0.0884 -0.9481 0.3054
vn 0.1309 -0.9434 0.3048
vn 0.1323 -0.9423 0.3075
vn -0.0000 -0.0115 -0.9999
vn -0.0000 -0.2394 0.9709
vn -0.2128 0.9282 -0.3053
vn -0.0605 0.9502 -0.3056
vn -0.0263 -0.2270 -0.9735
vn -0.1303 -0.0299 -0.9910
vn -0.0636 0.0003 -0.9980
vn -0.1303 -0.0299 0.9910
vn -0.0795 -0.2427 0.9668
vn -0.2128 0.9282 0.3053
vn -0.3009 0.9006 0.3137
vn -0.2180 0.9280 0.3022
vn 0.1314 -0.9405 0.3132
vn 0.1343 -0.9384 0.3183
vn 0.1309 -0.9434 -0.3048
vn -0.0624 0.9500 0.3059
vn -0.0917 0.2174 0.9718
vn -0.9575 -0.2883 -0.0000
vn -0.1714 0.1800 0.9686
vn -0.1714 0.1800 -0.9686
vn 0.1323 -0.9423 -0.3075
vn 0.1314 -0.9405 -0.3132
vn -0.3009 0.9006 -0.3137
vn -0.2966 0.8992 -0.3215
vn -0.0207 -0.2227 0.9747
vn 0.0636 0.0003 0.9980
vn -0.0007 0.0080 1.0000
vn -0.0862 -0.9484 -0.3050
vn -0.0007 0.0080 -1.0000
vn -0.0207 -0.2227 -0.9747
vn 0.0917 0.2174 -0.9718
vn 0.0140 0.2230 -0.9747
vn 0.0605 0.9502 0.3056
vn 0.0624 0.9500 -0.3059
vn -0.0862 -0.9484 0.3050
vn -0.0884 -0.9481 0.3054
vn -0.1309 -0.9434 0.3048
vn 0.2128 0.9282 -0.3053
vn 0.0605 0.9502 -0.3056
vn 0.1303 -0.0299 -0.9910
vn 0.0263 -0.2270 -0.9735
vn 0.0636 0.0003 -0.9980
vn 0.0263 -0.2270 0.9735
vn 0.1303 -0.0299 0.9910
vn 0.3009 0.9006 0.3137
vn 0.2128 0.9282 0.3053
vn 0.2180 0.9280 0.3022
vn -0.1323 -0.9423 0.3075
vn -0.1314 -0.9405 0.3132
vn -0.1309 -0.9434 -0.3048
vn -0.0884 -0.9481 -0.3054
vn 0.0624 0.9500 0.3059
vn 0.0917 0.2174 0.9718
vn 0.0140 0.2230 0.9747
vn 0.9575 -0.2883 -0.0000
vn 0.1714 0.1800 0.9686
vn 0.1714 0.1800 -0.9686
vn -0.1314 -0.9405 -0.3132
vn -0.1323 -0.9423 -0.3075
vn 0.3009 0.9006 -0.3137
vn 0.2180 0.9280 -0.3022
vn -0.0140 0.2230 0.9747
vn -0.0000 0.2231 -0.9748
vn -0.2180 0.9280 -0.3022
vn -0.0795 -0.2427 -0.9668
vn -0.2966 0.8992 0.3215
vn 0.1343 -0.9384 -0.3183
vn 0.0795 -0.2427 -0.9668
vn 0.0795 -0.2427 0.9668
vn 0.2966 0.8992 0.3215
vn -0.1343 -0.9384 0.3183
vn -0.1343 -0.9384 -0.3183
vn 0.2966 0.8992 -0.3215
vt 0.375000 1.000000
vt 0.500000 1.000000
vt 0.125000 0.500000
vt 0.250000 0.625000
vt 0.125000 0.625000
vt 0.500000 0.250000
vt 0.375000 0.375000
vt 0.375000 0.250000
vt 0.625000 0.875000
vt 0.500000 0.875000
vt 0.625000 0.250000
vt 0.875000 0.625000
vt 0.750000 0.750000
vt 0.750000 0.625000
vt 0.875000 0.500000
vt 0.750000 0.500000
vt 0.125000 0.750000
vt 0.500000 0.375000
vt 0.375000 0.875000
vt 0.875000 0.750000
vt 0.625000 1.000000
vt 0.500000 0.125000
vt 0.375000 0.000000
vt 0.375000 0.125000
vt 0.625000 0.000000
vt 0.500000 0.000000
vt 0.250000 0.500000
vt 0.625000 0.125000
vt 0.250000 0.750000
vt 0.625000 0.375000
s 1
f 138/168/69 157/169/70 156/168/71
f 140/170/72 142/171/73 145/172/74
f 151/173/75 146/174/76 140/175/77
f 149/176/78 150/169/79 153/177/80
f 151/173/75 160/178/81 141/178/82
f 144/179/83 149/180/84 143/181/84
f 141/182/85 143/181/86 147/183/86
f 142/171/87 138/184/88 145/172/89
f 145/172/89 156/184/90 155/172/91
f 141/178/82 154/185/92 151/173/75
f 148/186/93 150/169/79 138/168/69
f 141/182/85 159/179/94 144/179/95
f 162/175/96 168/173/97 161/173/98
f 156/168/71 164/169/99 163/168/100
f 159/179/101 165/187/102 158/187/103
f 155/172/91 163/184/104 152/172/105
f 145/172/74 162/170/106 140/170/72
f 140/175/77 161/173/98 151/173/75
f 139/187/107 159/179/101 158/187/103
f 150/169/79 158/188/108 157/169/70
f 170/189/109 167/178/109 168/173/109
f 163/190/109 170/189/109 152/191/109
f 165/192/109 170/189/109 164/193/109
f 170/189/109 169/175/109 152/191/109
f 157/169/70 165/188/110 164/169/99
f 161/173/98 167/178/111 160/178/81
f 155/172/112 169/170/113 162/170/106
f 159/179/94 167/182/114 166/179/115
f 171/168/116 182/169/117 177/169/118
f 173/170/119 142/171/73 146/194/73
f 146/174/76 178/173/120 173/175/121
f 177/169/118 149/176/78 153/177/80
f 185/178/122 178/173/120 174/178/123
f 149/180/84 175/179/124 143/181/84
f 143/181/86 174/182/125 147/183/86
f 171/184/126 142/171/87 176/172/127
f 176/172/127 181/184/128 171/184/126
f 154/185/92 174/178/123 178/173/120
f 148/186/93 177/169/118 153/177/80
f 184/179/129 174/182/125 175/179/130
f 193/173/131 187/175/132 186/173/133
f 181/168/134 189/169/135 182/169/117
f 190/187/136 184/179/137 183/187/138
f 180/172/139 188/184/140 181/184/128
f 187/170/141 176/172/142 173/170/119
f 186/173/133 173/175/121 178/173/120
f 172/187/143 184/179/137 175/179/124
f 177/169/118 183/188/144 172/188/145
f 195/189/146 192/178/146 191/195/146
f 188/190/146 195/189/146 189/193/146
f 195/189/146 190/192/146 189/193/146
f 194/175/146 195/189/146 179/191/146
f 182/169/117 190/188/147 183/188/144
f 192/178/148 186/173/133 185/178/122
f 194/170/149 180/172/150 187/170/141
f 184/179/129 192/182/151 185/182/152
f 138/168/69 150/169/79 157/169/70
f 140/170/72 146/194/73 142/171/73
f 151/173/75 154/185/92 146/174/76
f 149/176/78 139/188/153 150/169/79
f 151/173/75 161/173/98 160/178/81
f 144/179/83 139/187/107 149/180/84
f 141/182/85 144/179/95 143/181/86
f 142/171/87 148/196/87 138/184/88
f 145/172/89 138/184/88 156/184/90
f 141/178/82 147/197/154 154/185/92
f 148/186/93 153/177/80 150/169/79
f 141/182/85 160/182/155 159/179/94
f 162/175/96 169/175/156 168/173/97
f 156/168/71 157/169/70 164/169/99
f 159/179/101 166/179/157 165/187/102
f 155/172/91 156/184/90 163/184/104
f 145/172/74 155/172/112 162/170/106
f 140/175/77 162/175/96 161/173/98
f 139/187/107 144/179/83 159/179/101
f 150/169/79 139/188/153 158/188/108
f 170/189/109 166/195/109 167/178/109
f 163/190/109 164/193/109 170/189/109
f 165/192/109 166/195/109 170/189/109
f 170/189/109 168/173/109 169/175/109
f 157/169/70 158/188/108 165/188/110
f 161/173/98 168/173/97 167/178/111
f 155/172/112 152/172/158 169/170/113
f 159/179/94 160/182/155 167/182/114
f 171/168/116 181/168/134 182/169/117
f 173/170/119 176/172/142 142/171/73
f 146/174/76 154/185/92 178/173/120
f 177/169/118 172/188/145 149/176/78
f 185/178/122 186/173/133 178/173/120
f 149/180/84 172/187/143 175/179/124
f 143/181/86 175/179/130 174/182/125
f 171/184/126 148/196/87 142/171/87
f 176/172/127 180/172/139 181/184/128
f 154/185/92 147/197/154 174/178/123
f 148/186/93 171/168/116 177/169/118
f 184/179/129 185/182/152 174/182/125
f 193/173/131 194/175/159 187/175/132
f 181/168/134 188/168/160 189/169/135
f 190/187/136 191/179/161 184/179/137
f 180/172/139 179/172/162 188/184/140
f 187/170/141 180/172/150 176/172/142
f 186/173/133 187/175/132 173/175/121
f 172/187/143 183/187/138 184/179/137
f 177/169/118 182/169/117 183/188/144
f 195/189/146 193/173/146 192/178/146
f 188/190/146 179/191/146 195/189/146
f 195/189/146 191/195/146 190/192/146
f 194/175/146 193/173/146 195/189/146
f 182/169/117 189/169/135 190/188/147
f 192/178/148 193/173/131 186/173/133
f 194/170/149 179/172/163 180/172/150
f 184/179/129 191/179/164 192/182/151
o Telephone.002
v -0.139722 0.128288 -0.099073
v -0.149023 0.182700 -0.114690
v -0.113664 0.132742 -0.089388
v -0.118048 0.187995 -0.104337
v -0.100514 0.134990 -0.068685
v -0.098905 0.191267 -0.077234
v -0.100514 0.134990 -0.052282
v -0.098905 0.191267 -0.043733
v -0.113664 0.132742 -0.031579
v -0.118048 0.187995 -0.016630
v -0.139722 0.128288 -0.021894
v -0.149023 0.182700 -0.006277
v -0.165780 0.123833 -0.031579
v -0.179998 0.177405 -0.016630
v -0.178930 0.121586 -0.052282
v -0.199142 0.174133 -0.043733
v -0.178930 0.121586 -0.068685
v -0.199142 0.174133 -0.077234
v -0.165780 0.123833 -0.089388
v -0.179998 0.177405 -0.104337
v -0.139722 0.128288 -0.114690
v -0.108747 0.133583 -0.104337
v -0.089603 0.136855 -0.077234
v -0.089603 0.136855 -0.043733
v -0.108747 0.133583 -0.016630
v -0.139722 0.128288 -0.006277
v -0.170697 0.122993 -0.016630
v -0.189841 0.119721 -0.043733
v -0.189841 0.119721 -0.077234
v -0.170697 0.122993 -0.104337
v -0.140819 0.134708 -0.089313
v -0.121352 0.138036 -0.082077
v -0.111528 0.139715 -0.066610
v -0.111528 0.139715 -0.054356
v -0.121352 0.138036 -0.038890
v -0.140819 0.134708 -0.031654
v -0.160287 0.131381 -0.038890
v -0.170111 0.129701 -0.054356
v -0.170111 0.129701 -0.066610
v -0.160287 0.131381 -0.082077
v -0.134051 0.204238 -0.086143
v -0.152175 0.201140 -0.092201
v -0.122850 0.206153 -0.070285
v -0.122850 0.206153 -0.050682
v -0.134051 0.204238 -0.034824
v -0.152175 0.201140 -0.028766
v -0.170299 0.198042 -0.034824
v -0.181501 0.196127 -0.050682
v -0.181501 0.196127 -0.070285
v -0.170299 0.198042 -0.086143
v -0.146751 0.212332 -0.070576
v -0.153880 0.211113 -0.072959
v -0.142345 0.213085 -0.064339
v -0.142345 0.213085 -0.056628
v -0.146751 0.212332 -0.050390
v -0.153880 0.211113 -0.048008
v -0.161009 0.209895 -0.050390
v -0.165415 0.209141 -0.056628
v -0.165415 0.209141 -0.064339
v -0.161009 0.209895 -0.070576
v 0.139722 0.128288 -0.099073
v 0.149023 0.182700 -0.114690
v 0.113664 0.132742 -0.089388
v 0.118048 0.187995 -0.104337
v 0.100514 0.134990 -0.068685
v 0.098905 0.191267 -0.077234
v 0.100514 0.134990 -0.052282
v 0.098905 0.191267 -0.043733
v 0.113664 0.132742 -0.031579
v 0.118048 0.187995 -0.016630
v 0.139722 0.128288 -0.021894
v 0.149023 0.182700 -0.006277
v 0.165780 0.123833 -0.031579
v 0.179998 0.177405 -0.016630
v 0.178930 0.121586 -0.052282
v 0.199142 0.174133 -0.043733
v 0.178930 0.121586 -0.068685
v 0.199142 0.174133 -0.077234
v 0.165780 0.123833 -0.089388
v 0.179998 0.177405 -0.104337
v 0.139722 0.128288 -0.114690
v 0.108747 0.133583 -0.104337
v 0.089603 0.136855 -0.077234
v 0.089603 0.136855 -0.043733
v 0.108747 0.133583 -0.016630
v 0.139722 0.128288 -0.006277
v 0.170697 0.122993 -0.016630
v 0.189841 0.119721 -0.043733
v 0.189841 0.119721 -0.077234
v 0.170697 0.122993 -0.104337
v 0.140819 0.134708 -0.089313
v 0.121352 0.138036 -0.082077
v 0.111528 0.139715 -0.066610
v 0.111528 0.139715 -0.054356
v 0.121352 0.138036 -0.038890
v 0.140819 0.134708 -0.031654
v 0.160287 0.131381 -0.038890
v 0.170111 0.129701 -0.054356
v 0.170111 0.129701 -0.066610
v 0.160287 0.131381 -0.082077
v 0.134051 0.204238 -0.086143
v 0.152175 0.201140 -0.092201
v 0.122850 0.206153 -0.070285
v 0.122850 0.206153 -0.050682
v 0.134051 0.204238 -0.034824
v 0.152175 0.201140 -0.028766
v 0.170299 0.198042 -0.034824
v 0.181501 0.196127 -0.050682
v 0.181501 0.196127 -0.070285
v 0.170299 0.198042 -0.086143
v 0.146751 0.212332 -0.070576
v 0.153880 0.211113 -0.072959
v 0.142345 0.213085 -0.064339
v 0.142345 0.213085 -0.056628
v 0.146751 0.212332 -0.050390
v 0.153880 0.211113 -0.048008
v 0.161009 0.209895 -0.050390
v 0.165415 0.209141 -0.056628
v 0.165415 0.209141 -0.064339
v 0.161009 0.209895 -0.070576
vn 0.3084 0.0527 -0.9498
vn 0.8012 0.1370 -0.5825
vn 0.9857 0.1685 -0.0000
vn 0.8012 0.1370 0.5825
vn 0.3084 0.0527 0.9498
vn -0.3084 -0.0527 0.9498
vn -0.8012 -0.1370 0.5825
vn -0.9857 -0.1685 -0.0000
vn -0.7333 0.6506 -0.1976
vn -0.4722 0.7518 -0.4602
vn -0.5028 0.6925 -0.5174
vn -0.8012 -0.1370 -0.5825
vn -0.3084 -0.0527 -0.9498
vn 0.1685 -0.9857 -0.0000
vn -0.1921 -0.8797 0.4350
vn 0.1402 -0.8199 0.5551
vn -0.2017 -0.8818 0.4264
vn -0.3636 -0.9177 0.1600
vn -0.3667 -0.9188 0.1462
vn -0.3636 -0.9177 -0.1600
vn -0.3667 -0.9188 -0.1462
vn -0.2017 -0.8818 -0.4264
vn 0.1402 -0.8199 -0.5551
vn -0.1921 -0.8797 -0.4350
vn 0.4734 -0.7659 -0.4350
vn 0.4832 -0.7647 -0.4264
vn 0.6478 -0.7448 -0.1600
vn 0.6510 -0.7448 -0.1462
vn 0.6510 -0.7448 0.1462
vn 0.4832 -0.7647 0.4264
vn 0.6478 -0.7448 0.1600
vn 0.4734 -0.7659 0.4350
vn -0.6768 0.7150 0.1753
vn -0.4302 0.8985 -0.0871
vn -0.6768 0.7150 -0.1753
vn -0.7333 0.6506 0.1976
vn -0.4722 0.7518 0.4602
vn -0.5028 0.6925 0.5174
vn -0.1385 0.8101 0.5698
vn 0.2442 0.8202 0.5174
vn -0.1295 0.7578 0.6395
vn 0.4755 0.8572 0.1976
vn 0.1957 0.8660 0.4602
vn 0.2442 0.8202 -0.5174
vn -0.1385 0.8101 -0.5698
vn 0.1957 0.8660 -0.4602
vn 0.4755 0.8572 -0.1976
vn 0.4009 0.8992 0.1753
vn 0.4009 0.8992 -0.1753
vn -0.1295 0.7578 -0.6395
vn 0.0055 0.9734 0.2292
vn 0.1073 0.9904 -0.0871
vn -0.1615 0.9450 0.2843
vn 0.0055 0.9734 -0.2292
vn -0.3285 0.9163 -0.2292
vn -0.3285 0.9163 0.2292
vn 0.1073 0.9904 0.0871
vn -0.1615 0.9450 -0.2843
vn -0.4302 0.8985 0.0871
vn -0.3084 0.0527 -0.9498
vn -0.8012 0.1370 -0.5825
vn -0.9857 0.1685 -0.0000
vn -0.8012 0.1370 0.5825
vn -0.3084 0.0527 0.9498
vn 0.3084 -0.0527 0.9498
vn 0.8012 -0.1370 0.5825
vn 0.9857 -0.1685 -0.0000
vn 0.4722 0.7518 -0.4602
vn 0.7333 0.6506 -0.1976
vn 0.5028 0.6925 -0.5174
vn 0.8012 -0.1370 -0.5825
vn 0.3084 -0.0527 -0.9498
vn -0.1685 -0.9857 -0.0000
vn -0.1402 -0.8199 0.5551
vn 0.1921 -0.8797 0.4350
vn 0.2017 -0.8818 0.4264
vn 0.3636 -0.9177 0.1600
vn 0.3667 -0.9188 0.1462
vn 0.3636 -0.9177 -0.1600
vn 0.3667 -0.9188 -0.1462
vn 0.2017 -0.8818 -0.4264
vn 0.1921 -0.8797 -0.4350
vn -0.1402 -0.8199 -0.5551
vn -0.4734 -0.7659 -0.4350
vn -0.4832 -0.7647 -0.4264
vn -0.6478 -0.7448 -0.1600
vn -0.6510 -0.7448 -0.1462
vn -0.6478 -0.7448 0.1600
vn -0.6510 -0.7448 0.1462
vn -0.4832 -0.7647 0.4264
vn -0.4734 -0.7659 0.4350
vn 0.4302 0.8985 -0.0871
vn 0.6768 0.7150 0.1753
vn 0.6768 0.7150 -0.1753
vn 0.7333 0.6506 0.1976
vn 0.4722 0.7518 0.4602
vn 0.5028 0.6925 0.5174
vn 0.1385 0.8101 0.5698
vn 0.1295 0.7578 0.6395
vn -0.2442 0.8202 0.5174
vn -0.1957 0.8660 0.4602
vn -0.4755 0.8572 0.1976
vn -0.2442 0.8202 -0.5174
vn 0.1385 0.8101 -0.5698
vn 0.1295 0.7578 -0.6395
vn -0.4009 0.8992 0.1753
vn -0.4755 0.8572 -0.1976
vn -0.1957 0.8660 -0.4602
vn -0.0055 0.9734 0.2292
vn 0.1615 0.9450 -0.2843
vn 0.1615 0.9450 0.2843
vn -0.4009 0.8992 -0.1753
vn -0.0055 0.9734 -0.2292
vn 0.3285 0.9163 -0.2292
vn -0.1073 0.9904 -0.0871
vn 0.3285 0.9163 0.2292
vn 0.4302 0.8985 0.0871
vn -0.1073 0.9904 0.0871
vt 1.000000 1.000000
vt 0.900000 0.500000
vt 1.000000 0.500000
vt 0.800000 1.000000
vt 0.800000 0.500000
vt 0.700000 0.500000
vt 0.700000 1.000000
vt 0.600000 0.500000
vt 0.600000 1.000000
vt 0.500000 0.500000
vt 0.500000 1.000000
vt 0.400000 0.500000
vt 0.400000 1.000000
vt 0.300000 0.500000
vt 0.300000 1.000000
vt 0.200000 0.500000
vt 0.200000 1.000000
vt 0.100000 1.000000
vt 0.100000 0.500000
vt -0.000000 1.000000
vt -0.000000 0.500000
vt 0.750000 0.413683
vt 0.891068 0.444164
vt 0.876432 0.372603
vt 0.978254 0.324164
vt 0.940234 0.284787
vt 0.978254 0.175836
vt 0.940234 0.215213
vt 0.876432 0.127397
vt 0.891068 0.055836
vt 0.750000 0.086317
vt 0.750000 0.010000
vt 0.608932 0.055836
vt 0.623568 0.127398
vt 0.521746 0.175836
vt 0.559766 0.215213
vt 0.521746 0.324164
vt 0.559766 0.284787
vt 0.623568 0.372602
vt 0.608932 0.444164
vt 0.750000 0.490000
vt 0.900000 1.000000
vt 0.021746 0.324164
vt 0.391068 0.055836
vt 0.478254 0.324164
vt 0.250000 0.490000
vt 0.391068 0.444164
vt 0.108932 0.444164
vt 0.021746 0.175836
vt 0.108932 0.055836
vt 0.250000 0.010000
vt 0.478254 0.175836
s 1
f 197/198/165 217/199/165 216/200/165
f 217/199/166 201/201/166 218/202/166
f 201/201/167 219/203/167 218/202/167
f 203/204/168 220/205/168 219/203/168
f 205/206/169 221/207/169 220/205/169
f 207/208/170 222/209/170 221/207/170
f 209/210/171 223/211/171 222/209/171
f 211/212/172 224/213/172 223/211/172
f 213/214/173 245/215/174 215/215/175
f 224/213/176 215/215/176 225/216/176
f 225/216/177 197/217/177 216/218/177
f 196/219/178 217/220/178 198/221/178
f 198/221/178 218/222/178 200/223/178
f 200/223/178 219/224/178 202/225/178
f 204/226/178 219/224/178 220/227/178
f 206/228/178 220/227/178 221/229/178
f 206/228/178 222/230/178 208/231/178
f 208/231/178 223/232/178 210/233/178
f 210/233/178 224/234/178 212/235/178
f 214/236/178 224/234/178 225/237/178
f 196/219/178 225/237/178 216/238/178
f 229/225/178 233/233/178 235/236/178
f 227/221/179 196/219/180 198/221/181
f 228/223/182 198/221/181 200/223/183
f 229/225/184 200/223/183 202/225/185
f 204/226/186 229/225/184 202/225/185
f 206/228/187 230/226/188 204/226/186
f 232/231/189 206/228/187 208/231/190
f 233/233/191 208/231/190 210/233/192
f 212/235/193 233/233/191 210/233/192
f 214/236/194 234/235/195 212/235/193
f 196/219/180 235/236/196 214/236/194
f 243/212/197 254/214/198 244/214/199
f 213/214/173 243/212/197 244/214/199
f 211/212/200 242/210/201 243/212/197
f 209/210/202 241/208/203 242/210/201
f 205/206/204 241/208/203 207/208/205
f 203/204/206 240/206/207 205/206/204
f 199/239/208 237/198/209 236/239/210
f 201/201/211 239/204/212 203/204/206
f 201/201/211 236/239/210 238/201/213
f 215/215/175 237/217/209 197/217/214
f 254/240/198 250/241/215 248/242/216
f 240/206/207 251/208/217 241/208/203
f 238/201/213 246/239/218 248/201/216
f 244/214/199 255/215/219 245/215/174
f 242/210/201 251/208/217 252/210/220
f 239/204/212 248/201/216 249/204/221
f 245/215/174 247/217/222 237/217/209
f 243/212/197 252/210/220 253/212/223
f 239/204/212 250/206/215 240/206/207
f 236/239/210 247/198/222 246/239/218
f 277/199/224 257/198/224 276/200/224
f 277/199/225 261/201/225 259/239/225
f 279/203/226 261/201/226 278/202/226
f 280/205/227 263/204/227 279/203/227
f 281/207/228 265/206/228 280/205/228
f 282/209/229 267/208/229 281/207/229
f 283/211/230 269/210/230 282/209/230
f 284/213/231 271/212/231 283/211/231
f 305/215/232 273/214/233 275/215/234
f 284/213/235 275/215/235 273/214/235
f 276/218/236 275/215/236 285/216/236
f 277/220/237 256/219/237 258/221/237
f 278/222/237 258/221/237 260/223/237
f 279/224/237 260/223/237 262/225/237
f 264/226/237 279/224/237 262/225/237
f 266/228/237 280/227/237 264/226/237
f 282/230/237 266/228/237 268/231/237
f 283/232/237 268/231/237 270/233/237
f 284/234/237 270/233/237 272/235/237
f 274/236/237 284/234/237 272/235/237
f 256/219/237 285/237/237 274/236/237
f 293/233/237 289/225/237 287/221/237
f 256/219/238 287/221/239 258/221/240
f 258/221/240 288/223/241 260/223/242
f 260/223/242 289/225/243 262/225/244
f 264/226/245 289/225/243 290/226/246
f 266/228/247 290/226/246 291/228/247
f 266/228/247 292/231/248 268/231/249
f 268/231/249 293/233/250 270/233/251
f 270/233/251 294/235/252 272/235/253
f 274/236/254 294/235/252 295/236/255
f 256/219/238 295/236/255 286/219/238
f 314/214/256 303/212/257 304/214/258
f 304/214/258 271/212/259 273/214/233
f 271/212/259 302/210/260 269/210/261
f 269/210/261 301/208/262 267/208/263
f 301/208/262 265/206/264 267/208/263
f 300/206/265 263/204/266 265/206/264
f 259/239/267 297/198/268 257/198/269
f 299/204/270 261/201/271 263/204/266
f 261/201/271 296/239/272 259/239/267
f 297/217/268 275/215/234 257/217/269
f 310/241/273 314/240/256 307/243/274
f 311/208/275 300/206/265 301/208/262
f 298/201/276 306/239/277 296/239/272
f 315/215/278 304/214/258 305/215/232
f 302/210/260 311/208/275 301/208/262
f 299/204/270 308/201/279 298/201/276
f 307/217/274 305/215/232 297/217/268
f 303/212/257 312/210/280 302/210/260
f 310/206/273 299/204/270 300/206/265
f 296/239/272 307/198/274 297/198/268
f 197/198/165 199/239/165 217/199/165
f 217/199/166 199/239/166 201/201/166
f 201/201/167 203/204/167 219/203/167
f 203/204/168 205/206/168 220/205/168
f 205/206/169 207/208/169 221/207/169
f 207/208/170 209/210/170 222/209/170
f 209/210/171 211/212/171 223/211/171
f 211/212/172 213/214/172 224/213/172
f 213/214/173 244/214/199 245/215/174
f 224/213/176 213/214/176 215/215/176
f 225/216/177 215/215/177 197/217/177
f 196/219/178 216/238/178 217/220/178
f 198/221/178 217/220/178 218/222/178
f 200/223/178 218/222/178 219/224/178
f 204/226/178 202/225/178 219/224/178
f 206/228/178 204/226/178 220/227/178
f 206/228/178 221/229/178 222/230/178
f 208/231/178 222/230/178 223/232/178
f 210/233/178 223/232/178 224/234/178
f 214/236/178 212/235/178 224/234/178
f 196/219/178 214/236/178 225/237/178
f 235/236/178 226/219/178 227/221/178
f 227/221/178 228/223/178 229/225/178
f 229/225/178 230/226/178 231/228/178
f 231/228/178 232/231/178 233/233/178
f 233/233/178 234/235/178 235/236/178
f 235/236/178 227/221/178 229/225/178
f 229/225/178 231/228/178 233/233/178
f 227/221/179 226/219/180 196/219/180
f 228/223/182 227/221/179 198/221/181
f 229/225/184 228/223/182 200/223/183
f 204/226/186 230/226/188 229/225/184
f 206/228/187 231/228/187 230/226/188
f 232/231/189 231/228/187 206/228/187
f 233/233/191 232/231/189 208/231/190
f 212/235/193 234/235/195 233/233/191
f 214/236/194 235/236/196 234/235/195
f 196/219/180 226/219/180 235/236/196
f 243/212/197 253/212/223 254/214/198
f 213/214/173 211/212/200 243/212/197
f 211/212/200 209/210/202 242/210/201
f 209/210/202 207/208/205 241/208/203
f 205/206/204 240/206/207 241/208/203
f 203/204/206 239/204/212 240/206/207
f 199/239/208 197/198/214 237/198/209
f 201/201/211 238/201/213 239/204/212
f 201/201/211 199/239/208 236/239/210
f 215/215/175 245/215/174 237/217/209
f 248/242/216 246/244/218 247/243/222
f 247/243/222 255/245/219 254/240/198
f 254/240/198 253/246/223 252/247/220
f 252/247/220 251/248/217 250/241/215
f 250/241/215 249/249/221 248/242/216
f 248/242/216 247/243/222 254/240/198
f 254/240/198 252/247/220 250/241/215
f 240/206/207 250/206/215 251/208/217
f 238/201/213 236/239/210 246/239/218
f 244/214/199 254/214/198 255/215/219
f 242/210/201 241/208/203 251/208/217
f 239/204/212 238/201/213 248/201/216
f 245/215/174 255/215/219 247/217/222
f 243/212/197 242/210/201 252/210/220
f 239/204/212 249/204/221 250/206/215
f 236/239/210 237/198/209 247/198/222
f 277/199/224 259/239/224 257/198/224
f 277/199/225 278/202/225 261/201/225
f 279/203/226 263/204/226 261/201/226
f 280/205/227 265/206/227 263/204/227
f 281/207/228 267/208/228 265/206/228
f 282/209/229 269/210/229 267/208/229
f 283/211/230 271/212/230 269/210/230
f 284/213/231 273/214/231 271/212/231
f 305/215/232 304/214/258 273/214/233
f 284/213/235 285/216/235 275/215/235
f 276/218/236 257/217/236 275/215/236
f 277/220/237 276/238/237 256/219/237
f 278/222/237 277/220/237 258/221/237
f 279/224/237 278/222/237 260/223/237
f 264/226/237 280/227/237 279/224/237
f 266/228/237 281/229/237 280/227/237
f 282/230/237 281/229/237 266/228/237
f 283/232/237 282/230/237 268/231/237
f 284/234/237 283/232/237 270/233/237
f 274/236/237 285/237/237 284/234/237
f 256/219/237 276/238/237 285/237/237
f 287/221/237 286/219/237 295/236/237
f 295/236/237 294/235/237 293/233/237
f 293/233/237 292/231/237 291/228/237
f 291/228/237 290/226/237 289/225/237
f 289/225/237 288/223/237 287/221/237
f 287/221/237 295/236/237 293/233/237
f 293/233/237 291/228/237 289/225/237
f 256/219/238 286/219/238 287/221/239
f 258/221/240 287/221/239 288/223/241
f 260/223/242 288/223/241 289/225/243
f 264/226/245 262/225/244 289/225/243
f 266/228/247 264/226/245 290/226/246
f 266/228/247 291/228/247 292/231/248
f 268/231/249 292/231/248 293/233/250
f 270/233/251 293/233/250 294/235/252
f 274/236/254 272/235/253 294/235/252
f 256/219/238 274/236/254 295/236/255
f 314/214/256 313/212/281 303/212/257
f 304/214/258 303/212/257 271/212/259
f 271/212/259 303/212/257 302/210/260
f 269/210/261 302/210/260 301/208/262
f 301/208/262 300/206/265 265/206/264
f 300/206/265 299/204/270 263/204/266
f 259/239/267 296/239/272 297/198/268
f 299/204/270 298/201/276 261/201/271
f 261/201/271 298/201/276 296/239/272
f 297/217/268 305/215/232 275/215/234
f 307/243/274 306/244/277 308/242/279
f 308/242/279 309/249/282 310/241/273
f 310/241/273 311/248/275 312/247/280
f 312/247/280 313/246/281 314/240/256
f 314/240/256 315/245/278 307/243/274
f 307/243/274 308/242/279 310/241/273
f 310/241/273 312/247/280 314/240/256
f 311/208/275 310/206/273 300/206/265
f 298/201/276 308/201/279 306/239/277
f 315/215/278 314/214/256 304/214/258
f 302/210/260 312/210/280 311/208/275
f 299/204/270 309/204/282 308/201/279
f 307/217/274 315/215/278 305/215/232
f 303/212/257 313/212/281 312/210/280
f 310/206/273 309/204/282 299/204/270
f 296/239/272 306/239/277 307/198/274
