# Blender 4.0.2
# www.blender.org
mtllib Crowbar.mtl
o Crowbar
v 0.000000 -0.426996 -0.101171
v 0.021156 -0.428806 -0.098025
v 0.029919 -0.433174 -0.090430
v 0.021156 -0.437542 -0.082835
v -0.000000 -0.439351 -0.079689
v -0.021156 -0.437542 -0.082835
v -0.029919 -0.433174 -0.090430
v -0.021156 -0.428806 -0.098025
v 0.000000 0.275552 0.143106
v 0.021156 0.273104 0.140652
v 0.029919 0.267193 0.134729
v 0.021156 0.261282 0.128805
v -0.000000 0.258833 0.126351
v -0.021156 0.261282 0.128805
v -0.029919 0.267193 0.134729
v -0.021156 0.273104 0.140652
v 0.000000 0.352240 0.065481
v 0.021156 0.344242 0.063142
v 0.029919 0.324933 0.057495
v 0.021156 0.305624 0.051848
v -0.000000 0.297626 0.049509
v -0.021156 0.305624 0.051848
v -0.029919 0.324933 0.057495
v -0.021156 0.344242 0.063142
v 0.000000 0.339734 0.003543
v 0.021156 0.332989 0.008436
v 0.029919 0.316704 0.020248
v 0.021156 0.300419 0.032061
v -0.000000 0.293673 0.036954
v -0.021156 0.300419 0.032061
v -0.029919 0.316704 0.020248
v -0.021156 0.332989 0.008436
v 0.000000 0.284927 -0.030362
v 0.021156 0.282744 -0.022320
v 0.029919 0.277475 -0.002904
v 0.021156 0.272205 0.016512
v -0.000000 0.270022 0.024554
v -0.021156 0.272205 0.016512
v -0.029919 0.277475 -0.002904
v -0.021156 0.282744 -0.022320
v 0.000000 -0.319440 -0.028397
v 0.021156 -0.321705 -0.020378
v 0.029919 -0.327173 -0.001018
v 0.021156 -0.332642 0.018343
v -0.000000 -0.334907 0.026362
v -0.021156 -0.332642 0.018343
v -0.029919 -0.327173 -0.001018
v -0.021156 -0.321705 -0.020378
v 0.000000 0.326513 0.092723
v 0.021156 0.319183 0.089258
v 0.029919 0.301487 0.080891
v 0.021156 0.293559 0.077001
v -0.000000 0.286229 0.073535
v -0.021156 0.293559 0.077001
v -0.029919 0.301487 0.080891
v -0.021156 0.319183 0.089258
v -0.008763 0.241725 0.177451
v -0.021156 0.239277 0.174998
v -0.029919 0.233366 0.169074
v -0.021156 0.227455 0.163150
v -0.008763 0.225007 0.160697
v 0.008757 0.225007 0.160697
v 0.021156 0.227455 0.163150
v 0.029919 0.233366 0.169074
v 0.021156 0.239277 0.174998
v 0.008757 0.241725 0.178363
v 0.000000 -0.370043 -0.044346
v 0.021156 -0.373367 -0.039441
v 0.029919 -0.381391 -0.027601
v 0.021156 -0.389414 -0.015761
v -0.000000 -0.392738 -0.010856
v -0.021156 -0.389414 -0.015761
v -0.021156 -0.373367 -0.039441
v -0.029919 -0.381391 -0.027601
vn -0.0000 -0.8669 -0.4985
vn -0.3416 0.6782 0.6507
vn 0.3416 0.6782 0.6507
vn 0.9030 0.3034 0.3041
vn 0.7098 -0.6351 -0.3046
vn 0.3579 -0.8437 -0.4002
vn -0.3579 -0.8437 -0.4002
vn -0.7098 -0.6351 -0.3046
vn -0.9030 0.3034 0.3041
vn -0.3293 0.9256 -0.1869
vn 0.3293 0.9256 -0.1869
vn 0.8969 0.4331 -0.0891
vn 0.8955 -0.4345 0.0960
vn 0.3198 -0.9163 0.2410
vn -0.3198 -0.9163 0.2410
vn -0.8955 -0.4345 0.0960
vn -0.8969 0.4331 -0.0891
vn -0.3424 0.4943 -0.7990
vn 0.3424 0.4943 -0.7990
vn 0.9044 0.2227 -0.3639
vn 0.9033 -0.2181 0.3695
vn 0.3358 -0.4547 0.8250
vn -0.3358 -0.4547 0.8250
vn -0.9033 -0.2181 0.3695
vn -0.9044 0.2227 -0.3639
vn -0.3551 -0.0030 -0.9348
vn 0.3551 -0.0030 -0.9348
vn 0.9113 -0.0013 -0.4117
vn 0.9113 0.0013 0.4117
vn 0.3551 0.0028 0.9348
vn -0.3551 0.0028 0.9348
vn -0.9113 0.0013 0.4117
vn -0.9113 -0.0013 -0.4117
vn -0.2638 0.7006 -0.6630
vn 0.2638 0.7006 -0.6630
vn 0.8428 0.4153 -0.3423
vn 0.8373 -0.4442 0.3187
vn 0.2517 -0.8014 0.5427
vn -0.2517 -0.8014 0.5427
vn -0.8373 -0.4442 0.3187
vn -0.8428 0.4153 -0.3423
vn -0.6818 0.6170 0.3930
vn -0.6818 -0.6170 -0.3930
vn -0.1576 -0.8381 -0.5222
vn 0.1576 -0.8381 -0.5222
vn 0.6818 -0.6170 -0.3930
vn 0.6818 0.6170 0.3930
vn 0.1614 0.7348 0.6588
vn -0.1614 0.7348 0.6588
vn -0.0000 -0.7079 0.7064
vn -0.1616 0.7234 0.6713
vn -0.6906 0.5153 0.5075
vn -0.6906 -0.5153 -0.5075
vn -0.1617 -0.6822 -0.7131
vn 0.9839 -0.1266 0.1263
vn 0.0519 -0.7069 0.7054
vn 0.1617 -0.6822 -0.7131
vn 0.6906 -0.5153 -0.5075
vn 0.6906 0.5153 0.5075
vn 0.1615 0.7319 0.6621
vn -0.9839 -0.1265 0.1263
vn -0.9164 0.1386 -0.3756
vn -0.9114 -0.2119 0.3527
vn -0.3525 -0.5064 0.7869
vn 0.3525 -0.5064 0.7869
vn 0.9114 -0.2119 0.3527
vn 0.9164 0.1386 -0.3756
vn 0.3663 0.2797 -0.8875
vn -0.3663 0.2797 -0.8875
vn -0.3310 0.6860 0.6479
vn 0.3310 0.6860 0.6479
vn 0.8976 0.3181 0.3052
vn 0.8955 -0.3143 -0.3150
vn 0.3623 -0.8404 -0.4031
vn -0.3623 -0.8404 -0.4031
vn -0.8955 -0.3143 -0.3150
vn -0.8976 0.3181 0.3052
vn -0.3378 0.9219 -0.1896
vn 0.3378 0.9219 -0.1896
vn 0.9033 0.4189 -0.0926
vn 0.9060 -0.4094 0.1077
vn 0.3500 -0.8935 0.2813
vn -0.3500 -0.8935 0.2813
vn -0.9060 -0.4094 0.1077
vn -0.9033 0.4189 -0.0926
vn -0.3537 0.4883 -0.7978
vn 0.3537 0.4883 -0.7978
vn 0.9113 0.2092 -0.3545
vn 0.9125 -0.1974 0.3583
vn 0.3590 -0.4334 0.8266
vn -0.3590 -0.4334 0.8266
vn -0.9125 -0.1974 0.3583
vn -0.9113 0.2092 -0.3545
vn -0.3542 -0.0030 -0.9352
vn 0.3542 -0.0030 -0.9352
vn 0.9109 -0.0013 -0.4127
vn 0.9109 0.0012 0.4126
vn 0.3542 0.0028 0.9352
vn -0.3542 0.0028 0.9352
vn -0.9109 0.0012 0.4126
vn -0.9109 -0.0013 -0.4127
vn -0.1634 0.6968 -0.6984
vn 0.1634 0.6968 -0.6984
vn 0.6917 0.5246 -0.4964
vn 0.6833 -0.5634 0.4644
vn 0.1543 -0.8028 0.5760
vn -0.1543 -0.8028 0.5760
vn -0.6833 -0.5634 0.4644
vn -0.6917 0.5246 -0.4964
vn -0.9060 0.3151 0.2825
vn -0.7081 -0.5993 -0.3734
vn -0.3576 -0.8290 -0.4300
vn 0.3576 -0.8290 -0.4300
vn 0.7081 -0.5993 -0.3734
vn 0.9060 0.3151 0.2825
vn 0.3388 0.6615 0.6691
vn -0.3388 0.6615 0.6691
vn -0.2694 0.6861 0.6758
vn -0.2693 -0.6861 -0.6758
vn 0.0074 -0.7263 0.6873
vn 0.2692 -0.6862 -0.6758
vn 0.3143 0.6764 0.6661
vn -0.9843 -0.1283 0.1214
vn -0.8504 0.2316 -0.4724
vn -0.8504 -0.2316 0.4724
vn -0.2693 -0.4959 0.8256
vn 0.2693 -0.4959 0.8256
vn 0.8504 -0.2316 0.4724
vn 0.8504 0.2316 -0.4724
vn 0.2623 0.3341 -0.9053
vn -0.2623 0.3341 -0.9053
vt 0.714286 0.000000
vt 0.428571 0.000000
vt 0.571429 0.000000
vt 0.857143 0.000000
vt 0.285714 0.000000
vt 1.000000 0.000000
vt 0.142857 0.000000
vt 0.000000 0.000000
vt 0.100000 1.000000
vt 0.200000 0.875000
vt 0.100000 0.875000
vt 0.200000 0.125000
vt 0.100000 0.000000
vt 0.100000 0.125000
vt 0.200000 0.250000
vt 0.100000 0.250000
vt 0.200000 0.375000
vt 0.100000 0.375000
vt 0.200000 0.500000
vt 0.100000 0.500000
vt 0.100000 0.625000
vt 0.100000 0.750000
vt 0.200000 0.625000
vt 0.200000 0.750000
vt 0.400000 1.000000
vt 0.200000 1.000000
vt 0.400000 0.000000
vt 0.200000 0.000000
vt 0.400000 0.125000
vt 0.400000 0.250000
vt 0.400000 0.375000
vt 0.400000 0.625000
vt 0.400000 0.750000
vt 0.400000 0.875000
vt 0.600000 1.000000
vt 0.600000 0.000000
vt 0.600000 0.125000
vt 0.600000 0.250000
vt 0.400000 0.500000
vt 0.600000 0.375000
vt 0.600000 0.625000
vt 0.600000 0.750000
vt 0.600000 0.875000
vt 0.800000 1.000000
vt 0.800000 0.000000
vt 0.800000 0.125000
vt 0.800000 0.250000
vt 0.600000 0.500000
vt 0.800000 0.375000
vt 0.800000 0.625000
vt 0.800000 0.750000
vt 0.800000 0.875000
vt 0.900000 1.000000
vt 1.000000 0.875000
vt 0.900000 0.875000
vt 1.000000 0.125000
vt 0.900000 0.000000
vt 0.900000 0.125000
vt 1.000000 0.250000
vt 0.900000 0.250000
vt 1.000000 0.375000
vt 0.900000 0.375000
vt 1.000000 0.500000
vt 0.900000 0.500000
vt 0.900000 0.625000
vt 0.900000 0.750000
vt 1.000000 0.625000
vt 1.000000 0.750000
vt 0.000000 0.875000
vt 0.000000 0.750000
vt 0.000000 0.625000
vt 0.000000 0.500000
vt 0.000000 0.375000
vt 0.000000 0.250000
vt 0.000000 0.125000
vt 0.000000 1.000000
vt 0.800000 0.500000
vt 1.000000 1.000000
s 0
f 6/1/1 4/2/1 5/3/1
f 7/4/1 4/2/1 6/1/1
f 7/4/1 3/5/1 4/2/1
f 8/6/1 3/5/1 7/4/1
f 8/6/1 2/7/1 3/5/1
f 1/8/1 2/7/1 8/6/1
f 49/9/2 24/10/2 56/11/2
f 18/12/3 49/13/3 50/14/3
f 19/15/4 50/14/4 51/16/4
f 20/17/5 51/16/5 52/18/5
f 21/19/6 52/18/6 53/20/6
f 54/21/7 21/19/7 53/20/7
f 55/22/8 22/23/8 54/21/8
f 56/11/9 23/24/9 55/22/9
f 25/25/10 24/10/10 17/26/10
f 18/12/11 25/27/11 17/28/11
f 19/15/12 26/29/12 18/12/12
f 20/17/13 27/30/13 19/15/13
f 21/19/14 28/31/14 20/17/14
f 30/32/15 21/19/15 22/23/15
f 31/33/16 22/23/16 23/24/16
f 32/34/17 23/24/17 24/10/17
f 33/35/18 32/34/18 25/25/18
f 26/29/19 33/36/19 25/27/19
f 27/30/20 34/37/20 26/29/20
f 28/31/21 35/38/21 27/30/21
f 29/39/22 36/40/22 28/31/22
f 38/41/23 29/39/23 30/32/23
f 39/42/24 30/32/24 31/33/24
f 40/43/25 31/33/25 32/34/25
f 41/44/26 40/43/26 33/35/26
f 34/37/27 41/45/27 33/36/27
f 35/38/28 42/46/28 34/37/28
f 36/40/29 43/47/29 35/38/29
f 37/48/30 44/49/30 36/40/30
f 46/50/31 37/48/31 38/41/31
f 47/51/32 38/41/32 39/42/32
f 48/52/33 39/42/33 40/43/33
f 67/53/34 8/54/34 73/55/34
f 2/56/35 67/57/35 68/58/35
f 3/59/36 68/58/36 69/60/36
f 4/61/37 69/60/37 70/62/37
f 5/63/38 70/62/38 71/64/38
f 72/65/39 5/63/39 71/64/39
f 74/66/40 6/67/40 72/65/40
f 73/55/41 7/68/41 74/66/41
f 16/69/42 55/22/42 15/70/42
f 55/22/43 14/71/43 15/70/43
f 54/21/44 13/72/44 14/71/44
f 13/72/45 52/18/45 12/73/45
f 12/73/46 51/16/46 11/74/46
f 51/16/47 10/75/47 11/74/47
f 50/14/48 9/8/48 10/75/48
f 9/76/49 56/11/49 16/69/49
f 58/6/50 60/1/50 61/3/50
f 16/6/51 57/8/51 9/8/51
f 59/4/52 16/6/52 15/4/52
f 60/1/53 15/4/53 14/1/53
f 61/3/54 14/1/54 13/3/54
f 9/8/55 61/3/55 13/3/55
f 63/2/56 65/7/56 66/8/56
f 12/2/57 62/3/57 13/3/57
f 11/5/58 63/2/58 12/2/58
f 10/7/59 64/5/59 11/5/59
f 66/8/60 10/7/60 9/8/60
f 62/3/61 9/8/61 13/3/61
f 73/55/62 47/51/62 48/52/62
f 47/51/63 72/65/63 46/50/63
f 46/50/64 71/64/64 45/77/64
f 71/64/65 44/49/65 45/77/65
f 70/62/66 43/47/66 44/49/66
f 43/47/67 68/58/67 42/46/67
f 42/46/68 67/57/68 41/45/68
f 67/53/69 48/52/69 41/44/69
f 49/9/70 17/26/70 24/10/70
f 18/12/71 17/28/71 49/13/71
f 19/15/72 18/12/72 50/14/72
f 20/17/73 19/15/73 51/16/73
f 21/19/74 20/17/74 52/18/74
f 54/21/75 22/23/75 21/19/75
f 55/22/76 23/24/76 22/23/76
f 56/11/77 24/10/77 23/24/77
f 25/25/78 32/34/78 24/10/78
f 18/12/79 26/29/79 25/27/79
f 19/15/80 27/30/80 26/29/80
f 20/17/81 28/31/81 27/30/81
f 21/19/82 29/39/82 28/31/82
f 30/32/83 29/39/83 21/19/83
f 31/33/84 30/32/84 22/23/84
f 32/34/85 31/33/85 23/24/85
f 33/35/86 40/43/86 32/34/86
f 26/29/87 34/37/87 33/36/87
f 27/30/88 35/38/88 34/37/88
f 28/31/89 36/40/89 35/38/89
f 29/39/90 37/48/90 36/40/90
f 38/41/91 37/48/91 29/39/91
f 39/42/92 38/41/92 30/32/92
f 40/43/93 39/42/93 31/33/93
f 41/44/94 48/52/94 40/43/94
f 34/37/95 42/46/95 41/45/95
f 35/38/96 43/47/96 42/46/96
f 36/40/97 44/49/97 43/47/97
f 37/48/98 45/77/98 44/49/98
f 46/50/99 45/77/99 37/48/99
f 47/51/100 46/50/100 38/41/100
f 48/52/101 47/51/101 39/42/101
f 67/53/102 1/78/102 8/54/102
f 2/56/103 1/6/103 67/57/103
f 3/59/104 2/56/104 68/58/104
f 4/61/105 3/59/105 69/60/105
f 5/63/106 4/61/106 70/62/106
f 72/65/107 6/67/107 5/63/107
f 74/66/108 7/68/108 6/67/108
f 73/55/109 8/54/109 7/68/109
f 16/69/110 56/11/110 55/22/110
f 55/22/111 54/21/111 14/71/111
f 54/21/112 53/20/112 13/72/112
f 13/72/113 53/20/113 52/18/113
f 12/73/114 52/18/114 51/16/114
f 51/16/115 50/14/115 10/75/115
f 50/14/116 49/13/116 9/8/116
f 9/76/117 49/9/117 56/11/117
f 61/3/50 57/8/50 58/6/50
f 58/6/50 59/4/50 60/1/50
f 16/6/118 58/6/118 57/8/118
f 59/4/52 58/6/52 16/6/52
f 60/1/53 59/4/53 15/4/53
f 61/3/119 60/1/119 14/1/119
f 9/8/55 57/8/55 61/3/55
f 66/8/120 62/3/120 63/2/120
f 63/2/50 64/5/50 65/7/50
f 12/2/121 63/2/121 62/3/121
f 11/5/58 64/5/58 63/2/58
f 10/7/59 65/7/59 64/5/59
f 66/8/122 65/7/122 10/7/122
f 62/3/123 66/8/123 9/8/123
f 73/55/124 74/66/124 47/51/124
f 47/51/125 74/66/125 72/65/125
f 46/50/126 72/65/126 71/64/126
f 71/64/127 70/62/127 44/49/127
f 70/62/128 69/60/128 43/47/128
f 43/47/129 69/60/129 68/58/129
f 42/46/130 68/58/130 67/57/130
f 67/53/131 73/55/131 48/52/131
