# Blender 4.5.14 LTS
# www.blender.org
mtllib armchair_red.mtl
o armchair_red
v -0.430000 0.000000 0.375000 0.7608 0.7608 0.7608
v -0.430000 0.000000 0.325000 0.7451 0.7451 0.7451
v -0.433750 0.100000 0.378750 0.7137 0.7137 0.7137
v -0.433750 0.100000 0.321250 0.7137 0.7137 0.7137
v -0.380000 0.000000 0.375000 0.7412 0.7412 0.7412
v -0.380000 0.000000 0.325000 0.7176 0.7176 0.7176
v -0.376250 0.100000 0.321250 0.7137 0.7137 0.7137
v -0.376250 0.100000 0.378750 0.7137 0.7137 0.7137
v -0.433750 0.100000 -0.321250 0.7137 0.7137 0.7137
v -0.376250 0.100000 -0.378750 0.7098 0.7098 0.7098
v -0.430000 0.000000 -0.325000 0.7412 0.7412 0.7412
v -0.433750 0.100000 -0.378750 0.7137 0.7137 0.7137
v -0.380000 0.000000 -0.375000 0.7451 0.7451 0.7451
v -0.376250 0.100000 -0.321250 0.7098 0.7098 0.7098
v -0.430000 0.000000 -0.375000 0.7647 0.7647 0.7647
v -0.380000 0.000000 -0.325000 0.7137 0.7137 0.7137
v 0.430000 0.000000 0.375000 0.7647 0.7647 0.7647
v 0.430000 0.000000 0.325000 0.7490 0.7490 0.7490
v 0.433750 0.100000 0.321250 0.7137 0.7137 0.7137
v 0.376250 0.100000 0.378750 0.7137 0.7137 0.7137
v 0.376250 0.100000 0.321250 0.7137 0.7137 0.7137
v 0.433750 0.100000 0.378750 0.7098 0.7098 0.7098
v 0.380000 0.000000 0.325000 0.7137 0.7137 0.7137
v 0.380000 0.000000 0.375000 0.7372 0.7372 0.7372
v 0.380000 0.000000 -0.325000 0.7098 0.7098 0.7098
v 0.430000 0.000000 -0.325000 0.7412 0.7412 0.7412
v 0.376250 0.100000 -0.321250 0.7098 0.7098 0.7098
v 0.430000 0.000000 -0.375000 0.7647 0.7647 0.7647
v 0.380000 0.000000 -0.375000 0.7412 0.7412 0.7412
v 0.433750 0.100000 -0.321250 0.7098 0.7098 0.7098
v 0.433750 0.100000 -0.378750 0.7098 0.7098 0.7098
v 0.376250 0.100000 -0.378750 0.7098 0.7098 0.7098
v -0.480000 0.100000 -0.425000 0.8117 0.8117 0.8117
v -0.480000 0.300000 -0.425000 0.8862 0.8862 0.8862
v 0.480000 0.100000 0.425000 0.8157 0.8157 0.8157
v 0.480000 0.100000 -0.425000 0.8157 0.8157 0.8157
v -0.480000 0.100000 0.425000 0.8157 0.8157 0.8157
v -0.480000 0.700000 -0.225000 0.9764 0.9764 0.9764
v 0.480000 0.300000 -0.425000 0.8823 0.8823 0.8823
v -0.480000 0.300000 -0.225000 0.7921 0.7921 0.7921
v 0.480000 0.700000 -0.425000 1.0000 1.0000 1.0000
v 0.480000 0.700000 -0.225000 0.9764 0.9764 0.9764
v 0.288000 0.800000 -0.265000 0.9882 0.9882 0.9882
v -0.480000 0.700000 -0.425000 1.0000 1.0000 1.0000
v 0.288000 0.800000 -0.385000 1.0000 1.0000 1.0000
v -0.288000 0.800000 -0.265000 0.9843 0.9843 0.9843
v -0.288000 0.800000 -0.385000 1.0000 1.0000 1.0000
v -0.300000 0.300000 -0.225000 0.6902 0.6902 0.6902
v -0.480000 0.468000 -0.225000 0.8509 0.8509 0.8509
v -0.480000 0.300000 0.425000 0.8784 0.8784 0.8784
v -0.300000 0.468000 0.425000 0.9647 0.9647 0.9647
v -0.300000 0.300000 0.425000 0.8235 0.8235 0.8235
v -0.480000 0.468000 0.425000 1.0000 1.0000 1.0000
v -0.336000 0.580000 0.295000 0.9843 0.9843 0.9843
v -0.300000 0.468000 -0.225000 0.6745 0.6745 0.6745
v -0.444000 0.580000 -0.095000 0.9372 0.9372 0.9372
v -0.336000 0.580000 -0.095000 0.8666 0.8666 0.8666
v -0.444000 0.580000 0.295000 1.0000 1.0000 1.0000
v 0.300000 0.300000 -0.225000 0.6902 0.6902 0.6902
v 0.480000 0.468000 -0.225000 0.8509 0.8509 0.8509
v 0.480000 0.300000 0.425000 0.8745 0.8745 0.8745
v 0.480000 0.300000 -0.225000 0.7882 0.7882 0.7882
v 0.300000 0.300000 0.425000 0.8157 0.8157 0.8157
v 0.300000 0.468000 0.425000 0.9647 0.9647 0.9647
v 0.444000 0.580000 0.295000 1.0000 1.0000 1.0000
v 0.336000 0.580000 0.295000 0.9843 0.9843 0.9843
v 0.444000 0.580000 -0.095000 0.9451 0.9451 0.9451
v 0.300000 0.468000 -0.225000 0.6745 0.6745 0.6745
v 0.336000 0.580000 -0.095000 0.8666 0.8666 0.8666
v 0.480000 0.468000 0.425000 1.0000 1.0000 1.0000
v 0.290000 0.300000 -0.175000 0.6785 0.6785 0.6785
v -0.290000 0.370000 -0.175000 0.6667 0.6667 0.6667
v 0.290000 0.370000 -0.175000 0.6706 0.6706 0.6706
v -0.290000 0.300000 -0.175000 0.6785 0.6785 0.6785
v -0.290000 0.300000 0.375000 0.7098 0.7098 0.7098
v 0.290000 0.300000 0.375000 0.7098 0.7098 0.7098
v 0.290000 0.370000 0.375000 0.7725 0.7725 0.7725
v 0.253091 0.440000 0.340000 0.8784 0.8784 0.8784
v 0.253091 0.440000 -0.140000 0.6667 0.6667 0.6667
v -0.290000 0.370000 0.375000 0.7725 0.7725 0.7725
v -0.253091 0.440000 0.340000 0.8784 0.8784 0.8784
v -0.253091 0.440000 -0.140000 0.6667 0.6667 0.6667
v 0.280000 0.453892 -0.096215 0.7137 0.7137 0.7137
v -0.280000 0.631157 -0.127472 0.8980 0.8980 0.8980
v -0.280000 0.426108 -0.253785 0.6667 0.6667 0.6667
v -0.280000 0.603374 -0.285041 0.6706 0.6706 0.6706
v -0.280000 0.453892 -0.096215 0.7137 0.7137 0.7137
v 0.280000 0.426108 -0.253785 0.6706 0.6706 0.6706
v 0.280000 0.631157 -0.127472 0.8980 0.8980 0.8980
v 0.168000 0.802866 -0.190243 0.9804 0.9804 0.9804
v -0.168000 0.802866 -0.190243 0.9804 0.9804 0.9804
v 0.280000 0.603374 -0.285041 0.6706 0.6706 0.6706
v -0.168000 0.786196 -0.284784 0.6745 0.6745 0.6745
v 0.168000 0.786196 -0.284784 0.6706 0.6706 0.6706
vn -0.0000 -0.0375 0.9993
vn -0.0000 -0.0375 -0.9993
vn -0.9993 -0.0375 -0.0000
vn 0.9993 -0.0375 -0.0000
vn -0.0000 1.0000 -0.0000
vn -0.0000 -1.0000 -0.0000
vn -0.0000 -0.0000 1.0000
vn -0.0000 -0.0000 -1.0000
vn -1.0000 -0.0000 -0.0000
vn 1.0000 -0.0000 -0.0000
vn -0.0000 0.3714 0.9285
vn -0.0000 0.3714 -0.9285
vn -0.4619 0.8869 -0.0000
vn 0.4619 0.8869 -0.0000
vn -0.0000 0.7576 0.6527
vn -0.0000 0.7576 -0.6527
vn -0.9520 0.3060 -0.0000
vn 0.9520 0.3060 -0.0000
vn -0.0000 0.4472 0.8944
vn -0.0000 0.4472 -0.8944
vn -0.8846 0.4664 -0.0000
vn 0.8846 0.4664 -0.0000
vn -0.0000 0.1736 0.9848
vn -0.0000 -0.1736 -0.9848
vn -0.0000 -0.9848 0.1736
vn -0.0000 0.3433 0.9392
vn -0.0000 0.0014 -1.0000
vn -0.8491 0.5203 -0.0917
vn 0.8491 0.5203 -0.0917
vn -0.0000 0.9848 -0.1736
vt 0.125950 0.812988
vt 0.132102 0.812988
vt 0.132563 0.825302
vt 0.125488 0.825302
vt 0.125488 0.812988
vt 0.132563 0.812988
vt 0.132563 0.820063
vt 0.125488 0.820063
vt 0.131641 0.812988
vt 0.131641 0.819141
vt 0.125488 0.819141
vt 0.562988 0.937988
vt 0.624512 0.937988
vt 0.624512 0.950806
vt 0.562988 0.950806
vt 0.624512 0.952464
vt 0.562988 0.952464
vt 0.624512 0.992462
vt 0.562988 0.992462
vt 0.624512 0.963623
vt 0.562988 0.963623
vt 0.587598 0.937988
vt 0.587598 0.987207
vt 0.562988 0.987207
vt 0.612207 0.944891
vt 0.575293 0.944891
vt 0.562988 0.962598
vt 0.586613 0.942910
vt 0.586613 0.957676
vt 0.586613 0.937988
vt 0.586613 0.962598
vt 0.562988 0.957676
vt 0.562988 0.942910
vt 0.585137 0.937988
vt 0.585137 0.958660
vt 0.562988 0.958660
vt 0.624512 0.953890
vt 0.562988 0.953890
vt 0.580026 0.937988
vt 0.580026 0.999512
vt 0.562988 0.999512
vt 0.580707 0.953984
vt 0.567418 0.953984
vt 0.585137 0.953984
vt 0.562988 0.953984
vt 0.567418 0.937988
vt 0.580707 0.937988
vt 0.612207 0.949123
vt 0.575293 0.949123
vt 0.576277 0.937988
vt 0.576277 0.985977
vt 0.562988 0.985977
vt 0.624512 0.945414
vt 0.562988 0.945414
vt 0.624512 0.945819
vt 0.562988 0.945819
vt 0.624512 0.996329
vt 0.562988 0.996329
vt 0.620597 0.946290
vt 0.566903 0.946290
vt 0.620597 0.946840
vt 0.566903 0.946840
vt 0.624512 0.957764
vt 0.562988 0.957764
vt 0.582676 0.937988
vt 0.582676 0.960137
vt 0.562988 0.960137
vt 0.624512 0.955566
vt 0.562988 0.955566
vt 0.612207 0.958074
vt 0.575293 0.958074
vt 0.578738 0.964074
vt 0.566926 0.964074
vt 0.604332 0.937988
vt 0.604332 0.949801
vt 0.562988 0.949801
s 0
usemtl props
f 1/1/1 5/2/1 8/3/1 3/4/1
f 6/1/2 2/2/2 4/3/2 7/4/2
f 2/1/3 1/2/3 3/3/3 4/4/3
f 5/1/4 6/2/4 7/3/4 8/4/4
f 3/5/5 8/6/5 7/7/5 4/8/5
f 2/5/6 6/9/6 5/10/6 1/11/6
f 11/1/1 16/2/1 14/3/1 9/4/1
f 13/1/2 15/2/2 12/3/2 10/4/2
f 15/1/3 11/2/3 9/3/3 12/4/3
f 16/1/4 13/2/4 10/3/4 14/4/4
f 9/5/5 14/6/5 10/7/5 12/8/5
f 15/5/6 13/9/6 16/10/6 11/11/6
f 24/1/1 17/2/1 22/3/1 20/4/1
f 18/1/2 23/2/2 21/3/2 19/4/2
f 23/1/3 24/2/3 20/3/3 21/4/3
f 17/1/4 18/2/4 19/3/4 22/4/4
f 20/5/5 22/6/5 19/7/5 21/8/5
f 23/5/6 18/9/6 17/10/6 24/11/6
f 25/1/1 26/2/1 30/3/1 27/4/1
f 28/1/2 29/2/2 32/3/2 31/4/2
f 29/1/3 25/2/3 27/3/3 32/4/3
f 26/1/4 28/2/4 31/3/4 30/4/4
f 27/5/5 30/6/5 31/7/5 32/8/5
f 29/5/6 28/9/6 26/10/6 25/11/6
f 37/12/7 35/13/7 61/14/7 50/15/7
f 36/12/8 33/13/8 34/14/8 39/15/8
f 33/12/9 37/13/9 50/16/9 34/17/9
f 35/12/10 36/13/10 39/16/10 61/17/10
f 50/12/5 61/13/5 39/18/5 34/19/5
f 33/12/6 36/13/6 35/18/6 37/19/6
f 40/12/7 62/13/7 42/20/7 38/21/7
f 39/12/8 34/13/8 44/20/8 41/21/8
f 34/12/9 40/22/9 38/23/9 44/24/9
f 62/12/10 39/22/10 41/23/10 42/24/10
f 34/12/6 39/13/6 62/14/6 40/15/6
f 38/12/11 42/13/11 43/25/11 46/26/11
f 41/12/12 44/13/12 47/25/12 45/26/12
f 44/27/13 38/12/13 46/28/13 47/29/13
f 42/30/14 41/31/14 45/32/14 43/33/14
f 46/12/5 43/13/5 45/14/5 47/15/5
f 50/12/7 52/34/7 51/35/7 53/36/7
f 48/12/8 40/34/8 49/35/8 55/36/8
f 40/12/9 50/13/9 53/37/9 49/38/9
f 52/12/10 48/13/10 55/37/10 51/38/10
f 40/12/6 48/39/6 52/40/6 50/41/6
f 53/12/15 51/34/15 54/42/15 58/43/15
f 55/44/16 49/45/16 56/46/16 57/47/16
f 49/12/17 53/13/17 58/48/17 56/49/17
f 51/12/18 55/13/18 57/48/18 54/49/18
f 58/12/5 54/50/5 57/51/5 56/52/5
f 63/12/7 61/34/7 70/35/7 64/36/7
f 62/12/8 59/34/8 68/35/8 60/36/8
f 59/12/9 63/13/9 64/37/9 68/38/9
f 61/12/10 62/13/10 60/37/10 70/38/10
f 59/12/6 62/39/6 61/40/6 63/41/6
f 64/12/15 70/34/15 65/42/15 66/43/15
f 60/44/16 68/45/16 69/46/16 67/47/16
f 68/12/17 64/13/17 66/48/17 69/49/17
f 70/12/18 60/13/18 67/48/18 65/49/18
f 66/12/5 65/50/5 67/51/5 69/52/5
f 75/12/7 76/13/7 77/53/7 80/54/7
f 71/12/8 74/13/8 72/53/8 73/54/8
f 74/12/9 75/13/9 80/55/9 72/56/9
f 76/12/10 71/13/10 73/55/10 77/56/10
f 74/12/6 71/13/6 76/57/6 75/58/6
f 80/12/19 77/13/19 78/59/19 81/60/19
f 73/12/20 72/13/20 82/59/20 79/60/20
f 72/12/21 80/13/21 81/61/21 82/62/21
f 77/12/22 73/13/22 79/61/22 78/62/22
f 81/12/5 78/13/5 79/57/5 82/58/5
f 87/12/23 83/13/23 89/63/23 84/64/23
f 88/12/24 85/13/24 86/63/24 92/64/24
f 85/12/9 87/65/9 84/66/9 86/67/9
f 83/12/10 88/65/10 92/66/10 89/67/10
f 85/12/25 88/13/25 83/68/25 87/69/25
f 84/12/26 89/13/26 90/70/26 91/71/26
f 92/12/27 86/13/27 93/70/27 94/71/27
f 86/12/28 84/65/28 91/72/28 93/73/28
f 89/12/29 92/65/29 94/72/29 90/73/29
f 91/12/30 90/74/30 94/75/30 93/76/30
