# Blender 4.5.14 LTS
# www.blender.org
mtllib base_unit_white.mtl
o base_unit_white
v -0.300000 0.100000 -0.290000 0.8196 0.8196 0.8196
v -0.300000 0.860000 -0.290000 0.8470 0.8470 0.8470
v 0.300000 0.860000 -0.290000 0.8431 0.8431 0.8431
v -0.300000 0.100000 -0.270000 0.7568 0.7568 0.7568
v 0.300000 0.100000 -0.290000 0.8196 0.8196 0.8196
v -0.280000 0.120000 -0.269950 0.7490 0.7490 0.7490
v 0.280000 0.120000 -0.269950 0.7451 0.7451 0.7451
v 0.280000 0.840000 -0.269950 0.7568 0.7568 0.7568
v -0.280000 0.840000 -0.269950 0.7568 0.7568 0.7568
v -0.300000 0.100000 0.290000 0.8078 0.8078 0.8078
v 0.300000 0.100000 0.290000 0.8078 0.8078 0.8078
v -0.300000 0.120000 0.290000 0.7921 0.7921 0.7921
v 0.300000 0.100000 -0.270000 0.7568 0.7568 0.7568
v 0.300000 0.120000 -0.270000 0.7412 0.7412 0.7412
v 0.300000 0.840000 0.290000 0.8509 0.8509 0.8509
v 0.300000 0.860000 0.290000 0.7725 0.7725 0.7725
v -0.300000 0.860000 0.290000 0.7764 0.7764 0.7764
v -0.300000 0.840000 -0.270000 0.7764 0.7764 0.7764
v -0.300000 0.840000 0.290000 0.8549 0.8549 0.8549
v 0.300000 0.860000 -0.270000 0.7608 0.7608 0.7608
v -0.300000 0.860000 -0.270000 0.7608 0.7608 0.7608
v -0.280000 0.120000 0.290000 0.6941 0.6941 0.6941
v -0.280000 0.840000 0.290000 0.6941 0.6941 0.6941
v -0.280000 0.120000 -0.270000 0.6941 0.6941 0.6941
v -0.280000 0.840000 -0.270000 0.6941 0.6941 0.6941
v -0.300000 0.120000 -0.270000 0.7412 0.7412 0.7412
v 0.280000 0.120000 0.290000 0.6902 0.6902 0.6902
v 0.280000 0.840000 -0.270000 0.6941 0.6941 0.6941
v 0.280000 0.120000 -0.270000 0.6941 0.6941 0.6941
v 0.280000 0.840000 0.290000 0.6941 0.6941 0.6941
v 0.300000 0.840000 -0.270000 0.7725 0.7725 0.7725
v 0.300000 0.120000 0.290000 0.7960 0.7960 0.7960
v 0.280000 0.000000 -0.290000 0.7764 0.7764 0.7764
v -0.280000 0.000000 -0.290000 0.7725 0.7725 0.7725
v -0.280000 0.100000 -0.290000 0.7568 0.7568 0.7568
v -0.280000 0.000000 0.250000 0.7686 0.7686 0.7686
v -0.280000 0.100000 0.250000 0.7098 0.7098 0.7098
v 0.280000 0.100000 0.250000 0.7098 0.7098 0.7098
v 0.280000 0.100000 -0.290000 0.7608 0.7608 0.7608
v 0.280000 0.000000 0.250000 0.7725 0.7725 0.7725
v -0.305000 0.860000 0.310000 0.9607 0.9607 0.9607
v -0.305000 0.900000 0.310000 1.0000 1.0000 1.0000
v 0.305000 0.860000 -0.310000 0.9647 0.9647 0.9647
v 0.305000 0.900000 -0.310000 1.0000 1.0000 1.0000
v -0.305000 0.860000 -0.310000 0.9686 0.9686 0.9686
v 0.305000 0.900000 0.310000 1.0000 1.0000 1.0000
v -0.305000 0.900000 -0.310000 1.0000 1.0000 1.0000
v 0.305000 0.860000 0.310000 0.9607 0.9607 0.9607
v -0.290000 0.840000 0.310000 0.9333 0.9333 0.9333
v -0.290000 0.700000 0.290000 0.7608 0.7608 0.7608
v -0.290000 0.700000 0.310000 0.9568 0.9568 0.9568
v 0.290000 0.700000 0.290000 0.7608 0.7608 0.7608
v 0.290000 0.840000 0.290000 0.7372 0.7372 0.7372
v 0.290000 0.840000 0.310000 0.9333 0.9333 0.9333
v -0.290000 0.840000 0.290000 0.7372 0.7372 0.7372
v 0.290000 0.700000 0.310000 0.9529 0.9529 0.9529
v 0.275000 0.450000 -0.260000 0.6902 0.6902 0.6902
v 0.275000 0.470000 -0.260000 0.6941 0.6941 0.6941
v -0.275000 0.450000 -0.260000 0.6902 0.6902 0.6902
v -0.275000 0.450000 0.260000 0.6902 0.6902 0.6902
v -0.275000 0.470000 0.260000 0.6980 0.6980 0.6980
v 0.275000 0.450000 0.260000 0.6902 0.6902 0.6902
v 0.275000 0.470000 0.260000 0.6980 0.6980 0.6980
v -0.275000 0.470000 -0.260000 0.6941 0.6941 0.6941
vn -0.0000 -0.0000 -1.0000
vn -1.0000 -0.0000 -0.0000
vn 1.0000 -0.0000 -0.0000
vn -0.0000 1.0000 -0.0000
vn -0.0000 -1.0000 -0.0000
vn -0.0000 -0.0000 1.0000
vt 0.750488 0.937988
vt 0.799059 0.937988
vt 0.799059 0.999512
vt 0.750488 0.999512
vt 0.752107 0.937988
vt 0.752107 0.999512
vt 0.812012 0.937988
vt 0.812012 0.940039
vt 0.750488 0.940039
vt 0.062988 0.812988
vt 0.110840 0.812988
vt 0.110840 0.874512
vt 0.062988 0.874512
vt 0.812012 0.940186
vt 0.750488 0.940186
vt 0.124512 0.812988
vt 0.124512 0.870410
vt 0.062988 0.870410
vt 0.812012 0.995410
vt 0.750488 0.995410
vt 0.752197 0.937988
vt 0.752197 0.999512
vt 0.798340 0.937988
vt 0.798340 0.999512
vt 0.752686 0.937988
vt 0.752686 0.999512
vt 0.562988 0.844238
vt 0.593262 0.844238
vt 0.593262 0.849644
vt 0.562988 0.849644
vt 0.593262 0.849844
vt 0.562988 0.849844
vt 0.593262 0.873431
vt 0.562988 0.873431
vt 0.906738 0.844238
vt 0.937012 0.844238
vt 0.937012 0.846223
vt 0.906738 0.846223
vt 0.937012 0.846191
vt 0.906738 0.846191
vt 0.936523 0.844238
vt 0.936523 0.874512
vt 0.906738 0.874512
vt 0.625488 0.797363
vt 0.655762 0.797363
vt 0.655762 0.812012
vt 0.625488 0.812012
vt 0.812012 0.952839
vt 0.750488 0.952839
vt 0.752949 0.937988
vt 0.752949 0.955215
vt 0.750488 0.955215
vt 0.812012 0.940110
vt 0.750488 0.940110
vt 0.124512 0.815225
vt 0.062988 0.815225
vt 0.124512 0.815355
vt 0.062988 0.815355
vt 0.124512 0.871156
vt 0.062988 0.871156
s 0
usemtl props
f 5/1/1 1/2/1 2/3/1 3/4/1
f 1/1/2 4/5/2 21/6/2 2/4/2
f 13/1/3 5/5/3 3/6/3 20/4/3
f 21/1/4 20/7/4 3/8/4 2/9/4
f 1/1/5 5/7/5 13/8/5 4/9/5
f 6/10/6 7/11/6 8/12/6 9/13/6
f 10/1/6 11/7/6 32/8/6 12/9/6
f 13/1/1 4/7/1 26/8/1 14/9/1
f 4/1/2 10/7/2 12/14/2 26/15/2
f 11/1/3 13/7/3 14/14/3 32/15/3
f 12/10/4 32/16/4 14/17/4 26/18/4
f 4/1/5 13/7/5 11/19/5 10/20/5
f 19/1/6 15/7/6 16/8/6 17/9/6
f 31/1/1 18/7/1 21/8/1 20/9/1
f 18/1/2 19/7/2 17/14/2 21/15/2
f 15/1/3 31/7/3 20/14/3 16/15/3
f 17/1/4 16/7/4 20/19/4 21/20/4
f 18/10/5 31/16/5 15/17/5 19/18/5
f 12/1/6 22/21/6 23/22/6 19/4/6
f 24/1/1 26/21/1 18/22/1 25/4/1
f 26/1/2 12/23/2 19/24/2 18/4/2
f 22/10/3 24/11/3 25/12/3 23/13/3
f 19/1/4 23/25/4 25/26/4 18/4/4
f 26/1/5 24/25/5 22/26/5 12/4/5
f 27/1/6 32/21/6 15/22/6 30/4/6
f 14/1/1 29/21/1 28/22/1 31/4/1
f 29/10/2 27/11/2 30/12/2 28/13/2
f 32/1/3 14/23/3 31/24/3 15/4/3
f 30/1/4 15/25/4 31/26/4 28/4/4
f 29/1/5 14/25/5 32/26/5 27/4/5
f 36/27/6 40/28/6 38/29/6 37/30/6
f 33/27/1 34/28/1 35/29/1 39/30/1
f 34/27/2 36/28/2 37/31/2 35/32/2
f 40/27/3 33/28/3 39/31/3 38/32/3
f 37/27/4 38/28/4 39/33/4 35/34/4
f 34/27/5 33/28/5 40/33/5 36/34/5
f 41/35/6 48/36/6 46/37/6 42/38/6
f 43/35/1 45/36/1 47/37/1 44/38/1
f 45/35/2 41/36/2 42/39/2 47/40/2
f 48/35/3 43/36/3 44/39/3 46/40/3
f 42/35/4 46/41/4 44/42/4 47/43/4
f 45/35/5 43/41/5 48/42/5 41/43/5
f 51/44/6 56/45/6 54/46/6 49/47/6
f 52/1/1 50/7/1 55/48/1 53/49/1
f 50/1/2 51/50/2 49/51/2 55/52/2
f 56/1/3 52/50/3 53/51/3 54/52/3
f 49/1/4 54/7/4 53/53/4 55/54/4
f 50/1/5 52/7/5 56/53/5 51/54/5
f 60/10/6 62/16/6 63/55/6 61/56/6
f 57/10/1 59/16/1 64/55/1 58/56/1
f 59/10/2 60/16/2 61/57/2 64/58/2
f 62/10/3 57/16/3 58/57/3 63/58/3
f 61/10/4 63/16/4 58/59/4 64/60/4
f 59/10/5 57/16/5 62/59/5 60/60/5
o base_unit_white_door
v -0.290000 0.110000 0.310000 0.8157 0.8157 0.8157
v 0.290000 0.110000 0.310000 0.8157 0.8157 0.8157
v -0.290000 0.670000 0.290000 0.7608 0.7608 0.7608
v -0.290000 0.110000 0.290000 0.7137 0.7137 0.7137
v -0.290000 0.670000 0.310000 0.9490 0.9490 0.9490
v 0.290000 0.670000 0.310000 0.9490 0.9490 0.9490
v 0.290000 0.670000 0.290000 0.7608 0.7608 0.7608
v 0.290000 0.110000 0.290000 0.7098 0.7098 0.7098
vn -0.0000 -0.0000 1.0000
vn -0.0000 -0.0000 -1.0000
vn -1.0000 -0.0000 -0.0000
vn 1.0000 -0.0000 -0.0000
vn -0.0000 1.0000 -0.0000
vn -0.0000 -1.0000 -0.0000
vt 0.219238 0.812988
vt 0.249512 0.812988
vt 0.249512 0.874512
vt 0.219238 0.874512
vt 0.750488 0.937988
vt 0.812012 0.937988
vt 0.812012 0.997390
vt 0.750488 0.997390
vt 0.752686 0.937988
vt 0.752686 0.999512
vt 0.750488 0.999512
vt 0.812012 0.940110
vt 0.750488 0.940110
s 0
usemtl props
f 65/61/7 66/62/7 70/63/7 69/64/7
f 72/65/8 68/66/8 67/67/8 71/68/8
f 68/65/9 65/69/9 69/70/9 67/71/9
f 66/65/10 72/69/10 71/70/10 70/71/10
f 69/65/11 70/66/11 71/72/11 67/73/11
f 68/65/12 72/66/12 66/72/12 65/73/12
