# Blender 4.5.14 LTS
# www.blender.org
mtllib bed_single_oak.mtl
o bed_single_oak
v -0.505000 0.000000 -1.000000 0.7647 0.7647 0.7647
v -0.505000 1.050000 -1.060000 0.8000 0.8000 0.8000
v -0.505000 1.050000 -1.000000 0.8039 0.8039 0.8039
v 0.505000 1.050000 -1.000000 0.8039 0.8039 0.8039
v 0.505000 1.050000 -1.060000 0.8000 0.8000 0.8000
v 0.525000 1.045000 -0.980000 0.9686 0.9686 0.9686
v 0.525000 1.045000 -1.080000 0.9686 0.9686 0.9686
v -0.525000 1.095000 -1.080000 1.0000 1.0000 1.0000
v 0.525000 1.095000 -1.080000 1.0000 1.0000 1.0000
v -0.525000 1.045000 -1.080000 0.9725 0.9725 0.9725
v -0.525000 1.045000 -0.980000 0.9647 0.9647 0.9647
v -0.525000 1.095000 -0.980000 1.0000 1.0000 1.0000
v 0.525000 1.095000 -0.980000 1.0000 1.0000 1.0000
v -0.505000 0.600000 1.060000 0.9843 0.9843 0.9843
v -0.505000 0.000000 1.000000 0.7686 0.7686 0.7686
v -0.505000 0.600000 1.000000 0.8902 0.8902 0.8902
v 0.505000 0.600000 1.000000 0.8941 0.8941 0.8941
v 0.505000 0.600000 1.060000 0.9843 0.9843 0.9843
v 0.505000 0.000000 1.000000 0.7725 0.7725 0.7725
v 0.505000 0.000000 1.060000 0.7725 0.7725 0.7725
v -0.455000 0.420000 1.000000 0.6667 0.6667 0.6667
v -0.455000 0.420000 -1.000000 0.7020 0.7020 0.7020
v -0.495000 0.220000 -1.000000 0.7608 0.7608 0.7608
v -0.495000 0.220000 1.000000 0.7568 0.7568 0.7568
v -0.495000 0.420000 -1.000000 0.8196 0.8196 0.8196
v -0.455000 0.220000 1.000000 0.7020 0.7020 0.7020
v -0.455000 0.220000 -1.000000 0.7059 0.7059 0.7059
v -0.495000 0.420000 1.000000 0.8117 0.8117 0.8117
v 0.495000 0.220000 1.000000 0.7568 0.7568 0.7568
v 0.495000 0.220000 -1.000000 0.7568 0.7568 0.7568
v 0.455000 0.220000 -1.000000 0.7059 0.7059 0.7059
v 0.455000 0.420000 -1.000000 0.7059 0.7059 0.7059
v 0.455000 0.220000 1.000000 0.7020 0.7020 0.7020
v 0.455000 0.420000 1.000000 0.6667 0.6667 0.6667
v 0.495000 0.420000 1.000000 0.8117 0.8117 0.8117
v 0.495000 0.420000 -1.000000 0.8196 0.8196 0.8196
v -0.445000 0.000000 1.060000 0.7176 0.7176 0.7176
v -0.509500 0.220000 1.064500 0.9098 0.9098 0.9098
v -0.440500 0.220000 0.995500 0.7372 0.7372 0.7372
v -0.445000 0.000000 1.000000 0.7176 0.7176 0.7176
v -0.440500 0.220000 1.064500 0.8431 0.8431 0.8431
v -0.509500 0.220000 0.995500 0.8627 0.8627 0.8627
v -0.505000 0.000000 1.060000 0.7725 0.7725 0.7725
v -0.509500 0.220000 -1.064500 0.9137 0.9137 0.9137
v -0.440500 0.220000 -1.064500 0.8509 0.8509 0.8509
v -0.505000 0.000000 -1.060000 0.7764 0.7764 0.7764
v -0.509500 0.220000 -0.995500 0.8627 0.8627 0.8627
v -0.445000 0.000000 -1.060000 0.7255 0.7255 0.7255
v -0.440500 0.220000 -0.995500 0.7294 0.7294 0.7294
v -0.445000 0.000000 -1.000000 0.7137 0.7137 0.7137
v 0.440500 0.220000 1.064500 0.8470 0.8470 0.8470
v 0.440500 0.220000 0.995500 0.7372 0.7372 0.7372
v 0.509500 0.220000 0.995500 0.8627 0.8627 0.8627
v 0.509500 0.220000 1.064500 0.9058 0.9058 0.9058
v 0.445000 0.000000 1.000000 0.7176 0.7176 0.7176
v 0.445000 0.000000 1.060000 0.7216 0.7216 0.7216
v 0.440500 0.220000 -1.064500 0.8470 0.8470 0.8470
v 0.509500 0.220000 -1.064500 0.9137 0.9137 0.9137
v 0.445000 0.000000 -1.060000 0.7255 0.7255 0.7255
v 0.505000 0.000000 -1.000000 0.7686 0.7686 0.7686
v 0.509500 0.220000 -0.995500 0.8627 0.8627 0.8627
v 0.440500 0.220000 -0.995500 0.7333 0.7333 0.7333
v 0.505000 0.000000 -1.060000 0.7764 0.7764 0.7764
v 0.445000 0.000000 -1.000000 0.7137 0.7137 0.7137
v -0.475000 0.370000 1.000000 0.6667 0.6667 0.6667
v 0.475000 0.390000 1.000000 0.6667 0.6667 0.6667
v 0.475000 0.370000 1.000000 0.6667 0.6667 0.6667
v -0.475000 0.390000 1.000000 0.6667 0.6667 0.6667
v 0.475000 0.390000 -1.000000 0.6667 0.6667 0.6667
v -0.475000 0.390000 -1.000000 0.6667 0.6667 0.6667
v -0.475000 0.370000 -1.000000 0.6667 0.6667 0.6667
v 0.475000 0.370000 -1.000000 0.6667 0.6667 0.6667
v -0.455000 0.580000 0.970000 0.6667 0.6667 0.6667
v -0.455000 0.400000 -0.970000 0.6667 0.6667 0.6667
v -0.455000 0.400000 0.970000 0.6667 0.6667 0.6667
v 0.455000 0.580000 -0.970000 0.8274 0.8274 0.8274
v 0.455000 0.580000 0.970000 0.6667 0.6667 0.6667
v -0.455000 0.580000 -0.970000 0.8235 0.8235 0.8235
v 0.455000 0.400000 -0.970000 0.6667 0.6667 0.6667
v 0.455000 0.400000 0.970000 0.6667 0.6667 0.6667
v 0.485000 0.590000 1.030000 0.6667 0.6667 0.6667
v -0.485000 0.560000 -0.290000 0.7294 0.7294 0.7294
v -0.485000 0.560000 1.030000 0.6667 0.6667 0.6667
v -0.485000 0.590000 -0.290000 0.7882 0.7882 0.7882
v 0.485000 0.560000 1.030000 0.6667 0.6667 0.6667
v 0.485000 0.560000 -0.290000 0.7372 0.7372 0.7372
v 0.470000 0.620000 -0.269588 0.9490 0.9490 0.9490
v -0.485000 0.590000 1.030000 0.6667 0.6667 0.6667
v 0.485000 0.590000 -0.290000 0.7882 0.7882 0.7882
v 0.470000 0.620000 1.009588 0.9372 0.9372 0.9372
v -0.470000 0.620000 1.009588 0.9372 0.9372 0.9372
v -0.470000 0.620000 -0.269588 0.9490 0.9490 0.9490
v -0.477500 0.420000 -0.290000 0.6980 0.6980 0.6980
v -0.492500 0.420000 -0.290000 0.8039 0.8039 0.8039
v -0.492500 0.620000 1.030000 0.9529 0.9529 0.9529
v -0.477500 0.620000 1.030000 0.8353 0.8353 0.8353
v -0.477500 0.620000 -0.290000 0.9058 0.9058 0.9058
v -0.492500 0.620000 -0.290000 0.9686 0.9686 0.9686
v -0.477500 0.420000 1.030000 0.6706 0.6706 0.6706
v -0.492500 0.420000 1.030000 0.6667 0.6667 0.6667
v 0.492500 0.420000 1.030000 0.6667 0.6667 0.6667
v 0.477500 0.620000 1.030000 0.8353 0.8353 0.8353
v 0.492500 0.620000 -0.290000 0.9686 0.9686 0.9686
v 0.492500 0.620000 1.030000 0.9568 0.9568 0.9568
v 0.477500 0.620000 -0.290000 0.9058 0.9058 0.9058
v 0.477500 0.420000 -0.290000 0.6980 0.6980 0.6980
v 0.492500 0.420000 -0.290000 0.8078 0.8078 0.8078
v 0.477500 0.420000 1.030000 0.6706 0.6706 0.6706
v -0.485000 0.420000 1.047500 0.6667 0.6667 0.6667
v 0.485000 0.620000 1.047500 0.9686 0.9686 0.9686
v -0.485000 0.420000 1.032500 0.6667 0.6667 0.6667
v -0.485000 0.620000 1.047500 0.9647 0.9647 0.9647
v 0.485000 0.420000 1.032500 0.6667 0.6667 0.6667
v 0.485000 0.620000 1.032500 0.8902 0.8902 0.8902
v -0.485000 0.620000 1.032500 0.8902 0.8902 0.8902
v 0.485000 0.420000 1.047500 0.6667 0.6667 0.6667
v -0.300000 0.580000 -0.580000 0.7764 0.7764 0.7764
v -0.300000 0.580000 -0.940000 0.7098 0.7098 0.7098
v -0.300000 0.620000 -0.580000 0.8823 0.8823 0.8823
v -0.300000 0.620000 -0.940000 0.7529 0.7529 0.7529
v 0.300000 0.580000 -0.940000 0.7059 0.7059 0.7059
v 0.300000 0.580000 -0.580000 0.7764 0.7764 0.7764
v 0.300000 0.620000 -0.580000 0.8862 0.8862 0.8862
v -0.250000 0.680000 -0.910000 0.8157 0.8157 0.8157
v 0.250000 0.680000 -0.910000 0.8117 0.8117 0.8117
v 0.300000 0.620000 -0.940000 0.7529 0.7529 0.7529
v -0.250000 0.680000 -0.610000 0.9529 0.9529 0.9529
v 0.250000 0.680000 -0.610000 0.9529 0.9529 0.9529
vn -0.0000 -0.0000 1.0000
vn -0.0000 -0.0000 -1.0000
vn -1.0000 -0.0000 -0.0000
vn 1.0000 -0.0000 -0.0000
vn -0.0000 1.0000 -0.0000
vn -0.0000 -1.0000 -0.0000
vn -0.0000 -0.0205 0.9998
vn -0.0000 -0.0204 -0.9998
vn -0.9998 -0.0205 -0.0000
vn 0.9998 -0.0205 -0.0000
vn -0.0000 -0.0204 0.9998
vn -0.0000 -0.0205 -0.9998
vn -0.0000 0.5625 0.8268
vn -0.0000 0.5625 -0.8268
vn -0.8944 0.4472 -0.0000
vn 0.8944 0.4472 -0.0000
vn -0.0000 0.4472 0.8944
vn -0.0000 0.4472 -0.8944
vn -0.7682 0.6402 -0.0000
vn 0.7682 0.6402 -0.0000
vt 0.937988 0.937988
vt 0.997168 0.937988
vt 0.997168 0.999512
vt 0.937988 0.999512
vt 0.941504 0.937988
vt 0.941504 0.999512
vt 0.999512 0.937988
vt 0.999512 0.941643
vt 0.937988 0.941643
vt 0.999512 0.940918
vt 0.937988 0.940918
vt 0.950293 0.937988
vt 0.950293 0.944141
vt 0.937988 0.944141
vt 0.999512 0.943848
vt 0.937988 0.943848
vt 0.999512 0.974537
vt 0.937988 0.974537
vt 0.944141 0.937988
vt 0.944141 0.999512
vt 0.942910 0.937988
vt 0.942910 0.962598
vt 0.937988 0.962598
vt 0.999512 0.944141
vt 0.939219 0.937988
vt 0.939219 0.999512
vt 0.938542 0.937988
vt 0.945925 0.937988
vt 0.946478 0.965064
vt 0.937988 0.965064
vt 0.946478 0.937988
vt 0.946478 0.946478
vt 0.937988 0.946478
vt 0.945371 0.937988
vt 0.945371 0.945371
vt 0.937988 0.945371
vt 0.062988 0.812988
vt 0.124512 0.812988
vt 0.124512 0.814283
vt 0.062988 0.814283
vt 0.124512 0.813604
vt 0.062988 0.813604
vt 0.092212 0.812988
vt 0.092212 0.874512
vt 0.062988 0.874512
vt 0.625488 0.937988
vt 0.687012 0.937988
vt 0.687012 0.950158
vt 0.625488 0.950158
vt 0.687012 0.943697
vt 0.625488 0.943697
vt 0.375488 0.781738
vt 0.389689 0.781738
vt 0.389689 0.812012
vt 0.375488 0.812012
vt 0.654347 0.937988
vt 0.654347 0.999512
vt 0.625488 0.999512
vt 0.812988 0.937988
vt 0.874512 0.937988
vt 0.874512 0.939891
vt 0.812988 0.939891
vt 0.874512 0.939387
vt 0.812988 0.939387
vt 0.858199 0.937988
vt 0.858199 0.999512
vt 0.812988 0.999512
vt 0.873560 0.940290
vt 0.813940 0.940290
vt 0.873560 0.939552
vt 0.813940 0.939552
vt 0.814834 0.937988
vt 0.814834 0.962598
vt 0.812988 0.962598
vt 0.874512 0.947310
vt 0.812988 0.947310
vt 0.813687 0.937988
vt 0.813687 0.999512
vt 0.874512 0.950674
vt 0.812988 0.950674
vt 0.874512 0.938940
vt 0.812988 0.938940
vt 0.312988 0.781738
vt 0.343262 0.781738
vt 0.343262 0.783756
vt 0.312988 0.783756
vt 0.343262 0.785102
vt 0.312988 0.785102
vt 0.343262 0.799902
vt 0.312988 0.799902
vt 0.340739 0.785123
vt 0.315511 0.785123
vt 0.340739 0.788306
vt 0.315511 0.788306
s 0
usemtl props
f 1/1/1 60/2/1 4/3/1 3/4/1
f 63/1/2 46/2/2 2/3/2 5/4/2
f 46/1/3 1/5/3 3/6/3 2/4/3
f 60/1/4 63/5/4 5/6/4 4/4/4
f 3/1/5 4/7/5 5/8/5 2/9/5
f 46/1/6 63/7/6 60/8/6 1/9/6
f 11/1/1 6/7/1 13/10/1 12/11/1
f 7/1/2 10/7/2 8/10/2 9/11/2
f 10/1/3 11/12/3 12/13/3 8/14/3
f 6/1/4 7/12/4 9/13/4 13/14/4
f 12/1/5 13/7/5 9/15/5 8/16/5
f 10/1/6 7/7/6 6/15/6 11/16/6
f 43/1/1 20/7/1 18/17/1 14/18/1
f 19/1/2 15/7/2 16/17/2 17/18/2
f 15/1/3 43/19/3 14/20/3 16/4/3
f 20/1/4 19/19/4 17/20/4 18/4/4
f 14/1/5 18/7/5 17/8/5 16/9/5
f 15/1/6 19/7/6 20/8/6 43/9/6
f 24/1/1 26/21/1 21/22/1 28/23/1
f 27/1/2 23/21/2 25/22/2 22/23/2
f 23/1/3 24/7/3 28/24/3 25/14/3
f 26/1/4 27/7/4 22/24/4 21/14/4
f 28/1/5 21/25/5 22/26/5 25/4/5
f 23/1/6 27/25/6 26/26/6 24/4/6
f 33/1/1 29/21/1 35/22/1 34/23/1
f 30/1/2 31/21/2 32/22/2 36/23/2
f 31/1/3 33/7/3 34/24/3 32/14/3
f 29/1/4 30/7/4 36/24/4 35/14/4
f 34/1/5 35/25/5 36/26/5 32/4/5
f 31/1/6 30/25/6 29/26/6 33/4/6
f 43/27/7 37/28/7 41/29/7 38/30/7
f 40/27/8 15/28/8 42/29/8 39/30/8
f 15/27/9 43/28/9 38/29/9 42/30/9
f 37/27/10 40/28/10 39/29/10 41/30/10
f 38/1/5 41/31/5 39/32/5 42/33/5
f 15/1/6 40/34/6 37/35/6 43/36/6
f 1/27/11 50/28/11 49/29/11 47/30/11
f 48/27/12 46/28/12 44/29/12 45/30/12
f 46/27/9 1/28/9 47/29/9 44/30/9
f 50/27/10 48/28/10 45/29/10 49/30/10
f 47/1/5 49/31/5 45/32/5 44/33/5
f 46/1/6 48/34/6 50/35/6 1/36/6
f 56/27/7 20/28/7 54/29/7 51/30/7
f 19/27/8 55/28/8 52/29/8 53/30/8
f 55/27/9 56/28/9 51/29/9 52/30/9
f 20/27/10 19/28/10 53/29/10 54/30/10
f 51/1/5 54/31/5 53/32/5 52/33/5
f 55/1/6 19/34/6 20/35/6 56/36/6
f 64/27/11 60/28/11 61/29/11 62/30/11
f 63/27/12 59/28/12 57/29/12 58/30/12
f 59/27/9 64/28/9 62/29/9 57/30/9
f 60/27/10 63/28/10 58/29/10 61/30/10
f 62/1/5 61/31/5 58/32/5 57/33/5
f 59/1/6 63/34/6 60/35/6 64/36/6
f 65/37/1 67/38/1 66/39/1 68/40/1
f 72/37/2 71/38/2 70/39/2 69/40/2
f 71/37/3 65/38/3 68/41/3 70/42/3
f 67/37/4 72/38/4 69/41/4 66/42/4
f 68/37/5 66/43/5 69/44/5 70/45/5
f 71/37/6 72/43/6 67/44/6 65/45/6
f 75/46/1 80/47/1 77/48/1 73/49/1
f 79/46/2 74/47/2 78/48/2 76/49/2
f 74/46/3 75/47/3 73/50/3 78/51/3
f 80/46/4 79/47/4 76/50/4 77/51/4
f 73/52/5 77/53/5 76/54/5 78/55/5
f 74/46/6 79/56/6 80/57/6 75/58/6
f 83/59/1 85/60/1 81/61/1 88/62/1
f 86/59/2 82/60/2 84/61/2 89/62/2
f 82/59/3 83/60/3 88/63/3 84/64/3
f 85/59/4 86/60/4 89/63/4 81/64/4
f 82/59/6 86/65/6 85/66/6 83/67/6
f 88/59/13 81/60/13 90/68/13 91/69/13
f 89/59/14 84/60/14 92/68/14 87/69/14
f 84/59/15 88/60/15 91/70/15 92/71/15
f 81/59/16 89/60/16 87/70/16 90/71/16
f 91/59/5 90/65/5 87/66/5 92/67/5
f 100/59/1 99/72/1 96/73/1 95/74/1
f 93/59/2 94/72/2 98/73/2 97/74/2
f 94/59/3 100/60/3 95/75/3 98/76/3
f 99/59/4 93/60/4 97/75/4 96/76/4
f 95/59/5 96/77/5 97/78/5 98/67/5
f 94/59/6 93/77/6 99/78/6 100/67/6
f 108/59/1 101/72/1 104/73/1 102/74/1
f 107/59/2 106/72/2 105/73/2 103/74/2
f 106/59/3 108/60/3 102/75/3 105/76/3
f 101/59/4 107/60/4 103/75/4 104/76/4
f 102/59/5 104/77/5 103/78/5 105/67/5
f 106/59/6 107/77/6 101/78/6 108/67/6
f 109/59/1 116/60/1 110/79/1 112/80/1
f 113/59/2 111/60/2 115/79/2 114/80/2
f 111/59/3 109/72/3 112/73/3 115/74/3
f 116/59/4 113/72/4 114/73/4 110/74/4
f 112/59/5 110/60/5 114/81/5 115/82/5
f 111/59/6 113/60/6 116/81/6 109/82/6
f 117/83/1 122/84/1 123/85/1 119/86/1
f 121/83/2 118/84/2 120/85/2 126/86/2
f 118/83/3 117/84/3 119/87/3 120/88/3
f 122/83/4 121/84/4 126/87/4 123/88/4
f 118/83/6 121/84/6 122/89/6 117/90/6
f 119/83/17 123/84/17 128/91/17 127/92/17
f 126/83/18 120/84/18 124/91/18 125/92/18
f 120/83/19 119/84/19 127/93/19 124/94/19
f 123/83/20 126/84/20 125/93/20 128/94/20
f 127/83/5 128/84/5 125/89/5 124/90/5
