# Blender 4.5.14 LTS
# www.blender.org
mtllib bookcase_tall.mtl
o bookcase_tall
v 0.400000 0.000000 -0.150000 0.7804 0.7804 0.7804
v 0.400000 1.800000 -0.150000 1.0000 1.0000 1.0000
v -0.400000 0.000000 -0.150000 0.7764 0.7764 0.7764
v -0.400000 1.800000 -0.130000 0.9333 0.9333 0.9333
v 0.400000 0.000000 -0.130000 0.7333 0.7333 0.7333
v 0.400000 1.800000 -0.130000 0.9333 0.9333 0.9333
v -0.400000 1.800000 -0.150000 1.0000 1.0000 1.0000
v -0.400000 0.000000 -0.130000 0.7294 0.7294 0.7294
v -0.380000 0.020000 -0.129950 0.6706 0.6706 0.6706
v 0.380000 0.020000 -0.129950 0.6745 0.6745 0.6745
v 0.380000 1.780000 -0.129950 0.6941 0.6941 0.6941
v -0.380000 1.780000 -0.129950 0.6941 0.6941 0.6941
v 0.400000 0.020000 0.150000 0.7804 0.7804 0.7804
v -0.400000 0.020000 0.150000 0.7804 0.7804 0.7804
v 0.400000 1.780000 0.150000 0.8862 0.8862 0.8862
v 0.400000 1.780000 -0.130000 0.7764 0.7764 0.7764
v -0.400000 1.780000 0.150000 0.8862 0.8862 0.8862
v 0.400000 1.800000 0.150000 1.0000 1.0000 1.0000
v -0.400000 1.800000 0.150000 1.0000 1.0000 1.0000
v -0.380000 0.020000 0.150000 0.7255 0.7255 0.7255
v -0.380000 1.780000 0.150000 0.8313 0.8313 0.8313
v -0.400000 1.780000 -0.130000 0.7764 0.7764 0.7764
v -0.380000 0.020000 -0.130000 0.6667 0.6667 0.6667
v -0.380000 1.780000 -0.130000 0.6706 0.6706 0.6706
v -0.400000 0.020000 -0.130000 0.7216 0.7216 0.7216
v 0.380000 0.020000 0.150000 0.7255 0.7255 0.7255
v 0.380000 0.020000 -0.130000 0.6667 0.6667 0.6667
v 0.380000 1.780000 -0.130000 0.6745 0.6745 0.6745
v 0.400000 0.020000 -0.130000 0.7216 0.7216 0.7216
v 0.380000 1.780000 0.150000 0.8353 0.8353 0.8353
v 0.380000 0.396000 0.130000 0.7568 0.7568 0.7568
v 0.380000 0.416000 0.130000 0.7686 0.7686 0.7686
v 0.380000 0.396000 -0.130000 0.6667 0.6667 0.6667
v -0.380000 0.416000 0.130000 0.7686 0.7686 0.7686
v 0.380000 0.416000 -0.130000 0.6745 0.6745 0.6745
v -0.380000 0.416000 -0.130000 0.6667 0.6667 0.6667
v -0.380000 0.396000 -0.130000 0.6667 0.6667 0.6667
v -0.380000 0.396000 0.130000 0.7568 0.7568 0.7568
v -0.380000 0.742000 0.130000 0.7725 0.7725 0.7725
v 0.380000 0.742000 0.130000 0.7725 0.7725 0.7725
v 0.380000 0.742000 -0.130000 0.6745 0.6745 0.6745
v -0.380000 0.762000 -0.130000 0.6667 0.6667 0.6667
v -0.380000 0.742000 -0.130000 0.6667 0.6667 0.6667
v 0.380000 0.762000 -0.130000 0.6667 0.6667 0.6667
v -0.380000 0.762000 0.130000 0.7725 0.7725 0.7725
v 0.380000 0.762000 0.130000 0.7686 0.7686 0.7686
v -0.380000 1.088000 0.130000 0.7725 0.7725 0.7725
v 0.380000 1.088000 -0.130000 0.6667 0.6667 0.6667
v -0.380000 1.088000 -0.130000 0.6667 0.6667 0.6667
v 0.380000 1.108000 -0.130000 0.6745 0.6745 0.6745
v 0.380000 1.088000 0.130000 0.7725 0.7725 0.7725
v 0.380000 1.108000 0.130000 0.7725 0.7725 0.7725
v -0.380000 1.108000 0.130000 0.7725 0.7725 0.7725
v -0.380000 1.108000 -0.130000 0.6667 0.6667 0.6667
v 0.380000 1.434000 0.130000 0.7725 0.7725 0.7725
v 0.380000 1.454000 0.130000 0.7686 0.7686 0.7686
v -0.380000 1.434000 -0.130000 0.6667 0.6667 0.6667
v -0.380000 1.454000 -0.130000 0.6667 0.6667 0.6667
v -0.380000 1.434000 0.130000 0.7725 0.7725 0.7725
v -0.380000 1.454000 0.130000 0.7725 0.7725 0.7725
v 0.380000 1.454000 -0.130000 0.6667 0.6667 0.6667
v 0.380000 1.434000 -0.130000 0.6745 0.6745 0.6745
v 0.400000 0.000000 0.130000 0.7216 0.7216 0.7216
v -0.400000 0.060000 0.130000 0.7255 0.7255 0.7255
v -0.400000 0.060000 0.150000 0.7882 0.7882 0.7882
v 0.400000 0.060000 0.150000 0.7921 0.7921 0.7921
v 0.400000 0.060000 0.130000 0.7294 0.7294 0.7294
v -0.400000 0.000000 0.130000 0.7176 0.7176 0.7176
v 0.400000 0.000000 0.150000 0.7725 0.7725 0.7725
v -0.400000 0.000000 0.150000 0.7686 0.7686 0.7686
v 0.370000 0.070000 -0.120000 0.6667 0.6667 0.6667
v -0.370000 0.070000 -0.120000 0.6667 0.6667 0.6667
v 0.370000 0.320000 -0.120000 0.6667 0.6667 0.6667
v -0.370000 0.070000 0.080000 0.7020 0.7020 0.7020
v -0.370000 0.320000 0.080000 0.7372 0.7372 0.7372
v 0.370000 0.070000 0.080000 0.7059 0.7059 0.7059
v 0.370000 0.320000 0.080000 0.7333 0.7333 0.7333
v -0.370000 0.320000 -0.120000 0.6667 0.6667 0.6667
v -0.370000 0.666000 0.080000 0.7412 0.7412 0.7412
v 0.074000 0.666000 -0.120000 0.6745 0.6745 0.6745
v 0.074000 0.416000 0.080000 0.7216 0.7216 0.7216
v 0.074000 0.666000 0.080000 0.8235 0.8235 0.8235
v -0.370000 0.666000 -0.120000 0.6667 0.6667 0.6667
v -0.370000 0.416000 -0.120000 0.6667 0.6667 0.6667
v 0.074000 0.416000 -0.120000 0.6667 0.6667 0.6667
v -0.370000 0.416000 0.080000 0.7020 0.7020 0.7020
v -0.024975 0.633725 0.080000 0.7686 0.7686 0.7686
v 0.108174 0.431003 -0.120000 0.6785 0.6785 0.6785
v -0.024975 0.633725 -0.120000 0.6667 0.6667 0.6667
v 0.076453 0.416211 -0.120000 0.6667 0.6667 0.6667
v 0.006746 0.648517 0.080000 0.7686 0.7686 0.7686
v 0.006746 0.648517 -0.120000 0.6667 0.6667 0.6667
v 0.108174 0.431003 0.080000 0.7764 0.7764 0.7764
v 0.076453 0.416211 0.080000 0.7216 0.7216 0.7216
v 0.370000 0.762000 0.080000 0.7020 0.7020 0.7020
v -0.370000 1.012000 -0.120000 0.6667 0.6667 0.6667
v -0.370000 0.762000 -0.120000 0.6667 0.6667 0.6667
v -0.370000 0.762000 0.080000 0.7020 0.7020 0.7020
v -0.370000 1.012000 0.080000 0.7412 0.7412 0.7412
v 0.370000 1.012000 0.080000 0.7412 0.7412 0.7412
v 0.370000 1.012000 -0.120000 0.6667 0.6667 0.6667
v 0.370000 0.762000 -0.120000 0.6667 0.6667 0.6667
v -0.370000 1.108000 0.080000 0.7020 0.7020 0.7020
v 0.074000 1.108000 0.080000 0.7216 0.7216 0.7216
v 0.074000 1.108000 -0.120000 0.6667 0.6667 0.6667
v 0.074000 1.358000 -0.120000 0.6745 0.6745 0.6745
v -0.370000 1.108000 -0.120000 0.6667 0.6667 0.6667
v -0.370000 1.358000 0.080000 0.7412 0.7412 0.7412
v -0.370000 1.358000 -0.120000 0.6667 0.6667 0.6667
v 0.074000 1.358000 0.080000 0.8235 0.8235 0.8235
v 0.006746 1.340517 0.080000 0.7686 0.7686 0.7686
v 0.108174 1.123003 -0.120000 0.6785 0.6785 0.6785
v 0.076453 1.108211 -0.120000 0.6667 0.6667 0.6667
v -0.024975 1.325725 -0.120000 0.6667 0.6667 0.6667
v -0.024975 1.325725 0.080000 0.7686 0.7686 0.7686
v 0.006746 1.340517 -0.120000 0.6667 0.6667 0.6667
v 0.108174 1.123003 0.080000 0.7764 0.7764 0.7764
v 0.076453 1.108211 0.080000 0.7216 0.7216 0.7216
v -0.370000 1.454000 0.080000 0.7020 0.7020 0.7020
v 0.370000 1.454000 0.080000 0.7020 0.7020 0.7020
v 0.370000 1.454000 -0.120000 0.6667 0.6667 0.6667
v -0.370000 1.704000 -0.120000 0.6667 0.6667 0.6667
v -0.370000 1.454000 -0.120000 0.6667 0.6667 0.6667
v 0.370000 1.704000 -0.120000 0.6667 0.6667 0.6667
v 0.370000 1.704000 0.080000 0.7333 0.7333 0.7333
v -0.370000 1.704000 0.080000 0.7333 0.7333 0.7333
vn -0.0000 -0.0000 -1.0000
vn -1.0000 -0.0000 -0.0000
vn 1.0000 -0.0000 -0.0000
vn -0.0000 1.0000 -0.0000
vn -0.0000 -1.0000 -0.0000
vn -0.0000 -0.0000 1.0000
vn -0.9063 -0.4226 -0.0000
vn 0.9063 0.4226 -0.0000
vn -0.4226 0.9063 -0.0000
vn 0.4226 -0.9063 -0.0000
vt 0.125488 0.812988
vt 0.152832 0.812988
vt 0.152832 0.874512
vt 0.125488 0.874512
vt 0.126172 0.812988
vt 0.126172 0.874512
vt 0.187012 0.812988
vt 0.187012 0.814526
vt 0.125488 0.814526
vt 0.152055 0.812988
vt 0.152055 0.874512
vt 0.159941 0.812988
vt 0.159941 0.815449
vt 0.125488 0.815449
vt 0.187012 0.834521
vt 0.125488 0.834521
vt 0.126187 0.812988
vt 0.126187 0.874512
vt 0.135276 0.812988
vt 0.135276 0.874512
vt 0.127949 0.812988
vt 0.127949 0.847441
vt 0.125488 0.847441
vt 0.187012 0.814607
vt 0.125488 0.814607
vt 0.157480 0.812988
vt 0.157480 0.815449
vt 0.187012 0.834036
vt 0.125488 0.834036
vt 0.187012 0.817603
vt 0.125488 0.817603
vt 0.127949 0.820371
vt 0.125488 0.820371
vt 0.500488 0.844238
vt 0.562012 0.844238
vt 0.562012 0.874512
vt 0.500488 0.874512
vt 0.656738 0.797363
vt 0.671387 0.797363
vt 0.671387 0.802312
vt 0.656738 0.802312
vt 0.668457 0.797363
vt 0.668457 0.812012
vt 0.656738 0.812012
vt 0.671387 0.801322
vt 0.656738 0.801322
vt 0.437988 0.844238
vt 0.499512 0.844238
vt 0.499512 0.874512
vt 0.437988 0.874512
vt 0.671387 0.805611
vt 0.656738 0.805611
vt 0.671387 0.803962
vt 0.656738 0.803962
vt 0.391113 0.828613
vt 0.395215 0.828613
vt 0.395215 0.857988
vt 0.391113 0.857988
vt 0.405762 0.828613
vt 0.405762 0.846973
vt 0.391113 0.846973
vt 0.395215 0.853092
vt 0.391113 0.853092
s 0
usemtl props
f 1/1/1 3/2/1 7/3/1 2/4/1
f 3/1/2 8/5/2 4/6/2 7/4/2
f 5/1/3 1/5/3 2/6/3 6/4/3
f 4/1/4 6/7/4 2/8/4 7/9/4
f 3/1/5 1/7/5 5/8/5 8/9/5
f 9/1/6 10/10/6 11/11/6 12/4/6
f 70/1/6 69/7/6 13/8/6 14/9/6
f 5/1/1 8/7/1 25/8/1 29/9/1
f 8/1/2 70/12/2 14/13/2 25/14/2
f 69/1/3 5/12/3 29/13/3 13/14/3
f 14/1/4 13/7/4 29/15/4 25/16/4
f 8/1/5 5/7/5 69/15/5 70/16/5
f 17/1/6 15/7/6 18/8/6 19/9/6
f 16/1/1 22/7/1 4/8/1 6/9/1
f 22/1/2 17/12/2 19/13/2 4/14/2
f 15/1/3 16/12/3 6/13/3 18/14/3
f 19/1/4 18/7/4 6/15/4 4/16/4
f 22/1/5 16/7/5 15/15/5 17/16/5
f 14/1/6 20/17/6 21/18/6 17/4/6
f 23/1/1 25/17/1 22/18/1 24/4/1
f 25/1/2 14/19/2 17/20/2 22/4/2
f 20/1/3 23/19/3 24/20/3 21/4/3
f 17/1/4 21/21/4 24/22/4 22/23/4
f 25/1/5 23/21/5 20/22/5 14/23/5
f 26/1/6 13/17/6 15/18/6 30/4/6
f 29/1/1 27/17/1 28/18/1 16/4/1
f 27/1/2 26/19/2 30/20/2 28/4/2
f 13/1/3 29/19/3 16/20/3 15/4/3
f 30/1/4 15/21/4 16/22/4 28/23/4
f 27/1/5 29/21/5 13/22/5 26/23/5
f 38/1/6 31/7/6 32/24/6 34/25/6
f 33/1/1 37/7/1 36/24/1 35/25/1
f 37/1/2 38/26/2 34/27/2 36/14/2
f 31/1/3 33/26/3 35/27/3 32/14/3
f 34/1/4 32/7/4 35/28/4 36/29/4
f 37/1/5 33/7/5 31/28/5 38/29/5
f 39/1/6 40/7/6 46/24/6 45/25/6
f 41/1/1 43/7/1 42/24/1 44/25/1
f 43/1/2 39/26/2 45/27/2 42/14/2
f 40/1/3 41/26/3 44/27/3 46/14/3
f 45/1/4 46/7/4 44/28/4 42/29/4
f 43/1/5 41/7/5 40/28/5 39/29/5
f 47/1/6 51/7/6 52/24/6 53/25/6
f 48/1/1 49/7/1 54/24/1 50/25/1
f 49/1/2 47/26/2 53/27/2 54/14/2
f 51/1/3 48/26/3 50/27/3 52/14/3
f 53/1/4 52/7/4 50/28/4 54/29/4
f 49/1/5 48/7/5 51/28/5 47/29/5
f 59/1/6 55/7/6 56/24/6 60/25/6
f 62/1/1 57/7/1 58/24/1 61/25/1
f 57/1/2 59/26/2 60/27/2 58/14/2
f 55/1/3 62/26/3 61/27/3 56/14/3
f 60/1/4 56/7/4 61/28/4 58/29/4
f 57/1/5 62/7/5 55/28/5 59/29/5
f 70/1/6 69/7/6 66/30/6 65/31/6
f 63/1/1 68/7/1 64/30/1 67/31/1
f 68/1/2 70/21/2 65/32/2 64/33/2
f 69/1/3 63/21/3 67/32/3 66/33/3
f 65/1/4 66/7/4 67/8/4 64/9/4
f 68/1/5 63/7/5 69/8/5 70/9/5
f 74/34/6 76/35/6 77/36/6 75/37/6
f 71/38/1 72/39/1 78/40/1 73/41/1
f 72/38/2 74/42/2 75/43/2 78/44/2
f 76/38/3 71/42/3 73/43/3 77/44/3
f 75/38/4 77/39/4 73/45/4 78/46/4
f 72/38/5 71/39/5 76/45/5 74/46/5
f 86/47/6 81/48/6 82/49/6 79/50/6
f 85/38/1 84/39/1 83/51/1 80/52/1
f 84/38/2 86/42/2 79/43/2 83/44/2
f 81/38/3 85/42/3 80/43/3 82/44/3
f 79/38/4 82/39/4 80/53/4 83/54/4
f 84/38/5 85/39/5 81/53/5 86/54/5
f 94/55/6 93/56/6 91/57/6 87/58/6
f 88/55/1 90/56/1 89/57/1 92/58/1
f 90/55/7 94/59/7 87/60/7 89/61/7
f 93/55/8 88/59/8 92/60/8 91/61/8
f 87/55/9 91/56/9 92/62/9 89/63/9
f 90/55/10 88/56/10 93/62/10 94/63/10
f 98/34/6 95/35/6 100/36/6 99/37/6
f 102/38/1 97/39/1 96/40/1 101/41/1
f 97/38/2 98/42/2 99/43/2 96/44/2
f 95/38/3 102/42/3 101/43/3 100/44/3
f 99/38/4 100/39/4 101/45/4 96/46/4
f 97/38/5 102/39/5 95/45/5 98/46/5
f 103/47/6 104/48/6 110/49/6 108/50/6
f 105/38/1 107/39/1 109/51/1 106/52/1
f 107/38/2 103/42/2 108/43/2 109/44/2
f 104/38/3 105/42/3 106/43/3 110/44/3
f 108/38/4 110/39/4 106/53/4 109/54/4
f 107/38/5 105/39/5 104/53/5 103/54/5
f 118/55/6 117/56/6 111/57/6 115/58/6
f 112/55/1 113/56/1 114/57/1 116/58/1
f 113/55/7 118/59/7 115/60/7 114/61/7
f 117/55/8 112/59/8 116/60/8 111/61/8
f 115/55/9 111/56/9 116/62/9 114/63/9
f 113/55/10 112/56/10 117/62/10 118/63/10
f 119/34/6 120/35/6 125/36/6 126/37/6
f 121/38/1 123/39/1 122/40/1 124/41/1
f 123/38/2 119/42/2 126/43/2 122/44/2
f 120/38/3 121/42/3 124/43/3 125/44/3
f 126/38/4 125/39/4 124/45/4 122/46/4
f 123/38/5 121/39/5 120/45/5 119/46/5
