# Blender 4.5.14 LTS
# www.blender.org
mtllib book_stack.mtl
o book_stack
v 0.130000 0.025000 0.170000 0.9019 0.9019 0.9019
v -0.130000 0.025000 -0.170000 0.9019 0.9019 0.9019
v -0.130000 0.000000 -0.170000 0.7725 0.7725 0.7725
v 0.130000 0.000000 0.170000 0.7764 0.7764 0.7764
v 0.130000 0.025000 -0.170000 0.9058 0.9058 0.9058
v -0.130000 0.025000 0.170000 0.8980 0.8980 0.8980
v 0.130000 0.000000 -0.170000 0.7764 0.7764 0.7764
v -0.130000 0.000000 0.170000 0.7725 0.7725 0.7725
v -0.111472 0.025000 -0.110562 0.7764 0.7764 0.7764
v -0.076679 0.025000 0.137005 0.7725 0.7725 0.7725
v 0.111472 0.025000 0.110562 0.7804 0.7804 0.7804
v 0.076679 0.060000 -0.137005 0.9294 0.9294 0.9294
v -0.076679 0.060000 0.137005 0.9176 0.9176 0.9176
v 0.111472 0.060000 0.110562 0.9215 0.9215 0.9215
v -0.111472 0.060000 -0.110562 0.9255 0.9255 0.9255
v 0.076679 0.025000 -0.137005 0.7804 0.7804 0.7804
v -0.078885 0.060000 0.098500 0.7843 0.7843 0.7843
v -0.078885 0.110000 0.098500 0.9686 0.9686 0.9686
v 0.078885 0.060000 -0.098500 0.7921 0.7921 0.7921
v 0.060582 0.060000 0.110701 0.7804 0.7804 0.7804
v 0.060582 0.110000 0.110701 0.9529 0.9529 0.9529
v 0.078885 0.110000 -0.098500 0.9686 0.9686 0.9686
v -0.060582 0.110000 -0.110701 0.9490 0.9490 0.9490
v -0.060582 0.060000 -0.110701 0.7804 0.7804 0.7804
v 0.072510 0.110000 0.076598 0.8823 0.8823 0.8823
v 0.072510 0.145000 0.076598 0.9843 0.9843 0.9843
v -0.035086 0.145000 0.099468 0.9764 0.9764 0.9764
v 0.035086 0.110000 -0.099468 0.7843 0.7843 0.7843
v 0.035086 0.145000 -0.099468 0.9804 0.9804 0.9804
v -0.072510 0.145000 -0.076598 0.9843 0.9843 0.9843
v -0.072510 0.110000 -0.076598 0.8784 0.8784 0.8784
v -0.035086 0.110000 0.099468 0.7843 0.7843 0.7843
vn -0.0000 -0.0000 1.0000
vn -0.0000 -0.0000 -1.0000
vn -1.0000 -0.0000 -0.0000
vn 1.0000 -0.0000 -0.0000
vn -0.0000 1.0000 -0.0000
vn -0.0000 -1.0000 -0.0000
vn 0.1392 -0.0000 0.9903
vn -0.1392 -0.0000 -0.9903
vn -0.9903 -0.0000 0.1392
vn 0.9903 -0.0000 -0.1392
vn -0.0872 -0.0000 0.9962
vn 0.0872 -0.0000 -0.9962
vn -0.9962 -0.0000 -0.0872
vn 0.9962 -0.0000 0.0872
vn 0.2079 -0.0000 0.9781
vn -0.2079 -0.0000 -0.9781
vn -0.9781 -0.0000 0.2079
vn 0.9781 -0.0000 -0.2079
vt 0.656738 0.797363
vt 0.671387 0.797363
vt 0.671387 0.812012
vt 0.656738 0.812012
vt 0.391113 0.828613
vt 0.405762 0.828613
vt 0.405762 0.874512
vt 0.391113 0.874512
vt 0.281738 0.828613
vt 0.312012 0.828613
vt 0.312012 0.874512
vt 0.281738 0.874512
vt 0.406738 0.828613
vt 0.421387 0.828613
vt 0.421387 0.874512
vt 0.406738 0.874512
vt 0.312988 0.828613
vt 0.343262 0.828613
vt 0.343262 0.874512
vt 0.312988 0.874512
vt 0.375488 0.828613
vt 0.390137 0.828613
vt 0.390137 0.874512
vt 0.375488 0.874512
vt 0.250488 0.828613
vt 0.280762 0.828613
vt 0.280762 0.874512
vt 0.250488 0.874512
vt 0.422363 0.828613
vt 0.437012 0.828613
vt 0.437012 0.874512
vt 0.422363 0.874512
vt 0.344238 0.828613
vt 0.374512 0.828613
vt 0.374512 0.874512
vt 0.344238 0.874512
s 0
usemtl props
f 8/1/1 4/2/1 1/3/1 6/4/1
f 7/1/2 3/2/2 2/3/2 5/4/2
f 3/5/3 8/6/3 6/7/3 2/8/3
f 4/1/4 7/2/4 5/3/4 1/4/4
f 6/9/5 1/10/5 5/11/5 2/12/5
f 3/9/6 7/10/6 4/11/6 8/12/6
f 10/1/7 11/2/7 14/3/7 13/4/7
f 16/1/8 9/2/8 15/3/8 12/4/8
f 9/13/9 10/14/9 13/15/9 15/16/9
f 11/1/10 16/2/10 12/3/10 14/4/10
f 13/17/5 14/18/5 12/19/5 15/20/5
f 9/17/6 16/18/6 11/19/6 10/20/6
f 17/1/11 20/2/11 21/3/11 18/4/11
f 19/1/12 24/2/12 23/3/12 22/4/12
f 24/21/13 17/22/13 18/23/13 23/24/13
f 20/1/14 19/2/14 22/3/14 21/4/14
f 18/25/5 21/26/5 22/27/5 23/28/5
f 24/25/6 19/26/6 20/27/6 17/28/6
f 32/1/15 25/2/15 26/3/15 27/4/15
f 28/1/16 31/2/16 30/3/16 29/4/16
f 31/29/17 32/30/17 27/31/17 30/32/17
f 25/1/18 28/2/18 29/3/18 26/4/18
f 27/33/5 26/34/5 29/35/5 30/36/5
f 31/33/6 28/34/6 25/35/6 32/36/6
