# Blender 4.5.14 LTS
# www.blender.org
mtllib box.mtl
o box
v -0.250000 0.000000 0.200000 0.7764 0.7764 0.7764
v 0.250000 0.000000 0.200000 0.7764 0.7764 0.7764
v -0.250000 0.380000 -0.200000 1.0000 1.0000 1.0000
v -0.250000 0.000000 -0.200000 0.7764 0.7764 0.7764
v -0.250000 0.380000 0.200000 1.0000 1.0000 1.0000
v 0.250000 0.380000 0.200000 1.0000 1.0000 1.0000
v 0.250000 0.380000 -0.200000 1.0000 1.0000 1.0000
v 0.250000 0.000000 -0.200000 0.7804 0.7804 0.7804
vn -0.0000 -0.0000 1.0000
vn -0.0000 -0.0000 -1.0000
vn -1.0000 -0.0000 -0.0000
vn 1.0000 -0.0000 -0.0000
vn -0.0000 1.0000 -0.0000
vn -0.0000 -1.0000 -0.0000
vt 0.656738 0.844238
vt 0.687012 0.844238
vt 0.687012 0.874512
vt 0.656738 0.874512
vt 0.719238 0.844238
vt 0.749512 0.844238
vt 0.749512 0.874512
vt 0.719238 0.874512
vt 0.750488 0.844238
vt 0.780762 0.844238
vt 0.780762 0.874512
vt 0.750488 0.874512
s 0
usemtl props
f 1/1/1 2/2/1 6/3/1 5/4/1
f 8/1/2 4/2/2 3/3/2 7/4/2
f 4/5/3 1/6/3 5/7/3 3/8/3
f 2/5/4 8/6/4 7/7/4 6/8/4
f 5/9/5 6/10/5 7/11/5 3/12/5
f 4/5/6 8/6/6 2/7/6 1/8/6
