# Blender 4.5.14 LTS
# www.blender.org
mtllib box_open.mtl
o box_open
v -0.250000 0.000000 0.200000 0.7764 0.7764 0.7764
v 0.250000 0.380000 0.200000 0.8549 0.8549 0.8549
v -0.250000 0.380000 0.200000 0.8588 0.8588 0.8588
v -0.250000 0.000000 0.194000 0.7216 0.7216 0.7216
v -0.250000 0.380000 0.194000 0.7764 0.7764 0.7764
v 0.250000 0.000000 0.200000 0.7764 0.7764 0.7764
v -0.250000 0.380000 -0.200000 0.8549 0.8549 0.8549
v 0.250000 0.380000 -0.200000 0.8588 0.8588 0.8588
v -0.250000 0.000000 -0.200000 0.7764 0.7764 0.7764
v -0.250000 0.380000 -0.194000 0.7764 0.7764 0.7764
v 0.250000 0.000000 -0.200000 0.7804 0.7804 0.7804
v -0.244000 0.380000 -0.194000 0.7647 0.7647 0.7647
v -0.244000 0.380000 0.194000 0.7686 0.7686 0.7686
v -0.250000 0.000000 -0.194000 0.7216 0.7216 0.7216
v -0.244000 0.000000 -0.194000 0.6667 0.6667 0.6667
v 0.244000 0.000000 -0.194000 0.6667 0.6667 0.6667
v 0.244000 0.380000 -0.194000 0.7686 0.7686 0.7686
v 0.250000 0.000000 -0.194000 0.7216 0.7216 0.7216
v 0.244000 0.380000 0.194000 0.7686 0.7686 0.7686
v 0.250000 0.380000 0.194000 0.7725 0.7725 0.7725
v 0.250000 0.380000 -0.194000 0.7764 0.7764 0.7764
v 0.250000 0.000000 0.194000 0.7216 0.7216 0.7216
v 0.244000 0.000000 0.194000 0.6667 0.6667 0.6667
v 0.244000 0.006000 -0.194000 0.6941 0.6941 0.6941
v 0.244000 0.006000 0.194000 0.6941 0.6941 0.6941
v -0.244000 0.006000 0.194000 0.6941 0.6941 0.6941
v -0.244000 0.006000 -0.194000 0.6941 0.6941 0.6941
v -0.244000 0.000000 0.194000 0.6667 0.6667 0.6667
vn -0.0000 -0.0000 1.0000
vn -0.0000 -0.0000 -1.0000
vn -1.0000 -0.0000 -0.0000
vn 1.0000 -0.0000 -0.0000
vn -0.0000 1.0000 -0.0000
vn -0.0000 -1.0000 -0.0000
vt 0.687988 0.844238
vt 0.718262 0.844238
vt 0.718262 0.874512
vt 0.687988 0.874512
vt 0.719238 0.844238
vt 0.749512 0.844238
vt 0.749512 0.874512
vt 0.719238 0.874512
s 0
usemtl props
f 1/1/1 6/2/1 2/3/1 3/4/1
f 22/5/2 4/6/2 5/7/2 20/8/2
f 4/1/3 1/2/3 3/3/3 5/4/3
f 6/1/4 22/2/4 20/3/4 2/4/4
f 3/1/5 2/2/5 20/3/5 5/4/5
f 4/1/6 22/2/6 6/3/6 1/4/6
f 14/5/1 18/6/1 21/7/1 10/8/1
f 11/1/2 9/2/2 7/3/2 8/4/2
f 9/1/3 14/2/3 10/3/3 7/4/3
f 18/1/4 11/2/4 8/3/4 21/4/4
f 10/1/5 21/2/5 8/3/5 7/4/5
f 9/1/6 11/2/6 18/3/6 14/4/6
f 4/5/1 28/6/1 13/7/1 5/8/1
f 15/5/2 14/6/2 10/7/2 12/8/2
f 14/5/3 4/6/3 5/7/3 10/8/3
f 28/5/4 15/6/4 12/7/4 13/8/4
f 5/5/5 13/6/5 12/7/5 10/8/5
f 14/5/6 15/6/6 28/7/6 4/8/6
f 23/5/1 22/6/1 20/7/1 19/8/1
f 18/5/2 16/6/2 17/7/2 21/8/2
f 16/5/3 23/6/3 19/7/3 17/8/3
f 22/5/4 18/6/4 21/7/4 20/8/4
f 19/5/5 20/6/5 21/7/5 17/8/5
f 16/5/6 18/6/6 22/7/6 23/8/6
f 28/5/1 23/6/1 25/7/1 26/8/1
f 16/5/2 15/6/2 27/7/2 24/8/2
f 15/5/3 28/6/3 26/7/3 27/8/3
f 23/5/4 16/6/4 24/7/4 25/8/4
f 26/5/5 25/6/5 24/7/5 27/8/5
f 15/5/6 16/6/6 23/7/6 28/8/6
o box_open_flap_front
v 0.250000 0.380000 0.200000 0.7764 0.7764 0.7764
v 0.250000 0.378958 0.205909 0.9451 0.9451 0.9451
v -0.250000 0.378958 0.205909 0.9490 0.9490 0.9490
v -0.250000 0.576962 0.234730 0.9451 0.9451 0.9451
v -0.250000 0.380000 0.200000 0.7804 0.7804 0.7804
v -0.250000 0.575920 0.240638 0.9843 0.9843 0.9843
v 0.250000 0.575920 0.240638 0.9804 0.9804 0.9804
v 0.250000 0.576962 0.234730 0.9451 0.9451 0.9451
vn -0.0000 -0.9848 -0.1736
vn -0.0000 0.9848 0.1736
vn -1.0000 -0.0000 -0.0000
vn 1.0000 -0.0000 -0.0000
vn -0.0000 -0.1736 0.9848
vn -0.0000 0.1736 -0.9848
vt 0.719238 0.844238
vt 0.749512 0.844238
vt 0.749512 0.874512
vt 0.719238 0.874512
s 0
usemtl props
f 33/9/7 29/10/7 30/11/7 31/12/7
f 36/9/8 32/10/8 34/11/8 35/12/8
f 32/9/9 33/10/9 31/11/9 34/12/9
f 29/9/10 36/10/10 35/11/10 30/12/10
f 31/9/11 30/10/11 35/11/11 34/12/11
f 32/9/12 36/10/12 29/11/12 33/12/12
o box_open_flap_back
v 0.250000 0.575920 -0.240638 0.9843 0.9843 0.9843
v -0.250000 0.575920 -0.240638 0.9843 0.9843 0.9843
v -0.250000 0.378958 -0.205909 0.9490 0.9490 0.9490
v -0.250000 0.380000 -0.200000 0.7804 0.7804 0.7804
v 0.250000 0.378958 -0.205909 0.9490 0.9490 0.9490
v 0.250000 0.380000 -0.200000 0.7804 0.7804 0.7804
v 0.250000 0.576962 -0.234730 0.9529 0.9529 0.9529
v -0.250000 0.576962 -0.234730 0.9529 0.9529 0.9529
vn -0.0000 0.9848 -0.1736
vn -0.0000 -0.9848 0.1736
vn -1.0000 -0.0000 -0.0000
vn 1.0000 -0.0000 -0.0000
vn -0.0000 -0.1736 -0.9848
vn -0.0000 0.1736 0.9848
vt 0.719238 0.844238
vt 0.749512 0.844238
vt 0.749512 0.874512
vt 0.719238 0.874512
s 0
usemtl props
f 44/13/13 43/14/13 37/15/13 38/16/13
f 42/13/14 40/14/14 39/15/14 41/16/14
f 40/13/15 44/14/15 38/15/15 39/16/15
f 43/13/16 42/14/16 41/15/16 37/16/16
f 38/13/17 37/14/17 41/15/17 39/16/17
f 40/13/18 42/14/18 43/15/18 44/16/18
o box_open_flap_left
v -0.287503 0.627244 0.200000 0.9843 0.9843 0.9843
v -0.293412 0.626202 0.200000 0.9921 0.9921 0.9921
v -0.287503 0.627244 -0.200000 0.9843 0.9843 0.9843
v -0.250000 0.380000 -0.200000 0.8353 0.8353 0.8353
v -0.293412 0.626202 -0.200000 0.9921 0.9921 0.9921
v -0.244091 0.381042 -0.200000 0.7176 0.7176 0.7176
v -0.244091 0.381042 0.200000 0.7216 0.7216 0.7216
v -0.250000 0.380000 0.200000 0.8353 0.8353 0.8353
vn -0.0000 -0.0000 1.0000
vn -0.0000 -0.0000 -1.0000
vn 0.1736 -0.9848 -0.0000
vn -0.1736 0.9848 -0.0000
vn -0.9848 -0.1736 -0.0000
vn 0.9848 0.1736 -0.0000
vt 0.719238 0.844238
vt 0.749512 0.844238
vt 0.749512 0.874512
vt 0.719238 0.874512
s 0
usemtl props
f 51/17/19 45/18/19 46/19/19 52/20/19
f 47/17/20 50/18/20 48/19/20 49/20/20
f 50/17/21 51/18/21 52/19/21 48/20/21
f 45/17/22 47/18/22 49/19/22 46/20/22
f 52/17/23 46/18/23 49/19/23 48/20/23
f 50/17/24 47/18/24 45/19/24 51/20/24
o box_open_flap_right
v 0.293412 0.626202 0.200000 0.9921 0.9921 0.9921
v 0.244091 0.381042 -0.200000 0.7176 0.7176 0.7176
v 0.250000 0.380000 0.200000 0.8313 0.8313 0.8313
v 0.250000 0.380000 -0.200000 0.8353 0.8353 0.8353
v 0.293412 0.626202 -0.200000 0.9921 0.9921 0.9921
v 0.287503 0.627244 -0.200000 0.9843 0.9843 0.9843
v 0.244091 0.381042 0.200000 0.7176 0.7176 0.7176
v 0.287503 0.627244 0.200000 0.9843 0.9843 0.9843
vn -0.0000 -0.0000 1.0000
vn -0.0000 -0.0000 -1.0000
vn 0.1736 0.9848 -0.0000
vn -0.1736 -0.9848 -0.0000
vn 0.9848 -0.1736 -0.0000
vn -0.9848 0.1736 -0.0000
vt 0.719238 0.844238
vt 0.749512 0.844238
vt 0.749512 0.874512
vt 0.719238 0.874512
s 0
usemtl props
f 60/21/25 59/22/25 55/23/25 53/24/25
f 54/21/26 58/22/26 57/23/26 56/24/26
f 58/21/27 60/22/27 53/23/27 57/24/27
f 59/21/28 54/22/28 56/23/28 55/24/28
f 53/21/29 55/22/29 56/23/29 57/24/29
f 58/21/30 54/22/30 59/23/30 60/24/30
