# Blender 4.5.14 LTS
# www.blender.org
mtllib can_soup.mtl
o can_soup
v 0.000000 0.000000 -0.037000 0.7764 0.7764 0.7764
v 0.000000 0.110000 -0.037000 0.9725 0.9725 0.9725
v -0.035189 0.000000 -0.011434 0.7764 0.7764 0.7764
v -0.035189 0.110000 -0.011434 0.9725 0.9725 0.9725
v -0.000000 0.000000 0.037000 0.7764 0.7764 0.7764
v 0.021748 0.000000 0.029934 0.7764 0.7764 0.7764
v 0.021748 0.110000 0.029934 0.9725 0.9725 0.9725
v 0.035189 0.110000 -0.011434 0.9725 0.9725 0.9725
v 0.035189 0.110000 0.011434 0.9686 0.9686 0.9686
v 0.021748 0.000000 -0.029934 0.7804 0.7804 0.7804
v 0.021748 0.110000 -0.029934 0.9725 0.9725 0.9725
v -0.021748 0.110000 -0.029934 0.9686 0.9686 0.9686
v -0.035189 0.110000 0.011434 0.9686 0.9686 0.9686
v -0.021748 0.110000 0.029934 0.9725 0.9725 0.9725
v -0.000000 0.110000 0.037000 0.9725 0.9725 0.9725
v 0.035189 0.000000 -0.011434 0.7804 0.7804 0.7804
v 0.035189 0.000000 0.011434 0.7804 0.7804 0.7804
v -0.021748 0.000000 0.029934 0.7764 0.7764 0.7764
v -0.035189 0.000000 0.011434 0.7764 0.7764 0.7764
v -0.021748 0.000000 -0.029934 0.7764 0.7764 0.7764
v 0.000000 0.110000 -0.034040 0.8196 0.8196 0.8196
v -0.020008 0.110000 -0.027539 0.8196 0.8196 0.8196
v -0.032374 0.116000 -0.010519 0.9921 0.9921 0.9921
v -0.032374 0.116000 0.010519 0.9960 0.9960 0.9960
v -0.020008 0.110000 0.027539 0.8157 0.8157 0.8157
v -0.000000 0.110000 0.034040 0.8157 0.8157 0.8157
v 0.020008 0.110000 0.027539 0.8196 0.8196 0.8196
v 0.032374 0.110000 -0.010519 0.8235 0.8235 0.8235
v 0.032374 0.116000 0.010519 0.9921 0.9921 0.9921
v 0.032374 0.116000 -0.010519 0.9921 0.9921 0.9921
v 0.020008 0.110000 -0.027539 0.8235 0.8235 0.8235
v 0.000000 0.116000 -0.034040 0.9960 0.9960 0.9960
v -0.020008 0.116000 -0.027539 0.9921 0.9921 0.9921
v -0.020008 0.116000 0.027539 0.9960 0.9960 0.9960
v -0.000000 0.116000 0.034040 0.9921 0.9921 0.9921
v 0.020008 0.116000 0.027539 0.9921 0.9921 0.9921
v 0.020008 0.116000 -0.027539 0.9960 0.9960 0.9960
v 0.032374 0.110000 0.010519 0.8235 0.8235 0.8235
v -0.032374 0.110000 0.010519 0.8157 0.8157 0.8157
v -0.032374 0.110000 -0.010519 0.8196 0.8196 0.8196
vn -0.0000 -0.0000 -1.0000
vn -0.5878 -0.0000 -0.8090
vn -0.9511 -0.0000 -0.3090
vn -0.9511 -0.0000 0.3090
vn -0.5878 -0.0000 0.8090
vn -0.0000 -0.0000 1.0000
vn 0.5878 -0.0000 0.8090
vn 0.9511 -0.0000 0.3090
vn 0.9511 -0.0000 -0.3090
vn 0.5878 -0.0000 -0.8090
vn -0.0000 1.0000 -0.0000
vn -0.0000 -1.0000 -0.0000
vt 0.062988 0.781738
vt 0.066016 0.781738
vt 0.066016 0.812012
vt 0.062988 0.812012
vt 0.069043 0.781738
vt 0.069043 0.812012
vt 0.072070 0.781738
vt 0.072070 0.812012
vt 0.075098 0.781738
vt 0.075098 0.812012
vt 0.078125 0.781738
vt 0.078125 0.812012
vt 0.081152 0.781738
vt 0.081152 0.812012
vt 0.084180 0.781738
vt 0.084180 0.812012
vt 0.087207 0.781738
vt 0.087207 0.812012
vt 0.090234 0.781738
vt 0.090234 0.812012
vt 0.093262 0.781738
vt 0.093262 0.812012
vt 0.468262 0.796875
vt 0.465371 0.806230
vt 0.457803 0.812012
vt 0.448447 0.812012
vt 0.440879 0.806230
vt 0.437988 0.796875
vt 0.440879 0.787520
vt 0.448447 0.781738
vt 0.457803 0.781738
vt 0.465371 0.787520
vt 0.437988 0.781738
vt 0.441016 0.781738
vt 0.441016 0.812012
vt 0.437988 0.812012
vt 0.444043 0.781738
vt 0.444043 0.812012
vt 0.447070 0.781738
vt 0.447070 0.812012
vt 0.450098 0.781738
vt 0.450098 0.812012
vt 0.453125 0.781738
vt 0.453125 0.812012
vt 0.456152 0.781738
vt 0.456152 0.812012
vt 0.459180 0.781738
vt 0.459180 0.812012
vt 0.462207 0.781738
vt 0.462207 0.812012
vt 0.465234 0.781738
vt 0.465234 0.812012
vt 0.468262 0.781738
vt 0.468262 0.812012
s 1
usemtl props
f 1/1/1 20/2/2 12/3/2 2/4/1
f 20/2/2 3/5/3 4/6/3 12/3/2
f 3/5/3 19/7/4 13/8/4 4/6/3
f 19/7/4 18/9/5 14/10/5 13/8/4
f 18/9/5 5/11/6 15/12/6 14/10/5
f 5/11/6 6/13/7 7/14/7 15/12/6
f 6/13/7 17/15/8 9/16/8 7/14/7
f 17/15/8 16/17/9 8/18/9 9/16/8
f 16/17/9 10/19/10 11/20/10 8/18/9
f 10/19/10 1/21/1 2/22/1 11/20/10
s 0
f 2/23/11 12/24/11 4/25/11 13/26/11 14/27/11 15/28/11 7/29/11 9/30/11 8/31/11 11/32/11
f 10/24/12 16/25/12 17/26/12 6/27/12 5/28/12 18/29/12 19/30/12 3/31/12 20/32/12 1/23/12
s 1
f 21/33/1 22/34/2 33/35/2 32/36/1
f 22/34/2 40/37/3 23/38/3 33/35/2
f 40/37/3 39/39/4 24/40/4 23/38/3
f 39/39/4 25/41/5 34/42/5 24/40/4
f 25/41/5 26/43/6 35/44/6 34/42/5
f 26/43/6 27/45/7 36/46/7 35/44/6
f 27/45/7 38/47/8 29/48/8 36/46/7
f 38/47/8 28/49/9 30/50/9 29/48/8
f 28/49/9 31/51/10 37/52/10 30/50/9
f 31/51/10 21/53/1 32/54/1 37/52/10
s 0
f 32/23/11 33/24/11 23/25/11 24/26/11 34/27/11 35/28/11 36/29/11 29/30/11 30/31/11 37/32/11
f 31/24/12 28/25/12 38/26/12 27/27/12 26/28/12 25/29/12 39/30/12 40/31/12 22/32/12 21/23/12
