# Blender 4.5.14 LTS
# www.blender.org
mtllib cereal_corn.mtl
o cereal_corn
v -0.100000 0.000000 0.035000 0.7764 0.7764 0.7764
v 0.100000 0.000000 0.035000 0.7764 0.7764 0.7764
v -0.100000 0.290000 -0.035000 1.0000 1.0000 1.0000
v -0.100000 0.000000 -0.035000 0.7764 0.7764 0.7764
v -0.100000 0.290000 0.035000 1.0000 1.0000 1.0000
v 0.100000 0.290000 0.035000 1.0000 1.0000 1.0000
v 0.100000 0.290000 -0.035000 1.0000 1.0000 1.0000
v 0.100000 0.000000 -0.035000 0.7804 0.7804 0.7804
vn -0.0000 -0.0000 1.0000
vn -0.0000 -0.0000 -1.0000
vn -1.0000 -0.0000 -0.0000
vn 1.0000 -0.0000 -0.0000
vn -0.0000 1.0000 -0.0000
vn -0.0000 -1.0000 -0.0000
vt 0.094238 0.781738
vt 0.124512 0.781738
vt 0.124512 0.812012
vt 0.094238 0.812012
s 0
usemtl props
f 1/1/1 2/2/1 6/3/1 5/4/1
f 8/1/2 4/2/2 3/3/2 7/4/2
f 4/1/3 1/2/3 5/3/3 3/4/3
f 2/1/4 8/2/4 7/3/4 6/4/4
f 5/1/5 6/2/5 7/3/5 3/4/5
f 4/1/6 8/2/6 2/3/6 1/4/6
