# Blender 4.5.14 LTS
# www.blender.org
mtllib chair_ladder_pine.mtl
o chair_ladder_pine
v -0.177500 0.000000 0.202500 0.7764 0.7764 0.7764
v -0.177500 0.000000 0.167500 0.7764 0.7764 0.7764
v -0.212500 0.000000 0.167500 0.7725 0.7725 0.7725
v -0.212500 0.450000 0.167500 0.6667 0.6667 0.6667
v -0.212500 0.450000 0.202500 0.6667 0.6667 0.6667
v -0.177500 0.450000 0.202500 0.6667 0.6667 0.6667
v -0.177500 0.450000 0.167500 0.6667 0.6667 0.6667
v -0.212500 0.000000 0.202500 0.7764 0.7764 0.7764
v 0.177500 0.000000 0.202500 0.7725 0.7725 0.7725
v 0.212500 0.000000 0.202500 0.7764 0.7764 0.7764
v 0.212500 0.450000 0.202500 0.6667 0.6667 0.6667
v 0.177500 0.000000 0.167500 0.7725 0.7725 0.7725
v 0.177500 0.450000 0.167500 0.6667 0.6667 0.6667
v 0.212500 0.450000 0.167500 0.6667 0.6667 0.6667
v 0.177500 0.450000 0.202500 0.6667 0.6667 0.6667
v 0.212500 0.000000 0.167500 0.7764 0.7764 0.7764
v -0.212500 0.000000 -0.202500 0.7764 0.7764 0.7764
v -0.212500 0.950000 -0.202500 0.9411 0.9411 0.9411
v -0.212500 0.000000 -0.167500 0.7725 0.7725 0.7725
v -0.177500 0.000000 -0.167500 0.7725 0.7725 0.7725
v -0.177500 0.000000 -0.202500 0.7764 0.7764 0.7764
v -0.177500 0.950000 -0.202500 0.6667 0.6667 0.6667
v -0.177500 0.950000 -0.167500 0.6667 0.6667 0.6667
v -0.212500 0.950000 -0.167500 0.9411 0.9411 0.9411
v 0.212500 0.950000 -0.167500 0.9411 0.9411 0.9411
v 0.212500 0.950000 -0.202500 0.9451 0.9451 0.9451
v 0.177500 0.000000 -0.202500 0.7764 0.7764 0.7764
v 0.177500 0.950000 -0.167500 0.6667 0.6667 0.6667
v 0.177500 0.950000 -0.202500 0.6667 0.6667 0.6667
v 0.212500 0.000000 -0.202500 0.7804 0.7804 0.7804
v 0.212500 0.000000 -0.167500 0.7764 0.7764 0.7764
v 0.177500 0.000000 -0.167500 0.7686 0.7686 0.7686
v -0.185000 0.160000 0.185000 0.6667 0.6667 0.6667
v -0.205000 0.140000 -0.185000 0.6667 0.6667 0.6667
v -0.205000 0.140000 0.185000 0.6667 0.6667 0.6667
v -0.205000 0.160000 -0.185000 0.6667 0.6667 0.6667
v -0.185000 0.140000 -0.185000 0.6667 0.6667 0.6667
v -0.185000 0.160000 -0.185000 0.6667 0.6667 0.6667
v -0.205000 0.160000 0.185000 0.6667 0.6667 0.6667
v -0.185000 0.140000 0.185000 0.6667 0.6667 0.6667
v 0.205000 0.140000 -0.185000 0.6667 0.6667 0.6667
v 0.185000 0.140000 -0.185000 0.6667 0.6667 0.6667
v 0.185000 0.140000 0.185000 0.6667 0.6667 0.6667
v 0.185000 0.160000 -0.185000 0.6667 0.6667 0.6667
v 0.205000 0.140000 0.185000 0.6667 0.6667 0.6667
v 0.205000 0.160000 0.185000 0.6667 0.6667 0.6667
v 0.185000 0.160000 0.185000 0.6667 0.6667 0.6667
v 0.205000 0.160000 -0.185000 0.6667 0.6667 0.6667
v -0.220000 0.435000 0.210000 0.9725 0.9725 0.9725
v -0.220000 0.465000 0.210000 1.0000 1.0000 1.0000
v 0.220000 0.435000 -0.210000 0.9686 0.9686 0.9686
v 0.220000 0.465000 -0.210000 0.9725 0.9725 0.9725
v -0.220000 0.435000 -0.210000 0.9725 0.9725 0.9725
v 0.220000 0.465000 0.210000 1.0000 1.0000 1.0000
v -0.220000 0.465000 -0.210000 0.9686 0.9686 0.9686
v 0.220000 0.435000 0.210000 0.9725 0.9725 0.9725
v 0.210000 0.895000 -0.165000 0.9294 0.9294 0.9294
v 0.210000 0.965000 -0.165000 1.0000 1.0000 1.0000
v -0.210000 0.895000 -0.205000 0.9294 0.9294 0.9294
v 0.210000 0.965000 -0.205000 1.0000 1.0000 1.0000
v -0.210000 0.965000 -0.205000 1.0000 1.0000 1.0000
v -0.210000 0.965000 -0.165000 1.0000 1.0000 1.0000
v 0.210000 0.895000 -0.205000 0.9333 0.9333 0.9333
v -0.210000 0.895000 -0.165000 0.9372 0.9372 0.9372
v -0.150000 0.900000 -0.193000 0.6667 0.6667 0.6667
v -0.142000 0.900000 -0.185000 0.6667 0.6667 0.6667
v -0.158000 0.470000 -0.185000 0.7372 0.7372 0.7372
v -0.158000 0.900000 -0.185000 0.6667 0.6667 0.6667
v -0.150000 0.900000 -0.177000 0.6667 0.6667 0.6667
v -0.150000 0.470000 -0.177000 0.7647 0.7647 0.7647
v -0.150000 0.470000 -0.193000 0.7960 0.7960 0.7960
v -0.142000 0.470000 -0.185000 0.7843 0.7843 0.7843
v -0.075000 0.470000 -0.193000 0.8039 0.8039 0.8039
v -0.083000 0.470000 -0.185000 0.7725 0.7725 0.7725
v -0.075000 0.900000 -0.177000 0.6667 0.6667 0.6667
v -0.083000 0.900000 -0.185000 0.6667 0.6667 0.6667
v -0.067000 0.470000 -0.185000 0.7843 0.7843 0.7843
v -0.067000 0.900000 -0.185000 0.6667 0.6667 0.6667
v -0.075000 0.900000 -0.193000 0.6667 0.6667 0.6667
v -0.075000 0.470000 -0.177000 0.7686 0.7686 0.7686
v 0.000000 0.900000 -0.193000 0.6667 0.6667 0.6667
v -0.008000 0.470000 -0.185000 0.7843 0.7843 0.7843
v -0.000000 0.470000 -0.177000 0.7725 0.7725 0.7725
v -0.008000 0.900000 -0.185000 0.6667 0.6667 0.6667
v 0.008000 0.470000 -0.185000 0.7843 0.7843 0.7843
v 0.008000 0.900000 -0.185000 0.6667 0.6667 0.6667
v -0.000000 0.900000 -0.177000 0.6667 0.6667 0.6667
v 0.000000 0.470000 -0.193000 0.8039 0.8039 0.8039
v 0.075000 0.900000 -0.193000 0.6667 0.6667 0.6667
v 0.075000 0.470000 -0.193000 0.8039 0.8039 0.8039
v 0.067000 0.900000 -0.185000 0.6667 0.6667 0.6667
v 0.075000 0.470000 -0.177000 0.7686 0.7686 0.7686
v 0.083000 0.470000 -0.185000 0.7804 0.7804 0.7804
v 0.083000 0.900000 -0.185000 0.6667 0.6667 0.6667
v 0.075000 0.900000 -0.177000 0.6667 0.6667 0.6667
v 0.067000 0.470000 -0.185000 0.7804 0.7804 0.7804
v 0.150000 0.470000 -0.193000 0.7921 0.7921 0.7921
v 0.142000 0.470000 -0.185000 0.7804 0.7804 0.7804
v 0.142000 0.900000 -0.185000 0.6667 0.6667 0.6667
v 0.150000 0.900000 -0.177000 0.6667 0.6667 0.6667
v 0.150000 0.470000 -0.177000 0.7608 0.7608 0.7608
v 0.158000 0.900000 -0.185000 0.6667 0.6667 0.6667
v 0.150000 0.900000 -0.193000 0.6667 0.6667 0.6667
v 0.158000 0.470000 -0.185000 0.7372 0.7372 0.7372
vn -0.0000 -0.0000 1.0000
vn -0.0000 -0.0000 -1.0000
vn -1.0000 -0.0000 -0.0000
vn 1.0000 -0.0000 -0.0000
vn -0.0000 1.0000 -0.0000
vn -0.0000 -1.0000 -0.0000
vn 0.7071 -0.0000 -0.7071
vn -0.7071 -0.0000 -0.7071
vn -0.7071 -0.0000 0.7071
vn 0.7071 -0.0000 0.7071
vt 0.000488 0.812988
vt 0.004795 0.812988
vt 0.004795 0.868359
vt 0.000488 0.868359
vt 0.004795 0.817295
vt 0.000488 0.817295
vt 0.002755 0.812988
vt 0.002755 0.874512
vt 0.000488 0.874512
vt 0.002949 0.812988
vt 0.002949 0.815449
vt 0.000488 0.815449
vt 0.046016 0.812988
vt 0.046016 0.815449
vt 0.002949 0.858516
vt 0.000488 0.858516
vt 0.054629 0.812988
vt 0.054629 0.816680
vt 0.000488 0.816680
vt 0.052168 0.812988
vt 0.052168 0.816680
vt 0.054629 0.864668
vt 0.000488 0.864668
vt 0.052168 0.821602
vt 0.000488 0.821602
vt 0.005410 0.812988
vt 0.005410 0.821602
vt 0.052168 0.817910
vt 0.000488 0.817910
vt 0.015869 0.812988
vt 0.015869 0.874512
vt 0.031250 0.812988
vt 0.031250 0.874512
vt 0.046631 0.812988
vt 0.046631 0.874512
vt 0.062012 0.812988
vt 0.062012 0.874512
vt 0.062012 0.843750
vt 0.000488 0.843750
s 0
usemtl props
f 8/1/1 1/2/1 6/3/1 5/4/1
f 2/1/2 3/2/2 4/3/2 7/4/2
f 3/1/3 8/2/3 5/3/3 4/4/3
f 1/1/4 2/2/4 7/3/4 6/4/4
f 5/1/5 6/2/5 7/5/5 4/6/5
f 3/1/6 2/2/6 1/5/6 8/6/6
f 9/1/1 10/2/1 11/3/1 15/4/1
f 16/1/2 12/2/2 13/3/2 14/4/2
f 12/1/3 9/2/3 15/3/3 13/4/3
f 10/1/4 16/2/4 14/3/4 11/4/4
f 15/1/5 11/2/5 14/5/5 13/6/5
f 12/1/6 16/2/6 10/5/6 9/6/6
f 19/1/1 20/7/1 23/8/1 24/9/1
f 21/1/2 17/7/2 18/8/2 22/9/2
f 17/1/3 19/7/3 24/8/3 18/9/3
f 20/1/4 21/7/4 22/8/4 23/9/4
f 24/1/5 23/2/5 22/5/5 18/6/5
f 17/1/6 21/2/6 20/5/6 19/6/6
f 32/1/1 31/7/1 25/8/1 28/9/1
f 30/1/2 27/7/2 29/8/2 26/9/2
f 27/1/3 32/7/3 28/8/3 29/9/3
f 31/1/4 30/7/4 26/8/4 25/9/4
f 28/1/5 25/2/5 26/5/5 29/6/5
f 27/1/6 30/2/6 31/5/6 32/6/6
f 35/1/1 40/10/1 33/11/1 39/12/1
f 37/1/2 34/10/2 36/11/2 38/12/2
f 34/1/3 35/13/3 39/14/3 36/12/3
f 40/1/4 37/13/4 38/14/4 33/12/4
f 39/1/5 33/10/5 38/15/5 36/16/5
f 34/1/6 37/10/6 40/15/6 35/16/6
f 43/1/1 45/10/1 46/11/1 47/12/1
f 41/1/2 42/10/2 44/11/2 48/12/2
f 42/1/3 43/13/3 47/14/3 44/12/3
f 45/1/4 41/13/4 48/14/4 46/12/4
f 47/1/5 46/10/5 48/15/5 44/16/5
f 42/1/6 41/10/6 45/15/6 43/16/6
f 49/1/1 56/17/1 54/18/1 50/19/1
f 51/1/2 53/17/2 55/18/2 52/19/2
f 53/1/3 49/20/3 50/21/3 55/19/3
f 56/1/4 51/20/4 52/21/4 54/19/4
f 50/1/5 54/17/5 52/22/5 55/23/5
f 53/1/6 51/17/6 56/22/6 49/23/6
f 64/1/1 57/20/1 58/24/1 62/25/1
f 63/1/2 59/20/2 61/24/2 60/25/2
f 59/1/3 64/26/3 62/27/3 61/25/3
f 57/1/4 63/26/4 60/27/4 58/25/4
f 62/1/5 58/20/5 60/28/5 61/29/5
f 59/1/6 63/20/6 57/28/6 64/29/6
s 1
f 72/1/7 71/30/7 65/31/7 66/9/7
f 71/30/8 67/32/8 68/33/8 65/31/8
f 67/32/9 70/34/9 69/35/9 68/33/9
f 70/34/10 72/36/10 66/37/10 69/35/10
s 0
f 66/38/5 65/33/5 68/39/5 69/32/5
f 70/33/6 67/39/6 71/32/6 72/38/6
s 1
f 77/1/7 73/30/7 79/31/7 78/9/7
f 73/30/8 74/32/8 76/33/8 79/31/8
f 74/32/9 80/34/9 75/35/9 76/33/9
f 80/34/10 77/36/10 78/37/10 75/35/10
s 0
f 78/38/5 79/33/5 76/39/5 75/32/5
f 80/33/6 74/39/6 73/32/6 77/38/6
s 1
f 85/1/7 88/30/7 81/31/7 86/9/7
f 88/30/8 82/32/8 84/33/8 81/31/8
f 82/32/9 83/34/9 87/35/9 84/33/9
f 83/34/10 85/36/10 86/37/10 87/35/10
s 0
f 86/38/5 81/33/5 84/39/5 87/32/5
f 83/33/6 82/39/6 88/32/6 85/38/6
s 1
f 93/1/7 90/30/7 89/31/7 94/9/7
f 90/30/8 96/32/8 91/33/8 89/31/8
f 96/32/9 92/34/9 95/35/9 91/33/9
f 92/34/10 93/36/10 94/37/10 95/35/10
s 0
f 94/38/5 89/33/5 91/39/5 95/32/5
f 92/33/6 96/39/6 90/32/6 93/38/6
s 1
f 104/1/7 97/30/7 103/31/7 102/9/7
f 97/30/8 98/32/8 99/33/8 103/31/8
f 98/32/9 101/34/9 100/35/9 99/33/9
f 101/34/10 104/36/10 102/37/10 100/35/10
s 0
f 102/38/5 103/33/5 99/39/5 100/32/5
f 101/33/6 98/39/6 97/32/6 104/38/6
