# Blender 4.5.14 LTS
# www.blender.org
mtllib chair_broken.mtl
o chair_broken
v -0.097232 0.435311 0.165461 0.9647 0.9647 0.9647
v -0.097323 0.578829 0.150376 0.6667 0.6667 0.6667
v -0.131192 0.440073 0.129767 0.9607 0.9607 0.9607
v -0.131192 0.443731 0.164576 0.9921 0.9921 0.9921
v -0.063363 0.566749 0.116453 0.6667 0.6667 0.6667
v -0.063363 0.570408 0.151262 0.6667 0.6667 0.6667
v -0.097323 0.575170 0.115568 0.6667 0.6667 0.6667
v -0.097232 0.431652 0.130653 0.9255 0.9255 0.9255
v 0.172227 0.050755 0.205879 0.8078 0.8078 0.8078
v 0.281092 0.484996 0.160239 0.6667 0.6667 0.6667
v 0.172227 0.047096 0.171071 0.7960 0.7960 0.7960
v 0.206188 0.042334 0.206764 0.7843 0.7843 0.7843
v 0.206188 0.038676 0.171956 0.7725 0.7725 0.7725
v 0.315053 0.476575 0.161124 0.6667 0.6667 0.6667
v 0.315053 0.472917 0.126315 0.6667 0.6667 0.6667
v 0.281092 0.481338 0.125430 0.6667 0.6667 0.6667
v 0.057598 1.014223 -0.267423 0.6667 0.6667 0.6667
v -0.172227 0.093833 -0.205879 0.7960 0.7960 0.7960
v 0.023638 1.018985 -0.303117 0.9451 0.9451 0.9451
v -0.206188 0.105912 -0.171956 0.8274 0.8274 0.8274
v 0.023638 1.022643 -0.268308 0.9451 0.9451 0.9451
v 0.057598 1.010564 -0.302232 0.6667 0.6667 0.6667
v -0.206188 0.102254 -0.206764 0.8235 0.8235 0.8235
v -0.172227 0.097491 -0.171071 0.8039 0.8039 0.8039
v 0.172227 0.012079 -0.162094 0.7960 0.7960 0.7960
v 0.436014 0.920390 -0.257561 0.9451 0.9451 0.9451
v 0.402053 0.928811 -0.258446 0.6667 0.6667 0.6667
v 0.402053 0.925152 -0.293254 0.6667 0.6667 0.6667
v 0.206188 0.003658 -0.161209 0.7686 0.7686 0.7686
v 0.206188 0.000000 -0.196017 0.7608 0.7608 0.7608
v 0.436014 0.916731 -0.292369 0.9451 0.9451 0.9451
v 0.172227 0.008421 -0.196902 0.7882 0.7882 0.7882
v -0.165042 0.276051 0.164603 0.9215 0.9215 0.9215
v -0.140797 0.290539 0.163081 0.9333 0.9333 0.9333
v -0.145636 0.232564 -0.202864 0.6667 0.6667 0.6667
v -0.160203 0.295351 0.162575 0.9607 0.9607 0.9607
v -0.140797 0.251863 -0.204893 0.6667 0.6667 0.6667
v -0.160203 0.256675 -0.205398 0.6667 0.6667 0.6667
v -0.165042 0.237376 -0.203370 0.6667 0.6667 0.6667
v -0.145636 0.271239 0.165109 0.8941 0.8941 0.8941
v 0.213374 0.182218 0.174465 0.6667 0.6667 0.6667
v 0.237618 0.196706 0.172943 0.6667 0.6667 0.6667
v 0.218212 0.162843 -0.195536 0.6667 0.6667 0.6667
v 0.237618 0.158031 -0.195030 0.6667 0.6667 0.6667
v 0.213374 0.143543 -0.193508 0.6667 0.6667 0.6667
v 0.232780 0.177407 0.174971 0.6667 0.6667 0.6667
v 0.218212 0.201518 0.172437 0.6667 0.6667 0.6667
v 0.232780 0.138731 -0.193002 0.6667 0.6667 0.6667
v 0.318701 0.461080 0.170294 0.9686 0.9686 0.9686
v 0.318701 0.417178 -0.247406 0.9686 0.9686 0.9686
v -0.108229 0.523041 -0.258532 0.9725 0.9725 0.9725
v -0.108229 0.566942 0.159167 0.9725 0.9725 0.9725
v -0.100971 0.595892 0.156124 1.0000 1.0000 1.0000
v 0.325959 0.446127 -0.250448 0.9725 0.9725 0.9725
v 0.325959 0.490029 0.167251 0.9960 0.9960 0.9960
v -0.100971 0.551990 -0.261575 0.9686 0.9686 0.9686
v 0.012758 0.969229 -0.260181 0.9372 0.9372 0.9372
v 0.437217 0.935727 -0.256659 1.0000 1.0000 1.0000
v 0.012758 0.965048 -0.299961 0.9294 0.9294 0.9294
v 0.029693 1.036778 -0.267280 1.0000 1.0000 1.0000
v 0.029693 1.032597 -0.307061 1.0000 1.0000 1.0000
v 0.420282 0.868179 -0.249560 0.9294 0.9294 0.9294
v 0.420282 0.863998 -0.289341 0.9333 0.9333 0.9333
v 0.437217 0.931546 -0.296440 1.0000 1.0000 1.0000
v -0.024079 0.540662 -0.235246 0.7843 0.7843 0.7843
v 0.079948 0.955603 -0.278859 0.6667 0.6667 0.6667
v -0.031841 0.541750 -0.243405 0.8000 0.8000 0.8000
v 0.072185 0.956692 -0.287017 0.6667 0.6667 0.6667
v -0.031841 0.543423 -0.227493 0.7568 0.7568 0.7568
v 0.072185 0.958364 -0.271105 0.6667 0.6667 0.6667
v 0.064423 0.959453 -0.279263 0.6667 0.6667 0.6667
v -0.039603 0.544511 -0.235651 0.7412 0.7412 0.7412
v 0.152720 0.937558 -0.276962 0.6667 0.6667 0.6667
v 0.033169 0.526466 -0.233754 0.7804 0.7804 0.7804
v 0.144958 0.938647 -0.285120 0.6667 0.6667 0.6667
v 0.040931 0.525378 -0.225596 0.7647 0.7647 0.7647
v 0.144958 0.940319 -0.269208 0.6667 0.6667 0.6667
v 0.048693 0.522617 -0.233350 0.7843 0.7843 0.7843
v 0.137195 0.941408 -0.277367 0.6667 0.6667 0.6667
v 0.040931 0.523705 -0.241508 0.8039 0.8039 0.8039
v 0.113703 0.505661 -0.239612 0.8078 0.8078 0.8078
v 0.105941 0.508422 -0.231858 0.7843 0.7843 0.7843
v 0.121466 0.504572 -0.231453 0.7843 0.7843 0.7843
v 0.225492 0.919514 -0.275065 0.6667 0.6667 0.6667
v 0.217730 0.920602 -0.283224 0.6667 0.6667 0.6667
v 0.209967 0.923363 -0.275470 0.6667 0.6667 0.6667
v 0.217730 0.922275 -0.267312 0.6667 0.6667 0.6667
v 0.113703 0.507333 -0.223699 0.7647 0.7647 0.7647
v 0.186475 0.487616 -0.237715 0.8078 0.8078 0.8078
v 0.298264 0.901469 -0.273169 0.6667 0.6667 0.6667
v 0.282740 0.905318 -0.273573 0.6667 0.6667 0.6667
v 0.290502 0.902557 -0.281327 0.6667 0.6667 0.6667
v 0.186475 0.489288 -0.221803 0.7647 0.7647 0.7647
v 0.290502 0.904230 -0.265415 0.6667 0.6667 0.6667
v 0.178713 0.490377 -0.229961 0.7843 0.7843 0.7843
v 0.194238 0.486527 -0.229557 0.7725 0.7725 0.7725
v 0.363274 0.884513 -0.279431 0.6667 0.6667 0.6667
v 0.355512 0.887274 -0.271677 0.6667 0.6667 0.6667
v 0.267010 0.468483 -0.227660 0.7333 0.7333 0.7333
v 0.371036 0.883424 -0.271272 0.6667 0.6667 0.6667
v 0.363274 0.886185 -0.263518 0.6667 0.6667 0.6667
v 0.259248 0.471244 -0.219906 0.7568 0.7568 0.7568
v 0.251485 0.472332 -0.228065 0.7843 0.7843 0.7843
v 0.259248 0.469571 -0.235819 0.8000 0.8000 0.8000
vn -0.0000 0.1045 0.9945
vn -0.0000 -0.1045 -0.9945
vn -0.9703 0.2406 -0.0253
vn 0.9703 -0.2406 0.0253
vn 0.2419 0.9650 -0.1014
vn -0.2419 -0.9650 0.1014
vn 0.6861 -0.2440 -0.6854
vn -0.6861 0.0962 -0.7211
vn -0.6861 0.2440 0.6854
vn 0.6861 -0.0962 0.7211
vt 0.937988 0.937988
vt 0.942295 0.937988
vt 0.942295 0.955215
vt 0.937988 0.955215
vt 0.942295 0.942295
vt 0.937988 0.942295
vt 0.942295 0.993359
vt 0.937988 0.993359
vt 0.940255 0.937988
vt 0.940255 0.999512
vt 0.937988 0.999512
vt 0.940449 0.937988
vt 0.940449 0.940449
vt 0.937988 0.940449
vt 0.983516 0.937988
vt 0.983516 0.940449
vt 0.940449 0.983516
vt 0.937988 0.983516
vt 0.992129 0.937988
vt 0.992129 0.941680
vt 0.937988 0.941680
vt 0.989668 0.937988
vt 0.989668 0.941680
vt 0.992129 0.989668
vt 0.937988 0.989668
vt 0.989668 0.946602
vt 0.937988 0.946602
vt 0.942910 0.937988
vt 0.942910 0.946602
vt 0.989668 0.942910
vt 0.937988 0.942910
vt 0.953369 0.937988
vt 0.953369 0.999512
vt 0.968750 0.937988
vt 0.968750 0.999512
vt 0.984131 0.937988
vt 0.984131 0.999512
vt 0.999512 0.937988
vt 0.999512 0.999512
vt 0.999512 0.968750
vt 0.937988 0.968750
s 0
usemtl props
f 4/1/1 1/2/1 6/3/1 2/4/1
f 8/1/2 3/2/2 7/3/2 5/4/2
f 3/1/3 4/2/3 2/3/3 7/4/3
f 1/1/4 8/2/4 5/3/4 6/4/4
f 2/1/5 6/2/5 5/5/5 7/6/5
f 3/1/6 8/2/6 1/5/6 4/6/6
f 9/1/1 12/2/1 14/7/1 10/8/1
f 13/1/2 11/2/2 16/7/2 15/8/2
f 11/1/3 9/2/3 10/7/3 16/8/3
f 12/1/4 13/2/4 15/7/4 14/8/4
f 10/1/5 14/2/5 15/5/5 16/6/5
f 11/1/6 13/2/6 12/5/6 9/6/6
f 20/1/1 24/9/1 17/10/1 21/11/1
f 18/1/2 23/9/2 19/10/2 22/11/2
f 23/1/3 20/9/3 21/10/3 19/11/3
f 24/1/4 18/9/4 22/10/4 17/11/4
f 21/1/5 17/2/5 22/5/5 19/6/5
f 23/1/6 18/2/6 24/5/6 20/6/6
f 25/1/1 29/9/1 26/10/1 27/11/1
f 30/1/2 32/9/2 28/10/2 31/11/2
f 32/1/3 25/9/3 27/10/3 28/11/3
f 29/1/4 30/9/4 31/10/4 26/11/4
f 27/1/5 26/2/5 31/5/5 28/6/5
f 32/1/6 30/2/6 29/5/6 25/6/6
f 33/1/1 40/12/1 34/13/1 36/14/1
f 35/1/2 39/12/2 38/13/2 37/14/2
f 39/1/3 33/15/3 36/16/3 38/14/3
f 40/1/4 35/15/4 37/16/4 34/14/4
f 36/1/5 34/12/5 37/17/5 38/18/5
f 39/1/6 35/12/6 40/17/6 33/18/6
f 41/1/1 46/12/1 42/13/1 47/14/1
f 48/1/2 45/12/2 43/13/2 44/14/2
f 45/1/3 41/15/3 47/16/3 43/14/3
f 46/1/4 48/15/4 44/16/4 42/14/4
f 47/1/5 42/12/5 44/17/5 43/18/5
f 45/1/6 48/12/6 46/17/6 41/18/6
f 52/1/1 49/19/1 55/20/1 53/21/1
f 50/1/2 51/19/2 56/20/2 54/21/2
f 51/1/3 52/22/3 53/23/3 56/21/3
f 49/1/4 50/22/4 54/23/4 55/21/4
f 53/1/5 55/19/5 54/24/5 56/25/5
f 51/1/6 50/19/6 49/24/6 52/25/6
f 57/1/1 62/22/1 58/26/1 60/27/1
f 63/1/2 59/22/2 61/26/2 64/27/2
f 59/1/3 57/28/3 60/29/3 61/27/3
f 62/1/4 63/28/4 64/29/4 58/27/4
f 60/1/5 58/22/5 64/30/5 61/31/5
f 59/1/6 63/22/6 62/30/6 57/31/6
s 1
f 65/1/7 67/32/7 68/33/7 66/11/7
f 67/32/8 72/34/8 71/35/8 68/33/8
f 72/34/9 69/36/9 70/37/9 71/35/9
f 69/36/10 65/38/10 66/39/10 70/37/10
s 0
f 66/40/5 68/35/5 71/41/5 70/34/5
f 69/35/6 72/41/6 67/34/6 65/40/6
s 1
f 78/1/7 80/32/7 75/33/7 73/11/7
f 80/32/8 74/34/8 79/35/8 75/33/8
f 74/34/9 76/36/9 77/37/9 79/35/9
f 76/36/10 78/38/10 73/39/10 77/37/10
s 0
f 73/40/5 75/35/5 79/41/5 77/34/5
f 76/35/6 74/41/6 80/34/6 78/40/6
s 1
f 83/1/7 81/32/7 85/33/7 84/11/7
f 81/32/8 82/34/8 86/35/8 85/33/8
f 82/34/9 88/36/9 87/37/9 86/35/9
f 88/36/10 83/38/10 84/39/10 87/37/10
s 0
f 84/40/5 85/35/5 86/41/5 87/34/5
f 88/35/6 82/41/6 81/34/6 83/40/6
s 1
f 96/1/7 89/32/7 92/33/7 90/11/7
f 89/32/8 95/34/8 91/35/8 92/33/8
f 95/34/9 93/36/9 94/37/9 91/35/9
f 93/36/10 96/38/10 90/39/10 94/37/10
s 0
f 90/40/5 92/35/5 91/41/5 94/34/5
f 93/35/6 95/41/6 89/34/6 96/40/6
s 1
f 99/1/7 104/32/7 97/33/7 100/11/7
f 104/32/8 103/34/8 98/35/8 97/33/8
f 103/34/9 102/36/9 101/37/9 98/35/9
f 102/36/10 99/38/10 100/39/10 101/37/10
s 0
f 100/40/5 97/35/5 98/41/5 101/34/5
f 102/35/6 103/41/6 104/34/6 99/40/6
