# Blender 4.5.14 LTS
# www.blender.org
mtllib coffee_table_oak.mtl
o coffee_table_oak
v -0.550000 0.380000 0.275000 0.9451 0.9451 0.9451
v 0.550000 0.380000 0.275000 0.9411 0.9411 0.9411
v 0.550000 0.380000 -0.275000 0.9411 0.9411 0.9411
v -0.550000 0.420000 0.275000 1.0000 1.0000 1.0000
v 0.550000 0.420000 -0.275000 1.0000 1.0000 1.0000
v 0.550000 0.420000 0.275000 1.0000 1.0000 1.0000
v -0.550000 0.420000 -0.275000 1.0000 1.0000 1.0000
v -0.550000 0.380000 -0.275000 0.9411 0.9411 0.9411
v -0.472500 0.000000 0.188349 0.7529 0.7529 0.7529
v -0.455000 0.380000 0.210000 0.7529 0.7529 0.7529
v -0.470000 0.380000 0.184019 0.7490 0.7490 0.7490
v -0.497500 0.000000 0.188349 0.7921 0.7921 0.7921
v -0.500000 0.380000 0.184019 0.7647 0.7647 0.7647
v -0.510000 0.000000 0.210000 0.8196 0.8196 0.8196
v -0.515000 0.380000 0.210000 0.7804 0.7804 0.7804
v -0.497500 0.000000 0.231651 0.8235 0.8235 0.8235
v -0.472500 0.000000 0.231651 0.8117 0.8117 0.8117
v -0.460000 0.000000 0.210000 0.7725 0.7725 0.7725
v -0.500000 0.380000 0.235981 0.7804 0.7804 0.7804
v -0.470000 0.380000 0.235981 0.7686 0.7686 0.7686
v -0.460000 0.000000 -0.210000 0.7686 0.7686 0.7686
v -0.472500 0.000000 -0.231651 0.8196 0.8196 0.8196
v -0.455000 0.380000 -0.210000 0.7608 0.7608 0.7608
v -0.500000 0.380000 -0.235981 0.7804 0.7804 0.7804
v -0.470000 0.380000 -0.235981 0.7764 0.7764 0.7764
v -0.497500 0.000000 -0.231651 0.8274 0.8274 0.8274
v -0.510000 0.000000 -0.210000 0.8196 0.8196 0.8196
v -0.497500 0.000000 -0.188349 0.7921 0.7921 0.7921
v -0.472500 0.000000 -0.188349 0.7490 0.7490 0.7490
v -0.515000 0.380000 -0.210000 0.7804 0.7804 0.7804
v -0.500000 0.380000 -0.184019 0.7647 0.7647 0.7647
v -0.470000 0.380000 -0.184019 0.7451 0.7451 0.7451
v 0.510000 0.000000 0.210000 0.8313 0.8313 0.8313
v 0.497500 0.000000 0.188349 0.8000 0.8000 0.8000
v 0.515000 0.380000 0.210000 0.7764 0.7764 0.7764
v 0.500000 0.380000 0.184019 0.7608 0.7608 0.7608
v 0.472500 0.000000 0.188349 0.7451 0.7451 0.7451
v 0.455000 0.380000 0.210000 0.7608 0.7608 0.7608
v 0.470000 0.380000 0.184019 0.7490 0.7490 0.7490
v 0.460000 0.000000 0.210000 0.7568 0.7568 0.7568
v 0.472500 0.000000 0.231651 0.8078 0.8078 0.8078
v 0.497500 0.000000 0.231651 0.8274 0.8274 0.8274
v 0.470000 0.380000 0.235981 0.7725 0.7725 0.7725
v 0.500000 0.380000 0.235981 0.7764 0.7764 0.7764
v 0.515000 0.380000 -0.210000 0.7804 0.7804 0.7804
v 0.497500 0.000000 -0.231651 0.8353 0.8353 0.8353
v 0.472500 0.000000 -0.231651 0.8157 0.8157 0.8157
v 0.460000 0.000000 -0.210000 0.7647 0.7647 0.7647
v 0.472500 0.000000 -0.188349 0.7490 0.7490 0.7490
v 0.470000 0.380000 -0.184019 0.7529 0.7529 0.7529
v 0.497500 0.000000 -0.188349 0.7921 0.7921 0.7921
v 0.510000 0.000000 -0.210000 0.8313 0.8313 0.8313
v 0.500000 0.380000 -0.184019 0.7608 0.7608 0.7608
v 0.500000 0.380000 -0.235981 0.7804 0.7804 0.7804
v 0.470000 0.380000 -0.235981 0.7764 0.7764 0.7764
v 0.455000 0.380000 -0.210000 0.7608 0.7608 0.7608
v -0.500000 0.100000 0.225000 0.6667 0.6667 0.6667
v -0.500000 0.100000 -0.225000 0.6667 0.6667 0.6667
v -0.500000 0.120000 -0.225000 0.6667 0.6667 0.6667
v -0.500000 0.120000 0.225000 0.6667 0.6667 0.6667
v 0.500000 0.100000 0.225000 0.6667 0.6667 0.6667
v 0.500000 0.100000 -0.225000 0.6667 0.6667 0.6667
v 0.500000 0.120000 0.225000 0.6667 0.6667 0.6667
v 0.500000 0.120000 -0.225000 0.6667 0.6667 0.6667
vn -0.0000 -0.0000 1.0000
vn -0.0000 -0.0000 -1.0000
vn -1.0000 -0.0000 -0.0000
vn 1.0000 -0.0000 -0.0000
vn -0.0000 1.0000 -0.0000
vn -0.0000 -1.0000 -0.0000
vn 0.8660 -0.0114 -0.5000
vn -0.0000 -0.0114 -0.9999
vn -0.8660 -0.0114 -0.5000
vn -0.8660 -0.0114 0.5000
vn -0.0000 -0.0114 0.9999
vn 0.8660 -0.0114 0.5000
vt 0.937988 0.937988
vt 0.999512 0.937988
vt 0.999512 0.940225
vt 0.937988 0.940225
vt 0.999512 0.942463
vt 0.937988 0.942463
vt 0.999512 0.968750
vt 0.937988 0.968750
vt 0.948242 0.937988
vt 0.948242 0.999512
vt 0.937988 0.999512
vt 0.958496 0.937988
vt 0.958496 0.999512
vt 0.968750 0.937988
vt 0.968750 0.999512
vt 0.979004 0.937988
vt 0.979004 0.999512
vt 0.989258 0.937988
vt 0.989258 0.999512
vt 0.999512 0.999512
vt 0.984131 0.999512
vt 0.953369 0.999512
vt 0.953369 0.937988
vt 0.984131 0.937988
vt 0.999512 0.939219
vt 0.937988 0.939219
vt 0.993359 0.937988
vt 0.993359 0.940449
vt 0.937988 0.940449
vt 0.999512 0.965674
vt 0.937988 0.965674
s 0
usemtl props
f 1/1/1 2/2/1 6/3/1 4/4/1
f 3/1/2 8/2/2 7/3/2 5/4/2
f 8/1/3 1/2/3 4/5/3 7/6/3
f 2/1/4 3/2/4 5/5/4 6/6/4
f 4/1/5 6/2/5 5/7/5 7/8/5
f 8/1/6 3/2/6 2/7/6 1/8/6
s 1
f 18/1/7 9/9/7 11/10/7 10/11/7
f 9/9/8 12/12/8 13/13/8 11/10/8
f 12/12/9 14/14/9 15/15/9 13/13/9
f 14/14/10 16/16/10 19/17/10 15/15/10
f 16/16/11 17/18/11 20/19/11 19/17/11
f 17/18/12 18/2/12 10/20/12 20/19/12
s 0
f 10/7/5 11/21/5 13/22/5 15/8/5 19/23/5 20/24/5
s 1
f 21/1/7 22/9/7 25/10/7 23/11/7
f 22/9/8 26/12/8 24/13/8 25/10/8
f 26/12/9 27/14/9 30/15/9 24/13/9
f 27/14/10 28/16/10 31/17/10 30/15/10
f 28/16/11 29/18/11 32/19/11 31/17/11
f 29/18/12 21/2/12 23/20/12 32/19/12
s 0
f 23/7/5 25/21/5 24/22/5 30/8/5 31/23/5 32/24/5
s 1
f 33/1/7 34/9/7 36/10/7 35/11/7
f 34/9/8 37/12/8 39/13/8 36/10/8
f 37/12/9 40/14/9 38/15/9 39/13/9
f 40/14/10 41/16/10 43/17/10 38/15/10
f 41/16/11 42/18/11 44/19/11 43/17/11
f 42/18/12 33/2/12 35/20/12 44/19/12
s 0
f 35/7/5 36/21/5 39/22/5 38/8/5 43/23/5 44/24/5
s 1
f 52/1/7 46/9/7 54/10/7 45/11/7
f 46/9/8 47/12/8 55/13/8 54/10/8
f 47/12/9 48/14/9 56/15/9 55/13/9
f 48/14/10 49/16/10 50/17/10 56/15/10
f 49/16/11 51/18/11 53/19/11 50/17/11
f 51/18/12 52/2/12 45/20/12 53/19/12
s 0
f 45/7/5 54/21/5 55/22/5 56/8/5 50/23/5 53/24/5
f 57/1/1 61/2/1 63/25/1 60/26/1
f 62/1/2 58/2/2 59/25/2 64/26/2
f 58/1/3 57/27/3 60/28/3 59/29/3
f 61/1/4 62/27/4 64/28/4 63/29/4
f 60/1/5 63/2/5 64/30/5 59/31/5
f 58/1/6 62/2/6 61/30/6 57/31/6
