# Blender 4.5.14 LTS
# www.blender.org
mtllib floor_lamp.mtl
o floor_lamp
v 0.129443 0.000000 -0.094046 0.8313 0.8313 0.8313
v 0.140000 0.030000 0.000000 0.9451 0.9451 0.9451
v 0.049443 0.000000 -0.152169 0.8313 0.8313 0.8313
v 0.113262 0.030000 -0.082290 0.9451 0.9451 0.9451
v -0.049443 0.000000 -0.152169 0.8313 0.8313 0.8313
v -0.043262 0.030000 -0.133148 0.9372 0.9372 0.9372
v -0.113262 0.030000 0.082290 0.9411 0.9411 0.9411
v -0.140000 0.030000 -0.000000 0.9411 0.9411 0.9411
v -0.129443 0.000000 0.094046 0.8274 0.8274 0.8274
v 0.049443 0.000000 0.152169 0.8274 0.8274 0.8274
v 0.043262 0.030000 0.133148 0.9372 0.9372 0.9372
v 0.113262 0.030000 0.082290 0.9451 0.9451 0.9451
v 0.043262 0.030000 -0.133148 0.9411 0.9411 0.9411
v -0.113262 0.030000 -0.082290 0.9411 0.9411 0.9411
v -0.043262 0.030000 0.133148 0.9372 0.9372 0.9372
v 0.129443 0.000000 0.094046 0.8274 0.8274 0.8274
v -0.049443 0.000000 0.152169 0.8235 0.8235 0.8235
v -0.160000 0.000000 -0.000000 0.8274 0.8274 0.8274
v -0.129443 0.000000 -0.094046 0.8274 0.8274 0.8274
v 0.160000 0.000000 0.000000 0.8274 0.8274 0.8274
v 0.004635 1.480000 -0.014266 0.8000 0.8000 0.8000
v -0.012135 0.030000 -0.008817 0.7843 0.7843 0.7843
v -0.012135 1.480000 -0.008817 0.8000 0.8000 0.8000
v -0.012135 1.480000 0.008817 0.7960 0.7960 0.7960
v -0.012135 0.030000 0.008817 0.7843 0.7843 0.7843
v 0.015000 1.480000 0.000000 0.8039 0.8039 0.8039
v 0.004635 1.480000 0.014266 0.8039 0.8039 0.8039
v 0.004635 0.030000 0.014266 0.7843 0.7843 0.7843
v 0.004635 0.030000 -0.014266 0.7843 0.7843 0.7843
v 0.015000 0.030000 0.000000 0.7843 0.7843 0.7843
v 0.177984 1.250000 -0.129313 1.0000 1.0000 1.0000
v 0.040172 1.550000 -0.123637 1.0000 1.0000 1.0000
v 0.105172 1.550000 -0.076412 1.0000 1.0000 1.0000
v 0.067984 1.250000 -0.209232 1.0000 1.0000 1.0000
v -0.067984 1.250000 -0.209232 1.0000 1.0000 1.0000
v -0.177984 1.250000 -0.129313 1.0000 1.0000 1.0000
v -0.040172 1.550000 -0.123637 1.0000 1.0000 1.0000
v -0.105172 1.550000 -0.076412 1.0000 1.0000 1.0000
v -0.220000 1.250000 -0.000000 1.0000 1.0000 1.0000
v -0.177984 1.250000 0.129313 1.0000 1.0000 1.0000
v -0.130000 1.550000 -0.000000 1.0000 1.0000 1.0000
v -0.105172 1.550000 0.076412 1.0000 1.0000 1.0000
v -0.067984 1.250000 0.209232 1.0000 1.0000 1.0000
v -0.040172 1.550000 0.123637 1.0000 1.0000 1.0000
v 0.067984 1.250000 0.209232 1.0000 1.0000 1.0000
v 0.040172 1.550000 0.123637 1.0000 1.0000 1.0000
v 0.177984 1.250000 0.129313 1.0000 1.0000 1.0000
v 0.220000 1.250000 0.000000 1.0000 1.0000 1.0000
v 0.130000 1.550000 0.000000 1.0000 1.0000 1.0000
v 0.105172 1.550000 0.076412 1.0000 1.0000 1.0000
v 0.015000 1.300000 -0.025981 0.8274 0.8274 0.8274
v 0.030000 1.380000 0.000000 0.7412 0.7412 0.7412
v -0.015000 1.300000 -0.025981 0.8313 0.8313 0.8313
v -0.015000 1.380000 -0.025981 0.7333 0.7333 0.7333
v 0.015000 1.380000 -0.025981 0.7412 0.7412 0.7412
v -0.030000 1.300000 -0.000000 0.8392 0.8392 0.8392
v -0.015000 1.300000 0.025981 0.8274 0.8274 0.8274
v 0.015000 1.300000 0.025981 0.8274 0.8274 0.8274
v 0.015000 1.380000 0.025981 0.7412 0.7412 0.7412
v -0.030000 1.380000 -0.000000 0.7412 0.7412 0.7412
v -0.015000 1.380000 0.025981 0.7412 0.7412 0.7412
v 0.030000 1.300000 0.000000 0.8274 0.8274 0.8274
vn 0.8321 0.5547 -0.0000
vn 0.6731 0.5547 -0.4891
vn 0.2571 0.5547 -0.7913
vn -0.2571 0.5547 -0.7913
vn -0.6731 0.5547 -0.4891
vn -0.8321 0.5547 -0.0000
vn -0.6731 0.5547 0.4891
vn -0.2571 0.5547 0.7913
vn 0.2571 0.5547 0.7913
vn 0.6731 0.5547 0.4891
vn -0.0000 1.0000 -0.0000
vn -0.0000 -1.0000 -0.0000
vn 0.8090 -0.0000 -0.5878
vn -0.3090 -0.0000 -0.9511
vn -1.0000 -0.0000 -0.0000
vn -0.3090 -0.0000 0.9511
vn 0.8090 -0.0000 0.5878
vn 0.9578 0.2873 -0.0000
vn 0.7749 0.2873 -0.5630
vn 0.2960 0.2873 -0.9109
vn -0.2960 0.2873 -0.9109
vn -0.7749 0.2873 -0.5630
vn -0.9578 0.2873 -0.0000
vn -0.7749 0.2873 0.5630
vn -0.2960 0.2873 0.9109
vn 0.2960 0.2873 0.9109
vn 0.7749 0.2873 0.5630
vn 0.8660 -0.0000 -0.5000
vn -0.0000 -0.0000 -1.0000
vn -0.8660 -0.0000 -0.5000
vn -0.8660 -0.0000 0.5000
vn -0.0000 -0.0000 1.0000
vn 0.8660 -0.0000 0.5000
vt 0.594238 0.844238
vt 0.597266 0.844238
vt 0.597266 0.874512
vt 0.594238 0.874512
vt 0.600293 0.844238
vt 0.600293 0.874512
vt 0.603320 0.844238
vt 0.603320 0.874512
vt 0.606348 0.844238
vt 0.606348 0.874512
vt 0.609375 0.844238
vt 0.609375 0.874512
vt 0.612402 0.844238
vt 0.612402 0.874512
vt 0.615430 0.844238
vt 0.615430 0.874512
vt 0.618457 0.844238
vt 0.618457 0.874512
vt 0.621484 0.844238
vt 0.621484 0.874512
vt 0.624512 0.844238
vt 0.624512 0.874512
vt 0.624512 0.859375
vt 0.621621 0.868730
vt 0.614052 0.874512
vt 0.604698 0.874512
vt 0.597129 0.868730
vt 0.594238 0.859375
vt 0.597129 0.850020
vt 0.604698 0.844238
vt 0.614052 0.844238
vt 0.621621 0.850020
vt 0.612948 0.874512
vt 0.594238 0.868730
vt 0.594238 0.850020
vt 0.612948 0.844238
vt 0.219238 0.781738
vt 0.222266 0.781738
vt 0.222266 0.812012
vt 0.219238 0.812012
vt 0.225293 0.781738
vt 0.225293 0.812012
vt 0.228320 0.781738
vt 0.228320 0.812012
vt 0.231348 0.781738
vt 0.231348 0.812012
vt 0.234375 0.781738
vt 0.234375 0.812012
vt 0.237402 0.781738
vt 0.237402 0.812012
vt 0.240430 0.781738
vt 0.240430 0.812012
vt 0.243457 0.781738
vt 0.243457 0.812012
vt 0.246484 0.781738
vt 0.246484 0.812012
vt 0.249512 0.781738
vt 0.249512 0.812012
vt 0.719238 0.805176
vt 0.720378 0.805176
vt 0.720378 0.812012
vt 0.719238 0.812012
vt 0.721517 0.805176
vt 0.721517 0.812012
vt 0.722656 0.805176
vt 0.722656 0.812012
vt 0.723796 0.805176
vt 0.723796 0.812012
vt 0.724935 0.805176
vt 0.724935 0.812012
vt 0.726074 0.805176
vt 0.726074 0.812012
vt 0.726074 0.808594
vt 0.724365 0.812012
vt 0.720947 0.812012
vt 0.719238 0.808594
vt 0.720947 0.805176
vt 0.724365 0.805176
s 1
usemtl props
f 20/1/1 1/2/2 4/3/2 2/4/1
f 1/2/2 3/5/3 13/6/3 4/3/2
f 3/5/3 5/7/4 6/8/4 13/6/3
f 5/7/4 19/9/5 14/10/5 6/8/4
f 19/9/5 18/11/6 8/12/6 14/10/5
f 18/11/6 9/13/7 7/14/7 8/12/6
f 9/13/7 17/15/8 15/16/8 7/14/7
f 17/15/8 10/17/9 11/18/9 15/16/8
f 10/17/9 16/19/10 12/20/10 11/18/9
f 16/19/10 20/21/1 2/22/1 12/20/10
s 0
f 2/23/11 4/24/11 13/25/11 6/26/11 14/27/11 8/28/11 7/29/11 15/30/11 11/31/11 12/32/11
f 16/24/12 10/25/12 17/26/12 9/27/12 18/28/12 19/29/12 5/30/12 3/31/12 1/32/12 20/23/12
s 1
f 30/1/13 29/5/13 21/6/13 26/4/13
f 29/5/14 22/9/14 23/10/14 21/6/14
f 22/9/15 25/13/15 24/14/15 23/10/15
f 25/13/16 28/17/16 27/18/16 24/14/16
f 28/17/17 30/21/17 26/22/17 27/18/17
s 0
f 26/23/11 21/33/11 23/34/11 24/35/11 27/36/11
f 28/33/12 25/34/12 22/35/12 29/36/12 30/23/12
s 1
f 48/37/18 31/38/19 33/39/19 49/40/18
f 31/38/19 34/41/20 32/42/20 33/39/19
f 34/41/20 35/43/21 37/44/21 32/42/20
f 35/43/21 36/45/22 38/46/22 37/44/21
f 36/45/22 39/47/23 41/48/23 38/46/22
f 39/47/23 40/49/24 42/50/24 41/48/23
f 40/49/24 43/51/25 44/52/25 42/50/24
f 43/51/25 45/53/26 46/54/26 44/52/25
f 45/53/26 47/55/27 50/56/27 46/54/26
f 47/55/27 48/57/18 49/58/18 50/56/27
f 62/59/28 51/60/28 55/61/28 52/62/28
f 51/60/29 53/63/29 54/64/29 55/61/29
f 53/63/30 56/65/30 60/66/30 54/64/30
f 56/65/31 57/67/31 61/68/31 60/66/31
f 57/67/32 58/69/32 59/70/32 61/68/32
f 58/69/33 62/71/33 52/72/33 59/70/33
s 0
f 52/73/11 55/74/11 54/75/11 60/76/11 61/77/11 59/78/11
f 58/74/12 57/75/12 56/76/12 53/77/12 51/78/12 62/73/12
