# Blender 4.5.14 LTS
# www.blender.org
mtllib fridge_white.mtl
o fridge_white
v -0.350000 0.060000 -0.340000 0.7960 0.7960 0.7960
v -0.350000 1.700000 -0.310000 0.9333 0.9333 0.9333
v -0.350000 1.700000 -0.340000 1.0000 1.0000 1.0000
v 0.350000 1.700000 -0.340000 1.0000 1.0000 1.0000
v 0.350000 0.060000 -0.340000 0.8000 0.8000 0.8000
v -0.320000 0.090000 -0.309950 0.7412 0.7412 0.7412
v 0.320000 0.090000 -0.309950 0.7333 0.7333 0.7333
v 0.320000 1.670000 -0.309950 0.7451 0.7451 0.7451
v -0.320000 1.670000 -0.309950 0.7451 0.7451 0.7451
v -0.350000 0.060000 0.340000 0.7255 0.7255 0.7255
v 0.350000 0.060000 -0.310000 0.7451 0.7451 0.7451
v -0.350000 0.090000 0.340000 0.7333 0.7333 0.7333
v -0.350000 0.060000 -0.310000 0.7412 0.7412 0.7412
v 0.350000 0.060000 0.340000 0.7294 0.7294 0.7294
v 0.350000 1.670000 0.340000 0.7764 0.7764 0.7764
v -0.350000 1.700000 0.340000 0.9647 0.9647 0.9647
v 0.350000 1.700000 0.340000 0.9647 0.9647 0.9647
v 0.350000 1.700000 -0.310000 0.9333 0.9333 0.9333
v -0.320000 1.670000 -0.310000 0.6941 0.6941 0.6941
v -0.320000 0.090000 -0.310000 0.6902 0.6902 0.6902
v -0.320000 1.670000 0.340000 0.6902 0.6902 0.6902
v -0.350000 1.670000 0.340000 0.7764 0.7764 0.7764
v -0.350000 1.670000 -0.310000 0.7764 0.7764 0.7764
v -0.350000 0.090000 -0.310000 0.7333 0.7333 0.7333
v -0.320000 0.090000 0.340000 0.6863 0.6863 0.6863
v 0.320000 1.670000 0.340000 0.6941 0.6941 0.6941
v 0.320000 0.090000 0.340000 0.6863 0.6863 0.6863
v 0.320000 1.670000 -0.310000 0.6941 0.6941 0.6941
v 0.350000 0.090000 -0.310000 0.7333 0.7333 0.7333
v 0.350000 1.670000 -0.310000 0.7764 0.7764 0.7764
v 0.320000 0.090000 -0.310000 0.6902 0.6902 0.6902
v 0.350000 0.090000 0.340000 0.7372 0.7372 0.7372
v 0.320000 0.060000 -0.340000 0.7372 0.7372 0.7372
v -0.320000 0.000000 0.280000 0.7490 0.7490 0.7490
v -0.320000 0.060000 0.280000 0.6863 0.6863 0.6863
v 0.320000 0.000000 0.280000 0.7490 0.7490 0.7490
v 0.320000 0.000000 -0.340000 0.7725 0.7725 0.7725
v 0.320000 0.060000 0.280000 0.6863 0.6863 0.6863
v -0.320000 0.060000 -0.340000 0.7372 0.7372 0.7372
v -0.320000 0.000000 -0.340000 0.7725 0.7725 0.7725
v -0.315000 0.470000 0.300000 0.6824 0.6824 0.6824
v -0.315000 0.450000 -0.300000 0.6824 0.6824 0.6824
v -0.315000 0.450000 0.300000 0.6785 0.6785 0.6785
v -0.315000 0.470000 -0.300000 0.6785 0.6785 0.6785
v 0.315000 0.450000 -0.300000 0.6785 0.6785 0.6785
v 0.315000 0.470000 -0.300000 0.6824 0.6824 0.6824
v 0.315000 0.470000 0.300000 0.6824 0.6824 0.6824
v 0.315000 0.450000 0.300000 0.6824 0.6824 0.6824
v -0.315000 0.860000 0.300000 0.6824 0.6824 0.6824
v -0.315000 0.860000 -0.300000 0.6824 0.6824 0.6824
v 0.315000 0.860000 -0.300000 0.6824 0.6824 0.6824
v -0.315000 0.840000 -0.300000 0.6785 0.6785 0.6785
v -0.315000 0.840000 0.300000 0.6824 0.6824 0.6824
v 0.315000 0.840000 0.300000 0.6863 0.6863 0.6863
v 0.315000 0.860000 0.300000 0.6824 0.6824 0.6824
v 0.315000 0.840000 -0.300000 0.6824 0.6824 0.6824
v -0.315000 1.230000 0.300000 0.6824 0.6824 0.6824
v 0.315000 1.250000 0.300000 0.6863 0.6863 0.6863
v -0.315000 1.250000 0.300000 0.6863 0.6863 0.6863
v 0.315000 1.230000 -0.300000 0.6824 0.6824 0.6824
v -0.315000 1.250000 -0.300000 0.6863 0.6863 0.6863
v 0.315000 1.230000 0.300000 0.6863 0.6863 0.6863
v 0.315000 1.250000 -0.300000 0.6863 0.6863 0.6863
v -0.315000 1.230000 -0.300000 0.6824 0.6824 0.6824
v -0.140000 0.470000 -0.050000 0.7059 0.7059 0.7059
v -0.192500 0.470000 -0.080311 0.6667 0.6667 0.6667
v -0.192500 0.670000 -0.080311 0.6706 0.6706 0.6706
v -0.210000 0.470000 -0.050000 0.6667 0.6667 0.6667
v -0.210000 0.670000 -0.050000 0.6667 0.6667 0.6667
v -0.192500 0.470000 -0.019689 0.6745 0.6745 0.6745
v -0.140000 0.670000 -0.050000 0.6902 0.6902 0.6902
v -0.157500 0.670000 -0.019689 0.6902 0.6902 0.6902
v -0.157500 0.670000 -0.080311 0.6863 0.6863 0.6863
v -0.192500 0.670000 -0.019689 0.6745 0.6745 0.6745
v -0.157500 0.470000 -0.019689 0.7020 0.7020 0.7020
v -0.157500 0.470000 -0.080311 0.6863 0.6863 0.6863
v 0.140000 0.860000 -0.050000 0.6667 0.6667 0.6667
v 0.087500 1.040000 -0.080311 0.6706 0.6706 0.6706
v 0.122500 1.040000 -0.080311 0.6667 0.6667 0.6667
v 0.070000 0.860000 -0.050000 0.6902 0.6902 0.6902
v 0.087500 1.040000 -0.019689 0.6785 0.6785 0.6785
v 0.122500 0.860000 -0.019689 0.6745 0.6745 0.6745
v 0.140000 1.040000 -0.050000 0.6667 0.6667 0.6667
v 0.070000 1.040000 -0.050000 0.6745 0.6745 0.6745
v 0.122500 1.040000 -0.019689 0.6706 0.6706 0.6706
v 0.087500 0.860000 -0.019689 0.6902 0.6902 0.6902
v 0.087500 0.860000 -0.080311 0.6745 0.6745 0.6745
v 0.122500 0.860000 -0.080311 0.6667 0.6667 0.6667
v -0.187500 1.250000 -0.071651 0.6706 0.6706 0.6706
v -0.162500 1.390000 -0.071651 0.7059 0.7059 0.7059
v -0.200000 1.250000 -0.050000 0.6667 0.6667 0.6667
v -0.200000 1.390000 -0.050000 0.6745 0.6745 0.6745
v -0.162500 1.250000 -0.028349 0.7137 0.7137 0.7137
v -0.150000 1.390000 -0.050000 0.7216 0.7216 0.7216
v -0.187500 1.390000 -0.071651 0.6824 0.6824 0.6824
v -0.187500 1.390000 -0.028349 0.6863 0.6863 0.6863
v -0.162500 1.390000 -0.028349 0.7098 0.7098 0.7098
v -0.187500 1.250000 -0.028349 0.6824 0.6824 0.6824
v -0.162500 1.250000 -0.071651 0.6980 0.6980 0.6980
v -0.150000 1.250000 -0.050000 0.7216 0.7216 0.7216
v 0.119000 0.470000 -0.074249 0.6667 0.6667 0.6667
v 0.119000 0.650000 -0.074249 0.6667 0.6667 0.6667
v 0.133000 0.650000 -0.050000 0.6667 0.6667 0.6667
v 0.091000 0.470000 -0.074249 0.6745 0.6745 0.6745
v 0.077000 0.470000 -0.050000 0.6902 0.6902 0.6902
v 0.077000 0.650000 -0.050000 0.6785 0.6785 0.6785
v 0.091000 0.650000 -0.074249 0.6706 0.6706 0.6706
v 0.091000 0.470000 -0.025751 0.6902 0.6902 0.6902
v 0.091000 0.650000 -0.025751 0.6785 0.6785 0.6785
v 0.119000 0.470000 -0.025751 0.6745 0.6745 0.6745
v 0.119000 0.650000 -0.025751 0.6706 0.6706 0.6706
v 0.133000 0.470000 -0.050000 0.6667 0.6667 0.6667
v -0.350000 1.200000 0.380000 0.9529 0.9529 0.9529
v 0.350000 1.690000 0.380000 1.0000 1.0000 1.0000
v -0.350000 1.690000 0.340000 0.8313 0.8313 0.8313
v -0.350000 1.690000 0.380000 0.9960 0.9960 0.9960
v 0.350000 1.200000 0.380000 0.9607 0.9607 0.9607
v 0.350000 1.690000 0.340000 0.8353 0.8353 0.8353
v -0.350000 1.200000 0.340000 0.8117 0.8117 0.8117
v 0.350000 1.200000 0.340000 0.8078 0.8078 0.8078
v -0.305000 1.190000 0.420000 0.9372 0.9372 0.9372
v -0.275000 1.190000 0.380000 0.8000 0.8000 0.8000
v -0.305000 1.190000 0.380000 0.8157 0.8157 0.8157
v -0.305000 1.390000 0.380000 0.7764 0.7764 0.7764
v -0.275000 1.390000 0.380000 0.7686 0.7686 0.7686
v -0.305000 1.390000 0.420000 0.9372 0.9372 0.9372
v -0.275000 1.390000 0.420000 0.9019 0.9019 0.9019
v -0.275000 1.190000 0.420000 0.9058 0.9058 0.9058
vn -0.0000 -0.0000 -1.0000
vn -1.0000 -0.0000 -0.0000
vn 1.0000 -0.0000 -0.0000
vn -0.0000 1.0000 -0.0000
vn -0.0000 -1.0000 -0.0000
vn -0.0000 -0.0000 1.0000
vn 0.8660 -0.0000 -0.5000
vn -0.8660 -0.0000 -0.5000
vn -0.8660 -0.0000 0.5000
vn 0.8660 -0.0000 0.5000
vt 0.875488 0.844238
vt 0.888410 0.844238
vt 0.888410 0.874512
vt 0.875488 0.874512
vt 0.876042 0.844238
vt 0.876042 0.874512
vt 0.905762 0.844238
vt 0.905762 0.845536
vt 0.875488 0.845536
vt 0.500488 0.781738
vt 0.512751 0.781738
vt 0.512751 0.812012
vt 0.500488 0.812012
vt 0.905762 0.845636
vt 0.875488 0.845636
vt 0.530762 0.781738
vt 0.530762 0.809849
vt 0.500488 0.809849
vt 0.905762 0.872349
vt 0.875488 0.872349
vt 0.876063 0.844238
vt 0.876063 0.874512
vt 0.887943 0.844238
vt 0.887943 0.874512
vt 0.512943 0.781738
vt 0.512943 0.812012
vt 0.876886 0.844238
vt 0.876886 0.874512
vt 0.562988 0.844238
vt 0.593262 0.844238
vt 0.593262 0.847076
vt 0.562988 0.847076
vt 0.593262 0.847168
vt 0.562988 0.847168
vt 0.593262 0.873566
vt 0.562988 0.873566
vt 0.781738 0.844238
vt 0.812012 0.844238
vt 0.812012 0.845199
vt 0.781738 0.845199
vt 0.812012 0.845247
vt 0.781738 0.845247
vt 0.812012 0.873070
vt 0.781738 0.873070
vt 0.187988 0.781738
vt 0.193034 0.781738
vt 0.193034 0.812012
vt 0.187988 0.812012
vt 0.198079 0.781738
vt 0.198079 0.812012
vt 0.203125 0.781738
vt 0.203125 0.812012
vt 0.208171 0.781738
vt 0.208171 0.812012
vt 0.213216 0.781738
vt 0.213216 0.812012
vt 0.218262 0.781738
vt 0.218262 0.812012
vt 0.530762 0.796875
vt 0.523193 0.812012
vt 0.508057 0.812012
vt 0.500488 0.796875
vt 0.508057 0.781738
vt 0.523193 0.781738
vt 0.125488 0.781738
vt 0.130534 0.781738
vt 0.130534 0.812012
vt 0.125488 0.812012
vt 0.135579 0.781738
vt 0.135579 0.812012
vt 0.140625 0.781738
vt 0.140625 0.812012
vt 0.145671 0.781738
vt 0.145671 0.812012
vt 0.150716 0.781738
vt 0.150716 0.812012
vt 0.155762 0.781738
vt 0.155762 0.812012
vt 0.156738 0.781738
vt 0.161784 0.781738
vt 0.161784 0.812012
vt 0.156738 0.812012
vt 0.166829 0.781738
vt 0.166829 0.812012
vt 0.171875 0.781738
vt 0.171875 0.812012
vt 0.176921 0.781738
vt 0.176921 0.812012
vt 0.181966 0.781738
vt 0.181966 0.812012
vt 0.187012 0.781738
vt 0.187012 0.812012
vt 0.000488 0.781738
vt 0.005534 0.781738
vt 0.005534 0.812012
vt 0.000488 0.812012
vt 0.010579 0.781738
vt 0.010579 0.812012
vt 0.015625 0.781738
vt 0.015625 0.812012
vt 0.020671 0.781738
vt 0.020671 0.812012
vt 0.025716 0.781738
vt 0.025716 0.812012
vt 0.030762 0.781738
vt 0.030762 0.812012
vt 0.905762 0.865430
vt 0.875488 0.865430
vt 0.877960 0.844238
vt 0.877960 0.874512
vt 0.905762 0.845968
vt 0.875488 0.845968
vt 0.785371 0.844238
vt 0.785371 0.868457
vt 0.781738 0.868457
vt 0.786582 0.844238
vt 0.786582 0.868457
vt 0.785371 0.849082
vt 0.781738 0.849082
s 0
usemtl props
f 5/1/1 1/2/1 3/3/1 4/4/1
f 1/1/2 13/5/2 2/6/2 3/4/2
f 11/1/3 5/5/3 4/6/3 18/4/3
f 2/1/4 18/7/4 4/8/4 3/9/4
f 1/1/5 5/7/5 11/8/5 13/9/5
f 6/10/6 7/11/6 8/12/6 9/13/6
f 10/1/6 14/7/6 32/8/6 12/9/6
f 11/1/1 13/7/1 24/8/1 29/9/1
f 13/1/2 10/7/2 12/14/2 24/15/2
f 14/1/3 11/7/3 29/14/3 32/15/3
f 12/10/4 32/16/4 29/17/4 24/18/4
f 13/1/5 11/7/5 14/19/5 10/20/5
f 22/1/6 15/7/6 17/8/6 16/9/6
f 30/1/1 23/7/1 2/8/1 18/9/1
f 23/1/2 22/7/2 16/14/2 2/15/2
f 15/1/3 30/7/3 18/14/3 17/15/3
f 16/1/4 17/7/4 18/19/4 2/20/4
f 23/10/5 30/16/5 15/17/5 22/18/5
f 12/1/6 25/21/6 21/22/6 22/4/6
f 20/1/1 24/21/1 23/22/1 19/4/1
f 24/1/2 12/23/2 22/24/2 23/4/2
f 25/10/3 20/25/3 19/26/3 21/13/3
f 22/1/4 21/27/4 19/28/4 23/4/4
f 24/1/5 20/27/5 25/28/5 12/4/5
f 27/1/6 32/21/6 15/22/6 26/4/6
f 29/1/1 31/21/1 28/22/1 30/4/1
f 31/10/2 27/25/2 26/26/2 28/13/2
f 32/1/3 29/23/3 30/24/3 15/4/3
f 26/1/4 15/27/4 30/28/4 28/4/4
f 31/1/5 29/27/5 32/28/5 27/4/5
f 34/29/6 36/30/6 38/31/6 35/32/6
f 37/29/1 40/30/1 39/31/1 33/32/1
f 40/29/2 34/30/2 35/33/2 39/34/2
f 36/29/3 37/30/3 33/33/3 38/34/3
f 35/29/4 38/30/4 33/35/4 39/36/4
f 40/29/5 37/30/5 36/35/5 34/36/5
f 43/37/6 48/38/6 47/39/6 41/40/6
f 45/37/1 42/38/1 44/39/1 46/40/1
f 42/37/2 43/38/2 41/41/2 44/42/2
f 48/37/3 45/38/3 46/41/3 47/42/3
f 41/37/4 47/38/4 46/43/4 44/44/4
f 42/37/5 45/38/5 48/43/5 43/44/5
f 53/37/6 54/38/6 55/39/6 49/40/6
f 56/37/1 52/38/1 50/39/1 51/40/1
f 52/37/2 53/38/2 49/41/2 50/42/2
f 54/37/3 56/38/3 51/41/3 55/42/3
f 49/37/4 55/38/4 51/43/4 50/44/4
f 52/37/5 56/38/5 54/43/5 53/44/5
f 57/37/6 62/38/6 58/39/6 59/40/6
f 60/37/1 64/38/1 61/39/1 63/40/1
f 64/37/2 57/38/2 59/41/2 61/42/2
f 62/37/3 60/38/3 63/41/3 58/42/3
f 59/37/4 58/38/4 63/43/4 61/44/4
f 64/37/5 60/38/5 62/43/5 57/44/5
s 1
f 65/45/7 76/46/7 73/47/7 71/48/7
f 76/46/1 66/49/1 67/50/1 73/47/1
f 66/49/8 68/51/8 69/52/8 67/50/8
f 68/51/9 70/53/9 74/54/9 69/52/9
f 70/53/6 75/55/6 72/56/6 74/54/6
f 75/55/10 65/57/10 71/58/10 72/56/10
s 0
f 71/59/4 73/60/4 67/61/4 69/62/4 74/63/4 72/64/4
f 75/60/5 70/61/5 68/62/5 66/63/5 76/64/5 65/59/5
s 1
f 77/65/7 88/66/7 79/67/7 83/68/7
f 88/66/1 87/69/1 78/70/1 79/67/1
f 87/69/8 80/71/8 84/72/8 78/70/8
f 80/71/9 86/73/9 81/74/9 84/72/9
f 86/73/6 82/75/6 85/76/6 81/74/6
f 82/75/10 77/77/10 83/78/10 85/76/10
s 0
f 83/59/4 79/60/4 78/61/4 84/62/4 81/63/4 85/64/4
f 82/60/5 86/61/5 80/62/5 87/63/5 88/64/5 77/59/5
s 1
f 100/79/7 99/80/7 90/81/7 94/82/7
f 99/80/1 89/83/1 95/84/1 90/81/1
f 89/83/8 91/85/8 92/86/8 95/84/8
f 91/85/9 98/87/9 96/88/9 92/86/9
f 98/87/6 93/89/6 97/90/6 96/88/6
f 93/89/10 100/91/10 94/92/10 97/90/10
s 0
f 94/59/4 90/60/4 95/61/4 92/62/4 96/63/4 97/64/4
f 93/60/5 98/61/5 91/62/5 89/63/5 99/64/5 100/59/5
s 1
f 112/93/7 101/94/7 102/95/7 103/96/7
f 101/94/1 104/97/1 107/98/1 102/95/1
f 104/97/8 105/99/8 106/100/8 107/98/8
f 105/99/9 108/101/9 109/102/9 106/100/9
f 108/101/6 110/103/6 111/104/6 109/102/6
f 110/103/10 112/105/10 103/106/10 111/104/10
s 0
f 103/59/4 102/60/4 107/61/4 106/62/4 109/63/4 111/64/4
f 110/60/5 108/61/5 105/62/5 104/63/5 101/64/5 112/59/5
f 113/1/6 117/7/6 114/107/6 116/108/6
f 120/1/1 119/7/1 115/107/1 118/108/1
f 119/1/2 113/109/2 116/110/2 115/4/2
f 117/1/3 120/109/3 118/110/3 114/4/3
f 116/1/4 114/7/4 118/111/4 115/112/4
f 119/1/5 120/7/5 117/111/5 113/112/5
f 121/37/6 128/113/6 127/114/6 126/115/6
f 122/37/1 123/113/1 124/114/1 125/115/1
f 123/37/2 121/116/2 126/117/2 124/115/2
f 128/37/3 122/116/3 125/117/3 127/115/3
f 126/37/4 127/113/4 125/118/4 124/119/4
f 123/37/5 122/113/5 128/118/5 121/119/5
o fridge_white_door
v -0.350000 0.060000 0.340000 0.7255 0.7255 0.7255
v 0.350000 0.060000 0.340000 0.7333 0.7333 0.7333
v 0.350000 1.170000 0.380000 0.9607 0.9607 0.9607
v -0.350000 1.170000 0.380000 0.9411 0.9411 0.9411
v 0.350000 1.170000 0.340000 0.8078 0.8078 0.8078
v -0.350000 1.170000 0.340000 0.8078 0.8078 0.8078
v 0.350000 0.060000 0.380000 0.7960 0.7960 0.7960
v -0.350000 0.060000 0.380000 0.7882 0.7882 0.7882
v -0.305000 0.540000 0.420000 0.9333 0.9333 0.9333
v -0.305000 0.940000 0.420000 0.9333 0.9333 0.9333
v -0.305000 0.540000 0.380000 0.7804 0.7804 0.7804
v -0.275000 0.540000 0.380000 0.7725 0.7725 0.7725
v -0.275000 0.940000 0.380000 0.7686 0.7686 0.7686
v -0.275000 0.940000 0.420000 0.9019 0.9019 0.9019
v -0.305000 0.940000 0.380000 0.7764 0.7764 0.7764
v -0.275000 0.540000 0.420000 0.9019 0.9019 0.9019
vn -0.0000 -0.0000 1.0000
vn -0.0000 -0.0000 -1.0000
vn -1.0000 -0.0000 -0.0000
vn 1.0000 -0.0000 -0.0000
vn -0.0000 1.0000 -0.0000
vn -0.0000 -1.0000 -0.0000
vt 0.875488 0.844238
vt 0.894580 0.844238
vt 0.894580 0.874512
vt 0.875488 0.874512
vt 0.876579 0.844238
vt 0.876579 0.874512
vt 0.905762 0.844238
vt 0.905762 0.845968
vt 0.875488 0.845968
vt 0.781738 0.844238
vt 0.784009 0.844238
vt 0.784009 0.874512
vt 0.781738 0.874512
vt 0.784766 0.844238
vt 0.784766 0.874512
vt 0.785371 0.844238
vt 0.785371 0.849082
vt 0.781738 0.849082
s 0
usemtl props
f 136/120/11 135/121/11 131/122/11 132/123/11
f 130/120/12 129/121/12 134/122/12 133/123/12
f 129/120/13 136/124/13 132/125/13 134/123/13
f 135/120/14 130/124/14 133/125/14 131/123/14
f 132/120/15 131/126/15 133/127/15 134/128/15
f 129/120/16 130/126/16 135/127/16 136/128/16
f 137/129/11 144/130/11 142/131/11 138/132/11
f 140/129/12 139/130/12 143/131/12 141/132/12
f 139/129/13 137/133/13 138/134/13 143/132/13
f 144/129/14 140/133/14 141/134/14 142/132/14
f 138/129/15 142/135/15 141/136/15 143/137/15
f 139/129/16 140/135/16 144/136/16 137/137/16
