# Blender 4.5.14 LTS
# www.blender.org
mtllib kettle_stove.mtl
o kettle_stove
v 0.088992 0.000000 -0.064656 0.7333 0.7333 0.7333
v 0.110000 0.000000 0.000000 0.7333 0.7333 0.7333
v 0.033992 0.000000 -0.104616 0.7333 0.7333 0.7333
v -0.033992 0.000000 -0.104616 0.7294 0.7294 0.7294
v -0.110000 0.000000 -0.000000 0.7294 0.7294 0.7294
v 0.000000 0.000000 0.000000 0.6667 0.6667 0.6667
v 0.097082 0.050000 -0.070534 0.9058 0.9058 0.9058
v 0.037082 0.050000 -0.114127 0.9058 0.9058 0.9058
v -0.088992 0.000000 -0.064656 0.7294 0.7294 0.7294
v -0.120000 0.050000 -0.000000 0.9019 0.9019 0.9019
v -0.088992 0.000000 0.064656 0.7294 0.7294 0.7294
v -0.097082 0.050000 0.070534 0.9019 0.9019 0.9019
v -0.033992 0.000000 0.104616 0.7294 0.7294 0.7294
v 0.033992 0.000000 0.104616 0.7294 0.7294 0.7294
v 0.097082 0.050000 0.070534 0.9019 0.9019 0.9019
v 0.088992 0.000000 0.064656 0.7294 0.7294 0.7294
v 0.080902 0.150000 -0.058779 0.9960 0.9960 0.9960
v 0.030902 0.150000 -0.095106 0.9960 0.9960 0.9960
v -0.037082 0.050000 -0.114127 0.9019 0.9019 0.9019
v -0.097082 0.050000 -0.070534 0.9058 0.9058 0.9058
v -0.030902 0.150000 -0.095106 0.9960 0.9960 0.9960
v -0.037082 0.050000 0.114127 0.9019 0.9019 0.9019
v 0.030902 0.150000 0.095106 1.0000 1.0000 1.0000
v 0.037082 0.050000 0.114127 0.9019 0.9019 0.9019
v 0.080902 0.150000 0.058779 0.9960 0.9960 0.9960
v 0.120000 0.050000 0.000000 0.9058 0.9058 0.9058
v 0.100000 0.150000 0.000000 0.9960 0.9960 0.9960
v 0.040451 0.170000 -0.029389 0.9098 0.9098 0.9098
v 0.050000 0.170000 0.000000 0.6667 0.6667 0.6667
v 0.015451 0.170000 -0.047553 0.9372 0.9372 0.9372
v -0.015451 0.170000 -0.047553 0.9411 0.9411 0.9411
v -0.080902 0.150000 -0.058779 0.9921 0.9921 0.9921
v -0.100000 0.150000 -0.000000 0.9686 0.9686 0.9686
v -0.040451 0.170000 -0.029389 0.9176 0.9176 0.9176
v -0.080902 0.150000 0.058779 0.9882 0.9882 0.9882
v -0.050000 0.170000 -0.000000 0.6667 0.6667 0.6667
v -0.015451 0.170000 0.047553 0.9372 0.9372 0.9372
v -0.040451 0.170000 0.029389 0.9137 0.9137 0.9137
v -0.030902 0.150000 0.095106 0.9960 0.9960 0.9960
v 0.015451 0.170000 0.047553 0.9451 0.9451 0.9451
v 0.040451 0.170000 0.029389 0.9137 0.9137 0.9137
v -0.158833 0.112773 -0.003708 0.9568 0.9568 0.9568
v -0.094988 0.055012 0.009708 0.7216 0.7216 0.7216
v -0.155459 0.115534 0.009708 0.9607 0.9607 0.9607
v -0.085012 0.064988 0.009708 0.7921 0.7921 0.7921
v -0.081930 0.068070 -0.003708 0.8196 0.8196 0.8196
v -0.144541 0.124466 0.009708 0.9255 0.9255 0.9255
v -0.090000 0.060000 -0.012000 0.7529 0.7529 0.7529
v -0.150000 0.120000 -0.012000 0.9451 0.9451 0.9451
v -0.141167 0.127227 -0.003708 0.8902 0.8902 0.8902
v -0.189786 0.164128 -0.003708 1.0000 1.0000 1.0000
v -0.098070 0.051930 -0.003708 0.7098 0.7098 0.7098
v -0.180000 0.170000 -0.012000 0.9882 0.9882 0.9882
v -0.186048 0.166371 0.009708 0.9960 0.9960 0.9960
v -0.173952 0.173629 0.009708 0.9764 0.9764 0.9764
v -0.170214 0.175872 -0.003708 0.9647 0.9647 0.9647
v 0.060000 0.160000 -0.010000 0.7647 0.7647 0.7647
v 0.050194 0.158039 -0.000000 0.8196 0.8196 0.8196
v 0.060000 0.160000 0.010000 0.7686 0.7686 0.7686
v 0.032929 0.252929 -0.000000 0.8588 0.8588 0.8588
v 0.069806 0.161961 0.000000 0.8823 0.8823 0.8823
v 0.040000 0.260000 -0.010000 0.9529 0.9529 0.9529
v -0.040000 0.260000 -0.010000 0.8039 0.8039 0.8039
v -0.040000 0.260000 0.010000 0.8039 0.8039 0.8039
v 0.040000 0.260000 0.010000 0.9529 0.9529 0.9529
v -0.047071 0.267071 0.000000 0.9882 0.9882 0.9882
v 0.047071 0.267071 0.000000 0.9960 0.9960 0.9960
v -0.032929 0.252929 -0.000000 0.8353 0.8353 0.8353
v -0.069806 0.161961 0.000000 0.8666 0.8666 0.8666
v -0.060000 0.160000 -0.010000 0.7372 0.7372 0.7372
v -0.060000 0.160000 0.010000 0.7372 0.7372 0.7372
v -0.050194 0.158039 -0.000000 0.7529 0.7529 0.7529
vn -0.0000 -1.0000 -0.0000
vn 0.9806 -0.1961 -0.0000
vn 0.7933 -0.1961 -0.5764
vn 0.8090 -0.0000 -0.5878
vn 1.0000 -0.0000 -0.0000
vn 0.3030 -0.1961 -0.9326
vn 0.3090 -0.0000 -0.9511
vn -0.3030 -0.1961 -0.9326
vn -0.3090 -0.0000 -0.9511
vn -0.7933 -0.1961 -0.5764
vn -0.8090 -0.0000 -0.5878
vn -0.9806 -0.1961 -0.0000
vn -1.0000 -0.0000 -0.0000
vn -0.7933 -0.1961 0.5764
vn -0.8090 -0.0000 0.5878
vn -0.3030 -0.1961 0.9326
vn -0.3090 -0.0000 0.9511
vn 0.3030 -0.1961 0.9326
vn 0.3090 -0.0000 0.9511
vn 0.7933 -0.1961 0.5764
vn 0.8090 -0.0000 0.5878
vn 0.7933 0.1961 -0.5764
vn 0.9806 0.1961 -0.0000
vn 0.3030 0.1961 -0.9326
vn -0.3030 0.1961 -0.9326
vn -0.7933 0.1961 -0.5764
vn -0.9806 0.1961 -0.0000
vn -0.7933 0.1961 0.5764
vn -0.3030 0.1961 0.9326
vn 0.3030 0.1961 0.9326
vn 0.7933 0.1961 0.5764
vn 0.3714 0.9285 -0.0000
vn 0.3005 0.9285 -0.2183
vn 0.1148 0.9285 -0.3532
vn -0.1148 0.9285 -0.3532
vn -0.3005 0.9285 -0.2183
vn -0.3714 0.9285 -0.0000
vn -0.3005 0.9285 0.2183
vn -0.1148 0.9285 0.3532
vn 0.1148 0.9285 0.3532
vn 0.3005 0.9285 0.2183
vn -0.4164 -0.4162 -0.8083
vn -0.4616 -0.3617 -0.8100
vn -0.4626 -0.3604 -0.8100
vn -0.6730 -0.6723 0.3083
vn -0.7494 -0.5851 0.3100
vn -0.7487 -0.5859 0.3100
vn -0.0000 -0.0000 1.0000
vn 0.6723 0.6730 0.3083
vn 0.7500 0.5842 0.3101
vn 0.7494 0.5851 0.3101
vn 0.4162 0.4164 -0.8083
vn 0.4618 0.3614 -0.8100
vn 0.4629 0.3600 -0.8100
vn -0.5054 -0.3040 -0.8076
vn -0.8151 -0.4909 0.3076
vn 0.8168 0.4882 0.3075
vn 0.5061 0.3029 -0.8075
vn 0.7071 -0.7071 -0.0000
vn -0.5145 0.8575 -0.0000
vn -0.7251 -0.1387 -0.6745
vn -0.7251 -0.1387 0.6745
vn 0.7211 0.1502 0.6763
vn 0.7211 0.1502 -0.6763
vn -0.0000 -0.8165 -0.5773
vn -0.0000 -0.8165 0.5773
vn -0.0000 0.8165 0.5774
vn -0.0000 0.8165 -0.5774
vn -0.2832 0.1516 0.9470
vn -0.3946 0.2112 0.8943
vn -0.3082 0.1650 0.9369
vn -0.3946 0.2112 -0.8943
vn -0.2832 0.1516 -0.9470
vn -0.3082 0.1650 -0.9369
vn -0.2183 0.1169 -0.9689
vn -0.2183 0.1169 0.9689
vn 0.1961 -0.9806 -0.0000
vn -0.1961 -0.9806 -0.0000
vt 0.783252 0.844238
vt 0.784766 0.854749
vt 0.781738 0.854749
vt 0.786279 0.844238
vt 0.787793 0.854749
vt 0.789307 0.844238
vt 0.790820 0.854749
vt 0.792334 0.844238
vt 0.793848 0.854749
vt 0.795361 0.844238
vt 0.796875 0.854749
vt 0.798389 0.844238
vt 0.799902 0.854749
vt 0.801416 0.844238
vt 0.802930 0.854749
vt 0.804443 0.844238
vt 0.805957 0.854749
vt 0.807471 0.844238
vt 0.808984 0.854749
vt 0.810498 0.844238
vt 0.812012 0.854749
vt 0.784766 0.859621
vt 0.781738 0.859621
vt 0.787793 0.859621
vt 0.790820 0.859621
vt 0.793848 0.859621
vt 0.796875 0.859621
vt 0.799902 0.859621
vt 0.802930 0.859621
vt 0.805957 0.859621
vt 0.808984 0.859621
vt 0.812012 0.859621
vt 0.784766 0.869366
vt 0.781738 0.869366
vt 0.787793 0.869366
vt 0.790820 0.869366
vt 0.793848 0.869366
vt 0.796875 0.869366
vt 0.799902 0.869366
vt 0.802930 0.869366
vt 0.805957 0.869366
vt 0.808984 0.869366
vt 0.812012 0.869366
vt 0.784766 0.874512
vt 0.781738 0.874512
vt 0.787793 0.874512
vt 0.790820 0.874512
vt 0.793848 0.874512
vt 0.796875 0.874512
vt 0.799902 0.874512
vt 0.802930 0.874512
vt 0.805957 0.874512
vt 0.808984 0.874512
vt 0.812012 0.874512
vt 0.781738 0.844238
vt 0.787793 0.844238
vt 0.787793 0.859375
vt 0.781738 0.859375
vt 0.793848 0.844238
vt 0.793848 0.859375
vt 0.799902 0.844238
vt 0.799902 0.859375
vt 0.805957 0.844238
vt 0.805957 0.859375
vt 0.812012 0.844238
vt 0.812012 0.859375
vt 0.812012 0.855802
vt 0.806230 0.874512
vt 0.787520 0.874512
vt 0.781738 0.855802
vt 0.796875 0.844238
vt 0.781738 0.862948
vt 0.787520 0.844238
vt 0.806230 0.844238
vt 0.812012 0.862948
vt 0.562988 0.844238
vt 0.570557 0.844238
vt 0.570557 0.854329
vt 0.562988 0.854329
vt 0.578125 0.844238
vt 0.578125 0.854329
vt 0.585693 0.844238
vt 0.585693 0.854329
vt 0.593262 0.844238
vt 0.593262 0.854329
vt 0.570557 0.864421
vt 0.562988 0.864421
vt 0.578125 0.864421
vt 0.585693 0.864421
vt 0.593262 0.864421
vt 0.570557 0.874512
vt 0.562988 0.874512
vt 0.578125 0.874512
vt 0.585693 0.874512
vt 0.593262 0.874512
vt 0.593262 0.859375
vt 0.562988 0.859375
s 1
usemtl props
f 6/1/1 1/2/1 2/3/1
f 6/4/1 3/5/1 1/2/1
f 6/6/1 4/7/1 3/5/1
f 6/8/1 9/9/1 4/7/1
f 6/10/1 5/11/1 9/9/1
f 6/12/1 11/13/1 5/11/1
f 6/14/1 13/15/1 11/13/1
f 6/16/1 14/17/1 13/15/1
f 6/18/1 16/19/1 14/17/1
f 6/20/1 2/21/1 16/19/1
f 2/3/2 1/2/3 7/22/4 26/23/5
f 1/2/3 3/5/6 8/24/7 7/22/4
f 3/5/6 4/7/8 19/25/9 8/24/7
f 4/7/8 9/9/10 20/26/11 19/25/9
f 9/9/10 5/11/12 10/27/13 20/26/11
f 5/11/12 11/13/14 12/28/15 10/27/13
f 11/13/14 13/15/16 22/29/17 12/28/15
f 13/15/16 14/17/18 24/30/19 22/29/17
f 14/17/18 16/19/20 15/31/21 24/30/19
f 16/19/20 2/21/2 26/32/5 15/31/21
f 26/23/5 7/22/4 17/33/22 27/34/23
f 7/22/4 8/24/7 18/35/24 17/33/22
f 8/24/7 19/25/9 21/36/25 18/35/24
f 19/25/9 20/26/11 32/37/26 21/36/25
f 20/26/11 10/27/13 33/38/27 32/37/26
f 10/27/13 12/28/15 35/39/28 33/38/27
f 12/28/15 22/29/17 39/40/29 35/39/28
f 22/29/17 24/30/19 23/41/30 39/40/29
f 24/30/19 15/31/21 25/42/31 23/41/30
f 15/31/21 26/32/5 27/43/23 25/42/31
f 27/34/32 17/33/33 28/44/33 29/45/32
f 17/33/33 18/35/34 30/46/34 28/44/33
f 18/35/34 21/36/35 31/47/35 30/46/34
f 21/36/35 32/37/36 34/48/36 31/47/35
f 32/37/36 33/38/37 36/49/37 34/48/36
f 33/38/37 35/39/38 38/50/38 36/49/37
f 35/39/38 39/40/39 37/51/39 38/50/38
f 39/40/39 23/41/40 40/52/40 37/51/39
f 23/41/40 25/42/41 41/53/41 40/52/40
f 25/42/41 27/43/32 29/54/32 41/53/41
f 48/55/42 52/56/42 42/57/43 49/58/44
f 52/56/45 43/59/45 44/60/46 42/57/47
f 43/59/48 45/61/48 47/62/48 44/60/48
f 45/61/49 46/63/49 50/64/50 47/62/51
f 46/63/52 48/65/52 49/66/53 50/64/54
f 49/58/44 42/57/43 51/46/55 53/45/55
f 42/57/47 44/60/46 54/48/56 51/46/56
f 44/60/48 47/62/48 55/50/48 54/48/48
f 47/62/51 50/64/50 56/52/57 55/50/57
f 50/64/54 49/66/53 53/54/58 56/52/58
s 0
f 46/67/59 45/68/59 43/69/59 52/70/59 48/71/59
f 53/49/60 51/72/60 54/73/60 55/74/60 56/75/60
s 1
f 57/76/61 58/77/61 60/78/61 62/79/61
f 58/77/62 59/80/62 65/81/62 60/78/62
f 59/80/63 61/82/63 67/83/63 65/81/63
f 61/82/64 57/84/64 62/85/64 67/83/64
f 62/79/65 60/78/65 68/86/65 63/87/65
f 60/78/66 65/81/66 64/88/66 68/86/66
f 65/81/67 67/83/67 66/89/67 64/88/67
f 67/83/68 62/85/68 63/90/68 66/89/68
f 63/87/69 68/86/70 69/91/70 71/92/71
f 68/86/72 64/88/73 70/93/74 69/91/72
f 64/88/73 66/89/75 72/94/75 70/93/74
f 66/89/76 63/90/69 71/95/71 72/94/76
s 0
f 61/96/77 59/93/77 58/97/77 57/80/77
f 71/93/78 69/97/78 70/80/78 72/96/78
o kettle_stove_lid
v 0.035355 0.170000 -0.035355 0.8902 0.8902 0.8902
v 0.035355 0.180000 -0.035355 0.9411 0.9411 0.9411
v 0.000000 0.170000 -0.050000 0.8941 0.8941 0.8941
v -0.035355 0.170000 -0.035355 0.8902 0.8902 0.8902
v -0.050000 0.170000 0.000000 0.6941 0.6941 0.6941
v -0.035355 0.180000 -0.035355 0.9411 0.9411 0.9411
v -0.035355 0.170000 0.035355 0.8902 0.8902 0.8902
v -0.000000 0.170000 0.050000 0.8902 0.8902 0.8902
v 0.035355 0.170000 0.035355 0.8941 0.8941 0.8941
v -0.000000 0.180000 0.050000 0.9451 0.9451 0.9451
v 0.050000 0.170000 0.000000 0.6667 0.6667 0.6667
v 0.035355 0.180000 0.035355 0.9372 0.9372 0.9372
v 0.000000 0.180000 -0.050000 0.9490 0.9490 0.9490
v 0.000000 0.190000 0.000000 0.6667 0.6667 0.6667
v -0.050000 0.180000 0.000000 0.7020 0.7020 0.7020
v -0.035355 0.180000 0.035355 0.9411 0.9411 0.9411
v 0.050000 0.180000 0.000000 0.6667 0.6667 0.6667
v 0.003090 0.205000 -0.009511 0.9058 0.9058 0.9058
v 0.010000 0.205000 0.000000 0.8823 0.8823 0.8823
v 0.003090 0.190000 -0.009511 0.7960 0.7960 0.7960
v -0.008090 0.205000 0.005878 0.9058 0.9058 0.9058
v -0.008090 0.205000 -0.005878 0.9058 0.9058 0.9058
v -0.008090 0.190000 0.005878 0.7960 0.7960 0.7960
v 0.003090 0.205000 0.009511 0.9098 0.9098 0.9098
v 0.003090 0.190000 0.009511 0.8039 0.8039 0.8039
v -0.008090 0.190000 -0.005878 0.7960 0.7960 0.7960
v 0.010000 0.190000 0.000000 0.7843 0.7843 0.7843
vn 1.0000 -0.0000 -0.0000
vn 0.7071 -0.0000 -0.7071
vn -0.0000 -0.0000 -1.0000
vn -0.7071 -0.0000 -0.7071
vn -1.0000 -0.0000 -0.0000
vn -0.7071 -0.0000 0.7071
vn -0.0000 -0.0000 1.0000
vn 0.7071 -0.0000 0.7071
vn 0.1961 0.9806 -0.0000
vn 0.1387 0.9806 -0.1387
vn -0.0000 1.0000 -0.0000
vn -0.0000 0.9806 -0.1961
vn -0.1387 0.9806 -0.1387
vn -0.1961 0.9806 -0.0000
vn -0.1387 0.9806 0.1387
vn -0.0000 0.9806 0.1961
vn 0.1387 0.9806 0.1387
vn 0.8090 -0.0000 -0.5878
vn -0.3090 -0.0000 -0.9511
vn -0.3090 -0.0000 0.9511
vn 0.8090 -0.0000 0.5878
vn -0.0000 -1.0000 -0.0000
vt 0.781738 0.844238
vt 0.785522 0.844238
vt 0.785522 0.849202
vt 0.781738 0.849202
vt 0.789307 0.844238
vt 0.789307 0.849202
vt 0.793091 0.844238
vt 0.793091 0.849202
vt 0.796875 0.844238
vt 0.796875 0.849202
vt 0.800659 0.844238
vt 0.800659 0.849202
vt 0.804443 0.844238
vt 0.804443 0.849202
vt 0.808228 0.844238
vt 0.808228 0.849202
vt 0.812012 0.844238
vt 0.812012 0.849202
vt 0.783630 0.874512
vt 0.787415 0.874512
vt 0.791199 0.874512
vt 0.794983 0.874512
vt 0.798767 0.874512
vt 0.802551 0.874512
vt 0.806335 0.874512
vt 0.810120 0.874512
vt 0.562988 0.844238
vt 0.569043 0.844238
vt 0.569043 0.874512
vt 0.562988 0.874512
vt 0.575098 0.844238
vt 0.575098 0.874512
vt 0.581152 0.844238
vt 0.581152 0.874512
vt 0.587207 0.844238
vt 0.587207 0.874512
vt 0.593262 0.844238
vt 0.593262 0.874512
vt 0.593262 0.859375
vt 0.581698 0.874512
vt 0.562988 0.868730
vt 0.562988 0.850020
vt 0.581698 0.844238
s 1
usemtl props
f 83/98/79 73/99/80 74/100/80 89/101/79
f 73/99/80 75/102/81 85/103/81 74/100/80
f 75/102/81 76/104/82 78/105/82 85/103/81
f 76/104/82 77/106/83 87/107/83 78/105/82
f 77/106/83 79/108/84 88/109/84 87/107/83
f 79/108/84 80/110/85 82/111/85 88/109/84
f 80/110/85 81/112/86 84/113/86 82/111/85
f 81/112/86 83/114/79 89/115/79 84/113/86
f 89/101/87 74/100/88 86/116/89
f 74/100/88 85/103/90 86/117/89
f 85/103/90 78/105/91 86/118/89
f 78/105/91 87/107/92 86/119/89
f 87/107/92 88/109/93 86/120/89
f 88/109/93 82/111/94 86/121/89
f 82/111/94 84/113/95 86/122/89
f 84/113/95 89/115/87 86/123/89
f 99/124/96 92/125/96 90/126/96 91/127/96
f 92/125/97 98/128/97 94/129/97 90/126/97
f 98/128/83 95/130/83 93/131/83 94/129/83
f 95/130/98 97/132/98 96/133/98 93/131/98
f 97/132/99 99/134/99 91/135/99 96/133/99
s 0
f 91/136/89 90/137/89 94/138/89 93/139/89 96/140/89
f 97/137/100 95/138/100 98/139/100 92/140/100 99/136/100
