# Blender 4.5.14 LTS
# www.blender.org
mtllib milk.mtl
o milk
v -0.035000 0.000000 -0.035000 0.7764 0.7764 0.7764
v -0.035000 0.200000 0.035000 0.9843 0.9843 0.9843
v 0.035000 0.000000 -0.035000 0.7804 0.7804 0.7804
v 0.035000 0.000000 0.035000 0.7764 0.7764 0.7764
v -0.035000 0.000000 0.035000 0.7764 0.7764 0.7764
v 0.035000 0.200000 0.035000 0.9843 0.9843 0.9843
v 0.035000 0.235000 0.000000 0.7764 0.7764 0.7764
v -0.035000 0.235000 0.000000 0.7764 0.7764 0.7764
v -0.035000 0.200000 -0.035000 0.9843 0.9843 0.9843
v 0.035000 0.200000 -0.035000 0.9843 0.9843 0.9843
v -0.035000 0.235000 0.002000 0.9098 0.9098 0.9098
v -0.035000 0.255000 0.002000 0.9960 0.9960 0.9960
v 0.035000 0.235000 -0.002000 0.9098 0.9098 0.9098
v 0.035000 0.255000 0.002000 0.9921 0.9921 0.9921
v 0.035000 0.255000 -0.002000 0.9960 0.9960 0.9960
v -0.035000 0.255000 -0.002000 0.9960 0.9960 0.9960
v -0.035000 0.235000 -0.002000 0.9058 0.9058 0.9058
v 0.035000 0.235000 0.002000 0.9098 0.9098 0.9098
vn -0.0000 -0.0000 1.0000
vn -0.0000 -0.0000 -1.0000
vn -1.0000 -0.0000 -0.0000
vn 1.0000 -0.0000 -0.0000
vn -0.0000 1.0000 -0.0000
vn -0.0000 -1.0000 -0.0000
vn -0.0000 0.7071 0.7071
vn -0.0000 0.7071 -0.7071
vt 0.187988 0.781738
vt 0.218262 0.781738
vt 0.218262 0.812012
vt 0.187988 0.812012
vt 0.281738 0.781738
vt 0.312012 0.781738
vt 0.312012 0.812012
vt 0.281738 0.812012
vt 0.290215 0.781738
vt 0.290215 0.785977
vt 0.281738 0.785977
vt 0.285977 0.785977
vt 0.290215 0.784160
vt 0.281738 0.784160
vt 0.282223 0.781738
vt 0.282223 0.784160
vt 0.290215 0.782223
vt 0.281738 0.782223
s 0
usemtl props
f 5/1/1 4/2/1 6/3/1 2/4/1
f 3/1/2 1/2/2 9/3/2 10/4/2
f 1/1/3 5/2/3 2/3/3 9/4/3
f 4/1/4 3/2/4 10/3/4 6/4/4
f 2/5/5 6/6/5 10/7/5 9/8/5
f 1/1/6 3/2/6 4/3/6 5/4/6
f 2/5/7 6/9/7 7/10/7 8/11/7
f 10/10/8 9/11/8 8/5/8 7/9/8
f 2/9/3 8/12/3 9/5/3
f 10/9/4 7/12/4 6/5/4
f 11/5/1 18/9/1 14/13/1 12/14/1
f 13/5/2 17/9/2 16/13/2 15/14/2
f 17/5/3 11/15/3 12/16/3 16/14/3
f 18/5/4 13/15/4 15/16/4 14/14/4
f 12/5/5 14/9/5 15/17/5 16/18/5
f 17/5/6 13/9/6 18/17/6 11/18/6
