# Blender 4.5.14 LTS
# www.blender.org
mtllib mug.mtl
o mug
v 0.032361 0.095000 -0.023511 0.9960 0.9960 0.9960
v 0.040000 0.095000 0.000000 0.9725 0.9725 0.9725
v 0.032361 0.000000 -0.023511 0.7804 0.7804 0.7804
v 0.012361 0.095000 -0.038042 1.0000 1.0000 1.0000
v -0.012361 0.000000 -0.038042 0.7804 0.7804 0.7804
v -0.032361 0.095000 -0.023511 1.0000 1.0000 1.0000
v -0.012361 0.095000 -0.038042 1.0000 1.0000 1.0000
v -0.040000 0.095000 -0.000000 1.0000 1.0000 1.0000
v -0.032361 0.000000 0.023511 0.7725 0.7725 0.7725
v -0.012361 0.095000 0.038042 1.0000 1.0000 1.0000
v -0.032361 0.095000 0.023511 1.0000 1.0000 1.0000
v -0.012361 0.000000 0.038042 0.7764 0.7764 0.7764
v 0.012361 0.095000 0.038042 1.0000 1.0000 1.0000
v 0.032361 0.095000 0.023511 0.9960 0.9960 0.9960
v 0.032361 0.000000 0.023511 0.7764 0.7764 0.7764
v 0.012361 0.000000 0.038042 0.7764 0.7764 0.7764
v -0.040000 0.000000 -0.000000 0.7686 0.7686 0.7686
v -0.032361 0.000000 -0.023511 0.7764 0.7764 0.7764
v 0.012361 0.000000 -0.038042 0.7804 0.7804 0.7804
v 0.040000 0.000000 0.000000 0.7725 0.7725 0.7725
v 0.037000 0.005000 0.000000 0.8000 0.8000 0.8000
v 0.029934 0.005000 -0.021748 0.7921 0.7921 0.7921
v 0.011434 0.005000 -0.035189 0.7921 0.7921 0.7921
v -0.011434 0.005000 -0.035189 0.8000 0.8000 0.8000
v -0.029934 0.005000 -0.021748 0.8000 0.8000 0.8000
v -0.037000 0.005000 -0.000000 0.7960 0.7960 0.7960
v -0.029934 0.005000 0.021748 0.8039 0.8039 0.8039
v -0.011434 0.005000 0.035189 0.8000 0.8000 0.8000
v 0.011434 0.005000 0.035189 0.7960 0.7960 0.7960
v 0.029934 0.005000 0.021748 0.8000 0.8000 0.8000
v 0.040000 0.075000 0.008000 0.8196 0.8196 0.8196
v 0.038431 0.067155 0.000000 0.8392 0.8392 0.8392
v 0.065000 0.070000 -0.008000 0.9490 0.9490 0.9490
v 0.040000 0.075000 -0.008000 0.8196 0.8196 0.8196
v 0.041569 0.082845 -0.000000 0.8431 0.8431 0.8431
v 0.058007 0.066115 0.000000 0.7647 0.7647 0.7647
v 0.071993 0.073885 -0.000000 0.9960 0.9960 0.9960
v 0.065000 0.070000 0.008000 0.9451 0.9451 0.9451
v 0.065000 0.030000 -0.008000 0.8902 0.8902 0.8902
v 0.071993 0.026115 -0.000000 0.8784 0.8784 0.8784
v 0.065000 0.030000 0.008000 0.8941 0.8941 0.8941
v 0.041569 0.017155 -0.000000 0.7294 0.7294 0.7294
v 0.058007 0.033885 0.000000 0.7647 0.7647 0.7647
v 0.038431 0.032845 0.000000 0.8196 0.8196 0.8196
v 0.040000 0.025000 -0.008000 0.7725 0.7725 0.7725
v 0.040000 0.025000 0.008000 0.7764 0.7764 0.7764
vn 1.0000 -0.0000 -0.0000
vn 0.8090 -0.0000 -0.5878
vn 0.3090 -0.0000 -0.9511
vn -0.3090 -0.0000 -0.9511
vn -0.8090 -0.0000 -0.5878
vn -1.0000 -0.0000 -0.0000
vn -0.8090 -0.0000 0.5878
vn -0.3090 -0.0000 0.9511
vn 0.3090 -0.0000 0.9511
vn 0.8090 -0.0000 0.5878
vn -0.0000 -1.0000 -0.0000
vn -0.0000 1.0000 -0.0000
vn -0.1049 -0.7744 0.6239
vn -0.1049 -0.7744 -0.6239
vn 0.1869 0.7419 -0.6439
vn 0.1869 0.7419 0.6439
vn 0.7529 -0.0000 0.6581
vn 0.7529 -0.0000 -0.6581
vn 0.1869 -0.7419 -0.6439
vn 0.1869 -0.7419 0.6439
vn -0.1049 0.7744 0.6239
vn -0.1049 0.7744 -0.6239
vn -0.9806 0.1961 -0.0000
vn -0.9806 -0.1961 -0.0000
vt 0.344238 0.781738
vt 0.347266 0.781738
vt 0.347266 0.812012
vt 0.344238 0.812012
vt 0.350293 0.781738
vt 0.350293 0.812012
vt 0.353320 0.781738
vt 0.353320 0.812012
vt 0.356348 0.781738
vt 0.356348 0.812012
vt 0.359375 0.781738
vt 0.359375 0.812012
vt 0.362402 0.781738
vt 0.362402 0.812012
vt 0.365430 0.781738
vt 0.365430 0.812012
vt 0.368457 0.781738
vt 0.368457 0.812012
vt 0.371484 0.781738
vt 0.371484 0.812012
vt 0.374512 0.781738
vt 0.374512 0.812012
vt 0.371621 0.806230
vt 0.364053 0.812012
vt 0.354697 0.812012
vt 0.347129 0.806230
vt 0.344238 0.796875
vt 0.347129 0.787520
vt 0.354697 0.781738
vt 0.364053 0.781738
vt 0.371621 0.787520
vt 0.374512 0.796875
vt 0.351807 0.781738
vt 0.351807 0.791829
vt 0.344238 0.791829
vt 0.359375 0.791829
vt 0.366943 0.781738
vt 0.366943 0.791829
vt 0.374512 0.791829
vt 0.351807 0.801921
vt 0.344238 0.801921
vt 0.359375 0.801921
vt 0.366943 0.801921
vt 0.374512 0.801921
vt 0.351807 0.812012
vt 0.366943 0.812012
s 1
usemtl props
f 20/1/1 3/2/2 1/3/2 2/4/1
f 3/2/2 19/5/3 4/6/3 1/3/2
f 19/5/3 5/7/4 7/8/4 4/6/3
f 5/7/4 18/9/5 6/10/5 7/8/4
f 18/9/5 17/11/6 8/12/6 6/10/5
f 17/11/6 9/13/7 11/14/7 8/12/6
f 9/13/7 12/15/8 10/16/8 11/14/7
f 12/15/8 16/17/9 13/18/9 10/16/8
f 16/17/9 15/19/10 14/20/10 13/18/9
f 15/19/10 20/21/1 2/22/1 14/20/10
s 0
f 15/23/11 16/24/11 12/25/11 9/26/11 17/27/11 18/28/11 5/29/11 19/30/11 3/31/11 20/32/11
f 21/32/12 22/23/12 23/24/12 24/25/12 25/26/12 26/27/12 27/28/12 28/29/12 29/30/12 30/31/12
s 1
f 31/1/13 32/33/13 36/34/13 38/35/13
f 32/33/14 34/11/14 33/36/14 36/34/14
f 34/11/15 35/37/15 37/38/15 33/36/15
f 35/37/16 31/21/16 38/39/16 37/38/16
f 38/35/17 36/34/17 40/40/17 39/41/17
f 36/34/18 33/36/18 41/42/18 40/40/18
f 33/36/17 37/38/17 43/43/17 41/42/17
f 37/38/18 38/39/18 39/44/18 43/43/18
f 39/41/19 40/40/19 42/45/19 45/4/19
f 40/40/20 41/42/20 46/12/20 42/45/20
f 41/42/21 43/43/21 44/46/21 46/12/21
f 43/43/22 39/44/22 45/22/22 44/46/22
s 0
f 35/12/23 34/27/23 32/11/23 31/32/23
f 45/27/24 42/11/24 46/32/24 44/12/24
