# Blender 4.5.14 LTS
# www.blender.org
mtllib newspaper.mtl
o newspaper
v -0.158598 0.012000 0.189398 0.8941 0.8941 0.8941
v -0.130695 0.000000 -0.209627 0.7725 0.7725 0.7725
v 0.158598 0.012000 -0.189398 0.8941 0.8941 0.8941
v -0.130695 0.012000 -0.209627 0.8941 0.8941 0.8941
v 0.130695 0.000000 0.209627 0.7764 0.7764 0.7764
v 0.130695 0.012000 0.209627 0.8941 0.8941 0.8941
v 0.158598 0.000000 -0.189398 0.7764 0.7764 0.7764
v -0.158598 0.000000 0.189398 0.7725 0.7725 0.7725
vn -0.0698 -0.0000 0.9976
vn 0.0698 -0.0000 -0.9976
vn -0.9976 -0.0000 -0.0698
vn 0.9976 -0.0000 0.0698
vn -0.0000 1.0000 -0.0000
vn -0.0000 -1.0000 -0.0000
vt 0.281738 0.781738
vt 0.312012 0.781738
vt 0.312012 0.812012
vt 0.281738 0.812012
vt 0.687988 0.937988
vt 0.749512 0.937988
vt 0.749512 0.999512
vt 0.687988 0.999512
s 0
usemtl props
f 8/1/1 5/2/1 6/3/1 1/4/1
f 7/1/2 2/2/2 4/3/2 3/4/2
f 2/1/3 8/2/3 1/3/3 4/4/3
f 5/1/4 7/2/4 3/3/4 6/4/4
f 1/5/5 6/6/5 3/7/5 4/8/5
f 2/1/6 7/2/6 5/3/6 8/4/6
