# Blender 4.5.14 LTS
# www.blender.org
mtllib nightstand_oak.mtl
o nightstand_oak
v 0.225000 0.080000 -0.200000 0.8196 0.8196 0.8196
v -0.225000 0.080000 -0.200000 0.8196 0.8196 0.8196
v -0.225000 0.080000 -0.180000 0.7568 0.7568 0.7568
v 0.225000 0.660000 -0.200000 0.8235 0.8235 0.8235
v -0.225000 0.660000 -0.200000 0.8235 0.8235 0.8235
v -0.205000 0.100000 -0.179950 0.7294 0.7294 0.7294
v 0.205000 0.100000 -0.179950 0.7333 0.7333 0.7333
v 0.205000 0.640000 -0.179950 0.7020 0.7020 0.7020
v -0.205000 0.640000 -0.179950 0.7098 0.7098 0.7098
v 0.225000 0.080000 -0.180000 0.7529 0.7529 0.7529
v -0.225000 0.100000 -0.180000 0.7451 0.7451 0.7451
v 0.225000 0.080000 0.200000 0.8157 0.8157 0.8157
v -0.225000 0.080000 0.200000 0.8157 0.8157 0.8157
v 0.225000 0.660000 0.200000 0.7764 0.7764 0.7764
v -0.225000 0.640000 -0.180000 0.7686 0.7686 0.7686
v -0.225000 0.640000 0.200000 0.8666 0.8666 0.8666
v 0.225000 0.660000 -0.180000 0.7412 0.7412 0.7412
v -0.225000 0.660000 0.200000 0.7764 0.7764 0.7764
v -0.225000 0.660000 -0.180000 0.7412 0.7412 0.7412
v -0.205000 0.100000 0.200000 0.8000 0.8000 0.8000
v -0.205000 0.100000 -0.180000 0.6863 0.6863 0.6863
v -0.225000 0.100000 0.200000 0.8196 0.8196 0.8196
v -0.205000 0.640000 0.200000 0.7882 0.7882 0.7882
v -0.205000 0.640000 -0.180000 0.6785 0.6785 0.6785
v 0.225000 0.100000 0.200000 0.8235 0.8235 0.8235
v 0.225000 0.640000 0.200000 0.8627 0.8627 0.8627
v 0.225000 0.100000 -0.180000 0.7451 0.7451 0.7451
v 0.205000 0.100000 0.200000 0.8039 0.8039 0.8039
v 0.205000 0.640000 0.200000 0.7804 0.7804 0.7804
v 0.225000 0.640000 -0.180000 0.7647 0.7647 0.7647
v 0.205000 0.640000 -0.180000 0.6785 0.6785 0.6785
v 0.205000 0.100000 -0.180000 0.6863 0.6863 0.6863
v -0.175000 0.000000 0.150000 0.7255 0.7255 0.7255
v -0.218000 0.080000 0.147000 0.7137 0.7137 0.7137
v -0.218000 0.080000 0.193000 0.7255 0.7255 0.7255
v -0.172000 0.080000 0.147000 0.7020 0.7020 0.7020
v -0.172000 0.080000 0.193000 0.7216 0.7216 0.7216
v -0.215000 0.000000 0.150000 0.7529 0.7529 0.7529
v -0.175000 0.000000 0.190000 0.7529 0.7529 0.7529
v -0.215000 0.000000 0.190000 0.7686 0.7686 0.7686
v -0.172000 0.080000 -0.147000 0.7098 0.7098 0.7098
v -0.175000 0.000000 -0.190000 0.7568 0.7568 0.7568
v -0.215000 0.000000 -0.190000 0.7725 0.7725 0.7725
v -0.215000 0.000000 -0.150000 0.7490 0.7490 0.7490
v -0.175000 0.000000 -0.150000 0.7176 0.7176 0.7176
v -0.172000 0.080000 -0.193000 0.7176 0.7176 0.7176
v -0.218000 0.080000 -0.147000 0.7176 0.7176 0.7176
v -0.218000 0.080000 -0.193000 0.7216 0.7216 0.7216
v 0.218000 0.080000 0.193000 0.7294 0.7294 0.7294
v 0.172000 0.080000 0.193000 0.7176 0.7176 0.7176
v 0.172000 0.080000 0.147000 0.7020 0.7020 0.7020
v 0.215000 0.000000 0.190000 0.7725 0.7725 0.7725
v 0.215000 0.000000 0.150000 0.7568 0.7568 0.7568
v 0.218000 0.080000 0.147000 0.7137 0.7137 0.7137
v 0.175000 0.000000 0.150000 0.7255 0.7255 0.7255
v 0.175000 0.000000 0.190000 0.7529 0.7529 0.7529
v 0.175000 0.000000 -0.150000 0.7176 0.7176 0.7176
v 0.218000 0.080000 -0.147000 0.7216 0.7216 0.7216
v 0.172000 0.080000 -0.147000 0.7098 0.7098 0.7098
v 0.215000 0.000000 -0.190000 0.7764 0.7764 0.7764
v 0.175000 0.000000 -0.190000 0.7529 0.7529 0.7529
v 0.218000 0.080000 -0.193000 0.7255 0.7255 0.7255
v 0.215000 0.000000 -0.150000 0.7529 0.7529 0.7529
v 0.172000 0.080000 -0.193000 0.7137 0.7137 0.7137
v -0.240000 0.685000 0.210000 1.0000 1.0000 1.0000
v -0.240000 0.660000 -0.210000 0.9686 0.9686 0.9686
v 0.240000 0.660000 -0.210000 0.9686 0.9686 0.9686
v 0.240000 0.685000 0.210000 0.9960 0.9960 0.9960
v 0.240000 0.685000 -0.210000 1.0000 1.0000 1.0000
v -0.240000 0.685000 -0.210000 1.0000 1.0000 1.0000
v 0.240000 0.660000 0.210000 0.9607 0.9607 0.9607
v -0.240000 0.660000 0.210000 0.9647 0.9647 0.9647
v 0.205000 0.295000 0.180000 0.7686 0.7686 0.7686
v 0.205000 0.280000 -0.180000 0.6785 0.6785 0.6785
v -0.205000 0.280000 -0.180000 0.6785 0.6785 0.6785
v -0.205000 0.295000 -0.180000 0.6863 0.6863 0.6863
v 0.205000 0.280000 0.180000 0.7686 0.7686 0.7686
v -0.205000 0.295000 0.180000 0.7686 0.7686 0.7686
v 0.205000 0.295000 -0.180000 0.6863 0.6863 0.6863
v -0.205000 0.280000 0.180000 0.7686 0.7686 0.7686
v 0.135355 0.705000 -0.085355 0.9058 0.9058 0.9058
v 0.100000 0.705000 -0.100000 0.9058 0.9058 0.9058
v 0.064645 0.685000 -0.085355 0.7725 0.7725 0.7725
v 0.050000 0.685000 -0.050000 0.7686 0.7686 0.7686
v 0.050000 0.705000 -0.050000 0.8941 0.8941 0.8941
v 0.064645 0.685000 -0.014645 0.7725 0.7725 0.7725
v 0.100000 0.705000 0.000000 0.8980 0.8980 0.8980
v 0.064645 0.705000 -0.014645 0.8941 0.8941 0.8941
v 0.150000 0.685000 -0.050000 0.7764 0.7764 0.7764
v 0.135355 0.705000 -0.014645 0.9058 0.9058 0.9058
v 0.150000 0.705000 -0.050000 0.9137 0.9137 0.9137
v 0.064645 0.705000 -0.085355 0.8980 0.8980 0.8980
v 0.135355 0.685000 -0.014645 0.7764 0.7764 0.7764
v 0.100000 0.685000 0.000000 0.7764 0.7764 0.7764
v 0.100000 0.685000 -0.100000 0.7764 0.7764 0.7764
v 0.135355 0.685000 -0.085355 0.7764 0.7764 0.7764
vn -0.0000 -0.0000 -1.0000
vn -1.0000 -0.0000 -0.0000
vn 1.0000 -0.0000 -0.0000
vn -0.0000 1.0000 -0.0000
vn -0.0000 -1.0000 -0.0000
vn -0.0000 -0.0000 1.0000
vn -0.0000 -0.0375 0.9993
vn -0.0000 -0.0375 -0.9993
vn -0.9993 -0.0375 -0.0000
vn 0.9993 -0.0375 -0.0000
vn 0.7071 -0.0000 -0.7071
vn -0.7071 -0.0000 -0.7071
vn -0.7071 -0.0000 0.7071
vn 0.7071 -0.0000 0.7071
vt 0.937988 0.937988
vt 0.985722 0.937988
vt 0.985722 0.999512
vt 0.937988 0.999512
vt 0.940110 0.937988
vt 0.940110 0.999512
vt 0.993359 0.937988
vt 0.993359 0.940449
vt 0.937988 0.940449
vt 0.562988 0.844238
vt 0.585974 0.844238
vt 0.585974 0.874512
vt 0.562988 0.874512
vt 0.984746 0.937988
vt 0.984746 0.940449
vt 0.593262 0.844238
vt 0.593262 0.869803
vt 0.562988 0.869803
vt 0.993359 0.984746
vt 0.937988 0.984746
vt 0.940267 0.937988
vt 0.940267 0.999512
vt 0.981283 0.937988
vt 0.981283 0.999512
vt 0.584292 0.844238
vt 0.584292 0.874512
vt 0.940449 0.937988
vt 0.940449 0.984746
vt 0.938357 0.937988
vt 0.943279 0.937988
vt 0.943648 0.947839
vt 0.937988 0.947839
vt 0.943648 0.937988
vt 0.943648 0.943648
vt 0.937988 0.943648
vt 0.942910 0.937988
vt 0.942910 0.942910
vt 0.937988 0.942910
vt 0.997051 0.937988
vt 0.997051 0.941064
vt 0.937988 0.941064
vt 0.989668 0.937988
vt 0.989668 0.941064
vt 0.997051 0.989668
vt 0.937988 0.989668
vt 0.988437 0.937988
vt 0.988437 0.939834
vt 0.937988 0.939834
vt 0.982285 0.937988
vt 0.982285 0.939834
vt 0.988437 0.982285
vt 0.937988 0.982285
vt 0.594238 0.844238
vt 0.598022 0.844238
vt 0.598022 0.874512
vt 0.594238 0.874512
vt 0.601807 0.844238
vt 0.601807 0.874512
vt 0.605591 0.844238
vt 0.605591 0.874512
vt 0.609375 0.844238
vt 0.609375 0.874512
vt 0.613159 0.844238
vt 0.613159 0.874512
vt 0.616943 0.844238
vt 0.616943 0.874512
vt 0.620728 0.844238
vt 0.620728 0.874512
vt 0.624512 0.844238
vt 0.624512 0.874512
vt 0.624512 0.859375
vt 0.620078 0.870078
vt 0.598672 0.870078
vt 0.594238 0.859375
vt 0.598672 0.848672
vt 0.620078 0.848672
s 0
usemtl props
f 1/1/1 2/2/1 5/3/1 4/4/1
f 2/1/2 3/5/2 19/6/2 5/4/2
f 10/1/3 1/5/3 4/6/3 17/4/3
f 19/1/4 17/7/4 4/8/4 5/9/4
f 2/1/5 1/7/5 10/8/5 3/9/5
f 6/10/6 7/11/6 8/12/6 9/13/6
f 13/1/6 12/7/6 25/8/6 22/9/6
f 10/1/1 3/7/1 11/8/1 27/9/1
f 3/1/2 13/14/2 22/15/2 11/9/2
f 12/1/3 10/14/3 27/15/3 25/9/3
f 22/10/4 25/16/4 27/17/4 11/18/4
f 3/1/5 10/7/5 12/19/5 13/20/5
f 16/1/6 26/7/6 14/8/6 18/9/6
f 30/1/1 15/7/1 19/8/1 17/9/1
f 15/1/2 16/14/2 18/15/2 19/9/2
f 26/1/3 30/14/3 17/15/3 14/9/3
f 18/1/4 14/7/4 17/19/4 19/20/4
f 15/10/5 30/16/5 26/17/5 16/18/5
f 22/1/6 20/21/6 23/22/6 16/4/6
f 21/1/1 11/21/1 15/22/1 24/4/1
f 11/1/2 22/23/2 16/24/2 15/4/2
f 20/10/3 21/25/3 24/26/3 23/13/3
f 16/1/4 23/27/4 24/28/4 15/20/4
f 11/1/5 21/27/5 20/28/5 22/20/5
f 28/1/6 25/21/6 26/22/6 29/4/6
f 27/1/1 32/21/1 31/22/1 30/4/1
f 32/10/2 28/25/2 29/26/2 31/13/2
f 25/1/3 27/23/3 30/24/3 26/4/3
f 29/1/4 26/27/4 30/28/4 31/20/4
f 32/1/5 27/27/5 25/28/5 28/20/5
f 40/29/7 39/30/7 37/31/7 35/32/7
f 33/29/8 38/30/8 34/31/8 36/32/8
f 38/29/9 40/30/9 35/31/9 34/32/9
f 39/29/10 33/30/10 36/31/10 37/32/10
f 35/1/4 37/33/4 36/34/4 34/35/4
f 38/1/5 33/36/5 39/37/5 40/38/5
f 44/29/7 45/30/7 41/31/7 47/32/7
f 42/29/8 43/30/8 48/31/8 46/32/8
f 43/29/9 44/30/9 47/31/9 48/32/9
f 45/29/10 42/30/10 46/31/10 41/32/10
f 47/1/4 41/33/4 46/34/4 48/35/4
f 43/1/5 42/36/5 45/37/5 44/38/5
f 56/29/7 52/30/7 49/31/7 50/32/7
f 53/29/8 55/30/8 51/31/8 54/32/8
f 55/29/9 56/30/9 50/31/9 51/32/9
f 52/29/10 53/30/10 54/31/10 49/32/10
f 50/1/4 49/33/4 54/34/4 51/35/4
f 55/1/5 53/36/5 52/37/5 56/38/5
f 57/29/7 63/30/7 58/31/7 59/32/7
f 60/29/8 61/30/8 64/31/8 62/32/8
f 61/29/9 57/30/9 59/31/9 64/32/9
f 63/29/10 60/30/10 62/31/10 58/32/10
f 59/1/4 58/33/4 62/34/4 64/35/4
f 61/1/5 60/36/5 63/37/5 57/38/5
f 72/1/6 71/39/6 68/40/6 65/41/6
f 67/1/1 66/39/1 70/40/1 69/41/1
f 66/1/2 72/42/2 65/43/2 70/41/2
f 71/1/3 67/42/3 69/43/3 68/41/3
f 65/1/4 68/39/4 69/44/4 70/45/4
f 66/1/5 67/39/5 71/44/5 72/45/5
f 80/1/6 77/46/6 73/47/6 78/48/6
f 74/1/1 75/46/1 76/47/1 79/48/1
f 75/1/2 80/49/2 78/50/2 76/48/2
f 77/1/3 74/49/3 79/50/3 73/48/3
f 78/1/4 73/46/4 79/51/4 76/52/4
f 75/1/5 74/46/5 77/51/5 80/52/5
s 1
f 89/53/3 96/54/11 81/55/11 91/56/3
f 96/54/11 95/57/1 82/58/1 81/55/11
f 95/57/1 83/59/12 92/60/12 82/58/1
f 83/59/12 84/61/2 85/62/2 92/60/12
f 84/61/2 86/63/13 88/64/13 85/62/2
f 86/63/13 94/65/6 87/66/6 88/64/13
f 94/65/6 93/67/14 90/68/14 87/66/6
f 93/67/14 89/69/3 91/70/3 90/68/14
s 0
f 91/71/4 81/72/4 82/62/4 92/73/4 85/74/4 88/75/4 87/61/4 90/76/4
f 93/72/5 94/62/5 86/73/5 84/74/5 83/75/5 95/61/5 96/76/5 89/71/5
o nightstand_oak_drawer
v -0.205000 0.480000 0.220000 0.9529 0.9529 0.9529
v 0.205000 0.630000 0.220000 0.9333 0.9333 0.9333
v 0.205000 0.480000 0.200000 0.8117 0.8117 0.8117
v -0.205000 0.480000 0.200000 0.8157 0.8157 0.8157
v -0.205000 0.630000 0.220000 0.9333 0.9333 0.9333
v 0.205000 0.630000 0.200000 0.7647 0.7647 0.7647
v -0.205000 0.630000 0.200000 0.7725 0.7725 0.7725
v 0.205000 0.480000 0.220000 0.9490 0.9490 0.9490
v -0.185000 0.505000 0.200000 0.6667 0.6667 0.6667
v 0.185000 0.495000 -0.120000 0.6863 0.6863 0.6863
v -0.185000 0.505000 -0.120000 0.6667 0.6667 0.6667
v 0.185000 0.505000 -0.120000 0.6667 0.6667 0.6667
v 0.185000 0.505000 0.200000 0.6667 0.6667 0.6667
v -0.175000 0.505050 0.190000 0.6863 0.6863 0.6863
v 0.175000 0.505050 0.190000 0.6824 0.6824 0.6824
v 0.175000 0.505050 -0.110000 0.6863 0.6863 0.6863
v -0.175000 0.505050 -0.110000 0.6863 0.6863 0.6863
v 0.185000 0.495000 0.200000 0.6863 0.6863 0.6863
v -0.185000 0.615000 0.190000 0.6745 0.6745 0.6745
v -0.185000 0.495000 0.200000 0.6863 0.6863 0.6863
v -0.185000 0.615000 0.200000 0.6667 0.6667 0.6667
v 0.185000 0.615000 0.200000 0.6667 0.6667 0.6667
v -0.185000 0.495000 -0.110000 0.6824 0.6824 0.6824
v -0.185000 0.495000 -0.120000 0.6824 0.6824 0.6824
v -0.185000 0.615000 -0.120000 0.6667 0.6667 0.6667
v 0.185000 0.615000 -0.120000 0.6667 0.6667 0.6667
v 0.185000 0.495000 -0.110000 0.6824 0.6824 0.6824
v -0.175000 0.495000 0.190000 0.7137 0.7137 0.7137
v -0.175000 0.615000 -0.110000 0.6863 0.6863 0.6863
v -0.185000 0.495000 0.190000 0.7098 0.7098 0.7098
v -0.175000 0.615000 0.190000 0.6941 0.6941 0.6941
v -0.185000 0.615000 -0.110000 0.6667 0.6667 0.6667
v -0.175000 0.495000 -0.110000 0.6824 0.6824 0.6824
v 0.175000 0.495000 -0.110000 0.6863 0.6863 0.6863
v 0.175000 0.495000 0.190000 0.7137 0.7137 0.7137
v 0.175000 0.615000 -0.110000 0.6824 0.6824 0.6824
v 0.185000 0.495000 0.190000 0.7098 0.7098 0.7098
v 0.185000 0.615000 0.190000 0.6706 0.6706 0.6706
v 0.175000 0.615000 0.190000 0.6980 0.6980 0.6980
v 0.185000 0.615000 -0.110000 0.6667 0.6667 0.6667
vn -0.0000 -0.0000 1.0000
vn -0.0000 -0.0000 -1.0000
vn -1.0000 -0.0000 -0.0000
vn 1.0000 -0.0000 -0.0000
vn -0.0000 1.0000 -0.0000
vn -0.0000 -1.0000 -0.0000
vt 0.594238 0.797363
vt 0.624512 0.797363
vt 0.624512 0.812012
vt 0.594238 0.812012
vt 0.937988 0.937988
vt 0.988437 0.937988
vt 0.988437 0.956445
vt 0.937988 0.956445
vt 0.940449 0.937988
vt 0.940449 0.956445
vt 0.988437 0.940449
vt 0.937988 0.940449
vt 0.062988 0.812988
vt 0.108516 0.812988
vt 0.108516 0.814219
vt 0.062988 0.814219
vt 0.102363 0.812988
vt 0.102363 0.814219
vt 0.108516 0.852363
vt 0.062988 0.852363
vt 0.106055 0.812988
vt 0.106055 0.849902
vt 0.062988 0.849902
vt 0.108516 0.827754
vt 0.062988 0.827754
vt 0.064219 0.812988
vt 0.064219 0.827754
vt 0.099902 0.812988
vt 0.099902 0.827754
vt 0.064219 0.849902
s 0
usemtl props
f 97/77/15 104/78/15 98/79/15 101/80/15
f 99/81/16 100/82/16 103/83/16 102/84/16
f 100/81/17 97/85/17 101/86/17 103/84/17
f 104/81/18 99/85/18 102/86/18 98/84/18
f 101/81/19 98/82/19 102/87/19 103/88/19
f 100/81/20 99/82/20 104/87/20 97/88/20
f 116/89/15 114/90/15 109/91/15 105/92/15
f 106/89/16 120/90/16 107/91/16 108/92/16
f 120/89/17 116/93/17 105/94/17 107/92/17
f 114/89/18 106/93/18 108/94/18 109/92/18
f 120/89/20 106/90/20 114/95/20 116/96/20
f 110/89/19 111/97/19 112/98/19 113/99/19
f 116/89/15 114/90/15 118/100/15 117/101/15
f 133/89/16 126/90/16 115/100/16 134/101/16
f 126/89/17 116/102/17 117/103/17 115/101/17
f 114/89/18 133/102/18 134/103/18 118/101/18
f 117/89/19 118/90/19 134/91/19 115/92/19
f 126/89/20 133/90/20 114/91/20 116/92/20
f 119/89/15 123/90/15 136/100/15 128/101/15
f 106/89/16 120/90/16 121/100/16 122/101/16
f 120/89/17 119/102/17 128/103/17 121/101/17
f 123/89/18 106/102/18 122/103/18 136/101/18
f 128/89/19 136/90/19 122/91/19 121/92/19
f 120/89/20 106/90/20 123/91/20 119/92/20
f 126/89/15 124/102/15 127/103/15 115/101/15
f 129/89/16 119/102/16 128/103/16 125/101/16
f 119/89/17 126/104/17 115/105/17 128/101/17
f 124/89/18 129/104/18 125/105/18 127/101/18
f 115/89/19 127/102/19 125/106/19 128/99/19
f 119/89/20 129/102/20 124/106/20 126/99/20
f 131/89/15 133/102/15 134/103/15 135/101/15
f 123/89/16 130/102/16 132/103/16 136/101/16
f 130/89/17 131/104/17 135/105/17 132/101/17
f 133/89/18 123/104/18 136/105/18 134/101/18
f 135/89/19 134/102/19 136/106/19 132/99/19
f 130/89/20 123/102/20 133/106/20 131/99/20
