# Blender 4.5.14 LTS
# www.blender.org
mtllib phone.mtl
o phone
v 0.100000 0.000000 0.110000 0.8039 0.8039 0.8039
v 0.100000 0.000000 -0.110000 0.7960 0.7960 0.7960
v 0.080000 0.100000 -0.077000 0.9372 0.9372 0.9372
v -0.100000 0.000000 0.110000 0.8000 0.8000 0.8000
v -0.080000 0.100000 0.077000 0.9725 0.9725 0.9725
v -0.080000 0.100000 -0.077000 0.9372 0.9372 0.9372
v 0.080000 0.100000 0.077000 0.9686 0.9686 0.9686
v -0.100000 0.000000 -0.110000 0.8000 0.8000 0.8000
v 0.051962 0.101537 0.025913 0.8627 0.8627 0.8627
v 0.051962 0.090261 0.021809 0.6667 0.6667 0.6667
v 0.030000 0.109048 0.005276 0.8235 0.8235 0.8235
v 0.000000 0.100521 -0.006382 0.6863 0.6863 0.6863
v 0.000000 0.111798 -0.002277 0.8039 0.8039 0.8039
v -0.030000 0.097772 0.001172 0.6667 0.6667 0.6667
v -0.051962 0.090261 0.021809 0.6667 0.6667 0.6667
v -0.051962 0.101537 0.025913 0.8627 0.8627 0.8627
v -0.051962 0.069739 0.078191 0.6745 0.6745 0.6745
v -0.060000 0.091276 0.054104 0.6667 0.6667 0.6667
v -0.030000 0.062228 0.098828 0.7843 0.7843 0.7843
v -0.000000 0.059479 0.106382 0.7843 0.7843 0.7843
v -0.000000 0.070755 0.110486 0.9019 0.9019 0.9019
v 0.030000 0.073504 0.102932 0.9019 0.9019 0.9019
v 0.060000 0.080000 0.050000 0.6706 0.6706 0.6706
v 0.060000 0.091276 0.054104 0.6667 0.6667 0.6667
v -0.030000 0.109048 0.005276 0.8313 0.8313 0.8313
v -0.051962 0.081016 0.082295 0.6667 0.6667 0.6667
v -0.030000 0.073504 0.102932 0.9019 0.9019 0.9019
v 0.051962 0.081016 0.082295 0.6667 0.6667 0.6667
v 0.051962 0.069739 0.078191 0.6745 0.6745 0.6745
v 0.030000 0.062228 0.098828 0.7882 0.7882 0.7882
v -0.060000 0.080000 0.050000 0.6706 0.6706 0.6706
v 0.030000 0.097772 0.001172 0.6667 0.6667 0.6667
v 0.101486 0.030000 -0.076286 0.7529 0.7529 0.7529
v 0.099555 0.033449 -0.081976 0.7843 0.7843 0.7843
v 0.299216 0.005000 -0.096078 0.8274 0.8274 0.8274
v 0.199376 0.016562 -0.121948 0.7647 0.7647 0.7647
v 0.299898 0.001573 -0.102060 0.7804 0.7804 0.7804
v 0.200226 0.023438 -0.122033 0.9098 0.9098 0.9098
v 0.200398 0.020000 -0.116020 0.8274 0.8274 0.8274
v 0.300887 0.008427 -0.101862 0.8745 0.8745 0.8745
v 0.098960 0.026551 -0.081738 0.7098 0.7098 0.7098
vn -0.0000 0.3134 0.9496
vn -0.0000 0.3134 -0.9496
vn -0.9806 0.1961 -0.0000
vn 0.9806 0.1961 -0.0000
vn -0.0000 1.0000 -0.0000
vn -0.0000 -1.0000 -0.0000
vn 1.0000 -0.0000 -0.0000
vn 0.8660 0.1710 -0.4698
vn 0.5000 0.2962 -0.8138
vn -0.0000 0.3420 -0.9397
vn -0.5000 0.2962 -0.8138
vn -0.8660 0.1710 -0.4698
vn -1.0000 -0.0000 -0.0000
vn -0.8660 -0.1710 0.4698
vn -0.5000 -0.2962 0.8138
vn -0.0000 -0.3420 0.9397
vn 0.5000 -0.2962 0.8138
vn 0.8660 -0.1710 0.4698
vn -0.0000 0.9397 0.3420
vn -0.0000 -0.9397 -0.3420
vn 0.1095 -0.8651 0.4894
vn -0.0578 -0.8656 0.4974
vn -0.0589 -0.8655 0.4975
vn -0.3692 0.0170 -0.9292
vn -0.0920 -0.0004 -0.9958
vn 0.2664 0.8509 0.4529
vn 0.1479 0.8631 0.4829
vn 0.1490 0.8631 0.4826
vn -0.2248 -0.8414 0.4914
vn 0.1927 -0.0178 -0.9811
vn 0.0281 0.8624 0.5054
vn -0.9245 0.0924 0.3698
vn 0.9701 -0.1455 0.1940
vt 0.562988 0.844238
vt 0.587207 0.844238
vt 0.584785 0.856990
vt 0.565410 0.856990
vt 0.589629 0.844238
vt 0.585633 0.856587
vt 0.566984 0.856587
vt 0.582363 0.844238
vt 0.582363 0.862887
vt 0.562988 0.862887
vt 0.587207 0.870879
vt 0.562988 0.870879
vt 0.565511 0.844238
vt 0.565511 0.874512
vt 0.562988 0.874512
vt 0.568034 0.844238
vt 0.568034 0.874512
vt 0.570557 0.844238
vt 0.570557 0.874512
vt 0.573079 0.844238
vt 0.573079 0.874512
vt 0.575602 0.844238
vt 0.575602 0.874512
vt 0.578125 0.844238
vt 0.578125 0.874512
vt 0.580648 0.844238
vt 0.580648 0.874512
vt 0.583171 0.844238
vt 0.583171 0.874512
vt 0.585693 0.844238
vt 0.585693 0.874512
vt 0.588216 0.844238
vt 0.588216 0.874512
vt 0.590739 0.844238
vt 0.590739 0.874512
vt 0.593262 0.844238
vt 0.593262 0.874512
vt 0.687012 0.804688
vt 0.686030 0.808350
vt 0.683350 0.811030
vt 0.679688 0.812012
vt 0.676025 0.811030
vt 0.673345 0.808350
vt 0.672363 0.804688
vt 0.673345 0.801025
vt 0.676025 0.798345
vt 0.679688 0.797363
vt 0.683350 0.798345
vt 0.686030 0.801025
vt 0.591234 0.866943
vt 0.585693 0.872484
vt 0.570557 0.872484
vt 0.565016 0.866943
vt 0.562988 0.859375
vt 0.565016 0.851807
vt 0.570557 0.846266
vt 0.585693 0.846266
vt 0.591234 0.851807
vt 0.593262 0.859375
vt 0.573079 0.859375
vt 0.583171 0.859375
s 0
usemtl props
f 4/1/1 1/2/1 7/3/1 5/4/1
f 2/1/2 8/2/2 6/3/2 3/4/2
f 8/1/3 4/5/3 5/6/3 6/7/3
f 1/1/4 2/5/4 3/6/4 7/7/4
f 5/1/5 7/8/5 3/9/5 6/10/5
f 8/1/6 2/2/6 1/11/6 4/12/6
s 1
f 23/1/7 10/13/8 9/14/8 24/15/7
f 10/13/8 32/16/9 11/17/9 9/14/8
f 32/16/9 12/18/10 13/19/10 11/17/9
f 12/18/10 14/20/11 25/21/11 13/19/10
f 14/20/11 15/22/12 16/23/12 25/21/11
f 15/22/12 31/24/13 18/25/13 16/23/12
f 31/24/13 17/26/14 26/27/14 18/25/13
f 17/26/14 19/28/15 27/29/15 26/27/14
f 19/28/15 20/30/16 21/31/16 27/29/15
f 20/30/16 30/32/17 22/33/17 21/31/16
f 30/32/17 29/34/18 28/35/18 22/33/17
f 29/34/18 23/36/7 24/37/7 28/35/18
s 0
f 24/38/19 9/39/19 11/40/19 13/41/19 25/42/19 16/43/19 18/44/19 26/45/19 27/46/19 21/47/19 22/48/19 28/49/19
f 29/50/20 30/51/20 20/25/20 19/52/20 17/53/20 31/54/20 15/55/20 14/56/20 12/24/20 32/57/20 10/58/20 23/59/20
s 1
f 33/1/21 41/20/21 36/60/22 39/54/23
f 41/20/24 34/28/24 38/61/25 36/60/25
f 34/28/26 33/36/26 39/59/27 38/61/28
f 39/54/23 36/60/22 37/21/29 35/15/29
f 36/60/25 38/61/25 40/29/30 37/21/30
f 38/61/28 39/59/27 35/37/31 40/29/31
s 0
f 34/15/32 41/1/32 33/59/32
f 35/54/33 37/36/33 40/37/33
o phone_handset
v -0.060000 0.120000 -0.010000 0.8784 0.8784 0.8784
v -0.107746 0.124508 -0.040000 0.6667 0.6667 0.6667
v -0.062148 0.102813 -0.040000 0.7216 0.7216 0.7216
v -0.062148 0.102813 -0.020000 0.7137 0.7137 0.7137
v -0.100000 0.140000 -0.050000 0.6667 0.6667 0.6667
v -0.092254 0.155492 -0.040000 0.9529 0.9529 0.9529
v -0.060000 0.120000 -0.050000 0.9137 0.9137 0.9137
v -0.057852 0.137187 -0.020000 0.9568 0.9568 0.9568
v 0.062148 0.102813 -0.040000 0.7176 0.7176 0.7176
v -0.057852 0.137187 -0.040000 0.9725 0.9725 0.9725
v 0.060000 0.120000 -0.050000 0.9176 0.9176 0.9176
v 0.057852 0.137187 -0.020000 0.9568 0.9568 0.9568
v 0.062148 0.102813 -0.020000 0.7176 0.7176 0.7176
v 0.107746 0.124508 -0.020000 0.6667 0.6667 0.6667
v 0.100000 0.140000 -0.010000 0.6667 0.6667 0.6667
v 0.057852 0.137187 -0.040000 0.9804 0.9804 0.9804
v 0.060000 0.120000 -0.010000 0.8745 0.8745 0.8745
v -0.092254 0.155492 -0.020000 0.9490 0.9490 0.9490
v -0.107746 0.124508 -0.020000 0.6667 0.6667 0.6667
v -0.100000 0.140000 -0.010000 0.6667 0.6667 0.6667
v 0.107746 0.124508 -0.040000 0.6667 0.6667 0.6667
v 0.100000 0.140000 -0.050000 0.6667 0.6667 0.6667
v 0.092254 0.155492 -0.040000 0.9529 0.9529 0.9529
v 0.092254 0.155492 -0.020000 0.9529 0.9529 0.9529
v -0.077373 0.120000 -0.052627 0.8431 0.8431 0.8431
v -0.077373 0.150000 -0.052627 0.9607 0.9607 0.9607
v -0.100000 0.150000 -0.062000 0.9843 0.9843 0.9843
v -0.100000 0.120000 -0.062000 0.8941 0.8941 0.8941
v -0.122627 0.150000 -0.052627 0.9882 0.9882 0.9882
v -0.122627 0.120000 -0.052627 0.8980 0.8980 0.8980
v -0.132000 0.120000 -0.030000 0.8980 0.8980 0.8980
v -0.132000 0.150000 -0.030000 0.9882 0.9882 0.9882
v -0.122627 0.120000 -0.007373 0.8862 0.8862 0.8862
v -0.122627 0.150000 -0.007373 0.9804 0.9804 0.9804
v -0.100000 0.120000 0.002000 0.8666 0.8666 0.8666
v -0.100000 0.150000 0.002000 0.9607 0.9607 0.9607
v -0.077373 0.150000 -0.007373 0.9333 0.9333 0.9333
v -0.077373 0.120000 -0.007373 0.8157 0.8157 0.8157
v -0.068000 0.120000 -0.030000 0.6667 0.6667 0.6667
v -0.068000 0.150000 -0.030000 0.9294 0.9294 0.9294
v 0.122627 0.120000 -0.052627 0.8941 0.8941 0.8941
v 0.122627 0.150000 -0.052627 0.9843 0.9843 0.9843
v 0.077373 0.120000 -0.052627 0.8470 0.8470 0.8470
v 0.068000 0.120000 -0.030000 0.6667 0.6667 0.6667
v 0.077373 0.150000 -0.052627 0.9647 0.9647 0.9647
v 0.077373 0.120000 -0.007373 0.8157 0.8157 0.8157
v 0.077373 0.150000 -0.007373 0.9294 0.9294 0.9294
v 0.100000 0.120000 0.002000 0.8666 0.8666 0.8666
v 0.122627 0.150000 -0.007373 0.9843 0.9843 0.9843
v 0.122627 0.120000 -0.007373 0.8862 0.8862 0.8862
v 0.132000 0.120000 -0.030000 0.8902 0.8902 0.8902
v 0.132000 0.150000 -0.030000 0.9882 0.9882 0.9882
v 0.100000 0.150000 -0.062000 0.9843 0.9843 0.9843
v 0.068000 0.150000 -0.030000 0.9333 0.9333 0.9333
v 0.100000 0.150000 0.002000 0.9647 0.9647 0.9647
v 0.100000 0.120000 -0.062000 0.8902 0.8902 0.8902
vn -0.2234 -0.4587 0.8600
vn -0.1056 -0.4853 0.8679
vn -0.1183 -0.4828 0.8677
vn -0.4296 -0.9030 -0.0000
vn -0.2202 -0.9754 -0.0000
vn -0.2234 -0.4587 -0.8600
vn -0.1183 -0.4828 -0.8677
vn -0.1056 -0.4853 -0.8679
vn 0.2342 0.4549 -0.8592
vn 0.1248 0.4810 -0.8678
vn 0.1100 0.4840 -0.8681
vn 0.4697 0.8828 -0.0000
vn 0.2421 0.9703 -0.0000
vn 0.2342 0.4549 0.8592
vn 0.1100 0.4840 0.8681
vn 0.1248 0.4810 0.8678
vn 0.1056 -0.4853 0.8679
vn 0.1183 -0.4828 0.8677
vn 0.2202 -0.9754 -0.0000
vn 0.1183 -0.4828 -0.8677
vn 0.1056 -0.4853 -0.8679
vn -0.1248 0.4810 -0.8678
vn -0.1100 0.4840 -0.8681
vn -0.2421 0.9703 -0.0000
vn -0.1100 0.4840 0.8681
vn -0.1248 0.4810 0.8678
vn 0.2234 -0.4587 0.8600
vn 0.4296 -0.9030 -0.0000
vn 0.2234 -0.4587 -0.8600
vn -0.2342 0.4549 -0.8592
vn -0.4697 0.8828 -0.0000
vn -0.2342 0.4549 0.8592
vn -0.8944 0.4472 -0.0000
vn 0.8944 0.4472 -0.0000
vn 1.0000 -0.0000 -0.0000
vn 0.7071 -0.0000 -0.7071
vn -0.0000 -0.0000 -1.0000
vn -0.7071 -0.0000 -0.7071
vn -1.0000 -0.0000 -0.0000
vn -0.7071 -0.0000 0.7071
vn -0.0000 -0.0000 1.0000
vn 0.7071 -0.0000 0.7071
vn -0.0000 1.0000 -0.0000
vn -0.0000 -1.0000 -0.0000
vt 0.562988 0.844238
vt 0.568034 0.844238
vt 0.568034 0.854329
vt 0.562988 0.854329
vt 0.573079 0.844238
vt 0.573079 0.854329
vt 0.578125 0.844238
vt 0.578125 0.854329
vt 0.583171 0.844238
vt 0.583171 0.854329
vt 0.588216 0.844238
vt 0.588216 0.854329
vt 0.593262 0.844238
vt 0.593262 0.854329
vt 0.568034 0.864421
vt 0.562988 0.864421
vt 0.573079 0.864421
vt 0.578125 0.864421
vt 0.583171 0.864421
vt 0.588216 0.864421
vt 0.593262 0.864421
vt 0.568034 0.874512
vt 0.562988 0.874512
vt 0.573079 0.874512
vt 0.578125 0.874512
vt 0.583171 0.874512
vt 0.588216 0.874512
vt 0.593262 0.874512
vt 0.585693 0.874512
vt 0.570557 0.874512
vt 0.562988 0.859375
vt 0.570557 0.844238
vt 0.585693 0.844238
vt 0.593262 0.859375
vt 0.566772 0.844238
vt 0.566772 0.874512
vt 0.574341 0.844238
vt 0.574341 0.874512
vt 0.581909 0.844238
vt 0.581909 0.874512
vt 0.589478 0.844238
vt 0.589478 0.874512
vt 0.588828 0.870078
vt 0.567422 0.870078
vt 0.567422 0.848672
vt 0.588828 0.848672
s 1
usemtl props
f 61/62/34 60/63/34 45/64/35 42/65/36
f 60/63/37 43/66/37 44/67/38 45/64/38
f 43/66/39 46/68/39 48/69/40 44/67/41
f 46/68/42 47/70/42 51/71/43 48/69/44
f 47/70/45 59/72/45 49/73/46 51/71/46
f 59/72/47 61/74/47 42/75/48 49/73/49
f 42/65/36 45/64/35 54/76/50 58/77/51
f 45/64/38 44/67/38 50/78/52 54/76/52
f 44/67/41 48/69/40 52/79/53 50/78/54
f 48/69/44 51/71/43 57/80/55 52/79/56
f 51/71/46 49/73/46 53/81/57 57/80/57
f 49/73/49 42/75/48 58/82/58 53/81/59
f 58/77/51 54/76/50 55/83/60 56/84/60
f 54/76/52 50/78/52 62/85/61 55/83/61
f 50/78/54 52/79/53 63/86/62 62/85/62
f 52/79/56 57/80/55 64/87/63 63/86/63
f 57/80/57 53/81/57 65/88/64 64/87/64
f 53/81/59 58/82/58 56/89/65 65/88/65
s 0
f 59/90/66 47/91/66 46/92/66 43/93/66 60/94/66 61/95/66
f 56/92/67 55/93/67 62/94/67 63/95/67 64/90/67 65/91/67
s 1
f 80/62/68 66/96/69 67/97/69 81/84/68
f 66/96/69 69/93/70 68/91/70 67/97/69
f 69/93/70 71/98/71 70/99/71 68/91/70
f 71/98/71 72/68/72 73/86/72 70/99/71
f 72/68/72 74/100/73 75/101/73 73/86/72
f 74/100/73 76/94/74 77/90/74 75/101/73
f 76/94/74 79/102/75 78/103/75 77/90/74
f 79/102/75 80/74/68 81/89/68 78/103/75
s 0
f 81/95/76 67/104/76 68/86/76 70/105/76 73/92/76 75/106/76 77/68/76 78/107/76
f 79/104/77 76/86/77 74/105/77 72/92/77 71/106/77 69/68/77 66/107/77 80/95/77
s 1
f 92/62/68 82/96/69 83/97/69 93/84/68
f 82/96/69 97/93/70 94/91/70 83/97/69
f 97/93/70 84/98/71 86/99/71 94/91/70
f 84/98/71 85/68/72 95/86/72 86/99/71
f 85/68/72 87/100/73 88/101/73 95/86/72
f 87/100/73 89/94/74 96/90/74 88/101/73
f 89/94/74 91/102/75 90/103/75 96/90/74
f 91/102/75 92/74/68 93/89/68 90/103/75
s 0
f 93/95/76 83/104/76 94/86/76 86/105/76 95/92/76 88/106/76 96/68/76 90/107/76
f 91/104/77 89/86/77 87/105/77 85/92/77 84/106/77 97/68/77 82/107/77 92/95/77
