# Blender 4.5.14 LTS
# www.blender.org
mtllib picture_landscape.mtl
o picture_landscape
v -0.300000 1.275000 0.006000 0.8000 0.8000 0.8000
v 0.300000 1.275000 0.006000 0.8000 0.8000 0.8000
v 0.300000 1.725000 0.006000 0.8117 0.8117 0.8117
v -0.300000 1.725000 0.006000 0.8039 0.8039 0.8039
v -0.300000 1.760000 0.000000 0.7176 0.7176 0.7176
v -0.335000 1.240000 0.000000 0.7764 0.7764 0.7764
v -0.335000 1.240000 0.025000 0.8980 0.8980 0.8980
v -0.335000 1.760000 0.000000 0.7725 0.7725 0.7725
v -0.335000 1.760000 0.025000 0.8980 0.8980 0.8980
v 0.335000 1.240000 0.025000 0.8941 0.8941 0.8941
v 0.300000 1.760000 0.000000 0.7176 0.7176 0.7176
v 0.335000 1.240000 0.000000 0.7725 0.7725 0.7725
v 0.335000 1.760000 0.000000 0.7686 0.7686 0.7686
v 0.335000 1.760000 0.025000 0.8941 0.8941 0.8941
v -0.300000 1.240000 0.025000 0.8353 0.8353 0.8353
v 0.300000 1.275000 0.000000 0.6667 0.6667 0.6667
v -0.300000 1.275000 0.000000 0.6667 0.6667 0.6667
v 0.300000 1.240000 0.000000 0.7216 0.7216 0.7216
v 0.300000 1.275000 0.025000 0.8313 0.8313 0.8313
v -0.300000 1.275000 0.025000 0.8353 0.8353 0.8353
v -0.300000 1.240000 0.000000 0.7216 0.7216 0.7216
v 0.300000 1.240000 0.025000 0.8353 0.8353 0.8353
v -0.300000 1.760000 0.025000 0.8353 0.8353 0.8353
v -0.300000 1.725000 0.000000 0.6667 0.6667 0.6667
v -0.300000 1.725000 0.025000 0.8313 0.8313 0.8313
v 0.300000 1.725000 0.000000 0.6667 0.6667 0.6667
v 0.300000 1.760000 0.025000 0.8353 0.8353 0.8353
v 0.300000 1.725000 0.025000 0.8353 0.8353 0.8353
vn -0.0000 -0.0000 1.0000
vn -0.0000 -0.0000 -1.0000
vn -1.0000 -0.0000 -0.0000
vn 1.0000 -0.0000 -0.0000
vn -0.0000 1.0000 -0.0000
vn -0.0000 -1.0000 -0.0000
vt 0.531738 0.789551
vt 0.562012 0.789551
vt 0.562012 0.812012
vt 0.531738 0.812012
vt 0.125488 0.812988
vt 0.129629 0.812988
vt 0.129629 0.874512
vt 0.125488 0.874512
vt 0.128446 0.812988
vt 0.128446 0.874512
vt 0.129795 0.812988
vt 0.129795 0.816064
vt 0.125488 0.816064
vt 0.187012 0.812988
vt 0.187012 0.816577
vt 0.125488 0.816577
vt 0.128564 0.812988
vt 0.128564 0.817295
vt 0.125488 0.817295
vt 0.187012 0.815552
vt 0.125488 0.815552
s 0
usemtl props
f 1/1/1 2/2/1 3/3/1 4/4/1
f 7/5/1 15/6/1 23/7/1 9/8/1
f 21/5/2 6/6/2 8/7/2 5/8/2
f 6/5/3 7/9/3 9/10/3 8/8/3
f 15/5/4 21/9/4 5/10/4 23/8/4
f 9/5/5 23/11/5 5/12/5 8/13/5
f 6/5/6 21/11/6 15/12/6 7/13/6
f 22/5/1 10/6/1 14/7/1 27/8/1
f 12/5/2 18/6/2 11/7/2 13/8/2
f 18/5/3 22/9/3 27/10/3 11/8/3
f 10/5/4 12/9/4 13/10/4 14/8/4
f 27/5/5 14/11/5 13/12/5 11/13/5
f 18/5/6 12/11/6 10/12/6 22/13/6
f 15/5/1 22/14/1 19/15/1 20/16/1
f 18/5/2 21/14/2 17/15/2 16/16/2
f 21/5/3 15/17/3 20/18/3 17/19/3
f 22/5/4 18/17/4 16/18/4 19/19/4
f 20/5/5 19/14/5 16/20/5 17/21/5
f 21/5/6 18/14/6 22/20/6 15/21/6
f 25/5/1 28/14/1 27/15/1 23/16/1
f 26/5/2 24/14/2 5/15/2 11/16/2
f 24/5/3 25/17/3 23/18/3 5/19/3
f 28/5/4 26/17/4 11/18/4 27/19/4
f 23/5/5 27/14/5 11/20/5 5/21/5
f 24/5/6 26/14/6 28/20/6 25/21/6
