# Blender 4.5.14 LTS
# www.blender.org
mtllib plate.mtl
o plate
v 0.036000 0.000000 -0.062354 0.6706 0.6706 0.6706
v 0.000000 0.000000 -0.072000 0.6706 0.6706 0.6706
v 0.000000 0.000000 0.000000 0.6667 0.6667 0.6667
v 0.036000 0.000000 0.062354 0.6706 0.6706 0.6706
v -0.000000 0.000000 0.072000 0.6706 0.6706 0.6706
v 0.072000 0.000000 0.000000 0.6667 0.6667 0.6667
v 0.103923 0.018000 -0.060000 0.8431 0.8431 0.8431
v 0.062354 0.000000 -0.036000 0.6706 0.6706 0.6706
v 0.060000 0.018000 -0.103923 0.8470 0.8470 0.8470
v -0.036000 0.000000 -0.062354 0.6706 0.6706 0.6706
v -0.062354 0.000000 -0.036000 0.6745 0.6745 0.6745
v -0.072000 0.000000 -0.000000 0.6706 0.6706 0.6706
v -0.062354 0.000000 0.036000 0.6706 0.6706 0.6706
v -0.103923 0.018000 0.060000 0.8470 0.8470 0.8470
v -0.036000 0.000000 0.062354 0.6706 0.6706 0.6706
v -0.060000 0.018000 0.103923 0.8470 0.8470 0.8470
v 0.062354 0.000000 0.036000 0.6667 0.6667 0.6667
v 0.103923 0.018000 0.060000 0.8470 0.8470 0.8470
v 0.060000 0.018000 0.103923 0.8470 0.8470 0.8470
v 0.120000 0.018000 0.000000 0.8431 0.8431 0.8431
v 0.055000 0.020000 -0.095263 0.9960 0.9960 0.9960
v 0.000000 0.018000 -0.120000 0.8470 0.8470 0.8470
v -0.060000 0.018000 -0.103923 0.8470 0.8470 0.8470
v -0.103923 0.018000 -0.060000 0.8470 0.8470 0.8470
v -0.110000 0.020000 -0.000000 0.9960 0.9960 0.9960
v -0.095263 0.020000 -0.055000 0.9960 0.9960 0.9960
v -0.120000 0.018000 -0.000000 0.8470 0.8470 0.8470
v -0.095263 0.020000 0.055000 0.9960 0.9960 0.9960
v -0.000000 0.018000 0.120000 0.8470 0.8470 0.8470
v -0.000000 0.020000 0.110000 0.9921 0.9921 0.9921
v 0.055000 0.020000 0.095263 0.9960 0.9960 0.9960
v 0.062354 0.006000 -0.036000 0.9843 0.9843 0.9843
v 0.095263 0.020000 -0.055000 0.9960 0.9960 0.9960
v 0.000000 0.020000 -0.110000 0.9960 0.9960 0.9960
v -0.055000 0.020000 -0.095263 0.9960 0.9960 0.9960
v -0.062354 0.006000 -0.036000 0.9804 0.9804 0.9804
v -0.062354 0.006000 0.036000 0.9764 0.9764 0.9764
v -0.055000 0.020000 0.095263 0.9960 0.9960 0.9960
v -0.000000 0.006000 0.072000 0.9804 0.9804 0.9804
v 0.036000 0.006000 0.062354 0.9804 0.9804 0.9804
v 0.095263 0.020000 0.055000 0.9960 0.9960 0.9960
v 0.110000 0.020000 0.000000 0.9960 0.9960 0.9960
v 0.062354 0.006000 0.036000 0.9764 0.9764 0.9764
v 0.000000 0.006000 0.000000 0.9921 0.9921 0.9921
v 0.036000 0.006000 -0.062354 0.9764 0.9764 0.9764
v 0.000000 0.006000 -0.072000 0.9804 0.9804 0.9804
v -0.036000 0.006000 -0.062354 0.9764 0.9764 0.9764
v -0.072000 0.006000 -0.000000 0.9804 0.9804 0.9804
v -0.036000 0.006000 0.062354 0.9804 0.9804 0.9804
v 0.072000 0.006000 0.000000 0.9764 0.9764 0.9764
vn -0.0000 -1.0000 -0.0000
vn 0.1792 -0.9784 -0.1034
vn 0.2069 -0.9784 -0.0000
vn 0.1034 -0.9784 -0.1792
vn -0.0000 -0.9784 -0.2069
vn -0.1034 -0.9784 -0.1792
vn -0.1792 -0.9784 -0.1034
vn -0.2069 -0.9784 -0.0000
vn -0.1792 -0.9784 0.1034
vn -0.1034 -0.9784 0.1792
vn -0.0000 -0.9784 0.2069
vn 0.1034 -0.9784 0.1792
vn 0.1792 -0.9784 0.1034
vn 0.3041 -0.9363 -0.1756
vn 0.3511 -0.9363 -0.0000
vn 0.1756 -0.9363 -0.3041
vn -0.0000 -0.9363 -0.3511
vn -0.1756 -0.9363 -0.3041
vn -0.3041 -0.9363 -0.1756
vn -0.3511 -0.9363 -0.0000
vn -0.3041 -0.9363 0.1756
vn -0.1756 -0.9363 0.3041
vn -0.0000 -0.9363 0.3511
vn 0.1756 -0.9363 0.3041
vn 0.3041 -0.9363 0.1756
vn 0.1961 0.9806 -0.0000
vn 0.1698 0.9806 -0.0981
vn -0.0281 0.9995 0.0162
vn -0.0325 0.9995 -0.0000
vn 0.0981 0.9806 -0.1698
vn -0.0162 0.9995 0.0281
vn -0.0000 0.9806 -0.1961
vn -0.0000 0.9995 0.0325
vn -0.0981 0.9806 -0.1698
vn 0.0162 0.9995 0.0281
vn -0.1698 0.9806 -0.0981
vn 0.0281 0.9995 0.0162
vn -0.1961 0.9806 -0.0000
vn 0.0325 0.9995 -0.0000
vn -0.1698 0.9806 0.0981
vn 0.0281 0.9995 -0.0162
vn -0.0981 0.9806 0.1698
vn 0.0162 0.9995 -0.0281
vn -0.0000 0.9806 0.1961
vn -0.0000 0.9995 -0.0325
vn 0.0981 0.9806 0.1698
vn -0.0162 0.9995 -0.0281
vn 0.1698 0.9806 0.0981
vn -0.0281 0.9995 -0.0162
vn -0.1763 0.9790 0.1018
vn -0.2036 0.9790 -0.0000
vn -0.1018 0.9790 0.1763
vn -0.0000 0.9790 0.2036
vn 0.1018 0.9790 0.1763
vn 0.1763 0.9790 0.1018
vn 0.2036 0.9790 -0.0000
vn 0.1763 0.9790 -0.1018
vn 0.1018 0.9790 -0.1763
vn -0.0000 0.9790 -0.2036
vn -0.1018 0.9790 -0.1763
vn -0.1763 0.9790 -0.1018
vn -0.0000 1.0000 -0.0000
vt 0.345500 0.781738
vt 0.346761 0.790600
vt 0.344238 0.790600
vt 0.348022 0.781738
vt 0.349284 0.790600
vt 0.350545 0.781738
vt 0.351807 0.790600
vt 0.353068 0.781738
vt 0.354329 0.790600
vt 0.355591 0.781738
vt 0.356852 0.790600
vt 0.358114 0.781738
vt 0.359375 0.790600
vt 0.360636 0.781738
vt 0.361898 0.790600
vt 0.363159 0.781738
vt 0.364421 0.790600
vt 0.365682 0.781738
vt 0.366943 0.790600
vt 0.368205 0.781738
vt 0.369466 0.790600
vt 0.370728 0.781738
vt 0.371989 0.790600
vt 0.373250 0.781738
vt 0.374512 0.790600
vt 0.346761 0.796910
vt 0.344238 0.796910
vt 0.349284 0.796910
vt 0.351807 0.796910
vt 0.354329 0.796910
vt 0.356852 0.796910
vt 0.359375 0.796910
vt 0.361898 0.796910
vt 0.364421 0.796910
vt 0.366943 0.796910
vt 0.369466 0.796910
vt 0.371989 0.796910
vt 0.374512 0.796910
vt 0.346761 0.798165
vt 0.344238 0.798165
vt 0.349284 0.798165
vt 0.351807 0.798165
vt 0.354329 0.798165
vt 0.356852 0.798165
vt 0.359375 0.798165
vt 0.361898 0.798165
vt 0.364421 0.798165
vt 0.366943 0.798165
vt 0.369466 0.798165
vt 0.371989 0.798165
vt 0.374512 0.798165
vt 0.346761 0.803150
vt 0.344238 0.803150
vt 0.349284 0.803150
vt 0.351807 0.803150
vt 0.354329 0.803150
vt 0.356852 0.803150
vt 0.359375 0.803150
vt 0.361898 0.803150
vt 0.364421 0.803150
vt 0.366943 0.803150
vt 0.369466 0.803150
vt 0.371989 0.803150
vt 0.374512 0.803150
vt 0.345500 0.812012
vt 0.348022 0.812012
vt 0.350545 0.812012
vt 0.353068 0.812012
vt 0.355591 0.812012
vt 0.358114 0.812012
vt 0.360636 0.812012
vt 0.363159 0.812012
vt 0.365682 0.812012
vt 0.368205 0.812012
vt 0.370728 0.812012
vt 0.373250 0.812012
s 1
usemtl props
f 3/1/1 8/2/2 6/3/3
f 3/4/1 1/5/4 8/2/2
f 3/6/1 2/7/5 1/5/4
f 3/8/1 10/9/6 2/7/5
f 3/10/1 11/11/7 10/9/6
f 3/12/1 12/13/8 11/11/7
f 3/14/1 13/15/9 12/13/8
f 3/16/1 15/17/10 13/15/9
f 3/18/1 5/19/11 15/17/10
f 3/20/1 4/21/12 5/19/11
f 3/22/1 17/23/13 4/21/12
f 3/24/1 6/25/3 17/23/13
f 6/3/3 8/2/2 7/26/14 20/27/15
f 8/2/2 1/5/4 9/28/16 7/26/14
f 1/5/4 2/7/5 22/29/17 9/28/16
f 2/7/5 10/9/6 23/30/18 22/29/17
f 10/9/6 11/11/7 24/31/19 23/30/18
f 11/11/7 12/13/8 27/32/20 24/31/19
f 12/13/8 13/15/9 14/33/21 27/32/20
f 13/15/9 15/17/10 16/34/22 14/33/21
f 15/17/10 5/19/11 29/35/23 16/34/22
f 5/19/11 4/21/12 19/36/24 29/35/23
f 4/21/12 17/23/13 18/37/25 19/36/24
f 17/23/13 6/25/3 20/38/15 18/37/25
f 20/27/26 7/26/27 33/39/28 42/40/29
f 7/26/27 9/28/30 21/41/31 33/39/28
f 9/28/30 22/29/32 34/42/33 21/41/31
f 22/29/32 23/30/34 35/43/35 34/42/33
f 23/30/34 24/31/36 26/44/37 35/43/35
f 24/31/36 27/32/38 25/45/39 26/44/37
f 27/32/38 14/33/40 28/46/41 25/45/39
f 14/33/40 16/34/42 38/47/43 28/46/41
f 16/34/42 29/35/44 30/48/45 38/47/43
f 29/35/44 19/36/46 31/49/47 30/48/45
f 19/36/46 18/37/48 41/50/49 31/49/47
f 18/37/48 20/38/26 42/51/29 41/50/49
f 42/40/29 33/39/28 32/52/50 50/53/51
f 33/39/28 21/41/31 45/54/52 32/52/50
f 21/41/31 34/42/33 46/55/53 45/54/52
f 34/42/33 35/43/35 47/56/54 46/55/53
f 35/43/35 26/44/37 36/57/55 47/56/54
f 26/44/37 25/45/39 48/58/56 36/57/55
f 25/45/39 28/46/41 37/59/57 48/58/56
f 28/46/41 38/47/43 49/60/58 37/59/57
f 38/47/43 30/48/45 39/61/59 49/60/58
f 30/48/45 31/49/47 40/62/60 39/61/59
f 31/49/47 41/50/49 43/63/61 40/62/60
f 41/50/49 42/51/29 50/64/51 43/63/61
f 50/53/51 32/52/50 44/65/62
f 32/52/50 45/54/52 44/66/62
f 45/54/52 46/55/53 44/67/62
f 46/55/53 47/56/54 44/68/62
f 47/56/54 36/57/55 44/69/62
f 36/57/55 48/58/56 44/70/62
f 48/58/56 37/59/57 44/71/62
f 37/59/57 49/60/58 44/72/62
f 49/60/58 39/61/59 44/73/62
f 39/61/59 40/62/60 44/74/62
f 40/62/60 43/63/61 44/75/62
f 43/63/61 50/64/51 44/76/62
