# Blender 4.5.14 LTS
# www.blender.org
mtllib rug_braided.mtl
o rug_braided
v 0.739104 0.012000 -0.210476 0.8941 0.8941 0.8941
v 0.000000 0.000000 -0.550000 0.7764 0.7764 0.7764
v -0.306147 0.012000 -0.508134 0.8902 0.8902 0.8902
v 0.000000 0.012000 -0.550000 0.8902 0.8902 0.8902
v -0.739104 0.000000 -0.210476 0.7686 0.7686 0.7686
v -0.800000 0.012000 -0.000000 0.8823 0.8823 0.8823
v -0.739104 0.012000 -0.210476 0.8823 0.8823 0.8823
v -0.739104 0.000000 0.210476 0.7686 0.7686 0.7686
v -0.739104 0.012000 0.210476 0.8823 0.8823 0.8823
v -0.565685 0.000000 0.388909 0.7686 0.7686 0.7686
v -0.306147 0.012000 0.508134 0.8862 0.8862 0.8862
v -0.000000 0.012000 0.550000 0.8862 0.8862 0.8862
v 0.306147 0.000000 0.508134 0.7725 0.7725 0.7725
v 0.565685 0.000000 0.388909 0.7725 0.7725 0.7725
v 0.306147 0.012000 0.508134 0.8862 0.8862 0.8862
v 0.739104 0.000000 0.210476 0.7764 0.7764 0.7764
v 0.565685 0.012000 0.388909 0.8902 0.8902 0.8902
v 0.800000 0.000000 0.000000 0.7764 0.7764 0.7764
v 0.800000 0.012000 0.000000 0.8902 0.8902 0.8902
v 0.565685 0.012000 -0.388909 0.8902 0.8902 0.8902
v 0.306147 0.012000 -0.508134 0.8902 0.8902 0.8902
v -0.565685 0.012000 -0.388909 0.8862 0.8862 0.8862
v -0.565685 0.012000 0.388909 0.8862 0.8862 0.8862
v 0.739104 0.012000 0.210476 0.8941 0.8941 0.8941
v -0.000000 0.000000 0.550000 0.7764 0.7764 0.7764
v -0.306147 0.000000 0.508134 0.7725 0.7725 0.7725
v -0.800000 0.000000 -0.000000 0.7686 0.7686 0.7686
v -0.565685 0.000000 -0.388909 0.7725 0.7725 0.7725
v -0.306147 0.000000 -0.508134 0.7764 0.7764 0.7764
v 0.306147 0.000000 -0.508134 0.7764 0.7764 0.7764
v 0.565685 0.000000 -0.388909 0.7764 0.7764 0.7764
v 0.739104 0.000000 -0.210476 0.7764 0.7764 0.7764
vn 1.0000 -0.0000 -0.0000
vn 0.8646 -0.0000 -0.5024
vn 0.5771 -0.0000 -0.8167
vn 0.2795 -0.0000 -0.9601
vn -0.0000 -0.0000 -1.0000
vn -0.2795 -0.0000 -0.9601
vn -0.5771 -0.0000 -0.8167
vn -0.8646 -0.0000 -0.5024
vn -1.0000 -0.0000 -0.0000
vn -0.8646 -0.0000 0.5024
vn -0.5771 -0.0000 0.8167
vn -0.2795 -0.0000 0.9601
vn -0.0000 -0.0000 1.0000
vn 0.2795 -0.0000 0.9601
vn 0.5771 -0.0000 0.8167
vn 0.8646 -0.0000 0.5024
vn -0.0000 1.0000 -0.0000
vn -0.0000 -1.0000 -0.0000
vt 0.875488 0.937988
vt 0.879333 0.937988
vt 0.879333 0.999512
vt 0.875488 0.999512
vt 0.883179 0.937988
vt 0.883179 0.999512
vt 0.887024 0.937988
vt 0.887024 0.999512
vt 0.890869 0.937988
vt 0.890869 0.999512
vt 0.894714 0.937988
vt 0.894714 0.999512
vt 0.898560 0.937988
vt 0.898560 0.999512
vt 0.902405 0.937988
vt 0.902405 0.999512
vt 0.906250 0.937988
vt 0.906250 0.999512
vt 0.910095 0.937988
vt 0.910095 0.999512
vt 0.913940 0.937988
vt 0.913940 0.999512
vt 0.917786 0.937988
vt 0.917786 0.999512
vt 0.921631 0.937988
vt 0.921631 0.999512
vt 0.925476 0.937988
vt 0.925476 0.999512
vt 0.929321 0.937988
vt 0.929321 0.999512
vt 0.933167 0.937988
vt 0.933167 0.999512
vt 0.937012 0.937988
vt 0.937012 0.999512
vt 0.937012 0.968750
vt 0.934670 0.980522
vt 0.928002 0.990502
vt 0.918022 0.997170
vt 0.894478 0.997170
vt 0.884498 0.990502
vt 0.877830 0.980522
vt 0.875488 0.968750
vt 0.877830 0.956978
vt 0.884498 0.946998
vt 0.894478 0.940330
vt 0.918022 0.940330
vt 0.928002 0.946998
vt 0.934670 0.956978
s 1
usemtl props
f 18/1/1 32/2/2 1/3/2 19/4/1
f 32/2/2 31/5/3 20/6/3 1/3/2
f 31/5/3 30/7/4 21/8/4 20/6/3
f 30/7/4 2/9/5 4/10/5 21/8/4
f 2/9/5 29/11/6 3/12/6 4/10/5
f 29/11/6 28/13/7 22/14/7 3/12/6
f 28/13/7 5/15/8 7/16/8 22/14/7
f 5/15/8 27/17/9 6/18/9 7/16/8
f 27/17/9 8/19/10 9/20/10 6/18/9
f 8/19/10 10/21/11 23/22/11 9/20/10
f 10/21/11 26/23/12 11/24/12 23/22/11
f 26/23/12 25/25/13 12/26/13 11/24/12
f 25/25/13 13/27/14 15/28/14 12/26/13
f 13/27/14 14/29/15 17/30/15 15/28/14
f 14/29/15 16/31/16 24/32/16 17/30/15
f 16/31/16 18/33/1 19/34/1 24/32/16
s 0
f 19/35/17 1/36/17 20/37/17 21/38/17 4/18/17 3/39/17 22/40/17 7/41/17 6/42/17 9/43/17 23/44/17 11/45/17 12/17/17 15/46/17 17/47/17 24/48/17
f 16/36/18 14/37/18 13/38/18 25/18/18 26/39/18 10/40/18 8/41/18 27/42/18 5/43/18 28/44/18 29/45/18 2/17/18 30/46/18 31/47/18 32/48/18 18/35/18
