# Blender 4.5.14 LTS
# www.blender.org
mtllib sink_unit_white.mtl
o sink_unit_white
v -0.500000 0.100000 -0.290000 0.8078 0.8078 0.8078
v 0.500000 0.860000 -0.290000 0.8431 0.8431 0.8431
v 0.500000 0.100000 -0.290000 0.8078 0.8078 0.8078
v -0.500000 0.860000 -0.290000 0.8431 0.8431 0.8431
v 0.500000 0.100000 -0.270000 0.7490 0.7490 0.7490
v -0.480000 0.120000 -0.269950 0.7294 0.7294 0.7294
v 0.480000 0.120000 -0.269950 0.7333 0.7333 0.7333
v 0.480000 0.840000 -0.269950 0.7020 0.7020 0.7020
v -0.480000 0.840000 -0.269950 0.7020 0.7020 0.7020
v 0.500000 0.120000 -0.270000 0.7372 0.7372 0.7372
v -0.500000 0.100000 -0.270000 0.7529 0.7529 0.7529
v -0.500000 0.100000 0.290000 0.7960 0.7960 0.7960
v -0.500000 0.120000 -0.270000 0.7333 0.7333 0.7333
v 0.500000 0.100000 0.290000 0.7882 0.7882 0.7882
v 0.500000 0.120000 0.290000 0.7686 0.7686 0.7686
v -0.500000 0.840000 0.290000 0.8509 0.8509 0.8509
v -0.500000 0.840000 -0.270000 0.7764 0.7764 0.7764
v -0.500000 0.860000 0.290000 0.7725 0.7725 0.7725
v -0.500000 0.860000 -0.270000 0.7608 0.7608 0.7608
v 0.500000 0.840000 -0.270000 0.7725 0.7725 0.7725
v 0.500000 0.860000 -0.270000 0.7608 0.7608 0.7608
v 0.500000 0.860000 0.290000 0.7725 0.7725 0.7725
v -0.480000 0.120000 0.290000 0.6863 0.6863 0.6863
v -0.480000 0.840000 0.290000 0.6785 0.6785 0.6785
v -0.480000 0.840000 -0.270000 0.6745 0.6745 0.6745
v -0.480000 0.120000 -0.270000 0.6863 0.6863 0.6863
v -0.500000 0.120000 0.290000 0.7686 0.7686 0.7686
v 0.480000 0.840000 -0.270000 0.6745 0.6745 0.6745
v 0.480000 0.120000 -0.270000 0.6902 0.6902 0.6902
v 0.480000 0.120000 0.290000 0.6863 0.6863 0.6863
v 0.500000 0.840000 0.290000 0.8470 0.8470 0.8470
v 0.480000 0.840000 0.290000 0.6785 0.6785 0.6785
v 0.480000 0.100000 0.250000 0.6980 0.6980 0.6980
v 0.480000 0.100000 -0.290000 0.7568 0.7568 0.7568
v 0.480000 0.000000 0.250000 0.7725 0.7725 0.7725
v 0.480000 0.000000 -0.290000 0.7764 0.7764 0.7764
v -0.480000 0.100000 0.250000 0.6980 0.6980 0.6980
v -0.480000 0.100000 -0.290000 0.7568 0.7568 0.7568
v -0.480000 0.000000 -0.290000 0.7725 0.7725 0.7725
v -0.480000 0.000000 0.250000 0.7686 0.7686 0.7686
v -0.490000 0.700000 0.310000 0.9529 0.9529 0.9529
v 0.490000 0.700000 0.310000 0.9490 0.9490 0.9490
v 0.490000 0.840000 0.310000 0.9294 0.9294 0.9294
v 0.490000 0.700000 0.290000 0.7647 0.7647 0.7647
v -0.490000 0.840000 0.290000 0.7372 0.7372 0.7372
v -0.490000 0.840000 0.310000 0.9294 0.9294 0.9294
v 0.490000 0.840000 0.290000 0.7372 0.7372 0.7372
v -0.490000 0.700000 0.290000 0.7608 0.7608 0.7608
v -0.475000 0.450000 0.260000 0.6785 0.6785 0.6785
v 0.475000 0.450000 -0.260000 0.6785 0.6785 0.6785
v -0.475000 0.470000 -0.260000 0.6745 0.6745 0.6745
v -0.475000 0.450000 -0.260000 0.6785 0.6785 0.6785
v 0.475000 0.450000 0.260000 0.6785 0.6785 0.6785
v 0.475000 0.470000 -0.260000 0.6745 0.6745 0.6745
v 0.475000 0.470000 0.260000 0.6745 0.6745 0.6745
v -0.475000 0.470000 0.260000 0.6785 0.6785 0.6785
v 0.350000 0.730000 0.200000 0.6745 0.6745 0.6745
v -0.350000 0.730000 0.200000 0.6785 0.6785 0.6785
v -0.350000 0.720000 -0.200000 0.6785 0.6785 0.6785
v -0.350000 0.730000 -0.200000 0.6667 0.6667 0.6667
v 0.350000 0.730000 -0.200000 0.6667 0.6667 0.6667
v -0.350000 0.720000 0.200000 0.6980 0.6980 0.6980
v -0.340000 0.730050 0.190000 0.6667 0.6667 0.6667
v 0.340000 0.730050 0.190000 0.6706 0.6706 0.6706
v 0.340000 0.730050 -0.190000 0.6667 0.6667 0.6667
v -0.340000 0.730050 -0.190000 0.6667 0.6667 0.6667
v -0.350000 0.900000 0.190000 0.7764 0.7764 0.7764
v 0.350000 0.720000 0.190000 0.6824 0.6824 0.6824
v -0.350000 0.900000 0.200000 0.7764 0.7764 0.7764
v 0.350000 0.720000 0.200000 0.6941 0.6941 0.6941
v -0.350000 0.720000 -0.190000 0.6785 0.6785 0.6785
v 0.350000 0.720000 -0.200000 0.6745 0.6745 0.6745
v -0.350000 0.720000 0.190000 0.6824 0.6824 0.6824
v -0.340000 0.720000 0.190000 0.6785 0.6785 0.6785
v -0.340000 0.900000 0.190000 0.8274 0.8274 0.8274
v -0.340000 0.720000 -0.190000 0.6745 0.6745 0.6745
v -0.350000 0.900000 -0.190000 0.7725 0.7725 0.7725
v -0.340000 0.900000 -0.190000 0.8235 0.8235 0.8235
v 0.340000 0.900000 0.190000 0.8235 0.8235 0.8235
v 0.340000 0.720000 -0.190000 0.6745 0.6745 0.6745
v 0.340000 0.720000 0.190000 0.6785 0.6785 0.6785
v 0.350000 0.720000 -0.190000 0.6745 0.6745 0.6745
v 0.350000 0.900000 -0.190000 0.7764 0.7764 0.7764
v 0.350000 0.900000 0.190000 0.7764 0.7764 0.7764
v 0.340000 0.900000 -0.190000 0.8196 0.8196 0.8196
v -0.350000 0.860000 -0.310000 0.8313 0.8313 0.8313
v -0.505000 0.860000 -0.310000 0.9686 0.9686 0.9686
v -0.505000 0.860000 0.310000 0.9647 0.9647 0.9647
v -0.505000 0.900000 0.310000 1.0000 1.0000 1.0000
v -0.505000 0.900000 -0.310000 1.0000 1.0000 1.0000
v 0.350000 0.860000 0.310000 0.8196 0.8196 0.8196
v 0.505000 0.860000 0.310000 0.9647 0.9647 0.9647
v 0.350000 0.900000 0.310000 0.8862 0.8862 0.8862
v 0.505000 0.900000 -0.310000 1.0000 1.0000 1.0000
v 0.350000 0.860000 -0.310000 0.8313 0.8313 0.8313
v 0.505000 0.860000 -0.310000 0.9686 0.9686 0.9686
v 0.505000 0.900000 0.310000 1.0000 1.0000 1.0000
v 0.350000 0.900000 0.200000 0.7764 0.7764 0.7764
v 0.350000 0.860000 0.200000 0.6667 0.6667 0.6667
v -0.350000 0.900000 0.310000 0.8862 0.8862 0.8862
v -0.350000 0.860000 0.200000 0.6667 0.6667 0.6667
v -0.350000 0.860000 0.310000 0.8235 0.8235 0.8235
v -0.350000 0.900000 -0.200000 0.7725 0.7725 0.7725
v -0.350000 0.900000 -0.310000 0.8862 0.8862 0.8862
v 0.350000 0.860000 -0.200000 0.6667 0.6667 0.6667
v 0.350000 0.900000 -0.200000 0.7764 0.7764 0.7764
v 0.350000 0.900000 -0.310000 0.8862 0.8862 0.8862
v -0.350000 0.860000 -0.200000 0.6667 0.6667 0.6667
v 0.000000 0.900000 -0.252000 0.7764 0.7764 0.7764
v -0.011413 0.900000 -0.243708 0.7647 0.7647 0.7647
v -0.007053 0.900000 -0.230292 0.7686 0.7686 0.7686
v 0.007053 0.900000 -0.230292 0.7686 0.7686 0.7686
v -0.007053 1.175894 -0.231203 0.8392 0.8392 0.8392
v 0.011413 0.900000 -0.243708 0.7686 0.7686 0.7686
v 0.000000 1.185075 -0.250874 0.9764 0.9764 0.9764
v -0.011413 1.181568 -0.243360 0.9255 0.9255 0.9255
v -0.003708 1.189069 -0.103279 0.8549 0.8549 0.8549
v -0.012000 1.200000 -0.100000 0.9529 0.9529 0.9529
v 0.007053 1.175894 -0.231203 0.8902 0.8902 0.8902
v 0.011413 1.181568 -0.243360 0.9764 0.9764 0.9764
v -0.003708 1.210931 -0.096721 0.9882 0.9882 0.9882
v 0.009708 1.206756 -0.097973 0.9451 0.9451 0.9451
v -0.003708 1.113152 -0.049130 0.8353 0.8353 0.8353
v -0.012000 1.120000 -0.040000 0.8745 0.8745 0.8745
v 0.009708 1.193244 -0.102027 0.8509 0.8509 0.8509
v 0.009708 1.124232 -0.034357 0.8980 0.8980 0.8980
v -0.003708 1.126848 -0.030870 0.9137 0.9137 0.9137
v 0.009708 1.115768 -0.045643 0.8509 0.8509 0.8509
v -0.082000 0.900000 -0.240000 0.7647 0.7647 0.7647
v -0.091000 0.950000 -0.255588 0.9333 0.9333 0.9333
v -0.109000 0.900000 -0.255588 0.7725 0.7725 0.7725
v -0.109000 0.950000 -0.255588 0.9411 0.9411 0.9411
v -0.118000 0.900000 -0.240000 0.7686 0.7686 0.7686
v -0.109000 0.900000 -0.224412 0.7686 0.7686 0.7686
v -0.118000 0.950000 -0.240000 0.9098 0.9098 0.9098
v -0.091000 0.950000 -0.224412 0.8823 0.8823 0.8823
v -0.109000 0.950000 -0.224412 0.8902 0.8902 0.8902
v -0.091000 0.900000 -0.224412 0.7686 0.7686 0.7686
v -0.082000 0.950000 -0.240000 0.8862 0.8862 0.8862
v -0.091000 0.900000 -0.255588 0.7725 0.7725 0.7725
v 0.118000 0.950000 -0.240000 0.9098 0.9098 0.9098
v 0.091000 0.900000 -0.255588 0.7686 0.7686 0.7686
v 0.082000 0.900000 -0.240000 0.7568 0.7568 0.7568
v 0.082000 0.950000 -0.240000 0.8902 0.8902 0.8902
v 0.091000 0.900000 -0.224412 0.7686 0.7686 0.7686
v 0.109000 0.900000 -0.224412 0.7725 0.7725 0.7725
v 0.109000 0.950000 -0.255588 0.9411 0.9411 0.9411
v 0.091000 0.950000 -0.255588 0.9294 0.9294 0.9294
v 0.091000 0.950000 -0.224412 0.8784 0.8784 0.8784
v 0.109000 0.950000 -0.224412 0.8980 0.8980 0.8980
v 0.109000 0.900000 -0.255588 0.7764 0.7764 0.7764
v 0.118000 0.900000 -0.240000 0.7764 0.7764 0.7764
v 0.010000 0.110000 0.310000 0.7764 0.7764 0.7764
v 0.490000 0.110000 0.290000 0.7059 0.7059 0.7059
v 0.010000 0.670000 0.290000 0.7725 0.7725 0.7725
v 0.490000 0.110000 0.310000 0.8039 0.8039 0.8039
v 0.490000 0.670000 0.310000 0.9451 0.9451 0.9451
v 0.010000 0.110000 0.290000 0.6824 0.6824 0.6824
v 0.010000 0.670000 0.310000 0.8902 0.8902 0.8902
v 0.490000 0.670000 0.290000 0.7608 0.7608 0.7608
vn -0.0000 -0.0000 -1.0000
vn -1.0000 -0.0000 -0.0000
vn 1.0000 -0.0000 -0.0000
vn -0.0000 1.0000 -0.0000
vn -0.0000 -1.0000 -0.0000
vn -0.0000 -0.0000 1.0000
vn -0.5695 0.0021 -0.8220
vn -0.9465 0.0003 0.3227
vn -0.0000 0.0033 1.0000
vn 0.9465 0.0003 0.3227
vn 0.9537 0.2382 0.1838
vn 0.9263 0.3631 0.1002
vn 0.5695 0.0021 -0.8220
vn -0.9788 0.2028 -0.0301
vn -0.9441 -0.1133 -0.3094
vn -0.9586 -0.0722 -0.2753
vn -0.1621 -0.9811 0.1053
vn 0.6765 -0.7316 0.0844
vn 0.9062 -0.4201 0.0484
vn 0.9249 -0.3777 0.0436
vn 0.7838 0.6133 -0.0971
vn -0.2670 0.9494 -0.1657
vn -0.7777 -0.3714 -0.5072
vn 0.2796 -0.5613 -0.7789
vn 0.2828 0.5886 0.7574
vn -0.7799 0.3809 0.4966
vn -0.0000 -0.8000 0.6000
vn 0.8660 -0.0000 -0.5000
vn -0.8660 -0.0000 -0.5000
vn -0.8660 -0.0000 0.5000
vn 0.8660 -0.0000 0.5000
vt 0.750488 0.937988
vt 0.812012 0.937988
vt 0.812012 0.984746
vt 0.750488 0.984746
vt 0.752107 0.937988
vt 0.752107 0.999512
vt 0.750488 0.999512
vt 0.812012 0.939219
vt 0.750488 0.939219
vt 0.062988 0.812988
vt 0.124512 0.812988
vt 0.124512 0.859131
vt 0.062988 0.859131
vt 0.812012 0.940186
vt 0.750488 0.940186
vt 0.124512 0.847441
vt 0.062988 0.847441
vt 0.812012 0.972441
vt 0.750488 0.972441
vt 0.752197 0.937988
vt 0.752197 0.999512
vt 0.798340 0.937988
vt 0.798340 0.999512
vt 0.110840 0.812988
vt 0.110840 0.874512
vt 0.062988 0.874512
vt 0.752686 0.937988
vt 0.752686 0.999512
vt 0.562988 0.844238
vt 0.593262 0.844238
vt 0.593262 0.847392
vt 0.562988 0.847392
vt 0.593262 0.849844
vt 0.562988 0.849844
vt 0.593262 0.861267
vt 0.562988 0.861267
vt 0.625488 0.797363
vt 0.655762 0.797363
vt 0.655762 0.812012
vt 0.625488 0.812012
vt 0.812012 0.946777
vt 0.750488 0.946777
vt 0.752949 0.937988
vt 0.752949 0.955215
vt 0.750488 0.955215
vt 0.812012 0.939244
vt 0.750488 0.939244
vt 0.124512 0.814283
vt 0.062988 0.814283
vt 0.124512 0.815355
vt 0.062988 0.815355
vt 0.124512 0.846664
vt 0.062988 0.846664
vt 0.406738 0.781738
vt 0.437012 0.781738
vt 0.437012 0.782171
vt 0.406738 0.782171
vt 0.437012 0.782495
vt 0.406738 0.782495
vt 0.437012 0.799037
vt 0.406738 0.799037
vt 0.437012 0.798656
vt 0.406738 0.798656
vt 0.437012 0.789523
vt 0.406738 0.789523
vt 0.407949 0.781738
vt 0.407949 0.803535
vt 0.406738 0.803535
vt 0.437012 0.796078
vt 0.406738 0.796078
vt 0.407535 0.781738
vt 0.407535 0.812012
vt 0.406738 0.812012
vt 0.906738 0.844238
vt 0.925508 0.844238
vt 0.925508 0.849082
vt 0.906738 0.849082
vt 0.937012 0.844238
vt 0.937012 0.846191
vt 0.906738 0.846191
vt 0.914307 0.844238
vt 0.914307 0.874512
vt 0.906738 0.874512
vt 0.937012 0.845968
vt 0.906738 0.845968
vt 0.920059 0.844238
vt 0.920059 0.849082
vt 0.937012 0.848996
vt 0.906738 0.848996
vt 0.781738 0.844238
vt 0.787793 0.844238
vt 0.787793 0.854329
vt 0.781738 0.854329
vt 0.793848 0.844238
vt 0.793848 0.854329
vt 0.799902 0.844238
vt 0.799902 0.854329
vt 0.805957 0.844238
vt 0.805957 0.854329
vt 0.812012 0.844238
vt 0.812012 0.854329
vt 0.787793 0.864421
vt 0.781738 0.864421
vt 0.793848 0.864421
vt 0.799902 0.864421
vt 0.805957 0.864421
vt 0.812012 0.864421
vt 0.787793 0.874512
vt 0.781738 0.874512
vt 0.793848 0.874512
vt 0.799902 0.874512
vt 0.805957 0.874512
vt 0.812012 0.874512
vt 0.812012 0.855802
vt 0.806230 0.874512
vt 0.787520 0.874512
vt 0.781738 0.855802
vt 0.796875 0.844238
vt 0.781738 0.859375
vt 0.793302 0.844238
vt 0.812012 0.850020
vt 0.812012 0.868730
vt 0.793302 0.874512
vt 0.786784 0.844238
vt 0.786784 0.874512
vt 0.791829 0.844238
vt 0.791829 0.874512
vt 0.796875 0.874512
vt 0.801921 0.844238
vt 0.801921 0.874512
vt 0.806966 0.844238
vt 0.806966 0.874512
vt 0.812012 0.859375
vt 0.804443 0.874512
vt 0.789307 0.874512
vt 0.789307 0.844238
vt 0.804443 0.844238
vt 0.219238 0.874512
vt 0.249512 0.874512
vt 0.249512 0.812988
vt 0.219238 0.812988
vt 0.803223 0.999512
vt 0.803223 0.937988
vt 0.750488 0.940449
vt 0.809551 0.940449
vt 0.809551 0.937988
s 0
usemtl props
f 3/1/1 1/2/1 4/3/1 2/4/1
f 1/1/2 11/5/2 19/6/2 4/7/2
f 5/1/3 3/5/3 2/6/3 21/7/3
f 19/1/4 21/2/4 2/8/4 4/9/4
f 1/1/5 3/2/5 5/8/5 11/9/5
f 6/10/6 7/11/6 8/12/6 9/13/6
f 12/1/6 14/2/6 15/8/6 27/9/6
f 5/1/1 11/2/1 13/8/1 10/9/1
f 11/1/2 12/2/2 27/14/2 13/15/2
f 14/1/3 5/2/3 10/14/3 15/15/3
f 27/10/4 15/11/4 10/16/4 13/17/4
f 11/1/5 5/2/5 14/18/5 12/19/5
f 16/1/6 31/2/6 22/8/6 18/9/6
f 20/1/1 17/2/1 19/8/1 21/9/1
f 17/1/2 16/2/2 18/14/2 19/15/2
f 31/1/3 20/2/3 21/14/3 22/15/3
f 18/1/4 22/2/4 21/18/4 19/19/4
f 17/10/5 20/11/5 31/16/5 16/17/5
f 27/1/6 23/20/6 24/21/6 16/7/6
f 26/1/1 13/20/1 17/21/1 25/7/1
f 13/1/2 27/22/2 16/23/2 17/7/2
f 23/10/3 26/24/3 25/25/3 24/26/3
f 16/1/4 24/27/4 25/28/4 17/7/4
f 13/1/5 26/27/5 23/28/5 27/7/5
f 30/1/6 15/20/6 31/21/6 32/7/6
f 10/1/1 29/20/1 28/21/1 20/7/1
f 29/10/2 30/24/2 32/25/2 28/26/2
f 15/1/3 10/22/3 20/23/3 31/7/3
f 32/1/4 31/27/4 20/28/4 28/7/4
f 29/1/5 10/27/5 15/28/5 30/7/5
f 40/29/6 35/30/6 33/31/6 37/32/6
f 36/29/1 39/30/1 38/31/1 34/32/1
f 39/29/2 40/30/2 37/33/2 38/34/2
f 35/29/3 36/30/3 34/33/3 33/34/3
f 37/29/4 33/30/4 34/35/4 38/36/4
f 39/29/5 36/30/5 35/35/5 40/36/5
f 41/37/6 42/38/6 43/39/6 46/40/6
f 44/1/1 48/2/1 45/41/1 47/42/1
f 48/1/2 41/43/2 46/44/2 45/45/2
f 42/1/3 44/43/3 47/44/3 43/45/3
f 46/1/4 43/2/4 47/46/4 45/47/4
f 48/1/5 44/2/5 42/46/5 41/47/5
f 49/10/6 53/11/6 55/48/6 56/49/6
f 50/10/1 52/11/1 51/48/1 54/49/1
f 52/10/2 49/11/2 56/50/2 51/51/2
f 53/10/3 50/11/3 54/50/3 55/51/3
f 56/10/4 55/11/4 54/52/4 51/53/4
f 52/10/5 50/11/5 53/52/5 49/53/5
f 62/54/6 70/55/6 57/56/6 58/57/6
f 72/54/1 59/55/1 60/56/1 61/57/1
f 59/54/2 62/55/2 58/58/2 60/59/2
f 70/54/3 72/55/3 61/58/3 57/59/3
f 59/54/5 72/55/5 70/60/5 62/61/5
f 63/54/4 64/55/4 65/62/4 66/63/4
f 62/54/6 70/55/6 98/64/6 69/65/6
f 68/54/1 73/55/1 67/64/1 84/65/1
f 73/54/2 62/66/2 69/67/2 67/68/2
f 70/54/3 68/66/3 84/67/3 98/68/3
f 69/54/4 98/55/4 84/56/4 67/57/4
f 73/54/5 68/55/5 70/56/5 62/57/5
f 71/54/6 82/55/6 83/64/6 77/65/6
f 72/54/1 59/55/1 103/64/1 106/65/1
f 59/54/2 71/66/2 77/67/2 103/68/2
f 82/54/3 72/66/3 106/67/3 83/68/3
f 77/54/4 83/55/4 106/56/4 103/57/4
f 59/54/5 72/55/5 82/56/5 71/57/5
f 73/54/6 74/66/6 75/67/6 67/68/6
f 76/54/1 71/66/1 77/67/1 78/68/1
f 71/54/2 73/55/2 67/69/2 77/70/2
f 74/54/3 76/55/3 78/69/3 75/70/3
f 67/54/4 75/71/4 78/72/4 77/73/4
f 71/54/5 76/71/5 74/72/5 73/73/5
f 81/54/6 68/66/6 84/67/6 79/68/6
f 82/54/1 80/66/1 85/67/1 83/68/1
f 80/54/2 81/55/2 79/69/2 85/70/2
f 68/54/3 82/55/3 83/69/3 84/70/3
f 79/54/4 84/71/4 83/72/4 85/73/4
f 80/54/5 82/71/5 68/72/5 81/73/5
f 88/74/6 102/75/6 100/76/6 89/77/6
f 86/74/1 87/75/1 90/76/1 104/77/1
f 87/74/2 88/78/2 89/79/2 90/80/2
f 102/74/3 86/78/3 104/79/3 100/80/3
f 89/74/4 100/81/4 104/82/4 90/83/4
f 87/74/5 86/81/5 102/82/5 88/83/5
f 91/74/6 92/75/6 97/76/6 93/77/6
f 96/74/1 95/75/1 107/76/1 94/77/1
f 95/74/2 91/78/2 93/79/2 107/80/2
f 92/74/3 96/78/3 94/79/3 97/80/3
f 93/74/4 97/81/4 94/82/4 107/83/4
f 95/74/5 96/81/5 92/82/5 91/83/5
f 102/74/6 91/78/6 93/84/6 100/85/6
f 99/74/1 101/78/1 69/84/1 98/85/1
f 101/74/2 102/86/2 100/87/2 69/77/2
f 91/74/3 99/86/3 98/87/3 93/77/3
f 100/74/4 93/78/4 98/88/4 69/89/4
f 101/74/5 99/78/5 91/88/5 102/89/5
f 108/74/6 105/78/6 106/84/6 103/85/6
f 95/74/1 86/78/1 104/84/1 107/85/1
f 86/74/2 108/86/2 103/87/2 104/77/2
f 105/74/3 95/86/3 107/87/3 106/77/3
f 103/74/4 106/78/4 107/88/4 104/89/4
f 86/74/5 95/78/5 105/88/5 108/89/5
s 1
f 109/90/7 110/91/7 116/92/7 115/93/7
f 110/91/8 111/94/8 113/95/8 116/92/8
f 111/94/9 112/96/9 119/97/9 113/95/9
f 112/96/10 114/98/10 120/99/11 119/97/12
f 114/98/13 109/100/13 115/101/13 120/99/13
f 115/93/14 116/92/14 117/102/15 118/103/16
f 116/92/17 113/95/17 125/104/17 117/102/17
f 113/95/18 119/97/18 122/105/19 125/104/20
f 119/97/12 120/99/11 121/106/21 122/105/21
f 120/99/22 115/101/22 118/107/22 121/106/22
f 118/103/16 117/102/15 123/108/23 124/109/23
f 117/102/24 125/104/24 128/110/24 123/108/24
f 125/104/20 122/105/19 126/111/3 128/110/3
f 122/105/25 121/106/25 127/112/25 126/111/25
f 121/106/26 118/107/26 124/113/26 127/112/26
s 0
f 114/114/5 112/115/5 111/116/5 110/117/5 109/118/5
f 124/119/27 123/120/27 128/121/27 126/122/27 127/123/27
s 1
f 129/90/28 140/124/28 130/125/28 139/109/28
f 140/124/1 131/126/1 132/127/1 130/125/1
f 131/126/29 133/118/29 135/128/29 132/127/29
f 133/118/30 134/129/30 137/130/30 135/128/30
f 134/129/6 138/131/6 136/132/6 137/130/6
f 138/131/31 129/100/31 139/113/31 136/132/31
s 0
f 139/133/4 130/134/4 132/135/4 135/119/4 137/136/4 136/137/4
f 138/134/5 134/135/5 133/119/5 131/136/5 140/137/5 129/133/5
s 1
f 152/90/28 151/124/28 147/125/28 141/109/28
f 151/124/1 142/126/1 148/127/1 147/125/1
f 142/126/29 143/118/29 144/128/29 148/127/29
f 143/118/30 145/129/30 149/130/30 144/128/30
f 145/129/6 146/131/6 150/132/6 149/130/6
f 146/131/31 152/100/31 141/113/31 150/132/31
s 0
f 141/133/4 147/134/4 148/135/4 144/119/4 149/136/4 150/137/4
f 146/134/5 145/135/5 143/119/5 142/136/5 151/137/5 152/133/5
f 157/138/6 159/139/6 153/140/6 156/141/6
f 155/7/1 160/142/1 154/143/1 158/1/1
f 160/7/3 157/28/3 156/27/3 154/1/3
f 159/7/2 155/28/2 158/27/2 153/1/2
f 160/144/4 155/145/4 159/146/4 157/1/4
f 156/144/5 153/145/5 158/146/5 154/1/5
o sink_unit_white_door
v -0.490000 0.110000 0.310000 0.8039 0.8039 0.8039
v -0.010000 0.110000 0.310000 0.7764 0.7764 0.7764
v -0.490000 0.670000 0.290000 0.7608 0.7608 0.7608
v -0.490000 0.110000 0.290000 0.7059 0.7059 0.7059
v -0.490000 0.670000 0.310000 0.9451 0.9451 0.9451
v -0.010000 0.670000 0.310000 0.8902 0.8902 0.8902
v -0.010000 0.670000 0.290000 0.7725 0.7725 0.7725
v -0.010000 0.110000 0.290000 0.6824 0.6824 0.6824
vn -0.0000 -0.0000 1.0000
vn -0.0000 -0.0000 -1.0000
vn -1.0000 -0.0000 -0.0000
vn 1.0000 -0.0000 -0.0000
vn -0.0000 1.0000 -0.0000
vn -0.0000 -1.0000 -0.0000
vt 0.219238 0.812988
vt 0.249512 0.812988
vt 0.249512 0.874512
vt 0.219238 0.874512
vt 0.750488 0.937988
vt 0.803223 0.937988
vt 0.803223 0.999512
vt 0.750488 0.999512
vt 0.752686 0.937988
vt 0.752686 0.999512
vt 0.809551 0.937988
vt 0.809551 0.940449
vt 0.750488 0.940449
s 0
usemtl props
f 161/147/32 162/148/32 166/149/32 165/150/32
f 168/151/33 164/152/33 163/153/33 167/154/33
f 164/151/34 161/155/34 165/156/34 163/154/34
f 162/151/35 168/155/35 167/156/35 166/154/35
f 165/151/36 166/157/36 167/158/36 163/159/36
f 164/151/37 168/157/37 162/158/37 161/159/37
