# Blender 4.5.14 LTS
# www.blender.org
mtllib sofa_red.mtl
o sofa_red
v -1.063750 0.100000 0.378750 0.7020 0.7020 0.7020
v -1.010000 0.000000 0.325000 0.7137 0.7137 0.7137
v -1.060000 0.000000 0.325000 0.7412 0.7412 0.7412
v -1.010000 0.000000 0.375000 0.7372 0.7372 0.7372
v -1.006250 0.100000 0.378750 0.7020 0.7020 0.7020
v -1.006250 0.100000 0.321250 0.7059 0.7059 0.7059
v -1.063750 0.100000 0.321250 0.7020 0.7020 0.7020
v -1.060000 0.000000 0.375000 0.7608 0.7608 0.7608
v -1.010000 0.000000 -0.325000 0.7059 0.7059 0.7059
v -1.006250 0.100000 -0.378750 0.7020 0.7020 0.7020
v -1.060000 0.000000 -0.325000 0.7372 0.7372 0.7372
v -1.063750 0.100000 -0.321250 0.7020 0.7020 0.7020
v -1.010000 0.000000 -0.375000 0.7412 0.7412 0.7412
v -1.006250 0.100000 -0.321250 0.7020 0.7020 0.7020
v -1.063750 0.100000 -0.378750 0.7059 0.7059 0.7059
v -1.060000 0.000000 -0.375000 0.7647 0.7647 0.7647
v 1.006250 0.100000 0.378750 0.7020 0.7020 0.7020
v 1.060000 0.000000 0.325000 0.7451 0.7451 0.7451
v 1.006250 0.100000 0.321250 0.7020 0.7020 0.7020
v 1.010000 0.000000 0.325000 0.7059 0.7059 0.7059
v 1.010000 0.000000 0.375000 0.7372 0.7372 0.7372
v 1.060000 0.000000 0.375000 0.7647 0.7647 0.7647
v 1.063750 0.100000 0.378750 0.7020 0.7020 0.7020
v 1.063750 0.100000 0.321250 0.7059 0.7059 0.7059
v 1.010000 0.000000 -0.325000 0.7059 0.7059 0.7059
v 1.063750 0.100000 -0.321250 0.7020 0.7020 0.7020
v 1.006250 0.100000 -0.321250 0.7020 0.7020 0.7020
v 1.063750 0.100000 -0.378750 0.7059 0.7059 0.7059
v 1.006250 0.100000 -0.378750 0.7020 0.7020 0.7020
v 1.010000 0.000000 -0.375000 0.7412 0.7412 0.7412
v 1.060000 0.000000 -0.375000 0.7647 0.7647 0.7647
v 1.060000 0.000000 -0.325000 0.7412 0.7412 0.7412
v -1.110000 0.100000 -0.425000 0.8117 0.8117 0.8117
v -1.110000 0.100000 0.425000 0.8039 0.8039 0.8039
v 1.110000 0.100000 0.425000 0.8000 0.8000 0.8000
v 1.110000 0.100000 -0.425000 0.8117 0.8117 0.8117
v 1.110000 0.300000 0.425000 0.8509 0.8509 0.8509
v -1.110000 0.700000 -0.425000 1.0000 1.0000 1.0000
v 1.110000 0.300000 -0.425000 0.8549 0.8549 0.8549
v -1.110000 0.300000 -0.425000 0.8549 0.8549 0.8549
v 1.110000 0.300000 -0.225000 0.7686 0.7686 0.7686
v -1.110000 0.300000 -0.225000 0.7686 0.7686 0.7686
v -1.110000 0.700000 -0.225000 0.9764 0.9764 0.9764
v -0.666000 0.800000 -0.265000 0.9568 0.9568 0.9568
v 1.110000 0.700000 -0.225000 0.9725 0.9725 0.9725
v 1.110000 0.700000 -0.425000 1.0000 1.0000 1.0000
v 0.666000 0.800000 -0.385000 1.0000 1.0000 1.0000
v 0.666000 0.800000 -0.265000 0.9568 0.9568 0.9568
v -0.666000 0.800000 -0.385000 1.0000 1.0000 1.0000
v -0.930000 0.468000 0.425000 0.9568 0.9568 0.9568
v -0.930000 0.300000 -0.225000 0.6745 0.6745 0.6745
v -0.930000 0.468000 -0.225000 0.6745 0.6745 0.6745
v -0.930000 0.300000 0.425000 0.8039 0.8039 0.8039
v -1.110000 0.300000 0.425000 0.8509 0.8509 0.8509
v -0.966000 0.580000 0.295000 0.9725 0.9725 0.9725
v -1.110000 0.468000 -0.225000 0.8470 0.8470 0.8470
v -0.966000 0.580000 -0.095000 0.8666 0.8666 0.8666
v -1.110000 0.468000 0.425000 0.9960 0.9960 0.9960
v -1.074000 0.580000 0.295000 0.9960 0.9960 0.9960
v -1.074000 0.580000 -0.095000 0.9411 0.9411 0.9411
v 0.930000 0.300000 0.425000 0.8000 0.8000 0.8000
v 1.110000 0.468000 -0.225000 0.8509 0.8509 0.8509
v 0.930000 0.300000 -0.225000 0.6785 0.6785 0.6785
v 0.930000 0.468000 0.425000 0.9568 0.9568 0.9568
v 1.110000 0.468000 0.425000 0.9960 0.9960 0.9960
v 0.966000 0.580000 0.295000 0.9764 0.9764 0.9764
v 0.930000 0.468000 -0.225000 0.6745 0.6745 0.6745
v 0.966000 0.580000 -0.095000 0.8706 0.8706 0.8706
v 1.074000 0.580000 -0.095000 0.9490 0.9490 0.9490
v 1.074000 0.580000 0.295000 1.0000 1.0000 1.0000
v -0.320000 0.300000 -0.175000 0.6785 0.6785 0.6785
v -0.920000 0.300000 -0.175000 0.6706 0.6706 0.6706
v -0.920000 0.300000 0.375000 0.7059 0.7059 0.7059
v -0.920000 0.370000 0.375000 0.7725 0.7725 0.7725
v -0.320000 0.300000 0.375000 0.7529 0.7529 0.7529
v -0.920000 0.370000 -0.175000 0.6667 0.6667 0.6667
v -0.881818 0.440000 -0.140000 0.6667 0.6667 0.6667
v -0.320000 0.370000 0.375000 0.9019 0.9019 0.9019
v -0.320000 0.370000 -0.175000 0.6745 0.6745 0.6745
v -0.358182 0.440000 0.340000 0.9725 0.9725 0.9725
v -0.881818 0.440000 0.340000 0.8784 0.8784 0.8784
v -0.358182 0.440000 -0.140000 0.6785 0.6785 0.6785
v -0.910000 0.453892 -0.096215 0.7137 0.7137 0.7137
v -0.330000 0.453892 -0.096215 0.7647 0.7647 0.7647
v -0.910000 0.426108 -0.253785 0.6667 0.6667 0.6667
v -0.910000 0.603374 -0.285041 0.6667 0.6667 0.6667
v -0.330000 0.426108 -0.253785 0.6785 0.6785 0.6785
v -0.330000 0.603374 -0.285041 0.6824 0.6824 0.6824
v -0.794000 0.802866 -0.190243 0.9764 0.9764 0.9764
v -0.910000 0.631157 -0.127472 0.8941 0.8941 0.8941
v -0.330000 0.631157 -0.127472 0.8902 0.8902 0.8902
v -0.446000 0.802866 -0.190243 0.9686 0.9686 0.9686
v -0.446000 0.786196 -0.284784 0.6745 0.6745 0.6745
v -0.794000 0.786196 -0.284784 0.9333 0.9333 0.9333
v -0.300000 0.300000 0.375000 0.7490 0.7490 0.7490
v -0.300000 0.300000 -0.175000 0.6785 0.6785 0.6785
v -0.300000 0.370000 -0.175000 0.6706 0.6706 0.6706
v 0.300000 0.300000 0.375000 0.7529 0.7529 0.7529
v 0.300000 0.370000 -0.175000 0.6745 0.6745 0.6745
v 0.300000 0.300000 -0.175000 0.6785 0.6785 0.6785
v -0.300000 0.370000 0.375000 0.9058 0.9058 0.9058
v 0.300000 0.370000 0.375000 0.9019 0.9019 0.9019
v -0.261818 0.440000 0.340000 0.9686 0.9686 0.9686
v 0.261818 0.440000 -0.140000 0.6785 0.6785 0.6785
v -0.261818 0.440000 -0.140000 0.6785 0.6785 0.6785
v 0.261818 0.440000 0.340000 0.9725 0.9725 0.9725
v -0.290000 0.426108 -0.253785 0.6785 0.6785 0.6785
v -0.290000 0.453892 -0.096215 0.7608 0.7608 0.7608
v -0.290000 0.631157 -0.127472 0.8862 0.8862 0.8862
v 0.290000 0.426108 -0.253785 0.6785 0.6785 0.6785
v 0.290000 0.453892 -0.096215 0.7647 0.7647 0.7647
v 0.290000 0.631157 -0.127472 0.8902 0.8902 0.8902
v -0.174000 0.802866 -0.190243 0.9725 0.9725 0.9725
v 0.290000 0.603374 -0.285041 0.6824 0.6824 0.6824
v -0.290000 0.603374 -0.285041 0.6863 0.6863 0.6863
v 0.174000 0.802866 -0.190243 0.9686 0.9686 0.9686
v 0.174000 0.786196 -0.284784 0.6745 0.6745 0.6745
v -0.174000 0.786196 -0.284784 0.6745 0.6745 0.6745
v 0.320000 0.300000 -0.175000 0.6785 0.6785 0.6785
v 0.320000 0.370000 -0.175000 0.6706 0.6706 0.6706
v 0.320000 0.300000 0.375000 0.7490 0.7490 0.7490
v 0.920000 0.300000 0.375000 0.7059 0.7059 0.7059
v 0.920000 0.300000 -0.175000 0.6706 0.6706 0.6706
v 0.320000 0.370000 0.375000 0.9058 0.9058 0.9058
v 0.358182 0.440000 0.340000 0.9686 0.9686 0.9686
v 0.920000 0.370000 -0.175000 0.6706 0.6706 0.6706
v 0.358182 0.440000 -0.140000 0.6785 0.6785 0.6785
v 0.920000 0.370000 0.375000 0.7725 0.7725 0.7725
v 0.881818 0.440000 -0.140000 0.6667 0.6667 0.6667
v 0.881818 0.440000 0.340000 0.8784 0.8784 0.8784
v 0.910000 0.631157 -0.127472 0.8980 0.8980 0.8980
v 0.330000 0.426108 -0.253785 0.6785 0.6785 0.6785
v 0.330000 0.603374 -0.285041 0.6863 0.6863 0.6863
v 0.910000 0.453892 -0.096215 0.7137 0.7137 0.7137
v 0.910000 0.426108 -0.253785 0.6667 0.6667 0.6667
v 0.330000 0.453892 -0.096215 0.7608 0.7608 0.7608
v 0.330000 0.631157 -0.127472 0.8862 0.8862 0.8862
v 0.446000 0.786196 -0.284784 0.6745 0.6745 0.6745
v 0.910000 0.603374 -0.285041 0.6706 0.6706 0.6706
v 0.794000 0.786196 -0.284784 0.9333 0.9333 0.9333
v 0.794000 0.802866 -0.190243 0.9804 0.9804 0.9804
v 0.446000 0.802866 -0.190243 0.9725 0.9725 0.9725
vn -0.0000 -0.0375 0.9993
vn -0.0000 -0.0375 -0.9993
vn -0.9993 -0.0375 -0.0000
vn 0.9993 -0.0375 -0.0000
vn -0.0000 1.0000 -0.0000
vn -0.0000 -1.0000 -0.0000
vn -0.0000 -0.0000 1.0000
vn -0.0000 -0.0000 -1.0000
vn -1.0000 -0.0000 -0.0000
vn 1.0000 -0.0000 -0.0000
vn -0.0000 0.3714 0.9285
vn -0.0000 0.3714 -0.9285
vn -0.2197 0.9756 -0.0000
vn 0.2197 0.9756 -0.0000
vn -0.0000 0.7576 0.6527
vn -0.0000 0.7576 -0.6527
vn -0.9520 0.3060 -0.0000
vn 0.9520 0.3060 -0.0000
vn -0.0000 0.4472 0.8944
vn -0.0000 0.4472 -0.8944
vn -0.8779 0.4789 -0.0000
vn 0.8779 0.4789 -0.0000
vn -0.0000 0.1736 0.9848
vn -0.0000 -0.1736 -0.9848
vn -0.0000 -0.9848 0.1736
vn -0.0000 0.3433 0.9392
vn -0.0000 0.0014 -1.0000
vn -0.8406 0.5335 -0.0941
vn 0.8406 0.5335 -0.0941
vn -0.0000 0.9848 -0.1736
vt 0.125950 0.812988
vt 0.132102 0.812988
vt 0.132563 0.825302
vt 0.125488 0.825302
vt 0.125488 0.812988
vt 0.132563 0.812988
vt 0.132563 0.820063
vt 0.125488 0.820063
vt 0.131641 0.812988
vt 0.131641 0.819141
vt 0.125488 0.819141
vt 0.562988 0.937988
vt 0.624512 0.937988
vt 0.624512 0.943531
vt 0.562988 0.943531
vt 0.624512 0.952464
vt 0.562988 0.952464
vt 0.624512 0.961545
vt 0.562988 0.961545
vt 0.624512 0.949074
vt 0.562988 0.949074
vt 0.587598 0.937988
vt 0.587598 0.987207
vt 0.562988 0.987207
vt 0.612207 0.940973
vt 0.575293 0.940973
vt 0.562988 0.962598
vt 0.617621 0.942910
vt 0.617621 0.957676
vt 0.617621 0.937988
vt 0.617621 0.962598
vt 0.562988 0.957676
vt 0.562988 0.942910
vt 0.585137 0.937988
vt 0.585137 0.958660
vt 0.562988 0.958660
vt 0.624512 0.953890
vt 0.562988 0.953890
vt 0.580026 0.937988
vt 0.580026 0.999512
vt 0.562988 0.999512
vt 0.580707 0.953984
vt 0.567418 0.953984
vt 0.585137 0.953984
vt 0.562988 0.953984
vt 0.567418 0.937988
vt 0.580707 0.937988
vt 0.612207 0.949123
vt 0.575293 0.949123
vt 0.576277 0.937988
vt 0.576277 0.985977
vt 0.562988 0.985977
vt 0.624512 0.945166
vt 0.562988 0.945166
vt 0.624512 0.945819
vt 0.562988 0.945819
vt 0.624512 0.994385
vt 0.562988 0.994385
vt 0.620597 0.946013
vt 0.566903 0.946013
vt 0.620597 0.946908
vt 0.566903 0.946908
vt 0.624512 0.957082
vt 0.562988 0.957082
vt 0.582676 0.937988
vt 0.582676 0.960137
vt 0.562988 0.960137
vt 0.624512 0.954960
vt 0.562988 0.954960
vt 0.612207 0.957381
vt 0.575293 0.957381
vt 0.578738 0.964338
vt 0.566926 0.964338
vt 0.605809 0.937988
vt 0.605809 0.949801
vt 0.562988 0.949801
s 0
usemtl props
f 8/1/1 4/2/1 5/3/1 1/4/1
f 2/1/2 3/2/2 7/3/2 6/4/2
f 3/1/3 8/2/3 1/3/3 7/4/3
f 4/1/4 2/2/4 6/3/4 5/4/4
f 1/5/5 5/6/5 6/7/5 7/8/5
f 3/5/6 2/9/6 4/10/6 8/11/6
f 11/1/1 9/2/1 14/3/1 12/4/1
f 13/1/2 16/2/2 15/3/2 10/4/2
f 16/1/3 11/2/3 12/3/3 15/4/3
f 9/1/4 13/2/4 10/3/4 14/4/4
f 12/5/5 14/6/5 10/7/5 15/8/5
f 16/5/6 13/9/6 9/10/6 11/11/6
f 21/1/1 22/2/1 23/3/1 17/4/1
f 18/1/2 20/2/2 19/3/2 24/4/2
f 20/1/3 21/2/3 17/3/3 19/4/3
f 22/1/4 18/2/4 24/3/4 23/4/4
f 17/5/5 23/6/5 24/7/5 19/8/5
f 20/5/6 18/9/6 22/10/6 21/11/6
f 25/1/1 32/2/1 26/3/1 27/4/1
f 31/1/2 30/2/2 29/3/2 28/4/2
f 30/1/3 25/2/3 27/3/3 29/4/3
f 32/1/4 31/2/4 28/3/4 26/4/4
f 27/5/5 26/6/5 28/7/5 29/8/5
f 30/5/6 31/9/6 32/10/6 25/11/6
f 34/12/7 35/13/7 37/14/7 54/15/7
f 36/12/8 33/13/8 40/14/8 39/15/8
f 33/12/9 34/13/9 54/16/9 40/17/9
f 35/12/10 36/13/10 39/16/10 37/17/10
f 54/12/5 37/13/5 39/18/5 40/19/5
f 33/12/6 36/13/6 35/18/6 34/19/6
f 42/12/7 41/13/7 45/20/7 43/21/7
f 39/12/8 40/13/8 38/20/8 46/21/8
f 40/12/9 42/22/9 43/23/9 38/24/9
f 41/12/10 39/22/10 46/23/10 45/24/10
f 40/12/6 39/13/6 41/14/6 42/15/6
f 43/12/11 45/13/11 48/25/11 44/26/11
f 46/12/12 38/13/12 49/25/12 47/26/12
f 38/27/13 43/12/13 44/28/13 49/29/13
f 45/30/14 46/31/14 47/32/14 48/33/14
f 44/12/5 48/13/5 47/14/5 49/15/5
f 54/12/7 53/34/7 50/35/7 58/36/7
f 51/12/8 42/34/8 56/35/8 52/36/8
f 42/12/9 54/13/9 58/37/9 56/38/9
f 53/12/10 51/13/10 52/37/10 50/38/10
f 42/12/6 51/39/6 53/40/6 54/41/6
f 58/12/15 50/34/15 55/42/15 59/43/15
f 52/44/16 56/45/16 60/46/16 57/47/16
f 56/12/17 58/13/17 59/48/17 60/49/17
f 50/12/18 52/13/18 57/48/18 55/49/18
f 59/12/5 55/50/5 57/51/5 60/52/5
f 61/12/7 37/34/7 65/35/7 64/36/7
f 41/12/8 63/34/8 67/35/8 62/36/8
f 63/12/9 61/13/9 64/37/9 67/38/9
f 37/12/10 41/13/10 62/37/10 65/38/10
f 63/12/6 41/39/6 37/40/6 61/41/6
f 64/12/15 65/34/15 70/42/15 66/43/15
f 62/44/16 67/45/16 68/46/16 69/47/16
f 67/12/17 64/13/17 66/48/17 68/49/17
f 65/12/18 62/13/18 69/48/18 70/49/18
f 66/12/5 70/50/5 69/51/5 68/52/5
f 73/12/7 75/13/7 78/53/7 74/54/7
f 71/12/8 72/13/8 76/53/8 79/54/8
f 72/12/9 73/13/9 74/55/9 76/56/9
f 75/12/10 71/13/10 79/55/10 78/56/10
f 72/12/6 71/13/6 75/57/6 73/58/6
f 74/12/19 78/13/19 80/59/19 81/60/19
f 79/12/20 76/13/20 77/59/20 82/60/20
f 76/12/21 74/13/21 81/61/21 77/62/21
f 78/12/22 79/13/22 82/61/22 80/62/22
f 81/12/5 80/13/5 82/57/5 77/58/5
f 83/12/23 84/13/23 91/63/23 90/64/23
f 87/12/24 85/13/24 86/63/24 88/64/24
f 85/12/9 83/65/9 90/66/9 86/67/9
f 84/12/10 87/65/10 88/66/10 91/67/10
f 85/12/25 87/13/25 84/68/25 83/69/25
f 90/12/26 91/13/26 92/70/26 89/71/26
f 88/12/27 86/13/27 94/70/27 93/71/27
f 86/12/28 90/65/28 89/72/28 94/73/28
f 91/12/29 88/65/29 93/72/29 92/73/29
f 89/12/30 92/74/30 93/75/30 94/76/30
f 95/12/7 98/13/7 102/53/7 101/54/7
f 100/12/8 96/13/8 97/53/8 99/54/8
f 96/12/9 95/13/9 101/55/9 97/56/9
f 98/12/10 100/13/10 99/55/10 102/56/10
f 96/12/6 100/13/6 98/57/6 95/58/6
f 101/12/19 102/13/19 106/59/19 103/60/19
f 99/12/20 97/13/20 105/59/20 104/60/20
f 97/12/21 101/13/21 103/61/21 105/62/21
f 102/12/22 99/13/22 104/61/22 106/62/22
f 103/12/5 106/13/5 104/57/5 105/58/5
f 108/12/23 111/13/23 112/63/23 109/64/23
f 110/12/24 107/13/24 115/63/24 114/64/24
f 107/12/9 108/65/9 109/66/9 115/67/9
f 111/12/10 110/65/10 114/66/10 112/67/10
f 107/12/25 110/13/25 111/68/25 108/69/25
f 109/12/26 112/13/26 116/70/26 113/71/26
f 114/12/27 115/13/27 118/70/27 117/71/27
f 115/12/28 109/65/28 113/72/28 118/73/28
f 112/12/29 114/65/29 117/72/29 116/73/29
f 113/12/30 116/74/30 117/75/30 118/76/30
f 121/12/7 122/13/7 128/53/7 124/54/7
f 123/12/8 119/13/8 120/53/8 126/54/8
f 119/12/9 121/13/9 124/55/9 120/56/9
f 122/12/10 123/13/10 126/55/10 128/56/10
f 119/12/6 123/13/6 122/57/6 121/58/6
f 124/12/19 128/13/19 130/59/19 125/60/19
f 126/12/20 120/13/20 127/59/20 129/60/20
f 120/12/21 124/13/21 125/61/21 127/62/21
f 128/12/22 126/13/22 129/61/22 130/62/22
f 125/12/5 130/13/5 129/57/5 127/58/5
f 136/12/23 134/13/23 131/63/23 137/64/23
f 135/12/24 132/13/24 133/63/24 139/64/24
f 132/12/9 136/65/9 137/66/9 133/67/9
f 134/12/10 135/65/10 139/66/10 131/67/10
f 132/12/25 135/13/25 134/68/25 136/69/25
f 137/12/26 131/13/26 141/70/26 142/71/26
f 139/12/27 133/13/27 138/70/27 140/71/27
f 133/12/28 137/65/28 142/72/28 138/73/28
f 131/12/29 139/65/29 140/72/29 141/73/29
f 142/12/30 141/74/30 140/75/30 138/76/30
