# Blender 4.5.14 LTS
# www.blender.org
mtllib stove_white.mtl
o stove_white
v 0.380000 0.100000 0.300000 0.8078 0.8078 0.8078
v 0.380000 0.900000 0.300000 0.9960 0.9960 0.9960
v 0.380000 0.100000 -0.300000 0.8117 0.8117 0.8117
v -0.380000 0.100000 -0.300000 0.8078 0.8078 0.8078
v -0.380000 0.100000 0.300000 0.8117 0.8117 0.8117
v -0.380000 0.900000 0.300000 1.0000 1.0000 1.0000
v 0.360000 0.000000 0.260000 0.7725 0.7725 0.7725
v 0.360000 0.100000 0.260000 0.7412 0.7412 0.7412
v -0.360000 0.100000 -0.300000 0.7882 0.7882 0.7882
v 0.360000 0.100000 -0.300000 0.7882 0.7882 0.7882
v -0.360000 0.000000 0.260000 0.7686 0.7686 0.7686
v -0.360000 0.100000 0.260000 0.7412 0.7412 0.7412
v -0.360000 0.000000 -0.300000 0.7725 0.7725 0.7725
v 0.360000 0.000000 -0.300000 0.7764 0.7764 0.7764
v 0.380000 0.900000 -0.240000 0.8509 0.8509 0.8509
v 0.380000 1.060000 -0.240000 0.9725 0.9725 0.9725
v -0.380000 1.060000 -0.240000 0.9804 0.9804 0.9804
v 0.380000 0.900000 -0.300000 0.9019 0.9019 0.9019
v -0.380000 0.900000 -0.300000 0.9019 0.9019 0.9019
v -0.380000 1.060000 -0.300000 1.0000 1.0000 1.0000
v -0.380000 0.900000 -0.240000 0.8627 0.8627 0.8627
v 0.380000 1.060000 -0.300000 1.0000 1.0000 1.0000
v -0.340000 0.730000 0.310000 0.8980 0.8980 0.8980
v 0.340000 0.730000 0.310000 0.8902 0.8902 0.8902
v 0.340000 0.870000 0.310000 0.9137 0.9137 0.9137
v -0.340000 0.870000 0.310000 0.9176 0.9176 0.9176
v 0.340000 0.730000 0.300000 0.8117 0.8117 0.8117
v -0.340000 0.870000 0.300000 0.8117 0.8117 0.8117
v 0.340000 0.870000 0.300000 0.8078 0.8078 0.8078
v -0.340000 0.730000 0.300000 0.8117 0.8117 0.8117
v 0.000000 0.900000 0.050000 0.8509 0.8509 0.8509
v 0.300000 1.000000 -0.250000 0.6667 0.6667 0.6667
v 0.000000 0.900000 -0.250000 0.7216 0.7216 0.7216
v 0.300000 0.900000 -0.250000 0.7059 0.7059 0.7059
v 0.300000 1.000000 0.050000 0.9529 0.9529 0.9529
v 0.000000 1.000000 0.050000 0.9098 0.9098 0.9098
v 0.000000 1.000000 -0.250000 0.6667 0.6667 0.6667
v 0.300000 0.900000 0.050000 0.8274 0.8274 0.8274
vn -0.0000 -0.0000 1.0000
vn -0.0000 -0.0000 -1.0000
vn -1.0000 -0.0000 -0.0000
vn 1.0000 -0.0000 -0.0000
vn -0.0000 1.0000 -0.0000
vn -0.0000 -1.0000 -0.0000
vt 0.875488 0.844238
vt 0.904248 0.844238
vt 0.904248 0.874512
vt 0.875488 0.874512
vt 0.898193 0.844238
vt 0.898193 0.874512
vt 0.625488 0.844238
vt 0.655762 0.844238
vt 0.655762 0.874512
vt 0.625488 0.874512
vt 0.905762 0.844238
vt 0.905762 0.868138
vt 0.875488 0.868138
vt 0.562988 0.844238
vt 0.593262 0.844238
vt 0.593262 0.848443
vt 0.562988 0.848443
vt 0.593262 0.849644
vt 0.562988 0.849644
vt 0.593262 0.867784
vt 0.562988 0.867784
vt 0.687988 0.805176
vt 0.718262 0.805176
vt 0.718262 0.812012
vt 0.687988 0.812012
vt 0.905762 0.850612
vt 0.875488 0.850612
vt 0.882754 0.844238
vt 0.882754 0.863613
vt 0.875488 0.863613
vt 0.905762 0.846628
vt 0.875488 0.846628
vt 0.905762 0.850471
vt 0.875488 0.850471
vt 0.876699 0.844238
vt 0.876699 0.861191
vt 0.875488 0.861191
vt 0.905762 0.844683
vt 0.875488 0.844683
vt 0.969238 0.844238
vt 0.999512 0.844238
vt 0.999512 0.854329
vt 0.969238 0.854329
vt 0.999512 0.874512
vt 0.969238 0.874512
s 0
usemtl props
f 5/1/1 1/2/1 2/3/1 6/4/1
f 3/1/2 4/2/2 19/3/2 18/4/2
f 4/1/3 5/5/3 6/6/3 19/4/3
f 1/1/4 3/5/4 18/6/4 2/4/4
f 6/7/5 2/8/5 18/9/5 19/10/5
f 4/1/6 3/11/6 1/12/6 5/13/6
f 11/14/1 7/15/1 8/16/1 12/17/1
f 14/14/2 13/15/2 9/16/2 10/17/2
f 13/14/3 11/15/3 12/18/3 9/19/3
f 7/14/4 14/15/4 10/18/4 8/19/4
f 12/14/5 8/15/5 10/20/5 9/21/5
f 13/14/6 14/15/6 7/20/6 11/21/6
f 21/22/1 15/23/1 16/24/1 17/25/1
f 18/1/2 19/11/2 20/26/2 22/27/2
f 19/1/3 21/28/3 17/29/3 20/30/3
f 15/1/4 18/28/4 22/29/4 16/30/4
f 17/1/5 16/11/5 22/31/5 20/32/5
f 19/1/6 18/11/6 15/31/6 21/32/6
f 23/22/1 24/23/1 25/24/1 26/25/1
f 27/1/2 30/11/2 28/33/2 29/34/2
f 30/1/3 23/35/3 26/36/3 28/37/3
f 24/1/4 27/35/4 29/36/4 25/37/4
f 26/1/5 25/11/5 29/38/5 28/39/5
f 30/1/6 27/11/6 24/38/6 23/39/6
f 31/40/1 38/41/1 35/42/1 36/43/1
f 34/40/2 33/41/2 37/42/2 32/43/2
f 33/40/3 31/41/3 36/42/3 37/43/3
f 38/40/4 34/41/4 32/42/4 35/43/4
f 36/40/5 35/41/5 32/44/5 37/45/5
f 33/40/6 34/41/6 38/44/6 31/45/6
o stove_white_door
v -0.350000 0.150000 0.330000 0.8157 0.8157 0.8157
v 0.350000 0.150000 0.330000 0.8196 0.8196 0.8196
v -0.350000 0.650000 0.300000 0.8235 0.8235 0.8235
v -0.350000 0.150000 0.300000 0.7490 0.7490 0.7490
v -0.350000 0.650000 0.330000 0.9372 0.9372 0.9372
v 0.350000 0.650000 0.330000 0.9333 0.9333 0.9333
v 0.350000 0.650000 0.300000 0.8235 0.8235 0.8235
v 0.350000 0.150000 0.300000 0.7490 0.7490 0.7490
vn -0.0000 -0.0000 1.0000
vn -0.0000 -0.0000 -1.0000
vn -1.0000 -0.0000 -0.0000
vn 1.0000 -0.0000 -0.0000
vn -0.0000 1.0000 -0.0000
vn -0.0000 -1.0000 -0.0000
vt 0.250488 0.781738
vt 0.280762 0.781738
vt 0.280762 0.812012
vt 0.250488 0.812012
vt 0.875488 0.844238
vt 0.905762 0.844238
vt 0.905762 0.865862
vt 0.875488 0.865862
vt 0.877305 0.844238
vt 0.877305 0.874512
vt 0.875488 0.874512
vt 0.905762 0.845536
vt 0.875488 0.845536
s 0
usemtl props
f 39/46/7 40/47/7 44/48/7 43/49/7
f 46/50/8 42/51/8 41/52/8 45/53/8
f 42/50/9 39/54/9 43/55/9 41/56/9
f 40/50/10 46/54/10 45/55/10 44/56/10
f 43/50/11 44/51/11 45/57/11 41/58/11
f 42/50/12 46/51/12 40/57/12 39/58/12
