# Blender 4.5.14 LTS
# www.blender.org
mtllib table_pine.mtl
o table_pine
v -0.600000 0.705000 0.400000 0.9725 0.9725 0.9725
v 0.600000 0.750000 0.400000 1.0000 1.0000 1.0000
v 0.600000 0.705000 -0.400000 0.9725 0.9725 0.9725
v -0.600000 0.705000 -0.400000 0.9725 0.9725 0.9725
v 0.600000 0.750000 -0.400000 1.0000 1.0000 1.0000
v 0.600000 0.705000 0.400000 0.9725 0.9725 0.9725
v -0.600000 0.750000 0.400000 1.0000 1.0000 1.0000
v -0.600000 0.750000 -0.400000 1.0000 1.0000 1.0000
v 0.550000 0.615000 0.350000 0.6667 0.6667 0.6667
v 0.550000 0.615000 -0.350000 0.6667 0.6667 0.6667
v -0.550000 0.615000 -0.350000 0.6667 0.6667 0.6667
v 0.550000 0.705000 -0.350000 0.6667 0.6667 0.6667
v -0.550000 0.615000 0.350000 0.6667 0.6667 0.6667
v -0.550000 0.705000 0.350000 0.6667 0.6667 0.6667
v -0.550000 0.705000 -0.350000 0.6667 0.6667 0.6667
v 0.550000 0.705000 0.350000 0.6667 0.6667 0.6667
v -0.500000 0.000000 0.300000 0.7804 0.7804 0.7804
v -0.575250 0.705000 0.294750 0.7725 0.7725 0.7725
v -0.575250 0.705000 0.375250 0.8078 0.8078 0.8078
v -0.494750 0.705000 0.294750 0.7412 0.7412 0.7412
v -0.494750 0.705000 0.375250 0.7725 0.7725 0.7725
v -0.570000 0.000000 0.300000 0.7764 0.7764 0.7764
v -0.500000 0.000000 0.370000 0.7764 0.7764 0.7764
v -0.570000 0.000000 0.370000 0.7764 0.7764 0.7764
v -0.494750 0.705000 -0.294750 0.7451 0.7451 0.7451
v -0.575250 0.705000 -0.294750 0.7764 0.7764 0.7764
v -0.570000 0.000000 -0.370000 0.7764 0.7764 0.7764
v -0.570000 0.000000 -0.300000 0.7764 0.7764 0.7764
v -0.494750 0.705000 -0.375250 0.7725 0.7725 0.7725
v -0.575250 0.705000 -0.375250 0.8039 0.8039 0.8039
v -0.500000 0.000000 -0.370000 0.7804 0.7804 0.7804
v -0.500000 0.000000 -0.300000 0.7764 0.7764 0.7764
v 0.500000 0.000000 0.370000 0.7764 0.7764 0.7764
v 0.570000 0.000000 0.370000 0.7764 0.7764 0.7764
v 0.494750 0.705000 0.375250 0.7764 0.7764 0.7764
v 0.494750 0.705000 0.294750 0.7451 0.7451 0.7451
v 0.570000 0.000000 0.300000 0.7804 0.7804 0.7804
v 0.575250 0.705000 0.375250 0.8078 0.8078 0.8078
v 0.575250 0.705000 0.294750 0.7725 0.7725 0.7725
v 0.500000 0.000000 0.300000 0.7764 0.7764 0.7764
v 0.500000 0.000000 -0.300000 0.7764 0.7764 0.7764
v 0.494750 0.705000 -0.294750 0.7412 0.7412 0.7412
v 0.570000 0.000000 -0.370000 0.7804 0.7804 0.7804
v 0.500000 0.000000 -0.370000 0.7764 0.7764 0.7764
v 0.494750 0.705000 -0.375250 0.7725 0.7725 0.7725
v 0.570000 0.000000 -0.300000 0.7764 0.7764 0.7764
v 0.575250 0.705000 -0.375250 0.8078 0.8078 0.8078
v 0.575250 0.705000 -0.294750 0.7725 0.7725 0.7725
vn -0.0000 -0.0000 1.0000
vn -0.0000 -0.0000 -1.0000
vn -1.0000 -0.0000 -0.0000
vn 1.0000 -0.0000 -0.0000
vn -0.0000 1.0000 -0.0000
vn -0.0000 -1.0000 -0.0000
vn -0.0000 -0.0074 1.0000
vn -0.0000 -0.0074 -1.0000
vn -1.0000 -0.0074 -0.0000
vn 1.0000 -0.0074 -0.0000
vt 0.000488 0.812988
vt 0.062012 0.812988
vt 0.062012 0.815295
vt 0.000488 0.815295
vt 0.062012 0.816449
vt 0.000488 0.816449
vt 0.062012 0.854004
vt 0.000488 0.854004
vt 0.062012 0.818022
vt 0.000488 0.818022
vt 0.062012 0.820898
vt 0.000488 0.820898
vt 0.000946 0.812988
vt 0.007055 0.812988
vt 0.007513 0.874512
vt 0.000488 0.874512
vt 0.010394 0.812988
vt 0.010394 0.822894
vt 0.000488 0.822894
vt 0.009102 0.812988
vt 0.009102 0.821602
vt 0.000488 0.821602
s 0
usemtl props
f 1/1/1 6/2/1 2/3/1 7/4/1
f 3/1/2 4/2/2 8/3/2 5/4/2
f 4/1/3 1/2/3 7/5/3 8/6/3
f 6/1/4 3/2/4 5/5/4 2/6/4
f 7/1/5 2/2/5 5/7/5 8/8/5
f 4/1/6 3/2/6 6/7/6 1/8/6
f 13/1/1 9/2/1 16/9/1 14/10/1
f 10/1/2 11/2/2 15/9/2 12/10/2
f 11/1/3 13/2/3 14/11/3 15/12/3
f 9/1/4 10/2/4 12/11/4 16/12/4
f 24/13/7 23/14/7 21/15/7 19/16/7
f 17/13/8 22/14/8 18/15/8 20/16/8
f 22/13/9 24/14/9 19/15/9 18/16/9
f 23/13/10 17/14/10 20/15/10 21/16/10
f 19/1/5 21/17/5 20/18/5 18/19/5
f 22/1/6 17/20/6 23/21/6 24/22/6
f 28/13/7 32/14/7 25/15/7 26/16/7
f 31/13/8 27/14/8 30/15/8 29/16/8
f 27/13/9 28/14/9 26/15/9 30/16/9
f 32/13/10 31/14/10 29/15/10 25/16/10
f 26/1/5 25/17/5 29/18/5 30/19/5
f 27/1/6 31/20/6 32/21/6 28/22/6
f 33/13/7 34/14/7 38/15/7 35/16/7
f 37/13/8 40/14/8 36/15/8 39/16/8
f 40/13/9 33/14/9 35/15/9 36/16/9
f 34/13/10 37/14/10 39/15/10 38/16/10
f 35/1/5 38/17/5 39/18/5 36/19/5
f 40/1/6 37/20/6 34/21/6 33/22/6
f 41/13/7 46/14/7 48/15/7 42/16/7
f 43/13/8 44/14/8 45/15/8 47/16/8
f 44/13/9 41/14/9 42/15/9 45/16/9
f 46/13/10 43/14/10 47/15/10 48/16/10
f 42/1/5 48/17/5 47/18/5 45/19/5
f 44/1/6 43/20/6 46/21/6 41/22/6
