# Blender 4.5.14 LTS
# www.blender.org
mtllib table_lamp_jar.mtl
o table_lamp_jar
v 0.070000 0.000000 0.000000 0.7216 0.7216 0.7216
v 0.000000 0.000000 0.000000 0.6667 0.6667 0.6667
v 0.000000 0.000000 -0.070000 0.7216 0.7216 0.7216
v 0.049497 0.000000 -0.049497 0.7216 0.7216 0.7216
v -0.049497 0.000000 -0.049497 0.7216 0.7216 0.7216
v -0.070711 0.080000 -0.070711 0.8902 0.8902 0.8902
v -0.070000 0.000000 -0.000000 0.7216 0.7216 0.7216
v -0.100000 0.080000 -0.000000 0.8902 0.8902 0.8902
v -0.049497 0.000000 0.049497 0.7216 0.7216 0.7216
v -0.000000 0.000000 0.070000 0.7216 0.7216 0.7216
v 0.049497 0.000000 0.049497 0.7216 0.7216 0.7216
v 0.100000 0.080000 0.000000 0.8902 0.8902 0.8902
v 0.070711 0.080000 -0.070711 0.8902 0.8902 0.8902
v 0.000000 0.200000 -0.090000 0.9333 0.9333 0.9333
v 0.000000 0.080000 -0.100000 0.8941 0.8941 0.8941
v -0.063640 0.200000 -0.063640 0.9333 0.9333 0.9333
v -0.090000 0.200000 -0.000000 0.9372 0.9372 0.9372
v -0.070711 0.080000 0.070711 0.8941 0.8941 0.8941
v -0.000000 0.080000 0.100000 0.8941 0.8941 0.8941
v 0.070711 0.080000 0.070711 0.8902 0.8902 0.8902
v 0.063640 0.200000 0.063640 0.9372 0.9372 0.9372
v -0.000000 0.200000 0.090000 0.9333 0.9333 0.9333
v 0.090000 0.200000 0.000000 0.9333 0.9333 0.9333
v 0.040000 0.260000 0.000000 0.7882 0.7882 0.7882
v 0.063640 0.200000 -0.063640 0.9294 0.9294 0.9294
v 0.000000 0.260000 -0.040000 0.7921 0.7921 0.7921
v -0.063640 0.200000 0.063640 0.9294 0.9294 0.9294
v -0.040000 0.260000 -0.000000 0.8000 0.8000 0.8000
v -0.028284 0.260000 0.028284 0.8000 0.8000 0.8000
v 0.028284 0.260000 0.028284 0.7960 0.7960 0.7960
v -0.000000 0.260000 0.040000 0.8039 0.8039 0.8039
v 0.028284 0.260000 -0.028284 0.8000 0.8000 0.8000
v 0.020000 0.280000 0.000000 0.7529 0.7529 0.7529
v 0.014142 0.280000 -0.014142 0.7451 0.7451 0.7451
v 0.000000 0.280000 -0.020000 0.7568 0.7568 0.7568
v -0.028284 0.260000 -0.028284 0.7960 0.7960 0.7960
v -0.014142 0.280000 -0.014142 0.7568 0.7568 0.7568
v -0.014142 0.280000 0.014142 0.7568 0.7568 0.7568
v -0.020000 0.280000 -0.000000 0.7568 0.7568 0.7568
v -0.000000 0.280000 0.020000 0.7568 0.7568 0.7568
v 0.014142 0.280000 0.014142 0.7608 0.7608 0.7608
v 0.010000 0.260000 0.000000 0.7020 0.7020 0.7020
v -0.010000 0.260000 -0.000000 0.7059 0.7059 0.7059
v -0.010000 0.360000 -0.000000 0.6667 0.6667 0.6667
v -0.000000 0.360000 0.010000 0.6667 0.6667 0.6667
v 0.010000 0.360000 0.000000 0.6667 0.6667 0.6667
v 0.000000 0.360000 -0.010000 0.6667 0.6667 0.6667
v -0.000000 0.260000 0.010000 0.7020 0.7020 0.7020
v 0.000000 0.260000 -0.010000 0.7059 0.7059 0.7059
v 0.120208 0.280000 -0.120208 1.0000 1.0000 1.0000
v 0.070711 0.460000 -0.070711 1.0000 1.0000 1.0000
v 0.000000 0.280000 -0.170000 1.0000 1.0000 1.0000
v 0.000000 0.460000 -0.100000 1.0000 1.0000 1.0000
v -0.120208 0.280000 -0.120208 1.0000 1.0000 1.0000
v -0.170000 0.280000 -0.000000 1.0000 1.0000 1.0000
v -0.100000 0.460000 -0.000000 1.0000 1.0000 1.0000
v -0.070711 0.460000 -0.070711 1.0000 1.0000 1.0000
v -0.070711 0.460000 0.070711 1.0000 1.0000 1.0000
v -0.120208 0.280000 0.120208 1.0000 1.0000 1.0000
v -0.000000 0.280000 0.170000 1.0000 1.0000 1.0000
v 0.070711 0.460000 0.070711 1.0000 1.0000 1.0000
v -0.000000 0.460000 0.100000 1.0000 1.0000 1.0000
v 0.120208 0.280000 0.120208 1.0000 1.0000 1.0000
v 0.170000 0.280000 0.000000 1.0000 1.0000 1.0000
v 0.100000 0.460000 0.000000 1.0000 1.0000 1.0000
v -0.012500 0.320000 -0.021651 0.8117 0.8117 0.8117
v -0.025000 0.320000 -0.000000 0.8000 0.8000 0.8000
v -0.012500 0.380000 0.021651 0.7764 0.7764 0.7764
v -0.012500 0.320000 0.021651 0.8078 0.8078 0.8078
v 0.012500 0.320000 0.021651 0.8000 0.8000 0.8000
v 0.012500 0.380000 0.021651 0.7764 0.7764 0.7764
v 0.025000 0.380000 0.000000 0.7804 0.7804 0.7804
v 0.012500 0.380000 -0.021651 0.7843 0.7843 0.7843
v -0.012500 0.380000 -0.021651 0.7764 0.7764 0.7764
v -0.025000 0.380000 -0.000000 0.7686 0.7686 0.7686
v 0.012500 0.320000 -0.021651 0.8039 0.8039 0.8039
v 0.025000 0.320000 0.000000 0.8039 0.8039 0.8039
vn -0.0000 -1.0000 -0.0000
vn 0.9363 -0.3511 -0.0000
vn 0.6621 -0.3511 -0.6621
vn 0.7010 -0.1306 -0.7010
vn 0.9914 -0.1306 -0.0000
vn -0.0000 -0.3511 -0.9363
vn -0.0000 -0.1306 -0.9914
vn -0.6621 -0.3511 -0.6621
vn -0.7010 -0.1306 -0.7010
vn -0.9363 -0.3511 -0.0000
vn -0.9914 -0.1306 -0.0000
vn -0.6621 -0.3511 0.6621
vn -0.7010 -0.1306 0.7010
vn -0.0000 -0.3511 0.9363
vn -0.0000 -0.1306 0.9914
vn 0.6621 -0.3511 0.6621
vn 0.7010 -0.1306 0.7010
vn 0.6609 0.3556 -0.6609
vn 0.9346 0.3556 -0.0000
vn -0.0000 0.3556 -0.9346
vn -0.6609 0.3556 -0.6609
vn -0.9346 0.3556 -0.0000
vn -0.6609 0.3556 0.6609
vn -0.0000 0.3556 0.9346
vn 0.6609 0.3556 0.6609
vn 0.5257 0.6688 -0.5257
vn 0.7434 0.6688 -0.0000
vn -0.0000 0.6688 -0.7434
vn -0.5257 0.6688 -0.5257
vn -0.7434 0.6688 -0.0000
vn -0.5257 0.6688 0.5257
vn -0.0000 0.6688 0.7434
vn 0.5257 0.6688 0.5257
vn 0.5000 0.7071 -0.5000
vn 0.7071 0.7071 -0.0000
vn -0.0000 0.7071 -0.7071
vn -0.5000 0.7071 -0.5000
vn -0.7071 0.7071 -0.0000
vn -0.5000 0.7071 0.5000
vn -0.0000 0.7071 0.7071
vn 0.5000 0.7071 0.5000
vn 0.7071 -0.0000 -0.7071
vn -0.7071 -0.0000 -0.7071
vn -0.7071 -0.0000 0.7071
vn 0.7071 -0.0000 0.7071
vn -0.0000 1.0000 -0.0000
vn 0.9320 0.3624 -0.0000
vn 0.6590 0.3624 -0.6590
vn -0.0000 0.3624 -0.9320
vn -0.6590 0.3624 -0.6590
vn -0.9320 0.3624 -0.0000
vn -0.6590 0.3624 0.6590
vn -0.0000 0.3624 0.9320
vn 0.6590 0.3624 0.6590
vn 0.8660 -0.0000 -0.5000
vn -0.0000 -0.0000 -1.0000
vn -0.8660 -0.0000 -0.5000
vn -0.8660 -0.0000 0.5000
vn -0.0000 -0.0000 1.0000
vn 0.8660 -0.0000 0.5000
vt 0.846130 0.844238
vt 0.848022 0.849782
vt 0.844238 0.849782
vt 0.849915 0.844238
vt 0.851807 0.849782
vt 0.853699 0.844238
vt 0.855591 0.849782
vt 0.857483 0.844238
vt 0.859375 0.849782
vt 0.861267 0.844238
vt 0.863159 0.849782
vt 0.865051 0.844238
vt 0.866943 0.849782
vt 0.868835 0.844238
vt 0.870728 0.849782
vt 0.872620 0.844238
vt 0.874512 0.849782
vt 0.848022 0.856549
vt 0.844238 0.856549
vt 0.851807 0.856549
vt 0.855591 0.856549
vt 0.859375 0.856549
vt 0.863159 0.856549
vt 0.866943 0.856549
vt 0.870728 0.856549
vt 0.874512 0.856549
vt 0.848022 0.866086
vt 0.844238 0.866086
vt 0.851807 0.866086
vt 0.855591 0.866086
vt 0.859375 0.866086
vt 0.863159 0.866086
vt 0.866943 0.866086
vt 0.870728 0.866086
vt 0.874512 0.866086
vt 0.848022 0.872272
vt 0.844238 0.872272
vt 0.851807 0.872272
vt 0.855591 0.872272
vt 0.859375 0.872272
vt 0.863159 0.872272
vt 0.866943 0.872272
vt 0.870728 0.872272
vt 0.874512 0.872272
vt 0.848022 0.874512
vt 0.844238 0.874512
vt 0.851807 0.874512
vt 0.855591 0.874512
vt 0.859375 0.874512
vt 0.863159 0.874512
vt 0.866943 0.874512
vt 0.870728 0.874512
vt 0.874512 0.874512
vt 0.594238 0.844238
vt 0.601807 0.844238
vt 0.601807 0.874512
vt 0.594238 0.874512
vt 0.609375 0.844238
vt 0.609375 0.874512
vt 0.616943 0.844238
vt 0.616943 0.874512
vt 0.624512 0.844238
vt 0.624512 0.874512
vt 0.624512 0.859375
vt 0.594238 0.859375
vt 0.219238 0.781738
vt 0.223022 0.781738
vt 0.223022 0.812012
vt 0.219238 0.812012
vt 0.226807 0.781738
vt 0.226807 0.812012
vt 0.230591 0.781738
vt 0.230591 0.812012
vt 0.234375 0.781738
vt 0.234375 0.812012
vt 0.238159 0.781738
vt 0.238159 0.812012
vt 0.241943 0.781738
vt 0.241943 0.812012
vt 0.245728 0.781738
vt 0.245728 0.812012
vt 0.249512 0.781738
vt 0.249512 0.812012
vt 0.719238 0.805176
vt 0.720378 0.805176
vt 0.720378 0.812012
vt 0.719238 0.812012
vt 0.721517 0.805176
vt 0.721517 0.812012
vt 0.722656 0.805176
vt 0.722656 0.812012
vt 0.723796 0.805176
vt 0.723796 0.812012
vt 0.724935 0.805176
vt 0.724935 0.812012
vt 0.726074 0.805176
vt 0.726074 0.812012
vt 0.726074 0.808594
vt 0.724365 0.812012
vt 0.720947 0.812012
vt 0.719238 0.808594
vt 0.720947 0.805176
vt 0.724365 0.805176
s 1
usemtl props
f 2/1/1 4/2/1 1/3/1
f 2/4/1 3/5/1 4/2/1
f 2/6/1 5/7/1 3/5/1
f 2/8/1 7/9/1 5/7/1
f 2/10/1 9/11/1 7/9/1
f 2/12/1 10/13/1 9/11/1
f 2/14/1 11/15/1 10/13/1
f 2/16/1 1/17/1 11/15/1
f 1/3/2 4/2/3 13/18/4 12/19/5
f 4/2/3 3/5/6 15/20/7 13/18/4
f 3/5/6 5/7/8 6/21/9 15/20/7
f 5/7/8 7/9/10 8/22/11 6/21/9
f 7/9/10 9/11/12 18/23/13 8/22/11
f 9/11/12 10/13/14 19/24/15 18/23/13
f 10/13/14 11/15/16 20/25/17 19/24/15
f 11/15/16 1/17/2 12/26/5 20/25/17
f 12/19/5 13/18/4 25/27/18 23/28/19
f 13/18/4 15/20/7 14/29/20 25/27/18
f 15/20/7 6/21/9 16/30/21 14/29/20
f 6/21/9 8/22/11 17/31/22 16/30/21
f 8/22/11 18/23/13 27/32/23 17/31/22
f 18/23/13 19/24/15 22/33/24 27/32/23
f 19/24/15 20/25/17 21/34/25 22/33/24
f 20/25/17 12/26/5 23/35/19 21/34/25
f 23/28/19 25/27/18 32/36/26 24/37/27
f 25/27/18 14/29/20 26/38/28 32/36/26
f 14/29/20 16/30/21 36/39/29 26/38/28
f 16/30/21 17/31/22 28/40/30 36/39/29
f 17/31/22 27/32/23 29/41/31 28/40/30
f 27/32/23 22/33/24 31/42/32 29/41/31
f 22/33/24 21/34/25 30/43/33 31/42/32
f 21/34/25 23/35/19 24/44/27 30/43/33
f 24/37/27 32/36/26 34/45/34 33/46/35
f 32/36/26 26/38/28 35/47/36 34/45/34
f 26/38/28 36/39/29 37/48/37 35/47/36
f 36/39/29 28/40/30 39/49/38 37/48/37
f 28/40/30 29/41/31 38/50/39 39/49/38
f 29/41/31 31/42/32 40/51/40 38/50/39
f 31/42/32 30/43/33 41/52/41 40/51/40
f 30/43/33 24/44/27 33/53/35 41/52/41
f 42/54/42 49/55/42 47/56/42 46/57/42
f 49/55/43 43/58/43 44/59/43 47/56/43
f 43/58/44 48/60/44 45/61/44 44/59/44
f 48/60/45 42/62/45 46/63/45 45/61/45
s 0
f 46/64/46 47/59/46 44/65/46 45/58/46
f 48/59/1 43/65/1 49/58/1 42/64/1
s 1
f 64/66/47 50/67/48 51/68/48 65/69/47
f 50/67/48 52/70/49 53/71/49 51/68/48
f 52/70/49 54/72/50 57/73/50 53/71/49
f 54/72/50 55/74/51 56/75/51 57/73/50
f 55/74/51 59/76/52 58/77/52 56/75/51
f 59/76/52 60/78/53 62/79/53 58/77/52
f 60/78/53 63/80/54 61/81/54 62/79/53
f 63/80/54 64/82/47 65/83/47 61/81/54
f 77/84/55 76/85/55 73/86/55 72/87/55
f 76/85/56 66/88/56 74/89/56 73/86/56
f 66/88/57 67/90/57 75/91/57 74/89/57
f 67/90/58 69/92/58 68/93/58 75/91/58
f 69/92/59 70/94/59 71/95/59 68/93/59
f 70/94/60 77/96/60 72/97/60 71/95/60
s 0
f 72/98/46 73/99/46 74/100/46 75/101/46 68/102/46 71/103/46
f 70/99/1 69/100/1 67/101/1 66/102/1 76/103/1 77/98/1
