# Blender 4.5.14 LTS
# www.blender.org
mtllib trash_bag.mtl
o trash_bag
v 0.141421 0.020000 -0.113137 0.7372 0.7372 0.7372
v 0.000000 0.020000 -0.160000 0.7412 0.7412 0.7412
v -0.200000 0.020000 -0.000000 0.7333 0.7333 0.7333
v -0.141421 0.020000 -0.113137 0.7372 0.7372 0.7372
v 0.141421 0.020000 0.113137 0.7412 0.7412 0.7412
v 0.000000 0.000000 0.000000 0.6667 0.6667 0.6667
v 0.240000 0.150000 0.000000 0.9411 0.9411 0.9411
v 0.000000 0.150000 -0.192000 0.9451 0.9451 0.9451
v 0.169706 0.150000 -0.135764 0.9411 0.9411 0.9411
v -0.141421 0.020000 0.113137 0.7372 0.7372 0.7372
v -0.000000 0.020000 0.160000 0.7412 0.7412 0.7412
v -0.169706 0.150000 0.135764 0.9411 0.9411 0.9411
v 0.169706 0.150000 0.135764 0.9411 0.9411 0.9411
v -0.000000 0.150000 0.192000 0.9411 0.9411 0.9411
v 0.200000 0.020000 0.000000 0.7372 0.7372 0.7372
v 0.200000 0.350000 0.000000 1.0000 1.0000 1.0000
v -0.169706 0.150000 -0.135764 0.9451 0.9451 0.9451
v -0.141421 0.350000 -0.113137 1.0000 1.0000 1.0000
v -0.240000 0.150000 -0.000000 0.9451 0.9451 0.9451
v 0.141421 0.350000 -0.113137 1.0000 1.0000 1.0000
v 0.000000 0.350000 -0.160000 1.0000 1.0000 1.0000
v 0.000000 0.450000 -0.064000 0.9921 0.9921 0.9921
v -0.200000 0.350000 -0.000000 1.0000 1.0000 1.0000
v -0.141421 0.350000 0.113137 1.0000 1.0000 1.0000
v -0.000000 0.350000 0.160000 1.0000 1.0000 1.0000
v 0.141421 0.350000 0.113137 1.0000 1.0000 1.0000
v 0.080000 0.450000 0.000000 1.0000 1.0000 1.0000
v 0.056569 0.450000 -0.045255 1.0000 1.0000 1.0000
v 0.000000 0.500000 -0.016000 0.9294 0.9294 0.9294
v -0.056569 0.450000 -0.045255 0.9960 0.9960 0.9960
v -0.014142 0.500000 -0.011314 0.9215 0.9215 0.9215
v -0.080000 0.450000 -0.000000 0.9960 0.9960 0.9960
v -0.056569 0.450000 0.045255 0.9960 0.9960 0.9960
v -0.000000 0.450000 0.064000 1.0000 1.0000 1.0000
v -0.000000 0.500000 0.016000 0.9215 0.9215 0.9215
v 0.056569 0.450000 0.045255 0.9921 0.9921 0.9921
v 0.020000 0.500000 0.000000 0.9176 0.9176 0.9176
v 0.014142 0.500000 -0.011314 0.9255 0.9255 0.9255
v -0.020000 0.500000 -0.000000 0.9215 0.9215 0.9215
v 0.000000 0.520000 0.000000 0.6667 0.6667 0.6667
v -0.014142 0.500000 0.011314 0.9215 0.9215 0.9215
v 0.014142 0.500000 0.011314 0.9215 0.9215 0.9215
v 0.012361 0.530000 -0.030434 0.9451 0.9451 0.9451
v -0.032361 0.530000 0.018809 0.9411 0.9411 0.9411
v 0.000000 0.500000 0.000000 0.7882 0.7882 0.7882
v 0.040000 0.530000 0.000000 0.9451 0.9451 0.9451
v 0.012361 0.530000 0.030434 0.9451 0.9451 0.9451
v -0.032361 0.530000 -0.018809 0.9451 0.9451 0.9451
v 0.000000 0.580000 0.000000 1.0000 1.0000 1.0000
vn -0.0000 -1.0000 -0.0000
vn 0.0749 -0.9938 -0.0820
vn 0.0995 -0.9950 -0.0000
vn -0.0000 -0.9923 -0.1240
vn -0.0749 -0.9938 -0.0820
vn -0.0995 -0.9950 -0.0000
vn -0.0749 -0.9938 0.0820
vn -0.0000 -0.9923 0.1240
vn 0.0749 -0.9938 0.0820
vn 0.8566 -0.2636 -0.4435
vn 0.6164 -0.2633 -0.7421
vn 0.6556 -0.0434 -0.7538
vn 0.8872 -0.0420 -0.4594
vn -0.0000 -0.2390 -0.9710
vn -0.0000 -0.0398 -0.9992
vn -0.6164 -0.2633 -0.7421
vn -0.6556 -0.0434 -0.7538
vn -0.8566 -0.2636 -0.4435
vn -0.8872 -0.0420 -0.4594
vn -0.8566 -0.2636 0.4435
vn -0.6164 -0.2633 0.7421
vn -0.6556 -0.0434 0.7538
vn -0.8872 -0.0420 0.4594
vn -0.0000 -0.2390 0.9710
vn -0.0000 -0.0398 0.9992
vn 0.6164 -0.2633 0.7421
vn 0.6556 -0.0434 0.7538
vn 0.8566 -0.2636 0.4435
vn 0.8872 -0.0420 0.4594
vn 0.5831 0.4483 -0.6775
vn 0.8814 0.4725 -0.0000
vn -0.0000 0.4233 -0.9060
vn -0.5831 0.4483 -0.6775
vn -0.8814 0.4725 -0.0000
vn -0.5831 0.4483 0.6775
vn -0.0000 0.4233 0.9060
vn 0.5831 0.4483 0.6775
vn 0.4364 0.7286 -0.5279
vn 0.6402 0.7682 -0.0000
vn -0.0000 0.6925 -0.7214
vn -0.4364 0.7286 -0.5279
vn -0.6402 0.7682 -0.0000
vn -0.4364 0.7286 0.5279
vn -0.0000 0.6925 0.7214
vn 0.4364 0.7286 0.5279
vn 0.4541 0.7022 -0.5483
vn 0.6668 0.7452 -0.0000
vn -0.0000 0.6638 -0.7479
vn -0.4541 0.7022 -0.5483
vn -0.6668 0.7452 -0.0000
vn -0.4541 0.7022 0.5483
vn -0.0000 0.6638 0.7479
vn 0.4541 0.7022 0.5483
vn -0.0000 1.0000 -0.0000
vn 0.1523 -0.7341 -0.6617
vn 0.2041 -0.7373 -0.6440
vn 0.5269 -0.7025 -0.4785
vn -0.1890 -0.6599 -0.7272
vn -0.6799 -0.7333 -0.0000
vn 0.1523 -0.7341 0.6617
vn 0.2041 -0.7373 0.6440
vn -0.1890 -0.6599 0.7272
vn 0.5269 -0.7025 0.4785
vn 0.6370 0.5096 -0.5785
vn -0.2226 0.4662 -0.8562
vn -0.8395 0.5433 -0.0000
vn -0.2226 0.4662 0.8562
vn 0.6370 0.5096 0.5785
vt 0.471130 0.781738
vt 0.473022 0.789311
vt 0.469238 0.789311
vt 0.474915 0.781738
vt 0.476807 0.789311
vt 0.478699 0.781738
vt 0.480591 0.789311
vt 0.482483 0.781738
vt 0.484375 0.789311
vt 0.486267 0.781738
vt 0.488159 0.789311
vt 0.490051 0.781738
vt 0.491943 0.789311
vt 0.493835 0.781738
vt 0.495728 0.789311
vt 0.497620 0.781738
vt 0.499512 0.789311
vt 0.473022 0.794435
vt 0.469238 0.794435
vt 0.476807 0.794435
vt 0.480591 0.794435
vt 0.484375 0.794435
vt 0.488159 0.794435
vt 0.491943 0.794435
vt 0.495728 0.794435
vt 0.499512 0.794435
vt 0.473022 0.802119
vt 0.469238 0.802119
vt 0.476807 0.802119
vt 0.480591 0.802119
vt 0.484375 0.802119
vt 0.488159 0.802119
vt 0.491943 0.802119
vt 0.495728 0.802119
vt 0.499512 0.802119
vt 0.473022 0.808004
vt 0.469238 0.808004
vt 0.476807 0.808004
vt 0.480591 0.808004
vt 0.484375 0.808004
vt 0.488159 0.808004
vt 0.491943 0.808004
vt 0.495728 0.808004
vt 0.499512 0.808004
vt 0.473022 0.810946
vt 0.469238 0.810946
vt 0.476807 0.810946
vt 0.480591 0.810946
vt 0.484375 0.810946
vt 0.488159 0.810946
vt 0.491943 0.810946
vt 0.495728 0.810946
vt 0.499512 0.810946
vt 0.471130 0.812012
vt 0.474915 0.812012
vt 0.478699 0.812012
vt 0.482483 0.812012
vt 0.486267 0.812012
vt 0.490051 0.812012
vt 0.493835 0.812012
vt 0.497620 0.812012
vt 0.472266 0.781738
vt 0.475293 0.795012
vt 0.469238 0.795012
vt 0.478320 0.781738
vt 0.481348 0.795012
vt 0.484375 0.781738
vt 0.487402 0.795012
vt 0.490430 0.781738
vt 0.493457 0.795012
vt 0.496484 0.781738
vt 0.499512 0.795012
vt 0.472266 0.812012
vt 0.478320 0.812012
vt 0.484375 0.812012
vt 0.490430 0.812012
vt 0.496484 0.812012
s 1
usemtl props
f 6/1/1 1/2/2 15/3/3
f 6/4/1 2/5/4 1/2/2
f 6/6/1 4/7/5 2/5/4
f 6/8/1 3/9/6 4/7/5
f 6/10/1 10/11/7 3/9/6
f 6/12/1 11/13/8 10/11/7
f 6/14/1 5/15/9 11/13/8
f 6/16/1 15/17/3 5/15/9
f 15/3/10 1/2/11 9/18/12 7/19/13
f 1/2/11 2/5/14 8/20/15 9/18/12
f 2/5/14 4/7/16 17/21/17 8/20/15
f 4/7/16 3/9/18 19/22/19 17/21/17
f 3/9/20 10/11/21 12/23/22 19/22/23
f 10/11/21 11/13/24 14/24/25 12/23/22
f 11/13/24 5/15/26 13/25/27 14/24/25
f 5/15/26 15/17/28 7/26/29 13/25/27
f 7/19/13 9/18/12 20/27/30 16/28/31
f 9/18/12 8/20/15 21/29/32 20/27/30
f 8/20/15 17/21/17 18/30/33 21/29/32
f 17/21/17 19/22/19 23/31/34 18/30/33
f 19/22/23 12/23/22 24/32/35 23/31/34
f 12/23/22 14/24/25 25/33/36 24/32/35
f 14/24/25 13/25/27 26/34/37 25/33/36
f 13/25/27 7/26/29 16/35/31 26/34/37
f 16/28/31 20/27/30 28/36/38 27/37/39
f 20/27/30 21/29/32 22/38/40 28/36/38
f 21/29/32 18/30/33 30/39/41 22/38/40
f 18/30/33 23/31/34 32/40/42 30/39/41
f 23/31/34 24/32/35 33/41/43 32/40/42
f 24/32/35 25/33/36 34/42/44 33/41/43
f 25/33/36 26/34/37 36/43/45 34/42/44
f 26/34/37 16/35/31 27/44/39 36/43/45
f 27/37/39 28/36/38 38/45/46 37/46/47
f 28/36/38 22/38/40 29/47/48 38/45/46
f 22/38/40 30/39/41 31/48/49 29/47/48
f 30/39/41 32/40/42 39/49/50 31/48/49
f 32/40/42 33/41/43 41/50/51 39/49/50
f 33/41/43 34/42/44 35/51/52 41/50/51
f 34/42/44 36/43/45 42/52/53 35/51/52
f 36/43/45 27/44/39 37/53/47 42/52/53
f 37/46/47 38/45/46 40/54/54
f 38/45/46 29/47/48 40/55/54
f 29/47/48 31/48/49 40/56/54
f 31/48/49 39/49/50 40/57/54
f 39/49/50 41/50/51 40/58/54
f 41/50/51 35/51/52 40/59/54
f 35/51/52 42/52/53 40/60/54
f 42/52/53 37/53/47 40/61/54
f 45/62/55 43/63/56 46/64/57
f 45/65/55 48/66/58 43/63/56
f 45/67/59 44/68/59 48/66/59
f 45/69/60 47/70/61 44/68/62
f 45/71/60 46/72/63 47/70/61
f 46/64/64 43/63/64 49/73/64
f 43/63/65 48/66/65 49/74/65
f 48/66/66 44/68/66 49/75/66
f 44/68/67 47/70/67 49/76/67
f 47/70/68 46/72/68 49/77/68
