# Blender 4.5.14 LTS
# www.blender.org
mtllib tv.mtl
o tv
v -0.270000 0.000000 0.080000 0.7764 0.7764 0.7764
v 0.270000 0.400000 0.000000 0.9843 0.9843 0.9843
v -0.270000 0.000000 0.000000 0.7647 0.7647 0.7647
v -0.270000 0.400000 0.080000 1.0000 1.0000 1.0000
v 0.270000 0.000000 0.080000 0.7764 0.7764 0.7764
v 0.270000 0.000000 0.000000 0.7725 0.7725 0.7725
v 0.270000 0.400000 0.080000 0.9960 0.9960 0.9960
v -0.270000 0.400000 0.000000 0.9843 0.9843 0.9843
v -0.229500 0.380000 0.000000 0.8196 0.8196 0.8196
v 0.126225 0.303500 -0.320000 0.9921 0.9921 0.9921
v -0.126225 0.116500 -0.320000 0.8353 0.8353 0.8353
v -0.229500 0.040000 -0.000000 0.7137 0.7137 0.7137
v 0.229500 0.040000 -0.000000 0.7137 0.7137 0.7137
v -0.126225 0.303500 -0.320000 0.9921 0.9921 0.9921
v 0.126225 0.116500 -0.320000 0.8392 0.8392 0.8392
v 0.229500 0.380000 0.000000 0.8157 0.8157 0.8157
v 0.162000 0.050000 0.090000 0.7686 0.7686 0.7686
v -0.238000 0.350000 0.090000 0.9137 0.9137 0.9137
v 0.162000 0.050000 0.080000 0.7020 0.7020 0.7020
v -0.238000 0.350000 0.080000 0.7764 0.7764 0.7764
v 0.162000 0.350000 0.080000 0.7647 0.7647 0.7647
v -0.238000 0.050000 0.090000 0.7764 0.7764 0.7764
v 0.162000 0.350000 0.090000 0.8902 0.8902 0.8902
v -0.238000 0.050000 0.080000 0.7059 0.7059 0.7059
v 0.190000 0.060000 0.085000 0.7608 0.7608 0.7608
v 0.190000 0.180000 0.085000 0.8353 0.8353 0.8353
v 0.238000 0.060000 0.080000 0.7059 0.7059 0.7059
v 0.238000 0.180000 0.080000 0.7529 0.7529 0.7529
v 0.238000 0.180000 0.085000 0.8509 0.8509 0.8509
v 0.190000 0.180000 0.080000 0.7372 0.7372 0.7372
v 0.190000 0.060000 0.080000 0.6902 0.6902 0.6902
v 0.238000 0.060000 0.085000 0.7725 0.7725 0.7725
v 0.228000 0.232000 0.080000 0.7568 0.7568 0.7568
v 0.221000 0.244124 0.080000 0.7608 0.7608 0.7608
v 0.207000 0.244124 0.080000 0.7529 0.7529 0.7529
v 0.207000 0.244124 0.100000 0.8823 0.8823 0.8823
v 0.221000 0.244124 0.100000 0.8980 0.8980 0.8980
v 0.200000 0.232000 0.080000 0.7412 0.7412 0.7412
v 0.207000 0.219876 0.080000 0.7216 0.7216 0.7216
v 0.221000 0.219876 0.100000 0.8431 0.8431 0.8431
v 0.207000 0.219876 0.100000 0.8313 0.8313 0.8313
v 0.221000 0.219876 0.080000 0.7294 0.7294 0.7294
v 0.228000 0.232000 0.100000 0.8941 0.8941 0.8941
v 0.200000 0.232000 0.100000 0.8666 0.8666 0.8666
v 0.035000 0.360000 -0.120000 0.7804 0.7804 0.7804
v 0.024749 0.390000 -0.144749 0.9176 0.9176 0.9176
v -0.024749 0.360000 -0.144749 0.8039 0.8039 0.8039
v -0.024749 0.390000 -0.144749 0.9215 0.9215 0.9215
v 0.000000 0.390000 -0.155000 0.9255 0.9255 0.9255
v -0.035000 0.390000 -0.120000 0.8941 0.8941 0.8941
v -0.035000 0.360000 -0.120000 0.7725 0.7725 0.7725
v -0.024749 0.360000 -0.095251 0.7451 0.7451 0.7451
v -0.000000 0.360000 -0.085000 0.7451 0.7451 0.7451
v -0.024749 0.390000 -0.095251 0.8706 0.8706 0.8706
v 0.024749 0.360000 -0.095251 0.7490 0.7490 0.7490
v 0.024749 0.390000 -0.095251 0.8784 0.8784 0.8784
v 0.035000 0.390000 -0.120000 0.8941 0.8941 0.8941
v -0.000000 0.390000 -0.085000 0.8706 0.8706 0.8706
v 0.000000 0.360000 -0.155000 0.8117 0.8117 0.8117
v 0.024749 0.360000 -0.144749 0.8039 0.8039 0.8039
v -0.007420 0.391888 -0.117596 0.8039 0.8039 0.8039
v -0.279414 0.810000 -0.163957 1.0000 1.0000 1.0000
v -0.277420 0.811888 -0.157596 1.0000 1.0000 1.0000
v -0.013166 0.388112 -0.118447 0.7529 0.7529 0.7529
v -0.009414 0.390000 -0.123957 0.7882 0.7882 0.7882
v -0.283166 0.808112 -0.158447 1.0000 1.0000 1.0000
v 0.012580 0.388112 -0.122404 0.7529 0.7529 0.7529
v 0.282580 0.808112 -0.162404 1.0000 1.0000 1.0000
v 0.006834 0.391888 -0.121553 0.8157 0.8157 0.8157
v 0.010586 0.390000 -0.116043 0.7725 0.7725 0.7725
v 0.280586 0.810000 -0.156043 1.0000 1.0000 1.0000
v 0.276834 0.811888 -0.161553 1.0000 1.0000 1.0000
vn -0.0000 -0.0000 1.0000
vn -0.0000 -0.0000 -1.0000
vn -1.0000 -0.0000 -0.0000
vn 1.0000 -0.0000 -0.0000
vn -0.0000 1.0000 -0.0000
vn -0.0000 -1.0000 -0.0000
vn -0.0000 0.9726 -0.2325
vn -0.0000 -0.9726 -0.2325
vn -0.9517 -0.0000 -0.3071
vn 0.9517 -0.0000 -0.3071
vn 0.8660 0.5000 -0.0000
vn -0.8660 0.5000 -0.0000
vn -0.8660 -0.5000 -0.0000
vn 0.8660 -0.5000 -0.0000
vn 0.7071 -0.0000 -0.7071
vn -0.7071 -0.0000 -0.7071
vn -0.7071 -0.0000 0.7071
vn 0.7071 -0.0000 0.7071
vn -0.6450 -0.4719 -0.6010
vn -0.1465 -0.0000 0.9892
vn 0.7916 0.4719 -0.3882
vn 0.5390 -0.8385 0.0799
vn -0.5390 0.8385 -0.0799
vn 0.7916 -0.4719 0.3882
vn -0.1465 -0.0000 -0.9892
vn -0.6450 0.4719 0.6010
vn -0.5390 -0.8385 0.0799
vn 0.5390 0.8385 -0.0799
vt 0.562988 0.844238
vt 0.593262 0.844238
vt 0.593262 0.866663
vt 0.562988 0.866663
vt 0.569043 0.844238
vt 0.569043 0.874512
vt 0.562988 0.874512
vt 0.593262 0.848723
vt 0.562988 0.848723
vt 0.586450 0.865939
vt 0.569800 0.865939
vt 0.586450 0.874178
vt 0.569800 0.874178
vt 0.562988 0.789551
vt 0.593262 0.789551
vt 0.593262 0.812012
vt 0.562988 0.812012
vt 0.593262 0.866943
vt 0.562988 0.866943
vt 0.563997 0.844238
vt 0.563997 0.874512
vt 0.593262 0.844995
vt 0.562988 0.844995
vt 0.937988 0.844238
vt 0.968262 0.844238
vt 0.968262 0.874512
vt 0.937988 0.874512
vt 0.781738 0.844238
vt 0.786784 0.844238
vt 0.786784 0.874512
vt 0.781738 0.874512
vt 0.791829 0.844238
vt 0.791829 0.874512
vt 0.796875 0.844238
vt 0.796875 0.874512
vt 0.801921 0.844238
vt 0.801921 0.874512
vt 0.806966 0.844238
vt 0.806966 0.874512
vt 0.812012 0.844238
vt 0.812012 0.874512
vt 0.812012 0.859375
vt 0.804443 0.874512
vt 0.789307 0.874512
vt 0.781738 0.859375
vt 0.789307 0.844238
vt 0.804443 0.844238
vt 0.566772 0.844238
vt 0.566772 0.874512
vt 0.570557 0.844238
vt 0.570557 0.874512
vt 0.574341 0.844238
vt 0.574341 0.874512
vt 0.578125 0.844238
vt 0.578125 0.874512
vt 0.581909 0.844238
vt 0.581909 0.874512
vt 0.585693 0.844238
vt 0.585693 0.874512
vt 0.589478 0.844238
vt 0.589478 0.874512
vt 0.593262 0.874512
vt 0.593262 0.859375
vt 0.588828 0.870078
vt 0.567422 0.870078
vt 0.562988 0.859375
vt 0.567422 0.848672
vt 0.588828 0.848672
vt 0.781738 0.870460
vt 0.801507 0.844238
vt 0.801507 0.874512
vt 0.781738 0.848290
s 0
usemtl props
f 1/1/1 5/2/1 7/3/1 4/4/1
f 6/1/2 3/2/2 8/3/2 2/4/2
f 3/1/3 1/5/3 4/6/3 8/7/3
f 5/1/4 6/5/4 2/6/4 7/7/4
f 4/1/5 7/2/5 2/8/5 8/9/5
f 3/1/6 6/2/6 5/8/6 1/9/6
f 9/1/7 16/2/7 10/10/7 14/11/7
f 13/1/8 12/2/8 11/10/8 15/11/8
f 12/1/9 9/2/9 14/12/9 11/13/9
f 16/1/10 13/2/10 15/12/10 10/13/10
f 14/1/2 10/2/2 15/3/2 11/4/2
f 12/1/1 13/2/1 16/3/1 9/4/1
f 22/14/1 17/15/1 23/16/1 18/17/1
f 19/1/2 24/2/2 20/18/2 21/19/2
f 24/1/3 22/20/3 18/21/3 20/7/3
f 17/1/4 19/20/4 21/21/4 23/7/4
f 18/1/5 23/2/5 21/22/5 20/23/5
f 24/1/6 19/2/6 17/22/6 22/23/6
f 25/24/1 32/25/1 29/26/1 26/27/1
f 27/24/2 31/25/2 30/26/2 28/27/2
f 31/24/3 25/25/3 26/26/3 30/27/3
f 32/24/4 27/25/4 28/26/4 29/27/4
f 26/24/5 29/25/5 28/26/5 30/27/5
f 31/24/6 27/25/6 32/26/6 25/27/6
s 1
f 33/28/11 34/29/11 37/30/11 43/31/11
f 34/29/5 35/32/5 36/33/5 37/30/5
f 35/32/12 38/34/12 44/35/12 36/33/12
f 38/34/13 39/36/13 41/37/13 44/35/13
f 39/36/6 42/38/6 40/39/6 41/37/6
f 42/38/14 33/40/14 43/41/14 40/39/14
s 0
f 43/42/1 37/43/1 36/44/1 44/45/1 41/46/1 40/47/1
f 42/43/2 39/44/2 38/45/2 35/46/2 34/47/2 33/42/2
s 1
f 45/1/4 60/48/15 46/49/15 57/7/4
f 60/48/15 59/50/2 49/51/2 46/49/15
f 59/50/2 47/52/16 48/53/16 49/51/2
f 47/52/16 51/54/3 50/55/3 48/53/16
f 51/54/3 52/56/17 54/57/17 50/55/3
f 52/56/17 53/58/1 58/59/1 54/57/17
f 53/58/1 55/60/18 56/61/18 58/59/1
f 55/60/18 45/2/4 57/62/4 56/61/18
s 0
f 57/63/5 46/64/5 49/55/5 48/65/5 50/66/5 54/67/5 58/54/5 56/68/5
f 55/64/6 53/55/6 52/65/6 51/66/6 47/67/6 59/54/6 60/68/6 45/63/6
s 1
f 65/28/19 64/32/19 66/33/19 62/31/19
f 64/32/20 61/36/20 63/37/20 66/33/20
f 61/36/21 65/40/21 62/41/21 63/37/21
s 0
f 61/41/22 64/69/22 65/70/22
f 62/71/23 66/72/23 63/40/23
s 1
f 70/28/24 67/32/24 68/33/24 71/31/24
f 67/32/25 69/36/25 72/37/25 68/33/25
f 69/36/26 70/40/26 71/41/26 72/37/26
s 0
f 69/72/27 67/40/27 70/71/27
f 71/70/28 68/41/28 72/69/28
o tv_knob
v 0.226728 0.324728 0.105000 0.9333 0.9333 0.9333
v 0.214000 0.330000 0.080000 0.7725 0.7725 0.7725
v 0.201272 0.324728 0.105000 0.9098 0.9098 0.9098
v 0.201272 0.299272 0.105000 0.8784 0.8784 0.8784
v 0.196000 0.312000 0.105000 0.8980 0.8980 0.8980
v 0.226728 0.299272 0.080000 0.7608 0.7608 0.7608
v 0.214000 0.294000 0.105000 0.8745 0.8745 0.8745
v 0.232000 0.312000 0.080000 0.7686 0.7686 0.7686
v 0.226728 0.299272 0.105000 0.9019 0.9019 0.9019
v 0.232000 0.312000 0.105000 0.9333 0.9333 0.9333
v 0.214000 0.330000 0.105000 0.9255 0.9255 0.9255
v 0.214000 0.294000 0.080000 0.7529 0.7529 0.7529
v 0.201272 0.299272 0.080000 0.7490 0.7490 0.7490
v 0.196000 0.312000 0.080000 0.7490 0.7490 0.7490
v 0.201272 0.324728 0.080000 0.7608 0.7608 0.7608
v 0.226728 0.324728 0.080000 0.7725 0.7725 0.7725
vn 1.0000 -0.0000 -0.0000
vn 0.7071 0.7071 -0.0000
vn -0.0000 1.0000 -0.0000
vn -0.7071 0.7071 -0.0000
vn -1.0000 -0.0000 -0.0000
vn -0.7071 -0.7071 -0.0000
vn -0.0000 -1.0000 -0.0000
vn 0.7071 -0.7071 -0.0000
vn -0.0000 -0.0000 1.0000
vn -0.0000 -0.0000 -1.0000
vt 0.562988 0.844238
vt 0.566772 0.844238
vt 0.566772 0.874512
vt 0.562988 0.874512
vt 0.570557 0.844238
vt 0.570557 0.874512
vt 0.574341 0.844238
vt 0.574341 0.874512
vt 0.578125 0.844238
vt 0.578125 0.874512
vt 0.581909 0.844238
vt 0.581909 0.874512
vt 0.585693 0.844238
vt 0.585693 0.874512
vt 0.589478 0.844238
vt 0.589478 0.874512
vt 0.593262 0.844238
vt 0.593262 0.874512
vt 0.687012 0.804688
vt 0.684866 0.809866
vt 0.679688 0.812012
vt 0.674509 0.809866
vt 0.672363 0.804688
vt 0.674509 0.799509
vt 0.679688 0.797363
vt 0.684866 0.799509
vt 0.588828 0.870078
vt 0.567422 0.870078
vt 0.562988 0.859375
vt 0.567422 0.848672
vt 0.588828 0.848672
vt 0.593262 0.859375
s 1
usemtl props
f 80/73/29 88/74/30 73/75/30 82/76/29
f 88/74/30 74/77/31 83/78/31 73/75/30
f 74/77/31 87/79/32 75/80/32 83/78/31
f 87/79/32 86/81/33 77/82/33 75/80/32
f 86/81/33 85/83/34 76/84/34 77/82/33
f 85/83/34 84/85/35 79/86/35 76/84/34
f 84/85/35 78/87/36 81/88/36 79/86/35
f 78/87/36 80/89/29 82/90/29 81/88/36
s 0
f 82/91/37 73/92/37 83/93/37 75/94/37 77/95/37 76/96/37 79/97/37 81/98/37
f 78/99/38 84/82/38 85/100/38 86/101/38 87/102/38 74/81/38 88/103/38 80/104/38
