# Blender 4.5.14 LTS
# www.blender.org
mtllib wall_cabinet_white.mtl
o wall_cabinet_white
v -0.300000 1.450000 0.000000 0.7764 0.7764 0.7764
v -0.300000 2.150000 0.000000 0.7725 0.7725 0.7725
v -0.300000 2.150000 0.020000 0.8078 0.8078 0.8078
v 0.300000 2.150000 0.000000 0.7686 0.7686 0.7686
v 0.300000 1.450000 0.000000 0.7725 0.7725 0.7725
v -0.280000 1.470000 0.020050 0.7412 0.7412 0.7412
v 0.280000 1.470000 0.020050 0.7294 0.7294 0.7294
v 0.280000 2.130000 0.020050 0.7568 0.7568 0.7568
v -0.280000 2.130000 0.020050 0.7490 0.7490 0.7490
v 0.300000 1.450000 0.320000 0.9843 0.9843 0.9843
v 0.300000 1.470000 0.020000 0.7255 0.7255 0.7255
v 0.300000 1.470000 0.320000 0.8549 0.8549 0.8549
v -0.300000 1.470000 0.020000 0.7255 0.7255 0.7255
v -0.300000 1.450000 0.020000 0.8039 0.8039 0.8039
v 0.300000 1.450000 0.020000 0.8078 0.8078 0.8078
v -0.300000 1.450000 0.320000 0.9882 0.9882 0.9882
v -0.300000 2.130000 0.320000 0.8509 0.8509 0.8509
v 0.300000 2.150000 0.320000 0.9804 0.9804 0.9804
v -0.300000 2.130000 0.020000 0.7255 0.7255 0.7255
v -0.300000 2.150000 0.320000 0.9843 0.9843 0.9843
v 0.300000 2.150000 0.020000 0.8078 0.8078 0.8078
v -0.280000 1.470000 0.320000 0.6902 0.6902 0.6902
v -0.280000 1.470000 0.020000 0.6863 0.6863 0.6863
v -0.300000 1.470000 0.320000 0.8509 0.8509 0.8509
v -0.280000 2.130000 0.320000 0.6941 0.6941 0.6941
v -0.280000 2.130000 0.020000 0.6902 0.6902 0.6902
v 0.280000 1.470000 0.320000 0.6902 0.6902 0.6902
v 0.280000 1.470000 0.020000 0.6863 0.6863 0.6863
v 0.280000 2.130000 0.020000 0.6941 0.6941 0.6941
v 0.300000 2.130000 0.320000 0.8509 0.8509 0.8509
v 0.280000 2.130000 0.320000 0.6902 0.6902 0.6902
v 0.300000 2.130000 0.020000 0.7255 0.7255 0.7255
v 0.280000 1.800000 0.300000 0.6980 0.6980 0.6980
v 0.280000 1.820000 0.300000 0.6863 0.6863 0.6863
v 0.280000 1.820000 0.020000 0.6863 0.6863 0.6863
v -0.280000 1.800000 0.020000 0.6941 0.6941 0.6941
v -0.280000 1.820000 0.300000 0.6863 0.6863 0.6863
v -0.280000 1.820000 0.020000 0.6863 0.6863 0.6863
v 0.280000 1.800000 0.020000 0.6941 0.6941 0.6941
v -0.280000 1.800000 0.300000 0.6941 0.6941 0.6941
v -0.121716 1.470000 0.131716 0.6941 0.6941 0.6941
v -0.150000 1.560000 0.120000 0.7020 0.7020 0.7020
v -0.178284 1.470000 0.188284 0.6706 0.6706 0.6706
v -0.178284 1.560000 0.188284 0.6902 0.6902 0.6902
v -0.150000 1.470000 0.200000 0.6785 0.6785 0.6785
v -0.150000 1.560000 0.200000 0.7098 0.7098 0.7098
v -0.121716 1.560000 0.188284 0.7372 0.7372 0.7372
v -0.110000 1.560000 0.160000 0.7647 0.7647 0.7647
v -0.121716 1.560000 0.131716 0.7333 0.7333 0.7333
v -0.178284 1.560000 0.131716 0.6863 0.6863 0.6863
v -0.190000 1.560000 0.160000 0.6902 0.6902 0.6902
v -0.121716 1.470000 0.188284 0.7020 0.7020 0.7020
v -0.190000 1.470000 0.160000 0.6667 0.6667 0.6667
v -0.178284 1.470000 0.131716 0.6706 0.6706 0.6706
v -0.150000 1.470000 0.120000 0.6745 0.6745 0.6745
v -0.110000 1.470000 0.160000 0.7059 0.7059 0.7059
v 0.040000 1.470000 0.160000 0.6941 0.6941 0.6941
v 0.040000 1.560000 0.160000 0.7412 0.7412 0.7412
v 0.028284 1.470000 0.131716 0.6863 0.6863 0.6863
v 0.028284 1.560000 0.131716 0.7255 0.7255 0.7255
v -0.028284 1.470000 0.131716 0.6902 0.6902 0.6902
v -0.040000 1.560000 0.160000 0.7451 0.7451 0.7451
v -0.000000 1.560000 0.200000 0.7333 0.7333 0.7333
v -0.028284 1.560000 0.188284 0.7372 0.7372 0.7372
v -0.000000 1.470000 0.200000 0.6902 0.6902 0.6902
v 0.028284 1.560000 0.188284 0.7333 0.7333 0.7333
v 0.000000 1.560000 0.120000 0.7255 0.7255 0.7255
v -0.028284 1.560000 0.131716 0.7255 0.7255 0.7255
v 0.028284 1.470000 0.188284 0.6941 0.6941 0.6941
v -0.028284 1.470000 0.188284 0.6902 0.6902 0.6902
v -0.040000 1.470000 0.160000 0.6941 0.6941 0.6941
v 0.000000 1.470000 0.120000 0.6824 0.6824 0.6824
v 0.178284 1.560000 0.131716 0.6902 0.6902 0.6902
v 0.121716 1.470000 0.131716 0.6941 0.6941 0.6941
v 0.110000 1.560000 0.160000 0.7686 0.7686 0.7686
v 0.121716 1.470000 0.188284 0.6980 0.6980 0.6980
v 0.150000 1.560000 0.200000 0.7059 0.7059 0.7059
v 0.121716 1.560000 0.188284 0.7451 0.7451 0.7451
v 0.150000 1.470000 0.200000 0.6824 0.6824 0.6824
v 0.178284 1.470000 0.188284 0.6706 0.6706 0.6706
v 0.190000 1.470000 0.160000 0.6706 0.6706 0.6706
v 0.190000 1.560000 0.160000 0.6902 0.6902 0.6902
v 0.178284 1.560000 0.188284 0.6902 0.6902 0.6902
v 0.150000 1.560000 0.120000 0.6980 0.6980 0.6980
v 0.121716 1.560000 0.131716 0.7412 0.7412 0.7412
v 0.110000 1.470000 0.160000 0.7020 0.7020 0.7020
v 0.150000 1.470000 0.120000 0.6745 0.6745 0.6745
v 0.178284 1.470000 0.131716 0.6667 0.6667 0.6667
v -0.031008 1.820000 0.095344 0.6706 0.6706 0.6706
v -0.031008 1.920000 0.095344 0.7294 0.7294 0.7294
v -0.153992 1.920000 0.055384 0.6902 0.6902 0.6902
v -0.086008 1.920000 0.055384 0.7020 0.7020 0.7020
v -0.153992 1.820000 0.055384 0.6667 0.6667 0.6667
v -0.208992 1.820000 0.095344 0.6667 0.6667 0.6667
v -0.208992 1.920000 0.095344 0.6863 0.6863 0.6863
v -0.230000 1.920000 0.160000 0.6824 0.6824 0.6824
v -0.208992 1.920000 0.224656 0.6824 0.6824 0.6824
v -0.153992 1.820000 0.264616 0.6667 0.6667 0.6667
v -0.086008 1.820000 0.264616 0.6706 0.6706 0.6706
v -0.031008 1.820000 0.224656 0.6785 0.6785 0.6785
v -0.010000 1.920000 0.160000 0.7490 0.7490 0.7490
v -0.153992 1.920000 0.264616 0.6863 0.6863 0.6863
v -0.086008 1.920000 0.264616 0.6980 0.6980 0.6980
v -0.031008 1.920000 0.224656 0.7255 0.7255 0.7255
v -0.208992 1.820000 0.224656 0.6667 0.6667 0.6667
v -0.230000 1.820000 0.160000 0.6667 0.6667 0.6667
v -0.086008 1.820000 0.055384 0.6706 0.6706 0.6706
v -0.010000 1.820000 0.160000 0.6706 0.6706 0.6706
v 0.208992 1.820000 0.095344 0.6667 0.6667 0.6667
v 0.153992 1.820000 0.055384 0.6667 0.6667 0.6667
v 0.086008 1.820000 0.055384 0.6706 0.6706 0.6706
v 0.086008 1.920000 0.055384 0.6980 0.6980 0.6980
v 0.031008 1.920000 0.095344 0.7255 0.7255 0.7255
v 0.010000 1.820000 0.160000 0.6667 0.6667 0.6667
v 0.086008 1.820000 0.264616 0.6745 0.6745 0.6745
v 0.153992 1.820000 0.264616 0.6667 0.6667 0.6667
v 0.208992 1.920000 0.224656 0.6824 0.6824 0.6824
v 0.153992 1.920000 0.264616 0.6863 0.6863 0.6863
v 0.208992 1.820000 0.224656 0.6706 0.6706 0.6706
v 0.230000 1.920000 0.160000 0.6785 0.6785 0.6785
v 0.208992 1.920000 0.095344 0.6824 0.6824 0.6824
v 0.153992 1.920000 0.055384 0.6863 0.6863 0.6863
v 0.010000 1.920000 0.160000 0.7490 0.7490 0.7490
v 0.031008 1.920000 0.224656 0.7255 0.7255 0.7255
v 0.086008 1.920000 0.264616 0.7020 0.7020 0.7020
v 0.031008 1.820000 0.224656 0.6745 0.6745 0.6745
v 0.031008 1.820000 0.095344 0.6706 0.6706 0.6706
v 0.230000 1.820000 0.160000 0.6667 0.6667 0.6667
vn -0.0000 -0.0000 -1.0000
vn -1.0000 -0.0000 -0.0000
vn 1.0000 -0.0000 -0.0000
vn -0.0000 1.0000 -0.0000
vn -0.0000 -1.0000 -0.0000
vn -0.0000 -0.0000 1.0000
vn 0.7071 -0.0000 -0.7071
vn -0.7071 -0.0000 -0.7071
vn -0.7071 -0.0000 0.7071
vn 0.7071 -0.0000 0.7071
vn 0.8090 -0.0000 -0.5878
vn 0.3090 -0.0000 -0.9511
vn -0.3090 -0.0000 -0.9511
vn -0.8090 -0.0000 -0.5878
vn -0.8090 -0.0000 0.5878
vn -0.3090 -0.0000 0.9511
vn 0.3090 -0.0000 0.9511
vn 0.8090 -0.0000 0.5878
vt 0.750488 0.937988
vt 0.803223 0.937988
vt 0.803223 0.999512
vt 0.750488 0.999512
vt 0.752246 0.937988
vt 0.752246 0.999512
vt 0.812012 0.937988
vt 0.812012 0.940039
vt 0.750488 0.940039
vt 0.062988 0.812988
vt 0.115190 0.812988
vt 0.115190 0.874512
vt 0.062988 0.874512
vt 0.787402 0.937988
vt 0.787402 0.940449
vt 0.750488 0.940449
vt 0.124512 0.812988
vt 0.124512 0.843750
vt 0.062988 0.843750
vt 0.812012 0.968750
vt 0.750488 0.968750
vt 0.752353 0.937988
vt 0.752353 0.999512
vt 0.778453 0.937988
vt 0.778453 0.999512
vt 0.090953 0.812988
vt 0.090953 0.874512
vt 0.752949 0.937988
vt 0.752949 0.974902
vt 0.750488 0.974902
vt 0.124512 0.815186
vt 0.062988 0.815186
vt 0.097441 0.812988
vt 0.097441 0.815449
vt 0.062988 0.815449
vt 0.344238 0.781738
vt 0.348022 0.781738
vt 0.348022 0.812012
vt 0.344238 0.812012
vt 0.351807 0.781738
vt 0.351807 0.812012
vt 0.355591 0.781738
vt 0.355591 0.812012
vt 0.359375 0.781738
vt 0.359375 0.812012
vt 0.363159 0.781738
vt 0.363159 0.812012
vt 0.366943 0.781738
vt 0.366943 0.812012
vt 0.370728 0.781738
vt 0.370728 0.812012
vt 0.374512 0.781738
vt 0.374512 0.812012
vt 0.374512 0.796875
vt 0.370078 0.807578
vt 0.348672 0.807578
vt 0.344238 0.796875
vt 0.348672 0.786172
vt 0.370078 0.786172
vt 0.844238 0.844238
vt 0.848022 0.844238
vt 0.848022 0.874512
vt 0.844238 0.874512
vt 0.851807 0.844238
vt 0.851807 0.874512
vt 0.855591 0.844238
vt 0.855591 0.874512
vt 0.859375 0.844238
vt 0.859375 0.874512
vt 0.863159 0.844238
vt 0.863159 0.874512
vt 0.866943 0.844238
vt 0.866943 0.874512
vt 0.870728 0.844238
vt 0.870728 0.874512
vt 0.874512 0.844238
vt 0.874512 0.874512
vt 0.874512 0.859375
vt 0.870078 0.870078
vt 0.848672 0.870078
vt 0.844238 0.859375
vt 0.848672 0.848672
vt 0.870078 0.848672
vt 0.347266 0.781738
vt 0.347266 0.812012
vt 0.350293 0.781738
vt 0.350293 0.812012
vt 0.353320 0.781738
vt 0.353320 0.812012
vt 0.356348 0.781738
vt 0.356348 0.812012
vt 0.362402 0.781738
vt 0.362402 0.812012
vt 0.365430 0.781738
vt 0.365430 0.812012
vt 0.368457 0.781738
vt 0.368457 0.812012
vt 0.371484 0.781738
vt 0.371484 0.812012
vt 0.371621 0.806230
vt 0.364053 0.812012
vt 0.354697 0.812012
vt 0.347129 0.806230
vt 0.347129 0.787520
vt 0.354697 0.781738
vt 0.364053 0.781738
vt 0.371621 0.787520
s 0
usemtl props
f 5/1/1 1/2/1 2/3/1 4/4/1
f 1/1/2 14/5/2 3/6/2 2/4/2
f 15/1/3 5/5/3 4/6/3 21/4/3
f 3/1/4 21/7/4 4/8/4 2/9/4
f 1/1/5 5/7/5 15/8/5 14/9/5
f 6/10/6 7/11/6 8/12/6 9/13/6
f 16/1/6 10/7/6 12/8/6 24/9/6
f 15/1/1 14/7/1 13/8/1 11/9/1
f 14/1/2 16/14/2 24/15/2 13/16/2
f 10/1/3 15/14/3 11/15/3 12/16/3
f 24/10/4 12/17/4 11/18/4 13/19/4
f 14/1/5 15/7/5 10/20/5 16/21/5
f 17/1/6 30/7/6 18/8/6 20/9/6
f 32/1/1 19/7/1 3/8/1 21/9/1
f 19/1/2 17/14/2 20/15/2 3/16/2
f 30/1/3 32/14/3 21/15/3 18/16/3
f 20/1/4 18/7/4 21/20/4 3/21/4
f 19/10/5 32/17/5 30/18/5 17/19/5
f 24/1/6 22/22/6 25/23/6 17/4/6
f 23/1/1 13/22/1 19/23/1 26/4/1
f 13/1/2 24/24/2 17/25/2 19/4/2
f 22/10/3 23/26/3 26/27/3 25/13/3
f 17/1/4 25/28/4 26/29/4 19/30/4
f 13/1/5 23/28/5 22/29/5 24/30/5
f 27/1/6 12/22/6 30/23/6 31/4/6
f 11/1/1 28/22/1 29/23/1 32/4/1
f 28/10/2 27/26/2 31/27/2 29/13/2
f 12/1/3 11/24/3 32/25/3 30/4/3
f 31/1/4 30/28/4 32/29/4 29/30/4
f 28/1/5 11/28/5 12/29/5 27/30/5
f 40/10/6 33/17/6 34/31/6 37/32/6
f 39/10/1 36/17/1 38/31/1 35/32/1
f 36/10/2 40/33/2 37/34/2 38/35/2
f 33/10/3 39/33/3 35/34/3 34/35/3
f 37/10/4 34/17/4 35/18/4 38/19/4
f 36/10/5 39/17/5 33/18/5 40/19/5
s 1
f 56/36/3 41/37/7 49/38/7 48/39/3
f 41/37/7 55/40/1 42/41/1 49/38/7
f 55/40/1 54/42/8 50/43/8 42/41/1
f 54/42/8 53/44/2 51/45/2 50/43/8
f 53/44/2 43/46/9 44/47/9 51/45/2
f 43/46/9 45/48/6 46/49/6 44/47/9
f 45/48/6 52/50/10 47/51/10 46/49/6
f 52/50/10 56/52/3 48/53/3 47/51/10
s 0
f 48/54/4 49/55/4 42/45/4 50/56/4 51/57/4 44/58/4 46/44/4 47/59/4
f 52/55/5 45/45/5 43/56/5 53/57/5 54/58/5 55/44/5 41/59/5 56/54/5
s 1
f 57/60/3 59/61/7 60/62/7 58/63/3
f 59/61/7 72/64/1 67/65/1 60/62/7
f 72/64/1 61/66/8 68/67/8 67/65/1
f 61/66/8 71/68/2 62/69/2 68/67/8
f 71/68/2 70/70/9 64/71/9 62/69/2
f 70/70/9 65/72/6 63/73/6 64/71/9
f 65/72/6 69/74/10 66/75/10 63/73/6
f 69/74/10 57/76/3 58/77/3 66/75/10
s 0
f 58/78/4 60/79/4 67/69/4 68/80/4 62/81/4 64/82/4 63/68/4 66/83/4
f 69/79/5 65/69/5 70/80/5 71/81/5 61/82/5 72/68/5 59/83/5 57/78/5
s 1
f 81/36/3 88/37/7 73/38/7 82/39/3
f 88/37/7 87/40/1 84/41/1 73/38/7
f 87/40/1 74/42/8 85/43/8 84/41/1
f 74/42/8 86/44/2 75/45/2 85/43/8
f 86/44/2 76/46/9 78/47/9 75/45/2
f 76/46/9 79/48/6 77/49/6 78/47/9
f 79/48/6 80/50/10 83/51/10 77/49/6
f 80/50/10 81/52/3 82/53/3 83/51/10
s 0
f 82/54/4 73/55/4 84/45/4 85/56/4 75/57/4 78/58/4 77/44/4 83/59/4
f 80/55/5 79/45/5 76/56/5 86/57/5 74/58/5 87/44/5 88/59/5 81/54/5
s 1
f 108/36/3 89/84/11 90/85/11 101/39/3
f 89/84/11 107/86/12 92/87/12 90/85/11
f 107/86/12 93/88/13 91/89/13 92/87/12
f 93/88/13 94/90/14 95/91/14 91/89/13
f 94/90/14 106/44/2 96/45/2 95/91/14
f 106/44/2 105/92/15 97/93/15 96/45/2
f 105/92/15 98/94/16 102/95/16 97/93/15
f 98/94/16 99/96/17 103/97/17 102/95/16
f 99/96/17 100/98/18 104/99/18 103/97/17
f 100/98/18 108/52/3 101/53/3 104/99/18
s 0
f 101/54/4 90/100/4 92/101/4 91/102/4 95/103/4 96/57/4 97/104/4 102/105/4 103/106/4 104/107/4
f 100/100/5 99/101/5 98/102/5 105/103/5 106/57/5 94/104/5 93/105/5 107/106/5 89/107/5 108/54/5
s 1
f 128/36/3 109/84/11 121/85/11 120/39/3
f 109/84/11 110/86/12 122/87/12 121/85/11
f 110/86/12 111/88/13 112/89/13 122/87/12
f 111/88/13 127/90/14 113/91/14 112/89/13
f 127/90/14 114/44/2 123/45/2 113/91/14
f 114/44/2 126/92/15 124/93/15 123/45/2
f 126/92/15 115/94/16 125/95/16 124/93/15
f 115/94/16 116/96/17 118/97/17 125/95/16
f 116/96/17 119/98/18 117/99/18 118/97/17
f 119/98/18 128/52/3 120/53/3 117/99/18
s 0
f 120/54/4 121/100/4 122/101/4 112/102/4 113/103/4 123/57/4 124/104/4 125/105/4 118/106/4 117/107/4
f 119/100/5 116/101/5 115/102/5 126/103/5 114/57/5 127/104/5 111/105/5 110/106/5 109/107/5 128/54/5
o wall_cabinet_white_door
v -0.290000 1.460000 0.340000 0.9843 0.9843 0.9843
v 0.290000 1.460000 0.340000 0.9843 0.9843 0.9843
v -0.290000 2.140000 0.320000 0.7804 0.7804 0.7804
v -0.290000 1.460000 0.320000 0.7804 0.7804 0.7804
v -0.290000 2.140000 0.340000 0.9843 0.9843 0.9843
v 0.290000 2.140000 0.340000 0.9843 0.9843 0.9843
v 0.290000 2.140000 0.320000 0.7764 0.7764 0.7764
v 0.290000 1.460000 0.320000 0.7764 0.7764 0.7764
vn -0.0000 -0.0000 1.0000
vn -0.0000 -0.0000 -1.0000
vn -1.0000 -0.0000 -0.0000
vn 1.0000 -0.0000 -0.0000
vn -0.0000 1.0000 -0.0000
vn -0.0000 -1.0000 -0.0000
vt 0.219238 0.812988
vt 0.249512 0.812988
vt 0.249512 0.874512
vt 0.219238 0.874512
vt 0.750488 0.937988
vt 0.802964 0.937988
vt 0.802964 0.999512
vt 0.750488 0.999512
vt 0.752298 0.937988
vt 0.752298 0.999512
vt 0.812012 0.937988
vt 0.812012 0.940110
vt 0.750488 0.940110
s 0
usemtl props
f 129/108/19 130/109/19 134/110/19 133/111/19
f 136/112/20 132/113/20 131/114/20 135/115/20
f 132/112/21 129/116/21 133/117/21 131/115/21
f 130/112/22 136/116/22 135/117/22 134/115/22
f 133/112/23 134/118/23 135/119/23 131/120/23
f 132/112/24 136/118/24 130/119/24 129/120/24
