# Blender 4.5.14 LTS
# www.blender.org
mtllib wall_clock.mtl
o wall_clock
v 0.138582 1.857403 0.040000 0.6667 0.6667 0.6667
v 0.106066 1.906066 -0.000000 0.7725 0.7725 0.7725
v 0.106066 1.906066 0.040000 0.6667 0.6667 0.6667
v 0.057403 1.938582 -0.000000 0.7686 0.7686 0.7686
v 0.000000 1.950000 -0.000000 0.7686 0.7686 0.7686
v -0.057403 1.938582 0.040000 0.6667 0.6667 0.6667
v 0.000000 1.950000 0.040000 0.6667 0.6667 0.6667
v -0.057403 1.938582 -0.000000 0.7686 0.7686 0.7686
v -0.106066 1.906066 -0.000000 0.7725 0.7725 0.7725
v -0.138582 1.857403 -0.000000 0.7725 0.7725 0.7725
v -0.106066 1.906066 0.040000 0.6667 0.6667 0.6667
v -0.138582 1.857403 0.040000 0.6667 0.6667 0.6667
v -0.138582 1.742597 0.040000 0.6667 0.6667 0.6667
v -0.106066 1.693934 0.000000 0.7764 0.7764 0.7764
v -0.057403 1.661418 0.000000 0.7725 0.7725 0.7725
v -0.057403 1.661418 0.040000 0.6667 0.6667 0.6667
v -0.000000 1.650000 0.000000 0.7764 0.7764 0.7764
v 0.057403 1.661418 0.000000 0.7764 0.7764 0.7764
v -0.000000 1.650000 0.040000 0.6667 0.6667 0.6667
v 0.057403 1.661418 0.040000 0.6667 0.6667 0.6667
v 0.138582 1.742597 0.000000 0.7725 0.7725 0.7725
v 0.150000 1.800000 0.000000 0.7686 0.7686 0.7686
v 0.150000 1.800000 0.040000 0.6667 0.6667 0.6667
v 0.057403 1.938582 0.040000 0.6667 0.6667 0.6667
v -0.150000 1.800000 0.040000 0.6667 0.6667 0.6667
v -0.106066 1.693934 0.040000 0.6667 0.6667 0.6667
v 0.106066 1.693934 0.040000 0.6667 0.6667 0.6667
v 0.138582 1.742597 0.040000 0.6667 0.6667 0.6667
v 0.106066 1.693934 0.000000 0.7686 0.7686 0.7686
v -0.138582 1.742597 0.000000 0.7725 0.7725 0.7725
v -0.150000 1.800000 -0.000000 0.7686 0.7686 0.7686
v 0.138582 1.857403 -0.000000 0.7686 0.7686 0.7686
v 0.127495 1.852810 0.035000 0.7020 0.7020 0.7020
v 0.138582 1.857403 0.023000 0.7255 0.7255 0.7255
v 0.149668 1.861995 0.035000 0.8666 0.8666 0.8666
v 0.114551 1.914551 0.035000 0.8706 0.8706 0.8706
v 0.106066 1.906066 0.047000 0.9686 0.9686 0.9686
v 0.138582 1.857403 0.047000 0.9686 0.9686 0.9686
v 0.097581 1.897581 0.035000 0.7059 0.7059 0.7059
v 0.106066 1.906066 0.023000 0.7294 0.7294 0.7294
v 0.057403 1.938582 0.047000 0.9647 0.9647 0.9647
v 0.052810 1.927495 0.035000 0.7098 0.7098 0.7098
v 0.000000 1.950000 0.023000 0.7216 0.7216 0.7216
v 0.057403 1.938582 0.023000 0.7255 0.7255 0.7255
v 0.061995 1.949669 0.035000 0.8666 0.8666 0.8666
v 0.000000 1.950000 0.047000 0.9647 0.9647 0.9647
v 0.000000 1.938000 0.035000 0.7059 0.7059 0.7059
v -0.052810 1.927495 0.035000 0.7059 0.7059 0.7059
v -0.057403 1.938582 0.023000 0.7255 0.7255 0.7255
v -0.061995 1.949669 0.035000 0.8666 0.8666 0.8666
v 0.000000 1.962000 0.035000 0.8666 0.8666 0.8666
v -0.114551 1.914551 0.035000 0.8706 0.8706 0.8706
v -0.106066 1.906066 0.047000 0.9647 0.9647 0.9647
v -0.057403 1.938582 0.047000 0.9607 0.9607 0.9607
v -0.097581 1.897581 0.035000 0.7059 0.7059 0.7059
v -0.149668 1.861995 0.035000 0.8706 0.8706 0.8706
v -0.138582 1.857403 0.023000 0.7255 0.7255 0.7255
v -0.106066 1.906066 0.023000 0.7216 0.7216 0.7216
v -0.162000 1.800000 0.035000 0.8706 0.8706 0.8706
v -0.138582 1.857403 0.047000 0.9647 0.9647 0.9647
v -0.127495 1.852810 0.035000 0.7059 0.7059 0.7059
v -0.138000 1.800000 0.035000 0.7059 0.7059 0.7059
v -0.138582 1.742597 0.047000 0.9607 0.9607 0.9607
v -0.150000 1.800000 0.047000 0.9647 0.9647 0.9647
v -0.138582 1.742597 0.023000 0.7255 0.7255 0.7255
v -0.150000 1.800000 0.023000 0.7255 0.7255 0.7255
v -0.149668 1.738005 0.035000 0.8706 0.8706 0.8706
v -0.127495 1.747190 0.035000 0.7059 0.7059 0.7059
v -0.097581 1.702419 0.035000 0.7020 0.7020 0.7020
v -0.114551 1.685449 0.035000 0.8706 0.8706 0.8706
v -0.061995 1.650331 0.035000 0.8745 0.8745 0.8745
v -0.106066 1.693934 0.047000 0.9607 0.9607 0.9607
v -0.057403 1.661418 0.047000 0.9647 0.9647 0.9647
v -0.106066 1.693934 0.023000 0.7294 0.7294 0.7294
v -0.000000 1.650000 0.047000 0.9647 0.9647 0.9647
v -0.052810 1.672505 0.035000 0.7020 0.7020 0.7020
v -0.057403 1.661418 0.023000 0.7255 0.7255 0.7255
v -0.000000 1.638000 0.035000 0.8706 0.8706 0.8706
v 0.057403 1.661418 0.047000 0.9607 0.9607 0.9607
v -0.000000 1.662000 0.035000 0.7059 0.7059 0.7059
v -0.000000 1.650000 0.023000 0.7294 0.7294 0.7294
v 0.061995 1.650331 0.035000 0.8666 0.8666 0.8666
v 0.114551 1.685449 0.035000 0.8706 0.8706 0.8706
v 0.106066 1.693934 0.047000 0.9647 0.9647 0.9647
v 0.052810 1.672505 0.035000 0.7059 0.7059 0.7059
v 0.057403 1.661418 0.023000 0.7294 0.7294 0.7294
v 0.106066 1.693934 0.023000 0.7255 0.7255 0.7255
v 0.138582 1.742597 0.047000 0.9686 0.9686 0.9686
v 0.127495 1.747190 0.035000 0.7059 0.7059 0.7059
v 0.097581 1.702419 0.035000 0.7059 0.7059 0.7059
v 0.162000 1.800000 0.035000 0.8666 0.8666 0.8666
v 0.150000 1.800000 0.047000 0.9686 0.9686 0.9686
v 0.138000 1.800000 0.035000 0.7059 0.7059 0.7059
v 0.138582 1.742597 0.023000 0.7216 0.7216 0.7216
v 0.150000 1.800000 0.023000 0.7255 0.7255 0.7255
v 0.149668 1.738005 0.035000 0.8666 0.8666 0.8666
vn 1.0000 -0.0000 -0.0000
vn 0.9239 0.3827 -0.0000
vn 0.7071 0.7071 -0.0000
vn 0.3827 0.9239 -0.0000
vn -0.0000 1.0000 -0.0000
vn -0.3827 0.9239 -0.0000
vn -0.7071 0.7071 -0.0000
vn -0.9239 0.3827 -0.0000
vn -1.0000 -0.0000 -0.0000
vn -0.9239 -0.3827 -0.0000
vn -0.7071 -0.7071 -0.0000
vn -0.3827 -0.9239 -0.0000
vn -0.0000 -1.0000 -0.0000
vn 0.3827 -0.9239 -0.0000
vn 0.7071 -0.7071 -0.0000
vn 0.9239 -0.3827 -0.0000
vn -0.0000 -0.0000 1.0000
vn -0.0000 -0.0000 -1.0000
vn 0.7071 -0.0000 0.7071
vn 0.6533 0.2706 0.7071
vn -0.7071 -0.0000 0.7071
vn -0.6533 -0.2706 0.7071
vn -0.7071 -0.0000 -0.7071
vn -0.6533 -0.2706 -0.7071
vn 0.7071 -0.0000 -0.7071
vn 0.6533 0.2706 -0.7071
vn 0.5000 0.5000 0.7071
vn -0.5000 -0.5000 0.7071
vn -0.5000 -0.5000 -0.7071
vn 0.5000 0.5000 -0.7071
vn 0.2706 0.6533 0.7071
vn -0.2706 -0.6533 0.7071
vn -0.2706 -0.6533 -0.7071
vn 0.2706 0.6533 -0.7071
vn -0.0000 0.7071 0.7071
vn -0.0000 -0.7071 0.7071
vn -0.0000 -0.7071 -0.7071
vn -0.0000 0.7071 -0.7071
vn -0.2706 0.6533 0.7071
vn 0.2706 -0.6533 0.7071
vn 0.2706 -0.6533 -0.7071
vn -0.2706 0.6533 -0.7071
vn -0.5000 0.5000 0.7071
vn 0.5000 -0.5000 0.7071
vn 0.5000 -0.5000 -0.7071
vn -0.5000 0.5000 -0.7071
vn -0.6533 0.2706 0.7071
vn 0.6533 -0.2706 0.7071
vn 0.6533 -0.2706 -0.7071
vn -0.6533 0.2706 -0.7071
vt 0.125488 0.812988
vt 0.129333 0.812988
vt 0.129333 0.874512
vt 0.125488 0.874512
vt 0.133179 0.812988
vt 0.133179 0.874512
vt 0.137024 0.812988
vt 0.137024 0.874512
vt 0.140869 0.812988
vt 0.140869 0.874512
vt 0.144714 0.812988
vt 0.144714 0.874512
vt 0.148560 0.812988
vt 0.148560 0.874512
vt 0.152405 0.812988
vt 0.152405 0.874512
vt 0.156250 0.812988
vt 0.156250 0.874512
vt 0.160095 0.812988
vt 0.160095 0.874512
vt 0.163940 0.812988
vt 0.163940 0.874512
vt 0.167786 0.812988
vt 0.167786 0.874512
vt 0.171631 0.812988
vt 0.171631 0.874512
vt 0.175476 0.812988
vt 0.175476 0.874512
vt 0.179321 0.812988
vt 0.179321 0.874512
vt 0.183167 0.812988
vt 0.183167 0.874512
vt 0.187012 0.812988
vt 0.187012 0.874512
vt 0.843262 0.859375
vt 0.842110 0.865168
vt 0.838828 0.870078
vt 0.833918 0.873360
vt 0.828125 0.874512
vt 0.822332 0.873360
vt 0.817422 0.870078
vt 0.814140 0.865168
vt 0.812988 0.859375
vt 0.814140 0.853582
vt 0.817422 0.848672
vt 0.822332 0.845390
vt 0.828125 0.844238
vt 0.833918 0.845390
vt 0.838828 0.848672
vt 0.842110 0.853582
vt 0.184670 0.855522
vt 0.178002 0.865502
vt 0.168022 0.872170
vt 0.144478 0.872170
vt 0.134498 0.865502
vt 0.127830 0.855522
vt 0.125488 0.843750
vt 0.127830 0.831978
vt 0.134498 0.821998
vt 0.144478 0.815330
vt 0.168022 0.815330
vt 0.178002 0.821998
vt 0.184670 0.831978
vt 0.187012 0.843750
vt 0.129333 0.828369
vt 0.125488 0.828369
vt 0.129333 0.843750
vt 0.129333 0.859131
vt 0.125488 0.859131
vt 0.133179 0.828369
vt 0.133179 0.843750
vt 0.133179 0.859131
vt 0.137024 0.828369
vt 0.137024 0.843750
vt 0.137024 0.859131
vt 0.140869 0.828369
vt 0.140869 0.843750
vt 0.140869 0.859131
vt 0.144714 0.828369
vt 0.144714 0.843750
vt 0.144714 0.859131
vt 0.148560 0.828369
vt 0.148560 0.843750
vt 0.148560 0.859131
vt 0.152405 0.828369
vt 0.152405 0.843750
vt 0.152405 0.859131
vt 0.156250 0.828369
vt 0.156250 0.843750
vt 0.156250 0.859131
vt 0.160095 0.828369
vt 0.160095 0.843750
vt 0.160095 0.859131
vt 0.163940 0.828369
vt 0.163940 0.843750
vt 0.163940 0.859131
vt 0.167786 0.828369
vt 0.167786 0.843750
vt 0.167786 0.859131
vt 0.171631 0.828369
vt 0.171631 0.843750
vt 0.171631 0.859131
vt 0.175476 0.828369
vt 0.175476 0.843750
vt 0.175476 0.859131
vt 0.179321 0.828369
vt 0.179321 0.843750
vt 0.179321 0.859131
vt 0.183167 0.828369
vt 0.183167 0.843750
vt 0.183167 0.859131
vt 0.187012 0.828369
vt 0.187012 0.859131
s 1
usemtl props
f 22/1/1 32/2/2 1/3/2 23/4/1
f 32/2/2 2/5/3 3/6/3 1/3/2
f 2/5/3 4/7/4 24/8/4 3/6/3
f 4/7/4 5/9/5 7/10/5 24/8/4
f 5/9/5 8/11/6 6/12/6 7/10/5
f 8/11/6 9/13/7 11/14/7 6/12/6
f 9/13/7 10/15/8 12/16/8 11/14/7
f 10/15/8 31/17/9 25/18/9 12/16/8
f 31/17/9 30/19/10 13/20/10 25/18/9
f 30/19/10 14/21/11 26/22/11 13/20/10
f 14/21/11 15/23/12 16/24/12 26/22/11
f 15/23/12 17/25/13 19/26/13 16/24/12
f 17/25/13 18/27/14 20/28/14 19/26/13
f 18/27/14 29/29/15 27/30/15 20/28/14
f 29/29/15 21/31/16 28/32/16 27/30/15
f 21/31/16 22/33/1 23/34/1 28/32/16
s 0
f 23/35/17 1/36/17 3/37/17 24/38/17 7/39/17 6/40/17 11/41/17 12/42/17 25/43/17 13/44/17 26/45/17 16/46/17 19/47/17 20/48/17 27/49/17 28/50/17
f 21/51/18 29/52/18 18/53/18 17/18/18 15/54/18 14/55/18 30/56/18 31/57/18 10/58/18 9/59/18 8/60/18 5/17/18 4/61/18 2/62/18 32/63/18 22/64/18
s 1
f 91/1/19 35/2/20 38/65/20 92/66/19
f 92/66/21 38/65/22 33/67/22 93/57/21
f 93/57/23 33/67/24 34/68/24 95/69/23
f 95/69/25 34/68/26 35/3/26 91/4/25
f 35/2/20 36/5/27 37/70/27 38/65/20
f 38/65/22 37/70/28 39/71/28 33/67/22
f 33/67/24 39/71/29 40/72/29 34/68/24
f 34/68/26 40/72/30 36/6/30 35/3/26
f 36/5/27 45/7/31 41/73/31 37/70/27
f 37/70/28 41/73/32 42/74/32 39/71/28
f 39/71/29 42/74/33 44/75/33 40/72/29
f 40/72/30 44/75/34 45/8/34 36/6/30
f 45/7/31 51/9/35 46/76/35 41/73/31
f 41/73/32 46/76/36 47/77/36 42/74/32
f 42/74/33 47/77/37 43/78/37 44/75/33
f 44/75/34 43/78/38 51/10/38 45/8/34
f 51/9/35 50/11/39 54/79/39 46/76/35
f 46/76/36 54/79/40 48/80/40 47/77/36
f 47/77/37 48/80/41 49/81/41 43/78/37
f 43/78/38 49/81/42 50/12/42 51/10/38
f 50/11/39 52/13/43 53/82/43 54/79/39
f 54/79/40 53/82/44 55/83/44 48/80/40
f 48/80/41 55/83/45 58/84/45 49/81/41
f 49/81/42 58/84/46 52/14/46 50/12/42
f 52/13/43 56/15/47 60/85/47 53/82/43
f 53/82/44 60/85/48 61/86/48 55/83/44
f 55/83/45 61/86/49 57/87/49 58/84/45
f 58/84/46 57/87/50 56/16/50 52/14/46
f 56/15/47 59/17/21 64/88/21 60/85/47
f 60/85/48 64/88/19 62/89/19 61/86/48
f 61/86/49 62/89/25 66/90/25 57/87/49
f 57/87/50 66/90/23 59/18/23 56/16/50
f 59/17/21 67/19/22 63/91/22 64/88/21
f 64/88/19 63/91/20 68/92/20 62/89/19
f 62/89/25 68/92/26 65/93/26 66/90/25
f 66/90/23 65/93/24 67/20/24 59/18/23
f 67/19/22 70/21/28 72/94/28 63/91/22
f 63/91/20 72/94/27 69/95/27 68/92/20
f 68/92/26 69/95/30 74/96/30 65/93/26
f 65/93/24 74/96/29 70/22/29 67/20/24
f 70/21/28 71/23/32 73/97/32 72/94/28
f 72/94/27 73/97/31 76/98/31 69/95/27
f 69/95/30 76/98/34 77/99/34 74/96/30
f 74/96/29 77/99/33 71/24/33 70/22/29
f 71/23/32 78/25/36 75/100/36 73/97/32
f 73/97/31 75/100/35 80/101/35 76/98/31
f 76/98/34 80/101/38 81/102/38 77/99/34
f 77/99/33 81/102/37 78/26/37 71/24/33
f 78/25/36 82/27/40 79/103/40 75/100/36
f 75/100/35 79/103/39 85/104/39 80/101/35
f 80/101/38 85/104/42 86/105/42 81/102/38
f 81/102/37 86/105/41 82/28/41 78/26/37
f 82/27/40 83/29/44 84/106/44 79/103/40
f 79/103/39 84/106/43 90/107/43 85/104/39
f 85/104/42 90/107/46 87/108/46 86/105/42
f 86/105/41 87/108/45 83/30/45 82/28/41
f 83/29/44 96/31/48 88/109/48 84/106/44
f 84/106/43 88/109/47 89/110/47 90/107/43
f 90/107/46 89/110/50 94/111/50 87/108/46
f 87/108/45 94/111/49 96/32/49 83/30/45
f 96/31/48 91/33/19 92/112/19 88/109/48
f 88/109/47 92/112/21 93/64/21 89/110/47
f 89/110/50 93/64/23 95/113/23 94/111/50
f 94/111/49 95/113/25 91/34/25 96/32/49
o wall_clock_minute
v -0.003000 1.800000 0.044000 0.8627 0.8627 0.8627
v 0.003000 1.800000 0.044000 0.6980 0.6980 0.6980
v -0.003000 1.920000 0.042000 0.7608 0.7608 0.7608
v -0.003000 1.800000 0.042000 0.7686 0.7686 0.7686
v -0.003000 1.920000 0.044000 0.8823 0.8823 0.8823
v 0.003000 1.920000 0.044000 0.8784 0.8784 0.8784
v 0.003000 1.920000 0.042000 0.7608 0.7608 0.7608
v 0.003000 1.800000 0.042000 0.7255 0.7255 0.7255
vn -0.0000 -0.0000 1.0000
vn -0.0000 -0.0000 -1.0000
vn -1.0000 -0.0000 -0.0000
vn 1.0000 -0.0000 -0.0000
vn -0.0000 1.0000 -0.0000
vn -0.0000 -1.0000 -0.0000
vt 0.562988 0.844238
vt 0.563715 0.844238
vt 0.563715 0.858770
vt 0.562988 0.858770
vt 0.563230 0.844238
vt 0.563230 0.858770
vt 0.563715 0.844480
vt 0.562988 0.844480
s 0
usemtl props
f 97/114/51 98/115/51 102/116/51 101/117/51
f 104/114/52 100/115/52 99/116/52 103/117/52
f 100/114/53 97/118/53 101/119/53 99/117/53
f 98/114/54 104/118/54 103/119/54 102/117/54
f 101/114/55 102/115/55 103/120/55 99/121/55
f 100/114/56 104/115/56 98/120/56 97/121/56
o wall_clock_hour
v 0.002500 1.804330 0.045000 0.7804 0.7804 0.7804
v 0.067452 1.766830 0.045000 0.7725 0.7725 0.7725
v 0.062452 1.758170 0.045000 0.7725 0.7725 0.7725
v 0.002500 1.804330 0.047000 0.8941 0.8941 0.8941
v 0.067452 1.766830 0.047000 0.8823 0.8823 0.8823
v -0.002500 1.795670 0.047000 0.8941 0.8941 0.8941
v -0.002500 1.795670 0.045000 0.7804 0.7804 0.7804
v 0.062452 1.758170 0.047000 0.8862 0.8862 0.8862
vn -0.0000 -0.0000 1.0000
vn -0.0000 -0.0000 -1.0000
vn 0.5000 0.8660 -0.0000
vn -0.5000 -0.8660 -0.0000
vn 0.8660 -0.5000 -0.0000
vn -0.8660 0.5000 -0.0000
vt 0.562988 0.844238
vt 0.564199 0.844238
vt 0.564199 0.853320
vt 0.562988 0.853320
vt 0.563230 0.844238
vt 0.563230 0.853320
vt 0.564199 0.844480
vt 0.562988 0.844480
s 0
usemtl props
f 108/122/57 110/123/57 112/124/57 109/125/57
f 111/122/58 105/123/58 106/124/58 107/125/58
f 105/122/59 108/126/59 109/127/59 106/125/59
f 110/122/60 111/126/60 107/127/60 112/125/60
f 109/122/61 112/123/61 107/128/61 106/129/61
f 105/122/62 111/123/62 110/128/62 108/129/62
