# Blender 4.5.14 LTS
# www.blender.org
mtllib wall_damask.mtl
o wall_damask
v -1.000000 0.000000 0.003500 0.6667 0.6667 0.6667
v 0.000000 0.000000 0.003500 0.6667 0.6667 0.6667
v -1.000000 1.000000 0.003500 1.0000 1.0000 1.0000
v 0.000000 1.000000 0.003500 1.0000 1.0000 1.0000
v -1.000000 2.000000 0.003500 1.0000 1.0000 1.0000
v 0.000000 2.000000 0.003500 1.0000 1.0000 1.0000
v -1.000000 3.000000 0.003500 1.0000 1.0000 1.0000
v 1.000000 0.000000 0.003500 0.6667 0.6667 0.6667
v 1.000000 1.000000 0.003500 1.0000 1.0000 1.0000
v 1.000000 2.000000 0.003500 1.0000 1.0000 1.0000
v 1.000000 3.000000 0.003500 1.0000 1.0000 1.0000
v 0.000000 3.000000 0.003500 1.0000 1.0000 1.0000
v -1.000000 0.000000 0.023000 0.8941 0.8941 0.8941
v 1.000000 0.000000 0.023000 0.8902 0.8902 0.8902
v -1.000000 0.000000 0.003000 0.7764 0.7764 0.7764
v -1.000000 0.100000 0.003000 0.7216 0.7216 0.7216
v 1.000000 0.000000 0.003000 0.7725 0.7725 0.7725
v 1.000000 0.100000 0.003000 0.7176 0.7176 0.7176
v -1.000000 0.100000 0.023000 0.8902 0.8902 0.8902
v 1.000000 0.100000 0.023000 0.8862 0.8862 0.8862
vn -0.0000 -0.0000 1.0000
vn -0.0000 -0.0000 -1.0000
vn -1.0000 -0.0000 -0.0000
vn 1.0000 -0.0000 -0.0000
vn -0.0000 1.0000 -0.0000
vn -0.0000 -1.0000 -0.0000
vt 0.125488 0.875488
vt 0.249512 0.875488
vt 0.249512 0.999512
vt 0.125488 0.999512
vt 0.250488 0.875488
vt 0.374512 0.875488
vt 0.374512 0.999512
vt 0.250488 0.999512
vt 0.750488 0.937988
vt 0.812012 0.937988
vt 0.812012 0.941064
vt 0.750488 0.941064
vt 0.752949 0.937988
vt 0.752949 0.950293
vt 0.750488 0.950293
vt 0.812012 0.938604
vt 0.750488 0.938604
s 0
usemtl props
f 1/1/1 2/2/1 4/3/1 3/4/1
f 3/5/1 4/6/1 6/7/1 5/8/1
f 5/5/1 6/6/1 12/7/1 7/8/1
f 2/1/1 8/2/1 9/3/1 4/4/1
f 4/5/1 9/6/1 10/7/1 6/8/1
f 6/5/1 10/6/1 11/7/1 12/8/1
f 13/9/1 14/10/1 20/11/1 19/12/1
f 17/9/2 15/10/2 16/11/2 18/12/2
f 15/9/3 13/13/3 19/14/3 16/15/3
f 14/9/4 17/13/4 18/14/4 20/15/4
f 19/9/5 20/10/5 18/16/5 16/17/5
f 15/9/6 17/10/6 14/16/6 13/17/6
