# Blender 4.5.14 LTS
# www.blender.org
mtllib wardrobe_oak.mtl
o wardrobe_oak
v 0.500000 0.080000 -0.290000 0.8078 0.8078 0.8078
v -0.500000 1.980000 -0.290000 0.8470 0.8470 0.8470
v 0.500000 1.980000 -0.290000 0.8431 0.8431 0.8431
v -0.500000 0.080000 -0.290000 0.8039 0.8039 0.8039
v -0.500000 0.080000 -0.270000 0.7451 0.7451 0.7451
v 0.500000 0.080000 -0.270000 0.7490 0.7490 0.7490
v -0.480000 0.100000 -0.269950 0.7294 0.7294 0.7294
v 0.480000 0.100000 -0.269950 0.7176 0.7176 0.7176
v 0.480000 1.960000 -0.269950 0.7412 0.7412 0.7412
v -0.480000 1.960000 -0.269950 0.7333 0.7333 0.7333
v -0.500000 0.080000 0.290000 0.7804 0.7804 0.7804
v -0.500000 0.100000 -0.270000 0.7333 0.7333 0.7333
v -0.500000 0.100000 0.290000 0.7568 0.7568 0.7568
v 0.500000 0.080000 0.290000 0.7843 0.7843 0.7843
v 0.500000 1.980000 0.290000 0.7568 0.7568 0.7568
v -0.500000 1.980000 0.290000 0.7608 0.7608 0.7608
v -0.500000 1.960000 0.290000 0.7882 0.7882 0.7882
v 0.500000 1.960000 -0.270000 0.7529 0.7529 0.7529
v 0.500000 1.980000 -0.270000 0.7490 0.7490 0.7490
v -0.500000 1.980000 -0.270000 0.7490 0.7490 0.7490
v -0.480000 0.100000 -0.270000 0.6863 0.6863 0.6863
v -0.480000 1.960000 -0.270000 0.6863 0.6863 0.6863
v -0.500000 1.960000 -0.270000 0.7568 0.7568 0.7568
v -0.480000 1.960000 0.290000 0.6863 0.6863 0.6863
v -0.480000 0.100000 0.290000 0.6863 0.6863 0.6863
v 0.480000 0.100000 0.290000 0.6863 0.6863 0.6863
v 0.480000 0.100000 -0.270000 0.6863 0.6863 0.6863
v 0.480000 1.960000 0.290000 0.6902 0.6902 0.6902
v 0.480000 1.960000 -0.270000 0.6863 0.6863 0.6863
v 0.500000 0.100000 0.290000 0.7568 0.7568 0.7568
v 0.500000 0.100000 -0.270000 0.7372 0.7372 0.7372
v 0.500000 1.960000 0.290000 0.7882 0.7882 0.7882
v -0.490000 0.000000 0.280000 0.7686 0.7686 0.7686
v -0.436250 0.080000 0.283750 0.6980 0.6980 0.6980
v -0.490000 0.000000 0.230000 0.7451 0.7451 0.7451
v -0.493750 0.080000 0.226250 0.6980 0.6980 0.6980
v -0.493750 0.080000 0.283750 0.7098 0.7098 0.7098
v -0.436250 0.080000 0.226250 0.6863 0.6863 0.6863
v -0.440000 0.000000 0.230000 0.7098 0.7098 0.7098
v -0.440000 0.000000 0.280000 0.7412 0.7412 0.7412
v -0.490000 0.000000 -0.230000 0.7451 0.7451 0.7451
v -0.490000 0.000000 -0.280000 0.7725 0.7725 0.7725
v -0.493750 0.080000 -0.226250 0.7020 0.7020 0.7020
v -0.440000 0.000000 -0.230000 0.7059 0.7059 0.7059
v -0.436250 0.080000 -0.226250 0.6863 0.6863 0.6863
v -0.436250 0.080000 -0.283750 0.7020 0.7020 0.7020
v -0.493750 0.080000 -0.283750 0.7059 0.7059 0.7059
v -0.440000 0.000000 -0.280000 0.7490 0.7490 0.7490
v 0.440000 0.000000 0.230000 0.7098 0.7098 0.7098
v 0.493750 0.080000 0.226250 0.6941 0.6941 0.6941
v 0.440000 0.000000 0.280000 0.7412 0.7412 0.7412
v 0.436250 0.080000 0.283750 0.6980 0.6980 0.6980
v 0.436250 0.080000 0.226250 0.6863 0.6863 0.6863
v 0.490000 0.000000 0.280000 0.7686 0.7686 0.7686
v 0.493750 0.080000 0.283750 0.7098 0.7098 0.7098
v 0.490000 0.000000 0.230000 0.7529 0.7529 0.7529
v 0.490000 0.000000 -0.230000 0.7490 0.7490 0.7490
v 0.493750 0.080000 -0.226250 0.6980 0.6980 0.6980
v 0.490000 0.000000 -0.280000 0.7725 0.7725 0.7725
v 0.440000 0.000000 -0.280000 0.7490 0.7490 0.7490
v 0.440000 0.000000 -0.230000 0.7098 0.7098 0.7098
v 0.436250 0.080000 -0.226250 0.6863 0.6863 0.6863
v 0.493750 0.080000 -0.283750 0.7059 0.7059 0.7059
v 0.436250 0.080000 -0.283750 0.6980 0.6980 0.6980
v -0.530000 1.980000 0.310000 0.9647 0.9647 0.9647
v 0.530000 1.980000 0.310000 0.9647 0.9647 0.9647
v 0.530000 2.030000 0.310000 1.0000 1.0000 1.0000
v -0.530000 2.030000 -0.310000 1.0000 1.0000 1.0000
v 0.530000 1.980000 -0.310000 0.9686 0.9686 0.9686
v 0.530000 2.030000 -0.310000 1.0000 1.0000 1.0000
v -0.530000 2.030000 0.310000 1.0000 1.0000 1.0000
v -0.530000 1.980000 -0.310000 0.9686 0.9686 0.9686
v -0.470000 1.770000 -0.040000 0.6902 0.6902 0.6902
v 0.470000 1.790000 -0.040000 0.6785 0.6785 0.6785
v 0.470000 1.770000 -0.060000 0.6941 0.6941 0.6941
v -0.470000 1.770000 -0.060000 0.6824 0.6824 0.6824
v -0.470000 1.790000 -0.060000 0.6667 0.6667 0.6667
v 0.470000 1.790000 -0.060000 0.6667 0.6667 0.6667
v -0.470000 1.790000 -0.040000 0.6785 0.6785 0.6785
v 0.470000 1.770000 -0.040000 0.7020 0.7020 0.7020
v -0.270000 0.950000 0.150000 0.7294 0.7294 0.7294
v -0.230000 0.950000 0.150000 0.7686 0.7686 0.7686
v -0.230000 1.750000 -0.250000 0.6785 0.6785 0.6785
v -0.270000 1.750000 0.150000 0.6745 0.6745 0.6745
v -0.230000 1.750000 0.150000 0.6941 0.6941 0.6941
v -0.270000 1.750000 -0.250000 0.6745 0.6745 0.6745
v -0.270000 0.950000 -0.250000 0.7216 0.7216 0.7216
v -0.230000 0.950000 -0.250000 0.7451 0.7451 0.7451
v -0.140000 1.050000 0.150000 0.7372 0.7372 0.7372
v -0.100000 1.050000 0.150000 0.7568 0.7568 0.7568
v -0.100000 1.050000 -0.250000 0.7255 0.7255 0.7255
v -0.140000 1.050000 -0.250000 0.7176 0.7176 0.7176
v -0.140000 1.750000 0.150000 0.6785 0.6785 0.6785
v -0.140000 1.750000 -0.250000 0.6745 0.6745 0.6745
v -0.100000 1.750000 -0.250000 0.6824 0.6824 0.6824
v -0.100000 1.750000 0.150000 0.6980 0.6980 0.6980
v 0.030000 0.950000 -0.250000 0.7529 0.7529 0.7529
v 0.030000 0.950000 0.150000 0.7882 0.7882 0.7882
v 0.030000 1.750000 0.150000 0.7059 0.7059 0.7059
v 0.030000 1.750000 -0.250000 0.6863 0.6863 0.6863
v 0.070000 0.950000 0.150000 0.7686 0.7686 0.7686
v 0.070000 0.950000 -0.250000 0.7490 0.7490 0.7490
v 0.070000 1.750000 0.150000 0.6824 0.6824 0.6824
v 0.070000 1.750000 -0.250000 0.6745 0.6745 0.6745
v 0.220000 1.750000 0.150000 0.6824 0.6824 0.6824
v 0.180000 1.750000 -0.250000 0.6863 0.6863 0.6863
v 0.180000 1.750000 0.150000 0.7020 0.7020 0.7020
v 0.220000 1.050000 -0.250000 0.7216 0.7216 0.7216
v 0.220000 1.750000 -0.250000 0.6785 0.6785 0.6785
v 0.180000 1.050000 -0.250000 0.7216 0.7216 0.7216
v 0.220000 1.050000 0.150000 0.7372 0.7372 0.7372
v 0.180000 1.050000 0.150000 0.7490 0.7490 0.7490
v -0.480000 0.420000 0.260000 0.6941 0.6941 0.6941
v 0.480000 0.400000 -0.260000 0.6745 0.6745 0.6745
v -0.480000 0.400000 -0.260000 0.6785 0.6785 0.6785
v -0.480000 0.420000 -0.260000 0.6941 0.6941 0.6941
v 0.480000 0.400000 0.260000 0.6745 0.6745 0.6745
v 0.480000 0.420000 0.260000 0.6941 0.6941 0.6941
v 0.480000 0.420000 -0.260000 0.6941 0.6941 0.6941
v -0.480000 0.400000 0.260000 0.6745 0.6745 0.6745
vn -0.0000 -0.0000 -1.0000
vn -1.0000 -0.0000 -0.0000
vn 1.0000 -0.0000 -0.0000
vn -0.0000 1.0000 -0.0000
vn -0.0000 -1.0000 -0.0000
vn -0.0000 -0.0000 1.0000
vn -0.0000 -0.0468 0.9989
vn -0.0000 -0.0468 -0.9989
vn -0.9989 -0.0468 -0.0000
vn 0.9989 -0.0468 -0.0000
vt 0.937988 0.937988
vt 0.970369 0.937988
vt 0.970369 0.999512
vt 0.937988 0.999512
vt 0.938636 0.937988
vt 0.938636 0.999512
vt 0.999512 0.937988
vt 0.999512 0.939219
vt 0.937988 0.939219
vt 0.062988 0.812988
vt 0.094742 0.812988
vt 0.094742 0.874512
vt 0.062988 0.874512
vt 0.999512 0.940186
vt 0.937988 0.940186
vt 0.124512 0.812988
vt 0.124512 0.847441
vt 0.062988 0.847441
vt 0.999512 0.972441
vt 0.937988 0.972441
vt 0.938650 0.937988
vt 0.938650 0.999512
vt 0.956511 0.937988
vt 0.956511 0.999512
vt 0.081511 0.812988
vt 0.081511 0.874512
vt 0.940186 0.937988
vt 0.940186 0.999512
vt 0.938450 0.937988
vt 0.944602 0.937988
vt 0.945063 0.947843
vt 0.937988 0.947843
vt 0.945063 0.937988
vt 0.945063 0.945063
vt 0.937988 0.945063
vt 0.944141 0.937988
vt 0.944141 0.944141
vt 0.937988 0.944141
vt 0.999512 0.940890
vt 0.937988 0.940890
vt 0.999512 0.942950
vt 0.937988 0.942950
vt 0.999512 0.973974
vt 0.937988 0.973974
vt 0.781738 0.844238
vt 0.812012 0.844238
vt 0.812012 0.844882
vt 0.781738 0.844882
vt 0.784160 0.844238
vt 0.784160 0.846660
vt 0.781738 0.846660
vt 0.375488 0.937988
vt 0.378564 0.937988
vt 0.378564 0.999512
vt 0.375488 0.999512
vt 0.406250 0.937988
vt 0.406250 0.999512
vt 0.380410 0.937988
vt 0.380410 0.987207
vt 0.375488 0.987207
vt 0.437988 0.937988
vt 0.441504 0.937988
vt 0.441504 0.999512
vt 0.437988 0.999512
vt 0.473145 0.937988
vt 0.473145 0.999512
vt 0.442910 0.937988
vt 0.442910 0.987207
vt 0.437988 0.987207
vt 0.562988 0.937988
vt 0.566064 0.937988
vt 0.566064 0.999512
vt 0.562988 0.999512
vt 0.593750 0.937988
vt 0.593750 0.999512
vt 0.567910 0.937988
vt 0.567910 0.987207
vt 0.562988 0.987207
vt 0.500488 0.937988
vt 0.504004 0.937988
vt 0.504004 0.999512
vt 0.500488 0.999512
vt 0.535645 0.937988
vt 0.535645 0.999512
vt 0.505410 0.937988
vt 0.505410 0.987207
vt 0.500488 0.987207
vt 0.999512 0.939270
vt 0.937988 0.939270
vt 0.999512 0.940355
vt 0.937988 0.940355
vt 0.999512 0.971313
vt 0.937988 0.971313
s 0
usemtl props
f 1/1/1 4/2/1 2/3/1 3/4/1
f 4/1/2 5/5/2 20/6/2 2/4/2
f 6/1/3 1/5/3 3/6/3 19/4/3
f 20/1/4 19/7/4 3/8/4 2/9/4
f 4/1/5 1/7/5 6/8/5 5/9/5
f 7/10/6 8/11/6 9/12/6 10/13/6
f 11/1/6 14/7/6 30/8/6 13/9/6
f 6/1/1 5/7/1 12/8/1 31/9/1
f 5/1/2 11/7/2 13/14/2 12/15/2
f 14/1/3 6/7/3 31/14/3 30/15/3
f 13/10/4 30/16/4 31/17/4 12/18/4
f 5/1/5 6/7/5 14/19/5 11/20/5
f 17/1/6 32/7/6 15/8/6 16/9/6
f 18/1/1 23/7/1 20/8/1 19/9/1
f 23/1/2 17/7/2 16/14/2 20/15/2
f 32/1/3 18/7/3 19/14/3 15/15/3
f 16/1/4 15/7/4 19/19/4 20/20/4
f 23/10/5 18/16/5 32/17/5 17/18/5
f 13/1/6 25/21/6 24/22/6 17/4/6
f 21/1/1 12/21/1 23/22/1 22/4/1
f 12/1/2 13/23/2 17/24/2 23/4/2
f 25/10/3 21/25/3 22/26/3 24/13/3
f 17/1/4 24/27/4 22/28/4 23/4/4
f 12/1/5 21/27/5 25/28/5 13/4/5
f 26/1/6 30/21/6 32/22/6 28/4/6
f 31/1/1 27/21/1 29/22/1 18/4/1
f 27/10/2 26/25/2 28/26/2 29/13/2
f 30/1/3 31/23/3 18/24/3 32/4/3
f 28/1/4 32/27/4 18/28/4 29/4/4
f 27/1/5 31/27/5 30/28/5 26/4/5
f 33/29/7 40/30/7 34/31/7 37/32/7
f 39/29/8 35/30/8 36/31/8 38/32/8
f 35/29/9 33/30/9 37/31/9 36/32/9
f 40/29/10 39/30/10 38/31/10 34/32/10
f 37/1/4 34/33/4 38/34/4 36/35/4
f 35/1/5 39/36/5 40/37/5 33/38/5
f 41/29/7 44/30/7 45/31/7 43/32/7
f 48/29/8 42/30/8 47/31/8 46/32/8
f 42/29/9 41/30/9 43/31/9 47/32/9
f 44/29/10 48/30/10 46/31/10 45/32/10
f 43/1/4 45/33/4 46/34/4 47/35/4
f 42/1/5 48/36/5 44/37/5 41/38/5
f 51/29/7 54/30/7 55/31/7 52/32/7
f 56/29/8 49/30/8 53/31/8 50/32/8
f 49/29/9 51/30/9 52/31/9 53/32/9
f 54/29/10 56/30/10 50/31/10 55/32/10
f 52/1/4 55/33/4 50/34/4 53/35/4
f 49/1/5 56/36/5 54/37/5 51/38/5
f 61/29/7 57/30/7 58/31/7 62/32/7
f 59/29/8 60/30/8 64/31/8 63/32/8
f 60/29/9 61/30/9 62/31/9 64/32/9
f 57/29/10 59/30/10 63/31/10 58/32/10
f 62/1/4 58/33/4 63/34/4 64/35/4
f 60/1/5 59/36/5 57/37/5 61/38/5
f 65/1/6 66/7/6 67/39/6 71/40/6
f 69/1/1 72/7/1 68/39/1 70/40/1
f 72/1/2 65/7/2 71/41/2 68/42/2
f 66/1/3 69/7/3 70/41/3 67/42/3
f 71/1/4 67/7/4 70/43/4 68/44/4
f 72/1/5 69/7/5 66/43/5 65/44/5
f 73/45/6 80/46/6 74/47/6 79/48/6
f 75/45/1 76/46/1 77/47/1 78/48/1
f 76/45/2 73/49/2 79/50/2 77/51/2
f 80/45/3 75/49/3 78/50/3 74/51/3
f 79/45/4 74/46/4 78/47/4 77/48/4
f 76/45/5 75/46/5 80/47/5 73/48/5
f 81/52/6 82/53/6 85/54/6 84/55/6
f 88/52/1 87/53/1 86/54/1 83/55/1
f 87/52/2 81/56/2 84/57/2 86/55/2
f 82/52/3 88/56/3 83/57/3 85/55/3
f 84/52/4 85/58/4 83/59/4 86/60/4
f 87/52/5 88/58/5 82/59/5 81/60/5
f 89/61/6 90/62/6 96/63/6 93/64/6
f 91/61/1 92/62/1 94/63/1 95/64/1
f 92/61/2 89/65/2 93/66/2 94/64/2
f 90/61/3 91/65/3 95/66/3 96/64/3
f 93/61/4 96/67/4 95/68/4 94/69/4
f 92/61/5 91/67/5 90/68/5 89/69/5
f 98/70/6 101/71/6 103/72/6 99/73/6
f 102/70/1 97/71/1 100/72/1 104/73/1
f 97/70/2 98/74/2 99/75/2 100/73/2
f 101/70/3 102/74/3 104/75/3 103/73/3
f 99/70/4 103/76/4 104/77/4 100/78/4
f 97/70/5 102/76/5 101/77/5 98/78/5
f 112/79/6 111/80/6 105/81/6 107/82/6
f 108/79/1 110/80/1 106/81/1 109/82/1
f 110/79/2 112/83/2 107/84/2 106/82/2
f 111/79/3 108/83/3 109/84/3 105/82/3
f 107/79/4 105/85/4 109/86/4 106/87/4
f 110/79/5 108/85/5 111/86/5 112/87/5
f 120/1/6 117/7/6 118/88/6 113/89/6
f 114/1/1 115/7/1 116/88/1 119/89/1
f 115/1/2 120/7/2 113/90/2 116/91/2
f 117/1/3 114/7/3 119/90/3 118/91/3
f 113/1/4 118/7/4 119/92/4 116/93/4
f 115/1/5 114/7/5 117/92/5 120/93/5
o wardrobe_oak_door_l
v -0.495000 0.090000 0.310000 0.8000 0.8000 0.8000
v -0.005000 0.090000 0.310000 0.7686 0.7686 0.7686
v -0.495000 1.970000 0.290000 0.7255 0.7255 0.7255
v -0.495000 0.090000 0.290000 0.7059 0.7059 0.7059
v -0.495000 1.970000 0.310000 0.9255 0.9255 0.9255
v -0.005000 1.970000 0.310000 0.8823 0.8823 0.8823
v -0.005000 1.970000 0.290000 0.7372 0.7372 0.7372
v -0.005000 0.090000 0.290000 0.7333 0.7333 0.7333
vn -0.0000 -0.0000 1.0000
vn -0.0000 -0.0000 -1.0000
vn -1.0000 -0.0000 -0.0000
vn 1.0000 -0.0000 -0.0000
vn -0.0000 1.0000 -0.0000
vn -0.0000 -1.0000 -0.0000
vt 0.187988 0.812988
vt 0.218262 0.812988
vt 0.218262 0.874512
vt 0.187988 0.874512
vt 0.937988 0.937988
vt 0.954024 0.937988
vt 0.954024 0.999512
vt 0.937988 0.999512
vt 0.938643 0.937988
vt 0.938643 0.999512
vt 0.998281 0.937988
vt 0.998281 0.940449
vt 0.937988 0.940449
s 0
usemtl props
f 121/94/11 122/95/11 126/96/11 125/97/11
f 128/98/12 124/99/12 123/100/12 127/101/12
f 124/98/13 121/102/13 125/103/13 123/101/13
f 122/98/14 128/102/14 127/103/14 126/101/14
f 125/98/15 126/104/15 127/105/15 123/106/15
f 124/98/16 128/104/16 122/105/16 121/106/16
o wardrobe_oak_door_r
v 0.495000 1.970000 0.310000 0.9255 0.9255 0.9255
v 0.495000 0.090000 0.290000 0.7059 0.7059 0.7059
v 0.005000 1.970000 0.290000 0.7333 0.7333 0.7333
v 0.005000 1.970000 0.310000 0.8862 0.8862 0.8862
v 0.495000 1.970000 0.290000 0.7216 0.7216 0.7216
v 0.005000 0.090000 0.290000 0.7333 0.7333 0.7333
v 0.005000 0.090000 0.310000 0.7725 0.7725 0.7725
v 0.495000 0.090000 0.310000 0.8039 0.8039 0.8039
vn -0.0000 -0.0000 1.0000
vn -0.0000 -0.0000 -1.0000
vn 1.0000 -0.0000 -0.0000
vn -1.0000 -0.0000 -0.0000
vn -0.0000 1.0000 -0.0000
vn -0.0000 -1.0000 -0.0000
vt 0.187988 0.874512
vt 0.218262 0.874512
vt 0.218262 0.812988
vt 0.187988 0.812988
vt 0.937988 0.999512
vt 0.954024 0.999512
vt 0.954024 0.937988
vt 0.937988 0.937988
vt 0.938643 0.999512
vt 0.938643 0.937988
vt 0.937988 0.940449
vt 0.998281 0.940449
vt 0.998281 0.937988
s 0
usemtl props
f 129/107/17 132/108/17 135/109/17 136/110/17
f 131/111/18 133/112/18 130/113/18 134/114/18
f 133/111/19 129/115/19 136/116/19 130/114/19
f 132/111/20 131/115/20 134/116/20 135/114/20
f 133/117/21 131/118/21 132/119/21 129/114/21
f 136/117/22 135/118/22 134/119/22 130/114/22
