# Blender 4.1.0
# www.blender.org
mtllib Hinge.003.mtl
o Hinge.003
v -0.521568 2.082559 -0.083123
v -0.521568 1.977691 -0.083123
v -0.556805 2.082559 -0.103467
v -0.556805 1.977691 -0.103467
v -0.556805 2.082559 -0.144154
v -0.556805 1.977691 -0.144154
v -0.521568 2.082559 -0.164498
v -0.521568 1.977691 -0.164498
v -0.486331 2.082559 -0.144154
v -0.486331 1.977691 -0.144154
v -0.486331 2.082559 -0.103467
v -0.486331 1.977691 -0.103467
v -0.521568 0.144554 -0.083123
v -0.521568 0.031046 -0.083123
v -0.556805 0.144554 -0.103467
v -0.556805 0.031046 -0.103467
v -0.556805 0.144554 -0.144154
v -0.556805 0.031046 -0.144154
v -0.521568 0.144554 -0.164498
v -0.521568 0.031046 -0.164498
v -0.486331 0.144554 -0.144154
v -0.486331 0.031046 -0.144154
v -0.486331 0.144554 -0.103467
v -0.486331 0.031046 -0.103467
vn 0.5000 -0.0000 -0.8660
vn 1.0000 -0.0000 -0.0000
vn 0.5000 -0.0000 0.8660
vn -0.5000 -0.0000 0.8660
vn -0.0000 1.0000 -0.0000
vn -1.0000 -0.0000 -0.0000
vn -0.5000 -0.0000 -0.8660
vn -0.0000 -1.0000 -0.0000
vt 0.019957 0.896580
vt 0.004220 0.970305
vt 0.019957 0.970305
vt 0.004220 0.896580
vt 0.035693 0.970305
vt 0.035693 0.896580
s 0
usemtl Door03
f 2/1/1 3/2/1 1/3/1
f 4/4/2 5/2/2 3/2/2
f 6/4/3 7/3/3 5/2/3
f 8/1/4 9/5/4 7/3/4
f 2/1/5 10/6/5 6/4/5
f 10/6/6 11/5/6 9/5/6
f 12/6/7 1/3/7 11/5/7
f 3/2/8 7/3/8 11/5/8
f 14/1/1 15/2/1 13/3/1
f 16/4/2 17/2/2 15/2/2
f 18/4/3 19/3/3 17/2/3
f 20/1/4 21/5/4 19/3/4
f 14/1/5 22/6/5 18/4/5
f 22/6/6 23/5/6 21/5/6
f 24/6/7 13/3/7 23/5/7
f 15/2/8 19/3/8 23/5/8
f 2/1/1 4/4/1 3/2/1
f 4/4/2 6/4/2 5/2/2
f 6/4/3 8/1/3 7/3/3
f 8/1/4 10/6/4 9/5/4
f 6/4/5 4/4/5 2/1/5
f 2/1/5 12/6/5 10/6/5
f 10/6/5 8/1/5 6/4/5
f 10/6/6 12/6/6 11/5/6
f 12/6/7 2/1/7 1/3/7
f 11/5/8 1/3/8 3/2/8
f 3/2/8 5/2/8 7/3/8
f 7/3/8 9/5/8 11/5/8
f 14/1/1 16/4/1 15/2/1
f 16/4/2 18/4/2 17/2/2
f 18/4/3 20/1/3 19/3/3
f 20/1/4 22/6/4 21/5/4
f 18/4/5 16/4/5 14/1/5
f 14/1/5 24/6/5 22/6/5
f 22/6/5 20/1/5 18/4/5
f 22/6/6 24/6/6 23/5/6
f 24/6/7 14/1/7 13/3/7
f 23/5/8 13/3/8 15/2/8
f 15/2/8 17/2/8 19/3/8
f 19/3/8 21/5/8 23/5/8
