# Blender 4.0.2
# www.blender.org
mtllib Closet01DoorRight.mtl
o Closet01Door
v -0.500001 0.000000 0.083821
v -0.500001 2.000000 0.083821
v -0.500001 0.000000 -0.000001
v -0.500001 2.000000 -0.000001
v -0.000001 0.000000 0.083821
v -0.000001 2.000000 0.083821
v -0.000001 0.000000 -0.000001
v -0.000001 2.000000 -0.000001
vn -1.0000 -0.0000 -0.0000
vn -0.0000 -0.0000 -1.0000
vn 1.0000 -0.0000 -0.0000
vn -0.0000 -0.0000 1.0000
vn -0.0000 -1.0000 -0.0000
vn -0.0000 1.0000 -0.0000
vt 0.625000 0.000000
vt 0.375000 0.250000
vt 0.375000 0.000000
vt 0.625000 0.250000
vt 0.375000 0.500000
vt 0.625000 0.500000
vt 0.375000 0.750000
vt 0.625000 0.750000
vt 0.375000 1.000000
vt 0.125000 0.750000
vt 0.125000 0.500000
vt 0.875000 0.500000
vt 0.625000 1.000000
vt 0.875000 0.750000
s 0
f 2/1/1 3/2/1 1/3/1
f 4/4/2 7/5/2 3/2/2
f 8/6/3 5/7/3 7/5/3
f 6/8/4 1/9/4 5/7/4
f 7/5/5 1/10/5 3/11/5
f 4/12/6 6/8/6 8/6/6
f 2/1/1 4/4/1 3/2/1
f 4/4/2 8/6/2 7/5/2
f 8/6/3 6/8/3 5/7/3
f 6/8/4 2/13/4 1/9/4
f 7/5/5 5/7/5 1/10/5
f 4/12/6 2/14/6 6/8/6
o Handle.007
v -0.358592 1.166747 0.081778
v -0.412849 1.166747 0.081778
v -0.412849 1.115620 0.081778
v -0.358592 1.115620 0.081778
v -0.358592 1.164360 0.164493
v -0.412849 1.164360 0.164493
v -0.412849 1.115620 0.142655
v -0.358592 1.115620 0.142655
v -0.358592 1.115533 0.207432
v -0.412849 1.115533 0.207432
v -0.412849 1.097355 0.158370
v -0.358592 1.097355 0.158370
v -0.358592 0.857019 0.206894
v -0.412849 0.857019 0.206894
v -0.412849 0.877875 0.158909
v -0.358592 0.877875 0.158909
v -0.358592 0.815744 0.163165
v -0.412849 0.815744 0.163165
v -0.412849 0.865333 0.143982
v -0.358592 0.865333 0.143982
v -0.358592 0.813923 0.081760
v -0.412849 0.813923 0.081760
v -0.412849 0.865333 0.081760
v -0.358592 0.865333 0.081760
vn 1.0000 -0.0000 -0.0000
vn -0.0000 0.9996 0.0289
vn -1.0000 -0.0000 -0.0000
vn -0.0000 -1.0000 -0.0000
vn -0.0000 0.6604 0.7509
vn -0.0000 -0.6522 -0.7580
vn -0.0000 -0.0021 1.0000
vn -0.0000 -0.0025 -1.0000
vn -0.0000 -0.7272 0.6864
vn -0.0000 0.7656 -0.6433
vn -0.0000 -0.9997 0.0224
vn -0.0000 1.0000 -0.0000
vt 0.944995 0.807532
vt 0.944995 0.784536
vt 0.944995 0.783437
vt 0.984114 0.806433
vt 0.984114 0.807532
vt 0.984114 0.784536
vt 0.984114 0.783437
vt 0.944995 0.783947
vt 0.944995 0.806433
vt 0.984114 0.783947
vt 0.944995 0.775575
vt 0.944995 0.674497
vt 0.984114 0.664892
vt 0.984114 0.674497
vt 0.984114 0.775575
vt 0.944995 0.645884
vt 0.944995 0.664892
vt 0.984114 0.645884
vt 0.944995 0.668302
vt 0.944995 0.645045
vt 0.984114 0.645045
vt 0.984114 0.668302
vt 0.984114 0.669141
vt 0.944995 0.669141
s 0
f 9/15/7 16/16/7 12/17/7
f 14/18/8 9/15/8 10/19/8
f 15/20/9 10/19/9 11/21/9
f 12/17/10 15/20/10 11/21/10
f 17/22/7 16/16/7 13/23/7
f 18/24/11 13/23/11 14/18/11
f 15/20/9 18/24/9 14/18/9
f 20/25/12 15/20/12 16/16/12
f 17/22/7 24/26/7 20/25/7
f 22/27/13 17/22/13 18/24/13
f 23/28/9 18/24/9 19/29/9
f 20/25/14 23/28/14 19/29/14
f 25/30/7 24/26/7 21/31/7
f 26/32/15 21/31/15 22/27/15
f 23/28/9 26/32/9 22/27/9
f 28/33/16 23/28/16 24/26/16
f 29/34/7 28/33/7 25/30/7
f 30/35/17 25/30/17 26/32/17
f 27/36/9 30/35/9 26/32/9
f 28/33/18 31/37/18 27/36/18
f 9/15/7 13/23/7 16/16/7
f 14/18/8 13/23/8 9/15/8
f 15/20/9 14/18/9 10/19/9
f 12/17/10 16/16/10 15/20/10
f 17/22/7 20/25/7 16/16/7
f 18/24/11 17/22/11 13/23/11
f 15/20/9 19/29/9 18/24/9
f 20/25/12 19/29/12 15/20/12
f 17/22/7 21/31/7 24/26/7
f 22/27/13 21/31/13 17/22/13
f 23/28/9 22/27/9 18/24/9
f 20/25/14 24/26/14 23/28/14
f 25/30/7 28/33/7 24/26/7
f 26/32/15 25/30/15 21/31/15
f 23/28/9 27/36/9 26/32/9
f 28/33/16 27/36/16 23/28/16
f 29/34/7 32/38/7 28/33/7
f 30/35/17 29/34/17 25/30/17
f 27/36/9 31/37/9 30/35/9
f 28/33/18 32/38/18 31/37/18
