# Blender 4.0.2
# www.blender.org
mtllib Bulb.mtl
o Bulb
v 0.000000 0.182000 0.000000
v 0.019000 0.179000 0.000000
v 0.037500 0.168252 0.000000
v 0.051740 0.146013 0.000000
v 0.053660 0.118174 0.000000
v 0.039260 0.084895 0.000000
v 0.030781 0.066976 0.000000
v 0.028861 0.052256 0.000000
v 0.023261 0.046656 0.000000
v 0.023901 0.013217 0.000000
v 0.010141 0.000258 0.000000
v 0.000000 0.000000 0.000000
v 0.000000 0.182000 0.000000
v 0.015371 0.179000 -0.011168
v 0.030338 0.168252 -0.022042
v 0.041858 0.146013 -0.030412
v 0.043412 0.118174 -0.031540
v 0.031762 0.084895 -0.023077
v 0.024902 0.066976 -0.018092
v 0.023349 0.052256 -0.016964
v 0.018818 0.046656 -0.013672
v 0.019336 0.013217 -0.014049
v 0.008204 0.000258 -0.005961
v 0.000000 0.000000 0.000000
v 0.000000 0.182000 0.000000
v 0.005871 0.179000 -0.018070
v 0.011588 0.168252 -0.035665
v 0.015989 0.146013 -0.049208
v 0.016582 0.118174 -0.051033
v 0.012132 0.084895 -0.037339
v 0.009512 0.066976 -0.029274
v 0.008918 0.052256 -0.027448
v 0.007188 0.046656 -0.022122
v 0.007386 0.013217 -0.022731
v 0.003134 0.000258 -0.009645
v 0.000000 0.000000 0.000000
v 0.000000 0.182000 0.000000
v -0.005871 0.179000 -0.018070
v -0.011588 0.168252 -0.035665
v -0.015988 0.146013 -0.049208
v -0.016582 0.118174 -0.051033
v -0.012132 0.084895 -0.037339
v -0.009512 0.066976 -0.029274
v -0.008918 0.052256 -0.027448
v -0.007188 0.046656 -0.022122
v -0.007386 0.013217 -0.022731
v -0.003134 0.000258 -0.009645
v 0.000000 0.000000 0.000000
v 0.000000 0.182000 0.000000
v -0.015371 0.179000 -0.011168
v -0.030338 0.168252 -0.022042
v -0.041858 0.146013 -0.030412
v -0.043412 0.118174 -0.031540
v -0.031762 0.084895 -0.023077
v -0.024902 0.066976 -0.018092
v -0.023349 0.052256 -0.016964
v -0.018818 0.046656 -0.013672
v -0.019336 0.013217 -0.014049
v -0.008204 0.000258 -0.005961
v 0.000000 0.000000 0.000000
v 0.000000 0.182000 0.000000
v -0.019000 0.179000 -0.000000
v -0.037500 0.168252 -0.000000
v -0.051740 0.146013 -0.000000
v -0.053660 0.118174 -0.000000
v -0.039260 0.084895 -0.000000
v -0.030781 0.066976 -0.000000
v -0.028861 0.052256 -0.000000
v -0.023261 0.046656 -0.000000
v -0.023901 0.013217 0.000000
v -0.010141 0.000258 0.000000
v 0.000000 0.000000 0.000000
v 0.000000 0.182000 0.000000
v -0.015371 0.179000 0.011168
v -0.030338 0.168252 0.022042
v -0.041858 0.146013 0.030412
v -0.043412 0.118174 0.031540
v -0.031762 0.084895 0.023077
v -0.024902 0.066976 0.018092
v -0.023349 0.052256 0.016964
v -0.018818 0.046656 0.013672
v -0.019336 0.013217 0.014049
v -0.008204 0.000258 0.005961
v 0.000000 0.000000 0.000000
v 0.000000 0.182000 0.000000
v -0.005871 0.179000 0.018070
v -0.011588 0.168252 0.035665
v -0.015989 0.146013 0.049207
v -0.016582 0.118174 0.051033
v -0.012132 0.084895 0.037339
v -0.009512 0.066976 0.029274
v -0.008918 0.052256 0.027448
v -0.007188 0.046656 0.022122
v -0.007386 0.013217 0.022731
v -0.003134 0.000258 0.009645
v 0.000000 0.000000 0.000000
v 0.000000 0.182000 0.000000
v 0.005871 0.179000 0.018070
v 0.011588 0.168252 0.035665
v 0.015988 0.146013 0.049208
v 0.016582 0.118174 0.051033
v 0.012132 0.084895 0.037339
v 0.009512 0.066976 0.029274
v 0.008918 0.052256 0.027448
v 0.007188 0.046656 0.022122
v 0.007386 0.013217 0.022731
v 0.003134 0.000258 0.009645
v 0.000000 0.000000 0.000000
v 0.000000 0.182000 0.000000
v 0.015371 0.179000 0.011168
v 0.030338 0.168252 0.022042
v 0.041858 0.146013 0.030412
v 0.043412 0.118174 0.031540
v 0.031762 0.084895 0.023077
v 0.024902 0.066976 0.018092
v 0.023349 0.052256 0.016964
v 0.018818 0.046656 0.013672
v 0.019336 0.013217 0.014049
v 0.008204 0.000258 0.005961
v 0.000000 0.000000 0.000000
vn 0.1560 0.9878 -0.0000
vn 0.3666 0.9304 -0.0000
vn 0.2966 0.9304 -0.2155
vn 0.1262 0.9878 -0.0917
vn 0.1133 0.9304 -0.3487
vn 0.0482 0.9878 -0.1483
vn -0.1133 0.9304 -0.3487
vn -0.0482 0.9878 -0.1483
vn -0.2966 0.9304 -0.2155
vn -0.1262 0.9878 -0.0917
vn -0.3666 0.9304 -0.0000
vn -0.1560 0.9878 -0.0000
vn -0.2966 0.9304 0.2155
vn -0.1262 0.9878 0.0917
vn -0.1133 0.9304 0.3487
vn -0.0482 0.9878 0.1483
vn 0.1133 0.9304 0.3487
vn 0.0482 0.9878 0.1483
vn 0.2966 0.9304 0.2155
vn 0.1262 0.9878 0.0917
vn 0.7145 0.6996 -0.0000
vn 0.5781 0.6996 -0.4200
vn 0.2208 0.6996 -0.6795
vn -0.2208 0.6996 -0.6795
vn -0.5781 0.6996 -0.4200
vn -0.7145 0.6996 -0.0000
vn -0.5781 0.6996 0.4200
vn -0.2208 0.6996 0.6795
vn 0.2208 0.6996 0.6795
vn 0.5781 0.6996 0.4200
vn 0.9539 0.3001 -0.0000
vn 0.7717 0.3001 -0.5607
vn 0.2948 0.3001 -0.9072
vn -0.2948 0.3001 -0.9072
vn -0.7717 0.3001 -0.5607
vn -0.9539 0.3001 -0.0000
vn -0.7717 0.3001 0.5607
vn -0.2948 0.3001 0.9072
vn 0.2948 0.3001 0.9072
vn 0.7717 0.3001 0.5607
vn 0.9868 -0.1617 -0.0000
vn 0.7984 -0.1617 -0.5801
vn 0.3050 -0.1617 -0.9385
vn -0.3050 -0.1617 -0.9385
vn -0.7984 -0.1617 -0.5801
vn -0.9868 -0.1617 -0.0000
vn -0.7984 -0.1617 0.5801
vn -0.3050 -0.1617 0.9385
vn 0.3050 -0.1617 0.9385
vn 0.7984 -0.1617 0.5801
vn 0.9115 -0.4112 -0.0000
vn 0.7374 -0.4112 -0.5358
vn 0.2817 -0.4112 -0.8669
vn -0.2817 -0.4112 -0.8669
vn -0.7374 -0.4112 -0.5358
vn -0.9115 -0.4112 -0.0000
vn -0.7374 -0.4112 0.5358
vn -0.2817 -0.4112 0.8669
vn 0.2817 -0.4112 0.8669
vn 0.7374 -0.4112 0.5358
vn 0.9568 -0.2906 -0.0000
vn 0.7741 -0.2906 -0.5624
vn 0.2957 -0.2906 -0.9100
vn -0.2957 -0.2906 -0.9100
vn -0.7741 -0.2906 -0.5624
vn -0.9568 -0.2906 -0.0000
vn -0.7741 -0.2906 0.5624
vn -0.2957 -0.2906 0.9100
vn 0.2957 -0.2906 0.9100
vn 0.7741 -0.2906 0.5624
vn 0.9083 -0.4184 -0.0000
vn 0.7348 -0.4184 -0.5339
vn 0.2807 -0.4184 -0.8638
vn -0.2807 -0.4184 -0.8638
vn -0.7348 -0.4184 -0.5339
vn -0.9083 -0.4184 -0.0000
vn -0.7348 -0.4184 0.5339
vn -0.2807 -0.4184 0.8638
vn 0.2807 -0.4184 0.8638
vn 0.7348 -0.4184 0.5339
vn 0.9150 -0.4035 -0.0000
vn 0.7402 -0.4035 -0.5378
vn 0.2827 -0.4035 -0.8702
vn -0.2827 -0.4035 -0.8702
vn -0.7402 -0.4035 -0.5378
vn -0.9150 -0.4035 -0.0000
vn -0.7402 -0.4035 0.5378
vn -0.2827 -0.4035 0.8702
vn 0.2827 -0.4035 0.8702
vn 0.7402 -0.4035 0.5378
vn 0.9323 -0.3618 -0.0000
vn 0.7542 -0.3618 -0.5480
vn 0.2881 -0.3618 -0.8866
vn -0.2881 -0.3618 -0.8866
vn -0.7542 -0.3618 -0.5480
vn -0.9323 -0.3618 -0.0000
vn -0.7542 -0.3618 0.5480
vn -0.2881 -0.3618 0.8866
vn 0.2881 -0.3618 0.8866
vn 0.7542 -0.3618 0.5480
vn 0.4382 -0.8989 -0.0000
vn 0.3545 -0.8989 -0.2575
vn 0.1354 -0.8989 -0.4167
vn -0.1354 -0.8989 -0.4167
vn -0.3545 -0.8989 -0.2575
vn -0.4382 -0.8989 -0.0000
vn -0.3545 -0.8989 0.2575
vn -0.1354 -0.8989 0.4167
vn 0.1354 -0.8989 0.4167
vn 0.3545 -0.8989 0.2575
vn 0.0254 -0.9997 -0.0000
vn 0.0206 -0.9997 -0.0149
vn 0.0079 -0.9997 -0.0242
vn -0.0079 -0.9997 -0.0242
vn -0.0206 -0.9997 -0.0149
vn -0.0254 -0.9997 -0.0000
vn -0.0206 -0.9997 0.0149
vn -0.0079 -0.9997 0.0242
vn 0.0079 -0.9997 0.0242
vn 0.0206 -0.9997 0.0149
vt 0.000000 0.182000
vt 0.000000 0.179000
vt 0.100000 0.179000
vt 0.100000 0.182000
vt 0.200000 0.179000
vt 0.200000 0.182000
vt 0.300000 0.179000
vt 0.300000 0.182000
vt 0.400000 0.179000
vt 0.400000 0.182000
vt 0.500000 0.179000
vt 0.500000 0.182000
vt 0.600000 0.179000
vt 0.600000 0.182000
vt 0.700000 0.179000
vt 0.700000 0.182000
vt 0.800000 0.179000
vt 0.800000 0.182000
vt 0.900000 0.179000
vt 0.900000 0.182000
vt 1.000000 0.179000
vt 1.000000 0.182000
vt 0.000000 0.168252
vt 0.100000 0.168252
vt 0.200000 0.168252
vt 0.300000 0.168252
vt 0.400000 0.168252
vt 0.500000 0.168252
vt 0.600000 0.168252
vt 0.700000 0.168252
vt 0.800000 0.168252
vt 0.900000 0.168252
vt 1.000000 0.168252
vt 0.000000 0.146013
vt 0.100000 0.146013
vt 0.200000 0.146013
vt 0.300000 0.146013
vt 0.400000 0.146013
vt 0.500000 0.146013
vt 0.600000 0.146013
vt 0.700000 0.146013
vt 0.800000 0.146013
vt 0.900000 0.146013
vt 1.000000 0.146013
vt 0.000000 0.118174
vt 0.100000 0.118174
vt 0.200000 0.118174
vt 0.300000 0.118174
vt 0.400000 0.118174
vt 0.500000 0.118174
vt 0.600000 0.118174
vt 0.700000 0.118174
vt 0.800000 0.118174
vt 0.900000 0.118174
vt 1.000000 0.118174
vt 0.000000 0.084895
vt 0.100000 0.084895
vt 0.200000 0.084895
vt 0.300000 0.084895
vt 0.400000 0.084895
vt 0.500000 0.084895
vt 0.600000 0.084895
vt 0.700000 0.084895
vt 0.800000 0.084895
vt 0.900000 0.084895
vt 1.000000 0.084895
vt 0.000000 0.066976
vt 0.100000 0.066976
vt 0.200000 0.066976
vt 0.300000 0.066976
vt 0.400000 0.066976
vt 0.500000 0.066976
vt 0.600000 0.066976
vt 0.700000 0.066976
vt 0.800000 0.066976
vt 0.900000 0.066976
vt 1.000000 0.066976
vt 0.000000 0.052256
vt 0.100000 0.052256
vt 0.200000 0.052256
vt 0.300000 0.052256
vt 0.400000 0.052256
vt 0.500000 0.052256
vt 0.600000 0.052256
vt 0.700000 0.052256
vt 0.800000 0.052256
vt 0.900000 0.052256
vt 1.000000 0.052256
vt 0.000000 0.046656
vt 0.100000 0.046656
vt 0.200000 0.046656
vt 0.300000 0.046656
vt 0.400000 0.046656
vt 0.500000 0.046656
vt 0.600000 0.046656
vt 0.700000 0.046656
vt 0.800000 0.046656
vt 0.900000 0.046656
vt 1.000000 0.046656
vt 0.000000 0.013217
vt 0.100000 0.013217
vt 0.200000 0.013217
vt 0.300000 0.013217
vt 0.400000 0.013217
vt 0.500000 0.013217
vt 0.600000 0.013217
vt 0.700000 0.013217
vt 0.800000 0.013217
vt 0.900000 0.013217
vt 1.000000 0.013217
vt 0.000000 0.000258
vt 0.100000 0.000258
vt 0.200000 0.000258
vt 0.300000 0.000258
vt 0.400000 0.000258
vt 0.500000 0.000258
vt 0.600000 0.000258
vt 0.700000 0.000258
vt 0.800000 0.000258
vt 0.900000 0.000258
vt 1.000000 0.000258
vt 0.000000 0.000000
vt 0.100000 0.000000
vt 0.200000 0.000000
vt 0.300000 0.000000
vt 0.400000 0.000000
vt 0.500000 0.000000
vt 0.600000 0.000000
vt 0.700000 0.000000
vt 0.800000 0.000000
vt 0.900000 0.000000
vt 1.000000 0.000000
s 1
f 1/1/1 2/2/2 14/3/3 13/4/4
f 13/4/4 14/3/3 26/5/5 25/6/6
f 25/6/6 26/5/5 38/7/7 37/8/8
f 37/8/8 38/7/7 50/9/9 49/10/10
f 49/10/10 50/9/9 62/11/11 61/12/12
f 61/12/12 62/11/11 74/13/13 73/14/14
f 73/14/14 74/13/13 86/15/15 85/16/16
f 85/16/16 86/15/15 98/17/17 97/18/18
f 97/18/18 98/17/17 110/19/19 109/20/20
f 109/20/20 110/19/19 2/21/2 1/22/1
f 2/2/2 3/23/21 15/24/22 14/3/3
f 14/3/3 15/24/22 27/25/23 26/5/5
f 26/5/5 27/25/23 39/26/24 38/7/7
f 38/7/7 39/26/24 51/27/25 50/9/9
f 50/9/9 51/27/25 63/28/26 62/11/11
f 62/11/11 63/28/26 75/29/27 74/13/13
f 74/13/13 75/29/27 87/30/28 86/15/15
f 86/15/15 87/30/28 99/31/29 98/17/17
f 98/17/17 99/31/29 111/32/30 110/19/19
f 110/19/19 111/32/30 3/33/21 2/21/2
f 3/23/21 4/34/31 16/35/32 15/24/22
f 15/24/22 16/35/32 28/36/33 27/25/23
f 27/25/23 28/36/33 40/37/34 39/26/24
f 39/26/24 40/37/34 52/38/35 51/27/25
f 51/27/25 52/38/35 64/39/36 63/28/26
f 63/28/26 64/39/36 76/40/37 75/29/27
f 75/29/27 76/40/37 88/41/38 87/30/28
f 87/30/28 88/41/38 100/42/39 99/31/29
f 99/31/29 100/42/39 112/43/40 111/32/30
f 111/32/30 112/43/40 4/44/31 3/33/21
f 4/34/31 5/45/41 17/46/42 16/35/32
f 16/35/32 17/46/42 29/47/43 28/36/33
f 28/36/33 29/47/43 41/48/44 40/37/34
f 40/37/34 41/48/44 53/49/45 52/38/35
f 52/38/35 53/49/45 65/50/46 64/39/36
f 64/39/36 65/50/46 77/51/47 76/40/37
f 76/40/37 77/51/47 89/52/48 88/41/38
f 88/41/38 89/52/48 101/53/49 100/42/39
f 100/42/39 101/53/49 113/54/50 112/43/40
f 112/43/40 113/54/50 5/55/41 4/44/31
f 5/45/41 6/56/51 18/57/52 17/46/42
f 17/46/42 18/57/52 30/58/53 29/47/43
f 29/47/43 30/58/53 42/59/54 41/48/44
f 41/48/44 42/59/54 54/60/55 53/49/45
f 53/49/45 54/60/55 66/61/56 65/50/46
f 65/50/46 66/61/56 78/62/57 77/51/47
f 77/51/47 78/62/57 90/63/58 89/52/48
f 89/52/48 90/63/58 102/64/59 101/53/49
f 101/53/49 102/64/59 114/65/60 113/54/50
f 113/54/50 114/65/60 6/66/51 5/55/41
f 6/56/51 7/67/61 19/68/62 18/57/52
f 18/57/52 19/68/62 31/69/63 30/58/53
f 30/58/53 31/69/63 43/70/64 42/59/54
f 42/59/54 43/70/64 55/71/65 54/60/55
f 54/60/55 55/71/65 67/72/66 66/61/56
f 66/61/56 67/72/66 79/73/67 78/62/57
f 78/62/57 79/73/67 91/74/68 90/63/58
f 90/63/58 91/74/68 103/75/69 102/64/59
f 102/64/59 103/75/69 115/76/70 114/65/60
f 114/65/60 115/76/70 7/77/61 6/66/51
f 7/67/61 8/78/71 20/79/72 19/68/62
f 19/68/62 20/79/72 32/80/73 31/69/63
f 31/69/63 32/80/73 44/81/74 43/70/64
f 43/70/64 44/81/74 56/82/75 55/71/65
f 55/71/65 56/82/75 68/83/76 67/72/66
f 67/72/66 68/83/76 80/84/77 79/73/67
f 79/73/67 80/84/77 92/85/78 91/74/68
f 91/74/68 92/85/78 104/86/79 103/75/69
f 103/75/69 104/86/79 116/87/80 115/76/70
f 115/76/70 116/87/80 8/88/71 7/77/61
f 8/78/71 9/89/81 21/90/82 20/79/72
f 20/79/72 21/90/82 33/91/83 32/80/73
f 32/80/73 33/91/83 45/92/84 44/81/74
f 44/81/74 45/92/84 57/93/85 56/82/75
f 56/82/75 57/93/85 69/94/86 68/83/76
f 68/83/76 69/94/86 81/95/87 80/84/77
f 80/84/77 81/95/87 93/96/88 92/85/78
f 92/85/78 93/96/88 105/97/89 104/86/79
f 104/86/79 105/97/89 117/98/90 116/87/80
f 116/87/80 117/98/90 9/99/81 8/88/71
f 9/89/81 10/100/91 22/101/92 21/90/82
f 21/90/82 22/101/92 34/102/93 33/91/83
f 33/91/83 34/102/93 46/103/94 45/92/84
f 45/92/84 46/103/94 58/104/95 57/93/85
f 57/93/85 58/104/95 70/105/96 69/94/86
f 69/94/86 70/105/96 82/106/97 81/95/87
f 81/95/87 82/106/97 94/107/98 93/96/88
f 93/96/88 94/107/98 106/108/99 105/97/89
f 105/97/89 106/108/99 118/109/100 117/98/90
f 117/98/90 118/109/100 10/110/91 9/99/81
f 10/100/91 11/111/101 23/112/102 22/101/92
f 22/101/92 23/112/102 35/113/103 34/102/93
f 34/102/93 35/113/103 47/114/104 46/103/94
f 46/103/94 47/114/104 59/115/105 58/104/95
f 58/104/95 59/115/105 71/116/106 70/105/96
f 70/105/96 71/116/106 83/117/107 82/106/97
f 82/106/97 83/117/107 95/118/108 94/107/98
f 94/107/98 95/118/108 107/119/109 106/108/99
f 106/108/99 107/119/109 119/120/110 118/109/100
f 118/109/100 119/120/110 11/121/101 10/110/91
f 11/111/101 12/122/111 24/123/112 23/112/102
f 23/112/102 24/123/112 36/124/113 35/113/103
f 35/113/103 36/124/113 48/125/114 47/114/104
f 47/114/104 48/125/114 60/126/115 59/115/105
f 59/115/105 60/126/115 72/127/116 71/116/106
f 71/116/106 72/127/116 84/128/117 83/117/107
f 83/117/107 84/128/117 96/129/118 95/118/108
f 95/118/108 96/129/118 108/130/119 107/119/109
f 107/119/109 108/130/119 120/131/120 119/120/110
f 119/120/110 120/131/120 12/132/111 11/121/101
o Bulb
v 0.000000 0.182000 0.000000
v 0.019000 0.179000 0.000000
v 0.037500 0.168252 0.000000
v 0.051740 0.146013 0.000000
v 0.053660 0.118174 0.000000
v 0.039260 0.084895 0.000000
v 0.030781 0.066976 0.000000
v 0.028861 0.052256 0.000000
v 0.023261 0.046656 0.000000
v 0.023901 0.013217 0.000000
v 0.010141 0.000258 0.000000
v 0.000000 0.000000 0.000000
v 0.000000 0.182000 0.000000
v 0.015371 0.179000 -0.011168
v 0.030338 0.168252 -0.022042
v 0.041858 0.146013 -0.030412
v 0.043412 0.118174 -0.031540
v 0.031762 0.084895 -0.023077
v 0.024902 0.066976 -0.018092
v 0.023349 0.052256 -0.016964
v 0.018818 0.046656 -0.013672
v 0.019336 0.013217 -0.014049
v 0.008204 0.000258 -0.005961
v 0.000000 0.000000 0.000000
v 0.000000 0.182000 0.000000
v 0.005871 0.179000 -0.018070
v 0.011588 0.168252 -0.035665
v 0.015989 0.146013 -0.049208
v 0.016582 0.118174 -0.051033
v 0.012132 0.084895 -0.037339
v 0.009512 0.066976 -0.029274
v 0.008918 0.052256 -0.027448
v 0.007188 0.046656 -0.022122
v 0.007386 0.013217 -0.022731
v 0.003134 0.000258 -0.009645
v 0.000000 0.000000 0.000000
v 0.000000 0.182000 0.000000
v -0.005871 0.179000 -0.018070
v -0.011588 0.168252 -0.035665
v -0.015988 0.146013 -0.049208
v -0.016582 0.118174 -0.051033
v -0.012132 0.084895 -0.037339
v -0.009512 0.066976 -0.029274
v -0.008918 0.052256 -0.027448
v -0.007188 0.046656 -0.022122
v -0.007386 0.013217 -0.022731
v -0.003134 0.000258 -0.009645
v 0.000000 0.000000 0.000000
v 0.000000 0.182000 0.000000
v -0.015371 0.179000 -0.011168
v -0.030338 0.168252 -0.022042
v -0.041858 0.146013 -0.030412
v -0.043412 0.118174 -0.031540
v -0.031762 0.084895 -0.023077
v -0.024902 0.066976 -0.018092
v -0.023349 0.052256 -0.016964
v -0.018818 0.046656 -0.013672
v -0.019336 0.013217 -0.014049
v -0.008204 0.000258 -0.005961
v 0.000000 0.000000 0.000000
v 0.000000 0.182000 0.000000
v -0.019000 0.179000 -0.000000
v -0.037500 0.168252 -0.000000
v -0.051740 0.146013 -0.000000
v -0.053660 0.118174 -0.000000
v -0.039260 0.084895 -0.000000
v -0.030781 0.066976 -0.000000
v -0.028861 0.052256 -0.000000
v -0.023261 0.046656 -0.000000
v -0.023901 0.013217 0.000000
v -0.010141 0.000258 0.000000
v 0.000000 0.000000 0.000000
v 0.000000 0.182000 0.000000
v -0.015371 0.179000 0.011168
v -0.030338 0.168252 0.022042
v -0.041858 0.146013 0.030412
v -0.043412 0.118174 0.031540
v -0.031762 0.084895 0.023077
v -0.024902 0.066976 0.018092
v -0.023349 0.052256 0.016964
v -0.018818 0.046656 0.013672
v -0.019336 0.013217 0.014049
v -0.008204 0.000258 0.005961
v 0.000000 0.000000 0.000000
v 0.000000 0.182000 0.000000
v -0.005871 0.179000 0.018070
v -0.011588 0.168252 0.035665
v -0.015989 0.146013 0.049207
v -0.016582 0.118174 0.051033
v -0.012132 0.084895 0.037339
v -0.009512 0.066976 0.029274
v -0.008918 0.052256 0.027448
v -0.007188 0.046656 0.022122
v -0.007386 0.013217 0.022731
v -0.003134 0.000258 0.009645
v 0.000000 0.000000 0.000000
v 0.000000 0.182000 0.000000
v 0.005871 0.179000 0.018070
v 0.011588 0.168252 0.035665
v 0.015988 0.146013 0.049208
v 0.016582 0.118174 0.051033
v 0.012132 0.084895 0.037339
v 0.009512 0.066976 0.029274
v 0.008918 0.052256 0.027448
v 0.007188 0.046656 0.022122
v 0.007386 0.013217 0.022731
v 0.003134 0.000258 0.009645
v 0.000000 0.000000 0.000000
v 0.000000 0.182000 0.000000
v 0.015371 0.179000 0.011168
v 0.030338 0.168252 0.022042
v 0.041858 0.146013 0.030412
v 0.043412 0.118174 0.031540
v 0.031762 0.084895 0.023077
v 0.024902 0.066976 0.018092
v 0.023349 0.052256 0.016964
v 0.018818 0.046656 0.013672
v 0.019336 0.013217 0.014049
v 0.008204 0.000258 0.005961
v 0.000000 0.000000 0.000000
vn 0.0257 0.9996 -0.0084
vn 0.2966 0.9304 -0.2155
vn 0.0159 0.9996 -0.0219
vn 0.1133 0.9304 -0.3487
vn -0.0000 0.9996 -0.0271
vn -0.1133 0.9304 -0.3487
vn -0.0159 0.9996 -0.0219
vn -0.2966 0.9304 -0.2155
vn -0.0257 0.9996 -0.0084
vn -0.3666 0.9304 -0.0000
vn -0.0257 0.9996 0.0084
vn -0.2966 0.9304 0.2155
vn -0.0159 0.9996 0.0219
vn -0.1133 0.9304 0.3487
vn -0.0000 0.9996 0.0271
vn 0.1133 0.9304 0.3487
vn 0.0159 0.9996 0.0219
vn 0.2966 0.9304 0.2155
vn 0.0257 0.9996 0.0084
vn 0.3666 0.9304 -0.0000
vn 0.7145 0.6996 -0.0000
vn 0.5781 0.6996 -0.4200
vn 0.2208 0.6996 -0.6795
vn -0.2208 0.6996 -0.6795
vn -0.5781 0.6996 -0.4200
vn -0.7145 0.6996 -0.0000
vn -0.5781 0.6996 0.4200
vn -0.2208 0.6996 0.6795
vn 0.2208 0.6996 0.6795
vn 0.5781 0.6996 0.4200
vn 0.9539 0.3001 -0.0000
vn 0.7717 0.3001 -0.5607
vn 0.2948 0.3001 -0.9072
vn -0.2948 0.3001 -0.9072
vn -0.7717 0.3001 -0.5607
vn -0.9539 0.3001 -0.0000
vn -0.7717 0.3001 0.5607
vn -0.2948 0.3001 0.9072
vn 0.2948 0.3001 0.9072
vn 0.7717 0.3001 0.5607
vn 0.9868 -0.1617 -0.0000
vn 0.7984 -0.1617 -0.5801
vn 0.3050 -0.1617 -0.9385
vn -0.3050 -0.1617 -0.9385
vn -0.7984 -0.1617 -0.5801
vn -0.9868 -0.1617 -0.0000
vn -0.7984 -0.1617 0.5801
vn -0.3050 -0.1617 0.9385
vn 0.3050 -0.1617 0.9385
vn 0.7984 -0.1617 0.5801
vn 0.7374 -0.4112 -0.5358
vn -0.2817 -0.4112 -0.8669
vn -0.7374 -0.4112 -0.5358
vn -0.9115 -0.4112 -0.0000
vn -0.7374 -0.4112 0.5358
vn -0.2817 -0.4112 0.8669
vn 0.2817 -0.4112 0.8669
vn 0.7374 -0.4112 0.5358
vn 0.9568 -0.2906 -0.0000
vn 0.9115 -0.4112 -0.0000
vn 0.7741 -0.2906 -0.5624
vn 0.2817 -0.4112 -0.8669
vn 0.2957 -0.2906 -0.9100
vn -0.2957 -0.2906 -0.9100
vn -0.7741 -0.2906 -0.5624
vn -0.9568 -0.2906 -0.0000
vn -0.7741 -0.2906 0.5624
vn -0.2957 -0.2906 0.9100
vn 0.2957 -0.2906 0.9100
vn 0.7741 -0.2906 0.5624
vn 0.9083 -0.4184 -0.0000
vn 0.7348 -0.4184 -0.5339
vn 0.2807 -0.4184 -0.8638
vn -0.2807 -0.4184 -0.8638
vn -0.9083 -0.4184 -0.0000
vn -0.7348 -0.4184 0.5339
vn -0.2807 -0.4184 0.8638
vn 0.2807 -0.4184 0.8638
vn 0.7348 -0.4184 0.5339
vn 0.9150 -0.4035 -0.0000
vn 0.2827 -0.4035 -0.8702
vn -0.7402 -0.4035 -0.5378
vn -0.7348 -0.4184 -0.5339
vn -0.9150 -0.4035 -0.0000
vn -0.7402 -0.4035 0.5378
vn 0.2827 -0.4035 0.8702
vn 0.9323 -0.3618 -0.0000
vn 0.7402 -0.4035 -0.5378
vn 0.7542 -0.3618 -0.5480
vn 0.2881 -0.3618 -0.8866
vn -0.2827 -0.4035 -0.8702
vn -0.2881 -0.3618 -0.8866
vn -0.7542 -0.3618 -0.5480
vn -0.9323 -0.3618 -0.0000
vn -0.7542 -0.3618 0.5480
vn -0.2827 -0.4035 0.8702
vn -0.2881 -0.3618 0.8866
vn 0.2881 -0.3618 0.8866
vn 0.7402 -0.4035 0.5378
vn 0.7542 -0.3618 0.5480
vn 0.4382 -0.8989 -0.0000
vn 0.3545 -0.8989 -0.2575
vn 0.1354 -0.8989 -0.4167
vn -0.1354 -0.8989 -0.4167
vn -0.3545 -0.8989 -0.2576
vn -0.4382 -0.8989 -0.0000
vn -0.3545 -0.8989 0.2576
vn -0.1354 -0.8989 0.4167
vn 0.1354 -0.8989 0.4167
vn 0.3545 -0.8989 0.2575
vn 0.0064 1.0000 -0.0021
vn 0.0039 1.0000 -0.0054
vn -0.0000 1.0000 -0.0067
vn -0.0039 1.0000 -0.0054
vn -0.0064 1.0000 -0.0021
vn -0.0064 1.0000 0.0021
vn -0.0039 1.0000 0.0054
vn -0.0000 1.0000 0.0067
vn 0.0039 1.0000 0.0054
vn 0.0064 1.0000 0.0021
vt 0.000000 0.182000
vt 0.100000 0.179000
vt 0.100000 0.182000
vt 0.200000 0.179000
vt 0.200000 0.182000
vt 0.300000 0.179000
vt 0.300000 0.182000
vt 0.400000 0.179000
vt 0.400000 0.182000
vt 0.500000 0.179000
vt 0.500000 0.182000
vt 0.600000 0.179000
vt 0.600000 0.182000
vt 0.700000 0.179000
vt 0.700000 0.182000
vt 0.800000 0.179000
vt 0.800000 0.182000
vt 0.900000 0.179000
vt 0.900000 0.182000
vt 1.000000 0.179000
vt 1.000000 0.182000
vt 0.000000 0.168252
vt 0.000000 0.179000
vt 0.100000 0.168252
vt 0.200000 0.168252
vt 0.300000 0.168252
vt 0.400000 0.168252
vt 0.500000 0.168252
vt 0.600000 0.168252
vt 0.700000 0.168252
vt 0.800000 0.168252
vt 0.900000 0.168252
vt 0.000000 0.146013
vt 0.100000 0.146013
vt 0.200000 0.146013
vt 0.300000 0.146013
vt 0.400000 0.146013
vt 0.500000 0.146013
vt 0.600000 0.146013
vt 0.700000 0.146013
vt 0.800000 0.146013
vt 0.900000 0.146013
vt 1.000000 0.168252
vt 0.000000 0.118174
vt 0.100000 0.118174
vt 0.200000 0.118174
vt 0.300000 0.118174
vt 0.400000 0.118174
vt 0.500000 0.118174
vt 0.600000 0.118174
vt 0.700000 0.118174
vt 0.800000 0.118174
vt 0.900000 0.118174
vt 1.000000 0.146013
vt 0.100000 0.084895
vt 0.300000 0.084895
vt 0.400000 0.084895
vt 0.500000 0.084895
vt 0.600000 0.084895
vt 0.700000 0.084895
vt 0.800000 0.084895
vt 0.900000 0.084895
vt 1.000000 0.118174
vt 0.000000 0.066976
vt 0.000000 0.084895
vt 0.100000 0.066976
vt 0.200000 0.084895
vt 0.200000 0.066976
vt 0.300000 0.066976
vt 0.400000 0.066976
vt 0.500000 0.066976
vt 0.600000 0.066976
vt 0.700000 0.066976
vt 0.800000 0.066976
vt 0.900000 0.066976
vt 1.000000 0.084895
vt 0.000000 0.052256
vt 0.100000 0.052256
vt 0.200000 0.052256
vt 0.300000 0.052256
vt 0.500000 0.052256
vt 0.600000 0.052256
vt 0.700000 0.052256
vt 0.800000 0.052256
vt 0.900000 0.052256
vt 1.000000 0.066976
vt 0.000000 0.046656
vt 0.200000 0.046656
vt 0.400000 0.046656
vt 0.400000 0.052256
vt 0.500000 0.046656
vt 0.600000 0.046656
vt 0.800000 0.046656
vt 1.000000 0.046656
vt 1.000000 0.052256
vt 0.000000 0.013217
vt 0.100000 0.046656
vt 0.100000 0.013217
vt 0.200000 0.013217
vt 0.300000 0.046656
vt 0.300000 0.013217
vt 0.400000 0.013217
vt 0.500000 0.013217
vt 0.600000 0.013217
vt 0.700000 0.046656
vt 0.700000 0.013217
vt 0.800000 0.013217
vt 0.900000 0.046656
vt 0.900000 0.013217
vt 0.000000 0.000258
vt 0.100000 0.000258
vt 0.200000 0.000258
vt 0.300000 0.000258
vt 0.400000 0.000258
vt 0.500000 0.000258
vt 0.600000 0.000258
vt 0.700000 0.000258
vt 0.800000 0.000258
vt 0.900000 0.000258
vt 1.000000 0.013217
vt 0.100000 0.000000
vt 0.200000 0.000000
vt 0.300000 0.000000
vt 0.400000 0.000000
vt 0.500000 0.000000
vt 0.600000 0.000000
vt 0.700000 0.000000
vt 0.800000 0.000000
vt 0.900000 0.000000
vt 1.000000 0.000000
vt 1.000000 0.000258
vt 0.000000 0.000000
s 1
f 121/133/121 134/134/122 133/135/123
f 133/135/123 146/136/124 145/137/125
f 145/137/125 158/138/126 157/139/127
f 157/139/127 170/140/128 169/141/129
f 169/141/129 182/142/130 181/143/131
f 181/143/131 194/144/132 193/145/133
f 193/145/133 206/146/134 205/147/135
f 205/147/135 218/148/136 217/149/137
f 217/149/137 230/150/138 229/151/139
f 229/151/139 122/152/140 121/153/121
f 123/154/141 134/134/122 122/155/140
f 135/156/142 146/136/124 134/134/122
f 147/157/143 158/138/126 146/136/124
f 159/158/144 170/140/128 158/138/126
f 171/159/145 182/142/130 170/140/128
f 183/160/146 194/144/132 182/142/130
f 195/161/147 206/146/134 194/144/132
f 207/162/148 218/148/136 206/146/134
f 219/163/149 230/150/138 218/148/136
f 231/164/150 122/152/140 230/150/138
f 124/165/151 135/156/142 123/154/141
f 136/166/152 147/157/143 135/156/142
f 148/167/153 159/158/144 147/157/143
f 160/168/154 171/159/145 159/158/144
f 172/169/155 183/160/146 171/159/145
f 184/170/156 195/161/147 183/160/146
f 196/171/157 207/162/148 195/161/147
f 208/172/158 219/163/149 207/162/148
f 220/173/159 231/164/150 219/163/149
f 232/174/160 123/175/141 231/164/150
f 125/176/161 136/166/152 124/165/151
f 137/177/162 148/167/153 136/166/152
f 149/178/163 160/168/154 148/167/153
f 161/179/164 172/169/155 160/168/154
f 173/180/165 184/170/156 172/169/155
f 185/181/166 196/171/157 184/170/156
f 197/182/167 208/172/158 196/171/157
f 209/183/168 220/173/159 208/172/158
f 221/184/169 232/174/160 220/173/159
f 233/185/170 124/186/151 232/174/160
f 125/176/161 138/187/171 137/177/162
f 138/187/171 149/178/163 137/177/162
f 149/178/163 162/188/172 161/179/164
f 161/179/164 174/189/173 173/180/165
f 173/180/165 186/190/174 185/181/166
f 185/181/166 198/191/175 197/182/167
f 198/191/175 209/183/168 197/182/167
f 210/192/176 221/184/169 209/183/168
f 222/193/177 233/185/170 221/184/169
f 234/194/178 125/195/161 233/185/170
f 127/196/179 138/187/171 126/197/180
f 139/198/181 150/199/182 138/187/171
f 151/200/183 162/188/172 150/199/182
f 163/201/184 174/189/173 162/188/172
f 175/202/185 186/190/174 174/189/173
f 187/203/186 198/191/175 186/190/174
f 199/204/187 210/192/176 198/191/175
f 211/205/188 222/193/177 210/192/176
f 223/206/189 234/194/178 222/193/177
f 235/207/190 126/208/180 234/194/178
f 128/209/191 139/198/181 127/196/179
f 140/210/192 151/200/183 139/198/181
f 152/211/193 163/201/184 151/200/183
f 164/212/194 175/202/185 163/201/184
f 175/202/185 188/213/195 187/203/186
f 188/213/195 199/204/187 187/203/186
f 200/214/196 211/205/188 199/204/187
f 212/215/197 223/206/189 211/205/188
f 224/216/198 235/207/190 223/206/189
f 236/217/199 127/218/179 235/207/190
f 129/219/200 140/210/192 128/209/191
f 140/210/192 153/220/201 152/211/193
f 153/220/201 164/212/194 152/211/193
f 164/212/194 177/221/202 176/222/203
f 177/221/202 188/213/195 176/222/203
f 189/223/204 200/214/196 188/213/195
f 201/224/205 212/215/197 200/214/196
f 212/215/197 225/225/206 224/216/198
f 225/225/206 236/217/199 224/216/198
f 236/217/199 129/226/200 128/227/191
f 130/228/207 141/229/208 129/219/200
f 142/230/209 153/220/201 141/229/208
f 154/231/210 165/232/211 153/220/201
f 166/233/212 177/221/202 165/232/211
f 178/234/213 189/223/204 177/221/202
f 190/235/214 201/224/205 189/223/204
f 202/236/215 213/237/216 201/224/205
f 214/238/217 225/225/206 213/237/216
f 226/239/218 237/240/219 225/225/206
f 238/241/220 129/226/200 237/240/219
f 131/242/221 142/230/209 130/228/207
f 143/243/222 154/231/210 142/230/209
f 155/244/223 166/233/212 154/231/210
f 167/245/224 178/234/213 166/233/212
f 179/246/225 190/235/214 178/234/213
f 191/247/226 202/236/215 190/235/214
f 203/248/227 214/238/217 202/236/215
f 215/249/228 226/239/218 214/238/217
f 227/250/229 238/241/220 226/239/218
f 239/251/230 130/252/207 238/241/220
f 131/242/221 144/253/231 143/243/222
f 143/243/222 156/254/232 155/244/223
f 155/244/223 168/255/233 167/245/224
f 167/245/224 180/256/234 179/246/225
f 179/246/225 192/257/235 191/247/226
f 191/247/226 204/258/236 203/248/227
f 203/248/227 216/259/237 215/249/228
f 215/249/228 228/260/238 227/250/229
f 227/250/229 240/261/239 239/251/230
f 239/251/230 132/262/240 131/263/221
f 121/133/121 122/155/140 134/134/122
f 133/135/123 134/134/122 146/136/124
f 145/137/125 146/136/124 158/138/126
f 157/139/127 158/138/126 170/140/128
f 169/141/129 170/140/128 182/142/130
f 181/143/131 182/142/130 194/144/132
f 193/145/133 194/144/132 206/146/134
f 205/147/135 206/146/134 218/148/136
f 217/149/137 218/148/136 230/150/138
f 229/151/139 230/150/138 122/152/140
f 123/154/141 135/156/142 134/134/122
f 135/156/142 147/157/143 146/136/124
f 147/157/143 159/158/144 158/138/126
f 159/158/144 171/159/145 170/140/128
f 171/159/145 183/160/146 182/142/130
f 183/160/146 195/161/147 194/144/132
f 195/161/147 207/162/148 206/146/134
f 207/162/148 219/163/149 218/148/136
f 219/163/149 231/164/150 230/150/138
f 231/164/150 123/175/141 122/152/140
f 124/165/151 136/166/152 135/156/142
f 136/166/152 148/167/153 147/157/143
f 148/167/153 160/168/154 159/158/144
f 160/168/154 172/169/155 171/159/145
f 172/169/155 184/170/156 183/160/146
f 184/170/156 196/171/157 195/161/147
f 196/171/157 208/172/158 207/162/148
f 208/172/158 220/173/159 219/163/149
f 220/173/159 232/174/160 231/164/150
f 232/174/160 124/186/151 123/175/141
f 125/176/161 137/177/162 136/166/152
f 137/177/162 149/178/163 148/167/153
f 149/178/163 161/179/164 160/168/154
f 161/179/164 173/180/165 172/169/155
f 173/180/165 185/181/166 184/170/156
f 185/181/166 197/182/167 196/171/157
f 197/182/167 209/183/168 208/172/158
f 209/183/168 221/184/169 220/173/159
f 221/184/169 233/185/170 232/174/160
f 233/185/170 125/195/161 124/186/151
f 125/176/161 126/197/180 138/187/171
f 138/187/171 150/199/182 149/178/163
f 149/178/163 150/199/182 162/188/172
f 161/179/164 162/188/172 174/189/173
f 173/180/165 174/189/173 186/190/174
f 185/181/166 186/190/174 198/191/175
f 198/191/175 210/192/176 209/183/168
f 210/192/176 222/193/177 221/184/169
f 222/193/177 234/194/178 233/185/170
f 234/194/178 126/208/180 125/195/161
f 127/196/179 139/198/181 138/187/171
f 139/198/181 151/200/183 150/199/182
f 151/200/183 163/201/184 162/188/172
f 163/201/184 175/202/185 174/189/173
f 175/202/185 187/203/186 186/190/174
f 187/203/186 199/204/187 198/191/175
f 199/204/187 211/205/188 210/192/176
f 211/205/188 223/206/189 222/193/177
f 223/206/189 235/207/190 234/194/178
f 235/207/190 127/218/179 126/208/180
f 128/209/191 140/210/192 139/198/181
f 140/210/192 152/211/193 151/200/183
f 152/211/193 164/212/194 163/201/184
f 164/212/194 176/222/203 175/202/185
f 175/202/185 176/222/203 188/213/195
f 188/213/195 200/214/196 199/204/187
f 200/214/196 212/215/197 211/205/188
f 212/215/197 224/216/198 223/206/189
f 224/216/198 236/217/199 235/207/190
f 236/217/199 128/227/191 127/218/179
f 129/219/200 141/229/208 140/210/192
f 140/210/192 141/229/208 153/220/201
f 153/220/201 165/232/211 164/212/194
f 164/212/194 165/232/211 177/221/202
f 177/221/202 189/223/204 188/213/195
f 189/223/204 201/224/205 200/214/196
f 201/224/205 213/237/216 212/215/197
f 212/215/197 213/237/216 225/225/206
f 225/225/206 237/240/219 236/217/199
f 236/217/199 237/240/219 129/226/200
f 130/228/207 142/230/209 141/229/208
f 142/230/209 154/231/210 153/220/201
f 154/231/210 166/233/212 165/232/211
f 166/233/212 178/234/213 177/221/202
f 178/234/213 190/235/214 189/223/204
f 190/235/214 202/236/215 201/224/205
f 202/236/215 214/238/217 213/237/216
f 214/238/217 226/239/218 225/225/206
f 226/239/218 238/241/220 237/240/219
f 238/241/220 130/252/207 129/226/200
f 131/242/221 143/243/222 142/230/209
f 143/243/222 155/244/223 154/231/210
f 155/244/223 167/245/224 166/233/212
f 167/245/224 179/246/225 178/234/213
f 179/246/225 191/247/226 190/235/214
f 191/247/226 203/248/227 202/236/215
f 203/248/227 215/249/228 214/238/217
f 215/249/228 227/250/229 226/239/218
f 227/250/229 239/251/230 238/241/220
f 239/251/230 131/263/221 130/252/207
f 131/242/221 132/264/240 144/253/231
f 143/243/222 144/253/231 156/254/232
f 155/244/223 156/254/232 168/255/233
f 167/245/224 168/255/233 180/256/234
f 179/246/225 180/256/234 192/257/235
f 191/247/226 192/257/235 204/258/236
f 203/248/227 204/258/236 216/259/237
f 215/249/228 216/259/237 228/260/238
f 227/250/229 228/260/238 240/261/239
f 239/251/230 240/261/239 132/262/240
