# Blender 4.0.2
# www.blender.org
mtllib AlarmClock.mtl
o AlarmClock
v -0.136852 0.028096 0.114151
v -0.136213 0.035245 0.117530
v -0.141240 0.032979 0.112912
v -0.127929 0.143090 0.088618
v -0.122879 0.143204 0.093711
v -0.122312 0.148086 0.087634
v -0.141056 0.003910 -0.100086
v -0.135999 0.003874 -0.105142
v -0.136852 -0.001074 -0.100861
v -0.122312 0.092117 -0.088133
v -0.123040 0.084992 -0.093353
v -0.128243 0.086727 -0.088076
v 0.141240 0.032979 0.112912
v 0.136213 0.035245 0.117530
v 0.136852 0.028096 0.114151
v 0.122312 0.148086 0.087634
v 0.122879 0.143204 0.093711
v 0.127929 0.143090 0.088618
v 0.136852 -0.001074 -0.100861
v 0.135999 0.003874 -0.105142
v 0.141056 0.003910 -0.100086
v 0.122312 0.092117 -0.088133
v 0.128243 0.086727 -0.088076
v 0.123040 0.084992 -0.093353
v -0.141362 0.003951 0.055825
v -0.136852 -0.001074 0.056809
v -0.127801 0.143074 0.028583
v -0.122312 0.148086 0.027601
v 0.141362 0.003951 0.055825
v 0.136852 -0.001074 0.056809
v 0.127801 0.143074 0.028583
v 0.122312 0.148086 0.027601
vn -0.0000 1.0000 -0.0000
vn -0.0000 0.9747 -0.2233
vn -0.0000 0.7796 0.6263
vn 0.9920 0.1244 -0.0189
vn 0.9943 0.1016 -0.0337
vn 0.9882 0.1532 -0.0020
vn -0.0000 0.7643 -0.6448
vn -0.0000 -0.9724 0.2331
vn -0.0000 -1.0000 -0.0000
vn -0.7120 0.2323 0.6626
vn -0.6425 0.4417 0.6262
vn -0.7127 0.2322 0.6619
vn -0.9920 0.1244 -0.0189
vn -0.9943 0.1016 -0.0337
vn -0.9947 0.0995 -0.0273
vn -0.0000 -0.6543 -0.7562
vn -0.5628 -0.3116 0.7656
vn -0.6466 0.4278 0.6316
vn -0.5233 0.6875 0.5035
vn -0.6370 -0.4386 -0.6339
vn -0.6021 0.6564 -0.4546
vn -0.6150 0.3340 -0.7143
vn -0.6275 0.4956 -0.6005
vn 0.5628 -0.3116 0.7656
vn 0.5233 0.6875 0.5035
vn 0.6466 0.4278 0.6316
vn 0.6425 0.4417 0.6262
vn 0.6370 -0.4386 -0.6339
vn 0.6021 0.6564 -0.4546
vn 0.6275 0.4956 -0.6005
vn 0.6150 0.3340 -0.7143
vn -0.6801 0.7140 -0.1664
vn -0.6811 0.7142 -0.1616
vn 0.7120 0.2323 0.6626
vn 0.6801 0.7140 -0.1664
vn 0.6889 0.2106 -0.6936
vn -0.6889 0.2106 -0.6936
vn -0.0000 0.2154 0.9765
vn -0.6655 0.7464 -0.0015
vn -0.6648 0.7470 -0.0016
vn -0.0000 0.3615 -0.9324
vn -0.0000 0.1438 -0.9896
vn -0.7639 -0.6453 -0.0013
vn -0.7506 -0.6417 0.1577
vn -0.7645 -0.6446 -0.0013
vn 0.7452 -0.5938 0.3034
vn 0.7506 -0.6417 0.1577
vn 0.7457 -0.5932 0.3032
vn -0.0000 -0.4273 0.9041
vn 0.7639 -0.6453 -0.0013
vn 0.7502 -0.6436 0.1516
vn 0.6655 0.7464 -0.0015
vn 0.6811 0.7142 -0.1616
vn -0.7452 -0.5938 0.3034
vn -0.7502 -0.6436 0.1516
vn 0.9947 0.0995 -0.0273
vn 0.9948 0.0960 -0.0332
vn -0.9948 0.0960 -0.0332
vn -0.0000 -0.8913 0.4534
vn -0.9882 0.1532 -0.0020
vn 0.7127 0.2322 0.6619
vn 0.6905 0.2109 -0.6920
vn -0.6905 0.2109 -0.6920
vn 0.7645 -0.6446 -0.0013
vn 0.6648 0.7470 -0.0016
vn -0.7457 -0.5932 0.3032
vn 0.9928 0.1195 -0.0022
vn -0.9928 0.1195 -0.0022
vt 0.870091 0.740389
vt 0.629909 0.625000
vt 0.870091 0.625000
vt 0.614631 0.995201
vt 0.625000 0.754909
vt 0.625000 0.995091
vt 0.611766 0.504932
vt 0.383423 0.625000
vt 0.387774 0.504108
vt 0.629909 0.504680
vt 0.870091 0.504680
vt 0.370594 0.625000
vt 0.129406 0.503842
vt 0.370594 0.503842
vt 0.386610 0.000000
vt 0.615128 0.009758
vt 0.384786 0.009387
vt 0.611766 0.245068
vt 0.383423 0.125000
vt 0.616599 0.125000
vt 0.130157 0.500000
vt 0.129406 0.740986
vt 0.129969 0.750000
vt 0.125539 0.742987
vt 0.615729 0.000027
vt 0.625000 0.009611
vt 0.390617 0.250000
vt 0.388591 0.254567
vt 0.376955 0.254330
vt 0.625000 0.254909
vt 0.611409 0.254807
vt 0.617915 0.250000
vt 0.384786 0.740613
vt 0.386473 0.749974
vt 0.375987 0.740948
vt 0.614631 0.754799
vt 0.616643 0.750000
vt 0.369843 0.500553
vt 0.374298 0.504438
vt 0.625000 0.504680
vt 0.613531 0.500000
vt 0.625000 0.245320
vt 0.625000 0.125000
vt 0.385369 0.754541
vt 0.615128 0.740242
vt 0.616599 0.625000
vt 0.611409 0.495193
vt 0.387774 0.245892
vt 0.385369 0.995459
vt 0.388591 0.495433
vt 0.125000 0.624244
vt 0.125000 0.504438
vt 0.370594 0.740986
vt 0.629909 0.740389
vt 0.125000 0.627527
vt 0.129406 0.625000
vt 0.615873 0.000000
vt 0.369843 0.500000
vt 0.625000 0.495091
vt 0.370031 0.750000
vt 0.125000 0.742987
s 1
f 6/1/1 32/2/2 28/3/2
f 5/4/3 16/5/3 6/6/3
f 23/7/4 29/8/5 21/9/6
f 28/3/2 22/10/7 10/11/7
f 30/12/8 9/13/9 19/14/9
f 2/15/10 4/16/11 3/17/12
f 12/18/13 25/19/14 27/20/15
f 8/21/16 19/14/16 9/13/16
f 1/22/17 2/23/17 3/24/17
f 4/16/11 5/25/18 6/26/19
f 7/27/20 8/28/20 9/29/20
f 10/30/21 11/31/22 12/32/23
f 13/33/24 14/34/24 15/35/24
f 16/5/25 17/36/26 18/37/27
f 19/14/28 20/38/28 21/39/28
f 22/40/29 23/7/30 24/41/31
f 10/42/21 27/20/32 28/43/33
f 14/44/34 18/45/27 17/36/26
f 22/10/29 31/46/35 23/7/30
f 21/9/36 24/47/31 23/7/30
f 11/31/22 7/48/37 12/18/23
f 17/36/38 2/49/38 14/44/38
f 6/26/39 27/20/32 4/16/40
f 11/31/41 20/50/42 8/28/42
f 9/13/43 25/51/44 7/52/45
f 15/53/46 29/8/47 13/33/48
f 10/30/7 24/47/41 11/31/41
f 15/53/49 2/23/49 1/22/49
f 19/14/50 29/8/47 30/12/51
f 16/54/52 31/46/35 32/2/53
f 1/22/54 25/55/44 26/56/55
f 31/46/56 13/33/57 29/8/5
f 3/17/58 27/20/15 25/19/14
f 15/53/59 26/56/8 30/12/8
f 6/1/1 16/54/1 32/2/2
f 5/4/3 17/36/3 16/5/3
f 23/7/4 31/46/56 29/8/5
f 28/3/2 32/2/2 22/10/7
f 30/12/8 26/56/8 9/13/9
f 2/15/10 5/57/18 4/16/11
f 12/18/13 7/48/60 25/19/14
f 8/21/16 20/58/16 19/14/16
f 10/42/21 12/18/23 27/20/32
f 14/44/34 13/33/61 18/45/27
f 22/10/29 32/2/53 31/46/35
f 21/9/36 20/50/62 24/47/31
f 11/31/22 8/28/63 7/48/37
f 17/36/38 5/4/38 2/49/38
f 6/26/39 28/43/33 27/20/32
f 11/31/41 24/47/41 20/50/42
f 9/13/43 26/56/55 25/51/44
f 15/53/46 30/12/51 29/8/47
f 10/30/7 22/59/7 24/47/41
f 15/53/49 14/60/49 2/23/49
f 19/14/50 21/9/64 29/8/47
f 16/54/52 18/45/65 31/46/35
f 1/22/54 3/61/66 25/55/44
f 31/46/56 18/45/67 13/33/57
f 3/17/58 4/16/68 27/20/15
f 15/53/59 1/22/59 26/56/8
