# Blender 4.0.2
# www.blender.org
mtllib NapkinHolder.mtl
o NapkinHolder
v -0.107062 0.059879 0.041869
v -0.107062 0.073149 0.041869
v -0.107062 0.059879 -0.041869
v -0.107062 0.073149 -0.041869
v 0.107062 0.059879 0.041869
v 0.107062 0.073149 0.041869
v 0.107062 0.059879 -0.041869
v 0.107062 0.073149 -0.041869
vn -1.0000 -0.0000 -0.0000
vn -0.0000 -0.0000 -1.0000
vn 1.0000 -0.0000 -0.0000
vn -0.0000 -0.0000 1.0000
vn -0.0000 -1.0000 -0.0000
vn -0.0000 1.0000 -0.0000
vt 0.625000 0.000000
vt 0.375000 0.250000
vt 0.375000 0.000000
vt 0.625000 0.250000
vt 0.375000 0.500000
vt 0.625000 0.500000
vt 0.375000 0.750000
vt 0.625000 0.750000
vt 0.375000 1.000000
vt 0.125000 0.750000
vt 0.125000 0.500000
vt 0.875000 0.500000
vt 0.625000 1.000000
vt 0.875000 0.750000
s 0
f 2/1/1 3/2/1 1/3/1
f 4/4/2 7/5/2 3/2/2
f 8/6/3 5/7/3 7/5/3
f 6/8/4 1/9/4 5/7/4
f 7/5/5 1/10/5 3/11/5
f 4/12/6 6/8/6 8/6/6
f 2/1/1 4/4/1 3/2/1
f 4/4/2 8/6/2 7/5/2
f 8/6/3 6/8/3 5/7/3
f 6/8/4 2/13/4 1/9/4
f 7/5/5 5/7/5 1/10/5
f 4/12/6 2/14/6 6/8/6
o NapkinHolder.002
v 0.105530 0.002333 0.071577
v 0.116140 0.002354 0.065451
v 0.116140 0.002397 0.053199
v 0.105530 0.002418 0.047074
v 0.094920 0.002397 0.053199
v 0.094920 0.002354 0.065451
v 0.105530 0.063743 0.052337
v 0.116140 0.062630 0.046313
v 0.116140 0.060405 0.034265
v 0.105530 0.059293 0.028241
v 0.094920 0.060405 0.034265
v 0.094920 0.062630 0.046313
v 0.105530 0.078706 0.051587
v 0.116140 0.078901 0.045465
v 0.116140 0.079290 0.033219
v 0.105530 0.079485 0.027096
v 0.094920 0.079290 0.033219
v 0.094920 0.078901 0.045465
v 0.105733 0.192704 0.065073
v 0.115433 0.197459 0.059293
v 0.115230 0.198864 0.047123
v 0.105327 0.195514 0.040734
v 0.095628 0.190759 0.046514
v 0.095831 0.189354 0.058683
v 0.093911 0.204429 0.066583
v 0.097917 0.214834 0.061505
v 0.097811 0.216144 0.049324
v 0.093698 0.207048 0.042221
v 0.089692 0.196643 0.047298
v 0.089799 0.195333 0.059479
v -0.093911 0.204429 0.066583
v -0.097917 0.214834 0.061505
v -0.097811 0.216144 0.049324
v -0.093698 0.207048 0.042221
v -0.089692 0.196643 0.047298
v -0.089799 0.195333 0.059479
v -0.105733 0.192704 0.065073
v -0.115433 0.197459 0.059293
v -0.115230 0.198864 0.047123
v -0.105327 0.195514 0.040734
v -0.095628 0.190759 0.046514
v -0.095831 0.189354 0.058683
v -0.105530 0.078706 0.051587
v -0.116140 0.078901 0.045465
v -0.116140 0.079290 0.033219
v -0.105530 0.079485 0.027096
v -0.094920 0.079290 0.033219
v -0.094920 0.078901 0.045465
v -0.105530 0.063743 0.052337
v -0.116140 0.062630 0.046313
v -0.116140 0.060405 0.034265
v -0.105530 0.059293 0.028241
v -0.094920 0.060405 0.034265
v -0.094920 0.062630 0.046313
v -0.105530 0.002333 0.071577
v -0.116140 0.002354 0.065451
v -0.116140 0.002397 0.053199
v -0.105530 0.002418 0.047074
v -0.094920 0.002397 0.053199
v -0.094920 0.002354 0.065451
v 0.105530 0.002333 -0.071577
v 0.116140 0.002354 -0.065451
v 0.116140 0.002397 -0.053199
v 0.105530 0.002418 -0.047074
v 0.094920 0.002397 -0.053199
v 0.094920 0.002354 -0.065451
v 0.105530 0.063743 -0.052337
v 0.116140 0.062630 -0.046313
v 0.116140 0.060405 -0.034265
v 0.105530 0.059293 -0.028241
v 0.094920 0.060405 -0.034265
v 0.094920 0.062630 -0.046313
v 0.105530 0.078706 -0.051587
v 0.116140 0.078901 -0.045465
v 0.116140 0.079290 -0.033219
v 0.105530 0.079485 -0.027096
v 0.094920 0.079290 -0.033219
v 0.094920 0.078901 -0.045465
v 0.105733 0.192704 -0.065073
v 0.115433 0.197459 -0.059293
v 0.115230 0.198864 -0.047123
v 0.105327 0.195514 -0.040734
v 0.095628 0.190759 -0.046514
v 0.095831 0.189354 -0.058683
v 0.093911 0.204429 -0.066583
v 0.097917 0.214834 -0.061505
v 0.097811 0.216144 -0.049324
v 0.093698 0.207048 -0.042221
v 0.089692 0.196643 -0.047298
v 0.089799 0.195333 -0.059479
v -0.093911 0.204429 -0.066583
v -0.097917 0.214834 -0.061505
v -0.097811 0.216144 -0.049324
v -0.093698 0.207048 -0.042221
v -0.089692 0.196643 -0.047298
v -0.089799 0.195333 -0.059479
v -0.105733 0.192704 -0.065073
v -0.115433 0.197459 -0.059293
v -0.115230 0.198864 -0.047123
v -0.105327 0.195514 -0.040734
v -0.095628 0.190759 -0.046514
v -0.095831 0.189354 -0.058683
v -0.105530 0.078706 -0.051587
v -0.116140 0.078901 -0.045465
v -0.116140 0.079290 -0.033219
v -0.105530 0.079485 -0.027096
v -0.094920 0.079290 -0.033219
v -0.094920 0.078901 -0.045465
v -0.105530 0.063743 -0.052337
v -0.116140 0.062630 -0.046313
v -0.116140 0.060405 -0.034265
v -0.105530 0.059293 -0.028241
v -0.094920 0.060405 -0.034265
v -0.094920 0.062630 -0.046313
v -0.105530 0.002333 -0.071577
v -0.116140 0.002354 -0.065451
v -0.116140 0.002397 -0.053199
v -0.105530 0.002418 -0.047074
v -0.094920 0.002397 -0.053199
v -0.094920 0.002354 -0.065451
vn -0.0000 0.1780 0.9840
vn -0.8113 0.1750 0.5578
vn -0.0000 0.2990 0.9543
vn 0.8113 0.1750 0.5578
vn 0.9007 -0.1348 -0.4130
vn 0.8836 0.0838 0.4608
vn -0.0000 -0.3108 -0.9505
vn 0.8479 -0.0990 -0.5208
vn -0.8479 -0.0990 -0.5208
vn -0.9007 -0.1348 -0.4130
vn -0.8836 0.0838 0.4608
vn -0.8778 -0.0132 0.4788
vn 0.8782 -0.0137 0.4780
vn 0.8547 0.0183 -0.5188
vn -0.0006 0.0321 -0.9995
vn -0.0000 -0.1869 -0.9824
vn -0.8543 0.0191 -0.5194
vn -0.0006 -0.0333 0.9994
vn -0.7546 -0.3791 0.5356
vn 0.1292 -0.0651 0.9895
vn 0.8150 0.3946 -0.4244
vn 0.0967 0.1615 -0.9821
vn -0.7739 -0.2495 -0.5821
vn -0.3108 -0.8195 0.4815
vn 0.3445 0.7695 0.5378
vn 0.8293 0.2908 0.4771
vn 0.3376 0.8681 -0.3639
vn 0.0389 0.2200 -0.9747
vn -0.3231 -0.7020 -0.6347
vn -0.0556 0.0066 0.9984
vn 0.0556 0.0066 0.9984
vn -0.3376 0.8681 -0.3639
vn -0.0389 0.2200 -0.9747
vn 0.3231 -0.7020 -0.6347
vn 0.3108 -0.8195 0.4815
vn -0.1292 -0.0651 0.9895
vn -0.3445 0.7695 0.5378
vn -0.8293 0.2908 0.4771
vn -0.8150 0.3946 -0.4244
vn 0.7739 -0.2495 -0.5821
vn 0.7546 -0.3791 0.5356
vn 0.0006 -0.0333 0.9994
vn -0.8782 -0.0137 0.4780
vn -0.0967 0.1615 -0.9821
vn -0.8547 0.0183 -0.5188
vn 0.0006 0.0321 -0.9995
vn 0.8778 -0.0132 0.4788
vn 0.8543 0.0191 -0.5194
vn -0.8113 0.1750 -0.5578
vn -0.0000 0.1780 -0.9840
vn -0.0000 0.2990 -0.9543
vn 0.8113 0.1750 -0.5578
vn 0.8836 0.0838 -0.4608
vn 0.9007 -0.1348 0.4130
vn 0.8479 -0.0990 0.5208
vn -0.0000 -0.3108 0.9505
vn -0.0000 -0.1869 0.9824
vn -0.8479 -0.0990 0.5208
vn -0.9007 -0.1348 0.4130
vn -0.8836 0.0838 -0.4608
vn -0.8778 -0.0132 -0.4788
vn -0.0006 -0.0333 -0.9994
vn 0.8782 -0.0137 -0.4780
vn 0.8547 0.0183 0.5188
vn -0.0006 0.0321 0.9995
vn -0.8543 0.0191 0.5194
vn -0.7546 -0.3791 -0.5356
vn 0.1292 -0.0651 -0.9895
vn 0.8293 0.2908 -0.4771
vn 0.8150 0.3946 0.4244
vn 0.0967 0.1615 0.9821
vn -0.7739 -0.2495 0.5821
vn -0.3108 -0.8195 -0.4815
vn 0.0556 0.0066 -0.9984
vn 0.3445 0.7695 -0.5378
vn 0.3376 0.8681 0.3639
vn 0.0389 0.2200 0.9747
vn -0.3231 -0.7020 0.6347
vn 0.3108 -0.8195 -0.4815
vn -0.0556 0.0066 -0.9984
vn -0.3445 0.7695 -0.5378
vn -0.3376 0.8681 0.3639
vn -0.0389 0.2200 0.9747
vn 0.3231 -0.7020 0.6347
vn -0.1292 -0.0651 -0.9895
vn -0.8293 0.2908 -0.4771
vn -0.8150 0.3946 0.4244
vn -0.0967 0.1615 0.9821
vn 0.7739 -0.2495 0.5821
vn 0.7546 -0.3791 -0.5356
vn 0.0006 -0.0333 -0.9994
vn -0.8782 -0.0137 -0.4780
vn -0.8547 0.0183 0.5188
vn 0.0006 0.0321 0.9995
vn 0.8543 0.0191 0.5194
vn 0.8778 -0.0132 -0.4788
vt 0.111111 1.000000
vt 0.000000 0.833333
vt 0.000000 1.000000
vt 0.000000 0.166667
vt 0.111111 0.000000
vt 0.000000 0.000000
vt 0.000000 0.333333
vt 0.111111 0.166667
vt 0.000000 0.500000
vt 0.111111 0.333333
vt 0.111111 0.666667
vt 0.000000 0.666667
vt 0.111111 0.833333
vt 0.222222 0.833333
vt 0.222222 0.166667
vt 0.222222 0.333333
vt 0.222222 0.500000
vt 0.111111 0.500000
vt 0.222222 0.666667
vt 0.222222 1.000000
vt 0.333333 0.833333
vt 0.333333 0.000000
vt 0.222222 0.000000
vt 0.333333 0.333333
vt 0.333333 0.500000
vt 0.333333 0.666667
vt 0.333333 1.000000
vt 0.444444 0.833333
vt 0.444444 0.166667
vt 0.333333 0.166667
vt 0.444444 0.333333
vt 0.444444 0.500000
vt 0.444444 0.666667
vt 0.555556 1.000000
vt 0.444444 1.000000
vt 0.555556 0.000000
vt 0.444444 0.000000
vt 0.555556 0.333333
vt 0.555556 0.500000
vt 0.555556 0.666667
vt 0.555556 0.833333
vt 0.666667 1.000000
vt 0.555556 0.166667
vt 0.666667 0.000000
vt 0.666667 0.166667
vt 0.666667 0.333333
vt 0.666667 0.666667
vt 0.666667 0.833333
vt 0.777778 1.000000
vt 0.777778 0.166667
vt 0.666667 0.500000
vt 0.777778 0.333333
vt 0.777778 0.500000
vt 0.777778 0.833333
vt 0.888889 1.000000
vt 0.888889 0.000000
vt 0.777778 0.000000
vt 0.888889 0.166667
vt 0.888889 0.333333
vt 0.888889 0.666667
vt 0.777778 0.666667
vt 0.888889 0.833333
vt 1.000000 0.833333
vt 1.000000 0.166667
vt 1.000000 0.333333
vt 1.000000 0.500000
vt 0.888889 0.500000
vt 1.000000 0.666667
vt 1.000000 1.000000
vt 1.000000 0.000000
s 1
f 15/15/7 14/16/8 9/17/9
f 10/18/10 15/19/7 9/20/9
f 11/21/11 16/22/12 10/18/10
f 12/23/13 17/24/14 11/21/11
f 19/25/15 12/23/13 13/26/16
f 20/27/17 13/26/16 14/16/8
f 15/15/7 26/28/18 20/27/17
f 22/29/19 15/19/7 16/22/12
f 23/30/20 16/22/12 17/24/14
f 24/31/21 17/24/14 18/32/22
f 19/25/15 24/31/21 18/32/22
f 20/27/17 25/33/23 19/25/15
f 21/34/24 32/35/25 26/28/18
f 22/29/19 27/36/26 21/37/24
f 29/38/27 22/29/19 23/30/20
f 30/39/28 23/30/20 24/31/21
f 31/40/29 24/31/21 25/33/23
f 26/28/18 31/40/29 25/33/23
f 27/41/26 38/42/30 32/35/25
f 34/43/31 27/36/26 28/44/32
f 35/45/33 28/44/32 29/38/27
f 36/46/34 29/38/27 30/39/28
f 31/40/29 36/46/34 30/39/28
f 32/35/25 37/47/35 31/40/29
f 39/48/36 38/42/30 33/49/37
f 34/43/31 39/50/36 33/51/37
f 41/52/38 34/43/31 35/45/33
f 42/53/39 35/45/33 36/46/34
f 43/54/40 36/46/34 37/47/35
f 44/55/41 37/47/35 38/42/30
f 45/56/42 44/55/41 39/48/36
f 40/57/43 45/58/42 39/50/36
f 41/52/38 46/59/44 40/57/43
f 42/53/39 47/60/45 41/52/38
f 49/61/46 42/53/39 43/54/40
f 50/62/47 43/54/40 44/55/41
f 51/63/48 50/62/47 45/56/42
f 52/64/49 45/58/42 46/59/44
f 47/60/45 52/64/49 46/59/44
f 48/65/50 53/66/51 47/60/45
f 49/61/46 54/67/52 48/65/50
f 56/68/53 49/61/46 50/62/47
f 57/69/7 56/68/53 51/63/48
f 52/64/49 57/70/7 51/71/48
f 53/66/51 58/72/17 52/64/49
f 54/67/52 59/73/15 53/66/51
f 61/74/14 54/67/52 55/75/54
f 62/76/12 55/75/54 56/68/53
f 57/69/7 68/77/10 62/76/12
f 64/78/8 57/70/7 58/72/17
f 65/79/16 58/72/17 59/73/15
f 66/80/13 59/73/15 60/81/22
f 61/74/14 66/80/13 60/81/22
f 62/76/12 67/82/11 61/74/14
f 74/16/55 75/15/56 69/17/57
f 70/18/58 75/19/56 76/22/59
f 71/21/60 76/22/59 77/24/61
f 72/23/62 77/24/61 78/32/63
f 72/23/62 79/25/64 73/26/65
f 73/26/65 80/27/66 74/16/55
f 75/15/56 86/28/67 81/34/68
f 75/19/56 82/29/69 76/22/59
f 76/22/59 83/30/70 77/24/61
f 77/24/61 84/31/71 78/32/63
f 79/25/64 84/31/71 85/33/72
f 80/27/66 85/33/72 86/28/67
f 81/34/68 92/35/73 87/41/74
f 82/29/69 87/36/74 88/44/75
f 82/29/69 89/38/76 83/30/70
f 83/30/70 90/39/77 84/31/71
f 84/31/71 91/40/78 85/33/72
f 86/28/67 91/40/78 92/35/73
f 87/41/74 98/42/79 93/49/80
f 87/36/74 94/43/81 88/44/75
f 88/44/75 95/45/82 89/38/76
f 89/38/76 96/46/83 90/39/77
f 91/40/78 96/46/83 97/47/84
f 92/35/73 97/47/84 98/42/79
f 93/49/80 104/55/85 99/48/86
f 93/51/80 100/57/87 94/43/81
f 94/43/81 101/52/88 95/45/82
f 95/45/82 102/53/89 96/46/83
f 96/46/83 103/54/90 97/47/84
f 98/42/79 103/54/90 104/55/85
f 104/55/85 105/56/91 99/48/86
f 100/57/87 105/58/91 106/59/92
f 101/52/88 106/59/92 107/60/93
f 102/53/89 107/60/93 108/65/94
f 102/53/89 109/61/95 103/54/90
f 103/54/90 110/62/96 104/55/85
f 110/62/96 111/63/97 105/56/91
f 105/58/91 112/64/98 106/59/92
f 107/60/93 112/64/98 113/66/99
f 108/65/94 113/66/99 114/67/100
f 109/61/95 114/67/100 115/75/101
f 109/61/95 116/68/102 110/62/96
f 116/68/102 117/69/56 111/63/97
f 112/64/98 117/70/56 118/72/66
f 113/66/99 118/72/66 119/73/64
f 114/67/100 119/73/64 120/81/63
f 114/67/100 121/74/61 115/75/101
f 115/75/101 122/76/59 116/68/102
f 117/69/56 128/77/58 123/83/57
f 117/70/56 124/78/55 118/72/66
f 118/72/66 125/79/65 119/73/64
f 119/73/64 126/80/62 120/81/63
f 121/74/61 126/80/62 127/82/60
f 122/76/59 127/82/60 128/77/58
f 15/15/7 20/27/17 14/16/8
f 10/18/10 16/22/12 15/19/7
f 11/21/11 17/24/14 16/22/12
f 12/23/13 18/32/22 17/24/14
f 19/25/15 18/32/22 12/23/13
f 20/27/17 19/25/15 13/26/16
f 15/15/7 21/34/24 26/28/18
f 22/29/19 21/37/24 15/19/7
f 23/30/20 22/29/19 16/22/12
f 24/31/21 23/30/20 17/24/14
f 19/25/15 25/33/23 24/31/21
f 20/27/17 26/28/18 25/33/23
f 21/34/24 27/41/26 32/35/25
f 22/29/19 28/44/32 27/36/26
f 29/38/27 28/44/32 22/29/19
f 30/39/28 29/38/27 23/30/20
f 31/40/29 30/39/28 24/31/21
f 26/28/18 32/35/25 31/40/29
f 27/41/26 33/49/37 38/42/30
f 34/43/31 33/51/37 27/36/26
f 35/45/33 34/43/31 28/44/32
f 36/46/34 35/45/33 29/38/27
f 31/40/29 37/47/35 36/46/34
f 32/35/25 38/42/30 37/47/35
f 39/48/36 44/55/41 38/42/30
f 34/43/31 40/57/43 39/50/36
f 41/52/38 40/57/43 34/43/31
f 42/53/39 41/52/38 35/45/33
f 43/54/40 42/53/39 36/46/34
f 44/55/41 43/54/40 37/47/35
f 45/56/42 50/62/47 44/55/41
f 40/57/43 46/59/44 45/58/42
f 41/52/38 47/60/45 46/59/44
f 42/53/39 48/65/50 47/60/45
f 49/61/46 48/65/50 42/53/39
f 50/62/47 49/61/46 43/54/40
f 51/63/48 56/68/53 50/62/47
f 52/64/49 51/71/48 45/58/42
f 47/60/45 53/66/51 52/64/49
f 48/65/50 54/67/52 53/66/51
f 49/61/46 55/75/54 54/67/52
f 56/68/53 55/75/54 49/61/46
f 57/69/7 62/76/12 56/68/53
f 52/64/49 58/72/17 57/70/7
f 53/66/51 59/73/15 58/72/17
f 54/67/52 60/81/22 59/73/15
f 61/74/14 60/81/22 54/67/52
f 62/76/12 61/74/14 55/75/54
f 57/69/7 63/83/9 68/77/10
f 64/78/8 63/84/9 57/70/7
f 65/79/16 64/78/8 58/72/17
f 66/80/13 65/79/16 59/73/15
f 61/74/14 67/82/11 66/80/13
f 62/76/12 68/77/10 67/82/11
f 74/16/55 80/27/66 75/15/56
f 70/18/58 69/20/57 75/19/56
f 71/21/60 70/18/58 76/22/59
f 72/23/62 71/21/60 77/24/61
f 72/23/62 78/32/63 79/25/64
f 73/26/65 79/25/64 80/27/66
f 75/15/56 80/27/66 86/28/67
f 75/19/56 81/37/68 82/29/69
f 76/22/59 82/29/69 83/30/70
f 77/24/61 83/30/70 84/31/71
f 79/25/64 78/32/63 84/31/71
f 80/27/66 79/25/64 85/33/72
f 81/34/68 86/28/67 92/35/73
f 82/29/69 81/37/68 87/36/74
f 82/29/69 88/44/75 89/38/76
f 83/30/70 89/38/76 90/39/77
f 84/31/71 90/39/77 91/40/78
f 86/28/67 85/33/72 91/40/78
f 87/41/74 92/35/73 98/42/79
f 87/36/74 93/51/80 94/43/81
f 88/44/75 94/43/81 95/45/82
f 89/38/76 95/45/82 96/46/83
f 91/40/78 90/39/77 96/46/83
f 92/35/73 91/40/78 97/47/84
f 93/49/80 98/42/79 104/55/85
f 93/51/80 99/50/86 100/57/87
f 94/43/81 100/57/87 101/52/88
f 95/45/82 101/52/88 102/53/89
f 96/46/83 102/53/89 103/54/90
f 98/42/79 97/47/84 103/54/90
f 104/55/85 110/62/96 105/56/91
f 100/57/87 99/50/86 105/58/91
f 101/52/88 100/57/87 106/59/92
f 102/53/89 101/52/88 107/60/93
f 102/53/89 108/65/94 109/61/95
f 103/54/90 109/61/95 110/62/96
f 110/62/96 116/68/102 111/63/97
f 105/58/91 111/71/97 112/64/98
f 107/60/93 106/59/92 112/64/98
f 108/65/94 107/60/93 113/66/99
f 109/61/95 108/65/94 114/67/100
f 109/61/95 115/75/101 116/68/102
f 116/68/102 122/76/59 117/69/56
f 112/64/98 111/71/97 117/70/56
f 113/66/99 112/64/98 118/72/66
f 114/67/100 113/66/99 119/73/64
f 114/67/100 120/81/63 121/74/61
f 115/75/101 121/74/61 122/76/59
f 117/69/56 122/76/59 128/77/58
f 117/70/56 123/84/57 124/78/55
f 118/72/66 124/78/55 125/79/65
f 119/73/64 125/79/65 126/80/62
f 121/74/61 120/81/63 126/80/62
f 122/76/59 121/74/61 127/82/60
o NapkinHolder.001
v -0.105835 0.078896 0.039851
v -0.105835 0.072770 0.050461
v -0.105835 0.060518 0.050461
v -0.105835 0.054393 0.039851
v -0.105835 0.060518 0.029241
v -0.105835 0.072770 0.029241
v 0.105897 0.078896 0.039851
v 0.105897 0.072770 0.050461
v 0.105897 0.060518 0.050461
v 0.105897 0.054393 0.039851
v 0.105897 0.060518 0.029241
v 0.105897 0.072770 0.029241
v -0.105835 0.078896 -0.039851
v -0.105835 0.072770 -0.050461
v -0.105835 0.060518 -0.050461
v -0.105835 0.054393 -0.039851
v -0.105835 0.060518 -0.029241
v -0.105835 0.072770 -0.029241
v 0.105897 0.078896 -0.039851
v 0.105897 0.072770 -0.050461
v 0.105897 0.060518 -0.050461
v 0.105897 0.054393 -0.039851
v 0.105897 0.060518 -0.029241
v 0.105897 0.072770 -0.029241
vn -0.0000 1.0000 -0.0000
vn -0.0000 0.5000 -0.8660
vn -0.0000 0.5000 0.8660
vn -0.0000 -0.5000 0.8660
vn -0.0000 -1.0000 -0.0000
vn -0.0000 -0.5000 -0.8660
vt 1.000000 1.000000
vt 0.000000 0.833333
vt 0.000000 1.000000
vt 1.000000 0.166667
vt 0.000000 0.000000
vt 0.000000 0.166667
vt 1.000000 0.333333
vt 0.000000 0.333333
vt 1.000000 0.500000
vt 0.000000 0.500000
vt 1.000000 0.666667
vt 0.000000 0.666667
vt 1.000000 0.833333
vt 1.000000 0.000000
s 1
f 135/85/103 134/86/104 129/87/103
f 136/88/105 129/89/103 130/90/105
f 137/91/106 130/90/105 131/92/106
f 138/93/107 131/92/106 132/94/107
f 139/95/108 132/94/107 133/96/108
f 140/97/104 133/96/108 134/86/104
f 146/86/105 147/85/103 141/87/103
f 141/89/103 148/88/104 142/90/104
f 142/90/104 149/91/108 143/92/108
f 143/92/108 150/93/107 144/94/107
f 144/94/107 151/95/106 145/96/106
f 145/96/106 152/97/105 146/86/105
f 135/85/103 140/97/104 134/86/104
f 136/88/105 135/98/103 129/89/103
f 137/91/106 136/88/105 130/90/105
f 138/93/107 137/91/106 131/92/106
f 139/95/108 138/93/107 132/94/107
f 140/97/104 139/95/108 133/96/108
f 146/86/105 152/97/105 147/85/103
f 141/89/103 147/98/103 148/88/104
f 142/90/104 148/88/104 149/91/108
f 143/92/108 149/91/108 150/93/107
f 144/94/107 150/93/107 151/95/106
f 145/96/106 151/95/106 152/97/105
