# Blender 4.0.2
# www.blender.org
mtllib RevolverBullet.mtl
o RevolverBullet
v 0.000000 -0.050129 -0.018321
v 0.000000 0.058863 -0.011544
v 0.012955 -0.050129 -0.012955
v 0.007900 0.058863 -0.008163
v 0.018321 -0.050129 0.000000
v 0.011172 0.058863 0.000000
v 0.012955 -0.050129 0.012955
v 0.007900 0.058863 0.008163
v 0.000000 -0.050129 0.018321
v 0.000000 0.058863 0.011544
v -0.012955 -0.050129 0.012955
v -0.007900 0.058863 0.008163
v -0.018321 -0.050129 0.000000
v -0.011172 0.058863 0.000000
v -0.012955 -0.050129 -0.012955
v -0.007900 0.058863 -0.008163
v 0.000000 0.034088 -0.018321
v 0.012955 0.034088 -0.012955
v 0.018321 0.034088 0.000000
v 0.012955 0.034088 0.012955
v 0.000000 0.034088 0.018321
v -0.012955 0.034088 0.012955
v -0.018321 0.034088 0.000000
v -0.012955 0.034088 -0.012955
v 0.012955 -0.032333 -0.012955
v 0.018321 -0.032333 0.000000
v 0.012955 -0.032333 0.012955
v 0.000000 -0.032333 0.018321
v -0.012955 -0.032333 0.012955
v -0.018321 -0.032333 0.000000
v -0.012955 -0.032333 -0.012955
v 0.000000 -0.032333 -0.018321
v -0.000000 0.046475 -0.016323
v 0.012720 0.046475 -0.011542
v 0.017989 0.046475 0.000000
v 0.012720 0.046475 0.011542
v -0.000000 0.046475 0.016323
v -0.012720 0.046475 0.011542
v -0.017989 0.046475 0.000000
v -0.012720 0.046475 -0.011542
v 0.000000 -0.050129 -0.023194
v 0.016400 -0.050129 -0.016400
v 0.016400 -0.032333 -0.016400
v 0.023194 -0.050129 0.000000
v 0.023194 -0.032333 0.000000
v 0.016400 -0.050129 0.016400
v 0.016400 -0.032333 0.016400
v 0.000000 -0.050129 0.023194
v 0.000000 -0.032333 0.023194
v -0.016400 -0.050129 0.016400
v -0.016400 -0.032333 0.016400
v -0.023194 -0.050129 0.000000
v -0.023194 -0.032333 0.000000
v -0.016400 -0.050129 -0.016400
v -0.016400 -0.032333 -0.016400
v 0.000000 -0.032333 -0.023194
vn 0.3275 0.3652 -0.8714
vn 0.8135 0.4477 -0.3713
vn 0.8135 0.4477 0.3713
vn 0.3275 0.3652 0.8714
vn -0.3275 0.3652 0.8714
vn -0.8135 0.4477 0.3713
vn -0.0000 1.0000 -0.0000
vn -0.8135 0.4477 -0.3713
vn -0.3275 0.3652 -0.8714
vn -0.0000 -1.0000 -0.0000
vn -0.3827 -0.0000 -0.9239
vn -0.9239 -0.0000 -0.3827
vn -0.9239 -0.0000 0.3827
vn -0.3827 -0.0000 0.9239
vn 0.3827 -0.0000 0.9239
vn 0.9239 -0.0000 0.3827
vn 0.9239 -0.0000 -0.3827
vn 0.3827 -0.0000 -0.9239
vn -0.3785 0.1474 -0.9138
vn -0.9222 0.0610 -0.3820
vn -0.9222 0.0610 0.3820
vn -0.3785 0.1474 0.9138
vn 0.3785 0.1474 0.9138
vn 0.9222 0.0610 0.3820
vn 0.9222 0.0610 -0.3820
vn 0.3785 0.1474 -0.9138
vn 0.3708 0.3343 -0.8664
vn 0.8424 0.4199 -0.3377
vn 0.8424 0.4199 0.3377
vn 0.3708 0.3343 0.8664
vn -0.3708 0.3343 0.8664
vn -0.8424 0.4199 0.3377
vn -0.8424 0.4199 -0.3377
vn -0.3708 0.3343 -0.8664
vn -0.3496 0.1127 -0.9301
vn -0.9094 0.0243 -0.4151
vn -0.9094 0.0243 0.4151
vn -0.3496 0.1127 0.9301
vn 0.3496 0.1127 0.9301
vn 0.9094 0.0243 0.4151
vn 0.9094 0.0243 -0.4151
vn 0.3496 0.1127 -0.9301
vt 1.000000 0.875000
vt 0.875000 1.000000
vt 0.875000 0.875000
vt 0.750000 1.000000
vt 0.750000 0.875000
vt 0.625000 0.875000
vt 0.625000 1.000000
vt 0.500000 0.875000
vt 0.375000 1.000000
vt 0.375000 0.875000
vt 0.250000 1.000000
vt 0.250000 0.875000
vt 0.010000 0.250000
vt 0.250000 0.010000
vt 0.490000 0.250000
vt 0.125000 0.875000
vt 0.125000 1.000000
vt 0.000000 0.875000
vt 0.919706 0.080294
vt 0.580294 0.080294
vt 0.580294 0.419706
vt 0.125000 0.750000
vt 0.000000 0.625000
vt 0.125000 0.625000
vt 0.250000 0.750000
vt 0.250000 0.625000
vt 0.375000 0.750000
vt 0.375000 0.625000
vt 0.500000 0.750000
vt 0.500000 0.625000
vt 0.625000 0.750000
vt 0.625000 0.625000
vt 0.750000 0.750000
vt 0.750000 0.625000
vt 0.875000 0.750000
vt 0.875000 0.625000
vt 1.000000 0.750000
vt 1.000000 0.625000
vt 0.750000 0.010000
vt 0.510000 0.250000
vt 0.919706 0.419706
vt 0.990000 0.250000
vt 0.000000 0.750000
vt 0.875000 0.500000
vt 1.000000 0.500000
vt 0.750000 0.500000
vt 0.625000 0.500000
vt 0.500000 0.500000
vt 0.375000 0.500000
vt 0.250000 0.500000
vt 0.125000 0.500000
vt 0.000000 0.500000
vt 0.750000 0.490000
vt 1.000000 1.000000
vt 0.500000 1.000000
vt 0.419706 0.419706
vt 0.250000 0.490000
vt 0.080294 0.419706
vt 0.080294 0.080294
vt 0.419706 0.080294
vt 0.000000 1.000000
s 0
f 33/1/1 4/2/1 34/3/1
f 34/3/2 6/4/2 35/5/2
f 6/4/3 36/6/3 35/5/3
f 8/7/4 37/8/4 36/6/4
f 37/8/5 12/9/5 38/10/5
f 38/10/6 14/11/6 39/12/6
f 14/13/7 10/14/7 6/15/7
f 14/11/8 40/16/8 39/12/8
f 16/17/9 33/18/9 40/16/9
f 7/19/10 11/20/10 15/21/10
f 24/22/11 32/23/11 31/24/11
f 23/25/12 31/24/12 30/26/12
f 22/27/13 30/26/13 29/28/13
f 21/29/14 29/28/14 28/30/14
f 20/31/15 28/30/15 27/32/15
f 19/33/16 27/32/16 26/34/16
f 18/35/17 26/34/17 25/36/17
f 17/37/18 25/36/18 32/38/18
f 28/30/7 47/32/7 27/32/7
f 9/39/10 50/20/10 11/20/10
f 27/32/7 45/34/7 26/34/7
f 26/34/7 43/36/7 25/36/7
f 13/40/10 54/21/10 15/21/10
f 3/41/10 44/42/10 5/42/10
f 25/36/7 56/38/7 32/38/7
f 32/23/7 55/24/7 31/24/7
f 24/22/19 33/18/19 17/43/19
f 23/25/20 40/16/20 24/22/20
f 38/10/21 23/25/21 22/27/21
f 37/8/22 22/27/22 21/29/22
f 20/31/23 37/8/23 21/29/23
f 19/33/24 36/6/24 20/31/24
f 34/3/25 19/33/25 18/35/25
f 33/1/26 18/35/26 17/37/26
f 56/38/18 42/44/18 41/45/18
f 43/36/17 44/46/17 42/44/17
f 45/34/16 46/47/16 44/46/16
f 47/32/15 48/48/15 46/47/15
f 49/30/14 50/49/14 48/48/14
f 51/28/13 52/50/13 50/49/13
f 53/26/12 54/51/12 52/50/12
f 55/24/11 41/52/11 54/51/11
f 5/42/10 46/19/10 7/19/10
f 15/21/10 41/53/10 1/53/10
f 1/53/10 42/41/10 3/41/10
f 29/28/7 49/30/7 28/30/7
f 30/26/7 51/28/7 29/28/7
f 11/20/10 52/40/10 13/40/10
f 31/24/7 53/26/7 30/26/7
f 7/19/10 48/39/10 9/39/10
f 33/1/27 2/54/27 4/2/27
f 34/3/28 4/2/28 6/4/28
f 6/4/29 8/7/29 36/6/29
f 8/7/30 10/55/30 37/8/30
f 37/8/31 10/55/31 12/9/31
f 38/10/32 12/9/32 14/11/32
f 6/15/7 4/56/7 2/57/7
f 2/57/7 16/58/7 14/13/7
f 14/13/7 12/59/7 10/14/7
f 10/14/7 8/60/7 6/15/7
f 6/15/7 2/57/7 14/13/7
f 14/11/33 16/17/33 40/16/33
f 16/17/34 2/61/34 33/18/34
f 15/21/10 1/53/10 3/41/10
f 3/41/10 5/42/10 7/19/10
f 7/19/10 9/39/10 11/20/10
f 11/20/10 13/40/10 15/21/10
f 15/21/10 3/41/10 7/19/10
f 24/22/11 17/43/11 32/23/11
f 23/25/12 24/22/12 31/24/12
f 22/27/13 23/25/13 30/26/13
f 21/29/14 22/27/14 29/28/14
f 20/31/15 21/29/15 28/30/15
f 19/33/16 20/31/16 27/32/16
f 18/35/17 19/33/17 26/34/17
f 17/37/18 18/35/18 25/36/18
f 28/30/7 49/30/7 47/32/7
f 9/39/10 48/39/10 50/20/10
f 27/32/7 47/32/7 45/34/7
f 26/34/7 45/34/7 43/36/7
f 13/40/10 52/40/10 54/21/10
f 3/41/10 42/41/10 44/42/10
f 25/36/7 43/36/7 56/38/7
f 32/23/7 56/23/7 55/24/7
f 24/22/35 40/16/35 33/18/35
f 23/25/36 39/12/36 40/16/36
f 38/10/37 39/12/37 23/25/37
f 37/8/38 38/10/38 22/27/38
f 20/31/39 36/6/39 37/8/39
f 19/33/40 35/5/40 36/6/40
f 34/3/41 35/5/41 19/33/41
f 33/1/42 34/3/42 18/35/42
f 56/38/18 43/36/18 42/44/18
f 43/36/17 45/34/17 44/46/17
f 45/34/16 47/32/16 46/47/16
f 47/32/15 49/30/15 48/48/15
f 49/30/14 51/28/14 50/49/14
f 51/28/13 53/26/13 52/50/13
f 53/26/12 55/24/12 54/51/12
f 55/24/11 56/23/11 41/52/11
f 5/42/10 44/42/10 46/19/10
f 15/21/10 54/21/10 41/53/10
f 1/53/10 41/53/10 42/41/10
f 29/28/7 51/28/7 49/30/7
f 30/26/7 53/26/7 51/28/7
f 11/20/10 50/20/10 52/40/10
f 31/24/7 55/24/7 53/26/7
f 7/19/10 46/19/10 48/39/10
