# Blender 4.5.14 LTS
# www.blender.org
mtllib ceiling_yellow_missing.mtl
o ceiling_yellow_missing
v -1.000000 3.000000 0.000000 1.0000 1.0000 1.0000
v 0.000000 3.000000 1.000000 1.0000 1.0000 1.0000
v -1.000000 3.000000 1.000000 1.0000 1.0000 1.0000
v 1.000000 3.000000 1.000000 1.0000 1.0000 1.0000
v -1.000000 3.000000 -1.000000 1.0000 1.0000 1.0000
v 0.000000 3.000000 -1.000000 1.0000 1.0000 1.0000
v 0.000000 3.000000 0.000000 1.0000 1.0000 1.0000
v 1.000000 3.000000 -1.000000 1.0000 1.0000 1.0000
v 1.000000 3.000000 0.000000 1.0000 1.0000 1.0000
v 0.500000 3.000000 0.000000 1.0000 1.0000 1.0000
v 0.500000 3.000000 -1.000000 1.0000 1.0000 1.0000
v 0.500000 3.000000 -0.500000 1.0000 1.0000 1.0000
v 0.000000 3.000000 -0.500000 1.0000 1.0000 1.0000
vn -0.0000 -1.0000 -0.0000
vt 0.000488 0.999512
vt 0.124512 0.999512
vt 0.124512 0.875488
vt 0.000488 0.875488
vt 0.062500 0.999512
vt 0.062500 0.875488
vt 0.062500 0.937500
vt 0.000488 0.937500
s 0
usemtl props
f 1/1/1 7/2/1 2/3/1 3/4/1
f 7/1/1 9/2/1 4/3/1 2/4/1
f 5/1/1 6/2/1 7/3/1 1/4/1
f 11/5/1 8/2/1 9/3/1 10/6/1
f 6/1/1 11/5/1 12/7/1 13/8/1
o ceiling_yellow_missing_1
v 0.000000 3.500000 -0.500000 0.7764 0.7764 0.7764
v 0.500000 3.500000 -0.500000 0.7764 0.7764 0.7764
v 0.500000 3.500000 0.000000 0.7764 0.7764 0.7764
v 0.500000 3.000000 0.000000 0.8706 0.8706 0.8706
v 0.000000 3.000000 0.000000 0.8745 0.8745 0.8745
v 0.500000 3.000000 -0.500000 0.8823 0.8823 0.8823
v 0.000000 3.000000 -0.500000 0.8745 0.8745 0.8745
v 0.000000 3.500000 0.000000 0.7764 0.7764 0.7764
v 0.290008 3.500390 -0.300062 0.8039 0.8039 0.8039
v 0.270020 2.999377 -0.219934 0.8666 0.8666 0.8666
v 0.280000 3.001047 -0.210055 0.8392 0.8392 0.8392
v 0.300000 3.498420 -0.309874 0.7098 0.7098 0.7098
v 0.280000 2.998953 -0.229945 0.8666 0.8666 0.8666
v 0.309992 3.499610 -0.299938 0.8039 0.8039 0.8039
v 0.360000 2.549556 -0.209990 0.9960 0.9960 0.9960
v 0.350154 2.548253 -0.199922 1.0000 1.0000 1.0000
v 0.289980 3.000623 -0.220066 0.8431 0.8431 0.8431
v 0.360000 2.550444 -0.190010 0.9960 0.9960 0.9960
v 0.369846 2.551747 -0.200078 0.9921 0.9921 0.9921
v 0.300000 3.501580 -0.290126 0.8039 0.8039 0.8039
vn -0.0000 -1.0000 -0.0000
vn -0.0000 -0.0000 -1.0000
vn -1.0000 -0.0000 -0.0000
vn -0.0000 -0.0000 1.0000
vn 1.0000 -0.0000 -0.0000
vn -0.7074 0.1391 0.6929
vn -0.7058 0.0240 0.7080
vn -0.7057 0.0238 0.7081
vn -0.7070 -0.0841 -0.7022
vn -0.7037 -0.1199 -0.7003
vn -0.7037 -0.1196 -0.7003
vn 0.7074 -0.1393 -0.6929
vn 0.7057 -0.0237 -0.7081
vn 0.7058 -0.0240 -0.7081
vn 0.7070 0.0841 0.7022
vn 0.7037 0.1196 0.7003
vn 0.7037 0.1199 0.7003
vn -0.6945 -0.0916 0.7136
vn -0.6995 -0.1553 -0.6975
vn 0.6945 0.0919 -0.7136
vn 0.6995 0.1554 0.6975
vn 0.0395 0.9867 -0.1579
vn 0.1749 -0.9836 0.0437
vt 0.156738 0.844238
vt 0.187012 0.844238
vt 0.187012 0.874512
vt 0.156738 0.874512
vt 0.062988 0.844238
vt 0.070557 0.844238
vt 0.070557 0.859375
vt 0.062988 0.859375
vt 0.078125 0.844238
vt 0.078125 0.859375
vt 0.085693 0.844238
vt 0.085693 0.859375
vt 0.093262 0.844238
vt 0.093262 0.859375
vt 0.070557 0.874512
vt 0.062988 0.874512
vt 0.078125 0.874512
vt 0.085693 0.874512
vt 0.093262 0.874512
vt 0.093262 0.859279
vt 0.062988 0.859471
vt 0.062988 0.859493
vt 0.093262 0.859257
s 0
usemtl props
f 14/9/2 15/10/2 16/11/2 21/12/2
f 17/9/3 18/10/3 21/11/3 16/12/3
f 19/9/4 17/10/4 16/11/4 15/12/4
f 20/9/5 19/10/5 15/11/5 14/12/5
f 18/9/6 20/10/6 14/11/6 21/12/6
s 1
f 33/13/7 22/14/7 23/15/8 24/16/9
f 22/14/10 25/17/10 26/18/11 23/15/12
f 25/17/13 27/19/13 30/20/14 26/18/15
f 27/19/16 33/21/16 24/22/17 30/20/18
f 24/16/9 23/15/8 29/23/19 31/24/19
f 23/15/12 26/18/11 28/25/20 29/23/20
f 26/18/15 30/20/14 32/26/21 28/25/21
f 30/20/18 24/22/17 31/27/22 32/26/22
s 0
f 27/28/23 25/25/23 22/29/23 33/17/23
f 31/25/24 29/30/24 28/17/24 32/31/24
