# Blender 4.5.14 LTS
# www.blender.org
mtllib ceiling_yellow_light.mtl
o ceiling_yellow_light
v -1.000000 3.000000 1.000000 1.0000 1.0000 1.0000
v -1.000000 3.000000 -1.000000 1.0000 1.0000 1.0000
v -1.000000 3.000000 0.000000 1.0000 1.0000 1.0000
v 0.000000 3.000000 0.000000 0.7020 0.7020 0.7020
v 1.000000 3.000000 1.000000 1.0000 1.0000 1.0000
v 0.000000 3.000000 1.000000 1.0000 1.0000 1.0000
v 0.000000 3.000000 -1.000000 1.0000 1.0000 1.0000
v 1.000000 3.000000 -1.000000 1.0000 1.0000 1.0000
v 1.000000 3.000000 0.000000 1.0000 1.0000 1.0000
vn -0.0000 -1.0000 -0.0000
vt 0.000488 0.999512
vt 0.124512 0.999512
vt 0.124512 0.875488
vt 0.000488 0.875488
s 0
usemtl props
f 3/1/1 4/2/1 6/3/1 1/4/1
f 2/1/1 7/2/1 4/3/1 3/4/1
f 4/1/1 9/2/1 5/3/1 6/4/1
f 7/1/1 8/2/1 9/3/1 4/4/1
o ceiling_yellow_light_1
v 0.600000 3.000000 0.300000 0.8470 0.8470 0.8470
v -0.600000 2.970000 -0.300000 0.9019 0.9019 0.9019
v -0.600000 3.000000 -0.300000 0.8470 0.8470 0.8470
v 0.600000 3.000000 -0.300000 0.8431 0.8431 0.8431
v -0.600000 3.000000 0.300000 0.8509 0.8509 0.8509
v 0.600000 2.970000 -0.300000 0.9019 0.9019 0.9019
v 0.600000 2.970000 0.300000 0.9019 0.9019 0.9019
v -0.600000 2.970000 0.300000 0.9019 0.9019 0.9019
vn -0.0000 -0.0000 1.0000
vn -0.0000 -0.0000 -1.0000
vn -1.0000 -0.0000 -0.0000
vn 1.0000 -0.0000 -0.0000
vn -0.0000 -1.0000 -0.0000
vt 0.125488 0.844238
vt 0.155762 0.844238
vt 0.155762 0.844995
vt 0.125488 0.844995
vt 0.155762 0.845752
vt 0.125488 0.845752
vt 0.875488 0.969238
vt 0.937012 0.969238
vt 0.937012 0.999512
vt 0.875488 0.999512
s 0
usemtl props
f 17/5/2 16/6/2 10/7/2 14/8/2
f 15/5/3 11/6/3 12/7/3 13/8/3
f 11/5/4 17/6/4 14/9/4 12/10/4
f 16/5/5 15/6/5 13/9/5 10/10/5
f 11/11/6 15/12/6 16/13/6 17/14/6
o ceiling_yellow_light_lamp
v 0.580000 2.970000 0.280000 0.8470 0.8470 0.8470
v -0.580000 2.968000 -0.280000 0.9058 0.9058 0.9058
v -0.580000 2.970000 -0.280000 0.8470 0.8470 0.8470
v 0.580000 2.970000 -0.280000 0.8431 0.8431 0.8431
v -0.580000 2.970000 0.280000 0.8509 0.8509 0.8509
v 0.580000 2.968000 -0.280000 0.9058 0.9058 0.9058
v 0.580000 2.968000 0.280000 0.9019 0.9019 0.9019
v -0.580000 2.968000 0.280000 0.9019 0.9019 0.9019
vn -0.0000 -0.0000 1.0000
vn -0.0000 -0.0000 -1.0000
vn -1.0000 -0.0000 -0.0000
vn 1.0000 -0.0000 -0.0000
vn -0.0000 -1.0000 -0.0000
vt 0.937988 0.969238
vt 0.999512 0.969238
vt 0.999512 0.999512
vt 0.937988 0.999512
s 0
usemtl props
f 25/15/7 24/16/7 18/17/7 22/18/7
f 23/15/8 19/16/8 20/17/8 21/18/8
f 19/15/9 25/16/9 22/17/9 20/18/9
f 24/15/10 23/16/10 21/17/10 18/18/10
f 19/15/11 23/16/11 24/17/11 25/18/11
