# Blender 4.5.14 LTS
# www.blender.org
mtllib door_yellow.mtl
o door_yellow
v -0.570000 0.000000 0.120000 0.8000 0.8000 0.8000
v -0.490000 0.000000 0.120000 0.7804 0.7804 0.7804
v -0.570000 2.270000 -0.120000 1.0000 1.0000 1.0000
v -0.570000 0.000000 -0.120000 0.8039 0.8039 0.8039
v -0.570000 2.270000 0.120000 1.0000 1.0000 1.0000
v -0.490000 2.270000 0.120000 0.8980 0.8980 0.8980
v -0.490000 2.270000 -0.120000 0.9019 0.9019 0.9019
v -0.490000 0.000000 -0.120000 0.7882 0.7882 0.7882
vn -0.0000 -0.0000 1.0000
vn -0.0000 -0.0000 -1.0000
vn -1.0000 -0.0000 -0.0000
vn 1.0000 -0.0000 -0.0000
vn -0.0000 1.0000 -0.0000
vn -0.0000 -1.0000 -0.0000
vt 0.812988 0.937988
vt 0.815157 0.937988
vt 0.815157 0.999512
vt 0.812988 0.999512
vt 0.819493 0.937988
vt 0.819493 0.999512
vt 0.822832 0.937988
vt 0.822832 0.967520
vt 0.812988 0.967520
s 0
usemtl props
f 1/1/1 2/2/1 6/3/1 5/4/1
f 8/1/2 4/2/2 3/3/2 7/4/2
f 4/1/3 1/5/3 5/6/3 3/4/3
f 2/1/4 8/5/4 7/6/4 6/4/4
f 5/1/5 6/7/5 7/8/5 3/9/5
f 4/1/6 8/7/6 2/8/6 1/9/6
o door_yellow_casing_r
v 0.490000 0.000000 0.120000 0.7804 0.7804 0.7804
v 0.570000 0.000000 0.120000 0.8000 0.8000 0.8000
v 0.490000 2.270000 -0.120000 0.9019 0.9019 0.9019
v 0.490000 0.000000 -0.120000 0.7804 0.7804 0.7804
v 0.490000 2.270000 0.120000 0.9019 0.9019 0.9019
v 0.570000 2.270000 0.120000 1.0000 1.0000 1.0000
v 0.570000 2.270000 -0.120000 1.0000 1.0000 1.0000
v 0.570000 0.000000 -0.120000 0.8039 0.8039 0.8039
vn -0.0000 -0.0000 1.0000
vn -0.0000 -0.0000 -1.0000
vn -1.0000 -0.0000 -0.0000
vn 1.0000 -0.0000 -0.0000
vn -0.0000 1.0000 -0.0000
vn -0.0000 -1.0000 -0.0000
vt 0.812988 0.937988
vt 0.815157 0.937988
vt 0.815157 0.999512
vt 0.812988 0.999512
vt 0.819493 0.937988
vt 0.819493 0.999512
vt 0.822832 0.937988
vt 0.822832 0.967520
vt 0.812988 0.967520
s 0
usemtl props
f 9/10/7 10/11/7 14/12/7 13/13/7
f 16/10/8 12/11/8 11/12/8 15/13/8
f 12/10/9 9/14/9 13/15/9 11/13/9
f 10/10/10 16/14/10 15/15/10 14/13/10
f 13/10/11 14/16/11 15/17/11 11/18/11
f 12/10/12 16/16/12 10/17/12 9/18/12
o door_yellow_casing_top
v -0.510000 2.190000 0.120000 0.8039 0.8039 0.8039
v 0.510000 2.190000 0.120000 0.8000 0.8000 0.8000
v -0.510000 2.260000 -0.120000 0.8000 0.8000 0.8000
v -0.510000 2.190000 -0.120000 0.8039 0.8039 0.8039
v -0.510000 2.260000 0.120000 0.8000 0.8000 0.8000
v 0.510000 2.260000 0.120000 0.8000 0.8000 0.8000
v 0.510000 2.260000 -0.120000 0.8000 0.8000 0.8000
v 0.510000 2.190000 -0.120000 0.8039 0.8039 0.8039
vn -0.0000 -0.0000 1.0000
vn -0.0000 -0.0000 -1.0000
vn -1.0000 -0.0000 -0.0000
vn 1.0000 -0.0000 -0.0000
vn -0.0000 1.0000 -0.0000
vn -0.0000 -1.0000 -0.0000
vt 0.812988 0.937988
vt 0.874512 0.937988
vt 0.874512 0.942210
vt 0.812988 0.942210
vt 0.842520 0.937988
vt 0.842520 0.946602
vt 0.812988 0.946602
vt 0.874512 0.952464
vt 0.812988 0.952464
s 0
usemtl props
f 17/19/13 18/20/13 22/21/13 21/22/13
f 24/19/14 20/20/14 19/21/14 23/22/14
f 20/19/15 17/23/15 21/24/15 19/25/15
f 18/19/16 24/23/16 23/24/16 22/25/16
f 21/19/17 22/20/17 23/26/17 19/27/17
f 20/19/18 24/20/18 18/26/18 17/27/18
o door_yellow_leaf
v 0.480000 0.010000 0.022500 0.7333 0.7333 0.7333
v -0.480000 0.010000 -0.022500 0.7333 0.7333 0.7333
v -0.480000 0.010000 0.022500 0.7333 0.7333 0.7333
v 0.480000 0.010000 -0.022500 0.7294 0.7294 0.7294
v 0.480000 2.190000 0.022500 0.7372 0.7372 0.7372
v -0.480000 2.190000 0.022500 0.7372 0.7372 0.7372
v 0.480000 2.190000 -0.022500 0.7372 0.7372 0.7372
v -0.480000 2.190000 -0.022500 0.7372 0.7372 0.7372
v 0.419799 1.019799 0.052500 0.7490 0.7490 0.7490
v 0.400000 1.028000 0.052500 0.7843 0.7843 0.7843
v 0.419799 1.019799 0.072500 0.8470 0.8470 0.8470
v 0.400000 1.028000 0.072500 0.8823 0.8823 0.8823
v 0.372000 1.000000 0.052500 0.8039 0.8039 0.8039
v 0.380201 1.019799 0.072500 0.8980 0.8980 0.8980
v 0.380201 0.980201 0.072500 0.8980 0.8980 0.8980
v 0.372000 1.000000 0.072500 0.9019 0.9019 0.9019
v 0.400000 0.972000 0.052500 0.7804 0.7804 0.7804
v 0.400000 0.972000 0.072500 0.8823 0.8823 0.8823
v 0.428000 1.000000 0.052500 0.7333 0.7333 0.7333
v 0.428000 1.000000 0.072500 0.8274 0.8274 0.8274
v 0.419799 0.980201 0.072500 0.8470 0.8470 0.8470
v 0.419799 0.980201 0.052500 0.7490 0.7490 0.7490
v 0.380201 0.980201 0.052500 0.8000 0.8000 0.8000
v 0.380201 1.019799 0.052500 0.8039 0.8039 0.8039
v 0.408000 1.000000 0.047500 0.7059 0.7059 0.7059
v 0.392000 1.000000 0.067500 0.7020 0.7020 0.7020
v 0.408000 1.000000 0.067500 0.7020 0.7020 0.7020
v 0.400000 1.008000 0.067500 0.7020 0.7020 0.7020
v 0.400000 0.992000 0.067500 0.7020 0.7020 0.7020
v 0.400000 0.992000 0.047500 0.7216 0.7216 0.7216
v 0.392000 1.000000 0.047500 0.7333 0.7333 0.7333
v 0.400000 1.008000 0.047500 0.7216 0.7216 0.7216
v 0.428000 1.000000 -0.052500 0.8157 0.8157 0.8157
v 0.428000 1.000000 -0.032500 0.7255 0.7255 0.7255
v 0.419799 1.019799 -0.052500 0.8313 0.8313 0.8313
v 0.400000 1.028000 -0.052500 0.8666 0.8666 0.8666
v 0.380201 1.019799 -0.052500 0.8862 0.8862 0.8862
v 0.372000 1.000000 -0.032500 0.7960 0.7960 0.7960
v 0.380201 0.980201 -0.052500 0.8823 0.8823 0.8823
v 0.380201 0.980201 -0.032500 0.7921 0.7921 0.7921
v 0.400000 0.972000 -0.052500 0.8627 0.8627 0.8627
v 0.400000 0.972000 -0.032500 0.7725 0.7725 0.7725
v 0.419799 0.980201 -0.052500 0.8274 0.8274 0.8274
v 0.419799 0.980201 -0.032500 0.7412 0.7412 0.7412
v 0.419799 1.019799 -0.032500 0.7451 0.7451 0.7451
v 0.400000 1.028000 -0.032500 0.7764 0.7764 0.7764
v 0.380201 1.019799 -0.032500 0.7921 0.7921 0.7921
v 0.372000 1.000000 -0.052500 0.8902 0.8902 0.8902
v 0.392000 1.000000 -0.047500 0.7020 0.7020 0.7020
v 0.392000 1.000000 -0.027500 0.7333 0.7333 0.7333
v 0.400000 1.008000 -0.027500 0.7216 0.7216 0.7216
v 0.400000 0.992000 -0.027500 0.7137 0.7137 0.7137
v 0.408000 1.000000 -0.047500 0.7020 0.7020 0.7020
v 0.408000 1.000000 -0.027500 0.7098 0.7098 0.7098
v 0.400000 0.992000 -0.047500 0.7020 0.7020 0.7020
v 0.400000 1.008000 -0.047500 0.7020 0.7020 0.7020
vn -0.0000 -0.0000 1.0000
vn -0.0000 -0.0000 -1.0000
vn -1.0000 -0.0000 -0.0000
vn 1.0000 -0.0000 -0.0000
vn -0.0000 1.0000 -0.0000
vn -0.0000 -1.0000 -0.0000
vn 0.7071 0.7071 -0.0000
vn -0.7071 0.7071 -0.0000
vn -0.7071 -0.7071 -0.0000
vn 0.7071 -0.7071 -0.0000
vt 0.750488 0.875488
vt 0.812012 0.875488
vt 0.812012 0.999512
vt 0.750488 0.999512
vt 0.812988 0.937988
vt 0.814258 0.937988
vt 0.814258 0.999512
vt 0.812988 0.999512
vt 0.874512 0.937988
vt 0.874512 0.940872
vt 0.812988 0.940872
vt 0.094238 0.844238
vt 0.098022 0.844238
vt 0.098022 0.874512
vt 0.094238 0.874512
vt 0.101807 0.844238
vt 0.101807 0.874512
vt 0.105591 0.844238
vt 0.105591 0.874512
vt 0.109375 0.844238
vt 0.109375 0.874512
vt 0.113159 0.844238
vt 0.113159 0.874512
vt 0.116943 0.844238
vt 0.116943 0.874512
vt 0.120728 0.844238
vt 0.120728 0.874512
vt 0.124512 0.844238
vt 0.124512 0.874512
vt 0.124512 0.859375
vt 0.120078 0.870078
vt 0.098672 0.870078
vt 0.094238 0.859375
vt 0.098672 0.848672
vt 0.120078 0.848672
s 0
usemtl props
f 27/28/19 25/29/19 29/30/19 30/31/19
f 28/28/20 26/29/20 32/30/20 31/31/20
f 26/32/21 27/33/21 30/34/21 32/35/21
f 25/32/22 28/33/22 31/34/22 29/35/22
f 30/32/23 29/36/23 31/37/23 32/38/23
f 26/32/24 28/36/24 25/37/24 27/38/24
s 1
f 43/39/22 33/40/25 35/41/25 44/42/22
f 33/40/25 34/43/23 36/44/23 35/41/25
f 34/43/23 48/45/26 38/46/26 36/44/23
f 48/45/26 37/47/21 40/48/21 38/46/26
f 37/47/21 47/49/27 39/50/27 40/48/21
f 47/49/27 41/51/24 42/52/24 39/50/27
f 41/51/24 46/53/28 45/54/28 42/52/24
f 46/53/28 43/55/22 44/56/22 45/54/28
s 0
f 44/57/19 35/58/19 36/48/19 38/59/19 40/60/19 39/61/19 42/47/19 45/62/19
f 46/58/20 41/48/20 47/59/20 37/60/20 48/61/20 34/47/20 33/62/20 43/57/20
s 1
f 49/39/25 56/43/25 52/44/25 51/42/25
f 56/43/26 55/47/26 50/48/26 52/44/26
f 55/47/27 54/51/27 53/52/27 50/48/27
f 54/51/28 49/55/28 51/56/28 53/52/28
s 0
f 51/57/19 52/48/19 50/60/19 53/47/19
f 54/48/20 55/60/20 56/47/20 49/57/20
s 1
f 57/39/22 59/40/25 69/41/25 58/42/22
f 59/40/25 60/43/23 70/44/23 69/41/25
f 60/43/23 61/45/26 71/46/26 70/44/23
f 61/45/26 72/47/21 62/48/21 71/46/26
f 72/47/21 63/49/27 64/50/27 62/48/21
f 63/49/27 65/51/24 66/52/24 64/50/27
f 65/51/24 67/53/28 68/54/28 66/52/24
f 67/53/28 57/55/22 58/56/22 68/54/28
s 0
f 58/57/19 69/58/19 70/48/19 71/59/19 62/60/19 64/61/19 66/47/19 68/62/19
f 67/58/20 65/48/20 63/59/20 72/60/20 61/61/20 60/47/20 59/62/20 57/57/20
s 1
f 77/39/25 80/43/25 75/44/25 78/42/25
f 80/43/26 73/47/26 74/48/26 75/44/26
f 73/47/27 79/51/27 76/52/27 74/48/27
f 79/51/28 77/55/28 78/56/28 76/52/28
s 0
f 78/57/19 75/48/19 74/60/19 76/47/19
f 79/48/20 73/60/20 80/47/20 77/57/20
