# Blender 4.5.14 LTS
# www.blender.org
mtllib exit_sign_right.mtl
o exit_sign_right
v -0.200000 2.470000 0.060000 0.9411 0.9411 0.9411
v 0.200000 2.470000 0.060000 0.9372 0.9372 0.9372
v -0.200000 2.630000 0.000000 0.8000 0.8000 0.8000
v -0.200000 2.470000 0.000000 0.8000 0.8000 0.8000
v -0.200000 2.630000 0.060000 0.9372 0.9372 0.9372
v 0.200000 2.630000 0.060000 0.9333 0.9333 0.9333
v 0.200000 2.630000 0.000000 0.7960 0.7960 0.7960
v 0.200000 2.470000 0.000000 0.7960 0.7960 0.7960
vn -0.0000 -0.0000 1.0000
vn -0.0000 -0.0000 -1.0000
vn -1.0000 -0.0000 -0.0000
vn 1.0000 -0.0000 -0.0000
vn -0.0000 1.0000 -0.0000
vn -0.0000 -1.0000 -0.0000
vt 0.219238 0.859863
vt 0.280762 0.859863
vt 0.280762 0.874512
vt 0.219238 0.874512
vt 0.187988 0.844238
vt 0.218262 0.844238
vt 0.218262 0.856348
vt 0.187988 0.856348
vt 0.195254 0.844238
vt 0.195254 0.863613
vt 0.187988 0.863613
vt 0.218262 0.848779
vt 0.187988 0.848779
s 0
usemtl props
f 1/1/1 2/2/1 6/3/1 5/4/1
f 8/5/2 4/6/2 3/7/2 7/8/2
f 4/5/3 1/9/3 5/10/3 3/11/3
f 2/5/4 8/9/4 7/10/4 6/11/4
f 5/5/5 6/6/5 7/12/5 3/13/5
f 4/5/6 8/6/6 2/12/6 1/13/6
o exit_sign_right_lamp
v -0.190000 2.480000 0.061000 1.0000 1.0000 1.0000
v 0.190000 2.480000 0.061000 1.0000 1.0000 1.0000
v 0.190000 2.620000 0.061000 1.0000 1.0000 1.0000
v -0.190000 2.620000 0.061000 1.0000 1.0000 1.0000
vn -0.0000 -0.0000 1.0000
vt 0.281738 0.859863
vt 0.343262 0.859863
vt 0.343262 0.874512
vt 0.281738 0.874512
s 0
usemtl props
f 9/14/7 10/15/7 11/16/7 12/17/7
