# Blender 4.5.14 LTS
# www.blender.org
mtllib floor_carpet_damp.mtl
o floor_carpet_damp
v -1.000000 0.000000 1.000000 1.0000 1.0000 1.0000
v -1.000000 0.000000 0.000000 1.0000 1.0000 1.0000
v -1.000000 0.000000 -1.000000 1.0000 1.0000 1.0000
v 0.000000 0.000000 1.000000 1.0000 1.0000 1.0000
v 1.000000 0.000000 1.000000 1.0000 1.0000 1.0000
v 0.000000 0.000000 0.000000 1.0000 1.0000 1.0000
v 1.000000 0.000000 0.000000 1.0000 1.0000 1.0000
v 1.000000 0.000000 -1.000000 1.0000 1.0000 1.0000
v 0.000000 0.000000 -1.000000 1.0000 1.0000 1.0000
vn -0.0000 1.0000 -0.0000
vt 0.250488 0.875488
vt 0.374512 0.875488
vt 0.374512 0.999512
vt 0.250488 0.999512
vt 0.125488 0.875488
vt 0.249512 0.875488
vt 0.249512 0.999512
vt 0.125488 0.999512
s 0
usemtl props
f 1/1/1 4/2/1 6/3/1 2/4/1
f 2/5/1 6/6/1 9/7/1 3/8/1
f 4/5/1 5/6/1 7/7/1 6/8/1
f 6/1/1 7/2/1 8/3/1 9/4/1
