# Blender 4.5.14 LTS
# www.blender.org
mtllib vent_wall.mtl
o vent_wall
v -0.250000 0.200000 0.040000 0.9255 0.9255 0.9255
v 0.250000 0.200000 0.040000 0.9215 0.9215 0.9215
v -0.250000 0.500000 0.000000 0.8000 0.8000 0.8000
v -0.250000 0.200000 0.000000 0.8000 0.8000 0.8000
v -0.250000 0.500000 0.040000 0.9176 0.9176 0.9176
v 0.250000 0.500000 0.040000 0.9137 0.9137 0.9137
v 0.250000 0.500000 0.000000 0.7960 0.7960 0.7960
v 0.250000 0.200000 0.000000 0.7960 0.7960 0.7960
vn -0.0000 -0.0000 1.0000
vn -0.0000 -0.0000 -1.0000
vn -1.0000 -0.0000 -0.0000
vn 1.0000 -0.0000 -0.0000
vn -0.0000 1.0000 -0.0000
vn -0.0000 -1.0000 -0.0000
vt 0.000488 0.844238
vt 0.062012 0.844238
vt 0.062012 0.874512
vt 0.000488 0.874512
vt 0.812988 0.937988
vt 0.874512 0.937988
vt 0.874512 0.974902
vt 0.812988 0.974902
vt 0.817910 0.937988
vt 0.817910 0.974902
vt 0.874512 0.942910
vt 0.812988 0.942910
s 0
usemtl props
f 1/1/1 2/2/1 6/3/1 5/4/1
f 8/5/2 4/6/2 3/7/2 7/8/2
f 4/5/3 1/9/3 5/10/3 3/8/3
f 2/5/4 8/9/4 7/10/4 6/8/4
f 5/5/5 6/6/5 7/11/5 3/12/5
f 4/5/6 8/6/6 2/11/6 1/12/6
