# Blender 4.5.14 LTS
# www.blender.org
mtllib wall_yellow_opening.mtl
o wall_yellow_opening
v -1.000000 0.000000 0.100000 0.8470 0.8470 0.8470
v -0.800000 1.000000 0.100000 1.0000 1.0000 1.0000
v -1.000000 1.000000 0.100000 1.0000 1.0000 1.0000
v -1.000000 0.000000 -0.100000 0.8509 0.8509 0.8509
v -1.000000 2.000000 0.100000 1.0000 1.0000 1.0000
v -1.000000 1.000000 -0.100000 1.0000 1.0000 1.0000
v -0.800000 3.000000 0.100000 1.0000 1.0000 1.0000
v -1.000000 3.000000 0.100000 1.0000 1.0000 1.0000
v -1.000000 3.000000 -0.100000 1.0000 1.0000 1.0000
v -1.000000 2.000000 -0.100000 1.0000 1.0000 1.0000
v -0.800000 3.000000 -0.100000 1.0000 1.0000 1.0000
v -0.800000 0.000000 0.100000 0.8509 0.8509 0.8509
v -0.800000 0.000000 -0.100000 0.8509 0.8509 0.8509
v -0.800000 1.000000 -0.100000 1.0000 1.0000 1.0000
v -0.800000 2.000000 0.100000 0.9921 0.9921 0.9921
v -0.800000 2.000000 -0.100000 0.9960 0.9960 0.9960
v -0.800000 2.400000 -0.100000 0.8941 0.8941 0.8941
v -0.800000 2.400000 0.100000 0.8941 0.8941 0.8941
vn -0.0000 -0.0000 1.0000
vn -0.0000 -0.0000 -1.0000
vn -0.0000 1.0000 -0.0000
vn 1.0000 -0.0000 -0.0000
vt 0.500488 0.875488
vt 0.525293 0.875488
vt 0.525293 0.999512
vt 0.500488 0.999512
vt 0.624512 0.999512
vt 0.599707 0.999512
vt 0.599707 0.875488
vt 0.624512 0.875488
vt 0.375488 0.875488
vt 0.400293 0.875488
vt 0.400293 0.999512
vt 0.375488 0.999512
vt 0.499512 0.999512
vt 0.474707 0.999512
vt 0.474707 0.875488
vt 0.499512 0.875488
vt 0.400293 0.900293
vt 0.375488 0.900293
vt 0.400293 0.925098
vt 0.375488 0.925098
s 0
usemtl props
f 1/1/1 12/2/1 2/3/1 3/4/1
f 6/5/2 14/6/2 13/7/2 4/8/2
f 3/9/1 2/10/1 15/11/1 5/12/1
f 10/13/2 16/14/2 14/15/2 6/16/2
f 5/9/1 15/10/1 7/11/1 8/12/1
f 9/13/2 11/14/2 16/15/2 10/16/2
f 8/9/3 7/10/3 11/17/3 9/18/3
f 12/1/4 13/2/4 14/3/4 2/4/4
f 2/9/4 14/10/4 16/11/4 15/12/4
f 15/9/4 16/10/4 17/19/4 18/20/4
o wall_yellow_opening_1
v -0.800000 2.400000 0.100000 0.9529 0.9529 0.9529
v -0.800000 3.000000 0.100000 1.0000 1.0000 1.0000
v 0.800000 2.400000 0.100000 0.9529 0.9529 0.9529
v 0.800000 2.400000 -0.100000 0.9529 0.9529 0.9529
v -0.800000 3.000000 -0.100000 1.0000 1.0000 1.0000
v 0.000000 3.000000 0.100000 1.0000 1.0000 1.0000
v 0.800000 3.000000 0.100000 1.0000 1.0000 1.0000
v 0.800000 3.000000 -0.100000 1.0000 1.0000 1.0000
v 0.000000 3.000000 -0.100000 1.0000 1.0000 1.0000
v -0.800000 2.400000 -0.100000 0.9490 0.9490 0.9490
v 0.000000 2.400000 -0.100000 1.0000 1.0000 1.0000
v 0.000000 2.400000 0.100000 1.0000 1.0000 1.0000
vn -0.0000 -0.0000 1.0000
vn -0.0000 -0.0000 -1.0000
vn -0.0000 1.0000 -0.0000
vn -0.0000 -1.0000 -0.0000
vt 0.400293 0.925098
vt 0.499512 0.925098
vt 0.499512 0.999512
vt 0.400293 0.999512
vt 0.474707 0.999512
vt 0.375488 0.999512
vt 0.375488 0.925098
vt 0.474707 0.925098
vt 0.400293 0.875488
vt 0.499512 0.875488
vt 0.499512 0.900293
vt 0.400293 0.900293
vt 0.375488 0.875488
vt 0.474707 0.875488
vt 0.474707 0.900293
vt 0.375488 0.900293
s 0
usemtl props
f 19/21/5 30/22/5 24/23/5 20/24/5
f 23/25/6 27/26/6 29/27/6 28/28/6
f 30/27/5 21/28/5 25/25/5 24/26/5
f 27/23/6 26/24/6 22/21/6 29/22/6
f 20/29/7 24/30/7 27/31/7 23/32/7
f 24/33/7 25/34/7 26/35/7 27/36/7
f 28/32/8 29/31/8 30/30/8 19/29/8
f 29/36/8 22/35/8 21/34/8 30/33/8
o wall_yellow_opening_2
v 1.000000 0.000000 0.100000 0.8470 0.8470 0.8470
v 1.000000 1.000000 0.100000 1.0000 1.0000 1.0000
v 1.000000 0.000000 -0.100000 0.8509 0.8509 0.8509
v 0.800000 1.000000 0.100000 1.0000 1.0000 1.0000
v 1.000000 2.000000 0.100000 1.0000 1.0000 1.0000
v 1.000000 1.000000 -0.100000 1.0000 1.0000 1.0000
v 1.000000 3.000000 0.100000 1.0000 1.0000 1.0000
v 0.800000 3.000000 -0.100000 1.0000 1.0000 1.0000
v 1.000000 3.000000 -0.100000 1.0000 1.0000 1.0000
v 1.000000 2.000000 -0.100000 1.0000 1.0000 1.0000
v 0.800000 2.000000 -0.100000 0.9960 0.9960 0.9960
v 0.800000 3.000000 0.100000 1.0000 1.0000 1.0000
v 0.800000 0.000000 -0.100000 0.8470 0.8470 0.8470
v 0.800000 0.000000 0.100000 0.8470 0.8470 0.8470
v 0.800000 1.000000 -0.100000 1.0000 1.0000 1.0000
v 0.800000 2.000000 0.100000 0.9960 0.9960 0.9960
v 0.800000 2.400000 0.100000 0.9019 0.9019 0.9019
v 0.800000 2.400000 -0.100000 0.8941 0.8941 0.8941
vn -0.0000 -0.0000 1.0000
vn -0.0000 -0.0000 -1.0000
vn -0.0000 1.0000 -0.0000
vn -1.0000 -0.0000 -0.0000
vt 0.599707 0.875488
vt 0.624512 0.875488
vt 0.624512 0.999512
vt 0.599707 0.999512
vt 0.525293 0.999512
vt 0.500488 0.999512
vt 0.500488 0.875488
vt 0.525293 0.875488
vt 0.474707 0.875488
vt 0.499512 0.875488
vt 0.499512 0.999512
vt 0.474707 0.999512
vt 0.400293 0.999512
vt 0.375488 0.999512
vt 0.375488 0.875488
vt 0.400293 0.875488
vt 0.499512 0.900293
vt 0.474707 0.900293
vt 0.400293 0.925098
vt 0.375488 0.925098
s 0
usemtl props
f 44/37/9 31/38/9 32/39/9 34/40/9
f 45/41/10 36/42/10 33/43/10 43/44/10
f 34/45/9 32/46/9 35/47/9 46/48/9
f 41/49/10 40/50/10 36/51/10 45/52/10
f 46/45/9 35/46/9 37/47/9 42/48/9
f 38/49/10 39/50/10 40/51/10 41/52/10
f 42/45/11 37/46/11 39/53/11 38/54/11
f 43/43/12 44/44/12 34/41/12 45/42/12
f 45/51/12 34/52/12 46/49/12 41/50/12
f 41/51/12 46/52/12 47/55/12 48/56/12
