# Blender 4.1.0
# www.blender.org
mtllib Door.mtl
o Door
v 0.344955 0.778562 0.028587
v 0.344955 0.798562 0.048587
v 0.324955 0.798562 0.028587
v 0.344955 1.098094 0.048587
v 0.344955 1.118093 0.028587
v 0.324955 1.098094 0.028587
v 0.344955 0.778562 -0.154082
v 0.324955 0.798562 -0.154082
v 0.344955 0.798562 -0.174082
v 0.344955 1.118093 -0.154082
v 0.344955 1.098094 -0.174082
v 0.324955 1.098094 -0.154082
v 0.474690 0.778562 0.028587
v 0.494690 0.798562 0.028587
v 0.474690 0.798562 0.048587
v 0.474690 1.118093 0.028587
v 0.474690 1.098094 0.048587
v 0.494690 1.098094 0.028587
v 0.474690 0.778562 -0.154082
v 0.474690 0.798562 -0.174082
v 0.494690 0.798562 -0.154082
v 0.474690 1.118093 -0.154082
v 0.494690 1.098094 -0.154082
v 0.474690 1.098094 -0.174082
v -0.536982 2.125598 0.006553
v -0.536982 2.125598 -0.118705
v 0.540892 2.125598 0.006553
v 0.540892 2.125598 -0.118705
v -0.536982 0.149666 0.006553
v -0.536982 0.149666 -0.118705
v 0.540892 0.149666 -0.118705
v 0.540892 0.149666 0.006553
v -0.536982 0.149666 -0.147302
v -0.536982 0.000000 -0.147302
v 0.540892 0.000000 -0.147302
v 0.540892 0.149666 -0.147302
v 0.540892 0.149666 0.028156
v 0.540892 0.000000 0.028156
v -0.536982 0.000000 0.028156
v -0.536982 0.149666 0.028156
v 0.361129 0.970919 0.154790
v 0.361129 1.065920 0.154790
v 0.376635 0.986476 0.090351
v 0.376635 1.050364 0.090351
v 0.455821 0.970919 0.154790
v 0.455821 1.065920 0.154790
v 0.440315 0.986476 0.090351
v 0.440315 1.050364 0.090351
v 0.351604 1.075476 0.098645
v 0.351604 0.961364 0.098645
v 0.465346 0.961364 0.098645
v 0.465346 1.075476 0.098645
v 0.382893 1.044086 0.018117
v 0.382893 0.992754 0.018117
v 0.434057 0.992754 0.018117
v 0.434057 1.044086 0.018117
v 0.348325 0.958073 0.111022
v 0.348832 0.958583 0.127654
v 0.353982 0.963750 0.143857
v 0.354223 0.990238 0.158694
v 0.350753 1.018420 0.160656
v 0.354223 1.046602 0.158694
v 0.353982 1.073090 0.143857
v 0.348832 1.078257 0.127654
v 0.348325 1.078766 0.111022
v 0.335609 1.049622 0.098645
v 0.330278 1.018420 0.098645
v 0.335609 0.987217 0.098645
v 0.439576 0.945317 0.098645
v 0.408475 0.939968 0.098645
v 0.377374 0.945317 0.098645
v 0.377374 1.091523 0.098645
v 0.408475 1.096872 0.098645
v 0.439576 1.091523 0.098645
v 0.481341 1.049622 0.098645
v 0.486672 1.018420 0.098645
v 0.481341 0.987217 0.098645
v 0.462968 0.963750 0.143857
v 0.468118 0.958583 0.127654
v 0.468626 0.958073 0.111022
v 0.468626 1.078766 0.111022
v 0.468118 1.078257 0.127654
v 0.462968 1.073090 0.143857
v 0.462728 1.046602 0.158694
v 0.466197 1.018420 0.160656
v 0.462728 0.990238 0.158694
v 0.380385 0.963991 0.158694
v 0.408475 0.960510 0.160656
v 0.436566 0.963991 0.158694
v 0.436566 1.072849 0.158694
v 0.408475 1.076329 0.160656
v 0.380385 1.072849 0.158694
v 0.367680 1.035889 0.090351
v 0.364695 1.018420 0.090351
v 0.367680 1.000951 0.090351
v 0.425888 0.977492 0.090351
v 0.408475 0.974497 0.090351
v 0.391063 0.977492 0.090351
v 0.391063 1.059348 0.090351
v 0.408475 1.062343 0.090351
v 0.425888 1.059348 0.090351
v 0.449270 1.035889 0.090351
v 0.452255 1.018420 0.090351
v 0.449270 1.000951 0.090351
v 0.357275 1.069786 0.093806
v 0.364120 1.062920 0.093697
v 0.370964 1.056053 0.093989
v 0.370964 0.980787 0.093989
v 0.364120 0.973920 0.093697
v 0.357275 0.967053 0.093806
v 0.445986 0.980787 0.093989
v 0.452830 0.973920 0.093697
v 0.459675 0.967053 0.093806
v 0.459675 1.069786 0.093806
v 0.452830 1.062920 0.093697
v 0.445986 1.056053 0.093989
v 0.375698 1.032456 0.018117
v 0.373299 1.018420 0.018117
v 0.375698 1.004384 0.018117
v 0.422465 0.985536 0.018117
v 0.408475 0.983129 0.018117
v 0.394485 0.985536 0.018117
v 0.394485 1.051304 0.018117
v 0.408475 1.053710 0.018117
v 0.422465 1.051304 0.018117
v 0.441253 1.032456 0.018117
v 0.443651 1.018420 0.018117
v 0.441253 1.004384 0.018117
v 0.436697 1.046734 0.079519
v 0.434840 1.044870 0.062493
v 0.434155 1.044184 0.041337
v 0.382795 1.044184 0.041337
v 0.382111 1.044870 0.062493
v 0.380253 1.046734 0.079519
v 0.382795 0.992656 0.041337
v 0.382111 0.991969 0.062493
v 0.380253 0.990106 0.079519
v 0.436697 0.990106 0.079519
v 0.434840 0.991969 0.062493
v 0.434155 0.992656 0.041337
v 0.339142 0.988251 0.144937
v 0.334119 1.018420 0.145883
v 0.339142 1.048588 0.144937
v 0.332019 0.985707 0.127943
v 0.326402 1.018420 0.128232
v 0.332019 1.051133 0.127943
v 0.331402 0.985419 0.111058
v 0.325760 1.018420 0.111094
v 0.331402 1.051420 0.111058
v 0.393041 1.054697 0.079519
v 0.408475 1.057352 0.079519
v 0.423909 1.054697 0.079519
v 0.394057 1.052309 0.062493
v 0.408475 1.054789 0.062493
v 0.422893 1.052309 0.062493
v 0.394431 1.051430 0.041337
v 0.408475 1.053845 0.041337
v 0.422519 1.051430 0.041337
v 0.485548 0.985419 0.111058
v 0.491190 1.018420 0.111094
v 0.485548 1.051420 0.111058
v 0.484931 0.985707 0.127943
v 0.490548 1.018420 0.128232
v 0.484931 1.051133 0.127943
v 0.477808 0.988251 0.144937
v 0.482831 1.018420 0.145883
v 0.477808 1.048588 0.144937
v 0.438413 0.988384 0.167049
v 0.440021 1.018420 0.169878
v 0.438413 1.048455 0.167049
v 0.408475 0.986771 0.169878
v 0.408475 1.018420 0.172966
v 0.408475 1.050068 0.169878
v 0.378537 0.988384 0.167049
v 0.376929 1.018420 0.169878
v 0.378537 1.048455 0.167049
v 0.375582 0.941096 0.111058
v 0.408475 0.935435 0.111094
v 0.441369 0.941096 0.111058
v 0.375868 0.941715 0.127943
v 0.408475 0.936080 0.128232
v 0.441082 0.941715 0.127943
v 0.378405 0.948861 0.144937
v 0.408475 0.943822 0.145883
v 0.438545 0.948861 0.144937
v 0.441369 1.095744 0.111058
v 0.408475 1.101404 0.111094
v 0.375582 1.095744 0.111058
v 0.441082 1.095125 0.127943
v 0.408475 1.100760 0.128232
v 0.375868 1.095125 0.127943
v 0.438545 1.087978 0.144937
v 0.408475 1.093018 0.145883
v 0.378405 1.087978 0.144937
v 0.360414 1.039001 0.093989
v 0.356897 1.018420 0.093989
v 0.360414 0.997839 0.093989
v 0.351645 1.042756 0.093697
v 0.347486 1.018420 0.093697
v 0.351645 0.994084 0.093697
v 0.342875 1.046511 0.093806
v 0.338075 1.018420 0.093806
v 0.342875 0.990329 0.093806
v 0.387961 0.970202 0.093989
v 0.408475 0.966674 0.093989
v 0.428989 0.970202 0.093989
v 0.384218 0.961404 0.093697
v 0.408475 0.957232 0.093697
v 0.432732 0.961404 0.093697
v 0.380475 0.952606 0.093806
v 0.408475 0.947791 0.093806
v 0.436475 0.952606 0.093806
v 0.428989 1.066637 0.093989
v 0.408475 1.070166 0.093989
v 0.387961 1.066637 0.093989
v 0.432732 1.075435 0.093697
v 0.408475 1.079607 0.093697
v 0.384218 1.075435 0.093697
v 0.436475 1.084233 0.093806
v 0.408475 1.089049 0.093806
v 0.380475 1.084233 0.093806
v 0.456536 0.997839 0.093989
v 0.460053 1.018420 0.093989
v 0.456536 1.039001 0.093989
v 0.465305 0.994084 0.093697
v 0.469464 1.018420 0.093697
v 0.465305 1.042756 0.093697
v 0.474075 0.990329 0.093806
v 0.478875 1.018420 0.093806
v 0.474075 1.046511 0.093806
v 0.372315 1.002935 0.079519
v 0.369669 1.018420 0.079519
v 0.372315 1.033904 0.079519
v 0.374695 1.003955 0.062493
v 0.372224 1.018420 0.062493
v 0.374695 1.032885 0.062493
v 0.375572 1.004330 0.041337
v 0.373165 1.018420 0.041337
v 0.375572 1.032509 0.041337
v 0.444635 1.033904 0.079519
v 0.447281 1.018420 0.079519
v 0.444635 1.002935 0.079519
v 0.442255 1.032885 0.062493
v 0.444726 1.018420 0.062493
v 0.442255 1.003955 0.062493
v 0.441378 1.032509 0.041337
v 0.443785 1.018420 0.041337
v 0.441378 1.004330 0.041337
v 0.423909 0.982142 0.079519
v 0.408475 0.979488 0.079519
v 0.393041 0.982142 0.079519
v 0.422893 0.984530 0.062493
v 0.408475 0.982050 0.062493
v 0.394057 0.984530 0.062493
v 0.422519 0.985410 0.041337
v 0.408475 0.982994 0.041337
v 0.394431 0.985410 0.041337
v 0.361129 0.970919 -0.269981
v 0.361129 1.065920 -0.269981
v 0.376635 0.986476 -0.205542
v 0.376635 1.050364 -0.205542
v 0.455821 0.970919 -0.269981
v 0.455821 1.065920 -0.269981
v 0.440315 0.986476 -0.205542
v 0.440315 1.050364 -0.205542
v 0.351604 1.075476 -0.213836
v 0.351604 0.961364 -0.213836
v 0.465346 0.961364 -0.213836
v 0.465346 1.075476 -0.213836
v 0.382893 1.044086 -0.133308
v 0.382893 0.992754 -0.133308
v 0.434057 0.992754 -0.133308
v 0.434057 1.044086 -0.133308
v 0.348325 0.958073 -0.226213
v 0.348832 0.958583 -0.242845
v 0.353982 0.963750 -0.259048
v 0.354223 0.990238 -0.273885
v 0.350753 1.018420 -0.275847
v 0.354223 1.046602 -0.273885
v 0.353982 1.073090 -0.259048
v 0.348832 1.078257 -0.242845
v 0.348325 1.078766 -0.226213
v 0.335609 1.049622 -0.213836
v 0.330278 1.018420 -0.213836
v 0.335609 0.987217 -0.213836
v 0.439576 0.945317 -0.213836
v 0.408475 0.939968 -0.213836
v 0.377374 0.945317 -0.213836
v 0.377374 1.091523 -0.213836
v 0.408475 1.096872 -0.213836
v 0.439576 1.091523 -0.213836
v 0.481341 1.049622 -0.213836
v 0.486672 1.018420 -0.213836
v 0.481341 0.987217 -0.213836
v 0.462968 0.963750 -0.259048
v 0.468118 0.958583 -0.242845
v 0.468626 0.958073 -0.226213
v 0.468626 1.078766 -0.226213
v 0.468118 1.078257 -0.242845
v 0.462968 1.073090 -0.259048
v 0.462728 1.046602 -0.273885
v 0.466197 1.018420 -0.275847
v 0.462728 0.990238 -0.273885
v 0.380385 0.963991 -0.273885
v 0.408475 0.960510 -0.275847
v 0.436566 0.963991 -0.273885
v 0.436566 1.072849 -0.273885
v 0.408475 1.076329 -0.275847
v 0.380385 1.072849 -0.273885
v 0.367680 1.035889 -0.205542
v 0.364695 1.018420 -0.205542
v 0.367680 1.000951 -0.205542
v 0.425888 0.977492 -0.205542
v 0.408475 0.974497 -0.205542
v 0.391063 0.977492 -0.205542
v 0.391063 1.059348 -0.205542
v 0.408475 1.062343 -0.205542
v 0.425888 1.059348 -0.205542
v 0.449270 1.035889 -0.205542
v 0.452255 1.018420 -0.205542
v 0.449270 1.000951 -0.205542
v 0.357275 1.069786 -0.208997
v 0.364120 1.062920 -0.208888
v 0.370964 1.056053 -0.209180
v 0.370964 0.980787 -0.209180
v 0.364120 0.973920 -0.208888
v 0.357275 0.967053 -0.208997
v 0.445986 0.980787 -0.209180
v 0.452830 0.973920 -0.208888
v 0.459675 0.967053 -0.208997
v 0.459675 1.069786 -0.208997
v 0.452830 1.062920 -0.208888
v 0.445986 1.056053 -0.209180
v 0.375698 1.032456 -0.133308
v 0.373299 1.018420 -0.133308
v 0.375698 1.004384 -0.133308
v 0.422465 0.985536 -0.133308
v 0.408475 0.983129 -0.133308
v 0.394485 0.985536 -0.133308
v 0.394485 1.051304 -0.133308
v 0.408475 1.053710 -0.133308
v 0.422465 1.051304 -0.133308
v 0.441253 1.032456 -0.133308
v 0.443651 1.018420 -0.133308
v 0.441253 1.004384 -0.133308
v 0.436697 1.046734 -0.194711
v 0.434840 1.044870 -0.177685
v 0.434155 1.044184 -0.156529
v 0.382795 1.044184 -0.156529
v 0.382111 1.044870 -0.177685
v 0.380253 1.046734 -0.194711
v 0.382795 0.992656 -0.156529
v 0.382111 0.991969 -0.177685
v 0.380253 0.990106 -0.194711
v 0.436697 0.990106 -0.194711
v 0.434840 0.991969 -0.177685
v 0.434155 0.992656 -0.156529
v 0.339142 0.988251 -0.260129
v 0.334119 1.018420 -0.261074
v 0.339142 1.048588 -0.260129
v 0.332019 0.985707 -0.243134
v 0.326402 1.018420 -0.243423
v 0.332019 1.051133 -0.243134
v 0.331402 0.985419 -0.226249
v 0.325760 1.018420 -0.226286
v 0.331402 1.051420 -0.226249
v 0.393041 1.054697 -0.194711
v 0.408475 1.057352 -0.194711
v 0.423909 1.054697 -0.194711
v 0.394057 1.052309 -0.177685
v 0.408475 1.054789 -0.177685
v 0.422893 1.052309 -0.177685
v 0.394431 1.051430 -0.156529
v 0.408475 1.053845 -0.156529
v 0.422519 1.051430 -0.156529
v 0.485548 0.985419 -0.226249
v 0.491190 1.018420 -0.226286
v 0.485548 1.051420 -0.226249
v 0.484931 0.985707 -0.243134
v 0.490548 1.018420 -0.243423
v 0.484931 1.051133 -0.243134
v 0.477808 0.988251 -0.260129
v 0.482831 1.018420 -0.261074
v 0.477808 1.048588 -0.260129
v 0.438413 0.988384 -0.282240
v 0.440021 1.018420 -0.285069
v 0.438413 1.048455 -0.282240
v 0.408475 0.986771 -0.285069
v 0.408475 1.018420 -0.288157
v 0.408475 1.050068 -0.285069
v 0.378537 0.988384 -0.282240
v 0.376929 1.018420 -0.285069
v 0.378537 1.048455 -0.282240
v 0.375582 0.941096 -0.226249
v 0.408475 0.935435 -0.226286
v 0.441369 0.941096 -0.226249
v 0.375868 0.941715 -0.243134
v 0.408475 0.936080 -0.243423
v 0.441082 0.941715 -0.243134
v 0.378405 0.948861 -0.260129
v 0.408475 0.943822 -0.261074
v 0.438545 0.948861 -0.260129
v 0.441369 1.095744 -0.226249
v 0.408475 1.101404 -0.226286
v 0.375582 1.095744 -0.226249
v 0.441082 1.095125 -0.243134
v 0.408475 1.100760 -0.243423
v 0.375868 1.095125 -0.243134
v 0.438545 1.087978 -0.260129
v 0.408475 1.093018 -0.261074
v 0.378405 1.087978 -0.260129
v 0.360414 1.039001 -0.209180
v 0.356897 1.018420 -0.209180
v 0.360414 0.997839 -0.209180
v 0.351645 1.042756 -0.208888
v 0.347486 1.018420 -0.208888
v 0.351645 0.994084 -0.208888
v 0.342875 1.046511 -0.208997
v 0.338075 1.018420 -0.208997
v 0.342875 0.990329 -0.208997
v 0.387961 0.970202 -0.209180
v 0.408475 0.966674 -0.209180
v 0.428989 0.970202 -0.209180
v 0.384218 0.961404 -0.208888
v 0.408475 0.957232 -0.208888
v 0.432732 0.961404 -0.208888
v 0.380475 0.952606 -0.208997
v 0.408475 0.947791 -0.208997
v 0.436475 0.952606 -0.208997
v 0.428989 1.066637 -0.209180
v 0.408475 1.070166 -0.209180
v 0.387961 1.066637 -0.209180
v 0.432732 1.075435 -0.208888
v 0.408475 1.079607 -0.208888
v 0.384218 1.075435 -0.208888
v 0.436475 1.084233 -0.208997
v 0.408475 1.089049 -0.208997
v 0.380475 1.084233 -0.208997
v 0.456536 0.997839 -0.209180
v 0.460053 1.018420 -0.209180
v 0.456536 1.039001 -0.209180
v 0.465305 0.994084 -0.208888
v 0.469464 1.018420 -0.208888
v 0.465305 1.042756 -0.208888
v 0.474075 0.990329 -0.208997
v 0.478875 1.018420 -0.208997
v 0.474075 1.046511 -0.208997
v 0.372315 1.002935 -0.194711
v 0.369669 1.018420 -0.194711
v 0.372315 1.033904 -0.194711
v 0.374695 1.003955 -0.177685
v 0.372224 1.018420 -0.177685
v 0.374695 1.032885 -0.177685
v 0.375572 1.004330 -0.156529
v 0.373165 1.018420 -0.156529
v 0.375572 1.032509 -0.156529
v 0.444635 1.033904 -0.194711
v 0.447281 1.018420 -0.194711
v 0.444635 1.002935 -0.194711
v 0.442255 1.032885 -0.177685
v 0.444726 1.018420 -0.177685
v 0.442255 1.003955 -0.177685
v 0.441378 1.032509 -0.156529
v 0.443785 1.018420 -0.156529
v 0.441378 1.004330 -0.156529
v 0.423909 0.982142 -0.194711
v 0.408475 0.979488 -0.194711
v 0.393041 0.982142 -0.194711
v 0.422893 0.984530 -0.177685
v 0.408475 0.982050 -0.177685
v 0.394057 0.984530 -0.177685
v 0.422519 0.985410 -0.156529
v 0.408475 0.982994 -0.156529
v 0.394431 0.985410 -0.156529
vn -0.0000 -0.0000 1.0000
vn 1.0000 -0.0000 -0.0000
vn -0.0000 1.0000 -0.0000
vn -1.0000 -0.0000 -0.0000
vn -0.0000 -0.0000 -1.0000
vn -0.5773 -0.5773 0.5774
vn -0.5773 0.5773 0.5774
vn -0.5773 -0.5773 -0.5774
vn -0.5773 0.5773 -0.5774
vn 0.5774 -0.5774 0.5773
vn 0.5774 0.5774 0.5774
vn 0.5774 -0.5774 -0.5773
vn 0.5774 0.5774 -0.5774
vn -0.7071 -0.7071 -0.0000
vn -0.7071 -0.0000 0.7071
vn -0.7071 0.7071 -0.0000
vn -0.7071 -0.0000 -0.7071
vn -0.0000 -0.7071 -0.7071
vn -0.0000 0.7071 -0.7071
vn 0.7071 -0.0000 -0.7071
vn 0.7071 -0.7071 -0.0000
vn 0.7071 0.7071 -0.0000
vn 0.7071 -0.0000 0.7071
vn -0.0000 -0.7071 0.7071
vn -0.0000 0.7071 0.7071
vn -0.0000 -1.0000 -0.0000
vn -0.7696 -0.2941 0.5668
vn -0.9753 -0.0000 0.2208
vn -0.9111 -0.3470 0.2226
vn -0.7696 0.2941 0.5668
vn -0.8145 -0.0000 0.5801
vn -0.9885 -0.0000 -0.1513
vn -0.9240 -0.3508 -0.1521
vn -0.9111 0.3470 0.2226
vn -0.4455 -0.4440 0.7774
vn -0.5969 -0.5952 0.5380
vn -0.5149 -0.0000 0.8572
vn -0.4975 -0.2221 0.8385
vn -0.4455 0.4440 0.7774
vn -0.4975 0.2221 0.8385
vn -0.5969 0.5952 0.5380
vn -0.6901 0.6882 0.2238
vn -0.9240 0.3508 -0.1521
vn -0.5574 0.5557 -0.6169
vn -0.7374 0.2789 -0.6152
vn -0.7897 -0.0000 -0.6135
vn -0.7374 -0.2789 -0.6152
vn -0.5574 -0.5557 -0.6169
vn -0.6997 -0.6978 -0.1531
vn -0.6901 -0.6882 0.2238
vn -0.0000 0.9568 -0.2908
vn -0.3537 0.9301 -0.0986
vn -0.3393 0.8934 -0.2944
vn 0.3537 0.9301 -0.0986
vn -0.0000 0.9952 -0.0974
vn -0.3555 0.9343 -0.0256
vn 0.3555 0.9343 -0.0256
vn -0.0000 0.9997 -0.0253
vn -0.2424 0.6381 -0.7308
vn -0.6757 0.6737 -0.2993
vn -0.4772 0.4757 -0.7389
vn -0.0000 0.6888 -0.7250
vn 0.3393 0.8934 -0.2944
vn 0.2424 0.6381 -0.7308
vn 0.6757 0.6737 -0.2993
vn 0.7046 0.7025 -0.1002
vn 0.7079 0.7058 -0.0260
vn 0.7081 0.7061 -0.0060
vn 0.3556 0.9346 -0.0059
vn -0.0000 1.0000 -0.0058
vn -0.3556 0.9346 -0.0059
vn -0.7081 0.7061 -0.0060
vn -0.7079 0.7058 -0.0260
vn -0.7046 0.7025 -0.1002
vn 0.9885 -0.0000 -0.1513
vn 0.9111 -0.3470 0.2226
vn 0.9240 -0.3508 -0.1521
vn 0.9111 0.3470 0.2226
vn 0.9753 -0.0000 0.2208
vn 0.7696 -0.2941 0.5668
vn 0.7696 0.2941 0.5668
vn 0.8145 -0.0000 0.5801
vn 0.5574 -0.5557 -0.6169
vn 0.6997 -0.6978 -0.1531
vn 0.7374 -0.2789 -0.6152
vn 0.7374 0.2789 -0.6152
vn 0.7897 -0.0000 -0.6135
vn 0.5574 0.5557 -0.6169
vn 0.9240 0.3508 -0.1521
vn 0.6901 0.6882 0.2238
vn 0.5969 0.5952 0.5380
vn 0.4455 0.4440 0.7774
vn 0.4975 0.2221 0.8385
vn 0.5149 -0.0000 0.8572
vn 0.4975 -0.2221 0.8385
vn 0.4455 -0.4440 0.7774
vn 0.5969 -0.5952 0.5380
vn 0.6901 -0.6882 0.2238
vn 0.2138 -0.2131 0.9534
vn -0.0000 -0.2181 0.9759
vn 0.2138 0.2131 0.9534
vn 0.2188 -0.0000 0.9758
vn -0.2138 -0.2131 0.9534
vn -0.2138 0.2131 0.9534
vn -0.2188 -0.0000 0.9758
vn 0.2230 -0.4964 0.8390
vn 0.2230 0.4964 0.8390
vn -0.0000 0.2181 0.9759
vn -0.2230 0.4964 0.8390
vn -0.2230 -0.4963 0.8390
vn -0.0000 -0.5139 0.8579
vn -0.0000 -0.9884 -0.1517
vn -0.3487 -0.9103 0.2231
vn -0.3525 -0.9233 -0.1524
vn 0.3487 -0.9103 0.2231
vn -0.0000 -0.9752 0.2214
vn -0.2955 -0.7684 0.5676
vn 0.2955 -0.7684 0.5676
vn -0.0000 -0.8138 0.5812
vn -0.2802 -0.7364 -0.6158
vn 0.2802 -0.7364 -0.6158
vn -0.0000 -0.7891 -0.6143
vn 0.3525 -0.9233 -0.1524
vn -0.0000 0.9884 -0.1517
vn 0.3487 0.9103 0.2231
vn 0.3525 0.9233 -0.1524
vn -0.3487 0.9103 0.2231
vn -0.0000 0.9752 0.2214
vn 0.2955 0.7684 0.5676
vn -0.2955 0.7684 0.5676
vn -0.0000 0.8138 0.5812
vn 0.6997 0.6978 -0.1531
vn 0.2802 0.7364 -0.6158
vn -0.2802 0.7364 -0.6158
vn -0.0000 0.7891 -0.6143
vn -0.3525 0.9233 -0.1524
vn -0.0000 0.5139 0.8579
vn -0.1605 0.0617 -0.9851
vn 0.0074 -0.0000 -1.0000
vn 0.0065 -0.0026 -1.0000
vn -0.1605 -0.0617 -0.9851
vn -0.1772 -0.0000 -0.9842
vn -0.3059 -0.0000 -0.9521
vn -0.2872 0.1070 -0.9519
vn 0.0065 0.0026 -1.0000
vn -0.1162 0.1160 -0.9864
vn -0.6394 0.2414 -0.7300
vn -0.6394 -0.2414 -0.7300
vn -0.6898 -0.0000 -0.7240
vn -0.4772 -0.4757 -0.7389
vn -0.1162 -0.1160 -0.9864
vn 0.0045 0.0045 -1.0000
vn -0.2872 -0.1070 -0.9519
vn -0.2182 -0.2173 -0.9514
vn -0.2182 0.2173 -0.9514
vn 0.0045 -0.0045 -1.0000
vn -0.0617 -0.1600 -0.9852
vn -0.0000 0.0074 -1.0000
vn 0.0026 0.0065 -1.0000
vn 0.0617 -0.1600 -0.9852
vn -0.0000 -0.1766 -0.9843
vn -0.0000 -0.3053 -0.9522
vn -0.1075 -0.2865 -0.9520
vn -0.0026 0.0065 -1.0000
vn -0.2424 -0.6381 -0.7308
vn 0.2424 -0.6381 -0.7308
vn -0.0000 -0.6888 -0.7250
vn 0.4772 -0.4757 -0.7389
vn 0.1162 -0.1160 -0.9864
vn -0.0045 0.0045 -1.0000
vn 0.1075 -0.2865 -0.9520
vn 0.2182 -0.2173 -0.9514
vn 0.0617 0.1600 -0.9852
vn -0.0000 -0.0074 -1.0000
vn -0.0026 -0.0065 -1.0000
vn -0.0617 0.1600 -0.9852
vn -0.0000 0.1766 -0.9843
vn -0.0000 0.3053 -0.9522
vn 0.1075 0.2865 -0.9520
vn 0.0026 -0.0065 -1.0000
vn 0.4772 0.4757 -0.7389
vn 0.1162 0.1160 -0.9864
vn -0.1075 0.2865 -0.9520
vn 0.2182 0.2173 -0.9514
vn -0.0045 -0.0045 -1.0000
vn 0.1605 -0.0617 -0.9851
vn -0.0074 -0.0000 -1.0000
vn -0.0065 0.0026 -1.0000
vn 0.1605 0.0617 -0.9851
vn 0.1772 -0.0000 -0.9842
vn 0.3059 -0.0000 -0.9521
vn 0.2872 -0.1070 -0.9519
vn -0.0065 -0.0026 -1.0000
vn 0.6394 -0.2414 -0.7300
vn 0.6394 0.2414 -0.7300
vn 0.6898 -0.0000 -0.7240
vn 0.2872 0.1070 -0.9519
vn -0.9571 -0.0000 -0.2899
vn -0.9309 -0.3518 -0.0984
vn -0.8943 -0.3375 -0.2937
vn -0.9309 0.3518 -0.0984
vn -0.9953 -0.0000 -0.0971
vn -0.9351 -0.3536 -0.0255
vn -0.9351 0.3536 -0.0255
vn -0.9997 -0.0000 -0.0252
vn -0.6757 -0.6737 -0.2993
vn -0.8943 0.3375 -0.2937
vn -0.9353 0.3538 -0.0059
vn -1.0000 -0.0000 -0.0058
vn -0.9353 -0.3538 -0.0059
vn -0.7081 -0.7061 -0.0060
vn -0.7079 -0.7058 -0.0260
vn -0.7046 -0.7025 -0.1002
vn 0.9571 -0.0000 -0.2899
vn 0.9309 0.3518 -0.0984
vn 0.8943 0.3375 -0.2938
vn 0.9309 -0.3518 -0.0984
vn 0.9953 -0.0000 -0.0971
vn 0.9351 0.3536 -0.0255
vn 0.9351 -0.3536 -0.0255
vn 0.9997 -0.0000 -0.0252
vn 0.8943 -0.3375 -0.2938
vn 0.6757 -0.6737 -0.2993
vn 0.7046 -0.7025 -0.1002
vn 0.7079 -0.7058 -0.0260
vn 0.7081 -0.7061 -0.0060
vn 0.9353 -0.3538 -0.0059
vn 1.0000 -0.0000 -0.0058
vn 0.9353 0.3538 -0.0059
vn -0.0000 -0.9568 -0.2908
vn 0.3537 -0.9301 -0.0986
vn 0.3393 -0.8934 -0.2944
vn -0.3537 -0.9301 -0.0986
vn -0.0000 -0.9952 -0.0974
vn 0.3555 -0.9343 -0.0256
vn -0.3555 -0.9343 -0.0256
vn -0.0000 -0.9997 -0.0253
vn -0.3393 -0.8934 -0.2944
vn -0.3556 -0.9346 -0.0059
vn -0.0000 -1.0000 -0.0058
vn 0.3556 -0.9346 -0.0059
vn -0.7696 -0.2941 -0.5668
vn -0.9753 -0.0000 -0.2208
vn -0.8145 -0.0000 -0.5801
vn -0.7696 0.2941 -0.5668
vn -0.9111 -0.3470 -0.2226
vn -0.9885 -0.0000 0.1513
vn -0.9111 0.3470 -0.2226
vn -0.4455 -0.4440 -0.7774
vn -0.4975 -0.2221 -0.8385
vn -0.5149 -0.0000 -0.8572
vn -0.4975 0.2221 -0.8385
vn -0.4455 0.4440 -0.7774
vn -0.5969 0.5952 -0.5380
vn -0.9240 0.3508 0.1521
vn -0.6901 0.6882 -0.2238
vn -0.5574 0.5557 0.6169
vn -0.6997 0.6978 0.1531
vn -0.7374 0.2789 0.6152
vn -0.7374 -0.2789 0.6152
vn -0.9240 -0.3508 0.1521
vn -0.5574 -0.5557 0.6169
vn -0.6997 -0.6978 0.1531
vn -0.6901 -0.6882 -0.2238
vn -0.5969 -0.5952 -0.5380
vn -0.3537 0.9301 0.0986
vn -0.0000 0.9568 0.2908
vn -0.3393 0.8934 0.2944
vn 0.3537 0.9301 0.0986
vn 0.3393 0.8934 0.2944
vn -0.3555 0.9343 0.0256
vn -0.0000 0.9952 0.0974
vn 0.3555 0.9343 0.0256
vn -0.6757 0.6737 0.2993
vn -0.2424 0.6381 0.7308
vn -0.4772 0.4757 0.7389
vn -0.0000 0.6888 0.7250
vn 0.2424 0.6381 0.7308
vn 0.6757 0.6737 0.2993
vn 0.4772 0.4757 0.7389
vn 0.7046 0.7025 0.1002
vn 0.7079 0.7058 0.0260
vn 0.7081 0.7061 0.0060
vn -0.0000 0.9997 0.0253
vn 0.3556 0.9346 0.0059
vn -0.3556 0.9346 0.0059
vn -0.7081 0.7061 0.0060
vn -0.7079 0.7058 0.0260
vn -0.7046 0.7025 0.1002
vn 0.9111 -0.3470 -0.2226
vn 0.9885 -0.0000 0.1513
vn 0.9240 -0.3508 0.1521
vn 0.9111 0.3470 -0.2226
vn 0.9240 0.3508 0.1521
vn 0.7696 -0.2941 -0.5668
vn 0.9753 -0.0000 -0.2208
vn 0.7696 0.2941 -0.5668
vn 0.5574 -0.5557 0.6169
vn 0.7374 -0.2789 0.6152
vn 0.7897 -0.0000 0.6135
vn 0.7374 0.2789 0.6152
vn 0.5574 0.5557 0.6169
vn 0.6901 0.6882 -0.2238
vn 0.6997 0.6978 0.1531
vn 0.5969 0.5952 -0.5380
vn 0.4455 0.4440 -0.7774
vn 0.5149 -0.0000 -0.8572
vn 0.8145 -0.0000 -0.5801
vn 0.4455 -0.4440 -0.7774
vn 0.5969 -0.5952 -0.5380
vn 0.6901 -0.6882 -0.2238
vn 0.6997 -0.6978 0.1531
vn 0.2138 -0.2131 -0.9534
vn 0.2188 -0.0000 -0.9758
vn 0.2138 0.2131 -0.9534
vn -0.2138 -0.2131 -0.9534
vn -0.0000 -0.2181 -0.9759
vn -0.2138 0.2131 -0.9534
vn -0.0000 0.2181 -0.9759
vn 0.4975 -0.2221 -0.8385
vn 0.4975 0.2221 -0.8385
vn 0.2230 0.4964 -0.8390
vn -0.2230 0.4964 -0.8390
vn -0.0000 0.5139 -0.8579
vn -0.2188 -0.0000 -0.9758
vn -0.2230 -0.4963 -0.8390
vn -0.0000 -0.5139 -0.8579
vn 0.2230 -0.4964 -0.8390
vn -0.3487 -0.9103 -0.2231
vn -0.0000 -0.9884 0.1517
vn -0.3525 -0.9233 0.1524
vn 0.3487 -0.9103 -0.2231
vn 0.3525 -0.9233 0.1524
vn -0.2955 -0.7684 -0.5676
vn -0.0000 -0.9752 -0.2214
vn 0.2955 -0.7684 -0.5676
vn -0.2802 -0.7364 0.6158
vn -0.0000 -0.7891 0.6143
vn 0.2802 -0.7364 0.6158
vn -0.0000 -0.8138 -0.5812
vn 0.3487 0.9103 -0.2231
vn -0.0000 0.9884 0.1517
vn 0.3525 0.9233 0.1524
vn -0.3487 0.9103 -0.2231
vn -0.3525 0.9233 0.1524
vn 0.2955 0.7684 -0.5676
vn -0.0000 0.9752 -0.2214
vn -0.2955 0.7684 -0.5676
vn 0.2802 0.7364 0.6158
vn -0.0000 0.7891 0.6143
vn -0.2802 0.7364 0.6158
vn -0.0000 0.8138 -0.5812
vn -0.1605 0.0617 0.9851
vn 0.0074 -0.0000 1.0000
vn -0.1772 -0.0000 0.9842
vn -0.1605 -0.0617 0.9851
vn 0.0065 -0.0026 1.0000
vn -0.3059 -0.0000 0.9521
vn 0.0065 0.0026 1.0000
vn -0.6394 0.2414 0.7300
vn -0.6898 -0.0000 0.7240
vn -0.6394 -0.2414 0.7300
vn -0.4772 -0.4757 0.7389
vn -0.1162 -0.1160 0.9864
vn -0.2872 -0.1070 0.9519
vn 0.0045 0.0045 1.0000
vn -0.2182 -0.2173 0.9514
vn -0.7897 -0.0000 0.6135
vn -0.2872 0.1070 0.9519
vn -0.2182 0.2173 0.9514
vn 0.0045 -0.0045 1.0000
vn -0.1162 0.1160 0.9864
vn -0.0617 -0.1600 0.9852
vn -0.0000 0.0074 1.0000
vn -0.0000 -0.1766 0.9843
vn 0.0617 -0.1600 0.9852
vn 0.0026 0.0065 1.0000
vn -0.0000 -0.3053 0.9522
vn -0.0026 0.0065 1.0000
vn -0.2424 -0.6381 0.7308
vn -0.0000 -0.6888 0.7250
vn 0.2424 -0.6381 0.7308
vn 0.4772 -0.4757 0.7389
vn 0.1162 -0.1160 0.9864
vn 0.1075 -0.2865 0.9520
vn -0.0045 0.0045 1.0000
vn 0.2182 -0.2173 0.9514
vn -0.1075 -0.2865 0.9520
vn 0.0617 0.1600 0.9852
vn -0.0000 -0.0074 1.0000
vn -0.0000 0.1766 0.9843
vn -0.0617 0.1600 0.9852
vn -0.0026 -0.0065 1.0000
vn -0.0000 0.3053 0.9522
vn 0.0026 -0.0065 1.0000
vn -0.1075 0.2865 0.9520
vn 0.1075 0.2865 0.9520
vn 0.2182 0.2173 0.9514
vn -0.0045 -0.0045 1.0000
vn 0.1162 0.1160 0.9864
vn 0.1605 -0.0617 0.9851
vn -0.0074 -0.0000 1.0000
vn 0.1772 -0.0000 0.9842
vn 0.1605 0.0617 0.9851
vn -0.0065 0.0026 1.0000
vn 0.3059 -0.0000 0.9521
vn -0.0065 -0.0026 1.0000
vn 0.6394 -0.2414 0.7300
vn 0.6898 -0.0000 0.7240
vn 0.6394 0.2414 0.7300
vn 0.2872 0.1070 0.9519
vn 0.2872 -0.1070 0.9519
vn -0.9309 -0.3518 0.0984
vn -0.9571 -0.0000 0.2899
vn -0.8943 -0.3375 0.2938
vn -0.9309 0.3518 0.0984
vn -0.8943 0.3375 0.2937
vn -0.9351 -0.3536 0.0255
vn -0.9953 -0.0000 0.0971
vn -0.9351 0.3536 0.0255
vn -0.6757 -0.6737 0.2993
vn -0.9997 -0.0000 0.0252
vn -0.9353 0.3538 0.0059
vn -0.9353 -0.3538 0.0059
vn -0.7081 -0.7061 0.0060
vn -0.7079 -0.7058 0.0260
vn -0.7046 -0.7025 0.1002
vn 0.9309 0.3518 0.0984
vn 0.9571 -0.0000 0.2899
vn 0.8943 0.3375 0.2938
vn 0.9309 -0.3518 0.0984
vn 0.8943 -0.3375 0.2938
vn 0.9351 0.3536 0.0255
vn 0.9953 -0.0000 0.0971
vn 0.9351 -0.3536 0.0255
vn 0.6757 -0.6737 0.2993
vn 0.7046 -0.7025 0.1002
vn 0.7079 -0.7058 0.0260
vn 0.7081 -0.7061 0.0060
vn 0.9997 -0.0000 0.0252
vn 0.9353 -0.3538 0.0059
vn 0.9353 0.3538 0.0059
vn 0.3537 -0.9301 0.0986
vn -0.0000 -0.9568 0.2908
vn 0.3393 -0.8934 0.2944
vn -0.3537 -0.9301 0.0986
vn -0.3393 -0.8934 0.2944
vn 0.3555 -0.9343 0.0256
vn -0.0000 -0.9952 0.0974
vn -0.3555 -0.9343 0.0256
vn -0.0000 -0.9997 0.0253
vn -0.3556 -0.9346 0.0059
vn 0.3556 -0.9346 0.0059
vn -0.6997 0.6978 -0.1531
vn -0.0000 1.0000 0.0058
vn -1.0000 -0.0000 0.0058
vn 1.0000 -0.0000 0.0058
vn -0.0000 -1.0000 0.0058
vt 0.588457 0.964004
vt 0.468828 0.687804
vt 0.588457 0.687805
vt 0.612862 0.964004
vt 0.444423 0.687804
vt 0.612862 0.687804
vt 0.468828 0.910124
vt 0.588457 0.741685
vt 0.588457 0.910124
vt 0.444423 0.964004
vt 0.468828 0.964004
vt 0.588457 0.687804
vt 0.468828 0.687805
vt 0.468828 0.741685
vt 0.468828 0.723242
vt 0.450386 0.741684
vt 0.468828 0.723242
vt 0.468828 0.741685
vt 0.450386 0.741684
vt 0.468828 0.910124
vt 0.450386 0.910124
vt 0.468828 0.928566
vt 0.468828 0.928566
vt 0.450386 0.910124
vt 0.588457 0.741685
vt 0.606899 0.741684
vt 0.588457 0.723242
vt 0.588457 0.910124
vt 0.588457 0.928566
vt 0.606899 0.910124
vt 0.606899 0.910124
vt 0.468828 0.964004
vt 0.450386 0.687804
vt 0.450386 0.964004
vt 0.631304 0.964004
vt 0.425980 0.687804
vt 0.425981 0.964004
vt 0.085070 1.000000
vt 0.015812 0.070411
vt 0.085070 0.070411
vt 0.565543 1.000000
vt 0.086429 0.070411
vt 0.565543 0.070411
vt 0.015812 1.000000
vt 0.086429 1.000000
vt 0.086429 0.000000
vt 0.565543 0.000000
vt 0.043959 0.996302
vt 0.010319 0.706822
vt 0.043959 0.706822
vt 0.097015 0.000000
vt 0.000000 0.000000
vt 0.000000 0.070411
vt 0.097015 0.070411
vt 0.782853 0.311528
vt 0.802949 0.330859
vt 0.782853 0.331121
vt 0.823045 0.311528
vt 0.802949 0.311495
vt 0.802949 0.348812
vt 0.782975 0.349675
vt 0.823045 0.331121
vt 0.762757 0.291504
vt 0.762757 0.311600
vt 0.802949 0.291504
vt 0.782853 0.291504
vt 0.843141 0.291504
vt 0.823045 0.291504
vt 0.843141 0.311600
vt 0.843141 0.331696
vt 0.822922 0.349675
vt 0.843140 0.371888
vt 0.821726 0.365646
vt 0.802949 0.363943
vt 0.784172 0.365646
vt 0.762757 0.371888
vt 0.762757 0.351792
vt 0.762757 0.331696
vt 0.822637 0.412080
vt 0.820827 0.404244
vt 0.821314 0.404215
vt 0.820827 0.419915
vt 0.821966 0.412080
vt 0.821469 0.403496
vt 0.821469 0.420663
vt 0.822219 0.412080
vt 0.822922 0.403554
vt 0.817312 0.397716
vt 0.818538 0.396490
vt 0.824384 0.412080
vt 0.821315 0.419944
vt 0.822922 0.420605
vt 0.817312 0.426443
vt 0.817133 0.426264
vt 0.818348 0.427479
vt 0.822971 0.432102
vt 0.822971 0.422091
vt 0.822971 0.412080
vt 0.822971 0.402068
vt 0.822971 0.392057
vt 0.818348 0.396680
vt 0.817133 0.397895
vt 0.802949 0.475347
vt 0.782853 0.493064
vt 0.782975 0.474540
vt 0.823044 0.493064
vt 0.802949 0.493300
vt 0.782853 0.512634
vt 0.823045 0.512634
vt 0.802949 0.512664
vt 0.762757 0.452271
vt 0.762787 0.472981
vt 0.784172 0.458526
vt 0.821726 0.458526
vt 0.802949 0.460216
vt 0.843140 0.452271
vt 0.822922 0.474540
vt 0.843140 0.492672
vt 0.843141 0.512585
vt 0.843140 0.532655
vt 0.823045 0.532655
vt 0.802949 0.532655
vt 0.782853 0.532655
vt 0.762757 0.532655
vt 0.762757 0.512585
vt 0.762757 0.492672
vt 0.782853 0.552751
vt 0.802949 0.572847
vt 0.782853 0.572847
vt 0.823045 0.552751
vt 0.802949 0.552751
vt 0.782853 0.592943
vt 0.823045 0.592943
vt 0.802949 0.592943
vt 0.762757 0.552751
vt 0.843141 0.552751
vt 0.823045 0.572847
vt 0.843141 0.592943
vt 0.843141 0.613039
vt 0.823045 0.613039
vt 0.802949 0.613039
vt 0.782853 0.613039
vt 0.762757 0.613039
vt 0.762757 0.592943
vt 0.762757 0.572847
vt 0.722565 0.472367
vt 0.702469 0.492463
vt 0.702469 0.472367
vt 0.742661 0.492489
vt 0.722565 0.492463
vt 0.702469 0.512559
vt 0.742661 0.512562
vt 0.722565 0.512559
vt 0.682373 0.452271
vt 0.682373 0.472367
vt 0.702469 0.452271
vt 0.742661 0.452271
vt 0.722565 0.452271
vt 0.742661 0.472423
vt 0.742661 0.532655
vt 0.722565 0.532655
vt 0.702469 0.532655
vt 0.682373 0.532655
vt 0.682373 0.512559
vt 0.682373 0.492463
vt 0.883332 0.472367
vt 0.863236 0.492489
vt 0.863236 0.472423
vt 0.903428 0.492463
vt 0.883332 0.492463
vt 0.863236 0.512562
vt 0.903428 0.512559
vt 0.883332 0.512559
vt 0.843110 0.472981
vt 0.863236 0.452271
vt 0.903428 0.452271
vt 0.883332 0.452271
vt 0.923524 0.452271
vt 0.903428 0.472367
vt 0.923524 0.492463
vt 0.923524 0.512559
vt 0.923524 0.532655
vt 0.903428 0.532655
vt 0.883332 0.532655
vt 0.863236 0.532655
vt 0.812700 0.389279
vt 0.802949 0.382702
vt 0.814846 0.384566
vt 0.793198 0.389279
vt 0.802949 0.387629
vt 0.802949 0.375087
vt 0.818199 0.377082
vt 0.791051 0.384566
vt 0.820743 0.394259
vt 0.811474 0.392106
vt 0.794423 0.392106
vt 0.802949 0.390644
vt 0.787359 0.396490
vt 0.785154 0.394259
vt 0.781481 0.390402
vt 0.787699 0.377082
vt 0.775464 0.383950
vt 0.830433 0.383950
vt 0.824417 0.390402
vt 0.780223 0.402325
vt 0.774407 0.412080
vt 0.776036 0.400156
vt 0.780223 0.421834
vt 0.778603 0.412080
vt 0.768936 0.412080
vt 0.770124 0.396652
vt 0.776036 0.424003
vt 0.782975 0.403554
vt 0.782975 0.420605
vt 0.781513 0.412080
vt 0.787359 0.427669
vt 0.785154 0.429900
vt 0.781481 0.433757
vt 0.770124 0.427507
vt 0.775464 0.440209
vt 0.762757 0.432175
vt 0.762757 0.412080
vt 0.762757 0.391984
vt 0.825674 0.421834
vt 0.831490 0.412080
vt 0.829861 0.424003
vt 0.825674 0.402325
vt 0.827294 0.412080
vt 0.836962 0.412080
vt 0.835773 0.427507
vt 0.829861 0.400156
vt 0.818538 0.427669
vt 0.820743 0.429900
vt 0.835773 0.396652
vt 0.843141 0.391984
vt 0.843141 0.412080
vt 0.843141 0.432175
vt 0.830433 0.440209
vt 0.824417 0.433757
vt 0.793198 0.434880
vt 0.802949 0.441457
vt 0.791051 0.439593
vt 0.812700 0.434880
vt 0.802949 0.436530
vt 0.802949 0.449072
vt 0.787699 0.447077
vt 0.814846 0.439593
vt 0.794423 0.432053
vt 0.811474 0.432053
vt 0.802949 0.433515
vt 0.818199 0.447077
vt 0.802949 0.392391
vt 0.795113 0.394201
vt 0.795084 0.393714
vt 0.810784 0.394201
vt 0.802949 0.393062
vt 0.794365 0.393559
vt 0.811532 0.393559
vt 0.802949 0.392809
vt 0.788585 0.397716
vt 0.810813 0.393714
vt 0.812960 0.392057
vt 0.802949 0.392057
vt 0.792938 0.392057
vt 0.782926 0.392057
vt 0.787549 0.396680
vt 0.788764 0.397895
vt 0.802949 0.431768
vt 0.810784 0.429958
vt 0.810813 0.430445
vt 0.795113 0.429958
vt 0.802949 0.431097
vt 0.811532 0.430600
vt 0.794365 0.430600
vt 0.802949 0.431350
vt 0.795084 0.430445
vt 0.788585 0.426443
vt 0.788764 0.426264
vt 0.787549 0.427479
vt 0.782926 0.432102
vt 0.792938 0.432102
vt 0.802949 0.432102
vt 0.812960 0.432102
vt 0.783260 0.412080
vt 0.785070 0.419915
vt 0.784583 0.419944
vt 0.785070 0.404244
vt 0.783932 0.412080
vt 0.784428 0.420663
vt 0.784428 0.403496
vt 0.783678 0.412079
vt 0.784583 0.404215
vt 0.782926 0.402068
vt 0.782926 0.412080
vt 0.782926 0.422091
vt 0.843141 0.351792
vt 0.843141 0.572847
vt 0.923524 0.472367
vt 0.450386 0.964004
vt 0.450386 0.687804
vt 0.631304 0.687804
vt 0.010319 0.996302
s 0
usemtl Door01
f 17/1/1 2/2/1 15/3/1
f 23/4/2 14/5/2 21/6/2
f 10/7/3 16/8/3 22/9/3
f 6/10/4 8/6/4 3/5/4
f 11/11/5 20/12/5 9/13/5
f 1/14/6 2/15/6 3/16/6
f 4/17/7 5/18/7 6/19/7
f 7/20/8 8/21/8 9/22/8
f 10/7/9 11/23/9 12/24/9
f 13/25/10 14/26/10 15/27/10
f 16/8/11 17/27/11 18/26/11
f 19/28/12 20/29/12 21/30/12
f 22/9/13 23/31/13 24/29/13
f 1/14/14 8/21/14 7/20/14
f 4/32/15 3/33/15 2/2/15
f 10/7/16 6/19/16 5/18/16
f 9/13/17 12/34/17 11/11/17
f 7/20/18 20/29/18 19/28/18
f 22/9/19 11/23/19 10/7/19
f 21/6/20 24/35/20 23/4/20
f 19/28/21 14/26/21 13/25/21
f 16/8/22 23/31/22 22/9/22
f 15/36/23 18/10/23 17/37/23
f 13/25/24 2/15/24 1/14/24
f 5/18/25 17/27/25 16/8/25
f 19/28/26 1/14/26 7/20/26
f 25/38/4 30/39/4 29/40/4
f 26/41/5 31/42/5 30/43/5
f 28/44/2 32/40/2 31/39/2
f 27/45/1 29/43/1 32/42/1
f 35/46/26 39/47/26 34/47/26
f 26/48/3 27/49/3 28/50/3
f 29/43/3 37/42/3 32/42/3
f 31/39/2 38/51/2 35/52/2
f 31/39/3 33/53/3 30/39/3
f 39/51/4 30/39/4 34/52/4
f 37/42/1 39/47/1 38/46/1
f 33/43/5 35/46/5 34/47/5
f 34/52/4 30/39/4 33/53/4
f 29/40/4 39/51/4 40/54/4
f 31/39/2 35/52/2 36/53/2
f 38/51/2 32/40/2 37/54/2
s 1
f 141/55/27 145/56/28 144/57/29
f 143/58/30 145/56/28 142/59/31
f 144/57/29 148/60/32 147/61/33
f 146/62/34 148/60/32 145/56/28
f 41/63/35 141/55/27 59/64/36
f 61/65/37 141/55/27 60/66/38
f 61/65/37 143/58/30 142/59/31
f 42/67/39 143/58/30 62/68/40
f 63/69/41 146/62/34 143/58/30
f 64/70/42 149/71/43 146/62/34
f 149/71/43 49/72/44 66/73/45
f 148/60/32 66/73/45 67/74/46
f 148/60/32 68/75/47 147/61/33
f 147/61/33 50/76/48 57/77/49
f 58/78/50 147/61/33 57/77/49
f 59/64/36 144/57/29 58/78/50
f 151/79/51 153/80/52 150/81/53
f 151/79/51 155/82/54 154/83/55
f 154/83/55 156/84/56 153/80/52
f 154/83/55 158/85/57 157/86/58
f 99/87/59 134/88/60 44/89/61
f 100/90/62 150/81/53 99/87/59
f 100/90/62 152/91/63 151/79/51
f 101/92/64 129/93/65 152/91/63
f 152/91/63 130/94/66 155/82/54
f 155/82/54 131/95/67 158/85/57
f 158/85/57 56/96/68 125/97/69
f 157/86/58 125/97/69 124/98/70
f 157/86/58 123/99/71 156/84/56
f 156/84/56 53/100/72 132/101/73
f 153/80/52 132/101/73 133/102/74
f 150/81/53 133/102/74 134/88/60
f 160/103/75 162/104/76 159/105/77
f 160/103/75 164/106/78 163/107/79
f 163/107/79 165/108/80 162/104/76
f 163/107/79 167/109/81 166/110/82
f 51/111/83 159/105/77 80/112/84
f 77/113/85 160/103/75 159/105/77
f 75/114/86 160/103/75 76/115/87
f 52/116/88 161/117/89 75/114/86
f 161/117/89 82/118/90 164/106/78
f 164/106/78 83/119/91 167/109/81
f 167/109/81 46/120/92 84/121/93
f 167/109/81 85/122/94 166/110/82
f 165/108/80 85/122/94 86/123/95
f 165/108/80 45/124/96 78/125/97
f 162/104/76 78/125/97 79/126/98
f 159/105/77 79/126/98 80/112/84
f 168/127/99 172/128/1 171/129/100
f 170/130/101 172/128/1 169/131/102
f 172/128/1 174/132/103 171/129/100
f 172/128/1 176/133/104 175/134/105
f 45/124/96 168/127/99 89/135/106
f 86/123/95 169/131/102 168/127/99
f 84/121/93 169/131/102 85/122/94
f 46/120/92 170/130/101 84/121/93
f 90/136/107 173/137/108 170/130/101
f 173/137/108 92/138/109 176/133/104
f 176/133/104 42/139/39 62/140/40
f 175/134/105 62/140/40 61/141/37
f 175/134/105 60/142/38 174/132/103
f 174/132/103 41/143/35 87/144/110
f 171/129/100 87/144/110 88/145/111
f 89/135/106 171/129/100 88/145/111
f 178/146/112 180/147/113 177/148/114
f 178/146/112 182/149/115 181/150/116
f 181/150/116 183/151/117 180/147/113
f 181/150/116 185/152/118 184/153/119
f 50/154/48 177/148/114 57/155/49
f 71/156/120 178/146/112 177/148/114
f 69/157/121 178/146/112 70/158/122
f 51/111/83 179/159/123 69/157/121
f 179/159/123 79/126/98 182/149/115
f 182/149/115 78/125/97 185/152/118
f 185/152/118 45/124/96 89/160/106
f 185/152/118 88/161/111 184/153/119
f 183/151/117 88/161/111 87/162/110
f 183/151/117 41/163/35 59/164/36
f 180/147/113 59/164/36 58/165/50
f 177/148/114 58/165/50 57/155/49
f 187/166/124 189/167/125 186/168/126
f 187/166/124 191/169/127 190/170/128
f 190/170/128 192/171/129 189/167/125
f 190/170/128 194/172/130 193/173/131
f 52/116/88 186/168/126 81/174/132
f 74/175/133 187/166/124 186/168/126
f 72/176/134 187/166/124 73/177/135
f 49/178/44 188/179/136 72/176/134
f 188/179/136 64/180/42 191/169/127
f 191/169/127 63/181/41 194/172/130
f 194/172/130 42/182/39 92/183/109
f 194/172/130 91/184/137 193/173/131
f 192/171/129 91/184/137 90/185/107
f 192/171/129 46/120/92 83/119/91
f 189/167/125 83/119/91 82/118/90
f 186/168/126 82/118/90 81/174/132
f 195/186/138 199/187/139 198/188/140
f 197/189/141 199/187/139 196/190/142
f 198/188/140 202/191/143 201/192/144
f 200/193/145 202/191/143 199/187/139
f 44/89/61 195/186/138 107/194/146
f 93/195/147 196/190/142 195/186/138
f 95/196/148 196/190/142 94/197/149
f 43/198/150 197/189/141 95/196/148
f 108/199/151 200/193/145 197/189/141
f 109/200/152 203/201/153 200/193/145
f 110/202/154 68/75/47 203/201/153
f 203/201/153 67/74/46 202/191/143
f 201/192/144 67/74/46 66/73/45
f 105/203/155 66/73/45 49/72/44
f 106/204/156 201/192/144 105/203/155
f 107/194/146 198/188/140 106/204/156
f 204/205/157 208/206/158 207/207/159
f 206/208/160 208/206/158 205/209/161
f 207/207/159 211/210/162 210/211/163
f 209/212/164 211/210/162 208/206/158
f 43/198/150 204/205/157 108/199/151
f 98/213/165 205/209/161 204/205/157
f 96/214/166 205/209/161 97/215/167
f 47/216/168 206/208/160 96/214/166
f 111/217/169 209/212/164 206/208/160
f 112/218/170 212/219/171 209/212/164
f 113/220/172 69/221/121 212/219/171
f 212/219/171 70/222/122 211/210/162
f 210/211/163 70/222/122 71/223/120
f 110/202/154 71/223/120 50/76/48
f 109/200/152 210/211/163 110/202/154
f 108/199/151 207/207/159 109/200/152
f 213/224/173 217/225/174 216/226/175
f 215/227/176 217/225/174 214/228/177
f 216/226/175 220/229/178 219/230/179
f 218/231/180 220/229/178 217/225/174
f 48/232/181 213/224/173 116/233/182
f 101/92/64 214/228/177 213/224/173
f 99/87/59 214/228/177 100/90/62
f 44/89/61 215/227/176 99/87/59
f 107/194/146 218/231/180 215/227/176
f 106/204/156 221/234/183 218/231/180
f 105/203/155 72/235/134 221/234/183
f 221/234/183 73/236/135 220/229/178
f 219/230/179 73/236/135 74/237/133
f 114/238/184 74/237/133 52/116/88
f 115/239/185 219/230/179 114/238/184
f 116/233/182 216/226/175 115/239/185
f 222/240/186 226/241/187 225/242/188
f 224/243/189 226/241/187 223/244/190
f 225/242/188 229/245/191 228/246/192
f 227/247/193 229/245/191 226/241/187
f 47/216/168 222/240/186 111/217/169
f 104/248/194 223/244/190 222/240/186
f 102/249/195 223/244/190 103/250/196
f 48/232/181 224/243/189 102/249/195
f 116/233/182 227/247/193 224/243/189
f 115/239/185 230/251/197 227/247/193
f 114/238/184 75/114/86 230/251/197
f 230/251/197 76/115/87 229/245/191
f 228/246/192 76/115/87 77/113/85
f 113/220/172 77/113/85 51/111/83
f 112/218/170 228/246/192 113/220/172
f 111/217/169 225/242/188 112/218/170
f 232/252/198 234/253/199 231/254/200
f 232/252/198 236/255/201 235/256/202
f 235/256/202 237/257/203 234/253/199
f 235/256/202 239/258/204 238/259/205
f 95/196/148 137/260/206 43/198/150
f 94/197/149 231/254/200 95/196/148
f 94/197/149 233/261/207 232/252/198
f 93/195/147 134/88/60 233/261/207
f 233/261/207 133/102/74 236/255/201
f 236/255/201 132/101/73 239/258/204
f 239/258/204 53/100/72 117/262/208
f 238/259/205 117/262/208 118/263/209
f 238/259/205 119/264/210 237/257/203
f 237/257/203 54/265/211 135/266/212
f 234/253/199 135/266/212 136/267/213
f 231/254/200 136/267/213 137/260/206
f 241/268/214 243/269/215 240/270/216
f 241/268/214 245/271/217 244/272/218
f 244/272/218 246/273/219 243/269/215
f 244/272/218 248/274/220 247/275/221
f 102/249/195 129/93/65 48/232/181
f 103/250/196 240/270/216 102/249/195
f 103/250/196 242/276/222 241/268/214
f 104/248/194 138/277/223 242/276/222
f 242/276/222 139/278/224 245/271/217
f 245/271/217 140/279/225 248/274/220
f 248/274/220 55/280/226 128/281/227
f 247/275/221 128/281/227 127/282/228
f 247/275/221 126/283/229 246/273/219
f 246/273/219 56/96/68 131/95/67
f 243/269/215 131/95/67 130/94/66
f 240/270/216 130/94/66 129/93/65
f 250/284/230 252/285/231 249/286/232
f 250/284/230 254/287/233 253/288/234
f 253/288/234 255/289/235 252/285/231
f 253/288/234 257/290/236 256/291/237
f 96/214/166 138/277/223 47/216/168
f 97/215/167 249/286/232 96/214/166
f 97/215/167 251/292/238 250/284/230
f 98/213/165 137/260/206 251/292/238
f 251/292/238 136/267/213 254/287/233
f 254/287/233 135/266/212 257/290/236
f 257/290/236 54/265/211 122/293/239
f 256/291/237 122/293/239 121/294/240
f 256/291/237 120/295/241 255/289/235
f 255/289/235 55/280/226 140/279/225
f 252/285/231 140/279/225 139/278/224
f 249/286/232 139/278/224 138/277/223
f 358/55/242 362/56/243 359/59/244
f 362/56/243 360/58/245 359/59/244
f 361/57/246 365/60/247 362/56/243
f 365/60/247 363/62/248 362/56/243
f 258/63/249 358/55/242 277/66/250
f 358/55/242 278/65/251 277/66/250
f 278/65/251 360/58/245 279/68/252
f 360/58/245 259/67/253 279/68/252
f 363/62/248 280/69/254 360/58/245
f 366/71/255 281/70/256 363/62/248
f 366/71/255 266/72/257 282/296/258
f 365/60/247 283/73/259 366/71/255
f 285/75/260 365/60/247 364/61/261
f 267/76/262 364/61/261 274/77/263
f 275/78/264 364/61/261 361/57/246
f 276/64/265 361/57/246 358/55/242
f 370/80/266 368/79/267 367/81/268
f 368/79/267 372/82/269 369/91/270
f 373/84/271 371/83/272 370/80/266
f 371/83/272 375/85/273 372/82/269
f 351/88/274 316/87/275 261/89/276
f 367/81/268 317/90/277 316/87/275
f 317/90/277 369/91/270 318/92/278
f 318/92/278 346/93/279 265/232/280
f 369/91/270 347/94/281 346/93/279
f 372/82/269 348/95/282 347/94/281
f 375/85/273 273/96/283 348/95/282
f 374/86/284 342/97/285 375/85/273
f 340/99/286 374/86/284 373/84/271
f 270/100/287 373/84/271 349/101/288
f 349/101/288 370/80/266 350/102/289
f 350/102/289 367/81/268 351/88/274
f 379/104/290 377/103/291 376/105/292
f 377/103/291 381/106/293 378/117/294
f 382/108/295 380/107/296 379/104/290
f 380/107/296 384/109/297 381/106/293
f 268/111/298 376/105/292 294/113/299
f 294/113/299 377/103/291 293/115/300
f 377/103/291 292/114/301 293/115/300
f 378/117/294 269/116/302 292/114/301
f 378/117/294 299/118/303 298/174/304
f 381/106/293 300/119/305 299/118/303
f 384/109/297 263/120/306 300/119/305
f 302/122/307 384/109/297 383/110/308
f 382/108/295 302/122/307 383/110/308
f 262/124/309 382/108/295 295/125/310
f 295/125/310 379/104/290 296/126/311
f 296/126/311 376/105/292 297/112/312
f 385/127/313 389/128/5 386/131/314
f 389/128/5 387/130/315 386/131/314
f 391/132/316 389/128/5 388/129/317
f 389/128/5 393/133/318 390/137/319
f 262/124/309 385/127/313 303/123/320
f 303/123/320 386/131/314 302/122/307
f 386/131/314 301/121/321 302/122/307
f 387/130/315 263/120/306 301/121/321
f 390/137/319 307/136/322 387/130/315
f 390/137/319 309/138/323 308/297/324
f 393/133/318 259/139/253 309/138/323
f 392/134/325 279/140/252 393/133/318
f 277/142/250 392/134/325 391/132/316
f 258/143/249 391/132/316 304/144/326
f 304/144/326 388/129/317 305/145/327
f 306/135/328 388/129/317 385/127/313
f 397/147/329 395/146/330 394/148/331
f 395/146/330 399/149/332 396/159/333
f 400/151/334 398/150/335 397/147/329
f 398/150/335 402/152/336 399/149/332
f 267/154/262 394/148/331 288/156/337
f 288/156/337 395/146/330 287/158/338
f 395/146/330 286/157/339 287/158/338
f 396/159/333 268/111/298 286/157/339
f 396/159/333 296/126/311 297/112/312
f 399/149/332 295/125/310 296/126/311
f 402/152/336 262/124/309 295/125/310
f 305/161/327 402/152/336 401/153/340
f 400/151/334 305/161/327 401/153/340
f 258/163/249 400/151/334 276/164/265
f 276/164/265 397/147/329 275/165/264
f 275/165/264 394/148/331 274/155/263
f 406/167/341 404/166/342 403/168/343
f 404/166/342 408/169/344 405/179/345
f 409/171/346 407/170/347 406/167/341
f 407/170/347 411/172/348 408/169/344
f 269/116/302 403/168/343 291/175/349
f 291/175/349 404/166/342 290/177/350
f 404/166/342 289/176/351 290/177/350
f 405/179/345 266/178/257 289/176/351
f 405/179/345 281/180/256 282/298/258
f 408/169/344 280/181/254 281/180/256
f 411/172/348 259/182/253 280/181/254
f 308/184/324 411/172/348 410/173/352
f 409/171/346 308/184/324 410/173/352
f 263/120/306 409/171/346 300/119/305
f 300/119/305 406/167/341 299/118/303
f 299/118/303 403/168/343 298/174/304
f 412/186/353 416/187/354 413/190/355
f 416/187/354 414/189/356 413/190/355
f 415/188/357 419/191/358 416/187/354
f 419/191/358 417/193/359 416/187/354
f 261/89/276 412/186/353 310/195/360
f 310/195/360 413/190/355 311/197/361
f 413/190/355 312/196/362 311/197/361
f 414/189/356 260/198/363 312/196/362
f 417/193/359 325/199/364 414/189/356
f 420/201/365 326/200/366 417/193/359
f 285/75/260 327/202/367 420/201/365
f 284/74/368 420/201/365 419/191/358
f 418/192/369 284/74/368 419/191/358
f 322/203/370 283/73/259 418/192/369
f 323/204/371 418/192/369 415/188/357
f 324/194/372 415/188/357 412/186/353
f 421/205/373 425/206/374 422/209/375
f 425/206/374 423/208/376 422/209/375
f 424/207/377 428/210/378 425/206/374
f 428/210/378 426/212/379 425/206/374
f 260/198/363 421/205/373 315/213/380
f 315/213/380 422/209/375 314/215/381
f 422/209/375 313/214/382 314/215/381
f 423/208/376 264/216/383 313/214/382
f 426/212/379 328/217/384 423/208/376
f 429/219/385 329/218/386 426/212/379
f 286/221/339 330/220/387 429/219/385
f 287/222/338 429/219/385 428/210/378
f 427/211/388 287/222/338 428/210/378
f 327/202/367 288/223/337 427/211/388
f 326/200/366 427/211/388 424/207/377
f 325/199/364 424/207/377 421/205/373
f 430/224/389 434/225/390 431/228/391
f 434/225/390 432/227/392 431/228/391
f 433/226/393 437/229/394 434/225/390
f 437/229/394 435/231/395 434/225/390
f 265/232/280 430/224/389 318/92/278
f 318/92/278 431/228/391 317/90/277
f 431/228/391 316/87/275 317/90/277
f 432/227/392 261/89/276 316/87/275
f 435/231/395 324/194/372 432/227/392
f 438/234/396 323/204/371 435/231/395
f 289/235/351 322/203/370 438/234/396
f 290/236/350 438/234/396 437/229/394
f 436/230/397 290/236/350 437/229/394
f 331/238/398 291/237/349 436/230/397
f 332/239/399 436/230/397 433/226/393
f 333/233/400 433/226/393 430/224/389
f 439/240/401 443/241/402 440/244/403
f 443/241/402 441/243/404 440/244/403
f 442/242/405 446/245/406 443/241/402
f 446/245/406 444/247/407 443/241/402
f 264/216/383 439/240/401 321/248/408
f 321/248/408 440/244/403 320/250/409
f 440/244/403 319/249/410 320/250/409
f 441/243/404 265/232/280 319/249/410
f 444/247/407 333/233/400 441/243/404
f 447/251/411 332/239/399 444/247/407
f 292/114/301 331/238/398 447/251/411
f 293/115/300 447/251/411 446/245/406
f 445/246/412 293/115/300 446/245/406
f 330/220/387 294/113/299 445/246/412
f 329/218/386 445/246/412 442/242/405
f 328/217/384 442/242/405 439/240/401
f 451/253/413 449/252/414 448/254/415
f 449/252/414 453/255/416 450/261/417
f 454/257/418 452/256/419 451/253/413
f 452/256/419 456/258/420 453/255/416
f 354/260/421 312/196/362 260/198/363
f 448/254/415 311/197/361 312/196/362
f 311/197/361 450/261/417 310/195/360
f 310/195/360 351/88/274 261/89/276
f 450/261/417 350/102/289 351/88/274
f 453/255/416 349/101/288 350/102/289
f 456/258/420 270/100/287 349/101/288
f 455/259/422 334/262/423 456/258/420
f 336/264/424 455/259/422 454/257/418
f 271/265/425 454/257/418 352/266/426
f 352/266/426 451/253/413 353/267/427
f 353/267/427 448/254/415 354/260/421
f 460/269/428 458/268/429 457/270/430
f 458/268/429 462/271/431 459/276/432
f 463/273/433 461/272/434 460/269/428
f 461/272/434 465/274/435 462/271/431
f 346/93/279 319/249/410 265/232/280
f 457/270/430 320/250/409 319/249/410
f 320/250/409 459/276/432 321/248/408
f 321/248/408 355/277/436 264/216/383
f 459/276/432 356/278/437 355/277/436
f 462/271/431 357/279/438 356/278/437
f 465/274/435 272/280/439 357/279/438
f 464/275/440 345/281/441 465/274/435
f 343/283/442 464/275/440 463/273/433
f 273/96/283 463/273/433 348/95/282
f 348/95/282 460/269/428 347/94/281
f 347/94/281 457/270/430 346/93/279
f 469/285/443 467/284/444 466/286/445
f 467/284/444 471/287/446 468/292/447
f 472/289/448 470/288/449 469/285/443
f 470/288/449 474/290/450 471/287/446
f 355/277/436 313/214/382 264/216/383
f 466/286/445 314/215/381 313/214/382
f 314/215/381 468/292/447 315/213/380
f 315/213/380 354/260/421 260/198/363
f 468/292/447 353/267/427 354/260/421
f 471/287/446 352/266/426 353/267/427
f 474/290/450 271/265/425 352/266/426
f 473/291/451 339/293/452 474/290/450
f 337/295/453 473/291/451 472/289/448
f 272/280/439 472/289/448 357/279/438
f 357/279/438 469/285/443 356/278/437
f 356/278/437 466/286/445 355/277/436
s 0
f 17/1/1 4/32/1 2/2/1
f 23/4/2 18/10/2 14/5/2
f 10/7/3 5/18/3 16/8/3
f 6/10/4 12/4/4 8/6/4
f 11/11/5 24/1/5 20/12/5
f 1/14/14 3/16/14 8/21/14
f 4/32/15 6/299/15 3/33/15
f 10/7/16 12/24/16 6/19/16
f 9/13/17 8/300/17 12/34/17
f 7/20/18 9/22/18 20/29/18
f 22/9/19 24/29/19 11/23/19
f 21/6/20 20/301/20 24/35/20
f 19/28/21 21/30/21 14/26/21
f 16/8/22 18/26/22 23/31/22
f 15/36/23 14/5/23 18/10/23
f 13/25/24 15/27/24 2/15/24
f 5/18/25 4/17/25 17/27/25
f 19/28/26 13/25/26 1/14/26
f 25/38/4 26/44/4 30/39/4
f 26/41/5 28/45/5 31/42/5
f 28/44/2 27/38/2 32/40/2
f 27/45/1 25/41/1 29/43/1
f 35/46/26 38/46/26 39/47/26
f 26/48/3 25/302/3 27/49/3
f 29/43/3 40/43/3 37/42/3
f 31/39/2 32/40/2 38/51/2
f 31/39/3 36/53/3 33/53/3
f 39/51/4 29/40/4 30/39/4
f 37/42/1 40/43/1 39/47/1
f 33/43/5 36/42/5 35/46/5
s 1
f 141/55/27 142/59/31 145/56/28
f 143/58/30 146/62/34 145/56/28
f 144/57/29 145/56/28 148/60/32
f 146/62/34 149/71/43 148/60/32
f 41/63/35 60/66/38 141/55/27
f 61/65/37 142/59/31 141/55/27
f 61/65/37 62/68/40 143/58/30
f 42/67/39 63/69/41 143/58/30
f 63/69/41 64/70/42 146/62/34
f 64/70/42 65/296/454 149/71/43
f 149/71/43 65/296/454 49/72/44
f 148/60/32 149/71/43 66/73/45
f 148/60/32 67/74/46 68/75/47
f 147/61/33 68/75/47 50/76/48
f 58/78/50 144/57/29 147/61/33
f 59/64/36 141/55/27 144/57/29
f 151/79/51 154/83/55 153/80/52
f 151/79/51 152/91/63 155/82/54
f 154/83/55 157/86/58 156/84/56
f 154/83/55 155/82/54 158/85/57
f 99/87/59 150/81/53 134/88/60
f 100/90/62 151/79/51 150/81/53
f 100/90/62 101/92/64 152/91/63
f 101/92/64 48/232/181 129/93/65
f 152/91/63 129/93/65 130/94/66
f 155/82/54 130/94/66 131/95/67
f 158/85/57 131/95/67 56/96/68
f 157/86/58 158/85/57 125/97/69
f 157/86/58 124/98/70 123/99/71
f 156/84/56 123/99/71 53/100/72
f 153/80/52 156/84/56 132/101/73
f 150/81/53 153/80/52 133/102/74
f 160/103/75 163/107/79 162/104/76
f 160/103/75 161/117/89 164/106/78
f 163/107/79 166/110/82 165/108/80
f 163/107/79 164/106/78 167/109/81
f 51/111/83 77/113/85 159/105/77
f 77/113/85 76/115/87 160/103/75
f 75/114/86 161/117/89 160/103/75
f 52/116/88 81/174/132 161/117/89
f 161/117/89 81/174/132 82/118/90
f 164/106/78 82/118/90 83/119/91
f 167/109/81 83/119/91 46/120/92
f 167/109/81 84/121/93 85/122/94
f 165/108/80 166/110/82 85/122/94
f 165/108/80 86/123/95 45/124/96
f 162/104/76 165/108/80 78/125/97
f 159/105/77 162/104/76 79/126/98
f 168/127/99 169/131/102 172/128/1
f 170/130/101 173/137/108 172/128/1
f 172/128/1 175/134/105 174/132/103
f 172/128/1 173/137/108 176/133/104
f 45/124/96 86/123/95 168/127/99
f 86/123/95 85/122/94 169/131/102
f 84/121/93 170/130/101 169/131/102
f 46/120/92 90/136/107 170/130/101
f 90/136/107 91/297/137 173/137/108
f 173/137/108 91/297/137 92/138/109
f 176/133/104 92/138/109 42/139/39
f 175/134/105 176/133/104 62/140/40
f 175/134/105 61/141/37 60/142/38
f 174/132/103 60/142/38 41/143/35
f 171/129/100 174/132/103 87/144/110
f 89/135/106 168/127/99 171/129/100
f 178/146/112 181/150/116 180/147/113
f 178/146/112 179/159/123 182/149/115
f 181/150/116 184/153/119 183/151/117
f 181/150/116 182/149/115 185/152/118
f 50/154/48 71/156/120 177/148/114
f 71/156/120 70/158/122 178/146/112
f 69/157/121 179/159/123 178/146/112
f 51/111/83 80/112/84 179/159/123
f 179/159/123 80/112/84 79/126/98
f 182/149/115 79/126/98 78/125/97
f 185/152/118 78/125/97 45/124/96
f 185/152/118 89/160/106 88/161/111
f 183/151/117 184/153/119 88/161/111
f 183/151/117 87/162/110 41/163/35
f 180/147/113 183/151/117 59/164/36
f 177/148/114 180/147/113 58/165/50
f 187/166/124 190/170/128 189/167/125
f 187/166/124 188/179/136 191/169/127
f 190/170/128 193/173/131 192/171/129
f 190/170/128 191/169/127 194/172/130
f 52/116/88 74/175/133 186/168/126
f 74/175/133 73/177/135 187/166/124
f 72/176/134 188/179/136 187/166/124
f 49/178/44 65/298/454 188/179/136
f 188/179/136 65/298/454 64/180/42
f 191/169/127 64/180/42 63/181/41
f 194/172/130 63/181/41 42/182/39
f 194/172/130 92/183/109 91/184/137
f 192/171/129 193/173/131 91/184/137
f 192/171/129 90/185/107 46/120/92
f 189/167/125 192/171/129 83/119/91
f 186/168/126 189/167/125 82/118/90
f 195/186/138 196/190/142 199/187/139
f 197/189/141 200/193/145 199/187/139
f 198/188/140 199/187/139 202/191/143
f 200/193/145 203/201/153 202/191/143
f 44/89/61 93/195/147 195/186/138
f 93/195/147 94/197/149 196/190/142
f 95/196/148 197/189/141 196/190/142
f 43/198/150 108/199/151 197/189/141
f 108/199/151 109/200/152 200/193/145
f 109/200/152 110/202/154 203/201/153
f 110/202/154 50/76/48 68/75/47
f 203/201/153 68/75/47 67/74/46
f 201/192/144 202/191/143 67/74/46
f 105/203/155 201/192/144 66/73/45
f 106/204/156 198/188/140 201/192/144
f 107/194/146 195/186/138 198/188/140
f 204/205/157 205/209/161 208/206/158
f 206/208/160 209/212/164 208/206/158
f 207/207/159 208/206/158 211/210/162
f 209/212/164 212/219/171 211/210/162
f 43/198/150 98/213/165 204/205/157
f 98/213/165 97/215/167 205/209/161
f 96/214/166 206/208/160 205/209/161
f 47/216/168 111/217/169 206/208/160
f 111/217/169 112/218/170 209/212/164
f 112/218/170 113/220/172 212/219/171
f 113/220/172 51/111/83 69/221/121
f 212/219/171 69/221/121 70/222/122
f 210/211/163 211/210/162 70/222/122
f 110/202/154 210/211/163 71/223/120
f 109/200/152 207/207/159 210/211/163
f 108/199/151 204/205/157 207/207/159
f 213/224/173 214/228/177 217/225/174
f 215/227/176 218/231/180 217/225/174
f 216/226/175 217/225/174 220/229/178
f 218/231/180 221/234/183 220/229/178
f 48/232/181 101/92/64 213/224/173
f 101/92/64 100/90/62 214/228/177
f 99/87/59 215/227/176 214/228/177
f 44/89/61 107/194/146 215/227/176
f 107/194/146 106/204/156 218/231/180
f 106/204/156 105/203/155 221/234/183
f 105/203/155 49/72/44 72/235/134
f 221/234/183 72/235/134 73/236/135
f 219/230/179 220/229/178 73/236/135
f 114/238/184 219/230/179 74/237/133
f 115/239/185 216/226/175 219/230/179
f 116/233/182 213/224/173 216/226/175
f 222/240/186 223/244/190 226/241/187
f 224/243/189 227/247/193 226/241/187
f 225/242/188 226/241/187 229/245/191
f 227/247/193 230/251/197 229/245/191
f 47/216/168 104/248/194 222/240/186
f 104/248/194 103/250/196 223/244/190
f 102/249/195 224/243/189 223/244/190
f 48/232/181 116/233/182 224/243/189
f 116/233/182 115/239/185 227/247/193
f 115/239/185 114/238/184 230/251/197
f 114/238/184 52/116/88 75/114/86
f 230/251/197 75/114/86 76/115/87
f 228/246/192 229/245/191 76/115/87
f 113/220/172 228/246/192 77/113/85
f 112/218/170 225/242/188 228/246/192
f 111/217/169 222/240/186 225/242/188
f 232/252/198 235/256/202 234/253/199
f 232/252/198 233/261/207 236/255/201
f 235/256/202 238/259/205 237/257/203
f 235/256/202 236/255/201 239/258/204
f 95/196/148 231/254/200 137/260/206
f 94/197/149 232/252/198 231/254/200
f 94/197/149 93/195/147 233/261/207
f 93/195/147 44/89/61 134/88/60
f 233/261/207 134/88/60 133/102/74
f 236/255/201 133/102/74 132/101/73
f 239/258/204 132/101/73 53/100/72
f 238/259/205 239/258/204 117/262/208
f 238/259/205 118/263/209 119/264/210
f 237/257/203 119/264/210 54/265/211
f 234/253/199 237/257/203 135/266/212
f 231/254/200 234/253/199 136/267/213
f 241/268/214 244/272/218 243/269/215
f 241/268/214 242/276/222 245/271/217
f 244/272/218 247/275/221 246/273/219
f 244/272/218 245/271/217 248/274/220
f 102/249/195 240/270/216 129/93/65
f 103/250/196 241/268/214 240/270/216
f 103/250/196 104/248/194 242/276/222
f 104/248/194 47/216/168 138/277/223
f 242/276/222 138/277/223 139/278/224
f 245/271/217 139/278/224 140/279/225
f 248/274/220 140/279/225 55/280/226
f 247/275/221 248/274/220 128/281/227
f 247/275/221 127/282/228 126/283/229
f 246/273/219 126/283/229 56/96/68
f 243/269/215 246/273/219 131/95/67
f 240/270/216 243/269/215 130/94/66
f 250/284/230 253/288/234 252/285/231
f 250/284/230 251/292/238 254/287/233
f 253/288/234 256/291/237 255/289/235
f 253/288/234 254/287/233 257/290/236
f 96/214/166 249/286/232 138/277/223
f 97/215/167 250/284/230 249/286/232
f 97/215/167 98/213/165 251/292/238
f 98/213/165 43/198/150 137/260/206
f 251/292/238 137/260/206 136/267/213
f 254/287/233 136/267/213 135/266/212
f 257/290/236 135/266/212 54/265/211
f 256/291/237 257/290/236 122/293/239
f 256/291/237 121/294/240 120/295/241
f 255/289/235 120/295/241 55/280/226
f 252/285/231 255/289/235 140/279/225
f 249/286/232 252/285/231 139/278/224
f 358/55/242 361/57/246 362/56/243
f 362/56/243 363/62/248 360/58/245
f 361/57/246 364/61/261 365/60/247
f 365/60/247 366/71/255 363/62/248
f 258/63/249 276/64/265 358/55/242
f 358/55/242 359/59/244 278/65/251
f 278/65/251 359/59/244 360/58/245
f 360/58/245 280/69/254 259/67/253
f 363/62/248 281/70/256 280/69/254
f 366/71/255 282/296/258 281/70/256
f 366/71/255 283/73/259 266/72/257
f 365/60/247 284/74/368 283/73/259
f 285/75/260 284/74/368 365/60/247
f 267/76/262 285/75/260 364/61/261
f 275/78/264 274/77/263 364/61/261
f 276/64/265 275/78/264 361/57/246
f 370/80/266 371/83/272 368/79/267
f 368/79/267 371/83/272 372/82/269
f 373/84/271 374/86/284 371/83/272
f 371/83/272 374/86/284 375/85/273
f 351/88/274 367/81/268 316/87/275
f 367/81/268 368/79/267 317/90/277
f 317/90/277 368/79/267 369/91/270
f 318/92/278 369/91/270 346/93/279
f 369/91/270 372/82/269 347/94/281
f 372/82/269 375/85/273 348/95/282
f 375/85/273 342/97/285 273/96/283
f 374/86/284 341/98/455 342/97/285
f 340/99/286 341/98/455 374/86/284
f 270/100/287 340/99/286 373/84/271
f 349/101/288 373/84/271 370/80/266
f 350/102/289 370/80/266 367/81/268
f 379/104/290 380/107/296 377/103/291
f 377/103/291 380/107/296 381/106/293
f 382/108/295 383/110/308 380/107/296
f 380/107/296 383/110/308 384/109/297
f 268/111/298 297/112/312 376/105/292
f 294/113/299 376/105/292 377/103/291
f 377/103/291 378/117/294 292/114/301
f 378/117/294 298/174/304 269/116/302
f 378/117/294 381/106/293 299/118/303
f 381/106/293 384/109/297 300/119/305
f 384/109/297 301/121/321 263/120/306
f 302/122/307 301/121/321 384/109/297
f 382/108/295 303/123/320 302/122/307
f 262/124/309 303/123/320 382/108/295
f 295/125/310 382/108/295 379/104/290
f 296/126/311 379/104/290 376/105/292
f 385/127/313 388/129/317 389/128/5
f 389/128/5 390/137/319 387/130/315
f 391/132/316 392/134/325 389/128/5
f 389/128/5 392/134/325 393/133/318
f 262/124/309 306/135/328 385/127/313
f 303/123/320 385/127/313 386/131/314
f 386/131/314 387/130/315 301/121/321
f 387/130/315 307/136/322 263/120/306
f 390/137/319 308/297/324 307/136/322
f 390/137/319 393/133/318 309/138/323
f 393/133/318 279/140/252 259/139/253
f 392/134/325 278/141/251 279/140/252
f 277/142/250 278/141/251 392/134/325
f 258/143/249 277/142/250 391/132/316
f 304/144/326 391/132/316 388/129/317
f 306/135/328 305/145/327 388/129/317
f 397/147/329 398/150/335 395/146/330
f 395/146/330 398/150/335 399/149/332
f 400/151/334 401/153/340 398/150/335
f 398/150/335 401/153/340 402/152/336
f 267/154/262 274/155/263 394/148/331
f 288/156/337 394/148/331 395/146/330
f 395/146/330 396/159/333 286/157/339
f 396/159/333 297/112/312 268/111/298
f 396/159/333 399/149/332 296/126/311
f 399/149/332 402/152/336 295/125/310
f 402/152/336 306/160/328 262/124/309
f 305/161/327 306/160/328 402/152/336
f 400/151/334 304/162/326 305/161/327
f 258/163/249 304/162/326 400/151/334
f 276/164/265 400/151/334 397/147/329
f 275/165/264 397/147/329 394/148/331
f 406/167/341 407/170/347 404/166/342
f 404/166/342 407/170/347 408/169/344
f 409/171/346 410/173/352 407/170/347
f 407/170/347 410/173/352 411/172/348
f 269/116/302 298/174/304 403/168/343
f 291/175/349 403/168/343 404/166/342
f 404/166/342 405/179/345 289/176/351
f 405/179/345 282/298/258 266/178/257
f 405/179/345 408/169/344 281/180/256
f 408/169/344 411/172/348 280/181/254
f 411/172/348 309/183/323 259/182/253
f 308/184/324 309/183/323 411/172/348
f 409/171/346 307/185/322 308/184/324
f 263/120/306 307/185/322 409/171/346
f 300/119/305 409/171/346 406/167/341
f 299/118/303 406/167/341 403/168/343
f 412/186/353 415/188/357 416/187/354
f 416/187/354 417/193/359 414/189/356
f 415/188/357 418/192/369 419/191/358
f 419/191/358 420/201/365 417/193/359
f 261/89/276 324/194/372 412/186/353
f 310/195/360 412/186/353 413/190/355
f 413/190/355 414/189/356 312/196/362
f 414/189/356 325/199/364 260/198/363
f 417/193/359 326/200/366 325/199/364
f 420/201/365 327/202/367 326/200/366
f 285/75/260 267/76/262 327/202/367
f 284/74/368 285/75/260 420/201/365
f 418/192/369 283/73/259 284/74/368
f 322/203/370 266/72/257 283/73/259
f 323/204/371 322/203/370 418/192/369
f 324/194/372 323/204/371 415/188/357
f 421/205/373 424/207/377 425/206/374
f 425/206/374 426/212/379 423/208/376
f 424/207/377 427/211/388 428/210/378
f 428/210/378 429/219/385 426/212/379
f 260/198/363 325/199/364 421/205/373
f 315/213/380 421/205/373 422/209/375
f 422/209/375 423/208/376 313/214/382
f 423/208/376 328/217/384 264/216/383
f 426/212/379 329/218/386 328/217/384
f 429/219/385 330/220/387 329/218/386
f 286/221/339 268/111/298 330/220/387
f 287/222/338 286/221/339 429/219/385
f 427/211/388 288/223/337 287/222/338
f 327/202/367 267/76/262 288/223/337
f 326/200/366 327/202/367 427/211/388
f 325/199/364 326/200/366 424/207/377
f 430/224/389 433/226/393 434/225/390
f 434/225/390 435/231/395 432/227/392
f 433/226/393 436/230/397 437/229/394
f 437/229/394 438/234/396 435/231/395
f 265/232/280 333/233/400 430/224/389
f 318/92/278 430/224/389 431/228/391
f 431/228/391 432/227/392 316/87/275
f 432/227/392 324/194/372 261/89/276
f 435/231/395 323/204/371 324/194/372
f 438/234/396 322/203/370 323/204/371
f 289/235/351 266/72/257 322/203/370
f 290/236/350 289/235/351 438/234/396
f 436/230/397 291/237/349 290/236/350
f 331/238/398 269/116/302 291/237/349
f 332/239/399 331/238/398 436/230/397
f 333/233/400 332/239/399 433/226/393
f 439/240/401 442/242/405 443/241/402
f 443/241/402 444/247/407 441/243/404
f 442/242/405 445/246/412 446/245/406
f 446/245/406 447/251/411 444/247/407
f 264/216/383 328/217/384 439/240/401
f 321/248/408 439/240/401 440/244/403
f 440/244/403 441/243/404 319/249/410
f 441/243/404 333/233/400 265/232/280
f 444/247/407 332/239/399 333/233/400
f 447/251/411 331/238/398 332/239/399
f 292/114/301 269/116/302 331/238/398
f 293/115/300 292/114/301 447/251/411
f 445/246/412 294/113/299 293/115/300
f 330/220/387 268/111/298 294/113/299
f 329/218/386 330/220/387 445/246/412
f 328/217/384 329/218/386 442/242/405
f 451/253/413 452/256/419 449/252/414
f 449/252/414 452/256/419 453/255/416
f 454/257/418 455/259/422 452/256/419
f 452/256/419 455/259/422 456/258/420
f 354/260/421 448/254/415 312/196/362
f 448/254/415 449/252/414 311/197/361
f 311/197/361 449/252/414 450/261/417
f 310/195/360 450/261/417 351/88/274
f 450/261/417 453/255/416 350/102/289
f 453/255/416 456/258/420 349/101/288
f 456/258/420 334/262/423 270/100/287
f 455/259/422 335/263/456 334/262/423
f 336/264/424 335/263/456 455/259/422
f 271/265/425 336/264/424 454/257/418
f 352/266/426 454/257/418 451/253/413
f 353/267/427 451/253/413 448/254/415
f 460/269/428 461/272/434 458/268/429
f 458/268/429 461/272/434 462/271/431
f 463/273/433 464/275/440 461/272/434
f 461/272/434 464/275/440 465/274/435
f 346/93/279 457/270/430 319/249/410
f 457/270/430 458/268/429 320/250/409
f 320/250/409 458/268/429 459/276/432
f 321/248/408 459/276/432 355/277/436
f 459/276/432 462/271/431 356/278/437
f 462/271/431 465/274/435 357/279/438
f 465/274/435 345/281/441 272/280/439
f 464/275/440 344/282/457 345/281/441
f 343/283/442 344/282/457 464/275/440
f 273/96/283 343/283/442 463/273/433
f 348/95/282 463/273/433 460/269/428
f 347/94/281 460/269/428 457/270/430
f 469/285/443 470/288/449 467/284/444
f 467/284/444 470/288/449 471/287/446
f 472/289/448 473/291/451 470/288/449
f 470/288/449 473/291/451 474/290/450
f 355/277/436 466/286/445 313/214/382
f 466/286/445 467/284/444 314/215/381
f 314/215/381 467/284/444 468/292/447
f 315/213/380 468/292/447 354/260/421
f 468/292/447 471/287/446 353/267/427
f 471/287/446 474/290/450 352/266/426
f 474/290/450 339/293/452 271/265/425
f 473/291/451 338/294/458 339/293/452
f 337/295/453 338/294/458 473/291/451
f 272/280/439 337/295/453 472/289/448
f 357/279/438 472/289/448 469/285/443
f 356/278/437 469/285/443 466/286/445
