# Blender 4.1.0
# www.blender.org
mtllib Hinge.001.mtl
o Hinge.001
v -0.536914 0.655862 -0.077939
v -0.536914 0.388918 -0.077939
v -0.572150 0.655862 -0.098283
v -0.572150 0.388918 -0.098283
v -0.572150 0.655862 -0.138971
v -0.572150 0.388918 -0.138971
v -0.536914 0.655862 -0.159315
v -0.536914 0.388918 -0.159315
v -0.501677 0.655862 -0.138971
v -0.501677 0.388918 -0.138971
v -0.501677 0.655862 -0.098283
v -0.501677 0.388918 -0.098283
v -0.536914 1.541499 -0.077939
v -0.536914 1.808443 -0.077939
v -0.572150 1.541499 -0.098283
v -0.572150 1.808443 -0.098283
v -0.572150 1.541499 -0.138971
v -0.572150 1.808443 -0.138971
v -0.536914 1.541499 -0.159315
v -0.536914 1.808443 -0.159315
v -0.501677 1.541499 -0.138971
v -0.501677 1.808443 -0.138971
v -0.501677 1.541499 -0.098283
v -0.501677 1.808443 -0.098283
vn 0.5000 -0.0000 -0.8660
vn 1.0000 -0.0000 -0.0000
vn 0.5000 -0.0000 0.8660
vn -0.5000 -0.0000 0.8660
vn -0.0000 1.0000 -0.0000
vn -1.0000 -0.0000 -0.0000
vn -0.5000 -0.0000 -0.8660
vn -0.0000 -1.0000 -0.0000
vt 0.140185 0.130512
vt 0.119897 0.069647
vt 0.140185 0.069647
vt 0.119897 0.130512
vt 0.099609 0.069647
vt 0.099609 0.130512
vt 0.079321 0.069647
vt 0.079321 0.130512
vt 0.059032 0.069647
vt 0.048888 0.068430
vt 0.023587 0.024608
vt 0.074189 0.024608
vt 0.059032 0.130512
vt 0.038744 0.069647
vt 0.038744 0.130512
vt 0.018456 0.069647
vt 0.135054 0.053823
vt 0.109753 0.010000
vt 0.084452 0.053823
vt 0.074189 0.053823
vt 0.023587 0.053823
vt 0.048888 0.010000
vt 0.018456 0.130512
vt 0.109753 0.068430
vt 0.135054 0.024608
vt 0.084452 0.024608
s 0
usemtl Door01
f 2/1/1 3/2/1 1/3/1
f 4/4/2 5/5/2 3/2/2
f 6/6/3 7/7/3 5/5/3
f 8/8/4 9/9/4 7/7/4
f 2/10/5 10/11/5 6/12/5
f 10/13/6 11/14/6 9/9/6
f 12/15/7 1/16/7 11/14/7
f 3/17/8 7/18/8 11/19/8
f 15/2/1 14/1/1 13/3/1
f 17/5/2 16/4/2 15/2/2
f 19/7/3 18/6/3 17/5/3
f 21/9/4 20/8/4 19/7/4
f 18/12/8 22/11/8 14/10/8
f 23/14/6 22/13/6 21/9/6
f 13/16/7 24/15/7 23/14/7
f 23/19/5 19/18/5 15/17/5
f 2/1/1 4/4/1 3/2/1
f 4/4/2 6/6/2 5/5/2
f 6/6/3 8/8/3 7/7/3
f 8/8/4 10/13/4 9/9/4
f 6/12/5 4/20/5 2/10/5
f 2/10/5 12/21/5 10/11/5
f 10/11/5 8/22/5 6/12/5
f 10/13/6 12/15/6 11/14/6
f 12/15/7 2/23/7 1/16/7
f 11/19/8 1/24/8 3/17/8
f 3/17/8 5/25/8 7/18/8
f 7/18/8 9/26/8 11/19/8
f 15/2/1 16/4/1 14/1/1
f 17/5/2 18/6/2 16/4/2
f 19/7/3 20/8/3 18/6/3
f 21/9/4 22/13/4 20/8/4
f 14/10/8 16/20/8 18/12/8
f 18/12/8 20/22/8 22/11/8
f 22/11/8 24/21/8 14/10/8
f 23/14/6 24/15/6 22/13/6
f 13/16/7 14/23/7 24/15/7
f 15/17/5 13/24/5 23/19/5
f 23/19/5 21/26/5 19/18/5
f 19/18/5 17/25/5 15/17/5
