# Blender 4.0.2
# www.blender.org
mtllib Paperback.mtl
o Paperback
v -0.069414 -0.011169 0.124101
v -0.069228 0.017766 0.123618
v -0.065163 -0.015655 -0.123473
v -0.069221 0.020262 -0.125287
v 0.067176 -0.010948 0.126637
v 0.067985 0.022037 0.124335
v 0.067227 -0.014197 -0.123128
v 0.071200 0.022532 -0.124973
v 0.034184 -0.012181 -0.122869
v 0.011522 -0.006825 -0.122270
v -0.028784 -0.011164 -0.122833
v -0.028011 0.028689 -0.125642
v 0.012011 0.029777 -0.126216
v 0.038358 0.026496 -0.125924
v -0.035871 -0.001761 0.124668
v -0.003436 0.002862 0.125750
v 0.030852 -0.000443 0.126464
v 0.036909 0.024910 0.123260
v 0.006422 0.026942 0.122104
v -0.029336 0.022154 0.122703
vn -0.9998 0.0061 -0.0173
vn -0.0125 -0.0774 -0.9969
vn 0.9997 -0.0245 0.0005
vn -0.0216 0.0168 0.9996
vn -0.2778 -0.9598 0.0415
vn -0.2001 0.9795 0.0247
vn 0.0919 0.9958 0.0032
vn 0.0663 0.9978 0.0067
vn -0.0270 0.9996 0.0108
vn 0.2697 -0.9627 0.0221
vn 0.1396 -0.9893 0.0416
vn -0.0965 -0.9948 0.0330
vn 0.0153 0.0692 0.9975
vn -0.0059 0.1521 0.9884
vn -0.0466 0.0945 0.9944
vn 0.0235 -0.0478 -0.9986
vn 0.0215 -0.0707 -0.9973
vn -0.0438 -0.0740 -0.9963
vn -0.9937 -0.1123 -0.0012
vn 0.0226 -0.0526 -0.9984
vn 0.9942 -0.1069 0.0126
vn 0.0143 0.0780 0.9969
vn -0.0608 -0.9981 0.0130
vn -0.1091 0.9940 0.0100
vn 0.1196 0.9928 0.0070
vn 0.1234 0.9923 0.0141
vn -0.1323 0.9909 0.0254
vn 0.1217 -0.9917 0.0412
vn 0.1063 -0.9933 0.0452
vn -0.2287 -0.9725 0.0427
vn -0.0222 0.1306 0.9912
vn -0.0288 0.1321 0.9908
vn -0.0037 0.1512 0.9885
vn 0.0058 -0.0704 -0.9975
vn -0.0113 -0.1070 -0.9942
vn -0.0023 -0.1072 -0.9942
vt 0.625000 0.000000
vt 0.375000 0.250000
vt 0.375000 0.000000
vt 0.625000 0.437500
vt 0.375000 0.500000
vt 0.375000 0.437500
vt 0.625000 0.750000
vt 0.375000 0.750000
vt 0.375000 0.937500
vt 0.625000 1.000000
vt 0.375000 1.000000
vt 0.312500 0.500000
vt 0.312500 0.750000
vt 0.875000 0.500000
vt 0.812500 0.750000
vt 0.812500 0.500000
vt 0.625000 0.500000
vt 0.687500 0.750000
vt 0.687500 0.500000
vt 0.750000 0.750000
vt 0.750000 0.500000
vt 0.125000 0.500000
vt 0.187500 0.750000
vt 0.125000 0.750000
vt 0.187500 0.500000
vt 0.250000 0.750000
vt 0.250000 0.500000
vt 0.375000 0.812500
vt 0.625000 0.875000
vt 0.375000 0.875000
vt 0.625000 0.937500
vt 0.625000 0.250000
vt 0.375000 0.312500
vt 0.625000 0.312500
vt 0.375000 0.375000
vt 0.875000 0.750000
vt 0.625000 0.812500
vt 0.625000 0.375000
s 0
f 2/1/1 3/2/1 1/3/1
f 14/4/2 7/5/2 9/6/2
f 7/5/3 6/7/3 5/8/3
f 15/9/4 2/10/4 1/11/4
f 9/12/5 5/8/5 17/13/5
f 4/14/6 20/15/6 12/16/6
f 8/17/7 18/18/7 6/7/7
f 14/19/8 19/20/8 18/18/8
f 12/16/9 19/20/9 13/21/9
f 3/22/10 15/23/10 1/24/10
f 11/25/11 16/26/11 15/23/11
f 10/27/12 17/13/12 16/26/12
f 6/7/13 17/28/13 5/8/13
f 17/28/14 19/29/14 16/30/14
f 16/30/15 20/31/15 15/9/15
f 4/32/16 11/33/16 3/2/16
f 12/34/17 10/35/17 11/33/17
f 10/35/18 14/4/18 9/6/18
f 2/1/19 4/32/19 3/2/19
f 14/4/20 8/17/20 7/5/20
f 7/5/21 8/17/21 6/7/21
f 15/9/22 20/31/22 2/10/22
f 9/12/23 7/5/23 5/8/23
f 4/14/24 2/36/24 20/15/24
f 8/17/25 14/19/25 18/18/25
f 14/19/26 13/21/26 19/20/26
f 12/16/27 20/15/27 19/20/27
f 3/22/28 11/25/28 15/23/28
f 11/25/29 10/27/29 16/26/29
f 10/27/30 9/12/30 17/13/30
f 6/7/31 18/37/31 17/28/31
f 17/28/32 18/37/32 19/29/32
f 16/30/33 19/29/33 20/31/33
f 4/32/34 12/34/34 11/33/34
f 12/34/35 13/38/35 10/35/35
f 10/35/36 13/38/36 14/4/36
