# Blender 4.0.2
# www.blender.org
mtllib Chainsaw.mtl
o Chainsaw
v 0.082234 0.092819 -0.027057
v 0.082234 -0.038009 -0.027057
v 0.082234 0.050433 0.601923
v 0.082234 0.092819 0.544216
v 0.082234 0.080404 0.581872
v 0.082234 -0.038009 0.544216
v 0.082234 0.004378 0.601923
v 0.082234 -0.025594 0.581872
v 0.034711 0.092819 -0.027057
v 0.034711 -0.038009 -0.027057
v 0.034711 0.050433 0.601923
v 0.034711 0.092819 0.544216
v 0.034711 0.080404 0.581872
v 0.034711 -0.038009 0.544216
v 0.034711 0.004378 0.601923
v 0.034711 -0.025594 0.581872
vn -0.0000 -0.7962 0.6050
vn -0.0000 -0.9873 0.1586
vn 1.0000 -0.0000 -0.0000
vn -0.0000 0.2906 0.9569
vn -0.0000 -0.2906 0.9569
vn -0.0000 -1.0000 -0.0000
vn -0.0000 1.0000 -0.0000
vn -0.0000 0.9873 0.1586
vn -1.0000 -0.0000 -0.0000
vn -0.0000 -0.0000 -1.0000
vn -0.0000 0.7962 0.6050
vt 0.905106 0.018006
vt 1.000000 0.061477
vt 0.676013 0.000000
vt 0.000000 0.061477
vt 0.323987 0.000000
vt 1.000000 1.000000
vt 0.000000 1.000000
vt 0.094894 0.018006
s 1
f 16/1/1 6/2/2 8/1/1
f 7/3/3 4/4/3 3/5/3
f 11/5/4 7/3/5 3/5/4
f 14/2/2 2/6/6 6/2/2
f 9/7/7 4/4/8 1/7/7
f 15/3/5 8/1/1 7/3/5
f 11/5/9 14/2/9 15/3/9
f 10/6/10 1/7/10 2/6/10
f 10/6/9 12/4/9 9/7/9
f 13/8/11 3/5/4 5/8/11
f 4/4/3 5/8/3 3/5/3
f 7/3/3 8/1/3 6/2/3
f 13/8/9 12/4/9 11/5/9
f 4/4/8 13/8/11 5/8/11
f 14/2/9 16/1/9 15/3/9
f 4/4/3 2/6/3 1/7/3
f 16/1/1 14/2/2 6/2/2
f 7/3/3 6/2/3 4/4/3
f 11/5/4 15/3/5 7/3/5
f 14/2/2 10/6/6 2/6/6
f 9/7/7 12/4/8 4/4/8
f 15/3/5 16/1/1 8/1/1
f 11/5/9 12/4/9 14/2/9
f 10/6/10 9/7/10 1/7/10
f 10/6/9 14/2/9 12/4/9
f 13/8/11 11/5/4 3/5/4
f 4/4/8 12/4/8 13/8/11
f 4/4/3 6/2/3 2/6/3
o Cube
v -0.036422 -0.078730 0.031717
v -0.041556 -0.078848 0.027113
v -0.034996 -0.083333 0.027100
v -0.036968 0.123560 0.032311
v -0.035532 0.126268 0.027716
v -0.041556 0.121782 0.027703
v 0.074607 -0.047943 -0.360066
v 0.072939 -0.053070 -0.355493
v 0.069057 -0.048430 -0.355561
v 0.074607 0.028070 -0.360066
v 0.069057 0.029898 -0.355561
v 0.074153 0.034859 -0.356014
v 0.150436 -0.078730 0.031717
v 0.151337 -0.083333 0.027100
v 0.155940 -0.078730 0.027114
v 0.150400 0.123636 0.032311
v 0.155940 0.121664 0.027702
v 0.151337 0.126268 0.027716
v 0.151337 -0.047943 -0.360066
v 0.155940 -0.048526 -0.355463
v 0.151337 -0.053166 -0.355505
v 0.151337 0.028070 -0.360066
v 0.151337 0.034859 -0.356014
v 0.155940 0.029926 -0.355463
v -0.041556 -0.078848 -0.129075
v -0.038355 -0.078278 -0.136934
v -0.034959 -0.083333 -0.133691
v -0.041556 0.121782 -0.128485
v -0.035516 0.126268 -0.133075
v -0.038366 0.121167 -0.136358
v 0.151337 -0.083333 -0.132793
v 0.155940 -0.078730 -0.133379
v 0.151337 0.126268 -0.133075
v 0.155940 0.121664 -0.132647
v 0.040477 0.103238 -0.219617
v 0.036315 0.106847 -0.211818
v 0.044544 0.110874 -0.215113
v 0.036303 -0.065104 -0.211830
v 0.040477 -0.064022 -0.219617
v 0.042894 -0.069580 -0.212760
v 0.155940 0.106482 -0.213558
v 0.151337 0.110874 -0.215113
v -0.064641 0.021467 0.027408
v -0.059973 0.023685 0.032018
v 0.074607 -0.009936 -0.360066
v 0.069057 -0.008980 -0.355561
v 0.151337 -0.009936 -0.360066
v 0.155940 -0.008959 -0.355463
v -0.064641 0.021467 -0.128780
v -0.060961 0.021445 -0.136270
v 0.040477 0.020851 -0.219617
v 0.035909 0.020873 -0.212271
v 0.051875 0.046514 -0.251602
v 0.050994 0.039394 -0.247748
v 0.045444 0.046518 -0.243243
v 0.051875 0.046514 -0.251602
v 0.047557 0.053080 -0.253291
v 0.053585 0.047180 -0.259671
v 0.045444 0.014876 -0.243243
v 0.050994 0.013920 -0.247748
v 0.064517 0.018582 -0.311923
v 0.061382 0.016547 -0.319054
v 0.065026 0.010135 -0.314491
v 0.065043 -0.000274 -0.314573
v 0.061401 -0.001245 -0.319146
v 0.063947 0.022696 -0.309212
v 0.062582 0.028391 -0.302465
v 0.059928 0.027167 -0.312135
v 0.151337 0.046514 -0.251602
v 0.151337 0.047180 -0.259671
v 0.155940 0.053122 -0.253302
v 0.155940 0.013920 -0.243145
v 0.151337 0.013920 -0.247748
v 0.151337 0.039394 -0.247748
v 0.151337 0.046514 -0.251602
v 0.155940 0.046488 -0.243145
v 0.151337 0.028391 -0.302465
v 0.151337 0.022696 -0.309212
v 0.155940 0.027177 -0.312222
v 0.151337 -0.000274 -0.314573
v 0.155940 -0.001261 -0.319219
v 0.155940 0.016576 -0.319129
v 0.151337 0.018582 -0.311923
v 0.151337 0.010135 -0.314491
v 0.151337 -0.013551 -0.314679
v 0.151337 -0.021678 -0.311753
v 0.155940 -0.021655 -0.319331
v 0.155940 -0.031492 -0.243163
v 0.151337 -0.032297 -0.251260
v 0.151337 -0.024718 -0.247748
v 0.155940 -0.040247 -0.253497
v 0.151337 -0.035600 -0.260592
v 0.151337 -0.033381 -0.252540
v 0.151337 -0.024432 -0.309439
v 0.151337 -0.028712 -0.301937
v 0.155940 -0.030462 -0.311941
v 0.050994 -0.024718 -0.247748
v 0.051792 -0.032297 -0.251260
v 0.045444 -0.031484 -0.243243
v 0.052061 -0.033381 -0.252540
v 0.053793 -0.035600 -0.260592
v 0.047606 -0.040194 -0.253524
v 0.062485 -0.028712 -0.301937
v 0.064006 -0.024432 -0.309439
v 0.059870 -0.030425 -0.311860
v 0.061426 -0.021602 -0.319262
v 0.064492 -0.021678 -0.311753
v 0.065065 -0.013551 -0.314679
vn -0.0000 -0.0000 -1.0000
vn -0.9786 -0.0000 -0.2057
vn 0.0008 -0.9853 -0.1706
vn -0.0000 -0.5501 0.8351
vn 1.0000 -0.0000 -0.0000
vn -0.0000 0.9828 -0.1844
vn -0.0000 1.0000 -0.0000
vn -0.0000 -0.0029 1.0000
vn -0.0000 -0.0079 1.0000
vn -0.0000 -0.9156 0.4020
vn -0.0000 0.6434 0.7655
vn -0.0000 0.9864 0.1643
vn -0.0000 0.7630 -0.6464
vn -0.7076 -0.0069 -0.7066
vn -0.6109 0.1377 -0.7797
vn -0.9745 0.2243 -0.0000
vn -0.0000 0.8801 -0.4748
vn -0.0267 -0.9906 -0.1342
vn -0.9745 -0.2243 -0.0000
vn -0.4726 -0.6928 0.5447
vn -0.5746 0.7709 0.2747
vn -0.5354 -0.4584 -0.7093
vn -0.4819 0.4250 -0.7662
vn 0.5394 -0.5413 0.6450
vn 0.6206 0.6192 0.4811
vn 0.5565 -0.5465 -0.6258
vn 0.5462 0.4292 -0.7193
vn -0.6763 -0.6618 -0.3234
vn -0.7128 0.6151 -0.3369
vn -0.5337 0.6222 -0.5727
vn -0.5532 -0.7318 -0.3981
vn -0.7721 -0.2260 -0.5940
vn -0.7897 -0.5747 -0.2148
vn -0.8787 -0.1866 0.4394
vn -0.7980 -0.5303 0.2862
vn 0.8138 -0.5792 -0.0478
vn 0.8499 -0.2508 -0.4634
vn 0.7590 -0.4976 0.4200
vn 0.8079 -0.1714 0.5638
vn 0.8399 0.1838 0.5107
vn 0.8359 0.2308 -0.4981
vn 0.8103 0.5649 -0.1557
vn 0.8152 0.5031 0.2870
vn -0.7565 0.2078 -0.6201
vn -0.7719 0.5506 -0.3178
vn -0.8399 0.5269 0.1303
vn -0.9067 0.1980 0.3723
vn -0.0000 -0.7081 0.7061
vn -0.0003 0.8616 0.5076
vn -0.0009 -0.6654 -0.7465
vn -0.0000 0.5124 -0.8587
vn -0.5645 -0.8254 -0.0000
vn -0.5972 0.8021 -0.0000
vn -0.6384 0.6133 -0.4651
vn -0.4582 -0.6771 -0.5758
vn 0.7071 0.6950 -0.1304
vn -0.7301 0.1662 0.6628
vn -0.6302 -0.0000 -0.7764
vn -0.8809 0.0067 -0.4732
vn -0.8673 -0.0000 -0.4978
vn -0.7866 -0.4090 0.4625
vn -0.0000 -0.9966 -0.0823
vn 0.7071 -0.0000 -0.7071
vn 0.5304 -0.7762 0.3408
vn 0.7097 -0.0056 0.7045
vn 0.7084 0.5385 -0.4562
vn 0.7828 0.4000 0.4767
vn -0.6501 0.5069 -0.5661
vn -0.5872 0.8094 0.0121
vn -0.7815 -0.0062 0.6239
vn -0.0000 0.8686 0.4956
vn -0.6578 -0.1535 0.7374
vn 0.7071 -0.7071 -0.0000
vn -0.7450 -0.6267 -0.2285
vn -0.5337 -0.8096 0.2443
vn 0.7071 0.7071 -0.0000
vn -0.0000 -0.4760 -0.8794
vn -0.7842 -0.0040 0.6205
vn 0.7071 -0.7007 -0.0953
vn 0.7071 0.6223 -0.3357
vn -0.4760 0.6484 -0.5942
vn 0.6391 -0.0021 0.7691
vn -0.0000 -0.2909 0.9567
vn -0.0000 -0.7642 0.6450
vn -0.9019 -0.2019 -0.3819
vn -0.9017 0.2040 -0.3813
vn 0.7342 -0.3735 0.5669
vn -0.8321 0.4355 0.3433
vn 0.1801 -0.0000 -0.9836
vn -0.8810 -0.0065 -0.4731
vn -0.0000 0.4205 -0.9073
vn 0.5962 0.7919 0.1319
vn -0.0000 0.3387 0.9409
vn -0.0000 0.9641 -0.2657
vn -0.0000 -1.0000 -0.0000
vn -0.6122 -0.1336 -0.7793
vn -0.7101 0.0071 -0.7041
vn -0.0000 -0.0000 1.0000
vn -0.0012 -0.9933 -0.1152
vn -0.0000 0.8678 0.4970
vn -0.0000 -0.6577 -0.7532
vn -0.5624 -0.8269 -0.0001
vn -0.5963 0.8028 -0.0001
vn -0.6376 0.6141 -0.4653
vn -0.5044 -0.6171 -0.6040
vn -0.7318 0.1665 0.6609
vn -0.8492 -0.0000 -0.5281
vn -0.6561 -0.5613 -0.5045
vn -0.7890 -0.4104 0.4572
vn 0.5225 -0.7803 0.3436
vn 0.7122 -0.0035 0.7020
vn 0.7075 -0.0039 0.7067
vn 0.7059 0.0003 -0.7083
vn 0.7830 0.4002 0.4761
vn -0.5822 0.8129 0.0130
vn -0.7792 -0.0045 0.6267
vn -0.6566 -0.1532 0.7385
vn -0.7562 -0.6126 -0.2300
vn -0.5250 -0.8144 0.2472
vn 0.6977 -0.7099 -0.0962
vn -0.5304 0.5726 -0.6251
vn 0.6416 -0.0023 0.7671
vn -0.8794 -0.2011 -0.4314
vn -0.8785 0.2034 -0.4322
vn 0.7318 -0.3720 0.5710
vn -0.8319 0.4354 0.3441
vn 0.7071 -0.5920 -0.3866
vn 0.5917 0.7951 0.1331
vt 0.611496 0.263391
vt 0.500000 0.486609
vt 0.500000 0.263391
vt 0.432851 0.229215
vt 0.385497 0.248058
vt 0.412049 0.204062
vt 0.370233 0.625669
vt 0.132081 0.625000
vt 0.132224 0.564306
vt 0.616832 0.189442
vt 0.616832 0.248058
vt 0.566632 0.203962
vt 0.596464 0.296240
vt 0.611216 0.442340
vt 0.611216 0.295281
vt 0.380490 0.746521
vt 0.619510 0.625334
vt 0.619510 0.746521
vt 0.566546 0.203962
vt 0.550326 0.199629
vt 0.616918 0.189442
vt 0.501498 0.189442
vt 0.500000 0.199629
vt 0.427395 0.199629
vt 0.500000 0.501985
vt 0.453105 0.517564
vt 0.385353 0.501985
vt 0.416024 0.547729
vt 0.382113 0.623245
vt 0.382113 0.500614
vt 0.502420 0.189442
vt 0.616817 0.189442
vt 0.550749 0.199629
vt 0.382418 0.189442
vt 0.500269 0.189442
vt 0.429009 0.199629
vt 0.411108 0.807660
vt 0.518251 0.976515
vt 0.518251 0.807660
vt 0.868620 0.562500
vt 0.868628 0.625000
vt 0.630857 0.625000
vt 0.630857 0.746521
vt 0.562283 0.520629
vt 0.613157 0.501985
vt 0.570716 0.546034
vt 0.621861 0.756278
vt 0.621770 0.994682
vt 0.502645 0.994710
vt 0.440460 0.297164
vt 0.507209 0.442340
vt 0.507209 0.297126
vt 0.613166 0.248058
vt 0.562088 0.229334
vt 0.570541 0.203962
vt 0.617589 0.563170
vt 0.550271 0.550413
vt 0.566677 0.546034
vt 0.832015 0.544728
vt 0.682660 0.705272
vt 0.847155 0.705272
vt 0.317340 0.519835
vt 0.171199 0.511134
vt 0.170381 0.519835
vt 0.317340 0.702097
vt 0.167821 0.547903
vt 0.153194 0.702097
vt 0.317340 0.736901
vt 0.150279 0.732130
vt 0.149827 0.736902
vt 0.588891 0.976515
vt 0.588891 0.807660
vt 0.500000 0.248058
vt 0.543416 0.232317
vt 0.613149 0.248058
vt 0.429987 0.551507
vt 0.501101 0.551519
vt 0.382282 0.625209
vt 0.388504 0.486609
vt 0.500000 0.263391
vt 0.380529 0.127431
vt 0.500000 0.185327
vt 0.381224 0.185066
vt 0.382649 0.248058
vt 0.382649 0.189442
vt 0.415578 0.204062
vt 0.543616 0.517651
vt 0.500000 0.517612
vt 0.543616 0.517651
vt 0.613569 0.501985
vt 0.497561 0.551502
vt 0.551409 0.551502
vt 0.617163 0.625286
vt 0.559540 0.442340
vt 0.500000 0.199629
vt 0.501580 0.189442
vt 0.552251 0.199629
vt 0.619197 0.564516
vt 0.619197 0.626158
vt 0.551745 0.551646
vt 0.864232 0.562500
vt 0.634886 0.625000
vt 0.634886 0.562500
vt 0.619475 0.127426
vt 0.500000 0.127207
vt 0.416496 0.547051
vt 0.381346 0.624345
vt 0.380467 0.625200
vt 0.499638 0.551511
vt 0.619475 0.625296
vt 0.432769 0.520750
vt 0.411929 0.545950
vt 0.385267 0.501985
vt 0.616802 0.501985
vt 0.616802 0.563170
vt 0.566769 0.546034
vt 0.500000 0.003479
vt 0.619650 0.121521
vt 0.500000 0.121521
vt 0.385092 0.501985
vt 0.453105 0.517564
vt 0.861156 0.501747
vt 0.634886 0.562500
vt 0.637857 0.501747
vt 0.432851 0.229215
vt 0.453214 0.232406
vt 0.385308 0.248058
vt 0.382386 0.189442
vt 0.429314 0.199629
vt 0.415888 0.204062
vt 0.613328 0.975032
vt 0.613328 0.807660
vt 0.132224 0.564306
vt 0.362183 0.502407
vt 0.365526 0.624722
vt 0.500000 0.248058
vt 0.500000 0.232356
vt 0.380490 0.756836
vt 0.380490 0.993755
vt 0.562088 0.229334
vt 0.613599 0.248058
vt 0.543416 0.232317
vt 0.380350 0.003479
vt 0.500000 0.121521
vt 0.380350 0.121521
vt 0.379145 0.000000
vt 0.375000 0.003479
vt 0.624984 0.993644
vt 0.619633 0.999996
vt 0.138391 0.500000
vt 0.135577 0.502120
vt 0.125000 0.501726
vt 0.611496 0.250000
vt 0.621151 0.249166
vt 0.367997 0.750000
vt 0.369143 0.746521
vt 0.375000 0.746531
vt 0.621861 0.756279
vt 0.619493 0.750000
vt 0.622869 0.754262
vt 0.386792 0.500000
vt 0.375000 0.486609
vt 0.611496 0.486609
vt 0.625000 0.486609
vt 0.616942 0.500000
vt 0.380151 0.125000
vt 0.375000 0.125000
vt 0.625000 0.125000
vt 0.619774 0.125000
vt 0.617464 0.189584
vt 0.623989 0.187780
vt 0.625000 0.187840
vt 0.382149 0.187500
vt 0.375000 0.187500
vt 0.556968 0.203521
vt 0.549668 0.201572
vt 0.554013 0.200760
vt 0.556968 0.203521
vt 0.566000 0.203819
vt 0.562111 0.204895
vt 0.541960 0.229644
vt 0.543416 0.232317
vt 0.534266 0.230334
vt 0.549162 0.228476
vt 0.554928 0.226982
vt 0.625000 0.807660
vt 0.625000 0.799914
vt 0.542117 0.548428
vt 0.549728 0.548428
vt 0.555607 0.524836
vt 0.557723 0.522129
vt 0.541064 0.520758
vt 0.534324 0.519666
vt 0.471751 0.519570
vt 0.461957 0.519554
vt 0.427705 0.546914
vt 0.432290 0.548428
vt 0.421449 0.544848
vt 0.423059 0.542890
vt 0.447463 0.521829
vt 0.439327 0.523106
vt 0.439490 0.201572
vt 0.432281 0.201572
vt 0.433120 0.201397
vt 0.425297 0.203877
vt 0.421437 0.205152
vt 0.417593 0.203691
vt 0.437645 0.225345
vt 0.436966 0.227737
vt 0.453702 0.229572
vt 0.461930 0.230446
vt 0.132034 0.746521
vt 0.130219 0.750000
vt 0.625000 0.993648
vt 0.625000 0.262071
vt 0.125000 0.628489
vt 0.125000 0.746531
vt 0.625000 0.003479
vt 0.619650 0.003479
vt 0.625000 0.248593
vt 0.125000 0.564709
vt 0.125000 0.622596
vt 0.503729 0.000000
vt 0.622860 0.000000
vt 0.618773 0.185074
vt 0.540222 0.229367
vt 0.625000 0.972155
vt 0.500000 0.548428
vt 0.561589 0.543288
vt 0.523800 0.519651
vt 0.500000 0.519615
vt 0.439498 0.548428
vt 0.453821 0.520831
vt 0.500000 0.201572
vt 0.426968 0.203326
vt 0.423373 0.207507
vt 0.471714 0.230430
vt 0.499984 0.230385
vt 0.542067 0.201572
vt 0.317340 0.547903
vt 0.500000 0.003479
vt 0.369143 0.625678
vt 0.125000 0.560341
vt 0.561409 0.207056
vt 0.500000 0.232356
vt 0.523742 0.230349
vt 0.385654 0.248058
vt 0.388504 0.263391
vt 0.625000 0.126873
vt 0.559540 0.297097
vt 0.596464 0.442340
vt 0.829719 0.528917
vt 0.682660 0.544728
vt 0.613152 0.501985
vt 0.548278 0.521927
vt 0.454888 0.229340
vt 0.448533 0.228342
vt 0.555953 0.546767
vt 0.555953 0.546767
vt 0.398344 0.975173
vt 0.398344 0.807660
vt 0.437717 0.525064
vt 0.417320 0.442340
vt 0.440460 0.442340
vt 0.317340 0.732130
vt 0.132081 0.625000
vt 0.380490 0.625225
vt 0.411108 0.976515
vt 0.868648 0.746521
vt 0.317340 0.511134
vt 0.625000 0.755857
vt 0.361609 0.500000
vt 0.547425 0.228199
vt 0.426034 0.546362
vt 0.438028 0.225334
vt 0.500000 0.000000
vt 0.555407 0.225508
vt 0.500000 0.230385
vt 0.625000 0.187500
vt 0.682660 0.528917
vt 0.417320 0.296199
s 0
f 26/9/12 63/10/12 61/11/12
f 121/12/13 25/13/13 118/14/13
f 47/15/14 43/16/14 56/17/14
f 51/18/13 27/19/13 73/20/13
f 77/21/15 94/22/15 82/23/15
f 31/24/16 50/25/16 33/26/16
f 73/27/13 71/28/13 51/29/13
f 67/30/13 75/31/13 115/32/13
f 64/33/16 103/34/16 36/35/16
f 107/36/16 48/37/16 36/38/16
f 67/39/13 51/40/13 71/41/13
f 55/42/13 67/43/13 115/44/13
f 106/45/12 76/46/12 89/47/12
f 53/48/17 45/49/17 49/50/17
f 45/49/18 34/51/18 49/50/18
f 95/52/16 40/53/16 87/54/16
f 32/55/19 20/56/19 60/57/19
f 124/58/20 96/59/20 80/60/20
f 27/61/13 84/62/13 73/63/13
f 57/64/16 92/65/16 87/66/16
f 83/67/21 86/68/21 74/69/21
f 110/70/22 123/71/22 120/72/22
f 108/73/23 119/74/23 117/75/23
f 105/76/24 116/77/24 114/78/24
f 89/47/12 70/79/12 90/80/12
f 62/81/13 78/82/13 27/83/13
f 104/84/16 88/85/16 48/86/16
f 35/87/12 61/88/12 63/10/12
f 42/89/25 68/90/25 54/91/25
f 25/92/13 55/93/13 118/94/13
f 64/33/16 98/95/16 97/96/16
f 95/52/16 98/97/16 40/98/16
f 88/99/16 92/100/16 50/101/16
f 100/102/20 80/60/20 96/59/20
f 75/103/13 67/104/13 71/105/13
f 57/106/16 50/107/16 92/108/16
f 53/109/17 49/110/17 58/111/17
f 46/112/26 68/90/26 66/113/26
f 107/114/16 104/84/16 48/115/16
f 48/116/16 88/117/16 50/118/16
f 112/119/16 107/120/16 36/121/16
f 40/122/16 57/123/16 87/124/16
f 59/125/27 44/126/27 65/127/27
f 36/128/16 103/129/16 112/119/16
f 28/130/28 58/131/28 39/132/28
f 121/133/13 122/134/13 25/135/13
f 55/136/13 115/137/13 118/138/13
f 72/139/12 91/140/12 69/139/12
f 56/141/29 37/142/29 47/143/29
f 62/144/13 122/134/13 81/145/13
f 29/146/19 60/57/19 17/147/19
f 84/148/13 27/149/13 78/150/13
f 18/151/30 65/152/30 41/153/30
f 17/154/31 18/151/31 19/155/31
f 20/56/32 21/156/32 22/157/32
f 23/158/33 24/159/33 25/160/33
f 26/161/34 27/83/34 28/162/34
f 29/163/35 30/164/35 31/165/35
f 32/166/36 33/167/36 34/168/36
f 35/87/37 36/169/37 37/170/37
f 38/171/38 39/172/38 40/173/38
f 41/153/39 42/174/39 43/175/39
f 44/126/40 45/176/40 46/177/40
f 51/178/41 52/179/41 53/180/41
f 54/91/42 55/181/42 56/182/42
f 69/183/43 70/184/43 71/185/43
f 72/186/44 73/187/44 74/188/44
f 77/189/45 78/190/45 79/191/45
f 82/192/46 83/193/46 84/148/46
f 85/140/47 86/194/47 87/195/47
f 90/196/48 91/197/48 92/100/48
f 93/198/49 94/199/49 95/52/49
f 98/97/50 99/200/50 100/201/50
f 101/202/51 102/203/51 103/129/51
f 104/84/52 105/204/52 106/205/52
f 107/206/53 108/207/53 109/206/53
f 110/208/54 111/209/54 112/119/54
f 113/210/55 114/211/55 115/212/55
f 116/213/56 117/214/56 118/215/56
f 119/216/57 120/217/57 121/133/57
f 122/134/58 123/218/58 124/219/58
f 19/220/59 29/163/59 17/221/59
f 32/55/60 21/222/60 20/56/60
f 23/158/61 37/142/61 24/159/61
f 39/172/62 26/9/62 28/223/62
f 41/224/63 19/220/63 18/225/63
f 21/226/64 44/126/64 22/227/64
f 51/18/65 28/228/65 27/19/65
f 54/229/66 43/16/66 42/230/66
f 57/106/67 49/110/67 50/107/67
f 22/227/68 60/231/68 20/232/68
f 26/9/69 62/81/69 27/83/69
f 51/40/70 68/90/70 52/233/70
f 71/28/71 72/186/71 69/183/71
f 77/234/72 84/148/72 78/150/72
f 74/235/73 85/140/73 72/139/73
f 90/196/74 88/99/74 89/236/74
f 93/198/75 87/54/75 86/237/75
f 97/96/76 100/238/76 96/239/76
f 101/202/76 97/96/76 96/239/76
f 88/85/74 106/240/74 89/236/74
f 107/114/77 105/204/77 104/84/77
f 102/241/78 112/119/78 103/129/78
f 113/210/69 75/31/69 76/242/69
f 114/243/79 118/138/79 115/137/79
f 117/244/80 121/12/80 118/14/80
f 81/145/81 124/245/81 80/246/81
f 70/247/69 75/103/69 71/105/69
f 120/72/82 111/248/82 110/70/82
f 17/154/83 59/249/83 18/151/83
f 47/250/84 31/24/84 30/164/84
f 24/159/85 55/251/85 25/160/85
f 84/62/86 74/252/86 73/63/86
f 50/25/87 34/51/87 33/26/87
f 69/139/88 90/80/88 70/79/88
f 81/253/89 79/254/89 78/82/89
f 25/255/69 61/88/69 23/256/69
f 48/37/90 37/142/90 36/38/90
f 39/132/91 57/123/91 40/122/91
f 45/257/92 52/233/92 46/112/92
f 29/146/93 33/26/93 32/166/93
f 79/258/94 99/259/94 77/21/94
f 63/10/74 36/35/74 35/87/74
f 82/260/95 93/261/95 83/67/95
f 64/33/74 38/171/74 40/262/74
f 41/153/96 66/113/96 42/89/96
f 66/113/97 44/126/97 46/112/97
f 99/200/98 95/52/98 94/263/98
f 123/264/99 121/133/99 120/265/99
f 87/66/100 91/266/100 85/267/100
f 68/90/101 55/42/101 54/91/101
f 114/268/102 106/45/102 105/269/102
f 107/120/103 111/270/103 108/207/103
f 124/58/104 102/271/104 101/272/104
f 117/75/105 109/273/105 108/73/105
f 47/250/106 19/220/106 43/274/106
f 26/9/12 38/171/12 63/10/12
f 77/21/15 99/259/15 94/22/15
f 31/24/16 48/275/16 50/25/16
f 64/33/16 97/96/16 103/34/16
f 106/45/12 113/276/12 76/46/12
f 45/49/18 21/277/18 34/51/18
f 124/58/20 101/272/20 96/59/20
f 83/67/21 93/261/21 86/68/21
f 110/70/22 102/278/22 123/71/22
f 108/73/23 111/248/23 119/74/23
f 105/76/24 109/273/24 116/77/24
f 89/47/12 76/46/12 70/79/12
f 62/81/13 81/253/13 78/82/13
f 35/87/12 23/256/12 61/88/12
f 42/89/107 66/113/107 68/90/107
f 64/33/16 40/262/16 98/95/16
f 100/102/20 79/258/20 80/60/20
f 46/112/108 52/233/108 68/90/108
f 59/125/27 22/227/27 44/126/27
f 28/130/28 53/109/28 58/131/28
f 72/139/109 85/140/109 91/140/109
f 56/141/110 24/159/110 37/142/110
f 62/144/13 25/255/13 122/134/13
f 29/146/19 32/166/19 60/57/19
f 18/151/30 59/249/30 65/152/30
f 19/220/59 30/164/59 29/163/59
f 32/55/111 34/279/111 21/222/111
f 23/158/112 35/280/112 37/142/112
f 39/172/62 38/171/62 26/9/62
f 41/224/113 43/274/113 19/220/113
f 21/226/114 45/176/114 44/126/114
f 51/18/115 53/180/115 28/228/115
f 54/229/116 56/17/116 43/16/116
f 57/106/67 58/111/67 49/110/67
f 22/227/117 59/125/117 60/231/117
f 26/9/69 61/11/69 62/81/69
f 51/40/118 67/39/118 68/90/118
f 71/28/119 73/27/119 72/186/119
f 77/234/120 82/281/120 84/148/120
f 74/235/73 86/194/73 85/140/73
f 90/196/74 92/100/74 88/99/74
f 93/198/121 95/52/121 87/54/121
f 97/96/122 98/95/122 100/238/122
f 101/202/123 103/34/123 97/96/123
f 88/85/124 104/84/124 106/240/124
f 107/114/77 109/282/77 105/204/77
f 102/241/125 110/208/125 112/119/125
f 113/210/69 115/32/69 75/31/69
f 114/243/79 116/213/79 118/138/79
f 117/244/126 119/283/126 121/12/126
f 81/145/127 122/134/127 124/245/127
f 70/247/69 76/242/69 75/103/69
f 120/72/82 119/74/82 111/248/82
f 17/154/128 60/284/128 59/249/128
f 47/250/84 48/275/84 31/24/84
f 24/159/129 56/141/129 55/251/129
f 84/62/130 83/285/130 74/252/130
f 50/25/87 49/50/87 34/51/87
f 69/139/88 91/140/88 90/80/88
f 81/253/81 80/286/81 79/254/81
f 25/255/69 62/144/69 61/88/69
f 48/37/131 47/143/131 37/142/131
f 39/132/91 58/131/91 57/123/91
f 45/257/132 53/287/132 52/233/132
f 29/146/133 31/24/133 33/26/133
f 79/258/94 100/102/94 99/259/94
f 63/10/74 64/33/74 36/35/74
f 82/260/95 94/288/95 93/261/95
f 64/33/74 63/10/74 38/171/74
f 41/153/134 65/152/134 66/113/134
f 66/113/135 65/127/135 44/126/135
f 99/200/136 98/97/136 95/52/136
f 123/264/137 122/134/137 121/133/137
f 87/66/138 92/65/138 91/266/138
f 68/90/118 67/43/118 55/42/118
f 114/268/102 113/276/102 106/45/102
f 107/120/139 112/119/139 111/270/139
f 124/58/104 123/289/104 102/271/104
f 117/75/105 116/77/105 109/273/105
f 47/250/106 30/164/106 19/220/106
o Cube.001
v -0.111579 0.038995 -0.004507
v -0.111579 0.043995 0.000493
v -0.116579 0.043995 -0.004507
v -0.116579 0.043995 -0.067947
v -0.111579 0.043995 -0.072947
v -0.111579 0.038995 -0.067947
v -0.017256 0.043995 0.000493
v -0.017256 0.038995 -0.004507
v -0.017256 0.104267 -0.004507
v -0.017256 0.098750 0.000493
v -0.017256 0.038995 -0.067947
v -0.017256 0.043995 -0.072947
v -0.017256 0.098750 -0.072947
v -0.017256 0.104267 -0.067947
v -0.070096 0.098729 -0.072947
v -0.065787 0.109267 -0.067947
v -0.060787 0.104267 -0.067947
v -0.060787 0.104267 -0.004507
v -0.065787 0.109267 -0.004507
v -0.070096 0.098729 0.000493
v -0.060787 0.156541 -0.004507
v -0.070122 0.159580 0.000493
v -0.065787 0.151541 -0.004507
v -0.060787 0.156541 -0.067947
v -0.065787 0.151541 -0.067947
v -0.070122 0.159580 -0.072947
v -0.060787 0.181070 -0.004507
v -0.065787 0.186070 -0.004507
v -0.070787 0.176070 0.000493
v -0.060787 0.181070 -0.067947
v -0.070787 0.176070 -0.072947
v -0.065787 0.186070 -0.067947
v -0.060787 0.260201 -0.004507
v -0.070787 0.263560 0.000493
v -0.065787 0.255201 -0.004507
v -0.060787 0.260201 -0.067947
v -0.065787 0.255201 -0.067947
v -0.070787 0.263560 -0.072947
v -0.116579 0.282762 -0.004507
v -0.111579 0.282762 0.000493
v -0.111579 0.287762 -0.004507
v -0.116579 0.282762 -0.067947
v -0.111579 0.287762 -0.067947
v -0.111579 0.282762 -0.072947
v 0.073057 0.186070 -0.067947
v 0.078966 0.176070 -0.072947
v 0.068057 0.181070 -0.067947
v 0.073057 0.186070 -0.004507
v 0.068057 0.181070 -0.004507
v 0.078966 0.176070 0.000493
v 0.073057 0.255201 -0.067947
v 0.068057 0.260201 -0.067947
v 0.079002 0.263494 -0.072947
v 0.073057 0.255201 -0.004507
v 0.079002 0.263494 0.000493
v 0.068057 0.260201 -0.004507
v 0.117808 0.156541 -0.067947
v 0.116802 0.159502 -0.072947
v 0.122808 0.161541 -0.067947
v 0.122808 0.161541 -0.004507
v 0.116802 0.159502 0.000493
v 0.117808 0.156541 -0.004507
v 0.117808 0.287762 -0.067947
v 0.122808 0.282762 -0.067947
v 0.116841 0.282762 -0.072947
v 0.116841 0.282762 0.000493
v 0.122808 0.282762 -0.004507
v 0.117808 0.287762 -0.004507
vn -0.0000 -0.0000 -1.0000
vn -0.0000 -0.0000 1.0000
vn 1.0000 -0.0000 -0.0000
vn -0.0000 1.0000 -0.0000
vn -1.0000 -0.0000 -0.0000
vn -0.0000 -1.0000 -0.0000
vn -0.5774 -0.5774 0.5773
vn -0.5774 -0.5774 -0.5774
vn 0.3041 0.3041 -0.9028
vn 0.3041 0.3041 0.9028
vn 0.3508 -0.3508 0.8683
vn 0.3508 -0.3508 -0.8683
vn 0.3015 0.3015 0.9045
vn 0.3015 0.3015 -0.9045
vn 0.3308 -0.3308 0.8838
vn 0.3308 -0.3308 -0.8838
vn -0.5774 0.5774 0.5773
vn -0.5774 0.5774 -0.5774
vn -0.2872 0.2872 -0.9138
vn -0.2872 0.2872 0.9138
vn -0.3145 -0.3145 -0.8956
vn -0.3145 -0.3145 0.8956
vn 0.6167 -0.6167 -0.4892
vn 0.6167 -0.6167 0.4892
vn 0.5404 0.5404 -0.6449
vn 0.5404 0.5404 0.6449
vn -0.7071 -0.7071 -0.0000
vn -0.0003 0.6704 -0.7420
vn -0.0000 0.6715 0.7410
vn 0.7071 0.7071 -0.0000
vn -0.0000 -0.7071 -0.7071
vn 0.7071 -0.7071 -0.0000
vn 0.7555 -0.0000 -0.6551
vn 0.7572 0.0003 0.6532
vn -0.7071 -0.0000 0.7071
vn 0.7071 -0.0000 -0.7071
vn 0.7071 -0.0000 0.7071
vn -0.7071 0.7071 -0.0000
vn -0.0000 0.7071 -0.7071
vn -0.0000 -0.8301 -0.5577
vn -0.0004 -0.8347 0.5507
vn -0.0000 0.7071 0.7071
vn 0.6399 -0.0002 -0.7685
vn -0.0000 -0.8604 -0.5095
vn -0.6457 0.0003 -0.7636
vn -0.0004 -0.8548 0.5189
vn 0.6423 -0.0000 0.7665
vn -0.0000 -0.7071 0.7071
vn -0.6457 0.0003 0.7636
vn -0.7071 -0.0000 -0.7071
vn -0.0000 0.6715 -0.7410
vn -0.0003 0.6704 0.7420
vn 0.7572 0.0003 -0.6532
vn 0.7555 -0.0000 0.6551
vn -0.0004 -0.8347 -0.5507
vn -0.0000 -0.8301 0.5577
vn 0.6423 -0.0000 -0.7665
vn -0.0004 -0.8548 -0.5189
vn -0.6436 -0.0000 -0.7653
vn -0.0000 -0.8604 0.5095
vn 0.6399 -0.0002 0.7685
vn -0.6436 -0.0000 0.7653
vt 0.603790 0.375000
vt 0.394151 0.500000
vt 0.394151 0.376505
vt 0.625000 0.875000
vt 0.625000 0.875000
vt 0.625000 0.875000
vt 0.625000 0.375000
vt 0.625000 0.375000
vt 0.750000 0.517021
vt 0.750000 0.732979
vt 0.750000 0.517021
vt 0.625000 0.875000
vt 0.625000 0.875000
vt 0.625000 0.375000
vt 0.625000 0.262305
vt 0.625000 0.362695
vt 0.625000 0.364330
vt 0.625000 0.262305
vt 0.750000 0.732979
vt 0.750000 0.517021
vt 0.625000 0.987695
vt 0.625000 0.885605
vt 0.625000 0.885670
vt 0.394151 0.750000
vt 0.603790 0.875000
vt 0.394151 0.873496
vt 0.625000 0.885670
vt 0.625000 0.887305
vt 0.625000 0.987695
vt 0.750000 0.732979
vt 0.750000 0.517021
vt 0.625000 0.262305
vt 0.625000 0.364330
vt 0.625000 0.232979
vt 0.625000 0.017021
vt 0.625000 0.017021
vt 0.750000 0.732979
vt 0.750000 0.517021
vt 0.750000 0.732979
vt 0.737122 0.732979
vt 0.625000 0.517021
vt 0.737122 0.517021
vt 0.625000 0.364330
vt 0.625000 0.364395
vt 0.625000 0.375000
vt 0.625000 0.375000
vt 0.625000 0.987695
vt 0.625000 0.885670
vt 0.256293 0.732979
vt 0.256293 0.750000
vt 0.250000 0.732979
vt 0.625000 0.232979
vt 0.625000 0.250000
vt 0.625000 0.862122
vt 0.750000 0.500000
vt 0.750000 0.750000
vt 0.625000 1.000000
vt 0.625000 0.994254
vt 0.625000 0.998397
vt 0.625000 0.232979
vt 0.625000 0.875000
vt 0.625000 0.375000
vt 0.250000 0.517021
vt 0.256293 0.517021
vt 0.625000 0.387878
vt 0.603869 0.500000
vt 0.603869 0.750000
vt 0.625000 0.750000
vt 0.375000 0.500000
vt 0.375000 0.517021
vt 0.625000 0.017021
vt 0.375000 0.732979
vt 0.625000 0.732979
vt 0.625000 0.500000
vt 0.256293 0.500000
vt 0.375000 0.750000
s 0
f 139/290/140 136/291/140 129/292/140
f 174/293/141 153/294/141 146/295/141
f 182/296/140 150/296/140 170/297/140
f 179/294/141 185/294/141 190/294/141
f 174/293/141 146/294/141 185/294/141
f 161/298/142 152/299/142 156/300/142
f 190/301/141 164/294/141 158/302/141
f 162/296/140 168/296/140 189/303/140
f 168/304/140 155/305/140 150/306/140
f 168/307/140 162/305/140 155/305/140
f 173/308/143 154/309/143 151/308/143
f 126/310/141 144/311/141 146/312/141
f 177/296/140 182/296/140 170/297/140
f 131/313/141 144/314/141 126/315/141
f 190/294/141 158/295/141 179/294/141
f 146/316/141 153/317/141 164/318/141
f 169/300/144 178/319/144 175/298/144
f 149/300/142 143/319/142 140/320/142
f 162/296/140 189/296/140 177/296/140
f 129/321/140 168/321/140 150/322/140
f 166/323/144 127/324/144 163/325/144
f 181/309/145 145/308/145 148/309/145
f 192/308/143 167/300/143 165/299/143
f 184/326/142 188/327/142 191/328/142
f 142/329/143 138/330/143 141/331/143
f 150/332/140 139/333/140 129/304/140
f 176/309/145 157/326/145 160/309/145
f 150/334/140 155/296/140 170/335/140
f 153/317/141 158/317/141 164/318/141
f 164/336/141 126/318/141 146/337/141
f 125/338/146 126/339/146 127/340/146
f 128/341/147 129/342/147 130/341/147
f 139/333/148 140/296/148 141/296/148
f 142/343/149 143/294/149 144/314/149
f 145/295/150 146/294/150 147/294/150
f 148/309/151 149/300/151 150/344/151
f 151/308/152 152/326/152 153/345/152
f 154/296/153 155/296/153 156/296/153
f 157/294/154 158/294/154 159/294/154
f 160/309/155 161/298/155 162/344/155
f 163/346/156 164/347/156 165/348/156
f 166/323/157 167/349/157 168/342/157
f 169/296/158 170/296/158 171/296/158
f 172/326/159 173/308/159 174/345/159
f 175/298/160 176/309/160 177/344/160
f 178/350/161 179/294/161 180/294/161
f 181/296/162 182/296/162 183/296/162
f 184/294/163 185/294/163 186/294/163
f 187/296/164 188/351/164 189/297/164
f 190/294/165 191/294/165 192/294/165
f 125/338/166 128/352/166 130/353/166
f 141/354/167 137/355/167 139/290/167
f 142/343/168 134/356/168 133/357/168
f 143/319/169 141/331/169 140/320/169
f 130/353/170 136/358/170 135/359/170
f 145/308/171 149/300/171 148/309/171
f 140/296/172 150/332/172 149/296/172
f 143/302/173 146/312/173 144/311/173
f 152/299/169 154/309/169 156/300/169
f 157/326/171 161/298/171 160/309/171
f 164/336/174 127/346/174 126/318/174
f 156/296/175 162/305/175 161/351/175
f 158/317/176 152/350/176 159/294/176
f 167/349/177 163/325/177 165/360/177
f 167/296/178 189/303/178 168/296/178
f 173/308/177 169/300/177 171/309/177
f 178/319/166 176/309/166 175/298/166
f 162/296/179 176/296/179 160/296/179
f 158/295/180 180/294/180 179/294/180
f 173/294/181 153/294/181 174/293/181
f 171/296/178 155/296/178 154/296/178
f 165/294/181 190/301/181 192/294/181
f 184/326/171 181/309/171 183/309/171
f 192/308/169 188/327/169 187/327/169
f 189/296/182 183/296/182 182/296/182
f 148/296/183 182/296/183 181/296/183
f 169/296/184 177/296/184 170/297/184
f 145/295/185 185/294/185 146/294/185
f 190/294/186 184/294/186 191/294/186
f 132/361/187 126/339/187 125/338/187
f 179/294/188 172/294/188 174/294/188
f 166/323/189 129/321/189 128/341/189
f 132/361/145 130/353/145 135/359/145
f 139/290/140 137/355/140 136/291/140
f 179/294/141 174/294/141 185/294/141
f 161/298/142 159/319/142 152/299/142
f 173/308/143 171/309/143 154/309/143
f 177/296/140 189/296/140 182/296/140
f 131/313/141 134/356/141 144/314/141
f 169/300/144 172/308/144 178/319/144
f 149/300/142 147/308/142 143/319/142
f 166/323/144 128/341/144 127/324/144
f 181/309/145 186/308/145 145/308/145
f 192/308/143 187/327/143 167/300/143
f 184/326/142 183/309/142 188/327/142
f 142/329/143 133/362/143 138/330/143
f 176/309/145 180/308/145 157/326/145
f 125/338/166 127/340/166 128/352/166
f 141/354/190 138/363/190 137/355/190
f 142/343/191 144/314/191 134/356/191
f 143/319/169 142/329/169 141/331/169
f 130/353/170 129/364/170 136/358/170
f 145/308/171 147/308/171 149/300/171
f 140/296/192 139/333/192 150/332/192
f 143/302/193 147/294/193 146/312/193
f 152/299/169 151/308/169 154/309/169
f 157/326/171 159/319/171 161/298/171
f 164/336/174 163/346/174 127/346/174
f 156/296/175 155/305/175 162/305/175
f 158/317/176 153/317/176 152/350/176
f 167/349/177 166/323/177 163/325/177
f 167/296/178 187/296/178 189/303/178
f 173/308/177 172/308/177 169/300/177
f 178/319/166 180/308/166 176/309/166
f 162/296/194 177/296/194 176/296/194
f 158/295/195 157/294/195 180/294/195
f 173/294/181 151/294/181 153/294/181
f 171/296/178 170/335/178 155/296/178
f 165/294/181 164/294/181 190/301/181
f 184/326/171 186/308/171 181/309/171
f 192/308/169 191/328/169 188/327/169
f 189/296/196 188/296/196 183/296/196
f 148/296/197 150/296/197 182/296/197
f 169/296/198 175/296/198 177/296/198
f 145/295/199 186/294/199 185/294/199
f 190/294/200 185/294/200 184/294/200
f 132/361/187 131/365/187 126/339/187
f 179/294/201 178/350/201 172/294/201
f 166/323/189 168/321/189 129/321/189
f 132/361/145 125/338/145 130/353/145
