# Blender 4.0.2
# www.blender.org
mtllib Bowl01.mtl
o Bowl01
v -0.000000 0.015226 0.000000
v -0.045143 0.015885 0.000000
v -0.053775 0.021778 0.000000
v -0.065361 0.060170 0.000000
v -0.072565 0.072350 0.000000
v -0.080875 0.073140 0.000000
v -0.090320 0.069687 0.000000
v -0.090024 0.061415 0.000000
v -0.082599 0.058509 0.000000
v -0.077434 0.051730 0.000000
v -0.064199 0.000565 0.000000
v -0.000000 0.000403 0.000000
v -0.036521 0.015885 0.026534
v -0.043505 0.021778 0.031608
v -0.052878 0.060170 0.038418
v -0.058706 0.072350 0.042653
v -0.065429 0.073140 0.047537
v -0.073070 0.069687 0.053089
v -0.072831 0.061415 0.052915
v -0.066824 0.058509 0.048550
v -0.062645 0.051730 0.045515
v -0.051938 0.000565 0.037735
v -0.013950 0.015885 0.042933
v -0.016617 0.021778 0.051143
v -0.020198 0.060170 0.062162
v -0.022424 0.072350 0.069013
v -0.024992 0.073140 0.076917
v -0.027910 0.069687 0.085899
v -0.027819 0.061415 0.085618
v -0.025524 0.058509 0.078556
v -0.023928 0.051730 0.073644
v -0.019838 0.000565 0.061057
v 0.013950 0.015885 0.042933
v 0.016617 0.021778 0.051143
v 0.020198 0.060170 0.062162
v 0.022424 0.072350 0.069013
v 0.024992 0.073140 0.076917
v 0.027910 0.069687 0.085899
v 0.027819 0.061415 0.085618
v 0.025524 0.058509 0.078556
v 0.023928 0.051730 0.073644
v 0.019838 0.000565 0.061057
v 0.036521 0.015885 0.026534
v 0.043505 0.021778 0.031608
v 0.052878 0.060170 0.038418
v 0.058706 0.072350 0.042653
v 0.065429 0.073140 0.047537
v 0.073070 0.069687 0.053089
v 0.072831 0.061415 0.052915
v 0.066824 0.058509 0.048550
v 0.062645 0.051730 0.045515
v 0.051938 0.000565 0.037735
v 0.045143 0.015885 0.000000
v 0.053775 0.021778 0.000000
v 0.065361 0.060170 0.000000
v 0.072565 0.072350 0.000000
v 0.080875 0.073140 0.000000
v 0.090320 0.069687 0.000000
v 0.090024 0.061415 0.000000
v 0.082599 0.058509 0.000000
v 0.077434 0.051730 0.000000
v 0.064199 0.000565 0.000000
v 0.036521 0.015885 -0.026534
v 0.043505 0.021778 -0.031608
v 0.052878 0.060170 -0.038418
v 0.058706 0.072350 -0.042653
v 0.065429 0.073140 -0.047537
v 0.073070 0.069687 -0.053089
v 0.072831 0.061415 -0.052915
v 0.066824 0.058509 -0.048550
v 0.062645 0.051730 -0.045515
v 0.051938 0.000565 -0.037735
v 0.013950 0.015885 -0.042933
v 0.016617 0.021778 -0.051143
v 0.020198 0.060170 -0.062162
v 0.022424 0.072350 -0.069013
v 0.024992 0.073140 -0.076917
v 0.027910 0.069687 -0.085899
v 0.027819 0.061415 -0.085618
v 0.025524 0.058509 -0.078556
v 0.023928 0.051730 -0.073644
v 0.019838 0.000565 -0.061057
v -0.013950 0.015885 -0.042933
v -0.016617 0.021778 -0.051143
v -0.020198 0.060170 -0.062162
v -0.022424 0.072350 -0.069013
v -0.024992 0.073140 -0.076917
v -0.027910 0.069687 -0.085899
v -0.027819 0.061415 -0.085618
v -0.025524 0.058509 -0.078556
v -0.023928 0.051730 -0.073644
v -0.019838 0.000565 -0.061057
v -0.036521 0.015885 -0.026534
v -0.043505 0.021778 -0.031608
v -0.052878 0.060170 -0.038418
v -0.058706 0.072350 -0.042653
v -0.065429 0.073140 -0.047537
v -0.073070 0.069687 -0.053088
v -0.072831 0.061415 -0.052915
v -0.066824 0.058509 -0.048550
v -0.062645 0.051730 -0.045515
v -0.051938 0.000565 -0.037735
vn -0.0000 1.0000 -0.0000
vn 0.3524 0.9358 -0.0000
vn 0.2851 0.9358 -0.2072
vn 0.1089 0.9358 -0.3352
vn -0.1089 0.9358 -0.3352
vn -0.2851 0.9358 -0.2072
vn -0.3524 0.9358 -0.0000
vn -0.2851 0.9358 0.2072
vn -0.1089 0.9358 0.3352
vn 0.1089 0.9358 0.3352
vn 0.2851 0.9358 0.2072
vn 0.6694 0.5616 -0.4863
vn 0.2557 0.5616 -0.7869
vn -0.2557 0.5616 -0.7869
vn -0.6694 0.5616 -0.4863
vn -0.8274 0.5616 -0.0000
vn -0.6694 0.5616 0.4863
vn -0.2557 0.5616 0.7869
vn 0.6694 0.5616 0.4863
vn 0.8274 0.5616 -0.0000
vn 0.7376 0.4109 -0.5359
vn 0.2817 0.4109 -0.8671
vn -0.2817 0.4109 -0.8671
vn -0.7376 0.4109 -0.5359
vn -0.7376 0.4109 0.5359
vn -0.2817 0.4109 0.8671
vn 0.2557 0.5616 0.7869
vn 0.2817 0.4109 0.8671
vn 0.7376 0.4109 0.5359
vn 0.9117 0.4109 -0.0000
vn 0.3764 0.8851 -0.2735
vn 0.1438 0.8851 -0.4425
vn -0.1438 0.8851 -0.4425
vn -0.3764 0.8851 -0.2735
vn -0.9117 0.4109 -0.0000
vn -0.3764 0.8851 0.2735
vn 0.1438 0.8851 0.4425
vn 0.4653 0.8851 -0.0000
vn -0.1704 0.9854 -0.0000
vn -0.0527 0.9854 0.1621
vn 0.0527 0.9854 0.1621
vn 0.1379 0.9854 0.1002
vn 0.1704 0.9854 -0.0000
vn -0.4653 0.8851 -0.0000
vn 0.1379 0.9854 -0.1002
vn 0.0527 0.9854 -0.1621
vn -0.1438 0.8851 0.4425
vn -0.1379 0.9854 -0.1002
vn 0.3764 0.8851 0.2735
vn -0.8600 0.5103 -0.0000
vn -0.1379 0.9854 0.1002
vn -0.2657 0.5103 0.8179
vn 0.6957 0.5103 0.5055
vn 0.8600 0.5103 -0.0000
vn 0.6957 0.5103 -0.5055
vn 0.2657 0.5103 -0.8179
vn -0.0527 0.9854 -0.1621
vn -0.6957 0.5103 -0.5055
vn -0.6849 -0.5323 0.4976
vn -0.6957 0.5103 0.5055
vn -0.2616 -0.5323 0.8051
vn 0.2657 0.5103 0.8179
vn 0.6849 -0.5323 0.4976
vn 0.8465 -0.5323 -0.0000
vn 0.6849 -0.5323 -0.4976
vn 0.2616 -0.5323 -0.8051
vn -0.2657 0.5103 -0.8179
vn -0.2616 -0.5323 -0.8051
vn -0.6849 -0.5323 -0.4976
vn -0.8465 -0.5323 -0.0000
vn -0.4577 -0.8245 0.3326
vn 0.1748 -0.8245 0.5381
vn 0.2616 -0.5323 0.8051
vn 0.4577 -0.8245 0.3326
vn 0.4577 -0.8245 -0.3326
vn 0.1748 -0.8245 -0.5381
vn -0.1748 -0.8245 -0.5381
vn -0.5658 -0.8245 -0.0000
vn -0.8915 -0.4529 -0.0000
vn -0.7213 -0.4529 0.5240
vn -0.1748 -0.8245 0.5381
vn -0.2755 -0.4529 0.8479
vn 0.2755 -0.4529 0.8479
vn 0.7213 -0.4529 0.5240
vn 0.5658 -0.8245 -0.0000
vn 0.7213 -0.4529 -0.5240
vn 0.2755 -0.4529 -0.8479
vn -0.2755 -0.4529 -0.8479
vn -0.4577 -0.8245 -0.3326
vn -0.7213 -0.4529 -0.5240
vn -0.6787 -0.7344 -0.0000
vn -0.5491 -0.7344 0.3990
vn -0.2097 -0.7344 0.6455
vn 0.2097 -0.7344 0.6455
vn 0.6787 -0.7344 -0.0000
vn 0.8915 -0.4529 -0.0000
vn 0.5491 -0.7344 -0.3990
vn 0.2097 -0.7344 -0.6455
vn -0.5491 -0.7344 -0.3990
vn -0.0000 -1.0000 -0.0000
vn 0.5491 -0.7344 0.3990
vn -0.2097 -0.7344 -0.6455
vt 0.050000 0.027516
vt 0.000000 0.028746
vt 0.100000 0.028746
vt 0.150000 0.027516
vt 0.200000 0.028746
vt 0.250000 0.027516
vt 0.300000 0.028746
vt 0.350000 0.027516
vt 0.400000 0.028746
vt 0.450000 0.027516
vt 0.500000 0.028746
vt 0.550000 0.027516
vt 0.600000 0.028746
vt 0.650000 0.027516
vt 0.700000 0.028746
vt 0.750000 0.027516
vt 0.800000 0.028746
vt 0.850000 0.027516
vt 0.900000 0.028746
vt 0.950000 0.027516
vt 1.000000 0.028746
vt 0.100000 0.039739
vt 0.200000 0.039739
vt 0.300000 0.039739
vt 0.400000 0.039739
vt 0.500000 0.039739
vt 0.600000 0.039739
vt 0.700000 0.039739
vt 0.900000 0.039739
vt 0.000000 0.039739
vt 0.100000 0.111350
vt 0.200000 0.111350
vt 0.300000 0.111350
vt 0.400000 0.111350
vt 0.600000 0.111350
vt 0.700000 0.111350
vt 0.800000 0.039739
vt 0.800000 0.111350
vt 0.900000 0.111350
vt 1.000000 0.039739
vt 0.000000 0.111350
vt 0.100000 0.134070
vt 0.200000 0.134070
vt 0.300000 0.134070
vt 0.400000 0.134070
vt 0.500000 0.111350
vt 0.600000 0.134070
vt 0.800000 0.134070
vt 1.000000 0.134070
vt 1.000000 0.111350
vt 0.000000 0.135544
vt 0.000000 0.134070
vt 0.200000 0.135544
vt 0.300000 0.135544
vt 0.400000 0.135544
vt 0.500000 0.135544
vt 0.500000 0.134070
vt 0.600000 0.135544
vt 0.700000 0.135544
vt 0.700000 0.134070
vt 0.900000 0.135544
vt 0.900000 0.134070
vt 0.000000 0.129102
vt 0.100000 0.135544
vt 0.200000 0.129102
vt 0.400000 0.129102
vt 0.500000 0.129102
vt 0.600000 0.129102
vt 0.700000 0.129102
vt 0.800000 0.135544
vt 0.900000 0.129102
vt 1.000000 0.135544
vt 0.100000 0.113672
vt 0.100000 0.129102
vt 0.200000 0.113672
vt 0.300000 0.129102
vt 0.400000 0.113672
vt 0.500000 0.113672
vt 0.600000 0.113672
vt 0.700000 0.113672
vt 0.800000 0.129102
vt 0.800000 0.113672
vt 0.900000 0.113672
vt 1.000000 0.129102
vt 0.000000 0.113672
vt 0.100000 0.108253
vt 0.300000 0.108253
vt 0.300000 0.113672
vt 0.400000 0.108253
vt 0.600000 0.108253
vt 0.700000 0.108253
vt 0.800000 0.108253
vt 1.000000 0.108253
vt 1.000000 0.113672
vt 0.000000 0.095608
vt 0.000000 0.108253
vt 0.100000 0.095608
vt 0.200000 0.108253
vt 0.200000 0.095608
vt 0.300000 0.095608
vt 0.400000 0.095608
vt 0.500000 0.108253
vt 0.600000 0.095608
vt 0.700000 0.095608
vt 0.800000 0.095608
vt 0.900000 0.108253
vt 0.900000 0.095608
vt 0.000000 0.000169
vt 0.100000 0.000169
vt 0.200000 0.000169
vt 0.300000 0.000169
vt 0.500000 0.000169
vt 0.500000 0.095608
vt 0.600000 0.000169
vt 0.700000 0.000169
vt 0.900000 0.000169
vt 1.000000 0.095608
vt 0.050000 -0.000132
vt 0.150000 -0.000132
vt 0.250000 -0.000132
vt 0.350000 -0.000132
vt 0.400000 0.000169
vt 0.450000 -0.000132
vt 0.550000 -0.000132
vt 0.650000 -0.000132
vt 0.750000 -0.000132
vt 0.800000 0.000169
vt 0.850000 -0.000132
vt 0.950000 -0.000132
vt 1.000000 0.000169
s 1
f 1/1/1 2/2/2 13/3/3
f 1/4/1 13/3/3 23/5/4
f 1/6/1 23/5/4 33/7/5
f 1/8/1 33/7/5 43/9/6
f 1/10/1 43/9/6 53/11/7
f 1/12/1 53/11/7 63/13/8
f 1/14/1 63/13/8 73/15/9
f 1/16/1 73/15/9 83/17/10
f 1/18/1 83/17/10 93/19/11
f 1/20/1 93/19/11 2/21/2
f 2/2/2 14/22/12 13/3/3
f 14/22/12 23/5/4 13/3/3
f 24/23/13 33/7/5 23/5/4
f 34/24/14 43/9/6 33/7/5
f 44/25/15 53/11/7 43/9/6
f 54/26/16 63/13/8 53/11/7
f 64/27/17 73/15/9 63/13/8
f 74/28/18 83/17/10 73/15/9
f 83/17/10 94/29/19 93/19/11
f 94/29/19 2/21/2 93/19/11
f 3/30/20 15/31/21 14/22/12
f 14/22/12 25/32/22 24/23/13
f 24/23/13 35/33/23 34/24/14
f 35/33/23 44/25/15 34/24/14
f 45/34/24 54/26/16 44/25/15
f 54/26/16 65/35/25 64/27/17
f 65/35/25 74/28/18 64/27/17
f 75/36/26 84/37/27 74/28/18
f 85/38/28 94/29/19 84/37/27
f 95/39/29 3/40/20 94/29/19
f 4/41/30 16/42/31 15/31/21
f 16/42/31 25/32/22 15/31/21
f 26/43/32 35/33/23 25/32/22
f 36/44/33 45/34/24 35/33/23
f 46/45/34 55/46/35 45/34/24
f 55/46/35 66/47/36 65/35/25
f 66/47/36 75/36/26 65/35/25
f 75/36/26 86/48/37 85/38/28
f 86/48/37 95/39/29 85/38/28
f 95/39/29 5/49/38 4/50/30
f 6/51/39 16/42/31 5/52/38
f 16/42/31 27/53/40 26/43/32
f 26/43/32 37/54/41 36/44/33
f 36/44/33 47/55/42 46/45/34
f 46/45/34 57/56/43 56/57/44
f 56/57/44 67/58/45 66/47/36
f 66/47/36 77/59/46 76/60/47
f 77/59/46 86/48/37 76/60/47
f 86/48/37 97/61/48 96/62/49
f 97/61/48 5/49/38 96/62/49
f 7/63/50 17/64/51 6/51/39
f 17/64/51 28/65/52 27/53/40
f 28/65/52 37/54/41 27/53/40
f 37/54/41 48/66/53 47/55/42
f 47/55/42 58/67/54 57/56/43
f 58/67/54 67/58/45 57/56/43
f 68/68/55 77/59/46 67/58/45
f 78/69/56 87/70/57 77/59/46
f 87/70/57 98/71/58 97/61/48
f 98/71/58 6/72/39 97/61/48
f 7/63/50 19/73/59 18/74/60
f 19/73/59 28/65/52 18/74/60
f 29/75/61 38/76/62 28/65/52
f 38/76/62 49/77/63 48/66/53
f 49/77/63 58/67/54 48/66/53
f 59/78/64 68/68/55 58/67/54
f 69/79/65 78/69/56 68/68/55
f 79/80/66 88/81/67 78/69/56
f 89/82/68 98/71/58 88/81/67
f 99/83/69 7/84/50 98/71/58
f 8/85/70 20/86/71 19/73/59
f 20/86/71 29/75/61 19/73/59
f 29/75/61 40/87/72 39/88/73
f 40/87/72 49/77/63 39/88/73
f 50/89/74 59/78/64 49/77/63
f 59/78/64 70/90/75 69/79/65
f 69/79/65 80/91/76 79/80/66
f 80/91/76 89/82/68 79/80/66
f 90/92/77 99/83/69 89/82/68
f 99/83/69 9/93/78 8/94/70
f 10/95/79 20/86/71 9/96/78
f 21/97/80 30/98/81 20/86/71
f 31/99/82 40/87/72 30/98/81
f 41/100/83 50/89/74 40/87/72
f 51/101/84 60/102/85 50/89/74
f 60/102/85 71/103/86 70/90/75
f 71/103/86 80/91/76 70/90/75
f 81/104/87 90/92/77 80/91/76
f 91/105/88 100/106/89 90/92/77
f 101/107/90 9/93/78 100/106/89
f 11/108/91 21/97/80 10/95/79
f 22/109/92 31/99/82 21/97/80
f 32/110/93 41/100/83 31/99/82
f 42/111/94 51/101/84 41/100/83
f 51/101/84 62/112/95 61/113/96
f 61/113/96 72/114/97 71/103/86
f 72/114/97 81/104/87 71/103/86
f 82/115/98 91/105/88 81/104/87
f 91/105/88 102/116/99 101/107/90
f 102/116/99 10/117/79 101/107/90
f 11/108/91 12/118/100 22/109/92
f 22/109/92 12/119/100 32/110/93
f 32/110/93 12/120/100 42/111/94
f 42/111/94 12/121/100 52/122/101
f 52/122/101 12/123/100 62/112/95
f 62/112/95 12/124/100 72/114/97
f 72/114/97 12/125/100 82/115/98
f 82/115/98 12/126/100 92/127/102
f 92/127/102 12/128/100 102/116/99
f 102/116/99 12/129/100 11/130/91
f 2/2/2 3/30/20 14/22/12
f 14/22/12 24/23/13 23/5/4
f 24/23/13 34/24/14 33/7/5
f 34/24/14 44/25/15 43/9/6
f 44/25/15 54/26/16 53/11/7
f 54/26/16 64/27/17 63/13/8
f 64/27/17 74/28/18 73/15/9
f 74/28/18 84/37/27 83/17/10
f 83/17/10 84/37/27 94/29/19
f 94/29/19 3/40/20 2/21/2
f 3/30/20 4/41/30 15/31/21
f 14/22/12 15/31/21 25/32/22
f 24/23/13 25/32/22 35/33/23
f 35/33/23 45/34/24 44/25/15
f 45/34/24 55/46/35 54/26/16
f 54/26/16 55/46/35 65/35/25
f 65/35/25 75/36/26 74/28/18
f 75/36/26 85/38/28 84/37/27
f 85/38/28 95/39/29 94/29/19
f 95/39/29 4/50/30 3/40/20
f 4/41/30 5/52/38 16/42/31
f 16/42/31 26/43/32 25/32/22
f 26/43/32 36/44/33 35/33/23
f 36/44/33 46/45/34 45/34/24
f 46/45/34 56/57/44 55/46/35
f 55/46/35 56/57/44 66/47/36
f 66/47/36 76/60/47 75/36/26
f 75/36/26 76/60/47 86/48/37
f 86/48/37 96/62/49 95/39/29
f 95/39/29 96/62/49 5/49/38
f 6/51/39 17/64/51 16/42/31
f 16/42/31 17/64/51 27/53/40
f 26/43/32 27/53/40 37/54/41
f 36/44/33 37/54/41 47/55/42
f 46/45/34 47/55/42 57/56/43
f 56/57/44 57/56/43 67/58/45
f 66/47/36 67/58/45 77/59/46
f 77/59/46 87/70/57 86/48/37
f 86/48/37 87/70/57 97/61/48
f 97/61/48 6/72/39 5/49/38
f 7/63/50 18/74/60 17/64/51
f 17/64/51 18/74/60 28/65/52
f 28/65/52 38/76/62 37/54/41
f 37/54/41 38/76/62 48/66/53
f 47/55/42 48/66/53 58/67/54
f 58/67/54 68/68/55 67/58/45
f 68/68/55 78/69/56 77/59/46
f 78/69/56 88/81/67 87/70/57
f 87/70/57 88/81/67 98/71/58
f 98/71/58 7/84/50 6/72/39
f 7/63/50 8/85/70 19/73/59
f 19/73/59 29/75/61 28/65/52
f 29/75/61 39/88/73 38/76/62
f 38/76/62 39/88/73 49/77/63
f 49/77/63 59/78/64 58/67/54
f 59/78/64 69/79/65 68/68/55
f 69/79/65 79/80/66 78/69/56
f 79/80/66 89/82/68 88/81/67
f 89/82/68 99/83/69 98/71/58
f 99/83/69 8/94/70 7/84/50
f 8/85/70 9/96/78 20/86/71
f 20/86/71 30/98/81 29/75/61
f 29/75/61 30/98/81 40/87/72
f 40/87/72 50/89/74 49/77/63
f 50/89/74 60/102/85 59/78/64
f 59/78/64 60/102/85 70/90/75
f 69/79/65 70/90/75 80/91/76
f 80/91/76 90/92/77 89/82/68
f 90/92/77 100/106/89 99/83/69
f 99/83/69 100/106/89 9/93/78
f 10/95/79 21/97/80 20/86/71
f 21/97/80 31/99/82 30/98/81
f 31/99/82 41/100/83 40/87/72
f 41/100/83 51/101/84 50/89/74
f 51/101/84 61/113/96 60/102/85
f 60/102/85 61/113/96 71/103/86
f 71/103/86 81/104/87 80/91/76
f 81/104/87 91/105/88 90/92/77
f 91/105/88 101/107/90 100/106/89
f 101/107/90 10/117/79 9/93/78
f 11/108/91 22/109/92 21/97/80
f 22/109/92 32/110/93 31/99/82
f 32/110/93 42/111/94 41/100/83
f 42/111/94 52/122/101 51/101/84
f 51/101/84 52/122/101 62/112/95
f 61/113/96 62/112/95 72/114/97
f 72/114/97 82/115/98 81/104/87
f 82/115/98 92/127/102 91/105/88
f 91/105/88 92/127/102 102/116/99
f 102/116/99 11/130/91 10/117/79
