# Blender 4.0.2
# www.blender.org
mtllib Key.mtl
o Key
v 0.055166 0.000000 0.000000
v 0.047054 0.014052 0.000000
v 0.030828 0.014052 0.000000
v 0.022716 0.000000 0.000000
v 0.030828 -0.014052 0.000000
v 0.047054 -0.014052 0.000000
v 0.039009 0.000000 -0.039009
v 0.033272 0.014052 -0.033272
v 0.021799 0.014052 -0.021799
v 0.016062 0.000000 -0.016062
v 0.021799 -0.014052 -0.021799
v 0.033272 -0.014052 -0.033272
v 0.000000 0.000000 -0.055166
v 0.000000 0.014052 -0.047054
v 0.000000 0.014052 -0.030828
v 0.000000 0.000000 -0.022716
v 0.000000 -0.014052 -0.030828
v 0.000000 -0.014052 -0.047054
v -0.039009 0.000000 -0.039009
v -0.033272 0.014052 -0.033272
v -0.021799 0.014052 -0.021799
v -0.016062 0.000000 -0.016062
v -0.021799 -0.014052 -0.021799
v -0.033272 -0.014052 -0.033272
v -0.055166 0.000000 -0.000000
v -0.047054 0.014052 -0.000000
v -0.030828 0.014052 -0.000000
v -0.022716 0.000000 -0.000000
v -0.030828 -0.014052 -0.000000
v -0.047054 -0.014052 -0.000000
v -0.039009 0.000000 0.039009
v -0.033272 0.014052 0.033272
v -0.021799 0.014052 0.021799
v -0.016062 0.000000 0.016062
v -0.021799 -0.014052 0.021799
v -0.033272 -0.014052 0.033272
v 0.000000 0.014052 0.030828
v 0.000000 0.000000 0.022716
v 0.000000 -0.014052 0.030828
v 0.039009 0.000000 0.039009
v 0.033272 0.014052 0.033272
v 0.021799 0.014052 0.021799
v 0.016062 0.000000 0.016062
v 0.021799 -0.014052 0.021799
v 0.033272 -0.014052 0.033272
v 0.017000 0.014052 0.040012
v -0.018222 -0.014052 0.039506
v -0.018222 0.014052 0.039506
v -0.021805 0.000000 0.046135
v 0.017000 -0.014052 0.040012
v 0.019678 0.000000 0.047016
v -0.021353 0.000000 0.139596
v -0.021353 0.000000 0.200758
v -0.018079 0.013260 0.139596
v -0.018079 -0.013260 0.139596
v -0.021353 0.000000 0.188920
v -0.018079 0.013260 0.188920
v -0.018079 -0.013260 0.188920
v -0.018079 0.013260 0.200758
v -0.018079 -0.013260 0.200758
v 0.016906 0.013260 0.200758
v 0.016906 -0.013260 0.200758
v 0.019490 0.000000 0.200758
v -0.058456 0.013260 0.139596
v -0.058456 -0.013260 0.139596
v -0.058456 0.013260 0.188920
v -0.058456 -0.013260 0.188920
vn -0.6124 0.5000 -0.6124
vn -0.0000 0.5000 -0.8660
vn 0.8660 0.5000 -0.0000
vn 0.6124 0.5000 0.6124
vn 0.6124 -0.5000 0.6124
vn -0.0000 -0.5000 0.8660
vn -0.0000 -0.0000 1.0000
vn -0.6124 -0.5000 0.6124
vn -0.8660 -0.5000 -0.0000
vn -0.6124 -0.5000 -0.6124
vn -0.0000 -0.5000 -0.8660
vn -0.9708 -0.2397 -0.0000
vn -1.0000 -0.0000 -0.0000
vn 0.6124 0.5000 -0.6124
vn -0.0000 0.5000 0.8660
vn 0.6124 -0.5000 -0.6124
vn 0.8660 -0.5000 -0.0000
vn -0.8660 0.5000 -0.0000
vn -0.0000 -1.0000 -0.0000
vn -0.6124 0.5000 0.6124
vn -0.3377 -0.4706 0.8152
vn 0.3377 -0.4706 0.8152
vn -0.3377 0.4706 0.8152
vn -0.0007 -1.0000 0.0027
vn -0.0000 -1.0000 0.0028
vn 0.9816 0.1911 0.0012
vn 1.0000 -0.0000 0.0015
vn 0.9822 0.1880 0.0015
vn -1.0000 -0.0000 0.0036
vn -0.9706 -0.2406 0.0046
vn -1.0000 -0.0000 0.0048
vn 0.9816 -0.1911 0.0012
vn 0.9822 -0.1880 0.0015
vn -0.0000 1.0000 -0.0000
vn -0.9706 0.2406 0.0046
vn -0.9686 0.2486 0.0034
vn -0.0028 -1.0000 0.0016
vn 0.3377 0.4706 0.8152
vn -0.0042 -1.0000 0.0030
vn -0.0028 1.0000 0.0016
vn -0.0007 1.0000 0.0027
vn -0.0042 1.0000 0.0030
vn -0.0000 1.0000 0.0028
vn -0.0000 -0.0000 -1.0000
vn -0.9708 0.2397 -0.0000
vn 1.0000 -0.0000 0.0012
vn -0.9686 -0.2486 0.0034
vt 0.875000 0.666667
vt 0.750000 0.500000
vt 0.875000 0.500000
vt 0.500000 0.666667
vt 0.375000 0.500000
vt 0.500000 0.500000
vt 0.875000 0.166667
vt 0.750000 -0.000000
vt 0.875000 -0.000000
vt 0.181543 0.333333
vt 0.313057 0.500000
vt 0.180129 0.500000
vt 0.125000 0.333333
vt 0.000000 0.500000
vt 0.000000 0.333333
vt 0.375000 0.166667
vt 0.250000 -0.000000
vt 0.375000 -0.000000
vt 0.625000 0.166667
vt 0.625000 -0.000000
vt 1.000000 1.000000
vt 0.875000 0.833333
vt 1.000000 0.833333
vt 0.375000 1.000000
vt 0.250000 0.833333
vt 0.375000 0.833333
vt 0.750000 0.333333
vt 0.875000 0.333333
vt 0.250000 1.000000
vt 0.125000 0.833333
vt 0.875000 1.000000
vt 0.750000 0.833333
vt 0.500000 -0.000000
vt 0.125000 0.166667
vt 0.000000 -0.000000
vt 0.125000 -0.000000
vt 1.000000 0.166667
vt 1.000000 -0.000000
vt 1.000000 0.333333
vt 1.000000 0.666667
vt 1.000000 0.500000
vt 0.500000 0.333333
vt 0.625000 0.500000
vt 0.125000 0.666667
vt 0.125000 0.500000
vt 0.000000 1.000000
vt 0.000000 0.833333
vt 0.375000 0.333333
vt 0.250000 0.166667
vt 0.500000 1.000000
vt 0.500000 0.833333
vt 0.625000 0.333333
vt 0.625000 0.666667
vt 0.750000 1.000000
vt 0.625000 0.833333
vt 0.181543 0.666667
vt 0.625000 1.000000
vt 0.313866 0.666667
vt 0.313866 0.333333
vt 0.750000 0.666667
vt 0.000000 0.666667
vt 0.375000 0.666667
vt 0.750000 0.166667
vt 0.000000 0.166667
vt 0.500000 0.166667
vt 0.125000 1.000000
s 1
f 20/1/1 13/2/2 19/3/1
f 2/4/3 40/5/4 1/6/3
f 23/7/5 16/8/6 22/9/5
f 60/10/7 63/11/7 53/12/7
f 36/13/8 25/14/9 30/15/9
f 44/16/10 38/17/11 43/18/10
f 16/8/6 11/19/8 10/20/8
f 28/21/3 21/22/4 27/23/3
f 43/24/1 37/25/2 42/26/1
f 19/3/10 18/27/11 24/28/10
f 60/10/12 56/12/13 58/10/12
f 38/29/2 33/30/14 37/25/2
f 22/31/4 15/32/15 21/22/4
f 11/19/8 4/33/9 10/20/8
f 35/34/16 28/35/17 34/36/16
f 29/37/17 22/9/5 28/38/17
f 30/39/9 19/3/10 24/28/10
f 26/40/18 19/3/1 25/41/18
f 6/42/17 7/43/16 1/6/17
f 18/27/19 23/7/19 24/28/19
f 32/44/20 25/14/18 31/45/20
f 33/30/14 28/46/3 27/47/3
f 7/43/14 2/4/3 1/6/3
f 36/13/8 49/12/21 31/45/8
f 44/16/19 6/42/19 45/48/19
f 39/49/11 34/36/16 38/17/11
f 4/50/18 42/26/1 3/51/18
f 18/27/11 7/43/16 12/52/16
f 13/2/2 8/53/14 7/43/14
f 16/54/15 9/55/20 15/32/15
f 66/56/7 56/12/7 57/56/7
f 6/42/17 40/5/5 45/48/5
f 4/33/9 44/16/10 43/18/10
f 10/57/20 3/51/18 9/55/20
f 59/56/7 63/11/7 61/58/7
f 51/11/22 45/48/5 40/5/5
f 49/12/23 32/44/20 31/45/20
f 39/49/19 50/59/24 47/10/25
f 61/58/26 51/11/27 46/58/28
f 49/12/29 55/10/30 52/12/31
f 44/16/19 50/59/24 39/49/19
f 51/11/27 62/59/32 50/59/33
f 57/56/34 64/56/34 66/56/34
f 67/10/13 64/56/13 65/10/13
f 14/60/34 9/55/34 8/53/34
f 67/10/7 58/10/7 56/12/7
f 49/12/29 54/56/35 48/56/36
f 9/55/34 2/4/34 8/53/34
f 32/44/34 27/47/34 26/61/34
f 27/23/34 20/1/34 26/40/34
f 24/28/19 29/37/19 30/39/19
f 62/59/37 60/10/19 58/10/19
f 51/11/38 41/62/4 46/58/38
f 50/59/24 62/59/37 55/10/39
f 62/59/37 58/10/19 55/10/39
f 42/26/34 2/4/34 3/51/34
f 14/60/34 21/22/34 15/32/34
f 50/59/24 55/10/39 47/10/25
f 47/10/25 36/13/19 35/34/19
f 17/63/19 12/52/19 11/19/19
f 35/34/19 39/49/19 47/10/25
f 57/56/34 59/56/34 61/58/40
f 46/58/41 42/26/34 37/25/34
f 57/56/34 61/58/40 54/56/42
f 61/58/40 46/58/41 54/56/42
f 65/10/19 58/10/19 67/10/19
f 29/64/19 36/13/19 30/15/19
f 32/44/34 48/56/43 33/30/34
f 48/56/43 54/56/42 46/58/41
f 12/52/19 5/65/19 11/19/19
f 33/30/34 48/56/43 37/25/34
f 48/56/43 46/58/41 37/25/34
f 64/56/44 54/56/44 52/12/44
f 52/12/44 65/10/44 64/56/44
f 53/12/13 57/56/45 56/12/13
f 20/1/1 14/60/2 13/2/2
f 2/4/3 41/62/4 40/5/4
f 23/7/5 17/63/6 16/8/6
f 60/10/7 62/59/7 63/11/7
f 36/13/8 31/45/8 25/14/9
f 44/16/10 39/49/11 38/17/11
f 16/8/6 17/63/6 11/19/8
f 28/21/3 22/31/4 21/22/4
f 43/24/1 38/29/2 37/25/2
f 19/3/10 13/2/11 18/27/11
f 60/10/12 53/12/13 56/12/13
f 38/29/2 34/66/14 33/30/14
f 22/31/4 16/54/15 15/32/15
f 11/19/8 5/65/9 4/33/9
f 35/34/16 29/64/17 28/35/17
f 29/37/17 23/7/5 22/9/5
f 30/39/9 25/41/9 19/3/10
f 26/40/18 20/1/1 19/3/1
f 6/42/17 12/52/16 7/43/16
f 18/27/19 17/63/19 23/7/19
f 32/44/20 26/61/18 25/14/18
f 33/30/14 34/66/14 28/46/3
f 7/43/14 8/53/14 2/4/3
f 36/13/8 47/10/21 49/12/21
f 44/16/19 5/65/19 6/42/19
f 39/49/11 35/34/16 34/36/16
f 4/50/18 43/24/1 42/26/1
f 18/27/11 13/2/11 7/43/16
f 13/2/2 14/60/2 8/53/14
f 16/54/15 10/57/20 9/55/20
f 66/56/7 67/10/7 56/12/7
f 6/42/17 1/6/17 40/5/5
f 4/33/9 5/65/9 44/16/10
f 10/57/20 4/50/18 3/51/18
f 59/56/7 53/12/7 63/11/7
f 51/11/22 50/59/22 45/48/5
f 49/12/23 48/56/23 32/44/20
f 61/58/26 63/11/46 51/11/27
f 49/12/29 47/10/47 55/10/30
f 44/16/19 45/48/19 50/59/24
f 51/11/27 63/11/46 62/59/32
f 57/56/34 54/56/42 64/56/34
f 67/10/13 66/56/13 64/56/13
f 14/60/34 15/32/34 9/55/34
f 49/12/29 52/12/31 54/56/35
f 9/55/34 3/51/34 2/4/34
f 32/44/34 33/30/34 27/47/34
f 27/23/34 21/22/34 20/1/34
f 24/28/19 23/7/19 29/37/19
f 51/11/38 40/5/4 41/62/4
f 42/26/34 41/62/34 2/4/34
f 14/60/34 20/1/34 21/22/34
f 17/63/19 18/27/19 12/52/19
f 46/58/41 41/62/34 42/26/34
f 65/10/19 55/10/39 58/10/19
f 29/64/19 35/34/19 36/13/19
f 12/52/19 6/42/19 5/65/19
f 52/12/44 55/10/44 65/10/44
f 53/12/13 59/56/45 57/56/45
