# Blender 4.0.2
# www.blender.org
mtllib CutlerySpoonTea.mtl
o CutlerySpoonTea
v 0.000000 0.000403 -0.135271
v 0.006377 -0.001674 -0.132928
v 0.011898 -0.004070 -0.126861
v 0.014390 -0.004070 -0.115323
v 0.012209 -0.000696 -0.098369
v 0.005114 0.000403 -0.090532
v 0.002993 0.000792 -0.086846
v 0.005946 0.002726 -0.020788
v 0.006367 0.002858 -0.014638
v 0.006271 0.002479 -0.010596
v 0.004630 0.001143 -0.003142
v 0.000000 0.000403 0.000000
v -0.006377 -0.001674 -0.132928
v -0.011898 -0.004070 -0.126861
v -0.014390 -0.004070 -0.115323
v -0.012209 -0.000696 -0.098369
v -0.005114 0.000403 -0.090532
v -0.002993 0.000792 -0.086846
v -0.005946 0.002726 -0.020788
v -0.006367 0.002858 -0.014638
v -0.006271 0.002479 -0.010596
v -0.004630 0.001143 -0.003142
v 0.014101 -0.002183 -0.102552
v -0.014101 -0.002183 -0.102552
v 0.004475 0.003557 -0.053704
v -0.004475 0.003557 -0.053704
v 0.000000 -0.001599 -0.132928
v 0.000000 -0.003963 -0.126861
v 0.000000 -0.003956 -0.115323
v 0.000000 -0.000632 -0.098369
v 0.000000 0.000402 -0.090532
v 0.000000 0.000792 -0.086846
v 0.000000 0.001257 -0.020788
v 0.000000 0.001389 -0.014638
v 0.000000 0.001011 -0.010596
v 0.000000 -0.000326 -0.003142
v 0.000000 -0.002062 -0.102552
v 0.000000 0.003557 -0.053704
v -0.000000 0.000602 -0.131324
v 0.005286 0.000008 -0.129940
v 0.010070 -0.000744 -0.125451
v 0.012386 -0.000579 -0.115400
v 0.010492 0.001048 -0.100418
v 0.004177 0.001678 -0.092972
v 0.002993 0.004397 -0.087192
v 0.005946 0.006347 -0.020784
v 0.006367 0.006477 -0.014505
v 0.006271 0.006069 -0.010119
v 0.004630 0.004698 -0.002455
v 0.000000 0.003928 0.000829
v -0.005286 0.000008 -0.129940
v -0.010070 -0.000744 -0.125451
v -0.012386 -0.000579 -0.115400
v -0.010492 0.001048 -0.100418
v -0.004177 0.001678 -0.092972
v -0.002993 0.004397 -0.087192
v -0.005946 0.006347 -0.020784
v -0.006367 0.006477 -0.014505
v -0.006271 0.006069 -0.010119
v -0.004630 0.004698 -0.002455
v 0.012112 0.000315 -0.103796
v -0.012112 0.000315 -0.103796
v 0.004475 0.007177 -0.053804
v -0.004475 0.007177 -0.053804
v 0.000000 -0.000605 -0.126185
v 0.000000 -0.000576 -0.115587
v 0.000000 0.001195 -0.099233
v 0.000000 0.001678 -0.092953
v 0.000000 0.004397 -0.087186
v 0.000000 0.007410 -0.020781
v 0.000000 0.007539 -0.014508
v 0.000000 0.007130 -0.010107
v 0.000000 0.005751 -0.002408
v 0.000000 0.000387 -0.103428
v 0.000000 0.007177 -0.053809
v 0.000000 0.002688 -0.132867
v 0.006377 0.001121 -0.131406
v 0.011898 -0.000584 -0.126419
v 0.014390 -0.000563 -0.115605
v 0.014101 0.000886 -0.103374
v 0.012209 0.002071 -0.099376
v 0.005114 0.003281 -0.090997
v -0.006377 0.001121 -0.131406
v -0.011898 -0.000584 -0.126419
v -0.014390 -0.000563 -0.115605
v -0.014101 0.000886 -0.103374
v -0.012209 0.002071 -0.099376
v -0.005114 0.003281 -0.090997
v 0.000000 0.003083 -0.090974
vn -0.0000 -0.7602 -0.6497
vn -0.0000 -0.8577 -0.5142
vn 0.0093 -0.9111 -0.4122
vn -0.0000 -0.9829 -0.1840
vn -0.0000 -0.9973 0.0740
vn 0.0085 -0.9929 -0.1188
vn -0.0000 -0.9715 0.2371
vn 0.0069 -0.9620 0.2729
vn 0.0082 -0.9742 0.2256
vn -0.0000 -0.9734 0.2292
vn 0.0020 -0.9923 0.1241
vn -0.0000 -0.9930 0.1180
vn -0.0000 -0.9954 0.0956
vn -0.0000 -0.9992 -0.0393
vn -0.2257 -0.9687 -0.1037
vn -0.2246 -0.9736 -0.0405
vn -0.0000 -0.9928 -0.1194
vn -0.7225 -0.6051 0.3345
vn -0.0000 -1.0000 -0.0089
vn -0.0141 -0.9999 0.0065
vn -0.0000 -1.0000 0.0067
vn -0.0000 -0.6477 0.7619
vn -0.0000 -0.9997 0.0244
vn 0.7225 -0.6051 0.3345
vn -0.2358 -0.9718 -0.0104
vn 0.0079 -0.9969 0.0788
vn -0.0000 -0.9956 0.0942
vn -0.0082 -0.9742 0.2256
vn -0.0079 -0.9969 0.0788
vn 0.2358 -0.9718 -0.0104
vn 0.0141 -0.9999 0.0065
vn 0.2257 -0.9687 -0.1037
vn 0.2246 -0.9736 -0.0405
vn -0.0020 -0.9923 0.1241
vn -0.0069 -0.9620 0.2729
vn -0.0085 -0.9929 -0.1188
vn -0.0093 -0.9111 -0.4122
vn 0.0896 0.9202 0.3810
vn -0.0000 0.9945 0.1045
vn -0.0000 0.8200 0.5723
vn 0.0174 0.9939 0.1090
vn -0.0000 0.9991 -0.0435
vn -0.0000 0.9905 -0.1376
vn 0.1601 0.9471 -0.2782
vn -0.0000 0.9915 -0.1302
vn 0.1377 0.9156 -0.3777
vn -0.0000 0.9401 -0.3409
vn -0.0000 0.8881 -0.4597
vn 0.0119 0.9769 -0.2135
vn -0.0000 0.9784 -0.2069
vn -0.1652 0.9857 0.0323
vn -0.0000 0.9893 0.1457
vn -0.0000 0.9995 0.0330
vn -0.1990 0.9409 0.2742
vn -0.0000 0.9433 0.3318
vn -0.0102 0.9990 -0.0426
vn -0.0000 1.0000 -0.0028
vn -0.0000 0.9990 -0.0451
vn -0.0000 0.8714 0.4906
vn -0.1729 0.9849 -0.0052
vn 0.1226 0.9767 -0.1762
vn -0.0119 0.9769 -0.2135
vn 0.0102 0.9990 -0.0426
vn -0.1226 0.9767 -0.1762
vn -0.0064 0.9989 -0.0473
vn 0.1729 0.9849 -0.0052
vn 0.1652 0.9857 0.0323
vn 0.1990 0.9409 0.2742
vn 0.1652 0.9751 0.1479
vn -0.1634 0.8639 -0.4764
vn -0.1377 0.9156 -0.3777
vn -0.1601 0.9471 -0.2782
vn -0.0174 0.9939 0.1090
vn -0.0896 0.9202 0.3810
vn -0.0000 0.6643 -0.7475
vn 0.5538 0.4331 -0.7112
vn 0.5798 0.3594 -0.7312
vn 0.8891 0.0834 -0.4500
vn 0.8960 0.0559 -0.4406
vn 0.9950 -0.0033 -0.0996
vn 0.9947 -0.0083 -0.1028
vn 0.8412 0.1693 0.5136
vn 0.9780 0.0595 0.1997
vn 0.8486 0.1811 0.4971
vn 0.8169 0.0951 0.5689
vn 0.8118 0.0932 0.5765
vn 0.9735 0.0280 0.2269
vn 0.9775 0.0202 0.2100
vn 0.9990 -0.0013 -0.0444
vn 0.9984 0.0004 -0.0563
vn 0.9984 0.0001 -0.0565
vn 0.9997 -0.0001 -0.0225
vn 0.9997 0.0008 -0.0226
vn 0.9934 -0.0147 0.1140
vn 0.9932 -0.0170 0.1152
vn 0.8389 -0.1016 0.5347
vn 0.5781 -0.1755 0.7969
vn -0.5538 0.4331 -0.7112
vn -0.0000 0.7249 -0.6889
vn -0.5798 0.3594 -0.7312
vn -0.8891 0.0834 -0.4500
vn -0.9950 -0.0033 -0.0996
vn -0.8960 0.0559 -0.4406
vn -0.8412 0.1693 0.5136
vn -0.9780 0.0595 0.1997
vn -0.9768 0.0555 0.2070
vn -0.8169 0.0951 0.5689
vn -0.8486 0.1811 0.4971
vn -0.9735 0.0280 0.2269
vn -0.8118 0.0932 0.5765
vn -0.9990 -0.0013 -0.0444
vn -0.9984 0.0004 -0.0563
vn -0.9990 -0.0012 -0.0444
vn -0.9997 -0.0001 -0.0225
vn -0.9984 0.0001 -0.0565
vn -0.9934 -0.0147 0.1140
vn -0.9997 0.0008 -0.0226
vn -0.9932 -0.0170 0.1152
vn -0.8389 -0.1016 0.5347
vn -0.5781 -0.1755 0.7969
vn 0.9768 0.0555 0.2070
vn -0.9947 -0.0083 -0.1028
vn 0.9990 -0.0012 -0.0444
vn -0.9775 0.0202 0.2100
vn -0.1368 0.8336 0.5352
vn -0.0000 0.5946 0.8040
vn -0.0312 0.9984 -0.0465
vn -0.0128 0.9901 0.1397
vn -0.2422 0.9426 -0.2300
vn -0.3086 0.8730 -0.3776
vn 0.1368 0.8336 0.5352
vn 0.0128 0.9901 0.1397
vn 0.0312 0.9984 -0.0465
vn 0.0064 0.9989 -0.0473
vn 0.2422 0.9426 -0.2300
vn 0.3086 0.8730 -0.3776
vn 0.1634 0.8639 -0.4764
vn -0.1652 0.9751 0.1479
vt 0.000000 0.000000
s 1
f 1/1/1 27/1/2 13/1/3
f 28/1/4 13/1/3 27/1/2
f 29/1/5 14/1/6 28/1/4
f 37/1/7 16/1/8 24/1/9
f 30/1/10 17/1/11 16/1/8
f 31/1/12 18/1/13 17/1/11
f 34/1/14 21/1/15 20/1/16
f 35/1/17 22/1/18 21/1/15
f 33/1/19 26/1/20 38/1/21
f 12/1/22 36/1/23 11/1/24
f 34/1/14 19/1/25 33/1/19
f 29/1/5 24/1/9 15/1/26
f 38/1/21 18/1/13 32/1/27
f 7/1/13 38/1/21 32/1/27
f 23/1/28 29/1/5 4/1/29
f 8/1/30 34/1/14 33/1/19
f 25/1/31 33/1/19 38/1/21
f 11/1/24 35/1/17 10/1/32
f 10/1/32 34/1/14 9/1/33
f 7/1/13 31/1/12 6/1/34
f 6/1/34 30/1/10 5/1/35
f 5/1/35 37/1/7 23/1/28
f 3/1/36 29/1/5 28/1/4
f 2/1/37 28/1/4 27/1/2
f 51/1/38 65/1/39 39/1/40
f 52/1/41 66/1/42 65/1/39
f 74/1/43 54/1/44 67/1/45
f 67/1/45 55/1/46 68/1/47
f 89/1/48 56/1/49 69/1/50
f 58/1/51 72/1/52 71/1/53
f 72/1/52 60/1/54 73/1/55
f 64/1/56 70/1/57 75/1/58
f 50/1/59 73/1/55 60/1/54
f 57/1/60 71/1/53 70/1/57
f 66/1/42 62/1/61 74/1/43
f 56/1/49 75/1/58 69/1/50
f 45/1/62 75/1/58 63/1/63
f 66/1/42 61/1/64 42/1/65
f 46/1/66 71/1/53 47/1/67
f 63/1/63 70/1/57 46/1/66
f 72/1/52 49/1/68 48/1/69
f 47/1/67 72/1/52 48/1/69
f 89/1/48 45/1/62 82/1/70
f 67/1/45 44/1/71 43/1/72
f 74/1/43 43/1/72 61/1/64
f 41/1/73 66/1/42 42/1/65
f 40/1/74 65/1/39 41/1/73
f 1/1/75 77/1/76 2/1/77
f 2/1/77 78/1/78 3/1/79
f 4/1/80 78/1/78 79/1/81
f 5/1/82 80/1/83 81/1/84
f 5/1/82 82/1/85 6/1/86
f 7/1/87 82/1/85 45/1/88
f 25/1/89 46/1/90 8/1/91
f 9/1/92 46/1/90 47/1/93
f 9/1/92 48/1/94 10/1/95
f 10/1/95 49/1/96 11/1/24
f 11/1/24 50/1/97 12/1/22
f 1/1/75 83/1/98 76/1/99
f 13/1/100 84/1/101 83/1/98
f 15/1/102 84/1/101 14/1/103
f 16/1/104 86/1/105 24/1/106
f 16/1/104 88/1/107 87/1/108
f 18/1/109 88/1/107 17/1/110
f 26/1/111 57/1/112 64/1/113
f 20/1/114 57/1/112 19/1/115
f 20/1/114 59/1/116 58/1/117
f 21/1/118 60/1/119 59/1/116
f 22/1/18 50/1/120 60/1/119
f 4/1/80 80/1/83 23/1/121
f 15/1/102 86/1/105 85/1/122
f 25/1/89 45/1/88 63/1/123
f 26/1/111 56/1/124 18/1/109
f 39/1/40 77/1/125 76/1/126
f 41/1/73 77/1/125 40/1/74
f 41/1/73 79/1/127 78/1/128
f 43/1/72 80/1/129 61/1/64
f 44/1/71 81/1/130 43/1/72
f 39/1/40 83/1/131 51/1/38
f 52/1/41 83/1/131 84/1/132
f 52/1/41 85/1/133 53/1/134
f 54/1/44 86/1/135 87/1/136
f 55/1/46 87/1/136 88/1/137
f 55/1/46 89/1/48 68/1/47
f 61/1/64 79/1/127 42/1/65
f 62/1/61 85/1/133 86/1/135
f 44/1/71 89/1/48 82/1/70
f 1/1/1 2/1/37 27/1/2
f 28/1/4 14/1/6 13/1/3
f 29/1/5 15/1/26 14/1/6
f 37/1/7 30/1/10 16/1/8
f 30/1/10 31/1/12 17/1/11
f 31/1/12 32/1/27 18/1/13
f 34/1/14 35/1/17 21/1/15
f 35/1/17 36/1/23 22/1/18
f 33/1/19 19/1/25 26/1/20
f 12/1/22 22/1/18 36/1/23
f 34/1/14 20/1/16 19/1/25
f 29/1/5 37/1/7 24/1/9
f 38/1/21 26/1/20 18/1/13
f 7/1/13 25/1/31 38/1/21
f 23/1/28 37/1/7 29/1/5
f 8/1/30 9/1/33 34/1/14
f 25/1/31 8/1/30 33/1/19
f 11/1/24 36/1/23 35/1/17
f 10/1/32 35/1/17 34/1/14
f 7/1/13 32/1/27 31/1/12
f 6/1/34 31/1/12 30/1/10
f 5/1/35 30/1/10 37/1/7
f 3/1/36 4/1/29 29/1/5
f 2/1/37 3/1/36 28/1/4
f 51/1/38 52/1/41 65/1/39
f 52/1/41 53/1/134 66/1/42
f 74/1/43 62/1/61 54/1/44
f 67/1/45 54/1/44 55/1/46
f 89/1/48 88/1/137 56/1/49
f 58/1/51 59/1/138 72/1/52
f 72/1/52 59/1/138 60/1/54
f 64/1/56 57/1/60 70/1/57
f 50/1/59 49/1/68 73/1/55
f 57/1/60 58/1/51 71/1/53
f 66/1/42 53/1/134 62/1/61
f 56/1/49 64/1/56 75/1/58
f 45/1/62 69/1/50 75/1/58
f 66/1/42 74/1/43 61/1/64
f 46/1/66 70/1/57 71/1/53
f 63/1/63 75/1/58 70/1/57
f 72/1/52 73/1/55 49/1/68
f 47/1/67 71/1/53 72/1/52
f 89/1/48 69/1/50 45/1/62
f 67/1/45 68/1/47 44/1/71
f 74/1/43 67/1/45 43/1/72
f 41/1/73 65/1/39 66/1/42
f 40/1/74 39/1/40 65/1/39
f 1/1/75 76/1/99 77/1/76
f 2/1/77 77/1/76 78/1/78
f 4/1/80 3/1/79 78/1/78
f 5/1/82 23/1/121 80/1/83
f 5/1/82 81/1/84 82/1/85
f 7/1/87 6/1/86 82/1/85
f 25/1/89 63/1/123 46/1/90
f 9/1/92 8/1/91 46/1/90
f 9/1/92 47/1/93 48/1/94
f 10/1/95 48/1/94 49/1/96
f 11/1/24 49/1/96 50/1/97
f 1/1/75 13/1/100 83/1/98
f 13/1/100 14/1/103 84/1/101
f 15/1/102 85/1/122 84/1/101
f 16/1/104 87/1/108 86/1/105
f 16/1/104 17/1/110 88/1/107
f 18/1/109 56/1/124 88/1/107
f 26/1/111 19/1/115 57/1/112
f 20/1/114 58/1/117 57/1/112
f 20/1/114 21/1/118 59/1/116
f 21/1/118 22/1/18 60/1/119
f 22/1/18 12/1/22 50/1/120
f 4/1/80 79/1/81 80/1/83
f 15/1/102 24/1/106 86/1/105
f 25/1/89 7/1/87 45/1/88
f 26/1/111 64/1/113 56/1/124
f 39/1/40 40/1/74 77/1/125
f 41/1/73 78/1/128 77/1/125
f 41/1/73 42/1/65 79/1/127
f 43/1/72 81/1/130 80/1/129
f 44/1/71 82/1/70 81/1/130
f 39/1/40 76/1/126 83/1/131
f 52/1/41 51/1/38 83/1/131
f 52/1/41 84/1/132 85/1/133
f 54/1/44 62/1/61 86/1/135
f 55/1/46 54/1/44 87/1/136
f 55/1/46 88/1/137 89/1/48
f 61/1/64 80/1/129 79/1/127
f 62/1/61 53/1/134 85/1/133
f 44/1/71 68/1/47 89/1/48
