# Blender 4.0.2
# www.blender.org
mtllib Cassette.mtl
o Cassette.001
v -0.092496 -0.049774 0.014356
v -0.090445 -0.047702 0.016768
v -0.083772 -0.055606 0.016768
v -0.084251 -0.058019 0.014356
v -0.091004 -0.053375 0.014356
v -0.087853 -0.056527 0.014356
v -0.087889 -0.053901 0.016768
v -0.084100 0.055606 0.016768
v -0.084251 0.058019 0.014356
v -0.090431 0.048160 0.016768
v -0.092496 0.049774 0.014356
v -0.087853 0.056527 0.014356
v -0.091004 0.053375 0.014356
v -0.088011 0.053992 0.016768
v -0.083284 -0.055809 -0.016768
v -0.084251 -0.058019 -0.014356
v -0.090357 -0.048634 -0.016768
v -0.092496 -0.049774 -0.014356
v -0.088235 -0.053758 -0.016768
v -0.087853 -0.056527 -0.014356
v -0.091004 -0.053375 -0.014356
v -0.092496 0.049774 -0.014356
v -0.090368 0.048009 -0.016768
v -0.083772 0.055606 -0.016768
v -0.084251 0.058019 -0.014356
v -0.087853 0.056527 -0.014356
v -0.087947 0.053877 -0.016768
v -0.091004 0.053375 -0.014356
v 0.084251 -0.058019 0.014356
v 0.083512 -0.055606 0.016768
v 0.092496 -0.049774 0.014356
v 0.090272 -0.049123 0.016768
v 0.091004 -0.053375 0.014356
v 0.088439 -0.053562 0.016768
v 0.087853 -0.056527 0.014356
v 0.092496 0.049774 0.014356
v 0.090280 0.048382 0.016768
v 0.083772 0.055606 0.016768
v 0.084251 0.058019 0.014356
v 0.091004 0.053375 0.014356
v 0.087853 0.056527 0.014356
v 0.088024 0.053845 0.016768
v 0.090084 -0.049294 -0.016768
v 0.092496 -0.049774 -0.014356
v 0.082797 -0.055817 -0.016768
v 0.084251 -0.058019 -0.014356
v 0.088328 -0.053533 -0.016768
v 0.091004 -0.053375 -0.014356
v 0.087853 -0.056527 -0.014356
v 0.084055 0.055606 -0.016768
v 0.084251 0.058019 -0.014356
v 0.090084 0.049035 -0.016768
v 0.092496 0.049774 -0.014356
v 0.087853 0.056527 -0.014356
v 0.091004 0.053375 -0.014356
v 0.088040 0.053961 -0.016768
v 0.023685 0.006526 0.014356
v 0.021273 0.003330 0.016768
v 0.025103 0.002162 0.014356
v 0.036755 -0.006303 0.014356
v 0.038988 -0.009565 0.016768
v 0.041343 -0.006303 0.014356
v 0.031848 -0.004709 0.014356
v 0.028136 -0.002012 0.014356
v 0.028063 -0.006015 0.016768
v 0.054412 0.006526 0.014356
v 0.052994 0.002162 0.014356
v 0.056824 0.003268 0.016768
v 0.054412 0.011685 0.014356
v 0.056824 0.015321 0.016768
v 0.052994 0.016049 0.014356
v 0.049961 -0.002012 0.014356
v 0.046250 -0.004709 0.014356
v 0.050135 -0.005941 0.016768
v 0.046250 0.022920 0.014356
v 0.049961 0.020223 0.014356
v 0.050819 0.023603 0.016768
v 0.021273 0.014881 0.016768
v 0.023685 0.011685 0.014356
v 0.025103 0.016049 0.014356
v 0.041343 0.024514 0.014356
v 0.038505 0.027619 0.016768
v 0.036755 0.024514 0.014356
v 0.031848 0.022920 0.014356
v 0.028063 0.024226 0.016768
v 0.028136 0.020223 0.014356
v 0.025103 0.016049 -0.014356
v 0.023685 0.011685 -0.014356
v 0.021273 0.014881 -0.016768
v 0.023685 0.006526 -0.014356
v 0.025103 0.002162 -0.014356
v 0.021273 0.002816 -0.016768
v 0.028136 -0.002012 -0.014356
v 0.031848 -0.004709 -0.014356
v 0.025575 -0.003125 -0.016768
v 0.028063 0.024226 -0.016768
v 0.031848 0.022920 -0.014356
v 0.028136 0.020223 -0.014356
v 0.046250 0.022920 -0.014356
v 0.050575 0.023809 -0.016768
v 0.049961 0.020223 -0.014356
v 0.056824 0.003388 -0.016768
v 0.052994 0.002162 -0.014356
v 0.054412 0.006526 -0.014356
v 0.056824 0.015196 -0.016768
v 0.054412 0.011685 -0.014356
v 0.052994 0.016049 -0.014356
v 0.046250 -0.004709 -0.014356
v 0.049961 -0.002012 -0.014356
v 0.049943 -0.006081 -0.016768
v 0.038692 0.027680 -0.016768
v 0.041343 0.024514 -0.014356
v 0.036755 0.024514 -0.014356
v 0.042182 -0.008601 -0.016768
v 0.036755 -0.006303 -0.014356
v 0.041343 -0.006303 -0.014356
v -0.055423 0.003144 0.016768
v -0.051593 0.002162 0.014356
v -0.053011 0.006526 0.014356
v -0.053011 0.011685 0.014356
v -0.051593 0.016049 0.014356
v -0.055423 0.015213 0.016768
v -0.048561 -0.002012 0.014356
v -0.048944 -0.005782 0.016768
v -0.044849 -0.004709 0.014356
v -0.044849 0.022920 0.014356
v -0.049208 0.023782 0.016768
v -0.048561 0.020223 0.014356
v -0.022285 0.011685 0.014356
v -0.019873 0.014881 0.016768
v -0.023702 0.016049 0.014356
v -0.022285 0.006526 0.014356
v -0.023702 0.002162 0.014356
v -0.019873 0.003330 0.016768
v -0.026735 -0.002012 0.014356
v -0.030447 -0.004709 0.014356
v -0.026662 -0.006015 0.016768
v -0.026735 0.020223 0.014356
v -0.026662 0.024226 0.016768
v -0.030447 0.022920 0.014356
v -0.039942 0.024514 0.014356
v -0.035354 0.024514 0.014356
v -0.037266 0.027672 0.016768
v -0.035354 -0.006303 0.014356
v -0.039942 -0.006303 0.014356
v -0.037452 -0.009521 0.016768
v -0.053011 0.006526 -0.014356
v -0.051593 0.002162 -0.014356
v -0.055423 0.003330 -0.016768
v -0.051684 0.015924 -0.014356
v -0.053545 0.017467 -0.016768
v -0.055423 0.014881 -0.016768
v -0.051593 0.016049 -0.014356
v -0.053011 0.011685 -0.014356
v -0.037648 -0.009585 -0.016768
v -0.039942 -0.006303 -0.014356
v -0.035354 -0.006303 -0.014356
v -0.022285 0.006954 -0.014356
v -0.019873 0.006446 -0.016768
v -0.023702 0.002162 -0.014356
v -0.022285 0.006526 -0.014356
v -0.019873 0.003330 -0.016768
v -0.026735 -0.002012 -0.014356
v -0.026662 -0.006015 -0.016768
v -0.030447 -0.004709 -0.014356
v -0.048634 -0.006015 -0.016768
v -0.048561 -0.002012 -0.014356
v -0.044849 -0.004709 -0.014356
v -0.048561 0.020223 -0.014356
v -0.048634 0.024226 -0.016768
v -0.044849 0.022920 -0.014356
v -0.039942 0.024514 -0.014356
v -0.037648 0.027796 -0.016768
v -0.035354 0.024514 -0.014356
v -0.022285 0.011685 -0.014356
v -0.023702 0.016049 -0.014356
v -0.019873 0.014881 -0.016768
v -0.026735 0.020223 -0.014356
v -0.030447 0.022920 -0.014356
v -0.026662 0.024226 -0.016768
vn 1.0000 -0.0000 -0.0000
vn -0.0000 -0.0000 1.0000
vn -0.0000 -1.0000 -0.0000
vn 0.9239 0.3827 -0.0000
vn -0.9239 0.3827 -0.0000
vn -0.9239 -0.3827 -0.0000
vn -0.0000 -0.0000 -1.0000
vn 0.3827 -0.9239 -0.0000
vn -0.3827 0.9239 -0.0000
vn -0.0000 1.0000 -0.0000
vn 0.9239 -0.3827 -0.0000
vn 0.3827 0.9239 -0.0000
vn -0.3827 -0.9239 -0.0000
vn 0.8090 -0.5878 -0.0000
vn -0.3090 -0.9511 -0.0000
vn -0.8090 0.5878 -0.0000
vn -0.8090 -0.5878 -0.0000
vn -1.0000 -0.0000 -0.0000
vn -0.3090 0.9511 -0.0000
vn 0.3090 0.9511 -0.0000
vn 0.8090 0.5878 -0.0000
vn 0.3090 -0.9511 -0.0000
vn -0.5632 -0.5632 0.6047
vn -0.5801 0.5801 0.5717
vn -0.5794 -0.5794 -0.5733
vn -0.5659 0.5659 -0.5996
vn 0.5800 -0.5800 0.5721
vn 0.5695 0.5695 0.5927
vn 0.5689 -0.5689 -0.5939
vn 0.5800 0.5800 -0.5721
vn 0.5633 0.1830 0.8058
vn -0.0000 0.5946 0.8040
vn 0.3481 0.4791 0.8058
vn -0.5611 0.1823 0.8074
vn -0.5484 -0.1782 0.8170
vn -0.3482 0.4792 0.8057
vn -0.3511 -0.4832 0.8020
vn 0.5633 -0.1830 0.8058
vn -0.0000 -0.6135 0.7897
vn 0.3481 -0.4791 0.8058
vn 0.5633 -0.1830 -0.8058
vn 0.5460 0.1774 -0.8188
vn 0.4162 0.5728 -0.7062
vn 0.3481 -0.4791 -0.8058
vn -0.3495 -0.4810 -0.8041
vn -0.5653 0.1837 -0.8042
vn -0.5526 -0.1795 -0.8139
vn -0.3482 0.4792 -0.8057
vn -0.0000 -0.6061 -0.7954
vn -0.0000 0.7240 -0.6898
vn 0.5569 0.1809 0.8106
vn 0.5520 -0.1794 0.8143
vn 0.3486 0.4797 0.8052
vn 0.3496 -0.4812 0.8038
vn -0.5633 -0.1830 0.8058
vn -0.5633 0.1830 0.8058
vn -0.3481 0.4791 0.8058
vn -0.3481 -0.4791 0.8058
vn -0.0000 -0.6070 0.7947
vn -0.0000 0.5998 0.8002
vn 0.5633 0.1830 -0.8058
vn -0.0000 0.5923 -0.8058
vn -0.5633 0.1830 -0.8058
vn -0.3481 0.4791 -0.8058
vn 0.3481 0.4791 -0.8058
vn -0.0000 -0.5923 -0.8058
vn -0.5633 -0.1830 -0.8058
vn -0.3481 -0.4791 -0.8058
vn -0.7618 -0.0000 0.6478
vn -0.2777 0.6705 0.6880
vn -0.5721 0.4156 -0.7071
vn -0.2706 -0.6533 -0.7071
vn -0.6171 -0.2556 0.7442
vn -0.0000 -0.7071 0.7071
vn 0.6682 -0.2768 0.6906
vn 0.7352 -0.0001 0.6778
vn -0.0000 0.7071 0.7071
vn 0.6309 0.2613 0.7305
vn -0.2706 -0.6533 0.7071
vn 0.6533 -0.2706 -0.7071
vn 0.7071 -0.0000 -0.7071
vn 0.2767 0.6681 -0.6907
vn 0.2185 0.6725 0.7071
vn -0.7071 -0.0000 0.7071
vn -0.5678 0.4124 0.7124
vn 0.7071 -0.0000 0.7071
vn -0.2354 -0.7220 0.6506
vn 0.2185 -0.6725 0.7071
vn 0.9511 -0.3090 -0.0000
vn 0.5376 0.3892 -0.7480
vn 0.5721 -0.4156 -0.7071
vn -0.7071 -0.0000 -0.7071
vn -0.2295 -0.7047 -0.6714
vn 0.3076 0.9328 -0.1876
vn -0.5721 0.4156 0.7071
vn -0.5721 -0.4156 0.7071
vn 0.2303 -0.7069 0.6688
vn -0.2185 0.6725 0.7071
vn 0.9511 0.3090 -0.0000
vn -0.7071 -0.7071 -0.0000
vn -0.6381 0.2643 0.7231
vn -0.2185 0.6725 -0.7071
vn 0.5721 0.4156 -0.7071
vn 0.2185 -0.6725 -0.7071
vn -0.5721 -0.4156 -0.7071
vn 0.5721 0.4156 0.7071
vn 0.5593 0.4060 0.7228
vn -0.2185 -0.6725 -0.7071
vn 0.5494 -0.3986 0.7344
vn -0.2202 0.6778 0.7015
vn -0.7071 0.7071 -0.0000
vn -0.6533 -0.2706 -0.7071
vn -0.7482 -0.0001 -0.6635
vn -0.5423 -0.3932 0.7425
vn -0.5878 -0.8090 -0.0000
vn 0.2245 0.6900 0.6882
vn 0.5878 -0.8090 -0.0000
vn -0.6230 0.2581 -0.7384
vn 0.5878 0.8090 -0.0000
vn -0.2706 0.6533 -0.7071
vn -0.0000 -0.7373 -0.6755
vn -0.9511 0.3090 -0.0000
vn -0.2185 -0.6725 0.7071
vn 0.5721 -0.4156 0.7071
vn 0.6400 0.2651 -0.7212
vn 0.2651 -0.6400 0.7212
vn -0.9511 -0.3090 -0.0000
vn -0.2169 0.6678 -0.7120
vn -0.5878 0.8090 -0.0000
vn -0.0000 0.7071 -0.7071
vn 0.7071 -0.7071 -0.0000
vn 0.2706 0.6533 0.7071
vn -0.5761 0.4186 -0.7021
vn 0.7071 0.7071 -0.0000
vn -0.5497 -0.3994 -0.7337
vn 0.2185 0.6725 -0.7071
vn 0.2608 -0.6295 -0.7319
vn -0.7596 0.0001 0.6504
vn -0.2771 0.6713 0.6874
vn -0.6185 -0.2550 0.7432
vn 0.6689 -0.2763 0.6901
vn 0.7364 -0.0000 0.6766
vn 0.6318 0.2609 0.7299
vn 0.2763 0.6688 -0.6902
vn -0.5676 0.4124 0.7126
vn -0.2342 -0.7209 0.6523
vn 0.5361 0.3895 -0.7489
vn -0.2287 -0.7039 -0.6724
vn 0.3024 0.9306 -0.2064
vn 0.2294 -0.7061 0.6699
vn -0.6375 0.2646 0.7236
vn 0.5587 0.4059 0.7232
vn 0.5485 -0.3985 0.7351
vn -0.2204 0.6779 0.7014
vn -0.7499 -0.0000 -0.6615
vn -0.5411 -0.3931 0.7434
vn 0.2241 0.6896 0.6887
vn -0.6242 0.2575 -0.7376
vn -0.0000 -0.7386 -0.6742
vn 0.6395 0.2654 -0.7216
vn 0.2654 -0.6394 0.7216
vn -0.2170 0.6679 -0.7119
vn -0.5762 0.4187 -0.7019
vn -0.5506 -0.3995 -0.7330
vn 0.2603 -0.6305 -0.7312
vt 0.607237 0.517982
vt 0.392763 0.732018
vt 0.392763 0.517982
vt 0.616324 0.993938
vt 0.397227 0.997228
vt 0.506773 0.949899
vt 0.363858 0.517982
vt 0.136142 0.732018
vt 0.136142 0.517982
vt 0.618210 0.732018
vt 0.618210 0.517982
vt 0.618210 0.232018
vt 0.607237 0.017982
vt 0.618210 0.017982
vt 0.381790 0.017982
vt 0.392763 0.232018
vt 0.381790 0.232018
vt 0.506067 0.403749
vt 0.532061 0.348144
vt 0.552195 0.338969
vt 0.370741 0.732018
vt 0.363858 0.732018
vt 0.275839 0.867249
vt 0.224160 0.632751
vt 0.224160 0.867249
vt 0.863858 0.517982
vt 0.870741 0.732018
vt 0.863858 0.732018
vt 0.479487 0.925613
vt 0.383871 0.993774
vt 0.380197 0.762141
vt 0.636142 0.732018
vt 0.636142 0.517982
vt 0.481469 0.432005
vt 0.384180 0.255758
vt 0.479350 0.324122
vt 0.381790 0.517982
vt 0.392763 0.732018
vt 0.381790 0.732018
vt 0.384603 0.755483
vt 0.604238 0.752995
vt 0.533009 0.798208
vt 0.616257 0.493977
vt 0.379744 0.486892
vt 0.507299 0.451792
vt 0.636142 0.732018
vt 0.629259 0.517982
vt 0.136142 0.732018
vt 0.129259 0.517982
vt 0.175839 0.867249
vt 0.124160 0.632751
vt 0.124160 0.867249
vt 0.975839 0.867249
vt 0.924161 0.632751
vt 0.924161 0.867249
vt 0.675839 0.632751
vt 0.624161 0.867249
vt 0.675839 0.867249
vt 0.875839 0.632751
vt 0.824161 0.867249
vt 0.875839 0.867249
vt 0.775839 0.632751
vt 0.724160 0.867249
vt 0.775839 0.867249
vt 0.524161 0.867249
vt 0.575839 0.632751
vt 0.524161 0.632751
vt 0.424161 0.867249
vt 0.475839 0.632751
vt 0.424161 0.632751
vt 0.375839 0.867249
vt 0.324160 0.632751
vt 0.324161 0.867249
vt 0.075839 0.867249
vt 0.024161 0.632751
vt 0.024161 0.867249
vt 0.675839 0.632751
vt 0.624161 0.867249
vt 0.675839 0.867249
vt 0.875840 0.632751
vt 0.875840 0.867249
vt 0.575839 0.632751
vt 0.524161 0.632751
vt 0.975839 0.867249
vt 0.924161 0.632751
vt 0.924161 0.867249
vt 0.075839 0.867249
vt 0.024161 0.632751
vt 0.024161 0.867249
vt 0.124161 0.867249
vt 0.175839 0.632751
vt 0.177390 0.632751
vt 0.375839 0.867249
vt 0.324160 0.867249
vt 0.424161 0.867249
vt 0.775839 0.632751
vt 0.728451 0.632751
vt 0.125000 0.732018
vt 0.129259 0.732018
vt 0.127426 0.750000
vt 0.625000 0.017982
vt 0.623038 0.000000
vt 0.126764 0.500000
vt 0.125000 0.517982
vt 0.870741 0.517982
vt 0.872686 0.500000
vt 0.875000 0.517982
vt 0.378542 0.750000
vt 0.375000 0.732018
vt 0.625000 0.732018
vt 0.622643 0.750000
vt 0.378497 0.500000
vt 0.375000 0.517982
vt 0.625000 0.517982
vt 0.622926 0.500000
vt 0.514060 0.842991
vt 0.507174 0.846251
vt 0.504659 0.841075
vt 0.486421 0.825330
vt 0.479393 0.822312
vt 0.486421 0.819129
vt 0.400000 0.867249
vt 0.400000 0.886950
vt 0.700000 0.867249
vt 0.700000 0.886950
vt 0.525176 0.801468
vt 0.534577 0.803383
vt 0.600000 0.867249
vt 0.575839 0.867249
vt 0.600000 0.886950
vt 0.900000 0.867249
vt 0.898182 0.886950
vt 0.532061 0.846251
vt 0.525176 0.842991
vt 0.534577 0.841075
vt 0.552815 0.819129
vt 0.559504 0.822965
vt 0.552815 0.825330
vt 0.549380 0.831961
vt 0.552195 0.837076
vt 0.543570 0.836977
vt 0.200000 0.632751
vt 0.200000 0.613050
vt 0.300000 0.632751
vt 0.300000 0.613050
vt 0.400000 0.632751
vt 0.400000 0.613050
vt 0.552195 0.412925
vt 0.549380 0.418039
vt 0.543570 0.413023
vt 0.549380 0.437502
vt 0.551296 0.443348
vt 0.547774 0.440602
vt 0.504659 0.446617
vt 0.514060 0.448533
vt 0.532739 0.451792
vt 0.525176 0.448533
vt 0.534577 0.446617
vt 0.600000 0.632751
vt 0.600000 0.613050
vt 0.559635 0.427288
vt 0.552815 0.430871
vt 0.552815 0.424670
vt 0.486420 0.424670
vt 0.486420 0.430871
vt 0.504659 0.944723
vt 0.514060 0.946639
vt 0.200000 0.867249
vt 0.200000 0.886950
vt 0.495666 0.940625
vt 0.487543 0.941143
vt 0.491461 0.938709
vt 0.549380 0.935609
vt 0.551237 0.941499
vt 0.547774 0.938709
vt 0.525176 0.905115
vt 0.532061 0.901856
vt 0.534577 0.907032
vt 0.600000 0.867249
vt 0.575839 0.867249
vt 0.600000 0.886950
vt 0.543570 0.911130
vt 0.552195 0.911031
vt 0.549380 0.916146
vt -0.000000 0.867249
vt -0.000000 0.886950
vt 0.500000 0.867249
vt 0.475839 0.867249
vt 0.500000 0.886950
vt 0.532061 0.300101
vt 0.534307 0.305154
vt 0.525176 0.303361
vt 0.486421 0.321022
vt 0.486421 0.327223
vt 0.700000 0.632751
vt 0.700000 0.613050
vt 0.495666 0.338870
vt 0.487041 0.338969
vt 0.489855 0.333854
vt 0.487041 0.309276
vt 0.495666 0.309375
vt 0.489855 0.314391
vt 0.543570 0.309375
vt 0.552195 0.309276
vt 0.549380 0.314391
vt 0.552815 0.321022
vt 0.559885 0.324122
vt 0.552815 0.327223
vt 0.800000 0.632751
vt 0.800000 0.613050
vt 0.900000 0.632751
vt 0.900000 0.613050
vt 0.397227 0.000000
vt 0.607237 0.017982
vt 0.392763 0.017982
vt 0.865240 0.750000
vt 0.507174 0.348144
vt 0.495666 0.338870
vt 0.504659 0.342968
vt 0.136142 0.500000
vt 0.392763 0.000000
vt 0.392763 0.017982
vt 0.362859 0.750000
vt 0.136790 0.750000
vt 0.392059 0.750000
vt 0.394164 0.753005
vt 0.619803 0.761790
vt 0.625000 0.988858
vt 0.619803 0.988653
vt 0.607237 0.750000
vt 0.607237 0.732018
vt 0.135295 0.750000
vt 0.391413 0.500000
vt 0.605645 0.496740
vt 0.393797 0.496740
vt 0.634833 0.500000
vt 0.489855 0.831961
vt 0.507041 0.798208
vt 0.514060 0.801468
vt 0.504659 0.803384
vt 0.487200 0.807248
vt 0.549380 0.812498
vt 0.550853 0.806322
vt 0.514060 0.407009
vt 0.532061 0.403749
vt 0.525176 0.407009
vt 0.504659 0.408925
vt 0.493267 0.409562
vt 0.534577 0.408925
vt 0.489855 0.418039
vt 0.493267 0.409562
vt 0.525176 0.946640
vt 0.514060 0.905115
vt 0.495666 0.911130
vt 0.507174 0.901856
vt 0.504659 0.907032
vt 0.559618 0.925362
vt 0.489855 0.916146
vt 0.487041 0.911031
vt 0.537631 0.302639
vt 0.607237 0.000000
vt 0.513888 0.348144
vt 0.514060 0.344884
vt 0.514983 0.344884
vt 0.486421 0.327223
vt 0.507174 0.300101
vt 0.504659 0.305277
vt 0.525176 0.344884
vt 0.543570 0.338870
vt 0.534577 0.342968
vt 0.495666 0.836977
vt 0.534577 0.944724
vt 0.532777 0.949899
vt 0.489855 0.812498
vt 0.625000 0.232018
vt 0.392763 0.250000
vt 0.392763 0.232018
vt 0.603435 0.252875
vt 0.395219 0.252890
vt 0.489855 0.935609
vt 0.487543 0.941143
vt 0.124161 0.632751
vt 0.607237 0.250000
vt 0.607237 0.232018
vt 0.175839 0.867249
vt 0.864705 0.500000
vt 0.361892 0.500000
vt 0.137450 0.500000
vt 0.724160 0.632751
vt 0.475839 0.867249
vt 0.607914 0.500000
vt 0.364282 0.750000
vt 0.824161 0.632751
vt 0.489855 0.437502
vt 0.486899 0.442493
vt 0.724161 0.632751
vt 0.624160 0.632751
vt 0.625000 0.488858
vt 0.619803 0.261790
vt 0.625000 0.261142
vt 0.624160 0.632751
vt 0.514060 0.303360
vt 0.370741 0.517982
vt 0.635295 0.750000
vt 0.629259 0.732018
vt 0.824161 0.632751
vt 0.775839 0.867249
vt 0.495666 0.442518
vt 0.551296 0.443348
vt 0.543570 0.442518
vt 0.363858 0.500000
vt 0.607237 0.732018
vt 0.603760 0.997209
vt 0.363858 0.732018
vt 0.616077 0.256147
vt 0.619803 0.488592
vt 0.616257 0.493977
vt 0.275839 0.632751
vt 0.616008 0.756044
vt 0.487041 0.837076
vt 0.384603 0.755483
vt 0.487200 0.807248
vt 0.380197 0.988210
vt 0.863858 0.732018
vt 0.379744 0.486892
vt 0.379761 0.262450
vt 0.384664 0.494367
vt 0.486898 0.442493
vt 0.975839 0.632751
vt 0.375839 0.632751
vt 0.075839 0.632751
vt 0.975839 0.632751
vt 0.075839 0.632751
vt 0.375839 0.632751
vt 0.603760 0.000000
vt 0.872712 0.750000
vt 0.377067 0.000000
vt 0.625000 0.761142
vt 0.627220 0.500000
vt 0.495666 0.807482
vt 0.495666 0.413023
vt 0.552815 0.928978
vt 0.486420 0.922777
vt 0.623038 0.000000
vt 0.495666 0.940625
vt 0.549380 0.333854
vt 0.543570 0.940625
vt 0.377812 0.250000
vt 0.607237 0.232018
vt 0.543570 0.807482
vt 0.486420 0.928978
vt 0.622808 0.250000
vt 0.552815 0.922777
vt 0.373700 0.750000
vt -0.000000 0.632751
vt 0.627168 0.750000
vt -0.000000 0.632751
vt 0.373539 0.500000
s 0
f 53/1/1 31/2/1 44/3/1
f 14/4/2 2/5/2 117/6/2
f 46/7/3 4/8/3 16/9/3
f 40/10/4 53/1/4 55/11/4
f 28/12/5 11/13/5 13/14/5
f 5/15/6 18/16/6 21/17/6
f 92/18/7 177/19/7 180/20/7
f 46/7/8 35/21/8 29/22/8
f 57/23/1 88/24/1 79/25/1
f 25/26/9 12/27/9 9/28/9
f 146/29/2 7/30/2 30/31/2
f 25/26/10 39/32/10 51/33/10
f 114/34/7 19/35/7 155/36/7
f 48/37/11 31/38/11 33/39/11
f 34/40/2 37/41/2 70/42/2
f 56/43/7 45/44/7 102/45/7
f 39/46/12 54/47/12 51/33/12
f 4/48/13 20/49/13 16/9/13
f 80/50/14 98/51/14 86/52/14
f 81/53/15 99/54/15 75/55/15
f 103/56/16 72/57/16 67/58/16
f 101/59/17 71/60/17 76/61/17
f 106/62/18 66/63/18 69/64/18
f 62/65/19 108/66/19 116/67/19
f 63/68/20 115/69/20 94/70/20
f 64/71/21 91/72/21 59/73/21
f 84/74/22 113/75/22 83/76/22
f 119/23/1 154/24/1 120/25/1
f 160/77/16 135/78/16 133/79/16
f 178/80/17 131/60/17 138/81/17
f 144/65/19 165/82/19 157/83/19
f 142/84/15 179/85/15 140/86/15
f 126/87/22 172/88/22 141/89/22
f 128/90/16 153/91/16 150/92/16
f 123/93/21 148/72/21 118/94/21
f 125/95/20 156/69/20 168/70/20
f 132/63/18 175/96/18 158/97/18
f 5/98/23 6/99/23 7/100/23
f 12/101/24 13/14/24 14/102/24
f 19/103/25 20/49/25 21/104/25
f 26/105/26 27/106/26 28/107/26
f 33/39/27 34/108/27 35/109/27
f 40/10/28 41/110/28 42/111/28
f 47/112/29 48/37/29 49/113/29
f 54/114/30 55/11/30 56/115/30
f 57/116/31 58/117/31 59/118/31
f 60/119/32 61/120/32 62/121/32
f 63/68/33 64/122/33 65/123/33
f 66/124/34 67/58/34 68/125/34
f 69/126/35 70/42/35 71/127/35
f 72/128/36 73/129/36 74/130/36
f 75/131/37 76/61/37 77/132/37
f 78/133/38 79/134/38 80/135/38
f 81/136/39 82/137/39 83/138/39
f 84/139/40 85/140/40 86/141/40
f 87/142/41 88/24/41 89/143/41
f 90/144/42 91/72/42 92/145/42
f 93/146/43 94/70/43 95/147/43
f 96/148/44 97/149/44 98/150/44
f 99/151/45 100/152/45 101/153/45
f 102/45/46 103/154/46 104/155/46
f 105/156/47 106/157/47 107/158/47
f 108/66/48 109/159/48 110/160/48
f 111/161/49 112/162/49 113/163/49
f 114/34/50 115/164/50 116/165/50
f 117/6/51 118/166/51 119/167/51
f 120/25/52 121/168/52 122/169/52
f 123/170/53 124/171/53 125/172/53
f 126/173/54 127/174/54 128/175/54
f 129/176/55 130/177/55 131/178/55
f 132/124/56 133/79/56 134/125/56
f 135/179/57 136/180/57 137/181/57
f 138/182/58 139/183/58 140/184/58
f 141/89/59 142/185/59 143/186/59
f 144/187/60 145/188/60 146/189/60
f 147/144/61 148/72/61 149/145/61
f 152/190/41 153/191/41 154/192/41
f 155/36/62 156/193/62 157/194/62
f 160/77/63 161/195/63 162/196/63
f 163/197/64 164/198/64 165/199/64
f 166/200/65 167/201/65 168/202/65
f 169/203/44 170/204/44 171/205/44
f 172/206/66 173/207/66 174/208/66
f 175/96/67 176/209/67 177/210/67
f 178/80/68 179/211/68 180/212/68
f 2/213/69 11/214/69 1/215/69
f 12/27/70 8/216/70 9/28/70
f 162/217/71 163/218/71 160/219/71
f 20/49/72 15/220/72 16/9/72
f 5/15/73 2/221/73 1/222/73
f 4/8/74 30/223/74 3/224/74
f 32/225/75 33/39/75 31/38/75
f 31/2/76 37/41/76 32/226/76
f 38/227/77 9/228/77 8/229/77
f 40/10/78 37/230/78 36/231/78
f 3/232/79 6/99/79 4/48/79
f 48/37/80 43/233/80 44/3/80
f 52/234/81 44/3/81 43/235/81
f 54/47/82 50/236/82 51/33/82
f 63/237/83 61/120/83 60/119/83
f 68/238/84 69/126/84 66/239/84
f 67/240/85 74/241/85 68/238/85
f 79/134/86 58/117/86 57/116/86
f 82/137/87 75/242/87 77/243/87
f 82/137/88 84/139/88 83/138/88
f 88/24/89 80/50/89 79/25/89
f 90/244/81 89/245/81 88/246/81
f 91/247/90 95/248/90 92/18/90
f 89/245/91 98/150/91 87/249/91
f 106/157/92 102/45/92 104/155/92
f 99/151/93 111/161/93 100/152/93
f 94/250/94 114/34/94 95/251/94
f 120/252/86 117/6/86 119/167/86
f 132/253/84 130/177/84 129/176/84
f 135/254/95 134/255/95 133/256/95
f 139/183/96 131/178/96 130/177/96
f 126/173/97 143/257/97 127/174/97
f 136/258/98 146/29/98 137/259/98
f 148/72/99 119/23/99 118/94/99
f 150/191/91 152/190/91 151/260/91
f 21/104/100 6/99/100 5/98/100
f 10/261/101 13/14/101 11/13/101
f 159/262/92 161/263/92 158/264/92
f 165/199/102 155/36/102 157/265/102
f 167/201/103 149/266/103 148/267/103
f 151/260/91 169/203/91 150/191/91
f 173/207/104 171/205/104 170/204/104
f 175/268/92 159/262/92 158/264/92
f 178/269/105 177/19/105 176/270/105
f 58/117/106 64/271/106 59/118/106
f 124/171/107 118/166/107 117/6/107
f 180/20/108 174/208/108 173/207/108
f 121/272/109 127/174/109 122/273/109
f 61/120/110 73/274/110 62/121/110
f 26/275/111 13/14/111 12/101/111
f 17/276/112 21/17/112 18/16/112
f 18/277/113 23/278/113 17/279/113
f 91/72/99 57/23/99 59/73/99
f 77/243/114 71/127/114 70/42/114
f 99/54/115 76/61/115 75/55/115
f 146/29/116 125/280/116 124/281/116
f 169/282/117 126/87/117 128/90/117
f 28/12/118 23/283/118 22/284/118
f 154/24/89 121/285/89 120/25/89
f 94/70/119 64/71/119 63/68/119
f 24/286/120 26/105/120 25/26/120
f 45/287/121 16/9/121 15/288/121
f 104/289/122 67/58/122 66/63/122
f 143/257/123 140/184/123 139/183/123
f 86/141/124 78/133/124 80/135/124
f 116/67/10 60/290/10 62/65/10
f 52/291/125 55/11/125 53/1/125
f 35/21/126 30/292/126 29/22/126
f 107/293/127 69/64/127 71/60/127
f 114/34/128 108/294/128 110/295/128
f 161/296/122 133/79/122 132/63/122
f 109/297/129 73/129/129 72/57/129
f 51/298/130 24/299/130 25/300/130
f 163/301/129 136/180/129 135/78/129
f 98/51/117 84/74/117 86/52/117
f 157/83/10 145/188/10 144/65/10
f 168/70/119 123/93/119 125/95/119
f 149/266/81 154/192/81 147/302/81
f 113/75/3 81/185/3 83/76/3
f 49/303/131 33/39/131 35/21/131
f 38/304/132 41/305/132 39/46/132
f 176/306/127 129/307/127 131/60/127
f 172/88/3 142/185/3 141/89/3
f 140/86/115 178/80/115 138/81/115
f 102/45/133 109/308/133 103/154/133
f 55/11/134 41/305/134 40/10/134
f 100/309/135 107/158/135 101/310/135
f 166/200/136 156/193/136 155/36/136
f 111/161/104 97/149/104 96/148/104
f 45/311/137 49/303/137 46/7/137
f 11/214/18 18/277/18 1/215/18
f 53/1/1 36/312/1 31/2/1
f 122/273/2 127/174/2 14/4/2
f 14/4/2 10/313/2 2/5/2
f 2/5/2 124/171/2 117/6/2
f 117/6/2 122/273/2 14/4/2
f 46/7/3 29/314/3 4/8/3
f 40/10/4 36/231/4 53/1/4
f 28/12/5 22/284/5 11/13/5
f 5/15/6 1/222/6 18/16/6
f 170/204/7 151/260/7 23/278/7
f 23/278/7 27/315/7 24/299/7
f 24/299/7 50/316/7 56/317/7
f 56/317/7 100/152/7 111/161/7
f 56/317/7 111/161/7 96/148/7
f 23/278/7 24/299/7 56/317/7
f 173/207/7 170/204/7 23/278/7
f 180/20/7 173/207/7 23/278/7
f 23/278/7 56/317/7 96/148/7
f 23/278/7 96/148/7 89/245/7
f 180/20/7 23/278/7 89/245/7
f 92/18/7 95/248/7 159/262/7
f 180/20/7 89/245/7 92/18/7
f 92/18/7 159/262/7 177/19/7
f 46/7/8 49/303/8 35/21/8
f 57/23/1 90/318/1 88/24/1
f 25/26/9 26/105/9 12/27/9
f 82/137/2 77/243/2 37/41/2
f 37/41/2 42/319/2 38/227/2
f 38/227/2 8/229/2 14/4/2
f 14/4/2 127/174/2 143/257/2
f 14/4/2 143/257/2 139/183/2
f 37/41/2 38/227/2 14/4/2
f 85/140/2 82/137/2 37/41/2
f 85/140/2 37/41/2 14/4/2
f 85/140/2 14/4/2 139/183/2
f 78/133/2 85/140/2 139/183/2
f 78/133/2 139/183/2 130/177/2
f 58/117/2 78/133/2 130/177/2
f 58/117/2 130/177/2 134/255/2
f 65/320/2 58/117/2 134/255/2
f 65/320/2 134/255/2 137/259/2
f 34/321/2 74/322/2 61/120/2
f 61/120/2 65/320/2 137/259/2
f 146/29/2 124/281/2 2/5/2
f 61/120/2 137/259/2 146/29/2
f 30/31/2 34/321/2 61/120/2
f 7/30/2 3/323/2 30/31/2
f 146/29/2 2/5/2 7/30/2
f 30/31/2 61/120/2 146/29/2
f 25/26/10 9/324/10 39/32/10
f 114/34/7 110/295/7 45/325/7
f 45/325/7 15/326/7 19/35/7
f 19/35/7 17/279/7 23/278/7
f 23/278/7 151/260/7 152/190/7
f 23/278/7 152/190/7 149/266/7
f 114/34/7 45/325/7 19/35/7
f 159/262/7 95/251/7 114/34/7
f 162/217/7 159/262/7 114/34/7
f 19/35/7 23/278/7 149/266/7
f 19/35/7 149/266/7 166/200/7
f 164/198/7 162/217/7 114/34/7
f 19/35/7 166/200/7 155/36/7
f 155/36/7 164/198/7 114/34/7
f 48/37/11 44/3/11 31/38/11
f 68/238/2 74/241/2 34/40/2
f 34/40/2 32/226/2 37/41/2
f 37/41/2 77/243/2 70/42/2
f 70/42/2 68/238/2 34/40/2
f 105/156/7 100/309/7 56/43/7
f 56/43/7 52/234/7 43/235/7
f 43/235/7 47/327/7 45/44/7
f 45/44/7 110/328/7 102/45/7
f 102/45/7 105/156/7 56/43/7
f 56/43/7 43/235/7 45/44/7
f 39/46/12 41/305/12 54/47/12
f 4/48/13 6/99/13 20/49/13
f 80/50/14 87/91/14 98/51/14
f 81/53/15 112/329/15 99/54/15
f 103/56/16 109/297/16 72/57/16
f 101/59/17 107/293/17 71/60/17
f 106/62/18 104/289/18 66/63/18
f 62/65/19 73/129/19 108/66/19
f 63/68/20 60/290/20 115/69/20
f 64/71/21 93/330/21 91/72/21
f 84/74/22 97/331/22 113/75/22
f 119/23/1 147/318/1 154/24/1
f 160/77/16 163/301/16 135/78/16
f 178/80/17 176/306/17 131/60/17
f 144/65/19 136/180/19 165/82/19
f 142/84/15 174/332/15 179/85/15
f 126/87/22 171/333/22 172/88/22
f 150/92/14 169/282/14 128/90/14
f 128/90/14 121/285/14 153/91/14
f 123/93/21 167/334/21 148/72/21
f 125/95/20 145/188/20 156/69/20
f 158/97/18 161/296/18 132/63/18
f 132/63/18 129/307/18 175/96/18
f 2/213/138 10/335/138 11/214/138
f 12/27/139 14/336/139 8/216/139
f 162/217/71 164/198/71 163/218/71
f 20/49/72 19/103/72 15/220/72
f 5/15/140 7/337/140 2/221/140
f 4/8/74 29/314/74 30/223/74
f 32/225/141 34/108/141 33/39/141
f 31/2/142 36/312/142 37/41/142
f 38/227/77 39/338/77 9/228/77
f 40/10/143 42/111/143 37/230/143
f 3/232/79 7/100/79 6/99/79
f 48/37/80 47/112/80 43/233/80
f 52/234/81 53/1/81 44/3/81
f 54/47/144 56/339/144 50/236/144
f 63/237/83 65/320/83 61/120/83
f 68/238/84 70/42/84 69/126/84
f 67/240/145 72/340/145 74/241/145
f 79/134/86 78/133/86 58/117/86
f 82/137/146 81/136/146 75/242/146
f 82/137/88 85/140/88 84/139/88
f 88/24/89 87/91/89 80/50/89
f 90/244/81 92/18/81 89/245/81
f 91/247/147 93/341/147 95/248/147
f 89/245/91 96/148/91 98/150/91
f 106/157/92 105/156/92 102/45/92
f 99/151/148 112/162/148 111/161/148
f 94/250/149 115/164/149 114/34/149
f 120/252/86 122/273/86 117/6/86
f 132/253/84 134/255/84 130/177/84
f 135/254/95 137/259/95 134/255/95
f 139/183/96 138/182/96 131/178/96
f 126/173/150 141/342/150 143/257/150
f 136/258/98 144/343/98 146/29/98
f 148/72/99 147/318/99 119/23/99
f 150/191/95 153/191/95 152/190/95
f 21/104/100 20/49/100 6/99/100
f 10/261/151 14/344/151 13/14/151
f 159/262/92 162/217/92 161/263/92
f 165/199/102 164/198/102 155/36/102
f 167/201/103 166/200/103 149/266/103
f 151/260/91 170/204/91 169/203/91
f 173/207/104 172/206/104 171/205/104
f 175/268/92 177/19/92 159/262/92
f 178/269/105 180/20/105 177/19/105
f 58/117/106 65/320/106 64/271/106
f 124/171/152 123/345/152 118/166/152
f 180/20/108 179/346/108 174/208/108
f 121/272/153 128/347/153 127/174/153
f 61/120/154 74/322/154 73/274/154
f 26/275/111 28/12/111 13/14/111
f 17/276/112 19/348/112 21/17/112
f 18/277/155 22/349/155 23/278/155
f 91/72/99 90/318/99 57/23/99
f 77/243/156 76/350/156 71/127/156
f 99/54/115 101/59/115 76/61/115
f 146/29/157 145/351/157 125/280/157
f 169/282/117 171/333/117 126/87/117
f 28/12/158 27/352/158 23/283/158
f 154/24/89 153/91/89 121/285/89
f 94/70/119 93/330/119 64/71/119
f 24/286/120 27/106/120 26/105/120
f 45/287/159 46/7/159 16/9/159
f 104/289/122 103/56/122 67/58/122
f 143/257/123 142/353/123 140/184/123
f 86/141/124 85/140/124 78/133/124
f 116/67/10 115/69/10 60/290/10
f 52/291/160 56/115/160 55/11/160
f 35/21/161 34/354/161 30/292/161
f 107/293/127 106/62/127 69/64/127
f 114/34/162 116/165/162 108/294/162
f 161/296/122 160/77/122 133/79/122
f 109/297/129 108/66/129 73/129/129
f 51/298/130 50/316/130 24/299/130
f 163/301/129 165/82/129 136/180/129
f 98/51/117 97/331/117 84/74/117
f 157/83/10 156/69/10 145/188/10
f 168/70/119 167/334/119 123/93/119
f 149/266/81 152/190/81 154/192/81
f 113/75/3 112/355/3 81/185/3
f 49/303/131 48/37/131 33/39/131
f 38/304/132 42/356/132 41/305/132
f 176/306/127 175/96/127 129/307/127
f 172/88/3 174/357/3 142/185/3
f 140/86/115 179/85/115 178/80/115
f 102/45/163 110/328/163 109/308/163
f 55/11/134 54/47/134 41/305/134
f 100/309/164 105/156/164 107/158/164
f 166/200/136 168/202/136 156/193/136
f 111/161/104 113/163/104 97/149/104
f 45/311/165 47/358/165 49/303/165
f 11/214/18 22/349/18 18/277/18
o Cassette
v -0.060526 -0.061758 0.017760
v -0.059935 -0.058758 0.020760
v -0.062992 -0.058806 0.017760
v -0.055059 -0.031758 0.020760
v -0.054566 -0.028758 0.017760
v -0.058099 -0.031711 0.017760
v -0.060526 -0.061758 -0.017760
v -0.062992 -0.058806 -0.017760
v -0.059935 -0.058758 -0.020760
v -0.054566 -0.028758 -0.017760
v -0.055059 -0.031758 -0.020760
v -0.058099 -0.031711 -0.017760
v 0.060526 -0.061758 0.017760
v 0.062992 -0.058806 0.017760
v 0.059935 -0.058758 0.020760
v 0.054566 -0.028758 0.017760
v 0.055059 -0.031758 0.020760
v 0.058099 -0.031711 0.017760
v 0.060526 -0.061758 -0.017760
v 0.059935 -0.058758 -0.020760
v 0.062992 -0.058806 -0.017760
v 0.054566 -0.028758 -0.017760
v 0.058099 -0.031711 -0.017760
v 0.055059 -0.031758 -0.020760
vn -0.0000 -0.0000 1.0000
vn 0.9841 0.1777 -0.0000
vn -0.0000 1.0000 -0.0000
vn -0.9841 0.1777 -0.0000
vn -0.0000 -0.0000 -1.0000
vn -0.6015 -0.5026 0.6210
vn -0.5347 0.6399 0.5520
vn -0.6015 -0.5026 -0.6210
vn -0.5347 0.6399 -0.5520
vn 0.6015 -0.5026 0.6210
vn 0.5347 0.6399 0.5520
vn 0.6015 -0.5026 -0.6210
vn 0.5347 0.6399 -0.5520
vn -0.7674 -0.6412 -0.0000
vn -0.6959 0.1257 0.7071
vn -0.6412 0.7674 -0.0000
vn -0.6959 0.1257 -0.7071
vn -0.0000 -0.7071 -0.7071
vn -0.0000 0.7071 -0.7071
vn 0.6959 0.1257 -0.7071
vn 0.7674 -0.6412 -0.0000
vn 0.6412 0.7674 -0.0000
vn 0.6959 0.1257 0.7071
vn -0.0000 -0.7071 0.7071
vn -0.0000 0.7071 0.7071
vn -0.0000 -1.0000 -0.0000
vt 0.602273 0.756403
vt 0.397727 0.993865
vt 0.397727 0.756135
vt 0.602634 0.518063
vt 0.397366 0.731937
vt 0.397366 0.518063
vt 0.868486 0.518064
vt 0.631514 0.731937
vt 0.631514 0.518063
vt 0.602634 0.018063
vt 0.397366 0.231937
vt 0.397366 0.018063
vt 0.602273 0.256403
vt 0.397727 0.493865
vt 0.397727 0.256135
vt 0.130903 0.731937
vt 0.132065 0.750000
vt 0.126049 0.731937
vt 0.602273 0.993597
vt 0.625000 0.993486
vt 0.602634 1.000000
vt 0.130903 0.518063
vt 0.126049 0.518063
vt 0.132065 0.500000
vt 0.625000 0.256514
vt 0.602634 0.250000
vt 0.369097 0.731937
vt 0.373951 0.731937
vt 0.367935 0.750000
vt 0.625000 0.756514
vt 0.602634 0.750000
vt 0.369097 0.518063
vt 0.367935 0.500000
vt 0.373951 0.518063
vt 0.625000 0.518063
vt 0.606312 0.500000
vt 0.125000 0.518063
vt 0.401766 0.000000
vt 0.625000 0.231937
vt 0.625000 0.018063
vt 0.602634 0.231937
vt 0.625000 0.493486
vt 0.602273 0.493597
vt 0.602634 0.731937
vt 0.868486 0.731937
vt 0.125000 0.731937
vt 0.606312 0.000000
vt 0.367935 0.750000
s 0
f 197/359/166 182/360/166 195/361/166
f 203/362/167 194/363/167 201/364/167
f 190/365/168 196/366/168 202/367/168
f 186/368/169 188/369/169 183/370/169
f 191/371/170 200/372/170 189/373/170
f 181/374/171 182/375/171 183/376/171
f 184/377/172 185/378/172 186/379/172
f 187/380/173 188/381/173 189/382/173
f 190/383/174 191/371/174 192/384/174
f 193/385/175 194/386/175 195/387/175
f 196/388/176 197/359/176 198/389/176
f 199/390/177 200/391/177 201/392/177
f 202/393/178 203/362/178 204/394/178
f 181/374/179 188/395/179 187/380/179
f 182/396/180 186/368/180 183/370/180
f 190/397/181 186/368/181 185/398/181
f 189/373/182 192/399/182 191/371/182
f 187/380/183 200/391/183 199/390/183
f 202/400/184 191/371/184 190/383/184
f 203/362/185 200/372/185 204/401/185
f 199/390/186 194/363/186 193/385/186
f 196/366/187 203/362/187 202/367/187
f 195/361/188 198/402/188 197/359/188
f 193/385/189 182/375/189 181/374/189
f 185/378/190 197/359/190 196/388/190
f 199/390/191 181/374/191 187/380/191
f 197/359/166 184/377/166 182/360/166
f 203/362/167 198/402/167 194/363/167
f 190/365/168 185/403/168 196/366/168
f 186/368/169 192/399/169 188/369/169
f 191/371/170 204/401/170 200/372/170
f 181/374/179 183/404/179 188/395/179
f 182/396/180 184/405/180 186/368/180
f 190/397/181 192/399/181 186/368/181
f 189/373/182 188/369/182 192/399/182
f 187/380/183 189/382/183 200/391/183
f 202/400/184 204/401/184 191/371/184
f 203/362/185 201/364/185 200/372/185
f 199/390/186 201/364/186 194/363/186
f 196/366/187 198/402/187 203/362/187
f 195/361/188 194/363/188 198/402/188
f 193/385/189 195/406/189 182/375/189
f 185/378/190 184/377/190 197/359/190
f 199/390/191 193/385/191 181/374/191
