# Blender 4.5.14 LTS
# www.blender.org
mtllib can_bin.mtl
o can_bin
v -0.250000 0.000000 0.200000 0.7960 0.7960 0.7960
v 0.250000 0.000000 0.200000 0.8000 0.8000 0.8000
v 0.250000 0.800000 0.200000 1.0000 1.0000 1.0000
v -0.250000 0.000000 -0.200000 0.8000 0.8000 0.8000
v -0.250000 0.800000 -0.200000 1.0000 1.0000 1.0000
v 0.250000 0.800000 -0.200000 1.0000 1.0000 1.0000
v -0.250000 0.800000 0.200000 1.0000 1.0000 1.0000
v 0.250000 0.000000 -0.200000 0.8000 0.8000 0.8000
v 0.056569 0.800000 -0.056569 0.8588 0.8588 0.8588
v 0.056569 0.820000 -0.056569 0.9098 0.9098 0.9098
v 0.080000 0.820000 0.000000 0.9058 0.9058 0.9058
v 0.000000 0.820000 -0.080000 0.9098 0.9098 0.9098
v -0.056569 0.800000 -0.056569 0.8549 0.8549 0.8549
v -0.056569 0.820000 -0.056569 0.9058 0.9058 0.9058
v -0.056569 0.820000 0.056569 0.9098 0.9098 0.9098
v -0.080000 0.820000 -0.000000 0.9058 0.9058 0.9058
v -0.056569 0.800000 0.056569 0.8509 0.8509 0.8509
v -0.000000 0.800000 0.080000 0.8509 0.8509 0.8509
v -0.000000 0.820000 0.080000 0.9098 0.9098 0.9098
v 0.056569 0.820000 0.056569 0.9058 0.9058 0.9058
v 0.056569 0.800000 0.056569 0.8549 0.8549 0.8549
v -0.080000 0.800000 -0.000000 0.8509 0.8509 0.8509
v 0.000000 0.800000 -0.080000 0.8549 0.8549 0.8549
v 0.080000 0.800000 0.000000 0.8549 0.8549 0.8549
vn -0.0000 -0.0000 1.0000
vn -0.0000 -0.0000 -1.0000
vn -1.0000 -0.0000 -0.0000
vn 1.0000 -0.0000 -0.0000
vn -0.0000 1.0000 -0.0000
vn -0.0000 -1.0000 -0.0000
vn 0.7071 -0.0000 -0.7071
vn -0.7071 -0.0000 -0.7071
vn -0.7071 -0.0000 0.7071
vn 0.7071 -0.0000 0.7071
vt 0.814697 0.976807
vt 0.829834 0.976807
vt 0.829834 0.999756
vt 0.814697 0.999756
vt 0.070557 0.929932
vt 0.075134 0.929932
vt 0.075134 0.937256
vt 0.070557 0.937256
vt 0.074219 0.929932
vt 0.074219 0.937256
vt 0.077881 0.929932
vt 0.077881 0.935791
vt 0.070557 0.935791
vt 0.062744 0.929932
vt 0.063660 0.929932
vt 0.063660 0.937256
vt 0.062744 0.937256
vt 0.064575 0.929932
vt 0.064575 0.937256
vt 0.065491 0.929932
vt 0.065491 0.937256
vt 0.066406 0.929932
vt 0.066406 0.937256
vt 0.067322 0.929932
vt 0.067322 0.937256
vt 0.068237 0.929932
vt 0.068237 0.937256
vt 0.069153 0.929932
vt 0.069153 0.937256
vt 0.070068 0.929932
vt 0.070068 0.937256
vt 0.070068 0.933594
vt 0.068996 0.936183
vt 0.063817 0.936183
vt 0.062744 0.933594
vt 0.063817 0.931004
vt 0.068996 0.931004
s 0
usemtl props
f 1/1/1 2/2/1 3/3/1 7/4/1
f 8/5/2 4/6/2 5/7/2 6/8/2
f 4/5/3 1/9/3 7/10/3 5/8/3
f 2/5/4 8/9/4 6/10/4 3/8/4
f 7/5/5 3/11/5 6/12/5 5/13/5
f 4/5/6 8/11/6 2/12/6 1/13/6
s 1
f 24/14/4 9/15/7 10/16/7 11/17/4
f 9/15/7 23/18/2 12/19/2 10/16/7
f 23/18/2 13/20/8 14/21/8 12/19/2
f 13/20/8 22/22/3 16/23/3 14/21/8
f 22/22/3 17/24/9 15/25/9 16/23/3
f 17/24/9 18/26/1 19/27/1 15/25/9
f 18/26/1 21/28/10 20/29/10 19/27/1
f 21/28/10 24/30/4 11/31/4 20/29/10
s 0
f 11/32/5 10/33/5 12/23/5 14/34/5 16/35/5 15/36/5 19/22/5 20/37/5
f 21/33/6 18/23/6 17/34/6 22/35/6 13/36/6 23/22/6 9/37/6 24/32/6
