# Blender 4.5.14 LTS
# www.blender.org
mtllib curve_mirror.mtl
o curve_mirror
v 0.000000 3.000000 -0.040000 0.9921 0.9921 0.9921
v 0.028284 3.000000 -0.028284 0.9843 0.9843 0.9843
v 0.000000 0.000000 -0.040000 0.8039 0.8039 0.8039
v -0.028284 0.000000 -0.028284 0.8039 0.8039 0.8039
v -0.028284 3.000000 -0.028284 0.9843 0.9843 0.9843
v -0.040000 3.000000 -0.000000 0.9372 0.9372 0.9372
v -0.028284 0.000000 0.028284 0.8039 0.8039 0.8039
v -0.028284 3.000000 0.028284 0.8706 0.8706 0.8706
v 0.028284 0.000000 0.028284 0.8039 0.8039 0.8039
v 0.040000 3.000000 0.000000 0.9411 0.9411 0.9411
v 0.028284 3.000000 0.028284 0.8745 0.8745 0.8745
v -0.000000 3.000000 0.040000 0.8392 0.8392 0.8392
v -0.000000 0.000000 0.040000 0.8039 0.8039 0.8039
v -0.040000 0.000000 -0.000000 0.8039 0.8039 0.8039
v 0.028284 0.000000 -0.028284 0.8039 0.8039 0.8039
v 0.040000 0.000000 0.000000 0.8039 0.8039 0.8039
v 0.030000 2.770000 0.140000 0.8000 0.8000 0.8000
v 0.030000 2.830000 0.140000 0.8039 0.8039 0.8039
v -0.030000 2.830000 0.140000 0.8039 0.8039 0.8039
v 0.030000 2.770000 0.020000 0.7020 0.7020 0.7020
v -0.030000 2.770000 0.020000 0.7020 0.7020 0.7020
v 0.030000 2.830000 0.020000 0.7020 0.7020 0.7020
v -0.030000 2.830000 0.020000 0.7020 0.7020 0.7020
v -0.030000 2.770000 0.140000 0.8000 0.8000 0.8000
v 0.346410 2.950000 0.180000 0.9921 0.9921 0.9921
v 0.346410 2.950000 0.240000 1.0000 1.0000 1.0000
v 0.200000 3.096410 0.180000 0.9921 0.9921 0.9921
v 0.000000 3.150000 0.180000 0.9921 0.9921 0.9921
v -0.200000 3.096410 0.180000 0.9921 0.9921 0.9921
v -0.200000 3.096410 0.240000 1.0000 1.0000 1.0000
v -0.346410 2.950000 0.180000 0.9921 0.9921 0.9921
v -0.400000 2.750000 0.180000 0.9607 0.9607 0.9607
v -0.346410 2.550000 0.180000 0.9607 0.9607 0.9607
v -0.400000 2.750000 0.240000 0.9333 0.9333 0.9333
v -0.200000 2.403590 0.240000 0.8980 0.8980 0.8980
v -0.000000 2.350000 0.240000 0.8941 0.8941 0.8941
v -0.000000 2.350000 0.180000 0.9451 0.9451 0.9451
v 0.200000 2.403590 0.180000 0.9607 0.9607 0.9607
v 0.346410 2.550000 0.180000 0.9568 0.9568 0.9568
v 0.346410 2.550000 0.240000 0.9058 0.9058 0.9058
v 0.400000 2.750000 0.240000 0.9294 0.9294 0.9294
v 0.200000 3.096410 0.240000 1.0000 1.0000 1.0000
v 0.000000 3.150000 0.240000 1.0000 1.0000 1.0000
v -0.346410 2.950000 0.240000 1.0000 1.0000 1.0000
v -0.346410 2.550000 0.240000 0.9058 0.9058 0.9058
v 0.200000 2.403590 0.240000 0.8980 0.8980 0.8980
v -0.200000 2.403590 0.180000 0.9647 0.9647 0.9647
v 0.400000 2.750000 0.180000 0.9607 0.9607 0.9607
v -0.440000 2.780000 0.200000 1.0000 1.0000 1.0000
v -0.425007 2.666120 0.240000 1.0000 1.0000 1.0000
v -0.440000 2.780000 0.240000 1.0000 1.0000 1.0000
v -0.425007 2.666120 0.200000 1.0000 1.0000 1.0000
v -0.381051 2.560000 0.240000 1.0000 1.0000 1.0000
v -0.381051 2.560000 0.200000 1.0000 1.0000 1.0000
v -0.311127 2.468873 0.200000 1.0000 1.0000 1.0000
v -0.311127 2.468873 0.240000 1.0000 1.0000 1.0000
v -0.220000 2.398949 0.200000 0.9921 0.9921 0.9921
v -0.113880 2.354993 0.200000 0.9804 0.9804 0.9804
v -0.220000 2.398949 0.240000 1.0000 1.0000 1.0000
v -0.113880 2.354993 0.240000 0.9921 0.9921 0.9921
v -0.000000 2.340000 0.200000 0.9725 0.9725 0.9725
v 0.113880 2.354993 0.240000 0.9804 0.9804 0.9804
v -0.000000 2.340000 0.240000 0.9804 0.9804 0.9804
v 0.113880 2.354993 0.200000 0.9804 0.9804 0.9804
v 0.220000 2.398949 0.200000 0.9960 0.9960 0.9960
v 0.220000 2.398949 0.240000 1.0000 1.0000 1.0000
v 0.311127 2.468873 0.200000 1.0000 1.0000 1.0000
v 0.311127 2.468873 0.240000 1.0000 1.0000 1.0000
v 0.381051 2.560000 0.200000 1.0000 1.0000 1.0000
v 0.381051 2.560000 0.240000 1.0000 1.0000 1.0000
v 0.425007 2.666120 0.200000 1.0000 1.0000 1.0000
v 0.440000 2.780000 0.200000 1.0000 1.0000 1.0000
v 0.440000 2.780000 0.240000 1.0000 1.0000 1.0000
v 0.425007 2.666120 0.240000 1.0000 1.0000 1.0000
vn 1.0000 -0.0000 -0.0000
vn 0.7071 -0.0000 -0.7071
vn -0.0000 -0.0000 -1.0000
vn -0.7071 -0.0000 -0.7071
vn -1.0000 -0.0000 -0.0000
vn -0.7071 -0.0000 0.7071
vn -0.0000 -0.0000 1.0000
vn 0.7071 -0.0000 0.7071
vn -0.0000 1.0000 -0.0000
vn -0.0000 -1.0000 -0.0000
vn 0.8660 0.5000 -0.0000
vn 0.5000 0.8660 -0.0000
vn -0.5000 0.8660 -0.0000
vn -0.8660 0.5000 -0.0000
vn -0.8660 -0.5000 -0.0000
vn -0.5000 -0.8660 -0.0000
vn 0.5000 -0.8660 -0.0000
vn 0.8660 -0.5000 -0.0000
vn -0.9914 -0.1305 -0.0000
vn -0.9659 -0.2588 -0.0000
vn -0.7071 -0.7071 -0.0000
vn -0.2588 -0.9659 -0.0000
vn 0.2588 -0.9659 -0.0000
vn 0.7071 -0.7071 -0.0000
vn 0.9659 -0.2588 -0.0000
vn 0.9914 -0.1305 -0.0000
vt 0.086182 0.929932
vt 0.087097 0.929932
vt 0.087097 0.937256
vt 0.086182 0.937256
vt 0.088013 0.929932
vt 0.088013 0.937256
vt 0.088928 0.929932
vt 0.088928 0.937256
vt 0.089844 0.929932
vt 0.089844 0.937256
vt 0.090759 0.929932
vt 0.090759 0.937256
vt 0.091675 0.929932
vt 0.091675 0.937256
vt 0.092590 0.929932
vt 0.092590 0.937256
vt 0.093506 0.929932
vt 0.093506 0.937256
vt 0.093506 0.933594
vt 0.092433 0.936183
vt 0.087254 0.936183
vt 0.086182 0.933594
vt 0.087254 0.931004
vt 0.092433 0.931004
vt 0.089697 0.929932
vt 0.089697 0.933447
vt 0.086182 0.933447
vt 0.093213 0.929932
vt 0.093213 0.933447
vt 0.089697 0.936963
vt 0.086182 0.936963
vt 0.086792 0.929932
vt 0.086792 0.937256
vt 0.087402 0.929932
vt 0.087402 0.937256
vt 0.088623 0.929932
vt 0.088623 0.937256
vt 0.089233 0.929932
vt 0.089233 0.937256
vt 0.090454 0.929932
vt 0.090454 0.937256
vt 0.091064 0.929932
vt 0.091064 0.937256
vt 0.092285 0.929932
vt 0.092285 0.937256
vt 0.092896 0.929932
vt 0.092896 0.937256
vt 0.900146 0.992188
vt 0.899132 0.995972
vt 0.896362 0.998742
vt 0.892578 0.999756
vt 0.888794 0.998742
vt 0.886024 0.995972
vt 0.885010 0.992188
vt 0.886024 0.988403
vt 0.888794 0.985633
vt 0.892578 0.984619
vt 0.896362 0.985633
vt 0.899132 0.988403
vt 0.093015 0.935425
vt 0.091675 0.936765
vt 0.088013 0.936765
vt 0.086672 0.935425
vt 0.086672 0.931763
vt 0.088013 0.930422
vt 0.091675 0.930422
vt 0.093015 0.931763
s 1
usemtl props
f 16/1/1 15/2/2 2/3/2 10/4/1
f 15/2/2 3/5/3 1/6/3 2/3/2
f 3/5/3 4/7/4 5/8/4 1/6/3
f 4/7/4 14/9/5 6/10/5 5/8/4
f 14/9/5 7/11/6 8/12/6 6/10/5
f 7/11/6 13/13/7 12/14/7 8/12/6
f 13/13/7 9/15/8 11/16/8 12/14/7
f 9/15/8 16/17/1 10/18/1 11/16/8
s 0
f 10/19/9 2/20/9 1/10/9 5/21/9 6/22/9 8/23/9 12/9/9 11/24/9
f 9/20/10 13/10/10 7/21/10 14/22/10 4/23/10 3/9/10 15/24/10 16/19/10
f 24/1/7 17/25/7 18/26/7 19/27/7
f 20/1/3 21/25/3 23/26/3 22/27/3
f 21/1/5 24/28/5 19/29/5 23/27/5
f 17/1/1 20/28/1 22/29/1 18/27/1
f 19/1/9 18/25/9 22/30/9 23/31/9
f 21/1/10 20/25/10 17/30/10 24/31/10
s 1
f 48/1/1 25/32/11 26/33/11 41/4/1
f 25/32/11 27/34/12 42/35/12 26/33/11
f 27/34/12 28/5/9 43/6/9 42/35/12
f 28/5/9 29/36/13 30/37/13 43/6/9
f 29/36/13 31/38/14 44/39/14 30/37/13
f 31/38/14 32/9/5 34/10/5 44/39/14
f 32/9/5 33/40/15 45/41/15 34/10/5
f 33/40/15 47/42/16 35/43/16 45/41/15
f 47/42/16 37/13/10 36/14/10 35/43/16
f 37/13/10 38/44/17 46/45/17 36/14/10
f 38/44/17 39/46/18 40/47/18 46/45/17
f 39/46/18 48/17/1 41/18/1 40/47/18
s 0
f 41/48/7 26/49/7 42/50/7 43/51/7 30/52/7 44/53/7 34/54/7 45/55/7 35/56/7 36/57/7 46/58/7 40/59/7
f 39/60/3 38/61/3 37/10/3 47/62/3 33/63/3 32/22/3 31/64/3 29/65/3 28/9/3 27/66/3 25/67/3 48/19/3
s 1
f 49/1/19 52/32/20 50/33/20 51/4/19
f 52/32/20 54/34/15 53/35/15 50/33/20
f 54/34/15 55/5/21 56/6/21 53/35/15
f 55/5/21 57/36/16 59/37/16 56/6/21
f 57/36/16 58/38/22 60/39/22 59/37/16
f 58/38/22 61/9/10 63/10/10 60/39/22
f 61/9/10 64/40/23 62/41/23 63/10/10
f 64/40/23 65/42/17 66/43/17 62/41/23
f 65/42/17 67/13/24 68/14/24 66/43/17
f 67/13/24 69/44/18 70/45/18 68/14/24
f 69/44/18 71/46/25 74/47/25 70/45/18
f 71/46/25 72/17/26 73/18/26 74/47/25
