# Blender 4.5.14 LTS
# www.blender.org
mtllib gatepost.mtl
o gatepost
v -0.180000 0.000000 0.180000 0.8000 0.8000 0.8000
v 0.180000 0.000000 0.180000 0.8000 0.8000 0.8000
v -0.180000 1.700000 0.180000 0.8353 0.8353 0.8353
v 0.180000 0.000000 -0.180000 0.8039 0.8039 0.8039
v -0.180000 0.000000 -0.180000 0.8000 0.8000 0.8000
v -0.180000 1.700000 -0.180000 0.8392 0.8392 0.8392
v 0.180000 1.700000 0.180000 0.8353 0.8353 0.8353
v 0.180000 1.700000 -0.180000 0.8353 0.8353 0.8353
v -0.220000 1.700000 0.220000 0.9725 0.9725 0.9725
v 0.220000 1.700000 0.220000 0.9764 0.9764 0.9764
v -0.220000 1.700000 -0.220000 0.9764 0.9764 0.9764
v -0.220000 1.780000 0.220000 1.0000 1.0000 1.0000
v -0.220000 1.780000 -0.220000 1.0000 1.0000 1.0000
v 0.220000 1.700000 -0.220000 0.9764 0.9764 0.9764
v 0.220000 1.780000 0.220000 1.0000 1.0000 1.0000
v 0.220000 1.780000 -0.220000 1.0000 1.0000 1.0000
v -0.060000 1.150000 0.180000 0.8078 0.8078 0.8078
v 0.060000 1.450000 0.180000 0.7960 0.7960 0.7960
v -0.060000 1.150000 0.200000 0.9058 0.9058 0.9058
v -0.060000 1.450000 0.180000 0.8000 0.8000 0.8000
v 0.060000 1.150000 0.200000 0.9058 0.9058 0.9058
v 0.060000 1.450000 0.200000 0.9019 0.9019 0.9019
v -0.060000 1.450000 0.200000 0.9019 0.9019 0.9019
v 0.060000 1.150000 0.180000 0.8039 0.8039 0.8039
v -0.030000 1.095000 0.205000 0.9058 0.9058 0.9058
v 0.030000 1.005000 0.175000 0.7294 0.7294 0.7294
v 0.030000 1.005000 0.205000 0.9098 0.9098 0.9098
v 0.030000 1.095000 0.175000 0.7333 0.7333 0.7333
v 0.030000 1.095000 0.205000 0.9058 0.9058 0.9058
v -0.030000 1.095000 0.175000 0.7333 0.7333 0.7333
v -0.030000 1.005000 0.175000 0.7294 0.7294 0.7294
v -0.030000 1.005000 0.205000 0.9098 0.9098 0.9098
vn -0.0000 -0.0000 1.0000
vn -0.0000 -0.0000 -1.0000
vn -1.0000 -0.0000 -0.0000
vn 1.0000 -0.0000 -0.0000
vn -0.0000 1.0000 -0.0000
vn -0.0000 -1.0000 -0.0000
vt 0.838135 0.984619
vt 0.841340 0.984619
vt 0.841340 0.999756
vt 0.838135 0.999756
vt 0.853271 0.984619
vt 0.853271 0.999756
vt 0.963135 0.984619
vt 0.978271 0.984619
vt 0.978271 0.987371
vt 0.963135 0.987371
vt 0.978271 0.999756
vt 0.963135 0.999756
vt 0.830322 0.980713
vt 0.837646 0.980713
vt 0.837646 0.999756
vt 0.830322 0.999756
vt 0.978760 0.984619
vt 0.993896 0.984619
vt 0.993896 0.999756
vt 0.978760 0.999756
vt 0.979769 0.984619
vt 0.979769 0.999756
vt 0.986025 0.984619
vt 0.986025 0.985830
vt 0.978760 0.985830
vt 0.093994 0.931885
vt 0.097412 0.931885
vt 0.097412 0.937256
vt 0.093994 0.937256
vt 0.078369 0.929932
vt 0.085693 0.929932
vt 0.085693 0.937256
vt 0.078369 0.937256
vt 0.080127 0.929932
vt 0.080127 0.935205
vt 0.078369 0.935205
vt 0.081885 0.929932
vt 0.081885 0.931689
vt 0.078369 0.931689
s 0
usemtl props
f 1/1/1 2/2/1 7/3/1 3/4/1
f 4/1/2 5/2/2 6/3/2 8/4/2
f 5/1/3 1/2/3 3/3/3 6/4/3
f 2/1/4 4/2/4 8/3/4 7/4/4
f 3/1/5 7/5/5 8/6/5 6/4/5
f 5/1/6 4/5/6 2/6/6 1/4/6
f 9/7/1 10/8/1 15/9/1 12/10/1
f 14/7/2 11/8/2 13/9/2 16/10/2
f 11/7/3 9/8/3 12/9/3 13/10/3
f 10/7/4 14/8/4 16/9/4 15/10/4
f 12/7/5 15/8/5 16/11/5 13/12/5
f 11/7/6 14/8/6 10/11/6 9/12/6
f 19/13/1 21/14/1 22/15/1 23/16/1
f 24/17/2 17/18/2 20/19/2 18/20/2
f 17/17/3 19/21/3 23/22/3 20/20/3
f 21/17/4 24/21/4 18/22/4 22/20/4
f 23/17/5 22/23/5 18/24/5 20/25/5
f 17/17/6 24/23/6 21/24/6 19/25/6
f 32/26/1 27/27/1 29/28/1 25/29/1
f 26/30/2 31/31/2 30/32/2 28/33/2
f 31/30/3 32/34/3 25/35/3 30/36/3
f 27/30/4 26/34/4 28/35/4 29/36/4
f 25/30/5 29/37/5 28/38/5 30/39/5
f 31/30/6 26/37/6 27/38/6 32/39/6
