# Blender 4.5.14 LTS
# www.blender.org
mtllib ground_lane.mtl
o ground_lane
v -2.000000 0.000000 2.000000 1.0000 1.0000 1.0000
v -2.000000 0.000000 0.000000 1.0000 1.0000 1.0000
v -2.000000 0.000000 -2.000000 1.0000 1.0000 1.0000
v 0.000000 0.000000 2.000000 1.0000 1.0000 1.0000
v 2.000000 0.000000 2.000000 1.0000 1.0000 1.0000
v 0.000000 0.000000 0.000000 1.0000 1.0000 1.0000
v 2.000000 0.000000 0.000000 1.0000 1.0000 1.0000
v 2.000000 0.000000 -2.000000 1.0000 1.0000 1.0000
v 0.000000 0.000000 -2.000000 1.0000 1.0000 1.0000
vn -0.0000 1.0000 -0.0000
vt 0.062256 0.937744
vt 0.062256 0.999756
vt 0.000244 0.999756
vt 0.000244 0.937744
s 0
usemtl props
f 1/1/1 4/2/1 6/3/1 2/4/1
f 2/3/1 6/4/1 9/1/1 3/2/1
f 4/1/1 5/2/1 7/3/1 6/4/1
f 6/3/1 7/4/1 8/1/1 9/2/1
