# Blender 4.5.14 LTS
# www.blender.org
mtllib gutter.mtl
o gutter
v -1.000000 -0.040000 -0.180000 0.7960 0.7960 0.7960
v -1.000000 -0.040000 0.180000 0.7960 0.7960 0.7960
v 1.000000 -0.040000 0.180000 0.7960 0.7960 0.7960
v 1.000000 0.000000 -0.180000 0.8902 0.8902 0.8902
v -1.000000 0.000000 0.180000 0.8902 0.8902 0.8902
v 1.000000 0.000000 0.180000 0.8902 0.8902 0.8902
v -1.000000 0.000000 -0.180000 0.8902 0.8902 0.8902
v 1.000000 -0.040000 -0.180000 0.8000 0.8000 0.8000
v -0.990000 0.000000 0.150000 0.7960 0.7960 0.7960
v -0.990000 0.000000 -0.150000 0.8000 0.8000 0.8000
v -0.990000 0.030000 0.150000 0.9098 0.9098 0.9098
v -0.990000 0.030000 -0.150000 0.9098 0.9098 0.9098
v -0.510000 0.000000 0.150000 0.7764 0.7764 0.7764
v -0.510000 0.030000 0.150000 0.9058 0.9058 0.9058
v -0.510000 0.030000 -0.150000 0.9058 0.9058 0.9058
v -0.510000 0.000000 -0.150000 0.7764 0.7764 0.7764
v -0.490000 0.000000 0.150000 0.7764 0.7764 0.7764
v -0.490000 0.030000 -0.150000 0.9058 0.9058 0.9058
v -0.490000 0.000000 -0.150000 0.7764 0.7764 0.7764
v -0.490000 0.030000 0.150000 0.9019 0.9019 0.9019
v -0.010000 0.030000 0.150000 0.9098 0.9098 0.9098
v -0.010000 0.030000 -0.150000 0.9098 0.9098 0.9098
v -0.010000 0.000000 -0.150000 0.7804 0.7804 0.7804
v -0.010000 0.000000 0.150000 0.7764 0.7764 0.7764
v 0.990000 0.000000 0.150000 0.8000 0.8000 0.8000
v 0.990000 0.030000 0.150000 0.9137 0.9137 0.9137
v 0.510000 0.030000 0.150000 0.9058 0.9058 0.9058
v 0.990000 0.000000 -0.150000 0.8000 0.8000 0.8000
v 0.510000 0.030000 -0.150000 0.9058 0.9058 0.9058
v 0.990000 0.030000 -0.150000 0.9137 0.9137 0.9137
v 0.510000 0.000000 -0.150000 0.7764 0.7764 0.7764
v 0.510000 0.000000 0.150000 0.7764 0.7764 0.7764
v 0.490000 0.000000 0.150000 0.7764 0.7764 0.7764
v 0.010000 0.000000 0.150000 0.7764 0.7764 0.7764
v 0.010000 0.025000 -0.150000 0.8980 0.8980 0.8980
v 0.010000 0.025000 0.150000 0.8980 0.8980 0.8980
v 0.490000 0.025000 0.150000 0.8980 0.8980 0.8980
v 0.490000 0.025000 -0.150000 0.8980 0.8980 0.8980
v 0.010000 0.000000 -0.150000 0.7764 0.7764 0.7764
v 0.490000 0.000000 -0.150000 0.7764 0.7764 0.7764
vn -0.0000 -0.0000 1.0000
vn -0.0000 -0.0000 -1.0000
vn -1.0000 -0.0000 -0.0000
vn 1.0000 -0.0000 -0.0000
vn -0.0000 1.0000 -0.0000
vn -0.0000 -1.0000 -0.0000
vt 0.838135 0.984619
vt 0.853271 0.984619
vt 0.853271 0.984922
vt 0.838135 0.984922
vt 0.853271 0.986301
vt 0.838135 0.986301
vt 0.869385 0.984619
vt 0.884521 0.984619
vt 0.884521 0.987344
vt 0.869385 0.987344
vt 0.853271 0.987344
vt 0.838135 0.987344
vt 0.853271 0.985565
vt 0.838135 0.985565
vt 0.853271 0.986133
vt 0.838135 0.986133
vt 0.884521 0.994080
vt 0.869385 0.994080
vt 0.853271 0.994080
vt 0.838135 0.994080
vt 0.047119 0.929932
vt 0.054443 0.929932
vt 0.054443 0.930313
vt 0.047119 0.930313
vt 0.054443 0.930542
vt 0.047119 0.930542
vt 0.853760 0.984619
vt 0.868896 0.984619
vt 0.868896 0.999756
vt 0.853760 0.999756
vt 0.054443 0.934509
vt 0.047119 0.934509
s 0
usemtl props
f 2/1/1 3/2/1 6/3/1 5/4/1
f 8/1/2 1/2/2 7/3/2 4/4/2
f 1/1/3 2/2/3 5/5/3 7/6/3
f 3/1/4 8/2/4 4/5/4 6/6/4
f 5/7/5 6/8/5 4/9/5 7/10/5
f 1/1/6 8/2/6 3/11/6 2/12/6
f 9/1/1 13/2/1 14/13/1 11/14/1
f 16/1/2 10/2/2 12/13/2 15/14/2
f 10/1/3 9/2/3 11/15/3 12/16/3
f 13/1/4 16/2/4 15/15/4 14/16/4
f 11/7/5 14/8/5 15/17/5 12/18/5
f 10/1/6 16/2/6 13/19/6 9/20/6
f 17/1/1 24/2/1 21/13/1 20/14/1
f 23/1/2 19/2/2 18/13/2 22/14/2
f 19/1/3 17/2/3 20/15/3 18/16/3
f 24/1/4 23/2/4 22/15/4 21/16/4
f 20/7/5 21/8/5 22/17/5 18/18/5
f 19/1/6 23/2/6 24/19/6 17/20/6
f 32/1/1 25/2/1 26/13/1 27/14/1
f 28/1/2 31/2/2 29/13/2 30/14/2
f 31/1/3 32/2/3 27/15/3 29/16/3
f 25/1/4 28/2/4 30/15/4 26/16/4
f 27/7/5 26/8/5 30/17/5 29/18/5
f 31/1/6 28/2/6 25/19/6 32/20/6
f 34/21/1 33/22/1 37/23/1 36/24/1
f 40/21/2 39/22/2 35/23/2 38/24/2
f 39/21/3 34/22/3 36/25/3 35/26/3
f 33/21/4 40/22/4 38/25/4 37/26/4
f 36/27/5 37/28/5 38/29/5 35/30/5
f 39/21/6 40/22/6 33/31/6 34/32/6
