# Blender 4.5.14 LTS
# www.blender.org
mtllib marking_stop.mtl
o marking_stop
v -1.200000 0.006000 0.700000 1.0000 1.0000 1.0000
v 1.200000 0.006000 0.700000 1.0000 1.0000 1.0000
v 1.200000 0.006000 -0.700000 1.0000 1.0000 1.0000
v -1.200000 0.006000 -0.700000 1.0000 1.0000 1.0000
v -1.200000 0.006000 -0.850000 1.0000 1.0000 1.0000
v 1.200000 0.006000 -0.850000 1.0000 1.0000 1.0000
v 1.200000 0.006000 -1.150000 1.0000 1.0000 1.0000
v -1.200000 0.006000 -1.150000 1.0000 1.0000 1.0000
vn -0.0000 1.0000 -0.0000
vt 0.758057 0.972900
vt 0.804443 0.972900
vt 0.804443 0.999756
vt 0.758057 0.999756
vt 0.054932 0.929932
vt 0.062256 0.929932
vt 0.062256 0.930847
vt 0.054932 0.930847
s 0
usemtl props
f 1/1/1 2/2/1 3/3/1 4/4/1
f 5/5/1 6/6/1 7/7/1 8/8/1
