# Blender 4.5.14 LTS
# www.blender.org
mtllib post_box.mtl
o post_box
v 0.250000 0.120000 0.250000 0.9019 0.9019 0.9019
v -0.250000 0.120000 0.250000 0.9019 0.9019 0.9019
v -0.250000 0.120000 -0.250000 0.9019 0.9019 0.9019
v 0.250000 0.000000 0.250000 0.8000 0.8000 0.8000
v 0.250000 0.000000 -0.250000 0.8000 0.8000 0.8000
v 0.250000 0.120000 -0.250000 0.9058 0.9058 0.9058
v -0.250000 0.000000 -0.250000 0.7960 0.7960 0.7960
v -0.250000 0.000000 0.250000 0.7960 0.7960 0.7960
v 0.200000 0.120000 0.000000 0.8157 0.8157 0.8157
v 0.173205 0.120000 -0.100000 0.8078 0.8078 0.8078
v 0.173205 1.170000 -0.100000 0.8941 0.8941 0.8941
v 0.100000 1.170000 -0.173205 0.8941 0.8941 0.8941
v 0.000000 0.120000 -0.200000 0.8196 0.8196 0.8196
v 0.000000 1.170000 -0.200000 0.8980 0.8980 0.8980
v -0.100000 0.120000 -0.173205 0.8078 0.8078 0.8078
v -0.173205 0.120000 -0.100000 0.8078 0.8078 0.8078
v -0.100000 1.170000 -0.173205 0.8941 0.8941 0.8941
v -0.200000 1.170000 -0.000000 0.8980 0.8980 0.8980
v -0.173205 1.170000 -0.100000 0.8941 0.8941 0.8941
v -0.173205 1.170000 0.100000 0.9019 0.9019 0.9019
v -0.000000 0.120000 0.200000 0.8117 0.8117 0.8117
v -0.000000 1.170000 0.200000 0.8941 0.8941 0.8941
v -0.100000 1.170000 0.173205 0.8980 0.8980 0.8980
v 0.100000 0.120000 0.173205 0.8078 0.8078 0.8078
v 0.173205 0.120000 0.100000 0.8078 0.8078 0.8078
v 0.100000 1.170000 0.173205 0.9019 0.9019 0.9019
v 0.200000 1.170000 0.000000 0.8980 0.8980 0.8980
v 0.173205 1.170000 0.100000 0.8980 0.8980 0.8980
v -0.100000 0.120000 0.173205 0.8078 0.8078 0.8078
v -0.173205 0.120000 0.100000 0.8078 0.8078 0.8078
v -0.200000 0.120000 -0.000000 0.8157 0.8157 0.8157
v 0.100000 0.120000 -0.173205 0.8117 0.8117 0.8117
v 0.240000 1.200000 0.000000 1.0000 1.0000 1.0000
v 0.199186 1.170000 -0.115000 0.9607 0.9607 0.9607
v 0.115000 1.170000 -0.199186 0.9607 0.9607 0.9607
v 0.000000 1.170000 -0.230000 0.9647 0.9647 0.9647
v -0.207846 1.200000 -0.120000 0.9960 0.9960 0.9960
v -0.240000 1.200000 -0.000000 1.0000 1.0000 1.0000
v -0.199186 1.170000 0.115000 0.9607 0.9607 0.9607
v -0.115000 1.170000 0.199186 0.9529 0.9529 0.9529
v -0.000000 1.170000 0.230000 0.9490 0.9490 0.9490
v -0.000000 1.200000 0.240000 0.9921 0.9921 0.9921
v 0.120000 1.200000 0.207846 0.9960 0.9960 0.9960
v 0.115000 1.170000 0.199186 0.9529 0.9529 0.9529
v 0.199186 1.170000 0.115000 0.9529 0.9529 0.9529
v 0.230000 1.170000 0.000000 0.9607 0.9607 0.9607
v 0.207846 1.200000 -0.120000 1.0000 1.0000 1.0000
v 0.120000 1.200000 -0.207846 1.0000 1.0000 1.0000
v 0.100000 1.270000 -0.173205 1.0000 1.0000 1.0000
v 0.000000 1.200000 -0.240000 1.0000 1.0000 1.0000
v -0.120000 1.200000 -0.207846 1.0000 1.0000 1.0000
v -0.100000 1.270000 -0.173205 1.0000 1.0000 1.0000
v -0.173205 1.270000 -0.100000 1.0000 1.0000 1.0000
v -0.207846 1.200000 0.120000 1.0000 1.0000 1.0000
v -0.120000 1.200000 0.207846 0.9960 0.9960 0.9960
v 0.173205 1.270000 0.100000 1.0000 1.0000 1.0000
v 0.207846 1.200000 0.120000 0.9960 0.9960 0.9960
v 0.173205 1.270000 -0.100000 1.0000 1.0000 1.0000
v 0.103923 1.340000 -0.060000 1.0000 1.0000 1.0000
v 0.000000 1.270000 -0.200000 1.0000 1.0000 1.0000
v 0.000000 1.340000 -0.120000 1.0000 1.0000 1.0000
v -0.060000 1.340000 -0.103923 1.0000 1.0000 1.0000
v -0.200000 1.270000 -0.000000 1.0000 1.0000 1.0000
v -0.120000 1.340000 -0.000000 1.0000 1.0000 1.0000
v -0.173205 1.270000 0.100000 1.0000 1.0000 1.0000
v -0.103923 1.340000 0.060000 1.0000 1.0000 1.0000
v -0.100000 1.270000 0.173205 1.0000 1.0000 1.0000
v -0.000000 1.340000 0.120000 1.0000 1.0000 1.0000
v -0.000000 1.270000 0.200000 1.0000 1.0000 1.0000
v 0.100000 1.270000 0.173205 1.0000 1.0000 1.0000
v 0.060000 1.340000 0.103923 1.0000 1.0000 1.0000
v 0.200000 1.270000 0.000000 1.0000 1.0000 1.0000
v 0.120000 1.340000 0.000000 1.0000 1.0000 1.0000
v 0.060000 1.340000 -0.103923 1.0000 1.0000 1.0000
v -0.103923 1.340000 -0.060000 1.0000 1.0000 1.0000
v -0.060000 1.340000 0.103923 1.0000 1.0000 1.0000
v 0.103923 1.340000 0.060000 1.0000 1.0000 1.0000
v 0.000000 1.370000 0.000000 1.0000 1.0000 1.0000
v -0.230000 1.170000 -0.000000 0.9607 0.9607 0.9607
v -0.199186 1.170000 -0.115000 0.9568 0.9568 0.9568
v -0.115000 1.170000 -0.199186 0.9607 0.9607 0.9607
v -0.100000 1.000000 0.230000 0.9568 0.9568 0.9568
v 0.100000 1.000000 0.230000 0.9568 0.9568 0.9568
v 0.100000 1.000000 0.170000 0.7216 0.7216 0.7216
v 0.100000 1.040000 0.170000 0.7059 0.7059 0.7059
v 0.100000 1.040000 0.230000 0.9490 0.9490 0.9490
v -0.100000 1.040000 0.230000 0.9529 0.9529 0.9529
v -0.100000 1.040000 0.170000 0.7098 0.7098 0.7098
v -0.100000 1.000000 0.170000 0.7255 0.7255 0.7255
vn -0.0000 -0.0000 1.0000
vn -0.0000 -0.0000 -1.0000
vn -1.0000 -0.0000 -0.0000
vn 1.0000 -0.0000 -0.0000
vn -0.0000 1.0000 -0.0000
vn -0.0000 -1.0000 -0.0000
vn 0.8660 -0.0000 -0.5000
vn 0.5000 -0.0000 -0.8660
vn -0.5000 -0.0000 -0.8660
vn -0.8660 -0.0000 -0.5000
vn -0.8660 -0.0000 0.5000
vn -0.5000 -0.0000 0.8660
vn 0.5000 -0.0000 0.8660
vn 0.8660 -0.0000 0.5000
vn 0.9487 -0.3162 -0.0000
vn 0.8216 -0.3162 -0.4743
vn 0.8623 0.0925 -0.4979
vn 0.9957 0.0925 -0.0000
vn 0.4743 -0.3162 -0.8216
vn 0.4979 0.0925 -0.8623
vn -0.0000 -0.3162 -0.9487
vn -0.0000 0.0925 -0.9957
vn -0.4743 -0.3162 -0.8216
vn -0.4979 0.0925 -0.8623
vn -0.8216 -0.3162 -0.4743
vn -0.8623 0.0925 -0.4979
vn -0.9487 -0.3162 -0.0000
vn -0.9957 0.0925 -0.0000
vn -0.8216 -0.3162 0.4743
vn -0.8623 0.0925 0.4979
vn -0.4743 -0.3162 0.8216
vn -0.4979 0.0925 0.8623
vn -0.0000 -0.3162 0.9487
vn -0.0000 0.0925 0.9957
vn 0.4743 -0.3162 0.8216
vn 0.4979 0.0925 0.8623
vn 0.8216 -0.3162 0.4743
vn 0.8623 0.0925 0.4979
vn 0.6795 0.6200 -0.3923
vn 0.7846 0.6200 -0.0000
vn 0.3923 0.6200 -0.6795
vn -0.0000 0.6200 -0.7846
vn -0.3923 0.6200 -0.6795
vn -0.6795 0.6200 -0.3923
vn -0.7846 0.6200 -0.0000
vn -0.6795 0.6200 0.3923
vn -0.3923 0.6200 0.6795
vn -0.0000 0.6200 0.7846
vn 0.3923 0.6200 0.6795
vn 0.6795 0.6200 0.3923
vn 0.4270 0.8700 -0.2465
vn 0.4930 0.8700 -0.0000
vn 0.2465 0.8700 -0.4270
vn -0.0000 0.8700 -0.4930
vn -0.2465 0.8700 -0.4270
vn -0.4270 0.8700 -0.2465
vn -0.4930 0.8700 -0.0000
vn -0.4270 0.8700 0.2465
vn -0.2465 0.8700 0.4270
vn -0.0000 0.8700 0.4930
vn 0.2465 0.8700 0.4270
vn 0.4270 0.8700 0.2465
vt 0.838135 0.984619
vt 0.853271 0.984619
vt 0.853271 0.988252
vt 0.838135 0.988252
vt 0.853271 0.999756
vt 0.838135 0.999756
vt 0.656494 0.968994
vt 0.659058 0.968994
vt 0.659058 0.999756
vt 0.656494 0.999756
vt 0.661621 0.968994
vt 0.661621 0.999756
vt 0.664185 0.968994
vt 0.664185 0.999756
vt 0.666748 0.968994
vt 0.666748 0.999756
vt 0.669312 0.968994
vt 0.669312 0.999756
vt 0.671875 0.968994
vt 0.671875 0.999756
vt 0.674438 0.968994
vt 0.674438 0.999756
vt 0.677002 0.968994
vt 0.677002 0.999756
vt 0.679565 0.968994
vt 0.679565 0.999756
vt 0.682129 0.968994
vt 0.682129 0.999756
vt 0.684692 0.968994
vt 0.684692 0.999756
vt 0.687256 0.968994
vt 0.687256 0.999756
vt 0.914757 0.995972
vt 0.911987 0.998742
vt 0.908203 0.999756
vt 0.904419 0.998742
vt 0.901649 0.995972
vt 0.900635 0.992188
vt 0.901649 0.988403
vt 0.904419 0.985633
vt 0.908203 0.984619
vt 0.911987 0.985633
vt 0.914757 0.988403
vt 0.915771 0.992188
vt 0.900635 0.984619
vt 0.901896 0.984619
vt 0.901896 0.986018
vt 0.900635 0.986018
vt 0.903158 0.984619
vt 0.903158 0.986018
vt 0.904419 0.984619
vt 0.904419 0.986018
vt 0.905680 0.984619
vt 0.905680 0.986018
vt 0.906942 0.984619
vt 0.906942 0.986018
vt 0.908203 0.986018
vt 0.909465 0.984619
vt 0.909465 0.986018
vt 0.910726 0.984619
vt 0.910726 0.986018
vt 0.911987 0.984619
vt 0.911987 0.986018
vt 0.913249 0.984619
vt 0.913249 0.986018
vt 0.914510 0.984619
vt 0.914510 0.986018
vt 0.915771 0.984619
vt 0.915771 0.986018
vt 0.901896 0.989584
vt 0.900635 0.989584
vt 0.903158 0.989584
vt 0.904419 0.989584
vt 0.905680 0.989584
vt 0.906942 0.989584
vt 0.908203 0.989584
vt 0.909465 0.989584
vt 0.910726 0.989584
vt 0.911987 0.989584
vt 0.913249 0.989584
vt 0.914510 0.989584
vt 0.915771 0.989584
vt 0.901896 0.994285
vt 0.900635 0.994285
vt 0.903158 0.994285
vt 0.904419 0.994285
vt 0.905680 0.994285
vt 0.906942 0.994285
vt 0.908203 0.994285
vt 0.909465 0.994285
vt 0.910726 0.994285
vt 0.911987 0.994285
vt 0.913249 0.994285
vt 0.914510 0.994285
vt 0.915771 0.994285
vt 0.901265 0.999756
vt 0.902527 0.999756
vt 0.903788 0.999756
vt 0.905050 0.999756
vt 0.906311 0.999756
vt 0.907572 0.999756
vt 0.908834 0.999756
vt 0.910095 0.999756
vt 0.911357 0.999756
vt 0.912618 0.999756
vt 0.913879 0.999756
vt 0.915141 0.999756
vt 0.047119 0.929932
vt 0.054443 0.929932
vt 0.054443 0.931396
vt 0.047119 0.931396
vt 0.050635 0.929932
vt 0.050635 0.932275
vt 0.047119 0.932275
vt 0.054443 0.932129
vt 0.047119 0.932129
s 0
usemtl props
f 8/1/1 4/2/1 1/3/1 2/4/1
f 5/1/2 7/2/2 3/3/2 6/4/2
f 7/1/3 8/2/3 2/3/3 3/4/3
f 4/1/4 5/2/4 6/3/4 1/4/4
f 2/1/5 1/2/5 6/5/5 3/6/5
f 7/1/6 5/2/6 4/5/6 8/6/6
s 1
f 9/7/4 10/8/7 11/9/7 27/10/4
f 10/8/7 32/11/8 12/12/8 11/9/7
f 32/11/8 13/13/2 14/14/2 12/12/8
f 13/13/2 15/15/9 17/16/9 14/14/2
f 15/15/9 16/17/10 19/18/10 17/16/9
f 16/17/10 31/19/3 18/20/3 19/18/10
f 31/19/3 30/21/11 20/22/11 18/20/3
f 30/21/11 29/23/12 23/24/12 20/22/11
f 29/23/12 21/25/1 22/26/1 23/24/12
f 21/25/1 24/27/13 26/28/13 22/26/1
f 24/27/13 25/29/14 28/30/14 26/28/13
f 25/29/14 9/31/4 27/32/4 28/30/14
s 0
f 25/33/6 24/34/6 21/35/6 29/36/6 30/37/6 31/38/6 16/39/6 15/40/6 13/41/6 32/42/6 10/43/6 9/44/6
s 1
f 46/45/15 34/46/16 47/47/17 33/48/18
f 34/46/16 35/49/19 48/50/20 47/47/17
f 35/49/19 36/51/21 50/52/22 48/50/20
f 36/51/21 81/53/23 51/54/24 50/52/22
f 81/53/23 80/55/25 37/56/26 51/54/24
f 80/55/25 79/41/27 38/57/28 37/56/26
f 79/41/27 39/58/29 54/59/30 38/57/28
f 39/58/29 40/60/31 55/61/32 54/59/30
f 40/60/31 41/62/33 42/63/34 55/61/32
f 41/62/33 44/64/35 43/65/36 42/63/34
f 44/64/35 45/66/37 57/67/38 43/65/36
f 45/66/37 46/68/15 33/69/18 57/67/38
f 33/48/18 47/47/17 58/70/39 72/71/40
f 47/47/17 48/50/20 49/72/41 58/70/39
f 48/50/20 50/52/22 60/73/42 49/72/41
f 50/52/22 51/54/24 52/74/43 60/73/42
f 51/54/24 37/56/26 53/75/44 52/74/43
f 37/56/26 38/57/28 63/76/45 53/75/44
f 38/57/28 54/59/30 65/77/46 63/76/45
f 54/59/30 55/61/32 67/78/47 65/77/46
f 55/61/32 42/63/34 69/79/48 67/78/47
f 42/63/34 43/65/36 70/80/49 69/79/48
f 43/65/36 57/67/38 56/81/50 70/80/49
f 57/67/38 33/69/18 72/82/40 56/81/50
f 72/71/40 58/70/39 59/83/51 73/84/52
f 58/70/39 49/72/41 74/85/53 59/83/51
f 49/72/41 60/73/42 61/86/54 74/85/53
f 60/73/42 52/74/43 62/87/55 61/86/54
f 52/74/43 53/75/44 75/88/56 62/87/55
f 53/75/44 63/76/45 64/89/57 75/88/56
f 63/76/45 65/77/46 66/90/58 64/89/57
f 65/77/46 67/78/47 76/91/59 66/90/58
f 67/78/47 69/79/48 68/92/60 76/91/59
f 69/79/48 70/80/49 71/93/61 68/92/60
f 70/80/49 56/81/50 77/94/62 71/93/61
f 56/81/50 72/82/40 73/95/52 77/94/62
f 73/84/52 59/83/51 78/96/5
f 59/83/51 74/85/53 78/97/5
f 74/85/53 61/86/54 78/98/5
f 61/86/54 62/87/55 78/99/5
f 62/87/55 75/88/56 78/100/5
f 75/88/56 64/89/57 78/101/5
f 64/89/57 66/90/58 78/102/5
f 66/90/58 76/91/59 78/103/5
f 76/91/59 68/92/60 78/104/5
f 68/92/60 71/93/61 78/105/5
f 71/93/61 77/94/62 78/106/5
f 77/94/62 73/95/52 78/107/5
s 0
f 45/33/6 44/34/6 41/35/6 40/36/6 39/37/6 79/38/6 80/39/6 81/40/6 36/41/6 35/42/6 34/43/6 46/44/6
f 82/108/1 83/109/1 86/110/1 87/111/1
f 84/108/2 89/109/2 88/110/2 85/111/2
f 89/108/3 82/112/3 87/113/3 88/114/3
f 83/108/4 84/112/4 85/113/4 86/114/4
f 87/108/5 86/109/5 85/115/5 88/116/5
f 89/108/6 84/109/6 83/115/6 82/116/6
