# Blender 4.5.14 LTS
# www.blender.org
mtllib utility_pole.mtl
o utility_pole
v 0.160000 0.000000 0.000000 0.7020 0.7020 0.7020
v 0.100000 9.000000 0.000000 1.0000 1.0000 1.0000
v 0.000000 9.000000 -0.100000 1.0000 1.0000 1.0000
v -0.113137 0.000000 -0.113137 0.7020 0.7020 0.7020
v -0.160000 0.000000 -0.000000 0.7020 0.7020 0.7020
v -0.100000 9.000000 -0.000000 1.0000 1.0000 1.0000
v -0.070711 9.000000 -0.070711 1.0000 1.0000 1.0000
v -0.113137 0.000000 0.113137 0.7020 0.7020 0.7020
v -0.000000 0.000000 0.160000 0.7020 0.7020 0.7020
v -0.070711 9.000000 0.070711 1.0000 1.0000 1.0000
v 0.113137 0.000000 0.113137 0.7020 0.7020 0.7020
v 0.070711 9.000000 0.070711 1.0000 1.0000 1.0000
v 0.070711 9.000000 -0.070711 1.0000 1.0000 1.0000
v -0.000000 9.000000 0.100000 1.0000 1.0000 1.0000
v 0.000000 0.000000 -0.160000 0.7020 0.7020 0.7020
v 0.113137 0.000000 -0.113137 0.7020 0.7020 0.7020
v 0.116673 1.800000 -0.116673 1.0000 1.0000 1.0000
v 0.116673 0.000000 -0.116673 0.8509 0.8509 0.8509
v 0.000000 0.000000 -0.165000 0.8509 0.8509 0.8509
v 0.000000 1.800000 -0.165000 1.0000 1.0000 1.0000
v -0.116673 0.000000 -0.116673 0.8470 0.8470 0.8470
v -0.165000 0.000000 -0.000000 0.8470 0.8470 0.8470
v -0.165000 1.800000 -0.000000 1.0000 1.0000 1.0000
v -0.116673 1.800000 -0.116673 1.0000 1.0000 1.0000
v -0.116673 0.000000 0.116673 0.8470 0.8470 0.8470
v -0.116673 1.800000 0.116673 1.0000 1.0000 1.0000
v -0.000000 0.000000 0.165000 0.8470 0.8470 0.8470
v -0.000000 1.800000 0.165000 0.9960 0.9960 0.9960
v 0.116673 0.000000 0.116673 0.8509 0.8509 0.8509
v 0.165000 0.000000 0.000000 0.8549 0.8549 0.8549
v 0.165000 1.800000 0.000000 1.0000 1.0000 1.0000
v 0.116673 1.800000 0.116673 0.9960 0.9960 0.9960
v -0.150000 3.200000 0.180000 0.9764 0.9764 0.9764
v -0.150000 2.000000 0.160000 0.9215 0.9215 0.9215
v -0.150000 3.200000 0.160000 0.9255 0.9255 0.9255
v 0.150000 2.000000 0.180000 0.9764 0.9764 0.9764
v 0.150000 3.200000 0.180000 0.9764 0.9764 0.9764
v 0.150000 3.200000 0.160000 0.9255 0.9255 0.9255
v 0.150000 2.000000 0.160000 0.9215 0.9215 0.9215
v -0.150000 2.000000 0.180000 0.9764 0.9764 0.9764
v 0.100000 2.150000 0.150000 0.8117 0.8117 0.8117
v -0.100000 2.650000 0.150000 0.8157 0.8157 0.8157
v 0.100000 2.650000 0.150000 0.8157 0.8157 0.8157
v 0.100000 2.150000 0.170000 0.7020 0.7020 0.7020
v -0.100000 2.650000 0.170000 0.7020 0.7020 0.7020
v 0.100000 2.650000 0.170000 0.7020 0.7020 0.7020
v -0.100000 2.150000 0.170000 0.7020 0.7020 0.7020
v -0.100000 2.150000 0.150000 0.8157 0.8157 0.8157
v -0.180000 2.212000 -0.000000 0.9215 0.9215 0.9215
v -0.180000 2.200000 0.012000 0.9137 0.9137 0.9137
v -0.180000 2.188000 0.000000 0.9255 0.9255 0.9255
v 0.180000 2.188000 0.000000 0.9255 0.9255 0.9255
v 0.180000 2.200000 -0.012000 0.9451 0.9451 0.9451
v 0.180000 2.212000 -0.000000 0.9255 0.9255 0.9255
v 0.180000 2.200000 0.012000 0.9098 0.9098 0.9098
v -0.180000 2.200000 -0.012000 0.9451 0.9451 0.9451
v 0.012000 2.650000 -0.180000 0.9451 0.9451 0.9451
v 0.000000 2.638000 -0.180000 0.9411 0.9411 0.9411
v -0.012000 2.650000 -0.180000 0.9411 0.9411 0.9411
v 0.000000 2.662000 -0.180000 0.9411 0.9411 0.9411
v 0.012000 2.650000 0.180000 0.8000 0.8000 0.8000
v -0.000000 2.662000 0.180000 0.8000 0.8000 0.8000
v -0.012000 2.650000 0.180000 0.8000 0.8000 0.8000
v -0.000000 2.638000 0.180000 0.8000 0.8000 0.8000
v -0.180000 3.088000 0.000000 0.9255 0.9255 0.9255
v 0.180000 3.100000 -0.012000 0.9451 0.9451 0.9451
v 0.180000 3.100000 0.012000 0.9176 0.9176 0.9176
v 0.180000 3.112000 -0.000000 0.9372 0.9372 0.9372
v -0.180000 3.100000 0.012000 0.9176 0.9176 0.9176
v 0.180000 3.088000 0.000000 0.9215 0.9215 0.9215
v -0.180000 3.112000 -0.000000 0.9333 0.9333 0.9333
v -0.180000 3.100000 -0.012000 0.9451 0.9451 0.9451
v -0.000000 3.538000 0.180000 0.9451 0.9451 0.9451
v 0.012000 3.550000 -0.180000 0.9490 0.9490 0.9490
v 0.000000 3.562000 -0.180000 0.9490 0.9490 0.9490
v 0.012000 3.550000 0.180000 0.9451 0.9451 0.9451
v 0.000000 3.538000 -0.180000 0.9490 0.9490 0.9490
v -0.012000 3.550000 -0.180000 0.9490 0.9490 0.9490
v -0.000000 3.562000 0.180000 0.9490 0.9490 0.9490
v -0.012000 3.550000 0.180000 0.9451 0.9451 0.9451
v -0.180000 3.988000 0.000000 0.9490 0.9490 0.9490
v -0.180000 4.012000 -0.000000 0.9490 0.9490 0.9490
v 0.180000 4.012000 -0.000000 0.9490 0.9490 0.9490
v -0.180000 4.000000 0.012000 0.9490 0.9490 0.9490
v 0.180000 3.988000 0.000000 0.9490 0.9490 0.9490
v 0.180000 4.000000 -0.012000 0.9529 0.9529 0.9529
v 0.180000 4.000000 0.012000 0.9529 0.9529 0.9529
v -0.180000 4.000000 -0.012000 0.9490 0.9490 0.9490
v 0.000000 4.438000 -0.180000 0.9490 0.9490 0.9490
v -0.012000 4.450000 0.180000 0.9529 0.9529 0.9529
v -0.012000 4.450000 -0.180000 0.9529 0.9529 0.9529
v 0.012000 4.450000 0.180000 0.9529 0.9529 0.9529
v 0.000000 4.462000 -0.180000 0.9490 0.9490 0.9490
v 0.012000 4.450000 -0.180000 0.9529 0.9529 0.9529
v -0.000000 4.462000 0.180000 0.9490 0.9490 0.9490
v -0.000000 4.438000 0.180000 0.9490 0.9490 0.9490
v -0.180000 4.888000 0.000000 0.9490 0.9490 0.9490
v 0.180000 4.900000 -0.012000 0.9568 0.9568 0.9568
v 0.180000 4.888000 0.000000 0.9490 0.9490 0.9490
v -0.180000 4.912000 -0.000000 0.9490 0.9490 0.9490
v -0.180000 4.900000 0.012000 0.9568 0.9568 0.9568
v 0.180000 4.912000 -0.000000 0.9529 0.9529 0.9529
v 0.180000 4.900000 0.012000 0.9529 0.9529 0.9529
v -0.180000 4.900000 -0.012000 0.9529 0.9529 0.9529
v -0.000000 5.338000 0.180000 0.9529 0.9529 0.9529
v -0.012000 5.350000 -0.180000 0.9529 0.9529 0.9529
v -0.000000 5.362000 0.180000 0.9568 0.9568 0.9568
v 0.012000 5.350000 0.180000 0.9529 0.9529 0.9529
v 0.000000 5.362000 -0.180000 0.9490 0.9490 0.9490
v 0.000000 5.338000 -0.180000 0.9529 0.9529 0.9529
v 0.012000 5.350000 -0.180000 0.9568 0.9568 0.9568
v -0.012000 5.350000 0.180000 0.9568 0.9568 0.9568
v -0.180000 5.800000 -0.012000 0.9529 0.9529 0.9529
v 0.180000 5.800000 -0.012000 0.9568 0.9568 0.9568
v -0.180000 5.812000 -0.000000 0.9568 0.9568 0.9568
v 0.180000 5.812000 -0.000000 0.9529 0.9529 0.9529
v -0.180000 5.800000 0.012000 0.9568 0.9568 0.9568
v 0.180000 5.788000 0.000000 0.9568 0.9568 0.9568
v 0.180000 5.800000 0.012000 0.9568 0.9568 0.9568
v -0.180000 5.788000 0.000000 0.9490 0.9490 0.9490
v -0.000000 6.238000 0.180000 0.9568 0.9568 0.9568
v -0.012000 6.250000 0.180000 0.9568 0.9568 0.9568
v 0.000000 6.262000 -0.180000 0.9529 0.9529 0.9529
v 0.012000 6.250000 0.180000 0.9568 0.9568 0.9568
v 0.012000 6.250000 -0.180000 0.9568 0.9568 0.9568
v 0.000000 6.238000 -0.180000 0.9568 0.9568 0.9568
v -0.012000 6.250000 -0.180000 0.9568 0.9568 0.9568
v -0.000000 6.262000 0.180000 0.9568 0.9568 0.9568
v 0.050000 8.300000 -0.900000 0.9960 0.9960 0.9960
v -0.050000 8.400000 -0.900000 0.9921 0.9921 0.9921
v -0.050000 8.300000 0.900000 1.0000 1.0000 1.0000
v -0.050000 8.400000 0.900000 0.9921 0.9921 0.9921
v 0.050000 8.300000 0.900000 0.9960 0.9960 0.9960
v 0.050000 8.400000 -0.900000 0.9960 0.9960 0.9960
v 0.050000 8.400000 0.900000 0.9960 0.9960 0.9960
v -0.050000 8.300000 -0.900000 1.0000 1.0000 1.0000
v 0.020000 8.400000 0.615359 0.7568 0.7568 0.7568
v 0.030000 8.440000 0.598038 0.9333 0.9333 0.9333
v -0.020000 8.400000 0.615359 0.7608 0.7608 0.7608
v -0.030000 8.440000 0.598038 0.9255 0.9255 0.9255
v -0.040000 8.400000 0.650000 0.7568 0.7568 0.7568
v -0.020000 8.400000 0.684641 0.7568 0.7568 0.7568
v -0.030000 8.440000 0.701962 0.9333 0.9333 0.9333
v 0.020000 8.400000 0.684641 0.7608 0.7608 0.7608
v 0.060000 8.440000 0.650000 0.9804 0.9804 0.9804
v 0.030000 8.440000 0.701962 0.9333 0.9333 0.9333
v 0.020000 8.480000 0.615359 0.9294 0.9294 0.9294
v -0.060000 8.440000 0.650000 0.9764 0.9764 0.9764
v 0.020000 8.480000 0.684641 0.9294 0.9294 0.9294
v 0.040000 8.480000 0.650000 0.9490 0.9490 0.9490
v 0.030000 8.520000 0.598038 0.9647 0.9647 0.9647
v -0.020000 8.480000 0.615359 0.9333 0.9333 0.9333
v -0.040000 8.480000 0.650000 0.9490 0.9490 0.9490
v -0.030000 8.520000 0.701962 0.9686 0.9686 0.9686
v -0.020000 8.480000 0.684641 0.9333 0.9333 0.9333
v 0.030000 8.520000 0.701962 0.9686 0.9686 0.9686
v 0.060000 8.520000 0.650000 0.9843 0.9843 0.9843
v 0.015000 8.580000 0.624019 0.9921 0.9921 0.9921
v -0.030000 8.520000 0.598038 0.9607 0.9607 0.9607
v -0.060000 8.520000 0.650000 0.9843 0.9843 0.9843
v -0.015000 8.580000 0.675981 0.9921 0.9921 0.9921
v -0.030000 8.580000 0.650000 0.9960 0.9960 0.9960
v 0.015000 8.580000 0.675981 0.9960 0.9960 0.9960
v 0.030000 8.580000 0.650000 1.0000 1.0000 1.0000
v -0.015000 8.580000 0.624019 0.9921 0.9921 0.9921
v 0.040000 8.400000 0.650000 0.7608 0.7608 0.7608
v 0.040000 8.400000 0.000000 0.7020 0.7020 0.7020
v 0.060000 8.440000 0.000000 0.7020 0.7020 0.7020
v -0.030000 8.440000 -0.051962 0.7020 0.7020 0.7020
v -0.040000 8.400000 -0.000000 0.7020 0.7020 0.7020
v -0.060000 8.440000 -0.000000 0.7020 0.7020 0.7020
v 0.030000 8.440000 -0.051962 0.7020 0.7020 0.7020
v -0.020000 8.480000 -0.034641 0.7020 0.7020 0.7020
v -0.030000 8.440000 0.051962 0.7020 0.7020 0.7020
v -0.020000 8.480000 0.034641 0.7020 0.7020 0.7020
v -0.040000 8.480000 -0.000000 0.7020 0.7020 0.7020
v 0.030000 8.440000 0.051962 0.7020 0.7020 0.7020
v 0.040000 8.480000 0.000000 0.7020 0.7020 0.7020
v 0.020000 8.480000 -0.034641 0.7020 0.7020 0.7020
v 0.020000 8.480000 0.034641 0.7020 0.7020 0.7020
v -0.030000 8.520000 0.051962 0.7020 0.7020 0.7020
v 0.060000 8.520000 0.000000 0.7020 0.7020 0.7020
v 0.030000 8.520000 0.051962 0.7020 0.7020 0.7020
v 0.030000 8.580000 0.000000 0.7020 0.7020 0.7020
v 0.030000 8.520000 -0.051962 0.7020 0.7020 0.7020
v -0.015000 8.580000 -0.025981 0.7020 0.7020 0.7020
v 0.015000 8.580000 -0.025981 0.7020 0.7020 0.7020
v -0.030000 8.520000 -0.051962 0.7020 0.7020 0.7020
v -0.060000 8.520000 -0.000000 0.7020 0.7020 0.7020
v 0.015000 8.580000 0.025981 0.7020 0.7020 0.7020
v -0.030000 8.580000 -0.000000 0.7020 0.7020 0.7020
v -0.015000 8.580000 0.025981 0.7020 0.7020 0.7020
v 0.020000 8.400000 0.034641 0.7020 0.7020 0.7020
v -0.020000 8.400000 0.034641 0.7020 0.7020 0.7020
v -0.020000 8.400000 -0.034641 0.7020 0.7020 0.7020
v 0.020000 8.400000 -0.034641 0.7020 0.7020 0.7020
v 0.060000 8.440000 -0.650000 0.9764 0.9764 0.9764
v -0.020000 8.400000 -0.684641 0.7608 0.7608 0.7608
v -0.030000 8.440000 -0.701962 0.9294 0.9294 0.9294
v 0.030000 8.440000 -0.701962 0.9372 0.9372 0.9372
v -0.030000 8.440000 -0.598038 0.9294 0.9294 0.9294
v 0.040000 8.400000 -0.650000 0.7608 0.7608 0.7608
v -0.060000 8.440000 -0.650000 0.9764 0.9764 0.9764
v 0.020000 8.480000 -0.615359 0.9255 0.9255 0.9255
v -0.020000 8.480000 -0.615359 0.9294 0.9294 0.9294
v 0.030000 8.440000 -0.598038 0.9333 0.9333 0.9333
v 0.040000 8.480000 -0.650000 0.9490 0.9490 0.9490
v 0.020000 8.480000 -0.684641 0.9333 0.9333 0.9333
v 0.060000 8.520000 -0.650000 0.9843 0.9843 0.9843
v -0.020000 8.480000 -0.684641 0.9333 0.9333 0.9333
v -0.030000 8.520000 -0.701962 0.9686 0.9686 0.9686
v -0.060000 8.520000 -0.650000 0.9843 0.9843 0.9843
v -0.040000 8.480000 -0.650000 0.9490 0.9490 0.9490
v 0.030000 8.520000 -0.701962 0.9686 0.9686 0.9686
v 0.015000 8.580000 -0.675981 0.9960 0.9960 0.9960
v -0.030000 8.520000 -0.598038 0.9647 0.9647 0.9647
v 0.030000 8.520000 -0.598038 0.9647 0.9647 0.9647
v -0.015000 8.580000 -0.624019 0.9921 0.9921 0.9921
v 0.030000 8.580000 -0.650000 1.0000 1.0000 1.0000
v -0.015000 8.580000 -0.675981 0.9960 0.9960 0.9960
v -0.030000 8.580000 -0.650000 1.0000 1.0000 1.0000
v 0.015000 8.580000 -0.624019 0.9921 0.9921 0.9921
v 0.020000 8.400000 -0.615359 0.7608 0.7608 0.7608
v -0.020000 8.400000 -0.615359 0.7568 0.7568 0.7568
v -0.040000 8.400000 -0.650000 0.7568 0.7568 0.7568
v 0.020000 8.400000 -0.684641 0.7568 0.7568 0.7568
v 0.000000 8.284000 0.812000 0.9098 0.9098 0.9098
v -0.020000 8.300000 0.800000 0.8078 0.8078 0.8078
v -0.020000 7.700000 0.000000 0.7059 0.7059 0.7059
v 0.020000 8.300000 0.800000 0.8078 0.8078 0.8078
v 0.020000 7.700000 0.000000 0.7059 0.7059 0.7059
v 0.000000 7.680000 0.000000 0.7059 0.7059 0.7059
v 0.000000 8.284000 -0.812000 0.9098 0.9098 0.9098
v -0.000000 7.720000 0.000000 0.7059 0.7059 0.7059
v -0.020000 8.300000 -0.800000 0.8117 0.8117 0.8117
v 0.020000 8.300000 -0.800000 0.8117 0.8117 0.8117
v -0.000000 8.316000 -0.788000 0.7020 0.7020 0.7020
v -0.000000 8.316000 0.788000 0.7020 0.7020 0.7020
vn 1.0000 0.0067 -0.0000
vn 0.7071 0.0067 -0.7071
vn -0.0000 0.0067 -1.0000
vn -0.7071 0.0067 -0.7071
vn -1.0000 0.0067 -0.0000
vn -0.7071 0.0067 0.7071
vn -0.0000 0.0067 1.0000
vn 0.7071 0.0067 0.7071
vn -0.0000 1.0000 -0.0000
vn -0.0000 -1.0000 -0.0000
vn 1.0000 -0.0000 -0.0000
vn 0.7071 -0.0000 -0.7071
vn -0.0000 -0.0000 -1.0000
vn -0.7071 -0.0000 -0.7071
vn -1.0000 -0.0000 -0.0000
vn -0.7071 -0.0000 0.7071
vn -0.0000 -0.0000 1.0000
vn 0.7071 -0.0000 0.7071
vn -0.0000 -0.7071 -0.7071
vn -0.0000 0.7071 -0.7071
vn -0.0000 0.7071 0.7071
vn -0.0000 -0.7071 0.7071
vn -0.7071 -0.7071 -0.0000
vn -0.7071 0.7071 -0.0000
vn 0.7071 0.7071 -0.0000
vn 0.7071 -0.7071 -0.0000
vn 0.7947 -0.3974 -0.4588
vn 0.8660 -0.0000 -0.5000
vn -0.0000 -0.3974 -0.9177
vn -0.7947 -0.3974 -0.4588
vn -0.8660 -0.0000 -0.5000
vn -0.7947 -0.3974 0.4588
vn -0.8660 -0.0000 0.5000
vn -0.0000 -0.3974 0.9177
vn 0.7947 -0.3974 0.4588
vn 0.8660 -0.0000 0.5000
vn 0.7947 0.3974 -0.4588
vn -0.0000 0.3974 -0.9177
vn -0.7947 0.3974 -0.4588
vn -0.7947 0.3974 0.4588
vn -0.0000 0.3974 0.9177
vn 0.7947 0.3974 0.4588
vn 0.6692 -0.5954 0.4447
vn -0.6692 -0.5954 0.4447
vn -0.6687 0.5939 -0.4473
vn 0.6687 0.5939 -0.4473
vn 0.6692 -0.5954 -0.4447
vn -0.6692 -0.5954 -0.4447
vn -0.6687 0.5939 0.4473
vn 0.6687 0.5939 0.4473
vn -0.0000 0.6000 0.8000
vn -0.0000 0.6000 -0.8000
vt 0.718994 0.968994
vt 0.720886 0.968994
vt 0.720886 0.999756
vt 0.718994 0.999756
vt 0.722778 0.968994
vt 0.722778 0.999756
vt 0.724670 0.968994
vt 0.724670 0.999756
vt 0.726562 0.968994
vt 0.726562 0.999756
vt 0.728455 0.968994
vt 0.728455 0.999756
vt 0.730347 0.968994
vt 0.730347 0.999756
vt 0.732239 0.968994
vt 0.732239 0.999756
vt 0.734131 0.968994
vt 0.734131 0.999756
vt 0.734131 0.984375
vt 0.731914 0.995251
vt 0.721211 0.995251
vt 0.718994 0.984375
vt 0.721211 0.973499
vt 0.731914 0.973499
vt 0.931885 0.984619
vt 0.933777 0.984619
vt 0.933777 0.999756
vt 0.931885 0.999756
vt 0.935669 0.984619
vt 0.935669 0.999756
vt 0.937561 0.984619
vt 0.937561 0.999756
vt 0.939453 0.984619
vt 0.939453 0.999756
vt 0.941345 0.984619
vt 0.941345 0.999756
vt 0.943237 0.984619
vt 0.943237 0.999756
vt 0.945129 0.984619
vt 0.945129 0.999756
vt 0.947021 0.984619
vt 0.947021 0.999756
vt 0.750244 0.968994
vt 0.757568 0.968994
vt 0.757568 0.999756
vt 0.750244 0.999756
vt 0.947510 0.984619
vt 0.947762 0.984619
vt 0.947762 0.999756
vt 0.947510 0.999756
vt 0.962646 0.984619
vt 0.962646 0.985628
vt 0.947510 0.985628
vt 0.804932 0.972900
vt 0.814209 0.972900
vt 0.814209 0.999756
vt 0.804932 0.999756
vt 0.948115 0.984619
vt 0.948115 0.999756
vt 0.959619 0.984619
vt 0.959619 0.985830
vt 0.947510 0.985830
vt 0.951294 0.984619
vt 0.951294 0.999756
vt 0.955078 0.984619
vt 0.955078 0.999756
vt 0.958862 0.984619
vt 0.958862 0.999756
vt 0.962646 0.999756
vt 0.962646 0.992188
vt 0.947510 0.992188
vt 0.953564 0.984619
vt 0.953564 0.990674
vt 0.947510 0.990674
vt 0.962646 0.985460
vt 0.947510 0.985460
vt 0.948351 0.984619
vt 0.948351 0.999756
vt 0.039307 0.929932
vt 0.040527 0.929932
vt 0.040527 0.931559
vt 0.039307 0.931559
vt 0.041748 0.929932
vt 0.041748 0.931559
vt 0.042969 0.929932
vt 0.042969 0.931559
vt 0.044189 0.929932
vt 0.044189 0.931559
vt 0.045410 0.929932
vt 0.045410 0.931559
vt 0.046631 0.929932
vt 0.046631 0.931559
vt 0.040527 0.933187
vt 0.039307 0.933187
vt 0.041748 0.933187
vt 0.042969 0.933187
vt 0.044189 0.933187
vt 0.045410 0.933187
vt 0.046631 0.933187
vt 0.040527 0.934814
vt 0.039307 0.934814
vt 0.041748 0.934814
vt 0.042969 0.934814
vt 0.044189 0.934814
vt 0.045410 0.934814
vt 0.046631 0.934814
vt 0.040527 0.937256
vt 0.039307 0.937256
vt 0.041748 0.937256
vt 0.042969 0.937256
vt 0.044189 0.937256
vt 0.045410 0.937256
vt 0.046631 0.937256
vt 0.046631 0.933594
vt 0.044800 0.937256
vt 0.041138 0.937256
vt 0.039307 0.933594
vt 0.041138 0.929932
vt 0.044800 0.929932
vt 0.951294 0.992188
vt 0.955078 0.992188
vt 0.958862 0.992188
s 1
usemtl props
f 1/1/1 16/2/2 13/3/2 2/4/1
f 16/2/2 15/5/3 3/6/3 13/3/2
f 15/5/3 4/7/4 7/8/4 3/6/3
f 4/7/4 5/9/5 6/10/5 7/8/4
f 5/9/5 8/11/6 10/12/6 6/10/5
f 8/11/6 9/13/7 14/14/7 10/12/6
f 9/13/7 11/15/8 12/16/8 14/14/7
f 11/15/8 1/17/1 2/18/1 12/16/8
s 0
f 2/19/9 13/20/9 3/10/9 7/21/9 6/22/9 10/23/9 14/9/9 12/24/9
f 11/20/10 9/10/10 8/21/10 5/22/10 4/23/10 15/9/10 16/24/10 1/19/10
s 1
f 30/25/11 18/26/12 17/27/12 31/28/11
f 18/26/12 19/29/13 20/30/13 17/27/12
f 19/29/13 21/31/14 24/32/14 20/30/13
f 21/31/14 22/33/15 23/34/15 24/32/14
f 22/33/15 25/35/16 26/36/16 23/34/15
f 25/35/16 27/37/17 28/38/17 26/36/16
f 27/37/17 29/39/18 32/40/18 28/38/17
f 29/39/18 30/41/11 31/42/11 32/40/18
s 0
f 40/43/17 36/44/17 37/45/17 33/46/17
f 39/43/13 34/44/13 35/45/13 38/46/13
f 34/47/15 40/48/15 33/49/15 35/50/15
f 36/47/11 39/48/11 38/49/11 37/50/11
f 33/47/9 37/51/9 38/52/9 35/53/9
f 34/47/10 39/51/10 36/52/10 40/53/10
f 41/54/13 48/55/13 42/56/13 43/57/13
f 47/54/17 44/55/17 46/56/17 45/57/17
f 44/47/11 41/58/11 43/59/11 46/50/11
f 48/47/15 47/58/15 45/59/15 42/50/15
f 43/47/9 42/60/9 45/61/9 46/62/9
f 44/47/10 47/60/10 48/61/10 41/62/10
s 1
f 51/47/19 56/63/19 53/64/19 52/50/19
f 56/63/20 49/65/20 54/66/20 53/64/20
f 49/65/21 50/67/21 55/68/21 54/66/21
f 50/67/22 51/51/22 52/69/22 55/68/22
s 0
f 52/70/11 53/66/11 54/71/11 55/65/11
f 50/66/15 49/71/15 56/65/15 51/70/15
s 1
f 64/47/23 63/63/23 59/64/23 58/50/23
f 63/63/24 62/65/24 60/66/24 59/64/24
f 62/65/25 61/67/25 57/68/25 60/66/25
f 61/67/26 64/51/26 58/69/26 57/68/26
s 0
f 58/70/13 59/66/13 60/71/13 57/65/13
f 61/66/17 62/71/17 63/65/17 64/70/17
s 1
f 65/47/19 72/63/19 66/64/19 70/50/19
f 72/63/20 71/65/20 68/66/20 66/64/20
f 71/65/21 69/67/21 67/68/21 68/66/21
f 69/67/22 65/51/22 70/69/22 67/68/22
s 0
f 70/70/11 66/66/11 68/71/11 67/65/11
f 69/66/15 71/71/15 72/65/15 65/70/15
s 1
f 73/47/23 80/63/23 78/64/23 77/50/23
f 80/63/24 79/65/24 75/66/24 78/64/24
f 79/65/25 76/67/25 74/68/25 75/66/25
f 76/67/26 73/51/26 77/69/26 74/68/26
s 0
f 77/70/13 78/66/13 75/71/13 74/65/13
f 76/66/17 79/71/17 80/65/17 73/70/17
s 1
f 81/47/19 88/63/19 86/64/19 85/50/19
f 88/63/20 82/65/20 83/66/20 86/64/20
f 82/65/21 84/67/21 87/68/21 83/66/21
f 84/67/22 81/51/22 85/69/22 87/68/22
s 0
f 85/70/11 86/66/11 83/71/11 87/65/11
f 84/66/15 82/71/15 88/65/15 81/70/15
s 1
f 96/47/23 90/63/23 91/64/23 89/50/23
f 90/63/24 95/65/24 93/66/24 91/64/24
f 95/65/25 92/67/25 94/68/25 93/66/25
f 92/67/26 96/51/26 89/69/26 94/68/26
s 0
f 89/70/13 91/66/13 93/71/13 94/65/13
f 92/66/17 95/71/17 90/65/17 96/70/17
s 1
f 97/47/19 104/63/19 98/64/19 99/50/19
f 104/63/20 100/65/20 102/66/20 98/64/20
f 100/65/21 101/67/21 103/68/21 102/66/21
f 101/67/22 97/51/22 99/69/22 103/68/22
s 0
f 99/70/11 98/66/11 102/71/11 103/65/11
f 101/66/15 100/71/15 104/65/15 97/70/15
s 1
f 105/47/23 112/63/23 106/64/23 110/50/23
f 112/63/24 107/65/24 109/66/24 106/64/24
f 107/65/25 108/67/25 111/68/25 109/66/25
f 108/67/26 105/51/26 110/69/26 111/68/26
s 0
f 110/70/13 106/66/13 109/71/13 111/65/13
f 108/66/17 107/71/17 112/65/17 105/70/17
s 1
f 120/47/19 113/63/19 114/64/19 118/50/19
f 113/63/20 115/65/20 116/66/20 114/64/20
f 115/65/21 117/67/21 119/68/21 116/66/21
f 117/67/22 120/51/22 118/69/22 119/68/22
s 0
f 118/70/11 114/66/11 116/71/11 119/65/11
f 117/66/15 115/71/15 113/65/15 120/70/15
s 1
f 121/47/23 122/63/23 127/64/23 126/50/23
f 122/63/24 128/65/24 123/66/24 127/64/24
f 128/65/25 124/67/25 125/68/25 123/66/25
f 124/67/26 121/51/26 126/69/26 125/68/26
s 0
f 126/70/13 127/66/13 123/71/13 125/65/13
f 124/66/17 128/71/17 122/65/17 121/70/17
f 131/47/17 133/72/17 135/73/17 132/74/17
f 129/47/13 136/72/13 130/73/13 134/74/13
f 136/47/15 131/51/15 132/75/15 130/76/15
f 133/47/11 129/51/11 134/75/11 135/76/11
f 132/47/9 135/77/9 134/78/9 130/50/9
f 136/47/10 129/77/10 133/78/10 131/50/10
s 1
f 166/79/27 137/80/27 138/81/28 145/82/28
f 137/80/29 139/83/29 140/84/13 138/81/13
f 139/83/30 141/85/30 148/86/31 140/84/31
f 141/85/32 142/87/32 143/88/33 148/86/33
f 142/87/34 144/89/34 146/90/17 143/88/17
f 144/89/35 166/91/35 145/92/36 146/90/36
f 145/82/28 138/81/28 147/93/28 150/94/28
f 138/81/13 140/84/13 152/95/13 147/93/13
f 140/84/31 148/86/31 153/96/31 152/95/31
f 148/86/33 143/88/33 155/97/33 153/96/33
f 143/88/17 146/90/17 149/98/17 155/97/17
f 146/90/36 145/92/36 150/99/36 149/98/36
f 150/94/28 147/93/28 151/100/28 157/101/28
f 147/93/13 152/95/13 159/102/13 151/100/13
f 152/95/31 153/96/31 160/103/31 159/102/31
f 153/96/33 155/97/33 154/104/33 160/103/33
f 155/97/17 149/98/17 156/105/17 154/104/17
f 149/98/36 150/99/36 157/106/36 156/105/36
f 157/101/28 151/100/28 158/107/37 164/108/37
f 151/100/13 159/102/13 165/109/38 158/107/38
f 159/102/31 160/103/31 162/110/39 165/109/39
f 160/103/33 154/104/33 161/111/40 162/110/40
f 154/104/17 156/105/17 163/112/41 161/111/41
f 156/105/36 157/106/36 164/113/42 163/112/42
s 0
f 164/114/9 158/115/9 165/116/9 162/117/9 161/118/9 163/119/9
f 144/115/10 142/116/10 141/117/10 139/118/10 137/119/10 166/114/10
s 1
f 167/79/27 196/80/27 172/81/28 168/82/28
f 196/80/29 195/83/29 169/84/13 172/81/13
f 195/83/30 170/85/30 171/86/31 169/84/31
f 170/85/32 194/87/32 174/88/33 171/86/33
f 194/87/34 193/89/34 177/90/17 174/88/17
f 193/89/35 167/91/35 168/92/36 177/90/36
f 168/82/28 172/81/28 179/93/28 178/94/28
f 172/81/13 169/84/13 173/95/13 179/93/13
f 169/84/31 171/86/31 176/96/31 173/95/31
f 171/86/33 174/88/33 175/97/33 176/96/33
f 174/88/17 177/90/17 180/98/17 175/97/17
f 177/90/36 168/92/36 178/99/36 180/98/36
f 178/94/28 179/93/28 185/100/28 182/101/28
f 179/93/13 173/95/13 188/102/13 185/100/13
f 173/95/31 176/96/31 189/103/31 188/102/31
f 176/96/33 175/97/33 181/104/33 189/103/33
f 175/97/17 180/98/17 183/105/17 181/104/17
f 180/98/36 178/99/36 182/106/36 183/105/36
f 182/101/28 185/100/28 187/107/37 184/108/37
f 185/100/13 188/102/13 186/109/38 187/107/38
f 188/102/31 189/103/31 191/110/39 186/109/39
f 189/103/33 181/104/33 192/111/40 191/110/40
f 181/104/17 183/105/17 190/112/41 192/111/41
f 183/105/36 182/106/36 184/113/42 190/112/42
s 0
f 184/114/9 187/115/9 186/116/9 191/117/9 192/118/9 190/119/9
f 193/115/10 194/116/10 170/117/10 195/118/10 196/119/10 167/114/10
s 1
f 202/79/27 226/80/27 200/81/28 197/82/28
f 226/80/29 198/83/29 199/84/13 200/81/13
f 198/83/30 225/85/30 203/86/31 199/84/31
f 225/85/32 224/87/32 201/88/33 203/86/33
f 224/87/34 223/89/34 206/90/17 201/88/17
f 223/89/35 202/91/35 197/92/36 206/90/36
f 197/82/28 200/81/28 208/93/28 207/94/28
f 200/81/13 199/84/13 210/95/13 208/93/13
f 199/84/31 203/86/31 213/96/31 210/95/31
f 203/86/33 201/88/33 205/97/33 213/96/33
f 201/88/17 206/90/17 204/98/17 205/97/17
f 206/90/36 197/92/36 207/99/36 204/98/36
f 207/94/28 208/93/28 214/100/28 209/101/28
f 208/93/13 210/95/13 211/102/13 214/100/13
f 210/95/31 213/96/31 212/103/31 211/102/31
f 213/96/33 205/97/33 216/104/33 212/103/33
f 205/97/17 204/98/17 217/105/17 216/104/17
f 204/98/36 207/99/36 209/106/36 217/105/36
f 209/101/28 214/100/28 215/107/37 219/108/37
f 214/100/13 211/102/13 220/109/38 215/107/38
f 211/102/31 212/103/31 221/110/39 220/109/39
f 212/103/33 216/104/33 218/111/40 221/110/40
f 216/104/17 217/105/17 222/112/41 218/111/41
f 217/105/36 209/106/36 219/113/42 222/112/42
s 0
f 219/114/9 215/115/9 220/116/9 221/117/9 218/118/9 222/119/9
f 223/115/10 224/116/10 225/117/10 198/118/10 226/119/10 202/114/10
f 230/47/43 227/63/43 232/120/43 231/71/43
f 227/63/44 228/65/44 229/121/44 232/120/44
f 228/65/45 238/67/45 234/122/45 229/121/45
f 238/67/46 230/51/46 231/70/46 234/122/46
f 231/71/47 232/120/47 233/64/47 236/50/47
f 232/120/48 229/121/48 235/66/48 233/64/48
f 229/121/49 234/122/49 237/68/49 235/66/49
f 234/122/50 231/70/50 236/69/50 237/68/50
f 238/66/51 228/71/51 227/65/51 230/70/51
f 236/71/52 233/65/52 235/70/52 237/66/52
