# Blender 4.5.14 LTS
# www.blender.org
mtllib vending_drinks.mtl
o vending_drinks
v -0.500000 0.000000 0.360000 0.8000 0.8000 0.8000
v 0.500000 0.000000 0.360000 0.8000 0.8000 0.8000
v 0.500000 1.830000 0.360000 0.9921 0.9921 0.9921
v -0.500000 1.830000 0.360000 0.9921 0.9921 0.9921
v -0.500000 1.830000 -0.360000 1.0000 1.0000 1.0000
v 0.500000 0.000000 -0.360000 0.8039 0.8039 0.8039
v 0.500000 1.830000 -0.360000 1.0000 1.0000 1.0000
v -0.500000 0.000000 -0.360000 0.8000 0.8000 0.8000
v -0.450000 0.870000 0.400000 0.9333 0.9333 0.9333
v -0.450000 1.770000 0.400000 0.9490 0.9490 0.9490
v 0.450000 0.870000 0.360000 0.8509 0.8509 0.8509
v 0.450000 1.770000 0.360000 0.8274 0.8274 0.8274
v 0.450000 1.770000 0.400000 0.9529 0.9529 0.9529
v -0.450000 1.770000 0.360000 0.8313 0.8313 0.8313
v -0.450000 0.870000 0.360000 0.8549 0.8549 0.8549
v 0.450000 0.870000 0.400000 0.9333 0.9333 0.9333
v -0.300000 0.120000 0.430000 0.8078 0.8078 0.8078
v -0.300000 0.320000 0.350000 0.8117 0.8117 0.8117
v 0.300000 0.320000 0.350000 0.8117 0.8117 0.8117
v -0.300000 0.120000 0.350000 0.7529 0.7529 0.7529
v 0.300000 0.120000 0.430000 0.8078 0.8078 0.8078
v 0.300000 0.120000 0.350000 0.7529 0.7529 0.7529
v 0.300000 0.320000 0.430000 0.8941 0.8941 0.8941
v -0.300000 0.320000 0.430000 0.8941 0.8941 0.8941
vn -0.0000 -0.0000 1.0000
vn -0.0000 -0.0000 -1.0000
vn -1.0000 -0.0000 -0.0000
vn 1.0000 -0.0000 -0.0000
vn -0.0000 1.0000 -0.0000
vn -0.0000 -1.0000 -0.0000
vt 0.625244 0.945557
vt 0.656006 0.945557
vt 0.656006 0.999756
vt 0.625244 0.999756
vt 0.734619 0.968994
vt 0.749756 0.968994
vt 0.749756 0.999756
vt 0.734619 0.999756
vt 0.687744 0.968994
vt 0.718506 0.968994
vt 0.718506 0.999756
vt 0.687744 0.999756
vt 0.916260 0.984619
vt 0.931396 0.984619
vt 0.931396 0.999756
vt 0.916260 0.999756
vt 0.916933 0.984619
vt 0.916933 0.999756
vt 0.931396 0.985292
vt 0.916260 0.985292
vt 0.000244 0.929932
vt 0.023193 0.929932
vt 0.023193 0.937256
vt 0.000244 0.937256
vt 0.931396 0.989665
vt 0.916260 0.989665
vt 0.921104 0.984619
vt 0.921104 0.996729
vt 0.916260 0.996729
vt 0.931396 0.986637
vt 0.916260 0.986637
s 0
usemtl props
f 1/1/1 2/2/1 3/3/1 4/4/1
f 6/5/2 8/6/2 5/7/2 7/8/2
f 8/5/3 1/6/3 4/7/3 5/8/3
f 2/5/4 6/6/4 7/7/4 3/8/4
f 4/5/5 3/6/5 7/7/5 5/8/5
f 8/5/6 6/6/6 2/7/6 1/8/6
f 9/9/1 16/10/1 13/11/1 10/12/1
f 11/13/2 15/14/2 14/15/2 12/16/2
f 15/13/3 9/17/3 10/18/3 14/16/3
f 16/13/4 11/17/4 12/18/4 13/16/4
f 10/13/5 13/14/5 12/19/5 14/20/5
f 15/13/6 11/14/6 16/19/6 9/20/6
f 17/21/1 21/22/1 23/23/1 24/24/1
f 22/13/2 20/14/2 18/25/2 19/26/2
f 20/13/3 17/27/3 24/28/3 18/29/3
f 21/13/4 22/27/4 19/28/4 23/29/4
f 24/13/5 23/14/5 19/30/5 18/31/5
f 20/13/6 22/14/6 21/30/6 17/31/6
o vending_drinks_can
v -0.060000 0.917000 0.300000 0.8431 0.8431 0.8431
v -0.060000 0.926665 0.276665 0.9058 0.9058 0.9058
v 0.060000 0.926665 0.276665 0.9058 0.9058 0.9058
v -0.060000 0.973335 0.276665 0.9058 0.9058 0.9058
v 0.060000 0.950000 0.267000 0.9333 0.9333 0.9333
v -0.060000 0.983000 0.300000 0.8509 0.8509 0.8509
v -0.060000 0.973335 0.323335 0.7804 0.7804 0.7804
v 0.060000 0.973335 0.323335 0.7804 0.7804 0.7804
v -0.060000 0.950000 0.333000 0.7490 0.7490 0.7490
v -0.060000 0.926665 0.323335 0.7764 0.7764 0.7764
v 0.060000 0.950000 0.333000 0.7490 0.7490 0.7490
v 0.060000 0.917000 0.300000 0.8470 0.8470 0.8470
v 0.060000 0.926665 0.323335 0.7804 0.7804 0.7804
v 0.060000 0.973335 0.276665 0.9098 0.9098 0.9098
v 0.060000 0.983000 0.300000 0.8509 0.8509 0.8509
v -0.060000 0.950000 0.267000 0.9294 0.9294 0.9294
vn -0.0000 -1.0000 -0.0000
vn -0.0000 -0.7071 -0.7071
vn -0.0000 -0.0000 -1.0000
vn -0.0000 0.7071 -0.7071
vn -0.0000 1.0000 -0.0000
vn -0.0000 0.7071 0.7071
vn -0.0000 -0.0000 1.0000
vn -0.0000 -0.7071 0.7071
vn 1.0000 -0.0000 -0.0000
vn -1.0000 -0.0000 -0.0000
vt 0.023682 0.929932
vt 0.025574 0.929932
vt 0.025574 0.937256
vt 0.023682 0.937256
vt 0.027466 0.929932
vt 0.027466 0.937256
vt 0.029358 0.929932
vt 0.029358 0.937256
vt 0.031250 0.929932
vt 0.031250 0.937256
vt 0.033142 0.929932
vt 0.033142 0.937256
vt 0.035034 0.929932
vt 0.035034 0.937256
vt 0.036926 0.929932
vt 0.036926 0.937256
vt 0.038818 0.929932
vt 0.038818 0.937256
vt 0.962646 0.992188
vt 0.960430 0.997539
vt 0.955078 0.999756
vt 0.949726 0.997539
vt 0.947510 0.992188
vt 0.949726 0.986836
vt 0.955078 0.984619
vt 0.960430 0.986836
s 1
usemtl props
f 25/32/7 26/33/8 27/34/8 36/35/7
f 26/33/8 40/36/9 29/37/9 27/34/8
f 40/36/9 28/38/10 38/39/10 29/37/9
f 28/38/10 30/40/11 39/41/11 38/39/10
f 30/40/11 31/42/12 32/43/12 39/41/11
f 31/42/12 33/44/13 35/45/13 32/43/12
f 33/44/13 34/46/14 37/47/14 35/45/13
f 34/46/14 25/48/7 36/49/7 37/47/14
s 0
f 36/50/15 27/51/15 29/52/15 38/53/15 39/54/15 32/55/15 35/56/15 37/57/15
f 34/51/16 33/52/16 31/53/16 30/54/16 28/55/16 40/56/16 26/57/16 25/50/16
