# Blender 4.5.14 LTS
# www.blender.org
mtllib wall_block_post.mtl
o wall_block_post
v -0.100000 1.000000 -0.100000 1.0000 1.0000 1.0000
v 0.100000 1.000000 -0.100000 1.0000 1.0000 1.0000
v 0.100000 0.000000 -0.100000 0.8509 0.8509 0.8509
v -0.100000 0.000000 -0.100000 0.8470 0.8470 0.8470
v -0.100000 1.000000 0.100000 1.0000 1.0000 1.0000
v -0.100000 1.500000 0.100000 0.8274 0.8274 0.8274
v 0.100000 1.500000 0.100000 0.8196 0.8196 0.8196
v 0.100000 1.500000 -0.100000 0.8157 0.8157 0.8157
v -0.100000 1.500000 -0.100000 0.8196 0.8196 0.8196
v 0.100000 0.000000 0.100000 0.8509 0.8509 0.8509
v 0.100000 1.000000 0.100000 1.0000 1.0000 1.0000
v -0.100000 0.000000 0.100000 0.8470 0.8470 0.8470
vn -0.0000 -0.0000 1.0000
vn -0.0000 -0.0000 -1.0000
vn -0.0000 1.0000 -0.0000
vn 1.0000 -0.0000 -0.0000
vn -1.0000 -0.0000 -0.0000
vt 0.062744 0.937744
vt 0.075146 0.937744
vt 0.075146 0.999756
vt 0.062744 0.999756
vt 0.124756 0.999756
vt 0.112354 0.999756
vt 0.112354 0.937744
vt 0.124756 0.937744
vt 0.125244 0.937744
vt 0.137646 0.937744
vt 0.137646 0.968750
vt 0.125244 0.968750
vt 0.187256 0.968750
vt 0.174854 0.968750
vt 0.174854 0.937744
vt 0.187256 0.937744
vt 0.137646 0.950146
vt 0.125244 0.950146
s 0
usemtl props
f 12/1/1 10/2/1 11/3/1 5/4/1
f 1/5/2 2/6/2 3/7/2 4/8/2
f 5/9/1 11/10/1 7/11/1 6/12/1
f 9/13/2 8/14/2 2/15/2 1/16/2
f 6/9/3 7/10/3 8/17/3 9/18/3
f 10/1/4 3/2/4 2/3/4 11/4/4
f 11/9/4 2/10/4 8/11/4 7/12/4
f 4/1/5 12/2/5 5/3/5 1/4/5
f 1/9/5 5/10/5 6/11/5 9/12/5
o wall_block_post_1
v -0.120000 1.500000 0.120000 0.9725 0.9725 0.9725
v 0.120000 1.500000 0.120000 0.9764 0.9764 0.9764
v -0.120000 1.560000 -0.120000 1.0000 1.0000 1.0000
v -0.120000 1.500000 -0.120000 0.9725 0.9725 0.9725
v -0.120000 1.560000 0.120000 1.0000 1.0000 1.0000
v 0.120000 1.560000 0.120000 1.0000 1.0000 1.0000
v 0.120000 1.560000 -0.120000 1.0000 1.0000 1.0000
v 0.120000 1.500000 -0.120000 0.9686 0.9686 0.9686
vn -0.0000 -0.0000 1.0000
vn -0.0000 -0.0000 -1.0000
vn -1.0000 -0.0000 -0.0000
vn 1.0000 -0.0000 -0.0000
vn -0.0000 1.0000 -0.0000
vn -0.0000 -1.0000 -0.0000
vt 0.838135 0.984619
vt 0.852666 0.984619
vt 0.852666 0.988252
vt 0.838135 0.988252
vt 0.852666 0.999150
vt 0.838135 0.999150
s 0
usemtl props
f 13/19/6 14/20/6 18/21/6 17/22/6
f 20/19/7 16/20/7 15/21/7 19/22/7
f 16/19/8 13/20/8 17/21/8 15/22/8
f 14/19/9 20/20/9 19/21/9 18/22/9
f 17/19/10 18/20/10 19/23/10 15/24/10
f 16/19/11 20/20/11 14/23/11 13/24/11
