# Blender 4.5.14 LTS
# www.blender.org
mtllib wall_block.mtl
o wall_block
v -1.000000 0.000000 0.075000 0.8470 0.8470 0.8470
v 0.000000 0.000000 0.075000 0.8470 0.8470 0.8470
v -1.000000 1.000000 -0.075000 1.0000 1.0000 1.0000
v -1.000000 0.000000 -0.075000 0.8509 0.8509 0.8509
v -1.000000 1.000000 0.075000 1.0000 1.0000 1.0000
v -1.000000 1.500000 -0.075000 0.7921 0.7921 0.7921
v 1.000000 0.000000 0.075000 0.8470 0.8470 0.8470
v 1.000000 1.000000 0.075000 1.0000 1.0000 1.0000
v 0.000000 1.000000 -0.075000 1.0000 1.0000 1.0000
v 1.000000 0.000000 -0.075000 0.8509 0.8509 0.8509
v 0.000000 0.000000 -0.075000 0.8509 0.8509 0.8509
v 0.000000 1.000000 0.075000 1.0000 1.0000 1.0000
v 1.000000 1.500000 0.075000 0.7921 0.7921 0.7921
v 0.000000 1.500000 -0.075000 0.7843 0.7843 0.7843
v 1.000000 1.000000 -0.075000 1.0000 1.0000 1.0000
v -1.000000 1.500000 0.075000 0.7921 0.7921 0.7921
v 0.000000 1.500000 0.075000 0.7882 0.7882 0.7882
v 1.000000 1.500000 -0.075000 0.7921 0.7921 0.7921
vn -0.0000 -0.0000 1.0000
vn -0.0000 -0.0000 -1.0000
vn -0.0000 1.0000 -0.0000
vt 0.062744 0.937744
vt 0.124756 0.937744
vt 0.124756 0.999756
vt 0.062744 0.999756
vt 0.125244 0.937744
vt 0.187256 0.937744
vt 0.187256 0.968750
vt 0.125244 0.968750
vt 0.187256 0.947046
vt 0.125244 0.947046
s 0
usemtl props
f 1/1/1 2/2/1 12/3/1 5/4/1
f 3/3/2 9/4/2 11/1/2 4/2/2
f 5/5/1 12/6/1 17/7/1 16/8/1
f 6/7/2 14/8/2 9/5/2 3/6/2
f 2/1/1 7/2/1 8/3/1 12/4/1
f 9/3/2 15/4/2 10/1/2 11/2/2
f 12/5/1 8/6/1 13/7/1 17/8/1
f 14/7/2 18/8/2 15/5/2 9/6/2
f 16/5/3 17/6/3 14/9/3 6/10/3
f 17/5/3 13/6/3 18/9/3 14/10/3
o wall_block_1
v -1.000000 1.500000 0.100000 0.9607 0.9607 0.9607
v 1.000000 1.500000 0.100000 0.9647 0.9647 0.9647
v -1.000000 1.550000 -0.100000 1.0000 1.0000 1.0000
v -1.000000 1.500000 -0.100000 0.9607 0.9607 0.9607
v -1.000000 1.550000 0.100000 1.0000 1.0000 1.0000
v 1.000000 1.550000 0.100000 1.0000 1.0000 1.0000
v 1.000000 1.550000 -0.100000 1.0000 1.0000 1.0000
v 1.000000 1.500000 -0.100000 0.9607 0.9607 0.9607
vn -0.0000 -0.0000 1.0000
vn -0.0000 -0.0000 -1.0000
vn -1.0000 -0.0000 -0.0000
vn 1.0000 -0.0000 -0.0000
vn -0.0000 1.0000 -0.0000
vn -0.0000 -1.0000 -0.0000
vt 0.838135 0.984619
vt 0.853271 0.984619
vt 0.853271 0.984998
vt 0.838135 0.984998
vt 0.850244 0.984619
vt 0.850244 0.987646
vt 0.838135 0.987646
vt 0.853271 0.986133
vt 0.838135 0.986133
s 0
usemtl props
f 19/11/4 20/12/4 24/13/4 23/14/4
f 26/11/5 22/12/5 21/13/5 25/14/5
f 22/11/6 19/15/6 23/16/6 21/17/6
f 20/11/7 26/15/7 25/16/7 24/17/7
f 23/11/8 24/12/8 25/18/8 21/19/8
f 22/11/9 26/12/9 20/18/9 19/19/9
