# Blender 4.5.14 LTS
# www.blender.org
mtllib wall_board.mtl
o wall_board
v -1.000000 0.000000 0.100000 0.8470 0.8470 0.8470
v 0.000000 0.000000 0.100000 0.8470 0.8470 0.8470
v -1.000000 0.000000 -0.100000 0.8509 0.8509 0.8509
v -1.000000 1.000000 0.100000 1.0000 1.0000 1.0000
v -1.000000 1.000000 -0.100000 1.0000 1.0000 1.0000
v -1.000000 2.000000 0.100000 1.0000 1.0000 1.0000
v -1.000000 3.000000 0.100000 1.0000 1.0000 1.0000
v -1.000000 3.000000 -0.100000 1.0000 1.0000 1.0000
v -1.000000 2.000000 -0.100000 1.0000 1.0000 1.0000
v 1.000000 0.000000 0.100000 0.8470 0.8470 0.8470
v 0.000000 1.000000 -0.100000 1.0000 1.0000 1.0000
v 1.000000 0.000000 -0.100000 0.8509 0.8509 0.8509
v 0.000000 0.000000 -0.100000 0.8509 0.8509 0.8509
v 0.000000 1.000000 0.100000 1.0000 1.0000 1.0000
v 1.000000 1.000000 0.100000 1.0000 1.0000 1.0000
v 1.000000 1.000000 -0.100000 1.0000 1.0000 1.0000
v 0.000000 2.000000 0.100000 1.0000 1.0000 1.0000
v 1.000000 2.000000 0.100000 1.0000 1.0000 1.0000
v 0.000000 3.000000 -0.100000 1.0000 1.0000 1.0000
v 1.000000 2.000000 -0.100000 1.0000 1.0000 1.0000
v 0.000000 2.000000 -0.100000 1.0000 1.0000 1.0000
v 0.000000 3.000000 0.100000 1.0000 1.0000 1.0000
v 1.000000 3.000000 0.100000 1.0000 1.0000 1.0000
v 1.000000 3.000000 -0.100000 1.0000 1.0000 1.0000
vn -0.0000 -0.0000 1.0000
vn -0.0000 -0.0000 -1.0000
vn -0.0000 1.0000 -0.0000
vt 0.187744 0.937744
vt 0.249756 0.937744
vt 0.249756 0.999756
vt 0.187744 0.999756
vt 0.499756 0.999756
vt 0.437744 0.999756
vt 0.437744 0.937744
vt 0.499756 0.937744
vt 0.250244 0.937744
vt 0.312256 0.937744
vt 0.312256 0.999756
vt 0.250244 0.999756
vt 0.437256 0.999756
vt 0.375244 0.999756
vt 0.375244 0.937744
vt 0.437256 0.937744
vt 0.562744 0.937744
vt 0.624756 0.937744
vt 0.624756 0.999756
vt 0.562744 0.999756
vt 0.562256 0.999756
vt 0.500244 0.999756
vt 0.500244 0.937744
vt 0.562256 0.937744
vt 0.624756 0.950146
vt 0.562744 0.950146
s 0
usemtl props
f 1/1/1 2/2/1 14/3/1 4/4/1
f 5/5/2 11/6/2 13/7/2 3/8/2
f 4/9/1 14/10/1 17/11/1 6/12/1
f 9/13/2 21/14/2 11/15/2 5/16/2
f 6/17/1 17/18/1 22/19/1 7/20/1
f 8/21/2 19/22/2 21/23/2 9/24/2
f 2/1/1 10/2/1 15/3/1 14/4/1
f 11/5/2 16/6/2 12/7/2 13/8/2
f 14/9/1 15/10/1 18/11/1 17/12/1
f 21/13/2 20/14/2 16/15/2 11/16/2
f 17/17/1 18/18/1 23/19/1 22/20/1
f 19/21/2 24/22/2 20/23/2 21/24/2
f 7/17/3 22/18/3 19/25/3 8/26/3
f 22/17/3 23/18/3 24/25/3 19/26/3
