# Blender 4.5.14 LTS
# www.blender.org
mtllib wires.mtl
o wires
v 0.998526 8.424151 0.650000 1.0000 1.0000 1.0000
v -0.000000 8.570000 0.638000 1.0000 1.0000 1.0000
v 1.000000 8.436061 0.638000 1.0000 1.0000 1.0000
v 1.001474 8.447970 0.650000 1.0000 1.0000 1.0000
v 0.001593 8.581894 0.650000 1.0000 1.0000 1.0000
v 0.000000 8.570000 0.662000 1.0000 1.0000 1.0000
v 1.000000 8.436061 0.662000 1.0000 1.0000 1.0000
v 2.000000 8.322513 0.662000 1.0000 1.0000 1.0000
v 1.998869 8.310566 0.650000 1.0000 1.0000 1.0000
v 2.999386 8.234658 0.650000 1.0000 1.0000 1.0000
v 2.000000 8.322513 0.638000 1.0000 1.0000 1.0000
v 2.001132 8.334459 0.650000 1.0000 1.0000 1.0000
v 3.000000 8.246642 0.662000 1.0000 1.0000 1.0000
v 3.000000 8.246642 0.638000 1.0000 1.0000 1.0000
v 4.000000 8.220000 0.638000 1.0000 1.0000 1.0000
v 3.000614 8.258626 0.650000 1.0000 1.0000 1.0000
v 4.000000 8.220000 0.662000 1.0000 1.0000 1.0000
v 4.000000 8.208000 0.650000 1.0000 1.0000 1.0000
v 5.000614 8.234658 0.650000 1.0000 1.0000 1.0000
v 4.000000 8.232000 0.650000 1.0000 1.0000 1.0000
v 4.999386 8.258626 0.650000 1.0000 1.0000 1.0000
v 5.000000 8.246642 0.662000 1.0000 1.0000 1.0000
v 5.000000 8.246642 0.638000 1.0000 1.0000 1.0000
v 6.000000 8.322513 0.638000 1.0000 1.0000 1.0000
v 6.001132 8.310566 0.650000 1.0000 1.0000 1.0000
v 7.001474 8.424151 0.650000 1.0000 1.0000 1.0000
v 7.000000 8.436061 0.638000 1.0000 1.0000 1.0000
v 5.998868 8.334459 0.650000 1.0000 1.0000 1.0000
v 6.000000 8.322513 0.662000 1.0000 1.0000 1.0000
v 8.001593 8.558106 0.650000 1.0000 1.0000 1.0000
v 7.998407 8.581894 0.650000 1.0000 1.0000 1.0000
v 8.000000 8.570000 0.638000 1.0000 1.0000 1.0000
v 6.998526 8.447970 0.650000 1.0000 1.0000 1.0000
v 7.000000 8.436061 0.662000 1.0000 1.0000 1.0000
v 8.000000 8.570000 0.662000 1.0000 1.0000 1.0000
v -0.001593 8.558106 0.650000 1.0000 1.0000 1.0000
v -0.001593 8.558106 0.000000 1.0000 1.0000 1.0000
v 1.000000 8.436061 -0.012000 1.0000 1.0000 1.0000
v 0.998526 8.424151 0.000000 1.0000 1.0000 1.0000
v 0.001593 8.581894 -0.000000 1.0000 1.0000 1.0000
v 1.001474 8.447970 -0.000000 1.0000 1.0000 1.0000
v 2.000000 8.322513 0.012000 1.0000 1.0000 1.0000
v 1.000000 8.436061 0.012000 1.0000 1.0000 1.0000
v 1.998869 8.310566 0.000000 1.0000 1.0000 1.0000
v 2.999386 8.234658 0.000000 1.0000 1.0000 1.0000
v 2.000000 8.322513 -0.012000 1.0000 1.0000 1.0000
v 3.000000 8.246642 -0.012000 1.0000 1.0000 1.0000
v 2.001132 8.334459 -0.000000 1.0000 1.0000 1.0000
v 3.000000 8.246642 0.012000 1.0000 1.0000 1.0000
v 4.000000 8.220000 -0.012000 1.0000 1.0000 1.0000
v 4.000000 8.208000 0.000000 1.0000 1.0000 1.0000
v 3.000614 8.258626 -0.000000 1.0000 1.0000 1.0000
v 5.000614 8.234658 0.000000 1.0000 1.0000 1.0000
v 4.000000 8.232000 -0.000000 1.0000 1.0000 1.0000
v 4.000000 8.220000 0.012000 1.0000 1.0000 1.0000
v 5.000000 8.246642 0.012000 1.0000 1.0000 1.0000
v 6.001132 8.310566 0.000000 1.0000 1.0000 1.0000
v 5.000000 8.246642 -0.012000 1.0000 1.0000 1.0000
v 4.999386 8.258626 -0.000000 1.0000 1.0000 1.0000
v 5.998868 8.334459 -0.000000 1.0000 1.0000 1.0000
v 7.001474 8.424151 0.000000 1.0000 1.0000 1.0000
v 6.000000 8.322513 -0.012000 1.0000 1.0000 1.0000
v 6.000000 8.322513 0.012000 1.0000 1.0000 1.0000
v 7.000000 8.436061 0.012000 1.0000 1.0000 1.0000
v 8.001593 8.558106 0.000000 1.0000 1.0000 1.0000
v 7.000000 8.436061 -0.012000 1.0000 1.0000 1.0000
v 6.998526 8.447970 -0.000000 1.0000 1.0000 1.0000
v 8.000000 8.570000 0.012000 1.0000 1.0000 1.0000
v -0.000000 8.570000 -0.012000 1.0000 1.0000 1.0000
v 0.000000 8.570000 0.012000 1.0000 1.0000 1.0000
v 8.000000 8.570000 -0.012000 1.0000 1.0000 1.0000
v 7.998407 8.581894 -0.000000 1.0000 1.0000 1.0000
v 0.000000 8.570000 -0.638000 1.0000 1.0000 1.0000
v 0.998526 8.424151 -0.650000 1.0000 1.0000 1.0000
v -0.001593 8.558106 -0.650000 1.0000 1.0000 1.0000
v -0.000000 8.570000 -0.662000 1.0000 1.0000 1.0000
v 1.000000 8.436061 -0.662000 1.0000 1.0000 1.0000
v 1.001474 8.447970 -0.650000 1.0000 1.0000 1.0000
v 0.001593 8.581894 -0.650000 1.0000 1.0000 1.0000
v 2.000000 8.322513 -0.638000 1.0000 1.0000 1.0000
v 1.998869 8.310566 -0.650000 1.0000 1.0000 1.0000
v 1.000000 8.436061 -0.638000 1.0000 1.0000 1.0000
v 2.001132 8.334459 -0.650000 1.0000 1.0000 1.0000
v 3.000000 8.246642 -0.662000 1.0000 1.0000 1.0000
v 2.000000 8.322513 -0.662000 1.0000 1.0000 1.0000
v 2.999386 8.234658 -0.650000 1.0000 1.0000 1.0000
v 3.000614 8.258626 -0.650000 1.0000 1.0000 1.0000
v 3.000000 8.246642 -0.638000 1.0000 1.0000 1.0000
v 4.000000 8.220000 -0.638000 1.0000 1.0000 1.0000
v 5.000000 8.246642 -0.638000 1.0000 1.0000 1.0000
v 4.000000 8.208000 -0.650000 1.0000 1.0000 1.0000
v 4.000000 8.220000 -0.662000 1.0000 1.0000 1.0000
v 4.999386 8.258626 -0.650000 1.0000 1.0000 1.0000
v 5.000000 8.246642 -0.662000 1.0000 1.0000 1.0000
v 4.000000 8.232000 -0.650000 1.0000 1.0000 1.0000
v 6.001132 8.310566 -0.650000 1.0000 1.0000 1.0000
v 5.000614 8.234658 -0.650000 1.0000 1.0000 1.0000
v 5.998868 8.334459 -0.650000 1.0000 1.0000 1.0000
v 6.000000 8.322513 -0.662000 1.0000 1.0000 1.0000
v 6.000000 8.322513 -0.638000 1.0000 1.0000 1.0000
v 7.000000 8.436061 -0.638000 1.0000 1.0000 1.0000
v 7.000000 8.436061 -0.662000 1.0000 1.0000 1.0000
v 6.998526 8.447970 -0.650000 1.0000 1.0000 1.0000
v 8.000000 8.570000 -0.638000 1.0000 1.0000 1.0000
v 7.001474 8.424151 -0.650000 1.0000 1.0000 1.0000
v 8.001593 8.558106 -0.650000 1.0000 1.0000 1.0000
v 7.998407 8.581894 -0.650000 1.0000 1.0000 1.0000
v 8.000000 8.570000 -0.662000 1.0000 1.0000 1.0000
v -0.004698 5.975445 -0.200000 1.0000 1.0000 1.0000
v 1.000000 5.808658 -0.175000 1.0000 1.0000 1.0000
v 0.004698 6.024555 -0.200000 1.0000 1.0000 1.0000
v 0.000000 6.000000 -0.175000 1.0000 1.0000 1.0000
v 0.995648 5.784040 -0.200000 1.0000 1.0000 1.0000
v 1.996648 5.621672 -0.200000 1.0000 1.0000 1.0000
v 2.000000 5.646447 -0.175000 1.0000 1.0000 1.0000
v 1.000000 5.808658 -0.225000 1.0000 1.0000 1.0000
v 1.004352 5.833277 -0.200000 1.0000 1.0000 1.0000
v 3.000000 5.538060 -0.175000 1.0000 1.0000 1.0000
v 2.000000 5.646447 -0.225000 1.0000 1.0000 1.0000
v 3.001826 5.562994 -0.200000 1.0000 1.0000 1.0000
v 2.003352 5.671221 -0.200000 1.0000 1.0000 1.0000
v 4.000000 5.475000 -0.200000 1.0000 1.0000 1.0000
v 2.998174 5.513127 -0.200000 1.0000 1.0000 1.0000
v 3.000000 5.538060 -0.225000 1.0000 1.0000 1.0000
v 4.000000 5.500000 -0.225000 1.0000 1.0000 1.0000
v 5.000000 5.538060 -0.225000 1.0000 1.0000 1.0000
v 4.000000 5.525000 -0.200000 1.0000 1.0000 1.0000
v 4.000000 5.500000 -0.175000 1.0000 1.0000 1.0000
v 5.000000 5.538060 -0.175000 1.0000 1.0000 1.0000
v 4.998174 5.562994 -0.200000 1.0000 1.0000 1.0000
v 6.003352 5.621672 -0.200000 1.0000 1.0000 1.0000
v 5.001826 5.513127 -0.200000 1.0000 1.0000 1.0000
v 7.004352 5.784040 -0.200000 1.0000 1.0000 1.0000
v 7.000000 5.808658 -0.175000 1.0000 1.0000 1.0000
v 6.000000 5.646447 -0.225000 1.0000 1.0000 1.0000
v 5.996648 5.671221 -0.200000 1.0000 1.0000 1.0000
v 6.995648 5.833277 -0.200000 1.0000 1.0000 1.0000
v 7.000000 5.808658 -0.225000 1.0000 1.0000 1.0000
v 6.000000 5.646447 -0.175000 1.0000 1.0000 1.0000
v 8.004699 5.975445 -0.200000 1.0000 1.0000 1.0000
v 7.995302 6.024555 -0.200000 1.0000 1.0000 1.0000
v 8.000000 6.000000 -0.225000 1.0000 1.0000 1.0000
v -0.000000 6.000000 -0.225000 1.0000 1.0000 1.0000
v 8.000000 6.000000 -0.175000 1.0000 1.0000 1.0000
vn -0.0939 -0.7009 0.7071
vn -0.0939 -0.7009 -0.7071
vn 0.0939 0.7008 -0.7071
vn 0.0939 0.7008 0.7071
vn -0.0798 -0.7026 0.7071
vn -0.0798 -0.7026 -0.7071
vn 0.0798 0.7026 -0.7071
vn 0.0798 0.7026 0.7071
vn -0.0535 -0.7052 0.7070
vn -0.0535 -0.7052 -0.7070
vn 0.0535 0.7052 -0.7070
vn 0.0535 0.7052 0.7070
vn -0.0188 -0.7070 0.7070
vn -0.0188 -0.7070 -0.7070
vn 0.0188 0.7070 -0.7070
vn 0.0188 0.7070 0.7070
vn 0.0188 -0.7070 0.7070
vn 0.0188 -0.7070 -0.7070
vn -0.0188 0.7070 -0.7070
vn -0.0188 0.7070 0.7070
vn 0.0535 -0.7052 0.7070
vn 0.0535 -0.7052 -0.7070
vn -0.0535 0.7052 -0.7070
vn -0.0535 0.7052 0.7070
vn 0.0798 -0.7026 0.7071
vn 0.0798 -0.7026 -0.7071
vn -0.0798 0.7026 -0.7071
vn -0.0798 0.7026 0.7071
vn 0.0939 -0.7009 0.7071
vn 0.0939 -0.7009 -0.7071
vn -0.0939 0.7008 -0.7071
vn -0.0939 0.7008 0.7071
vn -0.9911 0.1327 -0.0000
vn 0.9912 0.1327 -0.0000
vn -0.1329 -0.6945 0.7071
vn -0.1329 -0.6945 -0.7071
vn 0.1329 0.6945 -0.7071
vn 0.1329 0.6945 0.7071
vn -0.1132 -0.6981 0.7070
vn -0.1132 -0.6981 -0.7070
vn 0.1132 0.6981 -0.7070
vn 0.1132 0.6981 0.7070
vn -0.0762 -0.7032 0.7069
vn -0.0762 -0.7032 -0.7069
vn 0.0762 0.7032 -0.7069
vn 0.0762 0.7032 0.7069
vn -0.0269 -0.7068 0.7069
vn -0.0269 -0.7068 -0.7069
vn 0.0269 0.7068 -0.7069
vn 0.0269 0.7068 0.7069
vn 0.0269 -0.7068 0.7069
vn 0.0269 -0.7068 -0.7069
vn -0.0269 0.7068 -0.7069
vn -0.0269 0.7068 0.7069
vn 0.0762 -0.7032 0.7069
vn 0.0762 -0.7032 -0.7069
vn -0.0762 0.7032 -0.7069
vn -0.0762 0.7032 0.7069
vn 0.1132 -0.6981 0.7070
vn 0.1132 -0.6981 -0.7070
vn -0.1132 0.6981 -0.7070
vn -0.1132 0.6981 0.7070
vn 0.1329 -0.6945 0.7071
vn 0.1329 -0.6945 -0.7071
vn -0.1329 0.6945 -0.7071
vn -0.1329 0.6945 0.7071
vn -0.9822 0.1879 -0.0000
vn 0.9822 0.1879 -0.0000
vt 0.097900 0.933838
vt 0.098755 0.933838
vt 0.098755 0.934265
vt 0.097900 0.934265
vt 0.099609 0.933838
vt 0.099609 0.934265
vt 0.100464 0.933838
vt 0.100464 0.934265
vt 0.101318 0.933838
vt 0.101318 0.934265
vt 0.098755 0.934692
vt 0.097900 0.934692
vt 0.099609 0.934692
vt 0.100464 0.934692
vt 0.101318 0.934692
vt 0.098755 0.935120
vt 0.097900 0.935120
vt 0.099609 0.935120
vt 0.100464 0.935120
vt 0.101318 0.935120
vt 0.098755 0.935547
vt 0.097900 0.935547
vt 0.099609 0.935547
vt 0.100464 0.935547
vt 0.101318 0.935547
vt 0.098755 0.935974
vt 0.097900 0.935974
vt 0.099609 0.935974
vt 0.100464 0.935974
vt 0.101318 0.935974
vt 0.098755 0.936401
vt 0.097900 0.936401
vt 0.099609 0.936401
vt 0.100464 0.936401
vt 0.101318 0.936401
vt 0.098755 0.936829
vt 0.097900 0.936829
vt 0.099609 0.936829
vt 0.100464 0.936829
vt 0.101318 0.936829
vt 0.098755 0.937256
vt 0.097900 0.937256
vt 0.099609 0.937256
vt 0.100464 0.937256
vt 0.101318 0.937256
s 0
usemtl props
f 6/1/1 36/2/1 1/3/1 7/4/1
f 36/2/2 2/5/2 3/6/2 1/3/2
f 2/5/3 5/7/3 4/8/3 3/6/3
f 5/7/4 6/9/4 7/10/4 4/8/4
f 7/4/5 1/3/5 9/11/5 8/12/5
f 1/3/6 3/6/6 11/13/6 9/11/6
f 3/6/7 4/8/7 12/14/7 11/13/7
f 4/8/8 7/10/8 8/15/8 12/14/8
f 8/12/9 9/11/9 10/16/9 13/17/9
f 9/11/10 11/13/10 14/18/10 10/16/10
f 11/13/11 12/14/11 16/19/11 14/18/11
f 12/14/12 8/15/12 13/20/12 16/19/12
f 13/17/13 10/16/13 18/21/13 17/22/13
f 10/16/14 14/18/14 15/23/14 18/21/14
f 14/18/15 16/19/15 20/24/15 15/23/15
f 16/19/16 13/20/16 17/25/16 20/24/16
f 17/22/17 18/21/17 19/26/17 22/27/17
f 18/21/18 15/23/18 23/28/18 19/26/18
f 15/23/19 20/24/19 21/29/19 23/28/19
f 20/24/20 17/25/20 22/30/20 21/29/20
f 22/27/21 19/26/21 25/31/21 29/32/21
f 19/26/22 23/28/22 24/33/22 25/31/22
f 23/28/23 21/29/23 28/34/23 24/33/23
f 21/29/24 22/30/24 29/35/24 28/34/24
f 29/32/25 25/31/25 26/36/25 34/37/25
f 25/31/26 24/33/26 27/38/26 26/36/26
f 24/33/27 28/34/27 33/39/27 27/38/27
f 28/34/28 29/35/28 34/40/28 33/39/28
f 34/37/29 26/36/29 30/41/29 35/42/29
f 26/36/30 27/38/30 32/43/30 30/41/30
f 27/38/31 33/39/31 31/44/31 32/43/31
f 33/39/32 34/40/32 35/45/32 31/44/32
f 5/43/33 2/22/33 36/5/33 6/25/33
f 35/22/34 30/5/34 32/25/34 31/43/34
f 70/1/1 37/2/1 39/3/1 43/4/1
f 37/2/2 69/5/2 38/6/2 39/3/2
f 69/5/3 40/7/3 41/8/3 38/6/3
f 40/7/4 70/9/4 43/10/4 41/8/4
f 43/4/5 39/3/5 44/11/5 42/12/5
f 39/3/6 38/6/6 46/13/6 44/11/6
f 38/6/7 41/8/7 48/14/7 46/13/7
f 41/8/8 43/10/8 42/15/8 48/14/8
f 42/12/9 44/11/9 45/16/9 49/17/9
f 44/11/10 46/13/10 47/18/10 45/16/10
f 46/13/11 48/14/11 52/19/11 47/18/11
f 48/14/12 42/15/12 49/20/12 52/19/12
f 49/17/13 45/16/13 51/21/13 55/22/13
f 45/16/14 47/18/14 50/23/14 51/21/14
f 47/18/15 52/19/15 54/24/15 50/23/15
f 52/19/16 49/20/16 55/25/16 54/24/16
f 55/22/17 51/21/17 53/26/17 56/27/17
f 51/21/18 50/23/18 58/28/18 53/26/18
f 50/23/19 54/24/19 59/29/19 58/28/19
f 54/24/20 55/25/20 56/30/20 59/29/20
f 56/27/21 53/26/21 57/31/21 63/32/21
f 53/26/22 58/28/22 62/33/22 57/31/22
f 58/28/23 59/29/23 60/34/23 62/33/23
f 59/29/24 56/30/24 63/35/24 60/34/24
f 63/32/25 57/31/25 61/36/25 64/37/25
f 57/31/26 62/33/26 66/38/26 61/36/26
f 62/33/27 60/34/27 67/39/27 66/38/27
f 60/34/28 63/35/28 64/40/28 67/39/28
f 64/37/29 61/36/29 65/41/29 68/42/29
f 61/36/30 66/38/30 71/43/30 65/41/30
f 66/38/31 67/39/31 72/44/31 71/43/31
f 67/39/32 64/40/32 68/45/32 72/44/32
f 40/43/33 69/22/33 37/5/33 70/25/33
f 68/22/34 65/5/34 71/25/34 72/43/34
f 73/1/1 75/2/1 74/3/1 82/4/1
f 75/2/2 76/5/2 77/6/2 74/3/2
f 76/5/3 79/7/3 78/8/3 77/6/3
f 79/7/4 73/9/4 82/10/4 78/8/4
f 82/4/5 74/3/5 81/11/5 80/12/5
f 74/3/6 77/6/6 85/13/6 81/11/6
f 77/6/7 78/8/7 83/14/7 85/13/7
f 78/8/8 82/10/8 80/15/8 83/14/8
f 80/12/9 81/11/9 86/16/9 88/17/9
f 81/11/10 85/13/10 84/18/10 86/16/10
f 85/13/11 83/14/11 87/19/11 84/18/11
f 83/14/12 80/15/12 88/20/12 87/19/12
f 88/17/13 86/16/13 91/21/13 89/22/13
f 86/16/14 84/18/14 92/23/14 91/21/14
f 84/18/15 87/19/15 95/24/15 92/23/15
f 87/19/16 88/20/16 89/25/16 95/24/16
f 89/22/17 91/21/17 97/26/17 90/27/17
f 91/21/18 92/23/18 94/28/18 97/26/18
f 92/23/19 95/24/19 93/29/19 94/28/19
f 95/24/20 89/25/20 90/30/20 93/29/20
f 90/27/21 97/26/21 96/31/21 100/32/21
f 97/26/22 94/28/22 99/33/22 96/31/22
f 94/28/23 93/29/23 98/34/23 99/33/23
f 93/29/24 90/30/24 100/35/24 98/34/24
f 100/32/25 96/31/25 105/36/25 101/37/25
f 96/31/26 99/33/26 102/38/26 105/36/26
f 99/33/27 98/34/27 103/39/27 102/38/27
f 98/34/28 100/35/28 101/40/28 103/39/28
f 101/37/29 105/36/29 106/41/29 104/42/29
f 105/36/30 102/38/30 108/43/30 106/41/30
f 102/38/31 103/39/31 107/44/31 108/43/31
f 103/39/32 101/40/32 104/45/32 107/44/32
f 79/43/33 76/22/33 75/5/33 73/25/33
f 104/22/34 106/5/34 108/25/34 107/43/34
f 112/1/35 109/2/35 113/3/35 110/4/35
f 109/2/36 143/5/36 116/6/36 113/3/36
f 143/5/37 111/7/37 117/8/37 116/6/37
f 111/7/38 112/9/38 110/10/38 117/8/38
f 110/4/39 113/3/39 114/11/39 115/12/39
f 113/3/40 116/6/40 119/13/40 114/11/40
f 116/6/41 117/8/41 121/14/41 119/13/41
f 117/8/42 110/10/42 115/15/42 121/14/42
f 115/12/43 114/11/43 123/16/43 118/17/43
f 114/11/44 119/13/44 124/18/44 123/16/44
f 119/13/45 121/14/45 120/19/45 124/18/45
f 121/14/46 115/15/46 118/20/46 120/19/46
f 118/17/47 123/16/47 122/21/47 128/22/47
f 123/16/48 124/18/48 125/23/48 122/21/48
f 124/18/49 120/19/49 127/24/49 125/23/49
f 120/19/50 118/20/50 128/25/50 127/24/50
f 128/22/51 122/21/51 132/26/51 129/27/51
f 122/21/52 125/23/52 126/28/52 132/26/52
f 125/23/53 127/24/53 130/29/53 126/28/53
f 127/24/54 128/25/54 129/30/54 130/29/54
f 129/27/55 132/26/55 131/31/55 139/32/55
f 132/26/56 126/28/56 135/33/56 131/31/56
f 126/28/57 130/29/57 136/34/57 135/33/57
f 130/29/58 129/30/58 139/35/58 136/34/58
f 139/32/59 131/31/59 133/36/59 134/37/59
f 131/31/60 135/33/60 138/38/60 133/36/60
f 135/33/61 136/34/61 137/39/61 138/38/61
f 136/34/62 139/35/62 134/40/62 137/39/62
f 134/37/63 133/36/63 140/41/63 144/42/63
f 133/36/64 138/38/64 142/43/64 140/41/64
f 138/38/65 137/39/65 141/44/65 142/43/65
f 137/39/66 134/40/66 144/45/66 141/44/66
f 111/43/67 143/22/67 109/5/67 112/25/67
f 144/22/68 140/5/68 142/25/68 141/43/68
