# Blender 4.0.2
# www.blender.org
mtllib Closet01Isolated.mtl
o Closet01
v -0.449277 0.056860 0.322445
v -0.449277 1.943140 0.322445
v -0.500000 0.000000 -0.322445
v -0.500000 2.000000 -0.322445
v 0.449277 0.056860 0.322445
v 0.449277 1.943140 0.322445
v 0.500000 0.000000 -0.322445
v 0.500000 2.000000 -0.322445
v -0.500000 0.000000 0.322445
v -0.500000 2.000000 0.322445
v 0.500000 2.000000 0.322445
v 0.500000 0.000000 0.322445
v -0.449277 0.056860 -0.247314
v -0.449277 1.943140 -0.247314
v 0.449277 1.943140 -0.247314
v 0.449277 0.056860 -0.247314
vn -1.0000 -0.0000 -0.0000
vn -0.0000 -0.0000 -1.0000
vn 1.0000 -0.0000 -0.0000
vn -0.0000 -1.0000 -0.0000
vn -0.0000 1.0000 -0.0000
vn -0.0000 -0.0000 1.0000
vt 0.625000 0.000000
vt 0.375000 0.250000
vt 0.375000 0.000000
vt 0.625000 0.250000
vt 0.375000 0.500000
vt 0.625000 0.500000
vt 0.375000 0.750000
vt 0.616880 0.758120
vt 0.383120 0.758120
vt 0.125000 0.750000
vt 0.125000 0.500000
vt 0.875000 0.500000
vt 0.625000 0.750000
vt 0.616880 0.991880
vt 0.375000 1.000000
vt 0.383120 0.991880
vt 0.625000 1.000000
vt 0.875000 0.750000
s 0
f 10/1/1 3/2/1 9/3/1
f 4/4/2 7/5/2 3/2/2
f 8/6/3 12/7/3 7/5/3
f 6/8/1 16/9/1 5/9/1
f 7/5/4 9/10/4 3/11/4
f 4/12/5 11/13/5 8/6/5
f 2/14/6 9/15/6 1/16/6
f 5/9/6 11/13/6 6/8/6
f 1/16/6 12/7/6 5/9/6
f 6/8/6 10/17/6 2/14/6
f 15/8/6 13/16/6 16/9/6
f 5/9/5 13/16/5 1/16/5
f 1/16/3 14/14/3 2/14/3
f 2/14/4 15/8/4 6/8/4
f 10/1/1 4/4/1 3/2/1
f 4/4/2 8/6/2 7/5/2
f 8/6/3 11/13/3 12/7/3
f 6/8/1 15/8/1 16/9/1
f 7/5/4 12/7/4 9/10/4
f 4/12/5 10/18/5 11/13/5
f 2/14/6 10/17/6 9/15/6
f 5/9/6 12/7/6 11/13/6
f 1/16/6 9/15/6 12/7/6
f 6/8/6 11/13/6 10/17/6
f 15/8/6 14/14/6 13/16/6
f 5/9/5 16/9/5 13/16/5
f 1/16/3 13/16/3 14/14/3
f 2/14/4 14/14/4 15/8/4
o ClosetShelf
v -0.451594 1.023763 0.307007
v -0.451594 1.071091 0.307007
v -0.451594 1.023763 -0.263494
v -0.451594 1.071091 -0.263494
v 0.451594 1.023763 0.307007
v 0.451594 1.071091 0.307007
v 0.451594 1.023763 -0.263494
v 0.451594 1.071091 -0.263494
vn -1.0000 -0.0000 -0.0000
vn -0.0000 -0.0000 -1.0000
vn 1.0000 -0.0000 -0.0000
vn -0.0000 -0.0000 1.0000
vn -0.0000 -1.0000 -0.0000
vn -0.0000 1.0000 -0.0000
vt 0.625000 0.000000
vt 0.375000 0.250000
vt 0.375000 0.000000
vt 0.625000 0.250000
vt 0.375000 0.500000
vt 0.625000 0.500000
vt 0.375000 0.750000
vt 0.625000 0.750000
vt 0.375000 1.000000
vt 0.125000 0.750000
vt 0.125000 0.500000
vt 0.875000 0.500000
vt 0.625000 1.000000
vt 0.875000 0.750000
s 0
f 18/19/7 19/20/7 17/21/7
f 20/22/8 23/23/8 19/20/8
f 24/24/9 21/25/9 23/23/9
f 22/26/10 17/27/10 21/25/10
f 23/23/11 17/28/11 19/29/11
f 20/30/12 22/26/12 24/24/12
f 18/19/7 20/22/7 19/20/7
f 20/22/8 24/24/8 23/23/8
f 24/24/9 22/26/9 21/25/9
f 22/26/10 18/31/10 17/27/10
f 23/23/11 21/25/11 17/28/11
f 20/30/12 18/32/12 22/26/12
o ClosetShelf1
v -0.451594 0.026100 0.307007
v -0.451594 0.745750 0.307007
v -0.451594 0.026100 -0.263494
v -0.451594 0.745750 -0.263494
v 0.451594 0.026100 0.307007
v 0.451594 0.745750 0.307007
v 0.451594 0.026100 -0.263494
v 0.451594 0.745750 -0.263494
vn -1.0000 -0.0000 -0.0000
vn -0.0000 -0.0000 -1.0000
vn 1.0000 -0.0000 -0.0000
vn -0.0000 -0.0000 1.0000
vn -0.0000 -1.0000 -0.0000
vn -0.0000 1.0000 -0.0000
vt 0.625000 0.000000
vt 0.375000 0.250000
vt 0.375000 0.000000
vt 0.625000 0.250000
vt 0.375000 0.500000
vt 0.625000 0.500000
vt 0.375000 0.750000
vt 0.625000 0.750000
vt 0.375000 1.000000
vt 0.125000 0.750000
vt 0.125000 0.500000
vt 0.875000 0.500000
vt 0.625000 1.000000
vt 0.875000 0.750000
s 0
f 26/33/13 27/34/13 25/35/13
f 28/36/14 31/37/14 27/34/14
f 32/38/15 29/39/15 31/37/15
f 30/40/16 25/41/16 29/39/16
f 31/37/17 25/42/17 27/43/17
f 28/44/18 30/40/18 32/38/18
f 26/33/13 28/36/13 27/34/13
f 28/36/14 32/38/14 31/37/14
f 32/38/15 30/40/15 29/39/15
f 30/40/16 26/45/16 25/41/16
f 31/37/17 29/39/17 25/42/17
f 28/44/18 26/46/18 30/40/18
