# Blender 4.0.2
# www.blender.org
mtllib HuntingKnife.mtl
o HuntingKnife
v -0.042910 -0.026010 0.000156
v -0.042910 0.026010 0.000156
v -0.042910 -0.026010 -0.012846
v -0.042910 0.026010 -0.012846
v 0.042910 -0.026010 0.000156
v 0.042910 0.026010 0.000156
v 0.042910 -0.026010 -0.012846
v 0.042910 0.026010 -0.012846
v 0.021896 -0.012012 0.009105
v 0.021896 0.012012 0.009105
v -0.021896 0.012012 0.009105
v -0.021896 -0.012012 0.009105
v 0.021896 0.012012 0.141431
v 0.021896 -0.012012 0.141431
v -0.021896 0.012012 0.141431
v -0.021896 -0.012012 0.141431
v 0.024365 0.013367 0.148977
v 0.024365 -0.013367 0.148977
v -0.024365 0.013367 0.148977
v -0.024365 -0.013367 0.148977
v 0.024365 0.013367 0.168769
v 0.024365 -0.013367 0.168769
v -0.024365 0.013367 0.168769
v -0.024365 -0.013367 0.168769
v 0.019357 0.010620 0.176768
v 0.019357 -0.010620 0.176768
v -0.019357 0.010620 0.176768
v -0.019357 -0.010620 0.176768
v -0.022603 -0.006904 -0.012868
v -0.022603 0.006904 -0.012868
v 0.022603 0.006904 -0.012868
v 0.022603 -0.006904 -0.012868
v 0.015148 0.006904 -0.212792
v 0.015148 -0.006904 -0.212792
v -0.025747 -0.014125 0.036369
v -0.022603 0.006904 -0.161417
v -0.025747 -0.014125 0.114168
v -0.025747 0.014125 0.114168
v 0.022603 0.006904 -0.161417
v -0.025747 0.014125 0.036369
v 0.025747 0.014125 0.036369
v 0.022603 -0.006904 -0.161417
v 0.025747 0.014125 0.114168
v 0.025747 -0.014125 0.114168
v -0.022603 -0.006904 -0.161417
v 0.025747 -0.014125 0.036369
v -0.016926 -0.006904 -0.187105
v 0.015078 0.006904 -0.187105
v -0.016926 0.006904 -0.187105
v 0.015078 -0.006904 -0.187105
v -0.010753 -0.006904 -0.199948
v 0.014325 0.006904 -0.199948
v -0.010753 0.006904 -0.199948
v 0.014325 -0.006904 -0.199948
v 0.000000 -0.040339 -0.012846
v 0.000000 0.040339 -0.012846
v 0.000000 -0.040339 0.000156
v 0.000000 0.040339 0.000156
v 0.000000 0.018630 0.009105
v 0.000000 -0.018630 0.009105
v 0.000000 0.018630 0.141431
v 0.000000 -0.018630 0.141431
v 0.000000 0.020731 0.148977
v 0.000000 -0.020731 0.148977
v 0.000000 0.020731 0.168769
v 0.000000 -0.020731 0.168769
v 0.000000 0.016470 0.176768
v 0.000000 -0.016470 0.176768
v 0.000000 0.006904 -0.012868
v 0.000000 -0.006904 -0.012868
v 0.000000 0.021907 0.036369
v 0.000000 -0.006904 -0.161417
v 0.000000 0.021907 0.114168
v 0.000000 -0.021907 0.036369
v 0.000000 0.006904 -0.161417
v 0.000000 -0.021907 0.114168
v -0.000924 0.006904 -0.187105
v -0.000924 -0.006904 -0.187105
v 0.001786 0.006904 -0.199948
v 0.001786 -0.006904 -0.199948
vn -1.0000 -0.0000 -0.0000
vn 1.0000 -0.0000 -0.0000
vn -0.9956 -0.0000 -0.0942
vn -0.9889 -0.0000 -0.1485
vn 0.3167 -0.9485 -0.0000
vn -0.3167 0.9485 -0.0000
vn -0.9977 -0.0000 0.0683
vn 0.2629 0.2026 0.9433
vn 0.2728 -0.1930 0.9425
vn 0.2728 0.1930 0.9425
vn -0.0000 0.3864 0.9223
vn -0.2629 -0.2026 0.9433
vn -0.2728 0.1930 0.9425
vn -0.2728 -0.1930 0.9425
vn -0.0000 -0.3864 0.9223
vn 0.9977 -0.0000 0.0683
vn 0.9956 -0.0000 -0.0942
vn 0.2888 -0.9557 0.0566
vn 0.2884 -0.9541 -0.0803
vn 0.2885 -0.9545 -0.0754
vn -0.2888 0.9557 0.0566
vn -0.2884 0.9541 -0.0803
vn -0.2885 0.9545 -0.0754
vn 0.2873 -0.9505 -0.1188
vn -0.0000 -0.9726 0.2324
vn 0.2870 -0.9495 -0.1266
vn 0.9889 -0.0000 -0.1485
vn -0.2870 0.9495 -0.1266
vn -0.8476 -0.0000 0.5306
vn -0.2873 0.9505 -0.1188
vn -0.0000 0.9726 0.2324
vn -0.0000 -0.0000 1.0000
vn 0.8476 -0.0000 0.5306
vn 0.2577 -0.8528 0.4543
vn -0.0000 -0.8826 0.4701
vn -0.2577 0.8528 0.4543
vn -0.0000 0.8826 0.4701
vn -0.0000 -1.0000 -0.0000
vn -0.0006 0.0004 -1.0000
vn -0.0006 -0.0005 -1.0000
vn -0.0006 0.0005 -1.0000
vn -0.0000 0.0008 -1.0000
vn 0.0006 -0.0004 -1.0000
vn 0.0006 0.0005 -1.0000
vn 0.0006 -0.0005 -1.0000
vn -0.0000 -0.0008 -1.0000
vn -0.0000 1.0000 -0.0000
vn 1.0000 -0.0000 0.0027
vn 0.9980 -0.0000 0.0639
vn -0.4443 -0.0000 -0.8959
vn -0.2874 0.9510 -0.1143
vn -0.2888 0.9557 -0.0566
vn 0.2889 -0.9558 -0.0551
vn 0.2888 -0.9557 -0.0566
vn 0.2874 -0.9510 -0.1143
vn 0.9977 -0.0000 -0.0683
vn 0.9902 -0.0000 -0.1399
vn -0.9977 -0.0000 -0.0683
vn -0.9902 -0.0000 -0.1399
vn 0.9899 -0.0000 -0.1420
vn -0.9941 -0.0000 -0.1085
vn -0.2889 0.9558 -0.0551
vn -0.9451 -0.0000 -0.3267
vn 0.9853 -0.0000 -0.1709
vn -0.9013 -0.0000 -0.4332
vn 0.2888 0.9557 -0.0566
vn 0.2889 0.9558 0.0551
vn 0.2889 0.9558 -0.0551
vn -0.2874 -0.9510 -0.1143
vn -0.2888 -0.9557 -0.0566
vn -0.2889 -0.9558 -0.0551
vn -0.2889 -0.9558 0.0551
vn 0.2874 0.9510 -0.1143
vn -0.0006 -0.0004 -1.0000
vn 0.0006 0.0004 -1.0000
vn 0.2577 0.8528 0.4543
vn 0.2836 0.9384 0.1975
vn -0.2577 -0.8528 0.4543
vn -0.2836 -0.9384 0.1975
vn 0.2873 0.9505 -0.1188
vn 0.2884 0.9541 -0.0803
vn 0.2870 0.9495 -0.1266
vn -0.2884 -0.9541 -0.0803
vn -0.2870 -0.9495 -0.1266
vn -0.2873 -0.9505 -0.1188
vn 0.2888 0.9557 0.0566
vn -0.2888 -0.9557 0.0566
vn 0.2629 -0.2026 0.9433
vn -0.2629 0.2026 0.9433
vn 0.3167 0.9485 -0.0000
vn -0.3167 -0.9485 -0.0000
vn -0.0000 0.3811 0.9245
vn -0.0000 -0.3811 0.9245
vn 0.2889 -0.9558 0.0551
vn -0.2889 0.9558 0.0551
vn 0.2836 -0.9384 0.1975
vn -0.2836 0.9384 0.1975
vn -0.0000 0.0007 -1.0000
vn -0.0000 -0.0007 -1.0000
vn 0.2885 0.9545 -0.0754
vn -0.2885 -0.9545 -0.0754
vt 0.625000 0.000000
vt 0.375000 0.250000
vt 0.375000 0.000000
vt 0.625000 0.500000
vt 0.375000 0.750000
vt 0.375000 0.500000
vt 0.625000 1.000000
vt 0.375000 1.000000
vt 0.250000 0.500000
vt 0.250000 0.750000
vt 0.750000 0.500000
vt 0.875000 0.750000
vt 0.750000 0.750000
vt 0.625000 0.750000
vt 0.625000 0.875000
vt 0.375000 0.875000
vt 0.375000 0.875000
vt 0.625000 0.875000
vt 0.375000 0.375000
vt 0.375000 0.250000
vt 0.625000 0.250000
vt 0.625000 0.375000
vt 0.375000 0.500000
vt 0.375000 0.375000
vt 0.125000 0.750000
vt 0.125000 0.500000
vt 0.875000 0.500000
s 1
f 2/1/1 3/2/1 1/3/1
f 8/4/2 5/5/2 7/6/2
f 15/7/3 20/8/4 19/7/4
f 55/9/5 5/5/5 57/10/5
f 56/11/6 2/12/6 58/13/6
f 37/8/7 15/7/3 38/7/7
f 10/14/8 5/5/9 6/14/10
f 58/15/11 10/14/8 6/14/10
f 12/8/12 2/7/13 1/8/14
f 57/16/15 12/8/12 1/8/14
f 43/14/16 14/5/17 44/5/16
f 76/17/18 14/5/19 62/17/20
f 73/18/21 15/7/22 61/18/23
f 18/5/24 66/17/25 64/17/26
f 14/5/17 17/14/27 18/5/27
f 14/5/19 64/17/26 62/17/20
f 15/7/22 63/18/28 61/18/23
f 24/8/29 27/7/29 23/7/29
f 19/7/30 65/18/31 63/18/28
f 20/8/4 23/7/1 19/7/4
f 17/14/27 22/5/2 18/5/27
f 67/18/32 28/8/32 68/17/32
f 21/14/33 26/5/33 22/5/33
f 66/17/25 26/5/34 68/17/35
f 65/18/31 27/7/36 67/18/37
f 80/19/38 51/20/38 34/19/38
f 30/21/39 3/2/40 4/21/41
f 56/22/42 30/21/39 4/21/41
f 32/6/43 8/4/44 7/6/45
f 55/19/46 32/6/43 7/6/45
f 79/22/47 52/4/47 33/22/47
f 54/23/48 33/4/49 52/4/48
f 53/21/50 34/2/50 51/20/50
f 11/7/51 71/18/52 59/15/51
f 46/5/53 76/17/18 74/17/54
f 9/5/55 74/17/54 60/16/55
f 29/2/38 72/19/38 70/19/38
f 41/14/56 44/5/16 46/5/56
f 10/14/57 46/5/56 9/5/57
f 31/4/47 75/22/47 69/22/47
f 35/8/58 38/7/7 40/7/58
f 12/8/59 40/7/58 11/7/59
f 32/6/2 39/4/60 31/4/2
f 30/21/1 45/2/61 29/2/1
f 40/7/62 73/18/21 71/18/52
f 36/21/61 47/20/63 45/2/61
f 42/6/60 48/4/64 39/4/60
f 75/22/47 48/4/47 77/22/47
f 72/19/38 47/20/38 78/24/38
f 49/21/63 51/20/65 47/20/63
f 50/23/64 52/4/48 48/4/64
f 48/4/47 79/22/47 77/22/47
f 78/24/38 51/20/38 80/19/38
f 50/23/38 80/19/38 54/23/38
f 77/22/47 53/21/47 49/21/47
f 72/19/38 50/23/38 42/6/38
f 75/22/47 49/21/47 36/21/47
f 71/18/66 43/14/67 41/14/68
f 69/22/47 36/21/47 30/21/47
f 70/19/38 42/6/38 32/6/38
f 12/8/69 74/17/70 35/8/71
f 74/17/70 37/8/72 35/8/71
f 10/14/73 71/18/66 41/14/68
f 53/21/47 79/22/47 33/21/47
f 29/2/74 55/19/46 3/2/40
f 31/4/75 56/22/42 8/4/44
f 54/23/38 80/19/38 34/6/38
f 65/18/31 25/14/76 21/14/77
f 66/17/25 28/8/78 24/8/79
f 25/14/32 68/17/32 26/5/32
f 17/14/80 65/18/31 21/14/77
f 13/14/81 63/18/82 17/14/80
f 16/8/83 64/17/84 20/8/85
f 20/8/85 66/17/25 24/8/79
f 73/18/86 13/14/81 43/14/67
f 76/17/87 16/8/83 37/8/72
f 9/5/88 57/16/15 5/5/9
f 11/7/89 58/15/11 2/7/13
f 56/11/90 6/14/90 8/4/90
f 55/9/91 1/25/91 3/26/91
f 2/1/1 4/21/1 3/2/1
f 8/4/2 6/14/2 5/5/2
f 15/7/3 16/8/3 20/8/4
f 55/9/5 7/6/5 5/5/5
f 56/11/6 4/27/6 2/12/6
f 37/8/7 16/8/3 15/7/3
f 10/14/8 9/5/88 5/5/9
f 58/15/11 59/15/92 10/14/8
f 12/8/12 11/7/89 2/7/13
f 57/16/15 60/16/93 12/8/12
f 43/14/16 13/14/17 14/5/17
f 76/17/18 44/5/94 14/5/19
f 73/18/21 38/7/95 15/7/22
f 18/5/24 22/5/96 66/17/25
f 14/5/17 13/14/17 17/14/27
f 14/5/19 18/5/24 64/17/26
f 15/7/22 19/7/30 63/18/28
f 24/8/29 28/8/29 27/7/29
f 19/7/30 23/7/97 65/18/31
f 20/8/4 24/8/1 23/7/1
f 17/14/27 21/14/2 22/5/2
f 67/18/32 27/7/32 28/8/32
f 21/14/33 25/14/33 26/5/33
f 66/17/25 22/5/96 26/5/34
f 65/18/31 23/7/97 27/7/36
f 30/21/39 29/2/74 3/2/40
f 56/22/42 69/22/98 30/21/39
f 32/6/43 31/4/75 8/4/44
f 55/19/46 70/19/99 32/6/43
f 54/23/48 34/6/49 33/4/49
f 53/21/50 33/21/50 34/2/50
f 11/7/51 40/7/62 71/18/52
f 46/5/53 44/5/94 76/17/18
f 9/5/55 46/5/53 74/17/54
f 29/2/38 45/2/38 72/19/38
f 41/14/56 43/14/16 44/5/16
f 10/14/57 41/14/56 46/5/56
f 31/4/47 39/4/47 75/22/47
f 35/8/58 37/8/7 38/7/7
f 12/8/59 35/8/58 40/7/58
f 32/6/2 42/6/60 39/4/60
f 30/21/1 36/21/61 45/2/61
f 40/7/62 38/7/95 73/18/21
f 36/21/61 49/21/63 47/20/63
f 42/6/60 50/23/64 48/4/64
f 75/22/47 39/4/47 48/4/47
f 72/19/38 45/2/38 47/20/38
f 49/21/63 53/21/65 51/20/65
f 50/23/64 54/23/48 52/4/48
f 48/4/47 52/4/47 79/22/47
f 78/24/38 47/20/38 51/20/38
f 50/23/38 78/24/38 80/19/38
f 77/22/47 79/22/47 53/21/47
f 72/19/38 78/24/38 50/23/38
f 75/22/47 77/22/47 49/21/47
f 71/18/66 73/18/86 43/14/67
f 69/22/47 75/22/47 36/21/47
f 70/19/38 72/19/38 42/6/38
f 12/8/69 60/16/69 74/17/70
f 74/17/70 76/17/87 37/8/72
f 10/14/73 59/15/73 71/18/66
f 29/2/74 70/19/99 55/19/46
f 31/4/75 69/22/98 56/22/42
f 65/18/31 67/18/37 25/14/76
f 66/17/25 68/17/35 28/8/78
f 25/14/32 67/18/32 68/17/32
f 17/14/80 63/18/82 65/18/31
f 13/14/81 61/18/100 63/18/82
f 16/8/83 62/17/101 64/17/84
f 20/8/85 64/17/84 66/17/25
f 73/18/86 61/18/100 13/14/81
f 76/17/87 62/17/101 16/8/83
f 9/5/88 60/16/93 57/16/15
f 11/7/89 59/15/92 58/15/11
f 56/11/90 58/13/90 6/14/90
f 55/9/91 57/10/91 1/25/91
