# Blender 4.0.2
# www.blender.org
mtllib CouchPillow.mtl
o CouchPillow
v 0.229431 0.038822 -0.230477
v 0.237158 -0.034055 -0.236941
v 0.238805 0.034046 0.238012
v 0.233868 -0.039363 0.231836
v -0.229055 0.034246 -0.230717
v -0.233132 -0.037687 -0.234258
v -0.240829 0.035101 0.237679
v -0.226074 -0.040470 0.223754
v -0.245117 -0.044214 -0.203174
v -0.239103 -0.052237 -0.089911
v -0.235375 -0.058552 -0.030777
v -0.230464 -0.061456 0.087788
v -0.235530 -0.047739 0.198565
v 0.148206 -0.051941 -0.241520
v 0.029353 -0.058597 -0.234061
v -0.088985 -0.046759 -0.238020
v -0.200819 -0.044344 -0.244648
v 0.236164 -0.004098 -0.237202
v -0.229432 -0.004472 0.227222
v 0.246702 -0.005332 0.245993
v -0.237916 -0.005350 -0.239048
v 0.148337 0.051215 0.237744
v 0.029556 0.059765 0.230229
v -0.089915 0.058129 0.232553
v -0.206486 0.043521 0.244019
v 0.235821 0.046087 -0.200704
v 0.234089 0.055060 -0.090517
v 0.235795 0.056352 -0.030936
v 0.234800 0.055918 0.088391
v 0.242099 0.042971 0.203137
v -0.201756 -0.047151 0.234376
v -0.090051 -0.060195 0.226856
v 0.029433 -0.061307 0.227561
v 0.147465 -0.055290 0.233668
v -0.249231 0.040905 0.203888
v -0.236092 0.051579 0.088294
v -0.235168 0.055058 -0.030759
v -0.234683 0.052260 -0.090045
v -0.236675 0.040027 -0.202388
v -0.197700 0.039788 -0.235198
v -0.089520 0.048527 -0.235680
v 0.029319 0.053295 -0.239484
v 0.148259 0.051947 -0.240907
v 0.241694 -0.045428 0.201078
v 0.233325 -0.055801 0.088352
v 0.234821 -0.057266 -0.030688
v 0.236585 -0.052491 -0.089810
v 0.250037 -0.039408 -0.203910
v -0.196078 -0.005499 -0.257282
v -0.087357 -0.005654 -0.254862
v 0.028641 -0.005673 -0.256468
v 0.144430 -0.004902 -0.262325
v 0.253866 -0.004433 -0.196116
v 0.255575 -0.005303 -0.087639
v 0.255085 -0.005612 -0.029799
v 0.257341 -0.005731 0.086263
v 0.261948 -0.005465 0.200761
v -0.213396 -0.069616 -0.214010
v -0.210067 -0.086639 -0.092943
v -0.211102 -0.089821 -0.031467
v -0.212477 -0.087076 0.091042
v -0.201304 -0.063844 0.198422
v -0.092341 -0.083114 -0.203842
v -0.097660 -0.132606 -0.098203
v -0.098067 -0.139046 -0.033526
v -0.097711 -0.132083 0.096247
v -0.092668 -0.084950 0.204296
v 0.030376 -0.087931 -0.198970
v 0.032226 -0.138982 -0.098634
v 0.032400 -0.146754 -0.033832
v 0.032068 -0.139046 0.096635
v 0.030239 -0.088294 0.201166
v 0.152376 -0.077237 -0.204373
v 0.158499 -0.116142 -0.096507
v 0.158334 -0.120587 -0.032861
v 0.157004 -0.113764 0.093986
v 0.150637 -0.077910 0.200215
v -0.246875 -0.004765 0.187348
v -0.255703 -0.005446 0.084036
v -0.256669 -0.005685 -0.030170
v -0.259024 -0.005701 -0.088166
v -0.257897 -0.005461 -0.198343
v 0.145004 -0.005967 0.260117
v 0.028724 -0.006265 0.254805
v -0.087314 -0.005635 0.256161
v -0.192625 -0.004617 0.248389
v 0.153101 0.080727 -0.214936
v 0.158876 0.115439 -0.096495
v 0.158613 0.119502 -0.032730
v 0.158967 0.115190 0.094660
v 0.153399 0.081135 0.215291
v 0.029979 0.088046 -0.212118
v 0.032067 0.137326 -0.098599
v 0.032340 0.145056 -0.033788
v 0.032222 0.137262 0.096670
v 0.030075 0.088244 0.211083
v -0.092413 0.082155 -0.209044
v -0.097799 0.130710 -0.098304
v -0.098118 0.137263 -0.033646
v -0.097664 0.130889 0.096240
v -0.092296 0.085965 0.211423
v -0.204737 0.053927 -0.207126
v -0.208320 0.083452 -0.092889
v -0.212219 0.088189 -0.031496
v -0.212836 0.085943 0.090892
v -0.211657 0.065058 0.209345
vn -0.3353 0.8875 0.3162
vn -0.6820 0.1765 0.7098
vn -0.1708 0.4460 0.8786
vn 0.5581 0.5325 0.6364
vn 0.0274 -0.0640 0.9976
vn 0.6396 -0.1034 0.7617
vn -0.9099 0.3869 0.1500
vn -0.7141 -0.1878 0.6744
vn 0.5965 -0.4273 -0.6795
vn 0.2111 -0.8878 -0.4090
vn 0.0732 -0.6347 -0.7693
vn 0.5810 0.5063 -0.6372
vn 0.9846 0.0900 -0.1501
vn 0.6541 0.1084 -0.7486
vn 0.2008 -0.8936 0.4014
vn 0.4784 -0.6535 0.5865
vn 0.0621 -0.6661 0.7433
vn -0.0001 -0.5358 -0.8444
vn -0.1469 0.0560 -0.9876
vn -0.0121 -0.0220 -0.9997
vn -0.0285 0.4675 -0.8835
vn -0.0451 0.4835 -0.8742
vn 0.9913 -0.0531 0.1207
vn -0.0294 -0.0615 -0.9977
vn -0.0060 -0.6042 -0.7968
vn 0.0710 -0.0270 -0.9971
vn -0.1546 0.6481 -0.7457
vn 0.8142 -0.5477 -0.1928
vn -0.3210 -0.8876 0.3304
vn -0.0528 -0.5884 0.8068
vn -0.2587 -0.6002 0.7568
vn 0.7205 0.6820 0.1252
vn 0.9989 -0.0462 -0.0125
vn 0.7882 0.6134 0.0496
vn 0.7871 -0.6137 -0.0626
vn 0.9993 -0.0376 -0.0069
vn 0.8026 -0.5965 -0.0104
vn 0.6691 -0.7269 0.1543
vn -0.7734 -0.5844 0.2456
vn -0.6498 -0.4409 0.6192
vn 0.7500 -0.6588 0.0587
vn 0.9996 -0.0262 -0.0092
vn 0.8239 0.5666 -0.0128
vn 0.8126 0.5817 -0.0363
vn 0.7532 0.6265 -0.2003
vn -0.9807 0.0436 -0.1904
vn -0.5471 0.5770 -0.6065
vn -0.6917 0.0438 -0.7209
vn -0.5514 -0.8275 -0.1055
vn -0.8365 -0.5090 -0.2031
vn -0.3531 -0.8518 -0.3870
vn -0.0739 -0.8381 -0.5405
vn -0.1584 -0.5176 -0.8408
vn -0.6269 -0.4129 -0.6607
vn -0.6093 -0.7928 -0.0126
vn -0.8580 -0.5090 0.0693
vn -0.8616 -0.5076 0.0030
vn -0.8560 -0.5170 0.0008
vn -0.6181 -0.7770 0.1195
vn -0.1909 -0.9589 0.2100
vn -0.2257 -0.9740 -0.0207
vn 0.0313 -0.8465 -0.5314
vn -0.2101 -0.9409 -0.2656
vn 0.0419 -0.8228 0.5668
vn -0.0967 -0.8071 0.5825
vn 0.0716 -0.9657 0.2497
vn 0.0721 -0.9969 -0.0306
vn 0.0665 -0.9567 -0.2834
vn 0.4009 -0.8916 -0.2105
vn 0.0066 -0.5920 0.8059
vn 0.3944 -0.8970 0.1994
vn 0.4227 -0.9062 -0.0128
vn -0.9797 -0.1327 0.1500
vn -0.9980 -0.0422 0.0478
vn -0.9998 -0.0166 0.0137
vn -0.8591 0.5106 -0.0360
vn -0.9999 -0.0037 0.0156
vn -0.8895 0.4568 -0.0111
vn -0.8931 0.4486 0.0327
vn -0.2034 -0.1036 0.9736
vn 0.0309 0.4845 0.8743
vn -0.0119 -0.0540 0.9985
vn 0.3724 0.9149 -0.1560
vn 0.1904 0.8381 -0.5113
vn -0.0332 -0.0658 0.9973
vn -0.0323 0.4847 0.8741
vn -0.0023 0.4625 0.8866
vn 0.1959 0.8341 0.5156
vn 0.0026 0.8059 -0.5920
vn 0.0949 0.5095 -0.8552
vn -0.1312 0.8082 -0.5740
vn 0.4147 0.9098 -0.0154
vn 0.3888 0.9065 0.1648
vn 0.0670 0.9731 0.2205
vn 0.0697 0.9971 -0.0296
vn 0.0623 0.9649 -0.2551
vn 0.0267 0.7855 0.6183
vn -0.2269 0.9736 -0.0257
vn -0.1126 0.8051 0.5823
vn -0.2117 0.9558 0.2039
vn -0.5554 0.8163 -0.1588
vn -0.3021 0.8890 -0.3442
vn -0.6224 0.7822 -0.0296
vn -0.2225 0.9421 -0.2510
vn -0.5992 0.7936 0.1059
vn -0.7252 0.6536 -0.2167
vt 0.847222 0.722222
vt 0.875000 0.750000
vt 0.847222 0.750000
vt 0.625000 0.750000
vt 0.486111 0.805556
vt 0.486111 0.750000
vt 0.625000 0.027778
vt 0.486111 0.000000
vt 0.625000 0.000000
vt 0.375000 0.500000
vt 0.319444 0.527778
vt 0.319444 0.500000
vt 0.625000 0.500000
vt 0.486111 0.527778
vt 0.486111 0.500000
vt 0.319444 0.722222
vt 0.375000 0.750000
vt 0.319444 0.750000
vt 0.375000 0.333333
vt 0.486111 0.277778
vt 0.486111 0.333333
vt 0.625000 0.388889
vt 0.625000 0.333333
vt 0.486111 0.722222
vt 0.486111 0.388889
vt 0.375000 0.388889
vt 0.375000 0.444444
vt 0.486111 0.444444
vt 0.625000 0.277778
vt 0.375000 0.527778
vt 0.152778 0.722222
vt 0.208333 0.750000
vt 0.152778 0.750000
vt 0.625000 0.722222
vt 0.486111 0.666667
vt 0.625000 0.666667
vt 0.375000 0.583333
vt 0.486111 0.611111
vt 0.375000 0.611111
vt 0.375000 0.722222
vt 0.375000 0.027778
vt 0.375000 0.000000
vt 0.375000 0.666667
vt 0.486111 0.583333
vt 0.625000 0.611111
vt 0.625000 0.583333
vt 0.625000 0.527778
vt 0.486111 0.222222
vt 0.625000 0.250000
vt 0.486111 0.250000
vt 0.152778 0.583333
vt 0.125000 0.527778
vt 0.152778 0.527778
vt 0.125000 0.750000
vt 0.125000 0.722222
vt 0.208333 0.527778
vt 0.152778 0.500000
vt 0.208333 0.500000
vt 0.263889 0.500000
vt 0.125000 0.500000
vt 0.152778 0.611111
vt 0.125000 0.666667
vt 0.125000 0.611111
vt 0.125000 0.583333
vt 0.152778 0.666667
vt 0.208333 0.666667
vt 0.208333 0.611111
vt 0.263889 0.527778
vt 0.208333 0.583333
vt 0.263889 0.722222
vt 0.208333 0.722222
vt 0.263889 0.666667
vt 0.263889 0.611111
vt 0.263889 0.583333
vt 0.319444 0.583333
vt 0.263889 0.750000
vt 0.319444 0.666667
vt 0.319444 0.611111
vt 0.486111 0.027778
vt 0.375000 0.083333
vt 0.486111 0.083333
vt 0.375000 0.138889
vt 0.486111 0.138889
vt 0.625000 0.166667
vt 0.486111 0.166667
vt 0.375000 0.166667
vt 0.375000 0.250000
vt 0.375000 0.222222
vt 0.625000 0.138889
vt 0.625000 0.083333
vt 0.625000 0.972222
vt 0.486111 1.000000
vt 0.486111 0.972222
vt 0.625000 0.805556
vt 0.486111 0.861111
vt 0.680556 0.583333
vt 0.680556 0.527778
vt 0.375000 0.972222
vt 0.375000 1.000000
vt 0.375000 0.861111
vt 0.486111 0.916667
vt 0.375000 0.916667
vt 0.375000 0.805556
vt 0.625000 0.916667
vt 0.625000 0.861111
vt 0.680556 0.722222
vt 0.736111 0.750000
vt 0.680556 0.750000
vt 0.736111 0.527778
vt 0.680556 0.500000
vt 0.736111 0.500000
vt 0.791667 0.500000
vt 0.847222 0.500000
vt 0.791667 0.527778
vt 0.680556 0.611111
vt 0.680556 0.666667
vt 0.736111 0.666667
vt 0.736111 0.611111
vt 0.736111 0.583333
vt 0.736111 0.722222
vt 0.791667 0.750000
vt 0.791667 0.611111
vt 0.791667 0.722222
vt 0.791667 0.666667
vt 0.847222 0.583333
vt 0.847222 0.527778
vt 0.847222 0.611111
vt 0.791667 0.583333
vt 0.847222 0.666667
vt 0.875000 0.527778
vt 0.875000 0.583333
vt 0.875000 0.500000
vt 0.875000 0.611111
vt 0.875000 0.666667
vt 0.875000 0.722222
vt 0.375000 0.277778
vt 0.625000 0.444444
vt 0.625000 0.222222
vt 0.625000 1.000000
s 1
usemtl Material.003
f 106/1/1 7/2/2 25/3/3
f 3/4/4 83/5/5 20/6/6
f 35/7/7 19/8/8 7/9/2
f 2/10/9 73/11/10 14/12/11
f 1/13/12 53/14/13 18/15/14
f 77/16/15 4/17/16 34/18/17
f 16/19/18 49/20/19 50/21/20
f 42/22/21 50/21/20 41/23/22
f 57/24/23 3/4/4 20/6/6
f 16/19/18 51/25/24 15/26/25
f 14/27/11 51/25/24 52/28/26
f 42/22/21 52/28/26 51/25/24
f 40/29/27 50/21/20 49/20/19
f 52/28/26 1/13/12 18/15/14
f 18/15/14 48/30/28 2/10/9
f 62/31/29 32/32/30 31/33/31
f 30/34/32 56/35/33 29/36/34
f 47/37/35 55/38/36 46/39/37
f 57/24/23 4/17/16 44/40/38
f 19/8/8 13/41/39 8/42/40
f 56/35/33 44/40/38 45/43/41
f 54/44/42 28/45/43 55/38/36
f 27/46/44 53/14/13 26/47/45
f 28/45/43 56/35/33 55/38/36
f 82/48/46 5/49/47 21/50/48
f 5/49/47 49/20/19 21/50/48
f 59/51/49 9/52/50 58/53/51
f 62/31/29 8/54/40 13/55/39
f 63/56/52 17/57/53 16/58/18
f 15/59/25 63/56/52 16/58/18
f 73/11/10 15/59/25 14/12/11
f 6/60/54 58/53/51 9/52/50
f 60/61/55 12/62/56 11/63/57
f 59/51/49 11/63/57 10/64/58
f 62/31/29 12/62/56 61/65/59
f 63/56/52 59/51/49 58/53/51
f 66/66/60 60/61/55 65/67/61
f 59/51/49 65/67/61 60/61/55
f 66/66/60 62/31/29 61/65/59
f 68/68/62 64/69/63 63/56/52
f 72/70/64 32/32/30 67/71/65
f 71/72/66 65/67/61 70/73/67
f 69/74/68 65/67/61 64/69/63
f 72/70/64 66/66/60 71/72/66
f 74/75/69 68/68/62 73/11/10
f 77/16/15 33/76/70 72/70/64
f 76/77/71 70/73/67 75/78/72
f 69/74/68 75/78/72 70/73/67
f 76/77/71 72/70/64 71/72/66
f 47/37/35 73/11/10 48/30/28
f 45/43/41 75/78/72 46/39/37
f 74/75/69 46/39/37 75/78/72
f 77/16/15 45/43/41 44/40/38
f 78/79/73 12/80/56 13/41/39
f 83/5/5 4/17/16 20/6/6
f 79/81/74 11/82/57 12/80/56
f 80/83/75 38/84/76 81/85/77
f 80/83/75 10/86/58 11/82/57
f 82/48/46 6/87/54 9/88/50
f 82/48/46 10/86/58 81/85/77
f 37/89/78 79/81/74 36/90/79
f 36/90/79 78/79/73 35/7/7
f 25/91/3 19/92/8 86/93/80
f 38/84/76 82/48/46 81/85/77
f 22/94/81 84/95/82 83/5/5
f 88/96/83 26/47/45 87/97/84
f 31/98/31 19/92/8 8/99/40
f 33/100/70 85/101/85 32/102/30
f 34/103/17 84/95/82 33/100/70
f 32/102/30 86/93/80 31/98/31
f 24/104/86 86/93/80 85/101/85
f 23/105/87 85/101/85 84/95/82
f 52/28/26 2/10/9 14/27/11
f 91/106/88 3/4/4 30/34/32
f 91/106/88 23/107/87 22/108/81
f 1/13/12 87/97/84 26/47/45
f 92/109/89 43/110/90 42/111/21
f 41/112/22 92/109/89 42/111/21
f 40/113/27 97/114/91 41/112/22
f 89/115/92 29/36/34 28/45/43
f 27/46/44 89/115/92 28/45/43
f 91/106/88 29/36/34 90/116/93
f 92/109/89 88/96/83 87/97/84
f 95/117/94 89/115/92 94/118/95
f 93/119/96 89/115/92 88/96/83
f 96/120/97 90/116/93 95/117/94
f 97/114/91 93/119/96 92/109/89
f 96/120/97 24/121/86 23/107/87
f 99/122/98 95/117/94 94/118/95
f 93/119/96 99/122/98 94/118/95
f 101/123/99 95/117/94 100/124/100
f 103/125/101 97/114/91 102/126/102
f 106/1/1 24/121/86 101/123/99
f 104/127/103 100/124/100 99/122/98
f 103/125/101 99/122/98 98/128/104
f 105/129/105 101/123/99 100/124/100
f 103/125/101 39/130/106 38/131/76
f 5/132/47 102/126/102 40/113/27
f 105/129/105 37/133/78 36/134/79
f 38/131/76 104/127/103 103/125/101
f 106/1/1 36/134/79 35/135/7
f 53/14/13 47/37/35 48/30/28
f 6/87/54 49/20/19 17/136/53
f 56/35/33 46/39/37 55/38/36
f 106/1/1 35/135/7 7/2/2
f 3/4/4 22/94/81 83/5/5
f 35/7/7 78/79/73 19/8/8
f 2/10/9 48/30/28 73/11/10
f 1/13/12 26/47/45 53/14/13
f 77/16/15 44/40/38 4/17/16
f 16/19/18 17/136/53 49/20/19
f 42/22/21 51/25/24 50/21/20
f 57/24/23 30/34/32 3/4/4
f 16/19/18 50/21/20 51/25/24
f 14/27/11 15/26/25 51/25/24
f 42/22/21 43/137/90 52/28/26
f 40/29/27 41/23/22 50/21/20
f 52/28/26 43/137/90 1/13/12
f 18/15/14 53/14/13 48/30/28
f 62/31/29 67/71/65 32/32/30
f 30/34/32 57/24/23 56/35/33
f 47/37/35 54/44/42 55/38/36
f 57/24/23 20/6/6 4/17/16
f 19/8/8 78/79/73 13/41/39
f 56/35/33 57/24/23 44/40/38
f 54/44/42 27/46/44 28/45/43
f 27/46/44 54/44/42 53/14/13
f 28/45/43 29/36/34 56/35/33
f 82/48/46 39/138/106 5/49/47
f 5/49/47 40/29/27 49/20/19
f 59/51/49 10/64/58 9/52/50
f 62/31/29 31/33/31 8/54/40
f 63/56/52 58/53/51 17/57/53
f 15/59/25 68/68/62 63/56/52
f 73/11/10 68/68/62 15/59/25
f 6/60/54 17/57/53 58/53/51
f 60/61/55 61/65/59 12/62/56
f 59/51/49 60/61/55 11/63/57
f 62/31/29 13/55/39 12/62/56
f 63/56/52 64/69/63 59/51/49
f 66/66/60 61/65/59 60/61/55
f 59/51/49 64/69/63 65/67/61
f 66/66/60 67/71/65 62/31/29
f 68/68/62 69/74/68 64/69/63
f 72/70/64 33/76/70 32/32/30
f 71/72/66 66/66/60 65/67/61
f 69/74/68 70/73/67 65/67/61
f 72/70/64 67/71/65 66/66/60
f 74/75/69 69/74/68 68/68/62
f 77/16/15 34/18/17 33/76/70
f 76/77/71 71/72/66 70/73/67
f 69/74/68 74/75/69 75/78/72
f 76/77/71 77/16/15 72/70/64
f 47/37/35 74/75/69 73/11/10
f 45/43/41 76/77/71 75/78/72
f 74/75/69 47/37/35 46/39/37
f 77/16/15 76/77/71 45/43/41
f 78/79/73 79/81/74 12/80/56
f 83/5/5 34/103/17 4/17/16
f 79/81/74 80/83/75 11/82/57
f 80/83/75 37/89/78 38/84/76
f 80/83/75 81/85/77 10/86/58
f 82/48/46 21/50/48 6/87/54
f 82/48/46 9/88/50 10/86/58
f 37/89/78 80/83/75 79/81/74
f 36/90/79 79/81/74 78/79/73
f 25/91/3 7/139/2 19/92/8
f 38/84/76 39/138/106 82/48/46
f 22/94/81 23/105/87 84/95/82
f 88/96/83 27/46/44 26/47/45
f 31/98/31 86/93/80 19/92/8
f 33/100/70 84/95/82 85/101/85
f 34/103/17 83/5/5 84/95/82
f 32/102/30 85/101/85 86/93/80
f 24/104/86 25/91/3 86/93/80
f 23/105/87 24/104/86 85/101/85
f 52/28/26 18/15/14 2/10/9
f 91/106/88 22/108/81 3/4/4
f 91/106/88 96/120/97 23/107/87
f 1/13/12 43/110/90 87/97/84
f 92/109/89 87/97/84 43/110/90
f 41/112/22 97/114/91 92/109/89
f 40/113/27 102/126/102 97/114/91
f 89/115/92 90/116/93 29/36/34
f 27/46/44 88/96/83 89/115/92
f 91/106/88 30/34/32 29/36/34
f 92/109/89 93/119/96 88/96/83
f 95/117/94 90/116/93 89/115/92
f 93/119/96 94/118/95 89/115/92
f 96/120/97 91/106/88 90/116/93
f 97/114/91 98/128/104 93/119/96
f 96/120/97 101/123/99 24/121/86
f 99/122/98 100/124/100 95/117/94
f 93/119/96 98/128/104 99/122/98
f 101/123/99 96/120/97 95/117/94
f 103/125/101 98/128/104 97/114/91
f 106/1/1 25/3/3 24/121/86
f 104/127/103 105/129/105 100/124/100
f 103/125/101 104/127/103 99/122/98
f 105/129/105 106/1/1 101/123/99
f 103/125/101 102/126/102 39/130/106
f 5/132/47 39/130/106 102/126/102
f 105/129/105 104/127/103 37/133/78
f 38/131/76 37/133/78 104/127/103
f 106/1/1 105/129/105 36/134/79
f 53/14/13 54/44/42 47/37/35
f 6/87/54 21/50/48 49/20/19
f 56/35/33 45/43/41 46/39/37
