# Blender 4.0.2
# www.blender.org
mtllib WallClock01.mtl
o WallClock01
v -0.246978 0.000000 0.056169
v -0.258115 0.014266 0.041169
v -0.258115 -0.014266 0.041169
v -0.246978 -0.000000 -0.056169
v -0.258115 -0.014266 -0.041169
v -0.258115 0.014266 -0.041169
v -0.199809 -0.145170 0.056169
v -0.217205 -0.140175 0.041169
v -0.200434 -0.163257 0.041169
v -0.199809 -0.145170 -0.056169
v -0.200434 -0.163257 -0.041169
v -0.217205 -0.140175 -0.041169
v -0.076320 -0.234890 0.056169
v -0.093329 -0.241073 0.041169
v -0.066194 -0.249890 0.041169
v -0.076320 -0.234890 -0.056169
v -0.066194 -0.249890 -0.041169
v -0.093329 -0.241073 -0.041169
v 0.076320 -0.234890 0.056169
v 0.066194 -0.249890 0.041169
v 0.093329 -0.241073 0.041169
v 0.076320 -0.234890 -0.056169
v 0.093329 -0.241073 -0.041169
v 0.066194 -0.249890 -0.041169
v 0.199809 -0.145170 0.056169
v 0.200434 -0.163257 0.041169
v 0.217205 -0.140175 0.041169
v 0.199809 -0.145170 -0.056169
v 0.217205 -0.140175 -0.041169
v 0.200434 -0.163257 -0.041169
v 0.246978 0.000000 0.056169
v 0.258115 -0.014266 0.041169
v 0.258115 0.014266 0.041169
v 0.246978 -0.000000 -0.056169
v 0.258115 0.014266 -0.041169
v 0.258115 -0.014266 -0.041169
v 0.199809 0.145170 0.056169
v 0.217205 0.140175 0.041169
v 0.200434 0.163257 0.041169
v 0.199809 0.145170 -0.056169
v 0.200434 0.163257 -0.041169
v 0.217205 0.140175 -0.041169
v 0.076320 0.234890 0.056169
v 0.093329 0.241073 0.041169
v 0.066194 0.249890 0.041169
v 0.076320 0.234890 -0.056169
v 0.066194 0.249890 -0.041169
v 0.093329 0.241073 -0.041169
v -0.076320 0.234890 0.056169
v -0.066194 0.249890 0.041169
v -0.093329 0.241073 0.041169
v -0.076320 0.234890 -0.056169
v -0.093329 0.241073 -0.041169
v -0.066194 0.249890 -0.041169
v -0.199809 0.145170 0.056169
v -0.200434 0.163257 0.041169
v -0.217205 0.140175 0.041169
v -0.199809 0.145170 -0.056169
v -0.217205 0.140175 -0.041169
v -0.200434 0.163257 -0.041169
vn -0.9511 0.3090 -0.0000
vn -0.0000 -1.0000 -0.0000
vn 0.5878 -0.8090 -0.0000
vn 0.9511 -0.3090 -0.0000
vn 0.9511 0.3090 -0.0000
vn 0.5878 0.8090 -0.0000
vn -0.0000 1.0000 -0.0000
vn -0.5878 0.8090 -0.0000
vn -0.5878 -0.8090 -0.0000
vn -0.0000 -0.0000 -1.0000
vn -0.9511 -0.3090 -0.0000
vn -0.8029 -0.0000 0.5961
vn -0.8029 -0.0000 -0.5961
vn -0.6496 -0.4719 0.5961
vn -0.6496 -0.4719 -0.5961
vn -0.2481 -0.7636 0.5961
vn -0.2481 -0.7636 -0.5961
vn 0.2481 -0.7636 0.5961
vn 0.2481 -0.7636 -0.5961
vn 0.6496 -0.4719 0.5961
vn 0.6496 -0.4719 -0.5961
vn 0.8029 -0.0000 0.5961
vn 0.8029 -0.0000 -0.5961
vn 0.6496 0.4719 0.5961
vn 0.6496 0.4719 -0.5961
vn 0.2481 0.7636 0.5961
vn 0.2481 0.7636 -0.5961
vn -0.2481 0.7636 0.5961
vn -0.2481 0.7636 -0.5961
vn -0.6496 0.4719 0.5961
vn -0.6496 0.4719 -0.5961
vn -0.6725 -0.2185 0.7071
vn -0.6725 -0.2185 -0.7071
vn -1.0000 -0.0000 -0.0000
vn -0.8090 -0.5878 -0.0000
vn -0.4156 -0.5721 0.7071
vn -0.4156 -0.5721 -0.7071
vn -0.3090 -0.9511 -0.0000
vn -0.0000 -0.7071 0.7071
vn -0.0000 -0.7071 -0.7071
vn 0.3090 -0.9511 -0.0000
vn 0.4156 -0.5721 0.7071
vn 0.4156 -0.5721 -0.7071
vn 0.8090 -0.5878 -0.0000
vn 0.6725 -0.2185 0.7071
vn 0.6725 -0.2185 -0.7071
vn 1.0000 -0.0000 -0.0000
vn 0.6725 0.2185 0.7071
vn 0.6725 0.2185 -0.7071
vn 0.8090 0.5878 -0.0000
vn 0.4156 0.5721 0.7071
vn 0.4156 0.5721 -0.7071
vn 0.3090 0.9511 -0.0000
vn -0.0000 0.7071 0.7071
vn -0.0000 0.7071 -0.7071
vn -0.3090 0.9511 -0.0000
vn -0.4156 0.5721 0.7071
vn -0.4156 0.5721 -0.7071
vn -0.8090 0.5878 -0.0000
vn -0.6725 0.2185 0.7071
vn -0.6725 0.2185 -0.7071
vn -0.0000 -0.0000 1.0000
vt 0.090763 0.933237
vt 0.009237 0.566763
vt 0.090763 0.566763
vt 0.790763 0.933237
vt 0.709237 0.566763
vt 0.790763 0.566763
vt 0.690763 0.933237
vt 0.609237 0.566763
vt 0.690763 0.566763
vt 0.590763 0.933237
vt 0.509237 0.566763
vt 0.590763 0.566763
vt 0.490763 0.933237
vt 0.409237 0.566763
vt 0.490763 0.566763
vt 0.390763 0.933237
vt 0.309237 0.566763
vt 0.390763 0.566763
vt 0.290763 0.933237
vt 0.209237 0.566763
vt 0.290763 0.566763
vt 0.190763 0.566763
vt 0.109237 0.933237
vt 0.109237 0.566763
vt 0.890763 0.933237
vt 0.809237 0.566763
vt 0.890763 0.566763
vt 0.035448 0.319712
vt 0.382601 0.067491
vt 0.464552 0.319712
vt 0.990763 0.933237
vt 0.909237 0.566763
vt 0.990763 0.566763
vt 0.996999 0.500000
vt 1.000000 0.566763
vt 0.996999 1.000000
vt 1.000000 0.933237
vt 0.896999 0.500000
vt 0.900000 0.566763
vt 0.896999 1.000000
vt 0.900000 0.933237
vt 0.796999 0.500000
vt 0.800000 0.566763
vt 0.796999 1.000000
vt 0.800000 0.933237
vt 0.703001 0.500000
vt 0.700000 0.566763
vt 0.703001 1.000000
vt 0.700000 0.933237
vt 0.709237 0.933237
vt 0.603001 0.500000
vt 0.600000 0.566763
vt 0.603001 1.000000
vt 0.600000 0.933237
vt 0.609237 0.933237
vt 0.503001 0.500000
vt 0.500000 0.566763
vt 0.503001 1.000000
vt 0.500000 0.933237
vt 0.509237 0.933237
vt 0.403001 0.500000
vt 0.400000 0.566763
vt 0.403001 1.000000
vt 0.400000 0.933237
vt 0.409237 0.933237
vt 0.303001 0.500000
vt 0.300000 0.566763
vt 0.303001 1.000000
vt 0.300000 0.933237
vt 0.309237 0.933237
vt 0.196999 0.500000
vt 0.200000 0.566763
vt 0.196999 1.000000
vt 0.190763 0.933237
vt 0.200000 0.933237
vt 0.096999 0.500000
vt 0.100000 0.566763
vt 0.096999 1.000000
vt 0.100000 0.933237
vt 0.909237 0.933237
vt 0.903001 1.000000
vt 0.803001 1.000000
vt 0.809237 0.933237
vt 0.696999 0.500000
vt 0.596999 0.500000
vt 0.496999 0.500000
vt 0.496999 1.000000
vt 0.396999 0.500000
vt 0.296999 0.500000
vt 0.203001 1.000000
vt 0.209237 0.933237
vt 0.103001 0.500000
vt 0.103001 1.000000
vt 0.003001 0.500000
vt 0.096999 0.500000
vt 0.003001 1.000000
vt 0.009237 0.933237
vt 0.964552 0.180288
vt 0.535448 0.180288
vt 0.617399 0.432509
vt 0.382601 0.432509
vt 0.250000 0.475594
vt 0.117399 0.432509
vt 0.035448 0.180288
vt 0.117399 0.067491
vt 0.250000 0.024406
vt 0.464552 0.180288
vt 0.903001 0.500000
vt 0.803001 0.500000
vt 0.696999 1.000000
vt 0.596999 1.000000
vt 0.396999 1.000000
vt 0.203001 0.500000
vt 0.296999 1.000000
vt 0.750000 0.475594
vt 0.882601 0.432509
vt 0.964552 0.319712
vt 0.882601 0.067491
vt 0.750000 0.024406
vt 0.617399 0.067491
vt 0.535448 0.319712
s 0
f 59/1/1 2/2/1 57/3/1
f 17/4/2 20/5/2 15/6/2
f 23/7/3 26/8/3 21/9/3
f 29/10/4 32/11/4 27/12/4
f 35/13/5 38/14/5 33/15/5
f 41/16/6 44/17/6 39/18/6
f 47/19/7 50/20/7 45/21/7
f 51/22/8 60/23/8 56/24/8
f 11/25/9 14/26/9 9/27/9
f 52/28/10 28/29/10 16/30/10
f 5/31/11 8/32/11 3/33/11
f 1/34/12 2/35/12 3/33/12
f 4/36/13 5/31/13 6/37/13
f 7/38/14 8/39/14 9/27/14
f 10/40/15 11/25/15 12/41/15
f 13/42/16 14/43/16 15/6/16
f 16/44/17 17/4/17 18/45/17
f 19/46/18 20/5/18 21/47/18
f 22/48/19 23/49/19 24/50/19
f 25/51/20 26/8/20 27/52/20
f 28/53/21 29/54/21 30/55/21
f 31/56/22 32/11/22 33/57/22
f 34/58/23 35/59/23 36/60/23
f 37/61/24 38/14/24 39/62/24
f 40/63/25 41/64/25 42/65/25
f 43/66/26 44/17/26 45/67/26
f 46/68/27 47/69/27 48/70/27
f 49/71/28 50/72/28 51/22/28
f 52/73/29 53/74/29 54/75/29
f 55/76/30 56/77/30 57/3/30
f 58/78/31 59/1/31 60/79/31
f 8/32/32 1/34/32 3/33/32
f 12/80/33 4/36/33 10/81/33
f 6/37/34 3/33/34 2/35/34
f 9/27/35 12/80/35 11/25/35
f 14/26/36 7/38/36 9/27/36
f 11/25/37 16/82/37 18/83/37
f 15/6/38 18/83/38 17/4/38
f 20/5/39 13/42/39 15/6/39
f 17/4/40 22/48/40 24/50/40
f 21/9/41 24/50/41 23/7/41
f 26/8/42 19/84/42 21/9/42
f 23/7/43 28/53/43 30/55/43
f 27/12/44 30/55/44 29/10/44
f 27/12/45 31/56/45 25/85/45
f 29/10/46 34/58/46 36/60/46
f 35/13/47 32/11/47 36/60/47
f 38/14/48 31/86/48 33/15/48
f 42/65/49 34/87/49 40/63/49
f 39/18/50 42/65/50 41/16/50
f 44/17/51 37/88/51 39/18/51
f 41/16/52 46/68/52 48/70/52
f 45/21/53 48/70/53 47/19/53
f 50/20/54 43/89/54 45/21/54
f 47/19/55 52/90/55 54/91/55
f 51/22/56 54/91/56 53/74/56
f 51/22/57 55/92/57 49/71/57
f 53/74/58 58/93/58 60/23/58
f 57/3/59 60/23/59 59/1/59
f 57/3/60 1/94/60 55/95/60
f 59/1/61 4/96/61 6/97/61
f 19/98/62 43/99/62 55/100/62
f 59/1/1 6/97/1 2/2/1
f 17/4/2 24/50/2 20/5/2
f 23/7/3 30/55/3 26/8/3
f 29/10/4 36/60/4 32/11/4
f 35/13/5 42/65/5 38/14/5
f 41/16/6 48/70/6 44/17/6
f 47/19/7 54/91/7 50/20/7
f 51/22/8 53/74/8 60/23/8
f 11/25/9 18/83/9 14/26/9
f 16/30/10 10/101/10 4/102/10
f 4/102/10 58/103/10 52/28/10
f 52/28/10 46/104/10 40/105/10
f 40/105/10 34/106/10 28/29/10
f 28/29/10 22/107/10 16/30/10
f 16/30/10 4/102/10 52/28/10
f 52/28/10 40/105/10 28/29/10
f 5/31/11 12/80/11 8/32/11
f 8/32/32 7/108/32 1/34/32
f 12/80/33 5/31/33 4/36/33
f 6/37/34 5/31/34 3/33/34
f 9/27/35 8/32/35 12/80/35
f 14/26/36 13/109/36 7/38/36
f 11/25/37 10/40/37 16/82/37
f 15/6/38 14/26/38 18/83/38
f 20/5/39 19/46/39 13/42/39
f 17/4/40 16/44/40 22/48/40
f 21/9/41 20/5/41 24/50/41
f 26/8/42 25/51/42 19/84/42
f 23/7/43 22/110/43 28/53/43
f 27/12/44 26/8/44 30/55/44
f 27/12/45 32/11/45 31/56/45
f 29/10/46 28/111/46 34/58/46
f 35/13/47 33/15/47 32/11/47
f 38/14/48 37/61/48 31/86/48
f 42/65/49 35/13/49 34/87/49
f 39/18/50 38/14/50 42/65/50
f 44/17/51 43/66/51 37/88/51
f 41/16/52 40/112/52 46/68/52
f 45/21/53 44/17/53 48/70/53
f 50/20/54 49/113/54 43/89/54
f 47/19/55 46/114/55 52/90/55
f 51/22/56 50/20/56 54/91/56
f 51/22/57 56/24/57 55/92/57
f 53/74/58 52/73/58 58/93/58
f 57/3/59 56/24/59 60/23/59
f 57/3/60 2/2/60 1/94/60
f 59/1/61 58/78/61 4/96/61
f 55/100/62 1/115/62 7/116/62
f 7/116/62 13/117/62 19/98/62
f 19/98/62 25/118/62 31/119/62
f 31/119/62 37/120/62 43/99/62
f 43/99/62 49/121/62 55/100/62
f 55/100/62 7/116/62 19/98/62
f 19/98/62 31/119/62 43/99/62
