# Blender 4.0.2
# www.blender.org
mtllib TrashBag01.mtl
o TrashBag01
v -0.010002 0.041245 -0.342375
v -0.078573 0.474646 -0.195224
v 0.127010 0.040104 -0.320744
v -0.063942 0.472932 -0.197060
v 0.243427 0.041213 -0.248773
v -0.051299 0.471556 -0.193022
v 0.315628 0.045353 -0.137180
v -0.042934 0.470576 -0.183863
v 0.330623 0.046500 -0.012453
v -0.040335 0.469960 -0.171602
v 0.289030 0.043504 0.106289
v -0.043665 0.469851 -0.157740
v 0.201680 0.040306 0.206873
v -0.052132 0.470350 -0.144016
v 0.084655 0.050430 0.262155
v -0.064211 0.471611 -0.132462
v -0.042665 0.072485 0.275008
v -0.078060 0.473654 -0.125011
v -0.164889 0.095175 0.256089
v -0.091778 0.476115 -0.122869
v -0.269209 0.106616 0.204901
v -0.103440 0.478470 -0.126225
v -0.332685 0.094693 0.129500
v -0.111257 0.480033 -0.134815
v -0.344463 0.072343 0.021682
v -0.114079 0.480446 -0.147450
v -0.312254 0.054133 -0.105741
v -0.111594 0.479790 -0.161980
v -0.247794 0.044046 -0.220132
v -0.104187 0.478306 -0.176181
v -0.142913 0.040529 -0.303053
v -0.092672 0.476478 -0.187880
v 0.187758 -0.001738 0.141951
v 0.131539 -0.009289 0.049436
v 0.044390 -0.002044 -0.075422
v -0.050055 0.001778 -0.216953
v 0.009180 0.019253 0.236749
v -0.074061 0.015054 0.169035
v -0.147803 0.009576 0.056550
v -0.207846 0.000245 -0.087815
v -0.005022 0.169160 -0.377870
v 0.135524 0.173871 -0.345552
v 0.232767 0.175613 -0.280133
v 0.297161 0.174353 -0.169468
v 0.324534 0.172545 -0.045984
v 0.285813 0.168893 0.072796
v 0.198801 0.159989 0.169159
v 0.060627 0.165643 0.211193
v -0.076586 0.191740 0.220032
v -0.195566 0.226289 0.199308
v -0.284656 0.250378 0.143770
v -0.338303 0.243997 0.078843
v -0.347506 0.220599 -0.017507
v -0.327398 0.195720 -0.131144
v -0.264955 0.182662 -0.241877
v -0.152556 0.179075 -0.328980
v 0.017351 0.296045 -0.341861
v 0.110182 0.309220 -0.310864
v 0.166007 0.309912 -0.266001
v 0.206972 0.306786 -0.185189
v 0.229484 0.303039 -0.086678
v 0.223692 0.293770 0.023593
v 0.160124 0.273033 0.117516
v 0.040970 0.265117 0.153975
v -0.086442 0.286983 0.159102
v -0.184283 0.332548 0.123345
v -0.246037 0.367226 0.068877
v -0.282306 0.370582 0.008156
v -0.290466 0.349652 -0.071461
v -0.288341 0.315595 -0.151264
v -0.229173 0.302913 -0.235042
v -0.120174 0.307519 -0.314609
v -0.064202 0.474813 -0.198222
v -0.078834 0.476527 -0.196387
v -0.051558 0.473437 -0.194183
v -0.043193 0.472457 -0.185024
v -0.040593 0.471840 -0.172763
v -0.043924 0.471731 -0.158902
v -0.052392 0.472231 -0.145178
v -0.064472 0.473492 -0.133625
v -0.078319 0.475585 -0.126223
v -0.091973 0.478256 -0.124263
v -0.103541 0.480730 -0.127683
v -0.111337 0.482274 -0.136187
v -0.114249 0.482544 -0.148675
v -0.111841 0.481703 -0.163147
v -0.104450 0.480188 -0.177346
v -0.092934 0.478360 -0.189044
v -0.003513 0.568876 -0.269221
v -0.072480 0.573736 -0.258823
v 0.063618 0.575664 -0.237203
v 0.106249 0.569404 -0.211052
v 0.120065 0.564934 -0.182511
v 0.102976 0.564179 -0.158012
v 0.059679 0.570581 -0.145114
v -0.003449 0.576046 -0.136733
v -0.071405 0.582750 -0.093068
v -0.132221 0.587210 -0.075993
v -0.180154 0.591445 -0.073690
v -0.212228 0.591359 -0.091334
v -0.225188 0.585850 -0.129286
v -0.216316 0.579444 -0.171231
v -0.188333 0.568898 -0.209323
v -0.138938 0.566852 -0.240185
v -0.009484 0.047691 -0.334747
v -0.076368 0.474060 -0.185488
v 0.124189 0.046884 -0.313957
v -0.065605 0.471672 -0.187280
v 0.237768 0.047608 -0.243570
v -0.057381 0.468734 -0.185602
v 0.307967 0.051149 -0.134404
v -0.051226 0.465957 -0.180715
v 0.322071 0.051614 -0.013299
v -0.048328 0.463964 -0.172010
v 0.281085 0.047292 0.101542
v -0.050301 0.463107 -0.160977
v 0.196426 0.043794 0.199113
v -0.056974 0.463372 -0.149295
v 0.082290 0.053108 0.252815
v -0.067768 0.464623 -0.138669
v -0.042332 0.073792 0.265099
v -0.080742 0.466624 -0.131598
v -0.161785 0.097832 0.246961
v -0.092797 0.468873 -0.129689
v -0.263386 0.109958 0.197490
v -0.101038 0.470906 -0.132310
v -0.324756 0.099133 0.125329
v -0.104371 0.473481 -0.137924
v -0.336190 0.077930 0.021096
v -0.105026 0.476259 -0.146740
v -0.304370 0.059816 -0.103385
v -0.102643 0.477473 -0.158172
v -0.241709 0.050308 -0.215259
v -0.096420 0.477159 -0.169988
v -0.139353 0.047005 -0.296316
v -0.087077 0.475854 -0.179616
v 0.185377 0.007729 0.139781
v 0.130755 0.000681 0.049426
v 0.043917 0.007935 -0.074981
v -0.049792 0.011627 -0.215239
v 0.010108 0.027956 0.231913
v -0.072004 0.024496 0.166464
v -0.145845 0.019252 0.054958
v -0.205359 0.009930 -0.087646
v -0.004637 0.169132 -0.367877
v 0.131535 0.173384 -0.336395
v 0.225545 0.174093 -0.273385
v 0.288138 0.171734 -0.166045
v 0.315075 0.169323 -0.046368
v 0.277626 0.165340 0.068285
v 0.193568 0.156041 0.161608
v 0.058398 0.161076 0.202581
v -0.077064 0.186985 0.211248
v -0.193312 0.221733 0.190697
v -0.278833 0.246172 0.136813
v -0.329304 0.240993 0.075683
v -0.337650 0.219078 -0.016777
v -0.318066 0.195159 -0.127593
v -0.257436 0.182512 -0.235286
v -0.147968 0.178913 -0.320096
v 0.017037 0.291700 -0.332860
v 0.106601 0.303947 -0.303159
v 0.160026 0.303863 -0.260744
v 0.199996 0.300069 -0.182694
v 0.222508 0.295874 -0.086662
v 0.217597 0.286563 0.020289
v 0.156317 0.266245 0.111237
v 0.039124 0.258401 0.146800
v -0.087555 0.280156 0.151881
v -0.183675 0.325345 0.116435
v -0.242460 0.359555 0.063551
v -0.275435 0.363528 0.006413
v -0.282408 0.343937 -0.069909
v -0.280292 0.311136 -0.147349
v -0.222647 0.298854 -0.228644
v -0.116563 0.303304 -0.306291
v -0.064380 0.480541 -0.190027
v -0.076300 0.481865 -0.188320
v -0.055235 0.479247 -0.186922
v -0.049500 0.477928 -0.179522
v -0.049398 0.476560 -0.172318
v -0.051959 0.473706 -0.164518
v -0.058123 0.471456 -0.153337
v -0.069672 0.472043 -0.142043
v -0.082213 0.474152 -0.135321
v -0.092673 0.477225 -0.134185
v -0.099527 0.481400 -0.136818
v -0.103249 0.485511 -0.141098
v -0.105457 0.487285 -0.149154
v -0.103822 0.487138 -0.160668
v -0.097900 0.485827 -0.172315
v -0.088474 0.483846 -0.181972
v -0.005107 0.575350 -0.261768
v -0.070566 0.579070 -0.250583
v 0.060170 0.582493 -0.230763
v 0.101884 0.577319 -0.206775
v 0.114999 0.573534 -0.181885
v 0.098116 0.571861 -0.162180
v 0.056445 0.574645 -0.153659
v -0.006773 0.578281 -0.145896
v -0.074784 0.585770 -0.101982
v -0.132509 0.591289 -0.085119
v -0.176908 0.597368 -0.081065
v -0.206615 0.598345 -0.095771
v -0.218530 0.593180 -0.130675
v -0.209577 0.586720 -0.169952
v -0.182403 0.575856 -0.205271
v -0.135277 0.572858 -0.233077
vn 0.0589 0.4486 -0.8918
vn 0.0822 0.6689 -0.7388
vn 0.3876 0.5306 -0.7539
vn 0.3589 0.7671 -0.5318
vn 0.6148 0.6007 -0.5111
vn 0.5143 0.8238 -0.2382
vn 0.7012 0.6699 -0.2440
vn 0.5265 0.8501 0.0092
vn 0.6915 0.7220 -0.0229
vn 0.4629 0.8700 0.1699
vn 0.6070 0.7273 0.3203
vn 0.4027 0.8690 0.2875
vn 0.3720 0.6769 0.6352
vn 0.4587 0.6997 0.5477
vn 0.1635 0.6726 0.7217
vn 0.3196 0.6981 0.6407
vn 0.1009 0.6850 0.7216
vn -0.0657 0.7244 0.6863
vn 0.1142 0.7202 0.6843
vn -0.3641 0.7702 0.5237
vn -0.1284 0.7889 0.6009
vn -0.3465 0.9007 0.2619
vn -0.5617 0.8212 0.1011
vn -0.8067 0.5671 -0.1663
vn -0.8201 0.5685 -0.0650
vn -0.6323 0.7734 -0.0452
vn -0.8094 0.4430 -0.3855
vn -0.6725 0.6688 -0.3170
vn -0.6362 0.4136 -0.6513
vn -0.4389 0.5933 -0.6748
vn -0.3565 0.4214 -0.8339
vn -0.1875 0.6139 -0.7668
vn 0.4561 -0.8687 0.1932
vn 0.2408 -0.9406 0.2395
vn 0.2919 -0.9564 -0.0060
vn 0.1295 -0.7973 0.5896
vn 0.2897 -0.8305 0.4757
vn -0.1857 -0.6863 0.7032
vn -0.0672 -0.8617 0.5030
vn 0.0647 -0.9978 -0.0173
vn 0.1895 -0.9795 -0.0690
vn -0.3045 -0.8263 0.4738
vn -0.2100 -0.9447 0.2519
vn 0.0448 -0.9977 -0.0516
vn 0.1279 -0.9868 -0.0994
vn -0.3020 -0.8794 0.3680
vn -0.1883 -0.9672 0.1704
vn 0.0922 -0.9806 -0.1728
vn -0.2476 -0.9685 -0.0247
vn -0.0254 -0.9832 -0.1809
vn -0.3637 -0.9163 0.1678
vn -0.0098 -0.9529 -0.3030
vn -0.2739 -0.9370 -0.2168
vn -0.1596 -0.9532 -0.2569
vn -0.4492 -0.8912 -0.0629
vn -0.4703 0.0041 -0.8825
vn -0.0854 -0.2506 -0.9643
vn -0.4524 -0.1968 -0.8699
vn -0.7536 0.0127 -0.6572
vn -0.7519 -0.1910 -0.6310
vn -0.9417 0.0416 -0.3339
vn -0.9312 -0.1409 -0.3363
vn -0.9847 0.1542 -0.0806
vn -0.9976 -0.0385 -0.0568
vn -0.9814 0.1850 0.0518
vn -0.9941 -0.0005 0.1087
vn -0.5812 0.4197 0.6972
vn -0.7665 0.1800 0.6165
vn -0.5708 0.2543 0.7807
vn -0.2248 0.4545 0.8619
vn -0.1812 0.3615 0.9146
vn 0.0489 0.4730 0.8797
vn 0.0739 0.4274 0.9010
vn 0.2069 0.4696 0.8583
vn 0.2697 0.3956 0.8779
vn 0.5262 0.3822 0.7596
vn 0.5777 0.2579 0.7745
vn 0.8318 0.1709 0.5282
vn 0.9870 0.0786 0.1401
vn 0.8133 0.3390 0.4728
vn 0.9433 0.0229 -0.3312
vn 0.9459 0.3218 0.0401
vn 0.7262 -0.0883 -0.6818
vn 0.8944 0.2709 -0.3559
vn 0.3688 -0.2023 -0.9072
vn 0.6966 -0.1215 -0.7071
vn -0.0486 -0.0077 -0.9988
vn -0.7343 0.3879 0.5570
vn 0.6879 0.4208 -0.5913
vn 0.4100 0.0548 -0.9104
vn -0.3060 -0.5310 -0.7902
vn -0.0220 -0.5606 -0.8278
vn 0.0549 -0.5193 -0.8528
vn -0.7998 -0.5453 -0.2510
vn -0.7761 -0.4061 -0.4824
vn -0.9308 -0.2689 -0.2477
vn 0.9771 0.1916 0.0928
vn 0.8915 0.3205 0.3202
vn 0.8492 0.3571 0.3889
vn 0.3408 0.5324 0.7748
vn -0.9946 -0.0999 -0.0291
vn -0.9950 -0.0206 0.0974
vn 0.9783 0.0066 -0.2071
vn 0.9932 0.0952 -0.0669
vn -0.9706 0.0963 0.2207
vn -0.9703 0.1001 0.2200
vn 0.1729 -0.6499 -0.7401
vn 0.3512 -0.5922 -0.7252
vn 0.6274 -0.3523 0.6945
vn 0.5149 -0.2819 0.8096
vn 0.5217 -0.3144 0.7931
vn -0.6315 -0.6982 0.3371
vn -0.6633 -0.7305 0.1621
vn -0.6748 -0.7374 0.0303
vn 0.5260 -0.8395 0.1362
vn 0.4918 -0.8140 0.3092
vn 0.5282 -0.8405 0.1203
vn -0.0116 -0.4392 0.8983
vn -0.2933 -0.4803 0.8266
vn -0.3417 -0.4833 0.8060
vn -0.6820 -0.5566 -0.4744
vn -0.3414 -0.5975 -0.7256
vn -0.5350 -0.5578 -0.6346
vn 0.3374 -0.6747 -0.6565
vn 0.5865 -0.5288 -0.6135
vn 0.3492 -0.3021 0.8870
vn 0.2709 -0.3004 0.9145
vn -0.1703 -0.5244 -0.8342
vn -0.2889 -0.5469 -0.7858
vn -0.6744 -0.7278 -0.1245
vn 0.6049 -0.6895 0.3984
vn -0.3855 -0.6293 0.6748
vn -0.6174 -0.6461 0.4487
vn 0.4571 -0.8216 -0.3406
vn 0.5134 -0.8406 -0.1728
vn 0.5191 -0.8410 -0.1523
vn 0.1169 -0.3051 0.9451
vn -0.5788 -0.6998 -0.4187
vn 0.0157 0.5465 0.8373
vn 0.7288 0.4300 0.5329
vn 0.7008 0.4426 0.5595
vn -0.5714 -0.4877 -0.6600
vn 0.2160 -0.4914 -0.8437
vn -0.6430 0.3934 0.6572
vn -0.6454 0.3831 0.6608
vn -0.6426 0.3947 0.6567
vn 0.5593 0.4906 0.6682
vn 0.6845 -0.3126 -0.6586
vn 0.6844 -0.3126 -0.6586
vn -0.0600 -0.4473 0.8924
vn -0.1135 -0.6765 0.7277
vn 0.1849 -0.6120 0.7690
vn -0.3886 -0.5298 0.7539
vn -0.4282 -0.7814 0.4540
vn -0.6160 -0.6002 0.5102
vn -0.5465 -0.8243 0.1477
vn -0.7015 -0.6701 0.2427
vn -0.5272 -0.8479 -0.0567
vn -0.6912 -0.7223 0.0240
vn -0.4617 -0.8686 -0.1797
vn -0.6070 -0.7275 -0.3198
vn -0.4092 -0.8685 -0.2798
vn -0.3714 -0.6762 -0.6363
vn -0.4709 -0.6765 -0.5662
vn -0.1031 -0.6862 -0.7201
vn -0.1613 -0.6732 -0.7216
vn 0.0647 -0.7239 -0.6869
vn -0.3508 -0.6536 -0.6707
vn 0.3629 -0.7701 -0.5247
vn -0.1133 -0.6927 -0.7122
vn 0.3432 -0.9009 -0.2659
vn 0.0727 -0.8690 -0.4894
vn 0.8473 -0.5174 0.1196
vn 0.5108 -0.8264 -0.2371
vn 0.8232 -0.5637 0.0680
vn 0.8100 -0.4420 0.3854
vn 0.6816 -0.7239 0.1066
vn 0.6511 -0.6923 0.3110
vn 0.6366 -0.4120 0.6519
vn 0.6886 -0.6702 0.2768
vn 0.4457 -0.5900 0.6732
vn 0.6193 -0.6036 0.5022
vn 0.3573 -0.4191 0.8347
vn -0.4343 0.8841 -0.1723
vn -0.2342 0.9438 -0.2332
vn -0.2794 0.8427 -0.4602
vn -0.1228 0.8177 -0.5624
vn 0.0677 0.8649 -0.4973
vn 0.1985 0.7136 -0.6719
vn -0.2743 0.9616 0.0113
vn -0.0592 0.9981 0.0161
vn 0.2054 0.9474 -0.2454
vn 0.3032 0.8395 -0.4508
vn -0.1777 0.9817 0.0682
vn -0.0410 0.9980 0.0490
vn 0.1832 0.9687 -0.1675
vn 0.2962 0.8865 -0.3555
vn -0.0874 0.9825 0.1643
vn -0.1195 0.9883 0.0952
vn 0.2426 0.9698 0.0233
vn 0.3536 0.9203 -0.1675
vn 0.2919 0.9108 -0.2918
vn 0.0081 0.9566 0.2914
vn 0.0253 0.9843 0.1750
vn 0.2651 0.9407 0.2114
vn 0.4417 0.8952 0.0590
vn 0.0873 0.2457 0.9654
vn 0.4707 -0.0076 0.8822
vn 0.4532 0.1894 0.8711
vn 0.7535 -0.0166 0.6572
vn 0.7533 0.1846 0.6312
vn 0.9417 -0.0444 0.3336
vn 0.9319 0.1348 0.3366
vn 0.9840 -0.1573 0.0839
vn 0.9977 0.0307 0.0597
vn 0.9813 -0.1860 -0.0489
vn 0.9941 -0.0059 -0.1079
vn 0.7627 -0.1899 -0.6182
vn 0.5779 -0.4239 -0.6974
vn 0.5627 -0.2668 -0.7824
vn 0.2213 -0.4606 -0.8596
vn 0.1685 -0.3767 -0.9109
vn -0.0524 -0.4797 -0.8759
vn -0.0796 -0.4424 -0.8933
vn -0.2051 -0.4779 -0.8542
vn -0.2651 -0.4143 -0.8707
vn -0.5242 -0.3887 -0.7577
vn -0.5732 -0.2728 -0.7727
vn -0.8268 -0.1828 -0.5319
vn -0.8107 -0.3444 -0.4734
vn -0.9850 -0.0913 -0.1467
vn -0.9436 -0.3286 -0.0403
vn -0.9440 -0.0372 0.3278
vn -0.8922 -0.2783 0.3557
vn -0.7292 0.0773 0.6799
vn -0.6940 0.1115 0.7113
vn -0.3692 0.1948 0.9087
vn -0.4095 -0.0598 0.9104
vn 0.0491 0.0045 0.9988
vn 0.7313 -0.3934 -0.5571
vn -0.6905 -0.4219 0.5876
vn 0.3426 0.3028 0.8894
vn 0.0064 0.4674 0.8840
vn 0.3375 0.4138 0.8455
vn 0.7995 0.2735 0.5347
vn 0.9305 0.2023 0.3053
vn 0.9407 0.1664 0.2957
vn -0.9540 -0.1613 -0.2526
vn -0.9109 -0.2005 -0.3607
vn -0.9365 -0.0878 -0.3396
vn -0.3380 -0.4676 -0.8168
vn 0.9979 0.0642 0.0027
vn 0.9994 -0.0213 -0.0274
vn -0.9766 -0.0019 0.2149
vn -0.9878 0.0546 0.1461
vn -0.9895 0.1386 0.0404
vn -0.5669 -0.4514 -0.6891
vn 0.9764 -0.0613 -0.2069
vn 0.9863 -0.1214 -0.1115
vn -0.2938 0.5811 0.7590
vn -0.1741 0.6517 0.7382
vn -0.1140 0.1234 -0.9858
vn 0.7007 0.7135 -0.0019
vn 0.6249 0.7173 -0.3081
vn 0.7268 0.6852 -0.0483
vn -0.5448 0.8327 0.0988
vn -0.4928 0.7994 -0.3436
vn -0.4906 0.7969 -0.3527
vn 0.5550 0.4847 -0.6761
vn 0.4377 0.6335 0.6381
vn 0.7236 0.4948 0.4812
vn 0.5557 0.4456 0.7018
vn -0.4493 0.7262 0.5204
vn -0.3343 0.6703 0.6625
vn -0.5275 0.3121 -0.7901
vn -0.3514 0.2951 -0.8885
vn -0.5166 0.2764 -0.8104
vn 0.1823 0.5349 0.8250
vn 0.6761 0.7260 0.1257
vn 0.6593 0.7331 -0.1668
vn -0.1734 0.2875 -0.9419
vn 0.7966 0.5915 -0.1246
vn -0.5147 0.8367 0.1871
vn -0.4589 0.8122 0.3602
vn -0.5201 0.8378 0.1665
vn -0.0679 0.2940 -0.9534
vn -0.2515 0.2923 -0.9227
vn 0.6682 0.7212 0.1830
vn 0.5795 0.6994 0.4183
vn 0.1350 -0.4418 -0.8869
vn -0.0113 -0.4495 -0.8932
vn -0.8861 -0.2776 -0.3712
vn -0.7537 -0.3627 -0.5481
vn 0.5944 0.3156 0.7397
vn -0.0112 0.2506 0.9680
vn 0.6899 -0.3322 -0.6432
vn 0.6323 -0.2863 -0.7199
vn 0.7213 -0.3585 -0.5927
vn -0.7266 -0.3932 -0.5635
vn -0.6802 0.1031 0.7258
vn -0.7026 0.1409 0.6975
vn -0.7487 0.2308 0.6214
vn -0.1322 0.8402 -0.5259
vn 0.0829 0.7639 -0.6400
vn 0.0894 0.7613 -0.6422
vn 0.3244 0.7251 -0.6075
vn 0.3192 0.7305 -0.6037
vn 0.6186 0.6166 -0.4868
vn 0.6457 0.5988 -0.4738
vn 0.7989 0.5139 -0.3124
vn 0.8082 0.4989 -0.3131
vn 0.4862 0.6027 0.6327
vn 0.7151 0.4488 0.5360
vn 0.4149 0.6490 0.6377
vn 0.1484 0.8990 0.4120
vn 0.1319 0.9174 0.3755
vn 0.1485 0.9695 0.1948
vn 0.1466 0.9719 0.1839
vn 0.2032 0.9490 0.2413
vn 0.2033 0.9461 0.2522
vn 0.1688 0.9046 0.3913
vn 0.1643 0.8940 0.4168
vn -0.0560 0.8022 0.5945
vn -0.0997 0.7852 0.6111
vn -0.3355 0.7067 0.6229
vn -0.3518 0.6867 0.6361
vn -0.7225 0.6756 0.1470
vn -0.7408 0.6696 -0.0536
vn -0.7443 0.6656 -0.0552
vn -0.6310 0.6503 -0.4229
vn -0.6182 0.6598 -0.4272
vn -0.4162 0.6871 -0.5956
vn -0.3995 0.6990 -0.5931
vn -0.2593 0.7929 -0.5514
vn -0.2507 0.8012 -0.5434
vn -0.1286 0.8459 -0.5176
vn -0.2463 0.8890 0.3859
vn -0.6035 0.6045 -0.5199
vn -0.2993 -0.9062 0.2987
vn -0.6980 0.5588 0.4478
vn 0.1188 -0.1360 0.9836
vn -0.5286 -0.6914 0.4926
vn 0.4899 -0.8122 0.3167
vn 0.0048 -0.4357 0.9001
vn 0.3156 -0.6676 -0.6743
vn 0.2182 -0.3555 0.9089
vn 0.4541 -0.8201 -0.3482
vn 0.2342 -0.3201 0.9180
vn -0.1331 0.5330 0.8356
vn -0.6457 0.3818 0.6613
vn 0.1471 -0.8631 -0.4832
vn 0.4858 -0.8227 -0.2953
vn 0.1542 0.9566 0.2471
vn 0.7009 -0.5587 -0.4433
vn -0.9512 -0.0735 0.2998
vn -0.6439 0.3566 -0.6769
vn -0.5444 0.8295 0.1248
vn -0.0255 0.4193 -0.9075
vn -0.3109 0.6608 0.6831
vn -0.6540 0.7254 -0.2146
vn 0.3658 0.6155 -0.6980
vn 0.1670 0.5555 0.8146
vn -0.4573 0.8112 0.3644
vn -0.2388 0.3122 -0.9195
vn 0.1023 -0.4050 -0.9086
vn -0.1450 0.1523 0.9776
vn 0.5936 -0.2566 -0.7627
vn -0.6187 0.0109 0.7855
vn 0.7457 0.4006 0.5325
vn -0.7234 0.6746 0.1471
vt 1.000000 0.875000
vt 0.937500 1.000000
vt 0.937500 0.875000
vt 0.875000 1.000000
vt 0.875000 0.875000
vt 0.812500 1.000000
vt 0.812500 0.875000
vt 0.750000 1.000000
vt 0.750000 0.875000
vt 0.687500 1.000000
vt 0.687500 0.875000
vt 0.625000 1.000000
vt 0.625000 0.875000
vt 0.562500 1.000000
vt 0.562500 0.875000
vt 0.500000 1.000000
vt 0.500000 0.875000
vt 0.437500 0.875000
vt 0.437500 1.000000
vt 0.375000 0.875000
vt 0.375000 1.000000
vt 0.312500 0.875000
vt 0.312500 1.000000
vt 0.250000 0.875000
vt 0.250000 1.000000
vt 0.187500 0.875000
vt 0.187500 1.000000
vt 0.125000 0.875000
vt 0.062500 1.000000
vt 0.062500 0.875000
vt 0.000000 1.000000
vt 0.000000 0.875000
vt 0.687500 0.500000
vt 0.568314 0.500000
vt 0.750000 0.500000
vt 0.562500 0.500000
vt 0.625000 0.500000
vt 0.500000 0.500000
vt 0.502907 0.500000
vt 0.538461 0.500000
vt 0.812500 0.500000
vt 0.437500 0.500000
vt 0.456731 0.500000
vt 0.495192 0.500000
vt 0.875000 0.500000
vt 0.375000 0.500000
vt 0.403846 0.500000
vt 0.937500 0.500000
vt 0.324128 0.500000
vt 0.398256 0.500000
vt 0.250000 0.500000
vt 1.000000 0.500000
vt 0.125000 0.500000
vt 0.062500 0.500000
vt 0.187500 0.500000
vt 0.062500 0.750000
vt 0.000000 0.500000
vt 0.125000 0.750000
vt 0.187500 0.750000
vt 0.250000 0.750000
vt 0.312500 0.750000
vt 0.312500 0.500000
vt 0.375000 0.750000
vt 0.437500 0.750000
vt 0.500000 0.750000
vt 0.562500 0.750000
vt 0.625000 0.750000
vt 0.687500 0.750000
vt 0.750000 0.750000
vt 0.812500 0.750000
vt 0.875000 0.750000
vt 1.000000 0.750000
vt 0.000000 0.750000
vt 0.937500 0.750000
vt 0.250000 0.490000
vt 0.341844 0.471731
vt 0.028269 0.341844
vt 0.080294 0.419706
vt 0.490000 0.250000
vt 0.471731 0.158156
vt 0.250000 0.010000
vt 0.158156 0.028269
vt 0.010000 0.250000
vt 0.471731 0.341844
vt 0.341844 0.028269
vt 0.028269 0.158156
vt 0.158156 0.471731
vt 1.000000 1.000000
vt 0.125000 1.000000
vt 0.080294 0.080294
vt 0.419706 0.080294
vt 0.419706 0.419706
s 1
f 57/1/1 4/2/2 58/3/3
f 58/3/3 6/4/4 59/5/5
f 59/5/5 8/6/6 60/7/7
f 60/7/7 10/8/8 61/9/9
f 61/9/9 12/10/10 62/11/11
f 62/11/11 14/12/12 63/13/13
f 63/13/13 16/14/14 64/15/15
f 64/15/15 18/16/16 65/17/17
f 18/16/16 66/18/18 65/17/17
f 20/19/19 67/20/20 66/18/18
f 22/21/21 68/22/22 67/20/20
f 24/23/23 69/24/24 68/22/25
f 26/25/26 70/26/27 69/24/24
f 28/27/28 71/28/29 70/26/27
f 71/28/29 32/29/30 72/30/31
f 72/30/31 2/31/32 57/32/1
f 11/33/33 33/34/34 9/35/35
f 15/36/36 33/34/34 13/37/37
f 17/38/38 37/39/39 15/36/36
f 9/35/35 34/40/40 7/41/41
f 37/39/39 34/40/40 33/34/34
f 19/42/42 38/43/43 37/39/39
f 7/41/41 35/44/44 5/45/45
f 38/43/43 35/44/44 34/40/40
f 21/46/46 39/47/47 38/43/43
f 35/44/44 3/48/48 5/45/45
f 35/44/44 40/49/49 36/50/50
f 39/47/47 25/51/51 40/49/49
f 36/50/50 1/52/52 3/48/48
f 36/50/50 29/53/53 31/54/54
f 40/49/49 27/55/55 29/53/53
f 56/56/56 1/57/57 31/54/58
f 55/58/59 31/54/58 29/53/60
f 54/59/61 29/53/60 27/55/62
f 53/60/63 27/55/62 25/51/64
f 52/61/65 25/51/64 23/62/66
f 51/63/67 23/62/68 21/46/69
f 50/64/70 21/46/69 19/42/71
f 49/65/72 19/42/71 17/38/73
f 48/66/74 17/38/73 15/36/75
f 47/67/76 15/36/75 13/37/77
f 11/33/78 47/67/76 13/37/77
f 9/35/79 46/68/80 11/33/78
f 7/41/81 45/69/82 9/35/79
f 5/45/83 44/70/84 7/41/81
f 3/48/85 43/71/86 5/45/83
f 41/72/87 3/48/85 1/52/57
f 72/30/31 41/73/87 56/56/56
f 71/28/29 56/56/56 55/58/59
f 70/26/27 55/58/59 54/59/61
f 69/24/24 54/59/61 53/60/63
f 68/22/25 53/60/63 52/61/65
f 67/20/20 52/61/88 51/63/67
f 66/18/18 51/63/67 50/64/70
f 65/17/17 50/64/70 49/65/72
f 64/15/15 49/65/72 48/66/74
f 63/13/13 48/66/74 47/67/76
f 46/68/80 63/13/13 47/67/76
f 45/69/82 62/11/11 46/68/80
f 44/70/84 61/9/9 45/69/82
f 43/71/89 60/7/7 44/70/84
f 42/74/90 59/5/5 43/71/89
f 57/1/1 42/74/90 41/72/87
f 2/75/91 73/76/92 4/76/93
f 86/77/94 30/78/95 28/77/96
f 10/79/97 78/80/98 12/80/99
f 81/81/100 20/82/19 18/81/16
f 85/83/101 28/77/96 26/83/102
f 8/84/103 77/79/104 10/79/97
f 16/85/14 81/81/100 18/81/16
f 84/86/105 26/83/102 24/86/106
f 89/2/107 75/4/108 73/2/92
f 79/12/109 96/14/110 80/14/111
f 84/23/112 101/25/113 85/25/114
f 77/8/115 94/10/116 78/10/117
f 98/19/118 83/21/119 82/19/120
f 87/78/121 104/87/122 88/87/123
f 91/4/124 76/6/125 75/4/108
f 80/14/111 97/16/126 81/16/127
f 90/88/128 73/2/92 74/88/129
f 85/25/114 102/27/130 86/27/94
f 78/10/131 95/12/131 79/12/131
f 99/21/132 84/23/112 83/21/133
f 74/75/129 104/87/122 90/75/128
f 92/6/134 77/8/135 76/6/136
f 97/16/126 82/19/137 81/16/127
f 86/27/94 103/89/138 87/89/121
f 82/82/139 22/90/21 20/82/19
f 12/80/99 79/91/140 14/91/141
f 32/29/142 87/89/121 88/29/123
f 4/76/93 75/92/108 6/92/143
f 83/90/144 24/86/145 22/90/146
f 14/91/141 80/85/147 16/85/14
f 2/31/91 88/29/123 74/31/129
f 6/92/148 76/84/125 8/84/149
f 161/1/150 108/2/151 106/88/152
f 162/3/153 110/4/154 108/2/151
f 163/5/155 112/6/156 110/4/154
f 164/7/157 114/8/158 112/6/156
f 165/9/159 116/10/160 114/8/158
f 166/11/161 118/12/162 116/10/160
f 167/13/163 120/14/164 118/12/162
f 169/17/165 120/14/164 168/15/166
f 170/18/167 122/16/168 169/17/165
f 171/20/169 124/19/170 170/18/167
f 172/22/171 126/21/172 171/20/169
f 173/24/173 128/23/174 172/22/175
f 174/26/176 130/25/177 173/24/178
f 175/28/179 132/27/180 174/26/176
f 175/28/179 136/29/181 134/89/182
f 176/30/183 106/31/152 136/29/181
f 115/33/184 137/34/185 117/37/186
f 137/34/185 119/36/187 117/37/186
f 141/39/188 121/38/189 119/36/187
f 113/35/190 138/40/191 137/34/185
f 138/40/191 141/39/188 137/34/185
f 142/43/192 123/42/193 141/39/188
f 111/41/194 139/44/195 138/40/191
f 139/44/195 142/43/192 138/40/191
f 143/47/196 125/46/197 142/43/192
f 107/48/198 139/44/195 109/45/199
f 139/44/195 144/49/200 143/47/196
f 143/47/196 129/51/201 127/62/202
f 105/52/203 140/50/204 107/48/198
f 140/50/204 133/53/205 144/49/200
f 144/49/200 131/55/206 129/51/201
f 105/57/207 160/56/208 135/54/209
f 135/54/209 159/58/210 133/53/211
f 133/53/211 158/59/212 131/55/213
f 131/55/213 157/60/214 129/51/215
f 129/51/215 156/61/216 127/62/217
f 127/62/218 155/63/219 125/46/220
f 125/46/220 154/64/221 123/42/222
f 123/42/222 153/65/223 121/38/224
f 121/38/224 152/66/225 119/36/226
f 119/36/226 151/67/227 117/37/228
f 115/33/229 151/67/227 150/68/230
f 113/35/231 150/68/230 149/69/232
f 111/41/233 149/69/232 148/70/234
f 109/45/235 148/70/234 147/71/236
f 107/48/237 147/71/236 146/74/238
f 107/48/237 145/72/239 105/52/207
f 145/73/239 176/30/183 160/56/208
f 160/56/208 175/28/179 159/58/210
f 159/58/210 174/26/176 158/59/212
f 158/59/212 173/24/173 157/60/214
f 157/60/214 172/22/175 156/61/216
f 156/61/240 171/20/169 155/63/219
f 155/63/219 170/18/167 154/64/221
f 154/64/221 169/17/165 153/65/223
f 153/65/223 168/15/166 152/66/225
f 152/66/225 167/13/163 151/67/227
f 150/68/230 167/13/163 166/11/161
f 149/69/232 166/11/161 165/9/159
f 148/70/234 165/9/159 164/7/157
f 147/71/241 164/7/157 163/5/155
f 146/74/238 163/5/155 162/3/153
f 146/74/238 161/1/150 145/72/239
f 106/75/242 177/76/243 178/75/244
f 134/78/245 190/77/246 132/77/247
f 114/79/248 182/80/249 181/79/250
f 124/82/170 185/81/251 122/81/168
f 132/77/247 189/83/252 130/83/253
f 112/84/254 181/79/255 180/84/256
f 122/81/168 184/85/257 120/85/164
f 130/83/253 188/86/258 128/86/259
f 179/4/260 193/2/261 177/2/243
f 183/12/262 200/14/262 199/12/262
f 189/25/263 204/23/264 188/23/265
f 181/8/266 198/10/267 197/8/268
f 187/21/269 202/19/269 186/19/269
f 208/87/270 191/78/271 192/87/272
f 180/6/273 195/4/274 179/4/260
f 184/14/275 201/16/276 200/14/277
f 177/2/243 194/88/278 178/88/244
f 189/25/263 206/27/279 205/25/280
f 182/10/281 199/12/281 198/10/281
f 188/23/282 203/21/282 187/21/282
f 194/75/278 192/87/272 178/75/244
f 181/8/283 196/6/284 180/6/285
f 186/19/286 201/16/276 185/16/287
f 190/27/288 207/89/289 206/27/279
f 126/90/290 186/82/291 124/82/170
f 116/80/292 183/91/293 182/80/249
f 192/29/272 134/89/245 136/29/294
f 108/76/295 179/92/260 177/76/243
f 128/86/296 187/90/297 126/90/298
f 118/91/299 184/85/257 183/91/293
f 178/31/244 136/29/294 106/31/242
f 110/92/300 180/84/301 179/92/302
f 90/88/303 193/2/304 89/2/305
f 91/4/306 193/2/304 195/4/307
f 91/4/306 196/6/308 92/6/309
f 92/6/309 197/8/310 93/8/311
f 94/10/312 197/8/313 198/10/314
f 95/12/315 198/10/314 199/12/316
f 96/14/317 199/12/316 200/14/318
f 96/14/317 201/16/319 97/16/320
f 97/16/320 202/19/321 98/19/322
f 98/19/322 203/21/323 99/21/324
f 99/21/324 204/23/325 100/23/326
f 100/23/327 205/25/328 101/25/329
f 102/27/330 205/25/328 206/27/331
f 103/89/332 206/27/331 207/89/333
f 104/87/334 207/78/333 208/87/335
f 90/75/303 208/87/335 194/75/336
f 57/1/1 2/88/32 4/2/2
f 58/3/3 4/2/2 6/4/4
f 59/5/5 6/4/4 8/6/6
f 60/7/7 8/6/6 10/8/8
f 61/9/9 10/8/8 12/10/10
f 62/11/11 12/10/10 14/12/12
f 63/13/13 14/12/12 16/14/14
f 64/15/15 16/14/14 18/16/16
f 18/16/16 20/19/19 66/18/18
f 20/19/19 22/21/21 67/20/20
f 22/21/21 24/23/337 68/22/22
f 24/23/23 26/25/26 69/24/24
f 26/25/26 28/27/28 70/26/27
f 28/27/28 30/89/338 71/28/29
f 71/28/29 30/89/338 32/29/30
f 72/30/31 32/29/30 2/31/32
f 11/33/33 13/37/37 33/34/34
f 15/36/36 37/39/39 33/34/34
f 17/38/38 19/42/42 37/39/39
f 9/35/35 33/34/34 34/40/40
f 37/39/39 38/43/43 34/40/40
f 19/42/42 21/46/46 38/43/43
f 7/41/41 34/40/40 35/44/44
f 38/43/43 39/47/47 35/44/44
f 21/46/46 23/62/339 39/47/47
f 35/44/44 36/50/50 3/48/48
f 35/44/44 39/47/47 40/49/49
f 39/47/47 23/62/339 25/51/51
f 36/50/50 31/54/54 1/52/52
f 36/50/50 40/49/49 29/53/53
f 40/49/49 25/51/51 27/55/55
f 56/56/56 41/73/87 1/57/57
f 55/58/59 56/56/56 31/54/58
f 54/59/61 55/58/59 29/53/60
f 53/60/63 54/59/61 27/55/62
f 52/61/65 53/60/63 25/51/64
f 51/63/67 52/61/88 23/62/68
f 50/64/70 51/63/67 21/46/69
f 49/65/72 50/64/70 19/42/71
f 48/66/74 49/65/72 17/38/73
f 47/67/76 48/66/74 15/36/75
f 11/33/78 46/68/80 47/67/76
f 9/35/79 45/69/82 46/68/80
f 7/41/81 44/70/84 45/69/82
f 5/45/83 43/71/86 44/70/84
f 3/48/85 42/74/90 43/71/86
f 41/72/87 42/74/90 3/48/85
f 72/30/31 57/32/1 41/73/87
f 71/28/29 72/30/31 56/56/56
f 70/26/27 71/28/29 55/58/59
f 69/24/24 70/26/27 54/59/61
f 68/22/25 69/24/24 53/60/63
f 67/20/20 68/22/340 52/61/88
f 66/18/18 67/20/20 51/63/67
f 65/17/17 66/18/18 50/64/70
f 64/15/15 65/17/17 49/65/72
f 63/13/13 64/15/15 48/66/74
f 46/68/80 62/11/11 63/13/13
f 45/69/82 61/9/9 62/11/11
f 44/70/84 60/7/7 61/9/9
f 43/71/89 59/5/5 60/7/7
f 42/74/90 58/3/3 59/5/5
f 57/1/1 58/3/3 42/74/90
f 2/75/91 74/75/129 73/76/92
f 86/77/94 87/78/121 30/78/95
f 10/79/97 77/79/104 78/80/98
f 81/81/100 82/82/139 20/82/19
f 85/83/101 86/77/94 28/77/96
f 8/84/103 76/84/103 77/79/104
f 16/85/14 80/85/147 81/81/100
f 84/86/105 85/83/101 26/83/102
f 89/2/107 91/4/124 75/4/108
f 79/12/341 95/12/341 96/14/341
f 84/23/112 100/23/342 101/25/113
f 77/8/115 93/8/343 94/10/116
f 98/19/118 99/21/344 83/21/119
f 87/78/121 103/78/138 104/87/122
f 91/4/124 92/6/345 76/6/125
f 80/14/111 96/14/110 97/16/126
f 90/88/128 89/2/107 73/2/92
f 85/25/114 101/25/113 102/27/130
f 78/10/346 94/10/346 95/12/346
f 99/21/132 100/23/342 84/23/112
f 74/75/129 88/87/123 104/87/122
f 92/6/134 93/8/347 77/8/135
f 97/16/126 98/19/348 82/19/137
f 86/27/94 102/27/130 103/89/138
f 82/82/139 83/90/349 22/90/21
f 12/80/99 78/80/98 79/91/140
f 32/29/142 30/89/95 87/89/121
f 4/76/93 73/76/92 75/92/108
f 83/90/144 84/86/350 24/86/145
f 14/91/141 79/91/140 80/85/147
f 2/31/91 32/29/142 88/29/123
f 6/92/148 75/92/108 76/84/125
f 161/1/150 162/3/153 108/2/151
f 162/3/153 163/5/155 110/4/154
f 163/5/155 164/7/157 112/6/156
f 164/7/157 165/9/159 114/8/158
f 165/9/159 166/11/161 116/10/160
f 166/11/161 167/13/163 118/12/162
f 167/13/163 168/15/166 120/14/164
f 169/17/165 122/16/168 120/14/164
f 170/18/167 124/19/170 122/16/168
f 171/20/169 126/21/172 124/19/170
f 172/22/171 128/23/351 126/21/172
f 173/24/173 130/25/352 128/23/174
f 174/26/176 132/27/180 130/25/177
f 175/28/179 134/89/182 132/27/180
f 175/28/179 176/30/183 136/29/181
f 176/30/183 161/32/150 106/31/152
f 115/33/184 113/35/190 137/34/185
f 137/34/185 141/39/188 119/36/187
f 141/39/188 123/42/193 121/38/189
f 113/35/190 111/41/194 138/40/191
f 138/40/191 142/43/192 141/39/188
f 142/43/192 125/46/197 123/42/193
f 111/41/194 109/45/199 139/44/195
f 139/44/195 143/47/196 142/43/192
f 143/47/196 127/62/202 125/46/197
f 107/48/198 140/50/204 139/44/195
f 139/44/195 140/50/204 144/49/200
f 143/47/196 144/49/200 129/51/201
f 105/52/203 135/54/353 140/50/204
f 140/50/204 135/54/353 133/53/205
f 144/49/200 133/53/205 131/55/206
f 105/57/207 145/73/239 160/56/208
f 135/54/209 160/56/208 159/58/210
f 133/53/211 159/58/210 158/59/212
f 131/55/213 158/59/212 157/60/214
f 129/51/215 157/60/214 156/61/216
f 127/62/218 156/61/240 155/63/219
f 125/46/220 155/63/219 154/64/221
f 123/42/222 154/64/221 153/65/223
f 121/38/224 153/65/223 152/66/225
f 119/36/226 152/66/225 151/67/227
f 115/33/229 117/37/228 151/67/227
f 113/35/231 115/33/229 150/68/230
f 111/41/233 113/35/231 149/69/232
f 109/45/235 111/41/233 148/70/234
f 107/48/237 109/45/235 147/71/236
f 107/48/237 146/74/238 145/72/239
f 145/73/239 161/32/150 176/30/183
f 160/56/208 176/30/183 175/28/179
f 159/58/210 175/28/179 174/26/176
f 158/59/212 174/26/176 173/24/173
f 157/60/214 173/24/173 172/22/175
f 156/61/240 172/22/354 171/20/169
f 155/63/219 171/20/169 170/18/167
f 154/64/221 170/18/167 169/17/165
f 153/65/223 169/17/165 168/15/166
f 152/66/225 168/15/166 167/13/163
f 150/68/230 151/67/227 167/13/163
f 149/69/232 150/68/230 166/11/161
f 148/70/234 149/69/232 165/9/159
f 147/71/241 148/70/234 164/7/157
f 146/74/238 147/71/241 163/5/155
f 146/74/238 162/3/153 161/1/150
f 106/75/242 108/76/295 177/76/243
f 134/78/245 191/78/271 190/77/246
f 114/79/248 116/80/292 182/80/249
f 124/82/170 186/82/291 185/81/251
f 132/77/247 190/77/246 189/83/252
f 112/84/254 114/79/355 181/79/255
f 122/81/168 185/81/251 184/85/257
f 130/83/253 189/83/252 188/86/258
f 179/4/260 195/4/274 193/2/261
f 183/12/356 184/14/275 200/14/277
f 189/25/263 205/25/280 204/23/264
f 181/8/266 182/10/357 198/10/267
f 187/21/358 203/21/358 202/19/358
f 208/87/270 207/78/289 191/78/271
f 180/6/273 196/6/359 195/4/274
f 184/14/275 185/16/287 201/16/276
f 177/2/243 193/2/261 194/88/278
f 189/25/263 190/27/288 206/27/279
f 182/10/360 183/12/360 199/12/360
f 188/23/361 204/23/361 203/21/361
f 194/75/278 208/87/362 192/87/272
f 181/8/283 197/8/363 196/6/284
f 186/19/286 202/19/364 201/16/276
f 190/27/288 191/89/271 207/89/289
f 126/90/290 187/90/365 186/82/291
f 116/80/292 118/91/299 183/91/293
f 192/29/272 191/89/271 134/89/245
f 108/76/295 110/92/366 179/92/260
f 128/86/296 188/86/367 187/90/297
f 118/91/299 120/85/164 184/85/257
f 178/31/244 192/29/272 136/29/294
f 110/92/300 112/84/368 180/84/301
f 90/88/303 194/88/336 193/2/304
f 91/4/306 89/2/305 193/2/304
f 91/4/306 195/4/307 196/6/308
f 92/6/309 196/6/308 197/8/310
f 94/10/312 93/8/369 197/8/313
f 95/12/315 94/10/312 198/10/314
f 96/14/317 95/12/315 199/12/316
f 96/14/317 200/14/318 201/16/319
f 97/16/320 201/16/319 202/19/321
f 98/19/322 202/19/321 203/21/323
f 99/21/324 203/21/323 204/23/325
f 100/23/327 204/23/370 205/25/328
f 102/27/330 101/25/329 205/25/328
f 103/89/332 102/27/330 206/27/331
f 104/87/334 103/78/332 207/78/333
f 90/75/303 104/87/334 208/87/335
