# Blender 4.0.2
# www.blender.org
mtllib BoxSpring.mtl
o BoxSpring.001
v -0.392650 0.016055 1.087956
v -0.491024 0.013611 0.983821
v -0.463346 0.007475 1.061793
v -0.492738 0.209234 0.979017
v -0.393171 0.204980 1.082868
v -0.464758 0.210770 1.059984
v -0.490203 0.013771 -0.981191
v -0.397252 0.009428 -1.087052
v -0.460704 0.000000 -1.057209
v -0.393145 0.199883 -1.091097
v -0.492356 0.199573 -0.983661
v -0.459218 0.205950 -1.059600
v 0.490795 0.015649 0.982728
v 0.398031 0.006325 1.085541
v 0.416077 0.014562 -0.991445
v 0.464859 0.007859 1.060381
v 0.391494 0.204341 1.091740
v 0.490038 0.199136 0.982607
v -0.420705 0.206387 -0.996284
v 0.466387 0.209450 1.058885
v -0.418944 0.007001 -0.989757
v 0.391561 0.002588 -1.086881
v 0.414764 0.008783 0.993057
v 0.493005 0.007072 -0.982436
v -0.421898 0.006655 0.994142
v 0.461918 0.003932 -1.052873
v 0.422933 0.209294 -0.994453
v 0.490780 0.200164 -0.983284
v -0.416939 0.201340 0.995605
v 0.395753 0.210240 -1.091672
v 0.417478 0.210599 0.990082
v 0.463180 0.205592 -1.061308
vn -0.9425 -0.0036 0.3343
vn 0.4015 0.0038 0.9158
vn -0.9159 -0.0159 -0.4010
vn 0.9549 -0.0050 0.2968
vn 0.0027 -0.0312 0.9995
vn -1.0000 -0.0088 -0.0004
vn -0.0000 -0.0212 -0.9998
vn -0.4310 -0.0099 -0.9023
vn 0.9421 -0.0199 -0.3347
vn 0.4087 -0.0293 -0.9122
vn 1.0000 0.0041 0.0011
vn -0.3477 0.0059 0.9376
vn -0.0866 0.9952 0.0458
vn -0.1071 -0.9900 0.0914
vn 0.1031 0.9947 0.0023
vn 0.0092 -0.9925 0.1222
vn -0.0033 0.9976 -0.0694
vn 0.0895 -0.9960 -0.0028
vn 0.1561 0.9877 0.0006
vn 0.0946 -0.9930 0.0700
vn -0.0463 0.9977 0.0496
vn -0.1001 -0.9950 -0.0003
vn -0.0111 0.9999 0.0026
vn -0.0757 -0.9859 0.1492
vn 0.1296 0.9913 0.0231
vn 0.0025 -1.0000 -0.0002
vn 0.0139 -0.9996 -0.0241
vn -0.0124 -0.9995 -0.0288
vn 0.0001 0.9981 0.0615
vn 0.1024 0.9923 -0.0693
vn -0.9452 -0.0003 0.3266
vn 0.3526 -0.0176 0.9356
vn -0.9321 0.0025 -0.3622
vn 0.9484 0.0041 0.3172
vn -0.0113 0.0269 0.9996
vn -0.9999 -0.0116 -0.0001
vn -0.0004 -0.0231 -0.9997
vn -0.4247 -0.0074 -0.9053
vn 0.9147 0.0088 -0.4041
vn 0.4355 -0.0403 -0.8993
vn 0.9999 0.0115 0.0004
vn -0.3026 0.0248 0.9528
vn 0.0684 0.9965 -0.0485
vn -0.0469 -0.9896 0.1362
vn -0.0955 0.9954 -0.0049
vn -0.0087 -0.9996 -0.0269
vn -0.0131 0.9998 0.0134
vn -0.0974 -0.9952 0.0042
vn 0.1334 0.9911 -0.0003
vn -0.0933 -0.9946 -0.0451
vn 0.1466 0.9853 -0.0878
vn -0.0946 -0.9955 -0.0001
vn -0.0034 1.0000 -0.0007
vn 0.1511 -0.9885 0.0090
vn 0.0736 0.9972 -0.0109
vn 0.0090 -1.0000 -0.0029
vn 0.0798 -0.9941 -0.0731
vn 0.0027 -0.9951 0.0989
vn -0.0113 0.9992 -0.0386
vn 0.1162 0.9915 -0.0589
vt 0.590032 0.000000
vt 0.409968 0.012034
vt 0.409968 0.000000
vt 0.590032 0.774565
vt 0.409968 0.750000
vt 0.590032 0.750000
vt 0.590032 0.250000
vt 0.409968 0.237966
vt 0.590032 0.237966
vt 0.590032 0.737966
vt 0.409968 0.975435
vt 0.409968 0.774565
vt 0.590032 0.012034
vt 0.590032 0.274565
vt 0.409968 0.475435
vt 0.409968 0.274565
vt 0.590032 0.512034
vt 0.409968 0.500000
vt 0.590032 0.500000
vt 0.590032 0.475435
vt 0.409968 0.512034
vt 0.409968 0.737966
vt 0.590032 1.000000
vt 0.409968 1.000000
vt 0.590032 0.418755
vt 0.409968 0.497912
vt 0.590032 0.497912
vt 0.409968 0.418755
vt 0.409968 0.585422
vt 0.590032 0.585422
vt 0.409968 0.497912
vt 0.409968 0.250000
vt 0.590032 0.975435
s 0
f 6/1/1 2/2/1 3/3/1
f 17/4/2 16/5/2 20/6/2
f 12/7/3 7/8/3 11/9/3
f 16/5/4 18/10/4 20/6/4
f 17/4/5 1/11/5 14/12/5
f 4/13/6 7/8/6 2/2/6
f 10/14/7 22/15/7 8/16/7
f 8/16/8 12/7/8 10/14/8
f 28/17/9 26/18/9 32/19/9
f 32/19/10 22/15/10 30/20/10
f 24/21/11 18/10/11 13/22/11
f 1/11/12 6/23/12 3/24/12
f 19/25/13 12/7/13 11/9/13
f 15/26/14 26/18/14 24/21/14
f 19/25/15 4/13/15 29/27/15
f 21/28/16 22/15/16 15/26/16
f 27/27/17 10/14/17 19/25/17
f 15/26/18 13/22/18 23/29/18
f 28/17/19 31/30/19 18/10/19
f 3/24/20 25/31/20 1/11/20
f 20/6/21 31/30/21 17/4/21
f 2/2/22 21/28/22 25/31/22
f 31/30/23 19/25/23 29/27/23
f 9/32/24 21/28/24 7/8/24
f 32/19/25 27/27/25 28/17/25
f 21/28/26 23/29/26 25/31/26
f 23/29/27 16/5/27 14/12/27
f 1/11/28 23/29/28 14/12/28
f 31/30/29 5/33/29 17/4/29
f 29/27/30 6/23/30 5/33/30
f 6/1/31 4/13/31 2/2/31
f 17/4/32 14/12/32 16/5/32
f 12/7/33 9/32/33 7/8/33
f 16/5/34 13/22/34 18/10/34
f 17/4/35 5/33/35 1/11/35
f 4/13/36 11/9/36 7/8/36
f 10/14/37 30/20/37 22/15/37
f 8/16/38 9/32/38 12/7/38
f 28/17/39 24/21/39 26/18/39
f 32/19/40 26/18/40 22/15/40
f 24/21/41 28/17/41 18/10/41
f 1/11/42 5/33/42 6/23/42
f 19/25/43 10/14/43 12/7/43
f 15/26/44 22/15/44 26/18/44
f 19/25/45 11/9/45 4/13/45
f 21/28/46 8/16/46 22/15/46
f 27/27/47 30/20/47 10/14/47
f 15/26/48 24/21/48 13/22/48
f 28/17/49 27/27/49 31/30/49
f 3/24/50 2/2/50 25/31/50
f 20/6/51 18/10/51 31/30/51
f 2/2/52 7/8/52 21/28/52
f 31/30/53 27/27/53 19/25/53
f 9/32/54 8/16/54 21/28/54
f 32/19/55 30/20/55 27/27/55
f 21/28/56 15/26/56 23/29/56
f 23/29/57 13/22/57 16/5/57
f 1/11/58 25/31/58 23/29/58
f 31/30/59 29/27/59 5/33/59
f 29/27/60 4/13/60 6/23/60
