# Blender 4.0.2
# www.blender.org
mtllib CutleryFork.mtl
o CutleryFork
v 0.006923 -0.001498 -0.122873
v 0.004052 -0.000020 -0.117805
v 0.008050 0.003548 -0.028143
v 0.008620 0.003726 -0.019817
v 0.008490 0.003214 -0.014344
v 0.006268 0.001404 -0.004254
v 0.000000 0.000403 0.000000
v 0.006058 0.004673 -0.072705
v 0.000000 -0.001499 -0.122873
v 0.000000 -0.000020 -0.117805
v 0.000000 0.001560 -0.028143
v 0.000000 0.001738 -0.019817
v 0.000000 0.001225 -0.014344
v 0.000000 -0.000584 -0.004254
v 0.000000 0.004673 -0.072705
v 0.004052 0.005810 -0.117805
v 0.008050 0.008450 -0.028138
v 0.008620 0.008625 -0.019637
v 0.008490 0.008074 -0.013699
v 0.006268 0.006217 -0.003323
v 0.000000 0.005175 0.001123
v 0.006058 0.009574 -0.072840
v 0.000000 0.005810 -0.117805
v 0.000000 0.009888 -0.028134
v 0.000000 0.010064 -0.019641
v 0.000000 0.009509 -0.013683
v 0.000000 0.007643 -0.003260
v 0.000000 0.009574 -0.072847
v 0.006923 0.004174 -0.122873
v 0.000000 0.004174 -0.122873
v 0.012220 -0.002853 -0.131144
v 0.004319 -0.002854 -0.131144
v 0.012220 0.002300 -0.131144
v 0.004319 0.002300 -0.131144
v 0.000000 -0.002495 -0.126469
v 0.010295 -0.002495 -0.126469
v 0.010295 0.003352 -0.126469
v 0.000000 0.003352 -0.126469
v 0.002670 0.001724 -0.134629
v 0.002670 -0.003571 -0.134629
v 0.006653 -0.003571 -0.134629
v 0.006653 0.001724 -0.134629
v 0.012220 0.001724 -0.134629
v 0.012220 -0.003570 -0.134629
v 0.001516 0.004286 -0.181384
v 0.001516 0.002793 -0.181384
v 0.006685 0.002793 -0.181384
v 0.006685 0.004286 -0.181384
v 0.009322 0.004286 -0.181384
v 0.009322 0.002794 -0.181384
v 0.000000 0.002320 -0.131144
v 0.000000 -0.002873 -0.131144
v 0.000000 0.001743 -0.134629
v 0.000000 -0.003590 -0.134629
v 0.000000 0.004305 -0.181384
v 0.000000 0.002773 -0.181384
v -0.006923 -0.001498 -0.122873
v -0.004052 -0.000020 -0.117805
v -0.008050 0.003548 -0.028143
v -0.008620 0.003726 -0.019817
v -0.008490 0.003214 -0.014344
v -0.006268 0.001404 -0.004254
v -0.006058 0.004673 -0.072705
v -0.004052 0.005810 -0.117805
v -0.008050 0.008450 -0.028138
v -0.008620 0.008625 -0.019637
v -0.008490 0.008074 -0.013699
v -0.006268 0.006217 -0.003323
v -0.006058 0.009574 -0.072840
v -0.006923 0.004174 -0.122873
v -0.012220 -0.002853 -0.131144
v -0.004319 -0.002854 -0.131144
v -0.012220 0.002300 -0.131144
v -0.004319 0.002300 -0.131144
v -0.010295 -0.002495 -0.126469
v -0.010295 0.003352 -0.126469
v -0.002670 0.001724 -0.134629
v -0.002670 -0.003571 -0.134629
v -0.006653 -0.003571 -0.134629
v -0.006653 0.001724 -0.134629
v -0.012220 0.001724 -0.134629
v -0.012220 -0.003570 -0.134629
v -0.001516 0.004286 -0.181384
v -0.001516 0.002793 -0.181384
v -0.006685 0.002793 -0.181384
v -0.006685 0.004286 -0.181384
v -0.009322 0.004286 -0.181384
v -0.009322 0.002794 -0.181384
v 0.006669 -0.000390 -0.158006
v 0.006669 -0.003784 -0.158006
v 0.010771 -0.000390 -0.158006
v 0.010771 -0.003783 -0.158006
v 0.002093 -0.000390 -0.158004
v 0.002093 -0.003784 -0.158004
v 0.000000 -0.003803 -0.158004
v 0.000000 -0.000370 -0.158004
v -0.002093 -0.000390 -0.158004
v -0.002093 -0.003784 -0.158004
v -0.006669 -0.000390 -0.158004
v -0.006669 -0.003784 -0.158004
v -0.010771 -0.000390 -0.158004
v -0.010771 -0.003783 -0.158004
v -0.006661 -0.003703 -0.146389
v -0.006661 0.000635 -0.146389
v -0.011491 0.000635 -0.146389
v -0.011491 -0.003702 -0.146389
v 0.000000 -0.003729 -0.146316
v 0.000000 0.000655 -0.146316
v 0.002382 0.000635 -0.146316
v 0.002382 -0.003709 -0.146316
v -0.002382 0.000635 -0.146316
v -0.002382 -0.003709 -0.146316
v 0.006661 -0.003709 -0.146317
v 0.006661 0.000635 -0.146317
v 0.011496 0.000635 -0.146317
v 0.011496 -0.003708 -0.146317
v 0.006677 0.001788 -0.169695
v 0.010047 0.001788 -0.169695
v 0.010047 -0.000655 -0.169695
v 0.006677 -0.000656 -0.169695
v 0.001805 0.001788 -0.169694
v 0.001805 -0.000656 -0.169694
v -0.001805 0.001788 -0.169694
v -0.001805 -0.000656 -0.169694
v 0.000000 -0.000675 -0.169694
v 0.000000 0.001807 -0.169694
v -0.006677 0.001788 -0.169694
v -0.010047 0.001788 -0.169694
v -0.010047 -0.000655 -0.169694
v -0.006677 -0.000656 -0.169694
vn -0.0000 -0.9791 0.2035
vn -0.0000 -0.9999 0.0170
vn -0.0000 -0.9813 0.1926
vn 0.2358 -0.9718 -0.0104
vn -0.0000 -0.9992 -0.0393
vn -0.0000 -1.0000 -0.0089
vn 0.0142 -0.9998 0.0164
vn 0.2673 -0.9520 -0.1492
vn -0.0000 -0.9928 -0.1194
vn 0.2257 -0.9687 -0.1037
vn 0.2246 -0.9736 -0.0405
vn -0.0000 -0.9619 0.2735
vn 0.0001 -0.9625 0.2712
vn 0.0001 0.9776 -0.2104
vn -0.0000 0.9990 -0.0453
vn 0.0102 0.9990 -0.0428
vn 0.1729 0.9849 -0.0052
vn -0.0000 0.9995 0.0330
vn 0.1652 0.9857 0.0323
vn -0.0000 1.0000 -0.0028
vn -0.0000 0.9893 0.1457
vn 0.1962 0.9625 0.1872
vn 0.1652 0.9751 0.1479
vn -0.0000 0.9642 -0.2652
vn -0.0000 0.9683 -0.2497
vn 0.8701 -0.0000 0.4930
vn 0.8149 -0.0000 0.5796
vn 0.9990 -0.0011 -0.0445
vn 0.9984 0.0004 -0.0563
vn 0.9984 0.0001 -0.0565
vn 0.9997 -0.0001 -0.0225
vn 0.9997 0.0008 -0.0226
vn 0.9934 -0.0147 0.1140
vn 0.9932 -0.0170 0.1152
vn 0.9776 -0.0366 0.2071
vn 0.9773 -0.0402 0.2080
vn 0.5827 -0.1659 0.7956
vn 0.5781 -0.1755 0.7969
vn 0.5719 -0.1879 0.7985
vn 0.9990 -0.0001 -0.0444
vn 0.9990 -0.0012 -0.0445
vn 0.0001 -0.9910 0.1340
vn 0.0017 -0.9919 0.1274
vn 0.0001 -0.9890 0.1481
vn 0.8496 -0.0000 0.5274
vn 0.9763 -0.0000 0.2166
vn 0.8288 -0.0000 0.5595
vn -0.0000 0.9754 -0.2205
vn 0.0017 0.9805 -0.1967
vn -0.0000 0.9754 -0.2202
vn 0.7951 -0.0000 0.6065
vn -0.0000 -0.9848 0.1735
vn 0.0125 0.9779 0.2089
vn -0.0000 0.9806 0.1960
vn 0.0106 0.9806 0.1957
vn 0.9039 -0.0000 -0.4278
vn 0.9691 -0.0000 -0.2467
vn -0.0000 -0.9901 0.1407
vn 0.0064 -0.9929 0.1188
vn -0.8309 -0.0000 -0.5564
vn -0.0000 0.9823 -0.1876
vn -0.0000 0.9910 -0.1336
vn 0.9841 -0.0000 0.1779
vn 0.9996 -0.0000 -0.0285
vn 0.0001 -0.9925 0.1220
vn -0.0000 -0.0000 -1.0000
vn 0.9997 -0.0000 -0.0247
vn -0.0000 -0.9626 -0.2708
vn 0.0121 -0.9591 -0.2829
vn 0.0102 -0.9626 -0.2707
vn -1.0000 -0.0000 -0.0007
vn -0.0000 0.9779 0.2090
vn -0.0000 0.9806 0.1961
vn -0.0000 0.9807 0.1956
vn 0.9981 -0.0000 -0.0619
vn 0.0002 -0.9626 -0.2708
vn 0.0003 -0.9591 -0.2829
vn 0.0002 -0.9628 -0.2703
vn 0.0064 0.9911 -0.1333
vn -0.0000 0.9818 -0.1901
vn -0.0142 -0.9998 0.0164
vn -0.2358 -0.9718 -0.0104
vn -0.2246 -0.9736 -0.0405
vn -0.2673 -0.9520 -0.1492
vn -0.2257 -0.9687 -0.1037
vn -0.0001 -0.9625 0.2712
vn -0.0001 0.9776 -0.2104
vn -0.0000 0.9805 -0.1966
vn -0.1729 0.9849 -0.0052
vn -0.0102 0.9990 -0.0428
vn -0.1962 0.9625 0.1872
vn -0.1652 0.9751 0.1479
vn -0.1652 0.9857 0.0323
vn -0.8701 -0.0000 0.4930
vn -0.8149 -0.0000 0.5796
vn -0.7951 -0.0000 0.6065
vn -0.9984 0.0004 -0.0563
vn -0.9990 -0.0011 -0.0445
vn -0.9984 0.0001 -0.0565
vn -0.9997 -0.0001 -0.0225
vn -0.9934 -0.0147 0.1140
vn -0.9932 -0.0170 0.1152
vn -0.9776 -0.0366 0.2071
vn -0.9773 -0.0402 0.2080
vn -0.5781 -0.1755 0.7969
vn -0.5827 -0.1659 0.7956
vn -0.5719 -0.1879 0.7985
vn -0.9990 -0.0001 -0.0444
vn -0.9990 -0.0000 -0.0444
vn -0.0001 -0.9910 0.1340
vn -0.0017 -0.9919 0.1274
vn -0.9763 -0.0000 0.2166
vn -0.8496 -0.0000 0.5274
vn -0.8288 -0.0000 0.5595
vn -0.0017 0.9805 -0.1967
vn -0.0125 0.9779 0.2089
vn -0.0106 0.9806 0.1957
vn -0.9039 -0.0000 -0.4278
vn -0.9691 -0.0000 -0.2467
vn -0.9760 -0.0000 -0.2176
vn -0.0064 -0.9929 0.1188
vn -0.0000 -0.9943 0.1070
vn 0.8309 -0.0000 -0.5564
vn -0.0000 0.9911 -0.1334
vn -0.0000 0.9917 -0.1285
vn -0.9841 -0.0000 0.1779
vn -0.9996 -0.0000 -0.0285
vn -0.9994 -0.0000 -0.0332
vn -0.0001 -0.9890 0.1481
vn -0.0001 -0.9926 0.1218
vn -0.9997 -0.0000 -0.0247
vn -0.0121 -0.9591 -0.2829
vn -0.0000 -0.9591 -0.2829
vn 1.0000 -0.0000 -0.0007
vn -0.9981 -0.0000 -0.0619
vn -0.0002 -0.9627 -0.2707
vn -0.0003 -0.9591 -0.2829
vn -0.0064 0.9911 -0.1333
vn 0.0002 -1.0000 0.0091
vn 0.0002 -0.9925 -0.1220
vn 0.0002 -1.0000 0.0092
vn -0.0000 0.9991 0.0430
vn -0.0000 0.9959 -0.0900
vn -0.0000 0.9959 -0.0902
vn -0.0000 -1.0000 0.0090
vn -0.0091 -0.9921 -0.1253
vn -0.0000 -0.9919 -0.1272
vn -0.0000 0.9959 -0.0901
vn -0.0093 0.9989 0.0461
vn -0.0081 0.9959 -0.0902
vn 0.0091 -0.9921 -0.1253
vn 0.0081 -0.9999 0.0090
vn 0.0093 0.9989 0.0461
vn 0.0081 0.9959 -0.0902
vn -0.0002 -1.0000 0.0091
vn -0.0002 -0.9926 -0.1217
vn -0.0002 -0.9919 -0.1269
vn -0.0000 0.9991 0.0427
vn -0.0002 -1.0000 0.0092
vn -0.0000 0.9918 -0.1282
vn 0.9760 -0.0000 -0.2176
vn -0.0081 -0.9999 0.0090
vn -0.0000 0.9917 -0.1288
vn 0.9994 -0.0000 -0.0332
vn 0.0001 -0.9940 0.1091
vn 0.0002 -0.9919 -0.1272
vn -0.0000 0.9988 0.0483
vn -0.0102 -0.9626 -0.2707
vn -0.0002 -0.9628 -0.2703
vn -0.0000 0.9988 0.0480
vn 0.1990 0.8539 0.4808
vn -0.2952 -0.9307 0.2160
vn -0.1990 0.8539 0.4808
vn 0.2952 -0.9307 0.2160
vn 0.2981 -0.9396 -0.1685
vn -0.0000 0.9843 0.1763
vn 0.5885 -0.1536 0.7938
vn 0.9990 -0.0000 -0.0444
vn -0.2981 -0.9396 -0.1685
vn -0.9990 -0.0012 -0.0445
vn -0.9997 0.0008 -0.0226
vn -0.5885 -0.1536 0.7938
vn -0.0001 -0.9941 0.1088
vt 0.000000 0.000000
s 1
f 2/1/1 15/1/2 10/1/3
f 3/1/4 12/1/5 11/1/6
f 8/1/7 11/1/6 15/1/2
f 6/1/8 13/1/9 5/1/10
f 5/1/10 12/1/5 4/1/11
f 2/1/1 9/1/12 1/1/13
f 16/1/14 28/1/15 22/1/16
f 17/1/17 25/1/18 18/1/19
f 22/1/16 24/1/20 17/1/17
f 26/1/21 20/1/22 19/1/23
f 18/1/19 26/1/21 19/1/23
f 30/1/24 16/1/14 29/1/25
f 2/1/26 29/1/27 16/1/26
f 8/1/28 17/1/29 3/1/30
f 4/1/31 17/1/29 18/1/32
f 4/1/31 19/1/33 5/1/34
f 5/1/34 20/1/35 6/1/36
f 6/1/37 21/1/38 7/1/39
f 8/1/28 16/1/40 22/1/41
f 36/1/42 32/1/43 31/1/44
f 36/1/45 33/1/46 37/1/47
f 37/1/48 34/1/49 38/1/50
f 29/1/25 38/1/50 30/1/24
f 1/1/51 37/1/47 29/1/27
f 1/1/13 35/1/52 36/1/42
f 45/1/53 126/1/54 121/1/55
f 32/1/56 39/1/57 34/1/56
f 52/1/58 40/1/59 32/1/43
f 42/1/60 32/1/60 34/1/60
f 33/1/61 42/1/62 34/1/49
f 31/1/63 43/1/64 33/1/46
f 41/1/65 31/1/44 32/1/43
f 56/1/66 45/1/66 46/1/66
f 46/1/67 121/1/67 122/1/67
f 125/1/68 46/1/69 122/1/70
f 48/1/66 50/1/66 47/1/66
f 117/1/71 47/1/71 120/1/71
f 49/1/72 117/1/73 118/1/74
f 50/1/75 118/1/75 119/1/75
f 120/1/76 50/1/77 119/1/78
f 39/1/79 51/1/80 34/1/49
f 51/1/80 38/1/50 34/1/49
f 58/1/1 15/1/2 63/1/81
f 59/1/82 12/1/5 60/1/83
f 63/1/81 11/1/6 59/1/82
f 13/1/9 62/1/84 61/1/85
f 12/1/5 61/1/85 60/1/83
f 9/1/12 58/1/1 57/1/86
f 64/1/87 28/1/15 23/1/88
f 65/1/89 25/1/18 24/1/20
f 69/1/90 24/1/20 28/1/15
f 68/1/91 26/1/21 67/1/92
f 66/1/93 26/1/21 25/1/18
f 64/1/87 30/1/24 70/1/25
f 58/1/94 70/1/95 57/1/96
f 65/1/97 63/1/98 59/1/99
f 60/1/100 65/1/97 59/1/99
f 67/1/101 60/1/100 61/1/102
f 68/1/103 61/1/102 62/1/104
f 21/1/105 62/1/106 7/1/107
f 63/1/98 64/1/108 58/1/109
f 75/1/110 72/1/111 35/1/52
f 73/1/112 75/1/113 76/1/114
f 74/1/115 76/1/48 38/1/50
f 38/1/50 70/1/25 30/1/24
f 76/1/114 57/1/96 70/1/95
f 57/1/86 35/1/52 9/1/12
f 126/1/54 83/1/116 123/1/117
f 72/1/118 77/1/119 78/1/120
f 52/1/58 78/1/121 54/1/122
f 72/1/123 80/1/123 74/1/123
f 73/1/61 80/1/124 81/1/125
f 71/1/126 81/1/127 82/1/128
f 71/1/129 79/1/130 72/1/111
f 56/1/66 83/1/66 55/1/66
f 123/1/131 84/1/131 124/1/131
f 125/1/68 84/1/132 56/1/133
f 88/1/66 86/1/66 85/1/66
f 127/1/134 85/1/134 86/1/134
f 127/1/73 87/1/72 128/1/74
f 128/1/135 88/1/135 129/1/135
f 130/1/136 88/1/137 85/1/137
f 51/1/80 77/1/138 74/1/115
f 51/1/80 74/1/115 38/1/50
f 72/1/111 52/1/58 35/1/52
f 52/1/58 32/1/43 35/1/52
f 113/1/139 92/1/140 116/1/141
f 116/1/75 91/1/75 115/1/75
f 91/1/142 114/1/143 115/1/144
f 89/1/71 113/1/71 114/1/71
f 107/1/145 98/1/146 95/1/147
f 112/1/131 97/1/131 98/1/131
f 108/1/148 97/1/149 111/1/150
f 107/1/145 94/1/151 110/1/152
f 110/1/67 93/1/67 109/1/67
f 93/1/153 108/1/148 109/1/154
f 103/1/155 102/1/156 100/1/157
f 106/1/135 101/1/135 102/1/135
f 104/1/143 101/1/158 105/1/148
f 103/1/134 99/1/134 104/1/134
f 79/1/134 104/1/134 80/1/134
f 80/1/124 105/1/148 81/1/125
f 82/1/128 105/1/135 106/1/135
f 79/1/130 106/1/159 103/1/155
f 109/1/154 53/1/160 39/1/79
f 40/1/161 109/1/67 39/1/57
f 54/1/122 110/1/152 40/1/59
f 53/1/160 111/1/150 77/1/138
f 78/1/120 111/1/131 112/1/131
f 54/1/122 112/1/162 107/1/145
f 114/1/71 41/1/71 42/1/71
f 115/1/144 42/1/62 43/1/163
f 44/1/164 115/1/75 43/1/64
f 41/1/65 116/1/141 44/1/165
f 90/1/166 119/1/78 92/1/140
f 119/1/75 91/1/75 92/1/75
f 118/1/74 89/1/167 91/1/142
f 89/1/71 120/1/71 90/1/71
f 95/1/147 124/1/168 125/1/68
f 97/1/131 124/1/131 98/1/131
f 96/1/167 123/1/117 97/1/149
f 95/1/147 122/1/70 94/1/151
f 122/1/67 93/1/67 94/1/67
f 121/1/55 96/1/167 93/1/153
f 100/1/157 129/1/169 130/1/136
f 101/1/135 129/1/135 102/1/135
f 99/1/170 128/1/74 101/1/158
f 99/1/134 130/1/134 127/1/134
s 0
f 20/1/171 27/1/171 21/1/171
f 62/1/172 14/1/172 7/1/172
f 27/1/173 68/1/173 21/1/173
f 14/1/174 6/1/174 7/1/174
s 1
f 2/1/1 8/1/7 15/1/2
f 3/1/4 4/1/11 12/1/5
f 8/1/7 3/1/4 11/1/6
f 6/1/8 14/1/175 13/1/9
f 5/1/10 13/1/9 12/1/5
f 2/1/1 10/1/3 9/1/12
f 16/1/14 23/1/88 28/1/15
f 17/1/17 24/1/20 25/1/18
f 22/1/16 28/1/15 24/1/20
f 26/1/21 27/1/176 20/1/22
f 18/1/19 25/1/18 26/1/21
f 30/1/24 23/1/88 16/1/14
f 2/1/26 1/1/51 29/1/27
f 8/1/28 22/1/41 17/1/29
f 4/1/31 3/1/30 17/1/29
f 4/1/31 18/1/32 19/1/33
f 5/1/34 19/1/33 20/1/35
f 6/1/37 20/1/177 21/1/38
f 8/1/28 2/1/178 16/1/40
f 36/1/42 35/1/52 32/1/43
f 36/1/45 31/1/63 33/1/46
f 37/1/48 33/1/61 34/1/49
f 29/1/25 37/1/48 38/1/50
f 1/1/51 36/1/45 37/1/47
f 1/1/13 9/1/12 35/1/52
f 45/1/53 55/1/72 126/1/54
f 32/1/56 40/1/161 39/1/57
f 52/1/58 54/1/122 40/1/59
f 42/1/60 41/1/60 32/1/60
f 33/1/61 43/1/163 42/1/62
f 31/1/63 44/1/164 43/1/64
f 41/1/65 44/1/165 31/1/44
f 56/1/66 55/1/66 45/1/66
f 46/1/67 45/1/67 121/1/67
f 125/1/68 56/1/133 46/1/69
f 48/1/66 49/1/66 50/1/66
f 117/1/71 48/1/71 47/1/71
f 49/1/72 48/1/72 117/1/73
f 50/1/75 49/1/75 118/1/75
f 120/1/76 47/1/77 50/1/77
f 39/1/79 53/1/160 51/1/80
f 58/1/1 10/1/3 15/1/2
f 59/1/82 11/1/6 12/1/5
f 63/1/81 15/1/2 11/1/6
f 13/1/9 14/1/179 62/1/84
f 12/1/5 13/1/9 61/1/85
f 9/1/12 10/1/3 58/1/1
f 64/1/87 69/1/90 28/1/15
f 65/1/89 66/1/93 25/1/18
f 69/1/90 65/1/89 24/1/20
f 68/1/91 27/1/176 26/1/21
f 66/1/93 67/1/92 26/1/21
f 64/1/87 23/1/88 30/1/24
f 58/1/94 64/1/94 70/1/95
f 65/1/97 69/1/180 63/1/98
f 60/1/100 66/1/181 65/1/97
f 67/1/101 66/1/181 60/1/100
f 68/1/103 67/1/101 61/1/102
f 21/1/105 68/1/182 62/1/106
f 63/1/98 69/1/180 64/1/108
f 75/1/110 71/1/129 72/1/111
f 73/1/112 71/1/126 75/1/113
f 74/1/115 73/1/61 76/1/48
f 38/1/50 76/1/48 70/1/25
f 76/1/114 75/1/113 57/1/96
f 57/1/86 75/1/110 35/1/52
f 126/1/54 55/1/72 83/1/116
f 72/1/118 74/1/118 77/1/119
f 52/1/58 72/1/111 78/1/121
f 72/1/123 79/1/123 80/1/123
f 73/1/61 74/1/115 80/1/124
f 71/1/126 73/1/112 81/1/127
f 71/1/129 82/1/183 79/1/130
f 56/1/66 84/1/66 83/1/66
f 123/1/131 83/1/131 84/1/131
f 125/1/68 124/1/168 84/1/132
f 88/1/66 87/1/66 86/1/66
f 127/1/134 130/1/134 85/1/134
f 127/1/73 86/1/72 87/1/72
f 128/1/135 87/1/135 88/1/135
f 130/1/136 129/1/169 88/1/137
f 51/1/80 53/1/160 77/1/138
f 113/1/139 90/1/166 92/1/140
f 116/1/75 92/1/75 91/1/75
f 91/1/142 89/1/167 114/1/143
f 89/1/71 90/1/71 113/1/71
f 107/1/145 112/1/162 98/1/146
f 112/1/131 111/1/131 97/1/131
f 108/1/148 96/1/167 97/1/149
f 107/1/145 95/1/147 94/1/151
f 110/1/67 94/1/67 93/1/67
f 93/1/153 96/1/167 108/1/148
f 103/1/155 106/1/159 102/1/156
f 106/1/135 105/1/135 101/1/135
f 104/1/143 99/1/170 101/1/158
f 103/1/134 100/1/134 99/1/134
f 79/1/134 103/1/134 104/1/134
f 80/1/124 104/1/143 105/1/148
f 82/1/128 81/1/127 105/1/135
f 79/1/130 82/1/183 106/1/159
f 109/1/154 108/1/148 53/1/160
f 40/1/161 110/1/67 109/1/67
f 54/1/122 107/1/145 110/1/152
f 53/1/160 108/1/148 111/1/150
f 78/1/120 77/1/119 111/1/131
f 54/1/122 78/1/121 112/1/162
f 114/1/71 113/1/71 41/1/71
f 115/1/144 114/1/143 42/1/62
f 44/1/164 116/1/75 115/1/75
f 41/1/65 113/1/139 116/1/141
f 90/1/166 120/1/76 119/1/78
f 119/1/75 118/1/75 91/1/75
f 118/1/74 117/1/73 89/1/167
f 89/1/71 117/1/71 120/1/71
f 95/1/147 98/1/146 124/1/168
f 97/1/131 123/1/131 124/1/131
f 96/1/167 126/1/54 123/1/117
f 95/1/147 125/1/68 122/1/70
f 122/1/67 121/1/67 93/1/67
f 121/1/55 126/1/54 96/1/167
f 100/1/157 102/1/156 129/1/169
f 101/1/135 128/1/135 129/1/135
f 99/1/170 127/1/73 128/1/74
f 99/1/134 100/1/134 130/1/134
