# Blender 4.0.2
# www.blender.org
mtllib NewspaperRolled.mtl
o NewspaperRolled
v 0.000791 0.002041 0.167059
v 0.000791 -0.005251 -0.166582
v -0.012027 0.017780 0.161455
v -0.012027 0.011454 -0.166582
v -0.009776 0.004531 0.166172
v -0.000342 -0.000660 0.168021
v 0.012670 -0.000458 0.167949
v 0.019726 0.005895 0.165686
v 0.018541 0.015287 0.162342
v 0.013312 0.019624 0.160798
v 0.005883 0.020238 0.160580
v -0.000810 0.016715 0.161834
v -0.003823 0.008462 0.164772
v 0.000791 -0.003021 0.134577
v 0.000791 -0.003124 0.099949
v 0.000791 -0.003124 0.066633
v 0.001028 -0.004633 0.030864
v 0.001028 -0.004633 -0.000000
v 0.001028 -0.004633 -0.030864
v 0.000791 -0.005251 -0.066633
v 0.000791 -0.005251 -0.099949
v 0.000791 -0.005251 -0.133266
v -0.003823 0.001564 -0.166582
v -0.000810 0.010324 -0.166582
v 0.005883 0.014064 -0.166582
v 0.013312 0.013413 -0.166582
v 0.018541 0.008808 -0.166582
v 0.019726 -0.001161 -0.166582
v 0.012670 -0.007905 -0.166582
v -0.000342 -0.008120 -0.166582
v -0.009776 -0.002609 -0.166582
v -0.012027 0.011454 -0.133266
v -0.012027 0.011454 -0.099949
v -0.012027 0.011454 -0.066633
v -0.010846 0.010843 -0.030864
v -0.010846 0.010843 0.000000
v -0.010846 0.010843 0.030864
v -0.012027 0.013582 0.066633
v -0.012027 0.013582 0.099949
v -0.012027 0.013480 0.131968
v -0.003823 0.003710 0.133513
v -0.000810 0.012363 0.132144
v 0.005883 0.016057 0.131560
v 0.013312 0.015414 0.131662
v 0.018541 0.010866 0.132381
v 0.019726 0.001019 0.133938
v 0.012670 -0.005642 0.134991
v -0.000342 -0.005854 0.135025
v -0.009776 -0.000412 0.134164
v -0.003823 0.003691 0.099949
v -0.000810 0.012452 0.099949
v 0.005883 0.016191 0.099949
v 0.013312 0.015540 0.099949
v 0.018541 0.010935 0.099949
v 0.019726 0.000966 0.099949
v 0.012670 -0.005778 0.099949
v -0.000342 -0.005992 0.099949
v -0.009776 -0.000482 0.099949
v -0.003823 0.003691 0.066633
v -0.000810 0.012452 0.066633
v 0.005883 0.016191 0.066633
v 0.013312 0.015540 0.066633
v 0.018541 0.010935 0.066633
v 0.019726 0.000966 0.066633
v 0.012670 -0.005778 0.066633
v -0.000342 -0.005992 0.066633
v -0.009776 -0.000482 0.066633
v -0.003246 0.001680 0.030864
v -0.000455 0.009796 0.030864
v 0.005746 0.013260 0.030864
v 0.012627 0.012657 0.030864
v 0.017471 0.008391 0.030864
v 0.018569 -0.000844 0.030864
v 0.012033 -0.007091 0.030864
v -0.000022 -0.007290 0.030864
v -0.008761 -0.002186 0.030864
v -0.003246 0.001680 0.000000
v -0.000454 0.009796 -0.000000
v 0.005746 0.013260 -0.000000
v 0.012627 0.012657 0.000000
v 0.017471 0.008391 0.000000
v 0.018569 -0.000844 -0.000000
v 0.012033 -0.007091 0.000000
v -0.000022 -0.007290 0.000000
v -0.008761 -0.002186 0.000000
v -0.003246 0.001680 -0.030864
v -0.000454 0.009796 -0.030864
v 0.005746 0.013260 -0.030864
v 0.012627 0.012657 -0.030864
v 0.017471 0.008391 -0.030864
v 0.018569 -0.000844 -0.030864
v 0.012033 -0.007091 -0.030864
v -0.000022 -0.007290 -0.030864
v -0.008761 -0.002186 -0.030864
v -0.003823 0.001564 -0.066633
v -0.000810 0.010324 -0.066633
v 0.005883 0.014064 -0.066633
v 0.013312 0.013413 -0.066633
v 0.018541 0.008808 -0.066633
v 0.019726 -0.001161 -0.066633
v 0.012670 -0.007905 -0.066633
v -0.000342 -0.008120 -0.066633
v -0.009776 -0.002609 -0.066633
v -0.003823 0.001564 -0.099949
v -0.000810 0.010324 -0.099949
v 0.005883 0.014064 -0.099949
v 0.013312 0.013413 -0.099949
v 0.018541 0.008808 -0.099949
v 0.019726 -0.001161 -0.099949
v 0.012670 -0.007905 -0.099949
v -0.000342 -0.008120 -0.099949
v -0.009776 -0.002609 -0.099949
v -0.003823 0.001564 -0.133266
v -0.000810 0.010324 -0.133266
v 0.005883 0.014064 -0.133266
v 0.013312 0.013413 -0.133266
v 0.018541 0.008808 -0.133266
v 0.019726 -0.001161 -0.133266
v 0.012670 -0.007905 -0.133266
v -0.000342 -0.008120 -0.133266
v -0.009776 -0.002609 -0.133266
v -0.000861 0.000927 0.167230
v -0.000866 -0.006373 -0.166582
v -0.014002 0.017464 0.161502
v -0.014002 0.011138 -0.166582
v -0.011372 0.003340 0.166357
v -0.000830 -0.002577 0.168321
v 0.013394 -0.002300 0.168237
v 0.021569 0.005128 0.165806
v 0.020343 0.016144 0.162217
v 0.014121 0.021434 0.160535
v 0.005453 0.022171 0.160300
v -0.002381 0.017939 0.161655
v -0.005788 0.008094 0.164831
v -0.000863 -0.004143 0.134667
v -0.000864 -0.004248 0.099950
v -0.000866 -0.004246 0.066651
v -0.000628 -0.005755 0.030882
v -0.000628 -0.005755 -0.000000
v -0.000628 -0.005755 -0.030849
v -0.000866 -0.006373 -0.066618
v -0.000866 -0.006373 -0.099949
v -0.000866 -0.006373 -0.133266
v -0.005806 0.001301 -0.166582
v -0.002344 0.011607 -0.166582
v 0.005464 0.016019 -0.166582
v 0.014099 0.015251 -0.166582
v 0.020311 0.009738 -0.166582
v 0.021608 -0.001837 -0.166582
v 0.013430 -0.009755 -0.166582
v -0.000849 -0.010054 -0.166582
v -0.011427 -0.003739 -0.166582
v -0.014002 0.011138 -0.133266
v -0.014002 0.011138 -0.099949
v -0.014002 0.011138 -0.066603
v -0.012821 0.010527 -0.030834
v -0.012821 0.010527 0.000000
v -0.012821 0.010527 0.030843
v -0.014002 0.013266 0.066613
v -0.014002 0.013265 0.099949
v -0.014002 0.013163 0.131990
v -0.005800 0.003406 0.133534
v -0.002358 0.013626 0.132054
v 0.005461 0.018007 0.131426
v 0.014107 0.017244 0.131535
v 0.020324 0.011769 0.132315
v 0.021594 0.000306 0.133992
v 0.013415 -0.007492 0.135140
v -0.000841 -0.007785 0.135180
v -0.011406 -0.001568 0.134254
v -0.005806 0.003427 0.099950
v -0.002342 0.013737 0.099951
v 0.005466 0.018147 0.099953
v 0.014097 0.017379 0.099953
v 0.020310 0.011867 0.099951
v 0.021608 0.000289 0.099951
v 0.013428 -0.007629 0.099953
v -0.000848 -0.007928 0.099953
v -0.011425 -0.001614 0.099951
v -0.005808 0.003444 0.066623
v -0.002336 0.013742 0.066578
v 0.005468 0.018146 0.066554
v 0.014096 0.017378 0.066552
v 0.020306 0.011875 0.066573
v 0.021614 0.000306 0.066619
v 0.013436 -0.007625 0.066660
v -0.000852 -0.007926 0.066666
v -0.011435 -0.001600 0.066636
v -0.005227 0.001401 0.030856
v -0.001996 0.011069 0.030809
v 0.005323 0.015213 0.030784
v 0.013417 0.014492 0.030782
v 0.019246 0.009311 0.030804
v 0.020446 -0.001536 0.030851
v 0.012786 -0.008944 0.030891
v -0.000525 -0.009226 0.030897
v -0.010403 -0.003328 0.030868
v -0.005229 0.001417 -0.000000
v -0.001989 0.011079 -0.000000
v 0.005327 0.015215 -0.000000
v 0.013415 0.014495 0.000000
v 0.019242 0.009321 0.000000
v 0.020452 -0.001520 -0.000000
v 0.012792 -0.008941 0.000000
v -0.000528 -0.009225 0.000000
v -0.010411 -0.003316 0.000000
v -0.005229 0.001418 -0.030847
v -0.001990 0.011078 -0.030847
v 0.005325 0.015215 -0.030843
v 0.013413 0.014496 -0.030837
v 0.019241 0.009322 -0.030832
v 0.020451 -0.001521 -0.030830
v 0.012791 -0.008942 -0.030836
v -0.000528 -0.009225 -0.030839
v -0.010410 -0.003317 -0.030834
v -0.005806 0.001301 -0.066617
v -0.002343 0.011608 -0.066616
v 0.005466 0.016020 -0.066612
v 0.014101 0.015250 -0.066606
v 0.020312 0.009737 -0.066601
v 0.021608 -0.001836 -0.066600
v 0.013431 -0.009754 -0.066605
v -0.000849 -0.010054 -0.066608
v -0.011427 -0.003738 -0.066603
v -0.005806 0.001301 -0.099949
v -0.002344 0.011607 -0.099949
v 0.005464 0.016019 -0.099949
v 0.014099 0.015251 -0.099949
v 0.020311 0.009738 -0.099949
v 0.021608 -0.001837 -0.099949
v 0.013430 -0.009755 -0.099949
v -0.000849 -0.010054 -0.099949
v -0.011427 -0.003739 -0.099949
v -0.005806 0.001301 -0.133266
v -0.002344 0.011607 -0.133266
v 0.005464 0.016019 -0.133266
v 0.014099 0.015251 -0.133266
v 0.020311 0.009738 -0.133266
v 0.021608 -0.001837 -0.133266
v 0.013430 -0.009755 -0.133266
v -0.000849 -0.010054 -0.133266
v -0.011427 -0.003739 -0.133266
vn 0.9874 0.1580 -0.0000
vn 0.9870 0.1589 -0.0245
vn 0.9871 0.1599 -0.0003
vn 0.9872 0.1580 0.0205
vn 0.9870 0.1580 -0.0299
vn 0.8235 0.5606 -0.0874
vn 0.9437 -0.3269 0.0497
vn 0.4805 -0.8677 0.1272
vn -0.0856 -0.9861 0.1425
vn -0.6537 -0.7487 0.1105
vn -0.9928 -0.1188 0.0182
vn -0.6846 0.7200 -0.1133
vn -0.0162 0.9877 -0.1555
vn 0.4978 0.8567 -0.1349
vn 0.8250 0.5651 -0.0017
vn 0.9444 -0.3289 0.0002
vn 0.4830 -0.8756 -0.0024
vn -0.0862 -0.9963 -0.0040
vn -0.6561 -0.7547 -0.0016
vn -0.9928 -0.1195 0.0002
vn -0.6867 0.7270 -0.0028
vn -0.0163 0.9999 -0.0039
vn 0.4999 0.8660 -0.0034
vn 0.8281 0.5606 -0.0000
vn 0.9456 -0.3253 -0.0000
vn 0.4877 -0.8730 -0.0000
vn -0.0873 -0.9962 -0.0000
vn -0.6609 -0.7505 -0.0000
vn -0.9930 -0.1181 -0.0000
vn -0.6909 0.7229 -0.0000
vn -0.0165 0.9999 -0.0000
vn 0.5044 0.8635 -0.0000
vn 0.8280 0.5605 -0.0182
vn 0.9451 -0.3251 0.0335
vn 0.4865 -0.8709 0.0695
vn -0.0870 -0.9929 0.0817
vn -0.6591 -0.7485 0.0729
vn -0.9923 -0.1180 0.0381
vn -0.6909 0.7228 -0.0142
vn -0.0165 0.9992 -0.0364
vn 0.5042 0.8632 -0.0268
vn 0.5043 0.8635 -0.0000
vn 0.8280 0.5605 -0.0152
vn 0.9455 -0.3253 -0.0142
vn 0.4877 -0.8729 -0.0177
vn -0.0873 -0.9959 -0.0227
vn -0.6606 -0.7502 -0.0285
vn -0.9925 -0.1180 -0.0311
vn -0.6906 0.7226 -0.0287
vn -0.0165 0.9996 -0.0230
vn 0.5042 0.8632 -0.0245
vn -0.9853 -0.1706 -0.0000
vn -0.9844 -0.1737 0.0276
vn -0.9848 -0.1734 0.0008
vn -0.9853 -0.1706 0.0002
vn -0.9849 -0.1719 -0.0201
vn -0.9851 -0.1719 0.0002
vn -0.9852 -0.1716 -0.0000
vn -0.9847 -0.1715 0.0300
vn -0.8341 -0.5450 0.0849
vn -0.9485 0.3132 -0.0466
vn -0.4883 0.8635 -0.1262
vn 0.0888 0.9859 -0.1421
vn 0.6647 0.7394 -0.1072
vn 0.9940 0.1077 -0.0164
vn 0.6939 -0.7118 0.1084
vn 0.0207 -0.9877 0.1550
vn -0.5038 -0.8533 0.1343
vn -0.8370 -0.5471 0.0017
vn -0.9477 0.3192 0.0004
vn -0.4887 0.8725 0.0028
vn 0.0886 0.9961 0.0044
vn 0.6636 0.7481 0.0030
vn 0.9938 0.1114 -0.0001
vn 0.6955 -0.7186 0.0006
vn 0.0209 -0.9998 0.0039
vn -0.5074 -0.8617 0.0036
vn -0.8408 -0.5413 -0.0000
vn -0.9479 0.3185 0.0002
vn -0.4918 0.8707 0.0001
vn 0.0886 0.9961 -0.0000
vn 0.6633 0.7484 -0.0001
vn 0.9937 0.1124 -0.0001
vn 0.6962 -0.7179 -0.0002
vn 0.0211 -0.9998 -0.0001
vn -0.5125 -0.8587 -0.0000
vn -0.8412 -0.5405 0.0172
vn -0.9480 0.3166 -0.0335
vn -0.4917 0.8680 -0.0696
vn 0.0884 0.9927 -0.0817
vn 0.6616 0.7463 -0.0728
vn 0.9930 0.1121 -0.0374
vn 0.6961 -0.7178 0.0142
vn 0.0211 -0.9991 0.0365
vn -0.5125 -0.8583 0.0265
vn -0.8413 -0.5406 -0.0000
vn -0.9484 0.3169 0.0002
vn -0.4927 0.8702 0.0002
vn 0.0887 0.9961 0.0001
vn 0.6639 0.7478 -0.0000
vn 0.9938 0.1109 -0.0001
vn 0.6959 -0.7182 -0.0002
vn 0.0213 -0.9998 -0.0001
vn -0.5126 -0.8586 -0.0000
vn -0.8417 -0.5399 -0.0000
vn -0.9481 0.3179 -0.0000
vn -0.4923 0.8704 -0.0000
vn 0.6639 0.7479 -0.0000
vn 0.9938 0.1109 -0.0000
vn 0.6959 -0.7182 -0.0000
vn 0.0213 -0.9998 -0.0000
vn -0.5131 -0.8583 -0.0000
vn -0.8407 -0.5412 0.0149
vn -0.9480 0.3179 0.0142
vn -0.4922 0.8703 0.0178
vn 0.0886 0.9958 0.0227
vn 0.6636 0.7476 0.0285
vn 0.9934 0.1108 0.0310
vn 0.6953 -0.7181 0.0288
vn 0.0210 -0.9995 0.0231
vn -0.5130 -0.8581 0.0245
vn -0.9480 0.3184 -0.0000
vn -0.4919 0.8706 -0.0000
vn 0.6638 0.7480 -0.0000
vn 0.9938 0.1114 -0.0000
vn 0.6956 -0.7184 -0.0000
vn 0.0210 -0.9998 -0.0000
vn 0.6956 -0.7185 -0.0000
vn 0.6637 0.7480 -0.0000
vn -0.0879 0.2775 0.9567
vn 0.5606 -0.8281 -0.0000
vn -0.0000 -0.0000 -1.0000
vn -0.1595 0.9769 -0.1425
vn -0.1168 0.3033 0.9457
vn -0.0943 0.1775 0.9796
vn 0.0028 0.1558 0.9878
vn 0.0470 0.2636 0.9635
vn -0.0884 0.3242 0.9419
vn -0.1242 0.1966 0.9726
vn -0.0176 0.1394 0.9901
vn 0.0540 0.2124 0.9757
vn -0.0312 0.3167 0.9480
vn 0.5613 -0.8177 0.1273
vn 0.5617 -0.8273 0.0025
vn 0.5604 -0.8273 0.0386
vn 0.5606 -0.8280 0.0106
vn -0.1580 0.9874 -0.0000
vn -0.1577 0.9872 0.0221
vn -0.1567 0.9844 -0.0805
vn -0.1585 0.9874 -0.0000
vn -0.1584 0.9874 0.0031
vn 0.9874 0.1564 -0.0228
vn 0.9874 0.1580 0.0005
vn 0.8281 0.5542 -0.0842
vn 0.9456 -0.3219 0.0472
vn 0.4877 -0.8641 0.1245
vn -0.0873 -0.9860 0.1421
vn -0.6608 -0.7428 0.1074
vn -0.9930 -0.1168 0.0172
vn -0.6909 0.7145 -0.1097
vn -0.0165 0.9877 -0.1554
vn 0.5043 0.8534 -0.1318
vn 0.8281 0.5606 -0.0003
vn 0.9456 -0.3253 -0.0009
vn 0.4877 -0.8730 -0.0037
vn -0.0873 -0.9962 -0.0042
vn -0.6609 -0.7505 -0.0030
vn -0.9930 -0.1181 -0.0003
vn -0.6909 0.7229 -0.0011
vn -0.0165 0.9999 -0.0039
vn 0.5044 0.8635 -0.0018
vn -0.9852 -0.1698 0.0248
vn -0.9853 -0.1706 -0.0005
vn -0.9854 -0.1702 -0.0000
vn -0.9852 -0.1702 -0.0195
vn -0.9852 -0.1715 -0.0000
vn -0.9849 -0.1704 0.0296
vn -0.9854 -0.1705 -0.0000
vn -0.8397 -0.5370 0.0808
vn -0.9487 0.3127 -0.0463
vn -0.4926 0.8613 -0.1243
vn 0.0876 0.9859 -0.1425
vn 0.6608 0.7426 -0.1091
vn 0.9943 0.1057 -0.0153
vn 0.6864 -0.7184 0.1131
vn 0.0201 -0.9877 0.1552
vn -0.5113 -0.8495 0.1304
vn -0.8408 -0.5413 -0.0002
vn -0.9479 0.3185 0.0006
vn -0.4918 0.8707 0.0038
vn 0.0878 0.9961 0.0042
vn 0.6608 0.7506 0.0020
vn 0.9939 0.1102 0.0004
vn 0.6903 -0.7235 0.0031
vn 0.0206 -0.9998 0.0040
vn -0.5125 -0.8587 0.0014
vn -0.8412 -0.5407 -0.0002
vn -0.9476 0.3194 -0.0001
vn -0.4914 0.8709 -0.0001
vn 0.0887 0.9961 -0.0000
vn 0.6636 0.7481 0.0001
vn 0.9938 0.1114 0.0002
vn 0.6955 -0.7186 0.0001
vn 0.0209 -0.9998 -0.0000
vn -0.5131 -0.8583 -0.0002
vn -0.8411 -0.5405 0.0172
vn -0.9471 0.3191 -0.0329
vn -0.4904 0.8688 -0.0692
vn 0.0884 0.9927 -0.0818
vn 0.6627 0.7453 -0.0730
vn 0.9932 0.1097 -0.0381
vn 0.6952 -0.7187 0.0139
vn 0.0212 -0.9991 0.0365
vn -0.5130 -0.8580 0.0267
vn -0.8417 -0.5399 -0.0002
vn -0.9481 0.3179 -0.0001
vn -0.4922 0.8705 -0.0000
vn 0.6643 0.7474 0.0002
vn 0.9939 0.1099 0.0002
vn 0.6952 -0.7188 0.0001
vn 0.0212 -0.9998 -0.0000
vn -0.5132 -0.8583 -0.0002
vn 0.6958 -0.7182 -0.0000
vn -0.5132 -0.8583 -0.0000
vn -0.8416 -0.5398 0.0153
vn -0.9479 0.3184 0.0141
vn -0.4918 0.8705 0.0176
vn 0.0887 0.9958 0.0227
vn 0.9933 0.1113 0.0312
vn 0.6955 -0.7179 0.0288
vn 0.0212 -0.9995 0.0230
vn -0.5125 -0.8583 0.0247
vn -0.9479 0.3184 -0.0000
vn -0.4919 0.8707 -0.0000
vn 0.0888 0.9961 -0.0000
vn 0.6638 0.7479 -0.0000
vn -0.5127 -0.8586 -0.0000
vn -0.0279 0.3000 0.9535
vn -0.1584 0.9771 -0.1424
vn -0.0302 0.3307 0.9432
vn -0.0551 0.2248 0.9729
vn 0.0031 0.1541 0.9881
vn 0.1288 0.2026 0.9708
vn 0.0700 0.3161 0.9461
vn -0.0504 0.2481 0.9674
vn -0.0142 0.1498 0.9886
vn 0.0977 0.1639 0.9816
vn 0.1204 0.2937 0.9483
vn 0.5640 -0.8159 0.1272
vn 0.5612 -0.8277 0.0025
vn 0.5617 -0.8273 -0.0001
vn -0.1585 0.9874 0.0031
vt 1.000000 0.900000
vt 0.900000 1.000000
vt 0.900000 0.900000
vt 0.100000 0.900000
vt 0.000000 1.000000
vt 0.000000 0.900000
vt 0.200000 0.900000
vt 0.100000 1.000000
vt 0.300000 0.900000
vt 0.200000 1.000000
vt 0.400000 1.000000
vt 0.300000 1.000000
vt 0.400000 0.900000
vt 0.500000 1.000000
vt 0.500000 0.900000
vt 0.600000 1.000000
vt 0.700000 0.900000
vt 0.600000 0.900000
vt 0.800000 0.900000
vt 0.700000 1.000000
vt 0.800000 1.000000
vt 0.100000 0.000000
vt 0.000000 0.100000
vt 0.000000 0.000000
vt 0.100000 0.100000
vt 0.000000 0.200000
vt 0.100000 0.200000
vt 0.000000 0.300000
vt 0.100000 0.400000
vt 0.000000 0.400000
vt 0.100000 0.500000
vt 0.000000 0.500000
vt 0.100000 0.600000
vt 0.000000 0.600000
vt 0.100000 0.700000
vt 0.000000 0.700000
vt 0.100000 0.800000
vt 0.000000 0.800000
vt 0.200000 0.000000
vt 0.200000 0.100000
vt 0.200000 0.200000
vt 0.100000 0.300000
vt 0.200000 0.400000
vt 0.200000 0.500000
vt 0.200000 0.600000
vt 0.200000 0.700000
vt 0.200000 0.800000
vt 0.300000 0.000000
vt 0.300000 0.100000
vt 0.300000 0.200000
vt 0.200000 0.300000
vt 0.300000 0.400000
vt 0.300000 0.500000
vt 0.300000 0.700000
vt 0.400000 0.100000
vt 0.400000 0.200000
vt 0.400000 0.300000
vt 0.300000 0.300000
vt 0.400000 0.400000
vt 0.400000 0.500000
vt 0.300000 0.600000
vt 0.400000 0.600000
vt 0.400000 0.700000
vt 0.300000 0.800000
vt 0.400000 0.000000
vt 0.500000 0.100000
vt 0.500000 0.200000
vt 0.500000 0.400000
vt 0.500000 0.500000
vt 0.500000 0.700000
vt 0.400000 0.800000
vt 0.500000 0.800000
vt 0.500000 0.000000
vt 0.600000 0.100000
vt 0.600000 0.300000
vt 0.500000 0.300000
vt 0.600000 0.400000
vt 0.600000 0.500000
vt 0.500000 0.600000
vt 0.600000 0.700000
vt 0.600000 0.800000
vt 0.600000 0.000000
vt 0.700000 0.100000
vt 0.600000 0.200000
vt 0.700000 0.200000
vt 0.700000 0.300000
vt 0.700000 0.400000
vt 0.700000 0.500000
vt 0.600000 0.600000
vt 0.700000 0.700000
vt 0.700000 0.800000
vt 0.700000 0.000000
vt 0.800000 0.100000
vt 0.800000 0.300000
vt 0.800000 0.400000
vt 0.800000 0.500000
vt 0.700000 0.600000
vt 0.800000 0.700000
vt 0.800000 0.800000
vt 0.800000 0.000000
vt 0.900000 0.100000
vt 0.800000 0.200000
vt 0.900000 0.300000
vt 0.900000 0.400000
vt 0.900000 0.500000
vt 0.800000 0.600000
vt 0.900000 0.700000
vt 0.900000 0.800000
vt 0.900000 0.000000
vt 1.000000 0.100000
vt 0.900000 0.200000
vt 1.000000 0.300000
vt 1.000000 0.400000
vt 1.000000 0.500000
vt 0.900000 0.600000
vt 1.000000 0.700000
vt 1.000000 0.800000
vt 1.000000 0.000000
vt 1.000000 0.200000
vt 1.000000 0.600000
vt 1.000000 1.000000
s 0
f 31/1/1 32/2/1 121/3/1
f 49/4/2 3/5/2 5/6/2
f 58/7/3 40/8/3 49/4/3
f 67/9/1 39/10/1 58/7/1
f 67/9/4 37/11/4 38/12/4
f 76/13/1 36/14/1 37/11/1
f 85/15/1 35/16/1 36/14/1
f 103/17/5 35/16/5 94/18/5
f 112/19/1 34/20/1 103/17/1
f 121/3/1 33/21/1 112/19/1
f 14/22/6 13/23/6 1/24/6
f 41/25/7 12/26/7 13/23/7
f 42/27/8 11/28/8 12/26/8
f 11/28/9 44/29/9 10/30/9
f 10/30/10 45/31/10 9/32/10
f 9/32/11 46/33/11 8/34/11
f 8/34/12 47/35/12 7/36/12
f 7/36/13 48/37/13 6/38/13
f 48/37/14 5/6/14 6/38/14
f 15/39/15 41/25/15 14/22/15
f 50/40/16 42/27/16 41/25/16
f 51/41/17 43/42/17 42/27/17
f 43/42/18 53/43/18 44/29/18
f 44/29/19 54/44/19 45/31/19
f 45/31/20 55/45/20 46/33/20
f 46/33/21 56/46/21 47/35/21
f 47/35/22 57/47/22 48/37/22
f 57/47/23 49/4/23 48/37/23
f 16/48/24 50/40/24 15/39/24
f 59/49/25 51/41/25 50/40/25
f 60/50/26 52/51/26 51/41/26
f 52/51/27 62/52/27 53/43/27
f 62/52/28 54/44/28 53/43/28
f 63/53/29 55/45/29 54/44/29
f 55/45/30 65/54/30 56/46/30
f 65/54/31 57/47/31 56/46/31
f 57/47/32 67/9/32 58/7/32
f 16/48/33 68/55/33 59/49/33
f 59/49/34 69/56/34 60/50/34
f 60/50/35 70/57/35 61/58/35
f 61/58/36 71/59/36 62/52/36
f 71/59/37 63/53/37 62/52/37
f 72/60/38 64/61/38 63/53/38
f 73/62/39 65/54/39 64/61/39
f 74/63/40 66/64/40 65/54/40
f 66/64/41 76/13/41 67/9/41
f 17/65/24 77/66/24 68/55/24
f 77/66/25 69/56/25 68/55/25
f 78/67/26 70/57/26 69/56/26
f 70/57/27 80/68/27 71/59/27
f 71/59/28 81/69/28 72/60/28
f 81/69/29 73/62/29 72/60/29
f 73/62/30 83/70/30 74/63/30
f 83/70/31 75/71/31 74/63/31
f 84/72/42 76/13/42 75/71/42
f 18/73/24 86/74/24 77/66/24
f 86/74/25 78/67/25 77/66/25
f 78/67/26 88/75/26 79/76/26
f 79/76/27 89/77/27 80/68/27
f 80/68/28 90/78/28 81/69/28
f 90/78/29 82/79/29 81/69/29
f 82/79/30 92/80/30 83/70/30
f 92/80/31 84/72/31 83/70/31
f 93/81/42 85/15/42 84/72/42
f 19/82/43 95/83/43 86/74/43
f 95/83/44 87/84/44 86/74/44
f 96/85/45 88/75/45 87/84/45
f 97/86/46 89/77/46 88/75/46
f 98/87/47 90/78/47 89/77/47
f 99/88/48 91/89/48 90/78/48
f 91/89/49 101/90/49 92/80/49
f 92/80/50 102/91/50 93/81/50
f 102/91/51 94/18/51 93/81/51
f 20/92/24 104/93/24 95/83/24
f 104/93/25 96/85/25 95/83/25
f 96/85/26 106/94/26 97/86/26
f 97/86/27 107/95/27 98/87/27
f 107/95/28 99/88/28 98/87/28
f 108/96/29 100/97/29 99/88/29
f 100/97/30 110/98/30 101/90/30
f 110/98/31 102/91/31 101/90/31
f 111/99/42 103/17/42 102/91/42
f 21/100/24 113/101/24 104/93/24
f 113/101/25 105/102/25 104/93/25
f 105/102/26 115/103/26 106/94/26
f 106/94/27 116/104/27 107/95/27
f 116/104/28 108/96/28 107/95/28
f 117/105/29 109/106/29 108/96/29
f 109/106/30 119/107/30 110/98/30
f 119/107/31 111/99/31 110/98/31
f 120/108/42 112/19/42 111/99/42
f 22/109/24 23/110/24 113/101/24
f 23/110/25 114/111/25 113/101/25
f 114/111/26 25/112/26 115/103/26
f 115/103/27 26/113/27 116/104/27
f 116/104/28 27/114/28 117/105/28
f 27/114/29 118/115/29 117/105/29
f 118/115/30 29/116/30 119/107/30
f 29/116/31 120/108/31 119/107/31
f 30/117/42 121/3/42 120/108/42
f 153/2/52 152/1/52 242/3/52
f 124/5/53 170/4/53 126/6/53
f 161/8/54 179/7/54 170/4/54
f 160/10/55 188/9/55 179/7/55
f 188/9/56 158/11/56 197/13/56
f 158/11/57 206/15/57 197/13/57
f 206/15/58 156/16/58 215/18/58
f 156/16/59 224/17/59 215/18/59
f 224/17/52 154/21/52 233/19/52
f 154/21/52 242/3/52 233/19/52
f 134/23/60 135/22/60 122/24/60
f 133/26/61 162/25/61 134/23/61
f 132/28/62 163/27/62 133/26/62
f 132/28/63 165/29/63 164/42/63
f 131/30/64 166/31/64 165/29/64
f 130/32/65 167/33/65 166/31/65
f 129/34/66 168/35/66 167/33/66
f 128/36/67 169/37/67 168/35/67
f 126/6/68 169/37/68 127/38/68
f 162/25/69 136/39/69 135/22/69
f 163/27/70 171/40/70 162/25/70
f 164/42/71 172/41/71 163/27/71
f 164/42/72 174/43/72 173/51/72
f 165/29/73 175/44/73 174/43/73
f 166/31/74 176/45/74 175/44/74
f 167/33/75 177/46/75 176/45/75
f 168/35/76 178/47/76 177/46/76
f 170/4/77 178/47/77 169/37/77
f 171/40/78 137/48/78 136/39/78
f 172/41/79 180/49/79 171/40/79
f 173/51/80 181/50/80 172/41/80
f 174/43/81 182/58/81 173/51/81
f 174/43/82 184/53/82 183/52/82
f 175/44/83 185/61/83 184/53/83
f 176/45/84 186/54/84 185/61/84
f 177/46/85 187/64/85 186/54/85
f 179/7/86 187/64/86 178/47/86
f 137/48/87 189/55/87 138/65/87
f 180/49/88 190/56/88 189/55/88
f 181/50/89 191/57/89 190/56/89
f 182/58/90 192/59/90 191/57/90
f 184/53/91 192/59/91 183/52/91
f 185/61/92 193/60/92 184/53/92
f 186/54/93 194/62/93 185/61/93
f 187/64/94 195/63/94 186/54/94
f 187/64/95 197/13/95 196/71/95
f 189/55/96 139/73/96 138/65/96
f 190/56/97 198/66/97 189/55/97
f 191/57/98 199/67/98 190/56/98
f 192/59/99 200/76/99 191/57/99
f 192/59/100 202/69/100 201/68/100
f 193/60/101 203/79/101 202/69/101
f 194/62/102 204/70/102 203/79/102
f 195/63/103 205/72/103 204/70/103
f 197/13/104 205/72/104 196/71/104
f 139/73/105 207/74/105 140/82/105
f 198/66/106 208/84/106 207/74/106
f 199/67/107 209/75/107 208/84/107
f 200/76/81 210/77/81 209/75/81
f 201/68/108 211/78/108 210/77/108
f 202/69/109 212/89/109 211/78/109
f 204/70/110 212/89/110 203/79/110
f 205/72/111 213/80/111 204/70/111
f 205/72/112 215/18/112 214/81/112
f 140/82/113 216/83/113 141/92/113
f 208/84/114 216/83/114 207/74/114
f 209/75/115 217/85/115 208/84/115
f 210/77/116 218/86/116 209/75/116
f 211/78/117 219/87/117 210/77/117
f 212/89/118 220/88/118 211/78/118
f 212/89/119 222/90/119 221/97/119
f 213/80/120 223/91/120 222/90/120
f 215/18/121 223/91/121 214/81/121
f 141/92/78 225/93/78 142/100/78
f 216/83/122 226/102/122 225/93/122
f 217/85/123 227/94/123 226/102/123
f 218/86/81 228/95/81 227/94/81
f 219/87/124 229/96/124 228/95/124
f 220/88/125 230/106/125 229/96/125
f 222/90/126 230/106/126 221/97/126
f 223/91/127 231/98/127 222/90/127
f 223/91/104 233/19/104 232/99/104
f 142/100/78 234/101/78 143/109/78
f 226/102/122 234/101/122 225/93/122
f 226/102/123 236/103/123 235/111/123
f 227/94/81 237/104/81 236/103/81
f 229/96/124 237/104/124 228/95/124
f 230/106/125 238/105/125 229/96/125
f 230/106/128 240/107/128 239/115/128
f 232/99/127 240/107/127 231/98/127
f 233/19/104 241/108/104 232/99/104
f 143/109/78 144/110/78 123/118/78
f 235/111/122 144/110/122 234/101/122
f 235/111/123 146/112/123 145/119/123
f 236/103/81 147/113/81 146/112/81
f 237/104/129 148/114/129 147/113/129
f 239/115/125 148/114/125 238/105/125
f 239/115/128 150/116/128 149/120/128
f 241/108/127 150/116/127 240/107/127
f 242/3/104 151/117/104 241/108/104
f 13/23/130 122/24/130 1/24/130
f 22/109/131 123/118/131 2/118/131
f 31/1/132 125/121/132 4/121/132
f 40/8/133 124/5/133 3/5/133
f 5/6/134 124/5/134 126/6/134
f 5/6/135 127/38/135 6/38/135
f 7/36/136 127/38/136 128/36/136
f 8/34/137 128/36/137 129/34/137
f 8/34/138 130/32/138 9/32/138
f 9/32/139 131/30/139 10/30/139
f 10/30/140 132/28/140 11/28/140
f 12/26/141 132/28/141 133/26/141
f 13/23/142 133/26/142 134/23/142
f 14/22/143 122/24/143 135/22/143
f 14/22/144 136/39/144 15/39/144
f 15/39/131 137/48/131 16/48/131
f 17/65/145 137/48/145 138/65/145
f 17/65/131 139/73/131 18/73/131
f 18/73/131 140/82/131 19/82/131
f 20/92/146 140/82/146 141/92/146
f 20/92/131 142/100/131 21/100/131
f 21/100/131 143/109/131 22/109/131
f 23/110/132 123/118/132 144/110/132
f 23/110/132 145/119/132 24/119/132
f 24/119/132 146/112/132 25/112/132
f 26/113/132 146/112/132 147/113/132
f 27/114/132 147/113/132 148/114/132
f 28/120/132 148/114/132 149/120/132
f 28/120/132 150/116/132 29/116/132
f 29/116/132 151/117/132 30/117/132
f 31/1/132 151/117/132 152/1/132
f 4/121/147 153/2/147 32/2/147
f 32/2/147 154/21/147 33/21/147
f 34/20/147 154/21/147 155/20/147
f 34/20/148 156/16/148 35/16/148
f 36/14/147 156/16/147 157/14/147
f 36/14/147 158/11/147 37/11/147
f 38/12/149 158/11/149 159/12/149
f 38/12/150 160/10/150 39/10/150
f 40/8/151 160/10/151 161/8/151
f 31/1/1 4/121/1 32/2/1
f 49/4/152 40/8/152 3/5/152
f 58/7/153 39/10/153 40/8/153
f 67/9/1 38/12/1 39/10/1
f 67/9/4 76/13/4 37/11/4
f 76/13/1 85/15/1 36/14/1
f 85/15/1 94/18/1 35/16/1
f 103/17/5 34/20/5 35/16/5
f 112/19/1 33/21/1 34/20/1
f 121/3/1 32/2/1 33/21/1
f 14/22/154 41/25/154 13/23/154
f 41/25/155 42/27/155 12/26/155
f 42/27/156 43/42/156 11/28/156
f 11/28/157 43/42/157 44/29/157
f 10/30/158 44/29/158 45/31/158
f 9/32/159 45/31/159 46/33/159
f 8/34/160 46/33/160 47/35/160
f 7/36/161 47/35/161 48/37/161
f 48/37/162 49/4/162 5/6/162
f 15/39/163 50/40/163 41/25/163
f 50/40/164 51/41/164 42/27/164
f 51/41/165 52/51/165 43/42/165
f 43/42/166 52/51/166 53/43/166
f 44/29/167 53/43/167 54/44/167
f 45/31/168 54/44/168 55/45/168
f 46/33/169 55/45/169 56/46/169
f 47/35/170 56/46/170 57/47/170
f 57/47/171 58/7/171 49/4/171
f 16/48/24 59/49/24 50/40/24
f 59/49/25 60/50/25 51/41/25
f 60/50/26 61/58/26 52/51/26
f 52/51/27 61/58/27 62/52/27
f 62/52/28 63/53/28 54/44/28
f 63/53/29 64/61/29 55/45/29
f 55/45/30 64/61/30 65/54/30
f 65/54/31 66/64/31 57/47/31
f 57/47/42 66/64/42 67/9/42
f 16/48/33 17/65/33 68/55/33
f 59/49/34 68/55/34 69/56/34
f 60/50/35 69/56/35 70/57/35
f 61/58/36 70/57/36 71/59/36
f 71/59/37 72/60/37 63/53/37
f 72/60/38 73/62/38 64/61/38
f 73/62/39 74/63/39 65/54/39
f 74/63/40 75/71/40 66/64/40
f 66/64/41 75/71/41 76/13/41
f 17/65/24 18/73/24 77/66/24
f 77/66/25 78/67/25 69/56/25
f 78/67/26 79/76/26 70/57/26
f 70/57/27 79/76/27 80/68/27
f 71/59/28 80/68/28 81/69/28
f 81/69/29 82/79/29 73/62/29
f 73/62/30 82/79/30 83/70/30
f 83/70/31 84/72/31 75/71/31
f 84/72/42 85/15/42 76/13/42
f 18/73/24 19/82/24 86/74/24
f 86/74/25 87/84/25 78/67/25
f 78/67/26 87/84/26 88/75/26
f 79/76/27 88/75/27 89/77/27
f 80/68/28 89/77/28 90/78/28
f 90/78/29 91/89/29 82/79/29
f 82/79/30 91/89/30 92/80/30
f 92/80/31 93/81/31 84/72/31
f 93/81/42 94/18/42 85/15/42
f 19/82/43 20/92/43 95/83/43
f 95/83/44 96/85/44 87/84/44
f 96/85/45 97/86/45 88/75/45
f 97/86/46 98/87/46 89/77/46
f 98/87/47 99/88/47 90/78/47
f 99/88/48 100/97/48 91/89/48
f 91/89/49 100/97/49 101/90/49
f 92/80/50 101/90/50 102/91/50
f 102/91/51 103/17/51 94/18/51
f 20/92/24 21/100/24 104/93/24
f 104/93/25 105/102/25 96/85/25
f 96/85/26 105/102/26 106/94/26
f 97/86/27 106/94/27 107/95/27
f 107/95/28 108/96/28 99/88/28
f 108/96/29 109/106/29 100/97/29
f 100/97/30 109/106/30 110/98/30
f 110/98/31 111/99/31 102/91/31
f 111/99/42 112/19/42 103/17/42
f 21/100/24 22/109/24 113/101/24
f 113/101/25 114/111/25 105/102/25
f 105/102/26 114/111/26 115/103/26
f 106/94/27 115/103/27 116/104/27
f 116/104/28 117/105/28 108/96/28
f 117/105/29 118/115/29 109/106/29
f 109/106/30 118/115/30 119/107/30
f 119/107/31 120/108/31 111/99/31
f 120/108/42 121/3/42 112/19/42
f 22/109/24 2/118/24 23/110/24
f 23/110/25 24/119/25 114/111/25
f 114/111/26 24/119/26 25/112/26
f 115/103/27 25/112/27 26/113/27
f 116/104/28 26/113/28 27/114/28
f 27/114/29 28/120/29 118/115/29
f 118/115/30 28/120/30 29/116/30
f 29/116/31 30/117/31 120/108/31
f 30/117/42 31/1/42 121/3/42
f 153/2/52 125/121/52 152/1/52
f 124/5/172 161/8/172 170/4/172
f 161/8/173 160/10/173 179/7/173
f 160/10/174 159/12/174 188/9/174
f 188/9/175 159/12/175 158/11/175
f 158/11/176 157/14/176 206/15/176
f 206/15/176 157/14/176 156/16/176
f 156/16/177 155/20/177 224/17/177
f 224/17/178 155/20/178 154/21/178
f 154/21/52 153/2/52 242/3/52
f 134/23/179 162/25/179 135/22/179
f 133/26/180 163/27/180 162/25/180
f 132/28/181 164/42/181 163/27/181
f 132/28/182 131/30/182 165/29/182
f 131/30/183 130/32/183 166/31/183
f 130/32/184 129/34/184 167/33/184
f 129/34/185 128/36/185 168/35/185
f 128/36/186 127/38/186 169/37/186
f 126/6/187 170/4/187 169/37/187
f 162/25/188 171/40/188 136/39/188
f 163/27/189 172/41/189 171/40/189
f 164/42/190 173/51/190 172/41/190
f 164/42/191 165/29/191 174/43/191
f 165/29/192 166/31/192 175/44/192
f 166/31/193 167/33/193 176/45/193
f 167/33/194 168/35/194 177/46/194
f 168/35/195 169/37/195 178/47/195
f 170/4/196 179/7/196 178/47/196
f 171/40/197 180/49/197 137/48/197
f 172/41/198 181/50/198 180/49/198
f 173/51/199 182/58/199 181/50/199
f 174/43/200 183/52/200 182/58/200
f 174/43/201 175/44/201 184/53/201
f 175/44/202 176/45/202 185/61/202
f 176/45/203 177/46/203 186/54/203
f 177/46/204 178/47/204 187/64/204
f 179/7/205 188/9/205 187/64/205
f 137/48/206 180/49/206 189/55/206
f 180/49/207 181/50/207 190/56/207
f 181/50/208 182/58/208 191/57/208
f 182/58/209 183/52/209 192/59/209
f 184/53/210 193/60/210 192/59/210
f 185/61/211 194/62/211 193/60/211
f 186/54/212 195/63/212 194/62/212
f 187/64/213 196/71/213 195/63/213
f 187/64/214 188/9/214 197/13/214
f 189/55/215 198/66/215 139/73/215
f 190/56/216 199/67/216 198/66/216
f 191/57/217 200/76/217 199/67/217
f 192/59/99 201/68/99 200/76/99
f 192/59/218 193/60/218 202/69/218
f 193/60/219 194/62/219 203/79/219
f 194/62/220 195/63/220 204/70/220
f 195/63/221 196/71/221 205/72/221
f 197/13/222 206/15/222 205/72/222
f 139/73/105 198/66/105 207/74/105
f 198/66/106 199/67/106 208/84/106
f 199/67/217 200/76/217 209/75/217
f 200/76/200 201/68/200 210/77/200
f 201/68/100 202/69/100 211/78/100
f 202/69/109 203/79/109 212/89/109
f 204/70/223 213/80/223 212/89/223
f 205/72/111 214/81/111 213/80/111
f 205/72/224 206/15/224 215/18/224
f 140/82/225 207/74/225 216/83/225
f 208/84/226 217/85/226 216/83/226
f 209/75/227 218/86/227 217/85/227
f 210/77/228 219/87/228 218/86/228
f 211/78/117 220/88/117 219/87/117
f 212/89/229 221/97/229 220/88/229
f 212/89/230 213/80/230 222/90/230
f 213/80/231 214/81/231 223/91/231
f 215/18/232 224/17/232 223/91/232
f 141/92/78 216/83/78 225/93/78
f 216/83/233 217/85/233 226/102/233
f 217/85/234 218/86/234 227/94/234
f 218/86/235 219/87/235 228/95/235
f 219/87/236 220/88/236 229/96/236
f 220/88/125 221/97/125 230/106/125
f 222/90/128 231/98/128 230/106/128
f 223/91/127 232/99/127 231/98/127
f 223/91/237 224/17/237 233/19/237
f 142/100/78 225/93/78 234/101/78
f 226/102/122 235/111/122 234/101/122
f 226/102/123 227/94/123 236/103/123
f 227/94/81 228/95/81 237/104/81
f 229/96/124 238/105/124 237/104/124
f 230/106/125 239/115/125 238/105/125
f 230/106/128 231/98/128 240/107/128
f 232/99/127 241/108/127 240/107/127
f 233/19/104 242/3/104 241/108/104
f 143/109/78 234/101/78 144/110/78
f 235/111/122 145/119/122 144/110/122
f 235/111/123 236/103/123 146/112/123
f 236/103/81 237/104/81 147/113/81
f 237/104/124 238/105/124 148/114/124
f 239/115/125 149/120/125 148/114/125
f 239/115/128 240/107/128 150/116/128
f 241/108/127 151/117/127 150/116/127
f 242/3/104 152/1/104 151/117/104
f 13/23/238 134/23/238 122/24/238
f 22/109/131 143/109/131 123/118/131
f 31/1/132 152/1/132 125/121/132
f 40/8/239 161/8/239 124/5/239
f 5/6/240 3/5/240 124/5/240
f 5/6/241 126/6/241 127/38/241
f 7/36/242 6/38/242 127/38/242
f 8/34/243 7/36/243 128/36/243
f 8/34/244 129/34/244 130/32/244
f 9/32/245 130/32/245 131/30/245
f 10/30/246 131/30/246 132/28/246
f 12/26/247 11/28/247 132/28/247
f 13/23/248 12/26/248 133/26/248
f 14/22/249 1/24/249 122/24/249
f 14/22/250 135/22/250 136/39/250
f 15/39/251 136/39/251 137/48/251
f 17/65/145 16/48/145 137/48/145
f 17/65/131 138/65/131 139/73/131
f 18/73/131 139/73/131 140/82/131
f 20/92/146 19/82/146 140/82/146
f 20/92/131 141/92/131 142/100/131
f 21/100/131 142/100/131 143/109/131
f 23/110/132 2/118/132 123/118/132
f 23/110/132 144/110/132 145/119/132
f 24/119/132 145/119/132 146/112/132
f 26/113/132 25/112/132 146/112/132
f 27/114/132 26/113/132 147/113/132
f 28/120/132 27/114/132 148/114/132
f 28/120/132 149/120/132 150/116/132
f 29/116/132 150/116/132 151/117/132
f 31/1/132 30/117/132 151/117/132
f 4/121/147 125/121/147 153/2/147
f 32/2/147 153/2/147 154/21/147
f 34/20/147 33/21/147 154/21/147
f 34/20/148 155/20/148 156/16/148
f 36/14/147 35/16/147 156/16/147
f 36/14/147 157/14/147 158/11/147
f 38/12/149 37/11/149 158/11/149
f 38/12/147 159/12/147 160/10/147
f 40/8/252 39/10/252 160/10/252
