# Blender 4.1.0
# www.blender.org
mtllib Wall1UnitWindowWay.mtl
o Wall1UnitWindowWay
v 0.000000 0.000000 0.000000
v 0.000000 2.768600 0.000000
v 0.000000 0.000000 -0.200000
v 0.000000 2.768600 -0.200000
v 2.500000 0.000000 0.000000
v 2.500000 2.768600 0.000000
v 2.500000 0.000000 -0.200000
v 2.500000 2.768600 -0.200000
v 0.764832 0.937236 -0.200000
v 0.764832 2.116593 -0.200000
v 1.723493 2.116593 -0.200000
v 1.723493 0.937236 -0.200000
v 0.764832 2.116593 0.000000
v 1.723493 0.937236 0.000000
v 1.723493 2.116593 0.000000
v 0.764832 0.937236 0.000000
vn -0.0000 -0.0000 -1.0000
vn -0.0000 -1.0000 -0.0000
vn -0.0000 -0.0000 1.0000
vn -0.0000 1.0000 -0.0000
vn 1.0000 -0.0000 -0.0000
vn -1.0000 -0.0000 -0.0000
vt 1.000000 0.000000
vt 0.000000 0.000000
vt 0.689397 0.338523
vt 0.000000 1.000000
vt 0.689397 0.764499
vt 0.305933 0.764499
vt 1.000000 1.000000
vt 0.305933 0.338523
vt 0.625000 0.232101
vt 0.375000 0.129397
vt 0.375000 0.232101
vt 0.625000 0.620603
vt 0.375000 0.517899
vt 0.375000 0.620603
vt 0.125000 0.517899
vt 0.875000 0.517899
vt 0.625000 0.517899
vt 0.625000 0.129397
vt 0.125000 0.620603
vt 0.875000 0.620603
s 1
usemtl Wall01
f 7/1/1 3/2/1 12/3/1
f 4/4/1 11/5/1 10/6/1
f 5/1/2 3/4/2 7/7/2
f 14/3/3 16/8/3 1/2/3
f 15/5/3 2/4/3 13/6/3
f 2/2/4 8/7/4 4/4/4
f 10/9/5 16/10/5 9/11/5
f 15/12/6 12/13/6 14/14/6
f 9/15/4 14/14/4 12/13/4
f 15/12/2 10/16/2 11/17/2
f 4/7/6 1/2/6 2/4/6
f 12/3/1 11/5/1 8/7/1
f 3/2/1 4/4/1 9/8/1
f 4/4/1 10/6/1 9/8/1
f 12/3/1 8/7/1 7/1/1
f 3/2/1 9/8/1 12/3/1
f 4/4/1 8/7/1 11/5/1
f 13/6/3 2/4/3 16/8/3
f 2/4/3 1/2/3 16/8/3
f 5/1/3 6/7/3 14/3/3
f 6/7/3 15/5/3 14/3/3
f 5/1/3 14/3/3 1/2/3
f 15/5/3 6/7/3 2/4/3
f 6/4/5 7/1/5 8/7/5
f 5/1/2 1/2/2 3/4/2
f 2/2/4 6/1/4 8/7/4
f 10/9/5 13/18/5 16/10/5
f 15/12/6 11/17/6 12/13/6
f 9/15/4 16/19/4 14/14/4
f 15/12/2 13/20/2 10/16/2
f 4/7/6 3/1/6 1/2/6
f 6/4/5 5/2/5 7/1/5
