# Blender 4.0.2
# www.blender.org
mtllib Footstool02.mtl
o foot_stool_leg.002
v -0.132322 -0.003475 -0.166562
v -0.104061 0.285099 -0.160327
v -0.113442 -0.003475 -0.160077
v -0.081981 0.285099 -0.150369
v -0.105621 -0.003475 -0.144421
v -0.072836 0.285099 -0.126328
v -0.113442 -0.003475 -0.128766
v -0.081981 0.285099 -0.102288
v -0.132322 -0.003475 -0.122281
v -0.104061 0.285099 -0.092330
v -0.151203 -0.003475 -0.128766
v -0.126141 0.285099 -0.102288
v -0.159023 -0.003475 -0.144421
v -0.135286 0.285099 -0.126328
v -0.151203 -0.003475 -0.160077
v -0.126141 0.285099 -0.150369
v 0.132322 -0.003475 -0.166562
v 0.104061 0.285099 -0.160327
v 0.113442 -0.003475 -0.160077
v 0.081981 0.285099 -0.150369
v 0.105621 -0.003475 -0.144421
v 0.072836 0.285099 -0.126328
v 0.113442 -0.003475 -0.128766
v 0.081981 0.285099 -0.102288
v 0.132322 -0.003475 -0.122281
v 0.104061 0.285099 -0.092330
v 0.151203 -0.003475 -0.128766
v 0.126141 0.285099 -0.102288
v 0.159023 -0.003475 -0.144421
v 0.135286 0.285099 -0.126328
v 0.151203 -0.003475 -0.160077
v 0.126141 0.285099 -0.150369
v -0.132322 -0.003475 0.166562
v -0.104061 0.285099 0.160327
v -0.113442 -0.003475 0.160077
v -0.081981 0.285099 0.150369
v -0.105621 -0.003475 0.144421
v -0.072836 0.285099 0.126328
v -0.113442 -0.003475 0.128766
v -0.081981 0.285099 0.102288
v -0.132322 -0.003475 0.122281
v -0.104061 0.285099 0.092330
v -0.151203 -0.003475 0.128766
v -0.126141 0.285099 0.102288
v -0.159023 -0.003475 0.144421
v -0.135286 0.285099 0.126328
v -0.151203 -0.003475 0.160077
v -0.126141 0.285099 0.150369
v 0.132322 -0.003475 0.166562
v 0.104061 0.285099 0.160327
v 0.113442 -0.003475 0.160077
v 0.081981 0.285099 0.150369
v 0.105621 -0.003475 0.144421
v 0.072836 0.285099 0.126328
v 0.113442 -0.003475 0.128766
v 0.081981 0.285099 0.102288
v 0.132322 -0.003475 0.122281
v 0.104061 0.285099 0.092330
v 0.151203 -0.003475 0.128766
v 0.126141 0.285099 0.102288
v 0.159023 -0.003475 0.144421
v 0.135286 0.285099 0.126328
v 0.151203 -0.003475 0.160077
v 0.126141 0.285099 0.150369
vn 0.4076 -0.0140 -0.9131
vn 0.3292 -0.0115 -0.9442
vn 0.3248 -0.0114 -0.9457
vn 0.9301 -0.0836 -0.3577
vn 0.8939 -0.0823 -0.4407
vn 0.8916 -0.0822 -0.4454
vn 0.9250 -0.1332 0.3559
vn 0.8895 -0.1289 0.4383
vn 0.8872 -0.1286 0.4432
vn 0.3265 -0.1288 0.9364
vn 0.4042 -0.1275 0.9057
vn 0.3221 -0.1289 0.9379
vn -0.3286 -0.0583 0.9427
vn -0.4071 -0.0544 0.9118
vn -0.3243 -0.0585 0.9442
vn -0.8960 0.0457 0.4418
vn -0.9323 0.0484 0.3585
vn -0.8937 0.0455 0.4464
vn -0.0000 1.0000 -0.0000
vn -0.8932 0.0927 -0.4400
vn -0.9288 0.0985 -0.3574
vn -0.8908 0.0923 -0.4450
vn -0.4068 0.0599 -0.9115
vn -0.3287 0.0599 -0.9425
vn -0.3243 0.0599 -0.9441
vn -0.0000 -1.0000 -0.0000
vn -0.3292 -0.0115 -0.9442
vn -0.4076 -0.0140 -0.9131
vn -0.3248 -0.0114 -0.9457
vn -0.8939 -0.0823 -0.4407
vn -0.9301 -0.0836 -0.3577
vn -0.8916 -0.0822 -0.4454
vn -0.8895 -0.1289 0.4383
vn -0.9250 -0.1332 0.3559
vn -0.8872 -0.1286 0.4432
vn -0.3265 -0.1288 0.9364
vn -0.4042 -0.1275 0.9057
vn -0.4078 -0.1274 0.9041
vn 0.3286 -0.0583 0.9427
vn 0.4071 -0.0544 0.9118
vn 0.4105 -0.0543 0.9102
vn 0.8960 0.0457 0.4418
vn 0.9323 0.0484 0.3585
vn 0.9336 0.0485 0.3551
vn 0.8932 0.0927 -0.4400
vn 0.9288 0.0985 -0.3574
vn 0.9301 0.0987 -0.3538
vn 0.3287 0.0599 -0.9425
vn 0.4068 0.0599 -0.9115
vn 0.3243 0.0599 -0.9441
vn 0.3292 -0.0115 0.9442
vn 0.4076 -0.0140 0.9131
vn 0.3248 -0.0114 0.9457
vn 0.8939 -0.0823 0.4407
vn 0.9301 -0.0836 0.3577
vn 0.8916 -0.0822 0.4454
vn 0.8895 -0.1289 -0.4383
vn 0.9250 -0.1332 -0.3559
vn 0.8872 -0.1286 -0.4432
vn 0.3265 -0.1288 -0.9364
vn 0.4042 -0.1275 -0.9057
vn 0.4078 -0.1274 -0.9041
vn -0.3286 -0.0583 -0.9427
vn -0.4071 -0.0544 -0.9118
vn -0.4105 -0.0543 -0.9102
vn -0.8960 0.0457 -0.4418
vn -0.9323 0.0484 -0.3585
vn -0.9336 0.0485 -0.3551
vn -0.8932 0.0927 0.4400
vn -0.9288 0.0985 0.3574
vn -0.9301 0.0987 0.3538
vn -0.3287 0.0599 0.9425
vn -0.4068 0.0599 0.9115
vn -0.3243 0.0599 0.9441
vn -0.4076 -0.0140 0.9131
vn -0.3292 -0.0115 0.9442
vn -0.3248 -0.0114 0.9457
vn -0.9301 -0.0836 0.3577
vn -0.8939 -0.0823 0.4407
vn -0.8916 -0.0822 0.4454
vn -0.9250 -0.1332 -0.3559
vn -0.8895 -0.1289 -0.4383
vn -0.8872 -0.1286 -0.4432
vn -0.3265 -0.1288 -0.9364
vn -0.4042 -0.1275 -0.9057
vn -0.3221 -0.1289 -0.9379
vn 0.3286 -0.0583 -0.9427
vn 0.4071 -0.0544 -0.9118
vn 0.3243 -0.0585 -0.9442
vn 0.8960 0.0457 -0.4418
vn 0.9323 0.0484 -0.3585
vn 0.8937 0.0455 -0.4464
vn 0.8932 0.0927 0.4400
vn 0.9288 0.0985 0.3574
vn 0.8908 0.0923 0.4450
vn 0.4068 0.0599 0.9115
vn 0.3287 0.0599 0.9425
vn 0.3243 0.0599 0.9441
vn 0.4111 -0.0142 -0.9115
vn 0.9314 -0.0836 -0.3543
vn 0.9263 -0.1333 0.3524
vn 0.4078 -0.1274 0.9041
vn -0.4105 -0.0543 0.9102
vn -0.9336 0.0485 0.3551
vn -0.9301 0.0987 -0.3538
vn -0.4104 0.0598 -0.9099
vn -0.4111 -0.0142 -0.9115
vn -0.9314 -0.0836 -0.3543
vn -0.9263 -0.1333 0.3524
vn -0.3221 -0.1289 0.9379
vn 0.3243 -0.0585 0.9442
vn 0.8937 0.0455 0.4464
vn 0.8908 0.0923 -0.4450
vn 0.4104 0.0598 -0.9099
vn 0.4111 -0.0142 0.9115
vn 0.9314 -0.0836 0.3543
vn 0.9263 -0.1333 -0.3524
vn 0.3221 -0.1289 -0.9379
vn -0.3243 -0.0585 -0.9442
vn -0.8937 0.0455 -0.4464
vn -0.8908 0.0923 0.4450
vn -0.4104 0.0598 0.9099
vn -0.4111 -0.0142 0.9115
vn -0.9314 -0.0836 0.3543
vn -0.9263 -0.1333 -0.3524
vn -0.4078 -0.1274 -0.9041
vn 0.4105 -0.0543 -0.9102
vn 0.9336 0.0485 -0.3551
vn 0.9301 0.0987 0.3538
vn 0.4104 0.0598 0.9099
vt 1.000000 1.000000
vt 0.875000 0.500000
vt 1.000000 0.500000
vt 0.875000 1.000000
vt 0.750000 0.500000
vt 0.750000 1.000000
vt 0.625000 0.500000
vt 0.500000 1.000000
vt 0.500000 0.500000
vt 0.375000 1.000000
vt 0.375000 0.500000
vt 0.250000 1.000000
vt 0.250000 0.500000
vt 0.010000 0.250000
vt 0.250000 0.010000
vt 0.490000 0.250000
vt 0.125000 1.000000
vt 0.125000 0.500000
vt 0.000000 0.500000
vt 0.919706 0.080294
vt 0.580294 0.080294
vt 0.580294 0.419706
vt 0.625000 1.000000
vt 0.250000 0.490000
vt 0.919706 0.419706
vt 0.419706 0.419706
vt 0.080294 0.419706
vt 0.080294 0.080294
vt 0.419706 0.080294
vt 0.000000 1.000000
vt 0.750000 0.490000
vt 0.990000 0.250000
vt 0.750000 0.010000
vt 0.510000 0.250000
s 1
f 2/1/1 3/2/2 1/3/3
f 4/4/4 5/5/5 3/2/6
f 6/6/7 7/7/8 5/5/9
f 7/7/10 10/8/11 9/9/12
f 9/9/13 12/10/14 11/11/15
f 11/11/16 14/12/17 13/13/18
f 14/14/19 10/15/19 6/16/19
f 13/13/20 16/17/21 15/18/22
f 16/17/23 1/19/24 15/18/25
f 7/20/26 11/21/26 15/22/26
f 19/2/27 18/1/28 17/3/29
f 21/5/30 20/4/31 19/2/32
f 23/7/33 22/6/34 21/5/35
f 23/7/36 26/8/37 24/23/38
f 25/9/39 28/10/40 26/8/41
f 27/11/42 30/12/43 28/10/44
f 26/15/19 30/14/19 18/24/19
f 29/13/45 32/17/46 30/12/47
f 17/19/48 32/17/49 31/18/50
f 27/21/26 23/20/26 19/25/26
f 35/2/51 34/1/52 33/3/53
f 37/5/54 36/4/55 35/2/56
f 39/7/57 38/6/58 37/5/59
f 39/7/60 42/8/61 40/23/62
f 41/9/63 44/10/64 42/8/65
f 43/11/66 46/12/67 44/10/68
f 42/15/19 46/14/19 34/24/19
f 45/13/69 48/17/70 46/12/71
f 33/19/72 48/17/73 47/18/74
f 43/21/26 39/20/26 35/25/26
f 50/1/75 51/2/76 49/3/77
f 52/4/78 53/5/79 51/2/80
f 54/6/81 55/7/82 53/5/83
f 55/7/84 58/8/85 57/9/86
f 57/9/87 60/10/88 59/11/89
f 59/11/90 62/12/91 61/13/92
f 62/14/19 58/15/19 54/16/19
f 61/13/93 64/17/94 63/18/95
f 64/17/96 49/19/97 63/18/98
f 55/20/26 59/21/26 63/22/26
f 2/1/1 4/4/99 3/2/2
f 4/4/4 6/6/100 5/5/5
f 6/6/7 8/23/101 7/7/8
f 7/7/10 8/23/102 10/8/11
f 9/9/13 10/8/103 12/10/14
f 11/11/16 12/10/104 14/12/17
f 6/16/19 4/26/19 2/24/19
f 2/24/19 16/27/19 14/14/19
f 14/14/19 12/28/19 10/15/19
f 10/15/19 8/29/19 6/16/19
f 6/16/19 2/24/19 14/14/19
f 13/13/20 14/12/105 16/17/21
f 16/17/23 2/30/106 1/19/24
f 15/22/26 1/31/26 3/25/26
f 3/25/26 5/32/26 7/20/26
f 7/20/26 9/33/26 11/21/26
f 11/21/26 13/34/26 15/22/26
f 15/22/26 3/25/26 7/20/26
f 19/2/27 20/4/107 18/1/28
f 21/5/30 22/6/108 20/4/31
f 23/7/33 24/23/109 22/6/34
f 23/7/36 25/9/110 26/8/37
f 25/9/39 27/11/111 28/10/40
f 27/11/42 29/13/112 30/12/43
f 18/24/19 20/26/19 22/16/19
f 22/16/19 24/29/19 26/15/19
f 26/15/19 28/28/19 30/14/19
f 30/14/19 32/27/19 18/24/19
f 18/24/19 22/16/19 26/15/19
f 29/13/45 31/18/113 32/17/46
f 17/19/48 18/30/114 32/17/49
f 19/25/26 17/31/26 31/22/26
f 31/22/26 29/34/26 27/21/26
f 27/21/26 25/33/26 23/20/26
f 23/20/26 21/32/26 19/25/26
f 19/25/26 31/22/26 27/21/26
f 35/2/51 36/4/115 34/1/52
f 37/5/54 38/6/116 36/4/55
f 39/7/57 40/23/117 38/6/58
f 39/7/60 41/9/118 42/8/61
f 41/9/63 43/11/119 44/10/64
f 43/11/66 45/13/120 46/12/67
f 34/24/19 36/26/19 38/16/19
f 38/16/19 40/29/19 42/15/19
f 42/15/19 44/28/19 46/14/19
f 46/14/19 48/27/19 34/24/19
f 34/24/19 38/16/19 42/15/19
f 45/13/69 47/18/121 48/17/70
f 33/19/72 34/30/122 48/17/73
f 35/25/26 33/31/26 47/22/26
f 47/22/26 45/34/26 43/21/26
f 43/21/26 41/33/26 39/20/26
f 39/20/26 37/32/26 35/25/26
f 35/25/26 47/22/26 43/21/26
f 50/1/75 52/4/123 51/2/76
f 52/4/78 54/6/124 53/5/79
f 54/6/81 56/23/125 55/7/82
f 55/7/84 56/23/126 58/8/85
f 57/9/87 58/8/127 60/10/88
f 59/11/90 60/10/128 62/12/91
f 54/16/19 52/26/19 50/24/19
f 50/24/19 64/27/19 62/14/19
f 62/14/19 60/28/19 58/15/19
f 58/15/19 56/29/19 54/16/19
f 54/16/19 50/24/19 62/14/19
f 61/13/93 62/12/129 64/17/94
f 64/17/96 50/30/130 49/19/97
f 63/22/26 49/31/26 51/25/26
f 51/25/26 53/32/26 55/20/26
f 55/20/26 57/33/26 59/21/26
f 59/21/26 61/34/26 63/22/26
f 63/22/26 51/25/26 55/20/26
o foot_stool_top.003
v 0.000222 0.266547 -0.177754
v -0.028753 0.296547 -0.201039
v 0.029197 0.296547 -0.201039
v 0.000222 0.347614 -0.177754
v 0.029197 0.317614 -0.201039
v -0.028753 0.317614 -0.201039
v 0.090438 0.266547 -0.153542
v 0.077010 0.296547 -0.188207
v 0.127181 0.296547 -0.159201
v 0.090438 0.347614 -0.153542
v 0.127181 0.317614 -0.159201
v 0.077010 0.317614 -0.188207
v 0.156503 0.266547 -0.087371
v 0.183408 0.296547 -0.102884
v 0.156503 0.347614 -0.087371
v 0.183408 0.317614 -0.102884
v 0.180692 0.266547 0.003048
v 0.211747 0.296547 0.003048
v 0.180692 0.347614 0.003048
v 0.211747 0.317614 0.003048
v 0.156503 0.266547 0.093467
v 0.183408 0.296547 0.108979
v 0.156503 0.347614 0.093467
v 0.183408 0.317614 0.108979
v 0.090438 0.266547 0.159637
v 0.127181 0.296547 0.165297
v 0.077010 0.296547 0.194303
v 0.090438 0.347614 0.159637
v 0.077010 0.317614 0.194303
v 0.127181 0.317614 0.165297
v 0.000222 0.266547 0.183849
v 0.029197 0.296547 0.207135
v -0.028753 0.296547 0.207135
v 0.000222 0.347614 0.183849
v -0.028753 0.317614 0.207135
v 0.029197 0.317614 0.207135
v -0.089995 0.266547 0.159637
v -0.076566 0.296547 0.194303
v -0.126737 0.296547 0.165297
v -0.089995 0.347614 0.159637
v -0.126737 0.317614 0.165297
v -0.076566 0.317614 0.194303
v -0.156059 0.266547 0.093467
v -0.182964 0.296547 0.108979
v -0.156059 0.347614 0.093467
v -0.182964 0.317614 0.108979
v -0.180248 0.266547 0.003048
v -0.211303 0.296547 0.003048
v -0.180248 0.347614 0.003048
v -0.211303 0.317614 0.003048
v -0.156059 0.266547 -0.087371
v -0.182964 0.296547 -0.102884
v -0.156059 0.347614 -0.087371
v -0.182964 0.317614 -0.102884
v -0.089995 0.266547 -0.153542
v -0.126737 0.296547 -0.159201
v -0.076566 0.296547 -0.188207
v -0.089995 0.347614 -0.153542
v -0.076566 0.317614 -0.188207
v -0.126737 0.317614 -0.159201
vn -0.3831 -0.0000 -0.9237
vn -0.1307 -0.0000 -0.9914
vn 0.8663 -0.0000 -0.4995
vn 1.0000 -0.0000 -0.0000
vn 0.8663 -0.0000 0.4995
vn 0.6093 -0.0000 0.7929
vn 0.3831 -0.0000 0.9237
vn 0.1307 -0.0000 0.9914
vn -0.1307 -0.0000 0.9914
vn -0.3831 -0.0000 0.9237
vn -0.6093 -0.0000 0.7929
vn -0.8663 -0.0000 0.4995
vn -1.0000 -0.0000 -0.0000
vn -0.8663 -0.0000 -0.4995
vn -0.6093 -0.0000 -0.7929
vn 0.6093 -0.0000 -0.7929
vn -0.0000 1.0000 -0.0000
vn 0.1307 -0.0000 -0.9914
vn 0.3831 -0.0000 -0.9237
vn -0.0000 -0.6809 -0.7324
vn -0.1273 -0.6819 -0.7202
vn 0.1273 -0.6819 -0.7202
vn -0.0000 0.6809 -0.7324
vn 0.1273 0.6819 -0.7202
vn -0.1273 0.6819 -0.7202
vn 0.3666 -0.6809 -0.6341
vn 0.2504 -0.6820 -0.6872
vn 0.4706 -0.6820 -0.5599
vn 0.3666 0.6809 -0.6341
vn 0.4706 0.6820 -0.5599
vn 0.2504 0.6820 -0.6872
vn 0.3666 -0.6809 0.6341
vn 0.4706 -0.6820 0.5599
vn 0.2504 -0.6820 0.6872
vn 0.3666 0.6809 0.6341
vn 0.2504 0.6820 0.6872
vn 0.4706 0.6820 0.5599
vn -0.0000 -0.6809 0.7324
vn 0.1273 -0.6819 0.7202
vn -0.1273 -0.6819 0.7202
vn -0.0000 0.6809 0.7324
vn -0.1273 0.6819 0.7202
vn 0.1273 0.6819 0.7202
vn -0.3666 -0.6809 0.6341
vn -0.2504 -0.6820 0.6872
vn -0.4706 -0.6820 0.5599
vn -0.3666 0.6809 0.6341
vn -0.4706 0.6820 0.5599
vn -0.2504 0.6820 0.6872
vn -0.3666 -0.6809 -0.6341
vn -0.4706 -0.6820 -0.5599
vn -0.2504 -0.6820 -0.6872
vn -0.3666 0.6809 -0.6341
vn -0.2504 0.6820 -0.6872
vn -0.4706 0.6820 -0.5599
vn 0.6019 -0.7192 -0.3470
vn 0.6019 0.7192 -0.3470
vn 0.6948 -0.7192 -0.0000
vn 0.6948 0.7192 -0.0000
vn 0.6019 -0.7192 0.3470
vn 0.6019 0.7192 0.3470
vn -0.6019 -0.7192 0.3470
vn -0.6019 0.7192 0.3470
vn -0.6948 -0.7192 -0.0000
vn -0.6948 0.7192 -0.0000
vn -0.6019 -0.7192 -0.3470
vn -0.6019 0.7192 -0.3470
vn -0.0000 -1.0000 -0.0000
vt 0.060503 0.814968
vt 0.022830 0.685032
vt 0.060503 0.685032
vt 0.833333 0.814968
vt 0.750000 0.685032
vt 0.833333 0.685032
vt 0.750000 0.814968
vt 0.666667 0.685032
vt 0.666667 0.814968
vt 0.606148 0.685032
vt 0.560503 0.814968
vt 0.522830 0.685032
vt 0.560503 0.685032
vt 0.477170 0.814968
vt 0.439497 0.685032
vt 0.477170 0.685032
vt 0.393853 0.814968
vt 0.333333 0.685032
vt 0.393853 0.685032
vt 0.333333 0.814968
vt 0.250000 0.685032
vt 0.250000 0.814968
vt 0.166667 0.685032
vt 0.166667 0.814968
vt 0.106148 0.685032
vt 0.893853 0.814968
vt 0.893852 0.685032
vt 0.072681 0.352428
vt 0.250000 0.045187
vt 0.427319 0.352428
vt 0.977170 0.814968
vt 0.939497 0.685032
vt 0.977170 0.685032
vt 0.750000 0.454813
vt 0.717125 0.481191
vt 0.782875 0.481191
vt 0.250000 0.454813
vt 0.282875 0.481191
vt 0.217125 0.481191
vt 0.852361 0.427386
vt 0.837125 0.466655
vt 0.894050 0.433796
vt 0.352361 0.427386
vt 0.394050 0.433796
vt 0.337125 0.466655
vt 0.852361 0.072614
vt 0.894050 0.066204
vt 0.837125 0.033345
vt 0.352361 0.072614
vt 0.337125 0.033345
vt 0.394050 0.066204
vt 0.750000 0.045187
vt 0.782875 0.018809
vt 0.717125 0.018809
vt 0.217125 0.018809
vt 0.282875 0.018809
vt 0.647639 0.072614
vt 0.662875 0.033345
vt 0.605950 0.066204
vt 0.147639 0.072614
vt 0.105950 0.066204
vt 0.162875 0.033345
vt 0.647639 0.427386
vt 0.605950 0.433796
vt 0.662875 0.466655
vt 0.147639 0.427386
vt 0.162875 0.466655
vt 0.105950 0.433796
vt 0.000000 0.814968
vt 0.000000 0.685032
vt 0.939497 0.814968
vt 0.927319 0.352428
vt 0.457846 0.370000
vt 0.990000 0.250000
vt 0.957846 0.370000
vt 0.490000 0.250000
vt 0.454764 0.250000
vt 0.927319 0.147572
vt 0.954764 0.250000
vt 0.427319 0.147572
vt 0.457846 0.130000
vt 0.957846 0.130000
vt 0.606148 0.814968
vt 0.522830 0.814968
vt 0.439497 0.814968
vt 0.572681 0.147572
vt 0.072681 0.147572
vt 0.042154 0.130000
vt 0.510000 0.250000
vt 0.542154 0.130000
vt 0.010000 0.250000
vt 0.045236 0.250000
vt 0.572681 0.352428
vt 0.545236 0.250000
vt 0.042154 0.370000
vt 0.542154 0.370000
vt 0.106148 0.814968
vt 0.022830 0.814968
vt 0.750000 0.814968
vt 0.666667 0.814968
vt 0.333333 0.814968
vt 0.250000 0.814968
vt 0.166667 0.814968
vt 0.833333 0.814968
s 1
f 123/35/131 66/36/132 121/37/131
f 80/38/133 82/39/134 78/40/133
f 84/41/134 86/42/135 82/39/134
f 88/43/135 90/44/136 86/42/135
f 93/45/137 96/46/138 91/47/137
f 99/48/139 102/49/140 97/50/139
f 105/51/141 108/52/142 103/53/141
f 110/54/142 112/55/143 108/52/142
f 114/56/143 116/57/144 112/55/143
f 118/58/144 120/59/145 116/57/144
f 75/60/146 78/40/133 73/61/146
f 117/62/147 98/63/147 79/64/147
f 69/65/148 72/66/149 67/67/148
f 65/68/150 66/69/151 67/70/152
f 68/71/153 69/72/154 70/73/155
f 71/74/156 72/75/157 73/76/158
f 74/77/159 75/78/160 76/79/161
f 89/80/162 90/81/163 91/82/164
f 92/83/165 93/84/166 94/85/167
f 95/86/168 96/87/169 97/88/170
f 98/63/171 99/89/172 100/90/173
f 101/91/174 102/92/175 103/93/176
f 104/94/177 105/95/178 106/96/179
f 119/97/180 120/98/181 121/99/182
f 122/100/183 123/101/184 124/102/185
f 72/75/157 65/68/150 67/70/152
f 76/79/161 68/71/153 74/77/159
f 66/36/132 69/103/148 67/104/148
f 73/61/146 76/105/149 75/60/146
f 73/76/158 77/106/186 71/74/156
f 75/78/160 79/64/187 80/107/187
f 82/108/188 77/106/186 78/109/186
f 84/110/189 79/64/187 83/111/189
f 82/108/188 85/112/190 81/113/188
f 84/110/189 87/114/191 88/115/191
f 90/81/163 85/112/190 86/116/190
f 94/85/167 87/114/191 92/83/165
f 91/47/137 94/117/136 93/45/137
f 91/82/164 95/86/168 89/80/162
f 93/84/166 98/63/171 100/90/173
f 97/50/139 100/118/138 99/48/139
f 102/92/175 95/86/168 97/88/170
f 106/96/179 98/63/171 104/94/177
f 103/53/141 106/119/140 105/51/141
f 103/93/176 107/120/192 101/91/174
f 105/95/178 109/121/193 110/122/193
f 112/123/194 107/120/192 108/124/192
f 114/125/195 109/121/193 113/126/195
f 112/123/194 115/127/196 111/128/194
f 114/125/195 117/62/197 118/129/197
f 120/98/181 115/127/196 116/130/196
f 124/102/185 117/62/197 122/100/183
f 121/37/131 124/131/145 123/35/131
f 121/99/182 65/68/150 119/97/180
f 123/101/184 68/71/153 70/73/155
f 81/113/198 101/91/198 119/97/198
f 123/35/131 70/132/132 66/36/132
f 80/38/133 84/133/134 82/39/134
f 84/41/134 88/134/135 86/42/135
f 88/43/135 94/117/136 90/44/136
f 93/45/137 100/118/138 96/46/138
f 99/48/139 106/119/140 102/49/140
f 105/51/141 110/135/142 108/52/142
f 110/54/142 114/136/143 112/55/143
f 114/56/143 118/137/144 116/57/144
f 118/58/144 124/131/145 120/59/145
f 75/60/146 80/138/133 78/40/133
f 79/64/147 74/77/147 68/71/147
f 68/71/147 122/100/147 117/62/147
f 117/62/147 113/126/147 109/121/147
f 109/121/147 104/94/147 98/63/147
f 98/63/147 92/83/147 87/114/147
f 87/114/147 83/111/147 79/64/147
f 79/64/147 68/71/147 117/62/147
f 117/62/147 109/121/147 98/63/147
f 98/63/147 87/114/147 79/64/147
f 69/65/148 76/105/149 72/66/149
f 72/75/157 71/74/156 65/68/150
f 76/79/161 69/72/154 68/71/153
f 66/36/132 70/132/132 69/103/148
f 73/61/146 72/66/149 76/105/149
f 73/76/158 78/109/186 77/106/186
f 75/78/160 74/77/159 79/64/187
f 82/108/188 81/113/188 77/106/186
f 84/110/189 80/107/187 79/64/187
f 82/108/188 86/116/190 85/112/190
f 84/110/189 83/111/189 87/114/191
f 90/81/163 89/80/162 85/112/190
f 94/85/167 88/115/191 87/114/191
f 91/47/137 90/44/136 94/117/136
f 91/82/164 96/87/169 95/86/168
f 93/84/166 92/83/165 98/63/171
f 97/50/139 96/46/138 100/118/138
f 102/92/175 101/91/174 95/86/168
f 106/96/179 99/89/172 98/63/171
f 103/53/141 102/49/140 106/119/140
f 103/93/176 108/124/192 107/120/192
f 105/95/178 104/94/177 109/121/193
f 112/123/194 111/128/194 107/120/192
f 114/125/195 110/122/193 109/121/193
f 112/123/194 116/130/196 115/127/196
f 114/125/195 113/126/195 117/62/197
f 120/98/181 119/97/180 115/127/196
f 124/102/185 118/129/197 117/62/197
f 121/37/131 120/59/145 124/131/145
f 121/99/182 66/69/151 65/68/150
f 123/101/184 122/100/183 68/71/153
f 119/97/198 65/68/198 71/74/198
f 71/74/198 77/106/198 81/113/198
f 81/113/198 85/112/198 89/80/198
f 89/80/198 95/86/198 101/91/198
f 101/91/198 107/120/198 111/128/198
f 111/128/198 115/127/198 119/97/198
f 119/97/198 71/74/198 81/113/198
f 81/113/198 89/80/198 101/91/198
f 101/91/198 111/128/198 119/97/198
