# Blender 4.0.2
# www.blender.org
mtllib Table01.mtl
o Table02
v -0.482912 0.000925 -0.976300
v -0.442971 0.699353 -0.965312
v -0.450819 0.000925 -0.963654
v -0.398372 0.699353 -0.942236
v -0.437525 0.000925 -0.933124
v -0.379899 0.699353 -0.886526
v -0.450819 0.000925 -0.902594
v -0.398372 0.699353 -0.830815
v -0.482912 0.000925 -0.889948
v -0.442971 0.699353 -0.807740
v -0.515005 0.000925 -0.902594
v -0.487569 0.699353 -0.830815
v -0.528298 0.000925 -0.933124
v -0.506042 0.699353 -0.886526
v -0.515005 0.000925 -0.963654
v -0.487569 0.699353 -0.942236
v 0.482912 0.000925 -0.976300
v 0.442971 0.699353 -0.965312
v 0.450819 0.000925 -0.963654
v 0.398372 0.699353 -0.942236
v 0.437525 0.000925 -0.933124
v 0.379899 0.699353 -0.886526
v 0.450819 0.000925 -0.902594
v 0.398372 0.699353 -0.830815
v 0.482912 0.000925 -0.889948
v 0.442971 0.699353 -0.807740
v 0.515005 0.000925 -0.902594
v 0.487569 0.699353 -0.830815
v 0.528298 0.000925 -0.933124
v 0.506042 0.699353 -0.886526
v 0.515005 0.000925 -0.963654
v 0.487569 0.699353 -0.942236
v -0.482912 0.000925 0.976300
v -0.442971 0.699353 0.965312
v -0.450819 0.000925 0.963654
v -0.398372 0.699353 0.942236
v -0.437525 0.000925 0.933124
v -0.379899 0.699353 0.886526
v -0.450819 0.000925 0.902594
v -0.398372 0.699353 0.830815
v -0.482912 0.000925 0.889948
v -0.442971 0.699353 0.807740
v -0.515005 0.000925 0.902594
v -0.487569 0.699353 0.830815
v -0.528298 0.000925 0.933124
v -0.506042 0.699353 0.886526
v -0.515005 0.000925 0.963654
v -0.487569 0.699353 0.942236
v 0.482912 0.000925 0.976300
v 0.442971 0.699353 0.965312
v 0.450819 0.000925 0.963654
v 0.398372 0.699353 0.942236
v 0.437525 0.000925 0.933124
v 0.379899 0.699353 0.886526
v 0.450819 0.000925 0.902594
v 0.398372 0.699353 0.830815
v 0.482912 0.000925 0.889948
v 0.442971 0.699353 0.807740
v 0.515005 0.000925 0.902594
v 0.487569 0.699353 0.830815
v 0.528298 0.000925 0.933124
v 0.506042 0.699353 0.886526
v 0.515005 0.000925 0.963654
v 0.487569 0.699353 0.942236
vn 0.3666 -0.0063 -0.9304
vn 0.9154 -0.0565 -0.3986
vn 0.9121 -0.1018 0.3971
vn 0.3635 -0.1294 0.9226
vn -0.3654 -0.0809 0.9273
vn -0.9169 0.0026 0.3992
vn -0.0000 1.0000 -0.0000
vn -0.9158 0.0482 -0.3987
vn -0.3663 0.0429 -0.9295
vn -0.0000 -1.0000 -0.0000
vn -0.3666 -0.0063 -0.9304
vn -0.9154 -0.0565 -0.3986
vn -0.9121 -0.1018 0.3971
vn -0.4560 -0.1248 0.8812
vn 0.4581 -0.0780 0.8854
vn 0.9492 0.0049 0.3147
vn 0.9479 0.0512 -0.3143
vn 0.3663 0.0429 -0.9295
vn 0.3666 -0.0063 0.9304
vn 0.9154 -0.0565 0.3986
vn 0.9121 -0.1018 -0.3971
vn 0.4560 -0.1248 -0.8812
vn -0.4581 -0.0780 -0.8854
vn -0.9492 0.0049 -0.3147
vn -0.9479 0.0512 0.3143
vn -0.3663 0.0429 0.9295
vn -0.3666 -0.0063 0.9304
vn -0.9154 -0.0565 0.3986
vn -0.9121 -0.1018 -0.3971
vn -0.3635 -0.1294 -0.9226
vn 0.3654 -0.0809 -0.9273
vn 0.9169 0.0026 -0.3992
vn 0.9158 0.0482 0.3987
vn 0.3663 0.0429 0.9295
vn 0.4595 -0.0073 -0.8881
vn 0.9476 -0.0572 -0.3142
vn 0.9441 -0.1031 0.3131
vn 0.4560 -0.1248 0.8812
vn -0.4581 -0.0780 0.8854
vn -0.9492 0.0049 0.3147
vn -0.9479 0.0512 -0.3143
vn -0.4592 0.0402 -0.8874
vn -0.4595 -0.0073 -0.8881
vn -0.9476 -0.0572 -0.3142
vn -0.9441 -0.1031 0.3131
vn -0.3635 -0.1294 0.9226
vn 0.3654 -0.0809 0.9273
vn 0.9169 0.0026 0.3992
vn 0.9158 0.0482 -0.3987
vn 0.4592 0.0402 -0.8874
vn 0.4595 -0.0073 0.8881
vn 0.9476 -0.0572 0.3142
vn 0.9441 -0.1031 -0.3131
vn 0.3635 -0.1294 -0.9226
vn -0.3654 -0.0809 -0.9273
vn -0.9169 0.0026 -0.3992
vn -0.9158 0.0482 0.3987
vn -0.4592 0.0402 0.8874
vn -0.4595 -0.0073 0.8881
vn -0.9476 -0.0572 0.3142
vn -0.9441 -0.1031 -0.3131
vn -0.4560 -0.1248 -0.8812
vn 0.4581 -0.0780 -0.8854
vn 0.9492 0.0049 -0.3147
vn 0.9479 0.0512 0.3143
vn 0.4592 0.0402 0.8874
vt 1.000000 1.000000
vt 0.875000 0.500000
vt 1.000000 0.500000
vt 0.875000 1.000000
vt 0.750000 0.500000
vt 0.750000 1.000000
vt 0.625000 0.500000
vt 0.500000 1.000000
vt 0.500000 0.500000
vt 0.375000 1.000000
vt 0.375000 0.500000
vt 0.250000 1.000000
vt 0.250000 0.500000
vt 0.010000 0.250000
vt 0.250000 0.010000
vt 0.490000 0.250000
vt 0.125000 1.000000
vt 0.125000 0.500000
vt 0.000000 0.500000
vt 0.919706 0.080294
vt 0.580294 0.080294
vt 0.580294 0.419706
vt 0.625000 1.000000
vt 0.250000 0.490000
vt 0.919706 0.419706
vt 0.419706 0.419706
vt 0.080294 0.419706
vt 0.080294 0.080294
vt 0.419706 0.080294
vt 0.000000 1.000000
vt 0.750000 0.490000
vt 0.990000 0.250000
vt 0.750000 0.010000
vt 0.510000 0.250000
s 0
f 2/1/1 3/2/1 1/3/1
f 4/4/2 5/5/2 3/2/2
f 6/6/3 7/7/3 5/5/3
f 7/7/4 10/8/4 9/9/4
f 9/9/5 12/10/5 11/11/5
f 11/11/6 14/12/6 13/13/6
f 14/14/7 10/15/7 6/16/7
f 13/13/8 16/17/8 15/18/8
f 16/17/9 1/19/9 15/18/9
f 7/20/10 11/21/10 15/22/10
f 19/2/11 18/1/11 17/3/11
f 21/5/12 20/4/12 19/2/12
f 23/7/13 22/6/13 21/5/13
f 23/7/14 26/8/14 24/23/14
f 25/9/15 28/10/15 26/8/15
f 27/11/16 30/12/16 28/10/16
f 26/15/7 30/14/7 18/24/7
f 29/13/17 32/17/17 30/12/17
f 17/19/18 32/17/18 31/18/18
f 27/21/10 23/20/10 19/25/10
f 35/2/19 34/1/19 33/3/19
f 37/5/20 36/4/20 35/2/20
f 39/7/21 38/6/21 37/5/21
f 39/7/22 42/8/22 40/23/22
f 41/9/23 44/10/23 42/8/23
f 43/11/24 46/12/24 44/10/24
f 42/15/7 46/14/7 34/24/7
f 45/13/25 48/17/25 46/12/25
f 33/19/26 48/17/26 47/18/26
f 43/21/10 39/20/10 35/25/10
f 50/1/27 51/2/27 49/3/27
f 52/4/28 53/5/28 51/2/28
f 54/6/29 55/7/29 53/5/29
f 55/7/30 58/8/30 57/9/30
f 57/9/31 60/10/31 59/11/31
f 59/11/32 62/12/32 61/13/32
f 62/14/7 58/15/7 54/16/7
f 61/13/33 64/17/33 63/18/33
f 64/17/34 49/19/34 63/18/34
f 55/20/10 59/21/10 63/22/10
f 2/1/35 4/4/35 3/2/35
f 4/4/36 6/6/36 5/5/36
f 6/6/37 8/23/37 7/7/37
f 7/7/38 8/23/38 10/8/38
f 9/9/39 10/8/39 12/10/39
f 11/11/40 12/10/40 14/12/40
f 6/16/7 4/26/7 2/24/7
f 2/24/7 16/27/7 14/14/7
f 14/14/7 12/28/7 10/15/7
f 10/15/7 8/29/7 6/16/7
f 6/16/7 2/24/7 14/14/7
f 13/13/41 14/12/41 16/17/41
f 16/17/42 2/30/42 1/19/42
f 15/22/10 1/31/10 3/25/10
f 3/25/10 5/32/10 7/20/10
f 7/20/10 9/33/10 11/21/10
f 11/21/10 13/34/10 15/22/10
f 15/22/10 3/25/10 7/20/10
f 19/2/43 20/4/43 18/1/43
f 21/5/44 22/6/44 20/4/44
f 23/7/45 24/23/45 22/6/45
f 23/7/46 25/9/46 26/8/46
f 25/9/47 27/11/47 28/10/47
f 27/11/48 29/13/48 30/12/48
f 18/24/7 20/26/7 22/16/7
f 22/16/7 24/29/7 26/15/7
f 26/15/7 28/28/7 30/14/7
f 30/14/7 32/27/7 18/24/7
f 18/24/7 22/16/7 26/15/7
f 29/13/49 31/18/49 32/17/49
f 17/19/50 18/30/50 32/17/50
f 19/25/10 17/31/10 31/22/10
f 31/22/10 29/34/10 27/21/10
f 27/21/10 25/33/10 23/20/10
f 23/20/10 21/32/10 19/25/10
f 19/25/10 31/22/10 27/21/10
f 35/2/51 36/4/51 34/1/51
f 37/5/52 38/6/52 36/4/52
f 39/7/53 40/23/53 38/6/53
f 39/7/54 41/9/54 42/8/54
f 41/9/55 43/11/55 44/10/55
f 43/11/56 45/13/56 46/12/56
f 34/24/7 36/26/7 38/16/7
f 38/16/7 40/29/7 42/15/7
f 42/15/7 44/28/7 46/14/7
f 46/14/7 48/27/7 34/24/7
f 34/24/7 38/16/7 42/15/7
f 45/13/57 47/18/57 48/17/57
f 33/19/58 34/30/58 48/17/58
f 35/25/10 33/31/10 47/22/10
f 47/22/10 45/34/10 43/21/10
f 43/21/10 41/33/10 39/20/10
f 39/20/10 37/32/10 35/25/10
f 35/25/10 47/22/10 43/21/10
f 50/1/59 52/4/59 51/2/59
f 52/4/60 54/6/60 53/5/60
f 54/6/61 56/23/61 55/7/61
f 55/7/62 56/23/62 58/8/62
f 57/9/63 58/8/63 60/10/63
f 59/11/64 60/10/64 62/12/64
f 54/16/7 52/26/7 50/24/7
f 50/24/7 64/27/7 62/14/7
f 62/14/7 60/28/7 58/15/7
f 58/15/7 56/29/7 54/16/7
f 54/16/7 50/24/7 62/14/7
f 61/13/65 62/12/65 64/17/65
f 64/17/66 50/30/66 49/19/66
f 63/22/10 49/31/10 51/25/10
f 51/25/10 53/32/10 55/20/10
f 55/20/10 57/33/10 59/21/10
f 59/21/10 61/34/10 63/22/10
f 63/22/10 51/25/10 55/20/10
o Table02.003
v -0.596903 0.696081 1.021697
v -0.596903 0.726081 1.051697
v -0.626903 0.726081 1.021697
v -0.596903 0.785502 1.051697
v -0.596903 0.815502 1.021697
v -0.626903 0.785502 1.021697
v -0.596903 0.696081 -1.060301
v -0.626903 0.726081 -1.060301
v -0.596903 0.726081 -1.090301
v -0.596903 0.815502 -1.060301
v -0.596903 0.785502 -1.090301
v -0.626903 0.785502 -1.060301
v 0.597423 0.696081 1.021697
v 0.627423 0.726081 1.021697
v 0.597423 0.726081 1.051697
v 0.597423 0.815502 1.021697
v 0.597423 0.785502 1.051697
v 0.627423 0.785502 1.021697
v 0.597423 0.696081 -1.060301
v 0.597423 0.726081 -1.090301
v 0.627423 0.726081 -1.060301
v 0.597423 0.815502 -1.060301
v 0.627423 0.785502 -1.060301
v 0.597423 0.785502 -1.090301
vn -0.0000 -0.0000 1.0000
vn 1.0000 -0.0000 -0.0000
vn -0.0000 1.0000 -0.0000
vn -1.0000 -0.0000 -0.0000
vn -0.0000 -0.0000 -1.0000
vn -0.5773 -0.5773 0.5774
vn -0.5774 0.5773 0.5774
vn -0.5774 -0.5773 -0.5774
vn -0.5774 0.5773 -0.5774
vn 0.5773 -0.5773 0.5774
vn 0.5774 0.5773 0.5774
vn 0.5774 -0.5773 -0.5774
vn 0.5774 0.5773 -0.5774
vn -0.7071 -0.7071 -0.0000
vn -0.7071 -0.0000 0.7071
vn -0.7071 0.7071 -0.0000
vn -0.7071 -0.0000 -0.7071
vn -0.0000 -0.7071 -0.7071
vn -0.0000 0.7071 -0.7071
vn 0.7071 -0.0000 -0.7071
vn 0.7071 -0.7071 -0.0000
vn 0.7071 0.7071 -0.0000
vn 0.7071 -0.0000 0.7071
vn -0.0000 -0.7071 0.7071
vn -0.0000 0.7071 0.7071
vn -0.0000 -1.0000 -0.0000
vt 0.562197 0.755979
vt 0.437803 0.994021
vt 0.437803 0.755979
vt 0.562197 0.503501
vt 0.437803 0.746499
vt 0.437803 0.503501
vt 0.869021 0.503501
vt 0.630979 0.746499
vt 0.630979 0.503501
vt 0.562197 0.003501
vt 0.437803 0.246499
vt 0.437803 0.003501
vt 0.562197 0.255979
vt 0.437803 0.494021
vt 0.437803 0.255979
vt 0.130979 0.746499
vt 0.130979 0.750000
vt 0.125000 0.746499
vt 0.869021 0.750000
vt 0.869021 0.746499
vt 0.875000 0.746499
vt 0.130979 0.503501
vt 0.125000 0.503501
vt 0.130979 0.500000
vt 0.869021 0.500000
vt 0.875000 0.503501
vt 0.369021 0.746499
vt 0.375000 0.746499
vt 0.369021 0.750000
vt 0.630979 0.750000
vt 0.625000 0.746499
vt 0.369021 0.503501
vt 0.369021 0.500000
vt 0.375000 0.503501
vt 0.625000 0.503501
vt 0.630979 0.500000
vt 0.562197 0.000000
vt 0.437803 0.000000
vt 0.562197 0.246499
vt 0.562197 0.494021
vt 0.562197 0.746499
vt 0.562197 0.994021
s 1
f 81/35/67 66/36/67 79/37/67
f 87/38/68 78/39/68 85/40/68
f 74/41/69 80/42/69 86/43/69
f 70/44/70 72/45/70 67/46/70
f 75/47/71 84/48/71 73/49/71
f 65/50/72 66/51/72 67/52/72
f 68/53/73 69/54/73 70/55/73
f 71/56/74 72/57/74 73/58/74
f 74/41/75 75/59/75 76/60/75
f 77/61/76 78/62/76 79/63/76
f 80/42/77 81/64/77 82/65/77
f 83/66/78 84/67/78 85/68/78
f 86/43/79 87/69/79 88/70/79
f 65/50/80 72/57/80 71/56/80
f 68/71/81 67/46/81 66/72/81
f 74/41/82 70/55/82 69/54/82
f 73/49/83 76/73/83 75/47/83
f 71/56/84 84/67/84 83/66/84
f 86/43/85 75/59/85 74/41/85
f 85/40/86 88/74/86 87/38/86
f 83/66/87 78/39/87 77/61/87
f 80/42/88 87/38/88 86/43/88
f 79/37/89 82/75/89 81/35/89
f 77/61/90 66/51/90 65/50/90
f 69/54/91 81/64/91 80/42/91
f 83/66/92 65/50/92 71/56/92
f 81/35/67 68/76/67 66/36/67
f 87/38/68 82/75/68 78/39/68
f 74/41/69 69/54/69 80/42/69
f 70/44/70 76/73/70 72/45/70
f 75/47/71 88/74/71 84/48/71
f 65/50/80 67/52/80 72/57/80
f 68/71/81 70/44/81 67/46/81
f 74/41/82 76/60/82 70/55/82
f 73/49/83 72/45/83 76/73/83
f 71/56/84 73/58/84 84/67/84
f 86/43/85 88/70/85 75/59/85
f 85/40/86 84/48/86 88/74/86
f 83/66/87 85/40/87 78/39/87
f 80/42/88 82/75/88 87/38/88
f 79/37/89 78/39/89 82/75/89
f 77/61/90 79/63/90 66/51/90
f 69/54/91 68/53/91 81/64/91
f 83/66/92 77/61/92 65/50/92
