# Blender 4.5.14 LTS
# www.blender.org
mtllib card_reader.mtl
o card_reader
v -0.040000 1.230000 0.000000 0.7764 0.7764 0.7764
v 0.040000 1.230000 0.000000 0.7725 0.7725 0.7725
v 0.040000 1.370000 0.035000 0.9607 0.9607 0.9607
v -0.040000 1.370000 0.035000 0.9647 0.9647 0.9647
v 0.040000 1.370000 0.000000 0.7725 0.7725 0.7725
v -0.040000 1.370000 0.000000 0.7764 0.7764 0.7764
v 0.040000 1.230000 0.035000 0.9647 0.9647 0.9647
v -0.040000 1.230000 0.035000 0.9647 0.9647 0.9647
v -0.030000 1.329000 0.049000 0.9529 0.9529 0.9529
v -0.030000 1.341000 0.049000 0.9568 0.9568 0.9568
v -0.030000 1.329000 0.035000 0.8000 0.8000 0.8000
v 0.030000 1.329000 0.035000 0.7882 0.7882 0.7882
v 0.030000 1.341000 0.035000 0.7882 0.7882 0.7882
v 0.030000 1.341000 0.049000 0.9607 0.9607 0.9607
v -0.030000 1.341000 0.035000 0.7960 0.7960 0.7960
v 0.030000 1.329000 0.049000 0.9529 0.9529 0.9529
vn -0.0000 -0.0000 1.0000
vn -0.0000 -0.0000 -1.0000
vn -1.0000 -0.0000 -0.0000
vn 1.0000 -0.0000 -0.0000
vn -0.0000 1.0000 -0.0000
vn -0.0000 -1.0000 -0.0000
vt 0.532227 0.907227
vt 0.584961 0.907227
vt 0.584961 0.999023
vt 0.532227 0.999023
vt 0.063477 0.813477
vt 0.098075 0.813477
vt 0.098075 0.874023
vt 0.063477 0.874023
vt 0.078613 0.813477
vt 0.078613 0.874023
vt 0.124023 0.813477
vt 0.124023 0.839966
vt 0.063477 0.839966
vt 0.774414 0.938477
vt 0.832539 0.938477
vt 0.832539 0.950102
vt 0.774414 0.950102
vt 0.787977 0.938477
vt 0.787977 0.950102
vt 0.832539 0.952039
vt 0.774414 0.952039
s 0
usemtl props
f 8/1/1 7/2/1 3/3/1 4/4/1
f 2/5/2 1/6/2 6/7/2 5/8/2
f 1/5/3 8/9/3 4/10/3 6/8/3
f 7/5/4 2/9/4 5/10/4 3/8/4
f 4/5/5 3/11/5 5/12/5 6/13/5
f 1/5/6 2/11/6 7/12/6 8/13/6
f 9/14/1 16/15/1 14/16/1 10/17/1
f 12/14/2 11/15/2 15/16/2 13/17/2
f 11/14/3 9/18/3 10/19/3 15/17/3
f 16/14/4 12/18/4 13/19/4 14/17/4
f 10/14/5 14/15/5 13/20/5 15/21/5
f 11/14/6 12/15/6 16/20/6 9/21/6
