# Blender 4.5.14 LTS
# www.blender.org
mtllib crowbar.mtl
o crowbar
v 0.208585 0.001341 -0.070598 0.7098 0.7098 0.7098
v -0.283618 0.001340 0.097908 0.6980 0.6980 0.6980
v 0.205165 0.001341 -0.079995 0.7098 0.7098 0.7098
v -0.285328 0.010000 0.093209 0.8353 0.8353 0.8353
v -0.283618 0.018660 0.097908 0.9176 0.9176 0.9176
v 0.203312 0.010000 -0.084641 0.8313 0.8313 0.8313
v 0.204880 0.018659 -0.079891 0.9451 0.9451 0.9451
v -0.280198 0.018660 0.107305 0.9215 0.9215 0.9215
v -0.278488 0.010000 0.112003 0.8313 0.8313 0.8313
v 0.210153 0.010000 -0.065848 0.8274 0.8274 0.8274
v 0.259067 0.012254 -0.088972 0.7059 0.7059 0.7059
v 0.255646 0.012254 -0.098369 0.7059 0.7059 0.7059
v 0.251788 0.027746 -0.086322 0.8823 0.8823 0.8823
v 0.208300 0.018659 -0.070494 0.9490 0.9490 0.9490
v 0.257137 0.020000 -0.082949 0.7843 0.7843 0.7843
v 0.272477 0.052739 -0.104495 0.8000 0.8000 0.8000
v 0.250297 0.020000 -0.101742 0.7882 0.7882 0.7882
v 0.248367 0.027746 -0.095719 0.8784 0.8784 0.8784
v 0.291338 0.047261 -0.100718 0.8706 0.8706 0.8706
v 0.265442 0.073482 -0.101934 0.7764 0.7764 0.7764
v 0.269091 0.080000 -0.108583 0.8862 0.8862 0.8862
v 0.275898 0.052739 -0.095098 0.7960 0.7960 0.7960
v 0.268862 0.073482 -0.092537 0.7804 0.7804 0.7804
v 0.285328 0.050000 -0.093209 0.7960 0.7960 0.7960
v 0.275931 0.080000 -0.089789 0.8823 0.8823 0.8823
v 0.287918 0.047261 -0.110114 0.8117 0.8117 0.8117
v 0.278488 0.050000 -0.112003 0.7921 0.7921 0.7921
v 0.241272 0.076458 -0.093137 0.8039 0.8039 0.8039
v 0.279580 0.086518 -0.096438 0.9529 0.9529 0.9529
v 0.243948 0.093542 -0.094111 0.9607 0.9607 0.9607
v 0.247368 0.093542 -0.084714 0.9607 0.9607 0.9607
v 0.276160 0.086518 -0.105835 0.9529 0.9529 0.9529
v 0.240900 0.085000 -0.098322 0.8902 0.8902 0.8902
v -0.280198 0.001340 0.107305 0.7020 0.7020 0.7020
v 0.244692 0.076458 -0.083740 0.8039 0.8039 0.8039
v 0.247740 0.085000 -0.079528 0.8980 0.8980 0.8980
v -0.306678 0.003000 0.122264 0.7725 0.7725 0.7725
v -0.278488 0.003000 0.112003 0.7490 0.7490 0.7490
v -0.278488 0.009000 0.112003 0.8313 0.8313 0.8313
v -0.306678 0.009000 0.122264 0.8862 0.8862 0.8862
v -0.285328 0.009000 0.093209 0.8353 0.8353 0.8353
v -0.313519 0.009000 0.103470 0.8902 0.8902 0.8902
v -0.313519 0.003000 0.103470 0.7725 0.7725 0.7725
v -0.285328 0.003000 0.093209 0.7490 0.7490 0.7490
vn 0.2962 -0.5000 0.8138
vn 0.3408 -0.5005 0.7958
vn 0.3450 -0.5005 0.7940
vn -0.0000 -1.0000 -0.0000
vn 0.0940 -0.9950 -0.0342
vn -0.2962 -0.5000 -0.8138
vn -0.2461 -0.5005 -0.8300
vn -0.2505 -0.5005 -0.8287
vn -0.2962 0.5000 -0.8138
vn -0.3441 0.5007 -0.7943
vn -0.3401 0.5007 -0.7960
vn -0.0000 1.0000 -0.0000
vn -0.0910 0.9953 0.0331
vn 0.2962 0.5000 0.8138
vn 0.2512 0.5007 0.8284
vn 0.2470 0.5007 0.8297
vn 0.3889 -0.4997 0.7740
vn 0.1871 -0.9800 -0.0681
vn -0.1996 -0.4997 -0.8429
vn -0.3874 0.5001 -0.7745
vn -0.1811 0.9813 0.0659
vn 0.2011 0.5001 0.8423
vn 0.5655 -0.6217 -0.5420
vn -0.7071 0.7071 -0.0000
vn -0.9628 0.1728 0.2077
vn 0.7816 -0.6217 0.0517
vn 0.3699 -0.5282 -0.7643
vn 0.1644 0.9864 -0.0000
vn 0.7747 -0.5282 0.3477
vn -0.7878 -0.1859 -0.5871
vn -0.5951 -0.3756 -0.7105
vn -0.6015 -0.3705 -0.7077
vn -0.8839 -0.3395 0.3217
vn -0.2261 -0.1859 0.9562
vn -0.0059 -0.3705 0.9288
vn 0.0008 -0.3756 0.9268
vn 0.7906 0.1763 0.5864
vn 0.6087 0.3637 0.7052
vn 0.6098 0.3628 0.7047
vn 0.8953 0.3037 -0.3259
vn 0.2287 0.1763 -0.9574
vn 0.0141 0.3627 -0.9318
vn 0.0130 0.3637 -0.9314
vn -0.3604 -0.5266 -0.7699
vn -0.1080 -0.9934 0.0393
vn 0.2188 -0.5266 0.8215
vn 0.3817 0.5183 0.7653
vn 0.1887 0.9796 -0.0687
vn -0.1995 0.5183 -0.8316
vn -0.9397 -0.0000 0.3420
vn -0.9269 0.1644 0.3374
vn 0.3420 -0.0000 0.9397
vn -0.3420 -0.0000 -0.9397
vn 0.9397 -0.0000 -0.3420
vt 0.125977 0.875977
vt 0.146484 0.875977
vt 0.146484 0.900586
vt 0.125977 0.900586
vt 0.166992 0.875977
vt 0.166992 0.900586
vt 0.187500 0.875977
vt 0.187500 0.900586
vt 0.208008 0.875977
vt 0.208008 0.900586
vt 0.228516 0.875977
vt 0.228516 0.900586
vt 0.249023 0.875977
vt 0.249023 0.900586
vt 0.146484 0.925195
vt 0.125977 0.925195
vt 0.166992 0.925195
vt 0.187500 0.925195
vt 0.208008 0.925195
vt 0.228516 0.925195
vt 0.249023 0.925195
vt 0.146484 0.949805
vt 0.125977 0.949805
vt 0.166992 0.949805
vt 0.187500 0.949805
vt 0.208008 0.949805
vt 0.228516 0.949805
vt 0.249023 0.949805
vt 0.146484 0.974414
vt 0.125977 0.974414
vt 0.166992 0.974414
vt 0.187500 0.974414
vt 0.208008 0.974414
vt 0.228516 0.974414
vt 0.249023 0.974414
vt 0.146484 0.999023
vt 0.125977 0.999023
vt 0.166992 0.999023
vt 0.187500 0.999023
vt 0.208008 0.999023
vt 0.228516 0.999023
vt 0.249023 0.999023
vt 0.218262 0.999023
vt 0.156738 0.999023
vt 0.125977 0.937500
vt 0.156738 0.875977
vt 0.218262 0.875977
vt 0.249023 0.937500
vt 0.125977 0.813477
vt 0.140508 0.813477
vt 0.140508 0.816383
vt 0.125977 0.816383
vt 0.135664 0.813477
vt 0.135664 0.816383
vt 0.140508 0.823164
vt 0.125977 0.823164
s 1
usemtl props
f 9/1/1 34/2/1 1/3/2 10/4/3
f 34/2/4 2/5/4 3/6/5 1/3/5
f 2/5/6 4/7/6 6/8/7 3/6/8
f 4/7/9 5/9/9 7/10/10 6/8/11
f 5/9/12 8/11/12 14/12/13 7/10/13
f 8/11/14 9/13/14 10/14/15 14/12/16
f 10/4/3 1/3/2 11/15/17 15/16/17
f 1/3/5 3/6/5 12/17/18 11/15/18
f 3/6/8 6/8/7 17/18/19 12/17/19
f 6/8/11 7/10/10 18/19/20 17/18/20
f 7/10/13 14/12/13 13/20/21 18/19/21
f 14/12/16 10/14/15 15/21/22 13/20/22
f 15/16/23 11/15/23 16/22/23 27/23/23
f 11/15/24 12/17/24 22/24/25 16/22/25
f 12/17/26 17/18/26 24/25/26 22/24/26
f 17/18/27 18/19/27 19/26/27 24/25/27
f 18/19/28 13/20/28 26/27/28 19/26/28
f 13/20/29 15/21/29 27/28/29 26/27/29
f 27/23/30 16/22/30 20/29/31 21/30/32
f 16/22/25 22/24/25 23/31/33 20/29/33
f 22/24/34 24/25/34 25/32/35 23/31/36
f 24/25/37 19/26/37 29/33/38 25/32/39
f 19/26/40 26/27/40 32/34/40 29/33/40
f 26/27/41 27/28/41 21/35/42 32/34/43
f 21/30/32 20/29/31 28/36/44 33/37/44
f 20/29/45 23/31/45 35/38/45 28/36/45
f 23/31/36 25/32/35 36/39/46 35/38/46
f 25/32/39 29/33/38 31/40/47 36/39/47
f 29/33/48 32/34/48 30/41/48 31/40/48
f 32/34/43 21/35/42 33/42/49 30/41/49
s 0
f 8/43/50 5/44/50 4/45/50 2/46/50 34/47/50 9/48/50
f 33/45/51 28/46/51 35/47/51 36/48/51 31/43/51 30/44/51
f 37/49/52 38/50/52 39/51/52 40/52/52
f 44/49/53 43/50/53 42/51/53 41/52/53
f 43/49/50 37/53/50 40/54/50 42/52/50
f 38/49/54 44/53/54 41/54/54 39/52/54
f 40/49/12 39/50/12 41/55/12 42/56/12
f 43/49/4 44/50/4 38/55/4 37/56/4
