# Blender 4.5.14 LTS
# www.blender.org
mtllib flashlight.mtl
o flashlight
v -0.095000 0.014056 -0.009405 0.7960 0.7960 0.7960
v -0.095000 0.027000 0.000000 0.8980 0.8980 0.8980
v -0.095000 0.031944 -0.015217 0.9333 0.9333 0.9333
v -0.095000 0.022056 -0.015217 0.8627 0.8627 0.8627
v -0.095000 0.039944 0.009405 0.9568 0.9568 0.9568
v -0.095000 0.043000 -0.000000 0.9686 0.9686 0.9686
v -0.095000 0.022056 0.015217 0.8588 0.8588 0.8588
v -0.095000 0.014056 0.009405 0.8000 0.8000 0.8000
v -0.091000 0.013247 -0.009992 0.7255 0.7255 0.7255
v -0.091000 0.032253 -0.016168 0.9490 0.9490 0.9490
v -0.095000 0.039944 -0.009405 0.9607 0.9607 0.9607
v -0.091000 0.044000 -0.000000 1.0000 1.0000 1.0000
v -0.091000 0.040753 -0.009992 0.9921 0.9921 0.9921
v -0.095000 0.031944 0.015217 0.9255 0.9255 0.9255
v -0.091000 0.032253 0.016168 0.9372 0.9372 0.9372
v -0.091000 0.021747 0.016168 0.8353 0.8353 0.8353
v -0.095000 0.011000 0.000000 0.7686 0.7686 0.7686
v -0.091000 0.010000 0.000000 0.6863 0.6863 0.6863
v 0.035000 0.021747 -0.016168 0.8392 0.8392 0.8392
v -0.091000 0.021747 -0.016168 0.8431 0.8431 0.8431
v 0.035000 0.032253 -0.016168 0.9451 0.9451 0.9451
v -0.091000 0.040753 0.009992 0.9921 0.9921 0.9921
v -0.091000 0.013247 0.009992 0.7294 0.7294 0.7294
v 0.035000 0.013247 -0.009992 0.7216 0.7216 0.7216
v 0.070000 0.018966 -0.024727 0.8313 0.8313 0.8313
v 0.035000 0.040753 -0.009992 0.9607 0.9607 0.9607
v 0.070000 0.048034 -0.015282 1.0000 1.0000 1.0000
v 0.070000 0.035034 -0.024727 0.9490 0.9490 0.9490
v 0.035000 0.044000 -0.000000 0.6667 0.6667 0.6667
v 0.035000 0.040753 0.009992 0.9568 0.9568 0.9568
v 0.070000 0.053000 -0.000000 1.0000 1.0000 1.0000
v 0.035000 0.032253 0.016168 0.9372 0.9372 0.9372
v 0.035000 0.021747 0.016168 0.8353 0.8353 0.8353
v 0.035000 0.013247 0.009992 0.7294 0.7294 0.7294
v 0.035000 0.010000 0.000000 0.6824 0.6824 0.6824
v 0.070000 0.005966 -0.015282 0.7176 0.7176 0.7176
v 0.095000 0.035343 -0.025679 0.9372 0.9372 0.9372
v 0.095000 0.048843 0.015870 0.9804 0.9804 0.9804
v 0.095000 0.054000 -0.000000 0.9843 0.9843 0.9843
v 0.070000 0.048034 0.015282 0.9960 0.9960 0.9960
v 0.070000 0.035034 0.024727 0.9490 0.9490 0.9490
v 0.095000 0.035343 0.025679 0.9411 0.9411 0.9411
v 0.070000 0.018966 0.024727 0.8313 0.8313 0.8313
v 0.095000 0.018657 0.025679 0.8431 0.8431 0.8431
v 0.070000 0.005966 0.015282 0.7098 0.7098 0.7098
v 0.070000 0.001000 0.000000 0.6745 0.6745 0.6745
v 0.095000 0.000000 0.000000 0.7255 0.7255 0.7255
v 0.095000 0.005157 -0.015870 0.7529 0.7529 0.7529
v 0.095000 0.018657 -0.025679 0.8431 0.8431 0.8431
v 0.095000 0.048843 -0.015870 0.9843 0.9843 0.9843
v 0.095000 0.005157 0.015870 0.7529 0.7529 0.7529
v 0.038000 0.052000 0.006000 0.9372 0.9372 0.9372
v 0.012000 0.052000 -0.006000 0.9568 0.9568 0.9568
v 0.038000 0.052000 -0.006000 0.9451 0.9451 0.9451
v 0.012000 0.036000 0.006000 0.6745 0.6745 0.6745
v 0.012000 0.036000 -0.006000 0.6745 0.6745 0.6745
v 0.038000 0.036000 0.006000 0.6667 0.6667 0.6667
v 0.038000 0.036000 -0.006000 0.6667 0.6667 0.6667
v 0.012000 0.052000 0.006000 0.9529 0.9529 0.9529
vn -1.0000 -0.0000 -0.0000
vn -0.2425 -0.9701 -0.0000
vn -0.2425 -0.7849 -0.5702
vn -0.1194 -0.8032 -0.5836
vn -0.1194 -0.9929 -0.0000
vn -0.2425 -0.2998 -0.9227
vn -0.1194 -0.3068 -0.9443
vn -0.2425 0.2998 -0.9227
vn -0.1194 0.3068 -0.9443
vn -0.2425 0.7849 -0.5702
vn -0.1194 0.8032 -0.5836
vn -0.2425 0.9701 -0.0000
vn -0.1194 0.9929 -0.0000
vn -0.2425 0.7849 0.5702
vn -0.1194 0.8032 0.5836
vn -0.2425 0.2998 0.9227
vn -0.1194 0.3068 0.9443
vn -0.2425 -0.2998 0.9227
vn -0.1194 -0.3068 0.9443
vn -0.2425 -0.7849 0.5702
vn -0.1194 -0.8032 0.5836
vn -0.1287 -0.8023 -0.5829
vn -0.1287 -0.9917 -0.0000
vn -0.1287 -0.3064 -0.9431
vn -0.1287 0.3064 -0.9431
vn -0.1287 0.8023 -0.5829
vn -0.1287 0.9917 -0.0000
vn -0.1287 0.8023 0.5829
vn -0.1287 0.3064 0.9431
vn -0.1287 -0.3064 0.9431
vn -0.1287 -0.8023 0.5829
vn -0.1424 -0.8008 -0.5818
vn -0.1424 -0.9898 -0.0000
vn -0.1424 -0.3059 -0.9414
vn -0.1424 0.3059 -0.9414
vn -0.1424 0.8008 -0.5818
vn -0.1424 0.9898 -0.0000
vn -0.1424 0.8008 0.5818
vn -0.1424 0.3059 0.9414
vn -0.1424 -0.3059 0.9414
vn -0.1424 -0.8008 0.5818
vn -0.0400 -0.8084 -0.5873
vn -0.0400 -0.9992 -0.0000
vn -0.0400 -0.3088 -0.9503
vn -0.0400 0.3088 -0.9503
vn -0.0400 0.8084 -0.5873
vn -0.0400 0.9992 -0.0000
vn -0.0400 0.8084 0.5873
vn -0.0400 0.3088 0.9503
vn -0.0400 -0.3088 0.9503
vn -0.0400 -0.8084 0.5873
vn 1.0000 -0.0000 -0.0000
vn -0.0000 -0.0000 1.0000
vn -0.0000 -0.0000 -1.0000
vn -0.0000 1.0000 -0.0000
vn -0.0000 -1.0000 -0.0000
vt 0.004004 0.813477
vt 0.007031 0.818150
vt 0.000977 0.818150
vt 0.010059 0.813477
vt 0.013086 0.818150
vt 0.016113 0.813477
vt 0.019141 0.818150
vt 0.022168 0.813477
vt 0.025195 0.818150
vt 0.028223 0.813477
vt 0.031250 0.818150
vt 0.034277 0.813477
vt 0.037305 0.818150
vt 0.040332 0.813477
vt 0.043359 0.818150
vt 0.046387 0.813477
vt 0.049414 0.818150
vt 0.052441 0.813477
vt 0.055469 0.818150
vt 0.058496 0.813477
vt 0.061523 0.818150
vt 0.007031 0.819355
vt 0.000977 0.819355
vt 0.013086 0.819355
vt 0.019141 0.819355
vt 0.025195 0.819355
vt 0.031250 0.819355
vt 0.037305 0.819355
vt 0.043359 0.819355
vt 0.049414 0.819355
vt 0.055469 0.819355
vt 0.061523 0.819355
vt 0.007031 0.856159
vt 0.000977 0.856159
vt 0.013086 0.856159
vt 0.019141 0.856159
vt 0.025195 0.856159
vt 0.031250 0.856159
vt 0.037305 0.856159
vt 0.043359 0.856159
vt 0.049414 0.856159
vt 0.055469 0.856159
vt 0.061523 0.856159
vt 0.007031 0.866715
vt 0.000977 0.866715
vt 0.013086 0.866715
vt 0.019141 0.866715
vt 0.025195 0.866715
vt 0.031250 0.866715
vt 0.037305 0.866715
vt 0.043359 0.866715
vt 0.049414 0.866715
vt 0.055469 0.866715
vt 0.061523 0.866715
vt 0.007031 0.874023
vt 0.000977 0.874023
vt 0.013086 0.874023
vt 0.019141 0.874023
vt 0.025195 0.874023
vt 0.031250 0.874023
vt 0.037305 0.874023
vt 0.043359 0.874023
vt 0.049414 0.874023
vt 0.055469 0.874023
vt 0.061523 0.874023
vt 0.909180 0.859375
vt 0.906382 0.868428
vt 0.899058 0.874023
vt 0.890005 0.874023
vt 0.882680 0.868428
vt 0.879883 0.859375
vt 0.882680 0.850322
vt 0.890005 0.844727
vt 0.899058 0.844727
vt 0.906382 0.850322
vt 0.500977 0.813477
vt 0.516477 0.813477
vt 0.516477 0.838664
vt 0.500977 0.838664
vt 0.512602 0.813477
vt 0.512602 0.838664
vt 0.516477 0.825102
vt 0.500977 0.825102
s 1
usemtl props
f 2/1/1 1/2/1 17/3/1
f 2/4/1 4/5/1 1/2/1
f 2/6/1 3/7/1 4/5/1
f 2/8/1 11/9/1 3/7/1
f 2/10/1 6/11/1 11/9/1
f 2/12/1 5/13/1 6/11/1
f 2/14/1 14/15/1 5/13/1
f 2/16/1 7/17/1 14/15/1
f 2/18/1 8/19/1 7/17/1
f 2/20/1 17/21/1 8/19/1
f 17/3/2 1/2/3 9/22/4 18/23/5
f 1/2/3 4/5/6 20/24/7 9/22/4
f 4/5/6 3/7/8 10/25/9 20/24/7
f 3/7/8 11/9/10 13/26/11 10/25/9
f 11/9/10 6/11/12 12/27/13 13/26/11
f 6/11/12 5/13/14 22/28/15 12/27/13
f 5/13/14 14/15/16 15/29/17 22/28/15
f 14/15/16 7/17/18 16/30/19 15/29/17
f 7/17/18 8/19/20 23/31/21 16/30/19
f 8/19/20 17/21/2 18/32/5 23/31/21
f 18/23/5 9/22/4 24/33/22 35/34/23
f 9/22/4 20/24/7 19/35/24 24/33/22
f 20/24/7 10/25/9 21/36/25 19/35/24
f 10/25/9 13/26/11 26/37/26 21/36/25
f 13/26/11 12/27/13 29/38/27 26/37/26
f 12/27/13 22/28/15 30/39/28 29/38/27
f 22/28/15 15/29/17 32/40/29 30/39/28
f 15/29/17 16/30/19 33/41/30 32/40/29
f 16/30/19 23/31/21 34/42/31 33/41/30
f 23/31/21 18/32/5 35/43/23 34/42/31
f 35/34/23 24/33/22 36/44/32 46/45/33
f 24/33/22 19/35/24 25/46/34 36/44/32
f 19/35/24 21/36/25 28/47/35 25/46/34
f 21/36/25 26/37/26 27/48/36 28/47/35
f 26/37/26 29/38/27 31/49/37 27/48/36
f 29/38/27 30/39/28 40/50/38 31/49/37
f 30/39/28 32/40/29 41/51/39 40/50/38
f 32/40/29 33/41/30 43/52/40 41/51/39
f 33/41/30 34/42/31 45/53/41 43/52/40
f 34/42/31 35/43/23 46/54/33 45/53/41
f 46/45/33 36/44/32 48/55/42 47/56/43
f 36/44/32 25/46/34 49/57/44 48/55/42
f 25/46/34 28/47/35 37/58/45 49/57/44
f 28/47/35 27/48/36 50/59/46 37/58/45
f 27/48/36 31/49/37 39/60/47 50/59/46
f 31/49/37 40/50/38 38/61/48 39/60/47
f 40/50/38 41/51/39 42/62/49 38/61/48
f 41/51/39 43/52/40 44/63/50 42/62/49
f 43/52/40 45/53/41 51/64/51 44/63/50
f 45/53/41 46/54/33 47/65/43 51/64/51
s 0
f 47/66/52 48/67/52 49/68/52 37/69/52 50/70/52 39/71/52 38/72/52 42/73/52 44/74/52 51/75/52
f 59/76/53 55/77/53 57/78/53 52/79/53
f 56/76/54 53/77/54 54/78/54 58/79/54
f 53/76/55 59/80/55 52/81/55 54/79/55
f 55/76/56 56/80/56 58/81/56 57/79/56
f 52/76/52 57/77/52 58/82/52 54/83/52
f 53/76/1 56/77/1 55/82/1 59/83/1
