# Blender 4.5.14 LTS
# www.blender.org
mtllib fuse.mtl
o fuse
v -0.025000 0.010500 -0.009000 0.8000 0.8000 0.8000
v 0.025000 0.016864 -0.006364 0.8509 0.8509 0.8509
v -0.025000 0.019500 -0.000000 0.8588 0.8588 0.8588
v -0.025000 0.016864 0.006364 0.8549 0.8549 0.8549
v 0.025000 0.010500 0.009000 0.7960 0.7960 0.7960
v 0.025000 0.016864 0.006364 0.8509 0.8509 0.8509
v -0.025000 0.001500 0.000000 0.6706 0.6706 0.6706
v 0.025000 0.001500 0.000000 0.6706 0.6706 0.6706
v 0.025000 0.004136 0.006364 0.7059 0.7059 0.7059
v 0.025000 0.004136 -0.006364 0.7059 0.7059 0.7059
v 0.025000 0.010500 -0.009000 0.8039 0.8039 0.8039
v 0.025000 0.019500 -0.000000 0.8549 0.8549 0.8549
v -0.025000 0.004136 0.006364 0.7059 0.7059 0.7059
v -0.025000 0.010500 0.009000 0.7960 0.7960 0.7960
v -0.025000 0.016864 -0.006364 0.8509 0.8509 0.8509
v -0.025000 0.004136 -0.006364 0.7098 0.7098 0.7098
v -0.025000 0.003075 -0.007425 0.7412 0.7412 0.7412
v -0.034000 0.003075 -0.007425 0.7725 0.7725 0.7725
v -0.034000 0.010500 -0.010500 0.8941 0.8941 0.8941
v -0.034000 0.017925 -0.007425 0.9725 0.9725 0.9725
v -0.034000 0.021000 -0.000000 0.9843 0.9843 0.9843
v -0.025000 0.017925 0.007425 0.9490 0.9490 0.9490
v -0.025000 0.021000 -0.000000 0.9607 0.9607 0.9607
v -0.025000 0.010500 0.010500 0.8627 0.8627 0.8627
v -0.034000 0.000000 0.000000 0.7255 0.7255 0.7255
v -0.025000 0.003075 0.007425 0.7412 0.7412 0.7412
v -0.025000 0.000000 0.000000 0.6941 0.6941 0.6941
v -0.025000 0.010500 -0.010500 0.8706 0.8706 0.8706
v -0.025000 0.017925 -0.007425 0.9529 0.9529 0.9529
v -0.034000 0.003075 0.007425 0.7725 0.7725 0.7725
v -0.034000 0.010500 0.010500 0.8862 0.8862 0.8862
v -0.034000 0.017925 0.007425 0.9725 0.9725 0.9725
v 0.034000 0.003075 -0.007425 0.7764 0.7764 0.7764
v 0.025000 0.017925 -0.007425 0.9490 0.9490 0.9490
v 0.025000 0.021000 -0.000000 0.9607 0.9607 0.9607
v 0.025000 0.017925 0.007425 0.9451 0.9451 0.9451
v 0.034000 0.017925 0.007425 0.9725 0.9725 0.9725
v 0.025000 0.010500 0.010500 0.8588 0.8588 0.8588
v 0.025000 0.003075 0.007425 0.7451 0.7451 0.7451
v 0.034000 0.010500 0.010500 0.8902 0.8902 0.8902
v 0.034000 0.000000 0.000000 0.7294 0.7294 0.7294
v 0.034000 0.003075 0.007425 0.7764 0.7764 0.7764
v 0.034000 0.010500 -0.010500 0.8980 0.8980 0.8980
v 0.034000 0.017925 -0.007425 0.9725 0.9725 0.9725
v 0.034000 0.021000 -0.000000 0.9843 0.9843 0.9843
v 0.025000 0.010500 -0.010500 0.8706 0.8706 0.8706
v 0.025000 0.003075 -0.007425 0.7412 0.7412 0.7412
v 0.025000 0.000000 0.000000 0.6902 0.6902 0.6902
vn -0.0000 -1.0000 -0.0000
vn -0.0000 -0.7071 -0.7071
vn -0.0000 -0.0000 -1.0000
vn -0.0000 0.7071 -0.7071
vn -0.0000 1.0000 -0.0000
vn -0.0000 0.7071 0.7071
vn -0.0000 -0.0000 1.0000
vn -0.0000 -0.7071 0.7071
vn 1.0000 -0.0000 -0.0000
vn -1.0000 -0.0000 -0.0000
vt 0.750977 0.829102
vt 0.758545 0.829102
vt 0.758545 0.874023
vt 0.750977 0.874023
vt 0.766113 0.829102
vt 0.766113 0.874023
vt 0.773682 0.829102
vt 0.773682 0.874023
vt 0.781250 0.829102
vt 0.781250 0.874023
vt 0.788818 0.829102
vt 0.788818 0.874023
vt 0.796387 0.829102
vt 0.796387 0.874023
vt 0.803955 0.829102
vt 0.803955 0.874023
vt 0.811523 0.829102
vt 0.811523 0.874023
vt 0.897461 0.968750
vt 0.888594 0.990157
vt 0.867188 0.999023
vt 0.845781 0.990157
vt 0.836914 0.968750
vt 0.845781 0.947343
vt 0.867188 0.938477
vt 0.888594 0.947343
vt 0.836914 0.938477
vt 0.844482 0.938477
vt 0.844482 0.999023
vt 0.836914 0.999023
vt 0.852051 0.938477
vt 0.852051 0.999023
vt 0.859619 0.938477
vt 0.859619 0.999023
vt 0.874756 0.938477
vt 0.874756 0.999023
vt 0.882324 0.938477
vt 0.882324 0.999023
vt 0.889893 0.938477
vt 0.889893 0.999023
vt 0.897461 0.938477
vt 0.897461 0.999023
s 1
usemtl props
f 7/1/1 16/2/2 10/3/2 8/4/1
f 16/2/2 1/5/3 11/6/3 10/3/2
f 1/5/3 15/7/4 2/8/4 11/6/3
f 15/7/4 3/9/5 12/10/5 2/8/4
f 3/9/5 4/11/6 6/12/6 12/10/5
f 4/11/6 14/13/7 5/14/7 6/12/6
f 14/13/7 13/15/8 9/16/8 5/14/7
f 13/15/8 7/17/1 8/18/1 9/16/8
s 0
f 8/19/9 10/20/9 11/21/9 2/22/9 12/23/9 6/24/9 5/25/9 9/26/9
f 13/20/10 14/21/10 4/22/10 3/23/10 15/24/10 1/25/10 16/26/10 7/19/10
s 1
f 25/27/1 18/28/2 17/29/2 27/30/1
f 18/28/2 19/31/3 28/32/3 17/29/2
f 19/31/3 20/33/4 29/34/4 28/32/3
f 20/33/4 21/25/5 23/21/5 29/34/4
f 21/25/5 32/35/6 22/36/6 23/21/5
f 32/35/6 31/37/7 24/38/7 22/36/6
f 31/37/7 30/39/8 26/40/8 24/38/7
f 30/39/8 25/41/1 27/42/1 26/40/8
s 0
f 27/19/9 17/20/9 28/21/9 29/22/9 23/23/9 22/24/9 24/25/9 26/26/9
f 30/20/10 31/21/10 32/22/10 21/23/10 20/24/10 19/25/10 18/26/10 25/19/10
s 1
f 48/27/1 47/28/2 33/29/2 41/30/1
f 47/28/2 46/31/3 43/32/3 33/29/2
f 46/31/3 34/33/4 44/34/4 43/32/3
f 34/33/4 35/25/5 45/21/5 44/34/4
f 35/25/5 36/35/6 37/36/6 45/21/5
f 36/35/6 38/37/7 40/38/7 37/36/6
f 38/37/7 39/39/8 42/40/8 40/38/7
f 39/39/8 48/41/1 41/42/1 42/40/8
s 0
f 41/19/9 33/20/9 43/21/9 44/22/9 45/23/9 37/24/9 40/25/9 42/26/9
f 39/20/10 38/21/10 36/22/10 35/23/10 34/24/10 46/25/10 47/26/10 48/19/10
