# Blender 4.5.14 LTS
# www.blender.org
mtllib fuse_box.mtl
o fuse_box
v -0.180000 1.100000 0.012000 0.7804 0.7804 0.7804
v 0.180000 1.100000 0.000000 0.7647 0.7647 0.7647
v 0.180000 1.100000 0.012000 0.7725 0.7725 0.7725
v 0.180000 1.580000 0.000000 0.7686 0.7686 0.7686
v 0.180000 1.580000 0.012000 0.7725 0.7725 0.7725
v -0.180000 1.580000 0.012000 0.7804 0.7804 0.7804
v -0.180000 1.100000 0.140000 0.8353 0.8353 0.8353
v -0.168000 1.100000 0.000000 0.7216 0.7216 0.7216
v -0.180000 1.100000 0.000000 0.7764 0.7764 0.7764
v -0.180000 1.580000 0.140000 0.8392 0.8392 0.8392
v -0.168000 1.580000 0.140000 0.7529 0.7529 0.7529
v -0.168000 1.580000 0.000000 0.7216 0.7216 0.7216
v -0.180000 1.580000 0.000000 0.7764 0.7764 0.7764
v -0.168000 1.100000 0.140000 0.7529 0.7529 0.7529
v 0.180000 1.580000 0.140000 0.8392 0.8392 0.8392
v 0.168000 1.100000 0.000000 0.7137 0.7137 0.7137
v 0.168000 1.580000 0.000000 0.7216 0.7216 0.7216
v 0.168000 1.580000 0.140000 0.7529 0.7529 0.7529
v 0.168000 1.100000 0.140000 0.7490 0.7490 0.7490
v 0.180000 1.100000 0.140000 0.8353 0.8353 0.8353
v 0.180000 1.112000 0.140000 0.7490 0.7490 0.7490
v -0.180000 1.112000 0.140000 0.7490 0.7490 0.7490
v 0.180000 1.112000 0.000000 0.7176 0.7176 0.7176
v -0.180000 1.112000 0.000000 0.7216 0.7216 0.7216
v -0.180000 1.568000 0.000000 0.7216 0.7216 0.7216
v -0.180000 1.568000 0.140000 0.7490 0.7490 0.7490
v 0.180000 1.568000 0.000000 0.7098 0.7098 0.7098
v 0.180000 1.568000 0.140000 0.7529 0.7529 0.7529
v -0.168000 1.112000 0.013000 0.6863 0.6863 0.6863
v 0.168000 1.112000 0.013000 0.6863 0.6863 0.6863
v 0.168000 1.568000 0.013000 0.6824 0.6824 0.6824
v -0.168000 1.568000 0.013000 0.6824 0.6824 0.6824
v -0.065000 1.445000 0.052000 0.6745 0.6745 0.6745
v -0.065000 1.355000 0.012000 0.6667 0.6667 0.6667
v -0.115000 1.355000 0.012000 0.6667 0.6667 0.6667
v -0.115000 1.445000 0.012000 0.6667 0.6667 0.6667
v -0.115000 1.445000 0.052000 0.6706 0.6706 0.6706
v -0.065000 1.445000 0.012000 0.6667 0.6667 0.6667
v -0.065000 1.355000 0.052000 0.6863 0.6863 0.6863
v -0.115000 1.355000 0.052000 0.6785 0.6785 0.6785
v 0.025000 1.355000 0.012000 0.6667 0.6667 0.6667
v 0.025000 1.445000 0.012000 0.6667 0.6667 0.6667
v -0.025000 1.355000 0.012000 0.6667 0.6667 0.6667
v -0.025000 1.445000 0.052000 0.6706 0.6706 0.6706
v 0.025000 1.355000 0.052000 0.6706 0.6706 0.6706
v 0.025000 1.445000 0.052000 0.6706 0.6706 0.6706
v -0.025000 1.445000 0.012000 0.6667 0.6667 0.6667
v -0.025000 1.355000 0.052000 0.6706 0.6706 0.6706
v 0.065000 1.355000 0.052000 0.6824 0.6824 0.6824
v 0.115000 1.355000 0.012000 0.6667 0.6667 0.6667
v 0.115000 1.445000 0.012000 0.6667 0.6667 0.6667
v 0.065000 1.445000 0.052000 0.6745 0.6745 0.6745
v 0.115000 1.355000 0.052000 0.6745 0.6745 0.6745
v 0.115000 1.445000 0.052000 0.6706 0.6706 0.6706
v 0.065000 1.445000 0.012000 0.6667 0.6667 0.6667
v 0.065000 1.355000 0.012000 0.6667 0.6667 0.6667
v 0.110000 0.900000 0.032679 0.7647 0.7647 0.7647
v 0.110000 1.100000 0.032679 0.6824 0.6824 0.6824
v 0.090000 0.900000 0.032679 0.7608 0.7608 0.7608
v 0.080000 0.900000 0.050000 0.8549 0.8549 0.8549
v 0.090000 0.900000 0.067321 0.9294 0.9294 0.9294
v 0.090000 1.100000 0.067321 0.7725 0.7725 0.7725
v 0.120000 1.100000 0.050000 0.7333 0.7333 0.7333
v 0.090000 1.100000 0.032679 0.6824 0.6824 0.6824
v 0.080000 1.100000 0.050000 0.7372 0.7372 0.7372
v 0.110000 1.100000 0.067321 0.7725 0.7725 0.7725
v 0.110000 0.900000 0.067321 0.9333 0.9333 0.9333
v 0.120000 0.900000 0.050000 0.8627 0.8627 0.8627
vn -0.0000 -0.0000 1.0000
vn -0.0000 -0.0000 -1.0000
vn -1.0000 -0.0000 -0.0000
vn 1.0000 -0.0000 -0.0000
vn -0.0000 1.0000 -0.0000
vn -0.0000 -1.0000 -0.0000
vn 0.8660 -0.0000 -0.5000
vn -0.8660 -0.0000 -0.5000
vn -0.8660 -0.0000 0.5000
vn 0.8660 -0.0000 0.5000
vt 0.000977 0.875977
vt 0.093262 0.875977
vt 0.093262 0.999023
vt 0.000977 0.999023
vt 0.004053 0.875977
vt 0.004053 0.999023
vt 0.111719 0.875977
vt 0.111719 0.879668
vt 0.000977 0.879668
vt 0.036865 0.875977
vt 0.036865 0.999023
vt 0.004668 0.875977
vt 0.004668 0.919043
vt 0.000977 0.919043
vt 0.044043 0.875977
vt 0.044043 0.879668
vt 0.111719 0.919043
vt 0.344727 0.875977
vt 0.436523 0.875977
vt 0.436523 0.999023
vt 0.344727 0.999023
vt 0.860352 0.840820
vt 0.877930 0.840820
vt 0.877930 0.874023
vt 0.860352 0.874023
vt 0.774414 0.938477
vt 0.789551 0.938477
vt 0.789551 0.965723
vt 0.774414 0.965723
vt 0.786523 0.938477
vt 0.786523 0.965723
vt 0.789551 0.950586
vt 0.774414 0.950586
vt 0.021484 0.875977
vt 0.021484 0.999023
vt 0.041992 0.875977
vt 0.041992 0.999023
vt 0.062500 0.875977
vt 0.062500 0.999023
vt 0.083008 0.875977
vt 0.083008 0.999023
vt 0.103516 0.875977
vt 0.103516 0.999023
vt 0.124023 0.875977
vt 0.124023 0.999023
vt 0.124023 0.937500
vt 0.031738 0.999023
vt 0.000977 0.937500
vt 0.031738 0.875977
s 0
usemtl props
f 1/1/1 3/2/1 5/3/1 6/4/1
f 2/1/2 9/2/2 13/3/2 4/4/2
f 9/1/3 1/5/3 6/6/3 13/4/3
f 3/1/4 2/5/4 4/6/4 5/4/4
f 6/1/5 5/7/5 4/8/5 13/9/5
f 9/1/6 2/7/6 3/8/6 1/9/6
f 7/1/1 14/5/1 11/6/1 10/4/1
f 8/1/2 9/5/2 13/6/2 12/4/2
f 9/1/3 7/10/3 10/11/3 13/4/3
f 14/1/4 8/10/4 12/11/4 11/4/4
f 10/1/5 11/12/5 12/13/5 13/14/5
f 9/1/6 8/12/6 14/13/6 7/14/6
f 19/1/1 20/5/1 15/6/1 18/4/1
f 2/1/2 16/5/2 17/6/2 4/4/2
f 16/1/3 19/10/3 18/11/3 17/4/3
f 20/1/4 2/10/4 4/11/4 15/4/4
f 18/1/5 15/12/5 4/13/5 17/14/5
f 16/1/6 2/12/6 20/13/6 19/14/6
f 7/1/1 20/7/1 21/8/1 22/9/1
f 2/1/2 9/7/2 24/8/2 23/9/2
f 9/1/3 7/15/3 22/16/3 24/9/3
f 20/1/4 2/15/4 23/16/4 21/9/4
f 22/1/5 21/7/5 23/17/5 24/14/5
f 9/1/6 2/7/6 20/17/6 7/14/6
f 26/1/1 28/7/1 15/8/1 10/9/1
f 27/1/2 25/7/2 13/8/2 4/9/2
f 25/1/3 26/15/3 10/16/3 13/9/3
f 28/1/4 27/15/4 4/16/4 15/9/4
f 10/1/5 15/7/5 4/17/5 13/14/5
f 25/1/6 27/7/6 28/17/6 26/14/6
f 29/18/1 30/19/1 31/20/1 32/21/1
f 40/22/1 39/23/1 33/24/1 37/25/1
f 34/26/2 35/27/2 36/28/2 38/29/2
f 35/26/3 40/30/3 37/31/3 36/29/3
f 39/26/4 34/30/4 38/31/4 33/29/4
f 37/26/5 33/27/5 38/32/5 36/33/5
f 35/26/6 34/27/6 39/32/6 40/33/6
f 48/22/1 45/23/1 46/24/1 44/25/1
f 41/26/2 43/27/2 47/28/2 42/29/2
f 43/26/3 48/30/3 44/31/3 47/29/3
f 45/26/4 41/30/4 42/31/4 46/29/4
f 44/26/5 46/27/5 42/32/5 47/33/5
f 43/26/6 41/27/6 45/32/6 48/33/6
f 49/22/1 53/23/1 54/24/1 52/25/1
f 50/26/2 56/27/2 55/28/2 51/29/2
f 56/26/3 49/30/3 52/31/3 55/29/3
f 53/26/4 50/30/4 51/31/4 54/29/4
f 52/26/5 54/27/5 51/32/5 55/33/5
f 56/26/6 50/27/6 53/32/6 49/33/6
s 1
f 68/1/7 57/34/7 58/35/7 63/4/7
f 57/34/2 59/36/2 64/37/2 58/35/2
f 59/36/8 60/38/8 65/39/8 64/37/8
f 60/38/9 61/40/9 62/41/9 65/39/9
f 61/40/1 67/42/1 66/43/1 62/41/1
f 67/42/10 68/44/10 63/45/10 66/43/10
s 0
f 63/46/5 58/3/5 64/47/5 65/48/5 62/49/5 66/2/5
f 67/3/6 61/47/6 60/48/6 59/49/6 57/2/6 68/46/6
o fuse_box_door
v -0.180000 1.100000 0.140000 0.8392 0.8392 0.8392
v 0.180000 1.100000 0.140000 0.8353 0.8353 0.8353
v 0.180000 1.580000 0.152000 0.9568 0.9568 0.9568
v -0.180000 1.580000 0.152000 0.9529 0.9529 0.9529
v 0.180000 1.580000 0.140000 0.8392 0.8392 0.8392
v -0.180000 1.580000 0.140000 0.8392 0.8392 0.8392
v 0.180000 1.100000 0.152000 0.9529 0.9529 0.9529
v -0.180000 1.100000 0.152000 0.9529 0.9529 0.9529
v 0.140000 1.310000 0.172000 0.8980 0.8980 0.8980
v 0.140000 1.370000 0.172000 0.9019 0.9019 0.9019
v 0.140000 1.310000 0.152000 0.7764 0.7764 0.7764
v 0.160000 1.310000 0.152000 0.7725 0.7725 0.7725
v 0.160000 1.370000 0.152000 0.7725 0.7725 0.7725
v 0.160000 1.370000 0.172000 0.9372 0.9372 0.9372
v 0.140000 1.370000 0.152000 0.7764 0.7764 0.7764
v 0.160000 1.310000 0.172000 0.9372 0.9372 0.9372
vn -0.0000 -0.0000 1.0000
vn -0.0000 -0.0000 -1.0000
vn -1.0000 -0.0000 -0.0000
vn 1.0000 -0.0000 -0.0000
vn -0.0000 1.0000 -0.0000
vn -0.0000 -1.0000 -0.0000
vt 0.250977 0.875977
vt 0.342773 0.875977
vt 0.342773 0.999023
vt 0.250977 0.999023
vt 0.000977 0.875977
vt 0.093262 0.875977
vt 0.093262 0.999023
vt 0.000977 0.999023
vt 0.004053 0.875977
vt 0.004053 0.999023
vt 0.111719 0.875977
vt 0.111719 0.879668
vt 0.000977 0.879668
vt 0.125977 0.813477
vt 0.132031 0.813477
vt 0.132031 0.831641
vt 0.125977 0.831641
vt 0.132031 0.819531
vt 0.125977 0.819531
s 0
usemtl props
f 76/50/11 75/51/11 71/52/11 72/53/11
f 70/54/12 69/55/12 74/56/12 73/57/12
f 69/54/13 76/58/13 72/59/13 74/57/13
f 75/54/14 70/58/14 73/59/14 71/57/14
f 72/54/15 71/60/15 73/61/15 74/62/15
f 69/54/16 70/60/16 75/61/16 76/62/16
f 77/63/11 84/64/11 82/65/11 78/66/11
f 80/63/12 79/64/12 83/65/12 81/66/12
f 79/63/13 77/64/13 78/65/13 83/66/13
f 84/63/14 80/64/14 81/65/14 82/66/14
f 78/63/15 82/64/15 81/67/15 83/68/15
f 79/63/16 80/64/16 84/67/16 77/68/16
o fuse_box_lever
v 0.210000 1.339000 0.095000 0.8666 0.8666 0.8666
v 0.180000 1.339000 0.095000 0.7568 0.7568 0.7568
v 0.180000 1.389000 0.095000 0.7568 0.7568 0.7568
v 0.180000 1.389000 0.045000 0.6941 0.6941 0.6941
v 0.210000 1.339000 0.045000 0.7725 0.7725 0.7725
v 0.210000 1.389000 0.045000 0.7412 0.7412 0.7412
v 0.210000 1.389000 0.095000 0.8706 0.8706 0.8706
v 0.180000 1.339000 0.045000 0.7020 0.7020 0.7020
v 0.233000 1.524000 0.078000 0.6667 0.6667 0.6667
v 0.233000 1.364000 0.062000 0.7843 0.7843 0.7843
v 0.217000 1.364000 0.062000 0.7137 0.7137 0.7137
v 0.217000 1.364000 0.078000 0.7921 0.7921 0.7921
v 0.217000 1.524000 0.078000 0.6667 0.6667 0.6667
v 0.233000 1.524000 0.062000 0.6667 0.6667 0.6667
v 0.217000 1.524000 0.062000 0.6667 0.6667 0.6667
v 0.233000 1.364000 0.078000 0.8706 0.8706 0.8706
v 0.232000 1.574000 0.057876 0.7725 0.7725 0.7725
v 0.239000 1.574000 0.070000 0.8745 0.8745 0.8745
v 0.218000 1.514000 0.057876 0.6824 0.6824 0.6824
v 0.211000 1.514000 0.070000 0.7098 0.7098 0.7098
v 0.218000 1.574000 0.057876 0.7529 0.7529 0.7529
v 0.218000 1.514000 0.082124 0.8157 0.8157 0.8157
v 0.218000 1.574000 0.082124 0.8823 0.8823 0.8823
v 0.232000 1.514000 0.082124 0.8941 0.8941 0.8941
v 0.211000 1.574000 0.070000 0.8039 0.8039 0.8039
v 0.232000 1.574000 0.082124 0.9255 0.9255 0.9255
v 0.232000 1.514000 0.057876 0.7372 0.7372 0.7372
v 0.239000 1.514000 0.070000 0.8470 0.8470 0.8470
vn -0.0000 -0.0000 1.0000
vn -0.0000 -0.0000 -1.0000
vn -1.0000 -0.0000 -0.0000
vn 1.0000 -0.0000 -0.0000
vn -0.0000 1.0000 -0.0000
vn -0.0000 -1.0000 -0.0000
vn 0.8660 -0.0000 -0.5000
vn -0.8660 -0.0000 -0.5000
vn -0.8660 -0.0000 0.5000
vn 0.8660 -0.0000 0.5000
vt 0.125977 0.813477
vt 0.135059 0.813477
vt 0.135059 0.828613
vt 0.125977 0.828613
vt 0.141113 0.813477
vt 0.141113 0.828613
vt 0.130820 0.813477
vt 0.130820 0.861914
vt 0.125977 0.861914
vt 0.130820 0.818320
vt 0.125977 0.818320
vt 0.375977 0.813477
vt 0.386068 0.813477
vt 0.386068 0.874023
vt 0.375977 0.874023
vt 0.396159 0.813477
vt 0.396159 0.874023
vt 0.406250 0.813477
vt 0.406250 0.874023
vt 0.416341 0.813477
vt 0.416341 0.874023
vt 0.426432 0.813477
vt 0.426432 0.874023
vt 0.436523 0.813477
vt 0.436523 0.874023
vt 0.436523 0.843750
vt 0.421387 0.874023
vt 0.391113 0.874023
vt 0.375977 0.843750
vt 0.391113 0.813477
vt 0.421387 0.813477
s 0
usemtl props
f 86/69/17 85/70/17 91/71/17 87/72/17
f 89/69/18 92/70/18 88/71/18 90/72/18
f 92/69/19 86/73/19 87/74/19 88/72/19
f 85/69/20 89/73/20 90/74/20 91/72/20
f 87/69/21 91/70/21 90/71/21 88/72/21
f 92/69/22 89/70/22 85/71/22 86/72/22
f 96/69/17 100/75/17 93/76/17 97/77/17
f 94/69/18 95/75/18 99/76/18 98/77/18
f 95/69/19 96/75/19 97/76/19 99/77/19
f 100/69/20 94/75/20 98/76/20 93/77/20
f 97/69/21 93/75/21 98/78/21 99/79/21
f 95/69/22 94/75/22 100/78/22 96/79/22
s 1
f 112/80/23 111/81/23 101/82/23 102/83/23
f 111/81/18 103/84/18 105/85/18 101/82/18
f 103/84/24 104/86/24 109/87/24 105/85/24
f 104/86/25 106/88/25 107/89/25 109/87/25
f 106/88/17 108/90/17 110/91/17 107/89/17
f 108/90/26 112/92/26 102/93/26 110/91/26
s 0
f 102/94/21 101/95/21 105/96/21 109/97/21 107/98/21 110/99/21
f 108/95/22 106/96/22 104/97/22 103/98/22 111/99/22 112/94/22
