# Blender 4.5.14 LTS
# www.blender.org
mtllib herb_pot.mtl
o herb_pot
v 0.036406 0.000000 -0.026450 0.7372 0.7372 0.7372
v 0.013906 0.000000 -0.042798 0.7372 0.7372 0.7372
v 0.000000 0.000000 0.000000 0.6667 0.6667 0.6667
v 0.013906 0.000000 0.042798 0.7333 0.7333 0.7333
v 0.045000 0.000000 0.000000 0.7372 0.7372 0.7372
v 0.018541 0.090000 -0.057063 0.9960 0.9960 0.9960
v -0.013906 0.000000 -0.042798 0.7372 0.7372 0.7372
v -0.036406 0.000000 -0.026450 0.7372 0.7372 0.7372
v -0.045000 0.000000 -0.000000 0.7333 0.7333 0.7333
v -0.036406 0.000000 0.026450 0.7333 0.7333 0.7333
v -0.048541 0.090000 0.035267 1.0000 1.0000 1.0000
v -0.060000 0.090000 -0.000000 0.9960 0.9960 0.9960
v -0.013906 0.000000 0.042798 0.7333 0.7333 0.7333
v 0.036406 0.000000 0.026450 0.7333 0.7333 0.7333
v 0.048541 0.090000 0.035267 0.9921 0.9921 0.9921
v 0.018541 0.090000 0.057063 0.9960 0.9960 0.9960
v 0.048541 0.090000 -0.035267 1.0000 1.0000 1.0000
v -0.018541 0.090000 -0.057063 0.9960 0.9960 0.9960
v 0.020086 0.100000 -0.061819 0.9725 0.9725 0.9725
v -0.020086 0.100000 -0.061819 0.9764 0.9764 0.9764
v -0.048541 0.090000 -0.035267 0.9921 0.9921 0.9921
v -0.065000 0.100000 -0.000000 0.9804 0.9804 0.9804
v -0.052586 0.100000 0.038206 0.9764 0.9764 0.9764
v -0.018541 0.090000 0.057063 0.9960 0.9960 0.9960
v -0.020086 0.100000 0.061819 0.9764 0.9764 0.9764
v 0.052586 0.100000 0.038206 0.9804 0.9804 0.9804
v 0.060000 0.090000 0.000000 0.9960 0.9960 0.9960
v 0.065000 0.100000 0.000000 0.9804 0.9804 0.9804
v 0.052586 0.100000 -0.038206 0.9843 0.9843 0.9843
v 0.017923 0.100000 -0.055161 0.8862 0.8862 0.8862
v -0.052586 0.100000 -0.038206 0.9843 0.9843 0.9843
v -0.046923 0.100000 -0.034092 0.8980 0.8980 0.8980
v -0.046923 0.100000 0.034092 0.8941 0.8941 0.8941
v -0.058000 0.100000 -0.000000 0.9058 0.9058 0.9058
v 0.020086 0.100000 0.061819 0.9804 0.9804 0.9804
v 0.046923 0.100000 0.034092 0.8980 0.8980 0.8980
v 0.058000 0.100000 0.000000 0.8941 0.8941 0.8941
v 0.044496 0.090000 -0.032328 0.8235 0.8235 0.8235
v 0.046923 0.100000 -0.034092 0.9058 0.9058 0.9058
v 0.016996 0.090000 -0.052308 0.8157 0.8157 0.8157
v -0.017923 0.100000 -0.055161 0.8862 0.8862 0.8862
v -0.016996 0.090000 -0.052308 0.8039 0.8039 0.8039
v -0.044496 0.090000 -0.032328 0.8157 0.8157 0.8157
v -0.044496 0.090000 0.032328 0.8235 0.8235 0.8235
v -0.055000 0.090000 -0.000000 0.8000 0.8000 0.8000
v -0.016996 0.090000 0.052308 0.8117 0.8117 0.8117
v -0.017923 0.100000 0.055161 0.8980 0.8980 0.8980
v 0.017923 0.100000 0.055161 0.8941 0.8941 0.8941
v 0.016996 0.090000 0.052308 0.8039 0.8039 0.8039
v 0.055000 0.090000 0.000000 0.8117 0.8117 0.8117
v 0.044496 0.090000 0.032328 0.7960 0.7960 0.7960
v 0.055000 0.085100 0.000000 0.8157 0.8157 0.8157
v 0.044496 0.085100 -0.032328 0.8039 0.8039 0.8039
v 0.016996 0.085100 -0.052308 0.8039 0.8039 0.8039
v -0.016996 0.085100 -0.052308 0.7804 0.7804 0.7804
v -0.044496 0.085100 -0.032328 0.8157 0.8157 0.8157
v -0.055000 0.085100 -0.000000 0.7960 0.7960 0.7960
v -0.044496 0.085100 0.032328 0.8039 0.8039 0.8039
v -0.016996 0.085100 0.052308 0.8117 0.8117 0.8117
v 0.016996 0.085100 0.052308 0.8313 0.8313 0.8313
v 0.044496 0.085100 0.032328 0.8039 0.8039 0.8039
v 0.007041 0.085493 -0.000000 0.7451 0.7451 0.7451
v 0.012959 0.084507 0.000000 0.7098 0.7098 0.7098
v 0.014654 0.130949 -0.000000 0.8588 0.8588 0.8588
v 0.037591 0.158488 0.000000 0.8509 0.8509 0.8509
v 0.017500 0.130000 0.003000 0.7960 0.7960 0.7960
v 0.035000 0.160000 -0.003000 0.9294 0.9294 0.9294
v 0.020346 0.129051 0.000000 0.7608 0.7608 0.7608
v 0.017500 0.130000 -0.003000 0.7451 0.7451 0.7451
v 0.010000 0.085000 0.003000 0.7372 0.7372 0.7372
v 0.010000 0.085000 -0.003000 0.7412 0.7412 0.7412
v 0.035000 0.160000 0.003000 0.9333 0.9333 0.9333
v 0.032409 0.161512 -0.000000 0.9411 0.9411 0.9411
v 0.045017 0.166650 0.008000 0.9647 0.9647 0.9647
v 0.045767 0.165350 -0.008000 0.9529 0.9529 0.9529
v 0.034625 0.160650 0.000000 0.7725 0.7725 0.7725
v 0.035375 0.159350 -0.000000 0.6667 0.6667 0.6667
v 0.045767 0.165350 0.008000 0.9490 0.9490 0.9490
v 0.064820 0.176350 -0.000000 0.9882 0.9882 0.9882
v 0.064070 0.177650 0.000000 0.9960 0.9960 0.9960
v 0.045017 0.166650 -0.008000 0.9647 0.9647 0.9647
v 0.026752 0.131760 -0.006707 0.8627 0.8627 0.8627
v 0.017434 0.130724 0.000182 0.6667 0.6667 0.6667
v 0.026619 0.133209 -0.006342 0.9098 0.9098 0.9098
v 0.026552 0.136315 -0.024871 0.8784 0.8784 0.8784
v 0.026420 0.137764 -0.024506 0.9098 0.9098 0.9098
v 0.014724 0.131760 -0.011085 0.7960 0.7960 0.7960
v 0.014591 0.133209 -0.010720 0.8666 0.8666 0.8666
v 0.017566 0.129276 -0.000182 0.6667 0.6667 0.6667
v 0.015275 0.130837 -0.016274 0.8470 0.8470 0.8470
v 0.015275 0.129163 -0.022036 0.8509 0.8509 0.8509
v 0.012347 0.130625 -0.019336 0.8313 0.8313 0.8313
v 0.030551 0.189088 -0.041168 0.9255 0.9255 0.9255
v 0.030551 0.190912 -0.035452 0.9764 0.9764 0.9764
v 0.018204 0.129375 -0.018973 0.8549 0.8549 0.8549
v 0.033466 0.189326 -0.038095 0.9411 0.9411 0.9411
v 0.009180 0.084444 -0.007678 0.7137 0.7137 0.7137
v 0.006235 0.085733 -0.004909 0.7451 0.7451 0.7451
v 0.003290 0.085556 -0.007958 0.7451 0.7451 0.7451
v 0.006235 0.084267 -0.010727 0.7137 0.7137 0.7137
v 0.027636 0.190674 -0.038525 0.9686 0.9686 0.9686
v 0.048676 0.207650 -0.061037 1.0000 1.0000 1.0000
v 0.031010 0.195350 -0.051716 0.9804 0.9804 0.9804
v 0.030785 0.189350 -0.038603 0.6667 0.6667 0.6667
v 0.043519 0.195350 -0.041740 0.9921 0.9921 0.9921
v 0.043051 0.196650 -0.041154 0.9921 0.9921 0.9921
v 0.049143 0.206350 -0.061624 1.0000 1.0000 1.0000
v 0.030542 0.196650 -0.051130 0.9843 0.9843 0.9843
v 0.030317 0.190650 -0.038017 0.8509 0.8509 0.8509
v 0.005080 0.133209 -0.023565 0.8862 0.8862 0.8862
v 0.004878 0.131760 -0.023896 0.8235 0.8235 0.8235
v 0.001475 0.136315 -0.041739 0.8784 0.8784 0.8784
v 0.016003 0.133209 -0.030239 0.9294 0.9294 0.9294
v 0.015377 0.130724 -0.018989 0.6667 0.6667 0.6667
v 0.015174 0.129276 -0.019321 0.6667 0.6667 0.6667
v 0.001677 0.137764 -0.041408 0.9294 0.9294 0.9294
v 0.015800 0.131760 -0.030570 0.8784 0.8784 0.8784
v -0.009934 0.130000 -0.030043 0.8039 0.8039 0.8039
v -0.006464 0.131731 -0.028322 0.8902 0.8902 0.8902
v -0.004085 0.130000 -0.031378 0.8627 0.8627 0.8627
v -0.007555 0.128269 -0.033099 0.8588 0.8588 0.8588
v -0.016944 0.160000 -0.060753 0.9568 0.9568 0.9568
v -0.014479 0.157828 -0.063438 0.9333 0.9333 0.9333
v -0.013558 0.162172 -0.059403 0.9529 0.9529 0.9529
v 0.000761 0.085261 -0.009871 0.7490 0.7490 0.7490
v -0.002225 0.086267 -0.007030 0.7137 0.7137 0.7137
v -0.005211 0.084739 -0.009628 0.7294 0.7294 0.7294
v -0.002225 0.083733 -0.012469 0.7098 0.7098 0.7098
v -0.011094 0.160000 -0.062088 0.9529 0.9529 0.9529
v -0.008615 0.165350 -0.073698 0.9843 0.9843 0.9843
v -0.008448 0.166650 -0.072967 0.9882 0.9882 0.9882
v -0.020654 0.176350 -0.090493 1.0000 1.0000 1.0000
v -0.024047 0.166650 -0.069406 0.9843 0.9843 0.9843
v -0.020487 0.177650 -0.089761 0.9960 0.9960 0.9960
v -0.024214 0.165350 -0.070138 0.9843 0.9843 0.9843
v -0.013935 0.160650 -0.061055 0.7568 0.7568 0.7568
v -0.014102 0.159350 -0.061786 0.6667 0.6667 0.6667
v -0.006817 0.130724 -0.030686 0.6667 0.6667 0.6667
v -0.015222 0.133209 -0.038189 0.9215 0.9215 0.9215
v -0.015607 0.131760 -0.038238 0.8941 0.8941 0.8941
v -0.033271 0.136315 -0.034001 0.9098 0.9098 0.9098
v -0.016814 0.133209 -0.025489 0.8666 0.8666 0.8666
v -0.032886 0.137764 -0.033953 0.9451 0.9451 0.9451
v -0.017199 0.131760 -0.025537 0.8157 0.8157 0.8157
v -0.007202 0.129276 -0.030734 0.6667 0.6667 0.6667
v -0.018701 0.129377 -0.007529 0.8509 0.8509 0.8509
v -0.009010 0.085216 -0.001347 0.7412 0.7412 0.7412
v -0.006043 0.085443 -0.004371 0.7412 0.7412 0.7412
v -0.015767 0.129692 -0.010577 0.8823 0.8823 0.8823
v -0.012833 0.130623 -0.007657 0.8745 0.8745 0.8745
v -0.031534 0.189623 -0.018162 0.9490 0.9490 0.9490
v -0.015767 0.130308 -0.004609 0.8078 0.8078 0.8078
v -0.011977 0.084557 -0.004307 0.7059 0.7059 0.7059
v -0.009010 0.084784 -0.007331 0.7255 0.7255 0.7255
v -0.034437 0.189249 -0.015091 0.8902 0.8902 0.8902
v -0.031534 0.190377 -0.012210 0.9647 0.9647 0.9647
v -0.028631 0.190751 -0.015281 0.9725 0.9725 0.9725
v -0.031196 0.190650 -0.015023 0.8588 0.8588 0.8588
v -0.057725 0.207650 -0.027799 0.9921 0.9921 0.9921
v -0.044030 0.196650 -0.012325 0.9882 0.9882 0.9882
v -0.031872 0.189350 -0.015349 0.6667 0.6667 0.6667
v -0.037764 0.195350 -0.027065 0.9725 0.9725 0.9725
v -0.037088 0.196650 -0.026740 0.9843 0.9843 0.9843
v -0.058401 0.206350 -0.028124 0.9921 0.9921 0.9921
v -0.044706 0.195350 -0.012650 0.9725 0.9725 0.9725
v -0.015628 0.130724 -0.007729 0.6667 0.6667 0.6667
v -0.034436 0.137764 0.010616 0.8941 0.8941 0.8941
v -0.017797 0.133209 0.003328 0.8745 0.8745 0.8745
v -0.018075 0.131760 0.003599 0.8039 0.8039 0.8039
v -0.027013 0.131760 -0.005564 0.8627 0.8627 0.8627
v -0.026735 0.133209 -0.005835 0.9215 0.9215 0.9215
v -0.034714 0.136315 0.010887 0.8588 0.8588 0.8588
v -0.015906 0.129276 -0.007457 0.6667 0.6667 0.6667
v -0.011893 0.084179 0.004224 0.7098 0.7098 0.7098
v -0.024472 0.128616 0.011785 0.8627 0.8627 0.8627
v -0.009010 0.084585 0.007310 0.7294 0.7294 0.7294
v -0.006126 0.085821 0.004454 0.7529 0.7529 0.7529
v -0.020772 0.130000 0.013333 0.7843 0.7843 0.7843
v -0.009010 0.085415 0.001368 0.7490 0.7490 0.7490
v -0.023375 0.130000 0.007927 0.8274 0.8274 0.8274
v -0.019676 0.131384 0.009475 0.8666 0.8666 0.8666
v -0.042054 0.161898 0.020252 0.9529 0.9529 0.9529
v -0.045449 0.160000 0.018557 0.9411 0.9411 0.9411
v -0.046241 0.158102 0.022268 0.9137 0.9137 0.9137
v -0.042846 0.160000 0.023963 0.9451 0.9451 0.9451
v -0.043810 0.160650 0.021098 0.7608 0.7608 0.7608
v -0.057320 0.165350 0.018724 0.9647 0.9647 0.9647
v -0.070339 0.177650 0.033873 0.9921 0.9921 0.9921
v -0.056644 0.166650 0.018399 0.9764 0.9764 0.9764
v -0.071014 0.176350 0.034199 1.0000 1.0000 1.0000
v -0.049702 0.166650 0.032814 0.9725 0.9725 0.9725
v -0.050377 0.165350 0.033140 0.9647 0.9647 0.9647
v -0.044485 0.159350 0.021423 0.6667 0.6667 0.6667
v -0.022093 0.130724 0.010437 0.6667 0.6667 0.6667
v -0.027538 0.133209 0.020301 0.9255 0.9255 0.9255
v -0.019477 0.137764 0.036580 0.9215 0.9215 0.9215
v -0.019438 0.136315 0.036966 0.8745 0.8745 0.8745
v -0.027499 0.131760 0.020687 0.8862 0.8862 0.8862
v -0.014802 0.133209 0.019027 0.8902 0.8902 0.8902
v -0.014763 0.131760 0.019413 0.8157 0.8157 0.8157
v -0.022054 0.129276 0.010823 0.6667 0.6667 0.6667
v -0.002225 0.086267 0.007030 0.7216 0.7216 0.7216
v -0.005211 0.084739 0.009628 0.7294 0.7294 0.7294
v -0.002225 0.083733 0.012469 0.7137 0.7137 0.7137
v 0.000761 0.085261 0.009871 0.7529 0.7529 0.7529
v -0.009934 0.130000 0.030043 0.8666 0.8666 0.8666
v -0.007605 0.128648 0.033321 0.8823 0.8823 0.8823
v -0.011094 0.190000 0.062088 0.9725 0.9725 0.9725
v -0.004085 0.130000 0.031378 0.7451 0.7451 0.7451
v -0.013428 0.191395 0.058831 0.9764 0.9764 0.9764
v -0.006413 0.131352 0.028099 0.8823 0.8823 0.8823
v -0.016944 0.190000 0.060753 0.9725 0.9725 0.9725
v -0.014610 0.188606 0.064010 0.9176 0.9176 0.9176
v -0.020654 0.206350 0.090493 1.0000 1.0000 1.0000
v -0.014102 0.189350 0.061786 0.6667 0.6667 0.6667
v -0.024047 0.196650 0.069406 0.9921 0.9921 0.9921
v -0.013935 0.190650 0.061055 0.8392 0.8392 0.8392
v -0.024214 0.195350 0.070138 0.9804 0.9804 0.9804
v -0.020487 0.207650 0.089761 0.9960 0.9960 0.9960
v -0.008448 0.196650 0.072967 0.9960 0.9960 0.9960
v -0.008615 0.195350 0.073698 0.9882 0.9882 0.9882
v 0.014898 0.137764 0.044859 0.9490 0.9490 0.9490
v -0.002529 0.131760 0.041223 0.8980 0.8980 0.8980
v -0.006846 0.129276 0.030816 0.6667 0.6667 0.6667
v -0.002855 0.133209 0.041012 0.9372 0.9372 0.9372
v -0.007172 0.130724 0.030605 0.6667 0.6667 0.6667
v 0.004089 0.133209 0.030260 0.8706 0.8706 0.8706
v 0.015224 0.136315 0.045070 0.9215 0.9215 0.9215
v 0.004415 0.131760 0.030470 0.8235 0.8235 0.8235
v 0.003251 0.085305 0.007858 0.7490 0.7490 0.7490
v 0.006235 0.084612 0.010793 0.7098 0.7098 0.7098
v 0.010911 0.129243 0.016585 0.8509 0.8509 0.8509
v 0.009219 0.084695 0.007779 0.7294 0.7294 0.7294
v 0.007970 0.130572 0.013831 0.8549 0.8549 0.8549
v 0.024168 0.160000 0.025494 0.9294 0.9294 0.9294
v 0.013852 0.129428 0.013533 0.7843 0.7843 0.7843
v 0.010911 0.130757 0.010779 0.8470 0.8470 0.8470
v 0.019477 0.160000 0.029235 0.9255 0.9255 0.9255
v 0.020206 0.161512 0.025338 0.9294 0.9294 0.9294
v 0.006235 0.085388 0.004843 0.7412 0.7412 0.7412
v 0.023438 0.158488 0.029390 0.8706 0.8706 0.8706
v 0.022056 0.159350 0.027657 0.6667 0.6667 0.6667
v 0.021813 0.166650 0.040184 0.9568 0.9568 0.9568
v 0.022281 0.165350 0.040770 0.9451 0.9451 0.9451
v 0.039947 0.177650 0.050092 0.9921 0.9921 0.9921
v 0.040415 0.176350 0.050678 0.9921 0.9921 0.9921
v 0.034790 0.165350 0.030794 0.9529 0.9529 0.9529
v 0.021588 0.160650 0.027071 0.7686 0.7686 0.7686
v 0.034322 0.166650 0.030208 0.9686 0.9686 0.9686
v 0.021555 0.133209 0.016857 0.9098 0.9098 0.9098
v 0.017847 0.131760 0.004600 0.7725 0.7725 0.7725
v 0.021923 0.131760 0.016734 0.8627 0.8627 0.8627
v 0.035632 0.137764 0.005376 0.9215 0.9215 0.9215
v 0.036000 0.136315 0.005253 0.8902 0.8902 0.8902
v 0.010727 0.130724 0.013744 0.6667 0.6667 0.6667
v 0.017479 0.133209 0.004724 0.8392 0.8392 0.8392
v 0.011095 0.129276 0.013620 0.6667 0.6667 0.6667
vn -0.0000 -1.0000 -0.0000
vn 0.9864 -0.1644 -0.0000
vn 0.7980 -0.1644 -0.5798
vn 0.7670 -0.3182 -0.5572
vn 0.9480 -0.3182 -0.0000
vn 0.3048 -0.1644 -0.9381
vn 0.2930 -0.3182 -0.9016
vn -0.3048 -0.1644 -0.9381
vn -0.2930 -0.3182 -0.9016
vn -0.7980 -0.1644 -0.5798
vn -0.7670 -0.3182 -0.5572
vn -0.9864 -0.1644 -0.0000
vn -0.9480 -0.3182 -0.0000
vn -0.7980 -0.1644 0.5798
vn -0.7670 -0.3182 0.5572
vn -0.3048 -0.1644 0.9381
vn -0.2930 -0.3182 0.9016
vn 0.3048 -0.1644 0.9381
vn 0.2930 -0.3182 0.9016
vn 0.7980 -0.1644 0.5798
vn 0.7670 -0.3182 0.5572
vn 0.7236 -0.4472 -0.5257
vn 0.8944 -0.4472 -0.0000
vn 0.2764 -0.4472 -0.8507
vn -0.2764 -0.4472 -0.8507
vn -0.7236 -0.4472 -0.5257
vn -0.8944 -0.4472 -0.0000
vn -0.7236 -0.4472 0.5257
vn -0.2764 -0.4472 0.8507
vn 0.2764 -0.4472 0.8507
vn 0.7236 -0.4472 0.5257
vn -0.0000 1.0000 -0.0000
vn -0.9578 0.2873 -0.0000
vn -0.7749 0.2873 0.5630
vn -0.2960 0.2873 0.9109
vn 0.2960 0.2873 0.9109
vn 0.7749 0.2873 0.5630
vn 0.9578 0.2873 -0.0000
vn 0.7749 0.2873 -0.5630
vn 0.2960 0.2873 -0.9109
vn -0.2960 0.2873 -0.9109
vn -0.7749 0.2873 -0.5630
vn -0.6996 0.1169 -0.7049
vn -0.6996 0.1169 0.7049
vn 0.6997 -0.1163 0.7049
vn 0.6997 -0.1163 -0.7049
vn -0.3789 0.1714 0.9094
vn -0.3789 0.1714 -0.9094
vn -0.8938 0.4044 -0.1939
vn -0.9111 0.4122 -0.0000
vn -0.8938 0.4044 0.1939
vn -0.1644 -0.9864 -0.0000
vn 0.5039 0.8638 -0.0000
vn -0.5000 0.8660 -0.0000
vn 0.5000 -0.8660 -0.0000
vn -0.4804 -0.2773 0.8320
vn 0.2960 0.1709 0.9398
vn 0.2960 0.1709 -0.9398
vn -0.4804 -0.2773 -0.8320
vn -0.0885 0.9659 0.2432
vn 0.0885 -0.9659 -0.2432
vn 0.5986 -0.1436 0.7881
vn 0.9960 0.0884 0.0112
vn -0.7702 0.0884 -0.6316
vn -0.9651 -0.1436 0.2189
vn -0.6915 -0.0428 -0.7211
vn -0.6903 -0.0490 -0.7218
vn -0.6904 -0.0489 -0.7218
vn -0.6965 0.3037 0.6501
vn -0.6913 0.3391 0.6380
vn 0.6915 0.0428 0.7211
vn 0.6904 0.0489 0.7218
vn 0.6903 0.0490 0.7218
vn 0.6966 -0.3037 -0.6501
vn 0.6913 -0.3391 -0.6381
vn 0.6913 -0.3391 -0.6380
vn -0.6892 -0.0552 -0.7225
vn -0.6851 0.3740 0.6251
vn 0.6892 0.0552 0.7225
vn 0.6851 -0.3740 -0.6251
vn -0.1912 -0.9518 0.2398
vn 0.2357 0.9258 -0.2956
vn -0.3117 0.8660 0.3909
vn 0.3117 -0.8660 -0.3909
vn 0.3510 -0.2773 0.8944
vn 0.9193 0.1709 0.3546
vn -0.5502 0.1709 -0.8173
vn -0.9500 -0.2773 -0.1432
vn 0.1350 0.9659 0.2208
vn -0.1350 -0.9659 -0.2208
vn 0.9894 -0.1436 0.0233
vn 0.6298 0.0884 -0.7717
vn -0.9740 0.0884 0.2084
vn -0.4306 -0.1436 0.8911
vn -0.1075 -0.4284 -0.8972
vn 0.2538 -0.5076 -0.8234
vn 0.2602 -0.5084 -0.8208
vn -0.9903 -0.0440 0.1316
vn -0.9504 -0.2950 -0.0985
vn -0.9465 -0.3043 -0.1074
vn 0.1072 0.4298 0.8965
vn -0.2494 0.5074 0.8248
vn -0.2630 0.5090 0.8196
vn 0.9903 0.0440 -0.1316
vn 0.9493 0.2976 0.1017
vn 0.9474 0.3019 0.1059
vn 0.5771 -0.5148 -0.6340
vn -0.7950 -0.5148 -0.3208
vn -0.5770 0.5141 0.6346
vn 0.7952 0.5141 0.3214
vn 0.0959 -0.9023 0.4203
vn -0.1611 0.6897 -0.7060
vn 0.1113 0.8660 0.4875
vn -0.1113 -0.8660 -0.4875
vn 0.9181 -0.2773 0.2832
vn 0.8504 0.1709 -0.4977
vn -0.9821 0.1709 -0.0794
vn -0.7043 -0.2773 0.6535
vn 0.2568 0.9659 0.0322
vn -0.2568 -0.9659 -0.0322
vn 0.6351 -0.1436 -0.7590
vn -0.2107 0.0884 -0.9735
vn -0.4444 0.0884 0.8915
vn 0.4282 -0.1436 0.8922
vn -0.7015 -0.1555 -0.6955
vn -0.6931 -0.2108 -0.6893
vn -0.6931 -0.2110 -0.6893
vn -0.6976 -0.0531 0.7145
vn -0.6920 -0.0711 0.7184
vn -0.6921 -0.0709 0.7183
vn 0.7015 0.1557 0.6955
vn 0.6931 0.2111 0.6893
vn 0.6931 0.2108 0.6893
vn 0.6976 0.0531 -0.7145
vn 0.6921 0.0709 -0.7183
vn 0.6920 0.0711 -0.7184
vn -0.6825 -0.2656 -0.6809
vn -0.6862 -0.0890 0.7220
vn 0.6826 0.2655 0.6809
vn 0.6862 0.0889 -0.7220
vn 0.1481 -0.9864 0.0713
vn -0.2523 0.9600 -0.1215
vn 0.4505 0.8660 0.2169
vn -0.4505 -0.8660 -0.2169
vn 0.7938 -0.2773 -0.5412
vn 0.1411 0.1709 -0.9751
vn -0.6744 0.1709 0.7183
vn 0.0718 -0.2773 0.9581
vn 0.1853 0.9659 -0.1807
vn -0.1853 -0.9659 0.1807
vn -0.1974 -0.1436 -0.9698
vn -0.8925 0.0884 -0.4423
vn 0.4199 0.0884 0.9032
vn 0.9645 -0.1436 0.2215
vn -0.8201 -0.1612 -0.5490
vn -0.8215 -0.3121 -0.4773
vn -0.8218 -0.3077 -0.4796
vn -0.5070 -0.2615 0.8213
vn -0.3551 -0.3621 0.8619
vn -0.3545 -0.3624 0.8620
vn 0.8200 0.1615 0.5491
vn 0.8218 0.3094 0.4784
vn 0.8218 0.3100 0.4781
vn 0.5067 0.2624 -0.8212
vn 0.3526 0.3635 -0.8623
vn 0.3574 0.3607 -0.8615
vn -0.8009 -0.4501 -0.3950
vn -0.1906 -0.4501 0.8724
vn 0.8015 0.4492 0.3947
vn 0.1912 0.4492 -0.8728
vn 0.2763 -0.9518 -0.1331
vn -0.5699 0.7745 0.2744
vn 0.4505 0.8660 -0.2169
vn -0.4505 -0.8660 0.2169
vn 0.0718 -0.2773 -0.9581
vn -0.6744 0.1709 -0.7183
vn 0.1411 0.1709 0.9751
vn 0.7938 -0.2773 0.5412
vn -0.0258 0.9659 -0.2575
vn 0.0258 -0.9659 0.2575
vn -0.8813 -0.1436 -0.4503
vn -0.9023 0.0884 0.4220
vn 0.9680 0.0884 0.2349
vn 0.7746 -0.1436 -0.6160
vn -0.9903 -0.0437 -0.1322
vn -0.9634 -0.2011 0.1775
vn -0.9655 -0.1975 0.1699
vn -0.1010 -0.4289 0.8977
vn 0.2474 -0.4007 0.8822
vn 0.2371 -0.4023 0.8843
vn 0.9903 0.0437 0.1322
vn 0.9631 0.2016 -0.1784
vn 0.9657 0.1971 -0.1692
vn 0.1010 0.4289 -0.8977
vn -0.2463 0.4009 -0.8824
vn -0.2379 0.4022 -0.8841
vn -0.8287 -0.3287 0.4531
vn 0.5500 -0.3287 0.7677
vn 0.8287 0.3287 -0.4531
vn -0.5500 0.3287 -0.7677
vn 0.0959 -0.9023 -0.4203
vn -0.1034 0.8854 0.4532
vn 0.1113 0.8660 -0.4875
vn -0.1113 -0.8660 0.4875
vn -0.7043 -0.2773 -0.6535
vn -0.9821 0.1709 0.0794
vn 0.8504 0.1709 0.4977
vn 0.9181 -0.2773 -0.2832
vn -0.2174 0.9659 -0.1404
vn 0.2174 -0.9659 0.1404
vn -0.9015 -0.1436 0.4083
vn -0.2326 0.0884 0.9685
vn 0.7872 0.0884 -0.6104
vn 0.0013 -0.1436 -0.9896
vn -0.7093 0.1636 -0.6856
vn -0.6962 -0.0212 0.7176
vn 0.7095 -0.1625 0.6858
vn 0.6962 0.0212 -0.7176
vn -0.9129 0.1606 0.3752
vn 0.2820 -0.4836 0.8286
vn 0.9127 -0.1611 -0.3754
vn -0.2825 0.4789 -0.8312
vn -0.1025 -0.9864 -0.1285
vn 0.3142 0.8638 0.3939
vn -0.3117 0.8660 -0.3909
vn 0.3117 -0.8660 0.3909
vn -0.9500 -0.2774 0.1432
vn -0.5502 0.1709 0.8173
vn 0.9193 0.1709 -0.3546
vn 0.3510 -0.2773 -0.8944
vn -0.2453 0.9659 0.0824
vn 0.2453 -0.9659 -0.0824
vn -0.2429 -0.1436 0.9594
vn 0.6122 0.0884 0.7857
vn 0.0136 0.0885 -0.9960
vn -0.7729 -0.1436 -0.6181
vt 0.691504 0.813477
vt 0.694531 0.830003
vt 0.688477 0.830003
vt 0.697559 0.813477
vt 0.700586 0.830003
vt 0.703613 0.813477
vt 0.706641 0.830003
vt 0.709668 0.813477
vt 0.712695 0.830003
vt 0.715723 0.813477
vt 0.718750 0.830003
vt 0.721777 0.813477
vt 0.724805 0.830003
vt 0.727832 0.813477
vt 0.730859 0.830003
vt 0.733887 0.813477
vt 0.736914 0.830003
vt 0.739941 0.813477
vt 0.742969 0.830003
vt 0.745996 0.813477
vt 0.749023 0.830003
vt 0.694531 0.863512
vt 0.688477 0.863512
vt 0.700586 0.863512
vt 0.706641 0.863512
vt 0.712695 0.863512
vt 0.718750 0.863512
vt 0.724805 0.863512
vt 0.730859 0.863512
vt 0.736914 0.863512
vt 0.742969 0.863512
vt 0.749023 0.863512
vt 0.694531 0.867618
vt 0.688477 0.867618
vt 0.700586 0.867618
vt 0.706641 0.867618
vt 0.712695 0.867618
vt 0.718750 0.867618
vt 0.724805 0.867618
vt 0.730859 0.867618
vt 0.736914 0.867618
vt 0.742969 0.867618
vt 0.749023 0.867618
vt 0.694531 0.870189
vt 0.688477 0.870189
vt 0.700586 0.870189
vt 0.706641 0.870189
vt 0.712695 0.870189
vt 0.718750 0.870189
vt 0.724805 0.870189
vt 0.730859 0.870189
vt 0.736914 0.870189
vt 0.742969 0.870189
vt 0.749023 0.870189
vt 0.694531 0.874023
vt 0.688477 0.874023
vt 0.700586 0.874023
vt 0.706641 0.874023
vt 0.712695 0.874023
vt 0.718750 0.874023
vt 0.724805 0.874023
vt 0.730859 0.874023
vt 0.736914 0.874023
vt 0.742969 0.874023
vt 0.749023 0.874023
vt 0.624023 0.843750
vt 0.618242 0.862460
vt 0.603105 0.874023
vt 0.584395 0.874023
vt 0.569258 0.862460
vt 0.563477 0.843750
vt 0.569258 0.825040
vt 0.584395 0.813477
vt 0.603105 0.813477
vt 0.618242 0.825040
vt 0.250977 0.813477
vt 0.266113 0.813477
vt 0.266113 0.843750
vt 0.250977 0.843750
vt 0.281250 0.813477
vt 0.281250 0.843750
vt 0.296387 0.813477
vt 0.296387 0.843750
vt 0.311523 0.813477
vt 0.311523 0.843750
vt 0.266113 0.874023
vt 0.250977 0.874023
vt 0.281250 0.874023
vt 0.296387 0.874023
vt 0.311523 0.874023
vt 0.272346 0.813477
vt 0.272346 0.874023
vt 0.290154 0.874023
vt 0.290154 0.813477
vt 0.262517 0.813477
vt 0.262517 0.874023
vt 0.299983 0.813477
vt 0.299983 0.874023
vt 0.311523 0.845208
vt 0.250977 0.842292
vt 0.250977 0.846028
vt 0.311523 0.841472
vt 0.311523 0.842397
vt 0.250977 0.845103
vt 0.311523 0.843426
vt 0.250977 0.844074
vt 0.250977 0.842784
vt 0.311523 0.844716
vt 0.311523 0.844920
vt 0.250977 0.842580
vt 0.262427 0.874023
vt 0.250977 0.832458
vt 0.300073 0.813477
vt 0.311523 0.855042
vt 0.311523 0.845103
vt 0.250977 0.842397
vt 0.250977 0.851554
vt 0.275132 0.813477
vt 0.311523 0.835946
vt 0.287368 0.874023
vt 0.311523 0.843346
vt 0.250977 0.844154
vt 0.250977 0.815800
vt 0.302104 0.813477
vt 0.311523 0.871700
vt 0.260396 0.874023
s 1
usemtl props
f 3/1/1 1/2/1 5/3/1
f 3/4/1 2/5/1 1/2/1
f 3/6/1 7/7/1 2/5/1
f 3/8/1 8/9/1 7/7/1
f 3/10/1 9/11/1 8/9/1
f 3/12/1 10/13/1 9/11/1
f 3/14/1 13/15/1 10/13/1
f 3/16/1 4/17/1 13/15/1
f 3/18/1 14/19/1 4/17/1
f 3/20/1 5/21/1 14/19/1
f 5/3/2 1/2/3 17/22/4 27/23/5
f 1/2/3 2/5/6 6/24/7 17/22/4
f 2/5/6 7/7/8 18/25/9 6/24/7
f 7/7/8 8/9/10 21/26/11 18/25/9
f 8/9/10 9/11/12 12/27/13 21/26/11
f 9/11/12 10/13/14 11/28/15 12/27/13
f 10/13/14 13/15/16 24/29/17 11/28/15
f 13/15/16 4/17/18 16/30/19 24/29/17
f 4/17/18 14/19/20 15/31/21 16/30/19
f 14/19/20 5/21/2 27/32/5 15/31/21
f 27/23/5 17/22/4 29/33/22 28/34/23
f 17/22/4 6/24/7 19/35/24 29/33/22
f 6/24/7 18/25/9 20/36/25 19/35/24
f 18/25/9 21/26/11 31/37/26 20/36/25
f 21/26/11 12/27/13 22/38/27 31/37/26
f 12/27/13 11/28/15 23/39/28 22/38/27
f 11/28/15 24/29/17 25/40/29 23/39/28
f 24/29/17 16/30/19 35/41/30 25/40/29
f 16/30/19 15/31/21 26/42/31 35/41/30
f 15/31/21 27/32/5 28/43/23 26/42/31
f 28/34/32 29/33/32 39/44/32 37/45/32
f 29/33/32 19/35/32 30/46/32 39/44/32
f 19/35/32 20/36/32 41/47/32 30/46/32
f 20/36/32 31/37/32 32/48/32 41/47/32
f 31/37/32 22/38/32 34/49/32 32/48/32
f 22/38/32 23/39/32 33/50/32 34/49/32
f 23/39/32 25/40/32 47/51/32 33/50/32
f 25/40/32 35/41/32 48/52/32 47/51/32
f 35/41/32 26/42/32 36/53/32 48/52/32
f 26/42/32 28/43/32 37/54/32 36/53/32
f 37/45/33 39/44/34 38/55/34 50/56/33
f 39/44/34 30/46/35 40/57/35 38/55/34
f 30/46/35 41/47/36 42/58/36 40/57/35
f 41/47/36 32/48/37 43/59/37 42/58/36
f 32/48/37 34/49/38 45/60/38 43/59/37
f 34/49/38 33/50/39 44/61/39 45/60/38
f 33/50/39 47/51/40 46/62/40 44/61/39
f 47/51/40 48/52/41 49/63/41 46/62/40
f 48/52/41 36/53/42 51/64/42 49/63/41
f 36/53/42 37/54/33 50/65/33 51/64/42
s 0
f 52/66/32 53/67/32 54/68/32 55/69/32 56/70/32 57/71/32 58/72/32 59/73/32 60/74/32 61/75/32
s 1
f 71/76/43 62/77/43 64/78/43 69/79/43
f 62/77/44 70/80/44 66/81/44 64/78/44
f 70/80/45 63/82/45 68/83/45 66/81/45
f 63/82/46 71/84/46 69/85/46 68/83/46
f 69/79/47 64/78/47 65/86/47 72/87/47
f 64/78/48 66/81/48 67/88/48 65/86/48
f 66/81/49 68/83/50 73/89/50 67/88/49
f 68/83/50 69/85/51 72/90/51 73/89/50
s 0
f 63/85/52 70/88/52 62/79/52 71/80/52
f 72/80/53 65/85/53 67/88/53 73/79/53
f 76/79/54 74/91/54 80/85/54 81/92/54
f 75/93/55 79/79/55 78/94/55 77/85/55
f 74/95/56 76/76/56 77/87/56 78/96/56
f 80/80/57 74/95/57 78/96/57 79/88/57
f 81/97/58 80/80/58 79/88/58 75/98/58
f 76/84/59 81/97/59 75/98/59 77/90/59
f 83/79/60 84/91/60 86/85/60 88/92/60
f 87/93/61 85/79/61 82/94/61 89/85/61
f 84/95/62 83/76/62 89/87/62 82/96/62
f 86/80/63 84/95/63 82/96/63 85/88/63
f 88/97/64 86/80/64 85/88/64 87/98/64
f 83/84/65 88/97/65 87/98/65 89/90/65
s 1
f 100/76/66 99/77/66 92/78/67 91/79/68
f 99/77/69 98/80/69 90/81/70 92/78/70
f 98/80/71 97/82/71 95/83/72 90/81/73
f 97/82/74 100/84/74 91/85/75 95/83/76
f 91/79/68 92/78/67 101/86/77 93/87/77
f 92/78/70 90/81/70 94/88/78 101/86/78
f 90/81/73 95/83/72 96/89/79 94/88/79
f 95/83/76 91/85/75 93/90/80 96/89/80
s 0
f 97/99/81 98/88/81 99/100/81 100/80/81
f 93/88/82 101/101/82 94/80/82 96/102/82
f 109/79/83 106/91/83 102/85/83 108/92/83
f 103/93/84 107/79/84 105/94/84 104/85/84
f 106/95/85 109/76/85 104/87/85 105/96/85
f 102/80/86 106/95/86 105/96/86 107/88/86
f 108/97/87 102/80/87 107/88/87 103/98/87
f 109/84/88 108/97/88 103/98/88 104/90/88
f 114/79/89 113/91/89 116/85/89 110/92/89
f 111/93/90 112/79/90 117/94/90 115/85/90
f 113/95/91 114/76/91 115/87/91 117/96/91
f 116/80/92 113/95/92 117/96/92 112/88/92
f 110/97/93 116/80/93 112/88/93 111/98/93
f 114/84/94 110/97/94 111/98/94 115/90/94
s 1
f 128/76/95 127/77/95 121/78/96 120/79/97
f 127/77/98 126/80/98 118/81/99 121/78/100
f 126/80/101 125/82/101 119/83/102 118/81/103
f 125/82/104 128/84/104 120/85/105 119/83/106
f 120/79/97 121/78/96 123/86/107 129/87/107
f 121/78/100 118/81/99 122/88/108 123/86/108
f 118/81/103 119/83/102 124/89/109 122/88/109
f 119/83/106 120/85/105 129/90/110 124/89/110
s 0
f 125/103/111 126/88/111 127/104/111 128/80/111
f 129/79/112 123/80/112 122/85/112 124/88/112
f 136/79/113 131/91/113 134/85/113 133/92/113
f 135/93/114 132/79/114 130/94/114 137/85/114
f 131/95/115 136/76/115 137/87/115 130/96/115
f 134/80/116 131/95/116 130/96/116 132/88/116
f 133/97/117 134/80/117 132/88/117 135/98/117
f 136/84/118 133/97/118 135/98/118 137/90/118
f 138/79/119 139/91/119 143/85/119 142/92/119
f 144/93/120 141/79/120 140/94/120 145/85/120
f 139/95/121 138/76/121 145/87/121 140/96/121
f 143/80/122 139/95/122 140/96/122 141/88/122
f 142/97/123 143/80/123 141/88/123 144/98/123
f 138/84/124 142/97/124 144/98/124 145/90/124
s 1
f 154/76/125 153/77/125 146/78/126 149/79/127
f 153/77/128 147/80/128 152/81/129 146/78/130
f 147/80/131 148/82/131 150/83/132 152/81/133
f 148/82/134 154/84/134 149/85/135 150/83/136
f 149/79/127 146/78/126 155/86/137 151/87/137
f 146/78/130 152/81/129 156/88/138 155/86/138
f 152/81/133 150/83/132 157/89/139 156/88/139
f 150/83/136 149/85/135 151/90/140 157/89/140
s 0
f 148/105/141 147/88/141 153/106/141 154/80/141
f 151/88/142 155/107/142 156/80/142 157/108/142
f 158/79/143 163/91/143 159/85/143 160/92/143
f 165/93/144 164/79/144 162/94/144 161/85/144
f 163/95/145 158/76/145 161/87/145 162/96/145
f 159/80/146 163/95/146 162/96/146 164/88/146
f 160/97/147 159/80/147 164/88/147 165/98/147
f 158/84/148 160/97/148 165/98/148 161/90/148
f 166/79/149 171/91/149 167/85/149 168/92/149
f 169/93/150 172/79/150 170/94/150 173/85/150
f 171/95/151 166/76/151 173/87/151 170/96/151
f 167/80/152 171/95/152 170/96/152 172/88/152
f 168/97/153 167/80/153 172/88/153 169/98/153
f 166/84/154 168/97/154 169/98/154 173/90/154
s 1
f 179/76/155 174/77/155 175/78/156 180/79/157
f 174/77/158 176/80/158 178/81/159 175/78/160
f 176/80/161 177/82/161 181/83/162 178/81/163
f 177/82/164 179/84/164 180/85/165 181/83/166
f 180/79/157 175/78/156 184/86/167 183/87/167
f 175/78/160 178/81/159 185/88/168 184/86/168
f 178/81/163 181/83/162 182/89/169 185/88/169
f 181/83/166 180/85/165 183/90/170 182/89/170
s 0
f 177/109/171 176/88/171 174/110/171 179/80/171
f 183/111/172 184/112/172 185/113/172 182/114/172
f 186/79/173 189/91/173 188/85/173 191/92/173
f 192/93/174 190/79/174 187/94/174 193/85/174
f 189/95/175 186/76/175 193/87/175 187/96/175
f 188/80/176 189/95/176 187/96/176 190/88/176
f 191/97/177 188/80/177 190/88/177 192/98/177
f 186/84/178 191/97/178 192/98/178 193/90/178
f 194/79/179 195/91/179 196/85/179 199/92/179
f 200/93/180 197/79/180 198/94/180 201/85/180
f 195/95/181 194/76/181 201/87/181 198/96/181
f 196/80/182 195/95/182 198/96/182 197/88/182
f 199/97/183 196/80/183 197/88/183 200/98/183
f 194/84/184 199/97/184 200/98/184 201/90/184
s 1
f 202/76/185 203/77/185 207/78/186 206/79/187
f 203/77/188 204/80/188 209/81/189 207/78/190
f 204/80/191 205/82/191 211/83/192 209/81/193
f 205/82/194 202/84/194 206/85/195 211/83/196
f 206/79/187 207/78/186 213/86/197 212/87/197
f 207/78/190 209/81/189 208/88/198 213/86/198
f 209/81/193 211/83/192 210/89/199 208/88/199
f 211/83/196 206/85/195 212/90/200 210/89/200
s 0
f 205/115/201 204/88/201 203/116/201 202/80/201
f 212/117/202 213/118/202 208/119/202 210/120/202
f 217/79/203 216/91/203 219/85/203 220/92/203
f 221/93/204 214/79/204 218/94/204 215/85/204
f 216/95/205 217/76/205 215/87/205 218/96/205
f 219/80/206 216/95/206 218/96/206 214/88/206
f 220/97/207 219/80/207 214/88/207 221/98/207
f 217/84/208 220/97/208 221/98/208 215/90/208
f 226/79/209 225/91/209 222/85/209 227/92/209
f 229/93/210 228/79/210 223/94/210 224/85/210
f 225/95/211 226/76/211 224/87/211 223/96/211
f 222/80/212 225/95/212 223/96/212 228/88/212
f 227/97/213 222/80/213 228/88/213 229/98/213
f 226/84/214 227/97/214 229/98/214 224/90/214
s 1
f 240/76/215 230/77/215 234/78/215 237/79/215
f 230/77/216 231/80/216 232/81/216 234/78/216
f 231/80/217 233/82/217 236/83/217 232/81/217
f 233/82/218 240/84/218 237/85/218 236/83/218
f 237/79/219 234/78/219 241/86/219 238/87/219
f 234/78/220 232/81/220 235/88/220 241/86/220
f 232/81/221 236/83/221 239/89/221 235/88/221
f 236/83/222 237/85/222 238/90/222 239/89/222
s 0
f 233/121/223 231/88/223 230/122/223 240/80/223
f 238/123/224 241/124/224 235/125/224 239/126/224
f 248/79/225 243/91/225 245/85/225 249/92/225
f 247/93/226 246/79/226 244/94/226 242/85/226
f 243/95/227 248/76/227 242/87/227 244/96/227
f 245/80/228 243/95/228 244/96/228 246/88/228
f 249/97/229 245/80/229 246/88/229 247/98/229
f 248/84/230 249/97/230 247/98/230 242/90/230
f 255/79/231 250/91/231 253/85/231 256/92/231
f 251/93/232 254/79/232 252/94/232 257/85/232
f 250/95/233 255/76/233 257/87/233 252/96/233
f 253/80/234 250/95/234 252/96/234 254/88/234
f 256/97/235 253/80/235 254/88/235 251/98/235
f 255/84/236 256/97/236 251/98/236 257/90/236
