# Blender 4.5.14 LTS
# www.blender.org
mtllib ink_ribbon.mtl
o ink_ribbon
v 0.030000 0.000000 0.000000 0.7764 0.7764 0.7764
v 0.025981 0.012000 -0.015000 0.9411 0.9411 0.9411
v 0.025981 0.000000 -0.015000 0.7764 0.7764 0.7764
v 0.015000 0.000000 -0.025981 0.7764 0.7764 0.7764
v 0.015000 0.012000 -0.025981 0.9372 0.9372 0.9372
v 0.000000 0.000000 -0.030000 0.7764 0.7764 0.7764
v -0.015000 0.000000 -0.025981 0.7764 0.7764 0.7764
v -0.025981 0.000000 -0.015000 0.7725 0.7725 0.7725
v -0.030000 0.000000 -0.000000 0.7686 0.7686 0.7686
v -0.025981 0.012000 -0.015000 0.9411 0.9411 0.9411
v -0.015000 0.000000 0.025981 0.7725 0.7725 0.7725
v -0.000000 0.000000 0.030000 0.7764 0.7764 0.7764
v 0.015000 0.012000 0.025981 0.9372 0.9372 0.9372
v 0.015000 0.000000 0.025981 0.7725 0.7725 0.7725
v 0.025981 0.000000 0.015000 0.7725 0.7725 0.7725
v 0.030000 0.012000 0.000000 0.9411 0.9411 0.9411
v 0.025981 0.012000 0.015000 0.9372 0.9372 0.9372
v 0.000000 0.012000 -0.030000 0.9372 0.9372 0.9372
v -0.015000 0.012000 -0.025981 0.9372 0.9372 0.9372
v -0.030000 0.012000 -0.000000 0.9451 0.9451 0.9451
v -0.025981 0.012000 0.015000 0.9411 0.9411 0.9411
v -0.015000 0.012000 0.025981 0.9372 0.9372 0.9372
v -0.000000 0.012000 0.030000 0.9372 0.9372 0.9372
v -0.025981 0.000000 0.015000 0.7686 0.7686 0.7686
vn 1.0000 -0.0000 -0.0000
vn 0.8660 -0.0000 -0.5000
vn 0.5000 -0.0000 -0.8660
vn -0.0000 -0.0000 -1.0000
vn -0.5000 -0.0000 -0.8660
vn -0.8660 -0.0000 -0.5000
vn -1.0000 -0.0000 -0.0000
vn -0.8660 -0.0000 0.5000
vn -0.5000 -0.0000 0.8660
vn -0.0000 -0.0000 1.0000
vn 0.5000 -0.0000 0.8660
vn 0.8660 -0.0000 0.5000
vn -0.0000 1.0000 -0.0000
vn -0.0000 -1.0000 -0.0000
vt 0.899414 0.938477
vt 0.904460 0.938477
vt 0.904460 0.999023
vt 0.899414 0.999023
vt 0.909505 0.938477
vt 0.909505 0.999023
vt 0.914551 0.938477
vt 0.914551 0.999023
vt 0.919596 0.938477
vt 0.919596 0.999023
vt 0.924642 0.938477
vt 0.924642 0.999023
vt 0.929688 0.938477
vt 0.929688 0.999023
vt 0.934733 0.938477
vt 0.934733 0.999023
vt 0.939779 0.938477
vt 0.939779 0.999023
vt 0.944824 0.938477
vt 0.944824 0.999023
vt 0.949870 0.938477
vt 0.949870 0.999023
vt 0.954915 0.938477
vt 0.954915 0.999023
vt 0.959961 0.938477
vt 0.959961 0.999023
vt 0.499023 0.843750
vt 0.494968 0.858887
vt 0.483887 0.869968
vt 0.468750 0.874023
vt 0.453613 0.869968
vt 0.442532 0.858887
vt 0.438477 0.843750
vt 0.442532 0.828613
vt 0.453613 0.817532
vt 0.468750 0.813477
vt 0.483887 0.817532
vt 0.494968 0.828613
vt 0.955905 0.983887
vt 0.944824 0.994968
vt 0.914551 0.994968
vt 0.903470 0.983887
vt 0.899414 0.968750
vt 0.903470 0.953613
vt 0.914551 0.942532
vt 0.944824 0.942532
vt 0.955905 0.953613
vt 0.959961 0.968750
s 1
usemtl props
f 1/1/1 3/2/2 2/3/2 16/4/1
f 3/2/2 4/5/3 5/6/3 2/3/2
f 4/5/3 6/7/4 18/8/4 5/6/3
f 6/7/4 7/9/5 19/10/5 18/8/4
f 7/9/5 8/11/6 10/12/6 19/10/5
f 8/11/6 9/13/7 20/14/7 10/12/6
f 9/13/7 24/15/8 21/16/8 20/14/7
f 24/15/8 11/17/9 22/18/9 21/16/8
f 11/17/9 12/19/10 23/20/10 22/18/9
f 12/19/10 14/21/11 13/22/11 23/20/10
f 14/21/11 15/23/12 17/24/12 13/22/11
f 15/23/12 1/25/1 16/26/1 17/24/12
s 0
f 16/27/13 2/28/13 5/29/13 18/30/13 19/31/13 10/32/13 20/33/13 21/34/13 22/35/13 23/36/13 13/37/13 17/38/13
f 15/39/14 14/40/14 12/14/14 11/41/14 24/42/14 9/43/14 8/44/14 7/45/14 6/13/14 4/46/14 3/47/14 1/48/14
