# Blender 4.5.14 LTS
# www.blender.org
mtllib key_skeleton.mtl
o key_skeleton
v -0.052000 0.005000 0.009500 0.9137 0.9137 0.9137
v -0.042595 -0.000000 0.012944 0.7490 0.7490 0.7490
v -0.052000 -0.000000 0.009500 0.7098 0.7098 0.7098
v -0.052000 0.005000 0.016000 0.9255 0.9255 0.9255
v -0.042595 0.005000 0.012944 0.9215 0.9215 0.9215
v -0.046416 0.005000 0.007686 0.9137 0.9137 0.9137
v -0.046416 -0.000000 0.007686 0.7098 0.7098 0.7098
v -0.042965 0.000000 0.002936 0.7098 0.7098 0.7098
v -0.036783 0.005000 -0.004944 0.9137 0.9137 0.9137
v -0.042965 0.005000 -0.002936 0.9098 0.9098 0.9098
v -0.042965 0.005000 0.002936 0.9137 0.9137 0.9137
v -0.036783 -0.000000 0.004944 0.7294 0.7294 0.7294
v -0.042965 0.000000 -0.002936 0.7137 0.7137 0.7137
v -0.036783 0.005000 0.004944 0.9098 0.9098 0.9098
v -0.036783 0.000000 -0.004944 0.7294 0.7294 0.7294
v -0.042595 0.005000 -0.012944 0.9294 0.9294 0.9294
v -0.046416 0.005000 -0.007686 0.9098 0.9098 0.9098
v -0.052000 0.000000 -0.016000 0.7490 0.7490 0.7490
v -0.042595 0.000000 -0.012944 0.7490 0.7490 0.7490
v -0.046416 0.000000 -0.007686 0.7098 0.7098 0.7098
v -0.061405 0.005000 -0.012944 0.9294 0.9294 0.9294
v -0.052000 0.005000 -0.016000 0.9294 0.9294 0.9294
v -0.052000 0.005000 -0.009500 0.9098 0.9098 0.9098
v -0.057584 0.000000 -0.007686 0.7098 0.7098 0.7098
v -0.052000 0.000000 -0.009500 0.7137 0.7137 0.7137
v -0.067217 0.000000 -0.004944 0.7490 0.7490 0.7490
v -0.061035 0.000000 -0.002936 0.7137 0.7137 0.7137
v -0.061405 0.000000 -0.012944 0.7490 0.7490 0.7490
v -0.057584 0.005000 -0.007686 0.9137 0.9137 0.9137
v -0.067217 0.005000 -0.004944 0.9294 0.9294 0.9294
v -0.061035 0.005000 -0.002936 0.9137 0.9137 0.9137
v -0.067217 -0.000000 0.004944 0.7490 0.7490 0.7490
v -0.067217 0.005000 0.004944 0.9294 0.9294 0.9294
v -0.061035 0.005000 0.002936 0.9137 0.9137 0.9137
v -0.061035 0.000000 0.002936 0.7098 0.7098 0.7098
v -0.052000 -0.000000 0.016000 0.7490 0.7490 0.7490
v -0.057584 -0.000000 0.007686 0.7137 0.7137 0.7137
v -0.061405 0.005000 0.012944 0.9294 0.9294 0.9294
v -0.061405 -0.000000 0.012944 0.7490 0.7490 0.7490
v -0.057584 0.005000 0.007686 0.9137 0.9137 0.9137
v -0.037000 0.000000 0.000000 0.6667 0.6667 0.6667
v 0.035000 0.001600 -0.002771 0.7921 0.7921 0.7921
v 0.035000 0.004800 -0.002771 0.9019 0.9019 0.9019
v 0.035000 0.006400 -0.000000 0.9490 0.9490 0.9490
v -0.037000 0.004800 0.002771 0.6667 0.6667 0.6667
v 0.035000 0.004800 0.002771 0.8784 0.8784 0.8784
v -0.037000 0.001600 0.002771 0.6667 0.6667 0.6667
v 0.035000 0.000000 0.000000 0.7372 0.7372 0.7372
v 0.035000 0.001600 0.002771 0.7608 0.7608 0.7608
v -0.037000 0.006400 -0.000000 0.6667 0.6667 0.6667
v -0.037000 0.004800 -0.002771 0.6667 0.6667 0.6667
v -0.037000 0.001600 -0.002771 0.6667 0.6667 0.6667
v -0.034000 -0.001300 0.000000 0.7098 0.7098 0.7098
v -0.034000 0.005450 -0.003897 0.8980 0.8980 0.8980
v -0.034000 0.000950 -0.003897 0.7647 0.7647 0.7647
v -0.034000 0.007700 -0.000000 0.9529 0.9529 0.9529
v -0.034000 0.000950 0.003897 0.7568 0.7568 0.7568
v -0.034000 0.005450 0.003897 0.8902 0.8902 0.8902
v -0.040000 -0.001300 0.000000 0.6863 0.6863 0.6863
v -0.040000 0.000950 0.003897 0.6667 0.6667 0.6667
v -0.040000 0.005450 0.003897 0.8862 0.8862 0.8862
v -0.040000 0.007700 -0.000000 0.9411 0.9411 0.9411
v -0.040000 0.005450 -0.003897 0.8862 0.8862 0.8862
v -0.040000 0.000950 -0.003897 0.6667 0.6667 0.6667
v 0.018000 0.005200 0.002000 0.9098 0.9098 0.9098
v 0.018000 0.005200 0.017000 0.9019 0.9019 0.9019
v 0.018000 0.001200 0.017000 0.7725 0.7725 0.7725
v 0.024000 0.005200 0.011000 0.8980 0.8980 0.8980
v 0.029000 0.005200 0.017000 0.8980 0.8980 0.8980
v 0.034000 0.001200 0.017000 0.7490 0.7490 0.7490
v 0.034000 0.005200 0.017000 0.9294 0.9294 0.9294
v 0.018000 0.001200 0.002000 0.6706 0.6706 0.6706
v 0.034000 0.001200 0.002000 0.7098 0.7098 0.7098
v 0.024000 0.005200 0.017000 0.9255 0.9255 0.9255
v 0.024000 0.001200 0.017000 0.7333 0.7333 0.7333
v 0.024000 0.001200 0.011000 0.6902 0.6902 0.6902
v 0.029000 0.005200 0.011000 0.9333 0.9333 0.9333
v 0.029000 0.001200 0.011000 0.6824 0.6824 0.6824
v 0.029000 0.001200 0.017000 0.7568 0.7568 0.7568
v 0.034000 0.005200 0.002000 0.8823 0.8823 0.8823
vn -0.0000 1.0000 -0.0000
vn -0.0000 -1.0000 -0.0000
vn 0.3090 -0.0000 0.9511
vn -0.3090 -0.0000 -0.9511
vn 0.8090 -0.0000 0.5878
vn -0.8090 -0.0000 -0.5878
vn 1.0000 -0.0000 -0.0000
vn -1.0000 -0.0000 -0.0000
vn 0.8090 -0.0000 -0.5878
vn -0.8090 -0.0000 0.5878
vn 0.3090 -0.0000 -0.9511
vn -0.3090 -0.0000 0.9511
vn -0.0000 -0.8660 -0.5000
vn -0.0000 -0.0000 -1.0000
vn -0.0000 0.8660 -0.5000
vn -0.0000 0.8660 0.5000
vn -0.0000 -0.0000 1.0000
vn -0.0000 -0.8660 0.5000
vt 0.156250 0.813477
vt 0.174960 0.819258
vt 0.167359 0.829208
vt 0.156250 0.825775
vt 0.132031 0.813477
vt 0.125977 0.813477
vt 0.125977 0.874023
vt 0.132031 0.874023
vt 0.186523 0.834395
vt 0.174225 0.838195
vt 0.138086 0.813477
vt 0.138086 0.874023
vt 0.186523 0.853105
vt 0.174225 0.849305
vt 0.144141 0.813477
vt 0.144141 0.874023
vt 0.174960 0.868242
vt 0.167359 0.858292
vt 0.150195 0.813477
vt 0.150195 0.874023
vt 0.156250 0.874023
vt 0.156250 0.861725
vt 0.137540 0.868242
vt 0.145141 0.858292
vt 0.162305 0.813477
vt 0.162305 0.874023
vt 0.125977 0.853105
vt 0.138275 0.849305
vt 0.168359 0.813477
vt 0.168359 0.874023
vt 0.125977 0.834395
vt 0.138275 0.838195
vt 0.174414 0.813477
vt 0.174414 0.874023
vt 0.137540 0.819258
vt 0.145141 0.829208
vt 0.180469 0.813477
vt 0.180469 0.874023
vt 0.186523 0.813477
vt 0.186523 0.874023
vt 0.136068 0.813477
vt 0.136068 0.874023
vt 0.146159 0.813477
vt 0.146159 0.874023
vt 0.166341 0.813477
vt 0.166341 0.874023
vt 0.176432 0.813477
vt 0.176432 0.874023
vt 0.186523 0.843750
vt 0.171387 0.874023
vt 0.141113 0.874023
vt 0.125977 0.843750
vt 0.141113 0.813477
vt 0.171387 0.813477
vt 0.125977 0.828008
vt 0.131789 0.813477
vt 0.131789 0.819289
vt 0.136633 0.819289
vt 0.136633 0.813477
vt 0.141477 0.813477
vt 0.141477 0.828008
vt 0.130886 0.813477
vt 0.125977 0.817352
vt 0.130886 0.817352
vt 0.135795 0.813477
vt 0.135795 0.817352
vt 0.139886 0.813477
vt 0.139886 0.817352
vt 0.144795 0.813477
vt 0.144795 0.817352
vt 0.148886 0.813477
vt 0.148886 0.817352
vt 0.161159 0.813477
vt 0.161159 0.817352
vt 0.174250 0.813477
vt 0.174250 0.817352
vt 0.186523 0.817352
s 0
usemtl props
f 4/1/1 5/2/1 6/3/1 1/4/1
f 2/2/2 36/1/2 3/4/2 7/3/2
f 5/5/3 4/6/3 36/7/3 2/8/3
f 1/6/4 6/5/4 7/8/4 3/7/4
f 5/2/1 14/9/1 11/10/1 6/3/1
f 12/9/2 2/2/2 7/3/2 8/10/2
f 14/11/5 5/5/5 2/8/5 12/12/5
f 6/5/6 11/11/6 8/12/6 7/8/6
f 14/9/1 9/13/1 10/14/1 11/10/1
f 15/13/2 12/9/2 8/10/2 13/14/2
f 9/15/7 14/11/7 12/12/7 15/16/7
f 11/11/8 10/15/8 13/16/8 8/12/8
f 9/13/1 16/17/1 17/18/1 10/14/1
f 19/17/2 15/13/2 13/14/2 20/18/2
f 16/19/9 9/15/9 15/16/9 19/20/9
f 10/15/10 17/19/10 20/20/10 13/16/10
f 16/17/1 22/21/1 23/22/1 17/18/1
f 18/21/2 19/17/2 20/18/2 25/22/2
f 22/1/11 16/19/11 19/20/11 18/21/11
f 17/19/12 23/1/12 25/21/12 20/20/12
f 22/21/1 21/23/1 29/24/1 23/22/1
f 28/23/2 18/21/2 25/22/2 24/24/2
f 21/25/4 22/1/4 18/21/4 28/26/4
f 23/1/3 29/25/3 24/26/3 25/21/3
f 21/23/1 30/27/1 31/28/1 29/24/1
f 26/27/2 28/23/2 24/24/2 27/28/2
f 30/29/6 21/25/6 28/26/6 26/30/6
f 29/25/5 31/29/5 27/30/5 24/26/5
f 30/27/1 33/31/1 34/32/1 31/28/1
f 32/31/2 26/27/2 27/28/2 35/32/2
f 33/33/8 30/29/8 26/30/8 32/34/8
f 31/29/7 34/33/7 35/34/7 27/30/7
f 33/31/1 38/35/1 40/36/1 34/32/1
f 39/35/2 32/31/2 35/32/2 37/36/2
f 38/37/10 33/33/10 32/34/10 39/38/10
f 34/33/9 40/37/9 37/38/9 35/34/9
f 38/35/1 4/1/1 1/4/1 40/36/1
f 36/1/2 39/35/2 37/36/2 3/4/2
f 4/39/12 38/37/12 39/38/12 36/40/12
f 40/37/11 1/39/11 3/40/11 37/38/11
s 1
f 41/6/13 52/41/13 42/42/13 48/7/13
f 52/41/14 51/43/14 43/44/14 42/42/14
f 51/43/15 50/1/15 44/21/15 43/44/15
f 50/1/16 45/45/16 46/46/16 44/21/16
f 45/45/17 47/47/17 49/48/17 46/46/17
f 47/47/18 41/39/18 48/40/18 49/48/18
s 0
f 48/49/7 42/50/7 43/51/7 44/52/7 46/53/7 49/54/7
f 47/50/8 45/51/8 50/52/8 51/53/8 52/54/8 41/49/8
s 1
f 59/6/13 64/41/13 55/42/13 53/7/13
f 64/41/14 63/43/14 54/44/14 55/42/14
f 63/43/15 62/1/15 56/21/15 54/44/15
f 62/1/16 61/45/16 58/46/16 56/21/16
f 61/45/17 60/47/17 57/48/17 58/46/17
f 60/47/18 59/39/18 53/40/18 57/48/18
s 0
f 53/49/7 55/50/7 54/51/7 56/52/7 58/53/7 57/54/7
f 60/50/8 61/51/8 62/52/8 63/53/8 64/54/8 59/49/8
f 65/55/1 66/6/1 74/56/1
f 75/56/2 67/6/2 72/55/2
f 65/55/1 74/56/1 68/57/1
f 76/57/2 75/56/2 72/55/2
f 65/55/1 68/57/1 77/58/1
f 78/58/2 76/57/2 72/55/2
f 77/58/1 69/59/1 71/60/1
f 70/60/2 79/59/2 78/58/2
f 77/58/1 71/60/1 80/61/1
f 73/61/2 70/60/2 78/58/2
f 77/58/1 80/61/1 65/55/1
f 72/55/2 73/61/2 78/58/2
f 74/62/17 66/6/17 67/63/17 75/64/17
f 68/65/7 74/62/7 75/64/7 76/66/7
f 77/67/17 68/65/17 76/66/17 78/68/17
f 69/69/8 77/67/8 78/68/8 79/70/8
f 71/71/17 69/69/17 79/70/17 70/72/17
f 80/73/7 71/71/7 70/72/7 73/74/7
f 65/75/14 80/73/14 73/74/14 72/76/14
f 66/39/8 65/75/8 72/76/8 67/77/8
