# Blender 4.5.14 LTS
# www.blender.org
mtllib keycard_red.mtl
o keycard_red
v -0.043000 0.000000 0.027000 0.7686 0.7686 0.7686
v 0.043000 0.000000 0.027000 0.7725 0.7725 0.7725
v -0.043000 0.001200 -0.027000 0.8902 0.8902 0.8902
v -0.043000 0.000000 -0.027000 0.7725 0.7725 0.7725
v -0.043000 0.001200 0.027000 0.8862 0.8862 0.8862
v 0.043000 0.001200 0.027000 0.8902 0.8902 0.8902
v 0.043000 0.001200 -0.027000 0.8902 0.8902 0.8902
v 0.043000 0.000000 -0.027000 0.7764 0.7764 0.7764
vn -0.0000 -0.0000 1.0000
vn -0.0000 -0.0000 -1.0000
vn -1.0000 -0.0000 -0.0000
vn 1.0000 -0.0000 -0.0000
vn -0.0000 1.0000 -0.0000
vn -0.0000 -1.0000 -0.0000
vt 0.063477 0.813477
vt 0.124023 0.813477
vt 0.124023 0.814321
vt 0.063477 0.814321
vt 0.115789 0.813477
vt 0.115789 0.814639
vt 0.063477 0.814639
vt 0.680664 0.938477
vt 0.772461 0.938477
vt 0.772461 0.999023
vt 0.680664 0.999023
vt 0.586914 0.938477
vt 0.678711 0.938477
vt 0.678711 0.999023
vt 0.586914 0.999023
s 0
usemtl props
f 1/1/1 2/2/1 6/3/1 5/4/1
f 8/1/2 4/2/2 3/3/2 7/4/2
f 4/1/3 1/5/3 5/6/3 3/7/3
f 2/1/4 8/5/4 7/6/4 6/7/4
f 5/8/5 6/9/5 7/10/5 3/11/5
f 4/12/6 8/13/6 2/14/6 1/15/6
