# Blender 4.5.14 LTS
# www.blender.org
mtllib lantern.mtl
o lantern
v 0.000000 0.000000 0.000000 0.6667 0.6667 0.6667
v 0.023176 0.000000 -0.071329 0.7333 0.7333 0.7333
v -0.023176 0.000000 -0.071329 0.7372 0.7372 0.7372
v -0.023176 0.000000 0.071329 0.7333 0.7333 0.7333
v 0.060676 0.000000 0.044084 0.7333 0.7333 0.7333
v 0.075000 0.000000 0.000000 0.7333 0.7333 0.7333
v 0.060676 0.000000 -0.044084 0.7372 0.7372 0.7372
v 0.024721 0.030000 -0.076085 0.8784 0.8784 0.8784
v -0.060676 0.000000 -0.044084 0.7333 0.7333 0.7333
v -0.064721 0.030000 -0.047023 0.8745 0.8745 0.8745
v -0.075000 0.000000 -0.000000 0.7294 0.7294 0.7294
v -0.060676 0.000000 0.044084 0.7294 0.7294 0.7294
v 0.023176 0.000000 0.071329 0.7333 0.7333 0.7333
v 0.064721 0.030000 0.047023 0.8784 0.8784 0.8784
v 0.024721 0.030000 0.076085 0.8745 0.8745 0.8745
v 0.064721 0.030000 -0.047023 0.8784 0.8784 0.8784
v -0.024721 0.030000 -0.076085 0.8823 0.8823 0.8823
v -0.021631 0.060000 -0.066574 0.9333 0.9333 0.9333
v -0.070000 0.060000 -0.000000 0.9333 0.9333 0.9333
v -0.056631 0.060000 -0.041145 0.9098 0.9098 0.9098
v -0.080000 0.030000 -0.000000 0.8706 0.8706 0.8706
v -0.064721 0.030000 0.047023 0.8745 0.8745 0.8745
v -0.024721 0.030000 0.076085 0.8745 0.8745 0.8745
v 0.021631 0.060000 0.066574 0.9294 0.9294 0.9294
v 0.080000 0.030000 0.000000 0.7921 0.7921 0.7921
v 0.070000 0.060000 0.000000 0.9294 0.9294 0.9294
v 0.056631 0.060000 -0.041145 0.9098 0.9098 0.9098
v 0.021631 0.060000 -0.066574 0.9294 0.9294 0.9294
v -0.009271 0.070000 -0.028532 0.7764 0.7764 0.7764
v 0.009271 0.070000 -0.028532 0.7804 0.7804 0.7804
v -0.030000 0.070000 -0.000000 0.7804 0.7804 0.7804
v -0.056631 0.060000 0.041145 0.8980 0.8980 0.8980
v -0.009271 0.070000 0.028532 0.7804 0.7804 0.7804
v -0.024271 0.070000 0.017634 0.7764 0.7764 0.7764
v -0.021631 0.060000 0.066574 0.9294 0.9294 0.9294
v 0.056631 0.060000 0.041145 0.9058 0.9058 0.9058
v 0.024271 0.070000 -0.017634 0.7764 0.7764 0.7764
v 0.040451 0.100000 -0.029389 0.8862 0.8862 0.8862
v -0.015451 0.100000 -0.047553 0.9176 0.9176 0.9176
v -0.024271 0.070000 -0.017634 0.7764 0.7764 0.7764
v -0.040451 0.100000 0.029389 0.8941 0.8941 0.8941
v 0.009271 0.070000 0.028532 0.7804 0.7804 0.7804
v -0.015451 0.100000 0.047553 0.9137 0.9137 0.9137
v 0.024271 0.070000 0.017634 0.7764 0.7764 0.7764
v 0.040451 0.100000 0.029389 0.8902 0.8902 0.8902
v 0.030000 0.070000 0.000000 0.7804 0.7804 0.7804
v 0.050000 0.100000 0.000000 0.9098 0.9098 0.9098
v 0.017305 0.160000 -0.053259 0.9843 0.9843 0.9843
v 0.045305 0.160000 -0.032916 0.9333 0.9333 0.9333
v 0.015451 0.100000 -0.047553 0.9176 0.9176 0.9176
v -0.017305 0.160000 -0.053259 0.9843 0.9843 0.9843
v -0.040451 0.100000 -0.029389 0.8862 0.8862 0.8862
v -0.050000 0.100000 -0.000000 0.9137 0.9137 0.9137
v -0.017305 0.160000 0.053259 0.9804 0.9804 0.9804
v 0.015451 0.100000 0.047553 0.9058 0.9058 0.9058
v 0.045305 0.160000 0.032916 0.9294 0.9294 0.9294
v 0.017305 0.160000 0.053259 0.9804 0.9804 0.9804
v 0.056000 0.160000 0.000000 0.9843 0.9843 0.9843
v 0.045000 0.210000 0.000000 0.8941 0.8941 0.8941
v 0.036406 0.210000 -0.026450 0.8666 0.8666 0.8666
v -0.013906 0.210000 -0.042798 0.8823 0.8823 0.8823
v 0.013906 0.210000 -0.042798 0.8902 0.8902 0.8902
v -0.045305 0.160000 -0.032916 0.9333 0.9333 0.9333
v -0.056000 0.160000 -0.000000 0.9843 0.9843 0.9843
v -0.045000 0.210000 -0.000000 0.8902 0.8902 0.8902
v -0.045305 0.160000 0.032916 0.9294 0.9294 0.9294
v -0.013906 0.210000 0.042798 0.8941 0.8941 0.8941
v -0.036406 0.210000 0.026450 0.8706 0.8706 0.8706
v 0.013906 0.210000 0.042798 0.8941 0.8941 0.8941
v 0.036406 0.210000 0.026450 0.8666 0.8666 0.8666
v 0.008652 0.230000 -0.026630 0.6863 0.6863 0.6863
v 0.022652 0.230000 -0.016458 0.6824 0.6824 0.6824
v -0.036406 0.210000 -0.026450 0.8666 0.8666 0.8666
v -0.028000 0.230000 -0.000000 0.6785 0.6785 0.6785
v -0.022652 0.230000 -0.016458 0.6785 0.6785 0.6785
v -0.022652 0.230000 0.016458 0.6824 0.6824 0.6824
v -0.008652 0.230000 0.026630 0.6824 0.6824 0.6824
v 0.008652 0.230000 0.026630 0.6824 0.6824 0.6824
v 0.022652 0.230000 0.016458 0.6824 0.6824 0.6824
v 0.056631 0.235000 -0.041145 0.9411 0.9411 0.9411
v -0.008652 0.230000 -0.026630 0.6863 0.6863 0.6863
v -0.021631 0.235000 -0.066574 0.9568 0.9568 0.9568
v -0.056631 0.235000 0.041145 0.9451 0.9451 0.9451
v -0.021631 0.235000 0.066574 0.9529 0.9529 0.9529
v 0.028000 0.230000 0.000000 0.6824 0.6824 0.6824
v 0.070000 0.235000 0.000000 0.9451 0.9451 0.9451
v 0.021631 0.235000 -0.066574 0.9568 0.9568 0.9568
v 0.040451 0.260000 -0.029389 0.9960 0.9960 0.9960
v -0.056631 0.235000 -0.041145 0.9411 0.9411 0.9411
v -0.050000 0.260000 -0.000000 0.9529 0.9529 0.9529
v -0.070000 0.235000 -0.000000 0.9451 0.9451 0.9451
v 0.021631 0.235000 0.066574 0.9568 0.9568 0.9568
v 0.056631 0.235000 0.041145 0.9411 0.9411 0.9411
v 0.040451 0.260000 0.029389 0.9882 0.9882 0.9882
v 0.050000 0.260000 0.000000 0.9568 0.9568 0.9568
v 0.016180 0.280000 -0.011756 0.9686 0.9686 0.9686
v 0.015451 0.260000 -0.047553 0.9960 0.9960 0.9960
v -0.015451 0.260000 -0.047553 0.9960 0.9960 0.9960
v -0.040451 0.260000 -0.029389 0.9843 0.9843 0.9843
v -0.006180 0.280000 -0.019021 0.9843 0.9843 0.9843
v -0.040451 0.260000 0.029389 0.9921 0.9921 0.9921
v -0.015451 0.260000 0.047553 0.9960 0.9960 0.9960
v -0.006180 0.280000 0.019021 0.9764 0.9764 0.9764
v 0.015451 0.260000 0.047553 0.9960 0.9960 0.9960
v 0.016180 0.280000 0.011756 0.9647 0.9647 0.9647
v 0.020000 0.280000 0.000000 0.9647 0.9647 0.9647
v 0.006180 0.280000 -0.019021 0.9843 0.9843 0.9843
v -0.016180 0.280000 -0.011756 0.9725 0.9725 0.9725
v -0.020000 0.280000 -0.000000 0.9607 0.9607 0.9607
v -0.016180 0.280000 0.011756 0.9725 0.9725 0.9725
v 0.006180 0.280000 0.019021 0.9725 0.9725 0.9725
v 0.000000 0.285000 0.000000 0.9686 0.9686 0.9686
v 0.045500 0.159847 -0.049503 0.8274 0.8274 0.8274
v 0.053033 0.049872 -0.049035 0.7176 0.7176 0.7176
v 0.053495 0.160153 -0.049492 0.9686 0.9686 0.9686
v 0.049497 0.159847 -0.045500 0.8157 0.8157 0.8157
v 0.057031 0.050128 -0.053029 0.8117 0.8117 0.8117
v 0.053033 0.050128 -0.057031 0.8117 0.8117 0.8117
v 0.045962 0.234812 -0.041966 0.7294 0.7294 0.7294
v 0.049497 0.160153 -0.053495 0.9647 0.9647 0.9647
v 0.045962 0.235188 -0.049958 0.9490 0.9490 0.9490
v 0.049035 0.049872 -0.053037 0.7294 0.7294 0.7294
v 0.041966 0.234812 -0.045971 0.7372 0.7372 0.7372
v 0.049958 0.235188 -0.045953 0.9255 0.9255 0.9255
v -0.053033 0.049872 -0.049035 0.7176 0.7176 0.7176
v -0.049035 0.049872 -0.053037 0.7255 0.7255 0.7255
v -0.045500 0.159847 -0.049503 0.8274 0.8274 0.8274
v -0.049497 0.160153 -0.053495 0.9647 0.9647 0.9647
v -0.053495 0.160153 -0.049492 0.9686 0.9686 0.9686
v -0.049958 0.235188 -0.045953 0.9176 0.9176 0.9176
v -0.045962 0.234812 -0.041966 0.7294 0.7294 0.7294
v -0.049497 0.159847 -0.045500 0.8274 0.8274 0.8274
v -0.041966 0.234812 -0.045971 0.7333 0.7333 0.7333
v -0.057031 0.050128 -0.053029 0.8157 0.8157 0.8157
v -0.053033 0.050128 -0.057031 0.8157 0.8157 0.8157
v -0.045962 0.235188 -0.049958 0.9411 0.9411 0.9411
v -0.057031 0.050128 0.053029 0.8196 0.8196 0.8196
v -0.053495 0.160153 0.049492 0.9647 0.9647 0.9647
v -0.053033 0.050128 0.057031 0.8157 0.8157 0.8157
v -0.053033 0.049872 0.049035 0.7216 0.7216 0.7216
v -0.049958 0.235188 0.045953 0.9215 0.9215 0.9215
v -0.049497 0.160153 0.053495 0.9686 0.9686 0.9686
v -0.045500 0.159847 0.049503 0.8274 0.8274 0.8274
v -0.045962 0.235188 0.049958 0.9490 0.9490 0.9490
v -0.049497 0.159847 0.045500 0.8274 0.8274 0.8274
v -0.049035 0.049872 0.053037 0.7333 0.7333 0.7333
v -0.045962 0.234812 0.041966 0.7294 0.7294 0.7294
v -0.041966 0.234812 0.045971 0.7333 0.7333 0.7333
v 0.053033 0.050128 0.057031 0.8117 0.8117 0.8117
v 0.057031 0.050128 0.053029 0.8078 0.8078 0.8078
v 0.049497 0.160153 0.053495 0.9647 0.9647 0.9647
v 0.053033 0.049872 0.049035 0.7216 0.7216 0.7216
v 0.041966 0.234812 0.045971 0.7333 0.7333 0.7333
v 0.045500 0.159847 0.049503 0.8235 0.8235 0.8235
v 0.045962 0.235188 0.049958 0.9490 0.9490 0.9490
v 0.053495 0.160153 0.049492 0.9647 0.9647 0.9647
v 0.049497 0.159847 0.045500 0.8274 0.8274 0.8274
v 0.045962 0.234812 0.041966 0.7372 0.7372 0.7372
v 0.049035 0.049872 0.053037 0.7294 0.7294 0.7294
v 0.049958 0.235188 0.045953 0.9294 0.9294 0.9294
v 0.100000 0.033000 0.000000 0.7647 0.7647 0.7647
v 0.070000 0.039000 -0.010392 0.6667 0.6667 0.6667
v 0.070000 0.051000 -0.010392 0.8000 0.8000 0.8000
v 0.100000 0.039000 -0.010392 0.8196 0.8196 0.8196
v 0.070000 0.051000 0.010392 0.7960 0.7960 0.7960
v 0.070000 0.039000 0.010392 0.6706 0.6706 0.6706
v 0.100000 0.051000 0.010392 0.9098 0.9098 0.9098
v 0.100000 0.039000 0.010392 0.8196 0.8196 0.8196
v 0.100000 0.051000 -0.010392 0.9058 0.9058 0.9058
v 0.100000 0.057000 -0.000000 0.9255 0.9255 0.9255
v 0.070000 0.057000 -0.000000 0.6706 0.6706 0.6706
v 0.070000 0.033000 0.000000 0.6745 0.6745 0.6745
vn -0.0000 -1.0000 -0.0000
vn 0.9864 -0.1644 -0.0000
vn 0.7980 -0.1644 -0.5798
vn 0.8068 0.0748 -0.5861
vn 0.9972 0.0748 -0.0000
vn 0.3048 -0.1644 -0.9381
vn 0.3082 0.0748 -0.9484
vn -0.3048 -0.1644 -0.9381
vn -0.3082 0.0748 -0.9484
vn -0.7980 -0.1644 -0.5798
vn -0.8068 0.0748 -0.5861
vn -0.9864 -0.1644 -0.0000
vn -0.9972 0.0748 -0.0000
vn -0.7980 -0.1644 0.5798
vn -0.8068 0.0748 0.5861
vn -0.3048 -0.1644 0.9381
vn -0.3082 0.0748 0.9484
vn 0.3048 -0.1644 0.9381
vn 0.3082 0.0748 0.9484
vn 0.7980 -0.1644 0.5798
vn 0.8068 0.0748 0.5861
vn 0.7675 0.3162 -0.5576
vn 0.9487 0.3162 -0.0000
vn 0.2932 0.3162 -0.9023
vn -0.2932 0.3162 -0.9023
vn -0.7675 0.3162 -0.5576
vn -0.9487 0.3162 -0.0000
vn -0.7675 0.3162 0.5576
vn -0.2932 0.3162 0.9023
vn 0.2932 0.3162 0.9023
vn 0.7675 0.3162 0.5576
vn 0.2425 0.9701 -0.0000
vn 0.1962 0.9701 -0.1426
vn 0.0749 0.9701 -0.2307
vn -0.0749 0.9701 -0.2307
vn -0.1962 0.9701 -0.1426
vn -0.2425 0.9701 -0.0000
vn -0.1962 0.9701 0.1426
vn -0.0749 0.9701 0.2307
vn 0.0749 0.9701 0.2307
vn 0.1962 0.9701 0.1426
vn 0.8321 -0.5547 -0.0000
vn 0.6731 -0.5547 -0.4891
vn 0.7657 -0.3229 -0.5563
vn 0.9464 -0.3229 -0.0000
vn 0.2571 -0.5547 -0.7913
vn 0.2925 -0.3229 -0.9001
vn -0.2571 -0.5547 -0.7913
vn -0.2925 -0.3229 -0.9001
vn -0.6731 -0.5547 -0.4891
vn -0.7657 -0.3229 -0.5563
vn -0.8321 -0.5547 -0.0000
vn -0.9464 -0.3229 -0.0000
vn -0.6731 -0.5547 0.4891
vn -0.7657 -0.3229 0.5563
vn -0.2571 -0.5547 0.7913
vn -0.2925 -0.3229 0.9001
vn 0.2571 -0.5547 0.7913
vn 0.2925 -0.3229 0.9001
vn 0.6731 -0.5547 0.4891
vn 0.7657 -0.3229 0.5563
vn 0.8077 0.0567 -0.5868
vn 0.9984 0.0567 -0.0000
vn 0.3085 0.0567 -0.9495
vn -0.3085 0.0567 -0.9495
vn -0.8077 0.0567 -0.5868
vn -0.9984 0.0567 -0.0000
vn -0.8077 0.0567 0.5868
vn -0.3085 0.0567 0.9495
vn 0.3085 0.0567 0.9495
vn 0.8077 0.0567 0.5868
vn 0.7318 0.4265 -0.5317
vn 0.9045 0.4265 -0.0000
vn 0.2795 0.4265 -0.8602
vn -0.2795 0.4265 -0.8602
vn -0.7318 0.4265 -0.5317
vn -0.9045 0.4265 -0.0000
vn -0.7318 0.4265 0.5317
vn -0.2795 0.4265 0.8602
vn 0.2795 0.4265 0.8602
vn 0.7318 0.4265 0.5317
vn 0.6164 0.6476 -0.4479
vn 0.7619 0.6476 -0.0000
vn 0.2355 0.6476 -0.7246
vn -0.2355 0.6476 -0.7246
vn -0.6164 0.6476 -0.4479
vn -0.7619 0.6476 -0.0000
vn -0.6164 0.6476 0.4479
vn -0.2355 0.6476 0.7246
vn 0.2355 0.6476 0.7246
vn 0.6164 0.6476 0.4479
vn 0.1182 -0.9930 -0.0000
vn 0.0956 -0.9930 -0.0695
vn 0.0365 -0.9930 -0.1124
vn -0.0365 -0.9930 -0.1124
vn -0.0956 -0.9930 -0.0695
vn -0.1182 -0.9930 -0.0000
vn -0.0956 -0.9930 0.0695
vn -0.0365 -0.9930 0.1124
vn 0.0365 -0.9930 0.1124
vn 0.0956 -0.9930 0.0695
vn 0.7809 0.6247 -0.0000
vn 0.6317 0.6247 -0.4590
vn 0.5596 0.7222 -0.4066
vn 0.6917 0.7222 -0.0000
vn 0.2413 0.6247 -0.7427
vn 0.2137 0.7222 -0.6578
vn -0.2413 0.6247 -0.7427
vn -0.2137 0.7222 -0.6578
vn -0.6317 0.6247 -0.4590
vn -0.5596 0.7222 -0.4066
vn -0.7809 0.6247 -0.0000
vn -0.6917 0.7222 -0.0000
vn -0.6317 0.6247 0.4590
vn -0.5596 0.7222 0.4066
vn -0.2413 0.6247 0.7427
vn -0.2137 0.7222 0.6578
vn 0.2413 0.6247 0.7427
vn 0.2137 0.7222 0.6578
vn 0.6317 0.6247 0.4590
vn 0.5596 0.7222 0.4066
vn 0.3497 0.9018 -0.2541
vn 0.4322 0.9018 -0.0000
vn 0.1336 0.9018 -0.4111
vn -0.1336 0.9018 -0.4111
vn -0.3497 0.9018 -0.2541
vn -0.4322 0.9018 -0.0000
vn -0.3497 0.9018 0.2541
vn -0.1336 0.9018 0.4111
vn 0.1336 0.9018 0.4111
vn 0.3497 0.9018 0.2541
vn -0.0000 1.0000 -0.0000
vn -0.7067 -0.0000 -0.7075
vn -0.7066 -0.0000 -0.7077
vn -0.7068 -0.0454 0.7059
vn -0.7065 -0.0560 0.7055
vn 0.7067 -0.0000 0.7075
vn 0.7066 -0.0000 0.7077
vn 0.7068 0.0454 -0.7059
vn 0.7065 0.0560 -0.7055
vn -0.7065 0.0001 -0.7078
vn -0.7062 -0.0665 0.7049
vn 0.7065 -0.0001 0.7078
vn 0.7062 0.0665 -0.7049
vn 0.0321 -0.9990 -0.0321
vn -0.0470 0.9978 0.0470
vn -0.7068 0.0454 -0.7059
vn -0.7065 0.0560 -0.7055
vn -0.7067 -0.0000 0.7075
vn -0.7066 -0.0000 0.7077
vn 0.7068 -0.0454 0.7059
vn 0.7065 -0.0560 0.7055
vn 0.7067 -0.0000 -0.7075
vn 0.7066 -0.0000 -0.7077
vn -0.7062 0.0665 -0.7049
vn -0.7065 -0.0001 0.7078
vn 0.7062 -0.0665 0.7049
vn 0.7065 0.0001 -0.7078
vn -0.0321 -0.9990 -0.0321
vn 0.0470 0.9978 0.0470
vn -0.7068 0.0454 0.7059
vn -0.7065 0.0560 0.7055
vn 0.7068 -0.0454 -0.7059
vn 0.7065 -0.0560 -0.7055
vn -0.7065 -0.0001 -0.7078
vn -0.7062 0.0665 0.7049
vn 0.7065 0.0001 0.7078
vn 0.7062 -0.0665 -0.7049
vn -0.0321 -0.9990 0.0321
vn 0.0470 0.9978 -0.0470
vn -0.7068 -0.0454 -0.7059
vn -0.7065 -0.0560 -0.7055
vn 0.7068 0.0454 0.7059
vn 0.7065 0.0560 0.7055
vn -0.7062 -0.0665 -0.7049
vn -0.7065 0.0001 0.7078
vn 0.7062 0.0665 0.7049
vn 0.7065 -0.0001 -0.7078
vn 0.0321 -0.9990 0.0321
vn -0.0470 0.9978 -0.0470
vn -0.0000 -0.8660 -0.5000
vn -0.0000 -0.0000 -1.0000
vn -0.0000 0.8660 -0.5000
vn -0.0000 0.8660 0.5000
vn -0.0000 -0.0000 1.0000
vn -0.0000 -0.8660 0.5000
vn 1.0000 -0.0000 -0.0000
vn -1.0000 -0.0000 -0.0000
vt 0.132129 0.875977
vt 0.138281 0.927744
vt 0.125977 0.927744
vt 0.144434 0.875977
vt 0.150586 0.927744
vt 0.156738 0.875977
vt 0.162891 0.927744
vt 0.169043 0.875977
vt 0.175195 0.927744
vt 0.181348 0.875977
vt 0.187500 0.927744
vt 0.193652 0.875977
vt 0.199805 0.927744
vt 0.205957 0.875977
vt 0.212109 0.927744
vt 0.218262 0.875977
vt 0.224414 0.927744
vt 0.230566 0.875977
vt 0.236719 0.927744
vt 0.242871 0.875977
vt 0.249023 0.927744
vt 0.138281 0.948737
vt 0.125977 0.948737
vt 0.150586 0.948737
vt 0.162891 0.948737
vt 0.175195 0.948737
vt 0.187500 0.948737
vt 0.199805 0.948737
vt 0.212109 0.948737
vt 0.224414 0.948737
vt 0.236719 0.948737
vt 0.249023 0.948737
vt 0.138281 0.970564
vt 0.125977 0.970564
vt 0.150586 0.970564
vt 0.162891 0.970564
vt 0.175195 0.970564
vt 0.187500 0.970564
vt 0.199805 0.970564
vt 0.212109 0.970564
vt 0.224414 0.970564
vt 0.236719 0.970564
vt 0.249023 0.970564
vt 0.138281 0.999023
vt 0.125977 0.999023
vt 0.150586 0.999023
vt 0.162891 0.999023
vt 0.175195 0.999023
vt 0.187500 0.999023
vt 0.199805 0.999023
vt 0.212109 0.999023
vt 0.224414 0.999023
vt 0.236719 0.999023
vt 0.249023 0.999023
vt 0.188477 0.813477
vt 0.194531 0.813477
vt 0.194531 0.826037
vt 0.188477 0.826037
vt 0.200586 0.813477
vt 0.200586 0.826037
vt 0.206641 0.813477
vt 0.206641 0.826037
vt 0.212695 0.813477
vt 0.212695 0.826037
vt 0.218750 0.813477
vt 0.218750 0.826037
vt 0.224805 0.813477
vt 0.224805 0.826037
vt 0.230859 0.813477
vt 0.230859 0.826037
vt 0.236914 0.813477
vt 0.236914 0.826037
vt 0.242969 0.813477
vt 0.242969 0.826037
vt 0.249023 0.813477
vt 0.249023 0.826037
vt 0.194531 0.847044
vt 0.188477 0.847044
vt 0.200586 0.847044
vt 0.206641 0.847044
vt 0.212695 0.847044
vt 0.218750 0.847044
vt 0.224805 0.847044
vt 0.230859 0.847044
vt 0.236914 0.847044
vt 0.242969 0.847044
vt 0.249023 0.847044
vt 0.194531 0.864879
vt 0.188477 0.864879
vt 0.200586 0.864879
vt 0.206641 0.864879
vt 0.212695 0.864879
vt 0.218750 0.864879
vt 0.224805 0.864879
vt 0.230859 0.864879
vt 0.236914 0.864879
vt 0.242969 0.864879
vt 0.249023 0.864879
vt 0.194531 0.874023
vt 0.188477 0.874023
vt 0.200586 0.874023
vt 0.206641 0.874023
vt 0.212695 0.874023
vt 0.218750 0.874023
vt 0.224805 0.874023
vt 0.230859 0.874023
vt 0.236914 0.874023
vt 0.242969 0.874023
vt 0.249023 0.874023
vt 0.125977 0.875977
vt 0.138281 0.875977
vt 0.138281 0.915710
vt 0.125977 0.915710
vt 0.150586 0.875977
vt 0.150586 0.915710
vt 0.162891 0.875977
vt 0.162891 0.915710
vt 0.175195 0.875977
vt 0.175195 0.915710
vt 0.187500 0.875977
vt 0.187500 0.915710
vt 0.199805 0.875977
vt 0.199805 0.915710
vt 0.212109 0.875977
vt 0.212109 0.915710
vt 0.224414 0.875977
vt 0.224414 0.915710
vt 0.236719 0.875977
vt 0.236719 0.915710
vt 0.249023 0.875977
vt 0.249023 0.915710
vt 0.138281 0.945786
vt 0.125977 0.945786
vt 0.150586 0.945786
vt 0.162891 0.945786
vt 0.175195 0.945786
vt 0.187500 0.945786
vt 0.199805 0.945786
vt 0.212109 0.945786
vt 0.224414 0.945786
vt 0.236719 0.945786
vt 0.249023 0.945786
vt 0.138281 0.979657
vt 0.125977 0.979657
vt 0.150586 0.979657
vt 0.162891 0.979657
vt 0.175195 0.979657
vt 0.187500 0.979657
vt 0.199805 0.979657
vt 0.212109 0.979657
vt 0.224414 0.979657
vt 0.236719 0.979657
vt 0.249023 0.979657
vt 0.132129 0.999023
vt 0.144434 0.999023
vt 0.156738 0.999023
vt 0.169043 0.999023
vt 0.181348 0.999023
vt 0.193652 0.999023
vt 0.205957 0.999023
vt 0.218262 0.999023
vt 0.230566 0.999023
vt 0.242871 0.999023
vt 0.125977 0.813477
vt 0.141113 0.813477
vt 0.141113 0.843750
vt 0.125977 0.843750
vt 0.156250 0.813477
vt 0.156250 0.843750
vt 0.171387 0.813477
vt 0.171387 0.843750
vt 0.186523 0.813477
vt 0.186523 0.843750
vt 0.141113 0.874023
vt 0.125977 0.874023
vt 0.156250 0.874023
vt 0.171387 0.874023
vt 0.186523 0.874023
vt 0.186523 0.843781
vt 0.125977 0.843719
vt 0.125977 0.843817
vt 0.186523 0.843683
vt 0.186523 0.843719
vt 0.125977 0.843781
vt 0.125977 0.843683
vt 0.186523 0.843817
vt 0.136068 0.813477
vt 0.136068 0.874023
vt 0.146159 0.813477
vt 0.146159 0.874023
vt 0.166341 0.813477
vt 0.166341 0.874023
vt 0.176432 0.813477
vt 0.176432 0.874023
s 1
usemtl props
f 1/1/1 7/2/1 6/3/1
f 1/4/1 2/5/1 7/2/1
f 1/6/1 3/7/1 2/5/1
f 1/8/1 9/9/1 3/7/1
f 1/10/1 11/11/1 9/9/1
f 1/12/1 12/13/1 11/11/1
f 1/14/1 4/15/1 12/13/1
f 1/16/1 13/17/1 4/15/1
f 1/18/1 5/19/1 13/17/1
f 1/20/1 6/21/1 5/19/1
f 6/3/2 7/2/3 16/22/4 25/23/5
f 7/2/3 2/5/6 8/24/7 16/22/4
f 2/5/6 3/7/8 17/25/9 8/24/7
f 3/7/8 9/9/10 10/26/11 17/25/9
f 9/9/10 11/11/12 21/27/13 10/26/11
f 11/11/12 12/13/14 22/28/15 21/27/13
f 12/13/14 4/15/16 23/29/17 22/28/15
f 4/15/16 13/17/18 15/30/19 23/29/17
f 13/17/18 5/19/20 14/31/21 15/30/19
f 5/19/20 6/21/2 25/32/5 14/31/21
f 25/23/5 16/22/4 27/33/22 26/34/23
f 16/22/4 8/24/7 28/35/24 27/33/22
f 8/24/7 17/25/9 18/36/25 28/35/24
f 17/25/9 10/26/11 20/37/26 18/36/25
f 10/26/11 21/27/13 19/38/27 20/37/26
f 21/27/13 22/28/15 32/39/28 19/38/27
f 22/28/15 23/29/17 35/40/29 32/39/28
f 23/29/17 15/30/19 24/41/30 35/40/29
f 15/30/19 14/31/21 36/42/31 24/41/30
f 14/31/21 25/32/5 26/43/23 36/42/31
f 26/34/32 27/33/33 37/44/33 46/45/32
f 27/33/33 28/35/34 30/46/34 37/44/33
f 28/35/34 18/36/35 29/47/35 30/46/34
f 18/36/35 20/37/36 40/48/36 29/47/35
f 20/37/36 19/38/37 31/49/37 40/48/36
f 19/38/37 32/39/38 34/50/38 31/49/37
f 32/39/38 35/40/39 33/51/39 34/50/38
f 35/40/39 24/41/40 42/52/40 33/51/39
f 24/41/40 36/42/41 44/53/41 42/52/40
f 36/42/41 26/43/32 46/54/32 44/53/41
f 46/55/42 37/56/43 38/57/44 47/58/45
f 37/56/43 30/59/46 50/60/47 38/57/44
f 30/59/46 29/61/48 39/62/49 50/60/47
f 29/61/48 40/63/50 52/64/51 39/62/49
f 40/63/50 31/65/52 53/66/53 52/64/51
f 31/65/52 34/67/54 41/68/55 53/66/53
f 34/67/54 33/69/56 43/70/57 41/68/55
f 33/69/56 42/71/58 55/72/59 43/70/57
f 42/71/58 44/73/60 45/74/61 55/72/59
f 44/73/60 46/75/42 47/76/45 45/74/61
f 47/58/45 38/57/44 49/77/62 58/78/63
f 38/57/44 50/60/47 48/79/64 49/77/62
f 50/60/47 39/62/49 51/80/65 48/79/64
f 39/62/49 52/64/51 63/81/66 51/80/65
f 52/64/51 53/66/53 64/82/67 63/81/66
f 53/66/53 41/68/55 66/83/68 64/82/67
f 41/68/55 43/70/57 54/84/69 66/83/68
f 43/70/57 55/72/59 57/85/70 54/84/69
f 55/72/59 45/74/61 56/86/71 57/85/70
f 45/74/61 47/76/45 58/87/63 56/86/71
f 58/78/63 49/77/62 60/88/72 59/89/73
f 49/77/62 48/79/64 62/90/74 60/88/72
f 48/79/64 51/80/65 61/91/75 62/90/74
f 51/80/65 63/81/66 73/92/76 61/91/75
f 63/81/66 64/82/67 65/93/77 73/92/76
f 64/82/67 66/83/68 68/94/78 65/93/77
f 66/83/68 54/84/69 67/95/79 68/94/78
f 54/84/69 57/85/70 69/96/80 67/95/79
f 57/85/70 56/86/71 70/97/81 69/96/80
f 56/86/71 58/87/63 59/98/73 70/97/81
f 59/89/73 60/88/72 72/99/82 85/100/83
f 60/88/72 62/90/74 71/101/84 72/99/82
f 62/90/74 61/91/75 81/102/85 71/101/84
f 61/91/75 73/92/76 75/103/86 81/102/85
f 73/92/76 65/93/77 74/104/87 75/103/86
f 65/93/77 68/94/78 76/105/88 74/104/87
f 68/94/78 67/95/79 77/106/89 76/105/88
f 67/95/79 69/96/80 78/107/90 77/106/89
f 69/96/80 70/97/81 79/108/91 78/107/90
f 70/97/81 59/98/73 85/109/83 79/108/91
f 85/110/92 72/111/93 80/112/93 86/113/92
f 72/111/93 71/114/94 87/115/94 80/112/93
f 71/114/94 81/116/95 82/117/95 87/115/94
f 81/116/95 75/118/96 89/119/96 82/117/95
f 75/118/96 74/120/97 91/121/97 89/119/96
f 74/120/97 76/122/98 83/123/98 91/121/97
f 76/122/98 77/124/99 84/125/99 83/123/98
f 77/124/99 78/126/100 92/127/100 84/125/99
f 78/126/100 79/128/101 93/129/101 92/127/100
f 79/128/101 85/130/92 86/131/92 93/129/101
f 86/113/102 80/112/103 88/132/104 95/133/105
f 80/112/103 87/115/106 97/134/107 88/132/104
f 87/115/106 82/117/108 98/135/109 97/134/107
f 82/117/108 89/119/110 99/136/111 98/135/109
f 89/119/110 91/121/112 90/137/113 99/136/111
f 91/121/112 83/123/114 101/138/115 90/137/113
f 83/123/114 84/125/116 102/139/117 101/138/115
f 84/125/116 92/127/118 104/140/119 102/139/117
f 92/127/118 93/129/120 94/141/121 104/140/119
f 93/129/120 86/131/102 95/142/105 94/141/121
f 95/133/105 88/132/104 96/143/122 106/144/123
f 88/132/104 97/134/107 107/145/124 96/143/122
f 97/134/107 98/135/109 100/146/125 107/145/124
f 98/135/109 99/136/111 108/147/126 100/146/125
f 99/136/111 90/137/113 109/148/127 108/147/126
f 90/137/113 101/138/115 110/149/128 109/148/127
f 101/138/115 102/139/117 103/150/129 110/149/128
f 102/139/117 104/140/119 111/151/130 103/150/129
f 104/140/119 94/141/121 105/152/131 111/151/130
f 94/141/121 95/142/105 106/153/123 105/152/131
f 106/144/123 96/143/122 112/154/132
f 96/143/122 107/145/124 112/155/132
f 107/145/124 100/146/125 112/156/132
f 100/146/125 108/147/126 112/157/132
f 108/147/126 109/148/127 112/158/132
f 109/148/127 110/149/128 112/159/132
f 110/149/128 103/150/129 112/160/132
f 103/150/129 111/151/130 112/161/132
f 111/151/130 105/152/131 112/162/132
f 105/152/131 106/153/123 112/163/132
f 118/164/133 122/165/133 113/166/134 120/167/134
f 122/165/135 114/168/135 116/169/136 113/166/136
f 114/168/137 117/170/137 115/171/138 116/169/138
f 117/170/139 118/172/139 120/173/140 115/171/140
f 120/167/134 113/166/134 123/174/141 121/175/141
f 113/166/136 116/169/136 119/176/142 123/174/142
f 116/169/138 115/171/138 124/177/143 119/176/143
f 115/171/140 120/173/140 121/178/144 124/177/144
s 0
f 117/179/145 114/176/145 122/180/145 118/168/145
f 121/176/146 123/181/146 119/168/146 124/182/146
s 1
f 135/164/147 134/165/147 129/166/148 128/167/148
f 134/165/149 125/168/149 132/169/150 129/166/150
f 125/168/151 126/170/151 127/171/152 132/169/152
f 126/170/153 135/172/153 128/173/154 127/171/154
f 128/167/148 129/166/148 130/174/155 136/175/155
f 129/166/150 132/169/150 131/176/156 130/174/156
f 132/169/152 127/171/152 133/177/157 131/176/157
f 127/171/154 128/173/154 136/178/158 133/177/158
s 0
f 126/183/159 125/176/159 134/184/159 135/168/159
f 136/176/160 130/185/160 131/168/160 133/186/160
s 1
f 140/164/133 137/165/133 138/166/134 145/167/134
f 137/165/161 139/168/161 142/169/162 138/166/162
f 139/168/137 146/170/137 143/171/138 142/169/138
f 146/170/163 140/172/163 145/173/164 143/171/164
f 145/167/134 138/166/134 141/174/165 147/175/165
f 138/166/162 142/169/162 144/176/166 141/174/166
f 142/169/138 143/171/138 148/177/167 144/176/167
f 143/171/164 145/173/164 147/178/168 148/177/168
s 0
f 146/179/169 139/176/169 137/180/169 140/168/169
f 147/176/170 141/181/170 144/168/170 148/182/170
s 1
f 152/164/171 159/165/171 154/166/172 157/167/172
f 159/165/149 149/168/149 151/169/150 154/166/150
f 149/168/173 150/170/173 156/171/174 151/169/174
f 150/170/153 152/172/153 157/173/154 156/171/154
f 157/167/172 154/166/172 153/174/175 158/175/175
f 154/166/150 151/169/150 155/176/176 153/174/176
f 151/169/174 156/171/174 160/177/177 155/176/177
f 156/171/154 157/173/154 158/178/178 160/177/178
s 0
f 150/183/179 149/176/179 159/184/179 152/168/179
f 158/176/180 153/185/180 155/168/180 160/186/180
s 1
f 172/164/181 162/187/181 164/188/181 161/175/181
f 162/187/182 163/189/182 169/190/182 164/188/182
f 163/189/183 171/168/183 170/176/183 169/190/183
f 171/168/184 165/191/184 167/192/184 170/176/184
f 165/191/185 166/193/185 168/194/185 167/192/185
f 166/193/186 172/172/186 161/178/186 168/194/186
s 0
f 161/173/187 164/177/187 169/174/187 170/167/187 167/165/187 168/170/187
f 166/177/188 165/174/188 171/167/188 163/165/188 162/170/188 172/173/188
o lantern_handle
v 0.071547 0.259428 -0.000000 0.8627 0.8627 0.8627
v 0.075000 0.260000 0.003500 0.9255 0.9255 0.9255
v 0.069291 0.294442 0.003500 0.9451 0.9451 0.9451
v 0.075000 0.260000 -0.003500 0.9294 0.9294 0.9294
v 0.069291 0.294442 -0.003500 0.9490 0.9490 0.9490
v 0.072599 0.295584 0.000000 0.9960 0.9960 0.9960
v 0.065983 0.293299 -0.000000 0.8902 0.8902 0.8902
v 0.050344 0.321399 -0.000000 0.9137 0.9137 0.9137
v 0.028701 0.343149 0.003500 0.9647 0.9647 0.9647
v 0.053033 0.323640 0.003500 0.9647 0.9647 0.9647
v 0.030259 0.346283 0.000000 1.0000 1.0000 1.0000
v 0.055722 0.325880 0.000000 1.0000 1.0000 1.0000
v 0.053033 0.323640 -0.003500 0.9568 0.9568 0.9568
v 0.027143 0.340015 -0.000000 0.9215 0.9215 0.9215
v 0.000000 0.346500 -0.000000 0.9215 0.9215 0.9215
v 0.028701 0.343149 -0.003500 0.9607 0.9607 0.9607
v -0.027143 0.340015 -0.000000 0.9215 0.9215 0.9215
v 0.000000 0.350000 0.003500 0.9647 0.9647 0.9647
v -0.030259 0.346283 0.000000 1.0000 1.0000 1.0000
v 0.000000 0.353500 0.000000 1.0000 1.0000 1.0000
v 0.000000 0.350000 -0.003500 0.9607 0.9607 0.9607
v -0.053033 0.323640 0.003500 0.9372 0.9372 0.9372
v -0.028701 0.343149 0.003500 0.9647 0.9647 0.9647
v -0.055722 0.325880 0.000000 1.0000 1.0000 1.0000
v -0.028701 0.343149 -0.003500 0.9647 0.9647 0.9647
v -0.050344 0.321399 -0.000000 0.7843 0.7843 0.7843
v -0.053033 0.323640 -0.003500 0.9294 0.9294 0.9294
v -0.069291 0.294442 0.003500 0.9372 0.9372 0.9372
v -0.078453 0.260572 0.000000 0.9686 0.9686 0.9686
v -0.072599 0.295584 0.000000 1.0000 1.0000 1.0000
v -0.069291 0.294442 -0.003500 0.9372 0.9372 0.9372
v -0.071547 0.259428 -0.000000 0.8666 0.8666 0.8666
v -0.065983 0.293299 -0.000000 0.8666 0.8666 0.8666
v 0.078453 0.260572 0.000000 0.9725 0.9725 0.9725
v -0.075000 0.260000 0.003500 0.9255 0.9255 0.9255
v -0.075000 0.260000 -0.003500 0.9215 0.9215 0.9215
vn -0.7002 -0.1155 -0.7046
vn -0.6665 -0.2330 -0.7082
vn -0.6666 -0.2327 -0.7082
vn -0.7002 -0.1155 0.7046
vn -0.6666 -0.2327 0.7082
vn -0.6665 -0.2330 0.7082
vn 0.6999 0.1165 0.7046
vn 0.6664 0.2332 0.7082
vn 0.6663 0.2336 0.7082
vn 0.6999 0.1165 -0.7046
vn 0.6663 0.2336 -0.7082
vn 0.6664 0.2332 -0.7082
vn -0.5399 -0.4568 -0.7070
vn -0.5405 -0.4561 -0.7070
vn -0.5405 -0.4561 0.7070
vn -0.5399 -0.4568 0.7070
vn 0.5403 0.4562 0.7070
vn 0.5398 0.4569 0.7070
vn 0.5398 0.4569 -0.7070
vn 0.5403 0.4562 -0.7070
vn -0.3103 -0.6353 -0.7072
vn -0.3111 -0.6349 -0.7072
vn -0.3111 -0.6349 0.7072
vn -0.3103 -0.6353 0.7072
vn 0.3109 0.6349 0.7072
vn 0.3101 0.6354 0.7072
vn 0.3101 0.6354 -0.7072
vn 0.3109 0.6349 -0.7072
vn -0.0000 -0.7068 -0.7074
vn -0.0000 -0.7068 0.7074
vn -0.0000 0.7068 0.7074
vn -0.0000 0.7068 -0.7074
vn 0.3103 -0.6353 -0.7072
vn 0.3111 -0.6349 -0.7072
vn 0.3111 -0.6349 0.7072
vn 0.3103 -0.6353 0.7072
vn -0.3109 0.6349 0.7072
vn -0.3101 0.6354 0.7072
vn -0.3101 0.6354 -0.7072
vn -0.3109 0.6349 -0.7072
vn 0.4472 -0.5575 -0.6994
vn 0.4472 -0.5575 0.6994
vn -0.4470 0.5577 0.6994
vn -0.4470 0.5577 -0.6994
vn -0.6374 0.3595 -0.6815
vn -0.6374 0.3595 0.6815
vn -0.6049 0.3412 -0.7195
vn -0.6049 0.3412 0.7195
vn -0.6999 0.1165 0.7046
vn -0.6999 0.1165 -0.7046
vn 0.7002 -0.1155 -0.7046
vn 0.7002 -0.1155 0.7046
vn 0.1635 -0.9865 -0.0000
vn -0.1635 -0.9865 -0.0000
vt 0.125977 0.813477
vt 0.141113 0.813477
vt 0.141113 0.821045
vt 0.125977 0.821045
vt 0.156250 0.813477
vt 0.156250 0.821045
vt 0.171387 0.813477
vt 0.171387 0.821045
vt 0.186523 0.813477
vt 0.186523 0.821045
vt 0.141113 0.828613
vt 0.125977 0.828613
vt 0.156250 0.828613
vt 0.171387 0.828613
vt 0.186523 0.828613
vt 0.141113 0.836182
vt 0.125977 0.836182
vt 0.156250 0.836182
vt 0.171387 0.836182
vt 0.186523 0.836182
vt 0.141113 0.843750
vt 0.125977 0.843750
vt 0.156250 0.843750
vt 0.171387 0.843750
vt 0.186523 0.843750
vt 0.141113 0.851318
vt 0.125977 0.851318
vt 0.156250 0.851318
vt 0.171387 0.851318
vt 0.186523 0.851318
vt 0.141113 0.858887
vt 0.125977 0.858887
vt 0.156250 0.858887
vt 0.171387 0.858887
vt 0.186523 0.858887
vt 0.141113 0.866455
vt 0.125977 0.866455
vt 0.156250 0.866455
vt 0.171387 0.866455
vt 0.186523 0.866455
vt 0.141113 0.874023
vt 0.125977 0.874023
vt 0.156250 0.874023
vt 0.171387 0.874023
vt 0.186523 0.874023
s 1
usemtl props
f 176/195/189 173/196/189 179/197/190 177/198/191
f 173/196/192 174/199/192 175/200/193 179/197/194
f 174/199/195 206/201/195 178/202/196 175/200/197
f 206/201/198 176/203/198 177/204/199 178/202/200
f 177/198/191 179/197/190 180/205/201 185/206/202
f 179/197/194 175/200/193 182/207/203 180/205/204
f 175/200/197 178/202/196 184/208/205 182/207/206
f 178/202/200 177/204/199 185/209/207 184/208/208
f 185/206/202 180/205/201 186/210/209 188/211/210
f 180/205/204 182/207/203 181/212/211 186/210/212
f 182/207/206 184/208/205 183/213/213 181/212/214
f 184/208/208 185/209/207 188/214/215 183/213/216
f 188/211/210 186/210/209 187/215/217 193/216/217
f 186/210/212 181/212/211 190/217/218 187/215/218
f 181/212/214 183/213/213 192/218/219 190/217/219
f 183/213/216 188/214/215 193/219/220 192/218/220
f 193/216/217 187/215/217 189/220/221 197/221/222
f 187/215/218 190/217/218 195/222/223 189/220/224
f 190/217/219 192/218/219 191/223/225 195/222/226
f 192/218/220 193/219/220 197/224/227 191/223/228
f 197/221/222 189/220/221 198/225/229 199/226/229
f 189/220/224 195/222/223 194/227/230 198/225/230
f 195/222/226 191/223/225 196/228/231 194/227/231
f 191/223/228 197/224/227 199/229/232 196/228/232
f 199/226/233 198/225/233 202/230/233 200/231/233
f 198/225/234 194/227/234 203/232/234 202/230/234
f 194/227/235 196/228/235 205/233/235 203/232/235
f 196/228/236 199/229/236 200/234/236 205/233/236
f 200/231/237 202/230/237 201/235/237 207/236/237
f 202/230/238 203/232/238 208/237/238 201/235/238
f 203/232/239 205/233/239 204/238/239 208/237/239
f 205/233/240 200/234/240 207/239/240 204/238/240
s 0
f 206/219/241 174/237/241 173/216/241 176/199/241
f 207/237/242 201/216/242 208/199/242 204/219/242
