# Blender 4.5.14 LTS
# www.blender.org
mtllib note.mtl
o note
v -0.073595 0.008735 0.105000 1.0000 1.0000 1.0000
v -0.000000 0.001000 0.105000 1.0000 1.0000 1.0000
v -0.073595 0.008735 -0.105000 1.0000 1.0000 1.0000
v -0.000021 0.000801 0.105000 0.6706 0.6706 0.6706
v -0.073616 0.008536 0.105000 0.6706 0.6706 0.6706
v -0.073616 0.008536 -0.105000 0.6706 0.6706 0.6706
v -0.000021 0.000801 -0.105000 0.6706 0.6706 0.6706
v 0.073595 0.008735 0.105000 1.0000 1.0000 1.0000
v 0.073595 0.008735 -0.105000 1.0000 1.0000 1.0000
v -0.000000 0.001000 -0.105000 1.0000 1.0000 1.0000
v 0.073616 0.008536 0.105000 0.6706 0.6706 0.6706
v 0.000021 0.000801 0.105000 0.6667 0.6667 0.6667
v 0.000021 0.000801 -0.105000 0.6667 0.6667 0.6667
v 0.073616 0.008536 -0.105000 0.6706 0.6706 0.6706
vn 0.1045 0.9945 -0.0000
vn -0.1045 -0.9945 -0.0000
vn -0.1045 0.9945 -0.0000
vn 0.1045 -0.9945 -0.0000
vt 0.438477 0.875977
vt 0.484375 0.875977
vt 0.484375 0.999023
vt 0.438477 0.999023
vt 0.313477 0.813477
vt 0.374023 0.813477
vt 0.374023 0.874023
vt 0.313477 0.874023
vt 0.530273 0.875977
vt 0.530273 0.999023
s 0
usemtl props
f 1/1/1 2/2/1 10/3/1 3/4/1
f 4/5/2 5/6/2 6/7/2 7/8/2
f 2/2/3 8/9/3 9/10/3 10/3/3
f 11/5/4 12/6/4 13/7/4 14/8/4
