# Blender 4.5.14 LTS
# www.blender.org
mtllib padlock.mtl
o padlock
v -0.025000 0.000000 0.010000 0.7490 0.7490 0.7490
v 0.028000 0.006000 0.010000 0.8431 0.8431 0.8431
v 0.028000 0.036000 0.010000 0.9960 0.9960 0.9960
v -0.025000 0.042000 0.010000 0.9843 0.9843 0.9843
v -0.028000 0.036000 0.010000 1.0000 1.0000 1.0000
v -0.025000 0.000000 -0.010000 0.7529 0.7529 0.7529
v 0.025000 0.000000 0.010000 0.7529 0.7529 0.7529
v 0.025000 0.000000 -0.010000 0.7529 0.7529 0.7529
v 0.028000 0.006000 -0.010000 0.8470 0.8470 0.8470
v 0.028000 0.036000 -0.010000 1.0000 1.0000 1.0000
v 0.025000 0.042000 -0.010000 0.9882 0.9882 0.9882
v 0.025000 0.042000 0.010000 0.9882 0.9882 0.9882
v -0.025000 0.042000 -0.010000 0.9882 0.9882 0.9882
v -0.028000 0.036000 -0.010000 1.0000 1.0000 1.0000
v -0.028000 0.006000 0.010000 0.8353 0.8353 0.8353
v -0.028000 0.006000 -0.010000 0.8392 0.8392 0.8392
vn -0.0000 -0.0000 1.0000
vn -0.0000 -0.0000 -1.0000
vn -0.0000 -1.0000 -0.0000
vn 0.8944 -0.4472 -0.0000
vn 1.0000 -0.0000 -0.0000
vn 0.8944 0.4472 -0.0000
vn -0.0000 1.0000 -0.0000
vn -0.8944 0.4472 -0.0000
vn -1.0000 -0.0000 -0.0000
vn -0.8944 -0.4472 -0.0000
vt 0.815883 0.836914
vt 0.855992 0.836914
vt 0.858398 0.842215
vt 0.858398 0.868722
vt 0.855992 0.874023
vt 0.815883 0.874023
vt 0.813477 0.868722
vt 0.813477 0.842215
vt 0.853118 0.938477
vt 0.836914 0.938477
vt 0.836914 0.957852
vt 0.853118 0.957852
vt 0.855291 0.938477
vt 0.855291 0.957852
vt 0.865014 0.938477
vt 0.865014 0.957852
vt 0.867188 0.938477
vt 0.867188 0.957852
vt 0.883391 0.938477
vt 0.883391 0.957852
vt 0.885565 0.938477
vt 0.885565 0.957852
vt 0.895287 0.938477
vt 0.895287 0.957852
vt 0.897461 0.938477
vt 0.897461 0.957852
s 0
usemtl props
f 1/1/1 7/2/1 2/3/1 3/4/1 12/5/1 4/6/1 5/7/1 15/8/1
f 16/3/2 14/4/2 13/5/2 11/6/2 10/7/2 9/8/2 8/1/2 6/2/2
f 7/9/3 1/10/3 6/11/3 8/12/3
f 2/13/4 7/9/4 8/12/4 9/14/4
f 3/15/5 2/13/5 9/14/5 10/16/5
f 12/17/6 3/15/6 10/16/6 11/18/6
f 4/19/7 12/17/7 11/18/7 13/20/7
f 5/21/8 4/19/8 13/20/8 14/22/8
f 15/23/9 5/21/9 14/22/9 16/24/9
f 1/25/10 15/23/10 16/24/10 6/26/10
o padlock_shackle
v 0.013969 0.036000 0.001750 0.7294 0.7294 0.7294
v 0.017000 0.036000 0.003500 0.7020 0.7020 0.7020
v 0.013975 0.061800 0.001750 0.9333 0.9333 0.9333
v 0.020025 0.062200 0.001750 0.9921 0.9921 0.9921
v 0.020031 0.036000 0.001750 0.6941 0.6941 0.6941
v 0.020031 0.036000 -0.001750 0.6902 0.6902 0.6902
v 0.017000 0.036000 -0.003500 0.7059 0.7059 0.7059
v 0.017000 0.062000 -0.003500 0.9843 0.9843 0.9843
v 0.012097 0.068984 -0.001750 0.9372 0.9372 0.9372
v 0.013975 0.061800 -0.001750 0.9372 0.9372 0.9372
v 0.012097 0.068984 0.001750 0.9411 0.9411 0.9411
v 0.017000 0.062000 0.003500 0.9804 0.9804 0.9804
v 0.020025 0.062200 -0.001750 0.9960 0.9960 0.9960
v 0.014722 0.070500 -0.003500 0.9882 0.9882 0.9882
v 0.017347 0.072016 -0.001750 1.0000 1.0000 1.0000
v 0.014722 0.070500 0.003500 0.9843 0.9843 0.9843
v 0.017347 0.072016 0.001750 1.0000 1.0000 1.0000
v 0.006984 0.074097 -0.001750 0.9451 0.9451 0.9451
v 0.000000 0.075969 0.001750 0.9647 0.9647 0.9647
v 0.000000 0.075969 -0.001750 0.9725 0.9725 0.9725
v 0.006984 0.074097 0.001750 0.9529 0.9529 0.9529
v 0.008500 0.076722 0.003500 0.9960 0.9960 0.9960
v 0.010016 0.079347 0.001750 1.0000 1.0000 1.0000
v 0.010016 0.079347 -0.001750 1.0000 1.0000 1.0000
v 0.008500 0.076722 -0.003500 0.9921 0.9921 0.9921
v 0.000000 0.079000 0.003500 0.9921 0.9921 0.9921
v -0.008500 0.076722 0.003500 0.9921 0.9921 0.9921
v -0.006984 0.074097 0.001750 0.9451 0.9451 0.9451
v 0.000000 0.082031 0.001750 1.0000 1.0000 1.0000
v 0.000000 0.082031 -0.001750 1.0000 1.0000 1.0000
v -0.010016 0.079347 0.001750 1.0000 1.0000 1.0000
v 0.000000 0.079000 -0.003500 0.9921 0.9921 0.9921
v -0.008500 0.076722 -0.003500 0.9960 0.9960 0.9960
v -0.006984 0.074097 -0.001750 0.9451 0.9451 0.9451
v -0.012097 0.068984 0.001750 0.8470 0.8470 0.8470
v -0.014722 0.070500 0.003500 0.9568 0.9568 0.9568
v -0.010016 0.079347 -0.001750 1.0000 1.0000 1.0000
v -0.017347 0.072016 -0.001750 0.9921 0.9921 0.9921
v -0.014722 0.070500 -0.003500 0.9529 0.9529 0.9529
v -0.020023 0.062226 0.001750 0.9804 0.9804 0.9804
v -0.012097 0.068984 -0.001750 0.8353 0.8353 0.8353
v -0.017347 0.072016 0.001750 0.9882 0.9882 0.9882
v -0.013977 0.061774 0.001750 0.8902 0.8902 0.8902
v -0.017000 0.040000 0.003500 0.7020 0.7020 0.7020
v -0.020023 0.062226 -0.001750 0.9804 0.9804 0.9804
v -0.020031 0.040000 0.001750 0.6902 0.6902 0.6902
v -0.017000 0.040000 -0.003500 0.7020 0.7020 0.7020
v -0.017000 0.062000 -0.003500 0.9568 0.9568 0.9568
v -0.013969 0.040000 -0.001750 0.7255 0.7255 0.7255
v -0.013977 0.061774 -0.001750 0.8980 0.8980 0.8980
v -0.017000 0.062000 0.003500 0.9607 0.9607 0.9607
v -0.013969 0.040000 0.001750 0.7255 0.7255 0.7255
v 0.013969 0.036000 -0.001750 0.7294 0.7294 0.7294
v -0.020031 0.040000 -0.001750 0.6902 0.6902 0.6902
vn -0.5004 0.0001 -0.8658
vn -0.4977 -0.0675 -0.8647
vn -0.4980 -0.0629 -0.8649
vn -1.0000 0.0003 -0.0000
vn -0.9919 -0.1274 -0.0000
vn -0.5004 0.0001 0.8658
vn -0.4980 -0.0629 0.8649
vn -0.4977 -0.0675 0.8647
vn 0.5004 0.0001 0.8658
vn 0.4977 0.0641 0.8650
vn 0.4974 0.0690 0.8648
vn 1.0000 0.0003 -0.0000
vn 0.9911 0.1329 -0.0000
vn 0.5004 0.0001 -0.8658
vn 0.4974 0.0690 -0.8648
vn 0.4977 0.0641 -0.8650
vn -0.4319 -0.2488 -0.8669
vn -0.4318 -0.2489 -0.8669
vn -0.8675 -0.4974 -0.0000
vn -0.4318 -0.2489 0.8669
vn -0.4319 -0.2488 0.8669
vn 0.4315 0.2500 0.8668
vn 0.4314 0.2502 0.8668
vn 0.8649 0.5019 -0.0000
vn 0.4314 0.2502 -0.8668
vn 0.4315 0.2500 -0.8668
vn -0.2500 -0.4330 -0.8660
vn -0.5000 -0.8660 -0.0000
vn -0.2500 -0.4330 0.8660
vn 0.2500 0.4330 0.8660
vn 0.5000 0.8660 -0.0000
vn 0.2500 0.4330 -0.8660
vn -0.0000 -0.5000 -0.8660
vn -0.0000 -1.0000 -0.0000
vn -0.0000 -0.5000 0.8660
vn -0.0000 0.5000 0.8660
vn -0.0000 1.0000 -0.0000
vn -0.0000 0.5000 -0.8660
vn 0.2500 -0.4330 -0.8660
vn 0.5000 -0.8660 -0.0000
vn 0.2500 -0.4330 0.8660
vn -0.2500 0.4330 0.8660
vn -0.5000 0.8660 -0.0000
vn -0.2500 0.4330 -0.8660
vn 0.3628 -0.3628 -0.8584
vn 0.7071 -0.7071 -0.0000
vn 0.3628 -0.3628 0.8584
vn -0.3628 0.3628 0.8584
vn -0.7071 0.7071 -0.0000
vn -0.3628 0.3628 -0.8584
vn -0.8546 0.2635 -0.4475
vn 1.0000 -0.0000 -0.0000
vn -0.8546 0.2635 0.4475
vn -0.8102 0.2498 -0.5302
vn -0.8102 0.2498 0.5302
vn -0.5005 0.0001 0.8657
vn -1.0000 0.0004 -0.0000
vn -0.5005 0.0001 -0.8657
vn 0.5005 0.0001 -0.8657
vn 1.0000 0.0004 -0.0000
vn 0.5005 0.0001 0.8657
vt 0.625977 0.813477
vt 0.636068 0.813477
vt 0.636068 0.821045
vt 0.625977 0.821045
vt 0.646159 0.813477
vt 0.646159 0.821045
vt 0.656250 0.813477
vt 0.656250 0.821045
vt 0.666341 0.813477
vt 0.666341 0.821045
vt 0.676432 0.813477
vt 0.676432 0.821045
vt 0.686523 0.813477
vt 0.686523 0.821045
vt 0.636068 0.828613
vt 0.625977 0.828613
vt 0.646159 0.828613
vt 0.656250 0.828613
vt 0.666341 0.828613
vt 0.676432 0.828613
vt 0.686523 0.828613
vt 0.636068 0.836182
vt 0.625977 0.836182
vt 0.646159 0.836182
vt 0.656250 0.836182
vt 0.666341 0.836182
vt 0.676432 0.836182
vt 0.686523 0.836182
vt 0.636068 0.843750
vt 0.625977 0.843750
vt 0.646159 0.843750
vt 0.656250 0.843750
vt 0.666341 0.843750
vt 0.676432 0.843750
vt 0.686523 0.843750
vt 0.636068 0.851318
vt 0.625977 0.851318
vt 0.646159 0.851318
vt 0.656250 0.851318
vt 0.666341 0.851318
vt 0.676432 0.851318
vt 0.686523 0.851318
vt 0.636068 0.858887
vt 0.625977 0.858887
vt 0.646159 0.858887
vt 0.656250 0.858887
vt 0.666341 0.858887
vt 0.676432 0.858887
vt 0.686523 0.858887
vt 0.636068 0.866455
vt 0.625977 0.866455
vt 0.646159 0.866455
vt 0.656250 0.866455
vt 0.666341 0.866455
vt 0.676432 0.866455
vt 0.686523 0.866455
vt 0.636068 0.874023
vt 0.625977 0.874023
vt 0.646159 0.874023
vt 0.656250 0.874023
vt 0.666341 0.874023
vt 0.676432 0.874023
vt 0.686523 0.874023
s 1
usemtl props
f 23/27/11 69/28/11 26/29/12 24/30/13
f 69/28/14 17/31/14 19/32/15 26/29/15
f 17/31/16 18/33/16 28/34/17 19/32/18
f 18/33/19 21/35/19 20/36/20 28/34/21
f 21/35/22 22/37/22 29/38/23 20/36/23
f 22/37/24 23/39/24 24/40/25 29/38/26
f 24/30/13 26/29/12 25/41/27 30/42/28
f 26/29/15 19/32/15 27/43/29 25/41/29
f 19/32/18 28/34/17 32/44/30 27/43/31
f 28/34/21 20/36/20 33/45/32 32/44/33
f 20/36/23 29/38/23 31/46/34 33/45/34
f 29/38/26 24/40/25 30/47/35 31/46/36
f 30/42/28 25/41/27 34/48/37 41/49/37
f 25/41/29 27/43/29 37/50/38 34/48/38
f 27/43/31 32/44/30 38/51/39 37/50/39
f 32/44/33 33/45/32 39/52/40 38/51/40
f 33/45/34 31/46/34 40/53/41 39/52/41
f 31/46/36 30/47/35 41/54/42 40/53/42
f 41/49/37 34/48/37 36/55/43 48/56/43
f 34/48/38 37/50/38 35/57/44 36/55/44
f 37/50/39 38/51/39 42/58/45 35/57/45
f 38/51/40 39/52/40 45/59/46 42/58/46
f 39/52/41 40/53/41 46/60/47 45/59/47
f 40/53/42 41/54/42 48/61/48 46/60/48
f 48/56/43 36/55/43 50/62/49 49/63/49
f 36/55/44 35/57/44 44/64/50 50/62/50
f 35/57/45 42/58/45 43/65/51 44/64/51
f 42/58/46 45/59/46 47/66/52 43/65/52
f 45/59/47 46/60/47 53/67/53 47/66/53
f 46/60/48 48/61/48 49/68/54 53/67/54
f 49/63/49 50/62/49 57/69/55 55/70/55
f 50/62/50 44/64/50 51/71/56 57/69/56
f 44/64/51 43/65/51 52/72/57 51/71/57
f 43/65/52 47/66/52 58/73/58 52/72/58
f 47/66/53 53/67/53 54/74/59 58/73/59
f 53/67/54 49/68/54 55/75/60 54/74/60
f 55/70/61 57/69/61 56/76/61 67/77/61
f 57/69/62 51/71/62 61/78/62 56/76/62
f 51/71/63 52/72/63 64/79/63 61/78/63
f 52/72/64 58/73/64 66/80/64 64/79/64
f 58/73/47 54/74/47 59/81/47 66/80/47
f 54/74/65 55/75/65 67/82/65 59/81/65
f 67/77/66 56/76/66 62/83/66 60/84/66
f 56/76/67 61/78/67 70/85/67 62/83/67
f 61/78/68 64/79/68 63/86/68 70/85/68
f 64/79/69 66/80/69 65/87/69 63/86/69
f 66/80/70 59/81/70 68/88/70 65/87/70
f 59/81/71 67/82/71 60/89/71 68/88/71
s 0
f 22/47/44 21/75/44 18/86/44 17/70/44 69/42/44 23/33/44
f 60/86/44 62/70/44 70/42/44 63/33/44 65/47/44 68/75/44
