# Blender 4.0.2
# www.blender.org
mtllib Axe.mtl
o Axe.002
v -0.037820 0.198398 -0.006023
v 0.037820 0.198398 -0.006023
v -0.018006 -0.183426 0.026263
v 0.018006 -0.183426 0.026263
v 0.019054 -0.027589 0.005254
v -0.019054 -0.027589 0.005254
v 0.018627 0.084784 -0.024974
v 0.018436 0.188628 -0.033363
v -0.018436 0.188551 -0.033357
v -0.018627 0.084784 -0.024974
v -0.018628 0.084508 0.023400
v 0.018628 0.084508 0.023400
v -0.027825 0.084677 -0.006021
v 0.027825 0.084677 -0.006021
v 0.019037 -0.026690 -0.038226
v 0.027962 -0.027356 -0.006019
v -0.027962 -0.027356 -0.006019
v -0.019037 -0.026690 -0.038226
v -0.018436 0.188773 0.022216
v -0.025380 0.198398 0.031731
v -0.040634 0.311306 0.031196
v -0.031007 0.311319 0.040838
v -0.031249 0.320927 0.031776
v -0.018436 0.188778 -0.033375
v -0.018418 0.198399 -0.034153
v -0.040634 0.311306 -0.043242
v -0.031249 0.320927 -0.043821
v -0.031007 0.311319 -0.052883
v 0.018436 0.188773 0.022216
v 0.025380 0.198398 0.031731
v 0.040634 0.311306 0.031196
v 0.031249 0.320927 0.031776
v 0.031007 0.311319 0.040838
v 0.018418 0.198399 -0.034153
v 0.018436 0.188778 -0.033375
v 0.031249 0.320927 -0.043821
v 0.040634 0.311306 -0.043242
v 0.031007 0.311319 -0.052883
v -0.037820 0.198398 -0.036634
v -0.028193 0.198398 -0.046275
v -0.028193 0.198398 0.034229
v -0.037820 0.198398 0.024588
v 0.028193 0.198398 -0.046275
v 0.037820 0.198398 -0.036634
v 0.037820 0.198398 0.024588
v 0.028193 0.198398 0.034229
v -0.037820 0.198398 -0.006023
v -0.027699 0.188773 -0.006023
v 0.037820 0.198398 -0.006023
v 0.027699 0.188773 -0.006023
v -0.028149 -0.180770 -0.006016
v -0.023121 -0.187005 0.010003
v 0.018084 -0.187883 -0.038307
v 0.010909 -0.195577 -0.028913
v -0.010909 -0.195577 -0.028913
v -0.018084 -0.187883 -0.038307
v 0.023121 -0.187006 0.010003
v 0.028149 -0.180770 -0.006016
vn 0.9980 -0.0170 -0.0613
vn 0.8990 -0.0336 -0.4366
vn 0.9612 -0.0253 -0.2748
vn 0.9510 0.0019 0.3093
vn 0.9194 -0.3877 -0.0663
vn -0.0000 1.0000 -0.0000
vn -0.9831 0.0281 0.1809
vn -0.9540 0.0012 0.2999
vn -0.9480 0.0053 0.3182
vn -0.0000 0.0114 0.9999
vn -0.0000 -0.0747 0.9972
vn -0.0000 -0.0805 -0.9968
vn -0.9980 -0.0170 -0.0612
vn -0.9445 -0.0143 -0.3281
vn -0.8991 -0.0336 -0.4365
vn 0.3460 0.2984 0.8895
vn -0.3821 -0.0635 0.9219
vn 0.3821 -0.0635 0.9219
vn -0.0000 -0.0134 0.9999
vn -0.0000 0.1336 0.9910
vn -0.3460 0.2984 -0.8895
vn 0.3821 -0.0635 -0.9219
vn -0.3821 -0.0635 -0.9219
vn 0.9631 0.0173 -0.2688
vn 0.9561 -0.0047 -0.2929
vn 0.9550 -0.0055 -0.2965
vn -0.0000 0.0190 -0.9998
vn -0.0000 0.0594 -0.9982
vn -0.0001 -1.0000 0.0002
vn 0.0001 -1.0000 0.0001
vn -0.0001 -1.0000 0.0001
vn 0.8844 0.3115 -0.3476
vn 0.9272 -0.0449 0.3718
vn 0.9997 -0.0249 -0.0000
vn -0.8844 0.3115 0.3476
vn -0.9272 -0.0449 -0.3718
vn -0.9997 -0.0249 -0.0000
vn -0.0000 -1.0000 0.0001
vn -0.0000 -1.0000 -0.0000
vn -0.9631 0.0173 -0.2688
vn -0.9999 -0.0017 0.0160
vn -0.9065 -0.0131 -0.4221
vn -0.8013 0.0361 0.5972
vn -0.9543 -0.0186 0.2982
vn 0.9065 -0.0131 -0.4221
vn 0.9607 0.0160 -0.2770
vn 0.8155 -0.0006 0.5787
vn 0.7846 0.0010 0.6200
vn -0.0000 -0.9766 0.2151
vn 0.9529 0.0333 0.3016
vn 0.9445 0.0320 0.3270
vn -0.0000 0.0005 -1.0000
vn -0.3460 0.2984 0.8895
vn -0.4714 0.7394 0.4806
vn -0.8844 0.3115 -0.3476
vn -0.4714 0.7394 -0.4806
vn 0.8844 0.3115 0.3476
vn 0.4714 0.7394 0.4806
vn 0.4714 0.7394 -0.4806
vn 0.3460 0.2984 -0.8895
vn -0.9272 -0.0449 0.3718
vn -0.6731 -0.7055 0.2216
vn -0.6870 -0.7219 -0.0833
vn -0.9194 -0.3877 -0.0663
vn 0.9080 -0.2002 -0.3681
vn 0.6870 -0.7219 -0.0833
vn -0.0000 -0.7031 0.7111
vn -0.9080 -0.2002 -0.3681
vn 0.6731 -0.7055 0.2216
vn 0.6734 -0.7052 0.2219
vn -0.0000 -0.7737 -0.6336
vn 0.6941 -0.7175 -0.0586
vn 0.6951 -0.7164 -0.0601
vn 0.6954 -0.7161 -0.0605
vn -0.6941 -0.7175 -0.0586
vn -0.6951 -0.7164 -0.0601
vn -0.6938 -0.7179 -0.0581
vn -0.9510 0.0019 0.3093
vn 0.9543 -0.0186 0.2982
vn 0.0001 -1.0000 0.0002
vn 0.9272 -0.0449 -0.3718
vn -0.0000 -1.0000 0.0003
vn -0.9550 -0.0055 -0.2965
vn 0.0002 -0.9766 0.2150
vn -0.0000 -0.9766 0.2150
vn 0.9555 0.0331 0.2933
vn -0.6734 -0.7052 0.2219
vn 0.6938 -0.7179 -0.0581
vn -0.6954 -0.7161 -0.0605
vt 0.340589 0.625000
vt 0.340589 0.537512
vt 0.340589 0.712488
vt 0.845567 0.525369
vt 0.654433 0.724631
vt 0.654433 0.525369
vt 0.159411 0.625000
vt 0.159411 0.668419
vt 0.159411 0.712488
vt 0.159411 0.537512
vt 0.605396 0.779807
vt 0.375000 0.968180
vt 0.375000 0.781820
vt 0.605396 0.279807
vt 0.375000 0.468180
vt 0.375000 0.281820
vt 0.340589 0.537512
vt 0.340589 0.537512
vt 0.164353 0.742252
vt 0.343180 0.750000
vt 0.156820 0.750000
vt 0.605369 0.526094
vt 0.375000 0.720061
vt 0.375000 0.625000
vt 0.605369 0.026094
vt 0.375000 0.220061
vt 0.375000 0.125000
vt 0.156820 0.500000
vt 0.375000 0.529939
vt 0.159411 0.625000
vt 0.340589 0.712488
vt 0.299576 0.562976
vt 0.340589 0.668418
vt 0.340589 0.625000
vt 0.604909 0.000000
vt 0.624511 0.025358
vt 0.605369 0.223906
vt 0.624511 0.224642
vt 0.604909 0.250000
vt 0.605369 0.723906
vt 0.624511 0.724642
vt 0.604909 0.750000
vt 0.624511 0.525358
vt 0.604909 0.500000
vt 0.375000 0.000000
vt 0.375000 0.029939
vt 0.625000 0.470567
vt 0.625000 0.279433
vt 0.605396 0.470194
vt 0.625000 0.970567
vt 0.625000 0.779433
vt 0.125000 0.625000
vt 0.340589 0.625000
vt 0.335647 0.742252
vt 0.625000 0.224631
vt 0.625000 0.025369
vt 0.375000 0.625000
vt 0.200424 0.562976
vt 0.340589 0.668418
vt 0.845567 0.724631
vt 0.605396 0.970194
vt 0.125000 0.720061
vt 0.375000 0.529939
vt 0.125000 0.625000
vt 0.125000 0.529939
vt 0.343180 0.500000
s 1
f 14/1/1 8/2/2 35/2/3
f 29/3/4 14/1/1 50/1/5
f 27/4/6 32/5/6 36/6/6
f 17/7/7 52/8/8 3/9/9
f 19/9/10 12/3/11 29/3/10
f 24/10/12 34/2/12 8/2/12
f 13/7/13 24/10/14 9/10/15
f 33/11/16 41/12/17 46/13/18
f 6/9/19 4/3/20 5/3/19
f 28/14/21 43/15/22 40/16/23
f 15/17/24 58/1/25 53/18/26
f 10/10/27 15/17/28 18/10/28
f 20/19/29 46/20/30 41/21/31
f 37/22/32 45/23/33 2/24/34
f 21/25/35 39/26/36 1/27/37
f 25/10/38 40/28/39 44/29/39
f 18/10/40 51/30/41 17/7/7
f 10/10/42 17/7/7 13/7/13
f 13/7/13 6/9/43 11/9/44
f 7/2/45 16/1/46 15/17/24
f 14/1/1 5/3/47 16/1/48
f 11/9/11 5/3/19 12/31/11
f 54/32/49 4/3/49 52/8/49
f 5/3/47 57/33/50 58/34/51
f 9/10/12 7/2/27 10/10/27
f 15/2/28 56/10/52 18/10/28
f 21/25/35 22/35/53 23/36/54
f 26/37/55 27/38/56 28/39/21
f 31/40/57 32/41/58 33/42/16
f 36/43/59 37/22/32 38/44/60
f 41/45/17 21/25/35 42/46/61
f 40/16/23 26/37/55 28/14/21
f 36/47/59 28/14/21 27/48/56
f 37/22/32 43/15/22 38/49/60
f 46/13/18 31/40/57 33/11/16
f 23/50/54 33/11/16 32/51/58
f 19/9/62 47/52/63 48/30/64
f 50/53/5 34/2/65 49/24/66
f 19/9/67 30/54/67 20/19/67
f 27/55/56 21/25/35 23/56/54
f 32/5/58 37/22/32 36/6/59
f 48/7/64 25/10/68 24/10/14
f 29/3/69 49/57/66 30/54/70
f 55/58/71 53/2/71 54/32/71
f 54/32/72 58/1/73 57/59/74
f 55/58/75 51/30/76 56/10/77
f 19/9/78 13/7/13 11/9/44
f 35/2/3 50/53/5 14/1/1
f 14/1/1 7/2/45 8/2/2
f 29/3/4 12/31/79 14/1/1
f 27/4/6 23/60/6 32/5/6
f 3/9/9 6/9/43 17/7/7
f 17/7/7 51/7/41 52/8/8
f 19/9/10 11/9/11 12/3/11
f 24/10/12 25/10/12 34/2/12
f 34/2/65 35/2/3 8/2/2
f 8/2/12 9/10/12 24/10/12
f 9/10/15 10/10/42 13/7/13
f 13/7/13 48/7/64 24/10/14
f 33/11/16 22/61/53 41/12/17
f 6/9/19 3/9/20 4/3/20
f 28/14/21 38/49/60 43/15/22
f 15/17/24 16/1/46 58/1/25
f 10/10/27 7/2/27 15/17/28
f 30/54/80 49/57/39 2/24/39
f 2/24/39 45/23/39 46/20/30
f 41/21/31 42/62/39 1/52/39
f 1/52/39 47/52/39 20/19/29
f 30/54/80 2/24/39 46/20/30
f 41/21/31 1/52/39 20/19/29
f 20/19/29 30/54/80 46/20/30
f 2/24/34 44/63/81 37/22/32
f 37/22/32 31/40/57 45/23/33
f 1/27/37 42/46/61 21/25/35
f 21/25/35 26/37/55 39/26/36
f 25/10/38 47/64/39 1/52/39
f 1/52/39 39/65/39 40/28/39
f 40/28/39 43/66/39 44/29/39
f 44/29/39 2/24/39 49/24/39
f 44/29/39 49/24/39 34/2/82
f 25/10/38 1/52/39 40/28/39
f 44/29/39 34/2/82 25/10/38
f 18/10/40 56/10/83 51/30/41
f 10/10/42 18/10/40 17/7/7
f 13/7/13 17/7/7 6/9/43
f 7/2/45 14/1/1 16/1/46
f 14/1/1 12/31/79 5/3/47
f 11/9/11 6/9/19 5/3/19
f 52/8/49 55/58/49 54/32/49
f 54/32/49 57/59/84 4/3/49
f 4/3/49 3/9/85 52/8/49
f 58/34/51 16/1/48 5/3/47
f 5/3/47 4/3/86 57/33/50
f 9/10/12 8/2/12 7/2/27
f 15/2/28 53/2/52 56/10/52
f 41/45/17 22/35/53 21/25/35
f 40/16/23 39/26/36 26/37/55
f 36/47/59 38/49/60 28/14/21
f 37/22/32 44/63/81 43/15/22
f 46/13/18 45/23/33 31/40/57
f 23/50/54 22/61/53 33/11/16
f 19/9/62 20/19/87 47/52/63
f 50/53/5 35/2/3 34/2/65
f 19/9/67 29/3/67 30/54/67
f 27/55/56 26/37/55 21/25/35
f 32/5/58 31/40/57 37/22/32
f 48/7/64 47/64/63 25/10/68
f 29/3/69 50/1/5 49/57/66
f 55/58/71 56/10/71 53/2/71
f 54/32/72 53/18/88 58/1/73
f 55/58/75 52/8/89 51/30/76
f 19/9/78 48/30/64 13/7/13
o Axe.001
v -0.011634 0.168908 0.137580
v -0.011600 0.317123 0.137906
v -0.023629 0.209301 -0.072859
v -0.023628 0.304364 -0.072880
v 0.011634 0.168908 0.137580
v 0.011600 0.317123 0.137906
v 0.023629 0.209301 -0.072859
v 0.023628 0.304364 -0.072880
v -0.021821 0.204277 0.064534
v -0.021862 0.304355 0.064498
v 0.021821 0.204277 0.064534
v 0.021862 0.304355 0.064498
v -0.034305 0.304363 0.007770
v 0.034293 0.206673 0.007717
v -0.034293 0.206673 0.007717
v 0.034305 0.304363 0.007770
v -0.015033 0.190584 0.093722
v 0.014970 0.307905 0.094178
v -0.014970 0.307905 0.094178
v 0.015033 0.190584 0.093721
v -0.013651 0.177027 0.109637
v 0.013318 0.313562 0.113939
v -0.013318 0.313562 0.113939
v 0.013651 0.177027 0.109637
v -0.010371 0.238095 0.155597
v 0.010371 0.238095 0.155597
v -0.010535 0.278766 0.153204
v 0.010535 0.278766 0.153204
vn -0.0000 -0.8468 -0.5320
vn -0.0000 -0.8759 -0.4824
vn -0.0000 -0.9993 -0.0372
vn -0.0000 -0.9773 -0.2118
vn -0.0000 0.9817 -0.1903
vn -0.0000 0.9767 -0.2146
vn 0.9914 -0.0000 -0.1312
vn 0.9991 -0.0001 0.0422
vn 0.9989 -0.0002 0.0462
vn -0.0000 -0.9995 -0.0326
vn -0.9752 -0.0003 0.2212
vn -0.9897 0.0024 0.1430
vn -0.9754 -0.0003 0.2205
vn -0.0000 -0.9603 -0.2790
vn -0.0000 0.2189 0.9758
vn -0.0000 -0.0985 0.9951
vn -0.0000 1.0000 0.0001
vn -0.0000 1.0000 -0.0000
vn -0.9991 -0.0001 0.0422
vn -0.9914 -0.0000 -0.1312
vn -0.9989 -0.0002 0.0462
vn -0.0000 0.9891 -0.1470
vn -0.0000 0.9987 -0.0510
vn 0.9972 -0.0005 0.0751
vn 0.9974 -0.0005 0.0719
vn 0.9970 -0.0042 0.0767
vn -0.0000 -0.2520 0.9677
vn 0.9897 0.0024 0.1430
vn 0.9752 -0.0003 0.2212
vn 0.9754 -0.0003 0.2205
vn 0.9972 0.0015 0.0750
vn -0.9917 -0.0029 0.1283
vn -0.9970 -0.0042 0.0767
vn -0.9972 -0.0005 0.0751
vn 0.9917 -0.0029 0.1283
vn 0.9969 0.0079 0.0777
vn 0.9975 0.0007 0.0714
vn -0.0000 0.3705 0.9288
vn -0.9974 -0.0005 0.0719
vn -0.9972 0.0015 0.0750
vn -0.9975 0.0007 0.0714
vn -0.9969 0.0079 0.0777
vn -0.0000 -0.0002 -1.0000
vt 0.375000 0.687500
vt 0.125000 0.718750
vt 0.125000 0.687500
vt 0.125000 0.562500
vt 0.375000 0.625000
vt 0.125000 0.625000
vt 0.875000 0.687500
vt 0.625000 0.718750
vt 0.625000 0.687500
vt 0.375000 0.500000
vt 0.625000 0.562500
vt 0.375000 0.562500
vt 0.125000 0.500000
vt 0.375000 0.125000
vt 0.625000 0.062500
vt 0.625000 0.125000
vt 0.375000 0.750000
vt 0.375000 0.718750
vt 0.562500 0.750000
vt 0.500000 1.000000
vt 0.500000 0.750000
vt 0.875000 0.562500
vt 0.625000 0.500000
vt 0.875000 0.500000
vt 0.625000 0.187500
vt 0.375000 0.250000
vt 0.375000 0.187500
vt 0.875000 0.750000
vt 0.625000 0.750000
vt 0.625000 0.625000
vt 0.875000 0.625000
vt 0.375000 1.000000
vt 0.375000 0.062500
vt 0.375000 0.031250
vt 0.500000 0.000000
vt 0.625000 1.000000
vt 0.375000 0.000000
vt 0.562500 0.000000
vt 0.625000 0.000000
vt 0.625000 0.031250
vt 0.875000 0.718750
vt 0.125000 0.750000
vt 0.562500 1.000000
vt 0.625000 0.250000
s 1
f 78/67/90 79/68/91 75/69/90
f 73/70/92 69/71/93 67/72/93
f 77/73/94 80/74/95 76/75/94
f 65/76/96 74/77/97 72/78/98
f 65/76/99 73/70/92 61/79/99
f 67/80/100 77/81/101 68/82/102
f 63/83/103 79/68/91 82/84/91
f 86/85/104 83/86/105 84/87/105
f 71/88/106 66/89/107 62/90/107
f 67/72/93 78/67/90 75/69/90
f 71/91/108 61/92/109 73/93/110
f 80/74/95 60/94/111 64/95/111
f 70/96/112 71/88/106 68/97/112
f 73/93/110 68/82/102 71/91/108
f 84/87/113 63/83/114 82/84/115
f 59/98/116 84/87/105 83/86/105
f 68/97/112 76/75/94 70/96/112
f 76/75/117 69/71/118 70/96/119
f 84/87/113 76/75/117 86/85/120
f 75/99/121 79/100/122 83/101/123
f 82/84/115 78/67/124 84/87/113
f 83/101/123 77/81/101 75/99/121
f 76/75/117 80/74/125 86/85/120
f 80/74/125 64/95/126 86/85/120
f 72/78/98 70/96/119 69/71/118
f 60/102/127 86/85/104 64/95/127
f 59/103/128 83/101/123 79/100/122
f 85/104/129 60/105/130 81/106/131
f 81/106/131 77/81/101 85/104/129
f 61/92/132 66/89/132 65/76/132
f 78/67/90 82/84/91 79/68/91
f 73/70/92 72/78/92 69/71/93
f 77/73/94 81/107/95 80/74/95
f 65/76/96 66/89/96 74/77/97
f 65/76/99 72/78/92 73/70/92
f 67/80/100 75/99/121 77/81/101
f 63/83/103 59/108/103 79/68/91
f 86/85/104 85/109/104 83/86/105
f 71/88/106 74/77/106 66/89/107
f 67/72/93 69/71/93 78/67/90
f 71/91/108 62/110/109 61/92/109
f 80/74/95 81/107/95 60/94/111
f 70/96/112 74/77/106 71/88/106
f 73/93/110 67/80/100 68/82/102
f 59/98/116 63/83/116 84/87/105
f 68/97/112 77/73/94 76/75/94
f 76/75/117 78/67/124 69/71/118
f 84/87/113 78/67/124 76/75/117
f 83/101/123 85/104/129 77/81/101
f 72/78/98 74/77/97 70/96/119
f 60/102/127 85/109/104 86/85/104
f 61/92/132 62/110/132 66/89/132
