# Blender 4.0.2
# www.blender.org
mtllib Plate.mtl
o Plate
v 0.000000 0.007542 0.000000
v -0.084627 0.007877 0.000000
v -0.112343 0.010876 0.000000
v -0.141399 0.030409 0.000000
v -0.154904 0.036607 0.000000
v -0.168695 0.035387 0.000000
v -0.170703 0.028558 0.000000
v -0.168763 0.023751 0.000000
v -0.154844 0.022273 0.000000
v -0.131721 0.011216 0.000000
v -0.115912 0.000082 0.000000
v 0.000000 0.000000 0.000000
v -0.073289 0.007877 0.042313
v -0.097292 0.010876 0.056171
v -0.122455 0.030409 0.070699
v -0.134150 0.036607 0.077452
v -0.146094 0.035387 0.084347
v -0.147834 0.028558 0.085352
v -0.146153 0.023751 0.084381
v -0.134099 0.022273 0.077422
v -0.114074 0.011216 0.065860
v -0.100383 0.000082 0.057956
v -0.042313 0.007877 0.073289
v -0.056171 0.010876 0.097292
v -0.070699 0.030409 0.122455
v -0.077452 0.036607 0.134151
v -0.084347 0.035387 0.146094
v -0.085352 0.028558 0.147834
v -0.084381 0.023751 0.146153
v -0.077422 0.022273 0.134099
v -0.065860 0.011216 0.114074
v -0.057956 0.000082 0.100383
v 0.000000 0.007877 0.084627
v 0.000000 0.010876 0.112343
v 0.000000 0.030409 0.141399
v 0.000000 0.036607 0.154904
v 0.000000 0.035387 0.168695
v 0.000000 0.028558 0.170703
v 0.000000 0.023751 0.168763
v 0.000000 0.022273 0.154844
v 0.000000 0.011216 0.131721
v 0.000000 0.000082 0.115912
v 0.042313 0.007877 0.073289
v 0.056171 0.010876 0.097292
v 0.070699 0.030409 0.122455
v 0.077452 0.036607 0.134150
v 0.084347 0.035387 0.146094
v 0.085352 0.028558 0.147834
v 0.084381 0.023751 0.146153
v 0.077422 0.022273 0.134099
v 0.065860 0.011216 0.114074
v 0.057956 0.000082 0.100383
v 0.073289 0.007877 0.042313
v 0.097292 0.010876 0.056171
v 0.122455 0.030409 0.070699
v 0.134150 0.036607 0.077452
v 0.146094 0.035387 0.084347
v 0.147834 0.028558 0.085352
v 0.146153 0.023751 0.084381
v 0.134099 0.022273 0.077422
v 0.114074 0.011216 0.065860
v 0.100383 0.000082 0.057956
v 0.084627 0.007877 -0.000000
v 0.112343 0.010876 -0.000000
v 0.141399 0.030409 -0.000000
v 0.154904 0.036607 -0.000000
v 0.168695 0.035387 -0.000000
v 0.170703 0.028558 -0.000000
v 0.168763 0.023751 -0.000000
v 0.154844 0.022273 -0.000000
v 0.131721 0.011216 -0.000000
v 0.115912 0.000082 -0.000000
v 0.073289 0.007877 -0.042313
v 0.097292 0.010876 -0.056171
v 0.122455 0.030409 -0.070699
v 0.134150 0.036607 -0.077452
v 0.146094 0.035387 -0.084347
v 0.147834 0.028558 -0.085352
v 0.146153 0.023751 -0.084381
v 0.134099 0.022273 -0.077422
v 0.114074 0.011216 -0.065860
v 0.100383 0.000082 -0.057956
v 0.042313 0.007877 -0.073289
v 0.056171 0.010876 -0.097292
v 0.070699 0.030409 -0.122455
v 0.077452 0.036607 -0.134151
v 0.084347 0.035387 -0.146094
v 0.085352 0.028558 -0.147834
v 0.084381 0.023751 -0.146153
v 0.077422 0.022273 -0.134099
v 0.065860 0.011216 -0.114074
v 0.057956 0.000082 -0.100383
v 0.000000 0.007877 -0.084627
v 0.000000 0.010876 -0.112343
v 0.000000 0.030409 -0.141399
v 0.000000 0.036607 -0.154904
v 0.000000 0.035387 -0.168695
v 0.000000 0.028558 -0.170703
v 0.000000 0.023751 -0.168763
v 0.000000 0.022273 -0.154844
v 0.000000 0.011216 -0.131721
v 0.000000 0.000082 -0.115912
v -0.042313 0.007877 -0.073289
v -0.056171 0.010876 -0.097292
v -0.070699 0.030409 -0.122455
v -0.077452 0.036607 -0.134151
v -0.084347 0.035387 -0.146094
v -0.085352 0.028558 -0.147834
v -0.084381 0.023751 -0.146153
v -0.077422 0.022273 -0.134099
v -0.065860 0.011216 -0.114074
v -0.057956 0.000082 -0.100383
v -0.073289 0.007877 -0.042313
v -0.097292 0.010876 -0.056171
v -0.122455 0.030409 -0.070699
v -0.134151 0.036607 -0.077452
v -0.146094 0.035387 -0.084347
v -0.147834 0.028558 -0.085352
v -0.146153 0.023751 -0.084381
v -0.134099 0.022273 -0.077422
v -0.114074 0.011216 -0.065860
v -0.100383 0.000082 -0.057956
vn -0.0000 1.0000 -0.0000
vn 0.0644 0.9979 -0.0000
vn 0.0558 0.9979 -0.0322
vn 0.0322 0.9979 -0.0558
vn -0.0000 0.9979 -0.0644
vn -0.0322 0.9979 -0.0558
vn -0.0558 0.9979 -0.0322
vn -0.0644 0.9979 -0.0000
vn -0.0558 0.9979 0.0322
vn -0.0322 0.9979 0.0558
vn -0.0000 0.9979 0.0645
vn 0.0322 0.9979 0.0558
vn 0.0558 0.9979 0.0322
vn 0.3770 0.9262 -0.0000
vn 0.1885 0.9262 -0.3265
vn -0.0000 0.9262 -0.3770
vn -0.1885 0.9262 -0.3265
vn -0.3770 0.9262 -0.0000
vn -0.3265 0.9262 0.1885
vn -0.0000 0.9262 0.3770
vn 0.1885 0.9262 0.3265
vn 0.3265 0.9262 0.1885
vn 0.4788 0.8779 -0.0000
vn 0.3265 0.9262 -0.1885
vn 0.4146 0.8779 -0.2394
vn 0.2394 0.8779 -0.4146
vn -0.0000 0.8779 -0.4788
vn -0.4146 0.8779 -0.2394
vn -0.3265 0.9262 -0.1885
vn -0.4788 0.8779 -0.0000
vn -0.4146 0.8779 0.2394
vn -0.1885 0.9262 0.3265
vn -0.2394 0.8779 0.4146
vn -0.0000 0.8779 0.4788
vn 0.2394 0.8779 0.4146
vn 0.4146 0.8779 0.2394
vn 0.1282 0.9918 -0.0000
vn 0.1110 0.9918 -0.0641
vn 0.0641 0.9918 -0.1110
vn -0.0000 0.9918 -0.1282
vn -0.2394 0.8779 -0.4146
vn -0.0641 0.9918 -0.1110
vn -0.1110 0.9918 -0.0641
vn -0.1282 0.9918 -0.0000
vn -0.1110 0.9918 0.0641
vn -0.0641 0.9918 0.1110
vn 0.0641 0.9918 0.1110
vn 0.1110 0.9918 0.0641
vn -0.6836 0.7298 -0.0000
vn -0.5920 0.7298 0.3418
vn -0.3418 0.7298 0.5920
vn -0.0000 0.7298 0.6836
vn 0.3418 0.7298 0.5920
vn 0.5920 0.7298 0.3418
vn 0.6836 0.7298 -0.0000
vn 0.5920 0.7298 -0.3418
vn 0.3418 0.7298 -0.5920
vn -0.0000 0.9918 0.1282
vn -0.0000 0.7298 -0.6836
vn -0.5920 0.7298 -0.3418
vn -0.8651 -0.0464 0.4995
vn -0.4995 -0.0464 0.8651
vn -0.0000 -0.0464 0.9989
vn 0.4995 -0.0464 0.8651
vn 0.8651 -0.0464 0.4995
vn 0.9989 -0.0464 -0.0000
vn 0.4995 -0.0464 -0.8651
vn -0.0000 -0.0464 -0.9989
vn -0.3418 0.7298 -0.5920
vn -0.4995 -0.0464 -0.8651
vn -0.8651 -0.0464 -0.4995
vn -0.6515 -0.7586 -0.0000
vn -0.9989 -0.0464 -0.0000
vn -0.5642 -0.7586 0.3258
vn -0.3258 -0.7586 0.5642
vn -0.0000 -0.7586 0.6515
vn 0.3258 -0.7586 0.5642
vn 0.5642 -0.7586 0.3258
vn 0.6515 -0.7586 -0.0000
vn 0.8651 -0.0464 -0.4995
vn 0.5642 -0.7586 -0.3258
vn -0.0000 -0.7586 -0.6515
vn -0.5642 -0.7586 -0.3258
vn -0.2460 -0.9693 -0.0000
vn -0.2130 -0.9693 0.1230
vn -0.1230 -0.9693 0.2130
vn -0.0000 -0.9693 0.2460
vn 0.2130 -0.9693 0.1230
vn 0.2130 -0.9693 -0.1230
vn 0.3258 -0.7586 -0.5642
vn 0.1230 -0.9693 -0.2130
vn -0.0000 -0.9693 -0.2460
vn -0.3258 -0.7586 -0.5642
vn -0.1230 -0.9693 -0.2130
vn -0.2130 -0.9693 -0.1230
vn -0.4286 -0.8690 0.2474
vn -0.2474 -0.8690 0.4286
vn -0.0000 -0.8690 0.4949
vn 0.1230 -0.9693 0.2130
vn 0.2474 -0.8690 0.4286
vn 0.4949 -0.8690 -0.0000
vn 0.2460 -0.9693 -0.0000
vn 0.2474 -0.8690 -0.4286
vn -0.0000 -0.8690 -0.4949
vn -0.2474 -0.8690 -0.4286
vn -0.4286 -0.8690 -0.2474
vn -0.4949 -0.8690 -0.0000
vn -0.3001 -0.9380 0.1733
vn -0.1733 -0.9380 0.3001
vn -0.0000 -0.9380 0.3465
vn 0.1733 -0.9380 0.3001
vn 0.4286 -0.8690 0.2474
vn 0.3465 -0.9380 -0.0000
vn 0.4286 -0.8690 -0.2474
vn 0.3001 -0.9380 -0.1733
vn 0.1733 -0.9380 -0.3001
vn -0.0000 -0.9380 -0.3465
vn -0.3001 -0.9380 -0.1733
vn -0.3465 -0.9380 -0.0000
vn -0.0000 -1.0000 -0.0000
vn 0.3001 -0.9380 0.1733
vn -0.1733 -0.9380 -0.3001
vt 0.041667 0.027516
vt 0.000000 0.028746
vt 0.083333 0.028746
vt 0.125000 0.027516
vt 0.166667 0.028746
vt 0.208333 0.027516
vt 0.250000 0.028746
vt 0.291667 0.027516
vt 0.333333 0.028746
vt 0.375000 0.027516
vt 0.416667 0.028746
vt 0.458333 0.027516
vt 0.500000 0.028746
vt 0.541667 0.027516
vt 0.583333 0.028746
vt 0.625000 0.027516
vt 0.666667 0.028746
vt 0.708333 0.027516
vt 0.750000 0.028746
vt 0.791667 0.027516
vt 0.833333 0.028746
vt 0.875000 0.027516
vt 0.916667 0.028746
vt 0.958333 0.027516
vt 1.000000 0.028746
vt 0.000000 0.039739
vt 0.166667 0.039739
vt 0.250000 0.039739
vt 0.333333 0.039739
vt 0.500000 0.039739
vt 0.583333 0.039739
vt 0.750000 0.039739
vt 0.833333 0.039739
vt 0.916667 0.039739
vt 0.000000 0.111350
vt 0.083333 0.039739
vt 0.083333 0.111350
vt 0.166667 0.111350
vt 0.250000 0.111350
vt 0.416667 0.111350
vt 0.416667 0.039739
vt 0.500000 0.111350
vt 0.583333 0.111350
vt 0.666667 0.039739
vt 0.666667 0.111350
vt 0.750000 0.111350
vt 0.833333 0.111350
vt 0.916667 0.111350
vt 1.000000 0.039739
vt 0.000000 0.134070
vt 0.083333 0.134070
vt 0.166667 0.134070
vt 0.250000 0.134070
vt 0.333333 0.111350
vt 0.333333 0.134070
vt 0.416667 0.134070
vt 0.500000 0.134070
vt 0.583333 0.134070
vt 0.666667 0.134070
vt 0.833333 0.134070
vt 0.916667 0.134070
vt 1.000000 0.134070
vt 1.000000 0.111350
vt 0.000000 0.129598
vt 0.083333 0.129598
vt 0.166667 0.129598
vt 0.250000 0.129598
vt 0.333333 0.129598
vt 0.416667 0.129598
vt 0.500000 0.129598
vt 0.583333 0.129598
vt 0.666667 0.129598
vt 0.750000 0.134070
vt 0.750000 0.129598
vt 0.916667 0.129598
vt 1.000000 0.129598
vt 0.083333 0.104561
vt 0.166667 0.104561
vt 0.250000 0.104561
vt 0.333333 0.104561
vt 0.416667 0.104561
vt 0.500000 0.104561
vt 0.666667 0.104561
vt 0.750000 0.104561
vt 0.833333 0.129598
vt 0.833333 0.104561
vt 0.916667 0.104561
vt 0.000000 0.086940
vt 0.000000 0.104561
vt 0.083333 0.086940
vt 0.166667 0.086940
vt 0.250000 0.086940
vt 0.333333 0.086940
vt 0.416667 0.086940
vt 0.500000 0.086940
vt 0.583333 0.104561
vt 0.583333 0.086940
vt 0.750000 0.086940
vt 0.916667 0.086940
vt 1.000000 0.104561
vt 0.000000 0.081521
vt 0.083333 0.081521
vt 0.166667 0.081521
vt 0.250000 0.081521
vt 0.416667 0.081521
vt 0.583333 0.081521
vt 0.666667 0.086940
vt 0.666667 0.081521
vt 0.750000 0.081521
vt 0.833333 0.086940
vt 0.833333 0.081521
vt 0.916667 0.081521
vt 1.000000 0.086940
vt 0.083333 0.040985
vt 0.166667 0.040985
vt 0.250000 0.040985
vt 0.333333 0.081521
vt 0.333333 0.040985
vt 0.500000 0.040985
vt 0.500000 0.081521
vt 0.666667 0.040985
vt 0.750000 0.040985
vt 0.833333 0.040985
vt 0.916667 0.040985
vt 1.000000 0.081521
vt 0.000000 0.040985
vt 0.083333 0.000169
vt 0.166667 0.000169
vt 0.250000 0.000169
vt 0.333333 0.000169
vt 0.416667 0.040985
vt 0.500000 0.000169
vt 0.583333 0.040985
vt 0.583333 0.000169
vt 0.666667 0.000169
vt 0.750000 0.000169
vt 0.916667 0.000169
vt 1.000000 0.040985
vt 0.000000 0.000169
vt 0.041667 -0.000132
vt 0.125000 -0.000132
vt 0.208333 -0.000132
vt 0.291667 -0.000132
vt 0.375000 -0.000132
vt 0.416667 0.000169
vt 0.458333 -0.000132
vt 0.541667 -0.000132
vt 0.625000 -0.000132
vt 0.708333 -0.000132
vt 0.791667 -0.000132
vt 0.833333 0.000169
vt 0.875000 -0.000132
vt 0.958333 -0.000132
vt 1.000000 0.000169
s 1
f 1/1/1 2/2/2 13/3/3
f 1/4/1 13/3/3 23/5/4
f 1/6/1 23/5/4 33/7/5
f 1/8/1 33/7/5 43/9/6
f 1/10/1 43/9/6 53/11/7
f 1/12/1 53/11/7 63/13/8
f 1/14/1 63/13/8 73/15/9
f 1/16/1 73/15/9 83/17/10
f 1/18/1 83/17/10 93/19/11
f 1/20/1 93/19/11 103/21/12
f 1/22/1 103/21/12 113/23/13
f 1/24/1 113/23/13 2/25/2
f 3/26/14 13/3/3 2/2/2
f 13/3/3 24/27/15 23/5/4
f 24/27/15 33/7/5 23/5/4
f 34/28/16 43/9/6 33/7/5
f 44/29/17 53/11/7 43/9/6
f 53/11/7 64/30/18 63/13/8
f 63/13/8 74/31/19 73/15/9
f 74/31/19 83/17/10 73/15/9
f 83/17/10 94/32/20 93/19/11
f 94/32/20 103/21/12 93/19/11
f 104/33/21 113/23/13 103/21/12
f 114/34/22 2/25/2 113/23/13
f 4/35/23 14/36/24 3/26/14
f 15/37/25 24/27/15 14/36/24
f 25/38/26 34/28/16 24/27/15
f 35/39/27 44/29/17 34/28/16
f 44/29/17 55/40/28 54/41/29
f 55/40/28 64/30/18 54/41/29
f 65/42/30 74/31/19 64/30/18
f 75/43/31 84/44/32 74/31/19
f 85/45/33 94/32/20 84/44/32
f 95/46/34 104/33/21 94/32/20
f 105/47/35 114/34/22 104/33/21
f 115/48/36 3/49/14 114/34/22
f 5/50/37 15/37/25 4/35/23
f 16/51/38 25/38/26 15/37/25
f 26/52/39 35/39/27 25/38/26
f 36/53/40 45/54/41 35/39/27
f 46/55/42 55/40/28 45/54/41
f 56/56/43 65/42/30 55/40/28
f 66/57/44 75/43/31 65/42/30
f 76/58/45 85/45/33 75/43/31
f 86/59/46 95/46/34 85/45/33
f 95/46/34 106/60/47 105/47/35
f 105/47/35 116/61/48 115/48/36
f 115/48/36 5/62/37 4/63/23
f 6/64/49 16/51/38 5/50/37
f 17/65/50 26/52/39 16/51/38
f 27/66/51 36/53/40 26/52/39
f 37/67/52 46/55/42 36/53/40
f 47/68/53 56/56/43 46/55/42
f 57/69/54 66/57/44 56/56/43
f 67/70/55 76/58/45 66/57/44
f 77/71/56 86/59/46 76/58/45
f 87/72/57 96/73/58 86/59/46
f 97/74/59 106/60/47 96/73/58
f 106/60/47 117/75/60 116/61/48
f 116/61/48 6/76/49 5/62/37
f 6/64/49 18/77/61 17/65/50
f 17/65/50 28/78/62 27/66/51
f 28/78/62 37/67/52 27/66/51
f 38/79/63 47/68/53 37/67/52
f 48/80/64 57/69/54 47/68/53
f 58/81/65 67/70/55 57/69/54
f 68/82/66 77/71/56 67/70/55
f 77/71/56 88/83/67 87/72/57
f 87/72/57 98/84/68 97/74/59
f 98/84/68 107/85/69 97/74/59
f 108/86/70 117/75/60 107/85/69
f 118/87/71 6/76/49 117/75/60
f 8/88/72 18/77/61 7/89/73
f 19/90/74 28/78/62 18/77/61
f 29/91/75 38/79/63 28/78/62
f 39/92/76 48/80/64 38/79/63
f 49/93/77 58/81/65 48/80/64
f 59/94/78 68/82/66 58/81/65
f 69/95/79 78/96/80 68/82/66
f 79/97/81 88/83/67 78/96/80
f 88/83/67 99/98/82 98/84/68
f 99/98/82 108/86/70 98/84/68
f 108/86/70 119/99/83 118/87/71
f 119/99/83 7/100/73 118/87/71
f 9/101/84 19/90/74 8/88/72
f 20/102/85 29/91/75 19/90/74
f 30/103/86 39/92/76 29/91/75
f 40/104/87 49/93/77 39/92/76
f 49/93/77 60/105/88 59/94/78
f 60/105/88 69/95/79 59/94/78
f 69/95/79 80/106/89 79/97/81
f 80/106/89 89/107/90 79/97/81
f 90/108/91 99/98/82 89/107/90
f 100/109/92 109/110/93 99/98/82
f 110/111/94 119/99/83 109/110/93
f 120/112/95 8/113/72 119/99/83
f 9/101/84 21/114/96 20/102/85
f 21/114/96 30/103/86 20/102/85
f 31/115/97 40/104/87 30/103/86
f 41/116/98 50/117/99 40/104/87
f 51/118/100 60/105/88 50/117/99
f 60/105/88 71/119/101 70/120/102
f 71/119/101 80/106/89 70/120/102
f 80/106/89 91/121/103 90/108/91
f 90/108/91 101/122/104 100/109/92
f 101/122/104 110/111/94 100/109/92
f 111/123/105 120/112/95 110/111/94
f 121/124/106 9/125/84 120/112/95
f 10/126/107 22/127/108 21/114/96
f 21/114/96 32/128/109 31/115/97
f 32/128/109 41/116/98 31/115/97
f 42/129/110 51/118/100 41/116/98
f 52/130/111 61/131/112 51/118/100
f 61/131/112 72/132/113 71/119/101
f 72/132/113 81/133/114 71/119/101
f 82/134/115 91/121/103 81/133/114
f 92/135/116 101/122/104 91/121/103
f 102/136/117 111/123/105 101/122/104
f 111/123/105 122/137/118 121/124/106
f 122/137/118 10/138/107 121/124/106
f 11/139/119 12/140/120 22/127/108
f 22/127/108 12/141/120 32/128/109
f 32/128/109 12/142/120 42/129/110
f 42/129/110 12/143/120 52/130/111
f 52/130/111 12/144/120 62/145/121
f 62/145/121 12/146/120 72/132/113
f 72/132/113 12/147/120 82/134/115
f 82/134/115 12/148/120 92/135/116
f 92/135/116 12/149/120 102/136/117
f 102/136/117 12/150/120 112/151/122
f 112/151/122 12/152/120 122/137/118
f 122/137/118 12/153/120 11/154/119
f 3/26/14 14/36/24 13/3/3
f 13/3/3 14/36/24 24/27/15
f 24/27/15 34/28/16 33/7/5
f 34/28/16 44/29/17 43/9/6
f 44/29/17 54/41/29 53/11/7
f 53/11/7 54/41/29 64/30/18
f 63/13/8 64/30/18 74/31/19
f 74/31/19 84/44/32 83/17/10
f 83/17/10 84/44/32 94/32/20
f 94/32/20 104/33/21 103/21/12
f 104/33/21 114/34/22 113/23/13
f 114/34/22 3/49/14 2/25/2
f 4/35/23 15/37/25 14/36/24
f 15/37/25 25/38/26 24/27/15
f 25/38/26 35/39/27 34/28/16
f 35/39/27 45/54/41 44/29/17
f 44/29/17 45/54/41 55/40/28
f 55/40/28 65/42/30 64/30/18
f 65/42/30 75/43/31 74/31/19
f 75/43/31 85/45/33 84/44/32
f 85/45/33 95/46/34 94/32/20
f 95/46/34 105/47/35 104/33/21
f 105/47/35 115/48/36 114/34/22
f 115/48/36 4/63/23 3/49/14
f 5/50/37 16/51/38 15/37/25
f 16/51/38 26/52/39 25/38/26
f 26/52/39 36/53/40 35/39/27
f 36/53/40 46/55/42 45/54/41
f 46/55/42 56/56/43 55/40/28
f 56/56/43 66/57/44 65/42/30
f 66/57/44 76/58/45 75/43/31
f 76/58/45 86/59/46 85/45/33
f 86/59/46 96/73/58 95/46/34
f 95/46/34 96/73/58 106/60/47
f 105/47/35 106/60/47 116/61/48
f 115/48/36 116/61/48 5/62/37
f 6/64/49 17/65/50 16/51/38
f 17/65/50 27/66/51 26/52/39
f 27/66/51 37/67/52 36/53/40
f 37/67/52 47/68/53 46/55/42
f 47/68/53 57/69/54 56/56/43
f 57/69/54 67/70/55 66/57/44
f 67/70/55 77/71/56 76/58/45
f 77/71/56 87/72/57 86/59/46
f 87/72/57 97/74/59 96/73/58
f 97/74/59 107/85/69 106/60/47
f 106/60/47 107/85/69 117/75/60
f 116/61/48 117/75/60 6/76/49
f 6/64/49 7/89/73 18/77/61
f 17/65/50 18/77/61 28/78/62
f 28/78/62 38/79/63 37/67/52
f 38/79/63 48/80/64 47/68/53
f 48/80/64 58/81/65 57/69/54
f 58/81/65 68/82/66 67/70/55
f 68/82/66 78/96/80 77/71/56
f 77/71/56 78/96/80 88/83/67
f 87/72/57 88/83/67 98/84/68
f 98/84/68 108/86/70 107/85/69
f 108/86/70 118/87/71 117/75/60
f 118/87/71 7/100/73 6/76/49
f 8/88/72 19/90/74 18/77/61
f 19/90/74 29/91/75 28/78/62
f 29/91/75 39/92/76 38/79/63
f 39/92/76 49/93/77 48/80/64
f 49/93/77 59/94/78 58/81/65
f 59/94/78 69/95/79 68/82/66
f 69/95/79 79/97/81 78/96/80
f 79/97/81 89/107/90 88/83/67
f 88/83/67 89/107/90 99/98/82
f 99/98/82 109/110/93 108/86/70
f 108/86/70 109/110/93 119/99/83
f 119/99/83 8/113/72 7/100/73
f 9/101/84 20/102/85 19/90/74
f 20/102/85 30/103/86 29/91/75
f 30/103/86 40/104/87 39/92/76
f 40/104/87 50/117/99 49/93/77
f 49/93/77 50/117/99 60/105/88
f 60/105/88 70/120/102 69/95/79
f 69/95/79 70/120/102 80/106/89
f 80/106/89 90/108/91 89/107/90
f 90/108/91 100/109/92 99/98/82
f 100/109/92 110/111/94 109/110/93
f 110/111/94 120/112/95 119/99/83
f 120/112/95 9/125/84 8/113/72
f 9/101/84 10/126/107 21/114/96
f 21/114/96 31/115/97 30/103/86
f 31/115/97 41/116/98 40/104/87
f 41/116/98 51/118/100 50/117/99
f 51/118/100 61/131/112 60/105/88
f 60/105/88 61/131/112 71/119/101
f 71/119/101 81/133/114 80/106/89
f 80/106/89 81/133/114 91/121/103
f 90/108/91 91/121/103 101/122/104
f 101/122/104 111/123/105 110/111/94
f 111/123/105 121/124/106 120/112/95
f 121/124/106 10/138/107 9/125/84
f 10/126/107 11/139/119 22/127/108
f 21/114/96 22/127/108 32/128/109
f 32/128/109 42/129/110 41/116/98
f 42/129/110 52/130/111 51/118/100
f 52/130/111 62/145/121 61/131/112
f 61/131/112 62/145/121 72/132/113
f 72/132/113 82/134/115 81/133/114
f 82/134/115 92/135/116 91/121/103
f 92/135/116 102/136/117 101/122/104
f 102/136/117 112/151/122 111/123/105
f 111/123/105 112/151/122 122/137/118
f 122/137/118 11/154/119 10/138/107
