# Blender 4.0.2
# www.blender.org
mtllib Glass03.mtl
o Glass03
v -0.000387 0.007504 0.000358
v -0.039599 0.007869 0.001314
v -0.042888 0.011221 0.001367
v -0.047457 0.106229 0.000718
v -0.054966 0.109115 0.000879
v -0.058442 0.107461 0.000977
v -0.056438 0.102279 0.000969
v -0.051464 0.004196 0.001633
v -0.047404 0.001408 0.001556
v -0.000447 0.000970 0.000412
v -0.033866 0.007977 0.020792
v -0.036670 0.011338 0.022494
v -0.040444 0.106361 0.024545
v -0.046852 0.109267 0.028448
v -0.049822 0.107623 0.030265
v -0.048118 0.102436 0.029239
v -0.044002 0.004336 0.026988
v -0.040539 0.001537 0.024882
v -0.019163 0.007958 0.034794
v -0.020722 0.011317 0.037682
v -0.022459 0.106338 0.041674
v -0.026041 0.109241 0.048268
v -0.027713 0.107595 0.051321
v -0.026779 0.102409 0.049563
v -0.024863 0.004312 0.045215
v -0.022932 0.001515 0.041651
v 0.000571 0.007818 0.039570
v 0.000682 0.011164 0.042863
v 0.001681 0.106166 0.047516
v 0.001891 0.109042 0.055028
v 0.001960 0.107383 0.058503
v 0.001863 0.102204 0.056494
v 0.000825 0.004129 0.051432
v 0.000701 0.001346 0.047370
v 0.020048 0.007593 0.033839
v 0.021809 0.010921 0.036646
v 0.025507 0.105891 0.040506
v 0.029460 0.108723 0.046916
v 0.031248 0.107045 0.049885
v 0.030132 0.101878 0.048176
v 0.026179 0.003836 0.043972
v 0.024026 0.001077 0.040507
v 0.034050 0.007344 0.019137
v 0.036996 0.010651 0.020700
v 0.042635 0.105587 0.022521
v 0.049278 0.108371 0.026107
v 0.052302 0.106671 0.027778
v 0.050454 0.101517 0.026838
v 0.044406 0.003512 0.024834
v 0.040793 0.000779 0.022900
v 0.038824 0.007138 -0.000597
v 0.042174 0.010428 -0.000705
v 0.048475 0.105335 -0.001618
v 0.056036 0.108080 -0.001825
v 0.059481 0.106362 -0.001896
v 0.057383 0.101218 -0.001803
v 0.050620 0.003244 -0.000854
v 0.046511 0.000532 -0.000732
v 0.033092 0.007030 -0.020075
v 0.035956 0.010311 -0.021832
v 0.041463 0.105203 -0.025445
v 0.047922 0.107927 -0.029395
v 0.050861 0.106200 -0.031184
v 0.049063 0.101062 -0.030073
v 0.043159 0.003104 -0.026209
v 0.039646 0.000403 -0.024057
v 0.018389 0.007049 -0.034078
v 0.020009 0.010331 -0.037020
v 0.023477 0.105226 -0.042574
v 0.027111 0.107954 -0.049215
v 0.028753 0.106228 -0.052240
v 0.027723 0.101089 -0.050396
v 0.024019 0.003128 -0.044436
v 0.022038 0.000426 -0.040826
v -0.001345 0.007190 -0.038853
v -0.001396 0.010484 -0.042200
v -0.000663 0.105398 -0.048416
v -0.000821 0.108153 -0.055974
v -0.000921 0.106440 -0.059421
v -0.000918 0.101293 -0.057328
v -0.001669 0.003312 -0.050653
v -0.001594 0.000594 -0.046546
v -0.020823 0.007415 -0.033122
v -0.022522 0.010728 -0.035984
v -0.024489 0.105673 -0.041406
v -0.028390 0.108471 -0.047863
v -0.030209 0.106778 -0.050804
v -0.029187 0.101620 -0.049010
v -0.027023 0.003604 -0.043193
v -0.024919 0.000864 -0.039683
v -0.034824 0.007663 -0.018420
v -0.037709 0.010997 -0.020037
v -0.041616 0.105978 -0.023421
v -0.048208 0.108823 -0.027053
v -0.051263 0.107151 -0.028696
v -0.049509 0.101981 -0.027672
v -0.045249 0.003928 -0.024055
v -0.041687 0.001161 -0.022076
vn 0.0091 0.9999 -0.0082
vn 0.4424 0.8966 -0.0180
vn 0.3790 0.8954 -0.2337
vn 0.2161 0.8956 -0.3887
vn -0.0024 0.8972 -0.4416
vn -0.2181 0.8997 -0.3782
vn -0.3731 0.9024 -0.2154
vn -0.4260 0.9047 0.0032
vn -0.3625 0.9059 0.2189
vn -0.1997 0.9057 0.3739
vn 0.0188 0.9041 0.4268
vn 0.2345 0.9017 0.3634
vn 0.3896 0.8989 0.2005
vn 0.7900 0.3774 -0.4832
vn 0.4446 0.3778 -0.8121
vn -0.0190 0.3811 -0.9243
vn -0.8054 0.3922 -0.4443
vn -0.9176 0.3971 0.0192
vn -0.7829 0.3996 0.4768
vn -0.4375 0.3992 0.8058
vn 0.4836 0.3906 0.7833
vn 0.8125 0.3847 0.4379
vn 0.9247 0.3799 -0.0256
vn 0.6613 0.6312 -0.4053
vn 0.3734 0.6316 -0.6794
vn -0.3942 0.6388 -0.6607
vn -0.4765 0.3864 -0.7897
vn -0.6683 0.6436 -0.3729
vn -0.7618 0.6477 0.0134
vn -0.6496 0.6498 0.3948
vn -0.3617 0.6494 0.6689
vn 0.0261 0.3959 0.9179
vn 0.4059 0.6422 0.6502
vn 0.6800 0.6374 0.3624
vn -0.1037 0.9946 -0.0054
vn 0.7735 0.6333 -0.0240
vn -0.0872 0.9949 0.0506
vn -0.0449 0.9949 0.0908
vn -0.0129 0.6344 -0.7729
vn 0.0118 0.9944 0.1046
vn 0.1081 0.9931 0.0458
vn 0.1053 0.9922 -0.0669
vn 0.0630 0.9922 -0.1072
vn 0.0063 0.9926 -0.1209
vn 0.0246 0.6466 0.7624
vn -0.0900 0.9940 -0.0622
vn -0.9412 0.3371 0.0203
vn -0.8032 0.3397 0.4893
vn -0.4491 0.3392 0.8265
vn 0.0261 0.3359 0.9415
vn 0.0678 0.9938 0.0881
vn 0.8323 0.3245 0.4495
vn 0.1218 0.9925 -0.0109
vn 0.9472 0.3195 -0.0257
vn 0.4551 0.3174 -0.8319
vn -0.0201 0.3207 -0.9470
vn -0.0497 0.9933 -0.1044
vn -0.4891 0.3262 -0.8089
vn -0.9765 -0.2139 0.0256
vn -0.4687 -0.2117 0.8576
vn 0.0218 -0.2152 0.9763
vn 0.4951 0.3304 0.8035
vn 0.5058 -0.2208 0.8339
vn 0.8538 -0.2270 0.4685
vn 0.9724 -0.2321 -0.0219
vn 0.8092 0.3169 -0.4947
vn 0.8300 -0.2348 -0.5060
vn 0.4646 -0.2343 -0.8540
vn -0.0258 -0.2308 -0.9727
vn -0.8579 -0.2190 -0.4649
vn -0.8263 0.3322 -0.4549
vn -0.8882 -0.4587 0.0254
vn -0.8341 -0.2112 0.5096
vn -0.7590 -0.4563 0.4645
vn -0.4275 -0.4567 0.7801
vn 0.0173 -0.4599 0.8878
vn 0.4564 -0.4650 0.7586
vn 0.7721 -0.4706 0.4272
vn 0.8797 -0.4752 -0.0177
vn 0.7505 -0.4776 -0.4568
vn 0.4190 -0.4772 -0.7725
vn -0.0259 -0.4740 -0.8801
vn -0.5099 -0.2252 -0.8302
vn -0.4649 -0.4690 -0.7509
vn -0.7806 -0.4634 -0.4195
vn -0.3435 -0.9390 0.0159
vn -0.2946 -0.9381 0.1823
vn -0.0004 -0.9395 0.3427
vn 0.1660 -0.9414 0.2937
vn 0.2855 -0.9435 0.1681
vn 0.2774 -0.9462 -0.1668
vn 0.1518 -0.9460 -0.2864
vn -0.0168 -0.9448 -0.3272
vn -0.1831 -0.9429 -0.2782
vn -0.3027 -0.9408 -0.1526
vn -0.0091 -0.9999 0.0082
vn -0.1690 -0.9383 0.3019
vn 0.3263 -0.9453 -0.0004
vt 0.041667 0.022862
vt 0.000000 0.022862
vt 0.083333 0.022862
vt 0.125000 0.022862
vt 0.166667 0.022862
vt 0.208333 0.022862
vt 0.250000 0.022862
vt 0.291667 0.022862
vt 0.333333 0.022862
vt 0.375000 0.022862
vt 0.416667 0.022862
vt 0.458333 0.022862
vt 0.500000 0.022862
vt 0.541667 0.022862
vt 0.583333 0.022862
vt 0.625000 0.022862
vt 0.666667 0.022862
vt 0.708333 0.022862
vt 0.750000 0.022862
vt 0.791667 0.022862
vt 0.833333 0.022862
vt 0.875000 0.022862
vt 0.916667 0.022862
vt 0.958333 0.022862
vt 1.000000 0.022862
vt 0.083333 0.034480
vt 0.166667 0.034480
vt 0.250000 0.034480
vt 0.416667 0.034480
vt 0.500000 0.034480
vt 0.583333 0.034480
vt 0.666667 0.034480
vt 0.833333 0.034480
vt 0.916667 0.034480
vt 0.000000 0.034480
vt 0.083333 0.366753
vt 0.166667 0.366753
vt 0.333333 0.366753
vt 0.333333 0.034480
vt 0.416667 0.366753
vt 0.500000 0.366753
vt 0.583333 0.366753
vt 0.666667 0.366753
vt 0.750000 0.034480
vt 0.833333 0.366753
vt 0.916667 0.366753
vt 1.000000 0.034480
vt 0.000000 0.376603
vt 0.000000 0.366753
vt 0.083333 0.376603
vt 0.166667 0.376603
vt 0.250000 0.366753
vt 0.250000 0.376603
vt 0.416667 0.376603
vt 0.583333 0.376603
vt 0.666667 0.376603
vt 0.750000 0.376603
vt 0.750000 0.366753
vt 0.916667 0.376603
vt 1.000000 0.376603
vt 1.000000 0.366753
vt 0.000000 0.370704
vt 0.083333 0.370704
vt 0.166667 0.370704
vt 0.250000 0.370704
vt 0.333333 0.376603
vt 0.416667 0.370704
vt 0.500000 0.376603
vt 0.500000 0.370704
vt 0.666667 0.370704
vt 0.750000 0.370704
vt 0.833333 0.376603
vt 0.833333 0.370704
vt 1.000000 0.370704
vt 0.000000 0.352639
vt 0.166667 0.352639
vt 0.250000 0.352639
vt 0.333333 0.370704
vt 0.333333 0.352639
vt 0.416667 0.352639
vt 0.500000 0.352639
vt 0.583333 0.370704
vt 0.583333 0.352639
vt 0.666667 0.352639
vt 0.750000 0.352639
vt 0.916667 0.352639
vt 0.916667 0.370704
vt 1.000000 0.352639
vt 0.000000 0.009622
vt 0.083333 0.352639
vt 0.083333 0.009622
vt 0.166667 0.009622
vt 0.250000 0.009622
vt 0.333333 0.009622
vt 0.416667 0.009622
vt 0.500000 0.009622
vt 0.583333 0.009622
vt 0.666667 0.009622
vt 0.750000 0.009622
vt 0.833333 0.352639
vt 0.833333 0.009622
vt 0.916667 0.009622
vt 0.000000 -0.000000
vt 0.083333 -0.000000
vt 0.250000 -0.000000
vt 0.333333 -0.000000
vt 0.416667 -0.000000
vt 0.583333 -0.000000
vt 0.666667 -0.000000
vt 0.750000 -0.000000
vt 0.833333 -0.000000
vt 0.916667 -0.000000
vt 1.000000 0.009622
vt 0.041667 -0.000000
vt 0.125000 -0.000000
vt 0.166667 -0.000000
vt 0.208333 -0.000000
vt 0.291667 -0.000000
vt 0.375000 -0.000000
vt 0.458333 -0.000000
vt 0.500000 -0.000000
vt 0.541667 -0.000000
vt 0.625000 -0.000000
vt 0.708333 -0.000000
vt 0.791667 -0.000000
vt 0.875000 -0.000000
vt 0.958333 -0.000000
vt 1.000000 -0.000000
s 1
f 1/1/1 2/2/2 11/3/3
f 1/4/1 11/3/3 19/5/4
f 1/6/1 19/5/4 27/7/5
f 1/8/1 27/7/5 35/9/6
f 1/10/1 35/9/6 43/11/7
f 1/12/1 43/11/7 51/13/8
f 1/14/1 51/13/8 59/15/9
f 1/16/1 59/15/9 67/17/10
f 1/18/1 67/17/10 75/19/11
f 1/20/1 75/19/11 83/21/12
f 1/22/1 83/21/12 91/23/13
f 1/24/1 91/23/13 2/25/2
f 2/2/2 12/26/14 11/3/3
f 12/26/14 19/5/4 11/3/3
f 20/27/15 27/7/5 19/5/4
f 28/28/16 35/9/6 27/7/5
f 35/9/6 44/29/17 43/11/7
f 44/29/17 51/13/8 43/11/7
f 52/30/18 59/15/9 51/13/8
f 60/31/19 67/17/10 59/15/9
f 68/32/20 75/19/11 67/17/10
f 75/19/11 84/33/21 83/21/12
f 84/33/21 91/23/13 83/21/12
f 92/34/22 2/25/2 91/23/13
f 3/35/23 13/36/24 12/26/14
f 12/26/14 21/37/25 20/27/15
f 21/37/25 28/28/16 20/27/15
f 28/28/16 37/38/26 36/39/27
f 37/38/26 44/29/17 36/39/27
f 45/40/28 52/30/18 44/29/17
f 53/41/29 60/31/19 52/30/18
f 61/42/30 68/32/20 60/31/19
f 69/43/31 76/44/32 68/32/20
f 76/44/32 85/45/33 84/33/21
f 85/45/33 92/34/22 84/33/21
f 93/46/34 3/47/23 92/34/22
f 5/48/35 13/36/24 4/49/36
f 14/50/37 21/37/25 13/36/24
f 22/51/38 29/52/39 21/37/25
f 30/53/40 37/38/26 29/52/39
f 37/38/26 46/54/41 45/40/28
f 46/54/41 53/41/29 45/40/28
f 53/41/29 62/55/42 61/42/30
f 61/42/30 70/56/43 69/43/31
f 69/43/31 78/57/44 77/58/45
f 78/57/44 85/45/33 77/58/45
f 85/45/33 94/59/46 93/46/34
f 93/46/34 5/60/35 4/61/36
f 6/62/47 14/50/37 5/48/35
f 15/63/48 22/51/38 14/50/37
f 23/64/49 30/53/40 22/51/38
f 31/65/50 38/66/51 30/53/40
f 38/66/51 47/67/52 46/54/41
f 47/67/52 54/68/53 46/54/41
f 55/69/54 62/55/42 54/68/53
f 62/55/42 71/70/55 70/56/43
f 70/56/43 79/71/56 78/57/44
f 79/71/56 86/72/57 78/57/44
f 87/73/58 94/59/46 86/72/57
f 94/59/46 6/74/47 5/60/35
f 7/75/59 15/63/48 6/62/47
f 15/63/48 24/76/60 23/64/49
f 24/76/60 31/65/50 23/64/49
f 32/77/61 39/78/62 31/65/50
f 40/79/63 47/67/52 39/78/62
f 48/80/64 55/69/54 47/67/52
f 56/81/65 63/82/66 55/69/54
f 64/83/67 71/70/55 63/82/66
f 72/84/68 79/71/56 71/70/55
f 80/85/69 87/73/58 79/71/56
f 87/73/58 96/86/70 95/87/71
f 95/87/71 7/88/59 6/74/47
f 8/89/72 16/90/73 7/75/59
f 17/91/74 24/76/60 16/90/73
f 25/92/75 32/77/61 24/76/60
f 33/93/76 40/79/63 32/77/61
f 41/94/77 48/80/64 40/79/63
f 49/95/78 56/81/65 48/80/64
f 57/96/79 64/83/67 56/81/65
f 65/97/80 72/84/68 64/83/67
f 73/98/81 80/85/69 72/84/68
f 81/99/82 88/100/83 80/85/69
f 89/101/84 96/86/70 88/100/83
f 97/102/85 7/88/59 96/86/70
f 9/103/86 17/91/74 8/89/72
f 18/104/87 25/92/75 17/91/74
f 25/92/75 34/105/88 33/93/76
f 34/105/88 41/94/77 33/93/76
f 42/106/89 49/95/78 41/94/77
f 50/107/90 57/96/79 49/95/78
f 57/96/79 66/108/91 65/97/80
f 65/97/80 74/109/92 73/98/81
f 73/98/81 82/110/93 81/99/82
f 82/110/93 89/101/84 81/99/82
f 90/111/94 97/102/85 89/101/84
f 98/112/95 8/113/72 97/102/85
f 9/103/86 10/114/96 18/104/87
f 18/104/87 10/115/96 26/116/97
f 26/116/97 10/117/96 34/105/88
f 34/105/88 10/118/96 42/106/89
f 42/106/89 10/119/96 50/107/90
f 50/107/90 10/120/96 58/121/98
f 58/121/98 10/122/96 66/108/91
f 66/108/91 10/123/96 74/109/92
f 74/109/92 10/124/96 82/110/93
f 82/110/93 10/125/96 90/111/94
f 90/111/94 10/126/96 98/112/95
f 98/112/95 10/127/96 9/128/86
f 2/2/2 3/35/23 12/26/14
f 12/26/14 20/27/15 19/5/4
f 20/27/15 28/28/16 27/7/5
f 28/28/16 36/39/27 35/9/6
f 35/9/6 36/39/27 44/29/17
f 44/29/17 52/30/18 51/13/8
f 52/30/18 60/31/19 59/15/9
f 60/31/19 68/32/20 67/17/10
f 68/32/20 76/44/32 75/19/11
f 75/19/11 76/44/32 84/33/21
f 84/33/21 92/34/22 91/23/13
f 92/34/22 3/47/23 2/25/2
f 3/35/23 4/49/36 13/36/24
f 12/26/14 13/36/24 21/37/25
f 21/37/25 29/52/39 28/28/16
f 28/28/16 29/52/39 37/38/26
f 37/38/26 45/40/28 44/29/17
f 45/40/28 53/41/29 52/30/18
f 53/41/29 61/42/30 60/31/19
f 61/42/30 69/43/31 68/32/20
f 69/43/31 77/58/45 76/44/32
f 76/44/32 77/58/45 85/45/33
f 85/45/33 93/46/34 92/34/22
f 93/46/34 4/61/36 3/47/23
f 5/48/35 14/50/37 13/36/24
f 14/50/37 22/51/38 21/37/25
f 22/51/38 30/53/40 29/52/39
f 30/53/40 38/66/51 37/38/26
f 37/38/26 38/66/51 46/54/41
f 46/54/41 54/68/53 53/41/29
f 53/41/29 54/68/53 62/55/42
f 61/42/30 62/55/42 70/56/43
f 69/43/31 70/56/43 78/57/44
f 78/57/44 86/72/57 85/45/33
f 85/45/33 86/72/57 94/59/46
f 93/46/34 94/59/46 5/60/35
f 6/62/47 15/63/48 14/50/37
f 15/63/48 23/64/49 22/51/38
f 23/64/49 31/65/50 30/53/40
f 31/65/50 39/78/62 38/66/51
f 38/66/51 39/78/62 47/67/52
f 47/67/52 55/69/54 54/68/53
f 55/69/54 63/82/66 62/55/42
f 62/55/42 63/82/66 71/70/55
f 70/56/43 71/70/55 79/71/56
f 79/71/56 87/73/58 86/72/57
f 87/73/58 95/87/71 94/59/46
f 94/59/46 95/87/71 6/74/47
f 7/75/59 16/90/73 15/63/48
f 15/63/48 16/90/73 24/76/60
f 24/76/60 32/77/61 31/65/50
f 32/77/61 40/79/63 39/78/62
f 40/79/63 48/80/64 47/67/52
f 48/80/64 56/81/65 55/69/54
f 56/81/65 64/83/67 63/82/66
f 64/83/67 72/84/68 71/70/55
f 72/84/68 80/85/69 79/71/56
f 80/85/69 88/100/83 87/73/58
f 87/73/58 88/100/83 96/86/70
f 95/87/71 96/86/70 7/88/59
f 8/89/72 17/91/74 16/90/73
f 17/91/74 25/92/75 24/76/60
f 25/92/75 33/93/76 32/77/61
f 33/93/76 41/94/77 40/79/63
f 41/94/77 49/95/78 48/80/64
f 49/95/78 57/96/79 56/81/65
f 57/96/79 65/97/80 64/83/67
f 65/97/80 73/98/81 72/84/68
f 73/98/81 81/99/82 80/85/69
f 81/99/82 89/101/84 88/100/83
f 89/101/84 97/102/85 96/86/70
f 97/102/85 8/113/72 7/88/59
f 9/103/86 18/104/87 17/91/74
f 18/104/87 26/116/97 25/92/75
f 25/92/75 26/116/97 34/105/88
f 34/105/88 42/106/89 41/94/77
f 42/106/89 50/107/90 49/95/78
f 50/107/90 58/121/98 57/96/79
f 57/96/79 58/121/98 66/108/91
f 65/97/80 66/108/91 74/109/92
f 73/98/81 74/109/92 82/110/93
f 82/110/93 90/111/94 89/101/84
f 90/111/94 98/112/95 97/102/85
f 98/112/95 9/128/86 8/113/72
