# Blender 4.0.2
# www.blender.org
mtllib CandleStand.mtl
o CandleStand.001
v -0.000143 0.071377 0.000004
v 0.018125 0.071377 0.000004
v 0.031194 0.050975 0.000004
v 0.068510 0.050975 0.000000
v 0.089436 0.067741 0.000000
v 0.111938 0.052953 0.000000
v 0.077651 0.000019 0.000000
v 0.000000 0.000019 0.000000
v -0.000113 0.071377 0.000088
v 0.014665 0.071377 -0.010650
v 0.025239 0.050975 -0.018332
v 0.055426 0.050975 -0.040269
v 0.072355 0.067741 -0.052569
v 0.090560 0.052953 -0.065796
v 0.062821 0.000019 -0.045642
v 0.000000 0.000019 0.000000
v -0.000040 0.071377 0.000138
v 0.005605 0.071377 -0.017236
v 0.009643 0.050975 -0.029666
v 0.021171 0.050975 -0.065157
v 0.027637 0.067741 -0.085059
v 0.034591 0.052953 -0.106460
v 0.023996 0.000019 -0.073850
v 0.000000 0.000019 0.000000
v 0.000048 0.071377 0.000135
v -0.005597 0.071377 -0.017239
v -0.009636 0.050975 -0.029668
v -0.021171 0.050975 -0.065157
v -0.027637 0.067741 -0.085059
v -0.034591 0.052953 -0.106460
v -0.023995 0.000019 -0.073850
v 0.000000 0.000019 0.000000
v 0.000118 0.071377 0.000081
v -0.014661 0.071377 -0.010657
v -0.025234 0.050975 -0.018339
v -0.055426 0.050975 -0.040270
v -0.072355 0.067741 -0.052569
v -0.090560 0.052953 -0.065796
v -0.062821 0.000019 -0.045642
v 0.000000 0.000019 0.000000
v 0.000143 0.071377 -0.000004
v -0.018125 0.071377 -0.000004
v -0.031194 0.050975 -0.000004
v -0.068510 0.050975 -0.000000
v -0.089436 0.067741 -0.000000
v -0.111938 0.052953 -0.000000
v -0.077651 0.000019 -0.000000
v 0.000000 0.000019 0.000000
v 0.000113 0.071377 -0.000088
v -0.014665 0.071377 0.010650
v -0.025239 0.050975 0.018332
v -0.055426 0.050975 0.040269
v -0.072355 0.067741 0.052569
v -0.090560 0.052953 0.065796
v -0.062821 0.000019 0.045642
v 0.000000 0.000019 0.000000
v 0.000040 0.071377 -0.000138
v -0.005605 0.071377 0.017236
v -0.009643 0.050975 0.029666
v -0.021171 0.050975 0.065157
v -0.027637 0.067741 0.085059
v -0.034591 0.052953 0.106460
v -0.023996 0.000019 0.073850
v 0.000000 0.000019 0.000000
v -0.000048 0.071377 -0.000135
v 0.005597 0.071377 0.017239
v 0.009636 0.050975 0.029668
v 0.021171 0.050975 0.065157
v 0.027637 0.067741 0.085059
v 0.034591 0.052953 0.106460
v 0.023995 0.000019 0.073850
v 0.000000 0.000019 0.000000
v -0.000118 0.071377 -0.000081
v 0.014661 0.071377 0.010657
v 0.025234 0.050975 0.018339
v 0.055426 0.050975 0.040270
v 0.072355 0.067741 0.052569
v 0.090560 0.052953 0.065796
v 0.062821 0.000019 0.045642
v 0.000000 0.000019 0.000000
vn -0.0000 1.0000 -0.0000
vn 0.5469 0.8372 0.0001
vn 0.4425 0.8372 -0.3214
vn 0.1691 0.8372 -0.5201
vn -0.1689 0.8372 -0.5202
vn -0.4424 0.8372 -0.3216
vn -0.5469 0.8372 -0.0001
vn -0.4425 0.8372 0.3214
vn -0.1691 0.8372 0.5201
vn 0.1689 0.8372 0.5202
vn 0.4424 0.8372 0.3216
vn 0.3995 0.9167 0.0001
vn 0.3233 0.9167 -0.2348
vn 0.1235 0.9167 -0.3800
vn -0.1234 0.9167 -0.3800
vn -0.3232 0.9167 -0.2349
vn -0.3995 0.9167 -0.0001
vn -0.3233 0.9167 0.2348
vn -0.1235 0.9167 0.3800
vn 0.1234 0.9167 0.3800
vn 0.3232 0.9167 0.2349
vn -0.3876 0.9218 -0.0000
vn -0.3136 0.9218 0.2278
vn -0.1198 0.9218 0.3686
vn 0.1198 0.9218 0.3686
vn 0.3136 0.9218 0.2278
vn 0.3876 0.9218 -0.0000
vn 0.3136 0.9218 -0.2278
vn 0.1198 0.9218 -0.3686
vn -0.1198 0.9218 -0.3686
vn -0.3136 0.9218 -0.2278
vn 0.0701 0.9975 -0.0000
vn 0.0567 0.9975 -0.0412
vn 0.0217 0.9975 -0.0667
vn -0.0217 0.9975 -0.0667
vn -0.0567 0.9975 -0.0412
vn -0.0701 0.9975 -0.0000
vn -0.0567 0.9975 0.0412
vn -0.0217 0.9975 0.0667
vn 0.0217 0.9975 0.0667
vn 0.0567 0.9975 0.0412
vn 0.9832 0.1824 -0.0000
vn 0.7954 0.1824 -0.5779
vn 0.3038 0.1824 -0.9351
vn -0.3038 0.1824 -0.9351
vn -0.7954 0.1824 -0.5779
vn -0.9832 0.1824 -0.0000
vn -0.7954 0.1824 0.5779
vn -0.3038 0.1824 0.9351
vn 0.3038 0.1824 0.9351
vn 0.7954 0.1824 0.5779
vn 0.5446 -0.8387 -0.0000
vn 0.4406 -0.8387 -0.3201
vn 0.1683 -0.8387 -0.5180
vn -0.1683 -0.8387 -0.5180
vn -0.4406 -0.8387 -0.3201
vn -0.5446 -0.8387 -0.0000
vn -0.4406 -0.8387 0.3201
vn -0.1683 -0.8387 0.5180
vn 0.1683 -0.8387 0.5180
vn 0.4406 -0.8387 0.3201
vn -0.0000 -1.0000 -0.0000
vt 0.000000 0.071377
vt 0.100000 0.071377
vt 0.200000 0.071377
vt 0.300000 0.071377
vt 0.400000 0.071377
vt 0.500000 0.071377
vt 0.600000 0.071377
vt 0.700000 0.071377
vt 0.800000 0.071377
vt 0.900000 0.071377
vt 1.000000 0.071377
vt 0.000000 0.050975
vt 0.100000 0.050975
vt 0.200000 0.050975
vt 0.300000 0.050975
vt 0.400000 0.050975
vt 0.500000 0.050975
vt 0.600000 0.050975
vt 0.700000 0.050975
vt 0.800000 0.050975
vt 0.900000 0.050975
vt 1.000000 0.050975
vt 0.000000 0.067741
vt 0.100000 0.067741
vt 0.200000 0.067741
vt 0.300000 0.067741
vt 0.400000 0.067741
vt 0.500000 0.067741
vt 0.600000 0.067741
vt 0.700000 0.067741
vt 0.800000 0.067741
vt 0.900000 0.067741
vt 1.000000 0.067741
vt 0.000000 0.052953
vt 0.100000 0.052953
vt 0.200000 0.052953
vt 0.300000 0.052953
vt 0.400000 0.052953
vt 0.500000 0.052953
vt 0.600000 0.052953
vt 0.700000 0.052953
vt 0.800000 0.052953
vt 0.900000 0.052953
vt 1.000000 0.052953
vt 0.000000 0.000019
vt 0.100000 0.000019
vt 0.200000 0.000019
vt 0.300000 0.000019
vt 0.400000 0.000019
vt 0.500000 0.000019
vt 0.600000 0.000019
vt 0.700000 0.000019
vt 0.800000 0.000019
vt 0.900000 0.000019
vt 1.000000 0.000019
s 1
f 1/1/1 2/1/2 10/2/3 9/2/1
f 9/2/1 10/2/3 18/3/4 17/3/1
f 17/3/1 18/3/4 26/4/5 25/4/1
f 25/4/1 26/4/5 34/5/6 33/5/1
f 33/5/1 34/5/6 42/6/7 41/6/1
f 41/6/1 42/6/7 50/7/8 49/7/1
f 49/7/1 50/7/8 58/8/9 57/8/1
f 57/8/1 58/8/9 66/9/10 65/9/1
f 65/9/1 66/9/10 74/10/11 73/10/1
f 73/10/1 74/10/11 2/11/2 1/11/1
f 2/1/2 3/12/12 11/13/13 10/2/3
f 10/2/3 11/13/13 19/14/14 18/3/4
f 18/3/4 19/14/14 27/15/15 26/4/5
f 26/4/5 27/15/15 35/16/16 34/5/6
f 34/5/6 35/16/16 43/17/17 42/6/7
f 42/6/7 43/17/17 51/18/18 50/7/8
f 50/7/8 51/18/18 59/19/19 58/8/9
f 58/8/9 59/19/19 67/20/20 66/9/10
f 66/9/10 67/20/20 75/21/21 74/10/11
f 74/10/11 75/21/21 3/22/12 2/11/2
f 3/12/12 4/12/22 12/13/23 11/13/13
f 11/13/13 12/13/23 20/14/24 19/14/14
f 19/14/14 20/14/24 28/15/25 27/15/15
f 27/15/15 28/15/25 36/16/26 35/16/16
f 35/16/16 36/16/26 44/17/27 43/17/17
f 43/17/17 44/17/27 52/18/28 51/18/18
f 51/18/18 52/18/28 60/19/29 59/19/19
f 59/19/19 60/19/29 68/20/30 67/20/20
f 67/20/20 68/20/30 76/21/31 75/21/21
f 75/21/21 76/21/31 4/22/22 3/22/12
f 4/12/22 5/23/32 13/24/33 12/13/23
f 12/13/23 13/24/33 21/25/34 20/14/24
f 20/14/24 21/25/34 29/26/35 28/15/25
f 28/15/25 29/26/35 37/27/36 36/16/26
f 36/16/26 37/27/36 45/28/37 44/17/27
f 44/17/27 45/28/37 53/29/38 52/18/28
f 52/18/28 53/29/38 61/30/39 60/19/29
f 60/19/29 61/30/39 69/31/40 68/20/30
f 68/20/30 69/31/40 77/32/41 76/21/31
f 76/21/31 77/32/41 5/33/32 4/22/22
f 5/23/32 6/34/42 14/35/43 13/24/33
f 13/24/33 14/35/43 22/36/44 21/25/34
f 21/25/34 22/36/44 30/37/45 29/26/35
f 29/26/35 30/37/45 38/38/46 37/27/36
f 37/27/36 38/38/46 46/39/47 45/28/37
f 45/28/37 46/39/47 54/40/48 53/29/38
f 53/29/38 54/40/48 62/41/49 61/30/39
f 61/30/39 62/41/49 70/42/50 69/31/40
f 69/31/40 70/42/50 78/43/51 77/32/41
f 77/32/41 78/43/51 6/44/42 5/33/32
f 6/34/42 7/45/52 15/46/53 14/35/43
f 14/35/43 15/46/53 23/47/54 22/36/44
f 22/36/44 23/47/54 31/48/55 30/37/45
f 30/37/45 31/48/55 39/49/56 38/38/46
f 38/38/46 39/49/56 47/50/57 46/39/47
f 46/39/47 47/50/57 55/51/58 54/40/48
f 54/40/48 55/51/58 63/52/59 62/41/49
f 62/41/49 63/52/59 71/53/60 70/42/50
f 70/42/50 71/53/60 79/54/61 78/43/51
f 78/43/51 79/54/61 7/55/52 6/44/42
f 7/45/52 8/45/62 16/46/62 15/46/53
f 15/46/53 16/46/62 24/47/62 23/47/54
f 23/47/54 24/47/62 32/48/62 31/48/55
f 31/48/55 32/48/62 40/49/62 39/49/56
f 39/49/56 40/49/62 48/50/62 47/50/57
f 47/50/57 48/50/62 56/51/62 55/51/58
f 55/51/58 56/51/62 64/52/62 63/52/59
f 63/52/59 64/52/62 72/53/62 71/53/60
f 71/53/60 72/53/62 80/54/62 79/54/61
f 79/54/61 80/54/62 8/55/62 7/55/52
o CandleStand.001
v -0.000143 0.071377 0.000004
v 0.018125 0.071377 0.000004
v 0.031194 0.050975 0.000004
v 0.068510 0.050975 0.000000
v 0.089436 0.067741 0.000000
v 0.111938 0.052953 0.000000
v 0.077651 0.000019 0.000000
v 0.000000 0.000019 0.000000
v -0.000113 0.071377 0.000088
v 0.014665 0.071377 -0.010650
v 0.025239 0.050975 -0.018332
v 0.055426 0.050975 -0.040269
v 0.072355 0.067741 -0.052569
v 0.090560 0.052953 -0.065796
v 0.062821 0.000019 -0.045642
v 0.000000 0.000019 0.000000
v -0.000040 0.071377 0.000138
v 0.005605 0.071377 -0.017236
v 0.009643 0.050975 -0.029666
v 0.021171 0.050975 -0.065157
v 0.027637 0.067741 -0.085059
v 0.034591 0.052953 -0.106460
v 0.023996 0.000019 -0.073850
v 0.000000 0.000019 0.000000
v 0.000048 0.071377 0.000135
v -0.005597 0.071377 -0.017239
v -0.009636 0.050975 -0.029668
v -0.021171 0.050975 -0.065157
v -0.027637 0.067741 -0.085059
v -0.034591 0.052953 -0.106460
v -0.023995 0.000019 -0.073850
v 0.000000 0.000019 0.000000
v 0.000118 0.071377 0.000081
v -0.014661 0.071377 -0.010657
v -0.025234 0.050975 -0.018339
v -0.055426 0.050975 -0.040270
v -0.072355 0.067741 -0.052569
v -0.090560 0.052953 -0.065796
v -0.062821 0.000019 -0.045642
v 0.000000 0.000019 0.000000
v 0.000143 0.071377 -0.000004
v -0.018125 0.071377 -0.000004
v -0.031194 0.050975 -0.000004
v -0.068510 0.050975 -0.000000
v -0.089436 0.067741 -0.000000
v -0.111938 0.052953 -0.000000
v -0.077651 0.000019 -0.000000
v 0.000000 0.000019 0.000000
v 0.000113 0.071377 -0.000088
v -0.014665 0.071377 0.010650
v -0.025239 0.050975 0.018332
v -0.055426 0.050975 0.040269
v -0.072355 0.067741 0.052569
v -0.090560 0.052953 0.065796
v -0.062821 0.000019 0.045642
v 0.000000 0.000019 0.000000
v 0.000040 0.071377 -0.000138
v -0.005605 0.071377 0.017236
v -0.009643 0.050975 0.029666
v -0.021171 0.050975 0.065157
v -0.027637 0.067741 0.085059
v -0.034591 0.052953 0.106460
v -0.023996 0.000019 0.073850
v 0.000000 0.000019 0.000000
v -0.000048 0.071377 -0.000135
v 0.005597 0.071377 0.017239
v 0.009636 0.050975 0.029668
v 0.021171 0.050975 0.065157
v 0.027637 0.067741 0.085059
v 0.034591 0.052953 0.106460
v 0.023995 0.000019 0.073850
v 0.000000 0.000019 0.000000
v -0.000118 0.071377 -0.000081
v 0.014661 0.071377 0.010657
v 0.025234 0.050975 0.018339
v 0.055426 0.050975 0.040270
v 0.072355 0.067741 0.052569
v 0.090560 0.052953 0.065796
v 0.062821 0.000019 0.045642
v 0.000000 0.000019 0.000000
vn 0.0001 -1.0000 -0.0000
vn 0.4425 0.8372 -0.3214
vn -0.0000 -1.0000 -0.0000
vn 0.1691 0.8372 -0.5201
vn -0.1689 0.8372 -0.5202
vn -0.4424 0.8372 -0.3216
vn -0.5469 0.8372 -0.0001
vn -0.4425 0.8372 0.3214
vn -0.0001 -1.0000 -0.0000
vn -0.1691 0.8372 0.5201
vn 0.1689 0.8372 0.5202
vn 0.4424 0.8372 0.3216
vn 0.5469 0.8372 0.0001
vn 0.3995 0.9167 0.0001
vn 0.3233 0.9167 -0.2348
vn 0.1235 0.9167 -0.3800
vn -0.1234 0.9167 -0.3800
vn -0.3232 0.9167 -0.2349
vn -0.3995 0.9167 -0.0001
vn -0.3233 0.9167 0.2348
vn -0.1235 0.9167 0.3800
vn 0.1234 0.9167 0.3800
vn 0.3232 0.9167 0.2349
vn -0.3876 0.9218 -0.0000
vn -0.3136 0.9218 0.2278
vn -0.1198 0.9218 0.3686
vn 0.1198 0.9218 0.3686
vn 0.3136 0.9218 0.2278
vn 0.3876 0.9218 -0.0000
vn 0.3136 0.9218 -0.2278
vn 0.1198 0.9218 -0.3686
vn -0.1198 0.9218 -0.3686
vn -0.3136 0.9218 -0.2278
vn 0.0701 0.9975 -0.0000
vn 0.0567 0.9975 -0.0412
vn 0.0217 0.9975 -0.0667
vn -0.0217 0.9975 -0.0667
vn -0.0567 0.9975 -0.0412
vn -0.0701 0.9975 -0.0000
vn -0.0567 0.9975 0.0412
vn -0.0217 0.9975 0.0667
vn 0.0217 0.9975 0.0667
vn 0.0567 0.9975 0.0412
vn 0.9832 0.1824 -0.0000
vn 0.7954 0.1824 -0.5779
vn 0.3038 0.1824 -0.9351
vn -0.3038 0.1824 -0.9351
vn -0.7954 0.1824 -0.5779
vn -0.9832 0.1824 -0.0000
vn -0.7954 0.1824 0.5779
vn -0.3038 0.1824 0.9351
vn 0.3038 0.1824 0.9351
vn 0.7954 0.1824 0.5779
vn 0.5447 -0.8386 -0.0000
vn 0.4407 -0.8386 -0.3202
vn 0.1683 -0.8387 -0.5180
vn -0.1683 -0.8387 -0.5180
vn -0.4407 -0.8386 -0.3202
vn -0.5447 -0.8386 -0.0000
vn -0.4407 -0.8386 0.3202
vn -0.1683 -0.8386 0.5180
vn 0.1683 -0.8386 0.5180
vn 0.4406 -0.8387 0.3201
vn -0.0000 1.0000 -0.0000
vt 0.000000 0.071377
vt 0.100000 0.071377
vt 0.200000 0.071377
vt 0.300000 0.071377
vt 0.400000 0.071377
vt 0.500000 0.071377
vt 0.600000 0.071377
vt 0.700000 0.071377
vt 0.800000 0.071377
vt 0.900000 0.071377
vt 1.000000 0.071377
vt 0.000000 0.050975
vt 0.100000 0.050975
vt 0.200000 0.050975
vt 0.300000 0.050975
vt 0.400000 0.050975
vt 0.500000 0.050975
vt 0.600000 0.050975
vt 0.700000 0.050975
vt 0.800000 0.050975
vt 0.900000 0.050975
vt 1.000000 0.050975
vt 0.000000 0.067741
vt 0.100000 0.067741
vt 0.200000 0.067741
vt 0.300000 0.067741
vt 0.400000 0.067741
vt 0.500000 0.067741
vt 0.600000 0.067741
vt 0.700000 0.067741
vt 0.800000 0.067741
vt 0.900000 0.067741
vt 0.000000 0.052953
vt 0.100000 0.052953
vt 0.200000 0.052953
vt 0.300000 0.052953
vt 0.400000 0.052953
vt 0.500000 0.052953
vt 0.600000 0.052953
vt 0.700000 0.052953
vt 0.800000 0.052953
vt 0.900000 0.052953
vt 1.000000 0.067741
vt 0.000000 0.000019
vt 0.100000 0.000019
vt 0.200000 0.000019
vt 0.300000 0.000019
vt 0.400000 0.000019
vt 0.500000 0.000019
vt 0.600000 0.000019
vt 0.700000 0.000019
vt 0.800000 0.000019
vt 0.900000 0.000019
vt 1.000000 0.052953
vt 1.000000 0.000019
s 1
f 81/56/63 90/57/64 89/57/65
f 89/57/65 98/58/66 97/58/65
f 97/58/65 106/59/67 105/59/65
f 105/59/65 114/60/68 113/60/65
f 113/60/65 122/61/69 121/61/65
f 121/61/65 130/62/70 129/62/71
f 129/62/71 138/63/72 137/63/71
f 137/63/71 146/64/73 145/64/65
f 145/64/65 154/65/74 153/65/65
f 153/65/65 82/66/75 81/66/63
f 83/67/76 90/57/64 82/56/75
f 91/68/77 98/58/66 90/57/64
f 99/69/78 106/59/67 98/58/66
f 107/70/79 114/60/68 106/59/67
f 115/71/80 122/61/69 114/60/68
f 123/72/81 130/62/70 122/61/69
f 131/73/82 138/63/72 130/62/70
f 139/74/83 146/64/73 138/63/72
f 147/75/84 154/65/74 146/64/73
f 155/76/85 82/66/75 154/65/74
f 84/67/86 91/68/77 83/67/76
f 92/68/87 99/69/78 91/68/77
f 100/69/88 107/70/79 99/69/78
f 108/70/89 115/71/80 107/70/79
f 116/71/90 123/72/81 115/71/80
f 124/72/91 131/73/82 123/72/81
f 132/73/92 139/74/83 131/73/82
f 140/74/93 147/75/84 139/74/83
f 148/75/94 155/76/85 147/75/84
f 156/76/95 83/77/76 155/76/85
f 85/78/96 92/68/87 84/67/86
f 93/79/97 100/69/88 92/68/87
f 101/80/98 108/70/89 100/69/88
f 109/81/99 116/71/90 108/70/89
f 117/82/100 124/72/91 116/71/90
f 125/83/101 132/73/92 124/72/91
f 133/84/102 140/74/93 132/73/92
f 141/85/103 148/75/94 140/74/93
f 149/86/104 156/76/95 148/75/94
f 157/87/105 84/77/86 156/76/95
f 86/88/106 93/79/97 85/78/96
f 94/89/107 101/80/98 93/79/97
f 102/90/108 109/81/99 101/80/98
f 110/91/109 117/82/100 109/81/99
f 118/92/110 125/83/101 117/82/100
f 126/93/111 133/84/102 125/83/101
f 134/94/112 141/85/103 133/84/102
f 142/95/113 149/86/104 141/85/103
f 150/96/114 157/87/105 149/86/104
f 158/97/115 85/98/96 157/87/105
f 87/99/116 94/89/107 86/88/106
f 95/100/117 102/90/108 94/89/107
f 103/101/118 110/91/109 102/90/108
f 111/102/119 118/92/110 110/91/109
f 119/103/120 126/93/111 118/92/110
f 127/104/121 134/94/112 126/93/111
f 135/105/122 142/95/113 134/94/112
f 143/106/123 150/96/114 142/95/113
f 151/107/124 158/97/115 150/96/114
f 159/108/125 86/109/106 158/97/115
f 87/99/116 96/100/126 95/100/117
f 95/100/117 104/101/126 103/101/118
f 103/101/118 112/102/126 111/102/119
f 111/102/119 120/103/126 119/103/120
f 119/103/120 128/104/126 127/104/121
f 127/104/121 136/105/126 135/105/122
f 135/105/122 144/106/126 143/106/123
f 143/106/123 152/107/126 151/107/124
f 151/107/124 160/108/126 159/108/125
f 159/108/125 88/110/126 87/110/116
f 81/56/63 82/56/75 90/57/64
f 89/57/65 90/57/64 98/58/66
f 97/58/65 98/58/66 106/59/67
f 105/59/65 106/59/67 114/60/68
f 113/60/65 114/60/68 122/61/69
f 121/61/65 122/61/69 130/62/70
f 129/62/71 130/62/70 138/63/72
f 137/63/71 138/63/72 146/64/73
f 145/64/65 146/64/73 154/65/74
f 153/65/65 154/65/74 82/66/75
f 83/67/76 91/68/77 90/57/64
f 91/68/77 99/69/78 98/58/66
f 99/69/78 107/70/79 106/59/67
f 107/70/79 115/71/80 114/60/68
f 115/71/80 123/72/81 122/61/69
f 123/72/81 131/73/82 130/62/70
f 131/73/82 139/74/83 138/63/72
f 139/74/83 147/75/84 146/64/73
f 147/75/84 155/76/85 154/65/74
f 155/76/85 83/77/76 82/66/75
f 84/67/86 92/68/87 91/68/77
f 92/68/87 100/69/88 99/69/78
f 100/69/88 108/70/89 107/70/79
f 108/70/89 116/71/90 115/71/80
f 116/71/90 124/72/91 123/72/81
f 124/72/91 132/73/92 131/73/82
f 132/73/92 140/74/93 139/74/83
f 140/74/93 148/75/94 147/75/84
f 148/75/94 156/76/95 155/76/85
f 156/76/95 84/77/86 83/77/76
f 85/78/96 93/79/97 92/68/87
f 93/79/97 101/80/98 100/69/88
f 101/80/98 109/81/99 108/70/89
f 109/81/99 117/82/100 116/71/90
f 117/82/100 125/83/101 124/72/91
f 125/83/101 133/84/102 132/73/92
f 133/84/102 141/85/103 140/74/93
f 141/85/103 149/86/104 148/75/94
f 149/86/104 157/87/105 156/76/95
f 157/87/105 85/98/96 84/77/86
f 86/88/106 94/89/107 93/79/97
f 94/89/107 102/90/108 101/80/98
f 102/90/108 110/91/109 109/81/99
f 110/91/109 118/92/110 117/82/100
f 118/92/110 126/93/111 125/83/101
f 126/93/111 134/94/112 133/84/102
f 134/94/112 142/95/113 141/85/103
f 142/95/113 150/96/114 149/86/104
f 150/96/114 158/97/115 157/87/105
f 158/97/115 86/109/106 85/98/96
f 87/99/116 95/100/117 94/89/107
f 95/100/117 103/101/118 102/90/108
f 103/101/118 111/102/119 110/91/109
f 111/102/119 119/103/120 118/92/110
f 119/103/120 127/104/121 126/93/111
f 127/104/121 135/105/122 134/94/112
f 135/105/122 143/106/123 142/95/113
f 143/106/123 151/107/124 150/96/114
f 151/107/124 159/108/125 158/97/115
f 159/108/125 87/110/116 86/109/106
f 87/99/116 88/99/126 96/100/126
f 95/100/117 96/100/126 104/101/126
f 103/101/118 104/101/126 112/102/126
f 111/102/119 112/102/126 120/103/126
f 119/103/120 120/103/126 128/104/126
f 127/104/121 128/104/126 136/105/126
f 135/105/122 136/105/126 144/106/126
f 143/106/123 144/106/126 152/107/126
f 151/107/124 152/107/126 160/108/126
f 159/108/125 160/108/126 88/110/126
o Candle
v -0.001963 0.037125 -0.020385
v -0.004703 0.256627 -0.003134
v 0.012046 0.037125 -0.014414
v -0.002916 0.256356 -0.001982
v 0.017849 0.037125 0.000000
v -0.003278 0.256619 0.000729
v 0.012046 0.037125 0.014414
v -0.005737 0.257208 0.003377
v -0.001964 0.037125 0.020385
v -0.008509 0.257837 0.004466
v -0.015973 0.037125 0.014414
v -0.009910 0.258291 0.003351
v -0.021776 0.037125 0.000000
v -0.009236 0.258102 0.000692
v -0.015973 0.037125 -0.014414
v -0.007247 0.257334 -0.002010
v 0.009839 0.258960 -0.014260
v -0.004966 0.258973 -0.020265
v 0.014716 0.258911 0.000000
v 0.007515 0.259025 0.014414
v -0.007643 0.259074 0.020385
v -0.021517 0.259305 0.014362
v -0.024980 0.259713 0.000104
v -0.019645 0.258994 -0.014269
v 0.005370 0.255695 -0.008860
v -0.003898 0.255887 -0.012836
v 0.006743 0.255754 0.000243
v 0.001665 0.256235 0.009532
v -0.008048 0.256462 0.013480
v -0.016715 0.257237 0.009512
v -0.017003 0.257693 0.000364
v -0.012592 0.256410 -0.008876
v -0.006648 0.307400 -0.000329
v -0.006930 0.307439 -0.000730
v -0.007475 0.307707 -0.000358
v -0.007977 0.308036 0.000567
v -0.008170 0.308216 0.001501
v -0.007920 0.308157 0.001899
v -0.007356 0.307909 0.001529
v -0.006821 0.307600 0.000607
v -0.008448 0.280204 -0.008868
v -0.002663 0.279781 -0.005951
v -0.014641 0.281540 -0.006058
v -0.018522 0.283300 0.000581
v -0.019883 0.283488 0.007132
v -0.015671 0.282393 0.009996
v -0.009164 0.281216 0.007221
v -0.003180 0.280042 0.000711
v -0.007341 0.297694 -0.006865
v -0.011676 0.299074 -0.004715
v -0.014458 0.300708 0.000498
v -0.015429 0.301251 0.005722
v -0.012810 0.300562 0.007982
v -0.008164 0.299130 0.005864
v -0.004100 0.297634 0.000738
v -0.003537 0.297190 -0.004534
v -0.002899 0.262880 -0.001940
v -0.006633 0.263691 -0.003064
v -0.010905 0.264667 -0.001998
v -0.013644 0.265355 0.000658
v -0.013527 0.265634 0.003343
v -0.010683 0.265126 0.004503
v -0.005904 0.263684 0.003399
v -0.002309 0.262845 0.000711
vn 0.0166 -0.1473 -0.9889
vn 0.7163 0.1596 -0.6793
vn 0.7204 -0.1384 -0.6796
vn 0.9853 0.1638 0.0484
vn 0.9911 -0.1329 -0.0000
vn 0.7168 -0.1361 0.6838
vn 0.6563 0.1682 0.7355
vn 0.0318 -0.1475 0.9885
vn -0.0519 0.1556 0.9865
vn -0.6911 -0.1597 0.7049
vn -0.7646 0.1363 0.6299
vn -0.9872 -0.1589 -0.0135
vn 0.9173 -0.0289 -0.3971
vn 0.9206 0.0316 0.3892
vn 0.9527 -0.0344 0.3021
vn -0.7204 0.1410 -0.6791
vn -0.6955 -0.1541 -0.7018
vn -0.0181 0.1571 -0.9874
vn 0.0251 0.9724 0.2321
vn -0.2007 0.9645 0.1715
vn -0.1975 0.9783 -0.0625
vn -0.0941 0.9804 -0.1732
vn 0.0475 0.9831 -0.1768
vn 0.1716 0.9842 -0.0435
vn -0.9880 0.1445 -0.0547
vn 0.1235 0.9923 -0.0015
vn 0.1570 0.9857 0.0604
vn 0.8692 0.2759 -0.4104
vn 0.2357 0.2987 -0.9248
vn 0.8781 0.1414 0.4570
vn 0.5896 0.2164 0.7781
vn 0.1341 0.2620 0.9557
vn -0.7385 0.0677 0.6709
vn -0.8530 0.0326 -0.5209
vn -0.3682 0.0897 -0.9254
vn -0.3599 0.8514 -0.3815
vn 0.3818 0.6040 0.6995
vn 0.8701 0.4340 0.2338
vn 0.3558 0.6416 -0.6796
vn 0.9118 0.1539 -0.3808
vn 0.1381 0.1967 -0.9707
vn -0.5760 0.2582 -0.7755
vn -0.8616 0.3211 -0.3933
vn -0.3953 0.9185 -0.0050
vn -0.8585 0.3460 0.3785
vn 0.0861 0.1909 0.9778
vn 0.6301 0.1150 0.7680
vn 0.9261 0.1156 0.3591
vn 0.7690 0.4158 0.4856
vn 0.8838 0.4626 -0.0709
vn 0.5721 -0.0117 0.8201
vn 0.4877 -0.0459 0.8718
vn -0.1163 -0.2003 0.9728
vn -0.2464 -0.0318 0.9686
vn -0.8319 -0.3810 0.4035
vn -0.9484 -0.0086 -0.3169
vn -0.9007 -0.3363 -0.2750
vn -0.6873 -0.0218 -0.7261
vn -0.5794 -0.3388 -0.7413
vn -0.0439 -0.0407 -0.9982
vn -0.0947 -0.1726 -0.9804
vn 0.8114 -0.0310 -0.5836
vn -0.9296 -0.0116 0.3685
vn -0.2246 0.7829 -0.5802
vt 1.000000 0.500000
vt 0.875000 1.000000
vt 0.875000 0.500000
vt 0.750000 1.000000
vt 0.750000 0.500000
vt 0.625000 0.500000
vt 0.625000 1.000000
vt 0.500000 0.500000
vt 0.500000 1.000000
vt 0.375000 0.500000
vt 0.375000 1.000000
vt 0.250000 0.500000
vt 0.284490 0.284490
vt 0.298776 0.250000
vt 0.125000 1.000000
vt 0.125000 0.500000
vt 0.000000 1.000000
vt 0.000000 0.500000
vt 0.919706 0.080294
vt 0.580294 0.080294
vt 0.580294 0.419706
vt 0.250000 0.408705
vt 0.419706 0.419706
vt 0.250000 0.490000
vt 0.362221 0.362221
vt 0.490000 0.250000
vt 0.408705 0.250000
vt 0.419706 0.080294
vt 0.362221 0.137779
vt 0.250000 0.010000
vt 0.250000 0.091295
vt 0.080294 0.080294
vt 0.137779 0.137779
vt 0.010000 0.250000
vt 0.091295 0.250000
vt 0.080294 0.419706
vt 0.137779 0.362221
vt 0.250000 0.298776
vt 0.284490 0.215510
vt 0.250000 0.201224
vt 0.215510 0.215510
vt 0.201224 0.250000
vt 0.215510 0.284490
vt 1.000000 1.000000
vt 0.250000 1.000000
vt 0.750000 0.490000
vt 0.919706 0.419706
vt 0.990000 0.250000
vt 0.750000 0.010000
vt 0.510000 0.250000
s 1
f 161/111/127 177/112/128 163/113/129
f 163/113/129 179/114/130 165/115/131
f 179/114/130 167/116/132 165/115/131
f 180/117/133 169/118/134 167/116/132
f 181/119/135 171/120/136 169/118/134
f 182/121/137 173/122/138 171/120/136
f 217/123/139 208/124/140 224/124/141
f 173/122/138 184/125/142 175/126/143
f 175/126/143 178/127/144 161/128/127
f 167/129/132 171/130/136 175/131/143
f 186/132/145 177/133/128 178/134/144
f 185/135/146 179/136/130 177/133/128
f 187/137/147 180/138/133 179/136/130
f 188/139/148 181/140/135 180/138/133
f 189/141/149 182/142/137 181/140/135
f 190/143/150 183/144/151 182/142/137
f 191/145/152 184/146/142 183/144/151
f 192/147/153 178/134/144 184/146/142
f 164/123/154 186/132/145 162/148/155
f 164/123/154 187/137/147 185/135/146
f 166/124/156 188/139/148 187/137/147
f 168/149/157 189/141/149 188/139/148
f 170/150/158 190/143/150 189/141/149
f 172/151/159 191/145/152 190/143/150
f 174/152/160 192/147/153 191/145/152
f 162/148/155 192/147/153 176/153/161
f 196/152/162 198/150/163 200/124/164
f 194/148/165 216/123/166 209/148/167
f 210/153/168 194/148/165 209/148/167
f 196/152/162 210/153/168 211/152/169
f 197/151/170 211/152/169 212/151/171
f 213/150/172 197/151/170 212/151/171
f 214/149/173 198/150/163 213/150/172
f 215/124/174 199/149/175 214/149/173
f 193/123/176 215/124/174 216/123/166
f 208/124/140 223/149/177 224/124/141
f 207/149/178 222/150/179 223/149/177
f 206/150/180 221/151/181 222/150/179
f 221/151/181 204/152/182 220/152/183
f 220/152/183 203/153/184 219/153/185
f 219/153/185 201/148/186 218/148/187
f 218/148/187 202/123/188 217/123/139
f 216/123/166 208/124/140 202/123/188
f 208/124/140 214/149/173 207/149/178
f 207/149/178 213/150/172 206/150/180
f 206/150/180 212/151/171 205/151/189
f 212/151/171 204/152/182 205/151/189
f 211/152/169 203/153/184 204/152/182
f 210/153/168 201/148/186 203/153/184
f 209/148/167 202/123/188 201/148/186
f 162/148/155 217/123/139 164/123/154
f 176/153/161 218/148/187 162/148/155
f 174/152/160 219/153/185 176/153/161
f 172/151/159 220/152/183 174/152/160
f 222/150/179 172/151/159 170/150/158
f 223/149/177 170/150/158 168/149/157
f 166/124/156 223/149/177 168/149/157
f 217/123/139 166/124/156 164/123/154
f 161/111/127 178/154/144 177/112/128
f 163/113/129 177/112/128 179/114/130
f 179/114/130 180/117/133 167/116/132
f 180/117/133 181/119/135 169/118/134
f 181/119/135 182/121/137 171/120/136
f 182/121/137 183/155/151 173/122/138
f 217/123/139 202/123/188 208/124/140
f 173/122/138 183/155/151 184/125/142
f 175/126/143 184/125/142 178/127/144
f 175/131/143 161/156/127 163/157/129
f 163/157/129 165/158/131 167/129/132
f 167/129/132 169/159/134 171/130/136
f 171/130/136 173/160/138 175/131/143
f 175/131/143 163/157/129 167/129/132
f 186/132/145 185/135/146 177/133/128
f 185/135/146 187/137/147 179/136/130
f 187/137/147 188/139/148 180/138/133
f 188/139/148 189/141/149 181/140/135
f 189/141/149 190/143/150 182/142/137
f 190/143/150 191/145/152 183/144/151
f 191/145/152 192/147/153 184/146/142
f 192/147/153 186/132/145 178/134/144
f 164/123/154 185/135/146 186/132/145
f 164/123/154 166/124/156 187/137/147
f 166/124/156 168/149/157 188/139/148
f 168/149/157 170/150/158 189/141/149
f 170/150/158 172/151/159 190/143/150
f 172/151/159 174/152/160 191/145/152
f 174/152/160 176/153/161 192/147/153
f 162/148/155 186/132/145 192/147/153
f 200/124/164 193/123/176 194/148/165
f 194/148/165 195/153/190 196/152/162
f 196/152/162 197/151/170 198/150/163
f 198/150/163 199/149/175 200/124/164
f 200/124/164 194/148/165 196/152/162
f 194/148/165 193/123/176 216/123/166
f 210/153/168 195/153/190 194/148/165
f 196/152/162 195/153/190 210/153/168
f 197/151/170 196/152/162 211/152/169
f 213/150/172 198/150/163 197/151/170
f 214/149/173 199/149/175 198/150/163
f 215/124/174 200/124/164 199/149/175
f 193/123/176 200/124/164 215/124/174
f 208/124/140 207/149/178 223/149/177
f 207/149/178 206/150/180 222/150/179
f 206/150/180 205/151/189 221/151/181
f 221/151/181 205/151/189 204/152/182
f 220/152/183 204/152/182 203/153/184
f 219/153/185 203/153/184 201/148/186
f 218/148/187 201/148/186 202/123/188
f 216/123/166 215/124/174 208/124/140
f 208/124/140 215/124/174 214/149/173
f 207/149/178 214/149/173 213/150/172
f 206/150/180 213/150/172 212/151/171
f 212/151/171 211/152/169 204/152/182
f 211/152/169 210/153/168 203/153/184
f 210/153/168 209/148/167 201/148/186
f 209/148/167 216/123/166 202/123/188
f 162/148/155 218/148/187 217/123/139
f 176/153/161 219/153/185 218/148/187
f 174/152/160 220/152/183 219/153/185
f 172/151/159 221/151/181 220/152/183
f 222/150/179 221/151/181 172/151/159
f 223/149/177 222/150/179 170/150/158
f 166/124/156 224/124/141 223/149/177
f 217/123/139 224/124/141 166/124/156
o CandleStand
v 0.087658 0.065324 -0.011281
v 0.087658 0.065324 0.011281
v 0.105383 0.052047 0.011281
v 0.105383 0.052047 -0.011281
v 0.089933 0.068015 -0.011281
v 0.089933 0.068015 0.011281
v 0.104768 0.051572 0.011281
v 0.104768 0.051572 -0.011281
v 0.131736 0.090042 -0.011281
v 0.131736 0.090042 0.011281
v 0.127578 0.068289 0.011281
v 0.127578 0.068289 -0.011281
v 0.167207 0.045422 -0.011281
v 0.167207 0.045422 0.011281
v 0.145138 0.043578 0.011281
v 0.145138 0.043578 -0.011281
v 0.145324 0.003594 -0.011281
v 0.145324 0.003594 0.011281
v 0.133762 0.022483 0.011281
v 0.133762 0.022483 -0.011281
v 0.074403 0.001110 -0.011281
v 0.074403 0.001110 0.011281
v 0.071934 0.023118 0.011281
v 0.071934 0.023118 -0.011281
v 0.075097 0.001203 -0.011281
v 0.075097 0.001203 0.011281
v 0.070492 0.022866 0.011281
v 0.070491 0.022866 -0.011281
vn -0.0000 -0.0000 1.0000
vn -0.7637 0.6456 -0.0000
vn -0.6113 0.7914 -0.0000
vn -0.0000 -0.0000 -1.0000
vn -0.4662 0.8847 -0.0000
vn 0.5911 -0.8066 -0.0000
vn 0.7828 0.6223 -0.0000
vn -0.8152 -0.5792 -0.0000
vn 0.8861 -0.4636 -0.0000
vn -0.8802 0.4746 -0.0000
vn 0.0350 -0.9994 -0.0000
vn 0.0103 0.9999 -0.0000
vn -0.1335 0.9910 -0.0000
vn -0.1725 0.9850 -0.0000
vt 0.000000 1.000000
vt 0.166667 0.750000
vt 0.000000 0.750000
vt 0.166667 0.250000
vt 0.000000 0.000000
vt 0.000000 0.250000
vt 0.000000 0.500000
vt 0.166667 1.000000
vt 0.333333 0.750000
vt 0.333333 0.000000
vt 0.166667 0.000000
vt 0.333333 0.500000
vt 0.166667 0.500000
vt 0.500000 1.000000
vt 0.333333 1.000000
vt 0.333333 0.250000
vt 0.500000 0.000000
vt 0.500000 0.250000
vt 0.500000 0.500000
vt 0.666667 1.000000
vt 0.500000 0.750000
vt 0.666667 0.000000
vt 0.666667 0.250000
vt 0.666667 0.500000
vt 0.833333 1.000000
vt 0.666667 0.750000
vt 0.833333 0.250000
vt 0.833333 0.500000
vt 1.000000 0.750000
vt 0.833333 0.750000
vt 1.000000 0.250000
vt 0.833333 0.000000
vt 1.000000 1.000000
vt 1.000000 0.000000
vt 1.000000 0.500000
s 0
f 225/161/191 232/162/191 228/163/191
f 230/164/192 225/165/192 226/166/192
f 227/167/191 230/164/191 226/166/191
f 232/162/193 227/167/193 228/163/193
f 229/168/194 236/169/194 232/162/194
f 230/164/195 233/170/195 229/171/195
f 235/172/191 230/164/191 231/173/191
f 232/162/196 235/172/196 231/173/196
f 237/174/194 236/169/194 233/175/194
f 234/176/197 237/177/197 233/170/197
f 235/172/191 238/178/191 234/176/191
f 236/169/198 239/179/198 235/172/198
f 241/180/194 240/181/194 237/174/194
f 238/178/199 241/182/199 237/177/199
f 239/179/191 242/183/191 238/178/191
f 240/181/200 243/184/200 239/179/200
f 245/185/194 244/186/194 241/180/194
f 246/187/201 241/182/201 242/183/201
f 243/184/191 246/187/191 242/183/191
f 244/186/202 247/188/202 243/184/202
f 245/185/194 252/189/194 248/190/194
f 250/191/203 245/192/203 246/187/203
f 247/188/194 250/191/194 246/187/194
f 252/189/204 247/188/204 248/190/204
f 225/161/194 229/168/194 232/162/194
f 230/164/192 229/171/192 225/165/192
f 227/167/194 231/173/194 230/164/194
f 232/162/193 231/173/193 227/167/193
f 229/168/194 233/175/194 236/169/194
f 230/164/195 234/176/195 233/170/195
f 235/172/191 234/176/191 230/164/191
f 232/162/196 236/169/196 235/172/196
f 237/174/194 240/181/194 236/169/194
f 234/176/197 238/178/197 237/177/197
f 235/172/191 239/179/191 238/178/191
f 236/169/198 240/181/198 239/179/198
f 241/180/194 244/186/194 240/181/194
f 238/178/199 242/183/199 241/182/199
f 239/179/191 243/184/191 242/183/191
f 240/181/200 244/186/200 243/184/200
f 245/185/194 248/190/194 244/186/194
f 246/187/201 245/192/201 241/182/201
f 243/184/191 247/188/191 246/187/191
f 244/186/202 248/190/202 247/188/202
f 245/185/191 249/193/191 252/189/191
f 250/191/203 249/194/203 245/192/203
f 247/188/191 251/195/191 250/191/191
f 252/189/204 251/195/204 247/188/204
