# Blender 4.1.0
# www.blender.org
mtllib Door.003.mtl
o Door.003
v 0.361129 0.970920 0.131191
v 0.361129 1.065921 0.131191
v 0.376635 0.986476 0.066752
v 0.376635 1.050364 0.066752
v 0.455821 0.970920 0.131191
v 0.455821 1.065921 0.131191
v 0.440315 0.986476 0.066752
v 0.440315 1.050364 0.066752
v 0.351604 1.075476 0.075046
v 0.351604 0.961364 0.075046
v 0.465346 0.961364 0.075046
v 0.465346 1.075476 0.075046
v 0.382893 1.044086 -0.005482
v 0.382893 0.992754 -0.005482
v 0.434057 0.992754 -0.005482
v 0.434057 1.044086 -0.005482
v 0.361129 0.970920 -0.247847
v 0.361129 1.065921 -0.247847
v 0.376635 0.986476 -0.183408
v 0.376635 1.050364 -0.183408
v 0.455821 0.970920 -0.247847
v 0.455821 1.065921 -0.247847
v 0.440315 0.986476 -0.183408
v 0.440315 1.050364 -0.183408
v 0.351604 1.075476 -0.191702
v 0.351604 0.961364 -0.191702
v 0.465346 0.961364 -0.191702
v 0.465346 1.075476 -0.191702
v 0.382893 1.044086 -0.111173
v 0.382893 0.992754 -0.111173
v 0.434057 0.992754 -0.111173
v 0.434057 1.044086 -0.111173
v 0.348324 0.958074 0.087423
v 0.348832 0.958583 0.104055
v 0.353982 0.963750 0.120258
v 0.354222 0.990238 0.135095
v 0.350753 1.018420 0.137057
v 0.354222 1.046602 0.135095
v 0.353982 1.073090 0.120258
v 0.348832 1.078257 0.104055
v 0.348324 1.078767 0.087423
v 0.335609 1.049623 0.075046
v 0.330278 1.018420 0.075046
v 0.335609 0.987218 0.075046
v 0.439576 0.945317 0.075046
v 0.408475 0.939968 0.075046
v 0.377374 0.945317 0.075046
v 0.377374 1.091523 0.075046
v 0.408475 1.096872 0.075046
v 0.439576 1.091523 0.075046
v 0.481340 1.049623 0.075046
v 0.486672 1.018420 0.075046
v 0.481340 0.987218 0.075046
v 0.462968 0.963750 0.120258
v 0.468118 0.958583 0.104055
v 0.468625 0.958074 0.087423
v 0.468625 1.078767 0.087423
v 0.468118 1.078257 0.104055
v 0.462968 1.073090 0.120258
v 0.462727 1.046602 0.135095
v 0.466197 1.018420 0.137057
v 0.462727 0.990238 0.135095
v 0.380384 0.963991 0.135095
v 0.408475 0.960510 0.137057
v 0.436565 0.963991 0.135095
v 0.436565 1.072849 0.135095
v 0.408475 1.076330 0.137057
v 0.380384 1.072849 0.135095
v 0.367680 1.035889 0.066752
v 0.364695 1.018420 0.066752
v 0.367680 1.000951 0.066752
v 0.425887 0.977492 0.066752
v 0.408475 0.974497 0.066752
v 0.391062 0.977492 0.066752
v 0.391062 1.059348 0.066752
v 0.408475 1.062343 0.066752
v 0.425887 1.059348 0.066752
v 0.449270 1.035889 0.066752
v 0.452255 1.018420 0.066752
v 0.449270 1.000951 0.066752
v 0.357275 1.069787 0.070207
v 0.364119 1.062920 0.070098
v 0.370964 1.056053 0.070390
v 0.370964 0.980787 0.070390
v 0.364119 0.973920 0.070098
v 0.357275 0.967054 0.070207
v 0.445986 0.980787 0.070390
v 0.452830 0.973920 0.070098
v 0.459675 0.967054 0.070207
v 0.459675 1.069787 0.070207
v 0.452830 1.062920 0.070098
v 0.445986 1.056053 0.070390
v 0.375698 1.032456 -0.005482
v 0.373299 1.018420 -0.005482
v 0.375698 1.004384 -0.005482
v 0.422465 0.985536 -0.005482
v 0.408475 0.983130 -0.005482
v 0.394485 0.985536 -0.005482
v 0.394485 1.051304 -0.005482
v 0.408475 1.053710 -0.005482
v 0.422465 1.051304 -0.005482
v 0.441252 1.032456 -0.005482
v 0.443651 1.018420 -0.005482
v 0.441252 1.004384 -0.005482
v 0.436697 1.046734 0.055920
v 0.434839 1.044871 0.038894
v 0.434155 1.044184 0.017738
v 0.382795 1.044184 0.017738
v 0.382110 1.044871 0.038894
v 0.380253 1.046734 0.055920
v 0.382795 0.992656 0.017738
v 0.382110 0.991970 0.038894
v 0.380253 0.990106 0.055920
v 0.436697 0.990106 0.055920
v 0.434839 0.991970 0.038894
v 0.434155 0.992656 0.017738
v 0.348324 0.958074 -0.204079
v 0.348832 0.958583 -0.220711
v 0.353982 0.963750 -0.236914
v 0.354222 0.990238 -0.251751
v 0.350753 1.018420 -0.253712
v 0.354222 1.046602 -0.251751
v 0.353982 1.073090 -0.236914
v 0.348832 1.078257 -0.220711
v 0.348324 1.078767 -0.204079
v 0.335609 1.049623 -0.191702
v 0.330278 1.018420 -0.191702
v 0.335609 0.987218 -0.191702
v 0.439576 0.945317 -0.191702
v 0.408475 0.939968 -0.191702
v 0.377374 0.945317 -0.191702
v 0.377374 1.091523 -0.191702
v 0.408475 1.096872 -0.191702
v 0.439576 1.091523 -0.191702
v 0.481340 1.049623 -0.191702
v 0.486672 1.018420 -0.191702
v 0.481340 0.987218 -0.191702
v 0.462968 0.963750 -0.236914
v 0.468118 0.958583 -0.220711
v 0.468625 0.958074 -0.204079
v 0.468625 1.078767 -0.204079
v 0.468118 1.078257 -0.220711
v 0.462968 1.073090 -0.236914
v 0.462727 1.046602 -0.251751
v 0.466197 1.018420 -0.253712
v 0.462727 0.990238 -0.251751
v 0.380384 0.963991 -0.251751
v 0.408475 0.960510 -0.253712
v 0.436565 0.963991 -0.251751
v 0.436565 1.072849 -0.251751
v 0.408475 1.076330 -0.253712
v 0.380384 1.072849 -0.251751
v 0.367680 1.035889 -0.183408
v 0.364695 1.018420 -0.183408
v 0.367680 1.000951 -0.183408
v 0.425887 0.977492 -0.183408
v 0.408475 0.974497 -0.183408
v 0.391062 0.977492 -0.183408
v 0.391062 1.059348 -0.183408
v 0.408475 1.062343 -0.183408
v 0.425887 1.059348 -0.183408
v 0.449270 1.035889 -0.183408
v 0.452255 1.018420 -0.183408
v 0.449270 1.000951 -0.183408
v 0.357275 1.069787 -0.186863
v 0.364119 1.062920 -0.186754
v 0.370964 1.056053 -0.187046
v 0.370964 0.980787 -0.187046
v 0.364119 0.973920 -0.186754
v 0.357275 0.967054 -0.186863
v 0.445986 0.980787 -0.187046
v 0.452830 0.973920 -0.186754
v 0.459675 0.967054 -0.186863
v 0.459675 1.069787 -0.186863
v 0.452830 1.062920 -0.186754
v 0.445986 1.056053 -0.187046
v 0.375698 1.032456 -0.111173
v 0.373299 1.018420 -0.111173
v 0.375698 1.004384 -0.111173
v 0.422465 0.985536 -0.111173
v 0.408475 0.983130 -0.111173
v 0.394485 0.985536 -0.111173
v 0.394485 1.051304 -0.111173
v 0.408475 1.053710 -0.111173
v 0.422465 1.051304 -0.111173
v 0.441252 1.032456 -0.111173
v 0.443651 1.018420 -0.111173
v 0.441252 1.004384 -0.111173
v 0.436697 1.046734 -0.172576
v 0.434839 1.044871 -0.155550
v 0.434155 1.044184 -0.134394
v 0.382795 1.044184 -0.134394
v 0.382110 1.044871 -0.155550
v 0.380253 1.046734 -0.172576
v 0.382795 0.992656 -0.134394
v 0.382110 0.991970 -0.155550
v 0.380253 0.990106 -0.172576
v 0.436697 0.990106 -0.172576
v 0.434839 0.991970 -0.155550
v 0.434155 0.992656 -0.134394
v 0.339142 0.988252 0.121338
v 0.334119 1.018420 0.122284
v 0.339142 1.048588 0.121338
v 0.332019 0.985707 0.104344
v 0.326402 1.018420 0.104633
v 0.332019 1.051133 0.104344
v 0.331402 0.985419 0.087459
v 0.325760 1.018420 0.087495
v 0.331402 1.051421 0.087459
v 0.393041 1.054698 0.055920
v 0.408475 1.057352 0.055920
v 0.423909 1.054698 0.055920
v 0.394057 1.052310 0.038894
v 0.408475 1.054790 0.038894
v 0.422893 1.052310 0.038894
v 0.394431 1.051430 0.017738
v 0.408475 1.053845 0.017738
v 0.422519 1.051430 0.017738
v 0.485548 0.985419 0.087459
v 0.491190 1.018420 0.087495
v 0.485548 1.051421 0.087459
v 0.484931 0.985707 0.104344
v 0.490548 1.018420 0.104633
v 0.484931 1.051133 0.104344
v 0.477808 0.988252 0.121338
v 0.482831 1.018420 0.122284
v 0.477808 1.048588 0.121338
v 0.438413 0.988385 0.143450
v 0.440021 1.018420 0.146279
v 0.438413 1.048455 0.143450
v 0.408475 0.986771 0.146279
v 0.408475 1.018420 0.149367
v 0.408475 1.050069 0.146279
v 0.378537 0.988385 0.143450
v 0.376929 1.018420 0.146279
v 0.378537 1.048455 0.143450
v 0.375581 0.941096 0.087459
v 0.408475 0.935436 0.087495
v 0.441368 0.941096 0.087459
v 0.375868 0.941715 0.104344
v 0.408475 0.936080 0.104633
v 0.441082 0.941715 0.104344
v 0.378405 0.948861 0.121338
v 0.408475 0.943822 0.122284
v 0.438545 0.948861 0.121338
v 0.441368 1.095744 0.087459
v 0.408475 1.101405 0.087495
v 0.375581 1.095744 0.087459
v 0.441082 1.095125 0.104344
v 0.408475 1.100760 0.104633
v 0.375868 1.095125 0.104344
v 0.438545 1.087979 0.121338
v 0.408475 1.093018 0.122284
v 0.378405 1.087979 0.121338
v 0.360414 1.039001 0.070390
v 0.356897 1.018420 0.070390
v 0.360414 0.997839 0.070390
v 0.351645 1.042756 0.070098
v 0.347486 1.018420 0.070098
v 0.351645 0.994084 0.070098
v 0.342875 1.046511 0.070207
v 0.338075 1.018420 0.070207
v 0.342875 0.990329 0.070207
v 0.387961 0.970202 0.070390
v 0.408475 0.966674 0.070390
v 0.428989 0.970202 0.070390
v 0.384218 0.961405 0.070098
v 0.408475 0.957233 0.070098
v 0.432732 0.961405 0.070098
v 0.380475 0.952607 0.070207
v 0.408475 0.947791 0.070207
v 0.436475 0.952607 0.070207
v 0.428989 1.066638 0.070390
v 0.408475 1.070166 0.070390
v 0.387961 1.066638 0.070390
v 0.432732 1.075436 0.070098
v 0.408475 1.079607 0.070098
v 0.384218 1.075436 0.070098
v 0.436475 1.084234 0.070207
v 0.408475 1.089049 0.070207
v 0.380475 1.084234 0.070207
v 0.456536 0.997839 0.070390
v 0.460053 1.018420 0.070390
v 0.456536 1.039001 0.070390
v 0.465305 0.994084 0.070098
v 0.469464 1.018420 0.070098
v 0.465305 1.042756 0.070098
v 0.474074 0.990329 0.070207
v 0.478875 1.018420 0.070207
v 0.474074 1.046511 0.070207
v 0.372315 1.002936 0.055920
v 0.369669 1.018420 0.055920
v 0.372315 1.033905 0.055920
v 0.374695 1.003955 0.038894
v 0.372224 1.018420 0.038894
v 0.374695 1.032885 0.038894
v 0.375572 1.004331 0.017738
v 0.373165 1.018420 0.017738
v 0.375572 1.032510 0.017738
v 0.444635 1.033905 0.055920
v 0.447281 1.018420 0.055920
v 0.444635 1.002936 0.055920
v 0.442254 1.032885 0.038894
v 0.444726 1.018420 0.038894
v 0.442254 1.003955 0.038894
v 0.441378 1.032510 0.017738
v 0.443785 1.018420 0.017738
v 0.441378 1.004331 0.017738
v 0.423909 0.982142 0.055920
v 0.408475 0.979488 0.055920
v 0.393041 0.982142 0.055920
v 0.422893 0.984530 0.038894
v 0.408475 0.982051 0.038894
v 0.394057 0.984530 0.038894
v 0.422519 0.985410 0.017738
v 0.408475 0.982995 0.017738
v 0.394431 0.985410 0.017738
v 0.339142 0.988252 -0.237994
v 0.332019 0.985707 -0.221000
v 0.331402 0.985419 -0.204115
v 0.334119 1.018420 -0.238940
v 0.326402 1.018420 -0.221289
v 0.325760 1.018420 -0.204151
v 0.339142 1.048588 -0.237994
v 0.332019 1.051133 -0.221000
v 0.331402 1.051421 -0.204115
v 0.393041 1.054698 -0.172576
v 0.394057 1.052310 -0.155550
v 0.394431 1.051430 -0.134394
v 0.408475 1.057352 -0.172576
v 0.408475 1.054790 -0.155550
v 0.408475 1.053845 -0.134394
v 0.423909 1.054698 -0.172576
v 0.422893 1.052310 -0.155550
v 0.422519 1.051430 -0.134394
v 0.485548 0.985419 -0.204115
v 0.484931 0.985707 -0.221000
v 0.477808 0.988252 -0.237994
v 0.491190 1.018420 -0.204151
v 0.490548 1.018420 -0.221289
v 0.482831 1.018420 -0.238940
v 0.485548 1.051421 -0.204115
v 0.484931 1.051133 -0.221000
v 0.477808 1.048588 -0.237994
v 0.438413 0.988385 -0.260106
v 0.408475 0.986771 -0.262935
v 0.378537 0.988385 -0.260106
v 0.440021 1.018420 -0.262935
v 0.408475 1.018420 -0.266023
v 0.376929 1.018420 -0.262935
v 0.438413 1.048455 -0.260106
v 0.408475 1.050069 -0.262935
v 0.378537 1.048455 -0.260106
v 0.375581 0.941096 -0.204115
v 0.375868 0.941715 -0.221000
v 0.378405 0.948861 -0.237994
v 0.408475 0.935436 -0.204151
v 0.408475 0.936080 -0.221289
v 0.408475 0.943822 -0.238940
v 0.441368 0.941096 -0.204115
v 0.441082 0.941715 -0.221000
v 0.438545 0.948861 -0.237994
v 0.441368 1.095744 -0.204115
v 0.441082 1.095125 -0.221000
v 0.438545 1.087979 -0.237994
v 0.408475 1.101405 -0.204151
v 0.408475 1.100760 -0.221289
v 0.408475 1.093018 -0.238940
v 0.375581 1.095744 -0.204115
v 0.375868 1.095125 -0.221000
v 0.378405 1.087979 -0.237994
v 0.360414 1.039001 -0.187046
v 0.351645 1.042756 -0.186754
v 0.342875 1.046511 -0.186863
v 0.356897 1.018420 -0.187046
v 0.347486 1.018420 -0.186754
v 0.338075 1.018420 -0.186863
v 0.360414 0.997839 -0.187046
v 0.351645 0.994084 -0.186754
v 0.342875 0.990329 -0.186863
v 0.387961 0.970202 -0.187046
v 0.384218 0.961405 -0.186754
v 0.380475 0.952607 -0.186863
v 0.408475 0.966674 -0.187046
v 0.408475 0.957233 -0.186754
v 0.408475 0.947791 -0.186863
v 0.428989 0.970202 -0.187046
v 0.432732 0.961405 -0.186754
v 0.436475 0.952607 -0.186863
v 0.428989 1.066638 -0.187046
v 0.432732 1.075436 -0.186754
v 0.436475 1.084234 -0.186863
v 0.408475 1.070166 -0.187046
v 0.408475 1.079607 -0.186754
v 0.408475 1.089049 -0.186863
v 0.387961 1.066638 -0.187046
v 0.384218 1.075436 -0.186754
v 0.380475 1.084234 -0.186863
v 0.456536 0.997839 -0.187046
v 0.465305 0.994084 -0.186754
v 0.474074 0.990329 -0.186863
v 0.460053 1.018420 -0.187046
v 0.469464 1.018420 -0.186754
v 0.478875 1.018420 -0.186863
v 0.456536 1.039001 -0.187046
v 0.465305 1.042756 -0.186754
v 0.474074 1.046511 -0.186863
v 0.372315 1.002936 -0.172576
v 0.374695 1.003955 -0.155550
v 0.375572 1.004331 -0.134394
v 0.369669 1.018420 -0.172576
v 0.372224 1.018420 -0.155550
v 0.373165 1.018420 -0.134394
v 0.372315 1.033905 -0.172576
v 0.374695 1.032885 -0.155550
v 0.375572 1.032510 -0.134394
v 0.444635 1.033905 -0.172576
v 0.442254 1.032885 -0.155550
v 0.441378 1.032510 -0.134394
v 0.447281 1.018420 -0.172576
v 0.444726 1.018420 -0.155550
v 0.443785 1.018420 -0.134394
v 0.444635 1.002936 -0.172576
v 0.442254 1.003955 -0.155550
v 0.441378 1.004331 -0.134394
v 0.423909 0.982142 -0.172576
v 0.422893 0.984530 -0.155550
v 0.422519 0.985410 -0.134394
v 0.408475 0.979488 -0.172576
v 0.408475 0.982051 -0.155550
v 0.408475 0.982995 -0.134394
v 0.393041 0.982142 -0.172576
v 0.394057 0.984530 -0.155550
v 0.394431 0.985410 -0.134394
v -0.536982 2.125598 0.006553
v -0.536982 2.125598 -0.118705
v 0.540892 2.125598 0.006553
v 0.540892 2.125598 -0.118705
v -0.536982 0.149666 0.006553
v -0.536982 0.149666 -0.118705
v 0.540892 0.149666 -0.118705
v 0.540892 0.149666 0.006553
v -0.536982 0.149666 -0.147302
v -0.536982 0.000001 -0.147302
v 0.540892 0.000001 -0.147302
v 0.540892 0.149666 -0.147302
v 0.540892 0.149666 0.028156
v 0.540892 0.000001 0.028156
v -0.536982 0.000001 0.028156
v -0.536982 0.149666 0.028156
vn -0.7696 -0.2941 0.5668
vn -0.9753 -0.0000 0.2208
vn -0.9111 -0.3470 0.2226
vn -0.7696 0.2941 0.5668
vn -0.8145 -0.0000 0.5801
vn -0.9885 -0.0000 -0.1513
vn -0.9240 -0.3508 -0.1521
vn -0.9111 0.3470 0.2226
vn -0.4455 -0.4440 0.7774
vn -0.5969 -0.5952 0.5380
vn -0.5149 -0.0000 0.8572
vn -0.4975 -0.2221 0.8385
vn -0.4455 0.4440 0.7774
vn -0.4975 0.2221 0.8385
vn -0.5969 0.5952 0.5380
vn -0.6901 0.6882 0.2238
vn -0.9240 0.3508 -0.1521
vn -0.6631 0.6610 -0.3513
vn -0.8784 0.3303 -0.3455
vn -0.9400 -0.0000 -0.3411
vn -0.8784 -0.3303 -0.3455
vn -0.6631 -0.6610 -0.3513
vn -0.6997 -0.6978 -0.1531
vn -0.6901 -0.6882 0.2238
vn -0.0000 0.9568 -0.2908
vn -0.3537 0.9301 -0.0986
vn -0.3393 0.8934 -0.2944
vn 0.3537 0.9301 -0.0986
vn -0.0000 0.9952 -0.0974
vn -0.3555 0.9343 -0.0256
vn 0.3555 0.9343 -0.0256
vn -0.0000 0.9997 -0.0253
vn -0.3239 0.8465 -0.4226
vn -0.6757 0.6737 -0.2993
vn -0.6400 0.6384 -0.4277
vn -0.0000 0.9082 -0.4185
vn 0.3393 0.8934 -0.2944
vn 0.3239 0.8465 -0.4226
vn 0.6757 0.6737 -0.2993
vn 0.7046 0.7025 -0.1002
vn 0.7079 0.7058 -0.0260
vn 0.7081 0.7061 -0.0060
vn 0.3557 0.9346 -0.0059
vn -0.0000 1.0000 -0.0058
vn -0.3556 0.9346 -0.0059
vn -0.7081 0.7061 -0.0060
vn -0.7079 0.7058 -0.0260
vn -0.7046 0.7025 -0.1002
vn 0.9885 -0.0000 -0.1513
vn 0.9111 -0.3470 0.2226
vn 0.9240 -0.3508 -0.1521
vn 0.9111 0.3470 0.2226
vn 0.9753 -0.0000 0.2208
vn 0.7696 -0.2941 0.5668
vn 0.7696 0.2941 0.5668
vn 0.8145 -0.0000 0.5801
vn 0.6631 -0.6610 -0.3513
vn 0.6997 -0.6978 -0.1531
vn 0.8784 -0.3303 -0.3455
vn 0.8784 0.3303 -0.3455
vn 0.9400 -0.0000 -0.3411
vn 0.6631 0.6610 -0.3513
vn 0.9240 0.3508 -0.1521
vn 0.6901 0.6882 0.2238
vn 0.5969 0.5952 0.5380
vn 0.4455 0.4440 0.7774
vn 0.4975 0.2221 0.8385
vn 0.5149 -0.0000 0.8572
vn 0.4975 -0.2221 0.8385
vn 0.4455 -0.4440 0.7774
vn 0.5969 -0.5952 0.5380
vn 0.6901 -0.6882 0.2238
vn 0.2138 -0.2131 0.9534
vn -0.0000 -0.0000 1.0000
vn -0.0000 -0.2181 0.9759
vn 0.2138 0.2131 0.9534
vn 0.2188 -0.0000 0.9758
vn -0.2138 -0.2131 0.9534
vn -0.2138 0.2131 0.9534
vn -0.2188 -0.0000 0.9758
vn 0.2230 -0.4964 0.8390
vn 0.2230 0.4963 0.8390
vn -0.0000 0.2181 0.9759
vn -0.2230 0.4964 0.8390
vn -0.2230 -0.4963 0.8390
vn -0.0000 -0.5139 0.8579
vn -0.0000 -0.9884 -0.1517
vn -0.3487 -0.9103 0.2231
vn -0.3525 -0.9233 -0.1524
vn 0.3487 -0.9103 0.2231
vn -0.0000 -0.9752 0.2214
vn -0.2955 -0.7684 0.5676
vn 0.2955 -0.7684 0.5676
vn -0.0000 -0.8138 0.5812
vn -0.3321 -0.8774 -0.3462
vn 0.3321 -0.8774 -0.3462
vn -0.0000 -0.9397 -0.3421
vn 0.3525 -0.9233 -0.1524
vn -0.0000 0.9884 -0.1517
vn 0.3487 0.9103 0.2231
vn 0.3525 0.9233 -0.1524
vn -0.3487 0.9103 0.2231
vn -0.0000 0.9752 0.2214
vn 0.2955 0.7684 0.5676
vn -0.2955 0.7684 0.5676
vn -0.0000 0.8138 0.5812
vn 0.6997 0.6978 -0.1531
vn 0.3321 0.8774 -0.3462
vn -0.3321 0.8774 -0.3462
vn -0.0000 0.9397 -0.3421
vn -0.3525 0.9233 -0.1524
vn -0.0000 0.5139 0.8579
vn -0.1605 0.0617 -0.9851
vn 0.0074 -0.0000 -1.0000
vn 0.0065 -0.0026 -1.0000
vn -0.1605 -0.0617 -0.9851
vn -0.1772 -0.0000 -0.9842
vn -0.0116 -0.0000 -0.9999
vn -0.0107 0.0041 -0.9999
vn 0.0065 0.0026 -1.0000
vn -0.2923 0.2911 -0.9109
vn -0.1162 0.1160 -0.9864
vn -0.3923 0.1458 -0.9082
vn -0.3923 -0.1458 -0.9082
vn -0.4228 -0.0000 -0.9062
vn -0.2923 -0.2911 -0.9109
vn -0.1162 -0.1160 -0.9864
vn 0.0045 0.0045 -1.0000
vn -0.0107 -0.0041 -0.9999
vn -0.3656 -0.3642 -0.8566
vn -0.4879 -0.1867 -0.8527
vn -0.4898 -0.1823 -0.8526
vn -0.5273 -0.0000 -0.8497
vn -0.4898 0.1823 -0.8526
vn -0.4879 0.1867 -0.8527
vn -0.3656 0.3642 -0.8566
vn -0.3653 0.3645 -0.8566
vn 0.0045 -0.0045 -1.0000
vn -0.0079 0.0079 -0.9999
vn -0.0617 -0.1600 -0.9852
vn -0.0000 0.0074 -1.0000
vn 0.0026 0.0065 -1.0000
vn 0.0617 -0.1600 -0.9852
vn -0.0000 -0.1766 -0.9843
vn -0.0000 -0.0115 -0.9999
vn -0.0041 -0.0106 -0.9999
vn -0.0026 0.0065 -1.0000
vn -0.1465 -0.3911 -0.9086
vn 0.1465 -0.3911 -0.9086
vn -0.0000 -0.4216 -0.9068
vn 0.2923 -0.2911 -0.9109
vn 0.1162 -0.1160 -0.9864
vn -0.0045 0.0045 -1.0000
vn 0.0041 -0.0106 -0.9999
vn 0.3656 -0.3642 -0.8566
vn 0.1872 -0.4868 -0.8532
vn 0.1832 -0.4884 -0.8532
vn -0.0000 -0.5261 -0.8504
vn -0.1832 -0.4884 -0.8532
vn -0.1872 -0.4868 -0.8532
vn -0.3653 -0.3645 -0.8566
vn -0.0079 -0.0079 -0.9999
vn 0.0617 0.1600 -0.9852
vn -0.0000 -0.0074 -1.0000
vn -0.0026 -0.0065 -1.0000
vn -0.0617 0.1600 -0.9852
vn -0.0000 0.1766 -0.9843
vn -0.0000 0.0115 -0.9999
vn 0.0041 0.0106 -0.9999
vn 0.0026 -0.0065 -1.0000
vn 0.2923 0.2911 -0.9109
vn 0.1162 0.1160 -0.9864
vn 0.1465 0.3911 -0.9086
vn -0.1465 0.3911 -0.9086
vn -0.0000 0.4216 -0.9068
vn -0.0041 0.0106 -0.9999
vn -0.1872 0.4868 -0.8532
vn -0.1832 0.4884 -0.8532
vn -0.0000 0.5261 -0.8504
vn 0.1832 0.4884 -0.8532
vn 0.1872 0.4868 -0.8532
vn 0.3656 0.3642 -0.8566
vn 0.3653 0.3645 -0.8566
vn -0.0045 -0.0045 -1.0000
vn 0.0079 0.0079 -0.9999
vn 0.1605 -0.0617 -0.9851
vn -0.0074 -0.0000 -1.0000
vn -0.0065 0.0026 -1.0000
vn 0.1605 0.0617 -0.9851
vn 0.1772 -0.0000 -0.9842
vn 0.0116 -0.0000 -0.9999
vn 0.0107 -0.0041 -0.9999
vn -0.0065 -0.0026 -1.0000
vn 0.3923 -0.1458 -0.9082
vn 0.3923 0.1458 -0.9082
vn 0.4228 -0.0000 -0.9062
vn 0.0107 0.0041 -0.9999
vn 0.4879 0.1867 -0.8527
vn 0.4898 0.1823 -0.8526
vn 0.5273 -0.0000 -0.8497
vn 0.4898 -0.1823 -0.8526
vn 0.4879 -0.1867 -0.8527
vn 0.3653 -0.3645 -0.8566
vn 0.0079 -0.0079 -0.9999
vn -0.9571 -0.0000 -0.2899
vn -0.9309 -0.3518 -0.0984
vn -0.8943 -0.3375 -0.2938
vn -0.9309 0.3518 -0.0984
vn -0.9953 -0.0000 -0.0971
vn -0.9351 -0.3536 -0.0255
vn -0.9351 0.3536 -0.0255
vn -0.9997 -0.0000 -0.0252
vn -0.8474 -0.3225 -0.4217
vn -0.6757 -0.6737 -0.2993
vn -0.6400 -0.6384 -0.4277
vn -0.9087 -0.0000 -0.4173
vn -0.8943 0.3375 -0.2938
vn -0.8474 0.3225 -0.4217
vn -0.9353 0.3538 -0.0059
vn -1.0000 -0.0000 -0.0058
vn -0.9353 -0.3538 -0.0059
vn -0.7081 -0.7061 -0.0060
vn -0.7079 -0.7058 -0.0260
vn -0.7046 -0.7025 -0.1002
vn 0.9571 -0.0000 -0.2899
vn 0.9309 0.3518 -0.0984
vn 0.8943 0.3375 -0.2938
vn 0.9309 -0.3518 -0.0984
vn 0.9953 -0.0000 -0.0971
vn 0.9351 0.3536 -0.0255
vn 0.9351 -0.3536 -0.0255
vn 0.9997 -0.0000 -0.0252
vn 0.8474 0.3225 -0.4217
vn 0.6400 0.6384 -0.4277
vn 0.9088 -0.0000 -0.4173
vn 0.8943 -0.3375 -0.2938
vn 0.8474 -0.3225 -0.4217
vn 0.6757 -0.6737 -0.2993
vn 0.7046 -0.7025 -0.1002
vn 0.7079 -0.7058 -0.0260
vn 0.7081 -0.7061 -0.0060
vn 0.9353 -0.3538 -0.0059
vn 1.0000 -0.0000 -0.0058
vn 0.9353 0.3538 -0.0059
vn -0.0000 -0.9568 -0.2908
vn 0.3537 -0.9301 -0.0986
vn 0.3393 -0.8934 -0.2944
vn -0.3537 -0.9301 -0.0986
vn -0.0000 -0.9952 -0.0974
vn 0.3555 -0.9343 -0.0256
vn -0.3555 -0.9343 -0.0256
vn -0.0000 -0.9997 -0.0253
vn 0.3239 -0.8465 -0.4226
vn 0.6400 -0.6384 -0.4277
vn -0.0000 -0.9082 -0.4185
vn -0.3393 -0.8934 -0.2944
vn -0.3239 -0.8465 -0.4226
vn -0.3556 -0.9346 -0.0059
vn -0.0000 -1.0000 -0.0058
vn 0.3557 -0.9346 -0.0059
vn -0.7696 -0.2941 -0.5668
vn -0.9753 -0.0000 -0.2208
vn -0.8145 -0.0000 -0.5801
vn -0.9111 -0.3470 -0.2226
vn -0.9885 -0.0000 0.1513
vn -0.7696 0.2941 -0.5668
vn -0.9111 0.3470 -0.2226
vn -0.4455 -0.4440 -0.7774
vn -0.4975 -0.2221 -0.8385
vn -0.5969 -0.5952 -0.5380
vn -0.6901 -0.6882 -0.2238
vn -0.9240 -0.3508 0.1521
vn -0.6631 -0.6610 0.3513
vn -0.6997 -0.6978 0.1531
vn -0.8784 -0.3303 0.3455
vn -0.8784 0.3303 0.3455
vn -0.9240 0.3508 0.1521
vn -0.6631 0.6610 0.3513
vn -0.6997 0.6978 0.1531
vn -0.6901 0.6882 -0.2238
vn -0.5969 0.5952 -0.5380
vn -0.4455 0.4440 -0.7774
vn -0.4975 0.2221 -0.8385
vn -0.5149 -0.0000 -0.8572
vn -0.3537 0.9302 0.0986
vn -0.0000 0.9568 0.2908
vn -0.3393 0.8934 0.2944
vn -0.3555 0.9343 0.0256
vn -0.0000 0.9952 0.0974
vn 0.3537 0.9301 0.0986
vn 0.3393 0.8934 0.2944
vn 0.3555 0.9343 0.0256
vn -0.6757 0.6737 0.2993
vn -0.3239 0.8465 0.4226
vn -0.6400 0.6384 0.4277
vn -0.7046 0.7025 0.1002
vn -0.7079 0.7058 0.0260
vn -0.7081 0.7061 0.0060
vn -0.3556 0.9346 0.0059
vn -0.0000 0.9997 0.0253
vn 0.3556 0.9346 0.0059
vn 0.7081 0.7061 0.0060
vn 0.7079 0.7058 0.0260
vn 0.7046 0.7025 0.1002
vn 0.6757 0.6737 0.2993
vn 0.3239 0.8465 0.4226
vn 0.6400 0.6384 0.4277
vn -0.0000 0.9082 0.4185
vn 0.9111 -0.3470 -0.2226
vn 0.9885 -0.0000 0.1513
vn 0.9240 -0.3508 0.1521
vn 0.7696 -0.2941 -0.5668
vn 0.9753 -0.0000 -0.2208
vn 0.9111 0.3470 -0.2226
vn 0.9240 0.3508 0.1521
vn 0.7696 0.2941 -0.5668
vn 0.6631 -0.6610 0.3513
vn 0.8784 -0.3303 0.3455
vn 0.6901 -0.6882 -0.2238
vn 0.6997 -0.6978 0.1531
vn 0.5969 -0.5952 -0.5380
vn 0.4455 -0.4440 -0.7774
vn 0.5149 -0.0000 -0.8572
vn 0.8145 -0.0000 -0.5801
vn 0.4455 0.4440 -0.7774
vn 0.5969 0.5952 -0.5380
vn 0.6901 0.6882 -0.2238
vn 0.6997 0.6978 0.1531
vn 0.6631 0.6610 0.3513
vn 0.8784 0.3303 0.3455
vn 0.9400 -0.0000 0.3411
vn 0.2138 -0.2131 -0.9534
vn -0.0000 -0.0000 -1.0000
vn 0.2188 -0.0000 -0.9758
vn -0.2138 -0.2131 -0.9534
vn -0.0000 -0.2181 -0.9759
vn 0.2138 0.2131 -0.9534
vn -0.2138 0.2131 -0.9534
vn -0.0000 0.2181 -0.9759
vn 0.4975 -0.2221 -0.8385
vn 0.2230 -0.4964 -0.8390
vn -0.2230 -0.4964 -0.8390
vn -0.0000 -0.5139 -0.8579
vn -0.2188 -0.0000 -0.9758
vn -0.2230 0.4963 -0.8390
vn -0.0000 0.5139 -0.8579
vn 0.2230 0.4963 -0.8390
vn 0.4975 0.2221 -0.8385
vn -0.3487 -0.9103 -0.2231
vn -0.0000 -0.9884 0.1517
vn -0.3525 -0.9233 0.1524
vn -0.2955 -0.7684 -0.5676
vn -0.0000 -0.9752 -0.2214
vn 0.3487 -0.9103 -0.2231
vn 0.3525 -0.9233 0.1524
vn 0.2955 -0.7684 -0.5676
vn -0.3321 -0.8774 0.3462
vn -0.0000 -0.8138 -0.5812
vn 0.3321 -0.8774 0.3462
vn -0.0000 -0.9397 0.3421
vn 0.3487 0.9103 -0.2231
vn -0.0000 0.9884 0.1517
vn 0.3525 0.9233 0.1524
vn 0.2955 0.7684 -0.5676
vn -0.0000 0.9752 -0.2214
vn -0.3487 0.9103 -0.2231
vn -0.3525 0.9233 0.1524
vn -0.2955 0.7684 -0.5676
vn 0.3321 0.8774 0.3462
vn -0.0000 0.8138 -0.5812
vn -0.3321 0.8774 0.3462
vn -0.0000 0.9397 0.3421
vn -0.1605 0.0617 0.9851
vn 0.0074 -0.0000 1.0000
vn -0.1772 -0.0000 0.9842
vn 0.0065 -0.0026 1.0000
vn -0.0116 -0.0000 0.9999
vn -0.1605 -0.0617 0.9851
vn 0.0065 0.0026 1.0000
vn -0.2923 0.2911 0.9109
vn -0.3923 0.1458 0.9082
vn -0.1162 0.1160 0.9864
vn 0.0045 -0.0045 1.0000
vn -0.0107 0.0041 0.9999
vn -0.3656 0.3642 0.8566
vn -0.4879 0.1867 0.8527
vn -0.4898 0.1823 0.8526
vn -0.5273 -0.0000 0.8497
vn -0.4898 -0.1823 0.8526
vn -0.4879 -0.1867 0.8527
vn -0.3656 -0.3642 0.8566
vn -0.0106 -0.0041 0.9999
vn 0.0045 0.0045 1.0000
vn -0.1162 -0.1160 0.9864
vn -0.2923 -0.2911 0.9109
vn -0.3923 -0.1458 0.9082
vn -0.4228 -0.0000 0.9062
vn -0.0617 -0.1600 0.9852
vn -0.0000 0.0074 1.0000
vn -0.0000 -0.1766 0.9843
vn 0.0026 0.0065 1.0000
vn -0.0000 -0.0115 0.9999
vn 0.0617 -0.1600 0.9852
vn -0.0026 0.0065 1.0000
vn -0.1465 -0.3911 0.9086
vn -0.0041 -0.0106 0.9999
vn -0.1872 -0.4868 0.8532
vn -0.1832 -0.4884 0.8532
vn -0.0000 -0.5261 0.8504
vn 0.1832 -0.4884 0.8532
vn 0.1872 -0.4868 0.8532
vn 0.3656 -0.3642 0.8566
vn 0.0041 -0.0106 0.9999
vn -0.0045 0.0045 1.0000
vn 0.1162 -0.1160 0.9864
vn 0.2923 -0.2911 0.9109
vn 0.1465 -0.3911 0.9086
vn -0.0000 -0.4216 0.9068
vn 0.0617 0.1600 0.9852
vn -0.0000 -0.0074 1.0000
vn -0.0000 0.1766 0.9843
vn -0.0026 -0.0065 1.0000
vn -0.0000 0.0115 0.9999
vn -0.0617 0.1600 0.9852
vn 0.0026 -0.0065 1.0000
vn 0.2923 0.2911 0.9109
vn 0.1465 0.3911 0.9086
vn 0.1162 0.1160 0.9864
vn -0.0045 -0.0045 1.0000
vn 0.0041 0.0106 0.9999
vn 0.3656 0.3642 0.8566
vn 0.1872 0.4868 0.8532
vn 0.1832 0.4884 0.8532
vn -0.0000 0.5261 0.8504
vn -0.1832 0.4884 0.8532
vn -0.1872 0.4868 0.8532
vn -0.0041 0.0106 0.9999
vn -0.1465 0.3911 0.9086
vn -0.0000 0.4216 0.9068
vn 0.1605 -0.0617 0.9851
vn -0.0074 -0.0000 1.0000
vn 0.1772 -0.0000 0.9842
vn -0.0065 0.0026 1.0000
vn 0.0116 -0.0000 0.9999
vn 0.1605 0.0617 0.9851
vn -0.0065 -0.0026 1.0000
vn 0.3923 -0.1458 0.9082
vn 0.0107 -0.0041 0.9999
vn 0.4879 -0.1867 0.8527
vn 0.4898 -0.1823 0.8526
vn 0.5273 -0.0000 0.8497
vn 0.4898 0.1823 0.8526
vn 0.4879 0.1867 0.8527
vn 0.0106 0.0041 0.9999
vn 0.3923 0.1458 0.9082
vn 0.4228 -0.0000 0.9062
vn -0.9309 -0.3518 0.0984
vn -0.9571 -0.0000 0.2899
vn -0.8943 -0.3375 0.2938
vn -0.9351 -0.3536 0.0255
vn -0.9953 -0.0000 0.0971
vn -0.9309 0.3518 0.0984
vn -0.8943 0.3375 0.2938
vn -0.9351 0.3536 0.0255
vn -0.6757 -0.6737 0.2993
vn -0.8474 -0.3225 0.4217
vn -0.6400 -0.6384 0.4277
vn -0.7046 -0.7025 0.1002
vn -0.7079 -0.7058 0.0260
vn -0.7081 -0.7061 0.0060
vn -0.9353 -0.3538 0.0059
vn -0.9997 -0.0000 0.0252
vn -0.9353 0.3538 0.0059
vn -0.8474 0.3225 0.4217
vn -0.9087 -0.0000 0.4173
vn 0.9309 0.3518 0.0984
vn 0.9571 -0.0000 0.2899
vn 0.8943 0.3375 0.2938
vn 0.9351 0.3536 0.0255
vn 0.9953 -0.0000 0.0971
vn 0.9309 -0.3518 0.0984
vn 0.8943 -0.3375 0.2938
vn 0.9351 -0.3536 0.0255
vn 0.8474 0.3225 0.4217
vn 0.9353 0.3538 0.0059
vn 0.9997 -0.0000 0.0252
vn 0.9353 -0.3538 0.0059
vn 0.7081 -0.7061 0.0060
vn 0.7079 -0.7058 0.0260
vn 0.7046 -0.7025 0.1002
vn 0.6757 -0.6737 0.2993
vn 0.8474 -0.3225 0.4217
vn 0.6400 -0.6384 0.4277
vn 0.9088 -0.0000 0.4173
vn 0.3537 -0.9301 0.0986
vn -0.0000 -0.9568 0.2908
vn 0.3393 -0.8934 0.2944
vn 0.3555 -0.9343 0.0256
vn -0.0000 -0.9952 0.0974
vn -0.3537 -0.9301 0.0986
vn -0.3393 -0.8934 0.2944
vn -0.3555 -0.9343 0.0256
vn 0.3239 -0.8465 0.4226
vn 0.3556 -0.9346 0.0059
vn -0.0000 -0.9997 0.0253
vn -0.3556 -0.9346 0.0059
vn -0.3239 -0.8465 0.4226
vn -0.0000 -0.9082 0.4185
vn -1.0000 -0.0000 -0.0000
vn 1.0000 -0.0000 -0.0000
vn -0.0000 -1.0000 -0.0000
vn -0.0000 1.0000 -0.0000
vn -0.6997 0.6978 -0.1531
vn -0.9400 -0.0000 0.3411
vn -0.0000 1.0000 0.0058
vn -0.0079 0.0079 0.9999
vn -0.3653 0.3645 0.8566
vn -0.3653 -0.3645 0.8566
vn -0.0079 -0.0079 0.9999
vn 0.3653 -0.3645 0.8566
vn 0.0079 -0.0079 0.9999
vn 0.0079 0.0079 0.9999
vn 0.3653 0.3645 0.8566
vn -1.0000 -0.0000 0.0058
vn 1.0000 -0.0000 0.0058
vn -0.0000 -1.0000 0.0058
vt 0.782853 0.311528
vt 0.802949 0.330859
vt 0.782853 0.331121
vt 0.823045 0.311528
vt 0.802949 0.311495
vt 0.802949 0.348812
vt 0.782975 0.349675
vt 0.823045 0.331121
vt 0.762757 0.291504
vt 0.762757 0.311600
vt 0.802949 0.291504
vt 0.782853 0.291504
vt 0.843141 0.291504
vt 0.823045 0.291504
vt 0.843141 0.311600
vt 0.843141 0.331696
vt 0.822922 0.349675
vt 0.843140 0.371888
vt 0.821726 0.365646
vt 0.802949 0.363943
vt 0.784172 0.365646
vt 0.762757 0.371888
vt 0.762757 0.351792
vt 0.762757 0.331696
vt 0.822637 0.412080
vt 0.820827 0.404244
vt 0.821314 0.404215
vt 0.820827 0.419915
vt 0.821966 0.412080
vt 0.821469 0.403496
vt 0.821469 0.420663
vt 0.822219 0.412080
vt 0.822922 0.403554
vt 0.817312 0.397716
vt 0.818538 0.396490
vt 0.824384 0.412080
vt 0.821315 0.419944
vt 0.822922 0.420605
vt 0.817312 0.426443
vt 0.817133 0.426264
vt 0.818348 0.427479
vt 0.822971 0.432102
vt 0.822971 0.422091
vt 0.822971 0.412080
vt 0.822971 0.402068
vt 0.822971 0.392057
vt 0.818348 0.396680
vt 0.817133 0.397895
vt 0.802949 0.475347
vt 0.782853 0.493064
vt 0.782975 0.474540
vt 0.823044 0.493064
vt 0.802949 0.493300
vt 0.782853 0.512634
vt 0.823045 0.512634
vt 0.802949 0.512664
vt 0.762757 0.452271
vt 0.762787 0.472981
vt 0.784172 0.458526
vt 0.821726 0.458526
vt 0.802949 0.460216
vt 0.843140 0.452271
vt 0.822922 0.474540
vt 0.843140 0.492672
vt 0.843141 0.512585
vt 0.843140 0.532655
vt 0.823045 0.532655
vt 0.802949 0.532655
vt 0.782853 0.532655
vt 0.762757 0.532655
vt 0.762757 0.512585
vt 0.762757 0.492672
vt 0.782853 0.552751
vt 0.802949 0.572847
vt 0.782853 0.572847
vt 0.823045 0.552751
vt 0.802949 0.552751
vt 0.782853 0.592943
vt 0.823045 0.592943
vt 0.802949 0.592943
vt 0.762757 0.552751
vt 0.843141 0.552751
vt 0.823045 0.572847
vt 0.843141 0.592943
vt 0.843141 0.613039
vt 0.823045 0.613039
vt 0.802949 0.613039
vt 0.782853 0.613039
vt 0.762757 0.613039
vt 0.762757 0.592943
vt 0.762757 0.572847
vt 0.722565 0.472367
vt 0.702469 0.492463
vt 0.702469 0.472367
vt 0.742661 0.492489
vt 0.722565 0.492463
vt 0.702469 0.512559
vt 0.742661 0.512562
vt 0.722565 0.512559
vt 0.682373 0.452271
vt 0.682373 0.472367
vt 0.702469 0.452271
vt 0.742661 0.452271
vt 0.722565 0.452271
vt 0.742661 0.472423
vt 0.742661 0.532655
vt 0.722565 0.532655
vt 0.702469 0.532655
vt 0.682373 0.532655
vt 0.682373 0.512559
vt 0.682373 0.492463
vt 0.883332 0.472367
vt 0.863236 0.492489
vt 0.863236 0.472423
vt 0.903428 0.492463
vt 0.883332 0.492463
vt 0.863236 0.512562
vt 0.903428 0.512559
vt 0.883332 0.512559
vt 0.843110 0.472981
vt 0.863236 0.452271
vt 0.903428 0.452271
vt 0.883332 0.452271
vt 0.923524 0.452271
vt 0.903428 0.472367
vt 0.923524 0.492463
vt 0.923524 0.512559
vt 0.923524 0.532655
vt 0.903428 0.532655
vt 0.883332 0.532655
vt 0.863236 0.532655
vt 0.812700 0.389279
vt 0.802949 0.382702
vt 0.814846 0.384566
vt 0.793198 0.389279
vt 0.802949 0.387629
vt 0.802949 0.375087
vt 0.818199 0.377082
vt 0.791051 0.384566
vt 0.820743 0.394259
vt 0.811474 0.392106
vt 0.794423 0.392106
vt 0.802949 0.390644
vt 0.787359 0.396490
vt 0.785154 0.394259
vt 0.781481 0.390402
vt 0.787699 0.377082
vt 0.775464 0.383950
vt 0.830433 0.383950
vt 0.824417 0.390402
vt 0.780223 0.402325
vt 0.774407 0.412080
vt 0.776036 0.400156
vt 0.780223 0.421834
vt 0.778603 0.412080
vt 0.768936 0.412080
vt 0.770124 0.396652
vt 0.776036 0.424003
vt 0.782975 0.403554
vt 0.782975 0.420605
vt 0.781513 0.412080
vt 0.787359 0.427669
vt 0.785154 0.429900
vt 0.781481 0.433757
vt 0.770124 0.427507
vt 0.775464 0.440209
vt 0.762757 0.432175
vt 0.762757 0.412080
vt 0.762757 0.391984
vt 0.825674 0.421834
vt 0.831490 0.412080
vt 0.829861 0.424003
vt 0.825674 0.402325
vt 0.827294 0.412080
vt 0.836962 0.412080
vt 0.835773 0.427507
vt 0.829861 0.400156
vt 0.818538 0.427669
vt 0.820743 0.429900
vt 0.835773 0.396652
vt 0.843141 0.391984
vt 0.843141 0.412080
vt 0.843141 0.432175
vt 0.830433 0.440209
vt 0.824417 0.433757
vt 0.793198 0.434880
vt 0.802949 0.441457
vt 0.791051 0.439593
vt 0.812700 0.434880
vt 0.802949 0.436530
vt 0.802949 0.449072
vt 0.787699 0.447077
vt 0.814846 0.439593
vt 0.794423 0.432053
vt 0.811474 0.432053
vt 0.802949 0.433515
vt 0.818199 0.447077
vt 0.802949 0.392391
vt 0.795113 0.394201
vt 0.795084 0.393714
vt 0.810784 0.394201
vt 0.802949 0.393062
vt 0.794365 0.393559
vt 0.811532 0.393559
vt 0.802949 0.392809
vt 0.788585 0.397716
vt 0.810813 0.393714
vt 0.812960 0.392057
vt 0.802949 0.392057
vt 0.792938 0.392057
vt 0.782926 0.392057
vt 0.787549 0.396680
vt 0.788764 0.397895
vt 0.802949 0.431768
vt 0.810784 0.429958
vt 0.810813 0.430445
vt 0.795113 0.429958
vt 0.802949 0.431097
vt 0.811532 0.430600
vt 0.794365 0.430600
vt 0.802949 0.431350
vt 0.795084 0.430445
vt 0.788585 0.426443
vt 0.788764 0.426264
vt 0.787549 0.427479
vt 0.782926 0.432102
vt 0.792938 0.432102
vt 0.802949 0.432102
vt 0.812960 0.432102
vt 0.783260 0.412080
vt 0.785070 0.419915
vt 0.784583 0.419944
vt 0.785070 0.404244
vt 0.783932 0.412080
vt 0.784428 0.420663
vt 0.784428 0.403496
vt 0.783678 0.412079
vt 0.784583 0.404215
vt 0.782926 0.402068
vt 0.782926 0.412080
vt 0.782926 0.422091
vt 0.782853 0.311528
vt 0.802949 0.348812
vt 0.823045 0.311528
vt 0.823045 0.331121
vt 0.821726 0.365646
vt 0.822922 0.349675
vt 0.843141 0.351792
vt 0.820885 0.404015
vt 0.822206 0.412079
vt 0.821476 0.403468
vt 0.821859 0.412080
vt 0.820885 0.420144
vt 0.821476 0.420692
vt 0.821476 0.420692
vt 0.818383 0.396646
vt 0.817409 0.397619
vt 0.818382 0.396646
vt 0.822206 0.412079
vt 0.818382 0.427513
vt 0.817409 0.426540
vt 0.818383 0.427513
vt 0.782853 0.493064
vt 0.802949 0.475347
vt 0.782975 0.474540
vt 0.823045 0.493064
vt 0.822922 0.474540
vt 0.823044 0.512634
vt 0.784172 0.458526
vt 0.762757 0.492672
vt 0.802949 0.532655
vt 0.802949 0.512664
vt 0.843140 0.492672
vt 0.843110 0.472981
vt 0.821726 0.458526
vt 0.802949 0.460216
vt 0.802949 0.572847
vt 0.802949 0.552751
vt 0.782853 0.592943
vt 0.782853 0.572847
vt 0.823045 0.552751
vt 0.823044 0.592943
vt 0.823045 0.572847
vt 0.782853 0.532655
vt 0.843141 0.572847
vt 0.702469 0.492463
vt 0.722565 0.472367
vt 0.702469 0.512559
vt 0.742661 0.492489
vt 0.742661 0.472423
vt 0.742661 0.512562
vt 0.722565 0.512559
vt 0.863236 0.492489
vt 0.883332 0.472367
vt 0.863236 0.472423
vt 0.863236 0.512562
vt 0.883332 0.492463
vt 0.903428 0.492463
vt 0.903428 0.472367
vt 0.883332 0.512559
vt 0.923524 0.472367
vt 0.813447 0.389117
vt 0.802949 0.382809
vt 0.802949 0.388060
vt 0.815075 0.384508
vt 0.802949 0.375101
vt 0.792450 0.389117
vt 0.790822 0.384508
vt 0.821814 0.393188
vt 0.824693 0.390126
vt 0.818227 0.377075
vt 0.830468 0.383916
vt 0.802949 0.363943
vt 0.787670 0.377075
vt 0.775430 0.383916
vt 0.781205 0.390126
vt 0.784083 0.393188
vt 0.780061 0.401578
vt 0.774514 0.412080
vt 0.779034 0.412080
vt 0.775978 0.399927
vt 0.768949 0.412080
vt 0.780061 0.422581
vt 0.775978 0.424232
vt 0.782926 0.402068
vt 0.770117 0.396623
vt 0.770117 0.427536
vt 0.775430 0.440243
vt 0.781205 0.434033
vt 0.784083 0.430971
vt 0.825836 0.422581
vt 0.831383 0.412080
vt 0.826863 0.412080
vt 0.829920 0.424232
vt 0.836948 0.412080
vt 0.825836 0.401578
vt 0.829920 0.399927
vt 0.821814 0.430971
vt 0.824693 0.434033
vt 0.835780 0.427536
vt 0.830468 0.440243
vt 0.835780 0.396623
vt 0.792450 0.435042
vt 0.802949 0.441350
vt 0.802949 0.436099
vt 0.790822 0.439652
vt 0.802949 0.449058
vt 0.813447 0.435042
vt 0.815075 0.439652
vt 0.787670 0.447084
vt 0.818227 0.447084
vt 0.794884 0.394143
vt 0.802949 0.392822
vt 0.794337 0.393552
vt 0.794337 0.393552
vt 0.802949 0.393170
vt 0.811013 0.394143
vt 0.811561 0.393552
vt 0.787515 0.396646
vt 0.788488 0.397619
vt 0.787515 0.396646
vt 0.802949 0.392822
vt 0.811013 0.430016
vt 0.802949 0.431337
vt 0.811561 0.430607
vt 0.811561 0.430607
vt 0.802949 0.430989
vt 0.794884 0.430016
vt 0.794337 0.430607
vt 0.794337 0.430607
vt 0.787515 0.427513
vt 0.788488 0.426540
vt 0.787515 0.427513
vt 0.785012 0.420144
vt 0.783691 0.412079
vt 0.784421 0.420692
vt 0.784039 0.412080
vt 0.785012 0.404015
vt 0.784421 0.403468
vt 0.784421 0.403468
vt 0.625000 0.000000
vt 0.403830 0.250000
vt 0.403830 0.000000
vt 0.625000 0.250000
vt 0.403830 0.500000
vt 0.625000 0.500000
vt 0.403830 0.750000
vt 0.625000 0.750000
vt 0.403830 1.000000
vt 0.375000 0.500000
vt 0.125000 0.750000
vt 0.125000 0.500000
vt 0.875000 0.500000
vt 0.375000 0.750000
vt 0.375000 0.000000
vt 0.375000 0.250000
vt 0.375000 1.000000
vt 0.625000 1.000000
vt 0.875000 0.750000
s 1
usemtl Door02
f 201/1/1 205/2/2 204/3/3
f 203/4/4 205/2/2 202/5/5
f 204/3/3 208/6/6 207/7/7
f 206/8/8 208/6/6 205/2/2
f 1/9/9 201/1/1 35/10/10
f 37/11/11 201/1/1 36/12/12
f 37/11/11 203/4/4 202/5/5
f 2/13/13 203/4/4 38/14/14
f 39/15/15 206/8/8 203/4/4
f 40/16/16 209/17/17 206/8/8
f 209/17/17 9/18/18 42/19/19
f 208/6/6 42/19/19 43/20/20
f 208/6/6 44/21/21 207/7/7
f 207/7/7 10/22/22 33/23/23
f 34/24/24 207/7/7 33/23/23
f 35/10/10 204/3/3 34/24/24
f 211/25/25 213/26/26 210/27/27
f 211/25/25 215/28/28 214/29/29
f 214/29/29 216/30/30 213/26/26
f 214/29/29 218/31/31 217/32/32
f 75/33/33 110/34/34 4/35/35
f 76/36/36 210/27/27 75/33/33
f 76/36/36 212/37/37 211/25/25
f 77/38/38 105/39/39 212/37/37
f 212/37/37 106/40/40 215/28/28
f 215/28/28 107/41/41 218/31/31
f 218/31/31 16/42/42 101/43/43
f 217/32/32 101/43/43 100/44/44
f 217/32/32 99/45/45 216/30/30
f 216/30/30 13/46/46 108/47/47
f 213/26/26 108/47/47 109/48/48
f 210/27/27 109/48/48 110/34/34
f 220/49/49 222/50/50 219/51/51
f 220/49/49 224/52/52 223/53/53
f 223/53/53 225/54/54 222/50/50
f 223/53/53 227/55/55 226/56/56
f 11/57/57 219/51/51 56/58/58
f 53/59/59 220/49/49 219/51/51
f 51/60/60 220/49/49 52/61/61
f 12/62/62 221/63/63 51/60/60
f 221/63/63 58/64/64 224/52/52
f 224/52/52 59/65/65 227/55/55
f 227/55/55 6/66/66 60/67/67
f 227/55/55 61/68/68 226/56/56
f 225/54/54 61/68/68 62/69/69
f 225/54/54 5/70/70 54/71/71
f 222/50/50 54/71/71 55/72/72
f 219/51/51 55/72/72 56/58/58
f 228/73/73 232/74/74 231/75/75
f 230/76/76 232/74/74 229/77/77
f 232/74/74 234/78/78 231/75/75
f 232/74/74 236/79/79 235/80/80
f 5/70/70 228/73/73 65/81/81
f 62/69/69 229/77/77 228/73/73
f 60/67/67 229/77/77 61/68/68
f 6/66/66 230/76/76 60/67/67
f 66/82/82 233/83/83 230/76/76
f 233/83/83 68/84/84 236/79/79
f 236/79/79 2/85/13 38/86/14
f 235/80/80 38/86/14 37/87/11
f 235/80/80 36/88/12 234/78/78
f 234/78/78 1/89/9 63/90/85
f 231/75/75 63/90/85 64/91/86
f 65/81/81 231/75/75 64/91/86
f 238/92/87 240/93/88 237/94/89
f 238/92/87 242/95/90 241/96/91
f 241/96/91 243/97/92 240/93/88
f 241/96/91 245/98/93 244/99/94
f 10/100/22 237/94/89 33/101/23
f 47/102/95 238/92/87 237/94/89
f 45/103/96 238/92/87 46/104/97
f 11/57/57 239/105/98 45/103/96
f 239/105/98 55/72/72 242/95/90
f 242/95/90 54/71/71 245/98/93
f 245/98/93 5/70/70 65/106/81
f 245/98/93 64/107/86 244/99/94
f 243/97/92 64/107/86 63/108/85
f 243/97/92 1/109/9 35/110/10
f 240/93/88 35/110/10 34/111/24
f 237/94/89 34/111/24 33/101/23
f 247/112/99 249/113/100 246/114/101
f 247/112/99 251/115/102 250/116/103
f 250/116/103 252/117/104 249/113/100
f 250/116/103 254/118/105 253/119/106
f 12/62/62 246/114/101 57/120/107
f 50/121/108 247/112/99 246/114/101
f 48/122/109 247/112/99 49/123/110
f 9/124/18 248/125/111 48/122/109
f 248/125/111 40/126/16 251/115/102
f 251/115/102 39/127/15 254/118/105
f 254/118/105 2/128/13 68/129/84
f 254/118/105 67/130/112 253/119/106
f 252/117/104 67/130/112 66/131/82
f 252/117/104 6/66/66 59/65/65
f 249/113/100 59/65/65 58/64/64
f 246/114/101 58/64/64 57/120/107
f 255/132/113 259/133/114 258/134/115
f 257/135/116 259/133/114 256/136/117
f 258/134/115 262/137/118 261/138/119
f 260/139/120 262/137/118 259/133/114
f 4/35/121 255/132/113 83/140/122
f 69/141/123 256/136/117 255/132/113
f 71/142/124 256/136/117 70/143/125
f 3/144/126 257/135/116 71/142/124
f 84/145/127 260/139/120 257/135/116
f 85/146/128 263/147/129 260/139/120
f 86/148/130 44/21/131 263/147/132
f 263/147/132 43/20/133 262/137/133
f 261/138/134 43/20/133 42/19/135
f 81/149/136 42/19/135 9/18/137
f 82/150/138 261/138/119 81/149/139
f 83/140/122 258/134/115 82/150/138
f 264/151/140 268/152/141 267/153/142
f 266/154/143 268/152/141 265/155/144
f 267/153/142 271/156/145 270/157/146
f 269/158/147 271/156/145 268/152/141
f 3/144/126 264/151/140 84/145/127
f 74/159/148 265/155/144 264/151/140
f 72/160/149 265/155/144 73/161/150
f 7/162/151 266/154/143 72/160/149
f 87/163/152 269/158/147 266/154/143
f 88/164/153 272/165/154 269/158/147
f 89/166/155 45/167/156 272/165/157
f 272/165/157 46/168/158 271/156/158
f 270/157/159 46/168/158 47/169/160
f 86/148/130 47/169/160 10/22/161
f 85/146/128 270/157/146 86/148/162
f 84/145/127 267/153/142 85/146/128
f 273/170/163 277/171/164 276/172/165
f 275/173/166 277/171/164 274/174/167
f 276/172/165 280/175/168 279/176/169
f 278/177/170 280/175/168 277/171/164
f 8/178/171 273/170/163 92/179/172
f 77/38/173 274/174/167 273/170/163
f 75/33/174 274/174/167 76/36/175
f 4/35/121 275/173/166 75/33/174
f 83/140/122 278/177/170 275/173/166
f 82/150/138 281/180/176 278/177/170
f 81/149/136 48/181/177 281/180/178
f 281/180/178 49/182/179 280/175/179
f 279/176/180 49/182/179 50/183/181
f 90/184/182 50/183/181 12/62/183
f 91/185/184 279/176/169 90/184/185
f 92/179/172 276/172/165 91/185/184
f 282/186/186 286/187/187 285/188/188
f 284/189/189 286/187/187 283/190/190
f 285/188/188 289/191/191 288/192/192
f 287/193/193 289/191/191 286/187/187
f 7/162/151 282/186/186 87/163/152
f 80/194/194 283/190/190 282/186/186
f 78/195/195 283/190/190 79/196/196
f 8/178/171 284/189/189 78/195/195
f 92/179/172 287/193/193 284/189/189
f 91/185/184 290/197/197 287/193/193
f 90/184/182 51/60/198 290/197/199
f 290/197/199 52/61/200 289/191/200
f 288/192/201 52/61/200 53/59/202
f 89/166/155 53/59/202 11/57/203
f 88/164/153 288/192/192 89/166/204
f 87/163/152 285/188/188 88/164/153
f 292/198/205 294/199/206 291/200/207
f 292/198/205 296/201/208 295/202/209
f 295/202/209 297/203/210 294/199/206
f 295/202/209 299/204/211 298/205/212
f 71/142/213 113/206/214 3/144/215
f 70/143/216 291/200/207 71/142/213
f 70/143/216 293/207/217 292/198/205
f 69/141/218 110/34/34 293/207/217
f 293/207/217 109/48/48 296/201/208
f 296/201/208 108/47/47 299/204/211
f 299/204/211 13/46/46 93/208/219
f 298/205/212 93/208/219 94/209/220
f 298/205/212 95/210/221 297/203/210
f 297/203/210 14/211/222 111/212/223
f 294/199/206 111/212/223 112/213/224
f 291/200/207 112/213/224 113/206/214
f 301/214/225 303/215/226 300/216/227
f 301/214/225 305/217/228 304/218/229
f 304/218/229 306/219/230 303/215/226
f 304/218/229 308/220/231 307/221/232
f 78/195/233 105/39/39 8/178/234
f 79/196/235 300/216/227 78/195/233
f 79/196/235 302/222/236 301/214/225
f 80/194/237 114/223/238 302/222/236
f 302/222/236 115/224/239 305/217/228
f 305/217/228 116/225/240 308/220/231
f 308/220/231 15/226/241 104/227/242
f 307/221/232 104/227/242 103/228/243
f 307/221/232 102/229/244 306/219/230
f 306/219/230 16/42/42 107/41/41
f 303/215/226 107/41/41 106/40/40
f 300/216/227 106/40/40 105/39/39
f 310/230/245 312/231/246 309/232/247
f 310/230/245 314/233/248 313/234/249
f 313/234/249 315/235/250 312/231/246
f 313/234/249 317/236/251 316/237/252
f 72/160/253 114/223/238 7/162/254
f 73/161/255 309/232/247 72/160/253
f 73/161/255 311/238/256 310/230/245
f 74/159/257 113/206/214 311/238/256
f 311/238/256 112/213/224 314/233/248
f 314/233/248 111/212/223 317/236/251
f 317/236/251 14/211/222 98/239/258
f 316/237/252 98/239/258 97/240/259
f 316/237/252 96/241/260 315/235/250
f 315/235/250 15/226/241 116/225/240
f 312/231/246 116/225/240 115/224/239
f 309/232/247 115/224/239 114/223/238
f 318/242/261 322/2/262 321/5/263
f 319/3/264 323/243/265 322/2/262
f 322/2/262 324/244/266 321/5/263
f 323/243/265 325/245/267 322/2/262
f 17/9/268 318/242/261 120/12/269
f 119/10/270 319/3/264 318/242/261
f 118/24/271 320/7/272 319/3/264
f 26/22/273 320/7/272 117/23/274
f 128/21/275 323/243/265 320/7/272
f 323/243/265 126/246/276 326/247/277
f 326/247/277 25/18/278 125/248/279
f 326/247/277 124/16/280 325/245/267
f 325/245/267 123/15/281 324/244/266
f 324/244/266 18/13/282 122/14/283
f 121/11/284 324/244/266 122/14/283
f 318/242/261 121/11/284 120/12/269
f 328/249/285 330/250/286 327/251/287
f 329/251/288 331/252/289 328/249/285
f 330/250/286 334/253/290 333/254/291
f 331/252/289 335/255/292 334/253/290
f 194/256/293 159/45/294 20/46/295
f 193/257/296 327/251/287 194/256/293
f 192/258/297 328/249/285 193/257/296
f 29/46/298 329/251/288 192/258/297
f 183/45/299 332/259/300 329/251/288
f 332/259/300 185/43/301 335/255/292
f 335/255/292 32/42/302 191/260/303
f 334/253/290 191/260/303 190/261/304
f 333/254/291 190/261/304 189/262/305
f 161/43/306 189/262/305 24/42/307
f 160/44/308 333/254/291 161/43/306
f 327/251/287 160/44/308 159/45/294
f 337/263/309 339/264/310 336/265/311
f 338/54/312 340/53/313 337/263/309
f 339/264/310 343/266/314 342/267/315
f 340/53/313 344/268/316 343/266/314
f 27/57/317 336/265/311 137/269/318
f 139/270/319 336/265/311 140/58/320
f 138/71/321 337/263/309 139/270/319
f 21/70/322 338/54/312 138/71/321
f 338/54/312 145/271/323 341/272/324
f 145/271/323 344/268/316 341/272/324
f 344/268/316 22/66/325 143/65/326
f 343/266/314 143/65/326 142/273/327
f 342/267/315 142/273/327 141/274/328
f 342/267/315 28/62/329 135/275/330
f 339/264/310 135/275/330 136/276/331
f 137/269/318 339/264/310 136/276/331
f 345/73/332 349/277/333 348/278/334
f 347/279/335 349/277/333 346/280/336
f 349/277/333 351/281/337 348/278/334
f 349/277/333 353/282/338 352/283/339
f 21/70/322 345/73/332 146/284/340
f 149/81/341 346/280/336 345/73/332
f 147/90/342 346/280/336 148/91/343
f 17/89/268 347/279/335 147/90/342
f 120/88/269 350/80/344 347/279/335
f 350/80/344 122/86/283 353/282/338
f 353/282/338 18/85/282 152/84/345
f 352/283/339 152/84/345 151/285/346
f 352/283/339 150/82/347 351/281/337
f 351/281/337 22/66/325 144/67/348
f 348/278/334 144/67/348 145/271/323
f 146/284/340 348/278/334 145/271/323
f 355/286/349 357/287/350 354/94/351
f 356/288/352 358/96/353 355/286/349
f 357/287/350 361/289/354 360/290/355
f 358/96/353 362/291/356 361/289/354
f 26/100/273 354/94/351 131/102/357
f 118/111/271 354/94/351 117/101/274
f 119/110/270 355/286/349 118/111/271
f 17/109/268 356/288/352 119/110/270
f 356/288/352 148/107/343 359/292/358
f 148/107/343 362/291/356 359/292/358
f 362/291/356 21/70/322 138/71/321
f 361/289/354 138/71/321 139/270/319
f 360/290/355 139/270/319 140/58/320
f 360/290/355 27/57/317 129/103/359
f 357/287/350 129/103/359 130/104/360
f 131/102/357 357/287/350 130/104/360
f 364/293/361 366/294/362 363/295/363
f 365/296/364 367/297/365 364/293/361
f 366/294/362 370/298/366 369/299/367
f 367/297/365 371/118/368 370/298/366
f 28/62/329 363/295/363 134/121/369
f 142/273/327 363/295/363 141/274/328
f 143/65/326 364/293/361 142/273/327
f 22/66/325 365/296/364 143/65/326
f 365/296/364 151/130/346 368/300/370
f 151/130/346 371/118/368 368/300/370
f 371/118/368 18/128/282 123/127/281
f 370/298/366 123/127/281 124/126/280
f 369/299/367 124/126/280 125/301/279
f 369/299/367 25/124/278 132/122/371
f 366/294/362 132/122/371 133/123/372
f 134/121/369 366/294/362 133/123/372
f 372/302/373 376/303/374 375/304/375
f 373/305/376 377/306/377 376/303/374
f 376/303/374 378/307/378 375/304/375
f 377/306/377 379/308/379 376/303/374
f 20/46/380 372/302/373 153/208/381
f 167/309/382 373/305/376 372/302/373
f 166/310/383 374/311/384 373/305/376
f 165/312/385 126/246/386 374/311/387
f 374/311/387 127/313/388 377/306/388
f 127/313/388 380/314/389 377/306/388
f 128/21/390 170/315/391 380/314/389
f 380/314/392 169/316/393 379/308/379
f 379/308/379 168/317/394 378/307/378
f 378/307/378 19/211/395 155/210/396
f 375/304/375 155/210/396 154/209/397
f 153/208/381 375/304/375 154/209/397
f 381/318/398 385/319/399 384/320/400
f 382/321/401 386/322/402 385/319/399
f 385/319/399 387/323/403 384/320/400
f 386/322/402 388/324/404 385/319/399
f 19/211/395 381/318/398 158/325/405
f 168/317/394 382/321/401 381/318/398
f 169/316/393 383/326/406 382/321/401
f 170/315/391 131/169/407 383/326/408
f 383/326/408 130/168/409 386/322/409
f 130/168/409 389/327/410 386/322/409
f 129/167/411 173/328/412 389/327/410
f 389/327/413 172/329/414 388/324/404
f 388/324/404 171/330/415 387/323/403
f 387/323/403 23/226/416 156/241/417
f 384/320/400 156/241/417 157/240/418
f 158/325/405 384/320/400 157/240/418
f 390/331/419 394/332/420 393/333/421
f 391/334/422 395/335/423 394/332/420
f 394/332/420 396/336/424 393/333/421
f 395/335/423 397/337/425 394/332/420
f 24/42/426 390/331/419 161/43/427
f 176/338/428 391/334/422 390/331/419
f 175/339/429 392/340/430 391/334/422
f 174/341/431 134/183/432 392/340/433
f 392/340/433 133/182/434 395/335/434
f 133/182/434 398/342/435 395/335/434
f 132/181/436 165/312/385 398/342/435
f 398/342/437 166/310/383 397/337/425
f 397/337/425 167/309/382 396/336/424
f 396/336/424 20/46/380 159/45/438
f 393/333/421 159/45/438 160/44/439
f 161/43/427 393/333/421 160/44/439
f 399/343/440 403/344/441 402/345/442
f 400/346/443 404/347/444 403/344/441
f 403/344/441 405/348/445 402/345/442
f 404/347/444 406/349/446 403/344/441
f 23/226/416 399/343/440 164/227/447
f 171/330/415 400/346/443 399/343/440
f 172/329/414 401/350/448 400/346/443
f 173/328/412 137/269/449 401/350/450
f 401/350/450 136/276/451 404/347/451
f 136/276/451 407/351/452 404/347/451
f 135/275/453 174/341/431 407/351/452
f 407/351/454 175/339/429 406/349/446
f 406/349/446 176/338/428 405/348/445
f 405/348/445 24/42/426 162/229/455
f 402/345/442 162/229/455 163/228/456
f 164/227/447 402/345/442 163/228/456
f 409/352/457 411/353/458 408/354/459
f 410/355/460 412/356/461 409/352/457
f 411/353/458 415/357/462 414/358/463
f 412/356/461 416/358/464 415/357/462
f 197/359/465 155/210/466 19/211/467
f 196/360/468 408/354/459 197/359/465
f 195/361/469 409/352/457 196/360/468
f 30/211/470 410/355/460 195/361/469
f 179/210/471 413/362/472 410/355/460
f 413/362/472 177/208/473 416/358/464
f 416/358/464 29/46/298 192/258/297
f 415/357/462 192/258/297 193/257/296
f 414/358/463 193/257/296 194/256/293
f 153/208/474 194/256/293 20/46/295
f 154/209/475 414/358/463 153/208/474
f 408/354/459 154/209/475 155/210/466
f 418/363/476 420/364/477 417/365/478
f 419/366/479 421/367/480 418/363/476
f 420/364/477 424/368/481 423/369/482
f 421/367/480 425/370/483 424/368/481
f 189/262/305 162/229/484 24/42/307
f 190/261/304 417/365/478 189/262/305
f 191/260/303 418/363/476 190/261/304
f 32/42/302 419/366/479 191/260/303
f 186/229/485 422/364/486 419/366/479
f 422/364/486 188/227/487 425/370/483
f 425/370/483 31/226/488 200/371/489
f 424/368/481 200/371/489 199/372/490
f 423/369/482 199/372/490 198/373/491
f 164/227/492 198/373/491 23/226/493
f 163/228/494 423/369/482 164/227/492
f 417/365/478 163/228/494 162/229/484
f 427/374/495 429/375/496 426/376/497
f 428/376/498 430/377/499 427/374/495
f 429/375/496 433/378/500 432/379/501
f 430/377/499 434/380/502 433/378/500
f 198/373/491 156/241/503 23/226/493
f 199/372/490 426/376/497 198/373/491
f 200/371/489 427/374/495 199/372/490
f 31/226/488 428/376/498 200/371/489
f 180/241/504 431/375/505 428/376/498
f 431/375/505 182/239/506 434/380/502
f 434/380/502 30/211/470 195/361/469
f 433/378/500 195/361/469 196/360/468
f 432/379/501 196/360/468 197/359/465
f 158/325/507 197/359/465 19/211/467
f 157/240/508 432/379/501 158/325/507
f 426/376/497 157/240/508 156/241/503
f 435/381/509 440/382/509 439/383/509
f 436/384/333 441/385/333 440/382/333
f 438/386/510 442/387/510 441/385/510
f 437/388/74 439/389/74 442/387/74
f 445/390/511 449/391/511 444/392/511
f 436/393/512 437/388/512 438/386/512
f 439/389/512 447/387/512 442/387/512
f 441/385/510 448/394/510 445/390/510
f 441/385/512 443/382/512 440/382/512
f 449/395/509 440/382/509 444/396/509
f 447/387/74 449/397/74 448/394/74
f 443/382/333 445/390/333 444/396/333
f 444/396/509 440/382/509 443/382/509
f 439/383/509 449/395/509 450/383/509
f 441/385/510 445/390/510 446/385/510
f 448/394/510 442/387/510 447/387/510
f 201/1/1 202/5/5 205/2/2
f 203/4/4 206/8/8 205/2/2
f 204/3/3 205/2/2 208/6/6
f 206/8/8 209/17/17 208/6/6
f 1/9/9 36/12/12 201/1/1
f 37/11/11 202/5/5 201/1/1
f 37/11/11 38/14/14 203/4/4
f 2/13/13 39/15/15 203/4/4
f 39/15/15 40/16/16 206/8/8
f 40/16/16 41/248/513 209/17/17
f 209/17/17 41/248/513 9/18/18
f 208/6/6 209/17/17 42/19/19
f 208/6/6 43/20/20 44/21/21
f 207/7/7 44/21/21 10/22/22
f 34/24/24 204/3/3 207/7/7
f 35/10/10 201/1/1 204/3/3
f 211/25/25 214/29/29 213/26/26
f 211/25/25 212/37/37 215/28/28
f 214/29/29 217/32/32 216/30/30
f 214/29/29 215/28/28 218/31/31
f 75/33/33 210/27/27 110/34/34
f 76/36/36 211/25/25 210/27/27
f 76/36/36 77/38/38 212/37/37
f 77/38/38 8/178/234 105/39/39
f 212/37/37 105/39/39 106/40/40
f 215/28/28 106/40/40 107/41/41
f 218/31/31 107/41/41 16/42/42
f 217/32/32 218/31/31 101/43/43
f 217/32/32 100/44/44 99/45/45
f 216/30/30 99/45/45 13/46/46
f 213/26/26 216/30/30 108/47/47
f 210/27/27 213/26/26 109/48/48
f 220/49/49 223/53/53 222/50/50
f 220/49/49 221/63/63 224/52/52
f 223/53/53 226/56/56 225/54/54
f 223/53/53 224/52/52 227/55/55
f 11/57/57 53/59/59 219/51/51
f 53/59/59 52/61/61 220/49/49
f 51/60/60 221/63/63 220/49/49
f 12/62/62 57/120/107 221/63/63
f 221/63/63 57/120/107 58/64/64
f 224/52/52 58/64/64 59/65/65
f 227/55/55 59/65/65 6/66/66
f 227/55/55 60/67/67 61/68/68
f 225/54/54 226/56/56 61/68/68
f 225/54/54 62/69/69 5/70/70
f 222/50/50 225/54/54 54/71/71
f 219/51/51 222/50/50 55/72/72
f 228/73/73 229/77/77 232/74/74
f 230/76/76 233/83/83 232/74/74
f 232/74/74 235/80/80 234/78/78
f 232/74/74 233/83/83 236/79/79
f 5/70/70 62/69/69 228/73/73
f 62/69/69 61/68/68 229/77/77
f 60/67/67 230/76/76 229/77/77
f 6/66/66 66/82/82 230/76/76
f 66/82/82 67/285/112 233/83/83
f 233/83/83 67/285/112 68/84/84
f 236/79/79 68/84/84 2/85/13
f 235/80/80 236/79/79 38/86/14
f 235/80/80 37/87/11 36/88/12
f 234/78/78 36/88/12 1/89/9
f 231/75/75 234/78/78 63/90/85
f 65/81/81 228/73/73 231/75/75
f 238/92/87 241/96/91 240/93/88
f 238/92/87 239/105/98 242/95/90
f 241/96/91 244/99/94 243/97/92
f 241/96/91 242/95/90 245/98/93
f 10/100/22 47/102/95 237/94/89
f 47/102/95 46/104/97 238/92/87
f 45/103/96 239/105/98 238/92/87
f 11/57/57 56/58/58 239/105/98
f 239/105/98 56/58/58 55/72/72
f 242/95/90 55/72/72 54/71/71
f 245/98/93 54/71/71 5/70/70
f 245/98/93 65/106/81 64/107/86
f 243/97/92 244/99/94 64/107/86
f 243/97/92 63/108/85 1/109/9
f 240/93/88 243/97/92 35/110/10
f 237/94/89 240/93/88 34/111/24
f 247/112/99 250/116/103 249/113/100
f 247/112/99 248/125/111 251/115/102
f 250/116/103 253/119/106 252/117/104
f 250/116/103 251/115/102 254/118/105
f 12/62/62 50/121/108 246/114/101
f 50/121/108 49/123/110 247/112/99
f 48/122/109 248/125/111 247/112/99
f 9/124/18 41/301/513 248/125/111
f 248/125/111 41/301/513 40/126/16
f 251/115/102 40/126/16 39/127/15
f 254/118/105 39/127/15 2/128/13
f 254/118/105 68/129/84 67/130/112
f 252/117/104 253/119/106 67/130/112
f 252/117/104 66/131/82 6/66/66
f 249/113/100 252/117/104 59/65/65
f 246/114/101 249/113/100 58/64/64
f 255/132/113 256/136/117 259/133/114
f 257/135/116 260/139/120 259/133/114
f 258/134/115 259/133/114 262/137/118
f 260/139/120 263/147/129 262/137/118
f 4/35/121 69/141/123 255/132/113
f 69/141/123 70/143/125 256/136/117
f 71/142/124 257/135/116 256/136/117
f 3/144/126 84/145/127 257/135/116
f 84/145/127 85/146/128 260/139/120
f 85/146/128 86/148/162 263/147/129
f 86/148/130 10/22/161 44/21/131
f 263/147/132 44/21/131 43/20/133
f 261/138/134 262/137/133 43/20/133
f 81/149/136 261/138/134 42/19/135
f 82/150/138 258/134/115 261/138/119
f 83/140/122 255/132/113 258/134/115
f 264/151/140 265/155/144 268/152/141
f 266/154/143 269/158/147 268/152/141
f 267/153/142 268/152/141 271/156/145
f 269/158/147 272/165/154 271/156/145
f 3/144/126 74/159/148 264/151/140
f 74/159/148 73/161/150 265/155/144
f 72/160/149 266/154/143 265/155/144
f 7/162/151 87/163/152 266/154/143
f 87/163/152 88/164/153 269/158/147
f 88/164/153 89/166/204 272/165/154
f 89/166/155 11/57/203 45/167/156
f 272/165/157 45/167/156 46/168/158
f 270/157/159 271/156/158 46/168/158
f 86/148/130 270/157/159 47/169/160
f 85/146/128 267/153/142 270/157/146
f 84/145/127 264/151/140 267/153/142
f 273/170/163 274/174/167 277/171/164
f 275/173/166 278/177/170 277/171/164
f 276/172/165 277/171/164 280/175/168
f 278/177/170 281/180/176 280/175/168
f 8/178/171 77/38/173 273/170/163
f 77/38/173 76/36/175 274/174/167
f 75/33/174 275/173/166 274/174/167
f 4/35/121 83/140/122 275/173/166
f 83/140/122 82/150/138 278/177/170
f 82/150/138 81/149/139 281/180/176
f 81/149/136 9/18/137 48/181/177
f 281/180/178 48/181/177 49/182/179
f 279/176/180 280/175/179 49/182/179
f 90/184/182 279/176/180 50/183/181
f 91/185/184 276/172/165 279/176/169
f 92/179/172 273/170/163 276/172/165
f 282/186/186 283/190/190 286/187/187
f 284/189/189 287/193/193 286/187/187
f 285/188/188 286/187/187 289/191/191
f 287/193/193 290/197/197 289/191/191
f 7/162/151 80/194/194 282/186/186
f 80/194/194 79/196/196 283/190/190
f 78/195/195 284/189/189 283/190/190
f 8/178/171 92/179/172 284/189/189
f 92/179/172 91/185/184 287/193/193
f 91/185/184 90/184/185 290/197/197
f 90/184/182 12/62/183 51/60/198
f 290/197/199 51/60/198 52/61/200
f 288/192/201 289/191/200 52/61/200
f 89/166/155 288/192/201 53/59/202
f 88/164/153 285/188/188 288/192/192
f 87/163/152 282/186/186 285/188/188
f 292/198/205 295/202/209 294/199/206
f 292/198/205 293/207/217 296/201/208
f 295/202/209 298/205/212 297/203/210
f 295/202/209 296/201/208 299/204/211
f 71/142/213 291/200/207 113/206/214
f 70/143/216 292/198/205 291/200/207
f 70/143/216 69/141/218 293/207/217
f 69/141/218 4/35/35 110/34/34
f 293/207/217 110/34/34 109/48/48
f 296/201/208 109/48/48 108/47/47
f 299/204/211 108/47/47 13/46/46
f 298/205/212 299/204/211 93/208/219
f 298/205/212 94/209/220 95/210/221
f 297/203/210 95/210/221 14/211/222
f 294/199/206 297/203/210 111/212/223
f 291/200/207 294/199/206 112/213/224
f 301/214/225 304/218/229 303/215/226
f 301/214/225 302/222/236 305/217/228
f 304/218/229 307/221/232 306/219/230
f 304/218/229 305/217/228 308/220/231
f 78/195/233 300/216/227 105/39/39
f 79/196/235 301/214/225 300/216/227
f 79/196/235 80/194/237 302/222/236
f 80/194/237 7/162/254 114/223/238
f 302/222/236 114/223/238 115/224/239
f 305/217/228 115/224/239 116/225/240
f 308/220/231 116/225/240 15/226/241
f 307/221/232 308/220/231 104/227/242
f 307/221/232 103/228/243 102/229/244
f 306/219/230 102/229/244 16/42/42
f 303/215/226 306/219/230 107/41/41
f 300/216/227 303/215/226 106/40/40
f 310/230/245 313/234/249 312/231/246
f 310/230/245 311/238/256 314/233/248
f 313/234/249 316/237/252 315/235/250
f 313/234/249 314/233/248 317/236/251
f 72/160/253 309/232/247 114/223/238
f 73/161/255 310/230/245 309/232/247
f 73/161/255 74/159/257 311/238/256
f 74/159/257 3/144/215 113/206/214
f 311/238/256 113/206/214 112/213/224
f 314/233/248 112/213/224 111/212/223
f 317/236/251 111/212/223 14/211/222
f 316/237/252 317/236/251 98/239/258
f 316/237/252 97/240/259 96/241/260
f 315/235/250 96/241/260 15/226/241
f 312/231/246 315/235/250 116/225/240
f 309/232/247 312/231/246 115/224/239
f 318/242/261 319/3/264 322/2/262
f 319/3/264 320/7/272 323/243/265
f 322/2/262 325/245/267 324/244/266
f 323/243/265 326/247/277 325/245/267
f 17/9/268 119/10/270 318/242/261
f 119/10/270 118/24/271 319/3/264
f 118/24/271 117/23/274 320/7/272
f 26/22/273 128/21/275 320/7/272
f 128/21/275 127/313/514 323/243/265
f 323/243/265 127/313/514 126/246/276
f 326/247/277 126/246/276 25/18/278
f 326/247/277 125/248/279 124/16/280
f 325/245/267 124/16/280 123/15/281
f 324/244/266 123/15/281 18/13/282
f 121/11/284 321/5/263 324/244/266
f 318/242/261 321/5/263 121/11/284
f 328/249/285 331/252/289 330/250/286
f 329/251/288 332/259/300 331/252/289
f 330/250/286 331/252/289 334/253/290
f 331/252/289 332/259/300 335/255/292
f 194/256/293 327/251/287 159/45/294
f 193/257/296 328/249/285 327/251/287
f 192/258/297 329/251/288 328/249/285
f 29/46/298 183/45/299 329/251/288
f 183/45/299 184/44/515 332/259/300
f 332/259/300 184/44/515 185/43/301
f 335/255/292 185/43/301 32/42/302
f 334/253/290 335/255/292 191/260/303
f 333/254/291 334/253/290 190/261/304
f 161/43/306 333/254/291 189/262/305
f 160/44/308 330/250/286 333/254/291
f 327/251/287 330/250/286 160/44/308
f 337/263/309 340/53/313 339/264/310
f 338/54/312 341/272/324 340/53/313
f 339/264/310 340/53/313 343/266/314
f 340/53/313 341/272/324 344/268/316
f 27/57/317 140/58/320 336/265/311
f 139/270/319 337/263/309 336/265/311
f 138/71/321 338/54/312 337/263/309
f 21/70/322 146/284/340 338/54/312
f 338/54/312 146/284/340 145/271/323
f 145/271/323 144/67/348 344/268/316
f 344/268/316 144/67/348 22/66/325
f 343/266/314 344/268/316 143/65/326
f 342/267/315 343/266/314 142/273/327
f 342/267/315 141/274/328 28/62/329
f 339/264/310 342/267/315 135/275/330
f 137/269/318 336/265/311 339/264/310
f 345/73/332 346/280/336 349/277/333
f 347/279/335 350/80/344 349/277/333
f 349/277/333 352/283/339 351/281/337
f 349/277/333 350/80/344 353/282/338
f 21/70/322 149/81/341 345/73/332
f 149/81/341 148/91/343 346/280/336
f 147/90/342 347/279/335 346/280/336
f 17/89/268 120/88/269 347/279/335
f 120/88/269 121/87/284 350/80/344
f 350/80/344 121/87/284 122/86/283
f 353/282/338 122/86/283 18/85/282
f 352/283/339 353/282/338 152/84/345
f 352/283/339 151/285/346 150/82/347
f 351/281/337 150/82/347 22/66/325
f 348/278/334 351/281/337 144/67/348
f 146/284/340 345/73/332 348/278/334
f 355/286/349 358/96/353 357/287/350
f 356/288/352 359/292/358 358/96/353
f 357/287/350 358/96/353 361/289/354
f 358/96/353 359/292/358 362/291/356
f 26/100/273 117/101/274 354/94/351
f 118/111/271 355/286/349 354/94/351
f 119/110/270 356/288/352 355/286/349
f 17/109/268 147/108/342 356/288/352
f 356/288/352 147/108/342 148/107/343
f 148/107/343 149/106/341 362/291/356
f 362/291/356 149/106/341 21/70/322
f 361/289/354 362/291/356 138/71/321
f 360/290/355 361/289/354 139/270/319
f 360/290/355 140/58/320 27/57/317
f 357/287/350 360/290/355 129/103/359
f 131/102/357 354/94/351 357/287/350
f 364/293/361 367/297/365 366/294/362
f 365/296/364 368/300/370 367/297/365
f 366/294/362 367/297/365 370/298/366
f 367/297/365 368/300/370 371/118/368
f 28/62/329 141/274/328 363/295/363
f 142/273/327 364/293/361 363/295/363
f 143/65/326 365/296/364 364/293/361
f 22/66/325 150/131/347 365/296/364
f 365/296/364 150/131/347 151/130/346
f 151/130/346 152/129/345 371/118/368
f 371/118/368 152/129/345 18/128/282
f 370/298/366 371/118/368 123/127/281
f 369/299/367 370/298/366 124/126/280
f 369/299/367 125/301/279 25/124/278
f 366/294/362 369/299/367 132/122/371
f 134/121/369 363/295/363 366/294/362
f 372/302/373 373/305/376 376/303/374
f 373/305/376 374/311/384 377/306/377
f 376/303/374 379/308/379 378/307/378
f 377/306/377 380/314/392 379/308/379
f 20/46/380 167/309/382 372/302/373
f 167/309/382 166/310/383 373/305/376
f 166/310/383 165/312/516 374/311/384
f 165/312/385 25/18/517 126/246/386
f 374/311/387 126/246/386 127/313/388
f 127/313/388 128/21/390 380/314/389
f 128/21/390 26/22/518 170/315/391
f 380/314/392 170/315/519 169/316/393
f 379/308/379 169/316/393 168/317/394
f 378/307/378 168/317/394 19/211/395
f 375/304/375 378/307/378 155/210/396
f 153/208/381 372/302/373 375/304/375
f 381/318/398 382/321/401 385/319/399
f 382/321/401 383/326/406 386/322/402
f 385/319/399 388/324/404 387/323/403
f 386/322/402 389/327/413 388/324/404
f 19/211/395 168/317/394 381/318/398
f 168/317/394 169/316/393 382/321/401
f 169/316/393 170/315/519 383/326/406
f 170/315/391 26/22/518 131/169/407
f 383/326/408 131/169/407 130/168/409
f 130/168/409 129/167/411 389/327/410
f 129/167/411 27/57/520 173/328/412
f 389/327/413 173/328/521 172/329/414
f 388/324/404 172/329/414 171/330/415
f 387/323/403 171/330/415 23/226/416
f 384/320/400 387/323/403 156/241/417
f 158/325/405 381/318/398 384/320/400
f 390/331/419 391/334/422 394/332/420
f 391/334/422 392/340/430 395/335/423
f 394/332/420 397/337/425 396/336/424
f 395/335/423 398/342/437 397/337/425
f 24/42/426 176/338/428 390/331/419
f 176/338/428 175/339/429 391/334/422
f 175/339/429 174/341/522 392/340/430
f 174/341/431 28/62/523 134/183/432
f 392/340/433 134/183/432 133/182/434
f 133/182/434 132/181/436 398/342/435
f 132/181/436 25/18/517 165/312/385
f 398/342/437 165/312/516 166/310/383
f 397/337/425 166/310/383 167/309/382
f 396/336/424 167/309/382 20/46/380
f 393/333/421 396/336/424 159/45/438
f 161/43/427 390/331/419 393/333/421
f 399/343/440 400/346/443 403/344/441
f 400/346/443 401/350/448 404/347/444
f 403/344/441 406/349/446 405/348/445
f 404/347/444 407/351/454 406/349/446
f 23/226/416 171/330/415 399/343/440
f 171/330/415 172/329/414 400/346/443
f 172/329/414 173/328/521 401/350/448
f 173/328/412 27/57/520 137/269/449
f 401/350/450 137/269/449 136/276/451
f 136/276/451 135/275/453 407/351/452
f 135/275/453 28/62/523 174/341/431
f 407/351/454 174/341/522 175/339/429
f 406/349/446 175/339/429 176/338/428
f 405/348/445 176/338/428 24/42/426
f 402/345/442 405/348/445 162/229/455
f 164/227/447 399/343/440 402/345/442
f 409/352/457 412/356/461 411/353/458
f 410/355/460 413/362/472 412/356/461
f 411/353/458 412/356/461 415/357/462
f 412/356/461 413/362/472 416/358/464
f 197/359/465 408/354/459 155/210/466
f 196/360/468 409/352/457 408/354/459
f 195/361/469 410/355/460 409/352/457
f 30/211/470 179/210/471 410/355/460
f 179/210/471 178/209/524 413/362/472
f 413/362/472 178/209/524 177/208/473
f 416/358/464 177/208/473 29/46/298
f 415/357/462 416/358/464 192/258/297
f 414/358/463 415/357/462 193/257/296
f 153/208/474 414/358/463 194/256/293
f 154/209/475 411/353/458 414/358/463
f 408/354/459 411/353/458 154/209/475
f 418/363/476 421/367/480 420/364/477
f 419/366/479 422/364/486 421/367/480
f 420/364/477 421/367/480 424/368/481
f 421/367/480 422/364/486 425/370/483
f 189/262/305 417/365/478 162/229/484
f 190/261/304 418/363/476 417/365/478
f 191/260/303 419/366/479 418/363/476
f 32/42/302 186/229/485 419/366/479
f 186/229/485 187/228/525 422/364/486
f 422/364/486 187/228/525 188/227/487
f 425/370/483 188/227/487 31/226/488
f 424/368/481 425/370/483 200/371/489
f 423/369/482 424/368/481 199/372/490
f 164/227/492 423/369/482 198/373/491
f 163/228/494 420/364/477 423/369/482
f 417/365/478 420/364/477 163/228/494
f 427/374/495 430/377/499 429/375/496
f 428/376/498 431/375/505 430/377/499
f 429/375/496 430/377/499 433/378/500
f 430/377/499 431/375/505 434/380/502
f 198/373/491 426/376/497 156/241/503
f 199/372/490 427/374/495 426/376/497
f 200/371/489 428/376/498 427/374/495
f 31/226/488 180/241/504 428/376/498
f 180/241/504 181/240/526 431/375/505
f 431/375/505 181/240/526 182/239/506
f 434/380/502 182/239/506 30/211/470
f 433/378/500 434/380/502 195/361/469
f 432/379/501 433/378/500 196/360/468
f 158/325/507 432/379/501 197/359/465
f 157/240/508 429/375/496 432/379/501
f 426/376/497 429/375/496 157/240/508
f 435/381/509 436/384/509 440/382/509
f 436/384/333 438/386/333 441/385/333
f 438/386/510 437/388/510 442/387/510
f 437/388/74 435/398/74 439/389/74
f 445/390/511 448/394/511 449/391/511
f 436/393/512 435/399/512 437/388/512
f 439/389/512 450/389/512 447/387/512
f 441/385/510 442/387/510 448/394/510
f 441/385/512 446/385/512 443/382/512
f 449/395/509 439/383/509 440/382/509
f 447/387/74 450/389/74 449/397/74
f 443/382/333 446/385/333 445/390/333
