# Blender 4.1.0
# www.blender.org
mtllib Hinge.mtl
o Hinge
v -0.535971 1.900623 -0.077191
v -0.535971 1.633679 -0.077191
v -0.571208 1.900623 -0.097535
v -0.571208 1.633679 -0.097535
v -0.571208 1.900623 -0.138223
v -0.571208 1.633679 -0.138223
v -0.535971 1.900623 -0.158567
v -0.535971 1.633679 -0.158567
v -0.500735 1.900623 -0.138223
v -0.500735 1.633679 -0.138223
v -0.500735 1.900623 -0.097535
v -0.500735 1.633679 -0.097535
v -0.535971 0.551167 -0.077191
v -0.535971 0.284223 -0.077191
v -0.571208 0.551167 -0.097535
v -0.571208 0.284223 -0.097535
v -0.571208 0.551167 -0.138223
v -0.571208 0.284223 -0.138223
v -0.535971 0.551167 -0.158567
v -0.535971 0.284223 -0.158567
v -0.500735 0.551167 -0.138223
v -0.500735 0.284223 -0.138223
v -0.500735 0.551167 -0.097535
v -0.500735 0.284223 -0.097535
vn 0.5000 -0.0000 -0.8660
vn 1.0000 -0.0000 -0.0000
vn 0.5000 -0.0000 0.8660
vn -0.5000 -0.0000 0.8660
vn -0.0000 1.0000 -0.0000
vn -1.0000 -0.0000 -0.0000
vn -0.5000 -0.0000 -0.8660
vn -0.0000 -1.0000 -0.0000
vt 0.140185 0.130512
vt 0.119897 0.069647
vt 0.140185 0.069647
vt 0.119897 0.130512
vt 0.099609 0.069647
vt 0.099609 0.130512
vt 0.079321 0.069647
vt 0.079321 0.130512
vt 0.059032 0.069647
vt 0.048888 0.068430
vt 0.023587 0.024608
vt 0.074189 0.024608
vt 0.059032 0.130512
vt 0.038744 0.069647
vt 0.038744 0.130512
vt 0.018456 0.069647
vt 0.135054 0.053823
vt 0.109753 0.010000
vt 0.084452 0.053823
vt 0.074189 0.053823
vt 0.023587 0.053823
vt 0.048888 0.010000
vt 0.018456 0.130512
vt 0.109753 0.068430
vt 0.135054 0.024608
vt 0.084452 0.024608
s 0
usemtl Door02.001
f 2/1/1 3/2/1 1/3/1
f 4/4/2 5/5/2 3/2/2
f 6/6/3 7/7/3 5/5/3
f 8/8/4 9/9/4 7/7/4
f 2/10/5 10/11/5 6/12/5
f 10/13/6 11/14/6 9/9/6
f 12/15/7 1/16/7 11/14/7
f 3/17/8 7/18/8 11/19/8
f 2/1/1 4/4/1 3/2/1
f 4/4/2 6/6/2 5/5/2
f 6/6/3 8/8/3 7/7/3
f 8/8/4 10/13/4 9/9/4
f 6/12/5 4/20/5 2/10/5
f 2/10/5 12/21/5 10/11/5
f 10/11/5 8/22/5 6/12/5
f 10/13/6 12/15/6 11/14/6
f 12/15/7 2/23/7 1/16/7
f 11/19/8 1/24/8 3/17/8
f 3/17/8 5/25/8 7/18/8
f 7/18/8 9/26/8 11/19/8
usemtl Door02
f 14/1/1 15/2/1 13/3/1
f 16/4/2 17/5/2 15/2/2
f 18/6/3 19/7/3 17/5/3
f 20/8/4 21/9/4 19/7/4
f 14/10/5 22/11/5 18/12/5
f 22/13/6 23/14/6 21/9/6
f 24/15/7 13/16/7 23/14/7
f 15/17/8 19/18/8 23/19/8
f 14/1/1 16/4/1 15/2/1
f 16/4/2 18/6/2 17/5/2
f 18/6/3 20/8/3 19/7/3
f 20/8/4 22/13/4 21/9/4
f 18/12/5 16/20/5 14/10/5
f 14/10/5 24/21/5 22/11/5
f 22/11/5 20/22/5 18/12/5
f 22/13/6 24/15/6 23/14/6
f 24/15/7 14/23/7 13/16/7
f 23/19/8 13/24/8 15/17/8
f 15/17/8 17/25/8 19/18/8
f 19/18/8 21/26/8 23/19/8
