# Blender 4.1.0
# www.blender.org
mtllib Wall1UnitDoorFrame.001.mtl
o Wall1UnitDoorFrame.001
v 0.000000 0.000000 0.000000
v 0.000000 2.768600 0.000000
v 0.000000 0.000000 -0.200000
v 0.000000 2.768600 -0.200000
v 2.500000 0.000000 0.000000
v 2.500000 2.768600 0.000000
v 2.500000 0.000000 -0.200000
v 2.500000 2.768600 -0.200000
v 1.801126 2.130758 -0.200000
v 0.686721 2.130758 -0.200000
v 0.686721 0.000000 -0.200000
v 1.801126 0.000000 -0.200000
v 0.715111 2.170866 0.032087
v 1.814667 2.125007 -0.010524
v 0.686721 0.000000 0.000000
v 1.801126 0.000000 0.000000
vn -1.0000 0.0060 0.0040
vn -0.9977 0.0004 0.0671
vn -0.9975 -0.0000 0.0713
vn -0.0000 -0.0000 -1.0000
vn -0.0000 1.0000 -0.0000
vn -0.0080 -0.0078 0.9999
vn -0.0152 0.0203 0.9997
vn -0.0039 -0.0001 1.0000
vn -0.0373 -0.9993 -0.0016
vn -0.0045 -0.9887 0.1500
vn -0.0000 -0.9854 0.1703
vn -0.0000 -1.0000 -0.0000
vn 1.0000 -0.0000 -0.0000
vn 0.9935 -0.0106 -0.1131
vn 1.0000 -0.0008 -0.0082
vn -0.0091 -0.0118 0.9999
vn 0.0040 0.0540 0.9985
vn -0.0030 0.0040 1.0000
vn -0.0000 0.0050 1.0000
vn -1.0000 -0.0000 -0.0000
vn -1.0000 0.0064 -0.0000
vn -0.0427 -0.9987 -0.0273
vn 0.9928 -0.0112 -0.1195
vn -0.0000 -0.0148 0.9999
vt 0.381495 0.583373
vt 0.625000 0.646813
vt 0.625000 0.583373
vt 0.720451 0.769616
vt 0.274688 0.769616
vt 0.000000 1.000000
vt 0.000000 0.000000
vt 1.000000 1.000000
vt 0.875000 0.646813
vt 0.875000 0.583373
vt 1.000000 0.000000
vt 0.720451 1.000000
vt 0.274688 1.000000
vt 0.625000 0.166627
vt 0.381495 0.103187
vt 0.381495 0.166627
vt 0.274688 0.769616
vt 0.720451 0.000000
vt 0.274688 0.000000
vt 0.381495 0.646813
vt 0.274688 0.000000
vt 0.625000 0.103187
s 1
usemtl Wall01
f 12/1/1 14/2/2 9/3/3
f 9/4/4 10/5/4 4/6/4
f 2/7/5 8/8/5 4/6/5
f 6/8/6 2/6/7 14/4/8
f 9/3/9 13/9/10 10/10/11
f 5/11/12 12/12/12 7/8/12
f 11/13/12 1/7/12 3/6/12
f 6/6/13 7/11/13 8/8/13
f 10/14/14 15/15/15 11/16/13
f 7/11/4 9/4/4 8/8/4
f 1/7/16 13/17/17 2/6/7
f 5/11/18 14/4/8 16/18/19
f 8/8/4 9/4/4 4/6/4
f 3/7/4 10/5/4 11/19/4
f 2/6/7 13/17/17 14/4/8
f 4/8/20 1/7/20 2/6/20
f 12/1/1 16/20/21 14/2/2
f 2/7/5 6/11/5 8/8/5
f 9/3/9 14/2/22 13/9/10
f 5/11/12 16/18/12 12/12/12
f 11/13/12 15/21/12 1/7/12
f 6/6/13 5/7/13 7/11/13
f 10/14/14 13/22/23 15/15/15
f 7/11/4 12/18/4 9/4/4
f 1/7/16 15/21/24 13/17/17
f 5/11/18 6/8/6 14/4/8
f 3/7/4 4/6/4 10/5/4
f 4/8/20 3/11/20 1/7/20
