# Blender 4.0.2
# www.blender.org
mtllib Closet01.mtl
o Closet01.001
v -0.449277 0.056860 0.322445
v -0.449277 1.943140 0.322445
v -0.500000 0.000000 -0.322445
v -0.500000 2.000000 -0.322445
v 0.449277 0.056860 0.322445
v 0.449277 1.943140 0.322445
v 0.500000 0.000000 -0.322445
v 0.500000 2.000000 -0.322445
v -0.500000 0.000000 0.322445
v -0.500000 2.000000 0.322445
v 0.500000 2.000000 0.322445
v 0.500000 0.000000 0.322445
v -0.449277 0.056860 -0.247314
v -0.449277 1.943140 -0.247314
v 0.449277 1.943140 -0.247314
v 0.449277 0.056860 -0.247314
vn -1.0000 -0.0000 -0.0000
vn -0.0000 -0.0000 -1.0000
vn 1.0000 -0.0000 -0.0000
vn -0.0000 -1.0000 -0.0000
vn -0.0000 1.0000 -0.0000
vn -0.0000 -0.0000 1.0000
vt 0.625000 0.000000
vt 0.375000 0.250000
vt 0.375000 0.000000
vt 0.625000 0.250000
vt 0.375000 0.500000
vt 0.625000 0.500000
vt 0.375000 0.750000
vt 0.616880 0.758120
vt 0.383120 0.758120
vt 0.125000 0.750000
vt 0.125000 0.500000
vt 0.875000 0.500000
vt 0.625000 0.750000
vt 0.616880 0.991880
vt 0.375000 1.000000
vt 0.383120 0.991880
vt 0.625000 1.000000
vt 0.875000 0.750000
s 0
f 10/1/1 3/2/1 9/3/1
f 4/4/2 7/5/2 3/2/2
f 8/6/3 12/7/3 7/5/3
f 6/8/1 16/9/1 5/9/1
f 7/5/4 9/10/4 3/11/4
f 4/12/5 11/13/5 8/6/5
f 2/14/6 9/15/6 1/16/6
f 5/9/6 11/13/6 6/8/6
f 1/16/6 12/7/6 5/9/6
f 6/8/6 10/17/6 2/14/6
f 15/8/6 13/16/6 16/9/6
f 5/9/5 13/16/5 1/16/5
f 1/16/3 14/14/3 2/14/3
f 2/14/4 15/8/4 6/8/4
f 10/1/1 4/4/1 3/2/1
f 4/4/2 8/6/2 7/5/2
f 8/6/3 11/13/3 12/7/3
f 6/8/1 15/8/1 16/9/1
f 7/5/4 12/7/4 9/10/4
f 4/12/5 10/18/5 11/13/5
f 2/14/6 10/17/6 9/15/6
f 5/9/6 12/7/6 11/13/6
f 1/16/6 9/15/6 12/7/6
f 6/8/6 11/13/6 10/17/6
f 15/8/6 14/14/6 13/16/6
f 5/9/5 16/9/5 13/16/5
f 1/16/3 13/16/3 14/14/3
f 2/14/4 14/14/4 15/8/4
o Closet01Door.002
v -0.499950 0.000000 0.405267
v -0.499950 2.000000 0.405267
v -0.499950 0.000000 0.321446
v -0.499950 2.000000 0.321446
v 0.000050 0.000000 0.405267
v 0.000050 2.000000 0.405267
v 0.000050 0.000000 0.321446
v 0.000050 2.000000 0.321446
vn -1.0000 -0.0000 -0.0000
vn -0.0000 -0.0000 -1.0000
vn 1.0000 -0.0000 -0.0000
vn -0.0000 -0.0000 1.0000
vn -0.0000 -1.0000 -0.0000
vn -0.0000 1.0000 -0.0000
vt 0.625000 0.000000
vt 0.375000 0.250000
vt 0.375000 0.000000
vt 0.625000 0.250000
vt 0.375000 0.500000
vt 0.625000 0.500000
vt 0.375000 0.750000
vt 0.625000 0.750000
vt 0.375000 1.000000
vt 0.125000 0.750000
vt 0.125000 0.500000
vt 0.875000 0.500000
vt 0.625000 1.000000
vt 0.875000 0.750000
s 0
f 18/19/7 19/20/7 17/21/7
f 20/22/8 23/23/8 19/20/8
f 24/24/9 21/25/9 23/23/9
f 22/26/10 17/27/10 21/25/10
f 23/23/11 17/28/11 19/29/11
f 20/30/12 22/26/12 24/24/12
f 18/19/7 20/22/7 19/20/7
f 20/22/8 24/24/8 23/23/8
f 24/24/9 22/26/9 21/25/9
f 22/26/10 18/31/10 17/27/10
f 23/23/11 21/25/11 17/28/11
f 20/30/12 18/32/12 22/26/12
o Closet01Door.001
v 0.000050 0.000000 0.405267
v 0.000050 2.000000 0.405267
v 0.000050 0.000000 0.321446
v 0.000050 2.000000 0.321446
v 0.500050 0.000000 0.405267
v 0.500050 2.000000 0.405267
v 0.500050 0.000000 0.321446
v 0.500050 2.000000 0.321446
vn -1.0000 -0.0000 -0.0000
vn -0.0000 -0.0000 -1.0000
vn 1.0000 -0.0000 -0.0000
vn -0.0000 -0.0000 1.0000
vn -0.0000 -1.0000 -0.0000
vn -0.0000 1.0000 -0.0000
vt 0.625000 0.000000
vt 0.375000 0.250000
vt 0.375000 0.000000
vt 0.625000 0.250000
vt 0.375000 0.500000
vt 0.625000 0.500000
vt 0.375000 0.750000
vt 0.625000 0.750000
vt 0.375000 1.000000
vt 0.125000 0.750000
vt 0.125000 0.500000
vt 0.875000 0.500000
vt 0.625000 1.000000
vt 0.875000 0.750000
s 0
f 26/33/13 27/34/13 25/35/13
f 28/36/14 31/37/14 27/34/14
f 32/38/15 29/39/15 31/37/15
f 30/40/16 25/41/16 29/39/16
f 31/37/17 25/42/17 27/43/17
f 28/44/18 30/40/18 32/38/18
f 26/33/13 28/36/13 27/34/13
f 28/36/14 32/38/14 31/37/14
f 32/38/15 30/40/15 29/39/15
f 30/40/16 26/45/16 25/41/16
f 31/37/17 29/39/17 25/42/17
f 28/44/18 26/46/18 30/40/18
o Handle.003
v 0.141459 1.166747 0.403224
v 0.087202 1.166747 0.403224
v 0.087202 1.115620 0.403224
v 0.141459 1.115620 0.403224
v 0.141459 1.164360 0.485939
v 0.087202 1.164360 0.485939
v 0.087202 1.115620 0.464101
v 0.141459 1.115620 0.464101
v 0.141459 1.115533 0.528878
v 0.087202 1.115533 0.528878
v 0.087202 1.097355 0.479817
v 0.141459 1.097355 0.479817
v 0.141459 0.857019 0.528340
v 0.087202 0.857019 0.528340
v 0.087202 0.877875 0.480355
v 0.141459 0.877875 0.480355
v 0.141459 0.815744 0.484612
v 0.087202 0.815744 0.484612
v 0.087202 0.865333 0.465429
v 0.141459 0.865333 0.465429
v 0.141459 0.813923 0.403207
v 0.087202 0.813923 0.403207
v 0.087202 0.865333 0.403207
v 0.141459 0.865333 0.403207
vn 1.0000 -0.0000 -0.0000
vn -0.0000 0.9996 0.0289
vn -1.0000 -0.0000 -0.0000
vn -0.0000 -1.0000 -0.0000
vn -0.0000 0.6604 0.7509
vn -0.0000 -0.6522 -0.7580
vn -0.0000 -0.0021 1.0000
vn -0.0000 -0.0025 -1.0000
vn -0.0000 -0.7272 0.6864
vn -0.0000 0.7656 -0.6433
vn -0.0000 -0.9997 0.0224
vn -0.0000 1.0000 -0.0000
vt 0.944995 0.807532
vt 0.944995 0.784536
vt 0.944995 0.783437
vt 0.984114 0.806433
vt 0.984114 0.807532
vt 0.984114 0.784536
vt 0.984114 0.783437
vt 0.944995 0.783947
vt 0.944995 0.806433
vt 0.984114 0.783947
vt 0.984114 0.775575
vt 0.944995 0.674497
vt 0.944995 0.775575
vt 0.984114 0.664892
vt 0.984114 0.674497
vt 0.944995 0.645884
vt 0.944995 0.664892
vt 0.984114 0.645884
vt 0.944995 0.668302
vt 0.944995 0.645045
vt 0.984114 0.645045
vt 0.984114 0.668302
vt 0.944995 0.669141
vt 0.984114 0.669141
s 0
f 33/47/19 40/48/19 36/49/19
f 38/50/20 33/47/20 34/51/20
f 39/52/21 34/51/21 35/53/21
f 36/49/22 39/52/22 35/53/22
f 41/54/19 40/48/19 37/55/19
f 42/56/23 37/55/23 38/50/23
f 39/52/21 42/56/21 38/50/21
f 40/48/24 43/57/24 39/52/24
f 41/54/19 48/58/19 44/59/19
f 46/60/25 41/54/25 42/56/25
f 47/61/21 42/56/21 43/57/21
f 48/58/26 43/57/26 44/59/26
f 49/62/19 48/58/19 45/63/19
f 46/60/27 49/62/27 45/63/27
f 47/61/21 50/64/21 46/60/21
f 52/65/28 47/61/28 48/58/28
f 53/66/19 52/65/19 49/62/19
f 54/67/29 49/62/29 50/64/29
f 51/68/21 54/67/21 50/64/21
f 56/69/30 51/68/30 52/65/30
f 33/47/19 37/55/19 40/48/19
f 38/50/20 37/55/20 33/47/20
f 39/52/21 38/50/21 34/51/21
f 36/49/22 40/48/22 39/52/22
f 41/54/19 44/59/19 40/48/19
f 42/56/23 41/54/23 37/55/23
f 39/52/21 43/57/21 42/56/21
f 40/48/24 44/59/24 43/57/24
f 41/54/19 45/63/19 48/58/19
f 46/60/25 45/63/25 41/54/25
f 47/61/21 46/60/21 42/56/21
f 48/58/26 47/61/26 43/57/26
f 49/62/19 52/65/19 48/58/19
f 46/60/27 50/64/27 49/62/27
f 47/61/21 51/68/21 50/64/21
f 52/65/28 51/68/28 47/61/28
f 53/66/19 56/69/19 52/65/19
f 54/67/29 53/66/29 49/62/29
f 51/68/21 55/70/21 54/67/21
f 56/69/30 55/70/30 51/68/30
o Handle.004
v -0.094876 1.166747 0.403224
v -0.149132 1.166747 0.403224
v -0.149132 1.115620 0.403224
v -0.094876 1.115620 0.403224
v -0.094876 1.164360 0.485939
v -0.149132 1.164360 0.485939
v -0.149132 1.115620 0.464101
v -0.094876 1.115620 0.464101
v -0.094876 1.115533 0.528878
v -0.149132 1.115533 0.528878
v -0.149132 1.097355 0.479817
v -0.094876 1.097355 0.479817
v -0.094876 0.857019 0.528340
v -0.149132 0.857019 0.528340
v -0.149132 0.877875 0.480355
v -0.094876 0.877875 0.480355
v -0.094876 0.815744 0.484612
v -0.149132 0.815744 0.484612
v -0.149132 0.865333 0.465429
v -0.094876 0.865333 0.465429
v -0.094876 0.813923 0.403207
v -0.149132 0.813923 0.403207
v -0.149132 0.865333 0.403207
v -0.094876 0.865333 0.403207
vn 1.0000 -0.0000 -0.0000
vn -0.0000 0.9996 0.0289
vn -1.0000 -0.0000 -0.0000
vn -0.0000 -1.0000 -0.0000
vn -0.0000 0.6604 0.7509
vn -0.0000 -0.6522 -0.7580
vn -0.0000 -0.0021 1.0000
vn -0.0000 -0.0025 -1.0000
vn -0.0000 -0.7272 0.6864
vn -0.0000 0.7656 -0.6433
vn -0.0000 -0.9997 0.0224
vn -0.0000 1.0000 -0.0000
vt 0.944995 0.807532
vt 0.944995 0.784536
vt 0.944995 0.783437
vt 0.984114 0.806433
vt 0.984114 0.807532
vt 0.984114 0.784536
vt 0.984114 0.783437
vt 0.944995 0.783947
vt 0.944995 0.806433
vt 0.984114 0.783947
vt 0.944995 0.775575
vt 0.944995 0.674497
vt 0.984114 0.664892
vt 0.984114 0.674497
vt 0.984114 0.775575
vt 0.944995 0.645884
vt 0.944995 0.664892
vt 0.984114 0.645884
vt 0.944995 0.668302
vt 0.944995 0.645045
vt 0.984114 0.645045
vt 0.984114 0.668302
vt 0.984114 0.669141
vt 0.944995 0.669141
s 0
f 57/71/31 64/72/31 60/73/31
f 62/74/32 57/71/32 58/75/32
f 63/76/33 58/75/33 59/77/33
f 60/73/34 63/76/34 59/77/34
f 65/78/31 64/72/31 61/79/31
f 66/80/35 61/79/35 62/74/35
f 63/76/33 66/80/33 62/74/33
f 68/81/36 63/76/36 64/72/36
f 65/78/31 72/82/31 68/81/31
f 70/83/37 65/78/37 66/80/37
f 71/84/33 66/80/33 67/85/33
f 72/82/38 67/85/38 68/81/38
f 73/86/31 72/82/31 69/87/31
f 70/83/39 73/86/39 69/87/39
f 71/84/33 74/88/33 70/83/33
f 76/89/40 71/84/40 72/82/40
f 77/90/31 76/89/31 73/86/31
f 78/91/41 73/86/41 74/88/41
f 75/92/33 78/91/33 74/88/33
f 76/89/42 79/93/42 75/92/42
f 57/71/31 61/79/31 64/72/31
f 62/74/32 61/79/32 57/71/32
f 63/76/33 62/74/33 58/75/33
f 60/73/34 64/72/34 63/76/34
f 65/78/31 68/81/31 64/72/31
f 66/80/35 65/78/35 61/79/35
f 63/76/33 67/85/33 66/80/33
f 68/81/36 67/85/36 63/76/36
f 65/78/31 69/87/31 72/82/31
f 70/83/37 69/87/37 65/78/37
f 71/84/33 70/83/33 66/80/33
f 72/82/38 71/84/38 67/85/38
f 73/86/31 76/89/31 72/82/31
f 70/83/39 74/88/39 73/86/39
f 71/84/33 75/92/33 74/88/33
f 76/89/40 75/92/40 71/84/40
f 77/90/31 80/94/31 76/89/31
f 78/91/41 77/90/41 73/86/41
f 75/92/33 79/93/33 78/91/33
f 76/89/42 80/94/42 79/93/42
o ClosetShelf.001
v -0.451594 1.023763 0.307007
v -0.451594 1.071091 0.307007
v -0.451594 1.023763 -0.263494
v -0.451594 1.071091 -0.263494
v 0.451594 1.023763 0.307007
v 0.451594 1.071091 0.307007
v 0.451594 1.023763 -0.263494
v 0.451594 1.071091 -0.263494
vn -1.0000 -0.0000 -0.0000
vn -0.0000 -0.0000 -1.0000
vn 1.0000 -0.0000 -0.0000
vn -0.0000 -0.0000 1.0000
vn -0.0000 -1.0000 -0.0000
vn -0.0000 1.0000 -0.0000
vt 0.625000 0.000000
vt 0.375000 0.250000
vt 0.375000 0.000000
vt 0.625000 0.250000
vt 0.375000 0.500000
vt 0.625000 0.500000
vt 0.375000 0.750000
vt 0.625000 0.750000
vt 0.375000 1.000000
vt 0.125000 0.750000
vt 0.125000 0.500000
vt 0.875000 0.500000
vt 0.625000 1.000000
vt 0.875000 0.750000
s 0
f 82/95/43 83/96/43 81/97/43
f 84/98/44 87/99/44 83/96/44
f 88/100/45 85/101/45 87/99/45
f 86/102/46 81/103/46 85/101/46
f 87/99/47 81/104/47 83/105/47
f 84/106/48 86/102/48 88/100/48
f 82/95/43 84/98/43 83/96/43
f 84/98/44 88/100/44 87/99/44
f 88/100/45 86/102/45 85/101/45
f 86/102/46 82/107/46 81/103/46
f 87/99/47 85/101/47 81/104/47
f 84/106/48 82/108/48 86/102/48
o ClosetShelf1.001
v -0.451594 0.026100 0.307007
v -0.451594 0.745750 0.307007
v -0.451594 0.026100 -0.263494
v -0.451594 0.745750 -0.263494
v 0.451594 0.026100 0.307007
v 0.451594 0.745750 0.307007
v 0.451594 0.026100 -0.263494
v 0.451594 0.745750 -0.263494
vn -1.0000 -0.0000 -0.0000
vn -0.0000 -0.0000 -1.0000
vn 1.0000 -0.0000 -0.0000
vn -0.0000 -0.0000 1.0000
vn -0.0000 -1.0000 -0.0000
vn -0.0000 1.0000 -0.0000
vt 0.625000 0.000000
vt 0.375000 0.250000
vt 0.375000 0.000000
vt 0.625000 0.250000
vt 0.375000 0.500000
vt 0.625000 0.500000
vt 0.375000 0.750000
vt 0.625000 0.750000
vt 0.375000 1.000000
vt 0.125000 0.750000
vt 0.125000 0.500000
vt 0.875000 0.500000
vt 0.625000 1.000000
vt 0.875000 0.750000
s 0
f 90/109/49 91/110/49 89/111/49
f 92/112/50 95/113/50 91/110/50
f 96/114/51 93/115/51 95/113/51
f 94/116/52 89/117/52 93/115/52
f 95/113/53 89/118/53 91/119/53
f 92/120/54 94/116/54 96/114/54
f 90/109/49 92/112/49 91/110/49
f 92/112/50 96/114/50 95/113/50
f 96/114/51 94/116/51 93/115/51
f 94/116/52 90/121/52 89/117/52
f 95/113/53 93/115/53 89/118/53
f 92/120/54 90/122/54 94/116/54
