# Blender 4.5.14 LTS
# www.blender.org
mtllib bucket_blood.mtl
o bucket_blood
v 0.097082 0.000000 -0.070534 0.7412 0.7412 0.7412
v -0.037082 0.000000 -0.114127 0.7412 0.7412 0.7412
v -0.120000 0.000000 -0.000000 0.7412 0.7412 0.7412
v 0.000000 0.000000 0.000000 0.6667 0.6667 0.6667
v 0.097082 0.000000 0.070534 0.7372 0.7372 0.7372
v 0.120000 0.000000 0.000000 0.7412 0.7412 0.7412
v 0.121353 0.300000 -0.088168 0.9960 0.9960 0.9960
v 0.037082 0.000000 -0.114127 0.7412 0.7412 0.7412
v -0.097082 0.000000 -0.070534 0.7412 0.7412 0.7412
v -0.150000 0.300000 -0.000000 0.9882 0.9882 0.9882
v -0.097082 0.000000 0.070534 0.7412 0.7412 0.7412
v -0.037082 0.000000 0.114127 0.7412 0.7412 0.7412
v -0.046353 0.300000 0.142658 0.9882 0.9882 0.9882
v 0.037082 0.000000 0.114127 0.7412 0.7412 0.7412
v 0.150000 0.300000 0.000000 0.9843 0.9843 0.9843
v 0.046353 0.300000 -0.142658 0.9960 0.9960 0.9960
v -0.046353 0.300000 -0.142658 0.9960 0.9960 0.9960
v -0.047898 0.310000 -0.147414 0.9960 0.9960 0.9960
v -0.121353 0.300000 -0.088168 0.9921 0.9921 0.9921
v -0.155000 0.310000 -0.000000 0.9843 0.9843 0.9843
v -0.121353 0.300000 0.088168 0.9921 0.9921 0.9921
v 0.046353 0.300000 0.142658 0.9921 0.9921 0.9921
v 0.047898 0.310000 0.147414 0.9921 0.9921 0.9921
v -0.047898 0.310000 0.147414 0.9960 0.9960 0.9960
v 0.121353 0.300000 0.088168 0.9921 0.9921 0.9921
v 0.125398 0.310000 -0.091107 0.9921 0.9921 0.9921
v 0.145000 0.310000 0.000000 0.8039 0.8039 0.8039
v 0.047898 0.310000 -0.147414 0.9960 0.9960 0.9960
v -0.125398 0.310000 -0.091107 0.9882 0.9882 0.9882
v -0.125398 0.310000 0.091107 0.9960 0.9960 0.9960
v -0.117307 0.310000 0.085229 0.9294 0.9294 0.9294
v -0.145000 0.310000 -0.000000 0.8196 0.8196 0.8196
v 0.125398 0.310000 0.091107 0.9960 0.9960 0.9960
v 0.155000 0.310000 0.000000 0.9843 0.9843 0.9843
v 0.117307 0.310000 0.085229 0.9176 0.9176 0.9176
v 0.117307 0.310000 -0.085229 0.9215 0.9215 0.9215
v 0.115000 0.012000 0.000000 0.8078 0.8078 0.8078
v 0.035537 0.012000 -0.109371 0.8039 0.8039 0.8039
v 0.093037 0.012000 -0.067595 0.8000 0.8000 0.8000
v 0.044807 0.310000 -0.137903 0.9294 0.9294 0.9294
v -0.035537 0.012000 -0.109371 0.8000 0.8000 0.8000
v -0.044807 0.310000 -0.137903 0.9294 0.9294 0.9294
v -0.093037 0.012000 -0.067595 0.8078 0.8078 0.8078
v -0.117307 0.310000 -0.085229 0.9255 0.9255 0.9255
v -0.115000 0.012000 -0.000000 0.8039 0.8039 0.8039
v -0.093037 0.012000 0.067595 0.8078 0.8078 0.8078
v -0.044807 0.310000 0.137903 0.9215 0.9215 0.9215
v -0.035537 0.012000 0.109371 0.7960 0.7960 0.7960
v 0.044807 0.310000 0.137903 0.9294 0.9294 0.9294
v 0.035537 0.012000 0.109371 0.8117 0.8117 0.8117
v 0.093037 0.012000 0.067595 0.8039 0.8039 0.8039
v 0.142000 0.270000 0.000000 0.6980 0.6980 0.6980
v -0.043880 0.272000 -0.135050 0.7176 0.7176 0.7176
v -0.114880 0.270000 -0.083466 0.6980 0.6980 0.6980
v -0.142000 0.270000 -0.000000 0.6941 0.6941 0.6941
v -0.142000 0.272000 -0.000000 0.7137 0.7137 0.7137
v -0.043880 0.270000 0.135050 0.6980 0.6980 0.6980
v 0.043880 0.270000 0.135050 0.6980 0.6980 0.6980
v 0.043880 0.272000 0.135050 0.7176 0.7176 0.7176
v -0.043880 0.272000 0.135050 0.7176 0.7176 0.7176
v 0.114880 0.270000 0.083466 0.6980 0.6980 0.6980
v 0.142000 0.272000 0.000000 0.7098 0.7098 0.7098
v 0.114880 0.272000 -0.083466 0.7137 0.7137 0.7137
v 0.043880 0.272000 -0.135050 0.7176 0.7176 0.7176
v -0.114880 0.272000 -0.083466 0.7176 0.7176 0.7176
v -0.114880 0.272000 0.083466 0.7098 0.7098 0.7098
v 0.114880 0.272000 0.083466 0.7176 0.7176 0.7176
v -0.114880 0.270000 0.083466 0.6941 0.6941 0.6941
v -0.043880 0.270000 -0.135050 0.6980 0.6980 0.6980
v 0.043880 0.270000 -0.135050 0.6941 0.6941 0.6941
v 0.114880 0.270000 -0.083466 0.7020 0.7020 0.7020
v -0.158756 0.271377 -0.000000 0.9176 0.9176 0.9176
v -0.096901 0.417471 0.000000 0.8941 0.8941 0.8941
v -0.155000 0.270000 0.004000 0.9176 0.9176 0.9176
v -0.100000 0.420000 -0.004000 0.8078 0.8078 0.8078
v -0.151244 0.268623 0.000000 0.8745 0.8745 0.8745
v -0.103099 0.422529 -0.000000 0.9804 0.9804 0.9804
v -0.100000 0.420000 0.004000 0.8078 0.8078 0.8078
v 0.000000 0.456000 0.000000 0.9725 0.9725 0.9725
v 0.000000 0.460000 -0.004000 0.9882 0.9882 0.9882
v 0.000000 0.464000 -0.000000 1.0000 1.0000 1.0000
v 0.000000 0.460000 0.004000 0.9921 0.9921 0.9921
v 0.103099 0.422529 -0.000000 1.0000 1.0000 1.0000
v 0.100000 0.420000 0.004000 0.9607 0.9607 0.9607
v 0.096901 0.417471 0.000000 0.9098 0.9098 0.9098
v 0.151244 0.268623 0.000000 0.8235 0.8235 0.8235
v 0.100000 0.420000 -0.004000 0.9568 0.9568 0.9568
v 0.155000 0.270000 -0.004000 0.8902 0.8902 0.8902
v -0.155000 0.270000 -0.004000 0.9058 0.9058 0.9058
v 0.155000 0.270000 0.004000 0.8902 0.8902 0.8902
v 0.158756 0.271377 -0.000000 0.9568 0.9568 0.9568
v -0.134507 0.190000 0.038315 0.9098 0.9098 0.9098
v -0.127667 0.310000 0.057109 0.7764 0.7764 0.7764
v -0.131688 0.190000 0.037289 0.7882 0.7882 0.7882
v -0.134507 0.310000 0.038315 0.7725 0.7725 0.7725
v -0.124848 0.310000 0.056083 0.8862 0.8862 0.8862
v -0.131688 0.310000 0.037289 0.8706 0.8706 0.8706
v -0.124848 0.190000 0.056083 0.7882 0.7882 0.7882
v -0.127667 0.190000 0.057109 0.9098 0.9098 0.9098
v -0.073652 0.090000 0.103332 0.7294 0.7294 0.7294
v -0.088973 0.090000 0.090477 0.7294 0.7294 0.7294
v -0.090901 0.090000 0.092775 0.8157 0.8157 0.8157
v -0.090901 0.310000 0.092775 0.8666 0.8666 0.8666
v -0.073652 0.310000 0.103332 0.8941 0.8941 0.8941
v -0.075581 0.310000 0.105631 0.8666 0.8666 0.8666
v -0.088973 0.310000 0.090477 0.8862 0.8862 0.8862
v -0.075581 0.090000 0.105631 0.8196 0.8196 0.8196
v -0.034940 0.310000 0.140568 0.7764 0.7764 0.7764
v -0.015244 0.240000 0.144041 0.9098 0.9098 0.9098
v -0.015244 0.310000 0.144041 0.7764 0.7764 0.7764
v -0.014723 0.310000 0.141087 0.7764 0.7764 0.7764
v -0.034419 0.310000 0.137614 0.8862 0.8862 0.8862
v -0.034419 0.240000 0.137614 0.7725 0.7725 0.7725
v -0.014723 0.240000 0.141087 0.7960 0.7960 0.7960
v -0.034940 0.240000 0.140568 0.9058 0.9058 0.9058
v 0.124848 0.160000 0.056083 0.8784 0.8784 0.8784
v 0.131688 0.160000 0.037289 0.8823 0.8823 0.8823
v 0.122029 0.160000 0.055057 0.7686 0.7686 0.7686
v 0.128869 0.310000 0.036263 0.8784 0.8784 0.8784
v 0.131688 0.310000 0.037289 0.8078 0.8078 0.8078
v 0.124848 0.310000 0.056083 0.8196 0.8196 0.8196
v 0.122029 0.310000 0.055057 0.8823 0.8823 0.8823
v 0.128869 0.160000 0.036263 0.7686 0.7686 0.7686
v 0.192735 0.002000 0.018177 0.8588 0.8588 0.8588
v 0.040000 0.000000 -0.024000 0.6785 0.6785 0.6785
v 0.040000 0.002000 -0.024000 0.7216 0.7216 0.7216
v -0.112735 0.002000 0.018177 0.7568 0.7568 0.7568
v -0.112735 0.002000 0.221823 0.8745 0.8745 0.8745
v -0.176000 0.002000 0.120000 0.8666 0.8666 0.8666
v -0.112735 0.000000 0.221823 0.7725 0.7725 0.7725
v 0.192735 0.002000 0.221823 0.8862 0.8862 0.8862
v 0.040000 0.002000 0.264000 0.8784 0.8784 0.8784
v 0.192735 0.000000 0.221823 0.7764 0.7764 0.7764
v 0.256000 0.000000 0.120000 0.7764 0.7764 0.7764
v 0.256000 0.002000 0.120000 0.8823 0.8823 0.8823
v 0.040000 0.000000 0.264000 0.7764 0.7764 0.7764
v -0.176000 0.000000 0.120000 0.7686 0.7686 0.7686
v -0.112735 0.000000 0.018177 0.7176 0.7176 0.7176
v 0.192735 0.000000 0.018177 0.7725 0.7725 0.7725
vn -0.0000 -1.0000 -0.0000
vn 0.9950 -0.0995 -0.0000
vn 0.8050 -0.0995 -0.5849
vn 0.7748 -0.2880 -0.5629
vn 0.9576 -0.2880 -0.0000
vn 0.3075 -0.0995 -0.9463
vn 0.2959 -0.2880 -0.9108
vn -0.3075 -0.0995 -0.9463
vn -0.2959 -0.2880 -0.9108
vn -0.8050 -0.0995 -0.5849
vn -0.7748 -0.2880 -0.5629
vn -0.9950 -0.0995 -0.0000
vn -0.9576 -0.2880 -0.0000
vn -0.8050 -0.0995 0.5849
vn -0.7748 -0.2880 0.5629
vn -0.3075 -0.0995 0.9463
vn -0.2959 -0.2880 0.9108
vn 0.3075 -0.0995 0.9463
vn 0.2959 -0.2880 0.9108
vn 0.8050 -0.0995 0.5849
vn 0.7748 -0.2880 0.5629
vn 0.7236 -0.4472 -0.5257
vn 0.8944 -0.4472 -0.0000
vn 0.2764 -0.4472 -0.8507
vn -0.2764 -0.4472 -0.8507
vn -0.7236 -0.4472 -0.5257
vn -0.8944 -0.4472 -0.0000
vn -0.7236 -0.4472 0.5257
vn -0.2764 -0.4472 0.8507
vn 0.2764 -0.4472 0.8507
vn 0.7236 -0.4472 0.5257
vn -0.0000 1.0000 -0.0000
vn -0.9950 0.1002 -0.0000
vn -0.8049 0.1002 0.5848
vn -0.3075 0.1002 0.9463
vn 0.3075 0.1002 0.9463
vn 0.8049 0.1002 0.5848
vn 0.9950 0.1002 -0.0000
vn 0.8049 0.1002 -0.5848
vn 0.3075 0.1002 -0.9463
vn -0.3075 0.1002 -0.9463
vn -0.8049 0.1002 -0.5848
vn 1.0000 -0.0000 -0.0000
vn 0.8090 -0.0000 -0.5878
vn 0.3090 -0.0000 -0.9511
vn -0.3090 -0.0000 -0.9511
vn -0.8090 -0.0000 -0.5878
vn -1.0000 -0.0000 -0.0000
vn -0.8090 -0.0000 0.5878
vn -0.3090 -0.0000 0.9511
vn 0.3090 -0.0000 0.9511
vn 0.8090 -0.0000 0.5878
vn -0.1326 0.0756 -0.9883
vn -0.1519 0.0866 -0.9846
vn -0.1297 0.0739 -0.9888
vn -0.1519 0.0866 0.9846
vn -0.1326 0.0756 0.9883
vn -0.1297 0.0739 0.9888
vn -0.1133 0.0646 0.9915
vn -0.1133 0.0646 -0.9915
vn 0.2751 -0.6899 0.6696
vn -0.0000 -0.7176 0.6965
vn 0.2751 -0.6899 -0.6696
vn -0.0000 -0.7176 -0.6965
vn -0.2765 0.6893 -0.6696
vn -0.0000 0.7173 -0.6968
vn -0.2765 0.6893 0.6696
vn -0.0000 0.7173 0.6968
vn -0.4903 -0.4977 0.7155
vn -0.5063 -0.4798 0.7166
vn -0.5063 -0.4798 -0.7166
vn -0.4903 -0.4977 -0.7155
vn 0.5065 0.4799 -0.7164
vn 0.4906 0.4977 -0.7153
vn 0.4906 0.4977 0.7153
vn 0.5065 0.4799 0.7164
vn -0.6733 -0.2463 0.6972
vn -0.6733 -0.2463 -0.6972
vn 0.6728 0.2472 -0.6972
vn 0.6728 0.2472 0.6972
vn -0.3443 -0.9389 -0.0000
vn 0.3443 -0.9389 -0.0000
vn -0.9397 -0.0000 0.3420
vn 0.9397 -0.0000 -0.3420
vn -0.3420 -0.0000 -0.9397
vn 0.3420 -0.0000 0.9397
vn -0.6428 -0.0000 0.7660
vn 0.6428 -0.0000 -0.7660
vn -0.7660 -0.0000 -0.6428
vn 0.7660 -0.0000 0.6428
vn -0.1736 -0.0000 0.9848
vn 0.1736 -0.0000 -0.9848
vn -0.9848 -0.0000 -0.1736
vn 0.9848 -0.0000 0.1736
vn 0.9397 -0.0000 0.3420
vn -0.9397 -0.0000 -0.3420
vn -0.3420 -0.0000 0.9397
vn 0.3420 -0.0000 -0.9397
vn 0.8494 -0.0000 -0.5277
vn 0.5989 -0.0000 -0.8008
vn -0.0000 -0.0000 -1.0000
vn -0.5989 -0.0000 -0.8008
vn -0.8494 -0.0000 -0.5277
vn -0.8494 -0.0000 0.5277
vn -0.5989 -0.0000 0.8008
vn -0.0000 -0.0000 1.0000
vn 0.5989 -0.0000 0.8008
vn 0.8494 -0.0000 0.5277
vt 0.816504 0.938477
vt 0.819531 0.948266
vt 0.813477 0.948266
vt 0.822559 0.938477
vt 0.825586 0.948266
vt 0.828613 0.938477
vt 0.831641 0.948266
vt 0.834668 0.938477
vt 0.837695 0.948266
vt 0.840723 0.938477
vt 0.843750 0.948266
vt 0.846777 0.938477
vt 0.849805 0.948266
vt 0.852832 0.938477
vt 0.855859 0.948266
vt 0.858887 0.938477
vt 0.861914 0.948266
vt 0.864941 0.938477
vt 0.867969 0.948266
vt 0.870996 0.938477
vt 0.874023 0.948266
vt 0.819531 0.972862
vt 0.813477 0.972862
vt 0.825586 0.972862
vt 0.831641 0.972862
vt 0.837695 0.972862
vt 0.843750 0.972862
vt 0.849805 0.972862
vt 0.855859 0.972862
vt 0.861914 0.972862
vt 0.867969 0.972862
vt 0.874023 0.972862
vt 0.819531 0.973774
vt 0.813477 0.973774
vt 0.825586 0.973774
vt 0.831641 0.973774
vt 0.837695 0.973774
vt 0.843750 0.973774
vt 0.849805 0.973774
vt 0.855859 0.973774
vt 0.861914 0.973774
vt 0.867969 0.973774
vt 0.874023 0.973774
vt 0.819531 0.974590
vt 0.813477 0.974590
vt 0.825586 0.974590
vt 0.831641 0.974590
vt 0.837695 0.974590
vt 0.843750 0.974590
vt 0.849805 0.974590
vt 0.855859 0.974590
vt 0.861914 0.974590
vt 0.867969 0.974590
vt 0.874023 0.974590
vt 0.819531 0.999023
vt 0.813477 0.999023
vt 0.825586 0.999023
vt 0.831641 0.999023
vt 0.837695 0.999023
vt 0.843750 0.999023
vt 0.849805 0.999023
vt 0.855859 0.999023
vt 0.861914 0.999023
vt 0.867969 0.999023
vt 0.874023 0.999023
vt 0.282227 0.641602
vt 0.286719 0.641602
vt 0.286719 0.686523
vt 0.282227 0.686523
vt 0.291211 0.641602
vt 0.291211 0.686523
vt 0.295703 0.641602
vt 0.295703 0.686523
vt 0.300195 0.641602
vt 0.300195 0.686523
vt 0.304688 0.641602
vt 0.304688 0.686523
vt 0.309180 0.641602
vt 0.309180 0.686523
vt 0.313672 0.641602
vt 0.313672 0.686523
vt 0.318164 0.641602
vt 0.318164 0.686523
vt 0.322656 0.641602
vt 0.322656 0.686523
vt 0.327148 0.641602
vt 0.327148 0.686523
vt 0.327148 0.664062
vt 0.322859 0.677944
vt 0.311628 0.686523
vt 0.297747 0.686523
vt 0.286516 0.677944
vt 0.282227 0.664062
vt 0.286516 0.650181
vt 0.297747 0.641602
vt 0.311628 0.641602
vt 0.322859 0.650181
vt 0.125977 0.688477
vt 0.141113 0.688477
vt 0.141113 0.703613
vt 0.125977 0.703613
vt 0.156250 0.688477
vt 0.156250 0.703613
vt 0.171387 0.688477
vt 0.171387 0.703613
vt 0.186523 0.688477
vt 0.186523 0.703613
vt 0.141113 0.718750
vt 0.125977 0.718750
vt 0.156250 0.718750
vt 0.171387 0.718750
vt 0.186523 0.718750
vt 0.141113 0.733887
vt 0.125977 0.733887
vt 0.156250 0.733887
vt 0.171387 0.733887
vt 0.186523 0.733887
vt 0.141113 0.749023
vt 0.125977 0.749023
vt 0.156250 0.749023
vt 0.171387 0.749023
vt 0.186523 0.749023
vt 0.688477 0.938477
vt 0.698164 0.938477
vt 0.698164 0.996602
vt 0.688477 0.996602
vt 0.689930 0.938477
vt 0.689930 0.996602
vt 0.698164 0.939930
vt 0.688477 0.939930
vt 0.693981 0.938477
vt 0.693981 0.999023
vt 0.688477 0.999023
vt 0.689302 0.938477
vt 0.689302 0.999023
vt 0.698164 0.972383
vt 0.688477 0.972383
vt 0.689930 0.972383
vt 0.696549 0.938477
vt 0.696549 0.999023
vt 0.689687 0.938477
vt 0.689687 0.999023
vt 0.696045 0.938477
vt 0.696045 0.999023
vt 0.703613 0.938477
vt 0.703613 0.999023
vt 0.711182 0.938477
vt 0.711182 0.999023
vt 0.718750 0.938477
vt 0.718750 0.999023
vt 0.726318 0.938477
vt 0.726318 0.999023
vt 0.733887 0.938477
vt 0.733887 0.999023
vt 0.741455 0.938477
vt 0.741455 0.999023
vt 0.749023 0.938477
vt 0.749023 0.999023
vt 0.749023 0.968750
vt 0.740157 0.990157
vt 0.697343 0.990157
vt 0.688477 0.968750
vt 0.697343 0.947343
vt 0.740157 0.947343
s 1
usemtl props
f 4/1/1 1/2/1 6/3/1
f 4/4/1 8/5/1 1/2/1
f 4/6/1 2/7/1 8/5/1
f 4/8/1 9/9/1 2/7/1
f 4/10/1 3/11/1 9/9/1
f 4/12/1 11/13/1 3/11/1
f 4/14/1 12/15/1 11/13/1
f 4/16/1 14/17/1 12/15/1
f 4/18/1 5/19/1 14/17/1
f 4/20/1 6/21/1 5/19/1
f 6/3/2 1/2/3 7/22/4 15/23/5
f 1/2/3 8/5/6 16/24/7 7/22/4
f 8/5/6 2/7/8 17/25/9 16/24/7
f 2/7/8 9/9/10 19/26/11 17/25/9
f 9/9/10 3/11/12 10/27/13 19/26/11
f 3/11/12 11/13/14 21/28/15 10/27/13
f 11/13/14 12/15/16 13/29/17 21/28/15
f 12/15/16 14/17/18 22/30/19 13/29/17
f 14/17/18 5/19/20 25/31/21 22/30/19
f 5/19/20 6/21/2 15/32/5 25/31/21
f 15/23/5 7/22/4 26/33/22 34/34/23
f 7/22/4 16/24/7 28/35/24 26/33/22
f 16/24/7 17/25/9 18/36/25 28/35/24
f 17/25/9 19/26/11 29/37/26 18/36/25
f 19/26/11 10/27/13 20/38/27 29/37/26
f 10/27/13 21/28/15 30/39/28 20/38/27
f 21/28/15 13/29/17 24/40/29 30/39/28
f 13/29/17 22/30/19 23/41/30 24/40/29
f 22/30/19 25/31/21 33/42/31 23/41/30
f 25/31/21 15/32/5 34/43/23 33/42/31
f 34/34/32 26/33/32 36/44/32 27/45/32
f 26/33/32 28/35/32 40/46/32 36/44/32
f 28/35/32 18/36/32 42/47/32 40/46/32
f 18/36/32 29/37/32 44/48/32 42/47/32
f 29/37/32 20/38/32 32/49/32 44/48/32
f 20/38/32 30/39/32 31/50/32 32/49/32
f 30/39/32 24/40/32 47/51/32 31/50/32
f 24/40/32 23/41/32 49/52/32 47/51/32
f 23/41/32 33/42/32 35/53/32 49/52/32
f 33/42/32 34/43/32 27/54/32 35/53/32
f 27/45/33 36/44/34 39/55/34 37/56/33
f 36/44/34 40/46/35 38/57/35 39/55/34
f 40/46/35 42/47/36 41/58/36 38/57/35
f 42/47/36 44/48/37 43/59/37 41/58/36
f 44/48/37 32/49/38 45/60/38 43/59/37
f 32/49/38 31/50/39 46/61/39 45/60/38
f 31/50/39 47/51/40 48/62/40 46/61/39
f 47/51/40 49/52/41 50/63/41 48/62/40
f 49/52/41 35/53/42 51/64/42 50/63/41
f 35/53/42 27/54/33 37/65/33 51/64/42
f 52/66/43 71/67/44 63/68/44 62/69/43
f 71/67/44 70/70/45 64/71/45 63/68/44
f 70/70/45 69/72/46 53/73/46 64/71/45
f 69/72/46 54/74/47 65/75/47 53/73/46
f 54/74/47 55/76/48 56/77/48 65/75/47
f 55/76/48 68/78/49 66/79/49 56/77/48
f 68/78/49 57/80/50 60/81/50 66/79/49
f 57/80/50 58/82/51 59/83/51 60/81/50
f 58/82/51 61/84/52 67/85/52 59/83/51
f 61/84/52 52/86/43 62/87/43 67/85/52
s 0
f 62/88/32 63/89/32 64/90/32 53/91/32 65/92/32 56/93/32 66/94/32 60/95/32 59/96/32 67/97/32
f 61/89/1 58/90/1 57/91/1 68/92/1 55/93/1 54/94/1 69/95/1 70/96/1 71/97/1 52/88/1
s 1
f 89/98/53 72/99/54 73/100/54 78/101/55
f 72/99/56 74/102/57 75/103/58 73/100/56
f 74/102/57 76/104/59 77/105/59 75/103/58
f 76/104/60 89/106/53 78/107/55 77/105/60
f 78/101/61 73/100/61 79/108/62 82/109/62
f 73/100/63 75/103/63 80/110/64 79/108/64
f 75/103/65 77/105/65 81/111/66 80/110/66
f 77/105/67 78/107/67 82/112/68 81/111/68
f 82/109/62 79/108/62 85/113/69 84/114/70
f 79/108/64 80/110/64 87/115/71 85/113/72
f 80/110/66 81/111/66 83/116/73 87/115/74
f 81/111/68 82/112/68 84/117/75 83/116/76
f 84/114/70 85/113/69 86/118/77 90/119/77
f 85/113/72 87/115/71 88/120/78 86/118/78
f 87/115/74 83/116/73 91/121/79 88/120/79
f 83/116/76 84/117/75 90/122/80 91/121/80
s 0
f 76/112/81 74/120/81 72/109/81 89/102/81
f 90/120/82 86/109/82 88/102/82 91/112/82
f 92/123/83 99/124/83 93/125/83 95/126/83
f 98/123/84 94/124/84 97/125/84 96/126/84
f 94/123/85 92/127/85 95/128/85 97/126/85
f 99/123/86 98/127/86 96/128/86 93/126/86
f 95/123/32 93/124/32 96/129/32 97/130/32
f 94/123/1 98/124/1 99/129/1 92/130/1
f 102/123/87 107/131/87 105/132/87 103/133/87
f 100/123/88 101/131/88 106/132/88 104/133/88
f 101/123/89 102/134/89 103/135/89 106/133/89
f 107/123/90 100/134/90 104/135/90 105/133/90
f 103/123/32 105/124/32 104/129/32 106/130/32
f 101/123/1 100/124/1 107/129/1 102/130/1
f 115/123/91 109/124/91 110/136/91 108/137/91
f 114/123/92 113/124/92 112/136/92 111/137/92
f 113/123/93 115/127/93 108/138/93 112/137/93
f 109/123/94 114/127/94 111/138/94 110/137/94
f 108/123/32 110/124/32 111/129/32 112/130/32
f 113/123/1 114/124/1 109/129/1 115/130/1
f 116/123/95 117/139/95 120/140/95 121/133/95
f 123/123/96 118/139/96 122/140/96 119/133/96
f 118/123/97 116/141/97 121/142/97 122/133/97
f 117/123/98 123/141/98 119/142/98 120/133/98
f 121/123/32 120/124/32 119/129/32 122/130/32
f 118/123/1 123/124/1 117/129/1 116/130/1
s 1
f 134/123/99 139/143/100 124/144/100 135/133/99
f 139/143/100 125/145/101 126/146/101 124/144/100
f 125/145/101 138/147/102 127/148/102 126/146/101
f 138/147/102 137/149/103 129/150/103 127/148/102
f 137/149/104 130/151/105 128/152/105 129/150/104
f 130/151/105 136/153/106 132/154/106 128/152/105
f 136/153/106 133/155/107 131/156/107 132/154/106
f 133/155/107 134/157/108 135/158/108 131/156/107
s 0
f 135/159/32 124/160/32 126/150/32 127/161/32 129/162/32 128/163/32 132/149/32 131/164/32
f 133/160/1 136/150/1 130/161/1 137/162/1 138/163/1 125/149/1 139/164/1 134/159/1
