# Blender 4.5.14 LTS
# www.blender.org
mtllib candle_cluster.mtl
o candle_cluster
v 0.161803 0.000000 -0.117557 0.6667 0.6667 0.6667
v -0.161803 0.006000 -0.117557 0.8745 0.8745 0.8745
v -0.061803 0.006000 -0.190211 0.8745 0.8745 0.8745
v -0.161803 0.000000 -0.117557 0.7725 0.7725 0.7725
v -0.200000 0.000000 -0.000000 0.7686 0.7686 0.7686
v -0.161803 0.006000 0.117557 0.8549 0.8549 0.8549
v -0.200000 0.006000 -0.000000 0.8666 0.8666 0.8666
v -0.161803 0.000000 0.117557 0.7686 0.7686 0.7686
v -0.061803 0.000000 0.190211 0.7686 0.7686 0.7686
v -0.061803 0.006000 0.190211 0.8627 0.8627 0.8627
v 0.061803 0.006000 0.190211 0.8666 0.8666 0.8666
v 0.061803 0.000000 0.190211 0.7686 0.7686 0.7686
v 0.161803 0.006000 0.117557 0.8588 0.8588 0.8588
v 0.200000 0.000000 0.000000 0.7686 0.7686 0.7686
v 0.200000 0.006000 0.000000 0.7764 0.7764 0.7764
v 0.161803 0.006000 -0.117557 0.6667 0.6667 0.6667
v 0.061803 0.006000 -0.190211 0.8627 0.8627 0.8627
v 0.161803 0.000000 0.117557 0.7725 0.7725 0.7725
v -0.061803 0.000000 -0.190211 0.7764 0.7764 0.7764
v 0.061803 0.000000 -0.190211 0.7725 0.7725 0.7725
v 0.174819 0.012000 -0.153820 0.8706 0.8706 0.8706
v 0.220000 0.012000 -0.060000 0.8706 0.8706 0.8706
v 0.174819 0.000000 -0.153820 0.7764 0.7764 0.7764
v 0.073297 0.000000 -0.176991 0.6667 0.6667 0.6667
v -0.008116 0.000000 -0.112066 0.6667 0.6667 0.6667
v 0.073297 0.012000 0.056991 0.7843 0.7843 0.7843
v 0.073297 0.000000 0.056991 0.6667 0.6667 0.6667
v 0.174819 0.000000 0.033820 0.6667 0.6667 0.6667
v 0.174819 0.012000 0.033820 0.6667 0.6667 0.6667
v 0.073297 0.012000 -0.176991 0.8666 0.8666 0.8666
v -0.008116 0.012000 -0.112066 0.8117 0.8117 0.8117
v -0.008116 0.012000 -0.007934 0.7294 0.7294 0.7294
v -0.008116 0.000000 -0.007934 0.6667 0.6667 0.6667
v 0.220000 0.000000 -0.060000 0.7764 0.7764 0.7764
v -0.107301 0.004000 0.018010 0.7176 0.7176 0.7176
v -0.100000 0.004000 0.050000 0.6667 0.6667 0.6667
v -0.129563 0.004000 0.064237 0.7333 0.7333 0.7333
v -0.067187 0.004000 0.050000 0.7098 0.7098 0.7098
v -0.079542 0.004000 0.075654 0.7059 0.7059 0.7059
v -0.079542 0.004000 0.024346 0.7059 0.7059 0.7059
v -0.129563 0.004000 0.035763 0.7372 0.7372 0.7372
v -0.129563 0.226893 0.064237 0.9843 0.9843 0.9843
v -0.107301 0.226893 0.081990 0.9764 0.9764 0.9764
v -0.107301 0.004000 0.081990 0.6902 0.6902 0.6902
v -0.079542 0.226893 0.075654 0.9647 0.9647 0.9647
v -0.067187 0.226893 0.050000 0.9686 0.9686 0.9686
v -0.087725 0.221893 0.034608 0.9725 0.9725 0.9725
v -0.079542 0.226893 0.024346 0.9607 0.9607 0.9607
v -0.107301 0.226893 0.018010 0.9686 0.9686 0.9686
v -0.129563 0.226893 0.035763 0.9843 0.9843 0.9843
v -0.080312 0.221893 0.050000 0.9647 0.9647 0.9647
v -0.100000 0.222893 0.050000 0.6667 0.6667 0.6667
v -0.104381 0.221893 0.030806 0.9686 0.9686 0.9686
v -0.117738 0.221893 0.041458 0.9647 0.9647 0.9647
v -0.117738 0.221893 0.058542 0.9647 0.9647 0.9647
v -0.104381 0.221893 0.069194 0.9725 0.9725 0.9725
v -0.087725 0.221893 0.065392 0.9647 0.9647 0.9647
v -0.083032 0.226893 0.082390 0.9686 0.9686 0.9686
v -0.083859 0.115338 0.079506 0.7372 0.7372 0.7372
v -0.098052 0.115338 0.083576 0.7255 0.7255 0.7255
v -0.097226 0.115338 0.086460 0.7843 0.7843 0.7843
v -0.097226 0.226893 0.086460 0.9647 0.9647 0.9647
v -0.098052 0.226893 0.083576 0.8470 0.8470 0.8470
v -0.083032 0.115338 0.082390 0.8157 0.8157 0.8157
v -0.083859 0.226893 0.079506 0.8353 0.8353 0.8353
v -0.064423 0.152972 0.041556 0.8902 0.8902 0.8902
v -0.070663 0.152972 0.028174 0.8784 0.8784 0.8784
v -0.070663 0.226893 0.028174 0.9372 0.9372 0.9372
v -0.064423 0.226893 0.041556 0.9529 0.9529 0.9529
v -0.073382 0.226893 0.029442 0.8431 0.8431 0.8431
v -0.067142 0.152972 0.042824 0.7568 0.7568 0.7568
v -0.067142 0.226893 0.042824 0.8470 0.8470 0.8470
v -0.073382 0.152972 0.029442 0.7451 0.7451 0.7451
v -0.098500 0.221893 0.050000 0.6667 0.6667 0.6667
v -0.098500 0.233893 0.050000 0.9137 0.9137 0.9137
v -0.100000 0.221893 0.048500 0.6667 0.6667 0.6667
v -0.100000 0.233893 0.048500 0.9098 0.9098 0.9098
v -0.101500 0.221893 0.050000 0.6667 0.6667 0.6667
v -0.100000 0.221893 0.051500 0.6667 0.6667 0.6667
v -0.101500 0.233893 0.050000 0.9098 0.9098 0.9098
v -0.100000 0.233893 0.051500 0.9137 0.9137 0.9137
v 0.020161 0.004000 0.084719 0.6667 0.6667 0.6667
v 0.000000 0.004000 0.110000 0.6667 0.6667 0.6667
v -0.007195 0.004000 0.078476 0.6667 0.6667 0.6667
v -0.029133 0.004000 0.095970 0.6667 0.6667 0.6667
v -0.029133 0.004000 0.124030 0.6667 0.6667 0.6667
v 0.020161 0.004000 0.135281 0.6667 0.6667 0.6667
v -0.007195 0.004000 0.141524 0.6667 0.6667 0.6667
v 0.032335 0.004000 0.110000 0.6667 0.6667 0.6667
v 0.020161 0.154369 0.084719 0.9372 0.9372 0.9372
v -0.029133 0.154369 0.095970 0.8941 0.8941 0.8941
v -0.007195 0.154369 0.141524 0.9647 0.9647 0.9647
v -0.029133 0.154369 0.124030 0.8470 0.8470 0.8470
v 0.020161 0.154369 0.135281 0.9686 0.9686 0.9686
v 0.032335 0.154369 0.110000 0.9451 0.9451 0.9451
v 0.012096 0.149369 0.094832 0.9529 0.9529 0.9529
v -0.007195 0.154369 0.078476 0.9255 0.9255 0.9255
v -0.017480 0.149369 0.101582 0.9451 0.9451 0.9451
v 0.012096 0.149369 0.125168 0.9490 0.9490 0.9490
v -0.004317 0.149369 0.128915 0.9568 0.9568 0.9568
v 0.019401 0.149369 0.110000 0.9529 0.9529 0.9529
v -0.004317 0.149369 0.091085 0.9568 0.9568 0.9568
v 0.000000 0.150369 0.110000 0.6667 0.6667 0.6667
v -0.017480 0.149369 0.118418 0.9490 0.9490 0.9490
v -0.027076 0.067805 0.133841 0.8078 0.8078 0.8078
v -0.015455 0.067805 0.142598 0.8706 0.8706 0.8706
v -0.027076 0.154369 0.133841 0.8745 0.8745 0.8745
v -0.025270 0.067805 0.131446 0.6902 0.6902 0.6902
v -0.025270 0.154369 0.131446 0.7529 0.7529 0.7529
v -0.013649 0.154369 0.140202 0.8392 0.8392 0.8392
v -0.013649 0.067805 0.140202 0.7568 0.7568 0.7568
v -0.015455 0.154369 0.142598 0.9607 0.9607 0.9607
v -0.034615 0.088977 0.120165 0.8078 0.8078 0.8078
v -0.027783 0.088977 0.133013 0.8588 0.8588 0.8588
v -0.027783 0.154369 0.133013 0.9098 0.9098 0.9098
v -0.031966 0.088977 0.118757 0.7255 0.7255 0.7255
v -0.025135 0.154369 0.131604 0.7843 0.7843 0.7843
v -0.034615 0.154369 0.120165 0.8784 0.8784 0.8784
v -0.031966 0.154369 0.118757 0.8117 0.8117 0.8117
v -0.025135 0.088977 0.131604 0.6667 0.6667 0.6667
v 0.001500 0.149369 0.110000 0.6667 0.6667 0.6667
v 0.001500 0.161369 0.110000 0.9058 0.9058 0.9058
v 0.000000 0.149369 0.108500 0.6667 0.6667 0.6667
v 0.000000 0.161369 0.108500 0.8902 0.8902 0.8902
v -0.001500 0.149369 0.110000 0.6667 0.6667 0.6667
v -0.000000 0.161369 0.111500 0.9019 0.9019 0.9019
v -0.001500 0.161369 0.110000 0.8823 0.8823 0.8823
v -0.000000 0.149369 0.111500 0.6667 0.6667 0.6667
v 0.120000 0.004000 0.060000 0.6667 0.6667 0.6667
v 0.145275 0.004000 0.060000 0.6667 0.6667 0.6667
v 0.145275 0.072910 0.060000 0.8549 0.8549 0.8549
v 0.132637 0.004000 0.038112 0.6667 0.6667 0.6667
v 0.132637 0.072910 0.038112 0.8313 0.8313 0.8313
v 0.107363 0.004000 0.038112 0.6667 0.6667 0.6667
v 0.094725 0.004000 0.060000 0.6667 0.6667 0.6667
v 0.094725 0.072910 0.060000 0.8706 0.8706 0.8706
v 0.107363 0.072910 0.081888 0.8666 0.8666 0.8666
v 0.107363 0.004000 0.081888 0.6667 0.6667 0.6667
v 0.132637 0.004000 0.081888 0.6667 0.6667 0.6667
v 0.127582 0.067910 0.046867 0.8941 0.8941 0.8941
v 0.107363 0.072910 0.038112 0.8627 0.8627 0.8627
v 0.104835 0.067910 0.060000 0.8902 0.8902 0.8902
v 0.112418 0.067910 0.073133 0.9019 0.9019 0.9019
v 0.132637 0.072910 0.081888 0.8902 0.8902 0.8902
v 0.135165 0.067910 0.060000 0.9019 0.9019 0.9019
v 0.112418 0.067910 0.046867 0.8941 0.8941 0.8941
v 0.120000 0.068910 0.060000 0.6667 0.6667 0.6667
v 0.127582 0.067910 0.073133 0.8941 0.8941 0.8941
v 0.137608 0.045083 0.082842 0.8274 0.8274 0.8274
v 0.145070 0.045083 0.074258 0.8196 0.8196 0.8196
v 0.145070 0.072910 0.074258 0.8431 0.8431 0.8431
v 0.137608 0.072910 0.082842 0.8706 0.8706 0.8706
v 0.142806 0.045083 0.072290 0.6667 0.6667 0.6667
v 0.135344 0.045083 0.080873 0.7137 0.7137 0.7137
v 0.135344 0.072910 0.080873 0.7960 0.7960 0.7960
v 0.142806 0.072910 0.072290 0.7608 0.7608 0.7608
v 0.148702 0.033365 0.062828 0.7843 0.7843 0.7843
v 0.148702 0.072910 0.062828 0.8157 0.8157 0.8157
v 0.145833 0.033365 0.061951 0.6941 0.6941 0.6941
v 0.142508 0.033365 0.072828 0.7216 0.7216 0.7216
v 0.142508 0.072910 0.072828 0.7843 0.7843 0.7843
v 0.145833 0.072910 0.061951 0.7372 0.7372 0.7372
v 0.145376 0.033365 0.073705 0.8235 0.8235 0.8235
v 0.145376 0.072910 0.073705 0.8745 0.8745 0.8745
v 0.121500 0.067910 0.060000 0.6667 0.6667 0.6667
v 0.120000 0.067910 0.058500 0.6667 0.6667 0.6667
v 0.118500 0.067910 0.060000 0.6667 0.6667 0.6667
v 0.118500 0.079910 0.060000 0.8666 0.8666 0.8666
v 0.120000 0.079910 0.058500 0.8470 0.8470 0.8470
v 0.120000 0.079910 0.061500 0.8706 0.8706 0.8706
v 0.120000 0.067910 0.061500 0.6667 0.6667 0.6667
v 0.121500 0.079910 0.060000 0.8509 0.8509 0.8509
v 0.047893 0.004000 -0.070970 0.6667 0.6667 0.6667
v 0.060000 0.004000 -0.050000 0.6667 0.6667 0.6667
v 0.084214 0.004000 -0.050000 0.6667 0.6667 0.6667
v 0.072107 0.097994 -0.070970 0.8862 0.8862 0.8862
v 0.072107 0.004000 -0.070970 0.6667 0.6667 0.6667
v 0.047893 0.097994 -0.070970 0.8706 0.8706 0.8706
v 0.035786 0.004000 -0.050000 0.6667 0.6667 0.6667
v 0.047893 0.097994 -0.029030 0.8274 0.8274 0.8274
v 0.035786 0.097994 -0.050000 0.8588 0.8588 0.8588
v 0.047893 0.004000 -0.029030 0.6667 0.6667 0.6667
v 0.072107 0.097994 -0.029030 0.8274 0.8274 0.8274
v 0.072107 0.004000 -0.029030 0.6667 0.6667 0.6667
v 0.067264 0.092994 -0.062582 0.8941 0.8941 0.8941
v 0.074528 0.092994 -0.050000 0.8980 0.8980 0.8980
v 0.045472 0.092994 -0.050000 0.8902 0.8902 0.8902
v 0.052736 0.092994 -0.037418 0.8941 0.8941 0.8941
v 0.084214 0.097994 -0.050000 0.8862 0.8862 0.8862
v 0.067264 0.092994 -0.037418 0.8941 0.8941 0.8941
v 0.052736 0.092994 -0.062582 0.8941 0.8941 0.8941
v 0.060000 0.093994 -0.050000 0.6667 0.6667 0.6667
v 0.043954 0.036666 -0.027355 0.7764 0.7764 0.7764
v 0.053908 0.036666 -0.022923 0.7529 0.7529 0.7529
v 0.053908 0.097994 -0.022923 0.8274 0.8274 0.8274
v 0.043954 0.097994 -0.027355 0.8196 0.8196 0.8196
v 0.045174 0.036666 -0.030096 0.7294 0.7294 0.7294
v 0.045174 0.097994 -0.030096 0.7647 0.7647 0.7647
v 0.055129 0.036666 -0.025664 0.6902 0.6902 0.6902
v 0.055129 0.097994 -0.025664 0.7882 0.7882 0.7882
v 0.067033 0.030455 -0.023152 0.7686 0.7686 0.7686
v 0.067033 0.097994 -0.023152 0.8274 0.8274 0.8274
v 0.075511 0.030455 -0.030625 0.7294 0.7294 0.7294
v 0.065718 0.030455 -0.025849 0.7176 0.7176 0.7176
v 0.065718 0.097994 -0.025849 0.7804 0.7804 0.7804
v 0.076826 0.030455 -0.027929 0.7608 0.7608 0.7608
v 0.075511 0.097994 -0.030625 0.8039 0.8039 0.8039
v 0.076826 0.097994 -0.027929 0.8313 0.8313 0.8313
v 0.061500 0.092994 -0.050000 0.6667 0.6667 0.6667
v 0.060000 0.104994 -0.051500 0.8588 0.8588 0.8588
v 0.061500 0.104994 -0.050000 0.8666 0.8666 0.8666
v 0.060000 0.092994 -0.051500 0.6667 0.6667 0.6667
v 0.058500 0.092994 -0.050000 0.6667 0.6667 0.6667
v 0.060000 0.092994 -0.048500 0.6667 0.6667 0.6667
v 0.060000 0.104994 -0.048500 0.8588 0.8588 0.8588
v 0.058500 0.104994 -0.050000 0.8509 0.8509 0.8509
v -0.025920 0.004000 -0.104387 0.7137 0.7137 0.7137
v -0.040000 0.004000 -0.080000 0.6667 0.6667 0.6667
v -0.054080 0.004000 -0.104387 0.7412 0.7412 0.7412
v -0.068160 0.004000 -0.080000 0.7255 0.7255 0.7255
v -0.054080 0.004000 -0.055613 0.7098 0.7098 0.7098
v -0.011840 0.004000 -0.080000 0.6785 0.6785 0.6785
v -0.025920 0.226232 -0.104387 0.9411 0.9411 0.9411
v -0.025920 0.004000 -0.055613 0.7059 0.7059 0.7059
v -0.054080 0.226232 -0.055613 0.8941 0.8941 0.8941
v -0.054080 0.226232 -0.104387 0.9725 0.9725 0.9725
v -0.068160 0.226232 -0.080000 0.9647 0.9647 0.9647
v -0.031552 0.221232 -0.065368 0.9490 0.9490 0.9490
v -0.025920 0.226232 -0.055613 0.9686 0.9686 0.9686
v -0.011840 0.226232 -0.080000 0.8431 0.8431 0.8431
v -0.023104 0.221232 -0.080000 0.9568 0.9568 0.9568
v -0.031552 0.221232 -0.094632 0.9568 0.9568 0.9568
v -0.048448 0.221232 -0.094632 0.9568 0.9568 0.9568
v -0.056896 0.221232 -0.080000 0.9451 0.9451 0.9451
v -0.040000 0.222232 -0.080000 0.6667 0.6667 0.6667
v -0.048448 0.221232 -0.065368 0.9568 0.9568 0.9568
v -0.009845 0.125921 -0.090086 0.8470 0.8470 0.8470
v -0.011278 0.125921 -0.077143 0.7764 0.7764 0.7764
v -0.008300 0.125921 -0.077509 0.8666 0.8666 0.8666
v -0.008300 0.226232 -0.077509 0.9451 0.9451 0.9451
v -0.011278 0.226232 -0.077143 0.8431 0.8431 0.8431
v -0.012822 0.125921 -0.089721 0.7568 0.7568 0.7568
v -0.012822 0.226232 -0.089721 0.8431 0.8431 0.8431
v -0.009845 0.226232 -0.090086 0.9098 0.9098 0.9098
v -0.055169 0.133304 -0.052054 0.8549 0.8549 0.8549
v -0.043051 0.133304 -0.048349 0.8666 0.8666 0.8666
v -0.054292 0.133304 -0.054923 0.7647 0.7647 0.7647
v -0.055169 0.226232 -0.052054 0.9372 0.9372 0.9372
v -0.054292 0.226232 -0.054923 0.8000 0.8000 0.8000
v -0.042174 0.133304 -0.051218 0.7725 0.7725 0.7725
v -0.042174 0.226232 -0.051218 0.8706 0.8706 0.8706
v -0.043051 0.226232 -0.048349 0.9411 0.9411 0.9411
v -0.038500 0.233232 -0.080000 0.9098 0.9098 0.9098
v -0.040000 0.221232 -0.081500 0.6667 0.6667 0.6667
v -0.041500 0.221232 -0.080000 0.6667 0.6667 0.6667
v -0.040000 0.221232 -0.078500 0.6667 0.6667 0.6667
v -0.038500 0.221232 -0.080000 0.6667 0.6667 0.6667
v -0.040000 0.233232 -0.081500 0.9137 0.9137 0.9137
v -0.041500 0.233232 -0.080000 0.9176 0.9176 0.9176
v -0.040000 0.233232 -0.078500 0.9137 0.9137 0.9137
v 0.140000 0.004000 -0.120000 0.6667 0.6667 0.6667
v 0.149703 0.004000 -0.103193 0.6667 0.6667 0.6667
v 0.159407 0.004000 -0.120000 0.6667 0.6667 0.6667
v 0.149703 0.004000 -0.136807 0.6667 0.6667 0.6667
v 0.130297 0.004000 -0.136807 0.6667 0.6667 0.6667
v 0.130297 0.087922 -0.136807 0.8666 0.8666 0.8666
v 0.120593 0.004000 -0.120000 0.6667 0.6667 0.6667
v 0.120593 0.087922 -0.120000 0.8706 0.8706 0.8706
v 0.130297 0.004000 -0.103193 0.6667 0.6667 0.6667
v 0.149703 0.087922 -0.103193 0.8902 0.8902 0.8902
v 0.159407 0.087922 -0.120000 0.9137 0.9137 0.9137
v 0.149703 0.087922 -0.136807 0.8745 0.8745 0.8745
v 0.134178 0.082922 -0.109916 0.9019 0.9019 0.9019
v 0.130297 0.087922 -0.103193 0.8745 0.8745 0.8745
v 0.145822 0.082922 -0.109916 0.9019 0.9019 0.9019
v 0.145822 0.082922 -0.130084 0.8941 0.8941 0.8941
v 0.134178 0.082922 -0.130084 0.9019 0.9019 0.9019
v 0.140000 0.083922 -0.120000 0.6667 0.6667 0.6667
v 0.128356 0.082922 -0.120000 0.8941 0.8941 0.8941
v 0.151644 0.082922 -0.120000 0.8980 0.8980 0.8980
v 0.143166 0.087922 -0.142607 0.8941 0.8941 0.8941
v 0.150447 0.087922 -0.136928 0.7804 0.7804 0.7804
v 0.150447 0.058737 -0.136928 0.7647 0.7647 0.7647
v 0.151423 0.058737 -0.139764 0.8862 0.8862 0.8862
v 0.151423 0.087922 -0.139764 0.9137 0.9137 0.9137
v 0.143166 0.058737 -0.142607 0.8470 0.8470 0.8470
v 0.142190 0.058737 -0.139771 0.7294 0.7294 0.7294
v 0.142190 0.087922 -0.139771 0.8117 0.8117 0.8117
v 0.127576 0.087922 -0.139151 0.8902 0.8902 0.8902
v 0.123378 0.037543 -0.130927 0.7059 0.7059 0.7059
v 0.129660 0.037543 -0.136993 0.7568 0.7568 0.7568
v 0.129660 0.087922 -0.136993 0.7804 0.7804 0.7804
v 0.123378 0.087922 -0.130927 0.7843 0.7843 0.7843
v 0.127576 0.037543 -0.139151 0.8431 0.8431 0.8431
v 0.121294 0.037543 -0.133085 0.7843 0.7843 0.7843
v 0.121294 0.087922 -0.133085 0.8470 0.8470 0.8470
v 0.141500 0.082922 -0.120000 0.6667 0.6667 0.6667
v 0.140000 0.082922 -0.121500 0.6667 0.6667 0.6667
v 0.138500 0.094922 -0.120000 0.8745 0.8745 0.8745
v 0.138500 0.082922 -0.120000 0.6667 0.6667 0.6667
v 0.140000 0.082922 -0.118500 0.6667 0.6667 0.6667
v 0.140000 0.094922 -0.118500 0.8784 0.8784 0.8784
v 0.141500 0.094922 -0.120000 0.9058 0.9058 0.9058
v 0.140000 0.094922 -0.121500 0.9019 0.9019 0.9019
v -0.150090 0.004000 -0.067477 0.6667 0.6667 0.6667
v -0.150090 0.004000 -0.032523 0.6667 0.6667 0.6667
v -0.160180 0.004000 -0.050000 0.6667 0.6667 0.6667
v -0.140000 0.004000 -0.050000 0.6667 0.6667 0.6667
v -0.129910 0.004000 -0.032523 0.6667 0.6667 0.6667
v -0.119820 0.004000 -0.050000 0.6667 0.6667 0.6667
v -0.129910 0.004000 -0.067477 0.6667 0.6667 0.6667
v -0.129910 0.185795 -0.067477 0.9451 0.9451 0.9451
v -0.150090 0.185795 -0.032523 0.9451 0.9451 0.9451
v -0.129910 0.185795 -0.032523 0.9098 0.9098 0.9098
v -0.119820 0.185795 -0.050000 0.9176 0.9176 0.9176
v -0.150090 0.185795 -0.067477 0.9607 0.9607 0.9607
v -0.133946 0.180795 -0.060486 0.9176 0.9176 0.9176
v -0.160180 0.185795 -0.050000 0.9647 0.9647 0.9647
v -0.152108 0.180795 -0.050000 0.9137 0.9137 0.9137
v -0.146054 0.180795 -0.039514 0.9176 0.9176 0.9176
v -0.127892 0.180795 -0.050000 0.9294 0.9294 0.9294
v -0.146054 0.180795 -0.060486 0.9137 0.9137 0.9137
v -0.140000 0.181795 -0.050000 0.6667 0.6667 0.6667
v -0.133946 0.180795 -0.039514 0.9215 0.9215 0.9215
v -0.144135 0.185795 -0.026744 0.9294 0.9294 0.9294
v -0.144188 0.185795 -0.029743 0.8470 0.8470 0.8470
v -0.144188 0.106421 -0.029743 0.7804 0.7804 0.7804
v -0.144135 0.106421 -0.026744 0.8784 0.8784 0.8784
v -0.135056 0.106421 -0.026902 0.8196 0.8196 0.8196
v -0.135108 0.106421 -0.029902 0.7333 0.7333 0.7333
v -0.135108 0.185795 -0.029902 0.8078 0.8078 0.8078
v -0.135056 0.185795 -0.026902 0.8745 0.8745 0.8745
v -0.119771 0.050176 -0.037805 0.7843 0.7843 0.7843
v -0.116665 0.185795 -0.046339 0.8941 0.8941 0.8941
v -0.119771 0.185795 -0.037805 0.8706 0.8706 0.8706
v -0.119484 0.050176 -0.047365 0.7294 0.7294 0.7294
v -0.122590 0.050176 -0.038831 0.7255 0.7255 0.7255
v -0.119484 0.185795 -0.047365 0.7843 0.7843 0.7843
v -0.122590 0.185795 -0.038831 0.8117 0.8117 0.8117
v -0.116665 0.050176 -0.046339 0.7921 0.7921 0.7921
v -0.138500 0.192795 -0.050000 0.8941 0.8941 0.8941
v -0.140000 0.180795 -0.051500 0.6667 0.6667 0.6667
v -0.141500 0.180795 -0.050000 0.6667 0.6667 0.6667
v -0.141500 0.192795 -0.050000 0.9255 0.9255 0.9255
v -0.140000 0.180795 -0.048500 0.6667 0.6667 0.6667
v -0.138500 0.180795 -0.050000 0.6667 0.6667 0.6667
v -0.140000 0.192795 -0.048500 0.9019 0.9019 0.9019
v -0.140000 0.192795 -0.051500 0.9176 0.9176 0.9176
v -0.020000 0.004000 0.010000 0.6667 0.6667 0.6667
v -0.040727 0.004000 0.010000 0.6667 0.6667 0.6667
v -0.009637 0.004000 0.027950 0.6667 0.6667 0.6667
v 0.000727 0.004000 0.010000 0.6667 0.6667 0.6667
v -0.009637 0.004000 -0.007950 0.6667 0.6667 0.6667
v -0.030363 0.004000 -0.007950 0.6667 0.6667 0.6667
v -0.030363 0.004000 0.027950 0.6667 0.6667 0.6667
v -0.009637 0.047945 0.027950 0.8157 0.8157 0.8157
v 0.000727 0.047945 0.010000 0.8157 0.8157 0.8157
v -0.007564 0.042945 0.010000 0.8470 0.8470 0.8470
v -0.009637 0.047945 -0.007950 0.8078 0.8078 0.8078
v -0.013782 0.042945 -0.000770 0.8470 0.8470 0.8470
v -0.030363 0.047945 -0.007950 0.7960 0.7960 0.7960
v -0.040727 0.047945 0.010000 0.8157 0.8157 0.8157
v -0.030363 0.047945 0.027950 0.8039 0.8039 0.8039
v -0.026218 0.042945 0.020770 0.8509 0.8509 0.8509
v -0.032436 0.042945 0.010000 0.8549 0.8549 0.8549
v -0.013782 0.042945 0.020770 0.8470 0.8470 0.8470
v -0.026218 0.042945 -0.000770 0.8509 0.8509 0.8509
v -0.020000 0.043945 0.010000 0.6667 0.6667 0.6667
v -0.027825 0.047945 -0.012880 0.7686 0.7686 0.7686
v -0.026325 0.047945 -0.010282 0.7725 0.7725 0.7725
v -0.026325 0.033175 -0.010282 0.7098 0.7098 0.7098
v -0.027825 0.033175 -0.012880 0.7529 0.7529 0.7529
v -0.035902 0.033175 -0.008216 0.7608 0.7608 0.7608
v -0.034402 0.033175 -0.005618 0.6980 0.6980 0.6980
v -0.034402 0.047945 -0.005618 0.7529 0.7529 0.7529
v -0.035902 0.047945 -0.008216 0.7725 0.7725 0.7725
v 0.003822 0.028365 0.014149 0.7490 0.7490 0.7490
v -0.002321 0.028365 0.021782 0.6902 0.6902 0.6902
v 0.000480 0.028365 0.022857 0.7451 0.7451 0.7451
v 0.000480 0.047945 0.022857 0.7608 0.7608 0.7608
v -0.002321 0.047945 0.021782 0.7255 0.7255 0.7255
v 0.001021 0.028365 0.013074 0.7059 0.7059 0.7059
v 0.001021 0.047945 0.013074 0.7412 0.7412 0.7412
v 0.003822 0.047945 0.014149 0.7686 0.7686 0.7686
v -0.018500 0.042945 0.010000 0.6667 0.6667 0.6667
v -0.018500 0.054945 0.010000 0.8196 0.8196 0.8196
v -0.020000 0.042945 0.008500 0.6667 0.6667 0.6667
v -0.021500 0.042945 0.010000 0.6667 0.6667 0.6667
v -0.021500 0.054945 0.010000 0.7921 0.7921 0.7921
v -0.020000 0.054945 0.008500 0.8117 0.8117 0.8117
v -0.020000 0.042945 0.011500 0.6667 0.6667 0.6667
v -0.020000 0.054945 0.011500 0.8000 0.8000 0.8000
v 0.077324 0.004000 0.108045 0.6667 0.6667 0.6667
v 0.090000 0.004000 0.130000 0.6667 0.6667 0.6667
v 0.064649 0.004000 0.130000 0.6667 0.6667 0.6667
v 0.102676 0.004000 0.151955 0.6667 0.6667 0.6667
v 0.102676 0.004000 0.108045 0.6667 0.6667 0.6667
v 0.102676 0.077356 0.108045 0.8823 0.8823 0.8823
v 0.115351 0.077356 0.130000 0.9098 0.9098 0.9098
v 0.077324 0.077356 0.108045 0.8431 0.8431 0.8431
v 0.077324 0.004000 0.151955 0.6667 0.6667 0.6667
v 0.077324 0.077356 0.151955 0.9137 0.9137 0.9137
v 0.064649 0.077356 0.130000 0.8392 0.8392 0.8392
v 0.102676 0.077356 0.151955 0.9176 0.9176 0.9176
v 0.115351 0.004000 0.130000 0.6667 0.6667 0.6667
v 0.097605 0.072356 0.116827 0.9137 0.9137 0.9137
v 0.082395 0.072356 0.116827 0.9176 0.9176 0.9176
v 0.082395 0.072356 0.143173 0.9176 0.9176 0.9176
v 0.105211 0.072356 0.130000 0.9215 0.9215 0.9215
v 0.074789 0.072356 0.130000 0.9137 0.9137 0.9137
v 0.090000 0.073356 0.130000 0.6667 0.6667 0.6667
v 0.097605 0.072356 0.143173 0.9176 0.9176 0.9176
v 0.061986 0.046433 0.137180 0.8196 0.8196 0.8196
v 0.061389 0.077356 0.125788 0.8196 0.8196 0.8196
v 0.064982 0.046433 0.137023 0.7647 0.7647 0.7647
v 0.064982 0.077356 0.137023 0.8470 0.8470 0.8470
v 0.064385 0.046433 0.125631 0.7294 0.7294 0.7294
v 0.061389 0.046433 0.125788 0.7764 0.7764 0.7764
v 0.064385 0.077356 0.125631 0.8117 0.8117 0.8117
v 0.061986 0.077356 0.137180 0.8588 0.8588 0.8588
v 0.085165 0.077356 0.101488 0.8235 0.8235 0.8235
v 0.086240 0.047705 0.104288 0.7216 0.7216 0.7216
v 0.086240 0.077356 0.104288 0.8235 0.8235 0.8235
v 0.085165 0.047705 0.101488 0.7764 0.7764 0.7764
v 0.074515 0.047705 0.105576 0.7764 0.7764 0.7764
v 0.075590 0.047705 0.108377 0.7176 0.7176 0.7176
v 0.075590 0.077356 0.108377 0.7843 0.7843 0.7843
v 0.074515 0.077356 0.105576 0.8117 0.8117 0.8117
v 0.090000 0.072356 0.128500 0.6667 0.6667 0.6667
v 0.088500 0.072356 0.130000 0.6667 0.6667 0.6667
v 0.090000 0.072356 0.131500 0.6667 0.6667 0.6667
v 0.091500 0.072356 0.130000 0.6667 0.6667 0.6667
v 0.091500 0.084356 0.130000 0.8941 0.8941 0.8941
v 0.090000 0.084356 0.128500 0.8666 0.8666 0.8666
v 0.088500 0.084356 0.130000 0.8745 0.8745 0.8745
v 0.090000 0.084356 0.131500 0.9019 0.9019 0.9019
v -0.110000 0.004000 0.120000 0.6667 0.6667 0.6667
v -0.123628 0.004000 0.143604 0.6667 0.6667 0.6667
v -0.096372 0.004000 0.143604 0.6667 0.6667 0.6667
v -0.082744 0.004000 0.120000 0.6667 0.6667 0.6667
v -0.096372 0.004000 0.096396 0.6667 0.6667 0.6667
v -0.096372 0.146940 0.096396 0.8549 0.8549 0.8549
v -0.123628 0.004000 0.096396 0.6667 0.6667 0.6667
v -0.137256 0.004000 0.120000 0.6667 0.6667 0.6667
v -0.123628 0.146940 0.096396 0.8941 0.8941 0.8941
v -0.101823 0.141940 0.105838 0.9098 0.9098 0.9098
v -0.118177 0.141940 0.105838 0.9098 0.9098 0.9098
v -0.137256 0.146940 0.120000 0.9372 0.9372 0.9372
v -0.123628 0.146940 0.143604 0.9411 0.9411 0.9411
v -0.118177 0.141940 0.134162 0.9176 0.9176 0.9176
v -0.101823 0.141940 0.134162 0.9176 0.9176 0.9176
v -0.096372 0.146940 0.143604 0.9411 0.9411 0.9411
v -0.082744 0.146940 0.120000 0.9137 0.9137 0.9137
v -0.110000 0.142940 0.120000 0.6667 0.6667 0.6667
v -0.126353 0.141940 0.120000 0.9176 0.9176 0.9176
v -0.093647 0.141940 0.120000 0.9176 0.9176 0.9176
v -0.140013 0.091737 0.127229 0.8980 0.8980 0.8980
v -0.134829 0.091737 0.138345 0.8902 0.8902 0.8902
v -0.140013 0.146940 0.127229 0.9411 0.9411 0.9411
v -0.137294 0.146940 0.125961 0.8235 0.8235 0.8235
v -0.132110 0.146940 0.137077 0.7843 0.7843 0.7843
v -0.137294 0.091737 0.125961 0.7608 0.7608 0.7608
v -0.132110 0.091737 0.137077 0.6706 0.6706 0.6706
v -0.134829 0.146940 0.138345 0.9490 0.9490 0.9490
v -0.129235 0.146940 0.144146 0.9725 0.9725 0.9725
v -0.126937 0.069692 0.142217 0.7725 0.7725 0.7725
v -0.134821 0.069692 0.132822 0.7647 0.7647 0.7647
v -0.137119 0.069692 0.134750 0.8902 0.8902 0.8902
v -0.137119 0.146940 0.134750 0.9451 0.9451 0.9451
v -0.134821 0.146940 0.132822 0.7647 0.7647 0.7647
v -0.129235 0.069692 0.144146 0.8980 0.8980 0.8980
v -0.126937 0.146940 0.142217 0.8353 0.8353 0.8353
v -0.110000 0.141940 0.118500 0.6667 0.6667 0.6667
v -0.108500 0.153940 0.120000 0.8745 0.8745 0.8745
v -0.111500 0.153940 0.120000 0.8862 0.8862 0.8862
v -0.111500 0.141940 0.120000 0.6667 0.6667 0.6667
v -0.110000 0.141940 0.121500 0.6667 0.6667 0.6667
v -0.110000 0.153940 0.121500 0.8980 0.8980 0.8980
v -0.108500 0.141940 0.120000 0.6667 0.6667 0.6667
v -0.110000 0.153940 0.118500 0.8588 0.8588 0.8588
v 0.191142 0.004000 -0.016512 0.6667 0.6667 0.6667
v 0.162454 0.004000 -0.023060 0.6667 0.6667 0.6667
v 0.139448 0.004000 -0.004713 0.6667 0.6667 0.6667
v 0.170000 0.004000 0.010000 0.6667 0.6667 0.6667
v 0.139448 0.004000 0.024713 0.6667 0.6667 0.6667
v 0.191142 0.004000 0.036512 0.7451 0.7451 0.7451
v 0.203910 0.256214 0.010000 0.9882 0.9882 0.9882
v 0.162454 0.256214 -0.023060 0.9882 0.9882 0.9882
v 0.139448 0.256214 0.024713 0.9882 0.9882 0.9882
v 0.162454 0.004000 0.043060 0.7176 0.7176 0.7176
v 0.191142 0.256214 0.036512 0.9019 0.9019 0.9019
v 0.203910 0.004000 0.010000 0.7529 0.7529 0.7529
v 0.191142 0.256214 -0.016512 0.9490 0.9490 0.9490
v 0.182685 0.251214 -0.005907 0.9725 0.9725 0.9725
v 0.165473 0.251214 -0.009836 0.9725 0.9725 0.9725
v 0.139448 0.256214 -0.004713 0.9882 0.9882 0.9882
v 0.162454 0.256214 0.043060 0.9843 0.9843 0.9843
v 0.165473 0.251214 0.029836 0.9764 0.9764 0.9764
v 0.190346 0.251214 0.010000 0.9647 0.9647 0.9647
v 0.170000 0.252214 0.010000 0.6667 0.6667 0.6667
v 0.151669 0.251214 0.001172 0.9647 0.9647 0.9647
v 0.151669 0.251214 0.018828 0.9686 0.9686 0.9686
v 0.182685 0.251214 0.025907 0.9686 0.9686 0.9686
v 0.179959 0.081669 0.046351 0.8784 0.8784 0.8784
v 0.193555 0.081669 0.039423 0.9019 0.9019 0.9019
v 0.193555 0.256214 0.039423 0.9804 0.9804 0.9804
v 0.179959 0.256214 0.046351 0.9804 0.9804 0.9804
v 0.178597 0.081669 0.043678 0.7451 0.7451 0.7451
v 0.178597 0.256214 0.043678 0.8549 0.8549 0.8549
v 0.192193 0.081669 0.036750 0.7843 0.7843 0.7843
v 0.192193 0.256214 0.036750 0.8313 0.8313 0.8313
v 0.191983 0.061282 -0.020616 0.8784 0.8784 0.8784
v 0.178043 0.061282 -0.026822 0.8470 0.8470 0.8470
v 0.178043 0.256214 -0.026822 0.9686 0.9686 0.9686
v 0.176822 0.061282 -0.024082 0.7255 0.7255 0.7255
v 0.190762 0.061282 -0.017875 0.7647 0.7647 0.7647
v 0.191983 0.256214 -0.020616 0.9804 0.9804 0.9804
v 0.190762 0.256214 -0.017875 0.8117 0.8117 0.8117
v 0.176822 0.256214 -0.024082 0.8392 0.8392 0.8392
v 0.170000 0.251214 0.008500 0.6667 0.6667 0.6667
v 0.170000 0.263214 0.008500 0.9098 0.9098 0.9098
v 0.168500 0.263214 0.010000 0.9137 0.9137 0.9137
v 0.168500 0.251214 0.010000 0.6667 0.6667 0.6667
v 0.170000 0.251214 0.011500 0.6667 0.6667 0.6667
v 0.171500 0.251214 0.010000 0.6667 0.6667 0.6667
v 0.171500 0.263214 0.010000 0.9137 0.9137 0.9137
v 0.170000 0.263214 0.011500 0.9137 0.9137 0.9137
v 0.055187 0.004000 -0.150000 0.6667 0.6667 0.6667
v 0.017406 0.004000 -0.171813 0.7451 0.7451 0.7451
v 0.042594 0.004000 -0.171813 0.7451 0.7451 0.7451
v 0.030000 0.004000 -0.150000 0.6667 0.6667 0.6667
v 0.017406 0.004000 -0.128187 0.6667 0.6667 0.6667
v 0.042594 0.242950 -0.171813 0.9843 0.9843 0.9843
v 0.004813 0.004000 -0.150000 0.7294 0.7294 0.7294
v 0.042594 0.004000 -0.128187 0.6667 0.6667 0.6667
v 0.017406 0.242950 -0.128187 0.9607 0.9607 0.9607
v 0.055187 0.242950 -0.150000 0.9843 0.9843 0.9843
v 0.037556 0.237950 -0.163088 0.9451 0.9451 0.9451
v 0.017406 0.242950 -0.171813 0.9686 0.9686 0.9686
v 0.004813 0.242950 -0.150000 0.9686 0.9686 0.9686
v 0.042594 0.242950 -0.128187 0.8431 0.8431 0.8431
v 0.045112 0.237950 -0.150000 0.9490 0.9490 0.9490
v 0.022444 0.237950 -0.163088 0.9451 0.9451 0.9451
v 0.014888 0.237950 -0.150000 0.9411 0.9411 0.9411
v 0.022444 0.237950 -0.136912 0.9490 0.9490 0.9490
v 0.030000 0.238950 -0.150000 0.6667 0.6667 0.6667
v 0.037556 0.237950 -0.136912 0.9451 0.9451 0.9451
v 0.010899 0.132211 -0.171489 0.9568 0.9568 0.9568
v 0.006474 0.132211 -0.160632 0.7333 0.7333 0.7333
v 0.013295 0.242950 -0.169684 0.8353 0.8353 0.8353
v 0.013295 0.132211 -0.169684 0.7843 0.7843 0.7843
v 0.010899 0.242950 -0.171489 0.9804 0.9804 0.9804
v 0.004078 0.132211 -0.162437 0.8980 0.8980 0.8980
v 0.006474 0.242950 -0.160632 0.8392 0.8392 0.8392
v 0.004078 0.242950 -0.162437 0.9529 0.9529 0.9529
v 0.049743 0.150561 -0.129099 0.9294 0.9294 0.9294
v 0.048153 0.150561 -0.131643 0.8000 0.8000 0.8000
v 0.038541 0.150561 -0.125637 0.7647 0.7647 0.7647
v 0.048153 0.242950 -0.131643 0.8706 0.8706 0.8706
v 0.040131 0.150561 -0.123093 0.8941 0.8941 0.8941
v 0.040131 0.242950 -0.123093 0.9490 0.9490 0.9490
v 0.038541 0.242950 -0.125637 0.8470 0.8470 0.8470
v 0.049743 0.242950 -0.129099 0.9686 0.9686 0.9686
v 0.030000 0.237950 -0.151500 0.6667 0.6667 0.6667
v 0.030000 0.249950 -0.151500 0.9215 0.9215 0.9215
v 0.028500 0.237950 -0.150000 0.6667 0.6667 0.6667
v 0.028500 0.249950 -0.150000 0.9215 0.9215 0.9215
v 0.030000 0.237950 -0.148500 0.6667 0.6667 0.6667
v 0.031500 0.237950 -0.150000 0.6667 0.6667 0.6667
v 0.031500 0.249950 -0.150000 0.9215 0.9215 0.9215
v 0.030000 0.249950 -0.148500 0.9255 0.9255 0.9255
vn 1.0000 -0.0000 -0.0000
vn 0.8090 -0.0000 -0.5878
vn 0.3090 -0.0000 -0.9511
vn -0.3090 -0.0000 -0.9511
vn -0.8090 -0.0000 -0.5878
vn -1.0000 -0.0000 -0.0000
vn -0.8090 -0.0000 0.5878
vn -0.3090 -0.0000 0.9511
vn 0.3090 -0.0000 0.9511
vn 0.8090 -0.0000 0.5878
vn -0.0000 1.0000 -0.0000
vn -0.0000 -1.0000 -0.0000
vn 0.9010 -0.0000 -0.4339
vn 0.2225 -0.0000 -0.9749
vn -0.6235 -0.0000 -0.7818
vn -0.6235 -0.0000 0.7818
vn 0.2225 -0.0000 0.9749
vn 0.9010 -0.0000 0.4339
vn -0.3560 0.9345 -0.0000
vn -0.2220 0.9345 0.2783
vn -0.1322 0.9772 0.1658
vn -0.2121 0.9772 -0.0000
vn 0.0792 0.9345 0.3471
vn 0.0472 0.9772 0.2068
vn 0.3207 0.9345 0.1545
vn 0.1911 0.9772 0.0920
vn 0.3207 0.9345 -0.1545
vn 0.1911 0.9772 -0.0920
vn 0.0792 0.9345 -0.3471
vn 0.0472 0.9772 -0.2068
vn -0.2220 0.9345 -0.2783
vn -0.1322 0.9772 -0.1658
vn 0.2756 -0.0000 0.9613
vn -0.2756 -0.0000 -0.9613
vn -0.9613 -0.0000 0.2756
vn 0.9613 -0.0000 -0.2756
vn 0.9063 -0.0000 -0.4226
vn -0.9063 -0.0000 0.4226
vn 0.4226 -0.0000 0.9063
vn -0.4226 -0.0000 -0.9063
vn 0.7071 -0.0000 -0.7071
vn -0.7071 -0.0000 -0.7071
vn -0.7071 -0.0000 0.7071
vn 0.7071 -0.0000 0.7071
vn -0.3606 0.9327 -0.0000
vn -0.2248 0.9327 0.2819
vn -0.1339 0.9767 0.1680
vn -0.2148 0.9767 -0.0000
vn 0.0802 0.9327 0.3515
vn 0.0478 0.9767 0.2094
vn 0.3249 0.9327 0.1564
vn 0.1936 0.9767 0.0932
vn 0.3249 0.9327 -0.1564
vn 0.1936 0.9767 -0.0932
vn 0.0802 0.9327 -0.3515
vn 0.0478 0.9767 -0.2094
vn -0.2248 0.9327 -0.2819
vn -0.1339 0.9767 -0.1680
vn -0.6018 -0.0000 0.7986
vn 0.6018 -0.0000 -0.7986
vn -0.7986 -0.0000 -0.6018
vn 0.7986 -0.0000 0.6018
vn -0.8829 -0.0000 0.4695
vn 0.8829 -0.0000 -0.4695
vn -0.4695 -0.0000 -0.8829
vn 0.4695 -0.0000 0.8829
vn 0.8660 -0.0000 -0.5000
vn -0.0000 -0.0000 -1.0000
vn -0.8660 -0.0000 -0.5000
vn -0.8660 -0.0000 0.5000
vn -0.0000 -0.0000 1.0000
vn 0.8660 -0.0000 0.5000
vn -0.4433 0.8964 -0.0000
vn -0.2217 0.8964 0.3839
vn -0.1376 0.9614 0.2383
vn -0.2752 0.9614 -0.0000
vn 0.2217 0.8964 0.3839
vn 0.1376 0.9614 0.2383
vn 0.4433 0.8964 -0.0000
vn 0.2752 0.9614 -0.0000
vn 0.2217 0.8964 -0.3839
vn 0.1376 0.9614 -0.2383
vn -0.2217 0.8964 -0.3839
vn -0.1376 0.9614 -0.2383
vn 0.7547 -0.0000 0.6561
vn -0.7547 -0.0000 -0.6561
vn -0.6561 -0.0000 0.7547
vn 0.6561 -0.0000 -0.7547
vn 0.9563 -0.0000 0.2924
vn -0.9563 -0.0000 -0.2924
vn -0.2924 -0.0000 0.9563
vn 0.2924 -0.0000 -0.9563
vn -0.4587 0.8886 -0.0000
vn -0.2294 0.8886 0.3973
vn -0.1424 0.9586 0.2466
vn -0.2848 0.9586 -0.0000
vn 0.2294 0.8886 0.3973
vn 0.1424 0.9586 0.2466
vn 0.4587 0.8886 -0.0000
vn 0.2848 0.9586 -0.0000
vn 0.2294 0.8886 -0.3973
vn 0.1424 0.9586 -0.2466
vn -0.2294 0.8886 -0.3973
vn -0.1424 0.9586 -0.2466
vn -0.4067 -0.0000 0.9135
vn 0.4067 -0.0000 -0.9135
vn -0.9135 -0.0000 -0.4067
vn 0.9135 -0.0000 0.4067
vn 0.4384 -0.0000 0.8988
vn -0.4384 -0.0000 -0.8988
vn -0.8988 -0.0000 0.4384
vn 0.8988 -0.0000 -0.4384
vn -0.4057 0.9140 -0.0000
vn -0.2029 0.9140 0.3514
vn -0.1260 0.9677 0.2182
vn -0.2519 0.9677 -0.0000
vn 0.2029 0.9140 0.3514
vn 0.1260 0.9677 0.2182
vn 0.4057 0.9140 -0.0000
vn 0.2519 0.9677 -0.0000
vn 0.2029 0.9140 -0.3514
vn 0.1260 0.9677 -0.2182
vn -0.2029 0.9140 -0.3514
vn -0.1260 0.9677 -0.2182
vn 0.9925 -0.0000 -0.1219
vn -0.9925 -0.0000 0.1219
vn 0.1219 -0.0000 0.9925
vn -0.1219 -0.0000 -0.9925
vn -0.5415 0.8407 -0.0000
vn -0.2708 0.8407 0.4690
vn -0.1680 0.9419 0.2910
vn -0.3360 0.9419 -0.0000
vn 0.2708 0.8407 0.4690
vn 0.1680 0.9419 0.2910
vn 0.5415 0.8407 -0.0000
vn 0.3360 0.9419 -0.0000
vn 0.2708 0.8407 -0.4690
vn 0.1680 0.9419 -0.2910
vn -0.2708 0.8407 -0.4690
vn -0.1680 0.9419 -0.2910
vn 0.3256 -0.0000 -0.9455
vn -0.3256 -0.0000 0.9455
vn 0.9455 -0.0000 0.3256
vn -0.9455 -0.0000 -0.3256
vn -0.6947 -0.0000 -0.7193
vn 0.6947 -0.0000 0.7193
vn 0.7193 -0.0000 -0.6947
vn -0.7193 -0.0000 0.6947
vn -0.5266 0.8501 -0.0000
vn -0.2633 0.8501 0.4560
vn -0.1634 0.9451 0.2830
vn -0.3268 0.9451 -0.0000
vn 0.2633 0.8501 0.4560
vn 0.1634 0.9451 0.2830
vn 0.5266 0.8501 -0.0000
vn 0.3268 0.9451 -0.0000
vn 0.2633 0.8501 -0.4560
vn 0.1634 0.9451 -0.2830
vn -0.2633 0.8501 -0.4560
vn -0.1634 0.9451 -0.2830
vn 0.0175 -0.0000 0.9998
vn -0.0175 -0.0000 -0.9998
vn -0.9998 -0.0000 0.0175
vn 0.9998 -0.0000 -0.0175
vn 0.9397 -0.0000 0.3420
vn -0.9397 -0.0000 -0.3420
vn -0.3420 -0.0000 0.9397
vn 0.3420 -0.0000 -0.9397
vn -0.5164 0.8563 -0.0000
vn -0.2582 0.8563 0.4472
vn -0.1602 0.9473 0.2776
vn -0.3205 0.9473 -0.0000
vn 0.2582 0.8563 0.4472
vn 0.1602 0.9473 0.2776
vn 0.5164 0.8563 -0.0000
vn 0.3205 0.9473 -0.0000
vn 0.2582 0.8563 -0.4472
vn 0.1602 0.9473 -0.2776
vn -0.2582 0.8563 -0.4472
vn -0.1602 0.9473 -0.2776
vn -0.5000 -0.0000 -0.8660
vn 0.5000 -0.0000 0.8660
vn 0.9336 -0.0000 0.3584
vn -0.9336 -0.0000 -0.3584
vn -0.3584 -0.0000 0.9336
vn 0.3584 -0.0000 -0.9336
vn -0.4422 0.8969 -0.0000
vn -0.2211 0.8969 0.3830
vn -0.1373 0.9616 0.2378
vn -0.2745 0.9616 -0.0000
vn 0.2211 0.8969 0.3830
vn 0.1373 0.9616 0.2378
vn 0.4422 0.8969 -0.0000
vn 0.2745 0.9616 -0.0000
vn 0.2211 0.8969 -0.3830
vn 0.1373 0.9616 -0.2378
vn -0.2211 0.8969 -0.3830
vn -0.1373 0.9616 -0.2378
vn -0.9986 -0.0000 0.0523
vn 0.9986 -0.0000 -0.0523
vn -0.0523 -0.0000 -0.9986
vn 0.0523 -0.0000 0.9986
vn -0.3584 -0.0000 -0.9336
vn 0.3584 -0.0000 0.9336
vn 0.9336 -0.0000 -0.3584
vn -0.9336 -0.0000 0.3584
vn -0.4169 0.9090 -0.0000
vn -0.2084 0.9090 0.3610
vn -0.1294 0.9659 0.2242
vn -0.2588 0.9659 -0.0000
vn 0.2084 0.9090 0.3610
vn 0.1294 0.9659 0.2242
vn 0.4169 0.9090 -0.0000
vn 0.2588 0.9659 -0.0000
vn 0.2084 0.9090 -0.3610
vn 0.1294 0.9659 -0.2242
vn -0.2084 0.9090 -0.3610
vn -0.1294 0.9659 -0.2242
vn -0.7660 -0.0000 0.6428
vn 0.7660 -0.0000 -0.6428
vn -0.6428 -0.0000 -0.7660
vn 0.6428 -0.0000 0.7660
vn -0.3459 0.9383 -0.0000
vn -0.2156 0.9383 0.2704
vn -0.1285 0.9785 0.1611
vn -0.2061 0.9785 -0.0000
vn 0.0770 0.9383 0.3372
vn 0.0459 0.9785 0.2009
vn 0.3116 0.9383 0.1501
vn 0.1856 0.9785 0.0894
vn 0.3116 0.9383 -0.1501
vn 0.1856 0.9785 -0.0894
vn 0.0770 0.9383 -0.3372
vn 0.0459 0.9785 -0.2009
vn -0.2156 0.9383 -0.2704
vn -0.1285 0.9785 -0.1611
vn 0.4540 -0.0000 0.8910
vn -0.4540 -0.0000 -0.8910
vn -0.8910 -0.0000 0.4540
vn 0.8910 -0.0000 -0.4540
vn -0.4446 0.8958 -0.0000
vn -0.2223 0.8958 0.3850
vn -0.1380 0.9612 0.2390
vn -0.2760 0.9612 -0.0000
vn 0.2223 0.8958 0.3850
vn 0.1380 0.9612 0.2390
vn 0.4446 0.8958 -0.0000
vn 0.2760 0.9612 -0.0000
vn 0.2223 0.8958 -0.3850
vn 0.1380 0.9612 -0.2390
vn -0.2223 0.8958 -0.3850
vn -0.1380 0.9612 -0.2390
vn 0.5299 -0.0000 0.8480
vn -0.5299 -0.0000 -0.8480
vn -0.8480 -0.0000 0.5299
vn 0.8480 -0.0000 -0.5299
vt 0.813477 0.688477
vt 0.819531 0.688477
vt 0.819531 0.749023
vt 0.813477 0.749023
vt 0.825586 0.688477
vt 0.825586 0.749023
vt 0.831641 0.688477
vt 0.831641 0.749023
vt 0.837695 0.688477
vt 0.837695 0.749023
vt 0.843750 0.688477
vt 0.843750 0.749023
vt 0.849805 0.688477
vt 0.849805 0.749023
vt 0.855859 0.688477
vt 0.855859 0.749023
vt 0.861914 0.688477
vt 0.861914 0.749023
vt 0.867969 0.688477
vt 0.867969 0.749023
vt 0.874023 0.688477
vt 0.874023 0.749023
vt 0.874023 0.717268
vt 0.868242 0.735063
vt 0.853105 0.746060
vt 0.834395 0.746060
vt 0.819258 0.735063
vt 0.813477 0.717268
vt 0.819258 0.699474
vt 0.834395 0.688477
vt 0.853105 0.688477
vt 0.868242 0.699474
vt 0.822126 0.688477
vt 0.822126 0.749023
vt 0.830776 0.688477
vt 0.830776 0.749023
vt 0.839425 0.688477
vt 0.839425 0.749023
vt 0.848075 0.688477
vt 0.848075 0.749023
vt 0.856724 0.688477
vt 0.856724 0.749023
vt 0.865374 0.688477
vt 0.865374 0.749023
vt 0.872505 0.718750
vt 0.860814 0.743027
vt 0.834544 0.749023
vt 0.813477 0.732223
vt 0.813477 0.705277
vt 0.834544 0.688477
vt 0.860814 0.694473
vt 0.817801 0.688477
vt 0.822126 0.695340
vt 0.813477 0.695340
vt 0.826451 0.688477
vt 0.830776 0.695340
vt 0.835100 0.688477
vt 0.839425 0.695340
vt 0.848075 0.695340
vt 0.852400 0.688477
vt 0.856724 0.695340
vt 0.861049 0.688477
vt 0.865374 0.695340
vt 0.869699 0.688477
vt 0.874023 0.695340
vt 0.822126 0.741962
vt 0.813477 0.741962
vt 0.830776 0.741962
vt 0.839425 0.741962
vt 0.848075 0.741962
vt 0.856724 0.741962
vt 0.865374 0.741962
vt 0.874023 0.741962
vt 0.822126 0.744900
vt 0.813477 0.744900
vt 0.830776 0.744900
vt 0.839425 0.744900
vt 0.848075 0.744900
vt 0.856724 0.744900
vt 0.865374 0.744900
vt 0.874023 0.744900
vt 0.817801 0.749023
vt 0.826451 0.749023
vt 0.835100 0.749023
vt 0.852400 0.749023
vt 0.861049 0.749023
vt 0.869699 0.749023
vt 0.821491 0.688477
vt 0.821491 0.749023
vt 0.815105 0.688477
vt 0.815105 0.749023
vt 0.824652 0.688477
vt 0.824652 0.744423
vt 0.813477 0.744423
vt 0.815747 0.688477
vt 0.815747 0.744423
vt 0.563477 0.688477
vt 0.578613 0.688477
vt 0.578613 0.749023
vt 0.563477 0.749023
vt 0.593750 0.688477
vt 0.593750 0.749023
vt 0.608887 0.688477
vt 0.608887 0.749023
vt 0.624023 0.688477
vt 0.624023 0.749023
vt 0.624023 0.718750
vt 0.563477 0.718750
vt 0.822126 0.697541
vt 0.813477 0.697541
vt 0.830776 0.697541
vt 0.839425 0.697541
vt 0.848075 0.697541
vt 0.856724 0.697541
vt 0.865374 0.697541
vt 0.874023 0.697541
vt 0.822126 0.739691
vt 0.813477 0.739691
vt 0.830776 0.739691
vt 0.839425 0.739691
vt 0.848075 0.739691
vt 0.856724 0.739691
vt 0.865374 0.739691
vt 0.874023 0.739691
vt 0.822126 0.743578
vt 0.813477 0.743578
vt 0.830776 0.743578
vt 0.839425 0.743578
vt 0.848075 0.743578
vt 0.856724 0.743578
vt 0.865374 0.743578
vt 0.874023 0.743578
vt 0.823654 0.688477
vt 0.823654 0.749023
vt 0.815575 0.688477
vt 0.815575 0.749023
vt 0.824489 0.688477
vt 0.824489 0.737967
vt 0.813477 0.737967
vt 0.815747 0.737967
vt 0.943522 0.688477
vt 0.948568 0.701159
vt 0.938477 0.701159
vt 0.953613 0.688477
vt 0.958659 0.701159
vt 0.963704 0.688477
vt 0.968750 0.701159
vt 0.973796 0.688477
vt 0.978841 0.701159
vt 0.983887 0.688477
vt 0.988932 0.701159
vt 0.993978 0.688477
vt 0.999023 0.701159
vt 0.948568 0.735738
vt 0.938477 0.735738
vt 0.958659 0.735738
vt 0.968750 0.735738
vt 0.978841 0.735738
vt 0.988932 0.735738
vt 0.999023 0.735738
vt 0.948568 0.741397
vt 0.938477 0.741397
vt 0.958659 0.741397
vt 0.968750 0.741397
vt 0.978841 0.741397
vt 0.988932 0.741397
vt 0.999023 0.741397
vt 0.943522 0.749023
vt 0.953613 0.749023
vt 0.963704 0.749023
vt 0.973796 0.749023
vt 0.983887 0.749023
vt 0.993978 0.749023
vt 0.938477 0.688477
vt 0.947084 0.688477
vt 0.947084 0.709537
vt 0.938477 0.709537
vt 0.940747 0.688477
vt 0.940747 0.709537
vt 0.947084 0.718406
vt 0.938477 0.718406
vt 0.940747 0.718406
vt 0.881022 0.688477
vt 0.886068 0.698681
vt 0.875977 0.698681
vt 0.891113 0.688477
vt 0.896159 0.698681
vt 0.901204 0.688477
vt 0.906250 0.698681
vt 0.911296 0.688477
vt 0.916341 0.698681
vt 0.921387 0.688477
vt 0.926432 0.698681
vt 0.931478 0.688477
vt 0.936523 0.698681
vt 0.886068 0.738293
vt 0.875977 0.738293
vt 0.896159 0.738293
vt 0.906250 0.738293
vt 0.916341 0.738293
vt 0.926432 0.738293
vt 0.936523 0.738293
vt 0.886068 0.742886
vt 0.875977 0.742886
vt 0.896159 0.742886
vt 0.906250 0.742886
vt 0.916341 0.742886
vt 0.926432 0.742886
vt 0.936523 0.742886
vt 0.881022 0.749023
vt 0.891113 0.749023
vt 0.901204 0.749023
vt 0.911296 0.749023
vt 0.921387 0.749023
vt 0.931478 0.749023
vt 0.875977 0.688477
vt 0.884223 0.688477
vt 0.884223 0.734892
vt 0.875977 0.734892
vt 0.878247 0.688477
vt 0.878247 0.734892
vt 0.884223 0.739593
vt 0.875977 0.739593
vt 0.878247 0.739593
vt 0.818522 0.688477
vt 0.823568 0.694574
vt 0.813477 0.694574
vt 0.828613 0.688477
vt 0.833659 0.694574
vt 0.838704 0.688477
vt 0.843750 0.694574
vt 0.848796 0.688477
vt 0.853841 0.694574
vt 0.858887 0.688477
vt 0.863932 0.694574
vt 0.868978 0.688477
vt 0.874023 0.694574
vt 0.823568 0.742691
vt 0.813477 0.742691
vt 0.833659 0.742691
vt 0.843750 0.742691
vt 0.853841 0.742691
vt 0.863932 0.742691
vt 0.874023 0.742691
vt 0.823568 0.745359
vt 0.813477 0.745359
vt 0.833659 0.745359
vt 0.843750 0.745359
vt 0.853841 0.745359
vt 0.863932 0.745359
vt 0.874023 0.745359
vt 0.818522 0.749023
vt 0.828613 0.749023
vt 0.838704 0.749023
vt 0.848796 0.749023
vt 0.858887 0.749023
vt 0.868978 0.749023
vt 0.821125 0.688477
vt 0.821125 0.749023
vt 0.815287 0.688477
vt 0.815287 0.749023
vt 0.821733 0.688477
vt 0.821733 0.749023
vt 0.815431 0.688477
vt 0.815431 0.749023
vt 0.823568 0.697933
vt 0.813477 0.697933
vt 0.833659 0.697933
vt 0.843750 0.697933
vt 0.853841 0.697933
vt 0.863932 0.697933
vt 0.874023 0.697933
vt 0.823568 0.738829
vt 0.813477 0.738829
vt 0.833659 0.738829
vt 0.843750 0.738829
vt 0.853841 0.738829
vt 0.863932 0.738829
vt 0.874023 0.738829
vt 0.823568 0.743328
vt 0.813477 0.743328
vt 0.833659 0.743328
vt 0.843750 0.743328
vt 0.853841 0.743328
vt 0.863932 0.743328
vt 0.874023 0.743328
vt 0.820086 0.688477
vt 0.820086 0.710565
vt 0.813477 0.710565
vt 0.815747 0.710565
vt 0.820086 0.726606
vt 0.813477 0.726606
vt 0.815747 0.726606
vt 0.948568 0.693941
vt 0.938477 0.693941
vt 0.958659 0.693941
vt 0.968750 0.693941
vt 0.978841 0.693941
vt 0.988932 0.693941
vt 0.999023 0.693941
vt 0.948568 0.743163
vt 0.938477 0.743163
vt 0.958659 0.743163
vt 0.968750 0.743163
vt 0.978841 0.743163
vt 0.988932 0.743163
vt 0.999023 0.743163
vt 0.948568 0.745734
vt 0.938477 0.745734
vt 0.958659 0.745734
vt 0.968750 0.745734
vt 0.978841 0.745734
vt 0.988932 0.745734
vt 0.999023 0.745734
vt 0.945350 0.688477
vt 0.945350 0.748550
vt 0.938477 0.748550
vt 0.940747 0.748550
vt 0.942531 0.688477
vt 0.942531 0.749023
vt 0.938477 0.749023
vt 0.939816 0.688477
vt 0.939816 0.749023
vt 0.886068 0.702929
vt 0.875977 0.702929
vt 0.896159 0.702929
vt 0.906250 0.702929
vt 0.916341 0.702929
vt 0.926432 0.702929
vt 0.936523 0.702929
vt 0.886068 0.733573
vt 0.875977 0.733573
vt 0.896159 0.733573
vt 0.906250 0.733573
vt 0.916341 0.733573
vt 0.926432 0.733573
vt 0.936523 0.733573
vt 0.886068 0.740324
vt 0.875977 0.740324
vt 0.896159 0.740324
vt 0.906250 0.740324
vt 0.916341 0.740324
vt 0.926432 0.740324
vt 0.936523 0.740324
vt 0.883036 0.688477
vt 0.883036 0.699655
vt 0.875977 0.699655
vt 0.878247 0.699655
vt 0.883036 0.703296
vt 0.875977 0.703296
vt 0.878247 0.703296
vt 0.823568 0.700731
vt 0.813477 0.700731
vt 0.833659 0.700731
vt 0.843750 0.700731
vt 0.853841 0.700731
vt 0.863932 0.700731
vt 0.874023 0.700731
vt 0.823568 0.736190
vt 0.813477 0.736190
vt 0.833659 0.736190
vt 0.843750 0.736190
vt 0.853841 0.736190
vt 0.863932 0.736190
vt 0.874023 0.736190
vt 0.823568 0.741655
vt 0.813477 0.741655
vt 0.833659 0.741655
vt 0.843750 0.741655
vt 0.853841 0.741655
vt 0.863932 0.741655
vt 0.874023 0.741655
vt 0.822111 0.688477
vt 0.822111 0.711880
vt 0.813477 0.711880
vt 0.815747 0.711880
vt 0.822111 0.710918
vt 0.813477 0.710918
vt 0.815747 0.710918
vt 0.823568 0.696787
vt 0.813477 0.696787
vt 0.833659 0.696787
vt 0.843750 0.696787
vt 0.853841 0.696787
vt 0.863932 0.696787
vt 0.874023 0.696787
vt 0.823568 0.740371
vt 0.813477 0.740371
vt 0.833659 0.740371
vt 0.843750 0.740371
vt 0.853841 0.740371
vt 0.863932 0.740371
vt 0.874023 0.740371
vt 0.823568 0.744028
vt 0.813477 0.744028
vt 0.833659 0.744028
vt 0.843750 0.744028
vt 0.853841 0.744028
vt 0.863932 0.744028
vt 0.874023 0.744028
vt 0.822759 0.688477
vt 0.822759 0.730256
vt 0.813477 0.730256
vt 0.815747 0.730256
vt 0.822759 0.746941
vt 0.813477 0.746941
vt 0.815747 0.746941
vt 0.942801 0.688477
vt 0.947126 0.694874
vt 0.938477 0.694874
vt 0.951451 0.688477
vt 0.955776 0.694874
vt 0.960100 0.688477
vt 0.964425 0.694874
vt 0.968750 0.688477
vt 0.973075 0.694874
vt 0.977400 0.688477
vt 0.981724 0.694874
vt 0.986049 0.688477
vt 0.990374 0.694874
vt 0.994699 0.688477
vt 0.999023 0.694874
vt 0.947126 0.742453
vt 0.938477 0.742453
vt 0.955776 0.742453
vt 0.964425 0.742453
vt 0.973075 0.742453
vt 0.981724 0.742453
vt 0.990374 0.742453
vt 0.999023 0.742453
vt 0.947126 0.745181
vt 0.938477 0.745181
vt 0.955776 0.745181
vt 0.964425 0.745181
vt 0.973075 0.745181
vt 0.981724 0.745181
vt 0.990374 0.745181
vt 0.999023 0.745181
vt 0.942801 0.749023
vt 0.951451 0.749023
vt 0.960100 0.749023
vt 0.968750 0.749023
vt 0.977400 0.749023
vt 0.986049 0.749023
vt 0.994699 0.749023
vt 0.943770 0.688477
vt 0.943770 0.749023
vt 0.939517 0.688477
vt 0.939517 0.749023
vt 0.943216 0.688477
vt 0.943216 0.749023
vt 0.939408 0.688477
vt 0.939408 0.749023
vt 0.886068 0.693726
vt 0.875977 0.693726
vt 0.896159 0.693726
vt 0.906250 0.693726
vt 0.916341 0.693726
vt 0.926432 0.693726
vt 0.936523 0.693726
vt 0.886068 0.743523
vt 0.875977 0.743523
vt 0.896159 0.743523
vt 0.906250 0.743523
vt 0.916341 0.743523
vt 0.926432 0.743523
vt 0.936523 0.743523
vt 0.886068 0.745867
vt 0.875977 0.745867
vt 0.896159 0.745867
vt 0.906250 0.745867
vt 0.916341 0.745867
vt 0.926432 0.745867
vt 0.936523 0.745867
vt 0.882174 0.688477
vt 0.882174 0.749023
vt 0.875977 0.749023
vt 0.877617 0.688477
vt 0.877617 0.749023
vt 0.883404 0.688477
vt 0.883404 0.749023
vt 0.877943 0.688477
vt 0.877943 0.749023
s 1
usemtl props
f 14/1/1 1/2/2 16/3/2 15/4/1
f 1/2/2 20/5/3 17/6/3 16/3/2
f 20/5/3 19/7/4 3/8/4 17/6/3
f 19/7/4 4/9/5 2/10/5 3/8/4
f 4/9/5 5/11/6 7/12/6 2/10/5
f 5/11/6 8/13/7 6/14/7 7/12/6
f 8/13/7 9/15/8 10/16/8 6/14/7
f 9/15/8 12/17/9 11/18/9 10/16/8
f 12/17/9 18/19/10 13/20/10 11/18/9
f 18/19/10 14/21/1 15/22/1 13/20/10
s 0
f 15/23/11 16/24/11 17/25/11 3/26/11 2/27/11 7/28/11 6/29/11 10/30/11 11/31/11 13/32/11
f 18/24/12 12/25/12 9/26/12 8/27/12 5/28/12 4/29/12 19/30/12 20/31/12 1/32/12 14/23/12
s 1
f 34/1/13 23/33/13 21/34/13 22/4/13
f 23/33/14 24/35/14 30/36/14 21/34/14
f 24/35/15 25/37/15 31/38/15 30/36/15
f 25/37/6 33/39/6 32/40/6 31/38/6
f 33/39/16 27/41/16 26/42/16 32/40/16
f 27/41/17 28/43/17 29/44/17 26/42/17
f 28/43/18 34/21/18 22/22/18 29/44/18
s 0
f 22/45/11 21/46/11 30/47/11 31/48/11 32/49/11 26/50/11 29/51/11
f 28/46/12 27/47/12 33/48/12 25/49/12 24/50/12 23/51/12 34/45/12
s 1
f 36/52/12 40/53/12 38/54/12
f 36/55/12 35/56/12 40/53/12
f 36/57/12 41/58/12 35/56/12
f 36/11/12 37/59/12 41/58/12
f 36/60/12 44/61/12 37/59/12
f 36/62/12 39/63/12 44/61/12
f 36/64/12 38/65/12 39/63/12
f 38/54/13 40/53/13 48/66/13 46/67/13
f 40/53/14 35/56/14 49/68/14 48/66/14
f 35/56/15 41/58/15 50/69/15 49/68/15
f 41/58/6 37/59/6 42/70/6 50/69/6
f 37/59/16 44/61/16 43/71/16 42/70/16
f 44/61/17 39/63/17 45/72/17 43/71/17
f 39/63/18 38/65/18 46/73/18 45/72/18
f 46/67/19 48/66/20 47/74/21 51/75/22
f 48/66/20 49/68/23 53/76/24 47/74/21
f 49/68/23 50/69/25 54/77/26 53/76/24
f 50/69/25 42/70/27 55/78/28 54/77/26
f 42/70/27 43/71/29 56/79/30 55/78/28
f 43/71/29 45/72/31 57/80/32 56/79/30
f 45/72/31 46/73/19 51/81/22 57/80/32
f 51/75/22 47/74/21 52/82/11
f 47/74/21 53/76/24 52/83/11
f 53/76/24 54/77/26 52/84/11
f 54/77/26 55/78/28 52/12/11
f 55/78/28 56/79/30 52/85/11
f 56/79/30 57/80/32 52/86/11
f 57/80/32 51/81/22 52/87/11
s 0
f 61/1/33 64/88/33 58/89/33 62/4/33
f 59/1/34 60/88/34 63/89/34 65/4/34
f 60/1/35 61/90/35 62/91/35 63/4/35
f 64/1/36 59/90/36 65/91/36 58/4/36
f 66/1/37 67/92/37 68/93/37 69/94/37
f 73/1/38 71/92/38 72/93/38 70/94/38
f 71/1/39 66/95/39 69/96/39 72/94/39
f 67/1/40 73/95/40 70/96/40 68/94/40
s 1
f 74/97/41 76/98/41 77/99/41 75/100/41
f 76/98/42 78/101/42 80/102/42 77/99/42
f 78/101/43 79/103/43 81/104/43 80/102/43
f 79/103/44 74/105/44 75/106/44 81/104/44
s 0
f 75/107/11 77/102/11 80/108/11 81/101/11
s 1
f 83/52/12 82/109/12 89/110/12
f 83/55/12 84/111/12 82/109/12
f 83/57/12 85/112/12 84/111/12
f 83/11/12 86/113/12 85/112/12
f 83/60/12 88/114/12 86/113/12
f 83/62/12 87/115/12 88/114/12
f 83/64/12 89/116/12 87/115/12
f 89/110/13 82/109/13 90/117/13 95/118/13
f 82/109/14 84/111/14 97/119/14 90/117/14
f 84/111/15 85/112/15 91/120/15 97/119/15
f 85/112/6 86/113/6 93/121/6 91/120/6
f 86/113/16 88/114/16 92/122/16 93/121/16
f 88/114/17 87/115/17 94/123/17 92/122/17
f 87/115/18 89/116/18 95/124/18 94/123/18
f 95/118/45 90/117/46 96/125/47 101/126/48
f 90/117/46 97/119/49 102/127/50 96/125/47
f 97/119/49 91/120/51 98/128/52 102/127/50
f 91/120/51 93/121/53 104/129/54 98/128/52
f 93/121/53 92/122/55 100/130/56 104/129/54
f 92/122/55 94/123/57 99/131/58 100/130/56
f 94/123/57 95/124/45 101/132/48 99/131/58
f 101/126/48 96/125/47 103/82/11
f 96/125/47 102/127/50 103/83/11
f 102/127/50 98/128/52 103/84/11
f 98/128/52 104/129/54 103/12/11
f 104/129/54 100/130/56 103/85/11
f 100/130/56 99/131/58 103/86/11
f 99/131/58 101/132/48 103/87/11
s 0
f 105/1/59 106/133/59 112/134/59 107/4/59
f 111/1/60 108/133/60 109/134/60 110/4/60
f 108/1/61 105/135/61 107/136/61 109/4/61
f 106/1/62 111/135/62 110/136/62 112/4/62
f 113/1/63 114/137/63 115/138/63 118/139/63
f 120/1/64 116/137/64 119/138/64 117/139/64
f 116/1/65 113/95/65 118/140/65 119/139/65
f 114/1/66 120/95/66 117/140/66 115/139/66
s 1
f 121/97/41 123/98/41 124/99/41 122/100/41
f 123/98/42 125/101/42 127/102/42 124/99/42
f 125/101/43 128/103/43 126/104/43 127/102/43
f 128/103/44 121/105/44 122/106/44 126/104/44
s 0
f 122/107/11 124/102/11 127/108/11 126/101/11
s 1
f 129/141/12 132/142/12 130/143/12
f 129/144/12 134/145/12 132/142/12
f 129/146/12 135/147/12 134/145/12
f 129/148/12 138/149/12 135/147/12
f 129/150/12 139/151/12 138/149/12
f 129/152/12 130/153/12 139/151/12
f 130/143/67 132/142/67 133/154/67 131/155/67
f 132/142/68 134/145/68 141/156/68 133/154/68
f 134/145/69 135/147/69 136/157/69 141/156/69
f 135/147/70 138/149/70 137/158/70 136/157/70
f 138/149/71 139/151/71 144/159/71 137/158/71
f 139/151/72 130/153/72 131/160/72 144/159/72
f 131/155/73 133/154/74 140/161/75 145/162/76
f 133/154/74 141/156/77 146/163/78 140/161/75
f 141/156/77 136/157/79 142/164/80 146/163/78
f 136/157/79 137/158/81 143/165/82 142/164/80
f 137/158/81 144/159/83 148/166/84 143/165/82
f 144/159/83 131/160/73 145/167/76 148/166/84
f 145/162/76 140/161/75 147/168/11
f 140/161/75 146/163/78 147/169/11
f 146/163/78 142/164/80 147/170/11
f 142/164/80 143/165/82 147/171/11
f 143/165/82 148/166/84 147/172/11
f 148/166/84 145/167/76 147/173/11
s 0
f 149/174/85 150/175/85 151/176/85 152/177/85
f 153/174/86 154/175/86 155/176/86 156/177/86
f 154/174/87 149/178/87 152/179/87 155/177/87
f 150/174/88 153/178/88 156/179/88 151/177/88
f 163/174/89 157/175/89 158/180/89 164/181/89
f 159/174/90 160/175/90 161/180/90 162/181/90
f 160/174/91 163/178/91 164/182/91 161/181/91
f 157/174/92 159/178/92 162/182/92 158/181/92
s 1
f 165/97/41 166/98/41 169/99/41 172/100/41
f 166/98/42 167/101/42 168/102/42 169/99/42
f 167/101/43 171/103/43 170/104/43 168/102/43
f 171/103/44 165/105/44 172/106/44 170/104/44
s 0
f 172/107/11 169/102/11 168/108/11 170/101/11
s 1
f 174/183/12 177/184/12 175/185/12
f 174/186/12 173/187/12 177/184/12
f 174/188/12 179/189/12 173/187/12
f 174/190/12 182/191/12 179/189/12
f 174/192/12 184/193/12 182/191/12
f 174/194/12 175/195/12 184/193/12
f 175/185/67 177/184/67 176/196/67 189/197/67
f 177/184/68 173/187/68 178/198/68 176/196/68
f 173/187/69 179/189/69 181/199/69 178/198/69
f 179/189/70 182/191/70 180/200/70 181/199/70
f 182/191/71 184/193/71 183/201/71 180/200/71
f 184/193/72 175/195/72 189/202/72 183/201/72
f 189/197/93 176/196/94 185/203/95 186/204/96
f 176/196/94 178/198/97 191/205/98 185/203/95
f 178/198/97 181/199/99 187/206/100 191/205/98
f 181/199/99 180/200/101 188/207/102 187/206/100
f 180/200/101 183/201/103 190/208/104 188/207/102
f 183/201/103 189/202/93 186/209/96 190/208/104
f 186/204/96 185/203/95 192/210/11
f 185/203/95 191/205/98 192/211/11
f 191/205/98 187/206/100 192/212/11
f 187/206/100 188/207/102 192/213/11
f 188/207/102 190/208/104 192/214/11
f 190/208/104 186/209/96 192/215/11
s 0
f 193/216/105 194/217/105 195/218/105 196/219/105
f 199/216/106 197/217/106 198/218/106 200/219/106
f 197/216/107 193/220/107 196/221/107 198/219/107
f 194/216/108 199/220/108 200/221/108 195/219/108
f 201/216/109 206/217/109 208/222/109 202/223/109
f 203/216/110 204/217/110 205/222/110 207/223/110
f 204/216/111 201/220/111 202/224/111 205/223/111
f 206/216/112 203/220/112 207/224/112 208/223/112
s 1
f 209/97/41 212/98/41 210/99/41 211/100/41
f 212/98/42 213/101/42 216/102/42 210/99/42
f 213/101/43 214/103/43 215/104/43 216/102/43
f 214/103/44 209/105/44 211/106/44 215/104/44
s 0
f 211/107/11 210/102/11 216/108/11 215/101/11
s 1
f 218/225/12 217/226/12 222/227/12
f 218/228/12 219/229/12 217/226/12
f 218/230/12 220/231/12 219/229/12
f 218/232/12 221/233/12 220/231/12
f 218/234/12 224/235/12 221/233/12
f 218/236/12 222/237/12 224/235/12
f 222/227/67 217/226/67 223/238/67 230/239/67
f 217/226/68 219/229/68 226/240/68 223/238/68
f 219/229/69 220/231/69 227/241/69 226/240/69
f 220/231/70 221/233/70 225/242/70 227/241/70
f 221/233/71 224/235/71 229/243/71 225/242/71
f 224/235/72 222/237/72 230/244/72 229/243/72
f 230/239/113 223/238/114 232/245/115 231/246/116
f 223/238/114 226/240/117 233/247/118 232/245/115
f 226/240/117 227/241/119 234/248/120 233/247/118
f 227/241/119 225/242/121 236/249/122 234/248/120
f 225/242/121 229/243/123 228/250/124 236/249/122
f 229/243/123 230/244/113 231/251/116 228/250/124
f 231/246/116 232/245/115 235/252/11
f 232/245/115 233/247/118 235/253/11
f 233/247/118 234/248/120 235/254/11
f 234/248/120 236/249/122 235/255/11
f 236/249/122 228/250/124 235/256/11
f 228/250/124 231/251/116 235/257/11
s 0
f 239/1/125 237/258/125 244/259/125 240/4/125
f 242/1/126 238/258/126 241/259/126 243/4/126
f 238/1/127 239/260/127 240/261/127 241/4/127
f 237/1/128 242/260/128 243/261/128 244/4/128
f 245/1/91 246/262/91 252/263/91 248/4/91
f 250/1/92 247/262/92 249/263/92 251/4/92
f 247/1/90 245/264/90 248/265/90 249/4/90
f 246/1/89 250/264/89 251/265/89 252/4/89
s 1
f 257/97/41 254/98/41 258/99/41 253/100/41
f 254/98/42 255/101/42 259/102/42 258/99/42
f 255/101/43 256/103/43 260/104/43 259/102/43
f 256/103/44 257/105/44 253/106/44 260/104/44
s 0
f 253/107/11 258/102/11 259/108/11 260/101/11
s 1
f 261/225/12 264/266/12 263/267/12
f 261/228/12 265/268/12 264/266/12
f 261/230/12 267/269/12 265/268/12
f 261/232/12 269/270/12 267/269/12
f 261/234/12 262/271/12 269/270/12
f 261/236/12 263/272/12 262/271/12
f 263/267/67 264/266/67 272/273/67 271/274/67
f 264/266/68 265/268/68 266/275/68 272/273/68
f 265/268/69 267/269/69 268/276/69 266/275/69
f 267/269/70 269/270/70 274/277/70 268/276/70
f 269/270/71 262/271/71 270/278/71 274/277/71
f 262/271/72 263/272/72 271/279/72 270/278/72
f 271/274/129 272/273/130 276/280/131 280/281/132
f 272/273/130 266/275/133 277/282/134 276/280/131
f 266/275/133 268/276/135 279/283/136 277/282/134
f 268/276/135 274/277/137 273/284/138 279/283/136
f 274/277/137 270/278/139 275/285/140 273/284/138
f 270/278/139 271/279/129 280/286/132 275/285/140
f 280/281/132 276/280/131 278/252/11
f 276/280/131 277/282/134 278/253/11
f 277/282/134 279/283/136 278/254/11
f 279/283/136 273/284/138 278/255/11
f 273/284/138 275/285/140 278/256/11
f 275/285/140 280/286/132 278/257/11
s 0
f 284/1/141 286/287/141 281/288/141 285/289/141
f 287/1/142 283/287/142 282/288/142 288/289/142
f 283/1/143 284/95/143 285/290/143 282/289/143
f 286/1/144 287/95/144 288/290/144 281/289/144
f 294/1/145 295/287/145 296/291/145 289/292/145
f 290/1/146 291/287/146 292/291/146 293/292/146
f 291/1/147 294/95/147 289/293/147 292/292/147
f 295/1/148 290/95/148 293/293/148 296/292/148
s 1
f 297/97/41 298/98/41 304/99/41 303/100/41
f 298/98/42 300/101/42 299/102/42 304/99/42
f 300/101/43 301/103/43 302/104/43 299/102/43
f 301/103/44 297/105/44 303/106/44 302/104/44
s 0
f 303/107/11 304/102/11 299/108/11 302/101/11
s 1
f 308/141/12 311/294/12 310/295/12
f 308/144/12 305/296/12 311/294/12
f 308/146/12 307/297/12 305/296/12
f 308/148/12 306/298/12 307/297/12
f 308/150/12 309/299/12 306/298/12
f 308/152/12 310/300/12 309/299/12
f 310/295/67 311/294/67 312/301/67 315/302/67
f 311/294/68 305/296/68 316/303/68 312/301/68
f 305/296/69 307/297/69 318/304/69 316/303/69
f 307/297/70 306/298/70 313/305/70 318/304/70
f 306/298/71 309/299/71 314/306/71 313/305/71
f 309/299/72 310/300/72 315/307/72 314/306/72
f 315/302/149 312/301/150 317/308/151 321/309/152
f 312/301/150 316/303/153 322/310/154 317/308/151
f 316/303/153 318/304/155 319/311/156 322/310/154
f 318/304/155 313/305/157 320/312/158 319/311/156
f 313/305/157 314/306/159 324/313/160 320/312/158
f 314/306/159 315/307/149 321/314/152 324/313/160
f 321/309/152 317/308/151 323/168/11
f 317/308/151 322/310/154 323/169/11
f 322/310/154 319/311/156 323/170/11
f 319/311/156 320/312/158 323/171/11
f 320/312/158 324/313/160 323/172/11
f 324/313/160 321/314/152 323/173/11
s 0
f 328/174/161 329/315/161 332/316/161 325/317/161
f 330/174/162 327/315/162 326/316/162 331/317/162
f 327/174/163 328/178/163 325/318/163 326/317/163
f 329/174/164 330/178/164 331/318/164 332/317/164
f 333/174/165 340/319/165 334/320/165 335/321/165
f 336/174/166 337/319/166 339/320/166 338/321/166
f 337/174/167 333/322/167 335/323/167 339/321/167
f 340/174/168 336/322/168 338/323/168 334/321/168
s 1
f 346/97/41 342/98/41 348/99/41 341/100/41
f 342/98/42 343/101/42 344/102/42 348/99/42
f 343/101/43 345/103/43 347/104/43 344/102/43
f 345/103/44 346/105/44 341/106/44 347/104/44
s 0
f 341/107/11 348/102/11 344/108/11 347/101/11
s 1
f 349/183/12 353/324/12 352/325/12
f 349/186/12 354/326/12 353/324/12
f 349/188/12 350/327/12 354/326/12
f 349/190/12 355/328/12 350/327/12
f 349/192/12 351/329/12 355/328/12
f 349/194/12 352/330/12 351/329/12
f 352/325/67 353/324/67 359/331/67 357/332/67
f 353/324/68 354/326/68 361/333/68 359/331/68
f 354/326/69 350/327/69 362/334/69 361/333/69
f 350/327/70 355/328/70 363/335/70 362/334/70
f 355/328/71 351/329/71 356/336/71 363/335/71
f 351/329/72 352/330/72 357/337/72 356/336/72
f 357/332/169 359/331/170 360/338/171 358/339/172
f 359/331/170 361/333/173 367/340/174 360/338/171
f 361/333/173 362/334/175 365/341/176 367/340/174
f 362/334/175 363/335/177 364/342/178 365/341/176
f 363/335/177 356/336/179 366/343/180 364/342/178
f 356/336/179 357/337/169 358/344/172 366/343/180
f 358/339/172 360/338/171 368/210/11
f 360/338/171 367/340/174 368/211/11
f 367/340/174 365/341/176 368/212/11
f 365/341/176 364/342/178 368/213/11
f 364/342/178 366/343/180 368/214/11
f 366/343/180 358/344/172 368/215/11
s 0
f 372/216/181 373/345/181 376/346/181 369/347/181
f 374/216/182 371/345/182 370/346/182 375/347/182
f 371/216/67 372/220/67 369/348/67 370/347/67
f 373/216/70 374/220/70 375/348/70 376/347/70
f 379/216/183 377/345/183 384/349/183 380/350/183
f 382/216/184 378/345/184 381/349/184 383/350/184
f 378/216/185 379/220/185 380/351/185 381/350/185
f 377/216/186 382/220/186 383/351/186 384/350/186
s 1
f 385/97/41 387/98/41 390/99/41 386/100/41
f 387/98/42 388/101/42 389/102/42 390/99/42
f 388/101/43 391/103/43 392/104/43 389/102/43
f 391/103/44 385/105/44 386/106/44 392/104/44
s 0
f 386/107/11 390/102/11 389/108/11 392/101/11
s 1
f 394/225/12 397/352/12 405/353/12
f 394/228/12 393/354/12 397/352/12
f 394/230/12 395/355/12 393/354/12
f 394/232/12 401/356/12 395/355/12
f 394/234/12 396/357/12 401/356/12
f 394/236/12 405/358/12 396/357/12
f 405/353/67 397/352/67 398/359/67 399/360/67
f 397/352/68 393/354/68 400/361/68 398/359/68
f 393/354/69 395/355/69 403/362/69 400/361/69
f 395/355/70 401/356/70 402/363/70 403/362/70
f 401/356/71 396/357/71 404/364/71 402/363/71
f 396/357/72 405/358/72 399/365/72 404/364/72
f 399/360/187 398/359/188 406/366/189 409/367/190
f 398/359/188 400/361/191 407/368/192 406/366/189
f 400/361/191 403/362/193 410/369/194 407/368/192
f 403/362/193 402/363/195 408/370/196 410/369/194
f 402/363/195 404/364/197 412/371/198 408/370/196
f 404/364/197 399/365/187 409/372/190 412/371/198
f 409/367/190 406/366/189 411/252/11
f 406/366/189 407/368/192 411/253/11
f 407/368/192 410/369/194 411/254/11
f 410/369/194 408/370/196 411/255/11
f 408/370/196 412/371/198 411/256/11
f 412/371/198 409/372/190 411/257/11
s 0
f 418/1/199 413/373/199 420/374/199 414/375/199
f 415/1/200 417/373/200 419/374/200 416/375/200
f 417/1/201 418/95/201 414/376/201 419/375/201
f 413/1/202 415/95/202 416/376/202 420/375/202
f 424/1/203 425/373/203 428/377/203 421/378/203
f 426/1/204 422/373/204 423/377/204 427/378/204
f 422/1/205 424/95/205 421/379/205 423/378/205
f 425/1/206 426/95/206 427/379/206 428/378/206
s 1
f 432/97/41 429/98/41 434/99/41 433/100/41
f 429/98/42 430/101/42 435/102/42 434/99/42
f 430/101/43 431/103/43 436/104/43 435/102/43
f 431/103/44 432/105/44 433/106/44 436/104/44
s 0
f 433/107/11 434/102/11 435/108/11 436/101/11
s 1
f 437/225/12 441/380/12 440/381/12
f 437/228/12 443/382/12 441/380/12
f 437/230/12 444/383/12 443/382/12
f 437/232/12 438/384/12 444/383/12
f 437/234/12 439/385/12 438/384/12
f 437/236/12 440/386/12 439/385/12
f 440/381/67 441/380/67 442/387/67 453/388/67
f 441/380/68 443/382/68 445/389/68 442/387/68
f 443/382/69 444/383/69 448/390/69 445/389/69
f 444/383/70 438/384/70 449/391/70 448/390/70
f 438/384/71 439/385/71 452/392/71 449/391/71
f 439/385/72 440/386/72 453/393/72 452/392/72
f 453/388/207 442/387/208 446/394/209 456/395/210
f 442/387/208 445/389/211 447/396/212 446/394/209
f 445/389/211 448/390/213 455/397/214 447/396/212
f 448/390/213 449/391/215 450/398/216 455/397/214
f 449/391/215 452/392/217 451/399/218 450/398/216
f 452/392/217 453/393/207 456/400/210 451/399/218
f 456/395/210 446/394/209 454/252/11
f 446/394/209 447/396/212 454/253/11
f 447/396/212 455/397/214 454/254/11
f 455/397/214 450/398/216 454/255/11
f 450/398/216 451/399/218 454/256/11
f 451/399/218 456/400/210 454/257/11
s 0
f 457/1/38 458/401/38 464/402/38 459/403/38
f 463/1/37 462/401/37 460/402/37 461/403/37
f 462/1/40 457/95/40 459/404/40 460/403/40
f 458/1/39 463/95/39 461/404/39 464/403/39
f 468/1/219 471/401/219 465/405/219 469/406/219
f 466/1/220 467/401/220 470/405/220 472/406/220
f 467/1/221 468/95/221 469/407/221 470/406/221
f 471/1/222 466/95/222 472/407/222 465/406/222
s 1
f 479/97/41 473/98/41 480/99/41 474/100/41
f 473/98/42 476/101/42 475/102/42 480/99/42
f 476/101/43 477/103/43 478/104/43 475/102/43
f 477/103/44 479/105/44 474/106/44 478/104/44
s 0
f 474/107/11 480/102/11 475/108/11 478/101/11
s 1
f 484/408/12 481/409/12 492/410/12
f 484/411/12 482/412/12 481/409/12
f 484/413/12 483/414/12 482/412/12
f 484/415/12 485/416/12 483/414/12
f 484/417/12 490/418/12 485/416/12
f 484/419/12 486/420/12 490/418/12
f 484/421/12 492/422/12 486/420/12
f 492/410/13 481/409/13 493/423/13 487/424/13
f 481/409/14 482/412/14 488/425/14 493/423/14
f 482/412/15 483/414/15 496/426/15 488/425/15
f 483/414/6 485/416/6 489/427/6 496/426/6
f 485/416/16 490/418/16 497/428/16 489/427/16
f 490/418/17 486/420/17 491/429/17 497/428/17
f 486/420/18 492/422/18 487/430/18 491/429/18
f 487/424/223 493/423/224 494/431/225 499/432/226
f 493/423/224 488/425/227 495/433/228 494/431/225
f 488/425/227 496/426/229 501/434/230 495/433/228
f 496/426/229 489/427/231 502/435/232 501/434/230
f 489/427/231 497/428/233 498/436/234 502/435/232
f 497/428/233 491/429/235 503/437/236 498/436/234
f 491/429/235 487/430/223 499/438/226 503/437/236
f 499/432/226 494/431/225 500/439/11
f 494/431/225 495/433/228 500/440/11
f 495/433/228 501/434/230 500/441/11
f 501/434/230 502/435/232 500/442/11
f 502/435/232 498/436/234 500/443/11
f 498/436/234 503/437/236 500/444/11
f 503/437/236 499/438/226 500/445/11
s 0
f 504/174/237 505/446/237 506/447/237 507/321/237
f 510/174/238 508/446/238 509/447/238 511/321/238
f 508/174/239 504/448/239 507/449/239 509/321/239
f 505/174/240 510/448/240 511/449/240 506/321/240
f 512/174/106 513/450/106 514/451/106 517/321/106
f 515/174/105 516/450/105 518/451/105 519/321/105
f 516/174/108 512/452/108 517/453/108 518/321/108
f 513/174/107 515/452/107 519/453/107 514/321/107
s 1
f 525/97/41 520/98/41 521/99/41 526/100/41
f 520/98/42 523/101/42 522/102/42 521/99/42
f 523/101/43 524/103/43 527/104/43 522/102/43
f 524/103/44 525/105/44 526/106/44 527/104/44
s 0
f 526/107/11 521/102/11 522/108/11 527/101/11
s 1
f 531/183/12 530/454/12 528/455/12
f 531/186/12 529/456/12 530/454/12
f 531/188/12 534/457/12 529/456/12
f 531/190/12 532/458/12 534/457/12
f 531/192/12 535/459/12 532/458/12
f 531/194/12 528/460/12 535/459/12
f 528/455/67 530/454/67 533/461/67 537/462/67
f 530/454/68 529/456/68 539/463/68 533/461/68
f 529/456/69 534/457/69 540/464/69 539/463/69
f 534/457/70 532/458/70 536/465/70 540/464/70
f 532/458/71 535/459/71 541/466/71 536/465/71
f 535/459/72 528/460/72 537/467/72 541/466/72
f 537/462/241 533/461/242 538/468/243 542/469/244
f 533/461/242 539/463/245 543/470/246 538/468/243
f 539/463/245 540/464/247 544/471/248 543/470/246
f 540/464/247 536/465/249 545/472/250 544/471/248
f 536/465/249 541/466/251 547/473/252 545/472/250
f 541/466/251 537/467/241 542/474/244 547/473/252
f 542/469/244 538/468/243 546/210/11
f 538/468/243 543/470/246 546/211/11
f 543/470/246 544/471/248 546/212/11
f 544/471/248 545/472/250 546/213/11
f 545/472/250 547/473/252 546/214/11
f 547/473/252 542/474/244 546/215/11
s 0
f 548/216/61 553/475/61 555/476/61 552/477/61
f 549/216/62 551/475/62 550/476/62 554/477/62
f 551/216/60 548/478/60 552/479/60 550/477/60
f 553/216/59 549/478/59 554/479/59 555/477/59
f 560/216/253 556/480/253 563/481/253 561/477/253
f 557/216/254 558/480/254 562/481/254 559/477/254
f 558/216/255 560/482/255 561/483/255 562/477/255
f 556/216/256 557/482/256 559/483/256 563/477/256
s 1
f 569/97/41 564/98/41 565/99/41 570/100/41
f 564/98/42 566/101/42 567/102/42 565/99/42
f 566/101/43 568/103/43 571/104/43 567/102/43
f 568/103/44 569/105/44 570/106/44 571/104/44
s 0
f 570/107/11 565/102/11 567/108/11 571/101/11
