# Blender 4.5.14 LTS
# www.blender.org
mtllib candle_skull.mtl
o candle_skull
v 0.035355 0.028000 -0.056194 0.7451 0.7451 0.7451
v 0.050000 0.028000 -0.012000 0.7490 0.7490 0.7490
v 0.000000 0.020000 -0.012000 0.6667 0.6667 0.6667
v 0.000000 0.028000 -0.074500 0.7451 0.7451 0.7451
v -0.000000 0.028000 0.050500 0.6667 0.6667 0.6667
v 0.000000 0.055000 -0.097000 0.8862 0.8862 0.8862
v -0.035355 0.028000 -0.056194 0.7490 0.7490 0.7490
v -0.068000 0.055000 -0.012000 0.8902 0.8902 0.8902
v -0.050000 0.028000 -0.012000 0.7490 0.7490 0.7490
v -0.035355 0.028000 0.032194 0.7059 0.7059 0.7059
v -0.048083 0.055000 0.048104 0.8078 0.8078 0.8078
v -0.000000 0.055000 0.073000 0.6667 0.6667 0.6667
v 0.035355 0.028000 0.032194 0.7059 0.7059 0.7059
v 0.048083 0.055000 0.048104 0.8078 0.8078 0.8078
v 0.048083 0.055000 -0.072104 0.8902 0.8902 0.8902
v -0.048083 0.055000 -0.072104 0.8902 0.8902 0.8902
v -0.074000 0.090000 -0.012000 0.9882 0.9882 0.9882
v -0.052326 0.090000 -0.077407 0.9882 0.9882 0.9882
v 0.068000 0.055000 -0.012000 0.8902 0.8902 0.8902
v 0.074000 0.090000 -0.012000 0.9921 0.9921 0.9921
v 0.052326 0.090000 0.053407 0.8627 0.8627 0.8627
v 0.052326 0.090000 -0.077407 0.9921 0.9921 0.9921
v 0.000000 0.090000 -0.104500 0.9882 0.9882 0.9882
v 0.000000 0.125000 -0.094500 1.0000 1.0000 1.0000
v -0.046669 0.125000 -0.070336 0.9960 0.9960 0.9960
v -0.052326 0.090000 0.053407 0.8588 0.8588 0.8588
v -0.000000 0.090000 0.080500 0.6667 0.6667 0.6667
v 0.046669 0.125000 -0.070336 0.9960 0.9960 0.9960
v 0.000000 0.148000 -0.068250 0.6667 0.6667 0.6667
v -0.031820 0.148000 -0.051775 0.9019 0.9019 0.9019
v -0.066000 0.125000 -0.012000 0.9921 0.9921 0.9921
v -0.031820 0.148000 0.027775 0.9255 0.9255 0.9255
v -0.046669 0.125000 0.046336 0.9490 0.9490 0.9490
v -0.000000 0.125000 0.070500 0.9607 0.9607 0.9607
v 0.046669 0.125000 0.046336 0.8509 0.8509 0.8509
v 0.066000 0.125000 -0.012000 0.9921 0.9921 0.9921
v 0.045000 0.148000 -0.012000 0.8392 0.8392 0.8392
v 0.031820 0.148000 -0.051775 0.9058 0.9058 0.9058
v -0.045000 0.148000 -0.012000 0.8392 0.8392 0.8392
v 0.000000 0.156000 -0.012000 0.6667 0.6667 0.6667
v -0.000000 0.148000 0.044250 0.9607 0.9607 0.9607
v 0.031820 0.148000 0.027775 0.9137 0.9137 0.9137
v -0.055000 0.020000 0.060000 0.7725 0.7725 0.7725
v -0.057750 0.110000 0.060000 0.9098 0.9098 0.9098
v 0.057750 0.110000 0.060000 0.9176 0.9176 0.9176
v 0.055000 0.020000 0.060000 0.7725 0.7725 0.7725
v -0.057750 0.110000 0.090000 0.9882 0.9882 0.9882
v 0.057750 0.110000 0.090000 0.9843 0.9843 0.9843
v 0.055000 0.020000 0.090000 0.8157 0.8157 0.8157
v -0.055000 0.020000 0.090000 0.8157 0.8157 0.8157
v 0.044000 0.027500 0.085000 0.6667 0.6667 0.6667
v 0.040000 -0.007500 0.035000 0.7176 0.7176 0.7176
v 0.044000 0.027500 0.035000 0.7843 0.7843 0.7843
v 0.040000 -0.007500 0.085000 0.7647 0.7647 0.7647
v -0.044000 0.027500 0.085000 0.6667 0.6667 0.6667
v -0.044000 0.027500 0.035000 0.7804 0.7804 0.7804
v -0.040000 -0.007500 0.035000 0.7176 0.7176 0.7176
v -0.040000 -0.007500 0.085000 0.7686 0.7686 0.7686
v -0.050000 0.000000 -0.040000 0.7764 0.7764 0.7764
v -0.050000 0.020000 -0.040000 0.8353 0.8353 0.8353
v 0.050000 0.000000 -0.040000 0.7725 0.7725 0.7725
v 0.050000 0.020000 0.040000 0.8078 0.8078 0.8078
v -0.050000 0.020000 0.040000 0.8078 0.8078 0.8078
v 0.050000 0.020000 -0.040000 0.8431 0.8431 0.8431
v 0.050000 0.000000 0.040000 0.7529 0.7529 0.7529
v -0.050000 0.000000 0.040000 0.7568 0.7568 0.7568
v 0.024749 0.167000 -0.039749 0.9568 0.9568 0.9568
v 0.035000 0.167000 -0.015000 0.9568 0.9568 0.9568
v 0.035355 0.155000 -0.050355 0.9137 0.9137 0.9137
v 0.000000 0.155000 -0.065000 0.6706 0.6706 0.6706
v -0.024749 0.167000 -0.039749 0.9607 0.9607 0.9607
v 0.000000 0.167000 -0.050000 0.9451 0.9451 0.9451
v -0.035355 0.155000 -0.050355 0.9098 0.9098 0.9098
v -0.035000 0.167000 -0.015000 0.9568 0.9568 0.9568
v -0.024749 0.167000 0.009749 0.9529 0.9529 0.9529
v -0.035355 0.155000 0.020355 0.8588 0.8588 0.8588
v -0.000000 0.155000 0.035000 0.8784 0.8784 0.8784
v -0.000000 0.167000 0.020000 0.9529 0.9529 0.9529
v 0.024749 0.167000 0.009749 0.9490 0.9490 0.9490
v 0.035355 0.155000 0.020355 0.8745 0.8745 0.8745
v -0.050000 0.155000 -0.015000 0.9098 0.9098 0.9098
v 0.050000 0.155000 -0.015000 0.9098 0.9098 0.9098
v 0.022000 0.165000 -0.015000 0.6667 0.6667 0.6667
v 0.011000 0.165000 -0.034053 0.6667 0.6667 0.6667
v -0.011000 0.165000 -0.034053 0.6667 0.6667 0.6667
v -0.022000 0.165000 -0.015000 0.6667 0.6667 0.6667
v 0.000000 0.165000 -0.015000 0.6667 0.6667 0.6667
v -0.011000 0.165000 0.004053 0.6667 0.6667 0.6667
v 0.011000 0.165000 0.004053 0.6667 0.6667 0.6667
v 0.011000 0.255000 -0.034053 0.9804 0.9804 0.9804
v -0.011000 0.255000 -0.034053 0.9843 0.9843 0.9843
v 0.006600 0.250000 -0.026432 0.9372 0.9372 0.9372
v -0.022000 0.255000 -0.015000 0.9804 0.9804 0.9804
v -0.013200 0.250000 -0.015000 0.9294 0.9294 0.9294
v -0.011000 0.255000 0.004053 0.8706 0.8706 0.8706
v 0.011000 0.255000 0.004053 0.9764 0.9764 0.9764
v -0.006600 0.250000 -0.003568 0.9333 0.9333 0.9333
v 0.022000 0.255000 -0.015000 0.9529 0.9529 0.9529
v 0.000000 0.251000 -0.015000 0.6667 0.6667 0.6667
v -0.006600 0.250000 -0.026432 0.9372 0.9372 0.9372
v 0.006600 0.250000 -0.003568 0.9333 0.9333 0.9333
v 0.013200 0.250000 -0.015000 0.9411 0.9411 0.9411
v 0.025355 0.210910 -0.017576 0.9568 0.9568 0.9568
v 0.022460 0.210910 -0.027043 0.9607 0.9607 0.9607
v 0.025355 0.255000 -0.017576 0.9843 0.9843 0.9843
v 0.022486 0.210910 -0.016698 0.7960 0.7960 0.7960
v 0.022486 0.255000 -0.016698 0.8313 0.8313 0.8313
v 0.019591 0.210910 -0.026166 0.7882 0.7882 0.7882
v 0.019591 0.255000 -0.026166 0.8745 0.8745 0.8745
v 0.022460 0.255000 -0.027043 0.9804 0.9804 0.9804
v -0.016450 0.216670 0.004466 0.9607 0.9607 0.9607
v -0.007791 0.216670 0.009265 0.9568 0.9568 0.9568
v -0.007791 0.255000 0.009265 0.9843 0.9843 0.9843
v -0.016450 0.255000 0.004466 0.9804 0.9804 0.9804
v -0.006336 0.216670 0.006641 0.8078 0.8078 0.8078
v -0.014995 0.216670 0.001842 0.8117 0.8117 0.8117
v -0.006336 0.255000 0.006641 0.8862 0.8862 0.8862
v -0.014995 0.255000 0.001842 0.8823 0.8823 0.8823
v 0.001500 0.250000 -0.015000 0.6667 0.6667 0.6667
v 0.000000 0.250000 -0.016500 0.6667 0.6667 0.6667
v -0.001500 0.262000 -0.015000 0.9294 0.9294 0.9294
v 0.000000 0.262000 -0.016500 0.9294 0.9294 0.9294
v -0.001500 0.250000 -0.015000 0.6667 0.6667 0.6667
v -0.000000 0.250000 -0.013500 0.6667 0.6667 0.6667
v 0.001500 0.262000 -0.015000 0.9294 0.9294 0.9294
v -0.000000 0.262000 -0.013500 0.9294 0.9294 0.9294
v 0.056000 0.165000 0.046000 0.9804 0.9804 0.9804
v 0.044000 0.165000 0.046000 0.9294 0.9294 0.9294
v 0.044000 0.165000 0.034000 0.8862 0.8862 0.8862
v 0.056000 0.165000 0.034000 0.9451 0.9451 0.9451
v 0.044000 0.075000 0.046000 0.6980 0.6980 0.6980
v 0.056000 0.075000 0.034000 0.7960 0.7960 0.7960
v 0.044000 0.075000 0.034000 0.7294 0.7294 0.7294
v 0.056000 0.075000 0.046000 0.8431 0.8431 0.8431
v -0.061000 0.045000 0.026000 0.8157 0.8157 0.8157
v -0.049000 0.045000 0.026000 0.7176 0.7176 0.7176
v -0.049000 0.165000 0.026000 0.9019 0.9019 0.9019
v -0.061000 0.165000 0.026000 0.9725 0.9725 0.9725
v -0.049000 0.165000 0.014000 0.8745 0.8745 0.8745
v -0.061000 0.165000 0.014000 0.9568 0.9568 0.9568
v -0.061000 0.045000 0.014000 0.8039 0.8039 0.8039
v -0.049000 0.045000 0.014000 0.7294 0.7294 0.7294
v 0.006000 0.165000 -0.064000 0.8784 0.8784 0.8784
v 0.006000 0.065000 -0.076000 0.6745 0.6745 0.6745
v -0.006000 0.165000 -0.076000 0.9647 0.9647 0.9647
v 0.006000 0.165000 -0.076000 0.9647 0.9647 0.9647
v -0.006000 0.065000 -0.076000 0.6706 0.6706 0.6706
v -0.006000 0.065000 -0.064000 0.7098 0.7098 0.7098
v 0.006000 0.065000 -0.064000 0.7098 0.7098 0.7098
v -0.006000 0.165000 -0.064000 0.8745 0.8745 0.8745
v -0.036000 0.165000 0.071000 0.9804 0.9804 0.9804
v -0.036000 0.115000 0.059000 0.7608 0.7608 0.7608
v -0.024000 0.165000 0.059000 0.8941 0.8941 0.8941
v -0.036000 0.165000 0.059000 0.9255 0.9255 0.9255
v -0.024000 0.115000 0.071000 0.7764 0.7764 0.7764
v -0.024000 0.165000 0.071000 0.9568 0.9568 0.9568
v -0.024000 0.115000 0.059000 0.7451 0.7451 0.7451
v -0.036000 0.115000 0.071000 0.8000 0.8000 0.8000
vn -0.0000 -1.0000 -0.0000
vn 0.4486 -0.8170 -0.3623
vn 0.5929 -0.8053 -0.0000
vn -0.0000 -0.8306 -0.5568
vn -0.4486 -0.8170 -0.3623
vn -0.5929 -0.8053 -0.0000
vn -0.4486 -0.8170 0.3623
vn -0.0000 -0.8306 0.5568
vn 0.4486 -0.8170 0.3623
vn 0.7002 -0.3836 -0.6021
vn 0.9344 -0.3563 -0.0000
vn -0.0000 -0.4120 -0.9112
vn -0.7002 -0.3836 -0.6021
vn -0.9344 -0.3563 -0.0000
vn -0.7002 -0.3836 0.6021
vn -0.0000 -0.4120 0.9112
vn 0.7002 -0.3836 0.6021
vn 0.7543 0.0289 -0.6559
vn 0.9997 0.0264 -0.0000
vn 0.4596 0.0279 -0.8877
vn -0.7543 0.0289 -0.6559
vn -0.4596 0.0279 -0.8877
vn -0.9997 0.0264 -0.0000
vn -0.7543 0.0289 0.6559
vn -0.4596 0.0279 0.8877
vn 0.7543 0.0289 0.6559
vn 0.4596 0.0279 0.8877
vn 0.6695 0.4722 -0.5734
vn 0.8960 0.4440 -0.0000
vn -0.0000 0.5006 -0.8657
vn -0.6695 0.4722 -0.5734
vn -0.8960 0.4440 -0.0000
vn -0.6695 0.4722 0.5734
vn -0.0000 0.5006 0.8657
vn 0.6695 0.4722 0.5734
vn 0.3978 0.8609 -0.3171
vn 0.5294 0.8484 -0.0000
vn -0.0000 0.8755 -0.4832
vn -0.3978 0.8609 -0.3171
vn -0.5294 0.8484 -0.0000
vn -0.3978 0.8609 0.3171
vn -0.0000 0.8755 0.4832
vn 0.3978 0.8609 0.3171
vn -0.0000 1.0000 -0.0000
vn -0.0000 -0.0000 1.0000
vn -0.0000 -0.0000 -1.0000
vn -0.9995 -0.0305 -0.0000
vn 0.9995 -0.0305 -0.0000
vn -0.9935 -0.1135 -0.0000
vn 0.9935 -0.1135 -0.0000
vn -1.0000 -0.0000 -0.0000
vn 1.0000 -0.0000 -0.0000
vn 0.6247 0.7809 -0.0000
vn 0.4417 0.7809 -0.4417
vn -0.0000 0.7809 -0.6247
vn -0.4417 0.7809 -0.4417
vn -0.6247 0.7809 -0.0000
vn -0.4417 0.7809 0.4417
vn -0.0000 0.7809 0.6247
vn 0.4417 0.7809 0.4417
vn 0.8660 -0.0000 -0.5000
vn -0.8660 -0.0000 -0.5000
vn -0.8660 -0.0000 0.5000
vn 0.8660 -0.0000 0.5000
vn -0.4940 0.8695 -0.0000
vn -0.2470 0.8695 0.4278
vn -0.1533 0.9518 0.2655
vn -0.3066 0.9518 -0.0000
vn 0.2470 0.8695 0.4278
vn 0.1533 0.9518 0.2655
vn 0.4940 0.8695 -0.0000
vn 0.3066 0.9518 -0.0000
vn 0.2470 0.8695 -0.4278
vn 0.1533 0.9518 -0.2655
vn -0.2470 0.8695 -0.4278
vn -0.1533 0.9518 -0.2655
vn 0.9563 -0.0000 -0.2924
vn -0.9563 -0.0000 0.2924
vn 0.2924 -0.0000 0.9563
vn -0.2924 -0.0000 -0.9563
vn -0.4848 -0.0000 0.8746
vn 0.4848 -0.0000 -0.8746
vn -0.8746 -0.0000 -0.4848
vn 0.8746 -0.0000 0.4848
vn 0.7071 -0.0000 -0.7071
vn -0.7071 -0.0000 -0.7071
vn -0.7071 -0.0000 0.7071
vn 0.7071 -0.0000 0.7071
vt 0.754761 0.938477
vt 0.758545 0.951729
vt 0.750977 0.951729
vt 0.762329 0.938477
vt 0.766113 0.951729
vt 0.769897 0.938477
vt 0.773682 0.951729
vt 0.777466 0.938477
vt 0.781250 0.951729
vt 0.785034 0.938477
vt 0.788818 0.951729
vt 0.792603 0.938477
vt 0.796387 0.951729
vt 0.800171 0.938477
vt 0.803955 0.951729
vt 0.807739 0.938477
vt 0.811523 0.951729
vt 0.758545 0.960221
vt 0.750977 0.960221
vt 0.766113 0.960221
vt 0.773682 0.960221
vt 0.781250 0.960221
vt 0.788818 0.960221
vt 0.796387 0.960221
vt 0.803955 0.960221
vt 0.811523 0.960221
vt 0.758545 0.969515
vt 0.750977 0.969515
vt 0.766113 0.969515
vt 0.773682 0.969515
vt 0.781250 0.969515
vt 0.788818 0.969515
vt 0.796387 0.969515
vt 0.803955 0.969515
vt 0.811523 0.969515
vt 0.758545 0.978911
vt 0.750977 0.978911
vt 0.766113 0.978911
vt 0.773682 0.978911
vt 0.781250 0.978911
vt 0.788818 0.978911
vt 0.796387 0.978911
vt 0.803955 0.978911
vt 0.811523 0.978911
vt 0.758545 0.987062
vt 0.750977 0.987062
vt 0.766113 0.987062
vt 0.773682 0.987062
vt 0.781250 0.987062
vt 0.788818 0.987062
vt 0.796387 0.987062
vt 0.803955 0.987062
vt 0.811523 0.987062
vt 0.754761 0.999023
vt 0.762329 0.999023
vt 0.769897 0.999023
vt 0.777466 0.999023
vt 0.785034 0.999023
vt 0.792603 0.999023
vt 0.800171 0.999023
vt 0.807739 0.999023
vt 0.221168 0.641602
vt 0.278832 0.641602
vt 0.280273 0.686523
vt 0.219727 0.686523
vt 0.752418 0.938477
vt 0.810082 0.938477
vt 0.811523 0.985656
vt 0.750977 0.985656
vt 0.750977 0.938477
vt 0.771149 0.938477
vt 0.771149 0.999023
vt 0.750977 0.999023
vt 0.811523 0.938477
vt 0.811523 0.954203
vt 0.750977 0.954203
vt 0.811523 0.954989
vt 0.750977 0.954989
vt 0.659979 0.665039
vt 0.715021 0.665039
vt 0.717773 0.686523
vt 0.657227 0.686523
vt 0.753729 0.938477
vt 0.808771 0.938477
vt 0.811523 0.962558
vt 0.750977 0.962558
vt 0.799414 0.938477
vt 0.799414 0.972603
vt 0.750977 0.972603
vt 0.811523 0.972878
vt 0.750977 0.972878
vt 0.811523 0.976318
vt 0.750977 0.976318
vt 0.811523 0.950586
vt 0.750977 0.950586
vt 0.811523 0.953613
vt 0.750977 0.953613
vt 0.811523 0.986914
vt 0.750977 0.986914
vt 0.875977 0.688477
vt 0.883545 0.688477
vt 0.883545 0.749023
vt 0.875977 0.749023
vt 0.891113 0.688477
vt 0.891113 0.749023
vt 0.898682 0.688477
vt 0.898682 0.749023
vt 0.906250 0.688477
vt 0.906250 0.749023
vt 0.913818 0.688477
vt 0.913818 0.749023
vt 0.921387 0.688477
vt 0.921387 0.749023
vt 0.928955 0.688477
vt 0.928955 0.749023
vt 0.936523 0.688477
vt 0.936523 0.749023
vt 0.936523 0.718750
vt 0.927657 0.740157
vt 0.884843 0.740157
vt 0.875977 0.718750
vt 0.884843 0.697343
vt 0.927657 0.697343
vt 0.881022 0.688477
vt 0.886068 0.698317
vt 0.875977 0.698317
vt 0.896159 0.698317
vt 0.901204 0.688477
vt 0.906250 0.698317
vt 0.911296 0.688477
vt 0.916341 0.698317
vt 0.926432 0.698317
vt 0.931478 0.688477
vt 0.936523 0.698317
vt 0.886068 0.738575
vt 0.875977 0.738575
vt 0.896159 0.738575
vt 0.906250 0.738575
vt 0.916341 0.738575
vt 0.926432 0.738575
vt 0.936523 0.738575
vt 0.886068 0.743102
vt 0.875977 0.743102
vt 0.896159 0.743102
vt 0.906250 0.743102
vt 0.916341 0.743102
vt 0.926432 0.743102
vt 0.936523 0.743102
vt 0.881022 0.749023
vt 0.901204 0.749023
vt 0.911296 0.749023
vt 0.931478 0.749023
vt 0.885567 0.688477
vt 0.885567 0.731189
vt 0.875977 0.731189
vt 0.878883 0.688477
vt 0.878883 0.731189
vt 0.885567 0.725609
vt 0.875977 0.725609
vt 0.878883 0.725609
vt 0.563477 0.688477
vt 0.578613 0.688477
vt 0.578613 0.749023
vt 0.563477 0.749023
vt 0.593750 0.688477
vt 0.593750 0.749023
vt 0.608887 0.688477
vt 0.608887 0.749023
vt 0.624023 0.688477
vt 0.624023 0.749023
vt 0.624023 0.718750
vt 0.563477 0.718750
vt 0.884049 0.688477
vt 0.884049 0.749023
vt 0.887602 0.688477
vt 0.887602 0.700102
vt 0.875977 0.700102
vt 0.882031 0.688477
vt 0.882031 0.749023
vt 0.883242 0.688477
vt 0.883242 0.749023
vt 0.887602 0.736914
vt 0.875977 0.736914
s 1
usemtl props
f 3/1/1 1/2/2 2/3/3
f 3/4/1 4/5/4 1/2/2
f 3/6/1 7/7/5 4/5/4
f 3/8/1 9/9/6 7/7/5
f 3/10/1 10/11/7 9/9/6
f 3/12/1 5/13/8 10/11/7
f 3/14/1 13/15/9 5/13/8
f 3/16/1 2/17/3 13/15/9
f 2/3/3 1/2/2 15/18/10 19/19/11
f 1/2/2 4/5/4 6/20/12 15/18/10
f 4/5/4 7/7/5 16/21/13 6/20/12
f 7/7/5 9/9/6 8/22/14 16/21/13
f 9/9/6 10/11/7 11/23/15 8/22/14
f 10/11/7 5/13/8 12/24/16 11/23/15
f 5/13/8 13/15/9 14/25/17 12/24/16
f 13/15/9 2/17/3 19/26/11 14/25/17
f 19/19/11 15/18/10 22/27/18 20/28/19
f 15/18/10 6/20/12 23/29/20 22/27/18
f 6/20/12 16/21/13 18/30/21 23/29/22
f 16/21/13 8/22/14 17/31/23 18/30/21
f 8/22/14 11/23/15 26/32/24 17/31/23
f 11/23/15 12/24/16 27/33/25 26/32/24
f 12/24/16 14/25/17 21/34/26 27/33/27
f 14/25/17 19/26/11 20/35/19 21/34/26
f 20/28/19 22/27/18 28/36/28 36/37/29
f 22/27/18 23/29/20 24/38/30 28/36/28
f 23/29/22 18/30/21 25/39/31 24/38/30
f 18/30/21 17/31/23 31/40/32 25/39/31
f 17/31/23 26/32/24 33/41/33 31/40/32
f 26/32/24 27/33/25 34/42/34 33/41/33
f 27/33/27 21/34/26 35/43/35 34/42/34
f 21/34/26 20/35/19 36/44/29 35/43/35
f 36/37/29 28/36/28 38/45/36 37/46/37
f 28/36/28 24/38/30 29/47/38 38/45/36
f 24/38/30 25/39/31 30/48/39 29/47/38
f 25/39/31 31/40/32 39/49/40 30/48/39
f 31/40/32 33/41/33 32/50/41 39/49/40
f 33/41/33 34/42/34 41/51/42 32/50/41
f 34/42/34 35/43/35 42/52/43 41/51/42
f 35/43/35 36/44/29 37/53/37 42/52/43
f 37/46/37 38/45/36 40/54/44
f 38/45/36 29/47/38 40/55/44
f 29/47/38 30/48/39 40/56/44
f 30/48/39 39/49/40 40/57/44
f 39/49/40 32/50/41 40/58/44
f 32/50/41 41/51/42 40/59/44
f 41/51/42 42/52/43 40/60/44
f 42/52/43 37/53/37 40/61/44
s 0
f 50/62/45 49/63/45 48/64/45 47/65/45
f 46/66/46 43/67/46 44/68/46 45/69/46
f 43/70/47 50/71/47 47/72/47 44/73/47
f 49/70/48 46/71/48 45/72/48 48/73/48
f 47/70/44 48/74/44 45/75/44 44/76/44
f 43/70/1 46/74/1 49/77/1 50/78/1
f 58/79/45 54/80/45 51/81/45 55/82/45
f 52/83/46 57/84/46 56/85/46 53/86/46
f 57/70/49 58/87/49 55/88/49 56/89/49
f 54/70/50 52/87/50 53/88/50 51/89/50
f 55/70/44 51/74/44 53/90/44 56/91/44
f 57/70/1 52/74/1 54/92/1 58/93/1
f 66/70/45 65/74/45 62/94/45 63/95/45
f 61/70/46 59/74/46 60/94/46 64/95/46
f 59/70/51 66/74/51 63/96/51 60/97/51
f 65/70/52 61/74/52 64/96/52 62/97/52
f 63/70/44 62/74/44 64/98/44 60/99/44
f 59/70/1 61/74/1 65/98/1 66/99/1
s 1
f 82/100/53 69/101/54 67/102/54 68/103/53
f 69/101/54 70/104/55 72/105/55 67/102/54
f 70/104/55 73/106/56 71/107/56 72/105/55
f 73/106/56 81/108/57 74/109/57 71/107/56
f 81/108/57 76/110/58 75/111/58 74/109/57
f 76/110/58 77/112/59 78/113/59 75/111/58
f 77/112/59 80/114/60 79/115/60 78/113/59
f 80/114/60 82/116/53 68/117/53 79/115/60
s 0
f 68/118/44 67/119/44 72/109/44 71/120/44 74/121/44 75/122/44 78/108/44 79/123/44
f 80/119/1 77/109/1 76/120/1 81/121/1 73/122/1 70/108/1 69/123/1 82/118/1
s 1
f 87/124/1 84/125/1 83/126/1
f 87/104/1 85/127/1 84/125/1
f 87/128/1 86/129/1 85/127/1
f 87/130/1 88/131/1 86/129/1
f 87/112/1 89/132/1 88/131/1
f 87/133/1 83/134/1 89/132/1
f 83/126/61 84/125/61 90/135/61 98/136/61
f 84/125/46 85/127/46 91/137/46 90/135/46
f 85/127/62 86/129/62 93/138/62 91/137/62
f 86/129/63 88/131/63 95/139/63 93/138/63
f 88/131/45 89/132/45 96/140/45 95/139/45
f 89/132/64 83/134/64 98/141/64 96/140/64
f 98/136/65 90/135/66 92/142/67 102/143/68
f 90/135/66 91/137/69 100/144/70 92/142/67
f 91/137/69 93/138/71 94/145/72 100/144/70
f 93/138/71 95/139/73 97/146/74 94/145/72
f 95/139/73 96/140/75 101/147/76 97/146/74
f 96/140/75 98/141/65 102/148/68 101/147/76
f 102/143/68 92/142/67 99/149/44
f 92/142/67 100/144/70 99/105/44
f 100/144/70 94/145/72 99/150/44
f 94/145/72 97/146/74 99/151/44
f 97/146/74 101/147/76 99/113/44
f 101/147/76 102/148/68 99/152/44
s 0
f 103/100/77 104/153/77 110/154/77 105/155/77
f 108/100/78 106/153/78 107/154/78 109/155/78
f 106/100/79 103/156/79 105/157/79 107/155/79
f 104/100/80 108/156/80 109/157/80 110/155/80
f 111/100/81 112/153/81 113/158/81 114/159/81
f 115/100/82 116/153/82 118/158/82 117/159/82
f 116/100/83 111/156/83 114/160/83 118/159/83
f 112/100/84 115/156/84 117/160/84 113/159/84
s 1
f 119/161/85 120/162/85 122/163/85 125/164/85
f 120/162/86 123/165/86 121/166/86 122/163/86
f 123/165/87 124/167/87 126/168/87 121/166/87
f 124/167/88 119/169/88 125/170/88 126/168/88
s 0
f 125/171/44 122/166/44 121/172/44 126/165/44
f 131/100/45 134/173/45 127/174/45 128/103/45
f 132/100/46 133/173/46 129/174/46 130/103/46
f 133/100/51 131/173/51 128/174/51 129/103/51
f 134/100/52 132/173/52 130/174/52 127/103/52
f 128/100/44 127/175/44 130/176/44 129/177/44
f 133/100/1 132/175/1 134/176/1 131/177/1
f 135/100/45 136/178/45 137/179/45 138/103/45
f 142/100/46 141/178/46 140/179/46 139/103/46
f 141/100/51 135/178/51 138/179/51 140/103/51
f 136/100/52 142/178/52 139/179/52 137/103/52
f 138/100/44 137/175/44 139/176/44 140/177/44
f 141/100/1 142/175/1 136/176/1 135/177/1
f 148/100/45 149/180/45 143/181/45 150/103/45
f 144/100/46 147/180/46 145/181/46 146/103/46
f 147/100/51 148/180/51 150/181/51 145/103/51
f 149/100/52 144/180/52 146/181/52 143/103/52
f 150/100/44 143/175/44 146/176/44 145/177/44
f 147/100/1 144/175/1 149/176/1 148/177/1
f 158/100/45 155/175/45 156/182/45 151/183/45
f 157/100/46 152/175/46 154/182/46 153/183/46
f 152/100/51 158/175/51 151/182/51 154/183/51
f 155/100/52 157/175/52 153/182/52 156/183/52
f 151/100/44 156/175/44 153/176/44 154/177/44
f 152/100/1 157/175/1 155/176/1 158/177/1
