# Blender 4.5.14 LTS
# www.blender.org
mtllib doll_porcelain.mtl
o doll_porcelain
v 0.080902 0.000000 -0.049962 0.7294 0.7294 0.7294
v 0.000000 0.000000 0.000000 0.6667 0.6667 0.6667
v -0.100000 0.000000 -0.000000 0.7255 0.7255 0.7255
v 0.084947 0.020000 -0.052460 0.8745 0.8745 0.8745
v 0.030902 0.000000 -0.080840 0.7294 0.7294 0.7294
v -0.032447 0.020000 -0.084882 0.8745 0.8745 0.8745
v -0.030902 0.000000 -0.080840 0.7294 0.7294 0.7294
v -0.080902 0.000000 -0.049962 0.7255 0.7255 0.7255
v -0.080902 0.000000 0.049962 0.7255 0.7255 0.7255
v -0.105000 0.020000 -0.000000 0.8706 0.8706 0.8706
v -0.030902 0.000000 0.080840 0.6902 0.6902 0.6902
v 0.030902 0.000000 0.080840 0.6941 0.6941 0.6941
v 0.080902 0.000000 0.049962 0.7255 0.7255 0.7255
v 0.100000 0.000000 0.000000 0.7294 0.7294 0.7294
v 0.105000 0.020000 0.000000 0.8745 0.8745 0.8745
v 0.084947 0.020000 0.052460 0.8666 0.8666 0.8666
v 0.032447 0.020000 -0.084882 0.8784 0.8784 0.8784
v -0.018541 0.100000 -0.048504 0.9960 0.9960 0.9960
v -0.084947 0.020000 -0.052460 0.8706 0.8706 0.8706
v -0.060000 0.100000 -0.000000 0.9764 0.9764 0.9764
v -0.084947 0.020000 0.052460 0.8666 0.8666 0.8666
v -0.048541 0.100000 0.029977 0.9019 0.9019 0.9019
v -0.032447 0.020000 0.084882 0.6667 0.6667 0.6667
v 0.018541 0.100000 0.048504 0.9058 0.9058 0.9058
v -0.018541 0.100000 0.048504 0.8980 0.8980 0.8980
v 0.032447 0.020000 0.084882 0.6667 0.6667 0.6667
v 0.060000 0.100000 0.000000 0.9725 0.9725 0.9725
v 0.048541 0.100000 -0.029977 0.9882 0.9882 0.9882
v 0.011125 0.130000 -0.029102 0.9725 0.9725 0.9725
v 0.029125 0.130000 -0.017986 0.9568 0.9568 0.9568
v 0.018541 0.100000 -0.048504 0.9960 0.9960 0.9960
v -0.011125 0.130000 -0.029102 0.9764 0.9764 0.9764
v -0.048541 0.100000 -0.029977 0.9921 0.9921 0.9921
v -0.036000 0.130000 -0.000000 0.9137 0.9137 0.9137
v -0.029125 0.130000 0.017986 0.8431 0.8431 0.8431
v 0.011125 0.130000 0.029102 0.9215 0.9215 0.9215
v -0.011125 0.130000 0.029102 0.9255 0.9255 0.9255
v 0.048541 0.100000 0.029977 0.8941 0.8941 0.8941
v 0.036000 0.130000 0.000000 0.9058 0.9058 0.9058
v 0.034000 0.200000 0.000000 0.7882 0.7882 0.7882
v 0.027507 0.200000 -0.016987 0.9019 0.9019 0.9019
v -0.029125 0.130000 -0.017986 0.9568 0.9568 0.9568
v -0.010507 0.200000 -0.027486 0.9529 0.9529 0.9529
v 0.027507 0.200000 0.016987 0.9451 0.9451 0.9451
v 0.029125 0.130000 0.017986 0.8509 0.8509 0.8509
v 0.007725 0.215000 -0.020210 0.8353 0.8353 0.8353
v 0.010507 0.200000 -0.027486 0.9607 0.9607 0.9607
v -0.027507 0.200000 -0.016987 0.9058 0.9058 0.9058
v -0.034000 0.200000 -0.000000 0.7921 0.7921 0.7921
v -0.027507 0.200000 0.016987 0.9529 0.9529 0.9529
v -0.020225 0.215000 0.012490 0.8666 0.8666 0.8666
v -0.010507 0.200000 0.027486 0.9804 0.9804 0.9804
v 0.010507 0.200000 0.027486 0.9686 0.9686 0.9686
v 0.007725 0.215000 0.020210 0.8862 0.8862 0.8862
v 0.025000 0.215000 0.000000 0.8196 0.8196 0.8196
v 0.020225 0.215000 0.012490 0.8745 0.8745 0.8745
v 0.020225 0.215000 -0.012490 0.8157 0.8157 0.8157
v -0.007725 0.215000 -0.020210 0.8392 0.8392 0.8392
v 0.000000 0.220000 0.000000 0.6667 0.6667 0.6667
v -0.020225 0.215000 -0.012490 0.8157 0.8157 0.8157
v -0.025000 0.215000 -0.000000 0.8313 0.8313 0.8313
v -0.007725 0.215000 0.020210 0.8862 0.8862 0.8862
v 0.108000 0.012000 0.000000 0.8392 0.8392 0.8392
v 0.086603 0.020000 -0.042500 0.7059 0.7059 0.7059
v 0.079674 0.012000 -0.039100 0.7333 0.7333 0.7333
v 0.093531 0.012000 -0.045900 0.8431 0.8431 0.8431
v 0.050000 0.020000 -0.073612 0.8549 0.8549 0.8549
v 0.050000 0.004000 -0.073612 0.6980 0.6980 0.6980
v 0.086603 0.004000 -0.042500 0.6941 0.6941 0.6941
v 0.054000 0.012000 -0.079501 0.8392 0.8392 0.8392
v 0.000000 0.020000 -0.085000 0.8549 0.8549 0.8549
v 0.046000 0.012000 -0.067723 0.7412 0.7412 0.7412
v 0.000000 0.004000 -0.085000 0.7020 0.7020 0.7020
v 0.000000 0.012000 -0.078200 0.7451 0.7451 0.7451
v -0.050000 0.004000 -0.073612 0.6980 0.6980 0.6980
v 0.000000 0.012000 -0.091800 0.8431 0.8431 0.8431
v -0.050000 0.020000 -0.073612 0.8549 0.8549 0.8549
v -0.086603 0.020000 -0.042500 0.7098 0.7098 0.7098
v -0.046000 0.012000 -0.067723 0.7333 0.7333 0.7333
v -0.054000 0.012000 -0.079501 0.8392 0.8392 0.8392
v -0.093531 0.012000 -0.045900 0.8392 0.8392 0.8392
v -0.079674 0.012000 -0.039100 0.7294 0.7294 0.7294
v -0.092000 0.012000 -0.000000 0.7255 0.7255 0.7255
v -0.086603 0.004000 -0.042500 0.6902 0.6902 0.6902
v -0.108000 0.012000 -0.000000 0.8392 0.8392 0.8392
v -0.086603 0.020000 0.042500 0.7020 0.7020 0.7020
v -0.100000 0.020000 -0.000000 0.7059 0.7059 0.7059
v -0.086603 0.004000 0.042500 0.6941 0.6941 0.6941
v -0.100000 0.004000 -0.000000 0.7098 0.7098 0.7098
v -0.093531 0.012000 0.045900 0.8353 0.8353 0.8353
v -0.079674 0.012000 0.039100 0.7216 0.7216 0.7216
v -0.046000 0.012000 0.067723 0.6667 0.6667 0.6667
v -0.050000 0.004000 0.073612 0.6902 0.6902 0.6902
v -0.050000 0.020000 0.073612 0.7059 0.7059 0.7059
v -0.000000 0.020000 0.085000 0.8196 0.8196 0.8196
v -0.000000 0.012000 0.091800 0.7725 0.7725 0.7725
v -0.054000 0.012000 0.079501 0.7882 0.7882 0.7882
v 0.054000 0.012000 0.079501 0.7882 0.7882 0.7882
v 0.050000 0.020000 0.073612 0.7098 0.7098 0.7098
v -0.000000 0.012000 0.078200 0.7372 0.7372 0.7372
v 0.050000 0.004000 0.073612 0.6863 0.6863 0.6863
v -0.000000 0.004000 0.085000 0.6824 0.6824 0.6824
v 0.086603 0.020000 0.042500 0.7020 0.7020 0.7020
v 0.046000 0.012000 0.067723 0.6667 0.6667 0.6667
v 0.079674 0.012000 0.039100 0.7176 0.7176 0.7176
v 0.100000 0.020000 0.000000 0.7059 0.7059 0.7059
v 0.092000 0.012000 0.000000 0.7216 0.7216 0.7216
v 0.100000 0.004000 0.000000 0.7059 0.7059 0.7059
v 0.086603 0.004000 0.042500 0.6941 0.6941 0.6941
v 0.093531 0.012000 0.045900 0.8313 0.8313 0.8313
v -0.041952 0.012894 0.028941 0.6745 0.6745 0.6745
v -0.027974 0.012894 0.029718 0.6667 0.6667 0.6667
v -0.046952 0.007894 0.118941 0.6667 0.6667 0.6667
v -0.021022 0.025000 0.030777 0.6706 0.6706 0.6706
v -0.032974 0.007894 0.119718 0.6667 0.6667 0.6667
v -0.028048 0.037106 0.031059 0.6785 0.6785 0.6785
v -0.047026 0.032106 0.120282 0.6667 0.6667 0.6667
v -0.033048 0.032106 0.121059 0.6667 0.6667 0.6667
v -0.042026 0.037106 0.030282 0.6785 0.6785 0.6785
v -0.048978 0.025000 0.029223 0.6745 0.6745 0.6745
v -0.053978 0.020000 0.119223 0.6667 0.6667 0.6667
v -0.026022 0.020000 0.120777 0.6667 0.6667 0.6667
v -0.056000 0.005000 0.115000 0.7451 0.7451 0.7451
v -0.056000 0.035000 0.115000 0.8706 0.8706 0.8706
v -0.024000 0.035000 0.115000 0.8470 0.8470 0.8470
v -0.056000 0.035000 0.165000 0.9137 0.9137 0.9137
v -0.024000 0.035000 0.165000 0.9019 0.9019 0.9019
v -0.024000 0.005000 0.115000 0.6980 0.6980 0.6980
v -0.024000 0.005000 0.165000 0.7647 0.7647 0.7647
v -0.056000 0.005000 0.165000 0.7764 0.7764 0.7764
v -0.029411 0.197108 0.000713 0.6824 0.6824 0.6824
v -0.048334 0.204679 0.005446 0.9058 0.9058 0.9058
v -0.048800 0.200000 -0.006600 0.8353 0.8353 0.8353
v -0.066000 0.150000 0.020000 0.9804 0.9804 0.9804
v -0.045976 0.093204 0.053746 0.7882 0.7882 0.7882
v -0.058399 0.144618 0.011029 0.8980 0.8980 0.8980
v -0.033393 0.095800 0.052273 0.7412 0.7412 0.7412
v -0.046101 0.146673 0.014456 0.7882 0.7882 0.7882
v -0.029941 0.104200 0.061478 0.8392 0.8392 0.8392
v -0.046101 0.153327 0.025544 0.8745 0.8745 0.8745
v -0.058399 0.155382 0.028971 0.9804 0.9804 0.9804
v -0.036350 0.202892 0.009966 0.8509 0.8509 0.8509
v -0.037105 0.195321 -0.009525 0.8470 0.8470 0.8470
v -0.050300 0.100000 0.063862 0.8941 0.8941 0.8941
v -0.040390 0.106796 0.068641 0.9215 0.9215 0.9215
v -0.035000 0.078000 0.070000 0.7608 0.7608 0.7608
v -0.043899 0.086000 0.076466 0.8902 0.8902 0.8902
v -0.024000 0.086000 0.070000 0.7921 0.7921 0.7921
v -0.031601 0.086000 0.059538 0.7255 0.7255 0.7255
v -0.043899 0.086000 0.063534 0.8353 0.8353 0.8353
v -0.041472 0.102000 0.074702 0.9607 0.9607 0.9607
v -0.031601 0.086000 0.080462 0.8784 0.8784 0.8784
v -0.027000 0.102000 0.070000 0.8823 0.8823 0.8823
v -0.032528 0.102000 0.062392 0.7216 0.7216 0.7216
v -0.041472 0.102000 0.065298 0.7216 0.7216 0.7216
v -0.035000 0.104000 0.070000 0.9137 0.9137 0.9137
v -0.032528 0.102000 0.077608 0.9529 0.9529 0.9529
v 0.027974 0.012894 0.029718 0.6667 0.6667 0.6667
v 0.046952 0.007894 0.118941 0.6667 0.6667 0.6667
v 0.048978 0.025000 0.029223 0.6745 0.6745 0.6745
v 0.028048 0.037106 0.031059 0.6785 0.6785 0.6785
v 0.026022 0.020000 0.120777 0.6667 0.6667 0.6667
v 0.042026 0.037106 0.030282 0.6785 0.6785 0.6785
v 0.041952 0.012894 0.028941 0.6745 0.6745 0.6745
v 0.021022 0.025000 0.030777 0.6706 0.6706 0.6706
v 0.032974 0.007894 0.119718 0.6667 0.6667 0.6667
v 0.053978 0.020000 0.119223 0.6667 0.6667 0.6667
v 0.047026 0.032106 0.120282 0.6667 0.6667 0.6667
v 0.033048 0.032106 0.121059 0.6667 0.6667 0.6667
v 0.024000 0.005000 0.165000 0.7608 0.7608 0.7608
v 0.056000 0.005000 0.165000 0.7804 0.7804 0.7804
v 0.056000 0.035000 0.165000 0.9176 0.9176 0.9176
v 0.024000 0.035000 0.165000 0.9058 0.9058 0.9058
v 0.056000 0.005000 0.115000 0.7451 0.7451 0.7451
v 0.024000 0.035000 0.115000 0.8392 0.8392 0.8392
v 0.024000 0.005000 0.115000 0.6980 0.6980 0.6980
v 0.056000 0.035000 0.115000 0.8745 0.8745 0.8745
v 0.031666 0.195321 -0.005446 0.7412 0.7412 0.7412
v 0.051601 0.144618 0.011029 0.8392 0.8392 0.8392
v 0.043650 0.197108 -0.009966 0.8470 0.8470 0.8470
v 0.063899 0.153327 0.025544 0.9843 0.9843 0.9843
v 0.063899 0.146673 0.014456 0.9490 0.9490 0.9490
v 0.042895 0.204679 0.009525 0.8823 0.8823 0.8823
v 0.051601 0.155382 0.028971 0.9333 0.9333 0.9333
v 0.031200 0.200000 0.006600 0.6745 0.6745 0.6745
v 0.044000 0.150000 0.020000 0.8000 0.8000 0.8000
v 0.029700 0.100000 0.056138 0.7843 0.7843 0.7843
v 0.050059 0.095800 0.058522 0.8392 0.8392 0.8392
v 0.039610 0.093204 0.051359 0.7412 0.7412 0.7412
v 0.034024 0.106796 0.066254 0.8941 0.8941 0.8941
v 0.046607 0.104200 0.067727 0.9215 0.9215 0.9215
v 0.050589 0.202892 -0.000713 0.8784 0.8784 0.8784
v 0.026101 0.086000 0.063534 0.7451 0.7451 0.7451
v 0.035000 0.078000 0.070000 0.7686 0.7686 0.7686
v 0.038399 0.086000 0.080462 0.8902 0.8902 0.8902
v 0.046000 0.086000 0.070000 0.8706 0.8706 0.8706
v 0.038399 0.086000 0.059538 0.7568 0.7568 0.7568
v 0.037472 0.102000 0.062392 0.6745 0.6745 0.6745
v 0.026101 0.086000 0.076466 0.8470 0.8470 0.8470
v 0.028528 0.102000 0.065298 0.8313 0.8313 0.8313
v 0.028528 0.102000 0.074702 0.9255 0.9255 0.9255
v 0.035000 0.104000 0.070000 0.9137 0.9137 0.9137
v 0.037472 0.102000 0.077608 0.9607 0.9607 0.9607
v 0.043000 0.102000 0.070000 0.9176 0.9176 0.9176
v -0.007000 0.240000 -0.012124 0.6667 0.6667 0.6667
v -0.014000 0.240000 -0.000000 0.6667 0.6667 0.6667
v -0.007000 0.210000 0.012124 0.6824 0.6824 0.6824
v -0.007000 0.240000 0.012124 0.6667 0.6667 0.6667
v 0.014000 0.210000 0.000000 0.6824 0.6824 0.6824
v 0.014000 0.240000 0.000000 0.6667 0.6667 0.6667
v 0.007000 0.240000 -0.012124 0.6667 0.6667 0.6667
v 0.007000 0.240000 0.012124 0.6667 0.6667 0.6667
v 0.007000 0.210000 0.012124 0.6824 0.6824 0.6824
v -0.014000 0.210000 -0.000000 0.6785 0.6785 0.6785
v -0.007000 0.210000 -0.012124 0.6824 0.6824 0.6824
v 0.007000 0.210000 -0.012124 0.6824 0.6824 0.6824
vn -0.0000 -1.0000 -0.0000
vn 0.9701 -0.2425 -0.0000
vn 0.7456 -0.2290 -0.6259
vn 0.7703 0.1196 -0.6263
vn 0.9924 0.1234 -0.0000
vn 0.2637 -0.2106 -0.9413
vn 0.2756 0.1132 -0.9546
vn -0.2637 -0.2106 -0.9413
vn -0.2756 0.1132 -0.9546
vn -0.7456 -0.2290 -0.6259
vn -0.7703 0.1196 -0.6263
vn -0.9701 -0.2425 -0.0000
vn -0.9924 0.1234 -0.0000
vn -0.7456 -0.2290 0.6258
vn -0.7703 0.1196 0.6263
vn -0.2637 -0.2106 0.9413
vn -0.2756 0.1132 0.9546
vn 0.2637 -0.2106 0.9413
vn 0.2756 0.1132 0.9546
vn 0.7456 -0.2290 0.6258
vn 0.7703 0.1196 0.6263
vn 0.6521 0.5294 -0.5428
vn 0.8346 0.5509 -0.0000
vn 0.2361 0.4978 -0.8345
vn -0.2361 0.4978 -0.8345
vn -0.6521 0.5294 -0.5428
vn -0.8346 0.5509 -0.0000
vn -0.6521 0.5294 0.5428
vn -0.2361 0.4978 0.8345
vn 0.2361 0.4978 0.8345
vn 0.6521 0.5294 0.5428
vn 0.7158 0.3504 -0.6040
vn 0.9289 0.3703 -0.0000
vn 0.2540 0.3245 -0.9111
vn -0.2540 0.3245 -0.9111
vn -0.7158 0.3504 -0.6040
vn -0.9289 0.3703 -0.0000
vn -0.7158 0.3504 0.6040
vn -0.2540 0.3245 0.9111
vn 0.2540 0.3245 0.9111
vn 0.7158 0.3504 0.6040
vn 0.7478 0.2558 -0.6127
vn 0.9639 0.2663 -0.0000
vn 0.2676 0.2396 -0.9333
vn -0.2676 0.2396 -0.9333
vn -0.7478 0.2558 -0.6127
vn -0.9639 0.2663 -0.0000
vn -0.7478 0.2558 0.6127
vn -0.2676 0.2396 0.9333
vn 0.2676 0.2396 0.9333
vn 0.7478 0.2558 0.6127
vn 0.4899 0.7670 -0.4143
vn 0.6321 0.7749 -0.0000
vn 0.1761 0.7551 -0.6316
vn -0.1761 0.7551 -0.6316
vn -0.4899 0.7670 -0.4143
vn -0.6321 0.7749 -0.0000
vn -0.4899 0.7670 0.4143
vn -0.1761 0.7551 0.6316
vn 0.1761 0.7551 0.6316
vn 0.4899 0.7670 0.4143
vn -0.0000 1.0000 -0.0000
vn 0.7071 0.7071 -0.0000
vn 0.6070 0.6919 -0.3911
vn 0.5951 0.6903 -0.4116
vn -0.7071 0.7071 -0.0000
vn -0.6070 0.6919 0.3911
vn -0.5951 0.6903 0.4116
vn -0.7071 -0.7071 -0.0000
vn -0.5951 -0.6903 0.4116
vn -0.6070 -0.6919 0.3911
vn 0.7071 -0.7071 -0.0000
vn 0.5951 -0.6903 -0.4116
vn 0.6070 -0.6919 -0.3911
vn 0.3433 0.6621 -0.6662
vn 0.3256 0.6607 -0.6764
vn -0.3433 0.6621 0.6662
vn -0.3256 0.6607 0.6764
vn -0.3256 -0.6607 0.6764
vn -0.3433 -0.6621 0.6662
vn 0.3256 -0.6607 -0.6764
vn 0.3433 -0.6621 -0.6662
vn -0.0000 0.6476 -0.7619
vn -0.0000 0.6476 0.7619
vn -0.0000 -0.6476 0.7619
vn -0.0000 -0.6476 -0.7619
vn -0.3433 0.6621 -0.6662
vn -0.3256 0.6607 -0.6764
vn 0.3433 0.6621 0.6662
vn 0.3256 0.6607 0.6764
vn 0.3256 -0.6607 0.6764
vn 0.3433 -0.6621 0.6662
vn -0.3256 -0.6607 -0.6764
vn -0.3433 -0.6621 -0.6662
vn -0.6070 0.6919 -0.3911
vn -0.5951 0.6903 -0.4116
vn 0.6070 0.6919 0.3911
vn 0.5951 0.6903 0.4116
vn 0.5951 -0.6903 0.4116
vn 0.6070 -0.6919 0.3911
vn -0.5951 -0.6903 -0.4116
vn -0.6070 -0.6919 -0.3911
vn -0.8632 -0.4992 -0.0757
vn 0.0031 -0.9985 -0.0553
vn 0.8662 -0.4992 0.0204
vn 0.8632 0.4992 0.0757
vn -0.0031 0.9985 0.0553
vn -0.8662 0.4992 -0.0204
vn 0.0554 0.0554 -0.9969
vn -0.0554 -0.0554 0.9969
vn -0.0000 -0.0000 1.0000
vn -0.0000 -0.0000 -1.0000
vn -1.0000 -0.0000 -0.0000
vn 1.0000 -0.0000 -0.0000
vn -0.5759 -0.1556 -0.8025
vn -0.7581 -0.3172 -0.5698
vn -0.7700 -0.3296 -0.5462
vn 0.5617 -0.4470 -0.6961
vn 0.3836 -0.5241 -0.7604
vn 0.3609 -0.5320 -0.7660
vn 0.9124 -0.1272 0.3890
vn 0.9955 -0.0185 0.0931
vn 0.9982 -0.0063 0.0595
vn 0.0159 0.3650 0.9309
vn 0.2255 0.5218 0.8227
vn 0.2386 0.5306 0.8134
vn -0.9192 0.3467 0.1868
vn -0.8437 0.3339 0.4204
vn -0.8381 0.3326 0.4324
vn -0.8577 -0.4501 -0.2486
vn 0.1714 -0.5831 -0.7941
vn 0.9655 0.1019 -0.2398
vn 0.4276 0.6420 0.6365
vn -0.7092 0.2986 0.6387
vn 0.2683 0.8944 -0.3578
vn 0.2281 -0.7603 0.6082
vn 0.1818 -0.8087 -0.5594
vn 0.5882 -0.8087 -0.0000
vn -0.4758 -0.8087 -0.3457
vn -0.4758 -0.8087 0.3457
vn 0.1818 -0.8087 0.5594
vn 0.7999 0.1500 -0.5811
vn -0.3055 0.1500 -0.9403
vn -0.9887 0.1500 -0.0000
vn -0.3055 0.1500 0.9403
vn 0.7999 0.1500 0.5811
vn 0.2425 0.9701 -0.0000
vn 0.0749 0.9701 -0.2307
vn -0.1962 0.9701 -0.1426
vn -0.1962 0.9701 0.1426
vn 0.0749 0.9701 0.2307
vn -0.8662 -0.4992 0.0204
vn -0.0031 -0.9985 -0.0553
vn 0.8632 -0.4992 -0.0757
vn 0.8662 0.4992 -0.0204
vn 0.0031 0.9985 0.0553
vn -0.8632 0.4992 0.0757
vn -0.0554 0.0554 -0.9969
vn 0.0554 -0.0554 0.9969
vn -0.9176 -0.3527 -0.1834
vn -0.8328 -0.3342 -0.4414
vn -0.8452 -0.3374 -0.4145
vn 0.0166 -0.3692 -0.9292
vn 0.2451 -0.5331 -0.8098
vn 0.2239 -0.5194 -0.8247
vn 0.9169 0.1139 -0.3825
vn 0.9978 0.0052 -0.0664
vn 0.9961 0.0122 -0.0870
vn 0.5618 0.4469 0.6962
vn 0.3700 0.5294 0.7635
vn 0.3800 0.5259 0.7610
vn -0.5724 0.1431 0.8074
vn -0.7697 0.3283 0.5475
vn -0.7576 0.3149 0.5717
vn -0.7091 -0.2980 -0.6391
vn 0.4286 -0.6369 -0.6408
vn 0.9668 -0.0971 0.2364
vn 0.1715 0.5841 0.7934
vn -0.8555 0.4574 0.2427
vn -0.2683 0.8944 -0.3578
vn -0.2281 -0.7603 0.6082
vn 0.8660 -0.0000 -0.5000
vn -0.8660 -0.0000 -0.5000
vn -0.8660 -0.0000 0.5000
vn 0.8660 -0.0000 0.5000
vt 0.004004 0.688477
vt 0.007031 0.705118
vt 0.000977 0.705118
vt 0.010059 0.688477
vt 0.013086 0.705118
vt 0.016113 0.688477
vt 0.019141 0.705118
vt 0.022168 0.688477
vt 0.025195 0.705118
vt 0.028223 0.688477
vt 0.031250 0.705118
vt 0.034277 0.688477
vt 0.037305 0.705118
vt 0.040332 0.688477
vt 0.043359 0.705118
vt 0.046387 0.688477
vt 0.049414 0.705118
vt 0.052441 0.688477
vt 0.055469 0.705118
vt 0.058496 0.688477
vt 0.061523 0.705118
vt 0.007031 0.708548
vt 0.000977 0.708548
vt 0.013086 0.708548
vt 0.019141 0.708548
vt 0.025195 0.708548
vt 0.031250 0.708548
vt 0.037305 0.708548
vt 0.043359 0.708548
vt 0.049414 0.708548
vt 0.055469 0.708548
vt 0.061523 0.708548
vt 0.007031 0.723823
vt 0.000977 0.723823
vt 0.013086 0.723823
vt 0.019141 0.723823
vt 0.025195 0.723823
vt 0.031250 0.723823
vt 0.037305 0.723823
vt 0.043359 0.723823
vt 0.049414 0.723823
vt 0.055469 0.723823
vt 0.061523 0.723823
vt 0.007031 0.730216
vt 0.000977 0.730216
vt 0.013086 0.730216
vt 0.019141 0.730216
vt 0.025195 0.730216
vt 0.031250 0.730216
vt 0.037305 0.730216
vt 0.043359 0.730216
vt 0.049414 0.730216
vt 0.055469 0.730216
vt 0.061523 0.730216
vt 0.007031 0.741870
vt 0.000977 0.741870
vt 0.013086 0.741870
vt 0.019141 0.741870
vt 0.025195 0.741870
vt 0.031250 0.741870
vt 0.037305 0.741870
vt 0.043359 0.741870
vt 0.049414 0.741870
vt 0.055469 0.741870
vt 0.061523 0.741870
vt 0.007031 0.744781
vt 0.000977 0.744781
vt 0.013086 0.744781
vt 0.019141 0.744781
vt 0.025195 0.744781
vt 0.031250 0.744781
vt 0.037305 0.744781
vt 0.043359 0.744781
vt 0.049414 0.744781
vt 0.055469 0.744781
vt 0.061523 0.744781
vt 0.004004 0.749023
vt 0.010059 0.749023
vt 0.016113 0.749023
vt 0.022168 0.749023
vt 0.028223 0.749023
vt 0.034277 0.749023
vt 0.040332 0.749023
vt 0.046387 0.749023
vt 0.052441 0.749023
vt 0.058496 0.749023
vt 0.563477 0.657227
vt 0.565918 0.657227
vt 0.565918 0.664551
vt 0.563477 0.664551
vt 0.565918 0.671875
vt 0.563477 0.671875
vt 0.565918 0.679199
vt 0.563477 0.679199
vt 0.565918 0.686523
vt 0.563477 0.686523
vt 0.568359 0.657227
vt 0.568359 0.664551
vt 0.568359 0.671875
vt 0.568359 0.679199
vt 0.568359 0.686523
vt 0.570801 0.657227
vt 0.570801 0.664551
vt 0.570801 0.671875
vt 0.570801 0.679199
vt 0.570801 0.686523
vt 0.573242 0.657227
vt 0.573242 0.664551
vt 0.573242 0.671875
vt 0.573242 0.679199
vt 0.573242 0.686523
vt 0.575684 0.657227
vt 0.575684 0.664551
vt 0.575684 0.671875
vt 0.575684 0.679199
vt 0.575684 0.686523
vt 0.578125 0.657227
vt 0.578125 0.664551
vt 0.578125 0.671875
vt 0.578125 0.679199
vt 0.578125 0.686523
vt 0.580566 0.657227
vt 0.580566 0.664551
vt 0.580566 0.671875
vt 0.580566 0.679199
vt 0.580566 0.686523
vt 0.583008 0.657227
vt 0.583008 0.664551
vt 0.583008 0.671875
vt 0.583008 0.679199
vt 0.583008 0.686523
vt 0.585449 0.657227
vt 0.585449 0.664551
vt 0.585449 0.671875
vt 0.585449 0.679199
vt 0.585449 0.686523
vt 0.587891 0.657227
vt 0.587891 0.664551
vt 0.587891 0.671875
vt 0.587891 0.679199
vt 0.587891 0.686523
vt 0.590332 0.657227
vt 0.590332 0.664551
vt 0.590332 0.671875
vt 0.590332 0.679199
vt 0.590332 0.686523
vt 0.592773 0.657227
vt 0.592773 0.664551
vt 0.592773 0.671875
vt 0.592773 0.679199
vt 0.592773 0.686523
vt 0.594727 0.657227
vt 0.599609 0.657227
vt 0.599609 0.686523
vt 0.594727 0.686523
vt 0.604492 0.657227
vt 0.604492 0.686523
vt 0.609375 0.657227
vt 0.609375 0.686523
vt 0.614258 0.657227
vt 0.614258 0.686523
vt 0.619141 0.657227
vt 0.619141 0.686523
vt 0.624023 0.657227
vt 0.624023 0.686523
vt 0.616699 0.686523
vt 0.602051 0.686523
vt 0.594727 0.671875
vt 0.602051 0.657227
vt 0.616699 0.657227
vt 0.624023 0.671875
vt 0.625977 0.938477
vt 0.656977 0.938477
vt 0.656977 0.967539
vt 0.625977 0.967539
vt 0.674414 0.938477
vt 0.674414 0.967539
vt 0.656977 0.986914
vt 0.625977 0.986914
vt 0.000977 0.688477
vt 0.013086 0.688477
vt 0.013086 0.718750
vt 0.000977 0.718750
vt 0.025195 0.688477
vt 0.025195 0.718750
vt 0.037305 0.688477
vt 0.037305 0.718750
vt 0.049414 0.688477
vt 0.049414 0.718750
vt 0.061523 0.688477
vt 0.061523 0.718750
vt 0.013086 0.749023
vt 0.000977 0.749023
vt 0.025195 0.749023
vt 0.037305 0.749023
vt 0.049414 0.749023
vt 0.061523 0.749023
vt 0.002433 0.702517
vt 0.039853 0.688477
vt 0.061523 0.717219
vt 0.037497 0.749023
vt 0.000977 0.739937
vt 0.000977 0.731347
vt 0.013837 0.693927
vt 0.051257 0.688477
vt 0.061523 0.722528
vt 0.030449 0.749023
vt 0.319531 0.688477
vt 0.325586 0.710076
vt 0.313477 0.710076
vt 0.331641 0.688477
vt 0.337695 0.710076
vt 0.343750 0.688477
vt 0.349805 0.710076
vt 0.355859 0.688477
vt 0.361914 0.710076
vt 0.367969 0.688477
vt 0.374023 0.710076
vt 0.325586 0.735928
vt 0.313477 0.735928
vt 0.337695 0.735928
vt 0.349805 0.735928
vt 0.361914 0.735928
vt 0.374023 0.735928
vt 0.319531 0.749023
vt 0.331641 0.749023
vt 0.343750 0.749023
vt 0.355859 0.749023
vt 0.367969 0.749023
vt 0.037497 0.688477
vt 0.061523 0.720281
vt 0.039853 0.749023
vt 0.002433 0.734983
vt 0.000977 0.697563
vt 0.000977 0.706153
vt 0.030449 0.688477
vt 0.061523 0.714972
vt 0.051257 0.749023
vt 0.013837 0.743573
vt 0.313477 0.688477
vt 0.323568 0.688477
vt 0.323568 0.749023
vt 0.313477 0.749023
vt 0.333659 0.688477
vt 0.333659 0.749023
vt 0.353841 0.688477
vt 0.353841 0.749023
vt 0.363932 0.688477
vt 0.363932 0.749023
vt 0.374023 0.688477
vt 0.374023 0.749023
vt 0.374023 0.718750
vt 0.358887 0.749023
vt 0.328613 0.749023
vt 0.313477 0.718750
vt 0.328613 0.688477
vt 0.358887 0.688477
s 1
usemtl props
f 2/1/1 1/2/1 14/3/1
f 2/4/1 5/5/1 1/2/1
f 2/6/1 7/7/1 5/5/1
f 2/8/1 8/9/1 7/7/1
f 2/10/1 3/11/1 8/9/1
f 2/12/1 9/13/1 3/11/1
f 2/14/1 11/15/1 9/13/1
f 2/16/1 12/17/1 11/15/1
f 2/18/1 13/19/1 12/17/1
f 2/20/1 14/21/1 13/19/1
f 14/3/2 1/2/3 4/22/4 15/23/5
f 1/2/3 5/5/6 17/24/7 4/22/4
f 5/5/6 7/7/8 6/25/9 17/24/7
f 7/7/8 8/9/10 19/26/11 6/25/9
f 8/9/10 3/11/12 10/27/13 19/26/11
f 3/11/12 9/13/14 21/28/15 10/27/13
f 9/13/14 11/15/16 23/29/17 21/28/15
f 11/15/16 12/17/18 26/30/19 23/29/17
f 12/17/18 13/19/20 16/31/21 26/30/19
f 13/19/20 14/21/2 15/32/5 16/31/21
f 15/23/5 4/22/4 28/33/22 27/34/23
f 4/22/4 17/24/7 31/35/24 28/33/22
f 17/24/7 6/25/9 18/36/25 31/35/24
f 6/25/9 19/26/11 33/37/26 18/36/25
f 19/26/11 10/27/13 20/38/27 33/37/26
f 10/27/13 21/28/15 22/39/28 20/38/27
f 21/28/15 23/29/17 25/40/29 22/39/28
f 23/29/17 26/30/19 24/41/30 25/40/29
f 26/30/19 16/31/21 38/42/31 24/41/30
f 16/31/21 15/32/5 27/43/23 38/42/31
f 27/34/23 28/33/22 30/44/32 39/45/33
f 28/33/22 31/35/24 29/46/34 30/44/32
f 31/35/24 18/36/25 32/47/35 29/46/34
f 18/36/25 33/37/26 42/48/36 32/47/35
f 33/37/26 20/38/27 34/49/37 42/48/36
f 20/38/27 22/39/28 35/50/38 34/49/37
f 22/39/28 25/40/29 37/51/39 35/50/38
f 25/40/29 24/41/30 36/52/40 37/51/39
f 24/41/30 38/42/31 45/53/41 36/52/40
f 38/42/31 27/43/23 39/54/33 45/53/41
f 39/45/33 30/44/32 41/55/42 40/56/43
f 30/44/32 29/46/34 47/57/44 41/55/42
f 29/46/34 32/47/35 43/58/45 47/57/44
f 32/47/35 42/48/36 48/59/46 43/58/45
f 42/48/36 34/49/37 49/60/47 48/59/46
f 34/49/37 35/50/38 50/61/48 49/60/47
f 35/50/38 37/51/39 52/62/49 50/61/48
f 37/51/39 36/52/40 53/63/50 52/62/49
f 36/52/40 45/53/41 44/64/51 53/63/50
f 45/53/41 39/54/33 40/65/43 44/64/51
f 40/56/43 41/55/42 57/66/52 55/67/53
f 41/55/42 47/57/44 46/68/54 57/66/52
f 47/57/44 43/58/45 58/69/55 46/68/54
f 43/58/45 48/59/46 60/70/56 58/69/55
f 48/59/46 49/60/47 61/71/57 60/70/56
f 49/60/47 50/61/48 51/72/58 61/71/57
f 50/61/48 52/62/49 62/73/59 51/72/58
f 52/62/49 53/63/50 54/74/60 62/73/59
f 53/63/50 44/64/51 56/75/61 54/74/60
f 44/64/51 40/65/43 55/76/53 56/75/61
f 55/67/53 57/66/52 59/77/62
f 57/66/52 46/68/54 59/78/62
f 46/68/54 58/69/55 59/79/62
f 58/69/55 60/70/56 59/80/62
f 60/70/56 61/71/57 59/81/62
f 61/71/57 51/72/58 59/82/62
f 51/72/58 62/73/59 59/83/62
f 62/73/59 54/74/60 59/84/62
f 54/74/60 56/75/61 59/85/62
f 56/75/61 55/76/53 59/86/62
f 63/87/63 66/88/64 64/89/65 106/90/63
f 106/90/66 64/89/67 65/91/68 107/92/66
f 107/92/69 65/91/70 69/93/71 108/94/69
f 108/94/72 69/93/73 66/95/74 63/96/72
f 66/88/64 70/97/75 67/98/76 64/89/65
f 64/89/67 67/98/77 72/99/78 65/91/68
f 65/91/70 72/99/79 68/100/80 69/93/71
f 69/93/73 68/100/81 70/101/82 66/95/74
f 70/97/75 76/102/83 71/103/83 67/98/76
f 67/98/77 71/103/84 74/104/84 72/99/78
f 72/99/79 74/104/85 73/105/85 68/100/80
f 68/100/81 73/105/86 76/106/86 70/101/82
f 76/102/83 80/107/87 77/108/88 71/103/83
f 71/103/84 77/108/89 79/109/90 74/104/84
f 74/104/85 79/109/91 75/110/92 73/105/85
f 73/105/86 75/110/93 80/111/94 76/106/86
f 80/107/87 81/112/95 78/113/96 77/108/88
f 77/108/89 78/113/97 82/114/98 79/109/90
f 79/109/91 82/114/99 84/115/100 75/110/92
f 75/110/93 84/115/101 81/116/102 80/111/94
f 81/112/95 85/117/66 87/118/66 78/113/96
f 78/113/97 87/118/63 83/119/63 82/114/98
f 82/114/99 83/119/72 89/120/72 84/115/100
f 84/115/101 89/120/69 85/121/69 81/116/102
f 85/117/66 90/122/67 86/123/68 87/118/66
f 87/118/63 86/123/64 91/124/65 83/119/63
f 83/119/72 91/124/73 88/125/74 89/120/72
f 89/120/69 88/125/70 90/126/71 85/121/69
f 90/122/67 97/127/77 94/128/78 86/123/68
f 86/123/64 94/128/75 92/129/76 91/124/65
f 91/124/73 92/129/81 93/130/82 88/125/74
f 88/125/70 93/130/79 97/131/80 90/126/71
f 97/127/77 96/132/84 95/133/84 94/128/78
f 94/128/75 95/133/83 100/134/83 92/129/76
f 92/129/81 100/134/86 102/135/86 93/130/82
f 93/130/79 102/135/85 96/136/85 97/131/80
f 96/132/84 98/137/89 99/138/90 95/133/84
f 95/133/83 99/138/87 104/139/88 100/134/83
f 100/134/86 104/139/93 101/140/94 102/135/86
f 102/135/85 101/140/91 98/141/92 96/136/85
f 98/137/89 110/142/97 103/143/98 99/138/90
f 99/138/87 103/143/95 105/144/96 104/139/88
f 104/139/93 105/144/101 109/145/102 101/140/94
f 101/140/91 109/145/99 110/146/100 98/141/92
f 110/142/97 63/147/63 106/148/63 103/143/98
f 103/143/95 106/148/66 107/149/66 105/144/96
f 105/144/101 107/149/69 108/150/69 109/145/102
f 109/145/99 108/150/72 63/151/72 110/146/100
f 120/152/103 111/153/103 113/154/103 121/155/103
f 111/153/104 112/156/104 115/157/104 113/154/104
f 112/156/105 114/158/105 122/159/105 115/157/105
f 114/158/106 116/160/106 118/161/106 122/159/106
f 116/160/107 119/162/107 117/163/107 118/161/107
f 119/162/108 120/164/108 121/165/108 117/163/108
s 0
f 119/166/109 116/167/109 114/168/109 112/169/109 111/170/109 120/171/109
f 121/168/110 113/169/110 115/170/110 122/171/110 118/166/110 117/167/110
f 130/172/111 129/173/111 127/174/111 126/175/111
f 128/172/112 123/173/112 124/174/112 125/175/112
f 123/172/113 130/176/113 126/177/113 124/175/113
f 129/172/114 128/176/114 125/177/114 127/175/114
f 126/172/62 127/173/62 125/178/62 124/179/62
f 123/172/1 128/173/1 129/178/1 130/179/1
s 1
f 133/180/115 143/181/115 136/182/116 134/183/117
f 143/181/118 131/184/118 138/185/119 136/182/120
f 131/184/121 142/186/121 140/187/122 138/185/123
f 142/186/124 132/188/124 141/189/125 140/187/126
f 132/188/127 133/190/127 134/191/128 141/189/129
f 134/183/117 136/182/116 135/192/130 144/193/130
f 136/182/120 138/185/119 137/194/131 135/192/131
f 138/185/123 140/187/122 139/195/132 137/194/132
f 140/187/126 141/189/125 145/196/133 139/195/133
f 141/189/129 134/191/128 144/197/134 145/196/134
s 0
f 132/198/135 142/199/135 131/200/135 143/201/135 133/202/135
f 144/203/136 135/204/136 137/205/136 139/206/136 145/207/136
s 1
f 146/208/1 149/209/137 148/210/138
f 146/211/1 150/212/139 149/209/137
f 146/213/1 147/214/140 150/212/139
f 146/215/1 152/216/141 147/214/140
f 146/217/1 148/218/138 152/216/141
f 148/210/142 149/209/142 154/219/142 153/220/142
f 149/209/143 150/212/143 155/221/143 154/219/143
f 150/212/144 147/214/144 151/222/144 155/221/144
f 147/214/145 152/216/145 157/223/145 151/222/145
f 152/216/146 148/218/146 153/224/146 157/223/146
f 153/220/147 154/219/148 156/225/62
f 154/219/148 155/221/149 156/226/62
f 155/221/149 151/222/150 156/227/62
f 151/222/150 157/223/151 156/228/62
f 157/223/151 153/224/147 156/229/62
f 165/152/152 158/153/152 166/154/152 162/155/152
f 158/153/153 164/156/153 159/157/153 166/154/153
f 164/156/154 160/158/154 167/159/154 159/157/154
f 160/158/155 163/160/155 168/161/155 167/159/155
f 163/160/156 161/162/156 169/163/156 168/161/156
f 161/162/157 165/164/157 162/165/157 169/163/157
s 0
f 161/166/158 163/167/158 160/168/158 164/169/158 158/170/158 165/171/158
f 162/168/159 166/169/159 159/170/159 167/171/159 168/166/159 169/167/159
f 170/172/111 171/173/111 172/174/111 173/175/111
f 174/172/112 176/173/112 175/174/112 177/175/112
f 176/172/113 170/176/113 173/177/113 175/175/113
f 171/172/114 174/176/114 177/177/114 172/175/114
f 173/172/62 172/173/62 177/178/62 175/179/62
f 176/172/1 174/173/1 171/178/1 170/179/1
s 1
f 185/180/160 178/181/160 179/182/161 186/183/162
f 178/181/163 180/184/163 182/185/164 179/182/165
f 180/184/166 192/186/166 181/187/167 182/185/168
f 192/186/169 183/188/169 184/189/170 181/187/171
f 183/188/172 185/190/172 186/191/173 184/189/174
f 186/183/162 179/182/161 189/192/175 187/193/175
f 179/182/165 182/185/164 188/194/176 189/192/176
f 182/185/168 181/187/167 191/195/177 188/194/177
f 181/187/171 184/189/170 190/196/178 191/195/178
f 184/189/174 186/191/173 187/197/179 190/196/179
s 0
f 183/230/180 192/231/180 180/232/180 178/233/180 185/234/180
f 187/235/181 189/236/181 188/237/181 191/238/181 190/239/181
s 1
f 194/208/1 197/209/137 196/210/138
f 194/211/1 193/212/139 197/209/137
f 194/213/1 199/214/140 193/212/139
f 194/215/1 195/216/141 199/214/140
f 194/217/1 196/218/138 195/216/141
f 196/210/142 197/209/142 198/219/142 204/220/142
f 197/209/143 193/212/143 200/221/143 198/219/143
f 193/212/144 199/214/144 201/222/144 200/221/144
f 199/214/145 195/216/145 203/223/145 201/222/145
f 195/216/146 196/218/146 204/224/146 203/223/146
f 204/220/147 198/219/148 202/225/62
f 198/219/148 200/221/149 202/226/62
f 200/221/149 201/222/150 202/227/62
f 201/222/150 203/223/151 202/228/62
f 203/223/151 204/224/147 202/229/62
f 209/240/182 216/241/182 211/242/182 210/243/182
f 216/241/112 215/244/112 205/245/112 211/242/112
f 215/244/183 214/213/183 206/227/183 205/245/183
f 214/213/184 207/246/184 208/247/184 206/227/184
f 207/246/111 213/248/111 212/249/111 208/247/111
f 213/248/185 209/250/185 210/251/185 212/249/185
s 0
f 210/252/62 211/253/62 205/254/62 206/255/62 208/256/62 212/257/62
f 213/253/1 207/254/1 214/255/1 215/256/1 216/257/1 209/252/1
o doll_porcelain_head
v 0.023759 0.239000 -0.023759 0.8862 0.8862 0.8862
v 0.000000 0.239000 -0.033600 0.9176 0.9176 0.9176
v 0.000000 0.227000 0.000000 0.6667 0.6667 0.6667
v 0.023759 0.239000 0.023759 0.9294 0.9294 0.9294
v 0.033600 0.239000 0.000000 0.8588 0.8588 0.8588
v -0.023759 0.239000 -0.023759 0.8902 0.8902 0.8902
v -0.033941 0.270200 -0.033941 0.6824 0.6824 0.6824
v -0.033600 0.239000 -0.000000 0.8666 0.8666 0.8666
v -0.023759 0.239000 0.023759 0.9333 0.9333 0.9333
v -0.033941 0.270200 0.033941 0.9960 0.9960 0.9960
v -0.000000 0.239000 0.033600 0.9411 0.9411 0.9411
v 0.048000 0.270200 0.000000 0.8235 0.8235 0.8235
v 0.033941 0.270200 -0.033941 0.6824 0.6824 0.6824
v 0.000000 0.270200 -0.048000 0.7098 0.7098 0.7098
v -0.031226 0.299000 -0.031226 0.6667 0.6667 0.6667
v -0.048000 0.270200 -0.000000 0.8274 0.8274 0.8274
v -0.044160 0.299000 -0.000000 0.6667 0.6667 0.6667
v -0.000000 0.299000 0.044160 0.9882 0.9882 0.9882
v -0.000000 0.270200 0.048000 0.9882 0.9882 0.9882
v 0.033941 0.270200 0.033941 0.9882 0.9882 0.9882
v 0.031226 0.299000 -0.031226 0.6667 0.6667 0.6667
v 0.018668 0.317240 -0.018668 0.6667 0.6667 0.6667
v 0.000000 0.299000 -0.044160 0.6667 0.6667 0.6667
v 0.000000 0.317240 -0.026400 0.6667 0.6667 0.6667
v -0.018668 0.317240 -0.018668 0.6667 0.6667 0.6667
v -0.031226 0.299000 0.031226 0.8980 0.8980 0.8980
v 0.018668 0.317240 0.018668 0.6667 0.6667 0.6667
v -0.000000 0.317240 0.026400 0.6667 0.6667 0.6667
v 0.031226 0.299000 0.031226 0.8941 0.8941 0.8941
v 0.044160 0.299000 0.000000 0.6667 0.6667 0.6667
v 0.026400 0.317240 0.000000 0.6667 0.6667 0.6667
v -0.026400 0.317240 -0.000000 0.6667 0.6667 0.6667
v -0.018668 0.317240 0.018668 0.6667 0.6667 0.6667
v 0.000000 0.323000 0.000000 0.6667 0.6667 0.6667
v -0.021763 0.241400 0.028362 0.9725 0.9725 0.9725
v -0.011491 0.241400 0.033852 0.9843 0.9843 0.9843
v -0.026277 0.257000 0.034245 0.9843 0.9843 0.9843
v -0.000000 0.241400 0.035749 0.9764 0.9764 0.9764
v 0.013875 0.257000 0.040874 0.9960 0.9960 0.9960
v 0.011491 0.241400 0.033852 0.9686 0.9686 0.9686
v 0.021763 0.241400 0.028362 0.9725 0.9725 0.9725
v 0.026277 0.257000 0.034245 0.9843 0.9843 0.9843
v -0.029897 0.272600 0.038962 1.0000 1.0000 1.0000
v -0.013875 0.257000 0.040874 0.9843 0.9843 0.9843
v -0.015786 0.272600 0.046504 0.9960 0.9960 0.9960
v -0.000000 0.257000 0.043165 0.9960 0.9960 0.9960
v -0.028592 0.288200 0.037262 1.0000 1.0000 1.0000
v -0.000000 0.272600 0.049110 0.9960 0.9960 0.9960
v 0.015786 0.272600 0.046504 1.0000 1.0000 1.0000
v -0.000000 0.288200 0.046968 1.0000 1.0000 1.0000
v 0.029897 0.272600 0.038962 0.9960 0.9960 0.9960
v 0.028592 0.288200 0.037262 1.0000 1.0000 1.0000
v -0.024759 0.303800 0.032266 1.0000 1.0000 1.0000
v -0.015097 0.288200 0.044475 1.0000 1.0000 1.0000
v -0.000000 0.303800 0.040671 0.9843 0.9843 0.9843
v -0.013073 0.303800 0.038513 1.0000 1.0000 1.0000
v 0.015097 0.288200 0.044475 1.0000 1.0000 1.0000
v 0.013073 0.303800 0.038513 1.0000 1.0000 1.0000
v 0.024759 0.303800 0.032266 1.0000 1.0000 1.0000
v 0.048000 0.301400 -0.003840 0.9725 0.9725 0.9725
v 0.035638 0.282200 -0.039478 0.7764 0.7764 0.7764
v 0.000000 0.282200 -0.054240 0.8117 0.8117 0.8117
v -0.035638 0.282200 -0.039478 0.7725 0.7725 0.7725
v 0.000000 0.301400 -0.051840 0.9882 0.9882 0.9882
v -0.050400 0.282200 -0.003840 0.6667 0.6667 0.6667
v -0.035638 0.282200 0.031798 0.9921 0.9921 0.9921
v -0.033941 0.301400 0.030101 0.9960 0.9960 0.9960
v -0.000000 0.301400 0.044160 0.9960 0.9960 0.9960
v -0.000000 0.282200 0.046560 0.6667 0.6667 0.6667
v 0.035638 0.282200 0.031798 0.9960 0.9960 0.9960
v 0.050400 0.282200 -0.003840 0.6667 0.6667 0.6667
v 0.020365 0.320600 -0.024205 0.7216 0.7216 0.7216
v 0.033941 0.301400 -0.037781 0.9568 0.9568 0.9568
v -0.033941 0.301400 -0.037781 0.9921 0.9921 0.9921
v 0.000000 0.320600 -0.032640 0.9960 0.9960 0.9960
v -0.020365 0.320600 -0.024205 1.0000 1.0000 1.0000
v -0.048000 0.301400 -0.003840 0.9882 0.9882 0.9882
v -0.028800 0.320600 -0.003840 1.0000 1.0000 1.0000
v -0.000000 0.320600 0.024960 1.0000 1.0000 1.0000
v -0.020365 0.320600 0.016525 1.0000 1.0000 1.0000
v 0.033941 0.301400 0.030101 0.9960 0.9960 0.9960
v 0.000000 0.326840 -0.003840 0.9921 0.9921 0.9921
v 0.020365 0.320600 0.016525 0.9960 0.9960 0.9960
v 0.028800 0.320600 -0.003840 0.6667 0.6667 0.6667
v 0.035978 0.270200 -0.050378 0.9921 0.9921 0.9921
v 0.050880 0.270200 -0.014400 0.6667 0.6667 0.6667
v 0.030547 0.246200 -0.044947 0.9804 0.9804 0.9804
v 0.000000 0.246200 -0.057600 1.0000 1.0000 1.0000
v -0.030547 0.246200 -0.044947 0.9804 0.9804 0.9804
v -0.050880 0.270200 -0.014400 0.6667 0.6667 0.6667
v -0.043200 0.246200 -0.014400 0.7372 0.7372 0.7372
v -0.030547 0.246200 0.016147 0.9529 0.9529 0.9529
v -0.000000 0.246200 0.028800 0.6667 0.6667 0.6667
v 0.030547 0.246200 0.016147 0.9607 0.9607 0.9607
v 0.043200 0.246200 -0.014400 0.7372 0.7372 0.7372
v 0.000000 0.270200 -0.065280 1.0000 1.0000 1.0000
v 0.035978 0.284600 -0.050378 1.0000 1.0000 1.0000
v 0.000000 0.284600 -0.065280 1.0000 1.0000 1.0000
v -0.035978 0.270200 -0.050378 0.9921 0.9921 0.9921
v -0.035978 0.284600 -0.050378 0.9960 0.9960 0.9960
v -0.035978 0.270200 0.021578 0.6667 0.6667 0.6667
v -0.035978 0.284600 0.021578 0.6667 0.6667 0.6667
v -0.050880 0.284600 -0.014400 0.6667 0.6667 0.6667
v -0.000000 0.270200 0.036480 0.6667 0.6667 0.6667
v 0.035978 0.270200 0.021578 0.6667 0.6667 0.6667
v 0.035978 0.284600 0.021578 0.6667 0.6667 0.6667
v -0.000000 0.284600 0.036480 0.6667 0.6667 0.6667
v 0.050880 0.284600 -0.014400 0.6667 0.6667 0.6667
v -0.050000 0.288806 0.001940 0.8862 0.8862 0.8862
v -0.061271 0.291416 -0.006132 0.9804 0.9804 0.9804
v -0.050948 0.240917 -0.024666 0.8823 0.8823 0.8823
v -0.043034 0.289863 -0.019770 0.7843 0.7843 0.7843
v -0.038729 0.287846 -0.006489 0.6667 0.6667 0.6667
v -0.046590 0.239340 -0.011342 0.7960 0.7960 0.7960
v -0.069410 0.239841 -0.011287 1.0000 1.0000 1.0000
v -0.065052 0.241227 -0.024632 0.9882 0.9882 0.9882
v -0.058977 0.200174 -0.029762 0.9607 0.9607 0.9607
v -0.058000 0.238675 -0.003073 0.9294 0.9294 0.9294
v -0.052000 0.198512 -0.008093 0.8431 0.8431 0.8431
v -0.056966 0.292069 -0.019550 0.9647 0.9647 0.9647
v -0.063288 0.197873 -0.016529 0.9451 0.9451 0.9451
v -0.045023 0.202235 -0.029504 0.9019 0.9019 0.9019
v -0.040712 0.201207 -0.016112 0.8000 0.8000 0.8000
v 0.038729 0.287846 -0.006489 0.6667 0.6667 0.6667
v 0.046590 0.239340 -0.011342 0.8000 0.8000 0.8000
v 0.058000 0.238675 -0.003073 0.9294 0.9294 0.9294
v 0.065052 0.241227 -0.024632 0.9882 0.9882 0.9882
v 0.061271 0.291416 -0.006132 0.9725 0.9725 0.9725
v 0.040712 0.201207 -0.016112 0.7960 0.7960 0.7960
v 0.052000 0.198512 -0.008093 0.8353 0.8353 0.8353
v 0.050948 0.240917 -0.024666 0.8902 0.8902 0.8902
v 0.058977 0.200174 -0.029762 0.9568 0.9568 0.9568
v 0.069410 0.239841 -0.011287 0.9960 0.9960 0.9960
v 0.063288 0.197873 -0.016529 0.9490 0.9490 0.9490
v 0.056966 0.292069 -0.019550 0.9490 0.9490 0.9490
v 0.043034 0.289863 -0.019770 0.7686 0.7686 0.7686
v 0.050000 0.288806 0.001940 0.8902 0.8902 0.8902
v 0.045023 0.202235 -0.029504 0.9098 0.9098 0.9098
v 0.049053 0.309000 -0.020000 0.9294 0.9294 0.9294
v 0.039928 0.321196 -0.033856 0.9686 0.9686 0.9686
v 0.040856 0.306804 -0.020000 0.7490 0.7490 0.7490
v 0.039526 0.314500 -0.039053 0.9529 0.9529 0.9529
v 0.034330 0.317500 -0.028660 0.7804 0.7804 0.7804
v 0.033928 0.310804 -0.033856 0.7843 0.7843 0.7843
v 0.020474 0.325500 -0.039053 0.9529 0.9529 0.9529
v 0.026072 0.329196 -0.033856 0.9686 0.9686 0.9686
v 0.019144 0.333196 -0.020000 0.9686 0.9686 0.9686
v 0.025670 0.322500 -0.028660 0.7804 0.7804 0.7804
v 0.020072 0.318804 -0.033856 0.7882 0.7882 0.7882
v 0.020474 0.325500 -0.000947 0.8902 0.8902 0.8902
v 0.026072 0.329196 -0.006144 0.9686 0.9686 0.9686
v 0.021340 0.325000 -0.020000 0.7882 0.7882 0.7882
v 0.013144 0.322804 -0.020000 0.7255 0.7255 0.7255
v 0.020072 0.318804 -0.006144 0.6667 0.6667 0.6667
v 0.010947 0.331000 -0.020000 0.9294 0.9294 0.9294
v 0.039928 0.321196 -0.006144 0.9647 0.9647 0.9647
v 0.025670 0.322500 -0.011340 0.8000 0.8000 0.8000
v 0.034330 0.317500 -0.011340 0.7882 0.7882 0.7882
v 0.033928 0.310804 -0.006144 0.6667 0.6667 0.6667
v 0.039526 0.314500 -0.000947 0.8941 0.8941 0.8941
v 0.046856 0.317196 -0.020000 0.9725 0.9725 0.9725
v 0.038660 0.315000 -0.020000 0.7882 0.7882 0.7882
vn -0.0000 -1.0000 -0.0000
vn 0.5097 -0.6932 -0.5097
vn 0.7208 -0.6932 -0.0000
vn -0.0000 -0.6932 -0.7208
vn -0.5097 -0.6932 -0.5097
vn -0.7208 -0.6932 -0.0000
vn -0.5097 -0.6932 0.5097
vn -0.0000 -0.6932 0.7208
vn 0.5097 -0.6932 0.5097
vn 0.7001 -0.1402 -0.7001
vn 0.9901 -0.1402 -0.0000
vn -0.0000 -0.1402 -0.9901
vn -0.7001 -0.1402 -0.7001
vn -0.9901 -0.1402 -0.0000
vn -0.7001 -0.1402 0.7001
vn -0.0000 -0.1402 0.9901
vn 0.7001 -0.1402 0.7001
vn 0.6451 0.4094 -0.6451
vn 0.9123 0.4094 -0.0000
vn -0.0000 0.4094 -0.9124
vn -0.6451 0.4094 -0.6451
vn -0.9124 0.4094 -0.0000
vn -0.6451 0.4094 0.6451
vn -0.0000 0.4094 0.9123
vn 0.6451 0.4094 0.6451
vn 0.3792 0.8440 -0.3792
vn 0.5363 0.8440 -0.0000
vn -0.0000 0.8440 -0.5363
vn -0.3792 0.8440 -0.3792
vn -0.5363 0.8440 -0.0000
vn -0.3792 0.8440 0.3792
vn -0.0000 0.8440 0.5363
vn 0.3792 0.8440 0.3792
vn -0.0000 1.0000 -0.0000
vn -0.4268 -0.4246 0.7985
vn -0.2903 -0.4293 0.8552
vn -0.2958 -0.3916 0.8713
vn -0.4346 -0.3871 0.8132
vn -0.0000 -0.4293 0.9031
vn -0.0000 -0.3916 0.9202
vn 0.2903 -0.4293 0.8552
vn 0.2958 -0.3916 0.8713
vn 0.4268 -0.4246 0.7985
vn 0.4346 -0.3871 0.8132
vn -0.3195 -0.1108 0.9411
vn -0.4686 -0.1093 0.8766
vn -0.0000 -0.1108 0.9938
vn 0.3195 -0.1108 0.9411
vn 0.4686 -0.1093 0.8766
vn -0.3109 0.2540 0.9159
vn -0.4563 0.2508 0.8537
vn -0.0000 0.2540 0.9672
vn 0.3109 0.2540 0.9159
vn 0.4563 0.2508 0.8537
vn -0.2981 0.3743 0.8781
vn -0.4379 0.3700 0.8193
vn -0.0000 0.3743 0.9273
vn 0.2981 0.3743 0.8781
vn 0.4379 0.3700 0.8193
vn 0.9923 0.1240 -0.0000
vn 0.7016 0.1240 -0.7016
vn 0.6447 0.4108 -0.6447
vn 0.9117 0.4108 -0.0000
vn -0.0000 0.1240 -0.9923
vn -0.0000 0.4108 -0.9117
vn -0.7016 0.1240 -0.7016
vn -0.6447 0.4108 -0.6447
vn -0.9923 0.1240 -0.0000
vn -0.9117 0.4108 -0.0000
vn -0.7016 0.1240 0.7016
vn -0.6447 0.4108 0.6447
vn -0.0000 0.1240 0.9923
vn -0.0000 0.4108 0.9117
vn 0.7016 0.1240 0.7016
vn 0.6447 0.4108 0.6447
vn 0.3743 0.8484 -0.3743
vn 0.5293 0.8484 -0.0000
vn -0.0000 0.8484 -0.5293
vn -0.3743 0.8484 -0.3743
vn -0.5293 0.8484 -0.0000
vn -0.3743 0.8484 0.3743
vn -0.0000 0.8484 0.5293
vn 0.3743 0.8484 0.3743
vn 0.9524 -0.3048 -0.0000
vn 0.6735 -0.3048 -0.6735
vn 0.6992 -0.1488 -0.6992
vn 0.9889 -0.1488 -0.0000
vn -0.0000 -0.3048 -0.9524
vn -0.0000 -0.1488 -0.9889
vn -0.6735 -0.3048 -0.6735
vn -0.6992 -0.1488 -0.6992
vn -0.9524 -0.3048 -0.0000
vn -0.9889 -0.1488 -0.0000
vn -0.6735 -0.3048 0.6735
vn -0.6992 -0.1488 0.6992
vn -0.0000 -0.3048 0.9524
vn -0.0000 -0.1488 0.9889
vn 0.6735 -0.3048 0.6735
vn 0.6992 -0.1488 0.6992
vn 0.7071 -0.0000 -0.7071
vn 1.0000 -0.0000 -0.0000
vn -0.0000 -0.0000 -1.0000
vn -0.7071 -0.0000 -0.7071
vn -1.0000 -0.0000 -0.0000
vn -0.7071 -0.0000 0.7071
vn -0.0000 -0.0000 1.0000
vn 0.7071 -0.0000 0.7071
vn -0.5820 0.0111 0.8131
vn -0.5859 -0.0865 0.8058
vn -0.5859 -0.0881 0.8056
vn -0.9401 0.1780 -0.2908
vn -0.9503 0.0397 -0.3089
vn -0.9503 0.0408 -0.3088
vn -0.0001 0.0995 -0.9950
vn -0.0000 0.1119 -0.9937
vn -0.0000 0.1117 -0.9937
vn 0.9391 -0.1198 -0.3220
vn 0.9508 0.0311 -0.3083
vn 0.9508 0.0303 -0.3084
vn 0.5825 -0.1731 0.7942
vn 0.5852 -0.0941 0.8054
vn 0.5853 -0.0925 0.8055
vn -0.5840 -0.1849 0.7904
vn -0.9420 -0.0983 -0.3209
vn 0.0001 0.1241 -0.9923
vn 0.9406 0.1805 -0.2876
vn 0.5842 -0.0128 0.8115
vn 0.1572 0.9827 0.0983
vn 0.1472 -0.9815 -0.1227
vn -0.5825 -0.1731 0.7942
vn -0.5853 -0.0925 0.8055
vn -0.5852 -0.0941 0.8054
vn -0.9391 -0.1198 -0.3220
vn -0.9508 0.0303 -0.3084
vn -0.9508 0.0311 -0.3083
vn 0.0001 0.0995 -0.9950
vn 0.9401 0.1780 -0.2908
vn 0.9503 0.0408 -0.3088
vn 0.9503 0.0397 -0.3089
vn 0.5820 0.0111 0.8131
vn 0.5859 -0.0881 0.8056
vn 0.5859 -0.0865 0.8058
vn -0.5842 -0.0128 0.8115
vn -0.9406 0.1805 -0.2876
vn -0.0001 0.1241 -0.9923
vn 0.9420 -0.0983 -0.3209
vn 0.5840 -0.1849 0.7904
vn -0.1572 0.9827 0.0983
vn -0.1472 -0.9815 -0.1227
vn 0.9659 0.2588 -0.0000
vn 0.6597 0.4356 -0.6124
vn -0.2588 0.9659 -0.0000
vn 0.0474 0.7891 0.6124
vn -0.9659 -0.2588 -0.0000
vn -0.6597 -0.4356 0.6124
vn 0.2588 -0.9659 -0.0000
vn -0.0474 -0.7891 -0.6124
vn 0.0474 0.7891 -0.6124
vn 0.6597 0.4356 0.6124
vn -0.0474 -0.7891 0.6124
vn -0.6597 -0.4356 -0.6124
vt 0.317261 0.688477
vt 0.321045 0.702728
vt 0.313477 0.702728
vt 0.324829 0.688477
vt 0.328613 0.702728
vt 0.332397 0.688477
vt 0.336182 0.702728
vt 0.339966 0.688477
vt 0.343750 0.702728
vt 0.347534 0.688477
vt 0.351318 0.702728
vt 0.355103 0.688477
vt 0.358887 0.702728
vt 0.362671 0.688477
vt 0.366455 0.702728
vt 0.370239 0.688477
vt 0.374023 0.702728
vt 0.321045 0.716455
vt 0.313477 0.716455
vt 0.328613 0.716455
vt 0.336182 0.716455
vt 0.343750 0.716455
vt 0.351318 0.716455
vt 0.358887 0.716455
vt 0.366455 0.716455
vt 0.374023 0.716455
vt 0.321045 0.728061
vt 0.313477 0.728061
vt 0.328613 0.728061
vt 0.336182 0.728061
vt 0.343750 0.728061
vt 0.351318 0.728061
vt 0.358887 0.728061
vt 0.366455 0.728061
vt 0.374023 0.728061
vt 0.321045 0.738230
vt 0.313477 0.738230
vt 0.328613 0.738230
vt 0.336182 0.738230
vt 0.343750 0.738230
vt 0.351318 0.738230
vt 0.358887 0.738230
vt 0.366455 0.738230
vt 0.374023 0.738230
vt 0.317261 0.749023
vt 0.324829 0.749023
vt 0.332397 0.749023
vt 0.339966 0.749023
vt 0.347534 0.749023
vt 0.355103 0.749023
vt 0.362671 0.749023
vt 0.370239 0.749023
vt 0.329102 0.641602
vt 0.340332 0.641602
vt 0.340332 0.652832
vt 0.329102 0.652832
vt 0.351562 0.641602
vt 0.351562 0.652832
vt 0.362793 0.641602
vt 0.362793 0.652832
vt 0.374023 0.641602
vt 0.374023 0.652832
vt 0.340332 0.664062
vt 0.329102 0.664062
vt 0.351562 0.664062
vt 0.362793 0.664062
vt 0.374023 0.664062
vt 0.340332 0.675293
vt 0.329102 0.675293
vt 0.351562 0.675293
vt 0.362793 0.675293
vt 0.374023 0.675293
vt 0.340332 0.686523
vt 0.329102 0.686523
vt 0.351562 0.686523
vt 0.362793 0.686523
vt 0.374023 0.686523
vt 0.532227 0.657227
vt 0.535889 0.657227
vt 0.535889 0.664688
vt 0.532227 0.664688
vt 0.539551 0.657227
vt 0.539551 0.664688
vt 0.543213 0.657227
vt 0.543213 0.664688
vt 0.546875 0.657227
vt 0.546875 0.664688
vt 0.550537 0.657227
vt 0.550537 0.664688
vt 0.554199 0.657227
vt 0.554199 0.664688
vt 0.557861 0.657227
vt 0.557861 0.664688
vt 0.561523 0.657227
vt 0.561523 0.664688
vt 0.535889 0.675159
vt 0.532227 0.675159
vt 0.539551 0.675159
vt 0.543213 0.675159
vt 0.546875 0.675159
vt 0.550537 0.675159
vt 0.554199 0.675159
vt 0.557861 0.675159
vt 0.561523 0.675159
vt 0.534058 0.686523
vt 0.537720 0.686523
vt 0.541382 0.686523
vt 0.545044 0.686523
vt 0.548706 0.686523
vt 0.552368 0.686523
vt 0.556030 0.686523
vt 0.559692 0.686523
vt 0.535889 0.675870
vt 0.532227 0.675870
vt 0.539551 0.675870
vt 0.543213 0.675870
vt 0.546875 0.675870
vt 0.550537 0.675870
vt 0.554199 0.675870
vt 0.557861 0.675870
vt 0.561523 0.675870
vt 0.535889 0.686523
vt 0.532227 0.686523
vt 0.539551 0.686523
vt 0.543213 0.686523
vt 0.546875 0.686523
vt 0.550537 0.686523
vt 0.554199 0.686523
vt 0.557861 0.686523
vt 0.561523 0.686523
vt 0.538086 0.657227
vt 0.538086 0.671875
vt 0.532227 0.671875
vt 0.543945 0.657227
vt 0.543945 0.671875
vt 0.549805 0.657227
vt 0.549805 0.671875
vt 0.555664 0.657227
vt 0.555664 0.671875
vt 0.561523 0.671875
vt 0.538086 0.686523
vt 0.543945 0.686523
vt 0.549805 0.686523
vt 0.555664 0.686523
vt 0.561523 0.668601
vt 0.555928 0.686523
vt 0.537822 0.686226
vt 0.532227 0.668119
vt 0.532227 0.675118
vt 0.537822 0.657227
vt 0.555928 0.657575
vt 0.561523 0.675681
vt 0.561523 0.668119
vt 0.555928 0.686226
vt 0.537822 0.686523
vt 0.532227 0.668601
vt 0.532227 0.675681
vt 0.537822 0.657575
vt 0.555928 0.657227
vt 0.561523 0.675118
vt 0.750977 0.688477
vt 0.761068 0.688477
vt 0.761068 0.703613
vt 0.750977 0.703613
vt 0.761068 0.718750
vt 0.750977 0.718750
vt 0.761068 0.733887
vt 0.750977 0.733887
vt 0.761068 0.749023
vt 0.750977 0.749023
vt 0.771159 0.688477
vt 0.771159 0.703613
vt 0.771159 0.718750
vt 0.771159 0.733887
vt 0.771159 0.749023
vt 0.781250 0.688477
vt 0.781250 0.703613
vt 0.781250 0.718750
vt 0.781250 0.733887
vt 0.781250 0.749023
vt 0.791341 0.688477
vt 0.791341 0.703613
vt 0.791341 0.718750
vt 0.791341 0.733887
vt 0.791341 0.749023
vt 0.801432 0.688477
vt 0.801432 0.703613
vt 0.801432 0.718750
vt 0.801432 0.733887
vt 0.801432 0.749023
vt 0.811523 0.688477
vt 0.811523 0.703613
vt 0.811523 0.718750
vt 0.811523 0.733887
vt 0.811523 0.749023
s 1
usemtl props
f 219/258/186 217/259/187 221/260/188
f 219/261/186 218/262/189 217/259/187
f 219/263/186 222/264/190 218/262/189
f 219/265/186 224/266/191 222/264/190
f 219/267/186 225/268/192 224/266/191
f 219/269/186 227/270/193 225/268/192
f 219/271/186 220/272/194 227/270/193
f 219/273/186 221/274/188 220/272/194
f 221/260/188 217/259/187 229/275/195 228/276/196
f 217/259/187 218/262/189 230/277/197 229/275/195
f 218/262/189 222/264/190 223/278/198 230/277/197
f 222/264/190 224/266/191 232/279/199 223/278/198
f 224/266/191 225/268/192 226/280/200 232/279/199
f 225/268/192 227/270/193 235/281/201 226/280/200
f 227/270/193 220/272/194 236/282/202 235/281/201
f 220/272/194 221/274/188 228/283/196 236/282/202
f 228/276/196 229/275/195 237/284/203 246/285/204
f 229/275/195 230/277/197 239/286/205 237/284/203
f 230/277/197 223/278/198 231/287/206 239/286/205
f 223/278/198 232/279/199 233/288/207 231/287/206
f 232/279/199 226/280/200 242/289/208 233/288/207
f 226/280/200 235/281/201 234/290/209 242/289/208
f 235/281/201 236/282/202 245/291/210 234/290/209
f 236/282/202 228/283/196 246/292/204 245/291/210
f 246/285/204 237/284/203 238/293/211 247/294/212
f 237/284/203 239/286/205 240/295/213 238/293/211
f 239/286/205 231/287/206 241/296/214 240/295/213
f 231/287/206 233/288/207 248/297/215 241/296/214
f 233/288/207 242/289/208 249/298/216 248/297/215
f 242/289/208 234/290/209 244/299/217 249/298/216
f 234/290/209 245/291/210 243/300/218 244/299/217
f 245/291/210 246/292/204 247/301/212 243/300/218
f 247/294/212 238/293/211 250/302/219
f 238/293/211 240/295/213 250/303/219
f 240/295/213 241/296/214 250/304/219
f 241/296/214 248/297/215 250/305/219
f 248/297/215 249/298/216 250/306/219
f 249/298/216 244/299/217 250/307/219
f 244/299/217 243/300/218 250/308/219
f 243/300/218 247/301/212 250/309/219
f 251/310/220 252/311/221 260/312/222 253/313/223
f 252/311/221 254/314/224 262/315/225 260/312/222
f 254/314/224 256/316/226 255/317/227 262/315/225
f 256/316/226 257/318/228 258/319/229 255/317/227
f 253/313/223 260/312/222 261/320/230 259/321/231
f 260/312/222 262/315/225 264/322/232 261/320/230
f 262/315/225 255/317/227 265/323/233 264/322/232
f 255/317/227 258/319/229 267/324/234 265/323/233
f 259/321/231 261/320/230 270/325/235 263/326/236
f 261/320/230 264/322/232 266/327/237 270/325/235
f 264/322/232 265/323/233 273/328/238 266/327/237
f 265/323/233 267/324/234 268/329/239 273/328/238
f 263/326/236 270/325/235 272/330/240 269/331/241
f 270/325/235 266/327/237 271/332/242 272/330/240
f 266/327/237 273/328/238 274/333/243 271/332/242
f 273/328/238 268/329/239 275/334/244 274/333/243
f 287/335/245 277/336/246 289/337/247 276/338/248
f 277/336/246 278/339/249 280/340/250 289/337/247
f 278/339/249 279/341/251 290/342/252 280/340/250
f 279/341/251 281/343/253 293/344/254 290/342/252
f 281/343/253 282/345/255 283/346/256 293/344/254
f 282/345/255 285/347/257 284/348/258 283/346/256
f 285/347/257 286/349/259 297/350/260 284/348/258
f 286/349/259 287/351/245 276/352/248 297/350/260
f 276/338/248 289/337/247 288/353/261 300/354/262
f 289/337/247 280/340/250 291/355/263 288/353/261
f 280/340/250 290/342/252 292/356/264 291/355/263
f 290/342/252 293/344/254 294/357/265 292/356/264
f 293/344/254 283/346/256 296/358/266 294/357/265
f 283/346/256 284/348/258 295/359/267 296/358/266
f 284/348/258 297/350/260 299/360/268 295/359/267
f 297/350/260 276/352/248 300/361/262 299/360/268
f 300/354/262 288/353/261 298/362/219
f 288/353/261 291/355/263 298/363/219
f 291/355/263 292/356/264 298/364/219
f 292/356/264 294/357/265 298/365/219
f 294/357/265 296/358/266 298/366/219
f 296/358/266 295/359/267 298/367/219
f 295/359/267 299/360/268 298/368/219
f 299/360/268 300/361/262 298/369/219
f 311/335/269 303/336/270 301/370/271 302/371/272
f 303/336/270 304/339/273 312/372/274 301/370/271
f 304/339/273 305/341/275 315/373/276 312/372/274
f 305/341/275 307/343/277 306/374/278 315/373/276
f 307/343/277 308/345/279 317/375/280 306/374/278
f 308/345/279 309/347/281 320/376/282 317/375/280
f 309/347/281 310/349/283 321/377/284 320/376/282
f 310/349/283 311/351/269 302/378/272 321/377/284
f 302/371/272 301/370/271 313/379/285 324/380/286
f 301/370/271 312/372/274 314/381/287 313/379/285
f 312/372/274 315/373/276 316/382/288 314/381/287
f 315/373/276 306/374/278 319/383/289 316/382/288
f 306/374/278 317/375/280 318/384/290 319/383/289
f 317/375/280 320/376/282 323/385/291 318/384/290
f 320/376/282 321/377/284 322/386/292 323/385/291
f 321/377/284 302/378/272 324/387/286 322/386/292
f 325/335/293 326/388/293 331/389/294 334/390/295
f 326/388/296 336/391/296 332/392/297 331/389/298
f 336/391/299 328/393/299 327/394/300 332/392/301
f 328/393/302 329/395/302 330/396/303 327/394/304
f 329/395/305 325/351/305 334/397/306 330/396/307
f 334/390/295 331/389/294 337/398/308 335/380/308
f 331/389/298 332/392/297 333/399/309 337/398/309
f 332/392/301 327/394/300 338/400/310 333/399/310
f 327/394/304 330/396/303 339/401/311 338/400/311
f 330/396/307 334/397/306 335/387/312 339/401/312
s 0
f 329/402/313 328/403/313 336/404/313 326/405/313 325/343/313
f 335/383/314 337/406/314 333/407/314 338/408/314 339/409/314
s 1
f 353/335/315 340/388/315 341/389/316 342/390/317
f 340/388/318 352/391/318 347/392/319 341/389/320
f 352/391/321 351/393/321 343/394/301 347/392/300
f 351/393/322 344/395/322 349/396/323 343/394/324
f 344/395/325 353/351/325 342/397/326 349/396/327
f 342/390/317 341/389/316 345/398/328 346/380/328
f 341/389/320 347/392/319 354/399/329 345/398/329
f 347/392/300 343/394/301 348/400/330 354/399/330
f 343/394/324 349/396/323 350/401/331 348/400/331
f 349/396/327 342/397/326 346/387/332 350/401/332
s 0
f 344/410/333 351/411/333 352/412/333 340/413/333 353/343/333
f 346/383/334 345/414/334 354/415/334 348/416/334 350/417/334
s 1
f 355/418/335 358/419/336 356/420/336 377/421/335
f 377/421/337 356/420/338 359/422/338 378/423/337
f 378/423/339 359/422/340 360/424/340 357/425/339
f 357/425/341 360/424/342 358/426/342 355/427/341
f 358/419/336 361/428/343 362/429/343 356/420/336
f 356/420/338 362/429/344 364/430/344 359/422/338
f 359/422/340 364/430/345 365/431/345 360/424/340
f 360/424/342 365/431/346 361/432/346 358/426/342
f 361/428/343 371/433/337 363/434/337 362/429/343
f 362/429/344 363/434/335 368/435/335 364/430/344
f 364/430/345 368/435/341 369/436/341 365/431/345
f 365/431/346 369/436/339 371/437/339 361/432/346
f 371/433/337 366/438/338 367/439/338 363/434/337
f 363/434/335 367/439/336 373/440/336 368/435/335
f 368/435/341 373/440/342 370/441/342 369/436/341
f 369/436/339 370/441/340 366/442/340 371/437/339
f 366/438/338 376/443/344 372/444/344 367/439/338
f 367/439/336 372/444/343 374/445/343 373/440/336
f 373/440/342 374/445/346 375/446/346 370/441/342
f 370/441/340 375/446/345 376/447/345 366/442/340
f 376/443/344 355/448/335 377/449/335 372/444/344
f 372/444/343 377/449/337 378/450/337 374/445/343
f 374/445/346 378/450/339 357/451/339 375/446/346
f 375/446/345 357/451/341 355/452/341 376/447/345
