# Blender 4.5.14 LTS
# www.blender.org
mtllib gibbet.mtl
o gibbet
v -0.080000 2.600000 0.080000 1.0000 1.0000 1.0000
v 0.080000 0.000000 -0.080000 0.6667 0.6667 0.6667
v -0.080000 0.000000 -0.080000 0.6667 0.6667 0.6667
v -0.080000 0.000000 0.080000 0.6667 0.6667 0.6667
v -0.080000 2.600000 -0.080000 1.0000 1.0000 1.0000
v 0.080000 2.600000 0.080000 0.9451 0.9451 0.9451
v 0.080000 2.600000 -0.080000 0.9490 0.9490 0.9490
v 0.080000 0.000000 0.080000 0.6667 0.6667 0.6667
v -0.250000 0.120000 0.250000 0.8980 0.8980 0.8980
v 0.250000 0.000000 -0.250000 0.7764 0.7764 0.7764
v -0.250000 0.000000 -0.250000 0.7725 0.7725 0.7725
v -0.250000 0.120000 -0.250000 0.9058 0.9058 0.9058
v 0.250000 0.120000 -0.250000 0.9058 0.9058 0.9058
v 0.250000 0.120000 0.250000 0.9019 0.9019 0.9019
v 0.250000 0.000000 0.250000 0.7764 0.7764 0.7764
v -0.250000 0.000000 0.250000 0.7725 0.7725 0.7725
v -0.050000 2.460000 0.070000 0.6667 0.6667 0.6667
v -0.050000 2.460000 -0.070000 0.6667 0.6667 0.6667
v -0.050000 2.600000 -0.070000 0.7764 0.7764 0.7764
v 1.050000 2.600000 -0.070000 1.0000 1.0000 1.0000
v -0.050000 2.600000 0.070000 0.7764 0.7764 0.7764
v 1.050000 2.460000 0.070000 0.9882 0.9882 0.9882
v 1.050000 2.460000 -0.070000 0.9843 0.9843 0.9843
v 1.050000 2.600000 0.070000 1.0000 1.0000 1.0000
v -0.040520 2.040190 0.050000 0.6706 0.6706 0.6706
v 0.489810 2.570520 0.050000 0.6667 0.6667 0.6667
v 0.489810 2.570520 -0.050000 0.6667 0.6667 0.6667
v -0.040520 2.040190 -0.050000 0.6667 0.6667 0.6667
v 0.030190 1.969480 -0.050000 0.6706 0.6706 0.6706
v 0.560520 2.499810 0.050000 0.6667 0.6667 0.6667
v 0.560520 2.499810 -0.050000 0.6667 0.6667 0.6667
v 0.030190 1.969480 0.050000 0.6706 0.6706 0.6706
v -0.024327 0.335152 0.050000 0.6667 0.6667 0.6667
v -0.024327 0.335152 -0.050000 0.6667 0.6667 0.6667
v -0.335673 0.064848 -0.050000 0.8274 0.8274 0.8274
v -0.335673 0.064848 0.050000 0.8274 0.8274 0.8274
v -0.106242 0.392509 0.050000 0.9019 0.9019 0.9019
v -0.253758 0.007491 0.050000 0.7059 0.7059 0.7059
v -0.253758 0.007491 -0.050000 0.7059 0.7059 0.7059
v -0.106242 0.392509 -0.050000 0.8941 0.8941 0.8941
v 0.024327 0.335152 -0.050000 0.6667 0.6667 0.6667
v 0.253758 0.007491 -0.050000 0.7059 0.7059 0.7059
v 0.253758 0.007491 0.050000 0.7059 0.7059 0.7059
v 0.335673 0.064848 0.050000 0.8196 0.8196 0.8196
v 0.106242 0.392509 -0.050000 0.8941 0.8941 0.8941
v 0.024327 0.335152 0.050000 0.6706 0.6706 0.6706
v 0.106242 0.392509 0.050000 0.8941 0.8941 0.8941
v 0.335673 0.064848 -0.050000 0.8196 0.8196 0.8196
v 0.990000 2.450000 0.007000 0.8313 0.8313 0.8313
v 0.975000 2.475981 0.007000 0.6667 0.6667 0.6667
v 0.990000 2.450000 -0.007000 0.8313 0.8313 0.8313
v 0.978500 2.482043 -0.000000 0.6667 0.6667 0.6667
v 0.945000 2.475981 0.007000 0.6667 0.6667 0.6667
v 0.971500 2.469918 -0.000000 0.6667 0.6667 0.6667
v 0.975000 2.475981 -0.007000 0.6667 0.6667 0.6667
v 0.941500 2.482043 -0.000000 0.6667 0.6667 0.6667
v 0.937000 2.450000 -0.000000 0.7921 0.7921 0.7921
v 0.948500 2.469918 -0.000000 0.6667 0.6667 0.6667
v 0.930000 2.450000 -0.007000 0.8235 0.8235 0.8235
v 0.945000 2.475981 -0.007000 0.6667 0.6667 0.6667
v 0.930000 2.450000 0.007000 0.8313 0.8313 0.8313
v 0.945000 2.424019 0.007000 0.8549 0.8549 0.8549
v 0.948500 2.430081 0.000000 0.7412 0.7412 0.7412
v 0.923000 2.450000 -0.000000 0.8392 0.8392 0.8392
v 0.941500 2.417957 0.000000 0.9294 0.9294 0.9294
v 0.978500 2.417957 0.000000 0.9411 0.9411 0.9411
v 0.945000 2.424019 -0.007000 0.8588 0.8588 0.8588
v 0.997000 2.450000 0.000000 0.8509 0.8509 0.8509
v 0.975000 2.424019 0.007000 0.8627 0.8627 0.8627
v 0.983000 2.450000 0.000000 0.7960 0.7960 0.7960
v 0.971500 2.430081 0.000000 0.7372 0.7372 0.7372
v 0.975000 2.424019 -0.007000 0.8627 0.8627 0.8627
vn -0.0000 -0.0000 1.0000
vn -0.0000 -0.0000 -1.0000
vn -1.0000 -0.0000 -0.0000
vn 1.0000 -0.0000 -0.0000
vn -0.0000 1.0000 -0.0000
vn -0.0000 -1.0000 -0.0000
vn -0.7071 0.7071 -0.0000
vn 0.7071 -0.7071 -0.0000
vn 0.7071 0.7071 -0.0000
vn -0.7071 -0.7071 -0.0000
vn -0.8192 0.5736 -0.0000
vn 0.8192 -0.5736 -0.0000
vn 0.5736 0.8192 -0.0000
vn -0.5736 -0.8192 -0.0000
vn -0.8192 -0.5736 -0.0000
vn 0.8192 0.5736 -0.0000
vn -0.5736 0.8192 -0.0000
vn 0.5736 -0.8192 -0.0000
vn 0.7071 -0.0000 0.7071
vn 0.3535 0.6124 0.7071
vn 0.3536 0.6124 0.7071
vn -0.7071 -0.0000 0.7071
vn -0.3536 -0.6124 0.7071
vn -0.7071 -0.0000 -0.7071
vn -0.3536 -0.6124 -0.7071
vn 0.7071 -0.0000 -0.7071
vn 0.3536 0.6124 -0.7071
vn 0.3535 0.6124 -0.7071
vn -0.3536 0.6124 0.7071
vn 0.3535 -0.6124 0.7071
vn 0.3536 -0.6124 0.7071
vn 0.3536 -0.6124 -0.7071
vn -0.3536 0.6124 -0.7071
vt 0.375977 0.875977
vt 0.383549 0.875977
vt 0.383549 0.999023
vt 0.375977 0.999023
vt 0.415352 0.875977
vt 0.415352 0.915352
vt 0.375977 0.915352
vt 0.499023 0.875977
vt 0.499023 0.905508
vt 0.375977 0.905508
vt 0.499023 0.999023
vt 0.499023 0.891637
vt 0.375977 0.891637
vt 0.410430 0.875977
vt 0.410430 0.910430
vt 0.375977 0.910430
vt 0.392383 0.875977
vt 0.392383 0.999023
vt 0.400586 0.875977
vt 0.400586 0.900586
vt 0.375977 0.900586
vt 0.400586 0.974414
vt 0.375977 0.974414
vt 0.250977 0.875977
vt 0.271484 0.875977
vt 0.271484 0.906738
vt 0.250977 0.906738
vt 0.271484 0.937500
vt 0.250977 0.937500
vt 0.271484 0.968262
vt 0.250977 0.968262
vt 0.271484 0.999023
vt 0.250977 0.999023
vt 0.291992 0.875977
vt 0.291992 0.906738
vt 0.291992 0.937500
vt 0.291992 0.968262
vt 0.291992 0.999023
vt 0.312500 0.875977
vt 0.312500 0.906738
vt 0.312500 0.937500
vt 0.312500 0.968262
vt 0.312500 0.999023
vt 0.333008 0.875977
vt 0.333008 0.906738
vt 0.333008 0.937500
vt 0.333008 0.968262
vt 0.333008 0.999023
vt 0.353516 0.875977
vt 0.353516 0.906738
vt 0.353516 0.937500
vt 0.353516 0.968262
vt 0.353516 0.999023
vt 0.374023 0.875977
vt 0.374023 0.906738
vt 0.374023 0.937500
vt 0.374023 0.968262
vt 0.374023 0.999023
s 0
usemtl props
f 4/1/1 8/2/1 6/3/1 1/4/1
f 2/1/2 3/2/2 5/3/2 7/4/2
f 3/1/3 4/2/3 1/3/3 5/4/3
f 8/1/4 2/2/4 7/3/4 6/4/4
f 1/1/5 6/5/5 7/6/5 5/7/5
f 3/1/6 2/5/6 8/6/6 4/7/6
f 16/1/1 15/8/1 14/9/1 9/10/1
f 10/1/2 11/8/2 12/9/2 13/10/2
f 11/1/3 16/8/3 9/9/3 12/10/3
f 15/1/4 10/8/4 13/9/4 14/10/4
f 9/1/5 14/8/5 13/11/5 12/4/5
f 11/1/6 10/8/6 15/11/6 16/4/6
f 17/1/1 22/8/1 24/12/1 21/13/1
f 23/1/2 18/8/2 19/12/2 20/13/2
f 18/1/3 17/14/3 21/15/3 19/16/3
f 22/1/4 23/14/4 20/15/4 24/16/4
f 21/1/5 24/8/5 20/12/5 19/13/5
f 18/1/6 23/8/6 22/12/6 17/13/6
f 25/1/1 32/17/1 30/18/1 26/4/1
f 29/1/2 28/17/2 27/18/2 31/4/2
f 28/1/7 25/17/7 26/18/7 27/4/7
f 32/1/8 29/17/8 31/18/8 30/4/8
f 26/1/9 30/19/9 31/20/9 27/21/9
f 28/1/10 29/19/10 32/20/10 25/21/10
f 36/1/1 38/19/1 33/22/1 37/23/1
f 39/1/2 35/19/2 40/22/2 34/23/2
f 35/1/11 36/19/11 37/22/11 40/23/11
f 38/1/12 39/19/12 34/22/12 33/23/12
f 37/1/13 33/19/13 34/20/13 40/21/13
f 35/1/14 39/19/14 38/20/14 36/21/14
f 43/1/1 44/19/1 47/22/1 46/23/1
f 48/1/2 42/19/2 41/22/2 45/23/2
f 42/1/15 43/19/15 46/22/15 41/23/15
f 44/1/16 48/19/16 45/22/16 47/23/16
f 46/1/17 47/19/17 45/20/17 41/21/17
f 42/1/18 48/19/18 44/20/18 43/21/18
s 1
f 68/24/19 52/25/20 50/26/21 49/27/19
f 49/27/22 50/26/23 54/28/23 70/29/22
f 70/29/24 54/28/25 55/30/25 51/31/24
f 51/31/26 55/30/27 52/32/28 68/33/26
f 52/25/20 56/34/29 53/35/29 50/26/21
f 50/26/23 53/35/30 58/36/31 54/28/23
f 54/28/25 58/36/32 60/37/32 55/30/25
f 55/30/27 60/37/33 56/38/33 52/32/28
f 56/34/29 64/39/22 61/40/22 53/35/29
f 53/35/30 61/40/19 57/41/19 58/36/31
f 58/36/32 57/41/26 59/42/26 60/37/32
f 60/37/33 59/42/24 64/43/24 56/38/33
f 64/39/22 65/44/23 62/45/23 61/40/22
f 61/40/19 62/45/21 63/46/21 57/41/19
f 57/41/26 63/46/27 67/47/27 59/42/26
f 59/42/24 67/47/25 65/48/25 64/43/24
f 65/44/23 66/49/31 69/50/31 62/45/23
f 62/45/21 69/50/29 71/51/29 63/46/21
f 63/46/27 71/51/33 72/52/33 67/47/27
f 67/47/25 72/52/32 66/53/32 65/48/25
f 66/49/31 68/54/19 49/55/19 69/50/31
f 69/50/29 49/55/22 70/56/22 71/51/29
f 71/51/33 70/56/24 51/57/24 72/52/33
f 72/52/32 51/57/26 68/58/26 66/53/32
o gibbet_cage
v 0.954804 2.430855 0.000000 0.7333 0.7333 0.7333
v 0.965196 2.420655 -0.010392 0.8353 0.8353 0.8353
v 0.960000 2.428304 -0.018187 0.8588 0.8588 0.8588
v 0.954804 2.420655 -0.010392 0.8353 0.8353 0.8353
v 0.954804 2.400254 -0.010392 0.8392 0.8392 0.8392
v 0.965196 2.400254 -0.010392 0.8549 0.8549 0.8549
v 0.960000 2.392605 -0.018187 0.9333 0.9333 0.9333
v 0.960000 2.374754 -0.000000 0.8313 0.8313 0.8313
v 0.954804 2.390054 -0.000000 0.6667 0.6667 0.6667
v 0.954804 2.400254 0.010392 0.8353 0.8353 0.8353
v 0.965196 2.390054 -0.000000 0.6667 0.6667 0.6667
v 0.960000 2.392605 0.018187 0.9333 0.9333 0.9333
v 0.965196 2.400254 0.010392 0.8509 0.8509 0.8509
v 0.960000 2.428304 0.018187 0.8627 0.8627 0.8627
v 0.954804 2.420655 0.010392 0.8235 0.8235 0.8235
v 0.965196 2.420655 0.010392 0.8392 0.8392 0.8392
v 0.965196 2.430855 0.000000 0.7333 0.7333 0.7333
v 0.960000 2.446155 0.000000 0.7608 0.7608 0.7608
v 0.978187 2.389214 -0.000000 0.9294 0.9294 0.9294
v 0.960000 2.407064 -0.000000 0.7764 0.7764 0.7764
v 0.970392 2.361164 -0.005196 0.8823 0.8823 0.8823
v 0.970392 2.381564 -0.005196 0.8784 0.8784 0.8784
v 0.970392 2.381564 0.005196 0.8862 0.8862 0.8862
v 0.960000 2.350964 -0.005196 0.6667 0.6667 0.6667
v 0.960000 2.350964 0.005196 0.6667 0.6667 0.6667
v 0.970392 2.361164 0.005196 0.8784 0.8784 0.8784
v 0.960000 2.335664 0.000000 0.8313 0.8313 0.8313
v 0.978187 2.353514 -0.000000 0.9686 0.9686 0.9686
v 0.949608 2.361164 0.005196 0.8784 0.8784 0.8784
v 0.941813 2.353514 0.000000 0.9529 0.9529 0.9529
v 0.949608 2.361164 -0.005196 0.8784 0.8784 0.8784
v 0.949608 2.381564 -0.005196 0.8706 0.8706 0.8706
v 0.949608 2.381564 0.005196 0.8745 0.8745 0.8745
v 0.960000 2.391764 -0.005196 0.6667 0.6667 0.6667
v 0.960000 2.391764 0.005196 0.6667 0.6667 0.6667
v 0.941813 2.389214 0.000000 0.9058 0.9058 0.9058
v 0.965196 2.342473 -0.010392 0.8941 0.8941 0.8941
v 0.960000 2.367973 0.000000 0.8117 0.8117 0.8117
v 0.960000 2.350123 -0.018187 0.9372 0.9372 0.9372
v 0.960000 2.314423 -0.018187 0.9607 0.9607 0.9607
v 0.954804 2.342473 -0.010392 0.8745 0.8745 0.8745
v 0.954804 2.322073 -0.010392 0.8706 0.8706 0.8706
v 0.965196 2.322073 -0.010392 0.8980 0.8980 0.8980
v 0.954804 2.322073 0.010392 0.8784 0.8784 0.8784
v 0.954804 2.311873 -0.000000 0.6667 0.6667 0.6667
v 0.965196 2.322073 0.010392 0.8862 0.8862 0.8862
v 0.965196 2.311873 -0.000000 0.6667 0.6667 0.6667
v 0.960000 2.296573 -0.000000 0.8313 0.8313 0.8313
v 0.960000 2.314423 0.018187 0.9607 0.9607 0.9607
v 0.965196 2.342473 0.010392 0.8941 0.8941 0.8941
v 0.960000 2.350123 0.018187 0.9372 0.9372 0.9372
v 0.954804 2.352673 0.000000 0.6667 0.6667 0.6667
v 0.954804 2.342473 0.010392 0.8745 0.8745 0.8745
v 0.965196 2.352673 0.000000 0.6667 0.6667 0.6667
v 0.970392 2.303382 -0.005196 0.8902 0.8902 0.8902
v 0.970392 2.303382 0.005196 0.9019 0.9019 0.9019
v 0.978187 2.311032 -0.000000 0.9607 0.9607 0.9607
v 0.970392 2.282982 -0.005196 0.9019 0.9019 0.9019
v 0.970392 2.282982 0.005196 0.8902 0.8902 0.8902
v 0.978187 2.275332 -0.000000 0.9725 0.9725 0.9725
v 0.960000 2.257482 0.000000 0.8353 0.8353 0.8353
v 0.941813 2.275332 0.000000 0.9647 0.9647 0.9647
v 0.949608 2.282982 -0.005196 0.8980 0.8980 0.8980
v 0.960000 2.272782 -0.005196 0.6667 0.6667 0.6667
v 0.960000 2.272782 0.005196 0.6667 0.6667 0.6667
v 0.949608 2.282982 0.005196 0.8941 0.8941 0.8941
v 0.960000 2.328882 -0.000000 0.8117 0.8117 0.8117
v 0.960000 2.313582 -0.005196 0.6667 0.6667 0.6667
v 0.949608 2.303382 -0.005196 0.8823 0.8823 0.8823
v 0.960000 2.313582 0.005196 0.6667 0.6667 0.6667
v 0.949608 2.303382 0.005196 0.8862 0.8862 0.8862
v 0.941813 2.311032 0.000000 0.9451 0.9451 0.9451
v 0.954804 2.274491 0.000000 0.6667 0.6667 0.6667
v 0.965196 2.274491 0.000000 0.6667 0.6667 0.6667
v 0.960000 2.271941 -0.018187 0.9529 0.9529 0.9529
v 0.960000 2.289791 0.000000 0.8313 0.8313 0.8313
v 0.954804 2.243891 -0.010392 0.8902 0.8902 0.8902
v 0.954804 2.264291 -0.010392 0.8823 0.8823 0.8823
v 0.965196 2.243891 -0.010392 0.8980 0.8980 0.8980
v 0.965196 2.264291 -0.010392 0.8980 0.8980 0.8980
v 0.960000 2.236241 -0.018187 0.9647 0.9647 0.9647
v 0.960000 2.218391 -0.000000 0.8274 0.8274 0.8274
v 0.954804 2.233691 -0.000000 0.6667 0.6667 0.6667
v 0.965196 2.233691 -0.000000 0.6667 0.6667 0.6667
v 0.954804 2.243891 0.010392 0.8823 0.8823 0.8823
v 0.960000 2.236241 0.018187 0.9647 0.9647 0.9647
v 0.954804 2.264291 0.010392 0.8862 0.8862 0.8862
v 0.965196 2.264291 0.010392 0.8980 0.8980 0.8980
v 0.965196 2.243891 0.010392 0.8941 0.8941 0.8941
v 0.960000 2.271941 0.018187 0.9529 0.9529 0.9529
v 0.978187 2.232850 -0.000000 0.9647 0.9647 0.9647
v 0.970392 2.225200 -0.005196 0.8862 0.8862 0.8862
v 0.960000 2.235400 -0.005196 0.6667 0.6667 0.6667
v 0.960000 2.235400 0.005196 0.6667 0.6667 0.6667
v 0.970392 2.204800 -0.005196 0.8980 0.8980 0.8980
v 0.970392 2.204800 0.005196 0.8941 0.8941 0.8941
v 0.970392 2.225200 0.005196 0.9019 0.9019 0.9019
v 0.960000 2.179300 0.000000 0.8235 0.8235 0.8235
v 0.960000 2.194600 -0.005196 0.6667 0.6667 0.6667
v 0.960000 2.194600 0.005196 0.6667 0.6667 0.6667
v 0.978187 2.197150 -0.000000 0.9686 0.9686 0.9686
v 0.949608 2.204800 -0.005196 0.8980 0.8980 0.8980
v 0.941813 2.197150 0.000000 0.9607 0.9607 0.9607
v 0.941813 2.232850 0.000000 0.9568 0.9568 0.9568
v 0.949608 2.225200 0.005196 0.8862 0.8862 0.8862
v 0.949608 2.204800 0.005196 0.8941 0.8941 0.8941
v 0.949608 2.225200 -0.005196 0.8902 0.8902 0.8902
v 0.960000 2.250700 -0.000000 0.8274 0.8274 0.8274
v 0.960000 2.211609 0.000000 0.8353 0.8353 0.8353
v 0.954804 2.196309 0.000000 0.6667 0.6667 0.6667
v 0.960000 2.193759 -0.018187 0.9607 0.9607 0.9607
v 0.954804 2.186109 -0.010392 0.8823 0.8823 0.8823
v 0.965196 2.186109 -0.010392 0.8941 0.8941 0.8941
v 0.965196 2.165709 -0.010392 0.8941 0.8941 0.8941
v 0.954804 2.165709 -0.010392 0.8862 0.8862 0.8862
v 0.954804 2.155509 -0.000000 0.6667 0.6667 0.6667
v 0.960000 2.140209 -0.000000 0.8157 0.8157 0.8157
v 0.960000 2.158059 -0.018187 0.9529 0.9529 0.9529
v 0.965196 2.165709 0.010392 0.8941 0.8941 0.8941
v 0.965196 2.155509 -0.000000 0.6667 0.6667 0.6667
v 0.960000 2.158059 0.018187 0.9490 0.9490 0.9490
v 0.960000 2.193759 0.018187 0.9647 0.9647 0.9647
v 0.954804 2.165709 0.010392 0.8823 0.8823 0.8823
v 0.954804 2.186109 0.010392 0.8823 0.8823 0.8823
v 0.965196 2.196309 0.000000 0.6667 0.6667 0.6667
v 0.965196 2.186109 0.010392 0.8902 0.8902 0.8902
v 0.960000 2.172518 -0.000000 0.8313 0.8313 0.8313
v 0.970392 2.147018 -0.005196 0.8745 0.8745 0.8745
v 0.978187 2.154668 -0.000000 0.9647 0.9647 0.9647
v 0.970392 2.126618 0.005196 0.8745 0.8745 0.8745
v 0.970392 2.147018 0.005196 0.8862 0.8862 0.8862
v 0.978187 2.118968 -0.000000 0.9215 0.9215 0.9215
v 0.960000 2.116418 -0.005196 0.6667 0.6667 0.6667
v 0.970392 2.126618 -0.005196 0.8784 0.8784 0.8784
v 0.949608 2.126618 -0.005196 0.8823 0.8823 0.8823
v 0.960000 2.116418 0.005196 0.6667 0.6667 0.6667
v 0.949608 2.126618 0.005196 0.8823 0.8823 0.8823
v 0.941813 2.118968 0.000000 0.9215 0.9215 0.9215
v 0.960000 2.101118 0.000000 0.6667 0.6667 0.6667
v 0.941813 2.154668 0.000000 0.9568 0.9568 0.9568
v 0.960000 2.157218 -0.005196 0.6667 0.6667 0.6667
v 0.949608 2.147018 -0.005196 0.8784 0.8784 0.8784
v 0.960000 2.157218 0.005196 0.6667 0.6667 0.6667
v 0.949608 2.147018 0.005196 0.8745 0.8745 0.8745
v 0.954804 2.118127 0.000000 0.6667 0.6667 0.6667
v 0.965196 2.107927 -0.010392 0.8274 0.8274 0.8274
v 0.960000 2.115577 -0.018187 0.9333 0.9333 0.9333
v 0.960000 2.079877 -0.018187 0.7843 0.7843 0.7843
v 0.954804 2.107927 -0.010392 0.8196 0.8196 0.8196
v 0.954804 2.087527 -0.010392 0.6902 0.6902 0.6902
v 0.965196 2.087527 -0.010392 0.6902 0.6902 0.6902
v 0.965196 2.077327 -0.000000 0.6667 0.6667 0.6667
v 0.954804 2.087527 0.010392 0.6902 0.6902 0.6902
v 0.954804 2.077327 -0.000000 0.6667 0.6667 0.6667
v 0.960000 2.062027 -0.000000 0.7804 0.7804 0.7804
v 0.954804 2.107927 0.010392 0.8196 0.8196 0.8196
v 0.965196 2.107927 0.010392 0.8235 0.8235 0.8235
v 0.965196 2.087527 0.010392 0.6902 0.6902 0.6902
v 0.960000 2.079877 0.018187 0.7843 0.7843 0.7843
v 0.960000 2.115577 0.018187 0.9333 0.9333 0.9333
v 0.960000 2.133427 0.000000 0.8313 0.8313 0.8313
v 0.965196 2.118127 0.000000 0.6667 0.6667 0.6667
v 0.978187 2.076486 -0.000000 0.7843 0.7843 0.7843
v 0.978187 2.040786 -0.000000 0.8941 0.8941 0.8941
v 0.970392 2.048436 -0.005196 0.8157 0.8157 0.8157
v 0.970392 2.068836 -0.005196 0.8039 0.8039 0.8039
v 0.970392 2.048436 0.005196 0.8157 0.8157 0.8157
v 0.970392 2.068836 0.005196 0.8157 0.8157 0.8157
v 0.960000 2.038236 -0.005196 0.6667 0.6667 0.6667
v 0.960000 2.022936 0.000000 0.8117 0.8117 0.8117
v 0.949608 2.048436 -0.005196 0.8078 0.8078 0.8078
v 0.960000 2.038236 0.005196 0.6667 0.6667 0.6667
v 0.949608 2.068836 -0.005196 0.8078 0.8078 0.8078
v 0.949608 2.068836 0.005196 0.8039 0.8039 0.8039
v 0.949608 2.048436 0.005196 0.8274 0.8274 0.8274
v 0.941813 2.040786 0.000000 0.8902 0.8902 0.8902
v 0.960000 2.094336 -0.000000 0.6667 0.6667 0.6667
v 0.960000 2.079036 -0.005196 0.6667 0.6667 0.6667
v 0.960000 2.079036 0.005196 0.6667 0.6667 0.6667
v 0.941813 2.076486 0.000000 0.7725 0.7725 0.7725
v 0.954804 2.039945 0.000000 0.6667 0.6667 0.6667
v 0.960000 2.037395 -0.018187 0.8706 0.8706 0.8706
v 0.954804 2.009346 -0.010392 0.8784 0.8784 0.8784
v 0.954804 2.029745 -0.010392 0.8549 0.8549 0.8549
v 0.965196 2.009346 -0.010392 0.8706 0.8706 0.8706
v 0.965196 2.029745 -0.010392 0.8509 0.8509 0.8509
v 0.960000 2.001695 -0.018187 0.9215 0.9215 0.9215
v 0.954804 1.999146 -0.000000 0.8509 0.8509 0.8509
v 0.960000 1.983845 -0.000000 0.9372 0.9372 0.9372
v 0.965196 1.999146 -0.000000 0.8549 0.8549 0.8549
v 0.960000 2.001695 0.018187 0.9215 0.9215 0.9215
v 0.954804 2.009346 0.010392 0.8745 0.8745 0.8745
v 0.965196 2.009346 0.010392 0.8745 0.8745 0.8745
v 0.965196 2.029745 0.010392 0.8470 0.8470 0.8470
v 0.954804 2.029745 0.010392 0.8431 0.8431 0.8431
v 0.965196 2.039945 0.000000 0.6667 0.6667 0.6667
v 0.960000 2.055245 0.000000 0.7333 0.7333 0.7333
v 0.960000 2.037395 0.018187 0.8745 0.8745 0.8745
v 1.260000 0.650000 -0.009000 0.8078 0.8078 0.8078
v 1.260000 1.850000 -0.009000 0.7804 0.7804 0.7804
v 1.251000 0.650000 -0.000000 0.7451 0.7451 0.7451
v 1.260000 0.650000 0.009000 0.8157 0.8157 0.8157
v 1.268947 1.850973 0.000000 0.8157 0.8157 0.8157
v 1.260000 1.850000 0.009000 0.7843 0.7843 0.7843
v 1.269000 0.650000 0.000000 0.8745 0.8745 0.8745
v 1.251053 1.849028 -0.000000 0.7882 0.7882 0.7882
v 1.104238 2.023086 -0.000000 0.9215 0.9215 0.9215
v 1.110000 2.030000 -0.009000 0.9451 0.9451 0.9451
v 1.110000 2.030000 0.009000 0.9490 0.9490 0.9490
v 0.960000 2.100000 0.009000 0.6667 0.6667 0.6667
v 0.963806 2.108156 0.000000 0.7804 0.7804 0.7804
v 1.115762 2.036914 0.000000 0.9804 0.9804 0.9804
v 0.960000 2.100000 -0.009000 0.6667 0.6667 0.6667
v 0.956194 2.091844 -0.000000 0.6667 0.6667 0.6667
v 1.193705 0.650000 -0.176336 0.7608 0.7608 0.7608
v 1.202705 1.849426 -0.167354 0.7686 0.7686 0.7686
v 1.211705 0.650000 -0.176336 0.8549 0.8549 0.8549
v 1.202705 0.650000 -0.185336 0.8509 0.8509 0.8509
v 1.202705 1.850574 -0.185317 0.8039 0.8039 0.8039
v 1.193740 1.849215 -0.176386 0.7764 0.7764 0.7764
v 1.086643 2.030000 -0.080887 0.9451 0.9451 0.9451
v 1.076691 2.023086 -0.084781 0.9215 0.9215 0.9215
v 1.211671 1.850785 -0.176285 0.8117 0.8117 0.8117
v 1.076062 2.030000 -0.095449 0.9411 0.9411 0.9411
v 0.956921 2.091844 0.002237 0.6667 0.6667 0.6667
v 0.963079 2.108156 -0.002237 0.7490 0.7490 0.7490
v 0.965290 2.100000 0.007281 0.6667 0.6667 0.6667
v 1.086014 2.036914 -0.091554 0.9686 0.9686 0.9686
v 0.954710 2.100000 -0.007281 0.6667 0.6667 0.6667
v 1.202705 0.650000 -0.167336 0.7568 0.7568 0.7568
v 1.052705 0.650000 -0.294317 0.8706 0.8706 0.8706
v 1.043710 1.849701 -0.285348 0.7843 0.7843 0.7843
v 1.052705 0.650000 -0.276317 0.7490 0.7490 0.7490
v 1.052705 1.849075 -0.276365 0.7843 0.7843 0.7843
v 1.061705 0.650000 -0.285317 0.8274 0.8274 0.8274
v 1.052705 1.850925 -0.294269 0.8980 0.8980 0.8980
v 1.061700 1.850299 -0.285286 0.7921 0.7921 0.7921
v 0.997793 2.030000 -0.145440 0.9411 0.9411 0.9411
v 1.008133 2.036914 -0.148138 0.9647 0.9647 0.9647
v 0.958824 2.091844 0.003620 0.6667 0.6667 0.6667
v 0.951441 2.100000 -0.002781 0.6667 0.6667 0.6667
v 1.004572 2.023086 -0.137179 0.9176 0.9176 0.9176
v 1.014912 2.030000 -0.139877 0.9294 0.9294 0.9294
v 0.961176 2.108156 -0.003620 0.7333 0.7333 0.7333
v 1.043705 0.650000 -0.285317 0.7921 0.7921 0.7921
v 0.867295 0.650000 -0.294317 0.8706 0.8706 0.8706
v 0.867295 1.850925 -0.294269 0.8157 0.8157 0.8157
v 0.858295 0.650000 -0.285317 0.8313 0.8313 0.8313
v 0.858300 1.850299 -0.285286 0.7921 0.7921 0.7921
v 0.867295 0.650000 -0.276317 0.7568 0.7568 0.7568
v 0.905088 2.030000 -0.139877 0.9411 0.9411 0.9411
v 0.867295 1.849075 -0.276365 0.7804 0.7804 0.7804
v 0.876290 1.849701 -0.285348 0.7804 0.7804 0.7804
v 0.915428 2.023086 -0.137179 0.9137 0.9137 0.9137
v 0.922207 2.030000 -0.145440 0.9255 0.9255 0.9255
v 0.961176 2.091844 0.003620 0.6667 0.6667 0.6667
v 0.911867 2.036914 -0.148138 0.9529 0.9529 0.9529
v 0.876295 0.650000 -0.285317 0.7843 0.7843 0.7843
v 0.958824 2.108156 -0.003620 0.7294 0.7294 0.7294
v 0.708295 0.650000 -0.176336 0.8627 0.8627 0.8627
v 0.717295 1.850574 -0.185317 0.8000 0.8000 0.8000
v 0.717295 1.849426 -0.167354 0.7686 0.7686 0.7686
v 0.717295 0.650000 -0.167336 0.7608 0.7608 0.7608
v 0.726295 0.650000 -0.176336 0.7568 0.7568 0.7568
v 0.833357 2.030000 -0.080887 0.9294 0.9294 0.9294
v 0.708329 1.850785 -0.176285 0.8117 0.8117 0.8117
v 0.843938 2.030000 -0.095449 0.9176 0.9176 0.9176
v 0.843309 2.023086 -0.084781 0.9176 0.9176 0.9176
v 0.833986 2.036914 -0.091554 0.9333 0.9333 0.9333
v 0.726260 1.849215 -0.176386 0.7804 0.7804 0.7804
v 0.965290 2.100000 -0.007281 0.6667 0.6667 0.6667
v 0.956921 2.108156 -0.002237 0.7490 0.7490 0.7490
v 0.954710 2.100000 0.007281 0.6667 0.6667 0.6667
v 0.717295 0.650000 -0.185336 0.8470 0.8470 0.8470
v 0.963079 2.091844 0.002237 0.6667 0.6667 0.6667
v 0.660000 0.650000 -0.009000 0.8117 0.8117 0.8117
v 0.660000 0.650000 0.009000 0.8078 0.8078 0.8078
v 0.651053 1.850973 -0.000000 0.8196 0.8196 0.8196
v 0.660000 1.850000 0.009000 0.7725 0.7725 0.7725
v 0.660000 1.850000 -0.009000 0.7804 0.7804 0.7804
v 0.668947 1.849028 -0.000000 0.7764 0.7764 0.7764
v 0.810000 2.030000 0.009000 0.9451 0.9451 0.9451
v 0.815762 2.023086 -0.000000 0.9019 0.9019 0.9019
v 0.963806 2.091844 0.000000 0.6667 0.6667 0.6667
v 0.810000 2.030000 -0.009000 0.9411 0.9411 0.9411
v 0.804238 2.036914 -0.000000 0.9411 0.9411 0.9411
v 0.669000 0.650000 -0.000000 0.7608 0.7608 0.7608
v 0.651000 0.650000 -0.000000 0.8706 0.8706 0.8706
v 0.956194 2.108156 -0.000000 0.7804 0.7804 0.7804
v 0.717295 1.850574 0.185317 0.8039 0.8039 0.8039
v 0.717295 0.650000 0.185336 0.8509 0.8509 0.8509
v 0.726295 0.650000 0.176336 0.7568 0.7568 0.7568
v 0.717295 1.849426 0.167354 0.7725 0.7725 0.7725
v 0.708329 1.850785 0.176285 0.8078 0.8078 0.8078
v 0.843309 2.023086 0.084781 0.9058 0.9058 0.9058
v 0.726260 1.849215 0.176386 0.7764 0.7764 0.7764
v 0.843938 2.030000 0.095449 0.9215 0.9215 0.9215
v 0.963079 2.091844 -0.002237 0.6667 0.6667 0.6667
v 0.833357 2.030000 0.080887 0.9411 0.9411 0.9411
v 0.833986 2.036914 0.091554 0.9411 0.9411 0.9411
v 0.956921 2.108156 0.002237 0.7372 0.7372 0.7372
v 0.708295 0.650000 0.176336 0.8588 0.8588 0.8588
v 0.717295 0.650000 0.167336 0.7608 0.7608 0.7608
v 0.858295 0.650000 0.285317 0.8353 0.8353 0.8353
v 0.876295 0.650000 0.285317 0.7882 0.7882 0.7882
v 0.876290 1.849701 0.285348 0.7882 0.7882 0.7882
v 0.867295 1.850925 0.294269 0.8196 0.8196 0.8196
v 0.858300 1.850299 0.285286 0.7882 0.7882 0.7882
v 0.905088 2.030000 0.139877 0.9490 0.9490 0.9490
v 0.867295 1.849075 0.276365 0.7804 0.7804 0.7804
v 0.922207 2.030000 0.145440 0.9137 0.9137 0.9137
v 0.961176 2.091844 -0.003620 0.6667 0.6667 0.6667
v 0.915428 2.023086 0.137179 0.9137 0.9137 0.9137
v 0.911867 2.036914 0.148138 0.9451 0.9451 0.9451
v 0.968560 2.100000 0.002781 0.6667 0.6667 0.6667
v 0.958824 2.108156 0.003620 0.7255 0.7255 0.7255
v 0.867295 0.650000 0.294317 0.8706 0.8706 0.8706
v 0.867295 0.650000 0.276317 0.7568 0.7568 0.7568
v 1.052705 0.650000 0.276317 0.7490 0.7490 0.7490
v 1.043705 0.650000 0.285317 0.7882 0.7882 0.7882
v 1.043710 1.849701 0.285348 0.7843 0.7843 0.7843
v 1.052705 1.849075 0.276365 0.7764 0.7764 0.7764
v 1.052705 1.850925 0.294269 0.9019 0.9019 0.9019
v 1.052705 0.650000 0.294317 0.8627 0.8627 0.8627
v 1.061705 0.650000 0.285317 0.8274 0.8274 0.8274
v 1.061700 1.850299 0.285286 0.7921 0.7921 0.7921
v 1.008133 2.036914 0.148138 0.9647 0.9647 0.9647
v 1.014912 2.030000 0.139877 0.9255 0.9255 0.9255
v 0.968560 2.100000 -0.002781 0.6667 0.6667 0.6667
v 1.004572 2.023086 0.137179 0.9137 0.9137 0.9137
v 0.997793 2.030000 0.145440 0.9490 0.9490 0.9490
v 0.958824 2.091844 -0.003620 0.6667 0.6667 0.6667
v 0.951441 2.100000 0.002781 0.6667 0.6667 0.6667
v 0.961176 2.108156 0.003620 0.7372 0.7372 0.7372
v 1.193705 0.650000 0.176336 0.7490 0.7490 0.7490
v 1.193740 1.849215 0.176386 0.7764 0.7764 0.7764
v 1.202705 1.849426 0.167354 0.7686 0.7686 0.7686
v 1.202705 0.650000 0.185336 0.8431 0.8431 0.8431
v 1.211671 1.850785 0.176285 0.8117 0.8117 0.8117
v 1.076691 2.023086 0.084781 0.9255 0.9255 0.9255
v 1.202705 1.850574 0.185317 0.8000 0.8000 0.8000
v 1.076062 2.030000 0.095449 0.9490 0.9490 0.9490
v 1.086014 2.036914 0.091554 0.9686 0.9686 0.9686
v 0.956921 2.091844 -0.002237 0.6667 0.6667 0.6667
v 0.963079 2.108156 0.002237 0.7451 0.7451 0.7451
v 1.086643 2.030000 0.080887 0.9372 0.9372 0.9372
v 1.211705 0.650000 0.176336 0.8666 0.8666 0.8666
v 1.202705 0.650000 0.167336 0.7568 0.7568 0.7568
v 1.272000 0.650000 0.000000 0.9843 0.9843 0.9843
v 1.260000 0.638000 0.000000 0.9647 0.9647 0.9647
v 1.260000 0.662000 -0.000000 0.6667 0.6667 0.6667
v 1.202705 0.662000 -0.176336 0.6667 0.6667 0.6667
v 1.192997 0.650000 -0.169282 0.7686 0.7686 0.7686
v 1.202705 0.638000 -0.176336 0.9647 0.9647 0.9647
v 1.048997 0.650000 -0.273904 0.7686 0.7686 0.7686
v 1.212413 0.650000 -0.183389 0.9843 0.9843 0.9843
v 1.052705 0.662000 -0.285317 0.6667 0.6667 0.6667
v 1.056413 0.650000 -0.296730 0.9843 0.9843 0.9843
v 0.871003 0.650000 -0.273904 0.7725 0.7725 0.7725
v 0.863587 0.650000 -0.296730 0.9882 0.9882 0.9882
v 0.867295 0.638000 -0.285317 0.9647 0.9647 0.9647
v 0.717295 0.662000 -0.176336 0.6667 0.6667 0.6667
v 0.727003 0.650000 -0.169282 0.7725 0.7725 0.7725
v 0.867295 0.662000 -0.285317 0.6667 0.6667 0.6667
v 0.707587 0.650000 -0.183389 0.9843 0.9843 0.9843
v 0.717295 0.638000 -0.176336 0.9686 0.9686 0.9686
v 0.660000 0.638000 -0.000000 0.9686 0.9686 0.9686
v 0.660000 0.662000 -0.000000 0.6667 0.6667 0.6667
v 0.672000 0.650000 -0.000000 0.7725 0.7725 0.7725
v 0.648000 0.650000 -0.000000 0.9843 0.9843 0.9843
v 0.707587 0.650000 0.183389 0.9804 0.9804 0.9804
v 0.863587 0.650000 0.296730 0.9882 0.9882 0.9882
v 0.727003 0.650000 0.169282 0.7686 0.7686 0.7686
v 0.717295 0.662000 0.176336 0.6667 0.6667 0.6667
v 1.048997 0.650000 0.273904 0.7568 0.7568 0.7568
v 0.871003 0.650000 0.273904 0.7686 0.7686 0.7686
v 0.867295 0.662000 0.285317 0.6667 0.6667 0.6667
v 1.056413 0.650000 0.296730 0.9882 0.9882 0.9882
v 1.052705 0.638000 0.285317 0.9686 0.9686 0.9686
v 1.212413 0.650000 0.183389 0.9843 0.9843 0.9843
v 1.202705 0.638000 0.176336 0.9686 0.9686 0.9686
v 1.052705 0.662000 0.285317 0.6667 0.6667 0.6667
v 1.192997 0.650000 0.169282 0.7568 0.7568 0.7568
v 1.248000 0.650000 -0.000000 0.7608 0.7608 0.7608
v 1.202705 0.662000 0.176336 0.6667 0.6667 0.6667
v 1.212413 1.100000 -0.183389 0.9686 0.9686 0.9686
v 1.260000 1.088000 0.000000 0.6667 0.6667 0.6667
v 1.192997 1.100000 -0.169282 0.9215 0.9215 0.9215
v 1.260000 1.112000 -0.000000 0.6667 0.6667 0.6667
v 1.202705 1.112000 -0.176336 0.6667 0.6667 0.6667
v 1.272000 1.100000 0.000000 0.9686 0.9686 0.9686
v 1.202705 1.088000 -0.176336 0.6667 0.6667 0.6667
v 1.056413 1.100000 -0.296730 0.9725 0.9725 0.9725
v 1.052705 1.088000 -0.285317 0.6667 0.6667 0.6667
v 1.048997 1.100000 -0.273904 0.9294 0.9294 0.9294
v 1.052705 1.112000 -0.285317 0.6667 0.6667 0.6667
v 0.871003 1.100000 -0.273904 0.9333 0.9333 0.9333
v 0.863587 1.100000 -0.296730 0.9764 0.9764 0.9764
v 0.867295 1.088000 -0.285317 0.6667 0.6667 0.6667
v 0.717295 1.088000 -0.176336 0.6667 0.6667 0.6667
v 0.867295 1.112000 -0.285317 0.6667 0.6667 0.6667
v 0.660000 1.088000 -0.000000 0.6667 0.6667 0.6667
v 0.727003 1.100000 -0.169282 0.9294 0.9294 0.9294
v 0.717295 1.112000 -0.176336 0.6667 0.6667 0.6667
v 0.707587 1.100000 -0.183389 0.9647 0.9647 0.9647
v 0.717295 1.088000 0.176336 0.6667 0.6667 0.6667
v 0.672000 1.100000 -0.000000 0.9294 0.9294 0.9294
v 0.717295 1.112000 0.176336 0.6667 0.6667 0.6667
v 0.660000 1.112000 -0.000000 0.6667 0.6667 0.6667
v 0.648000 1.100000 -0.000000 0.9725 0.9725 0.9725
v 0.707587 1.100000 0.183389 0.9686 0.9686 0.9686
v 0.871003 1.100000 0.273904 0.9255 0.9255 0.9255
v 0.727003 1.100000 0.169282 0.9294 0.9294 0.9294
v 0.863587 1.100000 0.296730 0.9725 0.9725 0.9725
v 0.867295 1.088000 0.285317 0.6667 0.6667 0.6667
v 1.048997 1.100000 0.273904 0.9215 0.9215 0.9215
v 0.867295 1.112000 0.285317 0.6667 0.6667 0.6667
v 1.056413 1.100000 0.296730 0.9764 0.9764 0.9764
v 1.212413 1.100000 0.183389 0.9686 0.9686 0.9686
v 1.052705 1.088000 0.285317 0.6667 0.6667 0.6667
v 1.052705 1.112000 0.285317 0.6667 0.6667 0.6667
v 1.202705 1.088000 0.176336 0.6667 0.6667 0.6667
v 1.248000 1.100000 -0.000000 0.9215 0.9215 0.9215
v 1.192997 1.100000 0.169282 0.9215 0.9215 0.9215
v 1.202705 1.112000 0.176336 0.6667 0.6667 0.6667
v 1.272000 1.550000 0.000000 0.9686 0.9686 0.9686
v 1.192997 1.550000 -0.169282 0.9333 0.9333 0.9333
v 1.202705 1.538000 -0.176336 0.6667 0.6667 0.6667
v 1.248000 1.550000 -0.000000 0.9411 0.9411 0.9411
v 1.202705 1.562000 -0.176336 0.6667 0.6667 0.6667
v 1.260000 1.562000 -0.000000 0.6667 0.6667 0.6667
v 1.052705 1.538000 -0.285317 0.6667 0.6667 0.6667
v 1.212413 1.550000 -0.183389 0.9686 0.9686 0.9686
v 1.056413 1.550000 -0.296730 0.9725 0.9725 0.9725
v 1.052705 1.562000 -0.285317 0.6667 0.6667 0.6667
v 1.048997 1.550000 -0.273904 0.9372 0.9372 0.9372
v 0.871003 1.550000 -0.273904 0.9490 0.9490 0.9490
v 0.867295 1.538000 -0.285317 0.6667 0.6667 0.6667
v 0.867295 1.562000 -0.285317 0.6667 0.6667 0.6667
v 0.717295 1.538000 -0.176336 0.6667 0.6667 0.6667
v 0.717295 1.562000 -0.176336 0.6667 0.6667 0.6667
v 0.863587 1.550000 -0.296730 0.9804 0.9804 0.9804
v 0.707587 1.550000 -0.183389 0.9647 0.9647 0.9647
v 0.660000 1.538000 -0.000000 0.6667 0.6667 0.6667
v 0.727003 1.550000 -0.169282 0.9411 0.9411 0.9411
v 0.672000 1.550000 -0.000000 0.9411 0.9411 0.9411
v 0.660000 1.562000 -0.000000 0.6667 0.6667 0.6667
v 0.648000 1.550000 -0.000000 0.9764 0.9764 0.9764
v 0.707587 1.550000 0.183389 0.9725 0.9725 0.9725
v 0.717295 1.562000 0.176336 0.6667 0.6667 0.6667
v 0.717295 1.538000 0.176336 0.6667 0.6667 0.6667
v 0.863587 1.550000 0.296730 0.9725 0.9725 0.9725
v 0.727003 1.550000 0.169282 0.9411 0.9411 0.9411
v 0.871003 1.550000 0.273904 0.9333 0.9333 0.9333
v 0.867295 1.538000 0.285317 0.6667 0.6667 0.6667
v 1.048997 1.550000 0.273904 0.9294 0.9294 0.9294
v 1.052705 1.538000 0.285317 0.6667 0.6667 0.6667
v 0.867295 1.562000 0.285317 0.6667 0.6667 0.6667
v 1.056413 1.550000 0.296730 0.9725 0.9725 0.9725
v 1.212413 1.550000 0.183389 0.9686 0.9686 0.9686
v 1.192997 1.550000 0.169282 0.9333 0.9333 0.9333
v 1.052705 1.562000 0.285317 0.6667 0.6667 0.6667
v 1.202705 1.562000 0.176336 0.6667 0.6667 0.6667
v 1.202705 1.538000 0.176336 0.6667 0.6667 0.6667
v 1.260000 1.538000 0.000000 0.6667 0.6667 0.6667
v 1.260000 1.838000 0.000000 0.6667 0.6667 0.6667
v 1.248000 1.850000 -0.000000 0.9058 0.9058 0.9058
v 1.192997 1.850000 -0.169282 0.8862 0.8862 0.8862
v 1.212413 1.850000 -0.183389 0.9843 0.9843 0.9843
v 1.202705 1.838000 -0.176336 0.6667 0.6667 0.6667
v 1.048997 1.850000 -0.273904 0.9019 0.9019 0.9019
v 1.202705 1.862000 -0.176336 0.9176 0.9176 0.9176
v 1.052705 1.862000 -0.285317 0.9098 0.9098 0.9098
v 1.056413 1.850000 -0.296730 0.9843 0.9843 0.9843
v 1.052705 1.838000 -0.285317 0.6667 0.6667 0.6667
v 0.867295 1.838000 -0.285317 0.6667 0.6667 0.6667
v 0.871003 1.850000 -0.273904 0.9058 0.9058 0.9058
v 0.863587 1.850000 -0.296730 0.9843 0.9843 0.9843
v 0.717295 1.838000 -0.176336 0.6667 0.6667 0.6667
v 0.867295 1.862000 -0.285317 0.9098 0.9098 0.9098
v 0.717295 1.862000 -0.176336 0.9176 0.9176 0.9176
v 0.648000 1.850000 -0.000000 0.9843 0.9843 0.9843
v 0.727003 1.850000 -0.169282 0.8980 0.8980 0.8980
v 0.660000 1.838000 -0.000000 0.6667 0.6667 0.6667
v 0.707587 1.850000 -0.183389 0.9843 0.9843 0.9843
v 0.672000 1.850000 -0.000000 0.9215 0.9215 0.9215
v 0.660000 1.862000 -0.000000 0.9176 0.9176 0.9176
v 0.717295 1.862000 0.176336 0.9255 0.9255 0.9255
v 0.707587 1.850000 0.183389 0.9843 0.9843 0.9843
v 0.717295 1.838000 0.176336 0.6667 0.6667 0.6667
v 0.727003 1.850000 0.169282 0.9058 0.9058 0.9058
v 0.867295 1.862000 0.285317 0.9255 0.9255 0.9255
v 0.863587 1.850000 0.296730 0.9843 0.9843 0.9843
v 0.867295 1.838000 0.285317 0.6667 0.6667 0.6667
v 0.871003 1.850000 0.273904 0.9058 0.9058 0.9058
v 1.052705 1.862000 0.285317 0.9176 0.9176 0.9176
v 1.056413 1.850000 0.296730 0.9882 0.9882 0.9882
v 1.052705 1.838000 0.285317 0.6667 0.6667 0.6667
v 1.202705 1.838000 0.176336 0.6667 0.6667 0.6667
v 1.048997 1.850000 0.273904 0.8980 0.8980 0.8980
v 1.202705 1.862000 0.176336 0.9137 0.9137 0.9137
v 1.272000 1.850000 0.000000 0.9882 0.9882 0.9882
v 1.192997 1.850000 0.169282 0.8941 0.8941 0.8941
v 1.260000 1.862000 -0.000000 0.9058 0.9058 0.9058
v 1.212413 1.850000 0.183389 0.9843 0.9843 0.9843
v 1.202705 0.650000 -0.176336 0.6667 0.6667 0.6667
v 1.052705 0.638000 -0.285317 0.9647 0.9647 0.9647
v 0.660000 0.650000 -0.000000 0.6667 0.6667 0.6667
v 0.717295 0.650000 -0.176336 0.6667 0.6667 0.6667
v 0.717295 0.638000 0.176336 0.9686 0.9686 0.9686
v 0.867295 0.650000 0.285317 0.6667 0.6667 0.6667
v 0.717295 0.650000 0.176336 0.6667 0.6667 0.6667
v 0.867295 0.638000 0.285317 0.9686 0.9686 0.9686
v 1.202705 0.650000 0.176336 0.6667 0.6667 0.6667
v 1.260000 0.650000 0.000000 0.6667 0.6667 0.6667
v 1.052705 0.650000 -0.285317 0.6667 0.6667 0.6667
v 0.867295 0.650000 -0.285317 0.6667 0.6667 0.6667
v 1.052705 0.650000 0.285317 0.6667 0.6667 0.6667
v 1.012522 0.678000 -0.016343 0.6941 0.6941 0.6941
v 1.047301 0.678000 0.014608 0.7059 0.7059 0.7059
v 1.004000 0.670000 0.039608 0.6667 0.6667 0.6667
v 0.972750 0.678000 -0.014519 0.6824 0.6824 0.6824
v 0.960699 0.678000 0.064608 0.7020 0.7020 0.7020
v 0.995478 0.678000 0.095559 0.6863 0.6863 0.6863
v 1.062890 0.705000 0.005608 0.8078 0.8078 0.8078
v 1.015589 0.705000 -0.036486 0.7882 0.7882 0.7882
v 0.951284 0.678000 0.019012 0.6824 0.6824 0.6824
v 0.992411 0.705000 0.115701 0.7490 0.7490 0.7490
v 0.945110 0.705000 0.073608 0.7960 0.7960 0.7960
v 1.035250 0.678000 0.093734 0.6667 0.6667 0.6667
v 1.046500 0.705000 0.113220 0.6667 0.6667 0.6667
v 1.056716 0.678000 0.060203 0.6902 0.6902 0.6902
v 1.016612 0.740000 -0.043200 0.8745 0.8745 0.8745
v 0.961500 0.705000 -0.034004 0.7882 0.7882 0.7882
v 0.932307 0.705000 0.011598 0.7804 0.7804 0.7804
v 0.991388 0.740000 0.122415 0.8039 0.8039 0.8039
v 0.939914 0.740000 0.076608 0.8627 0.8627 0.8627
v 1.075693 0.705000 0.067618 0.7529 0.7529 0.7529
v 1.068086 0.740000 0.002608 0.8745 0.8745 0.8745
v 0.957750 0.740000 -0.040500 0.8666 0.8666 0.8666
v 0.925981 0.740000 0.009126 0.8588 0.8588 0.8588
v 0.934415 0.775000 0.012421 0.9411 0.9411 0.9411
v 0.962750 0.775000 -0.031839 0.9333 0.9333 0.9333
v 1.050250 0.740000 0.119715 0.6667 0.6667 0.6667
v 1.045250 0.775000 0.111055 0.9411 0.9411 0.9411
v 1.082019 0.740000 0.070089 0.8039 0.8039 0.8039
v 1.015248 0.775000 -0.034248 0.9294 0.9294 0.9294
v 0.975875 0.798000 -0.009106 0.9529 0.9529 0.9529
v 0.946842 0.775000 0.072608 0.9255 0.9255 0.9255
v 0.996331 0.798000 0.089964 0.9607 0.9607 0.9607
v 0.992752 0.775000 0.113463 0.9372 0.9372 0.9372
v 1.073585 0.775000 0.066794 0.9294 0.9294 0.9294
v 1.061158 0.775000 0.006608 0.9294 0.9294 0.9294
v 1.051444 0.798000 0.058144 0.9568 0.9568 0.9568
v 1.011669 0.798000 -0.010748 0.9607 0.9607 0.9607
v 0.956556 0.798000 0.021072 0.9568 0.9568 0.9568
v 0.965029 0.798000 0.062108 0.9529 0.9529 0.9529
v 1.004000 0.806000 0.039608 0.9607 0.9607 0.9607
v 1.032125 0.798000 0.088322 0.9686 0.9686 0.9686
v 1.042971 0.798000 0.017108 0.9529 0.9529 0.9529
v 1.102631 0.670000 0.100442 0.7647 0.7647 0.7647
v 1.004987 0.760000 0.156817 0.9058 0.9058 0.9058
v 1.087631 0.670000 0.074462 0.7372 0.7372 0.7372
v 0.992369 0.670000 0.129462 0.7294 0.7294 0.7294
v 1.007369 0.670000 0.155442 0.7647 0.7647 0.7647
v 1.090013 0.760000 0.073087 0.8784 0.8784 0.8784
v 1.105013 0.760000 0.099067 0.9176 0.9176 0.9176
v 0.989987 0.760000 0.130837 0.8627 0.8627 0.8627
v 1.090605 0.677500 0.101612 0.6667 0.6667 0.6667
v 1.062141 0.642500 0.060311 0.6667 0.6667 0.6667
v 1.065605 0.677500 0.058311 0.7529 0.7529 0.7529
v 1.014395 0.677500 0.145612 0.6667 0.6667 0.6667
v 0.989395 0.677500 0.102311 0.7529 0.7529 0.7529
v 0.992859 0.642500 0.100311 0.6667 0.6667 0.6667
v 1.087141 0.642500 0.103612 0.6667 0.6667 0.6667
v 1.017859 0.642500 0.143612 0.6667 0.6667 0.6667
v 0.946699 0.670000 0.040359 0.7568 0.7568 0.7568
v 0.946699 0.650000 0.040359 0.7137 0.7137 0.7137
v 1.033301 0.670000 -0.009641 0.7882 0.7882 0.7882
v 0.986699 0.670000 0.109641 0.7686 0.7686 0.7686
v 1.073301 0.670000 0.059641 0.7764 0.7764 0.7764
v 1.033301 0.650000 -0.009641 0.7412 0.7412 0.7412
v 1.073301 0.650000 0.059641 0.7372 0.7372 0.7372
v 0.986699 0.650000 0.109641 0.7294 0.7294 0.7294
v 0.806628 0.662947 -0.059104 0.7098 0.7098 0.7098
v 1.076628 0.662947 -0.159104 0.7020 0.7020 0.7020
v 1.081288 0.658587 -0.146523 0.6745 0.6745 0.6745
v 1.076628 0.677053 -0.159104 0.8039 0.8039 0.8039
v 0.806628 0.677053 -0.059104 0.8157 0.8157 0.8157
v 0.811288 0.681413 -0.046523 0.7333 0.7333 0.7333
v 1.081288 0.681413 -0.146523 0.7333 0.7333 0.7333
v 0.811288 0.658587 -0.046523 0.6745 0.6745 0.6745
v 0.814168 0.670000 -0.038747 0.6667 0.6667 0.6667
v 1.084168 0.670000 -0.138747 0.6667 0.6667 0.6667
v 0.794467 0.670000 -0.038715 0.8117 0.8117 0.8117
v 0.810000 0.652000 -0.050000 0.6980 0.6980 0.6980
v 0.829200 0.670000 -0.050000 0.6667 0.6667 0.6667
v 0.815933 0.670000 -0.068260 0.8078 0.8078 0.8078
v 0.794467 0.670000 -0.061285 0.8235 0.8235 0.8235
v 0.815933 0.670000 -0.031740 0.7960 0.7960 0.7960
v 0.810000 0.688000 -0.050000 0.9058 0.9058 0.9058
v 1.080000 0.652000 -0.150000 0.7020 0.7020 0.7020
v 1.099200 0.670000 -0.150000 0.8196 0.8196 0.8196
v 1.080000 0.688000 -0.150000 0.9058 0.9058 0.9058
v 1.085933 0.670000 -0.168260 0.8157 0.8157 0.8157
v 1.064467 0.670000 -0.161285 0.8000 0.8000 0.8000
v 1.064467 0.670000 -0.138715 0.6667 0.6667 0.6667
v 1.085933 0.670000 -0.131740 0.7882 0.7882 0.7882
v 0.863274 0.659547 0.151013 0.6824 0.6824 0.6824
v 1.013273 0.674547 -0.178987 0.6824 0.6824 0.6824
v 0.852009 0.663540 0.146074 0.7020 0.7020 0.7020
v 0.851788 0.676460 0.146561 0.8039 0.8039 0.8039
v 0.862916 0.680453 0.151800 0.7216 0.7216 0.7216
v 1.001788 0.691460 -0.183439 0.8235 0.8235 0.8235
v 1.012915 0.695453 -0.178200 0.7451 0.7451 0.7451
v 0.870014 0.670000 0.154552 0.6667 0.6667 0.6667
v 1.020014 0.685000 -0.175448 0.6667 0.6667 0.6667
v 1.002009 0.678540 -0.183926 0.7176 0.7176 0.7176
v 0.865439 0.670000 0.133261 0.6667 0.6667 0.6667
v 0.860000 0.653500 0.150000 0.6980 0.6980 0.6980
v 0.877600 0.670000 0.150000 0.7686 0.7686 0.7686
v 0.845761 0.670000 0.139655 0.8078 0.8078 0.8078
v 0.845761 0.670000 0.160345 0.8157 0.8157 0.8157
v 0.860000 0.686500 0.150000 0.9019 0.9019 0.9019
v 0.865439 0.670000 0.166739 0.8117 0.8117 0.8117
v 1.010000 0.668500 -0.180000 0.7098 0.7098 0.7098
v 1.027600 0.685000 -0.180000 0.8157 0.8157 0.8157
v 1.015439 0.685000 -0.196739 0.8392 0.8392 0.8392
v 0.995761 0.685000 -0.190345 0.8353 0.8353 0.8353
v 1.010000 0.701500 -0.180000 0.9215 0.9215 0.9215
v 0.995761 0.685000 -0.169655 0.7412 0.7412 0.7412
v 1.015439 0.685000 -0.163261 0.7882 0.7882 0.7882
vn -0.9469 0.3216 -0.0000
vn -0.8943 0.1991 -0.4008
vn -0.8789 0.1293 -0.4591
vn -0.0000 -0.7137 0.7005
vn -0.0000 -0.3870 0.9221
vn 0.9469 0.3216 -0.0000
vn 0.8789 0.1293 -0.4591
vn 0.8943 0.1991 -0.4008
vn -0.8943 -0.1991 -0.4008
vn -0.8789 -0.1293 -0.4591
vn -0.0000 0.3870 0.9221
vn 0.8789 -0.1293 -0.4591
vn 0.8943 -0.1991 -0.4008
vn -0.9469 -0.3216 -0.0000
vn -0.0000 0.7137 0.7005
vn 0.9469 -0.3216 -0.0000
vn -0.8943 -0.1991 0.4008
vn -0.8789 -0.1293 0.4591
vn -0.0000 0.7137 -0.7005
vn -0.0000 0.3870 -0.9221
vn 0.8789 -0.1293 0.4591
vn 0.8943 -0.1991 0.4008
vn -0.8943 0.1991 0.4008
vn -0.8789 0.1293 0.4591
vn -0.0000 -0.3870 -0.9221
vn 0.8789 0.1293 0.4591
vn 0.8943 0.1991 0.4008
vn -0.0000 -0.7137 -0.7005
vn -0.0000 0.3216 -0.9469
vn 0.4008 0.1991 -0.8943
vn 0.4591 0.1293 -0.8789
vn -0.7005 -0.7137 -0.0000
vn -0.9221 -0.3870 -0.0000
vn -0.0000 0.3216 0.9469
vn 0.4591 0.1293 0.8789
vn 0.4008 0.1991 0.8943
vn 0.4008 -0.1991 -0.8943
vn 0.4591 -0.1293 -0.8789
vn -0.9221 0.3870 -0.0000
vn 0.4591 -0.1293 0.8789
vn 0.4008 -0.1991 0.8943
vn -0.0000 -0.3216 -0.9469
vn -0.7005 0.7137 -0.0000
vn -0.0000 -0.3216 0.9469
vn -0.4008 -0.1991 -0.8943
vn -0.4591 -0.1293 -0.8789
vn 0.7005 0.7137 -0.0000
vn 0.9221 0.3870 -0.0000
vn -0.4591 -0.1293 0.8789
vn -0.4008 -0.1991 0.8943
vn -0.4008 0.1991 -0.8943
vn -0.4591 0.1293 -0.8789
vn 0.9221 -0.3870 -0.0000
vn -0.4591 0.1293 0.8789
vn -0.4008 0.1991 0.8943
vn 0.7005 -0.7137 -0.0000
vn -0.7081 -0.0000 -0.7061
vn -0.6517 -0.2678 -0.7096
vn -0.6670 -0.2154 -0.7132
vn -0.7081 -0.0000 0.7061
vn -0.6670 -0.2154 0.7132
vn -0.6517 -0.2678 0.7096
vn 0.7081 -0.0000 0.7061
vn 0.6677 0.2141 0.7130
vn 0.6528 0.2654 0.7095
vn 0.7081 -0.0000 -0.7061
vn 0.6528 0.2654 -0.7095
vn 0.6677 0.2141 -0.7130
vn -0.4375 -0.5698 -0.6957
vn -0.4423 -0.5666 -0.6952
vn -0.4423 -0.5666 0.6952
vn -0.4375 -0.5698 0.6957
vn 0.4440 0.5648 0.6956
vn 0.4396 0.5676 0.6961
vn 0.4396 0.5676 -0.6961
vn 0.4440 0.5648 -0.6956
vn -0.3009 -0.6464 -0.7011
vn -0.3009 -0.6464 0.7011
vn 0.3021 0.6458 0.7012
vn 0.3021 0.6458 -0.7012
vn -0.0000 -1.0000 -0.0000
vn -0.9062 0.4229 -0.0000
vn -0.7064 -0.0000 -0.7078
vn -0.7849 -0.1821 -0.5922
vn -0.7660 -0.1291 -0.6297
vn -0.7084 -0.0000 0.7058
vn -0.5437 -0.3034 0.7825
vn -0.5363 -0.3139 0.7835
vn 0.7064 -0.0000 0.7078
vn 0.7673 0.1310 0.6278
vn 0.7850 0.1798 0.5929
vn 0.7084 -0.0000 -0.7058
vn 0.5356 0.3136 -0.7841
vn 0.5471 0.2972 -0.7825
vn -0.7481 -0.4943 -0.4428
vn -0.7518 -0.4867 -0.4448
vn -0.0708 -0.6300 0.7734
vn -0.0645 -0.6309 0.7732
vn 0.7519 0.4875 0.4439
vn 0.7500 0.4914 0.4428
vn 0.0650 0.6285 -0.7751
vn 0.0753 0.6269 -0.7755
vn -0.6556 -0.6464 -0.3903
vn 0.1686 -0.6464 0.7441
vn 0.6565 0.6458 0.3897
vn -0.1678 0.6458 -0.7449
vn -0.7331 0.4229 0.5326
vn -0.7057 -0.0000 -0.7086
vn -0.8987 -0.0645 -0.4338
vn -0.8555 -0.0472 -0.5156
vn -0.7069 -0.0000 0.7073
vn 0.7057 -0.0000 0.7086
vn 0.8588 0.0484 0.5100
vn 0.8973 0.0637 0.4368
vn 0.7069 -0.0000 -0.7073
vn -0.9118 -0.4071 -0.0535
vn -0.9175 -0.3931 -0.0599
vn -0.0461 -0.6317 0.7738
vn 0.2789 -0.6791 0.6790
vn 0.2850 -0.6792 0.6763
vn 0.9158 0.3975 0.0571
vn 0.9138 0.4024 0.0548
vn 0.0503 0.6245 -0.7794
vn -0.2874 0.6759 -0.6786
vn -0.2714 0.6754 -0.6857
vn -0.7598 -0.6464 0.0696
vn 0.5738 -0.6464 0.5029
vn 0.7603 0.6458 -0.0706
vn -0.5736 0.6458 -0.5040
vn -0.2800 0.4229 0.8618
vn -0.7069 -0.0000 -0.7073
vn -0.7057 -0.0000 0.7086
vn 0.7069 -0.0000 0.7073
vn 0.7057 -0.0000 -0.7086
vn -0.9775 0.1074 0.1818
vn 0.2019 -0.6452 0.7368
vn 0.9774 -0.1077 -0.1820
vn -0.1976 0.6345 -0.7473
vn -0.5738 -0.6464 0.5029
vn 0.7598 -0.6464 0.0696
vn 0.5736 0.6458 -0.5040
vn -0.7602 0.6458 -0.0706
vn 0.2800 0.4229 0.8618
vn -0.7084 -0.0000 -0.7058
vn -0.7064 -0.0000 0.7078
vn 0.7084 -0.0000 0.7058
vn 0.7064 -0.0000 -0.7078
vn -0.8041 0.2826 0.5230
vn 0.4776 -0.6352 0.6070
vn 0.8008 -0.2856 -0.5264
vn -0.4701 0.6136 -0.6344
vn -0.1686 -0.6464 0.7441
vn 0.6556 -0.6464 -0.3903
vn 0.1678 0.6458 -0.7449
vn -0.6565 0.6458 0.3898
vn 0.7331 0.4229 0.5326
vn -0.1625 0.0871 0.9829
vn -0.1411 0.0757 0.9871
vn -0.2311 0.3100 0.9222
vn -0.1411 0.0757 -0.9871
vn -0.1625 0.0871 -0.9829
vn -0.2311 0.3100 -0.9222
vn -0.1991 0.1068 -0.9741
vn -0.2632 0.3950 -0.8802
vn -0.1991 0.1068 0.9741
vn -0.2632 0.3950 0.8802
vn 0.3009 -0.6464 0.7011
vn 0.3009 -0.6464 -0.7011
vn -0.3021 0.6458 -0.7012
vn -0.3021 0.6458 0.7012
vn 0.9062 0.4229 -0.0000
vn 0.4776 -0.6352 -0.6070
vn -0.8041 0.2826 -0.5230
vn -0.4701 0.6136 0.6344
vn 0.8008 -0.2856 0.5264
vn 0.6556 -0.6464 0.3903
vn -0.1686 -0.6464 -0.7441
vn -0.6565 0.6458 -0.3898
vn 0.1678 0.6458 0.7449
vn 0.7331 0.4229 -0.5326
vn 0.2019 -0.6452 -0.7368
vn -0.9775 0.1074 -0.1818
vn -0.1976 0.6345 0.7473
vn 0.9774 -0.1077 0.1820
vn 0.7598 -0.6464 -0.0696
vn -0.5738 -0.6464 -0.5029
vn -0.7602 0.6458 0.0706
vn 0.5736 0.6458 0.5040
vn 0.2800 0.4229 -0.8618
vn -0.8555 -0.0472 0.5156
vn -0.8987 -0.0645 0.4338
vn 0.8973 0.0637 -0.4368
vn 0.8588 0.0484 -0.5100
vn -0.0461 -0.6317 -0.7738
vn 0.2850 -0.6792 -0.6763
vn 0.2789 -0.6791 -0.6790
vn -0.9175 -0.3931 0.0599
vn -0.9118 -0.4071 0.0535
vn 0.0503 0.6245 0.7794
vn -0.2714 0.6754 0.6857
vn -0.2874 0.6759 0.6786
vn 0.9138 0.4024 -0.0548
vn 0.9158 0.3975 -0.0571
vn 0.5738 -0.6464 -0.5029
vn -0.7598 -0.6464 -0.0696
vn -0.5736 0.6458 0.5040
vn 0.7603 0.6458 0.0706
vn -0.2800 0.4229 -0.8618
vn -0.5363 -0.3139 -0.7835
vn -0.5437 -0.3034 -0.7825
vn -0.7660 -0.1291 0.6297
vn -0.7849 -0.1821 0.5922
vn 0.5471 0.2972 0.7825
vn 0.5356 0.3136 0.7841
vn 0.7850 0.1798 -0.5929
vn 0.7673 0.1310 -0.6278
vn -0.0645 -0.6309 -0.7732
vn -0.0708 -0.6300 -0.7734
vn -0.7518 -0.4867 0.4448
vn -0.7481 -0.4943 0.4428
vn 0.0753 0.6269 0.7755
vn 0.0650 0.6285 0.7751
vn 0.7500 0.4914 -0.4428
vn 0.7519 0.4875 -0.4439
vn 0.1686 -0.6464 -0.7441
vn -0.6556 -0.6464 0.3903
vn -0.1678 0.6458 0.7449
vn 0.6565 0.6458 -0.3897
vn -0.7331 0.4229 -0.5326
vn 0.7071 -0.7071 -0.0000
vn 0.5721 -0.7071 -0.4156
vn -0.7071 -0.7071 -0.0000
vn -0.5721 -0.7071 0.4156
vn -0.7071 0.7071 -0.0000
vn -0.5721 0.7071 0.4156
vn 0.7071 0.7071 -0.0000
vn 0.5721 0.7071 -0.4156
vn 0.2185 -0.7071 -0.6725
vn -0.2185 -0.7071 0.6725
vn -0.2185 0.7071 0.6725
vn 0.2185 0.7071 -0.6725
vn -0.2185 -0.7071 -0.6725
vn 0.2185 -0.7071 0.6725
vn 0.2185 0.7071 0.6725
vn -0.2185 0.7071 -0.6725
vn -0.5721 -0.7071 -0.4156
vn 0.5721 -0.7071 0.4156
vn 0.5721 0.7071 0.4156
vn -0.5721 0.7071 -0.4156
vn 1.0000 -0.0000 -0.0000
vn 0.8090 -0.0000 -0.5878
vn 0.3090 -0.0000 -0.9511
vn -0.3090 -0.0000 -0.9511
vn -0.8090 -0.0000 -0.5878
vn -1.0000 -0.0000 -0.0000
vn -0.8090 -0.0000 0.5878
vn -0.3090 -0.0000 0.9511
vn 0.3090 -0.0000 0.9511
vn 0.8090 -0.0000 0.5878
vn -0.0000 1.0000 -0.0000
vn 0.2074 -0.8170 -0.5380
vn 0.5135 -0.8053 -0.2965
vn -0.2784 -0.8306 -0.4822
vn -0.5696 -0.8170 -0.0894
vn -0.5135 -0.8053 0.2965
vn -0.2074 -0.8170 0.5380
vn 0.2784 -0.8306 0.4822
vn 0.5696 -0.8170 0.0894
vn 0.3053 -0.3836 -0.8716
vn 0.8092 -0.3563 -0.4672
vn -0.4556 -0.4120 -0.7891
vn -0.9075 -0.3836 -0.1713
vn -0.8092 -0.3563 0.4672
vn -0.3053 -0.3836 0.8716
vn 0.4556 -0.4120 0.7891
vn 0.9075 -0.3836 0.1713
vn 0.3253 0.0289 -0.9452
vn 0.8657 0.0264 -0.4998
vn -0.0458 0.0279 -0.9986
vn -0.9812 0.0289 -0.1909
vn -0.8419 0.0279 -0.5389
vn -0.8657 0.0264 0.4998
vn -0.3253 0.0289 0.9452
vn 0.0458 0.0279 0.9986
vn 0.9812 0.0289 0.1909
vn 0.8419 0.0279 0.5389
vn 0.2931 0.4722 -0.8313
vn 0.7760 0.4440 -0.4480
vn -0.4328 0.5006 -0.7497
vn -0.8665 0.4722 -0.1619
vn -0.7760 0.4440 0.4480
vn -0.2931 0.4722 0.8313
vn 0.4328 0.5006 0.7497
vn 0.8665 0.4722 0.1619
vn 0.1860 0.8609 -0.4735
vn 0.4585 0.8484 -0.2647
vn -0.2416 0.8755 -0.4184
vn -0.5030 0.8609 -0.0757
vn -0.4585 0.8484 0.2647
vn -0.1860 0.8609 0.4735
vn 0.2416 0.8755 0.4184
vn 0.5030 0.8609 0.0757
vn 0.5000 -0.0000 0.8660
vn -0.5000 -0.0000 -0.8660
vn -0.8656 -0.0305 0.4998
vn 0.8656 -0.0305 -0.4998
vn -0.8604 -0.1135 0.4968
vn 0.8604 -0.1135 -0.4968
vn -0.8660 -0.0000 0.5000
vn 0.8660 -0.0000 -0.5000
vn 0.2810 -0.5878 0.7587
vn -0.1073 -0.9511 -0.2898
vn -0.3473 -0.0000 -0.9377
vn -0.1073 0.9511 -0.2898
vn 0.2810 0.5878 0.7587
vn -0.9377 -0.0000 0.3473
vn 0.9377 -0.0000 -0.3473
vn 0.6125 -0.6533 -0.4450
vn -0.2340 -0.6533 -0.7200
vn -0.7571 -0.6533 -0.0000
vn -0.2340 -0.6533 0.7200
vn 0.6125 -0.6533 0.4450
vn 0.6125 0.6533 -0.4450
vn -0.2340 0.6533 -0.7200
vn -0.7571 0.6533 -0.0000
vn -0.2339 0.6533 0.7200
vn 0.6125 0.6533 0.4450
vn 0.7466 -0.5873 0.3126
vn -0.2650 -0.9502 -0.1637
vn -0.9104 -0.0000 -0.4138
vn -0.2976 0.9502 -0.0921
vn 0.7264 0.5873 0.3569
vn -0.4134 -0.0413 0.9096
vn 0.4135 0.0413 -0.9096
vn -0.2339 0.6533 -0.7200
vn -0.2339 -0.6533 -0.7200
vn -0.2339 -0.6533 0.7200
vn -0.2340 0.6533 0.7200
vt 0.250977 0.875977
vt 0.271484 0.875977
vt 0.271484 0.916992
vt 0.250977 0.916992
vt 0.271484 0.958008
vt 0.250977 0.958008
vt 0.271484 0.999023
vt 0.250977 0.999023
vt 0.291992 0.875977
vt 0.291992 0.916992
vt 0.291992 0.958008
vt 0.291992 0.999023
vt 0.312500 0.875977
vt 0.312500 0.916992
vt 0.312500 0.958008
vt 0.312500 0.999023
vt 0.333008 0.875977
vt 0.333008 0.916992
vt 0.333008 0.958008
vt 0.333008 0.999023
vt 0.353516 0.875977
vt 0.353516 0.916992
vt 0.353516 0.958008
vt 0.353516 0.999023
vt 0.374023 0.875977
vt 0.374023 0.916992
vt 0.374023 0.958008
vt 0.374023 0.999023
vt 0.281738 0.875977
vt 0.281738 0.916992
vt 0.343262 0.875977
vt 0.343262 0.916992
vt 0.281738 0.958008
vt 0.343262 0.958008
vt 0.281738 0.999023
vt 0.343262 0.999023
vt 0.374023 0.937500
vt 0.250977 0.937500
vt 0.281738 0.888281
vt 0.250977 0.888281
vt 0.312500 0.888281
vt 0.343262 0.888281
vt 0.374023 0.888281
vt 0.281738 0.900586
vt 0.250977 0.900586
vt 0.312500 0.900586
vt 0.343262 0.900586
vt 0.374023 0.900586
vt 0.281738 0.912891
vt 0.250977 0.912891
vt 0.312500 0.912891
vt 0.343262 0.912891
vt 0.374023 0.912891
vt 0.281738 0.925195
vt 0.250977 0.925195
vt 0.312500 0.925195
vt 0.343262 0.925195
vt 0.374023 0.925195
vt 0.281738 0.937500
vt 0.312500 0.937500
vt 0.343262 0.937500
vt 0.281738 0.949805
vt 0.250977 0.949805
vt 0.312500 0.949805
vt 0.343262 0.949805
vt 0.374023 0.949805
vt 0.281738 0.962109
vt 0.250977 0.962109
vt 0.312500 0.962109
vt 0.343262 0.962109
vt 0.374023 0.962109
vt 0.281738 0.974414
vt 0.250977 0.974414
vt 0.312500 0.974414
vt 0.343262 0.974414
vt 0.374023 0.974414
vt 0.281738 0.986719
vt 0.250977 0.986719
vt 0.312500 0.986719
vt 0.343262 0.986719
vt 0.374023 0.986719
vt 0.263281 0.875977
vt 0.263281 0.999023
vt 0.275586 0.875977
vt 0.275586 0.999023
vt 0.287891 0.875977
vt 0.287891 0.999023
vt 0.300195 0.875977
vt 0.300195 0.999023
vt 0.324805 0.875977
vt 0.324805 0.999023
vt 0.337109 0.875977
vt 0.337109 0.999023
vt 0.349414 0.875977
vt 0.349414 0.999023
vt 0.361719 0.875977
vt 0.361719 0.999023
vt 0.362274 0.975524
vt 0.331512 0.999023
vt 0.293488 0.999023
vt 0.262726 0.975524
vt 0.262726 0.899476
vt 0.293488 0.875977
vt 0.331512 0.875977
vt 0.362274 0.899476
vt 0.754761 0.938477
vt 0.758545 0.951729
vt 0.750977 0.951729
vt 0.762329 0.938477
vt 0.766113 0.951729
vt 0.769897 0.938477
vt 0.773682 0.951729
vt 0.777466 0.938477
vt 0.781250 0.951729
vt 0.785034 0.938477
vt 0.788818 0.951729
vt 0.792603 0.938477
vt 0.796387 0.951729
vt 0.800171 0.938477
vt 0.803955 0.951729
vt 0.807739 0.938477
vt 0.811523 0.951729
vt 0.758545 0.960221
vt 0.750977 0.960221
vt 0.766113 0.960221
vt 0.773682 0.960221
vt 0.781250 0.960221
vt 0.788818 0.960221
vt 0.796387 0.960221
vt 0.803955 0.960221
vt 0.811523 0.960221
vt 0.758545 0.969515
vt 0.750977 0.969515
vt 0.766113 0.969515
vt 0.773682 0.969515
vt 0.781250 0.969515
vt 0.788818 0.969515
vt 0.796387 0.969515
vt 0.803955 0.969515
vt 0.811523 0.969515
vt 0.758545 0.978911
vt 0.750977 0.978911
vt 0.766113 0.978911
vt 0.773682 0.978911
vt 0.781250 0.978911
vt 0.788818 0.978911
vt 0.796387 0.978911
vt 0.803955 0.978911
vt 0.811523 0.978911
vt 0.758545 0.987062
vt 0.750977 0.987062
vt 0.766113 0.987062
vt 0.773682 0.987062
vt 0.781250 0.987062
vt 0.788818 0.987062
vt 0.796387 0.987062
vt 0.803955 0.987062
vt 0.811523 0.987062
vt 0.754761 0.999023
vt 0.762329 0.999023
vt 0.769897 0.999023
vt 0.777466 0.999023
vt 0.785034 0.999023
vt 0.792603 0.999023
vt 0.800171 0.999023
vt 0.807739 0.999023
vt 0.221168 0.641602
vt 0.278832 0.641602
vt 0.280273 0.686523
vt 0.219727 0.686523
vt 0.752309 0.938477
vt 0.805590 0.938477
vt 0.806922 0.982070
vt 0.750977 0.982070
vt 0.750977 0.938477
vt 0.765508 0.938477
vt 0.765508 0.982091
vt 0.750977 0.982091
vt 0.806922 0.938477
vt 0.806922 0.953008
vt 0.750977 0.953008
vt 0.804258 0.938477
vt 0.804258 0.953008
vt 0.659979 0.665039
vt 0.715021 0.665039
vt 0.717773 0.686523
vt 0.657227 0.686523
vt 0.752914 0.938477
vt 0.791664 0.938477
vt 0.793602 0.955430
vt 0.750977 0.955430
vt 0.775195 0.938477
vt 0.775195 0.955540
vt 0.750977 0.955540
vt 0.793602 0.938477
vt 0.793602 0.962695
vt 0.750977 0.962695
vt 0.789727 0.938477
vt 0.789727 0.962695
vt 0.799414 0.938477
vt 0.799414 0.948164
vt 0.750977 0.948164
vt 0.789727 0.948164
vt 0.799414 0.977227
vt 0.750977 0.977227
vt 0.763086 0.938477
vt 0.763086 0.999023
vt 0.750977 0.999023
vt 0.775195 0.999023
vt 0.787305 0.938477
vt 0.787305 0.999023
vt 0.799414 0.999023
vt 0.811523 0.938477
vt 0.811523 0.999023
vt 0.788397 0.999023
vt 0.750977 0.987460
vt 0.750977 0.950040
vt 0.788397 0.938477
vt 0.811523 0.968750
vt 0.750977 0.968750
vt 0.774103 0.938477
vt 0.811523 0.950040
vt 0.811523 0.987460
vt 0.774103 0.999023
vt 0.757031 0.938477
vt 0.763086 0.968750
vt 0.769141 0.938477
vt 0.775195 0.968750
vt 0.781250 0.938477
vt 0.787305 0.968750
vt 0.793359 0.938477
vt 0.799414 0.968750
vt 0.805469 0.938477
vt 0.757031 0.999023
vt 0.769141 0.999023
vt 0.781250 0.999023
vt 0.793359 0.999023
vt 0.805469 0.999023
s 1
usemtl props
f 90/59/34 75/60/35 76/61/36 73/62/34
f 73/62/37 76/61/38 74/63/38 89/64/37
f 89/64/39 74/63/40 75/65/41 90/66/39
f 75/60/35 79/67/42 77/68/43 76/61/36
f 76/61/38 77/68/44 78/69/44 74/63/38
f 74/63/40 78/69/45 79/70/46 75/65/41
f 79/67/42 80/71/47 81/72/47 77/68/43
f 77/68/44 81/72/48 83/73/48 78/69/44
f 78/69/45 83/73/49 80/74/49 79/70/46
f 80/71/47 84/75/50 82/76/51 81/72/47
f 81/72/52 82/76/53 85/77/53 83/73/52
f 83/73/49 85/77/54 84/78/55 80/74/49
f 84/75/50 86/79/56 87/80/57 82/76/51
f 82/76/53 87/80/58 88/81/58 85/77/53
f 85/77/54 88/81/59 86/82/60 84/78/55
f 86/79/56 90/83/34 73/84/34 87/80/57
f 87/80/58 73/84/61 89/85/61 88/81/58
f 88/81/59 89/85/39 90/86/39 86/82/60
f 92/59/62 91/60/63 94/61/64 106/62/62
f 106/62/65 94/61/66 95/63/66 107/64/65
f 107/64/67 95/63/68 91/65/69 92/66/67
f 91/60/63 100/67/70 93/68/71 94/61/64
f 94/61/66 93/68/72 98/69/72 95/63/66
f 95/63/68 98/69/73 100/70/74 91/65/69
f 100/67/70 99/71/75 96/72/75 93/68/71
f 93/68/72 96/72/76 97/73/76 98/69/72
f 98/69/73 97/73/77 99/74/77 100/70/74
f 99/71/75 102/75/78 103/76/79 96/72/75
f 96/72/80 103/76/81 101/77/81 97/73/80
f 97/73/77 101/77/82 102/78/83 99/74/77
f 102/75/78 108/79/84 104/80/85 103/76/79
f 103/76/81 104/80/86 105/81/86 101/77/81
f 101/77/82 105/81/87 108/82/88 102/78/83
f 108/79/84 92/83/62 106/84/62 104/80/85
f 104/80/86 106/84/89 107/85/89 105/81/86
f 105/81/87 107/85/67 92/86/67 108/82/88
f 110/59/34 111/60/35 113/61/36 124/62/34
f 124/62/37 113/61/38 109/63/38 126/64/37
f 126/64/39 109/63/40 111/65/41 110/66/39
f 111/60/35 112/67/42 114/68/43 113/61/36
f 113/61/38 114/68/44 115/69/44 109/63/38
f 109/63/40 115/69/45 112/70/46 111/65/41
f 112/67/42 120/71/47 117/72/47 114/68/43
f 114/68/44 117/72/48 119/73/48 115/69/44
f 115/69/45 119/73/49 120/74/49 112/70/46
f 120/71/47 121/75/50 116/76/51 117/72/47
f 117/72/52 116/76/53 118/77/53 119/73/52
f 119/73/49 118/77/54 121/78/55 120/74/49
f 121/75/50 123/79/56 125/80/57 116/76/51
f 116/76/53 125/80/58 122/81/58 118/77/53
f 118/77/54 122/81/59 123/82/60 121/78/55
f 123/79/56 110/83/34 124/84/34 125/80/57
f 125/80/58 124/84/61 126/85/61 122/81/58
f 122/81/59 126/85/39 110/86/39 123/82/60
f 139/59/62 129/60/63 127/61/64 140/62/62
f 140/62/65 127/61/66 128/63/66 142/64/65
f 142/64/67 128/63/68 129/65/69 139/66/67
f 129/60/63 132/67/70 130/68/71 127/61/64
f 127/61/66 130/68/72 131/69/72 128/63/66
f 128/63/68 131/69/73 132/70/74 129/65/69
f 132/67/70 133/71/75 136/72/75 130/68/71
f 130/68/72 136/72/76 137/73/76 131/69/72
f 131/69/73 137/73/77 133/74/77 132/70/74
f 133/71/75 134/75/78 135/76/79 136/72/75
f 136/72/80 135/76/81 138/77/81 137/73/80
f 137/73/77 138/77/82 134/78/83 133/74/77
f 134/75/78 144/79/84 141/80/85 135/76/79
f 135/76/81 141/80/86 143/81/86 138/77/81
f 138/77/82 143/81/87 144/82/88 134/78/83
f 144/79/84 139/83/62 140/84/62 141/80/85
f 141/80/86 140/84/89 142/85/89 143/81/86
f 143/81/87 142/85/67 139/86/67 144/82/88
f 148/59/34 147/60/35 150/61/36 145/62/34
f 145/62/37 150/61/38 152/63/38 146/64/37
f 146/64/39 152/63/40 147/65/41 148/66/39
f 147/60/35 153/67/42 149/68/43 150/61/36
f 150/61/38 149/68/44 151/69/44 152/63/38
f 152/63/40 151/69/45 153/70/46 147/65/41
f 153/67/42 154/71/47 155/72/47 149/68/43
f 149/68/44 155/72/48 156/73/48 151/69/44
f 151/69/45 156/73/49 154/74/49 153/70/46
f 154/71/47 158/75/50 157/76/51 155/72/47
f 155/72/52 157/76/53 161/77/53 156/73/52
f 156/73/49 161/77/54 158/78/55 154/74/49
f 158/75/50 162/79/56 159/80/57 157/76/51
f 157/76/53 159/80/58 160/81/58 161/77/53
f 161/77/54 160/81/59 162/82/60 158/78/55
f 162/79/56 148/83/34 145/84/34 159/80/57
f 159/80/58 145/84/61 146/85/61 160/81/58
f 160/81/59 146/85/39 148/86/39 162/82/60
f 180/59/62 163/60/63 164/61/64 165/62/62
f 165/62/65 164/61/66 169/63/66 166/64/65
f 166/64/67 169/63/68 163/65/69 180/66/67
f 163/60/63 173/67/70 167/68/71 164/61/64
f 164/61/66 167/68/72 168/69/72 169/63/66
f 169/63/68 168/69/73 173/70/74 163/65/69
f 173/67/70 170/71/75 171/72/75 167/68/71
f 167/68/72 171/72/76 172/73/76 168/69/72
f 168/69/73 172/73/77 170/74/77 173/70/74
f 170/71/75 175/75/78 174/76/79 171/72/75
f 171/72/80 174/76/81 178/77/81 172/73/80
f 172/73/77 178/77/82 175/78/83 170/74/77
f 175/75/78 176/79/84 179/80/85 174/76/79
f 174/76/81 179/80/86 177/81/86 178/77/81
f 178/77/82 177/81/87 176/82/88 175/78/83
f 176/79/84 180/83/62 165/84/62 179/80/85
f 179/80/86 165/84/89 166/85/89 177/81/86
f 177/81/87 166/85/67 180/86/67 176/82/88
f 181/59/34 183/60/35 184/61/36 182/62/34
f 182/62/37 184/61/38 185/63/38 197/64/37
f 197/64/39 185/63/40 183/65/41 181/66/39
f 183/60/35 190/67/42 187/68/43 184/61/36
f 184/61/38 187/68/44 186/69/44 185/63/38
f 185/63/40 186/69/45 190/70/46 183/65/41
f 190/67/42 189/71/47 188/72/47 187/68/43
f 187/68/44 188/72/48 192/73/48 186/69/44
f 186/69/45 192/73/49 189/74/49 190/70/46
f 189/71/47 193/75/50 195/76/51 188/72/47
f 188/72/52 195/76/53 191/77/53 192/73/52
f 192/73/49 191/77/54 193/78/55 189/74/49
f 193/75/50 194/79/56 196/80/57 195/76/51
f 195/76/53 196/80/58 198/81/58 191/77/53
f 191/77/54 198/81/59 194/82/60 193/78/55
f 194/79/56 181/83/34 182/84/34 196/80/57
f 196/80/58 182/84/61 197/85/61 198/81/58
f 198/81/59 197/85/39 181/86/39 194/82/60
f 199/59/62 201/60/63 200/61/64 213/62/62
f 213/62/65 200/61/66 203/63/66 215/64/65
f 215/64/67 203/63/68 201/65/69 199/66/67
f 201/60/63 204/67/70 206/68/71 200/61/64
f 200/61/66 206/68/72 202/69/72 203/63/66
f 203/63/68 202/69/73 204/70/74 201/65/69
f 204/67/70 211/71/75 205/72/75 206/68/71
f 206/68/72 205/72/76 208/73/76 202/69/72
f 202/69/73 208/73/77 211/74/77 204/70/74
f 211/71/75 210/75/78 207/76/79 205/72/75
f 205/72/80 207/76/81 209/77/81 208/73/80
f 208/73/77 209/77/82 210/78/83 211/74/77
f 210/75/78 212/79/84 214/80/85 207/76/79
f 207/76/81 214/80/86 216/81/86 209/77/81
f 209/77/82 216/81/87 212/82/88 210/78/83
f 212/79/84 199/83/62 213/84/62 214/80/85
f 214/80/86 213/84/89 215/85/89 216/81/86
f 216/81/87 215/85/67 199/86/67 212/82/88
f 233/59/34 219/60/35 221/61/36 217/62/34
f 217/62/37 221/61/38 218/63/38 234/64/37
f 234/64/39 218/63/40 219/65/41 233/66/39
f 219/60/35 220/67/42 222/68/43 221/61/36
f 221/61/38 222/68/44 223/69/44 218/63/38
f 218/63/40 223/69/45 220/70/46 219/65/41
f 220/67/42 227/71/47 226/72/47 222/68/43
f 222/68/44 226/72/48 224/73/48 223/69/44
f 223/69/45 224/73/49 227/74/49 220/70/46
f 227/71/47 231/75/50 225/76/51 226/72/47
f 226/72/52 225/76/53 230/77/53 224/73/52
f 224/73/49 230/77/54 231/78/55 227/74/49
f 231/75/50 232/79/56 228/80/57 225/76/51
f 225/76/53 228/80/58 229/81/58 230/77/53
f 230/77/54 229/81/59 232/82/60 231/78/55
f 232/79/56 233/83/34 217/84/34 228/80/57
f 228/80/58 217/84/61 234/85/61 229/81/58
f 229/81/59 234/85/39 233/86/39 232/82/60
f 249/59/62 235/60/63 238/61/64 250/62/62
f 250/62/65 238/61/66 240/63/66 251/64/65
f 251/64/67 240/63/68 235/65/69 249/66/67
f 235/60/63 236/67/70 237/68/71 238/61/64
f 238/61/66 237/68/72 239/69/72 240/63/66
f 240/63/68 239/69/73 236/70/74 235/65/69
f 236/67/70 242/71/75 241/72/75 237/68/71
f 237/68/72 241/72/76 244/73/76 239/69/72
f 239/69/73 244/73/77 242/74/77 236/70/74
f 242/71/75 248/75/78 243/76/79 241/72/75
f 241/72/80 243/76/81 247/77/81 244/73/80
f 244/73/77 247/77/82 248/78/83 242/74/77
f 248/75/78 252/79/84 245/80/85 243/76/79
f 243/76/81 245/80/86 246/81/86 247/77/81
f 247/77/82 246/81/87 252/82/88 248/78/83
f 252/79/84 249/83/62 250/84/62 245/80/85
f 245/80/86 250/84/89 251/85/89 246/81/86
f 246/81/87 251/85/67 249/86/67 252/82/88
f 269/59/34 254/60/35 256/61/36 253/62/34
f 253/62/37 256/61/38 258/63/38 268/64/37
f 268/64/39 258/63/40 254/65/41 269/66/39
f 254/60/35 259/67/42 255/68/43 256/61/36
f 256/61/38 255/68/44 257/69/44 258/63/38
f 258/63/40 257/69/45 259/70/46 254/65/41
f 259/67/42 261/71/47 260/72/47 255/68/43
f 255/68/44 260/72/48 262/73/48 257/69/44
f 257/69/45 262/73/49 261/74/49 259/70/46
f 261/71/47 263/75/50 264/76/51 260/72/47
f 260/72/52 264/76/53 265/77/53 262/73/52
f 262/73/49 265/77/54 263/78/55 261/74/49
f 263/75/50 270/79/56 267/80/57 264/76/51
f 264/76/53 267/80/58 266/81/58 265/77/53
f 265/77/54 266/81/59 270/82/60 263/78/55
f 270/79/56 269/83/34 253/84/34 267/80/57
f 267/80/58 253/84/61 268/85/61 266/81/58
f 266/81/59 268/85/39 269/86/39 270/82/60
f 271/59/90 273/87/90 278/88/91 272/62/92
f 273/87/93 274/71/93 276/72/94 278/88/95
f 274/71/96 277/89/96 275/90/97 276/72/98
f 277/89/99 271/83/99 272/84/100 275/90/101
f 272/62/92 278/88/91 279/91/102 280/64/103
f 278/88/95 276/72/94 281/73/104 279/91/105
f 276/72/98 275/90/97 284/92/106 281/73/107
f 275/90/101 272/84/100 280/85/108 284/92/109
f 280/64/103 279/91/102 286/93/110 285/66/110
f 279/91/105 281/73/104 282/74/111 286/93/111
f 281/73/107 284/92/106 283/94/112 282/74/112
f 284/92/109 280/85/108 285/86/113 283/94/113
s 0
f 277/95/114 274/74/114 273/96/114 271/71/114
f 285/96/115 286/71/115 282/95/115 283/74/115
s 1
f 290/59/116 287/87/116 292/88/117 291/62/118
f 287/87/119 302/71/119 288/72/120 292/88/121
f 302/71/122 289/89/122 295/90/123 288/72/124
f 289/89/125 290/83/125 291/84/126 295/90/127
f 291/62/118 292/88/117 294/91/128 296/64/129
f 292/88/121 288/72/120 293/73/130 294/91/131
f 288/72/124 295/90/123 300/92/132 293/73/133
f 295/90/127 291/84/126 296/85/134 300/92/135
f 296/64/129 294/91/128 297/93/136 301/66/136
f 294/91/131 293/73/130 299/74/137 297/93/137
f 293/73/133 300/92/132 298/94/138 299/74/138
f 300/92/135 296/85/134 301/86/139 298/94/139
s 0
f 289/95/114 302/74/114 287/96/114 290/71/114
f 301/96/140 297/71/140 299/95/140 298/74/140
s 1
f 303/59/141 317/87/141 304/88/142 308/62/143
f 317/87/144 305/71/144 306/72/144 304/88/144
f 305/71/145 307/89/145 309/90/146 306/72/147
f 307/89/148 303/83/148 308/84/148 309/90/148
f 308/62/143 304/88/142 314/91/149 310/64/150
f 304/88/151 306/72/151 315/73/152 314/91/153
f 306/72/147 309/90/146 311/92/154 315/73/155
f 309/90/156 308/84/156 310/85/157 311/92/158
f 310/64/150 314/91/149 312/93/159 313/66/159
f 314/91/153 315/73/152 387/74/160 312/93/160
f 315/73/155 311/92/154 316/94/161 387/74/161
f 311/92/158 310/85/157 313/86/162 316/94/162
s 0
f 307/95/114 305/74/114 317/96/114 303/71/114
f 313/96/163 312/71/163 387/95/163 316/74/163
s 1
f 318/59/164 320/87/164 321/88/164 319/62/164
f 320/87/165 322/71/165 324/72/165 321/88/165
f 322/71/166 330/89/166 325/90/166 324/72/166
f 330/89/167 318/83/167 319/84/167 325/90/167
f 319/62/168 321/88/168 326/91/168 323/64/168
f 321/88/169 324/72/169 327/73/169 326/91/169
f 324/72/170 325/90/170 329/92/170 327/73/170
f 325/90/171 319/84/171 323/85/171 329/92/171
f 323/64/172 326/91/172 328/93/172 405/66/172
f 326/91/173 327/73/173 401/74/173 328/93/173
f 327/73/174 329/92/174 331/94/174 401/74/174
f 329/92/175 323/85/175 405/86/175 331/94/175
s 0
f 330/95/114 322/74/114 320/96/114 318/71/114
f 405/96/176 328/71/176 401/95/176 331/74/176
s 1
f 346/59/177 332/87/177 338/88/177 333/62/177
f 332/87/178 335/71/178 334/72/178 338/88/178
f 335/71/179 336/89/179 342/90/179 334/72/179
f 336/89/180 346/83/180 333/84/180 342/90/180
f 333/62/181 338/88/181 340/91/181 337/64/181
f 338/88/182 334/72/182 339/73/182 340/91/182
f 334/72/183 342/90/183 341/92/183 339/73/183
f 342/90/184 333/84/184 337/85/184 341/92/184
f 337/64/185 340/91/185 347/93/185 345/66/185
f 340/91/186 339/73/186 343/74/186 347/93/186
f 339/73/187 341/92/187 344/94/187 343/74/187
f 341/92/188 337/85/188 345/86/188 344/94/188
s 0
f 336/95/114 335/74/114 332/96/114 346/71/114
f 345/96/189 347/71/189 343/95/189 344/74/189
s 1
f 348/59/90 360/87/90 350/88/90 352/62/90
f 360/87/93 349/71/93 351/72/93 350/88/93
f 349/71/96 359/89/96 353/90/96 351/72/96
f 359/89/99 348/83/99 352/84/99 353/90/99
f 352/62/190 350/88/191 355/91/191 354/64/192
f 350/88/193 351/72/194 357/73/195 355/91/193
f 351/72/194 353/90/196 358/92/197 357/73/195
f 353/90/198 352/84/190 354/85/192 358/92/199
f 354/64/200 355/91/200 356/93/200 282/66/200
f 355/91/201 357/73/201 285/74/201 356/93/201
f 357/73/195 358/92/197 361/94/202 285/74/202
f 358/92/199 354/85/192 282/86/203 361/94/203
s 0
f 359/95/114 349/74/114 360/96/114 348/71/114
f 282/96/204 356/71/204 285/95/204 361/74/204
s 1
f 375/59/116 374/87/116 366/88/116 365/62/116
f 374/87/119 363/71/119 362/72/119 366/88/119
f 363/71/122 364/89/122 368/90/122 362/72/122
f 364/89/125 375/83/125 365/84/125 368/90/125
f 365/62/205 366/88/205 367/91/205 369/64/205
f 366/88/206 362/72/206 371/73/206 367/91/206
f 362/72/207 368/90/207 372/92/207 371/73/207
f 368/90/208 365/84/208 369/85/208 372/92/208
f 369/64/209 367/91/209 370/93/209 299/66/209
f 367/91/210 371/73/210 301/74/210 370/93/210
f 371/73/211 372/92/211 373/94/211 301/74/211
f 372/92/212 369/85/212 299/86/212 373/94/212
s 0
f 364/95/114 363/74/114 374/96/114 375/71/114
f 299/96/213 370/71/213 301/95/213 373/74/213
s 1
f 390/59/141 376/87/141 380/88/141 382/62/141
f 376/87/144 389/71/144 379/72/144 380/88/144
f 389/71/145 377/89/145 378/90/145 379/72/145
f 377/89/148 390/83/148 382/84/148 378/90/148
f 382/62/214 380/88/214 385/91/214 383/64/214
f 380/88/215 379/72/215 381/73/215 385/91/215
f 379/72/216 378/90/216 386/92/216 381/73/216
f 378/90/217 382/84/217 383/85/217 386/92/217
f 383/64/218 385/91/218 384/93/218 387/66/218
f 385/91/219 381/73/219 313/74/219 384/93/219
f 381/73/220 386/92/220 388/94/220 313/74/220
f 386/92/221 383/85/221 387/86/221 388/94/221
s 0
f 377/95/114 389/74/114 376/96/114 390/71/114
f 387/96/222 384/71/222 313/95/222 388/74/222
s 1
f 391/59/164 392/87/164 393/88/164 394/62/164
f 392/87/165 396/71/165 395/72/223 393/88/224
f 396/71/166 397/89/166 398/90/166 395/72/166
f 397/89/167 391/83/167 394/84/225 398/90/226
f 394/62/227 393/88/227 402/91/228 400/64/229
f 393/88/224 395/72/223 403/73/230 402/91/231
f 395/72/232 398/90/232 399/92/233 403/73/234
f 398/90/226 394/84/225 400/85/235 399/92/236
f 400/64/229 402/91/228 404/93/237 401/66/237
f 402/91/231 403/73/230 405/74/238 404/93/238
f 403/73/234 399/92/233 406/94/239 405/74/239
f 399/92/236 400/85/235 401/86/240 406/94/240
s 0
f 397/95/114 396/74/114 392/96/114 391/71/114
f 401/96/241 404/71/241 405/95/241 406/74/241
s 1
f 420/59/177 407/87/177 408/88/242 409/62/243
f 407/87/178 410/71/178 413/72/244 408/88/245
f 410/71/179 419/89/179 411/90/246 413/72/247
f 419/89/180 420/83/180 409/84/248 411/90/249
f 409/62/243 408/88/242 412/91/250 418/64/251
f 408/88/245 413/72/244 414/73/252 412/91/253
f 413/72/247 411/90/246 415/92/254 414/73/255
f 411/90/249 409/84/248 418/85/256 415/92/257
f 418/64/251 412/91/250 416/93/258 343/66/258
f 412/91/253 414/73/252 345/74/259 416/93/259
f 414/73/255 415/92/254 417/94/260 345/74/260
f 415/92/257 418/85/256 343/86/261 417/94/261
s 0
f 419/95/114 410/74/114 407/96/114 420/71/114
f 343/96/262 416/71/262 345/95/262 417/74/262
s 1
f 421/59/263 422/87/263 426/97/264 428/98/264
f 422/87/265 456/71/265 425/99/266 426/97/266
f 456/71/267 423/89/267 424/100/268 425/99/268
f 423/89/269 421/83/269 428/101/270 424/100/270
f 428/98/264 426/97/264 579/102/271 430/103/271
f 426/97/266 425/99/266 427/104/272 579/102/272
f 425/99/268 424/100/268 429/105/273 427/104/273
f 424/100/270 428/101/270 430/106/274 429/105/274
f 430/103/271 579/102/271 433/107/275 432/108/275
f 579/102/272 427/104/272 431/109/276 433/107/276
f 427/104/273 429/105/273 436/110/277 431/109/277
f 429/105/274 430/106/274 432/111/278 436/110/278
f 432/108/275 433/107/275 438/112/279 437/113/279
f 433/107/276 431/109/276 435/114/280 438/112/280
f 431/109/277 436/110/277 434/115/281 435/114/281
f 436/110/278 432/111/278 437/116/282 434/115/282
f 437/113/279 438/112/279 439/117/265 442/96/265
f 438/112/280 435/114/280 441/118/263 439/117/263
f 435/114/281 434/115/281 440/119/269 441/118/269
f 434/115/282 437/116/282 442/95/267 440/119/267
f 442/96/265 439/117/265 582/120/266 443/121/266
f 439/117/263 441/118/263 445/122/264 582/120/264
f 441/118/269 440/119/269 446/123/270 445/122/270
f 440/119/267 442/95/267 443/124/268 446/123/268
f 443/121/266 582/120/266 585/125/272 444/126/272
f 582/120/264 445/122/264 448/127/271 585/125/271
f 445/122/270 446/123/270 449/128/274 448/127/274
f 446/123/268 443/124/268 444/129/273 449/128/273
f 444/126/272 585/125/272 451/130/276 450/131/276
f 585/125/271 448/127/271 447/132/275 451/130/275
f 448/127/274 449/128/274 454/133/278 447/132/278
f 449/128/273 444/129/273 450/134/277 454/133/277
f 450/131/276 451/130/276 453/135/280 452/136/280
f 451/130/275 447/132/275 455/137/279 453/135/279
f 447/132/278 454/133/278 457/138/282 455/137/282
f 454/133/277 450/134/277 452/139/281 457/138/281
f 452/136/280 453/135/280 422/93/263 421/66/263
f 453/135/279 455/137/279 456/74/265 422/93/265
f 455/137/282 457/138/282 423/94/267 456/74/267
f 457/138/281 452/139/281 421/86/269 423/94/269
f 463/59/263 459/87/263 464/97/264 458/98/264
f 459/87/265 495/71/265 460/99/266 464/97/266
f 495/71/267 461/89/267 462/100/268 460/99/268
f 461/89/269 463/83/269 458/101/270 462/100/270
f 458/98/264 464/97/264 466/102/271 465/103/271
f 464/97/266 460/99/266 467/104/272 466/102/272
f 460/99/268 462/100/268 468/105/273 467/104/273
f 462/100/270 458/101/270 465/106/274 468/105/274
f 465/103/271 466/102/271 471/107/275 470/108/275
f 466/102/272 467/104/272 469/109/276 471/107/276
f 467/104/273 468/105/273 473/110/277 469/109/277
f 468/105/274 465/106/274 470/111/278 473/110/278
f 470/108/275 471/107/275 472/112/279 477/113/279
f 471/107/276 469/109/276 475/114/280 472/112/280
f 469/109/277 473/110/277 476/115/281 475/114/281
f 473/110/278 470/111/278 477/116/282 476/115/282
f 477/113/279 472/112/279 474/117/265 482/96/265
f 472/112/280 475/114/280 479/118/263 474/117/263
f 475/114/281 476/115/281 481/119/269 479/118/269
f 476/115/282 477/116/282 482/95/267 481/119/267
f 482/96/265 474/117/265 478/120/266 483/121/266
f 474/117/263 479/118/263 485/122/264 478/120/264
f 479/118/269 481/119/269 480/123/270 485/122/270
f 481/119/267 482/95/267 483/124/268 480/123/268
f 483/121/266 478/120/266 487/125/272 486/126/272
f 478/120/264 485/122/264 484/127/271 487/125/271
f 485/122/270 480/123/270 489/128/274 484/127/274
f 480/123/268 483/124/268 486/129/273 489/128/273
f 486/126/272 487/125/272 492/130/276 490/131/276
f 487/125/271 484/127/271 488/132/275 492/130/275
f 484/127/274 489/128/274 493/133/278 488/132/278
f 489/128/273 486/129/273 490/134/277 493/133/277
f 490/131/276 492/130/276 494/135/280 491/136/280
f 492/130/275 488/132/275 496/137/279 494/135/279
f 488/132/278 493/133/278 497/138/282 496/137/282
f 493/133/277 490/134/277 491/139/281 497/138/281
f 491/136/280 494/135/280 459/93/263 463/66/263
f 494/135/279 496/137/279 495/74/265 459/93/265
f 496/137/282 497/138/282 461/94/267 495/74/267
f 497/138/281 491/139/281 463/86/269 461/94/269
f 498/59/263 537/87/263 500/97/264 505/98/264
f 537/87/265 501/71/265 499/99/266 500/97/266
f 501/71/267 503/89/267 502/100/268 499/99/268
f 503/89/269 498/83/269 505/101/270 502/100/270
f 505/98/264 500/97/264 504/102/271 506/103/271
f 500/97/266 499/99/266 508/104/272 504/102/272
f 499/99/268 502/100/268 507/105/273 508/104/273
f 502/100/270 505/101/270 506/106/274 507/105/274
f 506/103/271 504/102/271 510/107/275 514/108/275
f 504/102/272 508/104/272 509/109/276 510/107/276
f 508/104/273 507/105/273 511/110/277 509/109/277
f 507/105/274 506/106/274 514/111/278 511/110/278
f 514/108/275 510/107/275 512/112/279 515/113/279
f 510/107/276 509/109/276 517/114/280 512/112/280
f 509/109/277 511/110/277 513/115/281 517/114/281
f 511/110/278 514/111/278 515/116/282 513/115/282
f 515/113/279 512/112/279 516/117/265 520/96/265
f 512/112/280 517/114/280 518/118/263 516/117/263
f 517/114/281 513/115/281 519/119/269 518/118/269
f 513/115/282 515/116/282 520/95/267 519/119/267
f 520/96/265 516/117/265 523/120/266 521/121/266
f 516/117/263 518/118/263 525/122/264 523/120/264
f 518/118/269 519/119/269 522/123/270 525/122/270
f 519/119/267 520/95/267 521/124/268 522/123/268
f 521/121/266 523/120/266 527/125/272 524/126/272
f 523/120/264 525/122/264 526/127/271 527/125/271
f 525/122/270 522/123/270 530/128/274 526/127/274
f 522/123/268 521/124/268 524/129/273 530/128/273
f 524/126/272 527/125/272 529/130/276 531/131/276
f 527/125/271 526/127/271 528/132/275 529/130/275
f 526/127/274 530/128/274 534/133/278 528/132/278
f 530/128/273 524/129/273 531/134/277 534/133/277
f 531/131/276 529/130/276 536/135/280 532/136/280
f 529/130/275 528/132/275 533/137/279 536/135/279
f 528/132/278 534/133/278 535/138/282 533/137/282
f 534/133/277 531/134/277 532/139/281 535/138/281
f 532/136/280 536/135/280 537/93/263 498/66/263
f 536/135/279 533/137/279 501/74/265 537/93/265
f 533/137/282 535/138/282 503/94/267 501/74/267
f 535/138/281 532/139/281 498/86/269 503/94/269
f 574/59/263 538/87/263 542/97/264 541/98/264
f 538/87/265 539/71/265 540/99/266 542/97/266
f 539/71/267 576/89/267 544/100/268 540/99/268
f 576/89/269 574/83/269 541/101/270 544/100/270
f 541/98/264 542/97/264 547/102/271 546/103/271
f 542/97/266 540/99/266 543/104/272 547/102/272
f 540/99/268 544/100/268 545/105/273 543/104/273
f 544/100/270 541/101/270 546/106/274 545/105/274
f 546/103/271 547/102/271 548/107/275 550/108/275
f 547/102/272 543/104/272 549/109/276 548/107/276
f 543/104/273 545/105/273 552/110/277 549/109/277
f 545/105/274 546/106/274 550/111/278 552/110/278
f 550/108/275 548/107/275 551/112/279 557/113/279
f 548/107/276 549/109/276 555/114/280 551/112/280
f 549/109/277 552/110/277 553/115/281 555/114/281
f 552/110/278 550/111/278 557/116/282 553/115/282
f 557/113/279 551/112/279 556/117/265 554/96/265
f 551/112/280 555/114/280 558/118/263 556/117/263
f 555/114/281 553/115/281 559/119/269 558/118/269
f 553/115/282 557/116/282 554/95/267 559/119/267
f 554/96/265 556/117/265 562/120/266 561/121/266
f 556/117/263 558/118/263 563/122/264 562/120/264
f 558/118/269 559/119/269 560/123/270 563/122/270
f 559/119/267 554/95/267 561/124/268 560/123/268
f 561/121/266 562/120/266 566/125/272 565/126/272
f 562/120/264 563/122/264 567/127/271 566/125/271
f 563/122/270 560/123/270 564/128/274 567/127/274
f 560/123/268 561/124/268 565/129/273 564/128/273
f 565/126/272 566/125/272 570/130/276 569/131/276
f 566/125/271 567/127/271 572/132/275 570/130/275
f 567/127/274 564/128/274 568/133/278 572/132/278
f 564/128/273 565/129/273 569/134/277 568/133/277
f 569/131/276 570/130/276 571/135/280 577/136/280
f 570/130/275 572/132/275 575/137/279 571/135/279
f 572/132/278 568/133/278 573/138/282 575/137/282
f 568/133/277 569/134/277 577/139/281 573/138/281
f 577/136/280 571/135/280 538/93/263 574/66/263
f 571/135/279 575/137/279 539/74/265 538/93/265
f 575/137/282 573/138/282 576/94/267 539/74/267
f 573/138/281 577/139/281 574/86/269 576/94/269
f 422/59/283 426/140/284 578/141/284 587/66/283
f 426/140/284 579/142/285 588/143/285 578/141/284
f 579/142/285 433/144/286 589/145/286 588/143/285
f 433/144/286 438/146/287 581/147/287 589/145/286
f 438/146/287 439/71/288 580/74/288 581/147/287
f 439/71/288 582/148/289 584/149/289 580/74/288
f 582/148/289 585/150/290 583/151/290 584/149/289
f 585/150/290 451/152/291 590/153/291 583/151/290
f 451/152/291 453/154/292 586/155/292 590/153/291
f 453/154/292 422/83/283 587/86/283 586/155/292
s 0
f 587/95/293 578/156/293 588/157/293 589/158/293 581/159/293 580/96/293 584/160/293 583/161/293 590/162/293 586/163/293
f 453/156/114 451/157/114 585/158/114 582/159/114 439/96/114 438/160/114 433/161/114 579/162/114 426/163/114 422/95/114
s 1
f 593/164/114 591/165/294 592/166/295
f 593/167/114 594/168/296 591/165/294
f 593/169/114 599/170/297 594/168/296
f 593/171/114 595/172/298 599/170/297
f 593/173/114 596/174/299 595/172/298
f 593/175/114 602/176/300 596/174/299
f 593/177/114 604/178/301 602/176/300
f 593/179/114 592/180/295 604/178/301
f 592/166/295 591/165/294 598/181/302 597/182/303
f 591/165/294 594/168/296 606/183/304 598/181/302
f 594/168/296 599/170/297 607/184/305 606/183/304
f 599/170/297 595/172/298 601/185/306 607/184/305
f 595/172/298 596/174/299 600/186/307 601/185/306
f 596/174/299 602/176/300 603/187/308 600/186/307
f 602/176/300 604/178/301 610/188/309 603/187/308
f 604/178/301 592/180/295 597/189/303 610/188/309
f 597/182/303 598/181/302 605/190/310 611/191/311
f 598/181/302 606/183/304 612/192/312 605/190/310
f 606/183/304 607/184/305 613/193/313 612/192/314
f 607/184/305 601/185/306 609/194/315 613/193/313
f 601/185/306 600/186/307 608/195/316 609/194/315
f 600/186/307 603/187/308 616/196/317 608/195/316
f 603/187/308 610/188/309 618/197/318 616/196/319
f 610/188/309 597/189/303 611/198/311 618/197/318
f 611/191/311 605/190/310 619/199/320 625/200/321
f 605/190/310 612/192/312 615/201/322 619/199/320
f 612/192/314 613/193/313 614/202/323 615/201/322
f 613/193/313 609/194/315 621/203/324 614/202/323
f 609/194/315 608/195/316 623/204/325 621/203/324
f 608/195/316 616/196/317 617/205/326 623/204/325
f 616/196/319 618/197/318 624/206/327 617/205/326
f 618/197/318 611/198/311 625/207/321 624/206/327
f 625/200/321 619/199/320 627/208/328 632/209/329
f 619/199/320 615/201/322 620/210/330 627/208/328
f 615/201/322 614/202/323 628/211/331 620/210/330
f 614/202/323 621/203/324 629/212/332 628/211/331
f 621/203/324 623/204/325 622/213/333 629/212/332
f 623/204/325 617/205/326 631/214/334 622/213/333
f 617/205/326 624/206/327 626/215/335 631/214/334
f 624/206/327 625/207/321 632/216/329 626/215/335
f 632/209/329 627/208/328 630/217/293
f 627/208/328 620/210/330 630/218/293
f 620/210/330 628/211/331 630/219/293
f 628/211/331 629/212/332 630/220/293
f 629/212/332 622/213/333 630/221/293
f 622/213/333 631/214/334 630/222/293
f 631/214/334 626/215/335 630/223/293
f 626/215/335 632/216/329 630/224/293
s 0
f 637/225/336 633/226/336 639/227/336 634/228/336
f 635/229/337 636/230/337 640/231/337 638/232/337
f 636/233/338 637/234/338 634/235/338 640/236/338
f 633/233/339 635/234/339 638/235/339 639/236/339
f 634/233/293 639/237/293 638/238/293 640/239/293
f 636/233/114 635/240/114 633/241/114 637/239/114
f 648/242/336 647/243/336 641/244/336 644/245/336
f 642/246/337 646/247/337 645/248/337 643/249/337
f 646/233/340 648/250/340 644/251/340 645/252/340
f 647/233/341 642/250/341 643/251/341 641/252/341
f 644/233/293 641/253/293 643/254/293 645/255/293
f 646/233/114 642/256/114 647/257/114 648/255/114
f 656/233/336 655/258/336 653/259/336 652/260/336
f 654/233/337 650/258/337 649/259/337 651/260/337
f 650/233/342 656/256/342 652/261/342 649/260/342
f 655/233/343 654/256/343 651/261/343 653/260/343
f 652/233/293 653/258/293 651/262/293 649/263/293
f 650/233/114 654/258/114 655/262/114 656/263/114
s 1
f 665/233/344 664/264/344 659/265/344 666/266/344
f 664/264/345 657/250/345 658/267/345 659/265/345
f 657/250/346 661/268/346 660/269/346 658/267/346
f 661/268/347 662/258/347 663/270/347 660/269/347
f 662/258/348 665/271/348 666/272/348 663/270/348
s 0
f 662/273/349 661/274/349 657/275/349 664/276/349 665/277/349
f 666/278/350 659/279/350 658/280/350 660/281/350 663/282/350
s 1
f 668/283/351 670/284/351 669/278/351
f 668/285/352 671/286/352 670/284/352
f 668/287/353 667/288/353 671/286/353
f 668/289/354 672/290/354 667/288/354
f 668/291/355 669/277/355 672/290/355
f 669/278/356 670/284/356 673/292/356
f 670/284/357 671/286/357 673/293/357
f 671/286/358 667/288/358 673/294/358
f 667/288/359 672/290/359 673/295/359
f 672/290/360 669/277/360 673/296/360
f 674/283/351 677/284/351 675/278/351
f 674/285/352 678/286/352 677/284/352
f 674/287/353 679/288/353 678/286/353
f 674/289/354 680/290/354 679/288/354
f 674/291/355 675/277/355 680/290/355
f 675/278/356 677/284/356 676/292/356
f 677/284/357 678/286/357 676/293/357
f 678/286/358 679/288/358 676/294/358
f 679/288/359 680/290/359 676/295/359
f 680/290/360 675/277/360 676/296/360
f 688/233/361 681/264/361 682/265/361 689/266/361
f 681/264/362 683/250/362 690/267/362 682/265/362
f 683/250/363 684/268/363 686/269/363 690/267/363
f 684/268/364 685/258/364 687/270/364 686/269/364
f 685/258/365 688/271/365 689/272/365 687/270/365
s 0
f 685/273/366 684/274/366 683/275/366 681/276/366 688/277/366
f 689/278/367 682/279/367 690/280/367 686/281/367 687/282/367
s 1
f 692/283/351 691/284/351 693/278/351
f 692/285/352 694/286/352 691/284/352
f 692/287/353 695/288/353 694/286/353
f 692/289/354 697/290/354 695/288/354
f 692/291/355 693/277/355 697/290/355
f 693/278/356 691/284/356 696/292/356
f 691/284/368 694/286/368 696/293/368
f 694/286/358 695/288/358 696/294/358
f 695/288/359 697/290/359 696/295/359
f 697/290/360 693/277/360 696/296/360
f 698/283/351 700/284/351 699/278/351
f 698/285/369 701/286/369 700/284/369
f 698/287/353 703/288/353 701/286/353
f 698/289/370 704/290/370 703/288/370
f 698/291/355 699/277/355 704/290/355
f 699/278/356 700/284/356 702/292/356
f 700/284/357 701/286/357 702/293/357
f 701/286/358 703/288/358 702/294/358
f 703/288/371 704/290/371 702/295/371
f 704/290/360 699/277/360 702/296/360
