# Blender 4.5.14 LTS
# www.blender.org
mtllib goat_skull.mtl
o goat_skull
v -0.055000 0.020000 0.045000 0.7764 0.7764 0.7764
v 0.046750 0.120000 0.035250 0.9568 0.9568 0.9568
v 0.055000 0.020000 -0.085000 0.8000 0.8000 0.8000
v 0.046750 0.120000 -0.075250 0.7451 0.7451 0.7451
v -0.046750 0.120000 0.035250 0.9529 0.9529 0.9529
v -0.046750 0.120000 -0.075250 0.7451 0.7451 0.7451
v -0.055000 0.020000 -0.085000 0.7960 0.7960 0.7960
v 0.055000 0.020000 0.045000 0.7764 0.7764 0.7764
v -0.024500 0.075000 0.192000 0.9529 0.9529 0.9529
v -0.035000 0.015000 0.040000 0.7098 0.7098 0.7098
v -0.024500 0.075000 0.048000 0.7568 0.7568 0.7568
v 0.035000 0.015000 0.200000 0.8000 0.8000 0.8000
v 0.035000 0.015000 0.040000 0.7098 0.7098 0.7098
v 0.024500 0.075000 0.192000 0.9529 0.9529 0.9529
v 0.024500 0.075000 0.048000 0.7529 0.7529 0.7529
v -0.035000 0.015000 0.200000 0.8000 0.8000 0.8000
v -0.067500 0.075000 0.025000 0.8078 0.8078 0.8078
v -0.067500 0.105000 0.055000 0.9490 0.9490 0.9490
v -0.032500 0.075000 0.025000 0.6667 0.6667 0.6667
v -0.032500 0.105000 0.025000 0.6667 0.6667 0.6667
v -0.032500 0.105000 0.055000 0.9058 0.9058 0.9058
v -0.067500 0.105000 0.025000 0.9176 0.9176 0.9176
v -0.032500 0.075000 0.055000 0.7725 0.7725 0.7725
v -0.067500 0.075000 0.055000 0.8313 0.8313 0.8313
v -0.044319 0.097917 -0.067871 0.6667 0.6667 0.6667
v -0.054043 0.110000 -0.033065 0.8274 0.8274 0.8274
v -0.061376 0.162778 -0.053435 0.9529 0.9529 0.9529
v -0.035681 0.122083 -0.032129 0.8392 0.8392 0.8392
v -0.021639 0.122083 -0.049065 0.8235 0.8235 0.8235
v -0.058361 0.097917 -0.050935 0.8078 0.8078 0.8078
v -0.025957 0.110000 -0.066935 0.6667 0.6667 0.6667
v -0.051652 0.150696 -0.088241 0.8980 0.8980 0.8980
v -0.070014 0.138613 -0.089176 0.8666 0.8666 0.8666
v -0.084056 0.138613 -0.072241 0.9058 0.9058 0.9058
v -0.079738 0.150696 -0.054371 0.9451 0.9451 0.9451
v -0.047334 0.162778 -0.070371 0.9333 0.9333 0.9333
v -0.062848 0.136890 -0.085088 0.6667 0.6667 0.6667
v -0.079421 0.136890 -0.074412 0.8078 0.8078 0.8078
v -0.082268 0.150696 -0.060630 0.9137 0.9137 0.9137
v -0.098562 0.162604 -0.104125 0.9215 0.9215 0.9215
v -0.087683 0.190216 -0.087237 0.9804 0.9804 0.9804
v -0.051969 0.164502 -0.068200 0.9019 0.9019 0.9019
v -0.049122 0.150696 -0.081982 0.8274 0.8274 0.8274
v -0.071110 0.190216 -0.097914 0.9607 0.9607 0.9607
v -0.068542 0.164502 -0.057524 0.9294 0.9294 0.9294
v -0.068263 0.176410 -0.111696 0.9137 0.9137 0.9137
v -0.081989 0.162604 -0.114802 0.7412 0.7412 0.7412
v -0.101409 0.176410 -0.090343 0.9764 0.9764 0.9764
v -0.076456 0.161321 -0.103437 0.6667 0.6667 0.6667
v -0.093382 0.161321 -0.099283 0.6667 0.6667 0.6667
v -0.084698 0.162123 -0.137020 0.6667 0.6667 0.6667
v -0.101624 0.162123 -0.132866 0.9058 0.9058 0.9058
v -0.101762 0.176410 -0.096866 0.9411 0.9411 0.9411
v -0.093215 0.191500 -0.098602 0.9647 0.9647 0.9647
v -0.101457 0.192302 -0.132186 0.9843 0.9843 0.9843
v -0.076289 0.191500 -0.102756 0.9451 0.9451 0.9451
v -0.067909 0.176410 -0.105173 0.6667 0.6667 0.6667
v -0.076151 0.177213 -0.138757 0.9176 0.9176 0.9176
v -0.084531 0.192302 -0.136340 0.9725 0.9725 0.9725
v -0.110004 0.177213 -0.130449 0.9764 0.9764 0.9764
v -0.078018 0.177213 -0.133017 0.6667 0.6667 0.6667
v -0.086410 0.167006 -0.125621 0.6667 0.6667 0.6667
v -0.083081 0.141362 -0.157231 0.8157 0.8157 0.8157
v -0.101470 0.167006 -0.127206 0.6667 0.6667 0.6667
v -0.098141 0.141362 -0.158817 0.8666 0.8666 0.8666
v -0.108137 0.177213 -0.136189 0.9490 0.9490 0.9490
v -0.096416 0.161775 -0.175195 0.9725 0.9725 0.9725
v -0.104808 0.151569 -0.167799 0.9490 0.9490 0.9490
v -0.099745 0.187419 -0.143585 0.9647 0.9647 0.9647
v -0.084685 0.187419 -0.141999 0.9411 0.9411 0.9411
v -0.081357 0.161775 -0.173610 0.9607 0.9607 0.9607
v -0.074689 0.151569 -0.164627 0.8980 0.8980 0.8980
v -0.088047 0.145797 -0.154851 0.6667 0.6667 0.6667
v -0.087980 0.101085 -0.184848 0.8392 0.8392 0.8392
v -0.091450 0.157340 -0.177575 0.9411 0.9411 0.9411
v -0.068176 0.112629 -0.196499 0.9176 0.9176 0.9176
v -0.079780 0.112629 -0.202036 0.9255 0.9255 0.9255
v -0.078145 0.151569 -0.160677 0.6667 0.6667 0.6667
v -0.066474 0.106857 -0.185137 0.8431 0.8431 0.8431
v -0.079846 0.157340 -0.172039 0.8902 0.8902 0.8902
v -0.101353 0.151569 -0.171750 0.9255 0.9255 0.9255
v -0.099651 0.145797 -0.160388 0.7647 0.7647 0.7647
v -0.076376 0.101085 -0.179311 0.8039 0.8039 0.8039
v -0.089682 0.106857 -0.196210 0.8941 0.8941 0.8941
v -0.078659 0.100252 -0.182440 0.7804 0.7804 0.7804
v -0.072310 0.080895 -0.204307 0.8157 0.8157 0.8157
v -0.064687 0.080895 -0.196983 0.7882 0.7882 0.7882
v -0.086282 0.100252 -0.189764 0.8353 0.8353 0.8353
v -0.071729 0.087500 -0.212540 0.8745 0.8745 0.8745
v -0.085701 0.106857 -0.197998 0.8666 0.8666 0.8666
v -0.063525 0.094105 -0.213450 0.9215 0.9215 0.9215
v -0.069874 0.113462 -0.191583 0.6667 0.6667 0.6667
v -0.070455 0.106857 -0.183350 0.6667 0.6667 0.6667
v -0.056483 0.087500 -0.197892 0.8235 0.8235 0.8235
v -0.077498 0.113462 -0.198907 0.6667 0.6667 0.6667
v -0.055902 0.094105 -0.206126 0.8941 0.8941 0.8941
v -0.050656 0.083750 -0.203157 0.8549 0.8549 0.8549
v -0.054716 0.076972 -0.205652 0.7921 0.7921 0.7921
v -0.068099 0.087500 -0.212477 0.8470 0.8470 0.8470
v -0.058641 0.083750 -0.217677 0.9019 0.9019 0.9019
v -0.064039 0.094278 -0.209981 0.6667 0.6667 0.6667
v -0.060046 0.094278 -0.202721 0.6667 0.6667 0.6667
v -0.050589 0.090528 -0.207922 0.9215 0.9215 0.9215
v -0.060114 0.087500 -0.197956 0.6667 0.6667 0.6667
v -0.068166 0.080722 -0.207712 0.8000 0.8000 0.8000
v -0.064173 0.080722 -0.200451 0.7529 0.7529 0.7529
v -0.058708 0.076972 -0.212913 0.8078 0.8078 0.8078
v -0.054581 0.090528 -0.215182 0.9411 0.9411 0.9411
v -0.059822 0.083897 -0.213452 0.6667 0.6667 0.6667
v -0.054649 0.083087 -0.216380 0.9058 0.9058 0.9058
v -0.055000 0.079337 -0.215963 0.8392 0.8392 0.8392
v -0.049475 0.082939 -0.213345 0.9058 0.9058 0.9058
v -0.049475 0.083603 -0.207382 0.8784 0.8784 0.8784
v -0.054649 0.084413 -0.204454 0.6667 0.6667 0.6667
v -0.055000 0.080663 -0.204037 0.7255 0.7255 0.7255
v -0.059822 0.084561 -0.207489 0.6667 0.6667 0.6667
v -0.060174 0.080811 -0.207072 0.6667 0.6667 0.6667
v -0.060174 0.080147 -0.213035 0.7451 0.7451 0.7451
v -0.049826 0.079189 -0.212928 0.8353 0.8353 0.8353
v -0.049826 0.079853 -0.206965 0.8235 0.8235 0.8235
v 0.067500 0.075000 0.055000 0.8353 0.8353 0.8353
v 0.067500 0.075000 0.025000 0.8078 0.8078 0.8078
v 0.032500 0.075000 0.025000 0.6667 0.6667 0.6667
v 0.067500 0.105000 0.055000 0.9451 0.9451 0.9451
v 0.032500 0.105000 0.055000 0.9019 0.9019 0.9019
v 0.067500 0.105000 0.025000 0.9176 0.9176 0.9176
v 0.032500 0.105000 0.025000 0.6667 0.6667 0.6667
v 0.032500 0.075000 0.055000 0.7764 0.7764 0.7764
v 0.054043 0.110000 -0.033065 0.8274 0.8274 0.8274
v 0.084056 0.138613 -0.072241 0.9019 0.9019 0.9019
v 0.044319 0.097917 -0.067871 0.6667 0.6667 0.6667
v 0.070014 0.138613 -0.089176 0.8666 0.8666 0.8666
v 0.061376 0.162778 -0.053435 0.9529 0.9529 0.9529
v 0.079738 0.150696 -0.054371 0.9490 0.9490 0.9490
v 0.035681 0.122083 -0.032129 0.8392 0.8392 0.8392
v 0.021639 0.122083 -0.049065 0.8235 0.8235 0.8235
v 0.025957 0.110000 -0.066935 0.6667 0.6667 0.6667
v 0.058361 0.097917 -0.050935 0.8078 0.8078 0.8078
v 0.051652 0.150696 -0.088241 0.8823 0.8823 0.8823
v 0.047334 0.162778 -0.070371 0.9294 0.9294 0.9294
v 0.079421 0.136890 -0.074412 0.8117 0.8117 0.8117
v 0.101409 0.176410 -0.090343 0.9804 0.9804 0.9804
v 0.081989 0.162604 -0.114802 0.7412 0.7412 0.7412
v 0.068263 0.176410 -0.111696 0.9137 0.9137 0.9137
v 0.051969 0.164502 -0.068200 0.9058 0.9058 0.9058
v 0.068542 0.164502 -0.057524 0.9333 0.9333 0.9333
v 0.082268 0.150696 -0.060630 0.9137 0.9137 0.9137
v 0.049122 0.150696 -0.081982 0.8274 0.8274 0.8274
v 0.062848 0.136890 -0.085088 0.6667 0.6667 0.6667
v 0.098562 0.162604 -0.104125 0.9215 0.9215 0.9215
v 0.071110 0.190216 -0.097914 0.9607 0.9607 0.9607
v 0.087683 0.190216 -0.087237 0.9804 0.9804 0.9804
v 0.093382 0.161321 -0.099283 0.6667 0.6667 0.6667
v 0.084698 0.162123 -0.137020 0.6667 0.6667 0.6667
v 0.067909 0.176410 -0.105173 0.6667 0.6667 0.6667
v 0.076289 0.191500 -0.102756 0.9372 0.9372 0.9372
v 0.076151 0.177213 -0.138757 0.9215 0.9215 0.9215
v 0.084531 0.192302 -0.136340 0.9725 0.9725 0.9725
v 0.101457 0.192302 -0.132186 0.9843 0.9843 0.9843
v 0.093215 0.191500 -0.098602 0.9647 0.9647 0.9647
v 0.076456 0.161321 -0.103437 0.6667 0.6667 0.6667
v 0.101762 0.176410 -0.096866 0.9451 0.9451 0.9451
v 0.110004 0.177213 -0.130449 0.9764 0.9764 0.9764
v 0.101624 0.162123 -0.132866 0.9058 0.9058 0.9058
v 0.098141 0.141362 -0.158817 0.8706 0.8706 0.8706
v 0.086410 0.167006 -0.125621 0.6667 0.6667 0.6667
v 0.083081 0.141362 -0.157231 0.8235 0.8235 0.8235
v 0.078018 0.177213 -0.133017 0.6667 0.6667 0.6667
v 0.074689 0.151569 -0.164627 0.8902 0.8902 0.8902
v 0.084685 0.187419 -0.141999 0.9490 0.9490 0.9490
v 0.099745 0.187419 -0.143585 0.9647 0.9647 0.9647
v 0.104808 0.151569 -0.167799 0.9451 0.9451 0.9451
v 0.101470 0.167006 -0.127206 0.6667 0.6667 0.6667
v 0.108137 0.177213 -0.136189 0.9529 0.9529 0.9529
v 0.081357 0.161775 -0.173610 0.9607 0.9607 0.9607
v 0.096416 0.161775 -0.175195 0.9764 0.9764 0.9764
v 0.101353 0.151569 -0.171750 0.9255 0.9255 0.9255
v 0.076376 0.101085 -0.179311 0.8039 0.8039 0.8039
v 0.087980 0.101085 -0.184848 0.8392 0.8392 0.8392
v 0.088047 0.145797 -0.154851 0.6667 0.6667 0.6667
v 0.066474 0.106857 -0.185137 0.8431 0.8431 0.8431
v 0.068176 0.112629 -0.196499 0.9215 0.9215 0.9215
v 0.091450 0.157340 -0.177575 0.9451 0.9451 0.9451
v 0.089682 0.106857 -0.196210 0.8902 0.8902 0.8902
v 0.079846 0.157340 -0.172039 0.8941 0.8941 0.8941
v 0.078145 0.151569 -0.160677 0.6667 0.6667 0.6667
v 0.099651 0.145797 -0.160388 0.7647 0.7647 0.7647
v 0.079780 0.112629 -0.202036 0.9294 0.9294 0.9294
v 0.086282 0.100252 -0.189764 0.8392 0.8392 0.8392
v 0.072310 0.080895 -0.204307 0.8117 0.8117 0.8117
v 0.078659 0.100252 -0.182440 0.7804 0.7804 0.7804
v 0.056483 0.087500 -0.197892 0.8157 0.8157 0.8157
v 0.064687 0.080895 -0.196983 0.7882 0.7882 0.7882
v 0.070455 0.106857 -0.183350 0.6667 0.6667 0.6667
v 0.069874 0.113462 -0.191583 0.6667 0.6667 0.6667
v 0.077498 0.113462 -0.198907 0.6667 0.6667 0.6667
v 0.071729 0.087500 -0.212540 0.8784 0.8784 0.8784
v 0.085701 0.106857 -0.197998 0.8666 0.8666 0.8666
v 0.055902 0.094105 -0.206126 0.9176 0.9176 0.9176
v 0.063525 0.094105 -0.213450 0.9255 0.9255 0.9255
v 0.058708 0.076972 -0.212913 0.8117 0.8117 0.8117
v 0.050656 0.083750 -0.203157 0.8470 0.8470 0.8470
v 0.054716 0.076972 -0.205652 0.8000 0.8000 0.8000
v 0.064039 0.094278 -0.209981 0.6667 0.6667 0.6667
v 0.068099 0.087500 -0.212477 0.8470 0.8470 0.8470
v 0.060046 0.094278 -0.202721 0.6667 0.6667 0.6667
v 0.060114 0.087500 -0.197956 0.6667 0.6667 0.6667
v 0.064173 0.080722 -0.200451 0.7451 0.7451 0.7451
v 0.068166 0.080722 -0.207712 0.8000 0.8000 0.8000
v 0.058641 0.083750 -0.217677 0.9019 0.9019 0.9019
v 0.050589 0.090528 -0.207922 0.9098 0.9098 0.9098
v 0.054581 0.090528 -0.215182 0.9451 0.9451 0.9451
v 0.049475 0.083603 -0.207382 0.8862 0.8862 0.8862
v 0.049475 0.082939 -0.213345 0.9098 0.9098 0.9098
v 0.049826 0.079189 -0.212928 0.8392 0.8392 0.8392
v 0.059822 0.083897 -0.213452 0.6667 0.6667 0.6667
v 0.059822 0.084561 -0.207489 0.6667 0.6667 0.6667
v 0.055000 0.080663 -0.204037 0.7255 0.7255 0.7255
v 0.054649 0.083087 -0.216380 0.9019 0.9019 0.9019
v 0.054649 0.084413 -0.204454 0.6667 0.6667 0.6667
v 0.049826 0.079853 -0.206965 0.8235 0.8235 0.8235
v 0.055000 0.079337 -0.215963 0.8431 0.8431 0.8431
v 0.060174 0.080147 -0.213035 0.7451 0.7451 0.7451
v 0.060174 0.080811 -0.207072 0.6667 0.6667 0.6667
vn -0.0000 0.0970 0.9953
vn -0.0000 0.0970 -0.9953
vn -0.9966 0.0822 -0.0000
vn 0.9966 0.0822 -0.0000
vn -0.0000 1.0000 -0.0000
vn -0.0000 -1.0000 -0.0000
vn -0.0000 0.1322 0.9912
vn -0.0000 0.1322 -0.9912
vn -0.9850 0.1724 -0.0000
vn 0.9850 0.1724 -0.0000
vn -0.0000 -0.0000 1.0000
vn -0.0000 -0.0000 -1.0000
vn -1.0000 -0.0000 -0.0000
vn 1.0000 -0.0000 -0.0000
vn 0.2552 -0.3171 -0.9134
vn -0.5952 -0.6342 -0.4935
vn -0.8504 -0.3171 0.4199
vn -0.2552 0.3171 0.9134
vn 0.5952 0.6342 0.4935
vn 0.8504 0.3171 -0.4199
vn 0.4882 -0.7732 0.4048
vn -0.4882 0.7732 -0.4048
vn 0.5687 -0.4043 -0.7163
vn -0.3186 -0.8086 -0.4946
vn -0.8873 -0.4043 0.2217
vn -0.5687 0.4043 0.7163
vn 0.3186 0.8086 0.4946
vn 0.8873 0.4043 -0.2217
vn 0.4379 -0.5883 0.6798
vn -0.4379 0.5883 -0.6798
vn 0.8383 -0.4999 -0.2177
vn -0.0055 -0.9997 -0.0225
vn -0.8438 -0.4999 0.1951
vn -0.8383 0.4999 0.2177
vn 0.0055 0.9997 0.0225
vn 0.8438 0.4999 -0.1951
vn 0.2383 -0.0232 0.9709
vn -0.2383 0.0232 -0.9709
vn 0.8284 -0.3891 0.4029
vn -0.0658 -0.7783 0.6245
vn -0.8941 -0.3891 0.2215
vn -0.8284 0.3891 -0.4029
vn 0.0658 0.7783 -0.6245
vn 0.8941 0.3891 -0.2215
vn -0.0815 0.6279 0.7740
vn 0.0815 -0.6279 -0.7740
vn 0.5975 -0.2592 0.7588
vn -0.3682 -0.5184 0.7718
vn -0.9657 -0.2592 0.0130
vn -0.5975 0.2592 -0.7588
vn 0.3682 0.5184 -0.7718
vn 0.9657 0.2592 -0.0130
vn -0.2232 0.8552 0.4678
vn 0.2232 -0.8552 -0.4678
vn 0.3846 -0.3607 0.8497
vn -0.4798 -0.7214 0.4994
vn -0.8644 -0.3607 -0.3503
vn -0.3846 0.3607 -0.8497
vn 0.4798 0.7214 -0.4994
vn 0.8644 0.3607 0.3503
vn -0.4998 0.6925 0.5202
vn 0.4998 -0.6925 -0.5202
vn 0.2735 -0.4723 0.8379
vn -0.2876 -0.9446 0.1581
vn -0.5611 -0.4723 -0.6798
vn -0.2735 0.4723 -0.8379
vn 0.2876 0.9446 -0.1581
vn 0.5611 0.4723 0.6798
vn -0.8277 0.3282 0.4552
vn 0.8277 -0.3282 -0.4552
vn -0.4978 0.1418 0.8556
vn -0.9957 0.0922 -0.0103
vn -0.4978 -0.0497 -0.8658
vn 0.4978 -0.1418 -0.8556
vn 0.9957 -0.0922 0.0103
vn 0.4978 0.0497 0.8658
vn 0.0927 0.9896 -0.1101
vn -0.0927 -0.9896 0.1101
vn 0.8504 -0.3171 0.4199
vn 0.5952 -0.6342 -0.4935
vn -0.2552 -0.3171 -0.9134
vn -0.8504 0.3171 -0.4199
vn -0.5952 0.6342 0.4935
vn 0.2552 0.3171 0.9134
vn -0.4882 -0.7732 0.4048
vn 0.4882 0.7732 -0.4048
vn 0.8873 -0.4043 0.2217
vn 0.3186 -0.8086 -0.4946
vn -0.5687 -0.4043 -0.7163
vn -0.8873 0.4043 -0.2217
vn -0.3186 0.8086 0.4946
vn 0.5687 0.4043 0.7163
vn -0.4379 -0.5883 0.6798
vn 0.4379 0.5883 -0.6798
vn 0.8438 -0.4999 0.1951
vn 0.0055 -0.9997 -0.0225
vn -0.8383 -0.4999 -0.2177
vn -0.8438 0.4999 -0.1951
vn -0.0055 0.9997 0.0225
vn 0.8383 0.4999 0.2177
vn -0.2383 -0.0232 0.9709
vn 0.2383 0.0232 -0.9709
vn 0.8941 -0.3891 0.2215
vn 0.0658 -0.7783 0.6245
vn -0.8284 -0.3891 0.4029
vn -0.8941 0.3891 -0.2215
vn -0.0658 0.7783 -0.6245
vn 0.8284 0.3891 -0.4029
vn 0.0815 0.6279 0.7740
vn -0.0815 -0.6279 -0.7740
vn 0.9657 -0.2592 0.0130
vn 0.3682 -0.5184 0.7718
vn -0.5975 -0.2592 0.7588
vn -0.9657 0.2592 -0.0130
vn -0.3682 0.5184 -0.7718
vn 0.5975 0.2592 -0.7588
vn 0.2232 0.8552 0.4678
vn -0.2232 -0.8552 -0.4678
vn 0.8644 -0.3607 -0.3503
vn 0.4798 -0.7214 0.4994
vn -0.3846 -0.3607 0.8497
vn -0.8644 0.3607 0.3503
vn -0.4798 0.7214 -0.4994
vn 0.3846 0.3607 -0.8497
vn 0.4998 0.6925 0.5202
vn -0.4998 -0.6925 -0.5202
vn 0.5611 -0.4723 -0.6798
vn 0.2876 -0.9446 0.1581
vn -0.2735 -0.4723 0.8379
vn -0.5611 0.4723 0.6798
vn -0.2876 0.9446 -0.1581
vn 0.2735 0.4723 -0.8379
vn 0.8277 0.3282 0.4552
vn -0.8277 -0.3282 -0.4552
vn -0.4978 0.0497 0.8658
vn -0.9957 -0.0922 0.0103
vn -0.4978 -0.1418 -0.8556
vn 0.4978 -0.0496 -0.8658
vn 0.9957 0.0922 -0.0103
vn 0.4978 0.1418 0.8556
vn -0.0927 0.9896 -0.1101
vn 0.0927 -0.9896 0.1101
vt 0.422852 0.641602
vt 0.467773 0.641602
vt 0.464404 0.686523
vt 0.426221 0.686523
vt 0.750977 0.938477
vt 0.811523 0.938477
vt 0.806982 0.993780
vt 0.755518 0.993780
vt 0.806982 0.985209
vt 0.755518 0.985209
vt 0.802209 0.938477
vt 0.802209 0.999023
vt 0.750977 0.999023
vt 0.802441 0.990833
vt 0.760059 0.990833
vt 0.808496 0.961527
vt 0.754004 0.961527
vt 0.000977 0.625977
vt 0.030273 0.625977
vt 0.030273 0.686523
vt 0.000977 0.686523
vt 0.777466 0.938477
vt 0.777466 0.999023
vt 0.688477 0.688477
vt 0.722383 0.688477
vt 0.722383 0.717539
vt 0.688477 0.717539
vt 0.717539 0.688477
vt 0.717539 0.717539
vt 0.032227 0.625977
vt 0.037109 0.625977
vt 0.037109 0.686523
vt 0.032227 0.686523
vt 0.041992 0.625977
vt 0.041992 0.686523
vt 0.046875 0.625977
vt 0.046875 0.686523
vt 0.051758 0.625977
vt 0.051758 0.686523
vt 0.056641 0.625977
vt 0.056641 0.686523
vt 0.061523 0.625977
vt 0.061523 0.686523
vt 0.061523 0.657834
vt 0.050320 0.686523
vt 0.035672 0.684939
vt 0.032227 0.654666
vt 0.043430 0.625977
vt 0.058078 0.627561
vt 0.058078 0.684939
vt 0.043430 0.686523
vt 0.032227 0.657834
vt 0.035672 0.627561
vt 0.050320 0.625977
vt 0.061523 0.654666
vt 0.054199 0.686523
vt 0.039551 0.686523
vt 0.032227 0.656250
vt 0.039551 0.625977
vt 0.054199 0.625977
vt 0.061523 0.656250
vt 0.059375 0.671772
vt 0.044727 0.686523
vt 0.032227 0.671002
vt 0.034375 0.640728
vt 0.049023 0.625977
vt 0.061523 0.641498
vt 0.061523 0.671002
vt 0.049023 0.686523
vt 0.034375 0.671772
vt 0.032227 0.641498
vt 0.044727 0.625977
vt 0.059375 0.640728
vt 0.061523 0.640843
vt 0.061523 0.671116
vt 0.032227 0.671657
vt 0.032227 0.641384
vt 0.032227 0.671116
vt 0.032227 0.640843
vt 0.061523 0.641384
vt 0.061523 0.671657
s 0
usemtl props
f 1/1/1 8/2/1 2/3/1 5/4/1
f 3/5/2 7/6/2 6/7/2 4/8/2
f 7/5/3 1/6/3 5/9/3 6/10/3
f 8/5/4 3/6/4 4/9/4 2/10/4
f 5/5/5 2/11/5 4/12/5 6/13/5
f 7/5/6 3/11/6 8/12/6 1/13/6
f 16/5/7 12/6/7 14/14/7 9/15/7
f 13/5/8 10/6/8 11/14/8 15/15/8
f 10/5/9 16/6/9 9/16/9 11/17/9
f 12/5/10 13/6/10 15/16/10 14/17/10
f 9/18/5 14/19/5 15/20/5 11/21/5
f 10/5/6 13/22/6 12/23/6 16/13/6
f 24/24/11 23/25/11 21/26/11 18/27/11
f 19/24/12 17/25/12 22/26/12 20/27/12
f 17/24/13 24/28/13 18/29/13 22/27/13
f 23/24/14 19/28/14 20/29/14 21/27/14
f 18/24/5 21/25/5 20/26/5 22/27/5
f 17/24/6 19/25/6 23/26/6 24/27/6
s 1
f 31/30/15 25/31/15 33/32/15 32/33/15
f 25/31/16 30/34/16 34/35/16 33/32/16
f 30/34/17 26/36/17 35/37/17 34/35/17
f 26/36/18 28/38/18 27/39/18 35/37/18
f 28/38/19 29/40/19 36/41/19 27/39/19
f 29/40/20 31/42/20 32/43/20 36/41/20
s 0
f 29/44/21 28/45/21 26/46/21 30/47/21 25/48/21 31/49/21
f 32/50/22 33/51/22 34/52/22 35/53/22 27/54/22 36/55/22
s 1
f 43/30/23 37/31/23 47/32/23 46/33/23
f 37/31/24 38/34/24 40/35/24 47/32/24
f 38/34/25 39/36/25 48/37/25 40/35/25
f 39/36/26 45/38/26 41/39/26 48/37/26
f 45/38/27 42/40/27 44/41/27 41/39/27
f 42/40/28 43/42/28 46/43/28 44/41/28
s 0
f 42/56/29 45/57/29 39/58/29 38/59/29 37/60/29 43/61/29
f 46/58/30 47/59/30 40/60/30 48/61/30 41/56/30 44/57/30
s 1
f 57/30/31 49/31/31 51/32/31 58/33/31
f 49/31/32 50/34/32 52/35/32 51/32/32
f 50/34/33 53/36/33 60/37/33 52/35/33
f 53/36/34 54/38/34 55/39/34 60/37/34
f 54/38/35 56/40/35 59/41/35 55/39/35
f 56/40/36 57/42/36 58/43/36 59/41/36
s 0
f 56/56/37 54/57/37 53/58/37 50/59/37 49/60/37 57/61/37
f 58/58/38 51/59/38 52/60/38 60/61/38 55/56/38 59/57/38
s 1
f 61/30/39 62/31/39 63/32/39 72/33/39
f 62/31/40 64/34/40 65/35/40 63/32/40
f 64/34/41 66/36/41 68/37/41 65/35/41
f 66/36/42 69/38/42 67/39/42 68/37/42
f 69/38/43 70/40/43 71/41/43 67/39/43
f 70/40/44 61/42/44 72/43/44 71/41/44
s 0
f 70/56/45 69/57/45 66/58/45 64/59/45 62/60/45 61/61/45
f 72/58/46 63/59/46 65/60/46 68/61/46 67/56/46 71/57/46
s 1
f 78/30/47 73/31/47 83/32/47 79/33/47
f 73/31/48 82/34/48 74/35/48 83/32/48
f 82/34/49 81/36/49 84/37/49 74/35/49
f 81/36/50 75/38/50 77/39/50 84/37/50
f 75/38/51 80/40/51 76/41/51 77/39/51
f 80/40/52 78/42/52 79/43/52 76/41/52
s 0
f 80/62/53 75/63/53 81/64/53 82/65/53 73/66/53 78/67/53
f 79/68/54 83/69/54 74/70/54 84/71/54 77/72/54 76/73/54
s 1
f 93/30/55 85/31/55 87/32/55 94/33/55
f 85/31/56 88/34/56 86/35/56 87/32/56
f 88/34/57 90/36/57 89/37/57 86/35/57
f 90/36/58 95/38/58 91/39/58 89/37/58
f 95/38/59 92/40/59 96/41/59 91/39/59
f 92/40/60 93/42/60 94/43/60 96/41/60
s 0
f 92/56/61 95/57/61 90/58/61 88/59/61 85/60/61 93/61/61
f 94/58/62 87/59/62 86/60/62 89/61/62 91/56/62 96/57/62
s 1
f 104/30/63 106/31/63 98/32/63 97/33/63
f 106/31/64 105/34/64 107/35/64 98/32/64
f 105/34/65 99/36/65 100/37/65 107/35/65
f 99/36/66 101/38/66 108/39/66 100/37/66
f 101/38/67 102/40/67 103/41/67 108/39/67
f 102/40/68 104/42/68 97/43/68 103/41/68
s 0
f 102/56/69 101/57/69 99/58/69 105/59/69 106/60/69 104/61/69
f 97/58/70 98/59/70 107/60/70 100/61/70 108/56/70 103/57/70
s 1
f 114/30/71 116/31/71 117/32/71 115/33/71
f 116/31/72 109/34/72 118/35/72 117/32/72
f 109/34/73 110/36/73 111/37/73 118/35/73
f 110/36/74 112/38/74 119/39/74 111/37/74
f 112/38/75 113/40/75 120/41/75 119/39/75
f 113/40/76 114/42/76 115/43/76 120/41/76
s 0
f 113/74/77 112/75/77 110/37/77 109/76/77 116/77/77 114/36/77
f 115/37/78 117/78/78 118/79/78 111/36/78 119/80/78 120/81/78
f 128/24/11 121/25/11 124/26/11 125/27/11
f 122/24/12 123/25/12 127/26/12 126/27/12
f 123/24/13 128/28/13 125/29/13 127/27/13
f 121/24/14 122/28/14 126/29/14 124/27/14
f 125/24/5 124/25/5 126/26/5 127/27/5
f 123/24/6 122/25/6 121/26/6 128/27/6
s 1
f 129/30/79 138/31/79 130/32/79 134/33/79
f 138/31/80 131/34/80 132/35/80 130/32/80
f 131/34/81 137/36/81 139/37/81 132/35/81
f 137/36/82 136/38/82 140/39/82 139/37/82
f 136/38/83 135/40/83 133/41/83 140/39/83
f 135/40/84 129/42/84 134/43/84 133/41/84
s 0
f 135/51/85 136/52/85 137/53/85 131/54/85 138/55/85 129/50/85
f 134/49/86 130/44/86 132/45/86 139/46/86 140/47/86 133/48/86
s 1
f 147/30/87 141/31/87 150/32/87 142/33/87
f 141/31/88 149/34/88 143/35/88 150/32/88
f 149/34/89 148/36/89 144/37/89 143/35/89
f 148/36/90 145/38/90 151/39/90 144/37/90
f 145/38/91 146/40/91 152/41/91 151/39/91
f 146/40/92 147/42/92 142/43/92 152/41/92
s 0
f 146/56/93 145/57/93 148/58/93 149/59/93 141/60/93 147/61/93
f 142/58/94 150/59/94 143/60/94 144/61/94 151/56/94 152/57/94
s 1
f 162/30/95 153/31/95 164/32/95 163/33/95
f 153/31/96 161/34/96 154/35/96 164/32/96
f 161/34/97 155/36/97 157/37/97 154/35/97
f 155/36/98 156/38/98 158/39/98 157/37/98
f 156/38/99 160/40/99 159/41/99 158/39/99
f 160/40/100 162/42/100 163/43/100 159/41/100
s 0
f 160/56/101 156/57/101 155/58/101 161/59/101 153/60/101 162/61/101
f 163/58/102 164/59/102 154/60/102 157/61/102 158/56/102 159/57/102
s 1
f 174/30/103 173/31/103 165/32/103 172/33/103
f 173/31/104 166/34/104 167/35/104 165/32/104
f 166/34/105 168/36/105 169/37/105 167/35/105
f 168/36/106 170/38/106 175/39/106 169/37/106
f 170/38/107 171/40/107 176/41/107 175/39/107
f 171/40/108 174/42/108 172/43/108 176/41/108
s 0
f 171/56/109 170/57/109 168/58/109 166/59/109 173/60/109 174/61/109
f 172/58/110 165/59/110 167/60/110 169/61/110 175/56/110 176/57/110
s 1
f 177/30/111 187/31/111 179/32/111 184/33/111
f 187/31/112 180/34/112 178/35/112 179/32/112
f 180/34/113 186/36/113 181/37/113 178/35/113
f 186/36/114 185/38/114 182/39/114 181/37/114
f 185/38/115 183/40/115 188/41/115 182/39/115
f 183/40/116 177/42/116 184/43/116 188/41/116
s 0
f 183/69/117 185/70/117 186/71/117 180/72/117 187/73/117 177/68/117
f 184/67/118 179/62/118 178/63/118 181/64/118 182/65/118 188/66/118
s 1
f 198/30/119 189/31/119 190/32/119 197/33/119
f 189/31/120 191/34/120 193/35/120 190/32/120
f 191/34/121 194/36/121 192/37/121 193/35/121
f 194/36/122 195/38/122 199/39/122 192/37/122
f 195/38/123 196/40/123 200/41/123 199/39/123
f 196/40/124 198/42/124 197/43/124 200/41/124
s 0
f 196/56/125 195/57/125 194/58/125 191/59/125 189/60/125 198/61/125
f 197/58/126 190/59/126 193/60/126 192/61/126 199/56/126 200/57/126
s 1
f 205/30/127 209/31/127 201/32/127 210/33/127
f 209/31/128 208/34/128 203/35/128 201/32/128
f 208/34/129 207/36/129 202/37/129 203/35/129
f 207/36/130 206/38/130 211/39/130 202/37/130
f 206/38/131 204/40/131 212/41/131 211/39/131
f 204/40/132 205/42/132 210/43/132 212/41/132
s 0
f 204/56/133 206/57/133 207/58/133 208/59/133 209/60/133 205/61/133
f 210/58/134 201/59/134 203/60/134 202/61/134 211/56/134 212/57/134
s 1
f 220/30/135 213/31/135 221/32/135 218/33/135
f 213/31/136 214/34/136 215/35/136 221/32/136
f 214/34/137 219/36/137 222/37/137 215/35/137
f 219/36/138 216/38/138 223/39/138 222/37/138
f 216/38/139 217/40/139 224/41/139 223/39/139
f 217/40/140 220/42/140 218/43/140 224/41/140
s 0
f 217/80/141 216/81/141 219/37/141 214/78/141 213/79/141 220/36/141
f 218/37/142 221/76/142 215/77/142 222/36/142 223/74/142 224/75/142
