# Blender 4.5.14 LTS
# www.blender.org
mtllib grimoire.mtl
o grimoire
v 0.120000 0.000000 0.160000 0.7725 0.7725 0.7725
v 0.120000 0.012000 0.160000 0.8627 0.8627 0.8627
v 0.120000 0.012000 -0.160000 0.8627 0.8627 0.8627
v -0.120000 0.000000 -0.160000 0.7216 0.7216 0.7216
v -0.120000 0.000000 0.160000 0.7176 0.7176 0.7176
v -0.120000 0.012000 0.160000 0.7255 0.7255 0.7255
v -0.120000 0.012000 -0.160000 0.7255 0.7255 0.7255
v 0.120000 0.000000 -0.160000 0.7764 0.7764 0.7764
v 0.118000 0.012000 0.152000 0.7843 0.7843 0.7843
v 0.118000 0.072000 0.152000 0.7686 0.7686 0.7686
v -0.110000 0.072000 0.152000 0.7059 0.7059 0.7059
v 0.118000 0.012000 -0.152000 0.7843 0.7843 0.7843
v -0.110000 0.072000 -0.152000 0.7059 0.7059 0.7059
v -0.110000 0.012000 0.152000 0.7216 0.7216 0.7216
v 0.118000 0.072000 -0.152000 0.7686 0.7686 0.7686
v -0.110000 0.012000 -0.152000 0.7216 0.7216 0.7216
v -0.131000 0.000000 -0.160000 0.7725 0.7725 0.7725
v -0.131000 0.084000 -0.160000 0.9686 0.9686 0.9686
v -0.117000 0.084000 -0.160000 0.8745 0.8745 0.8745
v -0.131000 0.084000 0.160000 0.9647 0.9647 0.9647
v -0.117000 0.000000 0.160000 0.7255 0.7255 0.7255
v -0.117000 0.000000 -0.160000 0.7255 0.7255 0.7255
v -0.117000 0.084000 0.160000 0.8706 0.8706 0.8706
v -0.131000 0.000000 0.160000 0.7725 0.7725 0.7725
vn -0.0000 -0.0000 1.0000
vn -0.0000 -0.0000 -1.0000
vn -1.0000 -0.0000 -0.0000
vn 1.0000 -0.0000 -0.0000
vn -0.0000 1.0000 -0.0000
vn -0.0000 -1.0000 -0.0000
vt 0.188477 0.688477
vt 0.249023 0.688477
vt 0.249023 0.691504
vt 0.188477 0.691504
vt 0.249023 0.690747
vt 0.188477 0.690747
vt 0.233887 0.688477
vt 0.233887 0.749023
vt 0.188477 0.749023
vt 0.469727 0.657227
vt 0.530273 0.657227
vt 0.530273 0.672646
vt 0.469727 0.672646
vt 0.530273 0.668791
vt 0.469727 0.668791
vt 0.500977 0.907227
vt 0.569336 0.907227
vt 0.569336 0.999023
vt 0.500977 0.999023
vt 0.250977 0.688477
vt 0.296387 0.688477
vt 0.296387 0.749023
vt 0.250977 0.749023
vt 0.198568 0.688477
vt 0.198568 0.749023
vt 0.249023 0.704370
vt 0.188477 0.704370
vt 0.191125 0.688477
vt 0.191125 0.749023
s 0
usemtl props
f 5/1/1 1/2/1 2/3/1 6/4/1
f 8/1/2 4/2/2 7/3/2 3/4/2
f 4/1/3 5/2/3 6/5/3 7/6/3
f 1/1/4 8/2/4 3/5/4 2/6/4
f 6/1/5 2/7/5 3/8/5 7/9/5
f 4/1/6 8/7/6 1/8/6 5/9/6
f 14/10/1 9/11/1 10/12/1 11/13/1
f 12/10/2 16/11/2 13/12/2 15/13/2
f 16/10/3 14/11/3 11/14/3 13/15/3
f 9/10/4 12/11/4 15/14/4 10/15/4
f 11/16/5 10/17/5 15/18/5 13/19/5
f 16/20/6 12/21/6 9/22/6 14/23/6
f 24/1/1 21/24/1 23/25/1 20/9/1
f 22/1/2 17/24/2 18/25/2 19/9/2
f 17/1/3 24/2/3 20/26/3 18/27/3
f 21/1/4 22/2/4 19/26/4 23/27/4
f 20/1/5 23/28/5 19/29/5 18/9/5
f 17/1/6 22/28/6 21/29/6 24/9/6
o grimoire_cover
v -0.120000 0.084000 0.160000 0.8706 0.8706 0.8706
v -0.120000 0.072000 -0.160000 0.7529 0.7529 0.7529
v -0.120000 0.084000 -0.160000 0.8706 0.8706 0.8706
v -0.120000 0.072000 0.160000 0.7529 0.7529 0.7529
v 0.120000 0.072000 -0.160000 0.8627 0.8627 0.8627
v 0.120000 0.084000 0.160000 0.6785 0.6785 0.6785
v 0.120000 0.084000 -0.160000 0.6785 0.6785 0.6785
v 0.120000 0.072000 0.160000 0.8666 0.8666 0.8666
v 0.079000 0.083000 0.161000 0.8431 0.8431 0.8431
v 0.079000 0.083000 0.119000 0.6745 0.6745 0.6745
v 0.079000 0.087000 0.161000 0.9490 0.9490 0.9490
v 0.121000 0.083000 0.119000 0.8353 0.8353 0.8353
v 0.121000 0.087000 0.119000 0.9490 0.9490 0.9490
v 0.121000 0.087000 0.161000 0.9686 0.9686 0.9686
v 0.079000 0.087000 0.119000 0.8902 0.8902 0.8902
v 0.121000 0.083000 0.161000 0.8862 0.8862 0.8862
v 0.079000 0.083000 -0.161000 0.8392 0.8392 0.8392
v 0.079000 0.083000 -0.119000 0.6745 0.6745 0.6745
v 0.079000 0.087000 -0.119000 0.8862 0.8862 0.8862
v 0.121000 0.087000 -0.161000 0.9686 0.9686 0.9686
v 0.121000 0.087000 -0.119000 0.9451 0.9451 0.9451
v 0.079000 0.087000 -0.161000 0.9490 0.9490 0.9490
v 0.121000 0.083000 -0.161000 0.8902 0.8902 0.8902
v 0.121000 0.083000 -0.119000 0.8353 0.8353 0.8353
v 0.143000 0.045000 0.030000 0.8000 0.8000 0.8000
v 0.143000 0.075000 0.030000 0.9333 0.9333 0.9333
v 0.143000 0.045000 -0.030000 0.8000 0.8000 0.8000
v 0.113000 0.045000 -0.030000 0.7137 0.7137 0.7137
v 0.113000 0.045000 0.030000 0.7137 0.7137 0.7137
v 0.113000 0.075000 0.030000 0.6706 0.6706 0.6706
v 0.113000 0.075000 -0.030000 0.6745 0.6745 0.6745
v 0.143000 0.075000 -0.030000 0.9333 0.9333 0.9333
vn -0.0000 -0.0000 1.0000
vn -0.0000 -0.0000 -1.0000
vn -1.0000 -0.0000 -0.0000
vn 1.0000 -0.0000 -0.0000
vn -0.0000 1.0000 -0.0000
vn -0.0000 -1.0000 -0.0000
vt 0.188477 0.688477
vt 0.249023 0.688477
vt 0.249023 0.691504
vt 0.188477 0.691504
vt 0.249023 0.690747
vt 0.188477 0.690747
vt 0.571289 0.922852
vt 0.624023 0.922852
vt 0.624023 0.999023
vt 0.571289 0.999023
vt 0.233887 0.688477
vt 0.233887 0.749023
vt 0.188477 0.749023
vt 0.125977 0.688477
vt 0.157764 0.688477
vt 0.157764 0.691504
vt 0.125977 0.691504
vt 0.157764 0.720264
vt 0.125977 0.720264
vt 0.148682 0.688477
vt 0.148682 0.711182
vt 0.125977 0.711182
vt 0.171387 0.688477
vt 0.171387 0.711182
vt 0.148682 0.733887
vt 0.125977 0.733887
s 0
usemtl props
f 28/30/7 32/31/7 30/32/7 25/33/7
f 29/30/8 26/31/8 27/32/8 31/33/8
f 26/30/9 28/31/9 25/34/9 27/35/9
f 32/30/10 29/31/10 31/34/10 30/35/10
f 25/36/11 30/37/11 31/38/11 27/39/11
f 26/30/12 29/40/12 32/41/12 28/42/12
f 33/43/7 40/44/7 38/45/7 35/46/7
f 36/43/8 34/44/8 39/45/8 37/46/8
f 34/43/9 33/44/9 35/45/9 39/46/9
f 40/43/10 36/44/10 37/45/10 38/46/10
f 35/43/11 38/44/11 37/47/11 39/48/11
f 34/43/12 36/44/12 40/47/12 33/48/12
f 42/43/7 48/44/7 45/45/7 43/46/7
f 47/43/8 41/44/8 46/45/8 44/46/8
f 41/43/9 42/44/9 43/45/9 46/46/9
f 48/43/10 47/44/10 44/45/10 45/46/10
f 43/43/11 45/44/11 44/47/11 46/48/11
f 41/43/12 47/44/12 48/47/12 42/48/12
f 53/43/7 49/49/7 50/50/7 54/51/7
f 51/43/8 52/49/8 55/50/8 56/51/8
f 52/43/9 53/52/9 54/53/9 55/51/9
f 49/43/10 51/52/10 56/53/10 50/51/10
f 54/43/11 50/49/11 56/54/11 55/55/11
f 52/43/12 51/49/12 49/54/12 53/55/12
