# Blender 4.5.14 LTS
# www.blender.org
mtllib manacles.mtl
o manacles
v -0.110363 0.012000 -0.043939 0.8470 0.8470 0.8470
v -0.097714 -0.005600 -0.015391 0.6785 0.6785 0.6785
v -0.141570 0.029600 -0.044973 0.9098 0.9098 0.9098
v -0.114836 0.029600 -0.037307 0.9098 0.9098 0.9098
v -0.119310 0.012000 -0.030674 0.7725 0.7725 0.7725
v -0.141291 0.012000 -0.036977 0.7725 0.7725 0.7725
v -0.141570 -0.005600 -0.044973 0.7294 0.7294 0.7294
v -0.114836 -0.005600 -0.037307 0.7255 0.7255 0.7255
v -0.172630 0.012000 -0.041765 0.8509 0.8509 0.8509
v -0.167705 0.029600 -0.035460 0.9058 0.9058 0.9058
v -0.167705 -0.005600 -0.035460 0.7294 0.7294 0.7294
v -0.141850 0.012000 -0.052968 0.8549 0.8549 0.8549
v -0.183257 0.029600 -0.012404 0.9137 0.9137 0.9137
v -0.162779 0.012000 -0.029156 0.7764 0.7764 0.7764
v -0.175567 0.012000 -0.010199 0.7804 0.7804 0.7804
v -0.183257 -0.005600 -0.012404 0.7333 0.7333 0.7333
v -0.190947 0.012000 -0.014609 0.8431 0.8431 0.8431
v -0.174769 0.012000 0.012655 0.7725 0.7725 0.7725
v -0.189804 0.012000 0.018127 0.8431 0.8431 0.8431
v -0.165164 0.029600 0.037307 0.9058 0.9058 0.9058
v -0.182286 0.029600 0.015391 0.9137 0.9137 0.9137
v -0.182286 -0.005600 0.015391 0.7294 0.7294 0.7294
v -0.165164 -0.005600 0.037307 0.7294 0.7294 0.7294
v -0.160690 0.012000 0.030674 0.7764 0.7764 0.7764
v -0.138709 0.012000 0.036977 0.7725 0.7725 0.7725
v -0.138430 -0.005600 0.044973 0.7333 0.7333 0.7333
v -0.138150 0.012000 0.052968 0.8431 0.8431 0.8431
v -0.169637 0.012000 0.043939 0.8431 0.8431 0.8431
v -0.112295 0.029600 0.035460 0.9058 0.9058 0.9058
v -0.138430 0.029600 0.044973 0.9058 0.9058 0.9058
v -0.112295 -0.005600 0.035460 0.7333 0.7333 0.7333
v -0.107370 0.012000 0.041765 0.8470 0.8470 0.8470
v -0.117221 0.012000 0.029156 0.7764 0.7764 0.7764
v -0.089053 0.012000 0.014609 0.8431 0.8431 0.8431
v -0.090196 0.012000 -0.018127 0.6667 0.6667 0.6667
v -0.097714 0.029600 -0.015391 0.9019 0.9019 0.9019
v -0.096743 0.029600 0.012404 0.9058 0.9058 0.9058
v -0.104433 0.012000 0.010199 0.7725 0.7725 0.7725
v -0.105231 0.012000 -0.012655 0.7725 0.7725 0.7725
v -0.096743 -0.005600 0.012404 0.7216 0.7216 0.7216
v -0.098992 -0.003000 -0.004284 0.6863 0.6863 0.6863
v -0.070801 0.027000 -0.014544 0.9098 0.9098 0.9098
v -0.105832 -0.003000 -0.023078 0.6863 0.6863 0.6863
v -0.105832 0.027000 -0.023078 0.8078 0.8078 0.8078
v -0.098992 0.027000 -0.004284 0.8039 0.8039 0.8039
v -0.070801 -0.003000 -0.014544 0.7098 0.7098 0.7098
v -0.077642 0.027000 -0.033338 0.9098 0.9098 0.9098
v -0.077642 -0.003000 -0.033338 0.7647 0.7647 0.7647
v 0.203000 0.012000 -0.030000 0.6667 0.6667 0.6667
v 0.195000 0.029600 -0.030000 0.9058 0.9058 0.9058
v 0.186406 0.029600 -0.056450 0.9098 0.9098 0.9098
v 0.187000 0.012000 -0.030000 0.7725 0.7725 0.7725
v 0.186406 -0.005600 -0.056450 0.7294 0.7294 0.7294
v 0.192878 0.012000 -0.061153 0.8470 0.8470 0.8470
v 0.163906 0.029600 -0.072798 0.9137 0.9137 0.9137
v 0.179934 0.012000 -0.051748 0.7725 0.7725 0.7725
v 0.163906 -0.005600 -0.072798 0.7333 0.7333 0.7333
v 0.136094 0.029600 -0.072798 0.9058 0.9058 0.9058
v 0.161434 0.012000 -0.065189 0.7725 0.7725 0.7725
v 0.133622 0.012000 -0.080406 0.8549 0.8549 0.8549
v 0.166378 0.012000 -0.080406 0.8549 0.8549 0.8549
v 0.107122 0.012000 -0.061153 0.8431 0.8431 0.8431
v 0.138566 0.012000 -0.065189 0.7764 0.7764 0.7764
v 0.113594 -0.005600 -0.056450 0.7294 0.7294 0.7294
v 0.136094 -0.005600 -0.072798 0.7333 0.7333 0.7333
v 0.113594 0.029600 -0.056450 0.9019 0.9019 0.9019
v 0.120066 0.012000 -0.051748 0.7764 0.7764 0.7764
v 0.113000 0.012000 -0.030000 0.7764 0.7764 0.7764
v 0.097000 0.012000 -0.030000 0.7568 0.7568 0.7568
v 0.107122 0.012000 0.001153 0.8392 0.8392 0.8392
v 0.113594 0.029600 -0.003550 0.9098 0.9098 0.9098
v 0.105000 0.029600 -0.030000 0.9058 0.9058 0.9058
v 0.105000 -0.005600 -0.030000 0.7176 0.7176 0.7176
v 0.113594 -0.005600 -0.003550 0.7255 0.7255 0.7255
v 0.120066 0.012000 -0.008252 0.7764 0.7764 0.7764
v 0.136094 -0.005600 0.012798 0.7333 0.7333 0.7333
v 0.133622 0.012000 0.020406 0.8392 0.8392 0.8392
v 0.136094 0.029600 0.012798 0.9058 0.9058 0.9058
v 0.138566 0.012000 0.005189 0.7764 0.7764 0.7764
v 0.163906 -0.005600 0.012798 0.7333 0.7333 0.7333
v 0.166378 0.012000 0.020406 0.8470 0.8470 0.8470
v 0.192878 0.012000 0.001153 0.8470 0.8470 0.8470
v 0.186406 0.029600 -0.003550 0.9098 0.9098 0.9098
v 0.163906 0.029600 0.012798 0.9058 0.9058 0.9058
v 0.161434 0.012000 0.005189 0.7725 0.7725 0.7725
v 0.179934 0.012000 -0.008252 0.7764 0.7764 0.7764
v 0.186406 -0.005600 -0.003550 0.7294 0.7294 0.7294
v 0.195000 -0.005600 -0.030000 0.6863 0.6863 0.6863
v 0.190000 -0.003000 -0.020000 0.6863 0.6863 0.6863
v 0.220000 -0.003000 -0.020000 0.7725 0.7725 0.7725
v 0.220000 0.027000 -0.020000 0.9098 0.9098 0.9098
v 0.220000 -0.003000 -0.040000 0.7725 0.7725 0.7725
v 0.190000 0.027000 -0.040000 0.8039 0.8039 0.8039
v 0.190000 0.027000 -0.020000 0.8000 0.8000 0.8000
v 0.220000 0.027000 -0.040000 0.9137 0.9137 0.9137
v 0.190000 -0.003000 -0.040000 0.6863 0.6863 0.6863
v -0.082254 0.002536 0.001408 0.6902 0.6902 0.6902
v -0.080028 0.002536 -0.008663 0.7020 0.7020 0.7020
v -0.082254 0.009464 0.001408 0.8117 0.8117 0.8117
v -0.080028 0.009464 -0.008663 0.7843 0.7843 0.7843
v -0.087107 0.006000 -0.010366 0.6667 0.6667 0.6667
v -0.067775 0.002536 -0.016322 0.6902 0.6902 0.6902
v -0.067775 0.009464 -0.016322 0.8157 0.8157 0.8157
v -0.049097 0.006000 -0.019314 0.7451 0.7451 0.7451
v -0.057746 0.002536 -0.013908 0.6745 0.6745 0.6745
v -0.066204 0.006000 -0.023431 0.7921 0.7921 0.7921
v -0.059972 0.002536 -0.003837 0.6863 0.6863 0.6863
v -0.059972 0.009464 -0.003837 0.8431 0.8431 0.8431
v -0.057746 0.009464 -0.013908 0.6980 0.6980 0.6980
v -0.052893 0.006000 -0.002134 0.8274 0.8274 0.8274
v -0.072225 0.002536 0.003822 0.6941 0.6941 0.6941
v -0.073796 0.006000 0.010931 0.8196 0.8196 0.8196
v -0.090903 0.006000 0.006814 0.7020 0.7020 0.7020
v -0.072225 0.009464 0.003822 0.8470 0.8470 0.8470
v -0.054291 0.013361 -0.011983 0.7960 0.7960 0.7960
v -0.060418 0.006000 -0.008154 0.6824 0.6824 0.6824
v -0.070903 0.006000 -0.005686 0.7216 0.7216 0.7216
v -0.060452 0.018557 -0.012218 0.8902 0.8902 0.8902
v -0.039548 0.018557 -0.025282 0.9176 0.9176 0.9176
v -0.057963 0.013361 -0.017858 0.7725 0.7725 0.7725
v -0.045709 0.013361 -0.025517 0.7882 0.7882 0.7882
v -0.042037 0.013361 -0.019642 0.7960 0.7960 0.7960
v -0.029097 0.006000 -0.031814 0.7490 0.7490 0.7490
v -0.039582 0.006000 -0.029346 0.6863 0.6863 0.6863
v -0.035910 0.006000 -0.023471 0.6863 0.6863 0.6863
v -0.042037 -0.001361 -0.019642 0.7529 0.7529 0.7529
v -0.039548 -0.006557 -0.025282 0.7490 0.7490 0.7490
v -0.057963 -0.001361 -0.017858 0.7529 0.7529 0.7529
v -0.045709 -0.001361 -0.025517 0.7568 0.7568 0.7568
v -0.064090 0.006000 -0.014029 0.6745 0.6745 0.6745
v -0.054291 -0.001361 -0.011983 0.7608 0.7608 0.7608
v -0.060452 -0.006557 -0.012218 0.7333 0.7333 0.7333
v -0.050903 0.006000 -0.018186 0.7412 0.7412 0.7412
v -0.047107 0.006000 -0.035366 0.8196 0.8196 0.8196
v -0.040028 0.002536 -0.033663 0.6902 0.6902 0.6902
v -0.040028 0.009464 -0.033663 0.8588 0.8588 0.8588
v -0.026204 0.006000 -0.048431 0.8274 0.8274 0.8274
v -0.027775 0.002536 -0.041322 0.6902 0.6902 0.6902
v -0.027775 0.009464 -0.041322 0.8627 0.8627 0.8627
v -0.017746 0.009464 -0.038908 0.6980 0.6980 0.6980
v -0.009097 0.006000 -0.044314 0.7412 0.7412 0.7412
v -0.017746 0.002536 -0.038908 0.6745 0.6745 0.6745
v -0.019972 0.002536 -0.028837 0.6902 0.6902 0.6902
v -0.019972 0.009464 -0.028837 0.8588 0.8588 0.8588
v -0.012893 0.006000 -0.027134 0.8196 0.8196 0.8196
v -0.032225 0.009464 -0.021178 0.8627 0.8627 0.8627
v -0.033796 0.006000 -0.014069 0.8274 0.8274 0.8274
v -0.032225 0.002536 -0.021178 0.6941 0.6941 0.6941
v -0.042254 0.002536 -0.023592 0.6706 0.6706 0.6706
v -0.042254 0.009464 -0.023592 0.6941 0.6941 0.6941
v -0.020452 0.018557 -0.037218 0.9176 0.9176 0.9176
v -0.017963 0.013361 -0.042858 0.7921 0.7921 0.7921
v -0.014291 0.013361 -0.036983 0.7960 0.7960 0.7960
v -0.020418 0.006000 -0.033154 0.6863 0.6863 0.6863
v -0.030903 0.006000 -0.030686 0.7490 0.7490 0.7490
v 0.000452 0.018557 -0.050282 0.9176 0.9176 0.9176
v -0.005709 0.013361 -0.050517 0.8000 0.8000 0.8000
v 0.000418 0.006000 -0.054346 0.6667 0.6667 0.6667
v 0.004090 0.006000 -0.048471 0.7333 0.7333 0.7333
v -0.002037 0.013361 -0.044642 0.7960 0.7960 0.7960
v 0.010903 0.006000 -0.056814 0.6667 0.6667 0.6667
v -0.002037 -0.001361 -0.044642 0.7412 0.7412 0.7412
v 0.000452 -0.006557 -0.050282 0.7490 0.7490 0.7490
v -0.005709 -0.001361 -0.050517 0.7647 0.7647 0.7647
v -0.020452 -0.006557 -0.037218 0.7451 0.7451 0.7451
v -0.017963 -0.001361 -0.042858 0.7647 0.7647 0.7647
v -0.024090 0.006000 -0.039029 0.6824 0.6824 0.6824
v -0.014291 -0.001361 -0.036983 0.7568 0.7568 0.7568
v 0.005794 0.002536 -0.056253 0.6785 0.6785 0.6785
v 0.001943 0.006000 -0.062432 0.8313 0.8313 0.8313
v 0.026006 0.006000 -0.057085 0.8235 0.8235 0.8235
v 0.019900 0.002536 -0.053119 0.6902 0.6902 0.6902
v 0.019900 0.009464 -0.053119 0.8549 0.8549 0.8549
v 0.005794 0.009464 -0.056253 0.8353 0.8353 0.8353
v 0.025356 0.002536 -0.044365 0.6745 0.6745 0.6745
v 0.025356 0.009464 -0.044365 0.7059 0.7059 0.7059
v 0.035313 0.006000 -0.042153 0.6667 0.6667 0.6667
v 0.020557 0.006000 -0.032568 0.8235 0.8235 0.8235
v 0.002600 0.002536 -0.041881 0.7059 0.7059 0.7059
v 0.016706 0.002536 -0.038747 0.6941 0.6941 0.6941
v 0.016706 0.009464 -0.038747 0.8549 0.8549 0.8549
v -0.003506 0.006000 -0.037915 0.8078 0.8078 0.8078
v -0.002856 0.002536 -0.050635 0.6785 0.6785 0.6785
v 0.002600 0.009464 -0.041881 0.8627 0.8627 0.8627
v -0.002856 0.009464 -0.050635 0.7059 0.7059 0.7059
v -0.012813 0.006000 -0.052847 0.8117 0.8117 0.8117
v 0.009687 0.006000 -0.047847 0.7412 0.7412 0.7412
v 0.020396 0.006000 -0.049016 0.6863 0.6863 0.6863
v 0.018893 0.006000 -0.042253 0.6863 0.6863 0.6863
v 0.025946 0.013361 -0.040686 0.7921 0.7921 0.7921
v 0.021718 0.018557 -0.045174 0.9176 0.9176 0.9176
v 0.027449 0.013361 -0.047449 0.8000 0.8000 0.8000
v 0.041554 0.013361 -0.044314 0.8000 0.8000 0.8000
v 0.040051 0.013361 -0.037551 0.7921 0.7921 0.7921
v 0.057813 0.006000 -0.037153 0.6667 0.6667 0.6667
v 0.048607 0.006000 -0.042747 0.6863 0.6863 0.6863
v 0.047104 0.006000 -0.035984 0.6863 0.6863 0.6863
v 0.045782 0.018557 -0.039826 0.9137 0.9137 0.9137
v 0.045782 -0.006557 -0.039826 0.7490 0.7490 0.7490
v 0.041554 -0.001361 -0.044314 0.7608 0.7608 0.7608
v 0.040051 -0.001361 -0.037551 0.7568 0.7568 0.7568
v 0.025946 -0.001361 -0.040686 0.7647 0.7647 0.7647
v 0.027449 -0.001361 -0.047449 0.7647 0.7647 0.7647
v 0.021718 -0.006557 -0.045174 0.7451 0.7451 0.7451
v 0.046943 0.006000 -0.052432 0.8235 0.8235 0.8235
v 0.050794 0.002536 -0.046253 0.6902 0.6902 0.6902
v 0.042144 0.002536 -0.040635 0.6745 0.6745 0.6745
v 0.042144 0.009464 -0.040635 0.7020 0.7020 0.7020
v 0.050794 0.009464 -0.046253 0.8549 0.8549 0.8549
v 0.071006 0.006000 -0.047085 0.8157 0.8157 0.8157
v 0.064900 0.002536 -0.043119 0.6863 0.6863 0.6863
v 0.064900 0.009464 -0.043119 0.8470 0.8470 0.8470
v 0.080313 0.006000 -0.032153 0.7412 0.7412 0.7412
v 0.061706 0.002536 -0.028747 0.6941 0.6941 0.6941
v 0.070356 0.002536 -0.034365 0.6745 0.6745 0.6745
v 0.070356 0.009464 -0.034365 0.6980 0.6980 0.6980
v 0.065557 0.006000 -0.022568 0.8235 0.8235 0.8235
v 0.047600 0.002536 -0.031881 0.6941 0.6941 0.6941
v 0.061706 0.009464 -0.028747 0.8588 0.8588 0.8588
v 0.047600 0.009464 -0.031881 0.8549 0.8549 0.8549
v 0.041494 0.006000 -0.027915 0.8274 0.8274 0.8274
v 0.032187 0.006000 -0.042847 0.6667 0.6667 0.6667
v 0.072449 0.013361 -0.037449 0.7882 0.7882 0.7882
v 0.070946 0.013361 -0.030686 0.7960 0.7960 0.7960
v 0.054687 0.006000 -0.037847 0.6667 0.6667 0.6667
v 0.066718 0.018557 -0.035174 0.9176 0.9176 0.9176
v 0.090782 0.018557 -0.029826 0.8862 0.8862 0.8862
v 0.086554 0.013361 -0.034314 0.7804 0.7804 0.7804
v 0.093607 0.006000 -0.032747 0.7647 0.7647 0.7647
v 0.085051 0.013361 -0.027551 0.7882 0.7882 0.7882
v 0.092104 0.006000 -0.025984 0.7804 0.7804 0.7804
v 0.102813 0.006000 -0.027153 0.6667 0.6667 0.6667
v 0.085051 -0.001361 -0.027551 0.8039 0.8039 0.8039
v 0.090782 -0.006557 -0.029826 0.7372 0.7372 0.7372
v 0.086554 -0.001361 -0.034314 0.7921 0.7921 0.7921
v 0.070946 -0.001361 -0.030686 0.7568 0.7568 0.7568
v 0.066718 -0.006557 -0.035174 0.7490 0.7490 0.7490
v 0.065396 0.006000 -0.039016 0.6863 0.6863 0.6863
v 0.072449 -0.001361 -0.037449 0.7529 0.7529 0.7529
v 0.063893 0.006000 -0.032253 0.6863 0.6863 0.6863
vn 0.9397 -0.0000 -0.3420
vn 0.5592 -0.0000 -0.8290
vn 0.5091 0.4138 -0.7547
vn 0.8555 0.4138 -0.3114
vn -0.8555 0.4138 0.3114
vn -0.5091 0.4138 0.7547
vn -0.5592 -0.0000 0.8290
vn -0.9397 -0.0000 0.3420
vn -0.5091 -0.4138 0.7547
vn -0.8555 -0.4138 0.3114
vn 0.8555 -0.4138 -0.3114
vn 0.5091 -0.4138 -0.7547
vn -0.0349 -0.0000 -0.9994
vn -0.0318 0.4138 -0.9098
vn 0.0318 0.4138 0.9098
vn 0.0349 -0.0000 0.9994
vn 0.0318 -0.4138 0.9098
vn -0.0318 -0.4138 -0.9098
vn -0.6157 -0.0000 -0.7880
vn -0.5605 0.4138 -0.7174
vn 0.5605 0.4138 0.7174
vn 0.6157 -0.0000 0.7880
vn 0.5605 -0.4138 0.7174
vn -0.5605 -0.4138 -0.7174
vn -0.9613 -0.0000 -0.2756
vn -0.8751 0.4138 -0.2509
vn 0.8751 0.4138 0.2509
vn 0.9613 -0.0000 0.2756
vn 0.8751 -0.4138 0.2509
vn -0.8751 -0.4138 -0.2509
vn 0.3420 -0.0000 0.9397
vn -0.3420 -0.0000 -0.9397
vn -0.0000 1.0000 -0.0000
vn -0.0000 -1.0000 -0.0000
vn 1.0000 -0.0000 -0.0000
vn 0.8090 -0.0000 -0.5878
vn 0.7365 0.4138 -0.5351
vn 0.9104 0.4138 -0.0000
vn -0.9104 0.4138 -0.0000
vn -0.7365 0.4138 0.5351
vn -0.8090 -0.0000 0.5878
vn -1.0000 -0.0000 -0.0000
vn -0.7365 -0.4138 0.5351
vn -0.9104 -0.4138 -0.0000
vn 0.9104 -0.4138 -0.0000
vn 0.7365 -0.4138 -0.5351
vn 0.3090 -0.0000 -0.9511
vn 0.2813 0.4138 -0.8658
vn -0.2813 0.4138 0.8658
vn -0.3090 -0.0000 0.9511
vn -0.2813 -0.4138 0.8658
vn 0.2813 -0.4138 -0.8658
vn -0.3090 -0.0000 -0.9511
vn -0.2813 0.4138 -0.8658
vn 0.2813 0.4138 0.8658
vn 0.3090 -0.0000 0.9511
vn 0.2813 -0.4138 0.8658
vn -0.2813 -0.4138 -0.8658
vn -0.8090 -0.0000 -0.5878
vn -0.7365 0.4138 -0.5351
vn 0.7365 0.4138 0.5351
vn 0.8090 -0.0000 0.5878
vn 0.7365 -0.4138 0.5351
vn -0.7365 -0.4138 -0.5351
vn -0.0000 -0.0000 1.0000
vn -0.0000 -0.0000 -1.0000
vn -0.2727 -0.9469 0.1704
vn -0.3812 -0.8943 -0.2343
vn -0.3529 -0.8789 -0.3208
vn 0.9764 -0.0000 0.2158
vn 0.8169 -0.0000 0.5768
vn -0.2727 0.9469 0.1704
vn -0.3529 0.8789 -0.3208
vn -0.3812 0.8943 -0.2343
vn -0.0436 -0.8943 -0.4454
vn -0.1337 -0.8789 -0.4578
vn 0.1605 -0.0000 0.9870
vn -0.1337 0.8789 -0.4578
vn -0.0436 0.8943 -0.4454
vn 0.2727 -0.9469 -0.1704
vn -0.2339 -0.0000 0.9722
vn 0.2727 0.9469 -0.1704
vn 0.3812 -0.8943 0.2343
vn 0.3529 -0.8789 0.3208
vn -0.9764 -0.0000 -0.2158
vn -0.8169 -0.0000 -0.5768
vn 0.3529 0.8789 0.3208
vn 0.3812 0.8943 0.2343
vn 0.0436 -0.8943 0.4454
vn 0.1337 -0.8789 0.4578
vn -0.1605 -0.0000 -0.9870
vn 0.1337 0.8789 0.4578
vn 0.0436 0.8943 0.4454
vn 0.2339 -0.0000 -0.9722
vn -0.7745 -0.0000 -0.6325
vn -0.6428 0.4008 -0.6528
vn -0.5755 0.4591 -0.6768
vn 0.6052 -0.7005 -0.3782
vn 0.3282 -0.9221 -0.2051
vn 0.2291 -0.0000 0.9734
vn 0.3562 0.4591 0.8139
vn 0.3051 0.4008 0.8639
vn -0.3051 0.4008 -0.8639
vn -0.3562 0.4591 -0.8139
vn -0.3282 -0.9221 0.2051
vn 0.5755 0.4591 0.6768
vn 0.6428 0.4008 0.6528
vn -0.2291 -0.0000 -0.9734
vn -0.6052 -0.7005 0.3782
vn 0.7745 -0.0000 0.6325
vn -0.3051 -0.4008 -0.8639
vn -0.3562 -0.4591 -0.8139
vn -0.6052 0.7005 0.3782
vn -0.3282 0.9221 0.2051
vn 0.5755 -0.4591 0.6768
vn 0.6428 -0.4008 0.6528
vn -0.6428 -0.4008 -0.6528
vn -0.5755 -0.4591 -0.6768
vn 0.3282 0.9221 -0.2051
vn 0.3562 -0.4591 0.8139
vn 0.3051 -0.4008 0.8639
vn 0.6052 0.7005 -0.3782
vn -0.3139 -0.9469 -0.0698
vn -0.1074 -0.8943 -0.4344
vn -0.0266 -0.8789 -0.4762
vn 0.5447 -0.0000 0.8386
vn 0.1777 -0.0000 0.9841
vn -0.3139 0.9469 -0.0698
vn -0.0266 0.8789 -0.4762
vn -0.1074 0.8943 -0.4344
vn 0.2813 -0.8943 -0.3480
vn 0.2258 -0.8789 -0.4201
vn -0.5778 -0.0000 0.8162
vn 0.2258 0.8789 -0.4201
vn 0.2813 0.8943 -0.3480
vn 0.3139 -0.9469 0.0698
vn -0.8486 -0.0000 0.5290
vn 0.3139 0.9469 0.0698
vn 0.1074 -0.8943 0.4344
vn 0.0266 -0.8789 0.4762
vn -0.5447 -0.0000 -0.8386
vn -0.1777 -0.0000 -0.9841
vn 0.0266 0.8789 0.4762
vn 0.1074 0.8943 0.4344
vn -0.2813 -0.8943 0.3480
vn -0.2258 -0.8789 0.4201
vn 0.5778 -0.0000 -0.8162
vn -0.2258 0.8789 0.4201
vn -0.2813 0.8943 0.3480
vn 0.8486 -0.0000 -0.5290
vn -0.1085 -0.0000 -0.9941
vn -0.0004 0.4008 -0.9162
vn 0.0645 0.4591 -0.8861
vn 0.6967 -0.7005 0.1548
vn 0.3778 -0.9221 0.0840
vn -0.5193 -0.0000 0.8546
vn -0.3169 0.4591 0.8300
vn -0.3884 0.4008 0.8298
vn 0.3884 0.4008 -0.8298
vn 0.3169 0.4591 -0.8300
vn -0.3778 -0.9221 -0.0840
vn -0.0645 0.4591 0.8861
vn 0.0004 0.4008 0.9162
vn 0.5193 -0.0000 -0.8546
vn -0.6967 -0.7005 -0.1548
vn 0.1085 -0.0000 0.9941
vn 0.3884 -0.4008 -0.8298
vn 0.3169 -0.4591 -0.8300
vn -0.6967 0.7005 -0.1548
vn -0.3778 0.9221 -0.0840
vn -0.0645 -0.4591 0.8861
vn 0.0004 -0.4008 0.9162
vn -0.0004 -0.4008 -0.9162
vn 0.0645 -0.4591 -0.8861
vn 0.3778 0.9221 0.0840
vn -0.3169 -0.4591 0.8300
vn -0.3884 -0.4008 0.8298
vn 0.6967 0.7005 0.1548
vt 0.250977 0.875977
vt 0.263281 0.875977
vt 0.263281 0.906738
vt 0.250977 0.906738
vt 0.263281 0.937500
vt 0.250977 0.937500
vt 0.263281 0.968262
vt 0.250977 0.968262
vt 0.263281 0.999023
vt 0.250977 0.999023
vt 0.275586 0.875977
vt 0.275586 0.906738
vt 0.275586 0.937500
vt 0.275586 0.968262
vt 0.275586 0.999023
vt 0.287891 0.875977
vt 0.287891 0.906738
vt 0.287891 0.937500
vt 0.287891 0.968262
vt 0.287891 0.999023
vt 0.300195 0.875977
vt 0.300195 0.906738
vt 0.300195 0.937500
vt 0.300195 0.968262
vt 0.300195 0.999023
vt 0.312500 0.875977
vt 0.312500 0.906738
vt 0.312500 0.937500
vt 0.312500 0.968262
vt 0.312500 0.999023
vt 0.324805 0.875977
vt 0.324805 0.906738
vt 0.324805 0.937500
vt 0.324805 0.968262
vt 0.324805 0.999023
vt 0.337109 0.875977
vt 0.337109 0.906738
vt 0.337109 0.937500
vt 0.337109 0.968262
vt 0.337109 0.999023
vt 0.349414 0.875977
vt 0.349414 0.906738
vt 0.349414 0.937500
vt 0.349414 0.968262
vt 0.349414 0.999023
vt 0.361719 0.875977
vt 0.361719 0.906738
vt 0.361719 0.937500
vt 0.361719 0.968262
vt 0.361719 0.999023
vt 0.374023 0.875977
vt 0.374023 0.906738
vt 0.374023 0.937500
vt 0.374023 0.968262
vt 0.374023 0.999023
vt 0.280508 0.875977
vt 0.280508 0.905508
vt 0.250977 0.905508
vt 0.270664 0.875977
vt 0.270664 0.905508
vt 0.280508 0.895664
vt 0.250977 0.895664
vt 0.271484 0.875977
vt 0.271484 0.916992
vt 0.250977 0.916992
vt 0.271484 0.958008
vt 0.250977 0.958008
vt 0.271484 0.999023
vt 0.291992 0.875977
vt 0.291992 0.916992
vt 0.291992 0.958008
vt 0.291992 0.999023
vt 0.312500 0.916992
vt 0.312500 0.958008
vt 0.333008 0.875977
vt 0.333008 0.916992
vt 0.333008 0.958008
vt 0.333008 0.999023
vt 0.353516 0.875977
vt 0.353516 0.916992
vt 0.353516 0.958008
vt 0.353516 0.999023
vt 0.374023 0.916992
vt 0.374023 0.958008
s 1
usemtl props
f 35/1/1 1/2/2 4/3/3 36/4/4
f 36/4/5 4/3/6 5/5/7 39/6/8
f 39/6/8 5/5/7 8/7/9 2/8/10
f 2/8/11 8/7/12 1/9/2 35/10/1
f 1/2/2 12/11/13 3/12/14 4/3/3
f 4/3/6 3/12/15 6/13/16 5/5/7
f 5/5/7 6/13/16 7/14/17 8/7/9
f 8/7/12 7/14/18 12/15/13 1/9/2
f 12/11/13 9/16/19 10/17/20 3/12/14
f 3/12/15 10/17/21 14/18/22 6/13/16
f 6/13/16 14/18/22 11/19/23 7/14/17
f 7/14/18 11/19/24 9/20/19 12/15/13
f 9/16/19 17/21/25 13/22/26 10/17/20
f 10/17/21 13/22/27 15/23/28 14/18/22
f 14/18/22 15/23/28 16/24/29 11/19/23
f 11/19/24 16/24/30 17/25/25 9/20/19
f 17/21/25 19/26/8 21/27/5 13/22/26
f 13/22/27 21/27/4 18/28/1 15/23/28
f 15/23/28 18/28/1 22/29/11 16/24/29
f 16/24/30 22/29/10 19/30/8 17/25/25
f 19/26/8 28/31/7 20/32/6 21/27/5
f 21/27/4 20/32/3 24/33/2 18/28/1
f 18/28/1 24/33/2 23/34/12 22/29/11
f 22/29/10 23/34/9 28/35/7 19/30/8
f 28/31/7 27/36/16 30/37/15 20/32/6
f 20/32/3 30/37/14 25/38/13 24/33/2
f 24/33/2 25/38/13 26/39/18 23/34/12
f 23/34/9 26/39/17 27/40/16 28/35/7
f 27/36/16 32/41/22 29/42/21 30/37/15
f 30/37/14 29/42/20 33/43/19 25/38/13
f 25/38/13 33/43/19 31/44/24 26/39/18
f 26/39/17 31/44/23 32/45/22 27/40/16
f 32/41/22 34/46/28 37/47/27 29/42/21
f 29/42/20 37/47/26 38/48/25 33/43/19
f 33/43/19 38/48/25 40/49/30 31/44/24
f 31/44/23 40/49/29 34/50/28 32/45/22
f 34/46/28 35/51/1 36/52/4 37/47/27
f 37/47/26 36/52/5 39/53/8 38/48/25
f 38/48/25 39/53/8 2/54/10 40/49/30
f 40/49/29 2/54/11 35/55/1 34/50/28
s 0
f 41/1/31 46/56/31 42/57/31 45/58/31
f 48/1/32 43/56/32 44/57/32 47/58/32
f 43/1/8 41/59/8 45/60/8 44/58/8
f 46/1/1 48/59/1 47/60/1 42/58/1
f 45/1/33 42/56/33 47/61/33 44/62/33
f 43/1/34 48/56/34 46/61/34 41/62/34
s 1
f 49/1/35 54/2/36 51/3/37 50/4/38
f 50/4/39 51/3/40 56/5/41 52/6/42
f 52/6/42 56/5/41 53/7/43 88/8/44
f 88/8/45 53/7/46 54/9/36 49/10/35
f 54/2/36 61/11/47 55/12/48 51/3/37
f 51/3/40 55/12/49 59/13/50 56/5/41
f 56/5/41 59/13/50 57/14/51 53/7/43
f 53/7/46 57/14/52 61/15/47 54/9/36
f 61/11/47 60/16/53 58/17/54 55/12/48
f 55/12/49 58/17/55 63/18/56 59/13/50
f 59/13/50 63/18/56 65/19/57 57/14/51
f 57/14/52 65/19/58 60/20/53 61/15/47
f 60/16/53 62/21/59 66/22/60 58/17/54
f 58/17/55 66/22/61 67/23/62 63/18/56
f 63/18/56 67/23/62 64/24/63 65/19/57
f 65/19/58 64/24/64 62/25/59 60/20/53
f 62/21/59 69/26/42 72/27/39 66/22/60
f 66/22/61 72/27/38 68/28/35 67/23/62
f 67/23/62 68/28/35 73/29/45 64/24/63
f 64/24/64 73/29/44 69/30/42 62/25/59
f 69/26/42 70/31/41 71/32/40 72/27/39
f 72/27/38 71/32/37 75/33/36 68/28/35
f 68/28/35 75/33/36 74/34/46 73/29/45
f 73/29/44 74/34/43 70/35/41 69/30/42
f 70/31/41 77/36/50 78/37/49 71/32/40
f 71/32/37 78/37/48 79/38/47 75/33/36
f 75/33/36 79/38/47 76/39/52 74/34/46
f 74/34/43 76/39/51 77/40/50 70/35/41
f 77/36/50 81/41/56 84/42/55 78/37/49
f 78/37/48 84/42/54 85/43/53 79/38/47
f 79/38/47 85/43/53 80/44/58 76/39/52
f 76/39/51 80/44/57 81/45/56 77/40/50
f 81/41/56 82/46/62 83/47/61 84/42/55
f 84/42/54 83/47/60 86/48/59 85/43/53
f 85/43/53 86/48/59 87/49/64 80/44/58
f 80/44/57 87/49/63 82/50/62 81/45/56
f 82/46/62 49/51/35 50/52/38 83/47/61
f 83/47/60 50/52/39 52/53/42 86/48/59
f 86/48/59 52/53/42 88/54/44 87/49/64
f 87/49/63 88/54/45 49/55/35 82/50/62
s 0
f 89/1/65 90/56/65 91/57/65 94/58/65
f 92/1/66 96/56/66 93/57/66 95/58/66
f 96/1/42 89/59/42 94/60/42 93/58/42
f 90/1/35 92/59/35 95/60/35 91/58/35
f 94/1/33 91/56/33 95/61/33 93/62/33
f 96/1/34 92/56/34 90/61/34 89/62/34
s 1
f 113/1/67 101/63/68 98/64/69 97/65/67
f 97/65/70 98/64/71 100/66/71 99/67/70
f 99/67/72 100/66/73 101/68/74 113/10/72
f 101/63/68 106/69/75 102/70/76 98/64/69
f 98/64/71 102/70/77 103/71/77 100/66/71
f 100/66/73 103/71/78 106/72/79 101/68/74
f 106/69/75 104/26/80 105/73/80 102/70/76
f 102/70/77 105/73/81 109/74/81 103/71/77
f 103/71/78 109/74/82 104/30/82 106/72/79
f 104/26/80 110/75/83 107/76/84 105/73/80
f 105/73/85 107/76/86 108/77/86 109/74/85
f 109/74/82 108/77/87 110/78/88 104/30/82
f 110/75/83 112/79/89 111/80/90 107/76/84
f 107/76/86 111/80/91 114/81/91 108/77/86
f 108/77/87 114/81/92 112/82/93 110/78/88
f 112/79/89 113/51/67 97/83/67 111/80/90
f 111/80/91 97/83/94 99/84/94 114/81/91
f 114/81/92 99/84/72 113/55/72 112/82/93
f 117/1/95 118/63/96 120/64/97 130/65/95
f 130/65/98 120/64/99 115/66/99 116/67/98
f 116/67/100 115/66/101 118/68/102 117/10/100
f 118/63/96 119/69/103 121/70/104 120/64/97
f 120/64/99 121/70/105 122/71/105 115/66/99
f 115/66/101 122/71/106 119/72/107 118/68/102
f 119/69/103 123/26/108 124/73/108 121/70/104
f 121/70/105 124/73/109 125/74/109 122/71/105
f 122/71/106 125/74/110 123/30/110 119/72/107
f 123/26/108 127/75/111 129/76/112 124/73/108
f 124/73/113 129/76/114 126/77/114 125/74/113
f 125/74/110 126/77/115 127/78/116 123/30/110
f 127/75/111 132/79/117 128/80/118 129/76/112
f 129/76/114 128/80/119 131/81/119 126/77/114
f 126/77/115 131/81/120 132/82/121 127/78/116
f 132/79/117 117/51/95 130/83/95 128/80/118
f 128/80/119 130/83/122 116/84/122 131/81/119
f 131/81/120 116/84/100 117/55/100 132/82/121
f 133/1/67 134/63/68 135/64/69 149/65/67
f 149/65/70 135/64/71 136/66/71 150/67/70
f 150/67/72 136/66/73 134/68/74 133/10/72
f 134/63/68 137/69/75 138/70/76 135/64/69
f 135/64/71 138/70/77 139/71/77 136/66/71
f 136/66/73 139/71/78 137/72/79 134/68/74
f 137/69/75 141/26/80 142/73/80 138/70/76
f 138/70/77 142/73/81 140/74/81 139/71/77
f 139/71/78 140/74/82 141/30/82 137/72/79
f 141/26/80 145/75/83 143/76/84 142/73/80
f 142/73/85 143/76/86 144/77/86 140/74/85
f 140/74/82 144/77/87 145/78/88 141/30/82
f 145/75/83 147/79/89 148/80/90 143/76/84
f 143/76/86 148/80/91 146/81/91 144/77/86
f 144/77/87 146/81/92 147/82/93 145/78/88
f 147/79/89 133/51/67 149/83/67 148/80/90
f 148/80/91 149/83/94 150/84/94 146/81/91
f 146/81/92 150/84/72 133/55/72 147/82/93
f 155/1/95 151/63/96 152/64/97 167/65/95
f 167/65/98 152/64/99 153/66/99 154/67/98
f 154/67/100 153/66/101 151/68/102 155/10/100
f 151/63/96 156/69/103 157/70/104 152/64/97
f 152/64/99 157/70/105 160/71/105 153/66/99
f 153/66/101 160/71/106 156/72/107 151/68/102
f 156/69/103 161/26/108 158/73/108 157/70/104
f 157/70/105 158/73/109 159/74/109 160/71/105
f 160/71/106 159/74/110 161/30/110 156/72/107
f 161/26/108 163/75/111 164/76/112 158/73/108
f 158/73/113 164/76/114 162/77/114 159/74/113
f 159/74/110 162/77/115 163/78/116 161/30/110
f 163/75/111 165/79/117 166/80/118 164/76/112
f 164/76/114 166/80/119 168/81/119 162/77/114
f 162/77/115 168/81/120 165/82/121 163/78/116
f 165/79/117 155/51/95 167/83/95 166/80/118
f 166/80/119 167/83/122 154/84/122 168/81/119
f 168/81/120 154/84/100 155/55/100 165/82/121
f 186/1/123 170/63/124 169/64/125 183/65/123
f 183/65/126 169/64/127 174/66/127 185/67/126
f 185/67/128 174/66/129 170/68/130 186/10/128
f 170/63/124 171/69/131 172/70/132 169/64/125
f 169/64/127 172/70/133 173/71/133 174/66/127
f 174/66/129 173/71/134 171/72/135 170/68/130
f 171/69/131 177/26/136 175/73/136 172/70/132
f 172/70/133 175/73/137 176/74/137 173/71/133
f 173/71/134 176/74/138 177/30/138 171/72/135
f 177/26/136 178/75/139 180/76/140 175/73/136
f 175/73/141 180/76/142 181/77/142 176/74/141
f 176/74/138 181/77/143 178/78/144 177/30/138
f 178/75/139 182/79/145 179/80/146 180/76/140
f 180/76/142 179/80/147 184/81/147 181/77/142
f 181/77/143 184/81/148 182/82/149 178/78/144
f 182/79/145 186/51/123 183/83/123 179/80/146
f 179/80/147 183/83/150 185/84/150 184/81/147
f 184/81/148 185/84/128 186/55/128 182/82/149
f 187/1/151 191/63/152 192/64/153 188/65/151
f 188/65/154 192/64/155 190/66/155 189/67/154
f 189/67/156 190/66/157 191/68/158 187/10/156
f 191/63/152 198/69/159 193/70/160 192/64/153
f 192/64/155 193/70/161 194/71/161 190/66/155
f 190/66/157 194/71/162 198/72/163 191/68/158
f 198/69/159 195/26/164 196/73/164 193/70/160
f 193/70/161 196/73/165 197/74/165 194/71/161
f 194/71/162 197/74/166 195/30/166 198/72/163
f 195/26/164 199/75/167 200/76/168 196/73/164
f 196/73/169 200/76/170 201/77/170 197/74/169
f 197/74/166 201/77/171 199/78/172 195/30/166
f 199/75/167 204/79/173 203/80/174 200/76/168
f 200/76/170 203/80/175 202/81/175 201/77/170
f 201/77/171 202/81/176 204/82/177 199/78/172
f 204/79/173 187/51/151 188/83/151 203/80/174
f 203/80/175 188/83/178 189/84/178 202/81/175
f 202/81/176 189/84/156 187/55/156 204/82/177
f 222/1/123 205/63/124 206/64/125 207/65/123
f 207/65/126 206/64/127 209/66/127 208/67/126
f 208/67/128 209/66/129 205/68/130 222/10/128
f 205/63/124 210/69/131 211/70/132 206/64/125
f 206/64/127 211/70/133 212/71/133 209/66/127
f 209/66/129 212/71/134 210/72/135 205/68/130
f 210/69/131 213/26/136 215/73/136 211/70/132
f 211/70/133 215/73/137 216/74/137 212/71/133
f 212/71/134 216/74/138 213/30/138 210/72/135
f 213/26/136 217/75/139 214/76/140 215/73/136
f 215/73/141 214/76/142 219/77/142 216/74/141
f 216/74/138 219/77/143 217/78/144 213/30/138
f 217/75/139 221/79/145 218/80/146 214/76/140
f 214/76/142 218/80/147 220/81/147 219/77/142
f 219/77/143 220/81/148 221/82/149 217/78/144
f 221/79/145 222/51/123 207/83/123 218/80/146
f 218/80/147 207/83/150 208/84/150 220/81/147
f 220/81/148 208/84/128 222/55/128 221/82/149
f 225/1/151 226/63/152 223/64/153 238/65/151
f 238/65/154 223/64/155 224/66/155 240/67/154
f 240/67/156 224/66/157 226/68/158 225/10/156
f 226/63/152 227/69/159 228/70/160 223/64/153
f 223/64/155 228/70/161 230/71/161 224/66/155
f 224/66/157 230/71/162 227/72/163 226/68/158
f 227/69/159 232/26/164 229/73/164 228/70/160
f 228/70/161 229/73/165 231/74/165 230/71/161
f 230/71/162 231/74/166 232/30/166 227/72/163
f 232/26/164 234/75/167 235/76/168 229/73/164
f 229/73/169 235/76/170 233/77/170 231/74/169
f 231/74/166 233/77/171 234/78/172 232/30/166
f 234/75/167 237/79/173 239/80/174 235/76/168
f 235/76/170 239/80/175 236/81/175 233/77/170
f 233/77/171 236/81/176 237/82/177 234/78/172
f 237/79/173 225/51/151 238/83/151 239/80/174
f 239/80/175 238/83/178 240/84/178 236/81/175
f 236/81/176 240/84/156 225/55/156 237/82/177
