# Blender 4.5.14 LTS
# www.blender.org
mtllib ritual_circle.mtl
o ritual_circle
v -1.000000 0.002000 1.000000 1.0000 1.0000 1.0000
v 1.000000 0.002000 1.000000 1.0000 1.0000 1.0000
v 1.000000 0.002000 -1.000000 1.0000 1.0000 1.0000
v -1.000000 0.002000 -1.000000 1.0000 1.0000 1.0000
v 0.000000 0.000000 -0.860000 0.6667 0.6667 0.6667
v -0.030000 0.000000 -0.860000 0.6667 0.6667 0.6667
v 0.015000 0.000000 -0.834019 0.6667 0.6667 0.6667
v 0.030000 0.000000 -0.860000 0.6667 0.6667 0.6667
v 0.015000 0.000000 -0.885981 0.6667 0.6667 0.6667
v 0.015000 0.060000 -0.885981 0.9058 0.9058 0.9058
v -0.015000 0.000000 -0.885981 0.6667 0.6667 0.6667
v -0.015000 0.000000 -0.834019 0.6667 0.6667 0.6667
v -0.015000 0.060000 -0.834019 0.9137 0.9137 0.9137
v 0.009000 0.055000 -0.875588 0.9607 0.9607 0.9607
v -0.015000 0.060000 -0.885981 0.9098 0.9098 0.9098
v -0.030000 0.060000 -0.860000 0.9098 0.9098 0.9098
v -0.018000 0.055000 -0.860000 0.9529 0.9529 0.9529
v -0.009000 0.055000 -0.844412 0.9607 0.9607 0.9607
v 0.015000 0.060000 -0.834019 0.9137 0.9137 0.9137
v 0.030000 0.060000 -0.860000 0.9137 0.9137 0.9137
v 0.018000 0.055000 -0.860000 0.9568 0.9568 0.9568
v -0.009000 0.055000 -0.875588 0.9607 0.9607 0.9607
v 0.000000 0.056000 -0.860000 0.6667 0.6667 0.6667
v 0.009000 0.055000 -0.844412 0.9529 0.9529 0.9529
v 0.000846 0.023119 -0.893673 0.8235 0.8235 0.8235
v 0.000846 0.060000 -0.893673 0.8509 0.8509 0.8509
v 0.014000 0.060000 -0.890636 0.8509 0.8509 0.8509
v 0.000172 0.023119 -0.890750 0.7372 0.7372 0.7372
v 0.000172 0.060000 -0.890750 0.8313 0.8313 0.8313
v 0.013326 0.023119 -0.887713 0.7412 0.7412 0.7412
v 0.014000 0.023119 -0.890636 0.8313 0.8313 0.8313
v 0.013326 0.060000 -0.887713 0.8000 0.8000 0.8000
v -0.002678 0.025884 -0.826423 0.8196 0.8196 0.8196
v 0.010721 0.060000 -0.828069 0.8509 0.8509 0.8509
v -0.002678 0.060000 -0.826423 0.8470 0.8470 0.8470
v -0.003044 0.025884 -0.829401 0.7372 0.7372 0.7372
v -0.003044 0.060000 -0.829401 0.8274 0.8274 0.8274
v 0.010721 0.025884 -0.828069 0.8274 0.8274 0.8274
v 0.010356 0.025884 -0.831046 0.7333 0.7333 0.7333
v 0.010356 0.060000 -0.831046 0.8196 0.8196 0.8196
v 0.001500 0.055000 -0.860000 0.6667 0.6667 0.6667
v 0.000000 0.055000 -0.861500 0.6667 0.6667 0.6667
v -0.001500 0.067000 -0.860000 0.8980 0.8980 0.8980
v -0.001500 0.055000 -0.860000 0.6667 0.6667 0.6667
v 0.000000 0.067000 -0.858500 0.9019 0.9019 0.9019
v 0.000000 0.055000 -0.858500 0.6667 0.6667 0.6667
v 0.001500 0.067000 -0.860000 0.9058 0.9058 0.9058
v 0.000000 0.067000 -0.861500 0.9019 0.9019 0.9019
v -0.825919 0.000000 -0.300852 0.6667 0.6667 0.6667
v -0.825919 0.000000 -0.230657 0.6667 0.6667 0.6667
v -0.817909 0.000000 -0.265755 0.6667 0.6667 0.6667
v -0.781909 0.000000 -0.265755 0.6667 0.6667 0.6667
v -0.795463 0.090000 -0.293901 0.9255 0.9255 0.9255
v -0.795463 0.000000 -0.293901 0.6667 0.6667 0.6667
v -0.850343 0.000000 -0.281374 0.6667 0.6667 0.6667
v -0.850343 0.000000 -0.250135 0.6667 0.6667 0.6667
v -0.825919 0.090000 -0.230657 0.9176 0.9176 0.9176
v -0.795463 0.000000 -0.237609 0.6667 0.6667 0.6667
v -0.825919 0.090000 -0.300852 0.9215 0.9215 0.9215
v -0.850343 0.090000 -0.281374 0.9255 0.9255 0.9255
v -0.822715 0.085000 -0.286813 0.9725 0.9725 0.9725
v -0.850343 0.090000 -0.250135 0.8745 0.8745 0.8745
v -0.837370 0.085000 -0.256383 0.9725 0.9725 0.9725
v -0.795463 0.090000 -0.237609 0.9215 0.9215 0.9215
v -0.781909 0.090000 -0.265755 0.9255 0.9255 0.9255
v -0.796309 0.085000 -0.265755 0.9686 0.9686 0.9686
v -0.804441 0.085000 -0.248867 0.9725 0.9725 0.9725
v -0.804441 0.085000 -0.282642 0.9764 0.9764 0.9764
v -0.837370 0.085000 -0.275127 0.9686 0.9686 0.9686
v -0.822715 0.085000 -0.244696 0.9764 0.9764 0.9764
v -0.817909 0.086000 -0.265755 0.6667 0.6667 0.6667
v -0.854087 0.058767 -0.249089 0.8196 0.8196 0.8196
v -0.851164 0.058767 -0.249764 0.6667 0.6667 0.6667
v -0.854808 0.058767 -0.265549 0.7451 0.7451 0.7451
v -0.854808 0.090000 -0.265549 0.8392 0.8392 0.8392
v -0.857731 0.058767 -0.264874 0.8313 0.8313 0.8313
v -0.857731 0.090000 -0.264874 0.8627 0.8627 0.8627
v -0.851164 0.090000 -0.249764 0.7333 0.7333 0.7333
v -0.854087 0.090000 -0.249089 0.8509 0.8509 0.8509
v -0.850242 0.090000 -0.242492 0.8588 0.8588 0.8588
v -0.854091 0.047336 -0.258512 0.7412 0.7412 0.7412
v -0.854091 0.090000 -0.258512 0.8078 0.8078 0.8078
v -0.856831 0.047336 -0.257292 0.8274 0.8274 0.8274
v -0.856831 0.090000 -0.257292 0.8509 0.8509 0.8509
v -0.850242 0.047336 -0.242492 0.8313 0.8313 0.8313
v -0.847502 0.047336 -0.243712 0.7490 0.7490 0.7490
v -0.847502 0.090000 -0.243712 0.8313 0.8313 0.8313
v -0.817909 0.085000 -0.267255 0.6667 0.6667 0.6667
v -0.816409 0.097000 -0.265755 0.9098 0.9098 0.9098
v -0.819409 0.085000 -0.265755 0.6667 0.6667 0.6667
v -0.819409 0.097000 -0.265755 0.9137 0.9137 0.9137
v -0.817909 0.085000 -0.264255 0.6667 0.6667 0.6667
v -0.816409 0.085000 -0.265755 0.6667 0.6667 0.6667
v -0.817909 0.097000 -0.264255 0.9098 0.9098 0.9098
v -0.817909 0.097000 -0.267255 0.9137 0.9137 0.9137
v -0.490495 0.000000 0.669774 0.6667 0.6667 0.6667
v -0.520495 0.000000 0.669774 0.6667 0.6667 0.6667
v -0.535495 0.000000 0.695755 0.6667 0.6667 0.6667
v -0.505495 0.000000 0.695755 0.6667 0.6667 0.6667
v -0.490495 0.000000 0.721735 0.6667 0.6667 0.6667
v -0.520495 0.000000 0.721735 0.6667 0.6667 0.6667
v -0.475495 0.070000 0.695755 0.9137 0.9137 0.9137
v -0.520495 0.070000 0.669774 0.9176 0.9176 0.9176
v -0.475495 0.000000 0.695755 0.6667 0.6667 0.6667
v -0.496495 0.065000 0.680166 0.9607 0.9607 0.9607
v -0.490495 0.070000 0.669774 0.9176 0.9176 0.9176
v -0.535495 0.070000 0.695755 0.9137 0.9137 0.9137
v -0.520495 0.070000 0.721735 0.8784 0.8784 0.8784
v -0.514495 0.065000 0.711343 0.9607 0.9607 0.9607
v -0.523495 0.065000 0.695755 0.9529 0.9529 0.9529
v -0.496495 0.065000 0.711343 0.9529 0.9529 0.9529
v -0.490495 0.070000 0.721735 0.9098 0.9098 0.9098
v -0.487495 0.065000 0.695755 0.9568 0.9568 0.9568
v -0.514495 0.065000 0.680166 0.9607 0.9607 0.9607
v -0.505495 0.066000 0.695755 0.6667 0.6667 0.6667
v -0.527398 0.025506 0.721345 0.8235 0.8235 0.8235
v -0.527398 0.070000 0.721345 0.8549 0.8549 0.8549
v -0.514136 0.025506 0.725266 0.7490 0.7490 0.7490
v -0.525943 0.070000 0.718721 0.8274 0.8274 0.8274
v -0.525943 0.025506 0.718721 0.7451 0.7451 0.7451
v -0.515590 0.025506 0.727890 0.8274 0.8274 0.8274
v -0.514136 0.070000 0.725266 0.8313 0.8313 0.8313
v -0.515590 0.070000 0.727890 0.8549 0.8549 0.8549
v -0.485964 0.042164 0.723197 0.8313 0.8313 0.8313
v -0.476757 0.042164 0.713324 0.8313 0.8313 0.8313
v -0.478951 0.042164 0.711278 0.7372 0.7372 0.7372
v -0.488158 0.042164 0.721151 0.7372 0.7372 0.7372
v -0.485964 0.070000 0.723197 0.8509 0.8509 0.8509
v -0.488158 0.070000 0.721151 0.8078 0.8078 0.8078
v -0.478951 0.070000 0.711278 0.8274 0.8274 0.8274
v -0.476757 0.070000 0.713324 0.8549 0.8549 0.8549
v -0.505495 0.065000 0.694255 0.6667 0.6667 0.6667
v -0.506995 0.065000 0.695755 0.6667 0.6667 0.6667
v -0.506995 0.077000 0.695755 0.9058 0.9058 0.9058
v -0.505495 0.065000 0.697255 0.6667 0.6667 0.6667
v -0.505495 0.077000 0.697255 0.9019 0.9019 0.9019
v -0.503995 0.065000 0.695755 0.6667 0.6667 0.6667
v -0.503995 0.077000 0.695755 0.9058 0.9058 0.9058
v -0.505495 0.077000 0.694255 0.9058 0.9058 0.9058
v 0.505495 0.000000 0.695755 0.6667 0.6667 0.6667
v 0.541495 0.000000 0.695755 0.6667 0.6667 0.6667
v 0.497485 0.000000 0.660657 0.6667 0.6667 0.6667
v 0.527941 0.000000 0.667609 0.6667 0.6667 0.6667
v 0.473060 0.000000 0.711374 0.6667 0.6667 0.6667
v 0.527941 0.100000 0.667609 0.9294 0.9294 0.9294
v 0.473060 0.000000 0.680135 0.6667 0.6667 0.6667
v 0.497485 0.000000 0.730852 0.6667 0.6667 0.6667
v 0.527941 0.000000 0.723901 0.6667 0.6667 0.6667
v 0.518963 0.095000 0.678867 0.9764 0.9764 0.9764
v 0.497485 0.100000 0.660657 0.9058 0.9058 0.9058
v 0.473060 0.100000 0.680135 0.9255 0.9255 0.9255
v 0.486034 0.095000 0.686383 0.9686 0.9686 0.9686
v 0.473060 0.100000 0.711374 0.9255 0.9255 0.9255
v 0.500689 0.095000 0.716813 0.9764 0.9764 0.9764
v 0.497485 0.100000 0.730852 0.9215 0.9215 0.9215
v 0.518963 0.095000 0.712642 0.9725 0.9725 0.9725
v 0.527941 0.100000 0.723901 0.8666 0.8666 0.8666
v 0.541495 0.100000 0.695755 0.9294 0.9294 0.9294
v 0.527095 0.095000 0.695755 0.9686 0.9686 0.9686
v 0.500689 0.095000 0.674696 0.9725 0.9725 0.9725
v 0.505495 0.096000 0.695755 0.6667 0.6667 0.6667
v 0.486034 0.095000 0.705127 0.9725 0.9725 0.9725
v 0.516653 0.069869 0.733992 0.8431 0.8431 0.8431
v 0.515244 0.069869 0.731343 0.7451 0.7451 0.7451
v 0.516653 0.100000 0.733992 0.8627 0.8627 0.8627
v 0.515244 0.100000 0.731343 0.8392 0.8392 0.8392
v 0.530957 0.069869 0.726387 0.8431 0.8431 0.8431
v 0.529548 0.069869 0.723738 0.7568 0.7568 0.7568
v 0.529548 0.100000 0.723738 0.8157 0.8157 0.8157
v 0.530957 0.100000 0.726387 0.8627 0.8627 0.8627
v 0.498761 0.036695 0.656496 0.8313 0.8313 0.8313
v 0.498761 0.100000 0.656496 0.8666 0.8666 0.8666
v 0.498657 0.036695 0.659494 0.7412 0.7412 0.7412
v 0.514847 0.036695 0.660059 0.7333 0.7333 0.7333
v 0.514951 0.036695 0.657061 0.8274 0.8274 0.8274
v 0.514951 0.100000 0.657061 0.8666 0.8666 0.8666
v 0.514847 0.100000 0.660059 0.8235 0.8235 0.8235
v 0.498657 0.100000 0.659494 0.7725 0.7725 0.7725
v 0.506995 0.095000 0.695755 0.6667 0.6667 0.6667
v 0.505495 0.095000 0.694255 0.6667 0.6667 0.6667
v 0.503995 0.095000 0.695755 0.6667 0.6667 0.6667
v 0.505495 0.095000 0.697255 0.6667 0.6667 0.6667
v 0.506995 0.107000 0.695755 0.9137 0.9137 0.9137
v 0.505495 0.107000 0.694255 0.9137 0.9137 0.9137
v 0.503995 0.107000 0.695755 0.9137 0.9137 0.9137
v 0.505495 0.107000 0.697255 0.9137 0.9137 0.9137
v 0.787909 0.000000 -0.265755 0.6667 0.6667 0.6667
v 0.802909 0.000000 -0.291735 0.6667 0.6667 0.6667
v 0.817909 0.000000 -0.265755 0.6667 0.6667 0.6667
v 0.847909 0.000000 -0.265755 0.6667 0.6667 0.6667
v 0.832909 0.000000 -0.291735 0.6667 0.6667 0.6667
v 0.802909 0.080000 -0.291735 0.9176 0.9176 0.9176
v 0.787909 0.080000 -0.265755 0.8745 0.8745 0.8745
v 0.802909 0.080000 -0.239774 0.9137 0.9137 0.9137
v 0.802909 0.000000 -0.239774 0.6667 0.6667 0.6667
v 0.832909 0.000000 -0.239774 0.6667 0.6667 0.6667
v 0.847909 0.080000 -0.265755 0.9215 0.9215 0.9215
v 0.835909 0.075000 -0.265755 0.9568 0.9568 0.9568
v 0.832909 0.080000 -0.291735 0.9215 0.9215 0.9215
v 0.799909 0.075000 -0.265755 0.9529 0.9529 0.9529
v 0.832909 0.080000 -0.239774 0.9215 0.9215 0.9215
v 0.826909 0.075000 -0.281343 0.9607 0.9607 0.9607
v 0.808909 0.075000 -0.281343 0.9607 0.9607 0.9607
v 0.817909 0.076000 -0.265755 0.6667 0.6667 0.6667
v 0.808909 0.075000 -0.250166 0.9607 0.9607 0.9607
v 0.826909 0.075000 -0.250166 0.9529 0.9529 0.9529
v 0.785977 0.025975 -0.276476 0.8235 0.8235 0.8235
v 0.784332 0.080000 -0.263077 0.8549 0.8549 0.8549
v 0.787310 0.025975 -0.262711 0.7451 0.7451 0.7451
v 0.788955 0.025975 -0.276110 0.7412 0.7412 0.7412
v 0.788955 0.080000 -0.276110 0.8353 0.8353 0.8353
v 0.787310 0.080000 -0.262711 0.8078 0.8078 0.8078
v 0.785977 0.080000 -0.276476 0.8588 0.8588 0.8588
v 0.784332 0.025975 -0.263077 0.8235 0.8235 0.8235
v 0.806079 0.051190 -0.234217 0.8353 0.8353 0.8353
v 0.819413 0.080000 -0.232105 0.8588 0.8588 0.8588
v 0.806079 0.080000 -0.234217 0.8549 0.8549 0.8549
v 0.806549 0.051190 -0.237180 0.7372 0.7372 0.7372
v 0.806549 0.080000 -0.237180 0.8235 0.8235 0.8235
v 0.819413 0.051190 -0.232105 0.8353 0.8353 0.8353
v 0.819882 0.051190 -0.235068 0.7372 0.7372 0.7372
v 0.819882 0.080000 -0.235068 0.8353 0.8353 0.8353
v 0.817909 0.075000 -0.267255 0.6667 0.6667 0.6667
v 0.819409 0.087000 -0.265755 0.9098 0.9098 0.9098
v 0.816409 0.075000 -0.265755 0.6667 0.6667 0.6667
v 0.817909 0.087000 -0.267255 0.9098 0.9098 0.9098
v 0.817909 0.087000 -0.264255 0.9058 0.9058 0.9058
v 0.817909 0.075000 -0.264255 0.6667 0.6667 0.6667
v 0.819409 0.075000 -0.265755 0.6667 0.6667 0.6667
v 0.816409 0.087000 -0.265755 0.9098 0.9098 0.9098
vn -0.0000 1.0000 -0.0000
vn -0.0000 -1.0000 -0.0000
vn 0.8660 -0.0000 -0.5000
vn -0.0000 -0.0000 -1.0000
vn -0.8660 -0.0000 -0.5000
vn -0.8660 -0.0000 0.5000
vn -0.0000 -0.0000 1.0000
vn 0.8660 -0.0000 0.5000
vn -0.3846 0.9231 -0.0000
vn -0.1923 0.9231 0.3331
vn -0.1194 0.9711 0.2069
vn -0.2389 0.9711 -0.0000
vn 0.1923 0.9231 0.3331
vn 0.1194 0.9711 0.2069
vn 0.3846 0.9231 -0.0000
vn 0.2389 0.9711 -0.0000
vn 0.1923 0.9231 -0.3331
vn 0.1194 0.9711 -0.2069
vn -0.1923 0.9231 -0.3331
vn -0.1194 0.9711 -0.2069
vn 0.2250 -0.0000 -0.9744
vn -0.2250 -0.0000 0.9744
vn 0.9744 -0.0000 0.2249
vn -0.9744 -0.0000 -0.2249
vn 0.1219 -0.0000 0.9925
vn -0.1219 -0.0000 -0.9925
vn -0.9925 -0.0000 0.1219
vn 0.9925 -0.0000 -0.1219
vn 0.7071 -0.0000 -0.7071
vn -0.7071 -0.0000 -0.7071
vn -0.7071 -0.0000 0.7071
vn 0.7071 -0.0000 0.7071
vn 0.9010 -0.0000 -0.4339
vn 0.2225 -0.0000 -0.9749
vn -0.6235 -0.0000 -0.7818
vn -1.0000 -0.0000 -0.0000
vn -0.6235 -0.0000 0.7818
vn 0.2225 -0.0000 0.9749
vn 0.9010 -0.0000 0.4339
vn -0.3280 0.9447 -0.0000
vn -0.2045 0.9447 0.2564
vn -0.1218 0.9807 0.1528
vn -0.1954 0.9807 -0.0000
vn 0.0730 0.9447 0.3198
vn 0.0435 0.9807 0.1905
vn 0.2955 0.9447 0.1423
vn 0.1760 0.9807 0.0848
vn 0.2955 0.9447 -0.1423
vn 0.1760 0.9807 -0.0848
vn 0.0730 0.9447 -0.3198
vn 0.0435 0.9807 -0.1905
vn -0.2045 0.9447 -0.2564
vn -0.1218 0.9807 -0.1528
vn -0.9744 -0.0000 0.2250
vn 0.9744 -0.0000 -0.2250
vn -0.2249 -0.0000 -0.9744
vn 0.2250 -0.0000 0.9744
vn -0.9135 -0.0000 0.4067
vn 0.9135 -0.0000 -0.4067
vn -0.4067 -0.0000 -0.9135
vn 0.4067 -0.0000 0.9135
vn -0.4848 -0.0000 0.8746
vn 0.4848 -0.0000 -0.8746
vn -0.8746 -0.0000 -0.4848
vn 0.8746 -0.0000 0.4848
vn 0.7314 -0.0000 0.6820
vn -0.7314 -0.0000 -0.6820
vn -0.6820 -0.0000 0.7314
vn 0.6820 -0.0000 -0.7313
vn -0.2045 0.9447 0.2565
vn -0.2045 0.9447 -0.2565
vn 0.4695 -0.0000 0.8829
vn -0.4695 -0.0000 -0.8829
vn -0.8829 -0.0000 0.4695
vn 0.8829 -0.0000 -0.4695
vn 0.0349 -0.0000 -0.9994
vn -0.0349 -0.0000 0.9994
vn 0.9994 -0.0000 0.0349
vn -0.9994 -0.0000 -0.0349
vn -0.9925 -0.0000 -0.1219
vn 0.9925 -0.0000 0.1219
vn 0.1219 -0.0000 -0.9925
vn -0.1219 -0.0000 0.9925
vn -0.1564 -0.0000 0.9877
vn 0.1564 -0.0000 -0.9877
vn -0.9877 -0.0000 -0.1564
vn 0.9877 -0.0000 0.1564
vt 0.000977 0.750977
vt 0.249023 0.750977
vt 0.249023 0.999023
vt 0.000977 0.999023
vt 0.881022 0.688477
vt 0.886068 0.703485
vt 0.875977 0.703485
vt 0.891113 0.688477
vt 0.896159 0.703485
vt 0.901204 0.688477
vt 0.906250 0.703485
vt 0.911296 0.688477
vt 0.916341 0.703485
vt 0.921387 0.688477
vt 0.926432 0.703485
vt 0.931478 0.688477
vt 0.936523 0.703485
vt 0.886068 0.733501
vt 0.875977 0.733501
vt 0.896159 0.733501
vt 0.906250 0.733501
vt 0.916341 0.733501
vt 0.926432 0.733501
vt 0.936523 0.733501
vt 0.886068 0.740005
vt 0.875977 0.740005
vt 0.896159 0.740005
vt 0.906250 0.740005
vt 0.916341 0.740005
vt 0.926432 0.740005
vt 0.936523 0.740005
vt 0.881022 0.749023
vt 0.891113 0.749023
vt 0.901204 0.749023
vt 0.911296 0.749023
vt 0.921387 0.749023
vt 0.931478 0.749023
vt 0.875977 0.688477
vt 0.886194 0.688477
vt 0.886194 0.716389
vt 0.875977 0.716389
vt 0.878247 0.688477
vt 0.878247 0.716389
vt 0.886194 0.714297
vt 0.875977 0.714297
vt 0.878247 0.714297
vt 0.563477 0.688477
vt 0.578613 0.688477
vt 0.578613 0.749023
vt 0.563477 0.749023
vt 0.593750 0.688477
vt 0.593750 0.749023
vt 0.608887 0.688477
vt 0.608887 0.749023
vt 0.624023 0.688477
vt 0.624023 0.749023
vt 0.624023 0.718750
vt 0.563477 0.718750
vt 0.942801 0.688477
vt 0.947126 0.701860
vt 0.938477 0.701860
vt 0.951451 0.688477
vt 0.955776 0.701860
vt 0.960100 0.688477
vt 0.964425 0.701860
vt 0.968750 0.688477
vt 0.973075 0.701860
vt 0.977400 0.688477
vt 0.981724 0.701860
vt 0.986049 0.688477
vt 0.990374 0.701860
vt 0.994699 0.688477
vt 0.999023 0.701860
vt 0.947126 0.735318
vt 0.938477 0.735318
vt 0.955776 0.735318
vt 0.964425 0.735318
vt 0.973075 0.735318
vt 0.981724 0.735318
vt 0.990374 0.735318
vt 0.999023 0.735318
vt 0.947126 0.740985
vt 0.938477 0.740985
vt 0.955776 0.740985
vt 0.964425 0.740985
vt 0.973075 0.740985
vt 0.981724 0.740985
vt 0.990374 0.740985
vt 0.999023 0.740985
vt 0.942801 0.749023
vt 0.951451 0.749023
vt 0.960100 0.749023
vt 0.968750 0.749023
vt 0.977400 0.749023
vt 0.986049 0.749023
vt 0.994699 0.749023
vt 0.938477 0.688477
vt 0.950737 0.688477
vt 0.950737 0.712115
vt 0.938477 0.712115
vt 0.940747 0.688477
vt 0.940747 0.712115
vt 0.950737 0.720766
vt 0.938477 0.720766
vt 0.940747 0.720766
vt 0.886068 0.702339
vt 0.875977 0.702339
vt 0.896159 0.702339
vt 0.906250 0.702339
vt 0.916341 0.702339
vt 0.926432 0.702339
vt 0.936523 0.702339
vt 0.886068 0.734686
vt 0.875977 0.734686
vt 0.896159 0.734686
vt 0.906250 0.734686
vt 0.916341 0.734686
vt 0.926432 0.734686
vt 0.936523 0.734686
vt 0.886068 0.740693
vt 0.875977 0.740693
vt 0.896159 0.740693
vt 0.906250 0.740693
vt 0.916341 0.740693
vt 0.926432 0.740693
vt 0.936523 0.740693
vt 0.886194 0.722151
vt 0.875977 0.722151
vt 0.878247 0.722151
vt 0.886194 0.709544
vt 0.875977 0.709544
vt 0.878247 0.709544
vt 0.947126 0.701086
vt 0.938477 0.701086
vt 0.955776 0.701086
vt 0.964425 0.701086
vt 0.973075 0.701086
vt 0.981724 0.701086
vt 0.990374 0.701086
vt 0.999023 0.701086
vt 0.947126 0.736111
vt 0.938477 0.736111
vt 0.955776 0.736111
vt 0.964425 0.736111
vt 0.973075 0.736111
vt 0.981724 0.736111
vt 0.990374 0.736111
vt 0.999023 0.736111
vt 0.947126 0.741450
vt 0.938477 0.741450
vt 0.955776 0.741450
vt 0.964425 0.741450
vt 0.973075 0.741450
vt 0.981724 0.741450
vt 0.990374 0.741450
vt 0.999023 0.741450
vt 0.950737 0.711280
vt 0.938477 0.711280
vt 0.940747 0.711280
vt 0.950737 0.736388
vt 0.938477 0.736388
vt 0.940747 0.736388
vt 0.886068 0.701356
vt 0.875977 0.701356
vt 0.896159 0.701356
vt 0.906250 0.701356
vt 0.916341 0.701356
vt 0.926432 0.701356
vt 0.936523 0.701356
vt 0.886068 0.735702
vt 0.875977 0.735702
vt 0.896159 0.735702
vt 0.906250 0.735702
vt 0.916341 0.735702
vt 0.926432 0.735702
vt 0.936523 0.735702
vt 0.886068 0.741284
vt 0.875977 0.741284
vt 0.896159 0.741284
vt 0.906250 0.741284
vt 0.916341 0.741284
vt 0.926432 0.741284
vt 0.936523 0.741284
vt 0.886194 0.729365
vt 0.875977 0.729365
vt 0.878247 0.729365
vt 0.886194 0.710281
vt 0.875977 0.710281
vt 0.878247 0.710281
s 0
usemtl props
f 1/1/1 2/2/1 3/3/1 4/4/1
s 1
f 5/5/2 9/6/2 8/7/2
f 5/8/2 11/9/2 9/6/2
f 5/10/2 6/11/2 11/9/2
f 5/12/2 12/13/2 6/11/2
f 5/14/2 7/15/2 12/13/2
f 5/16/2 8/17/2 7/15/2
f 8/7/3 9/6/3 10/18/3 20/19/3
f 9/6/4 11/9/4 15/20/4 10/18/4
f 11/9/5 6/11/5 16/21/5 15/20/5
f 6/11/6 12/13/6 13/22/6 16/21/6
f 12/13/7 7/15/7 19/23/7 13/22/7
f 7/15/8 8/17/8 20/24/8 19/23/8
f 20/19/9 10/18/10 14/25/11 21/26/12
f 10/18/10 15/20/13 22/27/14 14/25/11
f 15/20/13 16/21/15 17/28/16 22/27/14
f 16/21/15 13/22/17 18/29/18 17/28/16
f 13/22/17 19/23/19 24/30/20 18/29/18
f 19/23/19 20/24/9 21/31/12 24/30/20
f 21/26/12 14/25/11 23/32/1
f 14/25/11 22/27/14 23/33/1
f 22/27/14 17/28/16 23/34/1
f 17/28/16 18/29/18 23/35/1
f 18/29/18 24/30/20 23/36/1
f 24/30/20 21/31/12 23/37/1
s 0
f 31/38/21 25/39/21 26/40/21 27/41/21
f 28/38/22 30/39/22 32/40/22 29/41/22
f 30/38/23 31/42/23 27/43/23 32/41/23
f 25/38/24 28/42/24 29/43/24 26/41/24
f 33/38/25 38/39/25 34/44/25 35/45/25
f 39/38/26 36/39/26 37/44/26 40/45/26
f 36/38/27 33/42/27 35/46/27 37/45/27
f 38/38/28 39/42/28 40/46/28 34/45/28
s 1
f 41/47/29 42/48/29 48/49/29 47/50/29
f 42/48/30 44/51/30 43/52/30 48/49/30
f 44/51/31 46/53/31 45/54/31 43/52/31
f 46/53/32 41/55/32 47/56/32 45/54/32
s 0
f 47/57/1 48/52/1 43/58/1 45/51/1
s 1
f 51/59/2 54/60/2 52/61/2
f 51/62/2 49/63/2 54/60/2
f 51/64/2 55/65/2 49/63/2
f 51/66/2 56/67/2 55/65/2
f 51/68/2 50/69/2 56/67/2
f 51/70/2 58/71/2 50/69/2
f 51/72/2 52/73/2 58/71/2
f 52/61/33 54/60/33 53/74/33 65/75/33
f 54/60/34 49/63/34 59/76/34 53/74/34
f 49/63/35 55/65/35 60/77/35 59/76/35
f 55/65/36 56/67/36 62/78/36 60/77/36
f 56/67/37 50/69/37 57/79/37 62/78/37
f 50/69/38 58/71/38 64/80/38 57/79/38
f 58/71/39 52/73/39 65/81/39 64/80/39
f 65/75/40 53/74/41 68/82/42 66/83/43
f 53/74/41 59/76/44 61/84/45 68/82/42
f 59/76/44 60/77/46 69/85/47 61/84/45
f 60/77/46 62/78/48 63/86/49 69/85/47
f 62/78/48 57/79/50 70/87/51 63/86/49
f 57/79/50 64/80/52 67/88/53 70/87/51
f 64/80/52 65/81/40 66/89/43 67/88/53
f 66/83/43 68/82/42 71/90/1
f 68/82/42 61/84/45 71/91/1
f 61/84/45 69/85/47 71/92/1
f 69/85/47 63/86/49 71/93/1
f 63/86/49 70/87/51 71/94/1
f 70/87/51 67/88/53 71/95/1
f 67/88/53 66/89/43 71/96/1
s 0
f 76/97/54 72/98/54 79/99/54 77/100/54
f 73/97/55 74/98/55 75/99/55 78/100/55
f 74/97/56 76/101/56 77/102/56 75/100/56
f 72/97/57 73/101/57 78/102/57 79/100/57
f 83/97/58 85/98/58 80/103/58 84/104/58
f 86/97/59 81/98/59 82/103/59 87/104/59
f 81/97/60 83/101/60 84/105/60 82/104/60
f 85/97/61 86/101/61 87/105/61 80/104/61
s 1
f 93/47/29 88/48/29 95/49/29 89/50/29
f 88/48/30 90/51/30 91/52/30 95/49/30
f 90/51/31 92/53/31 94/54/31 91/52/31
f 92/53/32 93/55/32 89/56/32 94/54/32
s 0
f 89/57/1 95/52/1 91/58/1 94/51/1
s 1
f 99/5/2 96/106/2 104/107/2
f 99/8/2 97/108/2 96/106/2
f 99/10/2 98/109/2 97/108/2
f 99/12/2 101/110/2 98/109/2
f 99/14/2 100/111/2 101/110/2
f 99/16/2 104/112/2 100/111/2
f 104/107/3 96/106/3 106/113/3 102/114/3
f 96/106/4 97/108/4 103/115/4 106/113/4
f 97/108/5 98/109/5 107/116/5 103/115/5
f 98/109/6 101/110/6 108/117/6 107/116/6
f 101/110/7 100/111/7 112/118/7 108/117/7
f 100/111/8 104/112/8 102/119/8 112/118/8
f 102/114/9 106/113/10 105/120/11 113/121/12
f 106/113/10 103/115/13 114/122/14 105/120/11
f 103/115/13 107/116/15 110/123/16 114/122/14
f 107/116/15 108/117/17 109/124/18 110/123/16
f 108/117/17 112/118/19 111/125/20 109/124/18
f 112/118/19 102/119/9 113/126/12 111/125/20
f 113/121/12 105/120/11 115/32/1
f 105/120/11 114/122/14 115/33/1
f 114/122/14 110/123/16 115/34/1
f 110/123/16 109/124/18 115/35/1
f 109/124/18 111/125/20 115/36/1
f 111/125/20 113/126/12 115/37/1
s 0
f 116/38/62 121/39/62 123/127/62 117/128/62
f 118/38/63 120/39/63 119/127/63 122/128/63
f 120/38/64 116/42/64 117/129/64 119/128/64
f 121/38/65 118/42/65 122/129/65 123/128/65
f 124/38/66 125/39/66 131/130/66 128/131/66
f 126/38/67 127/39/67 129/130/67 130/131/67
f 127/38/68 124/42/68 128/132/68 129/131/68
f 125/38/69 126/42/69 130/132/69 131/131/69
s 1
f 137/47/29 132/48/29 139/49/29 138/50/29
f 132/48/30 133/51/30 134/52/30 139/49/30
f 133/51/31 135/53/31 136/54/31 134/52/31
f 135/53/32 137/55/32 138/56/32 136/54/32
s 0
f 138/57/1 139/52/1 134/58/1 136/51/1
s 1
f 140/59/2 143/133/2 141/134/2
f 140/62/2 142/135/2 143/133/2
f 140/64/2 146/136/2 142/135/2
f 140/66/2 144/137/2 146/136/2
f 140/68/2 147/138/2 144/137/2
f 140/70/2 148/139/2 147/138/2
f 140/72/2 141/140/2 148/139/2
f 141/134/33 143/133/33 145/141/33 158/142/33
f 143/133/34 142/135/34 150/143/34 145/141/34
f 142/135/35 146/136/35 151/144/35 150/143/35
f 146/136/36 144/137/36 153/145/36 151/144/36
f 144/137/37 147/138/37 155/146/37 153/145/37
f 147/138/38 148/139/38 157/147/38 155/146/38
f 148/139/39 141/140/39 158/148/39 157/147/39
f 158/142/40 145/141/70 149/149/42 159/150/43
f 145/141/70 150/143/44 160/151/45 149/149/42
f 150/143/44 151/144/46 152/152/47 160/151/45
f 151/144/46 153/145/48 162/153/49 152/152/47
f 153/145/48 155/146/50 154/154/51 162/153/49
f 155/146/50 157/147/71 156/155/53 154/154/51
f 157/147/71 158/148/40 159/156/43 156/155/53
f 159/150/43 149/149/42 161/90/1
f 149/149/42 160/151/45 161/91/1
f 160/151/45 152/152/47 161/92/1
f 152/152/47 162/153/49 161/93/1
f 162/153/49 154/154/51 161/94/1
f 154/154/51 156/155/53 161/95/1
f 156/155/53 159/156/43 161/96/1
s 0
f 163/97/72 167/98/72 170/157/72 165/158/72
f 168/97/73 164/98/73 166/157/73 169/158/73
f 164/97/74 163/101/74 165/159/74 166/158/74
f 167/97/75 168/101/75 169/159/75 170/158/75
f 175/97/76 171/98/76 172/160/76 176/161/76
f 173/97/77 174/98/77 177/160/77 178/161/77
f 174/97/78 175/101/78 176/162/78 177/161/78
f 171/97/79 173/101/79 178/162/79 172/161/79
s 1
f 179/47/29 180/48/29 184/49/29 183/50/29
f 180/48/30 181/51/30 185/52/30 184/49/30
f 181/51/31 182/53/31 186/54/31 185/52/31
f 182/53/32 179/55/32 183/56/32 186/54/32
s 0
f 183/57/1 184/52/1 185/58/1 186/51/1
s 1
f 189/5/2 191/163/2 190/164/2
f 189/8/2 188/165/2 191/163/2
f 189/10/2 187/166/2 188/165/2
f 189/12/2 195/167/2 187/166/2
f 189/14/2 196/168/2 195/167/2
f 189/16/2 190/169/2 196/168/2
f 190/164/3 191/163/3 199/170/3 197/171/3
f 191/163/4 188/165/4 192/172/4 199/170/4
f 188/165/5 187/166/5 193/173/5 192/172/5
f 187/166/6 195/167/6 194/174/6 193/173/6
f 195/167/7 196/168/7 201/175/7 194/174/7
f 196/168/8 190/169/8 197/176/8 201/175/8
f 197/171/9 199/170/10 202/177/11 198/178/12
f 199/170/10 192/172/13 203/179/14 202/177/11
f 192/172/13 193/173/15 200/180/16 203/179/14
f 193/173/15 194/174/17 205/181/18 200/180/16
f 194/174/17 201/175/19 206/182/20 205/181/18
f 201/175/19 197/176/9 198/183/12 206/182/20
f 198/178/12 202/177/11 204/32/1
f 202/177/11 203/179/14 204/33/1
f 203/179/14 200/180/16 204/34/1
f 200/180/16 205/181/18 204/35/1
f 205/181/18 206/182/20 204/36/1
f 206/182/20 198/183/12 204/37/1
s 0
f 207/38/80 214/39/80 208/184/80 213/185/80
f 209/38/81 210/39/81 211/184/81 212/185/81
f 210/38/82 207/42/82 213/186/82 211/185/82
f 214/38/83 209/42/83 212/186/83 208/185/83
f 215/38/84 220/39/84 216/187/84 217/188/84
f 221/38/85 218/39/85 219/187/85 222/188/85
f 218/38/86 215/42/86 217/189/86 219/188/86
f 220/38/87 221/42/87 222/189/87 216/188/87
s 1
f 229/47/29 223/48/29 226/49/29 224/50/29
f 223/48/30 225/51/30 230/52/30 226/49/30
f 225/51/31 228/53/31 227/54/31 230/52/31
f 228/53/32 229/55/32 224/56/32 227/54/32
s 0
f 224/57/1 226/52/1 230/58/1 227/51/1
