# Blender 4.5.14 LTS
# www.blender.org
mtllib severed_hand.mtl
o severed_hand
v 0.052979 0.000000 -0.028605 0.7764 0.7764 0.7764
v 0.047681 0.025000 -0.025745 0.9019 0.9019 0.9019
v -0.019977 0.025000 -0.050370 0.9019 0.9019 0.9019
v 0.022197 0.000000 0.055967 0.7412 0.7412 0.7412
v 0.019977 0.025000 0.050370 0.9215 0.9215 0.9215
v -0.047681 0.025000 0.025745 0.9255 0.9255 0.9255
v -0.022197 0.000000 -0.055967 0.7725 0.7725 0.7725
v -0.052979 0.000000 0.028605 0.7647 0.7647 0.7647
v -0.046172 0.006432 0.031881 0.6863 0.6863 0.6863
v -0.037705 0.009323 0.034781 0.6785 0.6785 0.6785
v -0.051370 0.022685 0.070698 0.8902 0.8902 0.8902
v -0.059814 0.025581 0.067738 0.9686 0.9686 0.9686
v -0.064746 0.018000 0.065158 0.8509 0.8509 0.8509
v -0.059350 0.010419 0.066524 0.7059 0.7059 0.7059
v -0.051083 0.013315 0.069948 0.6902 0.6902 0.6902
v -0.070052 0.000748 0.094388 0.7294 0.7294 0.7294
v -0.063038 0.012482 0.101072 0.8235 0.8235 0.8235
v -0.071702 0.015252 0.098686 0.9058 0.9058 0.9058
v -0.045613 0.021568 0.030412 0.8509 0.8509 0.8509
v -0.037360 0.018677 0.033873 0.7764 0.7764 0.7764
v -0.051059 0.014000 0.029181 0.8117 0.8117 0.8117
v -0.076037 0.008000 0.094555 0.8235 0.8235 0.8235
v -0.062017 0.003518 0.098416 0.7137 0.7137 0.7137
v -0.032297 0.014000 0.036107 0.7059 0.7059 0.7059
v -0.043044 0.010410 0.081393 0.6667 0.6667 0.6667
v -0.048417 0.018000 0.079988 0.7764 0.7764 0.7764
v -0.027332 0.006419 0.038622 0.6706 0.6706 0.6706
v -0.018851 0.009315 0.041474 0.6785 0.6785 0.6785
v -0.034948 0.022691 0.085293 0.8941 0.8941 0.8941
v -0.034720 0.013309 0.084672 0.6902 0.6902 0.6902
v -0.047637 0.003451 0.119764 0.7490 0.7490 0.7490
v -0.043414 0.025590 0.082399 0.9647 0.9647 0.9647
v -0.057107 0.015361 0.119596 0.9137 0.9137 0.9137
v -0.061629 0.008000 0.115881 0.8157 0.8157 0.8157
v -0.026885 0.021581 0.037405 0.8392 0.8392 0.8392
v -0.018574 0.018685 0.040721 0.7764 0.7764 0.7764
v -0.055777 0.000639 0.115984 0.7294 0.7294 0.7294
v -0.048459 0.012549 0.121996 0.8706 0.8706 0.8706
v -0.008554 0.006423 0.045520 0.6706 0.6706 0.6706
v -0.000045 0.009317 0.048292 0.6785 0.6785 0.6785
v -0.014634 0.013311 0.088975 0.7020 0.7020 0.7020
v -0.008089 0.021577 0.044224 0.8353 0.8353 0.8353
v -0.023365 0.025587 0.086827 0.9607 0.9607 0.9607
v -0.013524 0.014000 0.043006 0.7020 0.7020 0.7020
v -0.028378 0.018000 0.084428 0.7490 0.7490 0.7490
v -0.022982 0.010413 0.085755 0.6667 0.6667 0.6667
v -0.034605 0.000669 0.118275 0.7216 0.7216 0.7216
v -0.026444 0.003469 0.122018 0.7608 0.7608 0.7608
v -0.027291 0.012531 0.124388 0.8784 0.8784 0.8784
v -0.014871 0.022689 0.089637 0.9019 0.9019 0.9019
v -0.035975 0.015331 0.122111 0.9098 0.9098 0.9098
v -0.040495 0.008000 0.118333 0.7568 0.7568 0.7568
v 0.000242 0.018683 0.047490 0.7764 0.7764 0.7764
v 0.005231 0.014000 0.049957 0.7059 0.7059 0.7059
v 0.018754 0.009327 0.055136 0.7137 0.7137 0.7137
v 0.007492 0.013318 0.088052 0.7608 0.7608 0.7608
v -0.000890 0.010424 0.084921 0.6706 0.6706 0.6706
v 0.019093 0.018673 0.054147 0.8313 0.8313 0.8313
v 0.007214 0.022682 0.088871 0.9255 0.9255 0.9255
v 0.010735 0.021561 0.050946 0.8392 0.8392 0.8392
v -0.006349 0.018000 0.083803 0.7529 0.7529 0.7529
v -0.009682 0.000800 0.110980 0.7098 0.7098 0.7098
v -0.001507 0.003550 0.114729 0.7647 0.7647 0.7647
v -0.001340 0.025576 0.086245 0.9568 0.9568 0.9568
v -0.011255 0.015200 0.115643 0.8941 0.8941 0.8941
v 0.010187 0.006439 0.052547 0.6706 0.6706 0.6706
v -0.015706 0.008000 0.111545 0.7412 0.7412 0.7412
v -0.002479 0.012450 0.117612 0.8745 0.8745 0.8745
v 0.052428 0.002493 0.052413 0.6824 0.6824 0.6824
v 0.039379 0.002489 0.016438 0.6863 0.6863 0.6863
v 0.063449 0.006125 0.050525 0.7568 0.7568 0.7568
v 0.039379 0.021511 0.016438 0.8784 0.8784 0.8784
v 0.045678 0.012000 0.053913 0.7882 0.7882 0.7882
v 0.052526 0.021507 0.052952 0.9529 0.9529 0.9529
v 0.051582 0.000508 0.083059 0.7255 0.7255 0.7255
v 0.062751 0.004134 0.083593 0.7764 0.7764 0.7764
v 0.063509 0.017875 0.050858 0.9372 0.9372 0.9372
v 0.062731 0.015866 0.084335 0.9098 0.9098 0.9098
v 0.051549 0.019492 0.084259 0.9215 0.9215 0.9215
v 0.049898 0.017878 0.012650 0.8784 0.8784 0.8784
v 0.049898 0.006122 0.012650 0.7490 0.7490 0.7490
v 0.032878 0.012000 0.018779 0.6667 0.6667 0.6667
v 0.044658 0.010000 0.083470 0.8078 0.8078 0.8078
v 0.017607 -0.001448 -0.071277 0.7176 0.7176 0.7176
v -0.016121 0.010455 -0.048435 0.6667 0.6667 0.6667
v -0.004834 0.029545 -0.079444 0.9215 0.9215 0.9215
v -0.016121 0.029545 -0.048435 0.9098 0.9098 0.9098
v 0.034304 0.037200 -0.030081 0.9451 0.9451 0.9451
v 0.045591 0.037200 -0.061091 0.9568 0.9568 0.9568
v 0.058045 0.020000 -0.056558 0.8627 0.8627 0.8627
v 0.045591 0.002800 -0.061091 0.7490 0.7490 0.7490
v -0.004834 0.010455 -0.079444 0.7960 0.7960 0.7960
v 0.017607 0.041448 -0.071277 0.9686 0.9686 0.9686
v 0.006320 0.041448 -0.040267 0.9568 0.9568 0.9568
v 0.006320 -0.001448 -0.040267 0.6706 0.6706 0.6706
v 0.034304 0.002800 -0.030081 0.6667 0.6667 0.6667
v 0.046758 0.020000 -0.025549 0.6667 0.6667 0.6667
v 0.078359 0.002000 -0.124141 0.8862 0.8862 0.8862
v 0.088027 0.002000 -0.095662 0.8823 0.8823 0.8823
v 0.078359 0.000000 -0.124141 0.7804 0.7804 0.7804
v 0.040591 0.002000 -0.144052 0.8862 0.8862 0.8862
v 0.003163 0.002000 -0.140402 0.8823 0.8823 0.8823
v 0.003163 0.000000 -0.140402 0.7725 0.7725 0.7725
v -0.005741 0.000000 -0.115939 0.7608 0.7608 0.7608
v 0.020584 0.002000 -0.089084 0.7843 0.7843 0.7843
v -0.005741 0.002000 -0.115939 0.8666 0.8666 0.8666
v 0.020584 0.000000 -0.089084 0.6980 0.6980 0.6980
v 0.062315 0.002000 -0.080060 0.8431 0.8431 0.8431
v 0.062315 0.000000 -0.080060 0.7451 0.7451 0.7451
v 0.040591 0.000000 -0.144052 0.7764 0.7764 0.7764
v 0.088027 0.000000 -0.095662 0.7764 0.7764 0.7764
vn -0.3366 0.1772 0.9248
vn 0.3366 0.1772 -0.9248
vn -0.9279 0.1580 -0.3377
vn 0.9279 0.1580 0.3377
vn -0.0000 1.0000 -0.0000
vn -0.0000 -1.0000 -0.0000
vn -0.7759 -0.5880 -0.2286
vn -0.7367 -0.5805 -0.3468
vn -0.7375 -0.5807 -0.3448
vn 0.2504 -0.9465 0.2034
vn 0.3262 -0.9451 0.0210
vn 0.3267 -0.9449 0.0197
vn 0.9347 0.0001 0.3556
vn 0.9341 -0.0000 0.3570
vn 0.9341 -0.0000 0.3571
vn 0.3207 0.9470 0.0196
vn 0.2572 0.9454 0.2004
vn 0.2568 0.9453 0.2014
vn -0.7325 0.5881 -0.3430
vn -0.7799 0.5806 -0.2337
vn -0.7792 0.5808 -0.2356
vn -0.6871 -0.5642 -0.4577
vn 0.3897 -0.9063 -0.1635
vn 0.9335 -0.0001 0.3585
vn 0.1838 0.9087 0.3748
vn -0.8157 0.5652 -0.1229
vn 0.3537 -0.1033 -0.9296
vn -0.3418 -0.3025 0.8898
vn -0.7753 -0.5880 -0.2306
vn -0.7437 -0.5827 -0.3276
vn -0.7443 -0.5829 -0.3261
vn 0.2599 -0.9480 0.1835
vn 0.3199 -0.9469 0.0315
vn 0.3203 -0.9468 0.0305
vn 0.9387 -0.0000 0.3448
vn 0.9386 -0.0000 0.3451
vn 0.3160 0.9483 0.0312
vn 0.2643 0.9470 0.1824
vn 0.2640 0.9470 0.1832
vn -0.7407 0.5880 -0.3251
vn -0.7786 0.5829 -0.2326
vn -0.7781 0.5830 -0.2340
vn -0.7049 -0.5717 -0.4198
vn 0.3717 -0.9203 -0.1224
vn 0.9384 -0.0000 0.3454
vn 0.2055 0.9215 0.3296
vn -0.8083 0.5721 -0.1392
vn 0.3436 -0.0852 -0.9353
vn -0.3342 -0.2529 0.9079
vn -0.7780 -0.5880 -0.2214
vn -0.7457 -0.5821 -0.3241
vn -0.7463 -0.5822 -0.3225
vn 0.2593 -0.9476 0.1865
vn 0.3220 -0.9464 0.0243
vn 0.3223 -0.9463 0.0233
vn 0.9413 -0.0000 0.3375
vn 0.9415 -0.0000 0.3371
vn 0.9415 -0.0000 0.3370
vn 0.3176 0.9479 0.0242
vn 0.2646 0.9466 0.1845
vn 0.2643 0.9465 0.1854
vn -0.7419 0.5880 -0.3221
vn -0.7817 0.5823 -0.2233
vn -0.7812 0.5824 -0.2248
vn -0.7055 -0.5697 -0.4215
vn 0.3752 -0.9164 -0.1396
vn 0.9417 -0.0000 0.3366
vn 0.2037 0.9180 0.3404
vn -0.8122 0.5701 -0.1234
vn 0.3362 -0.0905 -0.9374
vn -0.3243 -0.2676 0.9073
vn -0.7844 -0.5880 -0.1975
vn -0.7484 -0.5793 -0.3229
vn -0.7492 -0.5795 -0.3207
vn 0.2542 -0.9457 0.2025
vn 0.3291 -0.9443 0.0024
vn 0.3296 -0.9441 0.0010
vn 0.9462 -0.0001 0.3237
vn 0.9468 -0.0000 0.3217
vn 0.9469 -0.0000 0.3217
vn 0.3229 0.9464 0.0020
vn 0.2632 0.9444 0.1969
vn 0.2627 0.9443 0.1981
vn -0.7419 0.5882 -0.3220
vn -0.7898 0.5797 -0.2005
vn -0.7891 0.5799 -0.2025
vn -0.7006 -0.5610 -0.4410
vn 0.3894 -0.8993 -0.1993
vn 0.9475 0.0001 0.3196
vn 0.1920 0.9028 0.3848
vn -0.8237 0.5617 -0.0775
vn 0.3217 -0.1112 -0.9403
vn -0.3024 -0.3234 0.8966
vn -0.7613 -0.5864 0.2768
vn -0.7989 -0.5914 0.1091
vn -0.7992 -0.5914 0.1074
vn 0.2927 -0.9504 -0.1054
vn 0.3002 -0.9506 -0.0790
vn 0.3003 -0.9506 -0.0783
vn 0.9418 0.0023 -0.3362
vn 0.9871 -0.0002 -0.1600
vn 0.9872 -0.0002 -0.1596
vn 0.2925 0.9505 -0.1047
vn 0.3055 0.9520 -0.0178
vn 0.3052 0.9521 -0.0198
vn -0.7633 0.5838 0.2765
vn -0.7942 0.5903 0.1443
vn -0.7937 0.5903 0.1471
vn -0.8130 -0.5788 -0.0635
vn 0.3075 -0.9501 -0.0518
vn 0.9998 -0.0027 0.0220
vn 0.3160 0.9464 0.0673
vn -0.8102 0.5860 0.0121
vn -0.3388 -0.0000 -0.9408
vn -0.0273 -0.0631 0.9976
vn 0.7444 -0.6104 0.2709
vn 0.4734 -0.8638 0.1723
vn -0.1500 -0.9872 -0.0546
vn -0.4192 -0.8950 -0.1526
vn -0.9397 -0.0000 -0.3420
vn -0.4192 0.8950 -0.1526
vn -0.1500 0.9872 -0.0546
vn 0.4734 0.8638 0.1723
vn 0.7444 0.6104 0.2709
vn 0.3420 -0.0000 -0.9397
vn -0.3420 -0.0000 0.9397
vn 0.9469 -0.0000 -0.3215
vn 0.7607 -0.0000 -0.6491
vn 0.1928 -0.0000 -0.9812
vn -0.0971 -0.0000 -0.9953
vn -0.7141 -0.0000 0.7000
vn -0.4831 -0.0000 0.8756
vn 0.1654 -0.0000 0.9862
vn 0.5188 -0.0000 0.8549
vt 0.625977 0.688477
vt 0.686523 0.688477
vt 0.683496 0.707702
vt 0.629004 0.707702
vt 0.683496 0.705509
vt 0.629004 0.705509
vt 0.679796 0.688477
vt 0.679796 0.749023
vt 0.625977 0.749023
vt 0.638086 0.688477
vt 0.638086 0.718750
vt 0.625977 0.718750
vt 0.650195 0.688477
vt 0.650195 0.718750
vt 0.662305 0.688477
vt 0.662305 0.718750
vt 0.674414 0.688477
vt 0.674414 0.718750
vt 0.686523 0.718750
vt 0.638086 0.749023
vt 0.650195 0.749023
vt 0.662305 0.749023
vt 0.674414 0.749023
vt 0.686523 0.749023
vt 0.663397 0.749023
vt 0.625977 0.737460
vt 0.625977 0.700040
vt 0.663397 0.688477
vt 0.649103 0.688477
vt 0.686523 0.700040
vt 0.686523 0.737460
vt 0.649103 0.749023
vt 0.634626 0.688477
vt 0.634626 0.749023
vt 0.643276 0.688477
vt 0.643276 0.749023
vt 0.651925 0.688477
vt 0.651925 0.749023
vt 0.660575 0.688477
vt 0.660575 0.749023
vt 0.669224 0.688477
vt 0.669224 0.749023
vt 0.677874 0.688477
vt 0.677874 0.749023
vt 0.124023 0.718750
vt 0.112031 0.743027
vt 0.085085 0.749023
vt 0.063477 0.732223
vt 0.063477 0.705277
vt 0.085085 0.688477
vt 0.112031 0.694473
vt 0.674531 0.743027
vt 0.647586 0.749023
vt 0.625977 0.732223
vt 0.625977 0.705277
vt 0.647586 0.688477
vt 0.674531 0.694473
vt 0.688477 0.938477
vt 0.697126 0.938477
vt 0.697126 0.999023
vt 0.688477 0.999023
vt 0.705776 0.938477
vt 0.705776 0.999023
vt 0.714425 0.938477
vt 0.714425 0.999023
vt 0.723075 0.938477
vt 0.723075 0.999023
vt 0.731724 0.938477
vt 0.731724 0.999023
vt 0.740374 0.938477
vt 0.740374 0.999023
vt 0.749023 0.938477
vt 0.749023 0.999023
vt 0.749023 0.968750
vt 0.737031 0.993027
vt 0.710086 0.999023
vt 0.688477 0.982223
vt 0.688477 0.955277
vt 0.710086 0.938477
vt 0.737031 0.944473
s 0
usemtl props
f 8/1/1 4/2/1 5/3/1 6/4/1
f 1/1/2 7/2/2 3/3/2 2/4/2
f 7/1/3 8/2/3 6/5/3 3/6/3
f 4/1/4 1/2/4 2/5/4 5/6/4
f 6/1/5 5/7/5 2/8/5 3/9/5
f 7/1/6 1/7/6 4/8/6 8/9/6
s 1
f 21/1/7 9/10/7 14/11/8 13/12/9
f 9/10/10 10/13/10 15/14/11 14/11/12
f 10/13/13 20/15/13 11/16/14 15/14/15
f 20/15/16 19/17/16 12/18/17 11/16/18
f 19/17/19 21/2/19 13/19/20 12/18/21
f 13/12/9 14/11/8 16/20/22 22/9/22
f 14/11/12 15/14/11 23/21/23 16/20/23
f 15/14/15 11/16/14 17/22/24 23/21/24
f 11/16/18 12/18/17 18/23/25 17/22/25
f 12/18/21 13/19/20 22/24/26 18/23/26
s 0
f 19/25/27 20/26/27 10/27/27 9/28/27 21/19/27
f 22/12/28 16/29/28 23/30/28 17/31/28 18/32/28
s 1
f 24/1/29 27/10/29 25/11/30 26/12/31
f 27/10/32 28/13/32 30/14/33 25/11/34
f 28/13/35 36/15/35 29/16/36 30/14/36
f 36/15/37 35/17/37 32/18/38 29/16/39
f 35/17/40 24/2/40 26/19/41 32/18/42
f 26/12/31 25/11/30 37/20/43 34/9/43
f 25/11/34 30/14/33 31/21/44 37/20/44
f 30/14/36 29/16/36 38/22/45 31/21/45
f 29/16/39 32/18/38 33/23/46 38/22/46
f 32/18/42 26/19/41 34/24/47 33/23/47
s 0
f 35/25/48 36/26/48 28/27/48 27/28/48 24/19/48
f 34/12/49 37/29/49 31/30/49 38/31/49 33/32/49
s 1
f 44/1/50 39/10/50 46/11/51 45/12/52
f 39/10/53 40/13/53 41/14/54 46/11/55
f 40/13/56 53/15/56 50/16/57 41/14/58
f 53/15/59 42/17/59 43/18/60 50/16/61
f 42/17/62 44/2/62 45/19/63 43/18/64
f 45/12/52 46/11/51 47/20/65 52/9/65
f 46/11/55 41/14/54 48/21/66 47/20/66
f 41/14/58 50/16/57 49/22/67 48/21/67
f 50/16/61 43/18/60 51/23/68 49/22/68
f 43/18/64 45/19/63 52/24/69 51/23/69
s 0
f 42/25/70 53/26/70 40/27/70 39/28/70 44/19/70
f 52/12/71 47/29/71 48/30/71 49/31/71 51/32/71
s 1
f 54/1/72 66/10/72 57/11/73 61/12/74
f 66/10/75 55/13/75 56/14/76 57/11/77
f 55/13/78 58/15/78 59/16/79 56/14/80
f 58/15/81 60/17/81 64/18/82 59/16/83
f 60/17/84 54/2/84 61/19/85 64/18/86
f 61/12/74 57/11/73 62/20/87 67/9/87
f 57/11/77 56/14/76 63/21/88 62/20/88
f 56/14/80 59/16/79 68/22/89 63/21/89
f 59/16/83 64/18/82 65/23/90 68/22/90
f 64/18/86 61/19/85 67/24/91 65/23/91
s 0
f 60/25/92 58/26/92 55/27/92 66/28/92 54/19/92
f 67/12/93 62/29/93 63/30/93 68/31/93 65/32/93
s 1
f 82/1/94 70/10/94 69/11/95 73/12/96
f 70/10/97 81/13/97 71/14/98 69/11/99
f 81/13/100 80/15/100 77/16/101 71/14/102
f 80/15/103 72/17/103 74/18/104 77/16/105
f 72/17/106 82/2/106 73/19/107 74/18/108
f 73/12/96 69/11/95 75/20/109 83/9/109
f 69/11/99 71/14/98 76/21/110 75/20/110
f 71/14/102 77/16/101 78/22/111 76/21/111
f 77/16/105 74/18/104 79/23/112 78/22/112
f 74/18/108 73/19/107 83/24/113 79/23/113
s 0
f 72/25/114 80/26/114 81/27/114 70/28/114 82/19/114
f 83/12/115 75/29/115 76/30/115 78/31/115 79/32/115
s 1
f 97/1/116 96/33/117 91/34/117 90/9/116
f 96/33/117 95/35/118 84/36/118 91/34/117
f 95/35/118 85/37/119 92/38/119 84/36/118
f 85/37/120 87/39/120 86/40/120 92/38/120
f 87/39/121 94/41/122 93/42/122 86/40/121
f 94/41/122 88/43/123 89/44/123 93/42/122
f 88/43/123 97/2/124 90/24/124 89/44/123
s 0
f 90/45/125 91/46/125 84/47/125 92/48/125 86/49/125 93/50/125 89/51/125
f 88/52/126 94/53/126 87/54/126 85/55/126 95/56/126 96/57/126 97/19/126
s 1
f 111/58/127 100/59/128 98/60/128 99/61/127
f 100/59/128 110/62/129 101/63/129 98/60/128
f 110/62/129 103/64/130 102/65/130 101/63/129
f 103/64/120 104/66/120 106/67/120 102/65/120
f 104/66/131 107/68/132 105/69/132 106/67/131
f 107/68/132 109/70/133 108/71/133 105/69/132
f 109/70/133 111/72/134 99/73/134 108/71/133
s 0
f 99/74/5 98/75/5 101/76/5 102/77/5 106/78/5 105/79/5 108/80/5
f 109/75/6 107/76/6 104/77/6 103/78/6 110/79/6 100/80/6 111/74/6
