# Blender 4.5.14 LTS
# www.blender.org
mtllib sign_turn_back.mtl
o sign_turn_back
v -0.030000 -0.080000 -0.005000 0.7764 0.7764 0.7764
v 0.030000 -0.080000 -0.005000 0.7764 0.7764 0.7764
v -0.030000 1.320000 -0.005000 0.9882 0.9882 0.9882
v -0.030000 -0.080000 -0.055000 0.7764 0.7764 0.7764
v 0.030000 1.320000 -0.055000 0.9882 0.9882 0.9882
v -0.030000 1.320000 -0.055000 0.9882 0.9882 0.9882
v 0.030000 1.320000 -0.005000 0.9882 0.9882 0.9882
v 0.030000 -0.080000 -0.055000 0.7804 0.7804 0.7804
v 0.356821 1.034683 0.012500 0.9921 0.9921 0.9921
v 0.341474 1.254147 0.012500 1.0000 1.0000 1.0000
v 0.356821 1.034683 -0.012500 0.9960 0.9960 0.9960
v -0.341474 0.985853 -0.012500 0.9921 0.9921 0.9921
v -0.341474 0.985853 0.012500 0.9960 0.9960 0.9960
v -0.356821 1.205317 0.012500 1.0000 1.0000 1.0000
v 0.341474 1.254147 -0.012500 1.0000 1.0000 1.0000
v -0.356821 1.205317 -0.012500 1.0000 1.0000 1.0000
v -0.024000 1.120000 0.012000 0.6667 0.6667 0.6667
v -0.024000 1.120000 0.024000 0.8902 0.8902 0.8902
v -0.020000 1.116000 0.024000 0.8941 0.8941 0.8941
v -0.016000 1.120000 0.024000 0.8941 0.8941 0.8941
v -0.020000 1.124000 0.024000 0.8941 0.8941 0.8941
v -0.020000 1.116000 0.012000 0.6667 0.6667 0.6667
v -0.020000 1.124000 0.012000 0.6667 0.6667 0.6667
v -0.016000 1.120000 0.012000 0.6667 0.6667 0.6667
v 0.020000 1.124000 0.024000 0.8941 0.8941 0.8941
v 0.024000 1.120000 0.024000 0.8941 0.8941 0.8941
v 0.016000 1.120000 0.012000 0.6667 0.6667 0.6667
v 0.020000 1.116000 0.012000 0.6667 0.6667 0.6667
v 0.020000 1.116000 0.024000 0.8941 0.8941 0.8941
v 0.016000 1.120000 0.024000 0.8902 0.8902 0.8902
v 0.020000 1.124000 0.012000 0.6667 0.6667 0.6667
v 0.024000 1.120000 0.012000 0.6667 0.6667 0.6667
vn -0.0000 -0.0000 1.0000
vn -0.0000 -0.0000 -1.0000
vn -1.0000 -0.0000 -0.0000
vn 1.0000 -0.0000 -0.0000
vn -0.0000 1.0000 -0.0000
vn -0.0000 -1.0000 -0.0000
vn -0.9976 -0.0698 -0.0000
vn 0.9976 0.0698 -0.0000
vn -0.0698 0.9976 -0.0000
vn 0.0698 -0.9976 -0.0000
vn 0.7071 0.7071 -0.0000
vn -0.7071 0.7071 -0.0000
vn -0.7071 -0.7071 -0.0000
vn 0.7071 -0.7071 -0.0000
vt 0.375977 0.875977
vt 0.381250 0.875977
vt 0.381250 0.999023
vt 0.375977 0.999023
vt 0.380371 0.875977
vt 0.380371 0.999023
vt 0.399048 0.875977
vt 0.399048 0.895203
vt 0.375977 0.895203
vt 0.063477 0.641602
vt 0.217773 0.641602
vt 0.217773 0.686523
vt 0.063477 0.686523
vt 0.499023 0.875977
vt 0.499023 0.914648
vt 0.375977 0.914648
vt 0.385590 0.875977
vt 0.385590 0.960571
vt 0.375977 0.960571
vt 0.499023 0.880371
vt 0.375977 0.880371
vt 0.125977 0.688477
vt 0.141113 0.688477
vt 0.141113 0.749023
vt 0.125977 0.749023
vt 0.156250 0.688477
vt 0.156250 0.749023
vt 0.171387 0.688477
vt 0.171387 0.749023
vt 0.186523 0.688477
vt 0.186523 0.749023
vt 0.186523 0.718750
vt 0.125977 0.718750
s 0
usemtl props
f 1/1/1 2/2/1 7/3/1 3/4/1
f 8/1/2 4/2/2 6/3/2 5/4/2
f 4/1/3 1/5/3 3/6/3 6/4/3
f 2/1/4 8/5/4 5/6/4 7/4/4
f 3/1/5 7/7/5 5/8/5 6/9/5
f 4/1/6 8/7/6 2/8/6 1/9/6
f 13/10/1 9/11/1 10/12/1 14/13/1
f 11/1/2 12/14/2 16/15/2 15/16/2
f 12/1/7 13/17/7 14/18/7 16/19/7
f 9/1/8 11/17/8 15/18/8 10/19/8
f 14/1/9 10/14/9 15/20/9 16/21/9
f 12/1/10 11/14/10 9/20/10 13/21/10
s 1
f 24/22/11 23/23/11 21/24/11 20/25/11
f 23/23/12 17/26/12 18/27/12 21/24/12
f 17/26/13 22/28/13 19/29/13 18/27/13
f 22/28/14 24/30/14 20/31/14 19/29/14
s 0
f 20/32/1 21/27/1 18/33/1 19/26/1
f 22/27/2 17/33/2 23/26/2 24/32/2
s 1
f 32/22/11 31/23/11 25/24/11 26/25/11
f 31/23/12 27/26/12 30/27/12 25/24/12
f 27/26/13 28/28/13 29/29/13 30/27/13
f 28/28/14 32/30/14 26/31/14 29/29/14
s 0
f 26/32/1 25/27/1 30/33/1 29/26/1
f 28/27/2 27/33/2 31/26/2 32/32/2
