# Blender 4.5.14 LTS
# www.blender.org
mtllib tape_reels.mtl
o tape_reels
v -0.095000 0.022000 0.095000 0.8588 0.8588 0.8588
v 0.095000 0.000000 -0.095000 0.7764 0.7764 0.7764
v 0.095000 0.022000 -0.095000 0.8313 0.8313 0.8313
v -0.095000 0.000000 -0.095000 0.7764 0.7764 0.7764
v -0.095000 0.022000 -0.095000 0.8588 0.8588 0.8588
v 0.095000 0.022000 0.095000 0.8509 0.8509 0.8509
v 0.095000 0.000000 0.095000 0.7725 0.7725 0.7725
v -0.095000 0.000000 0.095000 0.7764 0.7764 0.7764
v -0.070951 0.022000 0.105905 0.7882 0.7882 0.7882
v -0.070951 0.044000 0.105905 0.8862 0.8862 0.8862
v -0.097394 0.044000 -0.082246 0.8509 0.8509 0.8509
v 0.117200 0.044000 0.079462 0.8941 0.8941 0.8941
v 0.090757 0.044000 -0.108689 0.9058 0.9058 0.9058
v -0.097394 0.022000 -0.082246 0.7882 0.7882 0.7882
v 0.090757 0.022000 -0.108689 0.8000 0.8000 0.8000
v 0.117200 0.022000 0.079462 0.7960 0.7960 0.7960
v 0.080382 0.044000 0.102395 0.8117 0.8117 0.8117
v -0.108895 0.066000 0.085836 0.9451 0.9451 0.9451
v 0.096941 0.044000 -0.086882 0.8078 0.8078 0.8078
v 0.096941 0.066000 -0.086882 0.9372 0.9372 0.9372
v 0.080382 0.066000 0.102395 0.9255 0.9255 0.9255
v -0.092336 0.066000 -0.103441 0.9451 0.9451 0.9451
v -0.092336 0.044000 -0.103441 0.8196 0.8196 0.8196
v -0.108895 0.044000 0.085836 0.8196 0.8196 0.8196
v 0.091596 0.066000 -0.058879 0.7804 0.7804 0.7804
v 0.117724 0.068000 -0.021565 0.8902 0.8902 0.8902
v 0.050312 0.068000 -0.078130 0.8509 0.8509 0.8509
v 0.091596 0.068000 -0.058879 0.8745 0.8745 0.8745
v 0.050312 0.066000 -0.078130 0.7804 0.7804 0.7804
v 0.004933 0.068000 -0.074160 0.8392 0.8392 0.8392
v -0.032381 0.066000 -0.048032 0.7725 0.7725 0.7725
v -0.051632 0.068000 -0.006748 0.8313 0.8313 0.8313
v -0.051632 0.066000 -0.006748 0.7686 0.7686 0.7686
v -0.047662 0.066000 0.038631 0.7725 0.7725 0.7725
v -0.021534 0.068000 0.075945 0.8353 0.8353 0.8353
v -0.047662 0.068000 0.038631 0.8313 0.8313 0.8313
v 0.019750 0.066000 0.095196 0.7764 0.7764 0.7764
v 0.019750 0.068000 0.095196 0.8902 0.8902 0.8902
v 0.065129 0.066000 0.091226 0.7725 0.7725 0.7725
v 0.065129 0.068000 0.091226 0.8470 0.8470 0.8470
v 0.102443 0.066000 0.065099 0.8431 0.8431 0.8431
v 0.121694 0.068000 0.023814 0.8823 0.8823 0.8823
v 0.121694 0.066000 0.023814 0.8392 0.8392 0.8392
v -0.032381 0.068000 -0.048032 0.8353 0.8353 0.8353
v 0.102443 0.068000 0.065099 0.8862 0.8862 0.8862
v -0.021534 0.066000 0.075945 0.7764 0.7764 0.7764
v 0.004933 0.066000 -0.074160 0.7764 0.7764 0.7764
v 0.117724 0.066000 -0.021565 0.8431 0.8431 0.8431
v 0.076812 0.068000 -0.041260 0.7294 0.7294 0.7294
v 0.096111 0.080000 -0.013698 0.7216 0.7216 0.7216
v 0.046318 0.080000 -0.055479 0.7059 0.7059 0.7059
v 0.012800 0.068000 -0.052547 0.7216 0.7216 0.7216
v 0.012800 0.080000 -0.052547 0.6980 0.6980 0.6980
v -0.028981 0.080000 -0.002754 0.6941 0.6941 0.6941
v -0.014762 0.080000 -0.033248 0.6902 0.6902 0.6902
v -0.028981 0.068000 -0.002754 0.7255 0.7255 0.7255
v -0.026049 0.080000 0.030765 0.6902 0.6902 0.6902
v -0.026049 0.068000 0.030765 0.7255 0.7255 0.7255
v -0.006750 0.068000 0.058326 0.7294 0.7294 0.7294
v -0.006750 0.080000 0.058326 0.7059 0.7059 0.7059
v 0.023744 0.068000 0.072546 0.7255 0.7255 0.7255
v 0.057262 0.080000 0.069613 0.7216 0.7216 0.7216
v 0.096111 0.068000 -0.013698 0.7294 0.7294 0.7294
v 0.099044 0.080000 0.019820 0.7255 0.7255 0.7255
v 0.076812 0.080000 -0.041260 0.7137 0.7137 0.7137
v 0.023744 0.080000 0.072546 0.7176 0.7176 0.7176
v 0.084824 0.080000 0.050314 0.7216 0.7216 0.7216
v 0.099044 0.068000 0.019820 0.7216 0.7216 0.7216
v 0.084824 0.068000 0.050314 0.7216 0.7216 0.7216
v 0.057262 0.068000 0.069613 0.7216 0.7216 0.7216
v -0.014762 0.068000 -0.033248 0.7216 0.7216 0.7216
v 0.046318 0.068000 -0.055479 0.7216 0.7216 0.7216
v 0.117724 0.080000 -0.021565 0.8666 0.8666 0.8666
v 0.091596 0.082000 -0.058879 0.9568 0.9568 0.9568
v 0.117724 0.082000 -0.021565 0.9607 0.9607 0.9607
v 0.004933 0.080000 -0.074160 0.8353 0.8353 0.8353
v 0.050312 0.082000 -0.078130 0.9568 0.9568 0.9568
v -0.032381 0.080000 -0.048032 0.8078 0.8078 0.8078
v -0.047662 0.080000 0.038631 0.8039 0.8039 0.8039
v -0.051632 0.082000 -0.006748 0.9176 0.9176 0.9176
v -0.021534 0.080000 0.075945 0.8392 0.8392 0.8392
v -0.021534 0.082000 0.075945 0.9411 0.9411 0.9411
v -0.047662 0.082000 0.038631 0.9137 0.9137 0.9137
v 0.019750 0.080000 0.095196 0.8588 0.8588 0.8588
v 0.065129 0.080000 0.091226 0.8627 0.8627 0.8627
v 0.102443 0.080000 0.065099 0.8666 0.8666 0.8666
v 0.065129 0.082000 0.091226 0.9568 0.9568 0.9568
v 0.121694 0.080000 0.023814 0.8666 0.8666 0.8666
v 0.102443 0.082000 0.065099 0.9529 0.9529 0.9529
v 0.121694 0.082000 0.023814 0.9568 0.9568 0.9568
v 0.004933 0.082000 -0.074160 0.9411 0.9411 0.9411
v -0.032381 0.082000 -0.048032 0.9176 0.9176 0.9176
v 0.019750 0.082000 0.095196 0.9529 0.9529 0.9529
v -0.051632 0.080000 -0.006748 0.8000 0.8000 0.8000
v 0.050312 0.080000 -0.078130 0.8549 0.8549 0.8549
v 0.091596 0.080000 -0.058879 0.8549 0.8549 0.8549
v 0.160017 0.038727 0.058458 0.7921 0.7921 0.7921
v 0.119510 0.072621 0.038637 0.7764 0.7764 0.7764
v 0.121385 0.075379 0.039574 0.8902 0.8902 0.8902
v 0.158464 0.040000 0.061280 0.8431 0.8431 0.8431
v 0.161520 0.041273 0.060262 0.9176 0.9176 0.9176
v 0.169515 0.002000 0.101940 0.8313 0.8313 0.8313
v 0.169524 0.000434 0.098850 0.7412 0.7412 0.7412
v 0.170961 0.003566 0.099209 0.8666 0.8666 0.8666
v 0.239748 0.002732 0.079032 0.8862 0.8862 0.8862
v 0.239702 -0.000732 0.079045 0.7882 0.7882 0.7882
v 0.119106 0.074000 0.041789 0.8078 0.8078 0.8078
v 0.240549 0.001000 0.081923 0.8274 0.8274 0.8274
vn -0.0000 -0.0000 1.0000
vn -0.0000 -0.0000 -1.0000
vn -1.0000 -0.0000 -0.0000
vn 1.0000 -0.0000 -0.0000
vn -0.0000 1.0000 -0.0000
vn -0.0000 -1.0000 -0.0000
vn 0.1392 -0.0000 0.9903
vn -0.1392 -0.0000 -0.9903
vn -0.9903 -0.0000 0.1392
vn 0.9903 -0.0000 -0.1392
vn -0.0872 -0.0000 0.9962
vn 0.0872 -0.0000 -0.9962
vn -0.9962 -0.0000 -0.0872
vn 0.9962 -0.0000 0.0872
vn 0.9397 -0.0000 -0.3420
vn 0.6428 -0.0000 -0.7660
vn 0.1736 -0.0000 -0.9848
vn -0.3420 -0.0000 -0.9397
vn -0.7660 -0.0000 -0.6428
vn -0.9848 -0.0000 -0.1736
vn -0.9397 -0.0000 0.3420
vn -0.6428 -0.0000 0.7660
vn -0.1736 -0.0000 0.9848
vn 0.3420 -0.0000 0.9397
vn 0.7660 -0.0000 0.6428
vn 0.9848 -0.0000 0.1736
vn -0.6735 -0.7318 0.1043
vn -0.8320 -0.5547 0.0107
vn -0.8318 -0.5550 0.0109
vn 0.5179 0.1087 -0.8485
vn 0.7203 -0.0823 -0.6887
vn 0.7207 -0.0827 -0.6883
vn 0.1512 0.6272 0.7640
vn 0.1248 0.6822 0.7205
vn 0.1248 0.6821 0.7206
vn -0.9363 -0.3411 -0.0836
vn 0.8489 -0.2654 -0.4570
vn 0.1335 0.8013 0.5831
vn 0.1270 0.7897 0.6002
vn 0.1184 -0.8761 0.4674
vn -0.2733 0.1116 -0.9554
vn 0.1585 0.8436 0.5130
vn -0.7120 0.6052 -0.3560
vn 0.9614 -0.0137 -0.2747
vt 0.875977 0.938477
vt 0.936523 0.938477
vt 0.936523 0.945487
vt 0.875977 0.945487
vt 0.375977 0.688477
vt 0.436523 0.688477
vt 0.436523 0.749023
vt 0.375977 0.749023
vt 0.936523 0.999023
vt 0.875977 0.999023
vt 0.438477 0.688477
vt 0.499023 0.688477
vt 0.499023 0.749023
vt 0.438477 0.749023
vt 0.500977 0.688477
vt 0.561523 0.688477
vt 0.561523 0.749023
vt 0.500977 0.749023
vt 0.938477 0.938477
vt 0.943522 0.938477
vt 0.943522 0.999023
vt 0.938477 0.999023
vt 0.948568 0.938477
vt 0.948568 0.999023
vt 0.953613 0.938477
vt 0.953613 0.999023
vt 0.958659 0.938477
vt 0.958659 0.999023
vt 0.963704 0.938477
vt 0.963704 0.999023
vt 0.968750 0.938477
vt 0.968750 0.999023
vt 0.973796 0.938477
vt 0.973796 0.999023
vt 0.978841 0.938477
vt 0.978841 0.999023
vt 0.983887 0.938477
vt 0.983887 0.999023
vt 0.988932 0.938477
vt 0.988932 0.999023
vt 0.993978 0.938477
vt 0.993978 0.999023
vt 0.999023 0.938477
vt 0.999023 0.999023
vt 0.420898 0.664062
vt 0.417889 0.675293
vt 0.409668 0.683514
vt 0.398438 0.686523
vt 0.387207 0.683514
vt 0.378986 0.675293
vt 0.375977 0.664062
vt 0.378986 0.652832
vt 0.387207 0.644611
vt 0.398438 0.641602
vt 0.409668 0.644611
vt 0.417889 0.652832
vt 0.625977 0.657227
vt 0.628418 0.657227
vt 0.628418 0.686523
vt 0.625977 0.686523
vt 0.630859 0.657227
vt 0.630859 0.686523
vt 0.633301 0.657227
vt 0.633301 0.686523
vt 0.635742 0.657227
vt 0.635742 0.686523
vt 0.638184 0.657227
vt 0.638184 0.686523
vt 0.640625 0.657227
vt 0.640625 0.686523
vt 0.643066 0.657227
vt 0.643066 0.686523
vt 0.645508 0.657227
vt 0.645508 0.686523
vt 0.647949 0.657227
vt 0.647949 0.686523
vt 0.650391 0.657227
vt 0.650391 0.686523
vt 0.652832 0.657227
vt 0.652832 0.686523
vt 0.655273 0.657227
vt 0.655273 0.686523
vt 0.655273 0.671875
vt 0.653311 0.679199
vt 0.647949 0.684561
vt 0.633301 0.684561
vt 0.627939 0.679199
vt 0.625977 0.671875
vt 0.627939 0.664551
vt 0.633301 0.659189
vt 0.647949 0.659189
vt 0.653311 0.664551
vt 0.635742 0.666992
vt 0.625977 0.666992
vt 0.645508 0.666992
vt 0.655273 0.666992
vt 0.635742 0.676758
vt 0.625977 0.676758
vt 0.645508 0.676758
vt 0.655273 0.676758
s 0
usemtl props
f 8/1/1 7/2/1 6/3/1 1/4/1
f 2/1/2 4/2/2 5/3/2 3/4/2
f 4/1/3 8/2/3 1/3/3 5/4/3
f 7/1/4 2/2/4 3/3/4 6/4/4
f 1/5/5 6/6/5 3/7/5 5/8/5
f 4/1/6 2/2/6 7/9/6 8/10/6
f 9/1/7 16/2/7 12/3/7 10/4/7
f 15/1/8 14/2/8 11/3/8 13/4/8
f 14/1/9 9/2/9 10/3/9 11/4/9
f 16/1/10 15/2/10 13/3/10 12/4/10
f 10/11/5 12/12/5 13/13/5 11/14/5
f 14/1/6 15/2/6 16/9/6 9/10/6
f 24/1/11 17/2/11 21/3/11 18/4/11
f 19/1/12 23/2/12 22/3/12 20/4/12
f 23/1/13 24/2/13 18/3/13 22/4/13
f 17/1/14 19/2/14 20/3/14 21/4/14
f 18/15/5 21/16/5 20/17/5 22/18/5
f 23/1/6 19/2/6 17/9/6 24/10/6
s 1
f 48/19/15 25/20/16 28/21/16 26/22/15
f 25/20/16 29/23/17 27/24/17 28/21/16
f 29/23/17 47/25/18 30/26/18 27/24/17
f 47/25/18 31/27/19 44/28/19 30/26/18
f 31/27/19 33/29/20 32/30/20 44/28/19
f 33/29/20 34/31/21 36/32/21 32/30/20
f 34/31/21 46/33/22 35/34/22 36/32/21
f 46/33/22 37/35/23 38/36/23 35/34/22
f 37/35/23 39/37/24 40/38/24 38/36/23
f 39/37/24 41/39/25 45/40/25 40/38/24
f 41/39/25 43/41/26 42/42/26 45/40/25
f 43/41/26 48/43/15 26/44/15 42/42/26
s 0
f 26/45/5 28/46/5 27/47/5 30/48/5 44/49/5 32/50/5 36/51/5 35/52/5 38/53/5 40/54/5 45/55/5 42/56/5
f 43/46/6 41/47/6 39/48/6 37/49/6 46/50/6 34/51/6 33/52/6 31/53/6 47/54/6 29/55/6 25/56/6 48/45/6
s 1
f 63/57/15 49/58/16 65/59/16 50/60/15
f 49/58/16 72/61/17 51/62/17 65/59/16
f 72/61/17 52/63/18 53/64/18 51/62/17
f 52/63/18 71/65/19 55/66/19 53/64/18
f 71/65/19 56/67/20 54/68/20 55/66/19
f 56/67/20 58/69/21 57/70/21 54/68/20
f 58/69/21 59/71/22 60/72/22 57/70/21
f 59/71/22 61/73/23 66/74/23 60/72/22
f 61/73/23 70/75/24 62/76/24 66/74/23
f 70/75/24 69/77/25 67/78/25 62/76/24
f 69/77/25 68/79/26 64/80/26 67/78/25
f 68/79/26 63/81/15 50/82/15 64/80/26
s 0
f 50/83/5 65/84/5 51/85/5 53/70/5 55/86/5 54/87/5 57/88/5 60/89/5 66/90/5 62/69/5 67/91/5 64/92/5
f 68/84/6 69/85/6 70/70/6 61/86/6 59/87/6 58/88/6 56/89/6 71/90/6 52/69/6 72/91/6 49/92/6 63/83/6
s 1
f 73/19/15 96/20/16 74/21/16 75/22/15
f 96/20/16 95/23/17 77/24/17 74/21/16
f 95/23/17 76/25/18 91/26/18 77/24/17
f 76/25/18 78/27/19 92/28/19 91/26/18
f 78/27/19 94/29/20 80/30/20 92/28/19
f 94/29/20 79/31/21 83/32/21 80/30/20
f 79/31/21 81/33/22 82/34/22 83/32/21
f 81/33/22 84/35/23 93/36/23 82/34/22
f 84/35/23 85/37/24 87/38/24 93/36/23
f 85/37/24 86/39/25 89/40/25 87/38/24
f 86/39/25 88/41/26 90/42/26 89/40/25
f 88/41/26 73/43/15 75/44/15 90/42/26
s 0
f 75/45/5 74/46/5 77/47/5 91/48/5 92/49/5 80/50/5 83/51/5 82/52/5 93/53/5 87/54/5 89/55/5 90/56/5
f 88/46/6 86/47/6 85/48/6 84/49/6 81/50/6 79/51/6 94/52/6 78/53/6 76/54/6 95/55/6 96/56/6 73/45/6
s 1
f 107/57/27 98/65/27 97/93/28 100/94/29
f 98/65/30 99/73/30 101/95/31 97/93/32
f 99/73/33 107/81/33 100/96/34 101/95/35
f 100/94/29 97/93/28 103/97/36 102/98/36
f 97/93/32 101/95/31 104/99/37 103/97/37
f 101/95/35 100/96/34 102/100/38 104/99/39
f 102/98/40 103/97/40 106/66/40 108/60/40
f 103/97/41 104/99/41 105/74/41 106/66/41
f 104/99/39 102/100/38 108/82/42 105/74/42
s 0
f 99/60/43 98/57/43 107/83/43
f 108/88/44 106/81/44 105/82/44
