# Blender 4.0.2
# www.blender.org
mtllib Newspaper.mtl
o Newspaper
v 0.245454 0.000000 0.139674
v 0.245454 0.000000 -0.139674
v -0.245454 0.000000 0.139674
v -0.245454 0.000000 -0.139674
v -0.196363 0.000000 0.139674
v -0.147272 0.000000 0.139674
v -0.098181 0.000000 0.139674
v -0.049091 0.000000 0.139674
v 0.000000 0.000000 0.139674
v 0.049091 0.000000 0.139674
v 0.098181 0.000000 0.139674
v 0.147272 0.000000 0.139674
v 0.196363 0.000000 0.139674
v 0.245454 0.000000 0.111739
v 0.245454 0.000000 0.083805
v 0.245454 0.000000 0.055870
v 0.245454 0.000000 0.027935
v 0.245454 0.000000 -0.000000
v 0.245454 0.000000 -0.027935
v 0.245454 0.000000 -0.055870
v 0.245454 0.000000 -0.083805
v 0.245454 0.000000 -0.111739
v 0.196363 0.000000 -0.139674
v 0.147272 0.000000 -0.139674
v 0.098181 0.000000 -0.139674
v 0.049091 0.000000 -0.139674
v -0.000000 0.000000 -0.139674
v -0.049091 0.000000 -0.139674
v -0.098181 0.000000 -0.139674
v -0.147272 0.000000 -0.139674
v -0.196363 0.000000 -0.139674
v -0.245454 0.000000 -0.111739
v -0.245454 0.000000 -0.083805
v -0.245454 0.000000 -0.055870
v -0.245454 0.000000 -0.027935
v -0.245454 0.000000 0.000000
v -0.245454 0.000000 0.027935
v -0.245454 0.000000 0.055870
v -0.245454 0.000000 0.083805
v -0.245454 0.000000 0.111739
v 0.196363 0.000000 0.111739
v 0.147272 0.000000 0.111739
v 0.098181 0.000000 0.111739
v 0.049091 0.000000 0.111739
v 0.000000 0.000000 0.111739
v -0.049091 0.000000 0.111739
v -0.098181 0.000000 0.111739
v -0.147272 0.000000 0.111739
v -0.196363 0.000000 0.111739
v 0.196363 0.000000 0.083805
v 0.147272 0.000000 0.083805
v 0.098181 0.000000 0.083805
v 0.049091 0.000000 0.083805
v 0.000000 0.000000 0.083805
v -0.049091 0.000000 0.083805
v -0.098181 0.000000 0.083805
v -0.147272 0.000000 0.083805
v -0.196363 0.000000 0.083805
v 0.196363 0.000000 0.055870
v 0.147272 0.000000 0.055870
v 0.098181 0.000000 0.055870
v 0.049091 0.000000 0.055870
v 0.000000 0.000000 0.055870
v -0.049091 0.000000 0.055870
v -0.098181 0.000000 0.055870
v -0.147272 0.000000 0.055870
v -0.196363 0.000000 0.055870
v 0.196363 0.000000 0.027935
v 0.147272 0.000000 0.027935
v 0.098181 0.000000 0.027935
v 0.049091 0.000000 0.027935
v 0.000000 0.000000 0.027935
v -0.049091 0.000000 0.027935
v -0.098181 0.000000 0.027935
v -0.147272 0.000000 0.027935
v -0.196363 0.000000 0.027935
v 0.196363 0.000000 -0.000000
v 0.147272 0.000000 -0.000000
v 0.098181 0.000000 -0.000000
v 0.049091 0.000000 -0.000000
v 0.000000 0.000000 -0.000000
v -0.049091 0.000000 0.000000
v -0.098181 0.000000 0.000000
v -0.147272 0.000000 0.000000
v -0.196363 0.000000 0.000000
v 0.196363 0.000000 -0.027935
v 0.147272 0.000000 -0.027935
v 0.098181 0.000000 -0.027935
v 0.049091 0.000000 -0.027935
v -0.000000 0.000000 -0.027935
v -0.049091 0.000000 -0.027935
v -0.098181 0.000000 -0.027935
v -0.147272 0.000000 -0.027935
v -0.196363 0.000000 -0.027935
v 0.196363 0.000000 -0.055870
v 0.147272 0.000000 -0.055870
v 0.098181 0.000000 -0.055870
v 0.049091 0.000000 -0.055870
v -0.000000 0.000000 -0.055870
v -0.049091 0.000000 -0.055870
v -0.098181 0.000000 -0.055870
v -0.147272 0.000000 -0.055870
v -0.196363 0.000000 -0.055870
v 0.196363 0.000000 -0.083805
v 0.147272 0.000000 -0.083805
v 0.098181 0.000000 -0.083805
v 0.049091 0.000000 -0.083805
v -0.000000 0.000000 -0.083805
v -0.049091 0.000000 -0.083805
v -0.098181 0.000000 -0.083805
v -0.147272 0.000000 -0.083805
v -0.196363 0.000000 -0.083805
v 0.196363 0.000000 -0.111739
v 0.147272 0.000000 -0.111739
v 0.098181 0.000000 -0.111739
v 0.049091 0.000000 -0.111739
v -0.000000 0.000000 -0.111739
v -0.049091 0.000000 -0.111739
v -0.098181 0.000000 -0.111739
v -0.147272 0.000000 -0.111739
v -0.196363 0.000000 -0.111739
v 0.245454 -0.001000 0.139674
v 0.245454 -0.001000 -0.139674
v -0.245454 -0.001000 0.139674
v -0.245454 -0.001000 -0.139674
v -0.196363 -0.001000 0.139674
v -0.147272 -0.001000 0.139674
v -0.098181 -0.001000 0.139674
v -0.049091 -0.001000 0.139674
v 0.000000 -0.001000 0.139674
v 0.049091 -0.001000 0.139674
v 0.098181 -0.001000 0.139674
v 0.147272 -0.001000 0.139674
v 0.196363 -0.001000 0.139674
v 0.245454 -0.001000 0.111739
v 0.245454 -0.001000 0.083805
v 0.245454 -0.001000 0.055870
v 0.245454 -0.001000 0.027935
v 0.245454 -0.001000 -0.000000
v 0.245454 -0.001000 -0.027935
v 0.245454 -0.001000 -0.055870
v 0.245454 -0.001000 -0.083805
v 0.245454 -0.001000 -0.111739
v 0.196363 -0.001000 -0.139674
v 0.147272 -0.001000 -0.139674
v 0.098181 -0.001000 -0.139674
v 0.049091 -0.001000 -0.139674
v -0.000000 -0.001000 -0.139674
v -0.049091 -0.001000 -0.139674
v -0.098181 -0.001000 -0.139674
v -0.147272 -0.001000 -0.139674
v -0.196363 -0.001000 -0.139674
v -0.245454 -0.001000 -0.111739
v -0.245454 -0.001000 -0.083805
v -0.245454 -0.001000 -0.055870
v -0.245454 -0.001000 -0.027935
v -0.245454 -0.001000 0.000000
v -0.245454 -0.001000 0.027935
v -0.245454 -0.001000 0.055870
v -0.245454 -0.001000 0.083805
v -0.245454 -0.001000 0.111739
v 0.196363 -0.001000 0.111739
v 0.147272 -0.001000 0.111739
v 0.098181 -0.001000 0.111739
v 0.049091 -0.001000 0.111739
v 0.000000 -0.001000 0.111739
v -0.049091 -0.001000 0.111739
v -0.098181 -0.001000 0.111739
v -0.147272 -0.001000 0.111739
v -0.196363 -0.001000 0.111739
v 0.196363 -0.001000 0.083805
v 0.147272 -0.001000 0.083805
v 0.098181 -0.001000 0.083805
v 0.049091 -0.001000 0.083805
v 0.000000 -0.001000 0.083805
v -0.049091 -0.001000 0.083805
v -0.098181 -0.001000 0.083805
v -0.147272 -0.001000 0.083805
v -0.196363 -0.001000 0.083805
v 0.196363 -0.001000 0.055870
v 0.147272 -0.001000 0.055870
v 0.098181 -0.001000 0.055870
v 0.049091 -0.001000 0.055870
v 0.000000 -0.001000 0.055870
v -0.049091 -0.001000 0.055870
v -0.098181 -0.001000 0.055870
v -0.147272 -0.001000 0.055870
v -0.196363 -0.001000 0.055870
v 0.196363 -0.001000 0.027935
v 0.147272 -0.001000 0.027935
v 0.098181 -0.001000 0.027935
v 0.049091 -0.001000 0.027935
v 0.000000 -0.001000 0.027935
v -0.049091 -0.001000 0.027935
v -0.098181 -0.001000 0.027935
v -0.147272 -0.001000 0.027935
v -0.196363 -0.001000 0.027935
v 0.196363 -0.001000 -0.000000
v 0.147272 -0.001000 -0.000000
v 0.098181 -0.001000 -0.000000
v 0.049091 -0.001000 -0.000000
v 0.000000 -0.001000 -0.000000
v -0.049091 -0.001000 0.000000
v -0.098181 -0.001000 0.000000
v -0.147272 -0.001000 0.000000
v -0.196363 -0.001000 0.000000
v 0.196363 -0.001000 -0.027935
v 0.147272 -0.001000 -0.027935
v 0.098181 -0.001000 -0.027935
v 0.049091 -0.001000 -0.027935
v -0.000000 -0.001000 -0.027935
v -0.049091 -0.001000 -0.027935
v -0.098181 -0.001000 -0.027935
v -0.147272 -0.001000 -0.027935
v -0.196363 -0.001000 -0.027935
v 0.196363 -0.001000 -0.055870
v 0.147272 -0.001000 -0.055870
v 0.098181 -0.001000 -0.055870
v 0.049091 -0.001000 -0.055870
v -0.000000 -0.001000 -0.055870
v -0.049091 -0.001000 -0.055870
v -0.098181 -0.001000 -0.055870
v -0.147272 -0.001000 -0.055870
v -0.196363 -0.001000 -0.055870
v 0.196363 -0.001000 -0.083805
v 0.147272 -0.001000 -0.083805
v 0.098181 -0.001000 -0.083805
v 0.049091 -0.001000 -0.083805
v -0.000000 -0.001000 -0.083805
v -0.049091 -0.001000 -0.083805
v -0.098181 -0.001000 -0.083805
v -0.147272 -0.001000 -0.083805
v -0.196363 -0.001000 -0.083805
v 0.196363 -0.001000 -0.111739
v 0.147272 -0.001000 -0.111739
v 0.098181 -0.001000 -0.111739
v 0.049091 -0.001000 -0.111739
v -0.000000 -0.001000 -0.111739
v -0.049091 -0.001000 -0.111739
v -0.098181 -0.001000 -0.111739
v -0.147272 -0.001000 -0.111739
v -0.196363 -0.001000 -0.111739
vn -0.0000 1.0000 -0.0000
vn -0.0000 -1.0000 -0.0000
vn -0.0000 -0.0000 1.0000
vn 1.0000 -0.0000 -0.0000
vn -0.0000 -0.0000 -1.0000
vn -1.0000 -0.0000 -0.0000
vt 1.000000 0.900000
vt 0.900000 1.000000
vt 0.900000 0.900000
vt 0.100000 0.900000
vt 0.000000 1.000000
vt 0.000000 0.900000
vt 0.200000 0.900000
vt 0.100000 1.000000
vt 0.300000 0.900000
vt 0.200000 1.000000
vt 0.400000 0.900000
vt 0.300000 1.000000
vt 0.500000 0.900000
vt 0.400000 1.000000
vt 0.600000 0.900000
vt 0.500000 1.000000
vt 0.700000 0.900000
vt 0.600000 1.000000
vt 0.800000 0.900000
vt 0.700000 1.000000
vt 0.800000 1.000000
vt 0.100000 0.000000
vt 0.000000 0.100000
vt 0.000000 0.000000
vt 0.100000 0.200000
vt 0.000000 0.200000
vt 0.000000 0.300000
vt 0.100000 0.300000
vt 0.000000 0.400000
vt 0.100000 0.400000
vt 0.000000 0.500000
vt 0.100000 0.600000
vt 0.000000 0.600000
vt 0.000000 0.700000
vt 0.100000 0.700000
vt 0.000000 0.800000
vt 0.200000 0.000000
vt 0.100000 0.100000
vt 0.200000 0.100000
vt 0.200000 0.200000
vt 0.200000 0.300000
vt 0.200000 0.400000
vt 0.100000 0.500000
vt 0.200000 0.500000
vt 0.200000 0.600000
vt 0.200000 0.700000
vt 0.100000 0.800000
vt 0.200000 0.800000
vt 0.300000 0.000000
vt 0.300000 0.100000
vt 0.300000 0.200000
vt 0.300000 0.300000
vt 0.300000 0.500000
vt 0.300000 0.600000
vt 0.300000 0.800000
vt 0.400000 0.100000
vt 0.400000 0.300000
vt 0.300000 0.400000
vt 0.400000 0.400000
vt 0.400000 0.500000
vt 0.400000 0.600000
vt 0.300000 0.700000
vt 0.400000 0.800000
vt 0.400000 0.000000
vt 0.500000 0.100000
vt 0.400000 0.200000
vt 0.500000 0.300000
vt 0.500000 0.500000
vt 0.500000 0.700000
vt 0.400000 0.700000
vt 0.500000 0.800000
vt 0.600000 0.000000
vt 0.500000 0.000000
vt 0.600000 0.200000
vt 0.500000 0.200000
vt 0.600000 0.300000
vt 0.500000 0.400000
vt 0.600000 0.400000
vt 0.600000 0.500000
vt 0.500000 0.600000
vt 0.600000 0.600000
vt 0.600000 0.800000
vt 0.700000 0.000000
vt 0.600000 0.100000
vt 0.700000 0.100000
vt 0.700000 0.300000
vt 0.700000 0.400000
vt 0.700000 0.600000
vt 0.600000 0.700000
vt 0.700000 0.700000
vt 0.700000 0.800000
vt 0.800000 0.000000
vt 0.800000 0.100000
vt 0.700000 0.200000
vt 0.800000 0.300000
vt 0.800000 0.400000
vt 0.700000 0.500000
vt 0.800000 0.600000
vt 0.800000 0.700000
vt 0.800000 0.800000
vt 0.900000 0.000000
vt 0.900000 0.100000
vt 0.800000 0.200000
vt 0.900000 0.200000
vt 0.900000 0.300000
vt 0.900000 0.400000
vt 0.800000 0.500000
vt 0.900000 0.500000
vt 0.900000 0.600000
vt 0.900000 0.700000
vt 0.900000 0.800000
vt 1.000000 0.000000
vt 1.000000 0.100000
vt 1.000000 0.200000
vt 1.000000 0.300000
vt 1.000000 0.400000
vt 1.000000 0.600000
vt 1.000000 0.700000
vt 1.000000 0.500000
vt 1.000000 0.800000
vt 1.000000 1.000000
s 0
f 31/1/1 32/2/1 121/3/1
f 49/4/1 3/5/1 5/6/1
f 58/7/1 40/8/1 49/4/1
f 67/9/1 39/10/1 58/7/1
f 76/11/1 38/12/1 67/9/1
f 85/13/1 37/14/1 76/11/1
f 94/15/1 36/16/1 85/13/1
f 103/17/1 35/18/1 94/15/1
f 112/19/1 34/20/1 103/17/1
f 121/3/1 33/21/1 112/19/1
f 14/22/1 13/23/1 1/24/1
f 13/23/1 42/25/1 12/26/1
f 42/25/1 11/27/1 12/26/1
f 43/28/1 10/29/1 11/27/1
f 44/30/1 9/31/1 10/29/1
f 9/31/1 46/32/1 8/33/1
f 46/32/1 7/34/1 8/33/1
f 47/35/1 6/36/1 7/34/1
f 6/36/1 49/4/1 5/6/1
f 15/37/1 41/38/1 14/22/1
f 50/39/1 42/25/1 41/38/1
f 51/40/1 43/28/1 42/25/1
f 52/41/1 44/30/1 43/28/1
f 53/42/1 45/43/1 44/30/1
f 54/44/1 46/32/1 45/43/1
f 55/45/1 47/35/1 46/32/1
f 56/46/1 48/47/1 47/35/1
f 57/48/1 49/4/1 48/47/1
f 16/49/1 50/39/1 15/37/1
f 59/50/1 51/40/1 50/39/1
f 60/51/1 52/41/1 51/40/1
f 61/52/1 53/42/1 52/41/1
f 53/42/1 63/53/1 54/44/1
f 63/53/1 55/45/1 54/44/1
f 64/54/1 56/46/1 55/45/1
f 56/46/1 66/55/1 57/48/1
f 66/55/1 58/7/1 57/48/1
f 16/49/1 68/56/1 59/50/1
f 68/56/1 60/51/1 59/50/1
f 60/51/1 70/57/1 61/52/1
f 70/57/1 62/58/1 61/52/1
f 71/59/1 63/53/1 62/58/1
f 72/60/1 64/54/1 63/53/1
f 73/61/1 65/62/1 64/54/1
f 65/62/1 75/63/1 66/55/1
f 75/63/1 67/9/1 66/55/1
f 17/64/1 77/65/1 68/56/1
f 77/65/1 69/66/1 68/56/1
f 69/66/1 79/67/1 70/57/1
f 79/67/1 71/59/1 70/57/1
f 71/59/1 81/68/1 72/60/1
f 81/68/1 73/61/1 72/60/1
f 73/61/1 83/69/1 74/70/1
f 74/70/1 84/71/1 75/63/1
f 84/71/1 76/11/1 75/63/1
f 19/72/1 77/65/1 18/73/1
f 77/65/1 87/74/1 78/75/1
f 78/75/1 88/76/1 79/67/1
f 88/76/1 80/77/1 79/67/1
f 89/78/1 81/68/1 80/77/1
f 90/79/1 82/80/1 81/68/1
f 91/81/1 83/69/1 82/80/1
f 83/69/1 93/82/1 84/71/1
f 93/82/1 85/13/1 84/71/1
f 20/83/1 86/84/1 19/72/1
f 95/85/1 87/74/1 86/84/1
f 87/74/1 97/86/1 88/76/1
f 97/86/1 89/78/1 88/76/1
f 98/87/1 90/79/1 89/78/1
f 90/79/1 100/88/1 91/81/1
f 100/88/1 92/89/1 91/81/1
f 101/90/1 93/82/1 92/89/1
f 102/91/1 94/15/1 93/82/1
f 21/92/1 95/85/1 20/83/1
f 104/93/1 96/94/1 95/85/1
f 96/94/1 106/95/1 97/86/1
f 97/86/1 107/96/1 98/87/1
f 107/96/1 99/97/1 98/87/1
f 99/97/1 109/98/1 100/88/1
f 109/98/1 101/90/1 100/88/1
f 110/99/1 102/91/1 101/90/1
f 111/100/1 103/17/1 102/91/1
f 22/101/1 104/93/1 21/92/1
f 113/102/1 105/103/1 104/93/1
f 114/104/1 106/95/1 105/103/1
f 115/105/1 107/96/1 106/95/1
f 116/106/1 108/107/1 107/96/1
f 117/108/1 109/98/1 108/107/1
f 118/109/1 110/99/1 109/98/1
f 119/110/1 111/100/1 110/99/1
f 120/111/1 112/19/1 111/100/1
f 2/112/1 113/102/1 22/101/1
f 23/113/1 114/104/1 113/102/1
f 24/114/1 115/105/1 114/104/1
f 25/115/1 116/106/1 115/105/1
f 26/116/1 117/108/1 116/106/1
f 117/108/1 28/117/1 118/109/1
f 28/117/1 119/110/1 118/109/1
f 29/118/1 120/111/1 119/110/1
f 120/111/1 31/1/1 121/3/1
f 153/2/2 152/1/2 242/3/2
f 124/5/2 170/4/2 126/6/2
f 161/8/2 179/7/2 170/4/2
f 160/10/2 188/9/2 179/7/2
f 159/12/2 197/11/2 188/9/2
f 158/14/2 206/13/2 197/11/2
f 157/16/2 215/15/2 206/13/2
f 156/18/2 224/17/2 215/15/2
f 224/17/2 154/21/2 233/19/2
f 154/21/2 242/3/2 233/19/2
f 134/23/2 135/22/2 122/24/2
f 134/23/2 163/25/2 162/38/2
f 132/27/2 163/25/2 133/26/2
f 131/29/2 164/28/2 132/27/2
f 130/31/2 165/30/2 131/29/2
f 129/33/2 166/43/2 130/31/2
f 128/34/2 167/32/2 129/33/2
f 127/36/2 168/35/2 128/34/2
f 127/36/2 170/4/2 169/47/2
f 162/38/2 136/37/2 135/22/2
f 163/25/2 171/39/2 162/38/2
f 164/28/2 172/40/2 163/25/2
f 165/30/2 173/41/2 164/28/2
f 166/43/2 174/42/2 165/30/2
f 167/32/2 175/44/2 166/43/2
f 168/35/2 176/45/2 167/32/2
f 169/47/2 177/46/2 168/35/2
f 170/4/2 178/48/2 169/47/2
f 171/39/2 137/49/2 136/37/2
f 172/40/2 180/50/2 171/39/2
f 173/41/2 181/51/2 172/40/2
f 174/42/2 182/52/2 173/41/2
f 174/42/2 184/53/2 183/58/2
f 176/45/2 184/53/2 175/44/2
f 177/46/2 185/54/2 176/45/2
f 177/46/2 187/55/2 186/62/2
f 179/7/2 187/55/2 178/48/2
f 137/49/2 189/56/2 138/64/2
f 181/51/2 189/56/2 180/50/2
f 181/51/2 191/57/2 190/66/2
f 183/58/2 191/57/2 182/52/2
f 184/53/2 192/59/2 183/58/2
f 185/54/2 193/60/2 184/53/2
f 186/62/2 194/61/2 185/54/2
f 186/62/2 196/63/2 195/70/2
f 188/9/2 196/63/2 187/55/2
f 189/56/2 139/73/2 138/64/2
f 190/66/2 198/65/2 189/56/2
f 190/66/2 200/67/2 199/75/2
f 192/59/2 200/67/2 191/57/2
f 192/59/2 202/68/2 201/77/2
f 194/61/2 202/68/2 193/60/2
f 195/70/2 203/80/2 194/61/2
f 195/70/2 205/71/2 204/69/2
f 197/11/2 205/71/2 196/63/2
f 198/65/2 140/72/2 139/73/2
f 199/75/2 207/84/2 198/65/2
f 200/67/2 208/74/2 199/75/2
f 201/77/2 209/76/2 200/67/2
f 202/68/2 210/78/2 201/77/2
f 203/80/2 211/79/2 202/68/2
f 204/69/2 212/81/2 203/80/2
f 204/69/2 214/82/2 213/89/2
f 206/13/2 214/82/2 205/71/2
f 207/84/2 141/83/2 140/72/2
f 208/74/2 216/85/2 207/84/2
f 208/74/2 218/86/2 217/94/2
f 210/78/2 218/86/2 209/76/2
f 211/79/2 219/87/2 210/78/2
f 212/81/2 220/97/2 211/79/2
f 213/89/2 221/88/2 212/81/2
f 214/82/2 222/90/2 213/89/2
f 215/15/2 223/91/2 214/82/2
f 216/85/2 142/92/2 141/83/2
f 217/94/2 225/93/2 216/85/2
f 217/94/2 227/95/2 226/103/2
f 218/86/2 228/96/2 227/95/2
f 220/97/2 228/96/2 219/87/2
f 220/97/2 230/98/2 229/107/2
f 222/90/2 230/98/2 221/88/2
f 223/91/2 231/99/2 222/90/2
f 224/17/2 232/100/2 223/91/2
f 225/93/2 143/101/2 142/92/2
f 226/103/2 234/102/2 225/93/2
f 227/95/2 235/104/2 226/103/2
f 228/96/2 236/105/2 227/95/2
f 229/107/2 237/106/2 228/96/2
f 230/98/2 238/108/2 229/107/2
f 231/99/2 239/109/2 230/98/2
f 232/100/2 240/110/2 231/99/2
f 233/19/2 241/111/2 232/100/2
f 234/102/2 123/112/2 143/101/2
f 235/104/2 144/113/2 234/102/2
f 236/105/2 145/114/2 235/104/2
f 237/106/2 146/115/2 236/105/2
f 238/108/2 147/116/2 237/106/2
f 239/109/2 148/119/2 238/108/2
f 240/110/2 149/117/2 239/109/2
f 241/111/2 150/118/2 240/110/2
f 241/111/2 152/1/2 151/120/2
f 13/23/3 122/24/3 1/24/3
f 22/101/4 123/112/4 2/112/4
f 31/1/5 125/121/5 4/121/5
f 40/8/6 124/5/6 3/5/6
f 3/5/3 126/6/3 5/6/3
f 5/6/3 127/36/3 6/36/3
f 6/36/3 128/34/3 7/34/3
f 7/34/3 129/33/3 8/33/3
f 8/33/3 130/31/3 9/31/3
f 9/31/3 131/29/3 10/29/3
f 10/29/3 132/27/3 11/27/3
f 11/27/3 133/26/3 12/26/3
f 12/26/3 134/23/3 13/23/3
f 1/24/4 135/22/4 14/22/4
f 14/22/4 136/37/4 15/37/4
f 15/37/4 137/49/4 16/49/4
f 16/49/4 138/64/4 17/64/4
f 17/64/4 139/73/4 18/73/4
f 18/73/4 140/72/4 19/72/4
f 19/72/4 141/83/4 20/83/4
f 20/83/4 142/92/4 21/92/4
f 21/92/4 143/101/4 22/101/4
f 2/112/5 144/113/5 23/113/5
f 23/113/5 145/114/5 24/114/5
f 24/114/5 146/115/5 25/115/5
f 25/115/5 147/116/5 26/116/5
f 26/116/5 148/119/5 27/119/5
f 27/119/5 149/117/5 28/117/5
f 28/117/5 150/118/5 29/118/5
f 29/118/5 151/120/5 30/120/5
f 30/120/5 152/1/5 31/1/5
f 4/121/6 153/2/6 32/2/6
f 32/2/6 154/21/6 33/21/6
f 33/21/6 155/20/6 34/20/6
f 34/20/6 156/18/6 35/18/6
f 35/18/6 157/16/6 36/16/6
f 36/16/6 158/14/6 37/14/6
f 37/14/6 159/12/6 38/12/6
f 38/12/6 160/10/6 39/10/6
f 39/10/6 161/8/6 40/8/6
f 31/1/1 4/121/1 32/2/1
f 49/4/1 40/8/1 3/5/1
f 58/7/1 39/10/1 40/8/1
f 67/9/1 38/12/1 39/10/1
f 76/11/1 37/14/1 38/12/1
f 85/13/1 36/16/1 37/14/1
f 94/15/1 35/18/1 36/16/1
f 103/17/1 34/20/1 35/18/1
f 112/19/1 33/21/1 34/20/1
f 121/3/1 32/2/1 33/21/1
f 14/22/1 41/38/1 13/23/1
f 13/23/1 41/38/1 42/25/1
f 42/25/1 43/28/1 11/27/1
f 43/28/1 44/30/1 10/29/1
f 44/30/1 45/43/1 9/31/1
f 9/31/1 45/43/1 46/32/1
f 46/32/1 47/35/1 7/34/1
f 47/35/1 48/47/1 6/36/1
f 6/36/1 48/47/1 49/4/1
f 15/37/1 50/39/1 41/38/1
f 50/39/1 51/40/1 42/25/1
f 51/40/1 52/41/1 43/28/1
f 52/41/1 53/42/1 44/30/1
f 53/42/1 54/44/1 45/43/1
f 54/44/1 55/45/1 46/32/1
f 55/45/1 56/46/1 47/35/1
f 56/46/1 57/48/1 48/47/1
f 57/48/1 58/7/1 49/4/1
f 16/49/1 59/50/1 50/39/1
f 59/50/1 60/51/1 51/40/1
f 60/51/1 61/52/1 52/41/1
f 61/52/1 62/58/1 53/42/1
f 53/42/1 62/58/1 63/53/1
f 63/53/1 64/54/1 55/45/1
f 64/54/1 65/62/1 56/46/1
f 56/46/1 65/62/1 66/55/1
f 66/55/1 67/9/1 58/7/1
f 16/49/1 17/64/1 68/56/1
f 68/56/1 69/66/1 60/51/1
f 60/51/1 69/66/1 70/57/1
f 70/57/1 71/59/1 62/58/1
f 71/59/1 72/60/1 63/53/1
f 72/60/1 73/61/1 64/54/1
f 73/61/1 74/70/1 65/62/1
f 65/62/1 74/70/1 75/63/1
f 75/63/1 76/11/1 67/9/1
f 17/64/1 18/73/1 77/65/1
f 77/65/1 78/75/1 69/66/1
f 69/66/1 78/75/1 79/67/1
f 79/67/1 80/77/1 71/59/1
f 71/59/1 80/77/1 81/68/1
f 81/68/1 82/80/1 73/61/1
f 73/61/1 82/80/1 83/69/1
f 74/70/1 83/69/1 84/71/1
f 84/71/1 85/13/1 76/11/1
f 19/72/1 86/84/1 77/65/1
f 77/65/1 86/84/1 87/74/1
f 78/75/1 87/74/1 88/76/1
f 88/76/1 89/78/1 80/77/1
f 89/78/1 90/79/1 81/68/1
f 90/79/1 91/81/1 82/80/1
f 91/81/1 92/89/1 83/69/1
f 83/69/1 92/89/1 93/82/1
f 93/82/1 94/15/1 85/13/1
f 20/83/1 95/85/1 86/84/1
f 95/85/1 96/94/1 87/74/1
f 87/74/1 96/94/1 97/86/1
f 97/86/1 98/87/1 89/78/1
f 98/87/1 99/97/1 90/79/1
f 90/79/1 99/97/1 100/88/1
f 100/88/1 101/90/1 92/89/1
f 101/90/1 102/91/1 93/82/1
f 102/91/1 103/17/1 94/15/1
f 21/92/1 104/93/1 95/85/1
f 104/93/1 105/103/1 96/94/1
f 96/94/1 105/103/1 106/95/1
f 97/86/1 106/95/1 107/96/1
f 107/96/1 108/107/1 99/97/1
f 99/97/1 108/107/1 109/98/1
f 109/98/1 110/99/1 101/90/1
f 110/99/1 111/100/1 102/91/1
f 111/100/1 112/19/1 103/17/1
f 22/101/1 113/102/1 104/93/1
f 113/102/1 114/104/1 105/103/1
f 114/104/1 115/105/1 106/95/1
f 115/105/1 116/106/1 107/96/1
f 116/106/1 117/108/1 108/107/1
f 117/108/1 118/109/1 109/98/1
f 118/109/1 119/110/1 110/99/1
f 119/110/1 120/111/1 111/100/1
f 120/111/1 121/3/1 112/19/1
f 2/112/1 23/113/1 113/102/1
f 23/113/1 24/114/1 114/104/1
f 24/114/1 25/115/1 115/105/1
f 25/115/1 26/116/1 116/106/1
f 26/116/1 27/119/1 117/108/1
f 117/108/1 27/119/1 28/117/1
f 28/117/1 29/118/1 119/110/1
f 29/118/1 30/120/1 120/111/1
f 120/111/1 30/120/1 31/1/1
f 153/2/2 125/121/2 152/1/2
f 124/5/2 161/8/2 170/4/2
f 161/8/2 160/10/2 179/7/2
f 160/10/2 159/12/2 188/9/2
f 159/12/2 158/14/2 197/11/2
f 158/14/2 157/16/2 206/13/2
f 157/16/2 156/18/2 215/15/2
f 156/18/2 155/20/2 224/17/2
f 224/17/2 155/20/2 154/21/2
f 154/21/2 153/2/2 242/3/2
f 134/23/2 162/38/2 135/22/2
f 134/23/2 133/26/2 163/25/2
f 132/27/2 164/28/2 163/25/2
f 131/29/2 165/30/2 164/28/2
f 130/31/2 166/43/2 165/30/2
f 129/33/2 167/32/2 166/43/2
f 128/34/2 168/35/2 167/32/2
f 127/36/2 169/47/2 168/35/2
f 127/36/2 126/6/2 170/4/2
f 162/38/2 171/39/2 136/37/2
f 163/25/2 172/40/2 171/39/2
f 164/28/2 173/41/2 172/40/2
f 165/30/2 174/42/2 173/41/2
f 166/43/2 175/44/2 174/42/2
f 167/32/2 176/45/2 175/44/2
f 168/35/2 177/46/2 176/45/2
f 169/47/2 178/48/2 177/46/2
f 170/4/2 179/7/2 178/48/2
f 171/39/2 180/50/2 137/49/2
f 172/40/2 181/51/2 180/50/2
f 173/41/2 182/52/2 181/51/2
f 174/42/2 183/58/2 182/52/2
f 174/42/2 175/44/2 184/53/2
f 176/45/2 185/54/2 184/53/2
f 177/46/2 186/62/2 185/54/2
f 177/46/2 178/48/2 187/55/2
f 179/7/2 188/9/2 187/55/2
f 137/49/2 180/50/2 189/56/2
f 181/51/2 190/66/2 189/56/2
f 181/51/2 182/52/2 191/57/2
f 183/58/2 192/59/2 191/57/2
f 184/53/2 193/60/2 192/59/2
f 185/54/2 194/61/2 193/60/2
f 186/62/2 195/70/2 194/61/2
f 186/62/2 187/55/2 196/63/2
f 188/9/2 197/11/2 196/63/2
f 189/56/2 198/65/2 139/73/2
f 190/66/2 199/75/2 198/65/2
f 190/66/2 191/57/2 200/67/2
f 192/59/2 201/77/2 200/67/2
f 192/59/2 193/60/2 202/68/2
f 194/61/2 203/80/2 202/68/2
f 195/70/2 204/69/2 203/80/2
f 195/70/2 196/63/2 205/71/2
f 197/11/2 206/13/2 205/71/2
f 198/65/2 207/84/2 140/72/2
f 199/75/2 208/74/2 207/84/2
f 200/67/2 209/76/2 208/74/2
f 201/77/2 210/78/2 209/76/2
f 202/68/2 211/79/2 210/78/2
f 203/80/2 212/81/2 211/79/2
f 204/69/2 213/89/2 212/81/2
f 204/69/2 205/71/2 214/82/2
f 206/13/2 215/15/2 214/82/2
f 207/84/2 216/85/2 141/83/2
f 208/74/2 217/94/2 216/85/2
f 208/74/2 209/76/2 218/86/2
f 210/78/2 219/87/2 218/86/2
f 211/79/2 220/97/2 219/87/2
f 212/81/2 221/88/2 220/97/2
f 213/89/2 222/90/2 221/88/2
f 214/82/2 223/91/2 222/90/2
f 215/15/2 224/17/2 223/91/2
f 216/85/2 225/93/2 142/92/2
f 217/94/2 226/103/2 225/93/2
f 217/94/2 218/86/2 227/95/2
f 218/86/2 219/87/2 228/96/2
f 220/97/2 229/107/2 228/96/2
f 220/97/2 221/88/2 230/98/2
f 222/90/2 231/99/2 230/98/2
f 223/91/2 232/100/2 231/99/2
f 224/17/2 233/19/2 232/100/2
f 225/93/2 234/102/2 143/101/2
f 226/103/2 235/104/2 234/102/2
f 227/95/2 236/105/2 235/104/2
f 228/96/2 237/106/2 236/105/2
f 229/107/2 238/108/2 237/106/2
f 230/98/2 239/109/2 238/108/2
f 231/99/2 240/110/2 239/109/2
f 232/100/2 241/111/2 240/110/2
f 233/19/2 242/3/2 241/111/2
f 234/102/2 144/113/2 123/112/2
f 235/104/2 145/114/2 144/113/2
f 236/105/2 146/115/2 145/114/2
f 237/106/2 147/116/2 146/115/2
f 238/108/2 148/119/2 147/116/2
f 239/109/2 149/117/2 148/119/2
f 240/110/2 150/118/2 149/117/2
f 241/111/2 151/120/2 150/118/2
f 241/111/2 242/3/2 152/1/2
f 13/23/3 134/23/3 122/24/3
f 22/101/4 143/101/4 123/112/4
f 31/1/5 152/1/5 125/121/5
f 40/8/6 161/8/6 124/5/6
f 3/5/3 124/5/3 126/6/3
f 5/6/3 126/6/3 127/36/3
f 6/36/3 127/36/3 128/34/3
f 7/34/3 128/34/3 129/33/3
f 8/33/3 129/33/3 130/31/3
f 9/31/3 130/31/3 131/29/3
f 10/29/3 131/29/3 132/27/3
f 11/27/3 132/27/3 133/26/3
f 12/26/3 133/26/3 134/23/3
f 1/24/4 122/24/4 135/22/4
f 14/22/4 135/22/4 136/37/4
f 15/37/4 136/37/4 137/49/4
f 16/49/4 137/49/4 138/64/4
f 17/64/4 138/64/4 139/73/4
f 18/73/4 139/73/4 140/72/4
f 19/72/4 140/72/4 141/83/4
f 20/83/4 141/83/4 142/92/4
f 21/92/4 142/92/4 143/101/4
f 2/112/5 123/112/5 144/113/5
f 23/113/5 144/113/5 145/114/5
f 24/114/5 145/114/5 146/115/5
f 25/115/5 146/115/5 147/116/5
f 26/116/5 147/116/5 148/119/5
f 27/119/5 148/119/5 149/117/5
f 28/117/5 149/117/5 150/118/5
f 29/118/5 150/118/5 151/120/5
f 30/120/5 151/120/5 152/1/5
f 4/121/6 125/121/6 153/2/6
f 32/2/6 153/2/6 154/21/6
f 33/21/6 154/21/6 155/20/6
f 34/20/6 155/20/6 156/18/6
f 35/18/6 156/18/6 157/16/6
f 36/16/6 157/16/6 158/14/6
f 37/14/6 158/14/6 159/12/6
f 38/12/6 159/12/6 160/10/6
f 39/10/6 160/10/6 161/8/6
