# Blender 4.1.0
# www.blender.org
mtllib CoatHanger.mtl
o CoatHanger
v -0.007495 0.105684 -0.000000
v -0.006692 0.103222 0.004486
v -0.005087 0.098297 0.004486
v -0.004284 0.095834 0.000000
v -0.005087 0.098297 -0.004486
v -0.006692 0.103222 -0.004486
v -0.044416 0.175013 0.000000
v -0.042509 0.173261 0.004486
v -0.038695 0.169756 0.004486
v -0.036788 0.168004 0.000000
v -0.038695 0.169756 -0.004486
v -0.042509 0.173261 -0.004486
v -0.044416 0.175013 0.000000
v -0.042509 0.173261 0.004486
v -0.038695 0.169756 0.004486
v -0.036788 0.168004 0.000000
v -0.038695 0.169756 -0.004486
v -0.042509 0.173261 -0.004486
v -0.030533 0.189706 0.000000
v -0.029298 0.187430 0.004486
v -0.026828 0.182877 0.004486
v -0.025593 0.180600 0.000000
v -0.026828 0.182877 -0.004486
v -0.029298 0.187430 -0.004486
v -0.004923 0.193931 0.000000
v -0.005457 0.191397 0.004486
v -0.006527 0.186329 0.004486
v -0.007061 0.183795 0.000000
v -0.006527 0.186329 -0.004486
v -0.005457 0.191397 -0.004486
v 0.016317 0.179647 0.000000
v 0.014044 0.178405 0.004486
v 0.009499 0.175921 0.004486
v 0.007227 0.174679 0.000000
v 0.009499 0.175921 -0.004486
v 0.014044 0.178405 -0.004486
v 0.016770 0.157357 0.000000
v 0.014378 0.158350 0.004486
v 0.009594 0.160336 0.004486
v 0.007202 0.161329 0.000000
v 0.009594 0.160336 -0.004486
v 0.014378 0.158350 -0.004486
v -0.001175 0.139880 0.000000
v -0.003561 0.140887 0.004486
v -0.008333 0.142902 0.004486
v -0.010719 0.143910 0.000000
v -0.008333 0.142902 -0.004486
v -0.003561 0.140887 -0.004486
v -0.001770 0.103760 -0.000000
v -0.003858 0.102229 0.004486
v -0.008036 0.099166 0.004486
v -0.010125 0.097635 0.000000
v -0.008036 0.099166 -0.004486
v -0.003858 0.102229 -0.004486
v 0.228886 0.031436 -0.000000
v 0.227064 0.029595 0.004486
v 0.223421 0.025913 0.004486
v 0.221599 0.024072 -0.000000
v 0.223421 0.025913 -0.004486
v 0.227064 0.029595 -0.004486
v 0.234673 0.013357 -0.000000
v 0.232139 0.013891 0.004486
v 0.227070 0.014959 0.004486
v 0.224536 0.015494 -0.000000
v 0.227070 0.014959 -0.004486
v 0.232139 0.013891 -0.004486
v 0.221052 -0.002180 -0.000000
v 0.219997 0.000186 0.004486
v 0.217887 0.004916 0.004486
v 0.216832 0.007281 -0.000000
v 0.217887 0.004916 -0.004486
v 0.219997 0.000186 -0.004486
v -0.230692 -0.002101 -0.000000
v -0.229552 0.000225 0.004486
v -0.227273 0.004877 0.004486
v -0.226134 0.007202 -0.000000
v -0.227273 0.004877 -0.004486
v -0.229552 0.000225 -0.004486
v -0.242790 0.014082 -0.000000
v -0.240206 0.014254 0.004486
v -0.235037 0.014597 0.004486
v -0.232453 0.014769 -0.000000
v -0.235037 0.014597 -0.004486
v -0.240206 0.014254 -0.004486
v -0.233122 0.031783 -0.000000
v -0.231494 0.029769 0.004486
v -0.228239 0.025739 0.004486
v -0.226612 0.023724 -0.000000
v -0.228239 0.025739 -0.004486
v -0.231494 0.029769 -0.004486
v -0.007495 0.105684 -0.000000
v -0.006692 0.103222 0.004486
v -0.005087 0.098297 0.004486
v -0.004284 0.095834 0.000000
v -0.005087 0.098297 -0.004486
v -0.006692 0.103222 -0.004486
vn 0.9508 0.3099 -0.0000
vn -0.6766 -0.7363 -0.0000
vn -0.6334 0.5906 -0.5000
vn -0.6334 0.5906 0.5000
vn -0.0000 -0.0000 1.0000
vn 0.6473 -0.5753 0.4999
vn 0.6473 -0.5753 -0.4999
vn -0.0000 -0.0000 -1.0000
vn -0.1441 0.8659 -0.4791
vn -0.1441 0.8659 0.4791
vn 0.1491 -0.8646 0.4798
vn 0.1491 -0.8646 -0.4798
vn 0.4886 0.7334 -0.4726
vn 0.4886 0.7334 0.4726
vn -0.4732 -0.7417 0.4754
vn -0.4732 -0.7417 -0.4754
vn 0.8899 0.0181 -0.4558
vn 0.8899 0.0181 0.4558
vn -0.8914 -0.0054 0.4531
vn -0.8914 -0.0054 -0.4531
vn 0.6163 -0.6328 -0.4687
vn 0.6163 -0.6328 0.4687
vn -0.6159 0.6333 0.4686
vn -0.6159 0.6333 -0.4686
vn 0.8814 -0.0145 -0.4721
vn 0.8814 -0.0145 0.4721
vn -0.8834 -0.0060 0.4685
vn -0.8834 -0.0060 -0.4685
vn 0.2720 0.8649 -0.4219
vn 0.2720 0.8649 0.4219
vn -0.2742 -0.8638 0.4226
vn -0.2742 -0.8638 -0.4226
vn 0.8468 0.2736 -0.4562
vn 0.8468 0.2736 0.4562
vn -0.8404 -0.2877 0.4593
vn -0.8404 -0.2877 -0.4593
vn 0.6717 -0.5889 -0.4496
vn 0.6717 -0.5889 0.4496
vn -0.6608 0.6042 0.4452
vn -0.6608 0.6042 -0.4453
vn -0.0001 -0.8846 -0.4664
vn -0.0001 -0.8846 0.4664
vn -0.0002 0.8846 0.4664
vn -0.0002 0.8846 -0.4664
vn -0.7078 -0.5375 -0.4585
vn -0.7078 -0.5375 0.4585
vn 0.6789 0.5670 0.4664
vn 0.6789 0.5670 -0.4664
vn -0.7890 0.4309 -0.4380
vn -0.7890 0.4309 0.4380
vn 0.7720 -0.4710 0.4267
vn 0.7720 -0.4710 -0.4267
vn -0.2739 0.8363 -0.4750
vn -0.2739 0.8363 0.4750
vn 0.2722 -0.8370 0.4747
vn 0.2722 -0.8370 -0.4747
vn -0.6372 0.6021 -0.4810
vn -0.6372 0.6021 0.4810
vn 0.6513 -0.5891 0.4783
vn 0.6513 -0.5891 -0.4783
vn -0.1434 0.8689 -0.4738
vn -0.1434 0.8689 0.4738
vn 0.1477 -0.8686 0.4731
vn 0.1477 -0.8686 -0.4731
vn 0.4966 0.7385 -0.4561
vn 0.4966 0.7385 0.4561
vn -0.4856 -0.7477 0.4530
vn -0.4856 -0.7477 -0.4530
vn 0.8836 0.0147 -0.4679
vn 0.8836 0.0147 0.4679
vn -0.8822 0.0016 0.4708
vn -0.8822 0.0016 -0.4708
vn 0.6158 -0.6326 -0.4696
vn 0.6158 -0.6326 0.4696
vn -0.6154 0.6331 0.4695
vn -0.6154 0.6331 -0.4695
vn 0.9074 -0.0070 -0.4201
vn 0.9074 -0.0070 0.4201
vn -0.9050 -0.0116 0.4253
vn -0.9050 -0.0116 -0.4253
vn 0.2662 0.8490 -0.4565
vn 0.2662 0.8490 0.4565
vn -0.2684 -0.8480 0.4570
vn -0.2684 -0.8480 -0.4570
vn 0.8512 0.2725 -0.4485
vn 0.8512 0.2725 0.4485
vn -0.8491 -0.2829 0.4460
vn -0.8491 -0.2829 -0.4460
vn 0.6625 -0.5870 -0.4653
vn 0.6625 -0.5870 0.4653
vn -0.6438 0.6040 0.4699
vn -0.6438 0.6040 -0.4699
vn -0.0002 -0.8878 -0.4603
vn -0.0002 -0.8878 0.4603
vn -0.0001 0.8878 0.4603
vn -0.0001 0.8878 -0.4603
vn -0.7208 -0.5389 -0.4359
vn -0.7208 -0.5389 0.4359
vn 0.7060 0.5639 0.4283
vn 0.7060 0.5639 -0.4283
vn -0.7684 0.4315 -0.4726
vn -0.7684 0.4315 0.4726
vn 0.7341 -0.4788 0.4814
vn 0.7341 -0.4788 -0.4814
vn -0.2690 0.8232 -0.5000
vn -0.2690 0.8232 0.5000
vn 0.2672 -0.8238 0.5000
vn 0.2672 -0.8238 -0.5000
vt 0.494103 0.558050
vt 0.495658 0.553280
vt 0.490994 0.567590
vt 0.489439 0.572360
vt 0.429002 0.696473
vt 0.432696 0.693078
vt 0.421614 0.703262
vt 0.417920 0.706657
vt 0.447204 0.730708
vt 0.451989 0.721889
vt 0.454381 0.717479
vt 0.444812 0.735118
vt 0.493386 0.738394
vt 0.491315 0.728576
vt 0.490279 0.723667
vt 0.494422 0.743303
vt 0.531163 0.713227
vt 0.522358 0.708415
vt 0.517956 0.706009
vt 0.536442 0.672454
vt 0.535565 0.715633
vt 0.531808 0.674378
vt 0.522541 0.678226
vt 0.501680 0.638600
vt 0.497059 0.640552
vt 0.517908 0.680150
vt 0.487815 0.644455
vt 0.500529 0.568633
vt 0.496483 0.565666
vt 0.483193 0.646406
vt 0.488391 0.559734
vt 0.943801 0.424968
vt 0.936744 0.417836
vt 0.933215 0.414269
vt 0.484345 0.556768
vt 0.947330 0.428535
vt 0.953631 0.394549
vt 0.943813 0.396618
vt 0.938904 0.397653
vt 0.932155 0.363418
vt 0.958540 0.393514
vt 0.930111 0.368000
vt 0.926024 0.377163
vt 0.059293 0.368076
vt 0.063708 0.377087
vt 0.065916 0.381592
vt 0.923980 0.381745
vt 0.063708 0.377087
vt 0.057086 0.363571
vt 0.038657 0.395251
vt 0.048668 0.395916
vt 0.053674 0.396249
vt 0.052379 0.429207
vt 0.033651 0.394918
vt 0.055532 0.425305
vt 0.061837 0.417499
vt 0.064989 0.413597
s 0
usemtl CoatHanger01
f 5/1/1 3/1/1 4/2/1
f 6/3/1 3/1/1 5/1/1
f 6/3/1 2/3/1 3/1/1
f 1/4/1 2/3/1 6/3/1
f 9/5/2 11/5/2 10/6/2
f 8/7/2 11/5/2 9/5/2
f 8/7/2 12/7/2 11/5/2
f 7/8/2 12/7/2 8/7/2
f 13/8/3 24/9/3 18/7/3
f 20/9/4 13/8/4 14/7/4
f 21/10/5 14/7/5 15/5/5
f 22/11/6 15/5/6 16/6/6
f 17/5/7 22/11/7 16/6/7
f 18/7/8 23/10/8 17/5/8
f 19/12/9 30/13/9 24/9/9
f 26/13/10 19/12/10 20/9/10
f 27/14/5 20/9/5 21/10/5
f 28/15/11 21/10/11 22/11/11
f 23/10/12 28/15/12 22/11/12
f 24/9/8 29/14/8 23/10/8
f 25/16/13 36/17/13 30/13/13
f 32/17/14 25/16/14 26/13/14
f 33/18/5 26/13/5 27/14/5
f 34/19/15 27/14/15 28/15/15
f 29/14/16 34/19/16 28/15/16
f 30/13/8 35/18/8 29/14/8
f 37/20/17 36/17/17 31/21/17
f 32/17/18 37/20/18 31/21/18
f 33/18/5 38/22/5 32/17/5
f 34/19/19 39/23/19 33/18/19
f 41/23/20 34/19/20 35/18/20
f 42/22/8 35/18/8 36/17/8
f 43/24/21 42/22/21 37/20/21
f 38/22/22 43/24/22 37/20/22
f 39/23/5 44/25/5 38/22/5
f 40/26/23 45/27/23 39/23/23
f 47/27/24 40/26/24 41/23/24
f 48/25/8 41/23/8 42/22/8
f 49/28/25 48/25/25 43/24/25
f 44/25/26 49/28/26 43/24/26
f 45/27/5 50/29/5 44/25/5
f 46/30/27 51/31/27 45/27/27
f 53/31/28 46/30/28 47/27/28
f 54/29/8 47/27/8 48/25/8
f 49/28/29 60/32/29 54/29/29
f 56/32/30 49/28/30 50/29/30
f 57/33/5 50/29/5 51/31/5
f 58/34/31 51/31/31 52/35/31
f 53/31/32 58/34/32 52/35/32
f 54/29/8 59/33/8 53/31/8
f 55/36/33 66/37/33 60/32/33
f 62/37/34 55/36/34 56/32/34
f 63/38/5 56/32/5 57/33/5
f 64/39/35 57/33/35 58/34/35
f 59/33/36 64/39/36 58/34/36
f 60/32/8 65/38/8 59/33/8
f 67/40/37 66/37/37 61/41/37
f 62/37/38 67/40/38 61/41/38
f 63/38/5 68/42/5 62/37/5
f 64/39/39 69/43/39 63/38/39
f 71/43/40 64/39/40 65/38/40
f 72/42/8 65/38/8 66/37/8
f 67/40/41 78/44/41 72/42/41
f 74/44/42 67/40/42 68/42/42
f 75/45/5 68/42/5 69/43/5
f 76/46/43 69/43/43 70/47/43
f 71/43/44 76/46/44 70/47/44
f 72/42/8 77/48/8 71/43/8
f 73/49/45 84/50/45 78/44/45
f 80/50/46 73/49/46 74/44/46
f 81/51/5 74/44/5 75/45/5
f 82/52/47 75/45/47 76/46/47
f 77/48/48 82/52/48 76/46/48
f 78/44/8 83/51/8 77/48/8
f 85/53/49 84/50/49 79/54/49
f 80/50/50 85/53/50 79/54/50
f 81/51/5 86/55/5 80/50/5
f 82/52/51 87/56/51 81/51/51
f 89/56/52 82/52/52 83/51/52
f 90/55/8 83/51/8 84/50/8
f 91/4/53 90/55/53 85/53/53
f 86/55/54 91/4/54 85/53/54
f 87/56/5 92/3/5 86/55/5
f 88/57/55 93/1/55 87/56/55
f 95/1/56 88/57/56 89/56/56
f 96/3/8 89/56/8 90/55/8
f 13/8/57 19/12/57 24/9/57
f 20/9/58 19/12/58 13/8/58
f 21/10/5 20/9/5 14/7/5
f 22/11/59 21/10/59 15/5/59
f 17/5/60 23/10/60 22/11/60
f 18/7/8 24/9/8 23/10/8
f 19/12/61 25/16/61 30/13/61
f 26/13/62 25/16/62 19/12/62
f 27/14/5 26/13/5 20/9/5
f 28/15/63 27/14/63 21/10/63
f 23/10/64 29/14/64 28/15/64
f 24/9/8 30/13/8 29/14/8
f 25/16/65 31/21/65 36/17/65
f 32/17/66 31/21/66 25/16/66
f 33/18/5 32/17/5 26/13/5
f 34/19/67 33/18/67 27/14/67
f 29/14/68 35/18/68 34/19/68
f 30/13/8 36/17/8 35/18/8
f 37/20/69 42/22/69 36/17/69
f 32/17/70 38/22/70 37/20/70
f 33/18/5 39/23/5 38/22/5
f 34/19/71 40/26/71 39/23/71
f 41/23/72 40/26/72 34/19/72
f 42/22/8 41/23/8 35/18/8
f 43/24/73 48/25/73 42/22/73
f 38/22/74 44/25/74 43/24/74
f 39/23/5 45/27/5 44/25/5
f 40/26/75 46/30/75 45/27/75
f 47/27/76 46/30/76 40/26/76
f 48/25/8 47/27/8 41/23/8
f 49/28/77 54/29/77 48/25/77
f 44/25/78 50/29/78 49/28/78
f 45/27/5 51/31/5 50/29/5
f 46/30/79 52/35/79 51/31/79
f 53/31/80 52/35/80 46/30/80
f 54/29/8 53/31/8 47/27/8
f 49/28/81 55/36/81 60/32/81
f 56/32/82 55/36/82 49/28/82
f 57/33/5 56/32/5 50/29/5
f 58/34/83 57/33/83 51/31/83
f 53/31/84 59/33/84 58/34/84
f 54/29/8 60/32/8 59/33/8
f 55/36/85 61/41/85 66/37/85
f 62/37/86 61/41/86 55/36/86
f 63/38/5 62/37/5 56/32/5
f 64/39/87 63/38/87 57/33/87
f 59/33/88 65/38/88 64/39/88
f 60/32/8 66/37/8 65/38/8
f 67/40/89 72/42/89 66/37/89
f 62/37/90 68/42/90 67/40/90
f 63/38/5 69/43/5 68/42/5
f 64/39/91 70/47/91 69/43/91
f 71/43/92 70/47/92 64/39/92
f 72/42/8 71/43/8 65/38/8
f 67/40/93 73/49/93 78/44/93
f 74/44/94 73/49/94 67/40/94
f 75/45/5 74/44/5 68/42/5
f 76/46/95 75/45/95 69/43/95
f 71/43/96 77/48/96 76/46/96
f 72/42/8 78/44/8 77/48/8
f 73/49/97 79/54/97 84/50/97
f 80/50/98 79/54/98 73/49/98
f 81/51/5 80/50/5 74/44/5
f 82/52/99 81/51/99 75/45/99
f 77/48/100 83/51/100 82/52/100
f 78/44/8 84/50/8 83/51/8
f 85/53/101 90/55/101 84/50/101
f 80/50/102 86/55/102 85/53/102
f 81/51/5 87/56/5 86/55/5
f 82/52/103 88/57/103 87/56/103
f 89/56/104 88/57/104 82/52/104
f 90/55/8 89/56/8 83/51/8
f 91/4/105 96/3/105 90/55/105
f 86/55/106 92/3/106 91/4/106
f 87/56/5 93/1/5 92/3/5
f 88/57/107 94/2/107 93/1/107
f 95/1/108 94/2/108 88/57/108
f 96/3/8 95/1/8 89/56/8
