# Blender 4.5.14 LTS
# www.blender.org
mtllib crow.mtl
o crow
v -0.006466 0.116938 -0.133144 0.8274 0.8274 0.8274
v -0.022630 0.144137 -0.101384 0.9921 0.9921 0.9921
v -0.010462 0.109552 -0.131841 0.8274 0.8274 0.8274
v -0.036616 0.094590 -0.092648 0.8745 0.8745 0.8745
v -0.006466 0.093036 -0.128929 0.8941 0.8941 0.8941
v -0.000000 0.090215 -0.128432 0.8862 0.8862 0.8862
v -0.000000 0.063968 -0.087248 0.8588 0.8588 0.8588
v 0.006466 0.093036 -0.128929 0.8941 0.8941 0.8941
v 0.010462 0.100422 -0.130232 0.8666 0.8666 0.8666
v 0.010462 0.109552 -0.131841 0.8274 0.8274 0.8274
v 0.006466 0.116938 -0.133144 0.8274 0.8274 0.8274
v 0.000000 0.152601 -0.102877 0.9960 0.9960 0.9960
v 0.000000 0.176921 -0.034054 1.0000 1.0000 1.0000
v -0.036616 0.121979 -0.097477 0.9333 0.9333 0.9333
v -0.051262 0.136092 -0.026855 0.8274 0.8274 0.8274
v -0.022630 0.072432 -0.088741 0.8823 0.8823 0.8823
v -0.000000 0.058744 -0.013216 0.8392 0.8392 0.8392
v 0.022630 0.072432 -0.088741 0.8823 0.8823 0.8823
v 0.031682 0.070029 -0.015206 0.8274 0.8274 0.8274
v 0.036616 0.094590 -0.092648 0.8745 0.8745 0.8745
v 0.051262 0.099573 -0.020416 0.8274 0.8274 0.8274
v 0.036616 0.121979 -0.097477 0.9372 0.9372 0.9372
v 0.022630 0.144137 -0.101384 0.9921 0.9921 0.9921
v 0.051262 0.136092 -0.026855 0.8274 0.8274 0.8274
v -0.031682 0.165636 -0.032064 0.9921 0.9921 0.9921
v -0.032328 0.171973 0.015559 0.9725 0.9725 0.9725
v -0.052308 0.104589 0.027440 0.9490 0.9490 0.9490
v -0.051262 0.099573 -0.020416 0.8274 0.8274 0.8274
v -0.031682 0.070029 -0.015206 0.8274 0.8274 0.8274
v -0.000000 0.062943 0.034784 0.8549 0.8549 0.8549
v 0.031682 0.165636 -0.032064 0.9921 0.9921 0.9921
v 0.052308 0.141838 0.020872 0.8274 0.8274 0.8274
v 0.032328 0.171973 0.015559 0.9764 0.9764 0.9764
v 0.000000 0.183483 0.013529 0.9921 0.9921 0.9921
v -0.025863 0.176386 0.070832 0.9686 0.9686 0.9686
v 0.000000 0.185978 0.069141 0.9451 0.9451 0.9451
v -0.052308 0.141838 0.020872 0.8274 0.8274 0.8274
v -0.041846 0.120233 0.080733 0.9607 0.9607 0.9607
v -0.041846 0.151273 0.075260 0.8274 0.8274 0.8274
v -0.032328 0.074453 0.032754 0.8823 0.8823 0.8823
v -0.000000 0.085528 0.086853 0.8980 0.8980 0.8980
v 0.032328 0.074453 0.032754 0.8823 0.8823 0.8823
v 0.025863 0.095120 0.085161 0.9176 0.9176 0.9176
v 0.052308 0.104589 0.027440 0.9490 0.9490 0.9490
v -0.020923 0.157834 0.103348 0.8274 0.8274 0.8274
v -0.020923 0.141401 0.106245 0.8274 0.8274 0.8274
v -0.012931 0.128106 0.108589 0.8274 0.8274 0.8274
v -0.025863 0.095120 0.085161 0.9176 0.9176 0.9176
v -0.000000 0.123027 0.109485 0.9137 0.9137 0.9137
v 0.041846 0.120233 0.080733 0.9568 0.9568 0.9568
v 0.020923 0.141401 0.106245 0.8274 0.8274 0.8274
v 0.041846 0.151273 0.075260 0.8274 0.8274 0.8274
v 0.025863 0.176386 0.070832 0.9725 0.9725 0.9725
v 0.000000 0.176207 0.100108 0.8274 0.8274 0.8274
v -0.012931 0.171129 0.101003 0.8274 0.8274 0.8274
v 0.012931 0.128106 0.108589 0.8274 0.8274 0.8274
v 0.020923 0.157834 0.103348 0.8274 0.8274 0.8274
v 0.012931 0.171129 0.101003 0.8274 0.8274 0.8274
v -0.010462 0.100422 -0.130232 0.8902 0.8902 0.8902
v 0.000000 0.119759 -0.133641 0.8745 0.8745 0.8745
vn -0.0000 0.6795 -0.7336
vn -0.5259 0.4937 -0.6926
vn -0.5843 0.6399 -0.4991
vn -0.0000 0.8458 -0.5335
vn -0.7740 0.1098 -0.6236
vn -0.8841 0.1831 -0.4300
vn -0.7638 -0.2966 -0.5733
vn -0.8748 -0.3195 -0.3642
vn -0.5070 -0.6659 -0.5473
vn -0.5678 -0.7611 -0.3137
vn -0.0000 -0.8407 -0.5415
vn -0.0000 -0.9561 -0.2930
vn 0.5070 -0.6659 -0.5473
vn 0.5678 -0.7611 -0.3137
vn 0.7638 -0.2966 -0.5733
vn 0.8748 -0.3195 -0.3642
vn 0.7740 0.1098 -0.6236
vn 0.8841 0.1831 -0.4300
vn 0.5259 0.4937 -0.6926
vn 0.5843 0.6399 -0.4991
vn -0.6206 0.7559 -0.2087
vn -0.0000 0.9717 -0.2363
vn -0.9537 0.2625 -0.1467
vn -0.9520 -0.2964 -0.0771
vn -0.6176 -0.7863 -0.0164
vn -0.0000 -1.0000 0.0097
vn 0.6176 -0.7863 -0.0164
vn 0.9520 -0.2964 -0.0771
vn 0.9537 0.2625 -0.1467
vn 0.6206 0.7559 -0.2087
vn -0.6265 0.7778 -0.0509
vn -0.0000 0.9960 -0.0898
vn -0.9583 0.2836 0.0361
vn -0.9530 -0.2732 0.1306
vn -0.6159 -0.7592 0.2106
vn -0.0000 -0.9695 0.2449
vn 0.6159 -0.7592 0.2106
vn 0.9530 -0.2732 0.1306
vn 0.9583 0.2836 0.0361
vn 0.6265 0.7778 -0.0509
vn -0.6025 0.7768 0.1830
vn -0.0000 0.9924 0.1230
vn -0.8954 0.3110 0.3186
vn -0.8664 -0.1814 0.4653
vn -0.5508 -0.5945 0.5858
vn -0.0000 -0.7721 0.6354
vn 0.5508 -0.5945 0.5858
vn 0.8664 -0.1814 0.4653
vn 0.8954 0.3110 0.3186
vn 0.6025 0.7768 0.1830
vn -0.5408 0.7580 0.3647
vn -0.0000 0.9521 0.3059
vn -0.7902 0.3515 0.5019
vn -0.7507 -0.0554 0.6583
vn -0.4713 -0.3791 0.7963
vn -0.0000 -0.5143 0.8576
vn 0.4713 -0.3791 0.7963
vn 0.7507 -0.0554 0.6583
vn 0.7902 0.3515 0.5019
vn 0.5408 0.7580 0.3647
vn -0.0000 0.1736 0.9848
vn -0.0000 -0.1736 -0.9848
vt 0.125488 0.937988
vt 0.131641 0.937988
vt 0.131641 0.947182
vt 0.125488 0.947182
vt 0.137793 0.937988
vt 0.137793 0.947182
vt 0.143945 0.937988
vt 0.143945 0.947182
vt 0.150098 0.937988
vt 0.150098 0.947182
vt 0.156250 0.937988
vt 0.156250 0.947182
vt 0.162402 0.937988
vt 0.162402 0.947182
vt 0.168555 0.937988
vt 0.168555 0.947182
vt 0.174707 0.937988
vt 0.174707 0.947182
vt 0.180859 0.937988
vt 0.180859 0.947182
vt 0.187012 0.937988
vt 0.187012 0.947182
vt 0.131641 0.965523
vt 0.125488 0.965523
vt 0.137793 0.965523
vt 0.143945 0.965523
vt 0.150098 0.965523
vt 0.156250 0.965523
vt 0.162402 0.965523
vt 0.168555 0.965523
vt 0.174707 0.965523
vt 0.180859 0.965523
vt 0.187012 0.965523
vt 0.131641 0.977763
vt 0.125488 0.977763
vt 0.137793 0.977763
vt 0.143945 0.977763
vt 0.150098 0.977763
vt 0.156250 0.977763
vt 0.162402 0.977763
vt 0.168555 0.977763
vt 0.174707 0.977763
vt 0.180859 0.977763
vt 0.187012 0.977763
vt 0.131641 0.991832
vt 0.125488 0.991832
vt 0.137793 0.991832
vt 0.143945 0.991832
vt 0.150098 0.991832
vt 0.156250 0.991832
vt 0.162402 0.991832
vt 0.168555 0.991832
vt 0.174707 0.991832
vt 0.180859 0.991832
vt 0.187012 0.991832
vt 0.131641 0.999512
vt 0.125488 0.999512
vt 0.137793 0.999512
vt 0.143945 0.999512
vt 0.150098 0.999512
vt 0.156250 0.999512
vt 0.162402 0.999512
vt 0.168555 0.999512
vt 0.174707 0.999512
vt 0.180859 0.999512
vt 0.187012 0.999512
vt 0.137238 0.993637
vt 0.125488 0.978256
vt 0.125488 0.959244
vt 0.137238 0.943863
vt 0.175262 0.943863
vt 0.187012 0.959244
vt 0.187012 0.978256
vt 0.175262 0.993637
s 1
usemtl props
f 60/1/1 1/2/2 2/3/3 12/4/4
f 1/2/2 3/5/5 14/6/6 2/3/3
f 3/5/5 59/7/7 4/8/8 14/6/6
f 59/7/7 5/9/9 16/10/10 4/8/8
f 5/9/9 6/11/11 7/12/12 16/10/10
f 6/11/11 8/13/13 18/14/14 7/12/12
f 8/13/13 9/15/15 20/16/16 18/14/14
f 9/15/15 10/17/17 22/18/18 20/16/16
f 10/17/17 11/19/19 23/20/20 22/18/18
f 11/19/19 60/21/1 12/22/4 23/20/20
f 12/4/4 2/3/3 25/23/21 13/24/22
f 2/3/3 14/6/6 15/25/23 25/23/21
f 14/6/6 4/8/8 28/26/24 15/25/23
f 4/8/8 16/10/10 29/27/25 28/26/24
f 16/10/10 7/12/12 17/28/26 29/27/25
f 7/12/12 18/14/14 19/29/27 17/28/26
f 18/14/14 20/16/16 21/30/28 19/29/27
f 20/16/16 22/18/18 24/31/29 21/30/28
f 22/18/18 23/20/20 31/32/30 24/31/29
f 23/20/20 12/22/4 13/33/22 31/32/30
f 13/24/22 25/23/21 26/34/31 34/35/32
f 25/23/21 15/25/23 37/36/33 26/34/31
f 15/25/23 28/26/24 27/37/34 37/36/33
f 28/26/24 29/27/25 40/38/35 27/37/34
f 29/27/25 17/28/26 30/39/36 40/38/35
f 17/28/26 19/29/27 42/40/37 30/39/36
f 19/29/27 21/30/28 44/41/38 42/40/37
f 21/30/28 24/31/29 32/42/39 44/41/38
f 24/31/29 31/32/30 33/43/40 32/42/39
f 31/32/30 13/33/22 34/44/32 33/43/40
f 34/35/32 26/34/31 35/45/41 36/46/42
f 26/34/31 37/36/33 39/47/43 35/45/41
f 37/36/33 27/37/34 38/48/44 39/47/43
f 27/37/34 40/38/35 48/49/45 38/48/44
f 40/38/35 30/39/36 41/50/46 48/49/45
f 30/39/36 42/40/37 43/51/47 41/50/46
f 42/40/37 44/41/38 50/52/48 43/51/47
f 44/41/38 32/42/39 52/53/49 50/52/48
f 32/42/39 33/43/40 53/54/50 52/53/49
f 33/43/40 34/44/32 36/55/42 53/54/50
f 36/46/42 35/45/41 55/56/51 54/57/52
f 35/45/41 39/47/43 45/58/53 55/56/51
f 39/47/43 38/48/44 46/59/54 45/58/53
f 38/48/44 48/49/45 47/60/55 46/59/54
f 48/49/45 41/50/46 49/61/56 47/60/55
f 41/50/46 43/51/47 56/62/57 49/61/56
f 43/51/47 50/52/48 51/63/58 56/62/57
f 50/52/48 52/53/49 57/64/59 51/63/58
f 52/53/49 53/54/50 58/65/60 57/64/59
f 53/54/50 36/55/42 54/66/52 58/65/60
s 0
f 54/61/61 55/67/61 45/68/61 46/69/61 47/70/61 49/11/61 56/71/61 51/72/61 57/73/61 58/74/61
f 11/71/62 10/72/62 9/73/62 8/74/62 6/61/62 5/67/62 59/68/62 3/69/62 1/70/62 60/11/62
o crow_neck
v 0.000000 0.177757 0.076598 0.8313 0.8313 0.8313
v -0.025721 0.127852 0.106216 0.9411 0.9411 0.9411
v -0.021434 0.174755 0.088604 0.9490 0.9490 0.9490
v -0.000000 0.165751 0.124620 0.9843 0.9843 0.9843
v -0.000000 0.123950 0.121824 0.9411 0.9411 0.9411
v 0.025721 0.127852 0.106216 0.9372 0.9372 0.9372
v 0.025721 0.135656 0.075002 0.8274 0.8274 0.8274
v 0.021434 0.174755 0.088604 0.9529 0.9529 0.9529
v 0.021434 0.168753 0.112615 0.9843 0.9843 0.9843
v 0.000000 0.139558 0.059395 0.8274 0.8274 0.8274
v -0.018219 0.204305 0.097905 0.8274 0.8274 0.8274
v 0.000000 0.206856 0.087700 0.8274 0.8274 0.8274
v -0.021434 0.168753 0.112615 0.9843 0.9843 0.9843
v -0.000000 0.196652 0.128519 0.8274 0.8274 0.8274
v -0.018219 0.199203 0.118314 0.8274 0.8274 0.8274
v 0.018219 0.199203 0.118314 0.8274 0.8274 0.8274
v 0.018219 0.204305 0.097905 0.8274 0.8274 0.8274
v -0.025721 0.135656 0.075002 0.8274 0.8274 0.8274
vn -0.5116 0.3424 -0.7881
vn -0.5048 0.3265 -0.7991
vn -0.5049 0.3267 -0.7990
vn -0.9946 0.1003 0.0251
vn -0.5116 -0.0687 0.8565
vn -0.5049 -0.0877 0.8587
vn -0.5048 -0.0880 0.8587
vn 0.5116 -0.0687 0.8565
vn 0.5048 -0.0880 0.8587
vn 0.5049 -0.0877 0.8587
vn 0.9946 0.1003 0.0251
vn 0.5116 0.3424 -0.7881
vn 0.5049 0.3267 -0.7990
vn 0.5048 0.3265 -0.7991
vn -0.4973 0.3092 -0.8106
vn -0.4973 -0.1086 0.8607
vn 0.4973 -0.1086 0.8607
vn 0.4973 0.3092 -0.8106
vn -0.0000 0.9701 0.2425
vn -0.0000 -0.9701 -0.2425
vt 0.344238 0.969238
vt 0.349284 0.969238
vt 0.349284 0.986537
vt 0.344238 0.986537
vt 0.354329 0.969238
vt 0.354329 0.986537
vt 0.359375 0.969238
vt 0.359375 0.986537
vt 0.364421 0.969238
vt 0.364421 0.986537
vt 0.369466 0.969238
vt 0.369466 0.986537
vt 0.374512 0.969238
vt 0.374512 0.986537
vt 0.349284 0.999512
vt 0.344238 0.999512
vt 0.354329 0.999512
vt 0.359375 0.999512
vt 0.364421 0.999512
vt 0.369466 0.999512
vt 0.374512 0.999512
vt 0.344238 0.991943
vt 0.344238 0.976807
vt 0.374512 0.976807
vt 0.374512 0.991943
s 1
usemtl props
f 70/75/63 78/76/63 63/77/64 61/78/65
f 78/76/66 62/79/66 73/80/66 63/77/66
f 62/79/67 65/81/67 64/82/68 73/80/69
f 65/81/70 66/83/70 69/84/71 64/82/72
f 66/83/73 67/85/73 68/86/73 69/84/73
f 67/85/74 70/87/74 61/88/75 68/86/76
f 61/78/65 63/77/64 71/89/77 72/90/77
f 63/77/66 73/80/66 75/91/66 71/89/66
f 73/80/69 64/82/68 74/92/78 75/91/78
f 64/82/72 69/84/71 76/93/79 74/92/79
f 69/84/73 68/86/73 77/94/73 76/93/73
f 68/86/76 61/88/75 72/95/80 77/94/80
s 0
f 72/92/81 71/96/81 75/97/81 74/81/81 76/98/81 77/99/81
f 67/98/82 66/99/82 65/92/82 62/96/82 78/97/82 70/81/82
o crow_head
v -0.015910 0.224225 0.087059 0.9843 0.9843 0.9843
v -0.015910 0.190283 0.087059 0.9137 0.9137 0.9137
v 0.000000 0.207254 0.079859 0.9451 0.9451 0.9451
v 0.000000 0.231254 0.087059 0.9882 0.9882 0.9882
v -0.021213 0.229967 0.106859 1.0000 1.0000 1.0000
v -0.022500 0.207254 0.087059 0.9647 0.9647 0.9647
v -0.021213 0.187541 0.106859 0.9411 0.9411 0.9411
v -0.030000 0.208754 0.106859 0.9921 0.9921 0.9921
v -0.000000 0.183254 0.087059 0.8274 0.8274 0.8274
v -0.000000 0.178754 0.106859 0.8274 0.8274 0.8274
v 0.021213 0.187541 0.106859 0.9372 0.9372 0.9372
v 0.015910 0.190283 0.087059 0.9137 0.9137 0.9137
v 0.022500 0.207254 0.087059 0.9647 0.9647 0.9647
v 0.030000 0.208754 0.106859 0.9882 0.9882 0.9882
v 0.015910 0.224225 0.087059 0.9843 0.9843 0.9843
v -0.018031 0.190283 0.127859 0.9843 0.9843 0.9843
v 0.021213 0.229967 0.106859 0.9960 0.9960 0.9960
v 0.000000 0.238754 0.106859 1.0000 1.0000 1.0000
v 0.018031 0.224225 0.127859 1.0000 1.0000 1.0000
v -0.018031 0.224225 0.127859 0.9960 0.9960 0.9960
v -0.009546 0.212739 0.139859 0.9804 0.9804 0.9804
v -0.025500 0.207254 0.127859 0.9960 0.9960 0.9960
v -0.013500 0.204254 0.139859 0.9804 0.9804 0.9804
v -0.000000 0.183254 0.127859 0.9686 0.9686 0.9686
v -0.009546 0.195769 0.139859 0.9804 0.9804 0.9804
v -0.000000 0.192254 0.139859 0.9725 0.9725 0.9725
v 0.018031 0.190283 0.127859 0.9843 0.9843 0.9843
v 0.025500 0.207254 0.127859 0.9960 0.9960 0.9960
v 0.013500 0.204254 0.139859 0.9804 0.9804 0.9804
v 0.009546 0.212739 0.139859 0.9764 0.9764 0.9764
v 0.000000 0.231254 0.127859 0.9960 0.9960 0.9960
v 0.000000 0.216254 0.139859 0.9764 0.9764 0.9764
v 0.009546 0.195769 0.139859 0.9764 0.9764 0.9764
v -0.011413 0.208667 0.132512 0.8274 0.8274 0.8274
v 0.000000 0.208684 0.165356 0.9921 0.9921 0.9921
v -0.004408 0.200561 0.164819 0.9686 0.9686 0.9686
v 0.007053 0.200300 0.131959 0.8274 0.8274 0.8274
v 0.011413 0.208667 0.132512 0.8274 0.8274 0.8274
v 0.000000 0.213838 0.132854 0.8274 0.8274 0.8274
v -0.007133 0.205582 0.165151 0.9921 0.9921 0.9921
v 0.004408 0.200561 0.164819 0.9686 0.9686 0.9686
v 0.007133 0.205582 0.165151 0.9960 0.9960 0.9960
v 0.000000 0.201257 0.186760 0.9921 0.9921 0.9921
v -0.007053 0.200300 0.131959 0.8274 0.8274 0.8274
vn -0.0000 -0.0000 -1.0000
vn -0.2120 0.2065 -0.9552
vn -0.0000 0.2873 -0.9578
vn -0.3048 -0.0000 -0.9524
vn -0.2120 -0.2065 -0.9552
vn -0.0000 -0.2873 -0.9578
vn 0.2120 -0.2065 -0.9552
vn 0.3048 -0.0000 -0.9524
vn 0.2120 0.2065 -0.9552
vn -0.0000 0.9312 -0.3645
vn -0.6674 0.6482 -0.3668
vn -0.6987 0.7144 -0.0377
vn -0.0000 0.9998 -0.0182
vn -0.9392 -0.0181 -0.3428
vn -0.9980 0.0156 -0.0607
vn -0.6708 -0.6890 -0.2743
vn -0.7142 -0.6987 -0.0406
vn -0.0000 -0.9724 -0.2333
vn -0.0000 -0.9999 -0.0165
vn 0.6708 -0.6890 -0.2743
vn 0.7142 -0.6987 -0.0406
vn 0.9392 -0.0181 -0.3428
vn 0.9980 0.0156 -0.0607
vn 0.6674 0.6482 -0.3668
vn 0.6987 0.7144 -0.0377
vn -0.6001 0.6094 0.5182
vn -0.0000 0.8373 0.5467
vn -0.8891 0.0010 0.4577
vn -0.6413 -0.6505 0.4068
vn -0.0000 -0.9213 0.3889
vn 0.6413 -0.6505 0.4068
vn 0.8891 0.0010 0.4577
vn 0.6001 0.6094 0.5182
vn -0.4595 0.4570 0.7616
vn -0.0000 0.6281 0.7781
vn -0.7076 -0.0441 0.7052
vn -0.5064 -0.5902 0.6287
vn -0.0000 -0.8043 0.5942
vn 0.5064 -0.5902 0.6287
vn 0.7076 -0.0441 0.7052
vn 0.4595 0.4570 0.7616
vn -0.0000 -0.0000 1.0000
vn -0.0000 0.9880 0.1542
vn -0.4068 0.9026 0.1409
vn -0.3996 0.8916 0.2131
vn -0.0000 0.9712 0.2383
vn -0.8796 -0.4702 0.0727
vn -0.8704 -0.4749 0.1301
vn -0.8715 -0.4745 0.1237
vn -0.0000 -1.0000 0.0080
vn -0.0000 -0.9998 0.0187
vn 0.8796 -0.4702 0.0727
vn 0.8715 -0.4745 0.1237
vn 0.8704 -0.4749 0.1301
vn 0.4068 0.9026 0.1409
vn 0.3996 0.8916 0.2131
vn -0.0000 0.9447 0.3278
vn -0.8581 -0.4781 0.1876
vn -0.0000 -0.9995 0.0317
vn 0.8581 -0.4781 0.1876
vn -0.0000 0.0659 -0.9978
vt 0.314880 0.969238
vt 0.316772 0.972842
vt 0.312988 0.972842
vt 0.318665 0.969238
vt 0.320557 0.972842
vt 0.322449 0.969238
vt 0.324341 0.972842
vt 0.326233 0.969238
vt 0.328125 0.972842
vt 0.330017 0.969238
vt 0.331909 0.972842
vt 0.333801 0.969238
vt 0.335693 0.972842
vt 0.337585 0.969238
vt 0.339478 0.972842
vt 0.341370 0.969238
vt 0.343262 0.972842
vt 0.316772 0.982782
vt 0.312988 0.982782
vt 0.320557 0.982782
vt 0.324341 0.982782
vt 0.328125 0.982782
vt 0.331909 0.982782
vt 0.335693 0.982782
vt 0.339478 0.982782
vt 0.343262 0.982782
vt 0.316772 0.993320
vt 0.312988 0.993320
vt 0.320557 0.993320
vt 0.324341 0.993320
vt 0.328125 0.993320
vt 0.331909 0.993320
vt 0.335693 0.993320
vt 0.339478 0.993320
vt 0.343262 0.993320
vt 0.316772 0.999512
vt 0.312988 0.999512
vt 0.320557 0.999512
vt 0.324341 0.999512
vt 0.328125 0.999512
vt 0.331909 0.999512
vt 0.335693 0.999512
vt 0.339478 0.999512
vt 0.343262 0.999512
vt 0.317422 0.995078
vt 0.312988 0.984375
vt 0.317422 0.973672
vt 0.328125 0.969238
vt 0.338828 0.973672
vt 0.343262 0.984375
vt 0.338828 0.995078
vt 0.562988 0.984863
vt 0.565918 0.984863
vt 0.565918 0.993644
vt 0.562988 0.993644
vt 0.568848 0.984863
vt 0.568848 0.993644
vt 0.571777 0.984863
vt 0.571777 0.993644
vt 0.574707 0.984863
vt 0.574707 0.993644
vt 0.577637 0.984863
vt 0.577637 0.993644
vt 0.564453 0.999512
vt 0.567383 0.999512
vt 0.570312 0.999512
vt 0.573242 0.999512
vt 0.576172 0.999512
vt 0.577637 0.990458
vt 0.574839 0.999512
vt 0.565786 0.999512
vt 0.562988 0.990458
vt 0.570312 0.984863
s 1
usemtl props
f 81/100/83 79/101/84 82/102/85
f 81/103/83 84/104/86 79/101/84
f 81/105/83 80/106/87 84/104/86
f 81/107/83 87/108/88 80/106/87
f 81/109/83 90/110/89 87/108/88
f 81/111/83 91/112/90 90/110/89
f 81/113/83 93/114/91 91/112/90
f 81/115/83 82/116/85 93/114/91
f 82/102/92 79/101/93 83/117/94 96/118/95
f 79/101/93 84/104/96 86/119/97 83/117/94
f 84/104/96 80/106/98 85/120/99 86/119/97
f 80/106/98 87/108/100 88/121/101 85/120/99
f 87/108/100 90/110/102 89/122/103 88/121/101
f 90/110/102 91/112/104 92/123/105 89/122/103
f 91/112/104 93/114/106 95/124/107 92/123/105
f 93/114/106 82/116/92 96/125/95 95/124/107
f 96/118/95 83/117/94 98/126/108 109/127/109
f 83/117/94 86/119/97 100/128/110 98/126/108
f 86/119/97 85/120/99 94/129/111 100/128/110
f 85/120/99 88/121/101 102/130/112 94/129/111
f 88/121/101 89/122/103 105/131/113 102/130/112
f 89/122/103 92/123/105 106/132/114 105/131/113
f 92/123/105 95/124/107 97/133/115 106/132/114
f 95/124/107 96/125/95 109/134/109 97/133/115
f 109/127/109 98/126/108 99/135/116 110/136/117
f 98/126/108 100/128/110 101/137/118 99/135/116
f 100/128/110 94/129/111 103/138/119 101/137/118
f 94/129/111 102/130/112 104/139/120 103/138/119
f 102/130/112 105/131/113 111/140/121 104/139/120
f 105/131/113 106/132/114 107/141/122 111/140/121
f 106/132/114 97/133/115 108/142/123 107/141/122
f 97/133/115 109/134/109 110/143/117 108/142/123
s 0
f 110/139/124 99/144/124 101/145/124 103/146/124 104/147/124 111/148/124 107/149/124 108/150/124
s 1
f 117/151/125 112/152/126 118/153/127 113/154/128
f 112/152/129 122/155/129 114/156/130 118/153/131
f 122/155/132 115/157/132 119/158/133 114/156/133
f 115/157/134 116/159/134 120/160/135 119/158/136
f 116/159/137 117/161/125 113/162/128 120/160/138
f 113/154/128 118/153/127 121/163/139
f 118/153/131 114/156/130 121/164/140
f 114/156/133 119/158/133 121/165/141
f 119/158/136 120/160/135 121/166/142
f 120/160/138 113/162/128 121/167/139
s 0
f 116/168/143 115/169/143 122/170/143 112/171/143 117/172/143
o crow_jaw
v 0.000000 0.202754 0.160559 0.8274 0.8274 0.8274
v -0.009986 0.200866 0.132359 0.8274 0.8274 0.8274
v 0.006172 0.196842 0.132359 0.8274 0.8274 0.8274
v 0.005706 0.200681 0.160559 0.9451 0.9451 0.9451
v 0.000000 0.203354 0.132359 0.8274 0.8274 0.8274
v -0.005706 0.200681 0.160559 0.9451 0.9451 0.9451
v -0.003527 0.197327 0.160559 0.9843 0.9843 0.9843
v 0.000000 0.199754 0.179359 0.9294 0.9294 0.9294
v 0.003527 0.197327 0.160559 0.9804 0.9804 0.9804
v 0.009986 0.200866 0.132359 0.8274 0.8274 0.8274
v -0.006172 0.196842 0.132359 0.8274 0.8274 0.8274
vn -0.0000 0.9994 0.0360
vn -0.2789 0.9597 0.0345
vn -0.3051 0.9486 0.0841
vn -0.0000 0.9955 0.0951
vn -0.7724 -0.6275 0.0982
vn -0.7979 -0.5808 0.1612
vn -0.7955 -0.5859 0.1547
vn -0.0000 -0.9999 0.0172
vn -0.0000 -0.9977 0.0677
vn 0.7724 -0.6275 0.0982
vn 0.7955 -0.5859 0.1547
vn 0.7979 -0.5808 0.1612
vn 0.2789 0.9597 0.0345
vn 0.3051 0.9486 0.0841
vn -0.0000 0.9875 0.1576
vn -0.8176 -0.5313 0.2220
vn -0.0000 -0.9918 0.1280
vn 0.8176 -0.5313 0.2220
vn -0.0000 -0.0000 -1.0000
vt 0.562988 0.984863
vt 0.565918 0.984863
vt 0.565918 0.993652
vt 0.562988 0.993652
vt 0.568848 0.984863
vt 0.568848 0.993652
vt 0.571777 0.984863
vt 0.571777 0.993652
vt 0.574707 0.984863
vt 0.574707 0.993652
vt 0.577637 0.984863
vt 0.577637 0.993652
vt 0.564453 0.999512
vt 0.567383 0.999512
vt 0.570312 0.999512
vt 0.573242 0.999512
vt 0.576172 0.999512
vt 0.577637 0.990458
vt 0.574839 0.999512
vt 0.565786 0.999512
vt 0.562988 0.990458
vt 0.570312 0.984863
s 1
usemtl props
f 127/173/144 124/174/145 128/175/146 123/176/147
f 124/174/148 133/177/148 129/178/149 128/175/150
f 133/177/151 125/179/151 131/180/152 129/178/152
f 125/179/153 132/181/153 126/182/154 131/180/155
f 132/181/156 127/183/144 123/184/147 126/182/157
f 123/176/147 128/175/146 130/185/158
f 128/175/150 129/178/149 130/186/159
f 129/178/152 131/180/152 130/187/160
f 131/180/155 126/182/154 130/188/161
f 126/182/157 123/184/147 130/189/158
s 0
f 132/190/162 125/191/162 133/192/162 124/193/162 127/194/162
o crow_wing_l
v 0.045556 0.129651 0.083948 0.9215 0.9215 0.9215
v 0.039773 0.118201 0.018924 0.8274 0.8274 0.8274
v 0.039022 0.141473 0.080398 0.8627 0.8627 0.8627
v 0.040216 0.164576 0.074009 0.8902 0.8902 0.8902
v 0.047944 0.175857 0.071170 0.9568 0.9568 0.9568
v 0.053284 0.140932 0.081109 0.9686 0.9686 0.9686
v 0.058677 0.152207 0.010194 0.9960 0.9960 0.9960
v 0.047434 0.100549 0.024143 0.8274 0.8274 0.8274
v 0.041563 0.152856 0.009341 0.8274 0.8274 0.8274
v 0.051016 0.169859 0.004976 0.9607 0.9607 0.9607
v 0.054131 0.131982 -0.086330 0.9529 0.9529 0.9529
v 0.056887 0.117552 0.019777 0.9568 0.9568 0.9568
v 0.055000 0.094254 -0.132441 0.9255 0.9255 0.9255
v 0.046636 0.097544 -0.077031 0.8353 0.8353 0.8353
v 0.047830 0.120647 -0.083420 0.8706 0.8706 0.8706
v 0.059239 0.120214 -0.082851 0.9804 0.9804 0.9804
v 0.058045 0.097111 -0.076462 0.9411 0.9411 0.9411
v 0.051744 0.085776 -0.073552 0.8823 0.8823 0.8823
v 0.054478 0.164035 0.074720 0.9843 0.9843 0.9843
vn -0.9075 -0.3925 0.1498
vn -0.9840 -0.1684 0.0578
vn -0.9811 -0.1927 0.0193
vn -0.9154 -0.3938 0.0833
vn -0.9615 0.2675 -0.0628
vn -0.9573 0.2683 -0.1082
vn -0.8614 0.4986 -0.0966
vn -0.8710 0.4664 -0.1545
vn 0.9019 0.4318 -0.0087
vn 0.9804 0.1940 0.0340
vn 0.9808 0.1948 -0.0116
vn 0.9147 0.3987 -0.0655
vn 0.9579 -0.2420 0.1546
vn 0.9569 -0.2661 0.1159
vn 0.8559 -0.4593 0.2377
vn 0.8703 -0.4615 0.1723
vn -0.9746 -0.2087 -0.0809
vn -0.9129 -0.4066 -0.0351
vn -0.9520 0.2299 -0.2022
vn -0.8704 0.4164 -0.2627
vn 0.9820 0.1566 -0.1058
vn 0.9211 0.3485 -0.1734
vn 0.9593 -0.2819 0.0155
vn 0.8786 -0.4745 0.0542
vn -0.9805 -0.0037 -0.1966
vn 0.9921 -0.0785 -0.0983
vn -0.0378 0.2682 0.9626
vt 0.406738 0.969238
vt 0.411784 0.969238
vt 0.411784 0.978320
vt 0.406738 0.978320
vt 0.416829 0.969238
vt 0.416829 0.978320
vt 0.421875 0.969238
vt 0.421875 0.978320
vt 0.426921 0.969238
vt 0.426921 0.978320
vt 0.431966 0.969238
vt 0.431966 0.978320
vt 0.437012 0.969238
vt 0.437012 0.978320
vt 0.411784 0.991943
vt 0.406738 0.991943
vt 0.416829 0.991943
vt 0.421875 0.991943
vt 0.426921 0.991943
vt 0.431966 0.991943
vt 0.437012 0.991943
vt 0.409261 0.999512
vt 0.414307 0.999512
vt 0.419352 0.999512
vt 0.424398 0.999512
vt 0.429443 0.999512
vt 0.434489 0.999512
vt 0.437012 0.976807
vt 0.421875 0.999512
vt 0.406738 0.976807
s 1
usemtl props
f 134/195/163 136/196/164 135/197/165 141/198/166
f 136/196/164 137/199/167 142/200/168 135/197/165
f 137/199/167 138/201/169 143/202/170 142/200/168
f 138/201/171 152/203/172 140/204/173 143/202/174
f 152/203/172 139/205/175 145/206/176 140/204/173
f 139/205/175 134/207/177 141/208/178 145/206/176
f 141/198/166 135/197/165 147/209/179 151/210/180
f 135/197/165 142/200/168 148/211/181 147/209/179
f 142/200/168 143/202/170 144/212/182 148/211/181
f 143/202/174 140/204/173 149/213/183 144/212/184
f 140/204/173 145/206/176 150/214/185 149/213/183
f 145/206/176 141/208/178 151/215/186 150/214/185
f 151/210/180 147/209/179 146/216/187
f 147/209/179 148/211/181 146/217/187
f 148/211/181 144/212/182 146/218/187
f 144/212/184 149/213/183 146/219/188
f 149/213/183 150/214/185 146/220/188
f 150/214/185 151/215/186 146/221/188
s 0
f 139/222/189 152/215/189 138/223/189 137/210/189 136/224/189 134/201/189
o crow_leg_l
v 0.034697 0.076356 0.028969 0.9019 0.9019 0.9019
v 0.007442 0.099326 0.012206 0.8274 0.8274 0.8274
v 0.013386 0.071563 0.024230 0.8274 0.8274 0.8274
v -0.000092 0.083336 -0.012342 0.8274 0.8274 0.8274
v 0.019140 0.073610 -0.030548 0.8274 0.8274 0.8274
v 0.045908 0.079874 -0.024206 0.8980 0.8980 0.8980
v 0.050186 0.068793 0.014739 0.9333 0.9333 0.9333
v 0.044364 0.056437 -0.004230 0.8902 0.8902 0.8902
v 0.034210 0.105590 0.018548 0.8274 0.8274 0.8274
v 0.023536 0.049550 0.026982 0.8823 0.8823 0.8823
v 0.007564 0.059207 0.005261 0.8470 0.8470 0.8470
v 0.021139 0.044462 0.019171 0.8627 0.8627 0.8627
v 0.023053 0.051644 -0.008969 0.8627 0.8627 0.8627
v 0.037239 0.043250 0.015018 0.8627 0.8627 0.8627
v 0.027990 0.041312 0.013189 0.8274 0.8274 0.8274
v 0.032785 0.051488 0.028811 0.8980 0.8980 0.8980
v 0.039636 0.048338 0.022829 0.8902 0.8902 0.8902
v 0.053442 0.095864 0.000342 0.9294 0.9294 0.9294
vn -0.2826 0.3237 0.9030
vn -0.2549 0.1881 0.9485
vn -0.2561 0.1938 0.9470
vn -0.9427 -0.0597 0.3282
vn -0.9032 -0.1757 0.3917
vn -0.6978 -0.5575 -0.4498
vn -0.6582 -0.6595 -0.3630
vn -0.6562 -0.6636 -0.3591
vn 0.3092 -0.6333 -0.7095
vn 0.3019 -0.7357 -0.6062
vn 0.3024 -0.7318 -0.6107
vn 0.9653 -0.2033 -0.1639
vn 0.9453 -0.3149 -0.0851
vn 0.7244 0.2479 0.6433
vn 0.7045 0.1215 0.6993
vn 0.7033 0.1160 0.7014
vn -0.2136 0.0165 0.9768
vn -0.8253 -0.3226 0.4635
vn -0.5863 -0.7745 -0.2375
vn 0.2843 -0.8400 -0.4621
vn 0.8919 -0.4518 0.0206
vn 0.6571 -0.0490 0.7522
vn 0.0727 -0.8458 0.5286
vn -0.0727 0.8458 -0.5286
vt 0.594238 0.984863
vt 0.596680 0.984863
vt 0.596680 0.993544
vt 0.594238 0.993544
vt 0.599121 0.984863
vt 0.599121 0.993544
vt 0.601562 0.984863
vt 0.601562 0.993544
vt 0.604004 0.984863
vt 0.604004 0.993544
vt 0.606445 0.984863
vt 0.606445 0.993544
vt 0.608887 0.984863
vt 0.608887 0.993544
vt 0.596680 0.999512
vt 0.594238 0.999512
vt 0.599121 0.999512
vt 0.601562 0.999512
vt 0.604004 0.999512
vt 0.606445 0.999512
vt 0.608887 0.999512
vt 0.594238 0.995850
vt 0.594238 0.988525
vt 0.608887 0.988525
vt 0.608887 0.995850
s 1
usemtl props
f 161/225/190 154/226/190 155/227/191 153/228/192
f 154/226/193 156/229/193 163/230/194 155/227/194
f 156/229/195 157/231/195 165/232/196 163/230/197
f 157/231/198 158/233/198 160/234/199 165/232/200
f 158/233/201 170/235/201 159/236/202 160/234/202
f 170/235/203 161/237/203 153/238/204 159/236/205
f 153/228/192 155/227/191 162/239/206 168/240/206
f 155/227/194 163/230/194 164/241/207 162/239/207
f 163/230/197 165/232/196 167/242/208 164/241/208
f 165/232/200 160/234/199 166/243/209 167/242/209
f 160/234/202 159/236/202 169/244/210 166/243/210
f 159/236/205 153/238/204 168/245/211 169/244/211
s 0
f 168/242/212 162/246/212 164/247/212 167/231/212 166/248/212 169/249/212
f 170/248/213 158/249/213 157/242/213 156/246/213 154/247/213 161/231/213
o crow_shin_l
v 0.024002 0.004955 -0.003459 0.8431 0.8431 0.8431
v 0.034112 0.008735 -0.009758 0.8823 0.8823 0.8823
v 0.034541 0.053039 0.016136 0.8274 0.8274 0.8274
v 0.037193 0.048839 0.023134 0.8509 0.8509 0.8509
v 0.030250 0.046244 0.027460 0.8941 0.8941 0.8941
v 0.030250 0.002620 0.000434 0.8274 0.8274 0.8274
v 0.036498 0.004955 -0.003459 0.8549 0.8549 0.8549
v 0.026388 0.008735 -0.009758 0.8431 0.8431 0.8431
v 0.025959 0.053039 0.016136 0.8274 0.8274 0.8274
v 0.023307 0.048839 0.023134 0.8274 0.8274 0.8274
vn -0.5877 -0.4261 0.6878
vn -0.9510 0.1491 -0.2709
vn -0.0000 0.5046 -0.8634
vn 0.9510 0.1491 -0.2709
vn 0.5877 -0.4261 0.6878
vn -0.0000 -0.8575 -0.5145
vn -0.0000 0.8575 0.5145
vt 0.500488 0.969238
vt 0.503418 0.969238
vt 0.503418 0.999512
vt 0.500488 0.999512
vt 0.506348 0.969238
vt 0.506348 0.999512
vt 0.509277 0.969238
vt 0.509277 0.999512
vt 0.512207 0.969238
vt 0.512207 0.999512
vt 0.515137 0.969238
vt 0.515137 0.999512
vt 0.507812 0.999512
vt 0.500488 0.987948
vt 0.503286 0.969238
vt 0.512339 0.969238
vt 0.515137 0.987948
vt 0.515137 0.980802
vt 0.512339 0.999512
vt 0.503286 0.999512
vt 0.500488 0.980802
vt 0.507812 0.969238
s 1
usemtl props
f 175/250/214 180/251/214 171/252/214 176/253/214
f 180/251/215 179/254/215 178/255/215 171/252/215
f 179/254/216 173/256/216 172/257/216 178/255/216
f 173/256/217 174/258/217 177/259/217 172/257/217
f 174/258/218 175/260/218 176/261/218 177/259/218
s 0
f 176/262/219 171/263/219 178/264/219 172/265/219 177/266/219
f 174/267/220 173/268/220 179/269/220 180/270/220 175/271/220
o crow_foot_l
v 0.024611 0.004225 -0.007124 0.8509 0.8509 0.8509
v 0.007335 0.003643 0.028113 0.8549 0.8549 0.8549
v 0.009972 0.010248 0.029756 0.9019 0.9019 0.9019
v 0.013721 0.002518 0.031467 0.8431 0.8431 0.8431
v 0.003960 0.005840 0.045445 0.8823 0.8823 0.8823
v 0.016358 0.009123 0.033111 0.8941 0.8941 0.8941
v 0.035889 0.011075 -0.000876 0.8470 0.8470 0.8470
v 0.032749 0.002496 -0.002860 0.8392 0.8392 0.8392
v 0.027751 0.012804 -0.005140 0.8274 0.8274 0.8274
v 0.030250 0.001813 -0.004189 0.8353 0.8353 0.8353
v 0.030250 0.013487 -0.003811 0.8274 0.8274 0.8274
v 0.030250 0.005840 0.052000 0.8862 0.8862 0.8862
v 0.024410 0.006383 0.035200 0.8666 0.8666 0.8666
v 0.030250 0.002005 0.035059 0.8392 0.8392 0.8392
v 0.036090 0.006383 0.035200 0.8823 0.8823 0.8823
v 0.030250 0.010761 0.035341 0.9215 0.9215 0.9215
v 0.037550 0.007650 -0.004000 0.8823 0.8823 0.8823
v 0.032749 0.012804 -0.005140 0.8274 0.8274 0.8274
v 0.024611 0.011075 -0.000876 0.8431 0.8431 0.8431
v 0.044142 0.009123 0.033111 0.8941 0.8941 0.8941
v 0.027751 0.002496 -0.002860 0.8353 0.8353 0.8353
v 0.050528 0.010248 0.029756 0.9333 0.9333 0.9333
v 0.046779 0.002518 0.031467 0.8392 0.8392 0.8392
v 0.056540 0.005840 0.045445 0.8941 0.8941 0.8941
v 0.053165 0.003643 0.028113 0.8823 0.8823 0.8823
v 0.035889 0.004225 -0.007124 0.8666 0.8666 0.8666
v 0.030250 0.001820 -0.003657 0.8353 0.8353 0.8353
v 0.030250 0.002011 -0.025303 0.8431 0.8431 0.8431
v 0.024410 0.006383 -0.025560 0.8666 0.8666 0.8666
v 0.030250 0.010755 -0.025817 0.9137 0.9137 0.9137
v 0.036090 0.006383 -0.025560 0.8902 0.8902 0.8902
v 0.030250 0.005840 -0.034800 0.8823 0.8823 0.8823
v 0.030250 0.013480 -0.004343 0.8274 0.8274 0.8274
v 0.022950 0.007650 -0.004000 0.8627 0.8627 0.8627
vn -0.8240 0.4075 -0.3936
vn -0.8547 0.4098 -0.3188
vn -0.8560 0.4098 -0.3151
vn -0.1487 -0.9852 -0.0855
vn -0.1804 -0.9836 -0.0068
vn -0.1789 -0.9838 -0.0105
vn 0.7995 -0.4092 0.4397
vn 0.7547 -0.4167 0.5067
vn 0.7524 -0.4170 0.5099
vn 0.1242 0.9835 0.1316
vn 0.0768 0.9764 0.2017
vn 0.0790 0.9769 0.1984
vn -0.8846 0.4089 -0.2241
vn -0.2144 -0.9733 0.0816
vn 0.6931 -0.4221 0.5843
vn 0.0229 0.9602 0.2785
vn 0.4692 0.0323 -0.8825
vn -0.6137 0.7878 0.0516
vn -0.6043 0.7857 0.1319
vn -0.6038 0.7855 0.1358
vn -0.6137 -0.7895 0.0006
vn -0.6038 -0.7926 0.0848
vn -0.6043 -0.7926 0.0809
vn 0.6137 -0.7895 0.0006
vn 0.6043 -0.7926 0.0809
vn 0.6038 -0.7926 0.0848
vn 0.6137 0.7878 0.0516
vn 0.6038 0.7855 0.1358
vn 0.6043 0.7857 0.1319
vn -0.5874 0.7762 0.2293
vn -0.5874 -0.7893 0.1787
vn 0.5874 -0.7893 0.1787
vn 0.5874 0.7762 0.2293
vn -0.0000 0.0323 -0.9995
vn -0.1242 0.9835 0.1316
vn -0.0790 0.9769 0.1984
vn -0.0768 0.9764 0.2017
vn -0.7995 -0.4092 0.4397
vn -0.7524 -0.4170 0.5099
vn -0.7547 -0.4167 0.5067
vn 0.1487 -0.9852 -0.0855
vn 0.1789 -0.9838 -0.0105
vn 0.1804 -0.9836 -0.0068
vn 0.8240 0.4075 -0.3936
vn 0.8560 0.4098 -0.3151
vn 0.8547 0.4098 -0.3188
vn -0.0229 0.9602 0.2785
vn -0.6931 -0.4221 0.5843
vn 0.2144 -0.9733 0.0816
vn 0.8846 0.4089 -0.2241
vn -0.4692 0.0323 -0.8825
vn -0.6133 -0.7899 -0.0010
vn -0.5990 -0.7902 -0.1291
vn -0.5972 -0.7896 -0.1412
vn -0.6133 0.7843 -0.0936
vn -0.5972 0.7676 -0.2327
vn -0.5990 0.7697 -0.2208
vn 0.6133 0.7843 -0.0936
vn 0.5990 0.7697 -0.2208
vn 0.5972 0.7676 -0.2327
vn 0.6133 -0.7899 -0.0010
vn 0.5972 -0.7896 -0.1412
vn 0.5990 -0.7902 -0.1291
vn -0.5611 -0.7677 -0.3095
vn -0.5611 0.7261 -0.3973
vn 0.5611 0.7261 -0.3973
vn 0.5611 -0.7677 -0.3095
vn -0.0000 0.0587 0.9983
vt 0.578613 0.984863
vt 0.582275 0.984863
vt 0.582275 0.995117
vt 0.578613 0.995117
vt 0.585938 0.984863
vt 0.585938 0.995117
vt 0.589600 0.984863
vt 0.589600 0.995117
vt 0.593262 0.984863
vt 0.593262 0.995117
vt 0.580444 0.999512
vt 0.584106 0.999512
vt 0.587769 0.999512
vt 0.591431 0.999512
vt 0.593262 0.992188
vt 0.585938 0.999512
vt 0.578613 0.992188
s 1
usemtl props
f 189/272/221 181/273/221 182/274/222 183/275/223
f 181/273/224 188/276/224 184/277/225 182/274/226
f 188/276/227 187/278/227 186/279/228 184/277/229
f 187/278/230 189/280/230 183/281/231 186/279/232
f 183/275/223 182/274/222 185/282/233
f 182/274/226 184/277/225 185/283/234
f 184/277/229 186/279/228 185/284/235
f 186/279/232 183/281/231 185/285/236
s 0
f 187/286/237 188/287/237 181/288/237 189/276/237
s 1
f 191/272/238 214/273/238 193/274/239 196/275/240
f 214/273/241 190/276/241 194/277/242 193/274/243
f 190/276/244 197/278/244 195/279/245 194/277/246
f 197/278/247 191/280/247 196/281/248 195/279/249
f 196/275/240 193/274/239 192/282/250
f 193/274/243 194/277/242 192/283/251
f 194/277/246 195/279/245 192/284/252
f 195/279/249 196/281/248 192/285/253
s 0
f 197/286/254 190/287/254 214/288/254 191/276/254
s 1
f 198/272/255 199/273/255 200/274/256 202/275/257
f 199/273/258 201/276/258 203/277/259 200/274/260
f 201/276/261 206/278/261 205/279/262 203/277/263
f 206/278/264 198/280/264 202/281/265 205/279/266
f 202/275/257 200/274/256 204/282/267
f 200/274/260 203/277/259 204/283/268
f 203/277/263 205/279/262 204/284/269
f 205/279/266 202/281/265 204/285/270
s 0
f 206/286/271 201/287/271 199/288/271 198/276/271
s 1
f 207/272/272 214/273/272 209/274/273 208/275/274
f 214/273/275 213/276/275 210/277/276 209/274/277
f 213/276/278 197/278/278 211/279/279 210/277/280
f 197/278/281 207/280/281 208/281/282 211/279/283
f 208/275/274 209/274/273 212/282/284
f 209/274/277 210/277/276 212/283/285
f 210/277/280 211/279/279 212/284/286
f 211/279/283 208/281/282 212/285/287
s 0
f 197/286/288 213/287/288 214/288/288 207/276/288
o crow_wing_r
v -0.053284 0.140932 0.081109 0.9725 0.9725 0.9725
v -0.054478 0.164035 0.074720 0.9843 0.9843 0.9843
v -0.051016 0.169859 0.004976 0.9647 0.9647 0.9647
v -0.041563 0.152856 0.009341 0.8274 0.8274 0.8274
v -0.047434 0.100549 0.024143 0.8274 0.8274 0.8274
v -0.056887 0.117552 0.019777 0.9568 0.9568 0.9568
v -0.059239 0.120214 -0.082851 0.9804 0.9804 0.9804
v -0.058045 0.097111 -0.076462 0.9411 0.9411 0.9411
v -0.058677 0.152207 0.010194 0.9960 0.9960 0.9960
v -0.054131 0.131982 -0.086330 0.9529 0.9529 0.9529
v -0.047830 0.120647 -0.083420 0.8706 0.8706 0.8706
v -0.039773 0.118201 0.018924 0.8274 0.8274 0.8274
v -0.051744 0.085776 -0.073552 0.8784 0.8784 0.8784
v -0.055000 0.094254 -0.132441 0.9255 0.9255 0.9255
v -0.046636 0.097544 -0.077031 0.8353 0.8353 0.8353
v -0.039022 0.141473 0.080398 0.8627 0.8627 0.8627
v -0.040216 0.164576 0.074009 0.8902 0.8902 0.8902
v -0.047944 0.175857 0.071170 0.9529 0.9529 0.9529
v -0.045556 0.129651 0.083948 0.9215 0.9215 0.9215
vn -0.8559 -0.4593 0.2377
vn -0.9579 -0.2420 0.1546
vn -0.9569 -0.2661 0.1159
vn -0.8703 -0.4615 0.1723
vn -0.9804 0.1940 0.0340
vn -0.9808 0.1948 -0.0116
vn -0.9019 0.4318 -0.0087
vn -0.9147 0.3987 -0.0655
vn 0.8614 0.4986 -0.0966
vn 0.9615 0.2675 -0.0628
vn 0.9573 0.2683 -0.1082
vn 0.8710 0.4664 -0.1545
vn 0.9840 -0.1684 0.0578
vn 0.9811 -0.1927 0.0193
vn 0.9075 -0.3925 0.1498
vn 0.9154 -0.3938 0.0833
vn -0.9593 -0.2819 0.0155
vn -0.8786 -0.4745 0.0542
vn -0.9820 0.1566 -0.1058
vn -0.9211 0.3485 -0.1734
vn 0.9520 0.2299 -0.2022
vn 0.8704 0.4164 -0.2627
vn 0.9746 -0.2087 -0.0809
vn 0.9129 -0.4066 -0.0351
vn -0.9921 -0.0785 -0.0983
vn 0.9805 -0.0037 -0.1966
vn 0.0378 0.2682 0.9626
vt 0.406738 0.969238
vt 0.411784 0.969238
vt 0.411784 0.978320
vt 0.406738 0.978320
vt 0.416829 0.969238
vt 0.416829 0.978320
vt 0.421875 0.969238
vt 0.421875 0.978320
vt 0.426921 0.969238
vt 0.426921 0.978320
vt 0.431966 0.969238
vt 0.431966 0.978320
vt 0.437012 0.969238
vt 0.437012 0.978320
vt 0.411784 0.991943
vt 0.406738 0.991943
vt 0.416829 0.991943
vt 0.421875 0.991943
vt 0.426921 0.991943
vt 0.431966 0.991943
vt 0.437012 0.991943
vt 0.409261 0.999512
vt 0.414307 0.999512
vt 0.419352 0.999512
vt 0.424398 0.999512
vt 0.429443 0.999512
vt 0.434489 0.999512
vt 0.437012 0.976807
vt 0.421875 0.999512
vt 0.406738 0.976807
s 1
usemtl props
f 233/289/289 215/290/290 220/291/291 219/292/292
f 215/290/290 216/293/293 223/294/294 220/291/291
f 216/293/293 232/295/295 217/296/296 223/294/294
f 232/295/297 231/297/298 218/298/299 217/296/300
f 231/297/298 230/299/301 226/300/302 218/298/299
f 230/299/301 233/301/303 219/302/304 226/300/302
f 219/292/292 220/291/291 222/303/305 227/304/306
f 220/291/291 223/294/294 221/305/307 222/303/305
f 223/294/294 217/296/296 224/306/308 221/305/307
f 217/296/300 218/298/299 225/307/309 224/306/310
f 218/298/299 226/300/302 229/308/311 225/307/309
f 226/300/302 219/302/304 227/309/312 229/308/311
f 227/304/306 222/303/305 228/310/313
f 222/303/305 221/305/307 228/311/313
f 221/305/307 224/306/308 228/312/313
f 224/306/310 225/307/309 228/313/314
f 225/307/309 229/308/311 228/314/314
f 229/308/311 227/309/312 228/315/314
s 0
f 230/316/315 231/309/315 232/317/315 216/304/315 215/318/315 233/295/315
o crow_leg_r
v -0.053442 0.095864 0.000342 0.9255 0.9255 0.9255
v -0.050186 0.068793 0.014739 0.9333 0.9333 0.9333
v -0.045908 0.079874 -0.024206 0.8980 0.8980 0.8980
v -0.044364 0.056437 -0.004230 0.8902 0.8902 0.8902
v -0.019140 0.073610 -0.030548 0.8274 0.8274 0.8274
v -0.007564 0.059207 0.005261 0.8470 0.8470 0.8470
v -0.034210 0.105590 0.018548 0.8274 0.8274 0.8274
v -0.037239 0.043250 0.015018 0.8627 0.8627 0.8627
v -0.023053 0.051644 -0.008969 0.8627 0.8627 0.8627
v -0.021139 0.044462 0.019171 0.8588 0.8588 0.8588
v -0.013386 0.071563 0.024230 0.8274 0.8274 0.8274
v -0.034697 0.076356 0.028969 0.9019 0.9019 0.9019
v -0.032785 0.051488 0.028811 0.9019 0.9019 0.9019
v -0.039636 0.048338 0.022829 0.8941 0.8941 0.8941
v -0.027990 0.041312 0.013189 0.8274 0.8274 0.8274
v -0.023536 0.049550 0.026982 0.8823 0.8823 0.8823
v -0.007442 0.099326 0.012206 0.8274 0.8274 0.8274
v 0.000092 0.083336 -0.012342 0.8274 0.8274 0.8274
vn -0.7244 0.2479 0.6433
vn -0.7033 0.1160 0.7014
vn -0.7045 0.1215 0.6993
vn -0.9653 -0.2033 -0.1639
vn -0.9453 -0.3149 -0.0851
vn -0.3092 -0.6333 -0.7095
vn -0.3024 -0.7318 -0.6107
vn -0.3019 -0.7357 -0.6062
vn 0.6978 -0.5575 -0.4498
vn 0.6562 -0.6636 -0.3591
vn 0.6582 -0.6595 -0.3630
vn 0.9427 -0.0597 0.3282
vn 0.9032 -0.1757 0.3917
vn 0.2826 0.3237 0.9030
vn 0.2561 0.1938 0.9470
vn 0.2549 0.1881 0.9485
vn -0.6571 -0.0490 0.7522
vn -0.8919 -0.4518 0.0206
vn -0.2843 -0.8400 -0.4621
vn 0.5863 -0.7745 -0.2375
vn 0.8253 -0.3226 0.4635
vn 0.2136 0.0165 0.9768
vn -0.0727 -0.8458 0.5286
vn 0.0727 0.8458 -0.5286
vt 0.594238 0.984863
vt 0.596680 0.984863
vt 0.596680 0.993544
vt 0.594238 0.993544
vt 0.599121 0.984863
vt 0.599121 0.993544
vt 0.601562 0.984863
vt 0.601562 0.993544
vt 0.604004 0.984863
vt 0.604004 0.993544
vt 0.606445 0.984863
vt 0.606445 0.993544
vt 0.608887 0.984863
vt 0.608887 0.993544
vt 0.596680 0.999512
vt 0.594238 0.999512
vt 0.599121 0.999512
vt 0.601562 0.999512
vt 0.604004 0.999512
vt 0.606445 0.999512
vt 0.608887 0.999512
vt 0.594238 0.995850
vt 0.594238 0.988525
vt 0.608887 0.988525
vt 0.608887 0.995850
s 1
usemtl props
f 240/319/316 234/320/316 235/321/317 245/322/318
f 234/320/319 236/323/319 237/324/320 235/321/320
f 236/323/321 238/325/321 242/326/322 237/324/323
f 238/325/324 251/327/324 239/328/325 242/326/326
f 251/327/327 250/329/327 244/330/328 239/328/328
f 250/329/329 240/331/329 245/332/330 244/330/331
f 245/322/318 235/321/317 247/333/332 246/334/332
f 235/321/320 237/324/320 241/335/333 247/333/333
f 237/324/323 242/326/322 248/336/334 241/335/334
f 242/326/326 239/328/325 243/337/335 248/336/335
f 239/328/328 244/330/328 249/338/336 243/337/336
f 244/330/331 245/332/330 246/339/337 249/338/337
s 0
f 246/336/338 247/340/338 241/341/338 248/325/338 243/342/338 249/343/338
f 250/342/339 251/343/339 238/336/339 236/340/339 234/341/339 240/325/339
o crow_shin_r
v -0.036498 0.004955 -0.003459 0.8549 0.8549 0.8549
v -0.026388 0.008735 -0.009758 0.8706 0.8706 0.8706
v -0.025959 0.053039 0.016136 0.8274 0.8274 0.8274
v -0.023307 0.048839 0.023134 0.8274 0.8274 0.8274
v -0.030250 0.046244 0.027460 0.8941 0.8941 0.8941
v -0.030250 0.002620 0.000434 0.8274 0.8274 0.8274
v -0.024002 0.004955 -0.003459 0.8431 0.8431 0.8431
v -0.034112 0.008735 -0.009758 0.8549 0.8549 0.8549
v -0.034541 0.053039 0.016136 0.8274 0.8274 0.8274
v -0.037193 0.048839 0.023134 0.8509 0.8509 0.8509
vn -0.5877 -0.4261 0.6878
vn -0.9510 0.1491 -0.2709
vn -0.0000 0.5046 -0.8634
vn 0.9510 0.1491 -0.2709
vn 0.5877 -0.4261 0.6878
vn -0.0000 -0.8575 -0.5145
vn -0.0000 0.8575 0.5145
vt 0.500488 0.969238
vt 0.503418 0.969238
vt 0.503418 0.999512
vt 0.500488 0.999512
vt 0.506348 0.969238
vt 0.506348 0.999512
vt 0.509277 0.969238
vt 0.509277 0.999512
vt 0.512207 0.969238
vt 0.512207 0.999512
vt 0.515137 0.969238
vt 0.515137 0.999512
vt 0.507812 0.999512
vt 0.500488 0.987948
vt 0.503286 0.969238
vt 0.512339 0.969238
vt 0.515137 0.987948
vt 0.515137 0.980802
vt 0.512339 0.999512
vt 0.503286 0.999512
vt 0.500488 0.980802
vt 0.507812 0.969238
s 1
usemtl props
f 256/344/340 261/345/340 252/346/340 257/347/340
f 261/345/341 260/348/341 259/349/341 252/346/341
f 260/348/342 254/350/342 253/351/342 259/349/342
f 254/350/343 255/352/343 258/353/343 253/351/343
f 255/352/344 256/354/344 257/355/344 258/353/344
s 0
f 257/356/345 252/357/345 259/358/345 253/359/345 258/360/345
f 255/361/346 254/362/346 260/363/346 261/364/346 256/365/346
o crow_foot_r
v -0.035889 0.011075 -0.000876 0.8470 0.8470 0.8470
v -0.032749 0.002496 -0.002860 0.8392 0.8392 0.8392
v -0.009972 0.010248 0.029756 0.9058 0.9058 0.9058
v -0.016358 0.009123 0.033111 0.8941 0.8941 0.8941
v -0.013721 0.002518 0.031467 0.8392 0.8392 0.8392
v -0.007335 0.003643 0.028113 0.8509 0.8509 0.8509
v -0.003960 0.005840 0.045445 0.8823 0.8823 0.8823
v -0.024611 0.004225 -0.007124 0.8470 0.8470 0.8470
v -0.027751 0.012804 -0.005140 0.8274 0.8274 0.8274
v -0.037550 0.007650 -0.004000 0.8823 0.8823 0.8823
v -0.030250 0.001813 -0.004189 0.8353 0.8353 0.8353
v -0.030250 0.013487 -0.003811 0.8274 0.8274 0.8274
v -0.030250 0.010761 0.035341 0.9176 0.9176 0.9176
v -0.024410 0.006383 0.035200 0.8666 0.8666 0.8666
v -0.036090 0.006383 0.035200 0.8823 0.8823 0.8823
v -0.030250 0.005840 0.052000 0.8862 0.8862 0.8862
v -0.030250 0.002005 0.035059 0.8353 0.8353 0.8353
v -0.022950 0.007650 -0.004000 0.8588 0.8588 0.8588
v -0.035889 0.004225 -0.007124 0.8627 0.8627 0.8627
v -0.053165 0.003643 0.028113 0.8823 0.8823 0.8823
v -0.046779 0.002518 0.031467 0.8392 0.8392 0.8392
v -0.044142 0.009123 0.033111 0.8980 0.8980 0.8980
v -0.050528 0.010248 0.029756 0.9333 0.9333 0.9333
v -0.056540 0.005840 0.045445 0.8941 0.8941 0.8941
v -0.024611 0.011075 -0.000876 0.8431 0.8431 0.8431
v -0.027751 0.002496 -0.002860 0.8353 0.8353 0.8353
v -0.032749 0.012804 -0.005140 0.8274 0.8274 0.8274
v -0.030250 0.010755 -0.025817 0.9137 0.9137 0.9137
v -0.030250 0.013480 -0.004343 0.8274 0.8274 0.8274
v -0.030250 0.002011 -0.025303 0.8431 0.8431 0.8431
v -0.024410 0.006383 -0.025560 0.8666 0.8666 0.8666
v -0.036090 0.006383 -0.025560 0.8862 0.8862 0.8862
v -0.030250 0.005840 -0.034800 0.8823 0.8823 0.8823
v -0.030250 0.001820 -0.003657 0.8353 0.8353 0.8353
vn -0.1242 0.9835 0.1316
vn -0.0790 0.9769 0.1984
vn -0.0768 0.9764 0.2017
vn -0.7995 -0.4092 0.4397
vn -0.7524 -0.4170 0.5099
vn -0.7547 -0.4167 0.5067
vn 0.1487 -0.9852 -0.0855
vn 0.1789 -0.9838 -0.0105
vn 0.1804 -0.9836 -0.0068
vn 0.8240 0.4075 -0.3936
vn 0.8560 0.4098 -0.3151
vn 0.8547 0.4098 -0.3188
vn -0.0229 0.9602 0.2785
vn -0.6931 -0.4221 0.5843
vn 0.2144 -0.9733 0.0816
vn 0.8846 0.4089 -0.2241
vn -0.4692 0.0323 -0.8825
vn -0.6137 0.7878 0.0516
vn -0.6043 0.7857 0.1319
vn -0.6038 0.7855 0.1358
vn -0.6137 -0.7895 0.0006
vn -0.6038 -0.7926 0.0848
vn -0.6043 -0.7926 0.0809
vn 0.6137 -0.7895 0.0006
vn 0.6043 -0.7926 0.0809
vn 0.6038 -0.7926 0.0848
vn 0.6137 0.7878 0.0516
vn 0.6038 0.7855 0.1358
vn 0.6043 0.7857 0.1319
vn -0.5874 0.7762 0.2293
vn -0.5874 -0.7893 0.1787
vn 0.5874 -0.7893 0.1787
vn 0.5874 0.7762 0.2293
vn -0.0000 0.0323 -0.9995
vn -0.8240 0.4075 -0.3936
vn -0.8547 0.4098 -0.3188
vn -0.8560 0.4098 -0.3151
vn -0.1487 -0.9852 -0.0855
vn -0.1804 -0.9836 -0.0068
vn -0.1789 -0.9838 -0.0105
vn 0.7995 -0.4092 0.4397
vn 0.7547 -0.4167 0.5067
vn 0.7524 -0.4170 0.5099
vn 0.1242 0.9835 0.1316
vn 0.0768 0.9764 0.2017
vn 0.0790 0.9769 0.1984
vn -0.8846 0.4089 -0.2241
vn -0.2144 -0.9733 0.0816
vn 0.6931 -0.4221 0.5843
vn 0.0229 0.9602 0.2785
vn 0.4692 0.0323 -0.8825
vn -0.6133 -0.7899 -0.0010
vn -0.5990 -0.7902 -0.1291
vn -0.5972 -0.7896 -0.1412
vn -0.6133 0.7843 -0.0936
vn -0.5972 0.7676 -0.2327
vn -0.5990 0.7697 -0.2208
vn 0.6133 0.7843 -0.0936
vn 0.5990 0.7697 -0.2208
vn 0.5972 0.7676 -0.2327
vn 0.6133 -0.7899 -0.0010
vn 0.5972 -0.7896 -0.1412
vn 0.5990 -0.7902 -0.1291
vn -0.5611 -0.7677 -0.3095
vn -0.5611 0.7261 -0.3973
vn 0.5611 0.7261 -0.3973
vn 0.5611 -0.7677 -0.3095
vn -0.0000 0.0587 0.9983
vt 0.578613 0.984863
vt 0.582275 0.984863
vt 0.582275 0.995117
vt 0.578613 0.995117
vt 0.585938 0.984863
vt 0.585938 0.995117
vt 0.589600 0.984863
vt 0.589600 0.995117
vt 0.593262 0.984863
vt 0.593262 0.995117
vt 0.580444 0.999512
vt 0.584106 0.999512
vt 0.587769 0.999512
vt 0.591431 0.999512
vt 0.593262 0.992188
vt 0.585938 0.999512
vt 0.578613 0.992188
s 1
usemtl props
f 270/366/347 262/367/347 265/368/348 264/369/349
f 262/367/350 263/370/350 266/371/351 265/368/352
f 263/370/353 269/372/353 267/373/354 266/371/355
f 269/372/356 270/374/356 264/375/357 267/373/358
f 264/369/349 265/368/348 268/376/359
f 265/368/352 266/371/351 268/377/360
f 266/371/355 267/373/354 268/378/361
f 267/373/358 264/375/357 268/379/362
s 0
f 269/380/363 263/381/363 262/382/363 270/370/363
s 1
f 273/366/364 271/367/364 276/368/365 274/369/366
f 271/367/367 272/370/367 278/371/368 276/368/369
f 272/370/370 279/372/370 275/373/371 278/371/372
f 279/372/373 273/374/373 274/375/374 275/373/375
f 274/369/366 276/368/365 277/376/376
f 276/368/369 278/371/368 277/377/377
f 278/371/372 275/373/371 277/378/378
f 275/373/375 274/375/374 277/379/379
s 0
f 279/380/380 272/381/380 271/382/380 273/370/380
s 1
f 288/366/381 280/367/381 281/368/382 284/369/383
f 280/367/384 287/370/384 282/371/385 281/368/386
f 287/370/387 286/372/387 283/373/388 282/371/389
f 286/372/390 288/374/390 284/375/391 283/373/392
f 284/369/383 281/368/382 285/376/393
f 281/368/386 282/371/385 285/377/394
f 282/371/389 283/373/388 285/378/395
f 283/373/392 284/375/391 285/379/396
s 0
f 286/380/397 287/381/397 280/382/397 288/370/397
s 1
f 295/366/398 271/367/398 293/368/399 291/369/400
f 271/367/401 290/370/401 289/371/402 293/368/403
f 290/370/404 279/372/404 292/373/405 289/371/406
f 279/372/407 295/374/407 291/375/408 292/373/409
f 291/369/400 293/368/399 294/376/410
f 293/368/403 289/371/402 294/377/411
f 289/371/406 292/373/405 294/378/412
f 292/373/409 291/375/408 294/379/413
s 0
f 279/380/414 290/381/414 271/382/414 295/370/414
o crow_tail
v -0.035724 0.099797 -0.195306 0.9215 0.9215 0.9215
v 0.019053 0.118189 -0.105567 0.8274 0.8274 0.8274
v 0.035724 0.108763 -0.196090 0.9843 0.9843 0.9843
v 0.000000 0.095315 -0.194913 0.8706 0.8706 0.8706
v 0.035724 0.099797 -0.195306 0.9176 0.9176 0.9176
v -0.040487 0.096760 -0.247238 0.9333 0.9333 0.9333
v 0.000000 0.093771 -0.246977 0.8980 0.8980 0.8980
v -0.035724 0.108763 -0.196090 0.9804 0.9804 0.9804
v -0.040487 0.102737 -0.247761 0.9764 0.9764 0.9764
v -0.000000 0.113246 -0.196482 0.9960 0.9960 0.9960
v 0.040487 0.102737 -0.247761 0.9764 0.9764 0.9764
v -0.000000 0.105725 -0.248023 0.9843 0.9843 0.9843
v 0.040487 0.096760 -0.247238 0.9294 0.9294 0.9294
v 0.019053 0.106234 -0.104521 0.8274 0.8274 0.8274
v -0.000000 0.124166 -0.106090 0.8274 0.8274 0.8274
v -0.019053 0.118189 -0.105567 0.8274 0.8274 0.8274
v -0.019053 0.106234 -0.104521 0.8274 0.8274 0.8274
v 0.000000 0.100257 -0.103998 0.8313 0.8313 0.8313
vn -0.0000 -0.9968 0.0800
vn -0.1883 -0.9790 0.0786
vn -0.1391 -0.9883 0.0621
vn -0.0000 -0.9979 0.0642
vn -0.9836 0.0157 0.1795
vn -0.9906 0.0119 0.1360
vn -0.1883 0.9777 -0.0926
vn -0.0000 0.9955 -0.0943
vn -0.0000 0.9939 -0.1100
vn -0.1391 0.9841 -0.1104
vn 0.1883 0.9777 -0.0926
vn 0.1391 0.9841 -0.1104
vn 0.9836 0.0157 0.1795
vn 0.9906 0.0119 0.1360
vn 0.1883 -0.9790 0.0786
vn 0.1391 -0.9883 0.0621
vn -0.0979 -0.9940 0.0483
vn -0.0000 -0.9988 0.0485
vn -0.9958 0.0079 0.0909
vn -0.0000 0.9921 -0.1257
vn -0.0979 0.9873 -0.1251
vn 0.0979 0.9873 -0.1251
vn 0.9958 0.0079 0.0909
vn 0.0979 -0.9940 0.0483
vn -0.0000 -0.0872 -0.9962
vn -0.0000 0.0872 0.9962
vt 0.375488 0.969238
vt 0.380534 0.969238
vt 0.380534 0.988503
vt 0.375488 0.988503
vt 0.385579 0.969238
vt 0.385579 0.988503
vt 0.390625 0.969238
vt 0.390625 0.988503
vt 0.395671 0.969238
vt 0.395671 0.988503
vt 0.400716 0.969238
vt 0.400716 0.988503
vt 0.405762 0.969238
vt 0.405762 0.988503
vt 0.380534 0.999512
vt 0.375488 0.999512
vt 0.385579 0.999512
vt 0.390625 0.999512
vt 0.395671 0.999512
vt 0.400716 0.999512
vt 0.405762 0.999512
vt 0.375488 0.991943
vt 0.375488 0.976807
vt 0.405762 0.976807
vt 0.405762 0.991943
s 1
usemtl props
f 313/383/415 312/384/416 296/385/417 299/386/418
f 312/384/419 311/387/419 303/388/420 296/385/420
f 311/387/421 310/389/422 305/390/423 303/388/424
f 310/389/422 297/391/425 298/392/426 305/390/423
f 297/391/427 309/393/427 300/394/428 298/392/428
f 309/393/429 313/395/415 299/396/418 300/394/430
f 299/386/418 296/385/417 301/397/431 302/398/432
f 296/385/420 303/388/420 304/399/433 301/397/433
f 303/388/424 305/390/423 307/400/434 304/399/435
f 305/390/423 298/392/426 306/401/436 307/400/434
f 298/392/428 300/394/428 308/402/437 306/401/437
f 300/394/430 299/396/418 302/403/432 308/402/438
s 0
f 302/400/439 301/404/439 304/405/439 307/389/439 306/406/439 308/407/439
f 309/406/440 297/407/440 310/400/440 311/404/440 312/405/440 313/389/440
