# Blender 4.5.14 LTS
# www.blender.org
mtllib rabbit.mtl
o rabbit
v -0.011462 0.180265 -0.099104 0.8274 0.8274 0.8274
v -0.018546 0.167392 -0.101663 0.9333 0.9333 0.9333
v -0.044509 0.170212 -0.087817 0.8274 0.8274 0.8274
v -0.011462 0.138607 -0.107386 0.9921 0.9921 0.9921
v -0.027508 0.106062 -0.100572 0.9686 0.9686 0.9686
v -0.000000 0.133690 -0.108364 0.9960 0.9960 0.9960
v 0.011462 0.138607 -0.107386 0.9921 0.9921 0.9921
v 0.044509 0.134751 -0.094868 0.9843 0.9843 0.9843
v 0.044509 0.170212 -0.087817 0.8274 0.8274 0.8274
v 0.027508 0.198900 -0.082113 0.9647 0.9647 0.9647
v -0.027508 0.198900 -0.082113 0.9647 0.9647 0.9647
v -0.044509 0.134751 -0.094868 0.9843 0.9843 0.9843
v -0.058728 0.164415 -0.057971 0.8274 0.8274 0.8274
v -0.000000 0.095104 -0.102750 0.9490 0.9490 0.9490
v 0.027508 0.106062 -0.100572 0.9647 0.9647 0.9647
v 0.058728 0.119862 -0.066829 0.9725 0.9725 0.9725
v 0.036296 0.083817 -0.073996 0.9137 0.9137 0.9137
v 0.058728 0.164415 -0.057971 0.8274 0.8274 0.8274
v 0.000000 0.209858 -0.079934 0.8274 0.8274 0.8274
v 0.000000 0.214227 -0.048067 0.9960 0.9960 0.9960
v 0.036296 0.200460 -0.050804 0.9529 0.9529 0.9529
v -0.036296 0.200460 -0.050804 0.9529 0.9529 0.9529
v -0.032857 0.182419 0.012035 0.9882 0.9882 0.9882
v -0.053164 0.106755 -0.003009 0.9647 0.9647 0.9647
v -0.058728 0.119862 -0.066829 0.9764 0.9764 0.9764
v -0.032857 0.072918 -0.009737 0.8941 0.8941 0.8941
v -0.036296 0.083817 -0.073996 0.9137 0.9137 0.9137
v -0.000000 0.059993 -0.012307 0.8627 0.8627 0.8627
v -0.000000 0.070050 -0.076733 0.8784 0.8784 0.8784
v 0.032857 0.072918 -0.009737 0.8941 0.8941 0.8941
v 0.032857 0.182419 0.012035 0.9921 0.9921 0.9921
v 0.000000 0.195343 0.014605 0.9921 0.9921 0.9921
v -0.053164 0.148581 0.005307 0.9882 0.9882 0.9882
v 0.038206 0.054435 0.039729 0.8784 0.8784 0.8784
v -0.000000 0.039825 0.036824 0.8470 0.8470 0.8470
v 0.053164 0.106755 -0.003009 0.9607 0.9607 0.9607
v 0.053164 0.148581 0.005307 0.9921 0.9921 0.9921
v 0.038206 0.178219 0.064341 0.9921 0.9921 0.9921
v 0.000000 0.192830 0.067246 0.9725 0.9725 0.9725
v 0.000000 0.189843 0.097651 0.8274 0.8274 0.8274
v -0.038206 0.178219 0.064341 0.9882 0.9882 0.9882
v -0.055637 0.140031 0.087747 0.9490 0.9490 0.9490
v -0.061819 0.139968 0.056735 0.9882 0.9882 0.9882
v -0.055637 0.095477 0.078888 0.8274 0.8274 0.8274
v -0.061819 0.092687 0.047335 0.9568 0.9568 0.9568
v -0.038206 0.054435 0.039729 0.8784 0.8784 0.8784
v -0.034385 0.059433 0.071722 0.8274 0.8274 0.8274
v 0.061819 0.092687 0.047335 0.9568 0.9568 0.9568
v 0.055637 0.140031 0.087747 0.9490 0.9490 0.9490
v 0.061819 0.139968 0.056735 0.9921 0.9921 0.9921
v -0.034385 0.176075 0.094913 0.9529 0.9529 0.9529
v -0.034000 0.132650 0.112850 0.9215 0.9215 0.9215
v -0.021013 0.155454 0.117384 0.8274 0.8274 0.8274
v -0.021013 0.081660 0.102711 0.9176 0.9176 0.9176
v -0.034000 0.104464 0.107245 0.8274 0.8274 0.8274
v -0.000000 0.072950 0.100980 0.9098 0.9098 0.9098
v -0.000000 0.045665 0.068984 0.8588 0.8588 0.8588
v 0.034385 0.059433 0.071722 0.8274 0.8274 0.8274
v 0.055637 0.095477 0.078888 0.8274 0.8274 0.8274
v 0.034000 0.132650 0.112850 0.9215 0.9215 0.9215
v 0.034000 0.104464 0.107245 0.8274 0.8274 0.8274
v 0.034385 0.176075 0.094913 0.9529 0.9529 0.9529
v 0.021013 0.155454 0.117384 0.8274 0.8274 0.8274
v 0.000000 0.164164 0.119116 0.8274 0.8274 0.8274
v 0.021013 0.081660 0.102711 0.9176 0.9176 0.9176
v 0.011462 0.180265 -0.099104 0.8274 0.8274 0.8274
v 0.018546 0.167392 -0.101663 0.9333 0.9333 0.9333
v 0.018546 0.151480 -0.104827 0.9764 0.9764 0.9764
v -0.018546 0.151480 -0.104827 0.9725 0.9725 0.9725
v 0.000000 0.185182 -0.098126 0.8274 0.8274 0.8274
vn -0.0000 0.5906 -0.8070
vn -0.2966 0.4903 -0.8196
vn -0.4934 0.7033 -0.5118
vn -0.0000 0.8848 -0.4659
vn -0.4280 0.2900 -0.8560
vn -0.7182 0.3318 -0.6116
vn -0.4093 0.0913 -0.9078
vn -0.6911 -0.0400 -0.7217
vn -0.2604 -0.0720 -0.9628
vn -0.4480 -0.3570 -0.8197
vn -0.0000 -0.1418 -0.9899
vn -0.0000 -0.5032 -0.8642
vn 0.2604 -0.0720 -0.9628
vn 0.4480 -0.3570 -0.8197
vn 0.4093 0.0913 -0.9078
vn 0.6911 -0.0400 -0.7217
vn 0.4280 0.2900 -0.8560
vn 0.7182 0.3318 -0.6116
vn 0.2966 0.4903 -0.8196
vn 0.4934 0.7033 -0.5118
vn -0.6439 0.7648 0.0226
vn -0.0000 0.9967 0.0811
vn -0.9534 0.2835 -0.1033
vn -0.9437 -0.2258 -0.2418
vn -0.6246 -0.6875 -0.3705
vn -0.0000 -0.9023 -0.4310
vn 0.6246 -0.6875 -0.3705
vn 0.9437 -0.2258 -0.2418
vn 0.9534 0.2835 -0.1033
vn 0.6439 0.7648 0.0226
vn -0.6475 0.7526 0.1200
vn -0.0000 0.9857 0.1686
vn -0.9634 0.2676 0.0159
vn -0.9627 -0.2512 -0.1011
vn -0.6458 -0.7326 -0.2150
vn -0.0000 -0.9626 -0.2709
vn 0.6458 -0.7326 -0.2150
vn 0.9627 -0.2512 -0.1011
vn 0.9634 0.2676 0.0159
vn 0.6475 0.7526 0.1200
vn -0.6609 0.7473 0.0686
vn -0.0000 0.9970 0.0772
vn -0.9695 0.2422 0.0387
vn -0.9580 -0.2865 -0.0127
vn -0.6354 -0.7686 -0.0750
vn -0.0000 -0.9942 -0.1075
vn 0.6354 -0.7686 -0.0750
vn 0.9580 -0.2865 -0.0127
vn 0.9695 0.2422 0.0387
vn 0.6609 0.7473 0.0686
vn -0.6080 0.6618 0.4386
vn -0.0000 0.8915 0.4529
vn -0.8885 0.1798 0.4223
vn -0.8557 -0.3085 0.4155
vn -0.5537 -0.7258 0.4082
vn -0.0000 -0.9156 0.4022
vn 0.5537 -0.7258 0.4082
vn 0.8557 -0.3085 0.4155
vn 0.8885 0.1798 0.4223
vn 0.6080 0.6618 0.4386
vn -0.5188 0.4525 0.7253
vn -0.0000 0.6380 0.7700
vn -0.7443 0.0850 0.6624
vn -0.7174 -0.2859 0.6353
vn -0.4664 -0.6102 0.6404
vn -0.0000 -0.7591 0.6510
vn 0.4664 -0.6102 0.6404
vn 0.7174 -0.2859 0.6353
vn 0.7443 0.0850 0.6624
vn 0.5188 0.4525 0.7253
vn -0.0000 -0.1950 0.9808
vn -0.0000 0.1950 -0.9808
vt 0.000488 0.937988
vt 0.012891 0.937988
vt 0.012891 0.941845
vt 0.000488 0.941845
vt 0.025293 0.937988
vt 0.025293 0.941845
vt 0.037695 0.937988
vt 0.037695 0.941845
vt 0.050098 0.937988
vt 0.050098 0.941845
vt 0.062500 0.937988
vt 0.062500 0.941845
vt 0.074902 0.937988
vt 0.074902 0.941845
vt 0.087305 0.937988
vt 0.087305 0.941845
vt 0.099707 0.937988
vt 0.099707 0.941845
vt 0.112109 0.937988
vt 0.112109 0.941845
vt 0.124512 0.937988
vt 0.124512 0.941845
vt 0.012891 0.950445
vt 0.000488 0.950445
vt 0.025293 0.950445
vt 0.037695 0.950445
vt 0.050098 0.950445
vt 0.062500 0.950445
vt 0.074902 0.950445
vt 0.087305 0.950445
vt 0.099707 0.950445
vt 0.112109 0.950445
vt 0.124512 0.950445
vt 0.012891 0.968681
vt 0.000488 0.968681
vt 0.025293 0.968681
vt 0.037695 0.968681
vt 0.050098 0.968681
vt 0.062500 0.968681
vt 0.074902 0.968681
vt 0.087305 0.968681
vt 0.099707 0.968681
vt 0.112109 0.968681
vt 0.124512 0.968681
vt 0.012891 0.983268
vt 0.000488 0.983268
vt 0.025293 0.983268
vt 0.037695 0.983268
vt 0.050098 0.983268
vt 0.062500 0.983268
vt 0.074902 0.983268
vt 0.087305 0.983268
vt 0.099707 0.983268
vt 0.112109 0.983268
vt 0.124512 0.983268
vt 0.012891 0.992029
vt 0.000488 0.992029
vt 0.025293 0.992029
vt 0.037695 0.992029
vt 0.050098 0.992029
vt 0.062500 0.992029
vt 0.074902 0.992029
vt 0.087305 0.992029
vt 0.099707 0.992029
vt 0.112109 0.992029
vt 0.124512 0.992029
vt 0.012891 0.999512
vt 0.000488 0.999512
vt 0.025293 0.999512
vt 0.037695 0.999512
vt 0.050098 0.999512
vt 0.062500 0.999512
vt 0.074902 0.999512
vt 0.087305 0.999512
vt 0.099707 0.999512
vt 0.112109 0.999512
vt 0.124512 0.999512
vt 0.024175 0.993637
vt 0.000488 0.978256
vt 0.000488 0.959244
vt 0.024175 0.943863
vt 0.100825 0.943863
vt 0.124512 0.959244
vt 0.124512 0.978256
vt 0.100825 0.993637
s 1
usemtl props
f 70/1/1 1/2/2 11/3/3 19/4/4
f 1/2/2 2/5/5 3/6/6 11/3/3
f 2/5/5 69/7/7 12/8/8 3/6/6
f 69/7/7 4/9/9 5/10/10 12/8/8
f 4/9/9 6/11/11 14/12/12 5/10/10
f 6/11/11 7/13/13 15/14/14 14/12/12
f 7/13/13 68/15/15 8/16/16 15/14/14
f 68/15/15 67/17/17 9/18/18 8/16/16
f 67/17/17 66/19/19 10/20/20 9/18/18
f 66/19/19 70/21/1 19/22/4 10/20/20
f 19/4/4 11/3/3 22/23/21 20/24/22
f 11/3/3 3/6/6 13/25/23 22/23/21
f 3/6/6 12/8/8 25/26/24 13/25/23
f 12/8/8 5/10/10 27/27/25 25/26/24
f 5/10/10 14/12/12 29/28/26 27/27/25
f 14/12/12 15/14/14 17/29/27 29/28/26
f 15/14/14 8/16/16 16/30/28 17/29/27
f 8/16/16 9/18/18 18/31/29 16/30/28
f 9/18/18 10/20/20 21/32/30 18/31/29
f 10/20/20 19/22/4 20/33/22 21/32/30
f 20/24/22 22/23/21 23/34/31 32/35/32
f 22/23/21 13/25/23 33/36/33 23/34/31
f 13/25/23 25/26/24 24/37/34 33/36/33
f 25/26/24 27/27/25 26/38/35 24/37/34
f 27/27/25 29/28/26 28/39/36 26/38/35
f 29/28/26 17/29/27 30/40/37 28/39/36
f 17/29/27 16/30/28 36/41/38 30/40/37
f 16/30/28 18/31/29 37/42/39 36/41/38
f 18/31/29 21/32/30 31/43/40 37/42/39
f 21/32/30 20/33/22 32/44/32 31/43/40
f 32/35/32 23/34/31 41/45/41 39/46/42
f 23/34/31 33/36/33 43/47/43 41/45/41
f 33/36/33 24/37/34 45/48/44 43/47/43
f 24/37/34 26/38/35 46/49/45 45/48/44
f 26/38/35 28/39/36 35/50/46 46/49/45
f 28/39/36 30/40/37 34/51/47 35/50/46
f 30/40/37 36/41/38 48/52/48 34/51/47
f 36/41/38 37/42/39 50/53/49 48/52/48
f 37/42/39 31/43/40 38/54/50 50/53/49
f 31/43/40 32/44/32 39/55/42 38/54/50
f 39/46/42 41/45/41 51/56/51 40/57/52
f 41/45/41 43/47/43 42/58/53 51/56/51
f 43/47/43 45/48/44 44/59/54 42/58/53
f 45/48/44 46/49/45 47/60/55 44/59/54
f 46/49/45 35/50/46 57/61/56 47/60/55
f 35/50/46 34/51/47 58/62/57 57/61/56
f 34/51/47 48/52/48 59/63/58 58/62/57
f 48/52/48 50/53/49 49/64/59 59/63/58
f 50/53/49 38/54/50 62/65/60 49/64/59
f 38/54/50 39/55/42 40/66/52 62/65/60
f 40/57/52 51/56/51 53/67/61 64/68/62
f 51/56/51 42/58/53 52/69/63 53/67/61
f 42/58/53 44/59/54 55/70/64 52/69/63
f 44/59/54 47/60/55 54/71/65 55/70/64
f 47/60/55 57/61/56 56/72/66 54/71/65
f 57/61/56 58/62/57 65/73/67 56/72/66
f 58/62/57 59/63/58 61/74/68 65/73/67
f 59/63/58 49/64/59 60/75/69 61/74/68
f 49/64/59 62/65/60 63/76/70 60/75/69
f 62/65/60 40/66/52 64/77/62 63/76/70
s 0
f 64/72/71 53/78/71 52/79/71 55/80/71 54/81/71 56/11/71 65/82/71 61/83/71 60/84/71 63/85/71
f 66/82/72 67/83/72 68/84/72 7/85/72 6/72/72 4/78/72 69/79/72 2/80/72 1/81/72 70/11/72
o rabbit_neck
v 0.000000 0.163599 0.061555 0.8392 0.8392 0.8392
v -0.026135 0.160256 0.074032 0.8353 0.8353 0.8353
v -0.042000 0.101474 0.090565 0.8274 0.8274 0.8274
v -0.029698 0.092635 0.123554 0.9333 0.9333 0.9333
v -0.036960 0.152185 0.104153 0.9607 0.9607 0.9607
v -0.000000 0.088973 0.137219 0.9255 0.9255 0.9255
v -0.026135 0.144114 0.134274 0.8274 0.8274 0.8274
v 0.042000 0.101474 0.090565 0.8274 0.8274 0.8274
v 0.026135 0.144114 0.134274 0.8274 0.8274 0.8274
v 0.029698 0.110314 0.057575 0.8313 0.8313 0.8313
v 0.036960 0.152185 0.104153 0.9607 0.9607 0.9607
v 0.000000 0.113975 0.043911 0.8392 0.8392 0.8392
v 0.026135 0.160256 0.074032 0.8313 0.8313 0.8313
v -0.021383 0.204021 0.091908 0.9725 0.9725 0.9725
v -0.030240 0.197487 0.116291 0.8274 0.8274 0.8274
v -0.021383 0.190954 0.140675 0.8274 0.8274 0.8274
v -0.000000 0.140771 0.146750 0.8274 0.8274 0.8274
v 0.021383 0.190954 0.140675 0.8274 0.8274 0.8274
v -0.000000 0.188247 0.150775 0.8274 0.8274 0.8274
v 0.030240 0.197487 0.116291 0.8274 0.8274 0.8274
v 0.000000 0.206727 0.081808 0.9647 0.9647 0.9647
v 0.021383 0.204021 0.091908 0.9764 0.9764 0.9764
v 0.029698 0.092635 0.123554 0.9333 0.9333 0.9333
v -0.029698 0.110314 0.057575 0.8313 0.8313 0.8313
vn -0.4349 0.3057 -0.8470
vn -0.7429 0.2565 -0.6183
vn -0.7391 0.2892 -0.6083
vn -0.4357 0.3425 -0.8324
vn -0.9958 0.0884 0.0237
vn -0.9932 0.1127 0.0302
vn -0.7429 -0.0870 0.6637
vn -0.7391 -0.0537 0.6714
vn -0.4349 -0.1588 0.8864
vn -0.4357 -0.1196 0.8921
vn 0.4349 -0.1588 0.8864
vn 0.7429 -0.0870 0.6637
vn 0.7391 -0.0537 0.6714
vn 0.4357 -0.1196 0.8921
vn 0.9958 0.0884 0.0237
vn 0.9932 0.1127 0.0302
vn 0.7429 0.2565 -0.6183
vn 0.7391 0.2892 -0.6083
vn 0.4349 0.3057 -0.8470
vn 0.4357 0.3425 -0.8324
vn -0.7439 0.3204 -0.5865
vn -0.4359 0.3815 -0.8151
vn -0.9897 0.1380 0.0370
vn -0.7439 -0.0158 0.6681
vn -0.4359 -0.0772 0.8967
vn 0.7439 -0.0158 0.6681
vn 0.4359 -0.0772 0.8967
vn 0.9897 0.1380 0.0370
vn 0.7439 0.3204 -0.5865
vn 0.4359 0.3815 -0.8151
vn -0.0000 0.9659 0.2588
vn -0.0000 -0.9659 -0.2588
vt 0.250488 0.969238
vt 0.258179 0.969238
vt 0.258179 0.985228
vt 0.250488 0.985228
vt 0.265869 0.969238
vt 0.265869 0.985228
vt 0.273560 0.969238
vt 0.273560 0.985228
vt 0.281250 0.969238
vt 0.281250 0.985228
vt 0.288940 0.969238
vt 0.288940 0.985228
vt 0.296631 0.969238
vt 0.296631 0.985228
vt 0.304321 0.969238
vt 0.304321 0.985228
vt 0.312012 0.969238
vt 0.312012 0.985228
vt 0.258179 0.999512
vt 0.250488 0.999512
vt 0.265869 0.999512
vt 0.273560 0.999512
vt 0.281250 0.999512
vt 0.288940 0.999512
vt 0.296631 0.999512
vt 0.304321 0.999512
vt 0.312012 0.999512
vt 0.259498 0.995078
vt 0.250488 0.984375
vt 0.259498 0.973672
vt 0.303002 0.973672
vt 0.312012 0.984375
vt 0.303002 0.995078
s 1
usemtl props
f 82/86/73 94/87/74 72/88/75 71/89/76
f 94/87/74 73/90/77 75/91/78 72/88/75
f 73/90/77 74/92/79 77/93/80 75/91/78
f 74/92/79 76/94/81 87/95/82 77/93/80
f 76/94/83 93/96/84 79/97/85 87/95/86
f 93/96/84 78/98/87 81/99/88 79/97/85
f 78/98/87 80/100/89 83/101/90 81/99/88
f 80/100/89 82/102/91 71/103/92 83/101/90
f 71/89/76 72/88/75 84/104/93 91/105/94
f 72/88/75 75/91/78 85/106/95 84/104/93
f 75/91/78 77/93/80 86/107/96 85/106/95
f 77/93/80 87/95/82 89/108/97 86/107/96
f 87/95/86 79/97/85 88/109/98 89/108/99
f 79/97/85 81/99/88 90/110/100 88/109/98
f 81/99/88 83/101/90 92/111/101 90/110/100
f 83/101/90 71/103/92 91/112/102 92/111/101
s 0
f 91/108/103 84/113/103 85/114/103 86/115/103 89/94/103 88/116/103 90/117/103 92/118/103
f 80/116/104 78/117/104 93/118/104 76/108/104 74/113/104 73/114/104 94/115/104 82/94/104
o rabbit_head
v 0.000000 0.200352 0.107155 0.9333 0.9333 0.9333
v 0.000000 0.230987 0.138372 0.9764 0.9764 0.9764
v -0.000000 0.167093 0.093633 0.8274 0.8274 0.8274
v 0.034238 0.208912 0.122915 0.9843 0.9843 0.9843
v 0.021160 0.224886 0.134100 0.9725 0.9725 0.9725
v -0.021160 0.224886 0.134100 0.9764 0.9764 0.9764
v -0.034238 0.208912 0.122915 0.9843 0.9843 0.9843
v -0.047553 0.201863 0.142395 0.9921 0.9921 0.9921
v -0.034238 0.189168 0.109090 0.9607 0.9607 0.9607
v -0.021160 0.173194 0.097906 0.8274 0.8274 0.8274
v 0.021160 0.173194 0.097906 0.8274 0.8274 0.8274
v -0.000000 0.148249 0.104854 0.8274 0.8274 0.8274
v 0.029389 0.156071 0.110331 0.8274 0.8274 0.8274
v 0.034238 0.189168 0.109090 0.9647 0.9647 0.9647
v 0.029389 0.222342 0.156735 0.9215 0.9215 0.9215
v 0.000000 0.230164 0.162212 0.9686 0.9686 0.9686
v -0.027038 0.202553 0.166073 0.9921 0.9921 0.9921
v -0.029389 0.222342 0.156735 0.9215 0.9215 0.9215
v -0.047553 0.176550 0.124671 0.9843 0.9843 0.9843
v -0.029389 0.156071 0.110331 0.8274 0.8274 0.8274
v -0.027038 0.144235 0.125238 0.8274 0.8274 0.8274
v -0.043749 0.162256 0.137857 0.9843 0.9843 0.9843
v 0.027038 0.144235 0.125238 0.8274 0.8274 0.8274
v 0.047553 0.176550 0.124671 0.9843 0.9843 0.9843
v 0.047553 0.201863 0.142395 0.9960 0.9960 0.9960
v 0.043749 0.162256 0.137857 0.9882 0.9882 0.9882
v 0.027038 0.202553 0.166073 0.9921 0.9921 0.9921
v 0.000000 0.209437 0.170893 0.9882 0.9882 0.9882
v -0.022042 0.176178 0.180566 0.9960 0.9960 0.9960
v -0.043749 0.184532 0.153454 1.0000 1.0000 1.0000
v -0.035665 0.145268 0.158923 0.9882 0.9882 0.9882
v -0.000000 0.137351 0.120418 0.8274 0.8274 0.8274
v -0.000000 0.126165 0.145547 0.9058 0.9058 0.9058
v 0.022042 0.131445 0.149244 0.9490 0.9490 0.9490
v 0.035665 0.162355 0.170887 0.9960 0.9960 0.9960
v 0.035665 0.145268 0.158923 0.9882 0.9882 0.9882
v 0.043749 0.184532 0.153454 0.9960 0.9960 0.9960
v 0.000000 0.181458 0.184263 0.9921 0.9921 0.9921
v -0.035665 0.162355 0.170887 0.9960 0.9960 0.9960
v -0.023776 0.142803 0.187716 0.9960 0.9960 0.9960
v -0.022042 0.131445 0.149244 0.9490 0.9490 0.9490
v -0.014695 0.123342 0.174089 0.9568 0.9568 0.9568
v 0.014695 0.123342 0.174089 0.9529 0.9529 0.9529
v 0.023776 0.142803 0.187716 1.0000 1.0000 1.0000
v 0.022042 0.176178 0.180566 0.9960 0.9960 0.9960
v 0.000000 0.154831 0.196138 0.9960 0.9960 0.9960
v 0.000000 0.150039 0.196445 1.0000 1.0000 1.0000
v -0.014695 0.151507 0.193810 0.9960 0.9960 0.9960
v -0.012490 0.147301 0.194528 1.0000 1.0000 1.0000
v -0.023776 0.132045 0.180183 0.9921 0.9921 0.9921
v -0.020210 0.131274 0.183305 0.9882 0.9882 0.9882
v -0.012490 0.124106 0.178286 0.9725 0.9725 0.9725
v -0.000000 0.120017 0.171761 0.9372 0.9372 0.9372
v 0.023776 0.132045 0.180183 0.9921 0.9921 0.9921
v 0.020210 0.140133 0.189509 1.0000 1.0000 1.0000
v 0.014695 0.151507 0.193810 1.0000 1.0000 1.0000
v -0.020210 0.140133 0.189509 1.0000 1.0000 1.0000
v -0.000000 0.121368 0.176369 0.9568 0.9568 0.9568
v 0.012490 0.124106 0.178286 0.9686 0.9686 0.9686
v 0.020210 0.131274 0.183305 0.9921 0.9921 0.9921
v 0.012490 0.147301 0.194528 1.0000 1.0000 1.0000
v 0.006022 0.217797 0.143230 0.8274 0.8274 0.8274
v 0.013627 0.213509 0.151089 0.8274 0.8274 0.8274
v 0.022195 0.259017 0.168599 0.9843 0.9843 0.9843
v 0.039084 0.209018 0.150303 0.9176 0.9176 0.9176
v 0.047653 0.254526 0.167813 0.9960 0.9960 0.9960
v 0.035408 0.262134 0.153225 0.9921 0.9921 0.9921
v 0.014628 0.263719 0.159583 0.9764 0.9764 0.9764
v 0.055819 0.256453 0.158311 0.9960 0.9960 0.9960
v 0.046601 0.320247 0.183737 0.9960 0.9960 0.9960
v 0.047213 0.210530 0.141959 0.9529 0.9529 0.9529
v 0.026779 0.215955 0.137587 0.8274 0.8274 0.8274
v -0.026779 0.215955 0.137587 0.8274 0.8274 0.8274
v -0.047213 0.210530 0.141959 0.9529 0.9529 0.9529
v -0.013627 0.213509 0.151089 0.8274 0.8274 0.8274
v -0.014628 0.263719 0.159583 0.9764 0.9764 0.9764
v -0.022195 0.259017 0.168599 0.9882 0.9882 0.9882
v -0.006022 0.217797 0.143230 0.8274 0.8274 0.8274
v -0.035408 0.262134 0.153225 0.9882 0.9882 0.9882
v -0.055819 0.256453 0.158311 0.9960 0.9960 0.9960
v -0.047653 0.254526 0.167813 0.9960 0.9960 0.9960
v -0.046601 0.320247 0.183737 0.9960 0.9960 0.9960
v -0.039084 0.209018 0.150303 0.9176 0.9176 0.9176
vn -0.0000 0.5556 -0.8314
vn -0.3568 0.8526 -0.3817
vn -0.0000 0.9519 -0.3063
vn -0.5689 0.6047 -0.5574
vn -0.5870 0.2886 -0.7564
vn -0.3844 -0.0077 -0.9231
vn -0.0000 0.3766 -0.9264
vn 0.3844 -0.0077 -0.9231
vn 0.5870 0.2886 -0.7564
vn 0.5689 0.6047 -0.5574
vn 0.3568 0.8526 -0.3817
vn -0.4925 0.8661 -0.0852
vn -0.0000 0.9997 0.0229
vn -0.9326 0.3497 0.0889
vn -0.9422 -0.1043 -0.3185
vn -0.5920 -0.5086 -0.6252
vn -0.0000 -0.4998 -0.8662
vn -0.0000 -0.6780 -0.7350
vn 0.5920 -0.5086 -0.6252
vn 0.9422 -0.1043 -0.3185
vn 0.9326 0.3497 0.0889
vn 0.4925 0.8661 -0.0852
vn -0.0000 0.3932 0.9194
vn -0.4864 0.3263 0.8105
vn -0.5221 0.3258 0.7882
vn -0.0000 0.4130 0.9107
vn -0.9018 0.0436 0.4300
vn -0.9264 -0.3751 -0.0341
vn -0.5652 -0.7313 -0.3819
vn -0.0000 -0.8650 -0.5017
vn 0.5652 -0.7313 -0.3819
vn 0.9264 -0.3751 -0.0341
vn 0.9018 0.0436 0.4300
vn 0.4864 0.3263 0.8105
vn 0.5221 0.3258 0.7882
vn -0.4995 0.3220 0.8042
vn -0.0000 0.4252 0.9051
vn -0.8653 -0.0004 0.5012
vn -0.8853 -0.4560 0.0911
vn -0.5314 -0.8174 -0.2225
vn -0.0000 -0.9442 -0.3293
vn 0.5314 -0.8174 -0.2225
vn 0.8853 -0.4560 0.0911
vn 0.8653 -0.0004 0.5012
vn 0.4995 0.3220 0.8042
vn -0.4237 0.1653 0.8906
vn -0.0000 0.2633 0.9647
vn -0.7403 -0.1450 0.6565
vn -0.7498 -0.5756 0.3262
vn -0.4385 -0.8954 0.0779
vn -0.0000 -1.0000 -0.0030
vn 0.4385 -0.8954 0.0779
vn 0.7498 -0.5756 0.3262
vn 0.7403 -0.1450 0.6565
vn 0.4237 0.1653 0.8906
vn -0.3291 -0.0084 0.9442
vn -0.0000 0.0714 0.9974
vn -0.5789 -0.2690 0.7697
vn -0.5789 -0.6313 0.5161
vn -0.3291 -0.8844 0.3309
vn -0.0000 -0.9617 0.2740
vn 0.3291 -0.8844 0.3309
vn 0.5789 -0.6313 0.5161
vn 0.5789 -0.2690 0.7697
vn 0.3291 -0.0084 0.9442
vn -0.0000 -0.5736 0.8192
vn 0.0278 0.3233 -0.9459
vn -0.2319 0.3576 -0.9046
vn -0.2278 0.4166 -0.8801
vn 0.0404 0.3900 -0.9199
vn -0.7645 -0.0927 0.6380
vn -0.4403 -0.2446 0.8639
vn -0.4402 -0.1496 0.8854
vn -0.7520 0.0072 0.6591
vn 0.3810 -0.3895 0.8385
vn 0.4146 -0.3004 0.8590
vn 0.7234 -0.3552 0.5921
vn 0.7471 -0.2572 0.6129
vn 0.2856 0.2663 -0.9206
vn 0.3034 0.3229 -0.8965
vn 0.0531 0.4562 -0.8883
vn -0.7276 0.1231 0.6749
vn -0.0116 -0.2356 0.9718
vn 0.7648 -0.1401 0.6289
vn -0.1736 -0.9254 -0.3368
vn -0.0278 0.3233 -0.9459
vn -0.2856 0.2663 -0.9206
vn -0.3034 0.3229 -0.8965
vn -0.0404 0.3900 -0.9199
vn -0.7234 -0.3552 0.5921
vn -0.3810 -0.3895 0.8385
vn -0.4146 -0.3004 0.8590
vn -0.7472 -0.2572 0.6129
vn 0.4403 -0.2446 0.8639
vn 0.4402 -0.1496 0.8854
vn 0.7645 -0.0927 0.6380
vn 0.7520 0.0072 0.6591
vn 0.2319 0.3576 -0.9046
vn 0.2278 0.4166 -0.8801
vn -0.0531 0.4562 -0.8883
vn -0.7648 -0.1401 0.6289
vn 0.0116 -0.2356 0.9718
vn 0.7276 0.1231 0.6749
vn 0.1736 -0.9254 -0.3368
vt 0.191064 0.969238
vt 0.194141 0.971828
vt 0.187988 0.971828
vt 0.197217 0.969238
vt 0.200293 0.971828
vt 0.203369 0.969238
vt 0.206445 0.971828
vt 0.209521 0.969238
vt 0.212598 0.971828
vt 0.215674 0.969238
vt 0.218750 0.971828
vt 0.221826 0.969238
vt 0.224902 0.971828
vt 0.227979 0.969238
vt 0.231055 0.971828
vt 0.234131 0.969238
vt 0.237207 0.971828
vt 0.240283 0.969238
vt 0.243359 0.971828
vt 0.246436 0.969238
vt 0.249512 0.971828
vt 0.194141 0.977648
vt 0.187988 0.977648
vt 0.200293 0.977648
vt 0.206445 0.977648
vt 0.212598 0.977648
vt 0.218750 0.977648
vt 0.224902 0.977648
vt 0.231055 0.977648
vt 0.237207 0.977648
vt 0.243359 0.977648
vt 0.249512 0.977648
vt 0.194141 0.983417
vt 0.187988 0.983417
vt 0.200293 0.983417
vt 0.206445 0.983417
vt 0.212598 0.983417
vt 0.218750 0.983417
vt 0.224902 0.983417
vt 0.231055 0.983417
vt 0.237207 0.983417
vt 0.243359 0.983417
vt 0.249512 0.983417
vt 0.194141 0.991368
vt 0.187988 0.991368
vt 0.200293 0.991368
vt 0.206445 0.991368
vt 0.212598 0.991368
vt 0.218750 0.991368
vt 0.224902 0.991368
vt 0.231055 0.991368
vt 0.237207 0.991368
vt 0.243359 0.991368
vt 0.249512 0.991368
vt 0.194141 0.998643
vt 0.187988 0.998643
vt 0.200293 0.998643
vt 0.206445 0.998643
vt 0.212598 0.998643
vt 0.218750 0.998643
vt 0.224902 0.998643
vt 0.231055 0.998643
vt 0.237207 0.998643
vt 0.243359 0.998643
vt 0.249512 0.998643
vt 0.194141 0.999512
vt 0.187988 0.999512
vt 0.200293 0.999512
vt 0.206445 0.999512
vt 0.212598 0.999512
vt 0.218750 0.999512
vt 0.224902 0.999512
vt 0.231055 0.999512
vt 0.237207 0.999512
vt 0.243359 0.999512
vt 0.249512 0.999512
vt 0.632812 0.999512
vt 0.628286 0.998113
vt 0.625488 0.994451
vt 0.625488 0.989924
vt 0.628286 0.986262
vt 0.632812 0.984863
vt 0.637339 0.986262
vt 0.640137 0.989924
vt 0.640137 0.994451
vt 0.637339 0.998113
vt 0.609863 0.984863
vt 0.612793 0.984863
vt 0.612793 0.991141
vt 0.609863 0.991141
vt 0.615723 0.984863
vt 0.615723 0.991141
vt 0.618652 0.984863
vt 0.618652 0.991141
vt 0.621582 0.984863
vt 0.621582 0.991141
vt 0.624512 0.984863
vt 0.624512 0.991141
vt 0.611328 0.999512
vt 0.614258 0.999512
vt 0.617188 0.999512
vt 0.620117 0.999512
vt 0.623047 0.999512
vt 0.624512 0.990458
vt 0.621714 0.999512
vt 0.612661 0.999512
vt 0.609863 0.990458
vt 0.617188 0.984863
s 1
usemtl props
f 95/119/105 100/120/106 96/121/107
f 95/122/105 101/123/108 100/120/106
f 95/124/105 103/125/109 101/123/108
f 95/126/105 104/127/110 103/125/109
f 95/128/105 97/129/111 104/127/110
f 95/130/105 105/131/112 97/129/111
f 95/132/105 108/133/113 105/131/112
f 95/134/105 98/135/114 108/133/113
f 95/136/105 99/137/115 98/135/114
f 95/138/105 96/139/107 99/137/115
f 96/121/107 100/120/106 112/140/116 110/141/117
f 100/120/106 101/123/108 102/142/118 112/140/116
f 101/123/108 103/125/109 113/143/119 102/142/118
f 103/125/109 104/127/110 114/144/120 113/143/119
f 104/127/110 97/129/121 106/145/122 114/144/120
f 97/129/121 105/131/112 107/146/123 106/145/122
f 105/131/112 108/133/113 118/147/124 107/146/123
f 108/133/113 98/135/114 119/148/125 118/147/124
f 98/135/114 99/137/115 109/149/126 119/148/125
f 99/137/115 96/139/107 110/150/117 109/149/126
f 110/141/127 112/140/128 111/151/129 122/152/130
f 112/140/128 102/142/118 124/153/131 111/151/129
f 102/142/118 113/143/119 116/154/132 124/153/131
f 113/143/119 114/144/120 115/155/133 116/154/132
f 114/144/120 106/145/122 126/156/134 115/155/133
f 106/145/122 107/146/123 117/157/135 126/156/134
f 107/146/123 118/147/124 120/158/136 117/157/135
f 118/147/124 119/148/125 131/159/137 120/158/136
f 119/148/125 109/149/138 121/160/139 131/159/137
f 109/149/138 110/150/127 122/161/130 121/160/139
f 122/152/130 111/151/129 123/162/140 132/163/141
f 111/151/129 124/153/131 133/164/142 123/162/140
f 124/153/131 116/154/132 125/165/143 133/164/142
f 116/154/132 115/155/133 135/166/144 125/165/143
f 115/155/133 126/156/134 127/167/145 135/166/144
f 126/156/134 117/157/135 128/168/146 127/167/145
f 117/157/135 120/158/136 130/169/147 128/168/146
f 120/158/136 131/159/137 129/170/148 130/169/147
f 131/159/137 121/160/139 139/171/149 129/170/148
f 121/160/139 122/161/130 132/172/141 139/171/149
f 132/163/141 123/162/140 142/173/150 140/174/151
f 123/162/140 133/164/142 134/175/152 142/173/150
f 133/164/142 125/165/143 144/176/153 134/175/152
f 125/165/143 135/166/144 136/177/154 144/176/153
f 135/166/144 127/167/145 147/178/155 136/177/154
f 127/167/145 128/168/146 137/179/156 147/178/155
f 128/168/146 130/169/147 148/180/157 137/179/156
f 130/169/147 129/170/148 138/181/158 148/180/157
f 129/170/148 139/171/149 150/182/159 138/181/158
f 139/171/149 132/172/141 140/183/151 150/182/159
f 140/174/151 142/173/150 143/184/160 141/185/161
f 142/173/150 134/175/152 151/186/162 143/184/160
f 134/175/152 144/176/153 145/187/163 151/186/162
f 144/176/153 136/177/154 146/188/164 145/187/163
f 136/177/154 147/178/155 152/189/165 146/188/164
f 147/178/155 137/179/156 153/190/166 152/189/165
f 137/179/156 148/180/157 154/191/167 153/190/166
f 148/180/157 138/181/158 149/192/168 154/191/167
f 138/181/158 150/182/159 155/193/169 149/192/168
f 150/182/159 140/183/151 141/194/161 155/193/169
s 0
f 141/195/170 143/196/170 151/197/170 145/198/170 146/199/170 152/200/170 153/201/170 154/202/170 149/203/170 155/204/170
s 1
f 166/205/171 156/206/172 162/207/173 161/208/174
f 156/206/175 157/209/176 158/210/177 162/207/178
f 157/209/176 159/211/179 160/212/180 158/210/177
f 159/211/179 165/213/181 163/214/182 160/212/180
f 165/213/183 166/215/171 161/216/174 163/214/184
f 161/208/174 162/207/173 164/217/185
f 162/207/178 158/210/177 164/218/186
f 158/210/177 160/212/180 164/219/187
f 160/212/180 163/214/182 164/220/188
f 163/214/184 161/216/174 164/221/185
s 0
f 165/222/189 159/223/189 157/224/189 156/225/189 166/226/189
s 1
f 167/205/190 168/206/191 174/207/192 173/208/193
f 168/206/194 177/209/195 175/210/196 174/207/197
f 177/209/195 169/211/198 171/212/199 175/210/196
f 169/211/198 172/213/200 170/214/201 171/212/199
f 172/213/202 167/215/190 173/216/193 170/214/203
f 173/208/193 174/207/192 176/217/204
f 174/207/197 175/210/196 176/218/205
f 175/210/196 171/212/199 176/219/206
f 171/212/199 170/214/201 176/220/207
f 170/214/203 173/216/193 176/221/204
s 0
f 172/222/208 169/223/208 177/224/208 168/225/208 167/226/208
o rabbit_jaw
v -0.026847 0.160177 0.129866 0.8274 0.8274 0.8274
v -0.026847 0.148301 0.120703 0.8274 0.8274 0.8274
v -0.000000 0.127170 0.141953 0.8274 0.8274 0.8274
v 0.026847 0.148301 0.120703 0.8274 0.8274 0.8274
v 0.026847 0.160177 0.129866 0.8274 0.8274 0.8274
v 0.017862 0.140531 0.152261 0.8274 0.8274 0.8274
v 0.000000 0.144985 0.155697 0.8274 0.8274 0.8274
v -0.017862 0.140531 0.152261 0.8274 0.8274 0.8274
v -0.017862 0.131624 0.145389 0.9215 0.9215 0.9215
v -0.016238 0.125178 0.169092 0.8902 0.8902 0.8902
v 0.017862 0.131624 0.145389 0.9215 0.9215 0.9215
v -0.000000 0.116271 0.162220 0.9215 0.9215 0.9215
v 0.016238 0.119240 0.164510 0.9529 0.9529 0.9529
v 0.000000 0.128147 0.171382 0.8274 0.8274 0.8274
v 0.016238 0.125178 0.169092 0.8902 0.8902 0.8902
v 0.000000 0.119567 0.170225 0.9529 0.9529 0.9529
v -0.016238 0.119240 0.164510 0.9529 0.9529 0.9529
v -0.000000 0.142363 0.116122 0.8274 0.8274 0.8274
v 0.000000 0.166115 0.134447 0.8274 0.8274 0.8274
vn -0.0000 0.7001 0.7140
vn -0.2792 0.6723 0.6856
vn -0.2718 0.6754 0.6855
vn -0.0000 0.7019 0.7122
vn -0.9572 -0.1767 0.2290
vn -0.9825 -0.1139 0.1476
vn -0.2792 -0.8338 -0.4763
vn -0.0000 -0.8683 -0.4961
vn -0.0000 -0.8670 -0.4982
vn -0.2718 -0.8345 -0.4793
vn 0.2792 -0.8338 -0.4763
vn 0.2718 -0.8345 -0.4793
vn 0.9572 -0.1767 0.2290
vn 0.9825 -0.1139 0.1476
vn 0.2792 0.6723 0.6856
vn 0.2718 0.6754 0.6855
vn -0.2629 0.6791 0.6854
vn -0.0000 0.7038 0.7104
vn -0.9975 -0.0436 0.0565
vn -0.0000 -0.8657 -0.5005
vn -0.2629 -0.8353 -0.4829
vn 0.2629 -0.8353 -0.4829
vn 0.9975 -0.0436 0.0565
vn 0.2629 0.6791 0.6854
vn -0.0000 -0.1337 0.9910
vn -0.2242 -0.4773 0.8496
vn -0.0000 -0.6108 0.7917
vn -0.2242 -0.7007 0.6773
vn -0.0000 -0.9247 0.3808
vn 0.2242 -0.7007 0.6773
vn 0.2242 -0.4773 0.8496
vn -0.0000 0.6108 -0.7917
vt 0.531738 0.984863
vt 0.536784 0.984863
vt 0.536784 0.992536
vt 0.531738 0.992536
vt 0.541829 0.984863
vt 0.541829 0.992536
vt 0.546875 0.984863
vt 0.546875 0.992536
vt 0.551921 0.984863
vt 0.551921 0.992536
vt 0.556966 0.984863
vt 0.556966 0.992536
vt 0.562012 0.984863
vt 0.562012 0.992536
vt 0.536784 0.998396
vt 0.531738 0.998396
vt 0.541829 0.998396
vt 0.546875 0.998396
vt 0.551921 0.998396
vt 0.556966 0.998396
vt 0.562012 0.998396
vt 0.534261 0.999512
vt 0.539307 0.999512
vt 0.544352 0.999512
vt 0.549398 0.999512
vt 0.554443 0.999512
vt 0.559489 0.999512
vt 0.562012 0.988525
vt 0.562012 0.995850
vt 0.546875 0.999512
vt 0.531738 0.995850
vt 0.531738 0.988525
s 1
usemtl props
f 196/227/209 178/228/210 185/229/211 184/230/212
f 178/228/213 179/231/213 186/232/214 185/229/214
f 179/231/215 195/233/216 180/234/217 186/232/218
f 195/233/216 181/235/219 188/236/220 180/234/217
f 181/235/221 182/237/221 183/238/222 188/236/222
f 182/237/223 196/239/209 184/240/212 183/238/224
f 184/230/212 185/229/211 187/241/225 191/242/226
f 185/229/214 186/232/214 194/243/227 187/241/227
f 186/232/218 180/234/217 189/244/228 194/243/229
f 180/234/217 188/236/220 190/245/230 189/244/228
f 188/236/222 183/238/222 192/246/231 190/245/231
f 183/238/224 184/240/212 191/247/226 192/246/232
f 191/242/233 187/241/234 193/248/235
f 187/241/234 194/243/236 193/249/235
f 194/243/236 189/244/237 193/250/235
f 189/244/237 190/245/238 193/251/235
f 190/245/238 192/246/239 193/252/235
f 192/246/239 191/247/233 193/253/235
s 0
f 182/254/240 181/255/240 195/256/240 179/257/240 178/258/240 196/233/240
o rabbit_leg_fl
v 0.022290 0.136172 0.090989 0.8274 0.8274 0.8274
v 0.025576 0.103374 0.059979 0.8392 0.8392 0.8392
v 0.066110 0.139385 0.062071 0.9686 0.9686 0.9686
v 0.062824 0.103374 0.059979 0.9568 0.9568 0.9568
v 0.066110 0.136172 0.090989 0.9804 0.9804 0.9804
v 0.025576 0.100580 0.085125 0.8274 0.8274 0.8274
v 0.032387 0.066976 0.061358 0.8353 0.8353 0.8353
v 0.044200 0.104770 0.047407 0.8431 0.8431 0.8431
v 0.044200 0.067778 0.054143 0.8627 0.8627 0.8627
v 0.062824 0.100580 0.085125 0.9647 0.9647 0.9647
v 0.044200 0.099183 0.097697 0.9255 0.9255 0.9255
v 0.044200 0.064571 0.083005 0.8862 0.8862 0.8862
v 0.056013 0.065373 0.075790 0.9058 0.9058 0.9058
v 0.032387 0.065373 0.075790 0.8274 0.8274 0.8274
v 0.056013 0.066976 0.061358 0.9058 0.9058 0.9058
v 0.044200 0.140992 0.047613 0.8353 0.8353 0.8353
v 0.022290 0.139385 0.062071 0.8353 0.8353 0.8353
v 0.044200 0.134566 0.105447 0.9215 0.9215 0.9215
vn -0.5549 -0.1814 0.8119
vn -0.5455 -0.2495 0.8001
vn -0.5459 -0.2470 0.8006
vn -0.9959 -0.0903 -0.0100
vn -0.9908 -0.1346 -0.0150
vn -0.5549 0.0012 -0.8319
vn -0.5459 -0.0652 -0.8353
vn -0.5455 -0.0678 -0.8354
vn 0.5549 0.0012 -0.8319
vn 0.5455 -0.0678 -0.8354
vn 0.5459 -0.0652 -0.8353
vn 0.9959 -0.0903 -0.0100
vn 0.9908 -0.1346 -0.0150
vn 0.5549 -0.1814 0.8119
vn 0.5459 -0.2470 0.8006
vn 0.5455 -0.2495 0.8001
vn -0.5324 -0.3214 0.7831
vn -0.9826 -0.1847 -0.0205
vn -0.5324 -0.1417 -0.8346
vn 0.5324 -0.1417 -0.8346
vn 0.9826 -0.1847 -0.0205
vn 0.5324 -0.3214 0.7831
vn -0.0000 -0.9939 -0.1104
vn -0.0000 0.9939 0.1104
vt 0.437988 0.969238
vt 0.443034 0.969238
vt 0.443034 0.984375
vt 0.437988 0.984375
vt 0.448079 0.969238
vt 0.448079 0.984375
vt 0.453125 0.969238
vt 0.453125 0.984375
vt 0.458171 0.969238
vt 0.458171 0.984375
vt 0.463216 0.969238
vt 0.463216 0.984375
vt 0.468262 0.969238
vt 0.468262 0.984375
vt 0.443034 0.999512
vt 0.437988 0.999512
vt 0.448079 0.999512
vt 0.453125 0.999512
vt 0.458171 0.999512
vt 0.463216 0.999512
vt 0.468262 0.999512
vt 0.437988 0.991943
vt 0.437988 0.976807
vt 0.468262 0.976807
vt 0.468262 0.991943
s 1
usemtl props
f 214/259/241 197/260/241 202/261/242 207/262/243
f 197/260/244 213/263/244 198/264/245 202/261/245
f 213/263/246 212/265/246 204/266/247 198/264/248
f 212/265/249 199/267/249 200/268/250 204/266/251
f 199/267/252 201/269/252 206/270/253 200/268/253
f 201/269/254 214/271/254 207/272/255 206/270/256
f 207/262/243 202/261/242 210/273/257 208/274/257
f 202/261/245 198/264/245 203/275/258 210/273/258
f 198/264/248 204/266/247 205/276/259 203/275/259
f 204/266/251 200/268/250 211/277/260 205/276/260
f 200/268/253 206/270/253 209/278/261 211/277/261
f 206/270/256 207/272/255 208/279/262 209/278/262
s 0
f 208/276/263 210/280/263 203/281/263 205/265/263 211/282/263 209/283/263
f 201/282/264 199/283/264 212/276/264 213/280/264 197/281/264 214/265/264
o rabbit_shin_fl
v 0.032387 0.073253 0.075532 0.8274 0.8274 0.8274
v 0.032387 0.070920 0.061200 0.8353 0.8353 0.8353
v 0.034674 0.039062 0.067947 0.8706 0.8706 0.8706
v 0.053726 0.039062 0.067947 0.9176 0.9176 0.9176
v 0.056013 0.073253 0.075532 0.8274 0.8274 0.8274
v 0.034674 0.040900 0.079238 0.8862 0.8862 0.8862
v 0.036198 0.014934 0.082351 0.8706 0.8706 0.8706
v 0.044200 0.038143 0.062301 0.8862 0.8862 0.8862
v 0.036198 0.013449 0.073231 0.8627 0.8627 0.8627
v 0.044200 0.012707 0.068671 0.8627 0.8627 0.8627
v 0.052202 0.013449 0.073231 0.8784 0.8784 0.8784
v 0.053726 0.040900 0.079238 0.9333 0.9333 0.9333
v 0.044200 0.041819 0.084884 0.9215 0.9215 0.9215
v 0.052202 0.014934 0.082351 0.8862 0.8862 0.8862
v 0.044200 0.015676 0.086911 0.8274 0.8274 0.8274
v 0.056013 0.070920 0.061200 0.8980 0.8980 0.8980
v 0.044200 0.069753 0.054035 0.8353 0.8353 0.8353
v 0.044200 0.074419 0.082697 0.8274 0.8274 0.8274
vn -0.5181 0.0592 0.8533
vn -0.5126 0.0644 0.8562
vn -0.5127 0.0644 0.8562
vn -0.9975 -0.0692 0.0113
vn -0.9979 -0.0635 0.0103
vn -0.5181 -0.2145 -0.8280
vn -0.5127 -0.2105 -0.8324
vn -0.5126 -0.2105 -0.8324
vn 0.5181 -0.2145 -0.8280
vn 0.5126 -0.2105 -0.8324
vn 0.5127 -0.2105 -0.8324
vn 0.9975 -0.0692 0.0113
vn 0.9979 -0.0635 0.0103
vn 0.5181 0.0592 0.8533
vn 0.5127 0.0644 0.8562
vn 0.5126 0.0644 0.8562
vn -0.5069 0.0699 0.8592
vn -0.9983 -0.0575 0.0094
vn -0.5069 -0.2062 -0.8370
vn 0.5069 -0.2062 -0.8370
vn 0.9983 -0.0575 0.0094
vn 0.5069 0.0699 0.8592
vn -0.0000 -0.9870 0.1607
vn -0.0000 0.9870 -0.1607
vt 0.469238 0.969238
vt 0.474284 0.969238
vt 0.474284 0.986026
vt 0.469238 0.986026
vt 0.479329 0.969238
vt 0.479329 0.986026
vt 0.484375 0.969238
vt 0.484375 0.986026
vt 0.489421 0.969238
vt 0.489421 0.986026
vt 0.494466 0.969238
vt 0.494466 0.986026
vt 0.499512 0.969238
vt 0.499512 0.986026
vt 0.474284 0.999512
vt 0.469238 0.999512
vt 0.479329 0.999512
vt 0.484375 0.999512
vt 0.489421 0.999512
vt 0.494466 0.999512
vt 0.499512 0.999512
vt 0.469238 0.991943
vt 0.469238 0.976807
vt 0.499512 0.976807
vt 0.499512 0.991943
s 1
usemtl props
f 232/284/265 215/285/265 220/286/266 227/287/267
f 215/285/268 216/288/268 217/289/269 220/286/269
f 216/288/270 231/290/270 222/291/271 217/289/272
f 231/290/273 230/292/273 218/293/274 222/291/275
f 230/292/276 219/294/276 226/295/277 218/293/277
f 219/294/278 232/296/278 227/297/279 226/295/280
f 227/287/267 220/286/266 221/298/281 229/299/281
f 220/286/269 217/289/269 223/300/282 221/298/282
f 217/289/272 222/291/271 224/301/283 223/300/283
f 222/291/275 218/293/274 225/302/284 224/301/284
f 218/293/277 226/295/277 228/303/285 225/302/285
f 226/295/280 227/297/279 229/304/286 228/303/286
s 0
f 229/301/287 221/305/287 223/306/287 224/290/287 225/307/287 228/308/287
f 219/307/288 230/308/288 231/301/288 216/305/288 215/306/288 232/290/288
o rabbit_foot_fl
v 0.044200 0.023721 0.082978 0.8274 0.8274 0.8274
v 0.036198 0.020192 0.079996 0.8666 0.8666 0.8666
v 0.036198 0.013135 0.074031 0.8509 0.8509 0.8509
v 0.036998 0.005777 0.083455 0.8274 0.8274 0.8274
v 0.044200 0.009606 0.071049 0.8627 0.8627 0.8627
v 0.044200 0.002601 0.080771 0.8392 0.8392 0.8392
v 0.052202 0.013135 0.074031 0.8627 0.8627 0.8627
v 0.052202 0.020192 0.079996 0.8902 0.8902 0.8902
v 0.044200 0.015304 0.091506 0.9098 0.9098 0.9098
v 0.036998 0.012128 0.088822 0.8862 0.8862 0.8862
v 0.051402 0.005777 0.083455 0.8274 0.8274 0.8274
v 0.051402 0.012128 0.088822 0.8941 0.8941 0.8941
v 0.032757 0.009340 0.090851 0.9058 0.9058 0.9058
v 0.033797 0.005547 0.082146 0.8627 0.8627 0.8627
v 0.032757 0.003113 0.089102 0.8549 0.8549 0.8549
v 0.044200 0.001989 0.081147 0.8509 0.8509 0.8509
v 0.055643 0.003113 0.089102 0.8627 0.8627 0.8627
v 0.054603 0.005547 0.082146 0.8784 0.8784 0.8784
v 0.054603 0.012664 0.084145 0.9176 0.9176 0.9176
v 0.044200 0.012454 0.091726 0.9333 0.9333 0.9333
v 0.055643 0.009340 0.090851 0.9255 0.9255 0.9255
v 0.044200 0.000000 0.088228 0.8313 0.8313 0.8313
v 0.050602 0.002112 0.093522 0.8666 0.8666 0.8666
v 0.044200 0.008116 0.095209 0.9215 0.9215 0.9215
v 0.037798 0.006115 0.094646 0.8980 0.8980 0.8980
v 0.037798 0.002112 0.093522 0.8627 0.8627 0.8627
v 0.044200 0.000110 0.092960 0.8431 0.8431 0.8431
v 0.050602 0.006115 0.094646 0.9058 0.9058 0.9058
v 0.033797 0.012664 0.084145 0.8823 0.8823 0.8823
v 0.044200 0.016222 0.085145 0.8274 0.8274 0.8274
vn -0.4989 0.6168 0.6088
vn -0.9978 -0.0431 0.0510
vn -0.4989 -0.7031 -0.5067
vn 0.4989 -0.7031 -0.5067
vn 0.9978 -0.0431 0.0510
vn 0.4989 0.6168 0.6088
vn -0.0000 -0.6455 0.7638
vn -0.0000 0.6455 -0.7638
vn -0.0000 0.8921 0.4518
vn -0.2972 0.8518 0.4314
vn -0.2773 0.7650 0.5813
vn -0.0000 0.7781 0.6281
vn -0.9901 0.0379 -0.1348
vn -0.3020 -0.9026 -0.3068
vn -0.0000 -0.9468 -0.3218
vn -0.0000 -0.9904 -0.1386
vn -0.2957 -0.9377 -0.1823
vn 0.3020 -0.9026 -0.3068
vn 0.2957 -0.9377 -0.1823
vn 0.9901 0.0379 -0.1348
vn 0.2972 0.8518 0.4314
vn 0.2773 0.7650 0.5813
vn -0.2314 0.5901 0.7735
vn -0.0000 0.6065 0.7951
vn -0.6681 -0.2012 0.7164
vn -0.0000 -0.9983 0.0578
vn -0.2710 -0.9610 0.0557
vn 0.2710 -0.9610 0.0557
vn 0.6681 -0.2012 0.7164
vn 0.2314 0.5901 0.7735
vn -0.0000 -0.2704 0.9627
vn -0.0000 0.2704 -0.9627
vt 0.469238 0.969238
vt 0.474284 0.969238
vt 0.474284 0.999512
vt 0.469238 0.999512
vt 0.479329 0.969238
vt 0.479329 0.999512
vt 0.484375 0.969238
vt 0.484375 0.999512
vt 0.489421 0.969238
vt 0.489421 0.999512
vt 0.494466 0.969238
vt 0.494466 0.999512
vt 0.499512 0.969238
vt 0.499512 0.999512
vt 0.469238 0.991943
vt 0.469238 0.976807
vt 0.499512 0.976807
vt 0.499512 0.991943
vt 0.641113 0.984863
vt 0.643555 0.984863
vt 0.643555 0.993888
vt 0.641113 0.993888
vt 0.645996 0.984863
vt 0.645996 0.993888
vt 0.648438 0.984863
vt 0.648438 0.993888
vt 0.650879 0.984863
vt 0.650879 0.993888
vt 0.653320 0.984863
vt 0.653320 0.993888
vt 0.655762 0.984863
vt 0.655762 0.993888
vt 0.643555 0.999512
vt 0.641113 0.999512
vt 0.645996 0.999512
vt 0.648438 0.999512
vt 0.650879 0.999512
vt 0.653320 0.999512
vt 0.655762 0.999512
vt 0.641113 0.995850
vt 0.641113 0.988525
vt 0.655762 0.988525
vt 0.655762 0.995850
s 1
usemtl props
f 233/309/289 234/310/289 242/311/289 241/312/289
f 234/310/290 235/313/290 236/314/290 242/311/290
f 235/313/291 237/315/291 238/316/291 236/314/291
f 237/315/292 239/317/292 243/318/292 238/316/292
f 239/317/293 240/319/293 244/320/293 243/318/293
f 240/319/294 233/321/294 241/322/294 244/320/294
s 0
f 241/316/295 242/323/295 236/324/295 238/315/295 243/325/295 244/326/295
f 240/325/296 239/326/296 237/316/296 235/323/296 234/324/296 233/315/296
s 1
f 262/327/297 261/328/298 245/329/299 252/330/300
f 261/328/301 246/331/301 247/332/301 245/329/301
f 246/331/302 248/333/303 254/334/304 247/332/305
f 248/333/303 250/335/306 249/336/307 254/334/304
f 250/335/308 251/337/308 253/338/308 249/336/308
f 251/337/309 262/339/297 252/340/300 253/338/310
f 252/330/300 245/329/299 257/341/311 256/342/312
f 245/329/313 247/332/313 258/343/313 257/341/313
f 247/332/305 254/334/304 259/344/314 258/343/315
f 254/334/304 249/336/307 255/345/316 259/344/314
f 249/336/317 253/338/317 260/346/317 255/345/317
f 253/338/310 252/340/300 256/347/312 260/346/318
s 0
f 256/344/319 257/348/319 258/349/319 259/333/319 255/350/319 260/351/319
f 251/350/320 250/351/320 248/344/320 246/348/320 261/349/320 262/333/320
o rabbit_leg_bl
v 0.016921 0.199981 -0.074086 0.8353 0.8353 0.8353
v 0.021208 0.156397 -0.040619 0.8313 0.8313 0.8313
v 0.021208 0.135140 -0.065861 0.8313 0.8313 0.8313
v 0.074079 0.175536 -0.103114 0.9960 0.9960 0.9960
v 0.033687 0.099102 -0.023433 0.8274 0.8274 0.8274
v 0.045500 0.124512 -0.078482 0.8274 0.8274 0.8274
v 0.057313 0.099102 -0.023433 0.9215 0.9215 0.9215
v 0.045500 0.094426 -0.028987 0.8274 0.8274 0.8274
v 0.069792 0.135140 -0.065861 0.9921 0.9921 0.9921
v 0.069792 0.156397 -0.040619 0.9921 0.9921 0.9921
v 0.045500 0.167025 -0.027998 0.8313 0.8313 0.8313
v 0.045500 0.113131 -0.006773 0.8274 0.8274 0.8274
v 0.033687 0.108455 -0.012327 0.8274 0.8274 0.8274
v 0.057313 0.108455 -0.012327 0.9137 0.9137 0.9137
v 0.074079 0.199981 -0.074086 0.9960 0.9960 0.9960
v 0.045500 0.163314 -0.117628 0.9843 0.9843 0.9843
v 0.016921 0.175536 -0.103114 0.8902 0.8902 0.8902
v 0.045500 0.212204 -0.059572 0.9804 0.9804 0.9804
vn -0.5555 0.4739 0.6833
vn -0.5458 0.4006 0.7359
vn -0.5463 0.4034 0.7341
vn -0.9970 -0.0596 0.0501
vn -0.9894 -0.1111 0.0935
vn -0.5555 -0.5927 -0.5832
vn -0.5463 -0.6547 -0.5224
vn -0.5458 -0.6570 -0.5200
vn 0.5555 -0.5927 -0.5832
vn 0.5458 -0.6570 -0.5200
vn 0.5463 -0.6547 -0.5224
vn 0.9970 -0.0596 0.0501
vn 0.9894 -0.1111 0.0935
vn 0.5555 0.4739 0.6833
vn 0.5463 0.4034 0.7341
vn 0.5458 0.4006 0.7359
vn -0.5303 0.3173 0.7862
vn -0.9751 -0.1696 0.1428
vn -0.5303 -0.7207 -0.4465
vn 0.5303 -0.7207 -0.4465
vn 0.9751 -0.1696 0.1428
vn 0.5303 0.3173 0.7862
vn -0.0000 -0.7649 0.6441
vn -0.0000 0.7649 -0.6441
vt 0.437988 0.969238
vt 0.443034 0.969238
vt 0.443034 0.984375
vt 0.437988 0.984375
vt 0.448079 0.969238
vt 0.448079 0.984375
vt 0.453125 0.969238
vt 0.453125 0.984375
vt 0.458171 0.969238
vt 0.458171 0.984375
vt 0.463216 0.969238
vt 0.463216 0.984375
vt 0.468262 0.969238
vt 0.468262 0.984375
vt 0.443034 0.999512
vt 0.437988 0.999512
vt 0.448079 0.999512
vt 0.453125 0.999512
vt 0.458171 0.999512
vt 0.463216 0.999512
vt 0.468262 0.999512
vt 0.437988 0.991943
vt 0.437988 0.976807
vt 0.468262 0.976807
vt 0.468262 0.991943
s 1
usemtl props
f 280/352/321 263/353/321 264/354/322 273/355/323
f 263/353/324 279/356/324 265/357/325 264/354/325
f 279/356/326 278/358/326 268/359/327 265/357/328
f 278/358/329 266/360/329 271/361/330 268/359/331
f 266/360/332 277/362/332 272/363/333 271/361/333
f 277/362/334 280/364/334 273/365/335 272/363/336
f 273/355/323 264/354/322 275/366/337 274/367/337
f 264/354/325 265/357/325 267/368/338 275/366/338
f 265/357/328 268/359/327 270/369/339 267/368/339
f 268/359/331 271/361/330 269/370/340 270/369/340
f 271/361/333 272/363/333 276/371/341 269/370/341
f 272/363/336 273/365/335 274/372/342 276/371/342
s 0
f 274/369/343 275/373/343 267/374/343 270/358/343 269/375/343 276/376/343
f 277/375/344 266/376/344 278/369/344 279/373/344 263/374/344 280/358/344
o rabbit_shin_bl
v 0.033687 0.106875 -0.010264 0.8274 0.8274 0.8274
v 0.033687 0.117342 -0.020328 0.8274 0.8274 0.8274
v 0.057313 0.106875 -0.010264 0.9333 0.9333 0.9333
v 0.055026 0.064382 -0.073185 0.9607 0.9607 0.9607
v 0.055026 0.056135 -0.065255 0.9215 0.9215 0.9215
v 0.035974 0.056135 -0.065255 0.8784 0.8784 0.8784
v 0.037498 0.015278 -0.109334 0.8627 0.8627 0.8627
v 0.035974 0.064382 -0.073185 0.9058 0.9058 0.9058
v 0.045500 0.068505 -0.077149 0.9411 0.9411 0.9411
v 0.045500 0.025269 -0.118940 0.9333 0.9333 0.9333
v 0.053502 0.015278 -0.109334 0.8745 0.8745 0.8745
v 0.045500 0.052012 -0.061291 0.8706 0.8706 0.8706
v 0.045500 0.011948 -0.106132 0.8274 0.8274 0.8274
v 0.037498 0.021939 -0.115738 0.9058 0.9058 0.9058
v 0.053502 0.021939 -0.115738 0.9215 0.9215 0.9215
v 0.057313 0.117342 -0.020328 0.8274 0.8274 0.8274
v 0.045500 0.122575 -0.025360 0.8274 0.8274 0.8274
v 0.045500 0.101642 -0.005232 0.8274 0.8274 0.8274
vn -0.5194 -0.6393 0.5671
vn -0.5137 -0.6404 0.5710
vn -0.5137 -0.6403 0.5710
vn -0.9995 -0.0212 -0.0220
vn -0.9996 -0.0194 -0.0202
vn -0.5194 0.5917 -0.6165
vn -0.5137 0.5957 -0.6175
vn 0.5194 0.5917 -0.6165
vn 0.5137 0.5957 -0.6175
vn 0.9995 -0.0212 -0.0220
vn 0.9996 -0.0194 -0.0202
vn 0.5194 -0.6393 0.5671
vn 0.5137 -0.6403 0.5710
vn 0.5137 -0.6404 0.5710
vn -0.5079 -0.6414 0.5750
vn -0.9997 -0.0176 -0.0183
vn -0.5079 0.5997 -0.6184
vn 0.5079 0.5997 -0.6184
vn 0.9997 -0.0176 -0.0183
vn 0.5079 -0.6414 0.5750
vn -0.0000 -0.6931 -0.7208
vn -0.0000 0.6931 0.7208
vt 0.469238 0.969238
vt 0.474284 0.969238
vt 0.474284 0.986026
vt 0.469238 0.986026
vt 0.479329 0.969238
vt 0.479329 0.986026
vt 0.484375 0.969238
vt 0.484375 0.986026
vt 0.489421 0.969238
vt 0.489421 0.986026
vt 0.494466 0.969238
vt 0.494466 0.986026
vt 0.499512 0.969238
vt 0.499512 0.986026
vt 0.474284 0.999512
vt 0.469238 0.999512
vt 0.479329 0.999512
vt 0.484375 0.999512
vt 0.489421 0.999512
vt 0.494466 0.999512
vt 0.499512 0.999512
vt 0.469238 0.991943
vt 0.469238 0.976807
vt 0.499512 0.976807
vt 0.499512 0.991943
s 1
usemtl props
f 298/377/345 281/378/345 286/379/346 292/380/347
f 281/378/348 282/381/348 288/382/349 286/379/349
f 282/381/350 297/383/350 289/384/351 288/382/351
f 297/383/352 296/385/352 284/386/353 289/384/353
f 296/385/354 283/387/354 285/388/355 284/386/355
f 283/387/356 298/389/356 292/390/357 285/388/358
f 292/380/347 286/379/346 287/391/359 293/392/359
f 286/379/349 288/382/349 294/393/360 287/391/360
f 288/382/351 289/384/351 290/394/361 294/393/361
f 289/384/353 284/386/353 295/395/362 290/394/362
f 284/386/355 285/388/355 291/396/363 295/395/363
f 285/388/358 292/390/357 293/397/364 291/396/364
s 0
f 293/394/365 287/398/365 294/399/365 290/383/365 295/400/365 291/401/365
f 283/400/366 296/401/366 297/394/366 282/398/366 281/399/366 298/383/366
o rabbit_foot_bl
v 0.037498 0.018557 -0.112227 0.8549 0.8549 0.8549
v 0.045500 0.004678 -0.096279 0.8392 0.8392 0.8392
v 0.052702 0.008243 -0.094139 0.8274 0.8274 0.8274
v 0.053502 0.026480 -0.107473 0.8980 0.8980 0.8980
v 0.045500 0.030442 -0.105096 0.8274 0.8274 0.8274
v 0.045500 0.018939 -0.087721 0.8745 0.8745 0.8745
v 0.052702 0.015374 -0.089861 0.8274 0.8274 0.8274
v 0.038298 0.015374 -0.089861 0.8274 0.8274 0.8274
v 0.038298 0.008243 -0.094139 0.8274 0.8274 0.8274
v 0.053502 0.018557 -0.112227 0.8666 0.8666 0.8666
v 0.045500 0.014595 -0.114604 0.8745 0.8745 0.8745
v 0.037498 0.026480 -0.107473 0.8706 0.8706 0.8706
v 0.032697 0.015713 -0.099643 0.8941 0.8941 0.8941
v 0.031416 0.011566 -0.042249 0.8902 0.8902 0.8902
v 0.031416 0.005105 -0.042560 0.8509 0.8509 0.8509
v 0.058303 0.008329 -0.099997 0.8784 0.8784 0.8784
v 0.039098 0.007789 -0.006989 0.8823 0.8823 0.8823
v 0.045500 0.001875 -0.042715 0.8274 0.8274 0.8274
v 0.045500 0.001560 -0.007288 0.8392 0.8392 0.8392
v 0.059584 0.005105 -0.042560 0.8666 0.8666 0.8666
v 0.059584 0.011566 -0.042249 0.9255 0.9255 0.9255
v 0.051902 0.003636 -0.007189 0.8706 0.8706 0.8706
v 0.045500 0.014796 -0.042094 0.9098 0.9098 0.9098
v 0.045500 0.009866 -0.006889 0.8980 0.8980 0.8980
v 0.051902 0.007789 -0.006989 0.9019 0.9019 0.9019
v 0.039098 0.003636 -0.007189 0.8549 0.8549 0.8549
v 0.058303 0.015713 -0.099643 0.9176 0.9176 0.9176
v 0.045500 0.004638 -0.100175 0.8509 0.8509 0.8509
v 0.032697 0.008329 -0.099997 0.8745 0.8745 0.8745
v 0.045500 0.019405 -0.099465 0.8274 0.8274 0.8274
vn -0.4996 0.7223 0.4782
vn -0.9993 -0.0198 0.0329
vn -0.4996 -0.7618 -0.4123
vn 0.4996 -0.7618 -0.4123
vn 0.9993 -0.0198 0.0329
vn 0.4996 0.7223 0.4782
vn -0.0000 -0.5145 0.8575
vn -0.0000 0.5145 -0.8575
vn -0.0000 0.9973 0.0732
vn -0.2495 0.9658 0.0709
vn -0.2498 0.9625 0.1061
vn -0.0000 0.9938 0.1115
vn -0.9998 0.0011 -0.0222
vn -0.9954 -0.0046 0.0955
vn -0.9957 -0.0044 0.0924
vn -0.2496 -0.9669 -0.0532
vn -0.0000 -0.9985 -0.0549
vn -0.0000 -0.9997 -0.0261
vn -0.2502 -0.9678 -0.0270
vn 0.2496 -0.9669 -0.0532
vn 0.2502 -0.9678 -0.0270
vn 0.9998 0.0011 -0.0222
vn 0.9957 -0.0044 0.0924
vn 0.9954 -0.0046 0.0955
vn 0.2495 0.9658 0.0709
vn 0.2498 0.9625 0.1061
vn -0.2498 0.9573 0.1455
vn -0.0000 0.9886 0.1503
vn -0.9773 -0.0102 0.2118
vn -0.0000 -1.0000 0.0029
vn -0.2507 -0.9680 0.0028
vn 0.2507 -0.9680 0.0028
vn 0.9773 -0.0102 0.2118
vn 0.2498 0.9573 0.1455
vn -0.0000 -0.0480 0.9988
vn -0.0000 0.0480 -0.9988
vt 0.469238 0.969238
vt 0.474284 0.969238
vt 0.474284 0.999512
vt 0.469238 0.999512
vt 0.479329 0.969238
vt 0.479329 0.999512
vt 0.484375 0.969238
vt 0.484375 0.999512
vt 0.489421 0.969238
vt 0.489421 0.999512
vt 0.494466 0.969238
vt 0.494466 0.999512
vt 0.499512 0.969238
vt 0.499512 0.999512
vt 0.469238 0.991943
vt 0.469238 0.976807
vt 0.499512 0.976807
vt 0.499512 0.991943
vt 0.641113 0.984863
vt 0.643555 0.984863
vt 0.643555 0.993931
vt 0.641113 0.993931
vt 0.645996 0.984863
vt 0.645996 0.993931
vt 0.648438 0.984863
vt 0.648438 0.993931
vt 0.650879 0.984863
vt 0.650879 0.993931
vt 0.653320 0.984863
vt 0.653320 0.993931
vt 0.655762 0.984863
vt 0.655762 0.993931
vt 0.643555 0.999512
vt 0.641113 0.999512
vt 0.645996 0.999512
vt 0.648438 0.999512
vt 0.650879 0.999512
vt 0.653320 0.999512
vt 0.655762 0.999512
vt 0.641113 0.995850
vt 0.641113 0.988525
vt 0.655762 0.988525
vt 0.655762 0.995850
s 1
usemtl props
f 303/402/367 310/403/367 306/404/367 304/405/367
f 310/403/368 299/406/368 307/407/368 306/404/368
f 299/406/369 309/408/369 300/409/369 307/407/369
f 309/408/370 308/410/370 301/411/370 300/409/370
f 308/410/371 302/412/371 305/413/371 301/411/371
f 302/412/372 303/414/372 304/415/372 305/413/372
s 0
f 304/409/373 306/416/373 307/417/373 300/408/373 301/418/373 305/419/373
f 302/418/374 308/419/374 309/409/374 299/416/374 310/417/374 303/408/374
s 1
f 328/420/375 311/421/376 312/422/377 321/423/378
f 311/421/379 327/424/379 313/425/380 312/422/381
f 327/424/382 326/426/383 316/427/384 313/425/385
f 326/426/383 314/428/386 318/429/387 316/427/384
f 314/428/388 325/430/388 319/431/389 318/429/390
f 325/430/391 328/432/375 321/433/378 319/431/392
f 321/423/378 312/422/377 315/434/393 322/435/394
f 312/422/381 313/425/380 324/436/395 315/434/395
f 313/425/385 316/427/384 317/437/396 324/436/397
f 316/427/384 318/429/387 320/438/398 317/437/396
f 318/429/390 319/431/389 323/439/399 320/438/399
f 319/431/392 321/433/378 322/440/394 323/439/400
s 0
f 322/437/401 315/441/401 324/442/401 317/426/401 320/443/401 323/444/401
f 325/443/402 314/444/402 326/437/402 327/441/402 311/442/402 328/426/402
o rabbit_leg_fr
v -0.066110 0.136172 0.090989 0.9764 0.9764 0.9764
v -0.062824 0.103374 0.059979 0.9568 0.9568 0.9568
v -0.022290 0.139385 0.062071 0.8313 0.8313 0.8313
v -0.025576 0.103374 0.059979 0.8392 0.8392 0.8392
v -0.022290 0.136172 0.090989 0.8274 0.8274 0.8274
v -0.062824 0.100580 0.085125 0.9686 0.9686 0.9686
v -0.056013 0.066976 0.061358 0.9058 0.9058 0.9058
v -0.044200 0.104770 0.047407 0.8392 0.8392 0.8392
v -0.044200 0.067778 0.054143 0.8627 0.8627 0.8627
v -0.025576 0.100580 0.085125 0.8274 0.8274 0.8274
v -0.044200 0.099183 0.097697 0.9294 0.9294 0.9294
v -0.044200 0.064571 0.083005 0.8862 0.8862 0.8862
v -0.032387 0.065373 0.075790 0.8274 0.8274 0.8274
v -0.056013 0.065373 0.075790 0.9058 0.9058 0.9058
v -0.032387 0.066976 0.061358 0.8353 0.8353 0.8353
v -0.044200 0.140992 0.047613 0.8353 0.8353 0.8353
v -0.066110 0.139385 0.062071 0.9686 0.9686 0.9686
v -0.044200 0.134566 0.105447 0.9255 0.9255 0.9255
vn -0.5549 -0.1814 0.8119
vn -0.5455 -0.2495 0.8001
vn -0.5459 -0.2470 0.8006
vn -0.9959 -0.0903 -0.0100
vn -0.9908 -0.1346 -0.0150
vn -0.5549 0.0012 -0.8319
vn -0.5459 -0.0652 -0.8353
vn -0.5455 -0.0678 -0.8354
vn 0.5549 0.0012 -0.8319
vn 0.5455 -0.0678 -0.8354
vn 0.5459 -0.0652 -0.8353
vn 0.9959 -0.0903 -0.0100
vn 0.9908 -0.1346 -0.0150
vn 0.5549 -0.1814 0.8119
vn 0.5459 -0.2470 0.8006
vn 0.5455 -0.2495 0.8001
vn -0.5324 -0.3214 0.7831
vn -0.9826 -0.1847 -0.0205
vn -0.5324 -0.1417 -0.8346
vn 0.5324 -0.1417 -0.8346
vn 0.9826 -0.1847 -0.0205
vn 0.5324 -0.3214 0.7831
vn -0.0000 -0.9939 -0.1104
vn -0.0000 0.9939 0.1104
vt 0.437988 0.969238
vt 0.443034 0.969238
vt 0.443034 0.984375
vt 0.437988 0.984375
vt 0.448079 0.969238
vt 0.448079 0.984375
vt 0.453125 0.969238
vt 0.453125 0.984375
vt 0.458171 0.969238
vt 0.458171 0.984375
vt 0.463216 0.969238
vt 0.463216 0.984375
vt 0.468262 0.969238
vt 0.468262 0.984375
vt 0.443034 0.999512
vt 0.437988 0.999512
vt 0.448079 0.999512
vt 0.453125 0.999512
vt 0.458171 0.999512
vt 0.463216 0.999512
vt 0.468262 0.999512
vt 0.437988 0.991943
vt 0.437988 0.976807
vt 0.468262 0.976807
vt 0.468262 0.991943
s 1
usemtl props
f 346/445/403 329/446/403 334/447/404 339/448/405
f 329/446/406 345/449/406 330/450/407 334/447/407
f 345/449/408 344/451/408 336/452/409 330/450/410
f 344/451/411 331/453/411 332/454/412 336/452/413
f 331/453/414 333/455/414 338/456/415 332/454/415
f 333/455/416 346/457/416 339/458/417 338/456/418
f 339/448/405 334/447/404 342/459/419 340/460/419
f 334/447/407 330/450/407 335/461/420 342/459/420
f 330/450/410 336/452/409 337/462/421 335/461/421
f 336/452/413 332/454/412 343/463/422 337/462/422
f 332/454/415 338/456/415 341/464/423 343/463/423
f 338/456/418 339/458/417 340/465/424 341/464/424
s 0
f 340/462/425 342/466/425 335/467/425 337/451/425 343/468/425 341/469/425
f 333/468/426 331/469/426 344/462/426 345/466/426 329/467/426 346/451/426
o rabbit_shin_fr
v -0.056013 0.073253 0.075532 0.8274 0.8274 0.8274
v -0.056013 0.070920 0.061200 0.9019 0.9019 0.9019
v -0.053726 0.039062 0.067947 0.9137 0.9137 0.9137
v -0.034674 0.039062 0.067947 0.8706 0.8706 0.8706
v -0.032387 0.073253 0.075532 0.8274 0.8274 0.8274
v -0.053726 0.040900 0.079238 0.9333 0.9333 0.9333
v -0.052202 0.014934 0.082351 0.8862 0.8862 0.8862
v -0.044200 0.038143 0.062301 0.8862 0.8862 0.8862
v -0.052202 0.013449 0.073231 0.8784 0.8784 0.8784
v -0.044200 0.012707 0.068671 0.8627 0.8627 0.8627
v -0.036198 0.013449 0.073231 0.8627 0.8627 0.8627
v -0.034674 0.040900 0.079238 0.8941 0.8941 0.8941
v -0.044200 0.041819 0.084884 0.9215 0.9215 0.9215
v -0.036198 0.014934 0.082351 0.8706 0.8706 0.8706
v -0.044200 0.015676 0.086911 0.8274 0.8274 0.8274
v -0.032387 0.070920 0.061200 0.8313 0.8313 0.8313
v -0.044200 0.069753 0.054035 0.8549 0.8549 0.8549
v -0.044200 0.074419 0.082697 0.8274 0.8274 0.8274
vn -0.5181 0.0592 0.8533
vn -0.5126 0.0644 0.8562
vn -0.5127 0.0644 0.8562
vn -0.9975 -0.0692 0.0113
vn -0.9979 -0.0635 0.0103
vn -0.5181 -0.2145 -0.8280
vn -0.5127 -0.2105 -0.8324
vn -0.5126 -0.2105 -0.8324
vn 0.5181 -0.2145 -0.8280
vn 0.5126 -0.2105 -0.8324
vn 0.5127 -0.2105 -0.8324
vn 0.9975 -0.0692 0.0113
vn 0.9979 -0.0635 0.0103
vn 0.5181 0.0592 0.8533
vn 0.5127 0.0644 0.8562
vn 0.5126 0.0644 0.8562
vn -0.5069 0.0699 0.8592
vn -0.9983 -0.0575 0.0094
vn -0.5069 -0.2062 -0.8370
vn 0.5069 -0.2062 -0.8370
vn 0.9983 -0.0575 0.0094
vn 0.5069 0.0699 0.8592
vn -0.0000 -0.9870 0.1607
vn -0.0000 0.9870 -0.1607
vt 0.469238 0.969238
vt 0.474284 0.969238
vt 0.474284 0.986026
vt 0.469238 0.986026
vt 0.479329 0.969238
vt 0.479329 0.986026
vt 0.484375 0.969238
vt 0.484375 0.986026
vt 0.489421 0.969238
vt 0.489421 0.986026
vt 0.494466 0.969238
vt 0.494466 0.986026
vt 0.499512 0.969238
vt 0.499512 0.986026
vt 0.474284 0.999512
vt 0.469238 0.999512
vt 0.479329 0.999512
vt 0.484375 0.999512
vt 0.489421 0.999512
vt 0.494466 0.999512
vt 0.499512 0.999512
vt 0.469238 0.991943
vt 0.469238 0.976807
vt 0.499512 0.976807
vt 0.499512 0.991943
s 1
usemtl props
f 364/470/427 347/471/427 352/472/428 359/473/429
f 347/471/430 348/474/430 349/475/431 352/472/431
f 348/474/432 363/476/432 354/477/433 349/475/434
f 363/476/435 362/478/435 350/479/436 354/477/437
f 362/478/438 351/480/438 358/481/439 350/479/439
f 351/480/440 364/482/440 359/483/441 358/481/442
f 359/473/429 352/472/428 353/484/443 361/485/443
f 352/472/431 349/475/431 355/486/444 353/484/444
f 349/475/434 354/477/433 356/487/445 355/486/445
f 354/477/437 350/479/436 357/488/446 356/487/446
f 350/479/439 358/481/439 360/489/447 357/488/447
f 358/481/442 359/483/441 361/490/448 360/489/448
s 0
f 361/487/449 353/491/449 355/492/449 356/476/449 357/493/449 360/494/449
f 351/493/450 362/494/450 363/487/450 348/491/450 347/492/450 364/476/450
o rabbit_foot_fr
v -0.044200 0.023721 0.082978 0.8274 0.8274 0.8274
v -0.052202 0.020192 0.079996 0.8902 0.8902 0.8902
v -0.052202 0.013135 0.074031 0.8627 0.8627 0.8627
v -0.051402 0.005777 0.083455 0.8274 0.8274 0.8274
v -0.044200 0.009606 0.071049 0.8666 0.8666 0.8666
v -0.044200 0.002601 0.080771 0.8392 0.8392 0.8392
v -0.036198 0.013135 0.074031 0.8509 0.8509 0.8509
v -0.036198 0.020192 0.079996 0.8627 0.8627 0.8627
v -0.044200 0.015304 0.091506 0.9137 0.9137 0.9137
v -0.051402 0.012128 0.088822 0.9058 0.9058 0.9058
v -0.036998 0.005777 0.083455 0.8274 0.8274 0.8274
v -0.036998 0.012128 0.088822 0.8745 0.8745 0.8745
v -0.055643 0.009340 0.090851 0.9294 0.9294 0.9294
v -0.054603 0.005547 0.082146 0.8823 0.8823 0.8823
v -0.055643 0.003114 0.089102 0.8627 0.8627 0.8627
v -0.044200 0.001989 0.081147 0.8549 0.8549 0.8549
v -0.032757 0.003114 0.089102 0.8549 0.8549 0.8549
v -0.033797 0.005547 0.082146 0.8627 0.8627 0.8627
v -0.033797 0.012664 0.084145 0.8862 0.8862 0.8862
v -0.044200 0.012454 0.091726 0.9372 0.9372 0.9372
v -0.032757 0.009340 0.090851 0.9058 0.9058 0.9058
v -0.044200 0.000000 0.088228 0.8313 0.8313 0.8313
v -0.037798 0.002112 0.093522 0.8627 0.8627 0.8627
v -0.044200 0.008116 0.095209 0.9215 0.9215 0.9215
v -0.050602 0.006115 0.094646 0.9019 0.9019 0.9019
v -0.050602 0.002112 0.093522 0.8627 0.8627 0.8627
v -0.044200 0.000110 0.092960 0.8431 0.8431 0.8431
v -0.037798 0.006115 0.094646 0.8980 0.8980 0.8980
v -0.054603 0.012664 0.084145 0.9176 0.9176 0.9176
v -0.044200 0.016222 0.085145 0.8274 0.8274 0.8274
vn -0.4989 0.6168 0.6088
vn -0.9978 -0.0431 0.0510
vn -0.4989 -0.7031 -0.5067
vn 0.4989 -0.7031 -0.5067
vn 0.9978 -0.0431 0.0510
vn 0.4989 0.6168 0.6088
vn -0.0000 -0.6455 0.7638
vn -0.0000 0.6455 -0.7638
vn -0.0000 0.8921 0.4518
vn -0.2972 0.8518 0.4314
vn -0.2773 0.7650 0.5813
vn -0.0000 0.7781 0.6281
vn -0.9901 0.0379 -0.1348
vn -0.3020 -0.9026 -0.3068
vn -0.0000 -0.9468 -0.3218
vn -0.0000 -0.9904 -0.1386
vn -0.2957 -0.9377 -0.1823
vn 0.3020 -0.9026 -0.3068
vn 0.2957 -0.9377 -0.1823
vn 0.9901 0.0379 -0.1348
vn 0.2972 0.8518 0.4314
vn 0.2773 0.7650 0.5813
vn -0.2314 0.5901 0.7735
vn -0.0000 0.6065 0.7951
vn -0.6681 -0.2012 0.7164
vn -0.0000 -0.9983 0.0578
vn -0.2710 -0.9610 0.0557
vn 0.2710 -0.9610 0.0557
vn 0.6681 -0.2012 0.7164
vn 0.2314 0.5901 0.7735
vn -0.0000 -0.2704 0.9627
vn -0.0000 0.2704 -0.9627
vt 0.469238 0.969238
vt 0.474284 0.969238
vt 0.474284 0.999512
vt 0.469238 0.999512
vt 0.479329 0.969238
vt 0.479329 0.999512
vt 0.484375 0.969238
vt 0.484375 0.999512
vt 0.489421 0.969238
vt 0.489421 0.999512
vt 0.494466 0.969238
vt 0.494466 0.999512
vt 0.499512 0.969238
vt 0.499512 0.999512
vt 0.469238 0.991943
vt 0.469238 0.976807
vt 0.499512 0.976807
vt 0.499512 0.991943
vt 0.641113 0.984863
vt 0.643555 0.984863
vt 0.643555 0.993888
vt 0.641113 0.993888
vt 0.645996 0.984863
vt 0.645996 0.993888
vt 0.648438 0.984863
vt 0.648438 0.993888
vt 0.650879 0.984863
vt 0.650879 0.993888
vt 0.653320 0.984863
vt 0.653320 0.993888
vt 0.655762 0.984863
vt 0.655762 0.993888
vt 0.643555 0.999512
vt 0.641113 0.999512
vt 0.645996 0.999512
vt 0.648438 0.999512
vt 0.650879 0.999512
vt 0.653320 0.999512
vt 0.655762 0.999512
vt 0.641113 0.995850
vt 0.641113 0.988525
vt 0.655762 0.988525
vt 0.655762 0.995850
s 1
usemtl props
f 365/495/451 366/496/451 374/497/451 373/498/451
f 366/496/452 367/499/452 368/500/452 374/497/452
f 367/499/453 369/501/453 370/502/453 368/500/453
f 369/501/454 371/503/454 375/504/454 370/502/454
f 371/503/455 372/505/455 376/506/455 375/504/455
f 372/505/456 365/507/456 373/508/456 376/506/456
s 0
f 373/502/457 374/509/457 368/510/457 370/501/457 375/511/457 376/512/457
f 372/511/458 371/512/458 369/502/458 367/509/458 366/510/458 365/501/458
s 1
f 394/513/459 393/514/460 377/515/461 384/516/462
f 393/514/463 378/517/463 379/518/463 377/515/463
f 378/517/464 380/519/465 386/520/466 379/518/467
f 380/519/465 382/521/468 381/522/469 386/520/466
f 382/521/470 383/523/470 385/524/470 381/522/470
f 383/523/471 394/525/459 384/526/462 385/524/472
f 384/516/462 377/515/461 389/527/473 388/528/474
f 377/515/475 379/518/475 390/529/475 389/527/475
f 379/518/467 386/520/466 391/530/476 390/529/477
f 386/520/466 381/522/469 387/531/478 391/530/476
f 381/522/479 385/524/479 392/532/479 387/531/479
f 385/524/472 384/526/462 388/533/474 392/532/480
s 0
f 388/530/481 389/534/481 390/535/481 391/519/481 387/536/481 392/537/481
f 383/536/482 382/537/482 380/530/482 378/534/482 393/535/482 394/519/482
o rabbit_leg_br
v -0.074079 0.199981 -0.074086 0.9960 0.9960 0.9960
v -0.069792 0.156397 -0.040619 0.9882 0.9882 0.9882
v -0.069792 0.135140 -0.065861 0.9921 0.9921 0.9921
v -0.016921 0.175536 -0.103114 0.8902 0.8902 0.8902
v -0.057313 0.099102 -0.023433 0.9215 0.9215 0.9215
v -0.045500 0.124512 -0.078482 0.8274 0.8274 0.8274
v -0.033687 0.099102 -0.023433 0.8274 0.8274 0.8274
v -0.045500 0.094426 -0.028987 0.8274 0.8274 0.8274
v -0.021208 0.135140 -0.065861 0.8313 0.8313 0.8313
v -0.021208 0.156397 -0.040619 0.8313 0.8313 0.8313
v -0.045500 0.167025 -0.027998 0.8313 0.8313 0.8313
v -0.045500 0.113131 -0.006773 0.8274 0.8274 0.8274
v -0.057313 0.108455 -0.012327 0.9176 0.9176 0.9176
v -0.033687 0.108455 -0.012327 0.8274 0.8274 0.8274
v -0.016921 0.199981 -0.074086 0.8313 0.8313 0.8313
v -0.045500 0.163314 -0.117628 0.9843 0.9843 0.9843
v -0.074079 0.175536 -0.103114 0.9960 0.9960 0.9960
v -0.045500 0.212204 -0.059572 0.9804 0.9804 0.9804
vn -0.5555 0.4739 0.6833
vn -0.5458 0.4006 0.7359
vn -0.5463 0.4034 0.7341
vn -0.9970 -0.0596 0.0501
vn -0.9894 -0.1111 0.0935
vn -0.5555 -0.5927 -0.5832
vn -0.5463 -0.6547 -0.5224
vn -0.5458 -0.6570 -0.5200
vn 0.5555 -0.5927 -0.5832
vn 0.5458 -0.6570 -0.5200
vn 0.5463 -0.6547 -0.5224
vn 0.9970 -0.0596 0.0501
vn 0.9894 -0.1111 0.0935
vn 0.5555 0.4739 0.6833
vn 0.5463 0.4034 0.7341
vn 0.5458 0.4006 0.7359
vn -0.5303 0.3173 0.7862
vn -0.9751 -0.1696 0.1428
vn -0.5303 -0.7207 -0.4465
vn 0.5303 -0.7207 -0.4465
vn 0.9751 -0.1696 0.1428
vn 0.5303 0.3173 0.7862
vn -0.0000 -0.7649 0.6441
vn -0.0000 0.7649 -0.6441
vt 0.437988 0.969238
vt 0.443034 0.969238
vt 0.443034 0.984375
vt 0.437988 0.984375
vt 0.448079 0.969238
vt 0.448079 0.984375
vt 0.453125 0.969238
vt 0.453125 0.984375
vt 0.458171 0.969238
vt 0.458171 0.984375
vt 0.463216 0.969238
vt 0.463216 0.984375
vt 0.468262 0.969238
vt 0.468262 0.984375
vt 0.443034 0.999512
vt 0.437988 0.999512
vt 0.448079 0.999512
vt 0.453125 0.999512
vt 0.458171 0.999512
vt 0.463216 0.999512
vt 0.468262 0.999512
vt 0.437988 0.991943
vt 0.437988 0.976807
vt 0.468262 0.976807
vt 0.468262 0.991943
s 1
usemtl props
f 412/538/483 395/539/483 396/540/484 405/541/485
f 395/539/486 411/542/486 397/543/487 396/540/487
f 411/542/488 410/544/488 400/545/489 397/543/490
f 410/544/491 398/546/491 403/547/492 400/545/493
f 398/546/494 409/548/494 404/549/495 403/547/495
f 409/548/496 412/550/496 405/551/497 404/549/498
f 405/541/485 396/540/484 407/552/499 406/553/499
f 396/540/487 397/543/487 399/554/500 407/552/500
f 397/543/490 400/545/489 402/555/501 399/554/501
f 400/545/493 403/547/492 401/556/502 402/555/502
f 403/547/495 404/549/495 408/557/503 401/556/503
f 404/549/498 405/551/497 406/558/504 408/557/504
s 0
f 406/555/505 407/559/505 399/560/505 402/544/505 401/561/505 408/562/505
f 409/561/506 398/562/506 410/555/506 411/559/506 395/560/506 412/544/506
o rabbit_shin_br
v -0.057313 0.106875 -0.010264 0.9411 0.9411 0.9411
v -0.057313 0.117342 -0.020328 0.8274 0.8274 0.8274
v -0.033687 0.106875 -0.010264 0.8274 0.8274 0.8274
v -0.035974 0.064382 -0.073185 0.8980 0.8980 0.8980
v -0.035974 0.056135 -0.065255 0.8745 0.8745 0.8745
v -0.055026 0.056135 -0.065255 0.9215 0.9215 0.9215
v -0.053502 0.015278 -0.109334 0.8745 0.8745 0.8745
v -0.055026 0.064382 -0.073185 0.9607 0.9607 0.9607
v -0.045500 0.068505 -0.077149 0.9411 0.9411 0.9411
v -0.045500 0.025269 -0.118940 0.9255 0.9255 0.9255
v -0.037498 0.015278 -0.109334 0.8627 0.8627 0.8627
v -0.045500 0.052012 -0.061291 0.8745 0.8745 0.8745
v -0.045500 0.011948 -0.106132 0.8274 0.8274 0.8274
v -0.053502 0.021939 -0.115738 0.9176 0.9176 0.9176
v -0.037498 0.021939 -0.115738 0.9058 0.9058 0.9058
v -0.033687 0.117342 -0.020328 0.8274 0.8274 0.8274
v -0.045500 0.122575 -0.025360 0.8274 0.8274 0.8274
v -0.045500 0.101642 -0.005232 0.8274 0.8274 0.8274
vn -0.5194 -0.6393 0.5671
vn -0.5137 -0.6404 0.5710
vn -0.5137 -0.6403 0.5710
vn -0.9995 -0.0212 -0.0220
vn -0.9996 -0.0194 -0.0202
vn -0.5194 0.5917 -0.6165
vn -0.5137 0.5957 -0.6175
vn 0.5194 0.5917 -0.6165
vn 0.5137 0.5957 -0.6175
vn 0.9995 -0.0212 -0.0220
vn 0.9996 -0.0194 -0.0202
vn 0.5194 -0.6393 0.5671
vn 0.5137 -0.6403 0.5710
vn 0.5137 -0.6404 0.5710
vn -0.5079 -0.6414 0.5750
vn -0.9997 -0.0176 -0.0183
vn -0.5079 0.5997 -0.6184
vn 0.5079 0.5997 -0.6184
vn 0.9997 -0.0176 -0.0183
vn 0.5079 -0.6414 0.5750
vn -0.0000 -0.6931 -0.7208
vn -0.0000 0.6931 0.7208
vt 0.469238 0.969238
vt 0.474284 0.969238
vt 0.474284 0.986026
vt 0.469238 0.986026
vt 0.479329 0.969238
vt 0.479329 0.986026
vt 0.484375 0.969238
vt 0.484375 0.986026
vt 0.489421 0.969238
vt 0.489421 0.986026
vt 0.494466 0.969238
vt 0.494466 0.986026
vt 0.499512 0.969238
vt 0.499512 0.986026
vt 0.474284 0.999512
vt 0.469238 0.999512
vt 0.479329 0.999512
vt 0.484375 0.999512
vt 0.489421 0.999512
vt 0.494466 0.999512
vt 0.499512 0.999512
vt 0.469238 0.991943
vt 0.469238 0.976807
vt 0.499512 0.976807
vt 0.499512 0.991943
s 1
usemtl props
f 430/563/507 413/564/507 418/565/508 424/566/509
f 413/564/510 414/567/510 420/568/511 418/565/511
f 414/567/512 429/569/512 421/570/513 420/568/513
f 429/569/514 428/571/514 416/572/515 421/570/515
f 428/571/516 415/573/516 417/574/517 416/572/517
f 415/573/518 430/575/518 424/576/519 417/574/520
f 424/566/509 418/565/508 419/577/521 425/578/521
f 418/565/511 420/568/511 426/579/522 419/577/522
f 420/568/513 421/570/513 422/580/523 426/579/523
f 421/570/515 416/572/515 427/581/524 422/580/524
f 416/572/517 417/574/517 423/582/525 427/581/525
f 417/574/520 424/576/519 425/583/526 423/582/526
s 0
f 425/580/527 419/584/527 426/585/527 422/569/527 427/586/527 423/587/527
f 415/586/528 428/587/528 429/580/528 414/584/528 413/585/528 430/569/528
o rabbit_foot_br
v -0.053502 0.018557 -0.112227 0.8666 0.8666 0.8666
v -0.045500 0.004678 -0.096279 0.8392 0.8392 0.8392
v -0.038298 0.008243 -0.094139 0.8274 0.8274 0.8274
v -0.037498 0.026480 -0.107473 0.8706 0.8706 0.8706
v -0.045500 0.030442 -0.105096 0.8274 0.8274 0.8274
v -0.045500 0.018939 -0.087721 0.8706 0.8706 0.8706
v -0.038298 0.015374 -0.089861 0.8274 0.8274 0.8274
v -0.052702 0.015374 -0.089861 0.8274 0.8274 0.8274
v -0.052702 0.008243 -0.094139 0.8274 0.8274 0.8274
v -0.037498 0.018557 -0.112227 0.8549 0.8549 0.8549
v -0.045500 0.014595 -0.114604 0.8784 0.8784 0.8784
v -0.053502 0.026480 -0.107473 0.8980 0.8980 0.8980
v -0.058303 0.015713 -0.099643 0.9176 0.9176 0.9176
v -0.059584 0.011566 -0.042249 0.9215 0.9215 0.9215
v -0.059584 0.005105 -0.042560 0.8666 0.8666 0.8666
v -0.032697 0.008329 -0.099997 0.8706 0.8706 0.8706
v -0.051902 0.007789 -0.006989 0.9019 0.9019 0.9019
v -0.045500 0.001875 -0.042715 0.8274 0.8274 0.8274
v -0.045500 0.001559 -0.007288 0.8431 0.8431 0.8431
v -0.031416 0.005105 -0.042560 0.8470 0.8470 0.8470
v -0.031416 0.011566 -0.042249 0.8862 0.8862 0.8862
v -0.039098 0.003636 -0.007189 0.8549 0.8549 0.8549
v -0.045500 0.014796 -0.042094 0.9098 0.9098 0.9098
v -0.045500 0.009866 -0.006889 0.9019 0.9019 0.9019
v -0.039098 0.007789 -0.006989 0.8823 0.8823 0.8823
v -0.051902 0.003636 -0.007189 0.8706 0.8706 0.8706
v -0.032697 0.015713 -0.099643 0.8980 0.8980 0.8980
v -0.045500 0.004638 -0.100175 0.8470 0.8470 0.8470
v -0.058303 0.008329 -0.099997 0.8823 0.8823 0.8823
v -0.045500 0.019405 -0.099465 0.8274 0.8274 0.8274
vn -0.4996 0.7223 0.4782
vn -0.9993 -0.0198 0.0329
vn -0.4996 -0.7618 -0.4123
vn 0.4996 -0.7618 -0.4123
vn 0.9993 -0.0198 0.0329
vn 0.4996 0.7223 0.4782
vn -0.0000 -0.5145 0.8575
vn -0.0000 0.5145 -0.8575
vn -0.0000 0.9973 0.0732
vn -0.2495 0.9658 0.0709
vn -0.2498 0.9625 0.1061
vn -0.0000 0.9938 0.1115
vn -0.9998 0.0011 -0.0222
vn -0.9954 -0.0046 0.0955
vn -0.9957 -0.0044 0.0924
vn -0.2496 -0.9669 -0.0532
vn -0.0000 -0.9985 -0.0549
vn -0.0000 -0.9997 -0.0261
vn -0.2502 -0.9678 -0.0270
vn 0.2496 -0.9669 -0.0532
vn 0.2502 -0.9678 -0.0270
vn 0.9998 0.0011 -0.0222
vn 0.9957 -0.0044 0.0924
vn 0.9954 -0.0046 0.0955
vn 0.2495 0.9658 0.0709
vn 0.2498 0.9625 0.1061
vn -0.2498 0.9573 0.1455
vn -0.0000 0.9886 0.1503
vn -0.9773 -0.0102 0.2118
vn -0.0000 -1.0000 0.0029
vn -0.2507 -0.9680 0.0028
vn 0.2507 -0.9680 0.0028
vn 0.9773 -0.0102 0.2118
vn 0.2498 0.9573 0.1455
vn -0.0000 -0.0480 0.9988
vn -0.0000 0.0480 -0.9988
vt 0.469238 0.969238
vt 0.474284 0.969238
vt 0.474284 0.999512
vt 0.469238 0.999512
vt 0.479329 0.969238
vt 0.479329 0.999512
vt 0.484375 0.969238
vt 0.484375 0.999512
vt 0.489421 0.969238
vt 0.489421 0.999512
vt 0.494466 0.969238
vt 0.494466 0.999512
vt 0.499512 0.969238
vt 0.499512 0.999512
vt 0.469238 0.991943
vt 0.469238 0.976807
vt 0.499512 0.976807
vt 0.499512 0.991943
vt 0.641113 0.984863
vt 0.643555 0.984863
vt 0.643555 0.993931
vt 0.641113 0.993931
vt 0.645996 0.984863
vt 0.645996 0.993931
vt 0.648438 0.984863
vt 0.648438 0.993931
vt 0.650879 0.984863
vt 0.650879 0.993931
vt 0.653320 0.984863
vt 0.653320 0.993931
vt 0.655762 0.984863
vt 0.655762 0.993931
vt 0.643555 0.999512
vt 0.641113 0.999512
vt 0.645996 0.999512
vt 0.648438 0.999512
vt 0.650879 0.999512
vt 0.653320 0.999512
vt 0.655762 0.999512
vt 0.641113 0.995850
vt 0.641113 0.988525
vt 0.655762 0.988525
vt 0.655762 0.995850
s 1
usemtl props
f 435/588/529 442/589/529 438/590/529 436/591/529
f 442/589/530 431/592/530 439/593/530 438/590/530
f 431/592/531 441/594/531 432/595/531 439/593/531
f 441/594/532 440/596/532 433/597/532 432/595/532
f 440/596/533 434/598/533 437/599/533 433/597/533
f 434/598/534 435/600/534 436/601/534 437/599/534
s 0
f 436/595/535 438/602/535 439/603/535 432/594/535 433/604/535 437/605/535
f 434/604/536 440/605/536 441/595/536 431/602/536 442/603/536 435/594/536
s 1
f 460/606/537 443/607/538 444/608/539 453/609/540
f 443/607/541 459/610/541 445/611/542 444/608/543
f 459/610/544 458/612/545 448/613/546 445/611/547
f 458/612/545 446/614/548 450/615/549 448/613/546
f 446/614/550 457/616/550 451/617/551 450/615/552
f 457/616/553 460/618/537 453/619/540 451/617/554
f 453/609/540 444/608/539 447/620/555 454/621/556
f 444/608/543 445/611/542 456/622/557 447/620/557
f 445/611/547 448/613/546 449/623/558 456/622/559
f 448/613/546 450/615/549 452/624/560 449/623/558
f 450/615/552 451/617/551 455/625/561 452/624/561
f 451/617/554 453/619/540 454/626/556 455/625/562
s 0
f 454/623/563 447/627/563 456/628/563 449/612/563 452/629/563 455/630/563
f 457/629/564 446/630/564 458/623/564 459/627/564 443/628/564 460/612/564
o rabbit_tail
v 0.000000 0.165208 -0.099840 0.8353 0.8353 0.8353
v 0.000000 0.182708 -0.130151 0.9882 0.9882 0.9882
v -0.021651 0.176033 -0.093590 0.8274 0.8274 0.8274
v -0.021651 0.215184 -0.111401 0.9804 0.9804 0.9804
v -0.021651 0.197684 -0.081090 0.8274 0.8274 0.8274
v -0.000000 0.208509 -0.074840 0.8392 0.8392 0.8392
v 0.021651 0.197684 -0.081090 0.8274 0.8274 0.8274
v 0.021651 0.176033 -0.093590 0.8274 0.8274 0.8274
v -0.021651 0.193533 -0.123901 0.9804 0.9804 0.9804
v -0.008660 0.208778 -0.135306 0.9960 0.9960 0.9960
v -0.000000 0.226009 -0.105151 0.9960 0.9960 0.9960
v 0.021651 0.215184 -0.111401 0.9843 0.9843 0.9843
v 0.008660 0.217439 -0.130306 1.0000 1.0000 1.0000
v 0.021651 0.193533 -0.123901 0.9804 0.9804 0.9804
v 0.000000 0.204448 -0.137806 1.0000 1.0000 1.0000
v -0.008660 0.217439 -0.130306 0.9960 0.9960 0.9960
v -0.000000 0.221769 -0.127806 1.0000 1.0000 1.0000
v 0.008660 0.208778 -0.135306 1.0000 1.0000 1.0000
v 0.000000 0.216859 -0.139301 1.0000 1.0000 1.0000
vn -0.5000 -0.7500 -0.4330
vn -0.8218 -0.2532 -0.5104
vn -0.0000 -0.6641 -0.7477
vn -1.0000 -0.0000 -0.0000
vn -0.8218 0.5686 -0.0359
vn -0.5000 0.7500 0.4330
vn -0.0000 0.9795 0.2013
vn 0.5000 0.7500 0.4330
vn 0.8218 0.5686 -0.0359
vn 1.0000 -0.0000 -0.0000
vn 0.8218 -0.2532 -0.5104
vn 0.5000 -0.7500 -0.4330
vn -0.6077 0.0523 -0.7924
vn -0.0000 -0.2515 -0.9679
vn -0.6077 0.6601 -0.4415
vn -0.0000 0.9639 -0.2661
vn 0.6077 0.6601 -0.4415
vn 0.6077 0.0523 -0.7924
vn -0.0000 0.5000 -0.8660
vn -0.0000 -0.5000 0.8660
vt 0.516113 0.969238
vt 0.518555 0.969238
vt 0.518555 0.986898
vt 0.516113 0.986898
vt 0.520996 0.969238
vt 0.520996 0.986898
vt 0.523438 0.969238
vt 0.523438 0.986898
vt 0.525879 0.969238
vt 0.525879 0.986898
vt 0.528320 0.969238
vt 0.528320 0.986898
vt 0.530762 0.969238
vt 0.530762 0.986898
vt 0.518555 0.995728
vt 0.516113 0.995728
vt 0.520996 0.995728
vt 0.523438 0.995728
vt 0.525879 0.995728
vt 0.528320 0.995728
vt 0.530762 0.995728
vt 0.517334 0.999512
vt 0.519775 0.999512
vt 0.522217 0.999512
vt 0.524658 0.999512
vt 0.527100 0.999512
vt 0.529541 0.999512
vt 0.530762 0.976807
vt 0.530762 0.991943
vt 0.523438 0.999512
vt 0.516113 0.991943
vt 0.516113 0.976807
s 1
usemtl props
f 461/631/565 463/632/565 469/633/566 462/634/567
f 463/632/568 465/635/568 464/636/569 469/633/566
f 465/635/570 466/637/570 471/638/571 464/636/569
f 466/637/572 467/639/572 472/640/573 471/638/571
f 467/639/574 468/641/574 474/642/575 472/640/573
f 468/641/576 461/643/576 462/644/567 474/642/575
f 462/634/567 469/633/566 470/645/577 475/646/578
f 469/633/566 464/636/569 476/647/579 470/645/577
f 464/636/569 471/638/571 477/648/580 476/647/579
f 471/638/571 472/640/573 473/649/581 477/648/580
f 472/640/573 474/642/575 478/650/582 473/649/581
f 474/642/575 462/644/567 475/651/578 478/650/582
f 475/646/578 470/645/577 479/652/583
f 470/645/577 476/647/579 479/653/583
f 476/647/579 477/648/580 479/654/583
f 477/648/580 473/649/581 479/655/583
f 473/649/581 478/650/582 479/656/583
f 478/650/582 475/651/578 479/657/583
s 0
f 468/658/584 467/659/584 466/660/584 465/661/584 463/662/584 461/637/584
