# Blender 4.0.2
# www.blender.org
mtllib GrandfatherClock.mtl
o GrandfatherClock
v 0.237186 0.139692 0.231887
v 0.237186 0.139692 -0.232323
v 0.274850 0.126031 -0.269215
v 0.274850 0.126031 0.269215
v 0.274850 0.000444 -0.269215
v 0.274850 0.000444 0.269215
v 0.237186 0.542988 0.231887
v 0.212669 0.593752 0.162559
v 0.237186 1.323651 -0.232323
v 0.212669 1.272887 0.162559
v 0.312282 1.343011 -0.232323
v 0.312282 1.343011 0.231887
v 0.000000 2.144661 -0.232323
v 0.312282 1.915445 -0.232323
v 0.312282 1.915445 0.231887
v 0.312282 1.915445 0.294275
v 0.000000 2.144661 0.294275
v -0.237186 0.139692 0.231887
v -0.237186 0.139692 -0.232323
v -0.274850 0.126031 -0.269215
v -0.274850 0.126031 0.269215
v -0.274850 0.000444 -0.269215
v -0.274850 0.000444 0.269215
v -0.237186 0.542988 0.231887
v -0.212669 0.593752 0.162559
v -0.237186 1.323651 -0.232323
v -0.212669 1.272887 0.162559
v -0.312282 1.343011 -0.232323
v -0.312282 1.343011 0.231887
v -0.312282 1.915445 -0.232323
v -0.312282 1.915445 0.231887
v -0.312282 1.915445 0.294275
v 0.237186 0.542988 0.162559
v 0.237186 1.323651 0.162559
v -0.237186 0.542988 0.162559
v -0.237186 1.323651 0.162559
v 0.212669 0.593752 -0.144409
v 0.212669 1.272887 -0.144409
v -0.212669 0.593752 -0.144409
v -0.212669 1.272887 -0.144409
v 0.194634 1.272887 0.144893
v -0.194634 1.272887 0.144893
v -0.194634 1.272887 -0.126743
v 0.194634 1.272887 -0.126743
v -0.212669 1.272887 0.162559
v 0.212669 1.272887 0.162559
v -0.212669 1.272887 -0.144409
v 0.212669 1.272887 -0.144409
v 0.194634 1.341060 0.144893
v -0.194634 1.341060 0.144893
v -0.194634 1.341060 -0.126743
v 0.194634 1.341060 -0.126743
vn -0.0000 -0.0000 1.0000
vn -0.0000 -0.0000 -1.0000
vn 0.5917 0.8061 -0.0000
vn -0.0000 -1.0000 -0.0000
vn -0.1779 0.9680 -0.1769
vn -0.1754 0.9684 0.1774
vn -0.1750 0.9680 -0.1798
vn 1.0000 -0.0000 -0.0000
vn -0.5917 0.8061 -0.0000
vn 0.1766 0.9684 0.1762
vn 0.1754 0.9684 0.1774
vn -0.0000 1.0000 -0.0000
vn -1.0000 -0.0000 -0.0000
vn -0.2496 -0.9683 -0.0000
vn -0.1249 -0.9824 0.1391
vn -0.1331 -0.9825 0.1302
vn 0.1249 -0.9824 0.1391
vn 0.2496 -0.9683 -0.0000
vn 0.1331 -0.9825 0.1302
vn 0.1779 0.9680 -0.1769
vn 0.1750 0.9680 -0.1798
vn -0.1766 0.9684 0.1762
vt 0.641953 0.733047
vt 0.375000 0.500000
vt 0.750000 0.733047
vt 0.641953 0.516953
vt 0.625000 0.750000
vt 0.375000 0.750000
vt 0.625000 0.625000
vt 0.625000 0.500000
vt 0.641953 0.733047
vt 0.641953 0.733047
vt 0.641953 0.733047
vt 0.641953 0.733047
vt 0.641953 0.733047
vt 0.750000 0.516953
vt 0.625000 0.375000
s 1
f 15/1/1 29/1/1 12/1/1
f 20/2/2 5/2/2 22/2/2
f 17/3/3 15/1/3 14/4/3
f 7/5/1 18/6/1 1/6/1
f 6/6/4 22/2/4 5/2/4
f 20/2/5 18/6/6 19/2/7
f 31/1/4 16/1/4 32/1/4
f 12/7/8 14/8/8 15/7/8
f 30/4/9 31/1/9 17/3/9
f 18/6/6 4/6/10 1/6/11
f 7/5/12 35/1/12 24/5/12
f 29/7/13 30/8/13 28/8/13
f 10/9/13 37/10/13 8/10/13
f 6/6/8 3/2/8 4/6/8
f 28/8/14 36/7/15 29/7/16
f 9/8/2 26/8/2 30/8/2
f 17/3/1 32/1/1 16/1/1
f 23/6/13 20/2/13 22/2/13
f 34/7/17 11/8/18 12/7/19
f 35/7/13 26/8/13 18/6/13
f 9/8/8 33/7/8 1/6/8
f 1/6/11 3/2/20 2/2/21
f 19/2/7 3/2/20 20/2/5
f 36/1/15 12/1/19 29/1/16
f 21/6/1 6/6/1 4/6/1
f 8/10/1 34/1/1 10/9/1
f 27/9/1 35/1/1 25/11/1
f 25/11/1 33/1/1 8/10/1
f 10/9/1 36/1/1 27/9/1
f 39/11/1 38/9/1 40/9/1
f 25/11/8 40/9/8 27/9/8
f 8/10/12 39/11/12 25/11/12
f 27/9/12 46/9/12 10/9/12
f 40/9/12 45/9/12 27/9/12
f 38/9/12 47/9/12 40/9/12
f 10/9/12 48/9/12 38/9/12
f 41/12/4 45/9/4 42/12/4
f 42/12/4 47/9/4 43/13/4
f 43/13/4 48/9/4 44/13/4
f 44/13/4 46/9/4 41/12/4
f 50/12/4 52/13/4 49/12/4
f 50/12/2 41/12/2 42/12/2
f 51/13/8 42/12/8 43/13/8
f 52/13/1 43/13/1 44/13/1
f 49/12/13 44/13/13 41/12/13
f 15/1/1 31/1/1 29/1/1
f 20/2/2 3/2/2 5/2/2
f 14/4/3 13/14/3 17/3/3
f 17/3/3 16/1/3 15/1/3
f 7/5/1 24/5/1 18/6/1
f 6/6/4 23/6/4 22/2/4
f 20/2/5 21/6/22 18/6/6
f 31/1/4 15/1/4 16/1/4
f 12/7/8 11/8/8 14/8/8
f 17/3/9 13/14/9 30/4/9
f 31/1/9 32/1/9 17/3/9
f 18/6/6 21/6/22 4/6/10
f 7/5/12 33/1/12 35/1/12
f 29/7/13 31/7/13 30/8/13
f 10/9/13 38/9/13 37/10/13
f 6/6/8 5/2/8 3/2/8
f 28/8/14 26/8/14 36/7/15
f 30/8/2 13/15/2 14/8/2
f 14/8/2 11/8/2 9/8/2
f 9/8/2 2/2/2 19/2/2
f 26/8/2 28/8/2 30/8/2
f 9/8/2 19/2/2 26/8/2
f 30/8/2 14/8/2 9/8/2
f 23/6/13 21/6/13 20/2/13
f 34/7/17 9/8/18 11/8/18
f 35/7/13 36/7/13 26/8/13
f 26/8/13 19/2/13 18/6/13
f 18/6/13 24/5/13 35/7/13
f 1/6/8 2/2/8 9/8/8
f 9/8/8 34/7/8 33/7/8
f 33/7/8 7/5/8 1/6/8
f 1/6/11 4/6/10 3/2/20
f 19/2/7 2/2/21 3/2/20
f 36/1/15 34/1/17 12/1/19
f 21/6/1 23/6/1 6/6/1
f 8/10/1 33/1/1 34/1/1
f 27/9/1 36/1/1 35/1/1
f 25/11/1 35/1/1 33/1/1
f 10/9/1 34/1/1 36/1/1
f 39/11/1 37/10/1 38/9/1
f 25/11/8 39/11/8 40/9/8
f 8/10/12 37/10/12 39/11/12
f 27/9/12 45/9/12 46/9/12
f 40/9/12 47/9/12 45/9/12
f 38/9/12 48/9/12 47/9/12
f 10/9/12 46/9/12 48/9/12
f 41/12/4 46/9/4 45/9/4
f 42/12/4 45/9/4 47/9/4
f 43/13/4 47/9/4 48/9/4
f 44/13/4 48/9/4 46/9/4
f 50/12/4 51/13/4 52/13/4
f 50/12/2 49/12/2 41/12/2
f 51/13/8 50/12/8 42/12/8
f 52/13/1 51/13/1 43/13/1
f 49/12/13 52/13/13 44/13/13
o GrandfatherClock.001
v -0.108588 0.787780 0.019397
v -0.108588 0.787780 -0.019397
v -0.087850 0.723954 0.019397
v -0.087850 0.723954 -0.019397
v -0.033556 0.684507 0.019397
v -0.033556 0.684507 -0.019397
v 0.033556 0.684507 0.019397
v 0.033556 0.684507 -0.019397
v 0.087850 0.723954 0.019397
v 0.087850 0.723954 -0.019397
v 0.108588 0.787780 0.019397
v 0.108588 0.787780 -0.019397
v 0.087850 0.851607 0.019397
v 0.087850 0.851607 -0.019397
v 0.033556 0.891054 0.019397
v 0.033556 0.891054 -0.019397
v -0.033556 0.891054 0.019397
v -0.033556 0.891054 -0.019397
v -0.087850 0.851607 0.019397
v -0.087850 0.851607 -0.019397
v 0.021494 0.909579 -0.017242
v 0.021494 0.909579 0.017242
v -0.021494 0.909579 0.017242
v -0.021494 0.909579 -0.017242
v 0.033556 0.909579 -0.019397
v 0.033556 0.909579 0.019397
v -0.033556 0.909579 0.019397
v -0.033556 0.909579 -0.019397
v 0.021494 1.331185 0.017242
v 0.021494 1.331185 -0.017242
v -0.021494 1.331185 -0.017242
v -0.021494 1.331185 0.017242
vn -0.9511 -0.3090 -0.0000
vn -0.5878 -0.8090 -0.0000
vn -0.0000 -1.0000 -0.0000
vn 0.5878 -0.8090 -0.0000
vn 0.9511 -0.3090 -0.0000
vn 0.9511 0.3090 -0.0000
vn 0.5878 0.8090 -0.0000
vn -1.0000 -0.0000 -0.0000
vn -0.0000 -0.0000 -1.0000
vn -0.5878 0.8090 -0.0000
vn -0.9511 0.3090 -0.0000
vn -0.0000 -0.0000 1.0000
vn 1.0000 -0.0000 -0.0000
vn -0.0000 1.0000 -0.0000
vt 1.000000 1.000000
vt 0.900000 0.500000
vt 1.000000 0.500000
vt 0.900000 1.000000
vt 0.800000 0.500000
vt 0.800000 1.000000
vt 0.700000 0.500000
vt 0.700000 1.000000
vt 0.600000 0.500000
vt 0.600000 1.000000
vt 0.500000 0.500000
vt 0.500000 1.000000
vt 0.400000 0.500000
vt 0.400000 1.000000
vt 0.300000 0.500000
vt 0.200000 0.500000
vt 0.200000 1.000000
vt 0.021746 0.324164
vt 0.391068 0.055836
vt 0.478254 0.324164
vt 0.100000 0.500000
vt 0.100000 1.000000
vt -0.000000 0.500000
vt 0.978254 0.175836
vt 0.521746 0.175836
vt 0.608932 0.444164
vt 0.521746 0.324164
vt 0.021746 0.175836
vt 0.300000 1.000000
vt 0.282027 0.527770
vt 0.282027 0.972230
vt 0.217973 0.527770
vt 0.217973 0.972230
vt 0.391068 0.444164
vt 0.250000 0.490000
vt 0.108932 0.444164
vt 0.108932 0.055836
vt 0.250000 0.010000
vt 0.478254 0.175836
vt -0.000000 1.000000
vt 0.750000 0.490000
vt 0.891068 0.444164
vt 0.978254 0.324164
vt 0.891068 0.055836
vt 0.750000 0.010000
vt 0.608932 0.055836
s 0
f 54/16/23 55/17/23 53/18/23
f 56/19/24 57/20/24 55/17/24
f 58/21/25 59/22/25 57/20/25
f 60/23/26 61/24/26 59/22/26
f 62/25/27 63/26/27 61/24/27
f 64/27/28 65/28/28 63/26/28
f 66/29/29 67/30/29 65/28/29
f 69/31/30 80/32/30 70/32/30
f 70/33/31 62/34/31 58/35/31
f 70/32/32 71/36/32 69/31/32
f 72/37/33 53/38/33 71/36/33
f 59/39/34 67/40/34 71/41/34
f 67/40/34 79/42/34 69/42/34
f 70/33/31 77/43/31 68/43/31
f 68/44/35 78/30/35 67/30/35
f 74/45/36 77/44/36 73/46/36
f 75/47/36 78/30/36 74/45/36
f 73/46/36 80/32/36 76/48/36
f 76/48/36 79/31/36 75/47/36
f 82/46/36 84/47/36 81/45/36
f 82/46/35 74/45/35 73/46/35
f 83/48/31 73/46/31 76/48/31
f 84/47/30 76/48/30 75/47/30
f 81/45/34 75/47/34 74/45/34
f 54/16/23 56/19/23 55/17/23
f 56/19/24 58/21/24 57/20/24
f 58/21/25 60/23/25 59/22/25
f 60/23/26 62/25/26 61/24/26
f 62/25/27 64/27/27 63/26/27
f 64/27/28 66/29/28 65/28/28
f 66/29/29 68/44/29 67/30/29
f 69/31/30 79/31/30 80/32/30
f 58/35/31 56/49/31 54/50/31
f 54/50/31 72/51/31 70/33/31
f 70/33/31 68/43/31 66/52/31
f 66/52/31 64/53/31 62/34/31
f 62/34/31 60/54/31 58/35/31
f 58/35/31 54/50/31 70/33/31
f 70/33/31 66/52/31 62/34/31
f 70/32/32 72/37/32 71/36/32
f 72/37/33 54/55/33 53/38/33
f 71/41/34 53/56/34 55/57/34
f 55/57/34 57/58/34 59/39/34
f 59/39/34 61/59/34 63/60/34
f 63/60/34 65/61/34 67/40/34
f 67/40/34 69/42/34 71/41/34
f 71/41/34 55/57/34 59/39/34
f 59/39/34 63/60/34 67/40/34
f 67/40/34 78/40/34 79/42/34
f 70/33/31 80/33/31 77/43/31
f 68/44/35 77/44/35 78/30/35
f 74/45/36 78/30/36 77/44/36
f 75/47/36 79/31/36 78/30/36
f 73/46/36 77/44/36 80/32/36
f 76/48/36 80/32/36 79/31/36
f 82/46/36 83/48/36 84/47/36
f 82/46/35 81/45/35 74/45/35
f 83/48/31 82/46/31 73/46/31
f 84/47/30 83/48/30 76/48/30
f 81/45/34 84/47/34 75/47/34
