# Blender 4.0.2
# www.blender.org
mtllib KeyRoom.mtl
o KeyRoom
v -0.033625 -0.005924 0.024798
v -0.033625 0.005924 0.024798
v -0.033625 -0.005924 -0.018758
v -0.033625 0.005924 -0.018758
v 0.033625 -0.005924 0.024798
v 0.033625 0.005924 0.024798
v 0.033625 -0.005924 -0.018758
v 0.033625 0.005924 -0.018758
v 0.011686 -0.005924 0.036252
v 0.011686 0.005924 0.036252
v -0.011686 0.005924 0.036252
v -0.011686 -0.005924 0.036252
v 0.011686 0.005924 0.107418
v 0.011686 -0.005924 0.107418
v -0.011686 0.005924 0.107418
v -0.011686 -0.005924 0.107418
v 0.000000 -0.005924 -0.036877
v 0.000000 0.005924 -0.036877
v 0.000000 -0.005924 0.033625
v 0.000000 0.005924 0.033625
v 0.000000 0.005924 0.118103
v 0.000000 -0.005924 0.118103
v 0.003493 -0.005924 0.054980
v 0.011686 -0.005924 0.063173
v 0.011686 -0.005924 0.046787
v 0.011686 0.005924 0.063173
v 0.011686 0.005924 0.046787
v 0.003493 0.005924 0.054980
v 0.011686 -0.005924 0.089654
v 0.011686 -0.005924 0.078816
v 0.006267 -0.005924 0.084235
v 0.011686 0.005924 0.078816
v 0.011686 0.005924 0.089654
v 0.006267 0.005924 0.084235
v 0.023439 -0.005924 -0.004383
v -0.023439 0.005924 -0.004383
v -0.000000 0.005924 -0.025825
v 0.023439 0.005924 -0.004383
v -0.023439 -0.005924 -0.004383
v -0.000000 -0.005924 -0.025825
vn -0.6748 -0.0000 0.7380
vn -0.0000 1.0000 -0.0000
vn 0.9239 -0.0000 0.3827
vn 0.7071 -0.0000 0.7071
vn 0.4628 -0.0000 0.8865
vn 0.9239 -0.0000 -0.3827
vn 1.0000 -0.0000 -0.0000
vn -0.6750 -0.0000 0.7378
vn -0.4628 -0.0000 0.8865
vn 0.6750 -0.0000 0.7378
vn -0.4744 -0.0000 -0.8803
vn -0.0000 -0.0000 -1.0000
vn -1.0000 -0.0000 -0.0000
vn 0.7071 -0.0000 -0.7071
vn -0.0000 -1.0000 -0.0000
vn 0.4744 -0.0000 -0.8803
vn 0.6748 -0.0000 0.7380
vt 0.625000 1.000000
vt 0.375000 0.875000
vt 0.625000 0.875000
vt 0.750000 0.750000
vt 0.837132 0.593189
vt 0.875000 0.750000
vt 0.434245 0.085059
vt 0.565755 0.000000
vt 0.434245 0.000000
vt 0.375000 0.750000
vt 0.625000 0.750000
vt 0.457185 0.500000
vt 0.565755 0.250000
vt 0.434245 0.250000
vt 0.375000 1.000000
vt 0.625000 0.500000
vt 0.750000 0.500000
vt 0.750000 0.539192
vt 0.434245 0.128606
vt 0.542815 0.000000
vt 0.625000 0.375000
vt 0.375000 0.250000
vt 0.625000 0.250000
vt 0.542815 0.500000
vt 0.457185 1.000000
vt 0.542815 1.000000
vt 0.375000 0.500000
vt 0.375000 0.000000
vt 0.625000 0.000000
vt 0.434245 1.000000
vt 0.565755 0.914941
vt 0.434245 0.914941
vt 0.625000 0.807963
vt 0.625000 0.837637
vt 0.375000 0.837637
vt 0.375000 0.375000
vt 0.337132 0.593188
vt 0.250000 0.750000
vt 0.125000 0.500000
vt 0.250000 0.500000
vt 0.162868 0.593189
vt 0.565755 1.000000
vt 0.434245 0.871394
vt 0.662868 0.593188
vt 0.565755 0.085059
vt 0.875000 0.500000
vt 0.565755 0.128606
vt 0.457185 0.000000
vt 0.375000 0.807963
vt 0.250000 0.539192
vt 0.125000 0.750000
vt 0.565755 0.871394
s 1
f 15/1/1 22/2/1 21/3/1
f 20/4/2 36/5/2 2/6/2
f 30/7/3 34/8/4 31/9/4
f 9/10/5 6/11/5 10/11/5
f 29/10/6 13/11/7 14/10/7
f 35/12/8 37/13/8 40/14/8
f 11/1/9 1/15/9 12/15/9
f 8/16/2 18/17/2 37/18/2
f 25/19/4 28/8/4 23/9/4
f 36/20/10 40/14/10 37/13/10
f 18/21/11 3/22/11 4/23/11
f 38/24/12 39/25/12 36/26/12
f 6/11/7 7/27/7 8/16/7
f 4/23/13 1/28/13 2/29/13
f 31/30/14 33/31/6 29/32/6
f 16/15/13 11/1/13 12/15/13
f 20/3/2 34/33/2 28/34/2
f 22/2/15 19/2/15 23/35/15
f 8/16/16 17/36/16 18/21/16
f 27/11/7 9/10/7 10/11/7
f 35/37/15 7/27/15 19/38/15
f 3/39/15 17/40/15 39/41/15
f 21/3/17 14/10/17 13/11/17
f 32/11/3 24/10/6 26/11/6
f 28/42/14 24/43/6 23/30/14
f 15/1/1 16/15/1 22/2/1
f 20/4/2 38/44/2 36/5/2
f 30/7/3 32/45/3 34/8/4
f 9/10/5 5/10/5 6/11/5
f 29/10/6 33/11/6 13/11/7
f 35/12/8 38/24/8 37/13/8
f 11/1/9 2/1/9 1/15/9
f 4/46/2 2/6/2 36/5/2
f 4/46/2 36/5/2 37/18/2
f 20/4/2 6/11/2 8/16/2
f 38/44/2 20/4/2 8/16/2
f 18/17/2 4/46/2 37/18/2
f 37/18/2 38/44/2 8/16/2
f 25/19/4 27/47/4 28/8/4
f 36/20/10 39/48/10 40/14/10
f 18/21/11 17/36/11 3/22/11
f 38/24/12 35/12/12 39/25/12
f 6/11/7 5/10/7 7/27/7
f 4/23/13 3/22/13 1/28/13
f 31/30/14 34/42/14 33/31/6
f 16/15/13 15/1/13 11/1/13
f 28/34/2 27/11/2 10/11/2
f 10/11/2 6/11/2 20/3/2
f 20/3/2 2/1/2 11/1/2
f 11/1/2 15/1/2 21/3/2
f 21/3/2 13/11/2 33/11/2
f 34/33/2 32/11/2 26/11/2
f 21/3/2 33/11/2 34/33/2
f 20/3/2 11/1/2 21/3/2
f 28/34/2 10/11/2 20/3/2
f 34/33/2 26/11/2 28/34/2
f 20/3/2 21/3/2 34/33/2
f 23/35/15 24/10/15 30/10/15
f 31/49/15 29/10/15 14/10/15
f 23/35/15 30/10/15 31/49/15
f 9/10/15 25/10/15 23/35/15
f 19/2/15 5/10/15 9/10/15
f 12/15/15 1/15/15 19/2/15
f 22/2/15 16/15/15 12/15/15
f 31/49/15 14/10/15 22/2/15
f 19/2/15 9/10/15 23/35/15
f 23/35/15 31/49/15 22/2/15
f 22/2/15 12/15/15 19/2/15
f 8/16/16 7/27/16 17/36/16
f 27/11/7 25/10/7 9/10/7
f 19/38/15 39/41/15 35/37/15
f 35/37/15 40/50/15 7/27/15
f 7/27/15 5/10/15 19/38/15
f 39/41/15 19/38/15 1/51/15
f 17/40/15 7/27/15 40/50/15
f 39/41/15 1/51/15 3/39/15
f 17/40/15 40/50/15 39/41/15
f 21/3/17 22/2/17 14/10/17
f 32/11/3 30/10/3 24/10/6
f 28/42/14 26/52/6 24/43/6
