# Blender 4.0.2
# www.blender.org
mtllib Walkie-Talkie.mtl
o Walkie-Talkie
v -0.059503 0.000000 0.056717
v -0.064503 0.005000 0.056717
v -0.064503 0.348896 0.056717
v -0.059503 0.353896 0.056717
v -0.059503 0.000000 -0.051717
v -0.064503 0.005000 -0.051717
v -0.059503 0.005000 -0.056717
v -0.064503 0.348896 -0.051717
v -0.059503 0.353896 -0.051717
v -0.059503 0.348896 -0.056717
v 0.064503 0.005000 0.056717
v 0.059503 0.000000 0.056717
v 0.059503 0.353896 0.056717
v 0.064503 0.348896 0.056717
v 0.059503 0.000000 -0.051717
v 0.059503 0.005000 -0.056717
v 0.064503 0.005000 -0.051717
v 0.059503 0.348896 -0.056717
v 0.059503 0.353896 -0.051717
v 0.064503 0.348896 -0.051717
v -0.059503 0.241777 0.056717
v -0.059503 0.246777 0.061717
v -0.064503 0.251777 0.051717
v -0.059503 0.246777 -0.056717
v -0.064503 0.246777 -0.051717
v 0.064503 0.246777 -0.051717
v 0.059503 0.246777 -0.056717
v 0.059503 0.246777 0.061717
v 0.059503 0.241777 0.056717
v 0.064503 0.251777 0.051717
v -0.064503 0.141377 -0.051717
v -0.059503 0.141377 -0.056717
v 0.059503 0.141377 -0.056717
v 0.064503 0.141377 -0.051717
v 0.059503 0.146377 0.056717
v 0.059503 0.141377 0.061717
v 0.064503 0.136377 0.051717
v -0.059503 0.146377 0.056717
v -0.064503 0.136377 0.051717
v -0.059503 0.141377 0.061717
v -0.064503 0.251777 0.076306
v -0.059503 0.246777 0.076306
v -0.059503 0.251777 0.081306
v -0.064503 0.348896 0.076306
v -0.059503 0.348896 0.081306
v -0.059503 0.353896 0.076306
v 0.064503 0.136377 0.076306
v 0.059503 0.141377 0.076306
v 0.059503 0.136377 0.081306
v 0.064503 0.005000 0.076306
v 0.059503 0.005000 0.081306
v 0.059503 0.000000 0.076306
v -0.059503 0.000000 0.076306
v -0.059503 0.005000 0.081306
v -0.064503 0.005000 0.076306
v 0.059503 0.353896 0.076306
v 0.059503 0.348896 0.081306
v 0.064503 0.348896 0.076306
v 0.064503 0.251777 0.076306
v 0.059503 0.251777 0.081306
v 0.059503 0.246777 0.076306
v -0.064503 0.136377 0.076306
v -0.059503 0.136377 0.081306
v -0.059503 0.141377 0.076306
vn -0.0000 1.0000 -0.0000
vn 1.0000 -0.0000 -0.0000
vn -0.0000 -0.0000 -1.0000
vn -0.0000 -1.0000 -0.0000
vn -0.0000 -0.0000 1.0000
vn -1.0000 -0.0000 -0.0000
vn -0.5774 -0.5774 -0.5773
vn -0.5773 0.5774 -0.5774
vn 0.5774 -0.5774 -0.5773
vn 0.5773 0.5774 -0.5774
vn -0.9045 -0.3015 0.3015
vn 0.9045 -0.3015 0.3015
vn 0.9045 0.3015 0.3015
vn -0.9045 0.3015 0.3015
vn -0.5773 -0.5773 0.5774
vn -0.5773 0.5773 0.5774
vn 0.5773 0.5773 0.5774
vn 0.5774 -0.5773 0.5773
vn -0.5774 -0.5773 0.5773
vn 0.5773 -0.5773 0.5774
vn -0.7071 -0.7071 -0.0000
vn -0.7071 0.7071 -0.0000
vn -0.7071 -0.0000 -0.7071
vn -0.0000 -0.7071 -0.7071
vn -0.0000 0.7071 -0.7071
vn 0.7071 -0.0000 -0.7071
vn 0.7071 -0.7071 -0.0000
vn 0.7071 0.7071 -0.0000
vn -0.7071 -0.0000 0.7071
vn -0.0000 -0.7071 0.7071
vn 0.7071 -0.0000 0.7071
vn -0.0000 0.7071 0.7071
vt 0.865311 0.511020
vt 0.634690 0.750000
vt 0.634690 0.511020
vt 0.377210 0.511020
vt 0.435290 0.738980
vt 0.377210 0.750000
vt 0.619165 0.750000
vt 0.505835 0.750000
vt 0.500000 0.259689
vt 0.437500 0.490311
vt 0.437500 0.259689
vt 0.365310 0.750000
vt 0.134689 0.750000
vt 0.865310 0.750000
vt 0.634689 0.750000
vt 0.500000 0.759689
vt 0.500000 0.990310
vt 0.437500 0.990310
vt 0.437500 0.759689
vt 0.500000 0.511020
vt 0.434535 0.738980
vt 0.437500 0.511020
vt 0.497035 0.759689
vt 0.440465 0.990311
vt 0.440465 0.759689
vt 0.377210 0.000000
vt 0.435290 0.000000
vt 0.435290 0.000000
vt 0.619165 0.259689
vt 0.500000 0.490311
vt 0.500000 0.259689
vt 0.435290 0.750000
vt 0.377210 0.750000
vt 0.619165 0.759690
vt 0.505835 0.990310
vt 0.505835 0.759689
vt 0.435290 0.759689
vt 0.377210 0.990311
vt 0.377210 0.759689
vt 0.365311 0.511020
vt 0.134689 0.750000
vt 0.134689 0.511020
vt 0.505835 0.011020
vt 0.619165 0.238980
vt 0.500000 0.238980
vt 0.619165 0.000000
vt 0.505835 0.000000
vt 0.619165 0.000000
vt 0.502965 0.011020
vt 0.437500 0.238980
vt 0.434535 0.011020
vt 0.437500 0.259689
vt 0.377210 0.490311
vt 0.377210 0.259689
vt 0.619165 0.511020
vt 0.505835 0.738980
vt 0.500000 0.511020
vt 0.125000 0.511020
vt 0.134689 0.500000
vt 0.625000 0.238980
vt 0.619165 0.250000
vt 0.365310 0.500000
vt 0.375000 0.511020
vt 0.619165 0.490311
vt 0.625000 0.490311
vt 0.619165 0.500000
vt 0.497035 0.000000
vt 0.500000 0.000000
vt 0.500000 0.011020
vt 0.440465 0.000000
vt 0.437500 0.011020
vt 0.437500 0.000000
vt 0.500000 1.000000
vt 0.500000 0.990311
vt 0.625000 0.000000
vt 0.375000 0.759689
vt 0.125000 0.750000
vt 0.625000 0.759689
vt 0.625000 0.238980
vt 0.437500 0.238980
vt 0.625000 0.259689
vt 0.437500 0.490311
vt 0.437500 0.511020
vt 0.365310 0.750000
vt 0.500000 0.238980
vt 0.502965 0.738980
vt 0.505835 0.000000
vt 0.365311 0.750000
vt 0.625000 0.990311
vt 0.619165 0.750000
vt 0.437500 0.990310
vt 0.435290 0.011020
vt 0.377210 0.238980
vt 0.865310 0.750000
vt 0.497035 0.990311
vt 0.435290 0.750000
vt 0.619165 0.990311
vt 0.435290 0.990310
vt 0.619165 0.750000
s 0
f 9/1/1 13/2/1 19/3/1
f 17/4/2 37/5/2 11/6/2
f 14/7/2 59/8/2 30/8/2
f 24/9/3 33/10/3 32/11/3
f 12/12/4 53/13/4 1/13/4
f 4/14/1 56/15/1 13/15/1
f 28/16/4 42/17/4 22/17/4
f 40/18/1 48/19/1 36/19/1
f 26/20/2 37/21/2 34/22/2
f 29/23/5 38/24/5 35/25/5
f 2/26/6 62/27/6 39/28/6
f 10/29/3 27/30/3 24/31/3
f 11/6/2 47/32/2 50/33/2
f 57/34/5 43/35/5 60/36/5
f 49/37/5 54/38/5 51/39/5
f 15/40/4 1/41/4 5/42/4
f 23/43/6 8/44/6 25/45/6
f 3/46/6 41/47/6 44/48/6
f 23/49/6 31/50/6 39/51/6
f 32/52/3 16/53/3 7/54/3
f 20/55/2 30/56/2 26/57/2
f 5/42/7 6/58/7 7/59/7
f 8/44/8 9/60/8 10/61/8
f 15/40/9 16/62/9 17/63/9
f 18/64/10 19/65/10 20/66/10
f 21/67/11 22/68/11 23/69/11
f 28/16/12 29/23/12 30/8/12
f 35/25/13 36/19/13 37/21/13
f 38/70/14 39/71/14 40/72/14
f 41/73/15 42/17/15 43/74/15
f 44/48/16 45/48/16 46/75/16
f 47/32/17 48/19/17 49/37/17
f 50/6/18 51/39/18 52/76/18
f 53/13/19 54/41/19 55/77/19
f 56/78/17 57/34/17 58/7/17
f 59/8/20 60/36/20 61/16/20
f 62/27/16 63/28/16 64/72/16
f 1/41/21 6/58/21 5/42/21
f 9/79/22 3/48/22 4/75/22
f 7/54/23 31/80/23 32/52/23
f 5/42/24 16/62/24 15/40/24
f 19/65/25 10/29/25 9/81/25
f 17/4/26 33/82/26 34/83/26
f 15/40/27 11/6/27 12/84/27
f 13/2/28 20/55/28 19/3/28
f 21/67/29 39/51/29 38/70/29
f 24/31/23 8/44/23 10/29/23
f 26/57/26 18/64/26 20/55/26
f 22/17/30 29/23/30 28/16/30
f 32/11/23 25/85/23 24/9/23
f 34/22/26 27/30/26 26/20/26
f 35/25/31 30/86/31 29/23/31
f 38/24/32 36/19/32 35/25/32
f 45/48/29 41/47/29 43/87/29
f 51/39/31 47/32/31 49/37/31
f 52/88/30 54/41/30 53/13/30
f 46/89/32 57/34/32 56/78/32
f 60/36/31 58/90/31 57/34/31
f 43/35/30 61/16/30 60/36/30
f 63/28/29 55/26/29 54/26/29
f 64/91/32 49/37/32 48/19/32
f 62/27/22 40/72/22 39/28/22
f 47/32/28 36/19/28 48/19/28
f 59/8/27 28/16/27 30/8/27
f 41/73/21 22/17/21 42/17/21
f 53/13/21 2/77/21 1/13/21
f 4/75/22 44/48/22 46/75/22
f 50/33/27 12/12/27 11/6/27
f 56/15/28 14/7/28 13/15/28
f 39/92/6 6/93/6 2/26/6
f 9/1/1 4/94/1 13/2/1
f 17/4/2 34/83/2 37/5/2
f 14/7/2 58/90/2 59/8/2
f 24/9/3 27/30/3 33/10/3
f 12/12/4 52/88/4 53/13/4
f 4/14/1 46/94/1 56/15/1
f 28/16/4 61/16/4 42/17/4
f 40/18/1 64/91/1 48/19/1
f 26/20/2 30/86/2 37/21/2
f 29/23/5 21/95/5 38/24/5
f 2/26/6 55/26/6 62/27/6
f 10/29/3 18/64/3 27/30/3
f 11/6/2 37/96/2 47/32/2
f 57/34/5 45/97/5 43/35/5
f 49/37/5 63/98/5 54/38/5
f 15/40/4 12/84/4 1/41/4
f 23/43/6 3/48/6 8/44/6
f 3/46/6 23/87/6 41/47/6
f 23/49/6 25/85/6 31/50/6
f 32/52/3 33/82/3 16/53/3
f 20/55/2 14/99/2 30/56/2
f 1/41/21 2/77/21 6/58/21
f 9/79/22 8/44/22 3/48/22
f 7/54/23 6/93/23 31/80/23
f 5/42/24 7/59/24 16/62/24
f 19/65/25 18/64/25 10/29/25
f 17/4/26 16/53/26 33/82/26
f 15/40/27 17/4/27 11/6/27
f 13/2/28 14/99/28 20/55/28
f 21/67/29 23/49/29 39/51/29
f 24/31/23 25/45/23 8/44/23
f 26/57/26 27/30/26 18/64/26
f 22/17/30 21/95/30 29/23/30
f 32/11/23 31/50/23 25/85/23
f 34/22/26 33/10/26 27/30/26
f 35/25/31 37/21/31 30/86/31
f 38/24/32 40/18/32 36/19/32
f 45/48/29 44/48/29 41/47/29
f 51/39/31 50/33/31 47/32/31
f 52/88/30 51/12/30 54/41/30
f 46/89/32 45/97/32 57/34/32
f 60/36/31 59/8/31 58/90/31
f 43/35/30 42/17/30 61/16/30
f 63/28/29 62/27/29 55/26/29
f 64/91/32 63/98/32 49/37/32
f 62/27/22 64/72/22 40/72/22
f 47/32/28 37/96/28 36/19/28
f 59/8/27 61/16/27 28/16/27
f 41/73/21 23/73/21 22/17/21
f 53/13/21 55/77/21 2/77/21
f 4/75/22 3/46/22 44/48/22
f 50/33/27 52/88/27 12/12/27
f 56/15/28 58/90/28 14/7/28
f 39/92/6 31/80/6 6/93/6
o Walkie-Talkie.001
v 0.041118 0.337964 -0.040653
v 0.040945 0.495035 -0.040653
v 0.048071 0.337967 -0.037690
v 0.047898 0.495037 -0.037690
v 0.050952 0.337968 -0.030536
v 0.050779 0.495038 -0.030536
v 0.048071 0.337967 -0.023382
v 0.047898 0.495037 -0.023382
v 0.041118 0.337964 -0.020419
v 0.040945 0.495035 -0.020419
v 0.034165 0.337962 -0.023382
v 0.033992 0.495032 -0.023382
v 0.031285 0.337961 -0.030536
v 0.031112 0.495031 -0.030536
v 0.034165 0.337962 -0.037690
v 0.033992 0.495032 -0.037690
v 0.053143 0.495635 -0.043086
v 0.040945 0.495630 -0.048285
v 0.028746 0.495626 -0.043086
v 0.023693 0.495624 -0.030536
v 0.028746 0.495626 -0.017985
v 0.040945 0.495630 -0.012787
v 0.053143 0.495635 -0.017985
v 0.058196 0.495637 -0.030536
v 0.053117 0.547669 -0.043086
v 0.040919 0.547665 -0.048285
v 0.028720 0.547660 -0.043086
v 0.023667 0.547658 -0.030536
v 0.028720 0.547660 -0.017985
v 0.040919 0.547665 -0.012787
v 0.053117 0.547669 -0.017985
v 0.058170 0.547671 -0.030536
v 0.048962 0.550448 -0.038813
v 0.040917 0.550445 -0.042241
v 0.032873 0.550442 -0.038813
v 0.029540 0.550441 -0.030536
v 0.032873 0.550442 -0.022259
v 0.040917 0.550445 -0.018831
v 0.048962 0.550448 -0.022259
v 0.052294 0.550449 -0.030536
vn 0.3920 0.0004 -0.9199
vn 0.9276 0.0010 -0.3735
vn 0.9276 0.0010 0.3735
vn 0.3920 0.0004 0.9199
vn -0.3920 -0.0004 0.9199
vn -0.9276 -0.0010 0.3735
vn -0.9276 -0.0010 -0.3735
vn -0.3920 -0.0004 -0.9199
vn -0.0004 1.0000 -0.0000
vn 0.0335 -0.9964 -0.0778
vn -0.0328 -0.9964 -0.0778
vn -0.0796 -0.9963 -0.0322
vn -0.0796 -0.9963 0.0322
vn -0.0328 -0.9964 0.0778
vn 0.0335 -0.9964 0.0778
vn 0.0804 -0.9962 0.0322
vn 0.0804 -0.9962 -0.0322
vn 0.3920 0.0002 -0.9199
vn -0.3920 -0.0002 -0.9199
vn -0.9276 -0.0005 -0.3735
vn -0.9276 -0.0005 0.3735
vn -0.3920 -0.0002 0.9199
vn 0.3920 0.0002 0.9199
vn 0.9276 0.0005 0.3735
vn 0.9276 0.0005 -0.3735
vn 0.1750 0.8945 -0.4114
vn -0.1757 0.8943 -0.4115
vn -0.4220 0.8906 -0.1697
vn -0.4219 0.8906 0.1697
vn -0.1757 0.8943 0.4115
vn 0.1750 0.8945 0.4114
vn 0.4212 0.8909 0.1697
vn 0.4212 0.8909 -0.1697
vn -0.0797 -0.9963 -0.0322
vn -0.4220 0.8906 0.1697
vt 1.000000 0.500000
vt 0.875000 1.000000
vt 0.875000 0.500000
vt 0.750000 1.000000
vt 0.750000 0.500000
vt 0.625000 0.500000
vt 0.625000 1.000000
vt 0.500000 0.500000
vt 0.500000 1.000000
vt 0.375000 0.500000
vt 0.375000 1.000000
vt 0.250000 0.500000
vt 0.125000 1.000000
vt 0.125000 0.500000
vt 0.000000 1.000000
vt 0.000000 0.500000
vt 0.010000 0.250000
vt 0.250000 0.010000
vt 0.490000 0.250000
vt 0.250000 0.490000
vt 0.419706 0.419706
vt 0.080294 0.419706
vt 0.080294 0.080294
vt 0.419706 0.080294
vt 1.000000 1.000000
vt 0.250000 1.000000
s 0
f 65/100/33 68/101/33 67/102/33
f 67/102/34 70/103/34 69/104/34
f 70/103/35 71/105/35 69/104/35
f 72/106/36 73/107/36 71/105/36
f 74/108/37 75/109/37 73/107/37
f 76/110/38 77/111/38 75/109/38
f 77/111/39 80/112/39 79/113/39
f 79/113/40 66/114/40 65/115/40
f 100/116/41 102/117/41 104/118/41
f 66/119/42 81/120/42 68/120/42
f 83/121/43 66/119/43 80/121/43
f 84/116/44 80/121/44 78/116/44
f 76/122/45 84/116/45 78/116/45
f 74/117/46 85/122/46 76/122/46
f 87/123/47 74/117/47 72/123/47
f 88/118/48 72/123/48 70/118/48
f 68/120/49 88/118/49 70/118/49
f 82/119/50 89/120/50 81/120/50
f 83/121/51 90/119/51 82/119/51
f 84/116/52 91/121/52 83/121/52
f 93/122/53 84/116/53 85/122/53
f 94/117/54 85/122/54 86/117/54
f 95/123/55 86/117/55 87/123/55
f 96/118/56 87/123/56 88/118/56
f 81/120/57 96/118/57 88/118/57
f 98/119/58 89/120/58 90/119/58
f 91/121/59 98/119/59 90/119/59
f 92/116/60 99/121/60 91/121/60
f 101/122/61 92/116/61 93/122/61
f 102/117/62 93/122/62 94/117/62
f 95/123/63 102/117/63 94/117/63
f 96/118/64 103/123/64 95/123/64
f 97/120/65 96/118/65 89/120/65
f 65/100/33 66/124/33 68/101/33
f 67/102/34 68/101/34 70/103/34
f 70/103/35 72/106/35 71/105/35
f 72/106/36 74/108/36 73/107/36
f 74/108/37 76/110/37 75/109/37
f 76/110/38 78/125/38 77/111/38
f 77/111/39 78/125/39 80/112/39
f 79/113/40 80/112/40 66/114/40
f 104/118/41 97/120/41 98/119/41
f 98/119/41 99/121/41 100/116/41
f 100/116/41 101/122/41 102/117/41
f 102/117/41 103/123/41 104/118/41
f 104/118/41 98/119/41 100/116/41
f 66/119/42 82/119/42 81/120/42
f 83/121/43 82/119/43 66/119/43
f 84/116/66 83/121/66 80/121/66
f 76/122/45 85/122/45 84/116/45
f 74/117/46 86/117/46 85/122/46
f 87/123/47 86/117/47 74/117/47
f 88/118/48 87/123/48 72/123/48
f 68/120/49 81/120/49 88/118/49
f 82/119/50 90/119/50 89/120/50
f 83/121/51 91/121/51 90/119/51
f 84/116/52 92/116/52 91/121/52
f 93/122/53 92/116/53 84/116/53
f 94/117/54 93/122/54 85/122/54
f 95/123/55 94/117/55 86/117/55
f 96/118/56 95/123/56 87/123/56
f 81/120/57 89/120/57 96/118/57
f 98/119/58 97/120/58 89/120/58
f 91/121/59 99/121/59 98/119/59
f 92/116/60 100/116/60 99/121/60
f 101/122/67 100/116/67 92/116/67
f 102/117/62 101/122/62 93/122/62
f 95/123/63 103/123/63 102/117/63
f 96/118/64 104/118/64 103/123/64
f 97/120/65 104/118/65 96/118/65
