# Blender 4.0.2
# www.blender.org
mtllib ChainlinkSupport.mtl
o Chainlink
v 0.000000 0.052557 0.058574
v -0.040330 0.044356 0.050373
v -0.040330 0.027956 0.033973
v 0.000000 0.019755 0.025772
v 0.040330 0.033973 0.033973
v 0.040330 0.050373 0.050373
v -0.000000 0.076819 0.000000
v -0.040330 0.065222 0.000000
v -0.040330 0.042028 0.000000
v -0.000000 0.030431 0.000000
v 0.040330 0.048045 0.000000
v 0.040330 0.071239 0.000000
v -0.000000 0.052557 -0.058574
v -0.040330 0.044356 -0.050373
v -0.040330 0.027956 -0.033973
v -0.000000 0.019755 -0.025772
v 0.040330 0.033973 -0.033973
v 0.040330 0.050373 -0.050373
v -0.000000 -0.058574 -0.058574
v -0.040330 -0.050373 -0.050373
v -0.040330 -0.033973 -0.033973
v -0.000000 -0.025772 -0.025772
v 0.040330 -0.033973 -0.033973
v 0.040330 -0.050373 -0.050373
v 0.000000 -0.082836 0.000000
v -0.040330 -0.071239 0.000000
v -0.040330 -0.048045 0.000000
v 0.000000 -0.036448 0.000000
v 0.040330 -0.048045 0.000000
v 0.040330 -0.071239 0.000000
v 0.000000 -0.058574 0.058574
v -0.040330 -0.050373 0.050373
v -0.040330 -0.033973 0.033973
v 0.000000 -0.025772 0.025772
v 0.040330 -0.033973 0.033973
v 0.040330 -0.050373 0.050373
vn -1.0000 -0.0000 -0.0000
vn -0.1993 -0.0000 -0.9799
vn 0.1993 -0.0000 -0.9799
vn 1.0000 -0.0000 -0.0000
vn 0.1993 -0.0000 0.9799
vn -0.1993 -0.0000 0.9799
vn -0.2568 0.8929 0.3699
vn -0.2568 -0.8929 -0.3699
vn 0.3742 -0.8568 -0.3549
vn 0.1268 0.9164 0.3796
vn -0.2568 0.8929 -0.3699
vn -0.2568 -0.8929 0.3699
vn 0.3742 -0.8568 0.3549
vn 0.1268 0.9164 -0.3796
vn 0.2568 0.8929 0.3699
vn 0.2568 -0.8929 -0.3699
vn 0.2568 0.8929 -0.3699
vn 0.2568 -0.8929 0.3699
vt 0.375000 0.666667
vt 0.625000 0.833333
vt 0.375000 0.833333
vt 0.375000 1.000000
vt 0.625000 -0.000000
vt 0.375000 0.166667
vt 0.375000 -0.000000
vt 0.625000 0.166667
vt 0.375000 0.333333
vt 0.625000 0.500000
vt 0.375000 0.500000
vt 0.125000 0.833333
vt 0.875000 1.000000
vt 0.875000 0.833333
vt 0.750000 0.500000
vt 0.625000 0.666667
vt 0.750000 0.833333
vt 0.750000 1.000000
vt 0.625000 1.000000
vt 0.750000 -0.000000
vt 0.750000 0.166667
vt 0.625000 0.333333
vt 0.875000 0.500000
vt 0.750000 0.666667
vt 0.875000 0.666667
vt 0.875000 0.166667
vt 0.750000 0.333333
vt 0.875000 0.333333
vt 0.125000 0.666667
vt 0.125000 0.333333
vt 0.875000 -0.000000
vt 0.125000 0.166667
vt 0.125000 0.500000
vt 0.250000 0.666667
vt 0.250000 0.833333
vt 0.125000 1.000000
vt 0.250000 -0.000000
vt 0.125000 -0.000000
vt 0.250000 0.333333
vt 0.250000 0.500000
vt 0.250000 1.000000
vt 0.250000 0.166667
s 0
f 32/1/1 3/2/1 33/3/1
f 3/2/2 34/4/2 33/3/2
f 4/5/3 35/6/3 34/7/3
f 5/8/4 36/9/4 35/6/4
f 36/9/5 1/10/5 31/11/5
f 21/12/6 16/13/6 15/14/6
f 7/15/7 2/16/7 1/10/7
f 2/16/1 9/17/1 3/2/1
f 3/2/8 10/18/8 4/19/8
f 10/20/9 5/8/9 4/5/9
f 11/21/4 6/22/4 5/8/4
f 6/22/10 7/15/10 1/10/10
f 13/23/11 8/24/11 7/15/11
f 14/25/1 9/17/1 8/24/1
f 15/14/12 10/18/12 9/17/12
f 10/20/13 17/26/13 11/21/13
f 17/26/4 12/27/4 11/21/4
f 18/28/14 7/15/14 12/27/14
f 20/29/1 15/14/1 14/25/1
f 24/30/3 13/23/3 18/28/3
f 16/31/5 23/32/5 17/26/5
f 17/26/4 24/30/4 18/28/4
f 19/33/2 14/25/2 13/23/2
f 19/33/8 26/34/8 20/29/8
f 26/34/1 21/12/1 20/29/1
f 27/35/7 22/36/7 21/12/7
f 28/37/15 23/32/15 22/38/15
f 23/32/4 30/39/4 24/30/4
f 30/39/16 19/33/16 24/30/16
f 31/11/12 26/34/12 25/40/12
f 32/1/1 27/35/1 26/34/1
f 33/3/11 28/41/11 27/35/11
f 34/7/17 29/42/17 28/37/17
f 35/6/4 30/39/4 29/42/4
f 36/9/18 25/40/18 30/39/18
f 1/10/6 32/1/6 31/11/6
f 32/1/1 2/16/1 3/2/1
f 3/2/2 4/19/2 34/4/2
f 4/5/3 5/8/3 35/6/3
f 5/8/4 6/22/4 36/9/4
f 36/9/5 6/22/5 1/10/5
f 21/12/6 22/36/6 16/13/6
f 7/15/7 8/24/7 2/16/7
f 2/16/1 8/24/1 9/17/1
f 3/2/8 9/17/8 10/18/8
f 10/20/9 11/21/9 5/8/9
f 11/21/4 12/27/4 6/22/4
f 6/22/10 12/27/10 7/15/10
f 13/23/11 14/25/11 8/24/11
f 14/25/1 15/14/1 9/17/1
f 15/14/12 16/13/12 10/18/12
f 10/20/13 16/31/13 17/26/13
f 17/26/4 18/28/4 12/27/4
f 18/28/14 13/23/14 7/15/14
f 20/29/1 21/12/1 15/14/1
f 24/30/3 19/33/3 13/23/3
f 16/31/5 22/38/5 23/32/5
f 17/26/4 23/32/4 24/30/4
f 19/33/2 20/29/2 14/25/2
f 19/33/8 25/40/8 26/34/8
f 26/34/1 27/35/1 21/12/1
f 27/35/7 28/41/7 22/36/7
f 28/37/15 29/42/15 23/32/15
f 23/32/4 29/42/4 30/39/4
f 30/39/16 25/40/16 19/33/16
f 31/11/12 32/1/12 26/34/12
f 32/1/1 33/3/1 27/35/1
f 33/3/11 34/4/11 28/41/11
f 34/7/17 35/6/17 29/42/17
f 35/6/4 36/9/4 30/39/4
f 36/9/18 31/11/18 25/40/18
f 1/10/6 2/16/6 32/1/6
o ChainlinkSupport
v -0.072220 0.051724 0.072220
v -0.074690 0.061724 0.082220
v -0.084984 0.061335 0.072220
v -0.129510 0.216164 0.072220
v -0.119105 0.216164 0.082220
v -0.072220 0.051724 -0.072220
v -0.084984 0.061335 -0.072220
v -0.074690 0.061724 -0.082220
v -0.119105 0.216164 -0.082220
v -0.129510 0.216164 -0.072220
v 0.072220 0.051724 0.072220
v 0.084984 0.061335 0.072220
v 0.074690 0.061724 0.082220
v 0.119105 0.216164 0.082220
v 0.129510 0.216164 0.072220
v 0.072220 0.051724 -0.072220
v 0.074690 0.061724 -0.082220
v 0.084984 0.061335 -0.072220
v 0.129510 0.216164 -0.072220
v 0.119105 0.216164 -0.082220
vn -0.0000 -0.0000 1.0000
vn 0.9610 -0.2764 -0.0000
vn -0.0000 -0.0000 -1.0000
vn -0.9610 -0.2764 -0.0000
vn -0.5043 -0.6697 0.5451
vn -0.5043 -0.6697 -0.5451
vn 0.5043 -0.6697 0.5451
vn 0.5043 -0.6697 -0.5451
vn -0.6015 -0.7989 -0.0000
vn -0.6796 -0.1954 0.7071
vn -0.6796 -0.1954 -0.7071
vn -0.0000 -0.7071 -0.7071
vn 0.6796 -0.1954 -0.7071
vn 0.6015 -0.7989 -0.0000
vn 0.6796 -0.1954 0.7071
vn -0.0000 -0.7071 0.7071
vn -0.0000 -1.0000 -0.0000
vt 0.625000 0.760043
vt 0.390203 0.986053
vt 0.390203 0.763947
vt 0.625000 0.515203
vt 0.389611 0.734797
vt 0.389611 0.515203
vt 0.625000 0.260043
vt 0.390203 0.486053
vt 0.390203 0.263947
vt 0.625000 0.015203
vt 0.389611 0.234797
vt 0.389611 0.015203
vt 0.140203 0.734797
vt 0.136447 0.750000
vt 0.125000 0.734797
vt 0.140203 0.515203
vt 0.125000 0.515203
vt 0.136447 0.500000
vt 0.359797 0.734797
vt 0.375000 0.734797
vt 0.363553 0.750000
vt 0.359797 0.515203
vt 0.363553 0.500000
vt 0.375000 0.515203
vt 0.620798 0.000000
vt 0.386001 0.000000
vt 0.625000 0.234797
vt 0.625000 0.489957
vt 0.625000 0.734797
vt 0.363553 0.750000
vt 0.625000 0.989957
s 0
f 50/43/19 38/44/19 49/45/19
f 55/46/20 48/47/20 54/48/20
f 45/49/21 53/50/21 44/51/21
f 40/52/22 43/53/22 39/54/22
f 37/55/23 38/56/23 39/57/23
f 42/58/24 43/59/24 44/60/24
f 47/61/25 48/62/25 49/63/25
f 52/64/26 53/65/26 54/66/26
f 37/55/27 43/59/27 42/58/27
f 41/67/28 39/54/28 38/68/28
f 45/49/29 43/53/29 46/69/29
f 52/64/30 44/60/30 53/65/30
f 54/48/31 56/70/31 55/46/31
f 52/64/32 48/47/32 47/61/32
f 50/43/33 48/47/33 51/71/33
f 37/55/34 49/72/34 38/56/34
f 52/64/35 37/55/35 42/58/35
f 50/43/19 41/73/19 38/44/19
f 55/46/20 51/71/20 48/47/20
f 45/49/21 56/70/21 53/50/21
f 40/52/22 46/69/22 43/53/22
f 37/55/27 39/57/27 43/59/27
f 41/67/28 40/52/28 39/54/28
f 45/49/29 44/51/29 43/53/29
f 52/64/30 42/58/30 44/60/30
f 54/48/31 53/50/31 56/70/31
f 52/64/32 54/48/32 48/47/32
f 50/43/33 49/45/33 48/47/33
f 37/55/34 47/61/34 49/72/34
f 52/64/35 47/61/35 37/55/35
