# Blender 4.0.2
# www.blender.org
mtllib VCR.mtl
o VCR
v -0.188684 0.145323 0.179681
v -0.188684 0.150323 0.174681
v -0.193684 0.145323 0.174580
v -0.193684 0.018310 -0.174681
v -0.188684 0.018310 -0.179681
v -0.190025 0.017530 -0.176363
v -0.193684 0.145323 -0.174681
v -0.188684 0.150323 -0.174681
v -0.188684 0.145323 -0.179681
v 0.197494 0.023100 0.198565
v 0.202379 0.018285 0.195032
v 0.202494 0.145323 0.174580
v 0.197494 0.150323 0.174681
v 0.197494 0.145323 0.179681
v 0.197494 0.145323 -0.179681
v 0.197494 0.150323 -0.174681
v 0.202494 0.145323 -0.174681
v -0.193684 0.086139 0.174576
v -0.188684 0.086139 0.179681
v -0.193684 0.086139 -0.174681
v -0.188684 0.086139 -0.179681
v 0.202494 0.086139 -0.174681
v 0.197494 0.086139 -0.179681
v 0.202494 0.086139 0.174576
v 0.197494 0.086139 0.179681
v -0.188684 0.023100 0.198565
v -0.193570 0.018286 0.195057
v 0.197494 0.018310 -0.179681
v 0.202494 0.018310 -0.174681
v 0.198836 0.017530 -0.176363
v -0.167693 0.013835 -0.160641
v -0.172693 0.013835 -0.155641
v -0.176351 0.014615 -0.163959
v -0.172693 0.013835 0.155641
v -0.167693 0.013835 0.160641
v -0.175034 0.014334 0.165030
v 0.181503 0.013835 -0.155641
v 0.176503 0.013835 -0.160641
v 0.185161 0.014615 -0.163959
v 0.176503 0.013835 0.160641
v 0.181503 0.013835 0.155641
v 0.183844 0.014334 0.165030
v -0.172693 0.005000 -0.155641
v -0.167693 0.005000 -0.160641
v -0.167693 0.000000 -0.155641
v -0.172693 0.005000 0.155641
v -0.167693 0.000000 0.155641
v -0.167693 0.005000 0.160641
v 0.176503 0.005000 -0.160641
v 0.181503 0.005000 -0.155641
v 0.176503 0.000000 -0.155641
v 0.181503 0.005000 0.155641
v 0.176503 0.005000 0.160641
v 0.176503 0.000000 0.155641
vn -0.0000 1.0000 -0.0000
vn 1.0000 -0.0016 0.0003
vn -1.0000 -0.0000 -0.0000
vn -1.0000 -0.0016 0.0003
vn -0.0002 -0.9918 0.1281
vn 0.2085 -0.9780 -0.0000
vn -0.2085 -0.9780 -0.0000
vn -0.0000 -0.0000 -1.0000
vn 1.0000 -0.0000 -0.0000
vn -0.0000 -1.0000 -0.0000
vn -0.0000 0.2870 0.9579
vn -0.0000 -0.9735 -0.2288
vn -0.0000 -0.0000 1.0000
vn -0.5850 0.5735 0.5735
vn -0.3446 -0.8732 -0.3446
vn -0.5774 0.5773 -0.5774
vn 0.5850 0.5735 0.5735
vn 0.5774 0.5773 -0.5774
vn 0.3446 -0.8732 -0.3446
vn -0.0648 -0.9958 -0.0648
vn -0.0425 -0.9982 0.0425
vn 0.0648 -0.9958 -0.0648
vn 0.0425 -0.9982 0.0425
vn -0.5774 -0.5774 -0.5774
vn -0.5774 -0.5774 0.5774
vn 0.5774 -0.5774 -0.5774
vn 0.5774 -0.5774 0.5774
vn -0.7144 -0.0000 0.6997
vn -0.7071 0.7071 -0.0000
vn -0.7071 -0.0000 -0.7071
vn -0.0000 0.7071 -0.7071
vn 0.7071 0.7071 -0.0000
vn 0.6992 0.2052 0.6848
vn -0.0000 0.7071 0.7071
vn 0.7071 -0.0000 -0.7071
vn 0.7141 -0.0000 0.7000
vn -0.7071 -0.7071 -0.0000
vn -0.0000 -0.7071 -0.7071
vn 0.7071 -0.7071 -0.0000
vn -0.0000 -0.7071 0.7071
vn 0.7071 -0.0000 0.7071
vn -0.7071 -0.0000 0.7071
vn 0.0001 -0.5889 0.8082
vn -0.6965 0.2063 0.6872
vn -0.0000 -0.9914 0.1306
vn 0.0168 -0.9899 0.1406
vn -0.0000 -0.9936 0.1130
vn -0.7141 -0.0000 0.7000
vn 0.6984 0.2055 0.6856
vn 0.7144 -0.0000 0.6997
vn -0.0000 -0.5917 0.8062
vn -0.6992 0.2052 0.6848
vt 0.871845 0.503478
vt 0.628155 0.746522
vt 0.628155 0.503478
vt 0.375000 0.503292
vt 0.500000 0.746449
vt 0.374955 0.746724
vt 0.375000 0.246109
vt 0.375000 0.003891
vt 0.500000 0.003551
vt 0.615262 0.246522
vt 0.500000 0.246522
vt 0.500000 0.003551
vt 0.375000 0.246708
vt 0.374955 0.003259
vt 0.375000 1.001633
vt 0.375000 0.996471
vt 0.375000 0.750000
vt 0.375000 0.503292
vt 0.375000 0.503891
vt 0.375000 0.246708
vt 0.375000 0.250000
vt 0.375000 0.003891
vt 0.500000 0.253155
vt 0.375000 0.496845
vt 0.375000 0.253155
vt 0.615262 0.503478
vt 0.500000 0.746449
vt 0.500000 0.503478
vt 0.371471 0.503891
vt 0.128529 0.746109
vt 0.128529 0.503891
vt 0.615262 0.253155
vt 0.500000 0.496845
vt 0.383827 0.753155
vt 0.500000 0.996845
vt 0.383827 0.996845
vt 0.375000 0.500000
vt 0.375000 0.496471
vt 0.375000 0.496471
vt 0.375000 0.253529
vt 0.375000 0.746109
vt 0.375000 0.503891
vt 0.375000 0.753529
vt 0.375000 0.753529
vt 0.615262 0.996845
vt 0.625000 0.996845
vt 0.615262 1.000000
vt 0.625000 0.246522
vt 0.615262 0.250000
vt 0.615262 0.746451
vt 0.625000 0.746522
vt 0.615262 0.750000
vt 0.615262 0.496845
vt 0.625000 0.496845
vt 0.615262 0.500000
vt 0.375000 0.500000
vt 0.375000 1.000000
vt 0.375000 0.246109
vt 0.125000 0.746109
vt 0.128529 0.750000
vt 0.500000 0.000000
vt 0.615263 0.003549
vt 0.625000 0.003478
vt 0.500000 0.246522
vt 0.625000 0.253155
vt 0.500000 0.753155
vt 0.615262 0.753155
vt 0.625000 0.753155
vt 0.500000 0.503478
vt 0.125000 0.503891
vt 0.371471 0.500000
vt 0.375000 0.746109
vt 0.371471 0.746109
vt 0.375000 0.000000
vt 0.375000 0.748359
vt 0.383827 0.000000
vt 0.871845 0.746522
vt 0.375000 0.746869
vt 0.375000 0.746109
vt 0.375000 0.003116
vt 0.375000 0.996471
vt 0.615262 0.000000
vt 0.128529 0.500000
vt 0.371471 0.750000
s 0
f 8/1/1 13/2/1 16/3/1
f 29/4/2 24/5/2 11/6/2
f 32/7/3 46/8/3 34/8/3
f 18/9/3 7/10/3 20/11/3
f 18/12/4 4/13/4 27/14/4
f 27/15/5 35/16/5 42/17/5
f 29/18/6 42/17/6 37/19/6
f 4/20/7 33/21/7 34/22/7
f 21/23/8 28/24/8 5/25/8
f 17/26/9 24/27/9 22/28/9
f 51/29/10 47/30/10 45/31/10
f 9/32/8 23/33/8 21/23/8
f 10/34/11 19/35/11 26/36/11
f 30/37/12 38/38/12 33/21/12
f 38/39/8 44/40/8 31/40/8
f 41/41/9 50/19/9 37/42/9
f 35/16/13 53/43/13 40/44/13
f 1/45/14 2/46/14 3/47/14
f 4/13/15 5/21/15 6/21/15
f 7/10/16 8/48/16 9/49/16
f 12/50/17 13/51/17 14/52/17
f 15/53/18 16/54/18 17/55/18
f 28/24/19 29/56/19 30/56/19
f 31/40/20 32/21/20 33/21/20
f 34/57/21 35/16/21 36/57/21
f 37/42/22 38/56/22 39/56/22
f 40/44/23 41/17/23 42/17/23
f 43/58/24 44/21/24 45/7/24
f 46/59/25 47/30/25 48/60/25
f 49/38/26 50/56/26 51/38/26
f 52/17/27 53/43/27 54/44/27
f 19/61/28 3/62/28 18/9/28
f 8/48/29 3/62/29 2/63/29
f 5/25/30 20/64/30 21/23/30
f 16/54/31 9/32/31 8/65/31
f 16/3/32 12/50/32 17/26/32
f 10/34/33 24/5/33 25/66/33
f 2/46/34 14/67/34 13/68/34
f 21/23/30 7/10/30 9/32/30
f 22/28/35 15/53/35 17/26/35
f 25/66/36 12/50/36 14/67/36
f 29/4/35 23/33/35 22/69/35
f 47/30/37 43/70/37 45/31/37
f 45/31/38 49/71/38 51/29/38
f 51/29/39 52/72/39 54/73/39
f 54/73/40 48/60/40 47/30/40
f 53/43/41 41/41/41 40/44/41
f 38/39/35 50/19/35 49/38/35
f 44/40/30 32/7/30 31/40/30
f 35/74/42 46/8/42 48/74/42
f 11/75/43 26/36/43 27/15/43
f 26/76/44 18/12/44 27/14/44
f 14/67/13 19/35/13 25/66/13
f 8/1/1 2/77/1 13/2/1
f 29/4/9 22/69/9 24/5/9
f 32/7/3 43/58/3 46/8/3
f 18/9/3 3/62/3 7/10/3
f 18/12/3 20/64/3 4/13/3
f 42/17/45 11/75/45 27/15/45
f 27/15/46 36/57/46 35/16/46
f 35/16/47 40/43/47 42/17/47
f 39/56/6 30/56/6 29/18/6
f 29/18/6 11/78/6 42/17/6
f 42/17/6 41/79/6 37/19/6
f 37/19/6 39/56/6 29/18/6
f 36/74/7 27/80/7 4/20/7
f 4/20/7 6/21/7 33/21/7
f 33/21/7 32/7/7 34/22/7
f 34/22/7 36/74/7 4/20/7
f 21/23/8 23/33/8 28/24/8
f 17/26/9 12/50/9 24/27/9
f 51/29/10 54/73/10 47/30/10
f 9/32/8 15/53/8 23/33/8
f 10/34/11 25/66/11 19/35/11
f 33/21/12 6/21/12 5/25/12
f 5/25/12 28/24/12 30/37/12
f 30/37/12 39/56/12 38/38/12
f 38/38/12 31/40/12 33/21/12
f 33/21/12 5/25/12 30/37/12
f 38/39/8 49/38/8 44/40/8
f 41/41/9 52/72/9 50/19/9
f 35/16/13 48/81/13 53/43/13
f 19/61/48 1/82/48 3/62/48
f 8/48/29 7/10/29 3/62/29
f 5/25/30 4/13/30 20/64/30
f 16/54/31 15/53/31 9/32/31
f 16/3/32 13/2/32 12/50/32
f 10/34/49 11/6/49 24/5/49
f 2/46/34 1/45/34 14/67/34
f 21/23/30 20/11/30 7/10/30
f 22/28/35 23/33/35 15/53/35
f 25/66/50 24/27/50 12/50/50
f 29/4/35 28/24/35 23/33/35
f 47/30/37 46/59/37 43/70/37
f 45/31/38 44/83/38 49/71/38
f 51/29/39 50/19/39 52/72/39
f 54/73/40 53/84/40 48/60/40
f 53/43/41 52/72/41 41/41/41
f 38/39/35 37/42/35 50/19/35
f 44/40/30 43/58/30 32/7/30
f 35/74/42 34/8/42 46/8/42
f 11/75/51 10/34/51 26/36/51
f 26/76/52 19/61/52 18/12/52
f 14/67/13 1/45/13 19/35/13
