# Blender 4.0.2
# www.blender.org
mtllib Bowl02.mtl
o Bowl02
v -0.000000 0.011905 0.000000
v -0.043398 0.012416 0.000000
v -0.051696 0.016989 0.000000
v -0.062835 0.046779 0.000000
v -0.069760 0.056230 0.000000
v -0.077749 0.056843 0.000000
v -0.086829 0.054164 0.000000
v -0.086544 0.047745 0.000000
v -0.079407 0.045491 0.000000
v -0.074441 0.040230 0.000000
v -0.061717 0.000528 0.000000
v -0.000000 0.000403 0.000000
v -0.035110 0.012416 0.035165
v -0.041823 0.016989 0.041888
v -0.050834 0.046779 0.050914
v -0.056437 0.056230 0.056525
v -0.062900 0.056843 0.062999
v -0.070246 0.054164 0.070356
v -0.070016 0.047745 0.070125
v -0.064241 0.045491 0.064341
v -0.060224 0.040230 0.060318
v -0.049930 0.000528 0.050008
v -0.013411 0.012416 0.056897
v -0.015975 0.016989 0.067777
v -0.019417 0.046779 0.082380
v -0.021557 0.056230 0.091460
v -0.024026 0.056843 0.101934
v -0.026832 0.054164 0.113838
v -0.026744 0.047745 0.113465
v -0.024538 0.045491 0.104107
v -0.023004 0.040230 0.097597
v -0.019072 0.000528 0.080915
v 0.013411 0.012416 0.056897
v 0.015975 0.016989 0.067777
v 0.019417 0.046779 0.082380
v 0.021557 0.056230 0.091460
v 0.024026 0.056843 0.101934
v 0.026832 0.054164 0.113838
v 0.026744 0.047745 0.113465
v 0.024538 0.045491 0.104107
v 0.023004 0.040230 0.097597
v 0.019072 0.000528 0.080915
v 0.035110 0.012416 0.035165
v 0.041823 0.016989 0.041888
v 0.050834 0.046779 0.050914
v 0.056437 0.056230 0.056525
v 0.062900 0.056843 0.062999
v 0.070246 0.054164 0.070356
v 0.070016 0.047745 0.070125
v 0.064241 0.045491 0.064341
v 0.060224 0.040230 0.060318
v 0.049930 0.000528 0.050008
v 0.043398 0.012416 0.000000
v 0.051696 0.016989 0.000000
v 0.062835 0.046779 0.000000
v 0.069760 0.056230 0.000000
v 0.077749 0.056843 0.000000
v 0.086829 0.054164 0.000000
v 0.086544 0.047745 0.000000
v 0.079407 0.045491 0.000000
v 0.074441 0.040230 0.000000
v 0.061717 0.000528 0.000000
v 0.035110 0.012416 -0.035164
v 0.041823 0.016989 -0.041888
v 0.050834 0.046779 -0.050914
v 0.056437 0.056230 -0.056525
v 0.062900 0.056843 -0.062999
v 0.070246 0.054164 -0.070356
v 0.070016 0.047745 -0.070125
v 0.064241 0.045491 -0.064341
v 0.060224 0.040230 -0.060318
v 0.049930 0.000528 -0.050008
v 0.013411 0.012416 -0.056897
v 0.015975 0.016989 -0.067777
v 0.019417 0.046779 -0.082380
v 0.021557 0.056230 -0.091460
v 0.024026 0.056843 -0.101934
v 0.026832 0.054164 -0.113838
v 0.026744 0.047745 -0.113465
v 0.024538 0.045491 -0.104107
v 0.023004 0.040230 -0.097597
v 0.019072 0.000528 -0.080915
v -0.013411 0.012416 -0.056897
v -0.015975 0.016989 -0.067777
v -0.019417 0.046779 -0.082380
v -0.021557 0.056230 -0.091460
v -0.024026 0.056843 -0.101934
v -0.026832 0.054164 -0.113838
v -0.026744 0.047745 -0.113465
v -0.024538 0.045491 -0.104107
v -0.023004 0.040230 -0.097597
v -0.019072 0.000528 -0.080915
v -0.035110 0.012416 -0.035164
v -0.041823 0.016989 -0.041888
v -0.050834 0.046779 -0.050914
v -0.056437 0.056230 -0.056525
v -0.062901 0.056843 -0.062999
v -0.070246 0.054164 -0.070355
v -0.070016 0.047745 -0.070125
v -0.064241 0.045491 -0.064341
v -0.060224 0.040230 -0.060318
v -0.049930 0.000528 -0.050008
vn -0.0000 1.0000 -0.0000
vn 0.2878 0.9577 -0.0000
vn 0.2479 0.9612 -0.1208
vn 0.1065 0.9691 -0.2224
vn -0.1065 0.9691 -0.2224
vn -0.2479 0.9612 -0.1208
vn -0.2878 0.9577 -0.0000
vn -0.2479 0.9612 0.1208
vn -0.1065 0.9691 0.2224
vn 0.1065 0.9691 0.2224
vn 0.2479 0.9612 0.1208
vn 0.7769 0.6296 -0.0000
vn 0.6643 0.6520 -0.3655
vn 0.2836 0.6899 -0.6660
vn -0.6643 0.6520 -0.3655
vn -0.7769 0.6296 -0.0000
vn -0.6643 0.6520 0.3655
vn -0.2836 0.6899 0.6660
vn 0.6643 0.6520 0.3655
vn 0.8752 0.4837 -0.0000
vn 0.7509 0.5191 -0.4083
vn 0.3163 0.5960 -0.7381
vn -0.2836 0.6899 -0.6660
vn -0.7509 0.5191 -0.4083
vn -0.8752 0.4837 -0.0000
vn -0.7509 0.5191 0.4083
vn -0.3163 0.5960 0.7381
vn 0.2836 0.6899 0.6660
vn 0.7509 0.5191 0.4083
vn 0.4363 0.8998 -0.0000
vn 0.3488 0.9152 -0.2019
vn 0.1243 0.9423 -0.3108
vn -0.3163 0.5960 -0.7381
vn -0.3488 0.9152 -0.2019
vn -0.4363 0.8998 -0.0000
vn -0.3488 0.9152 0.2019
vn -0.1243 0.9423 0.3108
vn 0.3163 0.5960 0.7381
vn 0.3488 0.9152 0.2019
vn -0.1312 0.9914 -0.0000
vn -0.1167 0.9918 0.0526
vn 0.0525 0.9932 0.1035
vn -0.1243 0.9423 -0.3108
vn 0.1167 0.9918 0.0526
vn 0.1312 0.9914 -0.0000
vn 0.1167 0.9918 -0.0526
vn 0.0525 0.9932 -0.1035
vn 0.1243 0.9423 0.3108
vn -0.1167 0.9918 -0.0526
vn -0.8405 0.5417 -0.0000
vn -0.7300 0.5431 0.4149
vn -0.0525 0.9932 0.1035
vn -0.3183 0.5367 0.7814
vn 0.7300 0.5431 0.4149
vn 0.8405 0.5417 -0.0000
vn 0.7300 0.5431 -0.4149
vn 0.3183 0.5367 -0.7814
vn -0.0525 0.9932 -0.1035
vn -0.7300 0.5431 -0.4149
vn -0.7116 -0.5768 0.4010
vn -0.3104 -0.5794 0.7537
vn 0.3183 0.5367 0.7814
vn 0.3104 -0.5794 0.7537
vn 0.7116 -0.5769 0.4010
vn 0.7116 -0.5768 -0.4010
vn 0.3104 -0.5794 -0.7537
vn -0.3183 0.5367 -0.7814
vn -0.3104 -0.5794 -0.7537
vn -0.7116 -0.5768 -0.4010
vn -0.8207 -0.5713 -0.0000
vn -0.4086 -0.8842 0.2261
vn -0.1528 -0.9198 0.3613
vn 0.1528 -0.9198 0.3613
vn 0.4086 -0.8842 0.2261
vn 0.8207 -0.5713 -0.0000
vn 0.4086 -0.8842 -0.2261
vn 0.1528 -0.9198 -0.3613
vn -0.1528 -0.9198 -0.3613
vn -0.4086 -0.8842 -0.2261
vn -0.5037 -0.8639 -0.0000
vn -0.7300 -0.5579 0.3947
vn -0.3057 -0.6349 0.7096
vn 0.3057 -0.6349 0.7096
vn 0.7300 -0.5579 0.3947
vn 0.5037 -0.8639 -0.0000
vn 0.7300 -0.5579 -0.3947
vn 0.3057 -0.6349 -0.7096
vn -0.3057 -0.6349 -0.7096
vn -0.7300 -0.5579 -0.3947
vn -0.8522 -0.5231 -0.0000
vn -0.5638 -0.7692 0.3008
vn -0.2535 -0.7731 0.5814
vn 0.2535 -0.7731 0.5814
vn 0.5638 -0.7692 0.3008
vn 0.8522 -0.5231 -0.0000
vn 0.5638 -0.7692 -0.3008
vn 0.2535 -0.7731 -0.5814
vn -0.2535 -0.7731 -0.5814
vn -0.5638 -0.7692 -0.3008
vn -0.6412 -0.7674 -0.0000
vn -0.0000 -1.0000 -0.0000
vn 0.6412 -0.7674 -0.0000
vt 0.050000 0.027516
vt 0.000000 0.028746
vt 0.100000 0.028746
vt 0.150000 0.027516
vt 0.200000 0.028746
vt 0.250000 0.027516
vt 0.300000 0.028746
vt 0.350000 0.027516
vt 0.400000 0.028746
vt 0.450000 0.027516
vt 0.500000 0.028746
vt 0.550000 0.027516
vt 0.600000 0.028746
vt 0.650000 0.027516
vt 0.700000 0.028746
vt 0.750000 0.027516
vt 0.800000 0.028746
vt 0.850000 0.027516
vt 0.900000 0.028746
vt 0.950000 0.027516
vt 1.000000 0.028746
vt 0.000000 0.039739
vt 0.100000 0.039739
vt 0.200000 0.039739
vt 0.400000 0.039739
vt 0.500000 0.039739
vt 0.600000 0.039739
vt 0.700000 0.039739
vt 0.900000 0.039739
vt 1.000000 0.039739
vt 0.000000 0.111350
vt 0.100000 0.111350
vt 0.200000 0.111350
vt 0.300000 0.039739
vt 0.400000 0.111350
vt 0.500000 0.111350
vt 0.600000 0.111350
vt 0.700000 0.111350
vt 0.800000 0.039739
vt 0.900000 0.111350
vt 1.000000 0.111350
vt 0.000000 0.134070
vt 0.100000 0.134070
vt 0.200000 0.134070
vt 0.300000 0.111350
vt 0.400000 0.134070
vt 0.500000 0.134070
vt 0.600000 0.134070
vt 0.700000 0.134070
vt 0.800000 0.111350
vt 0.900000 0.134070
vt 1.000000 0.134070
vt 0.000000 0.135544
vt 0.100000 0.135544
vt 0.300000 0.135544
vt 0.300000 0.134070
vt 0.400000 0.135544
vt 0.500000 0.135544
vt 0.600000 0.135544
vt 0.700000 0.135544
vt 0.800000 0.134070
vt 0.900000 0.135544
vt 1.000000 0.135544
vt 0.000000 0.129102
vt 0.100000 0.129102
vt 0.200000 0.135544
vt 0.200000 0.129102
vt 0.400000 0.129102
vt 0.500000 0.129102
vt 0.600000 0.129102
vt 0.700000 0.129102
vt 0.800000 0.135544
vt 0.900000 0.129102
vt 1.000000 0.129102
vt 0.100000 0.113672
vt 0.200000 0.113672
vt 0.300000 0.129102
vt 0.300000 0.113672
vt 0.400000 0.113672
vt 0.600000 0.113672
vt 0.700000 0.113672
vt 0.800000 0.129102
vt 0.800000 0.113672
vt 0.900000 0.113672
vt 0.000000 0.113672
vt 0.100000 0.108253
vt 0.200000 0.108253
vt 0.300000 0.108253
vt 0.400000 0.108253
vt 0.500000 0.113672
vt 0.600000 0.108253
vt 0.700000 0.108253
vt 0.800000 0.108253
vt 0.900000 0.108253
vt 1.000000 0.113672
vt 0.000000 0.108253
vt 0.100000 0.095608
vt 0.200000 0.095608
vt 0.300000 0.095608
vt 0.400000 0.095608
vt 0.500000 0.108253
vt 0.600000 0.095608
vt 0.700000 0.095608
vt 0.800000 0.095608
vt 0.900000 0.095608
vt 1.000000 0.108253
vt 0.000000 0.095608
vt 0.100000 0.000169
vt 0.200000 0.000169
vt 0.300000 0.000169
vt 0.400000 0.000169
vt 0.500000 0.095608
vt 0.600000 0.000169
vt 0.700000 0.000169
vt 0.800000 0.000169
vt 0.900000 0.000169
vt 1.000000 0.095608
vt 0.000000 0.000169
vt 0.050000 -0.000132
vt 0.150000 -0.000132
vt 0.250000 -0.000132
vt 0.350000 -0.000132
vt 0.450000 -0.000132
vt 0.500000 0.000169
vt 0.550000 -0.000132
vt 0.650000 -0.000132
vt 0.750000 -0.000132
vt 0.850000 -0.000132
vt 0.950000 -0.000132
vt 1.000000 0.000169
s 1
f 1/1/1 2/2/2 13/3/3
f 1/4/1 13/3/3 23/5/4
f 1/6/1 23/5/4 33/7/5
f 1/8/1 33/7/5 43/9/6
f 1/10/1 43/9/6 53/11/7
f 1/12/1 53/11/7 63/13/8
f 1/14/1 63/13/8 73/15/9
f 1/16/1 73/15/9 83/17/10
f 1/18/1 83/17/10 93/19/11
f 1/20/1 93/19/11 2/21/2
f 3/22/12 13/3/3 2/2/2
f 14/23/13 23/5/4 13/3/3
f 24/24/14 33/7/5 23/5/4
f 33/7/5 44/25/15 43/9/6
f 43/9/6 54/26/16 53/11/7
f 54/26/16 63/13/8 53/11/7
f 64/27/17 73/15/9 63/13/8
f 74/28/18 83/17/10 73/15/9
f 83/17/10 94/29/19 93/19/11
f 93/19/11 3/30/12 2/21/2
f 4/31/20 14/23/13 3/22/12
f 15/32/21 24/24/14 14/23/13
f 25/33/22 34/34/23 24/24/14
f 34/34/23 45/35/24 44/25/15
f 44/25/15 55/36/25 54/26/16
f 55/36/25 64/27/17 54/26/16
f 65/37/26 74/28/18 64/27/17
f 75/38/27 84/39/28 74/28/18
f 84/39/28 95/40/29 94/29/19
f 94/29/19 4/41/20 3/30/12
f 5/42/30 15/32/21 4/31/20
f 16/43/31 25/33/22 15/32/21
f 26/44/32 35/45/33 25/33/22
f 35/45/33 46/46/34 45/35/24
f 45/35/24 56/47/35 55/36/25
f 56/47/35 65/37/26 55/36/25
f 66/48/36 75/38/27 65/37/26
f 76/49/37 85/50/38 75/38/27
f 85/50/38 96/51/39 95/40/29
f 95/40/29 5/52/30 4/41/20
f 6/53/40 16/43/31 5/42/30
f 17/54/41 26/44/32 16/43/31
f 26/44/32 37/55/42 36/56/43
f 36/56/43 47/57/44 46/46/34
f 46/46/34 57/58/45 56/47/35
f 57/58/45 66/48/36 56/47/35
f 67/59/46 76/49/37 66/48/36
f 77/60/47 86/61/48 76/49/37
f 86/61/48 97/62/49 96/51/39
f 96/51/39 6/63/40 5/52/30
f 7/64/50 17/54/41 6/53/40
f 18/65/51 27/66/52 17/54/41
f 28/67/53 37/55/42 27/66/52
f 37/55/42 48/68/54 47/57/44
f 47/57/44 58/69/55 57/58/45
f 58/69/55 67/59/46 57/58/45
f 68/70/56 77/60/47 67/59/46
f 78/71/57 87/72/58 77/60/47
f 87/72/58 98/73/59 97/62/49
f 97/62/49 7/74/50 6/63/40
f 7/64/50 19/75/60 18/65/51
f 18/65/51 29/76/61 28/67/53
f 29/76/61 38/77/62 28/67/53
f 39/78/63 48/68/54 38/77/62
f 49/79/64 58/69/55 48/68/54
f 58/69/55 69/80/65 68/70/56
f 68/70/56 79/81/66 78/71/57
f 79/81/66 88/82/67 78/71/57
f 89/83/68 98/73/59 88/82/67
f 99/84/69 7/74/50 98/73/59
f 8/85/70 20/86/71 19/75/60
f 19/75/60 30/87/72 29/76/61
f 30/87/72 39/78/63 29/76/61
f 40/88/73 49/79/64 39/78/63
f 50/89/74 59/90/75 49/79/64
f 59/90/75 70/91/76 69/80/65
f 69/80/65 80/92/77 79/81/66
f 80/92/77 89/83/68 79/81/66
f 90/93/78 99/84/69 89/83/68
f 100/94/79 8/95/70 99/84/69
f 9/96/80 21/97/81 20/86/71
f 20/86/71 31/98/82 30/87/72
f 31/98/82 40/88/73 30/87/72
f 41/99/83 50/89/74 40/88/73
f 51/100/84 60/101/85 50/89/74
f 60/101/85 71/102/86 70/91/76
f 70/91/76 81/103/87 80/92/77
f 81/103/87 90/93/78 80/92/77
f 91/104/88 100/94/79 90/93/78
f 101/105/89 9/106/80 100/94/79
f 10/107/90 22/108/91 21/97/81
f 21/97/81 32/109/92 31/98/82
f 32/109/92 41/99/83 31/98/82
f 42/110/93 51/100/84 41/99/83
f 52/111/94 61/112/95 51/100/84
f 61/112/95 72/113/96 71/102/86
f 71/102/86 82/114/97 81/103/87
f 82/114/97 91/104/88 81/103/87
f 92/115/98 101/105/89 91/104/88
f 102/116/99 10/117/90 101/105/89
f 11/118/100 12/119/101 22/108/91
f 22/108/91 12/120/101 32/109/92
f 32/109/92 12/121/101 42/110/93
f 42/110/93 12/122/101 52/111/94
f 52/111/94 12/123/101 62/124/102
f 62/124/102 12/125/101 72/113/96
f 72/113/96 12/126/101 82/114/97
f 82/114/97 12/127/101 92/115/98
f 92/115/98 12/128/101 102/116/99
f 102/116/99 12/129/101 11/130/100
f 3/22/12 14/23/13 13/3/3
f 14/23/13 24/24/14 23/5/4
f 24/24/14 34/34/23 33/7/5
f 33/7/5 34/34/23 44/25/15
f 43/9/6 44/25/15 54/26/16
f 54/26/16 64/27/17 63/13/8
f 64/27/17 74/28/18 73/15/9
f 74/28/18 84/39/28 83/17/10
f 83/17/10 84/39/28 94/29/19
f 93/19/11 94/29/19 3/30/12
f 4/31/20 15/32/21 14/23/13
f 15/32/21 25/33/22 24/24/14
f 25/33/22 35/45/33 34/34/23
f 34/34/23 35/45/33 45/35/24
f 44/25/15 45/35/24 55/36/25
f 55/36/25 65/37/26 64/27/17
f 65/37/26 75/38/27 74/28/18
f 75/38/27 85/50/38 84/39/28
f 84/39/28 85/50/38 95/40/29
f 94/29/19 95/40/29 4/41/20
f 5/42/30 16/43/31 15/32/21
f 16/43/31 26/44/32 25/33/22
f 26/44/32 36/56/43 35/45/33
f 35/45/33 36/56/43 46/46/34
f 45/35/24 46/46/34 56/47/35
f 56/47/35 66/48/36 65/37/26
f 66/48/36 76/49/37 75/38/27
f 76/49/37 86/61/48 85/50/38
f 85/50/38 86/61/48 96/51/39
f 95/40/29 96/51/39 5/52/30
f 6/53/40 17/54/41 16/43/31
f 17/54/41 27/66/52 26/44/32
f 26/44/32 27/66/52 37/55/42
f 36/56/43 37/55/42 47/57/44
f 46/46/34 47/57/44 57/58/45
f 57/58/45 67/59/46 66/48/36
f 67/59/46 77/60/47 76/49/37
f 77/60/47 87/72/58 86/61/48
f 86/61/48 87/72/58 97/62/49
f 96/51/39 97/62/49 6/63/40
f 7/64/50 18/65/51 17/54/41
f 18/65/51 28/67/53 27/66/52
f 28/67/53 38/77/62 37/55/42
f 37/55/42 38/77/62 48/68/54
f 47/57/44 48/68/54 58/69/55
f 58/69/55 68/70/56 67/59/46
f 68/70/56 78/71/57 77/60/47
f 78/71/57 88/82/67 87/72/58
f 87/72/58 88/82/67 98/73/59
f 97/62/49 98/73/59 7/74/50
f 7/64/50 8/85/70 19/75/60
f 18/65/51 19/75/60 29/76/61
f 29/76/61 39/78/63 38/77/62
f 39/78/63 49/79/64 48/68/54
f 49/79/64 59/90/75 58/69/55
f 58/69/55 59/90/75 69/80/65
f 68/70/56 69/80/65 79/81/66
f 79/81/66 89/83/68 88/82/67
f 89/83/68 99/84/69 98/73/59
f 99/84/69 8/95/70 7/74/50
f 8/85/70 9/96/80 20/86/71
f 19/75/60 20/86/71 30/87/72
f 30/87/72 40/88/73 39/78/63
f 40/88/73 50/89/74 49/79/64
f 50/89/74 60/101/85 59/90/75
f 59/90/75 60/101/85 70/91/76
f 69/80/65 70/91/76 80/92/77
f 80/92/77 90/93/78 89/83/68
f 90/93/78 100/94/79 99/84/69
f 100/94/79 9/106/80 8/95/70
f 9/96/80 10/107/90 21/97/81
f 20/86/71 21/97/81 31/98/82
f 31/98/82 41/99/83 40/88/73
f 41/99/83 51/100/84 50/89/74
f 51/100/84 61/112/95 60/101/85
f 60/101/85 61/112/95 71/102/86
f 70/91/76 71/102/86 81/103/87
f 81/103/87 91/104/88 90/93/78
f 91/104/88 101/105/89 100/94/79
f 101/105/89 10/117/90 9/106/80
f 10/107/90 11/118/100 22/108/91
f 21/97/81 22/108/91 32/109/92
f 32/109/92 42/110/93 41/99/83
f 42/110/93 52/111/94 51/100/84
f 52/111/94 62/124/102 61/112/95
f 61/112/95 62/124/102 72/113/96
f 71/102/86 72/113/96 82/114/97
f 82/114/97 92/115/98 91/104/88
f 92/115/98 102/116/99 101/105/89
f 102/116/99 11/130/100 10/117/90
