# Blender 4.0.2
# www.blender.org
mtllib ChainlinkHook.mtl
o ChainlinkHook
v 0.000000 -0.003119 0.012722
v -0.026409 -0.010133 0.026260
v -0.026409 -0.024162 0.053336
v 0.000000 -0.031176 0.066874
v 0.026409 -0.024162 0.053336
v 0.026409 -0.010133 0.026260
v 0.000000 0.004513 0.013912
v -0.026409 0.012572 0.026855
v -0.026409 0.028691 0.052741
v 0.000000 0.036750 0.065684
v 0.026409 0.028691 0.052741
v 0.026409 0.012572 0.026855
v 0.000000 0.009763 -0.000424
v -0.026409 0.025010 -0.000272
v -0.026409 0.055503 0.000031
v 0.000000 0.070749 0.000183
v 0.026409 0.055503 0.000031
v 0.026409 0.025010 -0.000272
v 0.000000 0.006479 -0.011646
v -0.026409 0.014667 -0.024508
v -0.026409 0.031043 -0.050232
v 0.000000 0.039231 -0.063095
v 0.026409 0.031043 -0.050232
v 0.026409 0.014667 -0.024508
v 0.000000 -0.003287 -0.010208
v -0.026409 -0.010217 -0.023789
v -0.026409 -0.024078 -0.050951
v 0.000000 -0.031008 -0.064532
v 0.026409 -0.024078 -0.050951
v 0.026409 -0.010217 -0.023789
v 0.000000 -0.018942 0.017053
v -0.026409 -0.056741 -0.008707
v 0.000000 -0.069340 -0.017294
v 0.026409 -0.056741 -0.008707
v 0.000000 -0.067491 0.090084
v -0.026409 -0.077111 0.078254
v -0.026409 -0.096351 0.054595
v 0.000000 -0.105971 0.042766
v 0.026409 -0.096351 0.054595
v 0.026409 -0.077111 0.078254
v 0.000000 -0.143277 0.117882
v -0.026409 -0.142560 0.102652
v -0.026409 -0.141125 0.072191
v 0.000000 -0.140408 0.056961
v 0.026409 -0.141125 0.072191
v 0.026409 -0.142560 0.102652
v 0.000000 -0.205470 0.086291
v -0.025067 -0.194945 0.076358
v -0.025067 -0.173895 0.056492
v 0.000000 -0.163370 0.046558
v 0.025067 -0.173895 0.056492
v 0.025067 -0.194945 0.076358
v 0.000000 -0.230526 0.016560
v -0.021564 -0.218076 0.016433
v -0.021564 -0.193177 0.016178
v 0.000000 -0.180728 0.016051
v 0.021564 -0.193177 0.016178
v 0.021564 -0.218076 0.016433
v 0.000000 -0.201298 -0.053871
v -0.020780 -0.192859 -0.045343
v -0.020780 -0.175981 -0.028287
v 0.000000 -0.167542 -0.019759
v 0.020780 -0.175981 -0.028287
v 0.020780 -0.192859 -0.045343
v 0.000000 -0.127700 -0.069074
v -0.008321 -0.125966 -0.064594
v -0.008321 -0.122497 -0.055634
v 0.000000 -0.120763 -0.051154
v 0.008321 -0.122497 -0.055634
v 0.008321 -0.125966 -0.064594
v -0.026409 -0.026825 0.001331
v 0.000000 -0.042391 0.052325
v 0.026409 -0.043643 0.026998
v -0.026409 -0.043643 0.026998
v 0.026409 -0.026825 0.001331
v 0.000000 -0.010096 0.001649
vn 0.4611 0.7373 -0.4937
vn -0.4611 0.7373 -0.4937
vn -1.0000 -0.0000 -0.0000
vn -0.4698 -0.7097 0.5249
vn 0.4698 -0.7097 0.5249
vn 1.0000 -0.0000 -0.0000
vn 0.4802 0.1351 -0.8667
vn -0.4802 0.1351 -0.8667
vn -0.4540 0.0100 0.8909
vn 0.4540 0.0100 0.8909
vn 0.4340 -0.8190 -0.3755
vn -0.4340 -0.8190 -0.3755
vn -0.4448 0.7949 0.4126
vn 0.4448 0.7949 0.4126
vn 0.4836 -0.8401 0.2458
vn -0.4836 -0.8401 0.2458
vn -0.4590 0.7989 -0.3888
vn 0.4590 0.7989 -0.3888
vn 0.4312 0.0261 0.9019
vn -0.4312 0.0261 0.9019
vn -0.4424 0.0184 -0.8966
vn 0.4424 0.0184 -0.8966
vn 0.4718 0.7355 0.4863
vn -0.4855 0.7581 0.4354
vn -0.4668 -0.6867 -0.5572
vn 0.4668 -0.6867 -0.5572
vn 0.4907 0.7293 0.4768
vn -0.4955 0.7234 0.4809
vn -0.4995 -0.7396 -0.4511
vn 0.4995 -0.7396 -0.4511
vn 0.4799 0.3065 0.8221
vn -0.4799 0.3065 0.8221
vn -0.4839 -0.3335 -0.8091
vn 0.4839 -0.3335 -0.8091
vn 0.4659 -0.4007 0.7889
vn -0.4659 -0.4007 0.7889
vn -0.9997 -0.0250 -0.0012
vn -0.4725 0.3650 -0.8022
vn 0.4725 0.3650 -0.8022
vn 0.9997 -0.0250 -0.0012
vn 0.4668 -0.8338 0.2946
vn -0.4668 -0.8338 0.2946
vn -0.9966 -0.0563 -0.0597
vn -0.4892 0.7580 -0.4313
vn 0.4892 0.7580 -0.4313
vn 0.9966 -0.0563 -0.0597
vn 0.4689 -0.8157 -0.3389
vn -0.4689 -0.8157 -0.3389
vn -0.9998 -0.0002 -0.0177
vn -0.4750 0.8258 0.3041
vn 0.4750 0.8258 0.3041
vn 0.9998 -0.0002 -0.0177
vn 0.4357 -0.1821 -0.8815
vn -0.4357 -0.1821 -0.8815
vn -0.9798 0.1421 -0.1406
vn -0.4932 0.4844 0.7226
vn 0.4932 0.4844 0.7226
vn 0.9798 0.1421 -0.1406
vn 0.4458 0.7574 -0.4772
vn -0.4458 0.7574 -0.4772
vn -0.4637 -0.7017 0.5409
vn 0.4637 -0.7017 0.5409
vn 0.4341 0.0236 -0.9005
vn -0.4341 0.0236 -0.9005
vn -0.4439 0.0157 0.8959
vn 0.4439 0.0157 0.8959
vn 0.4779 -0.8248 -0.3021
vn -0.4779 -0.8248 -0.3021
vn -0.4594 0.7917 0.4027
vn 0.4594 0.7917 0.4027
vn 0.4300 -0.8304 0.3544
vn -0.4300 -0.8304 0.3544
vn -0.4434 0.8023 -0.3996
vn 0.4434 0.8023 -0.3996
vn 0.4799 0.1278 0.8680
vn -0.4799 0.1278 0.8680
vn -0.4549 0.0116 -0.8905
vn 0.4549 0.0116 -0.8905
vn 0.4354 0.7807 0.4483
vn 0.4855 0.7581 0.4354
vn -0.4490 0.7454 0.4928
vn -0.4993 -0.6854 -0.5300
vn 0.4993 -0.6854 -0.5300
vn 0.5005 0.7210 0.4793
vn 0.4828 0.7293 0.4848
vn -0.4991 0.7248 0.4749
vn -0.4819 0.7337 0.4791
vn -0.4795 -0.7439 -0.4655
vn 0.4795 -0.7439 -0.4655
vn 0.4697 0.3040 0.8288
vn -0.4697 0.3040 0.8288
vn -0.4661 -0.3236 -0.8234
vn 0.4661 -0.3236 -0.8234
vn 0.4785 -0.4037 0.7798
vn -0.4785 -0.4037 0.7798
vn -0.9992 -0.0271 -0.0288
vn -0.4712 0.3640 -0.8034
vn 0.4712 0.3640 -0.8034
vn 0.9992 -0.0271 -0.0288
vn 0.4788 -0.8262 0.2969
vn -0.4788 -0.8262 0.2969
vn -0.9983 -0.0006 -0.0581
vn -0.4565 0.7865 -0.4159
vn 0.4565 0.7865 -0.4159
vn 0.9983 -0.0006 -0.0581
vn 0.4699 -0.8153 -0.3383
vn -0.4699 -0.8153 -0.3383
vn -0.9999 0.0091 -0.0090
vn -0.4646 0.8286 0.3123
vn 0.4646 0.8286 0.3123
vn 0.9999 0.0091 -0.0090
vn 0.4932 -0.1545 -0.8561
vn -0.4932 -0.1545 -0.8561
vn -0.9789 0.1904 -0.0737
vn -0.4907 0.4856 0.7235
vn 0.4907 0.4856 0.7235
vn 0.9789 0.1904 -0.0737
vt 0.053651 1.000000
vt 0.083333 0.833333
vt 0.000000 0.833333
vt 0.083333 0.166667
vt 0.000000 0.000000
vt 0.019251 0.166667
vt 0.020757 0.333333
vt 0.000000 0.231862
vt 0.050028 0.500000
vt 0.083333 0.333333
vt 0.000000 0.333333
vt 0.083333 0.666667
vt 0.000000 0.500000
vt 0.020757 0.666667
vt 0.000000 0.666667
vt 0.019251 0.833333
vt 0.166667 1.000000
vt 0.083333 1.000000
vt 0.166667 0.000000
vt 0.083333 0.000000
vt 0.166667 0.166667
vt 0.083333 0.500000
vt 0.166667 0.333333
vt 0.166667 0.666667
vt 0.166667 0.833333
vt 0.250000 0.833333
vt 0.250000 0.166667
vt 0.250000 0.333333
vt 0.250000 0.500000
vt 0.166667 0.500000
vt 0.250000 0.666667
vt 0.333333 1.000000
vt 0.250000 1.000000
vt 0.333333 0.000000
vt 0.250000 0.000000
vt 0.333333 0.166667
vt 0.333333 0.333333
vt 0.333333 0.666667
vt 0.333333 0.833333
vt 0.416667 0.833333
vt 0.416667 0.166667
vt 0.416667 0.333333
vt 0.416667 0.500000
vt 0.333333 0.500000
vt 0.416667 0.666667
vt 0.452911 1.000000
vt 0.481567 0.833333
vt 0.500000 0.166667
vt 0.452911 0.000000
vt 0.416667 0.000000
vt 0.500000 0.333333
vt 0.500000 0.500000
vt 0.500000 0.666667
vt 0.540248 1.000000
vt 0.583333 0.833333
vt 0.500000 0.833333
vt 0.522129 0.166667
vt 0.583333 0.000000
vt 0.500000 0.000000
vt 0.583333 0.333333
vt 0.519335 0.223067
vt 0.500000 0.215889
vt 0.583333 0.500000
vt 0.583333 1.000000
vt 0.666667 0.833333
vt 0.666667 0.166667
vt 0.583333 0.166667
vt 0.666667 0.333333
vt 0.666667 0.500000
vt 0.583333 0.666667
vt 0.666667 0.666667
vt 0.750000 1.000000
vt 0.666667 1.000000
vt 0.750000 0.000000
vt 0.666667 0.000000
vt 0.750000 0.166667
vt 0.750000 0.333333
vt 0.750000 0.666667
vt 0.750000 0.833333
vt 0.833333 0.833333
vt 0.833333 0.166667
vt 0.833333 0.333333
vt 0.833333 0.500000
vt 0.750000 0.500000
vt 0.833333 0.666667
vt 0.833333 1.000000
vt 0.916667 0.833333
vt 0.916667 0.166667
vt 0.833333 0.000000
vt 0.916667 0.333333
vt 0.916667 0.500000
vt 0.916667 0.666667
vt 1.000000 1.000000
vt 0.916667 1.000000
vt 1.000000 0.000000
vt 0.916667 0.000000
vt 1.000000 0.166667
vt 1.000000 0.333333
vt 1.000000 0.666667
vt 1.000000 0.833333
vt 0.522129 0.833333
vt 0.416667 1.000000
vt 0.500000 1.000000
vt 0.481567 0.166667
vt 0.500000 0.784111
vt 0.540248 0.000000
vt 1.000000 0.500000
s 0
f 76/1/1 6/2/1 75/3/1
f 2/4/2 76/5/2 71/6/2
f 74/7/3 2/4/3 71/8/3
f 72/9/4 3/10/4 74/11/4
f 5/12/5 72/13/5 73/14/5
f 6/2/6 73/15/6 75/16/6
f 7/17/7 6/2/7 1/18/7
f 2/4/8 7/19/8 1/20/8
f 3/10/3 8/21/3 2/4/3
f 4/22/9 9/23/9 3/10/9
f 11/24/10 4/22/10 5/12/10
f 12/25/6 5/12/6 6/2/6
f 7/17/11 18/26/11 12/25/11
f 14/27/12 7/19/12 8/21/12
f 15/28/3 8/21/3 9/23/3
f 16/29/13 9/23/13 10/30/13
f 11/24/14 16/29/14 10/30/14
f 12/25/6 17/31/6 11/24/6
f 19/32/15 18/26/15 13/33/15
f 14/27/16 19/34/16 13/35/16
f 15/28/3 20/36/3 14/27/3
f 16/29/17 21/37/17 15/28/17
f 23/38/18 16/29/18 17/31/18
f 24/39/6 17/31/6 18/26/6
f 19/32/19 30/40/19 24/39/19
f 26/41/20 19/34/20 20/36/20
f 27/42/3 20/36/3 21/37/3
f 28/43/21 21/37/21 22/44/21
f 23/38/22 28/43/22 22/44/22
f 24/39/6 29/45/6 23/38/6
f 76/46/23 75/47/23 30/40/23
f 71/48/24 76/49/24 25/50/24
f 32/51/3 26/41/3 27/42/3
f 33/52/25 27/42/25 28/43/25
f 29/45/26 33/52/26 28/43/26
f 30/40/6 34/53/6 29/45/6
f 72/54/27 40/55/27 75/56/27
f 74/57/28 35/58/28 31/59/28
f 37/60/3 74/61/3 71/62/3
f 38/63/29 32/51/29 33/52/29
f 34/53/30 38/63/30 33/52/30
f 35/64/31 46/65/31 40/55/31
f 42/66/32 35/58/32 36/67/32
f 43/68/3 36/67/3 37/60/3
f 44/69/33 37/60/33 38/63/33
f 39/70/34 44/69/34 38/63/34
f 40/55/6 45/71/6 39/70/6
f 47/72/35 46/65/35 41/73/35
f 42/66/36 47/74/36 41/75/36
f 43/68/37 48/76/37 42/66/37
f 44/69/38 49/77/38 43/68/38
f 51/78/39 44/69/39 45/71/39
f 52/79/40 45/71/40 46/65/40
f 47/72/41 58/80/41 52/79/41
f 54/81/42 47/74/42 48/76/42
f 55/82/43 48/76/43 49/77/43
f 56/83/44 49/77/44 50/84/44
f 51/78/45 56/83/45 50/84/45
f 52/79/46 57/85/46 51/78/46
f 53/86/47 64/87/47 58/80/47
f 60/88/48 53/89/48 54/81/48
f 61/90/49 54/81/49 55/82/49
f 62/91/50 55/82/50 56/83/50
f 57/85/51 62/91/51 56/83/51
f 58/80/52 63/92/52 57/85/52
f 65/93/53 64/87/53 59/94/53
f 60/88/54 65/95/54 59/96/54
f 61/90/55 66/97/55 60/88/55
f 62/91/56 67/98/56 61/90/56
f 69/99/57 62/91/57 63/92/57
f 70/100/58 63/92/58 64/87/58
f 73/101/6 39/70/6 34/53/6
f 76/1/59 1/18/59 6/2/59
f 2/4/60 1/20/60 76/5/60
f 74/7/3 3/10/3 2/4/3
f 72/9/61 4/22/61 3/10/61
f 5/12/62 4/22/62 72/13/62
f 6/2/6 5/12/6 73/15/6
f 7/17/63 12/25/63 6/2/63
f 2/4/64 8/21/64 7/19/64
f 3/10/3 9/23/3 8/21/3
f 4/22/65 10/30/65 9/23/65
f 11/24/66 10/30/66 4/22/66
f 12/25/6 11/24/6 5/12/6
f 7/17/67 13/33/67 18/26/67
f 14/27/68 13/35/68 7/19/68
f 15/28/3 14/27/3 8/21/3
f 16/29/69 15/28/69 9/23/69
f 11/24/70 17/31/70 16/29/70
f 12/25/6 18/26/6 17/31/6
f 19/32/71 24/39/71 18/26/71
f 14/27/72 20/36/72 19/34/72
f 15/28/3 21/37/3 20/36/3
f 16/29/73 22/44/73 21/37/73
f 23/38/74 22/44/74 16/29/74
f 24/39/6 23/38/6 17/31/6
f 19/32/75 25/102/75 30/40/75
f 26/41/76 25/50/76 19/34/76
f 27/42/3 26/41/3 20/36/3
f 28/43/77 27/42/77 21/37/77
f 23/38/78 29/45/78 28/43/78
f 24/39/6 30/40/6 29/45/6
f 30/40/79 25/102/79 76/46/79
f 76/46/80 31/103/80 75/47/80
f 25/50/81 26/41/81 71/48/81
f 71/48/24 31/59/24 76/49/24
f 32/51/3 71/104/3 26/41/3
f 33/52/82 32/51/82 27/42/82
f 29/45/83 34/53/83 33/52/83
f 30/40/6 75/105/6 34/53/6
f 75/56/84 31/103/84 72/54/84
f 72/54/85 35/64/85 40/55/85
f 40/55/6 73/101/6 75/56/6
f 31/59/86 71/48/86 74/57/86
f 74/57/87 36/67/87 35/58/87
f 35/58/3 72/106/3 31/59/3
f 71/62/3 32/51/3 37/60/3
f 37/60/3 36/67/3 74/61/3
f 38/63/88 37/60/88 32/51/88
f 34/53/89 39/70/89 38/63/89
f 35/64/90 41/73/90 46/65/90
f 42/66/91 41/75/91 35/58/91
f 43/68/3 42/66/3 36/67/3
f 44/69/92 43/68/92 37/60/92
f 39/70/93 45/71/93 44/69/93
f 40/55/6 46/65/6 45/71/6
f 47/72/94 52/79/94 46/65/94
f 42/66/95 48/76/95 47/74/95
f 43/68/96 49/77/96 48/76/96
f 44/69/97 50/84/97 49/77/97
f 51/78/98 50/84/98 44/69/98
f 52/79/99 51/78/99 45/71/99
f 47/72/100 53/86/100 58/80/100
f 54/81/101 53/89/101 47/74/101
f 55/82/102 54/81/102 48/76/102
f 56/83/103 55/82/103 49/77/103
f 51/78/104 57/85/104 56/83/104
f 52/79/105 58/80/105 57/85/105
f 53/86/106 59/94/106 64/87/106
f 60/88/107 59/96/107 53/89/107
f 61/90/108 60/88/108 54/81/108
f 62/91/109 61/90/109 55/82/109
f 57/85/110 63/92/110 62/91/110
f 58/80/111 64/87/111 63/92/111
f 65/93/112 70/100/112 64/87/112
f 60/88/113 66/97/113 65/95/113
f 61/90/114 67/98/114 66/97/114
f 62/91/115 68/107/115 67/98/115
f 69/99/116 68/107/116 62/91/116
f 70/100/117 69/99/117 63/92/117
f 34/53/6 75/105/6 73/101/6
f 73/101/6 40/55/6 39/70/6
