# Blender 4.0.2
# www.blender.org
mtllib SmokeDetector.mtl
o SmokeDetector
v -0.000000 -0.019457 -0.117438
v -0.000000 -0.009457 -0.127952
v -0.000000 0.067407 -0.143213
v -0.000000 0.057407 -0.153728
v 0.075208 -0.009457 -0.103516
v 0.069028 -0.019457 -0.095009
v 0.084179 0.067407 -0.115862
v 0.090359 0.057407 -0.124369
v 0.121690 -0.009457 -0.039539
v 0.111690 -0.019457 -0.036290
v 0.136204 0.067407 -0.044255
v 0.146204 0.057407 -0.047505
v 0.121690 -0.009457 0.039539
v 0.111690 -0.019457 0.036290
v 0.136204 0.067407 0.044255
v 0.146204 0.057407 0.047505
v 0.075208 -0.009457 0.103516
v 0.069028 -0.019457 0.095009
v 0.084179 0.067407 0.115862
v 0.090359 0.057407 0.124369
v -0.000000 -0.009457 0.127952
v -0.000000 -0.019457 0.117438
v -0.000000 0.067407 0.143213
v -0.000000 0.057407 0.153728
v -0.075208 -0.009457 0.103516
v -0.069028 -0.019457 0.095009
v -0.084179 0.067407 0.115862
v -0.090359 0.057407 0.124369
v -0.121690 -0.009457 0.039539
v -0.111690 -0.019457 0.036290
v -0.136204 0.067407 0.044255
v -0.146204 0.057407 0.047505
v -0.121690 -0.009457 -0.039539
v -0.111690 -0.019457 -0.036290
v -0.136204 0.067407 -0.044255
v -0.146204 0.057407 -0.047505
v -0.075208 -0.009457 -0.103516
v -0.069028 -0.019457 -0.095009
v -0.084179 0.067407 -0.115862
v -0.090359 0.057407 -0.124369
v -0.000000 -0.009457 -0.143213
v -0.000000 0.000543 -0.153728
v 0.090359 0.000543 -0.124369
v 0.084179 -0.009457 -0.115862
v 0.146204 0.000543 -0.047505
v 0.136204 -0.009457 -0.044255
v 0.146204 0.000543 0.047505
v 0.136204 -0.009457 0.044255
v 0.090359 0.000543 0.124369
v 0.084179 -0.009457 0.115862
v -0.000000 0.000543 0.153728
v -0.000000 -0.009457 0.143213
v -0.090359 0.000543 0.124369
v -0.084179 -0.009457 0.115862
v -0.146204 0.000543 0.047505
v -0.136204 -0.009457 0.044255
v -0.146204 0.000543 -0.047505
v -0.136204 -0.009457 -0.044255
v -0.090359 0.000543 -0.124369
v -0.084179 -0.009457 -0.115862
v -0.000000 -0.048494 -0.106923
v -0.000000 -0.038494 -0.117438
v 0.069028 -0.038494 -0.095009
v 0.062848 -0.048494 -0.086503
v 0.111690 -0.038494 -0.036290
v 0.101690 -0.048494 -0.033041
v 0.111690 -0.038494 0.036290
v 0.101690 -0.048494 0.033041
v 0.069028 -0.038494 0.095009
v 0.062848 -0.048494 0.086503
v -0.000000 -0.038494 0.117438
v -0.000000 -0.048494 0.106923
v -0.069028 -0.038494 0.095009
v -0.062848 -0.048494 0.086503
v -0.111690 -0.038494 0.036290
v -0.101690 -0.048494 0.033041
v -0.111690 -0.038494 -0.036290
v -0.101690 -0.048494 -0.033041
v -0.069028 -0.038494 -0.095009
v -0.062848 -0.048494 -0.086503
vn -0.3090 -0.0000 -0.9511
vn 1.0000 -0.0000 -0.0000
vn 0.8090 -0.0000 0.5878
vn -0.0000 -1.0000 -0.0000
vn -0.3090 -0.0000 0.9511
vn -0.8090 -0.0000 0.5878
vn -1.0000 -0.0000 -0.0000
vn -0.8090 -0.0000 -0.5878
vn 0.3090 -0.0000 -0.9511
vn 0.8090 -0.0000 -0.5878
vn 0.3090 -0.0000 0.9511
vn -0.0000 1.0000 -0.0000
vn 0.2185 -0.7071 -0.6725
vn 0.2185 0.7071 -0.6725
vn 0.5721 -0.7071 -0.4156
vn 0.5721 0.7071 -0.4156
vn 0.7071 -0.7071 -0.0000
vn 0.7071 0.7071 -0.0000
vn 0.5721 -0.7071 0.4156
vn 0.5721 0.7071 0.4156
vn 0.2185 -0.7071 0.6725
vn 0.2185 0.7071 0.6725
vn -0.2185 -0.7071 0.6725
vn -0.2185 0.7071 0.6725
vn -0.5721 -0.7071 0.4156
vn -0.5721 0.7071 0.4156
vn -0.7071 -0.7071 -0.0000
vn -0.7071 0.7071 -0.0000
vn -0.5721 -0.7071 -0.4156
vn -0.5721 0.7071 -0.4156
vn -0.2185 -0.7071 -0.6725
vn -0.2185 0.7071 -0.6725
vt 0.100000 0.934950
vt -0.000000 0.565050
vt 0.100000 0.565050
vt 0.924370 0.193344
vt 0.924370 0.306656
vt 0.924370 0.306656
vt 0.857767 0.101672
vt 0.924370 0.193344
vt 0.750000 0.050241
vt 0.881420 0.069116
vt 0.750000 0.026415
vt 0.642233 0.101672
vt 0.750000 0.066656
vt 0.575630 0.193344
vt 0.642233 0.101672
vt 0.575630 0.306656
vt 0.575630 0.193344
vt 0.642233 0.398328
vt 1.000000 0.934950
vt 0.900000 0.565050
vt 1.000000 0.565050
vt 0.908758 0.198416
vt 0.591242 0.198416
vt 0.651882 0.385048
vt 0.924370 0.306656
vt 0.857767 0.398328
vt 0.857767 0.398328
vt 0.600000 0.934950
vt 0.500000 0.565050
vt 0.600000 0.565050
vt 0.750000 0.433344
vt 0.900000 0.934950
vt 0.800000 0.565050
vt 0.800000 0.934950
vt 0.700000 0.565050
vt 0.700000 0.934950
vt 0.700000 0.565050
vt 0.750000 0.066656
vt 0.857767 0.101672
vt 0.500000 0.934950
vt 0.400000 0.565050
vt 0.400000 0.934950
vt 0.300000 0.565050
vt 0.300000 0.934950
vt 0.200000 0.565050
vt 0.200000 0.934950
vt 0.200000 0.565050
vt 0.750000 0.449759
vt 0.881420 0.430884
vt 0.867415 0.411608
vt 0.962642 0.319091
vt 0.939982 0.311729
vt 0.560018 0.311729
vt 0.618580 0.430884
vt 0.632585 0.411608
vt 0.618580 0.069116
vt 0.632585 0.088392
vt 0.939982 0.188271
vt 0.962642 0.180909
vt 0.037358 0.319091
vt 0.381420 0.069116
vt 0.462642 0.319091
vt 0.632585 0.088392
vt 0.537358 0.180909
vt 0.560018 0.188271
vt 0.939982 0.188271
vt 0.867415 0.088392
vt 0.618580 0.430884
vt 0.750000 0.473585
vt 0.537358 0.180909
vt 0.537358 0.319091
vt 0.891068 0.444164
vt 0.750000 0.490000
vt 0.250000 0.490000
vt 0.381420 0.430884
vt 0.391068 0.444164
vt 0.978254 0.324164
vt 0.478254 0.324164
vt 0.978254 0.175836
vt 0.462642 0.180909
vt 0.478254 0.175836
vt 0.391068 0.055836
vt 0.750000 0.010000
vt 0.891068 0.055836
vt 0.250000 0.026415
vt 0.250000 0.010000
vt 0.608932 0.055836
vt 0.118580 0.069116
vt 0.108932 0.055836
vt 0.521746 0.175836
vt 0.618580 0.069116
vt 0.037358 0.180909
vt 0.021746 0.175836
vt 0.521746 0.324164
vt 0.021746 0.324164
vt 0.537358 0.319091
vt 0.108932 0.444164
vt 0.118580 0.430884
vt 0.608932 0.444164
vt 0.250000 0.473585
vt 0.750000 0.433344
vt 0.939982 0.311729
vt 0.867415 0.088392
vt 0.560018 0.188271
vt 0.632585 0.411608
vt 0.750000 0.416928
vt 0.750000 0.433344
vt 0.848118 0.385048
vt 0.908758 0.301584
vt 0.848118 0.114952
vt 0.750000 0.083072
vt 0.651882 0.114952
vt 0.591242 0.301584
vt -0.000000 0.934950
vt 0.900000 0.934950
vt 0.500000 0.934950
vt 0.800000 0.934950
vt 0.700000 0.934950
vt 0.400000 0.934950
vt 0.300000 0.934950
vt 0.200000 0.934950
s 0
f 40/1/1 42/2/1 59/3/1
f 14/4/2 65/5/2 10/6/2
f 18/7/3 67/4/3 14/8/3
f 21/9/4 50/10/4 52/11/4
f 26/12/5 71/13/5 22/13/5
f 30/14/6 73/12/6 26/15/6
f 34/16/7 75/14/7 30/17/7
f 38/18/8 77/16/8 34/16/8
f 4/19/9 43/20/9 42/21/9
f 68/22/4 76/23/4 80/24/4
f 10/25/10 63/26/10 6/27/10
f 20/28/11 51/29/11 49/30/11
f 1/31/1 79/18/1 38/18/1
f 8/32/10 45/33/10 43/20/10
f 12/34/2 47/35/2 45/33/2
f 16/36/3 49/30/3 47/37/3
f 22/38/11 69/39/11 18/7/11
f 24/40/5 53/41/5 51/29/5
f 28/42/6 55/43/6 53/41/6
f 32/44/7 57/45/7 55/43/7
f 36/46/8 59/3/8 57/47/8
f 2/48/4 44/49/4 5/50/4
f 5/50/4 46/51/4 9/52/4
f 33/53/4 60/54/4 37/55/4
f 21/9/4 54/56/4 25/57/4
f 13/58/4 46/51/4 48/59/4
f 35/60/12 19/61/12 11/62/12
f 25/63/4 56/64/4 29/65/4
f 13/66/4 50/10/4 17/67/4
f 2/48/4 60/68/4 41/69/4
f 33/53/4 56/70/4 58/71/4
f 43/72/13 41/69/13 42/73/13
f 4/74/14 7/75/14 8/76/14
f 45/77/15 44/49/15 43/72/15
f 8/76/16 11/62/16 12/78/16
f 47/79/17 46/51/17 45/77/17
f 12/78/18 15/80/18 16/81/18
f 47/79/19 50/10/19 48/59/19
f 20/82/20 15/80/20 19/61/20
f 51/83/21 50/10/21 49/84/21
f 20/82/22 23/85/22 24/86/22
f 53/87/23 52/11/23 51/83/23
f 24/86/24 27/88/24 28/89/24
f 55/90/25 54/91/25 53/87/25
f 28/89/26 31/92/26 32/93/26
f 57/94/27 56/70/27 55/90/27
f 32/93/28 35/60/28 36/95/28
f 57/94/29 60/54/29 58/96/29
f 40/97/30 35/60/30 39/98/30
f 42/73/31 60/68/31 59/99/31
f 40/97/32 3/100/32 4/74/32
f 5/50/13 1/101/13 2/48/13
f 9/52/15 6/27/15 5/50/15
f 13/58/17 10/6/17 9/102/17
f 17/67/19 14/8/19 13/66/19
f 21/9/21 18/7/21 17/103/21
f 25/57/23 22/13/23 21/9/23
f 29/65/25 26/15/25 25/63/25
f 33/53/27 30/17/27 29/104/27
f 37/55/29 34/16/29 33/53/29
f 2/48/31 38/18/31 37/105/31
f 63/27/13 61/106/13 62/107/13
f 65/25/15 64/108/15 63/26/15
f 65/5/17 68/22/17 66/109/17
f 69/7/19 68/22/19 67/4/19
f 71/38/21 70/110/21 69/39/21
f 73/15/23 72/111/23 71/13/23
f 75/14/25 74/112/25 73/12/25
f 75/14/27 78/113/27 76/23/27
f 79/18/29 78/113/29 77/16/29
f 62/31/31 80/24/31 79/18/31
f 6/26/9 62/107/9 1/101/9
f 40/1/1 4/114/1 42/2/1
f 14/4/2 67/8/2 65/5/2
f 18/7/3 69/7/3 67/4/3
f 21/9/4 17/103/4 50/10/4
f 26/12/5 73/15/5 71/13/5
f 30/14/6 75/14/6 73/12/6
f 34/16/7 77/16/7 75/14/7
f 38/18/8 79/18/8 77/16/8
f 4/19/9 8/115/9 43/20/9
f 80/24/4 61/106/4 64/108/4
f 64/108/4 66/109/4 68/22/4
f 68/22/4 70/110/4 72/111/4
f 72/111/4 74/112/4 76/23/4
f 76/23/4 78/113/4 80/24/4
f 80/24/4 64/108/4 68/22/4
f 68/22/4 72/111/4 76/23/4
f 10/25/10 65/25/10 63/26/10
f 20/28/11 24/116/11 51/29/11
f 1/31/1 62/31/1 79/18/1
f 8/32/10 12/117/10 45/33/10
f 12/34/2 16/118/2 47/35/2
f 16/36/3 20/28/3 49/30/3
f 22/38/11 71/38/11 69/39/11
f 24/40/5 28/119/5 53/41/5
f 28/42/6 32/120/6 55/43/6
f 32/44/7 36/121/7 57/45/7
f 36/46/8 40/1/8 59/3/8
f 2/48/4 41/69/4 44/49/4
f 5/50/4 44/49/4 46/51/4
f 33/53/4 58/96/4 60/54/4
f 21/9/4 52/11/4 54/56/4
f 13/58/4 9/102/4 46/51/4
f 11/62/12 7/75/12 3/100/12
f 3/100/12 39/98/12 35/60/12
f 35/60/12 31/92/12 27/88/12
f 27/88/12 23/85/12 19/61/12
f 19/61/12 15/80/12 11/62/12
f 11/62/12 3/100/12 35/60/12
f 35/60/12 27/88/12 19/61/12
f 25/63/4 54/91/4 56/64/4
f 13/66/4 48/59/4 50/10/4
f 2/48/4 37/105/4 60/68/4
f 33/53/4 29/104/4 56/70/4
f 43/72/13 44/49/13 41/69/13
f 4/74/14 3/100/14 7/75/14
f 45/77/15 46/51/15 44/49/15
f 8/76/16 7/75/16 11/62/16
f 47/79/17 48/59/17 46/51/17
f 12/78/18 11/62/18 15/80/18
f 47/79/19 49/84/19 50/10/19
f 20/82/20 16/81/20 15/80/20
f 51/83/21 52/11/21 50/10/21
f 20/82/22 19/61/22 23/85/22
f 53/87/23 54/56/23 52/11/23
f 24/86/24 23/85/24 27/88/24
f 55/90/25 56/64/25 54/91/25
f 28/89/26 27/88/26 31/92/26
f 57/94/27 58/71/27 56/70/27
f 32/93/28 31/92/28 35/60/28
f 57/94/29 59/99/29 60/54/29
f 40/97/30 36/95/30 35/60/30
f 42/73/31 41/69/31 60/68/31
f 40/97/32 39/98/32 3/100/32
f 5/50/13 6/26/13 1/101/13
f 9/52/15 10/25/15 6/27/15
f 13/58/17 14/4/17 10/6/17
f 17/67/19 18/7/19 14/8/19
f 21/9/21 22/38/21 18/7/21
f 25/57/23 26/12/23 22/13/23
f 29/65/25 30/14/25 26/15/25
f 33/53/27 34/16/27 30/17/27
f 37/55/29 38/18/29 34/16/29
f 2/48/31 1/31/31 38/18/31
f 63/27/13 64/108/13 61/106/13
f 65/25/15 66/109/15 64/108/15
f 65/5/17 67/8/17 68/22/17
f 69/7/19 70/110/19 68/22/19
f 71/38/21 72/111/21 70/110/21
f 73/15/23 74/112/23 72/111/23
f 75/14/25 76/23/25 74/112/25
f 75/14/27 77/16/27 78/113/27
f 79/18/29 80/24/29 78/113/29
f 62/31/31 61/106/31 80/24/31
f 6/26/9 63/27/9 62/107/9
