# Blender 4.0.2
# www.blender.org
mtllib Hammer.mtl
o Hammer
v 0.000000 0.278127 0.061526
v 0.027823 0.267598 0.061526
v 0.039347 0.242180 0.061526
v 0.027823 0.216761 0.061526
v 0.000000 0.206233 0.061526
v -0.027823 0.216761 0.061526
v -0.039347 0.242180 0.061526
v -0.027823 0.267598 0.061526
v 0.017906 0.258538 0.056229
v 0.000000 0.265314 0.056229
v 0.025322 0.242180 0.056229
v 0.017906 0.225822 0.056229
v 0.000000 0.219046 0.056229
v -0.017906 0.225822 0.056229
v -0.025322 0.242180 0.056229
v -0.017906 0.258538 0.056229
v 0.017899 0.258538 -0.012657
v -0.000007 0.265314 -0.012657
v 0.025316 0.242180 -0.012657
v 0.017899 0.225822 -0.012657
v -0.000007 0.219046 -0.012657
v -0.017912 0.225822 -0.012657
v -0.025329 0.242180 -0.012657
v -0.017912 0.258538 -0.012657
v 0.015476 0.252431 -0.094215
v -0.000004 0.252431 -0.094215
v 0.015476 0.240566 -0.090255
v 0.015476 0.231263 -0.087150
v -0.000004 0.231263 -0.087150
v -0.015710 0.231263 -0.087150
v -0.015710 0.240566 -0.090255
v -0.015710 0.252431 -0.094215
v 0.013616 0.245174 -0.105376
v -0.000026 0.245174 -0.105376
v 0.013616 0.235560 -0.100001
v 0.013616 0.228022 -0.095787
v -0.000026 0.228022 -0.095787
v -0.013844 0.228022 -0.095787
v -0.013844 0.235560 -0.100001
v -0.013844 0.245174 -0.105376
v 0.015476 0.229832 -0.122790
v -0.000017 0.229832 -0.122790
v 0.015476 0.223479 -0.116679
v 0.015476 0.218498 -0.111887
v -0.000017 0.218498 -0.111887
v -0.015710 0.218498 -0.111886
v -0.015710 0.223479 -0.116678
v -0.015709 0.229832 -0.122790
v -0.017910 0.258538 -0.059401
v -0.000005 0.265314 -0.059401
v -0.017910 0.225822 -0.059401
v -0.025327 0.242180 -0.059401
v 0.017901 0.225822 -0.059401
v -0.000005 0.219046 -0.059401
v 0.017901 0.258538 -0.059401
v 0.025318 0.242180 -0.059401
v 0.015476 0.195550 -0.140534
v 0.004850 0.195550 -0.140534
v 0.004850 0.189674 -0.131971
v 0.015476 0.189674 -0.131971
v 0.015476 0.192256 -0.135734
v -0.005041 0.189674 -0.131971
v -0.005041 0.195550 -0.140534
v -0.015714 0.195550 -0.140534
v -0.015714 0.192256 -0.135734
v -0.015714 0.189674 -0.131971
v 0.000000 0.273515 0.103889
v 0.000000 0.278127 0.099629
v 0.024253 0.264337 0.103889
v 0.027823 0.267598 0.099629
v 0.034300 0.242180 0.103889
v 0.039347 0.242180 0.099629
v 0.024253 0.220022 0.103889
v 0.027823 0.216761 0.099629
v -0.000000 0.210844 0.103889
v 0.000000 0.206233 0.099629
v -0.024253 0.220022 0.103889
v -0.027823 0.216761 0.099629
v -0.034300 0.242180 0.103889
v -0.039347 0.242180 0.099629
v -0.024253 0.264337 0.103889
v -0.027823 0.267598 0.099629
vn 0.3539 -0.9353 -0.0000
vn -0.9108 0.4129 -0.0000
vn -0.3539 0.9353 -0.0000
vn 0.3539 0.9353 -0.0000
vn 0.9108 0.4129 -0.0000
vn 0.9108 -0.4129 -0.0000
vn 0.1431 0.3781 0.9146
vn -0.9108 -0.4129 -0.0000
vn -0.3539 -0.9353 -0.0000
vn -0.9108 -0.4129 0.0001
vn 0.1431 -0.3781 0.9146
vn -0.1431 -0.3781 0.9146
vn -0.3489 0.1582 0.9237
vn 0.3489 0.1582 0.9237
vn -0.1431 0.3781 0.9146
vn 0.3489 -0.1582 0.9237
vn -0.3489 -0.1582 0.9237
vn 0.3345 -0.8838 0.3271
vn 0.9108 -0.4129 -0.0001
vn -0.9108 0.4129 0.0001
vn 0.9108 0.4129 -0.0001
vn -0.9798 0.0975 0.1744
vn 0.9516 0.0973 0.2915
vn -0.3273 0.8648 0.3808
vn -0.8694 -0.3942 0.2979
vn 0.9980 0.0199 0.0596
vn -0.0000 0.9813 0.1924
vn -0.8992 0.4077 0.1585
vn -0.0000 -0.9850 0.1728
vn 0.9966 -0.0400 -0.0715
vn -0.0000 -0.8384 0.5451
vn 0.9855 0.0537 0.1610
vn -0.0000 0.9362 -0.3514
vn -0.9859 0.0817 0.1461
vn 0.9897 0.0454 0.1359
vn -0.0000 0.8607 -0.5091
vn -0.9951 -0.0483 -0.0864
vn -0.0000 -0.7503 0.6611
vn 0.9958 -0.0632 -0.0656
vn -0.9959 -0.0629 -0.0654
vn -0.0000 0.8246 0.5658
vn -0.0000 -0.4597 0.8881
vn 0.9913 0.0915 0.0951
vn -0.0000 0.5717 -0.8205
vn -1.0000 -0.0000 -0.0000
vn -0.9907 0.0944 0.0981
vn 1.0000 -0.0001 -0.0001
vn -0.2487 -0.6573 -0.7114
vn -0.6191 -0.2807 -0.7335
vn -0.6191 0.2807 -0.7335
vn -0.2487 0.6573 -0.7114
vn 0.2487 0.6573 -0.7114
vn 0.6191 0.2807 -0.7335
vn 0.6191 -0.2807 -0.7335
vn 0.2487 -0.6573 -0.7114
vn -0.0000 -0.0000 -1.0000
vn -0.9856 0.0536 0.1605
vn 0.9003 0.4082 0.1514
vn -0.9976 0.0219 0.0656
vn 0.8710 -0.3949 0.2922
vn 0.3273 0.8648 0.3808
vn -0.9495 0.0994 0.2977
vn -0.3345 -0.8838 0.3270
vn 0.9797 0.0978 0.1749
vn -0.9897 0.0452 0.1355
vn 0.9858 0.0819 0.1466
vn 0.9951 -0.0484 -0.0866
vn -0.9967 -0.0399 -0.0713
vn 0.9905 0.1132 0.0776
vn -0.9899 0.1167 0.0801
vt 0.125000 1.000000
vt 0.000000 0.550287
vt 0.125000 0.550287
vt 0.750000 0.550287
vt 0.625000 1.000000
vt 0.625000 0.550287
vt 0.500000 0.550287
vt 0.500000 1.000000
vt 0.375000 0.550287
vt 0.375000 1.000000
vt 0.250000 0.550287
vt 0.250000 1.000000
vt 0.875000 1.000000
vt 0.875000 0.550287
vt 1.000000 1.000000
vt 1.000000 0.550287
vt 0.750000 1.000000
vt 0.000000 1.000000
vt 0.250000 0.490000
vt 0.419706 0.080294
vt 0.490000 0.250000
vt 0.419706 0.419706
vt 0.250000 0.010000
vt 0.010000 0.250000
vt 0.080294 0.080294
vt 0.080294 0.419706
vt 0.750000 0.490000
vt 0.897934 0.397934
vt 0.750000 0.459210
vt 0.990000 0.250000
vt 0.919706 0.419706
vt 0.919706 0.080294
vt 0.959210 0.250000
vt 0.750000 0.040790
vt 0.897934 0.102066
vt 0.580294 0.080294
vt 0.750000 0.010000
vt 0.510000 0.250000
vt 0.602066 0.102066
vt 0.602066 0.397934
vt 0.540790 0.250000
vt 0.580294 0.419706
s 0
f 8/1/1 68/2/1 82/3/1
f 72/4/2 4/5/2 74/6/2
f 4/5/3 76/7/3 74/6/3
f 5/8/4 78/9/4 76/7/4
f 6/10/5 80/11/5 78/9/5
f 7/12/6 82/3/6 80/11/6
f 5/8/7 14/10/7 6/10/7
f 2/13/8 72/4/8 70/14/8
f 1/15/9 70/14/9 68/16/9
f 9/13/10 19/17/10 11/17/10
f 8/1/11 10/18/11 1/18/11
f 1/15/12 9/13/12 2/13/12
f 3/17/13 12/5/13 4/5/13
f 7/12/14 14/10/14 15/12/14
f 5/8/15 12/5/15 13/8/15
f 7/12/16 16/1/16 8/1/16
f 3/17/17 9/13/17 11/17/17
f 49/1/18 26/18/18 50/18/18
f 15/12/19 24/1/19 16/1/19
f 14/10/4 21/8/4 22/10/4
f 12/5/20 19/17/20 20/5/20
f 10/15/9 17/13/9 9/13/9
f 16/1/1 18/18/1 10/18/1
f 15/12/21 22/10/21 23/12/21
f 13/8/3 20/5/3 21/8/3
f 28/5/22 35/17/22 36/5/22
f 52/12/23 30/10/23 31/12/23
f 53/5/24 29/8/24 54/8/24
f 55/13/25 27/17/25 56/17/25
f 49/1/26 31/12/26 32/1/26
f 51/10/27 29/8/27 30/10/27
f 56/17/28 28/5/28 53/5/28
f 55/13/29 26/15/29 25/13/29
f 39/12/30 48/1/30 40/1/30
f 26/15/31 33/13/31 25/13/31
f 26/18/31 40/1/31 34/18/31
f 30/10/32 39/12/32 31/12/32
f 29/8/33 36/5/33 37/8/33
f 27/17/34 33/13/34 35/17/34
f 31/12/35 40/1/35 32/1/35
f 29/8/33 38/10/33 30/10/33
f 38/10/36 45/8/36 46/10/36
f 35/17/37 44/5/37 36/5/37
f 33/13/38 42/15/38 41/13/38
f 40/1/38 42/18/38 34/18/38
f 39/12/39 46/10/39 47/12/39
f 36/5/36 45/8/36 37/8/36
f 35/17/40 41/13/40 43/17/40
f 17/13/9 50/15/9 55/13/9
f 19/17/2 53/5/2 20/5/2
f 21/8/4 51/10/4 22/10/4
f 24/1/6 52/12/6 49/1/6
f 19/17/8 55/13/8 56/17/8
f 20/5/3 54/8/3 21/8/3
f 22/10/5 52/12/5 23/12/5
f 18/18/1 49/1/1 50/18/1
f 58/19/41 60/20/41 61/21/41
f 58/19/42 41/22/42 42/19/42
f 45/23/43 58/19/43 42/19/43
f 44/20/44 59/23/44 45/23/44
f 61/21/45 44/20/45 43/21/45
f 57/22/45 43/21/45 41/22/45
f 63/19/41 65/24/41 66/25/41
f 63/19/46 45/23/46 42/19/46
f 48/26/42 63/19/42 42/19/42
f 47/24/47 64/26/47 48/26/47
f 46/25/47 65/24/47 47/24/47
f 62/23/44 46/25/44 45/23/44
f 68/27/48 69/28/48 67/29/48
f 72/30/49 69/28/49 70/31/49
f 74/32/50 71/33/50 72/30/50
f 74/32/51 75/34/51 73/35/51
f 78/36/52 75/34/52 76/37/52
f 80/38/53 77/39/53 78/36/53
f 80/38/54 81/40/54 79/41/54
f 68/27/55 81/40/55 82/42/55
f 73/35/56 77/39/56 81/40/56
f 8/1/1 1/18/1 68/2/1
f 72/4/2 3/17/2 4/5/2
f 4/5/3 5/8/3 76/7/3
f 5/8/4 6/10/4 78/9/4
f 6/10/5 7/12/5 80/11/5
f 7/12/6 8/1/6 82/3/6
f 5/8/7 13/8/7 14/10/7
f 2/13/8 3/17/8 72/4/8
f 1/15/9 2/13/9 70/14/9
f 9/13/10 17/13/10 19/17/10
f 8/1/11 16/1/11 10/18/11
f 1/15/12 10/15/12 9/13/12
f 3/17/13 11/17/13 12/5/13
f 7/12/14 6/10/14 14/10/14
f 5/8/15 4/5/15 12/5/15
f 7/12/16 15/12/16 16/1/16
f 3/17/17 2/13/17 9/13/17
f 49/1/29 32/1/29 26/18/29
f 15/12/19 23/12/19 24/1/19
f 14/10/4 13/8/4 21/8/4
f 12/5/20 11/17/20 19/17/20
f 10/15/9 18/15/9 17/13/9
f 16/1/1 24/1/1 18/18/1
f 15/12/21 14/10/21 22/10/21
f 13/8/3 12/5/3 20/5/3
f 28/5/57 27/17/57 35/17/57
f 52/12/58 51/10/58 30/10/58
f 53/5/27 28/5/27 29/8/27
f 55/13/59 25/13/59 27/17/59
f 49/1/60 52/12/60 31/12/60
f 51/10/61 54/8/61 29/8/61
f 56/17/62 27/17/62 28/5/62
f 55/13/63 50/15/63 26/15/63
f 39/12/39 47/12/39 48/1/39
f 26/15/31 34/15/31 33/13/31
f 26/18/31 32/1/31 40/1/31
f 30/10/64 38/10/64 39/12/64
f 29/8/33 28/5/33 36/5/33
f 27/17/65 25/13/65 33/13/65
f 31/12/66 39/12/66 40/1/66
f 29/8/33 37/8/33 38/10/33
f 38/10/36 37/8/36 45/8/36
f 35/17/40 43/17/40 44/5/40
f 33/13/38 34/15/38 42/15/38
f 40/1/38 48/1/38 42/18/38
f 39/12/67 38/10/67 46/10/67
f 36/5/36 44/5/36 45/8/36
f 35/17/68 33/13/68 41/13/68
f 17/13/9 18/15/9 50/15/9
f 19/17/2 56/17/2 53/5/2
f 21/8/4 54/8/4 51/10/4
f 24/1/6 23/12/6 52/12/6
f 19/17/8 17/13/8 55/13/8
f 20/5/3 53/5/3 54/8/3
f 22/10/5 51/10/5 52/12/5
f 18/18/1 24/1/1 49/1/1
f 61/21/41 57/22/41 58/19/41
f 58/19/41 59/23/41 60/20/41
f 58/19/42 57/22/42 41/22/42
f 45/23/69 59/23/69 58/19/69
f 44/20/44 60/20/44 59/23/44
f 61/21/45 60/20/45 44/20/45
f 57/22/45 61/21/45 43/21/45
f 66/25/41 62/23/41 63/19/41
f 63/19/41 64/26/41 65/24/41
f 63/19/70 62/23/70 45/23/70
f 48/26/42 64/26/42 63/19/42
f 47/24/47 65/24/47 64/26/47
f 46/25/47 66/25/47 65/24/47
f 62/23/44 66/25/44 46/25/44
f 68/27/48 70/31/48 69/28/48
f 72/30/49 71/33/49 69/28/49
f 74/32/50 73/35/50 71/33/50
f 74/32/51 76/37/51 75/34/51
f 78/36/52 77/39/52 75/34/52
f 80/38/53 79/41/53 77/39/53
f 80/38/54 82/42/54 81/40/54
f 68/27/55 67/29/55 81/40/55
f 81/40/56 67/29/56 69/28/56
f 69/28/56 71/33/56 73/35/56
f 73/35/56 75/34/56 77/39/56
f 77/39/56 79/41/56 81/40/56
f 81/40/56 69/28/56 73/35/56
o Hammer.001
v -0.037820 0.198398 -0.006023
v 0.037820 0.198398 -0.006023
v -0.018592 0.189081 0.015709
v -0.027956 0.198398 0.020246
v -0.040557 0.278893 0.020649
v -0.031235 0.278905 0.029985
v -0.031556 0.288205 0.021240
v -0.018592 0.189081 -0.027754
v -0.027956 0.198398 -0.032292
v -0.031556 0.288205 -0.033285
v -0.031235 0.278905 -0.042030
v -0.040557 0.278893 -0.032694
v 0.018592 0.189081 0.015709
v 0.027956 0.198398 0.020246
v 0.031556 0.288205 0.021240
v 0.031235 0.278905 0.029985
v 0.040557 0.278893 0.020649
v 0.027956 0.198398 -0.032292
v 0.018592 0.189081 -0.027754
v 0.031556 0.288205 -0.033285
v 0.040557 0.278893 -0.032694
v 0.031235 0.278905 -0.042030
v -0.037820 0.198398 -0.027737
v -0.028497 0.198398 -0.037072
v -0.029435 0.198398 -0.033009
v -0.028497 0.198398 0.025026
v -0.037820 0.198398 0.015691
v -0.029435 0.198398 0.020963
v 0.028497 0.198398 -0.037072
v 0.037820 0.198398 -0.027737
v 0.029435 0.198398 -0.033009
v 0.037820 0.198398 0.015691
v 0.028497 0.198398 0.025026
v 0.029435 0.198398 0.020963
v -0.040557 0.278893 -0.006023
v -0.031556 0.288205 -0.006023
v 0.040557 0.278893 -0.006023
v 0.031556 0.288205 -0.006023
v -0.038570 0.198398 -0.006023
v -0.027409 0.189081 -0.006023
v 0.038570 0.198398 -0.006023
v 0.027409 0.189081 -0.006023
v -0.027409 -0.048226 -0.006023
v -0.017353 -0.057544 -0.006023
v -0.012317 -0.057544 0.006391
v -0.018592 -0.048226 0.015709
v 0.018592 -0.048226 -0.027754
v 0.012317 -0.057544 -0.018436
v -0.012317 -0.057544 -0.018436
v -0.018592 -0.048226 -0.027754
v 0.027409 -0.048226 -0.006023
v 0.017353 -0.057544 -0.006023
v 0.012317 -0.057544 0.006391
v 0.018592 -0.048226 0.015709
vn -0.0000 -0.0615 -0.9981
vn -0.0000 1.0000 -0.0000
vn 0.9994 -0.0340 -0.0000
vn -0.0000 -0.0000 -1.0000
vn -0.0000 -0.0000 1.0000
vn 0.9266 -0.0000 -0.3760
vn 0.9266 -0.0000 0.3760
vn -0.9266 -0.0000 -0.3760
vn -0.9994 -0.0340 -0.0000
vn -0.0000 -1.0000 -0.0000
vn -0.0000 -0.0615 0.9981
vn -0.5965 0.5388 0.5949
vn -0.5965 0.5388 -0.5949
vn 0.5965 0.5388 0.5949
vn 0.5965 0.5388 -0.5949
vn -0.7060 -0.0674 0.7050
vn -0.7190 0.6950 -0.0000
vn -0.7060 -0.0674 -0.7050
vn -0.0000 0.6850 -0.7285
vn 0.7060 -0.0674 -0.7050
vn 0.7190 0.6950 -0.0000
vn 0.7060 -0.0674 0.7050
vn -0.0000 0.6850 0.7285
vn -0.6204 -0.7431 0.2507
vn -0.0000 -0.4378 -0.8991
vn 0.6204 -0.7431 -0.2507
vn -0.0000 -0.4378 0.8991
vn -0.6189 -0.7442 -0.2511
vn 0.6189 -0.7442 0.2511
vn -0.6552 -0.7071 0.2658
vn -0.0000 -0.7071 -0.7071
vn 0.6552 -0.7071 -0.2658
vn -0.0000 -0.7071 0.7071
vn -0.6552 -0.7071 -0.2658
vn 0.6552 -0.7071 0.2658
vn -0.9266 -0.0000 0.3760
vn -0.6189 -0.7442 0.2511
vn 0.6189 -0.7442 -0.2511
vn -0.6204 -0.7431 -0.2507
vn 0.6204 -0.7431 0.2507
vt 0.375000 0.280814
vt 0.599111 0.471055
vt 0.375000 0.469186
vt 0.376835 0.625000
vt 0.375000 0.625000
vt 0.359994 0.733642
vt 0.376835 0.625000
vt 0.359994 0.516358
vt 0.846505 0.625000
vt 0.653496 0.718160
vt 0.653496 0.625000
vt 0.375000 0.537583
vt 0.599077 0.625000
vt 0.340589 0.537512
vt 0.159411 0.537512
vt 0.159411 0.537512
vt 0.159411 0.712488
vt 0.340589 0.712488
vt 0.123165 0.625000
vt 0.125000 0.625000
vt 0.140006 0.516358
vt 0.340589 0.625000
vt 0.340589 0.537512
vt 0.340589 0.537512
vt 0.123165 0.625000
vt 0.140006 0.733642
vt 0.340589 0.712488
vt 0.340589 0.625000
vt 0.159411 0.625000
vt 0.599077 0.125000
vt 0.375000 0.212417
vt 0.375000 0.125000
vt 0.375000 0.712417
vt 0.307355 0.625000
vt 0.198993 0.674976
vt 0.192645 0.625000
vt 0.375000 0.780814
vt 0.599111 0.971055
vt 0.375000 0.969186
vt 0.301007 0.575024
vt 0.198993 0.575024
vt 0.357346 0.730755
vt 0.344186 0.750000
vt 0.375000 0.037583
vt 0.846504 0.531840
vt 0.653495 0.625000
vt 0.653495 0.531840
vt 0.142654 0.519245
vt 0.155814 0.500000
vt 0.599077 0.032545
vt 0.598233 0.000000
vt 0.624119 0.031802
vt 0.623408 0.278476
vt 0.599111 0.278945
vt 0.597484 0.250000
vt 0.623408 0.778476
vt 0.599111 0.778945
vt 0.597484 0.750000
vt 0.624119 0.531802
vt 0.599077 0.532545
vt 0.598233 0.500000
vt 0.375000 0.250000
vt 0.375000 0.233642
vt 0.375000 0.000000
vt 0.375000 0.016358
vt 0.361488 0.514729
vt 0.375000 0.750000
vt 0.375000 0.780814
vt 0.375000 0.777714
vt 0.625000 0.125000
vt 0.599077 0.217455
vt 0.625000 0.471504
vt 0.625000 0.278496
vt 0.599077 0.717455
vt 0.625000 0.971504
vt 0.625000 0.778496
vt 0.142654 0.730755
vt 0.357346 0.519245
vt 0.625000 0.031840
vt 0.307355 0.625000
vt 0.301007 0.674976
vt 0.375000 0.712417
vt 0.846504 0.718160
vt 0.125000 0.537583
vt 0.125000 0.712417
vt 0.155814 0.750000
vt 0.344186 0.500000
vt 0.625000 0.218160
s 0
f 106/43/71 104/44/71 111/45/71
f 123/46/72 84/47/72 116/48/72
f 123/49/72 113/50/72 84/47/72
f 118/51/72 97/52/72 120/53/72
f 112/54/73 119/55/73 84/47/73
f 101/56/74 132/57/74 90/58/74
f 85/59/75 136/60/75 95/60/75
f 121/61/72 83/62/72 107/63/72
f 124/64/76 129/65/76 101/66/76
f 121/67/72 110/68/72 83/62/72
f 95/69/77 133/70/77 124/70/77
f 90/58/78 125/71/78 122/71/78
f 117/72/79 105/73/79 83/74/79
f 119/55/73 114/75/73 84/47/73
f 134/76/80 127/77/80 126/78/80
f 115/79/81 88/80/81 108/81/81
f 130/82/80 126/78/80 131/83/80
f 96/84/80 115/85/80 110/68/80
f 109/86/79 117/72/79 83/74/79
f 92/87/72 120/88/72 102/89/72
f 91/90/80 106/91/80 113/50/80
f 87/92/82 88/93/82 89/94/82
f 92/95/83 93/96/83 94/97/83
f 97/98/84 98/99/84 99/100/84
f 102/101/85 103/102/85 104/103/85
f 105/73/80 106/104/80 107/105/80
f 108/106/80 109/86/80 110/107/80
f 111/108/80 112/54/80 113/50/80
f 114/109/80 115/110/80 116/111/80
f 108/106/86 87/92/86 109/86/86
f 118/112/87 94/113/87 117/72/87
f 106/43/88 94/113/88 93/96/88
f 102/114/89 93/96/89 92/115/89
f 103/102/90 111/45/90 104/44/90
f 120/53/91 99/116/91 119/55/91
f 115/79/92 99/116/92 98/99/92
f 89/117/93 98/99/93 97/118/93
f 122/71/94 86/119/94 121/67/94
f 90/58/95 100/120/95 101/56/95
f 124/64/96 100/120/96 123/49/96
f 95/60/97 86/119/97 85/59/97
f 118/112/87 87/92/87 89/121/87
f 120/88/91 103/102/91 102/89/91
f 122/71/98 91/90/98 90/58/98
f 124/70/99 96/84/99 95/69/99
f 127/77/100 125/71/100 126/78/100
f 131/83/101 129/66/101 130/82/101
f 130/82/102 133/70/102 134/122/102
f 135/123/103 128/59/103 127/77/103
f 131/83/104 125/71/104 132/58/104
f 135/123/105 133/70/105 136/60/105
f 122/71/106 128/59/106 85/59/106
f 106/43/71 93/96/71 104/44/71
f 116/48/80 96/84/80 123/46/80
f 84/47/80 114/124/80 116/48/80
f 123/49/80 100/120/80 113/50/80
f 113/50/80 112/54/80 84/47/80
f 118/51/72 89/125/72 97/52/72
f 112/54/73 103/102/73 119/55/73
f 101/56/74 129/66/74 132/57/74
f 85/59/75 128/59/75 136/60/75
f 107/63/80 91/90/80 121/61/80
f 83/62/80 105/126/80 107/63/80
f 124/64/76 133/70/76 129/65/76
f 121/67/80 86/119/80 110/68/80
f 110/68/80 109/127/80 83/62/80
f 95/69/77 136/60/77 133/70/77
f 90/58/78 132/58/78 125/71/78
f 117/72/79 94/113/79 105/73/79
f 119/55/73 99/116/73 114/75/73
f 134/76/80 135/123/80 127/77/80
f 115/79/81 98/99/81 88/80/81
f 130/82/80 134/122/80 126/78/80
f 110/68/80 86/119/80 96/84/80
f 96/84/80 116/48/80 115/85/80
f 115/85/80 108/128/80 110/68/80
f 109/86/79 87/92/79 117/72/79
f 92/87/72 118/51/72 120/88/72
f 113/50/80 100/120/80 91/90/80
f 91/90/80 107/63/80 106/91/80
f 106/91/80 111/129/80 113/50/80
f 108/106/86 88/93/86 87/92/86
f 118/112/87 92/130/87 94/113/87
f 106/43/88 105/73/88 94/113/88
f 102/114/89 104/44/89 93/96/89
f 103/102/90 112/54/90 111/45/90
f 120/53/91 97/52/91 99/116/91
f 115/79/92 114/75/92 99/116/92
f 89/117/93 88/80/93 98/99/93
f 122/71/107 85/59/107 86/119/107
f 90/58/95 91/90/95 100/120/95
f 124/64/108 101/66/108 100/120/108
f 95/60/97 96/84/97 86/119/97
f 118/112/87 117/72/87 87/92/87
f 120/88/91 119/55/91 103/102/91
f 122/71/109 121/61/109 91/90/109
f 124/70/110 123/46/110 96/84/110
f 127/77/100 128/59/100 125/71/100
f 131/83/101 132/57/101 129/66/101
f 130/82/102 129/65/102 133/70/102
f 135/123/103 136/60/103 128/59/103
f 131/83/104 126/78/104 125/71/104
f 135/123/105 134/76/105 133/70/105
f 122/71/106 125/71/106 128/59/106
