# Blender 4.5.14 LTS
# www.blender.org
mtllib chimney.mtl
o chimney
v -0.300000 1.500000 0.300000 1.0000 1.0000 1.0000
v 0.300000 1.500000 0.300000 1.0000 1.0000 1.0000
v -0.300000 2.000000 -0.300000 1.0000 1.0000 1.0000
v 0.300000 2.000000 -0.300000 1.0000 1.0000 1.0000
v -0.300000 1.500000 -0.300000 1.0000 1.0000 1.0000
v 0.300000 2.600000 0.300000 0.8078 0.8078 0.8078
v 0.300000 2.600000 -0.300000 0.8078 0.8078 0.8078
v 0.300000 1.500000 -0.300000 1.0000 1.0000 1.0000
v 0.300000 2.000000 0.300000 1.0000 1.0000 1.0000
v -0.300000 2.000000 0.300000 1.0000 1.0000 1.0000
v -0.300000 2.600000 0.300000 0.8078 0.8078 0.8078
v -0.300000 2.600000 -0.300000 0.8078 0.8078 0.8078
vn -0.0000 -0.0000 1.0000
vn -0.0000 -0.0000 -1.0000
vn -0.0000 1.0000 -0.0000
vn -0.0000 -1.0000 -0.0000
vn 1.0000 -0.0000 -0.0000
vn -1.0000 -0.0000 -0.0000
vt 0.000244 0.968750
vt 0.037451 0.968750
vt 0.037451 0.999756
vt 0.000244 0.999756
vt 0.062256 0.999756
vt 0.025049 0.999756
vt 0.025049 0.968750
vt 0.062256 0.968750
vt 0.000244 0.937744
vt 0.037451 0.937744
vt 0.037451 0.974951
vt 0.000244 0.974951
vt 0.062256 0.974951
vt 0.025049 0.974951
vt 0.025049 0.937744
vt 0.062256 0.937744
s 0
usemtl props
f 1/1/1 2/2/1 9/3/1 10/4/1
f 3/5/2 4/6/2 8/7/2 5/8/2
f 10/9/1 9/10/1 6/11/1 11/12/1
f 12/13/2 7/14/2 4/15/2 3/16/2
f 11/9/3 6/10/3 7/11/3 12/12/3
f 5/12/4 8/11/4 2/10/4 1/9/4
f 2/1/5 8/2/5 4/3/5 9/4/5
f 9/9/5 4/10/5 7/11/5 6/12/5
f 5/1/6 1/2/6 10/3/6 3/4/6
f 3/9/6 10/10/6 11/11/6 12/12/6
o chimney_1
v 0.350000 2.600000 0.350000 0.9764 0.9764 0.9764
v -0.350000 2.600000 -0.350000 0.9764 0.9764 0.9764
v -0.350000 2.680000 0.350000 0.9921 0.9921 0.9921
v 0.350000 2.600000 -0.350000 0.9764 0.9764 0.9764
v 0.350000 2.680000 -0.350000 0.9960 0.9960 0.9960
v 0.350000 2.680000 0.350000 1.0000 1.0000 1.0000
v -0.350000 2.680000 -0.350000 0.9960 0.9960 0.9960
v -0.350000 2.600000 0.350000 0.9725 0.9725 0.9725
v -0.050000 2.680000 0.000000 0.7725 0.7725 0.7725
v -0.084038 2.980000 -0.045962 0.9568 0.9568 0.9568
v -0.073431 2.680000 -0.056569 0.7882 0.7882 0.7882
v -0.130000 2.980000 -0.065000 0.9725 0.9725 0.9725
v -0.130000 2.680000 -0.080000 0.8039 0.8039 0.8039
v -0.195000 2.980000 -0.000000 0.9843 0.9843 0.9843
v -0.175962 2.980000 -0.045962 0.9804 0.9804 0.9804
v -0.210000 2.680000 -0.000000 0.8000 0.8000 0.8000
v -0.186569 2.680000 0.056569 0.8000 0.8000 0.8000
v -0.175962 2.980000 0.045962 0.9804 0.9804 0.9804
v -0.065000 2.980000 0.000000 0.9490 0.9490 0.9490
v -0.130000 2.980000 0.065000 0.9725 0.9725 0.9725
v -0.084038 2.980000 0.045962 0.9607 0.9607 0.9607
v -0.073431 2.680000 0.056569 0.7843 0.7843 0.7843
v -0.130000 2.680000 0.080000 0.8000 0.8000 0.8000
v -0.186569 2.680000 -0.056569 0.8039 0.8039 0.8039
v 0.186569 2.680000 -0.056569 0.8039 0.8039 0.8039
v 0.175962 2.980000 -0.045962 0.9804 0.9804 0.9804
v 0.130000 2.680000 -0.080000 0.8039 0.8039 0.8039
v 0.130000 2.980000 -0.065000 0.9725 0.9725 0.9725
v 0.050000 2.680000 -0.000000 0.7608 0.7608 0.7608
v 0.073431 2.680000 0.056569 0.7804 0.7804 0.7804
v 0.130000 2.980000 0.065000 0.9725 0.9725 0.9725
v 0.130000 2.680000 0.080000 0.8000 0.8000 0.8000
v 0.186569 2.680000 0.056569 0.8039 0.8039 0.8039
v 0.195000 2.980000 0.000000 0.9843 0.9843 0.9843
v 0.175962 2.980000 0.045962 0.9804 0.9804 0.9804
v 0.084038 2.980000 -0.045962 0.9607 0.9607 0.9607
v 0.065000 2.980000 -0.000000 0.9451 0.9451 0.9451
v 0.084038 2.980000 0.045962 0.9568 0.9568 0.9568
v 0.073431 2.680000 -0.056569 0.7843 0.7843 0.7843
v 0.210000 2.680000 0.000000 0.8039 0.8039 0.8039
vn -0.0000 -0.0000 1.0000
vn -0.0000 -0.0000 -1.0000
vn -1.0000 -0.0000 -0.0000
vn 1.0000 -0.0000 -0.0000
vn -0.0000 1.0000 -0.0000
vn -0.0000 -1.0000 -0.0000
vn 0.9988 0.0499 -0.0000
vn 0.7062 0.0499 -0.7062
vn -0.0000 0.0499 -0.9988
vn -0.7062 0.0499 -0.7062
vn -0.9988 0.0499 -0.0000
vn -0.7062 0.0499 0.7062
vn -0.0000 0.0499 0.9988
vn 0.7062 0.0499 0.7062
vt 0.593994 0.984619
vt 0.609131 0.984619
vt 0.609131 0.986349
vt 0.593994 0.986349
vt 0.609131 0.999756
vt 0.593994 0.999756
vt 0.695557 0.992432
vt 0.696472 0.992432
vt 0.696472 0.999756
vt 0.695557 0.999756
vt 0.697388 0.992432
vt 0.697388 0.999756
vt 0.698303 0.992432
vt 0.698303 0.999756
vt 0.699219 0.992432
vt 0.699219 0.999756
vt 0.700134 0.992432
vt 0.700134 0.999756
vt 0.701050 0.992432
vt 0.701050 0.999756
vt 0.701965 0.992432
vt 0.701965 0.999756
vt 0.702881 0.992432
vt 0.702881 0.999756
vt 0.730225 0.998047
vt 0.729724 0.999255
vt 0.728516 0.999756
vt 0.727307 0.999255
vt 0.726807 0.998047
vt 0.727307 0.996838
vt 0.728516 0.996338
vt 0.729724 0.996838
vt 0.701808 0.998683
vt 0.696629 0.998683
vt 0.695557 0.996094
vt 0.696629 0.993504
vt 0.701808 0.993504
vt 0.702881 0.996094
s 0
usemtl props
f 20/17/7 13/18/7 18/19/7 15/20/7
f 16/17/8 14/18/8 19/19/8 17/20/8
f 14/17/9 20/18/9 15/19/9 19/20/9
f 13/17/10 16/18/10 17/19/10 18/20/10
f 15/17/11 18/18/11 17/21/11 19/22/11
f 14/17/12 16/18/12 13/21/12 20/22/12
s 1
f 21/23/13 23/24/14 22/25/14 31/26/13
f 23/24/14 25/27/15 24/28/15 22/25/14
f 25/27/15 36/29/16 27/30/16 24/28/15
f 36/29/16 28/31/17 26/32/17 27/30/16
f 28/31/17 29/33/18 30/34/18 26/32/17
f 29/33/18 35/35/19 32/36/19 30/34/18
f 35/35/19 34/37/20 33/38/20 32/36/19
f 34/37/20 21/39/13 31/40/13 33/38/20
s 0
f 31/41/11 22/42/11 24/43/11 27/44/11 26/45/11 30/46/11 32/47/11 33/48/11
f 34/49/12 35/32/12 29/50/12 28/51/12 36/52/12 25/31/12 23/53/12 21/54/12
s 1
f 52/23/13 37/24/14 38/25/14 46/26/13
f 37/24/14 39/27/15 40/28/15 38/25/14
f 39/27/15 51/29/16 48/30/16 40/28/15
f 51/29/16 41/31/17 49/32/17 48/30/16
f 41/31/17 42/33/18 50/34/18 49/32/17
f 42/33/18 44/35/19 43/36/19 50/34/18
f 44/35/19 45/37/20 47/38/20 43/36/19
f 45/37/20 52/39/13 46/40/13 47/38/20
s 0
f 46/41/11 38/42/11 40/43/11 48/44/11 49/45/11 50/46/11 43/47/11 47/48/11
f 45/49/12 44/32/12 42/50/12 41/51/12 51/52/12 39/31/12 37/53/12 52/54/12
