# Blender 4.5.14 LTS
# www.blender.org
mtllib door_front.mtl
o door_front
v -0.570000 0.000000 0.120000 0.8000 0.8000 0.8000
v -0.490000 0.000000 0.120000 0.7804 0.7804 0.7804
v -0.570000 2.270000 -0.120000 1.0000 1.0000 1.0000
v -0.570000 0.000000 -0.120000 0.8039 0.8039 0.8039
v -0.570000 2.270000 0.120000 1.0000 1.0000 1.0000
v -0.490000 2.270000 0.120000 0.8980 0.8980 0.8980
v -0.490000 2.270000 -0.120000 0.9019 0.9019 0.9019
v -0.490000 0.000000 -0.120000 0.7882 0.7882 0.7882
vn -0.0000 -0.0000 1.0000
vn -0.0000 -0.0000 -1.0000
vn -1.0000 -0.0000 -0.0000
vn 1.0000 -0.0000 -0.0000
vn -0.0000 1.0000 -0.0000
vn -0.0000 -1.0000 -0.0000
vt 0.625244 0.984619
vt 0.625778 0.984619
vt 0.625778 0.999756
vt 0.625244 0.999756
vt 0.626845 0.984619
vt 0.626845 0.999756
vt 0.630088 0.984619
vt 0.630088 0.999150
vt 0.625244 0.999150
s 0
usemtl props
f 1/1/1 2/2/1 6/3/1 5/4/1
f 8/1/2 4/2/2 3/3/2 7/4/2
f 4/1/3 1/5/3 5/6/3 3/4/3
f 2/1/4 8/5/4 7/6/4 6/4/4
f 5/1/5 6/7/5 7/8/5 3/9/5
f 4/1/6 8/7/6 2/8/6 1/9/6
o door_front_casing_r
v 0.490000 0.000000 0.120000 0.7804 0.7804 0.7804
v 0.570000 0.000000 0.120000 0.8000 0.8000 0.8000
v 0.490000 2.270000 -0.120000 0.9019 0.9019 0.9019
v 0.490000 0.000000 -0.120000 0.7804 0.7804 0.7804
v 0.490000 2.270000 0.120000 0.9019 0.9019 0.9019
v 0.570000 2.270000 0.120000 1.0000 1.0000 1.0000
v 0.570000 2.270000 -0.120000 1.0000 1.0000 1.0000
v 0.570000 0.000000 -0.120000 0.8039 0.8039 0.8039
vn -0.0000 -0.0000 1.0000
vn -0.0000 -0.0000 -1.0000
vn -1.0000 -0.0000 -0.0000
vn 1.0000 -0.0000 -0.0000
vn -0.0000 1.0000 -0.0000
vn -0.0000 -1.0000 -0.0000
vt 0.625244 0.984619
vt 0.625778 0.984619
vt 0.625778 0.999756
vt 0.625244 0.999756
vt 0.626845 0.984619
vt 0.626845 0.999756
vt 0.630088 0.984619
vt 0.630088 0.999150
vt 0.625244 0.999150
s 0
usemtl props
f 9/10/7 10/11/7 14/12/7 13/13/7
f 16/10/8 12/11/8 11/12/8 15/13/8
f 12/10/9 9/14/9 13/15/9 11/13/9
f 10/10/10 16/14/10 15/15/10 14/13/10
f 13/10/11 14/16/11 15/17/11 11/18/11
f 12/10/12 16/16/12 10/17/12 9/18/12
o door_front_casing_top
v -0.510000 2.190000 0.120000 0.8039 0.8039 0.8039
v 0.510000 2.190000 0.120000 0.8000 0.8000 0.8000
v -0.510000 2.260000 -0.120000 0.8000 0.8000 0.8000
v -0.510000 2.190000 -0.120000 0.8039 0.8039 0.8039
v -0.510000 2.260000 0.120000 0.8000 0.8000 0.8000
v 0.510000 2.260000 0.120000 0.8000 0.8000 0.8000
v 0.510000 2.260000 -0.120000 0.8000 0.8000 0.8000
v 0.510000 2.190000 -0.120000 0.8039 0.8039 0.8039
vn -0.0000 -0.0000 1.0000
vn -0.0000 -0.0000 -1.0000
vn -1.0000 -0.0000 -0.0000
vn 1.0000 -0.0000 -0.0000
vn -0.0000 1.0000 -0.0000
vn -0.0000 -1.0000 -0.0000
vt 0.625244 0.984619
vt 0.640381 0.984619
vt 0.640381 0.985658
vt 0.625244 0.985658
vt 0.639775 0.984619
vt 0.639775 0.988857
vt 0.625244 0.988857
vt 0.640381 0.988181
vt 0.625244 0.988181
s 0
usemtl props
f 17/19/13 18/20/13 22/21/13 21/22/13
f 24/19/14 20/20/14 19/21/14 23/22/14
f 20/19/15 17/23/15 21/24/15 19/25/15
f 18/19/16 24/23/16 23/24/16 22/25/16
f 21/19/17 22/20/17 23/26/17 19/27/17
f 20/19/18 24/20/18 18/26/18 17/27/18
o door_front_leaf
v -0.480000 0.010000 0.022500 0.7333 0.7333 0.7333
v -0.480000 2.190000 0.022500 0.7372 0.7372 0.7372
v 0.480000 0.010000 -0.022500 0.7294 0.7294 0.7294
v -0.480000 0.010000 -0.022500 0.7333 0.7333 0.7333
v -0.480000 2.190000 -0.022500 0.7372 0.7372 0.7372
v 0.480000 2.190000 -0.022500 0.7372 0.7372 0.7372
v 0.480000 2.190000 0.022500 0.7372 0.7372 0.7372
v 0.480000 0.010000 0.022500 0.7333 0.7333 0.7333
v 0.375000 0.950000 0.042500 0.8745 0.8745 0.8745
v 0.375000 1.050000 0.042500 0.8509 0.8509 0.8509
v 0.425000 0.950000 0.022500 0.7451 0.7451 0.7451
v 0.375000 0.950000 0.022500 0.7843 0.7843 0.7843
v 0.375000 1.050000 0.022500 0.7804 0.7804 0.7804
v 0.425000 0.950000 0.042500 0.8313 0.8313 0.8313
v 0.425000 1.050000 0.022500 0.7451 0.7451 0.7451
v 0.425000 1.050000 0.042500 0.8235 0.8235 0.8235
v 0.290000 1.010000 0.067500 0.8980 0.8980 0.8980
v 0.410000 1.010000 0.067500 0.8509 0.8509 0.8509
v 0.290000 1.030000 0.067500 0.9019 0.9019 0.9019
v 0.290000 1.010000 0.047500 0.8000 0.8000 0.8000
v 0.290000 1.030000 0.047500 0.7960 0.7960 0.7960
v 0.410000 1.010000 0.047500 0.7568 0.7568 0.7568
v 0.410000 1.030000 0.067500 0.8509 0.8509 0.8509
v 0.410000 1.030000 0.047500 0.7529 0.7529 0.7529
v 0.425000 1.050000 -0.022500 0.7451 0.7451 0.7451
v 0.425000 0.950000 -0.042500 0.8274 0.8274 0.8274
v 0.375000 1.050000 -0.042500 0.8549 0.8549 0.8549
v 0.375000 0.950000 -0.022500 0.7804 0.7804 0.7804
v 0.375000 1.050000 -0.022500 0.7764 0.7764 0.7764
v 0.425000 0.950000 -0.022500 0.7451 0.7451 0.7451
v 0.425000 1.050000 -0.042500 0.8274 0.8274 0.8274
v 0.375000 0.950000 -0.042500 0.8706 0.8706 0.8706
v 0.410000 1.010000 -0.047500 0.7568 0.7568 0.7568
v 0.410000 1.030000 -0.047500 0.7568 0.7568 0.7568
v 0.290000 1.030000 -0.047500 0.7960 0.7960 0.7960
v 0.410000 1.010000 -0.067500 0.8509 0.8509 0.8509
v 0.290000 1.010000 -0.067500 0.8980 0.8980 0.8980
v 0.410000 1.030000 -0.067500 0.8509 0.8509 0.8509
v 0.290000 1.030000 -0.067500 0.9019 0.9019 0.9019
v 0.290000 1.010000 -0.047500 0.7921 0.7921 0.7921
vn -0.0000 -0.0000 1.0000
vn -0.0000 -0.0000 -1.0000
vn -1.0000 -0.0000 -0.0000
vn 1.0000 -0.0000 -0.0000
vn -0.0000 1.0000 -0.0000
vn -0.0000 -1.0000 -0.0000
vt 0.562744 0.937744
vt 0.593506 0.937744
vt 0.593506 0.999756
vt 0.562744 0.999756
vt 0.711182 0.992432
vt 0.711333 0.992432
vt 0.711333 0.999756
vt 0.711182 0.999756
vt 0.718506 0.992432
vt 0.718506 0.992775
vt 0.711182 0.992775
vt 0.687744 0.992432
vt 0.690674 0.992432
vt 0.690674 0.998291
vt 0.687744 0.998291
vt 0.688916 0.992432
vt 0.688916 0.998291
vt 0.690674 0.993604
vt 0.687744 0.993604
vt 0.694775 0.992432
vt 0.694775 0.993604
vt 0.688916 0.993604
s 0
usemtl props
f 25/28/19 32/29/19 31/30/19 26/31/19
f 27/28/20 28/29/20 29/30/20 30/31/20
f 28/32/21 25/33/21 26/34/21 29/35/21
f 32/32/22 27/33/22 30/34/22 31/35/22
f 26/32/23 31/36/23 30/37/23 29/38/23
f 28/32/24 27/36/24 32/37/24 25/38/24
f 33/39/19 38/40/19 40/41/19 34/42/19
f 35/39/20 36/40/20 37/41/20 39/42/20
f 36/39/21 33/43/21 34/44/21 37/42/21
f 38/39/22 35/43/22 39/44/22 40/42/22
f 34/39/23 40/40/23 39/45/23 37/46/23
f 36/39/24 35/40/24 38/45/24 33/46/24
f 41/39/19 42/47/19 47/48/19 43/46/19
f 46/39/20 44/47/20 45/48/20 48/46/20
f 44/39/21 41/43/21 43/49/21 45/46/21
f 42/39/22 46/43/22 48/49/22 47/46/22
f 43/39/23 47/47/23 48/48/23 45/46/23
f 44/39/24 46/47/24 42/48/24 41/46/24
f 52/39/19 54/40/19 49/41/19 53/42/19
f 50/39/20 56/40/20 51/41/20 55/42/20
f 56/39/21 52/43/21 53/44/21 51/42/21
f 54/39/22 50/43/22 55/44/22 49/42/22
f 53/39/23 49/40/23 55/45/23 51/46/23
f 56/39/24 50/40/24 54/45/24 52/46/24
f 64/39/19 57/47/19 58/48/19 59/46/19
f 60/39/20 61/47/20 63/48/20 62/46/20
f 61/39/21 64/43/21 59/49/21 63/46/21
f 57/39/22 60/43/22 62/49/22 58/46/22
f 59/39/23 58/47/23 62/48/23 63/46/23
f 61/39/24 60/47/24 57/48/24 64/46/24
