# Blender 4.5.14 LTS
# www.blender.org
mtllib ground_grass.mtl
o ground_grass
v -1.000000 0.000000 2.000000 1.0000 1.0000 1.0000
v -2.000000 0.000000 1.000000 1.0000 1.0000 1.0000
v -1.000000 0.000000 1.000000 1.0000 1.0000 1.0000
v -1.000000 0.000000 0.000000 1.0000 1.0000 1.0000
v -2.000000 0.000000 0.000000 1.0000 1.0000 1.0000
v -2.000000 0.000000 -1.000000 1.0000 1.0000 1.0000
v -1.000000 0.000000 -1.000000 1.0000 1.0000 1.0000
v 0.000000 0.000000 2.000000 1.0000 1.0000 1.0000
v 0.000000 0.000000 1.000000 1.0000 1.0000 1.0000
v 0.000000 0.000000 0.000000 1.0000 1.0000 1.0000
v -1.000000 0.000000 -2.000000 1.0000 1.0000 1.0000
v 1.000000 0.000000 2.000000 1.0000 1.0000 1.0000
v 1.000000 0.000000 1.000000 1.0000 1.0000 1.0000
v 0.000000 0.000000 -1.000000 1.0000 1.0000 1.0000
v 1.000000 0.000000 -1.000000 1.0000 1.0000 1.0000
v 1.000000 0.000000 -2.000000 1.0000 1.0000 1.0000
v 0.000000 0.000000 -2.000000 1.0000 1.0000 1.0000
v 2.000000 0.000000 2.000000 0.9058 0.9058 0.9058
v 2.000000 0.000000 1.000000 1.0000 1.0000 1.0000
v 2.000000 0.000000 0.000000 1.0000 1.0000 1.0000
v 1.000000 0.000000 0.000000 1.0000 1.0000 1.0000
v 2.000000 0.000000 -1.000000 1.0000 1.0000 1.0000
v -2.000000 -0.050000 2.000000 0.8431 0.8431 0.8431
v -2.000000 0.000000 2.000000 0.9058 0.9058 0.9058
v 2.000000 0.000000 -2.000000 0.9058 0.9058 0.9058
v -2.000000 -0.050000 -2.000000 0.8470 0.8470 0.8470
v -2.000000 0.000000 -2.000000 0.9058 0.9058 0.9058
v 2.000000 -0.050000 2.000000 0.8470 0.8470 0.8470
v 2.000000 -0.050000 -2.000000 0.8509 0.8509 0.8509
vn -0.0000 1.0000 -0.0000
vn -0.0000 -0.0000 1.0000
vn -0.0000 -0.0000 -1.0000
vn -1.0000 -0.0000 -0.0000
vn 1.0000 -0.0000 -0.0000
vt 0.250244 0.937744
vt 0.312256 0.937744
vt 0.312256 0.999756
vt 0.250244 0.999756
vt 0.312256 0.938519
vt 0.250244 0.938519
s 0
usemtl props
f 24/1/1 1/2/1 3/3/1 2/4/1
f 2/1/1 3/2/1 4/3/1 5/4/1
f 5/1/1 4/2/1 7/3/1 6/4/1
f 6/1/1 7/2/1 11/3/1 27/4/1
f 1/1/1 8/2/1 9/3/1 3/4/1
f 3/1/1 9/2/1 10/3/1 4/4/1
f 4/1/1 10/2/1 14/3/1 7/4/1
f 7/1/1 14/2/1 17/3/1 11/4/1
f 8/1/1 12/2/1 13/3/1 9/4/1
f 9/1/1 13/2/1 21/3/1 10/4/1
f 10/1/1 21/2/1 15/3/1 14/4/1
f 14/1/1 15/2/1 16/3/1 17/4/1
f 12/1/1 18/2/1 19/3/1 13/4/1
f 13/1/1 19/2/1 20/3/1 21/4/1
f 21/1/1 20/2/1 22/3/1 15/4/1
f 15/1/1 22/2/1 25/3/1 16/4/1
f 23/1/2 28/2/2 18/5/2 24/6/2
f 29/1/3 26/2/3 27/5/3 25/6/3
f 26/1/4 23/2/4 24/5/4 27/6/4
f 28/1/5 29/2/5 25/5/5 18/6/5
