# Blender 4.5.14 LTS
# www.blender.org
mtllib lamp_wall.mtl
o lamp_wall
v 0.080000 2.190000 0.160000 0.9843 0.9843 0.9843
v 0.080000 2.410000 0.160000 0.9764 0.9764 0.9764
v -0.080000 2.410000 0.160000 0.9764 0.9764 0.9764
v -0.080000 2.190000 0.100000 1.0000 1.0000 1.0000
v -0.080000 2.410000 0.100000 1.0000 1.0000 1.0000
v 0.080000 2.410000 0.100000 1.0000 1.0000 1.0000
v 0.080000 2.190000 0.100000 1.0000 1.0000 1.0000
v -0.080000 2.190000 0.160000 0.9843 0.9843 0.9843
v 0.060000 2.220000 0.260000 1.0000 1.0000 1.0000
v 0.060000 2.380000 0.260000 0.8196 0.8196 0.8196
v -0.060000 2.220000 0.160000 0.8196 0.8196 0.8196
v -0.060000 2.220000 0.260000 1.0000 1.0000 1.0000
v 0.060000 2.220000 0.160000 0.8157 0.8157 0.8157
v -0.060000 2.380000 0.260000 0.8196 0.8196 0.8196
v 0.060000 2.380000 0.160000 0.7412 0.7412 0.7412
v -0.060000 2.380000 0.160000 0.7451 0.7451 0.7451
v -0.075000 2.400000 0.135000 0.7020 0.7020 0.7020
v -0.075000 2.380000 0.135000 0.7255 0.7255 0.7255
v -0.075000 2.380000 0.265000 0.9764 0.9764 0.9764
v -0.075000 2.400000 0.265000 1.0000 1.0000 1.0000
v 0.075000 2.380000 0.135000 0.7294 0.7294 0.7294
v 0.075000 2.400000 0.265000 1.0000 1.0000 1.0000
v 0.075000 2.400000 0.135000 0.7059 0.7059 0.7059
v 0.075000 2.380000 0.265000 0.9764 0.9764 0.9764
vn -0.0000 -0.0000 1.0000
vn -0.0000 -0.0000 -1.0000
vn -1.0000 -0.0000 -0.0000
vn 1.0000 -0.0000 -0.0000
vn -0.0000 1.0000 -0.0000
vn -0.0000 -1.0000 -0.0000
vt 0.640869 0.984619
vt 0.650557 0.984619
vt 0.650557 0.997939
vt 0.640869 0.997939
vt 0.644502 0.984619
vt 0.644502 0.997939
vt 0.650557 0.988252
vt 0.640869 0.988252
vt 0.703369 0.992432
vt 0.708862 0.992432
vt 0.708862 0.999756
vt 0.703369 0.999756
vt 0.648135 0.984619
vt 0.648135 0.994307
vt 0.640869 0.994307
vt 0.707947 0.992432
vt 0.707947 0.999756
vt 0.710400 0.992432
vt 0.710400 0.998291
vt 0.703369 0.998291
vt 0.649951 0.984619
vt 0.649951 0.985830
vt 0.640869 0.985830
vt 0.648740 0.984619
vt 0.648740 0.985830
vt 0.649951 0.992490
vt 0.640869 0.992490
s 0
usemtl props
f 8/1/1 1/2/1 2/3/1 3/4/1
f 7/1/2 4/2/2 5/3/2 6/4/2
f 4/1/3 8/5/3 3/6/3 5/4/3
f 1/1/4 7/5/4 6/6/4 2/4/4
f 3/1/5 2/2/5 6/7/5 5/8/5
f 4/1/6 7/2/6 1/7/6 8/8/6
f 12/9/1 9/10/1 10/11/1 14/12/1
f 13/1/2 11/13/2 16/14/2 15/15/2
f 11/9/3 12/16/3 14/17/3 16/12/3
f 9/9/4 13/16/4 15/17/4 10/12/4
f 14/9/5 10/18/5 15/19/5 16/20/5
f 11/9/6 13/18/6 9/19/6 12/20/6
f 19/1/1 24/21/1 22/22/1 20/23/1
f 21/1/2 18/21/2 17/22/2 23/23/2
f 18/1/3 19/24/3 20/25/3 17/23/3
f 24/1/4 21/24/4 23/25/4 22/23/4
f 20/1/5 22/21/5 23/26/5 17/27/5
f 18/1/6 21/21/6 24/26/6 19/27/6
