# Blender 4.5.14 LTS
# www.blender.org
mtllib roof_clay_verge.mtl
o roof_clay_verge
v -2.450000 -0.257500 0.000000 0.9568 0.9568 0.9568
v -1.633333 0.355000 0.350000 1.0000 1.0000 1.0000
v -0.816667 0.967500 0.000000 1.0000 1.0000 1.0000
v -1.633333 0.355000 0.000000 1.0000 1.0000 1.0000
v -0.816667 0.967500 0.350000 1.0000 1.0000 1.0000
v -2.450000 -0.337500 0.000000 0.7608 0.7608 0.7608
v -1.633333 0.275000 0.350000 0.7020 0.7020 0.7020
v -2.450000 -0.337500 0.350000 0.7020 0.7020 0.7020
v -1.633333 0.275000 0.000000 0.9921 0.9921 0.9921
v -0.816667 0.887500 0.000000 0.9921 0.9921 0.9921
v -0.816667 0.887500 0.350000 0.7020 0.7020 0.7020
v -2.570000 -0.357500 0.350000 0.9058 0.9058 0.9058
v -2.450000 -0.457500 0.000000 0.7686 0.7686 0.7686
v -2.570000 -0.457500 0.000000 0.7960 0.7960 0.7960
v -2.570000 -0.357500 0.000000 0.9137 0.9137 0.9137
v -2.570000 -0.457500 0.350000 0.7960 0.7960 0.7960
v -2.450000 -0.357500 0.000000 0.8627 0.8627 0.8627
v -2.450000 -0.357500 0.350000 0.8117 0.8117 0.8117
v -2.450000 -0.457500 0.310000 0.7333 0.7333 0.7333
v -2.450000 -0.257500 0.350000 0.9451 0.9451 0.9451
v -2.450000 -0.257500 0.310000 0.8784 0.8784 0.8784
v -2.450000 -0.457500 0.350000 0.7490 0.7490 0.7490
v 1.633333 0.355000 0.000000 1.0000 1.0000 1.0000
v 1.633333 0.355000 0.350000 1.0000 1.0000 1.0000
v 0.816667 0.967500 0.000000 1.0000 1.0000 1.0000
v 0.816667 0.967500 0.350000 1.0000 1.0000 1.0000
v 0.000000 1.580000 0.000000 0.7020 0.7020 0.7020
v 2.450000 -0.337500 0.350000 0.7020 0.7020 0.7020
v 1.633333 0.275000 0.350000 0.7020 0.7020 0.7020
v 1.633333 0.275000 0.000000 0.9921 0.9921 0.9921
v 2.450000 -0.337500 0.000000 0.7608 0.7608 0.7608
v 0.816667 0.887500 0.350000 0.7020 0.7020 0.7020
v 0.000000 1.500000 0.350000 0.7020 0.7020 0.7020
v 0.000000 1.500000 0.000000 0.7020 0.7020 0.7020
v 0.816667 0.887500 0.000000 0.9921 0.9921 0.9921
v 2.450000 -0.257500 0.000000 0.9607 0.9607 0.9607
v 2.450000 -0.357500 0.350000 0.8078 0.8078 0.8078
v 2.570000 -0.457500 0.000000 0.8000 0.8000 0.8000
v 2.450000 -0.457500 0.000000 0.7686 0.7686 0.7686
v 2.450000 -0.357500 0.000000 0.8666 0.8666 0.8666
v 2.570000 -0.357500 0.000000 0.9137 0.9137 0.9137
v 2.570000 -0.357500 0.350000 0.9098 0.9098 0.9098
v 2.570000 -0.457500 0.350000 0.8000 0.8000 0.8000
v 2.450000 -0.457500 0.350000 0.7490 0.7490 0.7490
v 2.450000 -0.257500 0.350000 0.9490 0.9490 0.9490
v 0.000000 1.380000 0.350000 0.9215 0.9215 0.9215
v 0.000000 1.580000 0.350000 0.7843 0.7843 0.7843
v 0.000000 1.580000 0.310000 0.7020 0.7020 0.7020
v 0.000000 1.380000 0.310000 0.8470 0.8470 0.8470
v 2.450000 -0.457500 0.310000 0.7372 0.7372 0.7372
v 2.450000 -0.257500 0.310000 0.8784 0.8784 0.8784
v 0.110000 1.550000 0.350000 0.9725 0.9725 0.9725
v 0.000000 1.660000 -0.000000 1.0000 1.0000 1.0000
v 0.000000 1.660000 0.350000 1.0000 1.0000 1.0000
v 0.077782 1.627782 0.350000 0.9960 0.9960 0.9960
v -0.077782 1.627782 -0.000000 0.9960 0.9960 0.9960
v -0.110000 1.550000 -0.000000 0.9725 0.9725 0.9725
v -0.110000 1.550000 0.350000 0.9725 0.9725 0.9725
v -0.077782 1.472218 0.350000 0.8000 0.8000 0.8000
v -0.000000 1.440000 0.000000 0.9686 0.9686 0.9686
v -0.077782 1.627782 0.350000 1.0000 1.0000 1.0000
v -0.000000 1.440000 0.350000 0.8000 0.8000 0.8000
v 0.077782 1.472218 0.350000 0.8000 0.8000 0.8000
v 0.077782 1.472218 0.000000 0.8941 0.8941 0.8941
v -0.077782 1.472218 0.000000 0.8941 0.8941 0.8941
v 0.077782 1.627782 -0.000000 0.9960 0.9960 0.9960
v 0.110000 1.550000 0.000000 0.9764 0.9764 0.9764
vn -0.6000 0.8000 -0.0000
vn 0.6000 -0.8000 -0.0000
vn -1.0000 -0.0000 -0.0000
vn -0.0000 -0.0000 1.0000
vn -0.0000 -0.0000 -1.0000
vn 1.0000 -0.0000 -0.0000
vn -0.0000 1.0000 -0.0000
vn -0.0000 -1.0000 -0.0000
vn 0.6000 0.8000 -0.0000
vn -0.6000 -0.8000 -0.0000
vn 0.7071 0.7071 -0.0000
vn -0.7071 0.7071 -0.0000
vn -0.7071 -0.7071 -0.0000
vn 0.7071 -0.7071 -0.0000
vt 0.437744 0.937744
vt 0.499756 0.937744
vt 0.499756 0.999756
vt 0.437744 0.999756
vt 0.062744 0.937744
vt 0.124756 0.937744
vt 0.124756 0.999756
vt 0.062744 0.999756
vt 0.625244 0.984619
vt 0.640381 0.984619
vt 0.640381 0.999756
vt 0.625244 0.999756
vt 0.656494 0.984619
vt 0.663760 0.984619
vt 0.663760 0.990674
vt 0.656494 0.990674
vt 0.671631 0.984619
vt 0.671631 0.988944
vt 0.656494 0.988944
vt 0.661684 0.984619
vt 0.661684 0.999756
vt 0.656494 0.999756
vt 0.640381 0.995972
vt 0.640381 0.997207
vt 0.625244 0.985855
vt 0.640381 0.985855
vt 0.625244 0.997207
vt 0.625244 0.995972
vt 0.632349 0.984619
vt 0.625244 0.987041
vt 0.632349 0.987041
vt 0.632812 0.984619
vt 0.632812 0.987041
vt 0.639917 0.984619
vt 0.639917 0.987041
vt 0.640381 0.987041
vt 0.695557 0.992432
vt 0.696472 0.992432
vt 0.696472 0.999756
vt 0.695557 0.999756
vt 0.697388 0.992432
vt 0.697388 0.999756
vt 0.698303 0.992432
vt 0.698303 0.999756
vt 0.699219 0.992432
vt 0.699219 0.999756
vt 0.700134 0.992432
vt 0.700134 0.999756
vt 0.701050 0.992432
vt 0.701050 0.999756
vt 0.701965 0.992432
vt 0.701965 0.999756
vt 0.702881 0.992432
vt 0.702881 0.999756
vt 0.702881 0.996094
vt 0.701808 0.998683
vt 0.696629 0.998683
vt 0.695557 0.996094
vt 0.696629 0.993504
vt 0.701808 0.993504
s 0
usemtl props
f 20/1/1 2/2/1 4/3/1 1/4/1
f 2/1/1 5/2/1 3/3/1 4/4/1
f 5/1/1 47/2/1 27/3/1 3/4/1
f 6/5/2 9/6/2 7/7/2 8/8/2
f 9/5/2 10/6/2 11/7/2 7/8/2
f 10/5/2 34/6/2 33/7/2 11/8/2
f 13/9/3 22/10/3 20/11/3 1/12/3
f 16/13/4 22/14/4 18/15/4 12/16/4
f 13/13/5 14/14/5 15/15/5 17/16/5
f 14/13/3 16/17/3 12/18/3 15/19/3
f 22/13/6 13/17/6 17/18/6 18/19/6
f 12/13/7 18/20/7 17/21/7 15/22/7
f 14/13/8 13/20/8 22/21/8 16/22/8
f 22/9/4 46/23/4 47/24/4 20/25/4
f 21/26/5 48/27/5 49/28/5 19/10/5
f 46/29/2 22/9/2 19/30/2 49/31/2
f 47/32/6 46/29/6 49/31/6 48/33/6
f 20/34/1 47/32/1 48/33/1 21/35/1
f 22/10/3 20/34/3 21/35/3 19/36/3
f 36/1/9 23/2/9 24/3/9 45/4/9
f 23/1/9 25/2/9 26/3/9 24/4/9
f 25/1/9 27/2/9 47/3/9 26/4/9
f 28/5/10 29/6/10 30/7/10 31/8/10
f 29/5/10 32/6/10 35/7/10 30/8/10
f 32/5/10 33/6/10 34/7/10 35/8/10
f 36/9/6 45/10/6 44/11/6 39/12/6
f 44/13/4 43/14/4 42/15/4 37/16/4
f 38/13/5 39/14/5 40/15/5 41/16/5
f 39/13/3 44/17/3 37/18/3 40/19/3
f 43/13/6 38/17/6 41/18/6 42/19/6
f 37/13/7 42/20/7 41/21/7 40/22/7
f 39/13/8 38/20/8 43/21/8 44/22/8
f 45/26/4 47/27/4 46/28/4 44/10/4
f 50/9/5 49/23/5 48/24/5 51/25/5
f 47/29/9 45/9/9 51/30/9 48/31/9
f 44/34/10 46/32/10 49/33/10 50/35/10
f 45/10/6 44/34/6 50/35/6 51/36/6
s 1
f 67/37/6 66/38/11 55/39/11 52/40/6
f 66/38/11 53/41/7 54/42/7 55/39/11
f 53/41/7 56/43/12 61/44/12 54/42/7
f 56/43/12 57/45/3 58/46/3 61/44/12
f 57/45/3 65/47/13 59/48/13 58/46/3
f 65/47/13 60/49/8 62/50/8 59/48/13
f 60/49/8 64/51/14 63/52/14 62/50/8
f 64/51/14 67/53/6 52/54/6 63/52/14
s 0
f 52/55/4 55/56/4 54/46/4 61/57/4 58/58/4 59/59/4 62/45/4 63/60/4
f 64/56/5 60/46/5 65/57/5 57/58/5 56/59/5 53/45/5 66/60/5 67/55/5
