# Blender 4.5.14 LTS
# www.blender.org
mtllib roof_clay.mtl
o roof_clay
v -1.000000 0.355000 1.633333 1.0000 1.0000 1.0000
v -1.000000 0.967500 0.816667 1.0000 1.0000 1.0000
v 0.000000 1.580000 0.000000 0.7020 0.7020 0.7020
v 0.000000 -0.257500 2.450000 1.0000 1.0000 1.0000
v 1.000000 -0.257500 2.450000 0.9529 0.9529 0.9529
v 1.000000 0.355000 1.633333 1.0000 1.0000 1.0000
v 0.000000 0.355000 1.633333 1.0000 1.0000 1.0000
v 1.000000 0.967500 0.816667 1.0000 1.0000 1.0000
v 0.000000 0.967500 0.816667 1.0000 1.0000 1.0000
v 1.000000 1.580000 0.000000 0.7020 0.7020 0.7020
v 1.000000 -0.337500 2.450000 0.7608 0.7608 0.7608
v 0.000000 -0.337500 2.450000 0.7608 0.7608 0.7608
v 0.000000 0.275000 1.633333 1.0000 1.0000 1.0000
v 1.000000 0.275000 1.633333 1.0000 1.0000 1.0000
v 1.000000 0.887500 0.816667 1.0000 1.0000 1.0000
v 1.000000 1.500000 0.000000 0.7020 0.7020 0.7020
v -1.000000 -0.337500 2.450000 0.7608 0.7608 0.7608
v -1.000000 0.275000 1.633333 1.0000 1.0000 1.0000
v -1.000000 0.887500 0.816667 1.0000 1.0000 1.0000
v 0.000000 0.887500 0.816667 1.0000 1.0000 1.0000
v 1.000000 -0.457500 2.450000 0.7725 0.7725 0.7725
v -1.000000 -0.257500 2.450000 0.9529 0.9529 0.9529
v 1.000000 -0.357500 2.570000 0.9098 0.9098 0.9098
v -1.000000 -0.357500 2.450000 0.8627 0.8627 0.8627
v -1.000000 -0.357500 2.570000 0.9058 0.9058 0.9058
v 1.000000 -0.357500 2.450000 0.8588 0.8588 0.8588
v -1.000000 -0.457500 2.450000 0.7647 0.7647 0.7647
v 1.000000 -0.457500 2.570000 0.8000 0.8000 0.8000
v -1.000000 -0.457500 2.570000 0.7960 0.7960 0.7960
v 1.000000 0.355000 -1.633333 1.0000 1.0000 1.0000
v 0.000000 0.967500 -0.816667 1.0000 1.0000 1.0000
v 1.000000 0.967500 -0.816667 1.0000 1.0000 1.0000
v 0.000000 -0.257500 -2.450000 0.9921 0.9921 0.9921
v 0.000000 0.355000 -1.633333 1.0000 1.0000 1.0000
v -1.000000 0.355000 -1.633333 1.0000 1.0000 1.0000
v -1.000000 0.967500 -0.816667 1.0000 1.0000 1.0000
v -1.000000 1.580000 0.000000 0.7020 0.7020 0.7020
v -1.000000 -0.337500 -2.450000 0.7764 0.7764 0.7764
v -1.000000 0.275000 -1.633333 1.0000 1.0000 1.0000
v -1.000000 0.887500 -0.816667 1.0000 1.0000 1.0000
v -1.000000 1.500000 0.000000 0.7020 0.7020 0.7020
v 0.000000 -0.337500 -2.450000 0.7764 0.7764 0.7764
v 1.000000 -0.337500 -2.450000 0.7764 0.7764 0.7764
v 1.000000 0.275000 -1.633333 1.0000 1.0000 1.0000
v 0.000000 0.275000 -1.633333 1.0000 1.0000 1.0000
v 1.000000 0.887500 -0.816667 1.0000 1.0000 1.0000
v 0.000000 0.887500 -0.816667 1.0000 1.0000 1.0000
v 0.000000 1.500000 0.000000 0.7020 0.7020 0.7020
v -1.000000 -0.257500 -2.450000 0.9529 0.9529 0.9529
v 1.000000 -0.257500 -2.450000 0.9529 0.9529 0.9529
v 1.000000 -0.357500 -2.450000 0.8549 0.8549 0.8549
v 1.000000 -0.357500 -2.570000 0.9137 0.9137 0.9137
v -1.000000 -0.457500 -2.570000 0.7960 0.7960 0.7960
v -1.000000 -0.457500 -2.450000 0.7686 0.7686 0.7686
v -1.000000 -0.357500 -2.450000 0.8549 0.8549 0.8549
v -1.000000 -0.357500 -2.570000 0.9098 0.9098 0.9098
v 1.000000 -0.457500 -2.570000 0.8000 0.8000 0.8000
v 1.000000 -0.457500 -2.450000 0.7686 0.7686 0.7686
vn -0.0000 0.8000 0.6000
vn -0.0000 -0.8000 -0.6000
vn -0.0000 -0.0000 1.0000
vn -0.0000 -0.0000 -1.0000
vn -1.0000 -0.0000 -0.0000
vn 1.0000 -0.0000 -0.0000
vn -0.0000 1.0000 -0.0000
vn -0.0000 -1.0000 -0.0000
vn -0.0000 0.8000 -0.6000
vn -0.0000 -0.8000 0.6000
vt 0.437744 0.937744
vt 0.499756 0.937744
vt 0.499756 0.999756
vt 0.437744 0.999756
vt 0.062744 0.937744
vt 0.124756 0.937744
vt 0.124756 0.999756
vt 0.062744 0.999756
vt 0.625244 0.984619
vt 0.640381 0.984619
vt 0.640381 0.999756
vt 0.625244 0.999756
vt 0.656494 0.984619
vt 0.671631 0.984619
vt 0.671631 0.985376
vt 0.656494 0.985376
vt 0.663760 0.984619
vt 0.663760 0.990674
vt 0.656494 0.990674
vt 0.671631 0.985527
vt 0.656494 0.985527
s 0
usemtl props
f 22/1/1 4/2/1 7/3/1 1/4/1
f 1/1/1 7/2/1 9/3/1 2/4/1
f 2/1/1 9/2/1 3/3/1 37/4/1
f 4/1/1 5/2/1 6/3/1 7/4/1
f 7/1/1 6/2/1 8/3/1 9/4/1
f 9/1/1 8/2/1 10/3/1 3/4/1
f 11/5/2 12/6/2 13/7/2 14/8/2
f 14/5/2 13/6/2 20/7/2 15/8/2
f 15/5/2 20/6/2 48/7/2 16/8/2
f 12/5/2 17/6/2 18/7/2 13/8/2
f 13/5/2 18/6/2 19/7/2 20/8/2
f 20/5/2 19/6/2 41/7/2 48/8/2
f 27/9/3 21/10/3 5/11/3 22/12/3
f 29/13/3 28/14/3 23/15/3 25/16/3
f 21/13/4 27/14/4 24/15/4 26/16/4
f 27/13/5 29/17/5 25/18/5 24/19/5
f 28/13/6 21/17/6 26/18/6 23/19/6
f 25/13/7 23/14/7 26/20/7 24/21/7
f 27/13/8 21/14/8 28/20/8 29/21/8
f 50/1/9 33/2/9 34/3/9 30/4/9
f 30/1/9 34/2/9 31/3/9 32/4/9
f 32/1/9 31/2/9 3/3/9 10/4/9
f 33/1/9 49/2/9 35/3/9 34/4/9
f 34/1/9 35/2/9 36/3/9 31/4/9
f 31/1/9 36/2/9 37/3/9 3/4/9
f 38/5/10 42/6/10 45/7/10 39/8/10
f 39/5/10 45/6/10 47/7/10 40/8/10
f 40/5/10 47/6/10 48/7/10 41/8/10
f 42/5/10 43/6/10 44/7/10 45/8/10
f 45/5/10 44/6/10 46/7/10 47/8/10
f 47/5/10 46/6/10 16/7/10 48/8/10
f 58/9/4 54/10/4 49/11/4 50/12/4
f 54/13/3 58/14/3 51/15/3 55/16/3
f 57/13/4 53/14/4 56/15/4 52/16/4
f 53/13/5 54/17/5 55/18/5 56/19/5
f 58/13/6 57/17/6 52/18/6 51/19/6
f 55/13/7 51/14/7 52/20/7 56/21/7
f 53/13/8 57/14/8 58/20/8 54/21/8
o roof_clay_1
v -1.000000 1.472218 -0.077782 0.8666 0.8666 0.8666
v 1.000000 1.472218 -0.077782 0.8627 0.8627 0.8627
v 1.000000 1.440000 0.000000 0.9686 0.9686 0.9686
v -1.000000 1.550000 -0.110000 0.9686 0.9686 0.9686
v 1.000000 1.550000 -0.110000 0.9725 0.9725 0.9725
v -1.000000 1.627782 -0.077782 0.9960 0.9960 0.9960
v 1.000000 1.660000 -0.000000 1.0000 1.0000 1.0000
v -1.000000 1.660000 -0.000000 1.0000 1.0000 1.0000
v -1.000000 1.627782 0.077782 0.9960 0.9960 0.9960
v 1.000000 1.627782 0.077782 0.9960 0.9960 0.9960
v -1.000000 1.550000 0.110000 0.9725 0.9725 0.9725
v 1.000000 1.472218 0.077782 0.8666 0.8666 0.8666
v 1.000000 1.550000 0.110000 0.9725 0.9725 0.9725
v -1.000000 1.440000 0.000000 0.9686 0.9686 0.9686
v 1.000000 1.627782 -0.077782 0.9960 0.9960 0.9960
v -1.000000 1.472218 0.077782 0.8627 0.8627 0.8627
vn -0.0000 -1.0000 -0.0000
vn -0.0000 -0.7071 -0.7071
vn -0.0000 -0.0000 -1.0000
vn -0.0000 0.7071 -0.7071
vn -0.0000 1.0000 -0.0000
vn -0.0000 0.7071 0.7071
vn -0.0000 -0.0000 1.0000
vn -0.0000 -0.7071 0.7071
vn 1.0000 -0.0000 -0.0000
vn -1.0000 -0.0000 -0.0000
vt 0.695557 0.992432
vt 0.696472 0.992432
vt 0.696472 0.999756
vt 0.695557 0.999756
vt 0.697388 0.992432
vt 0.697388 0.999756
vt 0.698303 0.992432
vt 0.698303 0.999756
vt 0.699219 0.992432
vt 0.699219 0.999756
vt 0.700134 0.992432
vt 0.700134 0.999756
vt 0.701050 0.992432
vt 0.701050 0.999756
vt 0.701965 0.992432
vt 0.701965 0.999756
vt 0.702881 0.992432
vt 0.702881 0.999756
vt 0.702881 0.996094
vt 0.701808 0.998683
vt 0.696629 0.998683
vt 0.695557 0.996094
vt 0.696629 0.993504
vt 0.701808 0.993504
s 1
usemtl props
f 72/22/11 59/23/12 60/24/12 61/25/11
f 59/23/12 62/26/13 63/27/13 60/24/12
f 62/26/13 64/28/14 73/29/14 63/27/13
f 64/28/14 66/30/15 65/31/15 73/29/14
f 66/30/15 67/32/16 68/33/16 65/31/15
f 67/32/16 69/34/17 71/35/17 68/33/16
f 69/34/17 74/36/18 70/37/18 71/35/17
f 74/36/18 72/38/11 61/39/11 70/37/18
s 0
f 61/40/19 60/41/19 63/31/19 73/42/19 65/43/19 68/44/19 71/30/19 70/45/19
f 74/41/20 69/31/20 67/42/20 66/43/20 64/44/20 62/30/20 59/45/20 72/40/20
