# Blender 4.5.14 LTS
# www.blender.org
mtllib wall_low_stone.mtl
o wall_low_stone
v -1.000000 0.000000 0.100000 0.8470 0.8470 0.8470
v 0.000000 1.000000 0.100000 0.7960 0.7960 0.7960
v -1.000000 1.000000 0.100000 0.8039 0.8039 0.8039
v -1.000000 1.000000 -0.100000 0.8039 0.8039 0.8039
v 0.000000 1.000000 -0.100000 0.7960 0.7960 0.7960
v 0.000000 0.000000 -0.100000 0.8509 0.8509 0.8509
v -1.000000 0.000000 -0.100000 0.8509 0.8509 0.8509
v 0.000000 0.000000 0.100000 0.8470 0.8470 0.8470
v 1.000000 0.000000 0.100000 0.8470 0.8470 0.8470
v 1.000000 0.000000 -0.100000 0.8509 0.8509 0.8509
v 1.000000 1.000000 0.100000 0.8039 0.8039 0.8039
v 1.000000 1.000000 -0.100000 0.8039 0.8039 0.8039
v 1.000000 1.060000 0.130000 1.0000 1.0000 1.0000
v -1.000000 1.060000 -0.130000 1.0000 1.0000 1.0000
v -1.000000 1.000000 -0.130000 0.9647 0.9647 0.9647
v -1.000000 1.000000 0.130000 0.9607 0.9607 0.9607
v -1.000000 1.060000 0.130000 1.0000 1.0000 1.0000
v 1.000000 1.000000 0.130000 0.9647 0.9647 0.9647
v 1.000000 1.000000 -0.130000 0.9647 0.9647 0.9647
v 1.000000 1.060000 -0.130000 1.0000 1.0000 1.0000
vn -0.0000 -0.0000 1.0000
vn -0.0000 -0.0000 -1.0000
vn -0.0000 1.0000 -0.0000
vn -1.0000 -0.0000 -0.0000
vn 1.0000 -0.0000 -0.0000
vn -0.0000 -1.0000 -0.0000
vt 0.500244 0.937744
vt 0.562256 0.937744
vt 0.562256 0.999756
vt 0.500244 0.999756
vt 0.562256 0.950146
vt 0.500244 0.950146
vt 0.672119 0.984619
vt 0.687256 0.984619
vt 0.687256 0.985073
vt 0.672119 0.985073
vt 0.687256 0.988112
vt 0.672119 0.988112
vt 0.687256 0.986587
vt 0.672119 0.986587
s 0
usemtl props
f 1/1/1 8/2/1 2/3/1 3/4/1
f 4/3/2 5/4/2 6/1/2 7/2/2
f 8/1/1 9/2/1 11/3/1 2/4/1
f 5/3/2 12/4/2 10/1/2 6/2/2
f 3/1/3 2/2/3 5/5/3 4/6/3
f 2/1/3 11/2/3 12/5/3 5/6/3
f 16/7/1 18/8/1 13/9/1 17/10/1
f 19/7/2 15/8/2 14/9/2 20/10/2
f 15/7/4 16/8/4 17/11/4 14/12/4
f 18/7/5 19/8/5 20/11/5 13/12/5
f 17/7/3 13/8/3 20/13/3 14/14/3
f 15/7/6 19/8/6 18/13/6 16/14/6
