# Blender 4.5.14 LTS
# www.blender.org
mtllib wall_post_low_stone.mtl
o wall_post_low_stone
v -0.100000 1.000000 -0.100000 0.8274 0.8274 0.8274
v 0.100000 1.000000 -0.100000 0.8274 0.8274 0.8274
v 0.100000 0.000000 0.100000 0.8509 0.8509 0.8509
v 0.100000 0.000000 -0.100000 0.8509 0.8509 0.8509
v 0.100000 1.000000 0.100000 0.8274 0.8274 0.8274
v -0.100000 0.000000 -0.100000 0.8470 0.8470 0.8470
v -0.100000 0.000000 0.100000 0.8470 0.8470 0.8470
v -0.100000 1.000000 0.100000 0.8274 0.8274 0.8274
v -0.130000 1.000000 0.130000 0.9764 0.9764 0.9764
v 0.130000 1.000000 0.130000 0.9764 0.9764 0.9764
v 0.130000 1.060000 0.130000 1.0000 1.0000 1.0000
v -0.130000 1.000000 -0.130000 0.9764 0.9764 0.9764
v -0.130000 1.060000 -0.130000 1.0000 1.0000 1.0000
v -0.130000 1.060000 0.130000 1.0000 1.0000 1.0000
v 0.130000 1.060000 -0.130000 1.0000 1.0000 1.0000
v 0.130000 1.000000 -0.130000 0.9764 0.9764 0.9764
vn -0.0000 -0.0000 1.0000
vn -0.0000 -0.0000 -1.0000
vn -0.0000 1.0000 -0.0000
vn 1.0000 -0.0000 -0.0000
vn -1.0000 -0.0000 -0.0000
vn -0.0000 -1.0000 -0.0000
vt 0.500244 0.937744
vt 0.512646 0.937744
vt 0.512646 0.999756
vt 0.500244 0.999756
vt 0.562256 0.999756
vt 0.549854 0.999756
vt 0.549854 0.937744
vt 0.562256 0.937744
vt 0.512646 0.950146
vt 0.500244 0.950146
vt 0.672119 0.984619
vt 0.687256 0.984619
vt 0.687256 0.988112
vt 0.672119 0.988112
vt 0.687256 0.999756
vt 0.672119 0.999756
s 0
usemtl props
f 7/1/1 3/2/1 5/3/1 8/4/1
f 1/5/2 2/6/2 4/7/2 6/8/2
f 8/1/3 5/2/3 2/9/3 1/10/3
f 3/1/4 4/2/4 2/3/4 5/4/4
f 6/1/5 7/2/5 8/3/5 1/4/5
f 9/11/1 10/12/1 11/13/1 14/14/1
f 16/11/2 12/12/2 13/13/2 15/14/2
f 12/11/5 9/12/5 14/13/5 13/14/5
f 10/11/4 16/12/4 15/13/4 11/14/4
f 14/11/3 11/12/3 15/15/3 13/16/3
f 12/11/6 16/12/6 10/15/6 9/16/6
