# Blender 4.5.14 LTS
# www.blender.org
mtllib wall_gable_brick.mtl
o wall_gable_brick
v -2.000000 0.000000 0.100000 0.9019 0.9019 0.9019
v -1.000000 0.000000 0.100000 0.8470 0.8470 0.8470
v -1.000000 0.000000 -0.100000 0.8509 0.8509 0.8509
v -0.666667 0.000000 0.100000 0.8470 0.8470 0.8470
v -1.000000 0.750000 0.100000 1.0000 1.0000 1.0000
v -0.666667 0.000000 -0.100000 0.8509 0.8509 0.8509
v 0.000000 0.000000 0.100000 0.8470 0.8470 0.8470
v -0.666667 1.000000 0.100000 1.0000 1.0000 1.0000
v -0.666667 1.000000 -0.100000 1.0000 1.0000 1.0000
v 0.666667 0.000000 0.100000 0.8470 0.8470 0.8470
v 0.666667 1.000000 0.100000 1.0000 1.0000 1.0000
v 0.000000 0.000000 -0.100000 0.8509 0.8509 0.8509
v 0.000000 1.000000 0.100000 1.0000 1.0000 1.0000
v 0.000000 1.000000 -0.100000 1.0000 1.0000 1.0000
v 1.000000 0.750000 0.100000 1.0000 1.0000 1.0000
v 0.666667 1.000000 -0.100000 1.0000 1.0000 1.0000
v 0.666667 0.000000 -0.100000 0.8509 0.8509 0.8509
v 1.000000 0.000000 0.100000 0.8470 0.8470 0.8470
v 2.000000 0.000000 0.100000 0.9019 0.9019 0.9019
v 1.000000 0.750000 -0.100000 1.0000 1.0000 1.0000
v 2.000000 0.000000 -0.100000 0.9019 0.9019 0.9019
v 1.000000 0.000000 -0.100000 0.8509 0.8509 0.8509
v -2.000000 0.000000 -0.100000 0.9058 0.9058 0.9058
v -1.000000 0.750000 -0.100000 1.0000 1.0000 1.0000
v 0.000000 1.500000 0.100000 1.0000 1.0000 1.0000
v 0.000000 1.500000 -0.100000 1.0000 1.0000 1.0000
vn -0.0000 -0.0000 1.0000
vn -0.0000 -0.0000 -1.0000
vn -0.6000 0.8000 -0.0000
vn 0.6000 0.8000 -0.0000
vt 0.000244 0.937744
vt 0.062256 0.937744
vt 0.062256 0.984253
vt 0.000244 0.984253
vt 0.020915 0.937744
vt 0.020915 0.999756
vt 0.041585 0.999756
vt 0.041585 0.937744
vt 0.062256 0.999756
vt 0.000244 0.999756
vt 0.062256 0.968750
vt 0.000244 0.968750
vt 0.062256 0.950146
vt 0.000244 0.950146
s 0
usemtl props
f 1/1/1 2/2/1 5/3/1
f 24/4/2 3/1/2 23/2/2
f 2/1/1 4/5/1 8/6/1 5/4/1
f 24/3/2 9/7/2 6/8/2 3/2/2
f 4/5/1 7/2/1 13/9/1 8/6/1
f 9/7/2 14/10/2 12/1/2 6/8/2
f 8/5/1 13/2/1 25/11/1
f 26/12/2 14/1/2 9/8/2
f 7/1/1 10/8/1 11/7/1 13/10/1
f 14/9/2 16/6/2 17/5/2 12/2/2
f 13/1/1 11/8/1 25/12/1
f 26/11/2 16/5/2 14/2/2
f 10/8/1 18/2/1 15/3/1 11/7/1
f 16/6/2 20/4/2 22/1/2 17/5/2
f 18/1/1 19/2/1 15/4/1
f 20/3/2 21/1/2 22/2/2
f 1/1/3 5/2/3 24/13/3 23/14/3
f 5/1/3 25/2/3 26/13/3 24/14/3
f 25/1/4 15/2/4 20/13/4 26/14/4
f 15/1/4 19/2/4 21/13/4 20/14/4
