# Blender 4.5.14 LTS
# www.blender.org
mtllib wall_window_brick.mtl
o wall_window_brick
v -1.000000 0.000000 0.100000 0.8470 0.8470 0.8470
v -0.600000 0.000000 0.100000 0.8470 0.8470 0.8470
v -1.000000 1.000000 0.100000 1.0000 1.0000 1.0000
v -1.000000 1.000000 -0.100000 1.0000 1.0000 1.0000
v -0.600000 0.000000 -0.100000 0.8509 0.8509 0.8509
v -1.000000 0.000000 -0.100000 0.8509 0.8509 0.8509
v -0.600000 1.000000 0.100000 0.7608 0.7608 0.7608
v -0.600000 1.000000 -0.100000 0.9019 0.9019 0.9019
v -1.000000 2.000000 0.100000 1.0000 1.0000 1.0000
v -0.600000 3.000000 -0.100000 1.0000 1.0000 1.0000
v -1.000000 2.000000 -0.100000 1.0000 1.0000 1.0000
v -1.000000 3.000000 0.100000 1.0000 1.0000 1.0000
v -0.600000 3.000000 0.100000 1.0000 1.0000 1.0000
v -1.000000 3.000000 -0.100000 1.0000 1.0000 1.0000
v -0.600000 2.000000 -0.100000 0.9686 0.9686 0.9686
v -0.600000 2.000000 0.100000 0.9686 0.9686 0.9686
v -0.600000 2.100000 -0.100000 0.8627 0.8627 0.8627
v -0.600000 2.100000 0.100000 0.8627 0.8627 0.8627
vn -0.0000 -0.0000 1.0000
vn -0.0000 -0.0000 -1.0000
vn -0.0000 1.0000 -0.0000
vn 1.0000 -0.0000 -0.0000
vt 0.000244 0.937744
vt 0.025049 0.937744
vt 0.025049 0.999756
vt 0.000244 0.999756
vt 0.437256 0.999756
vt 0.412451 0.999756
vt 0.412451 0.937744
vt 0.437256 0.937744
vt 0.374756 0.999756
vt 0.349951 0.999756
vt 0.349951 0.937744
vt 0.374756 0.937744
vt 0.025049 0.950146
vt 0.000244 0.950146
vt 0.012646 0.937744
vt 0.012646 0.999756
vt 0.012646 0.943945
vt 0.000244 0.943945
s 0
usemtl props
f 1/1/1 2/2/1 7/3/1 3/4/1
f 4/5/2 8/6/2 5/7/2 6/8/2
f 3/1/1 7/2/1 16/3/1 9/4/1
f 11/9/2 15/10/2 8/11/2 4/12/2
f 9/1/1 16/2/1 13/3/1 12/4/1
f 14/9/2 10/10/2 15/11/2 11/12/2
f 12/1/3 13/2/3 10/13/3 14/14/3
f 7/1/4 8/15/4 15/16/4 16/4/4
f 16/1/4 15/15/4 17/17/4 18/18/4
o wall_window_brick_1
v -0.600000 0.000000 0.100000 0.8470 0.8470 0.8470
v 0.000000 0.000000 0.100000 0.8470 0.8470 0.8470
v 0.000000 1.000000 0.100000 0.7804 0.7804 0.7804
v 0.000000 1.000000 -0.100000 0.8509 0.8509 0.8509
v 0.000000 0.000000 -0.100000 0.8509 0.8509 0.8509
v -0.600000 0.000000 -0.100000 0.8509 0.8509 0.8509
v 0.600000 0.000000 0.100000 0.8470 0.8470 0.8470
v 0.600000 1.000000 0.100000 0.7843 0.7843 0.7843
v 0.600000 1.000000 -0.100000 0.8509 0.8509 0.8509
v 0.600000 0.000000 -0.100000 0.8509 0.8509 0.8509
v -0.600000 1.000000 0.100000 0.7843 0.7843 0.7843
v -0.600000 1.000000 -0.100000 0.8509 0.8509 0.8509
v 0.650000 1.000000 -0.100000 0.8549 0.8549 0.8549
v -0.650000 1.050000 -0.100000 0.8392 0.8392 0.8392
v -0.650000 1.050000 0.170000 0.9255 0.9255 0.9255
v 0.650000 1.050000 0.170000 0.9215 0.9215 0.9215
v 0.650000 1.050000 -0.100000 0.8392 0.8392 0.8392
v -0.650000 1.000000 -0.100000 0.8549 0.8549 0.8549
v 0.650000 1.000000 0.170000 0.9098 0.9098 0.9098
v -0.650000 1.000000 0.170000 0.9137 0.9137 0.9137
vn -0.0000 -0.0000 1.0000
vn -0.0000 -0.0000 -1.0000
vn -0.0000 1.0000 -0.0000
vn -1.0000 -0.0000 -0.0000
vn 1.0000 -0.0000 -0.0000
vn -0.0000 -1.0000 -0.0000
vt 0.025049 0.937744
vt 0.062256 0.937744
vt 0.062256 0.999756
vt 0.025049 0.999756
vt 0.412451 0.999756
vt 0.375244 0.999756
vt 0.375244 0.937744
vt 0.412451 0.937744
vt 0.000244 0.937744
vt 0.037451 0.937744
vt 0.037451 0.999756
vt 0.000244 0.999756
vt 0.437256 0.999756
vt 0.400049 0.999756
vt 0.400049 0.937744
vt 0.437256 0.937744
vt 0.062256 0.950146
vt 0.025049 0.950146
vt 0.037451 0.950146
vt 0.000244 0.950146
vt 0.593994 0.984619
vt 0.609131 0.984619
vt 0.609131 0.985201
vt 0.593994 0.985201
vt 0.609131 0.987422
vt 0.593994 0.987422
vt 0.609131 0.987763
vt 0.593994 0.987763
s 0
usemtl props
f 19/19/5 20/20/5 21/21/5 29/22/5
f 30/23/6 22/24/6 23/25/6 24/26/6
f 20/27/5 25/28/5 26/29/5 21/30/5
f 22/31/6 27/32/6 28/33/6 23/34/6
f 29/19/7 21/20/7 22/35/7 30/36/7
f 21/27/7 26/28/7 27/37/7 22/38/7
f 38/39/5 37/40/5 34/41/5 33/42/5
f 31/39/6 36/40/6 32/41/6 35/42/6
f 36/39/8 38/40/8 33/43/8 32/44/8
f 37/39/9 31/40/9 35/43/9 34/44/9
f 33/39/7 34/40/7 35/45/7 32/46/7
f 36/39/10 31/40/10 37/45/10 38/46/10
o wall_window_brick_2
v -0.600000 2.100000 0.100000 0.9490 0.9490 0.9490
v -0.600000 3.000000 0.100000 1.0000 1.0000 1.0000
v 0.600000 2.100000 0.100000 0.9529 0.9529 0.9529
v 0.600000 2.100000 -0.100000 0.9529 0.9529 0.9529
v -0.600000 3.000000 -0.100000 1.0000 1.0000 1.0000
v 0.000000 3.000000 0.100000 1.0000 1.0000 1.0000
v 0.600000 3.000000 0.100000 1.0000 1.0000 1.0000
v 0.600000 3.000000 -0.100000 1.0000 1.0000 1.0000
v 0.000000 3.000000 -0.100000 1.0000 1.0000 1.0000
v -0.600000 2.100000 -0.100000 0.9490 0.9490 0.9490
v 0.000000 2.100000 -0.100000 1.0000 1.0000 1.0000
v 0.000000 2.100000 0.100000 1.0000 1.0000 1.0000
vn -0.0000 -0.0000 1.0000
vn -0.0000 -0.0000 -1.0000
vn -0.0000 1.0000 -0.0000
vn -0.0000 -1.0000 -0.0000
vt 0.025049 0.943945
vt 0.062256 0.943945
vt 0.062256 0.999756
vt 0.025049 0.999756
vt 0.349951 0.999756
vt 0.312744 0.999756
vt 0.312744 0.943945
vt 0.349951 0.943945
vt 0.000244 0.943945
vt 0.037451 0.943945
vt 0.037451 0.999756
vt 0.000244 0.999756
vt 0.374756 0.999756
vt 0.337549 0.999756
vt 0.337549 0.943945
vt 0.374756 0.943945
vt 0.025049 0.937744
vt 0.062256 0.937744
vt 0.062256 0.950146
vt 0.025049 0.950146
vt 0.000244 0.937744
vt 0.037451 0.937744
vt 0.037451 0.950146
vt 0.000244 0.950146
s 0
usemtl props
f 39/47/11 50/48/11 44/49/11 40/50/11
f 43/51/12 47/52/12 49/53/12 48/54/12
f 50/55/11 41/56/11 45/57/11 44/58/11
f 47/59/12 46/60/12 42/61/12 49/62/12
f 40/63/13 44/64/13 47/65/13 43/66/13
f 44/67/13 45/68/13 46/69/13 47/70/13
f 48/66/14 49/65/14 50/64/14 39/63/14
f 49/70/14 42/69/14 41/68/14 50/67/14
o wall_window_brick_3
v 0.600000 0.000000 0.100000 0.8470 0.8470 0.8470
v 1.000000 0.000000 0.100000 0.8470 0.8470 0.8470
v 1.000000 1.000000 -0.100000 1.0000 1.0000 1.0000
v 1.000000 0.000000 -0.100000 0.8509 0.8509 0.8509
v 0.600000 0.000000 -0.100000 0.8509 0.8509 0.8509
v 1.000000 1.000000 0.100000 1.0000 1.0000 1.0000
v 0.600000 2.000000 0.100000 0.9725 0.9725 0.9725
v 1.000000 2.000000 -0.100000 1.0000 1.0000 1.0000
v 0.600000 1.000000 -0.100000 0.9019 0.9019 0.9019
v 1.000000 2.000000 0.100000 1.0000 1.0000 1.0000
v 1.000000 3.000000 0.100000 1.0000 1.0000 1.0000
v 0.600000 3.000000 0.100000 1.0000 1.0000 1.0000
v 0.600000 3.000000 -0.100000 1.0000 1.0000 1.0000
v 1.000000 3.000000 -0.100000 1.0000 1.0000 1.0000
v 0.600000 1.000000 0.100000 0.7568 0.7568 0.7568
v 0.600000 2.000000 -0.100000 0.9686 0.9686 0.9686
v 0.600000 2.100000 0.100000 0.8706 0.8706 0.8706
v 0.600000 2.100000 -0.100000 0.8627 0.8627 0.8627
vn -0.0000 -0.0000 1.0000
vn -0.0000 -0.0000 -1.0000
vn -0.0000 1.0000 -0.0000
vn -1.0000 -0.0000 -0.0000
vt 0.037451 0.937744
vt 0.062256 0.937744
vt 0.062256 0.999756
vt 0.037451 0.999756
vt 0.400049 0.999756
vt 0.375244 0.999756
vt 0.375244 0.937744
vt 0.400049 0.937744
vt 0.337549 0.999756
vt 0.312744 0.999756
vt 0.312744 0.937744
vt 0.337549 0.937744
vt 0.062256 0.950146
vt 0.037451 0.950146
vt 0.325146 0.937744
vt 0.325146 0.999756
vt 0.325146 0.943945
vt 0.312744 0.943945
s 0
usemtl props
f 51/71/15 52/72/15 56/73/15 65/74/15
f 59/75/16 53/76/16 54/77/16 55/78/16
f 65/71/15 56/72/15 60/73/15 57/74/15
f 66/79/16 58/80/16 53/81/16 59/82/16
f 57/71/15 60/72/15 61/73/15 62/74/15
f 63/79/16 64/80/16 58/81/16 66/82/16
f 62/71/17 61/72/17 64/83/17 63/84/17
f 59/81/18 65/85/18 57/86/18 66/80/18
f 66/81/18 57/85/18 67/87/18 68/88/18
