# Blender 4.5.14 LTS
# www.blender.org
mtllib wall_brick.mtl
o wall_brick
v -1.000000 0.000000 0.100000 0.8470 0.8470 0.8470
v 0.000000 0.000000 0.100000 0.8470 0.8470 0.8470
v -1.000000 0.000000 -0.100000 0.8509 0.8509 0.8509
v -1.000000 1.000000 0.100000 1.0000 1.0000 1.0000
v -1.000000 1.000000 -0.100000 1.0000 1.0000 1.0000
v -1.000000 2.000000 0.100000 1.0000 1.0000 1.0000
v -1.000000 3.000000 0.100000 1.0000 1.0000 1.0000
v -1.000000 3.000000 -0.100000 1.0000 1.0000 1.0000
v -1.000000 2.000000 -0.100000 1.0000 1.0000 1.0000
v 1.000000 0.000000 0.100000 0.8470 0.8470 0.8470
v 0.000000 1.000000 -0.100000 1.0000 1.0000 1.0000
v 1.000000 0.000000 -0.100000 0.8509 0.8509 0.8509
v 0.000000 0.000000 -0.100000 0.8509 0.8509 0.8509
v 0.000000 1.000000 0.100000 1.0000 1.0000 1.0000
v 1.000000 1.000000 0.100000 1.0000 1.0000 1.0000
v 1.000000 1.000000 -0.100000 1.0000 1.0000 1.0000
v 0.000000 2.000000 0.100000 1.0000 1.0000 1.0000
v 1.000000 2.000000 0.100000 1.0000 1.0000 1.0000
v 0.000000 3.000000 -0.100000 1.0000 1.0000 1.0000
v 1.000000 2.000000 -0.100000 1.0000 1.0000 1.0000
v 0.000000 2.000000 -0.100000 1.0000 1.0000 1.0000
v 0.000000 3.000000 0.100000 1.0000 1.0000 1.0000
v 1.000000 3.000000 0.100000 1.0000 1.0000 1.0000
v 1.000000 3.000000 -0.100000 1.0000 1.0000 1.0000
vn -0.0000 -0.0000 1.0000
vn -0.0000 -0.0000 -1.0000
vn -0.0000 1.0000 -0.0000
vt 0.000244 0.937744
vt 0.062256 0.937744
vt 0.062256 0.999756
vt 0.000244 0.999756
vt 0.437256 0.999756
vt 0.375244 0.999756
vt 0.375244 0.937744
vt 0.437256 0.937744
vt 0.374756 0.999756
vt 0.312744 0.999756
vt 0.312744 0.937744
vt 0.374756 0.937744
vt 0.062256 0.950146
vt 0.000244 0.950146
s 0
usemtl props
f 1/1/1 2/2/1 14/3/1 4/4/1
f 5/5/2 11/6/2 13/7/2 3/8/2
f 4/1/1 14/2/1 17/3/1 6/4/1
f 9/9/2 21/10/2 11/11/2 5/12/2
f 6/1/1 17/2/1 22/3/1 7/4/1
f 8/9/2 19/10/2 21/11/2 9/12/2
f 2/1/1 10/2/1 15/3/1 14/4/1
f 11/5/2 16/6/2 12/7/2 13/8/2
f 14/1/1 15/2/1 18/3/1 17/4/1
f 21/9/2 20/10/2 16/11/2 11/12/2
f 17/1/1 18/2/1 23/3/1 22/4/1
f 19/9/2 24/10/2 20/11/2 21/12/2
f 7/1/3 22/2/3 19/13/3 8/14/3
f 22/1/3 23/2/3 24/13/3 19/14/3
