# Blender 4.5.14 LTS
# www.blender.org
mtllib window_white.mtl
o window_white
v -0.540000 1.000000 0.050000 0.8980 0.8980 0.8980
v -0.600000 1.000000 -0.050000 1.0000 1.0000 1.0000
v -0.600000 2.100000 -0.050000 1.0000 1.0000 1.0000
v -0.540000 1.000000 -0.050000 0.8980 0.8980 0.8980
v -0.600000 2.100000 0.050000 1.0000 1.0000 1.0000
v -0.540000 2.100000 0.050000 0.8980 0.8980 0.8980
v -0.540000 2.100000 -0.050000 0.8980 0.8980 0.8980
v -0.600000 1.000000 0.050000 1.0000 1.0000 1.0000
v 0.540000 1.000000 -0.050000 0.8980 0.8980 0.8980
v 0.600000 1.000000 0.050000 1.0000 1.0000 1.0000
v 0.600000 2.100000 -0.050000 1.0000 1.0000 1.0000
v 0.600000 2.100000 0.050000 1.0000 1.0000 1.0000
v 0.540000 2.100000 0.050000 0.8980 0.8980 0.8980
v 0.600000 1.000000 -0.050000 1.0000 1.0000 1.0000
v -0.540000 1.060000 0.050000 0.8509 0.8509 0.8509
v -0.540000 1.060000 -0.050000 0.8509 0.8509 0.8509
v 0.540000 1.000000 0.050000 0.8980 0.8980 0.8980
v 0.540000 1.060000 0.050000 0.8470 0.8470 0.8470
v 0.540000 1.060000 -0.050000 0.8509 0.8509 0.8509
v 0.540000 2.040000 0.050000 0.8509 0.8509 0.8509
v 0.540000 2.100000 -0.050000 0.8980 0.8980 0.8980
v -0.540000 2.040000 0.050000 0.8509 0.8509 0.8509
v -0.540000 2.040000 -0.050000 0.8470 0.8470 0.8470
v 0.540000 2.040000 -0.050000 0.8509 0.8509 0.8509
v -0.025000 1.060000 0.040000 0.8196 0.8196 0.8196
v 0.025000 2.040000 0.040000 0.8196 0.8196 0.8196
v -0.025000 2.040000 0.040000 0.8235 0.8235 0.8235
v 0.025000 2.040000 -0.040000 0.8196 0.8196 0.8196
v -0.025000 2.040000 -0.040000 0.8235 0.8235 0.8235
v -0.025000 1.060000 -0.040000 0.8196 0.8196 0.8196
v 0.025000 1.060000 -0.040000 0.8235 0.8235 0.8235
v 0.025000 1.060000 0.040000 0.8196 0.8196 0.8196
v -0.540000 1.060000 0.000000 0.8078 0.8078 0.8078
v 0.540000 1.060000 0.000000 0.8117 0.8117 0.8117
v 0.540000 2.040000 0.000000 0.8157 0.8157 0.8157
v -0.540000 2.040000 0.000000 0.8078 0.8078 0.8078
v 0.540000 1.060000 -0.000200 0.8117 0.8117 0.8117
v -0.540000 1.060000 -0.000200 0.8117 0.8117 0.8117
v -0.540000 2.040000 -0.000200 0.8078 0.8078 0.8078
v 0.540000 2.040000 -0.000200 0.8078 0.8078 0.8078
vn -0.0000 -0.0000 1.0000
vn -0.0000 -0.0000 -1.0000
vn -1.0000 -0.0000 -0.0000
vn 1.0000 -0.0000 -0.0000
vn -0.0000 1.0000 -0.0000
vn -0.0000 -1.0000 -0.0000
vt 0.718994 0.992432
vt 0.719394 0.992432
vt 0.719394 0.999756
vt 0.718994 0.999756
vt 0.719660 0.992432
vt 0.719660 0.999756
vt 0.722510 0.992432
vt 0.722510 0.998291
vt 0.718994 0.998291
vt 0.726318 0.992432
vt 0.726318 0.992839
vt 0.718994 0.992839
vt 0.724854 0.992432
vt 0.724854 0.995947
vt 0.718994 0.995947
vt 0.726318 0.993110
vt 0.718994 0.993110
vt 0.719368 0.992432
vt 0.719368 0.999756
vt 0.719592 0.992432
vt 0.719592 0.999756
vt 0.721924 0.992432
vt 0.721924 0.997119
vt 0.718994 0.997119
vt 0.609619 0.984619
vt 0.624756 0.984619
vt 0.624756 0.999756
vt 0.609619 0.999756
s 0
usemtl props
f 8/1/1 1/2/1 6/3/1 5/4/1
f 4/1/2 2/2/2 3/3/2 7/4/2
f 2/1/3 8/5/3 5/6/3 3/4/3
f 1/1/4 4/5/4 7/6/4 6/4/4
f 5/1/5 6/7/5 7/8/5 3/9/5
f 2/1/6 4/7/6 1/8/6 8/9/6
f 17/1/1 10/2/1 12/3/1 13/4/1
f 14/1/2 9/2/2 21/3/2 11/4/2
f 9/1/3 17/5/3 13/6/3 21/4/3
f 10/1/4 14/5/4 11/6/4 12/4/4
f 13/1/5 12/7/5 11/8/5 21/9/5
f 9/1/6 14/7/6 10/8/6 17/9/6
f 1/1/1 17/10/1 18/11/1 15/12/1
f 9/1/2 4/10/2 16/11/2 19/12/2
f 4/1/3 1/13/3 15/14/3 16/15/3
f 17/1/4 9/13/4 19/14/4 18/15/4
f 15/1/5 18/10/5 19/16/5 16/17/5
f 4/1/6 9/10/6 17/16/6 1/17/6
f 22/1/1 20/10/1 13/11/1 6/12/1
f 24/1/2 23/10/2 7/11/2 21/12/2
f 23/1/3 22/13/3 6/14/3 7/15/3
f 20/1/4 24/13/4 21/14/4 13/15/4
f 6/1/5 13/10/5 21/16/5 7/17/5
f 23/1/6 24/10/6 20/16/6 22/17/6
f 25/1/1 32/18/1 26/19/1 27/4/1
f 31/1/2 30/18/2 29/19/2 28/4/2
f 30/1/3 25/20/3 27/21/3 29/4/3
f 32/1/4 31/20/4 28/21/4 26/4/4
f 27/1/5 26/22/5 28/23/5 29/24/5
f 30/1/6 31/22/6 32/23/6 25/24/6
f 33/25/1 34/26/1 35/27/1 36/28/1
f 37/25/2 38/26/2 39/27/2 40/28/2
