# Blender 4.0.2
# www.blender.org
mtllib Pillow.mtl
o Pillow.001
v -0.282701 -0.010819 0.190723
v -0.284804 0.006628 0.191302
v -0.285966 -0.018148 -0.182035
v -0.287182 0.012147 -0.190537
v 0.281895 -0.018154 0.184952
v 0.278310 0.012412 0.192545
v 0.281872 -0.017063 -0.183956
v 0.278360 0.011756 -0.185059
v 0.236705 -0.031864 -0.185870
v -0.234517 -0.031460 -0.189745
v -0.237487 0.022909 -0.187106
v 0.238244 0.024009 -0.188200
v -0.235944 -0.018399 0.190236
v 0.240984 -0.030774 0.187557
v 0.234759 0.025069 0.192226
v -0.233580 0.013146 0.193744
v -0.287102 -0.038927 -0.143644
v -0.284219 -0.025798 0.152451
v -0.286840 0.018294 0.150654
v -0.280092 0.032847 -0.145769
v 0.280119 -0.038893 0.158640
v 0.279397 -0.039654 -0.148017
v 0.278512 0.032308 -0.149810
v 0.283989 0.032013 0.155200
v 0.209860 0.061739 -0.131782
v 0.213818 0.061269 0.140661
v -0.210632 0.062618 -0.132463
v -0.215229 0.061044 0.136308
v -0.214718 -0.069241 -0.130356
v -0.213865 -0.067707 0.132742
v 0.213433 -0.067645 -0.135739
v 0.215125 -0.068509 0.132439
v 0.124815 -0.034543 -0.208165
v -0.125657 -0.023912 -0.215708
v -0.125998 0.039024 -0.209377
v 0.123131 0.028259 -0.213032
v -0.122041 -0.014312 0.213343
v 0.120831 -0.029992 0.218569
v 0.126073 0.023556 0.211603
v -0.121050 0.030254 0.215614
v 0.113108 -0.076367 -0.152174
v -0.116417 -0.066501 -0.153214
v 0.110896 -0.077702 0.150888
v -0.112174 -0.065519 0.156677
v -0.119004 0.081123 -0.149360
v 0.116908 0.071639 -0.152571
v -0.119270 0.081566 0.155014
v 0.110690 0.071541 0.155962
vn -0.7365 0.6565 -0.1631
vn -0.9953 0.0620 0.0740
vn -0.7997 -0.5725 -0.1808
vn 0.2047 -0.5368 -0.8185
vn 0.6311 0.3413 -0.6966
vn 0.1785 -0.4303 -0.8849
vn 0.7843 0.5856 0.2048
vn 0.9989 -0.0162 0.0430
vn 0.7342 -0.6346 0.2411
vn -0.2224 0.4363 0.8719
vn -0.0979 -0.5334 0.8401
vn -0.1626 -0.5367 0.8280
vn 0.1713 -0.5505 0.8170
vn 0.2261 -0.9487 0.2211
vn -0.8268 0.5319 0.1829
vn -0.3389 0.9016 0.2688
vn 0.1638 0.4976 0.8518
vn 0.5632 0.2955 0.7716
vn -0.1180 0.4166 0.9014
vn -0.1066 0.9313 0.3484
vn -0.7807 -0.5874 0.2134
vn 0.1088 -0.4056 0.9076
vn 0.0435 -0.9511 0.3058
vn 0.2059 -0.4930 0.8453
vn -0.1085 -0.4186 0.9017
vn -0.1580 -0.5114 -0.8447
vn -0.2157 0.5228 -0.8247
vn -0.2224 -0.5150 -0.8278
vn 0.1018 -0.4859 -0.8681
vn 0.2117 0.5100 -0.8337
vn 0.2228 -0.9442 -0.2427
vn 0.0418 -0.9458 -0.3220
vn -0.2248 -0.9344 0.2763
vn -0.1225 0.5171 -0.8471
vn -0.2840 0.9310 -0.2292
vn -0.0973 0.9484 -0.3018
vn 0.7605 0.6198 -0.1935
vn 0.2326 0.9475 -0.2194
vn 0.7693 -0.6097 -0.1911
vn 0.9984 0.0452 0.0330
vn -0.9954 -0.0880 0.0389
vn 0.0859 0.9328 0.3500
vn 0.2183 0.9433 0.2501
vn 0.0996 0.9434 -0.3163
vn 0.1242 0.4233 -0.8974
vn -0.0346 -0.9501 -0.3101
vn -0.1778 -0.9607 -0.2132
vn -0.0645 -0.9246 0.3754
vn -0.0932 -0.4049 -0.9096
vn 0.1219 0.4612 0.8789
vn -0.9880 0.0038 0.1547
vn -0.0427 -0.0383 0.9984
vn -0.1343 0.9507 0.2796
vn 0.1231 -0.2636 -0.9568
vn -0.1689 0.9045 -0.3915
vn -0.9926 -0.1202 0.0152
vt 0.625000 0.166667
vt 0.375000 0.250000
vt 0.375000 0.166667
vt 0.375000 0.416667
vt 0.625000 0.500000
vt 0.375000 0.500000
vt 0.625000 0.666667
vt 0.375000 0.750000
vt 0.375000 0.666667
vt 0.625000 0.916667
vt 0.375000 1.000000
vt 0.375000 0.916667
vt 0.291667 0.750000
vt 0.291667 0.666667
vt 0.875000 0.666667
vt 0.791667 0.750000
vt 0.791667 0.666667
vt 0.708333 0.750000
vt 0.625000 0.750000
vt 0.763889 0.750000
vt 0.763889 0.666667
vt 0.125000 0.666667
vt 0.208333 0.750000
vt 0.125000 0.750000
vt 0.263889 0.750000
vt 0.263889 0.666667
vt 0.375000 0.833333
vt 0.375000 0.888889
vt 0.625000 0.333333
vt 0.375000 0.333333
vt 0.375000 0.388889
vt 0.625000 0.416667
vt 0.263889 0.500000
vt 0.291667 0.583333
vt 0.263889 0.583333
vt 0.208333 0.500000
vt 0.125000 0.583333
vt 0.125000 0.500000
vt 0.208333 0.666667
vt 0.763889 0.500000
vt 0.791667 0.583333
vt 0.763889 0.583333
vt 0.708333 0.500000
vt 0.625000 0.583333
vt 0.708333 0.583333
vt 0.791667 0.500000
vt 0.875000 0.583333
vt 0.291667 0.500000
vt 0.375000 0.583333
vt 0.375000 0.000000
vt 0.625000 0.083333
vt 0.375000 0.083333
vt 0.736111 0.666667
vt 0.708333 0.666667
vt 0.736111 0.583333
vt 0.736111 0.500000
vt 0.236111 0.583333
vt 0.208333 0.583333
vt 0.236111 0.666667
vt 0.236111 0.500000
vt 0.375000 0.361111
vt 0.625000 0.388889
vt 0.625000 0.861111
vt 0.375000 0.861111
vt 0.625000 0.888889
vt 0.236111 0.750000
vt 0.736111 0.750000
vt 0.625000 0.250000
vt 0.625000 1.000000
vt 0.875000 0.750000
vt 0.625000 0.833333
vt 0.875000 0.500000
vt 0.625000 0.000000
vt 0.625000 0.361111
s 1
f 20/1/1 3/2/2 17/3/3
f 9/4/4 8/5/5 7/6/6
f 24/7/7 5/8/8 21/9/9
f 16/10/10 1/11/11 13/12/12
f 21/9/9 14/13/13 32/14/14
f 19/15/15 16/16/10 28/17/16
f 24/7/7 15/18/17 6/19/18
f 28/17/16 40/20/19 47/21/20
f 18/22/21 13/23/12 1/24/11
f 32/14/14 38/25/22 43/26/23
f 6/19/18 14/27/13 5/8/24
f 37/28/25 16/10/10 13/12/12
f 3/2/26 11/29/27 10/30/28
f 33/31/29 12/32/30 9/4/4
f 33/33/29 31/34/31 41/35/32
f 41/35/32 32/14/14 43/26/23
f 10/36/28 17/37/3 3/38/26
f 17/37/3 30/39/33 18/22/21
f 35/40/34 27/41/35 45/42/36
f 27/41/35 47/21/20 45/42/36
f 12/43/30 23/44/37 8/5/5
f 25/45/38 24/7/7 23/44/37
f 11/46/27 20/47/1 27/41/35
f 20/47/1 28/17/16 27/41/35
f 9/48/4 22/49/39 31/34/31
f 22/49/39 32/14/14 31/34/31
f 7/6/40 23/44/37 22/49/39
f 22/49/39 24/7/7 21/9/9
f 1/50/41 19/51/15 18/52/21
f 19/51/15 17/3/3 18/52/21
f 25/45/38 48/53/42 26/54/43
f 45/42/36 48/53/42 46/55/44
f 36/56/45 25/45/38 12/43/30
f 35/40/34 46/55/44 36/56/45
f 42/57/46 30/39/33 29/58/47
f 42/57/46 43/26/23 44/59/48
f 10/36/28 42/57/46 29/58/47
f 33/33/29 42/57/46 34/60/49
f 11/29/27 34/61/49 10/30/28
f 34/61/49 36/62/45 33/31/29
f 14/27/13 39/63/50 38/64/22
f 38/64/22 40/65/19 37/28/25
f 30/39/33 37/66/25 13/23/12
f 44/59/48 38/25/22 37/66/25
f 26/54/43 39/67/50 15/18/17
f 48/53/42 40/20/19 39/67/50
f 20/1/1 4/68/51 3/2/2
f 9/4/4 12/32/30 8/5/5
f 24/7/7 6/19/18 5/8/8
f 16/10/10 2/69/52 1/11/11
f 21/9/9 5/8/24 14/13/13
f 19/15/15 2/70/53 16/16/10
f 24/7/7 26/54/43 15/18/17
f 28/17/16 16/16/10 40/20/19
f 18/22/21 30/39/33 13/23/12
f 32/14/14 14/13/13 38/25/22
f 6/19/18 15/71/17 14/27/13
f 37/28/25 40/65/19 16/10/10
f 3/2/26 4/68/54 11/29/27
f 33/31/29 36/62/45 12/32/30
f 33/33/29 9/48/4 31/34/31
f 41/35/32 31/34/31 32/14/14
f 10/36/28 29/58/47 17/37/3
f 17/37/3 29/58/47 30/39/33
f 35/40/34 11/46/27 27/41/35
f 27/41/35 28/17/16 47/21/20
f 12/43/30 25/45/38 23/44/37
f 25/45/38 26/54/43 24/7/7
f 11/46/27 4/72/55 20/47/1
f 20/47/1 19/15/15 28/17/16
f 9/48/4 7/6/6 22/49/39
f 22/49/39 21/9/9 32/14/14
f 7/6/40 8/5/5 23/44/37
f 22/49/39 23/44/37 24/7/7
f 1/50/41 2/73/56 19/51/15
f 19/51/15 20/1/1 17/3/3
f 25/45/38 46/55/44 48/53/42
f 45/42/36 47/21/20 48/53/42
f 36/56/45 46/55/44 25/45/38
f 35/40/34 45/42/36 46/55/44
f 42/57/46 44/59/48 30/39/33
f 42/57/46 41/35/32 43/26/23
f 10/36/28 34/60/49 42/57/46
f 33/33/29 41/35/32 42/57/46
f 11/29/27 35/74/34 34/61/49
f 34/61/49 35/74/34 36/62/45
f 14/27/13 15/71/17 39/63/50
f 38/64/22 39/63/50 40/65/19
f 30/39/33 44/59/48 37/66/25
f 44/59/48 43/26/23 38/25/22
f 26/54/43 48/53/42 39/67/50
f 48/53/42 47/21/20 40/20/19
