# Blender 4.0.2
# www.blender.org
mtllib Glass01.mtl
o Glass01
v 0.000000 0.086997 -0.000000
v -0.014867 0.086997 -0.000000
v -0.018209 0.089459 -0.000000
v -0.030022 0.148306 -0.000000
v -0.033222 0.151507 -0.000000
v -0.037886 0.152959 -0.000000
v -0.043782 0.152413 -0.000000
v -0.043618 0.149143 -0.000000
v -0.039513 0.147995 -0.000000
v -0.036657 0.145315 -0.000000
v -0.024595 0.082348 -0.000000
v -0.004925 0.074685 -0.000000
v -0.004925 0.017622 -0.000000
v -0.007387 0.012698 -0.000000
v -0.031836 0.003512 -0.000000
v -0.033738 0.000403 -0.000000
v -0.026351 0.000403 -0.000000
v -0.007387 0.002848 -0.000000
v 0.000000 0.002848 -0.000000
v -0.012028 0.086997 0.008739
v -0.014732 0.089459 0.010703
v -0.024288 0.148306 0.017646
v -0.026878 0.151507 0.019528
v -0.030651 0.152959 0.022269
v -0.035420 0.152413 0.025734
v -0.035288 0.149143 0.025638
v -0.031966 0.147995 0.023225
v -0.029656 0.145315 0.021546
v -0.019898 0.082348 0.014457
v -0.003984 0.074685 0.002895
v -0.003984 0.017622 0.002895
v -0.005976 0.012698 0.004342
v -0.025756 0.003512 0.018713
v -0.027294 0.000403 0.019830
v -0.021318 0.000403 0.015488
v -0.005976 0.002848 0.004342
v -0.004594 0.086997 0.014140
v -0.005627 0.089459 0.017318
v -0.009277 0.148306 0.028552
v -0.010266 0.151507 0.031596
v -0.011708 0.152959 0.036032
v -0.013529 0.152413 0.041639
v -0.013479 0.149143 0.041483
v -0.012210 0.147995 0.037579
v -0.011328 0.145315 0.034863
v -0.007600 0.082348 0.023391
v -0.001522 0.074685 0.004684
v -0.001522 0.017622 0.004684
v -0.002283 0.012698 0.007026
v -0.009838 0.003512 0.030278
v -0.010425 0.000403 0.032086
v -0.008143 0.000403 0.025061
v -0.002283 0.002848 0.007026
v 0.004594 0.086997 0.014140
v 0.005627 0.089459 0.017318
v 0.009277 0.148306 0.028552
v 0.010266 0.151507 0.031596
v 0.011708 0.152959 0.036032
v 0.013529 0.152413 0.041639
v 0.013479 0.149143 0.041483
v 0.012210 0.147995 0.037579
v 0.011328 0.145315 0.034863
v 0.007600 0.082348 0.023391
v 0.001522 0.074685 0.004684
v 0.001522 0.017622 0.004684
v 0.002283 0.012698 0.007026
v 0.009838 0.003512 0.030278
v 0.010425 0.000403 0.032086
v 0.008143 0.000403 0.025061
v 0.002283 0.002848 0.007026
v 0.012028 0.086997 0.008739
v 0.014732 0.089459 0.010703
v 0.024288 0.148306 0.017646
v 0.026878 0.151507 0.019528
v 0.030651 0.152959 0.022269
v 0.035420 0.152413 0.025734
v 0.035288 0.149143 0.025638
v 0.031966 0.147995 0.023225
v 0.029656 0.145315 0.021546
v 0.019898 0.082348 0.014457
v 0.003984 0.074685 0.002895
v 0.003984 0.017622 0.002895
v 0.005976 0.012698 0.004342
v 0.025756 0.003512 0.018713
v 0.027294 0.000403 0.019830
v 0.021318 0.000403 0.015488
v 0.005976 0.002848 0.004342
v 0.014867 0.086997 -0.000000
v 0.018209 0.089459 -0.000000
v 0.030022 0.148306 -0.000000
v 0.033222 0.151507 -0.000000
v 0.037886 0.152959 -0.000000
v 0.043782 0.152413 -0.000000
v 0.043618 0.149143 -0.000000
v 0.039513 0.147995 -0.000000
v 0.036657 0.145315 -0.000000
v 0.024595 0.082348 -0.000000
v 0.004925 0.074685 -0.000000
v 0.004925 0.017622 -0.000000
v 0.007387 0.012698 -0.000000
v 0.031836 0.003512 -0.000000
v 0.033738 0.000403 -0.000000
v 0.026351 0.000403 -0.000000
v 0.007387 0.002848 -0.000000
v 0.012028 0.086997 -0.008739
v 0.014732 0.089459 -0.010703
v 0.024288 0.148306 -0.017646
v 0.026878 0.151507 -0.019528
v 0.030651 0.152959 -0.022269
v 0.035420 0.152413 -0.025734
v 0.035288 0.149143 -0.025638
v 0.031966 0.147995 -0.023225
v 0.029656 0.145315 -0.021546
v 0.019898 0.082348 -0.014457
v 0.003984 0.074685 -0.002895
v 0.003984 0.017622 -0.002895
v 0.005976 0.012698 -0.004342
v 0.025756 0.003512 -0.018713
v 0.027294 0.000403 -0.019831
v 0.021318 0.000403 -0.015488
v 0.005976 0.002848 -0.004342
v 0.004594 0.086997 -0.014140
v 0.005627 0.089459 -0.017318
v 0.009277 0.148306 -0.028552
v 0.010266 0.151507 -0.031597
v 0.011708 0.152959 -0.036032
v 0.013529 0.152413 -0.041639
v 0.013479 0.149143 -0.041483
v 0.012210 0.147995 -0.037579
v 0.011328 0.145315 -0.034863
v 0.007600 0.082348 -0.023392
v 0.001522 0.074685 -0.004684
v 0.001522 0.017622 -0.004684
v 0.002283 0.012698 -0.007026
v 0.009838 0.003512 -0.030278
v 0.010425 0.000403 -0.032086
v 0.008143 0.000403 -0.025061
v 0.002283 0.002848 -0.007026
v -0.004594 0.086997 -0.014140
v -0.005627 0.089459 -0.017318
v -0.009277 0.148306 -0.028552
v -0.010266 0.151507 -0.031597
v -0.011708 0.152959 -0.036032
v -0.013529 0.152413 -0.041639
v -0.013479 0.149143 -0.041483
v -0.012210 0.147995 -0.037579
v -0.011328 0.145315 -0.034863
v -0.007600 0.082348 -0.023392
v -0.001522 0.074685 -0.004684
v -0.001522 0.017622 -0.004684
v -0.002283 0.012698 -0.007026
v -0.009838 0.003512 -0.030278
v -0.010425 0.000403 -0.032086
v -0.008143 0.000403 -0.025061
v -0.002283 0.002848 -0.007026
v -0.012028 0.086997 -0.008739
v -0.014732 0.089459 -0.010703
v -0.024288 0.148306 -0.017646
v -0.026878 0.151507 -0.019528
v -0.030651 0.152959 -0.022269
v -0.035420 0.152413 -0.025734
v -0.035288 0.149143 -0.025638
v -0.031967 0.147995 -0.023225
v -0.029656 0.145315 -0.021546
v -0.019898 0.082348 -0.014457
v -0.003984 0.074685 -0.002895
v -0.003984 0.017622 -0.002895
v -0.005976 0.012698 -0.004342
v -0.025756 0.003512 -0.018713
v -0.027294 0.000403 -0.019831
v -0.021318 0.000403 -0.015488
v -0.005976 0.002848 -0.004342
vn -0.0000 1.0000 -0.0000
vn 0.3662 0.9305 -0.0000
vn 0.2962 0.9305 -0.2152
vn 0.1132 0.9305 -0.3482
vn -0.1132 0.9305 -0.3482
vn -0.2962 0.9305 -0.2152
vn -0.3662 0.9305 -0.0000
vn -0.2962 0.9305 0.2152
vn -0.1132 0.9305 0.3482
vn 0.1132 0.9305 0.3482
vn 0.2962 0.9305 0.2152
vn 0.6973 0.5071 -0.5066
vn 0.2663 0.5071 -0.8197
vn -0.2663 0.5071 -0.8197
vn -0.6973 0.5071 -0.5066
vn -0.8619 0.5071 -0.0000
vn -0.6973 0.5071 0.5066
vn -0.2663 0.5071 0.8197
vn 0.2663 0.5071 0.8197
vn 0.6973 0.5071 0.5066
vn 0.8674 0.4976 -0.0000
vn 0.8619 0.5071 -0.0000
vn 0.7017 0.4976 -0.5098
vn 0.2680 0.4976 -0.8249
vn -0.2680 0.4976 -0.8249
vn -0.7017 0.4976 -0.5098
vn -0.8674 0.4976 -0.0000
vn -0.7017 0.4976 0.5098
vn -0.2680 0.4976 0.8249
vn 0.7017 0.4976 0.5098
vn 0.4806 0.8770 -0.0000
vn 0.1485 0.8770 -0.4571
vn -0.1485 0.8770 -0.4571
vn -0.3888 0.8770 -0.2825
vn -0.3888 0.8769 0.2825
vn -0.1485 0.8769 0.4571
vn 0.2680 0.4976 0.8249
vn 0.1485 0.8769 0.4571
vn 0.0531 0.9978 -0.0386
vn 0.3888 0.8769 -0.2825
vn 0.0203 0.9978 -0.0624
vn -0.0203 0.9978 -0.0624
vn -0.0656 0.9978 -0.0000
vn -0.4806 0.8770 -0.0000
vn -0.0531 0.9978 0.0386
vn -0.0203 0.9978 0.0624
vn 0.0531 0.9978 0.0386
vn 0.3888 0.8769 0.2825
vn 0.0656 0.9978 -0.0000
vn -0.6505 0.5945 0.4726
vn 0.2485 0.5945 0.7647
vn -0.0531 0.9978 -0.0386
vn 0.6505 0.5945 0.4726
vn 0.8041 0.5945 -0.0000
vn 0.2485 0.5945 -0.7647
vn 0.0203 0.9978 0.0624
vn -0.6505 0.5945 -0.4726
vn -0.8194 -0.5733 -0.0000
vn -0.8041 0.5945 -0.0000
vn -0.6629 -0.5733 0.4816
vn -0.2485 0.5945 0.7647
vn -0.2532 -0.5733 0.7793
vn 0.2532 -0.5733 0.7793
vn 0.8194 -0.5733 -0.0000
vn 0.6629 -0.5733 -0.4816
vn 0.6505 0.5945 -0.4726
vn -0.2532 -0.5733 -0.7793
vn -0.2485 0.5945 -0.7647
vn -0.3667 -0.8914 0.2664
vn -0.1401 -0.8914 0.4311
vn 0.1401 -0.8914 0.4311
vn 0.6629 -0.5733 0.4816
vn 0.3667 -0.8914 0.2664
vn 0.4533 -0.8914 -0.0000
vn 0.3667 -0.8914 -0.2664
vn 0.2532 -0.5733 -0.7793
vn 0.1401 -0.8914 -0.4311
vn -0.1401 -0.8914 -0.4311
vn -0.6629 -0.5733 -0.4816
vn -0.3667 -0.8914 -0.2664
vn -0.8602 -0.5100 -0.0000
vn -0.4533 -0.8914 -0.0000
vn -0.6959 -0.5100 0.5056
vn -0.2658 -0.5100 0.8181
vn 0.2658 -0.5100 0.8181
vn 0.6959 -0.5100 0.5056
vn 0.6959 -0.5100 -0.5056
vn 0.2658 -0.5100 -0.8181
vn -0.6959 -0.5100 -0.5056
vn -0.8026 -0.5965 -0.0000
vn -0.2480 -0.5965 0.7633
vn 0.2480 -0.5965 0.7633
vn 0.6493 -0.5965 0.4718
vn 0.8602 -0.5100 -0.0000
vn 0.8026 -0.5965 -0.0000
vn 0.2480 -0.5965 -0.7633
vn -0.2658 -0.5100 -0.8181
vn -0.2480 -0.5965 -0.7633
vn -0.6493 -0.5965 -0.4718
vn -0.7824 -0.6228 -0.0000
vn -0.6493 -0.5965 0.4718
vn -0.2418 -0.6228 0.7441
vn 0.2418 -0.6228 0.7441
vn 0.6329 -0.6228 0.4599
vn 0.7824 -0.6228 -0.0000
vn 0.6493 -0.5965 -0.4718
vn 0.2418 -0.6228 -0.7441
vn -0.2418 -0.6228 -0.7441
vn -0.9706 0.2406 -0.0000
vn -0.6329 -0.6228 0.4599
vn -0.2999 0.2406 0.9231
vn 0.2999 0.2406 0.9231
vn 0.7853 0.2406 0.5705
vn 0.9706 0.2406 -0.0000
vn 0.6329 -0.6228 -0.4599
vn 0.7853 0.2406 -0.5705
vn 0.2999 0.2406 -0.9231
vn -0.2999 0.2406 -0.9231
vn -0.6329 -0.6228 -0.4599
vn -0.5058 0.7805 0.3675
vn -0.7853 0.2406 0.5705
vn -0.1932 0.7805 0.5946
vn 0.1932 0.7805 0.5946
vn 0.5058 0.7805 0.3675
vn 0.6252 0.7805 -0.0000
vn 0.5058 0.7805 -0.3675
vn 0.1932 0.7805 -0.5946
vn -0.1932 0.7805 -0.5946
vn -0.7853 0.2406 -0.5705
vn -0.5058 0.7805 -0.3675
vn -0.6252 0.7805 -0.0000
vn -0.5440 0.7402 0.3952
vn -0.2078 0.7402 0.6395
vn 0.2078 0.7402 0.6395
vn 0.6724 0.7402 -0.0000
vn 0.5440 0.7402 -0.3952
vn 0.2078 0.7402 -0.6395
vn -0.5440 0.7402 -0.3952
vn -0.6724 0.7402 -0.0000
vn -0.7312 -0.4278 0.5313
vn -0.2793 -0.4278 0.8596
vn 0.2793 -0.4278 0.8596
vn 0.5440 0.7402 0.3952
vn 0.7312 -0.4278 0.5313
vn 0.9039 -0.4278 -0.0000
vn 0.7312 -0.4278 -0.5313
vn 0.2793 -0.4278 -0.8596
vn -0.2078 0.7402 -0.6395
vn -0.7312 -0.4278 -0.5313
vn -0.9039 -0.4278 -0.0000
vn 0.0415 -0.9987 -0.0301
vn 0.0158 -0.9987 -0.0488
vn -0.0158 -0.9987 -0.0488
vn -0.0415 -0.9987 -0.0301
vn -0.0513 -0.9987 -0.0000
vn -0.0415 -0.9987 0.0301
vn -0.0158 -0.9987 0.0488
vn -0.2793 -0.4278 -0.8596
vn 0.0158 -0.9987 0.0488
vn 0.0513 -0.9987 -0.0000
vn 0.0768 -0.9970 -0.0000
vn 0.0237 -0.9970 -0.0730
vn -0.0237 -0.9970 -0.0730
vn -0.0768 -0.9970 -0.0000
vn -0.0237 -0.9970 0.0730
vn 0.0237 -0.9970 0.0730
vn 0.0415 -0.9987 0.0301
vn -0.0000 -1.0000 -0.0000
vn 0.0621 -0.9970 -0.0451
vn -0.0621 -0.9970 -0.0451
vn -0.0621 -0.9970 0.0451
vn 0.0621 -0.9970 0.0451
vt 0.050000 0.408588
vt 0.000000 0.408588
vt 0.100000 0.408588
vt 0.150000 0.408588
vt 0.200000 0.408588
vt 0.250000 0.408588
vt 0.300000 0.408588
vt 0.350000 0.408588
vt 0.400000 0.408588
vt 0.450000 0.408588
vt 0.500000 0.408588
vt 0.550000 0.408588
vt 0.600000 0.408588
vt 0.650000 0.408588
vt 0.700000 0.408588
vt 0.750000 0.408588
vt 0.800000 0.408588
vt 0.850000 0.408588
vt 0.900000 0.408588
vt 0.950000 0.408588
vt 1.000000 0.408588
vt 0.100000 0.420207
vt 0.200000 0.420207
vt 0.300000 0.420207
vt 0.400000 0.420207
vt 0.500000 0.420207
vt 0.600000 0.420207
vt 0.700000 0.420207
vt 0.800000 0.420207
vt 0.900000 0.420207
vt 0.000000 0.697872
vt 0.000000 0.420207
vt 0.100000 0.697872
vt 0.200000 0.697872
vt 0.300000 0.697872
vt 0.400000 0.697872
vt 0.500000 0.697872
vt 0.600000 0.697872
vt 0.700000 0.697872
vt 0.900000 0.697872
vt 1.000000 0.420207
vt 0.000000 0.712974
vt 0.200000 0.712974
vt 0.300000 0.712974
vt 0.400000 0.712974
vt 0.600000 0.712974
vt 0.700000 0.712974
vt 0.800000 0.697872
vt 0.800000 0.712974
vt 1.000000 0.712974
vt 1.000000 0.697872
vt 0.100000 0.719826
vt 0.100000 0.712974
vt 0.200000 0.719826
vt 0.300000 0.719826
vt 0.500000 0.719826
vt 0.500000 0.712974
vt 0.600000 0.719826
vt 0.700000 0.719826
vt 0.900000 0.719826
vt 0.900000 0.712974
vt 0.000000 0.719826
vt 0.100000 0.717253
vt 0.300000 0.717253
vt 0.400000 0.719826
vt 0.400000 0.717253
vt 0.500000 0.717253
vt 0.700000 0.717253
vt 0.800000 0.719826
vt 0.900000 0.717253
vt 1.000000 0.719826
vt 0.000000 0.701823
vt 0.000000 0.717253
vt 0.100000 0.701823
vt 0.200000 0.717253
vt 0.200000 0.701823
vt 0.300000 0.701823
vt 0.500000 0.701823
vt 0.600000 0.701823
vt 0.600000 0.717253
vt 0.800000 0.701823
vt 0.800000 0.717253
vt 1.000000 0.701823
vt 1.000000 0.717253
vt 0.100000 0.696404
vt 0.200000 0.696404
vt 0.300000 0.696404
vt 0.400000 0.701823
vt 0.400000 0.696404
vt 0.500000 0.696404
vt 0.600000 0.696404
vt 0.700000 0.701823
vt 0.700000 0.696404
vt 0.800000 0.696404
vt 0.900000 0.701823
vt 0.900000 0.696404
vt 0.000000 0.683759
vt 0.000000 0.696404
vt 0.100000 0.683759
vt 0.200000 0.683759
vt 0.300000 0.683759
vt 0.400000 0.683759
vt 0.600000 0.683759
vt 0.700000 0.683759
vt 0.900000 0.683759
vt 1.000000 0.696404
vt 0.000000 0.386651
vt 0.200000 0.386651
vt 0.300000 0.386651
vt 0.400000 0.386651
vt 0.500000 0.683759
vt 0.500000 0.386651
vt 0.700000 0.386651
vt 0.800000 0.683759
vt 0.800000 0.386651
vt 0.900000 0.386651
vt 1.000000 0.683759
vt 0.000000 0.350496
vt 0.100000 0.386651
vt 0.200000 0.350496
vt 0.300000 0.350496
vt 0.400000 0.350496
vt 0.500000 0.350496
vt 0.600000 0.386651
vt 0.700000 0.350496
vt 0.800000 0.350496
vt 1.000000 0.350496
vt 1.000000 0.386651
vt 0.000000 0.081248
vt 0.100000 0.350496
vt 0.200000 0.081248
vt 0.300000 0.081248
vt 0.400000 0.081248
vt 0.500000 0.081248
vt 0.600000 0.350496
vt 0.600000 0.081248
vt 0.700000 0.081248
vt 0.800000 0.081248
vt 0.900000 0.350496
vt 1.000000 0.081248
vt 0.100000 0.058011
vt 0.100000 0.081248
vt 0.200000 0.058011
vt 0.300000 0.058011
vt 0.400000 0.058011
vt 0.500000 0.058011
vt 0.600000 0.058011
vt 0.700000 0.058011
vt 0.800000 0.058011
vt 0.900000 0.081248
vt 0.900000 0.058011
vt 0.000000 0.058011
vt 0.100000 0.014668
vt 0.200000 0.014668
vt 0.300000 0.014668
vt 0.500000 0.014668
vt 0.600000 0.014668
vt 0.700000 0.014668
vt 0.900000 0.014668
vt 1.000000 0.058011
vt 0.000000 0.014668
vt 0.100000 0.000000
vt 0.200000 0.000000
vt 0.300000 0.000000
vt 0.400000 0.014668
vt 0.400000 0.000000
vt 0.500000 0.000000
vt 0.600000 0.000000
vt 0.700000 0.000000
vt 0.800000 0.014668
vt 0.900000 0.000000
vt 1.000000 0.000000
vt 1.000000 0.014668
vt 0.000000 0.000000
vt 0.100000 0.000000
vt 0.200000 0.000000
vt 0.300000 0.000000
vt 0.400000 0.000000
vt 0.500000 0.000000
vt 0.600000 0.000000
vt 0.700000 0.000000
vt 0.800000 0.000000
vt 0.800000 0.000000
vt 1.000000 0.000000
vt 0.000000 0.011537
vt 0.000000 0.000000
vt 0.200000 0.011537
vt 0.300000 0.011537
vt 0.500000 0.011537
vt 0.700000 0.011537
vt 0.800000 0.011537
vt 0.900000 0.000000
vt 1.000000 0.011537
vt 0.050000 0.011537
vt 0.100000 0.011537
vt 0.150000 0.011537
vt 0.250000 0.011537
vt 0.350000 0.011537
vt 0.400000 0.011537
vt 0.450000 0.011537
vt 0.550000 0.011537
vt 0.600000 0.011537
vt 0.650000 0.011537
vt 0.750000 0.011537
vt 0.850000 0.011537
vt 0.900000 0.011537
vt 0.950000 0.011537
s 1
f 1/1/1 2/2/2 20/3/3
f 1/4/1 20/3/3 37/5/4
f 1/6/1 37/5/4 54/7/5
f 1/8/1 54/7/5 71/9/6
f 1/10/1 71/9/6 88/11/7
f 1/12/1 88/11/7 105/13/8
f 1/14/1 105/13/8 122/15/9
f 1/16/1 122/15/9 139/17/10
f 1/18/1 139/17/10 156/19/11
f 1/20/1 156/19/11 2/21/2
f 2/2/2 21/22/12 20/3/3
f 21/22/12 37/5/4 20/3/3
f 38/23/13 54/7/5 37/5/4
f 55/24/14 71/9/6 54/7/5
f 72/25/15 88/11/7 71/9/6
f 89/26/16 105/13/8 88/11/7
f 106/27/17 122/15/9 105/13/8
f 123/28/18 139/17/10 122/15/9
f 140/29/19 156/19/11 139/17/10
f 157/30/20 2/21/2 156/19/11
f 4/31/21 21/22/12 3/32/22
f 22/33/23 38/23/13 21/22/12
f 39/34/24 55/24/14 38/23/13
f 56/35/25 72/25/15 55/24/14
f 73/36/26 89/26/16 72/25/15
f 90/37/27 106/27/17 89/26/16
f 107/38/28 123/28/18 106/27/17
f 124/39/29 140/29/19 123/28/18
f 140/29/19 158/40/30 157/30/20
f 158/40/30 3/41/22 157/30/20
f 5/42/31 22/33/23 4/31/21
f 22/33/23 40/43/32 39/34/24
f 39/34/24 57/44/33 56/35/25
f 57/44/33 73/36/26 56/35/25
f 74/45/34 90/37/27 73/36/26
f 90/37/27 108/46/35 107/38/28
f 108/46/35 124/39/29 107/38/28
f 125/47/36 141/48/37 124/39/29
f 142/49/38 158/40/30 141/48/37
f 158/40/30 5/50/31 4/51/21
f 5/42/31 24/52/39 23/53/40
f 24/52/39 40/43/32 23/53/40
f 41/54/41 57/44/33 40/43/32
f 58/55/42 74/45/34 57/44/33
f 74/45/34 92/56/43 91/57/44
f 92/56/43 108/46/35 91/57/44
f 109/58/45 125/47/36 108/46/35
f 126/59/46 142/49/38 125/47/36
f 142/49/38 160/60/47 159/61/48
f 160/60/47 5/50/31 159/61/48
f 6/62/49 25/63/50 24/52/39
f 25/63/50 41/54/41 24/52/39
f 41/54/41 59/64/51 58/55/42
f 59/64/51 75/65/52 58/55/42
f 76/66/53 92/56/43 75/65/52
f 93/67/54 109/58/45 92/56/43
f 109/58/45 127/68/55 126/59/46
f 127/68/55 143/69/56 126/59/46
f 143/69/56 161/70/57 160/60/47
f 161/70/57 6/71/49 160/60/47
f 8/72/58 25/63/50 7/73/59
f 26/74/60 42/75/61 25/63/50
f 43/76/62 59/64/51 42/75/61
f 60/77/63 76/66/53 59/64/51
f 76/66/53 94/78/64 93/67/54
f 93/67/54 111/79/65 110/80/66
f 111/79/65 127/68/55 110/80/66
f 127/68/55 145/81/67 144/82/68
f 145/81/67 161/70/57 144/82/68
f 161/70/57 8/83/58 7/84/59
f 8/72/58 27/85/69 26/74/60
f 26/74/60 44/86/70 43/76/62
f 44/86/70 60/77/63 43/76/62
f 61/87/71 77/88/72 60/77/63
f 78/89/73 94/78/64 77/88/72
f 95/90/74 111/79/65 94/78/64
f 112/91/75 128/92/76 111/79/65
f 129/93/77 145/81/67 128/92/76
f 146/94/78 162/95/79 145/81/67
f 163/96/80 8/83/58 162/95/79
f 10/97/81 27/85/69 9/98/82
f 28/99/83 44/86/70 27/85/69
f 45/100/84 61/87/71 44/86/70
f 62/101/85 78/89/73 61/87/71
f 79/102/86 95/90/74 78/89/73
f 95/90/74 113/103/87 112/91/75
f 112/91/75 130/104/88 129/93/77
f 130/104/88 146/94/78 129/93/77
f 146/94/78 164/105/89 163/96/80
f 164/105/89 9/106/82 163/96/80
f 11/107/90 28/99/83 10/97/81
f 28/99/83 46/108/91 45/100/84
f 46/108/91 62/101/85 45/100/84
f 63/109/92 79/102/86 62/101/85
f 80/110/93 96/111/94 79/102/86
f 97/112/95 113/103/87 96/111/94
f 113/103/87 131/113/96 130/104/88
f 131/113/96 147/114/97 130/104/88
f 148/115/98 164/105/89 147/114/97
f 165/116/99 10/117/81 164/105/89
f 12/118/100 29/119/101 11/107/90
f 29/119/101 47/120/102 46/108/91
f 47/120/102 63/109/92 46/108/91
f 64/121/103 80/110/93 63/109/92
f 81/122/104 97/112/95 80/110/93
f 98/123/105 114/124/106 97/112/95
f 114/124/106 132/125/107 131/113/96
f 131/113/96 149/126/108 148/115/98
f 149/126/108 165/116/99 148/115/98
f 165/116/99 12/127/100 11/128/90
f 13/129/109 30/130/110 12/118/100
f 30/130/110 48/131/111 47/120/102
f 48/131/111 64/121/103 47/120/102
f 65/132/112 81/122/104 64/121/103
f 82/133/113 98/123/105 81/122/104
f 99/134/114 115/135/115 98/123/105
f 116/136/116 132/125/107 115/135/115
f 133/137/117 149/126/108 132/125/107
f 150/138/118 166/139/119 149/126/108
f 166/139/119 13/140/109 12/127/100
f 13/129/109 32/141/120 31/142/121
f 31/142/121 49/143/122 48/131/111
f 49/143/122 65/132/112 48/131/111
f 66/144/123 82/133/113 65/132/112
f 83/145/124 99/134/114 82/133/113
f 100/146/125 116/136/116 99/134/114
f 117/147/126 133/137/117 116/136/116
f 134/148/127 150/138/118 133/137/117
f 151/149/128 167/150/129 150/138/118
f 168/151/130 13/140/109 167/150/129
f 14/152/131 33/153/132 32/141/120
f 33/153/132 49/143/122 32/141/120
f 50/154/133 66/144/123 49/143/122
f 67/155/134 83/145/124 66/144/123
f 83/145/124 101/156/135 100/146/125
f 100/146/125 118/157/136 117/147/126
f 118/157/136 134/148/127 117/147/126
f 135/158/137 151/149/128 134/148/127
f 151/149/128 169/159/138 168/151/130
f 169/159/138 14/160/131 168/151/130
f 15/161/139 34/162/140 33/153/132
f 34/162/140 50/154/133 33/153/132
f 51/163/141 67/155/134 50/154/133
f 68/164/142 84/165/143 67/155/134
f 85/166/144 101/156/135 84/165/143
f 102/167/145 118/157/136 101/156/135
f 119/168/146 135/158/137 118/157/136
f 136/169/147 152/170/148 135/158/137
f 152/170/148 170/171/149 169/159/138
f 169/159/138 16/172/150 15/173/139
f 16/174/150 35/175/151 34/162/140
f 35/175/151 51/163/141 34/162/140
f 52/176/152 68/164/142 51/163/141
f 69/177/153 85/166/144 68/164/142
f 86/178/154 102/167/145 85/166/144
f 103/179/155 119/168/146 102/167/145
f 120/180/156 136/169/147 119/168/146
f 137/181/157 153/182/158 136/169/147
f 154/183/159 170/171/149 153/182/158
f 170/171/149 17/184/160 16/172/150
f 18/185/161 35/175/151 17/186/160
f 35/175/151 53/187/162 52/176/152
f 52/176/152 70/188/163 69/177/153
f 70/188/163 86/178/154 69/177/153
f 86/178/154 104/189/164 103/179/155
f 104/189/164 120/180/156 103/179/155
f 120/180/156 138/190/165 137/181/157
f 138/190/165 154/183/159 137/181/157
f 155/191/166 171/192/167 154/183/159
f 171/192/167 18/193/161 17/184/160
f 18/185/161 19/194/168 36/195/169
f 36/195/169 19/196/168 53/187/162
f 53/187/162 19/197/168 70/188/163
f 70/188/163 19/198/168 87/199/170
f 87/199/170 19/200/168 104/189/164
f 104/189/164 19/201/168 121/202/171
f 121/202/171 19/203/168 138/190/165
f 138/190/165 19/204/168 155/191/166
f 155/191/166 19/205/168 172/206/172
f 172/206/172 19/207/168 18/193/161
f 2/2/2 3/32/22 21/22/12
f 21/22/12 38/23/13 37/5/4
f 38/23/13 55/24/14 54/7/5
f 55/24/14 72/25/15 71/9/6
f 72/25/15 89/26/16 88/11/7
f 89/26/16 106/27/17 105/13/8
f 106/27/17 123/28/18 122/15/9
f 123/28/18 140/29/19 139/17/10
f 140/29/19 157/30/20 156/19/11
f 157/30/20 3/41/22 2/21/2
f 4/31/21 22/33/23 21/22/12
f 22/33/23 39/34/24 38/23/13
f 39/34/24 56/35/25 55/24/14
f 56/35/25 73/36/26 72/25/15
f 73/36/26 90/37/27 89/26/16
f 90/37/27 107/38/28 106/27/17
f 107/38/28 124/39/29 123/28/18
f 124/39/29 141/48/37 140/29/19
f 140/29/19 141/48/37 158/40/30
f 158/40/30 4/51/21 3/41/22
f 5/42/31 23/53/40 22/33/23
f 22/33/23 23/53/40 40/43/32
f 39/34/24 40/43/32 57/44/33
f 57/44/33 74/45/34 73/36/26
f 74/45/34 91/57/44 90/37/27
f 90/37/27 91/57/44 108/46/35
f 108/46/35 125/47/36 124/39/29
f 125/47/36 142/49/38 141/48/37
f 142/49/38 159/61/48 158/40/30
f 158/40/30 159/61/48 5/50/31
f 5/42/31 6/62/49 24/52/39
f 24/52/39 41/54/41 40/43/32
f 41/54/41 58/55/42 57/44/33
f 58/55/42 75/65/52 74/45/34
f 74/45/34 75/65/52 92/56/43
f 92/56/43 109/58/45 108/46/35
f 109/58/45 126/59/46 125/47/36
f 126/59/46 143/69/56 142/49/38
f 142/49/38 143/69/56 160/60/47
f 160/60/47 6/71/49 5/50/31
f 6/62/49 7/73/59 25/63/50
f 25/63/50 42/75/61 41/54/41
f 41/54/41 42/75/61 59/64/51
f 59/64/51 76/66/53 75/65/52
f 76/66/53 93/67/54 92/56/43
f 93/67/54 110/80/66 109/58/45
f 109/58/45 110/80/66 127/68/55
f 127/68/55 144/82/68 143/69/56
f 143/69/56 144/82/68 161/70/57
f 161/70/57 7/84/59 6/71/49
f 8/72/58 26/74/60 25/63/50
f 26/74/60 43/76/62 42/75/61
f 43/76/62 60/77/63 59/64/51
f 60/77/63 77/88/72 76/66/53
f 76/66/53 77/88/72 94/78/64
f 93/67/54 94/78/64 111/79/65
f 111/79/65 128/92/76 127/68/55
f 127/68/55 128/92/76 145/81/67
f 145/81/67 162/95/79 161/70/57
f 161/70/57 162/95/79 8/83/58
f 8/72/58 9/98/82 27/85/69
f 26/74/60 27/85/69 44/86/70
f 44/86/70 61/87/71 60/77/63
f 61/87/71 78/89/73 77/88/72
f 78/89/73 95/90/74 94/78/64
f 95/90/74 112/91/75 111/79/65
f 112/91/75 129/93/77 128/92/76
f 129/93/77 146/94/78 145/81/67
f 146/94/78 163/96/80 162/95/79
f 163/96/80 9/106/82 8/83/58
f 10/97/81 28/99/83 27/85/69
f 28/99/83 45/100/84 44/86/70
f 45/100/84 62/101/85 61/87/71
f 62/101/85 79/102/86 78/89/73
f 79/102/86 96/111/94 95/90/74
f 95/90/74 96/111/94 113/103/87
f 112/91/75 113/103/87 130/104/88
f 130/104/88 147/114/97 146/94/78
f 146/94/78 147/114/97 164/105/89
f 164/105/89 10/117/81 9/106/82
f 11/107/90 29/119/101 28/99/83
f 28/99/83 29/119/101 46/108/91
f 46/108/91 63/109/92 62/101/85
f 63/109/92 80/110/93 79/102/86
f 80/110/93 97/112/95 96/111/94
f 97/112/95 114/124/106 113/103/87
f 113/103/87 114/124/106 131/113/96
f 131/113/96 148/115/98 147/114/97
f 148/115/98 165/116/99 164/105/89
f 165/116/99 11/128/90 10/117/81
f 12/118/100 30/130/110 29/119/101
f 29/119/101 30/130/110 47/120/102
f 47/120/102 64/121/103 63/109/92
f 64/121/103 81/122/104 80/110/93
f 81/122/104 98/123/105 97/112/95
f 98/123/105 115/135/115 114/124/106
f 114/124/106 115/135/115 132/125/107
f 131/113/96 132/125/107 149/126/108
f 149/126/108 166/139/119 165/116/99
f 165/116/99 166/139/119 12/127/100
f 13/129/109 31/142/121 30/130/110
f 30/130/110 31/142/121 48/131/111
f 48/131/111 65/132/112 64/121/103
f 65/132/112 82/133/113 81/122/104
f 82/133/113 99/134/114 98/123/105
f 99/134/114 116/136/116 115/135/115
f 116/136/116 133/137/117 132/125/107
f 133/137/117 150/138/118 149/126/108
f 150/138/118 167/150/129 166/139/119
f 166/139/119 167/150/129 13/140/109
f 13/129/109 14/152/131 32/141/120
f 31/142/121 32/141/120 49/143/122
f 49/143/122 66/144/123 65/132/112
f 66/144/123 83/145/124 82/133/113
f 83/145/124 100/146/125 99/134/114
f 100/146/125 117/147/126 116/136/116
f 117/147/126 134/148/127 133/137/117
f 134/148/127 151/149/128 150/138/118
f 151/149/128 168/151/130 167/150/129
f 168/151/130 14/160/131 13/140/109
f 14/152/131 15/161/139 33/153/132
f 33/153/132 50/154/133 49/143/122
f 50/154/133 67/155/134 66/144/123
f 67/155/134 84/165/143 83/145/124
f 83/145/124 84/165/143 101/156/135
f 100/146/125 101/156/135 118/157/136
f 118/157/136 135/158/137 134/148/127
f 135/158/137 152/170/148 151/149/128
f 151/149/128 152/170/148 169/159/138
f 169/159/138 15/173/139 14/160/131
f 15/161/139 16/174/150 34/162/140
f 34/162/140 51/163/141 50/154/133
f 51/163/141 68/164/142 67/155/134
f 68/164/142 85/166/144 84/165/143
f 85/166/144 102/167/145 101/156/135
f 102/167/145 119/168/146 118/157/136
f 119/168/146 136/169/147 135/158/137
f 136/169/147 153/182/158 152/170/148
f 152/170/148 153/182/158 170/171/149
f 169/159/138 170/171/149 16/172/150
f 16/174/150 17/186/160 35/175/151
f 35/175/151 52/176/152 51/163/141
f 52/176/152 69/177/153 68/164/142
f 69/177/153 86/178/154 85/166/144
f 86/178/154 103/179/155 102/167/145
f 103/179/155 120/180/156 119/168/146
f 120/180/156 137/181/157 136/169/147
f 137/181/157 154/183/159 153/182/158
f 154/183/159 171/192/167 170/171/149
f 170/171/149 171/192/167 17/184/160
f 18/185/161 36/195/169 35/175/151
f 35/175/151 36/195/169 53/187/162
f 52/176/152 53/187/162 70/188/163
f 70/188/163 87/199/170 86/178/154
f 86/178/154 87/199/170 104/189/164
f 104/189/164 121/202/171 120/180/156
f 120/180/156 121/202/171 138/190/165
f 138/190/165 155/191/166 154/183/159
f 155/191/166 172/206/172 171/192/167
f 171/192/167 172/206/172 18/193/161
