# Blender 4.0.2
# www.blender.org
mtllib TVRemote.mtl
o TVRemote
v -0.045304 -0.084792 0.015418
v -0.040304 -0.089792 0.015418
v -0.040304 -0.084792 0.020418
v -0.040304 0.084792 0.020418
v -0.040304 0.089792 0.015418
v -0.045304 0.084792 0.015418
v -0.045304 -0.084792 -0.020418
v -0.040304 -0.089792 -0.020418
v -0.040304 0.089792 -0.020418
v -0.045304 0.084792 -0.020418
v 0.040304 -0.089792 0.015418
v 0.045304 -0.084792 0.015418
v 0.040304 -0.084792 0.020418
v 0.045304 0.084792 0.015418
v 0.040304 0.089792 0.015418
v 0.040304 0.084792 0.020418
v 0.040304 -0.089792 -0.020418
v 0.045304 -0.084792 -0.020418
v 0.045304 0.084792 -0.020418
v 0.040304 0.089792 -0.020418
v -0.045304 0.036394 0.015418
v -0.040304 0.036394 0.020418
v -0.045304 0.037948 -0.015418
v -0.040304 0.036394 -0.020418
v 0.040304 0.036394 -0.020418
v 0.045304 0.037948 -0.015418
v 0.040304 0.036394 0.020418
v 0.045304 0.036394 0.015418
v -0.040304 -0.002477 -0.020418
v -0.045304 -0.003635 -0.015418
v 0.045304 -0.003635 -0.015418
v 0.040304 -0.002477 -0.020418
v 0.045304 -0.002477 0.015418
v 0.040304 -0.002477 0.020418
v -0.045304 -0.002477 0.015418
v -0.040304 -0.002477 0.020418
v -0.045304 -0.022418 -0.024614
v -0.040304 -0.021260 -0.029614
v -0.045304 -0.084792 -0.024614
v -0.040304 -0.084792 -0.029614
v -0.040304 -0.089792 -0.024614
v 0.040304 -0.089792 -0.024614
v 0.040304 -0.084792 -0.029614
v 0.045304 -0.084792 -0.024614
v -0.040304 0.089792 -0.024614
v -0.040304 0.084792 -0.029614
v -0.045304 0.084792 -0.024614
v 0.040304 0.089792 -0.024614
v 0.045304 0.084792 -0.024614
v 0.040304 0.084792 -0.029614
v 0.045304 -0.022418 -0.024614
v 0.040304 -0.021260 -0.029614
v -0.045304 0.051313 -0.024614
v -0.040304 0.049759 -0.029614
v 0.045304 0.051313 -0.024614
v 0.040304 0.049759 -0.029614
vn -0.0000 1.0000 -0.0000
vn 1.0000 -0.0000 -0.0000
vn -1.0000 -0.0000 -0.0000
vn -0.0000 -0.0000 1.0000
vn -0.0000 -0.5669 -0.8238
vn -0.0000 0.4398 -0.8981
vn -0.0000 -1.0000 -0.0000
vn -0.0000 -0.0000 -1.0000
vn -0.5773 -0.5774 0.5774
vn -0.5773 0.5774 0.5774
vn 0.5773 -0.5774 0.5774
vn 0.5773 0.5774 0.5774
vn -0.5773 -0.5774 -0.5774
vn 0.5773 -0.5774 -0.5774
vn -0.5773 0.5774 -0.5774
vn 0.5773 0.5774 -0.5774
vn -0.7071 -0.7071 -0.0000
vn -0.7071 -0.0000 0.7071
vn -0.7071 0.7071 -0.0000
vn 0.7071 -0.7071 -0.0000
vn 0.7071 0.7071 -0.0000
vn 0.7071 -0.0000 0.7071
vn -0.0000 -0.7071 0.7071
vn -0.0000 0.7071 0.7071
vn -0.7071 -0.0000 -0.7071
vn 0.7071 -0.0000 -0.7071
vn -0.0000 -0.7071 -0.7071
vn -0.0000 0.7071 -0.7071
vn 0.7071 0.3110 -0.6351
vn -0.7071 -0.4008 -0.5825
vn 0.7071 -0.4008 -0.5825
vn -0.7071 0.3110 -0.6351
vt 0.861204 0.500000
vt 0.638796 0.719389
vt 0.638796 0.500000
vt 0.861204 0.500000
vt 0.378579 0.500000
vt 0.429104 0.500000
vt 0.429977 0.500000
vt 0.613295 0.030611
vt 0.503638 0.219389
vt 0.500000 0.030611
vt 0.437500 0.763796
vt 0.378579 0.986204
vt 0.378579 0.763796
vt 0.378579 0.250000
vt 0.429104 0.250000
vt 0.379035 0.250000
vt 0.500000 0.263796
vt 0.500000 0.486204
vt 0.437500 0.486204
vt 0.437500 0.263796
vt 0.437500 0.263796
vt 0.435637 0.530611
vt 0.500000 0.719389
vt 0.437500 0.719389
vt 0.437500 0.763796
vt 0.500000 0.986204
vt 0.437500 0.986204
vt 0.361204 0.500000
vt 0.138796 0.719389
vt 0.138796 0.500000
vt 0.613295 0.500000
vt 0.521725 0.500000
vt 0.611489 0.500000
vt 0.503638 0.530611
vt 0.613295 0.719389
vt 0.613295 0.763796
vt 0.500000 0.986204
vt 0.500000 0.763796
vt 0.609388 0.263796
vt 0.436671 0.530611
vt 0.378579 0.719389
vt 0.500000 0.263796
vt 0.613295 0.250000
vt 0.521725 0.250000
vt 0.518297 0.250000
vt 0.379560 0.486204
vt 0.379560 0.263796
vt 0.500000 0.030611
vt 0.435637 0.219389
vt 0.437500 0.030611
vt 0.138796 0.500000
vt 0.361204 0.500000
vt 0.125000 0.719389
vt 0.138796 0.750000
vt 0.613295 0.986204
vt 0.625000 0.986204
vt 0.613295 1.000000
vt 0.361204 0.719389
vt 0.375000 0.719389
vt 0.361204 0.750000
vt 0.625000 0.719389
vt 0.613295 0.750000
vt 0.379560 0.250000
vt 0.375000 0.263796
vt 0.375000 0.500000
vt 0.625000 0.263796
vt 0.609388 0.250000
vt 0.625000 0.500000
vt 0.609388 0.500000
vt 0.125000 0.500000
vt 0.613295 0.000000
vt 0.500000 0.000000
vt 0.625000 0.250000
vt 0.625000 0.030611
vt 0.437500 0.719389
vt 0.625000 0.763796
vt 0.437500 0.000000
vt 0.502499 0.219389
vt 0.502499 0.530611
vt 0.500000 0.763796
vt 0.378579 0.030611
vt 0.378579 0.000000
vt 0.625000 0.486204
vt 0.611489 0.250000
vt 0.609388 0.486204
vt 0.436671 0.219389
vt 0.378579 0.250000
vt 0.861204 0.719389
vt 0.379035 0.500000
vt 0.437500 0.986204
vt 0.429977 0.250000
vt 0.518297 0.500000
vt 0.437500 0.030611
s 0
f 9/1/1 15/2/1 20/3/1
f 20/3/1 45/4/1 9/1/1
f 18/5/2 51/6/2 31/7/2
f 6/8/3 23/9/3 21/10/3
f 34/11/4 3/12/4 13/13/4
f 7/14/3 37/15/3 39/16/3
f 24/17/5 56/18/5 25/18/5
f 32/19/6 38/20/6 29/21/6
f 31/22/2 28/23/2 33/24/2
f 34/25/4 22/26/4 36/27/4
f 17/28/7 2/29/7 8/30/7
f 19/31/2 55/32/2 49/33/2
f 26/34/2 14/35/2 28/23/2
f 16/36/4 22/37/4 27/38/4
f 46/39/8 56/18/8 54/17/8
f 31/40/2 12/41/2 18/5/2
f 24/42/8 32/19/8 29/20/8
f 10/43/3 53/44/3 23/45/3
f 38/21/8 43/46/8 40/47/8
f 21/48/3 30/49/3 35/50/3
f 8/51/7 42/28/7 17/52/7
f 1/53/9 2/29/9 3/54/9
f 4/55/10 5/56/10 6/57/10
f 11/58/11 12/59/11 13/60/11
f 14/35/12 15/61/12 16/62/12
f 39/63/13 40/47/13 41/64/13
f 42/28/14 43/28/14 44/65/14
f 45/66/15 46/39/15 47/67/15
f 48/68/16 49/33/16 50/69/16
f 2/29/17 7/70/17 8/30/17
f 4/71/18 21/10/18 22/72/18
f 9/73/19 6/8/19 5/74/19
f 17/28/20 12/41/20 11/58/20
f 15/2/21 19/31/21 20/3/21
f 13/13/22 33/75/22 34/11/22
f 11/58/23 3/54/23 2/29/23
f 5/56/24 16/36/24 15/76/24
f 22/72/18 35/50/18 36/77/18
f 27/38/22 14/35/22 16/36/22
f 24/42/25 30/49/25 23/78/25
f 31/22/26 25/18/26 26/79/26
f 34/25/22 28/23/22 27/80/22
f 36/77/18 1/81/18 3/82/18
f 40/47/25 37/15/25 38/21/25
f 41/51/27 43/28/27 42/28/27
f 48/83/28 46/39/28 45/66/28
f 51/6/26 43/46/26 52/19/26
f 46/39/25 53/44/25 47/84/25
f 55/32/26 50/85/26 49/33/26
f 42/28/20 18/5/20 17/52/20
f 32/19/29 51/6/29 52/19/29
f 39/70/17 8/51/17 7/70/17
f 45/73/19 10/43/19 9/73/19
f 24/17/30 53/44/30 54/42/30
f 55/32/31 25/18/31 56/18/31
f 49/33/21 20/3/21 19/31/21
f 37/15/32 29/21/32 38/20/32
f 1/81/3 30/86/3 7/87/3
f 9/1/1 5/88/1 15/2/1
f 20/3/1 48/3/1 45/4/1
f 18/5/2 44/89/2 51/6/2
f 6/8/3 10/43/3 23/9/3
f 34/11/4 36/90/4 3/12/4
f 7/14/3 30/91/3 37/15/3
f 24/17/5 54/42/5 56/18/5
f 32/19/6 52/19/6 38/20/6
f 31/22/2 26/79/2 28/23/2
f 34/25/4 27/80/4 22/26/4
f 17/28/7 11/58/7 2/29/7
f 19/31/2 26/92/2 55/32/2
f 26/34/2 19/31/2 14/35/2
f 16/36/4 4/55/4 22/37/4
f 46/39/8 50/85/8 56/18/8
f 31/40/2 33/75/2 12/41/2
f 24/42/8 25/18/8 32/19/8
f 10/43/3 47/84/3 53/44/3
f 38/21/8 52/19/8 43/46/8
f 21/48/3 23/78/3 30/49/3
f 8/51/7 41/51/7 42/28/7
f 2/29/17 1/53/17 7/70/17
f 4/71/18 6/8/18 21/10/18
f 9/73/19 10/43/19 6/8/19
f 17/28/20 18/5/20 12/41/20
f 15/2/21 14/35/21 19/31/21
f 13/13/22 12/41/22 33/75/22
f 11/58/23 13/60/23 3/54/23
f 5/56/24 4/55/24 16/36/24
f 22/72/18 21/48/18 35/50/18
f 27/38/22 28/23/22 14/35/22
f 24/42/25 29/20/25 30/49/25
f 31/22/26 32/19/26 25/18/26
f 34/25/22 33/24/22 28/23/22
f 36/77/18 35/93/18 1/81/18
f 40/47/25 39/16/25 37/15/25
f 41/51/27 40/51/27 43/28/27
f 48/83/28 50/85/28 46/39/28
f 51/6/26 44/89/26 43/46/26
f 46/39/25 54/17/25 53/44/25
f 55/32/26 56/18/26 50/85/26
f 42/28/20 44/89/20 18/5/20
f 32/19/29 31/7/29 51/6/29
f 39/70/17 41/51/17 8/51/17
f 45/73/19 47/84/19 10/43/19
f 24/17/30 23/45/30 53/44/30
f 55/32/31 26/92/31 25/18/31
f 49/33/21 48/3/21 20/3/21
f 37/15/32 30/91/32 29/21/32
f 1/81/3 35/93/3 30/86/3
