# Blender 4.0.2
# www.blender.org
mtllib Envelope.mtl
o Envelope
v -0.125202 0.007149 0.005311
v -0.117681 -0.000373 0.005311
v -0.122999 0.001830 0.005311
v 0.117681 -0.000373 0.005311
v 0.125202 0.007149 0.005311
v 0.122999 0.001830 0.005311
v -0.117681 0.164475 0.005311
v -0.125202 0.156953 0.005311
v -0.122999 0.162272 0.005311
v 0.125202 0.156953 0.005311
v 0.117681 0.164475 0.005311
v 0.122999 0.162272 0.005311
v -0.117681 -0.000373 -0.004689
v -0.125202 0.007149 -0.004689
v -0.122999 0.001830 -0.004689
v 0.125202 0.007149 -0.004689
v 0.117681 -0.000373 -0.004689
v 0.122999 0.001830 -0.004689
v -0.125202 0.156953 -0.004689
v -0.117681 0.164475 -0.004689
v -0.122999 0.162272 -0.004689
v 0.117681 0.164475 -0.004689
v 0.125202 0.156953 -0.004689
v 0.122999 0.162272 -0.004689
vn -0.0000 -1.0000 -0.0000
vn -0.0000 -0.0000 1.0000
vn 1.0000 -0.0000 -0.0000
vn -0.0000 1.0000 -0.0000
vn -0.0000 -0.0000 -1.0000
vn -0.9239 -0.3827 -0.0000
vn -0.3827 -0.9239 -0.0000
vn 0.3827 -0.9239 -0.0000
vn 0.9239 -0.3827 -0.0000
vn -0.3827 0.9239 -0.0000
vn -0.9239 0.3827 -0.0000
vn 0.9239 0.3827 -0.0000
vn 0.3827 0.9239 -0.0000
vn -1.0000 -0.0000 -0.0000
vt 0.030037 0.000000
vt 0.969963 0.000000
vt 0.997067 0.995546
vt 0.000000 0.954374
vt 1.000000 0.954374
vt 1.000000 0.045626
vt 1.000000 0.954374
vt 0.969963 1.000000
vt 0.030037 1.000000
vt 0.030037 1.000000
vt 0.000000 0.954374
vt 0.000000 0.045626
vt 0.002933 0.004455
vt 0.000000 0.045626
vt 0.997067 0.004455
vt 1.000000 0.045626
vt 0.002933 0.995546
vt 0.030037 0.000000
vt 0.002933 0.995546
s 0
f 2/1/1 17/2/1 4/2/1
f 4/2/2 12/3/2 8/4/2
f 10/5/3 16/6/3 23/7/3
f 11/8/4 20/9/4 7/10/4
f 19/11/5 24/3/5 17/2/5
f 14/12/6 3/13/6 1/14/6
f 15/13/7 2/1/7 3/13/7
f 17/2/8 6/15/8 4/2/8
f 6/15/9 16/6/9 5/16/9
f 20/9/10 9/17/10 7/10/10
f 9/17/11 19/4/11 8/11/11
f 10/5/12 24/3/12 12/3/12
f 24/3/13 11/8/13 12/3/13
f 8/11/14 14/12/14 1/14/14
f 2/1/1 13/18/1 17/2/1
f 8/4/2 1/12/2 3/13/2
f 3/13/2 2/18/2 4/2/2
f 4/2/2 6/15/2 5/6/2
f 5/6/2 10/7/2 12/3/2
f 12/3/2 11/8/2 7/9/2
f 7/9/2 9/17/2 8/4/2
f 8/4/2 3/13/2 4/2/2
f 4/2/2 5/6/2 12/3/2
f 12/3/2 7/9/2 8/4/2
f 10/5/3 5/16/3 16/6/3
f 11/8/4 22/8/4 20/9/4
f 17/2/5 13/1/5 15/13/5
f 15/13/5 14/14/5 19/11/5
f 19/11/5 21/19/5 20/10/5
f 20/10/5 22/8/5 24/3/5
f 24/3/5 23/5/5 16/16/5
f 16/16/5 18/15/5 17/2/5
f 17/2/5 15/13/5 19/11/5
f 19/11/5 20/10/5 24/3/5
f 24/3/5 16/16/5 17/2/5
f 14/12/6 15/13/6 3/13/6
f 15/13/7 13/18/7 2/1/7
f 17/2/8 18/15/8 6/15/8
f 6/15/9 18/15/9 16/6/9
f 20/9/10 21/19/10 9/17/10
f 9/17/11 21/19/11 19/4/11
f 10/5/12 23/7/12 24/3/12
f 24/3/13 22/8/13 11/8/13
f 8/11/14 19/4/14 14/12/14
