# Blender 4.1.0
# www.blender.org
mtllib Lock.mtl
o Lock
v -0.082313 0.105203 0.039214
v -0.082313 0.105203 -0.039214
v 0.082313 0.105203 0.039214
v 0.082313 0.105203 -0.039214
v -0.092827 0.000000 0.039214
v -0.085761 -0.033707 0.039214
v -0.065638 -0.062283 0.039214
v -0.035523 -0.081377 0.039214
v -0.092827 0.000000 -0.039214
v -0.035523 -0.081377 -0.039214
v -0.065638 -0.062283 -0.039214
v -0.085761 -0.033707 -0.039214
v 0.000000 -0.088082 0.039214
v 0.092827 0.000000 0.039214
v 0.035523 -0.081377 0.039214
v 0.065638 -0.062283 0.039214
v 0.085761 -0.033707 0.039214
v 0.092827 0.000000 -0.039214
v 0.000000 -0.088082 -0.039214
v 0.085761 -0.033707 -0.039214
v 0.065638 -0.062283 -0.039214
v 0.035523 -0.081377 -0.039214
v 0.087936 0.048432 0.039214
v 0.087936 0.048432 -0.039214
v -0.088037 0.048432 -0.039214
vn -0.0000 -0.0000 -1.0000
vn -0.0000 1.0000 -0.0000
vn 0.9950 0.0995 -0.0000
vn 0.9986 -0.0530 -0.0000
vn -0.9986 -0.0537 0.0002
vn -0.9171 -0.3987 -0.0000
vn -0.6898 -0.7240 -0.0000
vn -0.3670 -0.9302 -0.0000
vn -0.0000 -1.0000 -0.0000
vn 0.6898 -0.7240 -0.0000
vn 0.3670 -0.9302 -0.0000
vn 0.9171 -0.3987 -0.0000
vn -0.0000 -0.0000 1.0000
vn 0.9951 0.0986 -0.0000
vn -0.9951 0.0994 0.0002
vn -0.9985 -0.0540 -0.0000
vn -0.9950 0.0998 0.0004
vn -0.9950 0.1003 -0.0000
vt 0.591279 0.929115
vt 0.455980 0.800731
vt 0.863726 0.877691
vt 0.669219 0.070018
vt 0.971292 0.213927
vt 0.669219 0.213927
vt 0.722290 0.711740
vt 0.890204 0.608049
vt 0.890204 0.711740
vt 0.661353 0.621176
vt 0.926276 0.507316
vt 0.661353 0.507316
vt 0.986598 0.437051
vt 0.663150 0.561249
vt 0.986598 0.561249
vt 0.663150 0.707751
vt 0.986598 0.707751
vt 0.926276 0.410790
vt 0.661353 0.410790
vt 0.663150 0.978452
vt 0.986598 0.854254
vt 0.663150 0.854254
vt 0.890204 0.535882
vt 0.722290 0.474701
vt 0.890204 0.474701
vt 0.057491 0.542824
vt 0.218993 0.389578
vt 0.608892 0.542824
vt 0.722290 0.535882
vt 0.890204 0.833286
vt 0.923778 0.579515
vt 0.436950 0.709951
vt 0.449849 0.579515
vt 0.926276 0.784773
vt 0.926276 0.621176
vt 0.465265 0.426620
vt 0.908634 0.426620
vt 0.782620 0.929115
vt 0.686950 0.947172
vt 0.510173 0.877691
vt 0.068575 0.989388
vt 0.615885 0.806882
vt 0.597808 0.989388
vt 0.936950 0.709951
vt 0.917919 0.800731
vt 0.333191 0.368024
vt 0.447390 0.389578
vt 0.544203 0.450960
vt 0.661353 0.976540
vt 0.631607 0.651186
vt 0.034775 0.651186
vt 0.122179 0.450960
vt 0.971292 0.070018
vt 0.722290 0.608049
vt 0.663150 0.437051
vt 0.986598 0.978452
vt 0.722290 0.833286
vt 0.926276 0.976540
s 1
usemtl Lock01
f 10/1/1 12/2/1 21/3/1
f 1/4/2 4/5/2 2/6/2
f 23/7/3 18/8/4 24/9/3
f 5/10/5 12/11/6 6/12/6
f 7/13/7 10/14/8 8/15/8
f 8/15/8 19/16/9 13/17/9
f 6/12/6 11/18/7 7/19/7
f 21/20/10 15/21/11 22/22/11
f 20/23/12 16/24/10 21/25/10
f 6/26/13 8/27/13 17/28/13
f 18/8/4 17/29/12 20/23/12
f 4/30/14 23/7/3 24/9/3
f 24/31/1 9/32/1 25/33/1
f 25/34/15 9/35/16 5/10/5
f 24/31/1 2/36/1 4/37/1
f 22/38/1 19/39/1 21/3/1
f 19/39/1 10/1/1 21/3/1
f 10/1/1 11/40/1 12/2/1
f 1/41/13 23/42/13 3/43/13
f 18/44/1 20/45/1 21/3/1
f 8/27/13 13/46/13 17/28/13
f 13/46/13 15/47/13 17/28/13
f 15/47/13 16/48/13 17/28/13
f 1/49/17 25/34/15 5/10/5
f 14/50/13 23/42/13 5/51/13
f 6/26/13 14/50/13 5/51/13
f 6/26/13 7/52/13 8/27/13
f 9/32/1 21/3/1 12/2/1
f 22/22/11 13/17/9 19/16/9
f 1/4/2 3/53/2 4/5/2
f 23/7/3 14/54/4 18/8/4
f 5/10/5 9/35/16 12/11/6
f 7/13/7 11/55/7 10/14/8
f 8/15/8 10/14/8 19/16/9
f 6/12/6 12/11/6 11/18/7
f 21/20/10 16/56/10 15/21/11
f 20/23/12 17/29/12 16/24/10
f 18/8/4 14/54/4 17/29/12
f 4/30/14 3/57/14 23/7/3
f 24/31/1 18/44/1 9/32/1
f 24/31/1 25/33/1 2/36/1
f 1/41/13 5/51/13 23/42/13
f 1/49/17 2/58/18 25/34/15
f 6/26/13 17/28/13 14/50/13
f 9/32/1 18/44/1 21/3/1
f 22/22/11 15/21/11 13/17/9
