# Blender 4.1.0
# www.blender.org
mtllib Lock.001.mtl
o Lock.001
v -0.075839 0.089231 0.016301
v -0.050698 0.089664 0.016301
v -0.050698 0.089664 -0.016301
v -0.075839 0.089231 -0.016301
v -0.076014 0.166799 0.016301
v -0.051967 0.159546 0.016301
v -0.051967 0.159546 -0.016301
v -0.076014 0.166799 -0.016301
v -0.047836 0.206502 0.016301
v -0.032704 0.186689 0.016301
v -0.032704 0.186689 -0.016301
v -0.047836 0.206502 -0.016301
v -0.001387 0.222281 0.016301
v -0.000948 0.197477 0.016301
v -0.000948 0.197477 -0.016301
v -0.001387 0.222281 -0.016301
v 0.045592 0.208111 0.016301
v 0.031169 0.187789 0.016301
v 0.031169 0.187789 -0.016301
v 0.045592 0.208111 -0.016301
v 0.075156 0.169403 0.016301
v 0.051381 0.161326 0.016301
v 0.051381 0.161326 -0.016301
v 0.075156 0.169403 -0.016301
v 0.076561 0.091855 0.016301
v 0.051420 0.091422 0.016301
v 0.051420 0.091422 -0.016301
v 0.076561 0.091855 -0.016301
vn -1.0000 -0.0022 -0.0000
vn -0.0000 -0.0000 1.0000
vn 0.9998 0.0182 -0.0000
vn -0.0000 -0.0000 -1.0000
vn -0.8155 0.5788 -0.0000
vn 0.8155 -0.5788 -0.0000
vn -0.3217 0.9469 -0.0000
vn 0.3217 -0.9469 -0.0000
vn 0.2888 0.9574 -0.0000
vn -0.2888 -0.9574 -0.0000
vn 0.7947 0.6070 -0.0000
vn -0.7947 -0.6070 -0.0000
vn 0.9998 0.0181 -0.0000
vn -1.0000 -0.0006 -0.0000
vt 0.450309 0.774568
vt 0.505742 0.918766
vt 0.450309 0.918766
vt 0.810210 0.467336
vt 0.940140 0.421278
vt 0.940140 0.467396
vt 0.561175 0.880582
vt 0.616608 0.750652
vt 0.616608 0.880582
vt 0.450309 0.421278
vt 0.580239 0.467336
vt 0.450309 0.467396
vt 0.450309 0.700834
vt 0.505742 0.774568
vt 0.760377 0.503542
vt 0.795959 0.423475
vt 0.561175 0.700834
vt 0.561175 0.750652
vt 0.667382 0.476435
vt 0.594490 0.423475
vt 0.695224 0.863826
vt 0.750657 0.790934
vt 0.750657 0.863826
vt 0.741342 0.562125
vt 0.723067 0.476435
vt 0.639791 0.862099
vt 0.695224 0.812265
vt 0.695224 0.862099
vt 0.695224 0.562125
vt 0.630072 0.503542
vt 0.695224 0.700834
vt 0.695224 0.790934
vt 0.760376 0.620707
vt 0.639791 0.750668
vt 0.639791 0.812265
vt 0.667382 0.647815
vt 0.649107 0.562125
vt 0.561175 0.773750
vt 0.505742 0.700834
vt 0.561175 0.700834
vt 0.795959 0.700774
vt 0.723067 0.647815
vt 0.639791 0.700834
vt 0.695224 0.750668
vt 0.594490 0.700774
vt 0.630072 0.620707
vt 0.505742 0.917931
vt 0.505742 0.773750
vt 0.810210 0.656914
vt 0.940140 0.700834
vt 0.806090 0.830783
vt 0.750657 0.700834
vt 0.806090 0.700834
vt 0.580239 0.656914
vt 0.505742 0.700834
vt 0.616608 0.700834
vt 0.695224 0.700834
vt 0.561175 0.917931
vt 0.940140 0.654717
vt 0.750657 0.830783
vt 0.450309 0.654717
s 0
usemtl Lock01
f 5/1/1 4/2/1 1/3/1
f 6/4/2 1/5/2 2/6/2
f 3/7/3 6/8/3 2/9/3
f 4/10/4 7/11/4 3/12/4
f 9/13/5 8/14/5 5/1/5
f 10/15/2 5/16/2 6/4/2
f 11/17/6 6/8/6 7/18/6
f 12/19/4 7/11/4 8/20/4
f 9/21/7 16/22/7 12/23/7
f 14/24/2 9/25/2 10/15/2
f 11/26/8 14/27/8 10/28/8
f 16/29/4 11/30/4 12/19/4
f 17/31/9 16/22/9 13/32/9
f 18/33/2 13/29/2 14/24/2
f 19/34/10 14/27/10 15/35/10
f 20/36/4 15/37/4 16/29/4
f 21/38/11 20/39/11 17/40/11
f 18/33/2 21/41/2 17/42/2
f 23/43/12 18/44/12 19/34/12
f 24/45/4 19/46/4 20/36/4
f 21/38/13 28/47/13 24/48/13
f 22/49/2 25/50/2 21/41/2
f 27/51/14 22/52/14 23/53/14
f 28/13/4 23/54/4 24/45/4
f 5/1/1 8/14/1 4/2/1
f 6/4/2 5/16/2 1/5/2
f 3/7/3 7/18/3 6/8/3
f 4/10/4 8/20/4 7/11/4
f 9/13/5 12/55/5 8/14/5
f 10/15/2 9/25/2 5/16/2
f 11/17/6 10/56/6 6/8/6
f 12/19/4 11/30/4 7/11/4
f 9/21/7 13/32/7 16/22/7
f 14/24/2 13/29/2 9/25/2
f 11/26/8 15/35/8 14/27/8
f 16/29/4 15/37/4 11/30/4
f 17/31/9 20/52/9 16/22/9
f 18/33/2 17/42/2 13/29/2
f 19/34/10 18/44/10 14/27/10
f 20/36/4 19/46/4 15/37/4
f 21/38/11 24/48/11 20/39/11
f 18/33/2 22/49/2 21/41/2
f 23/43/12 22/57/12 18/44/12
f 24/45/4 23/54/4 19/46/4
f 21/38/13 25/58/13 28/47/13
f 22/49/2 26/59/2 25/50/2
f 27/51/14 26/60/14 22/52/14
f 28/13/4 27/61/4 23/54/4
