# Blender 4.0.2
# www.blender.org
mtllib NightStandIsolated.mtl
o NightStand.005
v -0.295220 0.056578 0.258781
v -0.295220 0.567380 0.258781
v -0.295220 0.056578 -0.257475
v -0.295220 0.567380 -0.257475
v 0.288901 0.056578 0.258781
v 0.288901 0.567380 0.258781
v 0.288901 0.056578 -0.257475
v 0.288901 0.567380 -0.257475
v -0.295220 0.311979 0.258781
v -0.295220 0.311979 -0.257475
v 0.288901 0.311979 -0.257475
v 0.288901 0.311979 0.258781
v 0.288901 0.311979 0.258781
v 0.288901 0.567380 0.258781
v -0.295220 0.567380 0.258781
v -0.295220 0.311979 0.258781
v 0.288901 0.056578 0.258781
v 0.288901 0.311979 0.258781
v -0.295220 0.311979 0.258781
v -0.295220 0.056578 0.258781
v 0.254597 0.335440 0.258781
v 0.254597 0.540661 0.258781
v -0.260917 0.540661 0.258781
v -0.260917 0.335440 0.258781
v 0.254597 0.089510 0.258781
v 0.254597 0.294763 0.258781
v -0.260917 0.294763 0.258781
v -0.260917 0.089510 0.258781
v 0.254597 0.540661 -0.221875
v 0.254597 0.335440 -0.221875
v -0.260917 0.335440 -0.221875
v -0.260917 0.540661 -0.221875
v 0.254597 0.294763 -0.221875
v 0.254597 0.089510 -0.221875
v -0.260917 0.089510 -0.221875
v -0.260917 0.294763 -0.221875
vn -1.0000 -0.0000 -0.0000
vn -0.0000 -0.0000 -1.0000
vn 1.0000 -0.0000 -0.0000
vn -0.0000 1.0000 -0.0000
vn -0.0000 -1.0000 -0.0000
vn -0.0000 -0.0000 1.0000
vt 0.625000 0.000000
vt 0.500000 0.250000
vt 0.500000 0.000000
vt 0.625000 0.250000
vt 0.500000 0.500000
vt 0.625000 0.500000
vt 0.500000 0.750000
vt 0.509762 0.777853
vt 0.509762 0.972147
vt 0.375000 0.500000
vt 0.125000 0.750000
vt 0.125000 0.500000
vt 0.875000 0.500000
vt 0.625000 0.750000
vt 0.615238 0.972147
vt 0.375000 0.750000
vt 0.375000 0.250000
vt 0.375000 0.000000
vt 0.625000 1.000000
vt 0.500000 1.000000
vt 0.375000 1.000000
vt 0.615238 0.777853
vt 0.379242 0.762105
vt 0.495758 0.762105
vt 0.379242 0.987895
vt 0.495757 0.987895
vt 0.875000 0.750000
s 0
f 2/1/1 10/2/1 9/3/1
f 4/4/2 11/5/2 10/2/2
f 8/6/3 12/7/3 11/5/3
f 21/8/4 31/9/4 24/9/4
f 7/10/5 1/11/5 3/12/5
f 4/13/4 6/14/4 8/6/4
f 24/9/3 32/15/3 23/15/3
f 11/5/3 5/16/3 7/10/3
f 10/2/2 7/10/2 3/17/2
f 9/3/1 3/17/1 1/18/1
f 12/7/4 14/14/4 13/7/4
f 6/14/4 15/19/4 14/14/4
f 2/19/4 16/20/4 15/19/4
f 9/20/4 13/7/4 16/20/4
f 5/16/4 18/7/4 17/16/4
f 12/7/4 19/20/4 18/7/4
f 9/20/4 20/21/4 19/20/4
f 1/21/4 17/16/4 20/21/4
f 13/7/6 22/22/6 21/8/6
f 15/19/6 22/22/6 14/14/6
f 16/20/6 23/15/6 15/19/6
f 13/7/6 24/9/6 16/20/6
f 18/7/6 25/23/6 17/16/6
f 19/20/6 26/24/6 18/7/6
f 19/20/6 28/25/6 27/26/6
f 17/16/6 28/25/6 20/21/6
f 29/22/6 31/9/6 30/8/6
f 33/24/6 35/25/6 34/23/6
f 27/26/5 33/24/5 26/24/5
f 26/24/1 34/23/1 25/23/1
f 23/15/5 29/22/5 22/22/5
f 28/25/3 36/26/3 27/26/3
f 22/22/1 30/8/1 21/8/1
f 25/23/4 35/25/4 28/25/4
f 2/1/1 4/4/1 10/2/1
f 4/4/2 8/6/2 11/5/2
f 8/6/3 6/14/3 12/7/3
f 21/8/4 30/8/4 31/9/4
f 7/10/5 5/16/5 1/11/5
f 4/13/4 2/27/4 6/14/4
f 24/9/3 31/9/3 32/15/3
f 11/5/3 12/7/3 5/16/3
f 10/2/2 11/5/2 7/10/2
f 9/3/1 10/2/1 3/17/1
f 12/7/4 6/14/4 14/14/4
f 6/14/4 2/19/4 15/19/4
f 2/19/4 9/20/4 16/20/4
f 9/20/4 12/7/4 13/7/4
f 5/16/4 12/7/4 18/7/4
f 12/7/4 9/20/4 19/20/4
f 9/20/4 1/21/4 20/21/4
f 1/21/4 5/16/4 17/16/4
f 13/7/6 14/14/6 22/22/6
f 15/19/6 23/15/6 22/22/6
f 16/20/6 24/9/6 23/15/6
f 13/7/6 21/8/6 24/9/6
f 18/7/6 26/24/6 25/23/6
f 19/20/6 27/26/6 26/24/6
f 19/20/6 20/21/6 28/25/6
f 17/16/6 25/23/6 28/25/6
f 29/22/6 32/15/6 31/9/6
f 33/24/6 36/26/6 35/25/6
f 27/26/5 36/26/5 33/24/5
f 26/24/1 33/24/1 34/23/1
f 23/15/5 32/15/5 29/22/5
f 28/25/3 35/25/3 36/26/3
f 22/22/1 29/22/1 30/8/1
f 25/23/4 34/23/4 35/25/4
o NightStand.006
v -0.267669 0.000258 0.226187
v -0.267669 0.081472 0.226187
v -0.267669 0.000258 0.152072
v -0.267669 0.081472 0.152072
v -0.199456 0.000258 0.226187
v -0.199456 0.081472 0.226187
v -0.199456 0.000258 0.152072
v -0.199456 0.081472 0.152072
v 0.189359 0.000258 0.226187
v 0.189359 0.081472 0.226187
v 0.189359 0.000258 0.152072
v 0.189359 0.081472 0.152072
v 0.257572 0.000258 0.226187
v 0.257572 0.081472 0.226187
v 0.257572 0.000258 0.152072
v 0.257572 0.081472 0.152072
vn -1.0000 -0.0000 -0.0000
vn -0.0000 -0.0000 -1.0000
vn 1.0000 -0.0000 -0.0000
vn -0.0000 -0.0000 1.0000
vn -0.0000 -1.0000 -0.0000
vn -0.0000 1.0000 -0.0000
vt 0.625000 0.000000
vt 0.375000 0.250000
vt 0.375000 0.000000
vt 0.625000 0.250000
vt 0.375000 0.500000
vt 0.625000 0.500000
vt 0.375000 0.750000
vt 0.625000 0.750000
vt 0.375000 1.000000
vt 0.125000 0.750000
vt 0.125000 0.500000
vt 0.875000 0.500000
vt 0.625000 1.000000
vt 0.875000 0.750000
s 0
f 38/28/7 39/29/7 37/30/7
f 40/31/8 43/32/8 39/29/8
f 44/33/9 41/34/9 43/32/9
f 42/35/10 37/36/10 41/34/10
f 43/32/11 37/37/11 39/38/11
f 40/39/12 42/35/12 44/33/12
f 46/28/7 47/29/7 45/30/7
f 48/31/8 51/32/8 47/29/8
f 52/33/9 49/34/9 51/32/9
f 50/35/10 45/36/10 49/34/10
f 51/32/11 45/37/11 47/38/11
f 48/39/12 50/35/12 52/33/12
f 38/28/7 40/31/7 39/29/7
f 40/31/8 44/33/8 43/32/8
f 44/33/9 42/35/9 41/34/9
f 42/35/10 38/40/10 37/36/10
f 43/32/11 41/34/11 37/37/11
f 40/39/12 38/41/12 42/35/12
f 46/28/7 48/31/7 47/29/7
f 48/31/8 52/33/8 51/32/8
f 52/33/9 50/35/9 49/34/9
f 50/35/10 46/40/10 45/36/10
f 51/32/11 49/34/11 45/37/11
f 48/39/12 46/41/12 50/35/12
o NightStand.007
v -0.267669 0.000258 -0.161442
v -0.267669 0.081472 -0.161442
v -0.267669 0.000258 -0.235557
v -0.267669 0.081472 -0.235557
v -0.199456 0.000258 -0.161442
v -0.199456 0.081472 -0.161442
v -0.199456 0.000258 -0.235557
v -0.199456 0.081472 -0.235557
v 0.189358 0.000258 -0.161442
v 0.189358 0.081472 -0.161442
v 0.189358 0.000258 -0.235557
v 0.189358 0.081472 -0.235557
v 0.257571 0.000258 -0.161442
v 0.257571 0.081472 -0.161442
v 0.257571 0.000258 -0.235557
v 0.257571 0.081472 -0.235557
vn -1.0000 -0.0000 -0.0000
vn -0.0000 -0.0000 -1.0000
vn 1.0000 -0.0000 -0.0000
vn -0.0000 -0.0000 1.0000
vn -0.0000 -1.0000 -0.0000
vn -0.0000 1.0000 -0.0000
vt 0.625000 0.000000
vt 0.375000 0.250000
vt 0.375000 0.000000
vt 0.625000 0.250000
vt 0.375000 0.500000
vt 0.625000 0.500000
vt 0.375000 0.750000
vt 0.625000 0.750000
vt 0.375000 1.000000
vt 0.125000 0.750000
vt 0.125000 0.500000
vt 0.875000 0.500000
vt 0.625000 1.000000
vt 0.875000 0.750000
s 0
f 54/42/13 55/43/13 53/44/13
f 56/45/14 59/46/14 55/43/14
f 60/47/15 57/48/15 59/46/15
f 58/49/16 53/50/16 57/48/16
f 59/46/17 53/51/17 55/52/17
f 56/53/18 58/49/18 60/47/18
f 62/42/13 63/43/13 61/44/13
f 64/45/14 67/46/14 63/43/14
f 68/47/15 65/48/15 67/46/15
f 66/49/16 61/50/16 65/48/16
f 67/46/17 61/51/17 63/52/17
f 64/53/18 66/49/18 68/47/18
f 54/42/13 56/45/13 55/43/13
f 56/45/14 60/47/14 59/46/14
f 60/47/15 58/49/15 57/48/15
f 58/49/16 54/54/16 53/50/16
f 59/46/17 57/48/17 53/51/17
f 56/53/18 54/55/18 58/49/18
f 62/42/13 64/45/13 63/43/13
f 64/45/14 68/47/14 67/46/14
f 68/47/15 66/49/15 65/48/15
f 66/49/16 62/54/16 61/50/16
f 67/46/17 65/48/17 61/51/17
f 64/53/18 62/55/18 66/49/18
o NightStand.008
v -0.314476 0.559589 0.275369
v -0.314476 0.607490 0.275369
v -0.314476 0.559589 -0.274064
v -0.314476 0.607490 -0.274064
v 0.308156 0.559589 0.275369
v 0.308156 0.607490 0.275369
v 0.308156 0.559589 -0.274064
v 0.308156 0.607490 -0.274064
vn -1.0000 -0.0000 -0.0000
vn -0.0000 -0.0000 -1.0000
vn 1.0000 -0.0000 -0.0000
vn -0.0000 -0.0000 1.0000
vn -0.0000 -1.0000 -0.0000
vn -0.0000 1.0000 -0.0000
vt 0.625000 0.000000
vt 0.375000 0.250000
vt 0.375000 0.000000
vt 0.625000 0.250000
vt 0.375000 0.500000
vt 0.625000 0.500000
vt 0.375000 0.750000
vt 0.625000 0.750000
vt 0.375000 1.000000
vt 0.125000 0.750000
vt 0.125000 0.500000
vt 0.875000 0.500000
vt 0.625000 1.000000
vt 0.875000 0.750000
s 0
f 70/56/19 71/57/19 69/58/19
f 72/59/20 75/60/20 71/57/20
f 76/61/21 73/62/21 75/60/21
f 74/63/22 69/64/22 73/62/22
f 75/60/23 69/65/23 71/66/23
f 72/67/24 74/63/24 76/61/24
f 70/56/19 72/59/19 71/57/19
f 72/59/20 76/61/20 75/60/20
f 76/61/21 74/63/21 73/62/21
f 74/63/22 70/68/22 69/64/22
f 75/60/23 73/62/23 69/65/23
f 72/67/24 70/69/24 74/63/24
