# Blender 4.0.2
# www.blender.org
mtllib TVAntenna.mtl
o TVAntenna
v 0.020526 0.033040 0.049789
v -0.053738 0.033040 0.030771
v -0.053738 0.033040 -0.030771
v 0.020526 0.033040 -0.049789
v 0.066424 0.033040 0.000000
v 0.000000 0.074092 0.000000
v 0.000000 -0.000173 0.022356
v 0.000000 -0.000173 -0.022356
v 0.070630 -0.000173 0.018087
v 0.070630 -0.000173 -0.018087
v 0.000000 -0.000173 0.058531
v 0.043652 -0.000173 0.047352
v -0.070630 -0.000173 0.018087
v -0.043652 -0.000173 0.047352
v -0.043652 -0.000173 -0.047352
v -0.070630 -0.000173 -0.018087
v 0.043652 -0.000173 -0.047352
v 0.000000 -0.000173 -0.058531
v 0.051108 0.038871 0.029265
v -0.019522 0.038871 0.047352
v -0.063173 0.038871 0.000000
v -0.019522 0.038871 -0.047352
v 0.051108 0.038871 -0.029265
v 0.012065 0.063001 0.029265
v 0.039043 0.063001 0.000000
v -0.031586 0.063001 0.018087
v -0.031586 0.063001 -0.018087
v 0.012065 0.063001 -0.029265
vn 0.2381 0.3853 0.8916
vn 0.6509 0.4997 0.5715
vn 0.1558 0.8057 0.5715
vn -0.6817 0.4213 0.5981
vn -0.2286 0.4620 0.8569
vn -0.4187 0.8333 0.3611
vn -0.6817 0.4213 -0.5981
vn -0.8506 0.5257 -0.0000
vn -0.4187 0.8333 -0.3611
vn 0.2381 0.3853 -0.8916
vn -0.2286 0.4620 -0.8569
vn 0.1558 0.8057 -0.5715
vn 0.8948 0.4464 -0.0000
vn 0.6509 0.4997 -0.5715
vn 0.5257 0.8507 -0.0000
vn -0.0009 1.0000 -0.0000
vn 0.9067 0.2064 -0.3678
vn 0.5180 0.1890 -0.8342
vn -0.0128 0.1764 -0.9842
vn -0.4947 0.1845 -0.8492
vn -0.9172 0.2102 -0.3385
vn -0.9172 0.2102 0.3385
vn -0.4947 0.1845 0.8492
vn -0.0128 0.1764 0.9842
vn 0.5180 0.1890 0.8342
vn 0.9067 0.2064 0.3678
vn -0.0000 -1.0000 -0.0000
vt 0.181819 0.314921
vt 0.272728 0.314921
vt 0.227273 0.393651
vt 0.000000 0.314921
vt 0.090910 0.314921
vt 0.045455 0.393651
vt 0.727273 0.314921
vt 0.818182 0.314921
vt 0.772727 0.393651
vt 0.545455 0.314921
vt 0.636364 0.314921
vt 0.590909 0.393651
vt 0.363637 0.314921
vt 0.454546 0.314921
vt 0.409092 0.393651
vt 0.500000 0.393651
vt 0.454546 0.472382
vt 0.681818 0.393651
vt 0.636364 0.472382
vt 0.863636 0.393651
vt 0.818182 0.472382
vt 0.909091 0.314921
vt 0.136365 0.393651
vt 0.090910 0.472382
vt 0.318182 0.393651
vt 0.272728 0.472382
vt 0.409092 0.236191
vt 0.500000 0.236191
vt 0.590909 0.236191
vt 0.681818 0.236191
vt 0.772727 0.236191
vt 0.863636 0.236191
vt 0.045455 0.236191
vt 0.136365 0.236191
vt 0.227273 0.236191
vt 0.318182 0.236191
vt 0.510696 0.236191
vt 0.954545 0.236191
vt 0.430482 0.236191
s 1
f 1/1/1 19/2/2 24/3/3
f 2/4/4 20/5/5 26/6/6
f 3/7/7 21/8/8 27/9/9
f 4/10/10 22/11/11 28/12/12
f 5/13/13 23/14/14 25/15/15
f 25/15/15 28/16/12 6/17/16
f 25/15/15 23/14/14 28/16/12
f 23/14/14 4/10/10 28/16/12
f 28/12/12 27/18/9 6/19/16
f 28/12/12 22/11/11 27/18/9
f 22/11/11 3/7/7 27/18/9
f 27/9/9 26/20/6 6/21/16
f 27/9/9 21/8/8 26/20/6
f 21/8/8 2/22/4 26/20/6
f 26/6/6 24/23/3 6/24/16
f 26/6/6 20/5/5 24/23/3
f 20/5/5 1/1/1 24/23/3
f 24/3/3 25/25/15 6/26/16
f 24/3/3 19/2/2 25/25/15
f 19/2/2 5/13/13 25/25/15
f 10/27/17 23/14/14 5/13/13
f 10/27/17 17/28/18 23/14/14
f 17/28/18 4/10/10 23/14/14
f 18/29/19 22/11/11 4/10/10
f 18/29/19 15/30/20 22/11/11
f 15/30/20 3/7/7 22/11/11
f 16/31/21 21/8/8 3/7/7
f 16/31/21 13/32/22 21/8/8
f 13/32/22 2/22/4 21/8/8
f 14/33/23 20/5/5 2/4/4
f 14/33/23 11/34/24 20/5/5
f 11/34/24 1/1/1 20/5/5
f 12/35/25 19/2/2 1/1/1
f 12/35/25 9/36/26 19/2/2
f 9/36/26 5/13/13 19/2/2
f 17/28/18 18/29/19 4/10/10
f 8/37/27 17/28/27 10/27/27
f 15/30/20 16/31/21 3/7/7
f 8/37/27 15/30/27 18/29/27
f 13/32/22 14/38/23 2/22/4
f 9/36/27 8/37/27 10/27/27
f 11/34/24 12/35/25 1/1/1
f 12/35/27 7/39/27 9/36/27
f 9/36/26 10/27/17 5/13/13
f 13/32/27 8/37/27 7/39/27
f 14/38/27 7/39/27 11/34/27
f 8/37/27 18/29/27 17/28/27
f 8/37/27 16/31/27 15/30/27
f 9/36/27 7/39/27 8/37/27
f 12/35/27 11/34/27 7/39/27
f 13/32/27 16/31/27 8/37/27
f 14/38/27 13/32/27 7/39/27
o TVAntenna.001
v -0.005483 0.012097 -0.010117
v -0.146336 0.327318 -0.010117
v -0.000017 0.014539 -0.007154
v -0.140871 0.329760 -0.007154
v 0.002246 0.015551 0.000000
v -0.138607 0.330771 0.000000
v -0.000017 0.014539 0.007154
v -0.140871 0.329760 0.007154
v -0.005483 0.012097 0.010117
v -0.146336 0.327318 0.010117
v -0.010948 0.009655 0.007154
v -0.151801 0.324876 0.007154
v -0.013212 0.008644 0.000000
v -0.154065 0.323864 0.000000
v -0.010948 0.009655 -0.007154
v -0.151801 0.324876 -0.007154
v -0.136991 0.332146 -0.012550
v -0.146579 0.327862 -0.017749
v -0.156167 0.323577 -0.012550
v -0.160139 0.321803 0.000000
v -0.156167 0.323577 0.012550
v -0.146579 0.327862 0.017749
v -0.136991 0.332146 0.012550
v -0.133019 0.333921 0.000000
v -0.158219 0.379653 -0.012550
v -0.167807 0.375369 -0.017749
v -0.177395 0.371085 -0.012550
v -0.181367 0.369310 0.000000
v -0.177395 0.371085 0.012550
v -0.167807 0.375369 0.017749
v -0.158219 0.379653 0.012550
v -0.154247 0.381428 0.000000
v -0.162618 0.380733 -0.008277
v -0.168941 0.377907 -0.011705
v -0.175265 0.375082 -0.008277
v -0.177884 0.373912 0.000000
v -0.175265 0.375082 0.008277
v -0.168941 0.377907 0.011705
v -0.162618 0.380733 0.008277
v -0.159999 0.381903 0.000000
vn 0.4050 0.1810 -0.8962
vn 0.8627 0.3855 -0.3275
vn 0.8627 0.3855 0.3275
vn 0.4050 0.1810 0.8962
vn -0.4050 -0.1810 0.8962
vn -0.8627 -0.3855 0.3275
vn -0.8627 -0.3855 -0.3275
vn -0.4050 -0.1810 -0.8962
vn -0.4080 0.9130 -0.0000
vn 0.4416 -0.8938 -0.0778
vn 0.3713 -0.9253 -0.0778
vn 0.3212 -0.9465 -0.0322
vn 0.3212 -0.9465 0.0322
vn 0.3713 -0.9253 0.0778
vn 0.4416 -0.8938 0.0778
vn 0.4908 -0.8707 0.0322
vn 0.4908 -0.8707 -0.0322
vn -0.1780 0.8949 -0.4093
vn -0.5479 0.7296 -0.4093
vn -0.7865 0.5953 -0.1647
vn -0.7865 0.5953 0.1647
vn -0.5479 0.7296 0.4093
vn -0.1780 0.8949 0.4093
vn 0.0812 0.9830 0.1647
vn 0.0812 0.9830 -0.1647
vt 1.000000 1.000000
vt 0.875000 0.500000
vt 1.000000 0.500000
vt 0.750000 1.000000
vt 0.750000 0.500000
vt 0.625000 0.500000
vt 0.625000 1.000000
vt 0.500000 0.500000
vt 0.500000 1.000000
vt 0.375000 0.500000
vt 0.375000 1.000000
vt 0.250000 0.500000
vt 0.250000 1.000000
vt 0.125000 0.500000
vt 0.125000 1.000000
vt 0.000000 0.500000
vt 0.010000 0.250000
vt 0.250000 0.010000
vt 0.490000 0.250000
vt 0.250000 0.490000
vt 0.419706 0.419706
vt 0.080294 0.419706
vt 0.080294 0.080294
vt 0.419706 0.080294
vt 0.875000 1.000000
vt 0.000000 1.000000
s 0
f 30/40/28 31/41/28 29/42/28
f 31/41/29 34/43/29 33/44/29
f 34/43/30 35/45/30 33/44/30
f 36/46/31 37/47/31 35/45/31
f 38/48/32 39/49/32 37/47/32
f 40/50/33 41/51/33 39/49/33
f 42/52/34 43/53/34 41/51/34
f 44/54/35 29/55/35 43/53/35
f 64/56/36 66/57/36 68/58/36
f 30/59/37 45/60/37 32/60/37
f 47/61/38 30/59/38 44/61/38
f 48/56/39 44/61/39 42/56/39
f 40/62/40 48/56/40 42/56/40
f 38/57/41 49/62/41 40/62/41
f 51/63/42 38/57/42 36/63/42
f 52/58/43 36/63/43 34/58/43
f 32/60/44 52/58/44 34/58/44
f 46/59/28 53/60/28 45/60/28
f 47/61/35 54/59/35 46/59/35
f 56/56/34 47/61/34 48/56/34
f 49/62/33 56/56/33 48/56/33
f 58/57/32 49/62/32 50/57/32
f 59/63/31 50/57/31 51/63/31
f 60/58/30 51/63/30 52/58/30
f 45/60/29 60/58/29 52/58/29
f 62/59/45 53/60/45 54/59/45
f 55/61/46 62/59/46 54/59/46
f 56/56/47 63/61/47 55/61/47
f 65/62/48 56/56/48 57/62/48
f 66/57/49 57/62/49 58/57/49
f 59/63/50 66/57/50 58/57/50
f 60/58/51 67/63/51 59/63/51
f 61/60/52 60/58/52 53/60/52
f 30/40/28 32/64/28 31/41/28
f 31/41/29 32/64/29 34/43/29
f 34/43/30 36/46/30 35/45/30
f 36/46/31 38/48/31 37/47/31
f 38/48/32 40/50/32 39/49/32
f 40/50/33 42/52/33 41/51/33
f 42/52/34 44/54/34 43/53/34
f 44/54/35 30/65/35 29/55/35
f 68/58/36 61/60/36 62/59/36
f 62/59/36 63/61/36 64/56/36
f 64/56/36 65/62/36 66/57/36
f 66/57/36 67/63/36 68/58/36
f 68/58/36 62/59/36 64/56/36
f 30/59/37 46/59/37 45/60/37
f 47/61/38 46/59/38 30/59/38
f 48/56/39 47/61/39 44/61/39
f 40/62/40 49/62/40 48/56/40
f 38/57/41 50/57/41 49/62/41
f 51/63/42 50/57/42 38/57/42
f 52/58/43 51/63/43 36/63/43
f 32/60/44 45/60/44 52/58/44
f 46/59/28 54/59/28 53/60/28
f 47/61/35 55/61/35 54/59/35
f 56/56/34 55/61/34 47/61/34
f 49/62/33 57/62/33 56/56/33
f 58/57/32 57/62/32 49/62/32
f 59/63/31 58/57/31 50/57/31
f 60/58/30 59/63/30 51/63/30
f 45/60/29 53/60/29 60/58/29
f 62/59/45 61/60/45 53/60/45
f 55/61/46 63/61/46 62/59/46
f 56/56/47 64/56/47 63/61/47
f 65/62/48 64/56/48 56/56/48
f 66/57/49 65/62/49 57/62/49
f 59/63/50 67/63/50 66/57/50
f 60/58/51 68/58/51 67/63/51
f 61/60/52 68/58/52 60/58/52
o TVAntenna.002
v 0.007586 0.010921 -0.010117
v 0.202467 0.295920 -0.010117
v 0.012527 0.007542 -0.007154
v 0.207409 0.292541 -0.007154
v 0.014574 0.006143 0.000000
v 0.209455 0.291142 0.000000
v 0.012527 0.007542 0.007154
v 0.207409 0.292541 0.007154
v 0.007586 0.010921 0.010117
v 0.202467 0.295920 0.010117
v 0.002644 0.014300 0.007154
v 0.197526 0.299299 0.007154
v 0.000598 0.015699 0.000000
v 0.195479 0.300699 0.000000
v 0.002644 0.014300 -0.007154
v 0.197526 0.299299 -0.007154
v 0.211473 0.290484 -0.012550
v 0.202804 0.296412 -0.017749
v 0.194135 0.302340 -0.012550
v 0.190544 0.304795 0.000000
v 0.194135 0.302340 0.012550
v 0.202804 0.296412 0.017749
v 0.211473 0.290484 0.012550
v 0.215063 0.288029 0.000000
v 0.240844 0.333437 -0.012550
v 0.232175 0.339365 -0.017749
v 0.223506 0.345292 -0.012550
v 0.219915 0.347748 0.000000
v 0.223506 0.345292 0.012550
v 0.232175 0.339365 0.017749
v 0.240844 0.333437 0.012550
v 0.244434 0.330982 0.000000
v 0.239461 0.337751 -0.008277
v 0.233744 0.341660 -0.011705
v 0.228027 0.345569 -0.008277
v 0.225659 0.347188 0.000000
v 0.228027 0.345569 0.008277
v 0.233744 0.341660 0.011705
v 0.239461 0.337751 0.008277
v 0.241829 0.336131 0.000000
vn 0.3662 -0.2504 -0.8962
vn 0.7799 -0.5333 -0.3275
vn 0.7799 -0.5333 0.3275
vn 0.3662 -0.2504 0.8962
vn -0.3662 0.2504 0.8962
vn -0.7799 0.5333 0.3275
vn -0.7799 0.5333 -0.3275
vn -0.3662 0.2504 -0.8962
vn 0.5645 0.8255 -0.0000
vn -0.5305 -0.8441 -0.0778
vn -0.5941 -0.8006 -0.0778
vn -0.6384 -0.7691 -0.0322
vn -0.6384 -0.7691 0.0322
vn -0.5941 -0.8006 0.0778
vn -0.5305 -0.8441 0.0778
vn -0.4851 -0.8739 0.0322
vn -0.4851 -0.8739 -0.0322
vn 0.6694 0.6200 -0.4093
vn 0.3349 0.8487 -0.4093
vn 0.0956 0.9817 -0.1647
vn 0.0956 0.9817 0.1647
vn 0.3349 0.8487 0.4093
vn 0.6694 0.6200 0.4093
vn 0.8801 0.4453 0.1647
vn 0.8801 0.4453 -0.1647
vn 0.5644 0.8255 -0.0000
vt 1.000000 0.500000
vt 0.875000 1.000000
vt 0.875000 0.500000
vt 0.750000 1.000000
vt 0.750000 0.500000
vt 0.625000 1.000000
vt 0.625000 0.500000
vt 0.500000 0.500000
vt 0.500000 1.000000
vt 0.375000 0.500000
vt 0.375000 1.000000
vt 0.250000 0.500000
vt 0.250000 1.000000
vt 0.125000 0.500000
vt 0.125000 1.000000
vt 0.000000 0.500000
vt 0.010000 0.250000
vt 0.250000 0.010000
vt 0.490000 0.250000
vt 0.250000 0.490000
vt 0.419706 0.419706
vt 0.080294 0.419706
vt 0.080294 0.080294
vt 0.419706 0.080294
vt 1.000000 1.000000
vt 0.000000 1.000000
s 0
f 69/66/53 72/67/53 71/68/53
f 71/68/54 74/69/54 73/70/54
f 73/70/55 76/71/55 75/72/55
f 76/71/56 77/73/56 75/72/56
f 78/74/57 79/75/57 77/73/57
f 80/76/58 81/77/58 79/75/58
f 82/78/59 83/79/59 81/77/59
f 84/80/60 69/81/60 83/79/60
f 104/82/61 106/83/61 108/84/61
f 70/85/62 85/86/62 72/86/62
f 87/87/63 70/85/63 84/87/63
f 88/82/64 84/87/64 82/82/64
f 80/88/65 88/82/65 82/82/65
f 78/83/66 89/88/66 80/88/66
f 91/89/67 78/83/67 76/89/67
f 92/84/68 76/89/68 74/84/68
f 72/86/69 92/84/69 74/84/69
f 94/85/53 85/86/53 86/85/53
f 95/87/60 86/85/60 87/87/60
f 88/82/59 95/87/59 87/87/59
f 89/88/58 96/82/58 88/82/58
f 90/83/57 97/88/57 89/88/57
f 99/89/56 90/83/56 91/89/56
f 92/84/55 99/89/55 91/89/55
f 85/86/54 100/84/54 92/84/54
f 102/85/70 93/86/70 94/85/70
f 95/87/71 102/85/71 94/85/71
f 96/82/72 103/87/72 95/87/72
f 105/88/73 96/82/73 97/88/73
f 106/83/74 97/88/74 98/83/74
f 99/89/75 106/83/75 98/83/75
f 100/84/76 107/89/76 99/89/76
f 101/86/77 100/84/77 93/86/77
f 69/66/53 70/90/53 72/67/53
f 71/68/54 72/67/54 74/69/54
f 73/70/55 74/69/55 76/71/55
f 76/71/56 78/74/56 77/73/56
f 78/74/57 80/76/57 79/75/57
f 80/76/58 82/78/58 81/77/58
f 82/78/59 84/80/59 83/79/59
f 84/80/60 70/91/60 69/81/60
f 108/84/61 101/86/61 102/85/61
f 102/85/78 103/87/78 104/82/78
f 104/82/78 105/88/78 106/83/78
f 106/83/61 107/89/61 108/84/61
f 108/84/61 102/85/61 104/82/61
f 70/85/62 86/85/62 85/86/62
f 87/87/63 86/85/63 70/85/63
f 88/82/64 87/87/64 84/87/64
f 80/88/65 89/88/65 88/82/65
f 78/83/66 90/83/66 89/88/66
f 91/89/67 90/83/67 78/83/67
f 92/84/68 91/89/68 76/89/68
f 72/86/69 85/86/69 92/84/69
f 94/85/53 93/86/53 85/86/53
f 95/87/60 94/85/60 86/85/60
f 88/82/59 96/82/59 95/87/59
f 89/88/58 97/88/58 96/82/58
f 90/83/57 98/83/57 97/88/57
f 99/89/56 98/83/56 90/83/56
f 92/84/55 100/84/55 99/89/55
f 85/86/54 93/86/54 100/84/54
f 102/85/70 101/86/70 93/86/70
f 95/87/71 103/87/71 102/85/71
f 96/82/72 104/82/72 103/87/72
f 105/88/73 104/82/73 96/82/73
f 106/83/74 105/88/74 97/88/74
f 99/89/75 107/89/75 106/83/75
f 100/84/76 108/84/76 107/89/76
f 101/86/77 108/84/77 100/84/77
