# Blender 4.0.2
# www.blender.org
mtllib CircularSawBlade.mtl
o CircularSawBlade
v 0.017451 -0.000000 -0.130635
v -0.017451 0.000000 -0.130635
v 0.017451 -0.065318 -0.113133
v -0.017451 -0.065318 -0.113133
v 0.017451 -0.113133 -0.065318
v -0.017451 -0.113133 -0.065318
v 0.017451 -0.130635 0.000000
v -0.017451 -0.130635 0.000000
v 0.017451 -0.113133 0.065318
v -0.017451 -0.113133 0.065318
v 0.017451 -0.065318 0.113133
v -0.017451 -0.065318 0.113133
v 0.017451 -0.000000 0.130635
v -0.017451 0.000000 0.130635
v 0.017451 0.065318 0.113133
v -0.017451 0.065318 0.113133
v 0.017451 0.113133 0.065318
v -0.017451 0.113133 0.065318
v 0.017451 0.130635 0.000000
v -0.017451 0.130635 0.000000
v 0.017451 0.113133 -0.065318
v -0.017451 0.113133 -0.065318
v 0.017451 0.065318 -0.113133
v -0.017451 0.065318 -0.113133
vn -0.0000 0.2588 0.9659
vn -0.0000 0.7071 0.7071
vn -0.0000 0.9659 0.2588
vn -0.0000 0.9659 -0.2588
vn -0.0000 0.7071 -0.7071
vn -0.0000 0.2588 -0.9659
vn -0.0000 -0.2588 -0.9659
vn -0.0000 -0.7071 -0.7071
vn -0.0000 -0.9659 -0.2588
vn -0.0000 -0.9659 0.2588
vn 1.0000 -0.0000 -0.0000
vn -0.0000 -0.7071 0.7071
vn -0.0000 -0.2588 0.9659
vn -1.0000 -0.0000 -0.0000
vt 1.000000 1.000000
vt 0.916667 0.500000
vt 1.000000 0.500000
vt 0.916667 1.000000
vt 0.833333 0.500000
vt 0.833333 1.000000
vt 0.750000 0.500000
vt 0.750000 1.000000
vt 0.666667 0.500000
vt 0.583333 1.000000
vt 0.583333 0.500000
vt 0.500000 1.000000
vt 0.500000 0.500000
vt 0.416667 1.000000
vt 0.416667 0.500000
vt 0.333333 1.000000
vt 0.333333 0.500000
vt 0.250000 0.500000
vt 0.250000 1.000000
vt 0.166667 0.500000
vt 0.042154 0.370000
vt 0.250000 0.010000
vt 0.457846 0.370000
vt 0.166667 1.000000
vt 0.083333 0.500000
vt 0.083333 1.000000
vt 0.000000 0.500000
vt 0.990000 0.250000
vt 0.630000 0.042154
vt 0.630000 0.457846
vt 0.666667 1.000000
vt 0.370000 0.457846
vt 0.250000 0.490000
vt 0.130000 0.457846
vt 0.010000 0.250000
vt 0.042154 0.130000
vt 0.130000 0.042154
vt 0.370000 0.042154
vt 0.457846 0.130000
vt 0.490000 0.250000
vt 0.000000 1.000000
vt 0.750000 0.490000
vt 0.870000 0.457846
vt 0.957846 0.370000
vt 0.957846 0.130000
vt 0.870000 0.042154
vt 0.750000 0.010000
vt 0.542154 0.130000
vt 0.510000 0.250000
vt 0.542154 0.370000
s 0
f 2/1/1 3/2/1 1/3/1
f 4/4/2 5/5/2 3/2/2
f 6/6/3 7/7/3 5/5/3
f 8/8/4 9/9/4 7/7/4
f 9/9/5 12/10/5 11/11/5
f 11/11/6 14/12/6 13/13/6
f 13/13/7 16/14/7 15/15/7
f 15/15/8 18/16/8 17/17/8
f 18/16/9 19/18/9 17/17/9
f 20/19/10 21/20/10 19/18/10
f 22/21/11 14/22/11 6/23/11
f 22/24/12 23/25/12 21/20/12
f 24/26/13 1/27/13 23/25/13
f 7/28/14 15/29/14 23/30/14
f 2/1/1 4/4/1 3/2/1
f 4/4/2 6/6/2 5/5/2
f 6/6/3 8/8/3 7/7/3
f 8/8/4 10/31/4 9/9/4
f 9/9/5 10/31/5 12/10/5
f 11/11/6 12/10/6 14/12/6
f 13/13/7 14/12/7 16/14/7
f 15/15/8 16/14/8 18/16/8
f 18/16/9 20/19/9 19/18/9
f 20/19/10 22/24/10 21/20/10
f 6/23/11 4/32/11 2/33/11
f 2/33/11 24/34/11 22/21/11
f 22/21/11 20/35/11 18/36/11
f 18/36/11 16/37/11 14/22/11
f 14/22/11 12/38/11 10/39/11
f 10/39/11 8/40/11 6/23/11
f 6/23/11 2/33/11 22/21/11
f 22/21/11 18/36/11 14/22/11
f 14/22/11 10/39/11 6/23/11
f 22/24/12 24/26/12 23/25/12
f 24/26/13 2/41/13 1/27/13
f 23/30/14 1/42/14 3/43/14
f 3/43/14 5/44/14 7/28/14
f 7/28/14 9/45/14 11/46/14
f 11/46/14 13/47/14 15/29/14
f 15/29/14 17/48/14 19/49/14
f 19/49/14 21/50/14 23/30/14
f 23/30/14 3/43/14 7/28/14
f 7/28/14 11/46/14 15/29/14
f 15/29/14 19/49/14 23/30/14
