# Blender 4.5.14 LTS
# www.blender.org
mtllib ceiling_light.mtl
o ceiling_light
v -0.610000 2.920000 0.310000 1.0000 1.0000 1.0000
v 0.610000 2.920000 0.310000 1.0000 1.0000 1.0000
v -0.610000 3.000000 -0.310000 1.0000 1.0000 1.0000
v -0.610000 2.920000 -0.310000 1.0000 1.0000 1.0000
v -0.610000 3.000000 0.310000 1.0000 1.0000 1.0000
v 0.610000 3.000000 0.310000 1.0000 1.0000 1.0000
v 0.610000 3.000000 -0.310000 1.0000 1.0000 1.0000
v 0.610000 2.920000 -0.310000 1.0000 1.0000 1.0000
vn -0.0000 -0.0000 1.0000
vn -0.0000 -0.0000 -1.0000
vn -1.0000 -0.0000 -0.0000
vn 1.0000 -0.0000 -0.0000
vn -0.0000 1.0000 -0.0000
vn -0.0000 -1.0000 -0.0000
vt 0.937988 0.937988
vt 0.999512 0.937988
vt 0.999512 0.942023
vt 0.937988 0.942023
vt 0.999512 0.945927
vt 0.937988 0.945927
vt 0.999512 0.969254
vt 0.937988 0.969254
vt 0.187988 0.812988
vt 0.218262 0.812988
vt 0.218262 0.874512
vt 0.187988 0.874512
s 0
usemtl props
f 1/1/1 2/2/1 6/3/1 5/4/1
f 8/1/2 4/2/2 3/3/2 7/4/2
f 4/1/3 1/2/3 5/5/3 3/6/3
f 2/1/4 8/2/4 7/5/4 6/6/4
f 5/1/5 6/2/5 7/7/5 3/8/5
f 4/9/6 8/10/6 2/11/6 1/12/6
