# Blender 4.5.14 LTS
# www.blender.org
mtllib crt_monitor.mtl
o crt_monitor
v 0.187500 0.350000 0.000000 0.9882 0.9882 0.9882
v -0.187500 0.050000 0.060000 0.8431 0.8431 0.8431
v -0.187500 0.350000 0.060000 1.0000 1.0000 1.0000
v -0.187500 0.350000 0.000000 0.9843 0.9843 0.9843
v 0.187500 0.050000 0.060000 0.8470 0.8470 0.8470
v 0.187500 0.350000 0.060000 0.9960 0.9960 0.9960
v -0.187500 0.050000 0.000000 0.8353 0.8353 0.8353
v 0.187500 0.050000 0.000000 0.8392 0.8392 0.8392
v 0.082500 0.276000 -0.280000 1.0000 1.0000 1.0000
v -0.082500 0.276000 -0.280000 1.0000 1.0000 1.0000
v 0.150000 0.090000 -0.000000 0.7804 0.7804 0.7804
v 0.082500 0.144000 -0.280000 0.9882 0.9882 0.9882
v -0.150000 0.330000 0.000000 0.8353 0.8353 0.8353
v -0.082500 0.144000 -0.280000 0.9882 0.9882 0.9882
v -0.150000 0.090000 -0.000000 0.7764 0.7764 0.7764
v 0.150000 0.330000 0.000000 0.8353 0.8353 0.8353
v -0.150000 0.097500 0.070000 0.8627 0.8627 0.8627
v 0.150000 0.097500 0.060000 0.7686 0.7686 0.7686
v -0.150000 0.097500 0.060000 0.7725 0.7725 0.7725
v -0.150000 0.322500 0.060000 0.8039 0.8039 0.8039
v -0.150000 0.322500 0.070000 0.9294 0.9294 0.9294
v 0.150000 0.322500 0.070000 0.9215 0.9215 0.9215
v 0.150000 0.322500 0.060000 0.8000 0.8000 0.8000
v 0.150000 0.097500 0.070000 0.8549 0.8549 0.8549
v 0.080000 0.050000 -0.080000 0.8196 0.8196 0.8196
v 0.000000 0.000000 -0.200000 0.8313 0.8313 0.8313
v 0.056569 0.050000 -0.136569 0.8431 0.8431 0.8431
v -0.084853 0.000000 -0.164853 0.8313 0.8313 0.8313
v -0.056569 0.050000 -0.136569 0.8392 0.8392 0.8392
v 0.000000 0.050000 -0.160000 0.8313 0.8313 0.8313
v -0.084853 0.000000 0.004853 0.7804 0.7804 0.7804
v -0.000000 0.050000 0.000000 0.7529 0.7529 0.7529
v 0.084853 0.000000 0.004853 0.7804 0.7804 0.7804
v 0.056569 0.050000 -0.023431 0.7529 0.7529 0.7529
v -0.080000 0.050000 -0.080000 0.8157 0.8157 0.8157
v -0.056569 0.050000 -0.023431 0.7529 0.7529 0.7529
v -0.000000 0.000000 0.040000 0.8039 0.8039 0.8039
v -0.120000 0.000000 -0.080000 0.8196 0.8196 0.8196
v 0.084853 0.000000 -0.164853 0.8353 0.8353 0.8353
v 0.120000 0.000000 -0.080000 0.8235 0.8235 0.8235
v 0.159972 0.087608 0.060000 0.7882 0.7882 0.7882
v 0.151028 0.075298 0.060000 0.7568 0.7568 0.7568
v 0.159972 0.072392 0.060000 0.7451 0.7451 0.7451
v 0.165500 0.080000 0.060000 0.7804 0.7804 0.7804
v 0.159972 0.072392 0.065000 0.8235 0.8235 0.8235
v 0.165500 0.080000 0.065000 0.8666 0.8666 0.8666
v 0.159972 0.087608 0.065000 0.8784 0.8784 0.8784
v 0.151028 0.084702 0.065000 0.8549 0.8549 0.8549
v 0.151028 0.075298 0.065000 0.8313 0.8313 0.8313
v 0.151028 0.084702 0.060000 0.7686 0.7686 0.7686
vn -0.0000 -0.0000 1.0000
vn -0.0000 -0.0000 -1.0000
vn -1.0000 -0.0000 -0.0000
vn 1.0000 -0.0000 -0.0000
vn -0.0000 1.0000 -0.0000
vn -0.0000 -1.0000 -0.0000
vn -0.0000 0.9819 -0.1894
vn -0.0000 -0.9819 -0.1894
vn -0.9722 -0.0000 -0.2344
vn 0.9722 -0.0000 -0.2344
vn 0.7809 0.6247 -0.0000
vn 0.5522 0.6247 -0.5522
vn -0.0000 0.6247 -0.7809
vn -0.5522 0.6247 -0.5522
vn -0.7809 0.6247 -0.0000
vn -0.5522 0.6247 0.5522
vn -0.0000 0.6247 0.7809
vn 0.5522 0.6247 0.5522
vn 0.8090 0.5878 -0.0000
vn -0.3090 0.9511 -0.0000
vn -0.3090 -0.9511 -0.0000
vn 0.8090 -0.5878 -0.0000
vt 0.250488 0.844238
vt 0.280762 0.844238
vt 0.280762 0.868457
vt 0.250488 0.868457
vt 0.256543 0.844238
vt 0.256543 0.874512
vt 0.250488 0.874512
vt 0.280762 0.849082
vt 0.250488 0.849082
vt 0.273950 0.873014
vt 0.257300 0.873014
vt 0.275714 0.844238
vt 0.270038 0.874512
vt 0.256164 0.874512
vt 0.270469 0.844238
vt 0.270469 0.860223
vt 0.250488 0.860223
vt 0.562988 0.852051
vt 0.593262 0.852051
vt 0.593262 0.874512
vt 0.562988 0.874512
vt 0.281738 0.844238
vt 0.312012 0.844238
vt 0.312012 0.866943
vt 0.281738 0.866943
vt 0.282949 0.844238
vt 0.282949 0.871484
vt 0.281738 0.871484
vt 0.312012 0.845247
vt 0.281738 0.845247
vt 0.254272 0.844238
vt 0.254272 0.874512
vt 0.258057 0.844238
vt 0.258057 0.874512
vt 0.261841 0.844238
vt 0.261841 0.874512
vt 0.265625 0.844238
vt 0.265625 0.874512
vt 0.269409 0.844238
vt 0.269409 0.874512
vt 0.273193 0.844238
vt 0.273193 0.874512
vt 0.276978 0.844238
vt 0.276978 0.874512
vt 0.280762 0.874512
vt 0.280762 0.859375
vt 0.276328 0.870078
vt 0.254922 0.870078
vt 0.250488 0.859375
vt 0.254922 0.848672
vt 0.276328 0.848672
vt 0.437988 0.844238
vt 0.444043 0.844238
vt 0.444043 0.874512
vt 0.437988 0.874512
vt 0.450098 0.844238
vt 0.450098 0.874512
vt 0.456152 0.844238
vt 0.456152 0.874512
vt 0.462207 0.844238
vt 0.462207 0.874512
vt 0.468262 0.844238
vt 0.468262 0.874512
vt 0.468262 0.859375
vt 0.456698 0.874512
vt 0.437988 0.868730
vt 0.437988 0.850020
vt 0.456698 0.844238
s 0
usemtl props
f 2/1/1 5/2/1 6/3/1 3/4/1
f 8/1/2 7/2/2 4/3/2 1/4/2
f 7/1/3 2/5/3 3/6/3 4/7/3
f 5/1/4 8/5/4 1/6/4 6/7/4
f 3/1/5 6/2/5 1/8/5 4/9/5
f 7/1/6 8/2/6 5/8/6 2/9/6
f 13/1/7 16/2/7 9/10/7 10/11/7
f 11/1/8 15/2/8 14/10/8 12/11/8
f 15/1/9 13/12/9 10/13/9 14/14/9
f 16/1/10 11/12/10 12/13/10 9/14/10
f 10/1/2 9/15/2 12/16/2 14/17/2
f 15/1/1 11/2/1 16/3/1 13/4/1
f 17/18/1 24/19/1 22/20/1 21/21/1
f 18/22/2 19/23/2 20/24/2 23/25/2
f 19/22/3 17/26/3 21/27/3 20/28/3
f 24/22/4 18/26/4 23/27/4 22/28/4
f 21/22/5 22/23/5 23/29/5 20/30/5
f 19/22/6 18/23/6 24/29/6 17/30/6
s 1
f 40/1/11 39/31/12 27/32/12 25/7/11
f 39/31/12 26/33/13 30/34/13 27/32/12
f 26/33/13 28/35/14 29/36/14 30/34/13
f 28/35/14 38/37/15 35/38/15 29/36/14
f 38/37/15 31/39/16 36/40/16 35/38/15
f 31/39/16 37/41/17 32/42/17 36/40/16
f 37/41/17 33/43/18 34/44/18 32/42/17
f 33/43/18 40/2/11 25/45/11 34/44/18
s 0
f 25/46/5 27/47/5 30/38/5 29/48/5 35/49/5 36/50/5 32/37/5 34/51/5
f 33/47/6 37/38/6 31/48/6 38/49/6 28/50/6 26/37/6 39/51/6 40/46/6
s 1
f 44/52/19 41/53/19 47/54/19 46/55/19
f 41/53/20 50/56/20 48/57/20 47/54/20
f 50/56/3 42/58/3 49/59/3 48/57/3
f 42/58/21 43/60/21 45/61/21 49/59/21
f 43/60/22 44/62/22 46/63/22 45/61/22
s 0
f 46/64/1 47/65/1 48/66/1 49/67/1 45/68/1
f 43/65/2 42/66/2 50/67/2 41/68/2 44/64/2
