# Blender 4.5.14 LTS
# www.blender.org
mtllib cubicle_post.mtl
o cubicle_post
v -0.040000 0.000000 0.040000 0.8000 0.8000 0.8000
v 0.040000 0.000000 0.040000 0.8000 0.8000 0.8000
v -0.040000 1.630000 -0.040000 1.0000 1.0000 1.0000
v -0.040000 0.000000 -0.040000 0.8000 0.8000 0.8000
v -0.040000 1.630000 0.040000 1.0000 1.0000 1.0000
v 0.040000 1.630000 0.040000 1.0000 1.0000 1.0000
v 0.040000 1.630000 -0.040000 1.0000 1.0000 1.0000
v 0.040000 0.000000 -0.040000 0.8039 0.8039 0.8039
vn -0.0000 -0.0000 1.0000
vn -0.0000 -0.0000 -1.0000
vn -1.0000 -0.0000 -0.0000
vn 1.0000 -0.0000 -0.0000
vn -0.0000 1.0000 -0.0000
vn -0.0000 -1.0000 -0.0000
vt 0.375488 0.844238
vt 0.376974 0.844238
vt 0.376974 0.874512
vt 0.375488 0.874512
vt 0.385176 0.844238
vt 0.385176 0.853926
vt 0.375488 0.853926
s 0
usemtl props
f 1/1/1 2/2/1 6/3/1 5/4/1
f 8/1/2 4/2/2 3/3/2 7/4/2
f 4/1/3 1/2/3 5/3/3 3/4/3
f 2/1/4 8/2/4 7/3/4 6/4/4
f 5/1/5 6/5/5 7/6/5 3/7/5
f 4/1/6 8/5/6 2/6/6 1/7/6
