# Blender 4.5.14 LTS
# www.blender.org
mtllib cubicle_desk_corner.mtl
o cubicle_desk_corner
v -0.970000 0.700000 -0.250000 0.9019 0.9019 0.9019
v 0.900000 0.700000 -0.970000 1.0000 1.0000 1.0000
v -0.970000 0.730000 -0.970000 1.0000 1.0000 1.0000
v 0.900000 0.730000 -0.970000 1.0000 1.0000 1.0000
v 0.900000 0.730000 -0.250000 1.0000 1.0000 1.0000
v -0.970000 0.700000 -0.970000 1.0000 1.0000 1.0000
v 0.900000 0.700000 -0.250000 0.9764 0.9764 0.9764
v -0.970000 0.700000 0.900000 1.0000 1.0000 1.0000
v -0.250000 0.700000 -0.250000 0.8745 0.8745 0.8745
v -0.970000 0.730000 -0.250000 0.9019 0.9019 0.9019
v -0.970000 0.730000 0.900000 1.0000 1.0000 1.0000
v -0.250000 0.700000 0.900000 0.9804 0.9804 0.9804
v -0.250000 0.730000 0.900000 1.0000 1.0000 1.0000
v -0.250000 0.730000 -0.250000 0.8784 0.8784 0.8784
v -0.415000 0.580000 -0.350000 0.9294 0.9294 0.9294
v -0.385000 0.580000 -0.350000 0.9294 0.9294 0.9294
v -0.415000 0.700000 -0.350000 0.8000 0.8000 0.8000
v -0.415000 0.700000 -0.950000 0.7960 0.7960 0.7960
v -0.415000 0.580000 -0.950000 0.9647 0.9647 0.9647
v -0.385000 0.580000 -0.950000 0.9686 0.9686 0.9686
v -0.385000 0.700000 -0.950000 0.8000 0.8000 0.8000
v -0.385000 0.700000 -0.350000 0.8000 0.8000 0.8000
v 0.285000 0.580000 -0.350000 0.9529 0.9529 0.9529
v 0.285000 0.700000 -0.350000 0.8000 0.8000 0.8000
v 0.315000 0.580000 -0.950000 0.9764 0.9764 0.9764
v 0.285000 0.580000 -0.950000 0.9764 0.9764 0.9764
v 0.285000 0.700000 -0.950000 0.8039 0.8039 0.8039
v 0.315000 0.700000 -0.950000 0.8000 0.8000 0.8000
v 0.315000 0.700000 -0.350000 0.8000 0.8000 0.8000
v 0.315000 0.580000 -0.350000 0.9529 0.9529 0.9529
v -0.950000 0.580000 0.315000 0.9764 0.9764 0.9764
v -0.950000 0.580000 0.285000 0.9725 0.9725 0.9725
v -0.950000 0.700000 0.315000 0.8039 0.8039 0.8039
v -0.950000 0.700000 0.285000 0.8000 0.8000 0.8000
v -0.350000 0.580000 0.315000 0.9529 0.9529 0.9529
v -0.350000 0.580000 0.285000 0.9490 0.9490 0.9490
v -0.350000 0.700000 0.285000 0.7960 0.7960 0.7960
v -0.350000 0.700000 0.315000 0.8000 0.8000 0.8000
v 0.825000 0.000000 -0.275000 0.7960 0.7960 0.7960
v 0.825000 0.700000 -0.275000 0.8196 0.8196 0.8196
v 0.825000 0.700000 -0.325000 0.8000 0.8000 0.8000
v 0.875000 0.000000 -0.275000 0.8000 0.8000 0.8000
v 0.875000 0.700000 -0.325000 0.8117 0.8117 0.8117
v 0.875000 0.700000 -0.275000 0.8274 0.8274 0.8274
v 0.825000 0.000000 -0.325000 0.8000 0.8000 0.8000
v 0.875000 0.000000 -0.325000 0.8000 0.8000 0.8000
v -0.275000 0.700000 0.875000 0.8274 0.8274 0.8274
v -0.275000 0.000000 0.825000 0.8000 0.8000 0.8000
v -0.325000 0.000000 0.825000 0.8000 0.8000 0.8000
v -0.325000 0.000000 0.875000 0.7960 0.7960 0.7960
v -0.325000 0.700000 0.875000 0.8196 0.8196 0.8196
v -0.275000 0.000000 0.875000 0.8000 0.8000 0.8000
v -0.275000 0.700000 0.825000 0.8117 0.8117 0.8117
v -0.325000 0.700000 0.825000 0.8000 0.8000 0.8000
v -0.506882 0.728748 -0.953881 0.7020 0.7020 0.7020
v -0.456861 0.300681 -0.904058 0.9137 0.9137 0.9137
v -0.443139 0.298757 -0.903922 0.9255 0.9255 0.9255
v -0.493118 0.730328 -0.954065 0.8039 0.8039 0.8039
v -0.450000 0.300562 -0.892020 0.8588 0.8588 0.8588
v -0.600000 0.020000 -0.908000 0.8274 0.8274 0.8274
v -0.606107 0.023272 -0.896000 0.8196 0.8196 0.8196
v -0.500000 0.730924 -0.942054 0.8078 0.8078 0.8078
v -0.593893 0.016728 -0.896000 0.7882 0.7882 0.7882
vn -0.0000 -0.0000 1.0000
vn -0.0000 -0.0000 -1.0000
vn -1.0000 -0.0000 -0.0000
vn 1.0000 -0.0000 -0.0000
vn -0.0000 1.0000 -0.0000
vn -0.0000 -1.0000 -0.0000
vn -0.8642 -0.0424 0.5013
vn -0.0032 -0.1159 -0.9933
vn 0.8631 0.1559 0.4804
vn 0.0072 0.0104 -0.9999
vn 0.2641 -0.1142 0.9577
vn -0.6697 0.3860 -0.6344
vn -0.1147 0.9867 -0.1147
vn -0.4722 -0.8815 -0.0000
vt 0.375488 0.844238
vt 0.405762 0.844238
vt 0.405762 0.844724
vt 0.375488 0.844724
vt 0.405762 0.845500
vt 0.375488 0.845500
vt 0.812988 0.937988
vt 0.874512 0.937988
vt 0.874512 0.961676
vt 0.812988 0.961676
vt 0.405762 0.855894
vt 0.375488 0.855894
vt 0.405762 0.845028
vt 0.375488 0.845028
vt 0.851507 0.937988
vt 0.851507 0.999512
vt 0.812988 0.999512
vt 0.394442 0.844238
vt 0.394442 0.874512
vt 0.375488 0.874512
vt 0.379121 0.844238
vt 0.379121 0.858770
vt 0.375488 0.858770
vt 0.405762 0.850293
vt 0.375488 0.850293
vt 0.377002 0.844238
vt 0.377002 0.874512
vt 0.405762 0.845752
vt 0.375488 0.845752
vt 0.377651 0.844238
vt 0.377651 0.874512
vt 0.381543 0.844238
vt 0.381543 0.850293
vt 0.281738 0.844238
vt 0.291829 0.844238
vt 0.291829 0.859375
vt 0.281738 0.859375
vt 0.301921 0.844238
vt 0.301921 0.859375
vt 0.312012 0.844238
vt 0.312012 0.859375
vt 0.291829 0.874512
vt 0.281738 0.874512
vt 0.301921 0.874512
vt 0.312012 0.874512
vt 0.281738 0.874049
vt 0.296875 0.844238
s 0
usemtl props
f 1/1/1 7/2/1 5/3/1 10/4/1
f 2/1/2 6/2/2 3/3/2 4/4/2
f 6/1/3 1/2/3 10/5/3 3/6/3
f 7/1/4 2/2/4 4/5/4 5/6/4
f 10/7/5 5/8/5 4/9/5 3/10/5
f 6/1/6 2/2/6 7/11/6 1/12/6
f 8/1/1 12/2/1 13/5/1 11/6/1
f 9/1/2 1/2/2 10/5/2 14/6/2
f 1/1/3 8/2/3 11/13/3 10/14/3
f 12/1/4 9/2/4 14/13/4 13/14/4
f 11/7/5 13/15/5 14/16/5 10/17/5
f 1/1/6 9/18/6 12/19/6 8/20/6
f 15/1/1 16/21/1 22/22/1 17/23/1
f 20/1/2 19/21/2 18/22/2 21/23/2
f 19/1/3 15/2/3 17/24/3 18/25/3
f 16/1/4 20/2/4 21/24/4 22/25/4
f 17/1/5 22/26/5 21/27/5 18/20/5
f 19/1/6 20/26/6 16/27/6 15/20/6
f 23/1/1 30/21/1 29/22/1 24/23/1
f 25/1/2 26/21/2 27/22/2 28/23/2
f 26/1/3 23/2/3 24/24/3 27/25/3
f 30/1/4 25/2/4 28/24/4 29/25/4
f 24/1/5 29/26/5 28/27/5 27/20/5
f 26/1/6 25/26/6 30/27/6 23/20/6
f 31/1/1 35/2/1 38/24/1 33/25/1
f 36/1/2 32/2/2 34/24/2 37/25/2
f 32/1/3 31/21/3 33/22/3 34/23/3
f 35/1/4 36/21/4 37/22/4 38/23/4
f 33/1/5 38/2/5 37/28/5 34/29/5
f 32/1/6 36/2/6 35/28/6 31/29/6
f 39/1/1 42/30/1 44/31/1 40/20/1
f 46/1/2 45/30/2 41/31/2 43/20/2
f 45/1/3 39/30/3 40/31/3 41/20/3
f 42/1/4 46/30/4 43/31/4 44/20/4
f 40/1/5 44/32/5 43/33/5 41/25/5
f 45/1/6 46/32/6 42/33/6 39/25/6
f 50/1/1 52/30/1 47/31/1 51/20/1
f 48/1/2 49/30/2 54/31/2 53/20/2
f 49/1/3 50/30/3 51/31/3 54/20/3
f 52/1/4 48/30/4 53/31/4 47/20/4
f 51/1/5 47/32/5 53/33/5 54/25/5
f 49/1/6 48/32/6 52/33/6 50/25/6
s 1
f 62/34/7 55/35/7 56/36/7 59/37/7
f 55/35/8 58/38/8 57/39/8 56/36/8
f 58/38/9 62/40/9 59/41/9 57/39/9
f 59/37/10 56/36/10 63/42/10 60/43/10
f 56/36/11 57/39/11 61/44/11 63/42/11
f 57/39/12 59/41/12 60/45/12 61/44/12
s 0
f 58/45/13 55/46/13 62/47/13
f 60/47/14 63/45/14 61/43/14
