# Blender 4.5.14 LTS
# www.blender.org
mtllib cubicle_panel.mtl
o cubicle_panel
v -1.000000 0.000000 0.030000 0.7725 0.7725 0.7725
v -1.000000 1.000000 -0.030000 1.0000 1.0000 1.0000
v 0.000000 1.000000 -0.030000 1.0000 1.0000 1.0000
v 0.000000 0.000000 -0.030000 0.7020 0.7020 0.7020
v 0.000000 0.000000 0.030000 0.7020 0.7020 0.7020
v 1.000000 0.000000 0.030000 0.7764 0.7764 0.7764
v 0.000000 1.000000 0.030000 1.0000 1.0000 1.0000
v 0.000000 1.600000 -0.030000 0.8274 0.8274 0.8274
v -1.000000 1.600000 -0.030000 0.8862 0.8862 0.8862
v 0.000000 1.600000 0.030000 0.8313 0.8313 0.8313
v 1.000000 1.600000 0.030000 0.8862 0.8862 0.8862
v 1.000000 1.600000 -0.030000 0.8862 0.8862 0.8862
v 1.000000 0.000000 -0.030000 0.7764 0.7764 0.7764
v 1.000000 1.000000 -0.030000 1.0000 1.0000 1.0000
v 1.000000 1.000000 0.030000 1.0000 1.0000 1.0000
v -1.000000 0.000000 -0.030000 0.7725 0.7725 0.7725
v -1.000000 1.000000 0.030000 1.0000 1.0000 1.0000
v -1.000000 1.600000 0.030000 0.8862 0.8862 0.8862
v 1.000000 0.000000 0.035000 0.8000 0.8000 0.8000
v 1.000000 0.080000 0.035000 0.8666 0.8666 0.8666
v -1.000000 0.080000 -0.035000 0.8706 0.8706 0.8706
v -1.000000 0.080000 0.035000 0.8627 0.8627 0.8627
v 1.000000 0.080000 -0.035000 0.8706 0.8706 0.8706
v -1.000000 0.000000 -0.035000 0.7960 0.7960 0.7960
v 1.000000 0.000000 -0.035000 0.8000 0.8000 0.8000
v -1.000000 0.000000 0.035000 0.7960 0.7960 0.7960
v -1.000000 1.599500 0.035000 0.9529 0.9529 0.9529
v -1.000000 1.599500 -0.035000 0.9490 0.9490 0.9490
v -1.000000 1.624500 -0.035000 1.0000 1.0000 1.0000
v 1.000000 1.599500 -0.035000 0.9490 0.9490 0.9490
v 1.000000 1.624500 -0.035000 1.0000 1.0000 1.0000
v -1.000000 1.624500 0.035000 1.0000 1.0000 1.0000
v 1.000000 1.624500 0.035000 1.0000 1.0000 1.0000
v 1.000000 1.599500 0.035000 0.9490 0.9490 0.9490
vn -0.0000 -0.0000 1.0000
vn -0.0000 -0.0000 -1.0000
vn -0.0000 1.0000 -0.0000
vn 1.0000 -0.0000 -0.0000
vn -1.0000 -0.0000 -0.0000
vn -0.0000 -1.0000 -0.0000
vt 0.250488 0.875488
vt 0.374512 0.875488
vt 0.374512 0.999512
vt 0.250488 0.999512
vt 0.374512 0.949902
vt 0.250488 0.949902
vt 0.375488 0.844238
vt 0.405762 0.844238
vt 0.405762 0.846055
vt 0.375488 0.846055
vt 0.257930 0.875488
vt 0.257930 0.999512
vt 0.257930 0.949902
vt 0.405762 0.845449
vt 0.375488 0.845449
vt 0.383965 0.844238
vt 0.383965 0.853926
vt 0.375488 0.853926
vt 0.405762 0.845298
vt 0.375488 0.845298
vt 0.405762 0.844617
vt 0.375488 0.844617
vt 0.383965 0.847266
vt 0.375488 0.847266
s 0
usemtl props
f 1/1/1 5/2/1 7/3/1 17/4/1
f 2/3/2 3/4/2 4/1/2 16/2/2
f 17/1/1 7/2/1 10/5/1 18/6/1
f 9/5/2 8/6/2 3/1/2 2/2/2
f 5/1/1 6/2/1 15/3/1 7/4/1
f 3/3/2 14/4/2 13/1/2 4/2/2
f 7/1/1 15/2/1 11/5/1 10/6/1
f 8/5/2 12/6/2 14/1/2 3/2/2
f 18/7/3 10/8/3 8/9/3 9/10/3
f 10/7/3 11/8/3 12/9/3 8/10/3
f 6/1/4 13/11/4 14/12/4 15/4/4
f 15/1/4 14/11/4 12/13/4 11/6/4
f 16/1/5 1/11/5 17/12/5 2/4/5
f 2/1/5 17/11/5 18/13/5 9/6/5
f 26/7/1 19/8/1 20/14/1 22/15/1
f 25/7/2 24/8/2 21/14/2 23/15/2
f 24/7/5 26/16/5 22/17/5 21/18/5
f 19/7/4 25/16/4 23/17/4 20/18/4
f 22/7/3 20/8/3 23/19/3 21/20/3
f 24/7/6 25/8/6 19/19/6 26/20/6
f 27/7/1 34/8/1 33/21/1 32/22/1
f 30/7/2 28/8/2 29/21/2 31/22/2
f 28/7/5 27/16/5 32/23/5 29/24/5
f 34/7/4 30/16/4 31/23/4 33/24/4
f 32/7/3 33/8/3 31/19/3 29/20/3
f 28/7/6 30/8/6 34/19/6 27/20/6
