# Blender 4.5.14 LTS
# www.blender.org
mtllib overhead_bin.mtl
o overhead_bin
v 0.600000 1.580000 0.020000 0.8000 0.8000 0.8000
v -0.600000 1.580000 0.020000 0.8000 0.8000 0.8000
v 0.600000 1.580000 0.000000 0.7960 0.7960 0.7960
v 0.600000 1.200000 0.020000 0.8000 0.8000 0.8000
v -0.600000 1.200000 0.020000 0.8039 0.8039 0.8039
v -0.600000 1.200000 0.000000 0.8000 0.8000 0.8000
v -0.600000 1.580000 0.000000 0.8000 0.8000 0.8000
v -0.580000 1.200000 0.360000 0.8627 0.8627 0.8627
v -0.580000 1.200000 0.000000 0.7490 0.7490 0.7490
v -0.580000 1.580000 0.000000 0.7490 0.7490 0.7490
v -0.600000 1.580000 0.360000 0.9686 0.9686 0.9686
v -0.580000 1.580000 0.360000 0.8666 0.8666 0.8666
v 0.580000 1.580000 0.360000 0.8627 0.8627 0.8627
v 0.580000 1.580000 0.000000 0.7490 0.7490 0.7490
v 0.600000 1.580000 0.360000 0.9647 0.9647 0.9647
v 0.580000 1.200000 0.000000 0.7490 0.7490 0.7490
v 0.600000 1.200000 0.000000 0.7960 0.7960 0.7960
v 0.580000 1.200000 0.360000 0.8627 0.8627 0.8627
v 0.600000 1.560000 0.360000 0.7882 0.7882 0.7882
v 0.600000 1.560000 0.000000 0.7490 0.7490 0.7490
v -0.600000 1.560000 0.000000 0.7529 0.7529 0.7529
v -0.600000 1.560000 0.360000 0.7882 0.7882 0.7882
v 0.600000 1.220000 0.360000 0.7882 0.7882 0.7882
v -0.600000 1.200000 0.360000 0.9686 0.9686 0.9686
v -0.600000 1.220000 0.360000 0.7882 0.7882 0.7882
v -0.600000 1.220000 0.000000 0.7529 0.7529 0.7529
v 0.600000 1.220000 0.000000 0.7490 0.7490 0.7490
v 0.600000 1.200000 0.360000 0.9647 0.9647 0.9647
v -0.550000 1.195000 0.310000 0.7686 0.7686 0.7686
v -0.550000 1.165000 0.310000 0.8784 0.8784 0.8784
v -0.550000 1.165000 0.330000 0.9372 0.9372 0.9372
v -0.550000 1.195000 0.330000 0.8039 0.8039 0.8039
v 0.550000 1.195000 0.330000 0.8078 0.8078 0.8078
v 0.550000 1.195000 0.310000 0.7686 0.7686 0.7686
v 0.550000 1.165000 0.310000 0.8784 0.8784 0.8784
v 0.550000 1.165000 0.330000 0.9411 0.9411 0.9411
v -0.513578 1.452381 0.319165 0.7059 0.7059 0.7059
v -0.513578 1.220000 0.080835 0.7059 0.7059 0.7059
v -0.513578 1.452381 0.080835 0.7059 0.7059 0.7059
v -0.550000 1.452381 0.319165 0.7020 0.7020 0.7020
v -0.550000 1.452381 0.080835 0.7020 0.7020 0.7020
v -0.513578 1.220000 0.319165 0.7020 0.7020 0.7020
v -0.550000 1.220000 0.080835 0.7020 0.7020 0.7020
v -0.550000 1.220000 0.319165 0.7020 0.7020 0.7020
v -0.508050 1.229650 0.301596 0.7020 0.7020 0.7020
v -0.508050 1.229650 0.098404 0.7020 0.7020 0.7020
v -0.428819 1.372446 0.098404 0.7059 0.7059 0.7059
v -0.458517 1.382096 0.301596 0.7020 0.7020 0.7020
v -0.458517 1.382096 0.098404 0.7020 0.7020 0.7020
v -0.428819 1.372446 0.301596 0.7020 0.7020 0.7020
v -0.478351 1.220000 0.098404 0.7059 0.7059 0.7059
v -0.478351 1.220000 0.301596 0.7020 0.7020 0.7020
v -0.363681 1.411799 0.300037 0.7020 0.7020 0.7020
v -0.392301 1.220000 0.099963 0.7020 0.7020 0.7020
v -0.363681 1.411799 0.099963 0.7020 0.7020 0.7020
v -0.392301 1.220000 0.300037 0.7020 0.7020 0.7020
v -0.333199 1.401895 0.099963 0.7020 0.7020 0.7020
v -0.333199 1.401895 0.300037 0.7020 0.7020 0.7020
v -0.422783 1.229904 0.099963 0.7020 0.7020 0.7020
v -0.422783 1.229904 0.300037 0.7020 0.7020 0.7020
v -0.359016 1.220000 0.301542 0.7020 0.7020 0.7020
v -0.388301 1.220000 0.098458 0.7020 0.7020 0.7020
v -0.359016 1.412269 0.098458 0.7020 0.7020 0.7020
v -0.388301 1.220000 0.301542 0.7020 0.7020 0.7020
v -0.388301 1.412269 0.098458 0.7020 0.7020 0.7020
v -0.359016 1.220000 0.098458 0.7020 0.7020 0.7020
v -0.359016 1.412269 0.301542 0.7020 0.7020 0.7020
v -0.388301 1.412269 0.301542 0.7020 0.7020 0.7020
v -0.355016 1.220000 0.310134 0.7020 0.7020 0.7020
v -0.305765 1.220000 0.089866 0.7020 0.7020 0.7020
v -0.355016 1.397480 0.089866 0.7020 0.7020 0.7020
v -0.305765 1.397480 0.089866 0.7020 0.7020 0.7020
v -0.355016 1.220000 0.089866 0.7020 0.7020 0.7020
v -0.305765 1.220000 0.310134 0.7020 0.7020 0.7020
v -0.355016 1.397480 0.310134 0.7020 0.7020 0.7020
v -0.305765 1.397480 0.310134 0.7020 0.7020 0.7020
v -0.301765 1.220000 0.297966 0.7020 0.7020 0.7020
v -0.274922 1.425829 0.297966 0.7020 0.7020 0.7020
v -0.301765 1.425829 0.297966 0.7020 0.7020 0.7020
v -0.274922 1.220000 0.102034 0.7020 0.7020 0.7020
v -0.301765 1.425829 0.102034 0.7020 0.7020 0.7020
v -0.274922 1.425829 0.102034 0.7020 0.7020 0.7020
v -0.301765 1.220000 0.102034 0.7020 0.7020 0.7020
v -0.274922 1.220000 0.297966 0.7020 0.7020 0.7020
v -0.237067 1.220000 0.306054 0.7020 0.7020 0.7020
v -0.237067 1.406056 0.306054 0.7020 0.7020 0.7020
v -0.270922 1.406056 0.306054 0.7020 0.7020 0.7020
v -0.270922 1.220000 0.093946 0.7020 0.7020 0.7020
v -0.270922 1.406056 0.093946 0.7020 0.7020 0.7020
v -0.237067 1.220000 0.093946 0.7020 0.7020 0.7020
v -0.237067 1.406056 0.093946 0.7020 0.7020 0.7020
v -0.270922 1.220000 0.306054 0.7020 0.7020 0.7020
v -0.204665 1.438087 0.312763 0.7020 0.7020 0.7020
v -0.233067 1.220000 0.087237 0.7020 0.7020 0.7020
v -0.233067 1.438087 0.087237 0.7020 0.7020 0.7020
v -0.233067 1.220000 0.312763 0.7020 0.7020 0.7020
v -0.233067 1.438087 0.312763 0.7020 0.7020 0.7020
v -0.204665 1.220000 0.312763 0.7020 0.7020 0.7020
v -0.204665 1.438087 0.087237 0.7059 0.7059 0.7059
v -0.204665 1.220000 0.087237 0.7059 0.7059 0.7059
v -0.148569 1.220000 0.302461 0.7020 0.7020 0.7020
v -0.148569 1.220000 0.097539 0.7020 0.7020 0.7020
v -0.200665 1.220000 0.097539 0.7020 0.7020 0.7020
v -0.200665 1.458993 0.302461 0.7020 0.7020 0.7020
v -0.148569 1.458993 0.302461 0.7020 0.7020 0.7020
v -0.148569 1.458993 0.097539 0.7059 0.7059 0.7059
v -0.200665 1.458993 0.097539 0.7020 0.7020 0.7020
v -0.200665 1.220000 0.302461 0.7020 0.7020 0.7020
v -0.100937 1.220000 0.303313 0.7020 0.7020 0.7020
v -0.142433 1.233483 0.303313 0.7020 0.7020 0.7020
v -0.063915 1.475137 0.303313 0.7098 0.7098 0.7098
v -0.022419 1.461655 0.303313 0.7176 0.7176 0.7176
v -0.022419 1.461655 0.096687 0.7176 0.7176 0.7176
v -0.063915 1.475137 0.096687 0.7098 0.7098 0.7098
v -0.142433 1.233483 0.096687 0.7020 0.7020 0.7020
v -0.100937 1.220000 0.096687 0.7020 0.7020 0.7020
v -0.048187 1.220000 0.306110 0.7020 0.7020 0.7020
v 0.006039 1.386891 0.306110 0.7020 0.7020 0.7020
v -0.094551 1.235065 0.093890 0.7020 0.7020 0.7020
v -0.094551 1.235065 0.306110 0.7020 0.7020 0.7020
v -0.040325 1.401955 0.093890 0.7020 0.7020 0.7020
v -0.040325 1.401955 0.306110 0.7020 0.7020 0.7020
v 0.006039 1.386891 0.093890 0.7020 0.7020 0.7020
v -0.048187 1.220000 0.093890 0.7020 0.7020 0.7020
v 0.005382 1.405475 0.308571 0.7020 0.7020 0.7020
v 0.005382 1.220000 0.091429 0.7020 0.7020 0.7020
v -0.044187 1.220000 0.091429 0.7020 0.7020 0.7020
v -0.044187 1.405475 0.308571 0.7059 0.7059 0.7059
v -0.044187 1.405475 0.091429 0.7020 0.7020 0.7020
v 0.005382 1.220000 0.308571 0.7020 0.7020 0.7020
v 0.005382 1.405475 0.091429 0.7020 0.7020 0.7020
v -0.044187 1.220000 0.308571 0.7020 0.7020 0.7020
v 0.009382 1.412119 0.317282 0.7059 0.7059 0.7059
v 0.009382 1.220000 0.082718 0.7059 0.7059 0.7059
v 0.009382 1.220000 0.317282 0.7020 0.7020 0.7020
v 0.044729 1.220000 0.317282 0.7176 0.7176 0.7176
v 0.044729 1.412119 0.082718 0.7137 0.7137 0.7137
v 0.044729 1.412119 0.317282 0.7176 0.7176 0.7176
v 0.009382 1.412119 0.082718 0.7020 0.7020 0.7020
v 0.044729 1.220000 0.082718 0.7176 0.7176 0.7176
vn -0.0000 -0.0000 1.0000
vn -0.0000 -0.0000 -1.0000
vn -1.0000 -0.0000 -0.0000
vn 1.0000 -0.0000 -0.0000
vn -0.0000 1.0000 -0.0000
vn -0.0000 -1.0000 -0.0000
vn -0.9511 0.3090 -0.0000
vn 0.9511 -0.3090 -0.0000
vn 0.3090 0.9511 -0.0000
vn -0.3090 -0.9511 -0.0000
vt 0.375488 0.844238
vt 0.405762 0.844238
vt 0.405762 0.853825
vt 0.375488 0.853825
vt 0.377082 0.844238
vt 0.377082 0.874512
vt 0.375488 0.874512
vt 0.405762 0.844743
vt 0.375488 0.844743
vt 0.404168 0.844238
vt 0.404168 0.874512
vt 0.377170 0.844238
vt 0.377170 0.874512
vt 0.405762 0.845920
vt 0.375488 0.845920
vt 0.405762 0.853320
vt 0.375488 0.853320
vt 0.187988 0.812988
vt 0.218262 0.812988
vt 0.218262 0.813827
vt 0.187988 0.813827
vt 0.190410 0.812988
vt 0.190410 0.816680
vt 0.187988 0.816680
vt 0.218262 0.813548
vt 0.187988 0.813548
vt 0.469238 0.844238
vt 0.473649 0.844238
vt 0.473649 0.872378
vt 0.469238 0.872378
vt 0.498099 0.844238
vt 0.498099 0.872378
vt 0.473649 0.873099
vt 0.469238 0.873099
vt 0.500488 0.844238
vt 0.504270 0.844238
vt 0.504270 0.863649
vt 0.500488 0.863649
vt 0.525094 0.844238
vt 0.525094 0.863649
vt 0.504270 0.868844
vt 0.500488 0.868844
vt 0.062988 0.812988
vt 0.066932 0.812988
vt 0.066932 0.836522
vt 0.062988 0.836522
vt 0.087607 0.812988
vt 0.087607 0.836522
vt 0.066932 0.837607
vt 0.062988 0.837607
vt 0.066592 0.812988
vt 0.066592 0.836646
vt 0.062988 0.836646
vt 0.087977 0.812988
vt 0.087977 0.836646
vt 0.066592 0.837977
vt 0.062988 0.837977
vt 0.506452 0.844238
vt 0.506452 0.865730
vt 0.500488 0.865730
vt 0.527161 0.844238
vt 0.527161 0.865730
vt 0.506452 0.870911
vt 0.500488 0.870911
vt 0.503739 0.844238
vt 0.503739 0.869163
vt 0.500488 0.869163
vt 0.524214 0.844238
vt 0.524214 0.869163
vt 0.503739 0.867964
vt 0.500488 0.867964
vt 0.531738 0.844238
vt 0.535838 0.844238
vt 0.535838 0.866768
vt 0.531738 0.866768
vt 0.557423 0.844238
vt 0.557423 0.866768
vt 0.535838 0.869923
vt 0.531738 0.869923
vt 0.000488 0.812988
vt 0.003983 0.812988
vt 0.003983 0.839823
vt 0.000488 0.839823
vt 0.028238 0.812988
vt 0.028238 0.839823
vt 0.003983 0.840738
vt 0.000488 0.840738
vt 0.538047 0.844238
vt 0.538047 0.873179
vt 0.531738 0.873179
vt 0.556553 0.844238
vt 0.556553 0.873179
vt 0.538047 0.869053
vt 0.531738 0.869053
vt 0.068357 0.812988
vt 0.068357 0.844253
vt 0.062988 0.844253
vt 0.088413 0.812988
vt 0.088413 0.844253
vt 0.068357 0.838413
vt 0.062988 0.838413
vt 0.506392 0.844238
vt 0.506392 0.865488
vt 0.500488 0.865488
vt 0.526187 0.844238
vt 0.526187 0.865488
vt 0.506392 0.869937
vt 0.500488 0.869937
vt 0.537741 0.844238
vt 0.537741 0.866698
vt 0.531738 0.866698
vt 0.558033 0.844238
vt 0.558033 0.866698
vt 0.537741 0.870533
vt 0.531738 0.870533
vt 0.067338 0.812988
vt 0.067338 0.836628
vt 0.062988 0.836628
vt 0.091851 0.812988
vt 0.091851 0.836628
vt 0.067338 0.841851
vt 0.062988 0.841851
s 0
usemtl props
f 5/1/1 4/2/1 1/3/1 2/4/1
f 17/1/2 6/2/2 7/3/2 3/4/2
f 6/1/3 5/5/3 2/6/3 7/7/3
f 4/1/4 17/5/4 3/6/4 1/7/4
f 2/1/5 1/2/5 3/8/5 7/9/5
f 6/1/6 17/2/6 4/8/6 5/9/6
f 24/1/1 8/5/1 12/6/1 11/7/1
f 9/1/2 6/5/2 7/6/2 10/7/2
f 6/1/3 24/10/3 11/11/3 7/7/3
f 8/1/4 9/10/4 10/11/4 12/7/4
f 11/1/5 12/12/5 10/13/5 7/7/5
f 6/1/6 9/12/6 8/13/6 24/7/6
f 18/1/1 28/5/1 15/6/1 13/7/1
f 17/1/2 16/5/2 14/6/2 3/7/2
f 16/1/3 18/10/3 13/11/3 14/7/3
f 28/1/4 17/10/4 3/11/4 15/7/4
f 13/1/5 15/12/5 3/13/5 14/7/5
f 16/1/6 17/12/6 28/13/6 18/7/6
f 22/1/1 19/2/1 15/8/1 11/9/1
f 20/1/2 21/2/2 7/8/2 3/9/2
f 21/1/3 22/2/3 11/14/3 7/15/3
f 19/1/4 20/2/4 3/14/4 15/15/4
f 11/1/5 15/2/5 3/16/5 7/17/5
f 21/1/6 20/2/6 19/16/6 22/17/6
f 24/1/1 28/2/1 23/8/1 25/9/1
f 17/1/2 6/2/2 26/8/2 27/9/2
f 6/1/3 24/2/3 25/14/3 26/15/3
f 28/1/4 17/2/4 27/14/4 23/15/4
f 25/1/5 23/2/5 27/16/5 26/17/5
f 6/1/6 17/2/6 28/16/6 24/17/6
f 31/18/1 36/19/1 33/20/1 32/21/1
f 35/18/2 30/19/2 29/20/2 34/21/2
f 30/18/3 31/22/3 32/23/3 29/24/3
f 36/18/4 35/22/4 34/23/4 33/24/4
f 32/18/5 33/19/5 34/25/5 29/26/5
f 30/18/6 35/19/6 36/25/6 31/26/6
f 44/27/1 42/28/1 37/29/1 40/30/1
f 38/27/2 43/28/2 41/29/2 39/30/2
f 43/27/3 44/31/3 40/32/3 41/30/3
f 42/27/4 38/31/4 39/32/4 37/30/4
f 40/27/5 37/28/5 39/33/5 41/34/5
f 43/27/6 38/28/6 42/33/6 44/34/6
f 45/35/1 52/36/1 50/37/1 48/38/1
f 51/35/2 46/36/2 49/37/2 47/38/2
f 46/35/7 45/39/7 48/40/7 49/38/7
f 52/35/8 51/39/8 47/40/8 50/38/8
f 48/35/9 50/36/9 47/41/9 49/42/9
f 46/35/10 51/36/10 52/41/10 45/42/10
f 60/43/1 56/44/1 58/45/1 53/46/1
f 54/43/2 59/44/2 55/45/2 57/46/2
f 59/43/7 60/47/7 53/48/7 55/46/7
f 56/43/8 54/47/8 57/48/8 58/46/8
f 53/43/9 58/44/9 57/49/9 55/50/9
f 59/43/10 54/44/10 56/49/10 60/50/10
f 64/43/1 61/51/1 67/52/1 68/53/1
f 66/43/2 62/51/2 65/52/2 63/53/2
f 62/43/3 64/54/3 68/55/3 65/53/3
f 61/43/4 66/54/4 63/55/4 67/53/4
f 68/43/5 67/51/5 63/56/5 65/57/5
f 62/43/6 66/51/6 61/56/6 64/57/6
f 69/35/1 74/58/1 76/59/1 75/60/1
f 70/35/2 73/58/2 71/59/2 72/60/2
f 73/35/3 69/61/3 75/62/3 71/60/3
f 74/35/4 70/61/4 72/62/4 76/60/4
f 75/35/5 76/58/5 72/63/5 71/64/5
f 73/35/6 70/58/6 74/63/6 69/64/6
f 77/35/1 84/65/1 78/66/1 79/67/1
f 80/35/2 83/65/2 81/66/2 82/67/2
f 83/35/3 77/68/3 79/69/3 81/67/3
f 84/35/4 80/68/4 82/69/4 78/67/4
f 79/35/5 78/65/5 82/70/5 81/71/5
f 83/35/6 80/65/6 84/70/6 77/71/6
f 92/72/1 85/73/1 86/74/1 87/75/1
f 90/72/2 88/73/2 89/74/2 91/75/2
f 88/72/3 92/76/3 87/77/3 89/75/3
f 85/72/4 90/76/4 91/77/4 86/75/4
f 87/72/5 86/73/5 91/78/5 89/79/5
f 88/72/6 90/73/6 85/78/6 92/79/6
f 96/80/1 98/81/1 93/82/1 97/83/1
f 100/80/2 94/81/2 95/82/2 99/83/2
f 94/80/3 96/84/3 97/85/3 95/83/3
f 98/80/4 100/84/4 99/85/4 93/83/4
f 97/80/5 93/81/5 99/86/5 95/87/5
f 94/80/6 100/81/6 98/86/6 96/87/6
f 108/72/1 101/88/1 105/89/1 104/90/1
f 102/72/2 103/88/2 107/89/2 106/90/2
f 103/72/3 108/91/3 104/92/3 107/90/3
f 101/72/4 102/91/4 106/92/4 105/90/4
f 104/72/5 105/88/5 106/93/5 107/94/5
f 103/72/6 102/88/6 101/93/6 108/94/6
f 110/43/1 109/95/1 112/96/1 111/97/1
f 116/43/2 115/95/2 114/96/2 113/97/2
f 115/43/7 110/98/7 111/99/7 114/97/7
f 109/43/8 116/98/8 113/99/8 112/97/8
f 111/43/9 112/95/9 113/100/9 114/101/9
f 115/43/10 116/95/10 109/100/10 110/101/10
f 120/35/1 117/102/1 118/103/1 122/104/1
f 124/35/2 119/102/2 121/103/2 123/104/2
f 119/35/7 120/105/7 122/106/7 121/104/7
f 117/35/8 124/105/8 123/106/8 118/104/8
f 122/35/9 118/102/9 123/107/9 121/108/9
f 119/35/10 124/102/10 117/107/10 120/108/10
f 132/72/1 130/109/1 125/110/1 128/111/1
f 126/72/2 127/109/2 129/110/2 131/111/2
f 127/72/3 132/112/3 128/113/3 129/111/3
f 130/72/4 126/112/4 131/113/4 125/111/4
f 128/72/5 125/109/5 131/114/5 129/115/5
f 127/72/6 126/109/6 130/114/6 132/115/6
f 135/43/1 136/116/1 138/117/1 133/118/1
f 140/43/2 134/116/2 139/117/2 137/118/2
f 134/43/3 135/119/3 133/120/3 139/118/3
f 136/43/4 140/119/4 137/120/4 138/118/4
f 133/43/5 138/116/5 137/121/5 139/122/5
f 134/43/6 140/116/6 136/121/6 135/122/6
o overhead_bin_door
v -0.590000 1.210000 0.370000 0.9686 0.9686 0.9686
v 0.590000 1.210000 0.370000 0.9647 0.9647 0.9647
v -0.590000 1.570000 0.350000 0.7020 0.7020 0.7020
v -0.590000 1.210000 0.350000 0.7020 0.7020 0.7020
v -0.590000 1.570000 0.370000 0.9647 0.9647 0.9647
v 0.590000 1.570000 0.370000 0.9647 0.9647 0.9647
v 0.590000 1.570000 0.350000 0.7020 0.7020 0.7020
v 0.590000 1.210000 0.350000 0.7020 0.7020 0.7020
vn -0.0000 -0.0000 1.0000
vn -0.0000 -0.0000 -1.0000
vn -1.0000 -0.0000 -0.0000
vn 1.0000 -0.0000 -0.0000
vn -0.0000 1.0000 -0.0000
vn -0.0000 -1.0000 -0.0000
vt 0.594238 0.859863
vt 0.655762 0.859863
vt 0.655762 0.874512
vt 0.594238 0.874512
vt 0.375488 0.844238
vt 0.405762 0.844238
vt 0.405762 0.853474
vt 0.375488 0.853474
vt 0.377170 0.844238
vt 0.377170 0.874512
vt 0.375488 0.874512
vt 0.405762 0.844751
vt 0.375488 0.844751
s 0
usemtl props
f 141/123/11 142/124/11 146/125/11 145/126/11
f 148/127/12 144/128/12 143/129/12 147/130/12
f 144/127/13 141/131/13 145/132/13 143/133/13
f 142/127/14 148/131/14 147/132/14 146/133/14
f 145/127/15 146/128/15 147/134/15 143/135/15
f 144/127/16 148/128/16 142/134/16 141/135/16
