# Blender 4.5.14 LTS
# www.blender.org
mtllib task_chair.mtl
o task_chair
v 0.300000 0.070000 0.020000 0.8157 0.8157 0.8157
v 0.300000 0.110000 0.020000 0.8902 0.8902 0.8902
v 0.000000 0.110000 0.020000 0.7020 0.7020 0.7020
v 0.300000 0.070000 -0.020000 0.8196 0.8196 0.8196
v 0.000000 0.070000 -0.020000 0.7020 0.7020 0.7020
v 0.000000 0.110000 -0.020000 0.7020 0.7020 0.7020
v 0.300000 0.110000 -0.020000 0.8980 0.8980 0.8980
v 0.000000 0.070000 0.020000 0.7020 0.7020 0.7020
v 0.312500 0.051651 0.015000 0.8941 0.8941 0.8941
v 0.287500 0.051651 0.045000 0.8549 0.8549 0.8549
v 0.287500 0.051651 0.015000 0.8117 0.8117 0.8117
v 0.275000 0.030000 0.015000 0.7921 0.7921 0.7921
v 0.275000 0.030000 0.045000 0.8000 0.8000 0.8000
v 0.287500 0.008349 0.015000 0.7529 0.7529 0.7529
v 0.312500 0.008349 0.045000 0.7764 0.7764 0.7764
v 0.325000 0.030000 0.015000 0.8470 0.8470 0.8470
v 0.325000 0.030000 0.045000 0.8470 0.8470 0.8470
v 0.312500 0.051651 0.045000 0.9019 0.9019 0.9019
v 0.287500 0.008349 0.045000 0.7608 0.7608 0.7608
v 0.312500 0.008349 0.015000 0.7725 0.7725 0.7725
v 0.019021 0.110000 0.006180 0.7020 0.7020 0.7020
v 0.073684 0.070000 -0.291497 0.8157 0.8157 0.8157
v -0.019021 0.070000 -0.006180 0.7020 0.7020 0.7020
v 0.019021 0.070000 0.006180 0.7020 0.7020 0.7020
v -0.019021 0.110000 -0.006180 0.7020 0.7020 0.7020
v 0.111726 0.070000 -0.279137 0.8157 0.8157 0.8157
v 0.073684 0.110000 -0.291497 0.8941 0.8941 0.8941
v 0.111726 0.110000 -0.279137 0.8902 0.8902 0.8902
v 0.105205 0.051651 -0.240317 0.8431 0.8431 0.8431
v 0.117705 0.030000 -0.240317 0.8313 0.8313 0.8313
v 0.105205 0.051651 -0.270317 0.8666 0.8666 0.8666
v 0.080205 0.051651 -0.270317 0.8274 0.8274 0.8274
v 0.067705 0.030000 -0.270317 0.8313 0.8313 0.8313
v 0.080205 0.051651 -0.240317 0.7764 0.7764 0.7764
v 0.080205 0.008349 -0.270317 0.7686 0.7686 0.7686
v 0.080205 0.008349 -0.240317 0.7529 0.7529 0.7529
v 0.067705 0.030000 -0.240317 0.8078 0.8078 0.8078
v 0.105205 0.008349 -0.270317 0.7764 0.7764 0.7764
v 0.105205 0.008349 -0.240317 0.7568 0.7568 0.7568
v 0.117705 0.030000 -0.270317 0.8470 0.8470 0.8470
v -0.254461 0.070000 -0.160155 0.8157 0.8157 0.8157
v -0.011756 0.110000 0.016180 0.7020 0.7020 0.7020
v -0.011756 0.070000 0.016180 0.7020 0.7020 0.7020
v 0.011756 0.110000 -0.016180 0.7020 0.7020 0.7020
v -0.230949 0.070000 -0.192516 0.8117 0.8117 0.8117
v -0.230949 0.110000 -0.192516 0.8902 0.8902 0.8902
v -0.254461 0.110000 -0.160155 0.8902 0.8902 0.8902
v 0.011756 0.070000 -0.016180 0.7020 0.7020 0.7020
v -0.217705 0.030000 -0.161336 0.8078 0.8078 0.8078
v -0.217705 0.030000 -0.131336 0.7960 0.7960 0.7960
v -0.230205 0.051651 -0.131336 0.8235 0.8235 0.8235
v -0.267705 0.030000 -0.161336 0.8509 0.8509 0.8509
v -0.267705 0.030000 -0.131336 0.8470 0.8470 0.8470
v -0.230205 0.008349 -0.161336 0.7686 0.7686 0.7686
v -0.255205 0.051651 -0.131336 0.8784 0.8784 0.8784
v -0.255205 0.008349 -0.131336 0.7608 0.7608 0.7608
v -0.230205 0.008349 -0.131336 0.7529 0.7529 0.7529
v -0.255205 0.008349 -0.161336 0.7686 0.7686 0.7686
v -0.255205 0.051651 -0.161336 0.8902 0.8902 0.8902
v -0.230205 0.051651 -0.161336 0.8000 0.8000 0.8000
v -0.011756 0.070000 -0.016180 0.7020 0.7020 0.7020
v -0.254461 0.110000 0.160155 0.8902 0.8902 0.8902
v 0.011756 0.070000 0.016180 0.7020 0.7020 0.7020
v 0.011756 0.110000 0.016180 0.7020 0.7020 0.7020
v -0.011756 0.110000 -0.016180 0.7020 0.7020 0.7020
v -0.254461 0.070000 0.160155 0.8157 0.8157 0.8157
v -0.230949 0.070000 0.192516 0.8117 0.8117 0.8117
v -0.230949 0.110000 0.192516 0.8941 0.8941 0.8941
v -0.267705 0.030000 0.191336 0.8392 0.8392 0.8392
v -0.230205 0.008349 0.221336 0.7725 0.7725 0.7725
v -0.217705 0.030000 0.221336 0.8274 0.8274 0.8274
v -0.230205 0.051651 0.221336 0.8823 0.8823 0.8823
v -0.255205 0.051651 0.221336 0.9058 0.9058 0.9058
v -0.267705 0.030000 0.221336 0.8509 0.8509 0.8509
v -0.255205 0.008349 0.221336 0.7686 0.7686 0.7686
v -0.230205 0.008349 0.191336 0.7568 0.7568 0.7568
v -0.255205 0.008349 0.191336 0.7608 0.7608 0.7608
v -0.255205 0.051651 0.191336 0.8823 0.8823 0.8823
v -0.230205 0.051651 0.191336 0.8470 0.8470 0.8470
v -0.217705 0.030000 0.191336 0.8039 0.8039 0.8039
v 0.073684 0.110000 0.291497 0.8980 0.8980 0.8980
v 0.019021 0.070000 -0.006180 0.7020 0.7020 0.7020
v -0.019021 0.110000 0.006180 0.7020 0.7020 0.7020
v 0.111726 0.070000 0.279137 0.8157 0.8157 0.8157
v 0.111726 0.110000 0.279137 0.8980 0.8980 0.8980
v 0.019021 0.110000 -0.006180 0.7020 0.7020 0.7020
v 0.073684 0.070000 0.291497 0.8117 0.8117 0.8117
v -0.019021 0.070000 0.006180 0.7020 0.7020 0.7020
v 0.105205 0.051651 0.300317 0.8745 0.8745 0.8745
v 0.105205 0.051651 0.330317 0.9058 0.9058 0.9058
v 0.067705 0.030000 0.330317 0.8431 0.8431 0.8431
v 0.067705 0.030000 0.300317 0.8196 0.8196 0.8196
v 0.080205 0.008349 0.300317 0.7568 0.7568 0.7568
v 0.117705 0.030000 0.300317 0.8313 0.8313 0.8313
v 0.117705 0.030000 0.330317 0.8470 0.8470 0.8470
v 0.080205 0.051651 0.330317 0.8980 0.8980 0.8980
v 0.080205 0.008349 0.330317 0.7686 0.7686 0.7686
v 0.105205 0.008349 0.330317 0.7764 0.7764 0.7764
v 0.105205 0.008349 0.300317 0.7647 0.7647 0.7647
v 0.080205 0.051651 0.300317 0.8627 0.8627 0.8627
v 0.012500 0.100000 -0.021651 0.7020 0.7020 0.7020
v -0.012500 0.400000 -0.021651 0.7020 0.7020 0.7020
v -0.025000 0.400000 -0.000000 0.7020 0.7020 0.7020
v 0.012500 0.400000 0.021651 0.7020 0.7020 0.7020
v 0.025000 0.400000 0.000000 0.7020 0.7020 0.7020
v 0.012500 0.400000 -0.021651 0.7020 0.7020 0.7020
v -0.012500 0.400000 0.021651 0.7020 0.7020 0.7020
v 0.012500 0.100000 0.021651 0.7020 0.7020 0.7020
v -0.012500 0.100000 0.021651 0.7020 0.7020 0.7020
v -0.025000 0.100000 -0.000000 0.7020 0.7020 0.7020
v -0.012500 0.100000 -0.021651 0.7020 0.7020 0.7020
v 0.025000 0.100000 0.000000 0.7020 0.7020 0.7020
vn -0.0000 -0.0000 1.0000
vn -0.0000 -0.0000 -1.0000
vn -1.0000 -0.0000 -0.0000
vn 1.0000 -0.0000 -0.0000
vn -0.0000 1.0000 -0.0000
vn -0.0000 -1.0000 -0.0000
vn 0.8660 0.5000 -0.0000
vn -0.8660 0.5000 -0.0000
vn -0.8660 -0.5000 -0.0000
vn 0.8660 -0.5000 -0.0000
vn 0.9511 -0.0000 0.3090
vn -0.9511 -0.0000 -0.3090
vn -0.3090 -0.0000 0.9511
vn 0.3090 -0.0000 -0.9511
vn 0.5878 -0.0000 -0.8090
vn -0.5878 -0.0000 0.8090
vn 0.8090 -0.0000 0.5878
vn -0.8090 -0.0000 -0.5878
vn -0.5878 -0.0000 -0.8090
vn 0.5878 -0.0000 0.8090
vn 0.8090 -0.0000 -0.5878
vn -0.8090 -0.0000 0.5878
vn -0.9511 -0.0000 0.3090
vn 0.9511 -0.0000 -0.3090
vn -0.3090 -0.0000 -0.9511
vn 0.3090 -0.0000 0.9511
vn 0.8660 -0.0000 -0.5000
vn -0.8660 -0.0000 -0.5000
vn -0.8660 -0.0000 0.5000
vn 0.8660 -0.0000 0.5000
vt 0.281738 0.844238
vt 0.312012 0.844238
vt 0.312012 0.848275
vt 0.281738 0.848275
vt 0.286582 0.844238
vt 0.286582 0.849082
vt 0.281738 0.849082
vt 0.286784 0.844238
vt 0.286784 0.874512
vt 0.281738 0.874512
vt 0.291829 0.844238
vt 0.291829 0.874512
vt 0.296875 0.844238
vt 0.296875 0.874512
vt 0.301921 0.844238
vt 0.301921 0.874512
vt 0.306966 0.844238
vt 0.306966 0.874512
vt 0.312012 0.874512
vt 0.312012 0.859375
vt 0.304443 0.874512
vt 0.289307 0.874512
vt 0.281738 0.859375
vt 0.289307 0.844238
vt 0.304443 0.844238
vt 0.344238 0.844238
vt 0.349284 0.844238
vt 0.349284 0.874512
vt 0.344238 0.874512
vt 0.354329 0.844238
vt 0.354329 0.874512
vt 0.359375 0.844238
vt 0.359375 0.874512
vt 0.364421 0.844238
vt 0.364421 0.874512
vt 0.369466 0.844238
vt 0.369466 0.874512
vt 0.374512 0.844238
vt 0.374512 0.874512
vt 0.374512 0.859375
vt 0.366943 0.874512
vt 0.351807 0.874512
vt 0.344238 0.859375
vt 0.351807 0.844238
vt 0.366943 0.844238
s 0
usemtl props
f 8/1/1 1/2/1 2/3/1 3/4/1
f 4/1/2 5/2/2 6/3/2 7/4/2
f 5/1/3 8/5/3 3/6/3 6/7/3
f 1/1/4 4/5/4 7/6/4 2/7/4
f 3/1/5 2/2/5 7/3/5 6/4/5
f 5/1/6 4/2/6 1/3/6 8/4/6
s 1
f 16/1/7 9/8/7 18/9/7 17/10/7
f 9/8/5 11/11/5 10/12/5 18/9/5
f 11/11/8 12/13/8 13/14/8 10/12/8
f 12/13/9 14/15/9 19/16/9 13/14/9
f 14/15/6 20/17/6 15/18/6 19/16/6
f 20/17/10 16/2/10 17/19/10 15/18/10
s 0
f 17/20/1 18/21/1 10/22/1 13/23/1 19/24/1 15/25/1
f 20/21/2 14/22/2 12/23/2 11/24/2 9/25/2 16/20/2
f 24/1/11 26/2/11 28/3/11 21/4/11
f 22/1/12 23/2/12 25/3/12 27/4/12
f 23/1/13 24/5/13 21/6/13 25/7/13
f 26/1/14 22/5/14 27/6/14 28/7/14
f 21/1/5 28/2/5 27/3/5 25/4/5
f 23/1/6 22/2/6 26/3/6 24/4/6
s 1
f 40/1/7 31/8/7 29/9/7 30/10/7
f 31/8/5 32/11/5 34/12/5 29/9/5
f 32/11/8 33/13/8 37/14/8 34/12/8
f 33/13/9 35/15/9 36/16/9 37/14/9
f 35/15/6 38/17/6 39/18/6 36/16/6
f 38/17/10 40/2/10 30/19/10 39/18/10
s 0
f 30/20/1 29/21/1 34/22/1 37/23/1 36/24/1 39/25/1
f 38/21/2 35/22/2 33/23/2 32/24/2 31/25/2 40/20/2
f 48/1/15 45/2/15 46/3/15 44/4/15
f 41/1/16 43/2/16 42/3/16 47/4/16
f 43/1/17 48/5/17 44/6/17 42/7/17
f 45/1/18 41/5/18 47/6/18 46/7/18
f 44/1/5 46/2/5 47/3/5 42/4/5
f 43/1/6 41/2/6 45/3/6 48/4/6
s 1
f 49/1/7 60/8/7 51/9/7 50/10/7
f 60/8/5 59/11/5 55/12/5 51/9/5
f 59/11/8 52/13/8 53/14/8 55/12/8
f 52/13/9 58/15/9 56/16/9 53/14/9
f 58/15/6 54/17/6 57/18/6 56/16/6
f 54/17/10 49/2/10 50/19/10 57/18/10
s 0
f 50/20/1 51/21/1 55/22/1 53/23/1 56/24/1 57/25/1
f 54/21/2 58/22/2 52/23/2 59/24/2 60/25/2 49/20/2
f 61/1/19 66/2/19 62/3/19 65/4/19
f 67/1/20 63/2/20 64/3/20 68/4/20
f 63/1/21 61/5/21 65/6/21 64/7/21
f 66/1/22 67/5/22 68/6/22 62/7/22
f 65/1/5 62/2/5 68/3/5 64/4/5
f 63/1/6 67/2/6 66/3/6 61/4/6
s 1
f 80/1/7 79/8/7 72/9/7 71/10/7
f 79/8/5 78/11/5 73/12/5 72/9/5
f 78/11/8 69/13/8 74/14/8 73/12/8
f 69/13/9 77/15/9 75/16/9 74/14/9
f 77/15/6 76/17/6 70/18/6 75/16/6
f 76/17/10 80/2/10 71/19/10 70/18/10
s 0
f 71/20/1 72/21/1 73/22/1 74/23/1 75/24/1 70/25/1
f 76/21/2 77/22/2 69/23/2 78/24/2 79/25/2 80/20/2
f 88/1/23 87/2/23 81/3/23 83/4/23
f 84/1/24 82/2/24 86/3/24 85/4/24
f 82/1/25 88/5/25 83/6/25 86/7/25
f 87/1/26 84/5/26 85/6/26 81/7/26
f 83/1/5 81/2/5 85/3/5 86/4/5
f 82/1/6 84/2/6 87/3/6 88/4/6
s 1
f 94/1/7 89/8/7 90/9/7 95/10/7
f 89/8/5 100/11/5 96/12/5 90/9/5
f 100/11/8 92/13/8 91/14/8 96/12/8
f 92/13/9 93/15/9 97/16/9 91/14/9
f 93/15/6 99/17/6 98/18/6 97/16/6
f 99/17/10 94/2/10 95/19/10 98/18/10
s 0
f 95/20/1 90/21/1 96/22/1 91/23/1 97/24/1 98/25/1
f 99/21/2 93/22/2 92/23/2 100/24/2 89/25/2 94/20/2
s 1
f 112/26/27 101/27/27 106/28/27 105/29/27
f 101/27/2 111/30/2 102/31/2 106/28/2
f 111/30/28 110/32/28 103/33/28 102/31/28
f 110/32/29 109/34/29 107/35/29 103/33/29
f 109/34/1 108/36/1 104/37/1 107/35/1
f 108/36/30 112/38/30 105/39/30 104/37/30
s 0
f 105/40/5 106/41/5 102/42/5 103/43/5 107/44/5 104/45/5
f 108/41/6 109/42/6 110/43/6 111/44/6 101/45/6 112/40/6
o task_chair_seat
v -0.240000 0.400000 0.230000 0.9568 0.9568 0.9568
v -0.240000 0.400000 -0.230000 0.9529 0.9529 0.9529
v 0.240000 0.480000 -0.230000 0.9451 0.9451 0.9451
v -0.240000 0.480000 -0.230000 0.9372 0.9372 0.9372
v 0.240000 0.400000 0.230000 0.9568 0.9568 0.9568
v 0.240000 0.400000 -0.230000 0.9490 0.9490 0.9490
v -0.240000 0.480000 0.230000 1.0000 1.0000 1.0000
v 0.240000 0.480000 0.230000 0.9921 0.9921 0.9921
v 0.025000 0.440000 -0.043301 0.7020 0.7020 0.7020
v -0.025000 0.380000 -0.043301 0.8549 0.8549 0.8549
v -0.050000 0.380000 -0.000000 0.8549 0.8549 0.8549
v -0.050000 0.440000 -0.000000 0.7020 0.7020 0.7020
v -0.025000 0.380000 0.043301 0.8509 0.8509 0.8509
v -0.025000 0.440000 0.043301 0.7020 0.7020 0.7020
v 0.050000 0.380000 0.000000 0.8509 0.8509 0.8509
v 0.050000 0.440000 0.000000 0.7020 0.7020 0.7020
v -0.025000 0.440000 -0.043301 0.7020 0.7020 0.7020
v 0.025000 0.440000 0.043301 0.7020 0.7020 0.7020
v 0.025000 0.380000 0.043301 0.8509 0.8509 0.8509
v 0.025000 0.380000 -0.043301 0.8509 0.8509 0.8509
v 0.025000 0.435000 -0.100000 0.7020 0.7020 0.7020
v -0.025000 0.435000 -0.100000 0.7020 0.7020 0.7020
v -0.025000 0.405000 -0.400000 0.9451 0.9451 0.9451
v -0.025000 0.435000 -0.400000 0.9333 0.9333 0.9333
v 0.025000 0.405000 -0.100000 0.7020 0.7020 0.7020
v 0.025000 0.435000 -0.400000 0.9372 0.9372 0.9372
v 0.025000 0.405000 -0.400000 0.9411 0.9411 0.9411
v -0.025000 0.405000 -0.100000 0.7020 0.7020 0.7020
v 0.025000 0.400000 -0.365000 0.9058 0.9058 0.9058
v 0.025000 0.700000 -0.365000 0.8862 0.8862 0.8862
v -0.025000 0.700000 -0.365000 0.8862 0.8862 0.8862
v -0.025000 0.400000 -0.395000 0.9372 0.9372 0.9372
v -0.025000 0.400000 -0.365000 0.9019 0.9019 0.9019
v 0.025000 0.700000 -0.395000 0.7020 0.7020 0.7020
v -0.025000 0.700000 -0.395000 0.7059 0.7059 0.7059
v 0.025000 0.400000 -0.395000 0.9372 0.9372 0.9372
v -0.220000 0.624072 -0.382310 0.9607 0.9607 0.9607
v 0.220000 1.121333 -0.434574 1.0000 1.0000 1.0000
v -0.220000 1.121333 -0.434574 1.0000 1.0000 1.0000
v -0.220000 0.615709 -0.461871 0.9843 0.9843 0.9843
v 0.220000 1.112970 -0.514136 1.0000 1.0000 1.0000
v -0.220000 1.112970 -0.514136 1.0000 1.0000 1.0000
v 0.220000 0.615709 -0.461871 0.9882 0.9882 0.9882
v 0.220000 0.624072 -0.382310 0.9607 0.9607 0.9607
v -0.260000 0.467058 0.035291 0.8470 0.8470 0.8470
v -0.275000 0.470000 0.050000 0.9411 0.9411 0.9411
v -0.260000 0.472942 0.064709 0.9176 0.9176 0.9176
v -0.275000 0.620000 0.020000 0.9764 0.9764 0.9764
v -0.260000 0.607937 0.011084 0.8902 0.8902 0.8902
v -0.245000 0.470000 0.050000 0.8078 0.8078 0.8078
v -0.260000 0.632063 0.028916 0.9647 0.9647 0.9647
v -0.245000 0.640000 -0.180000 0.8980 0.8980 0.8980
v -0.275000 0.640000 -0.180000 0.9607 0.9607 0.9607
v -0.245000 0.620000 0.020000 0.8902 0.8902 0.8902
v -0.260000 0.653787 -0.185909 0.9490 0.9490 0.9490
v -0.245000 0.500000 -0.260000 0.9294 0.9294 0.9294
v -0.260000 0.626213 -0.174091 0.8862 0.8862 0.8862
v -0.275000 0.500000 -0.260000 0.9725 0.9725 0.9725
v -0.260000 0.507442 -0.273024 0.9607 0.9607 0.9607
v -0.260000 0.492558 -0.246976 0.9294 0.9294 0.9294
v 0.260000 0.607937 0.011084 0.8588 0.8588 0.8588
v 0.245000 0.470000 0.050000 0.7960 0.7960 0.7960
v 0.245000 0.620000 0.020000 0.9137 0.9137 0.9137
v 0.260000 0.632063 0.028916 0.9804 0.9804 0.9804
v 0.260000 0.626213 -0.174091 0.8902 0.8902 0.8902
v 0.275000 0.620000 0.020000 0.9490 0.9490 0.9490
v 0.260000 0.653787 -0.185909 0.9529 0.9529 0.9529
v 0.275000 0.500000 -0.260000 0.9804 0.9804 0.9804
v 0.245000 0.500000 -0.260000 0.9176 0.9176 0.9176
v 0.260000 0.492558 -0.246976 0.9294 0.9294 0.9294
v 0.245000 0.640000 -0.180000 0.8980 0.8980 0.8980
v 0.275000 0.640000 -0.180000 0.9686 0.9686 0.9686
v 0.275000 0.470000 0.050000 0.9451 0.9451 0.9451
v 0.260000 0.472942 0.064709 0.8706 0.8706 0.8706
v 0.260000 0.467058 0.035291 0.9019 0.9019 0.9019
v 0.260000 0.507442 -0.273024 0.9568 0.9568 0.9568
vn -0.0000 -0.0000 1.0000
vn -0.0000 -0.0000 -1.0000
vn -1.0000 -0.0000 -0.0000
vn 1.0000 -0.0000 -0.0000
vn -0.0000 1.0000 -0.0000
vn -0.0000 -1.0000 -0.0000
vn 0.8660 -0.0000 -0.5000
vn -0.8660 -0.0000 -0.5000
vn -0.8660 -0.0000 0.5000
vn 0.8660 -0.0000 0.5000
vn -0.0000 0.1045 0.9945
vn -0.0000 -0.1045 -0.9945
vn -0.0000 0.9945 -0.1045
vn -0.0000 -0.9945 0.1045
vn -0.1375 -0.1677 -0.9762
vn -0.8976 -0.4386 -0.0436
vn -0.9095 -0.4138 -0.0411
vn 0.1208 0.2179 0.9685
vn 0.9144 0.4027 0.0405
vn 0.8876 0.4583 0.0461
vn 0.6552 -0.7517 -0.0747
vn 0.7256 -0.6059 0.3262
vn 0.7251 -0.6198 0.3002
vn -0.7251 -0.6198 0.3002
vn -0.7256 -0.6059 0.3262
vn -0.6552 0.7516 0.0756
vn -0.7243 0.6227 -0.2962
vn -0.7247 0.6110 -0.3185
vn 0.7247 0.6110 -0.3185
vn 0.7243 0.6227 -0.2962
vn 0.6673 -0.3632 0.6502
vn -0.6673 -0.3632 0.6502
vn -0.6697 0.3743 -0.6414
vn 0.6697 0.3743 -0.6414
vn -0.0000 -0.9806 0.1961
vn -0.0000 -0.8682 -0.4961
vt 0.312988 0.844238
vt 0.343262 0.844238
vt 0.343262 0.849284
vt 0.312988 0.849284
vt 0.343262 0.849503
vt 0.312988 0.849503
vt 0.343262 0.873250
vt 0.312988 0.873250
vt 0.281738 0.844238
vt 0.286784 0.844238
vt 0.286784 0.874512
vt 0.281738 0.874512
vt 0.291829 0.844238
vt 0.291829 0.874512
vt 0.296875 0.844238
vt 0.296875 0.874512
vt 0.301921 0.844238
vt 0.301921 0.874512
vt 0.306966 0.844238
vt 0.306966 0.874512
vt 0.312012 0.844238
vt 0.312012 0.874512
vt 0.312012 0.859375
vt 0.304443 0.874512
vt 0.289307 0.874512
vt 0.281738 0.859375
vt 0.289307 0.844238
vt 0.304443 0.844238
vt 0.287793 0.844238
vt 0.287793 0.847871
vt 0.281738 0.847871
vt 0.312012 0.847266
vt 0.281738 0.847266
vt 0.284766 0.844238
vt 0.284766 0.874512
vt 0.339629 0.844238
vt 0.339629 0.874512
vt 0.312988 0.874512
vt 0.317832 0.844238
vt 0.317832 0.874512
vt 0.343262 0.849743
vt 0.312988 0.849743
vt 0.289307 0.854329
vt 0.281738 0.854329
vt 0.296875 0.854329
vt 0.304443 0.854329
vt 0.312012 0.854329
vt 0.289307 0.864421
vt 0.281738 0.864421
vt 0.296875 0.864421
vt 0.304443 0.864421
vt 0.312012 0.864421
s 0
usemtl props
f 113/46/31 117/47/31 120/48/31 119/49/31
f 118/46/32 114/47/32 116/48/32 115/49/32
f 114/46/33 113/47/33 119/50/33 116/51/33
f 117/46/34 118/47/34 115/50/34 120/51/34
f 119/46/35 120/47/35 115/52/35 116/53/35
f 114/46/36 118/47/36 117/52/36 113/53/36
s 1
f 127/54/37 132/55/37 121/56/37 128/57/37
f 132/55/32 122/58/32 129/59/32 121/56/32
f 122/58/38 123/60/38 124/61/38 129/59/38
f 123/60/39 125/62/39 126/63/39 124/61/39
f 125/62/31 131/64/31 130/65/31 126/63/31
f 131/64/40 127/66/40 128/67/40 130/65/40
s 0
f 128/68/35 121/69/35 129/70/35 124/71/35 126/72/35 130/73/35
f 131/69/36 125/70/36 123/71/36 122/72/36 132/73/36 127/68/36
f 140/54/31 137/74/31 133/75/31 134/76/31
f 139/54/32 135/74/32 136/75/32 138/76/32
f 135/54/33 140/66/33 134/77/33 136/78/33
f 137/54/34 139/66/34 138/77/34 133/78/34
f 134/54/35 133/55/35 138/56/35 136/57/35
f 135/54/36 139/55/36 137/56/36 140/57/36
f 145/54/31 141/55/31 142/56/31 143/57/31
f 148/54/32 144/55/32 147/56/32 146/57/32
f 144/54/33 145/79/33 143/80/33 147/57/33
f 141/54/34 148/79/34 146/80/34 142/57/34
f 143/54/35 142/74/35 146/75/35 147/76/35
f 144/54/36 148/74/36 141/75/36 145/76/36
f 149/46/41 156/81/41 150/82/41 151/83/41
f 155/46/42 152/81/42 154/82/42 153/83/42
f 152/46/33 149/84/33 151/85/33 154/83/33
f 156/46/34 155/84/34 153/85/34 150/83/34
f 151/46/43 150/47/43 153/86/43 154/87/43
f 152/46/44 155/47/44 156/86/44 149/87/44
s 1
f 157/54/45 158/72/45 161/88/45 166/89/45
f 158/72/33 159/60/33 160/90/46 161/88/47
f 159/60/48 162/73/48 163/91/48 160/90/48
f 162/73/34 157/66/34 166/92/49 163/91/50
f 166/89/51 161/88/51 169/93/52 164/94/53
f 161/88/47 160/90/46 165/95/54 169/93/55
f 160/90/56 163/91/56 167/96/57 165/95/58
f 163/91/50 166/92/49 164/97/59 167/96/60
f 164/94/53 169/93/52 172/70/61 168/57/61
f 169/93/55 165/95/54 170/61/62 172/70/62
f 165/95/58 167/96/57 171/69/63 170/61/63
f 167/96/60 164/97/59 168/67/64 171/69/64
s 0
f 162/68/65 159/61/65 158/71/65 157/60/65
f 168/68/66 172/61/66 170/71/66 171/60/66
s 1
f 187/54/45 174/72/45 173/88/45 178/89/45
f 174/72/33 186/60/33 175/90/46 173/88/47
f 186/60/48 185/73/48 176/91/48 175/90/48
f 185/73/34 187/66/34 178/92/49 176/91/50
f 178/89/51 173/88/51 177/93/52 184/94/53
f 173/88/47 175/90/46 183/95/54 177/93/55
f 175/90/56 176/91/56 179/96/57 183/95/58
f 176/91/50 178/92/49 184/97/59 179/96/60
f 184/94/53 177/93/52 182/70/61 180/57/61
f 177/93/55 183/95/54 181/61/62 182/70/62
f 183/95/58 179/96/57 188/69/63 181/61/63
f 179/96/60 184/97/59 180/67/64 188/69/64
s 0
f 185/68/65 186/61/65 174/71/65 187/60/65
f 180/68/66 182/61/66 181/71/66 188/60/66
