# Blender 4.5.14 LTS
# www.blender.org
mtllib wall_window.mtl
o wall_window
v -1.000000 0.000000 0.100000 0.8470 0.8470 0.8470
v -0.900000 0.000000 0.100000 0.8470 0.8470 0.8470
v -0.900000 1.000000 0.100000 0.9804 0.9804 0.9804
v -0.900000 0.000000 -0.100000 0.8509 0.8509 0.8509
v -1.000000 0.000000 -0.100000 0.8509 0.8509 0.8509
v -1.000000 1.000000 0.100000 1.0000 1.0000 1.0000
v -1.000000 1.000000 -0.100000 1.0000 1.0000 1.0000
v -1.000000 2.000000 0.100000 1.0000 1.0000 1.0000
v -0.900000 3.000000 0.100000 1.0000 1.0000 1.0000
v -1.000000 3.000000 0.100000 1.0000 1.0000 1.0000
v -1.000000 3.000000 -0.100000 1.0000 1.0000 1.0000
v -1.000000 2.000000 -0.100000 1.0000 1.0000 1.0000
v -0.900000 3.000000 -0.100000 1.0000 1.0000 1.0000
v -0.900000 0.800000 0.100000 0.8862 0.8862 0.8862
v -0.900000 0.800000 -0.100000 0.8862 0.8862 0.8862
v -0.900000 1.000000 -0.100000 0.9764 0.9764 0.9764
v -0.900000 2.000000 0.100000 1.0000 1.0000 1.0000
v -0.900000 2.000000 -0.100000 1.0000 1.0000 1.0000
v -0.900000 2.600000 -0.100000 0.9019 0.9019 0.9019
v -0.900000 2.600000 0.100000 0.8980 0.8980 0.8980
vn -0.0000 -0.0000 1.0000
vn -0.0000 -0.0000 -1.0000
vn -0.0000 1.0000 -0.0000
vn 1.0000 -0.0000 -0.0000
vt 0.375488 0.875488
vt 0.387891 0.875488
vt 0.387891 0.999512
vt 0.375488 0.999512
vt 0.749512 0.999512
vt 0.737109 0.999512
vt 0.737109 0.875488
vt 0.749512 0.875488
vt 0.500488 0.875488
vt 0.512891 0.875488
vt 0.512891 0.999512
vt 0.500488 0.999512
vt 0.512891 0.900293
vt 0.500488 0.900293
vt 0.375488 0.974707
vt 0.400293 0.974707
vt 0.400293 0.999512
vt 0.525293 0.875488
vt 0.525293 0.999512
vt 0.525293 0.949902
vt 0.500488 0.949902
s 0
usemtl props
f 1/1/1 2/2/1 3/3/1 6/4/1
f 7/5/2 16/6/2 4/7/2 5/8/2
f 6/9/1 3/10/1 17/11/1 8/12/1
f 12/5/2 18/6/2 16/7/2 7/8/2
f 8/9/1 17/10/1 9/11/1 10/12/1
f 11/5/2 13/6/2 18/7/2 12/8/2
f 10/9/3 9/10/3 13/13/3 11/14/3
f 14/15/4 15/16/4 16/17/4 3/4/4
f 3/9/4 16/18/4 18/19/4 17/12/4
f 17/9/4 18/18/4 19/20/4 20/21/4
o wall_window_1
v -0.900000 0.000000 0.100000 0.8470 0.8470 0.8470
v -0.900000 0.000000 -0.100000 0.8509 0.8509 0.8509
v 0.000000 0.000000 0.100000 0.8470 0.8470 0.8470
v 0.900000 0.000000 0.100000 0.8470 0.8470 0.8470
v 0.900000 0.800000 0.100000 0.9490 0.9490 0.9490
v 0.000000 0.800000 -0.100000 1.0000 1.0000 1.0000
v 0.900000 0.000000 -0.100000 0.8509 0.8509 0.8509
v 0.000000 0.000000 -0.100000 0.8509 0.8509 0.8509
v -0.900000 0.800000 0.100000 0.9490 0.9490 0.9490
v -0.900000 0.800000 -0.100000 0.9529 0.9529 0.9529
v 0.000000 0.800000 0.100000 1.0000 1.0000 1.0000
v 0.900000 0.800000 -0.100000 0.9529 0.9529 0.9529
vn -0.0000 -0.0000 1.0000
vn -0.0000 -0.0000 -1.0000
vn -0.0000 1.0000 -0.0000
vt 0.387891 0.875488
vt 0.499512 0.875488
vt 0.499512 0.974707
vt 0.387891 0.974707
vt 0.737109 0.974707
vt 0.625488 0.974707
vt 0.625488 0.875488
vt 0.737109 0.875488
vt 0.375488 0.875488
vt 0.487109 0.875488
vt 0.487109 0.974707
vt 0.375488 0.974707
vt 0.749512 0.974707
vt 0.637891 0.974707
vt 0.637891 0.875488
vt 0.749512 0.875488
vt 0.512891 0.875488
vt 0.624512 0.875488
vt 0.624512 0.900293
vt 0.512891 0.900293
vt 0.500488 0.875488
vt 0.612109 0.875488
vt 0.612109 0.900293
vt 0.500488 0.900293
s 0
usemtl props
f 21/22/5 23/23/5 31/24/5 29/25/5
f 30/26/6 26/27/6 28/28/6 22/29/6
f 23/30/5 24/31/5 25/32/5 31/33/5
f 26/34/6 32/35/6 27/36/6 28/37/6
f 29/38/7 31/39/7 26/40/7 30/41/7
f 31/42/7 25/43/7 32/44/7 26/45/7
o wall_window_2
v -0.900000 2.600000 0.100000 0.9529 0.9529 0.9529
v -0.900000 3.000000 0.100000 1.0000 1.0000 1.0000
v 0.900000 2.600000 0.100000 0.9568 0.9568 0.9568
v 0.900000 2.600000 -0.100000 0.9529 0.9529 0.9529
v -0.900000 3.000000 -0.100000 1.0000 1.0000 1.0000
v 0.000000 3.000000 0.100000 1.0000 1.0000 1.0000
v 0.900000 3.000000 0.100000 1.0000 1.0000 1.0000
v 0.900000 3.000000 -0.100000 1.0000 1.0000 1.0000
v 0.000000 3.000000 -0.100000 1.0000 1.0000 1.0000
v -0.900000 2.600000 -0.100000 0.9490 0.9490 0.9490
v 0.000000 2.600000 -0.100000 1.0000 1.0000 1.0000
v 0.000000 2.600000 0.100000 1.0000 1.0000 1.0000
vn -0.0000 -0.0000 1.0000
vn -0.0000 -0.0000 -1.0000
vn -0.0000 1.0000 -0.0000
vn -0.0000 -1.0000 -0.0000
vt 0.512891 0.949902
vt 0.624512 0.949902
vt 0.624512 0.999512
vt 0.512891 0.999512
vt 0.737109 0.999512
vt 0.625488 0.999512
vt 0.625488 0.949902
vt 0.737109 0.949902
vt 0.500488 0.949902
vt 0.612109 0.949902
vt 0.612109 0.999512
vt 0.500488 0.999512
vt 0.749512 0.999512
vt 0.637891 0.999512
vt 0.637891 0.949902
vt 0.749512 0.949902
vt 0.512891 0.875488
vt 0.624512 0.875488
vt 0.624512 0.900293
vt 0.512891 0.900293
vt 0.500488 0.875488
vt 0.612109 0.875488
vt 0.612109 0.900293
vt 0.500488 0.900293
s 0
usemtl props
f 33/46/8 44/47/8 38/48/8 34/49/8
f 37/50/9 41/51/9 43/52/9 42/53/9
f 44/54/8 35/55/8 39/56/8 38/57/8
f 41/58/9 40/59/9 36/60/9 43/61/9
f 34/62/10 38/63/10 41/64/10 37/65/10
f 38/66/10 39/67/10 40/68/10 41/69/10
f 42/65/11 43/64/11 44/63/11 33/62/11
f 43/69/11 36/68/11 35/67/11 44/66/11
o wall_window_3
v 0.900000 0.000000 0.100000 0.8470 0.8470 0.8470
v 1.000000 0.000000 0.100000 0.8470 0.8470 0.8470
v 1.000000 1.000000 0.100000 1.0000 1.0000 1.0000
v 1.000000 0.000000 -0.100000 0.8509 0.8509 0.8509
v 0.900000 0.000000 -0.100000 0.8509 0.8509 0.8509
v 0.900000 1.000000 0.100000 0.9764 0.9764 0.9764
v 1.000000 2.000000 0.100000 1.0000 1.0000 1.0000
v 1.000000 1.000000 -0.100000 1.0000 1.0000 1.0000
v 1.000000 3.000000 0.100000 1.0000 1.0000 1.0000
v 0.900000 3.000000 -0.100000 1.0000 1.0000 1.0000
v 1.000000 3.000000 -0.100000 1.0000 1.0000 1.0000
v 1.000000 2.000000 -0.100000 1.0000 1.0000 1.0000
v 0.900000 2.000000 -0.100000 1.0000 1.0000 1.0000
v 0.900000 3.000000 0.100000 1.0000 1.0000 1.0000
v 0.900000 0.800000 -0.100000 0.8745 0.8745 0.8745
v 0.900000 0.800000 0.100000 0.8784 0.8784 0.8784
v 0.900000 1.000000 -0.100000 0.9804 0.9804 0.9804
v 0.900000 2.000000 0.100000 1.0000 1.0000 1.0000
v 0.900000 2.600000 0.100000 0.9058 0.9058 0.9058
v 0.900000 2.600000 -0.100000 0.8980 0.8980 0.8980
vn -0.0000 -0.0000 1.0000
vn -0.0000 -0.0000 -1.0000
vn -0.0000 1.0000 -0.0000
vn -1.0000 -0.0000 -0.0000
vt 0.487109 0.875488
vt 0.499512 0.875488
vt 0.499512 0.999512
vt 0.487109 0.999512
vt 0.637891 0.999512
vt 0.625488 0.999512
vt 0.625488 0.875488
vt 0.637891 0.875488
vt 0.612109 0.875488
vt 0.624512 0.875488
vt 0.624512 0.999512
vt 0.612109 0.999512
vt 0.624512 0.900293
vt 0.612109 0.900293
vt 0.625488 0.974707
vt 0.650293 0.974707
vt 0.650293 0.999512
vt 0.650293 0.875488
vt 0.650293 0.949902
vt 0.625488 0.949902
s 0
usemtl props
f 45/70/12 46/71/12 47/72/12 50/73/12
f 61/74/13 52/75/13 48/76/13 49/77/13
f 50/78/12 47/79/12 51/80/12 62/81/12
f 57/74/13 56/75/13 52/76/13 61/77/13
f 62/78/12 51/79/12 53/80/12 58/81/12
f 54/74/13 55/75/13 56/76/13 57/77/13
f 58/78/14 53/79/14 55/82/14 54/83/14
f 59/84/15 60/85/15 50/86/15 61/75/15
f 61/76/15 50/87/15 62/86/15 57/75/15
f 57/76/15 62/87/15 63/88/15 64/89/15
