# Blender 4.5.14 LTS
# www.blender.org
mtllib window_office.mtl
o window_office
v -0.950000 0.800000 -0.110000 1.0000 1.0000 1.0000
v -0.950000 0.800000 0.170000 1.0000 1.0000 1.0000
v -0.950000 0.830000 0.170000 0.9804 0.9804 0.9804
v 0.950000 0.800000 0.170000 1.0000 1.0000 1.0000
v 0.950000 0.800000 -0.110000 1.0000 1.0000 1.0000
v 0.950000 0.830000 0.170000 0.9843 0.9843 0.9843
v 0.950000 0.830000 -0.110000 0.9804 0.9804 0.9804
v -0.950000 0.830000 -0.110000 0.9804 0.9804 0.9804
v -0.900000 0.800000 0.020000 0.8000 0.8000 0.8000
v -0.850000 2.600000 -0.060000 0.9019 0.9019 0.9019
v -0.900000 0.800000 -0.060000 0.8000 0.8000 0.8000
v -0.850000 0.800000 0.020000 0.8000 0.8000 0.8000
v -0.850000 0.800000 -0.060000 0.8000 0.8000 0.8000
v -0.850000 2.600000 0.020000 0.8980 0.8980 0.8980
v -0.900000 2.600000 -0.060000 1.0000 1.0000 1.0000
v 0.850000 0.800000 0.020000 0.8000 0.8000 0.8000
v 0.850000 2.600000 0.020000 0.8980 0.8980 0.8980
v 0.900000 0.800000 0.020000 0.8000 0.8000 0.8000
v 0.900000 0.800000 -0.060000 0.8000 0.8000 0.8000
v 0.900000 2.600000 0.020000 1.0000 1.0000 1.0000
v 0.850000 2.600000 -0.060000 0.9019 0.9019 0.9019
v 0.850000 0.800000 -0.060000 0.8000 0.8000 0.8000
v 0.900000 2.550000 0.020000 0.8980 0.8980 0.8980
v -0.900000 2.550000 -0.060000 0.8980 0.8980 0.8980
v -0.900000 2.550000 0.020000 0.8980 0.8980 0.8980
v -0.900000 2.600000 0.020000 1.0000 1.0000 1.0000
v 0.900000 2.550000 -0.060000 0.8980 0.8980 0.8980
v 0.900000 2.600000 -0.060000 1.0000 1.0000 1.0000
v 0.900000 2.175000 0.020000 0.8980 0.8980 0.8980
v -0.900000 2.175000 0.020000 0.8980 0.8980 0.8980
v 0.900000 2.125000 -0.060000 0.9019 0.9019 0.9019
v -0.900000 2.175000 -0.060000 0.8980 0.8980 0.8980
v -0.900000 2.125000 0.020000 0.9019 0.9019 0.9019
v 0.900000 2.125000 0.020000 0.9019 0.9019 0.9019
v 0.900000 2.175000 -0.060000 0.8980 0.8980 0.8980
v -0.900000 2.125000 -0.060000 0.8980 0.8980 0.8980
v 0.025000 2.150000 0.020000 0.8000 0.8000 0.8000
v -0.025000 0.800000 -0.060000 0.8000 0.8000 0.8000
v -0.025000 0.800000 0.020000 0.8000 0.8000 0.8000
v -0.025000 2.150000 0.020000 0.8000 0.8000 0.8000
v -0.025000 2.150000 -0.060000 0.8000 0.8000 0.8000
v 0.025000 0.800000 -0.060000 0.8000 0.8000 0.8000
v 0.025000 2.150000 -0.060000 0.8000 0.8000 0.8000
v 0.025000 0.800000 0.020000 0.8000 0.8000 0.8000
v -0.850000 0.830000 -0.020000 0.7960 0.7960 0.7960
v -0.025000 0.830000 -0.020000 0.8078 0.8078 0.8078
v -0.025000 2.125000 -0.020000 0.8196 0.8196 0.8196
v -0.850000 2.125000 -0.020000 0.8157 0.8157 0.8157
v -0.025000 0.830000 -0.020200 0.8039 0.8039 0.8039
v -0.850000 0.830000 -0.020200 0.8078 0.8078 0.8078
v -0.850000 2.125000 -0.020200 0.8196 0.8196 0.8196
v -0.025000 2.125000 -0.020200 0.8157 0.8157 0.8157
v 0.025000 0.830000 -0.020000 0.7960 0.7960 0.7960
v 0.850000 0.830000 -0.020000 0.8078 0.8078 0.8078
v 0.850000 2.125000 -0.020000 0.8196 0.8196 0.8196
v 0.025000 2.125000 -0.020000 0.8157 0.8157 0.8157
v 0.850000 0.830000 -0.020200 0.8039 0.8039 0.8039
v 0.025000 0.830000 -0.020200 0.8078 0.8078 0.8078
v 0.025000 2.125000 -0.020200 0.8196 0.8196 0.8196
v 0.850000 2.125000 -0.020200 0.8157 0.8157 0.8157
vn -0.0000 -0.0000 1.0000
vn -0.0000 -0.0000 -1.0000
vn -1.0000 -0.0000 -0.0000
vn 1.0000 -0.0000 -0.0000
vn -0.0000 1.0000 -0.0000
vn -0.0000 -1.0000 -0.0000
vt 0.406738 0.844238
vt 0.437012 0.844238
vt 0.437012 0.844716
vt 0.406738 0.844716
vt 0.437012 0.847482
vt 0.406738 0.847482
vt 0.437012 0.848700
vt 0.406738 0.848700
vt 0.219238 0.844238
vt 0.220079 0.844238
vt 0.220079 0.874512
vt 0.219238 0.874512
vt 0.220584 0.844238
vt 0.220584 0.874512
vt 0.225293 0.844238
vt 0.225293 0.853926
vt 0.219238 0.853926
vt 0.249512 0.844238
vt 0.249512 0.845079
vt 0.219238 0.845079
vt 0.228926 0.844238
vt 0.228926 0.850293
vt 0.219238 0.850293
vt 0.249512 0.845584
vt 0.219238 0.845584
vt 0.220360 0.844238
vt 0.220360 0.874512
vt 0.221032 0.844238
vt 0.221032 0.874512
vt 0.875488 0.937988
vt 0.937012 0.937988
vt 0.937012 0.999512
vt 0.875488 0.999512
s 0
usemtl props
f 2/1/1 4/2/1 6/3/1 3/4/1
f 5/1/2 1/2/2 8/3/2 7/4/2
f 1/1/3 2/2/3 3/5/3 8/6/3
f 4/1/4 5/2/4 7/5/4 6/6/4
f 3/1/5 6/2/5 7/7/5 8/8/5
f 1/1/6 5/2/6 4/7/6 2/8/6
f 9/9/1 12/10/1 14/11/1 26/12/1
f 13/9/2 11/10/2 15/11/2 10/12/2
f 11/9/3 9/13/3 26/14/3 15/12/3
f 12/9/4 13/13/4 10/14/4 14/12/4
f 26/9/5 14/15/5 10/16/5 15/17/5
f 11/9/6 13/15/6 12/16/6 9/17/6
f 16/9/1 18/10/1 20/11/1 17/12/1
f 19/9/2 22/10/2 21/11/2 28/12/2
f 22/9/3 16/13/3 17/14/3 21/12/3
f 18/9/4 19/13/4 28/14/4 20/12/4
f 17/9/5 20/15/5 28/16/5 21/17/5
f 22/9/6 19/15/6 18/16/6 16/17/6
f 25/9/1 23/18/1 20/19/1 26/20/1
f 27/9/2 24/18/2 15/19/2 28/20/2
f 24/9/3 25/21/3 26/22/3 15/23/3
f 23/9/4 27/21/4 28/22/4 20/23/4
f 26/9/5 20/18/5 28/24/5 15/25/5
f 24/9/6 27/18/6 23/24/6 25/25/6
f 33/9/1 34/18/1 29/19/1 30/20/1
f 31/9/2 36/18/2 32/19/2 35/20/2
f 36/9/3 33/21/3 30/22/3 32/23/3
f 34/9/4 31/21/4 35/22/4 29/23/4
f 30/9/5 29/18/5 35/24/5 32/25/5
f 36/9/6 31/18/6 34/24/6 33/25/6
f 39/9/1 44/26/1 37/27/1 40/12/1
f 42/9/2 38/26/2 41/27/2 43/12/2
f 38/9/3 39/28/3 40/29/3 41/12/3
f 44/9/4 42/28/4 43/29/4 37/12/4
f 40/9/5 37/15/5 43/16/5 41/17/5
f 38/9/6 42/15/6 44/16/6 39/17/6
f 45/30/1 46/31/1 47/32/1 48/33/1
f 49/30/2 50/31/2 51/32/2 52/33/2
f 53/30/1 54/31/1 55/32/1 56/33/1
f 57/30/2 58/31/2 59/32/2 60/33/2
o window_office_vent
v 0.850000 2.205000 -0.060000 0.8470 0.8470 0.8470
v -0.850000 2.175000 -0.060000 0.8000 0.8000 0.8000
v -0.850000 2.205000 -0.020000 0.7882 0.7882 0.7882
v 0.850000 2.175000 -0.060000 0.8000 0.8000 0.8000
v 0.850000 2.205000 -0.020000 0.7843 0.7843 0.7843
v -0.850000 2.205000 -0.060000 0.8509 0.8509 0.8509
v 0.850000 2.175000 -0.020000 0.7372 0.7372 0.7372
v -0.850000 2.175000 -0.020000 0.7372 0.7372 0.7372
v 0.850000 2.515000 -0.020000 0.7843 0.7843 0.7843
v 0.850000 2.515000 -0.060000 0.8470 0.8470 0.8470
v -0.850000 2.515000 -0.060000 0.8470 0.8470 0.8470
v -0.850000 2.545000 -0.020000 0.7412 0.7412 0.7412
v 0.850000 2.545000 -0.020000 0.7372 0.7372 0.7372
v 0.850000 2.545000 -0.060000 0.8431 0.8431 0.8431
v -0.850000 2.545000 -0.060000 0.8431 0.8431 0.8431
v -0.850000 2.515000 -0.020000 0.7882 0.7882 0.7882
v -0.840000 2.205000 -0.040000 0.8235 0.8235 0.8235
v 0.840000 2.205000 -0.040000 0.8157 0.8157 0.8157
v 0.840000 2.515000 -0.040000 0.8157 0.8157 0.8157
v -0.840000 2.515000 -0.040000 0.8313 0.8313 0.8313
v 0.840000 2.205000 -0.040200 0.8627 0.8627 0.8627
v -0.840000 2.205000 -0.040200 0.8588 0.8588 0.8588
v -0.840000 2.515000 -0.040200 0.8549 0.8549 0.8549
v 0.840000 2.515000 -0.040200 0.8509 0.8509 0.8509
vn -0.0000 -0.0000 1.0000
vn -0.0000 -0.0000 -1.0000
vn -1.0000 -0.0000 -0.0000
vn 1.0000 -0.0000 -0.0000
vn -0.0000 1.0000 -0.0000
vn -0.0000 -1.0000 -0.0000
vt 0.219238 0.844238
vt 0.249512 0.844238
vt 0.249512 0.844773
vt 0.219238 0.844773
vt 0.224082 0.844238
vt 0.224082 0.847871
vt 0.219238 0.847871
vt 0.249512 0.844951
vt 0.219238 0.844951
vt 0.875488 0.937988
vt 0.937012 0.937988
vt 0.937012 0.999512
vt 0.875488 0.999512
s 0
usemtl props
f 68/34/7 67/35/7 65/36/7 63/37/7
f 64/34/8 62/35/8 66/36/8 61/37/8
f 62/34/9 68/38/9 63/39/9 66/40/9
f 67/34/10 64/38/10 61/39/10 65/40/10
f 63/34/11 65/35/11 61/41/11 66/42/11
f 62/34/12 64/35/12 67/41/12 68/42/12
f 76/34/7 69/35/7 73/36/7 72/37/7
f 70/34/8 71/35/8 75/36/8 74/37/8
f 71/34/9 76/38/9 72/39/9 75/40/9
f 69/34/10 70/38/10 74/39/10 73/40/10
f 72/34/11 73/35/11 74/41/11 75/42/11
f 71/34/12 70/35/12 69/41/12 76/42/12
f 77/43/7 78/44/7 79/45/7 80/46/7
f 81/43/8 82/44/8 83/45/8 84/46/8
