# Blender 4.0.2
# www.blender.org
mtllib WallLight01.mtl
o WallLight01
v -0.000000 0.000000 -0.005183
v 0.004930 0.000000 -0.001602
v 0.003047 0.000000 0.004194
v -0.003047 0.000000 0.004194
v -0.004930 0.000000 -0.001602
l 1 2
l 2 3
l 3 4
l 4 5
l 5 1
o WallLight01.002
v 0.000000 0.236315 -0.000000
v 0.004930 0.232733 -0.000000
v 0.003047 0.226938 -0.000000
v -0.003047 0.226938 0.000000
v -0.004930 0.232733 0.000000
v 0.000000 0.236208 -0.018049
v 0.004930 0.232700 -0.017324
v 0.003047 0.227025 -0.016151
v -0.003047 0.227025 -0.016151
v -0.004930 0.232700 -0.017324
v 0.000000 0.224724 -0.044550
v 0.004930 0.221865 -0.042393
v 0.003047 0.217238 -0.038903
v -0.003047 0.217238 -0.038903
v -0.004930 0.221865 -0.042393
v 0.000000 0.204131 -0.061415
v 0.004930 0.202548 -0.058202
v 0.003047 0.199988 -0.053003
v -0.003047 0.199988 -0.053003
v -0.004930 0.202548 -0.058202
v 0.000000 0.180962 -0.066933
v 0.004930 0.180552 -0.063375
v 0.003047 0.179888 -0.057618
v -0.003047 0.179888 -0.057618
v -0.004930 0.180552 -0.063375
v -0.000000 0.060000 -0.066967
v 0.004930 0.060000 -0.063386
v 0.003047 0.060000 -0.057590
v -0.003047 0.060000 -0.057590
v -0.004930 0.060000 -0.063386
v 0.000000 0.236208 0.018049
v 0.004930 0.232700 0.017324
v 0.003047 0.227025 0.016151
v -0.003047 0.227025 0.016151
v -0.004930 0.232700 0.017324
v 0.000000 0.224724 0.044550
v 0.004930 0.221865 0.042393
v 0.003047 0.217238 0.038903
v -0.003047 0.217238 0.038903
v -0.004930 0.221865 0.042393
v 0.000000 0.204131 0.061415
v 0.004930 0.202548 0.058202
v 0.003047 0.199988 0.053003
v -0.003047 0.199988 0.053003
v -0.004930 0.202548 0.058202
v 0.000000 0.180962 0.066933
v 0.004930 0.180552 0.063375
v 0.003047 0.179888 0.057618
v -0.003047 0.179888 0.057618
v -0.004930 0.180552 0.063375
v 0.000000 0.060000 0.066967
v 0.004930 0.060000 0.063386
v 0.003047 0.060000 0.057590
v -0.003047 0.060000 0.057590
v -0.004930 0.060000 0.063386
vn -0.5878 0.8090 -0.0015
vn 0.5878 0.8090 -0.0015
vn 0.9511 -0.3090 -0.0017
vn -0.0000 -1.0000 -0.0054
vn -0.9511 -0.3090 -0.0017
vn -0.5797 0.7480 -0.3233
vn 0.5797 0.7480 -0.3233
vn 0.9491 -0.2892 0.1244
vn -0.0000 -0.9186 0.3951
vn -0.9491 -0.2892 0.1244
vn -0.5768 0.5176 -0.6320
vn 0.5768 0.5176 -0.6320
vn 0.9484 -0.2009 0.2454
vn -0.0000 -0.6329 0.7743
vn -0.9484 -0.2009 0.2454
vn -0.5781 0.1890 -0.7938
vn 0.5781 0.1890 -0.7938
vn 0.9486 -0.0724 0.3079
vn -0.0000 -0.2238 0.9746
vn -0.9486 -0.0724 0.3079
vn -0.5853 0.0002 -0.8108
vn 0.5853 0.0002 -0.8108
vn 0.9505 -0.0000 0.3109
vn -0.0000 0.0002 1.0000
vn -0.9505 -0.0000 0.3109
vn -0.5802 0.8145 0.0048
vn 0.5878 0.8090 0.0015
vn 0.9511 -0.3090 0.0017
vn -0.0000 -1.0000 0.0054
vn -0.9492 -0.3148 -0.0006
vn -0.5768 0.7495 0.3248
vn 0.5797 0.7480 0.3233
vn 0.9491 -0.2892 -0.1244
vn -0.0000 -0.9186 -0.3951
vn -0.9484 -0.2911 -0.1258
vn -0.5768 0.5176 0.6320
vn 0.5777 0.5170 0.6317
vn 0.9486 -0.2002 -0.2450
vn -0.0000 -0.6329 -0.7743
vn -0.9484 -0.2009 -0.2454
vn -0.5781 0.1891 0.7938
vn 0.5852 0.1856 0.7894
vn 0.9505 -0.0695 -0.3029
vn -0.0000 -0.2238 -0.9746
vn -0.9486 -0.0724 -0.3079
vn -0.5853 0.0002 0.8108
vn 0.5878 0.0001 0.8090
vn 0.9511 0.0001 -0.3090
vn -0.0000 0.0002 -1.0000
vn -0.9505 -0.0000 -0.3109
vn -0.5802 0.8145 -0.0048
vn 0.5802 0.8145 -0.0048
vn 0.9492 -0.3148 0.0006
vn -0.9492 -0.3148 0.0006
vn -0.5768 0.7495 -0.3248
vn 0.5768 0.7495 -0.3248
vn 0.9484 -0.2911 0.1258
vn -0.9484 -0.2911 0.1258
vn -0.5777 0.5170 -0.6317
vn 0.5777 0.5170 -0.6317
vn 0.9486 -0.2002 0.2450
vn -0.9486 -0.2002 0.2450
vn -0.5852 0.1856 -0.7894
vn 0.5852 0.1856 -0.7894
vn 0.9505 -0.0695 0.3029
vn -0.9505 -0.0695 0.3029
vn -0.5878 0.0001 -0.8090
vn 0.5878 0.0001 -0.8090
vn 0.9511 0.0001 0.3090
vn -0.9511 0.0001 0.3090
vn -0.5878 0.8090 0.0015
vn 0.5802 0.8145 0.0048
vn 0.9492 -0.3148 -0.0006
vn -0.9511 -0.3090 0.0017
vn -0.5797 0.7480 0.3233
vn 0.5768 0.7495 0.3248
vn 0.9484 -0.2911 -0.1258
vn -0.9491 -0.2892 -0.1244
vn -0.5777 0.5170 0.6317
vn 0.5768 0.5176 0.6320
vn 0.9484 -0.2009 -0.2454
vn -0.9486 -0.2002 -0.2450
vn -0.5852 0.1856 0.7894
vn 0.5781 0.1890 0.7938
vn 0.9486 -0.0724 -0.3079
vn -0.9505 -0.0695 -0.3029
vn -0.5878 0.0001 0.8090
vn 0.5853 0.0002 0.8108
vn 0.9505 -0.0000 -0.3109
vn -0.9511 0.0001 -0.3090
vt 0.000000 1.000000
vt 0.200000 0.800000
vt 0.000000 0.800000
vt 0.200000 0.200000
vt 0.000000 0.000000
vt 0.000000 0.200000
vt 0.200000 0.400000
vt 0.000000 0.400000
vt 0.200000 0.600000
vt 0.000000 0.600000
vt 0.200000 1.000000
vt 0.400000 0.800000
vt 0.400000 0.200000
vt 0.200000 0.000000
vt 0.400000 0.400000
vt 0.400000 0.600000
vt 0.600000 1.000000
vt 0.400000 1.000000
vt 0.600000 0.000000
vt 0.400000 0.000000
vt 0.600000 0.200000
vt 0.600000 0.400000
vt 0.600000 0.800000
vt 0.800000 1.000000
vt 0.800000 0.000000
vt 0.800000 0.200000
vt 0.800000 0.600000
vt 0.600000 0.600000
vt 0.800000 0.800000
vt 1.000000 1.000000
vt 1.000000 0.000000
vt 0.800000 0.400000
vt 1.000000 0.200000
vt 1.000000 0.600000
vt 1.000000 0.800000
vt 1.000000 0.400000
s 0
f 6/1/1 15/2/1 10/3/1
f 12/4/2 6/5/2 7/6/2
f 13/7/3 7/6/3 8/8/3
f 14/9/4 8/8/4 9/10/4
f 10/3/5 14/9/5 9/10/5
f 11/11/6 20/12/6 15/2/6
f 17/13/7 11/14/7 12/4/7
f 18/15/8 12/4/8 13/7/8
f 19/16/9 13/7/9 14/9/9
f 15/2/10 19/16/10 14/9/10
f 21/17/11 20/12/11 16/18/11
f 17/13/12 21/19/12 16/20/12
f 18/15/13 22/21/13 17/13/13
f 19/16/14 23/22/14 18/15/14
f 25/23/15 19/16/15 20/12/15
f 26/24/16 25/23/16 21/17/16
f 22/21/17 26/25/17 21/19/17
f 23/22/18 27/26/18 22/21/18
f 29/27/19 23/22/19 24/28/19
f 30/29/20 24/28/20 25/23/20
f 31/30/21 30/29/21 26/24/21
f 27/26/22 31/31/22 26/25/22
f 28/32/23 32/33/23 27/26/23
f 34/34/24 28/32/24 29/27/24
f 35/35/25 29/27/25 30/29/25
f 6/1/26 40/2/26 36/11/26
f 6/5/27 37/4/27 7/6/27
f 7/6/28 38/7/28 8/8/28
f 8/8/29 39/9/29 9/10/29
f 10/3/30 39/9/30 40/2/30
f 36/11/31 45/12/31 41/18/31
f 36/14/32 42/13/32 37/4/32
f 37/4/33 43/15/33 38/7/33
f 39/9/34 43/15/34 44/16/34
f 40/2/35 44/16/35 45/12/35
f 45/12/36 46/17/36 41/18/36
f 42/13/37 46/19/37 47/21/37
f 43/15/38 47/21/38 48/22/38
f 44/16/39 48/22/39 49/28/39
f 44/16/40 50/23/40 45/12/40
f 50/23/41 51/24/41 46/17/41
f 47/21/42 51/25/42 52/26/42
f 48/22/43 52/26/43 53/32/43
f 48/22/44 54/27/44 49/28/44
f 49/28/45 55/29/45 50/23/45
f 55/29/46 56/30/46 51/24/46
f 52/26/47 56/31/47 57/33/47
f 53/32/48 57/33/48 58/36/48
f 53/32/49 59/34/49 54/27/49
f 54/27/50 60/35/50 55/29/50
f 6/1/51 11/11/51 15/2/51
f 12/4/52 11/14/52 6/5/52
f 13/7/53 12/4/53 7/6/53
f 14/9/4 13/7/4 8/8/4
f 10/3/54 15/2/54 14/9/54
f 11/11/55 16/18/55 20/12/55
f 17/13/56 16/20/56 11/14/56
f 18/15/57 17/13/57 12/4/57
f 19/16/9 18/15/9 13/7/9
f 15/2/58 20/12/58 19/16/58
f 21/17/59 25/23/59 20/12/59
f 17/13/60 22/21/60 21/19/60
f 18/15/61 23/22/61 22/21/61
f 19/16/14 24/28/14 23/22/14
f 25/23/62 24/28/62 19/16/62
f 26/24/63 30/29/63 25/23/63
f 22/21/64 27/26/64 26/25/64
f 23/22/65 28/32/65 27/26/65
f 29/27/19 28/32/19 23/22/19
f 30/29/66 29/27/66 24/28/66
f 31/30/67 35/35/67 30/29/67
f 27/26/68 32/33/68 31/31/68
f 28/32/69 33/36/69 32/33/69
f 34/34/24 33/36/24 28/32/24
f 35/35/70 34/34/70 29/27/70
f 6/1/71 10/3/71 40/2/71
f 6/5/72 36/14/72 37/4/72
f 7/6/73 37/4/73 38/7/73
f 8/8/29 38/7/29 39/9/29
f 10/3/74 9/10/74 39/9/74
f 36/11/75 40/2/75 45/12/75
f 36/14/76 41/20/76 42/13/76
f 37/4/77 42/13/77 43/15/77
f 39/9/34 38/7/34 43/15/34
f 40/2/78 39/9/78 44/16/78
f 45/12/79 50/23/79 46/17/79
f 42/13/80 41/20/80 46/19/80
f 43/15/81 42/13/81 47/21/81
f 44/16/39 43/15/39 48/22/39
f 44/16/82 49/28/82 50/23/82
f 50/23/83 55/29/83 51/24/83
f 47/21/84 46/19/84 51/25/84
f 48/22/85 47/21/85 52/26/85
f 48/22/44 53/32/44 54/27/44
f 49/28/86 54/27/86 55/29/86
f 55/29/87 60/35/87 56/30/87
f 52/26/88 51/25/88 56/31/88
f 53/32/89 52/26/89 57/33/89
f 53/32/49 58/36/49 59/34/49
f 54/27/90 59/34/90 60/35/90
o WallLight01.001
v 0.000000 0.236315 0.000000
v 0.000000 0.232733 0.004930
v 0.000000 0.226938 0.003047
v 0.000000 0.226938 -0.003047
v 0.000000 0.232733 -0.004930
v 0.018049 0.236208 0.000000
v 0.017324 0.232700 0.004930
v 0.016151 0.227025 0.003047
v 0.016151 0.227025 -0.003047
v 0.017324 0.232700 -0.004930
v 0.044550 0.224724 0.000000
v 0.042393 0.221865 0.004930
v 0.038903 0.217238 0.003047
v 0.038903 0.217238 -0.003047
v 0.042393 0.221865 -0.004930
v 0.061415 0.204131 0.000000
v 0.058202 0.202548 0.004930
v 0.053003 0.199988 0.003047
v 0.053003 0.199988 -0.003047
v 0.058202 0.202548 -0.004930
v 0.066933 0.180962 0.000000
v 0.063375 0.180552 0.004930
v 0.057618 0.179888 0.003047
v 0.057618 0.179888 -0.003047
v 0.063375 0.180552 -0.004930
v 0.066967 0.060000 0.000000
v 0.063386 0.060000 0.004930
v 0.057590 0.060000 0.003047
v 0.057590 0.060000 -0.003047
v 0.063386 0.060000 -0.004930
v -0.018049 0.236208 0.000000
v -0.017324 0.232700 0.004930
v -0.016151 0.227025 0.003047
v -0.016151 0.227025 -0.003047
v -0.017324 0.232700 -0.004930
v -0.044550 0.224724 0.000000
v -0.042393 0.221865 0.004930
v -0.038903 0.217238 0.003047
v -0.038903 0.217238 -0.003047
v -0.042393 0.221865 -0.004930
v -0.061415 0.204131 0.000000
v -0.058202 0.202548 0.004930
v -0.053003 0.199988 0.003047
v -0.053003 0.199988 -0.003047
v -0.058202 0.202548 -0.004930
v -0.066933 0.180962 0.000000
v -0.063375 0.180552 0.004930
v -0.057618 0.179888 0.003047
v -0.057618 0.179888 -0.003047
v -0.063375 0.180552 -0.004930
v -0.066967 0.060000 0.000000
v -0.063386 0.060000 0.004930
v -0.057590 0.060000 0.003047
v -0.057590 0.060000 -0.003047
v -0.063386 0.060000 -0.004930
vn 0.0015 0.8090 -0.5878
vn 0.0015 0.8090 0.5878
vn 0.0017 -0.3090 0.9511
vn 0.0054 -1.0000 -0.0000
vn 0.0017 -0.3090 -0.9511
vn 0.3233 0.7480 -0.5797
vn 0.3233 0.7480 0.5797
vn -0.1244 -0.2892 0.9491
vn -0.3951 -0.9186 -0.0000
vn -0.1244 -0.2892 -0.9491
vn 0.6320 0.5176 -0.5768
vn 0.6320 0.5176 0.5768
vn -0.2454 -0.2009 0.9484
vn -0.7743 -0.6329 -0.0000
vn -0.2454 -0.2009 -0.9484
vn 0.7938 0.1890 -0.5781
vn 0.7938 0.1890 0.5781
vn -0.3079 -0.0724 0.9486
vn -0.9746 -0.2238 -0.0000
vn -0.3079 -0.0724 -0.9486
vn 0.8108 0.0002 -0.5853
vn 0.8108 0.0002 0.5853
vn -0.3109 -0.0000 0.9505
vn -1.0000 0.0002 -0.0000
vn -0.3109 -0.0000 -0.9505
vn -0.0048 0.8145 -0.5802
vn -0.0015 0.8090 0.5878
vn -0.0017 -0.3090 0.9511
vn -0.0054 -1.0000 -0.0000
vn 0.0006 -0.3148 -0.9492
vn -0.3248 0.7495 -0.5768
vn -0.3233 0.7480 0.5797
vn 0.1244 -0.2892 0.9491
vn 0.3951 -0.9186 -0.0000
vn 0.1258 -0.2911 -0.9484
vn -0.6320 0.5176 -0.5768
vn -0.6317 0.5170 0.5777
vn 0.2450 -0.2002 0.9486
vn 0.7743 -0.6329 -0.0000
vn 0.2454 -0.2009 -0.9484
vn -0.7938 0.1891 -0.5781
vn -0.7894 0.1856 0.5852
vn 0.3029 -0.0695 0.9505
vn 0.9746 -0.2238 -0.0000
vn 0.3079 -0.0724 -0.9486
vn -0.8108 0.0002 -0.5853
vn -0.8090 0.0001 0.5878
vn 0.3090 0.0001 0.9511
vn 1.0000 0.0002 -0.0000
vn 0.3109 -0.0000 -0.9505
vn 0.0048 0.8145 -0.5802
vn 0.0048 0.8145 0.5802
vn -0.0006 -0.3148 0.9492
vn -0.0006 -0.3148 -0.9492
vn 0.3248 0.7495 -0.5768
vn 0.3248 0.7495 0.5768
vn -0.1258 -0.2911 0.9484
vn -0.1258 -0.2911 -0.9484
vn 0.6317 0.5170 -0.5777
vn 0.6317 0.5170 0.5777
vn -0.2450 -0.2002 0.9486
vn -0.2450 -0.2002 -0.9486
vn 0.7894 0.1856 -0.5852
vn 0.7894 0.1856 0.5852
vn -0.3029 -0.0695 0.9505
vn -0.3029 -0.0695 -0.9505
vn 0.8090 0.0001 -0.5878
vn 0.8090 0.0001 0.5878
vn -0.3090 0.0001 0.9511
vn -0.3090 0.0001 -0.9511
vn -0.0015 0.8090 -0.5878
vn -0.0048 0.8145 0.5802
vn 0.0006 -0.3148 0.9492
vn -0.0017 -0.3090 -0.9511
vn -0.3233 0.7480 -0.5797
vn -0.3248 0.7495 0.5768
vn 0.1258 -0.2911 0.9484
vn 0.1244 -0.2892 -0.9491
vn -0.6317 0.5170 -0.5777
vn -0.6320 0.5176 0.5768
vn 0.2454 -0.2009 0.9484
vn 0.2450 -0.2002 -0.9486
vn -0.7894 0.1856 -0.5852
vn -0.7938 0.1890 0.5781
vn 0.3079 -0.0724 0.9486
vn 0.3029 -0.0695 -0.9505
vn -0.8090 0.0001 -0.5878
vn -0.8108 0.0002 0.5853
vn 0.3109 -0.0000 0.9505
vn 0.3090 0.0001 -0.9511
vt 0.000000 1.000000
vt 0.200000 0.800000
vt 0.000000 0.800000
vt 0.200000 0.200000
vt 0.000000 0.000000
vt 0.000000 0.200000
vt 0.200000 0.400000
vt 0.000000 0.400000
vt 0.200000 0.600000
vt 0.000000 0.600000
vt 0.200000 1.000000
vt 0.400000 0.800000
vt 0.400000 0.200000
vt 0.200000 0.000000
vt 0.400000 0.400000
vt 0.400000 0.600000
vt 0.600000 1.000000
vt 0.400000 1.000000
vt 0.600000 0.000000
vt 0.400000 0.000000
vt 0.600000 0.200000
vt 0.600000 0.400000
vt 0.600000 0.800000
vt 0.800000 1.000000
vt 0.800000 0.000000
vt 0.800000 0.200000
vt 0.800000 0.600000
vt 0.600000 0.600000
vt 0.800000 0.800000
vt 1.000000 1.000000
vt 1.000000 0.000000
vt 0.800000 0.400000
vt 1.000000 0.200000
vt 1.000000 0.600000
vt 1.000000 0.800000
vt 1.000000 0.400000
s 0
f 61/37/91 70/38/91 65/39/91
f 67/40/92 61/41/92 62/42/92
f 68/43/93 62/42/93 63/44/93
f 69/45/94 63/44/94 64/46/94
f 65/39/95 69/45/95 64/46/95
f 66/47/96 75/48/96 70/38/96
f 72/49/97 66/50/97 67/40/97
f 73/51/98 67/40/98 68/43/98
f 74/52/99 68/43/99 69/45/99
f 70/38/100 74/52/100 69/45/100
f 76/53/101 75/48/101 71/54/101
f 72/49/102 76/55/102 71/56/102
f 73/51/103 77/57/103 72/49/103
f 74/52/104 78/58/104 73/51/104
f 80/59/105 74/52/105 75/48/105
f 81/60/106 80/59/106 76/53/106
f 77/57/107 81/61/107 76/55/107
f 78/58/108 82/62/108 77/57/108
f 84/63/109 78/58/109 79/64/109
f 85/65/110 79/64/110 80/59/110
f 86/66/111 85/65/111 81/60/111
f 82/62/112 86/67/112 81/61/112
f 83/68/113 87/69/113 82/62/113
f 89/70/114 83/68/114 84/63/114
f 90/71/115 84/63/115 85/65/115
f 61/37/116 95/38/116 91/47/116
f 61/41/117 92/40/117 62/42/117
f 62/42/118 93/43/118 63/44/118
f 63/44/119 94/45/119 64/46/119
f 65/39/120 94/45/120 95/38/120
f 91/47/121 100/48/121 96/54/121
f 91/50/122 97/49/122 92/40/122
f 92/40/123 98/51/123 93/43/123
f 94/45/124 98/51/124 99/52/124
f 95/38/125 99/52/125 100/48/125
f 100/48/126 101/53/126 96/54/126
f 97/49/127 101/55/127 102/57/127
f 98/51/128 102/57/128 103/58/128
f 99/52/129 103/58/129 104/64/129
f 99/52/130 105/59/130 100/48/130
f 105/59/131 106/60/131 101/53/131
f 102/57/132 106/61/132 107/62/132
f 103/58/133 107/62/133 108/68/133
f 103/58/134 109/63/134 104/64/134
f 104/64/135 110/65/135 105/59/135
f 110/65/136 111/66/136 106/60/136
f 107/62/137 111/67/137 112/69/137
f 108/68/138 112/69/138 113/72/138
f 108/68/139 114/70/139 109/63/139
f 109/63/140 115/71/140 110/65/140
f 61/37/141 66/47/141 70/38/141
f 67/40/142 66/50/142 61/41/142
f 68/43/143 67/40/143 62/42/143
f 69/45/94 68/43/94 63/44/94
f 65/39/144 70/38/144 69/45/144
f 66/47/145 71/54/145 75/48/145
f 72/49/146 71/56/146 66/50/146
f 73/51/147 72/49/147 67/40/147
f 74/52/99 73/51/99 68/43/99
f 70/38/148 75/48/148 74/52/148
f 76/53/149 80/59/149 75/48/149
f 72/49/150 77/57/150 76/55/150
f 73/51/151 78/58/151 77/57/151
f 74/52/104 79/64/104 78/58/104
f 80/59/152 79/64/152 74/52/152
f 81/60/153 85/65/153 80/59/153
f 77/57/154 82/62/154 81/61/154
f 78/58/155 83/68/155 82/62/155
f 84/63/109 83/68/109 78/58/109
f 85/65/156 84/63/156 79/64/156
f 86/66/157 90/71/157 85/65/157
f 82/62/158 87/69/158 86/67/158
f 83/68/159 88/72/159 87/69/159
f 89/70/114 88/72/114 83/68/114
f 90/71/160 89/70/160 84/63/160
f 61/37/161 65/39/161 95/38/161
f 61/41/162 91/50/162 92/40/162
f 62/42/163 92/40/163 93/43/163
f 63/44/119 93/43/119 94/45/119
f 65/39/164 64/46/164 94/45/164
f 91/47/165 95/38/165 100/48/165
f 91/50/166 96/56/166 97/49/166
f 92/40/167 97/49/167 98/51/167
f 94/45/124 93/43/124 98/51/124
f 95/38/168 94/45/168 99/52/168
f 100/48/169 105/59/169 101/53/169
f 97/49/170 96/56/170 101/55/170
f 98/51/171 97/49/171 102/57/171
f 99/52/129 98/51/129 103/58/129
f 99/52/172 104/64/172 105/59/172
f 105/59/173 110/65/173 106/60/173
f 102/57/174 101/55/174 106/61/174
f 103/58/175 102/57/175 107/62/175
f 103/58/134 108/68/134 109/63/134
f 104/64/176 109/63/176 110/65/176
f 110/65/177 115/71/177 111/66/177
f 107/62/178 106/61/178 111/67/178
f 108/68/179 107/62/179 112/69/179
f 108/68/139 113/72/139 114/70/139
f 109/63/180 114/70/180 115/71/180
o WallLight01.003
v 0.000000 0.000000 -0.094868
v -0.000000 0.223963 -0.016240
v 0.067082 0.000000 -0.067082
v 0.011432 0.223963 -0.011483
v 0.094868 0.000000 0.000000
v 0.016167 0.223963 -0.000000
v 0.067082 0.000000 0.067082
v 0.011432 0.223963 0.011483
v 0.000000 0.000000 0.094868
v -0.000000 0.223963 0.016240
v -0.067082 0.000000 0.067082
v -0.011432 0.223963 0.011483
v -0.094868 0.000000 0.000000
v -0.016167 0.223963 -0.000000
v -0.067082 0.000000 -0.067082
v -0.011432 0.223963 -0.011483
v 0.000000 0.177161 -0.053466
v 0.037806 0.177161 -0.037806
v 0.053466 0.177161 0.000000
v 0.037806 0.177161 0.037806
v 0.000000 0.177161 0.053466
v -0.037806 0.177161 0.037806
v -0.053466 0.177161 0.000000
v -0.037806 0.177161 -0.037806
v -0.000000 0.213898 -0.034592
v 0.024460 0.213898 -0.024460
v 0.034592 0.213898 0.000000
v 0.024460 0.213898 0.024460
v -0.000000 0.213898 0.034592
v -0.024460 0.213898 0.024460
v -0.034592 0.213898 0.000000
v -0.024460 0.213898 -0.024460
v 0.000000 0.218372 -0.025940
v 0.018342 0.218372 -0.018342
v 0.025940 0.218372 0.000000
v 0.018342 0.218372 0.018342
v 0.000000 0.218372 0.025940
v -0.018342 0.218372 0.018342
v -0.025940 0.218372 0.000000
v -0.018342 0.218372 -0.018342
v 0.035388 0.195767 -0.035388
v 0.050046 0.195767 0.000000
v 0.035388 0.195767 0.035388
v -0.000000 0.195767 0.050046
v -0.035388 0.195767 0.035388
v -0.050046 0.195767 0.000000
v -0.035388 0.195767 -0.035388
v -0.000000 0.195767 -0.050046
v 0.037806 0.072984 -0.037806
v 0.053466 0.072984 0.000000
v 0.037806 0.072984 0.037806
v 0.000000 0.072984 0.053466
v -0.037806 0.072984 0.037806
v -0.053466 0.072984 0.000000
v -0.037806 0.072984 -0.037806
v 0.000000 0.072984 -0.053466
v 0.051793 0.062913 -0.051793
v 0.073246 0.062913 -0.000000
v 0.051793 0.062913 0.051793
v -0.000000 0.062913 0.073246
v -0.051793 0.062913 0.051793
v -0.073246 0.062913 -0.000000
v -0.051793 0.062913 -0.051793
v -0.000000 0.062913 -0.073246
v 0.054561 0.031456 -0.054561
v 0.077161 0.031456 -0.000000
v 0.054561 0.031456 0.054561
v 0.000000 0.031456 0.077161
v -0.054561 0.031456 0.054561
v -0.077161 0.031456 -0.000000
v -0.054561 0.031456 -0.054561
v 0.000000 0.031456 -0.077161
v 0.064136 0.015728 -0.064136
v 0.090702 0.015728 -0.000000
v 0.064136 0.015728 0.064136
v 0.000000 0.015728 0.090702
v -0.064136 0.015728 0.064136
v -0.090702 0.015728 -0.000000
v -0.064136 0.015728 -0.064136
v 0.000000 0.015728 -0.090702
vn -0.0000 0.8801 -0.4748
vn 0.2290 0.9461 -0.2289
vn 0.3355 0.8804 -0.3352
vn 0.3227 0.9465 -0.0000
vn 0.4738 0.8806 -0.0000
vn 0.3355 0.8804 0.3352
vn 0.2290 0.9461 0.2289
vn -0.0000 0.8801 0.4748
vn -0.2290 0.9461 0.2289
vn -0.3355 0.8804 0.3352
vn -0.3227 0.9465 -0.0000
vn -0.4738 0.8806 -0.0000
vn -0.3355 0.8804 -0.3352
vn -0.2290 0.9461 -0.2289
vn -0.0000 -1.0000 -0.0000
vn -0.3814 0.0812 -0.9208
vn -0.3827 -0.0000 -0.9239
vn -0.9208 0.0812 -0.3814
vn -0.9239 -0.0000 -0.3827
vn -0.9208 0.0812 0.3814
vn -0.9239 -0.0000 0.3827
vn -0.3814 0.0812 0.9208
vn -0.3827 -0.0000 0.9239
vn 0.3814 0.0812 0.9208
vn 0.3827 -0.0000 0.9239
vn 0.9208 0.0812 0.3814
vn 0.9239 -0.0000 0.3827
vn 0.9208 0.0812 -0.3814
vn 0.9239 -0.0000 -0.3827
vn 0.3814 0.0812 -0.9208
vn 0.3827 -0.0000 -0.9239
vn -0.4653 0.7529 -0.4653
vn -0.3007 0.6187 -0.7258
vn -0.6581 0.7529 -0.0000
vn -0.7258 0.6187 -0.3007
vn -0.4653 0.7529 0.4653
vn -0.7258 0.6187 0.3007
vn -0.0000 0.7529 0.6581
vn -0.3007 0.6187 0.7258
vn 0.4653 0.7529 0.4653
vn 0.3007 0.6187 0.7258
vn 0.6581 0.7529 -0.0000
vn 0.7258 0.6187 0.3007
vn 0.4653 0.7529 -0.4653
vn 0.7258 0.6187 -0.3007
vn -0.0000 0.7529 -0.6581
vn 0.3007 0.6187 -0.7258
vn 0.3773 0.1674 -0.9108
vn 0.9108 0.1674 -0.3773
vn 0.9108 0.1674 0.3773
vn 0.3773 0.1674 0.9108
vn -0.3773 0.1674 0.9108
vn -0.9108 0.1674 0.3773
vn -0.9108 0.1674 -0.3773
vn -0.3773 0.1674 -0.9108
vn -0.0000 0.9458 0.3249
vn -0.0000 0.8911 -0.4538
vn 0.3209 0.8911 -0.3209
vn 0.4538 0.8911 -0.0000
vn 0.3209 0.8911 0.3209
vn -0.0000 0.8911 0.4538
vn -0.3209 0.8911 0.3209
vn -0.4538 0.8911 -0.0000
vn -0.3209 0.8911 -0.3209
vn -0.3802 0.1142 -0.9178
vn -0.9178 0.1142 -0.3802
vn -0.9178 0.1142 0.3802
vn -0.3802 0.1142 0.9178
vn 0.3802 0.1142 0.9178
vn 0.9178 0.1142 0.3802
vn 0.9178 0.1142 -0.3802
vn 0.3802 0.1142 -0.9178
vn 0.2995 0.6225 -0.7230
vn 0.3501 0.4037 -0.8452
vn 0.7230 0.6225 -0.2995
vn 0.8452 0.4037 -0.3501
vn 0.7230 0.6225 0.2995
vn 0.8452 0.4037 0.3501
vn 0.2995 0.6225 0.7230
vn 0.3501 0.4037 0.8452
vn -0.2995 0.6225 0.7230
vn -0.3501 0.4037 0.8452
vn -0.7230 0.6225 0.2995
vn -0.8452 0.4037 0.3501
vn -0.7230 0.6225 -0.2995
vn -0.8452 0.4037 -0.3501
vn -0.2995 0.6225 -0.7230
vn -0.3501 0.4037 -0.8452
vn -0.3717 0.2377 -0.8974
vn -0.8974 0.2377 -0.3717
vn -0.8974 0.2377 0.3717
vn -0.3717 0.2377 0.8974
vn 0.3717 0.2377 0.8974
vn 0.8974 0.2377 0.3717
vn 0.8974 0.2377 -0.3717
vn 0.3717 0.2377 -0.8974
vn -0.0000 0.9458 -0.3249
vt 1.000000 0.983179
vt 0.875000 1.000000
vt 0.875000 0.983179
vt 0.750000 1.000000
vt 0.750000 0.983179
vt 0.625000 0.983179
vt 0.625000 1.000000
vt 0.500000 0.983179
vt 0.375000 1.000000
vt 0.375000 0.983179
vt 0.250000 1.000000
vt 0.250000 0.983179
vt 0.125000 0.983179
vt 0.125000 1.000000
vt 0.000000 0.983179
vt 0.919706 0.080294
vt 0.580294 0.080294
vt 0.580294 0.419706
vt 0.125000 0.870712
vt 0.000000 0.631900
vt 0.125000 0.631900
vt 0.250000 0.870712
vt 0.250000 0.631900
vt 0.375000 0.870712
vt 0.375000 0.631900
vt 0.500000 0.870712
vt 0.500000 0.631900
vt 0.625000 0.870712
vt 0.625000 0.631900
vt 0.750000 0.870712
vt 0.750000 0.631900
vt 0.875000 0.870712
vt 0.875000 0.631900
vt 1.000000 0.870712
vt 1.000000 0.631900
vt 0.125000 0.966359
vt 0.000000 0.918536
vt 0.125000 0.918536
vt 0.250000 0.966359
vt 0.250000 0.918536
vt 0.375000 0.966359
vt 0.375000 0.918536
vt 0.500000 0.966359
vt 0.500000 0.918536
vt 0.625000 0.966359
vt 0.625000 0.918536
vt 0.750000 0.966359
vt 0.750000 0.918536
vt 0.875000 0.966359
vt 0.875000 0.918536
vt 1.000000 0.966359
vt 1.000000 0.918536
vt 0.000000 0.966359
vt 0.000000 0.870712
vt 0.500000 1.000000
vt 0.875000 0.613698
vt 1.000000 0.613698
vt 0.750000 0.613698
vt 0.625000 0.613698
vt 0.500000 0.613698
vt 0.375000 0.613698
vt 0.250000 0.613698
vt 0.125000 0.613698
vt 0.000000 0.613698
vt 0.000000 0.556849
vt 0.125000 0.556849
vt 0.250000 0.556849
vt 0.375000 0.556849
vt 0.500000 0.556849
vt 0.625000 0.556849
vt 0.750000 0.556849
vt 0.875000 0.556849
vt 1.000000 0.556849
vt 0.875000 0.528425
vt 1.000000 0.528425
vt 0.750000 0.528425
vt 0.625000 0.528425
vt 0.500000 0.528425
vt 0.375000 0.528425
vt 0.250000 0.528425
vt 0.125000 0.528425
vt 0.000000 0.528425
vt 0.000000 0.500000
vt 0.125000 0.500000
vt 0.250000 0.500000
vt 0.375000 0.500000
vt 0.500000 0.500000
vt 0.625000 0.500000
vt 0.750000 0.500000
vt 0.875000 0.500000
vt 1.000000 0.500000
vt 1.000000 1.000000
vt 0.000000 1.000000
vt 0.750000 0.490000
vt 0.919706 0.419706
vt 0.990000 0.250000
vt 0.750000 0.010000
vt 0.510000 0.250000
s 1
f 148/73/181 119/74/182 149/75/183
f 149/75/183 121/76/184 150/77/185
f 121/76/184 151/78/186 150/77/185
f 123/79/187 152/80/188 151/78/186
f 152/80/188 127/81/189 153/82/190
f 153/82/190 129/83/191 154/84/192
f 129/83/191 155/85/193 154/84/192
f 131/86/194 148/87/181 155/85/193
f 122/88/195 126/89/195 130/90/195
f 139/91/196 171/92/197 170/93/197
f 138/94/198 170/93/199 169/95/199
f 137/96/200 169/95/201 168/97/201
f 136/98/202 168/97/203 167/99/203
f 135/100/204 167/99/205 166/101/205
f 134/102/206 166/101/207 165/103/207
f 133/104/208 165/103/209 164/105/209
f 132/106/210 164/105/211 171/107/211
f 147/108/212 163/109/213 162/110/213
f 146/111/214 162/110/215 161/112/215
f 145/113/216 161/112/217 160/114/217
f 144/115/218 160/114/219 159/116/219
f 143/117/220 159/116/221 158/118/221
f 142/119/222 158/118/223 157/120/223
f 141/121/224 157/120/225 156/122/225
f 140/123/226 156/122/227 163/124/227
f 155/85/193 140/125/226 147/108/212
f 154/84/192 147/108/212 146/111/214
f 153/82/190 146/111/214 145/113/216
f 152/80/188 145/113/216 144/115/218
f 151/78/186 144/115/218 143/117/220
f 150/77/185 143/117/220 142/119/222
f 149/75/183 142/119/222 141/121/224
f 148/73/181 141/121/224 140/123/226
f 163/124/228 133/104/210 132/106/210
f 156/122/229 134/102/208 133/104/208
f 157/120/230 135/100/206 134/102/206
f 158/118/231 136/98/204 135/100/204
f 159/116/232 137/96/202 136/98/202
f 160/114/233 138/94/200 137/96/200
f 161/112/234 139/91/198 138/94/198
f 162/110/235 132/126/196 139/91/196
f 123/79/187 127/81/189 125/127/236
f 121/76/184 129/83/191 127/81/189
f 119/74/182 131/86/194 129/83/191
f 171/107/237 172/128/238 179/129/237
f 164/105/238 173/130/239 172/128/238
f 165/103/239 174/131/240 173/130/239
f 166/101/240 175/132/241 174/131/240
f 167/99/241 176/133/242 175/132/241
f 168/97/242 177/134/243 176/133/242
f 169/95/243 178/135/244 177/134/243
f 170/93/244 179/136/237 178/135/244
f 178/135/245 187/137/245 186/138/245
f 177/134/246 186/138/246 185/139/246
f 176/133/247 185/139/247 184/140/247
f 175/132/248 184/140/248 183/141/248
f 174/131/249 183/141/249 182/142/249
f 173/130/250 182/142/250 181/143/250
f 172/128/251 181/143/251 180/144/251
f 179/129/252 180/144/252 187/145/252
f 187/145/253 188/146/254 195/147/254
f 180/144/255 189/148/256 188/146/256
f 181/143/257 190/149/258 189/148/258
f 182/142/259 191/150/260 190/149/260
f 183/141/261 192/151/262 191/150/262
f 184/140/263 193/152/264 192/151/264
f 185/139/265 194/153/266 193/152/266
f 186/138/267 195/154/268 194/153/268
f 194/153/268 116/155/269 130/156/269
f 128/157/270 194/153/266 130/156/270
f 192/151/264 128/157/271 126/158/271
f 124/159/272 192/151/262 126/158/272
f 190/149/260 124/159/273 122/160/273
f 120/161/274 190/149/258 122/160/274
f 188/146/256 120/161/275 118/162/275
f 116/163/276 188/146/254 118/162/276
f 148/73/181 117/164/277 119/74/182
f 149/75/183 119/74/182 121/76/184
f 121/76/184 123/79/187 151/78/186
f 123/79/187 125/127/236 152/80/188
f 152/80/188 125/127/236 127/81/189
f 153/82/190 127/81/189 129/83/191
f 129/83/191 131/86/194 155/85/193
f 131/86/194 117/165/277 148/87/181
f 130/90/195 116/166/195 118/167/195
f 118/167/195 120/168/195 122/88/195
f 122/88/195 124/169/195 126/89/195
f 126/89/195 128/170/195 130/90/195
f 130/90/195 118/167/195 122/88/195
f 139/91/196 132/126/196 171/92/197
f 138/94/198 139/91/198 170/93/199
f 137/96/200 138/94/200 169/95/201
f 136/98/202 137/96/202 168/97/203
f 135/100/204 136/98/204 167/99/205
f 134/102/206 135/100/206 166/101/207
f 133/104/208 134/102/208 165/103/209
f 132/106/210 133/104/210 164/105/211
f 147/108/212 140/125/226 163/109/213
f 146/111/214 147/108/212 162/110/215
f 145/113/216 146/111/214 161/112/217
f 144/115/218 145/113/216 160/114/219
f 143/117/220 144/115/218 159/116/221
f 142/119/222 143/117/220 158/118/223
f 141/121/224 142/119/222 157/120/225
f 140/123/226 141/121/224 156/122/227
f 155/85/193 148/87/181 140/125/226
f 154/84/192 155/85/193 147/108/212
f 153/82/190 154/84/192 146/111/214
f 152/80/188 153/82/190 145/113/216
f 151/78/186 152/80/188 144/115/218
f 150/77/185 151/78/186 143/117/220
f 149/75/183 150/77/185 142/119/222
f 148/73/181 149/75/183 141/121/224
f 163/124/228 156/122/228 133/104/210
f 156/122/229 157/120/229 134/102/208
f 157/120/230 158/118/230 135/100/206
f 158/118/231 159/116/231 136/98/204
f 159/116/232 160/114/232 137/96/202
f 160/114/233 161/112/233 138/94/200
f 161/112/234 162/110/234 139/91/198
f 162/110/235 163/109/235 132/126/196
f 123/79/187 121/76/184 127/81/189
f 121/76/184 119/74/182 129/83/191
f 119/74/182 117/164/277 131/86/194
f 171/107/237 164/105/238 172/128/238
f 164/105/238 165/103/239 173/130/239
f 165/103/239 166/101/240 174/131/240
f 166/101/240 167/99/241 175/132/241
f 167/99/241 168/97/242 176/133/242
f 168/97/242 169/95/243 177/134/243
f 169/95/243 170/93/244 178/135/244
f 170/93/244 171/92/237 179/136/237
f 178/135/245 179/136/245 187/137/245
f 177/134/246 178/135/246 186/138/246
f 176/133/247 177/134/247 185/139/247
f 175/132/248 176/133/248 184/140/248
f 174/131/249 175/132/249 183/141/249
f 173/130/250 174/131/250 182/142/250
f 172/128/251 173/130/251 181/143/251
f 179/129/252 172/128/252 180/144/252
f 187/145/253 180/144/253 188/146/254
f 180/144/255 181/143/255 189/148/256
f 181/143/257 182/142/257 190/149/258
f 182/142/259 183/141/259 191/150/260
f 183/141/261 184/140/261 192/151/262
f 184/140/263 185/139/263 193/152/264
f 185/139/265 186/138/265 194/153/266
f 186/138/267 187/137/267 195/154/268
f 194/153/268 195/154/268 116/155/269
f 128/157/270 193/152/266 194/153/266
f 192/151/264 193/152/264 128/157/271
f 124/159/272 191/150/262 192/151/262
f 190/149/260 191/150/260 124/159/273
f 120/161/274 189/148/258 190/149/258
f 188/146/256 189/148/256 120/161/275
f 116/163/276 195/147/254 188/146/254
o WallLight01.004
v -0.044245 0.110871 -0.044245
v -0.040760 0.107290 -0.040760
v -0.042091 0.101494 -0.042091
v -0.046400 0.101494 -0.046400
v -0.047731 0.107290 -0.047731
v -0.000000 0.110871 -0.062572
v 0.000000 0.107290 -0.057643
v -0.000000 0.101494 -0.059526
v -0.000000 0.101494 -0.065619
v -0.000000 0.107290 -0.067502
v 0.044245 0.110871 -0.044245
v 0.040760 0.107290 -0.040760
v 0.042091 0.101494 -0.042091
v 0.046400 0.101494 -0.046400
v 0.047731 0.107290 -0.047731
v 0.062572 0.110871 -0.000000
v 0.057643 0.107290 0.000000
v 0.059526 0.101494 0.000000
v 0.065619 0.101494 -0.000000
v 0.067502 0.107290 -0.000000
v 0.044245 0.110871 0.044245
v 0.040760 0.107290 0.040760
v 0.042091 0.101494 0.042091
v 0.046400 0.101494 0.046400
v 0.047731 0.107290 0.047731
v 0.000000 0.110871 0.062572
v -0.000000 0.107290 0.057643
v -0.000000 0.101494 0.059526
v 0.000000 0.101494 0.065619
v 0.000000 0.107290 0.067502
v -0.044245 0.110871 0.044245
v -0.040760 0.107290 0.040760
v -0.042091 0.101494 0.042091
v -0.046400 0.101494 0.046400
v -0.047731 0.107290 0.047731
v -0.062572 0.110871 -0.000000
v -0.057643 0.107290 -0.000000
v -0.059526 0.101494 -0.000000
v -0.065619 0.101494 -0.000000
v -0.067502 0.107290 -0.000000
vn -0.2366 0.7861 -0.5711
vn 0.2366 0.7861 0.5711
vn 0.3665 -0.2875 0.8849
vn -0.0000 -1.0000 -0.0000
vn -0.3665 -0.2875 -0.8849
vn 0.2366 0.7861 -0.5711
vn -0.2366 0.7861 0.5711
vn -0.3665 -0.2875 0.8849
vn 0.3665 -0.2875 -0.8849
vn 0.5711 0.7861 -0.2366
vn -0.5711 0.7861 0.2366
vn -0.8849 -0.2875 0.3665
vn 0.8849 -0.2875 -0.3665
vn 0.5711 0.7861 0.2366
vn -0.5711 0.7861 -0.2366
vn -0.8849 -0.2875 -0.3665
vn 0.8849 -0.2875 0.3665
vt 0.000000 1.000000
vt 0.125000 1.000000
vt 0.125000 0.800000
vt 0.000000 0.800000
vt 0.000000 0.200000
vt 0.125000 0.200000
vt 0.125000 0.000000
vt 0.000000 0.000000
vt 0.000000 0.400000
vt 0.125000 0.400000
vt 0.000000 0.600000
vt 0.125000 0.600000
vt 0.250000 1.000000
vt 0.250000 0.800000
vt 0.250000 0.200000
vt 0.250000 0.000000
vt 0.250000 0.400000
vt 0.250000 0.600000
vt 0.375000 1.000000
vt 0.375000 0.800000
vt 0.375000 0.200000
vt 0.375000 0.000000
vt 0.375000 0.400000
vt 0.375000 0.600000
vt 0.500000 1.000000
vt 0.500000 0.800000
vt 0.500000 0.200000
vt 0.500000 0.000000
vt 0.500000 0.400000
vt 0.500000 0.600000
vt 0.625000 1.000000
vt 0.625000 0.800000
vt 0.625000 0.200000
vt 0.625000 0.000000
vt 0.625000 0.400000
vt 0.625000 0.600000
vt 0.750000 1.000000
vt 0.750000 0.800000
vt 0.750000 0.200000
vt 0.750000 0.000000
vt 0.750000 0.400000
vt 0.750000 0.600000
vt 0.875000 1.000000
vt 0.875000 0.800000
vt 0.875000 0.200000
vt 0.875000 0.000000
vt 0.875000 0.400000
vt 0.875000 0.600000
vt 1.000000 1.000000
vt 1.000000 0.800000
vt 1.000000 0.200000
vt 1.000000 0.000000
vt 1.000000 0.400000
vt 1.000000 0.600000
s 0
f 196/171/278 201/172/278 205/173/278 200/174/278
f 197/175/279 202/176/279 201/177/279 196/178/279
f 198/179/280 203/180/280 202/176/280 197/175/280
f 199/181/281 204/182/281 203/180/281 198/179/281
f 200/174/282 205/173/282 204/182/282 199/181/282
f 201/172/283 206/183/283 210/184/283 205/173/283
f 202/176/284 207/185/284 206/186/284 201/177/284
f 203/180/285 208/187/285 207/185/285 202/176/285
f 204/182/281 209/188/281 208/187/281 203/180/281
f 205/173/286 210/184/286 209/188/286 204/182/286
f 206/183/287 211/189/287 215/190/287 210/184/287
f 207/185/288 212/191/288 211/192/288 206/186/288
f 208/187/289 213/193/289 212/191/289 207/185/289
f 209/188/281 214/194/281 213/193/281 208/187/281
f 210/184/290 215/190/290 214/194/290 209/188/290
f 211/189/291 216/195/291 220/196/291 215/190/291
f 212/191/292 217/197/292 216/198/292 211/192/292
f 213/193/293 218/199/293 217/197/293 212/191/293
f 214/194/281 219/200/281 218/199/281 213/193/281
f 215/190/294 220/196/294 219/200/294 214/194/294
f 216/195/279 221/201/279 225/202/279 220/196/279
f 217/197/278 222/203/278 221/204/278 216/198/278
f 218/199/282 223/205/282 222/203/282 217/197/282
f 219/200/281 224/206/281 223/205/281 218/199/281
f 220/196/280 225/202/280 224/206/280 219/200/280
f 221/201/284 226/207/284 230/208/284 225/202/284
f 222/203/283 227/209/283 226/210/283 221/204/283
f 223/205/286 228/211/286 227/209/286 222/203/286
f 224/206/281 229/212/281 228/211/281 223/205/281
f 225/202/285 230/208/285 229/212/285 224/206/285
f 226/207/288 231/213/288 235/214/288 230/208/288
f 227/209/287 232/215/287 231/216/287 226/210/287
f 228/211/290 233/217/290 232/215/290 227/209/290
f 229/212/281 234/218/281 233/217/281 228/211/281
f 230/208/289 235/214/289 234/218/289 229/212/289
f 231/213/292 196/219/292 200/220/292 235/214/292
f 232/215/291 197/221/291 196/222/291 231/216/291
f 233/217/294 198/223/294 197/221/294 232/215/294
f 234/218/281 199/224/281 198/223/281 233/217/281
f 235/214/293 200/220/293 199/224/293 234/218/293
o WallLight01.004
v -0.044245 0.110871 -0.044245
v -0.040760 0.107290 -0.040760
v -0.042091 0.101494 -0.042091
v -0.046400 0.101494 -0.046400
v -0.047731 0.107290 -0.047731
v -0.000000 0.110871 -0.062572
v 0.000000 0.107290 -0.057643
v -0.000000 0.101494 -0.059526
v -0.000000 0.101494 -0.065619
v -0.000000 0.107290 -0.067502
v 0.044245 0.110871 -0.044245
v 0.040760 0.107290 -0.040760
v 0.042091 0.101494 -0.042091
v 0.046400 0.101494 -0.046400
v 0.047731 0.107290 -0.047731
v 0.062572 0.110871 -0.000000
v 0.057643 0.107290 0.000000
v 0.059526 0.101494 0.000000
v 0.065619 0.101494 -0.000000
v 0.067502 0.107290 -0.000000
v 0.044245 0.110871 0.044245
v 0.040760 0.107290 0.040760
v 0.042091 0.101494 0.042091
v 0.046400 0.101494 0.046400
v 0.047731 0.107290 0.047731
v 0.000000 0.110871 0.062572
v -0.000000 0.107290 0.057643
v -0.000000 0.101494 0.059526
v 0.000000 0.101494 0.065619
v 0.000000 0.107290 0.067502
v -0.044245 0.110871 0.044245
v -0.040760 0.107290 0.040760
v -0.042091 0.101494 0.042091
v -0.046400 0.101494 0.046400
v -0.047731 0.107290 0.047731
v -0.062572 0.110871 -0.000000
v -0.057643 0.107290 -0.000000
v -0.059526 0.101494 -0.000000
v -0.065619 0.101494 -0.000000
v -0.067502 0.107290 -0.000000
vn -0.2366 0.7861 -0.5711
vn 0.2366 0.7861 0.5711
vn 0.3665 -0.2875 0.8849
vn -0.0000 -1.0000 -0.0000
vn -0.3665 -0.2875 -0.8849
vn 0.2366 0.7861 -0.5711
vn -0.2366 0.7861 0.5711
vn -0.3665 -0.2875 0.8849
vn 0.3665 -0.2875 -0.8849
vn 0.5711 0.7861 -0.2366
vn -0.5711 0.7861 0.2366
vn -0.8849 -0.2875 0.3665
vn 0.8849 -0.2875 -0.3665
vn 0.5711 0.7861 0.2366
vn -0.5711 0.7861 -0.2366
vn -0.8849 -0.2875 -0.3665
vn 0.8849 -0.2875 0.3665
vt 0.000000 1.000000
vt 0.125000 0.800000
vt 0.000000 0.800000
vt 0.000000 0.200000
vt 0.125000 0.000000
vt 0.000000 0.000000
vt 0.000000 0.400000
vt 0.125000 0.200000
vt 0.125000 0.600000
vt 0.000000 0.600000
vt 0.125000 1.000000
vt 0.250000 0.800000
vt 0.250000 0.200000
vt 0.250000 0.400000
vt 0.125000 0.400000
vt 0.250000 0.600000
vt 0.250000 1.000000
vt 0.375000 0.800000
vt 0.375000 0.000000
vt 0.250000 0.000000
vt 0.375000 0.400000
vt 0.375000 0.600000
vt 0.500000 1.000000
vt 0.375000 1.000000
vt 0.375000 0.200000
vt 0.500000 0.000000
vt 0.500000 0.400000
vt 0.500000 0.600000
vt 0.500000 0.800000
vt 0.625000 0.800000
vt 0.500000 0.200000
vt 0.625000 0.000000
vt 0.625000 0.400000
vt 0.625000 1.000000
vt 0.750000 0.800000
vt 0.625000 0.200000
vt 0.750000 0.000000
vt 0.750000 0.200000
vt 0.750000 0.600000
vt 0.625000 0.600000
vt 0.750000 1.000000
vt 0.875000 0.800000
vt 0.875000 0.200000
vt 0.875000 0.400000
vt 0.750000 0.400000
vt 0.875000 0.600000
vt 0.875000 1.000000
vt 1.000000 0.800000
vt 1.000000 0.200000
vt 0.875000 0.000000
vt 1.000000 0.600000
vt 1.000000 1.000000
vt 1.000000 0.000000
vt 1.000000 0.400000
s 0
f 236/225/295 245/226/295 240/227/295
f 237/228/296 241/229/296 236/230/296
f 238/231/297 242/232/297 237/228/297
f 244/233/298 238/231/298 239/234/298
f 245/226/299 239/234/299 240/227/299
f 241/235/300 250/236/300 245/226/300
f 247/237/301 241/229/301 242/232/301
f 248/238/302 242/232/302 243/239/302
f 249/240/298 243/239/298 244/233/298
f 250/236/303 244/233/303 245/226/303
f 246/241/304 255/242/304 250/236/304
f 247/237/305 251/243/305 246/244/305
f 253/245/306 247/237/306 248/238/306
f 254/246/298 248/238/298 249/240/298
f 250/236/307 254/246/307 249/240/307
f 256/247/308 255/242/308 251/248/308
f 252/249/309 256/250/309 251/243/309
f 258/251/310 252/249/310 253/245/310
f 259/252/298 253/245/298 254/246/298
f 260/253/311 254/246/311 255/242/311
f 256/247/296 265/254/296 260/253/296
f 257/255/295 261/256/295 256/250/295
f 263/257/299 257/255/299 258/251/299
f 259/252/298 263/257/298 258/251/298
f 265/254/297 259/252/297 260/253/297
f 261/258/301 270/259/301 265/254/301
f 262/260/300 266/261/300 261/256/300
f 263/257/303 267/262/303 262/260/303
f 269/263/298 263/257/298 264/264/298
f 270/259/302 264/264/302 265/254/302
f 266/265/305 275/266/305 270/259/305
f 272/267/304 266/261/304 267/262/304
f 273/268/307 267/262/307 268/269/307
f 274/270/298 268/269/298 269/263/298
f 275/266/306 269/263/306 270/259/306
f 271/271/309 240/272/309 275/266/309
f 237/273/308 271/274/308 272/267/308
f 273/268/311 237/273/311 272/267/311
f 239/275/298 273/268/298 274/270/298
f 275/266/310 239/275/310 274/270/310
f 236/225/295 241/235/295 245/226/295
f 237/228/296 242/232/296 241/229/296
f 238/231/297 243/239/297 242/232/297
f 244/233/298 243/239/298 238/231/298
f 245/226/299 244/233/299 239/234/299
f 241/235/300 246/241/300 250/236/300
f 247/237/301 246/244/301 241/229/301
f 248/238/302 247/237/302 242/232/302
f 249/240/298 248/238/298 243/239/298
f 250/236/303 249/240/303 244/233/303
f 246/241/304 251/248/304 255/242/304
f 247/237/305 252/249/305 251/243/305
f 253/245/306 252/249/306 247/237/306
f 254/246/298 253/245/298 248/238/298
f 250/236/307 255/242/307 254/246/307
f 256/247/308 260/253/308 255/242/308
f 252/249/309 257/255/309 256/250/309
f 258/251/310 257/255/310 252/249/310
f 259/252/298 258/251/298 253/245/298
f 260/253/311 259/252/311 254/246/311
f 256/247/296 261/258/296 265/254/296
f 257/255/295 262/260/295 261/256/295
f 263/257/299 262/260/299 257/255/299
f 259/252/298 264/264/298 263/257/298
f 265/254/297 264/264/297 259/252/297
f 261/258/301 266/265/301 270/259/301
f 262/260/300 267/262/300 266/261/300
f 263/257/303 268/269/303 267/262/303
f 269/263/298 268/269/298 263/257/298
f 270/259/302 269/263/302 264/264/302
f 266/265/305 271/271/305 275/266/305
f 272/267/304 271/274/304 266/261/304
f 273/268/307 272/267/307 267/262/307
f 274/270/298 273/268/298 268/269/298
f 275/266/306 274/270/306 269/263/306
f 271/271/309 236/276/309 240/272/309
f 237/273/308 236/277/308 271/274/308
f 273/268/311 238/278/311 237/273/311
f 239/275/298 238/278/298 273/268/298
f 275/266/310 240/272/310 239/275/310
o WallLight01.005
v -0.044245 0.176025 -0.044245
v -0.040760 0.172443 -0.040760
v -0.042091 0.166648 -0.042091
v -0.046400 0.166648 -0.046400
v -0.047731 0.172443 -0.047731
v -0.000000 0.176025 -0.062572
v 0.000000 0.172443 -0.057643
v -0.000000 0.166648 -0.059526
v -0.000000 0.166648 -0.065619
v -0.000000 0.172443 -0.067502
v 0.044245 0.176025 -0.044245
v 0.040760 0.172443 -0.040760
v 0.042091 0.166648 -0.042091
v 0.046400 0.166648 -0.046400
v 0.047731 0.172443 -0.047731
v 0.062572 0.176025 -0.000000
v 0.057643 0.172443 0.000000
v 0.059526 0.166648 0.000000
v 0.065619 0.166648 -0.000000
v 0.067502 0.172443 -0.000000
v 0.044245 0.176025 0.044245
v 0.040760 0.172443 0.040760
v 0.042091 0.166648 0.042091
v 0.046400 0.166648 0.046400
v 0.047731 0.172443 0.047731
v 0.000000 0.176025 0.062572
v -0.000000 0.172443 0.057643
v -0.000000 0.166648 0.059526
v 0.000000 0.166648 0.065619
v 0.000000 0.172443 0.067502
v -0.044245 0.176025 0.044245
v -0.040760 0.172443 0.040760
v -0.042091 0.166648 0.042091
v -0.046400 0.166648 0.046400
v -0.047731 0.172443 0.047731
v -0.062572 0.176025 -0.000000
v -0.057643 0.172443 -0.000000
v -0.059526 0.166648 -0.000000
v -0.065619 0.166648 -0.000000
v -0.067502 0.172443 -0.000000
vn -0.2366 0.7861 -0.5711
vn 0.2366 0.7861 0.5711
vn 0.3665 -0.2875 0.8849
vn -0.0000 -1.0000 -0.0000
vn -0.3665 -0.2875 -0.8849
vn 0.2366 0.7861 -0.5711
vn -0.2366 0.7861 0.5711
vn -0.3665 -0.2875 0.8849
vn 0.3665 -0.2875 -0.8849
vn 0.5711 0.7861 -0.2366
vn -0.5711 0.7861 0.2366
vn -0.8849 -0.2875 0.3665
vn 0.8849 -0.2875 -0.3665
vn 0.5711 0.7861 0.2366
vn -0.5711 0.7861 -0.2366
vn -0.8849 -0.2875 -0.3665
vn 0.8849 -0.2875 0.3665
vt 0.000000 1.000000
vt 0.125000 1.000000
vt 0.125000 0.800000
vt 0.000000 0.800000
vt 0.000000 0.200000
vt 0.125000 0.200000
vt 0.125000 0.000000
vt 0.000000 0.000000
vt 0.000000 0.400000
vt 0.125000 0.400000
vt 0.000000 0.600000
vt 0.125000 0.600000
vt 0.250000 1.000000
vt 0.250000 0.800000
vt 0.250000 0.200000
vt 0.250000 0.000000
vt 0.250000 0.400000
vt 0.250000 0.600000
vt 0.375000 1.000000
vt 0.375000 0.800000
vt 0.375000 0.200000
vt 0.375000 0.000000
vt 0.375000 0.400000
vt 0.375000 0.600000
vt 0.500000 1.000000
vt 0.500000 0.800000
vt 0.500000 0.200000
vt 0.500000 0.000000
vt 0.500000 0.400000
vt 0.500000 0.600000
vt 0.625000 1.000000
vt 0.625000 0.800000
vt 0.625000 0.200000
vt 0.625000 0.000000
vt 0.625000 0.400000
vt 0.625000 0.600000
vt 0.750000 1.000000
vt 0.750000 0.800000
vt 0.750000 0.200000
vt 0.750000 0.000000
vt 0.750000 0.400000
vt 0.750000 0.600000
vt 0.875000 1.000000
vt 0.875000 0.800000
vt 0.875000 0.200000
vt 0.875000 0.000000
vt 0.875000 0.400000
vt 0.875000 0.600000
vt 1.000000 1.000000
vt 1.000000 0.800000
vt 1.000000 0.200000
vt 1.000000 0.000000
vt 1.000000 0.400000
vt 1.000000 0.600000
s 0
f 276/279/312 281/280/312 285/281/312 280/282/312
f 277/283/313 282/284/313 281/285/313 276/286/313
f 278/287/314 283/288/314 282/284/314 277/283/314
f 279/289/315 284/290/315 283/288/315 278/287/315
f 280/282/316 285/281/316 284/290/316 279/289/316
f 281/280/317 286/291/317 290/292/317 285/281/317
f 282/284/318 287/293/318 286/294/318 281/285/318
f 283/288/319 288/295/319 287/293/319 282/284/319
f 284/290/315 289/296/315 288/295/315 283/288/315
f 285/281/320 290/292/320 289/296/320 284/290/320
f 286/291/321 291/297/321 295/298/321 290/292/321
f 287/293/322 292/299/322 291/300/322 286/294/322
f 288/295/323 293/301/323 292/299/323 287/293/323
f 289/296/315 294/302/315 293/301/315 288/295/315
f 290/292/324 295/298/324 294/302/324 289/296/324
f 291/297/325 296/303/325 300/304/325 295/298/325
f 292/299/326 297/305/326 296/306/326 291/300/326
f 293/301/327 298/307/327 297/305/327 292/299/327
f 294/302/315 299/308/315 298/307/315 293/301/315
f 295/298/328 300/304/328 299/308/328 294/302/328
f 296/303/313 301/309/313 305/310/313 300/304/313
f 297/305/312 302/311/312 301/312/312 296/306/312
f 298/307/316 303/313/316 302/311/316 297/305/316
f 299/308/315 304/314/315 303/313/315 298/307/315
f 300/304/314 305/310/314 304/314/314 299/308/314
f 301/309/318 306/315/318 310/316/318 305/310/318
f 302/311/317 307/317/317 306/318/317 301/312/317
f 303/313/320 308/319/320 307/317/320 302/311/320
f 304/314/315 309/320/315 308/319/315 303/313/315
f 305/310/319 310/316/319 309/320/319 304/314/319
f 306/315/322 311/321/322 315/322/322 310/316/322
f 307/317/321 312/323/321 311/324/321 306/318/321
f 308/319/324 313/325/324 312/323/324 307/317/324
f 309/320/315 314/326/315 313/325/315 308/319/315
f 310/316/323 315/322/323 314/326/323 309/320/323
f 311/321/326 276/327/326 280/328/326 315/322/326
f 312/323/325 277/329/325 276/330/325 311/324/325
f 313/325/328 278/331/328 277/329/328 312/323/328
f 314/326/315 279/332/315 278/331/315 313/325/315
f 315/322/327 280/328/327 279/332/327 314/326/327
o WallLight01.005
v -0.044245 0.176025 -0.044245
v -0.040760 0.172443 -0.040760
v -0.042091 0.166648 -0.042091
v -0.046400 0.166648 -0.046400
v -0.047731 0.172443 -0.047731
v -0.000000 0.176025 -0.062572
v 0.000000 0.172443 -0.057643
v -0.000000 0.166648 -0.059526
v -0.000000 0.166648 -0.065619
v -0.000000 0.172443 -0.067502
v 0.044245 0.176025 -0.044245
v 0.040760 0.172443 -0.040760
v 0.042091 0.166648 -0.042091
v 0.046400 0.166648 -0.046400
v 0.047731 0.172443 -0.047731
v 0.062572 0.176025 -0.000000
v 0.057643 0.172443 0.000000
v 0.059526 0.166648 0.000000
v 0.065619 0.166648 -0.000000
v 0.067502 0.172443 -0.000000
v 0.044245 0.176025 0.044245
v 0.040760 0.172443 0.040760
v 0.042091 0.166648 0.042091
v 0.046400 0.166648 0.046400
v 0.047731 0.172443 0.047731
v 0.000000 0.176025 0.062572
v -0.000000 0.172443 0.057643
v -0.000000 0.166648 0.059526
v 0.000000 0.166648 0.065619
v 0.000000 0.172443 0.067502
v -0.044245 0.176025 0.044245
v -0.040760 0.172443 0.040760
v -0.042091 0.166648 0.042091
v -0.046400 0.166648 0.046400
v -0.047731 0.172443 0.047731
v -0.062572 0.176025 -0.000000
v -0.057643 0.172443 -0.000000
v -0.059526 0.166648 -0.000000
v -0.065619 0.166648 -0.000000
v -0.067502 0.172443 -0.000000
vn -0.2366 0.7861 -0.5711
vn 0.2366 0.7861 0.5711
vn 0.3665 -0.2875 0.8849
vn -0.0000 -1.0000 -0.0000
vn -0.3665 -0.2875 -0.8849
vn 0.2366 0.7861 -0.5711
vn -0.2366 0.7861 0.5711
vn -0.3665 -0.2875 0.8849
vn 0.3665 -0.2875 -0.8849
vn 0.5711 0.7861 -0.2366
vn -0.5711 0.7861 0.2366
vn -0.8849 -0.2875 0.3665
vn 0.8849 -0.2875 -0.3665
vn 0.5711 0.7861 0.2366
vn -0.5711 0.7861 -0.2366
vn -0.8849 -0.2875 -0.3665
vn 0.8849 -0.2875 0.3665
vt 0.000000 1.000000
vt 0.125000 0.800000
vt 0.000000 0.800000
vt 0.000000 0.200000
vt 0.125000 0.000000
vt 0.000000 0.000000
vt 0.000000 0.400000
vt 0.125000 0.200000
vt 0.125000 0.600000
vt 0.000000 0.600000
vt 0.125000 1.000000
vt 0.250000 0.800000
vt 0.250000 0.200000
vt 0.250000 0.400000
vt 0.125000 0.400000
vt 0.250000 0.600000
vt 0.250000 1.000000
vt 0.375000 0.800000
vt 0.375000 0.000000
vt 0.250000 0.000000
vt 0.375000 0.400000
vt 0.375000 0.600000
vt 0.500000 1.000000
vt 0.375000 1.000000
vt 0.375000 0.200000
vt 0.500000 0.000000
vt 0.500000 0.400000
vt 0.500000 0.600000
vt 0.500000 0.800000
vt 0.625000 0.800000
vt 0.500000 0.200000
vt 0.625000 0.000000
vt 0.625000 0.400000
vt 0.625000 1.000000
vt 0.750000 0.800000
vt 0.625000 0.200000
vt 0.750000 0.000000
vt 0.750000 0.200000
vt 0.750000 0.600000
vt 0.625000 0.600000
vt 0.750000 1.000000
vt 0.875000 0.800000
vt 0.875000 0.200000
vt 0.875000 0.400000
vt 0.750000 0.400000
vt 0.875000 0.600000
vt 0.875000 1.000000
vt 1.000000 0.800000
vt 1.000000 0.200000
vt 0.875000 0.000000
vt 1.000000 0.600000
vt 1.000000 1.000000
vt 1.000000 0.000000
vt 1.000000 0.400000
s 0
f 316/333/329 325/334/329 320/335/329
f 317/336/330 321/337/330 316/338/330
f 318/339/331 322/340/331 317/336/331
f 324/341/332 318/339/332 319/342/332
f 325/334/333 319/342/333 320/335/333
f 321/343/334 330/344/334 325/334/334
f 327/345/335 321/337/335 322/340/335
f 328/346/336 322/340/336 323/347/336
f 329/348/332 323/347/332 324/341/332
f 330/344/337 324/341/337 325/334/337
f 326/349/338 335/350/338 330/344/338
f 327/345/339 331/351/339 326/352/339
f 333/353/340 327/345/340 328/346/340
f 334/354/332 328/346/332 329/348/332
f 330/344/341 334/354/341 329/348/341
f 336/355/342 335/350/342 331/356/342
f 332/357/343 336/358/343 331/351/343
f 338/359/344 332/357/344 333/353/344
f 339/360/332 333/353/332 334/354/332
f 340/361/345 334/354/345 335/350/345
f 336/355/330 345/362/330 340/361/330
f 337/363/329 341/364/329 336/358/329
f 343/365/333 337/363/333 338/359/333
f 339/360/332 343/365/332 338/359/332
f 345/362/331 339/360/331 340/361/331
f 341/366/335 350/367/335 345/362/335
f 342/368/334 346/369/334 341/364/334
f 343/365/337 347/370/337 342/368/337
f 349/371/332 343/365/332 344/372/332
f 350/367/336 344/372/336 345/362/336
f 346/373/339 355/374/339 350/367/339
f 352/375/338 346/369/338 347/370/338
f 353/376/341 347/370/341 348/377/341
f 354/378/332 348/377/332 349/371/332
f 355/374/340 349/371/340 350/367/340
f 351/379/343 320/380/343 355/374/343
f 317/381/342 351/382/342 352/375/342
f 353/376/345 317/381/345 352/375/345
f 319/383/332 353/376/332 354/378/332
f 355/374/344 319/383/344 354/378/344
f 316/333/329 321/343/329 325/334/329
f 317/336/330 322/340/330 321/337/330
f 318/339/331 323/347/331 322/340/331
f 324/341/332 323/347/332 318/339/332
f 325/334/333 324/341/333 319/342/333
f 321/343/334 326/349/334 330/344/334
f 327/345/335 326/352/335 321/337/335
f 328/346/336 327/345/336 322/340/336
f 329/348/332 328/346/332 323/347/332
f 330/344/337 329/348/337 324/341/337
f 326/349/338 331/356/338 335/350/338
f 327/345/339 332/357/339 331/351/339
f 333/353/340 332/357/340 327/345/340
f 334/354/332 333/353/332 328/346/332
f 330/344/341 335/350/341 334/354/341
f 336/355/342 340/361/342 335/350/342
f 332/357/343 337/363/343 336/358/343
f 338/359/344 337/363/344 332/357/344
f 339/360/332 338/359/332 333/353/332
f 340/361/345 339/360/345 334/354/345
f 336/355/330 341/366/330 345/362/330
f 337/363/329 342/368/329 341/364/329
f 343/365/333 342/368/333 337/363/333
f 339/360/332 344/372/332 343/365/332
f 345/362/331 344/372/331 339/360/331
f 341/366/335 346/373/335 350/367/335
f 342/368/334 347/370/334 346/369/334
f 343/365/337 348/377/337 347/370/337
f 349/371/332 348/377/332 343/365/332
f 350/367/336 349/371/336 344/372/336
f 346/373/339 351/379/339 355/374/339
f 352/375/338 351/382/338 346/369/338
f 353/376/341 352/375/341 347/370/341
f 354/378/332 353/376/332 348/377/332
f 355/374/340 354/378/340 349/371/340
f 351/379/343 316/384/343 320/380/343
f 317/381/342 316/385/342 351/382/342
f 353/376/345 318/386/345 317/381/345
f 319/383/332 318/386/332 353/376/332
f 355/374/344 320/380/344 319/383/344
o WallLight01.006
v -0.000000 0.065154 -0.005183
v 0.004930 0.065154 -0.001602
v 0.003047 0.065154 0.004194
v -0.003047 0.065154 0.004194
v -0.004930 0.065154 -0.001602
l 356 357
l 357 358
l 358 359
l 359 360
l 360 356
